<?xml version="1.0" encoding="utf-8" standalone="no"?>
<!DOCTYPE svg PUBLIC "-//W3C//DTD SVG 1.1//EN"
  "http://www.w3.org/Graphics/SVG/1.1/DTD/svg11.dtd">
<svg version="1.1" viewBox="0 0 757.992187 511.27625" xmlns="http://www.w3.org/2000/svg" xmlns:xlink="http://www.w3.org/1999/xlink">
 <metadata>
  <rdf:RDF xmlns:cc="http://creativecommons.org/ns#" xmlns:dc="http://purl.org/dc/elements/1.1/" xmlns:rdf="http://www.w3.org/1999/02/22-rdf-syntax-ns#">
   <cc:Work>
    <dc:type rdf:resource="http://purl.org/dc/dcmitype/StillImage"/>
    <dc:date>2021-05-17T16:26:54.569532</dc:date>
    <dc:format>image/svg+xml</dc:format>
    <dc:creator>
     <cc:Agent>
      <dc:title>Matplotlib v3.4.2, https://matplotlib.org/</dc:title>
     </cc:Agent>
    </dc:creator>
   </cc:Work>
  </rdf:RDF>
 </metadata>
 <defs>
  <style type="text/css">*{stroke-linecap:butt;stroke-linejoin:round;}</style>
 </defs>
 <g id="figure_1">
  <g id="patch_1">
   <path d="M 0 511.27625 
L 757.992187 511.27625 
L 757.992187 0 
L 0 0 
z
" style="fill:#ffffff;"/>
  </g>
  <g id="axes_1">
   <g id="patch_2">
    <path d="M 72.5375 476.745 
L 612.5375 476.745 
L 612.5375 33.225 
L 72.5375 33.225 
z
" style="fill:#ffffff;"/>
   </g>
   <g id="matplotlib.axis_1">
    <g id="xtick_1">
     <g id="line2d_1">
      <defs>
       <path d="M 0 0 
L 0 3.5 
" id="m5d2017dc13" style="stroke:#000000;stroke-width:0.8;"/>
      </defs>
      <g>
       <use style="stroke:#000000;stroke-width:0.8;" x="72.5375" xlink:href="#m5d2017dc13" y="476.745"/>
      </g>
     </g>
     <g id="text_1">
      <!-- 01 Mar -->
      <g transform="translate(56.500781 491.018438)scale(0.1 -0.1)">
       <defs>
        <path d="M 2000 -64 
Q 1230 -64 806 561 
Q 382 1186 382 2327 
Q 382 3459 809 4088 
Q 1236 4718 2000 4718 
Q 2764 4718 3191 4088 
Q 3618 3459 3618 2327 
Q 3618 1186 3194 561 
Q 2771 -64 2000 -64 
z
M 2000 436 
Q 2509 436 2791 927 
Q 3073 1418 3073 2327 
Q 3073 3234 2789 3730 
Q 2505 4227 2000 4227 
Q 1496 4227 1211 3730 
Q 927 3234 927 2327 
Q 927 1418 1210 927 
Q 1493 436 2000 436 
z
" id="Inter-Regular-30" transform="scale(0.015625)"/>
        <path d="M 1973 4655 
L 1973 0 
L 1409 0 
L 1409 3836 
L 1373 3836 
Q 1341 3773 1209 3692 
Q 1077 3611 868 3551 
Q 659 3491 391 3491 
L 391 3964 
Q 661 3964 859 4061 
Q 1057 4159 1190 4291 
Q 1323 4423 1392 4529 
Q 1461 4636 1473 4655 
L 1973 4655 
z
" id="Inter-Regular-31" transform="scale(0.015625)"/>
        <path id="Inter-Regular-20" transform="scale(0.015625)"/>
        <path d="M 564 4655 
L 1236 4655 
L 2818 791 
L 2873 791 
L 4455 4655 
L 5127 4655 
L 5127 0 
L 4600 0 
L 4600 3536 
L 4555 3536 
L 3100 0 
L 2591 0 
L 1136 3536 
L 1091 3536 
L 1091 0 
L 564 0 
L 564 4655 
z
" id="Inter-Regular-4d" transform="scale(0.015625)"/>
        <path d="M 1518 -82 
Q 1186 -82 916 44 
Q 646 170 486 410 
Q 327 650 327 991 
Q 327 1291 445 1478 
Q 564 1666 761 1773 
Q 959 1880 1199 1933 
Q 1439 1986 1682 2018 
Q 2000 2059 2199 2080 
Q 2398 2102 2490 2154 
Q 2582 2207 2582 2336 
L 2582 2355 
Q 2582 2691 2399 2877 
Q 2216 3064 1846 3064 
Q 1461 3064 1243 2895 
Q 1025 2727 936 2536 
L 427 2718 
Q 564 3036 792 3214 
Q 1021 3393 1292 3464 
Q 1564 3536 1827 3536 
Q 1996 3536 2215 3496 
Q 2434 3457 2640 3334 
Q 2846 3211 2982 2963 
Q 3118 2716 3118 2300 
L 3118 0 
L 2582 0 
L 2582 473 
L 2555 473 
Q 2500 359 2373 229 
Q 2246 100 2034 9 
Q 1823 -82 1518 -82 
z
M 1600 400 
Q 1918 400 2137 525 
Q 2357 650 2469 847 
Q 2582 1045 2582 1264 
L 2582 1755 
Q 2548 1714 2433 1681 
Q 2318 1648 2169 1624 
Q 2021 1600 1881 1583 
Q 1741 1566 1655 1555 
Q 1446 1527 1265 1467 
Q 1084 1407 974 1287 
Q 864 1168 864 964 
Q 864 684 1072 542 
Q 1280 400 1600 400 
z
" id="Inter-Regular-61" transform="scale(0.015625)"/>
        <path d="M 491 0 
L 491 3491 
L 1009 3491 
L 1009 2964 
L 1046 2964 
Q 1139 3223 1389 3384 
Q 1639 3545 1955 3545 
Q 2100 3545 2209 3511 
Q 2318 3477 2400 3418 
L 2218 2964 
Q 2161 2993 2085 3010 
Q 2009 3027 1909 3027 
Q 1527 3027 1277 2794 
Q 1027 2561 1027 2209 
L 1027 0 
L 491 0 
z
" id="Inter-Regular-72" transform="scale(0.015625)"/>
       </defs>
       <use xlink:href="#Inter-Regular-30"/>
       <use x="62.500015" xlink:href="#Inter-Regular-31"/>
       <use x="106.676163" xlink:href="#Inter-Regular-20"/>
       <use x="134.801163" xlink:href="#Inter-Regular-4d"/>
       <use x="225.99437" xlink:href="#Inter-Regular-61"/>
       <use x="282.386429" xlink:href="#Inter-Regular-72"/>
      </g>
     </g>
    </g>
    <g id="xtick_2">
     <g id="line2d_2">
      <g>
       <use style="stroke:#000000;stroke-width:0.8;" x="110.35222" xlink:href="#m5d2017dc13" y="476.745"/>
      </g>
     </g>
     <g id="text_2">
      <!-- 01 Apr -->
      <g transform="translate(95.267064 491.116875)scale(0.1 -0.1)">
       <defs>
        <path d="M 755 0 
L 164 0 
L 1873 4655 
L 2455 4655 
L 4164 0 
L 3573 0 
L 3105 1318 
L 1223 1318 
L 755 0 
z
M 1400 1818 
L 2927 1818 
L 2182 3918 
L 2146 3918 
L 1400 1818 
z
" id="Inter-Regular-41" transform="scale(0.015625)"/>
        <path d="M 491 -1309 
L 491 3491 
L 1009 3491 
L 1009 2936 
L 1073 2936 
Q 1132 3027 1237 3169 
Q 1343 3311 1542 3423 
Q 1741 3536 2082 3536 
Q 2523 3536 2859 3315 
Q 3196 3095 3384 2690 
Q 3573 2286 3573 1736 
Q 3573 1182 3384 776 
Q 3196 370 2861 148 
Q 2527 -73 2091 -73 
Q 1755 -73 1552 39 
Q 1350 152 1241 296 
Q 1132 441 1073 536 
L 1027 536 
L 1027 -1309 
L 491 -1309 
z
M 1018 1745 
Q 1018 1152 1276 780 
Q 1534 409 2018 409 
Q 2355 409 2581 587 
Q 2807 766 2921 1069 
Q 3036 1373 3036 1745 
Q 3036 2114 2923 2410 
Q 2811 2707 2585 2881 
Q 2359 3055 2018 3055 
Q 1527 3055 1272 2693 
Q 1018 2332 1018 1745 
z
" id="Inter-Regular-70" transform="scale(0.015625)"/>
       </defs>
       <use xlink:href="#Inter-Regular-30"/>
       <use x="62.500015" xlink:href="#Inter-Regular-31"/>
       <use x="106.676163" xlink:href="#Inter-Regular-20"/>
       <use x="134.801163" xlink:href="#Inter-Regular-41"/>
       <use x="202.41481" xlink:href="#Inter-Regular-70"/>
       <use x="263.352325" xlink:href="#Inter-Regular-72"/>
      </g>
     </g>
    </g>
    <g id="xtick_3">
     <g id="line2d_3">
      <g>
       <use style="stroke:#000000;stroke-width:0.8;" x="146.947111" xlink:href="#m5d2017dc13" y="476.745"/>
      </g>
     </g>
     <g id="text_3">
      <!-- 01 May -->
      <g transform="translate(130.043986 491.116875)scale(0.1 -0.1)">
       <defs>
        <path d="M 818 -1355 
Q 682 -1355 575 -1333 
Q 468 -1311 427 -1291 
L 564 -818 
Q 857 -893 1053 -814 
Q 1250 -736 1391 -345 
L 1509 -18 
L 218 3491 
L 800 3491 
L 1764 709 
L 1800 709 
L 2764 3491 
L 3346 3491 
L 1846 -564 
Q 1550 -1355 818 -1355 
z
" id="Inter-Regular-79" transform="scale(0.015625)"/>
       </defs>
       <use xlink:href="#Inter-Regular-30"/>
       <use x="62.500015" xlink:href="#Inter-Regular-31"/>
       <use x="106.676163" xlink:href="#Inter-Regular-20"/>
       <use x="134.801163" xlink:href="#Inter-Regular-4d"/>
       <use x="225.99437" xlink:href="#Inter-Regular-61"/>
       <use x="282.386429" xlink:href="#Inter-Regular-79"/>
      </g>
     </g>
    </g>
    <g id="xtick_4">
     <g id="line2d_4">
      <g>
       <use style="stroke:#000000;stroke-width:0.8;" x="184.761832" xlink:href="#m5d2017dc13" y="476.745"/>
      </g>
     </g>
     <g id="text_4">
      <!-- 01 Jun -->
      <g transform="translate(169.477457 491.018438)scale(0.1 -0.1)">
       <defs>
        <path d="M 2346 4655 
L 2909 4655 
L 2909 1327 
Q 2909 657 2549 296 
Q 2189 -64 1582 -64 
Q 1200 -64 902 76 
Q 605 216 434 475 
Q 264 734 264 1091 
L 818 1091 
Q 818 795 1034 615 
Q 1250 436 1582 436 
Q 1948 436 2147 664 
Q 2346 893 2346 1327 
L 2346 4655 
z
" id="Inter-Regular-4a" transform="scale(0.015625)"/>
        <path d="M 2691 1427 
L 2691 3491 
L 3227 3491 
L 3227 0 
L 2691 0 
L 2691 591 
L 2655 591 
Q 2532 325 2273 140 
Q 2014 -45 1618 -45 
Q 1127 -45 809 280 
Q 491 605 491 1273 
L 491 3491 
L 1027 3491 
L 1027 1309 
Q 1027 927 1242 700 
Q 1457 473 1791 473 
Q 1991 473 2199 575 
Q 2407 677 2549 888 
Q 2691 1100 2691 1427 
z
" id="Inter-Regular-75" transform="scale(0.015625)"/>
        <path d="M 1027 2100 
L 1027 0 
L 491 0 
L 491 3491 
L 1009 3491 
L 1009 2945 
L 1055 2945 
Q 1177 3211 1427 3373 
Q 1677 3536 2073 3536 
Q 2602 3536 2928 3211 
Q 3255 2886 3255 2218 
L 3255 0 
L 2718 0 
L 2718 2182 
Q 2718 2593 2504 2824 
Q 2291 3055 1918 3055 
Q 1534 3055 1280 2806 
Q 1027 2557 1027 2100 
z
" id="Inter-Regular-6e" transform="scale(0.015625)"/>
       </defs>
       <use xlink:href="#Inter-Regular-30"/>
       <use x="62.500015" xlink:href="#Inter-Regular-31"/>
       <use x="106.676163" xlink:href="#Inter-Regular-20"/>
       <use x="134.801163" xlink:href="#Inter-Regular-4a"/>
       <use x="189.062531" xlink:href="#Inter-Regular-75"/>
       <use x="247.159134" xlink:href="#Inter-Regular-6e"/>
      </g>
     </g>
    </g>
    <g id="xtick_5">
     <g id="line2d_5">
      <g>
       <use style="stroke:#000000;stroke-width:0.8;" x="221.356722" xlink:href="#m5d2017dc13" y="476.745"/>
      </g>
     </g>
     <g id="text_5">
      <!-- 01 Jul -->
      <g transform="translate(207.812972 491.018438)scale(0.1 -0.1)">
       <defs>
        <path d="M 1027 4655 
L 1027 0 
L 491 0 
L 491 4655 
L 1027 4655 
z
" id="Inter-Regular-6c" transform="scale(0.015625)"/>
       </defs>
       <use xlink:href="#Inter-Regular-30"/>
       <use x="62.500015" xlink:href="#Inter-Regular-31"/>
       <use x="106.676163" xlink:href="#Inter-Regular-20"/>
       <use x="134.801163" xlink:href="#Inter-Regular-4a"/>
       <use x="189.062531" xlink:href="#Inter-Regular-75"/>
       <use x="247.159134" xlink:href="#Inter-Regular-6c"/>
      </g>
     </g>
    </g>
    <g id="xtick_6">
     <g id="line2d_6">
      <g>
       <use style="stroke:#000000;stroke-width:0.8;" x="259.171443" xlink:href="#m5d2017dc13" y="476.745"/>
      </g>
     </g>
     <g id="text_6">
      <!-- 01 Aug -->
      <g transform="translate(243.099568 491.116875)scale(0.1 -0.1)">
       <defs>
        <path d="M 1900 -1382 
Q 1316 -1382 976 -1169 
Q 636 -957 473 -682 
L 900 -382 
Q 973 -477 1084 -601 
Q 1196 -725 1390 -817 
Q 1584 -909 1900 -909 
Q 2323 -909 2598 -704 
Q 2873 -500 2873 -64 
L 2873 645 
L 2827 645 
Q 2768 550 2660 410 
Q 2552 270 2351 162 
Q 2150 55 1809 55 
Q 1386 55 1051 255 
Q 716 455 521 836 
Q 327 1218 327 1764 
Q 327 2300 516 2699 
Q 705 3098 1041 3317 
Q 1377 3536 1818 3536 
Q 2159 3536 2360 3423 
Q 2561 3311 2669 3169 
Q 2777 3027 2836 2936 
L 2891 2936 
L 2891 3491 
L 3409 3491 
L 3409 -100 
Q 3409 -550 3205 -833 
Q 3002 -1116 2660 -1249 
Q 2318 -1382 1900 -1382 
z
M 1882 536 
Q 2366 536 2624 864 
Q 2882 1193 2882 1773 
Q 2882 2339 2627 2697 
Q 2373 3055 1882 3055 
Q 1541 3055 1315 2882 
Q 1089 2709 976 2418 
Q 864 2127 864 1773 
Q 864 1227 1120 881 
Q 1377 536 1882 536 
z
" id="Inter-Regular-67" transform="scale(0.015625)"/>
       </defs>
       <use xlink:href="#Inter-Regular-30"/>
       <use x="62.500015" xlink:href="#Inter-Regular-31"/>
       <use x="106.676163" xlink:href="#Inter-Regular-20"/>
       <use x="134.801163" xlink:href="#Inter-Regular-41"/>
       <use x="202.41481" xlink:href="#Inter-Regular-75"/>
       <use x="260.511414" xlink:href="#Inter-Regular-67"/>
      </g>
     </g>
    </g>
    <g id="xtick_7">
     <g id="line2d_7">
      <g>
       <use style="stroke:#000000;stroke-width:0.8;" x="296.986163" xlink:href="#m5d2017dc13" y="476.745"/>
      </g>
     </g>
     <g id="text_7">
      <!-- 01 Sep -->
      <g transform="translate(281.098663 491.116875)scale(0.1 -0.1)">
       <defs>
        <path d="M 3109 3491 
Q 3068 3836 2777 4027 
Q 2486 4218 2064 4218 
Q 1600 4218 1318 3999 
Q 1036 3780 1036 3445 
Q 1036 3195 1189 3042 
Q 1343 2889 1553 2803 
Q 1764 2718 1936 2673 
L 2409 2545 
Q 2591 2498 2815 2414 
Q 3039 2330 3244 2185 
Q 3450 2041 3584 1816 
Q 3718 1591 3718 1264 
Q 3718 886 3521 581 
Q 3325 277 2949 97 
Q 2573 -82 2036 -82 
Q 1286 -82 845 272 
Q 405 627 364 1200 
L 946 1200 
Q 968 936 1124 764 
Q 1280 593 1519 510 
Q 1759 427 2036 427 
Q 2359 427 2616 533 
Q 2873 639 3023 828 
Q 3173 1018 3173 1273 
Q 3173 1505 3043 1650 
Q 2914 1795 2702 1886 
Q 2491 1977 2246 2045 
L 1673 2209 
Q 1127 2366 809 2657 
Q 491 2948 491 3418 
Q 491 3809 703 4101 
Q 916 4393 1276 4555 
Q 1636 4718 2082 4718 
Q 2532 4718 2882 4558 
Q 3232 4398 3437 4120 
Q 3643 3843 3655 3491 
L 3109 3491 
z
" id="Inter-Regular-53" transform="scale(0.015625)"/>
        <path d="M 1955 -73 
Q 1450 -73 1085 151 
Q 721 375 524 778 
Q 327 1182 327 1718 
Q 327 2255 524 2665 
Q 721 3075 1074 3305 
Q 1427 3536 1900 3536 
Q 2173 3536 2439 3445 
Q 2705 3355 2923 3151 
Q 3141 2948 3270 2614 
Q 3400 2280 3400 1791 
L 3400 1564 
L 866 1564 
Q 884 1005 1183 707 
Q 1482 409 1955 409 
Q 2271 409 2498 545 
Q 2725 682 2827 955 
L 3346 809 
Q 3223 414 2854 170 
Q 2486 -73 1955 -73 
z
M 866 2027 
L 2855 2027 
Q 2855 2470 2595 2762 
Q 2336 3055 1900 3055 
Q 1593 3055 1368 2911 
Q 1143 2768 1013 2533 
Q 884 2298 866 2027 
z
" id="Inter-Regular-65" transform="scale(0.015625)"/>
       </defs>
       <use xlink:href="#Inter-Regular-30"/>
       <use x="62.500015" xlink:href="#Inter-Regular-31"/>
       <use x="106.676163" xlink:href="#Inter-Regular-20"/>
       <use x="134.801163" xlink:href="#Inter-Regular-53"/>
       <use x="198.57959" xlink:href="#Inter-Regular-65"/>
       <use x="256.818237" xlink:href="#Inter-Regular-70"/>
      </g>
     </g>
    </g>
    <g id="xtick_8">
     <g id="line2d_8">
      <g>
       <use style="stroke:#000000;stroke-width:0.8;" x="333.581054" xlink:href="#m5d2017dc13" y="476.745"/>
      </g>
     </g>
     <g id="text_8">
      <!-- 01 Oct -->
      <g transform="translate(318.424804 491.018438)scale(0.1 -0.1)">
       <defs>
        <path d="M 4491 2327 
Q 4491 1591 4225 1054 
Q 3959 518 3495 227 
Q 3032 -64 2436 -64 
Q 1841 -64 1377 227 
Q 914 518 648 1054 
Q 382 1591 382 2327 
Q 382 3064 648 3600 
Q 914 4136 1377 4427 
Q 1841 4718 2436 4718 
Q 3032 4718 3495 4427 
Q 3959 4136 4225 3600 
Q 4491 3064 4491 2327 
z
M 3946 2327 
Q 3946 2932 3744 3348 
Q 3543 3764 3201 3977 
Q 2859 4191 2436 4191 
Q 2014 4191 1672 3977 
Q 1330 3764 1128 3348 
Q 927 2932 927 2327 
Q 927 1723 1128 1307 
Q 1330 891 1672 677 
Q 2014 464 2436 464 
Q 2859 464 3201 677 
Q 3543 891 3744 1307 
Q 3946 1723 3946 2327 
z
" id="Inter-Regular-4f" transform="scale(0.015625)"/>
        <path d="M 1909 -73 
Q 1418 -73 1063 159 
Q 709 391 518 798 
Q 327 1205 327 1727 
Q 327 2259 524 2667 
Q 721 3075 1074 3305 
Q 1427 3536 1900 3536 
Q 2268 3536 2563 3400 
Q 2859 3264 3047 3018 
Q 3236 2773 3282 2445 
L 2746 2445 
Q 2684 2684 2474 2869 
Q 2264 3055 1909 3055 
Q 1439 3055 1151 2697 
Q 864 2339 864 1745 
Q 864 1139 1148 774 
Q 1432 409 1909 409 
Q 2223 409 2447 570 
Q 2671 732 2746 1018 
L 3282 1018 
Q 3236 709 3058 462 
Q 2880 216 2588 71 
Q 2296 -73 1909 -73 
z
" id="Inter-Regular-63" transform="scale(0.015625)"/>
        <path d="M 2009 3491 
L 2009 3036 
L 1264 3036 
L 1264 1000 
Q 1264 773 1331 660 
Q 1398 548 1503 510 
Q 1609 473 1727 473 
Q 1816 473 1873 483 
Q 1930 493 1964 500 
L 2073 18 
Q 2018 -2 1920 -23 
Q 1823 -45 1673 -45 
Q 1446 -45 1228 52 
Q 1011 150 869 350 
Q 727 550 727 855 
L 727 3036 
L 200 3036 
L 200 3491 
L 727 3491 
L 727 4327 
L 1264 4327 
L 1264 3491 
L 2009 3491 
z
" id="Inter-Regular-74" transform="scale(0.015625)"/>
       </defs>
       <use xlink:href="#Inter-Regular-30"/>
       <use x="62.500015" xlink:href="#Inter-Regular-31"/>
       <use x="106.676163" xlink:href="#Inter-Regular-20"/>
       <use x="134.801163" xlink:href="#Inter-Regular-4f"/>
       <use x="210.937546" xlink:href="#Inter-Regular-63"/>
       <use x="266.761414" xlink:href="#Inter-Regular-74"/>
      </g>
     </g>
    </g>
    <g id="xtick_9">
     <g id="line2d_9">
      <g>
       <use style="stroke:#000000;stroke-width:0.8;" x="371.395774" xlink:href="#m5d2017dc13" y="476.745"/>
      </g>
     </g>
     <g id="text_9">
      <!-- 01 Nov -->
      <g transform="translate(355.12468 491.018438)scale(0.1 -0.1)">
       <defs>
        <path d="M 4255 4655 
L 4255 0 
L 3709 0 
L 1173 3655 
L 1127 3655 
L 1127 0 
L 564 0 
L 564 4655 
L 1109 4655 
L 3655 991 
L 3700 991 
L 3700 4655 
L 4255 4655 
z
" id="Inter-Regular-4e" transform="scale(0.015625)"/>
        <path d="M 1909 -73 
Q 1436 -73 1080 152 
Q 725 377 526 781 
Q 327 1186 327 1727 
Q 327 2273 526 2679 
Q 725 3086 1080 3311 
Q 1436 3536 1909 3536 
Q 2382 3536 2737 3311 
Q 3093 3086 3292 2679 
Q 3491 2273 3491 1727 
Q 3491 1186 3292 781 
Q 3093 377 2737 152 
Q 2382 -73 1909 -73 
z
M 1909 409 
Q 2268 409 2500 593 
Q 2732 777 2843 1077 
Q 2955 1377 2955 1727 
Q 2955 2077 2843 2379 
Q 2732 2682 2500 2868 
Q 2268 3055 1909 3055 
Q 1550 3055 1318 2868 
Q 1086 2682 975 2379 
Q 864 2077 864 1727 
Q 864 1377 975 1077 
Q 1086 777 1318 593 
Q 1550 409 1909 409 
z
" id="Inter-Regular-6f" transform="scale(0.015625)"/>
        <path d="M 3346 3491 
L 2055 0 
L 1509 0 
L 218 3491 
L 800 3491 
L 1764 709 
L 1800 709 
L 2764 3491 
L 3346 3491 
z
" id="Inter-Regular-76" transform="scale(0.015625)"/>
       </defs>
       <use xlink:href="#Inter-Regular-30"/>
       <use x="62.500015" xlink:href="#Inter-Regular-31"/>
       <use x="106.676163" xlink:href="#Inter-Regular-20"/>
       <use x="134.801163" xlink:href="#Inter-Regular-4e"/>
       <use x="210.085266" xlink:href="#Inter-Regular-6f"/>
       <use x="269.74437" xlink:href="#Inter-Regular-76"/>
      </g>
     </g>
    </g>
    <g id="xtick_10">
     <g id="line2d_10">
      <g>
       <use style="stroke:#000000;stroke-width:0.8;" x="407.990665" xlink:href="#m5d2017dc13" y="476.745"/>
      </g>
     </g>
     <g id="text_10">
      <!-- 01 Dec -->
      <g transform="translate(391.953946 491.018438)scale(0.1 -0.1)">
       <defs>
        <path d="M 2000 0 
L 564 0 
L 564 4655 
L 2064 4655 
Q 2741 4655 3223 4376 
Q 3705 4098 3961 3578 
Q 4218 3059 4218 2336 
Q 4218 1609 3959 1085 
Q 3700 561 3204 280 
Q 2709 0 2000 0 
z
M 1127 500 
L 1964 500 
Q 2830 500 3251 992 
Q 3673 1484 3673 2336 
Q 3673 3182 3259 3668 
Q 2846 4155 2027 4155 
L 1127 4155 
L 1127 500 
z
" id="Inter-Regular-44" transform="scale(0.015625)"/>
       </defs>
       <use xlink:href="#Inter-Regular-30"/>
       <use x="62.500015" xlink:href="#Inter-Regular-31"/>
       <use x="106.676163" xlink:href="#Inter-Regular-20"/>
       <use x="134.801163" xlink:href="#Inter-Regular-44"/>
       <use x="206.676178" xlink:href="#Inter-Regular-65"/>
       <use x="264.914825" xlink:href="#Inter-Regular-63"/>
      </g>
     </g>
    </g>
    <g id="xtick_11">
     <g id="line2d_11">
      <g>
       <use style="stroke:#000000;stroke-width:0.8;" x="445.805385" xlink:href="#m5d2017dc13" y="476.745"/>
      </g>
     </g>
     <g id="text_11">
      <!-- 01 Jan -->
      <g transform="translate(430.606166 491.018438)scale(0.1 -0.1)">
       <use xlink:href="#Inter-Regular-30"/>
       <use x="62.500015" xlink:href="#Inter-Regular-31"/>
       <use x="106.676163" xlink:href="#Inter-Regular-20"/>
       <use x="134.801163" xlink:href="#Inter-Regular-4a"/>
       <use x="189.062531" xlink:href="#Inter-Regular-61"/>
       <use x="245.45459" xlink:href="#Inter-Regular-6e"/>
      </g>
     </g>
    </g>
    <g id="xtick_12">
     <g id="line2d_12">
      <g>
       <use style="stroke:#000000;stroke-width:0.8;" x="483.620106" xlink:href="#m5d2017dc13" y="476.745"/>
      </g>
     </g>
     <g id="text_12">
      <!-- 01 Feb -->
      <g transform="translate(467.931043 491.018438)scale(0.1 -0.1)">
       <defs>
        <path d="M 564 0 
L 564 4655 
L 3355 4655 
L 3355 4155 
L 1127 4155 
L 1127 2582 
L 3146 2582 
L 3146 2082 
L 1127 2082 
L 1127 0 
L 564 0 
z
" id="Inter-Regular-46" transform="scale(0.015625)"/>
        <path d="M 564 0 
L 564 4655 
L 1100 4655 
L 1100 2936 
L 1146 2936 
Q 1205 3027 1310 3169 
Q 1416 3311 1615 3423 
Q 1814 3536 2155 3536 
Q 2596 3536 2932 3315 
Q 3268 3095 3457 2690 
Q 3646 2286 3646 1736 
Q 3646 1182 3457 776 
Q 3268 370 2934 148 
Q 2600 -73 2164 -73 
Q 1827 -73 1625 39 
Q 1423 152 1314 296 
Q 1205 441 1146 536 
L 1082 536 
L 1082 0 
L 564 0 
z
M 1091 1745 
Q 1091 1152 1349 780 
Q 1607 409 2091 409 
Q 2427 409 2653 587 
Q 2880 766 2994 1069 
Q 3109 1373 3109 1745 
Q 3109 2114 2996 2410 
Q 2884 2707 2658 2881 
Q 2432 3055 2091 3055 
Q 1600 3055 1345 2693 
Q 1091 2332 1091 1745 
z
" id="Inter-Regular-62" transform="scale(0.015625)"/>
       </defs>
       <use xlink:href="#Inter-Regular-30"/>
       <use x="62.500015" xlink:href="#Inter-Regular-31"/>
       <use x="106.676163" xlink:href="#Inter-Regular-20"/>
       <use x="134.801163" xlink:href="#Inter-Regular-46"/>
       <use x="193.465942" xlink:href="#Inter-Regular-65"/>
       <use x="251.70459" xlink:href="#Inter-Regular-62"/>
      </g>
     </g>
    </g>
    <g id="xtick_13">
     <g id="line2d_13">
      <g>
       <use style="stroke:#000000;stroke-width:0.8;" x="517.775337" xlink:href="#m5d2017dc13" y="476.745"/>
      </g>
     </g>
     <g id="text_13">
      <!-- 01 Mar -->
      <g transform="translate(501.738618 491.018438)scale(0.1 -0.1)">
       <use xlink:href="#Inter-Regular-30"/>
       <use x="62.500015" xlink:href="#Inter-Regular-31"/>
       <use x="106.676163" xlink:href="#Inter-Regular-20"/>
       <use x="134.801163" xlink:href="#Inter-Regular-4d"/>
       <use x="225.99437" xlink:href="#Inter-Regular-61"/>
       <use x="282.386429" xlink:href="#Inter-Regular-72"/>
      </g>
     </g>
    </g>
    <g id="xtick_14">
     <g id="line2d_14">
      <g>
       <use style="stroke:#000000;stroke-width:0.8;" x="555.590057" xlink:href="#m5d2017dc13" y="476.745"/>
      </g>
     </g>
     <g id="text_14">
      <!-- 01 Apr -->
      <g transform="translate(540.504901 491.116875)scale(0.1 -0.1)">
       <use xlink:href="#Inter-Regular-30"/>
       <use x="62.500015" xlink:href="#Inter-Regular-31"/>
       <use x="106.676163" xlink:href="#Inter-Regular-20"/>
       <use x="134.801163" xlink:href="#Inter-Regular-41"/>
       <use x="202.41481" xlink:href="#Inter-Regular-70"/>
       <use x="263.352325" xlink:href="#Inter-Regular-72"/>
      </g>
     </g>
    </g>
    <g id="xtick_15">
     <g id="line2d_15">
      <g>
       <use style="stroke:#000000;stroke-width:0.8;" x="592.184948" xlink:href="#m5d2017dc13" y="476.745"/>
      </g>
     </g>
     <g id="text_15">
      <!-- 01 May -->
      <g transform="translate(575.281823 491.116875)scale(0.1 -0.1)">
       <use xlink:href="#Inter-Regular-30"/>
       <use x="62.500015" xlink:href="#Inter-Regular-31"/>
       <use x="106.676163" xlink:href="#Inter-Regular-20"/>
       <use x="134.801163" xlink:href="#Inter-Regular-4d"/>
       <use x="225.99437" xlink:href="#Inter-Regular-61"/>
       <use x="282.386429" xlink:href="#Inter-Regular-79"/>
      </g>
     </g>
    </g>
   </g>
   <g id="matplotlib.axis_2">
    <g id="ytick_1">
     <g id="line2d_16">
      <defs>
       <path d="M 0 0 
L -3.5 0 
" id="m7fd055f65f" style="stroke:#000000;stroke-width:0.8;"/>
      </defs>
      <g>
       <use style="stroke:#000000;stroke-width:0.8;" x="72.5375" xlink:href="#m7fd055f65f" y="476.745"/>
      </g>
     </g>
     <g id="text_16">
      <!-- 0 -->
      <g transform="translate(59.2875 480.381719)scale(0.1 -0.1)">
       <use xlink:href="#Inter-Regular-30"/>
      </g>
     </g>
    </g>
    <g id="ytick_2">
     <g id="line2d_17">
      <g>
       <use style="stroke:#000000;stroke-width:0.8;" x="72.5375" xlink:href="#m7fd055f65f" y="414.67573"/>
      </g>
     </g>
     <g id="text_17">
      <!-- 10,000 -->
      <g transform="translate(33.321875 418.312449)scale(0.1 -0.1)">
       <defs>
        <path d="M 1291 636 
L 1255 391 
Q 1216 132 1137 -163 
Q 1059 -459 975 -720 
Q 891 -982 836 -1136 
L 427 -1136 
Q 457 -991 504 -752 
Q 552 -514 601 -219 
Q 650 75 682 382 
L 709 636 
L 1291 636 
z
" id="Inter-Regular-2c" transform="scale(0.015625)"/>
       </defs>
       <use xlink:href="#Inter-Regular-31"/>
       <use x="44.176147" xlink:href="#Inter-Regular-30"/>
       <use x="106.676163" xlink:href="#Inter-Regular-2c"/>
       <use x="134.659119" xlink:href="#Inter-Regular-30"/>
       <use x="197.159134" xlink:href="#Inter-Regular-30"/>
       <use x="259.659149" xlink:href="#Inter-Regular-30"/>
      </g>
     </g>
    </g>
    <g id="ytick_3">
     <g id="line2d_18">
      <g>
       <use style="stroke:#000000;stroke-width:0.8;" x="72.5375" xlink:href="#m7fd055f65f" y="352.606461"/>
      </g>
     </g>
     <g id="text_18">
      <!-- 20,000 -->
      <g transform="translate(31.6875 356.24318)scale(0.1 -0.1)">
       <defs>
        <path d="M 482 0 
L 482 409 
L 2018 2091 
Q 2289 2386 2464 2605 
Q 2639 2825 2724 3019 
Q 2809 3214 2809 3427 
Q 2809 3795 2553 4011 
Q 2298 4227 1918 4227 
Q 1514 4227 1275 3985 
Q 1036 3743 1036 3345 
L 500 3345 
Q 500 3755 688 4064 
Q 877 4373 1203 4545 
Q 1530 4718 1936 4718 
Q 2346 4718 2661 4545 
Q 2977 4373 3156 4079 
Q 3336 3786 3336 3427 
Q 3336 3170 3244 2926 
Q 3152 2682 2926 2383 
Q 2700 2084 2300 1655 
L 1255 536 
L 1255 500 
L 3418 500 
L 3418 0 
L 482 0 
z
" id="Inter-Regular-32" transform="scale(0.015625)"/>
       </defs>
       <use xlink:href="#Inter-Regular-32"/>
       <use x="60.511383" xlink:href="#Inter-Regular-30"/>
       <use x="123.011398" xlink:href="#Inter-Regular-2c"/>
       <use x="150.994354" xlink:href="#Inter-Regular-30"/>
       <use x="213.49437" xlink:href="#Inter-Regular-30"/>
       <use x="275.994385" xlink:href="#Inter-Regular-30"/>
      </g>
     </g>
    </g>
    <g id="ytick_4">
     <g id="line2d_19">
      <g>
       <use style="stroke:#000000;stroke-width:0.8;" x="72.5375" xlink:href="#m7fd055f65f" y="290.537191"/>
      </g>
     </g>
     <g id="text_19">
      <!-- 30,000 -->
      <g transform="translate(31.375 294.17391)scale(0.1 -0.1)">
       <defs>
        <path d="M 2055 -64 
Q 1605 -64 1253 90 
Q 902 245 696 521 
Q 491 798 473 1164 
L 1046 1164 
Q 1071 827 1356 631 
Q 1641 436 2046 436 
Q 2493 436 2783 664 
Q 3073 893 3073 1264 
Q 3073 1650 2787 1893 
Q 2502 2136 1973 2136 
L 1600 2136 
L 1600 2636 
L 1973 2636 
Q 2386 2636 2647 2856 
Q 2909 3077 2909 3445 
Q 2909 3798 2679 4012 
Q 2450 4227 2064 4227 
Q 1823 4227 1610 4139 
Q 1398 4052 1264 3887 
Q 1130 3723 1118 3491 
L 573 3491 
Q 586 3857 793 4133 
Q 1000 4409 1335 4563 
Q 1671 4718 2073 4718 
Q 2505 4718 2814 4544 
Q 3123 4370 3289 4086 
Q 3455 3802 3455 3473 
Q 3455 3080 3249 2802 
Q 3043 2525 2691 2418 
L 2691 2382 
Q 3132 2309 3379 2008 
Q 3627 1707 3627 1264 
Q 3627 884 3421 583 
Q 3216 282 2861 109 
Q 2507 -64 2055 -64 
z
" id="Inter-Regular-33" transform="scale(0.015625)"/>
       </defs>
       <use xlink:href="#Inter-Regular-33"/>
       <use x="63.636383" xlink:href="#Inter-Regular-30"/>
       <use x="126.136398" xlink:href="#Inter-Regular-2c"/>
       <use x="154.119354" xlink:href="#Inter-Regular-30"/>
       <use x="216.61937" xlink:href="#Inter-Regular-30"/>
       <use x="279.119385" xlink:href="#Inter-Regular-30"/>
      </g>
     </g>
    </g>
    <g id="ytick_5">
     <g id="line2d_20">
      <g>
       <use style="stroke:#000000;stroke-width:0.8;" x="72.5375" xlink:href="#m7fd055f65f" y="228.467922"/>
      </g>
     </g>
     <g id="text_20">
      <!-- 40,000 -->
      <g transform="translate(31.31875 232.104641)scale(0.1 -0.1)">
       <defs>
        <path d="M 373 955 
L 373 1418 
L 2418 4655 
L 3100 4655 
L 3100 1455 
L 3736 1455 
L 3736 955 
L 3100 955 
L 3100 0 
L 2564 0 
L 2564 955 
L 373 955 
z
M 2564 1455 
L 2564 3936 
L 2527 3936 
L 982 1491 
L 982 1455 
L 2564 1455 
z
" id="Inter-Regular-34" transform="scale(0.015625)"/>
       </defs>
       <use xlink:href="#Inter-Regular-34"/>
       <use x="64.204559" xlink:href="#Inter-Regular-30"/>
       <use x="126.704575" xlink:href="#Inter-Regular-2c"/>
       <use x="154.687531" xlink:href="#Inter-Regular-30"/>
       <use x="217.187546" xlink:href="#Inter-Regular-30"/>
       <use x="279.687561" xlink:href="#Inter-Regular-30"/>
      </g>
     </g>
    </g>
    <g id="ytick_6">
     <g id="line2d_21">
      <g>
       <use style="stroke:#000000;stroke-width:0.8;" x="72.5375" xlink:href="#m7fd055f65f" y="166.398652"/>
      </g>
     </g>
     <g id="text_21">
      <!-- 50,000 -->
      <g transform="translate(31.659375 170.035371)scale(0.1 -0.1)">
       <defs>
        <path d="M 1936 -64 
Q 1536 -64 1216 95 
Q 896 255 702 532 
Q 509 809 491 1164 
L 1036 1164 
Q 1068 848 1324 642 
Q 1580 436 1936 436 
Q 2223 436 2447 570 
Q 2671 705 2799 940 
Q 2927 1175 2927 1473 
Q 2927 1777 2794 2017 
Q 2661 2257 2429 2395 
Q 2198 2534 1900 2536 
Q 1686 2539 1461 2472 
Q 1236 2405 1091 2300 
L 564 2364 
L 846 4655 
L 3264 4655 
L 3264 4155 
L 1318 4155 
L 1155 2782 
L 1182 2782 
Q 1325 2895 1541 2970 
Q 1757 3045 1991 3045 
Q 2418 3045 2753 2842 
Q 3089 2639 3281 2286 
Q 3473 1934 3473 1482 
Q 3473 1036 3274 687 
Q 3075 339 2727 137 
Q 2380 -64 1936 -64 
z
" id="Inter-Regular-35" transform="scale(0.015625)"/>
       </defs>
       <use xlink:href="#Inter-Regular-35"/>
       <use x="60.795471" xlink:href="#Inter-Regular-30"/>
       <use x="123.295486" xlink:href="#Inter-Regular-2c"/>
       <use x="151.278442" xlink:href="#Inter-Regular-30"/>
       <use x="213.778458" xlink:href="#Inter-Regular-30"/>
       <use x="276.278473" xlink:href="#Inter-Regular-30"/>
      </g>
     </g>
    </g>
    <g id="ytick_7">
     <g id="line2d_22">
      <g>
       <use style="stroke:#000000;stroke-width:0.8;" x="72.5375" xlink:href="#m7fd055f65f" y="104.329383"/>
      </g>
     </g>
     <g id="text_22">
      <!-- 60,000 -->
      <g transform="translate(31.503125 107.966102)scale(0.1 -0.1)">
       <defs>
        <path d="M 2027 -64 
Q 1741 -59 1454 45 
Q 1168 150 932 399 
Q 696 648 552 1074 
Q 409 1500 409 2145 
Q 409 3386 861 4056 
Q 1314 4727 2100 4727 
Q 2686 4727 3073 4384 
Q 3461 4041 3546 3491 
L 2991 3491 
Q 2914 3811 2691 4019 
Q 2468 4227 2100 4227 
Q 1559 4227 1249 3755 
Q 939 3284 936 2427 
L 973 2427 
Q 1164 2716 1461 2880 
Q 1759 3045 2118 3045 
Q 2518 3045 2850 2846 
Q 3182 2648 3382 2299 
Q 3582 1950 3582 1500 
Q 3582 1068 3389 710 
Q 3196 352 2847 142 
Q 2498 -68 2027 -64 
z
M 2027 436 
Q 2314 436 2542 579 
Q 2771 723 2903 964 
Q 3036 1205 3036 1500 
Q 3036 1789 2908 2026 
Q 2780 2264 2556 2404 
Q 2332 2545 2046 2545 
Q 1757 2545 1525 2397 
Q 1293 2250 1157 2010 
Q 1021 1770 1018 1491 
Q 1018 1214 1149 973 
Q 1280 732 1508 584 
Q 1736 436 2027 436 
z
" id="Inter-Regular-36" transform="scale(0.015625)"/>
       </defs>
       <use xlink:href="#Inter-Regular-36"/>
       <use x="62.357971" xlink:href="#Inter-Regular-30"/>
       <use x="124.857986" xlink:href="#Inter-Regular-2c"/>
       <use x="152.840942" xlink:href="#Inter-Regular-30"/>
       <use x="215.340958" xlink:href="#Inter-Regular-30"/>
       <use x="277.840973" xlink:href="#Inter-Regular-30"/>
      </g>
     </g>
    </g>
    <g id="ytick_8">
     <g id="line2d_23">
      <g>
       <use style="stroke:#000000;stroke-width:0.8;" x="72.5375" xlink:href="#m7fd055f65f" y="42.260113"/>
      </g>
     </g>
     <g id="text_23">
      <!-- 70,000 -->
      <g transform="translate(32.028125 45.896832)scale(0.1 -0.1)">
       <defs>
        <path d="M 627 0 
L 2709 4118 
L 2709 4155 
L 309 4155 
L 309 4655 
L 3291 4655 
L 3291 4127 
L 1218 0 
L 627 0 
z
" id="Inter-Regular-37" transform="scale(0.015625)"/>
       </defs>
       <use xlink:href="#Inter-Regular-37"/>
       <use x="57.10228" xlink:href="#Inter-Regular-30"/>
       <use x="119.602295" xlink:href="#Inter-Regular-2c"/>
       <use x="147.585251" xlink:href="#Inter-Regular-30"/>
       <use x="210.085266" xlink:href="#Inter-Regular-30"/>
       <use x="272.585281" xlink:href="#Inter-Regular-30"/>
      </g>
     </g>
    </g>
    <g id="text_24">
     <!-- Cases -->
     <g style="fill:#ff4500;" transform="translate(25.273437 269.581094)rotate(-90)scale(0.1 -0.1)">
      <defs>
       <path d="M 4309 3200 
L 3746 3200 
Q 3677 3523 3484 3743 
Q 3291 3964 3018 4077 
Q 2746 4191 2436 4191 
Q 2014 4191 1672 3977 
Q 1330 3764 1128 3348 
Q 927 2932 927 2327 
Q 927 1723 1128 1307 
Q 1330 891 1672 677 
Q 2014 464 2436 464 
Q 2746 464 3018 577 
Q 3291 691 3484 911 
Q 3677 1132 3746 1455 
L 4309 1455 
Q 4223 977 3957 637 
Q 3691 298 3298 117 
Q 2905 -64 2436 -64 
Q 1841 -64 1377 227 
Q 914 518 648 1054 
Q 382 1591 382 2327 
Q 382 3064 648 3600 
Q 914 4136 1377 4427 
Q 1841 4718 2436 4718 
Q 2905 4718 3298 4537 
Q 3691 4357 3957 4017 
Q 4223 3677 4309 3200 
z
" id="Inter-Regular-43" transform="scale(0.015625)"/>
       <path d="M 2964 2709 
L 2482 2573 
Q 2411 2755 2245 2914 
Q 2080 3073 1727 3073 
Q 1407 3073 1194 2926 
Q 982 2780 982 2555 
Q 982 2355 1127 2239 
Q 1273 2123 1582 2045 
L 2100 1918 
Q 3027 1691 3027 973 
Q 3027 673 2855 436 
Q 2684 200 2377 63 
Q 2071 -73 1664 -73 
Q 1130 -73 780 159 
Q 430 391 336 836 
L 846 964 
Q 989 400 1655 400 
Q 2030 400 2251 560 
Q 2473 720 2473 945 
Q 2473 1316 1955 1436 
L 1373 1573 
Q 893 1686 669 1926 
Q 446 2166 446 2527 
Q 446 2823 613 3050 
Q 780 3277 1069 3406 
Q 1359 3536 1727 3536 
Q 2246 3536 2542 3309 
Q 2839 3082 2964 2709 
z
" id="Inter-Regular-73" transform="scale(0.015625)"/>
      </defs>
      <use xlink:href="#Inter-Regular-43"/>
      <use x="72.727295" xlink:href="#Inter-Regular-61"/>
      <use x="129.119354" xlink:href="#Inter-Regular-73"/>
      <use x="181.39209" xlink:href="#Inter-Regular-65"/>
      <use x="239.630737" xlink:href="#Inter-Regular-73"/>
     </g>
    </g>
   </g>
   <g id="line2d_24">
    <path clip-path="url(#p713e24135a)" d="M 35.942609 476.732586 
L 46.921077 476.738793 
L 53.020225 476.745 
L 74.977159 476.676724 
L 76.196989 476.533964 
L 77.416819 476.564999 
L 81.076308 476.34155 
L 83.515967 476.42224 
L 84.735797 476.229825 
L 85.955627 475.913272 
L 88.395286 475.106371 
L 89.615116 474.696714 
L 90.834945 475.801547 
L 93.274605 472.549117 
L 94.494434 472.753946 
L 95.714264 472.313254 
L 96.934094 470.320831 
L 98.153923 472.617394 
L 99.373753 470.742902 
L 100.593583 467.887715 
L 101.813413 467.732542 
L 103.033242 463.530453 
L 104.253072 458.806981 
L 105.472902 460.880095 
L 106.692731 461.215269 
L 107.912561 460.20354 
L 109.132391 456.572487 
L 110.35222 448.397965 
L 111.57205 448.677276 
L 112.79188 447.746237 
L 114.011709 451.917292 
L 115.231539 438.26826 
L 116.451369 451.029702 
L 117.671199 452.612468 
L 118.891028 440.341373 
L 120.110858 447.727616 
L 121.330688 441.328275 
L 122.550517 444.257944 
L 123.770347 443.92277 
L 124.990177 449.794523 
L 126.210006 444.14622 
L 127.429836 448.162101 
L 128.649666 448.081411 
L 129.869495 441.992416 
L 131.089325 442.445522 
L 132.309155 440.434477 
L 133.528985 447.72141 
L 134.748814 450.049007 
L 137.188474 448.298654 
L 138.408303 443.314491 
L 140.847963 449.043485 
L 142.067792 449.993145 
L 143.287622 451.94212 
L 144.507452 451.445566 
L 145.727281 439.304817 
L 146.947111 438.255846 
L 148.166941 446.914509 
L 149.38677 449.813144 
L 150.6066 452.010396 
L 151.82643 449.39728 
L 153.04626 438.814469 
L 154.266089 441.899312 
L 155.485919 447.888997 
L 156.705749 452.562813 
L 157.925578 452.395226 
L 159.145408 452.680744 
L 160.365238 455.622828 
L 161.585067 456.622143 
L 162.804897 455.35593 
L 164.024727 454.64834 
L 165.244556 455.324895 
L 166.464386 454.635926 
L 167.684216 460.085608 
L 168.904046 461.773892 
L 170.123875 461.401477 
L 171.343705 460.513886 
L 172.563535 456.342831 
L 173.783364 458.378703 
L 175.003194 461.792513 
L 176.223024 466.658744 
L 177.442853 464.306318 
L 178.662683 464.250456 
L 179.882513 465.032529 
L 181.102342 463.741488 
L 182.322172 461.569064 
L 183.542002 464.728389 
L 184.761832 467.000125 
L 185.981661 466.733227 
L 187.201491 465.13184 
L 188.421321 465.541497 
L 189.64115 466.503571 
L 190.86098 467.080815 
L 192.08081 468.514615 
L 193.300639 469.265653 
L 194.520469 468.135992 
L 195.740299 470.519452 
L 198.179958 467.180126 
L 199.399788 467.900129 
L 200.619617 467.347713 
L 201.839447 470.190485 
L 203.059277 468.80634 
L 204.279107 469.824276 
L 205.498936 469.184963 
L 206.718766 468.390476 
L 207.938596 468.70703 
L 209.158425 469.166342 
L 210.378255 470.798764 
L 211.598085 471.320146 
L 212.817914 472.691877 
L 214.037744 469.805656 
L 216.477403 471.220835 
L 217.697233 471.152559 
L 218.917063 471.686355 
L 220.136893 472.468427 
L 221.356722 471.599458 
L 222.576552 473.16981 
L 223.796382 473.368432 
L 225.016211 472.871878 
L 226.236041 473.542226 
L 227.455871 474.616024 
L 228.6757 473.138775 
L 229.89553 472.834636 
L 231.11536 472.760153 
L 232.335189 473.567053 
L 233.555019 471.65532 
L 234.774849 472.710497 
L 237.214508 474.274643 
L 238.434338 473.405673 
L 239.654168 472.760153 
L 240.873997 472.480841 
L 242.093827 471.611871 
L 243.313657 472.238771 
L 244.533486 473.287742 
L 245.753316 473.982918 
L 246.973146 473.269121 
L 248.192975 471.971873 
L 250.632635 471.984287 
L 251.852464 472.120839 
L 253.072294 472.493255 
L 254.292124 473.138775 
L 255.511954 472.009115 
L 256.731783 471.49394 
L 257.951613 471.282904 
L 259.171443 472.021529 
L 260.391272 472.127046 
L 261.611102 471.17118 
L 262.830932 472.586359 
L 264.050761 471.208421 
L 265.270591 470.848419 
L 266.490421 471.338767 
L 267.71025 472.040149 
L 268.93008 470.153244 
L 270.14991 472.151874 
L 271.36974 469.619448 
L 272.589569 470.482211 
L 273.809399 469.737379 
L 275.029229 467.800818 
L 276.249058 470.06014 
L 277.468888 470.289796 
L 278.688718 472.319461 
L 279.908547 469.985657 
L 281.128377 471.704975 
L 282.348207 469.408412 
L 283.568036 470.333244 
L 284.787866 468.750478 
L 286.007696 469.544965 
L 287.227526 471.450491 
L 288.447355 469.395998 
L 289.667185 470.240141 
L 290.887015 467.298057 
L 292.106844 468.824961 
L 293.326674 469.867725 
L 294.546504 466.10012 
L 295.766333 468.018061 
L 296.986163 468.70703 
L 300.645652 464.703562 
L 301.865482 465.491841 
L 303.085311 458.198702 
L 304.305141 458.446979 
L 305.524971 461.47596 
L 306.744801 460.240781 
L 307.96463 458.62698 
L 309.18446 454.778686 
L 310.40429 455.039376 
L 311.624119 456.075933 
L 312.843949 460.476644 
L 314.063779 457.472492 
L 315.283608 451.973155 
L 316.503438 455.672483 
L 317.723268 449.918662 
L 318.943097 449.297969 
L 320.162927 452.544192 
L 321.382757 449.633143 
L 322.602587 446.169678 
L 323.822416 438.398605 
L 325.042246 435.568247 
L 326.262076 434.078584 
L 327.481905 439.242747 
L 328.701735 441.408965 
L 329.921565 451.644187 
L 331.141394 432.408921 
L 332.361224 432.626163 
L 333.581054 433.830307 
L 334.800883 433.495133 
L 336.020713 396.849436 
L 337.240543 334.22775 
L 338.460372 398.574962 
L 339.680202 386.483868 
L 340.900032 388.8425 
L 342.119862 367.875501 
L 343.339691 390.692165 
L 344.559521 382.610746 
L 345.779351 396.849436 
L 346.99918 390.021817 
L 348.21901 369.774821 
L 349.43884 354.319573 
L 350.658669 358.937526 
L 351.878499 379.606593 
L 353.098329 376.372784 
L 354.318158 371.338966 
L 355.537988 360.029946 
L 356.757818 344.345041 
L 357.977648 311.094533 
L 359.197477 344.897458 
L 360.417307 349.31679 
L 361.637137 333.911197 
L 362.856966 353.909916 
L 364.076796 347.082296 
L 366.516455 323.427697 
L 367.736285 333.58223 
L 368.956115 325.264948 
L 370.175944 340.720196 
L 371.395774 332.409121 
L 372.615604 359.123734 
L 373.835434 352.494736 
L 375.055263 320.4732 
L 376.275093 326.903576 
L 377.494923 332.204292 
L 378.714752 321.838724 
L 379.934582 349.056099 
L 381.154412 344.22711 
L 382.374241 350.049207 
L 383.594071 334.296026 
L 384.813901 268.999155 
L 386.03373 307.289687 
L 387.25356 310.026942 
L 388.47339 321.807689 
L 389.693219 344.146419 
L 390.913049 352.289908 
L 392.132879 355.033369 
L 393.352709 334.513269 
L 394.572538 351.042315 
L 395.792368 353.382327 
L 397.012198 360.911329 
L 398.232027 380.847979 
L 399.451857 406.612932 
L 400.671687 363.698239 
L 401.891516 367.782397 
L 403.111346 377.297616 
L 404.331176 378.234862 
L 405.551005 401.299803 
L 406.770835 400.213591 
L 407.990665 393.385971 
L 409.210495 376.378991 
L 410.430324 384.392134 
L 411.650154 375.584505 
L 412.869984 380.295562 
L 414.089813 369.538958 
L 416.529473 400.511523 
L 418.969132 346.622983 
L 420.188962 342.228479 
L 421.408791 343.283657 
L 422.628621 362.245818 
L 423.848451 350.974039 
L 425.068281 362.227198 
L 426.28811 320.572511 
L 427.50794 257.125304 
L 428.72777 299.804133 
L 429.947599 308.835212 
L 431.167429 253.742528 
L 432.387259 269.657089 
L 433.607088 248.30526 
L 434.826918 233.203807 
L 436.046748 229.231374 
L 437.266577 273.623315 
L 438.486407 255.21357 
L 439.706237 287.427521 
L 442.145896 146.939936 
L 443.365726 166.255893 
L 444.585556 129.827439 
L 445.805385 146.008897 
L 447.025215 118.450142 
L 448.245045 135.426087 
L 449.464874 111.877006 
L 450.684704 98.643838 
L 451.904534 89.916898 
L 453.124363 150.148918 
L 454.344193 54.345 
L 455.564023 104.720419 
L 456.783852 135.736433 
L 458.003682 190.177389 
L 459.223512 194.124995 
L 460.443342 181.760797 
L 461.663171 174.579382 
L 462.883001 130.640546 
L 464.102831 220.113398 
L 465.32266 237.170033 
L 466.54249 243.767997 
L 467.76232 269.712951 
L 468.982149 235.264507 
L 470.201979 241.552124 
L 471.421809 226.847914 
L 472.641638 268.490187 
L 473.861468 290.512364 
L 475.081298 338.982256 
L 476.301128 352.054044 
L 477.520957 319.660093 
L 478.740787 298.730335 
L 479.960617 296.253771 
L 481.180446 332.278775 
L 482.400276 345.853324 
L 483.620106 361.25271 
L 484.839935 372.22035 
L 486.059765 357.559589 
L 487.279595 348.671269 
L 488.499424 358.105798 
L 489.719254 363.3941 
L 490.939084 378.396242 
L 493.378743 400.002555 
L 494.598573 395.97426 
L 495.818403 392.988728 
L 497.038232 382.747298 
L 498.258062 394.143216 
L 499.477892 408.642597 
L 500.697721 416.134358 
L 501.917551 410.796401 
L 503.137381 397.805303 
L 504.35721 401.908082 
L 505.57704 402.09429 
L 506.79687 412.155718 
L 508.016699 415.70608 
L 509.236529 410.69709 
L 510.456359 424.054397 
L 511.676189 415.06056 
L 512.896018 414.768834 
L 514.115848 423.843362 
L 515.335678 430.602705 
L 516.555507 439.286196 
L 517.775337 442.886213 
L 518.995167 437.07653 
L 520.214996 437.113771 
L 521.434826 435.946869 
L 522.654656 439.832405 
L 523.874485 439.255161 
L 525.094315 444.611739 
L 526.314145 447.49796 
L 527.533975 440.955859 
L 528.753804 439.962751 
L 529.973634 434.829622 
L 531.193464 435.72342 
L 532.413293 442.395866 
L 533.633123 448.081411 
L 534.852953 445.157949 
L 536.072782 443.885529 
L 537.292612 441.005515 
L 538.512442 437.622739 
L 539.732271 446.939337 
L 540.952101 442.066899 
L 542.171931 443.773804 
L 544.61159 443.35794 
L 545.83142 441.955174 
L 547.05125 437.039288 
L 548.271079 438.342743 
L 549.490909 447.479339 
L 550.710739 452.773848 
L 551.930568 447.857962 
L 553.150398 451.669015 
L 554.370228 451.594532 
L 555.590057 448.944174 
L 556.809887 455.629035 
L 558.029717 455.498689 
L 559.249546 462.487689 
L 560.469376 459.601468 
L 561.689206 461.978721 
L 562.909036 459.595261 
L 564.128865 457.938011 
L 565.348695 457.19318 
L 566.568525 460.675266 
L 567.788354 466.007016 
L 569.008184 454.598685 
L 570.228014 461.401477 
L 571.447843 461.283545 
L 572.667673 460.160091 
L 573.887503 460.631818 
L 575.107332 463.052519 
L 576.327162 465.063563 
L 577.546992 458.353875 
L 578.766821 461.078716 
L 579.986651 461.873203 
L 581.206481 459.806296 
L 582.426311 460.12285 
L 583.64614 463.952524 
L 584.86597 466.118741 
L 586.0858 463.933903 
L 587.305629 460.079401 
L 588.525459 463.300796 
L 589.745289 461.569064 
L 590.965118 461.966307 
L 592.184948 464.90839 
L 593.404778 466.373225 
L 594.624607 466.509777 
L 595.844437 464.66632 
L 597.064267 463.437349 
L 598.284097 460.5263 
L 599.503926 461.289752 
L 600.723756 464.039421 
L 601.943586 465.758739 
L 603.163415 462.115273 
L 604.383245 461.389063 
L 605.603075 462.568379 
L 606.822904 460.253195 
L 608.042734 463.133209 
L 609.262564 464.163559 
L 610.482393 464.790459 
L 611.702223 464.461492 
L 611.702223 464.461492 
" style="fill:none;stroke:#ff4500;stroke-linecap:square;stroke-width:1.5;"/>
   </g>
   <g id="patch_3">
    <path d="M 72.5375 476.745 
L 72.5375 33.225 
" style="fill:none;stroke:#000000;stroke-linecap:square;stroke-linejoin:miter;stroke-width:0.8;"/>
   </g>
   <g id="patch_4">
    <path d="M 612.5375 476.745 
L 612.5375 33.225 
" style="fill:none;stroke:#000000;stroke-linecap:square;stroke-linejoin:miter;stroke-width:0.8;"/>
   </g>
   <g id="patch_5">
    <path d="M 72.5375 476.745 
L 612.5375 476.745 
" style="fill:none;stroke:#000000;stroke-linecap:square;stroke-linejoin:miter;stroke-width:0.8;"/>
   </g>
   <g id="text_25">
    <!-- Comparing daily COVID-19 cases, hospitalisation and deaths in the UK -->
    <g transform="translate(136.330625 27.225)scale(0.12 -0.12)">
     <defs>
      <path d="M 4511 3025 
L 3516 3025 
Q 3459 3409 3188 3628 
Q 2918 3848 2514 3848 
Q 1973 3848 1647 3451 
Q 1321 3055 1321 2327 
Q 1321 1582 1649 1194 
Q 1977 807 2507 807 
Q 2900 807 3173 1012 
Q 3446 1218 3516 1591 
L 4511 1586 
Q 4459 1159 4207 782 
Q 3955 405 3522 170 
Q 3089 -64 2491 -64 
Q 1868 -64 1378 218 
Q 889 500 606 1034 
Q 323 1568 323 2327 
Q 323 3089 609 3623 
Q 896 4157 1386 4437 
Q 1877 4718 2491 4718 
Q 3030 4718 3463 4519 
Q 3896 4320 4172 3942 
Q 4448 3564 4511 3025 
z
" id="Inter-Bold-43" transform="scale(0.015625)"/>
      <path d="M 1964 -68 
Q 1434 -68 1049 158 
Q 664 384 455 789 
Q 246 1195 246 1732 
Q 246 2273 455 2678 
Q 664 3084 1049 3310 
Q 1434 3536 1964 3536 
Q 2493 3536 2878 3310 
Q 3264 3084 3473 2678 
Q 3682 2273 3682 1732 
Q 3682 1195 3473 789 
Q 3264 384 2878 158 
Q 2493 -68 1964 -68 
z
M 1968 682 
Q 2327 682 2512 982 
Q 2698 1282 2698 1739 
Q 2698 2195 2512 2496 
Q 2327 2798 1968 2798 
Q 1602 2798 1416 2496 
Q 1230 2195 1230 1739 
Q 1230 1282 1416 982 
Q 1602 682 1968 682 
z
" id="Inter-Bold-6f" transform="scale(0.015625)"/>
      <path d="M 386 0 
L 386 3491 
L 1309 3491 
L 1309 2875 
L 1350 2875 
Q 1459 3184 1715 3360 
Q 1971 3536 2323 3536 
Q 2682 3536 2934 3358 
Q 3186 3180 3271 2875 
L 3307 2875 
Q 3414 3175 3694 3355 
Q 3975 3536 4359 3536 
Q 4848 3536 5153 3226 
Q 5459 2916 5459 2348 
L 5459 0 
L 4493 0 
L 4493 2157 
Q 4493 2448 4338 2593 
Q 4184 2739 3952 2739 
Q 3689 2739 3541 2570 
Q 3393 2402 3393 2132 
L 3393 0 
L 2455 0 
L 2455 2177 
Q 2455 2434 2308 2586 
Q 2161 2739 1923 2739 
Q 1682 2739 1518 2562 
Q 1355 2386 1355 2095 
L 1355 0 
L 386 0 
z
" id="Inter-Bold-6d" transform="scale(0.015625)"/>
      <path d="M 386 -1309 
L 386 3491 
L 1341 3491 
L 1341 2905 
L 1384 2905 
Q 1450 3048 1570 3193 
Q 1691 3339 1888 3437 
Q 2086 3536 2377 3536 
Q 2761 3536 3081 3337 
Q 3402 3139 3596 2740 
Q 3791 2341 3791 1741 
Q 3791 1157 3602 756 
Q 3414 355 3093 149 
Q 2773 -57 2375 -57 
Q 2093 -57 1896 36 
Q 1700 130 1576 272 
Q 1452 414 1384 559 
L 1355 559 
L 1355 -1309 
L 386 -1309 
z
M 1334 1745 
Q 1334 1280 1526 997 
Q 1718 714 2068 714 
Q 2425 714 2613 1001 
Q 2802 1289 2802 1745 
Q 2802 2200 2614 2483 
Q 2427 2766 2068 2766 
Q 1716 2766 1525 2490 
Q 1334 2214 1334 1745 
z
" id="Inter-Bold-70" transform="scale(0.015625)"/>
      <path d="M 1382 -66 
Q 882 -66 552 195 
Q 223 457 223 975 
Q 223 1366 407 1588 
Q 591 1811 890 1914 
Q 1189 2018 1534 2050 
Q 1989 2095 2184 2145 
Q 2380 2195 2380 2364 
L 2380 2377 
Q 2380 2593 2244 2711 
Q 2109 2830 1861 2830 
Q 1600 2830 1445 2716 
Q 1291 2602 1241 2427 
L 346 2500 
Q 446 2977 842 3256 
Q 1239 3536 1866 3536 
Q 2255 3536 2593 3413 
Q 2932 3291 3140 3030 
Q 3348 2770 3348 2355 
L 3348 0 
L 2430 0 
L 2430 484 
L 2402 484 
Q 2275 241 2021 87 
Q 1768 -66 1382 -66 
z
M 1659 602 
Q 1977 602 2181 787 
Q 2386 973 2386 1248 
L 2386 1618 
Q 2330 1580 2210 1550 
Q 2091 1520 1956 1498 
Q 1821 1477 1714 1461 
Q 1459 1425 1303 1318 
Q 1148 1211 1148 1007 
Q 1148 807 1292 704 
Q 1436 602 1659 602 
z
" id="Inter-Bold-61" transform="scale(0.015625)"/>
      <path d="M 386 0 
L 386 3491 
L 1325 3491 
L 1325 2882 
L 1361 2882 
Q 1457 3207 1681 3374 
Q 1905 3541 2200 3541 
Q 2341 3541 2461 3507 
Q 2582 3473 2677 3414 
L 2386 2614 
Q 2318 2648 2237 2671 
Q 2157 2695 2057 2695 
Q 1764 2695 1560 2495 
Q 1357 2295 1355 1975 
L 1355 0 
L 386 0 
z
" id="Inter-Bold-72" transform="scale(0.015625)"/>
      <path d="M 386 0 
L 386 3491 
L 1355 3491 
L 1355 0 
L 386 0 
z
M 876 3941 
Q 662 3941 507 4085 
Q 353 4230 353 4432 
Q 353 4634 507 4777 
Q 662 4920 876 4920 
Q 1092 4920 1246 4777 
Q 1401 4634 1401 4432 
Q 1401 4230 1246 4085 
Q 1092 3941 876 3941 
z
" id="Inter-Bold-69" transform="scale(0.015625)"/>
      <path d="M 1355 2018 
L 1355 0 
L 386 0 
L 386 3491 
L 1309 3491 
L 1309 2875 
L 1350 2875 
Q 1468 3180 1739 3358 
Q 2011 3536 2400 3536 
Q 2946 3536 3275 3185 
Q 3605 2834 3605 2223 
L 3605 0 
L 2636 0 
L 2636 2050 
Q 2639 2370 2473 2551 
Q 2307 2732 2016 2732 
Q 1723 2732 1540 2544 
Q 1357 2357 1355 2018 
z
" id="Inter-Bold-6e" transform="scale(0.015625)"/>
      <path d="M 1959 -1359 
Q 1255 -1359 852 -1082 
Q 450 -805 364 -409 
L 1259 -289 
Q 1318 -430 1489 -547 
Q 1661 -664 1982 -664 
Q 2298 -664 2503 -514 
Q 2709 -364 2709 -20 
L 2709 618 
L 2668 618 
Q 2573 402 2332 226 
Q 2091 50 1673 50 
Q 1280 50 958 234 
Q 636 418 446 795 
Q 257 1173 257 1752 
Q 257 2348 451 2743 
Q 646 3139 967 3337 
Q 1289 3536 1671 3536 
Q 1964 3536 2161 3437 
Q 2359 3339 2482 3193 
Q 2605 3048 2668 2905 
L 2705 2905 
L 2705 3491 
L 3666 3491 
L 3666 -34 
Q 3666 -468 3446 -763 
Q 3227 -1059 2843 -1209 
Q 2459 -1359 1959 -1359 
z
M 1980 777 
Q 2330 777 2522 1036 
Q 2714 1295 2714 1757 
Q 2714 2216 2523 2491 
Q 2332 2766 1980 2766 
Q 1621 2766 1433 2484 
Q 1246 2202 1246 1757 
Q 1246 1305 1434 1041 
Q 1623 777 1980 777 
z
" id="Inter-Bold-67" transform="scale(0.015625)"/>
      <path id="Inter-Bold-20" transform="scale(0.015625)"/>
      <path d="M 1673 -57 
Q 1275 -57 954 149 
Q 634 355 445 756 
Q 257 1157 257 1741 
Q 257 2341 451 2740 
Q 646 3139 967 3337 
Q 1289 3536 1671 3536 
Q 1964 3536 2160 3437 
Q 2357 3339 2478 3193 
Q 2600 3048 2664 2905 
L 2693 2905 
L 2693 4655 
L 3659 4655 
L 3659 0 
L 2705 0 
L 2705 559 
L 2664 559 
Q 2598 414 2473 272 
Q 2348 130 2151 36 
Q 1955 -57 1673 -57 
z
M 1980 714 
Q 2330 714 2522 997 
Q 2714 1280 2714 1745 
Q 2714 2214 2523 2490 
Q 2332 2766 1980 2766 
Q 1621 2766 1433 2483 
Q 1246 2200 1246 1745 
Q 1246 1289 1434 1001 
Q 1623 714 1980 714 
z
" id="Inter-Bold-64" transform="scale(0.015625)"/>
      <path d="M 1355 4655 
L 1355 0 
L 386 0 
L 386 4655 
L 1355 4655 
z
" id="Inter-Bold-6c" transform="scale(0.015625)"/>
      <path d="M 950 -1359 
Q 743 -1359 596 -1324 
Q 450 -1289 368 -1252 
L 586 -502 
Q 843 -580 1019 -543 
Q 1196 -507 1298 -268 
L 1361 -100 
L 109 3491 
L 1127 3491 
L 1850 927 
L 1886 927 
L 2616 3491 
L 3641 3491 
L 2277 -400 
Q 2130 -818 1806 -1088 
Q 1482 -1359 950 -1359 
z
" id="Inter-Bold-79" transform="scale(0.015625)"/>
      <path d="M 4682 2327 
Q 4682 1566 4394 1032 
Q 4107 498 3614 217 
Q 3121 -64 2502 -64 
Q 1882 -64 1389 218 
Q 896 500 609 1035 
Q 323 1570 323 2327 
Q 323 3089 609 3623 
Q 896 4157 1389 4437 
Q 1882 4718 2502 4718 
Q 3121 4718 3614 4437 
Q 4107 4157 4394 3623 
Q 4682 3089 4682 2327 
z
M 3684 2327 
Q 3684 3068 3361 3458 
Q 3039 3848 2502 3848 
Q 1966 3848 1643 3458 
Q 1321 3068 1321 2327 
Q 1321 1589 1643 1198 
Q 1966 807 2502 807 
Q 3039 807 3361 1198 
Q 3684 1589 3684 2327 
z
" id="Inter-Bold-4f" transform="scale(0.015625)"/>
      <path d="M 1246 4655 
L 2371 1118 
L 2414 1118 
L 3541 4655 
L 4632 4655 
L 3027 0 
L 1759 0 
L 152 4655 
L 1246 4655 
z
" id="Inter-Bold-56" transform="scale(0.015625)"/>
      <path d="M 1389 4655 
L 1389 0 
L 405 0 
L 405 4655 
L 1389 4655 
z
" id="Inter-Bold-49" transform="scale(0.015625)"/>
      <path d="M 2055 0 
L 405 0 
L 405 4655 
L 2068 4655 
Q 2771 4655 3278 4376 
Q 3786 4098 4059 3577 
Q 4332 3057 4332 2332 
Q 4332 1605 4058 1082 
Q 3784 559 3274 279 
Q 2764 0 2055 0 
z
M 1389 843 
L 2014 843 
Q 2671 843 3010 1197 
Q 3350 1552 3350 2332 
Q 3350 3107 3010 3459 
Q 2671 3811 2016 3811 
L 1389 3811 
L 1389 843 
z
" id="Inter-Bold-44" transform="scale(0.015625)"/>
      <path d="M 2561 2295 
L 2561 1527 
L 439 1527 
L 439 2295 
L 2561 2295 
z
" id="Inter-Bold-2d" transform="scale(0.015625)"/>
      <path d="M 2305 4655 
L 2305 0 
L 1323 0 
L 1323 3450 
L 1280 3450 
Q 1205 3334 961 3219 
Q 718 3105 332 3105 
L 332 3886 
Q 632 3886 857 4019 
Q 1082 4152 1209 4333 
Q 1336 4514 1341 4655 
L 2305 4655 
z
" id="Inter-Bold-31" transform="scale(0.015625)"/>
      <path d="M 2061 4732 
Q 2421 4732 2753 4612 
Q 3086 4493 3348 4227 
Q 3611 3961 3766 3523 
Q 3921 3086 3921 2448 
Q 3921 1659 3686 1096 
Q 3452 534 3028 235 
Q 2605 -64 2027 -64 
Q 1561 -64 1204 117 
Q 848 298 631 610 
Q 414 923 368 1314 
L 1339 1314 
Q 1396 1059 1577 919 
Q 1759 780 2027 780 
Q 2482 780 2718 1176 
Q 2955 1573 2957 2264 
L 2925 2264 
Q 2771 1957 2453 1782 
Q 2136 1607 1752 1607 
Q 1341 1607 1016 1801 
Q 691 1995 506 2334 
Q 321 2673 323 3109 
Q 321 3582 539 3949 
Q 757 4316 1149 4525 
Q 1541 4734 2061 4732 
z
M 2068 3959 
Q 1725 3959 1500 3722 
Q 1275 3486 1277 3136 
Q 1275 2791 1496 2555 
Q 1718 2320 2059 2320 
Q 2284 2320 2465 2431 
Q 2646 2543 2751 2729 
Q 2857 2916 2859 3141 
Q 2857 3366 2753 3551 
Q 2650 3736 2473 3847 
Q 2296 3959 2068 3959 
z
" id="Inter-Bold-39" transform="scale(0.015625)"/>
      <path d="M 1964 -68 
Q 1427 -68 1042 160 
Q 657 389 451 795 
Q 246 1202 246 1732 
Q 246 2268 453 2674 
Q 661 3080 1045 3308 
Q 1430 3536 1959 3536 
Q 2416 3536 2760 3370 
Q 3105 3205 3303 2905 
Q 3502 2605 3523 2200 
L 2609 2200 
Q 2571 2461 2406 2621 
Q 2241 2782 1975 2782 
Q 1639 2782 1434 2511 
Q 1230 2241 1230 1745 
Q 1230 1245 1433 971 
Q 1636 698 1975 698 
Q 2225 698 2395 849 
Q 2566 1000 2609 1280 
L 3523 1280 
Q 3500 880 3305 575 
Q 3111 270 2770 101 
Q 2430 -68 1964 -68 
z
" id="Inter-Bold-63" transform="scale(0.015625)"/>
      <path d="M 3291 2495 
L 2405 2441 
Q 2368 2609 2220 2729 
Q 2073 2850 1821 2850 
Q 1596 2850 1440 2755 
Q 1284 2661 1286 2505 
Q 1284 2380 1385 2293 
Q 1486 2207 1730 2155 
L 2361 2027 
Q 3368 1820 3371 1082 
Q 3371 739 3169 479 
Q 2968 220 2618 76 
Q 2268 -68 1816 -68 
Q 1123 -68 711 221 
Q 300 511 232 1011 
L 1184 1061 
Q 1230 848 1394 739 
Q 1559 630 1818 630 
Q 2073 630 2228 730 
Q 2384 830 2386 984 
Q 2380 1243 1939 1332 
L 1334 1452 
Q 321 1655 325 2450 
Q 323 2955 728 3245 
Q 1134 3536 1805 3536 
Q 2466 3536 2846 3256 
Q 3227 2977 3291 2495 
z
" id="Inter-Bold-73" transform="scale(0.015625)"/>
      <path d="M 1977 -68 
Q 1441 -68 1052 151 
Q 664 370 455 773 
Q 246 1177 246 1730 
Q 246 2268 455 2675 
Q 664 3082 1044 3309 
Q 1425 3536 1939 3536 
Q 2400 3536 2771 3340 
Q 3143 3145 3361 2751 
Q 3580 2357 3580 1764 
L 3580 1498 
L 1202 1498 
L 1202 1495 
Q 1202 1105 1416 880 
Q 1630 655 1993 655 
Q 2236 655 2413 757 
Q 2591 859 2664 1059 
L 3559 1000 
Q 3457 514 3041 223 
Q 2625 -68 1977 -68 
z
M 1202 2098 
L 2668 2098 
Q 2666 2409 2468 2611 
Q 2271 2814 1955 2814 
Q 1632 2814 1425 2604 
Q 1218 2395 1202 2098 
z
" id="Inter-Bold-65" transform="scale(0.015625)"/>
      <path d="M 1439 636 
L 1414 386 
Q 1384 86 1301 -212 
Q 1218 -511 1128 -754 
Q 1039 -998 984 -1136 
L 357 -1136 
Q 391 -1002 450 -763 
Q 509 -525 561 -226 
Q 614 73 627 382 
L 639 636 
L 1439 636 
z
" id="Inter-Bold-2c" transform="scale(0.015625)"/>
      <path d="M 1355 2018 
L 1355 0 
L 386 0 
L 386 4655 
L 1327 4655 
L 1327 2875 
L 1368 2875 
Q 1489 3184 1751 3360 
Q 2014 3536 2411 3536 
Q 2957 3536 3289 3186 
Q 3621 2836 3618 2223 
L 3618 0 
L 2650 0 
L 2650 2050 
Q 2652 2373 2487 2552 
Q 2323 2732 2027 2732 
Q 1732 2732 1544 2544 
Q 1357 2357 1355 2018 
z
" id="Inter-Bold-68" transform="scale(0.015625)"/>
      <path d="M 2243 3491 
L 2243 2764 
L 1586 2764 
L 1586 1073 
Q 1586 873 1677 802 
Q 1768 732 1914 732 
Q 1982 732 2050 744 
Q 2118 757 2155 764 
L 2307 43 
Q 2234 20 2102 -10 
Q 1971 -41 1782 -48 
Q 1255 -70 935 181 
Q 616 432 618 945 
L 618 2764 
L 141 2764 
L 141 3491 
L 618 3491 
L 618 4327 
L 1586 4327 
L 1586 3491 
L 2243 3491 
z
" id="Inter-Bold-74" transform="scale(0.015625)"/>
      <path d="M 3286 4655 
L 4264 4655 
L 4264 1577 
Q 4264 1050 4016 683 
Q 3768 316 3333 125 
Q 2898 -66 2334 -66 
Q 1771 -66 1334 125 
Q 898 316 651 683 
Q 405 1050 405 1577 
L 405 4655 
L 1389 4655 
L 1389 1611 
Q 1389 1239 1658 1025 
Q 1927 811 2334 811 
Q 2748 811 3017 1025 
Q 3286 1239 3286 1611 
L 3286 4655 
z
" id="Inter-Bold-55" transform="scale(0.015625)"/>
      <path d="M 405 0 
L 405 4655 
L 1389 4655 
L 1389 2602 
L 1450 2602 
L 3125 4655 
L 4305 4655 
L 2577 2570 
L 4325 0 
L 3148 0 
L 1873 1914 
L 1389 1323 
L 1389 0 
L 405 0 
z
" id="Inter-Bold-4b" transform="scale(0.015625)"/>
     </defs>
     <use xlink:href="#Inter-Bold-43"/>
     <use x="75.213089" xlink:href="#Inter-Bold-6f"/>
     <use x="136.576736" xlink:href="#Inter-Bold-6d"/>
     <use x="227.769943" xlink:href="#Inter-Bold-70"/>
     <use x="291.015701" xlink:href="#Inter-Bold-61"/>
     <use x="349.041275" xlink:href="#Inter-Bold-72"/>
     <use x="391.903503" xlink:href="#Inter-Bold-69"/>
     <use x="419.105209" xlink:href="#Inter-Bold-6e"/>
     <use x="481.285614" xlink:href="#Inter-Bold-67"/>
     <use x="544.602386" xlink:href="#Inter-Bold-20"/>
     <use x="567.791306" xlink:href="#Inter-Bold-64"/>
     <use x="631.321152" xlink:href="#Inter-Bold-61"/>
     <use x="689.346725" xlink:href="#Inter-Bold-69"/>
     <use x="716.548431" xlink:href="#Inter-Bold-6c"/>
     <use x="743.750137" xlink:href="#Inter-Bold-79"/>
     <use x="802.343903" xlink:href="#Inter-Bold-20"/>
     <use x="825.532822" xlink:href="#Inter-Bold-43"/>
     <use x="900.745911" xlink:href="#Inter-Bold-4f"/>
     <use x="978.941956" xlink:href="#Inter-Bold-56"/>
     <use x="1053.728897" xlink:href="#Inter-Bold-49"/>
     <use x="1081.782883" xlink:href="#Inter-Bold-44"/>
     <use x="1154.510178" xlink:href="#Inter-Bold-2d"/>
     <use x="1201.385193" xlink:href="#Inter-Bold-31"/>
     <use x="1248.792877" xlink:href="#Inter-Bold-39"/>
     <use x="1314.808517" xlink:href="#Inter-Bold-20"/>
     <use x="1337.997437" xlink:href="#Inter-Bold-63"/>
     <use x="1396.733246" xlink:href="#Inter-Bold-61"/>
     <use x="1454.75882" xlink:href="#Inter-Bold-73"/>
     <use x="1510.937805" xlink:href="#Inter-Bold-65"/>
     <use x="1570.703445" xlink:href="#Inter-Bold-73"/>
     <use x="1626.882431" xlink:href="#Inter-Bold-2c"/>
     <use x="1657.17363" xlink:href="#Inter-Bold-20"/>
     <use x="1680.362549" xlink:href="#Inter-Bold-68"/>
     <use x="1742.791534" xlink:href="#Inter-Bold-6f"/>
     <use x="1804.155182" xlink:href="#Inter-Bold-73"/>
     <use x="1860.334167" xlink:href="#Inter-Bold-70"/>
     <use x="1923.579926" xlink:href="#Inter-Bold-69"/>
     <use x="1950.781631" xlink:href="#Inter-Bold-74"/>
     <use x="1989.631073" xlink:href="#Inter-Bold-61"/>
     <use x="2047.656647" xlink:href="#Inter-Bold-6c"/>
     <use x="2074.858353" xlink:href="#Inter-Bold-69"/>
     <use x="2102.060059" xlink:href="#Inter-Bold-73"/>
     <use x="2158.239044" xlink:href="#Inter-Bold-61"/>
     <use x="2216.264618" xlink:href="#Inter-Bold-74"/>
     <use x="2255.114059" xlink:href="#Inter-Bold-69"/>
     <use x="2282.315765" xlink:href="#Inter-Bold-6f"/>
     <use x="2343.679413" xlink:href="#Inter-Bold-6e"/>
     <use x="2405.859818" xlink:href="#Inter-Bold-20"/>
     <use x="2429.048737" xlink:href="#Inter-Bold-61"/>
     <use x="2487.07431" xlink:href="#Inter-Bold-6e"/>
     <use x="2549.254715" xlink:href="#Inter-Bold-64"/>
     <use x="2612.784561" xlink:href="#Inter-Bold-20"/>
     <use x="2635.97348" xlink:href="#Inter-Bold-64"/>
     <use x="2699.503326" xlink:href="#Inter-Bold-65"/>
     <use x="2759.268967" xlink:href="#Inter-Bold-61"/>
     <use x="2817.29454" xlink:href="#Inter-Bold-74"/>
     <use x="2856.143982" xlink:href="#Inter-Bold-68"/>
     <use x="2918.572968" xlink:href="#Inter-Bold-73"/>
     <use x="2974.751953" xlink:href="#Inter-Bold-20"/>
     <use x="2997.940872" xlink:href="#Inter-Bold-69"/>
     <use x="3025.142578" xlink:href="#Inter-Bold-6e"/>
     <use x="3087.322983" xlink:href="#Inter-Bold-20"/>
     <use x="3110.511902" xlink:href="#Inter-Bold-74"/>
     <use x="3149.361343" xlink:href="#Inter-Bold-68"/>
     <use x="3211.790329" xlink:href="#Inter-Bold-65"/>
     <use x="3271.555969" xlink:href="#Inter-Bold-20"/>
     <use x="3294.744888" xlink:href="#Inter-Bold-55"/>
     <use x="3367.685242" xlink:href="#Inter-Bold-4b"/>
    </g>
   </g>
   <g id="legend_1">
    <g id="patch_6">
     <path d="M 281.735937 84.407813 
L 403.339062 84.407813 
Q 405.339062 84.407813 405.339062 82.407813 
L 405.339062 40.225 
Q 405.339062 38.225 403.339062 38.225 
L 281.735937 38.225 
Q 279.735937 38.225 279.735937 40.225 
L 279.735937 82.407813 
Q 279.735937 84.407813 281.735937 84.407813 
z
" style="fill:#ffffff;opacity:0.8;stroke:#cccccc;stroke-linejoin:miter;"/>
    </g>
    <g id="line2d_25">
     <path d="M 283.735937 45.998438 
L 303.735937 45.998438 
" style="fill:none;stroke:#ff4500;stroke-linecap:square;stroke-width:1.5;"/>
    </g>
    <g id="line2d_26"/>
    <g id="text_26">
     <!-- Cases -->
     <g transform="translate(311.735937 49.498438)scale(0.1 -0.1)">
      <use xlink:href="#Inter-Regular-43"/>
      <use x="72.727295" xlink:href="#Inter-Regular-61"/>
      <use x="129.119354" xlink:href="#Inter-Regular-73"/>
      <use x="181.39209" xlink:href="#Inter-Regular-65"/>
      <use x="239.630737" xlink:href="#Inter-Regular-73"/>
     </g>
    </g>
    <g id="line2d_27">
     <path d="M 283.735937 60.54375 
L 303.735937 60.54375 
" style="fill:none;stroke:#851bc2;stroke-linecap:square;stroke-width:1.5;"/>
    </g>
    <g id="line2d_28"/>
    <g id="text_27">
     <!-- Patients in hospital -->
     <g transform="translate(311.735937 64.04375)scale(0.1 -0.1)">
      <defs>
       <path d="M 564 0 
L 564 4655 
L 2136 4655 
Q 2684 4655 3033 4458 
Q 3382 4261 3550 3927 
Q 3718 3593 3718 3182 
Q 3718 2770 3551 2434 
Q 3384 2098 3036 1899 
Q 2689 1700 2146 1700 
L 1127 1700 
L 1127 0 
L 564 0 
z
M 1127 2200 
L 2127 2200 
Q 2689 2200 2926 2482 
Q 3164 2764 3164 3182 
Q 3164 3602 2925 3878 
Q 2686 4155 2118 4155 
L 1127 4155 
L 1127 2200 
z
" id="Inter-Regular-50" transform="scale(0.015625)"/>
       <path d="M 491 0 
L 491 3491 
L 1027 3491 
L 1027 0 
L 491 0 
z
M 764 4073 
Q 607 4073 494 4179 
Q 382 4286 382 4436 
Q 382 4586 494 4693 
Q 607 4800 764 4800 
Q 921 4800 1033 4693 
Q 1146 4586 1146 4436 
Q 1146 4286 1033 4179 
Q 921 4073 764 4073 
z
" id="Inter-Regular-69" transform="scale(0.015625)"/>
       <path d="M 1027 2100 
L 1027 0 
L 491 0 
L 491 4655 
L 1027 4655 
L 1027 2945 
L 1073 2945 
Q 1196 3216 1442 3376 
Q 1689 3536 2100 3536 
Q 2636 3536 2963 3213 
Q 3291 2891 3291 2218 
L 3291 0 
L 2755 0 
L 2755 2182 
Q 2755 2598 2540 2826 
Q 2325 3055 1946 3055 
Q 1548 3055 1287 2806 
Q 1027 2557 1027 2100 
z
" id="Inter-Regular-68" transform="scale(0.015625)"/>
      </defs>
      <use xlink:href="#Inter-Regular-50"/>
      <use x="63.494324" xlink:href="#Inter-Regular-61"/>
      <use x="119.886383" xlink:href="#Inter-Regular-74"/>
      <use x="156.250031" xlink:href="#Inter-Regular-69"/>
      <use x="179.971619" xlink:href="#Inter-Regular-65"/>
      <use x="238.210266" xlink:href="#Inter-Regular-6e"/>
      <use x="296.733002" xlink:href="#Inter-Regular-74"/>
      <use x="333.096649" xlink:href="#Inter-Regular-73"/>
      <use x="385.369385" xlink:href="#Inter-Regular-20"/>
      <use x="413.494385" xlink:href="#Inter-Regular-69"/>
      <use x="437.215973" xlink:href="#Inter-Regular-6e"/>
      <use x="495.738708" xlink:href="#Inter-Regular-20"/>
      <use x="523.863708" xlink:href="#Inter-Regular-68"/>
      <use x="582.954636" xlink:href="#Inter-Regular-6f"/>
      <use x="642.613739" xlink:href="#Inter-Regular-73"/>
      <use x="694.886475" xlink:href="#Inter-Regular-70"/>
      <use x="755.82399" xlink:href="#Inter-Regular-69"/>
      <use x="779.545578" xlink:href="#Inter-Regular-74"/>
      <use x="815.909225" xlink:href="#Inter-Regular-61"/>
      <use x="872.301285" xlink:href="#Inter-Regular-6c"/>
     </g>
    </g>
    <g id="line2d_29">
     <path d="M 283.735937 74.8625 
L 303.735937 74.8625 
" style="fill:none;stroke:#333333;stroke-linecap:square;stroke-width:1.5;"/>
    </g>
    <g id="line2d_30"/>
    <g id="text_28">
     <!-- Deaths -->
     <g transform="translate(311.735937 78.3625)scale(0.1 -0.1)">
      <use xlink:href="#Inter-Regular-44"/>
      <use x="71.875015" xlink:href="#Inter-Regular-65"/>
      <use x="130.113663" xlink:href="#Inter-Regular-61"/>
      <use x="186.505722" xlink:href="#Inter-Regular-74"/>
      <use x="222.86937" xlink:href="#Inter-Regular-68"/>
      <use x="281.960297" xlink:href="#Inter-Regular-73"/>
     </g>
    </g>
   </g>
  </g>
  <g id="axes_2">
   <g id="matplotlib.axis_3">
    <g id="ytick_9">
     <g id="line2d_31">
      <defs>
       <path d="M 0 0 
L 3.5 0 
" id="mc2c2906010" style="stroke:#000000;stroke-width:0.8;"/>
      </defs>
      <g>
       <use style="stroke:#000000;stroke-width:0.8;" x="612.5375" xlink:href="#mc2c2906010" y="476.745"/>
      </g>
     </g>
     <g id="text_29">
      <!-- 0 -->
      <g transform="translate(619.5375 480.381719)scale(0.1 -0.1)">
       <use xlink:href="#Inter-Regular-30"/>
      </g>
     </g>
    </g>
    <g id="ytick_10">
     <g id="line2d_32">
      <g>
       <use style="stroke:#000000;stroke-width:0.8;" x="612.5375" xlink:href="#mc2c2906010" y="422.885768"/>
      </g>
     </g>
     <g id="text_30">
      <!-- 5,000 -->
      <g transform="translate(619.5375 426.522487)scale(0.1 -0.1)">
       <use xlink:href="#Inter-Regular-35"/>
       <use x="60.795471" xlink:href="#Inter-Regular-2c"/>
       <use x="88.778427" xlink:href="#Inter-Regular-30"/>
       <use x="151.278442" xlink:href="#Inter-Regular-30"/>
       <use x="213.778458" xlink:href="#Inter-Regular-30"/>
      </g>
     </g>
    </g>
    <g id="ytick_11">
     <g id="line2d_33">
      <g>
       <use style="stroke:#000000;stroke-width:0.8;" x="612.5375" xlink:href="#mc2c2906010" y="369.026537"/>
      </g>
     </g>
     <g id="text_31">
      <!-- 10,000 -->
      <g transform="translate(619.5375 372.663256)scale(0.1 -0.1)">
       <use xlink:href="#Inter-Regular-31"/>
       <use x="44.176147" xlink:href="#Inter-Regular-30"/>
       <use x="106.676163" xlink:href="#Inter-Regular-2c"/>
       <use x="134.659119" xlink:href="#Inter-Regular-30"/>
       <use x="197.159134" xlink:href="#Inter-Regular-30"/>
       <use x="259.659149" xlink:href="#Inter-Regular-30"/>
      </g>
     </g>
    </g>
    <g id="ytick_12">
     <g id="line2d_34">
      <g>
       <use style="stroke:#000000;stroke-width:0.8;" x="612.5375" xlink:href="#mc2c2906010" y="315.167305"/>
      </g>
     </g>
     <g id="text_32">
      <!-- 15,000 -->
      <g transform="translate(619.5375 318.804024)scale(0.1 -0.1)">
       <use xlink:href="#Inter-Regular-31"/>
       <use x="44.176147" xlink:href="#Inter-Regular-35"/>
       <use x="104.971619" xlink:href="#Inter-Regular-2c"/>
       <use x="132.954575" xlink:href="#Inter-Regular-30"/>
       <use x="195.45459" xlink:href="#Inter-Regular-30"/>
       <use x="257.954605" xlink:href="#Inter-Regular-30"/>
      </g>
     </g>
    </g>
    <g id="ytick_13">
     <g id="line2d_35">
      <g>
       <use style="stroke:#000000;stroke-width:0.8;" x="612.5375" xlink:href="#mc2c2906010" y="261.308074"/>
      </g>
     </g>
     <g id="text_33">
      <!-- 20,000 -->
      <g transform="translate(619.5375 264.944793)scale(0.1 -0.1)">
       <use xlink:href="#Inter-Regular-32"/>
       <use x="60.511383" xlink:href="#Inter-Regular-30"/>
       <use x="123.011398" xlink:href="#Inter-Regular-2c"/>
       <use x="150.994354" xlink:href="#Inter-Regular-30"/>
       <use x="213.49437" xlink:href="#Inter-Regular-30"/>
       <use x="275.994385" xlink:href="#Inter-Regular-30"/>
      </g>
     </g>
    </g>
    <g id="ytick_14">
     <g id="line2d_36">
      <g>
       <use style="stroke:#000000;stroke-width:0.8;" x="612.5375" xlink:href="#mc2c2906010" y="207.448842"/>
      </g>
     </g>
     <g id="text_34">
      <!-- 25,000 -->
      <g transform="translate(619.5375 211.085561)scale(0.1 -0.1)">
       <use xlink:href="#Inter-Regular-32"/>
       <use x="60.511383" xlink:href="#Inter-Regular-35"/>
       <use x="121.306854" xlink:href="#Inter-Regular-2c"/>
       <use x="149.28981" xlink:href="#Inter-Regular-30"/>
       <use x="211.789825" xlink:href="#Inter-Regular-30"/>
       <use x="274.289841" xlink:href="#Inter-Regular-30"/>
      </g>
     </g>
    </g>
    <g id="ytick_15">
     <g id="line2d_37">
      <g>
       <use style="stroke:#000000;stroke-width:0.8;" x="612.5375" xlink:href="#mc2c2906010" y="153.589611"/>
      </g>
     </g>
     <g id="text_35">
      <!-- 30,000 -->
      <g transform="translate(619.5375 157.226329)scale(0.1 -0.1)">
       <use xlink:href="#Inter-Regular-33"/>
       <use x="63.636383" xlink:href="#Inter-Regular-30"/>
       <use x="126.136398" xlink:href="#Inter-Regular-2c"/>
       <use x="154.119354" xlink:href="#Inter-Regular-30"/>
       <use x="216.61937" xlink:href="#Inter-Regular-30"/>
       <use x="279.119385" xlink:href="#Inter-Regular-30"/>
      </g>
     </g>
    </g>
    <g id="ytick_16">
     <g id="line2d_38">
      <g>
       <use style="stroke:#000000;stroke-width:0.8;" x="612.5375" xlink:href="#mc2c2906010" y="99.730379"/>
      </g>
     </g>
     <g id="text_36">
      <!-- 35,000 -->
      <g transform="translate(619.5375 103.367098)scale(0.1 -0.1)">
       <use xlink:href="#Inter-Regular-33"/>
       <use x="63.636383" xlink:href="#Inter-Regular-35"/>
       <use x="124.431854" xlink:href="#Inter-Regular-2c"/>
       <use x="152.41481" xlink:href="#Inter-Regular-30"/>
       <use x="214.914825" xlink:href="#Inter-Regular-30"/>
       <use x="277.414841" xlink:href="#Inter-Regular-30"/>
      </g>
     </g>
    </g>
    <g id="ytick_17">
     <g id="line2d_39">
      <g>
       <use style="stroke:#000000;stroke-width:0.8;" x="612.5375" xlink:href="#mc2c2906010" y="45.871148"/>
      </g>
     </g>
     <g id="text_37">
      <!-- 40,000 -->
      <g transform="translate(619.5375 49.507866)scale(0.1 -0.1)">
       <use xlink:href="#Inter-Regular-34"/>
       <use x="64.204559" xlink:href="#Inter-Regular-30"/>
       <use x="126.704575" xlink:href="#Inter-Regular-2c"/>
       <use x="154.687531" xlink:href="#Inter-Regular-30"/>
       <use x="217.187546" xlink:href="#Inter-Regular-30"/>
       <use x="279.687561" xlink:href="#Inter-Regular-30"/>
      </g>
     </g>
    </g>
    <g id="text_38">
     <!-- Hospitalisations -->
     <g style="fill:#851bc2;" transform="translate(665.25625 292.485)rotate(-90)scale(0.1 -0.1)">
      <defs>
       <path d="M 564 0 
L 564 4655 
L 1127 4655 
L 1127 2582 
L 3609 2582 
L 3609 4655 
L 4173 4655 
L 4173 0 
L 3609 0 
L 3609 2082 
L 1127 2082 
L 1127 0 
L 564 0 
z
" id="Inter-Regular-48" transform="scale(0.015625)"/>
      </defs>
      <use xlink:href="#Inter-Regular-48"/>
      <use x="74.005692" xlink:href="#Inter-Regular-6f"/>
      <use x="133.664795" xlink:href="#Inter-Regular-73"/>
      <use x="185.937531" xlink:href="#Inter-Regular-70"/>
      <use x="246.875046" xlink:href="#Inter-Regular-69"/>
      <use x="270.596634" xlink:href="#Inter-Regular-74"/>
      <use x="306.960281" xlink:href="#Inter-Regular-61"/>
      <use x="363.352341" xlink:href="#Inter-Regular-6c"/>
      <use x="387.073929" xlink:href="#Inter-Regular-69"/>
      <use x="410.795517" xlink:href="#Inter-Regular-73"/>
      <use x="463.068253" xlink:href="#Inter-Regular-61"/>
      <use x="519.460312" xlink:href="#Inter-Regular-74"/>
      <use x="555.823959" xlink:href="#Inter-Regular-69"/>
      <use x="579.545547" xlink:href="#Inter-Regular-6f"/>
      <use x="639.204651" xlink:href="#Inter-Regular-6e"/>
      <use x="697.727386" xlink:href="#Inter-Regular-73"/>
     </g>
    </g>
   </g>
   <g id="line2d_40">
    <path clip-path="url(#p713e24135a)" d="M 104.253072 398.465993 
L 105.472902 387.575656 
L 106.692731 374.143164 
L 109.132391 341.052052 
L 110.35222 329.849332 
L 111.57205 327.285632 
L 112.79188 309.285877 
L 114.011709 288.216146 
L 115.231539 273.641838 
L 116.451369 266.7694 
L 117.671199 258.787462 
L 118.891028 253.336908 
L 121.330688 247.520111 
L 122.550517 247.800179 
L 123.770347 243.135969 
L 124.990177 247.218499 
L 126.210006 247.509339 
L 127.429836 255.038859 
L 128.649666 257.117826 
L 129.869495 268.525211 
L 132.309155 265.89688 
L 133.528985 268.514439 
L 134.748814 270.582633 
L 135.968644 277.110372 
L 137.188474 284.284422 
L 138.408303 292.944986 
L 139.628133 297.889264 
L 140.847963 298.417084 
L 142.067792 297.264497 
L 143.287622 305.720396 
L 145.727281 313.400723 
L 146.947111 318.151107 
L 148.166941 321.84585 
L 149.38677 323.914045 
L 150.6066 324.894283 
L 151.82643 328.922953 
L 154.266089 340.739668 
L 155.485919 346.911936 
L 156.705749 347.256635 
L 157.925578 350.423558 
L 159.145408 347.838315 
L 160.365238 351.888529 
L 161.585067 354.570719 
L 162.804897 359.105666 
L 164.024727 361.583191 
L 165.244556 366.462837 
L 166.464386 366.882939 
L 167.684216 366.53824 
L 168.904046 368.886503 
L 170.123875 373.733834 
L 171.343705 376.642232 
L 172.563535 377.816363 
L 173.783364 381.801947 
L 175.003194 381.801947 
L 176.223024 381.564966 
L 177.442853 382.685238 
L 178.662683 388.200423 
L 182.322172 398.465993 
L 183.542002 398.789148 
L 184.761832 398.68143 
L 185.981661 400.426469 
L 187.201491 403.356411 
L 188.421321 405.930882 
L 189.64115 408.096023 
L 190.86098 410.573548 
L 192.08081 412.781777 
L 193.300639 412.911039 
L 194.520469 415.011549 
L 195.740299 417.812229 
L 196.960128 420.946836 
L 198.179958 421.916302 
L 199.399788 423.521307 
L 201.839447 424.286108 
L 203.059277 424.361511 
L 205.498936 427.625381 
L 207.938596 430.943109 
L 209.158425 431.266265 
L 210.378255 430.630726 
L 211.598085 432.214187 
L 212.817914 433.334459 
L 214.037744 435.273392 
L 215.257574 437.750916 
L 216.477403 438.569577 
L 217.697233 438.429543 
L 218.917063 436.37212 
L 220.136893 440.303844 
L 221.356722 442.296635 
L 222.576552 443.578485 
L 225.016211 446.573058 
L 226.236041 447.219369 
L 227.455871 447.671787 
L 228.6757 448.759743 
L 229.89553 450.310889 
L 233.555019 453.93023 
L 234.774849 454.124123 
L 235.994679 453.994861 
L 237.214508 455.27671 
L 238.434338 455.481375 
L 239.654168 457.043293 
L 242.093827 457.614201 
L 243.313657 457.980444 
L 244.533486 458.066618 
L 245.753316 459.143803 
L 246.973146 457.926584 
L 248.192975 460.1779 
L 249.412805 461.093507 
L 250.632635 461.664415 
L 253.072294 461.998342 
L 254.292124 462.009114 
L 255.511954 462.213779 
L 256.731783 462.601566 
L 257.951613 463.118614 
L 259.171443 462.86009 
L 260.391272 463.247877 
L 261.611102 463.280192 
L 262.830932 463.657207 
L 264.050761 463.829556 
L 265.270591 464.314289 
L 268.93008 466.167047 
L 270.14991 465.046775 
L 271.36974 465.563824 
L 272.589569 465.940838 
L 273.809399 465.897751 
L 277.468888 466.210134 
L 278.688718 466.177819 
L 281.128377 466.791814 
L 283.568036 467.1796 
L 284.787866 466.597921 
L 286.007696 467.384266 
L 287.227526 467.319634 
L 288.447355 467.664334 
L 289.667185 467.825911 
L 290.887015 467.707421 
L 292.106844 467.944402 
L 293.326674 467.782824 
L 294.546504 467.804368 
L 295.766333 467.556615 
L 296.986163 467.47044 
L 298.205993 468.095207 
L 299.425822 467.944402 
L 303.085311 467.93363 
L 304.305141 467.028795 
L 305.524971 467.114969 
L 307.96463 466.576377 
L 309.18446 468.450678 
L 311.624119 467.664334 
L 312.843949 466.167047 
L 314.063779 465.262212 
L 315.283608 464.831338 
L 317.723268 463.592576 
L 318.943097 462.7416 
L 320.162927 461.685959 
L 321.382757 459.962463 
L 322.602587 459.122259 
L 323.822416 458.109706 
L 325.042246 456.860172 
L 326.262076 454.98587 
L 327.481905 454.845836 
L 328.701735 453.1762 
L 329.921565 450.903341 
L 331.141394 450.677132 
L 332.361224 449.492229 
L 333.581054 448.824374 
L 336.020713 445.862117 
L 337.240543 443.826238 
L 338.460372 440.45465 
L 340.900032 434.820974 
L 342.119862 432.75278 
L 343.339691 431.837173 
L 344.559521 429.812066 
L 350.658669 412.835636 
L 351.878499 408.925456 
L 353.098329 406.243266 
L 354.318158 403.184062 
L 356.757818 392.164463 
L 357.977648 389.148346 
L 359.197477 387.230957 
L 360.417307 381.037146 
L 361.637137 376.997703 
L 362.856966 371.353256 
L 364.076796 367.884721 
L 365.296626 358.954861 
L 366.516455 353.612025 
L 367.736285 352.00702 
L 368.956115 349.798791 
L 370.175944 344.229747 
L 371.395774 345.145354 
L 372.615604 335.61227 
L 373.835434 328.664429 
L 375.055263 327.931943 
L 376.275093 328.158152 
L 377.494923 326.402341 
L 378.714752 322.567564 
L 379.934582 320.068495 
L 381.154412 313.670019 
L 382.374241 315.576635 
L 383.594071 308.025571 
L 384.813901 305.731168 
L 386.03373 301.885619 
L 387.25356 301.206993 
L 388.47339 295.120899 
L 389.693219 290.28434 
L 390.913049 288.93786 
L 392.132879 288.410039 
L 393.352709 288.690107 
L 394.572538 291.630821 
L 395.792368 292.934215 
L 397.012198 290.769073 
L 398.232027 286.287985 
L 399.451857 289.045578 
L 400.671687 292.190957 
L 401.891516 296.17654 
L 403.111346 298.233963 
L 404.331176 304.546265 
L 405.551005 301.023871 
L 406.770835 298.309366 
L 407.990665 301.034643 
L 410.430324 308.07943 
L 411.650154 307.336173 
L 412.869984 307.756275 
L 414.089813 304.826333 
L 415.309643 299.925143 
L 416.529473 299.257288 
L 417.749302 300.829978 
L 418.969132 296.607414 
L 420.188962 294.862375 
L 421.408791 294.603851 
L 422.628621 287.828359 
L 423.848451 280.201892 
L 425.068281 280.525048 
L 426.28811 275.623858 
L 427.50794 272.413847 
L 428.72777 270.830386 
L 429.947599 267.103327 
L 431.167429 261.275758 
L 432.387259 249.114344 
L 433.607088 245.290338 
L 434.826918 248.155649 
L 436.046748 244.331644 
L 437.266577 251.430291 
L 438.486407 242.683552 
L 439.706237 231.545462 
L 440.926066 217.714412 
L 442.145896 201.556642 
L 443.365726 190.784796 
L 444.585556 190.504728 
L 445.805385 192.540607 
L 447.025215 179.916003 
L 448.245045 164.059845 
L 449.464874 145.284517 
L 450.684704 146.243211 
L 451.904534 132.670685 
L 453.124363 125.809019 
L 454.344193 112.925891 
L 455.564023 110.189842 
L 458.003682 80.89042 
L 459.223512 78.423667 
L 460.443342 72.973113 
L 461.663171 70.786428 
L 462.883001 66.057588 
L 464.102831 70.549447 
L 465.32266 65.648257 
L 466.54249 53.950032 
L 467.76232 58.344946 
L 468.982149 59.486761 
L 470.201979 66.822389 
L 471.421809 64.689563 
L 472.641638 73.953351 
L 473.861468 70.366326 
L 475.081298 70.075486 
L 476.301128 77.141817 
L 477.520957 94.236738 
L 478.740787 100.732161 
L 479.960617 112.150318 
L 481.180446 121.112494 
L 482.400276 125.733616 
L 483.620106 121.694174 
L 487.279595 159.901913 
L 488.499424 171.018458 
L 489.719254 186.831528 
L 490.939084 188.059519 
L 492.158913 188.684286 
L 493.378743 200.048584 
L 494.598573 213.7396 
L 497.038232 236.274303 
L 498.258062 250.859383 
L 499.477892 249.954548 
L 500.697721 250.600859 
L 503.137381 267.243361 
L 504.35721 277.218091 
L 505.57704 284.349053 
L 506.79687 293.160423 
L 508.016699 295.153215 
L 509.236529 295.174759 
L 510.456359 303.145925 
L 511.676189 309.404368 
L 512.896018 316.783082 
L 515.335678 333.802599 
L 516.555507 338.983858 
L 517.775337 337.842042 
L 518.995167 345.974786 
L 523.874485 372.128829 
L 525.094315 374.843334 
L 526.314145 374.681756 
L 527.533975 379.690665 
L 528.753804 385.862933 
L 531.193464 393.4894 
L 532.413293 397.194915 
L 533.633123 397.938172 
L 534.852953 399.101532 
L 536.072782 402.979396 
L 537.292612 405.80162 
L 538.512442 410.487373 
L 539.732271 413.395772 
L 540.952101 416.76736 
L 542.171931 418.049209 
L 543.39176 418.232331 
L 547.05125 427.366857 
L 548.271079 428.422497 
L 549.490909 428.96109 
L 550.710739 431.664823 
L 551.930568 431.535561 
L 554.370228 436.436751 
L 556.809887 440.379247 
L 558.029717 441.801131 
L 559.249546 441.962708 
L 560.469376 441.68264 
L 562.909036 444.224796 
L 564.128865 445.808257 
L 565.348695 446.659233 
L 566.568525 448.199607 
L 567.788354 449.287564 
L 569.008184 449.901559 
L 570.228014 450.817166 
L 572.667673 453.111569 
L 573.887503 453.704021 
L 575.107332 454.835065 
L 576.327162 455.395201 
L 577.546992 455.136676 
L 578.766821 456.009196 
L 579.986651 456.364667 
L 581.206481 457.463395 
L 582.426311 457.926584 
L 583.64614 458.756017 
L 584.86597 459.273065 
L 586.0858 459.025313 
L 587.305629 459.854745 
L 589.745289 461.018104 
L 590.965118 462.062973 
L 592.184948 462.924721 
L 593.404778 462.946265 
L 594.624607 462.752372 
L 595.844437 462.827775 
L 597.064267 463.452542 
L 598.284097 464.303518 
L 599.503926 464.325061 
L 601.943586 464.777479 
L 603.163415 464.658988 
L 604.383245 464.906741 
L 605.603075 465.337615 
L 606.822904 466.0701 
L 606.822904 466.0701 
" style="fill:none;stroke:#851bc2;stroke-linecap:square;stroke-width:1.5;"/>
   </g>
   <g id="patch_7">
    <path d="M 72.5375 476.745 
L 72.5375 33.225 
" style="fill:none;stroke:#000000;stroke-linecap:square;stroke-linejoin:miter;stroke-width:0.8;"/>
   </g>
   <g id="patch_8">
    <path d="M 612.5375 476.745 
L 612.5375 33.225 
" style="fill:none;stroke:#000000;stroke-linecap:square;stroke-linejoin:miter;stroke-width:0.8;"/>
   </g>
   <g id="patch_9">
    <path d="M 72.5375 476.745 
L 612.5375 476.745 
" style="fill:none;stroke:#000000;stroke-linecap:square;stroke-linejoin:miter;stroke-width:0.8;"/>
   </g>
  </g>
  <g id="axes_3">
   <g id="matplotlib.axis_4">
    <g id="ytick_18">
     <g id="line2d_41">
      <g>
       <use style="stroke:#000000;stroke-width:0.8;" x="693.5375" xlink:href="#mc2c2906010" y="476.745"/>
      </g>
     </g>
     <g id="text_39">
      <!-- 0 -->
      <g transform="translate(700.5375 480.381719)scale(0.1 -0.1)">
       <use xlink:href="#Inter-Regular-30"/>
      </g>
     </g>
    </g>
    <g id="ytick_19">
     <g id="line2d_42">
      <g>
       <use style="stroke:#000000;stroke-width:0.8;" x="693.5375" xlink:href="#mc2c2906010" y="414.535869"/>
      </g>
     </g>
     <g id="text_40">
      <!-- 200 -->
      <g transform="translate(700.5375 418.172588)scale(0.1 -0.1)">
       <use xlink:href="#Inter-Regular-32"/>
       <use x="60.511383" xlink:href="#Inter-Regular-30"/>
       <use x="123.011398" xlink:href="#Inter-Regular-30"/>
      </g>
     </g>
    </g>
    <g id="ytick_20">
     <g id="line2d_43">
      <g>
       <use style="stroke:#000000;stroke-width:0.8;" x="693.5375" xlink:href="#mc2c2906010" y="352.326738"/>
      </g>
     </g>
     <g id="text_41">
      <!-- 400 -->
      <g transform="translate(700.5375 355.963457)scale(0.1 -0.1)">
       <use xlink:href="#Inter-Regular-34"/>
       <use x="64.204559" xlink:href="#Inter-Regular-30"/>
       <use x="126.704575" xlink:href="#Inter-Regular-30"/>
      </g>
     </g>
    </g>
    <g id="ytick_21">
     <g id="line2d_44">
      <g>
       <use style="stroke:#000000;stroke-width:0.8;" x="693.5375" xlink:href="#mc2c2906010" y="290.117607"/>
      </g>
     </g>
     <g id="text_42">
      <!-- 600 -->
      <g transform="translate(700.5375 293.754326)scale(0.1 -0.1)">
       <use xlink:href="#Inter-Regular-36"/>
       <use x="62.357971" xlink:href="#Inter-Regular-30"/>
       <use x="124.857986" xlink:href="#Inter-Regular-30"/>
      </g>
     </g>
    </g>
    <g id="ytick_22">
     <g id="line2d_45">
      <g>
       <use style="stroke:#000000;stroke-width:0.8;" x="693.5375" xlink:href="#mc2c2906010" y="227.908476"/>
      </g>
     </g>
     <g id="text_43">
      <!-- 800 -->
      <g transform="translate(700.5375 231.545194)scale(0.1 -0.1)">
       <defs>
        <path d="M 1973 -64 
Q 1505 -64 1147 103 
Q 789 270 589 564 
Q 389 859 391 1236 
Q 389 1532 507 1783 
Q 625 2034 830 2203 
Q 1036 2373 1291 2418 
L 1291 2445 
Q 957 2532 759 2821 
Q 561 3111 564 3482 
Q 561 3836 743 4115 
Q 925 4395 1244 4556 
Q 1564 4718 1973 4718 
Q 2377 4718 2695 4556 
Q 3014 4395 3197 4115 
Q 3380 3836 3382 3482 
Q 3380 3111 3181 2821 
Q 2982 2532 2655 2445 
L 2655 2418 
Q 2907 2373 3109 2203 
Q 3311 2034 3431 1783 
Q 3552 1532 3555 1236 
Q 3552 859 3351 564 
Q 3150 270 2794 103 
Q 2439 -64 1973 -64 
z
M 1973 436 
Q 2446 436 2722 662 
Q 2998 889 3000 1264 
Q 2998 1527 2864 1729 
Q 2730 1932 2499 2048 
Q 2268 2164 1973 2164 
Q 1675 2164 1442 2048 
Q 1209 1932 1076 1729 
Q 943 1527 946 1264 
Q 943 889 1218 662 
Q 1493 436 1973 436 
z
M 1973 2645 
Q 2348 2645 2591 2864 
Q 2834 3084 2836 3445 
Q 2834 3800 2596 4013 
Q 2359 4227 1973 4227 
Q 1582 4227 1344 4013 
Q 1107 3800 1109 3445 
Q 1107 3084 1349 2864 
Q 1591 2645 1973 2645 
z
" id="Inter-Regular-38" transform="scale(0.015625)"/>
       </defs>
       <use xlink:href="#Inter-Regular-38"/>
       <use x="61.647736" xlink:href="#Inter-Regular-30"/>
       <use x="124.147751" xlink:href="#Inter-Regular-30"/>
      </g>
     </g>
    </g>
    <g id="ytick_23">
     <g id="line2d_46">
      <g>
       <use style="stroke:#000000;stroke-width:0.8;" x="693.5375" xlink:href="#mc2c2906010" y="165.699345"/>
      </g>
     </g>
     <g id="text_44">
      <!-- 1,000 -->
      <g transform="translate(700.5375 169.336063)scale(0.1 -0.1)">
       <use xlink:href="#Inter-Regular-31"/>
       <use x="44.176147" xlink:href="#Inter-Regular-2c"/>
       <use x="72.159103" xlink:href="#Inter-Regular-30"/>
       <use x="134.659119" xlink:href="#Inter-Regular-30"/>
       <use x="197.159134" xlink:href="#Inter-Regular-30"/>
      </g>
     </g>
    </g>
    <g id="ytick_24">
     <g id="line2d_47">
      <g>
       <use style="stroke:#000000;stroke-width:0.8;" x="693.5375" xlink:href="#mc2c2906010" y="103.490214"/>
      </g>
     </g>
     <g id="text_45">
      <!-- 1,200 -->
      <g transform="translate(700.5375 107.126932)scale(0.1 -0.1)">
       <use xlink:href="#Inter-Regular-31"/>
       <use x="44.176147" xlink:href="#Inter-Regular-2c"/>
       <use x="72.159103" xlink:href="#Inter-Regular-32"/>
       <use x="132.670486" xlink:href="#Inter-Regular-30"/>
       <use x="195.170502" xlink:href="#Inter-Regular-30"/>
      </g>
     </g>
    </g>
    <g id="ytick_25">
     <g id="line2d_48">
      <g>
       <use style="stroke:#000000;stroke-width:0.8;" x="693.5375" xlink:href="#mc2c2906010" y="41.281082"/>
      </g>
     </g>
     <g id="text_46">
      <!-- 1,400 -->
      <g transform="translate(700.5375 44.917801)scale(0.1 -0.1)">
       <use xlink:href="#Inter-Regular-31"/>
       <use x="44.176147" xlink:href="#Inter-Regular-2c"/>
       <use x="72.159103" xlink:href="#Inter-Regular-34"/>
       <use x="136.363663" xlink:href="#Inter-Regular-30"/>
       <use x="198.863678" xlink:href="#Inter-Regular-30"/>
      </g>
     </g>
    </g>
    <g id="text_47">
     <!-- Deaths -->
     <g transform="translate(737.946875 271.696719)rotate(-90)scale(0.1 -0.1)">
      <use xlink:href="#Inter-Regular-44"/>
      <use x="71.875015" xlink:href="#Inter-Regular-65"/>
      <use x="130.113663" xlink:href="#Inter-Regular-61"/>
      <use x="186.505722" xlink:href="#Inter-Regular-74"/>
      <use x="222.86937" xlink:href="#Inter-Regular-68"/>
      <use x="281.960297" xlink:href="#Inter-Regular-73"/>
     </g>
    </g>
   </g>
   <g id="line2d_49">
    <path clip-path="url(#p713e24135a)" d="M 73.75733 476.433954 
L 74.977159 476.122909 
L 76.196989 476.745 
L 77.416819 475.811863 
L 78.636648 476.745 
L 79.856478 476.745 
L 81.076308 475.811863 
L 82.296138 475.189772 
L 83.515967 475.811863 
L 85.955627 472.701406 
L 87.175456 471.76827 
L 88.395286 469.901996 
L 89.615116 466.791539 
L 90.834945 462.125854 
L 92.054775 460.570626 
L 93.274605 455.593895 
L 94.494434 453.727622 
L 95.714264 442.841024 
L 96.934094 436.309065 
L 98.153923 425.733513 
L 99.373753 418.890508 
L 100.593583 403.02718 
L 101.813413 382.498166 
L 103.033242 364.146473 
L 105.472902 341.129094 
L 106.692731 319.355898 
L 107.912561 292.917018 
L 109.132391 271.454867 
L 110.35222 237.550891 
L 111.57205 225.731156 
L 112.79188 215.466649 
L 114.011709 194.626591 
L 115.231539 191.516134 
L 116.451369 198.359138 
L 117.671199 166.01039 
L 118.891028 142.37092 
L 120.110858 165.699345 
L 121.330688 183.117901 
L 122.550517 179.696399 
L 123.770347 178.763262 
L 124.990177 198.048093 
L 126.210006 209.867828 
L 127.429836 203.646915 
L 128.649666 214.222467 
L 129.869495 222.309654 
L 131.089325 227.908476 
L 132.309155 237.861937 
L 133.528985 233.196252 
L 134.748814 245.327032 
L 135.968644 249.370626 
L 137.188474 266.167091 
L 138.408303 264.300817 
L 139.628133 275.498461 
L 140.847963 279.8531 
L 143.287622 302.559433 
L 144.507452 298.826885 
L 145.727281 305.358844 
L 146.947111 300.071068 
L 148.166941 323.088446 
L 149.38677 336.774455 
L 150.6066 326.198903 
L 151.82643 332.10877 
L 153.04626 333.975044 
L 154.266089 333.352953 
L 155.485919 357.614514 
L 156.705749 359.169742 
L 157.925578 368.501112 
L 159.145408 380.631892 
L 160.365238 376.899345 
L 161.585067 378.143527 
L 162.804897 372.855751 
L 164.024727 379.076664 
L 165.244556 379.076664 
L 166.464386 393.69581 
L 167.684216 385.608623 
L 168.904046 391.207445 
L 170.123875 393.384764 
L 171.343705 402.716134 
L 172.563535 407.381819 
L 173.783364 408.314956 
L 175.003194 415.780052 
L 176.223024 414.224823 
L 177.442853 410.492275 
L 178.662683 415.780052 
L 179.882513 409.248093 
L 181.102342 418.890508 
L 182.322172 426.044558 
L 183.542002 437.553247 
L 184.761832 434.753837 
L 185.981661 424.48933 
L 187.201491 428.532923 
L 188.421321 435.064882 
L 189.64115 438.486384 
L 190.86098 442.529978 
L 192.08081 436.931156 
L 193.300639 437.864293 
L 194.520469 448.750891 
L 195.740299 442.841024 
L 196.960128 451.861348 
L 198.179958 451.861348 
L 199.399788 457.460169 
L 200.619617 449.995074 
L 201.839447 454.971804 
L 203.059277 450.617165 
L 204.279107 458.393306 
L 205.498936 457.771215 
L 206.718766 460.570626 
L 207.938596 458.082261 
L 209.158425 459.948535 
L 210.378255 456.838078 
L 211.598085 456.838078 
L 212.817914 453.727622 
L 214.037744 455.593895 
L 215.257574 463.992128 
L 216.477403 461.503763 
L 217.697233 462.747946 
L 218.917063 464.614219 
L 220.136893 462.125854 
L 221.356722 468.346767 
L 222.576552 463.370037 
L 223.796382 467.724676 
L 225.016211 466.480493 
L 226.236041 468.346767 
L 227.455871 465.858402 
L 228.6757 468.346767 
L 229.89553 469.279904 
L 231.11536 465.236311 
L 232.335189 470.213041 
L 233.555019 470.213041 
L 234.774849 472.701406 
L 235.994679 469.279904 
L 237.214508 470.213041 
L 238.434338 470.524087 
L 239.654168 472.701406 
L 240.873997 471.146178 
L 242.093827 472.390361 
L 243.313657 472.390361 
L 244.533486 473.012452 
L 245.753316 470.524087 
L 246.973146 471.457224 
L 248.192975 471.76827 
L 249.412805 474.56768 
L 250.632635 471.76827 
L 251.852464 471.76827 
L 253.072294 473.323498 
L 254.292124 473.012452 
L 255.511954 473.012452 
L 256.731783 473.634543 
L 257.951613 472.390361 
L 259.171443 473.323498 
L 260.391272 473.634543 
L 261.611102 472.079315 
L 262.830932 472.390361 
L 264.050761 474.878726 
L 266.490421 473.012452 
L 267.71025 472.390361 
L 268.93008 474.256635 
L 270.14991 472.701406 
L 272.589569 474.56768 
L 273.809399 473.945589 
L 275.029229 474.56768 
L 276.249058 473.012452 
L 277.468888 475.500817 
L 278.688718 473.012452 
L 279.908547 473.945589 
L 281.128377 475.811863 
L 282.348207 474.256635 
L 283.568036 474.56768 
L 284.787866 474.256635 
L 286.007696 472.390361 
L 287.227526 474.878726 
L 288.447355 473.012452 
L 289.667185 473.323498 
L 290.887015 474.256635 
L 292.106844 473.634543 
L 293.326674 475.189772 
L 294.546504 474.878726 
L 295.766333 473.945589 
L 296.986163 475.811863 
L 298.205993 473.945589 
L 299.425822 473.634543 
L 300.645652 474.56768 
L 301.865482 472.701406 
L 303.085311 474.256635 
L 304.305141 472.079315 
L 305.524971 473.945589 
L 306.744801 473.945589 
L 307.96463 472.701406 
L 309.18446 472.701406 
L 310.40429 471.146178 
L 311.624119 471.76827 
L 312.843949 470.213041 
L 314.063779 471.146178 
L 315.283608 468.657813 
L 316.503438 468.346767 
L 317.723268 469.279904 
L 318.943097 470.524087 
L 320.162927 467.102585 
L 321.382757 468.346767 
L 322.602587 464.614219 
L 323.822416 459.326443 
L 325.042246 465.858402 
L 326.262076 466.791539 
L 327.481905 464.614219 
L 328.701735 462.125854 
L 329.921565 459.948535 
L 331.141394 461.814809 
L 332.361224 459.015398 
L 333.581054 455.904941 
L 334.800883 455.593895 
L 336.020713 455.904941 
L 337.240543 458.082261 
L 338.460372 454.349713 
L 339.680202 454.660758 
L 340.900032 445.018343 
L 342.119862 447.817754 
L 343.339691 452.172393 
L 344.559521 444.707297 
L 345.779351 438.486384 
L 346.99918 441.596841 
L 348.21901 442.529978 
L 349.43884 440.663704 
L 350.658669 429.777106 
L 351.878499 430.088152 
L 353.098329 421.689919 
L 354.318158 427.288741 
L 355.537988 417.33528 
L 356.757818 416.091097 
L 357.977648 408.00391 
L 359.197477 403.338225 
L 360.417307 407.692865 
L 361.637137 410.18123 
L 362.856966 398.983586 
L 364.076796 390.585353 
L 365.296626 393.69581 
L 366.516455 387.785943 
L 367.736285 380.009801 
L 368.956115 371.300523 
L 370.175944 377.21039 
L 371.395774 365.390655 
L 372.615604 372.855751 
L 373.835434 364.768564 
L 375.055263 374.410979 
L 376.275093 358.858697 
L 377.494923 352.326738 
L 378.714752 354.815103 
L 379.934582 347.661053 
L 381.154412 327.443085 
L 382.374241 355.74824 
L 383.594071 355.437194 
L 384.813901 345.794779 
L 386.03373 341.44014 
L 387.25356 342.995368 
L 388.47339 335.530272 
L 389.693219 345.172688 
L 390.913049 339.884912 
L 392.132879 325.265766 
L 393.352709 333.041907 
L 394.572538 336.463409 
L 395.792368 331.486679 
L 397.012198 328.998314 
L 398.232027 332.419816 
L 399.451857 333.352953 
L 400.671687 326.198903 
L 401.891516 342.062231 
L 403.111346 345.172688 
L 404.331176 331.486679 
L 405.551005 332.419816 
L 406.770835 345.172688 
L 407.990665 352.637784 
L 409.210495 356.681377 
L 410.430324 329.309359 
L 411.650154 329.931451 
L 412.869984 353.881966 
L 414.089813 346.105825 
L 415.309643 346.105825 
L 416.529473 341.44014 
L 417.749302 342.995368 
L 418.969132 337.085501 
L 420.188962 336.152364 
L 421.408791 340.818049 
L 422.628621 346.727916 
L 423.848451 327.754131 
L 425.068281 333.975044 
L 426.28811 342.062231 
L 427.50794 309.713483 
L 428.72777 316.245442 
L 429.947599 324.643675 
L 431.167429 319.355898 
L 432.387259 297.893748 
L 433.607088 301.937342 
L 434.826918 301.004205 
L 436.046748 296.027474 
L 437.266577 286.385059 
L 438.486407 273.632187 
L 439.706237 274.254278 
L 440.926066 266.167091 
L 442.145896 272.69905 
L 443.365726 253.103174 
L 444.585556 241.594485 
L 445.805385 243.460758 
L 447.025215 240.661348 
L 448.245045 240.972393 
L 449.464874 215.466649 
L 450.684704 194.937636 
L 451.904534 187.161495 
L 453.124363 167.565619 
L 454.344193 170.987121 
L 455.564023 159.789477 
L 456.783852 135.838962 
L 458.003682 125.574455 
L 459.223512 100.690803 
L 460.443342 100.068711 
L 461.663171 95.403027 
L 462.883001 95.714072 
L 464.102831 70.519374 
L 465.32266 83.272246 
L 466.54249 73.940876 
L 467.76232 54.345 
L 470.201979 92.603616 
L 471.421809 90.737342 
L 472.641638 114.998903 
L 473.861468 116.865177 
L 475.081298 115.309948 
L 476.301128 146.72556 
L 477.520957 132.106414 
L 478.740787 132.417459 
L 479.960617 144.859286 
L 481.180446 193.382408 
L 482.400276 199.603321 
L 483.620106 199.914367 
L 484.839935 213.600376 
L 486.059765 210.178873 
L 487.279595 253.725265 
L 488.499424 243.460758 
L 489.719254 259.013041 
L 490.939084 279.542054 
L 492.158913 265.856046 
L 493.378743 288.873424 
L 494.598573 287.940287 
L 495.818403 299.448976 
L 497.038232 313.134985 
L 498.258062 324.643675 
L 499.477892 323.088446 
L 500.697721 316.245442 
L 501.917551 338.640729 
L 503.137381 343.306414 
L 504.35721 347.350007 
L 506.79687 368.501112 
L 508.016699 375.344116 
L 509.236529 389.341171 
L 510.456359 387.785943 
L 512.896018 396.806267 
L 514.115848 406.759728 
L 515.335678 405.826591 
L 516.555507 411.114367 
L 517.775337 407.070773 
L 518.995167 420.134691 
L 520.214996 431.332334 
L 521.434826 428.843969 
L 522.654656 424.178284 
L 523.874485 429.155015 
L 525.094315 435.998019 
L 526.314145 432.576517 
L 527.533975 435.064882 
L 528.753804 440.97475 
L 529.973634 439.730567 
L 531.193464 447.817754 
L 532.413293 444.085206 
L 533.633123 447.506708 
L 534.852953 448.750891 
L 536.072782 451.550302 
L 537.292612 452.483439 
L 538.512442 458.393306 
L 539.732271 454.971804 
L 540.952101 456.838078 
L 542.171931 451.861348 
L 544.61159 461.503763 
L 545.83142 464.614219 
L 547.05125 462.747946 
L 548.271079 461.814809 
L 549.490909 465.547356 
L 550.710739 466.169448 
L 551.930568 466.169448 
L 553.150398 463.681082 
L 554.370228 464.925265 
L 555.590057 467.102585 
L 556.809887 468.035722 
L 558.029717 467.41363 
L 559.249546 468.968859 
L 560.469376 471.457224 
L 561.689206 468.035722 
L 562.909036 468.035722 
L 564.128865 465.858402 
L 565.348695 469.59095 
L 566.568525 469.279904 
L 567.788354 470.213041 
L 569.008184 468.346767 
L 570.228014 470.524087 
L 571.447843 471.457224 
L 572.667673 470.213041 
L 573.887503 471.457224 
L 575.107332 470.213041 
L 576.327162 471.76827 
L 577.546992 471.457224 
L 578.766821 470.835133 
L 579.986651 469.279904 
L 581.206481 471.76827 
L 582.426311 470.213041 
L 583.64614 474.256635 
L 584.86597 472.079315 
L 586.0858 473.323498 
L 587.305629 473.323498 
L 588.525459 472.390361 
L 589.745289 472.701406 
L 590.965118 474.256635 
L 592.184948 474.256635 
L 593.404778 473.012452 
L 594.624607 474.256635 
L 595.844437 473.634543 
L 597.064267 473.323498 
L 598.284097 473.323498 
L 599.503926 474.256635 
L 600.723756 474.878726 
L 601.943586 474.256635 
L 603.163415 474.878726 
L 604.383245 472.390361 
L 604.383245 472.390361 
" style="fill:none;stroke:#333333;stroke-linecap:square;stroke-width:1.5;"/>
   </g>
   <g id="patch_10">
    <path d="M 693.5375 476.745 
L 693.5375 33.225 
" style="fill:none;stroke:#000000;stroke-linecap:square;stroke-linejoin:miter;stroke-width:0.8;"/>
   </g>
  </g>
 </g>
 <defs>
  <clipPath id="p713e24135a">
   <rect height="443.52" width="540" x="72.5375" y="33.225"/>
  </clipPath>
 </defs>
</svg>
