<?xml version="1.0" encoding="utf-8" standalone="no"?>
<!DOCTYPE svg PUBLIC "-//W3C//DTD SVG 1.1//EN"
  "http://www.w3.org/Graphics/SVG/1.1/DTD/svg11.dtd">
<svg xmlns:xlink="http://www.w3.org/1999/xlink" viewBox="0 0 766.842187 511.234062" xmlns="http://www.w3.org/2000/svg" version="1.1">
 <metadata>
  <rdf:RDF xmlns:dc="http://purl.org/dc/elements/1.1/" xmlns:cc="http://creativecommons.org/ns#" xmlns:rdf="http://www.w3.org/1999/02/22-rdf-syntax-ns#">
   <cc:Work>
    <dc:type rdf:resource="http://purl.org/dc/dcmitype/StillImage"/>
    <dc:date>2022-04-06T17:16:00.795720</dc:date>
    <dc:format>image/svg+xml</dc:format>
    <dc:creator>
     <cc:Agent>
      <dc:title>Matplotlib v3.5.1, https://matplotlib.org/</dc:title>
     </cc:Agent>
    </dc:creator>
   </cc:Work>
  </rdf:RDF>
 </metadata>
 <defs>
  <style type="text/css">*{stroke-linejoin: round; stroke-linecap: butt}</style>
 </defs>
 <g id="figure_1">
  <g id="patch_1">
   <path d="M -0 511.234062 
L 766.842187 511.234062 
L 766.842187 0 
L -0 0 
z
" style="fill: #ffffff"/>
  </g>
  <g id="axes_1">
   <g id="patch_2">
    <path d="M 79.242188 476.745 
L 748.842188 476.745 
L 748.842188 33.225 
L 79.242188 33.225 
z
" style="fill: #ffffff"/>
   </g>
   <g id="matplotlib.axis_1">
    <g id="xtick_1">
     <g id="line2d_1">
      <defs>
       <path id="ma145e215c9" d="M 0 0 
L 0 3.5 
" style="stroke: #000000; stroke-width: 0.8"/>
      </defs>
      <g>
       <use xlink:href="#ma145e215c9" x="79.242188" y="476.745" style="stroke: #000000; stroke-width: 0.8"/>
      </g>
     </g>
     <g id="text_1">
      <!-- 01 Mar -->
      <g transform="translate(63.205469 491.018437)scale(0.1 -0.1)">
       <defs>
        <path id="Inter-Regular-30" d="M 2000 -64 
Q 1230 -64 806 561 
Q 382 1186 382 2327 
Q 382 3459 809 4088 
Q 1236 4718 2000 4718 
Q 2764 4718 3191 4088 
Q 3618 3459 3618 2327 
Q 3618 1186 3194 561 
Q 2771 -64 2000 -64 
z
M 2000 436 
Q 2509 436 2791 927 
Q 3073 1418 3073 2327 
Q 3073 3234 2789 3730 
Q 2505 4227 2000 4227 
Q 1496 4227 1211 3730 
Q 927 3234 927 2327 
Q 927 1418 1210 927 
Q 1493 436 2000 436 
z
" transform="scale(0.015625)"/>
        <path id="Inter-Regular-31" d="M 1973 4655 
L 1973 0 
L 1409 0 
L 1409 3836 
L 1373 3836 
Q 1341 3773 1209 3692 
Q 1077 3611 868 3551 
Q 659 3491 391 3491 
L 391 3964 
Q 661 3964 859 4061 
Q 1057 4159 1190 4291 
Q 1323 4423 1392 4529 
Q 1461 4636 1473 4655 
L 1973 4655 
z
" transform="scale(0.015625)"/>
        <path id="Inter-Regular-20" transform="scale(0.015625)"/>
        <path id="Inter-Regular-4d" d="M 564 4655 
L 1236 4655 
L 2818 791 
L 2873 791 
L 4455 4655 
L 5127 4655 
L 5127 0 
L 4600 0 
L 4600 3536 
L 4555 3536 
L 3100 0 
L 2591 0 
L 1136 3536 
L 1091 3536 
L 1091 0 
L 564 0 
L 564 4655 
z
" transform="scale(0.015625)"/>
        <path id="Inter-Regular-61" d="M 1518 -82 
Q 1186 -82 916 44 
Q 646 170 486 410 
Q 327 650 327 991 
Q 327 1291 445 1478 
Q 564 1666 761 1773 
Q 959 1880 1199 1933 
Q 1439 1986 1682 2018 
Q 2000 2059 2199 2080 
Q 2398 2102 2490 2154 
Q 2582 2207 2582 2336 
L 2582 2355 
Q 2582 2691 2399 2877 
Q 2216 3064 1846 3064 
Q 1461 3064 1243 2895 
Q 1025 2727 936 2536 
L 427 2718 
Q 564 3036 792 3214 
Q 1021 3393 1292 3464 
Q 1564 3536 1827 3536 
Q 1996 3536 2215 3496 
Q 2434 3457 2640 3334 
Q 2846 3211 2982 2963 
Q 3118 2716 3118 2300 
L 3118 0 
L 2582 0 
L 2582 473 
L 2555 473 
Q 2500 359 2373 229 
Q 2246 100 2034 9 
Q 1823 -82 1518 -82 
z
M 1600 400 
Q 1918 400 2137 525 
Q 2357 650 2469 847 
Q 2582 1045 2582 1264 
L 2582 1755 
Q 2548 1714 2433 1681 
Q 2318 1648 2169 1624 
Q 2021 1600 1881 1583 
Q 1741 1566 1655 1555 
Q 1446 1527 1265 1467 
Q 1084 1407 974 1287 
Q 864 1168 864 964 
Q 864 684 1072 542 
Q 1280 400 1600 400 
z
" transform="scale(0.015625)"/>
        <path id="Inter-Regular-72" d="M 491 0 
L 491 3491 
L 1009 3491 
L 1009 2964 
L 1046 2964 
Q 1139 3223 1389 3384 
Q 1639 3545 1955 3545 
Q 2100 3545 2209 3511 
Q 2318 3477 2400 3418 
L 2218 2964 
Q 2161 2993 2085 3010 
Q 2009 3027 1909 3027 
Q 1527 3027 1277 2794 
Q 1027 2561 1027 2209 
L 1027 0 
L 491 0 
z
" transform="scale(0.015625)"/>
       </defs>
       <use xlink:href="#Inter-Regular-30"/>
       <use xlink:href="#Inter-Regular-31" x="62.500015"/>
       <use xlink:href="#Inter-Regular-20" x="106.676163"/>
       <use xlink:href="#Inter-Regular-4d" x="134.801163"/>
       <use xlink:href="#Inter-Regular-61" x="225.99437"/>
       <use xlink:href="#Inter-Regular-72" x="282.386429"/>
      </g>
     </g>
    </g>
    <g id="xtick_2">
     <g id="line2d_2">
      <g>
       <use xlink:href="#ma145e215c9" x="106.315541" y="476.745" style="stroke: #000000; stroke-width: 0.8"/>
      </g>
     </g>
    </g>
    <g id="xtick_3">
     <g id="line2d_3">
      <g>
       <use xlink:href="#ma145e215c9" x="132.51556" y="476.745" style="stroke: #000000; stroke-width: 0.8"/>
      </g>
     </g>
     <g id="text_2">
      <!-- 01 May -->
      <g transform="translate(115.612435 491.116875)scale(0.1 -0.1)">
       <defs>
        <path id="Inter-Regular-79" d="M 818 -1355 
Q 682 -1355 575 -1333 
Q 468 -1311 427 -1291 
L 564 -818 
Q 857 -893 1053 -814 
Q 1250 -736 1391 -345 
L 1509 -18 
L 218 3491 
L 800 3491 
L 1764 709 
L 1800 709 
L 2764 3491 
L 3346 3491 
L 1846 -564 
Q 1550 -1355 818 -1355 
z
" transform="scale(0.015625)"/>
       </defs>
       <use xlink:href="#Inter-Regular-30"/>
       <use xlink:href="#Inter-Regular-31" x="62.500015"/>
       <use xlink:href="#Inter-Regular-20" x="106.676163"/>
       <use xlink:href="#Inter-Regular-4d" x="134.801163"/>
       <use xlink:href="#Inter-Regular-61" x="225.99437"/>
       <use xlink:href="#Inter-Regular-79" x="282.386429"/>
      </g>
     </g>
    </g>
    <g id="xtick_4">
     <g id="line2d_4">
      <g>
       <use xlink:href="#ma145e215c9" x="159.588913" y="476.745" style="stroke: #000000; stroke-width: 0.8"/>
      </g>
     </g>
    </g>
    <g id="xtick_5">
     <g id="line2d_5">
      <g>
       <use xlink:href="#ma145e215c9" x="185.788933" y="476.745" style="stroke: #000000; stroke-width: 0.8"/>
      </g>
     </g>
     <g id="text_3">
      <!-- 01 Jul -->
      <g transform="translate(172.245183 491.018437)scale(0.1 -0.1)">
       <defs>
        <path id="Inter-Regular-4a" d="M 2346 4655 
L 2909 4655 
L 2909 1327 
Q 2909 657 2549 296 
Q 2189 -64 1582 -64 
Q 1200 -64 902 76 
Q 605 216 434 475 
Q 264 734 264 1091 
L 818 1091 
Q 818 795 1034 615 
Q 1250 436 1582 436 
Q 1948 436 2147 664 
Q 2346 893 2346 1327 
L 2346 4655 
z
" transform="scale(0.015625)"/>
        <path id="Inter-Regular-75" d="M 2691 1427 
L 2691 3491 
L 3227 3491 
L 3227 0 
L 2691 0 
L 2691 591 
L 2655 591 
Q 2532 325 2273 140 
Q 2014 -45 1618 -45 
Q 1127 -45 809 280 
Q 491 605 491 1273 
L 491 3491 
L 1027 3491 
L 1027 1309 
Q 1027 927 1242 700 
Q 1457 473 1791 473 
Q 1991 473 2199 575 
Q 2407 677 2549 888 
Q 2691 1100 2691 1427 
z
" transform="scale(0.015625)"/>
        <path id="Inter-Regular-6c" d="M 1027 4655 
L 1027 0 
L 491 0 
L 491 4655 
L 1027 4655 
z
" transform="scale(0.015625)"/>
       </defs>
       <use xlink:href="#Inter-Regular-30"/>
       <use xlink:href="#Inter-Regular-31" x="62.500015"/>
       <use xlink:href="#Inter-Regular-20" x="106.676163"/>
       <use xlink:href="#Inter-Regular-4a" x="134.801163"/>
       <use xlink:href="#Inter-Regular-75" x="189.062531"/>
       <use xlink:href="#Inter-Regular-6c" x="247.159134"/>
      </g>
     </g>
    </g>
    <g id="xtick_6">
     <g id="line2d_6">
      <g>
       <use xlink:href="#ma145e215c9" x="212.862286" y="476.745" style="stroke: #000000; stroke-width: 0.8"/>
      </g>
     </g>
    </g>
    <g id="xtick_7">
     <g id="line2d_7">
      <g>
       <use xlink:href="#ma145e215c9" x="239.935639" y="476.745" style="stroke: #000000; stroke-width: 0.8"/>
      </g>
     </g>
     <g id="text_4">
      <!-- 01 Sep -->
      <g transform="translate(224.048139 491.116875)scale(0.1 -0.1)">
       <defs>
        <path id="Inter-Regular-53" d="M 3109 3491 
Q 3068 3836 2777 4027 
Q 2486 4218 2064 4218 
Q 1600 4218 1318 3999 
Q 1036 3780 1036 3445 
Q 1036 3195 1189 3042 
Q 1343 2889 1553 2803 
Q 1764 2718 1936 2673 
L 2409 2545 
Q 2591 2498 2815 2414 
Q 3039 2330 3244 2185 
Q 3450 2041 3584 1816 
Q 3718 1591 3718 1264 
Q 3718 886 3521 581 
Q 3325 277 2949 97 
Q 2573 -82 2036 -82 
Q 1286 -82 845 272 
Q 405 627 364 1200 
L 946 1200 
Q 968 936 1124 764 
Q 1280 593 1519 510 
Q 1759 427 2036 427 
Q 2359 427 2616 533 
Q 2873 639 3023 828 
Q 3173 1018 3173 1273 
Q 3173 1505 3043 1650 
Q 2914 1795 2702 1886 
Q 2491 1977 2246 2045 
L 1673 2209 
Q 1127 2366 809 2657 
Q 491 2948 491 3418 
Q 491 3809 703 4101 
Q 916 4393 1276 4555 
Q 1636 4718 2082 4718 
Q 2532 4718 2882 4558 
Q 3232 4398 3437 4120 
Q 3643 3843 3655 3491 
L 3109 3491 
z
" transform="scale(0.015625)"/>
        <path id="Inter-Regular-65" d="M 1955 -73 
Q 1450 -73 1085 151 
Q 721 375 524 778 
Q 327 1182 327 1718 
Q 327 2255 524 2665 
Q 721 3075 1074 3305 
Q 1427 3536 1900 3536 
Q 2173 3536 2439 3445 
Q 2705 3355 2923 3151 
Q 3141 2948 3270 2614 
Q 3400 2280 3400 1791 
L 3400 1564 
L 866 1564 
Q 884 1005 1183 707 
Q 1482 409 1955 409 
Q 2271 409 2498 545 
Q 2725 682 2827 955 
L 3346 809 
Q 3223 414 2854 170 
Q 2486 -73 1955 -73 
z
M 866 2027 
L 2855 2027 
Q 2855 2470 2595 2762 
Q 2336 3055 1900 3055 
Q 1593 3055 1368 2911 
Q 1143 2768 1013 2533 
Q 884 2298 866 2027 
z
" transform="scale(0.015625)"/>
        <path id="Inter-Regular-70" d="M 491 -1309 
L 491 3491 
L 1009 3491 
L 1009 2936 
L 1073 2936 
Q 1132 3027 1237 3169 
Q 1343 3311 1542 3423 
Q 1741 3536 2082 3536 
Q 2523 3536 2859 3315 
Q 3196 3095 3384 2690 
Q 3573 2286 3573 1736 
Q 3573 1182 3384 776 
Q 3196 370 2861 148 
Q 2527 -73 2091 -73 
Q 1755 -73 1552 39 
Q 1350 152 1241 296 
Q 1132 441 1073 536 
L 1027 536 
L 1027 -1309 
L 491 -1309 
z
M 1018 1745 
Q 1018 1152 1276 780 
Q 1534 409 2018 409 
Q 2355 409 2581 587 
Q 2807 766 2921 1069 
Q 3036 1373 3036 1745 
Q 3036 2114 2923 2410 
Q 2811 2707 2585 2881 
Q 2359 3055 2018 3055 
Q 1527 3055 1272 2693 
Q 1018 2332 1018 1745 
z
" transform="scale(0.015625)"/>
       </defs>
       <use xlink:href="#Inter-Regular-30"/>
       <use xlink:href="#Inter-Regular-31" x="62.500015"/>
       <use xlink:href="#Inter-Regular-20" x="106.676163"/>
       <use xlink:href="#Inter-Regular-53" x="134.801163"/>
       <use xlink:href="#Inter-Regular-65" x="198.57959"/>
       <use xlink:href="#Inter-Regular-70" x="256.818237"/>
      </g>
     </g>
    </g>
    <g id="xtick_8">
     <g id="line2d_8">
      <g>
       <use xlink:href="#ma145e215c9" x="266.135659" y="476.745" style="stroke: #000000; stroke-width: 0.8"/>
      </g>
     </g>
    </g>
    <g id="xtick_9">
     <g id="line2d_9">
      <g>
       <use xlink:href="#ma145e215c9" x="293.209012" y="476.745" style="stroke: #000000; stroke-width: 0.8"/>
      </g>
     </g>
     <g id="text_5">
      <!-- 01 Nov -->
      <g transform="translate(276.937918 491.018437)scale(0.1 -0.1)">
       <defs>
        <path id="Inter-Regular-4e" d="M 4255 4655 
L 4255 0 
L 3709 0 
L 1173 3655 
L 1127 3655 
L 1127 0 
L 564 0 
L 564 4655 
L 1109 4655 
L 3655 991 
L 3700 991 
L 3700 4655 
L 4255 4655 
z
" transform="scale(0.015625)"/>
        <path id="Inter-Regular-6f" d="M 1909 -73 
Q 1436 -73 1080 152 
Q 725 377 526 781 
Q 327 1186 327 1727 
Q 327 2273 526 2679 
Q 725 3086 1080 3311 
Q 1436 3536 1909 3536 
Q 2382 3536 2737 3311 
Q 3093 3086 3292 2679 
Q 3491 2273 3491 1727 
Q 3491 1186 3292 781 
Q 3093 377 2737 152 
Q 2382 -73 1909 -73 
z
M 1909 409 
Q 2268 409 2500 593 
Q 2732 777 2843 1077 
Q 2955 1377 2955 1727 
Q 2955 2077 2843 2379 
Q 2732 2682 2500 2868 
Q 2268 3055 1909 3055 
Q 1550 3055 1318 2868 
Q 1086 2682 975 2379 
Q 864 2077 864 1727 
Q 864 1377 975 1077 
Q 1086 777 1318 593 
Q 1550 409 1909 409 
z
" transform="scale(0.015625)"/>
        <path id="Inter-Regular-76" d="M 3346 3491 
L 2055 0 
L 1509 0 
L 218 3491 
L 800 3491 
L 1764 709 
L 1800 709 
L 2764 3491 
L 3346 3491 
z
" transform="scale(0.015625)"/>
       </defs>
       <use xlink:href="#Inter-Regular-30"/>
       <use xlink:href="#Inter-Regular-31" x="62.500015"/>
       <use xlink:href="#Inter-Regular-20" x="106.676163"/>
       <use xlink:href="#Inter-Regular-4e" x="134.801163"/>
       <use xlink:href="#Inter-Regular-6f" x="210.085266"/>
       <use xlink:href="#Inter-Regular-76" x="269.74437"/>
      </g>
     </g>
    </g>
    <g id="xtick_10">
     <g id="line2d_10">
      <g>
       <use xlink:href="#ma145e215c9" x="319.409031" y="476.745" style="stroke: #000000; stroke-width: 0.8"/>
      </g>
     </g>
    </g>
    <g id="xtick_11">
     <g id="line2d_11">
      <g>
       <use xlink:href="#ma145e215c9" x="346.482384" y="476.745" style="stroke: #000000; stroke-width: 0.8"/>
      </g>
     </g>
     <g id="text_6">
      <!-- 01 Jan -->
      <g transform="translate(331.283166 491.018437)scale(0.1 -0.1)">
       <defs>
        <path id="Inter-Regular-6e" d="M 1027 2100 
L 1027 0 
L 491 0 
L 491 3491 
L 1009 3491 
L 1009 2945 
L 1055 2945 
Q 1177 3211 1427 3373 
Q 1677 3536 2073 3536 
Q 2602 3536 2928 3211 
Q 3255 2886 3255 2218 
L 3255 0 
L 2718 0 
L 2718 2182 
Q 2718 2593 2504 2824 
Q 2291 3055 1918 3055 
Q 1534 3055 1280 2806 
Q 1027 2557 1027 2100 
z
" transform="scale(0.015625)"/>
       </defs>
       <use xlink:href="#Inter-Regular-30"/>
       <use xlink:href="#Inter-Regular-31" x="62.500015"/>
       <use xlink:href="#Inter-Regular-20" x="106.676163"/>
       <use xlink:href="#Inter-Regular-4a" x="134.801163"/>
       <use xlink:href="#Inter-Regular-61" x="189.062531"/>
       <use xlink:href="#Inter-Regular-6e" x="245.45459"/>
      </g>
     </g>
    </g>
    <g id="xtick_12">
     <g id="line2d_12">
      <g>
       <use xlink:href="#ma145e215c9" x="373.555738" y="476.745" style="stroke: #000000; stroke-width: 0.8"/>
      </g>
     </g>
    </g>
    <g id="xtick_13">
     <g id="line2d_13">
      <g>
       <use xlink:href="#ma145e215c9" x="398.009089" y="476.745" style="stroke: #000000; stroke-width: 0.8"/>
      </g>
     </g>
     <g id="text_7">
      <!-- 01 Mar -->
      <g transform="translate(381.97237 491.018437)scale(0.1 -0.1)">
       <use xlink:href="#Inter-Regular-30"/>
       <use xlink:href="#Inter-Regular-31" x="62.500015"/>
       <use xlink:href="#Inter-Regular-20" x="106.676163"/>
       <use xlink:href="#Inter-Regular-4d" x="134.801163"/>
       <use xlink:href="#Inter-Regular-61" x="225.99437"/>
       <use xlink:href="#Inter-Regular-72" x="282.386429"/>
      </g>
     </g>
    </g>
    <g id="xtick_14">
     <g id="line2d_14">
      <g>
       <use xlink:href="#ma145e215c9" x="425.082442" y="476.745" style="stroke: #000000; stroke-width: 0.8"/>
      </g>
     </g>
    </g>
    <g id="xtick_15">
     <g id="line2d_15">
      <g>
       <use xlink:href="#ma145e215c9" x="451.282462" y="476.745" style="stroke: #000000; stroke-width: 0.8"/>
      </g>
     </g>
     <g id="text_8">
      <!-- 01 May -->
      <g transform="translate(434.379337 491.116875)scale(0.1 -0.1)">
       <use xlink:href="#Inter-Regular-30"/>
       <use xlink:href="#Inter-Regular-31" x="62.500015"/>
       <use xlink:href="#Inter-Regular-20" x="106.676163"/>
       <use xlink:href="#Inter-Regular-4d" x="134.801163"/>
       <use xlink:href="#Inter-Regular-61" x="225.99437"/>
       <use xlink:href="#Inter-Regular-79" x="282.386429"/>
      </g>
     </g>
    </g>
    <g id="xtick_16">
     <g id="line2d_16">
      <g>
       <use xlink:href="#ma145e215c9" x="478.355815" y="476.745" style="stroke: #000000; stroke-width: 0.8"/>
      </g>
     </g>
    </g>
    <g id="xtick_17">
     <g id="line2d_17">
      <g>
       <use xlink:href="#ma145e215c9" x="504.555834" y="476.745" style="stroke: #000000; stroke-width: 0.8"/>
      </g>
     </g>
     <g id="text_9">
      <!-- 01 Jul -->
      <g transform="translate(491.012084 491.018437)scale(0.1 -0.1)">
       <use xlink:href="#Inter-Regular-30"/>
       <use xlink:href="#Inter-Regular-31" x="62.500015"/>
       <use xlink:href="#Inter-Regular-20" x="106.676163"/>
       <use xlink:href="#Inter-Regular-4a" x="134.801163"/>
       <use xlink:href="#Inter-Regular-75" x="189.062531"/>
       <use xlink:href="#Inter-Regular-6c" x="247.159134"/>
      </g>
     </g>
    </g>
    <g id="xtick_18">
     <g id="line2d_18">
      <g>
       <use xlink:href="#ma145e215c9" x="531.629188" y="476.745" style="stroke: #000000; stroke-width: 0.8"/>
      </g>
     </g>
    </g>
    <g id="xtick_19">
     <g id="line2d_19">
      <g>
       <use xlink:href="#ma145e215c9" x="558.702541" y="476.745" style="stroke: #000000; stroke-width: 0.8"/>
      </g>
     </g>
     <g id="text_10">
      <!-- 01 Sep -->
      <g transform="translate(542.815041 491.116875)scale(0.1 -0.1)">
       <use xlink:href="#Inter-Regular-30"/>
       <use xlink:href="#Inter-Regular-31" x="62.500015"/>
       <use xlink:href="#Inter-Regular-20" x="106.676163"/>
       <use xlink:href="#Inter-Regular-53" x="134.801163"/>
       <use xlink:href="#Inter-Regular-65" x="198.57959"/>
       <use xlink:href="#Inter-Regular-70" x="256.818237"/>
      </g>
     </g>
    </g>
    <g id="xtick_20">
     <g id="line2d_20">
      <g>
       <use xlink:href="#ma145e215c9" x="584.90256" y="476.745" style="stroke: #000000; stroke-width: 0.8"/>
      </g>
     </g>
    </g>
    <g id="xtick_21">
     <g id="line2d_21">
      <g>
       <use xlink:href="#ma145e215c9" x="611.975914" y="476.745" style="stroke: #000000; stroke-width: 0.8"/>
      </g>
     </g>
     <g id="text_11">
      <!-- 01 Nov -->
      <g transform="translate(595.70482 491.018437)scale(0.1 -0.1)">
       <use xlink:href="#Inter-Regular-30"/>
       <use xlink:href="#Inter-Regular-31" x="62.500015"/>
       <use xlink:href="#Inter-Regular-20" x="106.676163"/>
       <use xlink:href="#Inter-Regular-4e" x="134.801163"/>
       <use xlink:href="#Inter-Regular-6f" x="210.085266"/>
       <use xlink:href="#Inter-Regular-76" x="269.74437"/>
      </g>
     </g>
    </g>
    <g id="xtick_22">
     <g id="line2d_22">
      <g>
       <use xlink:href="#ma145e215c9" x="638.175933" y="476.745" style="stroke: #000000; stroke-width: 0.8"/>
      </g>
     </g>
    </g>
    <g id="xtick_23">
     <g id="line2d_23">
      <g>
       <use xlink:href="#ma145e215c9" x="665.249286" y="476.745" style="stroke: #000000; stroke-width: 0.8"/>
      </g>
     </g>
     <g id="text_12">
      <!-- 01 Jan -->
      <g transform="translate(650.050067 491.018437)scale(0.1 -0.1)">
       <use xlink:href="#Inter-Regular-30"/>
       <use xlink:href="#Inter-Regular-31" x="62.500015"/>
       <use xlink:href="#Inter-Regular-20" x="106.676163"/>
       <use xlink:href="#Inter-Regular-4a" x="134.801163"/>
       <use xlink:href="#Inter-Regular-61" x="189.062531"/>
       <use xlink:href="#Inter-Regular-6e" x="245.45459"/>
      </g>
     </g>
    </g>
    <g id="xtick_24">
     <g id="line2d_24">
      <g>
       <use xlink:href="#ma145e215c9" x="692.322639" y="476.745" style="stroke: #000000; stroke-width: 0.8"/>
      </g>
     </g>
    </g>
    <g id="xtick_25">
     <g id="line2d_25">
      <g>
       <use xlink:href="#ma145e215c9" x="716.775991" y="476.745" style="stroke: #000000; stroke-width: 0.8"/>
      </g>
     </g>
     <g id="text_13">
      <!-- 01 Mar -->
      <g transform="translate(700.739272 491.018437)scale(0.1 -0.1)">
       <use xlink:href="#Inter-Regular-30"/>
       <use xlink:href="#Inter-Regular-31" x="62.500015"/>
       <use xlink:href="#Inter-Regular-20" x="106.676163"/>
       <use xlink:href="#Inter-Regular-4d" x="134.801163"/>
       <use xlink:href="#Inter-Regular-61" x="225.99437"/>
       <use xlink:href="#Inter-Regular-72" x="282.386429"/>
      </g>
     </g>
    </g>
    <g id="xtick_26">
     <g id="line2d_26">
      <g>
       <use xlink:href="#ma145e215c9" x="743.849344" y="476.745" style="stroke: #000000; stroke-width: 0.8"/>
      </g>
     </g>
    </g>
   </g>
   <g id="matplotlib.axis_2">
    <g id="ytick_1">
     <g id="line2d_27">
      <path d="M 79.242188 476.745 
L 748.842188 476.745 
" clip-path="url(#p355f452aa0)" style="fill: none; stroke: #e5e5e5; stroke-width: 0.8; stroke-linecap: square"/>
     </g>
     <g id="line2d_28">
      <defs>
       <path id="maabff60287" d="M 0 0 
L -3.5 0 
" style="stroke: #000000; stroke-width: 0.8"/>
      </defs>
      <g>
       <use xlink:href="#maabff60287" x="79.242188" y="476.745" style="stroke: #000000; stroke-width: 0.8"/>
      </g>
     </g>
     <g id="text_14">
      <!-- 0 -->
      <g transform="translate(65.992188 480.381719)scale(0.1 -0.1)">
       <use xlink:href="#Inter-Regular-30"/>
      </g>
     </g>
    </g>
    <g id="ytick_2">
     <g id="line2d_29">
      <path d="M 79.242188 384.051776 
L 748.842188 384.051776 
" clip-path="url(#p355f452aa0)" style="fill: none; stroke: #e5e5e5; stroke-width: 0.8; stroke-linecap: square"/>
     </g>
     <g id="line2d_30">
      <g>
       <use xlink:href="#maabff60287" x="79.242188" y="384.051776" style="stroke: #000000; stroke-width: 0.8"/>
      </g>
     </g>
     <g id="text_15">
      <!-- 100,000 -->
      <g transform="translate(33.776562 387.688494)scale(0.1 -0.1)">
       <defs>
        <path id="Inter-Regular-2c" d="M 1291 636 
L 1255 391 
Q 1216 132 1137 -163 
Q 1059 -459 975 -720 
Q 891 -982 836 -1136 
L 427 -1136 
Q 457 -991 504 -752 
Q 552 -514 601 -219 
Q 650 75 682 382 
L 709 636 
L 1291 636 
z
" transform="scale(0.015625)"/>
       </defs>
       <use xlink:href="#Inter-Regular-31"/>
       <use xlink:href="#Inter-Regular-30" x="44.176147"/>
       <use xlink:href="#Inter-Regular-30" x="106.676163"/>
       <use xlink:href="#Inter-Regular-2c" x="169.176178"/>
       <use xlink:href="#Inter-Regular-30" x="197.159134"/>
       <use xlink:href="#Inter-Regular-30" x="259.659149"/>
       <use xlink:href="#Inter-Regular-30" x="322.159164"/>
      </g>
     </g>
    </g>
    <g id="ytick_3">
     <g id="line2d_31">
      <path d="M 79.242188 291.358551 
L 748.842188 291.358551 
" clip-path="url(#p355f452aa0)" style="fill: none; stroke: #e5e5e5; stroke-width: 0.8; stroke-linecap: square"/>
     </g>
     <g id="line2d_32">
      <g>
       <use xlink:href="#maabff60287" x="79.242188" y="291.358551" style="stroke: #000000; stroke-width: 0.8"/>
      </g>
     </g>
     <g id="text_16">
      <!-- 200,000 -->
      <g transform="translate(32.142187 294.99527)scale(0.1 -0.1)">
       <defs>
        <path id="Inter-Regular-32" d="M 482 0 
L 482 409 
L 2018 2091 
Q 2289 2386 2464 2605 
Q 2639 2825 2724 3019 
Q 2809 3214 2809 3427 
Q 2809 3795 2553 4011 
Q 2298 4227 1918 4227 
Q 1514 4227 1275 3985 
Q 1036 3743 1036 3345 
L 500 3345 
Q 500 3755 688 4064 
Q 877 4373 1203 4545 
Q 1530 4718 1936 4718 
Q 2346 4718 2661 4545 
Q 2977 4373 3156 4079 
Q 3336 3786 3336 3427 
Q 3336 3170 3244 2926 
Q 3152 2682 2926 2383 
Q 2700 2084 2300 1655 
L 1255 536 
L 1255 500 
L 3418 500 
L 3418 0 
L 482 0 
z
" transform="scale(0.015625)"/>
       </defs>
       <use xlink:href="#Inter-Regular-32"/>
       <use xlink:href="#Inter-Regular-30" x="60.511383"/>
       <use xlink:href="#Inter-Regular-30" x="123.011398"/>
       <use xlink:href="#Inter-Regular-2c" x="185.511414"/>
       <use xlink:href="#Inter-Regular-30" x="213.49437"/>
       <use xlink:href="#Inter-Regular-30" x="275.994385"/>
       <use xlink:href="#Inter-Regular-30" x="338.4944"/>
      </g>
     </g>
    </g>
    <g id="ytick_4">
     <g id="line2d_33">
      <path d="M 79.242188 198.665327 
L 748.842188 198.665327 
" clip-path="url(#p355f452aa0)" style="fill: none; stroke: #e5e5e5; stroke-width: 0.8; stroke-linecap: square"/>
     </g>
     <g id="line2d_34">
      <g>
       <use xlink:href="#maabff60287" x="79.242188" y="198.665327" style="stroke: #000000; stroke-width: 0.8"/>
      </g>
     </g>
     <g id="text_17">
      <!-- 300,000 -->
      <g transform="translate(31.829687 202.302046)scale(0.1 -0.1)">
       <defs>
        <path id="Inter-Regular-33" d="M 2055 -64 
Q 1605 -64 1253 90 
Q 902 245 696 521 
Q 491 798 473 1164 
L 1046 1164 
Q 1071 827 1356 631 
Q 1641 436 2046 436 
Q 2493 436 2783 664 
Q 3073 893 3073 1264 
Q 3073 1650 2787 1893 
Q 2502 2136 1973 2136 
L 1600 2136 
L 1600 2636 
L 1973 2636 
Q 2386 2636 2647 2856 
Q 2909 3077 2909 3445 
Q 2909 3798 2679 4012 
Q 2450 4227 2064 4227 
Q 1823 4227 1610 4139 
Q 1398 4052 1264 3887 
Q 1130 3723 1118 3491 
L 573 3491 
Q 586 3857 793 4133 
Q 1000 4409 1335 4563 
Q 1671 4718 2073 4718 
Q 2505 4718 2814 4544 
Q 3123 4370 3289 4086 
Q 3455 3802 3455 3473 
Q 3455 3080 3249 2802 
Q 3043 2525 2691 2418 
L 2691 2382 
Q 3132 2309 3379 2008 
Q 3627 1707 3627 1264 
Q 3627 884 3421 583 
Q 3216 282 2861 109 
Q 2507 -64 2055 -64 
z
" transform="scale(0.015625)"/>
       </defs>
       <use xlink:href="#Inter-Regular-33"/>
       <use xlink:href="#Inter-Regular-30" x="63.636383"/>
       <use xlink:href="#Inter-Regular-30" x="126.136398"/>
       <use xlink:href="#Inter-Regular-2c" x="188.636414"/>
       <use xlink:href="#Inter-Regular-30" x="216.61937"/>
       <use xlink:href="#Inter-Regular-30" x="279.119385"/>
       <use xlink:href="#Inter-Regular-30" x="341.6194"/>
      </g>
     </g>
    </g>
    <g id="ytick_5">
     <g id="line2d_35">
      <path d="M 79.242188 105.972102 
L 748.842188 105.972102 
" clip-path="url(#p355f452aa0)" style="fill: none; stroke: #e5e5e5; stroke-width: 0.8; stroke-linecap: square"/>
     </g>
     <g id="line2d_36">
      <g>
       <use xlink:href="#maabff60287" x="79.242188" y="105.972102" style="stroke: #000000; stroke-width: 0.8"/>
      </g>
     </g>
     <g id="text_18">
      <!-- 400,000 -->
      <g transform="translate(31.773438 109.608821)scale(0.1 -0.1)">
       <defs>
        <path id="Inter-Regular-34" d="M 373 955 
L 373 1418 
L 2418 4655 
L 3100 4655 
L 3100 1455 
L 3736 1455 
L 3736 955 
L 3100 955 
L 3100 0 
L 2564 0 
L 2564 955 
L 373 955 
z
M 2564 1455 
L 2564 3936 
L 2527 3936 
L 982 1491 
L 982 1455 
L 2564 1455 
z
" transform="scale(0.015625)"/>
       </defs>
       <use xlink:href="#Inter-Regular-34"/>
       <use xlink:href="#Inter-Regular-30" x="64.204559"/>
       <use xlink:href="#Inter-Regular-30" x="126.704575"/>
       <use xlink:href="#Inter-Regular-2c" x="189.20459"/>
       <use xlink:href="#Inter-Regular-30" x="217.187546"/>
       <use xlink:href="#Inter-Regular-30" x="279.687561"/>
       <use xlink:href="#Inter-Regular-30" x="342.187576"/>
      </g>
     </g>
    </g>
    <g id="text_19">
     <!-- COVID-19 cases (seven day average) -->
     <g transform="translate(25.614062 343.417812)rotate(-90)scale(0.1 -0.1)">
      <defs>
       <path id="Inter-Regular-43" d="M 4309 3200 
L 3746 3200 
Q 3677 3523 3484 3743 
Q 3291 3964 3018 4077 
Q 2746 4191 2436 4191 
Q 2014 4191 1672 3977 
Q 1330 3764 1128 3348 
Q 927 2932 927 2327 
Q 927 1723 1128 1307 
Q 1330 891 1672 677 
Q 2014 464 2436 464 
Q 2746 464 3018 577 
Q 3291 691 3484 911 
Q 3677 1132 3746 1455 
L 4309 1455 
Q 4223 977 3957 637 
Q 3691 298 3298 117 
Q 2905 -64 2436 -64 
Q 1841 -64 1377 227 
Q 914 518 648 1054 
Q 382 1591 382 2327 
Q 382 3064 648 3600 
Q 914 4136 1377 4427 
Q 1841 4718 2436 4718 
Q 2905 4718 3298 4537 
Q 3691 4357 3957 4017 
Q 4223 3677 4309 3200 
z
" transform="scale(0.015625)"/>
       <path id="Inter-Regular-4f" d="M 4491 2327 
Q 4491 1591 4225 1054 
Q 3959 518 3495 227 
Q 3032 -64 2436 -64 
Q 1841 -64 1377 227 
Q 914 518 648 1054 
Q 382 1591 382 2327 
Q 382 3064 648 3600 
Q 914 4136 1377 4427 
Q 1841 4718 2436 4718 
Q 3032 4718 3495 4427 
Q 3959 4136 4225 3600 
Q 4491 3064 4491 2327 
z
M 3946 2327 
Q 3946 2932 3744 3348 
Q 3543 3764 3201 3977 
Q 2859 4191 2436 4191 
Q 2014 4191 1672 3977 
Q 1330 3764 1128 3348 
Q 927 2932 927 2327 
Q 927 1723 1128 1307 
Q 1330 891 1672 677 
Q 2014 464 2436 464 
Q 2859 464 3201 677 
Q 3543 891 3744 1307 
Q 3946 1723 3946 2327 
z
" transform="scale(0.015625)"/>
       <path id="Inter-Regular-56" d="M 755 4655 
L 2136 736 
L 2191 736 
L 3573 4655 
L 4164 4655 
L 2455 0 
L 1873 0 
L 164 4655 
L 755 4655 
z
" transform="scale(0.015625)"/>
       <path id="Inter-Regular-49" d="M 1127 4655 
L 1127 0 
L 564 0 
L 564 4655 
L 1127 4655 
z
" transform="scale(0.015625)"/>
       <path id="Inter-Regular-44" d="M 2000 0 
L 564 0 
L 564 4655 
L 2064 4655 
Q 2741 4655 3223 4376 
Q 3705 4098 3961 3578 
Q 4218 3059 4218 2336 
Q 4218 1609 3959 1085 
Q 3700 561 3204 280 
Q 2709 0 2000 0 
z
M 1127 500 
L 1964 500 
Q 2830 500 3251 992 
Q 3673 1484 3673 2336 
Q 3673 3182 3259 3668 
Q 2846 4155 2027 4155 
L 1127 4155 
L 1127 500 
z
" transform="scale(0.015625)"/>
       <path id="Inter-Regular-2d" d="M 2491 2245 
L 2491 1745 
L 455 1745 
L 455 2245 
L 2491 2245 
z
" transform="scale(0.015625)"/>
       <path id="Inter-Regular-39" d="M 1964 4727 
Q 2250 4725 2536 4618 
Q 2823 4511 3059 4263 
Q 3296 4016 3439 3590 
Q 3582 3164 3582 2518 
Q 3582 1277 3128 606 
Q 2675 -64 1891 -64 
Q 1305 -64 916 278 
Q 527 620 446 1173 
L 1000 1173 
Q 1075 852 1299 644 
Q 1523 436 1891 436 
Q 2430 436 2742 906 
Q 3055 1377 3055 2236 
L 3018 2236 
Q 2827 1950 2530 1784 
Q 2234 1618 1873 1618 
Q 1473 1618 1140 1817 
Q 807 2016 608 2365 
Q 409 2714 409 3164 
Q 409 3595 601 3952 
Q 793 4309 1142 4520 
Q 1491 4732 1964 4727 
z
M 1964 4227 
Q 1677 4227 1449 4084 
Q 1221 3941 1088 3700 
Q 955 3459 955 3164 
Q 955 2873 1083 2635 
Q 1211 2398 1435 2258 
Q 1659 2118 1946 2118 
Q 2232 2118 2465 2266 
Q 2698 2414 2835 2654 
Q 2973 2895 2973 3173 
Q 2973 3450 2842 3691 
Q 2711 3932 2483 4079 
Q 2255 4227 1964 4227 
z
" transform="scale(0.015625)"/>
       <path id="Inter-Regular-63" d="M 1909 -73 
Q 1418 -73 1063 159 
Q 709 391 518 798 
Q 327 1205 327 1727 
Q 327 2259 524 2667 
Q 721 3075 1074 3305 
Q 1427 3536 1900 3536 
Q 2268 3536 2563 3400 
Q 2859 3264 3047 3018 
Q 3236 2773 3282 2445 
L 2746 2445 
Q 2684 2684 2474 2869 
Q 2264 3055 1909 3055 
Q 1439 3055 1151 2697 
Q 864 2339 864 1745 
Q 864 1139 1148 774 
Q 1432 409 1909 409 
Q 2223 409 2447 570 
Q 2671 732 2746 1018 
L 3282 1018 
Q 3236 709 3058 462 
Q 2880 216 2588 71 
Q 2296 -73 1909 -73 
z
" transform="scale(0.015625)"/>
       <path id="Inter-Regular-73" d="M 2964 2709 
L 2482 2573 
Q 2411 2755 2245 2914 
Q 2080 3073 1727 3073 
Q 1407 3073 1194 2926 
Q 982 2780 982 2555 
Q 982 2355 1127 2239 
Q 1273 2123 1582 2045 
L 2100 1918 
Q 3027 1691 3027 973 
Q 3027 673 2855 436 
Q 2684 200 2377 63 
Q 2071 -73 1664 -73 
Q 1130 -73 780 159 
Q 430 391 336 836 
L 846 964 
Q 989 400 1655 400 
Q 2030 400 2251 560 
Q 2473 720 2473 945 
Q 2473 1316 1955 1436 
L 1373 1573 
Q 893 1686 669 1926 
Q 446 2166 446 2527 
Q 446 2823 613 3050 
Q 780 3277 1069 3406 
Q 1359 3536 1727 3536 
Q 2246 3536 2542 3309 
Q 2839 3082 2964 2709 
z
" transform="scale(0.015625)"/>
       <path id="Inter-Regular-28" d="M 682 1964 
Q 682 2823 906 3544 
Q 1130 4266 1546 4873 
L 2018 4873 
Q 1800 4573 1623 4095 
Q 1446 3618 1341 3061 
Q 1236 2505 1236 1964 
Q 1236 1423 1341 866 
Q 1446 309 1623 -168 
Q 1800 -645 2018 -945 
L 1546 -945 
Q 1130 -339 906 383 
Q 682 1105 682 1964 
z
" transform="scale(0.015625)"/>
       <path id="Inter-Regular-64" d="M 1809 -73 
Q 1373 -73 1039 148 
Q 705 370 516 776 
Q 327 1182 327 1736 
Q 327 2286 516 2690 
Q 705 3095 1041 3315 
Q 1377 3536 1818 3536 
Q 2159 3536 2358 3423 
Q 2557 3311 2662 3169 
Q 2768 3027 2827 2936 
L 2873 2936 
L 2873 4655 
L 3409 4655 
L 3409 0 
L 2891 0 
L 2891 536 
L 2827 536 
Q 2768 441 2659 296 
Q 2550 152 2348 39 
Q 2146 -73 1809 -73 
z
M 1882 409 
Q 2366 409 2624 780 
Q 2882 1152 2882 1745 
Q 2882 2332 2627 2693 
Q 2373 3055 1882 3055 
Q 1541 3055 1315 2881 
Q 1089 2707 976 2410 
Q 864 2114 864 1745 
Q 864 1373 978 1069 
Q 1093 766 1319 587 
Q 1546 409 1882 409 
z
" transform="scale(0.015625)"/>
       <path id="Inter-Regular-67" d="M 1900 -1382 
Q 1316 -1382 976 -1169 
Q 636 -957 473 -682 
L 900 -382 
Q 973 -477 1084 -601 
Q 1196 -725 1390 -817 
Q 1584 -909 1900 -909 
Q 2323 -909 2598 -704 
Q 2873 -500 2873 -64 
L 2873 645 
L 2827 645 
Q 2768 550 2660 410 
Q 2552 270 2351 162 
Q 2150 55 1809 55 
Q 1386 55 1051 255 
Q 716 455 521 836 
Q 327 1218 327 1764 
Q 327 2300 516 2699 
Q 705 3098 1041 3317 
Q 1377 3536 1818 3536 
Q 2159 3536 2360 3423 
Q 2561 3311 2669 3169 
Q 2777 3027 2836 2936 
L 2891 2936 
L 2891 3491 
L 3409 3491 
L 3409 -100 
Q 3409 -550 3205 -833 
Q 3002 -1116 2660 -1249 
Q 2318 -1382 1900 -1382 
z
M 1882 536 
Q 2366 536 2624 864 
Q 2882 1193 2882 1773 
Q 2882 2339 2627 2697 
Q 2373 3055 1882 3055 
Q 1541 3055 1315 2882 
Q 1089 2709 976 2418 
Q 864 2127 864 1773 
Q 864 1227 1120 881 
Q 1377 536 1882 536 
z
" transform="scale(0.015625)"/>
       <path id="Inter-Regular-29" d="M 1638 1940 
Q 1638 1081 1414 359 
Q 1191 -362 775 -969 
L 302 -969 
Q 520 -669 697 -191 
Q 875 286 979 842 
Q 1084 1399 1084 1940 
Q 1084 2481 979 3038 
Q 875 3595 697 4072 
Q 520 4549 302 4849 
L 775 4849 
Q 1191 4243 1414 3521 
Q 1638 2799 1638 1940 
z
" transform="scale(0.015625)"/>
      </defs>
      <use xlink:href="#Inter-Regular-43"/>
      <use xlink:href="#Inter-Regular-4f" x="72.727295"/>
      <use xlink:href="#Inter-Regular-56" x="148.863678"/>
      <use xlink:href="#Inter-Regular-49" x="216.477325"/>
      <use xlink:href="#Inter-Regular-44" x="242.897781"/>
      <use xlink:href="#Inter-Regular-2d" x="314.772797"/>
      <use xlink:href="#Inter-Regular-31" x="360.795532"/>
      <use xlink:href="#Inter-Regular-39" x="404.97168"/>
      <use xlink:href="#Inter-Regular-20" x="467.329651"/>
      <use xlink:href="#Inter-Regular-63" x="495.454651"/>
      <use xlink:href="#Inter-Regular-61" x="551.278519"/>
      <use xlink:href="#Inter-Regular-73" x="607.670578"/>
      <use xlink:href="#Inter-Regular-65" x="659.943314"/>
      <use xlink:href="#Inter-Regular-73" x="718.181961"/>
      <use xlink:href="#Inter-Regular-20" x="770.454697"/>
      <use xlink:href="#Inter-Regular-28" x="798.579697"/>
      <use xlink:href="#Inter-Regular-73" x="834.801285"/>
      <use xlink:href="#Inter-Regular-65" x="887.07402"/>
      <use xlink:href="#Inter-Regular-76" x="945.312668"/>
      <use xlink:href="#Inter-Regular-65" x="1000.994492"/>
      <use xlink:href="#Inter-Regular-6e" x="1059.233139"/>
      <use xlink:href="#Inter-Regular-20" x="1117.755875"/>
      <use xlink:href="#Inter-Regular-64" x="1145.880875"/>
      <use xlink:href="#Inter-Regular-61" x="1207.954758"/>
      <use xlink:href="#Inter-Regular-79" x="1264.346817"/>
      <use xlink:href="#Inter-Regular-20" x="1320.028641"/>
      <use xlink:href="#Inter-Regular-61" x="1348.153641"/>
      <use xlink:href="#Inter-Regular-76" x="1404.5457"/>
      <use xlink:href="#Inter-Regular-65" x="1460.227524"/>
      <use xlink:href="#Inter-Regular-72" x="1518.466171"/>
      <use xlink:href="#Inter-Regular-61" x="1556.818451"/>
      <use xlink:href="#Inter-Regular-67" x="1613.21051"/>
      <use xlink:href="#Inter-Regular-65" x="1674.148026"/>
      <use xlink:href="#Inter-Regular-29" x="1732.386673"/>
     </g>
    </g>
   </g>
   <g id="patch_3">
    <path d="M 98.455535 476.745 
L 98.455535 33.225 
L 188.408935 33.225 
L 188.408935 476.745 
z
" clip-path="url(#p355f452aa0)" style="fill: #777777; opacity: 0.15; stroke: #777777; stroke-linejoin: miter"/>
   </g>
   <g id="patch_4">
    <path d="M 296.702348 476.745 
L 296.702348 33.225 
L 320.282365 33.225 
L 320.282365 476.745 
z
" clip-path="url(#p355f452aa0)" style="fill: #777777; opacity: 0.15; stroke: #777777; stroke-linejoin: miter"/>
   </g>
   <g id="patch_5">
    <path d="M 336.002377 476.745 
L 336.002377 33.225 
L 520.275846 33.225 
L 520.275846 476.745 
z
" clip-path="url(#p355f452aa0)" style="fill: #777777; opacity: 0.15; stroke: #777777; stroke-linejoin: miter"/>
   </g>
   <g id="line2d_37">
    <path d="M 52.168834 476.745 
L 98.455535 476.643964 
L 198.888942 473.872437 
L 221.595626 472.900085 
L 226.83563 472.647033 
L 239.935639 471.926806 
L 244.302309 471.42719 
L 248.668979 470.621686 
L 253.908983 469.784666 
L 264.388991 467.342199 
L 268.755661 465.913797 
L 273.995664 463.488015 
L 274.868998 463.177493 
L 281.85567 459.008152 
L 284.475672 456.811322 
L 285.349006 456.202328 
L 287.095674 455.29208 
L 288.842342 453.911878 
L 291.462344 451.783642 
L 293.209012 450.840025 
L 294.95568 449.114077 
L 299.32235 445.562999 
L 301.942352 442.578277 
L 303.68902 440.663235 
L 305.435688 439.315476 
L 306.309022 438.188326 
L 308.929023 435.481684 
L 309.802357 434.6975 
L 311.549025 433.636162 
L 313.295693 432.069647 
L 315.915695 429.888575 
L 317.662363 428.888415 
L 321.155699 425.769288 
L 322.029033 425.00735 
L 323.775701 423.852392 
L 329.889039 416.786388 
L 331.635707 413.637599 
L 334.255709 409.107681 
L 335.129043 407.995362 
L 336.002377 406.515052 
L 338.622379 400.681867 
L 339.495713 399.264588 
L 340.369047 398.802975 
L 342.989049 393.757683 
L 344.735717 388.412065 
L 345.609051 386.515562 
L 346.482384 385.317965 
L 347.355718 383.198071 
L 347.355718 383.198071 
" clip-path="url(#p355f452aa0)" style="fill: none; stroke: #1f77b4; stroke-width: 1.5; stroke-linecap: square"/>
   </g>
   <g id="line2d_38">
    <path d="M 52.168834 476.745 
L 97.582201 476.653234 
L 121.162218 475.920957 
L 126.402222 475.602093 
L 136.008896 474.909674 
L 142.995568 474.286776 
L 161.335581 473.085472 
L 188.408935 471.786839 
L 205.00228 470.900692 
L 211.988952 470.382537 
L 217.228956 469.996933 
L 228.582298 468.906861 
L 232.075633 468.461007 
L 235.568969 467.916897 
L 239.062305 467.21799 
L 240.808973 466.751743 
L 245.175643 465.387299 
L 253.035649 462.515663 
L 254.782317 461.532188 
L 257.402319 459.750624 
L 258.275653 459.046156 
L 260.895655 456.277409 
L 261.768989 455.16231 
L 262.642323 453.819185 
L 263.515657 452.130314 
L 264.388991 450.180049 
L 267.008993 442.054561 
L 268.755661 437.651633 
L 271.375662 429.003355 
L 272.248996 425.976921 
L 273.12233 423.568751 
L 274.868998 420.010258 
L 277.489 412.850633 
L 279.235668 408.857409 
L 280.982336 405.963527 
L 283.602338 398.380294 
L 285.349006 394.159045 
L 287.095674 391.411618 
L 288.842342 387.296038 
L 291.462344 381.957836 
L 293.209012 379.466242 
L 294.082346 377.007091 
L 297.575682 368.792617 
L 299.32235 365.552062 
L 301.069018 360.366803 
L 302.815686 355.361369 
L 303.68902 352.966176 
L 305.435688 349.543015 
L 307.182356 344.136219 
L 308.929023 339.769442 
L 309.802357 337.920212 
L 311.549025 335.302555 
L 312.422359 333.145584 
L 315.915695 326.182469 
L 317.662363 323.850307 
L 319.409031 319.97573 
L 322.029033 314.748759 
L 323.775701 311.903077 
L 329.889039 295.074623 
L 331.635707 287.361619 
L 333.382375 280.722004 
L 334.255709 277.391536 
L 335.129043 275.074206 
L 336.002377 272.186812 
L 337.749045 264.293984 
L 338.622379 260.892142 
L 339.495713 258.355129 
L 340.369047 257.355896 
L 342.115715 250.815462 
L 342.989049 247.620326 
L 344.735717 236.510116 
L 345.609051 232.61422 
L 346.482384 230.473934 
L 347.355718 226.059882 
L 347.355718 226.059882 
" clip-path="url(#p355f452aa0)" style="fill: none; stroke: #ff7f0e; stroke-width: 1.5; stroke-linecap: square"/>
   </g>
   <g id="line2d_39">
    <path d="M 52.168834 476.744073 
L 87.102193 476.637476 
L 100.202203 475.886661 
L 104.568873 475.298986 
L 107.188875 474.656622 
L 108.935543 474.166274 
L 109.808877 473.979034 
L 118.542216 470.670813 
L 121.162218 469.318419 
L 124.655554 467.581348 
L 127.275556 466.166849 
L 129.022224 465.322414 
L 133.388894 462.913317 
L 144.742236 458.817203 
L 149.108906 457.38602 
L 150.855574 456.8725 
L 153.475576 456.326537 
L 161.335581 454.768363 
L 164.828917 454.246501 
L 177.055593 452.434348 
L 182.295597 451.767884 
L 191.902271 450.769578 
L 193.648939 450.553603 
L 197.142274 450.16151 
L 202.382278 449.473726 
L 208.495616 448.558844 
L 212.862286 447.863645 
L 215.482288 447.374225 
L 218.975624 446.69293 
L 219.848958 446.570575 
L 222.46896 445.760436 
L 225.088962 445.093972 
L 225.962296 444.971617 
L 230.328966 443.530237 
L 232.948967 442.858211 
L 235.568969 441.914594 
L 237.315637 441.276865 
L 239.062305 440.728121 
L 239.935639 440.241481 
L 243.428975 437.721153 
L 244.302309 437.233586 
L 246.048977 435.744933 
L 248.668979 433.761298 
L 249.542313 433.323786 
L 250.415647 433.016044 
L 252.162315 431.835133 
L 253.908983 430.202805 
L 257.402319 426.389406 
L 259.148987 423.946939 
L 260.895655 421.201366 
L 262.642323 418.663426 
L 264.388991 414.884323 
L 266.135659 409.981778 
L 267.008993 407.342802 
L 268.755661 402.924116 
L 270.502328 396.49306 
L 272.248996 389.490087 
L 273.12233 386.623086 
L 274.868998 382.511214 
L 278.362334 369.250522 
L 279.235668 366.352004 
L 280.982336 361.719197 
L 284.475672 345.702735 
L 285.349006 342.366706 
L 287.095674 337.538316 
L 289.715676 325.878435 
L 291.462344 318.753107 
L 293.209012 314.059122 
L 294.082346 309.252978 
L 297.575682 294.031824 
L 299.32235 287.692534 
L 300.195684 282.796478 
L 302.815686 270.52853 
L 303.68902 267.088684 
L 304.562354 264.490493 
L 305.435688 262.338157 
L 306.309022 258.914996 
L 308.05569 253.341352 
L 309.802357 248.985698 
L 311.549025 246.106646 
L 312.422359 243.819904 
L 315.042361 238.213818 
L 315.915695 236.584271 
L 317.662363 234.061161 
L 319.409031 230.250543 
L 321.155699 226.593795 
L 322.902367 223.412564 
L 323.775701 221.954499 
L 325.522369 217.184506 
L 329.015705 206.499758 
L 329.889039 203.883028 
L 331.635707 194.58219 
L 334.255709 178.644517 
L 335.129043 175.097148 
L 336.002377 169.919304 
L 338.622379 149.035521 
L 339.495713 144.372124 
L 340.369047 142.421859 
L 341.242381 136.369918 
L 342.989049 122.006176 
L 344.735717 97.618589 
L 345.609051 89.569109 
L 346.482384 84.914983 
L 347.355718 75.369434 
L 347.355718 75.369434 
" clip-path="url(#p355f452aa0)" style="fill: none; stroke: #2ca02c; stroke-width: 1.5; stroke-linecap: square"/>
   </g>
   <g id="line2d_40">
    <path d="M 52.168834 476.745 
L 86.228859 476.655088 
L 91.468863 476.415939 
L 94.088865 476.240749 
L 98.455535 475.746694 
L 103.695539 474.738192 
L 105.442207 474.182032 
L 108.935543 472.828711 
L 109.808877 472.534874 
L 112.428879 471.102763 
L 114.175547 470.236082 
L 116.795549 469.104298 
L 118.542216 468.101357 
L 122.035552 466.003709 
L 123.78222 465.03043 
L 126.402222 463.174712 
L 129.895558 461.203127 
L 131.642226 460.012019 
L 132.51556 459.500353 
L 139.502232 456.70936 
L 141.2489 456.081826 
L 143.868902 455.058493 
L 146.488904 454.29192 
L 149.108906 453.408554 
L 150.855574 452.870933 
L 154.34891 452.134949 
L 157.842245 451.402672 
L 160.462247 450.951256 
L 164.828917 450.293135 
L 177.928927 448.198268 
L 208.495616 444.595282 
L 216.355622 443.349485 
L 218.975624 442.891581 
L 219.848958 442.78591 
L 222.46896 442.112958 
L 225.088962 441.646711 
L 226.83563 441.347311 
L 228.582298 441.005273 
L 231.2023 440.510292 
L 232.948967 440.195135 
L 235.568969 439.590775 
L 237.315637 439.181071 
L 239.062305 438.829763 
L 240.808973 438.076168 
L 244.302309 436.458671 
L 246.048977 435.391772 
L 249.542313 433.547177 
L 250.415647 433.295978 
L 253.035649 431.665504 
L 255.655651 429.604934 
L 258.275653 427.193983 
L 262.642323 422.864283 
L 266.135659 417.94598 
L 267.882327 415.337593 
L 268.755661 414.106627 
L 270.502328 410.422071 
L 273.12233 404.820619 
L 274.868998 402.12232 
L 279.235668 390.932394 
L 280.982336 387.159779 
L 283.602338 376.846731 
L 285.349006 370.953296 
L 287.095674 366.744097 
L 288.842342 359.685508 
L 291.462344 350.297538 
L 293.209012 345.687904 
L 294.082346 341.181159 
L 296.702348 330.983051 
L 297.575682 327.709126 
L 299.32235 322.010347 
L 300.195684 317.629665 
L 302.815686 306.599171 
L 303.68902 303.258507 
L 304.562354 300.728909 
L 305.435688 298.563596 
L 306.309022 295.014372 
L 308.05569 289.127425 
L 309.802357 284.527061 
L 311.549025 281.296702 
L 313.295693 276.663894 
L 315.042361 272.582612 
L 315.915695 270.728747 
L 317.662363 267.85155 
L 319.409031 263.504237 
L 322.029033 257.517182 
L 323.775701 254.092167 
L 327.269037 242.922634 
L 328.142371 239.632024 
L 329.889039 233.954564 
L 332.509041 219.072667 
L 334.255709 208.172871 
L 335.129043 204.264925 
L 336.002377 199.090789 
L 337.749045 184.118052 
L 338.622379 177.306027 
L 339.495713 172.169896 
L 340.369047 169.913742 
L 341.242381 163.250027 
L 342.989049 148.293048 
L 343.862383 135.42074 
L 344.735717 124.26511 
L 345.609051 116.022829 
L 346.482384 111.179608 
L 347.355718 101.792565 
L 347.355718 101.792565 
" clip-path="url(#p355f452aa0)" style="fill: none; stroke: #d62728; stroke-width: 1.5; stroke-linecap: square"/>
   </g>
   <g id="line2d_41">
    <path d="M 52.168834 476.745 
L 86.228859 476.650453 
L 93.215531 476.336223 
L 97.582201 475.845876 
L 102.822205 474.522216 
L 103.695539 474.276579 
L 106.315541 473.068787 
L 108.935543 471.670046 
L 109.808877 471.301127 
L 113.302213 468.988431 
L 115.048881 468.093941 
L 116.795549 467.219844 
L 118.542216 466.080645 
L 121.162218 464.244392 
L 123.78222 462.663045 
L 125.528888 461.275428 
L 127.275556 460.204821 
L 129.022224 459.157388 
L 132.51556 456.719556 
L 142.995568 452.480695 
L 150.855574 450.10126 
L 163.082249 447.948923 
L 166.575585 447.503069 
L 174.435591 446.338842 
L 178.802261 445.871668 
L 207.622282 443.102921 
L 212.862286 442.451288 
L 214.608954 442.247363 
L 218.975624 441.632807 
L 220.722292 441.372339 
L 224.215628 440.800421 
L 227.708964 440.393498 
L 231.2023 439.899443 
L 233.822301 439.563894 
L 239.062305 438.741705 
L 240.808973 438.165153 
L 243.428975 437.202997 
L 244.302309 436.948091 
L 248.668979 434.959821 
L 251.288981 433.998593 
L 252.162315 433.586108 
L 257.402319 430.118454 
L 259.148987 428.678002 
L 261.768989 426.48488 
L 262.642323 425.822123 
L 267.882327 419.638558 
L 268.755661 418.588344 
L 273.12233 410.640827 
L 274.868998 408.184457 
L 277.489 402.19184 
L 279.235668 398.413664 
L 280.982336 395.092466 
L 282.729004 389.067406 
L 284.475672 383.493762 
L 285.349006 381.042954 
L 287.095674 377.149838 
L 287.969008 373.808247 
L 291.462344 362.240133 
L 293.209012 357.985514 
L 294.082346 353.89867 
L 295.829014 347.786478 
L 297.575682 341.993152 
L 299.32235 337.056311 
L 300.195684 333.108506 
L 302.815686 323.198674 
L 303.68902 320.118478 
L 305.435688 315.631199 
L 306.309022 312.171888 
L 308.05569 306.597317 
L 309.802357 302.190681 
L 311.549025 299.110486 
L 312.422359 296.689339 
L 315.042361 290.716187 
L 315.915695 288.94482 
L 317.662363 286.112115 
L 319.409031 281.938139 
L 321.155699 277.934718 
L 322.029033 276.053046 
L 323.775701 272.753167 
L 325.522369 267.558639 
L 326.395703 265.008648 
L 329.015705 256.513314 
L 329.889039 253.65929 
L 334.255709 230.578677 
L 335.129043 227.209278 
L 336.002377 222.659895 
L 337.749045 209.429791 
L 338.622379 203.469617 
L 339.495713 198.713527 
L 340.369047 196.583437 
L 342.115715 183.555404 
L 342.989049 177.246703 
L 343.862383 166.227333 
L 344.735717 156.84029 
L 345.609051 149.920741 
L 346.482384 145.671683 
L 347.355718 137.641669 
L 347.355718 137.641669 
" clip-path="url(#p355f452aa0)" style="fill: none; stroke: #9467bd; stroke-width: 1.5; stroke-linecap: square"/>
   </g>
   <g id="line2d_42">
    <path d="M 52.168834 476.744073 
L 85.355525 476.658795 
L 90.595529 476.396473 
L 93.215531 476.179571 
L 97.582201 475.45193 
L 100.202203 474.594517 
L 104.568873 472.709137 
L 110.682211 468.754844 
L 112.428879 467.331076 
L 114.175547 466.139041 
L 115.922215 465.224159 
L 118.542216 463.370295 
L 122.035552 460.600621 
L 123.78222 459.433613 
L 125.528888 457.786455 
L 127.275556 456.525827 
L 128.14889 455.97801 
L 132.51556 452.553922 
L 138.628898 449.563639 
L 140.375566 449.018603 
L 142.995568 447.867353 
L 145.61557 446.945982 
L 146.488904 446.70498 
L 149.98224 445.319216 
L 151.728908 444.858531 
L 155.222244 444.036342 
L 157.842245 443.537652 
L 161.335581 442.942562 
L 163.955583 442.569935 
L 166.575585 442.227897 
L 178.802261 440.708655 
L 181.422263 440.450041 
L 189.282269 439.878124 
L 207.622282 438.396886 
L 212.862286 437.870389 
L 214.608954 437.715591 
L 231.2023 435.796841 
L 234.695635 435.396406 
L 239.935639 434.599245 
L 242.555641 433.660262 
L 244.302309 433.195869 
L 246.048977 432.401488 
L 249.542313 431.113979 
L 250.415647 430.934155 
L 252.162315 430.180559 
L 255.655651 428.136673 
L 259.148987 425.575559 
L 260.895655 424.140668 
L 262.642323 422.784566 
L 265.262325 419.799845 
L 268.755661 415.151279 
L 273.12233 406.744004 
L 274.868998 404.308026 
L 279.235668 394.09416 
L 280.982336 390.710857 
L 283.602338 381.695514 
L 285.349006 376.365653 
L 287.095674 372.588405 
L 288.842342 366.129541 
L 291.462344 357.361689 
L 293.209012 353.222936 
L 294.082346 349.048033 
L 296.702348 339.81208 
L 297.575682 336.803258 
L 299.32235 331.694935 
L 300.195684 327.475539 
L 302.815686 317.302458 
L 303.68902 314.188892 
L 305.435688 309.77206 
L 306.309022 306.358169 
L 308.05569 301.114513 
L 309.802357 297.225105 
L 311.549025 294.370154 
L 312.422359 292.254895 
L 315.042361 287.236484 
L 315.915695 285.643087 
L 317.662363 283.242332 
L 319.409031 279.593927 
L 321.155699 276.458115 
L 322.029033 274.823934 
L 323.775701 272.171054 
L 329.889039 256.643085 
L 334.255709 237.321182 
L 335.129043 234.552436 
L 336.002377 230.678786 
L 337.749045 219.253419 
L 338.622379 214.238715 
L 339.495713 210.141675 
L 340.369047 208.301714 
L 341.242381 202.947754 
L 342.989049 190.936566 
L 343.862383 180.415885 
L 344.735717 171.486746 
L 345.609051 164.676575 
L 346.482384 160.491476 
L 347.355718 152.808135 
L 347.355718 152.808135 
" clip-path="url(#p355f452aa0)" style="fill: none; stroke: #8c564b; stroke-width: 1.5; stroke-linecap: square"/>
   </g>
   <g id="line2d_43">
    <path d="M 52.168834 476.745 
L 87.975527 476.600399 
L 94.088865 476.153617 
L 96.708867 475.739279 
L 98.455535 475.332355 
L 101.075537 474.467527 
L 104.568873 473.019659 
L 107.188875 471.507833 
L 108.935543 470.564216 
L 110.682211 469.704023 
L 112.428879 468.723328 
L 114.175547 467.935436 
L 118.542216 466.35409 
L 121.162218 465.240844 
L 123.78222 464.239757 
L 126.402222 463.045868 
L 129.022224 462.139329 
L 132.51556 460.703511 
L 136.88223 459.498499 
L 138.628898 459.034106 
L 140.375566 458.730999 
L 143.868902 457.826313 
L 151.728908 456.415522 
L 156.095577 455.847313 
L 158.715579 455.552548 
L 167.448919 454.758167 
L 178.802261 453.918367 
L 190.155603 453.351084 
L 219.848958 451.786422 
L 224.215628 451.41565 
L 234.695635 450.774212 
L 240.808973 450.227322 
L 246.922311 449.156716 
L 253.035649 448.033274 
L 256.528985 447.058141 
L 258.275653 446.434316 
L 262.642323 444.672217 
L 266.135659 442.511538 
L 267.882327 441.304673 
L 268.755661 440.781883 
L 270.502328 439.195902 
L 272.248996 437.337403 
L 273.995664 435.82743 
L 274.868998 435.161893 
L 279.235668 429.678161 
L 280.982336 427.93831 
L 282.729004 424.813621 
L 284.475672 421.780699 
L 285.349006 420.371762 
L 287.095674 418.413154 
L 288.842342 415.002043 
L 291.462344 410.100426 
L 293.209012 407.885984 
L 294.082346 405.572362 
L 295.829014 401.981426 
L 297.575682 398.686182 
L 299.32235 395.965636 
L 300.195684 393.64367 
L 301.942352 389.665277 
L 303.68902 386.410818 
L 305.435688 384.10183 
L 306.309022 382.230354 
L 307.182356 380.702769 
L 308.05569 379.437507 
L 309.802357 377.34264 
L 311.549025 375.92258 
L 313.295693 373.845325 
L 315.915695 371.229522 
L 317.662363 370.075491 
L 319.409031 368.229042 
L 321.155699 366.497533 
L 322.029033 365.665148 
L 323.775701 364.325731 
L 329.889039 356.658147 
L 336.002377 344.118608 
L 338.622379 335.888376 
L 339.495713 333.864883 
L 340.369047 332.875846 
L 341.242381 330.24892 
L 342.989049 324.076479 
L 344.735717 313.557652 
L 345.609051 309.94725 
L 346.482384 307.634554 
L 347.355718 303.633915 
L 347.355718 303.633915 
" clip-path="url(#p355f452aa0)" style="fill: none; stroke: #e377c2; stroke-width: 1.5; stroke-linecap: square"/>
   </g>
   <g id="line2d_44">
    <path d="M 52.168834 476.745 
L 87.975527 476.649526 
L 91.468863 476.402035 
L 94.962199 475.864414 
L 97.582201 475.326794 
L 100.202203 474.286776 
L 103.695539 472.457938 
L 110.682211 467.856647 
L 113.302213 466.33277 
L 116.795549 464.930322 
L 121.162218 463.231255 
L 122.908886 462.676949 
L 127.275556 461.166977 
L 129.022224 460.70073 
L 130.768892 460.086174 
L 132.51556 459.466983 
L 136.88223 458.365787 
L 138.628898 457.960718 
L 141.2489 457.41939 
L 143.868902 456.821518 
L 153.475576 455.277249 
L 162.208915 454.229816 
L 175.308925 453.339961 
L 241.682307 451.123666 
L 253.035649 450.061401 
L 258.275653 449.310586 
L 263.515657 448.253884 
L 266.135659 447.47248 
L 267.882327 446.859778 
L 268.755661 446.610433 
L 273.12233 444.418238 
L 274.868998 443.777728 
L 280.109002 440.395352 
L 280.982336 439.930032 
L 284.475672 436.61903 
L 285.349006 435.836699 
L 287.095674 434.666911 
L 288.842342 432.930767 
L 290.58901 431.19833 
L 291.462344 430.269544 
L 293.209012 429.018186 
L 294.082346 427.764973 
L 295.829014 425.885155 
L 298.449016 423.353703 
L 299.32235 422.614011 
L 301.069018 420.233649 
L 302.815686 418.219425 
L 303.68902 417.197019 
L 305.435688 415.903948 
L 306.309022 414.838903 
L 308.05569 413.207502 
L 309.802357 411.849547 
L 311.549025 410.968034 
L 314.169027 409.132708 
L 316.789029 407.72099 
L 317.662363 407.39193 
L 319.409031 406.199895 
L 322.902367 404.232017 
L 323.775701 403.819533 
L 329.889039 399.441632 
L 333.382375 395.587447 
L 334.255709 394.512206 
L 336.002377 392.789966 
L 338.622379 388.680875 
L 339.495713 387.678861 
L 340.369047 387.110652 
L 342.115715 384.468895 
L 342.989049 382.995073 
L 344.735717 377.994273 
L 345.609051 376.110747 
L 346.482384 374.902027 
L 347.355718 372.984205 
L 347.355718 372.984205 
" clip-path="url(#p355f452aa0)" style="fill: none; stroke: #7f7f7f; stroke-width: 1.5; stroke-linecap: square"/>
   </g>
   <g id="line2d_45">
    <path d="M 52.168834 476.745 
L 87.975527 476.674553 
L 91.468863 476.44282 
L 94.088865 476.021066 
L 96.708867 475.486226 
L 97.582201 475.248004 
L 100.202203 474.055043 
L 102.822205 472.605321 
L 103.695539 472.140928 
L 111.555545 466.333697 
L 114.175547 464.582722 
L 121.162218 460.645114 
L 122.035552 460.293807 
L 126.402222 457.609411 
L 129.895558 455.899221 
L 132.51556 454.269674 
L 135.135562 453.04705 
L 138.628898 451.421211 
L 140.375566 450.960526 
L 142.995568 449.694336 
L 144.742236 449.179889 
L 146.488904 448.839705 
L 150.855574 447.45116 
L 154.34891 446.884805 
L 156.968911 446.30918 
L 159.588913 445.876302 
L 162.208915 445.364636 
L 163.955583 445.191299 
L 166.575585 444.92527 
L 169.195587 444.629579 
L 182.295597 443.743431 
L 191.028937 443.421786 
L 204.128946 443.056575 
L 222.46896 442.440165 
L 232.948967 442.205651 
L 240.808973 441.941475 
L 248.668979 441.395512 
L 252.162315 441.139679 
L 259.148987 440.500095 
L 266.135659 439.452662 
L 269.628995 438.702774 
L 273.995664 437.446781 
L 274.868998 437.263248 
L 277.489 436.120341 
L 280.982336 434.799462 
L 284.475672 432.683276 
L 285.349006 432.156778 
L 287.095674 431.410598 
L 291.462344 428.465734 
L 293.209012 427.691746 
L 294.082346 426.768521 
L 297.575682 424.199992 
L 299.32235 423.264717 
L 303.68902 419.379017 
L 305.435688 418.413154 
L 307.182356 416.88835 
L 309.802357 415.171672 
L 311.549025 414.406026 
L 314.169027 412.588312 
L 315.915695 411.650256 
L 317.662363 410.998623 
L 320.282365 409.230036 
L 322.902367 407.90545 
L 323.775701 407.526335 
L 329.015705 403.833437 
L 329.889039 403.294889 
L 332.509041 400.781049 
L 335.129043 398.603685 
L 336.002377 398.014156 
L 338.622379 395.112858 
L 339.495713 394.424147 
L 340.369047 394.037617 
L 342.115715 392.358015 
L 342.989049 391.378248 
L 343.862383 389.619858 
L 344.735717 388.115447 
L 345.609051 386.959562 
L 346.482384 386.139227 
L 347.355718 384.809079 
L 347.355718 384.809079 
" clip-path="url(#p355f452aa0)" style="fill: none; stroke: #bcbd22; stroke-width: 1.5; stroke-linecap: square"/>
   </g>
   <g id="line2d_46">
    <path d="M 52.168834 476.745 
L 91.468863 476.647672 
L 95.835533 476.3492 
L 98.455535 476.053509 
L 101.948871 475.425975 
L 104.568873 474.902259 
L 115.048881 472.281821 
L 117.668882 471.673754 
L 125.528888 469.199772 
L 127.275556 468.665859 
L 128.14889 468.49623 
L 133.388894 466.670173 
L 135.135562 466.182607 
L 138.628898 465.165762 
L 140.375566 464.885829 
L 142.995568 464.040467 
L 151.728908 462.708465 
L 154.34891 462.460047 
L 160.462247 461.715721 
L 163.955583 461.430225 
L 167.448919 461.232789 
L 175.308925 460.967686 
L 193.648939 460.588571 
L 205.00228 460.444896 
L 218.975624 460.219652 
L 240.808973 459.891518 
L 253.908983 459.437321 
L 263.515657 459.088795 
L 267.008993 458.80608 
L 270.502328 458.493704 
L 273.995664 458.138689 
L 275.742332 457.945887 
L 283.602338 456.669501 
L 286.22234 456.173593 
L 287.969008 455.830628 
L 294.082346 454.36144 
L 297.575682 453.274149 
L 299.32235 452.943234 
L 301.942352 451.932878 
L 303.68902 451.355399 
L 305.435688 451.033753 
L 308.05569 450.039155 
L 310.675691 449.398645 
L 311.549025 449.258678 
L 315.042361 448.183437 
L 315.915695 447.92575 
L 317.662363 447.636547 
L 320.282365 446.690149 
L 325.522369 445.225596 
L 329.015705 444.161478 
L 329.889039 443.939941 
L 331.635707 443.117752 
L 335.129043 441.871955 
L 336.002377 441.688423 
L 337.749045 440.720705 
L 338.622379 440.325832 
L 342.115715 439.246883 
L 342.989049 438.862206 
L 343.862383 437.960301 
L 344.735717 437.364284 
L 347.355718 436.029501 
L 347.355718 436.029501 
" clip-path="url(#p355f452aa0)" style="fill: none; stroke: #17becf; stroke-width: 1.5; stroke-linecap: square"/>
   </g>
   <g id="LineCollection_1">
    <path d="M 87.975527 496.813778 
L 87.975527 55.300656 
" clip-path="url(#p355f452aa0)" style="fill: none; stroke-dasharray: 5.55,2.4; stroke-dashoffset: 0; stroke: #333333; stroke-width: 1.5"/>
   </g>
   <g id="patch_6">
    <path d="M 79.242188 476.745 
L 748.842187 476.745 
" style="fill: none; stroke: #000000; stroke-width: 0.8; stroke-linejoin: miter; stroke-linecap: square"/>
   </g>
   <g id="text_20">
    <!-- Cumulative COVID-19 cases per demographic in England -->
    <g transform="translate(247.097813 27.225)scale(0.12 -0.12)">
     <defs>
      <path id="Inter-Bold-43" d="M 4511 3025 
L 3516 3025 
Q 3459 3409 3188 3628 
Q 2918 3848 2514 3848 
Q 1973 3848 1647 3451 
Q 1321 3055 1321 2327 
Q 1321 1582 1649 1194 
Q 1977 807 2507 807 
Q 2900 807 3173 1012 
Q 3446 1218 3516 1591 
L 4511 1586 
Q 4459 1159 4207 782 
Q 3955 405 3522 170 
Q 3089 -64 2491 -64 
Q 1868 -64 1378 218 
Q 889 500 606 1034 
Q 323 1568 323 2327 
Q 323 3089 609 3623 
Q 896 4157 1386 4437 
Q 1877 4718 2491 4718 
Q 3030 4718 3463 4519 
Q 3896 4320 4172 3942 
Q 4448 3564 4511 3025 
z
" transform="scale(0.015625)"/>
      <path id="Inter-Bold-75" d="M 2625 1486 
L 2625 3491 
L 3593 3491 
L 3593 0 
L 2664 0 
L 2664 634 
L 2627 634 
Q 2509 327 2235 141 
Q 1961 -45 1568 -45 
Q 1041 -45 715 306 
Q 389 657 386 1268 
L 386 3491 
L 1355 3491 
L 1355 1441 
Q 1357 1132 1520 952 
Q 1684 773 1959 773 
Q 2221 773 2424 954 
Q 2627 1136 2625 1486 
z
" transform="scale(0.015625)"/>
      <path id="Inter-Bold-6d" d="M 386 0 
L 386 3491 
L 1309 3491 
L 1309 2875 
L 1350 2875 
Q 1459 3184 1715 3360 
Q 1971 3536 2323 3536 
Q 2682 3536 2934 3358 
Q 3186 3180 3271 2875 
L 3307 2875 
Q 3414 3175 3694 3355 
Q 3975 3536 4359 3536 
Q 4848 3536 5153 3226 
Q 5459 2916 5459 2348 
L 5459 0 
L 4493 0 
L 4493 2157 
Q 4493 2448 4338 2593 
Q 4184 2739 3952 2739 
Q 3689 2739 3541 2570 
Q 3393 2402 3393 2132 
L 3393 0 
L 2455 0 
L 2455 2177 
Q 2455 2434 2308 2586 
Q 2161 2739 1923 2739 
Q 1682 2739 1518 2562 
Q 1355 2386 1355 2095 
L 1355 0 
L 386 0 
z
" transform="scale(0.015625)"/>
      <path id="Inter-Bold-6c" d="M 1355 4655 
L 1355 0 
L 386 0 
L 386 4655 
L 1355 4655 
z
" transform="scale(0.015625)"/>
      <path id="Inter-Bold-61" d="M 1382 -66 
Q 882 -66 552 195 
Q 223 457 223 975 
Q 223 1366 407 1588 
Q 591 1811 890 1914 
Q 1189 2018 1534 2050 
Q 1989 2095 2184 2145 
Q 2380 2195 2380 2364 
L 2380 2377 
Q 2380 2593 2244 2711 
Q 2109 2830 1861 2830 
Q 1600 2830 1445 2716 
Q 1291 2602 1241 2427 
L 346 2500 
Q 446 2977 842 3256 
Q 1239 3536 1866 3536 
Q 2255 3536 2593 3413 
Q 2932 3291 3140 3030 
Q 3348 2770 3348 2355 
L 3348 0 
L 2430 0 
L 2430 484 
L 2402 484 
Q 2275 241 2021 87 
Q 1768 -66 1382 -66 
z
M 1659 602 
Q 1977 602 2181 787 
Q 2386 973 2386 1248 
L 2386 1618 
Q 2330 1580 2210 1550 
Q 2091 1520 1956 1498 
Q 1821 1477 1714 1461 
Q 1459 1425 1303 1318 
Q 1148 1211 1148 1007 
Q 1148 807 1292 704 
Q 1436 602 1659 602 
z
" transform="scale(0.015625)"/>
      <path id="Inter-Bold-74" d="M 2243 3491 
L 2243 2764 
L 1586 2764 
L 1586 1073 
Q 1586 873 1677 802 
Q 1768 732 1914 732 
Q 1982 732 2050 744 
Q 2118 757 2155 764 
L 2307 43 
Q 2234 20 2102 -10 
Q 1971 -41 1782 -48 
Q 1255 -70 935 181 
Q 616 432 618 945 
L 618 2764 
L 141 2764 
L 141 3491 
L 618 3491 
L 618 4327 
L 1586 4327 
L 1586 3491 
L 2243 3491 
z
" transform="scale(0.015625)"/>
      <path id="Inter-Bold-69" d="M 386 0 
L 386 3491 
L 1355 3491 
L 1355 0 
L 386 0 
z
M 876 3941 
Q 662 3941 507 4085 
Q 353 4230 353 4432 
Q 353 4634 507 4777 
Q 662 4920 876 4920 
Q 1092 4920 1246 4777 
Q 1401 4634 1401 4432 
Q 1401 4230 1246 4085 
Q 1092 3941 876 3941 
z
" transform="scale(0.015625)"/>
      <path id="Inter-Bold-76" d="M 3641 3491 
L 2421 0 
L 1330 0 
L 109 3491 
L 1132 3491 
L 1857 993 
L 1893 993 
L 2616 3491 
L 3641 3491 
z
" transform="scale(0.015625)"/>
      <path id="Inter-Bold-65" d="M 1977 -68 
Q 1441 -68 1052 151 
Q 664 370 455 773 
Q 246 1177 246 1730 
Q 246 2268 455 2675 
Q 664 3082 1044 3309 
Q 1425 3536 1939 3536 
Q 2400 3536 2771 3340 
Q 3143 3145 3361 2751 
Q 3580 2357 3580 1764 
L 3580 1498 
L 1202 1498 
L 1202 1495 
Q 1202 1105 1416 880 
Q 1630 655 1993 655 
Q 2236 655 2413 757 
Q 2591 859 2664 1059 
L 3559 1000 
Q 3457 514 3041 223 
Q 2625 -68 1977 -68 
z
M 1202 2098 
L 2668 2098 
Q 2666 2409 2468 2611 
Q 2271 2814 1955 2814 
Q 1632 2814 1425 2604 
Q 1218 2395 1202 2098 
z
" transform="scale(0.015625)"/>
      <path id="Inter-Bold-20" transform="scale(0.015625)"/>
      <path id="Inter-Bold-4f" d="M 4682 2327 
Q 4682 1566 4394 1032 
Q 4107 498 3614 217 
Q 3121 -64 2502 -64 
Q 1882 -64 1389 218 
Q 896 500 609 1035 
Q 323 1570 323 2327 
Q 323 3089 609 3623 
Q 896 4157 1389 4437 
Q 1882 4718 2502 4718 
Q 3121 4718 3614 4437 
Q 4107 4157 4394 3623 
Q 4682 3089 4682 2327 
z
M 3684 2327 
Q 3684 3068 3361 3458 
Q 3039 3848 2502 3848 
Q 1966 3848 1643 3458 
Q 1321 3068 1321 2327 
Q 1321 1589 1643 1198 
Q 1966 807 2502 807 
Q 3039 807 3361 1198 
Q 3684 1589 3684 2327 
z
" transform="scale(0.015625)"/>
      <path id="Inter-Bold-56" d="M 1246 4655 
L 2371 1118 
L 2414 1118 
L 3541 4655 
L 4632 4655 
L 3027 0 
L 1759 0 
L 152 4655 
L 1246 4655 
z
" transform="scale(0.015625)"/>
      <path id="Inter-Bold-49" d="M 1389 4655 
L 1389 0 
L 405 0 
L 405 4655 
L 1389 4655 
z
" transform="scale(0.015625)"/>
      <path id="Inter-Bold-44" d="M 2055 0 
L 405 0 
L 405 4655 
L 2068 4655 
Q 2771 4655 3278 4376 
Q 3786 4098 4059 3577 
Q 4332 3057 4332 2332 
Q 4332 1605 4058 1082 
Q 3784 559 3274 279 
Q 2764 0 2055 0 
z
M 1389 843 
L 2014 843 
Q 2671 843 3010 1197 
Q 3350 1552 3350 2332 
Q 3350 3107 3010 3459 
Q 2671 3811 2016 3811 
L 1389 3811 
L 1389 843 
z
" transform="scale(0.015625)"/>
      <path id="Inter-Bold-2d" d="M 2561 2295 
L 2561 1527 
L 439 1527 
L 439 2295 
L 2561 2295 
z
" transform="scale(0.015625)"/>
      <path id="Inter-Bold-31" d="M 2305 4655 
L 2305 0 
L 1323 0 
L 1323 3450 
L 1280 3450 
Q 1205 3334 961 3219 
Q 718 3105 332 3105 
L 332 3886 
Q 632 3886 857 4019 
Q 1082 4152 1209 4333 
Q 1336 4514 1341 4655 
L 2305 4655 
z
" transform="scale(0.015625)"/>
      <path id="Inter-Bold-39" d="M 2061 4732 
Q 2421 4732 2753 4612 
Q 3086 4493 3348 4227 
Q 3611 3961 3766 3523 
Q 3921 3086 3921 2448 
Q 3921 1659 3686 1096 
Q 3452 534 3028 235 
Q 2605 -64 2027 -64 
Q 1561 -64 1204 117 
Q 848 298 631 610 
Q 414 923 368 1314 
L 1339 1314 
Q 1396 1059 1577 919 
Q 1759 780 2027 780 
Q 2482 780 2718 1176 
Q 2955 1573 2957 2264 
L 2925 2264 
Q 2771 1957 2453 1782 
Q 2136 1607 1752 1607 
Q 1341 1607 1016 1801 
Q 691 1995 506 2334 
Q 321 2673 323 3109 
Q 321 3582 539 3949 
Q 757 4316 1149 4525 
Q 1541 4734 2061 4732 
z
M 2068 3959 
Q 1725 3959 1500 3722 
Q 1275 3486 1277 3136 
Q 1275 2791 1496 2555 
Q 1718 2320 2059 2320 
Q 2284 2320 2465 2431 
Q 2646 2543 2751 2729 
Q 2857 2916 2859 3141 
Q 2857 3366 2753 3551 
Q 2650 3736 2473 3847 
Q 2296 3959 2068 3959 
z
" transform="scale(0.015625)"/>
      <path id="Inter-Bold-63" d="M 1964 -68 
Q 1427 -68 1042 160 
Q 657 389 451 795 
Q 246 1202 246 1732 
Q 246 2268 453 2674 
Q 661 3080 1045 3308 
Q 1430 3536 1959 3536 
Q 2416 3536 2760 3370 
Q 3105 3205 3303 2905 
Q 3502 2605 3523 2200 
L 2609 2200 
Q 2571 2461 2406 2621 
Q 2241 2782 1975 2782 
Q 1639 2782 1434 2511 
Q 1230 2241 1230 1745 
Q 1230 1245 1433 971 
Q 1636 698 1975 698 
Q 2225 698 2395 849 
Q 2566 1000 2609 1280 
L 3523 1280 
Q 3500 880 3305 575 
Q 3111 270 2770 101 
Q 2430 -68 1964 -68 
z
" transform="scale(0.015625)"/>
      <path id="Inter-Bold-73" d="M 3291 2495 
L 2405 2441 
Q 2368 2609 2220 2729 
Q 2073 2850 1821 2850 
Q 1596 2850 1440 2755 
Q 1284 2661 1286 2505 
Q 1284 2380 1385 2293 
Q 1486 2207 1730 2155 
L 2361 2027 
Q 3368 1820 3371 1082 
Q 3371 739 3169 479 
Q 2968 220 2618 76 
Q 2268 -68 1816 -68 
Q 1123 -68 711 221 
Q 300 511 232 1011 
L 1184 1061 
Q 1230 848 1394 739 
Q 1559 630 1818 630 
Q 2073 630 2228 730 
Q 2384 830 2386 984 
Q 2380 1243 1939 1332 
L 1334 1452 
Q 321 1655 325 2450 
Q 323 2955 728 3245 
Q 1134 3536 1805 3536 
Q 2466 3536 2846 3256 
Q 3227 2977 3291 2495 
z
" transform="scale(0.015625)"/>
      <path id="Inter-Bold-70" d="M 386 -1309 
L 386 3491 
L 1341 3491 
L 1341 2905 
L 1384 2905 
Q 1450 3048 1570 3193 
Q 1691 3339 1888 3437 
Q 2086 3536 2377 3536 
Q 2761 3536 3081 3337 
Q 3402 3139 3596 2740 
Q 3791 2341 3791 1741 
Q 3791 1157 3602 756 
Q 3414 355 3093 149 
Q 2773 -57 2375 -57 
Q 2093 -57 1896 36 
Q 1700 130 1576 272 
Q 1452 414 1384 559 
L 1355 559 
L 1355 -1309 
L 386 -1309 
z
M 1334 1745 
Q 1334 1280 1526 997 
Q 1718 714 2068 714 
Q 2425 714 2613 1001 
Q 2802 1289 2802 1745 
Q 2802 2200 2614 2483 
Q 2427 2766 2068 2766 
Q 1716 2766 1525 2490 
Q 1334 2214 1334 1745 
z
" transform="scale(0.015625)"/>
      <path id="Inter-Bold-72" d="M 386 0 
L 386 3491 
L 1325 3491 
L 1325 2882 
L 1361 2882 
Q 1457 3207 1681 3374 
Q 1905 3541 2200 3541 
Q 2341 3541 2461 3507 
Q 2582 3473 2677 3414 
L 2386 2614 
Q 2318 2648 2237 2671 
Q 2157 2695 2057 2695 
Q 1764 2695 1560 2495 
Q 1357 2295 1355 1975 
L 1355 0 
L 386 0 
z
" transform="scale(0.015625)"/>
      <path id="Inter-Bold-64" d="M 1673 -57 
Q 1275 -57 954 149 
Q 634 355 445 756 
Q 257 1157 257 1741 
Q 257 2341 451 2740 
Q 646 3139 967 3337 
Q 1289 3536 1671 3536 
Q 1964 3536 2160 3437 
Q 2357 3339 2478 3193 
Q 2600 3048 2664 2905 
L 2693 2905 
L 2693 4655 
L 3659 4655 
L 3659 0 
L 2705 0 
L 2705 559 
L 2664 559 
Q 2598 414 2473 272 
Q 2348 130 2151 36 
Q 1955 -57 1673 -57 
z
M 1980 714 
Q 2330 714 2522 997 
Q 2714 1280 2714 1745 
Q 2714 2214 2523 2490 
Q 2332 2766 1980 2766 
Q 1621 2766 1433 2483 
Q 1246 2200 1246 1745 
Q 1246 1289 1434 1001 
Q 1623 714 1980 714 
z
" transform="scale(0.015625)"/>
      <path id="Inter-Bold-6f" d="M 1964 -68 
Q 1434 -68 1049 158 
Q 664 384 455 789 
Q 246 1195 246 1732 
Q 246 2273 455 2678 
Q 664 3084 1049 3310 
Q 1434 3536 1964 3536 
Q 2493 3536 2878 3310 
Q 3264 3084 3473 2678 
Q 3682 2273 3682 1732 
Q 3682 1195 3473 789 
Q 3264 384 2878 158 
Q 2493 -68 1964 -68 
z
M 1968 682 
Q 2327 682 2512 982 
Q 2698 1282 2698 1739 
Q 2698 2195 2512 2496 
Q 2327 2798 1968 2798 
Q 1602 2798 1416 2496 
Q 1230 2195 1230 1739 
Q 1230 1282 1416 982 
Q 1602 682 1968 682 
z
" transform="scale(0.015625)"/>
      <path id="Inter-Bold-67" d="M 1959 -1359 
Q 1255 -1359 852 -1082 
Q 450 -805 364 -409 
L 1259 -289 
Q 1318 -430 1489 -547 
Q 1661 -664 1982 -664 
Q 2298 -664 2503 -514 
Q 2709 -364 2709 -20 
L 2709 618 
L 2668 618 
Q 2573 402 2332 226 
Q 2091 50 1673 50 
Q 1280 50 958 234 
Q 636 418 446 795 
Q 257 1173 257 1752 
Q 257 2348 451 2743 
Q 646 3139 967 3337 
Q 1289 3536 1671 3536 
Q 1964 3536 2161 3437 
Q 2359 3339 2482 3193 
Q 2605 3048 2668 2905 
L 2705 2905 
L 2705 3491 
L 3666 3491 
L 3666 -34 
Q 3666 -468 3446 -763 
Q 3227 -1059 2843 -1209 
Q 2459 -1359 1959 -1359 
z
M 1980 777 
Q 2330 777 2522 1036 
Q 2714 1295 2714 1757 
Q 2714 2216 2523 2491 
Q 2332 2766 1980 2766 
Q 1621 2766 1433 2484 
Q 1246 2202 1246 1757 
Q 1246 1305 1434 1041 
Q 1623 777 1980 777 
z
" transform="scale(0.015625)"/>
      <path id="Inter-Bold-68" d="M 1355 2018 
L 1355 0 
L 386 0 
L 386 4655 
L 1327 4655 
L 1327 2875 
L 1368 2875 
Q 1489 3184 1751 3360 
Q 2014 3536 2411 3536 
Q 2957 3536 3289 3186 
Q 3621 2836 3618 2223 
L 3618 0 
L 2650 0 
L 2650 2050 
Q 2652 2373 2487 2552 
Q 2323 2732 2027 2732 
Q 1732 2732 1544 2544 
Q 1357 2357 1355 2018 
z
" transform="scale(0.015625)"/>
      <path id="Inter-Bold-6e" d="M 1355 2018 
L 1355 0 
L 386 0 
L 386 3491 
L 1309 3491 
L 1309 2875 
L 1350 2875 
Q 1468 3180 1739 3358 
Q 2011 3536 2400 3536 
Q 2946 3536 3275 3185 
Q 3605 2834 3605 2223 
L 3605 0 
L 2636 0 
L 2636 2050 
Q 2639 2370 2473 2551 
Q 2307 2732 2016 2732 
Q 1723 2732 1540 2544 
Q 1357 2357 1355 2018 
z
" transform="scale(0.015625)"/>
      <path id="Inter-Bold-45" d="M 405 0 
L 405 4655 
L 3541 4655 
L 3541 3843 
L 1389 3843 
L 1389 2734 
L 3380 2734 
L 3380 1923 
L 1389 1923 
L 1389 811 
L 3550 811 
L 3550 0 
L 405 0 
z
" transform="scale(0.015625)"/>
     </defs>
     <use xlink:href="#Inter-Bold-43"/>
     <use xlink:href="#Inter-Bold-75" x="75.213089"/>
     <use xlink:href="#Inter-Bold-6d" x="137.393494"/>
     <use xlink:href="#Inter-Bold-75" x="228.5867"/>
     <use xlink:href="#Inter-Bold-6c" x="290.767105"/>
     <use xlink:href="#Inter-Bold-61" x="317.968811"/>
     <use xlink:href="#Inter-Bold-74" x="375.994385"/>
     <use xlink:href="#Inter-Bold-69" x="414.843826"/>
     <use xlink:href="#Inter-Bold-76" x="442.045532"/>
     <use xlink:href="#Inter-Bold-65" x="500.639297"/>
     <use xlink:href="#Inter-Bold-20" x="560.404938"/>
     <use xlink:href="#Inter-Bold-43" x="583.593857"/>
     <use xlink:href="#Inter-Bold-4f" x="658.806946"/>
     <use xlink:href="#Inter-Bold-56" x="737.002991"/>
     <use xlink:href="#Inter-Bold-49" x="811.789932"/>
     <use xlink:href="#Inter-Bold-44" x="839.843918"/>
     <use xlink:href="#Inter-Bold-2d" x="912.571213"/>
     <use xlink:href="#Inter-Bold-31" x="959.446228"/>
     <use xlink:href="#Inter-Bold-39" x="1006.853912"/>
     <use xlink:href="#Inter-Bold-20" x="1072.869553"/>
     <use xlink:href="#Inter-Bold-63" x="1096.058472"/>
     <use xlink:href="#Inter-Bold-61" x="1154.794281"/>
     <use xlink:href="#Inter-Bold-73" x="1212.819855"/>
     <use xlink:href="#Inter-Bold-65" x="1268.99884"/>
     <use xlink:href="#Inter-Bold-73" x="1328.764481"/>
     <use xlink:href="#Inter-Bold-20" x="1384.943466"/>
     <use xlink:href="#Inter-Bold-70" x="1408.132385"/>
     <use xlink:href="#Inter-Bold-65" x="1471.378143"/>
     <use xlink:href="#Inter-Bold-72" x="1531.143784"/>
     <use xlink:href="#Inter-Bold-20" x="1574.006012"/>
     <use xlink:href="#Inter-Bold-64" x="1597.194931"/>
     <use xlink:href="#Inter-Bold-65" x="1660.724777"/>
     <use xlink:href="#Inter-Bold-6d" x="1720.490417"/>
     <use xlink:href="#Inter-Bold-6f" x="1811.683624"/>
     <use xlink:href="#Inter-Bold-67" x="1873.047272"/>
     <use xlink:href="#Inter-Bold-72" x="1936.364044"/>
     <use xlink:href="#Inter-Bold-61" x="1979.226273"/>
     <use xlink:href="#Inter-Bold-70" x="2037.251846"/>
     <use xlink:href="#Inter-Bold-68" x="2100.497604"/>
     <use xlink:href="#Inter-Bold-69" x="2162.92659"/>
     <use xlink:href="#Inter-Bold-63" x="2190.128296"/>
     <use xlink:href="#Inter-Bold-20" x="2248.864105"/>
     <use xlink:href="#Inter-Bold-69" x="2272.053024"/>
     <use xlink:href="#Inter-Bold-6e" x="2299.25473"/>
     <use xlink:href="#Inter-Bold-20" x="2361.435135"/>
     <use xlink:href="#Inter-Bold-45" x="2384.624054"/>
     <use xlink:href="#Inter-Bold-6e" x="2445.881165"/>
     <use xlink:href="#Inter-Bold-67" x="2508.061569"/>
     <use xlink:href="#Inter-Bold-6c" x="2571.378342"/>
     <use xlink:href="#Inter-Bold-61" x="2598.580048"/>
     <use xlink:href="#Inter-Bold-6e" x="2656.605621"/>
     <use xlink:href="#Inter-Bold-64" x="2718.786026"/>
    </g>
   </g>
   <g id="legend_1">
    <g id="patch_7">
     <path d="M 592.935938 213.276562 
L 741.842188 213.276562 
Q 743.842188 213.276562 743.842188 211.276562 
L 743.842188 40.225 
Q 743.842188 38.225 741.842188 38.225 
L 592.935938 38.225 
Q 590.935938 38.225 590.935938 40.225 
L 590.935938 211.276562 
Q 590.935938 213.276562 592.935938 213.276562 
z
" style="fill: #ffffff; opacity: 0.8; stroke: #cccccc; stroke-linejoin: miter"/>
    </g>
    <g id="line2d_47">
     <path d="M 594.935938 46.225 
L 614.935938 46.225 
" style="fill: none; stroke-dasharray: 5.55,2.4; stroke-dashoffset: 0; stroke: #333333; stroke-width: 1.5"/>
    </g>
    <g id="text_21">
     <!-- WHO declares pandemic -->
     <g transform="translate(622.935938 49.725)scale(0.1 -0.1)">
      <defs>
       <path id="Inter-Regular-57" d="M 1409 0 
L 136 4655 
L 709 4655 
L 1682 864 
L 1727 864 
L 2718 4655 
L 3355 4655 
L 4346 864 
L 4391 864 
L 5364 4655 
L 5936 4655 
L 4664 0 
L 4082 0 
L 3055 3709 
L 3018 3709 
L 1991 0 
L 1409 0 
z
" transform="scale(0.015625)"/>
       <path id="Inter-Regular-48" d="M 564 0 
L 564 4655 
L 1127 4655 
L 1127 2582 
L 3609 2582 
L 3609 4655 
L 4173 4655 
L 4173 0 
L 3609 0 
L 3609 2082 
L 1127 2082 
L 1127 0 
L 564 0 
z
" transform="scale(0.015625)"/>
       <path id="Inter-Regular-6d" d="M 491 0 
L 491 3491 
L 1009 3491 
L 1009 2945 
L 1055 2945 
Q 1164 3225 1407 3380 
Q 1650 3536 1991 3536 
Q 2336 3536 2567 3380 
Q 2798 3225 2927 2945 
L 2964 2945 
Q 3098 3216 3366 3376 
Q 3634 3536 4009 3536 
Q 4477 3536 4775 3244 
Q 5073 2952 5073 2336 
L 5073 0 
L 4536 0 
L 4536 2336 
Q 4536 2723 4325 2889 
Q 4114 3055 3827 3055 
Q 3459 3055 3257 2833 
Q 3055 2611 3055 2273 
L 3055 0 
L 2509 0 
L 2509 2391 
Q 2509 2689 2316 2872 
Q 2123 3055 1818 3055 
Q 1609 3055 1428 2943 
Q 1248 2832 1137 2635 
Q 1027 2439 1027 2182 
L 1027 0 
L 491 0 
z
" transform="scale(0.015625)"/>
       <path id="Inter-Regular-69" d="M 491 0 
L 491 3491 
L 1027 3491 
L 1027 0 
L 491 0 
z
M 764 4073 
Q 607 4073 494 4179 
Q 382 4286 382 4436 
Q 382 4586 494 4693 
Q 607 4800 764 4800 
Q 921 4800 1033 4693 
Q 1146 4586 1146 4436 
Q 1146 4286 1033 4179 
Q 921 4073 764 4073 
z
" transform="scale(0.015625)"/>
      </defs>
      <use xlink:href="#Inter-Regular-57"/>
      <use xlink:href="#Inter-Regular-48" x="94.886383"/>
      <use xlink:href="#Inter-Regular-4f" x="168.892075"/>
      <use xlink:href="#Inter-Regular-20" x="245.028458"/>
      <use xlink:href="#Inter-Regular-64" x="273.153458"/>
      <use xlink:href="#Inter-Regular-65" x="335.227341"/>
      <use xlink:href="#Inter-Regular-63" x="393.465988"/>
      <use xlink:href="#Inter-Regular-6c" x="449.289856"/>
      <use xlink:href="#Inter-Regular-61" x="473.011444"/>
      <use xlink:href="#Inter-Regular-72" x="529.403503"/>
      <use xlink:href="#Inter-Regular-65" x="567.755783"/>
      <use xlink:href="#Inter-Regular-73" x="625.994431"/>
      <use xlink:href="#Inter-Regular-20" x="678.267166"/>
      <use xlink:href="#Inter-Regular-70" x="706.392166"/>
      <use xlink:href="#Inter-Regular-61" x="767.329681"/>
      <use xlink:href="#Inter-Regular-6e" x="823.721741"/>
      <use xlink:href="#Inter-Regular-64" x="882.244476"/>
      <use xlink:href="#Inter-Regular-65" x="944.318359"/>
      <use xlink:href="#Inter-Regular-6d" x="1002.557007"/>
      <use xlink:href="#Inter-Regular-69" x="1089.488846"/>
      <use xlink:href="#Inter-Regular-63" x="1113.210434"/>
     </g>
    </g>
    <g id="patch_8">
     <path d="M 594.935938 64.04375 
L 614.935938 64.04375 
L 614.935938 57.04375 
L 594.935938 57.04375 
z
" style="fill: #777777; opacity: 0.15; stroke: #777777; stroke-linejoin: miter"/>
    </g>
    <g id="text_22">
     <!-- Lockdown -->
     <g transform="translate(622.935938 64.04375)scale(0.1 -0.1)">
      <defs>
       <path id="Inter-Regular-4c" d="M 564 0 
L 564 4655 
L 1127 4655 
L 1127 500 
L 3291 500 
L 3291 0 
L 564 0 
z
" transform="scale(0.015625)"/>
       <path id="Inter-Regular-6b" d="M 491 0 
L 491 4655 
L 1027 4655 
L 1027 1936 
L 1091 1936 
L 2618 3491 
L 3282 3491 
L 1807 2000 
L 3391 0 
L 2709 0 
L 1402 1655 
L 1027 1307 
L 1027 0 
L 491 0 
z
" transform="scale(0.015625)"/>
       <path id="Inter-Regular-77" d="M 1282 0 
L 218 3491 
L 782 3491 
L 1536 818 
L 1573 818 
L 2318 3491 
L 2891 3491 
L 3627 827 
L 3664 827 
L 4418 3491 
L 4982 3491 
L 3918 0 
L 3391 0 
L 2627 2682 
L 2573 2682 
L 1809 0 
L 1282 0 
z
" transform="scale(0.015625)"/>
      </defs>
      <use xlink:href="#Inter-Regular-4c"/>
      <use xlink:href="#Inter-Regular-6f" x="56.250015"/>
      <use xlink:href="#Inter-Regular-63" x="115.909119"/>
      <use xlink:href="#Inter-Regular-6b" x="171.732986"/>
      <use xlink:href="#Inter-Regular-64" x="226.136398"/>
      <use xlink:href="#Inter-Regular-6f" x="288.210281"/>
      <use xlink:href="#Inter-Regular-77" x="347.869385"/>
      <use xlink:href="#Inter-Regular-6e" x="429.1194"/>
     </g>
    </g>
    <g id="line2d_48">
     <path d="M 594.935938 74.8625 
L 604.935938 74.8625 
L 614.935938 74.8625 
" style="fill: none; stroke: #17becf; stroke-width: 1.5; stroke-linecap: square"/>
    </g>
    <g id="text_23">
     <!-- 90+ -->
     <g transform="translate(622.935938 78.3625)scale(0.1 -0.1)">
      <defs>
       <path id="Inter-Regular-2b" d="M 1800 373 
L 1800 1573 
L 600 1573 
L 600 2082 
L 1800 2082 
L 1800 3282 
L 2309 3282 
L 2309 2082 
L 3509 2082 
L 3509 1573 
L 2309 1573 
L 2309 373 
L 1800 373 
z
" transform="scale(0.015625)"/>
      </defs>
      <use xlink:href="#Inter-Regular-39"/>
      <use xlink:href="#Inter-Regular-30" x="62.357971"/>
      <use xlink:href="#Inter-Regular-2b" x="124.857986"/>
     </g>
    </g>
    <g id="line2d_49">
     <path d="M 594.935938 89.18125 
L 604.935938 89.18125 
L 614.935938 89.18125 
" style="fill: none; stroke: #bcbd22; stroke-width: 1.5; stroke-linecap: square"/>
    </g>
    <g id="text_24">
     <!-- 80-89 -->
     <g transform="translate(622.935938 92.68125)scale(0.1 -0.1)">
      <defs>
       <path id="Inter-Regular-38" d="M 1973 -64 
Q 1505 -64 1147 103 
Q 789 270 589 564 
Q 389 859 391 1236 
Q 389 1532 507 1783 
Q 625 2034 830 2203 
Q 1036 2373 1291 2418 
L 1291 2445 
Q 957 2532 759 2821 
Q 561 3111 564 3482 
Q 561 3836 743 4115 
Q 925 4395 1244 4556 
Q 1564 4718 1973 4718 
Q 2377 4718 2695 4556 
Q 3014 4395 3197 4115 
Q 3380 3836 3382 3482 
Q 3380 3111 3181 2821 
Q 2982 2532 2655 2445 
L 2655 2418 
Q 2907 2373 3109 2203 
Q 3311 2034 3431 1783 
Q 3552 1532 3555 1236 
Q 3552 859 3351 564 
Q 3150 270 2794 103 
Q 2439 -64 1973 -64 
z
M 1973 436 
Q 2446 436 2722 662 
Q 2998 889 3000 1264 
Q 2998 1527 2864 1729 
Q 2730 1932 2499 2048 
Q 2268 2164 1973 2164 
Q 1675 2164 1442 2048 
Q 1209 1932 1076 1729 
Q 943 1527 946 1264 
Q 943 889 1218 662 
Q 1493 436 1973 436 
z
M 1973 2645 
Q 2348 2645 2591 2864 
Q 2834 3084 2836 3445 
Q 2834 3800 2596 4013 
Q 2359 4227 1973 4227 
Q 1582 4227 1344 4013 
Q 1107 3800 1109 3445 
Q 1107 3084 1349 2864 
Q 1591 2645 1973 2645 
z
" transform="scale(0.015625)"/>
      </defs>
      <use xlink:href="#Inter-Regular-38"/>
      <use xlink:href="#Inter-Regular-30" x="61.647736"/>
      <use xlink:href="#Inter-Regular-2d" x="124.147751"/>
      <use xlink:href="#Inter-Regular-38" x="170.170486"/>
      <use xlink:href="#Inter-Regular-39" x="231.818222"/>
     </g>
    </g>
    <g id="line2d_50">
     <path d="M 594.935938 103.5 
L 604.935938 103.5 
L 614.935938 103.5 
" style="fill: none; stroke: #7f7f7f; stroke-width: 1.5; stroke-linecap: square"/>
    </g>
    <g id="text_25">
     <!-- 70-79 -->
     <g transform="translate(622.935938 107)scale(0.1 -0.1)">
      <defs>
       <path id="Inter-Regular-37" d="M 627 0 
L 2709 4118 
L 2709 4155 
L 309 4155 
L 309 4655 
L 3291 4655 
L 3291 4127 
L 1218 0 
L 627 0 
z
" transform="scale(0.015625)"/>
      </defs>
      <use xlink:href="#Inter-Regular-37"/>
      <use xlink:href="#Inter-Regular-30" x="57.10228"/>
      <use xlink:href="#Inter-Regular-2d" x="119.602295"/>
      <use xlink:href="#Inter-Regular-37" x="165.625031"/>
      <use xlink:href="#Inter-Regular-39" x="222.72731"/>
     </g>
    </g>
    <g id="line2d_51">
     <path d="M 594.935938 117.81875 
L 604.935938 117.81875 
L 614.935938 117.81875 
" style="fill: none; stroke: #e377c2; stroke-width: 1.5; stroke-linecap: square"/>
    </g>
    <g id="text_26">
     <!-- 60-69 -->
     <g transform="translate(622.935938 121.31875)scale(0.1 -0.1)">
      <defs>
       <path id="Inter-Regular-36" d="M 2027 -64 
Q 1741 -59 1454 45 
Q 1168 150 932 399 
Q 696 648 552 1074 
Q 409 1500 409 2145 
Q 409 3386 861 4056 
Q 1314 4727 2100 4727 
Q 2686 4727 3073 4384 
Q 3461 4041 3546 3491 
L 2991 3491 
Q 2914 3811 2691 4019 
Q 2468 4227 2100 4227 
Q 1559 4227 1249 3755 
Q 939 3284 936 2427 
L 973 2427 
Q 1164 2716 1461 2880 
Q 1759 3045 2118 3045 
Q 2518 3045 2850 2846 
Q 3182 2648 3382 2299 
Q 3582 1950 3582 1500 
Q 3582 1068 3389 710 
Q 3196 352 2847 142 
Q 2498 -68 2027 -64 
z
M 2027 436 
Q 2314 436 2542 579 
Q 2771 723 2903 964 
Q 3036 1205 3036 1500 
Q 3036 1789 2908 2026 
Q 2780 2264 2556 2404 
Q 2332 2545 2046 2545 
Q 1757 2545 1525 2397 
Q 1293 2250 1157 2010 
Q 1021 1770 1018 1491 
Q 1018 1214 1149 973 
Q 1280 732 1508 584 
Q 1736 436 2027 436 
z
" transform="scale(0.015625)"/>
      </defs>
      <use xlink:href="#Inter-Regular-36"/>
      <use xlink:href="#Inter-Regular-30" x="62.357971"/>
      <use xlink:href="#Inter-Regular-2d" x="124.857986"/>
      <use xlink:href="#Inter-Regular-36" x="170.880722"/>
      <use xlink:href="#Inter-Regular-39" x="233.238693"/>
     </g>
    </g>
    <g id="line2d_52">
     <path d="M 594.935938 132.1375 
L 604.935938 132.1375 
L 614.935938 132.1375 
" style="fill: none; stroke: #8c564b; stroke-width: 1.5; stroke-linecap: square"/>
    </g>
    <g id="text_27">
     <!-- 50-59 -->
     <g transform="translate(622.935938 135.6375)scale(0.1 -0.1)">
      <defs>
       <path id="Inter-Regular-35" d="M 1936 -64 
Q 1536 -64 1216 95 
Q 896 255 702 532 
Q 509 809 491 1164 
L 1036 1164 
Q 1068 848 1324 642 
Q 1580 436 1936 436 
Q 2223 436 2447 570 
Q 2671 705 2799 940 
Q 2927 1175 2927 1473 
Q 2927 1777 2794 2017 
Q 2661 2257 2429 2395 
Q 2198 2534 1900 2536 
Q 1686 2539 1461 2472 
Q 1236 2405 1091 2300 
L 564 2364 
L 846 4655 
L 3264 4655 
L 3264 4155 
L 1318 4155 
L 1155 2782 
L 1182 2782 
Q 1325 2895 1541 2970 
Q 1757 3045 1991 3045 
Q 2418 3045 2753 2842 
Q 3089 2639 3281 2286 
Q 3473 1934 3473 1482 
Q 3473 1036 3274 687 
Q 3075 339 2727 137 
Q 2380 -64 1936 -64 
z
" transform="scale(0.015625)"/>
      </defs>
      <use xlink:href="#Inter-Regular-35"/>
      <use xlink:href="#Inter-Regular-30" x="60.795471"/>
      <use xlink:href="#Inter-Regular-2d" x="123.295486"/>
      <use xlink:href="#Inter-Regular-35" x="169.318222"/>
      <use xlink:href="#Inter-Regular-39" x="230.113693"/>
     </g>
    </g>
    <g id="line2d_53">
     <path d="M 594.935938 146.45625 
L 604.935938 146.45625 
L 614.935938 146.45625 
" style="fill: none; stroke: #9467bd; stroke-width: 1.5; stroke-linecap: square"/>
    </g>
    <g id="text_28">
     <!-- 40-49 -->
     <g transform="translate(622.935938 149.95625)scale(0.1 -0.1)">
      <use xlink:href="#Inter-Regular-34"/>
      <use xlink:href="#Inter-Regular-30" x="64.204559"/>
      <use xlink:href="#Inter-Regular-2d" x="126.704575"/>
      <use xlink:href="#Inter-Regular-34" x="172.72731"/>
      <use xlink:href="#Inter-Regular-39" x="236.93187"/>
     </g>
    </g>
    <g id="line2d_54">
     <path d="M 594.935938 160.775 
L 604.935938 160.775 
L 614.935938 160.775 
" style="fill: none; stroke: #d62728; stroke-width: 1.5; stroke-linecap: square"/>
    </g>
    <g id="text_29">
     <!-- 30-39 -->
     <g transform="translate(622.935938 164.275)scale(0.1 -0.1)">
      <use xlink:href="#Inter-Regular-33"/>
      <use xlink:href="#Inter-Regular-30" x="63.636383"/>
      <use xlink:href="#Inter-Regular-2d" x="126.136398"/>
      <use xlink:href="#Inter-Regular-33" x="172.159134"/>
      <use xlink:href="#Inter-Regular-39" x="235.795517"/>
     </g>
    </g>
    <g id="line2d_55">
     <path d="M 594.935938 175.09375 
L 604.935938 175.09375 
L 614.935938 175.09375 
" style="fill: none; stroke: #2ca02c; stroke-width: 1.5; stroke-linecap: square"/>
    </g>
    <g id="text_30">
     <!-- 20-29 -->
     <g transform="translate(622.935938 178.59375)scale(0.1 -0.1)">
      <use xlink:href="#Inter-Regular-32"/>
      <use xlink:href="#Inter-Regular-30" x="60.511383"/>
      <use xlink:href="#Inter-Regular-2d" x="123.011398"/>
      <use xlink:href="#Inter-Regular-32" x="169.034134"/>
      <use xlink:href="#Inter-Regular-39" x="229.545517"/>
     </g>
    </g>
    <g id="line2d_56">
     <path d="M 594.935938 189.4125 
L 604.935938 189.4125 
L 614.935938 189.4125 
" style="fill: none; stroke: #ff7f0e; stroke-width: 1.5; stroke-linecap: square"/>
    </g>
    <g id="text_31">
     <!-- 10-19 -->
     <g transform="translate(622.935938 192.9125)scale(0.1 -0.1)">
      <use xlink:href="#Inter-Regular-31"/>
      <use xlink:href="#Inter-Regular-30" x="44.176147"/>
      <use xlink:href="#Inter-Regular-2d" x="106.676163"/>
      <use xlink:href="#Inter-Regular-31" x="152.698898"/>
      <use xlink:href="#Inter-Regular-39" x="196.875046"/>
     </g>
    </g>
    <g id="line2d_57">
     <path d="M 594.935938 203.73125 
L 604.935938 203.73125 
L 614.935938 203.73125 
" style="fill: none; stroke: #1f77b4; stroke-width: 1.5; stroke-linecap: square"/>
    </g>
    <g id="text_32">
     <!-- 00-09 -->
     <g transform="translate(622.935938 207.23125)scale(0.1 -0.1)">
      <use xlink:href="#Inter-Regular-30"/>
      <use xlink:href="#Inter-Regular-30" x="62.500015"/>
      <use xlink:href="#Inter-Regular-2d" x="125.000031"/>
      <use xlink:href="#Inter-Regular-30" x="171.022766"/>
      <use xlink:href="#Inter-Regular-39" x="233.522781"/>
     </g>
    </g>
   </g>
  </g>
 </g>
 <defs>
  <clipPath id="p355f452aa0">
   <rect x="79.242188" y="33.225" width="669.6" height="443.52"/>
  </clipPath>
 </defs>
</svg>
