<?xml version="1.0" encoding="utf-8" standalone="no"?>
<!DOCTYPE svg PUBLIC "-//W3C//DTD SVG 1.1//EN"
  "http://www.w3.org/Graphics/SVG/1.1/DTD/svg11.dtd">
<svg version="1.1" viewBox="0 0 749.86875 535.806875" xmlns="http://www.w3.org/2000/svg" xmlns:xlink="http://www.w3.org/1999/xlink">
 <metadata>
  <rdf:RDF xmlns:cc="http://creativecommons.org/ns#" xmlns:dc="http://purl.org/dc/elements/1.1/" xmlns:rdf="http://www.w3.org/1999/02/22-rdf-syntax-ns#">
   <cc:Work>
    <dc:type rdf:resource="http://purl.org/dc/dcmitype/StillImage"/>
    <dc:date>2021-08-21T16:17:58.078922</dc:date>
    <dc:format>image/svg+xml</dc:format>
    <dc:creator>
     <cc:Agent>
      <dc:title>Matplotlib v3.4.3, https://matplotlib.org/</dc:title>
     </cc:Agent>
    </dc:creator>
   </cc:Work>
  </rdf:RDF>
 </metadata>
 <defs>
  <style type="text/css">*{stroke-linecap:butt;stroke-linejoin:round;}</style>
 </defs>
 <g id="figure_1">
  <g id="patch_1">
   <path d="M 0 535.806875 
L 749.86875 535.806875 
L 749.86875 0 
L 0 0 
z
" style="fill:#ffffff;"/>
  </g>
  <g id="axes_1">
   <g id="patch_2">
    <path d="M 62.26875 476.745 
L 731.86875 476.745 
L 731.86875 33.225 
L 62.26875 33.225 
z
" style="fill:#ffffff;"/>
   </g>
   <g id="matplotlib.axis_1">
    <g id="xtick_1">
     <g id="line2d_1">
      <defs>
       <path d="M 0 0 
L 0 3.5 
" id="m3c79b0d67b" style="stroke:#000000;stroke-width:0.8;"/>
      </defs>
      <g>
       <use style="stroke:#000000;stroke-width:0.8;" x="62.26875" xlink:href="#m3c79b0d67b" y="476.745"/>
      </g>
     </g>
     <g id="text_1">
      <!-- 01 Mar -->
      <g transform="translate(46.232031 491.018438)scale(0.1 -0.1)">
       <defs>
        <path d="M 2000 -64 
Q 1230 -64 806 561 
Q 382 1186 382 2327 
Q 382 3459 809 4088 
Q 1236 4718 2000 4718 
Q 2764 4718 3191 4088 
Q 3618 3459 3618 2327 
Q 3618 1186 3194 561 
Q 2771 -64 2000 -64 
z
M 2000 436 
Q 2509 436 2791 927 
Q 3073 1418 3073 2327 
Q 3073 3234 2789 3730 
Q 2505 4227 2000 4227 
Q 1496 4227 1211 3730 
Q 927 3234 927 2327 
Q 927 1418 1210 927 
Q 1493 436 2000 436 
z
" id="Inter-Regular-30" transform="scale(0.015625)"/>
        <path d="M 1973 4655 
L 1973 0 
L 1409 0 
L 1409 3836 
L 1373 3836 
Q 1341 3773 1209 3692 
Q 1077 3611 868 3551 
Q 659 3491 391 3491 
L 391 3964 
Q 661 3964 859 4061 
Q 1057 4159 1190 4291 
Q 1323 4423 1392 4529 
Q 1461 4636 1473 4655 
L 1973 4655 
z
" id="Inter-Regular-31" transform="scale(0.015625)"/>
        <path id="Inter-Regular-20" transform="scale(0.015625)"/>
        <path d="M 564 4655 
L 1236 4655 
L 2818 791 
L 2873 791 
L 4455 4655 
L 5127 4655 
L 5127 0 
L 4600 0 
L 4600 3536 
L 4555 3536 
L 3100 0 
L 2591 0 
L 1136 3536 
L 1091 3536 
L 1091 0 
L 564 0 
L 564 4655 
z
" id="Inter-Regular-4d" transform="scale(0.015625)"/>
        <path d="M 1518 -82 
Q 1186 -82 916 44 
Q 646 170 486 410 
Q 327 650 327 991 
Q 327 1291 445 1478 
Q 564 1666 761 1773 
Q 959 1880 1199 1933 
Q 1439 1986 1682 2018 
Q 2000 2059 2199 2080 
Q 2398 2102 2490 2154 
Q 2582 2207 2582 2336 
L 2582 2355 
Q 2582 2691 2399 2877 
Q 2216 3064 1846 3064 
Q 1461 3064 1243 2895 
Q 1025 2727 936 2536 
L 427 2718 
Q 564 3036 792 3214 
Q 1021 3393 1292 3464 
Q 1564 3536 1827 3536 
Q 1996 3536 2215 3496 
Q 2434 3457 2640 3334 
Q 2846 3211 2982 2963 
Q 3118 2716 3118 2300 
L 3118 0 
L 2582 0 
L 2582 473 
L 2555 473 
Q 2500 359 2373 229 
Q 2246 100 2034 9 
Q 1823 -82 1518 -82 
z
M 1600 400 
Q 1918 400 2137 525 
Q 2357 650 2469 847 
Q 2582 1045 2582 1264 
L 2582 1755 
Q 2548 1714 2433 1681 
Q 2318 1648 2169 1624 
Q 2021 1600 1881 1583 
Q 1741 1566 1655 1555 
Q 1446 1527 1265 1467 
Q 1084 1407 974 1287 
Q 864 1168 864 964 
Q 864 684 1072 542 
Q 1280 400 1600 400 
z
" id="Inter-Regular-61" transform="scale(0.015625)"/>
        <path d="M 491 0 
L 491 3491 
L 1009 3491 
L 1009 2964 
L 1046 2964 
Q 1139 3223 1389 3384 
Q 1639 3545 1955 3545 
Q 2100 3545 2209 3511 
Q 2318 3477 2400 3418 
L 2218 2964 
Q 2161 2993 2085 3010 
Q 2009 3027 1909 3027 
Q 1527 3027 1277 2794 
Q 1027 2561 1027 2209 
L 1027 0 
L 491 0 
z
" id="Inter-Regular-72" transform="scale(0.015625)"/>
       </defs>
       <use xlink:href="#Inter-Regular-30"/>
       <use x="62.500015" xlink:href="#Inter-Regular-31"/>
       <use x="106.676163" xlink:href="#Inter-Regular-20"/>
       <use x="134.801163" xlink:href="#Inter-Regular-4d"/>
       <use x="225.99437" xlink:href="#Inter-Regular-61"/>
       <use x="282.386429" xlink:href="#Inter-Regular-72"/>
      </g>
     </g>
    </g>
    <g id="xtick_2">
     <g id="line2d_2">
      <g>
       <use style="stroke:#000000;stroke-width:0.8;" x="100.803165" xlink:href="#m3c79b0d67b" y="476.745"/>
      </g>
     </g>
    </g>
    <g id="xtick_3">
     <g id="line2d_3">
      <g>
       <use style="stroke:#000000;stroke-width:0.8;" x="138.094534" xlink:href="#m3c79b0d67b" y="476.745"/>
      </g>
     </g>
     <g id="text_2">
      <!-- 01 May -->
      <g transform="translate(121.191409 491.116875)scale(0.1 -0.1)">
       <defs>
        <path d="M 818 -1355 
Q 682 -1355 575 -1333 
Q 468 -1311 427 -1291 
L 564 -818 
Q 857 -893 1053 -814 
Q 1250 -736 1391 -345 
L 1509 -18 
L 218 3491 
L 800 3491 
L 1764 709 
L 1800 709 
L 2764 3491 
L 3346 3491 
L 1846 -564 
Q 1550 -1355 818 -1355 
z
" id="Inter-Regular-79" transform="scale(0.015625)"/>
       </defs>
       <use xlink:href="#Inter-Regular-30"/>
       <use x="62.500015" xlink:href="#Inter-Regular-31"/>
       <use x="106.676163" xlink:href="#Inter-Regular-20"/>
       <use x="134.801163" xlink:href="#Inter-Regular-4d"/>
       <use x="225.99437" xlink:href="#Inter-Regular-61"/>
       <use x="282.386429" xlink:href="#Inter-Regular-79"/>
      </g>
     </g>
    </g>
    <g id="xtick_4">
     <g id="line2d_4">
      <g>
       <use style="stroke:#000000;stroke-width:0.8;" x="176.628948" xlink:href="#m3c79b0d67b" y="476.745"/>
      </g>
     </g>
    </g>
    <g id="xtick_5">
     <g id="line2d_5">
      <g>
       <use style="stroke:#000000;stroke-width:0.8;" x="213.920318" xlink:href="#m3c79b0d67b" y="476.745"/>
      </g>
     </g>
     <g id="text_3">
      <!-- 01 Jul -->
      <g transform="translate(200.376568 491.018438)scale(0.1 -0.1)">
       <defs>
        <path d="M 2346 4655 
L 2909 4655 
L 2909 1327 
Q 2909 657 2549 296 
Q 2189 -64 1582 -64 
Q 1200 -64 902 76 
Q 605 216 434 475 
Q 264 734 264 1091 
L 818 1091 
Q 818 795 1034 615 
Q 1250 436 1582 436 
Q 1948 436 2147 664 
Q 2346 893 2346 1327 
L 2346 4655 
z
" id="Inter-Regular-4a" transform="scale(0.015625)"/>
        <path d="M 2691 1427 
L 2691 3491 
L 3227 3491 
L 3227 0 
L 2691 0 
L 2691 591 
L 2655 591 
Q 2532 325 2273 140 
Q 2014 -45 1618 -45 
Q 1127 -45 809 280 
Q 491 605 491 1273 
L 491 3491 
L 1027 3491 
L 1027 1309 
Q 1027 927 1242 700 
Q 1457 473 1791 473 
Q 1991 473 2199 575 
Q 2407 677 2549 888 
Q 2691 1100 2691 1427 
z
" id="Inter-Regular-75" transform="scale(0.015625)"/>
        <path d="M 1027 4655 
L 1027 0 
L 491 0 
L 491 4655 
L 1027 4655 
z
" id="Inter-Regular-6c" transform="scale(0.015625)"/>
       </defs>
       <use xlink:href="#Inter-Regular-30"/>
       <use x="62.500015" xlink:href="#Inter-Regular-31"/>
       <use x="106.676163" xlink:href="#Inter-Regular-20"/>
       <use x="134.801163" xlink:href="#Inter-Regular-4a"/>
       <use x="189.062531" xlink:href="#Inter-Regular-75"/>
       <use x="247.159134" xlink:href="#Inter-Regular-6c"/>
      </g>
     </g>
    </g>
    <g id="xtick_6">
     <g id="line2d_6">
      <g>
       <use style="stroke:#000000;stroke-width:0.8;" x="252.454732" xlink:href="#m3c79b0d67b" y="476.745"/>
      </g>
     </g>
    </g>
    <g id="xtick_7">
     <g id="line2d_7">
      <g>
       <use style="stroke:#000000;stroke-width:0.8;" x="290.989147" xlink:href="#m3c79b0d67b" y="476.745"/>
      </g>
     </g>
     <g id="text_4">
      <!-- 01 Sep -->
      <g transform="translate(275.101647 491.116875)scale(0.1 -0.1)">
       <defs>
        <path d="M 3109 3491 
Q 3068 3836 2777 4027 
Q 2486 4218 2064 4218 
Q 1600 4218 1318 3999 
Q 1036 3780 1036 3445 
Q 1036 3195 1189 3042 
Q 1343 2889 1553 2803 
Q 1764 2718 1936 2673 
L 2409 2545 
Q 2591 2498 2815 2414 
Q 3039 2330 3244 2185 
Q 3450 2041 3584 1816 
Q 3718 1591 3718 1264 
Q 3718 886 3521 581 
Q 3325 277 2949 97 
Q 2573 -82 2036 -82 
Q 1286 -82 845 272 
Q 405 627 364 1200 
L 946 1200 
Q 968 936 1124 764 
Q 1280 593 1519 510 
Q 1759 427 2036 427 
Q 2359 427 2616 533 
Q 2873 639 3023 828 
Q 3173 1018 3173 1273 
Q 3173 1505 3043 1650 
Q 2914 1795 2702 1886 
Q 2491 1977 2246 2045 
L 1673 2209 
Q 1127 2366 809 2657 
Q 491 2948 491 3418 
Q 491 3809 703 4101 
Q 916 4393 1276 4555 
Q 1636 4718 2082 4718 
Q 2532 4718 2882 4558 
Q 3232 4398 3437 4120 
Q 3643 3843 3655 3491 
L 3109 3491 
z
" id="Inter-Regular-53" transform="scale(0.015625)"/>
        <path d="M 1955 -73 
Q 1450 -73 1085 151 
Q 721 375 524 778 
Q 327 1182 327 1718 
Q 327 2255 524 2665 
Q 721 3075 1074 3305 
Q 1427 3536 1900 3536 
Q 2173 3536 2439 3445 
Q 2705 3355 2923 3151 
Q 3141 2948 3270 2614 
Q 3400 2280 3400 1791 
L 3400 1564 
L 866 1564 
Q 884 1005 1183 707 
Q 1482 409 1955 409 
Q 2271 409 2498 545 
Q 2725 682 2827 955 
L 3346 809 
Q 3223 414 2854 170 
Q 2486 -73 1955 -73 
z
M 866 2027 
L 2855 2027 
Q 2855 2470 2595 2762 
Q 2336 3055 1900 3055 
Q 1593 3055 1368 2911 
Q 1143 2768 1013 2533 
Q 884 2298 866 2027 
z
" id="Inter-Regular-65" transform="scale(0.015625)"/>
        <path d="M 491 -1309 
L 491 3491 
L 1009 3491 
L 1009 2936 
L 1073 2936 
Q 1132 3027 1237 3169 
Q 1343 3311 1542 3423 
Q 1741 3536 2082 3536 
Q 2523 3536 2859 3315 
Q 3196 3095 3384 2690 
Q 3573 2286 3573 1736 
Q 3573 1182 3384 776 
Q 3196 370 2861 148 
Q 2527 -73 2091 -73 
Q 1755 -73 1552 39 
Q 1350 152 1241 296 
Q 1132 441 1073 536 
L 1027 536 
L 1027 -1309 
L 491 -1309 
z
M 1018 1745 
Q 1018 1152 1276 780 
Q 1534 409 2018 409 
Q 2355 409 2581 587 
Q 2807 766 2921 1069 
Q 3036 1373 3036 1745 
Q 3036 2114 2923 2410 
Q 2811 2707 2585 2881 
Q 2359 3055 2018 3055 
Q 1527 3055 1272 2693 
Q 1018 2332 1018 1745 
z
" id="Inter-Regular-70" transform="scale(0.015625)"/>
       </defs>
       <use xlink:href="#Inter-Regular-30"/>
       <use x="62.500015" xlink:href="#Inter-Regular-31"/>
       <use x="106.676163" xlink:href="#Inter-Regular-20"/>
       <use x="134.801163" xlink:href="#Inter-Regular-53"/>
       <use x="198.57959" xlink:href="#Inter-Regular-65"/>
       <use x="256.818237" xlink:href="#Inter-Regular-70"/>
      </g>
     </g>
    </g>
    <g id="xtick_8">
     <g id="line2d_8">
      <g>
       <use style="stroke:#000000;stroke-width:0.8;" x="328.280516" xlink:href="#m3c79b0d67b" y="476.745"/>
      </g>
     </g>
    </g>
    <g id="xtick_9">
     <g id="line2d_9">
      <g>
       <use style="stroke:#000000;stroke-width:0.8;" x="366.814931" xlink:href="#m3c79b0d67b" y="476.745"/>
      </g>
     </g>
     <g id="text_5">
      <!-- 01 Nov -->
      <g transform="translate(350.543837 491.018438)scale(0.1 -0.1)">
       <defs>
        <path d="M 4255 4655 
L 4255 0 
L 3709 0 
L 1173 3655 
L 1127 3655 
L 1127 0 
L 564 0 
L 564 4655 
L 1109 4655 
L 3655 991 
L 3700 991 
L 3700 4655 
L 4255 4655 
z
" id="Inter-Regular-4e" transform="scale(0.015625)"/>
        <path d="M 1909 -73 
Q 1436 -73 1080 152 
Q 725 377 526 781 
Q 327 1186 327 1727 
Q 327 2273 526 2679 
Q 725 3086 1080 3311 
Q 1436 3536 1909 3536 
Q 2382 3536 2737 3311 
Q 3093 3086 3292 2679 
Q 3491 2273 3491 1727 
Q 3491 1186 3292 781 
Q 3093 377 2737 152 
Q 2382 -73 1909 -73 
z
M 1909 409 
Q 2268 409 2500 593 
Q 2732 777 2843 1077 
Q 2955 1377 2955 1727 
Q 2955 2077 2843 2379 
Q 2732 2682 2500 2868 
Q 2268 3055 1909 3055 
Q 1550 3055 1318 2868 
Q 1086 2682 975 2379 
Q 864 2077 864 1727 
Q 864 1377 975 1077 
Q 1086 777 1318 593 
Q 1550 409 1909 409 
z
" id="Inter-Regular-6f" transform="scale(0.015625)"/>
        <path d="M 3346 3491 
L 2055 0 
L 1509 0 
L 218 3491 
L 800 3491 
L 1764 709 
L 1800 709 
L 2764 3491 
L 3346 3491 
z
" id="Inter-Regular-76" transform="scale(0.015625)"/>
       </defs>
       <use xlink:href="#Inter-Regular-30"/>
       <use x="62.500015" xlink:href="#Inter-Regular-31"/>
       <use x="106.676163" xlink:href="#Inter-Regular-20"/>
       <use x="134.801163" xlink:href="#Inter-Regular-4e"/>
       <use x="210.085266" xlink:href="#Inter-Regular-6f"/>
       <use x="269.74437" xlink:href="#Inter-Regular-76"/>
      </g>
     </g>
    </g>
    <g id="xtick_10">
     <g id="line2d_10">
      <g>
       <use style="stroke:#000000;stroke-width:0.8;" x="404.1063" xlink:href="#m3c79b0d67b" y="476.745"/>
      </g>
     </g>
    </g>
    <g id="xtick_11">
     <g id="line2d_11">
      <g>
       <use style="stroke:#000000;stroke-width:0.8;" x="442.640714" xlink:href="#m3c79b0d67b" y="476.745"/>
      </g>
     </g>
     <g id="text_6">
      <!-- 01 Jan -->
      <g transform="translate(427.441496 491.018438)scale(0.1 -0.1)">
       <defs>
        <path d="M 1027 2100 
L 1027 0 
L 491 0 
L 491 3491 
L 1009 3491 
L 1009 2945 
L 1055 2945 
Q 1177 3211 1427 3373 
Q 1677 3536 2073 3536 
Q 2602 3536 2928 3211 
Q 3255 2886 3255 2218 
L 3255 0 
L 2718 0 
L 2718 2182 
Q 2718 2593 2504 2824 
Q 2291 3055 1918 3055 
Q 1534 3055 1280 2806 
Q 1027 2557 1027 2100 
z
" id="Inter-Regular-6e" transform="scale(0.015625)"/>
       </defs>
       <use xlink:href="#Inter-Regular-30"/>
       <use x="62.500015" xlink:href="#Inter-Regular-31"/>
       <use x="106.676163" xlink:href="#Inter-Regular-20"/>
       <use x="134.801163" xlink:href="#Inter-Regular-4a"/>
       <use x="189.062531" xlink:href="#Inter-Regular-61"/>
       <use x="245.45459" xlink:href="#Inter-Regular-6e"/>
      </g>
     </g>
    </g>
    <g id="xtick_12">
     <g id="line2d_12">
      <g>
       <use style="stroke:#000000;stroke-width:0.8;" x="481.175129" xlink:href="#m3c79b0d67b" y="476.745"/>
      </g>
     </g>
    </g>
    <g id="xtick_13">
     <g id="line2d_13">
      <g>
       <use style="stroke:#000000;stroke-width:0.8;" x="515.980407" xlink:href="#m3c79b0d67b" y="476.745"/>
      </g>
     </g>
     <g id="text_7">
      <!-- 01 Mar -->
      <g transform="translate(499.943688 491.018438)scale(0.1 -0.1)">
       <use xlink:href="#Inter-Regular-30"/>
       <use x="62.500015" xlink:href="#Inter-Regular-31"/>
       <use x="106.676163" xlink:href="#Inter-Regular-20"/>
       <use x="134.801163" xlink:href="#Inter-Regular-4d"/>
       <use x="225.99437" xlink:href="#Inter-Regular-61"/>
       <use x="282.386429" xlink:href="#Inter-Regular-72"/>
      </g>
     </g>
    </g>
    <g id="xtick_14">
     <g id="line2d_14">
      <g>
       <use style="stroke:#000000;stroke-width:0.8;" x="554.514822" xlink:href="#m3c79b0d67b" y="476.745"/>
      </g>
     </g>
    </g>
    <g id="xtick_15">
     <g id="line2d_15">
      <g>
       <use style="stroke:#000000;stroke-width:0.8;" x="591.806191" xlink:href="#m3c79b0d67b" y="476.745"/>
      </g>
     </g>
     <g id="text_8">
      <!-- 01 May -->
      <g transform="translate(574.903066 491.116875)scale(0.1 -0.1)">
       <use xlink:href="#Inter-Regular-30"/>
       <use x="62.500015" xlink:href="#Inter-Regular-31"/>
       <use x="106.676163" xlink:href="#Inter-Regular-20"/>
       <use x="134.801163" xlink:href="#Inter-Regular-4d"/>
       <use x="225.99437" xlink:href="#Inter-Regular-61"/>
       <use x="282.386429" xlink:href="#Inter-Regular-79"/>
      </g>
     </g>
    </g>
    <g id="xtick_16">
     <g id="line2d_16">
      <g>
       <use style="stroke:#000000;stroke-width:0.8;" x="630.340605" xlink:href="#m3c79b0d67b" y="476.745"/>
      </g>
     </g>
    </g>
    <g id="xtick_17">
     <g id="line2d_17">
      <g>
       <use style="stroke:#000000;stroke-width:0.8;" x="667.631974" xlink:href="#m3c79b0d67b" y="476.745"/>
      </g>
     </g>
     <g id="text_9">
      <!-- 01 Jul -->
      <g transform="translate(654.088224 491.018438)scale(0.1 -0.1)">
       <use xlink:href="#Inter-Regular-30"/>
       <use x="62.500015" xlink:href="#Inter-Regular-31"/>
       <use x="106.676163" xlink:href="#Inter-Regular-20"/>
       <use x="134.801163" xlink:href="#Inter-Regular-4a"/>
       <use x="189.062531" xlink:href="#Inter-Regular-75"/>
       <use x="247.159134" xlink:href="#Inter-Regular-6c"/>
      </g>
     </g>
    </g>
    <g id="xtick_18">
     <g id="line2d_18">
      <g>
       <use style="stroke:#000000;stroke-width:0.8;" x="706.166389" xlink:href="#m3c79b0d67b" y="476.745"/>
      </g>
     </g>
    </g>
    <g id="text_10">
     <!--  -->
     <g style="fill:#666666;" transform="translate(397.06875 504.5075)scale(0.1 -0.1)"/>
     <!-- Note: Mortality is calculated as deaths per day divided by the sum of cases in the prior 28 days -->
     <g style="fill:#666666;" transform="translate(171.823438 515.689687)scale(0.1 -0.1)">
      <defs>
       <path d="M 2009 3491 
L 2009 3036 
L 1264 3036 
L 1264 1000 
Q 1264 773 1331 660 
Q 1398 548 1503 510 
Q 1609 473 1727 473 
Q 1816 473 1873 483 
Q 1930 493 1964 500 
L 2073 18 
Q 2018 -2 1920 -23 
Q 1823 -45 1673 -45 
Q 1446 -45 1228 52 
Q 1011 150 869 350 
Q 727 550 727 855 
L 727 3036 
L 200 3036 
L 200 3491 
L 727 3491 
L 727 4327 
L 1264 4327 
L 1264 3491 
L 2009 3491 
z
" id="Inter-Regular-74" transform="scale(0.015625)"/>
       <path d="M 882 -36 
Q 714 -36 593 84 
Q 473 205 473 373 
Q 473 541 593 661 
Q 714 782 882 782 
Q 1050 782 1170 661 
Q 1291 541 1291 373 
Q 1291 205 1170 84 
Q 1050 -36 882 -36 
z
M 882 2524 
Q 714 2524 593 2644 
Q 473 2765 473 2933 
Q 473 3101 593 3221 
Q 714 3342 882 3342 
Q 1050 3342 1170 3221 
Q 1291 3101 1291 2933 
Q 1291 2765 1170 2644 
Q 1050 2524 882 2524 
z
" id="Inter-Regular-3a" transform="scale(0.015625)"/>
       <path d="M 491 0 
L 491 3491 
L 1027 3491 
L 1027 0 
L 491 0 
z
M 764 4073 
Q 607 4073 494 4179 
Q 382 4286 382 4436 
Q 382 4586 494 4693 
Q 607 4800 764 4800 
Q 921 4800 1033 4693 
Q 1146 4586 1146 4436 
Q 1146 4286 1033 4179 
Q 921 4073 764 4073 
z
" id="Inter-Regular-69" transform="scale(0.015625)"/>
       <path d="M 2964 2709 
L 2482 2573 
Q 2411 2755 2245 2914 
Q 2080 3073 1727 3073 
Q 1407 3073 1194 2926 
Q 982 2780 982 2555 
Q 982 2355 1127 2239 
Q 1273 2123 1582 2045 
L 2100 1918 
Q 3027 1691 3027 973 
Q 3027 673 2855 436 
Q 2684 200 2377 63 
Q 2071 -73 1664 -73 
Q 1130 -73 780 159 
Q 430 391 336 836 
L 846 964 
Q 989 400 1655 400 
Q 2030 400 2251 560 
Q 2473 720 2473 945 
Q 2473 1316 1955 1436 
L 1373 1573 
Q 893 1686 669 1926 
Q 446 2166 446 2527 
Q 446 2823 613 3050 
Q 780 3277 1069 3406 
Q 1359 3536 1727 3536 
Q 2246 3536 2542 3309 
Q 2839 3082 2964 2709 
z
" id="Inter-Regular-73" transform="scale(0.015625)"/>
       <path d="M 1909 -73 
Q 1418 -73 1063 159 
Q 709 391 518 798 
Q 327 1205 327 1727 
Q 327 2259 524 2667 
Q 721 3075 1074 3305 
Q 1427 3536 1900 3536 
Q 2268 3536 2563 3400 
Q 2859 3264 3047 3018 
Q 3236 2773 3282 2445 
L 2746 2445 
Q 2684 2684 2474 2869 
Q 2264 3055 1909 3055 
Q 1439 3055 1151 2697 
Q 864 2339 864 1745 
Q 864 1139 1148 774 
Q 1432 409 1909 409 
Q 2223 409 2447 570 
Q 2671 732 2746 1018 
L 3282 1018 
Q 3236 709 3058 462 
Q 2880 216 2588 71 
Q 2296 -73 1909 -73 
z
" id="Inter-Regular-63" transform="scale(0.015625)"/>
       <path d="M 1809 -73 
Q 1373 -73 1039 148 
Q 705 370 516 776 
Q 327 1182 327 1736 
Q 327 2286 516 2690 
Q 705 3095 1041 3315 
Q 1377 3536 1818 3536 
Q 2159 3536 2358 3423 
Q 2557 3311 2662 3169 
Q 2768 3027 2827 2936 
L 2873 2936 
L 2873 4655 
L 3409 4655 
L 3409 0 
L 2891 0 
L 2891 536 
L 2827 536 
Q 2768 441 2659 296 
Q 2550 152 2348 39 
Q 2146 -73 1809 -73 
z
M 1882 409 
Q 2366 409 2624 780 
Q 2882 1152 2882 1745 
Q 2882 2332 2627 2693 
Q 2373 3055 1882 3055 
Q 1541 3055 1315 2881 
Q 1089 2707 976 2410 
Q 864 2114 864 1745 
Q 864 1373 978 1069 
Q 1093 766 1319 587 
Q 1546 409 1882 409 
z
" id="Inter-Regular-64" transform="scale(0.015625)"/>
       <path d="M 1027 2100 
L 1027 0 
L 491 0 
L 491 4655 
L 1027 4655 
L 1027 2945 
L 1073 2945 
Q 1196 3216 1442 3376 
Q 1689 3536 2100 3536 
Q 2636 3536 2963 3213 
Q 3291 2891 3291 2218 
L 3291 0 
L 2755 0 
L 2755 2182 
Q 2755 2598 2540 2826 
Q 2325 3055 1946 3055 
Q 1548 3055 1287 2806 
Q 1027 2557 1027 2100 
z
" id="Inter-Regular-68" transform="scale(0.015625)"/>
       <path d="M 564 0 
L 564 4655 
L 1100 4655 
L 1100 2936 
L 1146 2936 
Q 1205 3027 1310 3169 
Q 1416 3311 1615 3423 
Q 1814 3536 2155 3536 
Q 2596 3536 2932 3315 
Q 3268 3095 3457 2690 
Q 3646 2286 3646 1736 
Q 3646 1182 3457 776 
Q 3268 370 2934 148 
Q 2600 -73 2164 -73 
Q 1827 -73 1625 39 
Q 1423 152 1314 296 
Q 1205 441 1146 536 
L 1082 536 
L 1082 0 
L 564 0 
z
M 1091 1745 
Q 1091 1152 1349 780 
Q 1607 409 2091 409 
Q 2427 409 2653 587 
Q 2880 766 2994 1069 
Q 3109 1373 3109 1745 
Q 3109 2114 2996 2410 
Q 2884 2707 2658 2881 
Q 2432 3055 2091 3055 
Q 1600 3055 1345 2693 
Q 1091 2332 1091 1745 
z
" id="Inter-Regular-62" transform="scale(0.015625)"/>
       <path d="M 491 0 
L 491 3491 
L 1009 3491 
L 1009 2945 
L 1055 2945 
Q 1164 3225 1407 3380 
Q 1650 3536 1991 3536 
Q 2336 3536 2567 3380 
Q 2798 3225 2927 2945 
L 2964 2945 
Q 3098 3216 3366 3376 
Q 3634 3536 4009 3536 
Q 4477 3536 4775 3244 
Q 5073 2952 5073 2336 
L 5073 0 
L 4536 0 
L 4536 2336 
Q 4536 2723 4325 2889 
Q 4114 3055 3827 3055 
Q 3459 3055 3257 2833 
Q 3055 2611 3055 2273 
L 3055 0 
L 2509 0 
L 2509 2391 
Q 2509 2689 2316 2872 
Q 2123 3055 1818 3055 
Q 1609 3055 1428 2943 
Q 1248 2832 1137 2635 
Q 1027 2439 1027 2182 
L 1027 0 
L 491 0 
z
" id="Inter-Regular-6d" transform="scale(0.015625)"/>
       <path d="M 2046 3491 
L 2046 3036 
L 1264 3036 
L 1264 0 
L 727 0 
L 727 3036 
L 164 3036 
L 164 3491 
L 727 3491 
L 727 3973 
Q 727 4273 868 4473 
Q 1009 4673 1234 4773 
Q 1459 4873 1709 4873 
Q 1907 4873 2032 4841 
Q 2157 4809 2218 4782 
L 2064 4318 
Q 2023 4332 1951 4352 
Q 1880 4373 1764 4373 
Q 1498 4373 1381 4239 
Q 1264 4105 1264 3845 
L 1264 3491 
L 2046 3491 
z
" id="Inter-Regular-66" transform="scale(0.015625)"/>
       <path d="M 482 0 
L 482 409 
L 2018 2091 
Q 2289 2386 2464 2605 
Q 2639 2825 2724 3019 
Q 2809 3214 2809 3427 
Q 2809 3795 2553 4011 
Q 2298 4227 1918 4227 
Q 1514 4227 1275 3985 
Q 1036 3743 1036 3345 
L 500 3345 
Q 500 3755 688 4064 
Q 877 4373 1203 4545 
Q 1530 4718 1936 4718 
Q 2346 4718 2661 4545 
Q 2977 4373 3156 4079 
Q 3336 3786 3336 3427 
Q 3336 3170 3244 2926 
Q 3152 2682 2926 2383 
Q 2700 2084 2300 1655 
L 1255 536 
L 1255 500 
L 3418 500 
L 3418 0 
L 482 0 
z
" id="Inter-Regular-32" transform="scale(0.015625)"/>
       <path d="M 1973 -64 
Q 1505 -64 1147 103 
Q 789 270 589 564 
Q 389 859 391 1236 
Q 389 1532 507 1783 
Q 625 2034 830 2203 
Q 1036 2373 1291 2418 
L 1291 2445 
Q 957 2532 759 2821 
Q 561 3111 564 3482 
Q 561 3836 743 4115 
Q 925 4395 1244 4556 
Q 1564 4718 1973 4718 
Q 2377 4718 2695 4556 
Q 3014 4395 3197 4115 
Q 3380 3836 3382 3482 
Q 3380 3111 3181 2821 
Q 2982 2532 2655 2445 
L 2655 2418 
Q 2907 2373 3109 2203 
Q 3311 2034 3431 1783 
Q 3552 1532 3555 1236 
Q 3552 859 3351 564 
Q 3150 270 2794 103 
Q 2439 -64 1973 -64 
z
M 1973 436 
Q 2446 436 2722 662 
Q 2998 889 3000 1264 
Q 2998 1527 2864 1729 
Q 2730 1932 2499 2048 
Q 2268 2164 1973 2164 
Q 1675 2164 1442 2048 
Q 1209 1932 1076 1729 
Q 943 1527 946 1264 
Q 943 889 1218 662 
Q 1493 436 1973 436 
z
M 1973 2645 
Q 2348 2645 2591 2864 
Q 2834 3084 2836 3445 
Q 2834 3800 2596 4013 
Q 2359 4227 1973 4227 
Q 1582 4227 1344 4013 
Q 1107 3800 1109 3445 
Q 1107 3084 1349 2864 
Q 1591 2645 1973 2645 
z
" id="Inter-Regular-38" transform="scale(0.015625)"/>
      </defs>
      <use xlink:href="#Inter-Regular-4e"/>
      <use x="75.284103" xlink:href="#Inter-Regular-6f"/>
      <use x="134.943207" xlink:href="#Inter-Regular-74"/>
      <use x="171.306854" xlink:href="#Inter-Regular-65"/>
      <use x="229.545502" xlink:href="#Inter-Regular-3a"/>
      <use x="257.102325" xlink:href="#Inter-Regular-20"/>
      <use x="285.227325" xlink:href="#Inter-Regular-4d"/>
      <use x="376.420532" xlink:href="#Inter-Regular-6f"/>
      <use x="436.079636" xlink:href="#Inter-Regular-72"/>
      <use x="474.431915" xlink:href="#Inter-Regular-74"/>
      <use x="510.795563" xlink:href="#Inter-Regular-61"/>
      <use x="567.187622" xlink:href="#Inter-Regular-6c"/>
      <use x="590.90921" xlink:href="#Inter-Regular-69"/>
      <use x="614.630798" xlink:href="#Inter-Regular-74"/>
      <use x="650.994446" xlink:href="#Inter-Regular-79"/>
      <use x="706.67627" xlink:href="#Inter-Regular-20"/>
      <use x="734.80127" xlink:href="#Inter-Regular-69"/>
      <use x="758.522858" xlink:href="#Inter-Regular-73"/>
      <use x="810.795593" xlink:href="#Inter-Regular-20"/>
      <use x="838.920593" xlink:href="#Inter-Regular-63"/>
      <use x="894.744461" xlink:href="#Inter-Regular-61"/>
      <use x="951.13652" xlink:href="#Inter-Regular-6c"/>
      <use x="974.858109" xlink:href="#Inter-Regular-63"/>
      <use x="1030.681976" xlink:href="#Inter-Regular-75"/>
      <use x="1088.77858" xlink:href="#Inter-Regular-6c"/>
      <use x="1112.500168" xlink:href="#Inter-Regular-61"/>
      <use x="1168.892227" xlink:href="#Inter-Regular-74"/>
      <use x="1205.255875" xlink:href="#Inter-Regular-65"/>
      <use x="1263.494522" xlink:href="#Inter-Regular-64"/>
      <use x="1325.568405" xlink:href="#Inter-Regular-20"/>
      <use x="1353.693405" xlink:href="#Inter-Regular-61"/>
      <use x="1410.085464" xlink:href="#Inter-Regular-73"/>
      <use x="1462.3582" xlink:href="#Inter-Regular-20"/>
      <use x="1490.4832" xlink:href="#Inter-Regular-64"/>
      <use x="1552.557083" xlink:href="#Inter-Regular-65"/>
      <use x="1610.795731" xlink:href="#Inter-Regular-61"/>
      <use x="1667.18779" xlink:href="#Inter-Regular-74"/>
      <use x="1703.551437" xlink:href="#Inter-Regular-68"/>
      <use x="1762.642365" xlink:href="#Inter-Regular-73"/>
      <use x="1814.9151" xlink:href="#Inter-Regular-20"/>
      <use x="1843.0401" xlink:href="#Inter-Regular-70"/>
      <use x="1903.977615" xlink:href="#Inter-Regular-65"/>
      <use x="1962.216263" xlink:href="#Inter-Regular-72"/>
      <use x="2000.568542" xlink:href="#Inter-Regular-20"/>
      <use x="2028.693542" xlink:href="#Inter-Regular-64"/>
      <use x="2090.767426" xlink:href="#Inter-Regular-61"/>
      <use x="2147.159485" xlink:href="#Inter-Regular-79"/>
      <use x="2202.841309" xlink:href="#Inter-Regular-20"/>
      <use x="2230.966309" xlink:href="#Inter-Regular-64"/>
      <use x="2293.040192" xlink:href="#Inter-Regular-69"/>
      <use x="2316.76178" xlink:href="#Inter-Regular-76"/>
      <use x="2372.443604" xlink:href="#Inter-Regular-69"/>
      <use x="2396.165192" xlink:href="#Inter-Regular-64"/>
      <use x="2458.239075" xlink:href="#Inter-Regular-65"/>
      <use x="2516.477722" xlink:href="#Inter-Regular-64"/>
      <use x="2578.551605" xlink:href="#Inter-Regular-20"/>
      <use x="2606.676605" xlink:href="#Inter-Regular-62"/>
      <use x="2668.750488" xlink:href="#Inter-Regular-79"/>
      <use x="2724.432312" xlink:href="#Inter-Regular-20"/>
      <use x="2752.557312" xlink:href="#Inter-Regular-74"/>
      <use x="2788.920959" xlink:href="#Inter-Regular-68"/>
      <use x="2848.011887" xlink:href="#Inter-Regular-65"/>
      <use x="2906.250534" xlink:href="#Inter-Regular-20"/>
      <use x="2934.375534" xlink:href="#Inter-Regular-73"/>
      <use x="2986.64827" xlink:href="#Inter-Regular-75"/>
      <use x="3044.744873" xlink:href="#Inter-Regular-6d"/>
      <use x="3131.676712" xlink:href="#Inter-Regular-20"/>
      <use x="3159.801712" xlink:href="#Inter-Regular-6f"/>
      <use x="3219.460815" xlink:href="#Inter-Regular-66"/>
      <use x="3255.540359" xlink:href="#Inter-Regular-20"/>
      <use x="3283.665359" xlink:href="#Inter-Regular-63"/>
      <use x="3339.489227" xlink:href="#Inter-Regular-61"/>
      <use x="3395.881287" xlink:href="#Inter-Regular-73"/>
      <use x="3448.154022" xlink:href="#Inter-Regular-65"/>
      <use x="3506.39267" xlink:href="#Inter-Regular-73"/>
      <use x="3558.665405" xlink:href="#Inter-Regular-20"/>
      <use x="3586.790405" xlink:href="#Inter-Regular-69"/>
      <use x="3610.511993" xlink:href="#Inter-Regular-6e"/>
      <use x="3669.034729" xlink:href="#Inter-Regular-20"/>
      <use x="3697.159729" xlink:href="#Inter-Regular-74"/>
      <use x="3733.523376" xlink:href="#Inter-Regular-68"/>
      <use x="3792.614304" xlink:href="#Inter-Regular-65"/>
      <use x="3850.852951" xlink:href="#Inter-Regular-20"/>
      <use x="3878.977951" xlink:href="#Inter-Regular-70"/>
      <use x="3939.915466" xlink:href="#Inter-Regular-72"/>
      <use x="3978.267746" xlink:href="#Inter-Regular-69"/>
      <use x="4001.989334" xlink:href="#Inter-Regular-6f"/>
      <use x="4061.648438" xlink:href="#Inter-Regular-72"/>
      <use x="4100.000717" xlink:href="#Inter-Regular-20"/>
      <use x="4128.125717" xlink:href="#Inter-Regular-32"/>
      <use x="4188.6371" xlink:href="#Inter-Regular-38"/>
      <use x="4250.284836" xlink:href="#Inter-Regular-20"/>
      <use x="4278.409836" xlink:href="#Inter-Regular-64"/>
      <use x="4340.483719" xlink:href="#Inter-Regular-61"/>
      <use x="4396.875778" xlink:href="#Inter-Regular-79"/>
      <use x="4452.557602" xlink:href="#Inter-Regular-73"/>
     </g>
    </g>
   </g>
   <g id="matplotlib.axis_2">
    <g id="ytick_1">
     <g id="line2d_19">
      <defs>
       <path d="M 0 0 
L -3.5 0 
" id="m620d779f94" style="stroke:#000000;stroke-width:0.8;"/>
      </defs>
      <g>
       <use style="stroke:#000000;stroke-width:0.8;" x="62.26875" xlink:href="#m620d779f94" y="476.745"/>
      </g>
     </g>
     <g id="text_11">
      <!-- 0.0% -->
      <g transform="translate(31.8875 480.381719)scale(0.1 -0.1)">
       <defs>
        <path d="M 882 -36 
Q 714 -36 593 84 
Q 473 205 473 373 
Q 473 541 593 661 
Q 714 782 882 782 
Q 1050 782 1170 661 
Q 1291 541 1291 373 
Q 1291 205 1170 84 
Q 1050 -36 882 -36 
z
" id="Inter-Regular-2e" transform="scale(0.015625)"/>
        <path d="M 2855 873 
L 2855 1118 
Q 2855 1373 2960 1585 
Q 3066 1798 3269 1926 
Q 3473 2055 3764 2055 
Q 4059 2055 4259 1926 
Q 4459 1798 4561 1585 
Q 4664 1373 4664 1118 
L 4664 873 
Q 4664 618 4560 405 
Q 4457 193 4256 64 
Q 4055 -64 3764 -64 
Q 3468 -64 3266 64 
Q 3064 193 2959 405 
Q 2855 618 2855 873 
z
M 536 3536 
L 536 3782 
Q 536 4036 642 4248 
Q 748 4461 951 4589 
Q 1155 4718 1446 4718 
Q 1741 4718 1941 4589 
Q 2141 4461 2243 4248 
Q 2346 4036 2346 3782 
L 2346 3536 
Q 2346 3282 2242 3069 
Q 2139 2857 1937 2728 
Q 1736 2600 1446 2600 
Q 1150 2600 948 2728 
Q 746 2857 641 3069 
Q 536 3282 536 3536 
z
M 709 0 
L 3909 4655 
L 4427 4655 
L 1227 0 
L 709 0 
z
M 3318 1118 
L 3318 873 
Q 3318 661 3418 494 
Q 3518 327 3764 327 
Q 4002 327 4101 494 
Q 4200 661 4200 873 
L 4200 1118 
Q 4200 1330 4104 1497 
Q 4009 1664 3764 1664 
Q 3525 1664 3421 1497 
Q 3318 1330 3318 1118 
z
M 1000 3782 
L 1000 3536 
Q 1000 3325 1100 3158 
Q 1200 2991 1446 2991 
Q 1684 2991 1783 3158 
Q 1882 3325 1882 3536 
L 1882 3782 
Q 1882 3993 1786 4160 
Q 1691 4327 1446 4327 
Q 1207 4327 1103 4160 
Q 1000 3993 1000 3782 
z
" id="Inter-Regular-25" transform="scale(0.015625)"/>
       </defs>
       <use xlink:href="#Inter-Regular-30"/>
       <use x="62.500015" xlink:href="#Inter-Regular-2e"/>
       <use x="90.056839" xlink:href="#Inter-Regular-30"/>
       <use x="152.556854" xlink:href="#Inter-Regular-25"/>
      </g>
     </g>
    </g>
    <g id="ytick_2">
     <g id="line2d_20">
      <g>
       <use style="stroke:#000000;stroke-width:0.8;" x="62.26875" xlink:href="#m620d779f94" y="411.518225"/>
      </g>
     </g>
     <g id="text_12">
      <!-- 0.5% -->
      <g transform="translate(32.057813 415.154944)scale(0.1 -0.1)">
       <defs>
        <path d="M 1936 -64 
Q 1536 -64 1216 95 
Q 896 255 702 532 
Q 509 809 491 1164 
L 1036 1164 
Q 1068 848 1324 642 
Q 1580 436 1936 436 
Q 2223 436 2447 570 
Q 2671 705 2799 940 
Q 2927 1175 2927 1473 
Q 2927 1777 2794 2017 
Q 2661 2257 2429 2395 
Q 2198 2534 1900 2536 
Q 1686 2539 1461 2472 
Q 1236 2405 1091 2300 
L 564 2364 
L 846 4655 
L 3264 4655 
L 3264 4155 
L 1318 4155 
L 1155 2782 
L 1182 2782 
Q 1325 2895 1541 2970 
Q 1757 3045 1991 3045 
Q 2418 3045 2753 2842 
Q 3089 2639 3281 2286 
Q 3473 1934 3473 1482 
Q 3473 1036 3274 687 
Q 3075 339 2727 137 
Q 2380 -64 1936 -64 
z
" id="Inter-Regular-35" transform="scale(0.015625)"/>
       </defs>
       <use xlink:href="#Inter-Regular-30"/>
       <use x="62.500015" xlink:href="#Inter-Regular-2e"/>
       <use x="90.056839" xlink:href="#Inter-Regular-35"/>
       <use x="150.85231" xlink:href="#Inter-Regular-25"/>
      </g>
     </g>
    </g>
    <g id="ytick_3">
     <g id="line2d_21">
      <g>
       <use style="stroke:#000000;stroke-width:0.8;" x="62.26875" xlink:href="#m620d779f94" y="346.29145"/>
      </g>
     </g>
     <g id="text_13">
      <!-- 1.0% -->
      <g transform="translate(33.720313 349.928169)scale(0.1 -0.1)">
       <use xlink:href="#Inter-Regular-31"/>
       <use x="44.176147" xlink:href="#Inter-Regular-2e"/>
       <use x="71.732971" xlink:href="#Inter-Regular-30"/>
       <use x="134.232986" xlink:href="#Inter-Regular-25"/>
      </g>
     </g>
    </g>
    <g id="ytick_4">
     <g id="line2d_22">
      <g>
       <use style="stroke:#000000;stroke-width:0.8;" x="62.26875" xlink:href="#m620d779f94" y="281.064675"/>
      </g>
     </g>
     <g id="text_14">
      <!-- 1.5% -->
      <g transform="translate(33.890625 284.701394)scale(0.1 -0.1)">
       <use xlink:href="#Inter-Regular-31"/>
       <use x="44.176147" xlink:href="#Inter-Regular-2e"/>
       <use x="71.732971" xlink:href="#Inter-Regular-35"/>
       <use x="132.528442" xlink:href="#Inter-Regular-25"/>
      </g>
     </g>
    </g>
    <g id="ytick_5">
     <g id="line2d_23">
      <g>
       <use style="stroke:#000000;stroke-width:0.8;" x="62.26875" xlink:href="#m620d779f94" y="215.8379"/>
      </g>
     </g>
     <g id="text_15">
      <!-- 2.0% -->
      <g transform="translate(32.085938 219.474619)scale(0.1 -0.1)">
       <use xlink:href="#Inter-Regular-32"/>
       <use x="60.511383" xlink:href="#Inter-Regular-2e"/>
       <use x="88.068207" xlink:href="#Inter-Regular-30"/>
       <use x="150.568222" xlink:href="#Inter-Regular-25"/>
      </g>
     </g>
    </g>
    <g id="ytick_6">
     <g id="line2d_24">
      <g>
       <use style="stroke:#000000;stroke-width:0.8;" x="62.26875" xlink:href="#m620d779f94" y="150.611125"/>
      </g>
     </g>
     <g id="text_16">
      <!-- 2.5% -->
      <g transform="translate(32.25625 154.247844)scale(0.1 -0.1)">
       <use xlink:href="#Inter-Regular-32"/>
       <use x="60.511383" xlink:href="#Inter-Regular-2e"/>
       <use x="88.068207" xlink:href="#Inter-Regular-35"/>
       <use x="148.863678" xlink:href="#Inter-Regular-25"/>
      </g>
     </g>
    </g>
    <g id="ytick_7">
     <g id="line2d_25">
      <g>
       <use style="stroke:#000000;stroke-width:0.8;" x="62.26875" xlink:href="#m620d779f94" y="85.38435"/>
      </g>
     </g>
     <g id="text_17">
      <!-- 3.0% -->
      <g transform="translate(31.773438 89.021069)scale(0.1 -0.1)">
       <defs>
        <path d="M 2055 -64 
Q 1605 -64 1253 90 
Q 902 245 696 521 
Q 491 798 473 1164 
L 1046 1164 
Q 1071 827 1356 631 
Q 1641 436 2046 436 
Q 2493 436 2783 664 
Q 3073 893 3073 1264 
Q 3073 1650 2787 1893 
Q 2502 2136 1973 2136 
L 1600 2136 
L 1600 2636 
L 1973 2636 
Q 2386 2636 2647 2856 
Q 2909 3077 2909 3445 
Q 2909 3798 2679 4012 
Q 2450 4227 2064 4227 
Q 1823 4227 1610 4139 
Q 1398 4052 1264 3887 
Q 1130 3723 1118 3491 
L 573 3491 
Q 586 3857 793 4133 
Q 1000 4409 1335 4563 
Q 1671 4718 2073 4718 
Q 2505 4718 2814 4544 
Q 3123 4370 3289 4086 
Q 3455 3802 3455 3473 
Q 3455 3080 3249 2802 
Q 3043 2525 2691 2418 
L 2691 2382 
Q 3132 2309 3379 2008 
Q 3627 1707 3627 1264 
Q 3627 884 3421 583 
Q 3216 282 2861 109 
Q 2507 -64 2055 -64 
z
" id="Inter-Regular-33" transform="scale(0.015625)"/>
       </defs>
       <use xlink:href="#Inter-Regular-33"/>
       <use x="63.636383" xlink:href="#Inter-Regular-2e"/>
       <use x="91.193207" xlink:href="#Inter-Regular-30"/>
       <use x="153.693222" xlink:href="#Inter-Regular-25"/>
      </g>
     </g>
    </g>
    <g id="text_18">
     <!-- Percent mortality per day (seven day average) -->
     <g transform="translate(25.614063 365.008437)rotate(-90)scale(0.1 -0.1)">
      <defs>
       <path d="M 564 0 
L 564 4655 
L 2136 4655 
Q 2684 4655 3033 4458 
Q 3382 4261 3550 3927 
Q 3718 3593 3718 3182 
Q 3718 2770 3551 2434 
Q 3384 2098 3036 1899 
Q 2689 1700 2146 1700 
L 1127 1700 
L 1127 0 
L 564 0 
z
M 1127 2200 
L 2127 2200 
Q 2689 2200 2926 2482 
Q 3164 2764 3164 3182 
Q 3164 3602 2925 3878 
Q 2686 4155 2118 4155 
L 1127 4155 
L 1127 2200 
z
" id="Inter-Regular-50" transform="scale(0.015625)"/>
       <path d="M 682 1964 
Q 682 2823 906 3544 
Q 1130 4266 1546 4873 
L 2018 4873 
Q 1800 4573 1623 4095 
Q 1446 3618 1341 3061 
Q 1236 2505 1236 1964 
Q 1236 1423 1341 866 
Q 1446 309 1623 -168 
Q 1800 -645 2018 -945 
L 1546 -945 
Q 1130 -339 906 383 
Q 682 1105 682 1964 
z
" id="Inter-Regular-28" transform="scale(0.015625)"/>
       <path d="M 1900 -1382 
Q 1316 -1382 976 -1169 
Q 636 -957 473 -682 
L 900 -382 
Q 973 -477 1084 -601 
Q 1196 -725 1390 -817 
Q 1584 -909 1900 -909 
Q 2323 -909 2598 -704 
Q 2873 -500 2873 -64 
L 2873 645 
L 2827 645 
Q 2768 550 2660 410 
Q 2552 270 2351 162 
Q 2150 55 1809 55 
Q 1386 55 1051 255 
Q 716 455 521 836 
Q 327 1218 327 1764 
Q 327 2300 516 2699 
Q 705 3098 1041 3317 
Q 1377 3536 1818 3536 
Q 2159 3536 2360 3423 
Q 2561 3311 2669 3169 
Q 2777 3027 2836 2936 
L 2891 2936 
L 2891 3491 
L 3409 3491 
L 3409 -100 
Q 3409 -550 3205 -833 
Q 3002 -1116 2660 -1249 
Q 2318 -1382 1900 -1382 
z
M 1882 536 
Q 2366 536 2624 864 
Q 2882 1193 2882 1773 
Q 2882 2339 2627 2697 
Q 2373 3055 1882 3055 
Q 1541 3055 1315 2882 
Q 1089 2709 976 2418 
Q 864 2127 864 1773 
Q 864 1227 1120 881 
Q 1377 536 1882 536 
z
" id="Inter-Regular-67" transform="scale(0.015625)"/>
       <path d="M 1638 1940 
Q 1638 1081 1414 359 
Q 1191 -362 775 -969 
L 302 -969 
Q 520 -669 697 -191 
Q 875 286 979 842 
Q 1084 1399 1084 1940 
Q 1084 2481 979 3038 
Q 875 3595 697 4072 
Q 520 4549 302 4849 
L 775 4849 
Q 1191 4243 1414 3521 
Q 1638 2799 1638 1940 
z
" id="Inter-Regular-29" transform="scale(0.015625)"/>
      </defs>
      <use xlink:href="#Inter-Regular-50"/>
      <use x="63.494324" xlink:href="#Inter-Regular-65"/>
      <use x="121.732971" xlink:href="#Inter-Regular-72"/>
      <use x="160.085251" xlink:href="#Inter-Regular-63"/>
      <use x="215.909119" xlink:href="#Inter-Regular-65"/>
      <use x="274.147766" xlink:href="#Inter-Regular-6e"/>
      <use x="332.670502" xlink:href="#Inter-Regular-74"/>
      <use x="369.034149" xlink:href="#Inter-Regular-20"/>
      <use x="397.159149" xlink:href="#Inter-Regular-6d"/>
      <use x="484.090988" xlink:href="#Inter-Regular-6f"/>
      <use x="543.750092" xlink:href="#Inter-Regular-72"/>
      <use x="582.102371" xlink:href="#Inter-Regular-74"/>
      <use x="618.466019" xlink:href="#Inter-Regular-61"/>
      <use x="674.858078" xlink:href="#Inter-Regular-6c"/>
      <use x="698.579666" xlink:href="#Inter-Regular-69"/>
      <use x="722.301254" xlink:href="#Inter-Regular-74"/>
      <use x="758.664902" xlink:href="#Inter-Regular-79"/>
      <use x="814.346725" xlink:href="#Inter-Regular-20"/>
      <use x="842.471725" xlink:href="#Inter-Regular-70"/>
      <use x="903.409241" xlink:href="#Inter-Regular-65"/>
      <use x="961.647888" xlink:href="#Inter-Regular-72"/>
      <use x="1000.000168" xlink:href="#Inter-Regular-20"/>
      <use x="1028.125168" xlink:href="#Inter-Regular-64"/>
      <use x="1090.199051" xlink:href="#Inter-Regular-61"/>
      <use x="1146.59111" xlink:href="#Inter-Regular-79"/>
      <use x="1202.272934" xlink:href="#Inter-Regular-20"/>
      <use x="1230.397934" xlink:href="#Inter-Regular-28"/>
      <use x="1266.619522" xlink:href="#Inter-Regular-73"/>
      <use x="1318.892258" xlink:href="#Inter-Regular-65"/>
      <use x="1377.130905" xlink:href="#Inter-Regular-76"/>
      <use x="1432.812729" xlink:href="#Inter-Regular-65"/>
      <use x="1491.051376" xlink:href="#Inter-Regular-6e"/>
      <use x="1549.574112" xlink:href="#Inter-Regular-20"/>
      <use x="1577.699112" xlink:href="#Inter-Regular-64"/>
      <use x="1639.772995" xlink:href="#Inter-Regular-61"/>
      <use x="1696.165054" xlink:href="#Inter-Regular-79"/>
      <use x="1751.846878" xlink:href="#Inter-Regular-20"/>
      <use x="1779.971878" xlink:href="#Inter-Regular-61"/>
      <use x="1836.363937" xlink:href="#Inter-Regular-76"/>
      <use x="1892.045761" xlink:href="#Inter-Regular-65"/>
      <use x="1950.284409" xlink:href="#Inter-Regular-72"/>
      <use x="1988.636688" xlink:href="#Inter-Regular-61"/>
      <use x="2045.028748" xlink:href="#Inter-Regular-67"/>
      <use x="2105.966263" xlink:href="#Inter-Regular-65"/>
      <use x="2164.20491" xlink:href="#Inter-Regular-29"/>
     </g>
    </g>
   </g>
   <g id="line2d_26">
    <path clip-path="url(#p43471ef8e0)" d="M 104.532302 270.085911 
L 105.775347 276.797239 
L 107.018393 278.936354 
L 109.504484 303.818681 
L 110.74753 304.055972 
L 111.990575 316.816388 
L 113.233621 318.13886 
L 114.476667 327.420521 
L 115.719712 343.540245 
L 116.962758 349.743549 
L 118.205804 360.008774 
L 119.448849 372.591714 
L 120.691895 383.075944 
L 121.93494 386.843956 
L 123.177986 391.181074 
L 124.421032 389.471952 
L 125.664077 392.721418 
L 126.907123 394.569919 
L 128.150169 395.651869 
L 129.393214 397.868997 
L 130.63626 400.61266 
L 131.879306 402.775017 
L 133.122351 404.227511 
L 134.365397 407.131504 
L 135.608442 409.293606 
L 136.851488 410.824041 
L 138.094534 408.720975 
L 140.580625 410.002022 
L 141.823671 413.616016 
L 143.066716 411.095882 
L 144.309762 409.345988 
L 145.552808 409.110713 
L 146.795853 411.371816 
L 149.281944 413.841447 
L 150.52499 414.886098 
L 151.768036 418.540094 
L 153.011081 417.732864 
L 154.254127 417.905772 
L 155.497173 418.766775 
L 156.740218 418.809522 
L 157.983264 417.894575 
L 159.22631 418.610864 
L 160.469355 417.667641 
L 161.712401 421.565802 
L 162.955446 422.887336 
L 164.198492 423.666586 
L 165.441538 427.374123 
L 166.684583 431.47463 
L 167.927629 432.808122 
L 169.170675 436.091449 
L 170.41372 436.594755 
L 171.656766 437.947203 
L 172.899812 438.476358 
L 174.142857 438.698845 
L 175.385903 437.615064 
L 176.628948 440.878742 
L 177.871994 443.022457 
L 179.11504 445.454475 
L 180.358085 452.478426 
L 181.601131 452.286135 
L 182.844177 452.837813 
L 184.087222 450.620399 
L 185.330268 446.644965 
L 186.573314 448.546666 
L 187.816359 449.159501 
L 189.059405 446.146044 
L 190.30245 450.823775 
L 191.545496 448.643987 
L 192.788542 449.842537 
L 194.031587 451.490223 
L 195.274633 442.719557 
L 196.517679 443.10033 
L 197.760724 439.150317 
L 199.00377 439.798835 
L 200.246816 437.580452 
L 201.489861 439.036213 
L 202.732907 436.586912 
L 203.975952 444.68728 
L 205.218998 447.199771 
L 206.462044 452.707125 
L 207.705089 451.55119 
L 208.948135 447.667208 
L 210.191181 449.083094 
L 211.434226 453.681389 
L 212.677272 455.547812 
L 213.920318 457.709949 
L 215.163363 456.752119 
L 216.406409 452.21707 
L 217.649454 465.75481 
L 218.8925 465.234393 
L 220.135546 468.687338 
L 222.621637 468.036485 
L 223.864683 467.803701 
L 225.107728 472.164468 
L 226.350774 472.042276 
L 227.59382 476.745 
L 242.510367 476.745 
L 243.753413 470.491234 
L 251.211687 470.970164 
L 252.454732 476.745 
L 273.586508 476.745 
L 274.829554 474.638192 
L 277.315645 474.793563 
L 278.558691 473.017223 
L 279.801736 471.436255 
L 282.287827 471.983342 
L 283.530873 473.730127 
L 284.773919 473.871257 
L 286.016964 472.614109 
L 288.503056 475.469171 
L 290.989147 475.584175 
L 293.475238 473.593948 
L 299.690466 474.299149 
L 302.176558 476.002521 
L 303.419603 476.745 
L 304.662649 476.745 
L 305.905695 476.100562 
L 307.14874 474.274055 
L 309.634831 474.492014 
L 310.877877 474.064521 
L 312.120923 473.16799 
L 313.363968 473.335214 
L 314.607014 472.550951 
L 315.85006 473.189439 
L 318.336151 471.930031 
L 319.579197 471.811771 
L 320.822242 472.46982 
L 322.065288 472.092591 
L 323.308333 472.702725 
L 324.551379 472.643148 
L 325.794425 473.167839 
L 327.03747 472.859216 
L 328.280516 472.354021 
L 329.523562 472.603983 
L 332.009653 472.635191 
L 333.252699 473.074442 
L 334.495744 472.733401 
L 339.467927 470.166404 
L 340.710972 469.46199 
L 341.954018 469.114055 
L 343.197064 468.593526 
L 344.440109 469.393593 
L 345.683155 469.26364 
L 346.926201 468.230351 
L 348.169246 468.746031 
L 349.412292 468.071963 
L 351.898383 467.461868 
L 353.141429 467.402362 
L 354.384474 467.67329 
L 355.62752 468.145256 
L 356.870566 467.697934 
L 358.113611 467.962682 
L 359.356657 467.260447 
L 360.599702 467.767642 
L 361.842748 466.866917 
L 363.085794 466.350894 
L 364.328839 465.535387 
L 365.571885 465.514226 
L 366.814931 464.992428 
L 368.057976 465.267977 
L 369.301022 464.311423 
L 370.544068 465.017712 
L 371.787113 464.455452 
L 373.030159 464.986425 
L 374.273204 464.35551 
L 375.51625 464.383815 
L 376.759296 463.737405 
L 378.002341 463.716833 
L 379.245387 462.736154 
L 380.488433 463.21452 
L 381.731478 462.61705 
L 382.974524 462.364812 
L 384.21757 462.482626 
L 385.460615 462.970937 
L 386.703661 462.980433 
L 387.946706 463.685488 
L 391.675843 464.773004 
L 392.918889 464.506485 
L 394.161935 464.467099 
L 395.40498 464.639367 
L 396.648026 464.002758 
L 397.891072 463.985691 
L 399.134117 464.212287 
L 400.377163 463.609513 
L 401.620208 463.9764 
L 402.863254 463.77008 
L 404.1063 463.828251 
L 405.349345 464.508396 
L 406.592391 463.52258 
L 407.835437 463.042982 
L 409.078482 464.286255 
L 410.321528 464.031267 
L 411.564574 464.061594 
L 412.807619 463.826303 
L 414.050665 463.385312 
L 415.29371 464.123449 
L 416.536756 464.580272 
L 417.779802 464.165379 
L 419.022847 464.258072 
L 420.265893 464.004037 
L 421.508939 463.578259 
L 422.751984 462.827959 
L 423.99503 461.685886 
L 427.724167 460.387335 
L 430.210258 461.042061 
L 431.453304 460.792041 
L 432.696349 460.887568 
L 433.939395 460.096726 
L 435.182441 459.770907 
L 437.668532 459.352189 
L 438.911578 459.762785 
L 440.154623 460.305093 
L 441.397669 460.190159 
L 442.640714 460.743005 
L 443.88376 460.81525 
L 445.126806 461.020939 
L 446.369851 461.37306 
L 448.855943 461.100547 
L 450.098988 461.76648 
L 451.342034 462.013909 
L 452.58508 462.741797 
L 453.828125 462.405557 
L 456.314216 462.262595 
L 457.557262 462.525117 
L 460.043353 461.962797 
L 461.286399 460.806463 
L 462.529445 461.770502 
L 463.77249 461.463548 
L 465.015536 460.963539 
L 466.258582 460.589485 
L 467.501627 460.75222 
L 468.744673 460.496858 
L 469.987718 461.400611 
L 471.230764 460.484221 
L 472.47381 460.942836 
L 473.716855 461.693375 
L 474.959901 461.852176 
L 476.202947 462.158089 
L 478.689038 462.444526 
L 479.932083 462.982951 
L 481.175129 463.003719 
L 482.418175 462.866152 
L 484.904266 463.212209 
L 486.147312 463.442328 
L 487.390357 462.698491 
L 489.876449 462.248873 
L 491.119494 461.548811 
L 492.36254 461.621501 
L 493.605585 460.994736 
L 494.848631 460.661978 
L 496.091677 461.219722 
L 497.334722 461.348309 
L 498.577768 461.18425 
L 499.820814 462.166298 
L 501.063859 462.361333 
L 502.306905 461.978507 
L 503.549951 461.432539 
L 504.792996 461.430528 
L 509.765179 463.417871 
L 511.008224 464.3166 
L 512.25127 466.229982 
L 513.494316 466.671248 
L 514.737361 467.358389 
L 515.980407 467.328852 
L 517.223453 467.471282 
L 520.952589 468.713103 
L 522.195635 469.346878 
L 523.438681 469.120177 
L 524.681726 469.435091 
L 525.924772 469.475368 
L 527.167818 469.913779 
L 528.410863 470.483892 
L 529.653909 470.594064 
L 530.896955 471.106225 
L 532.14 471.321989 
L 533.383046 472.6764 
L 534.626091 472.526465 
L 535.869137 472.150756 
L 537.112183 472.511763 
L 538.355228 472.450657 
L 539.598274 472.277114 
L 540.84132 472.545235 
L 542.084365 472.250747 
L 543.327411 473.089367 
L 544.570457 473.503084 
L 545.813502 472.988948 
L 548.299593 473.028648 
L 550.785685 472.617491 
L 552.02873 472.720575 
L 553.271776 473.073252 
L 554.514822 473.796092 
L 557.000913 474.509739 
L 558.243959 474.99723 
L 559.487004 475.10996 
L 560.73005 475.09645 
L 566.945278 474.400276 
L 568.188324 474.911619 
L 569.431369 475.154984 
L 570.674415 474.967179 
L 571.917461 474.918303 
L 573.160506 475.022076 
L 575.646597 475.582327 
L 578.132689 475.15896 
L 579.375734 475.108101 
L 580.61878 475.428104 
L 581.861826 475.1902 
L 583.104871 475.335671 
L 584.347917 474.86773 
L 586.834008 474.71754 
L 588.077054 475.105342 
L 589.320099 475.045279 
L 590.563145 475.48633 
L 591.806191 475.442626 
L 596.778373 476.448885 
L 600.50751 476.427433 
L 601.750556 476.745 
L 604.236647 476.745 
L 605.479693 476.078928 
L 610.451875 476.088167 
L 611.694921 475.768137 
L 612.937966 475.778128 
L 614.181012 476.426393 
L 616.667103 476.437072 
L 619.153195 475.856231 
L 620.39624 476.167401 
L 621.639286 476.182737 
L 625.368423 475.471612 
L 626.611468 475.27557 
L 631.583651 475.507965 
L 632.826697 475.368763 
L 634.069742 475.435563 
L 635.312788 475.855758 
L 636.555834 475.899645 
L 637.798879 475.779655 
L 639.041925 475.825482 
L 640.28497 475.721697 
L 641.528016 475.765892 
L 642.771062 475.941607 
L 644.014107 475.97437 
L 645.257153 475.759329 
L 646.500199 475.798982 
L 647.743244 475.156939 
L 650.229336 475.492014 
L 651.472381 475.236983 
L 652.715427 475.099875 
L 658.930655 475.442365 
L 660.173701 475.662482 
L 661.416746 475.323303 
L 667.631974 475.734169 
L 668.87502 475.756232 
L 670.118066 475.986289 
L 672.604157 475.879269 
L 673.847203 475.561068 
L 675.090248 475.475569 
L 676.333294 475.194793 
L 678.819385 475.020231 
L 692.492887 475.48765 
L 694.978978 475.383175 
L 698.708115 475.568044 
L 701.194207 475.487948 
L 703.680298 475.554039 
L 707.409435 475.154677 
L 708.65248 475.263078 
L 711.138572 475.113791 
L 713.624663 474.997506 
L 714.867709 475.101736 
L 716.110754 475.090175 
L 717.3538 474.94872 
L 719.839891 475.20518 
L 721.082937 475.030043 
L 723.569028 475.044938 
L 723.569028 475.044938 
" style="fill:none;stroke:#003078;stroke-linecap:square;stroke-width:2;"/>
   </g>
   <g id="line2d_27">
    <path clip-path="url(#p43471ef8e0)" d="M 70.970069 333.38945 
L 72.213115 316.300709 
L 73.456161 339.425474 
L 74.699206 301.103745 
L 75.942252 275.74798 
L 77.185298 232.469428 
L 78.428343 201.022986 
L 79.671389 165.678413 
L 80.914435 123.097909 
L 82.15748 94.362934 
L 83.400526 83.861928 
L 84.643571 100.889963 
L 85.886617 93.767634 
L 87.129663 97.061411 
L 88.372708 88.281585 
L 89.615754 88.588771 
L 90.8588 83.397881 
L 92.101845 69.995412 
L 93.344891 54.345 
L 94.587937 58.405238 
L 95.830982 70.632603 
L 97.074028 79.947747 
L 98.317073 83.873655 
L 99.560119 89.400724 
L 100.803165 97.521509 
L 102.04621 110.855863 
L 103.289256 125.580653 
L 104.532302 132.038377 
L 105.775347 148.242082 
L 107.018393 168.457056 
L 109.504484 197.560247 
L 113.233621 250.605224 
L 116.962758 294.64939 
L 118.205804 309.774726 
L 119.448849 320.988895 
L 123.177986 349.86447 
L 124.421032 357.052347 
L 128.150169 375.918934 
L 130.63626 385.675754 
L 131.879306 389.382121 
L 133.122351 393.859039 
L 134.365397 397.41526 
L 135.608442 400.406824 
L 138.094534 404.404619 
L 139.337579 406.481081 
L 140.580625 409.095852 
L 141.823671 409.949798 
L 144.309762 411.989334 
L 145.552808 412.499067 
L 146.795853 414.325177 
L 149.281944 415.113402 
L 150.52499 417.03568 
L 151.768036 417.989324 
L 153.011081 419.596382 
L 154.254127 420.95306 
L 156.740218 420.325834 
L 157.983264 420.436952 
L 159.22631 418.3862 
L 160.469355 417.482949 
L 161.712401 415.713408 
L 165.441538 415.719161 
L 166.684583 415.325177 
L 167.927629 415.897108 
L 169.170675 415.047392 
L 170.41372 415.425237 
L 171.656766 413.732754 
L 172.899812 412.551792 
L 176.628948 412.756381 
L 177.871994 411.671303 
L 179.11504 410.289085 
L 180.358085 410.774679 
L 181.601131 411.063112 
L 182.844177 411.073116 
L 184.087222 407.580023 
L 185.330268 404.825738 
L 186.573314 407.616377 
L 187.816359 408.006974 
L 189.059405 409.737388 
L 190.30245 410.471533 
L 191.545496 412.426997 
L 192.788542 413.712663 
L 194.031587 416.855913 
L 195.274633 415.924369 
L 196.517679 418.647297 
L 197.760724 417.946186 
L 199.00377 418.825668 
L 200.246816 415.776537 
L 201.489861 417.258866 
L 202.732907 414.927781 
L 203.975952 413.469228 
L 205.218998 408.254872 
L 206.462044 405.055167 
L 207.705089 404.064688 
L 208.948135 404.127902 
L 210.191181 402.359805 
L 211.434226 404.65354 
L 212.677272 405.839106 
L 213.920318 413.587495 
L 215.163363 415.87615 
L 217.649454 418.371034 
L 218.8925 422.61898 
L 220.135546 423.137976 
L 221.378591 427.703225 
L 222.621637 428.595781 
L 225.107728 433.345184 
L 228.836865 444.119301 
L 230.079911 446.353842 
L 231.322956 447.748879 
L 232.566002 452.837238 
L 233.809048 454.068558 
L 235.052093 455.77576 
L 236.295139 456.04329 
L 237.538185 458.325743 
L 238.78123 459.029166 
L 240.024276 460.197781 
L 241.267321 460.098309 
L 242.510367 462.407821 
L 243.753413 463.005063 
L 244.996458 463.444158 
L 246.239504 464.145325 
L 247.48255 465.728715 
L 249.968641 468.362969 
L 251.211687 468.125007 
L 252.454732 468.792694 
L 253.697778 469.629968 
L 254.940823 469.327646 
L 256.183869 469.452714 
L 257.426915 470.091068 
L 258.66996 470.072455 
L 259.913006 470.472692 
L 261.156052 470.332982 
L 262.399097 470.41027 
L 263.642143 470.773659 
L 264.885189 470.857431 
L 266.128234 470.653814 
L 268.614325 471.156826 
L 269.857371 471.272294 
L 271.100417 471.743365 
L 272.343462 471.746848 
L 274.829554 472.516695 
L 277.315645 472.460232 
L 278.558691 472.930569 
L 279.801736 472.241039 
L 281.044782 472.863633 
L 282.287827 472.590861 
L 283.530873 471.929526 
L 287.26001 472.110231 
L 288.503056 472.704337 
L 289.746101 472.620825 
L 290.989147 473.335644 
L 293.475238 473.797769 
L 294.718284 473.992685 
L 295.961329 473.582995 
L 297.204375 473.532795 
L 299.690466 472.945781 
L 300.933512 473.0275 
L 302.176558 472.833179 
L 304.662649 472.645738 
L 307.14874 472.513432 
L 308.391786 472.417382 
L 310.877877 471.747673 
L 312.120923 471.531936 
L 313.363968 471.761007 
L 314.607014 471.467296 
L 315.85006 471.461552 
L 317.093105 471.078078 
L 318.336151 470.403819 
L 320.822242 470.563174 
L 324.551379 470.13849 
L 325.794425 470.245937 
L 327.03747 470.632707 
L 328.280516 470.434944 
L 329.523562 469.975194 
L 330.766607 469.899998 
L 334.495744 470.520106 
L 335.73879 470.478856 
L 336.981835 470.659034 
L 338.224881 471.065181 
L 339.467927 471.04448 
L 340.710972 470.818167 
L 341.954018 470.746666 
L 344.440109 470.921772 
L 346.926201 470.594817 
L 348.169246 470.296741 
L 349.412292 470.458564 
L 350.655337 470.2771 
L 353.141429 469.667044 
L 355.62752 469.451397 
L 356.870566 469.701703 
L 358.113611 469.499854 
L 360.599702 469.491096 
L 363.085794 469.473899 
L 369.301022 468.680743 
L 371.787113 468.576273 
L 375.51625 468.279137 
L 376.759296 467.974403 
L 379.245387 468.002116 
L 381.731478 468.017245 
L 384.21757 468.072845 
L 385.460615 468.347054 
L 386.703661 468.311273 
L 387.946706 467.990003 
L 394.161935 467.486159 
L 395.40498 467.30018 
L 404.1063 467.268494 
L 405.349345 467.465051 
L 407.835437 466.890525 
L 411.564574 466.806489 
L 414.050665 466.215124 
L 416.536756 466.011012 
L 421.508939 464.798647 
L 422.751984 464.769398 
L 423.99503 464.442766 
L 431.453304 463.581221 
L 432.696349 463.814926 
L 433.939395 463.856528 
L 436.425486 463.691815 
L 440.154623 464.10101 
L 441.397669 464.128348 
L 443.88376 464.675791 
L 445.126806 465.049282 
L 446.369851 465.209097 
L 447.612897 465.180619 
L 450.098988 465.272197 
L 452.58508 465.223049 
L 453.828125 465.052543 
L 456.314216 464.900871 
L 457.557262 464.753722 
L 460.043353 464.663338 
L 462.529445 464.416995 
L 466.258582 464.217089 
L 468.744673 464.223644 
L 472.47381 464.751954 
L 473.716855 465.132817 
L 476.202947 465.376895 
L 483.66122 466.154886 
L 484.904266 466.498147 
L 487.390357 466.698519 
L 492.36254 466.986388 
L 493.605585 466.882128 
L 496.091677 467.028908 
L 499.820814 466.911254 
L 506.036042 467.114351 
L 507.279087 467.561353 
L 509.765179 467.996186 
L 512.25127 468.518074 
L 514.737361 468.842402 
L 515.980407 468.767522 
L 518.466498 469.300525 
L 519.709544 469.526754 
L 520.952589 469.462225 
L 522.195635 469.595819 
L 524.681726 470.101596 
L 527.167818 470.091853 
L 528.410863 470.019599 
L 529.653909 470.402934 
L 532.14 470.538972 
L 535.869137 471.072572 
L 537.112183 471.445062 
L 538.355228 471.535256 
L 539.598274 471.804467 
L 540.84132 471.755471 
L 545.813502 472.290081 
L 547.056548 472.372018 
L 548.299593 472.659703 
L 549.542639 473.141858 
L 550.785685 473.496206 
L 552.02873 473.548447 
L 553.271776 473.455162 
L 554.514822 473.534741 
L 555.757867 473.803931 
L 558.243959 473.788517 
L 561.973095 474.298296 
L 564.459187 474.172595 
L 566.945278 474.288901 
L 568.188324 473.966706 
L 569.431369 473.973482 
L 571.917461 474.402749 
L 575.646597 474.348484 
L 576.889643 474.468484 
L 578.132689 474.444672 
L 579.375734 474.198372 
L 580.61878 474.188264 
L 581.861826 474.052875 
L 583.104871 474.22967 
L 585.590963 474.318608 
L 588.077054 474.467621 
L 589.320099 474.487153 
L 590.563145 474.69447 
L 594.292282 474.655738 
L 596.778373 474.655089 
L 598.021419 474.762354 
L 605.479693 474.672167 
L 611.694921 475.106049 
L 612.937966 475.447959 
L 614.181012 475.65388 
L 617.910149 475.60905 
L 621.639286 475.508862 
L 622.882332 475.267199 
L 625.368423 475.255421 
L 627.854514 475.190437 
L 631.583651 475.339395 
L 634.069742 475.256227 
L 642.771062 475.842475 
L 644.014107 475.685991 
L 647.743244 475.602286 
L 648.98629 475.547319 
L 650.229336 475.674659 
L 652.715427 475.635471 
L 653.958472 475.494732 
L 655.201518 475.482901 
L 657.687609 475.718477 
L 660.173701 475.553224 
L 662.659792 475.79959 
L 663.902838 475.891841 
L 667.631974 475.839716 
L 671.361111 475.832693 
L 673.847203 475.856926 
L 680.062431 475.908453 
L 688.76375 475.865557 
L 691.249842 475.821446 
L 696.222024 475.775295 
L 703.680298 475.737462 
L 723.569028 475.54252 
L 723.569028 475.54252 
" style="fill:none;stroke:#5694ca;stroke-linecap:square;stroke-width:2;"/>
   </g>
   <g id="line2d_28">
    <path clip-path="url(#p43471ef8e0)" d="M 109.504484 374.992634 
L 110.74753 370.763534 
L 111.990575 377.264146 
L 113.233621 381.784614 
L 114.476667 381.767012 
L 115.719712 386.586354 
L 116.962758 387.269132 
L 118.205804 379.574884 
L 119.448849 391.68641 
L 120.691895 397.944329 
L 121.93494 402.696384 
L 123.177986 411.631089 
L 124.421032 410.592084 
L 125.664077 412.536836 
L 126.907123 412.670048 
L 128.150169 411.345541 
L 129.393214 412.044362 
L 130.63626 410.384568 
L 131.879306 408.987482 
L 133.122351 409.225227 
L 134.365397 414.655715 
L 135.608442 418.280999 
L 136.851488 423.501336 
L 138.094534 422.494107 
L 140.580625 425.340065 
L 141.823671 427.630507 
L 143.066716 427.121925 
L 144.309762 434.301848 
L 145.552808 437.243547 
L 146.795853 440.921859 
L 148.038899 443.909058 
L 149.281944 443.969598 
L 150.52499 448.521509 
L 151.768036 449.40771 
L 153.011081 448.685301 
L 154.254127 442.187768 
L 157.983264 446.720121 
L 159.22631 440.676644 
L 160.469355 438.146347 
L 161.712401 434.231722 
L 162.955446 438.556022 
L 164.198492 438.845826 
L 165.441538 439.324254 
L 166.684583 437.592516 
L 167.927629 443.772209 
L 169.170675 447.77678 
L 170.41372 448.048663 
L 171.656766 448.482543 
L 174.142857 446.377229 
L 175.385903 455.138475 
L 176.628948 454.151126 
L 177.871994 451.12281 
L 179.11504 453.498154 
L 180.358085 458.342462 
L 181.601131 457.373907 
L 182.844177 460.87198 
L 184.087222 462.464371 
L 185.330268 464.301891 
L 186.573314 468.922481 
L 187.816359 474.00553 
L 189.059405 468.05582 
L 190.30245 467.581791 
L 191.545496 463.838391 
L 194.031587 462.358063 
L 196.517679 453.06922 
L 197.760724 456.084001 
L 199.00377 454.988237 
L 200.246816 458.338855 
L 201.489861 457.216025 
L 202.732907 450.475658 
L 203.975952 448.186867 
L 205.218998 451.548757 
L 206.462044 449.047856 
L 207.705089 438.466376 
L 211.434226 427.180581 
L 212.677272 434.66321 
L 213.920318 421.514877 
L 215.163363 429.777025 
L 216.406409 427.283938 
L 217.649454 424.354016 
L 218.8925 421.055117 
L 220.135546 432.170894 
L 221.378591 429.134215 
L 222.621637 442.594856 
L 223.864683 423.207291 
L 225.107728 457.700686 
L 226.350774 456.675223 
L 227.59382 434.251987 
L 228.836865 431.761017 
L 230.079911 428.784136 
L 231.322956 426.376834 
L 232.566002 451.065167 
L 235.052093 452.896088 
L 236.295139 476.745 
L 259.913006 476.745 
L 261.156052 464.939249 
L 263.642143 466.095731 
L 266.128234 467.717073 
L 267.37128 459.512034 
L 268.614325 460.708915 
L 271.100417 463.764547 
L 272.343462 465.169707 
L 273.586508 466.27101 
L 274.829554 467.198454 
L 276.072599 472.433911 
L 277.315645 472.754374 
L 278.558691 476.745 
L 281.044782 476.745 
L 282.287827 473.83439 
L 284.773919 474.235313 
L 286.016964 472.114883 
L 288.503056 472.715547 
L 292.232193 473.390576 
L 293.475238 470.36975 
L 294.718284 472.174632 
L 295.961329 470.927673 
L 297.204375 471.213792 
L 298.447421 468.902887 
L 299.690466 470.520477 
L 300.933512 470.780591 
L 302.176558 472.179297 
L 303.419603 470.161978 
L 304.662649 471.429911 
L 305.905695 471.571557 
L 307.14874 472.691444 
L 308.391786 471.797581 
L 309.634831 470.015635 
L 312.120923 472.254962 
L 313.363968 470.730148 
L 314.607014 470.977823 
L 317.093105 472.95671 
L 318.336151 474.565689 
L 320.822242 474.740797 
L 322.065288 476.105929 
L 323.308333 476.134834 
L 324.551379 475.579924 
L 325.794425 475.641845 
L 328.280516 474.786017 
L 330.766607 474.254874 
L 333.252699 474.649697 
L 334.495744 474.50858 
L 335.73879 474.703656 
L 336.981835 475.157298 
L 338.224881 475.778373 
L 339.467927 476.080065 
L 340.710972 474.920588 
L 341.954018 474.327265 
L 343.197064 474.001822 
L 344.440109 474.051741 
L 345.683155 473.644798 
L 346.926201 473.571048 
L 348.169246 473.377153 
L 349.412292 473.445349 
L 351.898383 473.998008 
L 353.141429 473.705615 
L 354.384474 473.845077 
L 356.870566 473.251775 
L 358.113611 473.470541 
L 360.599702 472.523175 
L 361.842748 472.398131 
L 363.085794 471.722696 
L 364.328839 471.575375 
L 365.571885 471.716538 
L 366.814931 471.463174 
L 368.057976 471.944667 
L 370.544068 471.7342 
L 371.787113 472.231843 
L 373.030159 471.748346 
L 375.51625 471.638792 
L 376.759296 471.167074 
L 378.002341 471.390519 
L 380.488433 470.688622 
L 381.731478 470.905047 
L 382.974524 470.260323 
L 384.21757 469.857226 
L 385.460615 469.793496 
L 386.703661 469.35669 
L 387.946706 469.461478 
L 390.432798 468.539115 
L 391.675843 468.800707 
L 392.918889 469.29112 
L 394.161935 469.156655 
L 395.40498 469.336169 
L 396.648026 469.070984 
L 397.891072 469.41038 
L 399.134117 469.444716 
L 402.863254 467.622184 
L 404.1063 467.436416 
L 406.592391 467.661696 
L 407.835437 468.093164 
L 409.078482 467.819912 
L 410.321528 467.273324 
L 411.564574 466.426469 
L 412.807619 466.331503 
L 414.050665 466.074522 
L 415.29371 464.868681 
L 416.536756 464.438359 
L 417.779802 465.12082 
L 419.022847 465.978324 
L 420.265893 467.680892 
L 421.508939 467.789081 
L 422.751984 467.115745 
L 425.238076 466.83841 
L 426.481121 465.625152 
L 427.724167 464.612904 
L 428.967212 463.018196 
L 430.210258 462.623291 
L 431.453304 462.589917 
L 432.696349 462.744002 
L 433.939395 463.395541 
L 435.182441 464.371552 
L 436.425486 464.25312 
L 437.668532 465.80428 
L 438.911578 466.020219 
L 440.154623 466.758958 
L 441.397669 467.890906 
L 442.640714 467.63753 
L 443.88376 467.811447 
L 445.126806 468.668924 
L 446.369851 468.762102 
L 447.612897 469.617721 
L 448.855943 470.198304 
L 450.098988 469.688595 
L 451.342034 470.312451 
L 452.58508 470.171236 
L 453.828125 470.15501 
L 457.557262 468.857398 
L 458.800308 468.722397 
L 460.043353 468.044782 
L 461.286399 468.171087 
L 462.529445 467.533724 
L 463.77249 467.755188 
L 466.258582 467.907555 
L 467.501627 468.790617 
L 468.744673 469.45271 
L 469.987718 469.490253 
L 471.230764 470.405352 
L 473.716855 471.087197 
L 474.959901 470.959599 
L 476.202947 470.570582 
L 477.445992 469.87261 
L 478.689038 470.004263 
L 481.175129 469.46421 
L 482.418175 469.051919 
L 483.66122 469.747223 
L 484.904266 469.552027 
L 486.147312 470.21675 
L 487.390357 469.957571 
L 488.633403 469.956055 
L 489.876449 470.188292 
L 491.119494 470.831465 
L 492.36254 470.249876 
L 493.605585 470.158422 
L 494.848631 469.85563 
L 496.091677 470.14433 
L 497.334722 470.224617 
L 498.577768 470.441678 
L 499.820814 469.008008 
L 501.063859 469.109839 
L 502.306905 469.671433 
L 503.549951 470.430552 
L 504.792996 470.639625 
L 507.279087 470.210479 
L 508.522133 471.674314 
L 509.765179 471.690552 
L 511.008224 471.893021 
L 512.25127 471.561219 
L 515.980407 472.88795 
L 518.466498 472.625574 
L 520.952589 473.267908 
L 522.195635 472.191062 
L 523.438681 472.03933 
L 524.681726 472.135515 
L 525.924772 470.944017 
L 527.167818 469.963965 
L 528.410863 469.240481 
L 529.653909 469.073936 
L 530.896955 470.65148 
L 532.14 471.13257 
L 533.383046 470.734285 
L 535.869137 474.240132 
L 537.112183 474.820717 
L 539.598274 474.726949 
L 540.84132 473.635343 
L 543.327411 473.469833 
L 544.570457 473.760817 
L 545.813502 474.454399 
L 547.056548 474.407542 
L 548.299593 473.967028 
L 549.542639 474.730336 
L 550.785685 474.700722 
L 552.02873 473.430947 
L 554.514822 473.349651 
L 555.757867 472.8806 
L 559.487004 472.692669 
L 560.73005 473.517207 
L 561.973095 472.499233 
L 563.216141 471.903704 
L 566.945278 471.522053 
L 568.188324 472.47431 
L 571.917461 472.26879 
L 573.160506 472.790664 
L 574.403552 472.741779 
L 575.646597 473.272412 
L 576.889643 472.647289 
L 578.132689 473.192343 
L 580.61878 471.9033 
L 581.861826 472.440617 
L 585.590963 472.228134 
L 586.834008 471.501427 
L 588.077054 473.414895 
L 589.320099 474.044378 
L 593.049236 474.005674 
L 595.535328 475.376199 
L 599.264464 475.391186 
L 600.50751 476.067108 
L 602.993601 476.060994 
L 604.236647 475.367382 
L 609.20883 475.31545 
L 610.451875 473.856943 
L 614.181012 473.775422 
L 615.424058 474.498512 
L 617.910149 474.477294 
L 619.153195 475.986725 
L 620.39624 475.983316 
L 621.639286 476.745 
L 624.125377 476.745 
L 625.368423 475.963981 
L 629.09756 475.941418 
L 630.340605 475.12204 
L 632.826697 475.091911 
L 634.069742 475.912601 
L 646.500199 475.900203 
L 647.743244 476.745 
L 666.388929 476.745 
L 667.631974 476.260079 
L 675.090248 476.413757 
L 676.333294 476.745 
L 680.062431 475.980235 
L 685.034613 476.136011 
L 686.277659 475.793798 
L 687.520705 476.03782 
L 688.76375 476.083471 
L 693.735933 475.664222 
L 694.978978 475.853071 
L 696.222024 475.704377 
L 699.951161 475.87535 
L 701.194207 475.750563 
L 703.680298 475.301644 
L 704.923344 475.134471 
L 706.166389 474.762122 
L 707.409435 474.619311 
L 711.138572 474.964246 
L 712.381617 475.004019 
L 713.624663 475.165071 
L 714.867709 475.14061 
L 716.110754 475.233823 
L 721.082937 474.979859 
L 722.325982 474.95009 
L 723.569028 475.287226 
L 723.569028 475.287226 
" style="fill:none;stroke:#ffdd00;stroke-linecap:square;stroke-width:2;"/>
   </g>
   <g id="line2d_29">
    <path clip-path="url(#p43471ef8e0)" d="M 100.803165 320.336491 
L 102.04621 319.725853 
L 103.289256 319.26473 
L 104.532302 324.314436 
L 105.775347 333.454288 
L 107.018393 347.199756 
L 108.261439 350.546519 
L 109.504484 350.840636 
L 110.74753 352.898419 
L 111.990575 364.855994 
L 113.233621 372.922225 
L 114.476667 376.827199 
L 115.719712 373.672803 
L 116.962758 381.834759 
L 118.205804 388.354936 
L 119.448849 396.144016 
L 120.691895 398.355285 
L 121.93494 401.405183 
L 123.177986 407.696543 
L 124.421032 415.423154 
L 125.664077 416.489319 
L 128.150169 428.42887 
L 129.393214 429.337165 
L 130.63626 431.137128 
L 131.879306 434.386753 
L 133.122351 437.128186 
L 134.365397 441.157141 
L 135.608442 440.633456 
L 136.851488 441.16068 
L 138.094534 441.526782 
L 139.337579 444.825026 
L 140.580625 444.892998 
L 141.823671 442.663236 
L 143.066716 441.445416 
L 144.309762 441.450811 
L 145.552808 439.993052 
L 146.795853 443.486037 
L 148.038899 444.638807 
L 149.281944 445.014816 
L 150.52499 446.514449 
L 151.768036 447.506028 
L 154.254127 450.202434 
L 155.497173 448.501274 
L 156.740218 445.792402 
L 157.983264 444.627049 
L 159.22631 445.51587 
L 160.469355 444.646452 
L 161.712401 447.044997 
L 162.955446 447.369584 
L 165.441538 450.515475 
L 166.684583 449.434417 
L 167.927629 448.792483 
L 169.170675 448.597346 
L 170.41372 448.531202 
L 171.656766 444.823984 
L 172.899812 443.773274 
L 174.142857 441.770858 
L 175.385903 443.428394 
L 176.628948 443.163091 
L 177.871994 444.893073 
L 179.11504 443.656926 
L 180.358085 445.042412 
L 181.601131 448.058712 
L 182.844177 447.977262 
L 184.087222 446.666043 
L 185.330268 447.070527 
L 186.573314 446.930386 
L 187.816359 446.068446 
L 189.059405 449.474208 
L 190.30245 448.656151 
L 191.545496 449.677209 
L 192.788542 450.170498 
L 194.031587 450.054455 
L 195.274633 446.24314 
L 196.517679 449.740643 
L 197.760724 452.624398 
L 199.00377 451.600064 
L 200.246816 452.99224 
L 201.489861 452.875077 
L 202.732907 455.522538 
L 203.975952 461.319261 
L 205.218998 455.559287 
L 206.462044 445.441157 
L 207.705089 446.6643 
L 208.948135 442.772721 
L 210.191181 445.385974 
L 211.434226 443.802184 
L 212.677272 440.026611 
L 213.920318 441.969751 
L 215.163363 448.518484 
L 216.406409 450.455927 
L 217.649454 454.950273 
L 218.8925 454.723393 
L 220.135546 455.545207 
L 222.621637 462.514644 
L 223.864683 464.831434 
L 225.107728 464.526435 
L 226.350774 465.562868 
L 227.59382 468.104738 
L 230.079911 467.50717 
L 231.322956 468.759352 
L 233.809048 468.211932 
L 235.052093 469.722874 
L 236.295139 469.469286 
L 237.538185 472.968117 
L 238.78123 472.826888 
L 240.024276 470.64904 
L 241.267321 472.488072 
L 242.510367 470.035577 
L 244.996458 459.531525 
L 247.48255 452.472063 
L 248.725595 443.007013 
L 249.968641 436.09622 
L 251.211687 425.949985 
L 252.454732 424.465171 
L 253.697778 423.215906 
L 254.940823 423.060411 
L 256.183869 416.932803 
L 257.426915 420.271602 
L 258.66996 427.083882 
L 259.913006 424.624898 
L 261.156052 425.551317 
L 262.399097 432.241856 
L 263.642143 429.80871 
L 264.885189 441.716076 
L 266.128234 447.625904 
L 267.37128 444.778213 
L 268.614325 456.42061 
L 269.857371 462.2566 
L 271.100417 462.211405 
L 272.343462 467.993644 
L 273.586508 462.139811 
L 277.315645 470.842124 
L 278.558691 467.801658 
L 279.801736 467.733703 
L 281.044782 464.567306 
L 282.287827 470.579898 
L 284.773919 470.506188 
L 286.016964 470.534405 
L 287.26001 473.664633 
L 288.503056 473.704125 
L 289.746101 470.796366 
L 292.232193 471.13168 
L 293.475238 468.593351 
L 295.961329 469.215938 
L 297.204375 469.589018 
L 298.447421 474.513499 
L 300.933512 474.866619 
L 302.176558 476.745 
L 303.419603 475.184177 
L 304.662649 475.324556 
L 305.905695 474.157149 
L 307.14874 474.379139 
L 308.391786 472.368466 
L 309.634831 470.648565 
L 310.877877 469.19178 
L 312.120923 470.587797 
L 314.607014 471.365789 
L 317.093105 470.697707 
L 318.336151 470.50171 
L 319.579197 472.114677 
L 320.822242 471.916963 
L 323.308333 470.753916 
L 324.551379 470.307512 
L 327.03747 470.35243 
L 328.280516 468.960953 
L 329.523562 469.085562 
L 330.766607 467.660709 
L 332.009653 468.175167 
L 333.252699 466.723174 
L 334.495744 467.264555 
L 335.73879 466.050863 
L 336.981835 466.413719 
L 338.224881 466.111283 
L 339.467927 467.723171 
L 340.710972 467.973539 
L 341.954018 469.512595 
L 343.197064 469.137745 
L 344.440109 470.193531 
L 345.683155 470.331759 
L 346.926201 470.626828 
L 348.169246 470.745894 
L 349.412292 470.02597 
L 350.655337 469.104329 
L 351.898383 469.973874 
L 353.141429 469.510193 
L 354.384474 467.308031 
L 355.62752 467.088501 
L 356.870566 466.263968 
L 358.113611 466.138848 
L 359.356657 466.368371 
L 360.599702 464.915981 
L 361.842748 465.585024 
L 363.085794 466.665599 
L 364.328839 466.851989 
L 365.571885 467.503626 
L 366.814931 466.893753 
L 368.057976 467.103653 
L 369.301022 467.438496 
L 373.030159 465.937256 
L 374.273204 465.96542 
L 375.51625 466.116915 
L 376.759296 465.526029 
L 378.002341 465.340111 
L 379.245387 465.006848 
L 380.488433 465.274638 
L 382.974524 464.84824 
L 385.460615 465.533575 
L 386.703661 465.493492 
L 387.946706 466.174744 
L 389.189752 466.2914 
L 390.432798 466.859457 
L 391.675843 466.294405 
L 394.161935 465.926358 
L 395.40498 466.530797 
L 396.648026 466.504127 
L 397.891072 466.156134 
L 400.377163 465.3001 
L 401.620208 465.26118 
L 402.863254 465.655079 
L 404.1063 465.459389 
L 405.349345 465.033833 
L 406.592391 465.170436 
L 407.835437 465.14797 
L 409.078482 465.98128 
L 410.321528 466.114699 
L 411.564574 466.082647 
L 412.807619 465.896827 
L 414.050665 465.966578 
L 415.29371 465.892011 
L 416.536756 466.249944 
L 417.779802 465.868491 
L 419.022847 466.299224 
L 422.751984 465.359688 
L 423.99503 465.137167 
L 425.238076 464.607737 
L 426.481121 465.127771 
L 427.724167 465.179499 
L 428.967212 465.52536 
L 433.939395 467.956132 
L 435.182441 467.834866 
L 436.425486 468.253161 
L 437.668532 468.064314 
L 438.911578 468.067226 
L 440.154623 467.732257 
L 441.397669 467.702993 
L 442.640714 467.095935 
L 443.88376 467.520758 
L 445.126806 466.949198 
L 446.369851 467.395622 
L 448.855943 467.630079 
L 451.342034 468.410918 
L 452.58508 468.466697 
L 453.828125 468.873224 
L 455.071171 468.463227 
L 456.314216 468.294011 
L 457.557262 468.496286 
L 458.800308 468.040998 
L 460.043353 467.994725 
L 461.286399 467.657613 
L 462.529445 467.828922 
L 463.77249 467.883521 
L 465.015536 468.233567 
L 466.258582 468.003142 
L 467.501627 468.452402 
L 468.744673 468.383225 
L 469.987718 468.467095 
L 471.230764 467.972781 
L 472.47381 468.323279 
L 473.716855 467.674273 
L 474.959901 468.028658 
L 476.202947 467.964129 
L 477.445992 467.560469 
L 479.932083 467.887247 
L 481.175129 467.455001 
L 482.418175 467.290467 
L 483.66122 466.666827 
L 484.904266 466.60695 
L 486.147312 467.081493 
L 487.390357 466.247729 
L 488.633403 465.971972 
L 489.876449 466.178424 
L 491.119494 466.631806 
L 493.605585 466.4971 
L 494.848631 465.811774 
L 496.091677 465.935032 
L 498.577768 464.511101 
L 499.820814 464.462474 
L 501.063859 464.535227 
L 502.306905 464.444595 
L 503.549951 464.655973 
L 504.792996 464.549491 
L 507.279087 464.797125 
L 508.522133 464.069414 
L 509.765179 463.762438 
L 511.008224 462.952674 
L 512.25127 463.222994 
L 513.494316 463.246652 
L 514.737361 464.633293 
L 515.980407 464.735113 
L 517.223453 464.497334 
L 519.709544 465.70674 
L 520.952589 466.919048 
L 522.195635 467.314972 
L 523.438681 466.43217 
L 524.681726 466.844655 
L 525.924772 468.32709 
L 527.167818 467.858518 
L 528.410863 468.647854 
L 529.653909 468.353006 
L 530.896955 468.992123 
L 532.14 468.28025 
L 533.383046 468.543863 
L 534.626091 468.581913 
L 535.869137 468.85569 
L 537.112183 468.91857 
L 538.355228 467.929849 
L 539.598274 468.814194 
L 540.84132 470.027083 
L 542.084365 470.143971 
L 543.327411 470.553424 
L 544.570457 471.308177 
L 545.813502 471.470012 
L 547.056548 473.254222 
L 548.299593 472.863609 
L 549.542639 473.452381 
L 552.02873 474.035122 
L 553.271776 474.682167 
L 554.514822 474.30218 
L 555.757867 472.8358 
L 557.000913 472.751265 
L 559.487004 473.323816 
L 560.73005 472.473436 
L 561.973095 472.380014 
L 563.216141 472.68381 
L 564.459187 473.848147 
L 565.702232 473.372364 
L 566.945278 473.306696 
L 568.188324 472.770316 
L 569.431369 473.562319 
L 570.674415 472.070083 
L 571.917461 471.920356 
L 573.160506 472.745811 
L 574.403552 472.574657 
L 575.646597 471.313057 
L 576.889643 472.238249 
L 578.132689 471.47935 
L 579.375734 472.482807 
L 580.61878 472.941874 
L 581.861826 471.462945 
L 583.104871 472.6128 
L 584.347917 473.14509 
L 585.590963 472.22478 
L 588.077054 473.443632 
L 589.320099 472.434196 
L 590.563145 474.068847 
L 593.049236 473.951562 
L 594.292282 474.83163 
L 595.535328 473.794007 
L 596.778373 473.707665 
L 598.021419 472.596704 
L 599.264464 470.313436 
L 602.993601 469.580503 
L 604.236647 470.630754 
L 605.479693 470.472592 
L 606.722738 472.88238 
L 607.965784 471.494304 
L 609.20883 471.46027 
L 610.451875 472.738851 
L 611.694921 471.308869 
L 614.181012 465.54126 
L 615.424058 465.41476 
L 616.667103 469.554307 
L 620.39624 469.259715 
L 621.639286 470.691471 
L 622.882332 473.689524 
L 627.854514 473.59699 
L 630.340605 476.745 
L 634.069742 476.745 
L 635.312788 475.16776 
L 639.041925 475.22474 
L 640.28497 473.78754 
L 642.771062 473.975873 
L 644.014107 475.405916 
L 647.743244 475.581794 
L 648.98629 476.745 
L 651.472381 476.745 
L 652.715427 474.808338 
L 653.958472 474.901264 
L 655.201518 474.145806 
L 656.444564 474.307072 
L 657.687609 473.700043 
L 660.173701 474.141656 
L 661.416746 475.536089 
L 662.659792 475.628868 
L 663.902838 476.232553 
L 665.145883 475.798621 
L 666.388929 476.30908 
L 667.631974 476.341556 
L 670.118066 475.702567 
L 672.604157 475.842748 
L 673.847203 476.190315 
L 675.090248 475.973207 
L 678.819385 476.11646 
L 680.062431 475.957594 
L 681.305476 475.999945 
L 682.548522 475.683928 
L 687.520705 475.328074 
L 688.76375 475.403175 
L 690.006796 475.225153 
L 693.735933 475.534866 
L 694.978978 475.683427 
L 697.46507 475.454216 
L 699.951161 475.417653 
L 701.194207 475.161679 
L 702.437252 475.18881 
L 704.923344 475.503117 
L 708.65248 475.268692 
L 709.895526 475.61875 
L 711.138572 475.619467 
L 712.381617 475.446222 
L 713.624663 475.532727 
L 714.867709 475.792323 
L 717.3538 475.881881 
L 718.596845 475.876936 
L 719.839891 475.70432 
L 721.082937 475.791063 
L 722.325982 475.530922 
L 722.325982 475.530922 
" style="fill:none;stroke:#d4351c;stroke-linecap:square;stroke-width:2;"/>
   </g>
   <g id="patch_3">
    <path d="M 62.26875 476.745 
L 62.26875 33.225 
" style="fill:none;stroke:#000000;stroke-linecap:square;stroke-linejoin:miter;stroke-width:0.8;"/>
   </g>
   <g id="patch_4">
    <path d="M 62.26875 476.745 
L 731.86875 476.745 
" style="fill:none;stroke:#000000;stroke-linecap:square;stroke-linejoin:miter;stroke-width:0.8;"/>
   </g>
   <g id="text_19">
    <!-- Mortality of COVID-19 in UK nations (averaged) -->
    <g transform="translate(258.0375 27.225)scale(0.12 -0.12)">
     <defs>
      <path d="M 405 4655 
L 1618 4655 
L 2900 1527 
L 2955 1527 
L 4236 4655 
L 5450 4655 
L 5450 0 
L 4496 0 
L 4496 3030 
L 4457 3030 
L 3252 23 
L 2602 23 
L 1398 3041 
L 1359 3041 
L 1359 0 
L 405 0 
L 405 4655 
z
" id="Inter-Bold-4d" transform="scale(0.015625)"/>
      <path d="M 1964 -68 
Q 1434 -68 1049 158 
Q 664 384 455 789 
Q 246 1195 246 1732 
Q 246 2273 455 2678 
Q 664 3084 1049 3310 
Q 1434 3536 1964 3536 
Q 2493 3536 2878 3310 
Q 3264 3084 3473 2678 
Q 3682 2273 3682 1732 
Q 3682 1195 3473 789 
Q 3264 384 2878 158 
Q 2493 -68 1964 -68 
z
M 1968 682 
Q 2327 682 2512 982 
Q 2698 1282 2698 1739 
Q 2698 2195 2512 2496 
Q 2327 2798 1968 2798 
Q 1602 2798 1416 2496 
Q 1230 2195 1230 1739 
Q 1230 1282 1416 982 
Q 1602 682 1968 682 
z
" id="Inter-Bold-6f" transform="scale(0.015625)"/>
      <path d="M 386 0 
L 386 3491 
L 1325 3491 
L 1325 2882 
L 1361 2882 
Q 1457 3207 1681 3374 
Q 1905 3541 2200 3541 
Q 2341 3541 2461 3507 
Q 2582 3473 2677 3414 
L 2386 2614 
Q 2318 2648 2237 2671 
Q 2157 2695 2057 2695 
Q 1764 2695 1560 2495 
Q 1357 2295 1355 1975 
L 1355 0 
L 386 0 
z
" id="Inter-Bold-72" transform="scale(0.015625)"/>
      <path d="M 2243 3491 
L 2243 2764 
L 1586 2764 
L 1586 1073 
Q 1586 873 1677 802 
Q 1768 732 1914 732 
Q 1982 732 2050 744 
Q 2118 757 2155 764 
L 2307 43 
Q 2234 20 2102 -10 
Q 1971 -41 1782 -48 
Q 1255 -70 935 181 
Q 616 432 618 945 
L 618 2764 
L 141 2764 
L 141 3491 
L 618 3491 
L 618 4327 
L 1586 4327 
L 1586 3491 
L 2243 3491 
z
" id="Inter-Bold-74" transform="scale(0.015625)"/>
      <path d="M 1382 -66 
Q 882 -66 552 195 
Q 223 457 223 975 
Q 223 1366 407 1588 
Q 591 1811 890 1914 
Q 1189 2018 1534 2050 
Q 1989 2095 2184 2145 
Q 2380 2195 2380 2364 
L 2380 2377 
Q 2380 2593 2244 2711 
Q 2109 2830 1861 2830 
Q 1600 2830 1445 2716 
Q 1291 2602 1241 2427 
L 346 2500 
Q 446 2977 842 3256 
Q 1239 3536 1866 3536 
Q 2255 3536 2593 3413 
Q 2932 3291 3140 3030 
Q 3348 2770 3348 2355 
L 3348 0 
L 2430 0 
L 2430 484 
L 2402 484 
Q 2275 241 2021 87 
Q 1768 -66 1382 -66 
z
M 1659 602 
Q 1977 602 2181 787 
Q 2386 973 2386 1248 
L 2386 1618 
Q 2330 1580 2210 1550 
Q 2091 1520 1956 1498 
Q 1821 1477 1714 1461 
Q 1459 1425 1303 1318 
Q 1148 1211 1148 1007 
Q 1148 807 1292 704 
Q 1436 602 1659 602 
z
" id="Inter-Bold-61" transform="scale(0.015625)"/>
      <path d="M 1355 4655 
L 1355 0 
L 386 0 
L 386 4655 
L 1355 4655 
z
" id="Inter-Bold-6c" transform="scale(0.015625)"/>
      <path d="M 386 0 
L 386 3491 
L 1355 3491 
L 1355 0 
L 386 0 
z
M 876 3941 
Q 662 3941 507 4085 
Q 353 4230 353 4432 
Q 353 4634 507 4777 
Q 662 4920 876 4920 
Q 1092 4920 1246 4777 
Q 1401 4634 1401 4432 
Q 1401 4230 1246 4085 
Q 1092 3941 876 3941 
z
" id="Inter-Bold-69" transform="scale(0.015625)"/>
      <path d="M 950 -1359 
Q 743 -1359 596 -1324 
Q 450 -1289 368 -1252 
L 586 -502 
Q 843 -580 1019 -543 
Q 1196 -507 1298 -268 
L 1361 -100 
L 109 3491 
L 1127 3491 
L 1850 927 
L 1886 927 
L 2616 3491 
L 3641 3491 
L 2277 -400 
Q 2130 -818 1806 -1088 
Q 1482 -1359 950 -1359 
z
" id="Inter-Bold-79" transform="scale(0.015625)"/>
      <path id="Inter-Bold-20" transform="scale(0.015625)"/>
      <path d="M 2296 3491 
L 2296 2764 
L 1602 2764 
L 1602 0 
L 634 0 
L 634 2764 
L 141 2764 
L 141 3491 
L 634 3491 
L 634 3743 
Q 634 4314 960 4593 
Q 1286 4873 1780 4873 
Q 2002 4873 2187 4839 
Q 2373 4805 2464 4777 
L 2293 4050 
Q 2236 4068 2152 4084 
Q 2068 4100 1982 4100 
Q 1768 4100 1685 4001 
Q 1602 3902 1602 3725 
L 1602 3491 
L 2296 3491 
z
" id="Inter-Bold-66" transform="scale(0.015625)"/>
      <path d="M 4511 3025 
L 3516 3025 
Q 3459 3409 3188 3628 
Q 2918 3848 2514 3848 
Q 1973 3848 1647 3451 
Q 1321 3055 1321 2327 
Q 1321 1582 1649 1194 
Q 1977 807 2507 807 
Q 2900 807 3173 1012 
Q 3446 1218 3516 1591 
L 4511 1586 
Q 4459 1159 4207 782 
Q 3955 405 3522 170 
Q 3089 -64 2491 -64 
Q 1868 -64 1378 218 
Q 889 500 606 1034 
Q 323 1568 323 2327 
Q 323 3089 609 3623 
Q 896 4157 1386 4437 
Q 1877 4718 2491 4718 
Q 3030 4718 3463 4519 
Q 3896 4320 4172 3942 
Q 4448 3564 4511 3025 
z
" id="Inter-Bold-43" transform="scale(0.015625)"/>
      <path d="M 4682 2327 
Q 4682 1566 4394 1032 
Q 4107 498 3614 217 
Q 3121 -64 2502 -64 
Q 1882 -64 1389 218 
Q 896 500 609 1035 
Q 323 1570 323 2327 
Q 323 3089 609 3623 
Q 896 4157 1389 4437 
Q 1882 4718 2502 4718 
Q 3121 4718 3614 4437 
Q 4107 4157 4394 3623 
Q 4682 3089 4682 2327 
z
M 3684 2327 
Q 3684 3068 3361 3458 
Q 3039 3848 2502 3848 
Q 1966 3848 1643 3458 
Q 1321 3068 1321 2327 
Q 1321 1589 1643 1198 
Q 1966 807 2502 807 
Q 3039 807 3361 1198 
Q 3684 1589 3684 2327 
z
" id="Inter-Bold-4f" transform="scale(0.015625)"/>
      <path d="M 1246 4655 
L 2371 1118 
L 2414 1118 
L 3541 4655 
L 4632 4655 
L 3027 0 
L 1759 0 
L 152 4655 
L 1246 4655 
z
" id="Inter-Bold-56" transform="scale(0.015625)"/>
      <path d="M 1389 4655 
L 1389 0 
L 405 0 
L 405 4655 
L 1389 4655 
z
" id="Inter-Bold-49" transform="scale(0.015625)"/>
      <path d="M 2055 0 
L 405 0 
L 405 4655 
L 2068 4655 
Q 2771 4655 3278 4376 
Q 3786 4098 4059 3577 
Q 4332 3057 4332 2332 
Q 4332 1605 4058 1082 
Q 3784 559 3274 279 
Q 2764 0 2055 0 
z
M 1389 843 
L 2014 843 
Q 2671 843 3010 1197 
Q 3350 1552 3350 2332 
Q 3350 3107 3010 3459 
Q 2671 3811 2016 3811 
L 1389 3811 
L 1389 843 
z
" id="Inter-Bold-44" transform="scale(0.015625)"/>
      <path d="M 2561 2295 
L 2561 1527 
L 439 1527 
L 439 2295 
L 2561 2295 
z
" id="Inter-Bold-2d" transform="scale(0.015625)"/>
      <path d="M 2305 4655 
L 2305 0 
L 1323 0 
L 1323 3450 
L 1280 3450 
Q 1205 3334 961 3219 
Q 718 3105 332 3105 
L 332 3886 
Q 632 3886 857 4019 
Q 1082 4152 1209 4333 
Q 1336 4514 1341 4655 
L 2305 4655 
z
" id="Inter-Bold-31" transform="scale(0.015625)"/>
      <path d="M 2061 4732 
Q 2421 4732 2753 4612 
Q 3086 4493 3348 4227 
Q 3611 3961 3766 3523 
Q 3921 3086 3921 2448 
Q 3921 1659 3686 1096 
Q 3452 534 3028 235 
Q 2605 -64 2027 -64 
Q 1561 -64 1204 117 
Q 848 298 631 610 
Q 414 923 368 1314 
L 1339 1314 
Q 1396 1059 1577 919 
Q 1759 780 2027 780 
Q 2482 780 2718 1176 
Q 2955 1573 2957 2264 
L 2925 2264 
Q 2771 1957 2453 1782 
Q 2136 1607 1752 1607 
Q 1341 1607 1016 1801 
Q 691 1995 506 2334 
Q 321 2673 323 3109 
Q 321 3582 539 3949 
Q 757 4316 1149 4525 
Q 1541 4734 2061 4732 
z
M 2068 3959 
Q 1725 3959 1500 3722 
Q 1275 3486 1277 3136 
Q 1275 2791 1496 2555 
Q 1718 2320 2059 2320 
Q 2284 2320 2465 2431 
Q 2646 2543 2751 2729 
Q 2857 2916 2859 3141 
Q 2857 3366 2753 3551 
Q 2650 3736 2473 3847 
Q 2296 3959 2068 3959 
z
" id="Inter-Bold-39" transform="scale(0.015625)"/>
      <path d="M 1355 2018 
L 1355 0 
L 386 0 
L 386 3491 
L 1309 3491 
L 1309 2875 
L 1350 2875 
Q 1468 3180 1739 3358 
Q 2011 3536 2400 3536 
Q 2946 3536 3275 3185 
Q 3605 2834 3605 2223 
L 3605 0 
L 2636 0 
L 2636 2050 
Q 2639 2370 2473 2551 
Q 2307 2732 2016 2732 
Q 1723 2732 1540 2544 
Q 1357 2357 1355 2018 
z
" id="Inter-Bold-6e" transform="scale(0.015625)"/>
      <path d="M 3286 4655 
L 4264 4655 
L 4264 1577 
Q 4264 1050 4016 683 
Q 3768 316 3333 125 
Q 2898 -66 2334 -66 
Q 1771 -66 1334 125 
Q 898 316 651 683 
Q 405 1050 405 1577 
L 405 4655 
L 1389 4655 
L 1389 1611 
Q 1389 1239 1658 1025 
Q 1927 811 2334 811 
Q 2748 811 3017 1025 
Q 3286 1239 3286 1611 
L 3286 4655 
z
" id="Inter-Bold-55" transform="scale(0.015625)"/>
      <path d="M 405 0 
L 405 4655 
L 1389 4655 
L 1389 2602 
L 1450 2602 
L 3125 4655 
L 4305 4655 
L 2577 2570 
L 4325 0 
L 3148 0 
L 1873 1914 
L 1389 1323 
L 1389 0 
L 405 0 
z
" id="Inter-Bold-4b" transform="scale(0.015625)"/>
      <path d="M 3291 2495 
L 2405 2441 
Q 2368 2609 2220 2729 
Q 2073 2850 1821 2850 
Q 1596 2850 1440 2755 
Q 1284 2661 1286 2505 
Q 1284 2380 1385 2293 
Q 1486 2207 1730 2155 
L 2361 2027 
Q 3368 1820 3371 1082 
Q 3371 739 3169 479 
Q 2968 220 2618 76 
Q 2268 -68 1816 -68 
Q 1123 -68 711 221 
Q 300 511 232 1011 
L 1184 1061 
Q 1230 848 1394 739 
Q 1559 630 1818 630 
Q 2073 630 2228 730 
Q 2384 830 2386 984 
Q 2380 1243 1939 1332 
L 1334 1452 
Q 321 1655 325 2450 
Q 323 2955 728 3245 
Q 1134 3536 1805 3536 
Q 2466 3536 2846 3256 
Q 3227 2977 3291 2495 
z
" id="Inter-Bold-73" transform="scale(0.015625)"/>
      <path d="M 600 1866 
Q 600 3543 1518 4741 
L 2443 4741 
Q 2207 4441 2017 3971 
Q 1827 3502 1717 2953 
Q 1607 2405 1607 1866 
Q 1607 1327 1717 778 
Q 1827 230 2017 -240 
Q 2207 -711 2443 -1011 
L 1518 -1011 
Q 600 186 600 1866 
z
" id="Inter-Bold-28" transform="scale(0.015625)"/>
      <path d="M 3641 3491 
L 2421 0 
L 1330 0 
L 109 3491 
L 1132 3491 
L 1857 993 
L 1893 993 
L 2616 3491 
L 3641 3491 
z
" id="Inter-Bold-76" transform="scale(0.015625)"/>
      <path d="M 1977 -68 
Q 1441 -68 1052 151 
Q 664 370 455 773 
Q 246 1177 246 1730 
Q 246 2268 455 2675 
Q 664 3082 1044 3309 
Q 1425 3536 1939 3536 
Q 2400 3536 2771 3340 
Q 3143 3145 3361 2751 
Q 3580 2357 3580 1764 
L 3580 1498 
L 1202 1498 
L 1202 1495 
Q 1202 1105 1416 880 
Q 1630 655 1993 655 
Q 2236 655 2413 757 
Q 2591 859 2664 1059 
L 3559 1000 
Q 3457 514 3041 223 
Q 2625 -68 1977 -68 
z
M 1202 2098 
L 2668 2098 
Q 2666 2409 2468 2611 
Q 2271 2814 1955 2814 
Q 1632 2814 1425 2604 
Q 1218 2395 1202 2098 
z
" id="Inter-Bold-65" transform="scale(0.015625)"/>
      <path d="M 1959 -1359 
Q 1255 -1359 852 -1082 
Q 450 -805 364 -409 
L 1259 -289 
Q 1318 -430 1489 -547 
Q 1661 -664 1982 -664 
Q 2298 -664 2503 -514 
Q 2709 -364 2709 -20 
L 2709 618 
L 2668 618 
Q 2573 402 2332 226 
Q 2091 50 1673 50 
Q 1280 50 958 234 
Q 636 418 446 795 
Q 257 1173 257 1752 
Q 257 2348 451 2743 
Q 646 3139 967 3337 
Q 1289 3536 1671 3536 
Q 1964 3536 2161 3437 
Q 2359 3339 2482 3193 
Q 2605 3048 2668 2905 
L 2705 2905 
L 2705 3491 
L 3666 3491 
L 3666 -34 
Q 3666 -468 3446 -763 
Q 3227 -1059 2843 -1209 
Q 2459 -1359 1959 -1359 
z
M 1980 777 
Q 2330 777 2522 1036 
Q 2714 1295 2714 1757 
Q 2714 2216 2523 2491 
Q 2332 2766 1980 2766 
Q 1621 2766 1433 2484 
Q 1246 2202 1246 1757 
Q 1246 1305 1434 1041 
Q 1623 777 1980 777 
z
" id="Inter-Bold-67" transform="scale(0.015625)"/>
      <path d="M 1673 -57 
Q 1275 -57 954 149 
Q 634 355 445 756 
Q 257 1157 257 1741 
Q 257 2341 451 2740 
Q 646 3139 967 3337 
Q 1289 3536 1671 3536 
Q 1964 3536 2160 3437 
Q 2357 3339 2478 3193 
Q 2600 3048 2664 2905 
L 2693 2905 
L 2693 4655 
L 3659 4655 
L 3659 0 
L 2705 0 
L 2705 559 
L 2664 559 
Q 2598 414 2473 272 
Q 2348 130 2151 36 
Q 1955 -57 1673 -57 
z
M 1980 714 
Q 2330 714 2522 997 
Q 2714 1280 2714 1745 
Q 2714 2214 2523 2490 
Q 2332 2766 1980 2766 
Q 1621 2766 1433 2483 
Q 1246 2200 1246 1745 
Q 1246 1289 1434 1001 
Q 1623 714 1980 714 
z
" id="Inter-Bold-64" transform="scale(0.015625)"/>
      <path d="M 2016 1846 
Q 2016 169 1098 -1029 
L 173 -1029 
Q 409 -729 599 -259 
Q 789 210 899 758 
Q 1009 1307 1009 1846 
Q 1009 2385 899 2933 
Q 789 3482 599 3952 
Q 409 4423 173 4723 
L 1098 4723 
Q 2016 3526 2016 1846 
z
" id="Inter-Bold-29" transform="scale(0.015625)"/>
     </defs>
     <use xlink:href="#Inter-Bold-4d"/>
     <use x="92.400589" xlink:href="#Inter-Bold-6f"/>
     <use x="153.764236" xlink:href="#Inter-Bold-72"/>
     <use x="196.626465" xlink:href="#Inter-Bold-74"/>
     <use x="235.475906" xlink:href="#Inter-Bold-61"/>
     <use x="293.50148" xlink:href="#Inter-Bold-6c"/>
     <use x="320.703186" xlink:href="#Inter-Bold-69"/>
     <use x="347.904892" xlink:href="#Inter-Bold-74"/>
     <use x="386.754333" xlink:href="#Inter-Bold-79"/>
     <use x="445.348099" xlink:href="#Inter-Bold-20"/>
     <use x="468.537018" xlink:href="#Inter-Bold-6f"/>
     <use x="529.900665" xlink:href="#Inter-Bold-66"/>
     <use x="568.963165" xlink:href="#Inter-Bold-20"/>
     <use x="592.152084" xlink:href="#Inter-Bold-43"/>
     <use x="667.365173" xlink:href="#Inter-Bold-4f"/>
     <use x="745.561218" xlink:href="#Inter-Bold-56"/>
     <use x="820.34816" xlink:href="#Inter-Bold-49"/>
     <use x="848.402145" xlink:href="#Inter-Bold-44"/>
     <use x="921.12944" xlink:href="#Inter-Bold-2d"/>
     <use x="968.004456" xlink:href="#Inter-Bold-31"/>
     <use x="1015.41214" xlink:href="#Inter-Bold-39"/>
     <use x="1081.42778" xlink:href="#Inter-Bold-20"/>
     <use x="1104.616699" xlink:href="#Inter-Bold-69"/>
     <use x="1131.818405" xlink:href="#Inter-Bold-6e"/>
     <use x="1193.99881" xlink:href="#Inter-Bold-20"/>
     <use x="1217.187729" xlink:href="#Inter-Bold-55"/>
     <use x="1290.128082" xlink:href="#Inter-Bold-4b"/>
     <use x="1359.091171" xlink:href="#Inter-Bold-20"/>
     <use x="1382.28009" xlink:href="#Inter-Bold-6e"/>
     <use x="1444.460495" xlink:href="#Inter-Bold-61"/>
     <use x="1502.486069" xlink:href="#Inter-Bold-74"/>
     <use x="1541.33551" xlink:href="#Inter-Bold-69"/>
     <use x="1568.537216" xlink:href="#Inter-Bold-6f"/>
     <use x="1629.900864" xlink:href="#Inter-Bold-6e"/>
     <use x="1692.081268" xlink:href="#Inter-Bold-73"/>
     <use x="1748.260254" xlink:href="#Inter-Bold-20"/>
     <use x="1771.449173" xlink:href="#Inter-Bold-28"/>
     <use x="1812.358276" xlink:href="#Inter-Bold-61"/>
     <use x="1870.38385" xlink:href="#Inter-Bold-76"/>
     <use x="1928.977615" xlink:href="#Inter-Bold-65"/>
     <use x="1988.743256" xlink:href="#Inter-Bold-72"/>
     <use x="2031.605484" xlink:href="#Inter-Bold-61"/>
     <use x="2089.631058" xlink:href="#Inter-Bold-67"/>
     <use x="2152.94783" xlink:href="#Inter-Bold-65"/>
     <use x="2212.71347" xlink:href="#Inter-Bold-64"/>
     <use x="2276.243317" xlink:href="#Inter-Bold-29"/>
    </g>
   </g>
   <g id="legend_1">
    <g id="patch_5">
     <path d="M 615.295313 98.614063 
L 724.86875 98.614063 
Q 726.86875 98.614063 726.86875 96.614063 
L 726.86875 40.225 
Q 726.86875 38.225 724.86875 38.225 
L 615.295313 38.225 
Q 613.295313 38.225 613.295313 40.225 
L 613.295313 96.614063 
Q 613.295313 98.614063 615.295313 98.614063 
z
" style="fill:#ffffff;opacity:0.8;stroke:#cccccc;stroke-linejoin:miter;"/>
    </g>
    <g id="line2d_30">
     <path d="M 617.295313 45.998438 
L 637.295313 45.998438 
" style="fill:none;stroke:#003078;stroke-linecap:square;stroke-width:2;"/>
    </g>
    <g id="line2d_31"/>
    <g id="text_20">
     <!-- Scotland -->
     <g transform="translate(645.295313 49.498438)scale(0.1 -0.1)">
      <use xlink:href="#Inter-Regular-53"/>
      <use x="63.778427" xlink:href="#Inter-Regular-63"/>
      <use x="119.602295" xlink:href="#Inter-Regular-6f"/>
      <use x="179.261398" xlink:href="#Inter-Regular-74"/>
      <use x="215.625046" xlink:href="#Inter-Regular-6c"/>
      <use x="239.346634" xlink:href="#Inter-Regular-61"/>
      <use x="295.738693" xlink:href="#Inter-Regular-6e"/>
      <use x="354.261429" xlink:href="#Inter-Regular-64"/>
     </g>
    </g>
    <g id="line2d_32">
     <path d="M 617.295313 60.317188 
L 637.295313 60.317188 
" style="fill:none;stroke:#5694ca;stroke-linecap:square;stroke-width:2;"/>
    </g>
    <g id="line2d_33"/>
    <g id="text_21">
     <!-- England -->
     <g transform="translate(645.295313 63.817188)scale(0.1 -0.1)">
      <defs>
       <path d="M 564 0 
L 564 4655 
L 3373 4655 
L 3373 4155 
L 1127 4155 
L 1127 2582 
L 3227 2582 
L 3227 2082 
L 1127 2082 
L 1127 500 
L 3409 500 
L 3409 0 
L 564 0 
z
" id="Inter-Regular-45" transform="scale(0.015625)"/>
      </defs>
      <use xlink:href="#Inter-Regular-45"/>
      <use x="59.801147" xlink:href="#Inter-Regular-6e"/>
      <use x="118.323883" xlink:href="#Inter-Regular-67"/>
      <use x="179.261398" xlink:href="#Inter-Regular-6c"/>
      <use x="202.982986" xlink:href="#Inter-Regular-61"/>
      <use x="259.375046" xlink:href="#Inter-Regular-6e"/>
      <use x="317.897781" xlink:href="#Inter-Regular-64"/>
     </g>
    </g>
    <g id="line2d_34">
     <path d="M 617.295313 74.75 
L 637.295313 74.75 
" style="fill:none;stroke:#ffdd00;stroke-linecap:square;stroke-width:2;"/>
    </g>
    <g id="line2d_35"/>
    <g id="text_22">
     <!-- Northern Ireland -->
     <g transform="translate(645.295313 78.25)scale(0.1 -0.1)">
      <defs>
       <path d="M 1127 4655 
L 1127 0 
L 564 0 
L 564 4655 
L 1127 4655 
z
" id="Inter-Regular-49" transform="scale(0.015625)"/>
      </defs>
      <use xlink:href="#Inter-Regular-4e"/>
      <use x="75.284103" xlink:href="#Inter-Regular-6f"/>
      <use x="134.943207" xlink:href="#Inter-Regular-72"/>
      <use x="173.295486" xlink:href="#Inter-Regular-74"/>
      <use x="209.659134" xlink:href="#Inter-Regular-68"/>
      <use x="268.750061" xlink:href="#Inter-Regular-65"/>
      <use x="326.988708" xlink:href="#Inter-Regular-72"/>
      <use x="365.340988" xlink:href="#Inter-Regular-6e"/>
      <use x="423.863724" xlink:href="#Inter-Regular-20"/>
      <use x="451.988724" xlink:href="#Inter-Regular-49"/>
      <use x="478.40918" xlink:href="#Inter-Regular-72"/>
      <use x="516.761459" xlink:href="#Inter-Regular-65"/>
      <use x="575.000107" xlink:href="#Inter-Regular-6c"/>
      <use x="598.721695" xlink:href="#Inter-Regular-61"/>
      <use x="655.113754" xlink:href="#Inter-Regular-6e"/>
      <use x="713.63649" xlink:href="#Inter-Regular-64"/>
     </g>
    </g>
    <g id="line2d_36">
     <path d="M 617.295313 89.06875 
L 637.295313 89.06875 
" style="fill:none;stroke:#d4351c;stroke-linecap:square;stroke-width:2;"/>
    </g>
    <g id="line2d_37"/>
    <g id="text_23">
     <!-- Wales -->
     <g transform="translate(645.295313 92.56875)scale(0.1 -0.1)">
      <defs>
       <path d="M 1409 0 
L 136 4655 
L 709 4655 
L 1682 864 
L 1727 864 
L 2718 4655 
L 3355 4655 
L 4346 864 
L 4391 864 
L 5364 4655 
L 5936 4655 
L 4664 0 
L 4082 0 
L 3055 3709 
L 3018 3709 
L 1991 0 
L 1409 0 
z
" id="Inter-Regular-57" transform="scale(0.015625)"/>
      </defs>
      <use xlink:href="#Inter-Regular-57"/>
      <use x="94.886383" xlink:href="#Inter-Regular-61"/>
      <use x="151.278442" xlink:href="#Inter-Regular-6c"/>
      <use x="175.000031" xlink:href="#Inter-Regular-65"/>
      <use x="233.238678" xlink:href="#Inter-Regular-73"/>
     </g>
    </g>
   </g>
  </g>
 </g>
 <defs>
  <clipPath id="p43471ef8e0">
   <rect height="443.52" width="669.6" x="62.26875" y="33.225"/>
  </clipPath>
 </defs>
</svg>
