<?xml version="1.0" encoding="utf-8" standalone="no"?>
<!DOCTYPE svg PUBLIC "-//W3C//DTD SVG 1.1//EN"
  "http://www.w3.org/Graphics/SVG/1.1/DTD/svg11.dtd">
<svg version="1.1" viewBox="0 0 740.7625 535.849062" xmlns="http://www.w3.org/2000/svg" xmlns:xlink="http://www.w3.org/1999/xlink">
 <metadata>
  <rdf:RDF xmlns:cc="http://creativecommons.org/ns#" xmlns:dc="http://purl.org/dc/elements/1.1/" xmlns:rdf="http://www.w3.org/1999/02/22-rdf-syntax-ns#">
   <cc:Work>
    <dc:type rdf:resource="http://purl.org/dc/dcmitype/StillImage"/>
    <dc:date>2021-05-31T17:12:34.948413</dc:date>
    <dc:format>image/svg+xml</dc:format>
    <dc:creator>
     <cc:Agent>
      <dc:title>Matplotlib v3.4.2, https://matplotlib.org/</dc:title>
     </cc:Agent>
    </dc:creator>
   </cc:Work>
  </rdf:RDF>
 </metadata>
 <defs>
  <style type="text/css">*{stroke-linecap:butt;stroke-linejoin:round;}</style>
 </defs>
 <g id="figure_1">
  <g id="patch_1">
   <path d="M 0 535.849062 
L 740.7625 535.849062 
L 740.7625 0 
L 0 0 
z
" style="fill:#ffffff;"/>
  </g>
  <g id="axes_1">
   <g id="patch_2">
    <path d="M 53.1625 476.745 
L 722.7625 476.745 
L 722.7625 33.225 
L 53.1625 33.225 
z
" style="fill:#ffffff;"/>
   </g>
   <g id="matplotlib.axis_1">
    <g id="xtick_1">
     <g id="line2d_1">
      <defs>
       <path d="M 0 0 
L 0 3.5 
" id="ma63e7d8791" style="stroke:#000000;stroke-width:0.8;"/>
      </defs>
      <g>
       <use style="stroke:#000000;stroke-width:0.8;" x="53.1625" xlink:href="#ma63e7d8791" y="476.745"/>
      </g>
     </g>
     <g id="text_1">
      <!-- 01 Mar -->
      <g transform="translate(37.125781 491.018437)scale(0.1 -0.1)">
       <defs>
        <path d="M 2000 -64 
Q 1230 -64 806 561 
Q 382 1186 382 2327 
Q 382 3459 809 4088 
Q 1236 4718 2000 4718 
Q 2764 4718 3191 4088 
Q 3618 3459 3618 2327 
Q 3618 1186 3194 561 
Q 2771 -64 2000 -64 
z
M 2000 436 
Q 2509 436 2791 927 
Q 3073 1418 3073 2327 
Q 3073 3234 2789 3730 
Q 2505 4227 2000 4227 
Q 1496 4227 1211 3730 
Q 927 3234 927 2327 
Q 927 1418 1210 927 
Q 1493 436 2000 436 
z
" id="Inter-Regular-30" transform="scale(0.015625)"/>
        <path d="M 1973 4655 
L 1973 0 
L 1409 0 
L 1409 3836 
L 1373 3836 
Q 1341 3773 1209 3692 
Q 1077 3611 868 3551 
Q 659 3491 391 3491 
L 391 3964 
Q 661 3964 859 4061 
Q 1057 4159 1190 4291 
Q 1323 4423 1392 4529 
Q 1461 4636 1473 4655 
L 1973 4655 
z
" id="Inter-Regular-31" transform="scale(0.015625)"/>
        <path id="Inter-Regular-20" transform="scale(0.015625)"/>
        <path d="M 564 4655 
L 1236 4655 
L 2818 791 
L 2873 791 
L 4455 4655 
L 5127 4655 
L 5127 0 
L 4600 0 
L 4600 3536 
L 4555 3536 
L 3100 0 
L 2591 0 
L 1136 3536 
L 1091 3536 
L 1091 0 
L 564 0 
L 564 4655 
z
" id="Inter-Regular-4d" transform="scale(0.015625)"/>
        <path d="M 1518 -82 
Q 1186 -82 916 44 
Q 646 170 486 410 
Q 327 650 327 991 
Q 327 1291 445 1478 
Q 564 1666 761 1773 
Q 959 1880 1199 1933 
Q 1439 1986 1682 2018 
Q 2000 2059 2199 2080 
Q 2398 2102 2490 2154 
Q 2582 2207 2582 2336 
L 2582 2355 
Q 2582 2691 2399 2877 
Q 2216 3064 1846 3064 
Q 1461 3064 1243 2895 
Q 1025 2727 936 2536 
L 427 2718 
Q 564 3036 792 3214 
Q 1021 3393 1292 3464 
Q 1564 3536 1827 3536 
Q 1996 3536 2215 3496 
Q 2434 3457 2640 3334 
Q 2846 3211 2982 2963 
Q 3118 2716 3118 2300 
L 3118 0 
L 2582 0 
L 2582 473 
L 2555 473 
Q 2500 359 2373 229 
Q 2246 100 2034 9 
Q 1823 -82 1518 -82 
z
M 1600 400 
Q 1918 400 2137 525 
Q 2357 650 2469 847 
Q 2582 1045 2582 1264 
L 2582 1755 
Q 2548 1714 2433 1681 
Q 2318 1648 2169 1624 
Q 2021 1600 1881 1583 
Q 1741 1566 1655 1555 
Q 1446 1527 1265 1467 
Q 1084 1407 974 1287 
Q 864 1168 864 964 
Q 864 684 1072 542 
Q 1280 400 1600 400 
z
" id="Inter-Regular-61" transform="scale(0.015625)"/>
        <path d="M 491 0 
L 491 3491 
L 1009 3491 
L 1009 2964 
L 1046 2964 
Q 1139 3223 1389 3384 
Q 1639 3545 1955 3545 
Q 2100 3545 2209 3511 
Q 2318 3477 2400 3418 
L 2218 2964 
Q 2161 2993 2085 3010 
Q 2009 3027 1909 3027 
Q 1527 3027 1277 2794 
Q 1027 2561 1027 2209 
L 1027 0 
L 491 0 
z
" id="Inter-Regular-72" transform="scale(0.015625)"/>
       </defs>
       <use xlink:href="#Inter-Regular-30"/>
       <use x="62.500015" xlink:href="#Inter-Regular-31"/>
       <use x="106.676163" xlink:href="#Inter-Regular-20"/>
       <use x="134.801163" xlink:href="#Inter-Regular-4d"/>
       <use x="225.99437" xlink:href="#Inter-Regular-61"/>
       <use x="282.386429" xlink:href="#Inter-Regular-72"/>
      </g>
     </g>
    </g>
    <g id="xtick_2">
     <g id="line2d_2">
      <g>
       <use style="stroke:#000000;stroke-width:0.8;" x="98.612136" xlink:href="#ma63e7d8791" y="476.745"/>
      </g>
     </g>
     <g id="text_2">
      <!-- 01 Apr -->
      <g transform="translate(83.52698 491.116875)scale(0.1 -0.1)">
       <defs>
        <path d="M 755 0 
L 164 0 
L 1873 4655 
L 2455 4655 
L 4164 0 
L 3573 0 
L 3105 1318 
L 1223 1318 
L 755 0 
z
M 1400 1818 
L 2927 1818 
L 2182 3918 
L 2146 3918 
L 1400 1818 
z
" id="Inter-Regular-41" transform="scale(0.015625)"/>
        <path d="M 491 -1309 
L 491 3491 
L 1009 3491 
L 1009 2936 
L 1073 2936 
Q 1132 3027 1237 3169 
Q 1343 3311 1542 3423 
Q 1741 3536 2082 3536 
Q 2523 3536 2859 3315 
Q 3196 3095 3384 2690 
Q 3573 2286 3573 1736 
Q 3573 1182 3384 776 
Q 3196 370 2861 148 
Q 2527 -73 2091 -73 
Q 1755 -73 1552 39 
Q 1350 152 1241 296 
Q 1132 441 1073 536 
L 1027 536 
L 1027 -1309 
L 491 -1309 
z
M 1018 1745 
Q 1018 1152 1276 780 
Q 1534 409 2018 409 
Q 2355 409 2581 587 
Q 2807 766 2921 1069 
Q 3036 1373 3036 1745 
Q 3036 2114 2923 2410 
Q 2811 2707 2585 2881 
Q 2359 3055 2018 3055 
Q 1527 3055 1272 2693 
Q 1018 2332 1018 1745 
z
" id="Inter-Regular-70" transform="scale(0.015625)"/>
       </defs>
       <use xlink:href="#Inter-Regular-30"/>
       <use x="62.500015" xlink:href="#Inter-Regular-31"/>
       <use x="106.676163" xlink:href="#Inter-Regular-20"/>
       <use x="134.801163" xlink:href="#Inter-Regular-41"/>
       <use x="202.41481" xlink:href="#Inter-Regular-70"/>
       <use x="263.352325" xlink:href="#Inter-Regular-72"/>
      </g>
     </g>
    </g>
    <g id="xtick_3">
     <g id="line2d_3">
      <g>
       <use style="stroke:#000000;stroke-width:0.8;" x="142.595655" xlink:href="#ma63e7d8791" y="476.745"/>
      </g>
     </g>
     <g id="text_3">
      <!-- 01 May -->
      <g transform="translate(125.69253 491.116875)scale(0.1 -0.1)">
       <defs>
        <path d="M 818 -1355 
Q 682 -1355 575 -1333 
Q 468 -1311 427 -1291 
L 564 -818 
Q 857 -893 1053 -814 
Q 1250 -736 1391 -345 
L 1509 -18 
L 218 3491 
L 800 3491 
L 1764 709 
L 1800 709 
L 2764 3491 
L 3346 3491 
L 1846 -564 
Q 1550 -1355 818 -1355 
z
" id="Inter-Regular-79" transform="scale(0.015625)"/>
       </defs>
       <use xlink:href="#Inter-Regular-30"/>
       <use x="62.500015" xlink:href="#Inter-Regular-31"/>
       <use x="106.676163" xlink:href="#Inter-Regular-20"/>
       <use x="134.801163" xlink:href="#Inter-Regular-4d"/>
       <use x="225.99437" xlink:href="#Inter-Regular-61"/>
       <use x="282.386429" xlink:href="#Inter-Regular-79"/>
      </g>
     </g>
    </g>
    <g id="xtick_4">
     <g id="line2d_4">
      <g>
       <use style="stroke:#000000;stroke-width:0.8;" x="188.045291" xlink:href="#ma63e7d8791" y="476.745"/>
      </g>
     </g>
     <g id="text_4">
      <!-- 01 Jun -->
      <g transform="translate(172.760916 491.018437)scale(0.1 -0.1)">
       <defs>
        <path d="M 2346 4655 
L 2909 4655 
L 2909 1327 
Q 2909 657 2549 296 
Q 2189 -64 1582 -64 
Q 1200 -64 902 76 
Q 605 216 434 475 
Q 264 734 264 1091 
L 818 1091 
Q 818 795 1034 615 
Q 1250 436 1582 436 
Q 1948 436 2147 664 
Q 2346 893 2346 1327 
L 2346 4655 
z
" id="Inter-Regular-4a" transform="scale(0.015625)"/>
        <path d="M 2691 1427 
L 2691 3491 
L 3227 3491 
L 3227 0 
L 2691 0 
L 2691 591 
L 2655 591 
Q 2532 325 2273 140 
Q 2014 -45 1618 -45 
Q 1127 -45 809 280 
Q 491 605 491 1273 
L 491 3491 
L 1027 3491 
L 1027 1309 
Q 1027 927 1242 700 
Q 1457 473 1791 473 
Q 1991 473 2199 575 
Q 2407 677 2549 888 
Q 2691 1100 2691 1427 
z
" id="Inter-Regular-75" transform="scale(0.015625)"/>
        <path d="M 1027 2100 
L 1027 0 
L 491 0 
L 491 3491 
L 1009 3491 
L 1009 2945 
L 1055 2945 
Q 1177 3211 1427 3373 
Q 1677 3536 2073 3536 
Q 2602 3536 2928 3211 
Q 3255 2886 3255 2218 
L 3255 0 
L 2718 0 
L 2718 2182 
Q 2718 2593 2504 2824 
Q 2291 3055 1918 3055 
Q 1534 3055 1280 2806 
Q 1027 2557 1027 2100 
z
" id="Inter-Regular-6e" transform="scale(0.015625)"/>
       </defs>
       <use xlink:href="#Inter-Regular-30"/>
       <use x="62.500015" xlink:href="#Inter-Regular-31"/>
       <use x="106.676163" xlink:href="#Inter-Regular-20"/>
       <use x="134.801163" xlink:href="#Inter-Regular-4a"/>
       <use x="189.062531" xlink:href="#Inter-Regular-75"/>
       <use x="247.159134" xlink:href="#Inter-Regular-6e"/>
      </g>
     </g>
    </g>
    <g id="xtick_5">
     <g id="line2d_5">
      <g>
       <use style="stroke:#000000;stroke-width:0.8;" x="232.02881" xlink:href="#ma63e7d8791" y="476.745"/>
      </g>
     </g>
     <g id="text_5">
      <!-- 01 Jul -->
      <g transform="translate(218.48506 491.018437)scale(0.1 -0.1)">
       <defs>
        <path d="M 1027 4655 
L 1027 0 
L 491 0 
L 491 4655 
L 1027 4655 
z
" id="Inter-Regular-6c" transform="scale(0.015625)"/>
       </defs>
       <use xlink:href="#Inter-Regular-30"/>
       <use x="62.500015" xlink:href="#Inter-Regular-31"/>
       <use x="106.676163" xlink:href="#Inter-Regular-20"/>
       <use x="134.801163" xlink:href="#Inter-Regular-4a"/>
       <use x="189.062531" xlink:href="#Inter-Regular-75"/>
       <use x="247.159134" xlink:href="#Inter-Regular-6c"/>
      </g>
     </g>
    </g>
    <g id="xtick_6">
     <g id="line2d_6">
      <g>
       <use style="stroke:#000000;stroke-width:0.8;" x="277.478446" xlink:href="#ma63e7d8791" y="476.745"/>
      </g>
     </g>
     <g id="text_6">
      <!-- 01 Aug -->
      <g transform="translate(261.406571 491.116875)scale(0.1 -0.1)">
       <defs>
        <path d="M 1900 -1382 
Q 1316 -1382 976 -1169 
Q 636 -957 473 -682 
L 900 -382 
Q 973 -477 1084 -601 
Q 1196 -725 1390 -817 
Q 1584 -909 1900 -909 
Q 2323 -909 2598 -704 
Q 2873 -500 2873 -64 
L 2873 645 
L 2827 645 
Q 2768 550 2660 410 
Q 2552 270 2351 162 
Q 2150 55 1809 55 
Q 1386 55 1051 255 
Q 716 455 521 836 
Q 327 1218 327 1764 
Q 327 2300 516 2699 
Q 705 3098 1041 3317 
Q 1377 3536 1818 3536 
Q 2159 3536 2360 3423 
Q 2561 3311 2669 3169 
Q 2777 3027 2836 2936 
L 2891 2936 
L 2891 3491 
L 3409 3491 
L 3409 -100 
Q 3409 -550 3205 -833 
Q 3002 -1116 2660 -1249 
Q 2318 -1382 1900 -1382 
z
M 1882 536 
Q 2366 536 2624 864 
Q 2882 1193 2882 1773 
Q 2882 2339 2627 2697 
Q 2373 3055 1882 3055 
Q 1541 3055 1315 2882 
Q 1089 2709 976 2418 
Q 864 2127 864 1773 
Q 864 1227 1120 881 
Q 1377 536 1882 536 
z
" id="Inter-Regular-67" transform="scale(0.015625)"/>
       </defs>
       <use xlink:href="#Inter-Regular-30"/>
       <use x="62.500015" xlink:href="#Inter-Regular-31"/>
       <use x="106.676163" xlink:href="#Inter-Regular-20"/>
       <use x="134.801163" xlink:href="#Inter-Regular-41"/>
       <use x="202.41481" xlink:href="#Inter-Regular-75"/>
       <use x="260.511414" xlink:href="#Inter-Regular-67"/>
      </g>
     </g>
    </g>
    <g id="xtick_7">
     <g id="line2d_7">
      <g>
       <use style="stroke:#000000;stroke-width:0.8;" x="322.928082" xlink:href="#ma63e7d8791" y="476.745"/>
      </g>
     </g>
     <g id="text_7">
      <!-- 01 Sep -->
      <g transform="translate(307.040582 491.116875)scale(0.1 -0.1)">
       <defs>
        <path d="M 3109 3491 
Q 3068 3836 2777 4027 
Q 2486 4218 2064 4218 
Q 1600 4218 1318 3999 
Q 1036 3780 1036 3445 
Q 1036 3195 1189 3042 
Q 1343 2889 1553 2803 
Q 1764 2718 1936 2673 
L 2409 2545 
Q 2591 2498 2815 2414 
Q 3039 2330 3244 2185 
Q 3450 2041 3584 1816 
Q 3718 1591 3718 1264 
Q 3718 886 3521 581 
Q 3325 277 2949 97 
Q 2573 -82 2036 -82 
Q 1286 -82 845 272 
Q 405 627 364 1200 
L 946 1200 
Q 968 936 1124 764 
Q 1280 593 1519 510 
Q 1759 427 2036 427 
Q 2359 427 2616 533 
Q 2873 639 3023 828 
Q 3173 1018 3173 1273 
Q 3173 1505 3043 1650 
Q 2914 1795 2702 1886 
Q 2491 1977 2246 2045 
L 1673 2209 
Q 1127 2366 809 2657 
Q 491 2948 491 3418 
Q 491 3809 703 4101 
Q 916 4393 1276 4555 
Q 1636 4718 2082 4718 
Q 2532 4718 2882 4558 
Q 3232 4398 3437 4120 
Q 3643 3843 3655 3491 
L 3109 3491 
z
" id="Inter-Regular-53" transform="scale(0.015625)"/>
        <path d="M 1955 -73 
Q 1450 -73 1085 151 
Q 721 375 524 778 
Q 327 1182 327 1718 
Q 327 2255 524 2665 
Q 721 3075 1074 3305 
Q 1427 3536 1900 3536 
Q 2173 3536 2439 3445 
Q 2705 3355 2923 3151 
Q 3141 2948 3270 2614 
Q 3400 2280 3400 1791 
L 3400 1564 
L 866 1564 
Q 884 1005 1183 707 
Q 1482 409 1955 409 
Q 2271 409 2498 545 
Q 2725 682 2827 955 
L 3346 809 
Q 3223 414 2854 170 
Q 2486 -73 1955 -73 
z
M 866 2027 
L 2855 2027 
Q 2855 2470 2595 2762 
Q 2336 3055 1900 3055 
Q 1593 3055 1368 2911 
Q 1143 2768 1013 2533 
Q 884 2298 866 2027 
z
" id="Inter-Regular-65" transform="scale(0.015625)"/>
       </defs>
       <use xlink:href="#Inter-Regular-30"/>
       <use x="62.500015" xlink:href="#Inter-Regular-31"/>
       <use x="106.676163" xlink:href="#Inter-Regular-20"/>
       <use x="134.801163" xlink:href="#Inter-Regular-53"/>
       <use x="198.57959" xlink:href="#Inter-Regular-65"/>
       <use x="256.818237" xlink:href="#Inter-Regular-70"/>
      </g>
     </g>
    </g>
    <g id="xtick_8">
     <g id="line2d_8">
      <g>
       <use style="stroke:#000000;stroke-width:0.8;" x="366.911601" xlink:href="#ma63e7d8791" y="476.745"/>
      </g>
     </g>
     <g id="text_8">
      <!-- 01 Oct -->
      <g transform="translate(351.755351 491.018437)scale(0.1 -0.1)">
       <defs>
        <path d="M 4491 2327 
Q 4491 1591 4225 1054 
Q 3959 518 3495 227 
Q 3032 -64 2436 -64 
Q 1841 -64 1377 227 
Q 914 518 648 1054 
Q 382 1591 382 2327 
Q 382 3064 648 3600 
Q 914 4136 1377 4427 
Q 1841 4718 2436 4718 
Q 3032 4718 3495 4427 
Q 3959 4136 4225 3600 
Q 4491 3064 4491 2327 
z
M 3946 2327 
Q 3946 2932 3744 3348 
Q 3543 3764 3201 3977 
Q 2859 4191 2436 4191 
Q 2014 4191 1672 3977 
Q 1330 3764 1128 3348 
Q 927 2932 927 2327 
Q 927 1723 1128 1307 
Q 1330 891 1672 677 
Q 2014 464 2436 464 
Q 2859 464 3201 677 
Q 3543 891 3744 1307 
Q 3946 1723 3946 2327 
z
" id="Inter-Regular-4f" transform="scale(0.015625)"/>
        <path d="M 1909 -73 
Q 1418 -73 1063 159 
Q 709 391 518 798 
Q 327 1205 327 1727 
Q 327 2259 524 2667 
Q 721 3075 1074 3305 
Q 1427 3536 1900 3536 
Q 2268 3536 2563 3400 
Q 2859 3264 3047 3018 
Q 3236 2773 3282 2445 
L 2746 2445 
Q 2684 2684 2474 2869 
Q 2264 3055 1909 3055 
Q 1439 3055 1151 2697 
Q 864 2339 864 1745 
Q 864 1139 1148 774 
Q 1432 409 1909 409 
Q 2223 409 2447 570 
Q 2671 732 2746 1018 
L 3282 1018 
Q 3236 709 3058 462 
Q 2880 216 2588 71 
Q 2296 -73 1909 -73 
z
" id="Inter-Regular-63" transform="scale(0.015625)"/>
        <path d="M 2009 3491 
L 2009 3036 
L 1264 3036 
L 1264 1000 
Q 1264 773 1331 660 
Q 1398 548 1503 510 
Q 1609 473 1727 473 
Q 1816 473 1873 483 
Q 1930 493 1964 500 
L 2073 18 
Q 2018 -2 1920 -23 
Q 1823 -45 1673 -45 
Q 1446 -45 1228 52 
Q 1011 150 869 350 
Q 727 550 727 855 
L 727 3036 
L 200 3036 
L 200 3491 
L 727 3491 
L 727 4327 
L 1264 4327 
L 1264 3491 
L 2009 3491 
z
" id="Inter-Regular-74" transform="scale(0.015625)"/>
       </defs>
       <use xlink:href="#Inter-Regular-30"/>
       <use x="62.500015" xlink:href="#Inter-Regular-31"/>
       <use x="106.676163" xlink:href="#Inter-Regular-20"/>
       <use x="134.801163" xlink:href="#Inter-Regular-4f"/>
       <use x="210.937546" xlink:href="#Inter-Regular-63"/>
       <use x="266.761414" xlink:href="#Inter-Regular-74"/>
      </g>
     </g>
    </g>
    <g id="xtick_9">
     <g id="line2d_9">
      <g>
       <use style="stroke:#000000;stroke-width:0.8;" x="412.361237" xlink:href="#ma63e7d8791" y="476.745"/>
      </g>
     </g>
     <g id="text_9">
      <!-- 01 Nov -->
      <g transform="translate(396.090143 491.018437)scale(0.1 -0.1)">
       <defs>
        <path d="M 4255 4655 
L 4255 0 
L 3709 0 
L 1173 3655 
L 1127 3655 
L 1127 0 
L 564 0 
L 564 4655 
L 1109 4655 
L 3655 991 
L 3700 991 
L 3700 4655 
L 4255 4655 
z
" id="Inter-Regular-4e" transform="scale(0.015625)"/>
        <path d="M 1909 -73 
Q 1436 -73 1080 152 
Q 725 377 526 781 
Q 327 1186 327 1727 
Q 327 2273 526 2679 
Q 725 3086 1080 3311 
Q 1436 3536 1909 3536 
Q 2382 3536 2737 3311 
Q 3093 3086 3292 2679 
Q 3491 2273 3491 1727 
Q 3491 1186 3292 781 
Q 3093 377 2737 152 
Q 2382 -73 1909 -73 
z
M 1909 409 
Q 2268 409 2500 593 
Q 2732 777 2843 1077 
Q 2955 1377 2955 1727 
Q 2955 2077 2843 2379 
Q 2732 2682 2500 2868 
Q 2268 3055 1909 3055 
Q 1550 3055 1318 2868 
Q 1086 2682 975 2379 
Q 864 2077 864 1727 
Q 864 1377 975 1077 
Q 1086 777 1318 593 
Q 1550 409 1909 409 
z
" id="Inter-Regular-6f" transform="scale(0.015625)"/>
        <path d="M 3346 3491 
L 2055 0 
L 1509 0 
L 218 3491 
L 800 3491 
L 1764 709 
L 1800 709 
L 2764 3491 
L 3346 3491 
z
" id="Inter-Regular-76" transform="scale(0.015625)"/>
       </defs>
       <use xlink:href="#Inter-Regular-30"/>
       <use x="62.500015" xlink:href="#Inter-Regular-31"/>
       <use x="106.676163" xlink:href="#Inter-Regular-20"/>
       <use x="134.801163" xlink:href="#Inter-Regular-4e"/>
       <use x="210.085266" xlink:href="#Inter-Regular-6f"/>
       <use x="269.74437" xlink:href="#Inter-Regular-76"/>
      </g>
     </g>
    </g>
    <g id="xtick_10">
     <g id="line2d_10">
      <g>
       <use style="stroke:#000000;stroke-width:0.8;" x="456.344756" xlink:href="#ma63e7d8791" y="476.745"/>
      </g>
     </g>
     <g id="text_10">
      <!-- 01 Dec -->
      <g transform="translate(440.308037 491.018437)scale(0.1 -0.1)">
       <defs>
        <path d="M 2000 0 
L 564 0 
L 564 4655 
L 2064 4655 
Q 2741 4655 3223 4376 
Q 3705 4098 3961 3578 
Q 4218 3059 4218 2336 
Q 4218 1609 3959 1085 
Q 3700 561 3204 280 
Q 2709 0 2000 0 
z
M 1127 500 
L 1964 500 
Q 2830 500 3251 992 
Q 3673 1484 3673 2336 
Q 3673 3182 3259 3668 
Q 2846 4155 2027 4155 
L 1127 4155 
L 1127 500 
z
" id="Inter-Regular-44" transform="scale(0.015625)"/>
       </defs>
       <use xlink:href="#Inter-Regular-30"/>
       <use x="62.500015" xlink:href="#Inter-Regular-31"/>
       <use x="106.676163" xlink:href="#Inter-Regular-20"/>
       <use x="134.801163" xlink:href="#Inter-Regular-44"/>
       <use x="206.676178" xlink:href="#Inter-Regular-65"/>
       <use x="264.914825" xlink:href="#Inter-Regular-63"/>
      </g>
     </g>
    </g>
    <g id="xtick_11">
     <g id="line2d_11">
      <g>
       <use style="stroke:#000000;stroke-width:0.8;" x="501.794392" xlink:href="#ma63e7d8791" y="476.745"/>
      </g>
     </g>
     <g id="text_11">
      <!-- 01 Jan -->
      <g transform="translate(486.595173 491.018437)scale(0.1 -0.1)">
       <use xlink:href="#Inter-Regular-30"/>
       <use x="62.500015" xlink:href="#Inter-Regular-31"/>
       <use x="106.676163" xlink:href="#Inter-Regular-20"/>
       <use x="134.801163" xlink:href="#Inter-Regular-4a"/>
       <use x="189.062531" xlink:href="#Inter-Regular-61"/>
       <use x="245.45459" xlink:href="#Inter-Regular-6e"/>
      </g>
     </g>
    </g>
    <g id="xtick_12">
     <g id="line2d_12">
      <g>
       <use style="stroke:#000000;stroke-width:0.8;" x="547.244028" xlink:href="#ma63e7d8791" y="476.745"/>
      </g>
     </g>
     <g id="text_12">
      <!-- 01 Feb -->
      <g transform="translate(531.554965 491.018437)scale(0.1 -0.1)">
       <defs>
        <path d="M 564 0 
L 564 4655 
L 3355 4655 
L 3355 4155 
L 1127 4155 
L 1127 2582 
L 3146 2582 
L 3146 2082 
L 1127 2082 
L 1127 0 
L 564 0 
z
" id="Inter-Regular-46" transform="scale(0.015625)"/>
        <path d="M 564 0 
L 564 4655 
L 1100 4655 
L 1100 2936 
L 1146 2936 
Q 1205 3027 1310 3169 
Q 1416 3311 1615 3423 
Q 1814 3536 2155 3536 
Q 2596 3536 2932 3315 
Q 3268 3095 3457 2690 
Q 3646 2286 3646 1736 
Q 3646 1182 3457 776 
Q 3268 370 2934 148 
Q 2600 -73 2164 -73 
Q 1827 -73 1625 39 
Q 1423 152 1314 296 
Q 1205 441 1146 536 
L 1082 536 
L 1082 0 
L 564 0 
z
M 1091 1745 
Q 1091 1152 1349 780 
Q 1607 409 2091 409 
Q 2427 409 2653 587 
Q 2880 766 2994 1069 
Q 3109 1373 3109 1745 
Q 3109 2114 2996 2410 
Q 2884 2707 2658 2881 
Q 2432 3055 2091 3055 
Q 1600 3055 1345 2693 
Q 1091 2332 1091 1745 
z
" id="Inter-Regular-62" transform="scale(0.015625)"/>
       </defs>
       <use xlink:href="#Inter-Regular-30"/>
       <use x="62.500015" xlink:href="#Inter-Regular-31"/>
       <use x="106.676163" xlink:href="#Inter-Regular-20"/>
       <use x="134.801163" xlink:href="#Inter-Regular-46"/>
       <use x="193.465942" xlink:href="#Inter-Regular-65"/>
       <use x="251.70459" xlink:href="#Inter-Regular-62"/>
      </g>
     </g>
    </g>
    <g id="xtick_13">
     <g id="line2d_13">
      <g>
       <use style="stroke:#000000;stroke-width:0.8;" x="588.295312" xlink:href="#ma63e7d8791" y="476.745"/>
      </g>
     </g>
     <g id="text_13">
      <!-- 01 Mar -->
      <g transform="translate(572.258593 491.018437)scale(0.1 -0.1)">
       <use xlink:href="#Inter-Regular-30"/>
       <use x="62.500015" xlink:href="#Inter-Regular-31"/>
       <use x="106.676163" xlink:href="#Inter-Regular-20"/>
       <use x="134.801163" xlink:href="#Inter-Regular-4d"/>
       <use x="225.99437" xlink:href="#Inter-Regular-61"/>
       <use x="282.386429" xlink:href="#Inter-Regular-72"/>
      </g>
     </g>
    </g>
    <g id="xtick_14">
     <g id="line2d_14">
      <g>
       <use style="stroke:#000000;stroke-width:0.8;" x="633.744948" xlink:href="#ma63e7d8791" y="476.745"/>
      </g>
     </g>
     <g id="text_14">
      <!-- 01 Apr -->
      <g transform="translate(618.659792 491.116875)scale(0.1 -0.1)">
       <use xlink:href="#Inter-Regular-30"/>
       <use x="62.500015" xlink:href="#Inter-Regular-31"/>
       <use x="106.676163" xlink:href="#Inter-Regular-20"/>
       <use x="134.801163" xlink:href="#Inter-Regular-41"/>
       <use x="202.41481" xlink:href="#Inter-Regular-70"/>
       <use x="263.352325" xlink:href="#Inter-Regular-72"/>
      </g>
     </g>
    </g>
    <g id="xtick_15">
     <g id="line2d_15">
      <g>
       <use style="stroke:#000000;stroke-width:0.8;" x="677.728467" xlink:href="#ma63e7d8791" y="476.745"/>
      </g>
     </g>
     <g id="text_15">
      <!-- 01 May -->
      <g transform="translate(660.825342 491.116875)scale(0.1 -0.1)">
       <use xlink:href="#Inter-Regular-30"/>
       <use x="62.500015" xlink:href="#Inter-Regular-31"/>
       <use x="106.676163" xlink:href="#Inter-Regular-20"/>
       <use x="134.801163" xlink:href="#Inter-Regular-4d"/>
       <use x="225.99437" xlink:href="#Inter-Regular-61"/>
       <use x="282.386429" xlink:href="#Inter-Regular-79"/>
      </g>
     </g>
    </g>
    <g id="text_16">
     <!--  -->
     <g style="fill:#666666;" transform="translate(387.9625 504.549687)scale(0.1 -0.1)"/>
     <!-- Note: Mortality is calculated as deaths per day divided by the sum of cases in the prior 28 days -->
     <g style="fill:#666666;" transform="translate(162.717188 515.731875)scale(0.1 -0.1)">
      <defs>
       <path d="M 882 -36 
Q 714 -36 593 84 
Q 473 205 473 373 
Q 473 541 593 661 
Q 714 782 882 782 
Q 1050 782 1170 661 
Q 1291 541 1291 373 
Q 1291 205 1170 84 
Q 1050 -36 882 -36 
z
M 882 2524 
Q 714 2524 593 2644 
Q 473 2765 473 2933 
Q 473 3101 593 3221 
Q 714 3342 882 3342 
Q 1050 3342 1170 3221 
Q 1291 3101 1291 2933 
Q 1291 2765 1170 2644 
Q 1050 2524 882 2524 
z
" id="Inter-Regular-3a" transform="scale(0.015625)"/>
       <path d="M 491 0 
L 491 3491 
L 1027 3491 
L 1027 0 
L 491 0 
z
M 764 4073 
Q 607 4073 494 4179 
Q 382 4286 382 4436 
Q 382 4586 494 4693 
Q 607 4800 764 4800 
Q 921 4800 1033 4693 
Q 1146 4586 1146 4436 
Q 1146 4286 1033 4179 
Q 921 4073 764 4073 
z
" id="Inter-Regular-69" transform="scale(0.015625)"/>
       <path d="M 2964 2709 
L 2482 2573 
Q 2411 2755 2245 2914 
Q 2080 3073 1727 3073 
Q 1407 3073 1194 2926 
Q 982 2780 982 2555 
Q 982 2355 1127 2239 
Q 1273 2123 1582 2045 
L 2100 1918 
Q 3027 1691 3027 973 
Q 3027 673 2855 436 
Q 2684 200 2377 63 
Q 2071 -73 1664 -73 
Q 1130 -73 780 159 
Q 430 391 336 836 
L 846 964 
Q 989 400 1655 400 
Q 2030 400 2251 560 
Q 2473 720 2473 945 
Q 2473 1316 1955 1436 
L 1373 1573 
Q 893 1686 669 1926 
Q 446 2166 446 2527 
Q 446 2823 613 3050 
Q 780 3277 1069 3406 
Q 1359 3536 1727 3536 
Q 2246 3536 2542 3309 
Q 2839 3082 2964 2709 
z
" id="Inter-Regular-73" transform="scale(0.015625)"/>
       <path d="M 1809 -73 
Q 1373 -73 1039 148 
Q 705 370 516 776 
Q 327 1182 327 1736 
Q 327 2286 516 2690 
Q 705 3095 1041 3315 
Q 1377 3536 1818 3536 
Q 2159 3536 2358 3423 
Q 2557 3311 2662 3169 
Q 2768 3027 2827 2936 
L 2873 2936 
L 2873 4655 
L 3409 4655 
L 3409 0 
L 2891 0 
L 2891 536 
L 2827 536 
Q 2768 441 2659 296 
Q 2550 152 2348 39 
Q 2146 -73 1809 -73 
z
M 1882 409 
Q 2366 409 2624 780 
Q 2882 1152 2882 1745 
Q 2882 2332 2627 2693 
Q 2373 3055 1882 3055 
Q 1541 3055 1315 2881 
Q 1089 2707 976 2410 
Q 864 2114 864 1745 
Q 864 1373 978 1069 
Q 1093 766 1319 587 
Q 1546 409 1882 409 
z
" id="Inter-Regular-64" transform="scale(0.015625)"/>
       <path d="M 1027 2100 
L 1027 0 
L 491 0 
L 491 4655 
L 1027 4655 
L 1027 2945 
L 1073 2945 
Q 1196 3216 1442 3376 
Q 1689 3536 2100 3536 
Q 2636 3536 2963 3213 
Q 3291 2891 3291 2218 
L 3291 0 
L 2755 0 
L 2755 2182 
Q 2755 2598 2540 2826 
Q 2325 3055 1946 3055 
Q 1548 3055 1287 2806 
Q 1027 2557 1027 2100 
z
" id="Inter-Regular-68" transform="scale(0.015625)"/>
       <path d="M 491 0 
L 491 3491 
L 1009 3491 
L 1009 2945 
L 1055 2945 
Q 1164 3225 1407 3380 
Q 1650 3536 1991 3536 
Q 2336 3536 2567 3380 
Q 2798 3225 2927 2945 
L 2964 2945 
Q 3098 3216 3366 3376 
Q 3634 3536 4009 3536 
Q 4477 3536 4775 3244 
Q 5073 2952 5073 2336 
L 5073 0 
L 4536 0 
L 4536 2336 
Q 4536 2723 4325 2889 
Q 4114 3055 3827 3055 
Q 3459 3055 3257 2833 
Q 3055 2611 3055 2273 
L 3055 0 
L 2509 0 
L 2509 2391 
Q 2509 2689 2316 2872 
Q 2123 3055 1818 3055 
Q 1609 3055 1428 2943 
Q 1248 2832 1137 2635 
Q 1027 2439 1027 2182 
L 1027 0 
L 491 0 
z
" id="Inter-Regular-6d" transform="scale(0.015625)"/>
       <path d="M 2046 3491 
L 2046 3036 
L 1264 3036 
L 1264 0 
L 727 0 
L 727 3036 
L 164 3036 
L 164 3491 
L 727 3491 
L 727 3973 
Q 727 4273 868 4473 
Q 1009 4673 1234 4773 
Q 1459 4873 1709 4873 
Q 1907 4873 2032 4841 
Q 2157 4809 2218 4782 
L 2064 4318 
Q 2023 4332 1951 4352 
Q 1880 4373 1764 4373 
Q 1498 4373 1381 4239 
Q 1264 4105 1264 3845 
L 1264 3491 
L 2046 3491 
z
" id="Inter-Regular-66" transform="scale(0.015625)"/>
       <path d="M 482 0 
L 482 409 
L 2018 2091 
Q 2289 2386 2464 2605 
Q 2639 2825 2724 3019 
Q 2809 3214 2809 3427 
Q 2809 3795 2553 4011 
Q 2298 4227 1918 4227 
Q 1514 4227 1275 3985 
Q 1036 3743 1036 3345 
L 500 3345 
Q 500 3755 688 4064 
Q 877 4373 1203 4545 
Q 1530 4718 1936 4718 
Q 2346 4718 2661 4545 
Q 2977 4373 3156 4079 
Q 3336 3786 3336 3427 
Q 3336 3170 3244 2926 
Q 3152 2682 2926 2383 
Q 2700 2084 2300 1655 
L 1255 536 
L 1255 500 
L 3418 500 
L 3418 0 
L 482 0 
z
" id="Inter-Regular-32" transform="scale(0.015625)"/>
       <path d="M 1973 -64 
Q 1505 -64 1147 103 
Q 789 270 589 564 
Q 389 859 391 1236 
Q 389 1532 507 1783 
Q 625 2034 830 2203 
Q 1036 2373 1291 2418 
L 1291 2445 
Q 957 2532 759 2821 
Q 561 3111 564 3482 
Q 561 3836 743 4115 
Q 925 4395 1244 4556 
Q 1564 4718 1973 4718 
Q 2377 4718 2695 4556 
Q 3014 4395 3197 4115 
Q 3380 3836 3382 3482 
Q 3380 3111 3181 2821 
Q 2982 2532 2655 2445 
L 2655 2418 
Q 2907 2373 3109 2203 
Q 3311 2034 3431 1783 
Q 3552 1532 3555 1236 
Q 3552 859 3351 564 
Q 3150 270 2794 103 
Q 2439 -64 1973 -64 
z
M 1973 436 
Q 2446 436 2722 662 
Q 2998 889 3000 1264 
Q 2998 1527 2864 1729 
Q 2730 1932 2499 2048 
Q 2268 2164 1973 2164 
Q 1675 2164 1442 2048 
Q 1209 1932 1076 1729 
Q 943 1527 946 1264 
Q 943 889 1218 662 
Q 1493 436 1973 436 
z
M 1973 2645 
Q 2348 2645 2591 2864 
Q 2834 3084 2836 3445 
Q 2834 3800 2596 4013 
Q 2359 4227 1973 4227 
Q 1582 4227 1344 4013 
Q 1107 3800 1109 3445 
Q 1107 3084 1349 2864 
Q 1591 2645 1973 2645 
z
" id="Inter-Regular-38" transform="scale(0.015625)"/>
      </defs>
      <use xlink:href="#Inter-Regular-4e"/>
      <use x="75.284103" xlink:href="#Inter-Regular-6f"/>
      <use x="134.943207" xlink:href="#Inter-Regular-74"/>
      <use x="171.306854" xlink:href="#Inter-Regular-65"/>
      <use x="229.545502" xlink:href="#Inter-Regular-3a"/>
      <use x="257.102325" xlink:href="#Inter-Regular-20"/>
      <use x="285.227325" xlink:href="#Inter-Regular-4d"/>
      <use x="376.420532" xlink:href="#Inter-Regular-6f"/>
      <use x="436.079636" xlink:href="#Inter-Regular-72"/>
      <use x="474.431915" xlink:href="#Inter-Regular-74"/>
      <use x="510.795563" xlink:href="#Inter-Regular-61"/>
      <use x="567.187622" xlink:href="#Inter-Regular-6c"/>
      <use x="590.90921" xlink:href="#Inter-Regular-69"/>
      <use x="614.630798" xlink:href="#Inter-Regular-74"/>
      <use x="650.994446" xlink:href="#Inter-Regular-79"/>
      <use x="706.67627" xlink:href="#Inter-Regular-20"/>
      <use x="734.80127" xlink:href="#Inter-Regular-69"/>
      <use x="758.522858" xlink:href="#Inter-Regular-73"/>
      <use x="810.795593" xlink:href="#Inter-Regular-20"/>
      <use x="838.920593" xlink:href="#Inter-Regular-63"/>
      <use x="894.744461" xlink:href="#Inter-Regular-61"/>
      <use x="951.13652" xlink:href="#Inter-Regular-6c"/>
      <use x="974.858109" xlink:href="#Inter-Regular-63"/>
      <use x="1030.681976" xlink:href="#Inter-Regular-75"/>
      <use x="1088.77858" xlink:href="#Inter-Regular-6c"/>
      <use x="1112.500168" xlink:href="#Inter-Regular-61"/>
      <use x="1168.892227" xlink:href="#Inter-Regular-74"/>
      <use x="1205.255875" xlink:href="#Inter-Regular-65"/>
      <use x="1263.494522" xlink:href="#Inter-Regular-64"/>
      <use x="1325.568405" xlink:href="#Inter-Regular-20"/>
      <use x="1353.693405" xlink:href="#Inter-Regular-61"/>
      <use x="1410.085464" xlink:href="#Inter-Regular-73"/>
      <use x="1462.3582" xlink:href="#Inter-Regular-20"/>
      <use x="1490.4832" xlink:href="#Inter-Regular-64"/>
      <use x="1552.557083" xlink:href="#Inter-Regular-65"/>
      <use x="1610.795731" xlink:href="#Inter-Regular-61"/>
      <use x="1667.18779" xlink:href="#Inter-Regular-74"/>
      <use x="1703.551437" xlink:href="#Inter-Regular-68"/>
      <use x="1762.642365" xlink:href="#Inter-Regular-73"/>
      <use x="1814.9151" xlink:href="#Inter-Regular-20"/>
      <use x="1843.0401" xlink:href="#Inter-Regular-70"/>
      <use x="1903.977615" xlink:href="#Inter-Regular-65"/>
      <use x="1962.216263" xlink:href="#Inter-Regular-72"/>
      <use x="2000.568542" xlink:href="#Inter-Regular-20"/>
      <use x="2028.693542" xlink:href="#Inter-Regular-64"/>
      <use x="2090.767426" xlink:href="#Inter-Regular-61"/>
      <use x="2147.159485" xlink:href="#Inter-Regular-79"/>
      <use x="2202.841309" xlink:href="#Inter-Regular-20"/>
      <use x="2230.966309" xlink:href="#Inter-Regular-64"/>
      <use x="2293.040192" xlink:href="#Inter-Regular-69"/>
      <use x="2316.76178" xlink:href="#Inter-Regular-76"/>
      <use x="2372.443604" xlink:href="#Inter-Regular-69"/>
      <use x="2396.165192" xlink:href="#Inter-Regular-64"/>
      <use x="2458.239075" xlink:href="#Inter-Regular-65"/>
      <use x="2516.477722" xlink:href="#Inter-Regular-64"/>
      <use x="2578.551605" xlink:href="#Inter-Regular-20"/>
      <use x="2606.676605" xlink:href="#Inter-Regular-62"/>
      <use x="2668.750488" xlink:href="#Inter-Regular-79"/>
      <use x="2724.432312" xlink:href="#Inter-Regular-20"/>
      <use x="2752.557312" xlink:href="#Inter-Regular-74"/>
      <use x="2788.920959" xlink:href="#Inter-Regular-68"/>
      <use x="2848.011887" xlink:href="#Inter-Regular-65"/>
      <use x="2906.250534" xlink:href="#Inter-Regular-20"/>
      <use x="2934.375534" xlink:href="#Inter-Regular-73"/>
      <use x="2986.64827" xlink:href="#Inter-Regular-75"/>
      <use x="3044.744873" xlink:href="#Inter-Regular-6d"/>
      <use x="3131.676712" xlink:href="#Inter-Regular-20"/>
      <use x="3159.801712" xlink:href="#Inter-Regular-6f"/>
      <use x="3219.460815" xlink:href="#Inter-Regular-66"/>
      <use x="3255.540359" xlink:href="#Inter-Regular-20"/>
      <use x="3283.665359" xlink:href="#Inter-Regular-63"/>
      <use x="3339.489227" xlink:href="#Inter-Regular-61"/>
      <use x="3395.881287" xlink:href="#Inter-Regular-73"/>
      <use x="3448.154022" xlink:href="#Inter-Regular-65"/>
      <use x="3506.39267" xlink:href="#Inter-Regular-73"/>
      <use x="3558.665405" xlink:href="#Inter-Regular-20"/>
      <use x="3586.790405" xlink:href="#Inter-Regular-69"/>
      <use x="3610.511993" xlink:href="#Inter-Regular-6e"/>
      <use x="3669.034729" xlink:href="#Inter-Regular-20"/>
      <use x="3697.159729" xlink:href="#Inter-Regular-74"/>
      <use x="3733.523376" xlink:href="#Inter-Regular-68"/>
      <use x="3792.614304" xlink:href="#Inter-Regular-65"/>
      <use x="3850.852951" xlink:href="#Inter-Regular-20"/>
      <use x="3878.977951" xlink:href="#Inter-Regular-70"/>
      <use x="3939.915466" xlink:href="#Inter-Regular-72"/>
      <use x="3978.267746" xlink:href="#Inter-Regular-69"/>
      <use x="4001.989334" xlink:href="#Inter-Regular-6f"/>
      <use x="4061.648438" xlink:href="#Inter-Regular-72"/>
      <use x="4100.000717" xlink:href="#Inter-Regular-20"/>
      <use x="4128.125717" xlink:href="#Inter-Regular-32"/>
      <use x="4188.6371" xlink:href="#Inter-Regular-38"/>
      <use x="4250.284836" xlink:href="#Inter-Regular-20"/>
      <use x="4278.409836" xlink:href="#Inter-Regular-64"/>
      <use x="4340.483719" xlink:href="#Inter-Regular-61"/>
      <use x="4396.875778" xlink:href="#Inter-Regular-79"/>
      <use x="4452.557602" xlink:href="#Inter-Regular-73"/>
     </g>
    </g>
   </g>
   <g id="matplotlib.axis_2">
    <g id="ytick_1">
     <g id="line2d_16">
      <defs>
       <path d="M 0 0 
L -3.5 0 
" id="mb5888fb60e" style="stroke:#000000;stroke-width:0.8;"/>
      </defs>
      <g>
       <use style="stroke:#000000;stroke-width:0.8;" x="53.1625" xlink:href="#mb5888fb60e" y="476.745"/>
      </g>
     </g>
     <g id="text_17">
      <!-- 0% -->
      <g transform="translate(31.7875 480.381719)scale(0.1 -0.1)">
       <defs>
        <path d="M 2855 873 
L 2855 1118 
Q 2855 1373 2960 1585 
Q 3066 1798 3269 1926 
Q 3473 2055 3764 2055 
Q 4059 2055 4259 1926 
Q 4459 1798 4561 1585 
Q 4664 1373 4664 1118 
L 4664 873 
Q 4664 618 4560 405 
Q 4457 193 4256 64 
Q 4055 -64 3764 -64 
Q 3468 -64 3266 64 
Q 3064 193 2959 405 
Q 2855 618 2855 873 
z
M 536 3536 
L 536 3782 
Q 536 4036 642 4248 
Q 748 4461 951 4589 
Q 1155 4718 1446 4718 
Q 1741 4718 1941 4589 
Q 2141 4461 2243 4248 
Q 2346 4036 2346 3782 
L 2346 3536 
Q 2346 3282 2242 3069 
Q 2139 2857 1937 2728 
Q 1736 2600 1446 2600 
Q 1150 2600 948 2728 
Q 746 2857 641 3069 
Q 536 3282 536 3536 
z
M 709 0 
L 3909 4655 
L 4427 4655 
L 1227 0 
L 709 0 
z
M 3318 1118 
L 3318 873 
Q 3318 661 3418 494 
Q 3518 327 3764 327 
Q 4002 327 4101 494 
Q 4200 661 4200 873 
L 4200 1118 
Q 4200 1330 4104 1497 
Q 4009 1664 3764 1664 
Q 3525 1664 3421 1497 
Q 3318 1330 3318 1118 
z
M 1000 3782 
L 1000 3536 
Q 1000 3325 1100 3158 
Q 1200 2991 1446 2991 
Q 1684 2991 1783 3158 
Q 1882 3325 1882 3536 
L 1882 3782 
Q 1882 3993 1786 4160 
Q 1691 4327 1446 4327 
Q 1207 4327 1103 4160 
Q 1000 3993 1000 3782 
z
" id="Inter-Regular-25" transform="scale(0.015625)"/>
       </defs>
       <use xlink:href="#Inter-Regular-30"/>
       <use x="62.500015" xlink:href="#Inter-Regular-25"/>
      </g>
     </g>
    </g>
    <g id="ytick_2">
     <g id="line2d_17">
      <g>
       <use style="stroke:#000000;stroke-width:0.8;" x="53.1625" xlink:href="#mb5888fb60e" y="379.593"/>
      </g>
     </g>
     <g id="text_18">
      <!-- 1% -->
      <g transform="translate(33.620313 383.229719)scale(0.1 -0.1)">
       <use xlink:href="#Inter-Regular-31"/>
       <use x="44.176147" xlink:href="#Inter-Regular-25"/>
      </g>
     </g>
    </g>
    <g id="ytick_3">
     <g id="line2d_18">
      <g>
       <use style="stroke:#000000;stroke-width:0.8;" x="53.1625" xlink:href="#mb5888fb60e" y="282.441"/>
      </g>
     </g>
     <g id="text_19">
      <!-- 2% -->
      <g transform="translate(31.985938 286.077719)scale(0.1 -0.1)">
       <use xlink:href="#Inter-Regular-32"/>
       <use x="60.511383" xlink:href="#Inter-Regular-25"/>
      </g>
     </g>
    </g>
    <g id="ytick_4">
     <g id="line2d_19">
      <g>
       <use style="stroke:#000000;stroke-width:0.8;" x="53.1625" xlink:href="#mb5888fb60e" y="185.289"/>
      </g>
     </g>
     <g id="text_20">
      <!-- 3% -->
      <g transform="translate(31.673438 188.925719)scale(0.1 -0.1)">
       <defs>
        <path d="M 2055 -64 
Q 1605 -64 1253 90 
Q 902 245 696 521 
Q 491 798 473 1164 
L 1046 1164 
Q 1071 827 1356 631 
Q 1641 436 2046 436 
Q 2493 436 2783 664 
Q 3073 893 3073 1264 
Q 3073 1650 2787 1893 
Q 2502 2136 1973 2136 
L 1600 2136 
L 1600 2636 
L 1973 2636 
Q 2386 2636 2647 2856 
Q 2909 3077 2909 3445 
Q 2909 3798 2679 4012 
Q 2450 4227 2064 4227 
Q 1823 4227 1610 4139 
Q 1398 4052 1264 3887 
Q 1130 3723 1118 3491 
L 573 3491 
Q 586 3857 793 4133 
Q 1000 4409 1335 4563 
Q 1671 4718 2073 4718 
Q 2505 4718 2814 4544 
Q 3123 4370 3289 4086 
Q 3455 3802 3455 3473 
Q 3455 3080 3249 2802 
Q 3043 2525 2691 2418 
L 2691 2382 
Q 3132 2309 3379 2008 
Q 3627 1707 3627 1264 
Q 3627 884 3421 583 
Q 3216 282 2861 109 
Q 2507 -64 2055 -64 
z
" id="Inter-Regular-33" transform="scale(0.015625)"/>
       </defs>
       <use xlink:href="#Inter-Regular-33"/>
       <use x="63.636383" xlink:href="#Inter-Regular-25"/>
      </g>
     </g>
    </g>
    <g id="ytick_5">
     <g id="line2d_20">
      <g>
       <use style="stroke:#000000;stroke-width:0.8;" x="53.1625" xlink:href="#mb5888fb60e" y="88.137"/>
      </g>
     </g>
     <g id="text_21">
      <!-- 4% -->
      <g transform="translate(31.617188 91.773719)scale(0.1 -0.1)">
       <defs>
        <path d="M 373 955 
L 373 1418 
L 2418 4655 
L 3100 4655 
L 3100 1455 
L 3736 1455 
L 3736 955 
L 3100 955 
L 3100 0 
L 2564 0 
L 2564 955 
L 373 955 
z
M 2564 1455 
L 2564 3936 
L 2527 3936 
L 982 1491 
L 982 1455 
L 2564 1455 
z
" id="Inter-Regular-34" transform="scale(0.015625)"/>
       </defs>
       <use xlink:href="#Inter-Regular-34"/>
       <use x="64.204559" xlink:href="#Inter-Regular-25"/>
      </g>
     </g>
    </g>
    <g id="text_22">
     <!-- Percent mortality per day -->
     <g transform="translate(25.5 315.099844)rotate(-90)scale(0.1 -0.1)">
      <defs>
       <path d="M 564 0 
L 564 4655 
L 2136 4655 
Q 2684 4655 3033 4458 
Q 3382 4261 3550 3927 
Q 3718 3593 3718 3182 
Q 3718 2770 3551 2434 
Q 3384 2098 3036 1899 
Q 2689 1700 2146 1700 
L 1127 1700 
L 1127 0 
L 564 0 
z
M 1127 2200 
L 2127 2200 
Q 2689 2200 2926 2482 
Q 3164 2764 3164 3182 
Q 3164 3602 2925 3878 
Q 2686 4155 2118 4155 
L 1127 4155 
L 1127 2200 
z
" id="Inter-Regular-50" transform="scale(0.015625)"/>
      </defs>
      <use xlink:href="#Inter-Regular-50"/>
      <use x="63.494324" xlink:href="#Inter-Regular-65"/>
      <use x="121.732971" xlink:href="#Inter-Regular-72"/>
      <use x="160.085251" xlink:href="#Inter-Regular-63"/>
      <use x="215.909119" xlink:href="#Inter-Regular-65"/>
      <use x="274.147766" xlink:href="#Inter-Regular-6e"/>
      <use x="332.670502" xlink:href="#Inter-Regular-74"/>
      <use x="369.034149" xlink:href="#Inter-Regular-20"/>
      <use x="397.159149" xlink:href="#Inter-Regular-6d"/>
      <use x="484.090988" xlink:href="#Inter-Regular-6f"/>
      <use x="543.750092" xlink:href="#Inter-Regular-72"/>
      <use x="582.102371" xlink:href="#Inter-Regular-74"/>
      <use x="618.466019" xlink:href="#Inter-Regular-61"/>
      <use x="674.858078" xlink:href="#Inter-Regular-6c"/>
      <use x="698.579666" xlink:href="#Inter-Regular-69"/>
      <use x="722.301254" xlink:href="#Inter-Regular-74"/>
      <use x="758.664902" xlink:href="#Inter-Regular-79"/>
      <use x="814.346725" xlink:href="#Inter-Regular-20"/>
      <use x="842.471725" xlink:href="#Inter-Regular-70"/>
      <use x="903.409241" xlink:href="#Inter-Regular-65"/>
      <use x="961.647888" xlink:href="#Inter-Regular-72"/>
      <use x="1000.000168" xlink:href="#Inter-Regular-20"/>
      <use x="1028.125168" xlink:href="#Inter-Regular-64"/>
      <use x="1090.199051" xlink:href="#Inter-Regular-61"/>
      <use x="1146.59111" xlink:href="#Inter-Regular-79"/>
     </g>
    </g>
   </g>
   <g id="line2d_21">
    <path clip-path="url(#p9aadb4dcc1)" d="M 94.213784 336.351936 
L 95.679902 290.153451 
L 97.146019 291.41488 
L 98.612136 283.030566 
L 100.078253 342.019576 
L 101.544371 288.289615 
L 103.010488 395.031092 
L 104.476605 352.934154 
L 105.942723 321.321536 
L 107.40884 363.454948 
L 108.874957 360.909098 
L 110.341074 345.807038 
L 111.807192 368.174364 
L 113.273309 386.147962 
L 116.205544 409.186791 
L 117.671661 396.349868 
L 119.137778 414.17202 
L 120.603896 415.634175 
L 122.070013 424.652775 
L 123.53613 408.906891 
L 125.002247 419.236417 
L 126.468365 402.210074 
L 127.934482 415.484466 
L 129.400599 423.024697 
L 130.866717 420.838388 
L 132.332834 434.006218 
L 133.798951 423.789106 
L 135.265068 430.016409 
L 136.731186 411.673332 
L 138.197303 432.22071 
L 139.66342 434.427531 
L 141.129538 429.007187 
L 142.595655 422.852755 
L 144.061772 426.935072 
L 145.52789 433.905958 
L 146.994007 429.952947 
L 148.460124 417.563713 
L 149.926241 425.449126 
L 151.392359 427.967794 
L 152.858476 434.794682 
L 154.324593 433.93012 
L 155.790711 440.829288 
L 157.256828 435.62246 
L 158.722945 436.07367 
L 160.189062 419.923053 
L 161.65518 428.272869 
L 163.121297 439.875171 
L 164.587414 434.230921 
L 166.053532 436.966228 
L 167.519649 440.37625 
L 168.985766 431.278578 
L 170.451884 439.333062 
L 171.918001 433.938905 
L 173.384118 445.417534 
L 174.850235 455.328727 
L 176.316353 460.47504 
L 177.78247 447.400275 
L 179.248587 446.276183 
L 180.714705 439.787511 
L 182.180822 437.242281 
L 183.646939 447.649656 
L 185.113056 459.873452 
L 186.579174 459.097044 
L 188.045291 467.498299 
L 189.511408 457.532343 
L 190.977526 448.93763 
L 192.443643 473.049603 
L 193.90976 440.807145 
L 195.375877 464.061971 
L 196.841995 444.891885 
L 198.308112 447.773231 
L 199.774229 471.604683 
L 201.240347 448.763433 
L 202.706464 464.329409 
L 204.172581 463.335476 
L 207.104816 444.839581 
L 208.570933 452.252899 
L 210.03705 425.791154 
L 211.503168 449.480641 
L 212.969285 446.852077 
L 214.435402 476.745 
L 215.90152 442.171335 
L 217.367637 452.7272 
L 218.833754 438.795 
L 220.299871 463.808648 
L 221.765989 462.964574 
L 223.232106 476.745 
L 224.698223 476.745 
L 226.164341 411.977 
L 227.630458 460.278559 
L 229.096575 459.907565 
L 230.562693 476.745 
L 233.494927 476.745 
L 234.961044 455.059286 
L 236.427162 476.745 
L 237.893279 454.098846 
L 239.359396 476.745 
L 265.749508 476.745 
L 267.215625 446.289828 
L 268.681742 476.745 
L 302.40244 476.745 
L 303.868557 466.760211 
L 305.334675 476.745 
L 306.800792 476.745 
L 308.266909 468.518751 
L 309.733026 469.034524 
L 311.199144 476.745 
L 315.597496 476.745 
L 317.063613 470.180676 
L 318.52973 476.745 
L 322.928082 476.745 
L 324.394199 471.904342 
L 325.860317 471.987311 
L 327.326434 472.243054 
L 328.792551 476.745 
L 339.055372 476.745 
L 340.52149 473.842341 
L 341.987607 468.150013 
L 343.453724 476.745 
L 344.919841 476.745 
L 347.852076 472.086549 
L 349.318193 476.745 
L 350.784311 470.353421 
L 352.250428 472.653528 
L 353.716545 472.926132 
L 355.182663 474.980845 
L 356.64878 473.453943 
L 358.114897 475.229605 
L 359.581014 473.983823 
L 361.047132 474.067899 
L 362.513249 472.763361 
L 363.979366 475.526335 
L 365.445484 472.149352 
L 366.911601 471.361425 
L 368.377718 475.737095 
L 369.843835 473.904852 
L 371.309953 474.049329 
L 372.77607 475.035029 
L 374.242187 473.503088 
L 375.708305 469.957483 
L 377.174422 468.971709 
L 378.640539 472.811455 
L 380.106657 470.520101 
L 381.572774 470.791694 
L 383.038891 472.228928 
L 384.505008 470.886053 
L 385.971126 473.740609 
L 387.437243 469.148694 
L 388.90336 468.141868 
L 390.369478 472.383127 
L 391.835595 467.614173 
L 393.301712 470.431509 
L 394.767829 469.907558 
L 396.233947 472.538955 
L 397.700064 470.548849 
L 399.166181 470.738803 
L 400.632299 469.858938 
L 402.098416 469.419308 
L 403.564533 467.05435 
L 405.030651 471.664659 
L 406.496768 468.014758 
L 407.962885 468.449026 
L 409.429002 466.160346 
L 410.89512 469.263021 
L 412.361237 466.690306 
L 413.827354 468.528193 
L 415.293472 466.827066 
L 416.759589 471.264986 
L 418.225706 465.2725 
L 419.691823 469.249371 
L 421.157941 466.260767 
L 422.624058 466.873262 
L 424.090175 465.446942 
L 425.556293 467.010044 
L 427.02241 466.38611 
L 428.488527 467.499033 
L 429.954644 466.105296 
L 431.420762 465.225911 
L 432.886879 467.192474 
L 434.352996 467.398832 
L 435.819114 466.48698 
L 437.285231 469.8097 
L 438.751348 469.089904 
L 440.217466 468.106354 
L 441.683583 466.747445 
L 443.1497 465.680202 
L 444.615817 467.164544 
L 446.081935 467.306658 
L 447.548052 466.57135 
L 449.014169 469.455827 
L 450.480287 469.060697 
L 451.946404 463.480824 
L 453.412521 467.563631 
L 454.878638 466.041757 
L 456.344756 467.637316 
L 457.810873 469.883741 
L 459.27699 464.281182 
L 462.209225 469.942642 
L 463.675342 466.178663 
L 465.14146 466.08471 
L 466.607577 466.397493 
L 468.073694 468.125922 
L 469.539811 468.032156 
L 471.005929 469.061963 
L 473.938163 466.591235 
L 475.404281 464.646856 
L 476.870398 464.051096 
L 478.336515 464.152125 
L 479.802632 461.978388 
L 481.26875 467.200359 
L 482.734867 464.966961 
L 484.200984 464.593667 
L 485.667102 466.514597 
L 487.133219 465.544078 
L 488.599336 463.315304 
L 490.065454 462.57659 
L 492.997688 463.659 
L 494.463805 463.655889 
L 497.39604 467.380952 
L 498.862157 465.669208 
L 500.328275 462.368085 
L 501.794392 465.88344 
L 503.260509 464.253774 
L 504.726626 464.913342 
L 506.192744 466.680254 
L 507.658861 466.39647 
L 509.124978 464.693271 
L 510.591096 466.166707 
L 512.057213 466.964128 
L 513.52333 468.06235 
L 514.989448 463.597078 
L 516.455565 466.299484 
L 517.921682 465.89692 
L 519.387799 466.18815 
L 520.853917 465.155807 
L 522.320034 465.291889 
L 523.786151 462.089279 
L 525.252269 468.519399 
L 526.718386 464.675715 
L 528.184503 463.294633 
L 529.65062 464.179041 
L 531.116738 465.960634 
L 532.582855 464.145929 
L 534.048972 466.808957 
L 535.51509 463.736143 
L 536.981207 467.04137 
L 538.447324 466.881082 
L 539.913442 465.202417 
L 541.379559 467.441528 
L 542.845676 464.930978 
L 544.311793 467.562589 
L 545.777911 466.618716 
L 547.244028 467.258146 
L 548.710145 467.090486 
L 550.176263 465.427145 
L 551.64238 468.9147 
L 553.108497 465.580728 
L 554.574614 463.468246 
L 556.040732 465.41878 
L 557.506849 465.419991 
L 558.972966 463.077261 
L 560.439084 465.84328 
L 561.905201 466.150783 
L 563.371318 463.798137 
L 564.837436 466.354759 
L 566.303553 465.870883 
L 567.76967 465.200709 
L 569.235787 468.138643 
L 570.701905 466.919615 
L 572.168022 464.38978 
L 573.634139 460.391947 
L 575.100257 466.512889 
L 576.566374 469.055274 
L 578.032491 468.273897 
L 579.498608 470.486466 
L 580.964726 469.949756 
L 582.430843 468.605931 
L 583.89696 470.073332 
L 585.363078 469.085184 
L 586.829195 472.841397 
L 588.295312 467.887636 
L 589.76143 470.930461 
L 591.227547 471.724461 
L 592.693664 470.154275 
L 594.159781 472.905 
L 595.625899 471.86299 
L 597.092016 471.814928 
L 598.558133 469.186102 
L 601.490368 474.162681 
L 602.956485 473.08323 
L 604.422602 473.581127 
L 605.88872 474.604499 
L 607.354837 472.910629 
L 608.820954 476.194033 
L 610.287072 470.623261 
L 611.753189 472.162629 
L 613.219306 475.020408 
L 614.685424 473.248227 
L 619.083775 474.889065 
L 620.549893 474.869961 
L 622.01601 474.227783 
L 623.482127 472.320381 
L 624.948245 473.576724 
L 629.346596 473.546264 
L 630.812714 475.454372 
L 632.278831 475.454287 
L 633.744948 476.095328 
L 635.211066 475.438315 
L 636.677183 475.424282 
L 638.1433 476.082525 
L 639.609418 474.04858 
L 641.075535 475.377144 
L 645.473887 475.270654 
L 646.940004 474.47173 
L 648.406121 475.201312 
L 649.872239 476.745 
L 651.338356 476.745 
L 652.804473 474.233964 
L 655.736708 475.842855 
L 657.202825 475.818949 
L 658.668942 476.745 
L 660.13506 475.77764 
L 661.601177 475.74611 
L 663.067294 473.613422 
L 664.533411 476.745 
L 665.999529 474.472173 
L 667.465646 476.745 
L 668.931763 474.290737 
L 670.397881 475.484432 
L 673.330115 475.374925 
L 674.796233 476.745 
L 677.728467 476.745 
L 679.194584 475.184827 
L 680.660702 476.745 
L 692.38964 476.745 
L 693.855757 473.277143 
L 695.321875 476.745 
L 699.720227 476.745 
L 701.186344 475.087116 
L 702.652461 476.745 
L 707.050813 476.745 
L 708.51693 475.278333 
L 709.983048 475.321736 
L 711.449165 476.745 
L 712.915282 476.745 
L 712.915282 476.745 
" style="fill:none;stroke:#003078;stroke-linecap:square;stroke-width:2;"/>
   </g>
   <g id="line2d_22">
    <path clip-path="url(#p9aadb4dcc1)" d="M 54.628617 199.167857 
L 56.094735 54.345 
L 57.560852 476.745 
L 59.026969 191.003824 
L 60.493086 476.745 
L 61.959204 476.745 
L 63.425321 353.767785 
L 64.891438 298.810934 
L 66.357556 385.379483 
L 67.823673 273.285314 
L 69.28979 233.865 
L 70.755908 233.484906 
L 72.222025 245.430714 
L 73.688142 192.310965 
L 75.154259 125.691555 
L 76.620377 163.553511 
L 78.086494 177.609706 
L 79.552611 240.0474 
L 81.018729 183.390826 
L 82.484846 211.639566 
L 83.950963 166.167148 
L 85.41708 175.268839 
L 86.883198 165.369499 
L 88.349315 137.57313 
L 89.815432 141.703821 
L 92.747667 217.834819 
L 94.213784 202.827956 
L 95.679902 193.036034 
L 97.146019 197.751039 
L 98.612136 200.648359 
L 101.544371 248.71892 
L 103.010488 240.667356 
L 104.476605 273.240331 
L 105.942723 293.41359 
L 107.40884 283.054 
L 108.874957 288.686472 
L 110.341074 319.880134 
L 111.807192 334.788045 
L 113.273309 341.104387 
L 114.739426 349.107429 
L 116.205544 361.958685 
L 117.671661 372.439457 
L 119.137778 374.340514 
L 120.603896 381.154107 
L 122.070013 386.737778 
L 123.53613 393.872636 
L 125.002247 399.102175 
L 126.468365 400.641026 
L 127.934482 406.009063 
L 129.400599 408.22153 
L 130.866717 414.316493 
L 132.332834 413.710196 
L 133.798951 419.153613 
L 135.265068 418.691818 
L 136.731186 424.377533 
L 138.197303 424.867113 
L 139.66342 424.133115 
L 141.129538 424.56954 
L 142.595655 424.485173 
L 144.061772 430.128751 
L 145.52789 432.542019 
L 146.994007 428.858244 
L 148.460124 430.555086 
L 149.926241 428.949054 
L 151.392359 426.796995 
L 152.858476 434.020337 
L 154.324593 432.552738 
L 155.790711 435.038123 
L 157.256828 439.474778 
L 158.722945 435.634009 
L 160.189062 437.232867 
L 161.65518 432.640005 
L 163.121297 431.797392 
L 164.587414 430.026412 
L 166.053532 435.799853 
L 167.519649 428.857035 
L 168.985766 431.035258 
L 170.451884 428.273607 
L 171.918001 433.030841 
L 173.384118 432.430053 
L 174.850235 429.241394 
L 176.316353 435.004342 
L 177.78247 431.227225 
L 179.248587 426.105719 
L 180.714705 429.923432 
L 182.180822 423.661257 
L 183.646939 426.261144 
L 185.113056 429.56014 
L 186.579174 438.099511 
L 188.045291 432.78971 
L 189.511408 417.846576 
L 190.977526 421.838882 
L 192.443643 424.995608 
L 193.90976 427.429264 
L 195.375877 430.405586 
L 196.841995 421.207104 
L 198.308112 419.379838 
L 199.774229 432.23271 
L 201.240347 422.799474 
L 202.706464 435.151946 
L 204.172581 432.039402 
L 205.638699 443.288682 
L 207.104816 426.186578 
L 208.570933 434.43564 
L 210.03705 426.726436 
L 211.503168 435.854836 
L 212.969285 431.565397 
L 214.435402 437.029039 
L 215.90152 428.357175 
L 217.367637 433.145802 
L 218.833754 421.267832 
L 220.299871 416.732119 
L 221.765989 407.298889 
L 223.232106 414.925845 
L 224.698223 435.569467 
L 227.630458 425.924425 
L 229.096575 434.580486 
L 230.562693 421.675978 
L 232.02881 447.470325 
L 233.494927 424.180682 
L 234.961044 442.812276 
L 236.427162 437.122424 
L 237.893279 447.099126 
L 239.359396 437.184092 
L 240.825514 445.268963 
L 242.291631 450.665448 
L 243.757748 438.45742 
L 245.223865 453.997849 
L 246.689983 456.080957 
L 248.1561 464.758325 
L 249.622217 455.380106 
L 251.088335 457.552586 
L 252.554452 458.022317 
L 254.020569 465.843336 
L 255.486687 460.856067 
L 256.952804 464.895131 
L 258.418921 465.348871 
L 259.885038 467.260587 
L 261.351156 461.955416 
L 262.817273 464.688597 
L 264.28339 465.087343 
L 265.749508 472.535337 
L 267.215625 467.952964 
L 268.681742 467.643501 
L 270.147859 470.461318 
L 271.613977 470.600806 
L 273.080094 471.98702 
L 274.546211 472.069735 
L 276.012329 471.008581 
L 278.944563 472.242793 
L 280.410681 469.098677 
L 281.876798 471.297122 
L 283.342915 475.128584 
L 284.809032 471.951316 
L 286.27515 473.080072 
L 287.741267 470.94614 
L 289.207384 472.611312 
L 290.673502 471.121594 
L 292.139619 471.805152 
L 293.605736 473.842919 
L 295.071853 473.435364 
L 296.537971 473.995026 
L 298.004088 471.735991 
L 299.470205 474.947137 
L 300.936323 471.376003 
L 303.868557 475.880581 
L 305.334675 473.337802 
L 308.266909 474.251899 
L 309.733026 471.392953 
L 311.199144 474.698833 
L 312.665261 472.339558 
L 314.131378 472.371112 
L 315.597496 473.632526 
L 317.063613 473.668501 
L 318.52973 474.834965 
L 321.461965 474.182202 
L 322.928082 476.024288 
L 324.394199 473.907928 
L 325.860317 474.668807 
L 327.326434 474.731417 
L 328.792551 472.825869 
L 330.258669 474.264655 
L 331.724786 472.936726 
L 333.190903 474.190087 
L 334.65702 474.287806 
L 336.123138 473.602871 
L 337.589255 474.251494 
L 339.055372 472.483532 
L 340.52149 473.57609 
L 341.987607 473.037408 
L 343.453724 473.592079 
L 344.919841 472.374958 
L 346.385959 472.142639 
L 349.318193 473.62799 
L 350.784311 472.090534 
L 352.250428 472.95 
L 353.716545 471.628727 
L 355.182663 469.398913 
L 356.64878 472.356323 
L 358.114897 473.117545 
L 362.513249 471.490338 
L 363.979366 472.179736 
L 365.445484 471.883551 
L 368.377718 470.810414 
L 369.843835 471.993784 
L 371.309953 472.746244 
L 372.77607 472.631728 
L 374.242187 472.726893 
L 375.708305 471.800381 
L 378.640539 473.11167 
L 380.106657 472.113127 
L 381.572774 471.647833 
L 384.505008 472.856542 
L 385.971126 472.48067 
L 387.437243 471.796694 
L 388.90336 472.038976 
L 390.369478 470.764015 
L 391.835595 472.473722 
L 393.301712 471.335494 
L 394.767829 471.192214 
L 396.233947 470.892248 
L 397.700064 471.219124 
L 399.166181 471.37564 
L 400.632299 472.063385 
L 402.098416 471.284982 
L 403.564533 471.111301 
L 405.030651 471.408978 
L 406.496768 471.114742 
L 407.962885 471.050731 
L 409.429002 470.552511 
L 410.89512 470.771876 
L 412.361237 470.545695 
L 413.827354 470.637884 
L 415.293472 470.57305 
L 416.759589 470.978872 
L 418.225706 470.583183 
L 419.691823 470.061831 
L 421.157941 470.187103 
L 422.624058 470.135533 
L 424.090175 469.08549 
L 425.556293 470.702997 
L 427.02241 470.879469 
L 428.488527 470.32884 
L 431.420762 470.47644 
L 432.886879 470.142992 
L 434.352996 470.591254 
L 435.819114 470.485184 
L 437.285231 469.187129 
L 438.751348 469.883397 
L 440.217466 470.030375 
L 443.1497 469.717756 
L 444.615817 469.764975 
L 446.081935 469.533662 
L 447.548052 469.121592 
L 449.014169 470.008808 
L 450.480287 470.099919 
L 453.412521 469.134293 
L 454.878638 469.824266 
L 456.344756 470.054956 
L 457.810873 470.13598 
L 459.27699 468.628492 
L 460.743108 468.390086 
L 462.209225 469.614684 
L 463.675342 469.323359 
L 465.14146 469.224295 
L 466.607577 468.633354 
L 468.073694 468.526715 
L 469.539811 468.160127 
L 471.005929 467.610973 
L 472.472046 467.998677 
L 473.938163 468.108657 
L 475.404281 466.959855 
L 476.870398 467.506262 
L 478.336515 468.419421 
L 479.802632 466.5016 
L 481.26875 466.799421 
L 482.734867 467.395825 
L 484.200984 467.328012 
L 485.667102 466.247344 
L 487.133219 466.877735 
L 488.599336 467.376137 
L 490.065454 467.696619 
L 491.531571 467.061268 
L 492.997688 466.868016 
L 495.929923 467.158743 
L 497.39604 467.880682 
L 498.862157 467.611105 
L 500.328275 467.725725 
L 501.794392 468.273723 
L 503.260509 468.360179 
L 504.726626 468.914682 
L 506.192744 468.131007 
L 507.658861 467.831414 
L 509.124978 468.200008 
L 510.591096 467.81484 
L 512.057213 468.221891 
L 513.52333 468.131625 
L 514.989448 467.919028 
L 516.455565 467.908119 
L 517.921682 467.351862 
L 519.387799 467.443444 
L 520.853917 467.701077 
L 522.320034 467.810504 
L 523.786151 467.359519 
L 526.718386 467.440863 
L 528.184503 466.827834 
L 529.65062 467.384602 
L 531.116738 467.702668 
L 532.582855 467.831134 
L 534.048972 468.341962 
L 535.51509 468.490356 
L 536.981207 468.153266 
L 538.447324 468.830437 
L 539.913442 468.303341 
L 541.379559 468.052677 
L 542.845676 468.48571 
L 544.311793 469.2852 
L 545.777911 469.282018 
L 547.244028 469.082245 
L 548.710145 469.21647 
L 550.176263 468.709046 
L 551.64238 469.824271 
L 553.108497 469.189087 
L 554.574614 469.605065 
L 556.040732 469.809353 
L 557.506849 468.967922 
L 558.972966 469.654697 
L 560.439084 469.241044 
L 561.905201 469.386297 
L 563.371318 469.811238 
L 564.837436 469.849715 
L 566.303553 469.45973 
L 567.76967 468.703965 
L 569.235787 469.550984 
L 570.701905 469.438976 
L 572.168022 469.443557 
L 573.634139 470.033107 
L 576.566374 470.123234 
L 578.032491 470.998082 
L 579.498608 470.525846 
L 582.430843 470.915161 
L 583.89696 471.320168 
L 586.829195 470.709439 
L 588.295312 470.597873 
L 589.76143 471.682517 
L 591.227547 472.429843 
L 592.693664 472.116869 
L 594.159781 470.882758 
L 595.625899 471.678188 
L 597.092016 472.120234 
L 598.558133 471.65431 
L 600.024251 471.77824 
L 601.490368 472.433142 
L 602.956485 471.842164 
L 604.422602 472.854578 
L 605.88872 471.915184 
L 607.354837 472.692533 
L 608.820954 472.387372 
L 610.287072 473.13282 
L 611.753189 473.173687 
L 613.219306 473.748171 
L 616.151541 473.113863 
L 617.617658 472.326332 
L 620.549893 473.761298 
L 622.01601 474.495085 
L 624.948245 473.838338 
L 626.414362 474.647528 
L 629.346596 474.901802 
L 630.812714 473.971905 
L 632.278831 474.002831 
L 635.211066 475.250511 
L 636.677183 474.581473 
L 638.1433 474.862511 
L 639.609418 475.914868 
L 641.075535 474.786204 
L 642.541652 474.567017 
L 644.007769 473.963024 
L 645.473887 475.177541 
L 648.406121 474.906906 
L 649.872239 474.301097 
L 651.338356 474.843219 
L 652.804473 475.817662 
L 654.27059 474.934966 
L 655.736708 475.119696 
L 657.202825 474.842845 
L 658.668942 475.123155 
L 660.13506 474.960583 
L 661.601177 474.661061 
L 663.067294 474.58835 
L 664.533411 474.897251 
L 665.999529 474.40611 
L 667.465646 475.753725 
L 668.931763 475.001138 
L 670.397881 475.539883 
L 671.863998 475.215505 
L 673.330115 474.708632 
L 674.796233 474.973916 
L 676.26235 475.438864 
L 677.728467 475.578509 
L 679.194584 475.061927 
L 680.660702 475.380026 
L 682.126819 475.201871 
L 683.592936 474.67294 
L 685.059054 475.529992 
L 686.525171 475.344005 
L 687.991288 475.336643 
L 689.457405 475.514471 
L 690.923523 475.307122 
L 692.38964 474.410479 
L 693.855757 475.12129 
L 695.321875 476.204346 
L 696.787992 476.200334 
L 698.254109 475.467357 
L 701.186344 475.816187 
L 702.652461 476.185991 
L 704.118578 476.188212 
L 705.584696 476.002503 
L 707.050813 475.631808 
L 708.51693 476.009028 
L 709.983048 476.01364 
L 711.449165 475.470398 
L 711.449165 475.470398 
" style="fill:none;stroke:#5694ca;stroke-linecap:square;stroke-width:2;"/>
   </g>
   <g id="line2d_23">
    <path clip-path="url(#p9aadb4dcc1)" d="M 100.078253 350.573571 
L 101.544371 368.557918 
L 103.010488 388.425 
L 104.476605 377.426041 
L 105.942723 425.701918 
L 107.40884 414.015702 
L 108.874957 447.327286 
L 110.341074 356.804259 
L 111.807192 408.240385 
L 113.273309 413.246961 
L 114.739426 388.475153 
L 116.205544 439.583033 
L 117.671661 415.54689 
L 119.137778 399.792921 
L 120.603896 426.430876 
L 122.070013 437.918712 
L 123.53613 435.8905 
L 125.002247 438.146669 
L 126.468365 431.558023 
L 127.934482 427.906021 
L 129.400599 407.48091 
L 130.866717 420.729432 
L 132.332834 439.208224 
L 133.798951 426.528598 
L 135.265068 429.811667 
L 136.731186 432.289667 
L 138.197303 456.089011 
L 139.66342 427.713709 
L 141.129538 448.605391 
L 142.595655 433.86806 
L 144.061772 433.421923 
L 145.52789 436.839399 
L 146.994007 444.094963 
L 149.926241 465.513555 
L 151.392359 465.119312 
L 152.858476 452.78643 
L 154.324593 447.940934 
L 155.790711 434.742406 
L 157.256828 468.174025 
L 158.722945 459.287318 
L 160.189062 463.282829 
L 161.65518 430.260789 
L 163.121297 462.017562 
L 164.587414 455.974931 
L 166.053532 437.660862 
L 167.519649 436.095628 
L 168.985766 447.535138 
L 170.451884 445.706022 
L 171.918001 450.218857 
L 173.384118 469.715188 
L 174.850235 462.01384 
L 176.316353 422.857203 
L 177.78247 468.878441 
L 179.248587 468.840037 
L 180.714705 444.361 
L 182.180822 451.245787 
L 183.646939 467.69076 
L 185.113056 457.695588 
L 186.579174 466.507698 
L 188.045291 465.85352 
L 189.511408 453.912568 
L 190.977526 452.637804 
L 192.443643 476.745 
L 193.90976 463.860119 
L 195.375877 476.745 
L 201.240347 476.745 
L 202.706464 440.15291 
L 204.172581 458.097783 
L 205.638699 456.672273 
L 207.104816 476.745 
L 208.570933 476.745 
L 210.03705 454.308048 
L 211.503168 453.777624 
L 212.969285 451.312539 
L 214.435402 449.907431 
L 215.90152 476.745 
L 217.367637 476.745 
L 218.833754 439.664084 
L 220.299871 435.227051 
L 221.765989 476.745 
L 223.232106 426.923462 
L 224.698223 369.98456 
L 226.164341 476.745 
L 227.630458 476.745 
L 229.096575 415.643113 
L 230.562693 476.745 
L 232.02881 412.405927 
L 233.494927 476.745 
L 234.961044 322.535476 
L 236.427162 476.745 
L 242.291631 476.745 
L 243.757748 371.145 
L 245.223865 476.745 
L 246.689983 476.745 
L 248.1561 337.956429 
L 249.622217 476.745 
L 286.27515 476.745 
L 287.741267 426.145 
L 289.207384 476.745 
L 293.605736 476.745 
L 295.071853 437.8842 
L 296.537971 476.745 
L 298.004088 450.487703 
L 299.470205 476.745 
L 311.199144 476.745 
L 312.665261 464.384695 
L 314.131378 476.745 
L 315.597496 476.745 
L 317.063613 466.881853 
L 318.52973 476.745 
L 321.461965 476.745 
L 322.928082 468.794755 
L 324.394199 476.745 
L 325.860317 461.991469 
L 327.326434 476.745 
L 328.792551 470.185108 
L 330.258669 476.745 
L 331.724786 465.500556 
L 333.190903 476.745 
L 334.65702 476.745 
L 337.589255 466.092368 
L 339.055372 476.745 
L 340.52149 476.745 
L 341.987607 471.870339 
L 343.453724 471.961544 
L 344.919841 467.605583 
L 346.385959 476.745 
L 347.852076 472.640564 
L 349.318193 469.0284 
L 350.784311 476.745 
L 356.64878 476.745 
L 358.114897 473.68413 
L 359.581014 476.745 
L 361.047132 476.745 
L 362.513249 474.122106 
L 363.979366 476.745 
L 365.445484 474.500268 
L 366.911601 474.590854 
L 368.377718 473.135414 
L 369.843835 475.123368 
L 371.309953 476.745 
L 372.77607 475.320901 
L 375.708305 475.564538 
L 377.174422 476.745 
L 380.106657 476.745 
L 381.572774 471.823419 
L 384.505008 473.844074 
L 385.971126 475.403492 
L 387.437243 474.171096 
L 388.90336 475.548105 
L 390.369478 475.034879 
L 391.835595 472.941297 
L 393.301712 474.652785 
L 394.767829 475.243578 
L 396.233947 473.863719 
L 397.700064 474.901858 
L 400.632299 473.316156 
L 402.098416 474.251366 
L 403.564533 472.270386 
L 406.496768 473.205192 
L 407.962885 471.361339 
L 409.429002 473.232918 
L 410.89512 474.004906 
L 412.361237 472.865438 
L 413.827354 474.795644 
L 415.293472 472.047885 
L 416.759589 472.807097 
L 418.225706 473.94223 
L 419.691823 470.616567 
L 421.157941 473.839364 
L 422.624058 472.476271 
L 424.090175 472.398738 
L 425.556293 473.212842 
L 427.02241 470.891927 
L 428.488527 472.197324 
L 429.954644 471.57509 
L 431.420762 470.47744 
L 432.886879 470.304859 
L 434.352996 472.172424 
L 435.819114 471.047847 
L 437.285231 471.417808 
L 438.751348 469.602279 
L 440.217466 469.226838 
L 441.683583 471.957123 
L 443.1497 473.027212 
L 444.615817 471.642479 
L 446.081935 472.083515 
L 447.548052 469.942591 
L 449.014169 471.154322 
L 450.480287 468.959818 
L 451.946404 468.765668 
L 453.412521 470.793426 
L 454.878638 467.676674 
L 456.344756 471.38045 
L 457.810873 470.484198 
L 459.27699 472.026593 
L 460.743108 471.174358 
L 462.209225 467.134712 
L 463.675342 467.934843 
L 465.14146 463.04573 
L 466.607577 471.026813 
L 468.073694 469.197585 
L 469.539811 465.74155 
L 471.005929 469.081156 
L 473.938163 472.478333 
L 475.404281 471.664271 
L 476.870398 471.636218 
L 478.336515 465.668206 
L 479.802632 464.990372 
L 481.26875 468.449918 
L 482.734867 464.595938 
L 484.200984 467.156054 
L 485.667102 463.461126 
L 487.133219 469.150847 
L 488.599336 465.575536 
L 490.065454 465.906981 
L 491.531571 471.535777 
L 492.997688 469.673228 
L 494.463805 466.584934 
L 495.929923 471.468943 
L 497.39604 470.026328 
L 498.862157 469.58243 
L 500.328275 471.660105 
L 501.794392 469.975552 
L 503.260509 470.500725 
L 504.726626 471.681704 
L 506.192744 471.575014 
L 507.658861 474.073473 
L 509.124978 472.780789 
L 510.591096 469.439554 
L 512.057213 473.382059 
L 513.52333 470.236743 
L 514.989448 471.645827 
L 516.455565 469.495792 
L 517.921682 470.893027 
L 519.387799 471.008509 
L 520.853917 468.971644 
L 522.320034 469.687313 
L 523.786151 470.875143 
L 525.252269 468.314443 
L 526.718386 470.655602 
L 528.184503 471.280236 
L 529.65062 471.29926 
L 531.116738 473.582032 
L 532.582855 473.100258 
L 534.048972 471.084121 
L 535.51509 473.111269 
L 536.981207 472.400746 
L 538.447324 473.161047 
L 539.913442 470.459489 
L 541.379559 471.489279 
L 542.845676 469.357015 
L 544.311793 471.730518 
L 545.777911 472.241663 
L 547.244028 470.772786 
L 548.710145 471.363764 
L 550.176263 474.535895 
L 551.64238 470.265423 
L 553.108497 472.372504 
L 554.574614 470.07846 
L 556.040732 472.466825 
L 557.506849 471.806184 
L 558.972966 475.007454 
L 560.439084 471.876751 
L 561.905201 469.097745 
L 563.371318 470.756178 
L 564.837436 471.270877 
L 566.303553 473.160584 
L 567.76967 473.049884 
L 569.235787 467.618462 
L 570.701905 472.752233 
L 572.168022 471.795 
L 573.634139 475.013852 
L 575.100257 472.259681 
L 578.032491 472.085432 
L 579.498608 474.821198 
L 580.964726 472.79292 
L 582.430843 472.663841 
L 585.363078 474.542756 
L 589.76143 474.333981 
L 591.227547 471.750681 
L 592.693664 474.165287 
L 594.159781 475.394166 
L 595.625899 468.38664 
L 597.092016 473.878314 
L 598.558133 475.278776 
L 600.024251 467.90094 
L 601.490368 466.12232 
L 604.422602 475.171179 
L 605.88872 476.745 
L 607.354837 476.745 
L 608.820954 473.434881 
L 610.287072 476.745 
L 613.219306 473.136085 
L 616.151541 476.745 
L 617.617658 470.860566 
L 619.083775 472.741209 
L 620.549893 476.745 
L 623.482127 476.745 
L 624.948245 474.597045 
L 627.880479 474.565238 
L 630.812714 470.099856 
L 632.278831 476.745 
L 633.744948 476.745 
L 635.211066 472.083196 
L 636.677183 474.363824 
L 638.1433 474.280464 
L 639.609418 471.746183 
L 641.075535 474.122106 
L 642.541652 471.4143 
L 644.007769 473.985 
L 645.473887 471.071891 
L 646.940004 473.908445 
L 648.406121 473.863007 
L 649.872239 476.745 
L 652.804473 470.731258 
L 654.27059 473.728794 
L 657.202825 473.653941 
L 658.668942 476.745 
L 660.13506 473.602956 
L 661.601177 476.745 
L 663.067294 467.090942 
L 664.533411 470.171793 
L 665.999529 476.745 
L 667.465646 473.281471 
L 668.931763 476.745 
L 670.397881 473.237708 
L 671.863998 473.18371 
L 673.330115 476.745 
L 674.796233 473.134744 
L 676.26235 476.745 
L 677.728467 473.14411 
L 679.194584 476.745 
L 683.592936 476.745 
L 685.059054 473.254091 
L 686.525171 476.745 
L 690.923523 476.745 
L 692.38964 473.058017 
L 693.855757 476.745 
L 695.321875 472.995405 
L 696.787992 476.745 
L 698.254109 476.745 
L 699.720227 468.960385 
L 701.186344 476.745 
L 702.652461 472.826 
L 704.118578 476.745 
L 712.915282 476.745 
L 712.915282 476.745 
" style="fill:none;stroke:#ffdd00;stroke-linecap:square;stroke-width:2;"/>
   </g>
   <g id="line2d_24">
    <path clip-path="url(#p9aadb4dcc1)" d="M 89.815432 332.524757 
L 91.28155 371.145 
L 92.747667 343.294451 
L 94.213784 335.717903 
L 95.679902 369.542793 
L 97.146019 383.449225 
L 100.078253 348.370484 
L 101.544371 362.402143 
L 103.010488 371.10796 
L 104.476605 385.522465 
L 105.942723 421.15015 
L 107.40884 394.58686 
L 108.874957 376.193398 
L 110.341074 373.951299 
L 111.807192 423.399953 
L 113.273309 414.91556 
L 116.205544 400.609844 
L 117.671661 432.530892 
L 119.137778 414.926916 
L 120.603896 422.208994 
L 122.070013 433.118366 
L 123.53613 430.072368 
L 125.002247 440.284954 
L 126.468365 442.694811 
L 127.934482 437.236257 
L 129.400599 446.955692 
L 130.866717 453.801731 
L 132.332834 437.555514 
L 133.798951 440.679869 
L 135.265068 456.923118 
L 136.731186 456.905408 
L 138.197303 458.425955 
L 139.66342 444.352694 
L 141.129538 456.549703 
L 142.595655 439.239569 
L 144.061772 458.133506 
L 145.52789 457.690251 
L 146.994007 444.964371 
L 148.460124 452.756852 
L 149.926241 443.379374 
L 151.392359 449.471241 
L 152.858476 457.066346 
L 154.324593 465.769145 
L 155.790711 460.692125 
L 157.256828 451.889465 
L 158.722945 458.094529 
L 160.189062 448.942603 
L 161.65518 455.294696 
L 163.121297 447.509867 
L 164.587414 452.494309 
L 166.053532 455.524349 
L 167.519649 456.758989 
L 168.985766 454.118026 
L 170.451884 461.828045 
L 171.918001 457.275661 
L 173.384118 454.594521 
L 174.850235 460.825899 
L 176.316353 449.210187 
L 177.78247 453.261316 
L 179.248587 452.733136 
L 180.714705 462.266311 
L 182.180822 437.040479 
L 183.646939 449.037663 
L 185.113056 450.906702 
L 186.579174 458.204542 
L 188.045291 451.989394 
L 189.511408 462.681306 
L 190.977526 456.981443 
L 192.443643 442.344764 
L 193.90976 465.015208 
L 195.375877 449.733323 
L 196.841995 451.295884 
L 198.308112 453.862631 
L 199.774229 463.386183 
L 201.240347 452.577836 
L 202.706464 459.074574 
L 204.172581 462.352111 
L 205.638699 453.992775 
L 207.104816 452.845369 
L 208.570933 452.457 
L 210.03705 442.938301 
L 211.503168 472.411726 
L 212.969285 476.745 
L 214.435402 457.478366 
L 215.90152 461.050008 
L 217.367637 450.010823 
L 218.833754 465.841296 
L 220.299871 471.003156 
L 221.765989 441.244878 
L 223.232106 425.159867 
L 224.698223 465.02582 
L 226.164341 440.7183 
L 227.630458 464.297594 
L 229.096575 458.73165 
L 230.562693 452.102768 
L 232.02881 451.295884 
L 233.494927 457.732867 
L 234.961044 476.745 
L 236.427162 463.571847 
L 239.359396 463.022966 
L 240.825514 469.684535 
L 242.291631 469.553882 
L 243.757748 469.294693 
L 245.223865 476.745 
L 246.689983 468.642248 
L 248.1561 476.745 
L 249.622217 459.473533 
L 251.088335 467.757766 
L 252.554452 476.745 
L 254.020569 467.182795 
L 255.486687 476.745 
L 259.885038 476.745 
L 261.351156 465.068077 
L 262.817273 464.706338 
L 264.28339 476.745 
L 267.215625 448.544129 
L 268.681742 448.420802 
L 270.147859 460.947927 
L 271.613977 444.891885 
L 273.080094 413.03877 
L 274.546211 443.128391 
L 276.012329 409.511782 
L 277.478446 442.354912 
L 278.944563 443.643807 
L 280.410681 460.633557 
L 281.876798 414.368114 
L 283.342915 430.037308 
L 284.809032 476.745 
L 286.27515 399.640238 
L 287.741267 446.479579 
L 289.207384 476.745 
L 290.673502 446.98941 
L 292.139619 476.745 
L 293.605736 461.445472 
L 295.071853 461.372848 
L 296.537971 461.421341 
L 298.004088 476.745 
L 300.936323 476.745 
L 302.40244 446.337488 
L 303.868557 476.745 
L 306.800792 476.745 
L 308.266909 460.739728 
L 309.733026 476.745 
L 311.199144 459.965725 
L 312.665261 476.745 
L 319.995847 476.745 
L 321.461965 447.959222 
L 322.928082 476.745 
L 324.394199 476.745 
L 325.860317 464.078507 
L 327.326434 476.745 
L 336.123138 476.745 
L 337.589255 470.469031 
L 339.055372 476.745 
L 340.52149 471.433245 
L 341.987607 476.745 
L 343.453724 467.421392 
L 344.919841 468.15508 
L 346.385959 468.685937 
L 347.852076 476.745 
L 349.318193 476.745 
L 350.784311 473.416737 
L 352.250428 473.645064 
L 353.716545 468.139863 
L 355.182663 468.956224 
L 356.64878 476.745 
L 358.114897 474.50699 
L 359.581014 472.585206 
L 361.047132 470.888942 
L 362.513249 471.165827 
L 363.979366 469.729149 
L 365.445484 470.141636 
L 366.911601 468.951642 
L 368.377718 473.820497 
L 369.843835 465.864194 
L 371.309953 472.846966 
L 372.77607 464.509232 
L 374.242187 472.014531 
L 375.708305 464.603759 
L 377.174422 470.502635 
L 378.640539 470.898926 
L 380.106657 473.951671 
L 381.572774 473.126339 
L 383.038891 473.225956 
L 384.505008 470.100424 
L 385.971126 471.280005 
L 387.437243 471.514945 
L 388.90336 472.520082 
L 390.369478 474.019648 
L 391.835595 469.625266 
L 393.301712 468.544922 
L 394.767829 474.356359 
L 396.233947 469.246033 
L 397.700064 461.31355 
L 399.166181 470.830605 
L 400.632299 469.084379 
L 402.098416 468.880431 
L 403.564533 469.683509 
L 405.030651 466.34135 
L 406.496768 471.996191 
L 407.962885 468.056307 
L 409.429002 471.250865 
L 410.89512 472.169732 
L 412.361237 466.229088 
L 413.827354 470.609388 
L 415.293472 468.652518 
L 416.759589 469.128494 
L 418.225706 466.249767 
L 419.691823 468.118704 
L 421.157941 471.823918 
L 422.624058 467.319078 
L 425.556293 467.68171 
L 427.02241 467.352388 
L 428.488527 467.718401 
L 429.954644 467.01488 
L 431.420762 470.635418 
L 432.886879 468.806707 
L 434.352996 469.504717 
L 435.819114 467.482999 
L 437.285231 470.934281 
L 438.751348 468.327685 
L 440.217466 470.004574 
L 441.683583 467.665374 
L 443.1497 467.902282 
L 444.615817 468.483213 
L 446.081935 470.670047 
L 447.548052 470.90468 
L 449.014169 466.393162 
L 450.480287 467.567396 
L 451.946404 465.508278 
L 453.412521 467.675806 
L 454.878638 470.629834 
L 456.344756 469.794074 
L 457.810873 468.779941 
L 459.27699 467.042377 
L 460.743108 467.44268 
L 462.209225 469.76594 
L 463.675342 468.37358 
L 465.14146 470.290361 
L 466.607577 468.765763 
L 468.073694 469.094995 
L 469.539811 466.985438 
L 471.005929 469.377916 
L 472.472046 467.801639 
L 473.938163 470.552492 
L 475.404281 468.382084 
L 476.870398 467.521974 
L 478.336515 467.212873 
L 479.802632 466.398904 
L 481.26875 466.792176 
L 482.734867 469.99047 
L 484.200984 470.002213 
L 485.667102 469.84553 
L 487.133219 470.478977 
L 488.599336 470.88541 
L 490.065454 469.112864 
L 491.531571 471.03801 
L 492.997688 469.412001 
L 494.463805 472.057679 
L 495.929923 469.014239 
L 497.39604 470.46438 
L 498.862157 469.181237 
L 500.328275 469.07273 
L 501.794392 467.816296 
L 503.260509 471.602122 
L 504.726626 468.981395 
L 506.192744 471.315054 
L 507.658861 470.986906 
L 509.124978 469.835287 
L 510.591096 470.821009 
L 512.057213 470.267432 
L 513.52333 471.842048 
L 514.989448 471.115529 
L 516.455565 469.206912 
L 517.921682 470.112804 
L 519.387799 470.887218 
L 520.853917 468.213471 
L 522.320034 470.000452 
L 523.786151 470.109274 
L 525.252269 472.344463 
L 526.718386 469.307692 
L 528.184503 472.111501 
L 529.65062 469.751013 
L 531.116738 470.365395 
L 532.582855 469.538701 
L 534.048972 470.510041 
L 535.51509 469.873993 
L 536.981207 471.124826 
L 538.447324 468.709268 
L 539.913442 471.773161 
L 541.379559 470.014933 
L 542.845676 467.123495 
L 544.311793 471.452186 
L 545.777911 470.964645 
L 547.244028 468.854869 
L 548.710145 467.385189 
L 551.64238 469.915552 
L 553.108497 469.094712 
L 554.574614 467.209907 
L 556.040732 470.098594 
L 557.506849 470.172316 
L 558.972966 469.502958 
L 560.439084 468.273796 
L 561.905201 469.582709 
L 563.371318 464.898929 
L 564.837436 467.410075 
L 566.303553 466.004886 
L 567.76967 467.044351 
L 569.235787 469.965377 
L 570.701905 468.990496 
L 572.168022 469.816369 
L 573.634139 465.206758 
L 575.100257 466.653033 
L 576.566374 466.320966 
L 578.032491 467.338759 
L 579.498608 466.420664 
L 580.964726 467.688649 
L 582.430843 465.846538 
L 583.89696 466.428254 
L 585.363078 466.783247 
L 586.829195 474.175974 
L 588.295312 467.838509 
L 589.76143 464.675275 
L 591.227547 471.039685 
L 592.693664 468.925926 
L 594.159781 472.767843 
L 595.625899 468.379743 
L 597.092016 470.25522 
L 598.558133 469.916134 
L 600.024251 472.091569 
L 601.490368 468.504796 
L 602.956485 473.119023 
L 604.422602 471.645157 
L 605.88872 471.514744 
L 607.354837 466.029213 
L 608.820954 471.300786 
L 610.287072 472.584315 
L 611.753189 469.576169 
L 613.219306 473.880427 
L 614.685424 466.203007 
L 616.151541 476.745 
L 617.617658 472.010497 
L 619.083775 471.876852 
L 620.549893 475.069099 
L 622.01601 473.348077 
L 623.482127 475.020918 
L 627.880479 474.96043 
L 629.346596 473.130714 
L 630.812714 476.745 
L 632.278831 476.745 
L 633.744948 472.91484 
L 635.211066 466.714853 
L 636.677183 474.696676 
L 638.1433 476.745 
L 641.075535 472.498846 
L 642.541652 476.745 
L 645.473887 472.166678 
L 646.940004 472.078718 
L 648.406121 476.745 
L 649.872239 471.634427 
L 651.338356 476.745 
L 652.804473 468.751144 
L 654.27059 473.932261 
L 655.736708 476.745 
L 657.202825 470.462944 
L 658.668942 470.248711 
L 660.13506 476.745 
L 661.601177 473.358733 
L 663.067294 473.242765 
L 664.533411 476.745 
L 665.999529 468.903838 
L 667.465646 476.745 
L 668.931763 472.263819 
L 670.397881 472.205187 
L 671.863998 476.745 
L 673.330115 476.745 
L 674.796233 471.724225 
L 676.26235 476.745 
L 677.728467 476.745 
L 679.194584 471.775588 
L 680.660702 476.745 
L 682.126819 471.046935 
L 683.592936 476.745 
L 685.059054 464.817192 
L 686.525171 464.305563 
L 687.991288 476.745 
L 689.457405 469.965377 
L 690.923523 476.745 
L 695.321875 476.745 
L 696.787992 455.439737 
L 698.254109 476.745 
L 699.720227 476.745 
L 702.652461 461.752407 
L 704.118578 461.517414 
L 705.584696 476.745 
L 709.983048 476.745 
L 709.983048 476.745 
" style="fill:none;stroke:#d4351c;stroke-linecap:square;stroke-width:2;"/>
   </g>
   <g id="patch_3">
    <path d="M 53.1625 476.745 
L 53.1625 33.225 
" style="fill:none;stroke:#000000;stroke-linecap:square;stroke-linejoin:miter;stroke-width:0.8;"/>
   </g>
   <g id="patch_4">
    <path d="M 53.1625 476.745 
L 722.7625 476.745 
" style="fill:none;stroke:#000000;stroke-linecap:square;stroke-linejoin:miter;stroke-width:0.8;"/>
   </g>
   <g id="text_23">
    <!-- Mortality of COVID-19 in UK nations -->
    <g transform="translate(283.064688 27.225)scale(0.12 -0.12)">
     <defs>
      <path d="M 405 4655 
L 1618 4655 
L 2900 1527 
L 2955 1527 
L 4236 4655 
L 5450 4655 
L 5450 0 
L 4496 0 
L 4496 3030 
L 4457 3030 
L 3252 23 
L 2602 23 
L 1398 3041 
L 1359 3041 
L 1359 0 
L 405 0 
L 405 4655 
z
" id="Inter-Bold-4d" transform="scale(0.015625)"/>
      <path d="M 1964 -68 
Q 1434 -68 1049 158 
Q 664 384 455 789 
Q 246 1195 246 1732 
Q 246 2273 455 2678 
Q 664 3084 1049 3310 
Q 1434 3536 1964 3536 
Q 2493 3536 2878 3310 
Q 3264 3084 3473 2678 
Q 3682 2273 3682 1732 
Q 3682 1195 3473 789 
Q 3264 384 2878 158 
Q 2493 -68 1964 -68 
z
M 1968 682 
Q 2327 682 2512 982 
Q 2698 1282 2698 1739 
Q 2698 2195 2512 2496 
Q 2327 2798 1968 2798 
Q 1602 2798 1416 2496 
Q 1230 2195 1230 1739 
Q 1230 1282 1416 982 
Q 1602 682 1968 682 
z
" id="Inter-Bold-6f" transform="scale(0.015625)"/>
      <path d="M 386 0 
L 386 3491 
L 1325 3491 
L 1325 2882 
L 1361 2882 
Q 1457 3207 1681 3374 
Q 1905 3541 2200 3541 
Q 2341 3541 2461 3507 
Q 2582 3473 2677 3414 
L 2386 2614 
Q 2318 2648 2237 2671 
Q 2157 2695 2057 2695 
Q 1764 2695 1560 2495 
Q 1357 2295 1355 1975 
L 1355 0 
L 386 0 
z
" id="Inter-Bold-72" transform="scale(0.015625)"/>
      <path d="M 2243 3491 
L 2243 2764 
L 1586 2764 
L 1586 1073 
Q 1586 873 1677 802 
Q 1768 732 1914 732 
Q 1982 732 2050 744 
Q 2118 757 2155 764 
L 2307 43 
Q 2234 20 2102 -10 
Q 1971 -41 1782 -48 
Q 1255 -70 935 181 
Q 616 432 618 945 
L 618 2764 
L 141 2764 
L 141 3491 
L 618 3491 
L 618 4327 
L 1586 4327 
L 1586 3491 
L 2243 3491 
z
" id="Inter-Bold-74" transform="scale(0.015625)"/>
      <path d="M 1382 -66 
Q 882 -66 552 195 
Q 223 457 223 975 
Q 223 1366 407 1588 
Q 591 1811 890 1914 
Q 1189 2018 1534 2050 
Q 1989 2095 2184 2145 
Q 2380 2195 2380 2364 
L 2380 2377 
Q 2380 2593 2244 2711 
Q 2109 2830 1861 2830 
Q 1600 2830 1445 2716 
Q 1291 2602 1241 2427 
L 346 2500 
Q 446 2977 842 3256 
Q 1239 3536 1866 3536 
Q 2255 3536 2593 3413 
Q 2932 3291 3140 3030 
Q 3348 2770 3348 2355 
L 3348 0 
L 2430 0 
L 2430 484 
L 2402 484 
Q 2275 241 2021 87 
Q 1768 -66 1382 -66 
z
M 1659 602 
Q 1977 602 2181 787 
Q 2386 973 2386 1248 
L 2386 1618 
Q 2330 1580 2210 1550 
Q 2091 1520 1956 1498 
Q 1821 1477 1714 1461 
Q 1459 1425 1303 1318 
Q 1148 1211 1148 1007 
Q 1148 807 1292 704 
Q 1436 602 1659 602 
z
" id="Inter-Bold-61" transform="scale(0.015625)"/>
      <path d="M 1355 4655 
L 1355 0 
L 386 0 
L 386 4655 
L 1355 4655 
z
" id="Inter-Bold-6c" transform="scale(0.015625)"/>
      <path d="M 386 0 
L 386 3491 
L 1355 3491 
L 1355 0 
L 386 0 
z
M 876 3941 
Q 662 3941 507 4085 
Q 353 4230 353 4432 
Q 353 4634 507 4777 
Q 662 4920 876 4920 
Q 1092 4920 1246 4777 
Q 1401 4634 1401 4432 
Q 1401 4230 1246 4085 
Q 1092 3941 876 3941 
z
" id="Inter-Bold-69" transform="scale(0.015625)"/>
      <path d="M 950 -1359 
Q 743 -1359 596 -1324 
Q 450 -1289 368 -1252 
L 586 -502 
Q 843 -580 1019 -543 
Q 1196 -507 1298 -268 
L 1361 -100 
L 109 3491 
L 1127 3491 
L 1850 927 
L 1886 927 
L 2616 3491 
L 3641 3491 
L 2277 -400 
Q 2130 -818 1806 -1088 
Q 1482 -1359 950 -1359 
z
" id="Inter-Bold-79" transform="scale(0.015625)"/>
      <path id="Inter-Bold-20" transform="scale(0.015625)"/>
      <path d="M 2296 3491 
L 2296 2764 
L 1602 2764 
L 1602 0 
L 634 0 
L 634 2764 
L 141 2764 
L 141 3491 
L 634 3491 
L 634 3743 
Q 634 4314 960 4593 
Q 1286 4873 1780 4873 
Q 2002 4873 2187 4839 
Q 2373 4805 2464 4777 
L 2293 4050 
Q 2236 4068 2152 4084 
Q 2068 4100 1982 4100 
Q 1768 4100 1685 4001 
Q 1602 3902 1602 3725 
L 1602 3491 
L 2296 3491 
z
" id="Inter-Bold-66" transform="scale(0.015625)"/>
      <path d="M 4511 3025 
L 3516 3025 
Q 3459 3409 3188 3628 
Q 2918 3848 2514 3848 
Q 1973 3848 1647 3451 
Q 1321 3055 1321 2327 
Q 1321 1582 1649 1194 
Q 1977 807 2507 807 
Q 2900 807 3173 1012 
Q 3446 1218 3516 1591 
L 4511 1586 
Q 4459 1159 4207 782 
Q 3955 405 3522 170 
Q 3089 -64 2491 -64 
Q 1868 -64 1378 218 
Q 889 500 606 1034 
Q 323 1568 323 2327 
Q 323 3089 609 3623 
Q 896 4157 1386 4437 
Q 1877 4718 2491 4718 
Q 3030 4718 3463 4519 
Q 3896 4320 4172 3942 
Q 4448 3564 4511 3025 
z
" id="Inter-Bold-43" transform="scale(0.015625)"/>
      <path d="M 4682 2327 
Q 4682 1566 4394 1032 
Q 4107 498 3614 217 
Q 3121 -64 2502 -64 
Q 1882 -64 1389 218 
Q 896 500 609 1035 
Q 323 1570 323 2327 
Q 323 3089 609 3623 
Q 896 4157 1389 4437 
Q 1882 4718 2502 4718 
Q 3121 4718 3614 4437 
Q 4107 4157 4394 3623 
Q 4682 3089 4682 2327 
z
M 3684 2327 
Q 3684 3068 3361 3458 
Q 3039 3848 2502 3848 
Q 1966 3848 1643 3458 
Q 1321 3068 1321 2327 
Q 1321 1589 1643 1198 
Q 1966 807 2502 807 
Q 3039 807 3361 1198 
Q 3684 1589 3684 2327 
z
" id="Inter-Bold-4f" transform="scale(0.015625)"/>
      <path d="M 1246 4655 
L 2371 1118 
L 2414 1118 
L 3541 4655 
L 4632 4655 
L 3027 0 
L 1759 0 
L 152 4655 
L 1246 4655 
z
" id="Inter-Bold-56" transform="scale(0.015625)"/>
      <path d="M 1389 4655 
L 1389 0 
L 405 0 
L 405 4655 
L 1389 4655 
z
" id="Inter-Bold-49" transform="scale(0.015625)"/>
      <path d="M 2055 0 
L 405 0 
L 405 4655 
L 2068 4655 
Q 2771 4655 3278 4376 
Q 3786 4098 4059 3577 
Q 4332 3057 4332 2332 
Q 4332 1605 4058 1082 
Q 3784 559 3274 279 
Q 2764 0 2055 0 
z
M 1389 843 
L 2014 843 
Q 2671 843 3010 1197 
Q 3350 1552 3350 2332 
Q 3350 3107 3010 3459 
Q 2671 3811 2016 3811 
L 1389 3811 
L 1389 843 
z
" id="Inter-Bold-44" transform="scale(0.015625)"/>
      <path d="M 2561 2295 
L 2561 1527 
L 439 1527 
L 439 2295 
L 2561 2295 
z
" id="Inter-Bold-2d" transform="scale(0.015625)"/>
      <path d="M 2305 4655 
L 2305 0 
L 1323 0 
L 1323 3450 
L 1280 3450 
Q 1205 3334 961 3219 
Q 718 3105 332 3105 
L 332 3886 
Q 632 3886 857 4019 
Q 1082 4152 1209 4333 
Q 1336 4514 1341 4655 
L 2305 4655 
z
" id="Inter-Bold-31" transform="scale(0.015625)"/>
      <path d="M 2061 4732 
Q 2421 4732 2753 4612 
Q 3086 4493 3348 4227 
Q 3611 3961 3766 3523 
Q 3921 3086 3921 2448 
Q 3921 1659 3686 1096 
Q 3452 534 3028 235 
Q 2605 -64 2027 -64 
Q 1561 -64 1204 117 
Q 848 298 631 610 
Q 414 923 368 1314 
L 1339 1314 
Q 1396 1059 1577 919 
Q 1759 780 2027 780 
Q 2482 780 2718 1176 
Q 2955 1573 2957 2264 
L 2925 2264 
Q 2771 1957 2453 1782 
Q 2136 1607 1752 1607 
Q 1341 1607 1016 1801 
Q 691 1995 506 2334 
Q 321 2673 323 3109 
Q 321 3582 539 3949 
Q 757 4316 1149 4525 
Q 1541 4734 2061 4732 
z
M 2068 3959 
Q 1725 3959 1500 3722 
Q 1275 3486 1277 3136 
Q 1275 2791 1496 2555 
Q 1718 2320 2059 2320 
Q 2284 2320 2465 2431 
Q 2646 2543 2751 2729 
Q 2857 2916 2859 3141 
Q 2857 3366 2753 3551 
Q 2650 3736 2473 3847 
Q 2296 3959 2068 3959 
z
" id="Inter-Bold-39" transform="scale(0.015625)"/>
      <path d="M 1355 2018 
L 1355 0 
L 386 0 
L 386 3491 
L 1309 3491 
L 1309 2875 
L 1350 2875 
Q 1468 3180 1739 3358 
Q 2011 3536 2400 3536 
Q 2946 3536 3275 3185 
Q 3605 2834 3605 2223 
L 3605 0 
L 2636 0 
L 2636 2050 
Q 2639 2370 2473 2551 
Q 2307 2732 2016 2732 
Q 1723 2732 1540 2544 
Q 1357 2357 1355 2018 
z
" id="Inter-Bold-6e" transform="scale(0.015625)"/>
      <path d="M 3286 4655 
L 4264 4655 
L 4264 1577 
Q 4264 1050 4016 683 
Q 3768 316 3333 125 
Q 2898 -66 2334 -66 
Q 1771 -66 1334 125 
Q 898 316 651 683 
Q 405 1050 405 1577 
L 405 4655 
L 1389 4655 
L 1389 1611 
Q 1389 1239 1658 1025 
Q 1927 811 2334 811 
Q 2748 811 3017 1025 
Q 3286 1239 3286 1611 
L 3286 4655 
z
" id="Inter-Bold-55" transform="scale(0.015625)"/>
      <path d="M 405 0 
L 405 4655 
L 1389 4655 
L 1389 2602 
L 1450 2602 
L 3125 4655 
L 4305 4655 
L 2577 2570 
L 4325 0 
L 3148 0 
L 1873 1914 
L 1389 1323 
L 1389 0 
L 405 0 
z
" id="Inter-Bold-4b" transform="scale(0.015625)"/>
      <path d="M 3291 2495 
L 2405 2441 
Q 2368 2609 2220 2729 
Q 2073 2850 1821 2850 
Q 1596 2850 1440 2755 
Q 1284 2661 1286 2505 
Q 1284 2380 1385 2293 
Q 1486 2207 1730 2155 
L 2361 2027 
Q 3368 1820 3371 1082 
Q 3371 739 3169 479 
Q 2968 220 2618 76 
Q 2268 -68 1816 -68 
Q 1123 -68 711 221 
Q 300 511 232 1011 
L 1184 1061 
Q 1230 848 1394 739 
Q 1559 630 1818 630 
Q 2073 630 2228 730 
Q 2384 830 2386 984 
Q 2380 1243 1939 1332 
L 1334 1452 
Q 321 1655 325 2450 
Q 323 2955 728 3245 
Q 1134 3536 1805 3536 
Q 2466 3536 2846 3256 
Q 3227 2977 3291 2495 
z
" id="Inter-Bold-73" transform="scale(0.015625)"/>
     </defs>
     <use xlink:href="#Inter-Bold-4d"/>
     <use x="92.400589" xlink:href="#Inter-Bold-6f"/>
     <use x="153.764236" xlink:href="#Inter-Bold-72"/>
     <use x="196.626465" xlink:href="#Inter-Bold-74"/>
     <use x="235.475906" xlink:href="#Inter-Bold-61"/>
     <use x="293.50148" xlink:href="#Inter-Bold-6c"/>
     <use x="320.703186" xlink:href="#Inter-Bold-69"/>
     <use x="347.904892" xlink:href="#Inter-Bold-74"/>
     <use x="386.754333" xlink:href="#Inter-Bold-79"/>
     <use x="445.348099" xlink:href="#Inter-Bold-20"/>
     <use x="468.537018" xlink:href="#Inter-Bold-6f"/>
     <use x="529.900665" xlink:href="#Inter-Bold-66"/>
     <use x="568.963165" xlink:href="#Inter-Bold-20"/>
     <use x="592.152084" xlink:href="#Inter-Bold-43"/>
     <use x="667.365173" xlink:href="#Inter-Bold-4f"/>
     <use x="745.561218" xlink:href="#Inter-Bold-56"/>
     <use x="820.34816" xlink:href="#Inter-Bold-49"/>
     <use x="848.402145" xlink:href="#Inter-Bold-44"/>
     <use x="921.12944" xlink:href="#Inter-Bold-2d"/>
     <use x="968.004456" xlink:href="#Inter-Bold-31"/>
     <use x="1015.41214" xlink:href="#Inter-Bold-39"/>
     <use x="1081.42778" xlink:href="#Inter-Bold-20"/>
     <use x="1104.616699" xlink:href="#Inter-Bold-69"/>
     <use x="1131.818405" xlink:href="#Inter-Bold-6e"/>
     <use x="1193.99881" xlink:href="#Inter-Bold-20"/>
     <use x="1217.187729" xlink:href="#Inter-Bold-55"/>
     <use x="1290.128082" xlink:href="#Inter-Bold-4b"/>
     <use x="1359.091171" xlink:href="#Inter-Bold-20"/>
     <use x="1382.28009" xlink:href="#Inter-Bold-6e"/>
     <use x="1444.460495" xlink:href="#Inter-Bold-61"/>
     <use x="1502.486069" xlink:href="#Inter-Bold-74"/>
     <use x="1541.33551" xlink:href="#Inter-Bold-69"/>
     <use x="1568.537216" xlink:href="#Inter-Bold-6f"/>
     <use x="1629.900864" xlink:href="#Inter-Bold-6e"/>
     <use x="1692.081268" xlink:href="#Inter-Bold-73"/>
    </g>
   </g>
   <g id="legend_1">
    <g id="patch_5">
     <path d="M 606.189062 98.614062 
L 715.7625 98.614062 
Q 717.7625 98.614062 717.7625 96.614062 
L 717.7625 40.225 
Q 717.7625 38.225 715.7625 38.225 
L 606.189062 38.225 
Q 604.189062 38.225 604.189062 40.225 
L 604.189062 96.614062 
Q 604.189062 98.614062 606.189062 98.614062 
z
" style="fill:#ffffff;opacity:0.8;stroke:#cccccc;stroke-linejoin:miter;"/>
    </g>
    <g id="line2d_25">
     <path d="M 608.189062 45.998437 
L 628.189062 45.998437 
" style="fill:none;stroke:#003078;stroke-linecap:square;stroke-width:2;"/>
    </g>
    <g id="line2d_26"/>
    <g id="text_24">
     <!-- Scotland -->
     <g transform="translate(636.189062 49.498437)scale(0.1 -0.1)">
      <use xlink:href="#Inter-Regular-53"/>
      <use x="63.778427" xlink:href="#Inter-Regular-63"/>
      <use x="119.602295" xlink:href="#Inter-Regular-6f"/>
      <use x="179.261398" xlink:href="#Inter-Regular-74"/>
      <use x="215.625046" xlink:href="#Inter-Regular-6c"/>
      <use x="239.346634" xlink:href="#Inter-Regular-61"/>
      <use x="295.738693" xlink:href="#Inter-Regular-6e"/>
      <use x="354.261429" xlink:href="#Inter-Regular-64"/>
     </g>
    </g>
    <g id="line2d_27">
     <path d="M 608.189062 60.317187 
L 628.189062 60.317187 
" style="fill:none;stroke:#5694ca;stroke-linecap:square;stroke-width:2;"/>
    </g>
    <g id="line2d_28"/>
    <g id="text_25">
     <!-- England -->
     <g transform="translate(636.189062 63.817187)scale(0.1 -0.1)">
      <defs>
       <path d="M 564 0 
L 564 4655 
L 3373 4655 
L 3373 4155 
L 1127 4155 
L 1127 2582 
L 3227 2582 
L 3227 2082 
L 1127 2082 
L 1127 500 
L 3409 500 
L 3409 0 
L 564 0 
z
" id="Inter-Regular-45" transform="scale(0.015625)"/>
      </defs>
      <use xlink:href="#Inter-Regular-45"/>
      <use x="59.801147" xlink:href="#Inter-Regular-6e"/>
      <use x="118.323883" xlink:href="#Inter-Regular-67"/>
      <use x="179.261398" xlink:href="#Inter-Regular-6c"/>
      <use x="202.982986" xlink:href="#Inter-Regular-61"/>
      <use x="259.375046" xlink:href="#Inter-Regular-6e"/>
      <use x="317.897781" xlink:href="#Inter-Regular-64"/>
     </g>
    </g>
    <g id="line2d_29">
     <path d="M 608.189062 74.75 
L 628.189062 74.75 
" style="fill:none;stroke:#ffdd00;stroke-linecap:square;stroke-width:2;"/>
    </g>
    <g id="line2d_30"/>
    <g id="text_26">
     <!-- Northern Ireland -->
     <g transform="translate(636.189062 78.25)scale(0.1 -0.1)">
      <defs>
       <path d="M 1127 4655 
L 1127 0 
L 564 0 
L 564 4655 
L 1127 4655 
z
" id="Inter-Regular-49" transform="scale(0.015625)"/>
      </defs>
      <use xlink:href="#Inter-Regular-4e"/>
      <use x="75.284103" xlink:href="#Inter-Regular-6f"/>
      <use x="134.943207" xlink:href="#Inter-Regular-72"/>
      <use x="173.295486" xlink:href="#Inter-Regular-74"/>
      <use x="209.659134" xlink:href="#Inter-Regular-68"/>
      <use x="268.750061" xlink:href="#Inter-Regular-65"/>
      <use x="326.988708" xlink:href="#Inter-Regular-72"/>
      <use x="365.340988" xlink:href="#Inter-Regular-6e"/>
      <use x="423.863724" xlink:href="#Inter-Regular-20"/>
      <use x="451.988724" xlink:href="#Inter-Regular-49"/>
      <use x="478.40918" xlink:href="#Inter-Regular-72"/>
      <use x="516.761459" xlink:href="#Inter-Regular-65"/>
      <use x="575.000107" xlink:href="#Inter-Regular-6c"/>
      <use x="598.721695" xlink:href="#Inter-Regular-61"/>
      <use x="655.113754" xlink:href="#Inter-Regular-6e"/>
      <use x="713.63649" xlink:href="#Inter-Regular-64"/>
     </g>
    </g>
    <g id="line2d_31">
     <path d="M 608.189062 89.06875 
L 628.189062 89.06875 
" style="fill:none;stroke:#d4351c;stroke-linecap:square;stroke-width:2;"/>
    </g>
    <g id="line2d_32"/>
    <g id="text_27">
     <!-- Wales -->
     <g transform="translate(636.189062 92.56875)scale(0.1 -0.1)">
      <defs>
       <path d="M 1409 0 
L 136 4655 
L 709 4655 
L 1682 864 
L 1727 864 
L 2718 4655 
L 3355 4655 
L 4346 864 
L 4391 864 
L 5364 4655 
L 5936 4655 
L 4664 0 
L 4082 0 
L 3055 3709 
L 3018 3709 
L 1991 0 
L 1409 0 
z
" id="Inter-Regular-57" transform="scale(0.015625)"/>
      </defs>
      <use xlink:href="#Inter-Regular-57"/>
      <use x="94.886383" xlink:href="#Inter-Regular-61"/>
      <use x="151.278442" xlink:href="#Inter-Regular-6c"/>
      <use x="175.000031" xlink:href="#Inter-Regular-65"/>
      <use x="233.238678" xlink:href="#Inter-Regular-73"/>
     </g>
    </g>
   </g>
  </g>
 </g>
 <defs>
  <clipPath id="p9aadb4dcc1">
   <rect height="443.52" width="669.6" x="53.1625" y="33.225"/>
  </clipPath>
 </defs>
</svg>
