<?xml version="1.0" encoding="utf-8" standalone="no"?>
<!DOCTYPE svg PUBLIC "-//W3C//DTD SVG 1.1//EN"
  "http://www.w3.org/Graphics/SVG/1.1/DTD/svg11.dtd">
<svg version="1.1" viewBox="0 0 740.7625 535.806875" xmlns="http://www.w3.org/2000/svg" xmlns:xlink="http://www.w3.org/1999/xlink">
 <metadata>
  <rdf:RDF xmlns:cc="http://creativecommons.org/ns#" xmlns:dc="http://purl.org/dc/elements/1.1/" xmlns:rdf="http://www.w3.org/1999/02/22-rdf-syntax-ns#">
   <cc:Work>
    <dc:type rdf:resource="http://purl.org/dc/dcmitype/StillImage"/>
    <dc:date>2021-07-23T16:20:18.694589</dc:date>
    <dc:format>image/svg+xml</dc:format>
    <dc:creator>
     <cc:Agent>
      <dc:title>Matplotlib v3.4.2, https://matplotlib.org/</dc:title>
     </cc:Agent>
    </dc:creator>
   </cc:Work>
  </rdf:RDF>
 </metadata>
 <defs>
  <style type="text/css">*{stroke-linecap:butt;stroke-linejoin:round;}</style>
 </defs>
 <g id="figure_1">
  <g id="patch_1">
   <path d="M 0 535.806875 
L 740.7625 535.806875 
L 740.7625 0 
L 0 0 
z
" style="fill:#ffffff;"/>
  </g>
  <g id="axes_1">
   <g id="patch_2">
    <path d="M 53.1625 476.745 
L 722.7625 476.745 
L 722.7625 33.225 
L 53.1625 33.225 
z
" style="fill:#ffffff;"/>
   </g>
   <g id="matplotlib.axis_1">
    <g id="xtick_1">
     <g id="line2d_1">
      <defs>
       <path d="M 0 0 
L 0 3.5 
" id="m48289e6fec" style="stroke:#000000;stroke-width:0.8;"/>
      </defs>
      <g>
       <use style="stroke:#000000;stroke-width:0.8;" x="53.1625" xlink:href="#m48289e6fec" y="476.745"/>
      </g>
     </g>
     <g id="text_1">
      <!-- 01 Mar -->
      <g transform="translate(37.125781 491.018438)scale(0.1 -0.1)">
       <defs>
        <path d="M 2000 -64 
Q 1230 -64 806 561 
Q 382 1186 382 2327 
Q 382 3459 809 4088 
Q 1236 4718 2000 4718 
Q 2764 4718 3191 4088 
Q 3618 3459 3618 2327 
Q 3618 1186 3194 561 
Q 2771 -64 2000 -64 
z
M 2000 436 
Q 2509 436 2791 927 
Q 3073 1418 3073 2327 
Q 3073 3234 2789 3730 
Q 2505 4227 2000 4227 
Q 1496 4227 1211 3730 
Q 927 3234 927 2327 
Q 927 1418 1210 927 
Q 1493 436 2000 436 
z
" id="Inter-Regular-30" transform="scale(0.015625)"/>
        <path d="M 1973 4655 
L 1973 0 
L 1409 0 
L 1409 3836 
L 1373 3836 
Q 1341 3773 1209 3692 
Q 1077 3611 868 3551 
Q 659 3491 391 3491 
L 391 3964 
Q 661 3964 859 4061 
Q 1057 4159 1190 4291 
Q 1323 4423 1392 4529 
Q 1461 4636 1473 4655 
L 1973 4655 
z
" id="Inter-Regular-31" transform="scale(0.015625)"/>
        <path id="Inter-Regular-20" transform="scale(0.015625)"/>
        <path d="M 564 4655 
L 1236 4655 
L 2818 791 
L 2873 791 
L 4455 4655 
L 5127 4655 
L 5127 0 
L 4600 0 
L 4600 3536 
L 4555 3536 
L 3100 0 
L 2591 0 
L 1136 3536 
L 1091 3536 
L 1091 0 
L 564 0 
L 564 4655 
z
" id="Inter-Regular-4d" transform="scale(0.015625)"/>
        <path d="M 1518 -82 
Q 1186 -82 916 44 
Q 646 170 486 410 
Q 327 650 327 991 
Q 327 1291 445 1478 
Q 564 1666 761 1773 
Q 959 1880 1199 1933 
Q 1439 1986 1682 2018 
Q 2000 2059 2199 2080 
Q 2398 2102 2490 2154 
Q 2582 2207 2582 2336 
L 2582 2355 
Q 2582 2691 2399 2877 
Q 2216 3064 1846 3064 
Q 1461 3064 1243 2895 
Q 1025 2727 936 2536 
L 427 2718 
Q 564 3036 792 3214 
Q 1021 3393 1292 3464 
Q 1564 3536 1827 3536 
Q 1996 3536 2215 3496 
Q 2434 3457 2640 3334 
Q 2846 3211 2982 2963 
Q 3118 2716 3118 2300 
L 3118 0 
L 2582 0 
L 2582 473 
L 2555 473 
Q 2500 359 2373 229 
Q 2246 100 2034 9 
Q 1823 -82 1518 -82 
z
M 1600 400 
Q 1918 400 2137 525 
Q 2357 650 2469 847 
Q 2582 1045 2582 1264 
L 2582 1755 
Q 2548 1714 2433 1681 
Q 2318 1648 2169 1624 
Q 2021 1600 1881 1583 
Q 1741 1566 1655 1555 
Q 1446 1527 1265 1467 
Q 1084 1407 974 1287 
Q 864 1168 864 964 
Q 864 684 1072 542 
Q 1280 400 1600 400 
z
" id="Inter-Regular-61" transform="scale(0.015625)"/>
        <path d="M 491 0 
L 491 3491 
L 1009 3491 
L 1009 2964 
L 1046 2964 
Q 1139 3223 1389 3384 
Q 1639 3545 1955 3545 
Q 2100 3545 2209 3511 
Q 2318 3477 2400 3418 
L 2218 2964 
Q 2161 2993 2085 3010 
Q 2009 3027 1909 3027 
Q 1527 3027 1277 2794 
Q 1027 2561 1027 2209 
L 1027 0 
L 491 0 
z
" id="Inter-Regular-72" transform="scale(0.015625)"/>
       </defs>
       <use xlink:href="#Inter-Regular-30"/>
       <use x="62.500015" xlink:href="#Inter-Regular-31"/>
       <use x="106.676163" xlink:href="#Inter-Regular-20"/>
       <use x="134.801163" xlink:href="#Inter-Regular-4d"/>
       <use x="225.99437" xlink:href="#Inter-Regular-61"/>
       <use x="282.386429" xlink:href="#Inter-Regular-72"/>
      </g>
     </g>
    </g>
    <g id="xtick_2">
     <g id="line2d_2">
      <g>
       <use style="stroke:#000000;stroke-width:0.8;" x="93.889422" xlink:href="#m48289e6fec" y="476.745"/>
      </g>
     </g>
    </g>
    <g id="xtick_3">
     <g id="line2d_3">
      <g>
       <use style="stroke:#000000;stroke-width:0.8;" x="133.302572" xlink:href="#m48289e6fec" y="476.745"/>
      </g>
     </g>
     <g id="text_2">
      <!-- 01 May -->
      <g transform="translate(116.399447 491.116875)scale(0.1 -0.1)">
       <defs>
        <path d="M 818 -1355 
Q 682 -1355 575 -1333 
Q 468 -1311 427 -1291 
L 564 -818 
Q 857 -893 1053 -814 
Q 1250 -736 1391 -345 
L 1509 -18 
L 218 3491 
L 800 3491 
L 1764 709 
L 1800 709 
L 2764 3491 
L 3346 3491 
L 1846 -564 
Q 1550 -1355 818 -1355 
z
" id="Inter-Regular-79" transform="scale(0.015625)"/>
       </defs>
       <use xlink:href="#Inter-Regular-30"/>
       <use x="62.500015" xlink:href="#Inter-Regular-31"/>
       <use x="106.676163" xlink:href="#Inter-Regular-20"/>
       <use x="134.801163" xlink:href="#Inter-Regular-4d"/>
       <use x="225.99437" xlink:href="#Inter-Regular-61"/>
       <use x="282.386429" xlink:href="#Inter-Regular-79"/>
      </g>
     </g>
    </g>
    <g id="xtick_4">
     <g id="line2d_4">
      <g>
       <use style="stroke:#000000;stroke-width:0.8;" x="174.029494" xlink:href="#m48289e6fec" y="476.745"/>
      </g>
     </g>
    </g>
    <g id="xtick_5">
     <g id="line2d_5">
      <g>
       <use style="stroke:#000000;stroke-width:0.8;" x="213.442644" xlink:href="#m48289e6fec" y="476.745"/>
      </g>
     </g>
     <g id="text_3">
      <!-- 01 Jul -->
      <g transform="translate(199.898894 491.018438)scale(0.1 -0.1)">
       <defs>
        <path d="M 2346 4655 
L 2909 4655 
L 2909 1327 
Q 2909 657 2549 296 
Q 2189 -64 1582 -64 
Q 1200 -64 902 76 
Q 605 216 434 475 
Q 264 734 264 1091 
L 818 1091 
Q 818 795 1034 615 
Q 1250 436 1582 436 
Q 1948 436 2147 664 
Q 2346 893 2346 1327 
L 2346 4655 
z
" id="Inter-Regular-4a" transform="scale(0.015625)"/>
        <path d="M 2691 1427 
L 2691 3491 
L 3227 3491 
L 3227 0 
L 2691 0 
L 2691 591 
L 2655 591 
Q 2532 325 2273 140 
Q 2014 -45 1618 -45 
Q 1127 -45 809 280 
Q 491 605 491 1273 
L 491 3491 
L 1027 3491 
L 1027 1309 
Q 1027 927 1242 700 
Q 1457 473 1791 473 
Q 1991 473 2199 575 
Q 2407 677 2549 888 
Q 2691 1100 2691 1427 
z
" id="Inter-Regular-75" transform="scale(0.015625)"/>
        <path d="M 1027 4655 
L 1027 0 
L 491 0 
L 491 4655 
L 1027 4655 
z
" id="Inter-Regular-6c" transform="scale(0.015625)"/>
       </defs>
       <use xlink:href="#Inter-Regular-30"/>
       <use x="62.500015" xlink:href="#Inter-Regular-31"/>
       <use x="106.676163" xlink:href="#Inter-Regular-20"/>
       <use x="134.801163" xlink:href="#Inter-Regular-4a"/>
       <use x="189.062531" xlink:href="#Inter-Regular-75"/>
       <use x="247.159134" xlink:href="#Inter-Regular-6c"/>
      </g>
     </g>
    </g>
    <g id="xtick_6">
     <g id="line2d_6">
      <g>
       <use style="stroke:#000000;stroke-width:0.8;" x="254.169566" xlink:href="#m48289e6fec" y="476.745"/>
      </g>
     </g>
    </g>
    <g id="xtick_7">
     <g id="line2d_7">
      <g>
       <use style="stroke:#000000;stroke-width:0.8;" x="294.896488" xlink:href="#m48289e6fec" y="476.745"/>
      </g>
     </g>
     <g id="text_4">
      <!-- 01 Sep -->
      <g transform="translate(279.008988 491.116875)scale(0.1 -0.1)">
       <defs>
        <path d="M 3109 3491 
Q 3068 3836 2777 4027 
Q 2486 4218 2064 4218 
Q 1600 4218 1318 3999 
Q 1036 3780 1036 3445 
Q 1036 3195 1189 3042 
Q 1343 2889 1553 2803 
Q 1764 2718 1936 2673 
L 2409 2545 
Q 2591 2498 2815 2414 
Q 3039 2330 3244 2185 
Q 3450 2041 3584 1816 
Q 3718 1591 3718 1264 
Q 3718 886 3521 581 
Q 3325 277 2949 97 
Q 2573 -82 2036 -82 
Q 1286 -82 845 272 
Q 405 627 364 1200 
L 946 1200 
Q 968 936 1124 764 
Q 1280 593 1519 510 
Q 1759 427 2036 427 
Q 2359 427 2616 533 
Q 2873 639 3023 828 
Q 3173 1018 3173 1273 
Q 3173 1505 3043 1650 
Q 2914 1795 2702 1886 
Q 2491 1977 2246 2045 
L 1673 2209 
Q 1127 2366 809 2657 
Q 491 2948 491 3418 
Q 491 3809 703 4101 
Q 916 4393 1276 4555 
Q 1636 4718 2082 4718 
Q 2532 4718 2882 4558 
Q 3232 4398 3437 4120 
Q 3643 3843 3655 3491 
L 3109 3491 
z
" id="Inter-Regular-53" transform="scale(0.015625)"/>
        <path d="M 1955 -73 
Q 1450 -73 1085 151 
Q 721 375 524 778 
Q 327 1182 327 1718 
Q 327 2255 524 2665 
Q 721 3075 1074 3305 
Q 1427 3536 1900 3536 
Q 2173 3536 2439 3445 
Q 2705 3355 2923 3151 
Q 3141 2948 3270 2614 
Q 3400 2280 3400 1791 
L 3400 1564 
L 866 1564 
Q 884 1005 1183 707 
Q 1482 409 1955 409 
Q 2271 409 2498 545 
Q 2725 682 2827 955 
L 3346 809 
Q 3223 414 2854 170 
Q 2486 -73 1955 -73 
z
M 866 2027 
L 2855 2027 
Q 2855 2470 2595 2762 
Q 2336 3055 1900 3055 
Q 1593 3055 1368 2911 
Q 1143 2768 1013 2533 
Q 884 2298 866 2027 
z
" id="Inter-Regular-65" transform="scale(0.015625)"/>
        <path d="M 491 -1309 
L 491 3491 
L 1009 3491 
L 1009 2936 
L 1073 2936 
Q 1132 3027 1237 3169 
Q 1343 3311 1542 3423 
Q 1741 3536 2082 3536 
Q 2523 3536 2859 3315 
Q 3196 3095 3384 2690 
Q 3573 2286 3573 1736 
Q 3573 1182 3384 776 
Q 3196 370 2861 148 
Q 2527 -73 2091 -73 
Q 1755 -73 1552 39 
Q 1350 152 1241 296 
Q 1132 441 1073 536 
L 1027 536 
L 1027 -1309 
L 491 -1309 
z
M 1018 1745 
Q 1018 1152 1276 780 
Q 1534 409 2018 409 
Q 2355 409 2581 587 
Q 2807 766 2921 1069 
Q 3036 1373 3036 1745 
Q 3036 2114 2923 2410 
Q 2811 2707 2585 2881 
Q 2359 3055 2018 3055 
Q 1527 3055 1272 2693 
Q 1018 2332 1018 1745 
z
" id="Inter-Regular-70" transform="scale(0.015625)"/>
       </defs>
       <use xlink:href="#Inter-Regular-30"/>
       <use x="62.500015" xlink:href="#Inter-Regular-31"/>
       <use x="106.676163" xlink:href="#Inter-Regular-20"/>
       <use x="134.801163" xlink:href="#Inter-Regular-53"/>
       <use x="198.57959" xlink:href="#Inter-Regular-65"/>
       <use x="256.818237" xlink:href="#Inter-Regular-70"/>
      </g>
     </g>
    </g>
    <g id="xtick_8">
     <g id="line2d_8">
      <g>
       <use style="stroke:#000000;stroke-width:0.8;" x="334.309639" xlink:href="#m48289e6fec" y="476.745"/>
      </g>
     </g>
    </g>
    <g id="xtick_9">
     <g id="line2d_9">
      <g>
       <use style="stroke:#000000;stroke-width:0.8;" x="375.036561" xlink:href="#m48289e6fec" y="476.745"/>
      </g>
     </g>
     <g id="text_5">
      <!-- 01 Nov -->
      <g transform="translate(358.765467 491.018438)scale(0.1 -0.1)">
       <defs>
        <path d="M 4255 4655 
L 4255 0 
L 3709 0 
L 1173 3655 
L 1127 3655 
L 1127 0 
L 564 0 
L 564 4655 
L 1109 4655 
L 3655 991 
L 3700 991 
L 3700 4655 
L 4255 4655 
z
" id="Inter-Regular-4e" transform="scale(0.015625)"/>
        <path d="M 1909 -73 
Q 1436 -73 1080 152 
Q 725 377 526 781 
Q 327 1186 327 1727 
Q 327 2273 526 2679 
Q 725 3086 1080 3311 
Q 1436 3536 1909 3536 
Q 2382 3536 2737 3311 
Q 3093 3086 3292 2679 
Q 3491 2273 3491 1727 
Q 3491 1186 3292 781 
Q 3093 377 2737 152 
Q 2382 -73 1909 -73 
z
M 1909 409 
Q 2268 409 2500 593 
Q 2732 777 2843 1077 
Q 2955 1377 2955 1727 
Q 2955 2077 2843 2379 
Q 2732 2682 2500 2868 
Q 2268 3055 1909 3055 
Q 1550 3055 1318 2868 
Q 1086 2682 975 2379 
Q 864 2077 864 1727 
Q 864 1377 975 1077 
Q 1086 777 1318 593 
Q 1550 409 1909 409 
z
" id="Inter-Regular-6f" transform="scale(0.015625)"/>
        <path d="M 3346 3491 
L 2055 0 
L 1509 0 
L 218 3491 
L 800 3491 
L 1764 709 
L 1800 709 
L 2764 3491 
L 3346 3491 
z
" id="Inter-Regular-76" transform="scale(0.015625)"/>
       </defs>
       <use xlink:href="#Inter-Regular-30"/>
       <use x="62.500015" xlink:href="#Inter-Regular-31"/>
       <use x="106.676163" xlink:href="#Inter-Regular-20"/>
       <use x="134.801163" xlink:href="#Inter-Regular-4e"/>
       <use x="210.085266" xlink:href="#Inter-Regular-6f"/>
       <use x="269.74437" xlink:href="#Inter-Regular-76"/>
      </g>
     </g>
    </g>
    <g id="xtick_10">
     <g id="line2d_10">
      <g>
       <use style="stroke:#000000;stroke-width:0.8;" x="414.449711" xlink:href="#m48289e6fec" y="476.745"/>
      </g>
     </g>
    </g>
    <g id="xtick_11">
     <g id="line2d_11">
      <g>
       <use style="stroke:#000000;stroke-width:0.8;" x="455.176633" xlink:href="#m48289e6fec" y="476.745"/>
      </g>
     </g>
     <g id="text_6">
      <!-- 01 Jan -->
      <g transform="translate(439.977414 491.018438)scale(0.1 -0.1)">
       <defs>
        <path d="M 1027 2100 
L 1027 0 
L 491 0 
L 491 3491 
L 1009 3491 
L 1009 2945 
L 1055 2945 
Q 1177 3211 1427 3373 
Q 1677 3536 2073 3536 
Q 2602 3536 2928 3211 
Q 3255 2886 3255 2218 
L 3255 0 
L 2718 0 
L 2718 2182 
Q 2718 2593 2504 2824 
Q 2291 3055 1918 3055 
Q 1534 3055 1280 2806 
Q 1027 2557 1027 2100 
z
" id="Inter-Regular-6e" transform="scale(0.015625)"/>
       </defs>
       <use xlink:href="#Inter-Regular-30"/>
       <use x="62.500015" xlink:href="#Inter-Regular-31"/>
       <use x="106.676163" xlink:href="#Inter-Regular-20"/>
       <use x="134.801163" xlink:href="#Inter-Regular-4a"/>
       <use x="189.062531" xlink:href="#Inter-Regular-61"/>
       <use x="245.45459" xlink:href="#Inter-Regular-6e"/>
      </g>
     </g>
    </g>
    <g id="xtick_12">
     <g id="line2d_12">
      <g>
       <use style="stroke:#000000;stroke-width:0.8;" x="495.903555" xlink:href="#m48289e6fec" y="476.745"/>
      </g>
     </g>
    </g>
    <g id="xtick_13">
     <g id="line2d_13">
      <g>
       <use style="stroke:#000000;stroke-width:0.8;" x="532.689162" xlink:href="#m48289e6fec" y="476.745"/>
      </g>
     </g>
     <g id="text_7">
      <!-- 01 Mar -->
      <g transform="translate(516.652443 491.018438)scale(0.1 -0.1)">
       <use xlink:href="#Inter-Regular-30"/>
       <use x="62.500015" xlink:href="#Inter-Regular-31"/>
       <use x="106.676163" xlink:href="#Inter-Regular-20"/>
       <use x="134.801163" xlink:href="#Inter-Regular-4d"/>
       <use x="225.99437" xlink:href="#Inter-Regular-61"/>
       <use x="282.386429" xlink:href="#Inter-Regular-72"/>
      </g>
     </g>
    </g>
    <g id="xtick_14">
     <g id="line2d_14">
      <g>
       <use style="stroke:#000000;stroke-width:0.8;" x="573.416084" xlink:href="#m48289e6fec" y="476.745"/>
      </g>
     </g>
    </g>
    <g id="xtick_15">
     <g id="line2d_15">
      <g>
       <use style="stroke:#000000;stroke-width:0.8;" x="612.829234" xlink:href="#m48289e6fec" y="476.745"/>
      </g>
     </g>
     <g id="text_8">
      <!-- 01 May -->
      <g transform="translate(595.926109 491.116875)scale(0.1 -0.1)">
       <use xlink:href="#Inter-Regular-30"/>
       <use x="62.500015" xlink:href="#Inter-Regular-31"/>
       <use x="106.676163" xlink:href="#Inter-Regular-20"/>
       <use x="134.801163" xlink:href="#Inter-Regular-4d"/>
       <use x="225.99437" xlink:href="#Inter-Regular-61"/>
       <use x="282.386429" xlink:href="#Inter-Regular-79"/>
      </g>
     </g>
    </g>
    <g id="xtick_16">
     <g id="line2d_16">
      <g>
       <use style="stroke:#000000;stroke-width:0.8;" x="653.556156" xlink:href="#m48289e6fec" y="476.745"/>
      </g>
     </g>
    </g>
    <g id="xtick_17">
     <g id="line2d_17">
      <g>
       <use style="stroke:#000000;stroke-width:0.8;" x="692.969306" xlink:href="#m48289e6fec" y="476.745"/>
      </g>
     </g>
     <g id="text_9">
      <!-- 01 Jul -->
      <g transform="translate(679.425556 491.018438)scale(0.1 -0.1)">
       <use xlink:href="#Inter-Regular-30"/>
       <use x="62.500015" xlink:href="#Inter-Regular-31"/>
       <use x="106.676163" xlink:href="#Inter-Regular-20"/>
       <use x="134.801163" xlink:href="#Inter-Regular-4a"/>
       <use x="189.062531" xlink:href="#Inter-Regular-75"/>
       <use x="247.159134" xlink:href="#Inter-Regular-6c"/>
      </g>
     </g>
    </g>
    <g id="text_10">
     <!--  -->
     <g style="fill:#666666;" transform="translate(387.9625 504.5075)scale(0.1 -0.1)"/>
     <!-- Note: Mortality is calculated as deaths per day divided by the sum of cases in the prior 28 days -->
     <g style="fill:#666666;" transform="translate(162.717188 515.689687)scale(0.1 -0.1)">
      <defs>
       <path d="M 2009 3491 
L 2009 3036 
L 1264 3036 
L 1264 1000 
Q 1264 773 1331 660 
Q 1398 548 1503 510 
Q 1609 473 1727 473 
Q 1816 473 1873 483 
Q 1930 493 1964 500 
L 2073 18 
Q 2018 -2 1920 -23 
Q 1823 -45 1673 -45 
Q 1446 -45 1228 52 
Q 1011 150 869 350 
Q 727 550 727 855 
L 727 3036 
L 200 3036 
L 200 3491 
L 727 3491 
L 727 4327 
L 1264 4327 
L 1264 3491 
L 2009 3491 
z
" id="Inter-Regular-74" transform="scale(0.015625)"/>
       <path d="M 882 -36 
Q 714 -36 593 84 
Q 473 205 473 373 
Q 473 541 593 661 
Q 714 782 882 782 
Q 1050 782 1170 661 
Q 1291 541 1291 373 
Q 1291 205 1170 84 
Q 1050 -36 882 -36 
z
M 882 2524 
Q 714 2524 593 2644 
Q 473 2765 473 2933 
Q 473 3101 593 3221 
Q 714 3342 882 3342 
Q 1050 3342 1170 3221 
Q 1291 3101 1291 2933 
Q 1291 2765 1170 2644 
Q 1050 2524 882 2524 
z
" id="Inter-Regular-3a" transform="scale(0.015625)"/>
       <path d="M 491 0 
L 491 3491 
L 1027 3491 
L 1027 0 
L 491 0 
z
M 764 4073 
Q 607 4073 494 4179 
Q 382 4286 382 4436 
Q 382 4586 494 4693 
Q 607 4800 764 4800 
Q 921 4800 1033 4693 
Q 1146 4586 1146 4436 
Q 1146 4286 1033 4179 
Q 921 4073 764 4073 
z
" id="Inter-Regular-69" transform="scale(0.015625)"/>
       <path d="M 2964 2709 
L 2482 2573 
Q 2411 2755 2245 2914 
Q 2080 3073 1727 3073 
Q 1407 3073 1194 2926 
Q 982 2780 982 2555 
Q 982 2355 1127 2239 
Q 1273 2123 1582 2045 
L 2100 1918 
Q 3027 1691 3027 973 
Q 3027 673 2855 436 
Q 2684 200 2377 63 
Q 2071 -73 1664 -73 
Q 1130 -73 780 159 
Q 430 391 336 836 
L 846 964 
Q 989 400 1655 400 
Q 2030 400 2251 560 
Q 2473 720 2473 945 
Q 2473 1316 1955 1436 
L 1373 1573 
Q 893 1686 669 1926 
Q 446 2166 446 2527 
Q 446 2823 613 3050 
Q 780 3277 1069 3406 
Q 1359 3536 1727 3536 
Q 2246 3536 2542 3309 
Q 2839 3082 2964 2709 
z
" id="Inter-Regular-73" transform="scale(0.015625)"/>
       <path d="M 1909 -73 
Q 1418 -73 1063 159 
Q 709 391 518 798 
Q 327 1205 327 1727 
Q 327 2259 524 2667 
Q 721 3075 1074 3305 
Q 1427 3536 1900 3536 
Q 2268 3536 2563 3400 
Q 2859 3264 3047 3018 
Q 3236 2773 3282 2445 
L 2746 2445 
Q 2684 2684 2474 2869 
Q 2264 3055 1909 3055 
Q 1439 3055 1151 2697 
Q 864 2339 864 1745 
Q 864 1139 1148 774 
Q 1432 409 1909 409 
Q 2223 409 2447 570 
Q 2671 732 2746 1018 
L 3282 1018 
Q 3236 709 3058 462 
Q 2880 216 2588 71 
Q 2296 -73 1909 -73 
z
" id="Inter-Regular-63" transform="scale(0.015625)"/>
       <path d="M 1809 -73 
Q 1373 -73 1039 148 
Q 705 370 516 776 
Q 327 1182 327 1736 
Q 327 2286 516 2690 
Q 705 3095 1041 3315 
Q 1377 3536 1818 3536 
Q 2159 3536 2358 3423 
Q 2557 3311 2662 3169 
Q 2768 3027 2827 2936 
L 2873 2936 
L 2873 4655 
L 3409 4655 
L 3409 0 
L 2891 0 
L 2891 536 
L 2827 536 
Q 2768 441 2659 296 
Q 2550 152 2348 39 
Q 2146 -73 1809 -73 
z
M 1882 409 
Q 2366 409 2624 780 
Q 2882 1152 2882 1745 
Q 2882 2332 2627 2693 
Q 2373 3055 1882 3055 
Q 1541 3055 1315 2881 
Q 1089 2707 976 2410 
Q 864 2114 864 1745 
Q 864 1373 978 1069 
Q 1093 766 1319 587 
Q 1546 409 1882 409 
z
" id="Inter-Regular-64" transform="scale(0.015625)"/>
       <path d="M 1027 2100 
L 1027 0 
L 491 0 
L 491 4655 
L 1027 4655 
L 1027 2945 
L 1073 2945 
Q 1196 3216 1442 3376 
Q 1689 3536 2100 3536 
Q 2636 3536 2963 3213 
Q 3291 2891 3291 2218 
L 3291 0 
L 2755 0 
L 2755 2182 
Q 2755 2598 2540 2826 
Q 2325 3055 1946 3055 
Q 1548 3055 1287 2806 
Q 1027 2557 1027 2100 
z
" id="Inter-Regular-68" transform="scale(0.015625)"/>
       <path d="M 564 0 
L 564 4655 
L 1100 4655 
L 1100 2936 
L 1146 2936 
Q 1205 3027 1310 3169 
Q 1416 3311 1615 3423 
Q 1814 3536 2155 3536 
Q 2596 3536 2932 3315 
Q 3268 3095 3457 2690 
Q 3646 2286 3646 1736 
Q 3646 1182 3457 776 
Q 3268 370 2934 148 
Q 2600 -73 2164 -73 
Q 1827 -73 1625 39 
Q 1423 152 1314 296 
Q 1205 441 1146 536 
L 1082 536 
L 1082 0 
L 564 0 
z
M 1091 1745 
Q 1091 1152 1349 780 
Q 1607 409 2091 409 
Q 2427 409 2653 587 
Q 2880 766 2994 1069 
Q 3109 1373 3109 1745 
Q 3109 2114 2996 2410 
Q 2884 2707 2658 2881 
Q 2432 3055 2091 3055 
Q 1600 3055 1345 2693 
Q 1091 2332 1091 1745 
z
" id="Inter-Regular-62" transform="scale(0.015625)"/>
       <path d="M 491 0 
L 491 3491 
L 1009 3491 
L 1009 2945 
L 1055 2945 
Q 1164 3225 1407 3380 
Q 1650 3536 1991 3536 
Q 2336 3536 2567 3380 
Q 2798 3225 2927 2945 
L 2964 2945 
Q 3098 3216 3366 3376 
Q 3634 3536 4009 3536 
Q 4477 3536 4775 3244 
Q 5073 2952 5073 2336 
L 5073 0 
L 4536 0 
L 4536 2336 
Q 4536 2723 4325 2889 
Q 4114 3055 3827 3055 
Q 3459 3055 3257 2833 
Q 3055 2611 3055 2273 
L 3055 0 
L 2509 0 
L 2509 2391 
Q 2509 2689 2316 2872 
Q 2123 3055 1818 3055 
Q 1609 3055 1428 2943 
Q 1248 2832 1137 2635 
Q 1027 2439 1027 2182 
L 1027 0 
L 491 0 
z
" id="Inter-Regular-6d" transform="scale(0.015625)"/>
       <path d="M 2046 3491 
L 2046 3036 
L 1264 3036 
L 1264 0 
L 727 0 
L 727 3036 
L 164 3036 
L 164 3491 
L 727 3491 
L 727 3973 
Q 727 4273 868 4473 
Q 1009 4673 1234 4773 
Q 1459 4873 1709 4873 
Q 1907 4873 2032 4841 
Q 2157 4809 2218 4782 
L 2064 4318 
Q 2023 4332 1951 4352 
Q 1880 4373 1764 4373 
Q 1498 4373 1381 4239 
Q 1264 4105 1264 3845 
L 1264 3491 
L 2046 3491 
z
" id="Inter-Regular-66" transform="scale(0.015625)"/>
       <path d="M 482 0 
L 482 409 
L 2018 2091 
Q 2289 2386 2464 2605 
Q 2639 2825 2724 3019 
Q 2809 3214 2809 3427 
Q 2809 3795 2553 4011 
Q 2298 4227 1918 4227 
Q 1514 4227 1275 3985 
Q 1036 3743 1036 3345 
L 500 3345 
Q 500 3755 688 4064 
Q 877 4373 1203 4545 
Q 1530 4718 1936 4718 
Q 2346 4718 2661 4545 
Q 2977 4373 3156 4079 
Q 3336 3786 3336 3427 
Q 3336 3170 3244 2926 
Q 3152 2682 2926 2383 
Q 2700 2084 2300 1655 
L 1255 536 
L 1255 500 
L 3418 500 
L 3418 0 
L 482 0 
z
" id="Inter-Regular-32" transform="scale(0.015625)"/>
       <path d="M 1973 -64 
Q 1505 -64 1147 103 
Q 789 270 589 564 
Q 389 859 391 1236 
Q 389 1532 507 1783 
Q 625 2034 830 2203 
Q 1036 2373 1291 2418 
L 1291 2445 
Q 957 2532 759 2821 
Q 561 3111 564 3482 
Q 561 3836 743 4115 
Q 925 4395 1244 4556 
Q 1564 4718 1973 4718 
Q 2377 4718 2695 4556 
Q 3014 4395 3197 4115 
Q 3380 3836 3382 3482 
Q 3380 3111 3181 2821 
Q 2982 2532 2655 2445 
L 2655 2418 
Q 2907 2373 3109 2203 
Q 3311 2034 3431 1783 
Q 3552 1532 3555 1236 
Q 3552 859 3351 564 
Q 3150 270 2794 103 
Q 2439 -64 1973 -64 
z
M 1973 436 
Q 2446 436 2722 662 
Q 2998 889 3000 1264 
Q 2998 1527 2864 1729 
Q 2730 1932 2499 2048 
Q 2268 2164 1973 2164 
Q 1675 2164 1442 2048 
Q 1209 1932 1076 1729 
Q 943 1527 946 1264 
Q 943 889 1218 662 
Q 1493 436 1973 436 
z
M 1973 2645 
Q 2348 2645 2591 2864 
Q 2834 3084 2836 3445 
Q 2834 3800 2596 4013 
Q 2359 4227 1973 4227 
Q 1582 4227 1344 4013 
Q 1107 3800 1109 3445 
Q 1107 3084 1349 2864 
Q 1591 2645 1973 2645 
z
" id="Inter-Regular-38" transform="scale(0.015625)"/>
      </defs>
      <use xlink:href="#Inter-Regular-4e"/>
      <use x="75.284103" xlink:href="#Inter-Regular-6f"/>
      <use x="134.943207" xlink:href="#Inter-Regular-74"/>
      <use x="171.306854" xlink:href="#Inter-Regular-65"/>
      <use x="229.545502" xlink:href="#Inter-Regular-3a"/>
      <use x="257.102325" xlink:href="#Inter-Regular-20"/>
      <use x="285.227325" xlink:href="#Inter-Regular-4d"/>
      <use x="376.420532" xlink:href="#Inter-Regular-6f"/>
      <use x="436.079636" xlink:href="#Inter-Regular-72"/>
      <use x="474.431915" xlink:href="#Inter-Regular-74"/>
      <use x="510.795563" xlink:href="#Inter-Regular-61"/>
      <use x="567.187622" xlink:href="#Inter-Regular-6c"/>
      <use x="590.90921" xlink:href="#Inter-Regular-69"/>
      <use x="614.630798" xlink:href="#Inter-Regular-74"/>
      <use x="650.994446" xlink:href="#Inter-Regular-79"/>
      <use x="706.67627" xlink:href="#Inter-Regular-20"/>
      <use x="734.80127" xlink:href="#Inter-Regular-69"/>
      <use x="758.522858" xlink:href="#Inter-Regular-73"/>
      <use x="810.795593" xlink:href="#Inter-Regular-20"/>
      <use x="838.920593" xlink:href="#Inter-Regular-63"/>
      <use x="894.744461" xlink:href="#Inter-Regular-61"/>
      <use x="951.13652" xlink:href="#Inter-Regular-6c"/>
      <use x="974.858109" xlink:href="#Inter-Regular-63"/>
      <use x="1030.681976" xlink:href="#Inter-Regular-75"/>
      <use x="1088.77858" xlink:href="#Inter-Regular-6c"/>
      <use x="1112.500168" xlink:href="#Inter-Regular-61"/>
      <use x="1168.892227" xlink:href="#Inter-Regular-74"/>
      <use x="1205.255875" xlink:href="#Inter-Regular-65"/>
      <use x="1263.494522" xlink:href="#Inter-Regular-64"/>
      <use x="1325.568405" xlink:href="#Inter-Regular-20"/>
      <use x="1353.693405" xlink:href="#Inter-Regular-61"/>
      <use x="1410.085464" xlink:href="#Inter-Regular-73"/>
      <use x="1462.3582" xlink:href="#Inter-Regular-20"/>
      <use x="1490.4832" xlink:href="#Inter-Regular-64"/>
      <use x="1552.557083" xlink:href="#Inter-Regular-65"/>
      <use x="1610.795731" xlink:href="#Inter-Regular-61"/>
      <use x="1667.18779" xlink:href="#Inter-Regular-74"/>
      <use x="1703.551437" xlink:href="#Inter-Regular-68"/>
      <use x="1762.642365" xlink:href="#Inter-Regular-73"/>
      <use x="1814.9151" xlink:href="#Inter-Regular-20"/>
      <use x="1843.0401" xlink:href="#Inter-Regular-70"/>
      <use x="1903.977615" xlink:href="#Inter-Regular-65"/>
      <use x="1962.216263" xlink:href="#Inter-Regular-72"/>
      <use x="2000.568542" xlink:href="#Inter-Regular-20"/>
      <use x="2028.693542" xlink:href="#Inter-Regular-64"/>
      <use x="2090.767426" xlink:href="#Inter-Regular-61"/>
      <use x="2147.159485" xlink:href="#Inter-Regular-79"/>
      <use x="2202.841309" xlink:href="#Inter-Regular-20"/>
      <use x="2230.966309" xlink:href="#Inter-Regular-64"/>
      <use x="2293.040192" xlink:href="#Inter-Regular-69"/>
      <use x="2316.76178" xlink:href="#Inter-Regular-76"/>
      <use x="2372.443604" xlink:href="#Inter-Regular-69"/>
      <use x="2396.165192" xlink:href="#Inter-Regular-64"/>
      <use x="2458.239075" xlink:href="#Inter-Regular-65"/>
      <use x="2516.477722" xlink:href="#Inter-Regular-64"/>
      <use x="2578.551605" xlink:href="#Inter-Regular-20"/>
      <use x="2606.676605" xlink:href="#Inter-Regular-62"/>
      <use x="2668.750488" xlink:href="#Inter-Regular-79"/>
      <use x="2724.432312" xlink:href="#Inter-Regular-20"/>
      <use x="2752.557312" xlink:href="#Inter-Regular-74"/>
      <use x="2788.920959" xlink:href="#Inter-Regular-68"/>
      <use x="2848.011887" xlink:href="#Inter-Regular-65"/>
      <use x="2906.250534" xlink:href="#Inter-Regular-20"/>
      <use x="2934.375534" xlink:href="#Inter-Regular-73"/>
      <use x="2986.64827" xlink:href="#Inter-Regular-75"/>
      <use x="3044.744873" xlink:href="#Inter-Regular-6d"/>
      <use x="3131.676712" xlink:href="#Inter-Regular-20"/>
      <use x="3159.801712" xlink:href="#Inter-Regular-6f"/>
      <use x="3219.460815" xlink:href="#Inter-Regular-66"/>
      <use x="3255.540359" xlink:href="#Inter-Regular-20"/>
      <use x="3283.665359" xlink:href="#Inter-Regular-63"/>
      <use x="3339.489227" xlink:href="#Inter-Regular-61"/>
      <use x="3395.881287" xlink:href="#Inter-Regular-73"/>
      <use x="3448.154022" xlink:href="#Inter-Regular-65"/>
      <use x="3506.39267" xlink:href="#Inter-Regular-73"/>
      <use x="3558.665405" xlink:href="#Inter-Regular-20"/>
      <use x="3586.790405" xlink:href="#Inter-Regular-69"/>
      <use x="3610.511993" xlink:href="#Inter-Regular-6e"/>
      <use x="3669.034729" xlink:href="#Inter-Regular-20"/>
      <use x="3697.159729" xlink:href="#Inter-Regular-74"/>
      <use x="3733.523376" xlink:href="#Inter-Regular-68"/>
      <use x="3792.614304" xlink:href="#Inter-Regular-65"/>
      <use x="3850.852951" xlink:href="#Inter-Regular-20"/>
      <use x="3878.977951" xlink:href="#Inter-Regular-70"/>
      <use x="3939.915466" xlink:href="#Inter-Regular-72"/>
      <use x="3978.267746" xlink:href="#Inter-Regular-69"/>
      <use x="4001.989334" xlink:href="#Inter-Regular-6f"/>
      <use x="4061.648438" xlink:href="#Inter-Regular-72"/>
      <use x="4100.000717" xlink:href="#Inter-Regular-20"/>
      <use x="4128.125717" xlink:href="#Inter-Regular-32"/>
      <use x="4188.6371" xlink:href="#Inter-Regular-38"/>
      <use x="4250.284836" xlink:href="#Inter-Regular-20"/>
      <use x="4278.409836" xlink:href="#Inter-Regular-64"/>
      <use x="4340.483719" xlink:href="#Inter-Regular-61"/>
      <use x="4396.875778" xlink:href="#Inter-Regular-79"/>
      <use x="4452.557602" xlink:href="#Inter-Regular-73"/>
     </g>
    </g>
   </g>
   <g id="matplotlib.axis_2">
    <g id="ytick_1">
     <g id="line2d_18">
      <defs>
       <path d="M 0 0 
L -3.5 0 
" id="me3a4fb1284" style="stroke:#000000;stroke-width:0.8;"/>
      </defs>
      <g>
       <use style="stroke:#000000;stroke-width:0.8;" x="53.1625" xlink:href="#me3a4fb1284" y="476.745"/>
      </g>
     </g>
     <g id="text_11">
      <!-- 0% -->
      <g transform="translate(31.7875 480.381719)scale(0.1 -0.1)">
       <defs>
        <path d="M 2855 873 
L 2855 1118 
Q 2855 1373 2960 1585 
Q 3066 1798 3269 1926 
Q 3473 2055 3764 2055 
Q 4059 2055 4259 1926 
Q 4459 1798 4561 1585 
Q 4664 1373 4664 1118 
L 4664 873 
Q 4664 618 4560 405 
Q 4457 193 4256 64 
Q 4055 -64 3764 -64 
Q 3468 -64 3266 64 
Q 3064 193 2959 405 
Q 2855 618 2855 873 
z
M 536 3536 
L 536 3782 
Q 536 4036 642 4248 
Q 748 4461 951 4589 
Q 1155 4718 1446 4718 
Q 1741 4718 1941 4589 
Q 2141 4461 2243 4248 
Q 2346 4036 2346 3782 
L 2346 3536 
Q 2346 3282 2242 3069 
Q 2139 2857 1937 2728 
Q 1736 2600 1446 2600 
Q 1150 2600 948 2728 
Q 746 2857 641 3069 
Q 536 3282 536 3536 
z
M 709 0 
L 3909 4655 
L 4427 4655 
L 1227 0 
L 709 0 
z
M 3318 1118 
L 3318 873 
Q 3318 661 3418 494 
Q 3518 327 3764 327 
Q 4002 327 4101 494 
Q 4200 661 4200 873 
L 4200 1118 
Q 4200 1330 4104 1497 
Q 4009 1664 3764 1664 
Q 3525 1664 3421 1497 
Q 3318 1330 3318 1118 
z
M 1000 3782 
L 1000 3536 
Q 1000 3325 1100 3158 
Q 1200 2991 1446 2991 
Q 1684 2991 1783 3158 
Q 1882 3325 1882 3536 
L 1882 3782 
Q 1882 3993 1786 4160 
Q 1691 4327 1446 4327 
Q 1207 4327 1103 4160 
Q 1000 3993 1000 3782 
z
" id="Inter-Regular-25" transform="scale(0.015625)"/>
       </defs>
       <use xlink:href="#Inter-Regular-30"/>
       <use x="62.500015" xlink:href="#Inter-Regular-25"/>
      </g>
     </g>
    </g>
    <g id="ytick_2">
     <g id="line2d_19">
      <g>
       <use style="stroke:#000000;stroke-width:0.8;" x="53.1625" xlink:href="#me3a4fb1284" y="379.593"/>
      </g>
     </g>
     <g id="text_12">
      <!-- 1% -->
      <g transform="translate(33.620313 383.229719)scale(0.1 -0.1)">
       <use xlink:href="#Inter-Regular-31"/>
       <use x="44.176147" xlink:href="#Inter-Regular-25"/>
      </g>
     </g>
    </g>
    <g id="ytick_3">
     <g id="line2d_20">
      <g>
       <use style="stroke:#000000;stroke-width:0.8;" x="53.1625" xlink:href="#me3a4fb1284" y="282.441"/>
      </g>
     </g>
     <g id="text_13">
      <!-- 2% -->
      <g transform="translate(31.985938 286.077719)scale(0.1 -0.1)">
       <use xlink:href="#Inter-Regular-32"/>
       <use x="60.511383" xlink:href="#Inter-Regular-25"/>
      </g>
     </g>
    </g>
    <g id="ytick_4">
     <g id="line2d_21">
      <g>
       <use style="stroke:#000000;stroke-width:0.8;" x="53.1625" xlink:href="#me3a4fb1284" y="185.289"/>
      </g>
     </g>
     <g id="text_14">
      <!-- 3% -->
      <g transform="translate(31.673438 188.925719)scale(0.1 -0.1)">
       <defs>
        <path d="M 2055 -64 
Q 1605 -64 1253 90 
Q 902 245 696 521 
Q 491 798 473 1164 
L 1046 1164 
Q 1071 827 1356 631 
Q 1641 436 2046 436 
Q 2493 436 2783 664 
Q 3073 893 3073 1264 
Q 3073 1650 2787 1893 
Q 2502 2136 1973 2136 
L 1600 2136 
L 1600 2636 
L 1973 2636 
Q 2386 2636 2647 2856 
Q 2909 3077 2909 3445 
Q 2909 3798 2679 4012 
Q 2450 4227 2064 4227 
Q 1823 4227 1610 4139 
Q 1398 4052 1264 3887 
Q 1130 3723 1118 3491 
L 573 3491 
Q 586 3857 793 4133 
Q 1000 4409 1335 4563 
Q 1671 4718 2073 4718 
Q 2505 4718 2814 4544 
Q 3123 4370 3289 4086 
Q 3455 3802 3455 3473 
Q 3455 3080 3249 2802 
Q 3043 2525 2691 2418 
L 2691 2382 
Q 3132 2309 3379 2008 
Q 3627 1707 3627 1264 
Q 3627 884 3421 583 
Q 3216 282 2861 109 
Q 2507 -64 2055 -64 
z
" id="Inter-Regular-33" transform="scale(0.015625)"/>
       </defs>
       <use xlink:href="#Inter-Regular-33"/>
       <use x="63.636383" xlink:href="#Inter-Regular-25"/>
      </g>
     </g>
    </g>
    <g id="ytick_5">
     <g id="line2d_22">
      <g>
       <use style="stroke:#000000;stroke-width:0.8;" x="53.1625" xlink:href="#me3a4fb1284" y="88.137"/>
      </g>
     </g>
     <g id="text_15">
      <!-- 4% -->
      <g transform="translate(31.617188 91.773719)scale(0.1 -0.1)">
       <defs>
        <path d="M 373 955 
L 373 1418 
L 2418 4655 
L 3100 4655 
L 3100 1455 
L 3736 1455 
L 3736 955 
L 3100 955 
L 3100 0 
L 2564 0 
L 2564 955 
L 373 955 
z
M 2564 1455 
L 2564 3936 
L 2527 3936 
L 982 1491 
L 982 1455 
L 2564 1455 
z
" id="Inter-Regular-34" transform="scale(0.015625)"/>
       </defs>
       <use xlink:href="#Inter-Regular-34"/>
       <use x="64.204559" xlink:href="#Inter-Regular-25"/>
      </g>
     </g>
    </g>
    <g id="text_16">
     <!-- Percent mortality per day -->
     <g transform="translate(25.5 315.099844)rotate(-90)scale(0.1 -0.1)">
      <defs>
       <path d="M 564 0 
L 564 4655 
L 2136 4655 
Q 2684 4655 3033 4458 
Q 3382 4261 3550 3927 
Q 3718 3593 3718 3182 
Q 3718 2770 3551 2434 
Q 3384 2098 3036 1899 
Q 2689 1700 2146 1700 
L 1127 1700 
L 1127 0 
L 564 0 
z
M 1127 2200 
L 2127 2200 
Q 2689 2200 2926 2482 
Q 3164 2764 3164 3182 
Q 3164 3602 2925 3878 
Q 2686 4155 2118 4155 
L 1127 4155 
L 1127 2200 
z
" id="Inter-Regular-50" transform="scale(0.015625)"/>
      </defs>
      <use xlink:href="#Inter-Regular-50"/>
      <use x="63.494324" xlink:href="#Inter-Regular-65"/>
      <use x="121.732971" xlink:href="#Inter-Regular-72"/>
      <use x="160.085251" xlink:href="#Inter-Regular-63"/>
      <use x="215.909119" xlink:href="#Inter-Regular-65"/>
      <use x="274.147766" xlink:href="#Inter-Regular-6e"/>
      <use x="332.670502" xlink:href="#Inter-Regular-74"/>
      <use x="369.034149" xlink:href="#Inter-Regular-20"/>
      <use x="397.159149" xlink:href="#Inter-Regular-6d"/>
      <use x="484.090988" xlink:href="#Inter-Regular-6f"/>
      <use x="543.750092" xlink:href="#Inter-Regular-72"/>
      <use x="582.102371" xlink:href="#Inter-Regular-74"/>
      <use x="618.466019" xlink:href="#Inter-Regular-61"/>
      <use x="674.858078" xlink:href="#Inter-Regular-6c"/>
      <use x="698.579666" xlink:href="#Inter-Regular-69"/>
      <use x="722.301254" xlink:href="#Inter-Regular-74"/>
      <use x="758.664902" xlink:href="#Inter-Regular-79"/>
      <use x="814.346725" xlink:href="#Inter-Regular-20"/>
      <use x="842.471725" xlink:href="#Inter-Regular-70"/>
      <use x="903.409241" xlink:href="#Inter-Regular-65"/>
      <use x="961.647888" xlink:href="#Inter-Regular-72"/>
      <use x="1000.000168" xlink:href="#Inter-Regular-20"/>
      <use x="1028.125168" xlink:href="#Inter-Regular-64"/>
      <use x="1090.199051" xlink:href="#Inter-Regular-61"/>
      <use x="1146.59111" xlink:href="#Inter-Regular-79"/>
     </g>
    </g>
   </g>
   <g id="line2d_23">
    <path clip-path="url(#p99248f4595)" d="M 89.948107 336.351936 
L 91.261879 290.153451 
L 92.57565 291.41488 
L 93.889422 283.030566 
L 95.203194 342.019576 
L 96.516965 288.289615 
L 97.830737 395.031092 
L 99.144509 352.934154 
L 100.45828 321.321536 
L 101.772052 363.454948 
L 103.085824 360.909098 
L 104.399595 345.807038 
L 105.713367 368.174364 
L 107.027139 386.147962 
L 109.654682 409.186791 
L 110.968454 396.349868 
L 112.282225 414.17202 
L 113.595997 415.634175 
L 114.909769 424.652775 
L 116.22354 408.906891 
L 117.537312 419.236417 
L 118.851084 402.210074 
L 120.164855 415.484466 
L 121.478627 423.024697 
L 122.792399 420.838388 
L 124.106171 434.006218 
L 125.419942 423.789106 
L 126.733714 430.016409 
L 128.047486 411.673332 
L 129.361257 432.22071 
L 130.675029 434.427531 
L 131.988801 429.007187 
L 133.302572 422.852755 
L 134.616344 426.935072 
L 135.930116 433.905958 
L 137.243887 429.952947 
L 138.557659 417.563713 
L 139.871431 425.449126 
L 141.185202 427.967794 
L 142.498974 434.794682 
L 143.812746 433.93012 
L 145.126517 440.829288 
L 146.440289 435.62246 
L 147.754061 436.07367 
L 149.067832 419.923053 
L 150.381604 428.272869 
L 151.695376 439.875171 
L 153.009147 434.230921 
L 154.322919 436.966228 
L 155.636691 440.37625 
L 156.950462 431.278578 
L 158.264234 439.333062 
L 159.578006 433.938905 
L 160.891777 445.417534 
L 162.205549 455.328727 
L 163.519321 460.47504 
L 164.833092 447.400275 
L 166.146864 446.276183 
L 167.460636 439.787511 
L 168.774408 437.242281 
L 170.088179 447.649656 
L 171.401951 459.873452 
L 172.715723 459.097044 
L 174.029494 467.498299 
L 175.343266 457.532343 
L 176.657038 448.93763 
L 177.970809 473.049603 
L 179.284581 440.807145 
L 180.598353 464.061971 
L 181.912124 444.891885 
L 183.225896 447.773231 
L 184.539668 471.604683 
L 185.853439 448.763433 
L 187.167211 464.329409 
L 188.480983 463.335476 
L 191.108526 444.839581 
L 192.422298 452.252899 
L 193.736069 425.791154 
L 195.049841 449.480641 
L 196.363613 446.852077 
L 197.677384 476.745 
L 198.991156 442.171335 
L 200.304928 452.7272 
L 201.618699 438.795 
L 202.932471 463.808648 
L 204.246243 462.964574 
L 205.560014 476.745 
L 206.873786 476.745 
L 208.187558 411.977 
L 209.501329 460.278559 
L 210.815101 459.907565 
L 212.128873 476.745 
L 214.756416 476.745 
L 216.070188 455.059286 
L 217.38396 476.745 
L 218.697731 454.098846 
L 220.011503 476.745 
L 243.659393 476.745 
L 244.973165 446.289828 
L 246.286936 476.745 
L 276.503685 476.745 
L 277.817457 466.760211 
L 279.131228 476.745 
L 280.445 476.745 
L 281.758772 468.518751 
L 283.072543 469.034524 
L 284.386315 476.745 
L 288.32763 476.745 
L 289.641402 470.180676 
L 290.955173 476.745 
L 294.896488 476.745 
L 296.21026 471.904342 
L 297.524032 471.987311 
L 298.837803 472.243054 
L 300.151575 476.745 
L 309.347977 476.745 
L 310.661749 473.842341 
L 311.97552 468.150013 
L 313.289292 476.745 
L 314.603064 476.745 
L 317.230607 472.086549 
L 318.544379 476.745 
L 319.85815 470.353421 
L 321.171922 472.653528 
L 322.485694 472.926132 
L 323.799465 474.980845 
L 325.113237 473.453943 
L 326.427009 475.229605 
L 327.74078 473.983823 
L 329.054552 474.067899 
L 330.368324 472.763361 
L 331.682095 475.526335 
L 332.995867 472.149352 
L 334.309639 471.361425 
L 335.62341 475.737095 
L 336.937182 473.904852 
L 338.250954 474.049329 
L 339.564725 475.035029 
L 340.878497 473.503088 
L 342.192269 469.957483 
L 343.50604 468.971709 
L 344.819812 472.811455 
L 346.133584 470.520101 
L 347.447355 470.791694 
L 348.761127 472.228928 
L 350.074899 470.886053 
L 351.38867 473.740609 
L 352.702442 469.148694 
L 354.016214 468.141868 
L 355.329986 472.383127 
L 356.643757 467.614173 
L 357.957529 470.431509 
L 359.271301 469.907558 
L 360.585072 472.538955 
L 361.898844 470.548849 
L 363.212616 470.738803 
L 364.526387 469.858938 
L 365.840159 469.419308 
L 367.153931 467.05435 
L 368.467702 471.664659 
L 369.781474 468.014758 
L 371.095246 468.449026 
L 372.409017 466.160346 
L 373.722789 469.263021 
L 375.036561 466.690306 
L 376.350332 468.528193 
L 377.664104 466.827066 
L 378.977876 471.264986 
L 380.291647 465.2725 
L 381.605419 469.249371 
L 382.919191 466.260767 
L 384.232962 466.873262 
L 385.546734 465.446942 
L 386.860506 467.010044 
L 388.174277 466.38611 
L 389.488049 467.499033 
L 390.801821 466.105296 
L 392.115592 465.225911 
L 393.429364 467.192474 
L 394.743136 467.398832 
L 396.056907 466.48698 
L 397.370679 469.8097 
L 398.684451 469.089904 
L 399.998223 468.106354 
L 401.311994 466.747445 
L 402.625766 465.680202 
L 403.939538 467.164544 
L 405.253309 467.306658 
L 406.567081 466.57135 
L 407.880853 469.455827 
L 409.194624 469.060697 
L 410.508396 463.480824 
L 411.822168 467.563631 
L 413.135939 466.041757 
L 414.449711 467.637316 
L 415.763483 469.883741 
L 417.077254 464.281182 
L 419.704798 469.942642 
L 421.018569 466.178663 
L 422.332341 466.08471 
L 423.646113 466.397493 
L 424.959884 468.125922 
L 426.273656 468.032156 
L 427.587428 469.061963 
L 430.214971 466.591235 
L 431.528743 464.646856 
L 432.842514 464.051096 
L 434.156286 464.152125 
L 435.470058 461.978388 
L 436.783829 467.200359 
L 438.097601 464.966961 
L 439.411373 464.593667 
L 440.725144 466.514597 
L 442.038916 465.544078 
L 443.352688 463.315304 
L 444.66646 462.57659 
L 447.294003 463.659 
L 448.607775 463.655889 
L 451.235318 467.380952 
L 452.54909 465.669208 
L 453.862861 462.368085 
L 455.176633 465.88344 
L 456.490405 464.253774 
L 457.804176 464.913342 
L 459.117948 466.680254 
L 460.43172 466.39647 
L 461.745491 464.693271 
L 463.059263 466.166707 
L 464.373035 466.964128 
L 465.686806 468.06235 
L 467.000578 463.597078 
L 468.31435 466.299484 
L 469.628121 465.89692 
L 470.941893 466.18815 
L 472.255665 465.155807 
L 473.569436 465.291889 
L 474.883208 462.089279 
L 476.19698 468.519399 
L 477.510751 464.675715 
L 478.824523 463.294633 
L 480.138295 464.179041 
L 481.452066 465.960634 
L 482.765838 464.145929 
L 484.07961 466.808957 
L 485.393381 463.736143 
L 486.707153 467.04137 
L 488.020925 466.881082 
L 489.334696 465.202417 
L 490.648468 467.639474 
L 491.96224 464.727288 
L 493.276012 467.562589 
L 494.589783 466.618716 
L 495.903555 467.258146 
L 497.217327 467.090486 
L 498.531098 465.427145 
L 499.84487 468.9147 
L 501.158642 465.580728 
L 502.472413 463.468246 
L 503.786185 465.41878 
L 505.099957 465.696211 
L 506.413728 462.792516 
L 507.7275 465.84328 
L 509.041272 466.150783 
L 510.355043 463.798137 
L 511.668815 466.354759 
L 512.982587 465.870883 
L 514.296358 465.200709 
L 515.61013 468.138643 
L 516.923902 466.919615 
L 518.237673 464.38978 
L 519.551445 460.391947 
L 520.865217 466.512889 
L 522.178988 469.055274 
L 523.49276 468.273897 
L 524.806532 470.486466 
L 526.120303 469.949756 
L 527.434075 468.605931 
L 528.747847 470.073332 
L 530.061618 469.085184 
L 531.37539 472.841397 
L 532.689162 467.887636 
L 534.002933 470.930461 
L 535.316705 471.724461 
L 536.630477 470.154275 
L 537.944249 472.905 
L 539.25802 471.86299 
L 540.571792 471.814928 
L 541.885564 469.186102 
L 544.513107 474.162681 
L 545.826879 473.08323 
L 547.14065 473.581127 
L 548.454422 474.604499 
L 549.768194 472.910629 
L 551.081965 476.194033 
L 552.395737 470.623261 
L 553.709509 472.162629 
L 555.02328 475.020408 
L 556.337052 473.248227 
L 560.278367 474.889065 
L 561.592139 474.869961 
L 562.90591 474.227783 
L 564.219682 472.320381 
L 565.533454 473.576724 
L 569.474769 473.546264 
L 570.78854 475.454372 
L 572.102312 475.454287 
L 573.416084 476.095328 
L 574.729855 475.438315 
L 576.043627 475.424282 
L 577.357399 476.082525 
L 578.67117 474.04858 
L 579.984942 475.377144 
L 583.926257 475.270654 
L 585.240029 474.47173 
L 586.553801 475.201312 
L 587.867572 476.745 
L 589.181344 476.745 
L 590.495116 474.233964 
L 593.122659 475.842855 
L 594.436431 475.818949 
L 595.750202 476.745 
L 597.063974 475.77764 
L 598.377746 475.74611 
L 599.691517 473.613422 
L 601.005289 476.745 
L 602.319061 474.472173 
L 603.632832 476.745 
L 604.946604 474.290737 
L 606.260376 475.484432 
L 608.887919 475.374925 
L 610.201691 476.745 
L 612.829234 476.745 
L 614.143006 475.184827 
L 615.456777 476.745 
L 625.966951 476.745 
L 627.280722 473.277143 
L 628.594494 476.745 
L 632.535809 476.745 
L 633.849581 475.087116 
L 635.163353 476.745 
L 639.104668 476.745 
L 640.418439 475.278333 
L 641.732211 475.321736 
L 643.045983 476.745 
L 644.359754 476.745 
L 645.673526 474.162544 
L 646.987298 475.501056 
L 648.301069 475.568826 
L 649.614841 474.503376 
L 652.242384 476.745 
L 653.556156 476.745 
L 656.183699 474.960594 
L 658.811243 476.745 
L 660.125014 475.989306 
L 661.438786 476.016123 
L 662.752558 476.745 
L 664.066329 475.400522 
L 665.380101 475.442432 
L 666.693873 476.745 
L 668.007644 476.745 
L 669.321416 475.047231 
L 670.635188 476.198188 
L 671.948959 473.589519 
L 673.262731 476.239211 
L 674.576503 476.261488 
L 675.890275 475.332154 
L 677.204046 475.839913 
L 678.517818 475.437729 
L 679.83159 475.908636 
L 681.145361 475.195588 
L 682.459133 476.391771 
L 683.772905 476.098161 
L 685.086676 476.433066 
L 686.400448 474.417867 
L 687.71422 475.924251 
L 690.341763 476.033194 
L 691.655535 476.52498 
L 692.969306 476.336412 
L 694.283078 476.359369 
L 696.910621 475.677102 
L 698.224393 475.882439 
L 699.538165 474.566854 
L 700.851936 476.105548 
L 702.165708 475.044349 
L 703.47948 475.847536 
L 704.793251 475.569377 
L 706.107023 476.021314 
L 707.420795 476.03582 
L 708.734566 475.496812 
L 710.048338 476.066166 
L 711.36211 475.93906 
L 712.675881 476.215734 
L 713.989653 475.962904 
L 713.989653 475.962904 
" style="fill:none;stroke:#003078;stroke-linecap:square;stroke-width:2;"/>
   </g>
   <g id="line2d_24">
    <path clip-path="url(#p99248f4595)" d="M 54.476272 199.167857 
L 55.790043 54.345 
L 57.103815 476.745 
L 58.417587 191.003824 
L 59.731358 476.745 
L 61.04513 476.745 
L 62.358902 353.767785 
L 63.672673 298.810934 
L 64.986445 385.379483 
L 66.300217 273.285314 
L 67.613988 233.865 
L 68.92776 233.484906 
L 70.241532 245.430714 
L 71.555303 192.310965 
L 72.869075 125.691555 
L 74.182847 163.553511 
L 75.496618 177.609706 
L 76.81039 240.0474 
L 78.124162 183.390826 
L 79.437934 211.639566 
L 80.751705 166.167148 
L 82.065477 175.268839 
L 83.379249 165.369499 
L 84.69302 137.57313 
L 86.006792 141.703821 
L 88.634335 217.834819 
L 89.948107 202.827956 
L 91.261879 193.036034 
L 92.57565 197.751039 
L 93.889422 200.648359 
L 96.516965 248.71892 
L 97.830737 240.667356 
L 99.144509 273.240331 
L 100.45828 293.41359 
L 101.772052 283.054 
L 103.085824 288.686472 
L 104.399595 319.880134 
L 105.713367 334.788045 
L 107.027139 340.947213 
L 108.34091 349.107429 
L 109.654682 361.958685 
L 110.968454 372.439457 
L 112.282225 374.340514 
L 113.595997 381.154107 
L 114.909769 386.737778 
L 116.22354 393.872636 
L 117.537312 398.988993 
L 118.851084 400.641026 
L 120.164855 406.009063 
L 121.478627 408.22153 
L 122.792399 414.316493 
L 124.106171 413.710196 
L 125.419942 419.153613 
L 126.733714 418.691818 
L 128.047486 424.377533 
L 129.361257 424.867113 
L 130.675029 424.133115 
L 131.988801 424.56954 
L 133.302572 424.485173 
L 134.616344 430.128751 
L 135.930116 432.542019 
L 137.243887 428.858244 
L 138.557659 430.555086 
L 139.871431 428.949054 
L 141.185202 426.796995 
L 142.498974 434.020337 
L 143.812746 432.552738 
L 145.126517 435.038123 
L 146.440289 439.474778 
L 147.754061 435.634009 
L 149.067832 437.232867 
L 150.381604 432.640005 
L 151.695376 431.797392 
L 153.009147 430.026412 
L 154.322919 435.799853 
L 155.636691 428.857035 
L 156.950462 431.035258 
L 158.264234 428.273607 
L 159.578006 433.030841 
L 160.891777 432.430053 
L 162.205549 429.241394 
L 163.519321 435.004342 
L 164.833092 431.485849 
L 166.146864 425.836361 
L 167.460636 429.923432 
L 168.774408 423.661257 
L 170.088179 426.261144 
L 171.401951 429.56014 
L 172.715723 438.099511 
L 174.029494 432.78971 
L 175.343266 417.846576 
L 176.657038 421.838882 
L 177.970809 424.995608 
L 179.284581 427.429264 
L 180.598353 430.405586 
L 181.912124 421.207104 
L 183.225896 419.379838 
L 184.539668 432.23271 
L 185.853439 422.799474 
L 187.167211 435.151946 
L 188.480983 432.039402 
L 189.794754 443.288682 
L 191.108526 426.186578 
L 192.422298 434.43564 
L 193.736069 426.726436 
L 195.049841 435.854836 
L 196.363613 431.565397 
L 197.677384 437.029039 
L 198.991156 428.357175 
L 200.304928 433.145802 
L 201.618699 421.267832 
L 202.932471 416.732119 
L 204.246243 407.298889 
L 205.560014 414.925845 
L 206.873786 435.569467 
L 209.501329 425.924425 
L 210.815101 434.580486 
L 212.128873 421.675978 
L 213.442644 447.470325 
L 214.756416 424.180682 
L 216.070188 442.812276 
L 217.38396 437.122424 
L 218.697731 447.099126 
L 220.011503 437.184092 
L 221.325275 445.268963 
L 222.639046 450.665448 
L 223.952818 438.45742 
L 225.26659 453.997849 
L 226.580361 456.080957 
L 227.894133 464.758325 
L 229.207905 455.380106 
L 230.521676 457.552586 
L 231.835448 458.022317 
L 233.14922 465.843336 
L 234.462991 460.856067 
L 235.776763 464.895131 
L 237.090535 465.348871 
L 238.404306 467.260587 
L 239.718078 461.955416 
L 241.03185 464.688597 
L 242.345621 465.087343 
L 243.659393 472.535337 
L 244.973165 467.952964 
L 246.286936 467.643501 
L 247.600708 470.461318 
L 248.91448 470.600806 
L 250.228251 471.98702 
L 251.542023 472.069735 
L 252.855795 471.008581 
L 255.483338 472.242793 
L 256.79711 469.098677 
L 258.110881 471.297122 
L 259.424653 475.128584 
L 260.738425 471.951316 
L 262.052197 473.080072 
L 263.365968 470.94614 
L 264.67974 472.611312 
L 265.993512 471.121594 
L 267.307283 471.805152 
L 268.621055 473.842919 
L 269.934827 473.435364 
L 271.248598 473.995026 
L 272.56237 471.735991 
L 273.876142 474.947137 
L 275.189913 471.376003 
L 277.817457 475.880581 
L 279.131228 473.337802 
L 281.758772 474.251899 
L 283.072543 471.392953 
L 284.386315 474.698833 
L 285.700087 472.339558 
L 287.013858 472.371112 
L 288.32763 473.632526 
L 289.641402 473.668501 
L 290.955173 474.834965 
L 293.582717 474.182202 
L 294.896488 476.024288 
L 296.21026 473.907928 
L 297.524032 474.668807 
L 298.837803 474.731417 
L 300.151575 472.825869 
L 301.465347 474.264655 
L 302.779118 472.936726 
L 304.09289 474.190087 
L 305.406662 474.287806 
L 306.720434 473.602871 
L 308.034205 474.251494 
L 309.347977 472.483532 
L 310.661749 473.57609 
L 311.97552 473.037408 
L 313.289292 473.592079 
L 314.603064 472.374958 
L 315.916835 472.142639 
L 318.544379 473.62799 
L 319.85815 472.090534 
L 321.171922 472.95 
L 322.485694 471.628727 
L 323.799465 469.398913 
L 325.113237 472.356323 
L 326.427009 473.117545 
L 330.368324 471.490338 
L 331.682095 472.179736 
L 332.995867 471.883551 
L 334.309639 471.401961 
L 335.62341 470.716214 
L 336.937182 471.993784 
L 338.250954 472.746244 
L 339.564725 472.631728 
L 340.878497 472.726893 
L 342.192269 471.800381 
L 344.819812 473.11167 
L 346.133584 472.113127 
L 347.447355 471.647833 
L 350.074899 472.856542 
L 351.38867 472.48067 
L 352.702442 471.796694 
L 354.016214 472.038976 
L 355.329986 470.764015 
L 356.643757 472.473722 
L 357.957529 471.335494 
L 359.271301 471.192214 
L 360.585072 470.892248 
L 361.898844 471.219124 
L 363.212616 471.37564 
L 364.526387 472.063385 
L 365.840159 471.284982 
L 367.153931 471.111301 
L 368.467702 471.408978 
L 369.781474 471.114742 
L 371.095246 471.050731 
L 372.409017 470.552511 
L 373.722789 470.771876 
L 375.036561 470.545695 
L 376.350332 470.616456 
L 377.664104 470.57305 
L 378.977876 470.978872 
L 380.291647 470.583183 
L 381.605419 470.061831 
L 382.919191 470.187103 
L 384.232962 470.135533 
L 385.546734 469.08549 
L 386.860506 470.702997 
L 388.174277 470.879469 
L 389.488049 470.32884 
L 392.115592 470.47644 
L 393.429364 470.142992 
L 394.743136 470.591254 
L 396.056907 470.485184 
L 397.370679 469.187129 
L 398.684451 469.883397 
L 399.998223 470.013113 
L 402.625766 469.717756 
L 403.939538 469.764975 
L 405.253309 469.533662 
L 406.567081 469.121592 
L 407.880853 470.008808 
L 409.194624 470.063206 
L 411.822168 469.115361 
L 413.135939 469.824266 
L 414.449711 470.054956 
L 415.763483 470.13598 
L 417.077254 468.628492 
L 418.391026 468.390086 
L 419.704798 469.614684 
L 421.018569 469.323359 
L 422.332341 469.224295 
L 423.646113 468.633354 
L 424.959884 468.526715 
L 426.273656 468.160127 
L 427.587428 467.610973 
L 428.901199 467.998677 
L 430.214971 468.108657 
L 431.528743 466.959855 
L 432.842514 467.506262 
L 434.156286 468.419421 
L 435.470058 466.5016 
L 436.783829 466.799421 
L 438.097601 467.395825 
L 439.411373 467.328012 
L 440.725144 466.247344 
L 443.352688 467.395574 
L 444.66646 467.677963 
L 445.980231 467.061268 
L 447.294003 466.850566 
L 449.921546 467.158743 
L 451.235318 467.880682 
L 452.54909 467.596467 
L 453.862861 467.711871 
L 455.176633 468.286877 
L 456.490405 468.360179 
L 457.804176 468.902653 
L 459.117948 468.142446 
L 460.43172 467.831414 
L 461.745491 468.200008 
L 463.059263 467.81484 
L 464.373035 468.212271 
L 465.686806 468.150188 
L 467.000578 467.919028 
L 468.31435 467.908119 
L 469.628121 467.351862 
L 470.941893 467.426517 
L 472.255665 467.709381 
L 473.569436 467.802382 
L 474.883208 467.359519 
L 477.510751 467.440863 
L 478.824523 466.819856 
L 480.138295 467.392575 
L 481.452066 467.702668 
L 482.765838 467.82319 
L 484.07961 468.334012 
L 485.393381 468.490356 
L 486.707153 468.137176 
L 488.020925 468.830437 
L 489.334696 468.29495 
L 490.648468 468.052677 
L 491.96224 468.494459 
L 493.276012 469.2852 
L 494.589783 469.282018 
L 495.903555 469.072702 
L 497.217327 469.206538 
L 498.531098 468.709046 
L 499.84487 469.845598 
L 501.158642 469.177877 
L 502.472413 469.616789 
L 503.786185 469.797099 
L 505.099957 468.967922 
L 506.413728 469.628191 
L 507.7275 469.241044 
L 509.041272 469.357269 
L 510.355043 469.811238 
L 511.668815 469.833679 
L 512.982587 469.45973 
L 514.296358 468.686446 
L 515.61013 469.550984 
L 516.923902 469.4199 
L 518.237673 469.463561 
L 519.551445 470.033107 
L 520.865217 470.013653 
L 522.178988 470.123234 
L 523.49276 470.998082 
L 524.806532 470.525846 
L 527.434075 470.888541 
L 528.747847 471.29206 
L 531.37539 470.709439 
L 532.689162 470.629723 
L 534.002933 471.682517 
L 535.316705 472.429843 
L 536.630477 472.116869 
L 537.944249 470.882758 
L 539.25802 471.678188 
L 540.571792 472.120234 
L 541.885564 471.611888 
L 543.199335 471.821808 
L 544.513107 472.388227 
L 545.826879 471.795911 
L 547.14065 472.854578 
L 548.454422 471.865392 
L 549.768194 472.692533 
L 551.081965 472.387372 
L 552.395737 473.186733 
L 553.709509 473.173687 
L 555.02328 473.748171 
L 557.650824 473.113863 
L 558.964595 472.389455 
L 562.90591 474.426906 
L 565.533454 473.838338 
L 566.847225 474.647528 
L 569.474769 474.901802 
L 570.78854 473.896957 
L 572.102312 474.002831 
L 574.729855 475.250511 
L 576.043627 474.581473 
L 577.357399 474.780663 
L 578.67117 475.914868 
L 579.984942 474.786204 
L 581.298714 474.567017 
L 582.612486 473.963024 
L 583.926257 475.177541 
L 586.553801 474.906906 
L 587.867572 474.301097 
L 589.181344 474.843219 
L 590.495116 475.817662 
L 591.808887 474.934966 
L 593.122659 475.119696 
L 594.436431 474.842845 
L 595.750202 475.007309 
L 599.691517 474.58835 
L 601.005289 474.897251 
L 602.319061 474.40611 
L 603.632832 475.753725 
L 604.946604 475.001138 
L 606.260376 475.389244 
L 607.574147 475.215505 
L 608.887919 474.708632 
L 610.201691 474.973916 
L 611.515462 475.438864 
L 612.829234 475.578509 
L 614.143006 475.061927 
L 615.456777 475.380026 
L 616.770549 475.201871 
L 618.084321 474.67294 
L 619.398092 475.529992 
L 620.711864 475.344005 
L 624.653179 475.307122 
L 625.966951 474.410479 
L 627.280722 475.12129 
L 628.594494 476.024127 
L 629.908266 476.200334 
L 631.222038 475.467357 
L 633.849581 475.816187 
L 635.163353 476.185991 
L 636.477124 476.188212 
L 639.104668 475.446276 
L 640.418439 476.193021 
L 641.732211 475.64796 
L 643.045983 475.288312 
L 644.359754 476.195353 
L 645.673526 474.937084 
L 646.987298 475.498777 
L 649.614841 475.89373 
L 650.928613 475.578649 
L 652.242384 475.606017 
L 653.556156 476.263954 
L 654.869928 475.33854 
L 656.183699 475.233706 
L 657.497471 475.589185 
L 658.811243 476.192309 
L 660.125014 476.08229 
L 661.438786 476.235036 
L 662.752558 475.887805 
L 664.066329 476.280896 
L 665.380101 475.750722 
L 666.693873 476.117498 
L 668.007644 475.454682 
L 669.321416 476.08268 
L 670.635188 476.023224 
L 671.948959 475.618941 
L 673.262731 475.919229 
L 674.576503 476.355501 
L 675.890275 476.00674 
L 677.204046 475.480622 
L 678.517818 475.398957 
L 679.83159 475.9094 
L 682.459133 476.45652 
L 683.772905 475.710993 
L 685.086676 475.766175 
L 686.400448 476.35827 
L 687.71422 475.958194 
L 689.027991 476.357697 
L 690.341763 475.975947 
L 698.224393 476.09673 
L 699.538165 476.292178 
L 703.47948 475.891371 
L 706.107023 476.236631 
L 708.734566 476.101161 
L 710.048338 476.223038 
L 711.36211 476.106636 
L 712.675881 476.222109 
L 713.989653 476.211446 
L 713.989653 476.211446 
" style="fill:none;stroke:#5694ca;stroke-linecap:square;stroke-width:2;"/>
   </g>
   <g id="line2d_25">
    <path clip-path="url(#p99248f4595)" d="M 95.203194 350.573571 
L 96.516965 368.557918 
L 97.830737 388.425 
L 99.144509 377.426041 
L 100.45828 425.701918 
L 101.772052 414.015702 
L 103.085824 447.327286 
L 104.399595 356.804259 
L 105.713367 408.240385 
L 107.027139 413.246961 
L 108.34091 388.475153 
L 109.654682 439.583033 
L 110.968454 415.54689 
L 112.282225 399.792921 
L 113.595997 426.430876 
L 114.909769 437.918712 
L 116.22354 435.8905 
L 117.537312 438.146669 
L 118.851084 431.558023 
L 120.164855 427.906021 
L 121.478627 407.48091 
L 122.792399 420.729432 
L 124.106171 439.208224 
L 125.419942 426.528598 
L 126.733714 429.811667 
L 128.047486 432.289667 
L 129.361257 456.089011 
L 130.675029 427.713709 
L 131.988801 448.605391 
L 133.302572 433.86806 
L 134.616344 433.421923 
L 135.930116 436.839399 
L 137.243887 444.094963 
L 139.871431 465.513555 
L 141.185202 465.119312 
L 142.498974 452.78643 
L 143.812746 447.940934 
L 145.126517 434.742406 
L 146.440289 468.174025 
L 147.754061 459.287318 
L 149.067832 463.282829 
L 150.381604 430.260789 
L 151.695376 462.017562 
L 153.009147 455.974931 
L 154.322919 437.660862 
L 155.636691 436.095628 
L 156.950462 447.535138 
L 158.264234 445.706022 
L 159.578006 450.218857 
L 160.891777 469.715188 
L 162.205549 462.01384 
L 163.519321 422.857203 
L 164.833092 468.878441 
L 166.146864 468.840037 
L 167.460636 444.361 
L 168.774408 451.245787 
L 170.088179 467.69076 
L 171.401951 457.695588 
L 172.715723 466.507698 
L 174.029494 465.85352 
L 175.343266 453.912568 
L 176.657038 452.637804 
L 177.970809 476.745 
L 179.284581 463.860119 
L 180.598353 476.745 
L 185.853439 476.745 
L 187.167211 440.15291 
L 188.480983 458.097783 
L 189.794754 456.672273 
L 191.108526 476.745 
L 192.422298 476.745 
L 193.736069 454.308048 
L 195.049841 453.777624 
L 196.363613 451.312539 
L 197.677384 449.907431 
L 198.991156 476.745 
L 200.304928 476.745 
L 201.618699 439.664084 
L 202.932471 435.227051 
L 204.246243 476.745 
L 205.560014 426.923462 
L 206.873786 369.98456 
L 208.187558 476.745 
L 209.501329 476.745 
L 210.815101 415.643113 
L 212.128873 476.745 
L 213.442644 412.405927 
L 214.756416 476.745 
L 216.070188 322.535476 
L 217.38396 476.745 
L 222.639046 476.745 
L 223.952818 371.145 
L 225.26659 476.745 
L 226.580361 476.745 
L 227.894133 337.956429 
L 229.207905 476.745 
L 262.052197 476.745 
L 263.365968 426.145 
L 264.67974 476.745 
L 268.621055 476.745 
L 269.934827 437.8842 
L 271.248598 476.745 
L 272.56237 450.487703 
L 273.876142 476.745 
L 284.386315 476.745 
L 285.700087 464.384695 
L 287.013858 476.745 
L 288.32763 476.745 
L 289.641402 466.881853 
L 290.955173 476.745 
L 293.582717 476.745 
L 294.896488 468.794755 
L 296.21026 476.745 
L 297.524032 461.991469 
L 298.837803 476.745 
L 300.151575 470.185108 
L 301.465347 476.745 
L 302.779118 465.500556 
L 304.09289 476.745 
L 305.406662 476.745 
L 308.034205 466.092368 
L 309.347977 476.745 
L 310.661749 476.745 
L 311.97552 471.870339 
L 313.289292 471.961544 
L 314.603064 467.605583 
L 315.916835 476.745 
L 317.230607 472.640564 
L 318.544379 469.0284 
L 319.85815 476.745 
L 325.113237 476.745 
L 326.427009 473.68413 
L 327.74078 476.745 
L 329.054552 476.745 
L 330.368324 474.122106 
L 331.682095 476.745 
L 332.995867 474.500268 
L 334.309639 474.590854 
L 335.62341 473.135414 
L 336.937182 475.123368 
L 338.250954 476.745 
L 339.564725 475.320901 
L 342.192269 475.564538 
L 343.50604 476.745 
L 346.133584 476.745 
L 347.447355 471.823419 
L 350.074899 473.844074 
L 351.38867 475.403492 
L 352.702442 474.171096 
L 354.016214 475.548105 
L 355.329986 475.034879 
L 356.643757 472.941297 
L 357.957529 474.652785 
L 359.271301 475.243578 
L 360.585072 473.863719 
L 361.898844 474.901858 
L 364.526387 473.316156 
L 365.840159 474.251366 
L 367.153931 472.270386 
L 369.781474 473.205192 
L 371.095246 471.361339 
L 372.409017 473.232918 
L 373.722789 474.004906 
L 375.036561 472.865438 
L 376.350332 474.795644 
L 377.664104 472.047885 
L 378.977876 472.807097 
L 380.291647 473.94223 
L 381.605419 470.616567 
L 382.919191 473.839364 
L 384.232962 472.476271 
L 385.546734 472.398738 
L 386.860506 473.212842 
L 388.174277 470.891927 
L 389.488049 472.197324 
L 390.801821 471.57509 
L 392.115592 470.47744 
L 393.429364 470.304859 
L 394.743136 472.172424 
L 396.056907 471.047847 
L 397.370679 471.417808 
L 398.684451 469.602279 
L 399.998223 469.226838 
L 401.311994 471.957123 
L 402.625766 473.027212 
L 403.939538 471.642479 
L 405.253309 472.083515 
L 406.567081 469.942591 
L 407.880853 471.154322 
L 409.194624 468.959818 
L 410.508396 468.765668 
L 411.822168 470.793426 
L 413.135939 467.676674 
L 414.449711 471.38045 
L 415.763483 470.484198 
L 417.077254 472.026593 
L 418.391026 471.174358 
L 419.704798 467.134712 
L 421.018569 467.934843 
L 422.332341 463.04573 
L 423.646113 471.026813 
L 424.959884 469.197585 
L 426.273656 465.74155 
L 427.587428 469.081156 
L 430.214971 472.478333 
L 431.528743 471.664271 
L 432.842514 471.636218 
L 434.156286 465.668206 
L 435.470058 464.990372 
L 436.783829 468.449918 
L 438.097601 464.595938 
L 439.411373 467.156054 
L 440.725144 463.461126 
L 442.038916 469.150847 
L 443.352688 465.575536 
L 444.66646 465.906981 
L 445.980231 471.535777 
L 447.294003 469.673228 
L 448.607775 466.584934 
L 449.921546 471.468943 
L 451.235318 470.026328 
L 452.54909 469.58243 
L 453.862861 471.660105 
L 455.176633 469.975552 
L 456.490405 470.500725 
L 457.804176 471.681704 
L 459.117948 471.575014 
L 460.43172 474.073473 
L 461.745491 472.780789 
L 463.059263 469.439554 
L 464.373035 473.382059 
L 465.686806 470.236743 
L 467.000578 471.645827 
L 468.31435 469.495792 
L 469.628121 470.893027 
L 470.941893 471.008509 
L 472.255665 468.971644 
L 473.569436 469.687313 
L 474.883208 470.875143 
L 476.19698 468.314443 
L 477.510751 470.655602 
L 478.824523 471.280236 
L 480.138295 471.29926 
L 481.452066 473.582032 
L 482.765838 473.100258 
L 484.07961 471.084121 
L 485.393381 473.111269 
L 486.707153 472.400746 
L 488.020925 473.161047 
L 489.334696 470.459489 
L 490.648468 471.489279 
L 491.96224 469.357015 
L 493.276012 471.730518 
L 494.589783 472.241663 
L 495.903555 470.772786 
L 497.217327 471.363764 
L 498.531098 474.535895 
L 499.84487 470.265423 
L 501.158642 472.372504 
L 502.472413 470.07846 
L 503.786185 472.466825 
L 505.099957 471.806184 
L 506.413728 475.007454 
L 507.7275 471.876751 
L 509.041272 469.097745 
L 510.355043 470.756178 
L 511.668815 471.270877 
L 512.982587 473.160584 
L 514.296358 473.049884 
L 515.61013 467.618462 
L 516.923902 472.752233 
L 518.237673 471.795 
L 519.551445 475.013852 
L 520.865217 472.259681 
L 523.49276 472.085432 
L 524.806532 474.821198 
L 526.120303 472.79292 
L 527.434075 472.663841 
L 530.061618 474.542756 
L 534.002933 474.333981 
L 535.316705 471.750681 
L 536.630477 474.165287 
L 537.944249 475.394166 
L 539.25802 468.38664 
L 540.571792 473.878314 
L 541.885564 475.278776 
L 543.199335 467.90094 
L 544.513107 466.12232 
L 547.14065 475.171179 
L 548.454422 476.745 
L 549.768194 476.745 
L 551.081965 473.434881 
L 552.395737 476.745 
L 555.02328 473.136085 
L 557.650824 476.745 
L 558.964595 470.860566 
L 560.278367 472.741209 
L 561.592139 476.745 
L 564.219682 476.745 
L 565.533454 474.597045 
L 568.160997 474.565238 
L 570.78854 470.099856 
L 572.102312 476.745 
L 573.416084 476.745 
L 574.729855 472.083196 
L 576.043627 474.363824 
L 577.357399 474.280464 
L 578.67117 471.746183 
L 579.984942 474.122106 
L 581.298714 471.4143 
L 582.612486 473.985 
L 583.926257 471.071891 
L 585.240029 473.908445 
L 586.553801 473.863007 
L 587.867572 476.745 
L 590.495116 470.731258 
L 591.808887 473.728794 
L 594.436431 473.653941 
L 595.750202 476.745 
L 597.063974 473.602956 
L 598.377746 476.745 
L 599.691517 467.090942 
L 601.005289 470.171793 
L 602.319061 476.745 
L 603.632832 473.281471 
L 604.946604 476.745 
L 606.260376 473.237708 
L 607.574147 473.18371 
L 608.887919 476.745 
L 610.201691 473.134744 
L 611.515462 476.745 
L 612.829234 473.14411 
L 614.143006 476.745 
L 618.084321 476.745 
L 619.398092 473.254091 
L 620.711864 476.745 
L 624.653179 476.745 
L 625.966951 473.058017 
L 627.280722 476.745 
L 628.594494 472.995405 
L 629.908266 476.745 
L 631.222038 476.745 
L 632.535809 468.960385 
L 633.849581 476.745 
L 635.163353 472.826 
L 636.477124 476.745 
L 646.987298 476.745 
L 648.301069 472.542924 
L 649.614841 476.745 
L 652.242384 476.745 
L 653.556156 472.388408 
L 654.869928 476.745 
L 661.438786 476.745 
L 662.752558 472.238878 
L 664.066329 476.745 
L 691.655535 476.745 
L 692.969306 474.611198 
L 694.283078 476.745 
L 702.165708 476.745 
L 703.47948 475.50217 
L 706.107023 475.627025 
L 707.420795 476.745 
L 711.36211 476.745 
L 712.675881 474.341437 
L 713.989653 476.745 
L 713.989653 476.745 
" style="fill:none;stroke:#ffdd00;stroke-linecap:square;stroke-width:2;"/>
   </g>
   <g id="line2d_26">
    <path clip-path="url(#p99248f4595)" d="M 86.006792 332.524757 
L 87.320564 371.145 
L 88.634335 343.294451 
L 89.948107 335.717903 
L 91.261879 369.542793 
L 92.57565 383.449225 
L 95.203194 348.370484 
L 96.516965 362.402143 
L 97.830737 371.10796 
L 99.144509 385.522465 
L 100.45828 421.15015 
L 101.772052 394.58686 
L 103.085824 376.193398 
L 104.399595 373.951299 
L 105.713367 423.399953 
L 107.027139 414.91556 
L 109.654682 400.609844 
L 110.968454 432.530892 
L 112.282225 414.926916 
L 113.595997 422.208994 
L 114.909769 431.614 
L 116.22354 430.072368 
L 117.537312 440.284954 
L 118.851084 442.694811 
L 120.164855 437.236257 
L 121.478627 446.955692 
L 122.792399 453.801731 
L 124.106171 437.555514 
L 125.419942 440.679869 
L 126.733714 456.923118 
L 128.047486 456.905408 
L 129.361257 458.425955 
L 130.675029 444.352694 
L 131.988801 456.549703 
L 133.302572 439.239569 
L 134.616344 458.133506 
L 135.930116 457.690251 
L 137.243887 444.964371 
L 138.557659 452.756852 
L 139.871431 443.379374 
L 141.185202 449.471241 
L 142.498974 457.066346 
L 143.812746 465.769145 
L 145.126517 460.692125 
L 146.440289 451.889465 
L 147.754061 458.094529 
L 149.067832 448.942603 
L 150.381604 455.294696 
L 151.695376 447.509867 
L 153.009147 452.494309 
L 154.322919 455.524349 
L 155.636691 456.758989 
L 156.950462 454.118026 
L 158.264234 461.828045 
L 159.578006 457.275661 
L 160.891777 454.594521 
L 162.205549 460.825899 
L 163.519321 449.210187 
L 164.833092 453.261316 
L 166.146864 452.733136 
L 167.460636 462.266311 
L 168.774408 437.040479 
L 170.088179 449.037663 
L 171.401951 450.906702 
L 172.715723 458.204542 
L 174.029494 451.989394 
L 175.343266 462.681306 
L 176.657038 456.981443 
L 177.970809 442.344764 
L 179.284581 465.015208 
L 180.598353 449.733323 
L 181.912124 451.295884 
L 183.225896 453.862631 
L 184.539668 463.386183 
L 185.853439 452.577836 
L 187.167211 459.074574 
L 188.480983 462.352111 
L 189.794754 453.992775 
L 191.108526 452.845369 
L 192.422298 452.457 
L 193.736069 442.938301 
L 195.049841 472.411726 
L 196.363613 476.745 
L 197.677384 457.478366 
L 198.991156 461.050008 
L 200.304928 450.010823 
L 201.618699 465.841296 
L 202.932471 471.003156 
L 204.246243 441.244878 
L 205.560014 425.159867 
L 206.873786 465.02582 
L 208.187558 440.7183 
L 209.501329 464.297594 
L 210.815101 458.73165 
L 212.128873 452.102768 
L 213.442644 451.295884 
L 214.756416 457.732867 
L 216.070188 476.745 
L 217.38396 463.571847 
L 220.011503 463.022966 
L 221.325275 469.684535 
L 222.639046 469.553882 
L 223.952818 469.294693 
L 225.26659 476.745 
L 226.580361 468.642248 
L 227.894133 476.745 
L 229.207905 459.473533 
L 231.835448 476.745 
L 233.14922 467.182795 
L 234.462991 476.745 
L 238.404306 476.745 
L 239.718078 465.068077 
L 241.03185 464.706338 
L 242.345621 476.745 
L 244.973165 448.544129 
L 246.286936 448.420802 
L 247.600708 460.947927 
L 248.91448 444.891885 
L 250.228251 413.03877 
L 251.542023 443.128391 
L 252.855795 409.511782 
L 254.169566 442.354912 
L 255.483338 443.643807 
L 256.79711 460.633557 
L 258.110881 414.368114 
L 259.424653 430.037308 
L 260.738425 476.745 
L 262.052197 399.640238 
L 263.365968 446.479579 
L 264.67974 476.745 
L 265.993512 446.98941 
L 267.307283 476.745 
L 268.621055 461.445472 
L 269.934827 461.372848 
L 271.248598 461.421341 
L 272.56237 476.745 
L 275.189913 476.745 
L 276.503685 446.337488 
L 277.817457 476.745 
L 280.445 476.745 
L 281.758772 460.739728 
L 283.072543 476.745 
L 284.386315 459.965725 
L 285.700087 476.745 
L 292.268945 476.745 
L 293.582717 447.959222 
L 294.896488 476.745 
L 296.21026 476.745 
L 297.524032 464.078507 
L 298.837803 476.745 
L 306.720434 476.745 
L 308.034205 470.469031 
L 309.347977 476.745 
L 310.661749 471.433245 
L 311.97552 476.745 
L 313.289292 467.421392 
L 314.603064 468.15508 
L 315.916835 468.685937 
L 317.230607 476.745 
L 318.544379 476.745 
L 319.85815 473.416737 
L 321.171922 473.645064 
L 322.485694 468.139863 
L 323.799465 468.956224 
L 325.113237 476.745 
L 326.427009 474.50699 
L 327.74078 472.585206 
L 329.054552 470.888942 
L 330.368324 471.165827 
L 331.682095 469.729149 
L 332.995867 470.141636 
L 334.309639 468.951642 
L 335.62341 473.820497 
L 336.937182 465.864194 
L 338.250954 472.846966 
L 339.564725 464.509232 
L 340.878497 472.014531 
L 342.192269 464.603759 
L 343.50604 470.502635 
L 344.819812 470.898926 
L 346.133584 473.951671 
L 347.447355 473.126339 
L 348.761127 473.225956 
L 350.074899 470.100424 
L 351.38867 471.280005 
L 352.702442 471.514945 
L 354.016214 472.520082 
L 355.329986 474.019648 
L 356.643757 469.625266 
L 357.957529 468.544922 
L 359.271301 474.356359 
L 360.585072 469.246033 
L 361.898844 461.31355 
L 363.212616 470.830605 
L 364.526387 469.084379 
L 365.840159 468.880431 
L 367.153931 469.683509 
L 368.467702 466.34135 
L 369.781474 471.996191 
L 371.095246 468.056307 
L 372.409017 471.250865 
L 373.722789 472.169732 
L 375.036561 466.229088 
L 376.350332 470.609388 
L 377.664104 468.652518 
L 378.977876 469.128494 
L 380.291647 466.249767 
L 381.605419 468.118704 
L 382.919191 471.823918 
L 384.232962 467.319078 
L 386.860506 467.68171 
L 388.174277 467.352388 
L 389.488049 467.718401 
L 390.801821 467.01488 
L 392.115592 470.635418 
L 393.429364 468.806707 
L 394.743136 469.504717 
L 396.056907 467.482999 
L 397.370679 470.934281 
L 398.684451 468.327685 
L 399.998223 470.004574 
L 401.311994 467.665374 
L 402.625766 467.902282 
L 403.939538 468.483213 
L 405.253309 470.670047 
L 406.567081 470.90468 
L 407.880853 466.393162 
L 409.194624 467.567396 
L 410.508396 465.508278 
L 411.822168 467.675806 
L 413.135939 470.629834 
L 414.449711 469.794074 
L 415.763483 468.779941 
L 417.077254 467.042377 
L 418.391026 467.44268 
L 419.704798 469.76594 
L 421.018569 468.37358 
L 422.332341 470.290361 
L 423.646113 468.765763 
L 424.959884 469.094995 
L 426.273656 466.985438 
L 427.587428 469.377916 
L 428.901199 467.801639 
L 430.214971 470.552492 
L 431.528743 468.382084 
L 432.842514 467.521974 
L 434.156286 467.212873 
L 435.470058 466.398904 
L 436.783829 466.792176 
L 438.097601 469.99047 
L 439.411373 470.002213 
L 440.725144 469.84553 
L 442.038916 470.478977 
L 443.352688 470.88541 
L 444.66646 469.112864 
L 445.980231 471.03801 
L 447.294003 469.412001 
L 448.607775 472.057679 
L 449.921546 469.014239 
L 451.235318 470.46438 
L 452.54909 469.181237 
L 453.862861 469.07273 
L 455.176633 467.816296 
L 456.490405 471.602122 
L 457.804176 468.981395 
L 459.117948 471.315054 
L 460.43172 470.986906 
L 461.745491 469.835287 
L 463.059263 470.821009 
L 464.373035 470.267432 
L 465.686806 471.842048 
L 467.000578 471.115529 
L 468.31435 469.206912 
L 470.941893 470.887218 
L 472.255665 468.213471 
L 473.569436 470.000452 
L 474.883208 470.109274 
L 476.19698 472.344463 
L 477.510751 469.307692 
L 478.824523 472.111501 
L 480.138295 469.751013 
L 481.452066 470.365395 
L 482.765838 469.538701 
L 484.07961 470.510041 
L 485.393381 469.873993 
L 486.707153 471.124826 
L 488.020925 468.709268 
L 489.334696 471.773161 
L 490.648468 470.014933 
L 491.96224 467.123495 
L 493.276012 471.452186 
L 494.589783 470.964645 
L 495.903555 468.854869 
L 497.217327 467.385189 
L 499.84487 469.915552 
L 501.158642 469.094712 
L 502.472413 467.209907 
L 503.786185 470.098594 
L 505.099957 470.172316 
L 506.413728 469.502958 
L 507.7275 468.273796 
L 509.041272 469.582709 
L 510.355043 464.898929 
L 511.668815 467.410075 
L 512.982587 466.004886 
L 514.296358 467.044351 
L 515.61013 469.965377 
L 516.923902 468.990496 
L 518.237673 469.816369 
L 519.551445 465.206758 
L 520.865217 466.653033 
L 522.178988 466.320966 
L 523.49276 467.338759 
L 524.806532 466.420664 
L 526.120303 467.688649 
L 527.434075 465.846538 
L 528.747847 466.428254 
L 530.061618 466.783247 
L 531.37539 474.175974 
L 532.689162 467.838509 
L 534.002933 464.675275 
L 535.316705 471.039685 
L 536.630477 468.925926 
L 537.944249 472.767843 
L 539.25802 468.379743 
L 540.571792 470.25522 
L 541.885564 469.916134 
L 543.199335 472.091569 
L 544.513107 468.504796 
L 545.826879 473.119023 
L 547.14065 471.645157 
L 548.454422 471.514744 
L 549.768194 466.029213 
L 551.081965 471.300786 
L 552.395737 472.584315 
L 553.709509 469.576169 
L 555.02328 473.880427 
L 556.337052 466.203007 
L 557.650824 476.745 
L 558.964595 472.010497 
L 560.278367 471.876852 
L 561.592139 475.069099 
L 562.90591 473.348077 
L 564.219682 475.020918 
L 568.160997 474.96043 
L 569.474769 473.130714 
L 570.78854 476.745 
L 572.102312 476.745 
L 573.416084 472.91484 
L 574.729855 466.714853 
L 576.043627 474.696676 
L 577.357399 476.745 
L 579.984942 472.498846 
L 581.298714 476.745 
L 583.926257 472.166678 
L 585.240029 472.078718 
L 586.553801 476.745 
L 587.867572 471.634427 
L 589.181344 476.745 
L 590.495116 468.751144 
L 591.808887 473.932261 
L 593.122659 476.745 
L 594.436431 470.462944 
L 595.750202 470.248711 
L 597.063974 476.745 
L 598.377746 473.358733 
L 599.691517 473.242765 
L 601.005289 476.745 
L 602.319061 468.903838 
L 603.632832 476.745 
L 604.946604 472.263819 
L 606.260376 472.205187 
L 607.574147 476.745 
L 608.887919 476.745 
L 610.201691 471.724225 
L 611.515462 476.745 
L 612.829234 476.745 
L 614.143006 471.775588 
L 615.456777 476.745 
L 616.770549 471.046935 
L 618.084321 476.745 
L 619.398092 464.817192 
L 620.711864 464.305563 
L 622.025636 476.745 
L 623.339407 469.965377 
L 624.653179 476.745 
L 628.594494 476.745 
L 629.908266 455.439737 
L 631.222038 476.745 
L 632.535809 476.745 
L 635.163353 461.752407 
L 636.477124 461.517414 
L 637.790896 476.745 
L 641.732211 476.745 
L 643.045983 468.755526 
L 644.359754 468.662471 
L 645.673526 476.745 
L 657.497471 476.745 
L 658.811243 468.833599 
L 660.125014 476.745 
L 662.752558 476.745 
L 664.066329 469.951154 
L 665.380101 476.745 
L 675.890275 476.745 
L 677.204046 467.741108 
L 678.517818 476.745 
L 679.83159 473.107711 
L 681.145361 476.745 
L 682.459133 473.519502 
L 683.772905 476.745 
L 689.027991 476.745 
L 690.341763 474.777962 
L 691.655535 476.745 
L 692.969306 476.745 
L 694.283078 475.202905 
L 695.59685 475.202905 
L 696.910621 476.745 
L 699.538165 476.745 
L 700.851936 475.67031 
L 702.165708 476.745 
L 703.47948 475.78925 
L 706.107023 475.841092 
L 707.420795 476.745 
L 710.048338 475.286699 
L 711.36211 476.053281 
L 712.675881 475.44661 
L 712.675881 475.44661 
" style="fill:none;stroke:#d4351c;stroke-linecap:square;stroke-width:2;"/>
   </g>
   <g id="patch_3">
    <path d="M 53.1625 476.745 
L 53.1625 33.225 
" style="fill:none;stroke:#000000;stroke-linecap:square;stroke-linejoin:miter;stroke-width:0.8;"/>
   </g>
   <g id="patch_4">
    <path d="M 53.1625 476.745 
L 722.7625 476.745 
" style="fill:none;stroke:#000000;stroke-linecap:square;stroke-linejoin:miter;stroke-width:0.8;"/>
   </g>
   <g id="text_17">
    <!-- Mortality of COVID-19 in UK nations -->
    <g transform="translate(283.064688 27.225)scale(0.12 -0.12)">
     <defs>
      <path d="M 405 4655 
L 1618 4655 
L 2900 1527 
L 2955 1527 
L 4236 4655 
L 5450 4655 
L 5450 0 
L 4496 0 
L 4496 3030 
L 4457 3030 
L 3252 23 
L 2602 23 
L 1398 3041 
L 1359 3041 
L 1359 0 
L 405 0 
L 405 4655 
z
" id="Inter-Bold-4d" transform="scale(0.015625)"/>
      <path d="M 1964 -68 
Q 1434 -68 1049 158 
Q 664 384 455 789 
Q 246 1195 246 1732 
Q 246 2273 455 2678 
Q 664 3084 1049 3310 
Q 1434 3536 1964 3536 
Q 2493 3536 2878 3310 
Q 3264 3084 3473 2678 
Q 3682 2273 3682 1732 
Q 3682 1195 3473 789 
Q 3264 384 2878 158 
Q 2493 -68 1964 -68 
z
M 1968 682 
Q 2327 682 2512 982 
Q 2698 1282 2698 1739 
Q 2698 2195 2512 2496 
Q 2327 2798 1968 2798 
Q 1602 2798 1416 2496 
Q 1230 2195 1230 1739 
Q 1230 1282 1416 982 
Q 1602 682 1968 682 
z
" id="Inter-Bold-6f" transform="scale(0.015625)"/>
      <path d="M 386 0 
L 386 3491 
L 1325 3491 
L 1325 2882 
L 1361 2882 
Q 1457 3207 1681 3374 
Q 1905 3541 2200 3541 
Q 2341 3541 2461 3507 
Q 2582 3473 2677 3414 
L 2386 2614 
Q 2318 2648 2237 2671 
Q 2157 2695 2057 2695 
Q 1764 2695 1560 2495 
Q 1357 2295 1355 1975 
L 1355 0 
L 386 0 
z
" id="Inter-Bold-72" transform="scale(0.015625)"/>
      <path d="M 2243 3491 
L 2243 2764 
L 1586 2764 
L 1586 1073 
Q 1586 873 1677 802 
Q 1768 732 1914 732 
Q 1982 732 2050 744 
Q 2118 757 2155 764 
L 2307 43 
Q 2234 20 2102 -10 
Q 1971 -41 1782 -48 
Q 1255 -70 935 181 
Q 616 432 618 945 
L 618 2764 
L 141 2764 
L 141 3491 
L 618 3491 
L 618 4327 
L 1586 4327 
L 1586 3491 
L 2243 3491 
z
" id="Inter-Bold-74" transform="scale(0.015625)"/>
      <path d="M 1382 -66 
Q 882 -66 552 195 
Q 223 457 223 975 
Q 223 1366 407 1588 
Q 591 1811 890 1914 
Q 1189 2018 1534 2050 
Q 1989 2095 2184 2145 
Q 2380 2195 2380 2364 
L 2380 2377 
Q 2380 2593 2244 2711 
Q 2109 2830 1861 2830 
Q 1600 2830 1445 2716 
Q 1291 2602 1241 2427 
L 346 2500 
Q 446 2977 842 3256 
Q 1239 3536 1866 3536 
Q 2255 3536 2593 3413 
Q 2932 3291 3140 3030 
Q 3348 2770 3348 2355 
L 3348 0 
L 2430 0 
L 2430 484 
L 2402 484 
Q 2275 241 2021 87 
Q 1768 -66 1382 -66 
z
M 1659 602 
Q 1977 602 2181 787 
Q 2386 973 2386 1248 
L 2386 1618 
Q 2330 1580 2210 1550 
Q 2091 1520 1956 1498 
Q 1821 1477 1714 1461 
Q 1459 1425 1303 1318 
Q 1148 1211 1148 1007 
Q 1148 807 1292 704 
Q 1436 602 1659 602 
z
" id="Inter-Bold-61" transform="scale(0.015625)"/>
      <path d="M 1355 4655 
L 1355 0 
L 386 0 
L 386 4655 
L 1355 4655 
z
" id="Inter-Bold-6c" transform="scale(0.015625)"/>
      <path d="M 386 0 
L 386 3491 
L 1355 3491 
L 1355 0 
L 386 0 
z
M 876 3941 
Q 662 3941 507 4085 
Q 353 4230 353 4432 
Q 353 4634 507 4777 
Q 662 4920 876 4920 
Q 1092 4920 1246 4777 
Q 1401 4634 1401 4432 
Q 1401 4230 1246 4085 
Q 1092 3941 876 3941 
z
" id="Inter-Bold-69" transform="scale(0.015625)"/>
      <path d="M 950 -1359 
Q 743 -1359 596 -1324 
Q 450 -1289 368 -1252 
L 586 -502 
Q 843 -580 1019 -543 
Q 1196 -507 1298 -268 
L 1361 -100 
L 109 3491 
L 1127 3491 
L 1850 927 
L 1886 927 
L 2616 3491 
L 3641 3491 
L 2277 -400 
Q 2130 -818 1806 -1088 
Q 1482 -1359 950 -1359 
z
" id="Inter-Bold-79" transform="scale(0.015625)"/>
      <path id="Inter-Bold-20" transform="scale(0.015625)"/>
      <path d="M 2296 3491 
L 2296 2764 
L 1602 2764 
L 1602 0 
L 634 0 
L 634 2764 
L 141 2764 
L 141 3491 
L 634 3491 
L 634 3743 
Q 634 4314 960 4593 
Q 1286 4873 1780 4873 
Q 2002 4873 2187 4839 
Q 2373 4805 2464 4777 
L 2293 4050 
Q 2236 4068 2152 4084 
Q 2068 4100 1982 4100 
Q 1768 4100 1685 4001 
Q 1602 3902 1602 3725 
L 1602 3491 
L 2296 3491 
z
" id="Inter-Bold-66" transform="scale(0.015625)"/>
      <path d="M 4511 3025 
L 3516 3025 
Q 3459 3409 3188 3628 
Q 2918 3848 2514 3848 
Q 1973 3848 1647 3451 
Q 1321 3055 1321 2327 
Q 1321 1582 1649 1194 
Q 1977 807 2507 807 
Q 2900 807 3173 1012 
Q 3446 1218 3516 1591 
L 4511 1586 
Q 4459 1159 4207 782 
Q 3955 405 3522 170 
Q 3089 -64 2491 -64 
Q 1868 -64 1378 218 
Q 889 500 606 1034 
Q 323 1568 323 2327 
Q 323 3089 609 3623 
Q 896 4157 1386 4437 
Q 1877 4718 2491 4718 
Q 3030 4718 3463 4519 
Q 3896 4320 4172 3942 
Q 4448 3564 4511 3025 
z
" id="Inter-Bold-43" transform="scale(0.015625)"/>
      <path d="M 4682 2327 
Q 4682 1566 4394 1032 
Q 4107 498 3614 217 
Q 3121 -64 2502 -64 
Q 1882 -64 1389 218 
Q 896 500 609 1035 
Q 323 1570 323 2327 
Q 323 3089 609 3623 
Q 896 4157 1389 4437 
Q 1882 4718 2502 4718 
Q 3121 4718 3614 4437 
Q 4107 4157 4394 3623 
Q 4682 3089 4682 2327 
z
M 3684 2327 
Q 3684 3068 3361 3458 
Q 3039 3848 2502 3848 
Q 1966 3848 1643 3458 
Q 1321 3068 1321 2327 
Q 1321 1589 1643 1198 
Q 1966 807 2502 807 
Q 3039 807 3361 1198 
Q 3684 1589 3684 2327 
z
" id="Inter-Bold-4f" transform="scale(0.015625)"/>
      <path d="M 1246 4655 
L 2371 1118 
L 2414 1118 
L 3541 4655 
L 4632 4655 
L 3027 0 
L 1759 0 
L 152 4655 
L 1246 4655 
z
" id="Inter-Bold-56" transform="scale(0.015625)"/>
      <path d="M 1389 4655 
L 1389 0 
L 405 0 
L 405 4655 
L 1389 4655 
z
" id="Inter-Bold-49" transform="scale(0.015625)"/>
      <path d="M 2055 0 
L 405 0 
L 405 4655 
L 2068 4655 
Q 2771 4655 3278 4376 
Q 3786 4098 4059 3577 
Q 4332 3057 4332 2332 
Q 4332 1605 4058 1082 
Q 3784 559 3274 279 
Q 2764 0 2055 0 
z
M 1389 843 
L 2014 843 
Q 2671 843 3010 1197 
Q 3350 1552 3350 2332 
Q 3350 3107 3010 3459 
Q 2671 3811 2016 3811 
L 1389 3811 
L 1389 843 
z
" id="Inter-Bold-44" transform="scale(0.015625)"/>
      <path d="M 2561 2295 
L 2561 1527 
L 439 1527 
L 439 2295 
L 2561 2295 
z
" id="Inter-Bold-2d" transform="scale(0.015625)"/>
      <path d="M 2305 4655 
L 2305 0 
L 1323 0 
L 1323 3450 
L 1280 3450 
Q 1205 3334 961 3219 
Q 718 3105 332 3105 
L 332 3886 
Q 632 3886 857 4019 
Q 1082 4152 1209 4333 
Q 1336 4514 1341 4655 
L 2305 4655 
z
" id="Inter-Bold-31" transform="scale(0.015625)"/>
      <path d="M 2061 4732 
Q 2421 4732 2753 4612 
Q 3086 4493 3348 4227 
Q 3611 3961 3766 3523 
Q 3921 3086 3921 2448 
Q 3921 1659 3686 1096 
Q 3452 534 3028 235 
Q 2605 -64 2027 -64 
Q 1561 -64 1204 117 
Q 848 298 631 610 
Q 414 923 368 1314 
L 1339 1314 
Q 1396 1059 1577 919 
Q 1759 780 2027 780 
Q 2482 780 2718 1176 
Q 2955 1573 2957 2264 
L 2925 2264 
Q 2771 1957 2453 1782 
Q 2136 1607 1752 1607 
Q 1341 1607 1016 1801 
Q 691 1995 506 2334 
Q 321 2673 323 3109 
Q 321 3582 539 3949 
Q 757 4316 1149 4525 
Q 1541 4734 2061 4732 
z
M 2068 3959 
Q 1725 3959 1500 3722 
Q 1275 3486 1277 3136 
Q 1275 2791 1496 2555 
Q 1718 2320 2059 2320 
Q 2284 2320 2465 2431 
Q 2646 2543 2751 2729 
Q 2857 2916 2859 3141 
Q 2857 3366 2753 3551 
Q 2650 3736 2473 3847 
Q 2296 3959 2068 3959 
z
" id="Inter-Bold-39" transform="scale(0.015625)"/>
      <path d="M 1355 2018 
L 1355 0 
L 386 0 
L 386 3491 
L 1309 3491 
L 1309 2875 
L 1350 2875 
Q 1468 3180 1739 3358 
Q 2011 3536 2400 3536 
Q 2946 3536 3275 3185 
Q 3605 2834 3605 2223 
L 3605 0 
L 2636 0 
L 2636 2050 
Q 2639 2370 2473 2551 
Q 2307 2732 2016 2732 
Q 1723 2732 1540 2544 
Q 1357 2357 1355 2018 
z
" id="Inter-Bold-6e" transform="scale(0.015625)"/>
      <path d="M 3286 4655 
L 4264 4655 
L 4264 1577 
Q 4264 1050 4016 683 
Q 3768 316 3333 125 
Q 2898 -66 2334 -66 
Q 1771 -66 1334 125 
Q 898 316 651 683 
Q 405 1050 405 1577 
L 405 4655 
L 1389 4655 
L 1389 1611 
Q 1389 1239 1658 1025 
Q 1927 811 2334 811 
Q 2748 811 3017 1025 
Q 3286 1239 3286 1611 
L 3286 4655 
z
" id="Inter-Bold-55" transform="scale(0.015625)"/>
      <path d="M 405 0 
L 405 4655 
L 1389 4655 
L 1389 2602 
L 1450 2602 
L 3125 4655 
L 4305 4655 
L 2577 2570 
L 4325 0 
L 3148 0 
L 1873 1914 
L 1389 1323 
L 1389 0 
L 405 0 
z
" id="Inter-Bold-4b" transform="scale(0.015625)"/>
      <path d="M 3291 2495 
L 2405 2441 
Q 2368 2609 2220 2729 
Q 2073 2850 1821 2850 
Q 1596 2850 1440 2755 
Q 1284 2661 1286 2505 
Q 1284 2380 1385 2293 
Q 1486 2207 1730 2155 
L 2361 2027 
Q 3368 1820 3371 1082 
Q 3371 739 3169 479 
Q 2968 220 2618 76 
Q 2268 -68 1816 -68 
Q 1123 -68 711 221 
Q 300 511 232 1011 
L 1184 1061 
Q 1230 848 1394 739 
Q 1559 630 1818 630 
Q 2073 630 2228 730 
Q 2384 830 2386 984 
Q 2380 1243 1939 1332 
L 1334 1452 
Q 321 1655 325 2450 
Q 323 2955 728 3245 
Q 1134 3536 1805 3536 
Q 2466 3536 2846 3256 
Q 3227 2977 3291 2495 
z
" id="Inter-Bold-73" transform="scale(0.015625)"/>
     </defs>
     <use xlink:href="#Inter-Bold-4d"/>
     <use x="92.400589" xlink:href="#Inter-Bold-6f"/>
     <use x="153.764236" xlink:href="#Inter-Bold-72"/>
     <use x="196.626465" xlink:href="#Inter-Bold-74"/>
     <use x="235.475906" xlink:href="#Inter-Bold-61"/>
     <use x="293.50148" xlink:href="#Inter-Bold-6c"/>
     <use x="320.703186" xlink:href="#Inter-Bold-69"/>
     <use x="347.904892" xlink:href="#Inter-Bold-74"/>
     <use x="386.754333" xlink:href="#Inter-Bold-79"/>
     <use x="445.348099" xlink:href="#Inter-Bold-20"/>
     <use x="468.537018" xlink:href="#Inter-Bold-6f"/>
     <use x="529.900665" xlink:href="#Inter-Bold-66"/>
     <use x="568.963165" xlink:href="#Inter-Bold-20"/>
     <use x="592.152084" xlink:href="#Inter-Bold-43"/>
     <use x="667.365173" xlink:href="#Inter-Bold-4f"/>
     <use x="745.561218" xlink:href="#Inter-Bold-56"/>
     <use x="820.34816" xlink:href="#Inter-Bold-49"/>
     <use x="848.402145" xlink:href="#Inter-Bold-44"/>
     <use x="921.12944" xlink:href="#Inter-Bold-2d"/>
     <use x="968.004456" xlink:href="#Inter-Bold-31"/>
     <use x="1015.41214" xlink:href="#Inter-Bold-39"/>
     <use x="1081.42778" xlink:href="#Inter-Bold-20"/>
     <use x="1104.616699" xlink:href="#Inter-Bold-69"/>
     <use x="1131.818405" xlink:href="#Inter-Bold-6e"/>
     <use x="1193.99881" xlink:href="#Inter-Bold-20"/>
     <use x="1217.187729" xlink:href="#Inter-Bold-55"/>
     <use x="1290.128082" xlink:href="#Inter-Bold-4b"/>
     <use x="1359.091171" xlink:href="#Inter-Bold-20"/>
     <use x="1382.28009" xlink:href="#Inter-Bold-6e"/>
     <use x="1444.460495" xlink:href="#Inter-Bold-61"/>
     <use x="1502.486069" xlink:href="#Inter-Bold-74"/>
     <use x="1541.33551" xlink:href="#Inter-Bold-69"/>
     <use x="1568.537216" xlink:href="#Inter-Bold-6f"/>
     <use x="1629.900864" xlink:href="#Inter-Bold-6e"/>
     <use x="1692.081268" xlink:href="#Inter-Bold-73"/>
    </g>
   </g>
   <g id="legend_1">
    <g id="patch_5">
     <path d="M 606.189062 98.614063 
L 715.7625 98.614063 
Q 717.7625 98.614063 717.7625 96.614063 
L 717.7625 40.225 
Q 717.7625 38.225 715.7625 38.225 
L 606.189062 38.225 
Q 604.189062 38.225 604.189062 40.225 
L 604.189062 96.614063 
Q 604.189062 98.614063 606.189062 98.614063 
z
" style="fill:#ffffff;opacity:0.8;stroke:#cccccc;stroke-linejoin:miter;"/>
    </g>
    <g id="line2d_27">
     <path d="M 608.189062 45.998438 
L 628.189062 45.998438 
" style="fill:none;stroke:#003078;stroke-linecap:square;stroke-width:2;"/>
    </g>
    <g id="line2d_28"/>
    <g id="text_18">
     <!-- Scotland -->
     <g transform="translate(636.189062 49.498438)scale(0.1 -0.1)">
      <use xlink:href="#Inter-Regular-53"/>
      <use x="63.778427" xlink:href="#Inter-Regular-63"/>
      <use x="119.602295" xlink:href="#Inter-Regular-6f"/>
      <use x="179.261398" xlink:href="#Inter-Regular-74"/>
      <use x="215.625046" xlink:href="#Inter-Regular-6c"/>
      <use x="239.346634" xlink:href="#Inter-Regular-61"/>
      <use x="295.738693" xlink:href="#Inter-Regular-6e"/>
      <use x="354.261429" xlink:href="#Inter-Regular-64"/>
     </g>
    </g>
    <g id="line2d_29">
     <path d="M 608.189062 60.317188 
L 628.189062 60.317188 
" style="fill:none;stroke:#5694ca;stroke-linecap:square;stroke-width:2;"/>
    </g>
    <g id="line2d_30"/>
    <g id="text_19">
     <!-- England -->
     <g transform="translate(636.189062 63.817188)scale(0.1 -0.1)">
      <defs>
       <path d="M 564 0 
L 564 4655 
L 3373 4655 
L 3373 4155 
L 1127 4155 
L 1127 2582 
L 3227 2582 
L 3227 2082 
L 1127 2082 
L 1127 500 
L 3409 500 
L 3409 0 
L 564 0 
z
" id="Inter-Regular-45" transform="scale(0.015625)"/>
       <path d="M 1900 -1382 
Q 1316 -1382 976 -1169 
Q 636 -957 473 -682 
L 900 -382 
Q 973 -477 1084 -601 
Q 1196 -725 1390 -817 
Q 1584 -909 1900 -909 
Q 2323 -909 2598 -704 
Q 2873 -500 2873 -64 
L 2873 645 
L 2827 645 
Q 2768 550 2660 410 
Q 2552 270 2351 162 
Q 2150 55 1809 55 
Q 1386 55 1051 255 
Q 716 455 521 836 
Q 327 1218 327 1764 
Q 327 2300 516 2699 
Q 705 3098 1041 3317 
Q 1377 3536 1818 3536 
Q 2159 3536 2360 3423 
Q 2561 3311 2669 3169 
Q 2777 3027 2836 2936 
L 2891 2936 
L 2891 3491 
L 3409 3491 
L 3409 -100 
Q 3409 -550 3205 -833 
Q 3002 -1116 2660 -1249 
Q 2318 -1382 1900 -1382 
z
M 1882 536 
Q 2366 536 2624 864 
Q 2882 1193 2882 1773 
Q 2882 2339 2627 2697 
Q 2373 3055 1882 3055 
Q 1541 3055 1315 2882 
Q 1089 2709 976 2418 
Q 864 2127 864 1773 
Q 864 1227 1120 881 
Q 1377 536 1882 536 
z
" id="Inter-Regular-67" transform="scale(0.015625)"/>
      </defs>
      <use xlink:href="#Inter-Regular-45"/>
      <use x="59.801147" xlink:href="#Inter-Regular-6e"/>
      <use x="118.323883" xlink:href="#Inter-Regular-67"/>
      <use x="179.261398" xlink:href="#Inter-Regular-6c"/>
      <use x="202.982986" xlink:href="#Inter-Regular-61"/>
      <use x="259.375046" xlink:href="#Inter-Regular-6e"/>
      <use x="317.897781" xlink:href="#Inter-Regular-64"/>
     </g>
    </g>
    <g id="line2d_31">
     <path d="M 608.189062 74.75 
L 628.189062 74.75 
" style="fill:none;stroke:#ffdd00;stroke-linecap:square;stroke-width:2;"/>
    </g>
    <g id="line2d_32"/>
    <g id="text_20">
     <!-- Northern Ireland -->
     <g transform="translate(636.189062 78.25)scale(0.1 -0.1)">
      <defs>
       <path d="M 1127 4655 
L 1127 0 
L 564 0 
L 564 4655 
L 1127 4655 
z
" id="Inter-Regular-49" transform="scale(0.015625)"/>
      </defs>
      <use xlink:href="#Inter-Regular-4e"/>
      <use x="75.284103" xlink:href="#Inter-Regular-6f"/>
      <use x="134.943207" xlink:href="#Inter-Regular-72"/>
      <use x="173.295486" xlink:href="#Inter-Regular-74"/>
      <use x="209.659134" xlink:href="#Inter-Regular-68"/>
      <use x="268.750061" xlink:href="#Inter-Regular-65"/>
      <use x="326.988708" xlink:href="#Inter-Regular-72"/>
      <use x="365.340988" xlink:href="#Inter-Regular-6e"/>
      <use x="423.863724" xlink:href="#Inter-Regular-20"/>
      <use x="451.988724" xlink:href="#Inter-Regular-49"/>
      <use x="478.40918" xlink:href="#Inter-Regular-72"/>
      <use x="516.761459" xlink:href="#Inter-Regular-65"/>
      <use x="575.000107" xlink:href="#Inter-Regular-6c"/>
      <use x="598.721695" xlink:href="#Inter-Regular-61"/>
      <use x="655.113754" xlink:href="#Inter-Regular-6e"/>
      <use x="713.63649" xlink:href="#Inter-Regular-64"/>
     </g>
    </g>
    <g id="line2d_33">
     <path d="M 608.189062 89.06875 
L 628.189062 89.06875 
" style="fill:none;stroke:#d4351c;stroke-linecap:square;stroke-width:2;"/>
    </g>
    <g id="line2d_34"/>
    <g id="text_21">
     <!-- Wales -->
     <g transform="translate(636.189062 92.56875)scale(0.1 -0.1)">
      <defs>
       <path d="M 1409 0 
L 136 4655 
L 709 4655 
L 1682 864 
L 1727 864 
L 2718 4655 
L 3355 4655 
L 4346 864 
L 4391 864 
L 5364 4655 
L 5936 4655 
L 4664 0 
L 4082 0 
L 3055 3709 
L 3018 3709 
L 1991 0 
L 1409 0 
z
" id="Inter-Regular-57" transform="scale(0.015625)"/>
      </defs>
      <use xlink:href="#Inter-Regular-57"/>
      <use x="94.886383" xlink:href="#Inter-Regular-61"/>
      <use x="151.278442" xlink:href="#Inter-Regular-6c"/>
      <use x="175.000031" xlink:href="#Inter-Regular-65"/>
      <use x="233.238678" xlink:href="#Inter-Regular-73"/>
     </g>
    </g>
   </g>
  </g>
 </g>
 <defs>
  <clipPath id="p99248f4595">
   <rect height="443.52" width="669.6" x="53.1625" y="33.225"/>
  </clipPath>
 </defs>
</svg>
