<?xml version="1.0" encoding="utf-8" standalone="no"?>
<!DOCTYPE svg PUBLIC "-//W3C//DTD SVG 1.1//EN"
  "http://www.w3.org/Graphics/SVG/1.1/DTD/svg11.dtd">
<svg version="1.1" viewBox="0 0 782.30948 511.234062" xmlns="http://www.w3.org/2000/svg" xmlns:xlink="http://www.w3.org/1999/xlink">
 <metadata>
  <rdf:RDF xmlns:cc="http://creativecommons.org/ns#" xmlns:dc="http://purl.org/dc/elements/1.1/" xmlns:rdf="http://www.w3.org/1999/02/22-rdf-syntax-ns#">
   <cc:Work>
    <dc:type rdf:resource="http://purl.org/dc/dcmitype/StillImage"/>
    <dc:date>2021-09-02T16:18:10.476222</dc:date>
    <dc:format>image/svg+xml</dc:format>
    <dc:creator>
     <cc:Agent>
      <dc:title>Matplotlib v3.4.3, https://matplotlib.org/</dc:title>
     </cc:Agent>
    </dc:creator>
   </cc:Work>
  </rdf:RDF>
 </metadata>
 <defs>
  <style type="text/css">*{stroke-linecap:butt;stroke-linejoin:round;}</style>
 </defs>
 <g id="figure_1">
  <g id="patch_1">
   <path d="M 0 511.234062 
L 782.30948 511.234062 
L 782.30948 0 
L 0 0 
z
" style="fill:#ffffff;"/>
  </g>
  <g id="axes_1">
   <g id="patch_2">
    <path d="M 80.8625 476.745 
L 750.4625 476.745 
L 750.4625 33.225 
L 80.8625 33.225 
z
" style="fill:#ffffff;"/>
   </g>
   <g id="matplotlib.axis_1">
    <g id="xtick_1">
     <g id="line2d_1">
      <defs>
       <path d="M 0 0 
L 0 3.5 
" id="m031b93269e" style="stroke:#000000;stroke-width:0.8;"/>
      </defs>
      <g>
       <use style="stroke:#000000;stroke-width:0.8;" x="80.8625" xlink:href="#m031b93269e" y="476.745"/>
      </g>
     </g>
     <g id="text_1">
      <!-- 01 Mar -->
      <g transform="translate(64.825781 491.018437)scale(0.1 -0.1)">
       <defs>
        <path d="M 2000 -64 
Q 1230 -64 806 561 
Q 382 1186 382 2327 
Q 382 3459 809 4088 
Q 1236 4718 2000 4718 
Q 2764 4718 3191 4088 
Q 3618 3459 3618 2327 
Q 3618 1186 3194 561 
Q 2771 -64 2000 -64 
z
M 2000 436 
Q 2509 436 2791 927 
Q 3073 1418 3073 2327 
Q 3073 3234 2789 3730 
Q 2505 4227 2000 4227 
Q 1496 4227 1211 3730 
Q 927 3234 927 2327 
Q 927 1418 1210 927 
Q 1493 436 2000 436 
z
" id="Inter-Regular-30" transform="scale(0.015625)"/>
        <path d="M 1973 4655 
L 1973 0 
L 1409 0 
L 1409 3836 
L 1373 3836 
Q 1341 3773 1209 3692 
Q 1077 3611 868 3551 
Q 659 3491 391 3491 
L 391 3964 
Q 661 3964 859 4061 
Q 1057 4159 1190 4291 
Q 1323 4423 1392 4529 
Q 1461 4636 1473 4655 
L 1973 4655 
z
" id="Inter-Regular-31" transform="scale(0.015625)"/>
        <path id="Inter-Regular-20" transform="scale(0.015625)"/>
        <path d="M 564 4655 
L 1236 4655 
L 2818 791 
L 2873 791 
L 4455 4655 
L 5127 4655 
L 5127 0 
L 4600 0 
L 4600 3536 
L 4555 3536 
L 3100 0 
L 2591 0 
L 1136 3536 
L 1091 3536 
L 1091 0 
L 564 0 
L 564 4655 
z
" id="Inter-Regular-4d" transform="scale(0.015625)"/>
        <path d="M 1518 -82 
Q 1186 -82 916 44 
Q 646 170 486 410 
Q 327 650 327 991 
Q 327 1291 445 1478 
Q 564 1666 761 1773 
Q 959 1880 1199 1933 
Q 1439 1986 1682 2018 
Q 2000 2059 2199 2080 
Q 2398 2102 2490 2154 
Q 2582 2207 2582 2336 
L 2582 2355 
Q 2582 2691 2399 2877 
Q 2216 3064 1846 3064 
Q 1461 3064 1243 2895 
Q 1025 2727 936 2536 
L 427 2718 
Q 564 3036 792 3214 
Q 1021 3393 1292 3464 
Q 1564 3536 1827 3536 
Q 1996 3536 2215 3496 
Q 2434 3457 2640 3334 
Q 2846 3211 2982 2963 
Q 3118 2716 3118 2300 
L 3118 0 
L 2582 0 
L 2582 473 
L 2555 473 
Q 2500 359 2373 229 
Q 2246 100 2034 9 
Q 1823 -82 1518 -82 
z
M 1600 400 
Q 1918 400 2137 525 
Q 2357 650 2469 847 
Q 2582 1045 2582 1264 
L 2582 1755 
Q 2548 1714 2433 1681 
Q 2318 1648 2169 1624 
Q 2021 1600 1881 1583 
Q 1741 1566 1655 1555 
Q 1446 1527 1265 1467 
Q 1084 1407 974 1287 
Q 864 1168 864 964 
Q 864 684 1072 542 
Q 1280 400 1600 400 
z
" id="Inter-Regular-61" transform="scale(0.015625)"/>
        <path d="M 491 0 
L 491 3491 
L 1009 3491 
L 1009 2964 
L 1046 2964 
Q 1139 3223 1389 3384 
Q 1639 3545 1955 3545 
Q 2100 3545 2209 3511 
Q 2318 3477 2400 3418 
L 2218 2964 
Q 2161 2993 2085 3010 
Q 2009 3027 1909 3027 
Q 1527 3027 1277 2794 
Q 1027 2561 1027 2209 
L 1027 0 
L 491 0 
z
" id="Inter-Regular-72" transform="scale(0.015625)"/>
       </defs>
       <use xlink:href="#Inter-Regular-30"/>
       <use x="62.500015" xlink:href="#Inter-Regular-31"/>
       <use x="106.676163" xlink:href="#Inter-Regular-20"/>
       <use x="134.801163" xlink:href="#Inter-Regular-4d"/>
       <use x="225.99437" xlink:href="#Inter-Regular-61"/>
       <use x="282.386429" xlink:href="#Inter-Regular-72"/>
      </g>
     </g>
    </g>
    <g id="xtick_2">
     <g id="line2d_2">
      <g>
       <use style="stroke:#000000;stroke-width:0.8;" x="118.557115" xlink:href="#m031b93269e" y="476.745"/>
      </g>
     </g>
    </g>
    <g id="xtick_3">
     <g id="line2d_3">
      <g>
       <use style="stroke:#000000;stroke-width:0.8;" x="155.035776" xlink:href="#m031b93269e" y="476.745"/>
      </g>
     </g>
     <g id="text_2">
      <!-- 01 May -->
      <g transform="translate(138.132651 491.116875)scale(0.1 -0.1)">
       <defs>
        <path d="M 818 -1355 
Q 682 -1355 575 -1333 
Q 468 -1311 427 -1291 
L 564 -818 
Q 857 -893 1053 -814 
Q 1250 -736 1391 -345 
L 1509 -18 
L 218 3491 
L 800 3491 
L 1764 709 
L 1800 709 
L 2764 3491 
L 3346 3491 
L 1846 -564 
Q 1550 -1355 818 -1355 
z
" id="Inter-Regular-79" transform="scale(0.015625)"/>
       </defs>
       <use xlink:href="#Inter-Regular-30"/>
       <use x="62.500015" xlink:href="#Inter-Regular-31"/>
       <use x="106.676163" xlink:href="#Inter-Regular-20"/>
       <use x="134.801163" xlink:href="#Inter-Regular-4d"/>
       <use x="225.99437" xlink:href="#Inter-Regular-61"/>
       <use x="282.386429" xlink:href="#Inter-Regular-79"/>
      </g>
     </g>
    </g>
    <g id="xtick_4">
     <g id="line2d_4">
      <g>
       <use style="stroke:#000000;stroke-width:0.8;" x="192.730391" xlink:href="#m031b93269e" y="476.745"/>
      </g>
     </g>
    </g>
    <g id="xtick_5">
     <g id="line2d_5">
      <g>
       <use style="stroke:#000000;stroke-width:0.8;" x="229.209051" xlink:href="#m031b93269e" y="476.745"/>
      </g>
     </g>
     <g id="text_3">
      <!-- 01 Jul -->
      <g transform="translate(215.665301 491.018437)scale(0.1 -0.1)">
       <defs>
        <path d="M 2346 4655 
L 2909 4655 
L 2909 1327 
Q 2909 657 2549 296 
Q 2189 -64 1582 -64 
Q 1200 -64 902 76 
Q 605 216 434 475 
Q 264 734 264 1091 
L 818 1091 
Q 818 795 1034 615 
Q 1250 436 1582 436 
Q 1948 436 2147 664 
Q 2346 893 2346 1327 
L 2346 4655 
z
" id="Inter-Regular-4a" transform="scale(0.015625)"/>
        <path d="M 2691 1427 
L 2691 3491 
L 3227 3491 
L 3227 0 
L 2691 0 
L 2691 591 
L 2655 591 
Q 2532 325 2273 140 
Q 2014 -45 1618 -45 
Q 1127 -45 809 280 
Q 491 605 491 1273 
L 491 3491 
L 1027 3491 
L 1027 1309 
Q 1027 927 1242 700 
Q 1457 473 1791 473 
Q 1991 473 2199 575 
Q 2407 677 2549 888 
Q 2691 1100 2691 1427 
z
" id="Inter-Regular-75" transform="scale(0.015625)"/>
        <path d="M 1027 4655 
L 1027 0 
L 491 0 
L 491 4655 
L 1027 4655 
z
" id="Inter-Regular-6c" transform="scale(0.015625)"/>
       </defs>
       <use xlink:href="#Inter-Regular-30"/>
       <use x="62.500015" xlink:href="#Inter-Regular-31"/>
       <use x="106.676163" xlink:href="#Inter-Regular-20"/>
       <use x="134.801163" xlink:href="#Inter-Regular-4a"/>
       <use x="189.062531" xlink:href="#Inter-Regular-75"/>
       <use x="247.159134" xlink:href="#Inter-Regular-6c"/>
      </g>
     </g>
    </g>
    <g id="xtick_6">
     <g id="line2d_6">
      <g>
       <use style="stroke:#000000;stroke-width:0.8;" x="266.903667" xlink:href="#m031b93269e" y="476.745"/>
      </g>
     </g>
    </g>
    <g id="xtick_7">
     <g id="line2d_7">
      <g>
       <use style="stroke:#000000;stroke-width:0.8;" x="304.598282" xlink:href="#m031b93269e" y="476.745"/>
      </g>
     </g>
     <g id="text_4">
      <!-- 01 Sep -->
      <g transform="translate(288.710782 491.116875)scale(0.1 -0.1)">
       <defs>
        <path d="M 3109 3491 
Q 3068 3836 2777 4027 
Q 2486 4218 2064 4218 
Q 1600 4218 1318 3999 
Q 1036 3780 1036 3445 
Q 1036 3195 1189 3042 
Q 1343 2889 1553 2803 
Q 1764 2718 1936 2673 
L 2409 2545 
Q 2591 2498 2815 2414 
Q 3039 2330 3244 2185 
Q 3450 2041 3584 1816 
Q 3718 1591 3718 1264 
Q 3718 886 3521 581 
Q 3325 277 2949 97 
Q 2573 -82 2036 -82 
Q 1286 -82 845 272 
Q 405 627 364 1200 
L 946 1200 
Q 968 936 1124 764 
Q 1280 593 1519 510 
Q 1759 427 2036 427 
Q 2359 427 2616 533 
Q 2873 639 3023 828 
Q 3173 1018 3173 1273 
Q 3173 1505 3043 1650 
Q 2914 1795 2702 1886 
Q 2491 1977 2246 2045 
L 1673 2209 
Q 1127 2366 809 2657 
Q 491 2948 491 3418 
Q 491 3809 703 4101 
Q 916 4393 1276 4555 
Q 1636 4718 2082 4718 
Q 2532 4718 2882 4558 
Q 3232 4398 3437 4120 
Q 3643 3843 3655 3491 
L 3109 3491 
z
" id="Inter-Regular-53" transform="scale(0.015625)"/>
        <path d="M 1955 -73 
Q 1450 -73 1085 151 
Q 721 375 524 778 
Q 327 1182 327 1718 
Q 327 2255 524 2665 
Q 721 3075 1074 3305 
Q 1427 3536 1900 3536 
Q 2173 3536 2439 3445 
Q 2705 3355 2923 3151 
Q 3141 2948 3270 2614 
Q 3400 2280 3400 1791 
L 3400 1564 
L 866 1564 
Q 884 1005 1183 707 
Q 1482 409 1955 409 
Q 2271 409 2498 545 
Q 2725 682 2827 955 
L 3346 809 
Q 3223 414 2854 170 
Q 2486 -73 1955 -73 
z
M 866 2027 
L 2855 2027 
Q 2855 2470 2595 2762 
Q 2336 3055 1900 3055 
Q 1593 3055 1368 2911 
Q 1143 2768 1013 2533 
Q 884 2298 866 2027 
z
" id="Inter-Regular-65" transform="scale(0.015625)"/>
        <path d="M 491 -1309 
L 491 3491 
L 1009 3491 
L 1009 2936 
L 1073 2936 
Q 1132 3027 1237 3169 
Q 1343 3311 1542 3423 
Q 1741 3536 2082 3536 
Q 2523 3536 2859 3315 
Q 3196 3095 3384 2690 
Q 3573 2286 3573 1736 
Q 3573 1182 3384 776 
Q 3196 370 2861 148 
Q 2527 -73 2091 -73 
Q 1755 -73 1552 39 
Q 1350 152 1241 296 
Q 1132 441 1073 536 
L 1027 536 
L 1027 -1309 
L 491 -1309 
z
M 1018 1745 
Q 1018 1152 1276 780 
Q 1534 409 2018 409 
Q 2355 409 2581 587 
Q 2807 766 2921 1069 
Q 3036 1373 3036 1745 
Q 3036 2114 2923 2410 
Q 2811 2707 2585 2881 
Q 2359 3055 2018 3055 
Q 1527 3055 1272 2693 
Q 1018 2332 1018 1745 
z
" id="Inter-Regular-70" transform="scale(0.015625)"/>
       </defs>
       <use xlink:href="#Inter-Regular-30"/>
       <use x="62.500015" xlink:href="#Inter-Regular-31"/>
       <use x="106.676163" xlink:href="#Inter-Regular-20"/>
       <use x="134.801163" xlink:href="#Inter-Regular-53"/>
       <use x="198.57959" xlink:href="#Inter-Regular-65"/>
       <use x="256.818237" xlink:href="#Inter-Regular-70"/>
      </g>
     </g>
    </g>
    <g id="xtick_8">
     <g id="line2d_8">
      <g>
       <use style="stroke:#000000;stroke-width:0.8;" x="341.076942" xlink:href="#m031b93269e" y="476.745"/>
      </g>
     </g>
    </g>
    <g id="xtick_9">
     <g id="line2d_9">
      <g>
       <use style="stroke:#000000;stroke-width:0.8;" x="378.771558" xlink:href="#m031b93269e" y="476.745"/>
      </g>
     </g>
     <g id="text_5">
      <!-- 01 Nov -->
      <g transform="translate(362.500464 491.018437)scale(0.1 -0.1)">
       <defs>
        <path d="M 4255 4655 
L 4255 0 
L 3709 0 
L 1173 3655 
L 1127 3655 
L 1127 0 
L 564 0 
L 564 4655 
L 1109 4655 
L 3655 991 
L 3700 991 
L 3700 4655 
L 4255 4655 
z
" id="Inter-Regular-4e" transform="scale(0.015625)"/>
        <path d="M 1909 -73 
Q 1436 -73 1080 152 
Q 725 377 526 781 
Q 327 1186 327 1727 
Q 327 2273 526 2679 
Q 725 3086 1080 3311 
Q 1436 3536 1909 3536 
Q 2382 3536 2737 3311 
Q 3093 3086 3292 2679 
Q 3491 2273 3491 1727 
Q 3491 1186 3292 781 
Q 3093 377 2737 152 
Q 2382 -73 1909 -73 
z
M 1909 409 
Q 2268 409 2500 593 
Q 2732 777 2843 1077 
Q 2955 1377 2955 1727 
Q 2955 2077 2843 2379 
Q 2732 2682 2500 2868 
Q 2268 3055 1909 3055 
Q 1550 3055 1318 2868 
Q 1086 2682 975 2379 
Q 864 2077 864 1727 
Q 864 1377 975 1077 
Q 1086 777 1318 593 
Q 1550 409 1909 409 
z
" id="Inter-Regular-6f" transform="scale(0.015625)"/>
        <path d="M 3346 3491 
L 2055 0 
L 1509 0 
L 218 3491 
L 800 3491 
L 1764 709 
L 1800 709 
L 2764 3491 
L 3346 3491 
z
" id="Inter-Regular-76" transform="scale(0.015625)"/>
       </defs>
       <use xlink:href="#Inter-Regular-30"/>
       <use x="62.500015" xlink:href="#Inter-Regular-31"/>
       <use x="106.676163" xlink:href="#Inter-Regular-20"/>
       <use x="134.801163" xlink:href="#Inter-Regular-4e"/>
       <use x="210.085266" xlink:href="#Inter-Regular-6f"/>
       <use x="269.74437" xlink:href="#Inter-Regular-76"/>
      </g>
     </g>
    </g>
    <g id="xtick_10">
     <g id="line2d_10">
      <g>
       <use style="stroke:#000000;stroke-width:0.8;" x="415.250218" xlink:href="#m031b93269e" y="476.745"/>
      </g>
     </g>
    </g>
    <g id="xtick_11">
     <g id="line2d_11">
      <g>
       <use style="stroke:#000000;stroke-width:0.8;" x="452.944833" xlink:href="#m031b93269e" y="476.745"/>
      </g>
     </g>
     <g id="text_6">
      <!-- 01 Jan -->
      <g transform="translate(437.745614 491.018437)scale(0.1 -0.1)">
       <defs>
        <path d="M 1027 2100 
L 1027 0 
L 491 0 
L 491 3491 
L 1009 3491 
L 1009 2945 
L 1055 2945 
Q 1177 3211 1427 3373 
Q 1677 3536 2073 3536 
Q 2602 3536 2928 3211 
Q 3255 2886 3255 2218 
L 3255 0 
L 2718 0 
L 2718 2182 
Q 2718 2593 2504 2824 
Q 2291 3055 1918 3055 
Q 1534 3055 1280 2806 
Q 1027 2557 1027 2100 
z
" id="Inter-Regular-6e" transform="scale(0.015625)"/>
       </defs>
       <use xlink:href="#Inter-Regular-30"/>
       <use x="62.500015" xlink:href="#Inter-Regular-31"/>
       <use x="106.676163" xlink:href="#Inter-Regular-20"/>
       <use x="134.801163" xlink:href="#Inter-Regular-4a"/>
       <use x="189.062531" xlink:href="#Inter-Regular-61"/>
       <use x="245.45459" xlink:href="#Inter-Regular-6e"/>
      </g>
     </g>
    </g>
    <g id="xtick_12">
     <g id="line2d_12">
      <g>
       <use style="stroke:#000000;stroke-width:0.8;" x="490.639449" xlink:href="#m031b93269e" y="476.745"/>
      </g>
     </g>
    </g>
    <g id="xtick_13">
     <g id="line2d_13">
      <g>
       <use style="stroke:#000000;stroke-width:0.8;" x="524.686198" xlink:href="#m031b93269e" y="476.745"/>
      </g>
     </g>
     <g id="text_7">
      <!-- 01 Mar -->
      <g transform="translate(508.649479 491.018437)scale(0.1 -0.1)">
       <use xlink:href="#Inter-Regular-30"/>
       <use x="62.500015" xlink:href="#Inter-Regular-31"/>
       <use x="106.676163" xlink:href="#Inter-Regular-20"/>
       <use x="134.801163" xlink:href="#Inter-Regular-4d"/>
       <use x="225.99437" xlink:href="#Inter-Regular-61"/>
       <use x="282.386429" xlink:href="#Inter-Regular-72"/>
      </g>
     </g>
    </g>
    <g id="xtick_14">
     <g id="line2d_14">
      <g>
       <use style="stroke:#000000;stroke-width:0.8;" x="562.380813" xlink:href="#m031b93269e" y="476.745"/>
      </g>
     </g>
    </g>
    <g id="xtick_15">
     <g id="line2d_15">
      <g>
       <use style="stroke:#000000;stroke-width:0.8;" x="598.859473" xlink:href="#m031b93269e" y="476.745"/>
      </g>
     </g>
     <g id="text_8">
      <!-- 01 May -->
      <g transform="translate(581.956348 491.116875)scale(0.1 -0.1)">
       <use xlink:href="#Inter-Regular-30"/>
       <use x="62.500015" xlink:href="#Inter-Regular-31"/>
       <use x="106.676163" xlink:href="#Inter-Regular-20"/>
       <use x="134.801163" xlink:href="#Inter-Regular-4d"/>
       <use x="225.99437" xlink:href="#Inter-Regular-61"/>
       <use x="282.386429" xlink:href="#Inter-Regular-79"/>
      </g>
     </g>
    </g>
    <g id="xtick_16">
     <g id="line2d_16">
      <g>
       <use style="stroke:#000000;stroke-width:0.8;" x="636.554089" xlink:href="#m031b93269e" y="476.745"/>
      </g>
     </g>
    </g>
    <g id="xtick_17">
     <g id="line2d_17">
      <g>
       <use style="stroke:#000000;stroke-width:0.8;" x="673.032749" xlink:href="#m031b93269e" y="476.745"/>
      </g>
     </g>
     <g id="text_9">
      <!-- 01 Jul -->
      <g transform="translate(659.488999 491.018437)scale(0.1 -0.1)">
       <use xlink:href="#Inter-Regular-30"/>
       <use x="62.500015" xlink:href="#Inter-Regular-31"/>
       <use x="106.676163" xlink:href="#Inter-Regular-20"/>
       <use x="134.801163" xlink:href="#Inter-Regular-4a"/>
       <use x="189.062531" xlink:href="#Inter-Regular-75"/>
       <use x="247.159134" xlink:href="#Inter-Regular-6c"/>
      </g>
     </g>
    </g>
    <g id="xtick_18">
     <g id="line2d_18">
      <g>
       <use style="stroke:#000000;stroke-width:0.8;" x="710.727364" xlink:href="#m031b93269e" y="476.745"/>
      </g>
     </g>
    </g>
    <g id="xtick_19">
     <g id="line2d_19">
      <g>
       <use style="stroke:#000000;stroke-width:0.8;" x="748.42198" xlink:href="#m031b93269e" y="476.745"/>
      </g>
     </g>
     <g id="text_10">
      <!-- 01 Sep -->
      <g transform="translate(732.53448 491.116875)scale(0.1 -0.1)">
       <use xlink:href="#Inter-Regular-30"/>
       <use x="62.500015" xlink:href="#Inter-Regular-31"/>
       <use x="106.676163" xlink:href="#Inter-Regular-20"/>
       <use x="134.801163" xlink:href="#Inter-Regular-53"/>
       <use x="198.57959" xlink:href="#Inter-Regular-65"/>
       <use x="256.818237" xlink:href="#Inter-Regular-70"/>
      </g>
     </g>
    </g>
   </g>
   <g id="matplotlib.axis_2">
    <g id="ytick_1">
     <g id="line2d_20">
      <path clip-path="url(#pe6ae14dc43)" d="M 80.8625 476.745 
L 750.4625 476.745 
" style="fill:none;stroke:#e5e5e5;stroke-linecap:square;stroke-width:0.8;"/>
     </g>
     <g id="line2d_21">
      <defs>
       <path d="M 0 0 
L -3.5 0 
" id="me9be3e058c" style="stroke:#000000;stroke-width:0.8;"/>
      </defs>
      <g>
       <use style="stroke:#000000;stroke-width:0.8;" x="80.8625" xlink:href="#me9be3e058c" y="476.745"/>
      </g>
     </g>
     <g id="text_11">
      <!-- 0.0000% -->
      <g transform="translate(31.73125 480.381719)scale(0.1 -0.1)">
       <defs>
        <path d="M 882 -36 
Q 714 -36 593 84 
Q 473 205 473 373 
Q 473 541 593 661 
Q 714 782 882 782 
Q 1050 782 1170 661 
Q 1291 541 1291 373 
Q 1291 205 1170 84 
Q 1050 -36 882 -36 
z
" id="Inter-Regular-2e" transform="scale(0.015625)"/>
        <path d="M 2855 873 
L 2855 1118 
Q 2855 1373 2960 1585 
Q 3066 1798 3269 1926 
Q 3473 2055 3764 2055 
Q 4059 2055 4259 1926 
Q 4459 1798 4561 1585 
Q 4664 1373 4664 1118 
L 4664 873 
Q 4664 618 4560 405 
Q 4457 193 4256 64 
Q 4055 -64 3764 -64 
Q 3468 -64 3266 64 
Q 3064 193 2959 405 
Q 2855 618 2855 873 
z
M 536 3536 
L 536 3782 
Q 536 4036 642 4248 
Q 748 4461 951 4589 
Q 1155 4718 1446 4718 
Q 1741 4718 1941 4589 
Q 2141 4461 2243 4248 
Q 2346 4036 2346 3782 
L 2346 3536 
Q 2346 3282 2242 3069 
Q 2139 2857 1937 2728 
Q 1736 2600 1446 2600 
Q 1150 2600 948 2728 
Q 746 2857 641 3069 
Q 536 3282 536 3536 
z
M 709 0 
L 3909 4655 
L 4427 4655 
L 1227 0 
L 709 0 
z
M 3318 1118 
L 3318 873 
Q 3318 661 3418 494 
Q 3518 327 3764 327 
Q 4002 327 4101 494 
Q 4200 661 4200 873 
L 4200 1118 
Q 4200 1330 4104 1497 
Q 4009 1664 3764 1664 
Q 3525 1664 3421 1497 
Q 3318 1330 3318 1118 
z
M 1000 3782 
L 1000 3536 
Q 1000 3325 1100 3158 
Q 1200 2991 1446 2991 
Q 1684 2991 1783 3158 
Q 1882 3325 1882 3536 
L 1882 3782 
Q 1882 3993 1786 4160 
Q 1691 4327 1446 4327 
Q 1207 4327 1103 4160 
Q 1000 3993 1000 3782 
z
" id="Inter-Regular-25" transform="scale(0.015625)"/>
       </defs>
       <use xlink:href="#Inter-Regular-30"/>
       <use x="62.500015" xlink:href="#Inter-Regular-2e"/>
       <use x="90.056839" xlink:href="#Inter-Regular-30"/>
       <use x="152.556854" xlink:href="#Inter-Regular-30"/>
       <use x="215.05687" xlink:href="#Inter-Regular-30"/>
       <use x="277.556885" xlink:href="#Inter-Regular-30"/>
       <use x="340.0569" xlink:href="#Inter-Regular-25"/>
      </g>
     </g>
    </g>
    <g id="ytick_2">
     <g id="line2d_22">
      <path clip-path="url(#pe6ae14dc43)" d="M 80.8625 381.183857 
L 750.4625 381.183857 
" style="fill:none;stroke:#e5e5e5;stroke-linecap:square;stroke-width:0.8;"/>
     </g>
     <g id="line2d_23">
      <g>
       <use style="stroke:#000000;stroke-width:0.8;" x="80.8625" xlink:href="#me9be3e058c" y="381.183857"/>
      </g>
     </g>
     <g id="text_12">
      <!-- 0.0005% -->
      <g transform="translate(31.901563 384.820576)scale(0.1 -0.1)">
       <defs>
        <path d="M 1936 -64 
Q 1536 -64 1216 95 
Q 896 255 702 532 
Q 509 809 491 1164 
L 1036 1164 
Q 1068 848 1324 642 
Q 1580 436 1936 436 
Q 2223 436 2447 570 
Q 2671 705 2799 940 
Q 2927 1175 2927 1473 
Q 2927 1777 2794 2017 
Q 2661 2257 2429 2395 
Q 2198 2534 1900 2536 
Q 1686 2539 1461 2472 
Q 1236 2405 1091 2300 
L 564 2364 
L 846 4655 
L 3264 4655 
L 3264 4155 
L 1318 4155 
L 1155 2782 
L 1182 2782 
Q 1325 2895 1541 2970 
Q 1757 3045 1991 3045 
Q 2418 3045 2753 2842 
Q 3089 2639 3281 2286 
Q 3473 1934 3473 1482 
Q 3473 1036 3274 687 
Q 3075 339 2727 137 
Q 2380 -64 1936 -64 
z
" id="Inter-Regular-35" transform="scale(0.015625)"/>
       </defs>
       <use xlink:href="#Inter-Regular-30"/>
       <use x="62.500015" xlink:href="#Inter-Regular-2e"/>
       <use x="90.056839" xlink:href="#Inter-Regular-30"/>
       <use x="152.556854" xlink:href="#Inter-Regular-30"/>
       <use x="215.05687" xlink:href="#Inter-Regular-30"/>
       <use x="277.556885" xlink:href="#Inter-Regular-35"/>
       <use x="338.352356" xlink:href="#Inter-Regular-25"/>
      </g>
     </g>
    </g>
    <g id="ytick_3">
     <g id="line2d_24">
      <path clip-path="url(#pe6ae14dc43)" d="M 80.8625 285.622714 
L 750.4625 285.622714 
" style="fill:none;stroke:#e5e5e5;stroke-linecap:square;stroke-width:0.8;"/>
     </g>
     <g id="line2d_25">
      <g>
       <use style="stroke:#000000;stroke-width:0.8;" x="80.8625" xlink:href="#me9be3e058c" y="285.622714"/>
      </g>
     </g>
     <g id="text_13">
      <!-- 0.0010% -->
      <g transform="translate(33.564063 289.259433)scale(0.1 -0.1)">
       <use xlink:href="#Inter-Regular-30"/>
       <use x="62.500015" xlink:href="#Inter-Regular-2e"/>
       <use x="90.056839" xlink:href="#Inter-Regular-30"/>
       <use x="152.556854" xlink:href="#Inter-Regular-30"/>
       <use x="215.05687" xlink:href="#Inter-Regular-31"/>
       <use x="259.233017" xlink:href="#Inter-Regular-30"/>
       <use x="321.733032" xlink:href="#Inter-Regular-25"/>
      </g>
     </g>
    </g>
    <g id="ytick_4">
     <g id="line2d_26">
      <path clip-path="url(#pe6ae14dc43)" d="M 80.8625 190.061572 
L 750.4625 190.061572 
" style="fill:none;stroke:#e5e5e5;stroke-linecap:square;stroke-width:0.8;"/>
     </g>
     <g id="line2d_27">
      <g>
       <use style="stroke:#000000;stroke-width:0.8;" x="80.8625" xlink:href="#me9be3e058c" y="190.061572"/>
      </g>
     </g>
     <g id="text_14">
      <!-- 0.0015% -->
      <g transform="translate(33.734375 193.69829)scale(0.1 -0.1)">
       <use xlink:href="#Inter-Regular-30"/>
       <use x="62.500015" xlink:href="#Inter-Regular-2e"/>
       <use x="90.056839" xlink:href="#Inter-Regular-30"/>
       <use x="152.556854" xlink:href="#Inter-Regular-30"/>
       <use x="215.05687" xlink:href="#Inter-Regular-31"/>
       <use x="259.233017" xlink:href="#Inter-Regular-35"/>
       <use x="320.028488" xlink:href="#Inter-Regular-25"/>
      </g>
     </g>
    </g>
    <g id="ytick_5">
     <g id="line2d_28">
      <path clip-path="url(#pe6ae14dc43)" d="M 80.8625 94.500429 
L 750.4625 94.500429 
" style="fill:none;stroke:#e5e5e5;stroke-linecap:square;stroke-width:0.8;"/>
     </g>
     <g id="line2d_29">
      <g>
       <use style="stroke:#000000;stroke-width:0.8;" x="80.8625" xlink:href="#me9be3e058c" y="94.500429"/>
      </g>
     </g>
     <g id="text_15">
      <!-- 0.0020% -->
      <g transform="translate(31.929688 98.137148)scale(0.1 -0.1)">
       <defs>
        <path d="M 482 0 
L 482 409 
L 2018 2091 
Q 2289 2386 2464 2605 
Q 2639 2825 2724 3019 
Q 2809 3214 2809 3427 
Q 2809 3795 2553 4011 
Q 2298 4227 1918 4227 
Q 1514 4227 1275 3985 
Q 1036 3743 1036 3345 
L 500 3345 
Q 500 3755 688 4064 
Q 877 4373 1203 4545 
Q 1530 4718 1936 4718 
Q 2346 4718 2661 4545 
Q 2977 4373 3156 4079 
Q 3336 3786 3336 3427 
Q 3336 3170 3244 2926 
Q 3152 2682 2926 2383 
Q 2700 2084 2300 1655 
L 1255 536 
L 1255 500 
L 3418 500 
L 3418 0 
L 482 0 
z
" id="Inter-Regular-32" transform="scale(0.015625)"/>
       </defs>
       <use xlink:href="#Inter-Regular-30"/>
       <use x="62.500015" xlink:href="#Inter-Regular-2e"/>
       <use x="90.056839" xlink:href="#Inter-Regular-30"/>
       <use x="152.556854" xlink:href="#Inter-Regular-30"/>
       <use x="215.05687" xlink:href="#Inter-Regular-32"/>
       <use x="275.568253" xlink:href="#Inter-Regular-30"/>
       <use x="338.068268" xlink:href="#Inter-Regular-25"/>
      </g>
     </g>
    </g>
    <g id="text_16">
     <!-- Percent of nation who have died within 28 days of a positive test -->
     <g transform="translate(25.614063 408.395937)rotate(-90)scale(0.1 -0.1)">
      <defs>
       <path d="M 564 0 
L 564 4655 
L 2136 4655 
Q 2684 4655 3033 4458 
Q 3382 4261 3550 3927 
Q 3718 3593 3718 3182 
Q 3718 2770 3551 2434 
Q 3384 2098 3036 1899 
Q 2689 1700 2146 1700 
L 1127 1700 
L 1127 0 
L 564 0 
z
M 1127 2200 
L 2127 2200 
Q 2689 2200 2926 2482 
Q 3164 2764 3164 3182 
Q 3164 3602 2925 3878 
Q 2686 4155 2118 4155 
L 1127 4155 
L 1127 2200 
z
" id="Inter-Regular-50" transform="scale(0.015625)"/>
       <path d="M 1909 -73 
Q 1418 -73 1063 159 
Q 709 391 518 798 
Q 327 1205 327 1727 
Q 327 2259 524 2667 
Q 721 3075 1074 3305 
Q 1427 3536 1900 3536 
Q 2268 3536 2563 3400 
Q 2859 3264 3047 3018 
Q 3236 2773 3282 2445 
L 2746 2445 
Q 2684 2684 2474 2869 
Q 2264 3055 1909 3055 
Q 1439 3055 1151 2697 
Q 864 2339 864 1745 
Q 864 1139 1148 774 
Q 1432 409 1909 409 
Q 2223 409 2447 570 
Q 2671 732 2746 1018 
L 3282 1018 
Q 3236 709 3058 462 
Q 2880 216 2588 71 
Q 2296 -73 1909 -73 
z
" id="Inter-Regular-63" transform="scale(0.015625)"/>
       <path d="M 2009 3491 
L 2009 3036 
L 1264 3036 
L 1264 1000 
Q 1264 773 1331 660 
Q 1398 548 1503 510 
Q 1609 473 1727 473 
Q 1816 473 1873 483 
Q 1930 493 1964 500 
L 2073 18 
Q 2018 -2 1920 -23 
Q 1823 -45 1673 -45 
Q 1446 -45 1228 52 
Q 1011 150 869 350 
Q 727 550 727 855 
L 727 3036 
L 200 3036 
L 200 3491 
L 727 3491 
L 727 4327 
L 1264 4327 
L 1264 3491 
L 2009 3491 
z
" id="Inter-Regular-74" transform="scale(0.015625)"/>
       <path d="M 2046 3491 
L 2046 3036 
L 1264 3036 
L 1264 0 
L 727 0 
L 727 3036 
L 164 3036 
L 164 3491 
L 727 3491 
L 727 3973 
Q 727 4273 868 4473 
Q 1009 4673 1234 4773 
Q 1459 4873 1709 4873 
Q 1907 4873 2032 4841 
Q 2157 4809 2218 4782 
L 2064 4318 
Q 2023 4332 1951 4352 
Q 1880 4373 1764 4373 
Q 1498 4373 1381 4239 
Q 1264 4105 1264 3845 
L 1264 3491 
L 2046 3491 
z
" id="Inter-Regular-66" transform="scale(0.015625)"/>
       <path d="M 491 0 
L 491 3491 
L 1027 3491 
L 1027 0 
L 491 0 
z
M 764 4073 
Q 607 4073 494 4179 
Q 382 4286 382 4436 
Q 382 4586 494 4693 
Q 607 4800 764 4800 
Q 921 4800 1033 4693 
Q 1146 4586 1146 4436 
Q 1146 4286 1033 4179 
Q 921 4073 764 4073 
z
" id="Inter-Regular-69" transform="scale(0.015625)"/>
       <path d="M 1282 0 
L 218 3491 
L 782 3491 
L 1536 818 
L 1573 818 
L 2318 3491 
L 2891 3491 
L 3627 827 
L 3664 827 
L 4418 3491 
L 4982 3491 
L 3918 0 
L 3391 0 
L 2627 2682 
L 2573 2682 
L 1809 0 
L 1282 0 
z
" id="Inter-Regular-77" transform="scale(0.015625)"/>
       <path d="M 1027 2100 
L 1027 0 
L 491 0 
L 491 4655 
L 1027 4655 
L 1027 2945 
L 1073 2945 
Q 1196 3216 1442 3376 
Q 1689 3536 2100 3536 
Q 2636 3536 2963 3213 
Q 3291 2891 3291 2218 
L 3291 0 
L 2755 0 
L 2755 2182 
Q 2755 2598 2540 2826 
Q 2325 3055 1946 3055 
Q 1548 3055 1287 2806 
Q 1027 2557 1027 2100 
z
" id="Inter-Regular-68" transform="scale(0.015625)"/>
       <path d="M 1809 -73 
Q 1373 -73 1039 148 
Q 705 370 516 776 
Q 327 1182 327 1736 
Q 327 2286 516 2690 
Q 705 3095 1041 3315 
Q 1377 3536 1818 3536 
Q 2159 3536 2358 3423 
Q 2557 3311 2662 3169 
Q 2768 3027 2827 2936 
L 2873 2936 
L 2873 4655 
L 3409 4655 
L 3409 0 
L 2891 0 
L 2891 536 
L 2827 536 
Q 2768 441 2659 296 
Q 2550 152 2348 39 
Q 2146 -73 1809 -73 
z
M 1882 409 
Q 2366 409 2624 780 
Q 2882 1152 2882 1745 
Q 2882 2332 2627 2693 
Q 2373 3055 1882 3055 
Q 1541 3055 1315 2881 
Q 1089 2707 976 2410 
Q 864 2114 864 1745 
Q 864 1373 978 1069 
Q 1093 766 1319 587 
Q 1546 409 1882 409 
z
" id="Inter-Regular-64" transform="scale(0.015625)"/>
       <path d="M 1973 -64 
Q 1505 -64 1147 103 
Q 789 270 589 564 
Q 389 859 391 1236 
Q 389 1532 507 1783 
Q 625 2034 830 2203 
Q 1036 2373 1291 2418 
L 1291 2445 
Q 957 2532 759 2821 
Q 561 3111 564 3482 
Q 561 3836 743 4115 
Q 925 4395 1244 4556 
Q 1564 4718 1973 4718 
Q 2377 4718 2695 4556 
Q 3014 4395 3197 4115 
Q 3380 3836 3382 3482 
Q 3380 3111 3181 2821 
Q 2982 2532 2655 2445 
L 2655 2418 
Q 2907 2373 3109 2203 
Q 3311 2034 3431 1783 
Q 3552 1532 3555 1236 
Q 3552 859 3351 564 
Q 3150 270 2794 103 
Q 2439 -64 1973 -64 
z
M 1973 436 
Q 2446 436 2722 662 
Q 2998 889 3000 1264 
Q 2998 1527 2864 1729 
Q 2730 1932 2499 2048 
Q 2268 2164 1973 2164 
Q 1675 2164 1442 2048 
Q 1209 1932 1076 1729 
Q 943 1527 946 1264 
Q 943 889 1218 662 
Q 1493 436 1973 436 
z
M 1973 2645 
Q 2348 2645 2591 2864 
Q 2834 3084 2836 3445 
Q 2834 3800 2596 4013 
Q 2359 4227 1973 4227 
Q 1582 4227 1344 4013 
Q 1107 3800 1109 3445 
Q 1107 3084 1349 2864 
Q 1591 2645 1973 2645 
z
" id="Inter-Regular-38" transform="scale(0.015625)"/>
       <path d="M 2964 2709 
L 2482 2573 
Q 2411 2755 2245 2914 
Q 2080 3073 1727 3073 
Q 1407 3073 1194 2926 
Q 982 2780 982 2555 
Q 982 2355 1127 2239 
Q 1273 2123 1582 2045 
L 2100 1918 
Q 3027 1691 3027 973 
Q 3027 673 2855 436 
Q 2684 200 2377 63 
Q 2071 -73 1664 -73 
Q 1130 -73 780 159 
Q 430 391 336 836 
L 846 964 
Q 989 400 1655 400 
Q 2030 400 2251 560 
Q 2473 720 2473 945 
Q 2473 1316 1955 1436 
L 1373 1573 
Q 893 1686 669 1926 
Q 446 2166 446 2527 
Q 446 2823 613 3050 
Q 780 3277 1069 3406 
Q 1359 3536 1727 3536 
Q 2246 3536 2542 3309 
Q 2839 3082 2964 2709 
z
" id="Inter-Regular-73" transform="scale(0.015625)"/>
      </defs>
      <use xlink:href="#Inter-Regular-50"/>
      <use x="63.494324" xlink:href="#Inter-Regular-65"/>
      <use x="121.732971" xlink:href="#Inter-Regular-72"/>
      <use x="160.085251" xlink:href="#Inter-Regular-63"/>
      <use x="215.909119" xlink:href="#Inter-Regular-65"/>
      <use x="274.147766" xlink:href="#Inter-Regular-6e"/>
      <use x="332.670502" xlink:href="#Inter-Regular-74"/>
      <use x="369.034149" xlink:href="#Inter-Regular-20"/>
      <use x="397.159149" xlink:href="#Inter-Regular-6f"/>
      <use x="456.818253" xlink:href="#Inter-Regular-66"/>
      <use x="492.897797" xlink:href="#Inter-Regular-20"/>
      <use x="521.022797" xlink:href="#Inter-Regular-6e"/>
      <use x="579.545532" xlink:href="#Inter-Regular-61"/>
      <use x="635.937592" xlink:href="#Inter-Regular-74"/>
      <use x="672.301239" xlink:href="#Inter-Regular-69"/>
      <use x="696.022827" xlink:href="#Inter-Regular-6f"/>
      <use x="755.681931" xlink:href="#Inter-Regular-6e"/>
      <use x="814.204666" xlink:href="#Inter-Regular-20"/>
      <use x="842.329666" xlink:href="#Inter-Regular-77"/>
      <use x="923.579681" xlink:href="#Inter-Regular-68"/>
      <use x="982.670609" xlink:href="#Inter-Regular-6f"/>
      <use x="1042.329712" xlink:href="#Inter-Regular-20"/>
      <use x="1070.454712" xlink:href="#Inter-Regular-68"/>
      <use x="1129.545639" xlink:href="#Inter-Regular-61"/>
      <use x="1185.937698" xlink:href="#Inter-Regular-76"/>
      <use x="1241.619522" xlink:href="#Inter-Regular-65"/>
      <use x="1299.85817" xlink:href="#Inter-Regular-20"/>
      <use x="1327.98317" xlink:href="#Inter-Regular-64"/>
      <use x="1390.057053" xlink:href="#Inter-Regular-69"/>
      <use x="1413.778641" xlink:href="#Inter-Regular-65"/>
      <use x="1472.017288" xlink:href="#Inter-Regular-64"/>
      <use x="1534.091171" xlink:href="#Inter-Regular-20"/>
      <use x="1562.216171" xlink:href="#Inter-Regular-77"/>
      <use x="1643.466187" xlink:href="#Inter-Regular-69"/>
      <use x="1667.187775" xlink:href="#Inter-Regular-74"/>
      <use x="1703.551422" xlink:href="#Inter-Regular-68"/>
      <use x="1762.642349" xlink:href="#Inter-Regular-69"/>
      <use x="1786.363937" xlink:href="#Inter-Regular-6e"/>
      <use x="1844.886673" xlink:href="#Inter-Regular-20"/>
      <use x="1873.011673" xlink:href="#Inter-Regular-32"/>
      <use x="1933.523056" xlink:href="#Inter-Regular-38"/>
      <use x="1995.170792" xlink:href="#Inter-Regular-20"/>
      <use x="2023.295792" xlink:href="#Inter-Regular-64"/>
      <use x="2085.369675" xlink:href="#Inter-Regular-61"/>
      <use x="2141.761734" xlink:href="#Inter-Regular-79"/>
      <use x="2197.443558" xlink:href="#Inter-Regular-73"/>
      <use x="2249.716293" xlink:href="#Inter-Regular-20"/>
      <use x="2277.841293" xlink:href="#Inter-Regular-6f"/>
      <use x="2337.500397" xlink:href="#Inter-Regular-66"/>
      <use x="2373.579941" xlink:href="#Inter-Regular-20"/>
      <use x="2401.704941" xlink:href="#Inter-Regular-61"/>
      <use x="2458.097" xlink:href="#Inter-Regular-20"/>
      <use x="2486.222" xlink:href="#Inter-Regular-70"/>
      <use x="2547.159515" xlink:href="#Inter-Regular-6f"/>
      <use x="2606.818619" xlink:href="#Inter-Regular-73"/>
      <use x="2659.091354" xlink:href="#Inter-Regular-69"/>
      <use x="2682.812943" xlink:href="#Inter-Regular-74"/>
      <use x="2719.17659" xlink:href="#Inter-Regular-69"/>
      <use x="2742.898178" xlink:href="#Inter-Regular-76"/>
      <use x="2798.580002" xlink:href="#Inter-Regular-65"/>
      <use x="2856.818649" xlink:href="#Inter-Regular-20"/>
      <use x="2884.943649" xlink:href="#Inter-Regular-74"/>
      <use x="2921.307297" xlink:href="#Inter-Regular-65"/>
      <use x="2979.545944" xlink:href="#Inter-Regular-73"/>
      <use x="3031.81868" xlink:href="#Inter-Regular-74"/>
     </g>
    </g>
   </g>
   <g id="line2d_30">
    <path clip-path="url(#pe6ae14dc43)" d="M 82.078455 476.40545 
L 83.294411 476.0659 
L 84.510366 476.745 
L 85.726321 475.72635 
L 86.942277 476.745 
L 88.158232 476.745 
L 89.374187 475.72635 
L 90.590143 475.047251 
L 91.806098 475.72635 
L 93.022053 474.028601 
L 96.669919 469.954003 
L 99.10183 462.144357 
L 100.317785 459.767508 
L 101.533741 453.995161 
L 102.749696 453.995161 
L 103.965651 442.110916 
L 105.181607 437.357219 
L 106.397562 424.793875 
L 107.613517 418.002878 
L 108.829473 402.383585 
L 111.261383 362.316704 
L 112.477339 349.75336 
L 113.693294 346.357862 
L 116.125205 292.708987 
L 117.34116 272.335997 
L 118.557115 239.739212 
L 119.773071 228.194518 
L 120.989026 224.459469 
L 122.204981 191.862685 
L 123.420937 195.258183 
L 124.636892 203.06783 
L 125.852847 167.754646 
L 127.068803 145.344357 
L 128.284758 179.978441 
L 129.500713 188.127637 
L 130.716669 183.373939 
L 131.932624 185.750788 
L 133.148579 203.407379 
L 134.364535 215.970723 
L 135.58049 211.217026 
L 136.796445 220.384871 
L 138.012401 224.799019 
L 139.228356 237.022814 
L 140.444312 243.47426 
L 141.660267 244.15336 
L 142.876222 256.037605 
L 144.092178 258.414453 
L 145.308133 275.052395 
L 146.524088 271.996447 
L 147.740044 288.294839 
L 148.955999 286.59709 
L 150.171954 304.932781 
L 151.38791 307.30963 
L 152.603865 309.007379 
L 153.81982 312.402878 
L 155.035776 314.100627 
L 156.251731 332.775868 
L 157.467686 344.999662 
L 158.683642 336.850466 
L 159.899597 343.641463 
L 161.115552 344.320563 
L 162.331508 341.264614 
L 163.547463 364.693553 
L 164.763418 364.693553 
L 165.979374 374.880048 
L 167.195329 388.462042 
L 168.411284 383.368794 
L 169.62724 389.820241 
L 170.843195 382.689695 
L 172.05915 385.406093 
L 173.275106 385.745643 
L 174.491061 401.025386 
L 175.707016 390.838891 
L 176.922972 398.308987 
L 178.138927 397.290338 
L 179.354882 408.495482 
L 180.570838 410.532781 
L 181.786793 408.835032 
L 183.002748 419.361077 
L 184.218704 417.323778 
L 185.434659 412.57008 
L 186.650614 418.681977 
L 187.86657 414.946929 
L 190.29848 427.510273 
L 191.514436 438.715418 
L 192.730391 435.31992 
L 193.946346 424.114775 
L 196.378257 435.659469 
L 198.810168 443.469116 
L 200.026123 438.375868 
L 201.242078 438.715418 
L 202.458034 447.883264 
L 203.673989 443.808666 
L 204.889944 452.636961 
L 206.1059 451.957862 
L 207.321855 459.088408 
L 208.53781 450.939212 
L 209.753766 456.03246 
L 210.969721 453.316061 
L 212.185676 458.409309 
L 213.401632 457.390659 
L 214.617587 460.786158 
L 215.833542 458.409309 
L 217.049498 460.786158 
L 218.265453 457.051109 
L 219.481408 456.03246 
L 220.697364 453.995161 
L 221.913319 457.051109 
L 223.129274 464.181656 
L 224.34523 463.502556 
L 225.561185 462.483907 
L 226.77714 465.200305 
L 227.993096 462.144357 
L 229.209051 469.274904 
L 230.425006 463.163006 
L 231.640962 467.916704 
L 232.856917 466.218955 
L 234.072872 468.595804 
L 235.288828 465.539855 
L 236.504783 467.916704 
L 237.720738 468.935354 
L 238.936694 464.860756 
L 240.152649 469.614453 
L 241.368604 469.954003 
L 242.58456 472.670402 
L 243.800515 469.274904 
L 245.01647 469.954003 
L 246.232426 469.954003 
L 247.448381 472.670402 
L 248.664336 470.633103 
L 249.880292 471.991302 
L 251.096247 471.991302 
L 252.312202 472.670402 
L 253.528158 470.293553 
L 254.744113 471.312203 
L 255.960069 471.312203 
L 257.176024 474.707701 
L 258.391979 472.330852 
L 259.607935 471.991302 
L 260.82389 473.349502 
L 262.039845 473.349502 
L 263.255801 474.028601 
L 264.471756 474.028601 
L 265.687711 473.349502 
L 268.119622 474.028601 
L 269.335577 471.991302 
L 270.551533 473.349502 
L 271.767488 475.72635 
L 272.983443 473.689051 
L 274.199399 474.368151 
L 275.415354 473.009952 
L 276.631309 474.028601 
L 277.847265 473.009952 
L 279.06322 473.349502 
L 280.279175 474.707701 
L 281.495131 474.368151 
L 282.711086 474.707701 
L 283.927041 473.009952 
L 285.142997 475.386801 
L 286.358952 472.670402 
L 288.790863 476.0659 
L 290.006818 474.028601 
L 292.438729 474.707701 
L 293.654684 472.330852 
L 294.870639 475.047251 
L 296.086595 473.009952 
L 297.30255 473.009952 
L 298.518505 474.028601 
L 299.734461 474.028601 
L 300.950416 475.047251 
L 303.382327 474.368151 
L 304.598282 476.0659 
L 305.814237 474.028601 
L 307.030193 474.707701 
L 308.246148 474.707701 
L 309.462103 472.670402 
L 310.678059 474.028601 
L 311.894014 472.330852 
L 313.109969 473.689051 
L 314.325925 473.689051 
L 315.54188 472.670402 
L 316.757835 473.349502 
L 317.973791 470.633103 
L 319.189746 471.991302 
L 320.405701 470.972653 
L 321.621657 471.651752 
L 322.837612 469.274904 
L 324.053567 468.595804 
L 326.485478 470.633103 
L 327.701433 467.237605 
L 328.917389 468.595804 
L 330.133344 465.200305 
L 331.349299 459.088408 
L 332.565255 465.539855 
L 333.78121 466.898055 
L 334.997165 464.860756 
L 336.213121 462.483907 
L 337.429076 460.786158 
L 338.645031 462.144357 
L 339.860987 460.446608 
L 341.076942 458.069759 
L 342.292897 455.01381 
L 343.508853 458.069759 
L 344.724808 458.409309 
L 345.940763 456.711559 
L 347.156719 455.69291 
L 348.372674 449.241463 
L 349.588629 450.939212 
L 350.804585 453.995161 
L 352.02054 446.185514 
L 353.236495 441.771367 
L 354.452451 444.148215 
L 355.668406 447.204164 
L 356.884361 442.450466 
L 358.100317 434.64082 
L 359.316272 435.31992 
L 360.532227 422.077476 
L 361.748183 435.999019 
L 362.964138 422.756576 
L 364.180093 418.681977 
L 365.396049 411.890981 
L 366.612004 413.24918 
L 367.827959 412.90963 
L 369.043915 418.681977 
L 370.25987 406.797733 
L 371.475825 401.704486 
L 372.691781 403.062685 
L 373.907736 395.932138 
L 375.123692 392.19709 
L 376.339647 381.331495 
L 377.555602 383.029244 
L 378.771558 379.633746 
L 379.987513 379.633746 
L 381.203468 377.935997 
L 382.419424 382.350145 
L 383.635379 374.540498 
L 384.851334 363.674904 
L 386.06729 363.674904 
L 387.283245 360.958505 
L 388.4992 340.585514 
L 389.715156 368.428601 
L 390.931111 370.80545 
L 392.147066 357.563006 
L 393.363022 355.525707 
L 394.578977 355.186158 
L 395.794932 347.036961 
L 397.010888 354.846608 
L 398.226843 353.488408 
L 399.442798 329.04082 
L 400.658754 341.943714 
L 401.874709 344.320563 
L 403.090664 341.943714 
L 404.30662 338.887765 
L 405.522575 340.925064 
L 406.73853 338.887765 
L 407.954486 332.436318 
L 409.170441 350.43246 
L 410.386396 353.148859 
L 412.818307 339.906415 
L 414.034262 353.827958 
L 415.250218 359.260756 
L 416.466173 362.656254 
L 417.682128 339.227315 
L 418.898084 336.850466 
L 420.114039 359.939855 
L 421.329994 356.204807 
L 422.54595 356.544357 
L 423.761905 349.41381 
L 424.97786 349.75336 
L 426.193816 348.395161 
L 427.409771 341.604164 
L 428.625726 349.75336 
L 429.841682 352.809309 
L 431.057637 336.850466 
L 432.273592 344.999662 
L 433.489548 356.204807 
L 434.705503 327.682621 
L 435.921458 329.71992 
L 437.137414 336.850466 
L 438.353369 330.738569 
L 439.569324 308.32828 
L 440.78528 310.705129 
L 442.001235 313.421527 
L 443.21719 311.723778 
L 444.433146 294.406736 
L 445.649101 284.220241 
L 446.865056 281.503842 
L 448.081012 276.410595 
L 449.296967 280.485193 
L 450.512922 264.52635 
L 451.728878 255.358505 
L 452.944833 258.414453 
L 454.160788 249.586158 
L 455.376744 255.358505 
L 456.592699 221.403521 
L 457.808654 198.314132 
L 459.02461 196.955932 
L 460.240565 175.224743 
L 461.45652 175.224743 
L 462.672476 162.321849 
L 463.888431 143.986158 
L 465.104386 135.497412 
L 466.320342 106.296125 
L 467.536297 103.240177 
L 468.752252 107.314775 
L 469.968208 102.900627 
L 471.184163 79.471688 
L 472.400118 80.150788 
L 473.616074 80.490338 
L 474.832029 54.345 
L 476.047984 78.113489 
L 477.26394 92.035032 
L 478.479895 95.430531 
L 479.69585 117.50127 
L 480.911806 123.613167 
L 482.127761 113.426672 
L 483.343716 150.777154 
L 484.559672 134.478762 
L 485.775627 132.101913 
L 486.991582 156.549502 
L 488.207538 194.239534 
L 489.423493 201.70963 
L 490.639449 203.746929 
L 491.855404 219.026672 
L 493.071359 212.914775 
L 494.287315 257.056254 
L 495.50327 247.548859 
L 496.719225 270.298698 
L 497.935181 284.220241 
L 499.151136 269.280048 
L 500.367091 294.406736 
L 501.583047 292.708987 
L 502.799002 303.914132 
L 504.014957 323.608023 
L 505.230913 330.399019 
L 506.446868 329.04082 
L 507.662823 320.212524 
L 508.878779 342.622814 
L 510.094734 346.357862 
L 511.310689 353.148859 
L 512.526645 369.107701 
L 513.7426 374.200949 
L 514.958555 379.973296 
L 516.174511 394.913489 
L 517.390466 390.499341 
L 518.606421 395.253039 
L 519.822377 402.044035 
L 521.038332 410.872331 
L 522.254287 410.193232 
L 523.470243 409.853682 
L 524.686198 411.211881 
L 525.902153 424.454325 
L 527.118109 433.96172 
L 528.334064 432.943071 
L 529.550019 423.775225 
L 530.765975 432.943071 
L 531.98193 438.375868 
L 533.197885 435.659469 
L 534.413841 438.375868 
L 535.629796 443.808666 
L 536.845751 440.413167 
L 538.061707 449.241463 
L 539.277662 443.129566 
L 540.493617 449.920563 
L 541.709573 448.222814 
L 542.925528 454.334711 
L 544.141483 454.67426 
L 545.357439 459.088408 
L 546.573394 457.730209 
L 547.789349 456.711559 
L 549.005305 452.976511 
L 550.22126 457.390659 
L 552.653171 465.200305 
L 553.869126 464.181656 
L 555.085081 462.823457 
L 556.301037 466.898055 
L 557.516992 467.577154 
L 558.732947 467.916704 
L 559.948903 463.842106 
L 561.164858 464.181656 
L 563.596769 470.293553 
L 564.812724 467.577154 
L 566.028679 468.595804 
L 567.244635 473.349502 
L 568.46059 468.935354 
L 569.676545 468.256254 
L 570.892501 466.218955 
L 572.108456 470.972653 
L 574.540367 470.293553 
L 575.756322 468.256254 
L 576.972277 470.293553 
L 578.188233 473.689051 
L 579.404188 470.972653 
L 580.620143 471.651752 
L 581.836099 470.633103 
L 583.052054 471.651752 
L 585.483965 470.972653 
L 586.69992 470.972653 
L 587.915875 471.991302 
L 589.131831 470.972653 
L 590.347786 474.368151 
L 591.563741 472.670402 
L 592.779697 473.689051 
L 593.995652 473.349502 
L 595.211607 472.330852 
L 596.427563 473.009952 
L 597.643518 474.028601 
L 598.859473 474.368151 
L 600.075429 473.349502 
L 601.291384 474.028601 
L 602.507339 473.689051 
L 603.723295 472.670402 
L 604.93925 474.368151 
L 606.155206 474.028601 
L 609.803072 474.028601 
L 611.019027 472.330852 
L 612.234982 473.689051 
L 613.450938 475.386801 
L 614.666893 475.72635 
L 615.882848 474.368151 
L 618.314759 475.047251 
L 619.530714 475.72635 
L 620.74667 475.72635 
L 623.17858 474.368151 
L 624.394536 475.72635 
L 625.610491 474.707701 
L 626.826446 474.028601 
L 628.042402 475.72635 
L 629.258357 473.349502 
L 630.474312 474.368151 
L 632.906223 475.047251 
L 634.122178 474.368151 
L 635.338134 474.368151 
L 636.554089 475.72635 
L 637.770044 473.689051 
L 638.986 473.349502 
L 640.201955 474.028601 
L 641.41791 475.386801 
L 642.633866 475.047251 
L 643.849821 475.386801 
L 645.065776 474.368151 
L 646.281732 475.386801 
L 647.497687 473.689051 
L 648.713642 474.707701 
L 649.929598 472.330852 
L 651.145553 474.368151 
L 652.361508 474.028601 
L 653.577464 472.330852 
L 654.793419 473.349502 
L 656.009374 475.047251 
L 657.22533 473.349502 
L 658.441285 470.633103 
L 659.65724 469.954003 
L 660.873196 472.330852 
L 663.305106 475.047251 
L 664.521062 470.293553 
L 665.737017 470.293553 
L 666.952972 473.689051 
L 668.168928 470.972653 
L 669.384883 473.689051 
L 670.600838 470.293553 
L 671.816794 469.954003 
L 673.032749 470.633103 
L 674.248704 468.595804 
L 676.680615 469.274904 
L 677.89657 468.935354 
L 679.112526 470.633103 
L 680.328481 468.935354 
L 681.544436 467.916704 
L 682.760392 463.842106 
L 683.976347 465.879405 
L 685.192302 468.256254 
L 686.408258 465.879405 
L 687.624213 463.842106 
L 688.840168 465.879405 
L 690.056124 461.804807 
L 691.272079 463.502556 
L 692.488034 461.804807 
L 693.70399 458.069759 
L 694.919945 452.976511 
L 696.1359 460.446608 
L 697.351856 462.144357 
L 698.567811 455.01381 
L 699.783766 453.316061 
L 700.999722 455.35336 
L 702.215677 455.35336 
L 703.431632 454.67426 
L 704.647588 456.37201 
L 705.863543 453.316061 
L 707.079498 455.01381 
L 708.295454 445.845965 
L 709.511409 451.618312 
L 710.727364 451.957862 
L 711.94332 454.67426 
L 713.159275 454.334711 
L 714.37523 452.976511 
L 715.591186 447.883264 
L 716.807141 449.920563 
L 718.023096 447.883264 
L 719.239052 454.67426 
L 720.455007 453.655611 
L 721.670963 453.316061 
L 722.886918 450.260113 
L 724.102873 445.845965 
L 725.318829 448.222814 
L 726.534784 449.581013 
L 727.750739 453.316061 
L 728.966695 453.316061 
L 730.18265 445.166865 
L 731.398605 449.581013 
L 732.614561 446.185514 
L 733.830516 443.129566 
L 735.046471 447.204164 
L 736.262427 443.808666 
L 737.478382 444.487765 
L 738.694337 444.827315 
L 739.910293 449.241463 
L 741.126248 445.166865 
L 742.342203 446.185514 
L 742.342203 446.185514 
" style="fill:none;stroke:#5694ca;stroke-linecap:square;stroke-width:2;"/>
   </g>
   <g id="line2d_31">
    <path clip-path="url(#pe6ae14dc43)" d="M 101.533741 466.652292 
L 102.749696 466.652292 
L 103.965651 476.745 
L 105.181607 466.652292 
L 106.397562 466.652292 
L 107.613517 426.281459 
L 108.829473 456.559583 
L 110.045428 436.374167 
L 111.261383 456.559583 
L 112.477339 446.466875 
L 113.693294 396.003334 
L 114.909249 436.374167 
L 116.125205 436.374167 
L 117.34116 426.281459 
L 118.557115 436.374167 
L 119.773071 375.817917 
L 120.989026 375.817917 
L 122.204981 385.910626 
L 123.420937 365.725209 
L 124.636892 416.18875 
L 125.852847 396.003334 
L 127.068803 436.374167 
L 128.284758 295.076251 
L 129.500713 365.725209 
L 130.716669 365.725209 
L 131.932624 315.261668 
L 133.148579 406.096042 
L 134.364535 355.632501 
L 135.58049 315.261668 
L 136.796445 365.725209 
L 138.012401 385.910626 
L 139.228356 375.817917 
L 140.444312 375.817917 
L 141.660267 355.632501 
L 142.876222 345.539793 
L 144.092178 284.983543 
L 145.308133 315.261668 
L 146.524088 365.725209 
L 147.740044 325.354376 
L 150.171954 345.539793 
L 151.38791 416.18875 
L 152.603865 335.447084 
L 153.81982 396.003334 
L 155.035776 355.632501 
L 156.251731 355.632501 
L 157.467686 365.725209 
L 158.683642 385.910626 
L 161.115552 446.466875 
L 162.331508 446.466875 
L 163.547463 416.18875 
L 164.763418 406.096042 
L 165.979374 375.817917 
L 167.195329 456.559583 
L 168.411284 436.374167 
L 169.62724 446.466875 
L 170.843195 375.817917 
L 172.05915 446.466875 
L 173.275106 436.374167 
L 174.491061 406.096042 
L 175.707016 406.096042 
L 176.922972 426.281459 
L 178.138927 426.281459 
L 179.354882 436.374167 
L 180.570838 466.652292 
L 181.786793 456.559583 
L 183.002748 406.096042 
L 184.218704 466.652292 
L 185.434659 466.652292 
L 186.650614 436.374167 
L 187.86657 446.466875 
L 189.082525 466.652292 
L 190.29848 456.559583 
L 191.514436 466.652292 
L 192.730391 466.652292 
L 193.946346 456.559583 
L 195.162302 456.559583 
L 196.378257 476.745 
L 197.594212 466.652292 
L 198.810168 476.745 
L 203.673989 476.745 
L 204.889944 456.559583 
L 206.1059 466.652292 
L 207.321855 466.652292 
L 208.53781 476.745 
L 209.753766 476.745 
L 210.969721 466.652292 
L 214.617587 466.652292 
L 215.833542 476.745 
L 217.049498 476.745 
L 218.265453 466.652292 
L 219.481408 466.652292 
L 220.697364 476.745 
L 223.129274 456.559583 
L 224.34523 476.745 
L 225.561185 476.745 
L 226.77714 466.652292 
L 227.993096 476.745 
L 229.209051 466.652292 
L 230.425006 476.745 
L 231.640962 456.559583 
L 232.856917 476.745 
L 237.720738 476.745 
L 238.936694 466.652292 
L 240.152649 476.745 
L 241.368604 476.745 
L 242.58456 466.652292 
L 243.800515 476.745 
L 274.199399 476.745 
L 275.415354 466.652292 
L 276.631309 476.745 
L 280.279175 476.745 
L 281.495131 466.652292 
L 282.711086 476.745 
L 283.927041 466.652292 
L 285.142997 476.745 
L 294.870639 476.745 
L 296.086595 466.652292 
L 297.30255 476.745 
L 298.518505 476.745 
L 299.734461 466.652292 
L 300.950416 476.745 
L 303.382327 476.745 
L 304.598282 466.652292 
L 305.814237 476.745 
L 307.030193 456.559583 
L 308.246148 476.745 
L 309.462103 466.652292 
L 310.678059 476.745 
L 311.894014 456.559583 
L 313.109969 476.745 
L 314.325925 476.745 
L 316.757835 456.559583 
L 317.973791 476.745 
L 319.189746 476.745 
L 320.405701 466.652292 
L 321.621657 466.652292 
L 322.837612 456.559583 
L 324.053567 476.745 
L 326.485478 456.559583 
L 327.701433 476.745 
L 332.565255 476.745 
L 333.78121 466.652292 
L 334.997165 476.745 
L 336.213121 476.745 
L 337.429076 466.652292 
L 338.645031 476.745 
L 339.860987 466.652292 
L 341.076942 466.652292 
L 342.292897 456.559583 
L 344.724808 476.745 
L 345.940763 466.652292 
L 348.372674 466.652292 
L 349.588629 476.745 
L 352.02054 476.745 
L 353.236495 416.18875 
L 355.668406 436.374167 
L 356.884361 456.559583 
L 358.100317 436.374167 
L 359.316272 456.559583 
L 360.532227 446.466875 
L 361.748183 406.096042 
L 362.964138 436.374167 
L 364.180093 446.466875 
L 365.396049 416.18875 
L 366.612004 436.374167 
L 369.043915 396.003334 
L 370.25987 416.18875 
L 371.475825 365.725209 
L 373.907736 385.910626 
L 375.123692 335.447084 
L 376.339647 385.910626 
L 377.555602 406.096042 
L 378.771558 375.817917 
L 379.987513 426.281459 
L 381.203468 355.632501 
L 382.419424 375.817917 
L 383.635379 406.096042 
L 384.851334 325.354376 
L 386.06729 406.096042 
L 387.283245 375.817917 
L 388.4992 375.817917 
L 389.715156 396.003334 
L 390.931111 345.539793 
L 392.147066 375.817917 
L 393.363022 365.725209 
L 394.578977 345.539793 
L 395.794932 345.539793 
L 397.010888 385.910626 
L 398.226843 365.725209 
L 399.442798 375.817917 
L 400.658754 345.539793 
L 401.874709 345.539793 
L 403.090664 396.003334 
L 404.30662 416.18875 
L 405.522575 396.003334 
L 406.73853 406.096042 
L 407.954486 375.817917 
L 409.170441 396.003334 
L 410.386396 365.725209 
L 411.602352 365.725209 
L 412.818307 396.003334 
L 414.034262 355.632501 
L 415.250218 406.096042 
L 416.466173 396.003334 
L 417.682128 416.18875 
L 418.898084 406.096042 
L 420.114039 355.632501 
L 421.329994 365.725209 
L 422.54595 305.16896 
L 423.761905 406.096042 
L 424.97786 385.910626 
L 426.193816 345.539793 
L 427.409771 385.910626 
L 429.841682 426.281459 
L 431.057637 416.18875 
L 432.273592 416.18875 
L 433.489548 345.539793 
L 434.705503 335.447084 
L 435.921458 375.817917 
L 437.137414 325.354376 
L 438.353369 355.632501 
L 439.569324 305.16896 
L 440.78528 375.817917 
L 442.001235 325.354376 
L 443.21719 325.354376 
L 444.433146 406.096042 
L 445.649101 375.817917 
L 446.865056 335.447084 
L 448.081012 396.003334 
L 449.296967 365.725209 
L 450.512922 345.539793 
L 451.728878 375.817917 
L 452.944833 345.539793 
L 454.160788 335.447084 
L 455.376744 355.632501 
L 456.592699 345.539793 
L 457.808654 406.096042 
L 459.02461 365.725209 
L 460.240565 264.798127 
L 461.45652 375.817917 
L 462.672476 274.890835 
L 463.888431 315.261668 
L 465.104386 244.61271 
L 466.320342 284.983543 
L 467.536297 284.983543 
L 468.752252 214.334585 
L 469.968208 234.520002 
L 471.184163 274.890835 
L 472.400118 184.056461 
L 473.616074 264.798127 
L 474.832029 284.983543 
L 476.047984 284.983543 
L 477.26394 365.725209 
L 478.479895 345.539793 
L 479.69585 274.890835 
L 480.911806 345.539793 
L 482.127761 325.354376 
L 483.343716 355.632501 
L 484.559672 274.890835 
L 485.775627 315.261668 
L 486.991582 244.61271 
L 488.207538 335.447084 
L 489.423493 355.632501 
L 490.639449 325.354376 
L 491.855404 345.539793 
L 493.071359 426.281459 
L 494.287315 335.447084 
L 495.50327 385.910626 
L 496.719225 345.539793 
L 497.935181 396.003334 
L 499.151136 385.910626 
L 500.367091 446.466875 
L 501.583047 396.003334 
L 502.799002 355.632501 
L 504.014957 385.910626 
L 505.230913 396.003334 
L 506.446868 426.281459 
L 507.662823 426.281459 
L 508.878779 355.632501 
L 510.094734 426.281459 
L 511.310689 416.18875 
L 512.526645 456.559583 
L 513.7426 426.281459 
L 516.174511 426.281459 
L 517.390466 456.559583 
L 518.606421 436.374167 
L 519.822377 436.374167 
L 522.254287 456.559583 
L 525.902153 456.559583 
L 527.118109 436.374167 
L 528.334064 456.559583 
L 529.550019 466.652292 
L 530.765975 416.18875 
L 531.98193 456.559583 
L 533.197885 466.652292 
L 534.413841 416.18875 
L 535.629796 406.096042 
L 538.061707 466.652292 
L 539.277662 476.745 
L 540.493617 476.745 
L 541.709573 456.559583 
L 542.925528 476.745 
L 545.357439 456.559583 
L 547.789349 476.745 
L 549.005305 446.466875 
L 550.22126 456.559583 
L 551.437215 476.745 
L 553.869126 476.745 
L 555.085081 466.652292 
L 557.516992 466.652292 
L 559.948903 446.466875 
L 561.164858 476.745 
L 562.380813 476.745 
L 563.596769 456.559583 
L 564.812724 466.652292 
L 566.028679 466.652292 
L 567.244635 456.559583 
L 568.46059 466.652292 
L 569.676545 456.559583 
L 570.892501 466.652292 
L 572.108456 456.559583 
L 573.324411 466.652292 
L 574.540367 466.652292 
L 575.756322 476.745 
L 578.188233 456.559583 
L 579.404188 466.652292 
L 581.836099 466.652292 
L 583.052054 476.745 
L 584.268009 466.652292 
L 585.483965 476.745 
L 586.69992 446.466875 
L 587.915875 456.559583 
L 589.131831 476.745 
L 590.347786 466.652292 
L 591.563741 476.745 
L 592.779697 466.652292 
L 593.995652 466.652292 
L 595.211607 476.745 
L 596.427563 466.652292 
L 597.643518 476.745 
L 598.859473 466.652292 
L 600.075429 476.745 
L 603.723295 476.745 
L 604.93925 466.652292 
L 606.155206 476.745 
L 609.803072 476.745 
L 611.019027 466.652292 
L 612.234982 476.745 
L 613.450938 466.652292 
L 614.666893 476.745 
L 615.882848 476.745 
L 617.098804 456.559583 
L 618.314759 476.745 
L 619.530714 466.652292 
L 620.74667 476.745 
L 630.474312 476.745 
L 631.690268 466.652292 
L 632.906223 476.745 
L 635.338134 476.745 
L 636.554089 466.652292 
L 637.770044 476.745 
L 643.849821 476.745 
L 645.065776 466.652292 
L 646.281732 476.745 
L 671.816794 476.745 
L 673.032749 466.652292 
L 674.248704 476.745 
L 681.544436 476.745 
L 682.760392 466.652292 
L 685.192302 466.652292 
L 686.408258 476.745 
L 690.056124 476.745 
L 691.272079 446.466875 
L 692.488034 476.745 
L 693.70399 466.652292 
L 697.351856 466.652292 
L 698.567811 456.559583 
L 700.999722 456.559583 
L 703.431632 476.745 
L 704.647588 456.559583 
L 705.863543 446.466875 
L 707.079498 416.18875 
L 708.295454 426.281459 
L 709.511409 426.281459 
L 710.727364 406.096042 
L 711.94332 446.466875 
L 713.159275 466.652292 
L 714.37523 446.466875 
L 716.807141 426.281459 
L 718.023096 446.466875 
L 719.239052 396.003334 
L 720.455007 446.466875 
L 721.670963 446.466875 
L 722.886918 426.281459 
L 724.102873 416.18875 
L 725.318829 416.18875 
L 727.750739 456.559583 
L 728.966695 436.374167 
L 730.18265 406.096042 
L 731.398605 365.725209 
L 732.614561 406.096042 
L 733.830516 426.281459 
L 735.046471 355.632501 
L 737.478382 396.003334 
L 738.694337 426.281459 
L 739.910293 436.374167 
L 741.126248 426.281459 
L 742.342203 426.281459 
L 742.342203 426.281459 
" style="fill:none;stroke:#ffdd00;stroke-linecap:square;stroke-width:2;"/>
   </g>
   <g id="line2d_32">
    <path clip-path="url(#pe6ae14dc43)" d="M 94.238009 473.246706 
L 95.453964 476.745 
L 96.669919 469.748412 
L 97.885875 476.745 
L 100.317785 469.748412 
L 101.533741 476.745 
L 102.749696 466.250119 
L 103.965651 459.253531 
L 105.181607 455.755237 
L 107.613517 462.751825 
L 108.829473 452.256943 
L 110.045428 438.263768 
L 111.261383 434.765474 
L 112.477339 438.263768 
L 113.693294 375.29448 
L 114.909249 406.779124 
L 116.125205 371.796186 
L 118.557115 315.823485 
L 119.773071 350.806423 
L 120.989026 273.843959 
L 122.204981 378.792773 
L 123.420937 312.325191 
L 124.636892 256.35249 
L 125.852847 305.328603 
L 127.068803 287.837134 
L 128.284758 245.857609 
L 129.500713 273.843959 
L 130.716669 298.332016 
L 131.932624 308.826897 
L 133.148579 333.314954 
L 134.364535 298.332016 
L 135.58049 329.81666 
L 136.796445 326.318366 
L 138.012401 343.809835 
L 139.228356 294.833722 
L 140.444312 315.823485 
L 141.660267 263.349078 
L 142.876222 298.332016 
L 144.092178 315.823485 
L 145.308133 305.328603 
L 146.524088 343.809835 
L 147.740044 308.826897 
L 148.955999 326.318366 
L 150.171954 266.847372 
L 151.38791 333.314954 
L 152.603865 343.809835 
L 155.035776 308.826897 
L 156.251731 322.820072 
L 157.467686 347.308129 
L 158.683642 336.813248 
L 159.899597 301.83031 
L 161.115552 326.318366 
L 162.331508 336.813248 
L 163.547463 357.803011 
L 164.763418 357.803011 
L 165.979374 378.792773 
L 167.195329 364.799598 
L 168.411284 368.297892 
L 169.62724 329.81666 
L 170.843195 354.304717 
L 172.05915 385.789361 
L 173.275106 375.29448 
L 175.707016 396.284242 
L 176.922972 378.792773 
L 178.138927 399.782536 
L 179.354882 392.785949 
L 180.570838 417.274005 
L 181.786793 438.263768 
L 183.002748 448.75865 
L 184.218704 427.768887 
L 185.434659 427.768887 
L 186.650614 420.772299 
L 187.86657 420.772299 
L 190.29848 455.755237 
L 191.514436 455.755237 
L 192.730391 466.250119 
L 193.946346 455.755237 
L 195.162302 448.75865 
L 196.378257 473.246706 
L 197.594212 445.260356 
L 198.810168 466.250119 
L 200.026123 452.256943 
L 201.242078 455.755237 
L 202.458034 473.246706 
L 203.673989 459.253531 
L 204.889944 469.748412 
L 206.1059 469.748412 
L 208.53781 462.751825 
L 209.753766 466.250119 
L 210.969721 455.755237 
L 212.185676 466.250119 
L 213.401632 466.250119 
L 214.617587 476.745 
L 215.833542 466.250119 
L 217.049498 469.748412 
L 218.265453 466.250119 
L 219.481408 473.246706 
L 220.697364 473.246706 
L 221.913319 476.745 
L 223.129274 476.745 
L 224.34523 462.751825 
L 225.561185 473.246706 
L 226.77714 473.246706 
L 227.993096 476.745 
L 230.425006 476.745 
L 231.640962 473.246706 
L 232.856917 476.745 
L 234.072872 473.246706 
L 235.288828 476.745 
L 257.176024 476.745 
L 258.391979 473.246706 
L 259.607935 476.745 
L 287.574907 476.745 
L 288.790863 473.246706 
L 290.006818 476.745 
L 291.222773 476.745 
L 292.438729 473.246706 
L 293.654684 473.246706 
L 294.870639 476.745 
L 298.518505 476.745 
L 299.734461 473.246706 
L 300.950416 476.745 
L 304.598282 476.745 
L 305.814237 473.246706 
L 308.246148 473.246706 
L 309.462103 476.745 
L 317.973791 476.745 
L 319.189746 473.246706 
L 320.405701 466.250119 
L 321.621657 476.745 
L 322.837612 476.745 
L 325.269523 469.748412 
L 326.485478 476.745 
L 327.701433 466.250119 
L 328.917389 469.748412 
L 332.565255 469.748412 
L 333.78121 473.246706 
L 334.997165 469.748412 
L 336.213121 469.748412 
L 337.429076 466.250119 
L 338.645031 473.246706 
L 339.860987 462.751825 
L 341.076942 459.253531 
L 342.292897 473.246706 
L 343.508853 466.250119 
L 344.724808 466.250119 
L 345.940763 469.748412 
L 347.156719 462.751825 
L 348.372674 445.260356 
L 349.588629 438.263768 
L 350.804585 455.755237 
L 352.02054 438.263768 
L 353.236495 438.263768 
L 354.452451 448.75865 
L 355.668406 434.765474 
L 356.884361 455.755237 
L 358.100317 420.772299 
L 359.316272 406.779124 
L 360.532227 441.762062 
L 361.748183 399.782536 
L 362.964138 420.772299 
L 364.180093 410.277418 
L 365.396049 438.263768 
L 366.612004 417.274005 
L 367.827959 413.775711 
L 369.043915 406.779124 
L 370.25987 396.284242 
L 371.475825 368.297892 
L 372.691781 420.772299 
L 373.907736 375.29448 
L 375.123692 375.29448 
L 376.339647 354.304717 
L 377.555602 392.785949 
L 378.771558 354.304717 
L 379.987513 375.29448 
L 381.203468 354.304717 
L 382.419424 410.277418 
L 383.635379 333.314954 
L 384.851334 382.291067 
L 386.06729 347.308129 
L 387.283245 350.806423 
L 388.4992 329.81666 
L 389.715156 350.806423 
L 390.931111 347.308129 
L 392.147066 364.799598 
L 393.363022 343.809835 
L 394.578977 333.314954 
L 395.794932 357.803011 
L 397.010888 361.301304 
L 398.226843 350.806423 
L 399.442798 392.785949 
L 400.658754 389.287655 
L 401.874709 371.796186 
L 404.30662 350.806423 
L 405.522575 368.297892 
L 406.73853 371.796186 
L 407.954486 364.799598 
L 409.170441 396.284242 
L 410.386396 392.785949 
L 411.602352 333.314954 
L 412.818307 378.792773 
L 414.034262 364.799598 
L 415.250218 382.291067 
L 416.466173 410.277418 
L 417.682128 350.806423 
L 418.898084 375.29448 
L 420.114039 410.277418 
L 421.329994 375.29448 
L 422.54595 375.29448 
L 423.761905 378.792773 
L 424.97786 396.284242 
L 426.193816 396.284242 
L 427.409771 406.779124 
L 429.841682 385.789361 
L 431.057637 368.297892 
L 432.273592 364.799598 
L 433.489548 368.297892 
L 434.705503 350.806423 
L 435.921458 396.284242 
L 437.137414 382.291067 
L 438.353369 375.29448 
L 439.569324 389.287655 
L 440.78528 378.792773 
L 442.001235 354.304717 
L 443.21719 350.806423 
L 445.649101 357.803011 
L 446.865056 357.803011 
L 448.081012 368.297892 
L 449.296967 385.789361 
L 450.512922 364.799598 
L 451.728878 322.820072 
L 452.944833 354.304717 
L 454.160788 329.81666 
L 455.376744 329.81666 
L 456.592699 347.308129 
L 457.808654 336.813248 
L 459.02461 308.826897 
L 460.240565 322.820072 
L 461.45652 329.81666 
L 462.672476 343.809835 
L 463.888431 270.345665 
L 465.104386 308.826897 
L 466.320342 298.332016 
L 467.536297 298.332016 
L 468.752252 273.843959 
L 469.968208 273.843959 
L 471.184163 210.874671 
L 472.400118 326.318366 
L 473.616074 256.35249 
L 474.832029 231.864433 
L 476.047984 245.857609 
L 477.26394 273.843959 
L 478.479895 238.861021 
L 479.69585 291.335428 
L 480.911806 231.864433 
L 482.127761 294.833722 
L 483.343716 301.83031 
L 484.559672 263.349078 
L 485.775627 312.325191 
L 486.991582 270.345665 
L 488.207538 322.820072 
L 489.423493 308.826897 
L 490.639449 326.318366 
L 491.855404 322.820072 
L 493.071359 308.826897 
L 494.287315 364.799598 
L 495.50327 322.820072 
L 496.719225 298.332016 
L 497.935181 329.81666 
L 499.151136 340.311542 
L 500.367091 305.328603 
L 501.583047 347.308129 
L 502.799002 354.304717 
L 504.014957 333.314954 
L 505.230913 364.799598 
L 506.446868 364.799598 
L 507.662823 357.803011 
L 508.878779 385.789361 
L 510.094734 378.792773 
L 511.310689 354.304717 
L 512.526645 322.820072 
L 513.7426 382.291067 
L 514.958555 406.779124 
L 516.174511 399.782536 
L 517.390466 420.772299 
L 519.822377 406.779124 
L 521.038332 420.772299 
L 522.254287 410.277418 
L 523.470243 445.260356 
L 524.686198 406.779124 
L 525.902153 434.765474 
L 527.118109 438.263768 
L 528.334064 427.768887 
L 529.550019 448.75865 
L 530.765975 441.762062 
L 531.98193 441.762062 
L 533.197885 424.270593 
L 535.629796 459.253531 
L 536.845751 452.256943 
L 538.061707 455.755237 
L 539.277662 462.751825 
L 540.493617 452.256943 
L 541.709573 473.246706 
L 542.925528 438.263768 
L 544.141483 448.75865 
L 545.357439 466.250119 
L 546.573394 455.755237 
L 550.22126 466.250119 
L 551.437215 466.250119 
L 552.653171 462.751825 
L 553.869126 452.256943 
L 555.085081 459.253531 
L 558.732947 459.253531 
L 559.948903 469.748412 
L 561.164858 473.246706 
L 562.380813 473.246706 
L 563.596769 469.748412 
L 564.812724 469.748412 
L 566.028679 473.246706 
L 567.244635 462.751825 
L 568.46059 469.748412 
L 572.108456 469.748412 
L 573.324411 466.250119 
L 574.540367 469.748412 
L 575.756322 476.745 
L 576.972277 476.745 
L 578.188233 466.250119 
L 580.620143 473.246706 
L 581.836099 473.246706 
L 583.052054 476.745 
L 584.268009 473.246706 
L 585.483965 473.246706 
L 586.69992 466.250119 
L 587.915875 476.745 
L 589.131831 469.748412 
L 590.347786 476.745 
L 591.563741 469.748412 
L 592.779697 473.246706 
L 595.211607 473.246706 
L 596.427563 476.745 
L 598.859473 476.745 
L 600.075429 473.246706 
L 601.291384 476.745 
L 611.019027 476.745 
L 612.234982 469.748412 
L 613.450938 476.745 
L 617.098804 476.745 
L 618.314759 473.246706 
L 619.530714 476.745 
L 623.17858 476.745 
L 624.394536 473.246706 
L 625.610491 473.246706 
L 626.826446 476.745 
L 628.042402 476.745 
L 629.258357 473.246706 
L 631.690268 473.246706 
L 632.906223 469.748412 
L 635.338134 476.745 
L 636.554089 476.745 
L 638.986 469.748412 
L 641.41791 476.745 
L 642.633866 473.246706 
L 643.849821 473.246706 
L 645.065776 476.745 
L 646.281732 469.748412 
L 647.497687 469.748412 
L 648.713642 476.745 
L 649.929598 476.745 
L 651.145553 466.250119 
L 652.361508 473.246706 
L 653.577464 455.755237 
L 654.793419 473.246706 
L 656.009374 473.246706 
L 657.22533 466.250119 
L 658.441285 469.748412 
L 659.65724 466.250119 
L 660.873196 469.748412 
L 662.089151 462.751825 
L 663.305106 473.246706 
L 664.521062 469.748412 
L 665.737017 473.246706 
L 666.952972 448.75865 
L 668.168928 466.250119 
L 670.600838 466.250119 
L 671.816794 473.246706 
L 673.032749 469.748412 
L 674.248704 469.748412 
L 676.680615 455.755237 
L 677.89657 459.253531 
L 679.112526 431.267181 
L 680.328481 459.253531 
L 681.544436 434.765474 
L 682.760392 452.256943 
L 683.976347 448.75865 
L 685.192302 455.755237 
L 686.408258 452.256943 
L 687.624213 445.260356 
L 690.056124 452.256943 
L 691.272079 459.253531 
L 692.488034 452.256943 
L 694.919945 445.260356 
L 696.1359 455.755237 
L 697.351856 448.75865 
L 698.567811 445.260356 
L 699.783766 452.256943 
L 700.999722 466.250119 
L 703.431632 452.256943 
L 705.863543 445.260356 
L 707.079498 455.755237 
L 708.295454 452.256943 
L 709.511409 455.755237 
L 710.727364 441.762062 
L 711.94332 452.256943 
L 713.159275 466.250119 
L 714.37523 455.755237 
L 715.591186 452.256943 
L 716.807141 452.256943 
L 718.023096 455.755237 
L 720.455007 455.755237 
L 721.670963 459.253531 
L 722.886918 466.250119 
L 724.102873 466.250119 
L 725.318829 441.762062 
L 726.534784 455.755237 
L 727.750739 455.755237 
L 728.966695 466.250119 
L 730.18265 462.751825 
L 731.398605 455.755237 
L 732.614561 452.256943 
L 733.830516 459.253531 
L 735.046471 462.751825 
L 736.262427 462.751825 
L 737.478382 452.256943 
L 738.694337 462.751825 
L 739.910293 462.751825 
L 741.126248 459.253531 
L 742.342203 452.256943 
L 742.342203 452.256943 
" style="fill:none;stroke:#003078;stroke-linecap:square;stroke-width:2;"/>
   </g>
   <g id="line2d_33">
    <path clip-path="url(#pe6ae14dc43)" d="M 99.10183 458.559499 
L 100.317785 476.745 
L 101.533741 476.745 
L 102.749696 458.559499 
L 103.965651 464.621332 
L 105.181607 434.312163 
L 106.397562 446.435831 
L 107.613517 452.497665 
L 108.829473 422.188496 
L 111.261383 410.064828 
L 112.477339 416.126662 
L 113.693294 385.817493 
L 114.909249 367.631991 
L 116.125205 379.755659 
L 117.34116 385.817493 
L 118.557115 349.44649 
L 119.773071 307.013653 
L 120.989026 300.951819 
L 122.204981 288.828152 
L 123.420937 294.889985 
L 124.636892 355.508324 
L 125.852847 282.766318 
L 127.068803 222.147979 
L 128.284758 216.086146 
L 129.500713 325.199154 
L 133.148579 216.086146 
L 134.364535 319.137321 
L 135.58049 246.395315 
L 136.796445 264.580816 
L 138.012401 294.889985 
L 139.228356 282.766318 
L 140.444312 319.137321 
L 141.660267 325.199154 
L 142.876222 294.889985 
L 144.092178 337.322822 
L 145.308133 367.631991 
L 146.524088 288.828152 
L 147.740044 300.951819 
L 148.955999 379.755659 
L 150.171954 379.755659 
L 151.38791 385.817493 
L 152.603865 319.137321 
L 153.81982 379.755659 
L 155.035776 300.951819 
L 156.251731 391.879326 
L 157.467686 391.879326 
L 158.683642 337.322822 
L 159.899597 373.693825 
L 161.115552 337.322822 
L 162.331508 361.570157 
L 164.763418 434.312163 
L 165.979374 416.126662 
L 167.195329 385.817493 
L 168.411284 410.064828 
L 169.62724 379.755659 
L 170.843195 404.002994 
L 172.05915 379.755659 
L 173.275106 397.94116 
L 174.491061 410.064828 
L 175.707016 416.126662 
L 176.922972 410.064828 
L 178.138927 434.312163 
L 179.354882 422.188496 
L 180.570838 416.126662 
L 181.786793 434.312163 
L 183.002748 404.002994 
L 184.218704 416.126662 
L 185.434659 416.126662 
L 186.650614 440.373997 
L 187.86657 379.755659 
L 189.082525 410.064828 
L 190.29848 416.126662 
L 191.514436 434.312163 
L 192.730391 422.188496 
L 193.946346 446.435831 
L 195.162302 434.312163 
L 196.378257 404.002994 
L 197.594212 452.497665 
L 198.810168 422.188496 
L 201.242078 434.312163 
L 202.458034 452.497665 
L 203.673989 434.312163 
L 204.889944 446.435831 
L 206.1059 452.497665 
L 207.321855 440.373997 
L 209.753766 440.373997 
L 210.969721 428.250329 
L 212.185676 470.683166 
L 213.401632 476.745 
L 214.617587 452.497665 
L 215.833542 458.559499 
L 217.049498 446.435831 
L 218.265453 464.621332 
L 219.481408 470.683166 
L 220.697364 440.373997 
L 221.913319 422.188496 
L 223.129274 464.621332 
L 224.34523 440.373997 
L 225.561185 464.621332 
L 227.993096 452.497665 
L 229.209051 452.497665 
L 230.425006 458.559499 
L 231.640962 476.745 
L 232.856917 464.621332 
L 235.288828 464.621332 
L 236.504783 470.683166 
L 238.936694 470.683166 
L 240.152649 476.745 
L 241.368604 470.683166 
L 242.58456 476.745 
L 243.800515 464.621332 
L 246.232426 476.745 
L 247.448381 470.683166 
L 248.664336 476.745 
L 252.312202 476.745 
L 253.528158 470.683166 
L 254.744113 470.683166 
L 255.960069 476.745 
L 258.391979 464.621332 
L 259.607935 464.621332 
L 260.82389 470.683166 
L 262.039845 464.621332 
L 263.255801 452.497665 
L 264.471756 464.621332 
L 265.687711 452.497665 
L 266.903667 464.621332 
L 268.119622 464.621332 
L 269.335577 470.683166 
L 270.551533 452.497665 
L 271.767488 458.559499 
L 272.983443 476.745 
L 274.199399 446.435831 
L 275.415354 464.621332 
L 276.631309 476.745 
L 277.847265 464.621332 
L 279.06322 476.745 
L 280.279175 470.683166 
L 282.711086 470.683166 
L 283.927041 476.745 
L 286.358952 476.745 
L 287.574907 464.621332 
L 288.790863 476.745 
L 291.222773 476.745 
L 292.438729 470.683166 
L 293.654684 476.745 
L 294.870639 470.683166 
L 296.086595 476.745 
L 302.166371 476.745 
L 303.382327 464.621332 
L 304.598282 476.745 
L 305.814237 476.745 
L 307.030193 470.683166 
L 308.246148 476.745 
L 315.54188 476.745 
L 316.757835 470.683166 
L 317.973791 476.745 
L 319.189746 470.683166 
L 320.405701 476.745 
L 321.621657 464.621332 
L 324.053567 464.621332 
L 325.269523 476.745 
L 326.485478 476.745 
L 327.701433 470.683166 
L 328.917389 470.683166 
L 330.133344 458.559499 
L 331.349299 458.559499 
L 332.565255 476.745 
L 336.213121 458.559499 
L 337.429076 458.559499 
L 338.645031 452.497665 
L 339.860987 452.497665 
L 341.076942 446.435831 
L 342.292897 464.621332 
L 343.508853 428.250329 
L 344.724808 458.559499 
L 345.940763 416.126662 
L 347.156719 452.497665 
L 348.372674 410.064828 
L 349.588629 440.373997 
L 350.804585 440.373997 
L 352.02054 458.559499 
L 353.236495 452.497665 
L 354.452451 452.497665 
L 355.668406 428.250329 
L 356.884361 434.312163 
L 358.100317 434.312163 
L 359.316272 440.373997 
L 360.532227 452.497665 
L 361.748183 410.064828 
L 362.964138 397.94116 
L 364.180093 452.497665 
L 365.396049 397.94116 
L 366.612004 307.013653 
L 367.827959 410.064828 
L 369.043915 385.817493 
L 370.25987 379.755659 
L 371.475825 385.817493 
L 372.691781 337.322822 
L 373.907736 410.064828 
L 375.123692 349.44649 
L 376.339647 391.879326 
L 377.555602 404.002994 
L 378.771558 307.013653 
L 379.987513 373.693825 
L 381.203468 337.322822 
L 382.419424 343.384656 
L 383.635379 288.828152 
L 384.851334 319.137321 
L 386.06729 385.817493 
L 387.283245 300.951819 
L 388.4992 300.951819 
L 389.715156 307.013653 
L 390.931111 300.951819 
L 392.147066 307.013653 
L 393.363022 294.889985 
L 394.578977 361.570157 
L 395.794932 325.199154 
L 397.010888 337.322822 
L 398.226843 300.951819 
L 399.442798 367.631991 
L 400.658754 319.137321 
L 401.874709 349.44649 
L 403.090664 307.013653 
L 404.30662 313.075487 
L 405.522575 325.199154 
L 406.73853 367.631991 
L 407.954486 373.693825 
L 409.170441 294.889985 
L 410.386396 319.137321 
L 411.602352 282.766318 
L 412.818307 319.137321 
L 414.034262 373.693825 
L 415.250218 361.570157 
L 416.466173 343.384656 
L 417.682128 313.075487 
L 418.898084 319.137321 
L 420.114039 355.508324 
L 421.329994 325.199154 
L 422.54595 355.508324 
L 423.761905 325.199154 
L 424.97786 325.199154 
L 426.193816 276.704484 
L 427.409771 319.137321 
L 428.625726 276.704484 
L 429.841682 343.384656 
L 431.057637 294.889985 
L 432.273592 276.704484 
L 433.489548 270.64265 
L 434.705503 185.776977 
L 435.921458 185.776977 
L 437.137414 270.64265 
L 438.353369 264.580816 
L 439.569324 252.457149 
L 440.78528 264.580816 
L 442.001235 270.64265 
L 443.21719 203.962478 
L 444.433146 276.704484 
L 445.649101 216.086146 
L 446.865056 300.951819 
L 448.081012 179.715143 
L 449.296967 228.209813 
L 450.512922 173.653309 
L 451.728878 167.591475 
L 452.944833 125.158638 
L 454.160788 270.64265 
L 455.376744 155.467807 
L 456.592699 252.457149 
L 457.808654 234.271647 
L 459.02461 185.776977 
L 460.240565 228.209813 
L 461.45652 203.962478 
L 462.672476 270.64265 
L 463.888431 234.271647 
L 465.104386 149.405974 
L 466.320342 185.776977 
L 467.536297 216.086146 
L 468.752252 149.405974 
L 469.968208 222.147979 
L 471.184163 234.271647 
L 472.400118 319.137321 
L 473.616074 216.086146 
L 474.832029 319.137321 
L 476.047984 246.395315 
L 477.26394 270.64265 
L 478.479895 240.333481 
L 479.69585 276.704484 
L 480.911806 270.64265 
L 482.127761 313.075487 
L 483.343716 252.457149 
L 484.559672 343.384656 
L 485.775627 300.951819 
L 486.991582 222.147979 
L 488.207538 343.384656 
L 489.423493 343.384656 
L 490.639449 300.951819 
L 491.855404 276.704484 
L 493.071359 313.075487 
L 494.287315 343.384656 
L 495.50327 337.322822 
L 496.719225 313.075487 
L 497.935181 367.631991 
L 499.151136 373.693825 
L 500.367091 367.631991 
L 501.583047 355.508324 
L 502.799002 379.755659 
L 504.014957 325.199154 
L 505.230913 361.570157 
L 506.446868 349.44649 
L 507.662823 367.631991 
L 508.878779 404.002994 
L 510.094734 397.94116 
L 511.310689 410.064828 
L 512.526645 367.631991 
L 513.7426 385.817493 
L 514.958555 385.817493 
L 516.174511 397.94116 
L 517.390466 391.879326 
L 518.606421 404.002994 
L 519.822377 391.879326 
L 522.254287 404.002994 
L 523.470243 458.559499 
L 524.686198 416.126662 
L 525.902153 397.94116 
L 527.118109 440.373997 
L 528.334064 428.250329 
L 529.550019 452.497665 
L 530.765975 428.250329 
L 531.98193 440.373997 
L 533.197885 440.373997 
L 534.413841 452.497665 
L 535.629796 434.312163 
L 536.845751 458.559499 
L 538.061707 452.497665 
L 539.277662 452.497665 
L 540.493617 428.250329 
L 541.709573 452.497665 
L 542.925528 458.559499 
L 544.141483 446.435831 
L 545.357439 464.621332 
L 546.573394 434.312163 
L 547.789349 476.745 
L 549.005305 458.559499 
L 550.22126 458.559499 
L 551.437215 470.683166 
L 552.653171 464.621332 
L 553.869126 470.683166 
L 557.516992 470.683166 
L 558.732947 464.621332 
L 559.948903 476.745 
L 561.164858 476.745 
L 562.380813 464.621332 
L 563.596769 446.435831 
L 564.812724 470.683166 
L 566.028679 476.745 
L 568.46059 464.621332 
L 569.676545 476.745 
L 572.108456 464.621332 
L 573.324411 464.621332 
L 574.540367 476.745 
L 575.756322 464.621332 
L 576.972277 476.745 
L 578.188233 458.559499 
L 579.404188 470.683166 
L 580.620143 476.745 
L 581.836099 464.621332 
L 583.052054 464.621332 
L 584.268009 476.745 
L 585.483965 470.683166 
L 586.69992 470.683166 
L 587.915875 476.745 
L 589.131831 464.621332 
L 590.347786 476.745 
L 591.563741 470.683166 
L 592.779697 470.683166 
L 593.995652 476.745 
L 595.211607 476.745 
L 596.427563 470.683166 
L 597.643518 476.745 
L 598.859473 476.745 
L 600.075429 470.683166 
L 601.291384 476.745 
L 602.507339 470.683166 
L 603.723295 476.745 
L 604.93925 464.621332 
L 606.155206 464.621332 
L 607.371161 476.745 
L 608.587116 470.683166 
L 609.803072 476.745 
L 613.450938 476.745 
L 614.666893 458.559499 
L 615.882848 476.745 
L 617.098804 476.745 
L 619.530714 464.621332 
L 620.74667 464.621332 
L 621.962625 476.745 
L 625.610491 476.745 
L 626.826446 470.683166 
L 628.042402 470.683166 
L 629.258357 476.745 
L 640.201955 476.745 
L 641.41791 470.683166 
L 642.633866 476.745 
L 645.065776 476.745 
L 646.281732 470.683166 
L 647.497687 476.745 
L 657.22533 476.745 
L 658.441285 464.621332 
L 659.65724 476.745 
L 660.873196 470.683166 
L 662.089151 476.745 
L 663.305106 470.683166 
L 664.521062 476.745 
L 669.384883 476.745 
L 670.600838 470.683166 
L 671.816794 476.745 
L 673.032749 476.745 
L 674.248704 470.683166 
L 675.46466 470.683166 
L 676.680615 476.745 
L 679.112526 476.745 
L 680.328481 470.683166 
L 681.544436 476.745 
L 682.760392 470.683166 
L 685.192302 470.683166 
L 686.408258 476.745 
L 687.624213 464.621332 
L 688.840168 464.621332 
L 690.056124 470.683166 
L 691.272079 458.559499 
L 692.488034 470.683166 
L 693.70399 470.683166 
L 694.919945 464.621332 
L 696.1359 464.621332 
L 697.351856 470.683166 
L 698.567811 470.683166 
L 700.999722 458.559499 
L 702.215677 464.621332 
L 703.431632 464.621332 
L 705.863543 452.497665 
L 707.079498 470.683166 
L 708.295454 476.745 
L 709.511409 464.621332 
L 710.727364 458.559499 
L 711.94332 458.559499 
L 713.159275 452.497665 
L 714.37523 476.745 
L 716.807141 464.621332 
L 719.239052 476.745 
L 721.670963 452.497665 
L 722.886918 476.745 
L 724.102873 452.497665 
L 725.318829 470.683166 
L 726.534784 452.497665 
L 727.750739 446.435831 
L 728.966695 476.745 
L 731.398605 464.621332 
L 732.614561 464.621332 
L 733.830516 452.497665 
L 735.046471 476.745 
L 736.262427 470.683166 
L 737.478382 458.559499 
L 738.694337 470.683166 
L 739.910293 446.435831 
L 741.126248 470.683166 
L 742.342203 458.559499 
L 742.342203 458.559499 
" style="fill:none;stroke:#d4351c;stroke-linecap:square;stroke-width:2;"/>
   </g>
   <g id="patch_3">
    <path d="M 80.8625 476.745 
L 750.4625 476.745 
" style="fill:none;stroke:#000000;stroke-linecap:square;stroke-linejoin:miter;stroke-width:0.8;"/>
   </g>
   <g id="text_17">
    <!-- Deaths within 4 weeks of a positive COVID-19 test, per capita -->
    <g transform="translate(235.450625 27.225)scale(0.12 -0.12)">
     <defs>
      <path d="M 2055 0 
L 405 0 
L 405 4655 
L 2068 4655 
Q 2771 4655 3278 4376 
Q 3786 4098 4059 3577 
Q 4332 3057 4332 2332 
Q 4332 1605 4058 1082 
Q 3784 559 3274 279 
Q 2764 0 2055 0 
z
M 1389 843 
L 2014 843 
Q 2671 843 3010 1197 
Q 3350 1552 3350 2332 
Q 3350 3107 3010 3459 
Q 2671 3811 2016 3811 
L 1389 3811 
L 1389 843 
z
" id="Inter-Bold-44" transform="scale(0.015625)"/>
      <path d="M 1977 -68 
Q 1441 -68 1052 151 
Q 664 370 455 773 
Q 246 1177 246 1730 
Q 246 2268 455 2675 
Q 664 3082 1044 3309 
Q 1425 3536 1939 3536 
Q 2400 3536 2771 3340 
Q 3143 3145 3361 2751 
Q 3580 2357 3580 1764 
L 3580 1498 
L 1202 1498 
L 1202 1495 
Q 1202 1105 1416 880 
Q 1630 655 1993 655 
Q 2236 655 2413 757 
Q 2591 859 2664 1059 
L 3559 1000 
Q 3457 514 3041 223 
Q 2625 -68 1977 -68 
z
M 1202 2098 
L 2668 2098 
Q 2666 2409 2468 2611 
Q 2271 2814 1955 2814 
Q 1632 2814 1425 2604 
Q 1218 2395 1202 2098 
z
" id="Inter-Bold-65" transform="scale(0.015625)"/>
      <path d="M 1382 -66 
Q 882 -66 552 195 
Q 223 457 223 975 
Q 223 1366 407 1588 
Q 591 1811 890 1914 
Q 1189 2018 1534 2050 
Q 1989 2095 2184 2145 
Q 2380 2195 2380 2364 
L 2380 2377 
Q 2380 2593 2244 2711 
Q 2109 2830 1861 2830 
Q 1600 2830 1445 2716 
Q 1291 2602 1241 2427 
L 346 2500 
Q 446 2977 842 3256 
Q 1239 3536 1866 3536 
Q 2255 3536 2593 3413 
Q 2932 3291 3140 3030 
Q 3348 2770 3348 2355 
L 3348 0 
L 2430 0 
L 2430 484 
L 2402 484 
Q 2275 241 2021 87 
Q 1768 -66 1382 -66 
z
M 1659 602 
Q 1977 602 2181 787 
Q 2386 973 2386 1248 
L 2386 1618 
Q 2330 1580 2210 1550 
Q 2091 1520 1956 1498 
Q 1821 1477 1714 1461 
Q 1459 1425 1303 1318 
Q 1148 1211 1148 1007 
Q 1148 807 1292 704 
Q 1436 602 1659 602 
z
" id="Inter-Bold-61" transform="scale(0.015625)"/>
      <path d="M 2243 3491 
L 2243 2764 
L 1586 2764 
L 1586 1073 
Q 1586 873 1677 802 
Q 1768 732 1914 732 
Q 1982 732 2050 744 
Q 2118 757 2155 764 
L 2307 43 
Q 2234 20 2102 -10 
Q 1971 -41 1782 -48 
Q 1255 -70 935 181 
Q 616 432 618 945 
L 618 2764 
L 141 2764 
L 141 3491 
L 618 3491 
L 618 4327 
L 1586 4327 
L 1586 3491 
L 2243 3491 
z
" id="Inter-Bold-74" transform="scale(0.015625)"/>
      <path d="M 1355 2018 
L 1355 0 
L 386 0 
L 386 4655 
L 1327 4655 
L 1327 2875 
L 1368 2875 
Q 1489 3184 1751 3360 
Q 2014 3536 2411 3536 
Q 2957 3536 3289 3186 
Q 3621 2836 3618 2223 
L 3618 0 
L 2650 0 
L 2650 2050 
Q 2652 2373 2487 2552 
Q 2323 2732 2027 2732 
Q 1732 2732 1544 2544 
Q 1357 2357 1355 2018 
z
" id="Inter-Bold-68" transform="scale(0.015625)"/>
      <path d="M 3291 2495 
L 2405 2441 
Q 2368 2609 2220 2729 
Q 2073 2850 1821 2850 
Q 1596 2850 1440 2755 
Q 1284 2661 1286 2505 
Q 1284 2380 1385 2293 
Q 1486 2207 1730 2155 
L 2361 2027 
Q 3368 1820 3371 1082 
Q 3371 739 3169 479 
Q 2968 220 2618 76 
Q 2268 -68 1816 -68 
Q 1123 -68 711 221 
Q 300 511 232 1011 
L 1184 1061 
Q 1230 848 1394 739 
Q 1559 630 1818 630 
Q 2073 630 2228 730 
Q 2384 830 2386 984 
Q 2380 1243 1939 1332 
L 1334 1452 
Q 321 1655 325 2450 
Q 323 2955 728 3245 
Q 1134 3536 1805 3536 
Q 2466 3536 2846 3256 
Q 3227 2977 3291 2495 
z
" id="Inter-Bold-73" transform="scale(0.015625)"/>
      <path id="Inter-Bold-20" transform="scale(0.015625)"/>
      <path d="M 1075 0 
L 125 3491 
L 1105 3491 
L 1646 1145 
L 1677 1145 
L 2241 3491 
L 3202 3491 
L 3775 1159 
L 3805 1159 
L 4336 3491 
L 5314 3491 
L 4366 0 
L 3341 0 
L 2741 2195 
L 2698 2195 
L 2098 0 
L 1075 0 
z
" id="Inter-Bold-77" transform="scale(0.015625)"/>
      <path d="M 386 0 
L 386 3491 
L 1355 3491 
L 1355 0 
L 386 0 
z
M 876 3941 
Q 662 3941 507 4085 
Q 353 4230 353 4432 
Q 353 4634 507 4777 
Q 662 4920 876 4920 
Q 1092 4920 1246 4777 
Q 1401 4634 1401 4432 
Q 1401 4230 1246 4085 
Q 1092 3941 876 3941 
z
" id="Inter-Bold-69" transform="scale(0.015625)"/>
      <path d="M 1355 2018 
L 1355 0 
L 386 0 
L 386 3491 
L 1309 3491 
L 1309 2875 
L 1350 2875 
Q 1468 3180 1739 3358 
Q 2011 3536 2400 3536 
Q 2946 3536 3275 3185 
Q 3605 2834 3605 2223 
L 3605 0 
L 2636 0 
L 2636 2050 
Q 2639 2370 2473 2551 
Q 2307 2732 2016 2732 
Q 1723 2732 1540 2544 
Q 1357 2357 1355 2018 
z
" id="Inter-Bold-6e" transform="scale(0.015625)"/>
      <path d="M 307 818 
L 307 1593 
L 2250 4655 
L 3482 4655 
L 3482 1607 
L 4059 1607 
L 4059 818 
L 3482 818 
L 3482 0 
L 2541 0 
L 2541 818 
L 307 818 
z
M 2559 1607 
L 2559 3582 
L 2523 3582 
L 1298 1643 
L 1298 1607 
L 2559 1607 
z
" id="Inter-Bold-34" transform="scale(0.015625)"/>
      <path d="M 386 0 
L 386 4655 
L 1355 4655 
L 1355 2166 
L 1407 2166 
L 2525 3491 
L 3636 3491 
L 2341 1980 
L 3702 0 
L 2568 0 
L 1616 1407 
L 1355 1109 
L 1355 0 
L 386 0 
z
" id="Inter-Bold-6b" transform="scale(0.015625)"/>
      <path d="M 1964 -68 
Q 1434 -68 1049 158 
Q 664 384 455 789 
Q 246 1195 246 1732 
Q 246 2273 455 2678 
Q 664 3084 1049 3310 
Q 1434 3536 1964 3536 
Q 2493 3536 2878 3310 
Q 3264 3084 3473 2678 
Q 3682 2273 3682 1732 
Q 3682 1195 3473 789 
Q 3264 384 2878 158 
Q 2493 -68 1964 -68 
z
M 1968 682 
Q 2327 682 2512 982 
Q 2698 1282 2698 1739 
Q 2698 2195 2512 2496 
Q 2327 2798 1968 2798 
Q 1602 2798 1416 2496 
Q 1230 2195 1230 1739 
Q 1230 1282 1416 982 
Q 1602 682 1968 682 
z
" id="Inter-Bold-6f" transform="scale(0.015625)"/>
      <path d="M 2296 3491 
L 2296 2764 
L 1602 2764 
L 1602 0 
L 634 0 
L 634 2764 
L 141 2764 
L 141 3491 
L 634 3491 
L 634 3743 
Q 634 4314 960 4593 
Q 1286 4873 1780 4873 
Q 2002 4873 2187 4839 
Q 2373 4805 2464 4777 
L 2293 4050 
Q 2236 4068 2152 4084 
Q 2068 4100 1982 4100 
Q 1768 4100 1685 4001 
Q 1602 3902 1602 3725 
L 1602 3491 
L 2296 3491 
z
" id="Inter-Bold-66" transform="scale(0.015625)"/>
      <path d="M 386 -1309 
L 386 3491 
L 1341 3491 
L 1341 2905 
L 1384 2905 
Q 1450 3048 1570 3193 
Q 1691 3339 1888 3437 
Q 2086 3536 2377 3536 
Q 2761 3536 3081 3337 
Q 3402 3139 3596 2740 
Q 3791 2341 3791 1741 
Q 3791 1157 3602 756 
Q 3414 355 3093 149 
Q 2773 -57 2375 -57 
Q 2093 -57 1896 36 
Q 1700 130 1576 272 
Q 1452 414 1384 559 
L 1355 559 
L 1355 -1309 
L 386 -1309 
z
M 1334 1745 
Q 1334 1280 1526 997 
Q 1718 714 2068 714 
Q 2425 714 2613 1001 
Q 2802 1289 2802 1745 
Q 2802 2200 2614 2483 
Q 2427 2766 2068 2766 
Q 1716 2766 1525 2490 
Q 1334 2214 1334 1745 
z
" id="Inter-Bold-70" transform="scale(0.015625)"/>
      <path d="M 3641 3491 
L 2421 0 
L 1330 0 
L 109 3491 
L 1132 3491 
L 1857 993 
L 1893 993 
L 2616 3491 
L 3641 3491 
z
" id="Inter-Bold-76" transform="scale(0.015625)"/>
      <path d="M 4511 3025 
L 3516 3025 
Q 3459 3409 3188 3628 
Q 2918 3848 2514 3848 
Q 1973 3848 1647 3451 
Q 1321 3055 1321 2327 
Q 1321 1582 1649 1194 
Q 1977 807 2507 807 
Q 2900 807 3173 1012 
Q 3446 1218 3516 1591 
L 4511 1586 
Q 4459 1159 4207 782 
Q 3955 405 3522 170 
Q 3089 -64 2491 -64 
Q 1868 -64 1378 218 
Q 889 500 606 1034 
Q 323 1568 323 2327 
Q 323 3089 609 3623 
Q 896 4157 1386 4437 
Q 1877 4718 2491 4718 
Q 3030 4718 3463 4519 
Q 3896 4320 4172 3942 
Q 4448 3564 4511 3025 
z
" id="Inter-Bold-43" transform="scale(0.015625)"/>
      <path d="M 4682 2327 
Q 4682 1566 4394 1032 
Q 4107 498 3614 217 
Q 3121 -64 2502 -64 
Q 1882 -64 1389 218 
Q 896 500 609 1035 
Q 323 1570 323 2327 
Q 323 3089 609 3623 
Q 896 4157 1389 4437 
Q 1882 4718 2502 4718 
Q 3121 4718 3614 4437 
Q 4107 4157 4394 3623 
Q 4682 3089 4682 2327 
z
M 3684 2327 
Q 3684 3068 3361 3458 
Q 3039 3848 2502 3848 
Q 1966 3848 1643 3458 
Q 1321 3068 1321 2327 
Q 1321 1589 1643 1198 
Q 1966 807 2502 807 
Q 3039 807 3361 1198 
Q 3684 1589 3684 2327 
z
" id="Inter-Bold-4f" transform="scale(0.015625)"/>
      <path d="M 1246 4655 
L 2371 1118 
L 2414 1118 
L 3541 4655 
L 4632 4655 
L 3027 0 
L 1759 0 
L 152 4655 
L 1246 4655 
z
" id="Inter-Bold-56" transform="scale(0.015625)"/>
      <path d="M 1389 4655 
L 1389 0 
L 405 0 
L 405 4655 
L 1389 4655 
z
" id="Inter-Bold-49" transform="scale(0.015625)"/>
      <path d="M 2561 2295 
L 2561 1527 
L 439 1527 
L 439 2295 
L 2561 2295 
z
" id="Inter-Bold-2d" transform="scale(0.015625)"/>
      <path d="M 2305 4655 
L 2305 0 
L 1323 0 
L 1323 3450 
L 1280 3450 
Q 1205 3334 961 3219 
Q 718 3105 332 3105 
L 332 3886 
Q 632 3886 857 4019 
Q 1082 4152 1209 4333 
Q 1336 4514 1341 4655 
L 2305 4655 
z
" id="Inter-Bold-31" transform="scale(0.015625)"/>
      <path d="M 2061 4732 
Q 2421 4732 2753 4612 
Q 3086 4493 3348 4227 
Q 3611 3961 3766 3523 
Q 3921 3086 3921 2448 
Q 3921 1659 3686 1096 
Q 3452 534 3028 235 
Q 2605 -64 2027 -64 
Q 1561 -64 1204 117 
Q 848 298 631 610 
Q 414 923 368 1314 
L 1339 1314 
Q 1396 1059 1577 919 
Q 1759 780 2027 780 
Q 2482 780 2718 1176 
Q 2955 1573 2957 2264 
L 2925 2264 
Q 2771 1957 2453 1782 
Q 2136 1607 1752 1607 
Q 1341 1607 1016 1801 
Q 691 1995 506 2334 
Q 321 2673 323 3109 
Q 321 3582 539 3949 
Q 757 4316 1149 4525 
Q 1541 4734 2061 4732 
z
M 2068 3959 
Q 1725 3959 1500 3722 
Q 1275 3486 1277 3136 
Q 1275 2791 1496 2555 
Q 1718 2320 2059 2320 
Q 2284 2320 2465 2431 
Q 2646 2543 2751 2729 
Q 2857 2916 2859 3141 
Q 2857 3366 2753 3551 
Q 2650 3736 2473 3847 
Q 2296 3959 2068 3959 
z
" id="Inter-Bold-39" transform="scale(0.015625)"/>
      <path d="M 1439 636 
L 1414 386 
Q 1384 86 1301 -212 
Q 1218 -511 1128 -754 
Q 1039 -998 984 -1136 
L 357 -1136 
Q 391 -1002 450 -763 
Q 509 -525 561 -226 
Q 614 73 627 382 
L 639 636 
L 1439 636 
z
" id="Inter-Bold-2c" transform="scale(0.015625)"/>
      <path d="M 386 0 
L 386 3491 
L 1325 3491 
L 1325 2882 
L 1361 2882 
Q 1457 3207 1681 3374 
Q 1905 3541 2200 3541 
Q 2341 3541 2461 3507 
Q 2582 3473 2677 3414 
L 2386 2614 
Q 2318 2648 2237 2671 
Q 2157 2695 2057 2695 
Q 1764 2695 1560 2495 
Q 1357 2295 1355 1975 
L 1355 0 
L 386 0 
z
" id="Inter-Bold-72" transform="scale(0.015625)"/>
      <path d="M 1964 -68 
Q 1427 -68 1042 160 
Q 657 389 451 795 
Q 246 1202 246 1732 
Q 246 2268 453 2674 
Q 661 3080 1045 3308 
Q 1430 3536 1959 3536 
Q 2416 3536 2760 3370 
Q 3105 3205 3303 2905 
Q 3502 2605 3523 2200 
L 2609 2200 
Q 2571 2461 2406 2621 
Q 2241 2782 1975 2782 
Q 1639 2782 1434 2511 
Q 1230 2241 1230 1745 
Q 1230 1245 1433 971 
Q 1636 698 1975 698 
Q 2225 698 2395 849 
Q 2566 1000 2609 1280 
L 3523 1280 
Q 3500 880 3305 575 
Q 3111 270 2770 101 
Q 2430 -68 1964 -68 
z
" id="Inter-Bold-63" transform="scale(0.015625)"/>
     </defs>
     <use xlink:href="#Inter-Bold-44"/>
     <use x="72.727295" xlink:href="#Inter-Bold-65"/>
     <use x="132.492935" xlink:href="#Inter-Bold-61"/>
     <use x="190.518509" xlink:href="#Inter-Bold-74"/>
     <use x="229.36795" xlink:href="#Inter-Bold-68"/>
     <use x="291.796936" xlink:href="#Inter-Bold-73"/>
     <use x="347.975922" xlink:href="#Inter-Bold-20"/>
     <use x="371.164841" xlink:href="#Inter-Bold-77"/>
     <use x="456.179062" xlink:href="#Inter-Bold-69"/>
     <use x="483.380768" xlink:href="#Inter-Bold-74"/>
     <use x="522.230209" xlink:href="#Inter-Bold-68"/>
     <use x="584.659195" xlink:href="#Inter-Bold-69"/>
     <use x="611.860901" xlink:href="#Inter-Bold-6e"/>
     <use x="674.041306" xlink:href="#Inter-Bold-20"/>
     <use x="697.230225" xlink:href="#Inter-Bold-34"/>
     <use x="765.021439" xlink:href="#Inter-Bold-20"/>
     <use x="788.210358" xlink:href="#Inter-Bold-77"/>
     <use x="873.224579" xlink:href="#Inter-Bold-65"/>
     <use x="932.990219" xlink:href="#Inter-Bold-65"/>
     <use x="992.755859" xlink:href="#Inter-Bold-6b"/>
     <use x="1050.923477" xlink:href="#Inter-Bold-73"/>
     <use x="1107.102463" xlink:href="#Inter-Bold-20"/>
     <use x="1130.291382" xlink:href="#Inter-Bold-6f"/>
     <use x="1191.655029" xlink:href="#Inter-Bold-66"/>
     <use x="1230.717529" xlink:href="#Inter-Bold-20"/>
     <use x="1253.906448" xlink:href="#Inter-Bold-61"/>
     <use x="1311.932022" xlink:href="#Inter-Bold-20"/>
     <use x="1335.120941" xlink:href="#Inter-Bold-70"/>
     <use x="1398.366699" xlink:href="#Inter-Bold-6f"/>
     <use x="1459.730347" xlink:href="#Inter-Bold-73"/>
     <use x="1515.909332" xlink:href="#Inter-Bold-69"/>
     <use x="1543.111038" xlink:href="#Inter-Bold-74"/>
     <use x="1581.96048" xlink:href="#Inter-Bold-69"/>
     <use x="1609.162186" xlink:href="#Inter-Bold-76"/>
     <use x="1667.755951" xlink:href="#Inter-Bold-65"/>
     <use x="1727.521591" xlink:href="#Inter-Bold-20"/>
     <use x="1750.71051" xlink:href="#Inter-Bold-43"/>
     <use x="1825.923599" xlink:href="#Inter-Bold-4f"/>
     <use x="1904.119644" xlink:href="#Inter-Bold-56"/>
     <use x="1978.906586" xlink:href="#Inter-Bold-49"/>
     <use x="2006.960571" xlink:href="#Inter-Bold-44"/>
     <use x="2079.687866" xlink:href="#Inter-Bold-2d"/>
     <use x="2126.562881" xlink:href="#Inter-Bold-31"/>
     <use x="2173.970566" xlink:href="#Inter-Bold-39"/>
     <use x="2239.986206" xlink:href="#Inter-Bold-20"/>
     <use x="2263.175125" xlink:href="#Inter-Bold-74"/>
     <use x="2302.024567" xlink:href="#Inter-Bold-65"/>
     <use x="2361.790207" xlink:href="#Inter-Bold-73"/>
     <use x="2417.969193" xlink:href="#Inter-Bold-74"/>
     <use x="2456.818634" xlink:href="#Inter-Bold-2c"/>
     <use x="2487.109833" xlink:href="#Inter-Bold-20"/>
     <use x="2510.298752" xlink:href="#Inter-Bold-70"/>
     <use x="2573.54451" xlink:href="#Inter-Bold-65"/>
     <use x="2633.31015" xlink:href="#Inter-Bold-72"/>
     <use x="2676.172379" xlink:href="#Inter-Bold-20"/>
     <use x="2699.361298" xlink:href="#Inter-Bold-63"/>
     <use x="2758.097107" xlink:href="#Inter-Bold-61"/>
     <use x="2816.122681" xlink:href="#Inter-Bold-70"/>
     <use x="2879.368439" xlink:href="#Inter-Bold-69"/>
     <use x="2906.570145" xlink:href="#Inter-Bold-74"/>
     <use x="2945.419586" xlink:href="#Inter-Bold-61"/>
    </g>
   </g>
   <g id="legend_1">
    <g id="patch_4">
     <path d="M 633.889063 98.614062 
L 743.4625 98.614062 
Q 745.4625 98.614062 745.4625 96.614062 
L 745.4625 40.225 
Q 745.4625 38.225 743.4625 38.225 
L 633.889063 38.225 
Q 631.889063 38.225 631.889063 40.225 
L 631.889063 96.614062 
Q 631.889063 98.614062 633.889063 98.614062 
z
" style="fill:#ffffff;opacity:0.8;stroke:#cccccc;stroke-linejoin:miter;"/>
    </g>
    <g id="line2d_34">
     <path d="M 635.889063 45.998437 
L 655.889063 45.998437 
" style="fill:none;stroke:#d4351c;stroke-linecap:square;stroke-width:2;"/>
    </g>
    <g id="line2d_35"/>
    <g id="text_18">
     <!-- Wales -->
     <g transform="translate(663.889063 49.498437)scale(0.1 -0.1)">
      <defs>
       <path d="M 1409 0 
L 136 4655 
L 709 4655 
L 1682 864 
L 1727 864 
L 2718 4655 
L 3355 4655 
L 4346 864 
L 4391 864 
L 5364 4655 
L 5936 4655 
L 4664 0 
L 4082 0 
L 3055 3709 
L 3018 3709 
L 1991 0 
L 1409 0 
z
" id="Inter-Regular-57" transform="scale(0.015625)"/>
      </defs>
      <use xlink:href="#Inter-Regular-57"/>
      <use x="94.886383" xlink:href="#Inter-Regular-61"/>
      <use x="151.278442" xlink:href="#Inter-Regular-6c"/>
      <use x="175.000031" xlink:href="#Inter-Regular-65"/>
      <use x="233.238678" xlink:href="#Inter-Regular-73"/>
     </g>
    </g>
    <g id="line2d_36">
     <path d="M 635.889063 60.317187 
L 655.889063 60.317187 
" style="fill:none;stroke:#003078;stroke-linecap:square;stroke-width:2;"/>
    </g>
    <g id="line2d_37"/>
    <g id="text_19">
     <!-- Scotland -->
     <g transform="translate(663.889063 63.817187)scale(0.1 -0.1)">
      <use xlink:href="#Inter-Regular-53"/>
      <use x="63.778427" xlink:href="#Inter-Regular-63"/>
      <use x="119.602295" xlink:href="#Inter-Regular-6f"/>
      <use x="179.261398" xlink:href="#Inter-Regular-74"/>
      <use x="215.625046" xlink:href="#Inter-Regular-6c"/>
      <use x="239.346634" xlink:href="#Inter-Regular-61"/>
      <use x="295.738693" xlink:href="#Inter-Regular-6e"/>
      <use x="354.261429" xlink:href="#Inter-Regular-64"/>
     </g>
    </g>
    <g id="line2d_38">
     <path d="M 635.889063 74.635937 
L 655.889063 74.635937 
" style="fill:none;stroke:#ffdd00;stroke-linecap:square;stroke-width:2;"/>
    </g>
    <g id="line2d_39"/>
    <g id="text_20">
     <!-- Northern Ireland -->
     <g transform="translate(663.889063 78.135937)scale(0.1 -0.1)">
      <defs>
       <path d="M 1127 4655 
L 1127 0 
L 564 0 
L 564 4655 
L 1127 4655 
z
" id="Inter-Regular-49" transform="scale(0.015625)"/>
      </defs>
      <use xlink:href="#Inter-Regular-4e"/>
      <use x="75.284103" xlink:href="#Inter-Regular-6f"/>
      <use x="134.943207" xlink:href="#Inter-Regular-72"/>
      <use x="173.295486" xlink:href="#Inter-Regular-74"/>
      <use x="209.659134" xlink:href="#Inter-Regular-68"/>
      <use x="268.750061" xlink:href="#Inter-Regular-65"/>
      <use x="326.988708" xlink:href="#Inter-Regular-72"/>
      <use x="365.340988" xlink:href="#Inter-Regular-6e"/>
      <use x="423.863724" xlink:href="#Inter-Regular-20"/>
      <use x="451.988724" xlink:href="#Inter-Regular-49"/>
      <use x="478.40918" xlink:href="#Inter-Regular-72"/>
      <use x="516.761459" xlink:href="#Inter-Regular-65"/>
      <use x="575.000107" xlink:href="#Inter-Regular-6c"/>
      <use x="598.721695" xlink:href="#Inter-Regular-61"/>
      <use x="655.113754" xlink:href="#Inter-Regular-6e"/>
      <use x="713.63649" xlink:href="#Inter-Regular-64"/>
     </g>
    </g>
    <g id="line2d_40">
     <path d="M 635.889063 88.954687 
L 655.889063 88.954687 
" style="fill:none;stroke:#5694ca;stroke-linecap:square;stroke-width:2;"/>
    </g>
    <g id="line2d_41"/>
    <g id="text_21">
     <!-- England -->
     <g transform="translate(663.889063 92.454687)scale(0.1 -0.1)">
      <defs>
       <path d="M 564 0 
L 564 4655 
L 3373 4655 
L 3373 4155 
L 1127 4155 
L 1127 2582 
L 3227 2582 
L 3227 2082 
L 1127 2082 
L 1127 500 
L 3409 500 
L 3409 0 
L 564 0 
z
" id="Inter-Regular-45" transform="scale(0.015625)"/>
       <path d="M 1900 -1382 
Q 1316 -1382 976 -1169 
Q 636 -957 473 -682 
L 900 -382 
Q 973 -477 1084 -601 
Q 1196 -725 1390 -817 
Q 1584 -909 1900 -909 
Q 2323 -909 2598 -704 
Q 2873 -500 2873 -64 
L 2873 645 
L 2827 645 
Q 2768 550 2660 410 
Q 2552 270 2351 162 
Q 2150 55 1809 55 
Q 1386 55 1051 255 
Q 716 455 521 836 
Q 327 1218 327 1764 
Q 327 2300 516 2699 
Q 705 3098 1041 3317 
Q 1377 3536 1818 3536 
Q 2159 3536 2360 3423 
Q 2561 3311 2669 3169 
Q 2777 3027 2836 2936 
L 2891 2936 
L 2891 3491 
L 3409 3491 
L 3409 -100 
Q 3409 -550 3205 -833 
Q 3002 -1116 2660 -1249 
Q 2318 -1382 1900 -1382 
z
M 1882 536 
Q 2366 536 2624 864 
Q 2882 1193 2882 1773 
Q 2882 2339 2627 2697 
Q 2373 3055 1882 3055 
Q 1541 3055 1315 2882 
Q 1089 2709 976 2418 
Q 864 2127 864 1773 
Q 864 1227 1120 881 
Q 1377 536 1882 536 
z
" id="Inter-Regular-67" transform="scale(0.015625)"/>
      </defs>
      <use xlink:href="#Inter-Regular-45"/>
      <use x="59.801147" xlink:href="#Inter-Regular-6e"/>
      <use x="118.323883" xlink:href="#Inter-Regular-67"/>
      <use x="179.261398" xlink:href="#Inter-Regular-6c"/>
      <use x="202.982986" xlink:href="#Inter-Regular-61"/>
      <use x="259.375046" xlink:href="#Inter-Regular-6e"/>
      <use x="317.897781" xlink:href="#Inter-Regular-64"/>
     </g>
    </g>
   </g>
  </g>
 </g>
 <defs>
  <clipPath id="pe6ae14dc43">
   <rect height="443.52" width="669.6" x="80.8625" y="33.225"/>
  </clipPath>
 </defs>
</svg>
