<?xml version="1.0" encoding="utf-8" standalone="no"?>
<!DOCTYPE svg PUBLIC "-//W3C//DTD SVG 1.1//EN"
  "http://www.w3.org/Graphics/SVG/1.1/DTD/svg11.dtd">
<svg xmlns:xlink="http://www.w3.org/1999/xlink" viewBox="0 0 746.998437 511.234062" xmlns="http://www.w3.org/2000/svg" version="1.1">
 <metadata>
  <rdf:RDF xmlns:dc="http://purl.org/dc/elements/1.1/" xmlns:cc="http://creativecommons.org/ns#" xmlns:rdf="http://www.w3.org/1999/02/22-rdf-syntax-ns#">
   <cc:Work>
    <dc:type rdf:resource="http://purl.org/dc/dcmitype/StillImage"/>
    <dc:date>2022-02-23T17:15:24.241764</dc:date>
    <dc:format>image/svg+xml</dc:format>
    <dc:creator>
     <cc:Agent>
      <dc:title>Matplotlib v3.5.1, https://matplotlib.org/</dc:title>
     </cc:Agent>
    </dc:creator>
   </cc:Work>
  </rdf:RDF>
 </metadata>
 <defs>
  <style type="text/css">*{stroke-linejoin: round; stroke-linecap: butt}</style>
 </defs>
 <g id="figure_1">
  <g id="patch_1">
   <path d="M 0 511.234062 
L 746.998437 511.234062 
L 746.998437 0 
L 0 0 
z
" style="fill: #ffffff"/>
  </g>
  <g id="axes_1">
   <g id="patch_2">
    <path d="M 59.398438 476.745 
L 728.998438 476.745 
L 728.998438 33.225 
L 59.398438 33.225 
z
" style="fill: #ffffff"/>
   </g>
   <g id="matplotlib.axis_1">
    <g id="xtick_1">
     <g id="line2d_1">
      <defs>
       <path id="ma81a9a46b4" d="M 0 0 
L 0 3.5 
" style="stroke: #000000; stroke-width: 0.8"/>
      </defs>
      <g>
       <use xlink:href="#ma81a9a46b4" x="59.398438" y="476.745" style="stroke: #000000; stroke-width: 0.8"/>
      </g>
     </g>
     <g id="text_1">
      <!-- 01 Mar -->
      <g transform="translate(43.361719 491.018437)scale(0.1 -0.1)">
       <defs>
        <path id="Inter-Regular-30" d="M 2000 -64 
Q 1230 -64 806 561 
Q 382 1186 382 2327 
Q 382 3459 809 4088 
Q 1236 4718 2000 4718 
Q 2764 4718 3191 4088 
Q 3618 3459 3618 2327 
Q 3618 1186 3194 561 
Q 2771 -64 2000 -64 
z
M 2000 436 
Q 2509 436 2791 927 
Q 3073 1418 3073 2327 
Q 3073 3234 2789 3730 
Q 2505 4227 2000 4227 
Q 1496 4227 1211 3730 
Q 927 3234 927 2327 
Q 927 1418 1210 927 
Q 1493 436 2000 436 
z
" transform="scale(0.015625)"/>
        <path id="Inter-Regular-31" d="M 1973 4655 
L 1973 0 
L 1409 0 
L 1409 3836 
L 1373 3836 
Q 1341 3773 1209 3692 
Q 1077 3611 868 3551 
Q 659 3491 391 3491 
L 391 3964 
Q 661 3964 859 4061 
Q 1057 4159 1190 4291 
Q 1323 4423 1392 4529 
Q 1461 4636 1473 4655 
L 1973 4655 
z
" transform="scale(0.015625)"/>
        <path id="Inter-Regular-20" transform="scale(0.015625)"/>
        <path id="Inter-Regular-4d" d="M 564 4655 
L 1236 4655 
L 2818 791 
L 2873 791 
L 4455 4655 
L 5127 4655 
L 5127 0 
L 4600 0 
L 4600 3536 
L 4555 3536 
L 3100 0 
L 2591 0 
L 1136 3536 
L 1091 3536 
L 1091 0 
L 564 0 
L 564 4655 
z
" transform="scale(0.015625)"/>
        <path id="Inter-Regular-61" d="M 1518 -82 
Q 1186 -82 916 44 
Q 646 170 486 410 
Q 327 650 327 991 
Q 327 1291 445 1478 
Q 564 1666 761 1773 
Q 959 1880 1199 1933 
Q 1439 1986 1682 2018 
Q 2000 2059 2199 2080 
Q 2398 2102 2490 2154 
Q 2582 2207 2582 2336 
L 2582 2355 
Q 2582 2691 2399 2877 
Q 2216 3064 1846 3064 
Q 1461 3064 1243 2895 
Q 1025 2727 936 2536 
L 427 2718 
Q 564 3036 792 3214 
Q 1021 3393 1292 3464 
Q 1564 3536 1827 3536 
Q 1996 3536 2215 3496 
Q 2434 3457 2640 3334 
Q 2846 3211 2982 2963 
Q 3118 2716 3118 2300 
L 3118 0 
L 2582 0 
L 2582 473 
L 2555 473 
Q 2500 359 2373 229 
Q 2246 100 2034 9 
Q 1823 -82 1518 -82 
z
M 1600 400 
Q 1918 400 2137 525 
Q 2357 650 2469 847 
Q 2582 1045 2582 1264 
L 2582 1755 
Q 2548 1714 2433 1681 
Q 2318 1648 2169 1624 
Q 2021 1600 1881 1583 
Q 1741 1566 1655 1555 
Q 1446 1527 1265 1467 
Q 1084 1407 974 1287 
Q 864 1168 864 964 
Q 864 684 1072 542 
Q 1280 400 1600 400 
z
" transform="scale(0.015625)"/>
        <path id="Inter-Regular-72" d="M 491 0 
L 491 3491 
L 1009 3491 
L 1009 2964 
L 1046 2964 
Q 1139 3223 1389 3384 
Q 1639 3545 1955 3545 
Q 2100 3545 2209 3511 
Q 2318 3477 2400 3418 
L 2218 2964 
Q 2161 2993 2085 3010 
Q 2009 3027 1909 3027 
Q 1527 3027 1277 2794 
Q 1027 2561 1027 2209 
L 1027 0 
L 491 0 
z
" transform="scale(0.015625)"/>
       </defs>
       <use xlink:href="#Inter-Regular-30"/>
       <use xlink:href="#Inter-Regular-31" x="62.500015"/>
       <use xlink:href="#Inter-Regular-20" x="106.676163"/>
       <use xlink:href="#Inter-Regular-4d" x="134.801163"/>
       <use xlink:href="#Inter-Regular-61" x="225.99437"/>
       <use xlink:href="#Inter-Regular-72" x="282.386429"/>
      </g>
     </g>
    </g>
    <g id="xtick_2">
     <g id="line2d_2">
      <g>
       <use xlink:href="#ma81a9a46b4" x="88.04076" y="476.745" style="stroke: #000000; stroke-width: 0.8"/>
      </g>
     </g>
    </g>
    <g id="xtick_3">
     <g id="line2d_3">
      <g>
       <use xlink:href="#ma81a9a46b4" x="115.759136" y="476.745" style="stroke: #000000; stroke-width: 0.8"/>
      </g>
     </g>
     <g id="text_2">
      <!-- 01 May -->
      <g transform="translate(98.856011 491.116875)scale(0.1 -0.1)">
       <defs>
        <path id="Inter-Regular-79" d="M 818 -1355 
Q 682 -1355 575 -1333 
Q 468 -1311 427 -1291 
L 564 -818 
Q 857 -893 1053 -814 
Q 1250 -736 1391 -345 
L 1509 -18 
L 218 3491 
L 800 3491 
L 1764 709 
L 1800 709 
L 2764 3491 
L 3346 3491 
L 1846 -564 
Q 1550 -1355 818 -1355 
z
" transform="scale(0.015625)"/>
       </defs>
       <use xlink:href="#Inter-Regular-30"/>
       <use xlink:href="#Inter-Regular-31" x="62.500015"/>
       <use xlink:href="#Inter-Regular-20" x="106.676163"/>
       <use xlink:href="#Inter-Regular-4d" x="134.801163"/>
       <use xlink:href="#Inter-Regular-61" x="225.99437"/>
       <use xlink:href="#Inter-Regular-79" x="282.386429"/>
      </g>
     </g>
    </g>
    <g id="xtick_4">
     <g id="line2d_4">
      <g>
       <use xlink:href="#ma81a9a46b4" x="144.401459" y="476.745" style="stroke: #000000; stroke-width: 0.8"/>
      </g>
     </g>
    </g>
    <g id="xtick_5">
     <g id="line2d_5">
      <g>
       <use xlink:href="#ma81a9a46b4" x="172.119835" y="476.745" style="stroke: #000000; stroke-width: 0.8"/>
      </g>
     </g>
     <g id="text_3">
      <!-- 01 Jul -->
      <g transform="translate(158.576085 491.018437)scale(0.1 -0.1)">
       <defs>
        <path id="Inter-Regular-4a" d="M 2346 4655 
L 2909 4655 
L 2909 1327 
Q 2909 657 2549 296 
Q 2189 -64 1582 -64 
Q 1200 -64 902 76 
Q 605 216 434 475 
Q 264 734 264 1091 
L 818 1091 
Q 818 795 1034 615 
Q 1250 436 1582 436 
Q 1948 436 2147 664 
Q 2346 893 2346 1327 
L 2346 4655 
z
" transform="scale(0.015625)"/>
        <path id="Inter-Regular-75" d="M 2691 1427 
L 2691 3491 
L 3227 3491 
L 3227 0 
L 2691 0 
L 2691 591 
L 2655 591 
Q 2532 325 2273 140 
Q 2014 -45 1618 -45 
Q 1127 -45 809 280 
Q 491 605 491 1273 
L 491 3491 
L 1027 3491 
L 1027 1309 
Q 1027 927 1242 700 
Q 1457 473 1791 473 
Q 1991 473 2199 575 
Q 2407 677 2549 888 
Q 2691 1100 2691 1427 
z
" transform="scale(0.015625)"/>
        <path id="Inter-Regular-6c" d="M 1027 4655 
L 1027 0 
L 491 0 
L 491 4655 
L 1027 4655 
z
" transform="scale(0.015625)"/>
       </defs>
       <use xlink:href="#Inter-Regular-30"/>
       <use xlink:href="#Inter-Regular-31" x="62.500015"/>
       <use xlink:href="#Inter-Regular-20" x="106.676163"/>
       <use xlink:href="#Inter-Regular-4a" x="134.801163"/>
       <use xlink:href="#Inter-Regular-75" x="189.062531"/>
       <use xlink:href="#Inter-Regular-6c" x="247.159134"/>
      </g>
     </g>
    </g>
    <g id="xtick_6">
     <g id="line2d_6">
      <g>
       <use xlink:href="#ma81a9a46b4" x="200.762158" y="476.745" style="stroke: #000000; stroke-width: 0.8"/>
      </g>
     </g>
    </g>
    <g id="xtick_7">
     <g id="line2d_7">
      <g>
       <use xlink:href="#ma81a9a46b4" x="229.40448" y="476.745" style="stroke: #000000; stroke-width: 0.8"/>
      </g>
     </g>
     <g id="text_4">
      <!-- 01 Sep -->
      <g transform="translate(213.51698 491.116875)scale(0.1 -0.1)">
       <defs>
        <path id="Inter-Regular-53" d="M 3109 3491 
Q 3068 3836 2777 4027 
Q 2486 4218 2064 4218 
Q 1600 4218 1318 3999 
Q 1036 3780 1036 3445 
Q 1036 3195 1189 3042 
Q 1343 2889 1553 2803 
Q 1764 2718 1936 2673 
L 2409 2545 
Q 2591 2498 2815 2414 
Q 3039 2330 3244 2185 
Q 3450 2041 3584 1816 
Q 3718 1591 3718 1264 
Q 3718 886 3521 581 
Q 3325 277 2949 97 
Q 2573 -82 2036 -82 
Q 1286 -82 845 272 
Q 405 627 364 1200 
L 946 1200 
Q 968 936 1124 764 
Q 1280 593 1519 510 
Q 1759 427 2036 427 
Q 2359 427 2616 533 
Q 2873 639 3023 828 
Q 3173 1018 3173 1273 
Q 3173 1505 3043 1650 
Q 2914 1795 2702 1886 
Q 2491 1977 2246 2045 
L 1673 2209 
Q 1127 2366 809 2657 
Q 491 2948 491 3418 
Q 491 3809 703 4101 
Q 916 4393 1276 4555 
Q 1636 4718 2082 4718 
Q 2532 4718 2882 4558 
Q 3232 4398 3437 4120 
Q 3643 3843 3655 3491 
L 3109 3491 
z
" transform="scale(0.015625)"/>
        <path id="Inter-Regular-65" d="M 1955 -73 
Q 1450 -73 1085 151 
Q 721 375 524 778 
Q 327 1182 327 1718 
Q 327 2255 524 2665 
Q 721 3075 1074 3305 
Q 1427 3536 1900 3536 
Q 2173 3536 2439 3445 
Q 2705 3355 2923 3151 
Q 3141 2948 3270 2614 
Q 3400 2280 3400 1791 
L 3400 1564 
L 866 1564 
Q 884 1005 1183 707 
Q 1482 409 1955 409 
Q 2271 409 2498 545 
Q 2725 682 2827 955 
L 3346 809 
Q 3223 414 2854 170 
Q 2486 -73 1955 -73 
z
M 866 2027 
L 2855 2027 
Q 2855 2470 2595 2762 
Q 2336 3055 1900 3055 
Q 1593 3055 1368 2911 
Q 1143 2768 1013 2533 
Q 884 2298 866 2027 
z
" transform="scale(0.015625)"/>
        <path id="Inter-Regular-70" d="M 491 -1309 
L 491 3491 
L 1009 3491 
L 1009 2936 
L 1073 2936 
Q 1132 3027 1237 3169 
Q 1343 3311 1542 3423 
Q 1741 3536 2082 3536 
Q 2523 3536 2859 3315 
Q 3196 3095 3384 2690 
Q 3573 2286 3573 1736 
Q 3573 1182 3384 776 
Q 3196 370 2861 148 
Q 2527 -73 2091 -73 
Q 1755 -73 1552 39 
Q 1350 152 1241 296 
Q 1132 441 1073 536 
L 1027 536 
L 1027 -1309 
L 491 -1309 
z
M 1018 1745 
Q 1018 1152 1276 780 
Q 1534 409 2018 409 
Q 2355 409 2581 587 
Q 2807 766 2921 1069 
Q 3036 1373 3036 1745 
Q 3036 2114 2923 2410 
Q 2811 2707 2585 2881 
Q 2359 3055 2018 3055 
Q 1527 3055 1272 2693 
Q 1018 2332 1018 1745 
z
" transform="scale(0.015625)"/>
       </defs>
       <use xlink:href="#Inter-Regular-30"/>
       <use xlink:href="#Inter-Regular-31" x="62.500015"/>
       <use xlink:href="#Inter-Regular-20" x="106.676163"/>
       <use xlink:href="#Inter-Regular-53" x="134.801163"/>
       <use xlink:href="#Inter-Regular-65" x="198.57959"/>
       <use xlink:href="#Inter-Regular-70" x="256.818237"/>
      </g>
     </g>
    </g>
    <g id="xtick_8">
     <g id="line2d_8">
      <g>
       <use xlink:href="#ma81a9a46b4" x="257.122857" y="476.745" style="stroke: #000000; stroke-width: 0.8"/>
      </g>
     </g>
    </g>
    <g id="xtick_9">
     <g id="line2d_9">
      <g>
       <use xlink:href="#ma81a9a46b4" x="285.765179" y="476.745" style="stroke: #000000; stroke-width: 0.8"/>
      </g>
     </g>
     <g id="text_5">
      <!-- 01 Nov -->
      <g transform="translate(269.494085 491.018437)scale(0.1 -0.1)">
       <defs>
        <path id="Inter-Regular-4e" d="M 4255 4655 
L 4255 0 
L 3709 0 
L 1173 3655 
L 1127 3655 
L 1127 0 
L 564 0 
L 564 4655 
L 1109 4655 
L 3655 991 
L 3700 991 
L 3700 4655 
L 4255 4655 
z
" transform="scale(0.015625)"/>
        <path id="Inter-Regular-6f" d="M 1909 -73 
Q 1436 -73 1080 152 
Q 725 377 526 781 
Q 327 1186 327 1727 
Q 327 2273 526 2679 
Q 725 3086 1080 3311 
Q 1436 3536 1909 3536 
Q 2382 3536 2737 3311 
Q 3093 3086 3292 2679 
Q 3491 2273 3491 1727 
Q 3491 1186 3292 781 
Q 3093 377 2737 152 
Q 2382 -73 1909 -73 
z
M 1909 409 
Q 2268 409 2500 593 
Q 2732 777 2843 1077 
Q 2955 1377 2955 1727 
Q 2955 2077 2843 2379 
Q 2732 2682 2500 2868 
Q 2268 3055 1909 3055 
Q 1550 3055 1318 2868 
Q 1086 2682 975 2379 
Q 864 2077 864 1727 
Q 864 1377 975 1077 
Q 1086 777 1318 593 
Q 1550 409 1909 409 
z
" transform="scale(0.015625)"/>
        <path id="Inter-Regular-76" d="M 3346 3491 
L 2055 0 
L 1509 0 
L 218 3491 
L 800 3491 
L 1764 709 
L 1800 709 
L 2764 3491 
L 3346 3491 
z
" transform="scale(0.015625)"/>
       </defs>
       <use xlink:href="#Inter-Regular-30"/>
       <use xlink:href="#Inter-Regular-31" x="62.500015"/>
       <use xlink:href="#Inter-Regular-20" x="106.676163"/>
       <use xlink:href="#Inter-Regular-4e" x="134.801163"/>
       <use xlink:href="#Inter-Regular-6f" x="210.085266"/>
       <use xlink:href="#Inter-Regular-76" x="269.74437"/>
      </g>
     </g>
    </g>
    <g id="xtick_10">
     <g id="line2d_10">
      <g>
       <use xlink:href="#ma81a9a46b4" x="313.483556" y="476.745" style="stroke: #000000; stroke-width: 0.8"/>
      </g>
     </g>
    </g>
    <g id="xtick_11">
     <g id="line2d_11">
      <g>
       <use xlink:href="#ma81a9a46b4" x="342.125878" y="476.745" style="stroke: #000000; stroke-width: 0.8"/>
      </g>
     </g>
     <g id="text_6">
      <!-- 01 Jan -->
      <g transform="translate(326.926659 491.018437)scale(0.1 -0.1)">
       <defs>
        <path id="Inter-Regular-6e" d="M 1027 2100 
L 1027 0 
L 491 0 
L 491 3491 
L 1009 3491 
L 1009 2945 
L 1055 2945 
Q 1177 3211 1427 3373 
Q 1677 3536 2073 3536 
Q 2602 3536 2928 3211 
Q 3255 2886 3255 2218 
L 3255 0 
L 2718 0 
L 2718 2182 
Q 2718 2593 2504 2824 
Q 2291 3055 1918 3055 
Q 1534 3055 1280 2806 
Q 1027 2557 1027 2100 
z
" transform="scale(0.015625)"/>
       </defs>
       <use xlink:href="#Inter-Regular-30"/>
       <use xlink:href="#Inter-Regular-31" x="62.500015"/>
       <use xlink:href="#Inter-Regular-20" x="106.676163"/>
       <use xlink:href="#Inter-Regular-4a" x="134.801163"/>
       <use xlink:href="#Inter-Regular-61" x="189.062531"/>
       <use xlink:href="#Inter-Regular-6e" x="245.45459"/>
      </g>
     </g>
    </g>
    <g id="xtick_12">
     <g id="line2d_12">
      <g>
       <use xlink:href="#ma81a9a46b4" x="370.768201" y="476.745" style="stroke: #000000; stroke-width: 0.8"/>
      </g>
     </g>
    </g>
    <g id="xtick_13">
     <g id="line2d_13">
      <g>
       <use xlink:href="#ma81a9a46b4" x="396.638685" y="476.745" style="stroke: #000000; stroke-width: 0.8"/>
      </g>
     </g>
     <g id="text_7">
      <!-- 01 Mar -->
      <g transform="translate(380.601967 491.018437)scale(0.1 -0.1)">
       <use xlink:href="#Inter-Regular-30"/>
       <use xlink:href="#Inter-Regular-31" x="62.500015"/>
       <use xlink:href="#Inter-Regular-20" x="106.676163"/>
       <use xlink:href="#Inter-Regular-4d" x="134.801163"/>
       <use xlink:href="#Inter-Regular-61" x="225.99437"/>
       <use xlink:href="#Inter-Regular-72" x="282.386429"/>
      </g>
     </g>
    </g>
    <g id="xtick_14">
     <g id="line2d_14">
      <g>
       <use xlink:href="#ma81a9a46b4" x="425.281008" y="476.745" style="stroke: #000000; stroke-width: 0.8"/>
      </g>
     </g>
    </g>
    <g id="xtick_15">
     <g id="line2d_15">
      <g>
       <use xlink:href="#ma81a9a46b4" x="452.999384" y="476.745" style="stroke: #000000; stroke-width: 0.8"/>
      </g>
     </g>
     <g id="text_8">
      <!-- 01 May -->
      <g transform="translate(436.096259 491.116875)scale(0.1 -0.1)">
       <use xlink:href="#Inter-Regular-30"/>
       <use xlink:href="#Inter-Regular-31" x="62.500015"/>
       <use xlink:href="#Inter-Regular-20" x="106.676163"/>
       <use xlink:href="#Inter-Regular-4d" x="134.801163"/>
       <use xlink:href="#Inter-Regular-61" x="225.99437"/>
       <use xlink:href="#Inter-Regular-79" x="282.386429"/>
      </g>
     </g>
    </g>
    <g id="xtick_16">
     <g id="line2d_16">
      <g>
       <use xlink:href="#ma81a9a46b4" x="481.641707" y="476.745" style="stroke: #000000; stroke-width: 0.8"/>
      </g>
     </g>
    </g>
    <g id="xtick_17">
     <g id="line2d_17">
      <g>
       <use xlink:href="#ma81a9a46b4" x="509.360083" y="476.745" style="stroke: #000000; stroke-width: 0.8"/>
      </g>
     </g>
     <g id="text_9">
      <!-- 01 Jul -->
      <g transform="translate(495.816333 491.018437)scale(0.1 -0.1)">
       <use xlink:href="#Inter-Regular-30"/>
       <use xlink:href="#Inter-Regular-31" x="62.500015"/>
       <use xlink:href="#Inter-Regular-20" x="106.676163"/>
       <use xlink:href="#Inter-Regular-4a" x="134.801163"/>
       <use xlink:href="#Inter-Regular-75" x="189.062531"/>
       <use xlink:href="#Inter-Regular-6c" x="247.159134"/>
      </g>
     </g>
    </g>
    <g id="xtick_18">
     <g id="line2d_18">
      <g>
       <use xlink:href="#ma81a9a46b4" x="538.002406" y="476.745" style="stroke: #000000; stroke-width: 0.8"/>
      </g>
     </g>
    </g>
    <g id="xtick_19">
     <g id="line2d_19">
      <g>
       <use xlink:href="#ma81a9a46b4" x="566.644728" y="476.745" style="stroke: #000000; stroke-width: 0.8"/>
      </g>
     </g>
     <g id="text_10">
      <!-- 01 Sep -->
      <g transform="translate(550.757228 491.116875)scale(0.1 -0.1)">
       <use xlink:href="#Inter-Regular-30"/>
       <use xlink:href="#Inter-Regular-31" x="62.500015"/>
       <use xlink:href="#Inter-Regular-20" x="106.676163"/>
       <use xlink:href="#Inter-Regular-53" x="134.801163"/>
       <use xlink:href="#Inter-Regular-65" x="198.57959"/>
       <use xlink:href="#Inter-Regular-70" x="256.818237"/>
      </g>
     </g>
    </g>
    <g id="xtick_20">
     <g id="line2d_20">
      <g>
       <use xlink:href="#ma81a9a46b4" x="594.363105" y="476.745" style="stroke: #000000; stroke-width: 0.8"/>
      </g>
     </g>
    </g>
    <g id="xtick_21">
     <g id="line2d_21">
      <g>
       <use xlink:href="#ma81a9a46b4" x="623.005427" y="476.745" style="stroke: #000000; stroke-width: 0.8"/>
      </g>
     </g>
     <g id="text_11">
      <!-- 01 Nov -->
      <g transform="translate(606.734333 491.018437)scale(0.1 -0.1)">
       <use xlink:href="#Inter-Regular-30"/>
       <use xlink:href="#Inter-Regular-31" x="62.500015"/>
       <use xlink:href="#Inter-Regular-20" x="106.676163"/>
       <use xlink:href="#Inter-Regular-4e" x="134.801163"/>
       <use xlink:href="#Inter-Regular-6f" x="210.085266"/>
       <use xlink:href="#Inter-Regular-76" x="269.74437"/>
      </g>
     </g>
    </g>
    <g id="xtick_22">
     <g id="line2d_22">
      <g>
       <use xlink:href="#ma81a9a46b4" x="650.723804" y="476.745" style="stroke: #000000; stroke-width: 0.8"/>
      </g>
     </g>
    </g>
    <g id="xtick_23">
     <g id="line2d_23">
      <g>
       <use xlink:href="#ma81a9a46b4" x="679.366126" y="476.745" style="stroke: #000000; stroke-width: 0.8"/>
      </g>
     </g>
     <g id="text_12">
      <!-- 01 Jan -->
      <g transform="translate(664.166907 491.018437)scale(0.1 -0.1)">
       <use xlink:href="#Inter-Regular-30"/>
       <use xlink:href="#Inter-Regular-31" x="62.500015"/>
       <use xlink:href="#Inter-Regular-20" x="106.676163"/>
       <use xlink:href="#Inter-Regular-4a" x="134.801163"/>
       <use xlink:href="#Inter-Regular-61" x="189.062531"/>
       <use xlink:href="#Inter-Regular-6e" x="245.45459"/>
      </g>
     </g>
    </g>
    <g id="xtick_24">
     <g id="line2d_24">
      <g>
       <use xlink:href="#ma81a9a46b4" x="708.008449" y="476.745" style="stroke: #000000; stroke-width: 0.8"/>
      </g>
     </g>
    </g>
   </g>
   <g id="matplotlib.axis_2">
    <g id="ytick_1">
     <g id="line2d_25">
      <path d="M 59.398438 476.745 
L 728.998438 476.745 
" clip-path="url(#pbdfe2a47b3)" style="fill: none; stroke: #e5e5e5; stroke-width: 0.8; stroke-linecap: square"/>
     </g>
     <g id="line2d_26">
      <defs>
       <path id="m1eee222209" d="M 0 0 
L -3.5 0 
" style="stroke: #000000; stroke-width: 0.8"/>
      </defs>
      <g>
       <use xlink:href="#m1eee222209" x="59.398438" y="476.745" style="stroke: #000000; stroke-width: 0.8"/>
      </g>
     </g>
     <g id="text_13">
      <!-- 0% -->
      <g transform="translate(38.023438 480.381719)scale(0.1 -0.1)">
       <defs>
        <path id="Inter-Regular-25" d="M 2855 873 
L 2855 1118 
Q 2855 1373 2960 1585 
Q 3066 1798 3269 1926 
Q 3473 2055 3764 2055 
Q 4059 2055 4259 1926 
Q 4459 1798 4561 1585 
Q 4664 1373 4664 1118 
L 4664 873 
Q 4664 618 4560 405 
Q 4457 193 4256 64 
Q 4055 -64 3764 -64 
Q 3468 -64 3266 64 
Q 3064 193 2959 405 
Q 2855 618 2855 873 
z
M 536 3536 
L 536 3782 
Q 536 4036 642 4248 
Q 748 4461 951 4589 
Q 1155 4718 1446 4718 
Q 1741 4718 1941 4589 
Q 2141 4461 2243 4248 
Q 2346 4036 2346 3782 
L 2346 3536 
Q 2346 3282 2242 3069 
Q 2139 2857 1937 2728 
Q 1736 2600 1446 2600 
Q 1150 2600 948 2728 
Q 746 2857 641 3069 
Q 536 3282 536 3536 
z
M 709 0 
L 3909 4655 
L 4427 4655 
L 1227 0 
L 709 0 
z
M 3318 1118 
L 3318 873 
Q 3318 661 3418 494 
Q 3518 327 3764 327 
Q 4002 327 4101 494 
Q 4200 661 4200 873 
L 4200 1118 
Q 4200 1330 4104 1497 
Q 4009 1664 3764 1664 
Q 3525 1664 3421 1497 
Q 3318 1330 3318 1118 
z
M 1000 3782 
L 1000 3536 
Q 1000 3325 1100 3158 
Q 1200 2991 1446 2991 
Q 1684 2991 1783 3158 
Q 1882 3325 1882 3536 
L 1882 3782 
Q 1882 3993 1786 4160 
Q 1691 4327 1446 4327 
Q 1207 4327 1103 4160 
Q 1000 3993 1000 3782 
z
" transform="scale(0.015625)"/>
       </defs>
       <use xlink:href="#Inter-Regular-30"/>
       <use xlink:href="#Inter-Regular-25" x="62.500015"/>
      </g>
     </g>
    </g>
    <g id="ytick_2">
     <g id="line2d_27">
      <path d="M 59.398438 410.913745 
L 728.998438 410.913745 
" clip-path="url(#pbdfe2a47b3)" style="fill: none; stroke: #e5e5e5; stroke-width: 0.8; stroke-linecap: square"/>
     </g>
     <g id="line2d_28">
      <g>
       <use xlink:href="#m1eee222209" x="59.398438" y="410.913745" style="stroke: #000000; stroke-width: 0.8"/>
      </g>
     </g>
     <g id="text_14">
      <!-- 5% -->
      <g transform="translate(38.19375 414.550464)scale(0.1 -0.1)">
       <defs>
        <path id="Inter-Regular-35" d="M 1936 -64 
Q 1536 -64 1216 95 
Q 896 255 702 532 
Q 509 809 491 1164 
L 1036 1164 
Q 1068 848 1324 642 
Q 1580 436 1936 436 
Q 2223 436 2447 570 
Q 2671 705 2799 940 
Q 2927 1175 2927 1473 
Q 2927 1777 2794 2017 
Q 2661 2257 2429 2395 
Q 2198 2534 1900 2536 
Q 1686 2539 1461 2472 
Q 1236 2405 1091 2300 
L 564 2364 
L 846 4655 
L 3264 4655 
L 3264 4155 
L 1318 4155 
L 1155 2782 
L 1182 2782 
Q 1325 2895 1541 2970 
Q 1757 3045 1991 3045 
Q 2418 3045 2753 2842 
Q 3089 2639 3281 2286 
Q 3473 1934 3473 1482 
Q 3473 1036 3274 687 
Q 3075 339 2727 137 
Q 2380 -64 1936 -64 
z
" transform="scale(0.015625)"/>
       </defs>
       <use xlink:href="#Inter-Regular-35"/>
       <use xlink:href="#Inter-Regular-25" x="60.795471"/>
      </g>
     </g>
    </g>
    <g id="ytick_3">
     <g id="line2d_29">
      <path d="M 59.398438 345.08249 
L 728.998438 345.08249 
" clip-path="url(#pbdfe2a47b3)" style="fill: none; stroke: #e5e5e5; stroke-width: 0.8; stroke-linecap: square"/>
     </g>
     <g id="line2d_30">
      <g>
       <use xlink:href="#m1eee222209" x="59.398438" y="345.08249" style="stroke: #000000; stroke-width: 0.8"/>
      </g>
     </g>
     <g id="text_15">
      <!-- 10% -->
      <g transform="translate(33.60625 348.719209)scale(0.1 -0.1)">
       <use xlink:href="#Inter-Regular-31"/>
       <use xlink:href="#Inter-Regular-30" x="44.176147"/>
       <use xlink:href="#Inter-Regular-25" x="106.676163"/>
      </g>
     </g>
    </g>
    <g id="ytick_4">
     <g id="line2d_31">
      <path d="M 59.398438 279.251235 
L 728.998438 279.251235 
" clip-path="url(#pbdfe2a47b3)" style="fill: none; stroke: #e5e5e5; stroke-width: 0.8; stroke-linecap: square"/>
     </g>
     <g id="line2d_32">
      <g>
       <use xlink:href="#m1eee222209" x="59.398438" y="279.251235" style="stroke: #000000; stroke-width: 0.8"/>
      </g>
     </g>
     <g id="text_16">
      <!-- 15% -->
      <g transform="translate(33.776563 282.887953)scale(0.1 -0.1)">
       <use xlink:href="#Inter-Regular-31"/>
       <use xlink:href="#Inter-Regular-35" x="44.176147"/>
       <use xlink:href="#Inter-Regular-25" x="104.971619"/>
      </g>
     </g>
    </g>
    <g id="ytick_5">
     <g id="line2d_33">
      <path d="M 59.398438 213.41998 
L 728.998438 213.41998 
" clip-path="url(#pbdfe2a47b3)" style="fill: none; stroke: #e5e5e5; stroke-width: 0.8; stroke-linecap: square"/>
     </g>
     <g id="line2d_34">
      <g>
       <use xlink:href="#m1eee222209" x="59.398438" y="213.41998" style="stroke: #000000; stroke-width: 0.8"/>
      </g>
     </g>
     <g id="text_17">
      <!-- 20% -->
      <g transform="translate(31.971875 217.056698)scale(0.1 -0.1)">
       <defs>
        <path id="Inter-Regular-32" d="M 482 0 
L 482 409 
L 2018 2091 
Q 2289 2386 2464 2605 
Q 2639 2825 2724 3019 
Q 2809 3214 2809 3427 
Q 2809 3795 2553 4011 
Q 2298 4227 1918 4227 
Q 1514 4227 1275 3985 
Q 1036 3743 1036 3345 
L 500 3345 
Q 500 3755 688 4064 
Q 877 4373 1203 4545 
Q 1530 4718 1936 4718 
Q 2346 4718 2661 4545 
Q 2977 4373 3156 4079 
Q 3336 3786 3336 3427 
Q 3336 3170 3244 2926 
Q 3152 2682 2926 2383 
Q 2700 2084 2300 1655 
L 1255 536 
L 1255 500 
L 3418 500 
L 3418 0 
L 482 0 
z
" transform="scale(0.015625)"/>
       </defs>
       <use xlink:href="#Inter-Regular-32"/>
       <use xlink:href="#Inter-Regular-30" x="60.511383"/>
       <use xlink:href="#Inter-Regular-25" x="123.011398"/>
      </g>
     </g>
    </g>
    <g id="ytick_6">
     <g id="line2d_35">
      <path d="M 59.398438 147.588724 
L 728.998438 147.588724 
" clip-path="url(#pbdfe2a47b3)" style="fill: none; stroke: #e5e5e5; stroke-width: 0.8; stroke-linecap: square"/>
     </g>
     <g id="line2d_36">
      <g>
       <use xlink:href="#m1eee222209" x="59.398438" y="147.588724" style="stroke: #000000; stroke-width: 0.8"/>
      </g>
     </g>
     <g id="text_18">
      <!-- 25% -->
      <g transform="translate(32.142188 151.225443)scale(0.1 -0.1)">
       <use xlink:href="#Inter-Regular-32"/>
       <use xlink:href="#Inter-Regular-35" x="60.511383"/>
       <use xlink:href="#Inter-Regular-25" x="121.306854"/>
      </g>
     </g>
    </g>
    <g id="ytick_7">
     <g id="line2d_37">
      <path d="M 59.398438 81.757469 
L 728.998438 81.757469 
" clip-path="url(#pbdfe2a47b3)" style="fill: none; stroke: #e5e5e5; stroke-width: 0.8; stroke-linecap: square"/>
     </g>
     <g id="line2d_38">
      <g>
       <use xlink:href="#m1eee222209" x="59.398438" y="81.757469" style="stroke: #000000; stroke-width: 0.8"/>
      </g>
     </g>
     <g id="text_19">
      <!-- 30% -->
      <g transform="translate(31.659375 85.394188)scale(0.1 -0.1)">
       <defs>
        <path id="Inter-Regular-33" d="M 2055 -64 
Q 1605 -64 1253 90 
Q 902 245 696 521 
Q 491 798 473 1164 
L 1046 1164 
Q 1071 827 1356 631 
Q 1641 436 2046 436 
Q 2493 436 2783 664 
Q 3073 893 3073 1264 
Q 3073 1650 2787 1893 
Q 2502 2136 1973 2136 
L 1600 2136 
L 1600 2636 
L 1973 2636 
Q 2386 2636 2647 2856 
Q 2909 3077 2909 3445 
Q 2909 3798 2679 4012 
Q 2450 4227 2064 4227 
Q 1823 4227 1610 4139 
Q 1398 4052 1264 3887 
Q 1130 3723 1118 3491 
L 573 3491 
Q 586 3857 793 4133 
Q 1000 4409 1335 4563 
Q 1671 4718 2073 4718 
Q 2505 4718 2814 4544 
Q 3123 4370 3289 4086 
Q 3455 3802 3455 3473 
Q 3455 3080 3249 2802 
Q 3043 2525 2691 2418 
L 2691 2382 
Q 3132 2309 3379 2008 
Q 3627 1707 3627 1264 
Q 3627 884 3421 583 
Q 3216 282 2861 109 
Q 2507 -64 2055 -64 
z
" transform="scale(0.015625)"/>
       </defs>
       <use xlink:href="#Inter-Regular-33"/>
       <use xlink:href="#Inter-Regular-30" x="63.636383"/>
       <use xlink:href="#Inter-Regular-25" x="126.136398"/>
      </g>
     </g>
    </g>
    <g id="text_20">
     <!-- Percent of nation tested positive -->
     <g transform="translate(25.614063 332.215469)rotate(-90)scale(0.1 -0.1)">
      <defs>
       <path id="Inter-Regular-50" d="M 564 0 
L 564 4655 
L 2136 4655 
Q 2684 4655 3033 4458 
Q 3382 4261 3550 3927 
Q 3718 3593 3718 3182 
Q 3718 2770 3551 2434 
Q 3384 2098 3036 1899 
Q 2689 1700 2146 1700 
L 1127 1700 
L 1127 0 
L 564 0 
z
M 1127 2200 
L 2127 2200 
Q 2689 2200 2926 2482 
Q 3164 2764 3164 3182 
Q 3164 3602 2925 3878 
Q 2686 4155 2118 4155 
L 1127 4155 
L 1127 2200 
z
" transform="scale(0.015625)"/>
       <path id="Inter-Regular-63" d="M 1909 -73 
Q 1418 -73 1063 159 
Q 709 391 518 798 
Q 327 1205 327 1727 
Q 327 2259 524 2667 
Q 721 3075 1074 3305 
Q 1427 3536 1900 3536 
Q 2268 3536 2563 3400 
Q 2859 3264 3047 3018 
Q 3236 2773 3282 2445 
L 2746 2445 
Q 2684 2684 2474 2869 
Q 2264 3055 1909 3055 
Q 1439 3055 1151 2697 
Q 864 2339 864 1745 
Q 864 1139 1148 774 
Q 1432 409 1909 409 
Q 2223 409 2447 570 
Q 2671 732 2746 1018 
L 3282 1018 
Q 3236 709 3058 462 
Q 2880 216 2588 71 
Q 2296 -73 1909 -73 
z
" transform="scale(0.015625)"/>
       <path id="Inter-Regular-74" d="M 2009 3491 
L 2009 3036 
L 1264 3036 
L 1264 1000 
Q 1264 773 1331 660 
Q 1398 548 1503 510 
Q 1609 473 1727 473 
Q 1816 473 1873 483 
Q 1930 493 1964 500 
L 2073 18 
Q 2018 -2 1920 -23 
Q 1823 -45 1673 -45 
Q 1446 -45 1228 52 
Q 1011 150 869 350 
Q 727 550 727 855 
L 727 3036 
L 200 3036 
L 200 3491 
L 727 3491 
L 727 4327 
L 1264 4327 
L 1264 3491 
L 2009 3491 
z
" transform="scale(0.015625)"/>
       <path id="Inter-Regular-66" d="M 2046 3491 
L 2046 3036 
L 1264 3036 
L 1264 0 
L 727 0 
L 727 3036 
L 164 3036 
L 164 3491 
L 727 3491 
L 727 3973 
Q 727 4273 868 4473 
Q 1009 4673 1234 4773 
Q 1459 4873 1709 4873 
Q 1907 4873 2032 4841 
Q 2157 4809 2218 4782 
L 2064 4318 
Q 2023 4332 1951 4352 
Q 1880 4373 1764 4373 
Q 1498 4373 1381 4239 
Q 1264 4105 1264 3845 
L 1264 3491 
L 2046 3491 
z
" transform="scale(0.015625)"/>
       <path id="Inter-Regular-69" d="M 491 0 
L 491 3491 
L 1027 3491 
L 1027 0 
L 491 0 
z
M 764 4073 
Q 607 4073 494 4179 
Q 382 4286 382 4436 
Q 382 4586 494 4693 
Q 607 4800 764 4800 
Q 921 4800 1033 4693 
Q 1146 4586 1146 4436 
Q 1146 4286 1033 4179 
Q 921 4073 764 4073 
z
" transform="scale(0.015625)"/>
       <path id="Inter-Regular-73" d="M 2964 2709 
L 2482 2573 
Q 2411 2755 2245 2914 
Q 2080 3073 1727 3073 
Q 1407 3073 1194 2926 
Q 982 2780 982 2555 
Q 982 2355 1127 2239 
Q 1273 2123 1582 2045 
L 2100 1918 
Q 3027 1691 3027 973 
Q 3027 673 2855 436 
Q 2684 200 2377 63 
Q 2071 -73 1664 -73 
Q 1130 -73 780 159 
Q 430 391 336 836 
L 846 964 
Q 989 400 1655 400 
Q 2030 400 2251 560 
Q 2473 720 2473 945 
Q 2473 1316 1955 1436 
L 1373 1573 
Q 893 1686 669 1926 
Q 446 2166 446 2527 
Q 446 2823 613 3050 
Q 780 3277 1069 3406 
Q 1359 3536 1727 3536 
Q 2246 3536 2542 3309 
Q 2839 3082 2964 2709 
z
" transform="scale(0.015625)"/>
       <path id="Inter-Regular-64" d="M 1809 -73 
Q 1373 -73 1039 148 
Q 705 370 516 776 
Q 327 1182 327 1736 
Q 327 2286 516 2690 
Q 705 3095 1041 3315 
Q 1377 3536 1818 3536 
Q 2159 3536 2358 3423 
Q 2557 3311 2662 3169 
Q 2768 3027 2827 2936 
L 2873 2936 
L 2873 4655 
L 3409 4655 
L 3409 0 
L 2891 0 
L 2891 536 
L 2827 536 
Q 2768 441 2659 296 
Q 2550 152 2348 39 
Q 2146 -73 1809 -73 
z
M 1882 409 
Q 2366 409 2624 780 
Q 2882 1152 2882 1745 
Q 2882 2332 2627 2693 
Q 2373 3055 1882 3055 
Q 1541 3055 1315 2881 
Q 1089 2707 976 2410 
Q 864 2114 864 1745 
Q 864 1373 978 1069 
Q 1093 766 1319 587 
Q 1546 409 1882 409 
z
" transform="scale(0.015625)"/>
      </defs>
      <use xlink:href="#Inter-Regular-50"/>
      <use xlink:href="#Inter-Regular-65" x="63.494324"/>
      <use xlink:href="#Inter-Regular-72" x="121.732971"/>
      <use xlink:href="#Inter-Regular-63" x="160.085251"/>
      <use xlink:href="#Inter-Regular-65" x="215.909119"/>
      <use xlink:href="#Inter-Regular-6e" x="274.147766"/>
      <use xlink:href="#Inter-Regular-74" x="332.670502"/>
      <use xlink:href="#Inter-Regular-20" x="369.034149"/>
      <use xlink:href="#Inter-Regular-6f" x="397.159149"/>
      <use xlink:href="#Inter-Regular-66" x="456.818253"/>
      <use xlink:href="#Inter-Regular-20" x="492.897797"/>
      <use xlink:href="#Inter-Regular-6e" x="521.022797"/>
      <use xlink:href="#Inter-Regular-61" x="579.545532"/>
      <use xlink:href="#Inter-Regular-74" x="635.937592"/>
      <use xlink:href="#Inter-Regular-69" x="672.301239"/>
      <use xlink:href="#Inter-Regular-6f" x="696.022827"/>
      <use xlink:href="#Inter-Regular-6e" x="755.681931"/>
      <use xlink:href="#Inter-Regular-20" x="814.204666"/>
      <use xlink:href="#Inter-Regular-74" x="842.329666"/>
      <use xlink:href="#Inter-Regular-65" x="878.693314"/>
      <use xlink:href="#Inter-Regular-73" x="936.931961"/>
      <use xlink:href="#Inter-Regular-74" x="989.204697"/>
      <use xlink:href="#Inter-Regular-65" x="1025.568344"/>
      <use xlink:href="#Inter-Regular-64" x="1083.806992"/>
      <use xlink:href="#Inter-Regular-20" x="1145.880875"/>
      <use xlink:href="#Inter-Regular-70" x="1174.005875"/>
      <use xlink:href="#Inter-Regular-6f" x="1234.94339"/>
      <use xlink:href="#Inter-Regular-73" x="1294.602493"/>
      <use xlink:href="#Inter-Regular-69" x="1346.875229"/>
      <use xlink:href="#Inter-Regular-74" x="1370.596817"/>
      <use xlink:href="#Inter-Regular-69" x="1406.960464"/>
      <use xlink:href="#Inter-Regular-76" x="1430.682053"/>
      <use xlink:href="#Inter-Regular-65" x="1486.363876"/>
     </g>
    </g>
   </g>
   <g id="line2d_39">
    <path d="M 31.680061 476.744953 
L 77.877355 476.645817 
L 82.497085 476.517181 
L 90.812598 475.936867 
L 94.508381 475.563207 
L 107.443624 474.436779 
L 112.987299 474.080115 
L 120.378866 473.717538 
L 125.922541 473.527996 
L 139.781729 473.226185 
L 164.728268 473.01045 
L 180.435348 472.869568 
L 233.100264 471.729148 
L 246.959452 470.731961 
L 250.655236 470.297604 
L 257.122857 469.474011 
L 258.046803 469.362325 
L 258.970749 469.110735 
L 259.894694 468.61461 
L 262.666532 467.80296 
L 264.514424 467.204043 
L 269.134153 465.688356 
L 270.982045 465.029114 
L 273.753883 463.996119 
L 277.449666 462.244534 
L 295.004638 453.656644 
L 295.928584 452.938544 
L 298.700422 451.289309 
L 303.320151 449.14041 
L 305.168043 448.342218 
L 311.635664 446.231735 
L 315.331448 445.118788 
L 319.951177 443.664706 
L 321.799069 442.952683 
L 327.342744 440.383489 
L 330.114582 438.762379 
L 338.430095 432.05727 
L 343.97377 425.373464 
L 351.365337 415.614374 
L 354.137175 412.625444 
L 355.061121 411.44407 
L 357.832958 408.949217 
L 359.68085 407.4258 
L 362.452688 405.051411 
L 363.376634 404.409281 
L 366.148471 402.989448 
L 368.920309 401.267013 
L 370.768201 400.431896 
L 372.616092 399.680199 
L 375.38793 398.466136 
L 377.235822 397.843657 
L 388.323172 394.869698 
L 394.790794 393.558734 
L 413.269711 391.304598 
L 423.433116 390.183409 
L 429.900737 389.741834 
L 452.075438 388.565349 
L 471.478302 387.656892 
L 482.565653 386.930805 
L 488.109328 386.260504 
L 495.500895 385.025045 
L 502.892462 383.186128 
L 506.588246 381.814885 
L 508.436137 380.927941 
L 514.903759 377.128037 
L 518.599542 374.38525 
L 520.447434 372.906768 
L 521.37138 372.02448 
L 523.219272 369.88522 
L 525.067163 367.656346 
L 525.991109 366.849446 
L 527.839001 364.922475 
L 529.686893 363.32225 
L 531.534785 362.055639 
L 534.306622 360.499487 
L 537.07846 358.690116 
L 541.698189 356.065323 
L 543.546081 354.803462 
L 545.393973 353.729885 
L 546.317919 353.249569 
L 551.861594 349.614039 
L 552.78554 349.085248 
L 557.405269 345.804287 
L 560.177107 344.058523 
L 562.024999 342.732309 
L 563.872891 341.623623 
L 566.644728 340.063373 
L 574.960241 334.131404 
L 576.808133 333.113077 
L 581.427862 330.572776 
L 585.123646 328.314217 
L 591.591267 323.743339 
L 596.210996 320.491527 
L 598.982834 318.383372 
L 602.678618 315.407481 
L 605.450455 313.030484 
L 611.918077 306.696985 
L 614.689914 303.731571 
L 619.309644 299.768551 
L 622.081481 297.334698 
L 625.777265 294.422181 
L 627.625157 293.1477 
L 630.396994 291.363567 
L 633.168832 289.031412 
L 635.94067 286.835016 
L 637.788561 285.403356 
L 640.560399 282.780356 
L 643.332237 280.299822 
L 645.180128 278.509566 
L 647.02802 276.691906 
L 649.799858 274.348947 
L 658.115371 265.580967 
L 659.963263 263.31214 
L 661.811154 261.318139 
L 662.7351 260.082005 
L 664.582992 256.67888 
L 666.430884 252.811225 
L 668.278775 249.370849 
L 669.202721 247.486927 
L 671.050613 242.764085 
L 675.670343 230.241322 
L 677.518234 223.608365 
L 679.366126 216.091677 
L 681.214018 210.012911 
L 685.833747 192.993495 
L 687.681639 187.470296 
L 691.377423 178.002888 
L 695.073206 171.016177 
L 697.845044 164.533858 
L 700.616881 159.423921 
L 704.312665 151.533782 
L 707.084503 146.634785 
L 708.008449 144.228475 
L 709.85634 140.535065 
L 710.780286 138.83114 
L 712.628178 136.342015 
L 713.552124 135.210465 
L 716.323961 131.21429 
L 717.247907 130.126162 
L 719.095799 128.4939 
L 720.943691 126.901056 
L 722.791583 124.96554 
L 724.639474 123.356025 
L 725.56342 122.801181 
L 728.335258 120.716565 
L 728.335258 120.716565 
" clip-path="url(#pbdfe2a47b3)" style="fill: none; stroke: #5694ca; stroke-width: 2; stroke-linecap: square"/>
   </g>
   <g id="line2d_40">
    <path d="M 31.680061 476.745 
L 79.725247 476.644977 
L 85.268922 476.462992 
L 90.812598 476.054566 
L 102.823894 475.123799 
L 105.595732 474.852904 
L 107.443624 474.751492 
L 111.139407 474.450035 
L 124.998595 473.865875 
L 137.933838 473.546358 
L 149.021188 473.420635 
L 214.621346 473.024017 
L 224.784751 472.62601 
L 245.11156 471.251393 
L 247.883398 470.888116 
L 249.73129 470.683208 
L 251.579182 470.362302 
L 253.427073 470.010833 
L 255.274965 469.635748 
L 257.122857 469.161335 
L 258.046803 468.512577 
L 258.970749 468.008296 
L 260.81864 467.259515 
L 262.666532 466.219695 
L 265.43837 464.201876 
L 267.286262 462.852265 
L 268.210207 462.252823 
L 269.134153 461.407492 
L 270.058099 460.877511 
L 270.982045 459.975223 
L 272.829937 458.556151 
L 274.677829 457.352406 
L 276.52572 455.906939 
L 277.449666 455.037297 
L 279.297558 453.773816 
L 282.069396 452.183872 
L 282.993342 451.612909 
L 284.841233 450.768968 
L 285.765179 450.293165 
L 287.613071 449.554803 
L 289.460963 448.724754 
L 291.308855 447.944716 
L 294.080692 446.9688 
L 295.004638 446.41937 
L 298.700422 444.934311 
L 299.624368 444.704397 
L 302.396205 443.624986 
L 306.091989 442.688662 
L 307.015935 442.633789 
L 308.863826 441.956552 
L 311.635664 441.222357 
L 313.483556 440.749333 
L 321.799069 438.066086 
L 324.570906 437.026266 
L 327.342744 436.043405 
L 330.114582 434.788953 
L 332.886419 433.747745 
L 334.734311 432.616933 
L 335.658257 432.616933 
L 336.582203 431.92372 
L 337.506149 431.92372 
L 339.354041 429.700993 
L 341.201932 426.872574 
L 342.125878 426.872574 
L 343.049824 424.388677 
L 348.593499 417.626032 
L 349.517445 416.624416 
L 350.441391 415.852018 
L 351.365337 415.324815 
L 353.213229 413.6925 
L 355.985066 411.796237 
L 357.832958 410.780729 
L 358.756904 410.285477 
L 360.604796 409.148414 
L 361.528742 408.547583 
L 362.452688 408.0822 
L 365.224525 407.106284 
L 367.072417 406.329024 
L 367.996363 405.864335 
L 369.844255 405.252391 
L 371.692147 404.723799 
L 374.463984 403.736075 
L 377.235822 403.027581 
L 380.007659 402.427445 
L 381.855551 401.934277 
L 383.703443 401.64949 
L 388.323172 400.55966 
L 393.866848 399.547624 
L 401.258415 398.621025 
L 404.954198 398.156337 
L 407.726036 397.755551 
L 426.204954 395.845396 
L 438.21625 394.99173 
L 445.607817 394.417294 
L 463.162789 393.260781 
L 473.326194 392.614802 
L 483.489599 392.100101 
L 492.729057 391.486073 
L 495.500895 391.246436 
L 504.740354 389.945446 
L 509.360083 388.937578 
L 511.207975 388.382591 
L 513.055867 387.720636 
L 514.903759 387.035063 
L 516.75165 386.179314 
L 518.599542 385.449982 
L 521.37138 384.286523 
L 522.295326 383.534269 
L 524.143217 381.601886 
L 525.067163 381.228885 
L 525.991109 379.995272 
L 526.915055 379.204815 
L 527.839001 377.834365 
L 531.534785 373.978629 
L 532.45873 373.534778 
L 535.230568 370.378507 
L 539.850298 366.694337 
L 540.774243 365.971951 
L 542.622135 363.83605 
L 544.470027 362.114826 
L 545.393973 361.398692 
L 547.241865 359.473255 
L 549.089756 357.390143 
L 550.937648 355.493185 
L 551.861594 354.586035 
L 554.633432 351.201934 
L 555.557378 349.536973 
L 557.405269 347.38579 
L 558.329215 346.468915 
L 562.948945 340.721778 
L 565.720782 338.084374 
L 566.644728 337.06192 
L 567.568674 336.511101 
L 568.49262 335.644237 
L 569.416566 334.385618 
L 570.340512 333.529869 
L 572.188403 331.090426 
L 573.112349 330.249958 
L 574.960241 327.806348 
L 575.884187 326.817235 
L 577.732079 325.268272 
L 578.656025 324.163855 
L 579.579971 323.258094 
L 592.515213 312.747376 
L 594.363105 311.217862 
L 597.134942 309.159062 
L 598.982834 307.389216 
L 601.754672 304.711525 
L 604.526509 302.279029 
L 606.374401 300.351508 
L 608.222293 298.568465 
L 610.070185 297.139668 
L 611.918077 295.201728 
L 612.842022 294.471702 
L 614.689914 292.611557 
L 617.461752 290.386053 
L 620.233589 287.792409 
L 622.081481 286.258727 
L 623.929373 284.826458 
L 624.853319 284.135329 
L 625.777265 283.106623 
L 628.549102 280.749839 
L 630.396994 279.182816 
L 631.32094 277.956844 
L 632.244886 276.941336 
L 633.168832 276.186303 
L 634.092778 274.931852 
L 635.94067 272.96335 
L 639.636453 268.158787 
L 640.560399 266.876552 
L 643.332237 263.854339 
L 644.256182 262.513062 
L 645.180128 261.437124 
L 646.104074 260.045141 
L 649.799858 255.921983 
L 653.495641 250.494363 
L 655.343533 248.370965 
L 656.267479 247.219315 
L 659.039317 243.358716 
L 662.7351 239.186937 
L 666.430884 233.383537 
L 667.35483 232.134642 
L 669.202721 229.186751 
L 671.974559 222.418549 
L 675.670343 222.418549 
L 676.594288 206.462151 
L 677.518234 203.196827 
L 678.44218 198.185273 
L 681.214018 198.185273 
L 682.137964 177.053395 
L 683.985856 167.322021 
L 684.909801 162.846005 
L 686.757693 157.832368 
L 687.681639 155.952775 
L 688.605585 153.577236 
L 692.301368 145.572642 
L 693.225314 143.823634 
L 694.14926 141.53492 
L 697.845044 130.435874 
L 700.616881 123.165475 
L 701.540827 119.676489 
L 703.388719 113.684852 
L 705.236611 108.595503 
L 706.160557 106.463769 
L 708.008449 100.364469 
L 709.85634 94.132499 
L 710.780286 91.47009 
L 711.704232 89.246668 
L 712.628178 87.375411 
L 713.552124 85.218671 
L 716.323961 77.296735 
L 718.171853 73.437526 
L 719.095799 71.938575 
L 720.019745 70.226381 
L 722.791583 64.042339 
L 724.639474 60.836056 
L 725.56342 59.540623 
L 726.487366 57.988188 
L 727.411312 55.938417 
L 728.335258 54.345 
L 728.335258 54.345 
" clip-path="url(#pbdfe2a47b3)" style="fill: none; stroke: #ffdd00; stroke-width: 2; stroke-linecap: square"/>
   </g>
   <g id="line2d_41">
    <path d="M 31.680061 476.745 
L 78.801301 476.644796 
L 85.268922 476.411628 
L 88.04076 476.188578 
L 102.823894 474.960354 
L 107.443624 474.567968 
L 112.063353 474.21075 
L 133.314108 473.191847 
L 142.553567 473.039854 
L 218.31713 472.580746 
L 232.176318 472.21606 
L 242.339723 471.742017 
L 249.73129 471.144887 
L 255.274965 470.396005 
L 260.81864 469.359759 
L 262.666532 468.913176 
L 268.210207 467.348449 
L 270.982045 466.390729 
L 271.905991 466.109627 
L 272.829937 466.03351 
L 274.677829 465.443607 
L 277.449666 464.274879 
L 280.221504 463.345582 
L 283.917287 462.156139 
L 290.384909 460.248405 
L 292.2328 459.595392 
L 295.004638 458.871561 
L 298.700422 457.704279 
L 299.624368 457.531571 
L 303.320151 456.418968 
L 312.55961 454.38887 
L 315.331448 453.747418 
L 317.179339 453.327572 
L 320.875123 452.626866 
L 327.342744 451.165715 
L 331.962473 450.054798 
L 336.582203 448.577268 
L 338.430095 448.166094 
L 340.277986 447.217044 
L 342.125878 445.973886 
L 346.745608 443.306432 
L 348.593499 442.112171 
L 356.909012 438.183734 
L 363.376634 435.806775 
L 365.224525 435.372959 
L 367.996363 434.485092 
L 375.38793 432.673709 
L 377.235822 432.309505 
L 392.942902 429.012884 
L 399.410523 428.133929 
L 406.80209 427.08034 
L 413.269711 426.097569 
L 419.737333 425.179833 
L 422.50917 424.857783 
L 431.748629 423.974492 
L 440.064142 423.452997 
L 455.771222 422.688699 
L 458.54306 422.543211 
L 468.706464 421.870205 
L 477.945923 420.841667 
L 483.489599 419.977165 
L 486.261436 419.344385 
L 489.033274 418.77905 
L 490.881166 418.33608 
L 499.196679 416.021027 
L 500.120624 415.719932 
L 501.04457 415.197955 
L 502.892462 413.760411 
L 503.816408 413.339601 
L 507.512192 410.478483 
L 511.207975 406.852826 
L 513.055867 405.624843 
L 513.979813 405.055654 
L 514.903759 404.140569 
L 517.675596 402.163463 
L 519.523488 401.156122 
L 522.295326 399.409534 
L 525.067163 397.940435 
L 527.839001 396.795313 
L 529.686893 395.993198 
L 532.45873 395.139536 
L 534.306622 394.604069 
L 537.07846 393.6714 
L 541.698189 392.346344 
L 545.393973 391.207726 
L 547.241865 390.598311 
L 552.78554 388.350943 
L 553.709486 387.739601 
L 558.329215 383.687354 
L 559.253161 382.64605 
L 561.101053 380.250303 
L 562.024999 378.603919 
L 562.948945 377.192871 
L 563.872891 375.479524 
L 564.796836 374.541796 
L 567.568674 370.061754 
L 571.264458 363.727693 
L 573.112349 360.957144 
L 574.960241 357.668954 
L 575.884187 356.633671 
L 576.808133 355.209615 
L 577.732079 354.188063 
L 578.656025 353.375108 
L 579.579971 352.190724 
L 580.503916 352.190724 
L 582.351808 349.385729 
L 583.275754 348.462454 
L 585.123646 347.068508 
L 588.819429 343.56377 
L 590.667321 342.449721 
L 591.591267 341.878847 
L 594.363105 339.807077 
L 596.210996 338.709889 
L 598.058888 337.790709 
L 599.90678 336.406639 
L 602.678618 334.622474 
L 606.374401 332.352223 
L 609.146239 330.423052 
L 610.994131 329.302259 
L 613.765968 327.369233 
L 620.233589 323.302533 
L 621.157535 322.371068 
L 623.005427 321.26834 
L 623.929373 320.784181 
L 624.853319 319.942321 
L 628.549102 317.203808 
L 630.396994 316.181292 
L 632.244886 314.448916 
L 635.016724 312.165899 
L 636.864615 310.94731 
L 639.636453 308.614431 
L 642.408291 306.708143 
L 643.332237 306.099451 
L 646.104074 303.95566 
L 649.799858 301.721058 
L 652.571695 299.738653 
L 653.495641 299.435873 
L 654.419587 298.807911 
L 655.343533 297.869942 
L 658.115371 295.621852 
L 659.039317 294.413139 
L 661.811154 291.559969 
L 662.7351 290.80916 
L 663.659046 289.567448 
L 664.582992 288.133998 
L 665.506938 287.089562 
L 671.050613 278.418287 
L 671.974559 276.713853 
L 672.898505 274.726149 
L 674.746397 269.525167 
L 675.670343 267.270572 
L 677.518234 259.392501 
L 678.44218 256.511149 
L 679.366126 252.40061 
L 680.290072 249.009083 
L 681.214018 244.139305 
L 683.06191 236.103219 
L 683.985856 233.366874 
L 684.909801 229.877552 
L 685.833747 226.84204 
L 686.757693 225.020781 
L 688.605585 219.66877 
L 689.529531 217.836671 
L 690.453477 216.587491 
L 691.377423 215.147779 
L 693.225314 213.079623 
L 694.14926 212.378675 
L 695.073206 211.533925 
L 696.921098 209.202251 
L 698.76899 207.43278 
L 700.616881 205.873352 
L 701.540827 205.144945 
L 703.388719 202.989592 
L 705.236611 201.231683 
L 706.160557 200.379225 
L 707.084503 199.906868 
L 708.008449 199.220855 
L 710.780286 196.018898 
L 715.400016 192.369153 
L 717.247907 188.848518 
L 720.943691 183.591411 
L 723.715529 178.376699 
L 726.487366 174.499327 
L 728.335258 171.323867 
L 728.335258 171.323867 
" clip-path="url(#pbdfe2a47b3)" style="fill: none; stroke: #003078; stroke-width: 2; stroke-linecap: square"/>
   </g>
   <g id="line2d_42">
    <path d="M 31.680061 476.745 
L 76.953409 476.66566 
L 85.268922 476.229497 
L 89.888652 475.72064 
L 93.584435 475.170659 
L 112.987299 472.791286 
L 117.607028 472.451909 
L 121.302812 472.235074 
L 139.781729 471.070311 
L 160.108539 470.523238 
L 167.500106 470.30931 
L 180.435348 470.138999 
L 195.218483 469.994857 
L 206.305833 469.877301 
L 231.252372 469.565756 
L 235.872101 469.354321 
L 248.807344 468.317083 
L 254.351019 467.455142 
L 258.046803 466.784697 
L 268.210207 464.072178 
L 270.982045 462.970555 
L 273.753883 462.03592 
L 276.52572 460.688384 
L 277.449666 460.372269 
L 279.297558 459.363694 
L 281.14545 458.381289 
L 284.841233 455.960791 
L 285.765179 455.620584 
L 286.689125 454.936847 
L 289.460963 453.444338 
L 290.384909 452.882726 
L 293.156746 451.788995 
L 294.080692 451.604561 
L 300.548313 448.923196 
L 301.472259 448.658175 
L 304.244097 447.377102 
L 307.93988 446.047012 
L 311.635664 444.051047 
L 313.483556 443.440834 
L 317.179339 440.919812 
L 319.027231 439.284408 
L 319.951177 438.960401 
L 323.646961 435.249276 
L 324.570906 435.249276 
L 325.494852 434.739173 
L 327.342744 434.263548 
L 328.26669 429.499816 
L 331.038528 426.09359 
L 332.886419 423.882036 
L 333.810365 422.630456 
L 334.734311 421.732791 
L 335.658257 421.732791 
L 336.582203 420.803556 
L 337.506149 419.082996 
L 341.201932 415.388072 
L 342.125878 415.388072 
L 343.049824 414.239924 
L 343.97377 412.573782 
L 345.821662 410.925916 
L 346.745608 409.996265 
L 347.669554 409.28262 
L 349.517445 407.263808 
L 353.213229 404.639352 
L 355.061121 403.205414 
L 358.756904 401.236865 
L 360.604796 400.224967 
L 363.376634 399.113374 
L 364.300579 398.751151 
L 368.920309 397.465508 
L 373.540038 396.282468 
L 374.463984 396.116726 
L 377.235822 395.391449 
L 380.007659 394.941163 
L 381.855551 394.522446 
L 385.551335 393.938403 
L 387.399227 393.596534 
L 392.018956 392.943951 
L 395.71474 392.501557 
L 425.281008 390.046167 
L 428.052845 390.006704 
L 430.824683 389.841793 
L 448.379655 389.299289 
L 473.326194 388.836126 
L 477.945923 388.737262 
L 483.489599 388.630921 
L 492.729057 388.28656 
L 495.500895 388.084679 
L 500.120624 387.684655 
L 501.968516 387.523483 
L 503.816408 387.201968 
L 504.740354 387.201968 
L 508.436137 386.421029 
L 510.284029 385.98445 
L 511.207975 385.98445 
L 512.131921 385.762215 
L 513.055867 385.24048 
L 516.75165 384.111857 
L 517.675596 384.111857 
L 518.599542 383.821912 
L 519.523488 383.327594 
L 520.447434 383.021449 
L 522.295326 382.192324 
L 523.219272 381.742453 
L 524.143217 381.742453 
L 525.067163 381.280535 
L 525.991109 380.427733 
L 526.915055 380.197189 
L 528.762947 379.510544 
L 529.686893 379.196922 
L 530.610839 379.196922 
L 532.45873 378.21327 
L 536.154514 377.033553 
L 537.07846 377.033553 
L 538.002406 376.734885 
L 538.926352 376.27546 
L 541.698189 375.498674 
L 542.622135 375.165114 
L 543.546081 375.165114 
L 544.470027 374.806214 
L 545.393973 374.239617 
L 546.317919 374.014058 
L 547.241865 374.014058 
L 548.16581 373.247242 
L 549.089756 372.794463 
L 550.013702 372.794463 
L 550.937648 372.337946 
L 551.861594 371.343494 
L 552.78554 371.02738 
L 554.633432 369.842263 
L 555.557378 369.124463 
L 556.481323 369.124463 
L 557.405269 368.449033 
L 558.329215 367.100251 
L 560.177107 365.813362 
L 561.101053 364.820987 
L 562.024999 364.077018 
L 562.948945 364.077018 
L 563.872891 363.097935 
L 564.796836 363.097935 
L 565.720782 361.489532 
L 566.644728 360.107103 
L 568.49262 358.168877 
L 569.416566 358.168877 
L 570.340512 357.176502 
L 571.264458 355.032657 
L 574.960241 350.904893 
L 575.884187 350.904893 
L 576.808133 349.942426 
L 577.732079 348.152912 
L 578.656025 347.353695 
L 579.579971 346.399121 
L 581.427862 344.110718 
L 582.351808 344.110718 
L 583.275754 342.982095 
L 584.1997 340.797956 
L 587.895484 336.534358 
L 588.819429 336.534358 
L 589.743375 335.162314 
L 590.667321 332.811603 
L 591.591267 331.86866 
L 592.515213 330.469199 
L 593.439159 329.397484 
L 594.363105 328.147566 
L 595.287051 328.147566 
L 596.210996 327.179283 
L 597.134942 325.523525 
L 598.982834 323.959569 
L 599.90678 322.547232 
L 600.830726 320.177412 
L 602.678618 320.177412 
L 603.602564 318.321019 
L 605.450455 316.529428 
L 606.374401 315.434866 
L 607.298347 314.134685 
L 608.222293 314.134685 
L 609.146239 312.903043 
L 610.070185 310.245356 
L 611.918077 307.48299 
L 612.842022 305.721722 
L 613.765968 304.352585 
L 614.689914 304.352585 
L 615.61386 303.043265 
L 616.537806 303.043265 
L 617.461752 300.846665 
L 620.233589 297.603689 
L 621.157535 297.603689 
L 622.081481 296.350862 
L 623.005427 294.280957 
L 624.853319 292.327777 
L 625.777265 291.165091 
L 626.701211 290.34012 
L 627.625157 290.34012 
L 628.549102 289.267159 
L 629.473048 287.479721 
L 630.396994 286.738659 
L 632.244886 284.950391 
L 633.168832 283.793935 
L 634.092778 283.793935 
L 635.016724 282.689404 
L 635.94067 280.811826 
L 636.864615 280.013855 
L 639.636453 276.91959 
L 640.560399 276.91959 
L 641.484345 275.919323 
L 642.408291 274.054622 
L 644.256182 272.35774 
L 645.180128 271.37035 
L 646.104074 270.154493 
L 647.02802 270.154493 
L 647.951966 269.339076 
L 648.875912 267.690379 
L 650.723804 266.012605 
L 651.64775 264.853242 
L 652.571695 263.874576 
L 653.495641 263.874576 
L 654.419587 262.808261 
L 655.343533 260.978453 
L 657.191425 259.142414 
L 659.039317 257.16348 
L 659.963263 257.16348 
L 660.887208 256.087196 
L 661.811154 254.200063 
L 662.7351 253.444463 
L 663.659046 252.434641 
L 665.506938 249.934804 
L 666.430884 249.934804 
L 667.35483 248.496712 
L 668.278775 245.673698 
L 669.202721 244.687139 
L 670.126667 242.750575 
L 671.050613 241.3831 
L 671.974559 238.577118 
L 672.898505 238.577118 
L 673.822451 236.360994 
L 674.746397 236.360994 
L 675.670343 231.219254 
L 676.594288 228.756387 
L 677.518234 220.01194 
L 678.44218 215.694757 
L 679.366126 215.694757 
L 680.290072 209.864295 
L 681.214018 209.864295 
L 683.06191 191.754804 
L 683.985856 187.927785 
L 684.909801 184.639946 
L 685.833747 184.639946 
L 686.757693 180.933391 
L 687.681639 176.076196 
L 688.605585 175.1723 
L 691.377423 171.455775 
L 692.301368 171.455775 
L 693.225314 170.569741 
L 694.14926 168.918552 
L 695.997152 167.259887 
L 697.845044 165.101918 
L 698.76899 165.101918 
L 699.692936 163.927601 
L 700.616881 162.130193 
L 701.540827 161.308961 
L 704.312665 157.783932 
L 705.236611 157.783932 
L 706.160557 156.604215 
L 707.084503 154.723314 
L 708.932394 153.26736 
L 710.780286 151.177931 
L 711.704232 151.177931 
L 712.628178 150.401976 
L 713.552124 148.997116 
L 715.400016 147.960709 
L 717.247907 146.440369 
L 718.171853 146.440369 
L 719.095799 145.819356 
L 720.019745 144.937891 
L 721.867637 144.087581 
L 723.715529 143.002574 
L 725.56342 143.002574 
L 726.487366 142.539825 
L 727.411312 141.845288 
L 728.335258 141.470187 
L 728.335258 141.470187 
" clip-path="url(#pbdfe2a47b3)" style="fill: none; stroke: #d4351c; stroke-width: 2; stroke-linecap: square"/>
   </g>
   <g id="patch_3">
    <path d="M 59.398438 476.745 
L 728.998437 476.745 
" style="fill: none; stroke: #000000; stroke-width: 0.8; stroke-linejoin: miter; stroke-linecap: square"/>
   </g>
   <g id="text_21">
    <!-- Cumulative COVID-19 cases by date reported, per capita -->
    <g transform="translate(227.654375 27.225)scale(0.12 -0.12)">
     <defs>
      <path id="Inter-Bold-43" d="M 4511 3025 
L 3516 3025 
Q 3459 3409 3188 3628 
Q 2918 3848 2514 3848 
Q 1973 3848 1647 3451 
Q 1321 3055 1321 2327 
Q 1321 1582 1649 1194 
Q 1977 807 2507 807 
Q 2900 807 3173 1012 
Q 3446 1218 3516 1591 
L 4511 1586 
Q 4459 1159 4207 782 
Q 3955 405 3522 170 
Q 3089 -64 2491 -64 
Q 1868 -64 1378 218 
Q 889 500 606 1034 
Q 323 1568 323 2327 
Q 323 3089 609 3623 
Q 896 4157 1386 4437 
Q 1877 4718 2491 4718 
Q 3030 4718 3463 4519 
Q 3896 4320 4172 3942 
Q 4448 3564 4511 3025 
z
" transform="scale(0.015625)"/>
      <path id="Inter-Bold-75" d="M 2625 1486 
L 2625 3491 
L 3593 3491 
L 3593 0 
L 2664 0 
L 2664 634 
L 2627 634 
Q 2509 327 2235 141 
Q 1961 -45 1568 -45 
Q 1041 -45 715 306 
Q 389 657 386 1268 
L 386 3491 
L 1355 3491 
L 1355 1441 
Q 1357 1132 1520 952 
Q 1684 773 1959 773 
Q 2221 773 2424 954 
Q 2627 1136 2625 1486 
z
" transform="scale(0.015625)"/>
      <path id="Inter-Bold-6d" d="M 386 0 
L 386 3491 
L 1309 3491 
L 1309 2875 
L 1350 2875 
Q 1459 3184 1715 3360 
Q 1971 3536 2323 3536 
Q 2682 3536 2934 3358 
Q 3186 3180 3271 2875 
L 3307 2875 
Q 3414 3175 3694 3355 
Q 3975 3536 4359 3536 
Q 4848 3536 5153 3226 
Q 5459 2916 5459 2348 
L 5459 0 
L 4493 0 
L 4493 2157 
Q 4493 2448 4338 2593 
Q 4184 2739 3952 2739 
Q 3689 2739 3541 2570 
Q 3393 2402 3393 2132 
L 3393 0 
L 2455 0 
L 2455 2177 
Q 2455 2434 2308 2586 
Q 2161 2739 1923 2739 
Q 1682 2739 1518 2562 
Q 1355 2386 1355 2095 
L 1355 0 
L 386 0 
z
" transform="scale(0.015625)"/>
      <path id="Inter-Bold-6c" d="M 1355 4655 
L 1355 0 
L 386 0 
L 386 4655 
L 1355 4655 
z
" transform="scale(0.015625)"/>
      <path id="Inter-Bold-61" d="M 1382 -66 
Q 882 -66 552 195 
Q 223 457 223 975 
Q 223 1366 407 1588 
Q 591 1811 890 1914 
Q 1189 2018 1534 2050 
Q 1989 2095 2184 2145 
Q 2380 2195 2380 2364 
L 2380 2377 
Q 2380 2593 2244 2711 
Q 2109 2830 1861 2830 
Q 1600 2830 1445 2716 
Q 1291 2602 1241 2427 
L 346 2500 
Q 446 2977 842 3256 
Q 1239 3536 1866 3536 
Q 2255 3536 2593 3413 
Q 2932 3291 3140 3030 
Q 3348 2770 3348 2355 
L 3348 0 
L 2430 0 
L 2430 484 
L 2402 484 
Q 2275 241 2021 87 
Q 1768 -66 1382 -66 
z
M 1659 602 
Q 1977 602 2181 787 
Q 2386 973 2386 1248 
L 2386 1618 
Q 2330 1580 2210 1550 
Q 2091 1520 1956 1498 
Q 1821 1477 1714 1461 
Q 1459 1425 1303 1318 
Q 1148 1211 1148 1007 
Q 1148 807 1292 704 
Q 1436 602 1659 602 
z
" transform="scale(0.015625)"/>
      <path id="Inter-Bold-74" d="M 2243 3491 
L 2243 2764 
L 1586 2764 
L 1586 1073 
Q 1586 873 1677 802 
Q 1768 732 1914 732 
Q 1982 732 2050 744 
Q 2118 757 2155 764 
L 2307 43 
Q 2234 20 2102 -10 
Q 1971 -41 1782 -48 
Q 1255 -70 935 181 
Q 616 432 618 945 
L 618 2764 
L 141 2764 
L 141 3491 
L 618 3491 
L 618 4327 
L 1586 4327 
L 1586 3491 
L 2243 3491 
z
" transform="scale(0.015625)"/>
      <path id="Inter-Bold-69" d="M 386 0 
L 386 3491 
L 1355 3491 
L 1355 0 
L 386 0 
z
M 876 3941 
Q 662 3941 507 4085 
Q 353 4230 353 4432 
Q 353 4634 507 4777 
Q 662 4920 876 4920 
Q 1092 4920 1246 4777 
Q 1401 4634 1401 4432 
Q 1401 4230 1246 4085 
Q 1092 3941 876 3941 
z
" transform="scale(0.015625)"/>
      <path id="Inter-Bold-76" d="M 3641 3491 
L 2421 0 
L 1330 0 
L 109 3491 
L 1132 3491 
L 1857 993 
L 1893 993 
L 2616 3491 
L 3641 3491 
z
" transform="scale(0.015625)"/>
      <path id="Inter-Bold-65" d="M 1977 -68 
Q 1441 -68 1052 151 
Q 664 370 455 773 
Q 246 1177 246 1730 
Q 246 2268 455 2675 
Q 664 3082 1044 3309 
Q 1425 3536 1939 3536 
Q 2400 3536 2771 3340 
Q 3143 3145 3361 2751 
Q 3580 2357 3580 1764 
L 3580 1498 
L 1202 1498 
L 1202 1495 
Q 1202 1105 1416 880 
Q 1630 655 1993 655 
Q 2236 655 2413 757 
Q 2591 859 2664 1059 
L 3559 1000 
Q 3457 514 3041 223 
Q 2625 -68 1977 -68 
z
M 1202 2098 
L 2668 2098 
Q 2666 2409 2468 2611 
Q 2271 2814 1955 2814 
Q 1632 2814 1425 2604 
Q 1218 2395 1202 2098 
z
" transform="scale(0.015625)"/>
      <path id="Inter-Bold-20" transform="scale(0.015625)"/>
      <path id="Inter-Bold-4f" d="M 4682 2327 
Q 4682 1566 4394 1032 
Q 4107 498 3614 217 
Q 3121 -64 2502 -64 
Q 1882 -64 1389 218 
Q 896 500 609 1035 
Q 323 1570 323 2327 
Q 323 3089 609 3623 
Q 896 4157 1389 4437 
Q 1882 4718 2502 4718 
Q 3121 4718 3614 4437 
Q 4107 4157 4394 3623 
Q 4682 3089 4682 2327 
z
M 3684 2327 
Q 3684 3068 3361 3458 
Q 3039 3848 2502 3848 
Q 1966 3848 1643 3458 
Q 1321 3068 1321 2327 
Q 1321 1589 1643 1198 
Q 1966 807 2502 807 
Q 3039 807 3361 1198 
Q 3684 1589 3684 2327 
z
" transform="scale(0.015625)"/>
      <path id="Inter-Bold-56" d="M 1246 4655 
L 2371 1118 
L 2414 1118 
L 3541 4655 
L 4632 4655 
L 3027 0 
L 1759 0 
L 152 4655 
L 1246 4655 
z
" transform="scale(0.015625)"/>
      <path id="Inter-Bold-49" d="M 1389 4655 
L 1389 0 
L 405 0 
L 405 4655 
L 1389 4655 
z
" transform="scale(0.015625)"/>
      <path id="Inter-Bold-44" d="M 2055 0 
L 405 0 
L 405 4655 
L 2068 4655 
Q 2771 4655 3278 4376 
Q 3786 4098 4059 3577 
Q 4332 3057 4332 2332 
Q 4332 1605 4058 1082 
Q 3784 559 3274 279 
Q 2764 0 2055 0 
z
M 1389 843 
L 2014 843 
Q 2671 843 3010 1197 
Q 3350 1552 3350 2332 
Q 3350 3107 3010 3459 
Q 2671 3811 2016 3811 
L 1389 3811 
L 1389 843 
z
" transform="scale(0.015625)"/>
      <path id="Inter-Bold-2d" d="M 2561 2295 
L 2561 1527 
L 439 1527 
L 439 2295 
L 2561 2295 
z
" transform="scale(0.015625)"/>
      <path id="Inter-Bold-31" d="M 2305 4655 
L 2305 0 
L 1323 0 
L 1323 3450 
L 1280 3450 
Q 1205 3334 961 3219 
Q 718 3105 332 3105 
L 332 3886 
Q 632 3886 857 4019 
Q 1082 4152 1209 4333 
Q 1336 4514 1341 4655 
L 2305 4655 
z
" transform="scale(0.015625)"/>
      <path id="Inter-Bold-39" d="M 2061 4732 
Q 2421 4732 2753 4612 
Q 3086 4493 3348 4227 
Q 3611 3961 3766 3523 
Q 3921 3086 3921 2448 
Q 3921 1659 3686 1096 
Q 3452 534 3028 235 
Q 2605 -64 2027 -64 
Q 1561 -64 1204 117 
Q 848 298 631 610 
Q 414 923 368 1314 
L 1339 1314 
Q 1396 1059 1577 919 
Q 1759 780 2027 780 
Q 2482 780 2718 1176 
Q 2955 1573 2957 2264 
L 2925 2264 
Q 2771 1957 2453 1782 
Q 2136 1607 1752 1607 
Q 1341 1607 1016 1801 
Q 691 1995 506 2334 
Q 321 2673 323 3109 
Q 321 3582 539 3949 
Q 757 4316 1149 4525 
Q 1541 4734 2061 4732 
z
M 2068 3959 
Q 1725 3959 1500 3722 
Q 1275 3486 1277 3136 
Q 1275 2791 1496 2555 
Q 1718 2320 2059 2320 
Q 2284 2320 2465 2431 
Q 2646 2543 2751 2729 
Q 2857 2916 2859 3141 
Q 2857 3366 2753 3551 
Q 2650 3736 2473 3847 
Q 2296 3959 2068 3959 
z
" transform="scale(0.015625)"/>
      <path id="Inter-Bold-63" d="M 1964 -68 
Q 1427 -68 1042 160 
Q 657 389 451 795 
Q 246 1202 246 1732 
Q 246 2268 453 2674 
Q 661 3080 1045 3308 
Q 1430 3536 1959 3536 
Q 2416 3536 2760 3370 
Q 3105 3205 3303 2905 
Q 3502 2605 3523 2200 
L 2609 2200 
Q 2571 2461 2406 2621 
Q 2241 2782 1975 2782 
Q 1639 2782 1434 2511 
Q 1230 2241 1230 1745 
Q 1230 1245 1433 971 
Q 1636 698 1975 698 
Q 2225 698 2395 849 
Q 2566 1000 2609 1280 
L 3523 1280 
Q 3500 880 3305 575 
Q 3111 270 2770 101 
Q 2430 -68 1964 -68 
z
" transform="scale(0.015625)"/>
      <path id="Inter-Bold-73" d="M 3291 2495 
L 2405 2441 
Q 2368 2609 2220 2729 
Q 2073 2850 1821 2850 
Q 1596 2850 1440 2755 
Q 1284 2661 1286 2505 
Q 1284 2380 1385 2293 
Q 1486 2207 1730 2155 
L 2361 2027 
Q 3368 1820 3371 1082 
Q 3371 739 3169 479 
Q 2968 220 2618 76 
Q 2268 -68 1816 -68 
Q 1123 -68 711 221 
Q 300 511 232 1011 
L 1184 1061 
Q 1230 848 1394 739 
Q 1559 630 1818 630 
Q 2073 630 2228 730 
Q 2384 830 2386 984 
Q 2380 1243 1939 1332 
L 1334 1452 
Q 321 1655 325 2450 
Q 323 2955 728 3245 
Q 1134 3536 1805 3536 
Q 2466 3536 2846 3256 
Q 3227 2977 3291 2495 
z
" transform="scale(0.015625)"/>
      <path id="Inter-Bold-62" d="M 405 0 
L 405 4655 
L 1373 4655 
L 1373 2905 
L 1402 2905 
Q 1468 3048 1588 3193 
Q 1709 3339 1907 3437 
Q 2105 3536 2396 3536 
Q 2780 3536 3100 3337 
Q 3421 3139 3615 2740 
Q 3809 2341 3809 1741 
Q 3809 1157 3620 756 
Q 3432 355 3111 149 
Q 2791 -57 2393 -57 
Q 2111 -57 1914 36 
Q 1718 130 1594 272 
Q 1471 414 1402 559 
L 1359 559 
L 1359 0 
L 405 0 
z
M 1352 1745 
Q 1352 1280 1544 997 
Q 1736 714 2086 714 
Q 2443 714 2632 1001 
Q 2821 1289 2821 1745 
Q 2821 2200 2633 2483 
Q 2446 2766 2086 2766 
Q 1734 2766 1543 2490 
Q 1352 2214 1352 1745 
z
" transform="scale(0.015625)"/>
      <path id="Inter-Bold-79" d="M 950 -1359 
Q 743 -1359 596 -1324 
Q 450 -1289 368 -1252 
L 586 -502 
Q 843 -580 1019 -543 
Q 1196 -507 1298 -268 
L 1361 -100 
L 109 3491 
L 1127 3491 
L 1850 927 
L 1886 927 
L 2616 3491 
L 3641 3491 
L 2277 -400 
Q 2130 -818 1806 -1088 
Q 1482 -1359 950 -1359 
z
" transform="scale(0.015625)"/>
      <path id="Inter-Bold-64" d="M 1673 -57 
Q 1275 -57 954 149 
Q 634 355 445 756 
Q 257 1157 257 1741 
Q 257 2341 451 2740 
Q 646 3139 967 3337 
Q 1289 3536 1671 3536 
Q 1964 3536 2160 3437 
Q 2357 3339 2478 3193 
Q 2600 3048 2664 2905 
L 2693 2905 
L 2693 4655 
L 3659 4655 
L 3659 0 
L 2705 0 
L 2705 559 
L 2664 559 
Q 2598 414 2473 272 
Q 2348 130 2151 36 
Q 1955 -57 1673 -57 
z
M 1980 714 
Q 2330 714 2522 997 
Q 2714 1280 2714 1745 
Q 2714 2214 2523 2490 
Q 2332 2766 1980 2766 
Q 1621 2766 1433 2483 
Q 1246 2200 1246 1745 
Q 1246 1289 1434 1001 
Q 1623 714 1980 714 
z
" transform="scale(0.015625)"/>
      <path id="Inter-Bold-72" d="M 386 0 
L 386 3491 
L 1325 3491 
L 1325 2882 
L 1361 2882 
Q 1457 3207 1681 3374 
Q 1905 3541 2200 3541 
Q 2341 3541 2461 3507 
Q 2582 3473 2677 3414 
L 2386 2614 
Q 2318 2648 2237 2671 
Q 2157 2695 2057 2695 
Q 1764 2695 1560 2495 
Q 1357 2295 1355 1975 
L 1355 0 
L 386 0 
z
" transform="scale(0.015625)"/>
      <path id="Inter-Bold-70" d="M 386 -1309 
L 386 3491 
L 1341 3491 
L 1341 2905 
L 1384 2905 
Q 1450 3048 1570 3193 
Q 1691 3339 1888 3437 
Q 2086 3536 2377 3536 
Q 2761 3536 3081 3337 
Q 3402 3139 3596 2740 
Q 3791 2341 3791 1741 
Q 3791 1157 3602 756 
Q 3414 355 3093 149 
Q 2773 -57 2375 -57 
Q 2093 -57 1896 36 
Q 1700 130 1576 272 
Q 1452 414 1384 559 
L 1355 559 
L 1355 -1309 
L 386 -1309 
z
M 1334 1745 
Q 1334 1280 1526 997 
Q 1718 714 2068 714 
Q 2425 714 2613 1001 
Q 2802 1289 2802 1745 
Q 2802 2200 2614 2483 
Q 2427 2766 2068 2766 
Q 1716 2766 1525 2490 
Q 1334 2214 1334 1745 
z
" transform="scale(0.015625)"/>
      <path id="Inter-Bold-6f" d="M 1964 -68 
Q 1434 -68 1049 158 
Q 664 384 455 789 
Q 246 1195 246 1732 
Q 246 2273 455 2678 
Q 664 3084 1049 3310 
Q 1434 3536 1964 3536 
Q 2493 3536 2878 3310 
Q 3264 3084 3473 2678 
Q 3682 2273 3682 1732 
Q 3682 1195 3473 789 
Q 3264 384 2878 158 
Q 2493 -68 1964 -68 
z
M 1968 682 
Q 2327 682 2512 982 
Q 2698 1282 2698 1739 
Q 2698 2195 2512 2496 
Q 2327 2798 1968 2798 
Q 1602 2798 1416 2496 
Q 1230 2195 1230 1739 
Q 1230 1282 1416 982 
Q 1602 682 1968 682 
z
" transform="scale(0.015625)"/>
      <path id="Inter-Bold-2c" d="M 1439 636 
L 1414 386 
Q 1384 86 1301 -212 
Q 1218 -511 1128 -754 
Q 1039 -998 984 -1136 
L 357 -1136 
Q 391 -1002 450 -763 
Q 509 -525 561 -226 
Q 614 73 627 382 
L 639 636 
L 1439 636 
z
" transform="scale(0.015625)"/>
     </defs>
     <use xlink:href="#Inter-Bold-43"/>
     <use xlink:href="#Inter-Bold-75" x="75.213089"/>
     <use xlink:href="#Inter-Bold-6d" x="137.393494"/>
     <use xlink:href="#Inter-Bold-75" x="228.5867"/>
     <use xlink:href="#Inter-Bold-6c" x="290.767105"/>
     <use xlink:href="#Inter-Bold-61" x="317.968811"/>
     <use xlink:href="#Inter-Bold-74" x="375.994385"/>
     <use xlink:href="#Inter-Bold-69" x="414.843826"/>
     <use xlink:href="#Inter-Bold-76" x="442.045532"/>
     <use xlink:href="#Inter-Bold-65" x="500.639297"/>
     <use xlink:href="#Inter-Bold-20" x="560.404938"/>
     <use xlink:href="#Inter-Bold-43" x="583.593857"/>
     <use xlink:href="#Inter-Bold-4f" x="658.806946"/>
     <use xlink:href="#Inter-Bold-56" x="737.002991"/>
     <use xlink:href="#Inter-Bold-49" x="811.789932"/>
     <use xlink:href="#Inter-Bold-44" x="839.843918"/>
     <use xlink:href="#Inter-Bold-2d" x="912.571213"/>
     <use xlink:href="#Inter-Bold-31" x="959.446228"/>
     <use xlink:href="#Inter-Bold-39" x="1006.853912"/>
     <use xlink:href="#Inter-Bold-20" x="1072.869553"/>
     <use xlink:href="#Inter-Bold-63" x="1096.058472"/>
     <use xlink:href="#Inter-Bold-61" x="1154.794281"/>
     <use xlink:href="#Inter-Bold-73" x="1212.819855"/>
     <use xlink:href="#Inter-Bold-65" x="1268.99884"/>
     <use xlink:href="#Inter-Bold-73" x="1328.764481"/>
     <use xlink:href="#Inter-Bold-20" x="1384.943466"/>
     <use xlink:href="#Inter-Bold-62" x="1408.132385"/>
     <use xlink:href="#Inter-Bold-79" x="1471.662231"/>
     <use xlink:href="#Inter-Bold-20" x="1530.255997"/>
     <use xlink:href="#Inter-Bold-64" x="1553.444916"/>
     <use xlink:href="#Inter-Bold-61" x="1616.974762"/>
     <use xlink:href="#Inter-Bold-74" x="1675.000336"/>
     <use xlink:href="#Inter-Bold-65" x="1713.849777"/>
     <use xlink:href="#Inter-Bold-20" x="1773.615417"/>
     <use xlink:href="#Inter-Bold-72" x="1796.804337"/>
     <use xlink:href="#Inter-Bold-65" x="1839.666565"/>
     <use xlink:href="#Inter-Bold-70" x="1899.432205"/>
     <use xlink:href="#Inter-Bold-6f" x="1962.677963"/>
     <use xlink:href="#Inter-Bold-72" x="2024.041611"/>
     <use xlink:href="#Inter-Bold-74" x="2066.903839"/>
     <use xlink:href="#Inter-Bold-65" x="2105.753281"/>
     <use xlink:href="#Inter-Bold-64" x="2165.518921"/>
     <use xlink:href="#Inter-Bold-2c" x="2229.048767"/>
     <use xlink:href="#Inter-Bold-20" x="2259.339966"/>
     <use xlink:href="#Inter-Bold-70" x="2282.528885"/>
     <use xlink:href="#Inter-Bold-65" x="2345.774643"/>
     <use xlink:href="#Inter-Bold-72" x="2405.540283"/>
     <use xlink:href="#Inter-Bold-20" x="2448.402512"/>
     <use xlink:href="#Inter-Bold-63" x="2471.591431"/>
     <use xlink:href="#Inter-Bold-61" x="2530.32724"/>
     <use xlink:href="#Inter-Bold-70" x="2588.352814"/>
     <use xlink:href="#Inter-Bold-69" x="2651.598572"/>
     <use xlink:href="#Inter-Bold-74" x="2678.800278"/>
     <use xlink:href="#Inter-Bold-61" x="2717.649719"/>
    </g>
   </g>
   <g id="legend_1">
    <g id="patch_4">
     <path d="M 66.398438 98.614062 
L 175.971875 98.614062 
Q 177.971875 98.614062 177.971875 96.614062 
L 177.971875 40.225 
Q 177.971875 38.225 175.971875 38.225 
L 66.398438 38.225 
Q 64.398438 38.225 64.398438 40.225 
L 64.398438 96.614062 
Q 64.398438 98.614062 66.398438 98.614062 
z
" style="fill: #ffffff; opacity: 0.8; stroke: #cccccc; stroke-linejoin: miter"/>
    </g>
    <g id="line2d_43">
     <path d="M 68.398438 45.998437 
L 78.398438 45.998437 
L 88.398438 45.998437 
" style="fill: none; stroke: #d4351c; stroke-width: 2; stroke-linecap: square"/>
    </g>
    <g id="text_22">
     <!-- Wales -->
     <g transform="translate(96.398438 49.498437)scale(0.1 -0.1)">
      <defs>
       <path id="Inter-Regular-57" d="M 1409 0 
L 136 4655 
L 709 4655 
L 1682 864 
L 1727 864 
L 2718 4655 
L 3355 4655 
L 4346 864 
L 4391 864 
L 5364 4655 
L 5936 4655 
L 4664 0 
L 4082 0 
L 3055 3709 
L 3018 3709 
L 1991 0 
L 1409 0 
z
" transform="scale(0.015625)"/>
      </defs>
      <use xlink:href="#Inter-Regular-57"/>
      <use xlink:href="#Inter-Regular-61" x="94.886383"/>
      <use xlink:href="#Inter-Regular-6c" x="151.278442"/>
      <use xlink:href="#Inter-Regular-65" x="175.000031"/>
      <use xlink:href="#Inter-Regular-73" x="233.238678"/>
     </g>
    </g>
    <g id="line2d_44">
     <path d="M 68.398438 60.317187 
L 78.398438 60.317187 
L 88.398438 60.317187 
" style="fill: none; stroke: #003078; stroke-width: 2; stroke-linecap: square"/>
    </g>
    <g id="text_23">
     <!-- Scotland -->
     <g transform="translate(96.398438 63.817187)scale(0.1 -0.1)">
      <use xlink:href="#Inter-Regular-53"/>
      <use xlink:href="#Inter-Regular-63" x="63.778427"/>
      <use xlink:href="#Inter-Regular-6f" x="119.602295"/>
      <use xlink:href="#Inter-Regular-74" x="179.261398"/>
      <use xlink:href="#Inter-Regular-6c" x="215.625046"/>
      <use xlink:href="#Inter-Regular-61" x="239.346634"/>
      <use xlink:href="#Inter-Regular-6e" x="295.738693"/>
      <use xlink:href="#Inter-Regular-64" x="354.261429"/>
     </g>
    </g>
    <g id="line2d_45">
     <path d="M 68.398438 74.635937 
L 78.398438 74.635937 
L 88.398438 74.635937 
" style="fill: none; stroke: #ffdd00; stroke-width: 2; stroke-linecap: square"/>
    </g>
    <g id="text_24">
     <!-- Northern Ireland -->
     <g transform="translate(96.398438 78.135937)scale(0.1 -0.1)">
      <defs>
       <path id="Inter-Regular-68" d="M 1027 2100 
L 1027 0 
L 491 0 
L 491 4655 
L 1027 4655 
L 1027 2945 
L 1073 2945 
Q 1196 3216 1442 3376 
Q 1689 3536 2100 3536 
Q 2636 3536 2963 3213 
Q 3291 2891 3291 2218 
L 3291 0 
L 2755 0 
L 2755 2182 
Q 2755 2598 2540 2826 
Q 2325 3055 1946 3055 
Q 1548 3055 1287 2806 
Q 1027 2557 1027 2100 
z
" transform="scale(0.015625)"/>
       <path id="Inter-Regular-49" d="M 1127 4655 
L 1127 0 
L 564 0 
L 564 4655 
L 1127 4655 
z
" transform="scale(0.015625)"/>
      </defs>
      <use xlink:href="#Inter-Regular-4e"/>
      <use xlink:href="#Inter-Regular-6f" x="75.284103"/>
      <use xlink:href="#Inter-Regular-72" x="134.943207"/>
      <use xlink:href="#Inter-Regular-74" x="173.295486"/>
      <use xlink:href="#Inter-Regular-68" x="209.659134"/>
      <use xlink:href="#Inter-Regular-65" x="268.750061"/>
      <use xlink:href="#Inter-Regular-72" x="326.988708"/>
      <use xlink:href="#Inter-Regular-6e" x="365.340988"/>
      <use xlink:href="#Inter-Regular-20" x="423.863724"/>
      <use xlink:href="#Inter-Regular-49" x="451.988724"/>
      <use xlink:href="#Inter-Regular-72" x="478.40918"/>
      <use xlink:href="#Inter-Regular-65" x="516.761459"/>
      <use xlink:href="#Inter-Regular-6c" x="575.000107"/>
      <use xlink:href="#Inter-Regular-61" x="598.721695"/>
      <use xlink:href="#Inter-Regular-6e" x="655.113754"/>
      <use xlink:href="#Inter-Regular-64" x="713.63649"/>
     </g>
    </g>
    <g id="line2d_46">
     <path d="M 68.398438 88.954687 
L 78.398438 88.954687 
L 88.398438 88.954687 
" style="fill: none; stroke: #5694ca; stroke-width: 2; stroke-linecap: square"/>
    </g>
    <g id="text_25">
     <!-- England -->
     <g transform="translate(96.398438 92.454687)scale(0.1 -0.1)">
      <defs>
       <path id="Inter-Regular-45" d="M 564 0 
L 564 4655 
L 3373 4655 
L 3373 4155 
L 1127 4155 
L 1127 2582 
L 3227 2582 
L 3227 2082 
L 1127 2082 
L 1127 500 
L 3409 500 
L 3409 0 
L 564 0 
z
" transform="scale(0.015625)"/>
       <path id="Inter-Regular-67" d="M 1900 -1382 
Q 1316 -1382 976 -1169 
Q 636 -957 473 -682 
L 900 -382 
Q 973 -477 1084 -601 
Q 1196 -725 1390 -817 
Q 1584 -909 1900 -909 
Q 2323 -909 2598 -704 
Q 2873 -500 2873 -64 
L 2873 645 
L 2827 645 
Q 2768 550 2660 410 
Q 2552 270 2351 162 
Q 2150 55 1809 55 
Q 1386 55 1051 255 
Q 716 455 521 836 
Q 327 1218 327 1764 
Q 327 2300 516 2699 
Q 705 3098 1041 3317 
Q 1377 3536 1818 3536 
Q 2159 3536 2360 3423 
Q 2561 3311 2669 3169 
Q 2777 3027 2836 2936 
L 2891 2936 
L 2891 3491 
L 3409 3491 
L 3409 -100 
Q 3409 -550 3205 -833 
Q 3002 -1116 2660 -1249 
Q 2318 -1382 1900 -1382 
z
M 1882 536 
Q 2366 536 2624 864 
Q 2882 1193 2882 1773 
Q 2882 2339 2627 2697 
Q 2373 3055 1882 3055 
Q 1541 3055 1315 2882 
Q 1089 2709 976 2418 
Q 864 2127 864 1773 
Q 864 1227 1120 881 
Q 1377 536 1882 536 
z
" transform="scale(0.015625)"/>
      </defs>
      <use xlink:href="#Inter-Regular-45"/>
      <use xlink:href="#Inter-Regular-6e" x="59.801147"/>
      <use xlink:href="#Inter-Regular-67" x="118.323883"/>
      <use xlink:href="#Inter-Regular-6c" x="179.261398"/>
      <use xlink:href="#Inter-Regular-61" x="202.982986"/>
      <use xlink:href="#Inter-Regular-6e" x="259.375046"/>
      <use xlink:href="#Inter-Regular-64" x="317.897781"/>
     </g>
    </g>
   </g>
  </g>
 </g>
 <defs>
  <clipPath id="pbdfe2a47b3">
   <rect x="59.398438" y="33.225" width="669.6" height="443.52"/>
  </clipPath>
 </defs>
</svg>
