<?xml version="1.0" encoding="utf-8" standalone="no"?>
<!DOCTYPE svg PUBLIC "-//W3C//DTD SVG 1.1//EN"
  "http://www.w3.org/Graphics/SVG/1.1/DTD/svg11.dtd">
<svg version="1.1" viewBox="0 0 756.175 511.234062" xmlns="http://www.w3.org/2000/svg" xmlns:xlink="http://www.w3.org/1999/xlink">
 <metadata>
  <rdf:RDF xmlns:cc="http://creativecommons.org/ns#" xmlns:dc="http://purl.org/dc/elements/1.1/" xmlns:rdf="http://www.w3.org/1999/02/22-rdf-syntax-ns#">
   <cc:Work>
    <dc:type rdf:resource="http://purl.org/dc/dcmitype/StillImage"/>
    <dc:date>2021-08-03T16:23:50.192783</dc:date>
    <dc:format>image/svg+xml</dc:format>
    <dc:creator>
     <cc:Agent>
      <dc:title>Matplotlib v3.4.2, https://matplotlib.org/</dc:title>
     </cc:Agent>
    </dc:creator>
   </cc:Work>
  </rdf:RDF>
 </metadata>
 <defs>
  <style type="text/css">*{stroke-linecap:butt;stroke-linejoin:round;}</style>
 </defs>
 <g id="figure_1">
  <g id="patch_1">
   <path d="M 0 511.234062 
L 756.175 511.234062 
L 756.175 0 
L 0 0 
z
" style="fill:#ffffff;"/>
  </g>
  <g id="axes_1">
   <g id="patch_2">
    <path d="M 68.575 476.745 
L 738.175 476.745 
L 738.175 33.225 
L 68.575 33.225 
z
" style="fill:#ffffff;"/>
   </g>
   <g id="matplotlib.axis_1">
    <g id="xtick_1">
     <g id="line2d_1">
      <defs>
       <path d="M 0 0 
L 0 3.5 
" id="m98523c9e1f" style="stroke:#000000;stroke-width:0.8;"/>
      </defs>
      <g>
       <use style="stroke:#000000;stroke-width:0.8;" x="68.575" xlink:href="#m98523c9e1f" y="476.745"/>
      </g>
     </g>
     <g id="text_1">
      <!-- 01 Mar -->
      <g transform="translate(52.538281 491.018437)scale(0.1 -0.1)">
       <defs>
        <path d="M 2000 -64 
Q 1230 -64 806 561 
Q 382 1186 382 2327 
Q 382 3459 809 4088 
Q 1236 4718 2000 4718 
Q 2764 4718 3191 4088 
Q 3618 3459 3618 2327 
Q 3618 1186 3194 561 
Q 2771 -64 2000 -64 
z
M 2000 436 
Q 2509 436 2791 927 
Q 3073 1418 3073 2327 
Q 3073 3234 2789 3730 
Q 2505 4227 2000 4227 
Q 1496 4227 1211 3730 
Q 927 3234 927 2327 
Q 927 1418 1210 927 
Q 1493 436 2000 436 
z
" id="Inter-Regular-30" transform="scale(0.015625)"/>
        <path d="M 1973 4655 
L 1973 0 
L 1409 0 
L 1409 3836 
L 1373 3836 
Q 1341 3773 1209 3692 
Q 1077 3611 868 3551 
Q 659 3491 391 3491 
L 391 3964 
Q 661 3964 859 4061 
Q 1057 4159 1190 4291 
Q 1323 4423 1392 4529 
Q 1461 4636 1473 4655 
L 1973 4655 
z
" id="Inter-Regular-31" transform="scale(0.015625)"/>
        <path id="Inter-Regular-20" transform="scale(0.015625)"/>
        <path d="M 564 4655 
L 1236 4655 
L 2818 791 
L 2873 791 
L 4455 4655 
L 5127 4655 
L 5127 0 
L 4600 0 
L 4600 3536 
L 4555 3536 
L 3100 0 
L 2591 0 
L 1136 3536 
L 1091 3536 
L 1091 0 
L 564 0 
L 564 4655 
z
" id="Inter-Regular-4d" transform="scale(0.015625)"/>
        <path d="M 1518 -82 
Q 1186 -82 916 44 
Q 646 170 486 410 
Q 327 650 327 991 
Q 327 1291 445 1478 
Q 564 1666 761 1773 
Q 959 1880 1199 1933 
Q 1439 1986 1682 2018 
Q 2000 2059 2199 2080 
Q 2398 2102 2490 2154 
Q 2582 2207 2582 2336 
L 2582 2355 
Q 2582 2691 2399 2877 
Q 2216 3064 1846 3064 
Q 1461 3064 1243 2895 
Q 1025 2727 936 2536 
L 427 2718 
Q 564 3036 792 3214 
Q 1021 3393 1292 3464 
Q 1564 3536 1827 3536 
Q 1996 3536 2215 3496 
Q 2434 3457 2640 3334 
Q 2846 3211 2982 2963 
Q 3118 2716 3118 2300 
L 3118 0 
L 2582 0 
L 2582 473 
L 2555 473 
Q 2500 359 2373 229 
Q 2246 100 2034 9 
Q 1823 -82 1518 -82 
z
M 1600 400 
Q 1918 400 2137 525 
Q 2357 650 2469 847 
Q 2582 1045 2582 1264 
L 2582 1755 
Q 2548 1714 2433 1681 
Q 2318 1648 2169 1624 
Q 2021 1600 1881 1583 
Q 1741 1566 1655 1555 
Q 1446 1527 1265 1467 
Q 1084 1407 974 1287 
Q 864 1168 864 964 
Q 864 684 1072 542 
Q 1280 400 1600 400 
z
" id="Inter-Regular-61" transform="scale(0.015625)"/>
        <path d="M 491 0 
L 491 3491 
L 1009 3491 
L 1009 2964 
L 1046 2964 
Q 1139 3223 1389 3384 
Q 1639 3545 1955 3545 
Q 2100 3545 2209 3511 
Q 2318 3477 2400 3418 
L 2218 2964 
Q 2161 2993 2085 3010 
Q 2009 3027 1909 3027 
Q 1527 3027 1277 2794 
Q 1027 2561 1027 2209 
L 1027 0 
L 491 0 
z
" id="Inter-Regular-72" transform="scale(0.015625)"/>
       </defs>
       <use xlink:href="#Inter-Regular-30"/>
       <use x="62.500015" xlink:href="#Inter-Regular-31"/>
       <use x="106.676163" xlink:href="#Inter-Regular-20"/>
       <use x="134.801163" xlink:href="#Inter-Regular-4d"/>
       <use x="225.99437" xlink:href="#Inter-Regular-61"/>
       <use x="282.386429" xlink:href="#Inter-Regular-72"/>
      </g>
     </g>
    </g>
    <g id="xtick_2">
     <g id="line2d_2">
      <g>
       <use style="stroke:#000000;stroke-width:0.8;" x="108.441255" xlink:href="#m98523c9e1f" y="476.745"/>
      </g>
     </g>
    </g>
    <g id="xtick_3">
     <g id="line2d_3">
      <g>
       <use style="stroke:#000000;stroke-width:0.8;" x="147.021502" xlink:href="#m98523c9e1f" y="476.745"/>
      </g>
     </g>
     <g id="text_2">
      <!-- 01 May -->
      <g transform="translate(130.118377 491.116875)scale(0.1 -0.1)">
       <defs>
        <path d="M 818 -1355 
Q 682 -1355 575 -1333 
Q 468 -1311 427 -1291 
L 564 -818 
Q 857 -893 1053 -814 
Q 1250 -736 1391 -345 
L 1509 -18 
L 218 3491 
L 800 3491 
L 1764 709 
L 1800 709 
L 2764 3491 
L 3346 3491 
L 1846 -564 
Q 1550 -1355 818 -1355 
z
" id="Inter-Regular-79" transform="scale(0.015625)"/>
       </defs>
       <use xlink:href="#Inter-Regular-30"/>
       <use x="62.500015" xlink:href="#Inter-Regular-31"/>
       <use x="106.676163" xlink:href="#Inter-Regular-20"/>
       <use x="134.801163" xlink:href="#Inter-Regular-4d"/>
       <use x="225.99437" xlink:href="#Inter-Regular-61"/>
       <use x="282.386429" xlink:href="#Inter-Regular-79"/>
      </g>
     </g>
    </g>
    <g id="xtick_4">
     <g id="line2d_4">
      <g>
       <use style="stroke:#000000;stroke-width:0.8;" x="186.887757" xlink:href="#m98523c9e1f" y="476.745"/>
      </g>
     </g>
    </g>
    <g id="xtick_5">
     <g id="line2d_5">
      <g>
       <use style="stroke:#000000;stroke-width:0.8;" x="225.468004" xlink:href="#m98523c9e1f" y="476.745"/>
      </g>
     </g>
     <g id="text_3">
      <!-- 01 Jul -->
      <g transform="translate(211.924254 491.018437)scale(0.1 -0.1)">
       <defs>
        <path d="M 2346 4655 
L 2909 4655 
L 2909 1327 
Q 2909 657 2549 296 
Q 2189 -64 1582 -64 
Q 1200 -64 902 76 
Q 605 216 434 475 
Q 264 734 264 1091 
L 818 1091 
Q 818 795 1034 615 
Q 1250 436 1582 436 
Q 1948 436 2147 664 
Q 2346 893 2346 1327 
L 2346 4655 
z
" id="Inter-Regular-4a" transform="scale(0.015625)"/>
        <path d="M 2691 1427 
L 2691 3491 
L 3227 3491 
L 3227 0 
L 2691 0 
L 2691 591 
L 2655 591 
Q 2532 325 2273 140 
Q 2014 -45 1618 -45 
Q 1127 -45 809 280 
Q 491 605 491 1273 
L 491 3491 
L 1027 3491 
L 1027 1309 
Q 1027 927 1242 700 
Q 1457 473 1791 473 
Q 1991 473 2199 575 
Q 2407 677 2549 888 
Q 2691 1100 2691 1427 
z
" id="Inter-Regular-75" transform="scale(0.015625)"/>
        <path d="M 1027 4655 
L 1027 0 
L 491 0 
L 491 4655 
L 1027 4655 
z
" id="Inter-Regular-6c" transform="scale(0.015625)"/>
       </defs>
       <use xlink:href="#Inter-Regular-30"/>
       <use x="62.500015" xlink:href="#Inter-Regular-31"/>
       <use x="106.676163" xlink:href="#Inter-Regular-20"/>
       <use x="134.801163" xlink:href="#Inter-Regular-4a"/>
       <use x="189.062531" xlink:href="#Inter-Regular-75"/>
       <use x="247.159134" xlink:href="#Inter-Regular-6c"/>
      </g>
     </g>
    </g>
    <g id="xtick_6">
     <g id="line2d_6">
      <g>
       <use style="stroke:#000000;stroke-width:0.8;" x="265.33426" xlink:href="#m98523c9e1f" y="476.745"/>
      </g>
     </g>
    </g>
    <g id="xtick_7">
     <g id="line2d_7">
      <g>
       <use style="stroke:#000000;stroke-width:0.8;" x="305.200515" xlink:href="#m98523c9e1f" y="476.745"/>
      </g>
     </g>
     <g id="text_4">
      <!-- 01 Sep -->
      <g transform="translate(289.313015 491.116875)scale(0.1 -0.1)">
       <defs>
        <path d="M 3109 3491 
Q 3068 3836 2777 4027 
Q 2486 4218 2064 4218 
Q 1600 4218 1318 3999 
Q 1036 3780 1036 3445 
Q 1036 3195 1189 3042 
Q 1343 2889 1553 2803 
Q 1764 2718 1936 2673 
L 2409 2545 
Q 2591 2498 2815 2414 
Q 3039 2330 3244 2185 
Q 3450 2041 3584 1816 
Q 3718 1591 3718 1264 
Q 3718 886 3521 581 
Q 3325 277 2949 97 
Q 2573 -82 2036 -82 
Q 1286 -82 845 272 
Q 405 627 364 1200 
L 946 1200 
Q 968 936 1124 764 
Q 1280 593 1519 510 
Q 1759 427 2036 427 
Q 2359 427 2616 533 
Q 2873 639 3023 828 
Q 3173 1018 3173 1273 
Q 3173 1505 3043 1650 
Q 2914 1795 2702 1886 
Q 2491 1977 2246 2045 
L 1673 2209 
Q 1127 2366 809 2657 
Q 491 2948 491 3418 
Q 491 3809 703 4101 
Q 916 4393 1276 4555 
Q 1636 4718 2082 4718 
Q 2532 4718 2882 4558 
Q 3232 4398 3437 4120 
Q 3643 3843 3655 3491 
L 3109 3491 
z
" id="Inter-Regular-53" transform="scale(0.015625)"/>
        <path d="M 1955 -73 
Q 1450 -73 1085 151 
Q 721 375 524 778 
Q 327 1182 327 1718 
Q 327 2255 524 2665 
Q 721 3075 1074 3305 
Q 1427 3536 1900 3536 
Q 2173 3536 2439 3445 
Q 2705 3355 2923 3151 
Q 3141 2948 3270 2614 
Q 3400 2280 3400 1791 
L 3400 1564 
L 866 1564 
Q 884 1005 1183 707 
Q 1482 409 1955 409 
Q 2271 409 2498 545 
Q 2725 682 2827 955 
L 3346 809 
Q 3223 414 2854 170 
Q 2486 -73 1955 -73 
z
M 866 2027 
L 2855 2027 
Q 2855 2470 2595 2762 
Q 2336 3055 1900 3055 
Q 1593 3055 1368 2911 
Q 1143 2768 1013 2533 
Q 884 2298 866 2027 
z
" id="Inter-Regular-65" transform="scale(0.015625)"/>
        <path d="M 491 -1309 
L 491 3491 
L 1009 3491 
L 1009 2936 
L 1073 2936 
Q 1132 3027 1237 3169 
Q 1343 3311 1542 3423 
Q 1741 3536 2082 3536 
Q 2523 3536 2859 3315 
Q 3196 3095 3384 2690 
Q 3573 2286 3573 1736 
Q 3573 1182 3384 776 
Q 3196 370 2861 148 
Q 2527 -73 2091 -73 
Q 1755 -73 1552 39 
Q 1350 152 1241 296 
Q 1132 441 1073 536 
L 1027 536 
L 1027 -1309 
L 491 -1309 
z
M 1018 1745 
Q 1018 1152 1276 780 
Q 1534 409 2018 409 
Q 2355 409 2581 587 
Q 2807 766 2921 1069 
Q 3036 1373 3036 1745 
Q 3036 2114 2923 2410 
Q 2811 2707 2585 2881 
Q 2359 3055 2018 3055 
Q 1527 3055 1272 2693 
Q 1018 2332 1018 1745 
z
" id="Inter-Regular-70" transform="scale(0.015625)"/>
       </defs>
       <use xlink:href="#Inter-Regular-30"/>
       <use x="62.500015" xlink:href="#Inter-Regular-31"/>
       <use x="106.676163" xlink:href="#Inter-Regular-20"/>
       <use x="134.801163" xlink:href="#Inter-Regular-53"/>
       <use x="198.57959" xlink:href="#Inter-Regular-65"/>
       <use x="256.818237" xlink:href="#Inter-Regular-70"/>
      </g>
     </g>
    </g>
    <g id="xtick_8">
     <g id="line2d_8">
      <g>
       <use style="stroke:#000000;stroke-width:0.8;" x="343.780762" xlink:href="#m98523c9e1f" y="476.745"/>
      </g>
     </g>
    </g>
    <g id="xtick_9">
     <g id="line2d_9">
      <g>
       <use style="stroke:#000000;stroke-width:0.8;" x="383.647017" xlink:href="#m98523c9e1f" y="476.745"/>
      </g>
     </g>
     <g id="text_5">
      <!-- 01 Nov -->
      <g transform="translate(367.375923 491.018437)scale(0.1 -0.1)">
       <defs>
        <path d="M 4255 4655 
L 4255 0 
L 3709 0 
L 1173 3655 
L 1127 3655 
L 1127 0 
L 564 0 
L 564 4655 
L 1109 4655 
L 3655 991 
L 3700 991 
L 3700 4655 
L 4255 4655 
z
" id="Inter-Regular-4e" transform="scale(0.015625)"/>
        <path d="M 1909 -73 
Q 1436 -73 1080 152 
Q 725 377 526 781 
Q 327 1186 327 1727 
Q 327 2273 526 2679 
Q 725 3086 1080 3311 
Q 1436 3536 1909 3536 
Q 2382 3536 2737 3311 
Q 3093 3086 3292 2679 
Q 3491 2273 3491 1727 
Q 3491 1186 3292 781 
Q 3093 377 2737 152 
Q 2382 -73 1909 -73 
z
M 1909 409 
Q 2268 409 2500 593 
Q 2732 777 2843 1077 
Q 2955 1377 2955 1727 
Q 2955 2077 2843 2379 
Q 2732 2682 2500 2868 
Q 2268 3055 1909 3055 
Q 1550 3055 1318 2868 
Q 1086 2682 975 2379 
Q 864 2077 864 1727 
Q 864 1377 975 1077 
Q 1086 777 1318 593 
Q 1550 409 1909 409 
z
" id="Inter-Regular-6f" transform="scale(0.015625)"/>
        <path d="M 3346 3491 
L 2055 0 
L 1509 0 
L 218 3491 
L 800 3491 
L 1764 709 
L 1800 709 
L 2764 3491 
L 3346 3491 
z
" id="Inter-Regular-76" transform="scale(0.015625)"/>
       </defs>
       <use xlink:href="#Inter-Regular-30"/>
       <use x="62.500015" xlink:href="#Inter-Regular-31"/>
       <use x="106.676163" xlink:href="#Inter-Regular-20"/>
       <use x="134.801163" xlink:href="#Inter-Regular-4e"/>
       <use x="210.085266" xlink:href="#Inter-Regular-6f"/>
       <use x="269.74437" xlink:href="#Inter-Regular-76"/>
      </g>
     </g>
    </g>
    <g id="xtick_10">
     <g id="line2d_10">
      <g>
       <use style="stroke:#000000;stroke-width:0.8;" x="422.227264" xlink:href="#m98523c9e1f" y="476.745"/>
      </g>
     </g>
    </g>
    <g id="xtick_11">
     <g id="line2d_11">
      <g>
       <use style="stroke:#000000;stroke-width:0.8;" x="462.093519" xlink:href="#m98523c9e1f" y="476.745"/>
      </g>
     </g>
     <g id="text_6">
      <!-- 01 Jan -->
      <g transform="translate(446.894301 491.018437)scale(0.1 -0.1)">
       <defs>
        <path d="M 1027 2100 
L 1027 0 
L 491 0 
L 491 3491 
L 1009 3491 
L 1009 2945 
L 1055 2945 
Q 1177 3211 1427 3373 
Q 1677 3536 2073 3536 
Q 2602 3536 2928 3211 
Q 3255 2886 3255 2218 
L 3255 0 
L 2718 0 
L 2718 2182 
Q 2718 2593 2504 2824 
Q 2291 3055 1918 3055 
Q 1534 3055 1280 2806 
Q 1027 2557 1027 2100 
z
" id="Inter-Regular-6e" transform="scale(0.015625)"/>
       </defs>
       <use xlink:href="#Inter-Regular-30"/>
       <use x="62.500015" xlink:href="#Inter-Regular-31"/>
       <use x="106.676163" xlink:href="#Inter-Regular-20"/>
       <use x="134.801163" xlink:href="#Inter-Regular-4a"/>
       <use x="189.062531" xlink:href="#Inter-Regular-61"/>
       <use x="245.45459" xlink:href="#Inter-Regular-6e"/>
      </g>
     </g>
    </g>
    <g id="xtick_12">
     <g id="line2d_12">
      <g>
       <use style="stroke:#000000;stroke-width:0.8;" x="501.959775" xlink:href="#m98523c9e1f" y="476.745"/>
      </g>
     </g>
    </g>
    <g id="xtick_13">
     <g id="line2d_13">
      <g>
       <use style="stroke:#000000;stroke-width:0.8;" x="537.968005" xlink:href="#m98523c9e1f" y="476.745"/>
      </g>
     </g>
     <g id="text_7">
      <!-- 01 Mar -->
      <g transform="translate(521.931286 491.018437)scale(0.1 -0.1)">
       <use xlink:href="#Inter-Regular-30"/>
       <use x="62.500015" xlink:href="#Inter-Regular-31"/>
       <use x="106.676163" xlink:href="#Inter-Regular-20"/>
       <use x="134.801163" xlink:href="#Inter-Regular-4d"/>
       <use x="225.99437" xlink:href="#Inter-Regular-61"/>
       <use x="282.386429" xlink:href="#Inter-Regular-72"/>
      </g>
     </g>
    </g>
    <g id="xtick_14">
     <g id="line2d_14">
      <g>
       <use style="stroke:#000000;stroke-width:0.8;" x="577.83426" xlink:href="#m98523c9e1f" y="476.745"/>
      </g>
     </g>
    </g>
    <g id="xtick_15">
     <g id="line2d_15">
      <g>
       <use style="stroke:#000000;stroke-width:0.8;" x="616.414507" xlink:href="#m98523c9e1f" y="476.745"/>
      </g>
     </g>
     <g id="text_8">
      <!-- 01 May -->
      <g transform="translate(599.511382 491.116875)scale(0.1 -0.1)">
       <use xlink:href="#Inter-Regular-30"/>
       <use x="62.500015" xlink:href="#Inter-Regular-31"/>
       <use x="106.676163" xlink:href="#Inter-Regular-20"/>
       <use x="134.801163" xlink:href="#Inter-Regular-4d"/>
       <use x="225.99437" xlink:href="#Inter-Regular-61"/>
       <use x="282.386429" xlink:href="#Inter-Regular-79"/>
      </g>
     </g>
    </g>
    <g id="xtick_16">
     <g id="line2d_16">
      <g>
       <use style="stroke:#000000;stroke-width:0.8;" x="656.280763" xlink:href="#m98523c9e1f" y="476.745"/>
      </g>
     </g>
    </g>
    <g id="xtick_17">
     <g id="line2d_17">
      <g>
       <use style="stroke:#000000;stroke-width:0.8;" x="694.86101" xlink:href="#m98523c9e1f" y="476.745"/>
      </g>
     </g>
     <g id="text_9">
      <!-- 01 Jul -->
      <g transform="translate(681.31726 491.018437)scale(0.1 -0.1)">
       <use xlink:href="#Inter-Regular-30"/>
       <use x="62.500015" xlink:href="#Inter-Regular-31"/>
       <use x="106.676163" xlink:href="#Inter-Regular-20"/>
       <use x="134.801163" xlink:href="#Inter-Regular-4a"/>
       <use x="189.062531" xlink:href="#Inter-Regular-75"/>
       <use x="247.159134" xlink:href="#Inter-Regular-6c"/>
      </g>
     </g>
    </g>
    <g id="xtick_18">
     <g id="line2d_18">
      <g>
       <use style="stroke:#000000;stroke-width:0.8;" x="734.727265" xlink:href="#m98523c9e1f" y="476.745"/>
      </g>
     </g>
    </g>
   </g>
   <g id="matplotlib.axis_2">
    <g id="ytick_1">
     <g id="line2d_19">
      <path clip-path="url(#p0873b493e3)" d="M 68.575 476.745 
L 738.175 476.745 
" style="fill:none;stroke:#e5e5e5;stroke-linecap:square;stroke-width:0.8;"/>
     </g>
     <g id="line2d_20">
      <defs>
       <path d="M 0 0 
L -3.5 0 
" id="m40a30c550e" style="stroke:#000000;stroke-width:0.8;"/>
      </defs>
      <g>
       <use style="stroke:#000000;stroke-width:0.8;" x="68.575" xlink:href="#m40a30c550e" y="476.745"/>
      </g>
     </g>
     <g id="text_10">
      <!-- 0.00% -->
      <g transform="translate(31.94375 480.381719)scale(0.1 -0.1)">
       <defs>
        <path d="M 882 -36 
Q 714 -36 593 84 
Q 473 205 473 373 
Q 473 541 593 661 
Q 714 782 882 782 
Q 1050 782 1170 661 
Q 1291 541 1291 373 
Q 1291 205 1170 84 
Q 1050 -36 882 -36 
z
" id="Inter-Regular-2e" transform="scale(0.015625)"/>
        <path d="M 2855 873 
L 2855 1118 
Q 2855 1373 2960 1585 
Q 3066 1798 3269 1926 
Q 3473 2055 3764 2055 
Q 4059 2055 4259 1926 
Q 4459 1798 4561 1585 
Q 4664 1373 4664 1118 
L 4664 873 
Q 4664 618 4560 405 
Q 4457 193 4256 64 
Q 4055 -64 3764 -64 
Q 3468 -64 3266 64 
Q 3064 193 2959 405 
Q 2855 618 2855 873 
z
M 536 3536 
L 536 3782 
Q 536 4036 642 4248 
Q 748 4461 951 4589 
Q 1155 4718 1446 4718 
Q 1741 4718 1941 4589 
Q 2141 4461 2243 4248 
Q 2346 4036 2346 3782 
L 2346 3536 
Q 2346 3282 2242 3069 
Q 2139 2857 1937 2728 
Q 1736 2600 1446 2600 
Q 1150 2600 948 2728 
Q 746 2857 641 3069 
Q 536 3282 536 3536 
z
M 709 0 
L 3909 4655 
L 4427 4655 
L 1227 0 
L 709 0 
z
M 3318 1118 
L 3318 873 
Q 3318 661 3418 494 
Q 3518 327 3764 327 
Q 4002 327 4101 494 
Q 4200 661 4200 873 
L 4200 1118 
Q 4200 1330 4104 1497 
Q 4009 1664 3764 1664 
Q 3525 1664 3421 1497 
Q 3318 1330 3318 1118 
z
M 1000 3782 
L 1000 3536 
Q 1000 3325 1100 3158 
Q 1200 2991 1446 2991 
Q 1684 2991 1783 3158 
Q 1882 3325 1882 3536 
L 1882 3782 
Q 1882 3993 1786 4160 
Q 1691 4327 1446 4327 
Q 1207 4327 1103 4160 
Q 1000 3993 1000 3782 
z
" id="Inter-Regular-25" transform="scale(0.015625)"/>
       </defs>
       <use xlink:href="#Inter-Regular-30"/>
       <use x="62.500015" xlink:href="#Inter-Regular-2e"/>
       <use x="90.056839" xlink:href="#Inter-Regular-30"/>
       <use x="152.556854" xlink:href="#Inter-Regular-30"/>
       <use x="215.05687" xlink:href="#Inter-Regular-25"/>
      </g>
     </g>
    </g>
    <g id="ytick_2">
     <g id="line2d_21">
      <path clip-path="url(#p0873b493e3)" d="M 68.575 390.80847 
L 738.175 390.80847 
" style="fill:none;stroke:#e5e5e5;stroke-linecap:square;stroke-width:0.8;"/>
     </g>
     <g id="line2d_22">
      <g>
       <use style="stroke:#000000;stroke-width:0.8;" x="68.575" xlink:href="#m40a30c550e" y="390.80847"/>
      </g>
     </g>
     <g id="text_11">
      <!-- 0.02% -->
      <g transform="translate(32.142188 394.445189)scale(0.1 -0.1)">
       <defs>
        <path d="M 482 0 
L 482 409 
L 2018 2091 
Q 2289 2386 2464 2605 
Q 2639 2825 2724 3019 
Q 2809 3214 2809 3427 
Q 2809 3795 2553 4011 
Q 2298 4227 1918 4227 
Q 1514 4227 1275 3985 
Q 1036 3743 1036 3345 
L 500 3345 
Q 500 3755 688 4064 
Q 877 4373 1203 4545 
Q 1530 4718 1936 4718 
Q 2346 4718 2661 4545 
Q 2977 4373 3156 4079 
Q 3336 3786 3336 3427 
Q 3336 3170 3244 2926 
Q 3152 2682 2926 2383 
Q 2700 2084 2300 1655 
L 1255 536 
L 1255 500 
L 3418 500 
L 3418 0 
L 482 0 
z
" id="Inter-Regular-32" transform="scale(0.015625)"/>
       </defs>
       <use xlink:href="#Inter-Regular-30"/>
       <use x="62.500015" xlink:href="#Inter-Regular-2e"/>
       <use x="90.056839" xlink:href="#Inter-Regular-30"/>
       <use x="152.556854" xlink:href="#Inter-Regular-32"/>
       <use x="213.068237" xlink:href="#Inter-Regular-25"/>
      </g>
     </g>
    </g>
    <g id="ytick_3">
     <g id="line2d_23">
      <path clip-path="url(#p0873b493e3)" d="M 68.575 304.871941 
L 738.175 304.871941 
" style="fill:none;stroke:#e5e5e5;stroke-linecap:square;stroke-width:0.8;"/>
     </g>
     <g id="line2d_24">
      <g>
       <use style="stroke:#000000;stroke-width:0.8;" x="68.575" xlink:href="#m40a30c550e" y="304.871941"/>
      </g>
     </g>
     <g id="text_12">
      <!-- 0.04% -->
      <g transform="translate(31.773438 308.50866)scale(0.1 -0.1)">
       <defs>
        <path d="M 373 955 
L 373 1418 
L 2418 4655 
L 3100 4655 
L 3100 1455 
L 3736 1455 
L 3736 955 
L 3100 955 
L 3100 0 
L 2564 0 
L 2564 955 
L 373 955 
z
M 2564 1455 
L 2564 3936 
L 2527 3936 
L 982 1491 
L 982 1455 
L 2564 1455 
z
" id="Inter-Regular-34" transform="scale(0.015625)"/>
       </defs>
       <use xlink:href="#Inter-Regular-30"/>
       <use x="62.500015" xlink:href="#Inter-Regular-2e"/>
       <use x="90.056839" xlink:href="#Inter-Regular-30"/>
       <use x="152.556854" xlink:href="#Inter-Regular-34"/>
       <use x="216.761414" xlink:href="#Inter-Regular-25"/>
      </g>
     </g>
    </g>
    <g id="ytick_4">
     <g id="line2d_25">
      <path clip-path="url(#p0873b493e3)" d="M 68.575 218.935411 
L 738.175 218.935411 
" style="fill:none;stroke:#e5e5e5;stroke-linecap:square;stroke-width:0.8;"/>
     </g>
     <g id="line2d_26">
      <g>
       <use style="stroke:#000000;stroke-width:0.8;" x="68.575" xlink:href="#m40a30c550e" y="218.935411"/>
      </g>
     </g>
     <g id="text_13">
      <!-- 0.06% -->
      <g transform="translate(31.957813 222.57213)scale(0.1 -0.1)">
       <defs>
        <path d="M 2027 -64 
Q 1741 -59 1454 45 
Q 1168 150 932 399 
Q 696 648 552 1074 
Q 409 1500 409 2145 
Q 409 3386 861 4056 
Q 1314 4727 2100 4727 
Q 2686 4727 3073 4384 
Q 3461 4041 3546 3491 
L 2991 3491 
Q 2914 3811 2691 4019 
Q 2468 4227 2100 4227 
Q 1559 4227 1249 3755 
Q 939 3284 936 2427 
L 973 2427 
Q 1164 2716 1461 2880 
Q 1759 3045 2118 3045 
Q 2518 3045 2850 2846 
Q 3182 2648 3382 2299 
Q 3582 1950 3582 1500 
Q 3582 1068 3389 710 
Q 3196 352 2847 142 
Q 2498 -68 2027 -64 
z
M 2027 436 
Q 2314 436 2542 579 
Q 2771 723 2903 964 
Q 3036 1205 3036 1500 
Q 3036 1789 2908 2026 
Q 2780 2264 2556 2404 
Q 2332 2545 2046 2545 
Q 1757 2545 1525 2397 
Q 1293 2250 1157 2010 
Q 1021 1770 1018 1491 
Q 1018 1214 1149 973 
Q 1280 732 1508 584 
Q 1736 436 2027 436 
z
" id="Inter-Regular-36" transform="scale(0.015625)"/>
       </defs>
       <use xlink:href="#Inter-Regular-30"/>
       <use x="62.500015" xlink:href="#Inter-Regular-2e"/>
       <use x="90.056839" xlink:href="#Inter-Regular-30"/>
       <use x="152.556854" xlink:href="#Inter-Regular-36"/>
       <use x="214.914825" xlink:href="#Inter-Regular-25"/>
      </g>
     </g>
    </g>
    <g id="ytick_5">
     <g id="line2d_27">
      <path clip-path="url(#p0873b493e3)" d="M 68.575 132.998882 
L 738.175 132.998882 
" style="fill:none;stroke:#e5e5e5;stroke-linecap:square;stroke-width:0.8;"/>
     </g>
     <g id="line2d_28">
      <g>
       <use style="stroke:#000000;stroke-width:0.8;" x="68.575" xlink:href="#m40a30c550e" y="132.998882"/>
      </g>
     </g>
     <g id="text_14">
      <!-- 0.08% -->
      <g transform="translate(32.028125 136.6356)scale(0.1 -0.1)">
       <defs>
        <path d="M 1973 -64 
Q 1505 -64 1147 103 
Q 789 270 589 564 
Q 389 859 391 1236 
Q 389 1532 507 1783 
Q 625 2034 830 2203 
Q 1036 2373 1291 2418 
L 1291 2445 
Q 957 2532 759 2821 
Q 561 3111 564 3482 
Q 561 3836 743 4115 
Q 925 4395 1244 4556 
Q 1564 4718 1973 4718 
Q 2377 4718 2695 4556 
Q 3014 4395 3197 4115 
Q 3380 3836 3382 3482 
Q 3380 3111 3181 2821 
Q 2982 2532 2655 2445 
L 2655 2418 
Q 2907 2373 3109 2203 
Q 3311 2034 3431 1783 
Q 3552 1532 3555 1236 
Q 3552 859 3351 564 
Q 3150 270 2794 103 
Q 2439 -64 1973 -64 
z
M 1973 436 
Q 2446 436 2722 662 
Q 2998 889 3000 1264 
Q 2998 1527 2864 1729 
Q 2730 1932 2499 2048 
Q 2268 2164 1973 2164 
Q 1675 2164 1442 2048 
Q 1209 1932 1076 1729 
Q 943 1527 946 1264 
Q 943 889 1218 662 
Q 1493 436 1973 436 
z
M 1973 2645 
Q 2348 2645 2591 2864 
Q 2834 3084 2836 3445 
Q 2834 3800 2596 4013 
Q 2359 4227 1973 4227 
Q 1582 4227 1344 4013 
Q 1107 3800 1109 3445 
Q 1107 3084 1349 2864 
Q 1591 2645 1973 2645 
z
" id="Inter-Regular-38" transform="scale(0.015625)"/>
       </defs>
       <use xlink:href="#Inter-Regular-30"/>
       <use x="62.500015" xlink:href="#Inter-Regular-2e"/>
       <use x="90.056839" xlink:href="#Inter-Regular-30"/>
       <use x="152.556854" xlink:href="#Inter-Regular-38"/>
       <use x="214.20459" xlink:href="#Inter-Regular-25"/>
      </g>
     </g>
    </g>
    <g id="ytick_6">
     <g id="line2d_29">
      <path clip-path="url(#p0873b493e3)" d="M 68.575 47.062352 
L 738.175 47.062352 
" style="fill:none;stroke:#e5e5e5;stroke-linecap:square;stroke-width:0.8;"/>
     </g>
     <g id="line2d_30">
      <g>
       <use style="stroke:#000000;stroke-width:0.8;" x="68.575" xlink:href="#m40a30c550e" y="47.062352"/>
      </g>
     </g>
     <g id="text_15">
      <!-- 0.10% -->
      <g transform="translate(33.776563 50.699071)scale(0.1 -0.1)">
       <use xlink:href="#Inter-Regular-30"/>
       <use x="62.500015" xlink:href="#Inter-Regular-2e"/>
       <use x="90.056839" xlink:href="#Inter-Regular-31"/>
       <use x="134.232986" xlink:href="#Inter-Regular-30"/>
       <use x="196.733002" xlink:href="#Inter-Regular-25"/>
      </g>
     </g>
    </g>
    <g id="text_16">
     <!-- Percent of nation tested positive (seven day average) -->
     <g transform="translate(25.614063 382.124062)rotate(-90)scale(0.1 -0.1)">
      <defs>
       <path d="M 564 0 
L 564 4655 
L 2136 4655 
Q 2684 4655 3033 4458 
Q 3382 4261 3550 3927 
Q 3718 3593 3718 3182 
Q 3718 2770 3551 2434 
Q 3384 2098 3036 1899 
Q 2689 1700 2146 1700 
L 1127 1700 
L 1127 0 
L 564 0 
z
M 1127 2200 
L 2127 2200 
Q 2689 2200 2926 2482 
Q 3164 2764 3164 3182 
Q 3164 3602 2925 3878 
Q 2686 4155 2118 4155 
L 1127 4155 
L 1127 2200 
z
" id="Inter-Regular-50" transform="scale(0.015625)"/>
       <path d="M 1909 -73 
Q 1418 -73 1063 159 
Q 709 391 518 798 
Q 327 1205 327 1727 
Q 327 2259 524 2667 
Q 721 3075 1074 3305 
Q 1427 3536 1900 3536 
Q 2268 3536 2563 3400 
Q 2859 3264 3047 3018 
Q 3236 2773 3282 2445 
L 2746 2445 
Q 2684 2684 2474 2869 
Q 2264 3055 1909 3055 
Q 1439 3055 1151 2697 
Q 864 2339 864 1745 
Q 864 1139 1148 774 
Q 1432 409 1909 409 
Q 2223 409 2447 570 
Q 2671 732 2746 1018 
L 3282 1018 
Q 3236 709 3058 462 
Q 2880 216 2588 71 
Q 2296 -73 1909 -73 
z
" id="Inter-Regular-63" transform="scale(0.015625)"/>
       <path d="M 2009 3491 
L 2009 3036 
L 1264 3036 
L 1264 1000 
Q 1264 773 1331 660 
Q 1398 548 1503 510 
Q 1609 473 1727 473 
Q 1816 473 1873 483 
Q 1930 493 1964 500 
L 2073 18 
Q 2018 -2 1920 -23 
Q 1823 -45 1673 -45 
Q 1446 -45 1228 52 
Q 1011 150 869 350 
Q 727 550 727 855 
L 727 3036 
L 200 3036 
L 200 3491 
L 727 3491 
L 727 4327 
L 1264 4327 
L 1264 3491 
L 2009 3491 
z
" id="Inter-Regular-74" transform="scale(0.015625)"/>
       <path d="M 2046 3491 
L 2046 3036 
L 1264 3036 
L 1264 0 
L 727 0 
L 727 3036 
L 164 3036 
L 164 3491 
L 727 3491 
L 727 3973 
Q 727 4273 868 4473 
Q 1009 4673 1234 4773 
Q 1459 4873 1709 4873 
Q 1907 4873 2032 4841 
Q 2157 4809 2218 4782 
L 2064 4318 
Q 2023 4332 1951 4352 
Q 1880 4373 1764 4373 
Q 1498 4373 1381 4239 
Q 1264 4105 1264 3845 
L 1264 3491 
L 2046 3491 
z
" id="Inter-Regular-66" transform="scale(0.015625)"/>
       <path d="M 491 0 
L 491 3491 
L 1027 3491 
L 1027 0 
L 491 0 
z
M 764 4073 
Q 607 4073 494 4179 
Q 382 4286 382 4436 
Q 382 4586 494 4693 
Q 607 4800 764 4800 
Q 921 4800 1033 4693 
Q 1146 4586 1146 4436 
Q 1146 4286 1033 4179 
Q 921 4073 764 4073 
z
" id="Inter-Regular-69" transform="scale(0.015625)"/>
       <path d="M 2964 2709 
L 2482 2573 
Q 2411 2755 2245 2914 
Q 2080 3073 1727 3073 
Q 1407 3073 1194 2926 
Q 982 2780 982 2555 
Q 982 2355 1127 2239 
Q 1273 2123 1582 2045 
L 2100 1918 
Q 3027 1691 3027 973 
Q 3027 673 2855 436 
Q 2684 200 2377 63 
Q 2071 -73 1664 -73 
Q 1130 -73 780 159 
Q 430 391 336 836 
L 846 964 
Q 989 400 1655 400 
Q 2030 400 2251 560 
Q 2473 720 2473 945 
Q 2473 1316 1955 1436 
L 1373 1573 
Q 893 1686 669 1926 
Q 446 2166 446 2527 
Q 446 2823 613 3050 
Q 780 3277 1069 3406 
Q 1359 3536 1727 3536 
Q 2246 3536 2542 3309 
Q 2839 3082 2964 2709 
z
" id="Inter-Regular-73" transform="scale(0.015625)"/>
       <path d="M 1809 -73 
Q 1373 -73 1039 148 
Q 705 370 516 776 
Q 327 1182 327 1736 
Q 327 2286 516 2690 
Q 705 3095 1041 3315 
Q 1377 3536 1818 3536 
Q 2159 3536 2358 3423 
Q 2557 3311 2662 3169 
Q 2768 3027 2827 2936 
L 2873 2936 
L 2873 4655 
L 3409 4655 
L 3409 0 
L 2891 0 
L 2891 536 
L 2827 536 
Q 2768 441 2659 296 
Q 2550 152 2348 39 
Q 2146 -73 1809 -73 
z
M 1882 409 
Q 2366 409 2624 780 
Q 2882 1152 2882 1745 
Q 2882 2332 2627 2693 
Q 2373 3055 1882 3055 
Q 1541 3055 1315 2881 
Q 1089 2707 976 2410 
Q 864 2114 864 1745 
Q 864 1373 978 1069 
Q 1093 766 1319 587 
Q 1546 409 1882 409 
z
" id="Inter-Regular-64" transform="scale(0.015625)"/>
       <path d="M 682 1964 
Q 682 2823 906 3544 
Q 1130 4266 1546 4873 
L 2018 4873 
Q 1800 4573 1623 4095 
Q 1446 3618 1341 3061 
Q 1236 2505 1236 1964 
Q 1236 1423 1341 866 
Q 1446 309 1623 -168 
Q 1800 -645 2018 -945 
L 1546 -945 
Q 1130 -339 906 383 
Q 682 1105 682 1964 
z
" id="Inter-Regular-28" transform="scale(0.015625)"/>
       <path d="M 1900 -1382 
Q 1316 -1382 976 -1169 
Q 636 -957 473 -682 
L 900 -382 
Q 973 -477 1084 -601 
Q 1196 -725 1390 -817 
Q 1584 -909 1900 -909 
Q 2323 -909 2598 -704 
Q 2873 -500 2873 -64 
L 2873 645 
L 2827 645 
Q 2768 550 2660 410 
Q 2552 270 2351 162 
Q 2150 55 1809 55 
Q 1386 55 1051 255 
Q 716 455 521 836 
Q 327 1218 327 1764 
Q 327 2300 516 2699 
Q 705 3098 1041 3317 
Q 1377 3536 1818 3536 
Q 2159 3536 2360 3423 
Q 2561 3311 2669 3169 
Q 2777 3027 2836 2936 
L 2891 2936 
L 2891 3491 
L 3409 3491 
L 3409 -100 
Q 3409 -550 3205 -833 
Q 3002 -1116 2660 -1249 
Q 2318 -1382 1900 -1382 
z
M 1882 536 
Q 2366 536 2624 864 
Q 2882 1193 2882 1773 
Q 2882 2339 2627 2697 
Q 2373 3055 1882 3055 
Q 1541 3055 1315 2882 
Q 1089 2709 976 2418 
Q 864 2127 864 1773 
Q 864 1227 1120 881 
Q 1377 536 1882 536 
z
" id="Inter-Regular-67" transform="scale(0.015625)"/>
       <path d="M 1638 1940 
Q 1638 1081 1414 359 
Q 1191 -362 775 -969 
L 302 -969 
Q 520 -669 697 -191 
Q 875 286 979 842 
Q 1084 1399 1084 1940 
Q 1084 2481 979 3038 
Q 875 3595 697 4072 
Q 520 4549 302 4849 
L 775 4849 
Q 1191 4243 1414 3521 
Q 1638 2799 1638 1940 
z
" id="Inter-Regular-29" transform="scale(0.015625)"/>
      </defs>
      <use xlink:href="#Inter-Regular-50"/>
      <use x="63.494324" xlink:href="#Inter-Regular-65"/>
      <use x="121.732971" xlink:href="#Inter-Regular-72"/>
      <use x="160.085251" xlink:href="#Inter-Regular-63"/>
      <use x="215.909119" xlink:href="#Inter-Regular-65"/>
      <use x="274.147766" xlink:href="#Inter-Regular-6e"/>
      <use x="332.670502" xlink:href="#Inter-Regular-74"/>
      <use x="369.034149" xlink:href="#Inter-Regular-20"/>
      <use x="397.159149" xlink:href="#Inter-Regular-6f"/>
      <use x="456.818253" xlink:href="#Inter-Regular-66"/>
      <use x="492.897797" xlink:href="#Inter-Regular-20"/>
      <use x="521.022797" xlink:href="#Inter-Regular-6e"/>
      <use x="579.545532" xlink:href="#Inter-Regular-61"/>
      <use x="635.937592" xlink:href="#Inter-Regular-74"/>
      <use x="672.301239" xlink:href="#Inter-Regular-69"/>
      <use x="696.022827" xlink:href="#Inter-Regular-6f"/>
      <use x="755.681931" xlink:href="#Inter-Regular-6e"/>
      <use x="814.204666" xlink:href="#Inter-Regular-20"/>
      <use x="842.329666" xlink:href="#Inter-Regular-74"/>
      <use x="878.693314" xlink:href="#Inter-Regular-65"/>
      <use x="936.931961" xlink:href="#Inter-Regular-73"/>
      <use x="989.204697" xlink:href="#Inter-Regular-74"/>
      <use x="1025.568344" xlink:href="#Inter-Regular-65"/>
      <use x="1083.806992" xlink:href="#Inter-Regular-64"/>
      <use x="1145.880875" xlink:href="#Inter-Regular-20"/>
      <use x="1174.005875" xlink:href="#Inter-Regular-70"/>
      <use x="1234.94339" xlink:href="#Inter-Regular-6f"/>
      <use x="1294.602493" xlink:href="#Inter-Regular-73"/>
      <use x="1346.875229" xlink:href="#Inter-Regular-69"/>
      <use x="1370.596817" xlink:href="#Inter-Regular-74"/>
      <use x="1406.960464" xlink:href="#Inter-Regular-69"/>
      <use x="1430.682053" xlink:href="#Inter-Regular-76"/>
      <use x="1486.363876" xlink:href="#Inter-Regular-65"/>
      <use x="1544.602524" xlink:href="#Inter-Regular-20"/>
      <use x="1572.727524" xlink:href="#Inter-Regular-28"/>
      <use x="1608.949112" xlink:href="#Inter-Regular-73"/>
      <use x="1661.221848" xlink:href="#Inter-Regular-65"/>
      <use x="1719.460495" xlink:href="#Inter-Regular-76"/>
      <use x="1775.142319" xlink:href="#Inter-Regular-65"/>
      <use x="1833.380966" xlink:href="#Inter-Regular-6e"/>
      <use x="1891.903702" xlink:href="#Inter-Regular-20"/>
      <use x="1920.028702" xlink:href="#Inter-Regular-64"/>
      <use x="1982.102585" xlink:href="#Inter-Regular-61"/>
      <use x="2038.494644" xlink:href="#Inter-Regular-79"/>
      <use x="2094.176468" xlink:href="#Inter-Regular-20"/>
      <use x="2122.301468" xlink:href="#Inter-Regular-61"/>
      <use x="2178.693527" xlink:href="#Inter-Regular-76"/>
      <use x="2234.375351" xlink:href="#Inter-Regular-65"/>
      <use x="2292.613998" xlink:href="#Inter-Regular-72"/>
      <use x="2330.966278" xlink:href="#Inter-Regular-61"/>
      <use x="2387.358337" xlink:href="#Inter-Regular-67"/>
      <use x="2448.295853" xlink:href="#Inter-Regular-65"/>
      <use x="2506.5345" xlink:href="#Inter-Regular-29"/>
     </g>
    </g>
   </g>
   <g id="line2d_31">
    <path clip-path="url(#p0873b493e3)" d="M 28.708745 476.729732 
L 49.284877 476.742819 
L 68.575 476.686111 
L 77.577058 476.348043 
L 80.149074 476.063412 
L 86.579115 474.321818 
L 89.151132 473.369776 
L 93.009156 471.446062 
L 95.581173 469.782987 
L 98.153189 466.718567 
L 99.439198 465.250698 
L 102.011214 461.710803 
L 105.869239 457.265758 
L 108.441255 453.310366 
L 111.013272 450.168517 
L 112.29928 449.06598 
L 113.585288 448.368034 
L 116.157305 446.594815 
L 117.443313 446.411604 
L 118.729321 446.414875 
L 120.015329 446.962327 
L 121.301338 447.312391 
L 122.587346 447.458523 
L 125.159362 449.588349 
L 126.44537 449.671231 
L 127.731379 449.357155 
L 129.017387 448.82388 
L 130.303395 447.685356 
L 131.589403 447.108459 
L 132.875412 446.843458 
L 134.16142 446.372344 
L 135.447428 445.735468 
L 138.019445 445.198922 
L 139.305453 445.998289 
L 140.591461 446.36362 
L 141.877469 445.97975 
L 143.163478 445.837979 
L 144.449486 445.912136 
L 147.021502 446.475946 
L 148.30751 447.160805 
L 149.593519 447.711529 
L 150.879527 449.002729 
L 152.165535 450.058373 
L 153.451543 451.660377 
L 154.737552 452.862153 
L 156.02356 454.456524 
L 157.309568 455.492538 
L 158.595576 456.178488 
L 159.881585 455.938569 
L 161.167593 456.178488 
L 162.453601 456.589622 
L 163.739609 457.674711 
L 165.025617 458.211257 
L 166.311626 458.240701 
L 167.597634 458.691095 
L 168.883642 459.624598 
L 170.16965 459.99102 
L 171.455659 460.578821 
L 172.741667 460.517751 
L 174.027675 460.886354 
L 176.599692 461.815495 
L 177.8857 462.721734 
L 179.171708 463.959498 
L 181.743725 465.520062 
L 183.029733 465.978089 
L 185.601749 466.545171 
L 188.173766 466.720748 
L 193.317799 468.260591 
L 197.175823 469.283519 
L 201.033848 469.798254 
L 203.605864 469.643397 
L 206.177881 469.766629 
L 207.463889 469.95093 
L 208.749897 469.918214 
L 211.321914 470.230108 
L 222.895988 472.040406 
L 225.468004 472.332671 
L 229.326029 472.650019 
L 230.612037 472.507158 
L 234.470062 472.474442 
L 235.75607 472.343577 
L 238.328087 472.3294 
L 239.614095 472.533331 
L 252.474177 472.100386 
L 260.190227 471.52349 
L 262.762243 471.137438 
L 265.33426 471.236678 
L 266.620268 471.239949 
L 269.192284 470.943322 
L 270.478293 470.976038 
L 271.764301 470.842992 
L 274.336317 470.427496 
L 275.622326 470.380603 
L 276.908334 469.9313 
L 278.194342 469.613953 
L 279.48035 469.4471 
L 280.766358 469.403478 
L 282.052367 469.214815 
L 284.624383 469.235535 
L 287.1964 469.782987 
L 288.482408 469.806979 
L 289.768416 469.589961 
L 291.054424 469.625949 
L 297.484466 469.14393 
L 298.770474 469.028332 
L 301.34249 468.261682 
L 302.628498 467.956331 
L 303.914507 467.818922 
L 305.200515 466.873423 
L 307.772531 463.80137 
L 310.344548 461.232055 
L 311.630556 460.055361 
L 312.916564 457.655081 
L 314.202573 456.486021 
L 315.488581 456.230834 
L 316.774589 455.754268 
L 318.060597 455.466365 
L 319.346605 455.447826 
L 320.632614 455.827334 
L 321.918622 456.44458 
L 323.20463 456.402049 
L 325.776647 454.516504 
L 327.062655 452.969026 
L 328.348663 450.821751 
L 329.634671 447.642824 
L 330.92068 445.67767 
L 334.778704 438.245633 
L 336.064713 436.323009 
L 338.636729 433.188795 
L 339.922737 428.955315 
L 341.208745 425.288916 
L 343.780762 414.769558 
L 345.06677 408.731233 
L 347.638787 400.154129 
L 350.210803 388.128734 
L 351.496811 383.035907 
L 352.78282 378.717365 
L 354.068828 377.152439 
L 355.354836 376.657334 
L 356.640844 376.856902 
L 357.926852 374.502425 
L 360.498869 371.903666 
L 361.784877 371.925476 
L 363.070885 370.246043 
L 365.642902 365.450935 
L 368.214918 352.561831 
L 369.500927 347.053509 
L 370.786935 342.287845 
L 372.072943 338.407701 
L 374.64496 335.702068 
L 375.930968 334.997579 
L 377.216976 335.921267 
L 378.502984 337.295349 
L 379.788992 336.901663 
L 381.075001 335.230955 
L 382.361009 334.330168 
L 383.647017 334.107698 
L 384.933025 328.466329 
L 386.219034 326.478273 
L 387.505042 325.973353 
L 388.79105 324.994047 
L 390.077058 323.700665 
L 391.363067 321.225137 
L 392.649075 316.213011 
L 393.935083 316.027619 
L 395.221091 313.679685 
L 396.507099 309.368776 
L 397.793108 308.189902 
L 399.079116 307.294567 
L 400.365124 307.932534 
L 401.651132 312.025334 
L 404.223149 321.308019 
L 409.367182 348.851811 
L 410.65319 353.403729 
L 411.939198 361.602416 
L 413.225207 368.467371 
L 414.511215 373.14252 
L 415.797223 376.663877 
L 417.083231 379.295352 
L 418.369239 380.831924 
L 420.941256 383.351074 
L 423.513272 384.413261 
L 424.799281 384.137354 
L 426.085289 383.467762 
L 427.371297 382.442653 
L 428.657305 380.301921 
L 429.943314 377.724973 
L 431.229322 374.283226 
L 432.51533 369.924334 
L 433.801338 363.36473 
L 435.087346 355.750573 
L 436.373355 349.330559 
L 437.659363 341.40996 
L 444.089404 275.731041 
L 445.375412 269.511686 
L 446.661421 257.728391 
L 447.947429 243.459753 
L 449.233437 230.596823 
L 450.519445 222.439577 
L 451.805454 223.410158 
L 453.091462 244.302742 
L 454.37747 227.972982 
L 455.663478 213.256132 
L 456.949486 216.042464 
L 458.235495 181.570465 
L 459.521503 154.004861 
L 460.807511 134.388211 
L 462.093519 117.430299 
L 463.379528 98.393816 
L 464.665536 90.673877 
L 465.951544 58.970761 
L 467.237552 74.757432 
L 468.523561 87.380443 
L 469.809569 87.19287 
L 471.095577 71.808609 
L 472.381585 92.225717 
L 474.953602 129.057647 
L 476.23961 143.622911 
L 477.525618 154.704988 
L 478.811626 163.790285 
L 480.097635 169.836244 
L 481.383643 178.333739 
L 482.669651 185.583655 
L 483.955659 197.879504 
L 486.527676 217.625929 
L 489.099692 239.055059 
L 490.385701 247.535105 
L 491.671709 259.261692 
L 492.957717 274.105044 
L 494.243725 286.683344 
L 495.529733 295.972571 
L 498.10175 311.393911 
L 499.387758 316.712479 
L 500.673766 318.617654 
L 503.245783 333.631131 
L 507.103808 352.421152 
L 508.389816 357.233709 
L 509.675824 361.109491 
L 510.961832 367.951545 
L 514.819857 385.296599 
L 516.105865 389.013162 
L 518.677882 394.97515 
L 521.249898 398.027574 
L 522.535906 400.007996 
L 523.821915 401.448601 
L 525.107923 403.279619 
L 527.679939 405.003764 
L 531.537964 413.748812 
L 534.10998 420.850415 
L 536.681997 426.994522 
L 537.968005 431.317427 
L 539.254013 433.994705 
L 540.540022 436.389532 
L 541.82603 438.374317 
L 543.112038 439.58918 
L 548.256071 441.344951 
L 550.828087 441.553244 
L 552.114096 441.48563 
L 553.400104 441.762628 
L 554.686112 441.715734 
L 555.97212 441.856414 
L 557.258129 442.37224 
L 559.830145 442.723394 
L 561.116153 443.241401 
L 562.402162 443.331916 
L 563.68817 442.314441 
L 564.974178 442.632879 
L 566.260186 443.072367 
L 567.546194 442.793189 
L 568.832203 442.87607 
L 571.404219 443.906631 
L 572.690227 444.365749 
L 573.976236 446.486851 
L 575.262244 447.99616 
L 576.548252 450.140163 
L 579.120269 453.497939 
L 580.406277 454.505599 
L 581.692285 456.870982 
L 582.978293 457.971338 
L 584.264302 458.401011 
L 585.55031 459.001899 
L 586.836318 459.421757 
L 588.122326 459.216735 
L 590.694343 459.38686 
L 591.980351 459.338876 
L 597.124384 462.055414 
L 598.410392 462.686837 
L 599.6964 462.43056 
L 600.982409 462.547247 
L 602.268417 462.51126 
L 603.554425 462.304057 
L 604.840433 462.216814 
L 606.126441 462.467638 
L 607.41245 462.579964 
L 608.698458 462.971468 
L 609.984466 463.01618 
L 611.270474 463.285544 
L 616.414507 463.799188 
L 617.700516 464.410982 
L 618.986524 464.839565 
L 620.272532 464.463328 
L 622.844549 464.401167 
L 625.416565 464.159067 
L 626.702573 463.468755 
L 627.988581 462.951838 
L 630.560598 463.567994 
L 633.132614 463.837357 
L 634.418623 463.770834 
L 635.704631 464.12526 
L 636.990639 464.04456 
L 639.562656 463.171037 
L 643.42068 462.218995 
L 645.992697 461.46325 
L 647.278705 460.866724 
L 648.564713 459.889599 
L 651.13673 457.624546 
L 652.422738 456.68559 
L 653.708746 455.928755 
L 654.994754 455.444554 
L 656.280763 453.650614 
L 658.852779 449.435674 
L 660.138787 447.35165 
L 661.424796 445.752917 
L 662.710804 443.488954 
L 663.996812 439.632801 
L 665.28282 437.344846 
L 666.568828 435.39714 
L 670.426853 430.431907 
L 671.712861 429.017476 
L 672.99887 426.739336 
L 675.570886 421.424039 
L 676.856894 418.52211 
L 678.142903 416.154545 
L 679.428911 414.318074 
L 680.714919 412.026848 
L 682.000927 407.976579 
L 683.286935 403.228364 
L 685.858952 391.506139 
L 688.430968 378.167733 
L 689.716977 370.50123 
L 691.002985 359.083266 
L 693.575001 338.947518 
L 694.86101 329.247157 
L 697.433026 313.747298 
L 700.005043 299.690226 
L 701.291051 290.683448 
L 702.577059 279.674437 
L 703.863067 273.513971 
L 705.149075 266.188808 
L 706.435084 261.056722 
L 707.721092 254.959508 
L 709.0071 243.947225 
L 710.293108 231.575038 
L 711.579117 214.436097 
L 712.865125 184.976224 
L 714.151133 161.388914 
L 715.437141 150.827025 
L 716.72315 144.801786 
L 718.009158 141.791893 
L 719.295166 149.657965 
L 720.581174 169.573424 
L 721.867182 201.447754 
L 723.153191 229.951223 
L 724.439199 246.081414 
L 725.725207 260.544168 
L 727.011215 278.620975 
L 728.297224 289.301732 
L 729.583232 294.536329 
L 729.583232 294.536329 
" style="fill:none;stroke:#5694ca;stroke-linecap:square;stroke-width:2;"/>
   </g>
   <g id="line2d_32">
    <path clip-path="url(#p0873b493e3)" d="M 73.719033 476.29119 
L 75.005041 476.29119 
L 76.291049 476.064285 
L 80.149074 475.98865 
L 81.435082 475.740135 
L 82.721091 475.675305 
L 84.007099 475.38357 
L 85.293107 475.221495 
L 86.579115 475.25391 
L 89.151132 474.994589 
L 90.43714 474.929759 
L 91.723148 474.605609 
L 93.009156 474.411119 
L 94.295165 474.086969 
L 95.581173 473.568329 
L 98.153189 471.428938 
L 99.439198 470.035093 
L 100.725206 468.025362 
L 102.011214 466.404612 
L 103.297222 464.589371 
L 105.869239 461.769265 
L 107.155247 459.500214 
L 108.441255 458.041539 
L 109.727263 457.101504 
L 111.013272 455.966978 
L 112.29928 455.642828 
L 113.585288 455.707658 
L 116.157305 454.443473 
L 117.443313 454.411058 
L 120.015329 454.864868 
L 121.301338 455.480753 
L 122.587346 455.059358 
L 123.873354 455.026943 
L 125.159362 456.129053 
L 126.44537 455.124188 
L 127.731379 453.860003 
L 129.017387 451.915102 
L 130.303395 451.331632 
L 131.589403 452.368912 
L 132.875412 452.174422 
L 134.16142 451.007482 
L 135.447428 452.206837 
L 138.019445 456.680109 
L 139.305453 457.749804 
L 140.591461 457.652559 
L 141.877469 458.981574 
L 143.163478 460.82923 
L 144.449486 460.991305 
L 145.735494 459.59746 
L 147.021502 459.111234 
L 148.30751 457.911879 
L 149.593519 457.620144 
L 150.879527 457.522899 
L 152.165535 457.620144 
L 153.451543 457.976709 
L 154.737552 458.560179 
L 156.02356 459.370554 
L 157.309568 460.50508 
L 158.595576 460.24576 
L 159.881585 460.24576 
L 161.167593 459.59746 
L 162.453601 459.79195 
L 163.739609 460.56991 
L 165.025617 460.7644 
L 166.311626 461.250625 
L 167.597634 462.061 
L 168.883642 462.482395 
L 170.16965 463.098281 
L 171.455659 463.098281 
L 172.741667 463.649336 
L 174.027675 464.719031 
L 175.313683 464.265221 
L 176.599692 464.459711 
L 177.8857 465.172841 
L 180.457716 467.960532 
L 181.743725 468.868152 
L 183.029733 469.289548 
L 184.315741 470.618563 
L 185.601749 470.748223 
L 186.887757 471.234448 
L 188.173766 471.461353 
L 189.459774 472.174484 
L 190.745782 472.725539 
L 192.03179 472.628294 
L 193.317799 472.757954 
L 194.603807 473.438669 
L 197.175823 474.054554 
L 198.461832 473.892479 
L 199.74784 473.924894 
L 201.033848 474.346289 
L 203.605864 474.184214 
L 204.891873 474.022139 
L 206.177881 474.022139 
L 207.463889 474.378704 
L 208.749897 474.475949 
L 210.035906 474.411119 
L 212.607922 474.735269 
L 213.89393 475.221495 
L 220.323972 475.740135 
L 222.895988 475.675305 
L 224.181996 475.869795 
L 231.898046 475.83738 
L 235.75607 475.610475 
L 237.042079 475.740135 
L 239.614095 475.51323 
L 240.900103 475.675305 
L 242.186111 475.610475 
L 243.47212 475.31874 
L 244.758128 474.864929 
L 247.330144 474.702854 
L 249.902161 474.735269 
L 251.188169 474.573194 
L 253.760186 475.027004 
L 255.046194 474.832514 
L 257.61821 474.994589 
L 258.904219 474.702854 
L 265.33426 474.475949 
L 267.906276 474.022139 
L 269.192284 473.892479 
L 270.478293 473.309009 
L 271.764301 473.082104 
L 273.050309 472.984859 
L 275.622326 471.915163 
L 276.908334 471.072373 
L 278.194342 470.391658 
L 279.48035 470.067508 
L 280.766358 468.965398 
L 282.052367 467.636382 
L 284.624383 467.960532 
L 287.1964 467.539137 
L 288.482408 467.474307 
L 292.340433 465.432161 
L 293.626441 464.427296 
L 294.912449 464.654201 
L 296.198457 463.941071 
L 297.484466 462.968621 
L 300.056482 462.64447 
L 301.34249 462.64447 
L 302.628498 463.163111 
L 303.914507 462.903791 
L 305.200515 462.936206 
L 306.486523 462.32032 
L 307.772531 461.4127 
L 310.344548 458.430519 
L 311.630556 456.291128 
L 312.916564 455.675243 
L 314.202573 455.934563 
L 315.488581 455.675243 
L 316.774589 456.582864 
L 318.060597 458.365689 
L 319.346605 457.911879 
L 320.632614 458.236029 
L 323.20463 455.059358 
L 324.490638 454.054493 
L 327.062655 448.122546 
L 328.348663 446.307305 
L 329.634671 445.30244 
L 330.92068 444.816215 
L 332.206688 442.774069 
L 333.492696 439.889133 
L 334.778704 436.193822 
L 336.064713 433.697866 
L 337.350721 430.326705 
L 339.922737 420.278052 
L 341.208745 413.308825 
L 342.494754 399.62969 
L 343.780762 393.146688 
L 345.06677 378.495104 
L 347.638787 356.063916 
L 351.496811 316.776924 
L 352.78282 300.731494 
L 354.068828 296.258222 
L 355.354836 290.48835 
L 356.640844 283.357048 
L 357.926852 270.682779 
L 359.212861 261.606576 
L 360.498869 260.439636 
L 363.070885 251.914488 
L 364.356894 250.455813 
L 365.642902 251.752413 
L 366.92891 253.826974 
L 368.214918 254.475274 
L 369.500927 252.886938 
L 370.786935 253.859389 
L 372.072943 256.71191 
L 374.64496 263.778382 
L 375.930968 268.478558 
L 377.216976 276.355406 
L 379.788992 300.310099 
L 381.075001 306.566196 
L 383.647017 320.69914 
L 384.933025 327.052482 
L 387.505042 337.943926 
L 388.79105 342.222707 
L 390.077058 348.673294 
L 391.363067 350.488535 
L 392.649075 351.88238 
L 393.935083 353.503131 
L 395.221091 351.979625 
L 396.507099 351.36374 
L 399.079116 352.1417 
L 400.365124 353.373471 
L 401.651132 354.896976 
L 402.937141 356.971537 
L 404.223149 360.958583 
L 405.509157 366.37189 
L 406.795165 372.854892 
L 408.081174 376.128808 
L 409.367182 380.213099 
L 410.65319 383.422185 
L 411.939198 390.099677 
L 413.225207 397.61996 
L 414.511215 398.46275 
L 415.797223 398.884145 
L 417.083231 400.213161 
L 418.369239 398.59241 
L 419.655248 399.208295 
L 420.941256 394.961929 
L 422.227264 393.049443 
L 423.513272 393.114273 
L 424.799281 387.960287 
L 426.085289 384.686371 
L 427.371297 383.033205 
L 428.657305 379.370309 
L 429.943314 380.537249 
L 431.229322 378.268199 
L 432.51533 376.939183 
L 433.801338 376.744693 
L 435.087346 373.989417 
L 436.373355 375.059113 
L 437.659363 374.054247 
L 438.945371 370.909991 
L 440.231379 368.7706 
L 441.517388 363.551784 
L 442.803396 360.310283 
L 444.089404 359.694398 
L 445.375412 355.739766 
L 446.661421 352.952075 
L 447.947429 347.992579 
L 450.519445 335.869365 
L 451.805454 335.18865 
L 453.091462 341.541992 
L 454.37747 333.956879 
L 455.663478 314.410628 
L 456.949486 292.887061 
L 458.235495 241.63893 
L 459.521503 195.674445 
L 460.807511 160.147594 
L 462.093519 130.844424 
L 463.379528 91.719507 
L 464.665536 74.377476 
L 465.951544 54.345 
L 468.523561 99.272204 
L 469.809569 115.025899 
L 471.095577 115.447295 
L 472.381585 145.431179 
L 474.953602 193.535054 
L 477.525618 224.847954 
L 478.811626 235.285588 
L 480.097635 247.732952 
L 481.383643 257.74919 
L 482.669651 266.468828 
L 483.955659 277.878911 
L 485.241668 286.079909 
L 486.527676 295.156112 
L 487.813684 300.277684 
L 490.385701 315.188588 
L 491.671709 320.50465 
L 492.957717 329.775343 
L 494.243725 337.295625 
L 495.529733 342.579272 
L 496.815742 350.229215 
L 498.10175 352.952075 
L 499.387758 355.285956 
L 500.673766 357.133612 
L 501.959775 360.666848 
L 503.245783 366.598795 
L 504.531791 371.169311 
L 505.817799 375.026697 
L 509.675824 384.36222 
L 510.961832 389.029982 
L 512.24784 392.725293 
L 513.533849 396.874414 
L 514.819857 400.342821 
L 516.105865 405.237487 
L 517.391873 409.062458 
L 518.677882 410.099739 
L 519.96389 409.840419 
L 521.249898 410.423889 
L 523.821915 411.104604 
L 525.107923 410.488719 
L 526.393931 409.159703 
L 527.679939 411.169434 
L 528.965948 414.96199 
L 531.537964 418.560056 
L 532.823972 419.564922 
L 534.10998 423.389893 
L 535.395989 425.821019 
L 537.968005 430.002555 
L 539.254013 431.363985 
L 540.540022 435.091712 
L 541.82603 437.555252 
L 543.112038 438.495288 
L 544.398046 438.884268 
L 546.970063 436.550387 
L 548.256071 437.360762 
L 549.542079 436.226237 
L 550.828087 435.577937 
L 552.114096 434.605487 
L 553.400104 434.897222 
L 555.97212 438.073893 
L 557.258129 438.462873 
L 558.544137 440.407773 
L 559.830145 440.796754 
L 561.116153 442.255429 
L 562.402162 442.741654 
L 564.974178 442.806484 
L 566.260186 443.746519 
L 567.546194 442.838899 
L 571.404219 442.806484 
L 572.690227 443.389954 
L 576.548252 447.377001 
L 577.83426 450.067446 
L 579.120269 451.915102 
L 580.406277 454.086908 
L 581.692285 455.934563 
L 582.978293 458.398104 
L 585.55031 459.402969 
L 586.836318 458.300859 
L 588.122326 456.744939 
L 589.408334 455.480753 
L 591.980351 452.109592 
L 593.266359 451.915102 
L 594.552367 450.002616 
L 595.838376 450.424012 
L 597.124384 451.266802 
L 598.410392 451.396462 
L 599.6964 451.882687 
L 602.268417 450.294352 
L 603.554425 451.979932 
L 604.840433 453.179287 
L 606.126441 454.054493 
L 607.41245 454.508303 
L 608.698458 454.475888 
L 609.984466 455.513168 
L 612.556483 456.518034 
L 615.128499 455.804903 
L 616.414507 455.934563 
L 618.986524 456.809769 
L 620.272532 456.874599 
L 622.844549 457.749804 
L 624.130557 457.911879 
L 626.702573 456.485619 
L 627.988581 455.837318 
L 629.27459 455.869733 
L 630.560598 455.383508 
L 631.846606 455.059358 
L 634.418623 456.744939 
L 635.704631 457.133919 
L 638.276647 457.166334 
L 639.562656 457.458069 
L 640.848664 457.587729 
L 642.134672 456.809769 
L 643.42068 456.777354 
L 644.706688 457.295994 
L 645.992697 458.203614 
L 647.278705 459.629875 
L 648.564713 460.278175 
L 649.850721 460.148515 
L 652.422738 460.50508 
L 653.708746 461.120965 
L 654.994754 461.898925 
L 656.280763 461.639605 
L 657.566771 461.15338 
L 658.852779 461.120965 
L 660.138787 460.95889 
L 661.424796 460.407835 
L 662.710804 459.98644 
L 665.28282 457.976709 
L 666.568828 457.717389 
L 667.854837 456.518034 
L 669.140845 455.545583 
L 670.426853 455.902148 
L 671.712861 454.897283 
L 672.99887 453.535853 
L 675.570886 449.419146 
L 676.856894 447.377001 
L 678.142903 446.27489 
L 680.714919 442.838899 
L 682.000927 440.829169 
L 685.858952 436.712462 
L 688.430968 428.73837 
L 689.716977 426.209999 
L 691.002985 421.996048 
L 694.86101 402.093231 
L 696.147018 397.976525 
L 697.433026 394.637779 
L 700.005043 382.61181 
L 701.291051 378.138538 
L 705.149075 357.619837 
L 706.435084 353.211396 
L 707.721092 349.742989 
L 709.0071 349.678159 
L 710.293108 338.786716 
L 711.579117 322.449551 
L 712.865125 300.374929 
L 714.151133 274.31326 
L 715.437141 251.946903 
L 716.72315 235.253173 
L 718.009158 198.397306 
L 719.295166 176.906154 
L 720.581174 164.491205 
L 721.867182 161.898004 
L 723.153191 164.880185 
L 724.439199 167.051991 
L 725.725207 164.78294 
L 727.011215 173.859143 
L 728.297224 174.637103 
L 729.583232 178.9483 
L 729.583232 178.9483 
" style="fill:none;stroke:#ffdd00;stroke-linecap:square;stroke-width:2;"/>
   </g>
   <g id="line2d_33">
    <path clip-path="url(#p0873b493e3)" d="M 66.002984 476.666351 
L 68.575 476.666351 
L 73.719033 476.576467 
L 78.863066 476.284342 
L 81.435082 475.857391 
L 84.007099 474.981017 
L 86.579115 474.722599 
L 87.865123 474.666421 
L 90.43714 474.250706 
L 91.723148 474.115879 
L 93.009156 473.711399 
L 94.295165 473.172092 
L 95.581173 472.475487 
L 98.153189 469.801424 
L 99.439198 468.138561 
L 103.297222 462.554488 
L 104.583231 461.172514 
L 108.441255 454.970485 
L 109.727263 453.464919 
L 111.013272 452.240243 
L 112.29928 451.622288 
L 113.585288 451.307692 
L 114.871296 450.330198 
L 116.157305 450.217843 
L 118.729321 451.26275 
L 120.015329 451.846999 
L 121.301338 452.723373 
L 122.587346 452.77955 
L 123.873354 453.285151 
L 126.44537 453.476155 
L 127.731379 452.082946 
L 129.017387 451.352634 
L 130.303395 450.431318 
L 131.589403 451.116687 
L 132.875412 451.240279 
L 134.16142 450.633558 
L 135.447428 450.532438 
L 136.733436 451.824528 
L 139.305453 453.712102 
L 140.591461 453.577275 
L 141.877469 452.611017 
L 143.163478 452.802021 
L 144.449486 451.779585 
L 145.735494 451.509932 
L 147.021502 450.734678 
L 148.30751 450.307727 
L 149.593519 450.015603 
L 152.165535 452.217772 
L 153.451543 453.610982 
L 154.737552 454.060404 
L 156.02356 455.3862 
L 158.595576 456.352458 
L 159.881585 457.127712 
L 161.167593 457.768139 
L 162.453601 458.992815 
L 163.739609 459.959073 
L 165.025617 461.150043 
L 166.311626 462.015181 
L 167.597634 462.689314 
L 168.883642 464.071288 
L 170.16965 464.621831 
L 171.455659 465.486969 
L 172.741667 466.610525 
L 175.313683 467.880143 
L 177.8857 468.835166 
L 179.171708 465.50944 
L 183.029733 467.441956 
L 184.315741 467.554312 
L 185.601749 467.891379 
L 186.887757 468.543041 
L 188.173766 473.396803 
L 189.459774 473.756341 
L 190.745782 473.981052 
L 192.03179 474.048466 
L 193.317799 474.250706 
L 194.603807 474.318119 
L 197.175823 474.756306 
L 203.605864 474.94731 
L 204.891873 474.913604 
L 206.177881 475.025959 
L 207.463889 474.981017 
L 215.179939 475.441675 
L 216.465947 475.722564 
L 217.751955 475.666386 
L 219.037963 475.868626 
L 237.042079 476.115809 
L 247.330144 475.756271 
L 248.616153 475.587737 
L 249.902161 475.643915 
L 252.474177 475.542795 
L 255.046194 475.486617 
L 257.61821 475.711328 
L 260.190227 475.677622 
L 262.762243 475.497853 
L 265.33426 475.172022 
L 266.620268 475.037195 
L 267.906276 474.509124 
L 273.050309 473.037265 
L 278.194342 472.857496 
L 280.766358 473.149621 
L 282.052367 473.104679 
L 283.338375 473.183327 
L 284.624383 473.138385 
L 287.1964 472.82379 
L 288.482408 472.34066 
L 289.768416 471.351931 
L 291.054424 470.902509 
L 293.626441 470.205904 
L 296.198457 470.41938 
L 297.484466 470.351966 
L 298.770474 470.812624 
L 300.056482 470.655326 
L 301.34249 470.11602 
L 302.628498 469.700304 
L 303.914507 468.756517 
L 305.200515 467.30713 
L 307.772531 465.116195 
L 309.05854 464.363413 
L 312.916564 463.071323 
L 314.202573 464.161173 
L 315.488581 463.81287 
L 316.774589 463.633101 
L 318.060597 463.194915 
L 319.346605 462.39719 
L 321.918622 462.138772 
L 323.20463 460.734327 
L 327.062655 459.127642 
L 328.348663 458.846753 
L 329.634671 457.172654 
L 333.492696 447.712313 
L 334.778704 442.53272 
L 336.064713 439.072167 
L 337.350721 436.802584 
L 338.636729 436.33069 
L 341.208745 432.555542 
L 342.494754 430.00507 
L 343.780762 429.29723 
L 346.352778 423.668214 
L 347.638787 419.342524 
L 348.924795 414.005632 
L 350.210803 408.050786 
L 351.496811 402.904899 
L 352.78282 398.50056 
L 354.068828 395.377074 
L 355.354836 392.646833 
L 356.640844 390.231187 
L 359.212861 384.793176 
L 360.498869 384.388696 
L 361.784877 383.017958 
L 363.070885 381.276446 
L 364.356894 382.220233 
L 365.642902 383.624678 
L 366.92891 383.602207 
L 369.500927 377.332764 
L 370.786935 375.096888 
L 372.072943 374.759821 
L 374.64496 372.523945 
L 375.930968 372.6363 
L 377.216976 376.984462 
L 378.502984 380.501192 
L 379.788992 384.916767 
L 382.361009 389.38852 
L 383.647017 389.006511 
L 384.933025 387.545888 
L 386.219034 386.568395 
L 387.505042 386.17515 
L 388.79105 383.995451 
L 390.077058 383.523558 
L 391.363067 382.444944 
L 392.649075 383.546029 
L 393.935083 385.557194 
L 395.221091 386.714457 
L 396.507099 387.298706 
L 397.793108 388.399791 
L 399.079116 389.276165 
L 400.365124 388.512147 
L 401.651132 389.197516 
L 402.937141 389.433463 
L 404.223149 390.118832 
L 405.509157 391.658103 
L 408.081174 396.253448 
L 409.367182 397.860133 
L 410.65319 399.051102 
L 411.939198 400.410605 
L 413.225207 403.039726 
L 415.797223 407.106999 
L 417.083231 408.488972 
L 418.369239 410.634964 
L 419.655248 412.331534 
L 420.941256 414.36517 
L 422.227264 415.117953 
L 423.513272 414.915713 
L 424.799281 414.870771 
L 426.085289 415.870735 
L 428.657305 413.85957 
L 429.943314 414.117988 
L 431.229322 412.803428 
L 432.51533 412.264121 
L 433.801338 411.275391 
L 435.087346 408.826039 
L 436.373355 408.657506 
L 437.659363 407.781132 
L 438.945371 406.275567 
L 440.231379 406.354216 
L 441.517388 405.994678 
L 442.803396 405.769967 
L 444.089404 405.140776 
L 445.375412 404.354286 
L 446.661421 403.33185 
L 447.947429 400.837556 
L 450.519445 394.320931 
L 451.805454 393.141197 
L 453.091462 397.680364 
L 454.37747 394.275989 
L 455.663478 384.512287 
L 456.949486 378.905743 
L 458.235495 358.614321 
L 459.521503 340.086883 
L 460.807511 324.828992 
L 462.093519 317.604527 
L 463.379528 304.245446 
L 465.951544 291.717796 
L 467.237552 292.661584 
L 468.523561 297.324341 
L 469.809569 299.313035 
L 471.095577 291.863859 
L 473.667593 309.200328 
L 474.953602 312.447405 
L 476.23961 324.491925 
L 477.525618 333.884853 
L 478.811626 340.379007 
L 480.097635 343.603613 
L 481.383643 347.210228 
L 482.669651 349.738229 
L 483.955659 353.693146 
L 485.241668 358.513201 
L 486.527676 360.108651 
L 487.813684 364.355692 
L 489.099692 367.805009 
L 490.385701 370.501544 
L 491.671709 374.33287 
L 492.957717 379.018098 
L 494.243725 383.175256 
L 495.529733 388.321142 
L 496.815742 389.748058 
L 498.10175 392.747953 
L 499.387758 394.511936 
L 500.673766 395.051243 
L 501.959775 397.556773 
L 503.245783 399.00616 
L 504.531791 401.051032 
L 505.817799 403.466677 
L 507.103808 403.758802 
L 508.389816 404.668882 
L 509.675824 406.410394 
L 510.961832 407.578892 
L 512.24784 410.84844 
L 513.533849 411.803463 
L 514.819857 412.44389 
L 516.105865 412.814663 
L 517.391873 414.56741 
L 518.677882 414.26405 
L 519.96389 414.56741 
L 521.249898 412.837134 
L 522.535906 413.061845 
L 523.821915 412.64613 
L 525.107923 412.780956 
L 526.393931 411.45516 
L 527.679939 412.275356 
L 528.965948 414.26405 
L 530.251956 416.724638 
L 531.537964 418.140319 
L 532.823972 420.960444 
L 534.10998 425.185015 
L 535.395989 427.948963 
L 536.681997 429.993834 
L 537.968005 432.690369 
L 539.254013 434.656592 
L 540.540022 436.948646 
L 541.82603 437.735135 
L 543.112038 438.285678 
L 544.398046 437.544131 
L 545.684055 437.454246 
L 546.970063 436.993588 
L 549.542079 434.049872 
L 550.828087 432.881373 
L 552.114096 431.544342 
L 553.400104 431.724111 
L 554.686112 431.622991 
L 555.97212 430.488199 
L 557.258129 431.398279 
L 558.544137 431.679168 
L 559.830145 432.926316 
L 561.116153 433.398209 
L 562.402162 433.465623 
L 563.68817 433.240911 
L 564.974178 433.330796 
L 566.260186 432.982493 
L 567.546194 433.611685 
L 568.832203 433.364503 
L 571.404219 434.937481 
L 572.690227 436.12845 
L 573.976236 438.004789 
L 575.262244 440.353021 
L 579.120269 445.161841 
L 581.692285 447.510073 
L 582.978293 449.993131 
L 584.264302 450.420083 
L 585.55031 451.678465 
L 586.836318 453.150324 
L 588.122326 454.127818 
L 589.408334 454.723302 
L 591.980351 455.565969 
L 593.266359 456.633347 
L 594.552367 457.419837 
L 595.838376 458.363624 
L 597.124384 457.060299 
L 599.6964 457.723197 
L 600.982409 457.678255 
L 602.268417 457.89173 
L 604.840433 457.240068 
L 606.126441 459.419766 
L 607.41245 460.004015 
L 609.984466 461.554523 
L 613.842491 463.217386 
L 616.414507 463.655572 
L 617.700516 463.520746 
L 618.986524 463.891519 
L 620.272532 463.880284 
L 621.55854 463.554452 
L 622.844549 463.048852 
L 624.130557 462.711785 
L 625.416565 462.048887 
L 626.702573 461.048923 
L 627.988581 459.172584 
L 633.132614 455.296316 
L 634.418623 454.813187 
L 635.704631 454.57724 
L 636.990639 454.217702 
L 638.276647 452.700901 
L 639.562656 451.46499 
L 643.42068 449.229113 
L 644.706688 448.184206 
L 645.992697 446.667406 
L 647.278705 445.712383 
L 648.564713 443.263031 
L 649.850721 441.34175 
L 651.13673 439.218229 
L 652.422738 437.600309 
L 653.708746 435.780148 
L 654.994754 434.600414 
L 656.280763 431.555577 
L 657.566771 427.814136 
L 658.852779 423.364854 
L 660.138787 420.297546 
L 661.424796 418.376265 
L 662.710804 416.219038 
L 663.996812 412.264121 
L 665.28282 409.421524 
L 667.854837 407.298003 
L 669.140845 406.814874 
L 670.426853 405.691318 
L 672.99887 401.747636 
L 674.284878 398.90504 
L 675.570886 396.545572 
L 676.856894 395.152363 
L 678.142903 391.040148 
L 679.428911 387.7706 
L 680.714919 379.984357 
L 683.286935 336.660037 
L 684.572944 318.413487 
L 685.858952 298.380484 
L 688.430968 268.246711 
L 691.002985 247.292392 
L 692.288993 240.213989 
L 693.575001 228.787424 
L 696.147018 218.225998 
L 697.433026 215.787881 
L 698.719034 216.95638 
L 700.005043 223.090995 
L 701.291051 231.877203 
L 702.577059 243.236355 
L 706.435084 266.774853 
L 707.721092 272.673522 
L 709.0071 281.650735 
L 711.579117 296.661443 
L 712.865125 305.256646 
L 714.151133 312.368756 
L 715.437141 316.986571 
L 716.72315 322.559409 
L 718.009158 330.075999 
L 719.295166 339.570047 
L 721.867182 353.266195 
L 724.439199 363.557968 
L 725.725207 368.546556 
L 727.011215 374.580052 
L 728.297224 377.400178 
L 729.583232 380.65849 
L 729.583232 380.65849 
" style="fill:none;stroke:#003078;stroke-linecap:square;stroke-width:2;"/>
   </g>
   <g id="line2d_34">
    <path clip-path="url(#p0873b493e3)" d="M 64.716975 476.608717 
L 68.575 476.710929 
L 77.577058 476.667124 
L 78.863066 476.608717 
L 81.435082 476.102525 
L 86.579115 474.136161 
L 87.865123 473.474217 
L 91.723148 471.897232 
L 93.009156 471.021129 
L 94.295165 469.930868 
L 95.581173 469.074235 
L 98.153189 465.180445 
L 99.439198 462.182227 
L 102.011214 457.568087 
L 104.583231 454.161021 
L 105.869239 450.072542 
L 108.441255 444.757519 
L 109.727263 441.661957 
L 111.013272 438.994711 
L 112.29928 436.755782 
L 113.585288 435.509769 
L 114.871296 434.731012 
L 116.157305 432.608896 
L 118.729321 430.389436 
L 120.015329 430.817753 
L 121.301338 431.499166 
L 122.587346 431.031911 
L 123.873354 433.173496 
L 125.159362 434.516853 
L 127.731379 435.548707 
L 129.017387 435.237204 
L 130.303395 435.237204 
L 131.589403 436.522155 
L 132.875412 436.366403 
L 134.16142 437.495602 
L 135.447428 439.598248 
L 136.733436 442.752218 
L 139.305453 447.074324 
L 140.591461 448.242461 
L 143.163478 452.428285 
L 144.449486 453.927394 
L 145.735494 453.946863 
L 147.021502 454.667214 
L 148.30751 453.830049 
L 149.593519 454.141552 
L 150.879527 454.784027 
L 152.165535 454.35571 
L 153.451543 454.453055 
L 154.737552 454.92031 
L 156.02356 456.107916 
L 157.309568 456.94508 
L 158.595576 456.906143 
L 159.881585 456.146854 
L 161.167593 456.633577 
L 162.453601 456.984018 
L 163.739609 457.840652 
L 165.025617 456.594639 
L 166.311626 456.010571 
L 167.597634 455.796413 
L 168.883642 455.991102 
L 170.16965 454.764558 
L 171.455659 454.511462 
L 172.741667 454.511462 
L 176.599692 456.886674 
L 177.8857 458.113217 
L 179.171708 460.27427 
L 180.457716 461.20878 
L 183.029733 462.396386 
L 184.315741 463.408771 
L 189.459774 466.309644 
L 190.745782 467.12734 
L 192.03179 468.120256 
L 194.603807 468.684856 
L 195.889815 468.490166 
L 198.461832 468.860076 
L 199.74784 468.743263 
L 203.605864 467.633533 
L 204.891873 467.789284 
L 206.177881 467.399905 
L 208.749897 467.536188 
L 210.035906 466.270706 
L 211.321914 466.718492 
L 212.607922 466.290175 
L 213.89393 466.290175 
L 215.179939 465.336197 
L 216.465947 465.861858 
L 217.751955 465.900796 
L 219.037963 468.256539 
L 220.323972 466.445927 
L 221.60998 467.380436 
L 222.895988 467.828222 
L 224.181996 469.697241 
L 225.468004 469.891931 
L 226.754013 470.514937 
L 228.040021 470.514937 
L 229.326029 473.065369 
L 230.612037 473.376872 
L 235.75607 474.019347 
L 237.042079 473.824658 
L 239.614095 473.805189 
L 242.186111 474.136161 
L 244.758128 473.999878 
L 246.044136 474.233506 
L 248.616153 474.252975 
L 249.902161 473.883065 
L 251.188169 473.143245 
L 255.046194 472.637052 
L 256.332202 472.383956 
L 257.61821 471.897232 
L 258.904219 472.286611 
L 260.190227 472.948555 
L 262.762243 472.929086 
L 264.048251 473.201652 
L 265.33426 473.357403 
L 266.620268 473.766251 
L 269.192284 473.844127 
L 274.336317 474.330851 
L 276.908334 474.506071 
L 279.48035 474.408726 
L 280.766358 474.506071 
L 283.338375 474.369788 
L 284.624383 474.175099 
L 285.910391 474.175099 
L 292.340433 473.201652 
L 293.626441 473.337934 
L 296.198457 472.773335 
L 297.484466 472.598114 
L 298.770474 472.228204 
L 302.628498 470.475999 
L 305.200515 470.183965 
L 306.486523 469.191048 
L 307.772531 467.730877 
L 309.05854 465.842389 
L 311.630556 462.552137 
L 312.916564 460.313208 
L 314.202573 458.638879 
L 316.774589 456.224729 
L 318.060597 456.302605 
L 319.346605 456.068978 
L 321.918622 454.803496 
L 323.20463 454.394648 
L 324.490638 453.44067 
L 325.776647 451.980499 
L 327.062655 450.014135 
L 328.348663 447.288483 
L 329.634671 445.575215 
L 330.92068 443.200004 
L 332.206688 439.01418 
L 333.492696 435.68499 
L 334.778704 434.614198 
L 336.064713 431.908014 
L 337.350721 429.513334 
L 338.636729 428.247852 
L 339.922737 426.047861 
L 341.208745 424.354063 
L 342.494754 420.012487 
L 343.780762 413.957645 
L 345.06677 409.752352 
L 346.352778 407.513423 
L 350.210803 390.400218 
L 351.496811 385.532981 
L 352.78282 381.639192 
L 354.068828 378.115312 
L 355.354836 376.148949 
L 356.640844 375.915321 
L 357.926852 374.377275 
L 359.212861 370.853395 
L 360.498869 369.821541 
L 361.784877 370.522423 
L 363.070885 367.212702 
L 365.642902 363.72776 
L 366.92891 357.322477 
L 368.214918 351.773827 
L 369.500927 344.726068 
L 372.072943 334.796904 
L 373.358951 328.625248 
L 374.64496 324.264204 
L 375.930968 315.600522 
L 377.216976 310.908506 
L 378.502984 309.136832 
L 379.788992 298.876697 
L 381.075001 298.020063 
L 382.361009 300.862529 
L 383.647017 300.706778 
L 384.933025 303.549244 
L 387.505042 313.42 
L 388.79105 324.439424 
L 390.077058 331.526121 
L 392.649075 341.766788 
L 393.935083 349.534898 
L 395.221091 354.810982 
L 397.793108 364.233953 
L 399.079116 364.584394 
L 400.365124 364.136608 
L 401.651132 365.460497 
L 402.937141 365.810938 
L 404.223149 364.311829 
L 405.509157 361.741928 
L 406.795165 358.860523 
L 408.081174 357.361415 
L 409.367182 356.349029 
L 410.65319 354.616293 
L 411.939198 353.876473 
L 413.225207 352.844619 
L 414.511215 346.030487 
L 415.797223 341.377409 
L 417.083231 339.449983 
L 418.369239 336.257076 
L 419.655248 331.409308 
L 420.941256 322.181027 
L 422.227264 312.096112 
L 423.513272 306.119145 
L 426.085289 280.614824 
L 428.657305 252.968919 
L 432.51533 193.685974 
L 433.801338 176.981617 
L 435.087346 155.293209 
L 436.373355 140.652561 
L 438.945371 100.468654 
L 440.231379 89.196133 
L 441.517388 80.454576 
L 442.803396 78.274053 
L 444.089404 83.628014 
L 445.375412 85.866943 
L 446.661421 96.08814 
L 447.947429 111.565954 
L 449.233437 120.833173 
L 450.519445 134.422498 
L 451.805454 159.790536 
L 453.091462 196.664723 
L 454.37747 202.057621 
L 455.663478 196.450564 
L 456.949486 204.004516 
L 458.235495 187.300159 
L 459.521503 182.316108 
L 462.093519 160.802922 
L 463.379528 157.025946 
L 464.665536 170.401113 
L 465.951544 164.52149 
L 467.237552 187.494848 
L 468.523561 201.298332 
L 469.809569 208.054057 
L 471.095577 200.558512 
L 472.381585 218.956667 
L 473.667593 231.241573 
L 474.953602 249.211412 
L 476.23961 264.436129 
L 477.525618 274.696264 
L 478.811626 281.549333 
L 480.097635 289.025409 
L 481.383643 291.692655 
L 483.955659 305.145698 
L 486.527676 324.848272 
L 487.813684 332.674789 
L 491.671709 358.626896 
L 492.957717 369.354286 
L 494.243725 376.168418 
L 496.815742 386.253332 
L 498.10175 389.640929 
L 499.387758 390.711721 
L 500.673766 389.465709 
L 501.959775 394.021442 
L 504.531791 398.947086 
L 505.817799 402.003711 
L 507.103808 403.892199 
L 508.389816 406.364755 
L 509.675824 409.79129 
L 510.961832 412.127564 
L 513.533849 417.345241 
L 514.819857 419.759391 
L 516.105865 421.589472 
L 517.391873 423.088581 
L 518.677882 422.991236 
L 519.96389 423.750525 
L 521.249898 424.178842 
L 522.535906 425.677951 
L 523.821915 426.339895 
L 525.107923 428.228383 
L 527.679939 428.83192 
L 528.965948 431.109787 
L 530.251956 434.108005 
L 534.10998 440.630103 
L 535.395989 443.122128 
L 536.681997 444.407078 
L 537.968005 446.198222 
L 540.540022 448.26193 
L 541.82603 448.768123 
L 543.112038 450.150418 
L 544.398046 449.566349 
L 545.684055 450.753955 
L 546.970063 450.48139 
L 548.256071 451.883154 
L 549.542079 452.019437 
L 550.828087 451.454837 
L 552.114096 449.994666 
L 553.400104 449.585818 
L 554.686112 449.352191 
L 555.97212 450.559266 
L 557.258129 450.208825 
L 558.544137 450.578735 
L 559.830145 450.753955 
L 561.116153 451.318555 
L 562.402162 452.058375 
L 563.68817 452.428285 
L 564.974178 452.389347 
L 566.260186 452.778726 
L 567.546194 452.642443 
L 570.118211 453.518546 
L 571.404219 454.784027 
L 572.690227 455.484909 
L 573.976236 456.94508 
L 575.262244 457.451273 
L 576.548252 459.047727 
L 577.83426 461.091966 
L 579.120269 462.824703 
L 581.692285 463.914964 
L 582.978293 464.90788 
L 584.264302 465.530886 
L 586.836318 465.667169 
L 588.122326 465.491948 
L 589.408334 465.628231 
L 590.694343 466.056548 
L 591.980351 465.375135 
L 593.266359 466.173362 
L 594.552367 466.679554 
L 595.838376 467.049464 
L 598.410392 467.536188 
L 599.6964 467.536188 
L 600.982409 468.178663 
L 602.268417 468.314946 
L 606.126441 469.171579 
L 607.41245 469.171579 
L 609.984466 469.950337 
L 611.270474 469.891931 
L 612.556483 470.183965 
L 613.842491 470.183965 
L 615.128499 470.45653 
L 617.700516 470.670688 
L 618.986524 471.235288 
L 621.55854 471.371571 
L 624.130557 471.079536 
L 626.702573 471.040598 
L 627.988581 470.748564 
L 629.27459 470.573344 
L 630.560598 470.261841 
L 631.846606 470.806971 
L 633.132614 470.709626 
L 635.704631 470.768033 
L 636.990639 470.612282 
L 638.276647 471.001661 
L 639.562656 471.507853 
L 643.42068 471.021129 
L 645.992697 471.391039 
L 647.278705 471.293695 
L 648.564713 471.391039 
L 651.13673 471.819356 
L 652.422738 471.702543 
L 654.994754 470.982192 
L 656.280763 470.806971 
L 658.852779 468.821138 
L 660.138787 468.334415 
L 663.996812 466.212299 
L 665.28282 465.102569 
L 667.854837 463.155675 
L 669.140845 461.890193 
L 670.426853 461.695504 
L 671.712861 460.83887 
L 672.99887 459.787547 
L 674.284878 458.268969 
L 675.570886 457.100832 
L 676.856894 455.484909 
L 678.142903 454.628276 
L 679.428911 452.50616 
L 680.714919 451.045989 
L 682.000927 447.483172 
L 683.286935 444.582299 
L 684.572944 440.221255 
L 687.14496 432.569958 
L 688.430968 431.460228 
L 689.716977 428.014225 
L 692.288993 416.722235 
L 693.575001 413.159418 
L 694.86101 408.642622 
L 696.147018 404.729364 
L 697.433026 399.97894 
L 698.719034 396.260371 
L 700.005043 393.359498 
L 701.291051 390.750659 
L 702.577059 387.22678 
L 703.863067 385.902891 
L 705.149075 381.989633 
L 707.721092 375.798508 
L 709.0071 373.111793 
L 710.293108 366.745447 
L 712.865125 350.488876 
L 714.151133 347.062341 
L 715.437141 347.373844 
L 716.72315 349.223395 
L 718.009158 349.320739 
L 719.295166 354.713638 
L 720.581174 362.579092 
L 721.867182 368.36137 
L 723.153191 373.598517 
L 724.439199 374.708247 
L 725.725207 376.460452 
L 727.011215 379.497608 
L 728.297224 380.529462 
L 729.583232 382.78786 
L 729.583232 382.78786 
" style="fill:none;stroke:#d4351c;stroke-linecap:square;stroke-width:2;"/>
   </g>
   <g id="patch_3">
    <path d="M 68.575 476.745 
L 738.175 476.745 
" style="fill:none;stroke:#000000;stroke-linecap:square;stroke-linejoin:miter;stroke-width:0.8;"/>
   </g>
   <g id="text_17">
    <!-- Average COVID-19 cases in UK Nations, per capita -->
    <g transform="translate(255.384062 27.225)scale(0.12 -0.12)">
     <defs>
      <path d="M 1207 0 
L 152 0 
L 1759 4655 
L 3027 4655 
L 4632 0 
L 3577 0 
L 3232 1061 
L 1552 1061 
L 1207 0 
z
M 1802 1830 
L 2984 1830 
L 2411 3591 
L 2375 3591 
L 1802 1830 
z
" id="Inter-Bold-41" transform="scale(0.015625)"/>
      <path d="M 3641 3491 
L 2421 0 
L 1330 0 
L 109 3491 
L 1132 3491 
L 1857 993 
L 1893 993 
L 2616 3491 
L 3641 3491 
z
" id="Inter-Bold-76" transform="scale(0.015625)"/>
      <path d="M 1977 -68 
Q 1441 -68 1052 151 
Q 664 370 455 773 
Q 246 1177 246 1730 
Q 246 2268 455 2675 
Q 664 3082 1044 3309 
Q 1425 3536 1939 3536 
Q 2400 3536 2771 3340 
Q 3143 3145 3361 2751 
Q 3580 2357 3580 1764 
L 3580 1498 
L 1202 1498 
L 1202 1495 
Q 1202 1105 1416 880 
Q 1630 655 1993 655 
Q 2236 655 2413 757 
Q 2591 859 2664 1059 
L 3559 1000 
Q 3457 514 3041 223 
Q 2625 -68 1977 -68 
z
M 1202 2098 
L 2668 2098 
Q 2666 2409 2468 2611 
Q 2271 2814 1955 2814 
Q 1632 2814 1425 2604 
Q 1218 2395 1202 2098 
z
" id="Inter-Bold-65" transform="scale(0.015625)"/>
      <path d="M 386 0 
L 386 3491 
L 1325 3491 
L 1325 2882 
L 1361 2882 
Q 1457 3207 1681 3374 
Q 1905 3541 2200 3541 
Q 2341 3541 2461 3507 
Q 2582 3473 2677 3414 
L 2386 2614 
Q 2318 2648 2237 2671 
Q 2157 2695 2057 2695 
Q 1764 2695 1560 2495 
Q 1357 2295 1355 1975 
L 1355 0 
L 386 0 
z
" id="Inter-Bold-72" transform="scale(0.015625)"/>
      <path d="M 1382 -66 
Q 882 -66 552 195 
Q 223 457 223 975 
Q 223 1366 407 1588 
Q 591 1811 890 1914 
Q 1189 2018 1534 2050 
Q 1989 2095 2184 2145 
Q 2380 2195 2380 2364 
L 2380 2377 
Q 2380 2593 2244 2711 
Q 2109 2830 1861 2830 
Q 1600 2830 1445 2716 
Q 1291 2602 1241 2427 
L 346 2500 
Q 446 2977 842 3256 
Q 1239 3536 1866 3536 
Q 2255 3536 2593 3413 
Q 2932 3291 3140 3030 
Q 3348 2770 3348 2355 
L 3348 0 
L 2430 0 
L 2430 484 
L 2402 484 
Q 2275 241 2021 87 
Q 1768 -66 1382 -66 
z
M 1659 602 
Q 1977 602 2181 787 
Q 2386 973 2386 1248 
L 2386 1618 
Q 2330 1580 2210 1550 
Q 2091 1520 1956 1498 
Q 1821 1477 1714 1461 
Q 1459 1425 1303 1318 
Q 1148 1211 1148 1007 
Q 1148 807 1292 704 
Q 1436 602 1659 602 
z
" id="Inter-Bold-61" transform="scale(0.015625)"/>
      <path d="M 1959 -1359 
Q 1255 -1359 852 -1082 
Q 450 -805 364 -409 
L 1259 -289 
Q 1318 -430 1489 -547 
Q 1661 -664 1982 -664 
Q 2298 -664 2503 -514 
Q 2709 -364 2709 -20 
L 2709 618 
L 2668 618 
Q 2573 402 2332 226 
Q 2091 50 1673 50 
Q 1280 50 958 234 
Q 636 418 446 795 
Q 257 1173 257 1752 
Q 257 2348 451 2743 
Q 646 3139 967 3337 
Q 1289 3536 1671 3536 
Q 1964 3536 2161 3437 
Q 2359 3339 2482 3193 
Q 2605 3048 2668 2905 
L 2705 2905 
L 2705 3491 
L 3666 3491 
L 3666 -34 
Q 3666 -468 3446 -763 
Q 3227 -1059 2843 -1209 
Q 2459 -1359 1959 -1359 
z
M 1980 777 
Q 2330 777 2522 1036 
Q 2714 1295 2714 1757 
Q 2714 2216 2523 2491 
Q 2332 2766 1980 2766 
Q 1621 2766 1433 2484 
Q 1246 2202 1246 1757 
Q 1246 1305 1434 1041 
Q 1623 777 1980 777 
z
" id="Inter-Bold-67" transform="scale(0.015625)"/>
      <path id="Inter-Bold-20" transform="scale(0.015625)"/>
      <path d="M 4511 3025 
L 3516 3025 
Q 3459 3409 3188 3628 
Q 2918 3848 2514 3848 
Q 1973 3848 1647 3451 
Q 1321 3055 1321 2327 
Q 1321 1582 1649 1194 
Q 1977 807 2507 807 
Q 2900 807 3173 1012 
Q 3446 1218 3516 1591 
L 4511 1586 
Q 4459 1159 4207 782 
Q 3955 405 3522 170 
Q 3089 -64 2491 -64 
Q 1868 -64 1378 218 
Q 889 500 606 1034 
Q 323 1568 323 2327 
Q 323 3089 609 3623 
Q 896 4157 1386 4437 
Q 1877 4718 2491 4718 
Q 3030 4718 3463 4519 
Q 3896 4320 4172 3942 
Q 4448 3564 4511 3025 
z
" id="Inter-Bold-43" transform="scale(0.015625)"/>
      <path d="M 4682 2327 
Q 4682 1566 4394 1032 
Q 4107 498 3614 217 
Q 3121 -64 2502 -64 
Q 1882 -64 1389 218 
Q 896 500 609 1035 
Q 323 1570 323 2327 
Q 323 3089 609 3623 
Q 896 4157 1389 4437 
Q 1882 4718 2502 4718 
Q 3121 4718 3614 4437 
Q 4107 4157 4394 3623 
Q 4682 3089 4682 2327 
z
M 3684 2327 
Q 3684 3068 3361 3458 
Q 3039 3848 2502 3848 
Q 1966 3848 1643 3458 
Q 1321 3068 1321 2327 
Q 1321 1589 1643 1198 
Q 1966 807 2502 807 
Q 3039 807 3361 1198 
Q 3684 1589 3684 2327 
z
" id="Inter-Bold-4f" transform="scale(0.015625)"/>
      <path d="M 1246 4655 
L 2371 1118 
L 2414 1118 
L 3541 4655 
L 4632 4655 
L 3027 0 
L 1759 0 
L 152 4655 
L 1246 4655 
z
" id="Inter-Bold-56" transform="scale(0.015625)"/>
      <path d="M 1389 4655 
L 1389 0 
L 405 0 
L 405 4655 
L 1389 4655 
z
" id="Inter-Bold-49" transform="scale(0.015625)"/>
      <path d="M 2055 0 
L 405 0 
L 405 4655 
L 2068 4655 
Q 2771 4655 3278 4376 
Q 3786 4098 4059 3577 
Q 4332 3057 4332 2332 
Q 4332 1605 4058 1082 
Q 3784 559 3274 279 
Q 2764 0 2055 0 
z
M 1389 843 
L 2014 843 
Q 2671 843 3010 1197 
Q 3350 1552 3350 2332 
Q 3350 3107 3010 3459 
Q 2671 3811 2016 3811 
L 1389 3811 
L 1389 843 
z
" id="Inter-Bold-44" transform="scale(0.015625)"/>
      <path d="M 2561 2295 
L 2561 1527 
L 439 1527 
L 439 2295 
L 2561 2295 
z
" id="Inter-Bold-2d" transform="scale(0.015625)"/>
      <path d="M 2305 4655 
L 2305 0 
L 1323 0 
L 1323 3450 
L 1280 3450 
Q 1205 3334 961 3219 
Q 718 3105 332 3105 
L 332 3886 
Q 632 3886 857 4019 
Q 1082 4152 1209 4333 
Q 1336 4514 1341 4655 
L 2305 4655 
z
" id="Inter-Bold-31" transform="scale(0.015625)"/>
      <path d="M 2061 4732 
Q 2421 4732 2753 4612 
Q 3086 4493 3348 4227 
Q 3611 3961 3766 3523 
Q 3921 3086 3921 2448 
Q 3921 1659 3686 1096 
Q 3452 534 3028 235 
Q 2605 -64 2027 -64 
Q 1561 -64 1204 117 
Q 848 298 631 610 
Q 414 923 368 1314 
L 1339 1314 
Q 1396 1059 1577 919 
Q 1759 780 2027 780 
Q 2482 780 2718 1176 
Q 2955 1573 2957 2264 
L 2925 2264 
Q 2771 1957 2453 1782 
Q 2136 1607 1752 1607 
Q 1341 1607 1016 1801 
Q 691 1995 506 2334 
Q 321 2673 323 3109 
Q 321 3582 539 3949 
Q 757 4316 1149 4525 
Q 1541 4734 2061 4732 
z
M 2068 3959 
Q 1725 3959 1500 3722 
Q 1275 3486 1277 3136 
Q 1275 2791 1496 2555 
Q 1718 2320 2059 2320 
Q 2284 2320 2465 2431 
Q 2646 2543 2751 2729 
Q 2857 2916 2859 3141 
Q 2857 3366 2753 3551 
Q 2650 3736 2473 3847 
Q 2296 3959 2068 3959 
z
" id="Inter-Bold-39" transform="scale(0.015625)"/>
      <path d="M 1964 -68 
Q 1427 -68 1042 160 
Q 657 389 451 795 
Q 246 1202 246 1732 
Q 246 2268 453 2674 
Q 661 3080 1045 3308 
Q 1430 3536 1959 3536 
Q 2416 3536 2760 3370 
Q 3105 3205 3303 2905 
Q 3502 2605 3523 2200 
L 2609 2200 
Q 2571 2461 2406 2621 
Q 2241 2782 1975 2782 
Q 1639 2782 1434 2511 
Q 1230 2241 1230 1745 
Q 1230 1245 1433 971 
Q 1636 698 1975 698 
Q 2225 698 2395 849 
Q 2566 1000 2609 1280 
L 3523 1280 
Q 3500 880 3305 575 
Q 3111 270 2770 101 
Q 2430 -68 1964 -68 
z
" id="Inter-Bold-63" transform="scale(0.015625)"/>
      <path d="M 3291 2495 
L 2405 2441 
Q 2368 2609 2220 2729 
Q 2073 2850 1821 2850 
Q 1596 2850 1440 2755 
Q 1284 2661 1286 2505 
Q 1284 2380 1385 2293 
Q 1486 2207 1730 2155 
L 2361 2027 
Q 3368 1820 3371 1082 
Q 3371 739 3169 479 
Q 2968 220 2618 76 
Q 2268 -68 1816 -68 
Q 1123 -68 711 221 
Q 300 511 232 1011 
L 1184 1061 
Q 1230 848 1394 739 
Q 1559 630 1818 630 
Q 2073 630 2228 730 
Q 2384 830 2386 984 
Q 2380 1243 1939 1332 
L 1334 1452 
Q 321 1655 325 2450 
Q 323 2955 728 3245 
Q 1134 3536 1805 3536 
Q 2466 3536 2846 3256 
Q 3227 2977 3291 2495 
z
" id="Inter-Bold-73" transform="scale(0.015625)"/>
      <path d="M 386 0 
L 386 3491 
L 1355 3491 
L 1355 0 
L 386 0 
z
M 876 3941 
Q 662 3941 507 4085 
Q 353 4230 353 4432 
Q 353 4634 507 4777 
Q 662 4920 876 4920 
Q 1092 4920 1246 4777 
Q 1401 4634 1401 4432 
Q 1401 4230 1246 4085 
Q 1092 3941 876 3941 
z
" id="Inter-Bold-69" transform="scale(0.015625)"/>
      <path d="M 1355 2018 
L 1355 0 
L 386 0 
L 386 3491 
L 1309 3491 
L 1309 2875 
L 1350 2875 
Q 1468 3180 1739 3358 
Q 2011 3536 2400 3536 
Q 2946 3536 3275 3185 
Q 3605 2834 3605 2223 
L 3605 0 
L 2636 0 
L 2636 2050 
Q 2639 2370 2473 2551 
Q 2307 2732 2016 2732 
Q 1723 2732 1540 2544 
Q 1357 2357 1355 2018 
z
" id="Inter-Bold-6e" transform="scale(0.015625)"/>
      <path d="M 3286 4655 
L 4264 4655 
L 4264 1577 
Q 4264 1050 4016 683 
Q 3768 316 3333 125 
Q 2898 -66 2334 -66 
Q 1771 -66 1334 125 
Q 898 316 651 683 
Q 405 1050 405 1577 
L 405 4655 
L 1389 4655 
L 1389 1611 
Q 1389 1239 1658 1025 
Q 1927 811 2334 811 
Q 2748 811 3017 1025 
Q 3286 1239 3286 1611 
L 3286 4655 
z
" id="Inter-Bold-55" transform="scale(0.015625)"/>
      <path d="M 405 0 
L 405 4655 
L 1389 4655 
L 1389 2602 
L 1450 2602 
L 3125 4655 
L 4305 4655 
L 2577 2570 
L 4325 0 
L 3148 0 
L 1873 1914 
L 1389 1323 
L 1389 0 
L 405 0 
z
" id="Inter-Bold-4b" transform="scale(0.015625)"/>
      <path d="M 4298 4655 
L 4298 0 
L 3448 0 
L 1423 2930 
L 1389 2930 
L 1389 0 
L 405 0 
L 405 4655 
L 1268 4655 
L 3277 1727 
L 3318 1727 
L 3318 4655 
L 4298 4655 
z
" id="Inter-Bold-4e" transform="scale(0.015625)"/>
      <path d="M 2243 3491 
L 2243 2764 
L 1586 2764 
L 1586 1073 
Q 1586 873 1677 802 
Q 1768 732 1914 732 
Q 1982 732 2050 744 
Q 2118 757 2155 764 
L 2307 43 
Q 2234 20 2102 -10 
Q 1971 -41 1782 -48 
Q 1255 -70 935 181 
Q 616 432 618 945 
L 618 2764 
L 141 2764 
L 141 3491 
L 618 3491 
L 618 4327 
L 1586 4327 
L 1586 3491 
L 2243 3491 
z
" id="Inter-Bold-74" transform="scale(0.015625)"/>
      <path d="M 1964 -68 
Q 1434 -68 1049 158 
Q 664 384 455 789 
Q 246 1195 246 1732 
Q 246 2273 455 2678 
Q 664 3084 1049 3310 
Q 1434 3536 1964 3536 
Q 2493 3536 2878 3310 
Q 3264 3084 3473 2678 
Q 3682 2273 3682 1732 
Q 3682 1195 3473 789 
Q 3264 384 2878 158 
Q 2493 -68 1964 -68 
z
M 1968 682 
Q 2327 682 2512 982 
Q 2698 1282 2698 1739 
Q 2698 2195 2512 2496 
Q 2327 2798 1968 2798 
Q 1602 2798 1416 2496 
Q 1230 2195 1230 1739 
Q 1230 1282 1416 982 
Q 1602 682 1968 682 
z
" id="Inter-Bold-6f" transform="scale(0.015625)"/>
      <path d="M 1439 636 
L 1414 386 
Q 1384 86 1301 -212 
Q 1218 -511 1128 -754 
Q 1039 -998 984 -1136 
L 357 -1136 
Q 391 -1002 450 -763 
Q 509 -525 561 -226 
Q 614 73 627 382 
L 639 636 
L 1439 636 
z
" id="Inter-Bold-2c" transform="scale(0.015625)"/>
      <path d="M 386 -1309 
L 386 3491 
L 1341 3491 
L 1341 2905 
L 1384 2905 
Q 1450 3048 1570 3193 
Q 1691 3339 1888 3437 
Q 2086 3536 2377 3536 
Q 2761 3536 3081 3337 
Q 3402 3139 3596 2740 
Q 3791 2341 3791 1741 
Q 3791 1157 3602 756 
Q 3414 355 3093 149 
Q 2773 -57 2375 -57 
Q 2093 -57 1896 36 
Q 1700 130 1576 272 
Q 1452 414 1384 559 
L 1355 559 
L 1355 -1309 
L 386 -1309 
z
M 1334 1745 
Q 1334 1280 1526 997 
Q 1718 714 2068 714 
Q 2425 714 2613 1001 
Q 2802 1289 2802 1745 
Q 2802 2200 2614 2483 
Q 2427 2766 2068 2766 
Q 1716 2766 1525 2490 
Q 1334 2214 1334 1745 
z
" id="Inter-Bold-70" transform="scale(0.015625)"/>
     </defs>
     <use xlink:href="#Inter-Bold-41"/>
     <use x="74.786942" xlink:href="#Inter-Bold-76"/>
     <use x="133.380707" xlink:href="#Inter-Bold-65"/>
     <use x="193.146347" xlink:href="#Inter-Bold-72"/>
     <use x="236.008575" xlink:href="#Inter-Bold-61"/>
     <use x="294.034149" xlink:href="#Inter-Bold-67"/>
     <use x="357.350922" xlink:href="#Inter-Bold-65"/>
     <use x="417.116562" xlink:href="#Inter-Bold-20"/>
     <use x="440.305481" xlink:href="#Inter-Bold-43"/>
     <use x="515.51857" xlink:href="#Inter-Bold-4f"/>
     <use x="593.714615" xlink:href="#Inter-Bold-56"/>
     <use x="668.501556" xlink:href="#Inter-Bold-49"/>
     <use x="696.555542" xlink:href="#Inter-Bold-44"/>
     <use x="769.282837" xlink:href="#Inter-Bold-2d"/>
     <use x="816.157852" xlink:href="#Inter-Bold-31"/>
     <use x="863.565536" xlink:href="#Inter-Bold-39"/>
     <use x="929.581177" xlink:href="#Inter-Bold-20"/>
     <use x="952.770096" xlink:href="#Inter-Bold-63"/>
     <use x="1011.505905" xlink:href="#Inter-Bold-61"/>
     <use x="1069.531479" xlink:href="#Inter-Bold-73"/>
     <use x="1125.710464" xlink:href="#Inter-Bold-65"/>
     <use x="1185.476105" xlink:href="#Inter-Bold-73"/>
     <use x="1241.65509" xlink:href="#Inter-Bold-20"/>
     <use x="1264.844009" xlink:href="#Inter-Bold-69"/>
     <use x="1292.045715" xlink:href="#Inter-Bold-6e"/>
     <use x="1354.22612" xlink:href="#Inter-Bold-20"/>
     <use x="1377.415039" xlink:href="#Inter-Bold-55"/>
     <use x="1450.355392" xlink:href="#Inter-Bold-4b"/>
     <use x="1519.318481" xlink:href="#Inter-Bold-20"/>
     <use x="1542.507401" xlink:href="#Inter-Bold-4e"/>
     <use x="1616.015945" xlink:href="#Inter-Bold-61"/>
     <use x="1674.041519" xlink:href="#Inter-Bold-74"/>
     <use x="1712.890961" xlink:href="#Inter-Bold-69"/>
     <use x="1740.092667" xlink:href="#Inter-Bold-6f"/>
     <use x="1801.456314" xlink:href="#Inter-Bold-6e"/>
     <use x="1863.636719" xlink:href="#Inter-Bold-73"/>
     <use x="1919.815704" xlink:href="#Inter-Bold-2c"/>
     <use x="1950.106903" xlink:href="#Inter-Bold-20"/>
     <use x="1973.295822" xlink:href="#Inter-Bold-70"/>
     <use x="2036.54158" xlink:href="#Inter-Bold-65"/>
     <use x="2096.30722" xlink:href="#Inter-Bold-72"/>
     <use x="2139.169449" xlink:href="#Inter-Bold-20"/>
     <use x="2162.358368" xlink:href="#Inter-Bold-63"/>
     <use x="2221.094177" xlink:href="#Inter-Bold-61"/>
     <use x="2279.119751" xlink:href="#Inter-Bold-70"/>
     <use x="2342.365509" xlink:href="#Inter-Bold-69"/>
     <use x="2369.567215" xlink:href="#Inter-Bold-74"/>
     <use x="2408.416656" xlink:href="#Inter-Bold-61"/>
    </g>
   </g>
   <g id="legend_1">
    <g id="patch_4">
     <path d="M 621.601562 98.614062 
L 731.175 98.614062 
Q 733.175 98.614062 733.175 96.614062 
L 733.175 40.225 
Q 733.175 38.225 731.175 38.225 
L 621.601562 38.225 
Q 619.601562 38.225 619.601562 40.225 
L 619.601562 96.614062 
Q 619.601562 98.614062 621.601562 98.614062 
z
" style="fill:#ffffff;opacity:0.8;stroke:#cccccc;stroke-linejoin:miter;"/>
    </g>
    <g id="line2d_35">
     <path d="M 623.601562 45.998437 
L 643.601562 45.998437 
" style="fill:none;stroke:#d4351c;stroke-linecap:square;stroke-width:2;"/>
    </g>
    <g id="line2d_36"/>
    <g id="text_18">
     <!-- Wales -->
     <g transform="translate(651.601562 49.498437)scale(0.1 -0.1)">
      <defs>
       <path d="M 1409 0 
L 136 4655 
L 709 4655 
L 1682 864 
L 1727 864 
L 2718 4655 
L 3355 4655 
L 4346 864 
L 4391 864 
L 5364 4655 
L 5936 4655 
L 4664 0 
L 4082 0 
L 3055 3709 
L 3018 3709 
L 1991 0 
L 1409 0 
z
" id="Inter-Regular-57" transform="scale(0.015625)"/>
      </defs>
      <use xlink:href="#Inter-Regular-57"/>
      <use x="94.886383" xlink:href="#Inter-Regular-61"/>
      <use x="151.278442" xlink:href="#Inter-Regular-6c"/>
      <use x="175.000031" xlink:href="#Inter-Regular-65"/>
      <use x="233.238678" xlink:href="#Inter-Regular-73"/>
     </g>
    </g>
    <g id="line2d_37">
     <path d="M 623.601562 60.317187 
L 643.601562 60.317187 
" style="fill:none;stroke:#003078;stroke-linecap:square;stroke-width:2;"/>
    </g>
    <g id="line2d_38"/>
    <g id="text_19">
     <!-- Scotland -->
     <g transform="translate(651.601562 63.817187)scale(0.1 -0.1)">
      <use xlink:href="#Inter-Regular-53"/>
      <use x="63.778427" xlink:href="#Inter-Regular-63"/>
      <use x="119.602295" xlink:href="#Inter-Regular-6f"/>
      <use x="179.261398" xlink:href="#Inter-Regular-74"/>
      <use x="215.625046" xlink:href="#Inter-Regular-6c"/>
      <use x="239.346634" xlink:href="#Inter-Regular-61"/>
      <use x="295.738693" xlink:href="#Inter-Regular-6e"/>
      <use x="354.261429" xlink:href="#Inter-Regular-64"/>
     </g>
    </g>
    <g id="line2d_39">
     <path d="M 623.601562 74.635937 
L 643.601562 74.635937 
" style="fill:none;stroke:#ffdd00;stroke-linecap:square;stroke-width:2;"/>
    </g>
    <g id="line2d_40"/>
    <g id="text_20">
     <!-- Northern Ireland -->
     <g transform="translate(651.601562 78.135937)scale(0.1 -0.1)">
      <defs>
       <path d="M 1027 2100 
L 1027 0 
L 491 0 
L 491 4655 
L 1027 4655 
L 1027 2945 
L 1073 2945 
Q 1196 3216 1442 3376 
Q 1689 3536 2100 3536 
Q 2636 3536 2963 3213 
Q 3291 2891 3291 2218 
L 3291 0 
L 2755 0 
L 2755 2182 
Q 2755 2598 2540 2826 
Q 2325 3055 1946 3055 
Q 1548 3055 1287 2806 
Q 1027 2557 1027 2100 
z
" id="Inter-Regular-68" transform="scale(0.015625)"/>
       <path d="M 1127 4655 
L 1127 0 
L 564 0 
L 564 4655 
L 1127 4655 
z
" id="Inter-Regular-49" transform="scale(0.015625)"/>
      </defs>
      <use xlink:href="#Inter-Regular-4e"/>
      <use x="75.284103" xlink:href="#Inter-Regular-6f"/>
      <use x="134.943207" xlink:href="#Inter-Regular-72"/>
      <use x="173.295486" xlink:href="#Inter-Regular-74"/>
      <use x="209.659134" xlink:href="#Inter-Regular-68"/>
      <use x="268.750061" xlink:href="#Inter-Regular-65"/>
      <use x="326.988708" xlink:href="#Inter-Regular-72"/>
      <use x="365.340988" xlink:href="#Inter-Regular-6e"/>
      <use x="423.863724" xlink:href="#Inter-Regular-20"/>
      <use x="451.988724" xlink:href="#Inter-Regular-49"/>
      <use x="478.40918" xlink:href="#Inter-Regular-72"/>
      <use x="516.761459" xlink:href="#Inter-Regular-65"/>
      <use x="575.000107" xlink:href="#Inter-Regular-6c"/>
      <use x="598.721695" xlink:href="#Inter-Regular-61"/>
      <use x="655.113754" xlink:href="#Inter-Regular-6e"/>
      <use x="713.63649" xlink:href="#Inter-Regular-64"/>
     </g>
    </g>
    <g id="line2d_41">
     <path d="M 623.601562 88.954687 
L 643.601562 88.954687 
" style="fill:none;stroke:#5694ca;stroke-linecap:square;stroke-width:2;"/>
    </g>
    <g id="line2d_42"/>
    <g id="text_21">
     <!-- England -->
     <g transform="translate(651.601562 92.454687)scale(0.1 -0.1)">
      <defs>
       <path d="M 564 0 
L 564 4655 
L 3373 4655 
L 3373 4155 
L 1127 4155 
L 1127 2582 
L 3227 2582 
L 3227 2082 
L 1127 2082 
L 1127 500 
L 3409 500 
L 3409 0 
L 564 0 
z
" id="Inter-Regular-45" transform="scale(0.015625)"/>
      </defs>
      <use xlink:href="#Inter-Regular-45"/>
      <use x="59.801147" xlink:href="#Inter-Regular-6e"/>
      <use x="118.323883" xlink:href="#Inter-Regular-67"/>
      <use x="179.261398" xlink:href="#Inter-Regular-6c"/>
      <use x="202.982986" xlink:href="#Inter-Regular-61"/>
      <use x="259.375046" xlink:href="#Inter-Regular-6e"/>
      <use x="317.897781" xlink:href="#Inter-Regular-64"/>
     </g>
    </g>
   </g>
  </g>
 </g>
 <defs>
  <clipPath id="p0873b493e3">
   <rect height="443.52" width="669.6" x="68.575" y="33.225"/>
  </clipPath>
 </defs>
</svg>
