<?xml version="1.0" encoding="utf-8" standalone="no"?>
<!DOCTYPE svg PUBLIC "-//W3C//DTD SVG 1.1//EN"
  "http://www.w3.org/Graphics/SVG/1.1/DTD/svg11.dtd">
<svg xmlns:xlink="http://www.w3.org/1999/xlink" viewBox="0 0 769.449984 511.234062" xmlns="http://www.w3.org/2000/svg" version="1.1">
 <metadata>
  <rdf:RDF xmlns:dc="http://purl.org/dc/elements/1.1/" xmlns:cc="http://creativecommons.org/ns#" xmlns:rdf="http://www.w3.org/1999/02/22-rdf-syntax-ns#">
   <cc:Work>
    <dc:type rdf:resource="http://purl.org/dc/dcmitype/StillImage"/>
    <dc:date>2022-01-02T17:17:53.136835</dc:date>
    <dc:format>image/svg+xml</dc:format>
    <dc:creator>
     <cc:Agent>
      <dc:title>Matplotlib v3.5.1, https://matplotlib.org/</dc:title>
     </cc:Agent>
    </dc:creator>
   </cc:Work>
  </rdf:RDF>
 </metadata>
 <defs>
  <style type="text/css">*{stroke-linejoin: round; stroke-linecap: butt}</style>
 </defs>
 <g id="figure_1">
  <g id="patch_1">
   <path d="M 0 511.234062 
L 769.449984 511.234062 
L 769.449984 0 
L 0 0 
z
" style="fill: #ffffff"/>
  </g>
  <g id="axes_1">
   <g id="patch_2">
    <path d="M 68.3625 476.745 
L 737.9625 476.745 
L 737.9625 33.225 
L 68.3625 33.225 
z
" style="fill: #ffffff"/>
   </g>
   <g id="matplotlib.axis_1">
    <g id="xtick_1">
     <g id="line2d_1">
      <defs>
       <path id="m5a51e44bc3" d="M 0 0 
L 0 3.5 
" style="stroke: #000000; stroke-width: 0.8"/>
      </defs>
      <g>
       <use xlink:href="#m5a51e44bc3" x="68.3625" y="476.745" style="stroke: #000000; stroke-width: 0.8"/>
      </g>
     </g>
     <g id="text_1">
      <!-- 01 Mar -->
      <g transform="translate(52.325781 491.018437)scale(0.1 -0.1)">
       <defs>
        <path id="Inter-Regular-30" d="M 2000 -64 
Q 1230 -64 806 561 
Q 382 1186 382 2327 
Q 382 3459 809 4088 
Q 1236 4718 2000 4718 
Q 2764 4718 3191 4088 
Q 3618 3459 3618 2327 
Q 3618 1186 3194 561 
Q 2771 -64 2000 -64 
z
M 2000 436 
Q 2509 436 2791 927 
Q 3073 1418 3073 2327 
Q 3073 3234 2789 3730 
Q 2505 4227 2000 4227 
Q 1496 4227 1211 3730 
Q 927 3234 927 2327 
Q 927 1418 1210 927 
Q 1493 436 2000 436 
z
" transform="scale(0.015625)"/>
        <path id="Inter-Regular-31" d="M 1973 4655 
L 1973 0 
L 1409 0 
L 1409 3836 
L 1373 3836 
Q 1341 3773 1209 3692 
Q 1077 3611 868 3551 
Q 659 3491 391 3491 
L 391 3964 
Q 661 3964 859 4061 
Q 1057 4159 1190 4291 
Q 1323 4423 1392 4529 
Q 1461 4636 1473 4655 
L 1973 4655 
z
" transform="scale(0.015625)"/>
        <path id="Inter-Regular-20" transform="scale(0.015625)"/>
        <path id="Inter-Regular-4d" d="M 564 4655 
L 1236 4655 
L 2818 791 
L 2873 791 
L 4455 4655 
L 5127 4655 
L 5127 0 
L 4600 0 
L 4600 3536 
L 4555 3536 
L 3100 0 
L 2591 0 
L 1136 3536 
L 1091 3536 
L 1091 0 
L 564 0 
L 564 4655 
z
" transform="scale(0.015625)"/>
        <path id="Inter-Regular-61" d="M 1518 -82 
Q 1186 -82 916 44 
Q 646 170 486 410 
Q 327 650 327 991 
Q 327 1291 445 1478 
Q 564 1666 761 1773 
Q 959 1880 1199 1933 
Q 1439 1986 1682 2018 
Q 2000 2059 2199 2080 
Q 2398 2102 2490 2154 
Q 2582 2207 2582 2336 
L 2582 2355 
Q 2582 2691 2399 2877 
Q 2216 3064 1846 3064 
Q 1461 3064 1243 2895 
Q 1025 2727 936 2536 
L 427 2718 
Q 564 3036 792 3214 
Q 1021 3393 1292 3464 
Q 1564 3536 1827 3536 
Q 1996 3536 2215 3496 
Q 2434 3457 2640 3334 
Q 2846 3211 2982 2963 
Q 3118 2716 3118 2300 
L 3118 0 
L 2582 0 
L 2582 473 
L 2555 473 
Q 2500 359 2373 229 
Q 2246 100 2034 9 
Q 1823 -82 1518 -82 
z
M 1600 400 
Q 1918 400 2137 525 
Q 2357 650 2469 847 
Q 2582 1045 2582 1264 
L 2582 1755 
Q 2548 1714 2433 1681 
Q 2318 1648 2169 1624 
Q 2021 1600 1881 1583 
Q 1741 1566 1655 1555 
Q 1446 1527 1265 1467 
Q 1084 1407 974 1287 
Q 864 1168 864 964 
Q 864 684 1072 542 
Q 1280 400 1600 400 
z
" transform="scale(0.015625)"/>
        <path id="Inter-Regular-72" d="M 491 0 
L 491 3491 
L 1009 3491 
L 1009 2964 
L 1046 2964 
Q 1139 3223 1389 3384 
Q 1639 3545 1955 3545 
Q 2100 3545 2209 3511 
Q 2318 3477 2400 3418 
L 2218 2964 
Q 2161 2993 2085 3010 
Q 2009 3027 1909 3027 
Q 1527 3027 1277 2794 
Q 1027 2561 1027 2209 
L 1027 0 
L 491 0 
z
" transform="scale(0.015625)"/>
       </defs>
       <use xlink:href="#Inter-Regular-30"/>
       <use xlink:href="#Inter-Regular-31" x="62.500015"/>
       <use xlink:href="#Inter-Regular-20" x="106.676163"/>
       <use xlink:href="#Inter-Regular-4d" x="134.801163"/>
       <use xlink:href="#Inter-Regular-61" x="225.99437"/>
       <use xlink:href="#Inter-Regular-72" x="282.386429"/>
      </g>
     </g>
    </g>
    <g id="xtick_2">
     <g id="line2d_2">
      <g>
       <use xlink:href="#m5a51e44bc3" x="99.218739" y="476.745" style="stroke: #000000; stroke-width: 0.8"/>
      </g>
     </g>
    </g>
    <g id="xtick_3">
     <g id="line2d_3">
      <g>
       <use xlink:href="#m5a51e44bc3" x="129.079615" y="476.745" style="stroke: #000000; stroke-width: 0.8"/>
      </g>
     </g>
     <g id="text_2">
      <!-- 01 May -->
      <g transform="translate(112.17649 491.116875)scale(0.1 -0.1)">
       <defs>
        <path id="Inter-Regular-79" d="M 818 -1355 
Q 682 -1355 575 -1333 
Q 468 -1311 427 -1291 
L 564 -818 
Q 857 -893 1053 -814 
Q 1250 -736 1391 -345 
L 1509 -18 
L 218 3491 
L 800 3491 
L 1764 709 
L 1800 709 
L 2764 3491 
L 3346 3491 
L 1846 -564 
Q 1550 -1355 818 -1355 
z
" transform="scale(0.015625)"/>
       </defs>
       <use xlink:href="#Inter-Regular-30"/>
       <use xlink:href="#Inter-Regular-31" x="62.500015"/>
       <use xlink:href="#Inter-Regular-20" x="106.676163"/>
       <use xlink:href="#Inter-Regular-4d" x="134.801163"/>
       <use xlink:href="#Inter-Regular-61" x="225.99437"/>
       <use xlink:href="#Inter-Regular-79" x="282.386429"/>
      </g>
     </g>
    </g>
    <g id="xtick_4">
     <g id="line2d_4">
      <g>
       <use xlink:href="#m5a51e44bc3" x="159.935854" y="476.745" style="stroke: #000000; stroke-width: 0.8"/>
      </g>
     </g>
    </g>
    <g id="xtick_5">
     <g id="line2d_5">
      <g>
       <use xlink:href="#m5a51e44bc3" x="189.79673" y="476.745" style="stroke: #000000; stroke-width: 0.8"/>
      </g>
     </g>
     <g id="text_3">
      <!-- 01 Jul -->
      <g transform="translate(176.25298 491.018437)scale(0.1 -0.1)">
       <defs>
        <path id="Inter-Regular-4a" d="M 2346 4655 
L 2909 4655 
L 2909 1327 
Q 2909 657 2549 296 
Q 2189 -64 1582 -64 
Q 1200 -64 902 76 
Q 605 216 434 475 
Q 264 734 264 1091 
L 818 1091 
Q 818 795 1034 615 
Q 1250 436 1582 436 
Q 1948 436 2147 664 
Q 2346 893 2346 1327 
L 2346 4655 
z
" transform="scale(0.015625)"/>
        <path id="Inter-Regular-75" d="M 2691 1427 
L 2691 3491 
L 3227 3491 
L 3227 0 
L 2691 0 
L 2691 591 
L 2655 591 
Q 2532 325 2273 140 
Q 2014 -45 1618 -45 
Q 1127 -45 809 280 
Q 491 605 491 1273 
L 491 3491 
L 1027 3491 
L 1027 1309 
Q 1027 927 1242 700 
Q 1457 473 1791 473 
Q 1991 473 2199 575 
Q 2407 677 2549 888 
Q 2691 1100 2691 1427 
z
" transform="scale(0.015625)"/>
        <path id="Inter-Regular-6c" d="M 1027 4655 
L 1027 0 
L 491 0 
L 491 4655 
L 1027 4655 
z
" transform="scale(0.015625)"/>
       </defs>
       <use xlink:href="#Inter-Regular-30"/>
       <use xlink:href="#Inter-Regular-31" x="62.500015"/>
       <use xlink:href="#Inter-Regular-20" x="106.676163"/>
       <use xlink:href="#Inter-Regular-4a" x="134.801163"/>
       <use xlink:href="#Inter-Regular-75" x="189.062531"/>
       <use xlink:href="#Inter-Regular-6c" x="247.159134"/>
      </g>
     </g>
    </g>
    <g id="xtick_6">
     <g id="line2d_6">
      <g>
       <use xlink:href="#m5a51e44bc3" x="220.652969" y="476.745" style="stroke: #000000; stroke-width: 0.8"/>
      </g>
     </g>
    </g>
    <g id="xtick_7">
     <g id="line2d_7">
      <g>
       <use xlink:href="#m5a51e44bc3" x="251.509207" y="476.745" style="stroke: #000000; stroke-width: 0.8"/>
      </g>
     </g>
     <g id="text_4">
      <!-- 01 Sep -->
      <g transform="translate(235.621707 491.116875)scale(0.1 -0.1)">
       <defs>
        <path id="Inter-Regular-53" d="M 3109 3491 
Q 3068 3836 2777 4027 
Q 2486 4218 2064 4218 
Q 1600 4218 1318 3999 
Q 1036 3780 1036 3445 
Q 1036 3195 1189 3042 
Q 1343 2889 1553 2803 
Q 1764 2718 1936 2673 
L 2409 2545 
Q 2591 2498 2815 2414 
Q 3039 2330 3244 2185 
Q 3450 2041 3584 1816 
Q 3718 1591 3718 1264 
Q 3718 886 3521 581 
Q 3325 277 2949 97 
Q 2573 -82 2036 -82 
Q 1286 -82 845 272 
Q 405 627 364 1200 
L 946 1200 
Q 968 936 1124 764 
Q 1280 593 1519 510 
Q 1759 427 2036 427 
Q 2359 427 2616 533 
Q 2873 639 3023 828 
Q 3173 1018 3173 1273 
Q 3173 1505 3043 1650 
Q 2914 1795 2702 1886 
Q 2491 1977 2246 2045 
L 1673 2209 
Q 1127 2366 809 2657 
Q 491 2948 491 3418 
Q 491 3809 703 4101 
Q 916 4393 1276 4555 
Q 1636 4718 2082 4718 
Q 2532 4718 2882 4558 
Q 3232 4398 3437 4120 
Q 3643 3843 3655 3491 
L 3109 3491 
z
" transform="scale(0.015625)"/>
        <path id="Inter-Regular-65" d="M 1955 -73 
Q 1450 -73 1085 151 
Q 721 375 524 778 
Q 327 1182 327 1718 
Q 327 2255 524 2665 
Q 721 3075 1074 3305 
Q 1427 3536 1900 3536 
Q 2173 3536 2439 3445 
Q 2705 3355 2923 3151 
Q 3141 2948 3270 2614 
Q 3400 2280 3400 1791 
L 3400 1564 
L 866 1564 
Q 884 1005 1183 707 
Q 1482 409 1955 409 
Q 2271 409 2498 545 
Q 2725 682 2827 955 
L 3346 809 
Q 3223 414 2854 170 
Q 2486 -73 1955 -73 
z
M 866 2027 
L 2855 2027 
Q 2855 2470 2595 2762 
Q 2336 3055 1900 3055 
Q 1593 3055 1368 2911 
Q 1143 2768 1013 2533 
Q 884 2298 866 2027 
z
" transform="scale(0.015625)"/>
        <path id="Inter-Regular-70" d="M 491 -1309 
L 491 3491 
L 1009 3491 
L 1009 2936 
L 1073 2936 
Q 1132 3027 1237 3169 
Q 1343 3311 1542 3423 
Q 1741 3536 2082 3536 
Q 2523 3536 2859 3315 
Q 3196 3095 3384 2690 
Q 3573 2286 3573 1736 
Q 3573 1182 3384 776 
Q 3196 370 2861 148 
Q 2527 -73 2091 -73 
Q 1755 -73 1552 39 
Q 1350 152 1241 296 
Q 1132 441 1073 536 
L 1027 536 
L 1027 -1309 
L 491 -1309 
z
M 1018 1745 
Q 1018 1152 1276 780 
Q 1534 409 2018 409 
Q 2355 409 2581 587 
Q 2807 766 2921 1069 
Q 3036 1373 3036 1745 
Q 3036 2114 2923 2410 
Q 2811 2707 2585 2881 
Q 2359 3055 2018 3055 
Q 1527 3055 1272 2693 
Q 1018 2332 1018 1745 
z
" transform="scale(0.015625)"/>
       </defs>
       <use xlink:href="#Inter-Regular-30"/>
       <use xlink:href="#Inter-Regular-31" x="62.500015"/>
       <use xlink:href="#Inter-Regular-20" x="106.676163"/>
       <use xlink:href="#Inter-Regular-53" x="134.801163"/>
       <use xlink:href="#Inter-Regular-65" x="198.57959"/>
       <use xlink:href="#Inter-Regular-70" x="256.818237"/>
      </g>
     </g>
    </g>
    <g id="xtick_8">
     <g id="line2d_8">
      <g>
       <use xlink:href="#m5a51e44bc3" x="281.370084" y="476.745" style="stroke: #000000; stroke-width: 0.8"/>
      </g>
     </g>
    </g>
    <g id="xtick_9">
     <g id="line2d_9">
      <g>
       <use xlink:href="#m5a51e44bc3" x="312.226322" y="476.745" style="stroke: #000000; stroke-width: 0.8"/>
      </g>
     </g>
     <g id="text_5">
      <!-- 01 Nov -->
      <g transform="translate(295.955229 491.018437)scale(0.1 -0.1)">
       <defs>
        <path id="Inter-Regular-4e" d="M 4255 4655 
L 4255 0 
L 3709 0 
L 1173 3655 
L 1127 3655 
L 1127 0 
L 564 0 
L 564 4655 
L 1109 4655 
L 3655 991 
L 3700 991 
L 3700 4655 
L 4255 4655 
z
" transform="scale(0.015625)"/>
        <path id="Inter-Regular-6f" d="M 1909 -73 
Q 1436 -73 1080 152 
Q 725 377 526 781 
Q 327 1186 327 1727 
Q 327 2273 526 2679 
Q 725 3086 1080 3311 
Q 1436 3536 1909 3536 
Q 2382 3536 2737 3311 
Q 3093 3086 3292 2679 
Q 3491 2273 3491 1727 
Q 3491 1186 3292 781 
Q 3093 377 2737 152 
Q 2382 -73 1909 -73 
z
M 1909 409 
Q 2268 409 2500 593 
Q 2732 777 2843 1077 
Q 2955 1377 2955 1727 
Q 2955 2077 2843 2379 
Q 2732 2682 2500 2868 
Q 2268 3055 1909 3055 
Q 1550 3055 1318 2868 
Q 1086 2682 975 2379 
Q 864 2077 864 1727 
Q 864 1377 975 1077 
Q 1086 777 1318 593 
Q 1550 409 1909 409 
z
" transform="scale(0.015625)"/>
        <path id="Inter-Regular-76" d="M 3346 3491 
L 2055 0 
L 1509 0 
L 218 3491 
L 800 3491 
L 1764 709 
L 1800 709 
L 2764 3491 
L 3346 3491 
z
" transform="scale(0.015625)"/>
       </defs>
       <use xlink:href="#Inter-Regular-30"/>
       <use xlink:href="#Inter-Regular-31" x="62.500015"/>
       <use xlink:href="#Inter-Regular-20" x="106.676163"/>
       <use xlink:href="#Inter-Regular-4e" x="134.801163"/>
       <use xlink:href="#Inter-Regular-6f" x="210.085266"/>
       <use xlink:href="#Inter-Regular-76" x="269.74437"/>
      </g>
     </g>
    </g>
    <g id="xtick_10">
     <g id="line2d_10">
      <g>
       <use xlink:href="#m5a51e44bc3" x="342.087199" y="476.745" style="stroke: #000000; stroke-width: 0.8"/>
      </g>
     </g>
    </g>
    <g id="xtick_11">
     <g id="line2d_11">
      <g>
       <use xlink:href="#m5a51e44bc3" x="372.943437" y="476.745" style="stroke: #000000; stroke-width: 0.8"/>
      </g>
     </g>
     <g id="text_6">
      <!-- 01 Jan -->
      <g transform="translate(357.744219 491.018437)scale(0.1 -0.1)">
       <defs>
        <path id="Inter-Regular-6e" d="M 1027 2100 
L 1027 0 
L 491 0 
L 491 3491 
L 1009 3491 
L 1009 2945 
L 1055 2945 
Q 1177 3211 1427 3373 
Q 1677 3536 2073 3536 
Q 2602 3536 2928 3211 
Q 3255 2886 3255 2218 
L 3255 0 
L 2718 0 
L 2718 2182 
Q 2718 2593 2504 2824 
Q 2291 3055 1918 3055 
Q 1534 3055 1280 2806 
Q 1027 2557 1027 2100 
z
" transform="scale(0.015625)"/>
       </defs>
       <use xlink:href="#Inter-Regular-30"/>
       <use xlink:href="#Inter-Regular-31" x="62.500015"/>
       <use xlink:href="#Inter-Regular-20" x="106.676163"/>
       <use xlink:href="#Inter-Regular-4a" x="134.801163"/>
       <use xlink:href="#Inter-Regular-61" x="189.062531"/>
       <use xlink:href="#Inter-Regular-6e" x="245.45459"/>
      </g>
     </g>
    </g>
    <g id="xtick_12">
     <g id="line2d_12">
      <g>
       <use xlink:href="#m5a51e44bc3" x="403.799676" y="476.745" style="stroke: #000000; stroke-width: 0.8"/>
      </g>
     </g>
    </g>
    <g id="xtick_13">
     <g id="line2d_13">
      <g>
       <use xlink:href="#m5a51e44bc3" x="431.669827" y="476.745" style="stroke: #000000; stroke-width: 0.8"/>
      </g>
     </g>
     <g id="text_7">
      <!-- 01 Mar -->
      <g transform="translate(415.633109 491.018437)scale(0.1 -0.1)">
       <use xlink:href="#Inter-Regular-30"/>
       <use xlink:href="#Inter-Regular-31" x="62.500015"/>
       <use xlink:href="#Inter-Regular-20" x="106.676163"/>
       <use xlink:href="#Inter-Regular-4d" x="134.801163"/>
       <use xlink:href="#Inter-Regular-61" x="225.99437"/>
       <use xlink:href="#Inter-Regular-72" x="282.386429"/>
      </g>
     </g>
    </g>
    <g id="xtick_14">
     <g id="line2d_14">
      <g>
       <use xlink:href="#m5a51e44bc3" x="462.526066" y="476.745" style="stroke: #000000; stroke-width: 0.8"/>
      </g>
     </g>
    </g>
    <g id="xtick_15">
     <g id="line2d_15">
      <g>
       <use xlink:href="#m5a51e44bc3" x="492.386942" y="476.745" style="stroke: #000000; stroke-width: 0.8"/>
      </g>
     </g>
     <g id="text_8">
      <!-- 01 May -->
      <g transform="translate(475.483817 491.116875)scale(0.1 -0.1)">
       <use xlink:href="#Inter-Regular-30"/>
       <use xlink:href="#Inter-Regular-31" x="62.500015"/>
       <use xlink:href="#Inter-Regular-20" x="106.676163"/>
       <use xlink:href="#Inter-Regular-4d" x="134.801163"/>
       <use xlink:href="#Inter-Regular-61" x="225.99437"/>
       <use xlink:href="#Inter-Regular-79" x="282.386429"/>
      </g>
     </g>
    </g>
    <g id="xtick_16">
     <g id="line2d_16">
      <g>
       <use xlink:href="#m5a51e44bc3" x="523.243181" y="476.745" style="stroke: #000000; stroke-width: 0.8"/>
      </g>
     </g>
    </g>
    <g id="xtick_17">
     <g id="line2d_17">
      <g>
       <use xlink:href="#m5a51e44bc3" x="553.104057" y="476.745" style="stroke: #000000; stroke-width: 0.8"/>
      </g>
     </g>
     <g id="text_9">
      <!-- 01 Jul -->
      <g transform="translate(539.560307 491.018437)scale(0.1 -0.1)">
       <use xlink:href="#Inter-Regular-30"/>
       <use xlink:href="#Inter-Regular-31" x="62.500015"/>
       <use xlink:href="#Inter-Regular-20" x="106.676163"/>
       <use xlink:href="#Inter-Regular-4a" x="134.801163"/>
       <use xlink:href="#Inter-Regular-75" x="189.062531"/>
       <use xlink:href="#Inter-Regular-6c" x="247.159134"/>
      </g>
     </g>
    </g>
    <g id="xtick_18">
     <g id="line2d_18">
      <g>
       <use xlink:href="#m5a51e44bc3" x="583.960296" y="476.745" style="stroke: #000000; stroke-width: 0.8"/>
      </g>
     </g>
    </g>
    <g id="xtick_19">
     <g id="line2d_19">
      <g>
       <use xlink:href="#m5a51e44bc3" x="614.816535" y="476.745" style="stroke: #000000; stroke-width: 0.8"/>
      </g>
     </g>
     <g id="text_10">
      <!-- 01 Sep -->
      <g transform="translate(598.929035 491.116875)scale(0.1 -0.1)">
       <use xlink:href="#Inter-Regular-30"/>
       <use xlink:href="#Inter-Regular-31" x="62.500015"/>
       <use xlink:href="#Inter-Regular-20" x="106.676163"/>
       <use xlink:href="#Inter-Regular-53" x="134.801163"/>
       <use xlink:href="#Inter-Regular-65" x="198.57959"/>
       <use xlink:href="#Inter-Regular-70" x="256.818237"/>
      </g>
     </g>
    </g>
    <g id="xtick_20">
     <g id="line2d_20">
      <g>
       <use xlink:href="#m5a51e44bc3" x="644.677411" y="476.745" style="stroke: #000000; stroke-width: 0.8"/>
      </g>
     </g>
    </g>
    <g id="xtick_21">
     <g id="line2d_21">
      <g>
       <use xlink:href="#m5a51e44bc3" x="675.53365" y="476.745" style="stroke: #000000; stroke-width: 0.8"/>
      </g>
     </g>
     <g id="text_11">
      <!-- 01 Nov -->
      <g transform="translate(659.262556 491.018437)scale(0.1 -0.1)">
       <use xlink:href="#Inter-Regular-30"/>
       <use xlink:href="#Inter-Regular-31" x="62.500015"/>
       <use xlink:href="#Inter-Regular-20" x="106.676163"/>
       <use xlink:href="#Inter-Regular-4e" x="134.801163"/>
       <use xlink:href="#Inter-Regular-6f" x="210.085266"/>
       <use xlink:href="#Inter-Regular-76" x="269.74437"/>
      </g>
     </g>
    </g>
    <g id="xtick_22">
     <g id="line2d_22">
      <g>
       <use xlink:href="#m5a51e44bc3" x="705.394526" y="476.745" style="stroke: #000000; stroke-width: 0.8"/>
      </g>
     </g>
    </g>
    <g id="xtick_23">
     <g id="line2d_23">
      <g>
       <use xlink:href="#m5a51e44bc3" x="736.250765" y="476.745" style="stroke: #000000; stroke-width: 0.8"/>
      </g>
     </g>
     <g id="text_12">
      <!-- 01 Jan -->
      <g transform="translate(721.051546 491.018437)scale(0.1 -0.1)">
       <use xlink:href="#Inter-Regular-30"/>
       <use xlink:href="#Inter-Regular-31" x="62.500015"/>
       <use xlink:href="#Inter-Regular-20" x="106.676163"/>
       <use xlink:href="#Inter-Regular-4a" x="134.801163"/>
       <use xlink:href="#Inter-Regular-61" x="189.062531"/>
       <use xlink:href="#Inter-Regular-6e" x="245.45459"/>
      </g>
     </g>
    </g>
   </g>
   <g id="matplotlib.axis_2">
    <g id="ytick_1">
     <g id="line2d_24">
      <path d="M 68.3625 476.745 
L 737.9625 476.745 
" clip-path="url(#p9e1d1713b3)" style="fill: none; stroke: #e5e5e5; stroke-width: 0.8; stroke-linecap: square"/>
     </g>
     <g id="line2d_25">
      <defs>
       <path id="m926505f303" d="M 0 0 
L -3.5 0 
" style="stroke: #000000; stroke-width: 0.8"/>
      </defs>
      <g>
       <use xlink:href="#m926505f303" x="68.3625" y="476.745" style="stroke: #000000; stroke-width: 0.8"/>
      </g>
     </g>
     <g id="text_13">
      <!-- 0.00% -->
      <g transform="translate(31.73125 480.381719)scale(0.1 -0.1)">
       <defs>
        <path id="Inter-Regular-2e" d="M 882 -36 
Q 714 -36 593 84 
Q 473 205 473 373 
Q 473 541 593 661 
Q 714 782 882 782 
Q 1050 782 1170 661 
Q 1291 541 1291 373 
Q 1291 205 1170 84 
Q 1050 -36 882 -36 
z
" transform="scale(0.015625)"/>
        <path id="Inter-Regular-25" d="M 2855 873 
L 2855 1118 
Q 2855 1373 2960 1585 
Q 3066 1798 3269 1926 
Q 3473 2055 3764 2055 
Q 4059 2055 4259 1926 
Q 4459 1798 4561 1585 
Q 4664 1373 4664 1118 
L 4664 873 
Q 4664 618 4560 405 
Q 4457 193 4256 64 
Q 4055 -64 3764 -64 
Q 3468 -64 3266 64 
Q 3064 193 2959 405 
Q 2855 618 2855 873 
z
M 536 3536 
L 536 3782 
Q 536 4036 642 4248 
Q 748 4461 951 4589 
Q 1155 4718 1446 4718 
Q 1741 4718 1941 4589 
Q 2141 4461 2243 4248 
Q 2346 4036 2346 3782 
L 2346 3536 
Q 2346 3282 2242 3069 
Q 2139 2857 1937 2728 
Q 1736 2600 1446 2600 
Q 1150 2600 948 2728 
Q 746 2857 641 3069 
Q 536 3282 536 3536 
z
M 709 0 
L 3909 4655 
L 4427 4655 
L 1227 0 
L 709 0 
z
M 3318 1118 
L 3318 873 
Q 3318 661 3418 494 
Q 3518 327 3764 327 
Q 4002 327 4101 494 
Q 4200 661 4200 873 
L 4200 1118 
Q 4200 1330 4104 1497 
Q 4009 1664 3764 1664 
Q 3525 1664 3421 1497 
Q 3318 1330 3318 1118 
z
M 1000 3782 
L 1000 3536 
Q 1000 3325 1100 3158 
Q 1200 2991 1446 2991 
Q 1684 2991 1783 3158 
Q 1882 3325 1882 3536 
L 1882 3782 
Q 1882 3993 1786 4160 
Q 1691 4327 1446 4327 
Q 1207 4327 1103 4160 
Q 1000 3993 1000 3782 
z
" transform="scale(0.015625)"/>
       </defs>
       <use xlink:href="#Inter-Regular-30"/>
       <use xlink:href="#Inter-Regular-2e" x="62.500015"/>
       <use xlink:href="#Inter-Regular-30" x="90.056839"/>
       <use xlink:href="#Inter-Regular-30" x="152.556854"/>
       <use xlink:href="#Inter-Regular-25" x="215.05687"/>
      </g>
     </g>
    </g>
    <g id="ytick_2">
     <g id="line2d_26">
      <path d="M 68.3625 384.469603 
L 737.9625 384.469603 
" clip-path="url(#p9e1d1713b3)" style="fill: none; stroke: #e5e5e5; stroke-width: 0.8; stroke-linecap: square"/>
     </g>
     <g id="line2d_27">
      <g>
       <use xlink:href="#m926505f303" x="68.3625" y="384.469603" style="stroke: #000000; stroke-width: 0.8"/>
      </g>
     </g>
     <g id="text_14">
      <!-- 0.05% -->
      <g transform="translate(31.901563 388.106322)scale(0.1 -0.1)">
       <defs>
        <path id="Inter-Regular-35" d="M 1936 -64 
Q 1536 -64 1216 95 
Q 896 255 702 532 
Q 509 809 491 1164 
L 1036 1164 
Q 1068 848 1324 642 
Q 1580 436 1936 436 
Q 2223 436 2447 570 
Q 2671 705 2799 940 
Q 2927 1175 2927 1473 
Q 2927 1777 2794 2017 
Q 2661 2257 2429 2395 
Q 2198 2534 1900 2536 
Q 1686 2539 1461 2472 
Q 1236 2405 1091 2300 
L 564 2364 
L 846 4655 
L 3264 4655 
L 3264 4155 
L 1318 4155 
L 1155 2782 
L 1182 2782 
Q 1325 2895 1541 2970 
Q 1757 3045 1991 3045 
Q 2418 3045 2753 2842 
Q 3089 2639 3281 2286 
Q 3473 1934 3473 1482 
Q 3473 1036 3274 687 
Q 3075 339 2727 137 
Q 2380 -64 1936 -64 
z
" transform="scale(0.015625)"/>
       </defs>
       <use xlink:href="#Inter-Regular-30"/>
       <use xlink:href="#Inter-Regular-2e" x="62.500015"/>
       <use xlink:href="#Inter-Regular-30" x="90.056839"/>
       <use xlink:href="#Inter-Regular-35" x="152.556854"/>
       <use xlink:href="#Inter-Regular-25" x="213.352325"/>
      </g>
     </g>
    </g>
    <g id="ytick_3">
     <g id="line2d_28">
      <path d="M 68.3625 292.194207 
L 737.9625 292.194207 
" clip-path="url(#p9e1d1713b3)" style="fill: none; stroke: #e5e5e5; stroke-width: 0.8; stroke-linecap: square"/>
     </g>
     <g id="line2d_29">
      <g>
       <use xlink:href="#m926505f303" x="68.3625" y="292.194207" style="stroke: #000000; stroke-width: 0.8"/>
      </g>
     </g>
     <g id="text_15">
      <!-- 0.10% -->
      <g transform="translate(33.564063 295.830925)scale(0.1 -0.1)">
       <use xlink:href="#Inter-Regular-30"/>
       <use xlink:href="#Inter-Regular-2e" x="62.500015"/>
       <use xlink:href="#Inter-Regular-31" x="90.056839"/>
       <use xlink:href="#Inter-Regular-30" x="134.232986"/>
       <use xlink:href="#Inter-Regular-25" x="196.733002"/>
      </g>
     </g>
    </g>
    <g id="ytick_4">
     <g id="line2d_30">
      <path d="M 68.3625 199.91881 
L 737.9625 199.91881 
" clip-path="url(#p9e1d1713b3)" style="fill: none; stroke: #e5e5e5; stroke-width: 0.8; stroke-linecap: square"/>
     </g>
     <g id="line2d_31">
      <g>
       <use xlink:href="#m926505f303" x="68.3625" y="199.91881" style="stroke: #000000; stroke-width: 0.8"/>
      </g>
     </g>
     <g id="text_16">
      <!-- 0.15% -->
      <g transform="translate(33.734375 203.555529)scale(0.1 -0.1)">
       <use xlink:href="#Inter-Regular-30"/>
       <use xlink:href="#Inter-Regular-2e" x="62.500015"/>
       <use xlink:href="#Inter-Regular-31" x="90.056839"/>
       <use xlink:href="#Inter-Regular-35" x="134.232986"/>
       <use xlink:href="#Inter-Regular-25" x="195.028458"/>
      </g>
     </g>
    </g>
    <g id="ytick_5">
     <g id="line2d_32">
      <path d="M 68.3625 107.643413 
L 737.9625 107.643413 
" clip-path="url(#p9e1d1713b3)" style="fill: none; stroke: #e5e5e5; stroke-width: 0.8; stroke-linecap: square"/>
     </g>
     <g id="line2d_33">
      <g>
       <use xlink:href="#m926505f303" x="68.3625" y="107.643413" style="stroke: #000000; stroke-width: 0.8"/>
      </g>
     </g>
     <g id="text_17">
      <!-- 0.20% -->
      <g transform="translate(31.929688 111.280132)scale(0.1 -0.1)">
       <defs>
        <path id="Inter-Regular-32" d="M 482 0 
L 482 409 
L 2018 2091 
Q 2289 2386 2464 2605 
Q 2639 2825 2724 3019 
Q 2809 3214 2809 3427 
Q 2809 3795 2553 4011 
Q 2298 4227 1918 4227 
Q 1514 4227 1275 3985 
Q 1036 3743 1036 3345 
L 500 3345 
Q 500 3755 688 4064 
Q 877 4373 1203 4545 
Q 1530 4718 1936 4718 
Q 2346 4718 2661 4545 
Q 2977 4373 3156 4079 
Q 3336 3786 3336 3427 
Q 3336 3170 3244 2926 
Q 3152 2682 2926 2383 
Q 2700 2084 2300 1655 
L 1255 536 
L 1255 500 
L 3418 500 
L 3418 0 
L 482 0 
z
" transform="scale(0.015625)"/>
       </defs>
       <use xlink:href="#Inter-Regular-30"/>
       <use xlink:href="#Inter-Regular-2e" x="62.500015"/>
       <use xlink:href="#Inter-Regular-32" x="90.056839"/>
       <use xlink:href="#Inter-Regular-30" x="150.568222"/>
       <use xlink:href="#Inter-Regular-25" x="213.068237"/>
      </g>
     </g>
    </g>
    <g id="text_18">
     <!-- Percent of nation who have died within 28 days of a positive test -->
     <g transform="translate(25.614063 408.395937)rotate(-90)scale(0.1 -0.1)">
      <defs>
       <path id="Inter-Regular-50" d="M 564 0 
L 564 4655 
L 2136 4655 
Q 2684 4655 3033 4458 
Q 3382 4261 3550 3927 
Q 3718 3593 3718 3182 
Q 3718 2770 3551 2434 
Q 3384 2098 3036 1899 
Q 2689 1700 2146 1700 
L 1127 1700 
L 1127 0 
L 564 0 
z
M 1127 2200 
L 2127 2200 
Q 2689 2200 2926 2482 
Q 3164 2764 3164 3182 
Q 3164 3602 2925 3878 
Q 2686 4155 2118 4155 
L 1127 4155 
L 1127 2200 
z
" transform="scale(0.015625)"/>
       <path id="Inter-Regular-63" d="M 1909 -73 
Q 1418 -73 1063 159 
Q 709 391 518 798 
Q 327 1205 327 1727 
Q 327 2259 524 2667 
Q 721 3075 1074 3305 
Q 1427 3536 1900 3536 
Q 2268 3536 2563 3400 
Q 2859 3264 3047 3018 
Q 3236 2773 3282 2445 
L 2746 2445 
Q 2684 2684 2474 2869 
Q 2264 3055 1909 3055 
Q 1439 3055 1151 2697 
Q 864 2339 864 1745 
Q 864 1139 1148 774 
Q 1432 409 1909 409 
Q 2223 409 2447 570 
Q 2671 732 2746 1018 
L 3282 1018 
Q 3236 709 3058 462 
Q 2880 216 2588 71 
Q 2296 -73 1909 -73 
z
" transform="scale(0.015625)"/>
       <path id="Inter-Regular-74" d="M 2009 3491 
L 2009 3036 
L 1264 3036 
L 1264 1000 
Q 1264 773 1331 660 
Q 1398 548 1503 510 
Q 1609 473 1727 473 
Q 1816 473 1873 483 
Q 1930 493 1964 500 
L 2073 18 
Q 2018 -2 1920 -23 
Q 1823 -45 1673 -45 
Q 1446 -45 1228 52 
Q 1011 150 869 350 
Q 727 550 727 855 
L 727 3036 
L 200 3036 
L 200 3491 
L 727 3491 
L 727 4327 
L 1264 4327 
L 1264 3491 
L 2009 3491 
z
" transform="scale(0.015625)"/>
       <path id="Inter-Regular-66" d="M 2046 3491 
L 2046 3036 
L 1264 3036 
L 1264 0 
L 727 0 
L 727 3036 
L 164 3036 
L 164 3491 
L 727 3491 
L 727 3973 
Q 727 4273 868 4473 
Q 1009 4673 1234 4773 
Q 1459 4873 1709 4873 
Q 1907 4873 2032 4841 
Q 2157 4809 2218 4782 
L 2064 4318 
Q 2023 4332 1951 4352 
Q 1880 4373 1764 4373 
Q 1498 4373 1381 4239 
Q 1264 4105 1264 3845 
L 1264 3491 
L 2046 3491 
z
" transform="scale(0.015625)"/>
       <path id="Inter-Regular-69" d="M 491 0 
L 491 3491 
L 1027 3491 
L 1027 0 
L 491 0 
z
M 764 4073 
Q 607 4073 494 4179 
Q 382 4286 382 4436 
Q 382 4586 494 4693 
Q 607 4800 764 4800 
Q 921 4800 1033 4693 
Q 1146 4586 1146 4436 
Q 1146 4286 1033 4179 
Q 921 4073 764 4073 
z
" transform="scale(0.015625)"/>
       <path id="Inter-Regular-77" d="M 1282 0 
L 218 3491 
L 782 3491 
L 1536 818 
L 1573 818 
L 2318 3491 
L 2891 3491 
L 3627 827 
L 3664 827 
L 4418 3491 
L 4982 3491 
L 3918 0 
L 3391 0 
L 2627 2682 
L 2573 2682 
L 1809 0 
L 1282 0 
z
" transform="scale(0.015625)"/>
       <path id="Inter-Regular-68" d="M 1027 2100 
L 1027 0 
L 491 0 
L 491 4655 
L 1027 4655 
L 1027 2945 
L 1073 2945 
Q 1196 3216 1442 3376 
Q 1689 3536 2100 3536 
Q 2636 3536 2963 3213 
Q 3291 2891 3291 2218 
L 3291 0 
L 2755 0 
L 2755 2182 
Q 2755 2598 2540 2826 
Q 2325 3055 1946 3055 
Q 1548 3055 1287 2806 
Q 1027 2557 1027 2100 
z
" transform="scale(0.015625)"/>
       <path id="Inter-Regular-64" d="M 1809 -73 
Q 1373 -73 1039 148 
Q 705 370 516 776 
Q 327 1182 327 1736 
Q 327 2286 516 2690 
Q 705 3095 1041 3315 
Q 1377 3536 1818 3536 
Q 2159 3536 2358 3423 
Q 2557 3311 2662 3169 
Q 2768 3027 2827 2936 
L 2873 2936 
L 2873 4655 
L 3409 4655 
L 3409 0 
L 2891 0 
L 2891 536 
L 2827 536 
Q 2768 441 2659 296 
Q 2550 152 2348 39 
Q 2146 -73 1809 -73 
z
M 1882 409 
Q 2366 409 2624 780 
Q 2882 1152 2882 1745 
Q 2882 2332 2627 2693 
Q 2373 3055 1882 3055 
Q 1541 3055 1315 2881 
Q 1089 2707 976 2410 
Q 864 2114 864 1745 
Q 864 1373 978 1069 
Q 1093 766 1319 587 
Q 1546 409 1882 409 
z
" transform="scale(0.015625)"/>
       <path id="Inter-Regular-38" d="M 1973 -64 
Q 1505 -64 1147 103 
Q 789 270 589 564 
Q 389 859 391 1236 
Q 389 1532 507 1783 
Q 625 2034 830 2203 
Q 1036 2373 1291 2418 
L 1291 2445 
Q 957 2532 759 2821 
Q 561 3111 564 3482 
Q 561 3836 743 4115 
Q 925 4395 1244 4556 
Q 1564 4718 1973 4718 
Q 2377 4718 2695 4556 
Q 3014 4395 3197 4115 
Q 3380 3836 3382 3482 
Q 3380 3111 3181 2821 
Q 2982 2532 2655 2445 
L 2655 2418 
Q 2907 2373 3109 2203 
Q 3311 2034 3431 1783 
Q 3552 1532 3555 1236 
Q 3552 859 3351 564 
Q 3150 270 2794 103 
Q 2439 -64 1973 -64 
z
M 1973 436 
Q 2446 436 2722 662 
Q 2998 889 3000 1264 
Q 2998 1527 2864 1729 
Q 2730 1932 2499 2048 
Q 2268 2164 1973 2164 
Q 1675 2164 1442 2048 
Q 1209 1932 1076 1729 
Q 943 1527 946 1264 
Q 943 889 1218 662 
Q 1493 436 1973 436 
z
M 1973 2645 
Q 2348 2645 2591 2864 
Q 2834 3084 2836 3445 
Q 2834 3800 2596 4013 
Q 2359 4227 1973 4227 
Q 1582 4227 1344 4013 
Q 1107 3800 1109 3445 
Q 1107 3084 1349 2864 
Q 1591 2645 1973 2645 
z
" transform="scale(0.015625)"/>
       <path id="Inter-Regular-73" d="M 2964 2709 
L 2482 2573 
Q 2411 2755 2245 2914 
Q 2080 3073 1727 3073 
Q 1407 3073 1194 2926 
Q 982 2780 982 2555 
Q 982 2355 1127 2239 
Q 1273 2123 1582 2045 
L 2100 1918 
Q 3027 1691 3027 973 
Q 3027 673 2855 436 
Q 2684 200 2377 63 
Q 2071 -73 1664 -73 
Q 1130 -73 780 159 
Q 430 391 336 836 
L 846 964 
Q 989 400 1655 400 
Q 2030 400 2251 560 
Q 2473 720 2473 945 
Q 2473 1316 1955 1436 
L 1373 1573 
Q 893 1686 669 1926 
Q 446 2166 446 2527 
Q 446 2823 613 3050 
Q 780 3277 1069 3406 
Q 1359 3536 1727 3536 
Q 2246 3536 2542 3309 
Q 2839 3082 2964 2709 
z
" transform="scale(0.015625)"/>
      </defs>
      <use xlink:href="#Inter-Regular-50"/>
      <use xlink:href="#Inter-Regular-65" x="63.494324"/>
      <use xlink:href="#Inter-Regular-72" x="121.732971"/>
      <use xlink:href="#Inter-Regular-63" x="160.085251"/>
      <use xlink:href="#Inter-Regular-65" x="215.909119"/>
      <use xlink:href="#Inter-Regular-6e" x="274.147766"/>
      <use xlink:href="#Inter-Regular-74" x="332.670502"/>
      <use xlink:href="#Inter-Regular-20" x="369.034149"/>
      <use xlink:href="#Inter-Regular-6f" x="397.159149"/>
      <use xlink:href="#Inter-Regular-66" x="456.818253"/>
      <use xlink:href="#Inter-Regular-20" x="492.897797"/>
      <use xlink:href="#Inter-Regular-6e" x="521.022797"/>
      <use xlink:href="#Inter-Regular-61" x="579.545532"/>
      <use xlink:href="#Inter-Regular-74" x="635.937592"/>
      <use xlink:href="#Inter-Regular-69" x="672.301239"/>
      <use xlink:href="#Inter-Regular-6f" x="696.022827"/>
      <use xlink:href="#Inter-Regular-6e" x="755.681931"/>
      <use xlink:href="#Inter-Regular-20" x="814.204666"/>
      <use xlink:href="#Inter-Regular-77" x="842.329666"/>
      <use xlink:href="#Inter-Regular-68" x="923.579681"/>
      <use xlink:href="#Inter-Regular-6f" x="982.670609"/>
      <use xlink:href="#Inter-Regular-20" x="1042.329712"/>
      <use xlink:href="#Inter-Regular-68" x="1070.454712"/>
      <use xlink:href="#Inter-Regular-61" x="1129.545639"/>
      <use xlink:href="#Inter-Regular-76" x="1185.937698"/>
      <use xlink:href="#Inter-Regular-65" x="1241.619522"/>
      <use xlink:href="#Inter-Regular-20" x="1299.85817"/>
      <use xlink:href="#Inter-Regular-64" x="1327.98317"/>
      <use xlink:href="#Inter-Regular-69" x="1390.057053"/>
      <use xlink:href="#Inter-Regular-65" x="1413.778641"/>
      <use xlink:href="#Inter-Regular-64" x="1472.017288"/>
      <use xlink:href="#Inter-Regular-20" x="1534.091171"/>
      <use xlink:href="#Inter-Regular-77" x="1562.216171"/>
      <use xlink:href="#Inter-Regular-69" x="1643.466187"/>
      <use xlink:href="#Inter-Regular-74" x="1667.187775"/>
      <use xlink:href="#Inter-Regular-68" x="1703.551422"/>
      <use xlink:href="#Inter-Regular-69" x="1762.642349"/>
      <use xlink:href="#Inter-Regular-6e" x="1786.363937"/>
      <use xlink:href="#Inter-Regular-20" x="1844.886673"/>
      <use xlink:href="#Inter-Regular-32" x="1873.011673"/>
      <use xlink:href="#Inter-Regular-38" x="1933.523056"/>
      <use xlink:href="#Inter-Regular-20" x="1995.170792"/>
      <use xlink:href="#Inter-Regular-64" x="2023.295792"/>
      <use xlink:href="#Inter-Regular-61" x="2085.369675"/>
      <use xlink:href="#Inter-Regular-79" x="2141.761734"/>
      <use xlink:href="#Inter-Regular-73" x="2197.443558"/>
      <use xlink:href="#Inter-Regular-20" x="2249.716293"/>
      <use xlink:href="#Inter-Regular-6f" x="2277.841293"/>
      <use xlink:href="#Inter-Regular-66" x="2337.500397"/>
      <use xlink:href="#Inter-Regular-20" x="2373.579941"/>
      <use xlink:href="#Inter-Regular-61" x="2401.704941"/>
      <use xlink:href="#Inter-Regular-20" x="2458.097"/>
      <use xlink:href="#Inter-Regular-70" x="2486.222"/>
      <use xlink:href="#Inter-Regular-6f" x="2547.159515"/>
      <use xlink:href="#Inter-Regular-73" x="2606.818619"/>
      <use xlink:href="#Inter-Regular-69" x="2659.091354"/>
      <use xlink:href="#Inter-Regular-74" x="2682.812943"/>
      <use xlink:href="#Inter-Regular-69" x="2719.17659"/>
      <use xlink:href="#Inter-Regular-76" x="2742.898178"/>
      <use xlink:href="#Inter-Regular-65" x="2798.580002"/>
      <use xlink:href="#Inter-Regular-20" x="2856.818649"/>
      <use xlink:href="#Inter-Regular-74" x="2884.943649"/>
      <use xlink:href="#Inter-Regular-65" x="2921.307297"/>
      <use xlink:href="#Inter-Regular-73" x="2979.545944"/>
      <use xlink:href="#Inter-Regular-74" x="3031.81868"/>
     </g>
    </g>
   </g>
   <g id="line2d_34">
    <path d="M 73.339313 476.741737 
L 82.297576 476.607933 
L 87.274388 476.137991 
L 90.260476 475.664785 
L 92.251201 474.617205 
L 93.246564 474.065675 
L 95.237289 472.270756 
L 96.232651 471.634375 
L 98.223376 469.281399 
L 101.209464 463.178673 
L 102.204826 460.930129 
L 104.195551 457.310919 
L 108.177002 444.400553 
L 109.172364 441.969254 
L 110.167727 439.998106 
L 111.163089 437.733244 
L 112.158452 434.44691 
L 113.153814 432.064562 
L 116.139902 423.135655 
L 117.135264 421.895528 
L 118.130627 420.146298 
L 119.12599 416.504243 
L 120.121352 414.138213 
L 121.116715 412.199701 
L 123.10744 407.141291 
L 125.098165 405.130982 
L 126.093527 402.317854 
L 129.079615 396.541477 
L 130.074978 394.958684 
L 132.065703 393.428108 
L 133.061065 391.342738 
L 134.056428 389.616352 
L 135.05179 388.386016 
L 136.047153 386.760798 
L 138.037878 385.403187 
L 139.03324 384.835339 
L 140.028603 383.076318 
L 141.023965 381.894935 
L 144.010053 378.856626 
L 145.005416 378.716296 
L 146.000778 378.278989 
L 146.996141 376.820209 
L 149.982228 374.41828 
L 150.977591 373.775373 
L 151.972953 372.593989 
L 153.963678 371.970663 
L 154.959041 370.678321 
L 155.954404 369.650322 
L 156.949766 368.847503 
L 157.945129 368.465675 
L 158.940491 368.338399 
L 159.935854 368.080583 
L 161.926579 366.625067 
L 162.921941 366.259556 
L 163.917304 365.479582 
L 164.912666 365.068382 
L 166.903392 364.764878 
L 168.894117 363.714034 
L 169.889479 363.505171 
L 171.880204 362.816574 
L 173.870929 362.659927 
L 175.861654 362.020283 
L 179.843105 361.26968 
L 180.838467 361.227255 
L 184.819917 360.166621 
L 188.801367 359.755421 
L 189.79673 359.461707 
L 200.745718 358.410863 
L 202.736443 358.247689 
L 207.713256 357.950711 
L 211.694706 357.754902 
L 213.685431 357.601518 
L 219.657606 357.360019 
L 235.583407 356.88355 
L 240.56022 356.762801 
L 245.537032 356.589836 
L 256.48602 356.341811 
L 259.472108 356.221062 
L 271.416458 355.659741 
L 277.388634 355.062523 
L 278.383996 355.020097 
L 281.370084 354.439196 
L 283.360809 354.122638 
L 286.346896 353.7506 
L 292.319072 352.533318 
L 297.295884 350.604596 
L 299.286609 350.177079 
L 300.281972 349.481955 
L 302.272697 348.489854 
L 303.26806 347.876318 
L 305.258785 346.969068 
L 306.254147 346.675354 
L 307.24951 345.62451 
L 311.23096 342.511141 
L 313.221685 341.672424 
L 316.207773 338.265341 
L 318.198498 336.206079 
L 319.19386 335.791616 
L 320.189223 335.220505 
L 323.17531 330.628775 
L 324.170673 329.714998 
L 325.166035 328.422656 
L 326.161398 327.955977 
L 327.156761 327.332651 
L 328.152123 325.642163 
L 331.138211 321.481214 
L 332.133573 320.613125 
L 333.128936 319.405634 
L 334.124298 318.772517 
L 335.119661 317.02655 
L 336.115023 315.055402 
L 339.101111 310.946669 
L 341.091836 309.696752 
L 343.082561 306.152602 
L 344.077924 305.082178 
L 345.073286 303.698458 
L 346.068649 302.575818 
L 348.059374 301.342219 
L 349.054736 299.586461 
L 351.045462 296.747225 
L 352.040824 295.595213 
L 353.036187 294.159278 
L 354.031549 293.708916 
L 355.026912 293.075799 
L 356.022274 291.551749 
L 357.017637 289.799256 
L 360.003724 285.615462 
L 361.994449 284.18279 
L 363.985175 280.158907 
L 364.980537 278.631594 
L 365.9759 276.771405 
L 366.971262 276.200294 
L 367.966625 275.397475 
L 369.95735 273.171775 
L 371.948075 267.496567 
L 372.943437 265.496048 
L 374.934163 263.077802 
L 375.929525 261.870311 
L 376.924888 259.311735 
L 377.92025 256.42681 
L 378.915613 253.150266 
L 379.910975 249.377672 
L 380.906338 246.535172 
L 382.897063 243.294527 
L 383.892425 239.538251 
L 384.887788 234.969365 
L 387.873876 223.896344 
L 389.864601 220.117223 
L 391.855326 209.775224 
L 393.846051 201.991801 
L 394.841413 197.967919 
L 396.832138 194.381343 
L 398.822863 184.303687 
L 401.808951 173.501536 
L 402.804314 171.778414 
L 403.799676 170.577449 
L 404.795039 166.152157 
L 405.790401 162.324084 
L 408.776489 154.384014 
L 410.767214 152.318225 
L 412.757939 146.117594 
L 415.744027 140.25963 
L 417.734752 138.830222 
L 418.730114 136.438084 
L 419.725477 134.355977 
L 420.720839 133.125642 
L 421.716202 131.555903 
L 422.711564 130.260298 
L 424.70229 129.101759 
L 425.697652 127.525493 
L 426.693015 126.285367 
L 429.679102 123.609306 
L 431.669827 122.910919 
L 433.660552 121.047466 
L 435.651277 119.699645 
L 436.64664 119.259074 
L 438.637365 118.857665 
L 439.632728 118.182122 
L 442.618815 116.74945 
L 443.614178 116.40352 
L 445.604903 116.073908 
L 449.586353 114.814201 
L 450.581716 114.546595 
L 452.572441 114.409528 
L 454.563166 113.773148 
L 458.544616 113.218354 
L 461.530704 112.901796 
L 464.516791 112.588501 
L 467.502879 112.454698 
L 472.479692 111.896641 
L 475.465779 111.684514 
L 482.433317 111.217835 
L 484.424042 111.057924 
L 486.414767 110.946966 
L 488.405492 110.884959 
L 491.39158 110.702204 
L 502.340568 110.375855 
L 510.303468 110.196363 
L 538.173619 109.553455 
L 562.06232 108.277431 
L 567.039133 107.768327 
L 570.02522 107.448505 
L 571.020583 107.399552 
L 573.011308 106.926346 
L 576.992758 106.227959 
L 577.988121 106.188798 
L 578.983483 105.793915 
L 581.969571 105.157535 
L 583.960296 104.811605 
L 584.955659 104.756126 
L 586.946384 104.025104 
L 590.927834 103.134171 
L 591.923196 103.04932 
L 592.918559 102.61854 
L 596.900009 101.50569 
L 598.890734 101.264192 
L 599.886097 100.761614 
L 604.862909 99.446428 
L 605.858272 99.351787 
L 607.848997 98.415165 
L 609.839722 97.739623 
L 610.835085 97.351267 
L 613.821172 96.936804 
L 614.816535 96.336322 
L 615.811897 95.86638 
L 618.797985 95.030926 
L 619.793348 94.939548 
L 621.784073 93.826698 
L 624.77016 92.53762 
L 626.760885 92.296122 
L 629.746973 90.905875 
L 631.737698 90.054104 
L 633.728423 89.855032 
L 634.723786 89.287184 
L 638.705236 87.733763 
L 640.695961 87.537954 
L 642.686686 86.715554 
L 645.672774 85.834412 
L 647.663499 85.694082 
L 648.658861 85.237194 
L 652.640311 83.964433 
L 654.631036 83.804522 
L 655.626399 83.324789 
L 659.607849 81.928015 
L 661.598574 81.722415 
L 662.593937 81.105616 
L 663.589299 80.668308 
L 664.584662 80.452918 
L 666.575387 79.578302 
L 668.566112 79.356385 
L 670.556837 78.12605 
L 672.547562 77.23838 
L 673.542925 76.788019 
L 674.538287 76.595473 
L 675.53365 76.553047 
L 676.529012 75.720858 
L 678.519737 74.634116 
L 680.510462 73.733392 
L 682.501188 73.475577 
L 683.49655 72.724974 
L 685.487275 71.677394 
L 687.478 70.819096 
L 689.468725 70.558017 
L 691.45945 69.419059 
L 694.445538 68.113663 
L 696.436263 67.84932 
L 698.426988 66.971442 
L 701.413076 65.82922 
L 703.403801 65.630147 
L 705.394526 64.703316 
L 708.380614 63.649209 
L 710.371339 63.404447 
L 712.362064 62.441718 
L 715.348151 61.397401 
L 717.338877 61.168957 
L 720.324964 59.899459 
L 722.315689 59.21739 
L 724.306414 58.979155 
L 726.297139 58.075169 
L 728.287864 57.295195 
L 730.27859 57.295195 
L 731.273952 56.828516 
L 733.264677 56.655551 
L 734.26004 55.621024 
L 736.250765 54.537546 
L 737.246127 54.345 
L 737.246127 54.345 
" clip-path="url(#p9e1d1713b3)" style="fill: none; stroke: #5694ca; stroke-width: 2; stroke-linecap: square"/>
   </g>
   <g id="line2d_35">
    <path d="M 73.339313 476.745 
L 89.265113 476.647638 
L 91.255838 476.355552 
L 93.246564 475.868741 
L 95.237289 475.381931 
L 96.232651 474.797758 
L 97.228014 474.700396 
L 98.223376 474.116224 
L 99.218739 473.9215 
L 100.214101 473.337327 
L 101.209464 472.168982 
L 103.200189 470.708551 
L 104.195551 470.027017 
L 105.190914 469.73493 
L 107.181639 468.858672 
L 108.177002 467.885051 
L 109.172364 466.42462 
L 110.167727 465.353637 
L 111.163089 464.769464 
L 112.158452 463.795844 
L 113.153814 463.211671 
L 116.139902 458.051481 
L 117.135264 457.954119 
L 119.12599 455.422705 
L 120.121352 452.501842 
L 121.116715 451.236135 
L 123.10744 448.217911 
L 124.102802 447.731101 
L 125.098165 446.75748 
L 126.093527 444.810238 
L 128.084252 443.057721 
L 129.079615 441.305203 
L 130.074978 440.234221 
L 132.065703 439.163238 
L 133.061065 437.508082 
L 134.056428 436.145013 
L 139.03324 434.197772 
L 140.028603 433.321513 
L 141.023965 433.126789 
L 142.019328 432.639978 
L 143.014691 431.179547 
L 146.000778 429.91384 
L 146.996141 429.232306 
L 147.991503 428.745495 
L 148.986866 428.063961 
L 149.982228 427.771875 
L 151.972953 427.57715 
L 152.968316 426.798254 
L 153.963678 426.798254 
L 158.940491 425.921995 
L 160.931216 425.629909 
L 161.926579 424.851012 
L 165.908029 424.558926 
L 169.889479 424.461564 
L 175.861654 423.974753 
L 177.852379 423.877391 
L 179.843105 423.780029 
L 181.83383 423.682667 
L 187.806005 423.195857 
L 190.792092 423.098495 
L 191.787455 422.903771 
L 200.745718 422.903771 
L 201.74108 422.709046 
L 232.597319 422.611684 
L 234.588044 422.514322 
L 245.537032 422.41696 
L 247.527757 422.319598 
L 251.509207 422.319598 
L 253.499933 422.027512 
L 255.490658 421.93015 
L 257.481383 421.832788 
L 258.476745 421.638064 
L 263.453558 421.540701 
L 266.439646 421.053891 
L 267.435008 421.053891 
L 268.430371 420.859167 
L 270.421096 420.859167 
L 271.416458 420.664443 
L 279.379359 420.567081 
L 289.332984 419.690822 
L 291.323709 419.59346 
L 292.319072 419.301374 
L 293.314434 418.619839 
L 295.305159 417.840943 
L 297.295884 417.451494 
L 304.263422 414.043821 
L 305.258785 413.264925 
L 306.254147 412.778114 
L 307.24951 411.512407 
L 313.221685 406.352217 
L 314.217048 405.768045 
L 315.21241 404.794424 
L 316.207773 403.626079 
L 317.203135 402.847182 
L 318.198498 401.484113 
L 319.19386 400.802579 
L 322.179948 397.979079 
L 323.17531 396.518647 
L 325.166035 394.474044 
L 326.161398 393.597785 
L 327.156761 392.234716 
L 328.152123 391.358457 
L 330.142848 389.119129 
L 331.138211 387.950784 
L 333.128936 386.003543 
L 334.124298 385.711457 
L 335.119661 384.640474 
L 337.110386 383.180043 
L 338.105749 382.011698 
L 339.101111 381.135439 
L 340.096474 380.843353 
L 341.091836 379.869732 
L 342.087199 378.409301 
L 343.082561 378.019852 
L 344.077924 376.94887 
L 346.068649 375.683163 
L 347.064011 374.61218 
L 348.059374 373.735921 
L 349.054736 372.372852 
L 350.050099 371.204507 
L 351.045462 369.841438 
L 352.040824 368.673093 
L 353.036187 367.796834 
L 355.026912 366.920575 
L 356.022274 366.336403 
L 357.017637 365.557506 
L 359.008362 363.220816 
L 360.003724 361.565661 
L 360.999087 360.299954 
L 361.994449 359.61842 
L 362.989812 358.060626 
L 363.985175 356.016023 
L 364.980537 354.94504 
L 365.9759 354.94504 
L 366.971262 352.997798 
L 367.966625 352.997798 
L 368.961987 351.050557 
L 369.95735 349.687488 
L 370.952712 349.103315 
L 371.948075 348.032332 
L 372.943437 348.032332 
L 373.9388 345.500918 
L 374.934163 344.916746 
L 375.929525 343.748401 
L 376.924888 341.995883 
L 377.92025 340.730176 
L 378.915613 339.075021 
L 379.910975 337.127779 
L 380.906338 336.251521 
L 382.897063 333.038572 
L 383.892425 330.896606 
L 384.887788 329.046727 
L 385.88315 327.488934 
L 386.878513 324.95752 
L 387.873876 322.815554 
L 388.869238 320.381502 
L 389.864601 318.531622 
L 391.855326 314.052967 
L 392.850688 312.008363 
L 394.841413 309.671673 
L 395.836776 308.308604 
L 398.822863 303.537862 
L 399.818226 302.272155 
L 400.813589 300.13019 
L 402.804314 296.625155 
L 403.799676 295.554172 
L 404.795039 293.899017 
L 406.785764 291.854413 
L 407.781126 290.29662 
L 408.776489 289.615085 
L 409.771851 288.738826 
L 410.767214 287.570481 
L 411.762577 286.596861 
L 412.757939 286.207412 
L 415.744027 283.481274 
L 416.739389 282.410291 
L 417.734752 282.020843 
L 418.730114 281.144584 
L 421.716202 279.489429 
L 423.706927 278.807894 
L 427.688377 277.250101 
L 432.66519 276.179118 
L 434.655915 275.497584 
L 435.651277 275.30286 
L 437.642003 274.621325 
L 439.632728 274.231877 
L 441.623453 272.576721 
L 446.600265 272.187273 
L 448.590991 272.089911 
L 449.586353 271.797825 
L 451.577078 271.700463 
L 455.558528 271.408376 
L 456.553891 271.408376 
L 458.544616 271.018928 
L 459.539978 271.018928 
L 460.535341 270.532118 
L 465.512154 270.434756 
L 472.479692 269.169049 
L 475.465779 269.071687 
L 478.451867 268.584876 
L 481.437954 268.487514 
L 482.433317 268.390152 
L 483.428679 268.098066 
L 487.41013 267.80598 
L 490.396217 267.708617 
L 493.382305 267.513893 
L 501.345205 267.416531 
L 504.331293 267.221807 
L 508.312743 267.124445 
L 509.308106 266.929721 
L 524.238544 266.832359 
L 526.229269 266.734997 
L 553.104057 266.637635 
L 555.094782 266.540273 
L 562.06232 266.44291 
L 564.053045 266.345548 
L 568.034495 266.248186 
L 570.02522 265.9561 
L 577.988121 265.177203 
L 581.969571 264.106221 
L 582.964934 263.327324 
L 585.951021 261.769531 
L 586.946384 261.672169 
L 588.937109 260.990634 
L 589.932471 260.406462 
L 590.927834 260.3091 
L 591.923196 259.530203 
L 593.913921 259.043392 
L 595.904647 258.361858 
L 596.900009 257.875048 
L 598.890734 257.290875 
L 599.886097 256.609341 
L 600.881459 255.538358 
L 602.872184 253.78584 
L 603.867547 253.396392 
L 604.862909 252.325409 
L 605.858272 251.44915 
L 606.853634 250.280805 
L 610.835085 248.333564 
L 611.830447 247.457305 
L 613.821172 246.28896 
L 614.816535 245.412702 
L 615.811897 244.244357 
L 616.80726 243.368098 
L 618.797985 242.005029 
L 619.793348 241.12877 
L 623.774798 238.499994 
L 624.77016 238.207908 
L 625.765523 237.623735 
L 628.75161 235.189683 
L 629.746973 234.702873 
L 630.742335 233.729252 
L 632.733061 232.658269 
L 634.723786 231.782011 
L 635.719148 231.392562 
L 637.709873 229.834769 
L 641.691323 227.984889 
L 643.682048 227.595441 
L 644.677411 226.816545 
L 646.668136 226.524458 
L 653.635674 224.479855 
L 655.626399 223.408872 
L 656.621762 223.31151 
L 657.617124 222.727337 
L 661.598574 221.266906 
L 662.593937 220.488009 
L 663.589299 219.903837 
L 664.584662 219.514389 
L 665.580024 218.832854 
L 666.575387 217.859233 
L 668.566112 216.982975 
L 669.561475 216.593526 
L 670.556837 216.009354 
L 671.5522 215.133095 
L 674.538287 213.088491 
L 675.53365 212.114871 
L 676.529012 211.920147 
L 677.524375 211.043888 
L 678.519737 209.875543 
L 679.5151 209.486095 
L 680.510462 208.901922 
L 681.505825 208.512474 
L 682.501188 207.441491 
L 685.487275 205.494249 
L 687.478 205.007439 
L 690.464088 203.547008 
L 691.45945 202.378663 
L 694.445538 200.528783 
L 695.440901 199.847249 
L 697.431626 199.165714 
L 699.422351 198.289456 
L 700.417713 197.413197 
L 702.408438 197.023748 
L 703.403801 196.6343 
L 704.399163 196.439576 
L 705.394526 196.050128 
L 706.389889 195.855404 
L 707.385251 195.465955 
L 708.380614 194.589697 
L 709.375976 193.908162 
L 710.371339 193.8108 
L 713.357426 192.447731 
L 715.348151 191.96092 
L 717.338877 191.279386 
L 719.329602 190.500489 
L 720.324964 189.916317 
L 721.320327 189.624231 
L 722.315689 189.13742 
L 729.283227 187.871713 
L 732.269315 187.871713 
L 733.264677 186.508644 
L 734.26004 186.216558 
L 736.250765 186.119196 
L 737.246127 186.119196 
L 737.246127 186.119196 
" clip-path="url(#p9e1d1713b3)" style="fill: none; stroke: #ffdd00; stroke-width: 2; stroke-linecap: square"/>
   </g>
   <g id="line2d_36">
    <path d="M 73.339313 476.745 
L 85.283663 476.677473 
L 87.274388 476.576183 
L 89.265113 476.441129 
L 94.241926 475.664571 
L 95.237289 475.428227 
L 96.232651 475.394464 
L 97.228014 475.191883 
L 98.223376 474.449088 
L 100.214101 472.524574 
L 102.204826 469.41834 
L 104.195551 469.283287 
L 107.181639 461.68652 
L 109.172364 458.478996 
L 110.167727 457.668674 
L 111.163089 457.364803 
L 112.158452 456.014267 
L 114.149177 450.477068 
L 116.139902 446.628039 
L 118.130627 445.885244 
L 121.116715 438.963745 
L 122.112077 436.802887 
L 123.10744 435.216007 
L 124.102802 434.608266 
L 125.098165 434.169341 
L 126.093527 431.805903 
L 127.08889 429.00354 
L 128.084252 426.977735 
L 130.074978 424.141609 
L 131.07034 423.736448 
L 132.065703 423.567631 
L 133.061065 422.082041 
L 134.056428 419.279678 
L 135.05179 417.287637 
L 136.047153 415.63323 
L 137.042515 414.417747 
L 138.037878 414.080113 
L 139.03324 413.911296 
L 140.028603 412.223125 
L 141.023965 410.163558 
L 142.019328 409.015602 
L 144.010053 406.078185 
L 145.005416 405.774314 
L 146.000778 405.706788 
L 146.996141 404.727649 
L 147.991503 403.039478 
L 148.986866 401.790232 
L 149.982228 400.97991 
L 150.977591 400.439696 
L 151.972953 400.135825 
L 152.968316 400.034535 
L 153.963678 399.426793 
L 156.949766 398.076257 
L 157.945129 397.333462 
L 158.940491 397.029591 
L 159.935854 396.995828 
L 161.926579 396.21927 
L 162.921941 395.915399 
L 163.917304 395.442711 
L 164.912666 395.240131 
L 166.903392 395.240131 
L 167.898754 395.003787 
L 168.894117 394.598626 
L 171.880204 394.159702 
L 174.866292 393.957121 
L 175.861654 393.653251 
L 176.857017 393.585724 
L 177.852379 393.383143 
L 179.843105 393.315616 
L 180.838467 393.315616 
L 183.824555 392.977982 
L 188.801367 392.876692 
L 196.764268 392.707875 
L 244.54167 392.640348 
L 246.532395 392.572821 
L 257.481383 392.505295 
L 259.472108 392.404004 
L 268.430371 392.302714 
L 270.421096 392.201424 
L 273.407183 392.100134 
L 276.393271 391.998843 
L 279.379359 391.96508 
L 280.374721 391.728736 
L 284.356171 391.357339 
L 287.342259 391.256049 
L 291.323709 390.682071 
L 292.319072 390.682071 
L 293.314434 390.445727 
L 295.305159 389.500351 
L 296.300522 389.196481 
L 297.295884 388.690029 
L 299.286609 388.656266 
L 300.281972 388.149815 
L 301.277335 387.204439 
L 303.26806 386.02272 
L 304.263422 385.651323 
L 306.254147 385.583796 
L 308.244872 383.794335 
L 309.240235 382.545089 
L 311.23096 380.789392 
L 312.226322 380.586811 
L 313.221685 380.586811 
L 314.217048 379.641436 
L 315.21241 377.953265 
L 316.207773 376.636492 
L 317.203135 375.589827 
L 318.198498 374.273054 
L 320.189223 374.138 
L 321.184585 372.821227 
L 322.179948 370.660369 
L 323.17531 369.141016 
L 324.170673 367.250265 
L 325.166035 366.034782 
L 326.161398 366.034782 
L 327.156761 365.832202 
L 328.152123 364.582955 
L 330.142848 361.071561 
L 331.138211 359.991132 
L 332.133573 358.741886 
L 333.128936 358.505542 
L 334.124298 358.505542 
L 336.115023 355.635652 
L 337.110386 353.913718 
L 338.105749 352.664472 
L 339.101111 351.178882 
L 341.091836 351.010065 
L 343.082561 348.5791 
L 344.077924 346.857166 
L 345.073286 345.472866 
L 346.068649 344.730071 
L 347.064011 344.561254 
L 348.059374 344.52749 
L 349.054736 343.413298 
L 350.050099 342.096525 
L 351.045462 340.408355 
L 352.040824 339.395452 
L 353.036187 338.078679 
L 355.026912 338.011153 
L 356.022274 337.200831 
L 357.017637 335.917821 
L 358.012999 334.904919 
L 360.003724 332.305136 
L 361.994449 332.203846 
L 365.9759 326.261486 
L 368.961987 326.227723 
L 369.95735 325.991379 
L 370.952712 324.539552 
L 371.948075 322.243641 
L 372.943437 320.791814 
L 375.929525 320.758051 
L 376.924888 320.386653 
L 377.92025 318.090741 
L 378.915613 315.457195 
L 380.906338 309.177201 
L 382.897063 309.042148 
L 383.892425 307.218924 
L 384.887788 304.551614 
L 386.878513 300.331188 
L 387.873876 297.697642 
L 389.864601 297.697642 
L 390.859963 295.30044 
L 392.850688 289.189263 
L 394.841413 284.226042 
L 396.832138 284.057225 
L 399.818226 275.244975 
L 400.813589 272.881537 
L 401.808951 270.855732 
L 403.799676 270.450571 
L 404.795039 268.120896 
L 405.790401 265.149716 
L 406.785764 263.360255 
L 407.781126 261.300687 
L 408.776489 259.680044 
L 410.767214 259.274883 
L 411.762577 257.316605 
L 413.753302 254.007791 
L 414.748664 251.745643 
L 415.744027 250.226289 
L 416.739389 250.091236 
L 417.734752 250.091236 
L 418.730114 248.436829 
L 420.720839 244.351456 
L 422.711564 242.325652 
L 423.706927 242.156835 
L 424.70229 242.156835 
L 425.697652 240.266084 
L 426.693015 238.679203 
L 428.68374 236.720926 
L 429.679102 236.113184 
L 431.669827 236.045657 
L 433.660552 233.749746 
L 434.655915 232.939424 
L 436.64664 232.162865 
L 438.637365 232.129102 
L 440.62809 230.812329 
L 441.623453 230.069534 
L 442.618815 229.495556 
L 443.614178 229.225449 
L 446.600265 228.921578 
L 447.595628 228.516417 
L 450.581716 227.739859 
L 452.572441 227.739859 
L 453.567803 227.503515 
L 454.563166 227.402225 
L 455.558528 227.064591 
L 457.549253 226.65943 
L 459.539978 226.65943 
L 460.535341 226.254269 
L 463.521429 225.646528 
L 467.502879 225.646528 
L 468.498241 225.47771 
L 469.493604 225.443947 
L 471.484329 225.106313 
L 474.470417 225.005023 
L 478.451867 224.701152 
L 482.433317 224.599862 
L 486.414767 224.295991 
L 489.400855 224.228464 
L 490.396217 224.059647 
L 504.331293 223.958357 
L 506.322018 223.89083 
L 518.266368 223.823303 
L 520.257093 223.755777 
L 524.238544 223.68825 
L 526.229269 223.485669 
L 532.201444 223.384379 
L 536.182894 223.316852 
L 545.141157 222.641584 
L 547.131882 222.40524 
L 549.122607 222.270187 
L 551.113332 222.236423 
L 553.104057 221.932553 
L 555.094782 221.696209 
L 557.085507 221.696209 
L 562.06232 220.750833 
L 564.053045 220.750833 
L 565.048408 220.61578 
L 566.04377 220.244382 
L 567.039133 219.602877 
L 569.029858 219.299007 
L 571.020583 219.299007 
L 572.015946 218.860082 
L 573.011308 218.623738 
L 574.006671 217.880943 
L 575.002033 217.678363 
L 575.997396 217.306966 
L 577.988121 217.306966 
L 579.978846 216.766751 
L 580.974208 216.327827 
L 583.960296 215.720085 
L 584.955659 215.686322 
L 585.951021 215.382451 
L 587.941746 214.572129 
L 589.932471 214.031915 
L 591.923196 214.031915 
L 593.913921 213.322883 
L 596.900009 212.613852 
L 598.890734 212.613852 
L 602.872184 211.432132 
L 604.862909 211.330842 
L 605.858272 211.330842 
L 606.853634 210.993208 
L 607.848997 210.824391 
L 608.84436 210.351703 
L 609.839722 210.21665 
L 610.835085 209.946542 
L 612.82581 209.946542 
L 614.816535 209.406328 
L 615.811897 208.83235 
L 617.802622 208.123318 
L 619.793348 208.123318 
L 624.77016 205.523536 
L 626.760885 205.523536 
L 627.756248 204.814504 
L 630.742335 201.910851 
L 631.737698 200.999239 
L 633.728423 200.931712 
L 634.723786 200.323971 
L 635.719148 199.277305 
L 636.714511 198.028059 
L 637.709873 196.339889 
L 638.705236 195.732147 
L 640.695961 195.630857 
L 641.691323 195.090642 
L 642.686686 194.145267 
L 644.677411 191.815592 
L 645.672774 191.241614 
L 647.663499 191.20785 
L 648.658861 190.498819 
L 650.649586 188.03409 
L 652.640311 186.886134 
L 654.631036 186.852371 
L 656.621762 184.927856 
L 658.612487 182.868288 
L 659.607849 182.159257 
L 661.598574 182.09173 
L 663.589299 180.40356 
L 664.584662 179.32313 
L 665.580024 178.681626 
L 666.575387 178.681626 
L 667.570749 177.972594 
L 668.566112 177.972594 
L 669.561475 177.297326 
L 670.556837 176.385714 
L 671.5522 175.710446 
L 673.542925 174.224856 
L 675.53365 174.224856 
L 676.529012 173.347007 
L 677.524375 172.671739 
L 678.519737 171.557546 
L 680.510462 169.903139 
L 682.501188 169.835613 
L 684.491913 168.51884 
L 685.487275 167.640991 
L 686.482638 167.067013 
L 687.478 166.628089 
L 689.468725 166.594325 
L 690.464088 166.020347 
L 691.45945 165.581423 
L 692.454813 164.602284 
L 693.450176 163.960779 
L 694.445538 163.589382 
L 696.436263 163.589382 
L 697.431626 163.015404 
L 698.426988 162.711533 
L 701.413076 160.753256 
L 703.403801 160.753256 
L 704.399163 160.415621 
L 705.394526 159.774117 
L 706.389889 158.862505 
L 708.380614 157.849602 
L 710.371339 157.815839 
L 713.357426 156.499066 
L 714.352789 155.857561 
L 715.348151 155.4524 
L 717.338877 155.4524 
L 718.334239 155.24982 
L 720.324964 153.899283 
L 722.315689 153.359069 
L 724.306414 153.325306 
L 726.297139 152.650037 
L 729.283227 151.603372 
L 732.269315 151.569608 
L 733.264677 151.468318 
L 734.26004 151.164447 
L 735.255402 150.725523 
L 737.246127 150.725523 
L 737.246127 150.725523 
" clip-path="url(#p9e1d1713b3)" style="fill: none; stroke: #003078; stroke-width: 2; stroke-linecap: square"/>
   </g>
   <g id="line2d_37">
    <path d="M 73.339313 476.745 
L 87.274388 476.745 
L 88.269751 476.628549 
L 89.265113 476.104519 
L 90.260476 475.871617 
L 91.255838 475.813392 
L 93.246564 475.172911 
L 96.232651 474.008401 
L 97.228014 473.193243 
L 98.223376 472.785665 
L 99.218739 471.097125 
L 100.214101 469.99084 
L 101.209464 468.593427 
L 103.200189 467.137789 
L 104.195551 465.5657 
L 105.190914 464.459415 
L 106.186277 462.537973 
L 107.181639 460.150727 
L 108.177002 458.462187 
L 109.172364 456.366068 
L 110.167727 455.318009 
L 111.163089 454.444626 
L 112.158452 453.338341 
L 113.153814 449.84481 
L 114.149177 447.981593 
L 115.144539 447.341112 
L 116.139902 445.710798 
L 117.135264 443.323551 
L 118.130627 442.799522 
L 119.12599 441.343884 
L 121.116715 439.480667 
L 122.112077 433.07586 
L 123.10744 431.736673 
L 124.102802 430.921516 
L 125.098165 430.455712 
L 126.093527 429.465878 
L 127.08889 425.215415 
L 128.084252 423.934453 
L 129.079615 422.944619 
L 130.074978 420.382697 
L 132.065703 418.752382 
L 133.061065 417.238518 
L 135.05179 414.967723 
L 136.047153 413.337409 
L 137.042515 412.813379 
L 138.037878 412.114673 
L 139.03324 411.823545 
L 140.028603 410.891937 
L 141.023965 409.610975 
L 143.014691 408.50469 
L 144.010053 407.456631 
L 145.005416 406.757925 
L 146.000778 406.525023 
L 146.996141 405.535189 
L 147.991503 404.720032 
L 149.982228 403.788423 
L 152.968316 402.623913 
L 153.963678 402.158109 
L 154.959041 401.517628 
L 155.954404 400.702471 
L 156.949766 400.120216 
L 157.945129 399.305058 
L 158.940491 398.664578 
L 159.935854 398.37345 
L 160.931216 397.965871 
L 161.926579 396.976037 
L 162.921941 396.510233 
L 163.917304 396.277331 
L 164.912666 395.695076 
L 165.908029 395.403948 
L 166.903392 395.229272 
L 168.894117 394.181212 
L 169.889479 393.831859 
L 170.884842 393.249604 
L 171.880204 392.900251 
L 173.870929 392.492672 
L 176.857017 391.153485 
L 177.852379 390.920583 
L 180.838467 390.745907 
L 181.83383 390.454779 
L 183.824555 389.639622 
L 184.819917 389.523171 
L 185.81528 389.232043 
L 187.806005 388.940916 
L 188.801367 388.766239 
L 191.787455 387.834631 
L 192.782818 387.543503 
L 195.768905 387.310601 
L 196.764268 387.077699 
L 197.75963 386.961248 
L 201.74108 386.903022 
L 203.731806 386.67012 
L 206.717893 386.611895 
L 208.708618 386.553669 
L 213.685431 386.495444 
L 215.676156 386.437218 
L 216.671519 386.437218 
L 217.666881 386.146091 
L 218.662244 386.146091 
L 219.657606 385.796738 
L 222.643694 385.50561 
L 224.634419 385.330933 
L 225.629781 385.156257 
L 226.625144 384.748678 
L 228.615869 384.690453 
L 229.611232 384.690453 
L 230.606594 384.574002 
L 231.601957 384.282874 
L 234.588044 384.224649 
L 235.583407 384.108197 
L 241.555582 384.049972 
L 243.546307 383.875295 
L 245.537032 383.81707 
L 247.527757 383.758844 
L 254.495295 383.700619 
L 256.48602 383.642393 
L 266.439646 383.642393 
L 267.435008 383.467717 
L 271.416458 383.29304 
L 272.411821 383.29304 
L 277.388634 382.769011 
L 278.383996 382.769011 
L 279.379359 382.594334 
L 280.374721 382.536108 
L 281.370084 382.186755 
L 282.365446 382.012079 
L 283.360809 381.720951 
L 285.351534 381.720951 
L 286.346896 381.138696 
L 287.342259 380.964019 
L 289.332984 380.789343 
L 290.328347 379.566607 
L 291.323709 379.450156 
L 293.314434 378.926126 
L 295.305159 377.761616 
L 297.295884 377.179361 
L 298.291247 377.004684 
L 299.286609 376.946459 
L 300.281972 376.364203 
L 301.277335 375.549046 
L 302.272697 375.141467 
L 303.26806 374.384536 
L 304.263422 373.452927 
L 306.254147 372.812447 
L 307.24951 372.404868 
L 308.244872 370.250524 
L 309.240235 369.027788 
L 311.23096 367.630375 
L 312.226322 366.698767 
L 314.217048 366.291188 
L 315.21241 363.729265 
L 316.207773 361.9825 
L 317.203135 361.225568 
L 318.198498 359.362351 
L 319.19386 358.256067 
L 320.189223 357.790262 
L 321.184585 356.509301 
L 322.179948 353.889153 
L 323.17531 351.909485 
L 324.170673 350.220945 
L 325.166035 349.056434 
L 326.161398 348.124826 
L 327.156761 348.008375 
L 328.152123 346.028707 
L 329.147486 343.641461 
L 330.142848 342.302274 
L 332.133573 338.866968 
L 334.124298 337.702458 
L 335.119661 336.479722 
L 336.115023 334.092476 
L 337.110386 332.462161 
L 338.105749 331.239425 
L 339.101111 329.550885 
L 340.096474 328.619277 
L 341.091836 328.4446 
L 342.087199 327.105413 
L 343.082561 324.135912 
L 344.077924 322.738499 
L 345.073286 320.817057 
L 346.068649 319.419645 
L 347.064011 318.604487 
L 348.059374 318.488036 
L 353.036187 309.463081 
L 354.031549 309.463081 
L 355.026912 307.541639 
L 356.022274 307.017609 
L 357.017637 305.270843 
L 358.012999 302.243116 
L 360.003724 297.992653 
L 360.999087 293.975092 
L 361.994449 293.392837 
L 362.989812 291.995425 
L 363.985175 289.025923 
L 364.980537 285.357715 
L 365.9759 285.357715 
L 366.971262 283.319822 
L 367.966625 279.244036 
L 368.961987 278.370653 
L 369.95735 276.449211 
L 370.952712 275.692279 
L 371.948075 271.90762 
L 372.943437 271.90762 
L 373.9388 267.831834 
L 374.934163 264.571205 
L 375.929525 263.115567 
L 376.924888 262.125733 
L 377.92025 257.700593 
L 379.910975 250.771756 
L 380.906338 247.161774 
L 381.9017 244.541626 
L 383.892425 242.620184 
L 384.887788 238.777299 
L 388.869238 226.491715 
L 389.864601 225.327204 
L 390.859963 224.8614 
L 392.850688 219.621103 
L 393.846051 215.719993 
L 394.841413 214.147904 
L 395.836776 211.585981 
L 396.832138 210.246794 
L 397.827501 209.78099 
L 398.822863 206.92794 
L 399.818226 203.667311 
L 400.813589 201.978771 
L 401.808951 200.523133 
L 402.804314 198.543465 
L 403.799676 197.320729 
L 404.795039 196.91315 
L 405.790401 194.001874 
L 406.785764 191.963981 
L 408.776489 186.490782 
L 409.771851 184.860468 
L 411.762577 183.579506 
L 412.757939 182.35677 
L 414.748664 179.329043 
L 415.744027 178.048082 
L 417.734752 176.243091 
L 418.730114 175.777287 
L 419.725477 174.030521 
L 421.716202 172.283755 
L 423.706927 170.420539 
L 424.70229 169.896509 
L 425.697652 169.663607 
L 426.693015 168.906675 
L 427.688377 167.683939 
L 429.679102 165.820723 
L 430.674465 164.42331 
L 431.669827 164.248634 
L 432.66519 164.190408 
L 435.651277 162.036064 
L 436.64664 161.628485 
L 437.642003 160.580426 
L 438.637365 160.580426 
L 439.632728 160.405749 
L 440.62809 160.056396 
L 442.618815 158.658984 
L 443.614178 158.30963 
L 444.60954 157.727375 
L 446.600265 157.552699 
L 447.595628 157.086895 
L 448.590991 156.853992 
L 449.586353 156.329963 
L 451.577078 155.631257 
L 453.567803 155.631257 
L 456.553891 155.049001 
L 457.549253 154.641423 
L 460.535341 154.583197 
L 465.512154 154.29207 
L 466.507516 153.826265 
L 467.502879 153.709814 
L 468.498241 153.709814 
L 469.493604 153.360461 
L 479.447229 152.719981 
L 481.437954 152.487078 
L 485.419405 152.428853 
L 487.41013 152.137725 
L 489.400855 152.137725 
L 490.396217 152.021274 
L 496.368392 151.963049 
L 498.359118 151.904823 
L 500.349843 151.904823 
L 501.345205 151.671921 
L 504.331293 151.55547 
L 507.31738 151.497245 
L 509.308106 151.439019 
L 511.298831 151.380794 
L 512.294193 151.206117 
L 513.289556 151.206117 
L 514.284918 151.089666 
L 517.271006 151.03144 
L 518.266368 150.914989 
L 531.206081 150.856764 
L 533.196806 150.798538 
L 544.145794 150.740313 
L 547.131882 150.623862 
L 556.090145 150.565636 
L 558.08087 150.39096 
L 564.053045 150.332734 
L 570.02522 149.925156 
L 571.020583 149.750479 
L 573.011308 149.692254 
L 574.006671 149.459351 
L 575.997396 149.401126 
L 576.992758 149.401126 
L 577.988121 149.284675 
L 578.983483 149.284675 
L 579.978846 148.935322 
L 581.969571 148.527743 
L 582.964934 148.527743 
L 583.960296 148.236616 
L 585.951021 148.17839 
L 587.941746 147.770811 
L 589.932471 147.770811 
L 591.923196 147.421458 
L 596.900009 147.130331 
L 598.890734 146.722752 
L 599.886097 146.722752 
L 600.881459 146.48985 
L 601.876822 146.373399 
L 602.872184 146.140497 
L 603.867547 146.140497 
L 604.862909 145.849369 
L 605.858272 145.732918 
L 606.853634 145.732918 
L 607.848997 145.500016 
L 608.84436 145.441791 
L 609.839722 145.150663 
L 610.835085 145.150663 
L 611.830447 144.975986 
L 613.821172 144.917761 
L 616.80726 143.986153 
L 617.802622 143.986153 
L 618.797985 143.811476 
L 619.793348 143.345672 
L 620.78871 143.170995 
L 622.779435 142.06471 
L 623.774798 141.773583 
L 624.77016 141.773583 
L 625.765523 141.307779 
L 626.760885 140.085043 
L 627.756248 139.793915 
L 628.75161 139.21166 
L 629.746973 138.978758 
L 630.742335 138.512954 
L 631.737698 138.512954 
L 633.728423 136.649737 
L 634.723786 136.242158 
L 635.719148 135.659903 
L 636.714511 135.31055 
L 637.709873 135.194099 
L 638.705236 135.194099 
L 640.695961 133.738461 
L 641.691323 133.389108 
L 642.686686 132.865078 
L 643.682048 132.108146 
L 644.677411 131.817019 
L 645.672774 131.817019 
L 646.668136 131.234764 
L 647.663499 130.24493 
L 648.658861 130.128479 
L 650.649586 129.19687 
L 651.644949 127.857683 
L 653.635674 127.857683 
L 654.631036 127.391879 
L 655.626399 127.333654 
L 656.621762 127.100752 
L 657.617124 126.402045 
L 658.612487 125.528663 
L 659.607849 125.528663 
L 660.603212 124.946407 
L 661.598574 123.781897 
L 662.593937 123.665446 
L 665.580024 121.511102 
L 666.575387 121.511102 
L 667.570749 120.812396 
L 668.566112 120.812396 
L 669.561475 119.007404 
L 670.556837 118.716277 
L 671.5522 118.017571 
L 672.547562 117.609992 
L 673.542925 117.609992 
L 674.538287 117.085962 
L 675.53365 116.096128 
L 676.529012 115.513873 
L 677.524375 115.106295 
L 678.519737 114.116461 
L 679.5151 113.359529 
L 680.510462 113.359529 
L 681.505825 112.835499 
L 682.501188 112.020342 
L 683.49655 111.729214 
L 684.491913 110.681155 
L 685.487275 109.982449 
L 686.482638 109.749547 
L 687.478 109.749547 
L 688.473363 109.400194 
L 689.468725 108.643262 
L 690.464088 108.526811 
L 691.45945 107.536977 
L 692.454813 106.372467 
L 693.450176 105.906662 
L 694.445538 105.906662 
L 700.417713 103.577642 
L 701.413076 103.577642 
L 703.403801 102.471357 
L 704.399163 102.238455 
L 707.385251 100.899268 
L 708.380614 100.899268 
L 710.371339 100.258787 
L 711.366701 100.142336 
L 712.362064 99.501855 
L 713.357426 98.628472 
L 714.352789 98.104443 
L 715.348151 98.104443 
L 716.343514 97.813315 
L 717.338877 97.347511 
L 718.334239 97.23106 
L 719.329602 96.648805 
L 720.324964 96.648805 
L 721.320327 96.474128 
L 722.315689 96.474128 
L 723.311052 96.241226 
L 725.301777 95.426069 
L 726.297139 95.251392 
L 728.287864 94.086882 
L 729.283227 94.086882 
L 730.27859 93.912205 
L 731.273952 93.912205 
L 734.26004 93.446401 
L 735.255402 92.80592 
L 736.250765 92.80592 
L 737.246127 91.990763 
L 737.246127 91.990763 
" clip-path="url(#p9e1d1713b3)" style="fill: none; stroke: #d4351c; stroke-width: 2; stroke-linecap: square"/>
   </g>
   <g id="patch_3">
    <path d="M 68.3625 476.745 
L 737.9625 476.745 
" style="fill: none; stroke: #000000; stroke-width: 0.8; stroke-linejoin: miter; stroke-linecap: square"/>
   </g>
   <g id="text_19">
    <!-- Cumulative deaths within 4 weeks of a positive COVID-19 test by date reported, per capita -->
    <g transform="translate(137.840625 27.225)scale(0.12 -0.12)">
     <defs>
      <path id="Inter-Bold-43" d="M 4511 3025 
L 3516 3025 
Q 3459 3409 3188 3628 
Q 2918 3848 2514 3848 
Q 1973 3848 1647 3451 
Q 1321 3055 1321 2327 
Q 1321 1582 1649 1194 
Q 1977 807 2507 807 
Q 2900 807 3173 1012 
Q 3446 1218 3516 1591 
L 4511 1586 
Q 4459 1159 4207 782 
Q 3955 405 3522 170 
Q 3089 -64 2491 -64 
Q 1868 -64 1378 218 
Q 889 500 606 1034 
Q 323 1568 323 2327 
Q 323 3089 609 3623 
Q 896 4157 1386 4437 
Q 1877 4718 2491 4718 
Q 3030 4718 3463 4519 
Q 3896 4320 4172 3942 
Q 4448 3564 4511 3025 
z
" transform="scale(0.015625)"/>
      <path id="Inter-Bold-75" d="M 2625 1486 
L 2625 3491 
L 3593 3491 
L 3593 0 
L 2664 0 
L 2664 634 
L 2627 634 
Q 2509 327 2235 141 
Q 1961 -45 1568 -45 
Q 1041 -45 715 306 
Q 389 657 386 1268 
L 386 3491 
L 1355 3491 
L 1355 1441 
Q 1357 1132 1520 952 
Q 1684 773 1959 773 
Q 2221 773 2424 954 
Q 2627 1136 2625 1486 
z
" transform="scale(0.015625)"/>
      <path id="Inter-Bold-6d" d="M 386 0 
L 386 3491 
L 1309 3491 
L 1309 2875 
L 1350 2875 
Q 1459 3184 1715 3360 
Q 1971 3536 2323 3536 
Q 2682 3536 2934 3358 
Q 3186 3180 3271 2875 
L 3307 2875 
Q 3414 3175 3694 3355 
Q 3975 3536 4359 3536 
Q 4848 3536 5153 3226 
Q 5459 2916 5459 2348 
L 5459 0 
L 4493 0 
L 4493 2157 
Q 4493 2448 4338 2593 
Q 4184 2739 3952 2739 
Q 3689 2739 3541 2570 
Q 3393 2402 3393 2132 
L 3393 0 
L 2455 0 
L 2455 2177 
Q 2455 2434 2308 2586 
Q 2161 2739 1923 2739 
Q 1682 2739 1518 2562 
Q 1355 2386 1355 2095 
L 1355 0 
L 386 0 
z
" transform="scale(0.015625)"/>
      <path id="Inter-Bold-6c" d="M 1355 4655 
L 1355 0 
L 386 0 
L 386 4655 
L 1355 4655 
z
" transform="scale(0.015625)"/>
      <path id="Inter-Bold-61" d="M 1382 -66 
Q 882 -66 552 195 
Q 223 457 223 975 
Q 223 1366 407 1588 
Q 591 1811 890 1914 
Q 1189 2018 1534 2050 
Q 1989 2095 2184 2145 
Q 2380 2195 2380 2364 
L 2380 2377 
Q 2380 2593 2244 2711 
Q 2109 2830 1861 2830 
Q 1600 2830 1445 2716 
Q 1291 2602 1241 2427 
L 346 2500 
Q 446 2977 842 3256 
Q 1239 3536 1866 3536 
Q 2255 3536 2593 3413 
Q 2932 3291 3140 3030 
Q 3348 2770 3348 2355 
L 3348 0 
L 2430 0 
L 2430 484 
L 2402 484 
Q 2275 241 2021 87 
Q 1768 -66 1382 -66 
z
M 1659 602 
Q 1977 602 2181 787 
Q 2386 973 2386 1248 
L 2386 1618 
Q 2330 1580 2210 1550 
Q 2091 1520 1956 1498 
Q 1821 1477 1714 1461 
Q 1459 1425 1303 1318 
Q 1148 1211 1148 1007 
Q 1148 807 1292 704 
Q 1436 602 1659 602 
z
" transform="scale(0.015625)"/>
      <path id="Inter-Bold-74" d="M 2243 3491 
L 2243 2764 
L 1586 2764 
L 1586 1073 
Q 1586 873 1677 802 
Q 1768 732 1914 732 
Q 1982 732 2050 744 
Q 2118 757 2155 764 
L 2307 43 
Q 2234 20 2102 -10 
Q 1971 -41 1782 -48 
Q 1255 -70 935 181 
Q 616 432 618 945 
L 618 2764 
L 141 2764 
L 141 3491 
L 618 3491 
L 618 4327 
L 1586 4327 
L 1586 3491 
L 2243 3491 
z
" transform="scale(0.015625)"/>
      <path id="Inter-Bold-69" d="M 386 0 
L 386 3491 
L 1355 3491 
L 1355 0 
L 386 0 
z
M 876 3941 
Q 662 3941 507 4085 
Q 353 4230 353 4432 
Q 353 4634 507 4777 
Q 662 4920 876 4920 
Q 1092 4920 1246 4777 
Q 1401 4634 1401 4432 
Q 1401 4230 1246 4085 
Q 1092 3941 876 3941 
z
" transform="scale(0.015625)"/>
      <path id="Inter-Bold-76" d="M 3641 3491 
L 2421 0 
L 1330 0 
L 109 3491 
L 1132 3491 
L 1857 993 
L 1893 993 
L 2616 3491 
L 3641 3491 
z
" transform="scale(0.015625)"/>
      <path id="Inter-Bold-65" d="M 1977 -68 
Q 1441 -68 1052 151 
Q 664 370 455 773 
Q 246 1177 246 1730 
Q 246 2268 455 2675 
Q 664 3082 1044 3309 
Q 1425 3536 1939 3536 
Q 2400 3536 2771 3340 
Q 3143 3145 3361 2751 
Q 3580 2357 3580 1764 
L 3580 1498 
L 1202 1498 
L 1202 1495 
Q 1202 1105 1416 880 
Q 1630 655 1993 655 
Q 2236 655 2413 757 
Q 2591 859 2664 1059 
L 3559 1000 
Q 3457 514 3041 223 
Q 2625 -68 1977 -68 
z
M 1202 2098 
L 2668 2098 
Q 2666 2409 2468 2611 
Q 2271 2814 1955 2814 
Q 1632 2814 1425 2604 
Q 1218 2395 1202 2098 
z
" transform="scale(0.015625)"/>
      <path id="Inter-Bold-20" transform="scale(0.015625)"/>
      <path id="Inter-Bold-64" d="M 1673 -57 
Q 1275 -57 954 149 
Q 634 355 445 756 
Q 257 1157 257 1741 
Q 257 2341 451 2740 
Q 646 3139 967 3337 
Q 1289 3536 1671 3536 
Q 1964 3536 2160 3437 
Q 2357 3339 2478 3193 
Q 2600 3048 2664 2905 
L 2693 2905 
L 2693 4655 
L 3659 4655 
L 3659 0 
L 2705 0 
L 2705 559 
L 2664 559 
Q 2598 414 2473 272 
Q 2348 130 2151 36 
Q 1955 -57 1673 -57 
z
M 1980 714 
Q 2330 714 2522 997 
Q 2714 1280 2714 1745 
Q 2714 2214 2523 2490 
Q 2332 2766 1980 2766 
Q 1621 2766 1433 2483 
Q 1246 2200 1246 1745 
Q 1246 1289 1434 1001 
Q 1623 714 1980 714 
z
" transform="scale(0.015625)"/>
      <path id="Inter-Bold-68" d="M 1355 2018 
L 1355 0 
L 386 0 
L 386 4655 
L 1327 4655 
L 1327 2875 
L 1368 2875 
Q 1489 3184 1751 3360 
Q 2014 3536 2411 3536 
Q 2957 3536 3289 3186 
Q 3621 2836 3618 2223 
L 3618 0 
L 2650 0 
L 2650 2050 
Q 2652 2373 2487 2552 
Q 2323 2732 2027 2732 
Q 1732 2732 1544 2544 
Q 1357 2357 1355 2018 
z
" transform="scale(0.015625)"/>
      <path id="Inter-Bold-73" d="M 3291 2495 
L 2405 2441 
Q 2368 2609 2220 2729 
Q 2073 2850 1821 2850 
Q 1596 2850 1440 2755 
Q 1284 2661 1286 2505 
Q 1284 2380 1385 2293 
Q 1486 2207 1730 2155 
L 2361 2027 
Q 3368 1820 3371 1082 
Q 3371 739 3169 479 
Q 2968 220 2618 76 
Q 2268 -68 1816 -68 
Q 1123 -68 711 221 
Q 300 511 232 1011 
L 1184 1061 
Q 1230 848 1394 739 
Q 1559 630 1818 630 
Q 2073 630 2228 730 
Q 2384 830 2386 984 
Q 2380 1243 1939 1332 
L 1334 1452 
Q 321 1655 325 2450 
Q 323 2955 728 3245 
Q 1134 3536 1805 3536 
Q 2466 3536 2846 3256 
Q 3227 2977 3291 2495 
z
" transform="scale(0.015625)"/>
      <path id="Inter-Bold-77" d="M 1075 0 
L 125 3491 
L 1105 3491 
L 1646 1145 
L 1677 1145 
L 2241 3491 
L 3202 3491 
L 3775 1159 
L 3805 1159 
L 4336 3491 
L 5314 3491 
L 4366 0 
L 3341 0 
L 2741 2195 
L 2698 2195 
L 2098 0 
L 1075 0 
z
" transform="scale(0.015625)"/>
      <path id="Inter-Bold-6e" d="M 1355 2018 
L 1355 0 
L 386 0 
L 386 3491 
L 1309 3491 
L 1309 2875 
L 1350 2875 
Q 1468 3180 1739 3358 
Q 2011 3536 2400 3536 
Q 2946 3536 3275 3185 
Q 3605 2834 3605 2223 
L 3605 0 
L 2636 0 
L 2636 2050 
Q 2639 2370 2473 2551 
Q 2307 2732 2016 2732 
Q 1723 2732 1540 2544 
Q 1357 2357 1355 2018 
z
" transform="scale(0.015625)"/>
      <path id="Inter-Bold-34" d="M 307 818 
L 307 1593 
L 2250 4655 
L 3482 4655 
L 3482 1607 
L 4059 1607 
L 4059 818 
L 3482 818 
L 3482 0 
L 2541 0 
L 2541 818 
L 307 818 
z
M 2559 1607 
L 2559 3582 
L 2523 3582 
L 1298 1643 
L 1298 1607 
L 2559 1607 
z
" transform="scale(0.015625)"/>
      <path id="Inter-Bold-6b" d="M 386 0 
L 386 4655 
L 1355 4655 
L 1355 2166 
L 1407 2166 
L 2525 3491 
L 3636 3491 
L 2341 1980 
L 3702 0 
L 2568 0 
L 1616 1407 
L 1355 1109 
L 1355 0 
L 386 0 
z
" transform="scale(0.015625)"/>
      <path id="Inter-Bold-6f" d="M 1964 -68 
Q 1434 -68 1049 158 
Q 664 384 455 789 
Q 246 1195 246 1732 
Q 246 2273 455 2678 
Q 664 3084 1049 3310 
Q 1434 3536 1964 3536 
Q 2493 3536 2878 3310 
Q 3264 3084 3473 2678 
Q 3682 2273 3682 1732 
Q 3682 1195 3473 789 
Q 3264 384 2878 158 
Q 2493 -68 1964 -68 
z
M 1968 682 
Q 2327 682 2512 982 
Q 2698 1282 2698 1739 
Q 2698 2195 2512 2496 
Q 2327 2798 1968 2798 
Q 1602 2798 1416 2496 
Q 1230 2195 1230 1739 
Q 1230 1282 1416 982 
Q 1602 682 1968 682 
z
" transform="scale(0.015625)"/>
      <path id="Inter-Bold-66" d="M 2296 3491 
L 2296 2764 
L 1602 2764 
L 1602 0 
L 634 0 
L 634 2764 
L 141 2764 
L 141 3491 
L 634 3491 
L 634 3743 
Q 634 4314 960 4593 
Q 1286 4873 1780 4873 
Q 2002 4873 2187 4839 
Q 2373 4805 2464 4777 
L 2293 4050 
Q 2236 4068 2152 4084 
Q 2068 4100 1982 4100 
Q 1768 4100 1685 4001 
Q 1602 3902 1602 3725 
L 1602 3491 
L 2296 3491 
z
" transform="scale(0.015625)"/>
      <path id="Inter-Bold-70" d="M 386 -1309 
L 386 3491 
L 1341 3491 
L 1341 2905 
L 1384 2905 
Q 1450 3048 1570 3193 
Q 1691 3339 1888 3437 
Q 2086 3536 2377 3536 
Q 2761 3536 3081 3337 
Q 3402 3139 3596 2740 
Q 3791 2341 3791 1741 
Q 3791 1157 3602 756 
Q 3414 355 3093 149 
Q 2773 -57 2375 -57 
Q 2093 -57 1896 36 
Q 1700 130 1576 272 
Q 1452 414 1384 559 
L 1355 559 
L 1355 -1309 
L 386 -1309 
z
M 1334 1745 
Q 1334 1280 1526 997 
Q 1718 714 2068 714 
Q 2425 714 2613 1001 
Q 2802 1289 2802 1745 
Q 2802 2200 2614 2483 
Q 2427 2766 2068 2766 
Q 1716 2766 1525 2490 
Q 1334 2214 1334 1745 
z
" transform="scale(0.015625)"/>
      <path id="Inter-Bold-4f" d="M 4682 2327 
Q 4682 1566 4394 1032 
Q 4107 498 3614 217 
Q 3121 -64 2502 -64 
Q 1882 -64 1389 218 
Q 896 500 609 1035 
Q 323 1570 323 2327 
Q 323 3089 609 3623 
Q 896 4157 1389 4437 
Q 1882 4718 2502 4718 
Q 3121 4718 3614 4437 
Q 4107 4157 4394 3623 
Q 4682 3089 4682 2327 
z
M 3684 2327 
Q 3684 3068 3361 3458 
Q 3039 3848 2502 3848 
Q 1966 3848 1643 3458 
Q 1321 3068 1321 2327 
Q 1321 1589 1643 1198 
Q 1966 807 2502 807 
Q 3039 807 3361 1198 
Q 3684 1589 3684 2327 
z
" transform="scale(0.015625)"/>
      <path id="Inter-Bold-56" d="M 1246 4655 
L 2371 1118 
L 2414 1118 
L 3541 4655 
L 4632 4655 
L 3027 0 
L 1759 0 
L 152 4655 
L 1246 4655 
z
" transform="scale(0.015625)"/>
      <path id="Inter-Bold-49" d="M 1389 4655 
L 1389 0 
L 405 0 
L 405 4655 
L 1389 4655 
z
" transform="scale(0.015625)"/>
      <path id="Inter-Bold-44" d="M 2055 0 
L 405 0 
L 405 4655 
L 2068 4655 
Q 2771 4655 3278 4376 
Q 3786 4098 4059 3577 
Q 4332 3057 4332 2332 
Q 4332 1605 4058 1082 
Q 3784 559 3274 279 
Q 2764 0 2055 0 
z
M 1389 843 
L 2014 843 
Q 2671 843 3010 1197 
Q 3350 1552 3350 2332 
Q 3350 3107 3010 3459 
Q 2671 3811 2016 3811 
L 1389 3811 
L 1389 843 
z
" transform="scale(0.015625)"/>
      <path id="Inter-Bold-2d" d="M 2561 2295 
L 2561 1527 
L 439 1527 
L 439 2295 
L 2561 2295 
z
" transform="scale(0.015625)"/>
      <path id="Inter-Bold-31" d="M 2305 4655 
L 2305 0 
L 1323 0 
L 1323 3450 
L 1280 3450 
Q 1205 3334 961 3219 
Q 718 3105 332 3105 
L 332 3886 
Q 632 3886 857 4019 
Q 1082 4152 1209 4333 
Q 1336 4514 1341 4655 
L 2305 4655 
z
" transform="scale(0.015625)"/>
      <path id="Inter-Bold-39" d="M 2061 4732 
Q 2421 4732 2753 4612 
Q 3086 4493 3348 4227 
Q 3611 3961 3766 3523 
Q 3921 3086 3921 2448 
Q 3921 1659 3686 1096 
Q 3452 534 3028 235 
Q 2605 -64 2027 -64 
Q 1561 -64 1204 117 
Q 848 298 631 610 
Q 414 923 368 1314 
L 1339 1314 
Q 1396 1059 1577 919 
Q 1759 780 2027 780 
Q 2482 780 2718 1176 
Q 2955 1573 2957 2264 
L 2925 2264 
Q 2771 1957 2453 1782 
Q 2136 1607 1752 1607 
Q 1341 1607 1016 1801 
Q 691 1995 506 2334 
Q 321 2673 323 3109 
Q 321 3582 539 3949 
Q 757 4316 1149 4525 
Q 1541 4734 2061 4732 
z
M 2068 3959 
Q 1725 3959 1500 3722 
Q 1275 3486 1277 3136 
Q 1275 2791 1496 2555 
Q 1718 2320 2059 2320 
Q 2284 2320 2465 2431 
Q 2646 2543 2751 2729 
Q 2857 2916 2859 3141 
Q 2857 3366 2753 3551 
Q 2650 3736 2473 3847 
Q 2296 3959 2068 3959 
z
" transform="scale(0.015625)"/>
      <path id="Inter-Bold-62" d="M 405 0 
L 405 4655 
L 1373 4655 
L 1373 2905 
L 1402 2905 
Q 1468 3048 1588 3193 
Q 1709 3339 1907 3437 
Q 2105 3536 2396 3536 
Q 2780 3536 3100 3337 
Q 3421 3139 3615 2740 
Q 3809 2341 3809 1741 
Q 3809 1157 3620 756 
Q 3432 355 3111 149 
Q 2791 -57 2393 -57 
Q 2111 -57 1914 36 
Q 1718 130 1594 272 
Q 1471 414 1402 559 
L 1359 559 
L 1359 0 
L 405 0 
z
M 1352 1745 
Q 1352 1280 1544 997 
Q 1736 714 2086 714 
Q 2443 714 2632 1001 
Q 2821 1289 2821 1745 
Q 2821 2200 2633 2483 
Q 2446 2766 2086 2766 
Q 1734 2766 1543 2490 
Q 1352 2214 1352 1745 
z
" transform="scale(0.015625)"/>
      <path id="Inter-Bold-79" d="M 950 -1359 
Q 743 -1359 596 -1324 
Q 450 -1289 368 -1252 
L 586 -502 
Q 843 -580 1019 -543 
Q 1196 -507 1298 -268 
L 1361 -100 
L 109 3491 
L 1127 3491 
L 1850 927 
L 1886 927 
L 2616 3491 
L 3641 3491 
L 2277 -400 
Q 2130 -818 1806 -1088 
Q 1482 -1359 950 -1359 
z
" transform="scale(0.015625)"/>
      <path id="Inter-Bold-72" d="M 386 0 
L 386 3491 
L 1325 3491 
L 1325 2882 
L 1361 2882 
Q 1457 3207 1681 3374 
Q 1905 3541 2200 3541 
Q 2341 3541 2461 3507 
Q 2582 3473 2677 3414 
L 2386 2614 
Q 2318 2648 2237 2671 
Q 2157 2695 2057 2695 
Q 1764 2695 1560 2495 
Q 1357 2295 1355 1975 
L 1355 0 
L 386 0 
z
" transform="scale(0.015625)"/>
      <path id="Inter-Bold-2c" d="M 1439 636 
L 1414 386 
Q 1384 86 1301 -212 
Q 1218 -511 1128 -754 
Q 1039 -998 984 -1136 
L 357 -1136 
Q 391 -1002 450 -763 
Q 509 -525 561 -226 
Q 614 73 627 382 
L 639 636 
L 1439 636 
z
" transform="scale(0.015625)"/>
      <path id="Inter-Bold-63" d="M 1964 -68 
Q 1427 -68 1042 160 
Q 657 389 451 795 
Q 246 1202 246 1732 
Q 246 2268 453 2674 
Q 661 3080 1045 3308 
Q 1430 3536 1959 3536 
Q 2416 3536 2760 3370 
Q 3105 3205 3303 2905 
Q 3502 2605 3523 2200 
L 2609 2200 
Q 2571 2461 2406 2621 
Q 2241 2782 1975 2782 
Q 1639 2782 1434 2511 
Q 1230 2241 1230 1745 
Q 1230 1245 1433 971 
Q 1636 698 1975 698 
Q 2225 698 2395 849 
Q 2566 1000 2609 1280 
L 3523 1280 
Q 3500 880 3305 575 
Q 3111 270 2770 101 
Q 2430 -68 1964 -68 
z
" transform="scale(0.015625)"/>
     </defs>
     <use xlink:href="#Inter-Bold-43"/>
     <use xlink:href="#Inter-Bold-75" x="75.213089"/>
     <use xlink:href="#Inter-Bold-6d" x="137.393494"/>
     <use xlink:href="#Inter-Bold-75" x="228.5867"/>
     <use xlink:href="#Inter-Bold-6c" x="290.767105"/>
     <use xlink:href="#Inter-Bold-61" x="317.968811"/>
     <use xlink:href="#Inter-Bold-74" x="375.994385"/>
     <use xlink:href="#Inter-Bold-69" x="414.843826"/>
     <use xlink:href="#Inter-Bold-76" x="442.045532"/>
     <use xlink:href="#Inter-Bold-65" x="500.639297"/>
     <use xlink:href="#Inter-Bold-20" x="560.404938"/>
     <use xlink:href="#Inter-Bold-64" x="583.593857"/>
     <use xlink:href="#Inter-Bold-65" x="647.123703"/>
     <use xlink:href="#Inter-Bold-61" x="706.889343"/>
     <use xlink:href="#Inter-Bold-74" x="764.914917"/>
     <use xlink:href="#Inter-Bold-68" x="803.764359"/>
     <use xlink:href="#Inter-Bold-73" x="866.193344"/>
     <use xlink:href="#Inter-Bold-20" x="922.37233"/>
     <use xlink:href="#Inter-Bold-77" x="945.561249"/>
     <use xlink:href="#Inter-Bold-69" x="1030.57547"/>
     <use xlink:href="#Inter-Bold-74" x="1057.777176"/>
     <use xlink:href="#Inter-Bold-68" x="1096.626617"/>
     <use xlink:href="#Inter-Bold-69" x="1159.055603"/>
     <use xlink:href="#Inter-Bold-6e" x="1186.257309"/>
     <use xlink:href="#Inter-Bold-20" x="1248.437714"/>
     <use xlink:href="#Inter-Bold-34" x="1271.626633"/>
     <use xlink:href="#Inter-Bold-20" x="1339.417847"/>
     <use xlink:href="#Inter-Bold-77" x="1362.606766"/>
     <use xlink:href="#Inter-Bold-65" x="1447.620987"/>
     <use xlink:href="#Inter-Bold-65" x="1507.386627"/>
     <use xlink:href="#Inter-Bold-6b" x="1567.152267"/>
     <use xlink:href="#Inter-Bold-73" x="1625.319885"/>
     <use xlink:href="#Inter-Bold-20" x="1681.498871"/>
     <use xlink:href="#Inter-Bold-6f" x="1704.68779"/>
     <use xlink:href="#Inter-Bold-66" x="1766.051437"/>
     <use xlink:href="#Inter-Bold-20" x="1805.113937"/>
     <use xlink:href="#Inter-Bold-61" x="1828.302856"/>
     <use xlink:href="#Inter-Bold-20" x="1886.32843"/>
     <use xlink:href="#Inter-Bold-70" x="1909.517349"/>
     <use xlink:href="#Inter-Bold-6f" x="1972.763107"/>
     <use xlink:href="#Inter-Bold-73" x="2034.126755"/>
     <use xlink:href="#Inter-Bold-69" x="2090.30574"/>
     <use xlink:href="#Inter-Bold-74" x="2117.507446"/>
     <use xlink:href="#Inter-Bold-69" x="2156.356888"/>
     <use xlink:href="#Inter-Bold-76" x="2183.558594"/>
     <use xlink:href="#Inter-Bold-65" x="2242.152359"/>
     <use xlink:href="#Inter-Bold-20" x="2301.917999"/>
     <use xlink:href="#Inter-Bold-43" x="2325.106918"/>
     <use xlink:href="#Inter-Bold-4f" x="2400.320007"/>
     <use xlink:href="#Inter-Bold-56" x="2478.516052"/>
     <use xlink:href="#Inter-Bold-49" x="2553.302994"/>
     <use xlink:href="#Inter-Bold-44" x="2581.356979"/>
     <use xlink:href="#Inter-Bold-2d" x="2654.084274"/>
     <use xlink:href="#Inter-Bold-31" x="2700.95929"/>
     <use xlink:href="#Inter-Bold-39" x="2748.366974"/>
     <use xlink:href="#Inter-Bold-20" x="2814.382614"/>
     <use xlink:href="#Inter-Bold-74" x="2837.571533"/>
     <use xlink:href="#Inter-Bold-65" x="2876.420975"/>
     <use xlink:href="#Inter-Bold-73" x="2936.186615"/>
     <use xlink:href="#Inter-Bold-74" x="2992.365601"/>
     <use xlink:href="#Inter-Bold-20" x="3031.215042"/>
     <use xlink:href="#Inter-Bold-62" x="3054.403961"/>
     <use xlink:href="#Inter-Bold-79" x="3117.933807"/>
     <use xlink:href="#Inter-Bold-20" x="3176.527573"/>
     <use xlink:href="#Inter-Bold-64" x="3199.716492"/>
     <use xlink:href="#Inter-Bold-61" x="3263.246338"/>
     <use xlink:href="#Inter-Bold-74" x="3321.271912"/>
     <use xlink:href="#Inter-Bold-65" x="3360.121353"/>
     <use xlink:href="#Inter-Bold-20" x="3419.886993"/>
     <use xlink:href="#Inter-Bold-72" x="3443.075912"/>
     <use xlink:href="#Inter-Bold-65" x="3485.938141"/>
     <use xlink:href="#Inter-Bold-70" x="3545.703781"/>
     <use xlink:href="#Inter-Bold-6f" x="3608.949539"/>
     <use xlink:href="#Inter-Bold-72" x="3670.313187"/>
     <use xlink:href="#Inter-Bold-74" x="3713.175415"/>
     <use xlink:href="#Inter-Bold-65" x="3752.024857"/>
     <use xlink:href="#Inter-Bold-64" x="3811.790497"/>
     <use xlink:href="#Inter-Bold-2c" x="3875.320343"/>
     <use xlink:href="#Inter-Bold-20" x="3905.611542"/>
     <use xlink:href="#Inter-Bold-70" x="3928.800461"/>
     <use xlink:href="#Inter-Bold-65" x="3992.046219"/>
     <use xlink:href="#Inter-Bold-72" x="4051.811859"/>
     <use xlink:href="#Inter-Bold-20" x="4094.674088"/>
     <use xlink:href="#Inter-Bold-63" x="4117.863007"/>
     <use xlink:href="#Inter-Bold-61" x="4176.598816"/>
     <use xlink:href="#Inter-Bold-70" x="4234.62439"/>
     <use xlink:href="#Inter-Bold-69" x="4297.870148"/>
     <use xlink:href="#Inter-Bold-74" x="4325.071854"/>
     <use xlink:href="#Inter-Bold-61" x="4363.921295"/>
    </g>
   </g>
   <g id="legend_1">
    <g id="patch_4">
     <path d="M 75.3625 98.614062 
L 184.935938 98.614062 
Q 186.935938 98.614062 186.935938 96.614062 
L 186.935938 40.225 
Q 186.935938 38.225 184.935938 38.225 
L 75.3625 38.225 
Q 73.3625 38.225 73.3625 40.225 
L 73.3625 96.614062 
Q 73.3625 98.614062 75.3625 98.614062 
z
" style="fill: #ffffff; opacity: 0.8; stroke: #cccccc; stroke-linejoin: miter"/>
    </g>
    <g id="line2d_38">
     <path d="M 77.3625 45.998437 
L 87.3625 45.998437 
L 97.3625 45.998437 
" style="fill: none; stroke: #d4351c; stroke-width: 2; stroke-linecap: square"/>
    </g>
    <g id="text_20">
     <!-- Wales -->
     <g transform="translate(105.3625 49.498437)scale(0.1 -0.1)">
      <defs>
       <path id="Inter-Regular-57" d="M 1409 0 
L 136 4655 
L 709 4655 
L 1682 864 
L 1727 864 
L 2718 4655 
L 3355 4655 
L 4346 864 
L 4391 864 
L 5364 4655 
L 5936 4655 
L 4664 0 
L 4082 0 
L 3055 3709 
L 3018 3709 
L 1991 0 
L 1409 0 
z
" transform="scale(0.015625)"/>
      </defs>
      <use xlink:href="#Inter-Regular-57"/>
      <use xlink:href="#Inter-Regular-61" x="94.886383"/>
      <use xlink:href="#Inter-Regular-6c" x="151.278442"/>
      <use xlink:href="#Inter-Regular-65" x="175.000031"/>
      <use xlink:href="#Inter-Regular-73" x="233.238678"/>
     </g>
    </g>
    <g id="line2d_39">
     <path d="M 77.3625 60.317187 
L 87.3625 60.317187 
L 97.3625 60.317187 
" style="fill: none; stroke: #003078; stroke-width: 2; stroke-linecap: square"/>
    </g>
    <g id="text_21">
     <!-- Scotland -->
     <g transform="translate(105.3625 63.817187)scale(0.1 -0.1)">
      <use xlink:href="#Inter-Regular-53"/>
      <use xlink:href="#Inter-Regular-63" x="63.778427"/>
      <use xlink:href="#Inter-Regular-6f" x="119.602295"/>
      <use xlink:href="#Inter-Regular-74" x="179.261398"/>
      <use xlink:href="#Inter-Regular-6c" x="215.625046"/>
      <use xlink:href="#Inter-Regular-61" x="239.346634"/>
      <use xlink:href="#Inter-Regular-6e" x="295.738693"/>
      <use xlink:href="#Inter-Regular-64" x="354.261429"/>
     </g>
    </g>
    <g id="line2d_40">
     <path d="M 77.3625 74.635937 
L 87.3625 74.635937 
L 97.3625 74.635937 
" style="fill: none; stroke: #ffdd00; stroke-width: 2; stroke-linecap: square"/>
    </g>
    <g id="text_22">
     <!-- Northern Ireland -->
     <g transform="translate(105.3625 78.135937)scale(0.1 -0.1)">
      <defs>
       <path id="Inter-Regular-49" d="M 1127 4655 
L 1127 0 
L 564 0 
L 564 4655 
L 1127 4655 
z
" transform="scale(0.015625)"/>
      </defs>
      <use xlink:href="#Inter-Regular-4e"/>
      <use xlink:href="#Inter-Regular-6f" x="75.284103"/>
      <use xlink:href="#Inter-Regular-72" x="134.943207"/>
      <use xlink:href="#Inter-Regular-74" x="173.295486"/>
      <use xlink:href="#Inter-Regular-68" x="209.659134"/>
      <use xlink:href="#Inter-Regular-65" x="268.750061"/>
      <use xlink:href="#Inter-Regular-72" x="326.988708"/>
      <use xlink:href="#Inter-Regular-6e" x="365.340988"/>
      <use xlink:href="#Inter-Regular-20" x="423.863724"/>
      <use xlink:href="#Inter-Regular-49" x="451.988724"/>
      <use xlink:href="#Inter-Regular-72" x="478.40918"/>
      <use xlink:href="#Inter-Regular-65" x="516.761459"/>
      <use xlink:href="#Inter-Regular-6c" x="575.000107"/>
      <use xlink:href="#Inter-Regular-61" x="598.721695"/>
      <use xlink:href="#Inter-Regular-6e" x="655.113754"/>
      <use xlink:href="#Inter-Regular-64" x="713.63649"/>
     </g>
    </g>
    <g id="line2d_41">
     <path d="M 77.3625 88.954687 
L 87.3625 88.954687 
L 97.3625 88.954687 
" style="fill: none; stroke: #5694ca; stroke-width: 2; stroke-linecap: square"/>
    </g>
    <g id="text_23">
     <!-- England -->
     <g transform="translate(105.3625 92.454687)scale(0.1 -0.1)">
      <defs>
       <path id="Inter-Regular-45" d="M 564 0 
L 564 4655 
L 3373 4655 
L 3373 4155 
L 1127 4155 
L 1127 2582 
L 3227 2582 
L 3227 2082 
L 1127 2082 
L 1127 500 
L 3409 500 
L 3409 0 
L 564 0 
z
" transform="scale(0.015625)"/>
       <path id="Inter-Regular-67" d="M 1900 -1382 
Q 1316 -1382 976 -1169 
Q 636 -957 473 -682 
L 900 -382 
Q 973 -477 1084 -601 
Q 1196 -725 1390 -817 
Q 1584 -909 1900 -909 
Q 2323 -909 2598 -704 
Q 2873 -500 2873 -64 
L 2873 645 
L 2827 645 
Q 2768 550 2660 410 
Q 2552 270 2351 162 
Q 2150 55 1809 55 
Q 1386 55 1051 255 
Q 716 455 521 836 
Q 327 1218 327 1764 
Q 327 2300 516 2699 
Q 705 3098 1041 3317 
Q 1377 3536 1818 3536 
Q 2159 3536 2360 3423 
Q 2561 3311 2669 3169 
Q 2777 3027 2836 2936 
L 2891 2936 
L 2891 3491 
L 3409 3491 
L 3409 -100 
Q 3409 -550 3205 -833 
Q 3002 -1116 2660 -1249 
Q 2318 -1382 1900 -1382 
z
M 1882 536 
Q 2366 536 2624 864 
Q 2882 1193 2882 1773 
Q 2882 2339 2627 2697 
Q 2373 3055 1882 3055 
Q 1541 3055 1315 2882 
Q 1089 2709 976 2418 
Q 864 2127 864 1773 
Q 864 1227 1120 881 
Q 1377 536 1882 536 
z
" transform="scale(0.015625)"/>
      </defs>
      <use xlink:href="#Inter-Regular-45"/>
      <use xlink:href="#Inter-Regular-6e" x="59.801147"/>
      <use xlink:href="#Inter-Regular-67" x="118.323883"/>
      <use xlink:href="#Inter-Regular-6c" x="179.261398"/>
      <use xlink:href="#Inter-Regular-61" x="202.982986"/>
      <use xlink:href="#Inter-Regular-6e" x="259.375046"/>
      <use xlink:href="#Inter-Regular-64" x="317.897781"/>
     </g>
    </g>
   </g>
  </g>
 </g>
 <defs>
  <clipPath id="p9e1d1713b3">
   <rect x="68.3625" y="33.225" width="669.6" height="443.52"/>
  </clipPath>
 </defs>
</svg>
