<?xml version="1.0" encoding="utf-8" standalone="no"?>
<!DOCTYPE svg PUBLIC "-//W3C//DTD SVG 1.1//EN"
  "http://www.w3.org/Graphics/SVG/1.1/DTD/svg11.dtd">
<svg version="1.1" viewBox="0 0 776.425031 511.27625" xmlns="http://www.w3.org/2000/svg" xmlns:xlink="http://www.w3.org/1999/xlink">
 <metadata>
  <rdf:RDF xmlns:cc="http://creativecommons.org/ns#" xmlns:dc="http://purl.org/dc/elements/1.1/" xmlns:rdf="http://www.w3.org/1999/02/22-rdf-syntax-ns#">
   <cc:Work>
    <dc:type rdf:resource="http://purl.org/dc/dcmitype/StillImage"/>
    <dc:date>2021-06-01T17:36:07.667228</dc:date>
    <dc:format>image/svg+xml</dc:format>
    <dc:creator>
     <cc:Agent>
      <dc:title>Matplotlib v3.4.2, https://matplotlib.org/</dc:title>
     </cc:Agent>
    </dc:creator>
   </cc:Work>
  </rdf:RDF>
 </metadata>
 <defs>
  <style type="text/css">*{stroke-linecap:butt;stroke-linejoin:round;}</style>
 </defs>
 <g id="figure_1">
  <g id="patch_1">
   <path d="M 0 511.27625 
L 776.425031 511.27625 
L 776.425031 0 
L 0 0 
z
" style="fill:#ffffff;"/>
  </g>
  <g id="axes_1">
   <g id="patch_2">
    <path d="M 74.6125 476.745 
L 744.2125 476.745 
L 744.2125 33.225 
L 74.6125 33.225 
z
" style="fill:#ffffff;"/>
   </g>
   <g id="matplotlib.axis_1">
    <g id="xtick_1">
     <g id="line2d_1">
      <defs>
       <path d="M 0 0 
L 0 3.5 
" id="m161b7e1644" style="stroke:#000000;stroke-width:0.8;"/>
      </defs>
      <g>
       <use style="stroke:#000000;stroke-width:0.8;" x="74.6125" xlink:href="#m161b7e1644" y="476.745"/>
      </g>
     </g>
     <g id="text_1">
      <!-- 01 Mar -->
      <g transform="translate(58.575781 491.018438)scale(0.1 -0.1)">
       <defs>
        <path d="M 2000 -64 
Q 1230 -64 806 561 
Q 382 1186 382 2327 
Q 382 3459 809 4088 
Q 1236 4718 2000 4718 
Q 2764 4718 3191 4088 
Q 3618 3459 3618 2327 
Q 3618 1186 3194 561 
Q 2771 -64 2000 -64 
z
M 2000 436 
Q 2509 436 2791 927 
Q 3073 1418 3073 2327 
Q 3073 3234 2789 3730 
Q 2505 4227 2000 4227 
Q 1496 4227 1211 3730 
Q 927 3234 927 2327 
Q 927 1418 1210 927 
Q 1493 436 2000 436 
z
" id="Inter-Regular-30" transform="scale(0.015625)"/>
        <path d="M 1973 4655 
L 1973 0 
L 1409 0 
L 1409 3836 
L 1373 3836 
Q 1341 3773 1209 3692 
Q 1077 3611 868 3551 
Q 659 3491 391 3491 
L 391 3964 
Q 661 3964 859 4061 
Q 1057 4159 1190 4291 
Q 1323 4423 1392 4529 
Q 1461 4636 1473 4655 
L 1973 4655 
z
" id="Inter-Regular-31" transform="scale(0.015625)"/>
        <path id="Inter-Regular-20" transform="scale(0.015625)"/>
        <path d="M 564 4655 
L 1236 4655 
L 2818 791 
L 2873 791 
L 4455 4655 
L 5127 4655 
L 5127 0 
L 4600 0 
L 4600 3536 
L 4555 3536 
L 3100 0 
L 2591 0 
L 1136 3536 
L 1091 3536 
L 1091 0 
L 564 0 
L 564 4655 
z
" id="Inter-Regular-4d" transform="scale(0.015625)"/>
        <path d="M 1518 -82 
Q 1186 -82 916 44 
Q 646 170 486 410 
Q 327 650 327 991 
Q 327 1291 445 1478 
Q 564 1666 761 1773 
Q 959 1880 1199 1933 
Q 1439 1986 1682 2018 
Q 2000 2059 2199 2080 
Q 2398 2102 2490 2154 
Q 2582 2207 2582 2336 
L 2582 2355 
Q 2582 2691 2399 2877 
Q 2216 3064 1846 3064 
Q 1461 3064 1243 2895 
Q 1025 2727 936 2536 
L 427 2718 
Q 564 3036 792 3214 
Q 1021 3393 1292 3464 
Q 1564 3536 1827 3536 
Q 1996 3536 2215 3496 
Q 2434 3457 2640 3334 
Q 2846 3211 2982 2963 
Q 3118 2716 3118 2300 
L 3118 0 
L 2582 0 
L 2582 473 
L 2555 473 
Q 2500 359 2373 229 
Q 2246 100 2034 9 
Q 1823 -82 1518 -82 
z
M 1600 400 
Q 1918 400 2137 525 
Q 2357 650 2469 847 
Q 2582 1045 2582 1264 
L 2582 1755 
Q 2548 1714 2433 1681 
Q 2318 1648 2169 1624 
Q 2021 1600 1881 1583 
Q 1741 1566 1655 1555 
Q 1446 1527 1265 1467 
Q 1084 1407 974 1287 
Q 864 1168 864 964 
Q 864 684 1072 542 
Q 1280 400 1600 400 
z
" id="Inter-Regular-61" transform="scale(0.015625)"/>
        <path d="M 491 0 
L 491 3491 
L 1009 3491 
L 1009 2964 
L 1046 2964 
Q 1139 3223 1389 3384 
Q 1639 3545 1955 3545 
Q 2100 3545 2209 3511 
Q 2318 3477 2400 3418 
L 2218 2964 
Q 2161 2993 2085 3010 
Q 2009 3027 1909 3027 
Q 1527 3027 1277 2794 
Q 1027 2561 1027 2209 
L 1027 0 
L 491 0 
z
" id="Inter-Regular-72" transform="scale(0.015625)"/>
       </defs>
       <use xlink:href="#Inter-Regular-30"/>
       <use x="62.500015" xlink:href="#Inter-Regular-31"/>
       <use x="106.676163" xlink:href="#Inter-Regular-20"/>
       <use x="134.801163" xlink:href="#Inter-Regular-4d"/>
       <use x="225.99437" xlink:href="#Inter-Regular-61"/>
       <use x="282.386429" xlink:href="#Inter-Regular-72"/>
      </g>
     </g>
    </g>
    <g id="xtick_2">
     <g id="line2d_2">
      <g>
       <use style="stroke:#000000;stroke-width:0.8;" x="119.961237" xlink:href="#m161b7e1644" y="476.745"/>
      </g>
     </g>
     <g id="text_2">
      <!-- 01 Apr -->
      <g transform="translate(104.876081 491.116875)scale(0.1 -0.1)">
       <defs>
        <path d="M 755 0 
L 164 0 
L 1873 4655 
L 2455 4655 
L 4164 0 
L 3573 0 
L 3105 1318 
L 1223 1318 
L 755 0 
z
M 1400 1818 
L 2927 1818 
L 2182 3918 
L 2146 3918 
L 1400 1818 
z
" id="Inter-Regular-41" transform="scale(0.015625)"/>
        <path d="M 491 -1309 
L 491 3491 
L 1009 3491 
L 1009 2936 
L 1073 2936 
Q 1132 3027 1237 3169 
Q 1343 3311 1542 3423 
Q 1741 3536 2082 3536 
Q 2523 3536 2859 3315 
Q 3196 3095 3384 2690 
Q 3573 2286 3573 1736 
Q 3573 1182 3384 776 
Q 3196 370 2861 148 
Q 2527 -73 2091 -73 
Q 1755 -73 1552 39 
Q 1350 152 1241 296 
Q 1132 441 1073 536 
L 1027 536 
L 1027 -1309 
L 491 -1309 
z
M 1018 1745 
Q 1018 1152 1276 780 
Q 1534 409 2018 409 
Q 2355 409 2581 587 
Q 2807 766 2921 1069 
Q 3036 1373 3036 1745 
Q 3036 2114 2923 2410 
Q 2811 2707 2585 2881 
Q 2359 3055 2018 3055 
Q 1527 3055 1272 2693 
Q 1018 2332 1018 1745 
z
" id="Inter-Regular-70" transform="scale(0.015625)"/>
       </defs>
       <use xlink:href="#Inter-Regular-30"/>
       <use x="62.500015" xlink:href="#Inter-Regular-31"/>
       <use x="106.676163" xlink:href="#Inter-Regular-20"/>
       <use x="134.801163" xlink:href="#Inter-Regular-41"/>
       <use x="202.41481" xlink:href="#Inter-Regular-70"/>
       <use x="263.352325" xlink:href="#Inter-Regular-72"/>
      </g>
     </g>
    </g>
    <g id="xtick_3">
     <g id="line2d_3">
      <g>
       <use style="stroke:#000000;stroke-width:0.8;" x="163.847112" xlink:href="#m161b7e1644" y="476.745"/>
      </g>
     </g>
     <g id="text_3">
      <!-- 01 May -->
      <g transform="translate(146.943987 491.116875)scale(0.1 -0.1)">
       <defs>
        <path d="M 818 -1355 
Q 682 -1355 575 -1333 
Q 468 -1311 427 -1291 
L 564 -818 
Q 857 -893 1053 -814 
Q 1250 -736 1391 -345 
L 1509 -18 
L 218 3491 
L 800 3491 
L 1764 709 
L 1800 709 
L 2764 3491 
L 3346 3491 
L 1846 -564 
Q 1550 -1355 818 -1355 
z
" id="Inter-Regular-79" transform="scale(0.015625)"/>
       </defs>
       <use xlink:href="#Inter-Regular-30"/>
       <use x="62.500015" xlink:href="#Inter-Regular-31"/>
       <use x="106.676163" xlink:href="#Inter-Regular-20"/>
       <use x="134.801163" xlink:href="#Inter-Regular-4d"/>
       <use x="225.99437" xlink:href="#Inter-Regular-61"/>
       <use x="282.386429" xlink:href="#Inter-Regular-79"/>
      </g>
     </g>
    </g>
    <g id="xtick_4">
     <g id="line2d_4">
      <g>
       <use style="stroke:#000000;stroke-width:0.8;" x="209.195849" xlink:href="#m161b7e1644" y="476.745"/>
      </g>
     </g>
     <g id="text_4">
      <!-- 01 Jun -->
      <g transform="translate(193.911474 491.018438)scale(0.1 -0.1)">
       <defs>
        <path d="M 2346 4655 
L 2909 4655 
L 2909 1327 
Q 2909 657 2549 296 
Q 2189 -64 1582 -64 
Q 1200 -64 902 76 
Q 605 216 434 475 
Q 264 734 264 1091 
L 818 1091 
Q 818 795 1034 615 
Q 1250 436 1582 436 
Q 1948 436 2147 664 
Q 2346 893 2346 1327 
L 2346 4655 
z
" id="Inter-Regular-4a" transform="scale(0.015625)"/>
        <path d="M 2691 1427 
L 2691 3491 
L 3227 3491 
L 3227 0 
L 2691 0 
L 2691 591 
L 2655 591 
Q 2532 325 2273 140 
Q 2014 -45 1618 -45 
Q 1127 -45 809 280 
Q 491 605 491 1273 
L 491 3491 
L 1027 3491 
L 1027 1309 
Q 1027 927 1242 700 
Q 1457 473 1791 473 
Q 1991 473 2199 575 
Q 2407 677 2549 888 
Q 2691 1100 2691 1427 
z
" id="Inter-Regular-75" transform="scale(0.015625)"/>
        <path d="M 1027 2100 
L 1027 0 
L 491 0 
L 491 3491 
L 1009 3491 
L 1009 2945 
L 1055 2945 
Q 1177 3211 1427 3373 
Q 1677 3536 2073 3536 
Q 2602 3536 2928 3211 
Q 3255 2886 3255 2218 
L 3255 0 
L 2718 0 
L 2718 2182 
Q 2718 2593 2504 2824 
Q 2291 3055 1918 3055 
Q 1534 3055 1280 2806 
Q 1027 2557 1027 2100 
z
" id="Inter-Regular-6e" transform="scale(0.015625)"/>
       </defs>
       <use xlink:href="#Inter-Regular-30"/>
       <use x="62.500015" xlink:href="#Inter-Regular-31"/>
       <use x="106.676163" xlink:href="#Inter-Regular-20"/>
       <use x="134.801163" xlink:href="#Inter-Regular-4a"/>
       <use x="189.062531" xlink:href="#Inter-Regular-75"/>
       <use x="247.159134" xlink:href="#Inter-Regular-6e"/>
      </g>
     </g>
    </g>
    <g id="xtick_5">
     <g id="line2d_5">
      <g>
       <use style="stroke:#000000;stroke-width:0.8;" x="253.081723" xlink:href="#m161b7e1644" y="476.745"/>
      </g>
     </g>
     <g id="text_5">
      <!-- 01 Jul -->
      <g transform="translate(239.537973 491.018438)scale(0.1 -0.1)">
       <defs>
        <path d="M 1027 4655 
L 1027 0 
L 491 0 
L 491 4655 
L 1027 4655 
z
" id="Inter-Regular-6c" transform="scale(0.015625)"/>
       </defs>
       <use xlink:href="#Inter-Regular-30"/>
       <use x="62.500015" xlink:href="#Inter-Regular-31"/>
       <use x="106.676163" xlink:href="#Inter-Regular-20"/>
       <use x="134.801163" xlink:href="#Inter-Regular-4a"/>
       <use x="189.062531" xlink:href="#Inter-Regular-75"/>
       <use x="247.159134" xlink:href="#Inter-Regular-6c"/>
      </g>
     </g>
    </g>
    <g id="xtick_6">
     <g id="line2d_6">
      <g>
       <use style="stroke:#000000;stroke-width:0.8;" x="298.43046" xlink:href="#m161b7e1644" y="476.745"/>
      </g>
     </g>
     <g id="text_6">
      <!-- 01 Aug -->
      <g transform="translate(282.358585 491.116875)scale(0.1 -0.1)">
       <defs>
        <path d="M 1900 -1382 
Q 1316 -1382 976 -1169 
Q 636 -957 473 -682 
L 900 -382 
Q 973 -477 1084 -601 
Q 1196 -725 1390 -817 
Q 1584 -909 1900 -909 
Q 2323 -909 2598 -704 
Q 2873 -500 2873 -64 
L 2873 645 
L 2827 645 
Q 2768 550 2660 410 
Q 2552 270 2351 162 
Q 2150 55 1809 55 
Q 1386 55 1051 255 
Q 716 455 521 836 
Q 327 1218 327 1764 
Q 327 2300 516 2699 
Q 705 3098 1041 3317 
Q 1377 3536 1818 3536 
Q 2159 3536 2360 3423 
Q 2561 3311 2669 3169 
Q 2777 3027 2836 2936 
L 2891 2936 
L 2891 3491 
L 3409 3491 
L 3409 -100 
Q 3409 -550 3205 -833 
Q 3002 -1116 2660 -1249 
Q 2318 -1382 1900 -1382 
z
M 1882 536 
Q 2366 536 2624 864 
Q 2882 1193 2882 1773 
Q 2882 2339 2627 2697 
Q 2373 3055 1882 3055 
Q 1541 3055 1315 2882 
Q 1089 2709 976 2418 
Q 864 2127 864 1773 
Q 864 1227 1120 881 
Q 1377 536 1882 536 
z
" id="Inter-Regular-67" transform="scale(0.015625)"/>
       </defs>
       <use xlink:href="#Inter-Regular-30"/>
       <use x="62.500015" xlink:href="#Inter-Regular-31"/>
       <use x="106.676163" xlink:href="#Inter-Regular-20"/>
       <use x="134.801163" xlink:href="#Inter-Regular-41"/>
       <use x="202.41481" xlink:href="#Inter-Regular-75"/>
       <use x="260.511414" xlink:href="#Inter-Regular-67"/>
      </g>
     </g>
    </g>
    <g id="xtick_7">
     <g id="line2d_7">
      <g>
       <use style="stroke:#000000;stroke-width:0.8;" x="343.779197" xlink:href="#m161b7e1644" y="476.745"/>
      </g>
     </g>
     <g id="text_7">
      <!-- 01 Sep -->
      <g transform="translate(327.891697 491.116875)scale(0.1 -0.1)">
       <defs>
        <path d="M 3109 3491 
Q 3068 3836 2777 4027 
Q 2486 4218 2064 4218 
Q 1600 4218 1318 3999 
Q 1036 3780 1036 3445 
Q 1036 3195 1189 3042 
Q 1343 2889 1553 2803 
Q 1764 2718 1936 2673 
L 2409 2545 
Q 2591 2498 2815 2414 
Q 3039 2330 3244 2185 
Q 3450 2041 3584 1816 
Q 3718 1591 3718 1264 
Q 3718 886 3521 581 
Q 3325 277 2949 97 
Q 2573 -82 2036 -82 
Q 1286 -82 845 272 
Q 405 627 364 1200 
L 946 1200 
Q 968 936 1124 764 
Q 1280 593 1519 510 
Q 1759 427 2036 427 
Q 2359 427 2616 533 
Q 2873 639 3023 828 
Q 3173 1018 3173 1273 
Q 3173 1505 3043 1650 
Q 2914 1795 2702 1886 
Q 2491 1977 2246 2045 
L 1673 2209 
Q 1127 2366 809 2657 
Q 491 2948 491 3418 
Q 491 3809 703 4101 
Q 916 4393 1276 4555 
Q 1636 4718 2082 4718 
Q 2532 4718 2882 4558 
Q 3232 4398 3437 4120 
Q 3643 3843 3655 3491 
L 3109 3491 
z
" id="Inter-Regular-53" transform="scale(0.015625)"/>
        <path d="M 1955 -73 
Q 1450 -73 1085 151 
Q 721 375 524 778 
Q 327 1182 327 1718 
Q 327 2255 524 2665 
Q 721 3075 1074 3305 
Q 1427 3536 1900 3536 
Q 2173 3536 2439 3445 
Q 2705 3355 2923 3151 
Q 3141 2948 3270 2614 
Q 3400 2280 3400 1791 
L 3400 1564 
L 866 1564 
Q 884 1005 1183 707 
Q 1482 409 1955 409 
Q 2271 409 2498 545 
Q 2725 682 2827 955 
L 3346 809 
Q 3223 414 2854 170 
Q 2486 -73 1955 -73 
z
M 866 2027 
L 2855 2027 
Q 2855 2470 2595 2762 
Q 2336 3055 1900 3055 
Q 1593 3055 1368 2911 
Q 1143 2768 1013 2533 
Q 884 2298 866 2027 
z
" id="Inter-Regular-65" transform="scale(0.015625)"/>
       </defs>
       <use xlink:href="#Inter-Regular-30"/>
       <use x="62.500015" xlink:href="#Inter-Regular-31"/>
       <use x="106.676163" xlink:href="#Inter-Regular-20"/>
       <use x="134.801163" xlink:href="#Inter-Regular-53"/>
       <use x="198.57959" xlink:href="#Inter-Regular-65"/>
       <use x="256.818237" xlink:href="#Inter-Regular-70"/>
      </g>
     </g>
    </g>
    <g id="xtick_8">
     <g id="line2d_8">
      <g>
       <use style="stroke:#000000;stroke-width:0.8;" x="387.665072" xlink:href="#m161b7e1644" y="476.745"/>
      </g>
     </g>
     <g id="text_8">
      <!-- 01 Oct -->
      <g transform="translate(372.508822 491.018438)scale(0.1 -0.1)">
       <defs>
        <path d="M 4491 2327 
Q 4491 1591 4225 1054 
Q 3959 518 3495 227 
Q 3032 -64 2436 -64 
Q 1841 -64 1377 227 
Q 914 518 648 1054 
Q 382 1591 382 2327 
Q 382 3064 648 3600 
Q 914 4136 1377 4427 
Q 1841 4718 2436 4718 
Q 3032 4718 3495 4427 
Q 3959 4136 4225 3600 
Q 4491 3064 4491 2327 
z
M 3946 2327 
Q 3946 2932 3744 3348 
Q 3543 3764 3201 3977 
Q 2859 4191 2436 4191 
Q 2014 4191 1672 3977 
Q 1330 3764 1128 3348 
Q 927 2932 927 2327 
Q 927 1723 1128 1307 
Q 1330 891 1672 677 
Q 2014 464 2436 464 
Q 2859 464 3201 677 
Q 3543 891 3744 1307 
Q 3946 1723 3946 2327 
z
" id="Inter-Regular-4f" transform="scale(0.015625)"/>
        <path d="M 1909 -73 
Q 1418 -73 1063 159 
Q 709 391 518 798 
Q 327 1205 327 1727 
Q 327 2259 524 2667 
Q 721 3075 1074 3305 
Q 1427 3536 1900 3536 
Q 2268 3536 2563 3400 
Q 2859 3264 3047 3018 
Q 3236 2773 3282 2445 
L 2746 2445 
Q 2684 2684 2474 2869 
Q 2264 3055 1909 3055 
Q 1439 3055 1151 2697 
Q 864 2339 864 1745 
Q 864 1139 1148 774 
Q 1432 409 1909 409 
Q 2223 409 2447 570 
Q 2671 732 2746 1018 
L 3282 1018 
Q 3236 709 3058 462 
Q 2880 216 2588 71 
Q 2296 -73 1909 -73 
z
" id="Inter-Regular-63" transform="scale(0.015625)"/>
        <path d="M 2009 3491 
L 2009 3036 
L 1264 3036 
L 1264 1000 
Q 1264 773 1331 660 
Q 1398 548 1503 510 
Q 1609 473 1727 473 
Q 1816 473 1873 483 
Q 1930 493 1964 500 
L 2073 18 
Q 2018 -2 1920 -23 
Q 1823 -45 1673 -45 
Q 1446 -45 1228 52 
Q 1011 150 869 350 
Q 727 550 727 855 
L 727 3036 
L 200 3036 
L 200 3491 
L 727 3491 
L 727 4327 
L 1264 4327 
L 1264 3491 
L 2009 3491 
z
" id="Inter-Regular-74" transform="scale(0.015625)"/>
       </defs>
       <use xlink:href="#Inter-Regular-30"/>
       <use x="62.500015" xlink:href="#Inter-Regular-31"/>
       <use x="106.676163" xlink:href="#Inter-Regular-20"/>
       <use x="134.801163" xlink:href="#Inter-Regular-4f"/>
       <use x="210.937546" xlink:href="#Inter-Regular-63"/>
       <use x="266.761414" xlink:href="#Inter-Regular-74"/>
      </g>
     </g>
    </g>
    <g id="xtick_9">
     <g id="line2d_9">
      <g>
       <use style="stroke:#000000;stroke-width:0.8;" x="433.013809" xlink:href="#m161b7e1644" y="476.745"/>
      </g>
     </g>
     <g id="text_9">
      <!-- 01 Nov -->
      <g transform="translate(416.742715 491.018438)scale(0.1 -0.1)">
       <defs>
        <path d="M 4255 4655 
L 4255 0 
L 3709 0 
L 1173 3655 
L 1127 3655 
L 1127 0 
L 564 0 
L 564 4655 
L 1109 4655 
L 3655 991 
L 3700 991 
L 3700 4655 
L 4255 4655 
z
" id="Inter-Regular-4e" transform="scale(0.015625)"/>
        <path d="M 1909 -73 
Q 1436 -73 1080 152 
Q 725 377 526 781 
Q 327 1186 327 1727 
Q 327 2273 526 2679 
Q 725 3086 1080 3311 
Q 1436 3536 1909 3536 
Q 2382 3536 2737 3311 
Q 3093 3086 3292 2679 
Q 3491 2273 3491 1727 
Q 3491 1186 3292 781 
Q 3093 377 2737 152 
Q 2382 -73 1909 -73 
z
M 1909 409 
Q 2268 409 2500 593 
Q 2732 777 2843 1077 
Q 2955 1377 2955 1727 
Q 2955 2077 2843 2379 
Q 2732 2682 2500 2868 
Q 2268 3055 1909 3055 
Q 1550 3055 1318 2868 
Q 1086 2682 975 2379 
Q 864 2077 864 1727 
Q 864 1377 975 1077 
Q 1086 777 1318 593 
Q 1550 409 1909 409 
z
" id="Inter-Regular-6f" transform="scale(0.015625)"/>
        <path d="M 3346 3491 
L 2055 0 
L 1509 0 
L 218 3491 
L 800 3491 
L 1764 709 
L 1800 709 
L 2764 3491 
L 3346 3491 
z
" id="Inter-Regular-76" transform="scale(0.015625)"/>
       </defs>
       <use xlink:href="#Inter-Regular-30"/>
       <use x="62.500015" xlink:href="#Inter-Regular-31"/>
       <use x="106.676163" xlink:href="#Inter-Regular-20"/>
       <use x="134.801163" xlink:href="#Inter-Regular-4e"/>
       <use x="210.085266" xlink:href="#Inter-Regular-6f"/>
       <use x="269.74437" xlink:href="#Inter-Regular-76"/>
      </g>
     </g>
    </g>
    <g id="xtick_10">
     <g id="line2d_10">
      <g>
       <use style="stroke:#000000;stroke-width:0.8;" x="476.899683" xlink:href="#m161b7e1644" y="476.745"/>
      </g>
     </g>
     <g id="text_10">
      <!-- 01 Dec -->
      <g transform="translate(460.862965 491.018438)scale(0.1 -0.1)">
       <defs>
        <path d="M 2000 0 
L 564 0 
L 564 4655 
L 2064 4655 
Q 2741 4655 3223 4376 
Q 3705 4098 3961 3578 
Q 4218 3059 4218 2336 
Q 4218 1609 3959 1085 
Q 3700 561 3204 280 
Q 2709 0 2000 0 
z
M 1127 500 
L 1964 500 
Q 2830 500 3251 992 
Q 3673 1484 3673 2336 
Q 3673 3182 3259 3668 
Q 2846 4155 2027 4155 
L 1127 4155 
L 1127 500 
z
" id="Inter-Regular-44" transform="scale(0.015625)"/>
       </defs>
       <use xlink:href="#Inter-Regular-30"/>
       <use x="62.500015" xlink:href="#Inter-Regular-31"/>
       <use x="106.676163" xlink:href="#Inter-Regular-20"/>
       <use x="134.801163" xlink:href="#Inter-Regular-44"/>
       <use x="206.676178" xlink:href="#Inter-Regular-65"/>
       <use x="264.914825" xlink:href="#Inter-Regular-63"/>
      </g>
     </g>
    </g>
    <g id="xtick_11">
     <g id="line2d_11">
      <g>
       <use style="stroke:#000000;stroke-width:0.8;" x="522.248421" xlink:href="#m161b7e1644" y="476.745"/>
      </g>
     </g>
     <g id="text_11">
      <!-- 01 Jan -->
      <g transform="translate(507.049202 491.018438)scale(0.1 -0.1)">
       <use xlink:href="#Inter-Regular-30"/>
       <use x="62.500015" xlink:href="#Inter-Regular-31"/>
       <use x="106.676163" xlink:href="#Inter-Regular-20"/>
       <use x="134.801163" xlink:href="#Inter-Regular-4a"/>
       <use x="189.062531" xlink:href="#Inter-Regular-61"/>
       <use x="245.45459" xlink:href="#Inter-Regular-6e"/>
      </g>
     </g>
    </g>
    <g id="xtick_12">
     <g id="line2d_12">
      <g>
       <use style="stroke:#000000;stroke-width:0.8;" x="567.597158" xlink:href="#m161b7e1644" y="476.745"/>
      </g>
     </g>
     <g id="text_12">
      <!-- 01 Feb -->
      <g transform="translate(551.908095 491.018438)scale(0.1 -0.1)">
       <defs>
        <path d="M 564 0 
L 564 4655 
L 3355 4655 
L 3355 4155 
L 1127 4155 
L 1127 2582 
L 3146 2582 
L 3146 2082 
L 1127 2082 
L 1127 0 
L 564 0 
z
" id="Inter-Regular-46" transform="scale(0.015625)"/>
        <path d="M 564 0 
L 564 4655 
L 1100 4655 
L 1100 2936 
L 1146 2936 
Q 1205 3027 1310 3169 
Q 1416 3311 1615 3423 
Q 1814 3536 2155 3536 
Q 2596 3536 2932 3315 
Q 3268 3095 3457 2690 
Q 3646 2286 3646 1736 
Q 3646 1182 3457 776 
Q 3268 370 2934 148 
Q 2600 -73 2164 -73 
Q 1827 -73 1625 39 
Q 1423 152 1314 296 
Q 1205 441 1146 536 
L 1082 536 
L 1082 0 
L 564 0 
z
M 1091 1745 
Q 1091 1152 1349 780 
Q 1607 409 2091 409 
Q 2427 409 2653 587 
Q 2880 766 2994 1069 
Q 3109 1373 3109 1745 
Q 3109 2114 2996 2410 
Q 2884 2707 2658 2881 
Q 2432 3055 2091 3055 
Q 1600 3055 1345 2693 
Q 1091 2332 1091 1745 
z
" id="Inter-Regular-62" transform="scale(0.015625)"/>
       </defs>
       <use xlink:href="#Inter-Regular-30"/>
       <use x="62.500015" xlink:href="#Inter-Regular-31"/>
       <use x="106.676163" xlink:href="#Inter-Regular-20"/>
       <use x="134.801163" xlink:href="#Inter-Regular-46"/>
       <use x="193.465942" xlink:href="#Inter-Regular-65"/>
       <use x="251.70459" xlink:href="#Inter-Regular-62"/>
      </g>
     </g>
    </g>
    <g id="xtick_13">
     <g id="line2d_13">
      <g>
       <use style="stroke:#000000;stroke-width:0.8;" x="608.557307" xlink:href="#m161b7e1644" y="476.745"/>
      </g>
     </g>
     <g id="text_13">
      <!-- 01 Mar -->
      <g transform="translate(592.520588 491.018438)scale(0.1 -0.1)">
       <use xlink:href="#Inter-Regular-30"/>
       <use x="62.500015" xlink:href="#Inter-Regular-31"/>
       <use x="106.676163" xlink:href="#Inter-Regular-20"/>
       <use x="134.801163" xlink:href="#Inter-Regular-4d"/>
       <use x="225.99437" xlink:href="#Inter-Regular-61"/>
       <use x="282.386429" xlink:href="#Inter-Regular-72"/>
      </g>
     </g>
    </g>
    <g id="xtick_14">
     <g id="line2d_14">
      <g>
       <use style="stroke:#000000;stroke-width:0.8;" x="653.906044" xlink:href="#m161b7e1644" y="476.745"/>
      </g>
     </g>
     <g id="text_14">
      <!-- 01 Apr -->
      <g transform="translate(638.820888 491.116875)scale(0.1 -0.1)">
       <use xlink:href="#Inter-Regular-30"/>
       <use x="62.500015" xlink:href="#Inter-Regular-31"/>
       <use x="106.676163" xlink:href="#Inter-Regular-20"/>
       <use x="134.801163" xlink:href="#Inter-Regular-41"/>
       <use x="202.41481" xlink:href="#Inter-Regular-70"/>
       <use x="263.352325" xlink:href="#Inter-Regular-72"/>
      </g>
     </g>
    </g>
    <g id="xtick_15">
     <g id="line2d_15">
      <g>
       <use style="stroke:#000000;stroke-width:0.8;" x="697.791919" xlink:href="#m161b7e1644" y="476.745"/>
      </g>
     </g>
     <g id="text_15">
      <!-- 01 May -->
      <g transform="translate(680.888794 491.116875)scale(0.1 -0.1)">
       <use xlink:href="#Inter-Regular-30"/>
       <use x="62.500015" xlink:href="#Inter-Regular-31"/>
       <use x="106.676163" xlink:href="#Inter-Regular-20"/>
       <use x="134.801163" xlink:href="#Inter-Regular-4d"/>
       <use x="225.99437" xlink:href="#Inter-Regular-61"/>
       <use x="282.386429" xlink:href="#Inter-Regular-79"/>
      </g>
     </g>
    </g>
    <g id="xtick_16">
     <g id="line2d_16">
      <g>
       <use style="stroke:#000000;stroke-width:0.8;" x="743.140656" xlink:href="#m161b7e1644" y="476.745"/>
      </g>
     </g>
     <g id="text_16">
      <!-- 01 Jun -->
      <g transform="translate(727.856281 491.018438)scale(0.1 -0.1)">
       <use xlink:href="#Inter-Regular-30"/>
       <use x="62.500015" xlink:href="#Inter-Regular-31"/>
       <use x="106.676163" xlink:href="#Inter-Regular-20"/>
       <use x="134.801163" xlink:href="#Inter-Regular-4a"/>
       <use x="189.062531" xlink:href="#Inter-Regular-75"/>
       <use x="247.159134" xlink:href="#Inter-Regular-6e"/>
      </g>
     </g>
    </g>
   </g>
   <g id="matplotlib.axis_2">
    <g id="ytick_1">
     <g id="line2d_17">
      <path clip-path="url(#p0ac8cd144c)" d="M 74.6125 476.745 
L 744.2125 476.745 
" style="fill:none;stroke:#e5e5e5;stroke-linecap:square;stroke-width:0.8;"/>
     </g>
     <g id="line2d_18">
      <defs>
       <path d="M 0 0 
L -3.5 0 
" id="m6df6bde558" style="stroke:#000000;stroke-width:0.8;"/>
      </defs>
      <g>
       <use style="stroke:#000000;stroke-width:0.8;" x="74.6125" xlink:href="#m6df6bde558" y="476.745"/>
      </g>
     </g>
     <g id="text_17">
      <!-- 0.000% -->
      <g transform="translate(31.73125 480.381719)scale(0.1 -0.1)">
       <defs>
        <path d="M 882 -36 
Q 714 -36 593 84 
Q 473 205 473 373 
Q 473 541 593 661 
Q 714 782 882 782 
Q 1050 782 1170 661 
Q 1291 541 1291 373 
Q 1291 205 1170 84 
Q 1050 -36 882 -36 
z
" id="Inter-Regular-2e" transform="scale(0.015625)"/>
        <path d="M 2855 873 
L 2855 1118 
Q 2855 1373 2960 1585 
Q 3066 1798 3269 1926 
Q 3473 2055 3764 2055 
Q 4059 2055 4259 1926 
Q 4459 1798 4561 1585 
Q 4664 1373 4664 1118 
L 4664 873 
Q 4664 618 4560 405 
Q 4457 193 4256 64 
Q 4055 -64 3764 -64 
Q 3468 -64 3266 64 
Q 3064 193 2959 405 
Q 2855 618 2855 873 
z
M 536 3536 
L 536 3782 
Q 536 4036 642 4248 
Q 748 4461 951 4589 
Q 1155 4718 1446 4718 
Q 1741 4718 1941 4589 
Q 2141 4461 2243 4248 
Q 2346 4036 2346 3782 
L 2346 3536 
Q 2346 3282 2242 3069 
Q 2139 2857 1937 2728 
Q 1736 2600 1446 2600 
Q 1150 2600 948 2728 
Q 746 2857 641 3069 
Q 536 3282 536 3536 
z
M 709 0 
L 3909 4655 
L 4427 4655 
L 1227 0 
L 709 0 
z
M 3318 1118 
L 3318 873 
Q 3318 661 3418 494 
Q 3518 327 3764 327 
Q 4002 327 4101 494 
Q 4200 661 4200 873 
L 4200 1118 
Q 4200 1330 4104 1497 
Q 4009 1664 3764 1664 
Q 3525 1664 3421 1497 
Q 3318 1330 3318 1118 
z
M 1000 3782 
L 1000 3536 
Q 1000 3325 1100 3158 
Q 1200 2991 1446 2991 
Q 1684 2991 1783 3158 
Q 1882 3325 1882 3536 
L 1882 3782 
Q 1882 3993 1786 4160 
Q 1691 4327 1446 4327 
Q 1207 4327 1103 4160 
Q 1000 3993 1000 3782 
z
" id="Inter-Regular-25" transform="scale(0.015625)"/>
       </defs>
       <use xlink:href="#Inter-Regular-30"/>
       <use x="62.500015" xlink:href="#Inter-Regular-2e"/>
       <use x="90.056839" xlink:href="#Inter-Regular-30"/>
       <use x="152.556854" xlink:href="#Inter-Regular-30"/>
       <use x="215.05687" xlink:href="#Inter-Regular-30"/>
       <use x="277.556885" xlink:href="#Inter-Regular-25"/>
      </g>
     </g>
    </g>
    <g id="ytick_2">
     <g id="line2d_19">
      <path clip-path="url(#p0ac8cd144c)" d="M 74.6125 423.859065 
L 744.2125 423.859065 
" style="fill:none;stroke:#e5e5e5;stroke-linecap:square;stroke-width:0.8;"/>
     </g>
     <g id="line2d_20">
      <g>
       <use style="stroke:#000000;stroke-width:0.8;" x="74.6125" xlink:href="#m6df6bde558" y="423.859065"/>
      </g>
     </g>
     <g id="text_18">
      <!-- 0.025% -->
      <g transform="translate(32.1 427.495784)scale(0.1 -0.1)">
       <defs>
        <path d="M 482 0 
L 482 409 
L 2018 2091 
Q 2289 2386 2464 2605 
Q 2639 2825 2724 3019 
Q 2809 3214 2809 3427 
Q 2809 3795 2553 4011 
Q 2298 4227 1918 4227 
Q 1514 4227 1275 3985 
Q 1036 3743 1036 3345 
L 500 3345 
Q 500 3755 688 4064 
Q 877 4373 1203 4545 
Q 1530 4718 1936 4718 
Q 2346 4718 2661 4545 
Q 2977 4373 3156 4079 
Q 3336 3786 3336 3427 
Q 3336 3170 3244 2926 
Q 3152 2682 2926 2383 
Q 2700 2084 2300 1655 
L 1255 536 
L 1255 500 
L 3418 500 
L 3418 0 
L 482 0 
z
" id="Inter-Regular-32" transform="scale(0.015625)"/>
        <path d="M 1936 -64 
Q 1536 -64 1216 95 
Q 896 255 702 532 
Q 509 809 491 1164 
L 1036 1164 
Q 1068 848 1324 642 
Q 1580 436 1936 436 
Q 2223 436 2447 570 
Q 2671 705 2799 940 
Q 2927 1175 2927 1473 
Q 2927 1777 2794 2017 
Q 2661 2257 2429 2395 
Q 2198 2534 1900 2536 
Q 1686 2539 1461 2472 
Q 1236 2405 1091 2300 
L 564 2364 
L 846 4655 
L 3264 4655 
L 3264 4155 
L 1318 4155 
L 1155 2782 
L 1182 2782 
Q 1325 2895 1541 2970 
Q 1757 3045 1991 3045 
Q 2418 3045 2753 2842 
Q 3089 2639 3281 2286 
Q 3473 1934 3473 1482 
Q 3473 1036 3274 687 
Q 3075 339 2727 137 
Q 2380 -64 1936 -64 
z
" id="Inter-Regular-35" transform="scale(0.015625)"/>
       </defs>
       <use xlink:href="#Inter-Regular-30"/>
       <use x="62.500015" xlink:href="#Inter-Regular-2e"/>
       <use x="90.056839" xlink:href="#Inter-Regular-30"/>
       <use x="152.556854" xlink:href="#Inter-Regular-32"/>
       <use x="213.068237" xlink:href="#Inter-Regular-35"/>
       <use x="273.863708" xlink:href="#Inter-Regular-25"/>
      </g>
     </g>
    </g>
    <g id="ytick_3">
     <g id="line2d_21">
      <path clip-path="url(#p0ac8cd144c)" d="M 74.6125 370.973131 
L 744.2125 370.973131 
" style="fill:none;stroke:#e5e5e5;stroke-linecap:square;stroke-width:0.8;"/>
     </g>
     <g id="line2d_22">
      <g>
       <use style="stroke:#000000;stroke-width:0.8;" x="74.6125" xlink:href="#m6df6bde558" y="370.973131"/>
      </g>
     </g>
     <g id="text_19">
      <!-- 0.050% -->
      <g transform="translate(31.901563 374.609849)scale(0.1 -0.1)">
       <use xlink:href="#Inter-Regular-30"/>
       <use x="62.500015" xlink:href="#Inter-Regular-2e"/>
       <use x="90.056839" xlink:href="#Inter-Regular-30"/>
       <use x="152.556854" xlink:href="#Inter-Regular-35"/>
       <use x="213.352325" xlink:href="#Inter-Regular-30"/>
       <use x="275.852341" xlink:href="#Inter-Regular-25"/>
      </g>
     </g>
    </g>
    <g id="ytick_4">
     <g id="line2d_23">
      <path clip-path="url(#p0ac8cd144c)" d="M 74.6125 318.087196 
L 744.2125 318.087196 
" style="fill:none;stroke:#e5e5e5;stroke-linecap:square;stroke-width:0.8;"/>
     </g>
     <g id="line2d_24">
      <g>
       <use style="stroke:#000000;stroke-width:0.8;" x="74.6125" xlink:href="#m6df6bde558" y="318.087196"/>
      </g>
     </g>
     <g id="text_20">
      <!-- 0.075% -->
      <g transform="translate(32.440625 321.723915)scale(0.1 -0.1)">
       <defs>
        <path d="M 627 0 
L 2709 4118 
L 2709 4155 
L 309 4155 
L 309 4655 
L 3291 4655 
L 3291 4127 
L 1218 0 
L 627 0 
z
" id="Inter-Regular-37" transform="scale(0.015625)"/>
       </defs>
       <use xlink:href="#Inter-Regular-30"/>
       <use x="62.500015" xlink:href="#Inter-Regular-2e"/>
       <use x="90.056839" xlink:href="#Inter-Regular-30"/>
       <use x="152.556854" xlink:href="#Inter-Regular-37"/>
       <use x="209.659134" xlink:href="#Inter-Regular-35"/>
       <use x="270.454605" xlink:href="#Inter-Regular-25"/>
      </g>
     </g>
    </g>
    <g id="ytick_5">
     <g id="line2d_25">
      <path clip-path="url(#p0ac8cd144c)" d="M 74.6125 265.201261 
L 744.2125 265.201261 
" style="fill:none;stroke:#e5e5e5;stroke-linecap:square;stroke-width:0.8;"/>
     </g>
     <g id="line2d_26">
      <g>
       <use style="stroke:#000000;stroke-width:0.8;" x="74.6125" xlink:href="#m6df6bde558" y="265.201261"/>
      </g>
     </g>
     <g id="text_21">
      <!-- 0.100% -->
      <g transform="translate(33.564063 268.83798)scale(0.1 -0.1)">
       <use xlink:href="#Inter-Regular-30"/>
       <use x="62.500015" xlink:href="#Inter-Regular-2e"/>
       <use x="90.056839" xlink:href="#Inter-Regular-31"/>
       <use x="134.232986" xlink:href="#Inter-Regular-30"/>
       <use x="196.733002" xlink:href="#Inter-Regular-30"/>
       <use x="259.233017" xlink:href="#Inter-Regular-25"/>
      </g>
     </g>
    </g>
    <g id="ytick_6">
     <g id="line2d_27">
      <path clip-path="url(#p0ac8cd144c)" d="M 74.6125 212.315327 
L 744.2125 212.315327 
" style="fill:none;stroke:#e5e5e5;stroke-linecap:square;stroke-width:0.8;"/>
     </g>
     <g id="line2d_28">
      <g>
       <use style="stroke:#000000;stroke-width:0.8;" x="74.6125" xlink:href="#m6df6bde558" y="212.315327"/>
      </g>
     </g>
     <g id="text_22">
      <!-- 0.125% -->
      <g transform="translate(33.932813 215.952045)scale(0.1 -0.1)">
       <use xlink:href="#Inter-Regular-30"/>
       <use x="62.500015" xlink:href="#Inter-Regular-2e"/>
       <use x="90.056839" xlink:href="#Inter-Regular-31"/>
       <use x="134.232986" xlink:href="#Inter-Regular-32"/>
       <use x="194.74437" xlink:href="#Inter-Regular-35"/>
       <use x="255.539841" xlink:href="#Inter-Regular-25"/>
      </g>
     </g>
    </g>
    <g id="ytick_7">
     <g id="line2d_29">
      <path clip-path="url(#p0ac8cd144c)" d="M 74.6125 159.429392 
L 744.2125 159.429392 
" style="fill:none;stroke:#e5e5e5;stroke-linecap:square;stroke-width:0.8;"/>
     </g>
     <g id="line2d_30">
      <g>
       <use style="stroke:#000000;stroke-width:0.8;" x="74.6125" xlink:href="#m6df6bde558" y="159.429392"/>
      </g>
     </g>
     <g id="text_23">
      <!-- 0.150% -->
      <g transform="translate(33.734375 163.066111)scale(0.1 -0.1)">
       <use xlink:href="#Inter-Regular-30"/>
       <use x="62.500015" xlink:href="#Inter-Regular-2e"/>
       <use x="90.056839" xlink:href="#Inter-Regular-31"/>
       <use x="134.232986" xlink:href="#Inter-Regular-35"/>
       <use x="195.028458" xlink:href="#Inter-Regular-30"/>
       <use x="257.528473" xlink:href="#Inter-Regular-25"/>
      </g>
     </g>
    </g>
    <g id="ytick_8">
     <g id="line2d_31">
      <path clip-path="url(#p0ac8cd144c)" d="M 74.6125 106.543457 
L 744.2125 106.543457 
" style="fill:none;stroke:#e5e5e5;stroke-linecap:square;stroke-width:0.8;"/>
     </g>
     <g id="line2d_32">
      <g>
       <use style="stroke:#000000;stroke-width:0.8;" x="74.6125" xlink:href="#m6df6bde558" y="106.543457"/>
      </g>
     </g>
     <g id="text_24">
      <!-- 0.175% -->
      <g transform="translate(34.273438 110.180176)scale(0.1 -0.1)">
       <use xlink:href="#Inter-Regular-30"/>
       <use x="62.500015" xlink:href="#Inter-Regular-2e"/>
       <use x="90.056839" xlink:href="#Inter-Regular-31"/>
       <use x="134.232986" xlink:href="#Inter-Regular-37"/>
       <use x="191.335266" xlink:href="#Inter-Regular-35"/>
       <use x="252.130737" xlink:href="#Inter-Regular-25"/>
      </g>
     </g>
    </g>
    <g id="ytick_9">
     <g id="line2d_33">
      <path clip-path="url(#p0ac8cd144c)" d="M 74.6125 53.657523 
L 744.2125 53.657523 
" style="fill:none;stroke:#e5e5e5;stroke-linecap:square;stroke-width:0.8;"/>
     </g>
     <g id="line2d_34">
      <g>
       <use style="stroke:#000000;stroke-width:0.8;" x="74.6125" xlink:href="#m6df6bde558" y="53.657523"/>
      </g>
     </g>
     <g id="text_25">
      <!-- 0.200% -->
      <g transform="translate(31.929688 57.294242)scale(0.1 -0.1)">
       <use xlink:href="#Inter-Regular-30"/>
       <use x="62.500015" xlink:href="#Inter-Regular-2e"/>
       <use x="90.056839" xlink:href="#Inter-Regular-32"/>
       <use x="150.568222" xlink:href="#Inter-Regular-30"/>
       <use x="213.068237" xlink:href="#Inter-Regular-30"/>
       <use x="275.568253" xlink:href="#Inter-Regular-25"/>
      </g>
     </g>
    </g>
    <g id="text_26">
     <!-- Percent of nation who have died within 28 days of a positive test -->
     <g transform="translate(25.614063 408.395938)rotate(-90)scale(0.1 -0.1)">
      <defs>
       <path d="M 564 0 
L 564 4655 
L 2136 4655 
Q 2684 4655 3033 4458 
Q 3382 4261 3550 3927 
Q 3718 3593 3718 3182 
Q 3718 2770 3551 2434 
Q 3384 2098 3036 1899 
Q 2689 1700 2146 1700 
L 1127 1700 
L 1127 0 
L 564 0 
z
M 1127 2200 
L 2127 2200 
Q 2689 2200 2926 2482 
Q 3164 2764 3164 3182 
Q 3164 3602 2925 3878 
Q 2686 4155 2118 4155 
L 1127 4155 
L 1127 2200 
z
" id="Inter-Regular-50" transform="scale(0.015625)"/>
       <path d="M 2046 3491 
L 2046 3036 
L 1264 3036 
L 1264 0 
L 727 0 
L 727 3036 
L 164 3036 
L 164 3491 
L 727 3491 
L 727 3973 
Q 727 4273 868 4473 
Q 1009 4673 1234 4773 
Q 1459 4873 1709 4873 
Q 1907 4873 2032 4841 
Q 2157 4809 2218 4782 
L 2064 4318 
Q 2023 4332 1951 4352 
Q 1880 4373 1764 4373 
Q 1498 4373 1381 4239 
Q 1264 4105 1264 3845 
L 1264 3491 
L 2046 3491 
z
" id="Inter-Regular-66" transform="scale(0.015625)"/>
       <path d="M 491 0 
L 491 3491 
L 1027 3491 
L 1027 0 
L 491 0 
z
M 764 4073 
Q 607 4073 494 4179 
Q 382 4286 382 4436 
Q 382 4586 494 4693 
Q 607 4800 764 4800 
Q 921 4800 1033 4693 
Q 1146 4586 1146 4436 
Q 1146 4286 1033 4179 
Q 921 4073 764 4073 
z
" id="Inter-Regular-69" transform="scale(0.015625)"/>
       <path d="M 1282 0 
L 218 3491 
L 782 3491 
L 1536 818 
L 1573 818 
L 2318 3491 
L 2891 3491 
L 3627 827 
L 3664 827 
L 4418 3491 
L 4982 3491 
L 3918 0 
L 3391 0 
L 2627 2682 
L 2573 2682 
L 1809 0 
L 1282 0 
z
" id="Inter-Regular-77" transform="scale(0.015625)"/>
       <path d="M 1027 2100 
L 1027 0 
L 491 0 
L 491 4655 
L 1027 4655 
L 1027 2945 
L 1073 2945 
Q 1196 3216 1442 3376 
Q 1689 3536 2100 3536 
Q 2636 3536 2963 3213 
Q 3291 2891 3291 2218 
L 3291 0 
L 2755 0 
L 2755 2182 
Q 2755 2598 2540 2826 
Q 2325 3055 1946 3055 
Q 1548 3055 1287 2806 
Q 1027 2557 1027 2100 
z
" id="Inter-Regular-68" transform="scale(0.015625)"/>
       <path d="M 1809 -73 
Q 1373 -73 1039 148 
Q 705 370 516 776 
Q 327 1182 327 1736 
Q 327 2286 516 2690 
Q 705 3095 1041 3315 
Q 1377 3536 1818 3536 
Q 2159 3536 2358 3423 
Q 2557 3311 2662 3169 
Q 2768 3027 2827 2936 
L 2873 2936 
L 2873 4655 
L 3409 4655 
L 3409 0 
L 2891 0 
L 2891 536 
L 2827 536 
Q 2768 441 2659 296 
Q 2550 152 2348 39 
Q 2146 -73 1809 -73 
z
M 1882 409 
Q 2366 409 2624 780 
Q 2882 1152 2882 1745 
Q 2882 2332 2627 2693 
Q 2373 3055 1882 3055 
Q 1541 3055 1315 2881 
Q 1089 2707 976 2410 
Q 864 2114 864 1745 
Q 864 1373 978 1069 
Q 1093 766 1319 587 
Q 1546 409 1882 409 
z
" id="Inter-Regular-64" transform="scale(0.015625)"/>
       <path d="M 1973 -64 
Q 1505 -64 1147 103 
Q 789 270 589 564 
Q 389 859 391 1236 
Q 389 1532 507 1783 
Q 625 2034 830 2203 
Q 1036 2373 1291 2418 
L 1291 2445 
Q 957 2532 759 2821 
Q 561 3111 564 3482 
Q 561 3836 743 4115 
Q 925 4395 1244 4556 
Q 1564 4718 1973 4718 
Q 2377 4718 2695 4556 
Q 3014 4395 3197 4115 
Q 3380 3836 3382 3482 
Q 3380 3111 3181 2821 
Q 2982 2532 2655 2445 
L 2655 2418 
Q 2907 2373 3109 2203 
Q 3311 2034 3431 1783 
Q 3552 1532 3555 1236 
Q 3552 859 3351 564 
Q 3150 270 2794 103 
Q 2439 -64 1973 -64 
z
M 1973 436 
Q 2446 436 2722 662 
Q 2998 889 3000 1264 
Q 2998 1527 2864 1729 
Q 2730 1932 2499 2048 
Q 2268 2164 1973 2164 
Q 1675 2164 1442 2048 
Q 1209 1932 1076 1729 
Q 943 1527 946 1264 
Q 943 889 1218 662 
Q 1493 436 1973 436 
z
M 1973 2645 
Q 2348 2645 2591 2864 
Q 2834 3084 2836 3445 
Q 2834 3800 2596 4013 
Q 2359 4227 1973 4227 
Q 1582 4227 1344 4013 
Q 1107 3800 1109 3445 
Q 1107 3084 1349 2864 
Q 1591 2645 1973 2645 
z
" id="Inter-Regular-38" transform="scale(0.015625)"/>
       <path d="M 2964 2709 
L 2482 2573 
Q 2411 2755 2245 2914 
Q 2080 3073 1727 3073 
Q 1407 3073 1194 2926 
Q 982 2780 982 2555 
Q 982 2355 1127 2239 
Q 1273 2123 1582 2045 
L 2100 1918 
Q 3027 1691 3027 973 
Q 3027 673 2855 436 
Q 2684 200 2377 63 
Q 2071 -73 1664 -73 
Q 1130 -73 780 159 
Q 430 391 336 836 
L 846 964 
Q 989 400 1655 400 
Q 2030 400 2251 560 
Q 2473 720 2473 945 
Q 2473 1316 1955 1436 
L 1373 1573 
Q 893 1686 669 1926 
Q 446 2166 446 2527 
Q 446 2823 613 3050 
Q 780 3277 1069 3406 
Q 1359 3536 1727 3536 
Q 2246 3536 2542 3309 
Q 2839 3082 2964 2709 
z
" id="Inter-Regular-73" transform="scale(0.015625)"/>
      </defs>
      <use xlink:href="#Inter-Regular-50"/>
      <use x="63.494324" xlink:href="#Inter-Regular-65"/>
      <use x="121.732971" xlink:href="#Inter-Regular-72"/>
      <use x="160.085251" xlink:href="#Inter-Regular-63"/>
      <use x="215.909119" xlink:href="#Inter-Regular-65"/>
      <use x="274.147766" xlink:href="#Inter-Regular-6e"/>
      <use x="332.670502" xlink:href="#Inter-Regular-74"/>
      <use x="369.034149" xlink:href="#Inter-Regular-20"/>
      <use x="397.159149" xlink:href="#Inter-Regular-6f"/>
      <use x="456.818253" xlink:href="#Inter-Regular-66"/>
      <use x="492.897797" xlink:href="#Inter-Regular-20"/>
      <use x="521.022797" xlink:href="#Inter-Regular-6e"/>
      <use x="579.545532" xlink:href="#Inter-Regular-61"/>
      <use x="635.937592" xlink:href="#Inter-Regular-74"/>
      <use x="672.301239" xlink:href="#Inter-Regular-69"/>
      <use x="696.022827" xlink:href="#Inter-Regular-6f"/>
      <use x="755.681931" xlink:href="#Inter-Regular-6e"/>
      <use x="814.204666" xlink:href="#Inter-Regular-20"/>
      <use x="842.329666" xlink:href="#Inter-Regular-77"/>
      <use x="923.579681" xlink:href="#Inter-Regular-68"/>
      <use x="982.670609" xlink:href="#Inter-Regular-6f"/>
      <use x="1042.329712" xlink:href="#Inter-Regular-20"/>
      <use x="1070.454712" xlink:href="#Inter-Regular-68"/>
      <use x="1129.545639" xlink:href="#Inter-Regular-61"/>
      <use x="1185.937698" xlink:href="#Inter-Regular-76"/>
      <use x="1241.619522" xlink:href="#Inter-Regular-65"/>
      <use x="1299.85817" xlink:href="#Inter-Regular-20"/>
      <use x="1327.98317" xlink:href="#Inter-Regular-64"/>
      <use x="1390.057053" xlink:href="#Inter-Regular-69"/>
      <use x="1413.778641" xlink:href="#Inter-Regular-65"/>
      <use x="1472.017288" xlink:href="#Inter-Regular-64"/>
      <use x="1534.091171" xlink:href="#Inter-Regular-20"/>
      <use x="1562.216171" xlink:href="#Inter-Regular-77"/>
      <use x="1643.466187" xlink:href="#Inter-Regular-69"/>
      <use x="1667.187775" xlink:href="#Inter-Regular-74"/>
      <use x="1703.551422" xlink:href="#Inter-Regular-68"/>
      <use x="1762.642349" xlink:href="#Inter-Regular-69"/>
      <use x="1786.363937" xlink:href="#Inter-Regular-6e"/>
      <use x="1844.886673" xlink:href="#Inter-Regular-20"/>
      <use x="1873.011673" xlink:href="#Inter-Regular-32"/>
      <use x="1933.523056" xlink:href="#Inter-Regular-38"/>
      <use x="1995.170792" xlink:href="#Inter-Regular-20"/>
      <use x="2023.295792" xlink:href="#Inter-Regular-64"/>
      <use x="2085.369675" xlink:href="#Inter-Regular-61"/>
      <use x="2141.761734" xlink:href="#Inter-Regular-79"/>
      <use x="2197.443558" xlink:href="#Inter-Regular-73"/>
      <use x="2249.716293" xlink:href="#Inter-Regular-20"/>
      <use x="2277.841293" xlink:href="#Inter-Regular-6f"/>
      <use x="2337.500397" xlink:href="#Inter-Regular-66"/>
      <use x="2373.579941" xlink:href="#Inter-Regular-20"/>
      <use x="2401.704941" xlink:href="#Inter-Regular-61"/>
      <use x="2458.097" xlink:href="#Inter-Regular-20"/>
      <use x="2486.222" xlink:href="#Inter-Regular-70"/>
      <use x="2547.159515" xlink:href="#Inter-Regular-6f"/>
      <use x="2606.818619" xlink:href="#Inter-Regular-73"/>
      <use x="2659.091354" xlink:href="#Inter-Regular-69"/>
      <use x="2682.812943" xlink:href="#Inter-Regular-74"/>
      <use x="2719.17659" xlink:href="#Inter-Regular-69"/>
      <use x="2742.898178" xlink:href="#Inter-Regular-76"/>
      <use x="2798.580002" xlink:href="#Inter-Regular-65"/>
      <use x="2856.818649" xlink:href="#Inter-Regular-20"/>
      <use x="2884.943649" xlink:href="#Inter-Regular-74"/>
      <use x="2921.307297" xlink:href="#Inter-Regular-65"/>
      <use x="2979.545944" xlink:href="#Inter-Regular-73"/>
      <use x="3031.81868" xlink:href="#Inter-Regular-74"/>
     </g>
    </g>
   </g>
   <g id="line2d_35">
    <path clip-path="url(#p0ac8cd144c)" d="M 81.926812 476.741242 
L 93.629712 476.639767 
L 99.481162 476.324069 
L 106.795475 475.501 
L 108.258337 474.963562 
L 111.184062 473.659429 
L 114.109787 471.59236 
L 115.57265 470.85949 
L 118.498375 468.149749 
L 122.886962 461.121713 
L 124.349825 458.532239 
L 127.275549 454.364276 
L 128.738412 450.572143 
L 131.664137 443.386258 
L 133.126999 439.496409 
L 134.589862 436.696469 
L 136.052724 434.426451 
L 137.515587 431.818186 
L 138.978449 428.033569 
L 140.441312 425.290004 
L 141.904174 421.884977 
L 143.367037 418.780615 
L 144.829899 415.007274 
L 146.292762 413.579117 
L 147.755624 411.564663 
L 149.218487 407.370392 
L 150.681349 404.645618 
L 152.144212 402.413183 
L 153.607074 399.327612 
L 155.069937 396.587806 
L 157.995662 394.272688 
L 159.458524 391.033027 
L 160.921387 388.763009 
L 162.384249 386.722247 
L 163.847112 384.380821 
L 165.309974 382.558042 
L 168.235699 380.795395 
L 169.698562 378.393837 
L 171.161424 376.405692 
L 172.624287 374.98881 
L 174.087149 373.117172 
L 175.550011 372.267795 
L 178.475736 370.89977 
L 179.938599 368.874042 
L 181.401461 367.513535 
L 185.790049 364.01455 
L 187.252911 363.852943 
L 188.715774 363.34933 
L 190.178636 361.669366 
L 191.641499 360.695964 
L 193.104361 359.869136 
L 194.567224 358.903251 
L 196.030086 358.162864 
L 197.492949 356.802357 
L 200.418674 356.08452 
L 201.881536 354.59623 
L 203.344399 353.412363 
L 204.807261 352.487819 
L 206.270124 352.048097 
L 207.732986 351.901523 
L 209.195849 351.604617 
L 212.121574 349.928411 
L 213.584436 349.507481 
L 215.047299 348.609245 
L 216.510161 348.135699 
L 219.435886 347.786176 
L 220.898749 347.113439 
L 222.361611 346.576001 
L 223.824474 346.335469 
L 226.750198 345.542466 
L 229.675923 345.362067 
L 232.601648 344.625439 
L 238.453098 343.761028 
L 239.915961 343.71217 
L 245.767411 342.49072 
L 251.618861 342.017173 
L 253.081723 341.678925 
L 269.173211 340.46875 
L 270.636073 340.438684 
L 273.561798 340.190635 
L 279.413248 339.938829 
L 285.264698 339.71333 
L 288.190423 339.53669 
L 292.57901 339.420182 
L 295.504735 339.311191 
L 305.744773 339.040593 
L 314.521948 338.833886 
L 318.910535 338.721137 
L 327.68771 338.570805 
L 333.53916 338.420472 
L 340.853472 338.251348 
L 348.167785 338.134841 
L 368.64786 337.484654 
L 377.425034 336.902116 
L 381.813622 336.612726 
L 383.276484 336.563868 
L 387.665072 335.894889 
L 390.590797 335.530333 
L 394.979384 335.101886 
L 403.756559 333.700037 
L 408.145147 332.410938 
L 411.070872 331.478877 
L 413.996597 330.986539 
L 415.459459 330.186019 
L 418.385184 329.043494 
L 419.848047 328.336932 
L 422.773772 327.292122 
L 424.236634 326.953874 
L 425.699496 325.743699 
L 431.550946 322.158273 
L 434.476671 321.192388 
L 438.865259 317.268715 
L 441.790984 314.897222 
L 443.253846 314.419917 
L 444.716709 313.762213 
L 449.105296 308.474274 
L 450.568159 307.421947 
L 452.031021 305.933657 
L 453.493884 305.396219 
L 454.956746 304.678383 
L 456.419609 302.731579 
L 460.808196 297.939736 
L 462.271059 296.940026 
L 463.733921 295.549452 
L 465.196784 294.820341 
L 466.659646 292.809646 
L 468.122509 290.539628 
L 472.511096 285.807918 
L 475.436821 284.368486 
L 478.362546 280.286963 
L 479.825408 279.054238 
L 481.288271 277.460716 
L 482.751133 276.167858 
L 485.676858 274.747217 
L 487.139721 272.725248 
L 490.065446 269.45552 
L 491.528308 268.128837 
L 492.991171 266.475181 
L 494.454033 265.956535 
L 495.916896 265.227423 
L 497.379758 263.472293 
L 498.842621 261.454082 
L 503.231208 256.635931 
L 504.694071 255.730179 
L 506.156933 254.986034 
L 509.082658 250.35204 
L 510.545521 248.593152 
L 512.008383 246.450916 
L 513.471246 245.793212 
L 514.934108 244.868668 
L 517.859833 242.305502 
L 519.322696 238.851617 
L 520.785558 235.769804 
L 522.248421 233.465962 
L 523.711283 232.154312 
L 526.637008 229.290481 
L 528.09987 226.343968 
L 529.562733 223.021624 
L 531.025595 219.248282 
L 532.488458 214.903678 
L 533.95132 211.630192 
L 536.877045 207.898192 
L 538.339908 203.572379 
L 539.80277 198.310748 
L 544.191358 185.558809 
L 547.117083 181.206688 
L 548.579945 175.542918 
L 550.042808 169.29661 
L 551.50567 165.034689 
L 554.431395 155.699051 
L 557.35712 151.568671 
L 560.282845 139.963016 
L 564.671433 127.523016 
L 566.134295 125.538629 
L 567.597158 124.155572 
L 569.06002 119.059306 
L 570.522883 114.650811 
L 571.985745 111.580273 
L 573.448607 108.227863 
L 574.91147 105.506847 
L 577.837195 103.127838 
L 580.76292 95.987053 
L 582.225782 93.754618 
L 583.688645 91.28541 
L 585.151507 89.24089 
L 588.077232 87.594751 
L 589.540095 84.839912 
L 591.002957 82.442111 
L 592.46582 81.025229 
L 593.928682 79.217483 
L 595.391545 77.725434 
L 598.31727 76.391235 
L 599.780132 74.575972 
L 601.242995 73.147815 
L 605.631582 70.066003 
L 608.557307 69.261725 
L 610.02017 68.107924 
L 611.483032 67.115731 
L 614.408757 65.56355 
L 615.87162 65.056178 
L 618.797345 64.593906 
L 620.260207 63.815936 
L 624.648794 62.166039 
L 626.111657 61.767658 
L 629.037382 61.388069 
L 634.888832 59.937362 
L 636.351694 59.629181 
L 639.277419 59.471332 
L 642.203144 58.738462 
L 648.054594 58.09955 
L 650.980319 57.870293 
L 656.831769 57.374196 
L 661.220357 57.220106 
L 668.534669 56.577435 
L 672.923256 56.333145 
L 678.774706 55.983622 
L 681.700431 55.870873 
L 696.329056 55.201894 
L 705.106231 54.968879 
L 709.494819 54.893713 
L 713.883406 54.784722 
L 740.214931 54.345 
L 743.140656 54.345 
L 743.140656 54.345 
" style="fill:none;stroke:#5694ca;stroke-linecap:square;stroke-width:2;"/>
   </g>
   <g id="line2d_36">
    <path clip-path="url(#p0ac8cd144c)" d="M 81.926812 476.745 
L 102.406887 476.745 
L 103.86975 476.633289 
L 105.332612 476.633289 
L 106.795475 476.521578 
L 111.184062 475.7396 
L 114.109787 475.181044 
L 115.57265 474.510777 
L 117.035512 474.399066 
L 118.498375 473.728799 
L 119.961237 473.505376 
L 121.4241 472.835109 
L 122.886962 471.494575 
L 125.812687 469.818908 
L 127.275549 469.03693 
L 128.738412 468.701796 
L 131.664137 467.696396 
L 133.126999 466.579284 
L 134.589862 464.903617 
L 136.052724 463.674794 
L 137.515587 463.004527 
L 138.978449 461.887416 
L 140.441312 461.217149 
L 144.829899 455.296457 
L 146.292762 455.184746 
L 149.218487 452.280256 
L 150.681349 448.928921 
L 152.144212 447.476676 
L 155.069937 444.01363 
L 156.532799 443.455074 
L 157.995662 442.337962 
L 159.458524 440.103739 
L 162.384249 438.092938 
L 163.847112 436.082137 
L 165.309974 434.853315 
L 168.235699 433.624492 
L 169.698562 431.725402 
L 171.161424 430.161446 
L 178.475736 427.927223 
L 179.938599 426.921822 
L 181.401461 426.6984 
L 182.864324 426.139844 
L 184.327186 424.464177 
L 188.715774 423.011932 
L 190.178636 422.229954 
L 191.641499 421.671398 
L 193.104361 420.88942 
L 194.567224 420.554286 
L 197.492949 420.330864 
L 198.955811 419.437175 
L 200.418674 419.437175 
L 207.732986 418.431774 
L 209.195849 418.320063 
L 210.658711 418.096641 
L 212.121574 417.202951 
L 216.510161 416.867818 
L 222.361611 416.867818 
L 225.287336 416.644396 
L 226.750198 416.420973 
L 229.675923 416.420973 
L 232.601648 416.197551 
L 234.064511 416.197551 
L 236.990236 415.974129 
L 239.915961 415.974129 
L 242.841686 415.750706 
L 244.304548 415.750706 
L 250.155998 415.303862 
L 253.081723 415.303862 
L 254.544586 415.19215 
L 256.007448 414.968728 
L 269.173211 414.968728 
L 270.636073 414.745306 
L 310.13336 414.745306 
L 311.596223 414.633595 
L 315.98481 414.633595 
L 317.447673 414.521883 
L 321.83626 414.521883 
L 323.299123 414.410172 
L 335.002022 414.410172 
L 336.464885 414.298461 
L 343.779197 414.298461 
L 346.704922 413.963328 
L 348.167785 413.851617 
L 351.09351 413.851617 
L 352.556372 413.739905 
L 354.019235 413.516483 
L 355.482097 413.516483 
L 356.94496 413.404772 
L 361.333547 413.404772 
L 365.722135 412.846216 
L 367.184997 412.846216 
L 368.64786 412.622794 
L 371.573585 412.622794 
L 373.036447 412.399371 
L 378.887897 412.399371 
L 380.350759 412.28766 
L 384.739347 412.28766 
L 386.202209 412.175949 
L 389.127934 411.840816 
L 392.053659 411.617393 
L 393.516522 411.617393 
L 397.905109 411.28226 
L 400.830834 411.28226 
L 402.293697 411.170549 
L 403.756559 410.835415 
L 405.219422 410.053437 
L 408.145147 409.159748 
L 411.070872 408.712903 
L 421.310909 404.803012 
L 422.773772 403.909323 
L 424.236634 403.350767 
L 425.699496 401.898522 
L 434.476671 395.977831 
L 435.939534 395.307564 
L 437.402396 394.190452 
L 438.865259 392.849918 
L 440.328121 391.956229 
L 441.790984 390.392273 
L 443.253846 389.610295 
L 447.642434 386.370671 
L 449.105296 384.695004 
L 452.031021 382.349069 
L 453.493884 381.343669 
L 454.956746 379.779712 
L 456.419609 378.774312 
L 459.345334 376.204955 
L 460.808196 374.864421 
L 463.733921 372.630198 
L 465.196784 372.295065 
L 466.659646 371.066242 
L 469.585371 369.390575 
L 471.048234 368.050041 
L 472.511096 367.04464 
L 473.973958 366.709507 
L 475.436821 365.592395 
L 476.899683 363.916728 
L 478.362546 363.469883 
L 479.825408 362.24106 
L 482.751133 360.788815 
L 484.213996 359.559992 
L 485.676858 358.554592 
L 487.139721 356.990636 
L 488.602583 355.650102 
L 490.065446 354.086146 
L 491.528308 352.745612 
L 492.991171 351.740211 
L 495.916896 350.734811 
L 497.379758 350.064544 
L 498.842621 349.170854 
L 501.768346 346.489787 
L 503.231208 344.590697 
L 504.694071 343.138452 
L 506.156933 342.356474 
L 507.619796 340.569095 
L 509.082658 338.223161 
L 510.545521 336.994338 
L 512.008383 336.994338 
L 513.471246 334.760115 
L 514.934108 334.760115 
L 516.396971 332.525891 
L 517.859833 330.961935 
L 519.322696 330.291668 
L 520.785558 329.062846 
L 522.248421 329.062846 
L 523.711283 326.158355 
L 525.174145 325.488088 
L 526.637008 324.147554 
L 528.09987 322.136754 
L 529.562733 320.684508 
L 531.025595 318.785419 
L 532.488458 316.551196 
L 533.95132 315.545795 
L 536.877045 311.859327 
L 538.339908 309.401681 
L 539.80277 307.279169 
L 541.265633 305.491791 
L 542.728495 302.5873 
L 544.191358 300.129655 
L 545.65422 297.336876 
L 547.117083 295.214364 
L 550.042808 290.07565 
L 551.50567 287.729716 
L 554.431395 285.048648 
L 555.894258 283.484692 
L 558.819983 279.798224 
L 560.282845 278.010845 
L 561.745708 276.5586 
L 563.20857 274.100954 
L 564.671433 272.201865 
L 566.134295 270.079353 
L 567.597158 268.85053 
L 569.06002 266.95144 
L 571.985745 264.605506 
L 573.448607 262.818127 
L 574.91147 262.036149 
L 576.374332 261.030749 
L 577.837195 259.690215 
L 579.300057 258.573103 
L 580.76292 258.126258 
L 585.151507 254.998346 
L 586.61437 253.769523 
L 588.077232 253.322679 
L 589.540095 252.317278 
L 593.928682 250.418188 
L 596.854407 249.63621 
L 602.705857 247.848832 
L 610.02017 246.620009 
L 612.945895 245.838031 
L 614.408757 245.614608 
L 617.334482 244.83263 
L 620.260207 244.385786 
L 623.185932 242.486696 
L 626.111657 242.263274 
L 627.574519 242.263274 
L 630.500244 242.039851 
L 631.963107 242.039851 
L 633.425969 241.92814 
L 634.888832 241.593007 
L 636.351694 241.593007 
L 639.277419 241.369584 
L 640.740282 241.146162 
L 645.128869 241.146162 
L 648.054594 240.699317 
L 649.517457 240.699317 
L 650.980319 240.140762 
L 653.906044 240.140762 
L 655.368907 240.02905 
L 658.294632 240.02905 
L 668.534669 238.576805 
L 671.460394 238.576805 
L 672.923256 238.465094 
L 677.311844 237.906538 
L 680.237569 237.906538 
L 683.163294 237.683116 
L 684.626156 237.347983 
L 687.551881 237.12456 
L 689.014744 237.12456 
L 690.477606 237.012849 
L 691.940469 237.012849 
L 693.403331 236.901138 
L 694.866194 236.901138 
L 696.329056 236.789427 
L 697.791919 236.789427 
L 699.254781 236.677716 
L 705.106231 236.677716 
L 706.569094 236.566004 
L 710.957681 236.566004 
L 712.420544 236.454293 
L 713.883406 236.454293 
L 715.346269 236.342582 
L 719.734856 236.342582 
L 721.197719 236.230871 
L 722.660581 236.007449 
L 737.289206 236.007449 
L 738.752068 235.895737 
L 743.140656 235.895737 
L 743.140656 235.895737 
" style="fill:none;stroke:#ffdd00;stroke-linecap:square;stroke-width:2;"/>
   </g>
   <g id="line2d_37">
    <path clip-path="url(#p0ac8cd144c)" d="M 81.926812 476.745 
L 99.481162 476.667558 
L 100.944025 476.551396 
L 103.86975 476.512675 
L 108.258337 476.164187 
L 109.7212 475.931862 
L 111.184062 475.815699 
L 114.109787 475.234886 
L 115.57265 475.196165 
L 117.035512 474.96384 
L 118.498375 474.111981 
L 121.4241 471.904891 
L 124.349825 468.342571 
L 127.275549 468.187687 
L 131.664137 459.475491 
L 134.589862 455.797008 
L 136.052724 454.867707 
L 137.515587 454.51922 
L 138.978449 452.970385 
L 141.904174 446.620162 
L 144.829899 442.205982 
L 147.755624 441.354123 
L 149.218487 438.643662 
L 150.681349 435.662155 
L 152.144212 433.416345 
L 153.607074 430.938209 
L 155.069937 429.118328 
L 156.532799 428.421352 
L 157.995662 427.917981 
L 159.458524 425.20752 
L 160.921387 421.993687 
L 162.384249 419.670435 
L 165.309974 416.417882 
L 166.772837 415.953231 
L 168.235699 415.759627 
L 169.698562 414.055909 
L 171.161424 410.842076 
L 172.624287 408.557545 
L 174.087149 406.660222 
L 175.550011 405.266271 
L 177.012874 404.879062 
L 178.475736 404.685458 
L 179.938599 402.749414 
L 181.401461 400.387441 
L 182.864324 399.070931 
L 184.327186 397.289771 
L 185.790049 395.702215 
L 187.252911 395.353728 
L 188.715774 395.276286 
L 190.178636 394.153381 
L 191.641499 392.217337 
L 193.104361 390.784665 
L 194.567224 389.855364 
L 196.030086 389.23583 
L 197.492949 388.887342 
L 198.955811 388.771179 
L 200.418674 388.074204 
L 204.807261 386.525369 
L 206.270124 385.67351 
L 207.732986 385.325022 
L 209.195849 385.286301 
L 212.121574 384.395721 
L 213.584436 384.047233 
L 215.047299 383.505141 
L 216.510161 383.272816 
L 219.435886 383.272816 
L 220.898749 383.00177 
L 222.361611 382.537119 
L 226.750198 382.033748 
L 229.675923 381.995027 
L 231.138786 381.801422 
L 232.601648 381.452935 
L 234.064511 381.375493 
L 235.527373 381.143168 
L 238.453098 381.065726 
L 239.915961 381.065726 
L 244.304548 380.678517 
L 250.155998 380.678517 
L 253.081723 380.523634 
L 258.933173 380.446192 
L 273.561798 380.36875 
L 277.950385 380.330029 
L 333.53916 380.291308 
L 336.464885 380.213867 
L 352.556372 380.136425 
L 354.019235 380.020262 
L 367.184997 379.942821 
L 384.739347 379.516891 
L 386.202209 379.245845 
L 392.053659 378.819915 
L 394.979384 378.742474 
L 396.442247 378.703753 
L 400.830834 378.045498 
L 403.756559 378.045498 
L 405.219422 377.774452 
L 408.145147 376.690267 
L 409.608009 376.34178 
L 411.070872 375.760966 
L 413.996597 375.722246 
L 415.459459 375.141433 
L 416.922322 374.057248 
L 419.848047 372.702018 
L 421.310909 372.276088 
L 424.236634 372.198646 
L 427.162359 370.14644 
L 428.625221 368.713768 
L 430.088084 367.629583 
L 431.550946 366.700282 
L 433.013809 366.467957 
L 434.476671 366.467957 
L 435.939534 365.383773 
L 437.402396 363.447729 
L 438.865259 361.937615 
L 440.328121 360.737268 
L 441.790984 359.227154 
L 444.716709 359.072271 
L 446.179571 357.562157 
L 447.642434 355.084021 
L 449.105296 353.341582 
L 450.568159 351.173213 
L 452.031021 349.779262 
L 453.493884 349.779262 
L 454.956746 349.546936 
L 456.419609 348.114264 
L 459.345334 344.087293 
L 460.808196 342.848226 
L 462.271059 341.415553 
L 463.733921 341.144507 
L 465.196784 341.144507 
L 468.122509 337.853233 
L 469.585371 335.878469 
L 471.048234 334.445796 
L 472.511096 332.742078 
L 475.436821 332.548474 
L 476.899683 331.231964 
L 478.362546 329.760571 
L 479.825408 327.785806 
L 481.288271 326.198251 
L 482.751133 325.346391 
L 484.213996 325.152787 
L 485.676858 325.114066 
L 487.139721 323.836277 
L 488.602583 322.326163 
L 490.065446 320.39012 
L 491.528308 319.228494 
L 492.991171 317.71838 
L 495.916896 317.640938 
L 497.379758 316.711637 
L 498.842621 315.240244 
L 500.305483 314.078618 
L 501.768346 312.684666 
L 503.231208 311.097111 
L 504.694071 310.980948 
L 506.156933 310.980948 
L 512.008383 304.166075 
L 516.396971 304.127354 
L 517.859833 303.856308 
L 519.322696 302.19131 
L 520.785558 299.558291 
L 522.248421 297.893293 
L 526.637008 297.854573 
L 528.09987 297.428643 
L 529.562733 294.795624 
L 531.025595 291.775396 
L 533.95132 284.573314 
L 536.877045 284.41843 
L 538.339908 282.327503 
L 539.80277 279.268554 
L 542.728495 274.428445 
L 544.191358 271.408217 
L 547.117083 271.408217 
L 548.579945 268.659035 
L 551.50567 261.650557 
L 554.431395 255.958589 
L 555.894258 255.919868 
L 557.35712 255.764985 
L 561.745708 245.658837 
L 563.20857 242.948376 
L 564.671433 240.625124 
L 567.597158 240.160474 
L 569.06002 237.488733 
L 570.522883 234.081297 
L 571.985745 232.029091 
L 573.448607 229.667117 
L 574.91147 227.808516 
L 577.837195 227.343865 
L 579.300057 225.098055 
L 582.225782 221.303409 
L 583.688645 218.709111 
L 585.151507 216.966671 
L 586.61437 216.811788 
L 588.077232 216.811788 
L 589.540095 214.914465 
L 591.002957 212.436329 
L 592.46582 210.22924 
L 595.391545 207.905987 
L 596.854407 207.712383 
L 598.31727 207.712383 
L 599.780132 205.544014 
L 601.242995 203.724133 
L 602.705857 202.523786 
L 604.16872 201.478323 
L 605.631582 200.781347 
L 608.557307 200.703905 
L 611.483032 198.070886 
L 612.945895 197.141585 
L 615.87162 196.251005 
L 618.797345 196.212284 
L 621.72307 194.70217 
L 623.185932 193.850311 
L 624.648794 193.192056 
L 626.111657 192.882289 
L 629.037382 192.804847 
L 630.500244 192.533801 
L 631.963107 192.069151 
L 636.351694 191.178571 
L 639.277419 191.178571 
L 640.740282 190.907525 
L 642.203144 190.791362 
L 643.666007 190.404153 
L 646.591732 189.939503 
L 649.517457 189.939503 
L 650.980319 189.474853 
L 655.368907 188.777877 
L 661.220357 188.777877 
L 662.683219 188.584272 
L 664.146082 188.545552 
L 667.071807 188.158343 
L 669.997532 188.158343 
L 675.848981 187.771134 
L 678.774706 187.693692 
L 681.700431 187.616251 
L 686.089019 187.422646 
L 687.551881 187.267763 
L 693.403331 187.1516 
L 694.866194 186.957996 
L 713.883406 186.880554 
L 721.197719 186.764391 
L 735.826343 186.68695 
L 738.752068 186.609508 
L 743.140656 186.570787 
L 743.140656 186.570787 
" style="fill:none;stroke:#003078;stroke-linecap:square;stroke-width:2;"/>
   </g>
   <g id="line2d_38">
    <path clip-path="url(#p0ac8cd144c)" d="M 81.926812 476.745 
L 102.406887 476.745 
L 103.86975 476.610809 
L 105.332612 476.00695 
L 106.795475 475.738569 
L 108.258337 475.671473 
L 111.184062 474.933424 
L 112.646925 474.530851 
L 114.109787 474.262469 
L 115.57265 473.591515 
L 117.035512 472.652179 
L 118.498375 472.182511 
L 119.961237 470.236744 
L 121.4241 468.961931 
L 122.886962 467.351641 
L 125.812687 465.674256 
L 127.275549 463.862679 
L 128.738412 462.587867 
L 130.201274 460.373718 
L 131.664137 457.622805 
L 133.126999 455.677038 
L 134.589862 453.261603 
L 136.052724 452.053886 
L 137.515587 451.047454 
L 138.978449 449.772641 
L 140.441312 445.746916 
L 141.904174 443.599863 
L 143.367037 442.861813 
L 144.829899 440.983141 
L 146.292762 438.232229 
L 147.755624 437.628371 
L 149.218487 435.950985 
L 152.144212 433.803932 
L 153.607074 426.423435 
L 155.069937 424.880241 
L 156.532799 423.940905 
L 157.995662 423.404142 
L 159.458524 422.26352 
L 160.921387 417.365554 
L 162.384249 415.889455 
L 163.847112 414.748833 
L 165.309974 411.796634 
L 168.235699 409.917962 
L 169.698562 408.173481 
L 171.161424 406.764478 
L 172.624287 405.55676 
L 174.087149 403.678088 
L 175.550011 403.07423 
L 177.012874 402.269085 
L 178.475736 401.933607 
L 179.938599 400.860081 
L 181.401461 399.383982 
L 184.327186 398.109169 
L 185.790049 396.901451 
L 187.252911 396.096306 
L 188.715774 395.827924 
L 190.178636 394.687302 
L 191.641499 393.747966 
L 193.104361 393.144108 
L 200.418674 390.795768 
L 201.881536 390.057718 
L 203.344399 389.118382 
L 204.807261 388.447428 
L 206.270124 387.508092 
L 207.732986 386.770043 
L 209.195849 386.434566 
L 210.658711 385.964898 
L 212.121574 384.824276 
L 213.584436 384.287512 
L 215.047299 384.01913 
L 216.510161 383.348176 
L 217.973024 383.012699 
L 219.435886 382.811413 
L 222.361611 381.603695 
L 223.824474 381.201123 
L 225.287336 380.530169 
L 226.750198 380.127596 
L 229.675923 379.657928 
L 231.138786 379.121165 
L 232.601648 378.450211 
L 235.527373 377.846352 
L 239.915961 377.645066 
L 241.378823 377.309589 
L 242.841686 376.772825 
L 244.304548 376.370253 
L 245.767411 376.236062 
L 247.230273 375.900585 
L 250.155998 375.565108 
L 251.618861 375.363821 
L 253.081723 374.961249 
L 254.544586 374.424486 
L 256.007448 374.290295 
L 257.470311 373.954818 
L 261.858898 373.686436 
L 263.321761 373.418054 
L 264.784623 373.283863 
L 270.636073 373.216768 
L 273.561798 372.948386 
L 277.950385 372.881291 
L 280.87611 372.814195 
L 288.190423 372.7471 
L 291.116148 372.680005 
L 292.57901 372.680005 
L 294.041873 372.344528 
L 295.504735 372.344528 
L 296.967598 371.941955 
L 301.356185 371.606478 
L 304.28191 371.405192 
L 305.744773 371.203905 
L 307.207635 370.734237 
L 310.13336 370.667142 
L 311.596223 370.667142 
L 313.059085 370.532951 
L 314.521948 370.197474 
L 318.910535 370.130379 
L 320.373398 369.996188 
L 329.150572 369.929092 
L 332.076297 369.727806 
L 335.002022 369.660711 
L 337.927747 369.593615 
L 348.167785 369.52652 
L 351.09351 369.459424 
L 365.722135 369.459424 
L 367.184997 369.258138 
L 373.036447 369.056852 
L 374.499309 369.056852 
L 381.813622 368.452993 
L 383.276484 368.452993 
L 384.739347 368.251707 
L 386.202209 368.184612 
L 387.665072 367.782039 
L 389.127934 367.580753 
L 390.590797 367.245276 
L 393.516522 367.245276 
L 394.979384 366.574321 
L 396.442247 366.373035 
L 399.367972 366.171749 
L 400.830834 364.762745 
L 402.293697 364.628554 
L 405.219422 364.024696 
L 408.145147 362.682787 
L 411.070872 362.011833 
L 412.533734 361.810547 
L 413.996597 361.743451 
L 415.459459 361.072497 
L 416.922322 360.133161 
L 418.385184 359.663493 
L 419.848047 358.791253 
L 421.310909 357.717726 
L 424.236634 356.979676 
L 425.699496 356.510009 
L 427.162359 354.027478 
L 428.625221 352.618474 
L 430.088084 351.880425 
L 431.550946 351.008184 
L 433.013809 349.934657 
L 435.939534 349.46499 
L 437.402396 346.512791 
L 438.865259 344.499928 
L 440.328121 343.627688 
L 441.790984 341.480635 
L 443.253846 340.205822 
L 444.716709 339.669058 
L 446.179571 338.192959 
L 447.642434 335.173665 
L 449.105296 332.892421 
L 450.568159 330.946654 
L 452.031021 329.604745 
L 453.493884 328.531219 
L 454.956746 328.397028 
L 456.419609 326.115784 
L 457.882471 323.364871 
L 459.345334 321.821677 
L 460.808196 319.741719 
L 462.271059 317.863047 
L 463.733921 317.124997 
L 465.196784 316.521139 
L 466.659646 315.112135 
L 468.122509 312.361223 
L 469.585371 310.482551 
L 471.048234 309.073547 
L 472.511096 307.12778 
L 473.973958 306.054253 
L 475.436821 305.852967 
L 476.899683 304.309772 
L 478.362546 300.887906 
L 479.825408 299.277616 
L 481.288271 297.063467 
L 482.751133 295.453177 
L 484.213996 294.513841 
L 485.676858 294.37965 
L 492.991171 283.97986 
L 494.454033 283.97986 
L 495.916896 281.765711 
L 497.379758 281.161853 
L 498.842621 279.14899 
L 500.305483 275.660028 
L 503.231208 270.762063 
L 504.694071 266.132479 
L 506.156933 265.461525 
L 507.619796 263.851234 
L 509.082658 260.429368 
L 510.545521 256.202357 
L 512.008383 256.202357 
L 513.471246 253.854017 
L 514.934108 249.157338 
L 516.396971 248.150906 
L 517.859833 245.936757 
L 519.322696 245.064517 
L 520.785558 240.703315 
L 522.248421 240.703315 
L 523.711283 236.006635 
L 525.174145 232.249292 
L 526.637008 230.571906 
L 528.09987 229.431284 
L 529.562733 224.332032 
L 531.025595 220.105021 
L 532.488458 216.347678 
L 533.95132 212.187762 
L 535.414183 209.168468 
L 538.339908 206.954319 
L 539.80277 202.526021 
L 544.191358 191.589468 
L 545.65422 188.368888 
L 547.117083 187.026979 
L 548.579945 186.490216 
L 551.50567 180.451628 
L 552.968533 175.956235 
L 554.431395 174.144659 
L 555.894258 171.19246 
L 557.35712 169.649266 
L 558.819983 169.112502 
L 560.282845 165.824827 
L 561.745708 162.067483 
L 563.20857 160.121716 
L 564.671433 158.444331 
L 566.134295 156.163086 
L 567.597158 154.754083 
L 569.06002 154.284415 
L 570.522883 150.929644 
L 571.985745 148.581304 
L 573.448607 145.56201 
L 574.91147 142.274335 
L 576.374332 140.395663 
L 577.837195 139.590518 
L 579.300057 138.919564 
L 580.76292 137.51056 
L 583.688645 134.021598 
L 585.151507 132.545499 
L 588.077232 130.465541 
L 589.540095 129.928777 
L 591.002957 127.915915 
L 592.46582 126.976579 
L 596.854407 123.755999 
L 598.31727 123.15214 
L 599.780132 122.883758 
L 601.242995 122.011518 
L 602.705857 120.602514 
L 605.631582 118.455461 
L 607.094445 116.845171 
L 608.557307 116.643884 
L 610.02017 116.576789 
L 614.408757 114.094259 
L 615.87162 113.624591 
L 617.334482 112.416873 
L 618.797345 112.416873 
L 620.260207 112.215587 
L 621.72307 111.813014 
L 624.648794 110.202724 
L 626.111657 109.800152 
L 627.574519 109.129197 
L 630.500244 108.927911 
L 631.963107 108.391148 
L 633.425969 108.122766 
L 634.888832 107.518907 
L 637.814557 106.713762 
L 640.740282 106.713762 
L 645.128869 106.042808 
L 646.591732 105.57314 
L 650.980319 105.506045 
L 658.294632 105.170568 
L 659.757494 104.633804 
L 661.220357 104.499614 
L 662.683219 104.499614 
L 664.146082 104.097041 
L 678.774706 103.358991 
L 681.700431 103.09061 
L 687.551881 103.023514 
L 690.477606 102.688037 
L 693.403331 102.688037 
L 694.866194 102.553846 
L 703.643369 102.486751 
L 706.569094 102.419656 
L 709.494819 102.419656 
L 710.957681 102.151274 
L 715.346269 102.017083 
L 719.734856 101.949988 
L 722.660581 101.882892 
L 725.586306 101.815797 
L 727.049168 101.614511 
L 728.512031 101.614511 
L 729.974893 101.48032 
L 734.363481 101.413224 
L 735.826343 101.279033 
L 743.140656 101.279033 
L 743.140656 101.279033 
" style="fill:none;stroke:#d4351c;stroke-linecap:square;stroke-width:2;"/>
   </g>
   <g id="patch_3">
    <path d="M 74.6125 476.745 
L 744.2125 476.745 
" style="fill:none;stroke:#000000;stroke-linecap:square;stroke-linejoin:miter;stroke-width:0.8;"/>
   </g>
   <g id="text_27">
    <!-- Cumulative deaths within 4 weeks of a positive COVID-19 test by date reported, per capita -->
    <g transform="translate(144.090625 27.225)scale(0.12 -0.12)">
     <defs>
      <path d="M 4511 3025 
L 3516 3025 
Q 3459 3409 3188 3628 
Q 2918 3848 2514 3848 
Q 1973 3848 1647 3451 
Q 1321 3055 1321 2327 
Q 1321 1582 1649 1194 
Q 1977 807 2507 807 
Q 2900 807 3173 1012 
Q 3446 1218 3516 1591 
L 4511 1586 
Q 4459 1159 4207 782 
Q 3955 405 3522 170 
Q 3089 -64 2491 -64 
Q 1868 -64 1378 218 
Q 889 500 606 1034 
Q 323 1568 323 2327 
Q 323 3089 609 3623 
Q 896 4157 1386 4437 
Q 1877 4718 2491 4718 
Q 3030 4718 3463 4519 
Q 3896 4320 4172 3942 
Q 4448 3564 4511 3025 
z
" id="Inter-Bold-43" transform="scale(0.015625)"/>
      <path d="M 2625 1486 
L 2625 3491 
L 3593 3491 
L 3593 0 
L 2664 0 
L 2664 634 
L 2627 634 
Q 2509 327 2235 141 
Q 1961 -45 1568 -45 
Q 1041 -45 715 306 
Q 389 657 386 1268 
L 386 3491 
L 1355 3491 
L 1355 1441 
Q 1357 1132 1520 952 
Q 1684 773 1959 773 
Q 2221 773 2424 954 
Q 2627 1136 2625 1486 
z
" id="Inter-Bold-75" transform="scale(0.015625)"/>
      <path d="M 386 0 
L 386 3491 
L 1309 3491 
L 1309 2875 
L 1350 2875 
Q 1459 3184 1715 3360 
Q 1971 3536 2323 3536 
Q 2682 3536 2934 3358 
Q 3186 3180 3271 2875 
L 3307 2875 
Q 3414 3175 3694 3355 
Q 3975 3536 4359 3536 
Q 4848 3536 5153 3226 
Q 5459 2916 5459 2348 
L 5459 0 
L 4493 0 
L 4493 2157 
Q 4493 2448 4338 2593 
Q 4184 2739 3952 2739 
Q 3689 2739 3541 2570 
Q 3393 2402 3393 2132 
L 3393 0 
L 2455 0 
L 2455 2177 
Q 2455 2434 2308 2586 
Q 2161 2739 1923 2739 
Q 1682 2739 1518 2562 
Q 1355 2386 1355 2095 
L 1355 0 
L 386 0 
z
" id="Inter-Bold-6d" transform="scale(0.015625)"/>
      <path d="M 1355 4655 
L 1355 0 
L 386 0 
L 386 4655 
L 1355 4655 
z
" id="Inter-Bold-6c" transform="scale(0.015625)"/>
      <path d="M 1382 -66 
Q 882 -66 552 195 
Q 223 457 223 975 
Q 223 1366 407 1588 
Q 591 1811 890 1914 
Q 1189 2018 1534 2050 
Q 1989 2095 2184 2145 
Q 2380 2195 2380 2364 
L 2380 2377 
Q 2380 2593 2244 2711 
Q 2109 2830 1861 2830 
Q 1600 2830 1445 2716 
Q 1291 2602 1241 2427 
L 346 2500 
Q 446 2977 842 3256 
Q 1239 3536 1866 3536 
Q 2255 3536 2593 3413 
Q 2932 3291 3140 3030 
Q 3348 2770 3348 2355 
L 3348 0 
L 2430 0 
L 2430 484 
L 2402 484 
Q 2275 241 2021 87 
Q 1768 -66 1382 -66 
z
M 1659 602 
Q 1977 602 2181 787 
Q 2386 973 2386 1248 
L 2386 1618 
Q 2330 1580 2210 1550 
Q 2091 1520 1956 1498 
Q 1821 1477 1714 1461 
Q 1459 1425 1303 1318 
Q 1148 1211 1148 1007 
Q 1148 807 1292 704 
Q 1436 602 1659 602 
z
" id="Inter-Bold-61" transform="scale(0.015625)"/>
      <path d="M 2243 3491 
L 2243 2764 
L 1586 2764 
L 1586 1073 
Q 1586 873 1677 802 
Q 1768 732 1914 732 
Q 1982 732 2050 744 
Q 2118 757 2155 764 
L 2307 43 
Q 2234 20 2102 -10 
Q 1971 -41 1782 -48 
Q 1255 -70 935 181 
Q 616 432 618 945 
L 618 2764 
L 141 2764 
L 141 3491 
L 618 3491 
L 618 4327 
L 1586 4327 
L 1586 3491 
L 2243 3491 
z
" id="Inter-Bold-74" transform="scale(0.015625)"/>
      <path d="M 386 0 
L 386 3491 
L 1355 3491 
L 1355 0 
L 386 0 
z
M 876 3941 
Q 662 3941 507 4085 
Q 353 4230 353 4432 
Q 353 4634 507 4777 
Q 662 4920 876 4920 
Q 1092 4920 1246 4777 
Q 1401 4634 1401 4432 
Q 1401 4230 1246 4085 
Q 1092 3941 876 3941 
z
" id="Inter-Bold-69" transform="scale(0.015625)"/>
      <path d="M 3641 3491 
L 2421 0 
L 1330 0 
L 109 3491 
L 1132 3491 
L 1857 993 
L 1893 993 
L 2616 3491 
L 3641 3491 
z
" id="Inter-Bold-76" transform="scale(0.015625)"/>
      <path d="M 1977 -68 
Q 1441 -68 1052 151 
Q 664 370 455 773 
Q 246 1177 246 1730 
Q 246 2268 455 2675 
Q 664 3082 1044 3309 
Q 1425 3536 1939 3536 
Q 2400 3536 2771 3340 
Q 3143 3145 3361 2751 
Q 3580 2357 3580 1764 
L 3580 1498 
L 1202 1498 
L 1202 1495 
Q 1202 1105 1416 880 
Q 1630 655 1993 655 
Q 2236 655 2413 757 
Q 2591 859 2664 1059 
L 3559 1000 
Q 3457 514 3041 223 
Q 2625 -68 1977 -68 
z
M 1202 2098 
L 2668 2098 
Q 2666 2409 2468 2611 
Q 2271 2814 1955 2814 
Q 1632 2814 1425 2604 
Q 1218 2395 1202 2098 
z
" id="Inter-Bold-65" transform="scale(0.015625)"/>
      <path id="Inter-Bold-20" transform="scale(0.015625)"/>
      <path d="M 1673 -57 
Q 1275 -57 954 149 
Q 634 355 445 756 
Q 257 1157 257 1741 
Q 257 2341 451 2740 
Q 646 3139 967 3337 
Q 1289 3536 1671 3536 
Q 1964 3536 2160 3437 
Q 2357 3339 2478 3193 
Q 2600 3048 2664 2905 
L 2693 2905 
L 2693 4655 
L 3659 4655 
L 3659 0 
L 2705 0 
L 2705 559 
L 2664 559 
Q 2598 414 2473 272 
Q 2348 130 2151 36 
Q 1955 -57 1673 -57 
z
M 1980 714 
Q 2330 714 2522 997 
Q 2714 1280 2714 1745 
Q 2714 2214 2523 2490 
Q 2332 2766 1980 2766 
Q 1621 2766 1433 2483 
Q 1246 2200 1246 1745 
Q 1246 1289 1434 1001 
Q 1623 714 1980 714 
z
" id="Inter-Bold-64" transform="scale(0.015625)"/>
      <path d="M 1355 2018 
L 1355 0 
L 386 0 
L 386 4655 
L 1327 4655 
L 1327 2875 
L 1368 2875 
Q 1489 3184 1751 3360 
Q 2014 3536 2411 3536 
Q 2957 3536 3289 3186 
Q 3621 2836 3618 2223 
L 3618 0 
L 2650 0 
L 2650 2050 
Q 2652 2373 2487 2552 
Q 2323 2732 2027 2732 
Q 1732 2732 1544 2544 
Q 1357 2357 1355 2018 
z
" id="Inter-Bold-68" transform="scale(0.015625)"/>
      <path d="M 3291 2495 
L 2405 2441 
Q 2368 2609 2220 2729 
Q 2073 2850 1821 2850 
Q 1596 2850 1440 2755 
Q 1284 2661 1286 2505 
Q 1284 2380 1385 2293 
Q 1486 2207 1730 2155 
L 2361 2027 
Q 3368 1820 3371 1082 
Q 3371 739 3169 479 
Q 2968 220 2618 76 
Q 2268 -68 1816 -68 
Q 1123 -68 711 221 
Q 300 511 232 1011 
L 1184 1061 
Q 1230 848 1394 739 
Q 1559 630 1818 630 
Q 2073 630 2228 730 
Q 2384 830 2386 984 
Q 2380 1243 1939 1332 
L 1334 1452 
Q 321 1655 325 2450 
Q 323 2955 728 3245 
Q 1134 3536 1805 3536 
Q 2466 3536 2846 3256 
Q 3227 2977 3291 2495 
z
" id="Inter-Bold-73" transform="scale(0.015625)"/>
      <path d="M 1075 0 
L 125 3491 
L 1105 3491 
L 1646 1145 
L 1677 1145 
L 2241 3491 
L 3202 3491 
L 3775 1159 
L 3805 1159 
L 4336 3491 
L 5314 3491 
L 4366 0 
L 3341 0 
L 2741 2195 
L 2698 2195 
L 2098 0 
L 1075 0 
z
" id="Inter-Bold-77" transform="scale(0.015625)"/>
      <path d="M 1355 2018 
L 1355 0 
L 386 0 
L 386 3491 
L 1309 3491 
L 1309 2875 
L 1350 2875 
Q 1468 3180 1739 3358 
Q 2011 3536 2400 3536 
Q 2946 3536 3275 3185 
Q 3605 2834 3605 2223 
L 3605 0 
L 2636 0 
L 2636 2050 
Q 2639 2370 2473 2551 
Q 2307 2732 2016 2732 
Q 1723 2732 1540 2544 
Q 1357 2357 1355 2018 
z
" id="Inter-Bold-6e" transform="scale(0.015625)"/>
      <path d="M 307 818 
L 307 1593 
L 2250 4655 
L 3482 4655 
L 3482 1607 
L 4059 1607 
L 4059 818 
L 3482 818 
L 3482 0 
L 2541 0 
L 2541 818 
L 307 818 
z
M 2559 1607 
L 2559 3582 
L 2523 3582 
L 1298 1643 
L 1298 1607 
L 2559 1607 
z
" id="Inter-Bold-34" transform="scale(0.015625)"/>
      <path d="M 386 0 
L 386 4655 
L 1355 4655 
L 1355 2166 
L 1407 2166 
L 2525 3491 
L 3636 3491 
L 2341 1980 
L 3702 0 
L 2568 0 
L 1616 1407 
L 1355 1109 
L 1355 0 
L 386 0 
z
" id="Inter-Bold-6b" transform="scale(0.015625)"/>
      <path d="M 1964 -68 
Q 1434 -68 1049 158 
Q 664 384 455 789 
Q 246 1195 246 1732 
Q 246 2273 455 2678 
Q 664 3084 1049 3310 
Q 1434 3536 1964 3536 
Q 2493 3536 2878 3310 
Q 3264 3084 3473 2678 
Q 3682 2273 3682 1732 
Q 3682 1195 3473 789 
Q 3264 384 2878 158 
Q 2493 -68 1964 -68 
z
M 1968 682 
Q 2327 682 2512 982 
Q 2698 1282 2698 1739 
Q 2698 2195 2512 2496 
Q 2327 2798 1968 2798 
Q 1602 2798 1416 2496 
Q 1230 2195 1230 1739 
Q 1230 1282 1416 982 
Q 1602 682 1968 682 
z
" id="Inter-Bold-6f" transform="scale(0.015625)"/>
      <path d="M 2296 3491 
L 2296 2764 
L 1602 2764 
L 1602 0 
L 634 0 
L 634 2764 
L 141 2764 
L 141 3491 
L 634 3491 
L 634 3743 
Q 634 4314 960 4593 
Q 1286 4873 1780 4873 
Q 2002 4873 2187 4839 
Q 2373 4805 2464 4777 
L 2293 4050 
Q 2236 4068 2152 4084 
Q 2068 4100 1982 4100 
Q 1768 4100 1685 4001 
Q 1602 3902 1602 3725 
L 1602 3491 
L 2296 3491 
z
" id="Inter-Bold-66" transform="scale(0.015625)"/>
      <path d="M 386 -1309 
L 386 3491 
L 1341 3491 
L 1341 2905 
L 1384 2905 
Q 1450 3048 1570 3193 
Q 1691 3339 1888 3437 
Q 2086 3536 2377 3536 
Q 2761 3536 3081 3337 
Q 3402 3139 3596 2740 
Q 3791 2341 3791 1741 
Q 3791 1157 3602 756 
Q 3414 355 3093 149 
Q 2773 -57 2375 -57 
Q 2093 -57 1896 36 
Q 1700 130 1576 272 
Q 1452 414 1384 559 
L 1355 559 
L 1355 -1309 
L 386 -1309 
z
M 1334 1745 
Q 1334 1280 1526 997 
Q 1718 714 2068 714 
Q 2425 714 2613 1001 
Q 2802 1289 2802 1745 
Q 2802 2200 2614 2483 
Q 2427 2766 2068 2766 
Q 1716 2766 1525 2490 
Q 1334 2214 1334 1745 
z
" id="Inter-Bold-70" transform="scale(0.015625)"/>
      <path d="M 4682 2327 
Q 4682 1566 4394 1032 
Q 4107 498 3614 217 
Q 3121 -64 2502 -64 
Q 1882 -64 1389 218 
Q 896 500 609 1035 
Q 323 1570 323 2327 
Q 323 3089 609 3623 
Q 896 4157 1389 4437 
Q 1882 4718 2502 4718 
Q 3121 4718 3614 4437 
Q 4107 4157 4394 3623 
Q 4682 3089 4682 2327 
z
M 3684 2327 
Q 3684 3068 3361 3458 
Q 3039 3848 2502 3848 
Q 1966 3848 1643 3458 
Q 1321 3068 1321 2327 
Q 1321 1589 1643 1198 
Q 1966 807 2502 807 
Q 3039 807 3361 1198 
Q 3684 1589 3684 2327 
z
" id="Inter-Bold-4f" transform="scale(0.015625)"/>
      <path d="M 1246 4655 
L 2371 1118 
L 2414 1118 
L 3541 4655 
L 4632 4655 
L 3027 0 
L 1759 0 
L 152 4655 
L 1246 4655 
z
" id="Inter-Bold-56" transform="scale(0.015625)"/>
      <path d="M 1389 4655 
L 1389 0 
L 405 0 
L 405 4655 
L 1389 4655 
z
" id="Inter-Bold-49" transform="scale(0.015625)"/>
      <path d="M 2055 0 
L 405 0 
L 405 4655 
L 2068 4655 
Q 2771 4655 3278 4376 
Q 3786 4098 4059 3577 
Q 4332 3057 4332 2332 
Q 4332 1605 4058 1082 
Q 3784 559 3274 279 
Q 2764 0 2055 0 
z
M 1389 843 
L 2014 843 
Q 2671 843 3010 1197 
Q 3350 1552 3350 2332 
Q 3350 3107 3010 3459 
Q 2671 3811 2016 3811 
L 1389 3811 
L 1389 843 
z
" id="Inter-Bold-44" transform="scale(0.015625)"/>
      <path d="M 2561 2295 
L 2561 1527 
L 439 1527 
L 439 2295 
L 2561 2295 
z
" id="Inter-Bold-2d" transform="scale(0.015625)"/>
      <path d="M 2305 4655 
L 2305 0 
L 1323 0 
L 1323 3450 
L 1280 3450 
Q 1205 3334 961 3219 
Q 718 3105 332 3105 
L 332 3886 
Q 632 3886 857 4019 
Q 1082 4152 1209 4333 
Q 1336 4514 1341 4655 
L 2305 4655 
z
" id="Inter-Bold-31" transform="scale(0.015625)"/>
      <path d="M 2061 4732 
Q 2421 4732 2753 4612 
Q 3086 4493 3348 4227 
Q 3611 3961 3766 3523 
Q 3921 3086 3921 2448 
Q 3921 1659 3686 1096 
Q 3452 534 3028 235 
Q 2605 -64 2027 -64 
Q 1561 -64 1204 117 
Q 848 298 631 610 
Q 414 923 368 1314 
L 1339 1314 
Q 1396 1059 1577 919 
Q 1759 780 2027 780 
Q 2482 780 2718 1176 
Q 2955 1573 2957 2264 
L 2925 2264 
Q 2771 1957 2453 1782 
Q 2136 1607 1752 1607 
Q 1341 1607 1016 1801 
Q 691 1995 506 2334 
Q 321 2673 323 3109 
Q 321 3582 539 3949 
Q 757 4316 1149 4525 
Q 1541 4734 2061 4732 
z
M 2068 3959 
Q 1725 3959 1500 3722 
Q 1275 3486 1277 3136 
Q 1275 2791 1496 2555 
Q 1718 2320 2059 2320 
Q 2284 2320 2465 2431 
Q 2646 2543 2751 2729 
Q 2857 2916 2859 3141 
Q 2857 3366 2753 3551 
Q 2650 3736 2473 3847 
Q 2296 3959 2068 3959 
z
" id="Inter-Bold-39" transform="scale(0.015625)"/>
      <path d="M 405 0 
L 405 4655 
L 1373 4655 
L 1373 2905 
L 1402 2905 
Q 1468 3048 1588 3193 
Q 1709 3339 1907 3437 
Q 2105 3536 2396 3536 
Q 2780 3536 3100 3337 
Q 3421 3139 3615 2740 
Q 3809 2341 3809 1741 
Q 3809 1157 3620 756 
Q 3432 355 3111 149 
Q 2791 -57 2393 -57 
Q 2111 -57 1914 36 
Q 1718 130 1594 272 
Q 1471 414 1402 559 
L 1359 559 
L 1359 0 
L 405 0 
z
M 1352 1745 
Q 1352 1280 1544 997 
Q 1736 714 2086 714 
Q 2443 714 2632 1001 
Q 2821 1289 2821 1745 
Q 2821 2200 2633 2483 
Q 2446 2766 2086 2766 
Q 1734 2766 1543 2490 
Q 1352 2214 1352 1745 
z
" id="Inter-Bold-62" transform="scale(0.015625)"/>
      <path d="M 950 -1359 
Q 743 -1359 596 -1324 
Q 450 -1289 368 -1252 
L 586 -502 
Q 843 -580 1019 -543 
Q 1196 -507 1298 -268 
L 1361 -100 
L 109 3491 
L 1127 3491 
L 1850 927 
L 1886 927 
L 2616 3491 
L 3641 3491 
L 2277 -400 
Q 2130 -818 1806 -1088 
Q 1482 -1359 950 -1359 
z
" id="Inter-Bold-79" transform="scale(0.015625)"/>
      <path d="M 386 0 
L 386 3491 
L 1325 3491 
L 1325 2882 
L 1361 2882 
Q 1457 3207 1681 3374 
Q 1905 3541 2200 3541 
Q 2341 3541 2461 3507 
Q 2582 3473 2677 3414 
L 2386 2614 
Q 2318 2648 2237 2671 
Q 2157 2695 2057 2695 
Q 1764 2695 1560 2495 
Q 1357 2295 1355 1975 
L 1355 0 
L 386 0 
z
" id="Inter-Bold-72" transform="scale(0.015625)"/>
      <path d="M 1439 636 
L 1414 386 
Q 1384 86 1301 -212 
Q 1218 -511 1128 -754 
Q 1039 -998 984 -1136 
L 357 -1136 
Q 391 -1002 450 -763 
Q 509 -525 561 -226 
Q 614 73 627 382 
L 639 636 
L 1439 636 
z
" id="Inter-Bold-2c" transform="scale(0.015625)"/>
      <path d="M 1964 -68 
Q 1427 -68 1042 160 
Q 657 389 451 795 
Q 246 1202 246 1732 
Q 246 2268 453 2674 
Q 661 3080 1045 3308 
Q 1430 3536 1959 3536 
Q 2416 3536 2760 3370 
Q 3105 3205 3303 2905 
Q 3502 2605 3523 2200 
L 2609 2200 
Q 2571 2461 2406 2621 
Q 2241 2782 1975 2782 
Q 1639 2782 1434 2511 
Q 1230 2241 1230 1745 
Q 1230 1245 1433 971 
Q 1636 698 1975 698 
Q 2225 698 2395 849 
Q 2566 1000 2609 1280 
L 3523 1280 
Q 3500 880 3305 575 
Q 3111 270 2770 101 
Q 2430 -68 1964 -68 
z
" id="Inter-Bold-63" transform="scale(0.015625)"/>
     </defs>
     <use xlink:href="#Inter-Bold-43"/>
     <use x="75.213089" xlink:href="#Inter-Bold-75"/>
     <use x="137.393494" xlink:href="#Inter-Bold-6d"/>
     <use x="228.5867" xlink:href="#Inter-Bold-75"/>
     <use x="290.767105" xlink:href="#Inter-Bold-6c"/>
     <use x="317.968811" xlink:href="#Inter-Bold-61"/>
     <use x="375.994385" xlink:href="#Inter-Bold-74"/>
     <use x="414.843826" xlink:href="#Inter-Bold-69"/>
     <use x="442.045532" xlink:href="#Inter-Bold-76"/>
     <use x="500.639297" xlink:href="#Inter-Bold-65"/>
     <use x="560.404938" xlink:href="#Inter-Bold-20"/>
     <use x="583.593857" xlink:href="#Inter-Bold-64"/>
     <use x="647.123703" xlink:href="#Inter-Bold-65"/>
     <use x="706.889343" xlink:href="#Inter-Bold-61"/>
     <use x="764.914917" xlink:href="#Inter-Bold-74"/>
     <use x="803.764359" xlink:href="#Inter-Bold-68"/>
     <use x="866.193344" xlink:href="#Inter-Bold-73"/>
     <use x="922.37233" xlink:href="#Inter-Bold-20"/>
     <use x="945.561249" xlink:href="#Inter-Bold-77"/>
     <use x="1030.57547" xlink:href="#Inter-Bold-69"/>
     <use x="1057.777176" xlink:href="#Inter-Bold-74"/>
     <use x="1096.626617" xlink:href="#Inter-Bold-68"/>
     <use x="1159.055603" xlink:href="#Inter-Bold-69"/>
     <use x="1186.257309" xlink:href="#Inter-Bold-6e"/>
     <use x="1248.437714" xlink:href="#Inter-Bold-20"/>
     <use x="1271.626633" xlink:href="#Inter-Bold-34"/>
     <use x="1339.417847" xlink:href="#Inter-Bold-20"/>
     <use x="1362.606766" xlink:href="#Inter-Bold-77"/>
     <use x="1447.620987" xlink:href="#Inter-Bold-65"/>
     <use x="1507.386627" xlink:href="#Inter-Bold-65"/>
     <use x="1567.152267" xlink:href="#Inter-Bold-6b"/>
     <use x="1625.319885" xlink:href="#Inter-Bold-73"/>
     <use x="1681.498871" xlink:href="#Inter-Bold-20"/>
     <use x="1704.68779" xlink:href="#Inter-Bold-6f"/>
     <use x="1766.051437" xlink:href="#Inter-Bold-66"/>
     <use x="1805.113937" xlink:href="#Inter-Bold-20"/>
     <use x="1828.302856" xlink:href="#Inter-Bold-61"/>
     <use x="1886.32843" xlink:href="#Inter-Bold-20"/>
     <use x="1909.517349" xlink:href="#Inter-Bold-70"/>
     <use x="1972.763107" xlink:href="#Inter-Bold-6f"/>
     <use x="2034.126755" xlink:href="#Inter-Bold-73"/>
     <use x="2090.30574" xlink:href="#Inter-Bold-69"/>
     <use x="2117.507446" xlink:href="#Inter-Bold-74"/>
     <use x="2156.356888" xlink:href="#Inter-Bold-69"/>
     <use x="2183.558594" xlink:href="#Inter-Bold-76"/>
     <use x="2242.152359" xlink:href="#Inter-Bold-65"/>
     <use x="2301.917999" xlink:href="#Inter-Bold-20"/>
     <use x="2325.106918" xlink:href="#Inter-Bold-43"/>
     <use x="2400.320007" xlink:href="#Inter-Bold-4f"/>
     <use x="2478.516052" xlink:href="#Inter-Bold-56"/>
     <use x="2553.302994" xlink:href="#Inter-Bold-49"/>
     <use x="2581.356979" xlink:href="#Inter-Bold-44"/>
     <use x="2654.084274" xlink:href="#Inter-Bold-2d"/>
     <use x="2700.95929" xlink:href="#Inter-Bold-31"/>
     <use x="2748.366974" xlink:href="#Inter-Bold-39"/>
     <use x="2814.382614" xlink:href="#Inter-Bold-20"/>
     <use x="2837.571533" xlink:href="#Inter-Bold-74"/>
     <use x="2876.420975" xlink:href="#Inter-Bold-65"/>
     <use x="2936.186615" xlink:href="#Inter-Bold-73"/>
     <use x="2992.365601" xlink:href="#Inter-Bold-74"/>
     <use x="3031.215042" xlink:href="#Inter-Bold-20"/>
     <use x="3054.403961" xlink:href="#Inter-Bold-62"/>
     <use x="3117.933807" xlink:href="#Inter-Bold-79"/>
     <use x="3176.527573" xlink:href="#Inter-Bold-20"/>
     <use x="3199.716492" xlink:href="#Inter-Bold-64"/>
     <use x="3263.246338" xlink:href="#Inter-Bold-61"/>
     <use x="3321.271912" xlink:href="#Inter-Bold-74"/>
     <use x="3360.121353" xlink:href="#Inter-Bold-65"/>
     <use x="3419.886993" xlink:href="#Inter-Bold-20"/>
     <use x="3443.075912" xlink:href="#Inter-Bold-72"/>
     <use x="3485.938141" xlink:href="#Inter-Bold-65"/>
     <use x="3545.703781" xlink:href="#Inter-Bold-70"/>
     <use x="3608.949539" xlink:href="#Inter-Bold-6f"/>
     <use x="3670.313187" xlink:href="#Inter-Bold-72"/>
     <use x="3713.175415" xlink:href="#Inter-Bold-74"/>
     <use x="3752.024857" xlink:href="#Inter-Bold-65"/>
     <use x="3811.790497" xlink:href="#Inter-Bold-64"/>
     <use x="3875.320343" xlink:href="#Inter-Bold-2c"/>
     <use x="3905.611542" xlink:href="#Inter-Bold-20"/>
     <use x="3928.800461" xlink:href="#Inter-Bold-70"/>
     <use x="3992.046219" xlink:href="#Inter-Bold-65"/>
     <use x="4051.811859" xlink:href="#Inter-Bold-72"/>
     <use x="4094.674088" xlink:href="#Inter-Bold-20"/>
     <use x="4117.863007" xlink:href="#Inter-Bold-63"/>
     <use x="4176.598816" xlink:href="#Inter-Bold-61"/>
     <use x="4234.62439" xlink:href="#Inter-Bold-70"/>
     <use x="4297.870148" xlink:href="#Inter-Bold-69"/>
     <use x="4325.071854" xlink:href="#Inter-Bold-74"/>
     <use x="4363.921295" xlink:href="#Inter-Bold-61"/>
    </g>
   </g>
   <g id="legend_1">
    <g id="patch_4">
     <path d="M 81.6125 98.614063 
L 191.185938 98.614063 
Q 193.185938 98.614063 193.185938 96.614063 
L 193.185938 40.225 
Q 193.185938 38.225 191.185938 38.225 
L 81.6125 38.225 
Q 79.6125 38.225 79.6125 40.225 
L 79.6125 96.614063 
Q 79.6125 98.614063 81.6125 98.614063 
z
" style="fill:#ffffff;opacity:0.8;stroke:#cccccc;stroke-linejoin:miter;"/>
    </g>
    <g id="line2d_39">
     <path d="M 83.6125 45.998438 
L 103.6125 45.998438 
" style="fill:none;stroke:#d4351c;stroke-linecap:square;stroke-width:2;"/>
    </g>
    <g id="line2d_40"/>
    <g id="text_28">
     <!-- Wales -->
     <g transform="translate(111.6125 49.498438)scale(0.1 -0.1)">
      <defs>
       <path d="M 1409 0 
L 136 4655 
L 709 4655 
L 1682 864 
L 1727 864 
L 2718 4655 
L 3355 4655 
L 4346 864 
L 4391 864 
L 5364 4655 
L 5936 4655 
L 4664 0 
L 4082 0 
L 3055 3709 
L 3018 3709 
L 1991 0 
L 1409 0 
z
" id="Inter-Regular-57" transform="scale(0.015625)"/>
      </defs>
      <use xlink:href="#Inter-Regular-57"/>
      <use x="94.886383" xlink:href="#Inter-Regular-61"/>
      <use x="151.278442" xlink:href="#Inter-Regular-6c"/>
      <use x="175.000031" xlink:href="#Inter-Regular-65"/>
      <use x="233.238678" xlink:href="#Inter-Regular-73"/>
     </g>
    </g>
    <g id="line2d_41">
     <path d="M 83.6125 60.317188 
L 103.6125 60.317188 
" style="fill:none;stroke:#003078;stroke-linecap:square;stroke-width:2;"/>
    </g>
    <g id="line2d_42"/>
    <g id="text_29">
     <!-- Scotland -->
     <g transform="translate(111.6125 63.817188)scale(0.1 -0.1)">
      <use xlink:href="#Inter-Regular-53"/>
      <use x="63.778427" xlink:href="#Inter-Regular-63"/>
      <use x="119.602295" xlink:href="#Inter-Regular-6f"/>
      <use x="179.261398" xlink:href="#Inter-Regular-74"/>
      <use x="215.625046" xlink:href="#Inter-Regular-6c"/>
      <use x="239.346634" xlink:href="#Inter-Regular-61"/>
      <use x="295.738693" xlink:href="#Inter-Regular-6e"/>
      <use x="354.261429" xlink:href="#Inter-Regular-64"/>
     </g>
    </g>
    <g id="line2d_43">
     <path d="M 83.6125 74.635938 
L 103.6125 74.635938 
" style="fill:none;stroke:#ffdd00;stroke-linecap:square;stroke-width:2;"/>
    </g>
    <g id="line2d_44"/>
    <g id="text_30">
     <!-- Northern Ireland -->
     <g transform="translate(111.6125 78.135938)scale(0.1 -0.1)">
      <defs>
       <path d="M 1127 4655 
L 1127 0 
L 564 0 
L 564 4655 
L 1127 4655 
z
" id="Inter-Regular-49" transform="scale(0.015625)"/>
      </defs>
      <use xlink:href="#Inter-Regular-4e"/>
      <use x="75.284103" xlink:href="#Inter-Regular-6f"/>
      <use x="134.943207" xlink:href="#Inter-Regular-72"/>
      <use x="173.295486" xlink:href="#Inter-Regular-74"/>
      <use x="209.659134" xlink:href="#Inter-Regular-68"/>
      <use x="268.750061" xlink:href="#Inter-Regular-65"/>
      <use x="326.988708" xlink:href="#Inter-Regular-72"/>
      <use x="365.340988" xlink:href="#Inter-Regular-6e"/>
      <use x="423.863724" xlink:href="#Inter-Regular-20"/>
      <use x="451.988724" xlink:href="#Inter-Regular-49"/>
      <use x="478.40918" xlink:href="#Inter-Regular-72"/>
      <use x="516.761459" xlink:href="#Inter-Regular-65"/>
      <use x="575.000107" xlink:href="#Inter-Regular-6c"/>
      <use x="598.721695" xlink:href="#Inter-Regular-61"/>
      <use x="655.113754" xlink:href="#Inter-Regular-6e"/>
      <use x="713.63649" xlink:href="#Inter-Regular-64"/>
     </g>
    </g>
    <g id="line2d_45">
     <path d="M 83.6125 88.954688 
L 103.6125 88.954688 
" style="fill:none;stroke:#5694ca;stroke-linecap:square;stroke-width:2;"/>
    </g>
    <g id="line2d_46"/>
    <g id="text_31">
     <!-- England -->
     <g transform="translate(111.6125 92.454688)scale(0.1 -0.1)">
      <defs>
       <path d="M 564 0 
L 564 4655 
L 3373 4655 
L 3373 4155 
L 1127 4155 
L 1127 2582 
L 3227 2582 
L 3227 2082 
L 1127 2082 
L 1127 500 
L 3409 500 
L 3409 0 
L 564 0 
z
" id="Inter-Regular-45" transform="scale(0.015625)"/>
      </defs>
      <use xlink:href="#Inter-Regular-45"/>
      <use x="59.801147" xlink:href="#Inter-Regular-6e"/>
      <use x="118.323883" xlink:href="#Inter-Regular-67"/>
      <use x="179.261398" xlink:href="#Inter-Regular-6c"/>
      <use x="202.982986" xlink:href="#Inter-Regular-61"/>
      <use x="259.375046" xlink:href="#Inter-Regular-6e"/>
      <use x="317.897781" xlink:href="#Inter-Regular-64"/>
     </g>
    </g>
   </g>
  </g>
 </g>
 <defs>
  <clipPath id="p0ac8cd144c">
   <rect height="443.52" width="669.6" x="74.6125" y="33.225"/>
  </clipPath>
 </defs>
</svg>
