<?xml version="1.0" encoding="utf-8" standalone="no"?>
<!DOCTYPE svg PUBLIC "-//W3C//DTD SVG 1.1//EN"
  "http://www.w3.org/Graphics/SVG/1.1/DTD/svg11.dtd">
<svg xmlns:xlink="http://www.w3.org/1999/xlink" viewBox="0 0 759.976502 511.234062" xmlns="http://www.w3.org/2000/svg" version="1.1">
 <metadata>
  <rdf:RDF xmlns:dc="http://purl.org/dc/elements/1.1/" xmlns:cc="http://creativecommons.org/ns#" xmlns:rdf="http://www.w3.org/1999/02/22-rdf-syntax-ns#">
   <cc:Work>
    <dc:type rdf:resource="http://purl.org/dc/dcmitype/StillImage"/>
    <dc:date>2022-07-01T17:18:49.148996</dc:date>
    <dc:format>image/svg+xml</dc:format>
    <dc:creator>
     <cc:Agent>
      <dc:title>Matplotlib v3.5.2, https://matplotlib.org/</dc:title>
     </cc:Agent>
    </dc:creator>
   </cc:Work>
  </rdf:RDF>
 </metadata>
 <defs>
  <style type="text/css">*{stroke-linejoin: round; stroke-linecap: butt}</style>
 </defs>
 <g id="figure_1">
  <g id="patch_1">
   <path d="M 0 511.234062 
L 759.976502 511.234062 
L 759.976502 0 
L 0 0 
z
" style="fill: #ffffff"/>
  </g>
  <g id="axes_1">
   <g id="patch_2">
    <path d="M 59.398438 476.745 
L 728.998438 476.745 
L 728.998438 33.225 
L 59.398438 33.225 
z
" style="fill: #ffffff"/>
   </g>
   <g id="matplotlib.axis_1">
    <g id="xtick_1">
     <g id="line2d_1">
      <defs>
       <path id="m732588e55b" d="M 0 0 
L 0 3.5 
" style="stroke: #000000; stroke-width: 0.8"/>
      </defs>
      <g>
       <use xlink:href="#m732588e55b" x="59.398438" y="476.745" style="stroke: #000000; stroke-width: 0.8"/>
      </g>
     </g>
     <g id="text_1">
      <!-- 01 Mar -->
      <g transform="translate(43.361719 491.018437)scale(0.1 -0.1)">
       <defs>
        <path id="Inter-Regular-30" d="M 2000 -64 
Q 1230 -64 806 561 
Q 382 1186 382 2327 
Q 382 3459 809 4088 
Q 1236 4718 2000 4718 
Q 2764 4718 3191 4088 
Q 3618 3459 3618 2327 
Q 3618 1186 3194 561 
Q 2771 -64 2000 -64 
z
M 2000 436 
Q 2509 436 2791 927 
Q 3073 1418 3073 2327 
Q 3073 3234 2789 3730 
Q 2505 4227 2000 4227 
Q 1496 4227 1211 3730 
Q 927 3234 927 2327 
Q 927 1418 1210 927 
Q 1493 436 2000 436 
z
" transform="scale(0.015625)"/>
        <path id="Inter-Regular-31" d="M 1973 4655 
L 1973 0 
L 1409 0 
L 1409 3836 
L 1373 3836 
Q 1341 3773 1209 3692 
Q 1077 3611 868 3551 
Q 659 3491 391 3491 
L 391 3964 
Q 661 3964 859 4061 
Q 1057 4159 1190 4291 
Q 1323 4423 1392 4529 
Q 1461 4636 1473 4655 
L 1973 4655 
z
" transform="scale(0.015625)"/>
        <path id="Inter-Regular-20" transform="scale(0.015625)"/>
        <path id="Inter-Regular-4d" d="M 564 4655 
L 1236 4655 
L 2818 791 
L 2873 791 
L 4455 4655 
L 5127 4655 
L 5127 0 
L 4600 0 
L 4600 3536 
L 4555 3536 
L 3100 0 
L 2591 0 
L 1136 3536 
L 1091 3536 
L 1091 0 
L 564 0 
L 564 4655 
z
" transform="scale(0.015625)"/>
        <path id="Inter-Regular-61" d="M 1518 -82 
Q 1186 -82 916 44 
Q 646 170 486 410 
Q 327 650 327 991 
Q 327 1291 445 1478 
Q 564 1666 761 1773 
Q 959 1880 1199 1933 
Q 1439 1986 1682 2018 
Q 2000 2059 2199 2080 
Q 2398 2102 2490 2154 
Q 2582 2207 2582 2336 
L 2582 2355 
Q 2582 2691 2399 2877 
Q 2216 3064 1846 3064 
Q 1461 3064 1243 2895 
Q 1025 2727 936 2536 
L 427 2718 
Q 564 3036 792 3214 
Q 1021 3393 1292 3464 
Q 1564 3536 1827 3536 
Q 1996 3536 2215 3496 
Q 2434 3457 2640 3334 
Q 2846 3211 2982 2963 
Q 3118 2716 3118 2300 
L 3118 0 
L 2582 0 
L 2582 473 
L 2555 473 
Q 2500 359 2373 229 
Q 2246 100 2034 9 
Q 1823 -82 1518 -82 
z
M 1600 400 
Q 1918 400 2137 525 
Q 2357 650 2469 847 
Q 2582 1045 2582 1264 
L 2582 1755 
Q 2548 1714 2433 1681 
Q 2318 1648 2169 1624 
Q 2021 1600 1881 1583 
Q 1741 1566 1655 1555 
Q 1446 1527 1265 1467 
Q 1084 1407 974 1287 
Q 864 1168 864 964 
Q 864 684 1072 542 
Q 1280 400 1600 400 
z
" transform="scale(0.015625)"/>
        <path id="Inter-Regular-72" d="M 491 0 
L 491 3491 
L 1009 3491 
L 1009 2964 
L 1046 2964 
Q 1139 3223 1389 3384 
Q 1639 3545 1955 3545 
Q 2100 3545 2209 3511 
Q 2318 3477 2400 3418 
L 2218 2964 
Q 2161 2993 2085 3010 
Q 2009 3027 1909 3027 
Q 1527 3027 1277 2794 
Q 1027 2561 1027 2209 
L 1027 0 
L 491 0 
z
" transform="scale(0.015625)"/>
       </defs>
       <use xlink:href="#Inter-Regular-30"/>
       <use xlink:href="#Inter-Regular-31" x="62.500015"/>
       <use xlink:href="#Inter-Regular-20" x="106.676163"/>
       <use xlink:href="#Inter-Regular-4d" x="134.801163"/>
       <use xlink:href="#Inter-Regular-61" x="225.99437"/>
       <use xlink:href="#Inter-Regular-72" x="282.386429"/>
      </g>
     </g>
    </g>
    <g id="xtick_2">
     <g id="line2d_2">
      <g>
       <use xlink:href="#m732588e55b" x="83.741235" y="476.745" style="stroke: #000000; stroke-width: 0.8"/>
      </g>
     </g>
    </g>
    <g id="xtick_3">
     <g id="line2d_3">
      <g>
       <use xlink:href="#m732588e55b" x="107.298782" y="476.745" style="stroke: #000000; stroke-width: 0.8"/>
      </g>
     </g>
     <g id="text_2">
      <!-- 01 May -->
      <g transform="translate(90.395657 491.116875)scale(0.1 -0.1)">
       <defs>
        <path id="Inter-Regular-79" d="M 818 -1355 
Q 682 -1355 575 -1333 
Q 468 -1311 427 -1291 
L 564 -818 
Q 857 -893 1053 -814 
Q 1250 -736 1391 -345 
L 1509 -18 
L 218 3491 
L 800 3491 
L 1764 709 
L 1800 709 
L 2764 3491 
L 3346 3491 
L 1846 -564 
Q 1550 -1355 818 -1355 
z
" transform="scale(0.015625)"/>
       </defs>
       <use xlink:href="#Inter-Regular-30"/>
       <use xlink:href="#Inter-Regular-31" x="62.500015"/>
       <use xlink:href="#Inter-Regular-20" x="106.676163"/>
       <use xlink:href="#Inter-Regular-4d" x="134.801163"/>
       <use xlink:href="#Inter-Regular-61" x="225.99437"/>
       <use xlink:href="#Inter-Regular-79" x="282.386429"/>
      </g>
     </g>
    </g>
    <g id="xtick_4">
     <g id="line2d_4">
      <g>
       <use xlink:href="#m732588e55b" x="131.641579" y="476.745" style="stroke: #000000; stroke-width: 0.8"/>
      </g>
     </g>
    </g>
    <g id="xtick_5">
     <g id="line2d_5">
      <g>
       <use xlink:href="#m732588e55b" x="155.199126" y="476.745" style="stroke: #000000; stroke-width: 0.8"/>
      </g>
     </g>
     <g id="text_3">
      <!-- 01 Jul -->
      <g transform="translate(141.655376 491.018437)scale(0.1 -0.1)">
       <defs>
        <path id="Inter-Regular-4a" d="M 2346 4655 
L 2909 4655 
L 2909 1327 
Q 2909 657 2549 296 
Q 2189 -64 1582 -64 
Q 1200 -64 902 76 
Q 605 216 434 475 
Q 264 734 264 1091 
L 818 1091 
Q 818 795 1034 615 
Q 1250 436 1582 436 
Q 1948 436 2147 664 
Q 2346 893 2346 1327 
L 2346 4655 
z
" transform="scale(0.015625)"/>
        <path id="Inter-Regular-75" d="M 2691 1427 
L 2691 3491 
L 3227 3491 
L 3227 0 
L 2691 0 
L 2691 591 
L 2655 591 
Q 2532 325 2273 140 
Q 2014 -45 1618 -45 
Q 1127 -45 809 280 
Q 491 605 491 1273 
L 491 3491 
L 1027 3491 
L 1027 1309 
Q 1027 927 1242 700 
Q 1457 473 1791 473 
Q 1991 473 2199 575 
Q 2407 677 2549 888 
Q 2691 1100 2691 1427 
z
" transform="scale(0.015625)"/>
        <path id="Inter-Regular-6c" d="M 1027 4655 
L 1027 0 
L 491 0 
L 491 4655 
L 1027 4655 
z
" transform="scale(0.015625)"/>
       </defs>
       <use xlink:href="#Inter-Regular-30"/>
       <use xlink:href="#Inter-Regular-31" x="62.500015"/>
       <use xlink:href="#Inter-Regular-20" x="106.676163"/>
       <use xlink:href="#Inter-Regular-4a" x="134.801163"/>
       <use xlink:href="#Inter-Regular-75" x="189.062531"/>
       <use xlink:href="#Inter-Regular-6c" x="247.159134"/>
      </g>
     </g>
    </g>
    <g id="xtick_6">
     <g id="line2d_6">
      <g>
       <use xlink:href="#m732588e55b" x="179.541923" y="476.745" style="stroke: #000000; stroke-width: 0.8"/>
      </g>
     </g>
    </g>
    <g id="xtick_7">
     <g id="line2d_7">
      <g>
       <use xlink:href="#m732588e55b" x="203.884721" y="476.745" style="stroke: #000000; stroke-width: 0.8"/>
      </g>
     </g>
     <g id="text_4">
      <!-- 01 Sep -->
      <g transform="translate(187.997221 491.116875)scale(0.1 -0.1)">
       <defs>
        <path id="Inter-Regular-53" d="M 3109 3491 
Q 3068 3836 2777 4027 
Q 2486 4218 2064 4218 
Q 1600 4218 1318 3999 
Q 1036 3780 1036 3445 
Q 1036 3195 1189 3042 
Q 1343 2889 1553 2803 
Q 1764 2718 1936 2673 
L 2409 2545 
Q 2591 2498 2815 2414 
Q 3039 2330 3244 2185 
Q 3450 2041 3584 1816 
Q 3718 1591 3718 1264 
Q 3718 886 3521 581 
Q 3325 277 2949 97 
Q 2573 -82 2036 -82 
Q 1286 -82 845 272 
Q 405 627 364 1200 
L 946 1200 
Q 968 936 1124 764 
Q 1280 593 1519 510 
Q 1759 427 2036 427 
Q 2359 427 2616 533 
Q 2873 639 3023 828 
Q 3173 1018 3173 1273 
Q 3173 1505 3043 1650 
Q 2914 1795 2702 1886 
Q 2491 1977 2246 2045 
L 1673 2209 
Q 1127 2366 809 2657 
Q 491 2948 491 3418 
Q 491 3809 703 4101 
Q 916 4393 1276 4555 
Q 1636 4718 2082 4718 
Q 2532 4718 2882 4558 
Q 3232 4398 3437 4120 
Q 3643 3843 3655 3491 
L 3109 3491 
z
" transform="scale(0.015625)"/>
        <path id="Inter-Regular-65" d="M 1955 -73 
Q 1450 -73 1085 151 
Q 721 375 524 778 
Q 327 1182 327 1718 
Q 327 2255 524 2665 
Q 721 3075 1074 3305 
Q 1427 3536 1900 3536 
Q 2173 3536 2439 3445 
Q 2705 3355 2923 3151 
Q 3141 2948 3270 2614 
Q 3400 2280 3400 1791 
L 3400 1564 
L 866 1564 
Q 884 1005 1183 707 
Q 1482 409 1955 409 
Q 2271 409 2498 545 
Q 2725 682 2827 955 
L 3346 809 
Q 3223 414 2854 170 
Q 2486 -73 1955 -73 
z
M 866 2027 
L 2855 2027 
Q 2855 2470 2595 2762 
Q 2336 3055 1900 3055 
Q 1593 3055 1368 2911 
Q 1143 2768 1013 2533 
Q 884 2298 866 2027 
z
" transform="scale(0.015625)"/>
        <path id="Inter-Regular-70" d="M 491 -1309 
L 491 3491 
L 1009 3491 
L 1009 2936 
L 1073 2936 
Q 1132 3027 1237 3169 
Q 1343 3311 1542 3423 
Q 1741 3536 2082 3536 
Q 2523 3536 2859 3315 
Q 3196 3095 3384 2690 
Q 3573 2286 3573 1736 
Q 3573 1182 3384 776 
Q 3196 370 2861 148 
Q 2527 -73 2091 -73 
Q 1755 -73 1552 39 
Q 1350 152 1241 296 
Q 1132 441 1073 536 
L 1027 536 
L 1027 -1309 
L 491 -1309 
z
M 1018 1745 
Q 1018 1152 1276 780 
Q 1534 409 2018 409 
Q 2355 409 2581 587 
Q 2807 766 2921 1069 
Q 3036 1373 3036 1745 
Q 3036 2114 2923 2410 
Q 2811 2707 2585 2881 
Q 2359 3055 2018 3055 
Q 1527 3055 1272 2693 
Q 1018 2332 1018 1745 
z
" transform="scale(0.015625)"/>
       </defs>
       <use xlink:href="#Inter-Regular-30"/>
       <use xlink:href="#Inter-Regular-31" x="62.500015"/>
       <use xlink:href="#Inter-Regular-20" x="106.676163"/>
       <use xlink:href="#Inter-Regular-53" x="134.801163"/>
       <use xlink:href="#Inter-Regular-65" x="198.57959"/>
       <use xlink:href="#Inter-Regular-70" x="256.818237"/>
      </g>
     </g>
    </g>
    <g id="xtick_8">
     <g id="line2d_8">
      <g>
       <use xlink:href="#m732588e55b" x="227.442268" y="476.745" style="stroke: #000000; stroke-width: 0.8"/>
      </g>
     </g>
    </g>
    <g id="xtick_9">
     <g id="line2d_9">
      <g>
       <use xlink:href="#m732588e55b" x="251.785065" y="476.745" style="stroke: #000000; stroke-width: 0.8"/>
      </g>
     </g>
     <g id="text_5">
      <!-- 01 Nov -->
      <g transform="translate(235.513972 491.018437)scale(0.1 -0.1)">
       <defs>
        <path id="Inter-Regular-4e" d="M 4255 4655 
L 4255 0 
L 3709 0 
L 1173 3655 
L 1127 3655 
L 1127 0 
L 564 0 
L 564 4655 
L 1109 4655 
L 3655 991 
L 3700 991 
L 3700 4655 
L 4255 4655 
z
" transform="scale(0.015625)"/>
        <path id="Inter-Regular-6f" d="M 1909 -73 
Q 1436 -73 1080 152 
Q 725 377 526 781 
Q 327 1186 327 1727 
Q 327 2273 526 2679 
Q 725 3086 1080 3311 
Q 1436 3536 1909 3536 
Q 2382 3536 2737 3311 
Q 3093 3086 3292 2679 
Q 3491 2273 3491 1727 
Q 3491 1186 3292 781 
Q 3093 377 2737 152 
Q 2382 -73 1909 -73 
z
M 1909 409 
Q 2268 409 2500 593 
Q 2732 777 2843 1077 
Q 2955 1377 2955 1727 
Q 2955 2077 2843 2379 
Q 2732 2682 2500 2868 
Q 2268 3055 1909 3055 
Q 1550 3055 1318 2868 
Q 1086 2682 975 2379 
Q 864 2077 864 1727 
Q 864 1377 975 1077 
Q 1086 777 1318 593 
Q 1550 409 1909 409 
z
" transform="scale(0.015625)"/>
        <path id="Inter-Regular-76" d="M 3346 3491 
L 2055 0 
L 1509 0 
L 218 3491 
L 800 3491 
L 1764 709 
L 1800 709 
L 2764 3491 
L 3346 3491 
z
" transform="scale(0.015625)"/>
       </defs>
       <use xlink:href="#Inter-Regular-30"/>
       <use xlink:href="#Inter-Regular-31" x="62.500015"/>
       <use xlink:href="#Inter-Regular-20" x="106.676163"/>
       <use xlink:href="#Inter-Regular-4e" x="134.801163"/>
       <use xlink:href="#Inter-Regular-6f" x="210.085266"/>
       <use xlink:href="#Inter-Regular-76" x="269.74437"/>
      </g>
     </g>
    </g>
    <g id="xtick_10">
     <g id="line2d_10">
      <g>
       <use xlink:href="#m732588e55b" x="275.342612" y="476.745" style="stroke: #000000; stroke-width: 0.8"/>
      </g>
     </g>
    </g>
    <g id="xtick_11">
     <g id="line2d_11">
      <g>
       <use xlink:href="#m732588e55b" x="299.685409" y="476.745" style="stroke: #000000; stroke-width: 0.8"/>
      </g>
     </g>
     <g id="text_6">
      <!-- 01 Jan -->
      <g transform="translate(284.486191 491.018437)scale(0.1 -0.1)">
       <defs>
        <path id="Inter-Regular-6e" d="M 1027 2100 
L 1027 0 
L 491 0 
L 491 3491 
L 1009 3491 
L 1009 2945 
L 1055 2945 
Q 1177 3211 1427 3373 
Q 1677 3536 2073 3536 
Q 2602 3536 2928 3211 
Q 3255 2886 3255 2218 
L 3255 0 
L 2718 0 
L 2718 2182 
Q 2718 2593 2504 2824 
Q 2291 3055 1918 3055 
Q 1534 3055 1280 2806 
Q 1027 2557 1027 2100 
z
" transform="scale(0.015625)"/>
       </defs>
       <use xlink:href="#Inter-Regular-30"/>
       <use xlink:href="#Inter-Regular-31" x="62.500015"/>
       <use xlink:href="#Inter-Regular-20" x="106.676163"/>
       <use xlink:href="#Inter-Regular-4a" x="134.801163"/>
       <use xlink:href="#Inter-Regular-61" x="189.062531"/>
       <use xlink:href="#Inter-Regular-6e" x="245.45459"/>
      </g>
     </g>
    </g>
    <g id="xtick_12">
     <g id="line2d_12">
      <g>
       <use xlink:href="#m732588e55b" x="324.028207" y="476.745" style="stroke: #000000; stroke-width: 0.8"/>
      </g>
     </g>
    </g>
    <g id="xtick_13">
     <g id="line2d_13">
      <g>
       <use xlink:href="#m732588e55b" x="346.015251" y="476.745" style="stroke: #000000; stroke-width: 0.8"/>
      </g>
     </g>
     <g id="text_7">
      <!-- 01 Mar -->
      <g transform="translate(329.978532 491.018437)scale(0.1 -0.1)">
       <use xlink:href="#Inter-Regular-30"/>
       <use xlink:href="#Inter-Regular-31" x="62.500015"/>
       <use xlink:href="#Inter-Regular-20" x="106.676163"/>
       <use xlink:href="#Inter-Regular-4d" x="134.801163"/>
       <use xlink:href="#Inter-Regular-61" x="225.99437"/>
       <use xlink:href="#Inter-Regular-72" x="282.386429"/>
      </g>
     </g>
    </g>
    <g id="xtick_14">
     <g id="line2d_14">
      <g>
       <use xlink:href="#m732588e55b" x="370.358048" y="476.745" style="stroke: #000000; stroke-width: 0.8"/>
      </g>
     </g>
    </g>
    <g id="xtick_15">
     <g id="line2d_15">
      <g>
       <use xlink:href="#m732588e55b" x="393.915595" y="476.745" style="stroke: #000000; stroke-width: 0.8"/>
      </g>
     </g>
     <g id="text_8">
      <!-- 01 May -->
      <g transform="translate(377.01247 491.116875)scale(0.1 -0.1)">
       <use xlink:href="#Inter-Regular-30"/>
       <use xlink:href="#Inter-Regular-31" x="62.500015"/>
       <use xlink:href="#Inter-Regular-20" x="106.676163"/>
       <use xlink:href="#Inter-Regular-4d" x="134.801163"/>
       <use xlink:href="#Inter-Regular-61" x="225.99437"/>
       <use xlink:href="#Inter-Regular-79" x="282.386429"/>
      </g>
     </g>
    </g>
    <g id="xtick_16">
     <g id="line2d_16">
      <g>
       <use xlink:href="#m732588e55b" x="418.258392" y="476.745" style="stroke: #000000; stroke-width: 0.8"/>
      </g>
     </g>
    </g>
    <g id="xtick_17">
     <g id="line2d_17">
      <g>
       <use xlink:href="#m732588e55b" x="441.815939" y="476.745" style="stroke: #000000; stroke-width: 0.8"/>
      </g>
     </g>
     <g id="text_9">
      <!-- 01 Jul -->
      <g transform="translate(428.272189 491.018437)scale(0.1 -0.1)">
       <use xlink:href="#Inter-Regular-30"/>
       <use xlink:href="#Inter-Regular-31" x="62.500015"/>
       <use xlink:href="#Inter-Regular-20" x="106.676163"/>
       <use xlink:href="#Inter-Regular-4a" x="134.801163"/>
       <use xlink:href="#Inter-Regular-75" x="189.062531"/>
       <use xlink:href="#Inter-Regular-6c" x="247.159134"/>
      </g>
     </g>
    </g>
    <g id="xtick_18">
     <g id="line2d_18">
      <g>
       <use xlink:href="#m732588e55b" x="466.158736" y="476.745" style="stroke: #000000; stroke-width: 0.8"/>
      </g>
     </g>
    </g>
    <g id="xtick_19">
     <g id="line2d_19">
      <g>
       <use xlink:href="#m732588e55b" x="490.501534" y="476.745" style="stroke: #000000; stroke-width: 0.8"/>
      </g>
     </g>
     <g id="text_10">
      <!-- 01 Sep -->
      <g transform="translate(474.614034 491.116875)scale(0.1 -0.1)">
       <use xlink:href="#Inter-Regular-30"/>
       <use xlink:href="#Inter-Regular-31" x="62.500015"/>
       <use xlink:href="#Inter-Regular-20" x="106.676163"/>
       <use xlink:href="#Inter-Regular-53" x="134.801163"/>
       <use xlink:href="#Inter-Regular-65" x="198.57959"/>
       <use xlink:href="#Inter-Regular-70" x="256.818237"/>
      </g>
     </g>
    </g>
    <g id="xtick_20">
     <g id="line2d_20">
      <g>
       <use xlink:href="#m732588e55b" x="514.059081" y="476.745" style="stroke: #000000; stroke-width: 0.8"/>
      </g>
     </g>
    </g>
    <g id="xtick_21">
     <g id="line2d_21">
      <g>
       <use xlink:href="#m732588e55b" x="538.401878" y="476.745" style="stroke: #000000; stroke-width: 0.8"/>
      </g>
     </g>
     <g id="text_11">
      <!-- 01 Nov -->
      <g transform="translate(522.130785 491.018437)scale(0.1 -0.1)">
       <use xlink:href="#Inter-Regular-30"/>
       <use xlink:href="#Inter-Regular-31" x="62.500015"/>
       <use xlink:href="#Inter-Regular-20" x="106.676163"/>
       <use xlink:href="#Inter-Regular-4e" x="134.801163"/>
       <use xlink:href="#Inter-Regular-6f" x="210.085266"/>
       <use xlink:href="#Inter-Regular-76" x="269.74437"/>
      </g>
     </g>
    </g>
    <g id="xtick_22">
     <g id="line2d_22">
      <g>
       <use xlink:href="#m732588e55b" x="561.959425" y="476.745" style="stroke: #000000; stroke-width: 0.8"/>
      </g>
     </g>
    </g>
    <g id="xtick_23">
     <g id="line2d_23">
      <g>
       <use xlink:href="#m732588e55b" x="586.302222" y="476.745" style="stroke: #000000; stroke-width: 0.8"/>
      </g>
     </g>
     <g id="text_12">
      <!-- 01 Jan -->
      <g transform="translate(571.103004 491.018437)scale(0.1 -0.1)">
       <use xlink:href="#Inter-Regular-30"/>
       <use xlink:href="#Inter-Regular-31" x="62.500015"/>
       <use xlink:href="#Inter-Regular-20" x="106.676163"/>
       <use xlink:href="#Inter-Regular-4a" x="134.801163"/>
       <use xlink:href="#Inter-Regular-61" x="189.062531"/>
       <use xlink:href="#Inter-Regular-6e" x="245.45459"/>
      </g>
     </g>
    </g>
    <g id="xtick_24">
     <g id="line2d_24">
      <g>
       <use xlink:href="#m732588e55b" x="610.64502" y="476.745" style="stroke: #000000; stroke-width: 0.8"/>
      </g>
     </g>
    </g>
    <g id="xtick_25">
     <g id="line2d_25">
      <g>
       <use xlink:href="#m732588e55b" x="632.632064" y="476.745" style="stroke: #000000; stroke-width: 0.8"/>
      </g>
     </g>
     <g id="text_13">
      <!-- 01 Mar -->
      <g transform="translate(616.595345 491.018437)scale(0.1 -0.1)">
       <use xlink:href="#Inter-Regular-30"/>
       <use xlink:href="#Inter-Regular-31" x="62.500015"/>
       <use xlink:href="#Inter-Regular-20" x="106.676163"/>
       <use xlink:href="#Inter-Regular-4d" x="134.801163"/>
       <use xlink:href="#Inter-Regular-61" x="225.99437"/>
       <use xlink:href="#Inter-Regular-72" x="282.386429"/>
      </g>
     </g>
    </g>
    <g id="xtick_26">
     <g id="line2d_26">
      <g>
       <use xlink:href="#m732588e55b" x="656.974861" y="476.745" style="stroke: #000000; stroke-width: 0.8"/>
      </g>
     </g>
    </g>
    <g id="xtick_27">
     <g id="line2d_27">
      <g>
       <use xlink:href="#m732588e55b" x="680.532408" y="476.745" style="stroke: #000000; stroke-width: 0.8"/>
      </g>
     </g>
     <g id="text_14">
      <!-- 01 May -->
      <g transform="translate(663.629283 491.116875)scale(0.1 -0.1)">
       <use xlink:href="#Inter-Regular-30"/>
       <use xlink:href="#Inter-Regular-31" x="62.500015"/>
       <use xlink:href="#Inter-Regular-20" x="106.676163"/>
       <use xlink:href="#Inter-Regular-4d" x="134.801163"/>
       <use xlink:href="#Inter-Regular-61" x="225.99437"/>
       <use xlink:href="#Inter-Regular-79" x="282.386429"/>
      </g>
     </g>
    </g>
    <g id="xtick_28">
     <g id="line2d_28">
      <g>
       <use xlink:href="#m732588e55b" x="704.875205" y="476.745" style="stroke: #000000; stroke-width: 0.8"/>
      </g>
     </g>
    </g>
    <g id="xtick_29">
     <g id="line2d_29">
      <g>
       <use xlink:href="#m732588e55b" x="728.432752" y="476.745" style="stroke: #000000; stroke-width: 0.8"/>
      </g>
     </g>
     <g id="text_15">
      <!-- 01 Jul -->
      <g transform="translate(714.889002 491.018437)scale(0.1 -0.1)">
       <use xlink:href="#Inter-Regular-30"/>
       <use xlink:href="#Inter-Regular-31" x="62.500015"/>
       <use xlink:href="#Inter-Regular-20" x="106.676163"/>
       <use xlink:href="#Inter-Regular-4a" x="134.801163"/>
       <use xlink:href="#Inter-Regular-75" x="189.062531"/>
       <use xlink:href="#Inter-Regular-6c" x="247.159134"/>
      </g>
     </g>
    </g>
   </g>
   <g id="matplotlib.axis_2">
    <g id="ytick_1">
     <g id="line2d_30">
      <path d="M 59.398438 476.745 
L 728.998438 476.745 
" clip-path="url(#p5e300b430d)" style="fill: none; stroke: #e5e5e5; stroke-width: 0.8; stroke-linecap: square"/>
     </g>
     <g id="line2d_31">
      <defs>
       <path id="mf2b1590024" d="M 0 0 
L -3.5 0 
" style="stroke: #000000; stroke-width: 0.8"/>
      </defs>
      <g>
       <use xlink:href="#mf2b1590024" x="59.398438" y="476.745" style="stroke: #000000; stroke-width: 0.8"/>
      </g>
     </g>
     <g id="text_16">
      <!-- 0% -->
      <g transform="translate(38.023438 480.381719)scale(0.1 -0.1)">
       <defs>
        <path id="Inter-Regular-25" d="M 2855 873 
L 2855 1118 
Q 2855 1373 2960 1585 
Q 3066 1798 3269 1926 
Q 3473 2055 3764 2055 
Q 4059 2055 4259 1926 
Q 4459 1798 4561 1585 
Q 4664 1373 4664 1118 
L 4664 873 
Q 4664 618 4560 405 
Q 4457 193 4256 64 
Q 4055 -64 3764 -64 
Q 3468 -64 3266 64 
Q 3064 193 2959 405 
Q 2855 618 2855 873 
z
M 536 3536 
L 536 3782 
Q 536 4036 642 4248 
Q 748 4461 951 4589 
Q 1155 4718 1446 4718 
Q 1741 4718 1941 4589 
Q 2141 4461 2243 4248 
Q 2346 4036 2346 3782 
L 2346 3536 
Q 2346 3282 2242 3069 
Q 2139 2857 1937 2728 
Q 1736 2600 1446 2600 
Q 1150 2600 948 2728 
Q 746 2857 641 3069 
Q 536 3282 536 3536 
z
M 709 0 
L 3909 4655 
L 4427 4655 
L 1227 0 
L 709 0 
z
M 3318 1118 
L 3318 873 
Q 3318 661 3418 494 
Q 3518 327 3764 327 
Q 4002 327 4101 494 
Q 4200 661 4200 873 
L 4200 1118 
Q 4200 1330 4104 1497 
Q 4009 1664 3764 1664 
Q 3525 1664 3421 1497 
Q 3318 1330 3318 1118 
z
M 1000 3782 
L 1000 3536 
Q 1000 3325 1100 3158 
Q 1200 2991 1446 2991 
Q 1684 2991 1783 3158 
Q 1882 3325 1882 3536 
L 1882 3782 
Q 1882 3993 1786 4160 
Q 1691 4327 1446 4327 
Q 1207 4327 1103 4160 
Q 1000 3993 1000 3782 
z
" transform="scale(0.015625)"/>
       </defs>
       <use xlink:href="#Inter-Regular-30"/>
       <use xlink:href="#Inter-Regular-25" x="62.500015"/>
      </g>
     </g>
    </g>
    <g id="ytick_2">
     <g id="line2d_32">
      <path d="M 59.398438 420.175085 
L 728.998438 420.175085 
" clip-path="url(#p5e300b430d)" style="fill: none; stroke: #e5e5e5; stroke-width: 0.8; stroke-linecap: square"/>
     </g>
     <g id="line2d_33">
      <g>
       <use xlink:href="#mf2b1590024" x="59.398438" y="420.175085" style="stroke: #000000; stroke-width: 0.8"/>
      </g>
     </g>
     <g id="text_17">
      <!-- 5% -->
      <g transform="translate(38.19375 423.811804)scale(0.1 -0.1)">
       <defs>
        <path id="Inter-Regular-35" d="M 1936 -64 
Q 1536 -64 1216 95 
Q 896 255 702 532 
Q 509 809 491 1164 
L 1036 1164 
Q 1068 848 1324 642 
Q 1580 436 1936 436 
Q 2223 436 2447 570 
Q 2671 705 2799 940 
Q 2927 1175 2927 1473 
Q 2927 1777 2794 2017 
Q 2661 2257 2429 2395 
Q 2198 2534 1900 2536 
Q 1686 2539 1461 2472 
Q 1236 2405 1091 2300 
L 564 2364 
L 846 4655 
L 3264 4655 
L 3264 4155 
L 1318 4155 
L 1155 2782 
L 1182 2782 
Q 1325 2895 1541 2970 
Q 1757 3045 1991 3045 
Q 2418 3045 2753 2842 
Q 3089 2639 3281 2286 
Q 3473 1934 3473 1482 
Q 3473 1036 3274 687 
Q 3075 339 2727 137 
Q 2380 -64 1936 -64 
z
" transform="scale(0.015625)"/>
       </defs>
       <use xlink:href="#Inter-Regular-35"/>
       <use xlink:href="#Inter-Regular-25" x="60.795471"/>
      </g>
     </g>
    </g>
    <g id="ytick_3">
     <g id="line2d_34">
      <path d="M 59.398438 363.60517 
L 728.998438 363.60517 
" clip-path="url(#p5e300b430d)" style="fill: none; stroke: #e5e5e5; stroke-width: 0.8; stroke-linecap: square"/>
     </g>
     <g id="line2d_35">
      <g>
       <use xlink:href="#mf2b1590024" x="59.398438" y="363.60517" style="stroke: #000000; stroke-width: 0.8"/>
      </g>
     </g>
     <g id="text_18">
      <!-- 10% -->
      <g transform="translate(33.60625 367.241889)scale(0.1 -0.1)">
       <use xlink:href="#Inter-Regular-31"/>
       <use xlink:href="#Inter-Regular-30" x="44.176147"/>
       <use xlink:href="#Inter-Regular-25" x="106.676163"/>
      </g>
     </g>
    </g>
    <g id="ytick_4">
     <g id="line2d_36">
      <path d="M 59.398438 307.035255 
L 728.998438 307.035255 
" clip-path="url(#p5e300b430d)" style="fill: none; stroke: #e5e5e5; stroke-width: 0.8; stroke-linecap: square"/>
     </g>
     <g id="line2d_37">
      <g>
       <use xlink:href="#mf2b1590024" x="59.398438" y="307.035255" style="stroke: #000000; stroke-width: 0.8"/>
      </g>
     </g>
     <g id="text_19">
      <!-- 15% -->
      <g transform="translate(33.776563 310.671974)scale(0.1 -0.1)">
       <use xlink:href="#Inter-Regular-31"/>
       <use xlink:href="#Inter-Regular-35" x="44.176147"/>
       <use xlink:href="#Inter-Regular-25" x="104.971619"/>
      </g>
     </g>
    </g>
    <g id="ytick_5">
     <g id="line2d_38">
      <path d="M 59.398438 250.46534 
L 728.998438 250.46534 
" clip-path="url(#p5e300b430d)" style="fill: none; stroke: #e5e5e5; stroke-width: 0.8; stroke-linecap: square"/>
     </g>
     <g id="line2d_39">
      <g>
       <use xlink:href="#mf2b1590024" x="59.398438" y="250.46534" style="stroke: #000000; stroke-width: 0.8"/>
      </g>
     </g>
     <g id="text_20">
      <!-- 20% -->
      <g transform="translate(31.971875 254.102059)scale(0.1 -0.1)">
       <defs>
        <path id="Inter-Regular-32" d="M 482 0 
L 482 409 
L 2018 2091 
Q 2289 2386 2464 2605 
Q 2639 2825 2724 3019 
Q 2809 3214 2809 3427 
Q 2809 3795 2553 4011 
Q 2298 4227 1918 4227 
Q 1514 4227 1275 3985 
Q 1036 3743 1036 3345 
L 500 3345 
Q 500 3755 688 4064 
Q 877 4373 1203 4545 
Q 1530 4718 1936 4718 
Q 2346 4718 2661 4545 
Q 2977 4373 3156 4079 
Q 3336 3786 3336 3427 
Q 3336 3170 3244 2926 
Q 3152 2682 2926 2383 
Q 2700 2084 2300 1655 
L 1255 536 
L 1255 500 
L 3418 500 
L 3418 0 
L 482 0 
z
" transform="scale(0.015625)"/>
       </defs>
       <use xlink:href="#Inter-Regular-32"/>
       <use xlink:href="#Inter-Regular-30" x="60.511383"/>
       <use xlink:href="#Inter-Regular-25" x="123.011398"/>
      </g>
     </g>
    </g>
    <g id="ytick_6">
     <g id="line2d_40">
      <path d="M 59.398438 193.895425 
L 728.998438 193.895425 
" clip-path="url(#p5e300b430d)" style="fill: none; stroke: #e5e5e5; stroke-width: 0.8; stroke-linecap: square"/>
     </g>
     <g id="line2d_41">
      <g>
       <use xlink:href="#mf2b1590024" x="59.398438" y="193.895425" style="stroke: #000000; stroke-width: 0.8"/>
      </g>
     </g>
     <g id="text_21">
      <!-- 25% -->
      <g transform="translate(32.142188 197.532144)scale(0.1 -0.1)">
       <use xlink:href="#Inter-Regular-32"/>
       <use xlink:href="#Inter-Regular-35" x="60.511383"/>
       <use xlink:href="#Inter-Regular-25" x="121.306854"/>
      </g>
     </g>
    </g>
    <g id="ytick_7">
     <g id="line2d_42">
      <path d="M 59.398438 137.32551 
L 728.998438 137.32551 
" clip-path="url(#p5e300b430d)" style="fill: none; stroke: #e5e5e5; stroke-width: 0.8; stroke-linecap: square"/>
     </g>
     <g id="line2d_43">
      <g>
       <use xlink:href="#mf2b1590024" x="59.398438" y="137.32551" style="stroke: #000000; stroke-width: 0.8"/>
      </g>
     </g>
     <g id="text_22">
      <!-- 30% -->
      <g transform="translate(31.659375 140.962228)scale(0.1 -0.1)">
       <defs>
        <path id="Inter-Regular-33" d="M 2055 -64 
Q 1605 -64 1253 90 
Q 902 245 696 521 
Q 491 798 473 1164 
L 1046 1164 
Q 1071 827 1356 631 
Q 1641 436 2046 436 
Q 2493 436 2783 664 
Q 3073 893 3073 1264 
Q 3073 1650 2787 1893 
Q 2502 2136 1973 2136 
L 1600 2136 
L 1600 2636 
L 1973 2636 
Q 2386 2636 2647 2856 
Q 2909 3077 2909 3445 
Q 2909 3798 2679 4012 
Q 2450 4227 2064 4227 
Q 1823 4227 1610 4139 
Q 1398 4052 1264 3887 
Q 1130 3723 1118 3491 
L 573 3491 
Q 586 3857 793 4133 
Q 1000 4409 1335 4563 
Q 1671 4718 2073 4718 
Q 2505 4718 2814 4544 
Q 3123 4370 3289 4086 
Q 3455 3802 3455 3473 
Q 3455 3080 3249 2802 
Q 3043 2525 2691 2418 
L 2691 2382 
Q 3132 2309 3379 2008 
Q 3627 1707 3627 1264 
Q 3627 884 3421 583 
Q 3216 282 2861 109 
Q 2507 -64 2055 -64 
z
" transform="scale(0.015625)"/>
       </defs>
       <use xlink:href="#Inter-Regular-33"/>
       <use xlink:href="#Inter-Regular-30" x="63.636383"/>
       <use xlink:href="#Inter-Regular-25" x="126.136398"/>
      </g>
     </g>
    </g>
    <g id="ytick_8">
     <g id="line2d_44">
      <path d="M 59.398438 80.755595 
L 728.998438 80.755595 
" clip-path="url(#p5e300b430d)" style="fill: none; stroke: #e5e5e5; stroke-width: 0.8; stroke-linecap: square"/>
     </g>
     <g id="line2d_45">
      <g>
       <use xlink:href="#mf2b1590024" x="59.398438" y="80.755595" style="stroke: #000000; stroke-width: 0.8"/>
      </g>
     </g>
     <g id="text_23">
      <!-- 35% -->
      <g transform="translate(31.829688 84.392313)scale(0.1 -0.1)">
       <use xlink:href="#Inter-Regular-33"/>
       <use xlink:href="#Inter-Regular-35" x="63.636383"/>
       <use xlink:href="#Inter-Regular-25" x="124.431854"/>
      </g>
     </g>
    </g>
    <g id="text_24">
     <!-- Percent of nation tested positive -->
     <g transform="translate(25.614063 332.215469)rotate(-90)scale(0.1 -0.1)">
      <defs>
       <path id="Inter-Regular-50" d="M 564 0 
L 564 4655 
L 2136 4655 
Q 2684 4655 3033 4458 
Q 3382 4261 3550 3927 
Q 3718 3593 3718 3182 
Q 3718 2770 3551 2434 
Q 3384 2098 3036 1899 
Q 2689 1700 2146 1700 
L 1127 1700 
L 1127 0 
L 564 0 
z
M 1127 2200 
L 2127 2200 
Q 2689 2200 2926 2482 
Q 3164 2764 3164 3182 
Q 3164 3602 2925 3878 
Q 2686 4155 2118 4155 
L 1127 4155 
L 1127 2200 
z
" transform="scale(0.015625)"/>
       <path id="Inter-Regular-63" d="M 1909 -73 
Q 1418 -73 1063 159 
Q 709 391 518 798 
Q 327 1205 327 1727 
Q 327 2259 524 2667 
Q 721 3075 1074 3305 
Q 1427 3536 1900 3536 
Q 2268 3536 2563 3400 
Q 2859 3264 3047 3018 
Q 3236 2773 3282 2445 
L 2746 2445 
Q 2684 2684 2474 2869 
Q 2264 3055 1909 3055 
Q 1439 3055 1151 2697 
Q 864 2339 864 1745 
Q 864 1139 1148 774 
Q 1432 409 1909 409 
Q 2223 409 2447 570 
Q 2671 732 2746 1018 
L 3282 1018 
Q 3236 709 3058 462 
Q 2880 216 2588 71 
Q 2296 -73 1909 -73 
z
" transform="scale(0.015625)"/>
       <path id="Inter-Regular-74" d="M 2009 3491 
L 2009 3036 
L 1264 3036 
L 1264 1000 
Q 1264 773 1331 660 
Q 1398 548 1503 510 
Q 1609 473 1727 473 
Q 1816 473 1873 483 
Q 1930 493 1964 500 
L 2073 18 
Q 2018 -2 1920 -23 
Q 1823 -45 1673 -45 
Q 1446 -45 1228 52 
Q 1011 150 869 350 
Q 727 550 727 855 
L 727 3036 
L 200 3036 
L 200 3491 
L 727 3491 
L 727 4327 
L 1264 4327 
L 1264 3491 
L 2009 3491 
z
" transform="scale(0.015625)"/>
       <path id="Inter-Regular-66" d="M 2046 3491 
L 2046 3036 
L 1264 3036 
L 1264 0 
L 727 0 
L 727 3036 
L 164 3036 
L 164 3491 
L 727 3491 
L 727 3973 
Q 727 4273 868 4473 
Q 1009 4673 1234 4773 
Q 1459 4873 1709 4873 
Q 1907 4873 2032 4841 
Q 2157 4809 2218 4782 
L 2064 4318 
Q 2023 4332 1951 4352 
Q 1880 4373 1764 4373 
Q 1498 4373 1381 4239 
Q 1264 4105 1264 3845 
L 1264 3491 
L 2046 3491 
z
" transform="scale(0.015625)"/>
       <path id="Inter-Regular-69" d="M 491 0 
L 491 3491 
L 1027 3491 
L 1027 0 
L 491 0 
z
M 764 4073 
Q 607 4073 494 4179 
Q 382 4286 382 4436 
Q 382 4586 494 4693 
Q 607 4800 764 4800 
Q 921 4800 1033 4693 
Q 1146 4586 1146 4436 
Q 1146 4286 1033 4179 
Q 921 4073 764 4073 
z
" transform="scale(0.015625)"/>
       <path id="Inter-Regular-73" d="M 2964 2709 
L 2482 2573 
Q 2411 2755 2245 2914 
Q 2080 3073 1727 3073 
Q 1407 3073 1194 2926 
Q 982 2780 982 2555 
Q 982 2355 1127 2239 
Q 1273 2123 1582 2045 
L 2100 1918 
Q 3027 1691 3027 973 
Q 3027 673 2855 436 
Q 2684 200 2377 63 
Q 2071 -73 1664 -73 
Q 1130 -73 780 159 
Q 430 391 336 836 
L 846 964 
Q 989 400 1655 400 
Q 2030 400 2251 560 
Q 2473 720 2473 945 
Q 2473 1316 1955 1436 
L 1373 1573 
Q 893 1686 669 1926 
Q 446 2166 446 2527 
Q 446 2823 613 3050 
Q 780 3277 1069 3406 
Q 1359 3536 1727 3536 
Q 2246 3536 2542 3309 
Q 2839 3082 2964 2709 
z
" transform="scale(0.015625)"/>
       <path id="Inter-Regular-64" d="M 1809 -73 
Q 1373 -73 1039 148 
Q 705 370 516 776 
Q 327 1182 327 1736 
Q 327 2286 516 2690 
Q 705 3095 1041 3315 
Q 1377 3536 1818 3536 
Q 2159 3536 2358 3423 
Q 2557 3311 2662 3169 
Q 2768 3027 2827 2936 
L 2873 2936 
L 2873 4655 
L 3409 4655 
L 3409 0 
L 2891 0 
L 2891 536 
L 2827 536 
Q 2768 441 2659 296 
Q 2550 152 2348 39 
Q 2146 -73 1809 -73 
z
M 1882 409 
Q 2366 409 2624 780 
Q 2882 1152 2882 1745 
Q 2882 2332 2627 2693 
Q 2373 3055 1882 3055 
Q 1541 3055 1315 2881 
Q 1089 2707 976 2410 
Q 864 2114 864 1745 
Q 864 1373 978 1069 
Q 1093 766 1319 587 
Q 1546 409 1882 409 
z
" transform="scale(0.015625)"/>
      </defs>
      <use xlink:href="#Inter-Regular-50"/>
      <use xlink:href="#Inter-Regular-65" x="63.494324"/>
      <use xlink:href="#Inter-Regular-72" x="121.732971"/>
      <use xlink:href="#Inter-Regular-63" x="160.085251"/>
      <use xlink:href="#Inter-Regular-65" x="215.909119"/>
      <use xlink:href="#Inter-Regular-6e" x="274.147766"/>
      <use xlink:href="#Inter-Regular-74" x="332.670502"/>
      <use xlink:href="#Inter-Regular-20" x="369.034149"/>
      <use xlink:href="#Inter-Regular-6f" x="397.159149"/>
      <use xlink:href="#Inter-Regular-66" x="456.818253"/>
      <use xlink:href="#Inter-Regular-20" x="492.897797"/>
      <use xlink:href="#Inter-Regular-6e" x="521.022797"/>
      <use xlink:href="#Inter-Regular-61" x="579.545532"/>
      <use xlink:href="#Inter-Regular-74" x="635.937592"/>
      <use xlink:href="#Inter-Regular-69" x="672.301239"/>
      <use xlink:href="#Inter-Regular-6f" x="696.022827"/>
      <use xlink:href="#Inter-Regular-6e" x="755.681931"/>
      <use xlink:href="#Inter-Regular-20" x="814.204666"/>
      <use xlink:href="#Inter-Regular-74" x="842.329666"/>
      <use xlink:href="#Inter-Regular-65" x="878.693314"/>
      <use xlink:href="#Inter-Regular-73" x="936.931961"/>
      <use xlink:href="#Inter-Regular-74" x="989.204697"/>
      <use xlink:href="#Inter-Regular-65" x="1025.568344"/>
      <use xlink:href="#Inter-Regular-64" x="1083.806992"/>
      <use xlink:href="#Inter-Regular-20" x="1145.880875"/>
      <use xlink:href="#Inter-Regular-70" x="1174.005875"/>
      <use xlink:href="#Inter-Regular-6f" x="1234.94339"/>
      <use xlink:href="#Inter-Regular-73" x="1294.602493"/>
      <use xlink:href="#Inter-Regular-69" x="1346.875229"/>
      <use xlink:href="#Inter-Regular-74" x="1370.596817"/>
      <use xlink:href="#Inter-Regular-69" x="1406.960464"/>
      <use xlink:href="#Inter-Regular-76" x="1430.682053"/>
      <use xlink:href="#Inter-Regular-65" x="1486.363876"/>
     </g>
    </g>
   </g>
   <g id="line2d_46">
    <path d="M 35.840891 476.74496 
L 75.88872 476.649066 
L 80.600229 476.456299 
L 85.311738 476.108778 
L 90.023248 475.653478 
L 96.30526 475.074876 
L 103.372524 474.540109 
L 113.580794 474.039894 
L 132.426831 473.664163 
L 154.413874 473.51239 
L 166.977899 473.346892 
L 196.032206 472.765949 
L 207.810979 472.383255 
L 218.804501 471.577894 
L 221.945507 471.204643 
L 227.442268 470.496916 
L 228.227519 470.400942 
L 229.012771 470.184747 
L 229.798022 469.758417 
L 232.153777 469.060954 
L 233.72428 468.546294 
L 240.006292 466.411267 
L 242.362047 465.433265 
L 243.93255 464.626943 
L 247.858808 462.817371 
L 251.785065 460.791223 
L 253.355568 460.12719 
L 257.281826 458.057747 
L 259.637581 456.904784 
L 261.208084 455.796736 
L 262.778587 454.870493 
L 266.704845 453.023907 
L 269.060599 452.071334 
L 269.845851 451.874185 
L 272.201606 450.992137 
L 274.55736 450.306977 
L 278.483618 449.046316 
L 280.054121 448.527795 
L 281.624624 448.059251 
L 287.121385 445.498936 
L 289.477139 444.105889 
L 296.544403 438.344075 
L 301.255913 432.600567 
L 307.537925 424.214415 
L 309.89368 421.645977 
L 310.678931 420.630802 
L 313.034686 418.486933 
L 314.605189 417.177835 
L 316.960943 415.137482 
L 317.746195 414.585689 
L 320.10195 413.365602 
L 322.457704 411.885485 
L 324.028207 411.167854 
L 326.383962 410.151199 
L 328.739717 409.189222 
L 334.236477 407.563994 
L 337.377484 406.773498 
L 340.51849 406.031478 
L 346.800502 404.954562 
L 355.438269 403.850356 
L 361.720281 403.140728 
L 369.572797 402.294592 
L 373.499054 402.020456 
L 414.332135 399.919882 
L 423.755153 398.990137 
L 430.037166 397.928485 
L 436.319178 396.348273 
L 439.460184 395.169941 
L 441.030687 394.407775 
L 446.527448 391.142453 
L 450.453706 388.172935 
L 452.024209 386.75688 
L 453.594712 384.918577 
L 455.165215 383.003268 
L 455.950466 382.309885 
L 457.52097 380.654006 
L 459.091473 379.278906 
L 460.661976 378.190485 
L 463.802982 376.302585 
L 465.373485 375.298434 
L 469.299743 373.042905 
L 471.655497 371.474477 
L 474.011252 370.090153 
L 477.152258 367.962789 
L 479.508013 366.471648 
L 482.649019 364.225423 
L 485.004774 362.725258 
L 487.360528 361.083084 
L 491.286786 358.718237 
L 493.64254 356.950379 
L 498.35405 353.718049 
L 502.280307 351.60219 
L 506.206565 349.195908 
L 511.703326 345.268075 
L 519.555841 339.352467 
L 522.696848 336.791752 
L 525.837854 333.745467 
L 528.97886 330.619854 
L 531.334615 328.071623 
L 535.260872 324.666133 
L 537.616627 322.574682 
L 541.542885 319.501907 
L 545.469142 316.812547 
L 547.824897 314.769433 
L 550.965903 312.321877 
L 553.321658 310.067889 
L 555.677412 307.936324 
L 557.247915 306.397926 
L 558.818419 304.83598 
L 561.174173 302.822636 
L 568.241437 295.288162 
L 570.597192 292.523976 
L 572.167695 290.56281 
L 573.738198 287.638448 
L 575.308701 284.314906 
L 576.879204 281.358532 
L 577.664456 279.739646 
L 579.234959 275.681227 
L 583.161216 264.920205 
L 584.731719 259.220393 
L 586.302222 252.761174 
L 587.872726 247.537588 
L 591.798983 232.912515 
L 593.369486 228.166336 
L 596.510493 220.030832 
L 599.651499 214.027033 
L 602.007253 208.456665 
L 605.14826 202.378981 
L 606.718763 198.86025 
L 608.289266 195.902256 
L 609.074517 194.71066 
L 609.859769 193.075688 
L 610.64502 191.007905 
L 613.000775 186.369884 
L 614.571278 184.230936 
L 615.35653 183.258576 
L 617.712284 179.824596 
L 618.497536 178.889549 
L 620.068039 177.486918 
L 621.638542 176.11816 
L 623.209045 174.454938 
L 624.779548 173.071855 
L 626.350051 171.9998 
L 628.705806 170.239665 
L 629.491057 169.76898 
L 631.06156 169.76898 
L 631.846812 168.556656 
L 633.417315 167.380485 
L 634.987818 166.087353 
L 636.558321 166.087353 
L 637.343573 164.180206 
L 638.914076 162.253613 
L 640.484579 160.080753 
L 642.055082 160.080753 
L 642.840334 156.800526 
L 643.625585 155.513816 
L 645.98134 151.101494 
L 647.551843 151.101494 
L 648.337094 147.321672 
L 649.907597 144.106148 
L 650.692849 142.518133 
L 651.478101 141.25027 
L 653.048604 141.25027 
L 653.833855 137.579807 
L 656.974861 132.330171 
L 658.545364 132.330171 
L 659.330616 129.888778 
L 661.686371 127.437801 
L 662.471622 126.761925 
L 664.042125 126.761925 
L 664.827377 125.257519 
L 667.183131 123.499944 
L 670.324138 123.499944 
L 671.109389 121.633672 
L 672.679892 120.848557 
L 673.465144 120.531807 
L 675.035647 120.531807 
L 675.820898 119.813055 
L 678.961905 118.869205 
L 681.317659 118.869205 
L 682.102911 118.288422 
L 683.673414 117.790108 
L 684.458665 117.601942 
L 686.029168 117.601942 
L 686.81442 117.16755 
L 689.955426 116.463864 
L 691.525929 116.463864 
L 692.311181 116.125686 
L 695.452187 115.561549 
L 697.02269 115.561549 
L 697.807942 115.269607 
L 700.948948 114.827132 
L 702.519451 114.827132 
L 703.304702 114.555237 
L 704.875205 114.332859 
L 708.016212 114.332859 
L 708.801463 113.749555 
L 711.942469 112.979366 
L 713.512972 112.979366 
L 714.298224 112.414189 
L 717.43923 111.422302 
L 719.009733 111.422302 
L 719.794985 110.693007 
L 722.935991 109.340454 
L 724.506494 109.340454 
L 725.291746 108.393483 
L 728.432752 106.686766 
L 728.432752 106.686766 
" clip-path="url(#p5e300b430d)" style="fill: none; stroke: #5694ca; stroke-width: 2; stroke-linecap: square"/>
   </g>
   <g id="line2d_47">
    <path d="M 35.840891 476.745 
L 77.459223 476.644724 
L 82.955984 476.397614 
L 107.298782 474.584879 
L 116.7218 474.208843 
L 129.285825 473.944423 
L 151.272868 473.835791 
L 186.609187 473.697314 
L 206.240476 472.883762 
L 210.951985 472.56622 
L 216.448746 472.121542 
L 222.730758 471.260239 
L 224.301261 470.958216 
L 225.871765 470.635899 
L 227.442268 470.228228 
L 229.012771 469.237402 
L 230.583274 468.593961 
L 232.153777 467.700427 
L 234.509531 465.966481 
L 236.080035 464.806737 
L 236.865286 464.291626 
L 237.650538 463.565219 
L 238.435789 463.109797 
L 239.221041 462.334446 
L 241.576795 460.625569 
L 243.147298 459.460453 
L 246.288305 457.005472 
L 251.785065 454.014489 
L 253.355568 453.380002 
L 254.926072 452.666727 
L 256.496575 451.996427 
L 258.852329 451.157806 
L 259.637581 450.685671 
L 262.778587 449.409535 
L 263.563839 449.211966 
L 265.919593 448.28441 
L 269.060599 447.479811 
L 269.845851 447.432657 
L 271.416354 446.850696 
L 273.772109 446.21979 
L 275.342612 445.813313 
L 282.409876 443.507552 
L 284.76563 442.614018 
L 287.121385 441.769428 
L 289.477139 440.691457 
L 291.832894 439.796729 
L 293.403397 438.825003 
L 294.188649 438.825003 
L 294.9739 438.229313 
L 295.759152 438.229313 
L 297.329655 436.319287 
L 298.900158 433.888778 
L 299.685409 433.888778 
L 300.470661 431.754323 
L 305.18217 425.943067 
L 305.967422 425.082361 
L 306.752673 424.418627 
L 307.537925 423.965592 
L 309.108428 422.562917 
L 311.464183 420.933425 
L 313.034686 420.060782 
L 315.39044 418.658106 
L 316.960943 417.74189 
L 319.316698 416.903269 
L 320.887201 416.235357 
L 321.672453 415.836042 
L 327.954465 413.774407 
L 333.451226 412.458876 
L 335.021729 412.214154 
L 338.947987 411.277644 
L 343.659496 410.407985 
L 350.72676 409.529373 
L 353.867766 409.079322 
L 356.223521 408.782671 
L 360.93503 408.238911 
L 373.499054 407.123336 
L 376.640061 406.910845 
L 379.781067 406.645829 
L 410.405877 404.496452 
L 430.037166 403.274632 
L 438.674933 402.000883 
L 440.245436 401.709007 
L 444.171693 400.495543 
L 446.527448 399.655729 
L 448.883203 398.654755 
L 452.024209 397.293861 
L 452.80946 396.647437 
L 454.379963 394.986907 
L 455.165215 394.666381 
L 455.950466 393.606316 
L 456.735718 392.927063 
L 457.52097 391.749412 
L 460.661976 388.436113 
L 461.447227 388.054704 
L 464.588233 384.685298 
L 466.158736 383.342908 
L 467.72924 382.176598 
L 468.514491 381.555839 
L 470.084994 379.720423 
L 471.655497 378.241346 
L 472.440749 377.625959 
L 474.011252 375.971399 
L 475.581755 374.181345 
L 479.508013 370.035394 
L 480.293264 368.863712 
L 481.078516 367.432983 
L 482.649019 365.584435 
L 483.43427 364.796549 
L 487.360528 359.857936 
L 489.716283 357.59157 
L 490.501534 356.712958 
L 491.286786 356.23963 
L 492.072037 355.494719 
L 492.857289 354.413167 
L 493.64254 353.677807 
L 495.213044 351.581552 
L 495.998295 350.859324 
L 497.568798 348.759488 
L 498.35405 347.909526 
L 499.924553 346.578476 
L 501.495056 344.851096 
L 517.200087 332.013926 
L 520.341093 328.913714 
L 522.696848 326.823429 
L 524.267351 325.167078 
L 525.837854 323.634878 
L 527.408357 322.407089 
L 529.764111 320.114461 
L 531.334615 318.516007 
L 533.690369 316.603593 
L 536.831375 313.654392 
L 539.972381 311.23224 
L 540.757633 310.348256 
L 544.683891 306.976462 
L 546.254394 305.050319 
L 547.039645 304.401507 
L 547.824897 303.323536 
L 549.3954 301.631969 
L 554.892161 294.685441 
L 555.677412 293.804441 
L 556.462664 292.651859 
L 557.247915 291.727287 
L 558.033167 290.531133 
L 561.174173 286.988033 
L 564.315179 282.323987 
L 565.885682 280.499315 
L 567.456185 278.355907 
L 569.026689 276.192205 
L 572.167695 272.607323 
L 575.308701 267.620363 
L 576.093952 266.547167 
L 577.664456 264.013994 
L 580.02021 258.197963 
L 583.161216 258.197963 
L 583.946468 244.48636 
L 584.731719 241.680411 
L 585.516971 237.373898 
L 587.872726 237.373898 
L 588.657977 219.214917 
L 591.013732 207.006265 
L 594.154738 199.041454 
L 597.295744 192.162971 
L 598.080996 190.660019 
L 598.866247 188.693288 
L 602.007253 179.15569 
L 604.363008 172.908112 
L 605.933511 167.293827 
L 607.504014 162.530699 
L 609.859769 156.073615 
L 612.215523 147.959583 
L 613.000775 145.671729 
L 613.786026 143.761106 
L 615.35653 140.299779 
L 617.712284 133.492325 
L 619.282787 130.176041 
L 620.85329 127.41665 
L 623.209045 122.102598 
L 624.779548 119.347384 
L 625.5648 118.234197 
L 626.350051 116.900163 
L 627.135303 115.13876 
L 629.491057 111.051303 
L 631.06156 111.051303 
L 631.846812 107.96661 
L 634.202567 103.560417 
L 634.987818 102.225786 
L 636.558321 102.225786 
L 637.343573 98.782366 
L 639.699327 94.034756 
L 640.484579 92.679831 
L 642.055082 92.679831 
L 642.840334 89.383245 
L 644.410837 86.401216 
L 645.98134 84.102021 
L 647.551843 84.102021 
L 648.337094 80.905711 
L 649.122346 79.175346 
L 651.478101 75.174437 
L 653.048604 75.174437 
L 653.833855 72.881808 
L 654.619107 71.848603 
L 656.974861 69.40556 
L 658.545364 69.40556 
L 659.330616 67.801138 
L 660.901119 66.28386 
L 662.471622 65.020855 
L 664.042125 65.020855 
L 664.827377 63.902893 
L 666.39788 62.889982 
L 667.183131 62.417847 
L 670.324138 62.417847 
L 671.109389 60.809246 
L 672.679892 60.009423 
L 673.465144 59.587426 
L 675.035647 59.587426 
L 675.820898 58.824012 
L 677.391401 58.319646 
L 678.961905 57.911378 
L 681.317659 57.911378 
L 682.102911 57.313301 
L 684.458665 56.682992 
L 686.029168 56.682992 
L 686.81442 56.207873 
L 687.599671 55.972701 
L 689.955426 55.972701 
L 690.740678 55.326873 
L 692.311181 55.073198 
L 694.666935 54.501383 
L 695.452187 54.345 
L 728.432752 54.345 
L 728.432752 54.345 
" clip-path="url(#p5e300b430d)" style="fill: none; stroke: #ffdd00; stroke-width: 2; stroke-linecap: square"/>
   </g>
   <g id="line2d_48">
    <path d="M 35.840891 476.745 
L 76.673971 476.641713 
L 82.170732 476.421477 
L 86.882241 475.977901 
L 94.734757 475.348243 
L 104.157775 474.567276 
L 123.003812 473.669981 
L 130.071076 473.561105 
L 195.246954 473.151889 
L 215.663494 472.390586 
L 221.945507 471.836478 
L 229.012771 470.699905 
L 232.939028 469.802404 
L 235.294783 469.137764 
L 236.865286 468.670385 
L 240.006292 467.605844 
L 240.791544 467.540435 
L 242.362047 467.033521 
L 244.717802 466.029213 
L 247.858808 464.955979 
L 252.570317 463.546181 
L 254.14082 463.042785 
L 262.778587 460.382985 
L 264.34909 459.976253 
L 266.704845 459.278495 
L 274.55736 457.533998 
L 276.913115 456.982788 
L 279.268869 456.488913 
L 282.409876 455.826758 
L 285.550882 455.081807 
L 291.047643 453.809656 
L 294.9739 452.53999 
L 296.544403 452.186661 
L 298.114906 451.371127 
L 300.470661 449.860526 
L 302.826416 448.43272 
L 303.611667 448.010671 
L 305.18217 446.984423 
L 312.249434 443.60865 
L 317.746195 441.566089 
L 319.316698 441.193303 
L 321.672453 440.430344 
L 327.954465 438.873791 
L 329.524968 438.560825 
L 343.659496 435.607722 
L 364.076036 432.69167 
L 366.431791 432.317642 
L 374.284306 431.53357 
L 384.492576 430.858581 
L 403.338613 429.869384 
L 408.050122 429.508603 
L 418.258392 428.276402 
L 420.614147 427.758103 
L 430.037166 425.532771 
L 432.39292 424.81328 
L 433.963423 424.305123 
L 434.748675 423.85658 
L 436.319178 422.621273 
L 437.104429 422.259665 
L 440.245436 419.801057 
L 443.386442 416.685468 
L 444.956945 415.630242 
L 445.742196 415.141128 
L 446.527448 414.35478 
L 448.883203 412.655819 
L 451.238957 411.266721 
L 452.80946 410.289322 
L 455.165215 409.0269 
L 457.52097 408.042877 
L 459.091473 407.353606 
L 461.447227 406.620039 
L 463.802982 405.870534 
L 465.373485 405.358445 
L 470.084994 403.961067 
L 471.655497 403.417515 
L 473.226 403.027756 
L 478.722761 400.786487 
L 479.508013 400.26115 
L 483.43427 396.778985 
L 485.004774 394.844886 
L 485.790025 393.825468 
L 488.14578 389.725857 
L 488.931031 388.920052 
L 491.286786 385.070275 
L 494.427792 379.62731 
L 495.998295 377.24653 
L 497.568798 374.420932 
L 498.35405 373.531296 
L 499.139301 372.307581 
L 499.924553 371.429743 
L 500.709804 370.731158 
L 501.495056 369.713396 
L 502.280307 369.713396 
L 503.850811 367.303017 
L 504.636062 366.50963 
L 506.991817 364.567045 
L 508.56232 362.975097 
L 510.132823 361.771046 
L 511.703326 360.852225 
L 514.059081 359.071918 
L 515.629584 358.129086 
L 517.200087 357.339219 
L 518.77059 356.149864 
L 521.126344 354.616701 
L 524.267351 352.665836 
L 526.623105 351.008066 
L 528.193608 350.044949 
L 531.334615 347.886475 
L 534.475621 345.900422 
L 536.046124 344.889284 
L 536.831375 344.08886 
L 538.401878 343.141267 
L 539.18713 342.72522 
L 540.757633 341.417468 
L 541.542885 340.922973 
L 543.113388 339.648546 
L 544.683891 338.76988 
L 546.254394 337.28122 
L 548.610148 335.319384 
L 550.180652 334.27223 
L 552.536406 332.267548 
L 558.818419 327.790804 
L 561.174173 326.343956 
L 563.529928 324.640442 
L 564.315179 324.380257 
L 565.100431 323.840639 
L 565.885682 323.034626 
L 568.241437 321.102804 
L 569.026689 320.064136 
L 571.382443 317.612359 
L 572.167695 316.967177 
L 575.308701 312.546113 
L 579.234959 306.319489 
L 580.02021 304.85484 
L 580.805462 303.146772 
L 582.375965 298.677479 
L 583.161216 296.740068 
L 584.731719 289.970308 
L 585.516971 287.494313 
L 586.302222 283.962057 
L 587.087474 281.047661 
L 587.872726 276.862978 
L 589.443229 269.957432 
L 590.22848 267.606045 
L 591.798983 261.999144 
L 592.584235 260.434106 
L 594.154738 255.835031 
L 594.939989 254.260678 
L 597.295744 251.025036 
L 598.080996 250.172865 
L 599.651499 248.844621 
L 601.222002 246.840974 
L 602.792505 245.320437 
L 604.363008 243.980395 
L 605.14826 243.354462 
L 606.718763 241.50233 
L 608.289266 239.991729 
L 609.074517 239.259198 
L 609.859769 238.853294 
L 610.64502 238.263791 
L 613.000775 235.512295 
L 616.927033 232.376007 
L 618.497536 229.350666 
L 621.638542 224.833145 
L 623.994297 220.352054 
L 626.350051 217.020163 
L 627.920554 214.291435 
L 628.705806 212.802154 
L 629.491057 211.66703 
L 631.06156 211.66703 
L 631.846812 208.282978 
L 632.632064 206.731186 
L 634.202567 202.960686 
L 634.987818 200.983741 
L 636.558321 200.983741 
L 637.343573 195.91501 
L 638.914076 191.021392 
L 640.484579 185.307064 
L 642.840334 185.307064 
L 643.625585 177.282126 
L 645.196088 173.053147 
L 645.98134 169.30169 
L 647.551843 169.30169 
L 648.337094 163.15869 
L 649.907597 158.122043 
L 650.692849 155.314453 
L 651.478101 153.223871 
L 653.048604 153.223871 
L 653.833855 147.946703 
L 656.18961 142.154134 
L 656.974861 140.71867 
L 658.545364 140.71867 
L 659.330616 137.162196 
L 660.115867 136.014446 
L 661.686371 133.097359 
L 662.471622 131.810926 
L 664.042125 131.810926 
L 664.827377 128.96256 
L 667.183131 125.926661 
L 670.324138 125.926661 
L 671.109389 121.791241 
L 672.679892 120.145684 
L 673.465144 119.505469 
L 675.035647 119.505469 
L 675.820898 117.908761 
L 678.961905 115.684464 
L 681.317659 115.684464 
L 682.102911 114.548305 
L 684.458665 113.678954 
L 686.029168 113.678954 
L 686.81442 112.918893 
L 688.384923 112.918893 
L 689.170175 112.176012 
L 691.525929 112.176012 
L 692.311181 111.118715 
L 693.881684 111.118715 
L 694.666935 110.048585 
L 697.02269 110.048585 
L 697.807942 107.701131 
L 699.378445 107.701131 
L 700.163696 107.075198 
L 702.519451 107.075198 
L 703.304702 106.347841 
L 704.875205 106.347841 
L 705.660457 105.591712 
L 709.586715 105.591712 
L 710.371966 104.64205 
L 715.083475 104.64205 
L 715.868727 102.177854 
L 720.580236 102.177854 
L 721.365488 98.963739 
L 726.076997 98.963739 
L 726.862249 95.967375 
L 728.432752 95.967375 
L 728.432752 95.967375 
" clip-path="url(#p5e300b430d)" style="fill: none; stroke: #003078; stroke-width: 2; stroke-linecap: square"/>
   </g>
   <g id="line2d_49">
    <path d="M 35.840891 476.745 
L 75.103468 476.645053 
L 79.814978 476.416245 
L 84.526487 475.987899 
L 89.237996 475.291124 
L 90.023248 475.285413 
L 92.379002 474.853855 
L 100.231518 473.843316 
L 108.084033 473.117984 
L 115.151297 472.649303 
L 122.218561 472.21596 
L 128.500573 471.842942 
L 135.567837 471.617704 
L 150.487616 471.237904 
L 159.125383 471.082986 
L 173.259911 470.963049 
L 209.381482 470.394064 
L 220.375004 469.502748 
L 231.368525 467.461682 
L 234.509531 466.468277 
L 236.865286 465.855029 
L 239.221041 464.908385 
L 241.576795 464.105238 
L 243.93255 462.947277 
L 244.717802 462.675634 
L 246.288305 461.808949 
L 248.644059 460.460017 
L 253.355568 457.605451 
L 256.496575 455.897781 
L 261.208084 454.216167 
L 261.993335 453.883129 
L 262.778587 453.407308 
L 264.34909 452.837252 
L 265.134342 452.609515 
L 268.275348 451.220247 
L 272.201606 449.524713 
L 272.986857 449.008914 
L 274.55736 448.364254 
L 275.342612 448.126165 
L 278.483618 445.959808 
L 280.054121 444.554477 
L 280.839372 444.276053 
L 283.980379 441.08702 
L 284.76563 441.08702 
L 285.550882 440.64868 
L 287.121385 440.239967 
L 287.906636 436.146412 
L 292.618146 430.243453 
L 293.403397 429.472075 
L 294.188649 429.472075 
L 294.9739 428.673567 
L 295.759152 427.195061 
L 298.900158 424.01995 
L 299.685409 424.01995 
L 300.470661 423.033328 
L 301.255913 421.601583 
L 302.826416 420.185544 
L 303.611667 419.386679 
L 304.396919 418.773431 
L 305.967422 417.038632 
L 310.678931 413.551186 
L 313.819937 411.859578 
L 315.39044 410.990036 
L 317.746195 410.034826 
L 319.316698 409.520097 
L 321.672453 408.881862 
L 324.028207 408.177948 
L 326.383962 407.60218 
L 327.954465 407.218811 
L 335.021729 405.819549 
L 337.377484 405.484369 
L 338.947987 405.164537 
L 343.659496 404.512024 
L 368.787545 402.331746 
L 375.854809 402.038329 
L 382.136821 401.81309 
L 385.277828 401.724209 
L 398.627104 401.440073 
L 403.338613 401.344052 
L 429.251914 400.608012 
L 434.748675 400.151467 
L 436.319178 399.919089 
L 437.104429 399.799153 
L 437.889681 399.799153 
L 441.815939 398.956383 
L 442.60119 398.752919 
L 443.386442 398.752919 
L 444.171693 398.561948 
L 444.956945 398.113613 
L 448.097951 397.143767 
L 448.883203 397.143767 
L 449.668454 396.894613 
L 450.453706 396.469837 
L 451.238957 396.206762 
L 453.594712 395.107698 
L 454.379963 395.107698 
L 455.165215 394.710765 
L 455.950466 393.977937 
L 456.735718 393.779827 
L 458.306221 393.189781 
L 459.091473 392.920281 
L 459.876724 392.920281 
L 461.447227 392.075012 
L 464.588233 391.061261 
L 465.373485 391.061261 
L 466.158736 390.804611 
L 466.943988 390.409819 
L 469.299743 389.742314 
L 470.084994 389.455679 
L 470.870246 389.455679 
L 471.655497 389.14727 
L 472.440749 388.660384 
L 473.226 388.466558 
L 474.011252 388.466558 
L 474.796503 387.80762 
L 475.581755 387.418539 
L 476.367007 387.418539 
L 477.152258 387.026246 
L 477.93751 386.171697 
L 478.722761 385.900054 
L 480.293264 384.881663 
L 481.078516 384.264845 
L 481.863767 384.264845 
L 482.649019 383.684437 
L 483.43427 382.525406 
L 485.004774 381.41956 
L 485.790025 380.566796 
L 486.575277 379.92749 
L 487.360528 379.92749 
L 488.14578 379.086148 
L 488.931031 379.086148 
L 490.501534 376.516075 
L 492.072037 374.850525 
L 492.857289 374.850525 
L 493.64254 373.99776 
L 494.427792 372.155518 
L 497.568798 368.60846 
L 498.35405 368.60846 
L 499.139301 367.781396 
L 499.924553 366.243636 
L 501.495056 364.736573 
L 503.065559 362.77011 
L 503.850811 362.77011 
L 504.636062 361.800265 
L 505.421314 359.923397 
L 508.56232 356.259615 
L 509.347571 356.259615 
L 510.132823 355.080594 
L 510.918074 353.060588 
L 511.703326 352.250301 
L 512.488578 351.047721 
L 514.059081 349.052702 
L 514.844332 349.052702 
L 515.629584 348.220641 
L 516.414835 346.79782 
L 517.985338 345.453886 
L 518.77059 344.24024 
L 519.555841 342.203814 
L 521.126344 342.203814 
L 521.911596 340.608584 
L 523.482099 339.069039 
L 524.267351 338.128463 
L 525.052602 337.011196 
L 525.837854 337.011196 
L 526.623105 335.952825 
L 527.408357 333.66903 
L 528.97886 331.295282 
L 529.764111 329.781794 
L 530.549363 328.605272 
L 531.334615 328.605272 
L 532.119866 327.480151 
L 532.905118 327.480151 
L 533.690369 325.592575 
L 536.046124 322.80583 
L 536.831375 322.80583 
L 537.616627 321.729255 
L 538.401878 319.95055 
L 539.972381 318.27215 
L 540.757633 317.273034 
L 541.542885 316.564122 
L 542.328136 316.564122 
L 543.113388 315.642108 
L 543.898639 314.106133 
L 545.469142 312.694377 
L 546.254394 311.932636 
L 547.039645 310.938875 
L 547.824897 310.938875 
L 548.610148 309.989732 
L 549.3954 308.376298 
L 550.180652 307.690588 
L 552.536406 305.031633 
L 553.321658 305.031633 
L 554.106909 304.172086 
L 554.892161 302.569717 
L 556.462664 301.111558 
L 557.247915 300.263077 
L 558.033167 299.21827 
L 558.818419 299.21827 
L 559.60367 298.517569 
L 560.388922 297.100816 
L 561.959425 295.659076 
L 563.529928 293.821831 
L 564.315179 293.821831 
L 565.100431 292.905528 
L 565.885682 291.333143 
L 568.241437 288.933694 
L 569.026689 288.054872 
L 569.81194 288.054872 
L 570.597192 287.130003 
L 571.382443 285.508358 
L 572.167695 284.859058 
L 573.738198 282.960059 
L 574.523449 281.843148 
L 575.308701 281.843148 
L 576.093952 280.607371 
L 576.879204 278.181508 
L 577.664456 277.333741 
L 578.449707 275.669619 
L 579.234959 274.494524 
L 580.02021 272.083296 
L 580.805462 272.083296 
L 581.590713 270.178943 
L 582.375965 270.178943 
L 583.161216 265.760559 
L 583.946468 263.644175 
L 584.731719 256.129924 
L 585.516971 252.420095 
L 586.302222 252.420095 
L 587.087474 247.40988 
L 587.872726 247.40988 
L 589.443229 231.848087 
L 591.013732 225.734169 
L 591.798983 225.734169 
L 592.584235 222.549063 
L 593.369486 218.375193 
L 594.154738 217.59846 
L 596.510493 214.404787 
L 597.295744 214.404787 
L 598.080996 213.643403 
L 598.866247 212.224508 
L 600.43675 210.799188 
L 602.007253 208.944809 
L 602.792505 208.944809 
L 603.577756 207.935699 
L 604.363008 206.391156 
L 605.14826 205.685457 
L 607.504014 202.65634 
L 608.289266 202.65634 
L 609.074517 201.642589 
L 609.859769 200.026298 
L 611.430272 198.775173 
L 613.000775 196.979691 
L 613.786026 196.979691 
L 614.571278 196.3129 
L 615.35653 195.105679 
L 616.927033 194.215078 
L 618.497536 192.908624 
L 619.282787 192.908624 
L 620.068039 192.374977 
L 620.85329 191.617519 
L 622.423793 190.886833 
L 623.994297 189.954468 
L 625.5648 189.954468 
L 626.350051 189.55682 
L 627.135303 188.959992 
L 629.491057 187.954451 
L 631.06156 187.954451 
L 631.846812 187.833443 
L 632.632064 187.039219 
L 634.202567 186.429898 
L 634.987818 186.009762 
L 636.558321 186.009762 
L 637.343573 185.644598 
L 638.128824 184.706521 
L 638.914076 184.299236 
L 640.484579 183.202314 
L 642.055082 183.202314 
L 642.840334 182.664027 
L 643.625585 181.195516 
L 645.196088 179.71808 
L 645.98134 179.027373 
L 647.551843 179.027373 
L 648.337094 178.111428 
L 649.122346 176.359138 
L 649.907597 175.689134 
L 650.692849 174.710007 
L 651.478101 173.950408 
L 653.048604 173.950408 
L 653.833855 173.162966 
L 654.619107 171.430666 
L 656.18961 170.315539 
L 656.974861 169.802239 
L 658.545364 169.802239 
L 660.115867 168.617506 
L 663.256874 168.142043 
L 664.042125 168.142043 
L 664.827377 168.008899 
L 665.612628 167.757603 
L 667.968383 167.52701 
L 671.109389 167.429918 
L 671.894641 167.138643 
L 673.465144 166.989436 
L 675.820898 166.932681 
L 677.391401 166.744566 
L 680.532408 166.646046 
L 682.102911 166.604996 
L 683.673414 166.434729 
L 689.955426 166.157018 
L 693.881684 166.056 
L 700.948948 165.916431 
L 710.371966 165.823266 
L 711.157218 165.70083 
L 715.868727 165.70083 
L 716.653979 165.533776 
L 721.365488 165.533776 
L 722.150739 165.248926 
L 726.862249 165.248926 
L 727.6475 164.822365 
L 728.432752 164.822365 
L 728.432752 164.822365 
" clip-path="url(#p5e300b430d)" style="fill: none; stroke: #d4351c; stroke-width: 2; stroke-linecap: square"/>
   </g>
   <g id="patch_3">
    <path d="M 59.398438 476.745 
L 728.998438 476.745 
" style="fill: none; stroke: #000000; stroke-width: 0.8; stroke-linejoin: miter; stroke-linecap: square"/>
   </g>
   <g id="text_25">
    <!-- Cumulative COVID-19 cases by date reported, per capita -->
    <g transform="translate(227.654375 27.225)scale(0.12 -0.12)">
     <defs>
      <path id="Inter-Bold-43" d="M 4511 3025 
L 3516 3025 
Q 3459 3409 3188 3628 
Q 2918 3848 2514 3848 
Q 1973 3848 1647 3451 
Q 1321 3055 1321 2327 
Q 1321 1582 1649 1194 
Q 1977 807 2507 807 
Q 2900 807 3173 1012 
Q 3446 1218 3516 1591 
L 4511 1586 
Q 4459 1159 4207 782 
Q 3955 405 3522 170 
Q 3089 -64 2491 -64 
Q 1868 -64 1378 218 
Q 889 500 606 1034 
Q 323 1568 323 2327 
Q 323 3089 609 3623 
Q 896 4157 1386 4437 
Q 1877 4718 2491 4718 
Q 3030 4718 3463 4519 
Q 3896 4320 4172 3942 
Q 4448 3564 4511 3025 
z
" transform="scale(0.015625)"/>
      <path id="Inter-Bold-75" d="M 2625 1486 
L 2625 3491 
L 3593 3491 
L 3593 0 
L 2664 0 
L 2664 634 
L 2627 634 
Q 2509 327 2235 141 
Q 1961 -45 1568 -45 
Q 1041 -45 715 306 
Q 389 657 386 1268 
L 386 3491 
L 1355 3491 
L 1355 1441 
Q 1357 1132 1520 952 
Q 1684 773 1959 773 
Q 2221 773 2424 954 
Q 2627 1136 2625 1486 
z
" transform="scale(0.015625)"/>
      <path id="Inter-Bold-6d" d="M 386 0 
L 386 3491 
L 1309 3491 
L 1309 2875 
L 1350 2875 
Q 1459 3184 1715 3360 
Q 1971 3536 2323 3536 
Q 2682 3536 2934 3358 
Q 3186 3180 3271 2875 
L 3307 2875 
Q 3414 3175 3694 3355 
Q 3975 3536 4359 3536 
Q 4848 3536 5153 3226 
Q 5459 2916 5459 2348 
L 5459 0 
L 4493 0 
L 4493 2157 
Q 4493 2448 4338 2593 
Q 4184 2739 3952 2739 
Q 3689 2739 3541 2570 
Q 3393 2402 3393 2132 
L 3393 0 
L 2455 0 
L 2455 2177 
Q 2455 2434 2308 2586 
Q 2161 2739 1923 2739 
Q 1682 2739 1518 2562 
Q 1355 2386 1355 2095 
L 1355 0 
L 386 0 
z
" transform="scale(0.015625)"/>
      <path id="Inter-Bold-6c" d="M 1355 4655 
L 1355 0 
L 386 0 
L 386 4655 
L 1355 4655 
z
" transform="scale(0.015625)"/>
      <path id="Inter-Bold-61" d="M 1382 -66 
Q 882 -66 552 195 
Q 223 457 223 975 
Q 223 1366 407 1588 
Q 591 1811 890 1914 
Q 1189 2018 1534 2050 
Q 1989 2095 2184 2145 
Q 2380 2195 2380 2364 
L 2380 2377 
Q 2380 2593 2244 2711 
Q 2109 2830 1861 2830 
Q 1600 2830 1445 2716 
Q 1291 2602 1241 2427 
L 346 2500 
Q 446 2977 842 3256 
Q 1239 3536 1866 3536 
Q 2255 3536 2593 3413 
Q 2932 3291 3140 3030 
Q 3348 2770 3348 2355 
L 3348 0 
L 2430 0 
L 2430 484 
L 2402 484 
Q 2275 241 2021 87 
Q 1768 -66 1382 -66 
z
M 1659 602 
Q 1977 602 2181 787 
Q 2386 973 2386 1248 
L 2386 1618 
Q 2330 1580 2210 1550 
Q 2091 1520 1956 1498 
Q 1821 1477 1714 1461 
Q 1459 1425 1303 1318 
Q 1148 1211 1148 1007 
Q 1148 807 1292 704 
Q 1436 602 1659 602 
z
" transform="scale(0.015625)"/>
      <path id="Inter-Bold-74" d="M 2243 3491 
L 2243 2764 
L 1586 2764 
L 1586 1073 
Q 1586 873 1677 802 
Q 1768 732 1914 732 
Q 1982 732 2050 744 
Q 2118 757 2155 764 
L 2307 43 
Q 2234 20 2102 -10 
Q 1971 -41 1782 -48 
Q 1255 -70 935 181 
Q 616 432 618 945 
L 618 2764 
L 141 2764 
L 141 3491 
L 618 3491 
L 618 4327 
L 1586 4327 
L 1586 3491 
L 2243 3491 
z
" transform="scale(0.015625)"/>
      <path id="Inter-Bold-69" d="M 386 0 
L 386 3491 
L 1355 3491 
L 1355 0 
L 386 0 
z
M 876 3941 
Q 662 3941 507 4085 
Q 353 4230 353 4432 
Q 353 4634 507 4777 
Q 662 4920 876 4920 
Q 1092 4920 1246 4777 
Q 1401 4634 1401 4432 
Q 1401 4230 1246 4085 
Q 1092 3941 876 3941 
z
" transform="scale(0.015625)"/>
      <path id="Inter-Bold-76" d="M 3641 3491 
L 2421 0 
L 1330 0 
L 109 3491 
L 1132 3491 
L 1857 993 
L 1893 993 
L 2616 3491 
L 3641 3491 
z
" transform="scale(0.015625)"/>
      <path id="Inter-Bold-65" d="M 1977 -68 
Q 1441 -68 1052 151 
Q 664 370 455 773 
Q 246 1177 246 1730 
Q 246 2268 455 2675 
Q 664 3082 1044 3309 
Q 1425 3536 1939 3536 
Q 2400 3536 2771 3340 
Q 3143 3145 3361 2751 
Q 3580 2357 3580 1764 
L 3580 1498 
L 1202 1498 
L 1202 1495 
Q 1202 1105 1416 880 
Q 1630 655 1993 655 
Q 2236 655 2413 757 
Q 2591 859 2664 1059 
L 3559 1000 
Q 3457 514 3041 223 
Q 2625 -68 1977 -68 
z
M 1202 2098 
L 2668 2098 
Q 2666 2409 2468 2611 
Q 2271 2814 1955 2814 
Q 1632 2814 1425 2604 
Q 1218 2395 1202 2098 
z
" transform="scale(0.015625)"/>
      <path id="Inter-Bold-20" transform="scale(0.015625)"/>
      <path id="Inter-Bold-4f" d="M 4682 2327 
Q 4682 1566 4394 1032 
Q 4107 498 3614 217 
Q 3121 -64 2502 -64 
Q 1882 -64 1389 218 
Q 896 500 609 1035 
Q 323 1570 323 2327 
Q 323 3089 609 3623 
Q 896 4157 1389 4437 
Q 1882 4718 2502 4718 
Q 3121 4718 3614 4437 
Q 4107 4157 4394 3623 
Q 4682 3089 4682 2327 
z
M 3684 2327 
Q 3684 3068 3361 3458 
Q 3039 3848 2502 3848 
Q 1966 3848 1643 3458 
Q 1321 3068 1321 2327 
Q 1321 1589 1643 1198 
Q 1966 807 2502 807 
Q 3039 807 3361 1198 
Q 3684 1589 3684 2327 
z
" transform="scale(0.015625)"/>
      <path id="Inter-Bold-56" d="M 1246 4655 
L 2371 1118 
L 2414 1118 
L 3541 4655 
L 4632 4655 
L 3027 0 
L 1759 0 
L 152 4655 
L 1246 4655 
z
" transform="scale(0.015625)"/>
      <path id="Inter-Bold-49" d="M 1389 4655 
L 1389 0 
L 405 0 
L 405 4655 
L 1389 4655 
z
" transform="scale(0.015625)"/>
      <path id="Inter-Bold-44" d="M 2055 0 
L 405 0 
L 405 4655 
L 2068 4655 
Q 2771 4655 3278 4376 
Q 3786 4098 4059 3577 
Q 4332 3057 4332 2332 
Q 4332 1605 4058 1082 
Q 3784 559 3274 279 
Q 2764 0 2055 0 
z
M 1389 843 
L 2014 843 
Q 2671 843 3010 1197 
Q 3350 1552 3350 2332 
Q 3350 3107 3010 3459 
Q 2671 3811 2016 3811 
L 1389 3811 
L 1389 843 
z
" transform="scale(0.015625)"/>
      <path id="Inter-Bold-2d" d="M 2561 2295 
L 2561 1527 
L 439 1527 
L 439 2295 
L 2561 2295 
z
" transform="scale(0.015625)"/>
      <path id="Inter-Bold-31" d="M 2305 4655 
L 2305 0 
L 1323 0 
L 1323 3450 
L 1280 3450 
Q 1205 3334 961 3219 
Q 718 3105 332 3105 
L 332 3886 
Q 632 3886 857 4019 
Q 1082 4152 1209 4333 
Q 1336 4514 1341 4655 
L 2305 4655 
z
" transform="scale(0.015625)"/>
      <path id="Inter-Bold-39" d="M 2061 4732 
Q 2421 4732 2753 4612 
Q 3086 4493 3348 4227 
Q 3611 3961 3766 3523 
Q 3921 3086 3921 2448 
Q 3921 1659 3686 1096 
Q 3452 534 3028 235 
Q 2605 -64 2027 -64 
Q 1561 -64 1204 117 
Q 848 298 631 610 
Q 414 923 368 1314 
L 1339 1314 
Q 1396 1059 1577 919 
Q 1759 780 2027 780 
Q 2482 780 2718 1176 
Q 2955 1573 2957 2264 
L 2925 2264 
Q 2771 1957 2453 1782 
Q 2136 1607 1752 1607 
Q 1341 1607 1016 1801 
Q 691 1995 506 2334 
Q 321 2673 323 3109 
Q 321 3582 539 3949 
Q 757 4316 1149 4525 
Q 1541 4734 2061 4732 
z
M 2068 3959 
Q 1725 3959 1500 3722 
Q 1275 3486 1277 3136 
Q 1275 2791 1496 2555 
Q 1718 2320 2059 2320 
Q 2284 2320 2465 2431 
Q 2646 2543 2751 2729 
Q 2857 2916 2859 3141 
Q 2857 3366 2753 3551 
Q 2650 3736 2473 3847 
Q 2296 3959 2068 3959 
z
" transform="scale(0.015625)"/>
      <path id="Inter-Bold-63" d="M 1964 -68 
Q 1427 -68 1042 160 
Q 657 389 451 795 
Q 246 1202 246 1732 
Q 246 2268 453 2674 
Q 661 3080 1045 3308 
Q 1430 3536 1959 3536 
Q 2416 3536 2760 3370 
Q 3105 3205 3303 2905 
Q 3502 2605 3523 2200 
L 2609 2200 
Q 2571 2461 2406 2621 
Q 2241 2782 1975 2782 
Q 1639 2782 1434 2511 
Q 1230 2241 1230 1745 
Q 1230 1245 1433 971 
Q 1636 698 1975 698 
Q 2225 698 2395 849 
Q 2566 1000 2609 1280 
L 3523 1280 
Q 3500 880 3305 575 
Q 3111 270 2770 101 
Q 2430 -68 1964 -68 
z
" transform="scale(0.015625)"/>
      <path id="Inter-Bold-73" d="M 3291 2495 
L 2405 2441 
Q 2368 2609 2220 2729 
Q 2073 2850 1821 2850 
Q 1596 2850 1440 2755 
Q 1284 2661 1286 2505 
Q 1284 2380 1385 2293 
Q 1486 2207 1730 2155 
L 2361 2027 
Q 3368 1820 3371 1082 
Q 3371 739 3169 479 
Q 2968 220 2618 76 
Q 2268 -68 1816 -68 
Q 1123 -68 711 221 
Q 300 511 232 1011 
L 1184 1061 
Q 1230 848 1394 739 
Q 1559 630 1818 630 
Q 2073 630 2228 730 
Q 2384 830 2386 984 
Q 2380 1243 1939 1332 
L 1334 1452 
Q 321 1655 325 2450 
Q 323 2955 728 3245 
Q 1134 3536 1805 3536 
Q 2466 3536 2846 3256 
Q 3227 2977 3291 2495 
z
" transform="scale(0.015625)"/>
      <path id="Inter-Bold-62" d="M 405 0 
L 405 4655 
L 1373 4655 
L 1373 2905 
L 1402 2905 
Q 1468 3048 1588 3193 
Q 1709 3339 1907 3437 
Q 2105 3536 2396 3536 
Q 2780 3536 3100 3337 
Q 3421 3139 3615 2740 
Q 3809 2341 3809 1741 
Q 3809 1157 3620 756 
Q 3432 355 3111 149 
Q 2791 -57 2393 -57 
Q 2111 -57 1914 36 
Q 1718 130 1594 272 
Q 1471 414 1402 559 
L 1359 559 
L 1359 0 
L 405 0 
z
M 1352 1745 
Q 1352 1280 1544 997 
Q 1736 714 2086 714 
Q 2443 714 2632 1001 
Q 2821 1289 2821 1745 
Q 2821 2200 2633 2483 
Q 2446 2766 2086 2766 
Q 1734 2766 1543 2490 
Q 1352 2214 1352 1745 
z
" transform="scale(0.015625)"/>
      <path id="Inter-Bold-79" d="M 950 -1359 
Q 743 -1359 596 -1324 
Q 450 -1289 368 -1252 
L 586 -502 
Q 843 -580 1019 -543 
Q 1196 -507 1298 -268 
L 1361 -100 
L 109 3491 
L 1127 3491 
L 1850 927 
L 1886 927 
L 2616 3491 
L 3641 3491 
L 2277 -400 
Q 2130 -818 1806 -1088 
Q 1482 -1359 950 -1359 
z
" transform="scale(0.015625)"/>
      <path id="Inter-Bold-64" d="M 1673 -57 
Q 1275 -57 954 149 
Q 634 355 445 756 
Q 257 1157 257 1741 
Q 257 2341 451 2740 
Q 646 3139 967 3337 
Q 1289 3536 1671 3536 
Q 1964 3536 2160 3437 
Q 2357 3339 2478 3193 
Q 2600 3048 2664 2905 
L 2693 2905 
L 2693 4655 
L 3659 4655 
L 3659 0 
L 2705 0 
L 2705 559 
L 2664 559 
Q 2598 414 2473 272 
Q 2348 130 2151 36 
Q 1955 -57 1673 -57 
z
M 1980 714 
Q 2330 714 2522 997 
Q 2714 1280 2714 1745 
Q 2714 2214 2523 2490 
Q 2332 2766 1980 2766 
Q 1621 2766 1433 2483 
Q 1246 2200 1246 1745 
Q 1246 1289 1434 1001 
Q 1623 714 1980 714 
z
" transform="scale(0.015625)"/>
      <path id="Inter-Bold-72" d="M 386 0 
L 386 3491 
L 1325 3491 
L 1325 2882 
L 1361 2882 
Q 1457 3207 1681 3374 
Q 1905 3541 2200 3541 
Q 2341 3541 2461 3507 
Q 2582 3473 2677 3414 
L 2386 2614 
Q 2318 2648 2237 2671 
Q 2157 2695 2057 2695 
Q 1764 2695 1560 2495 
Q 1357 2295 1355 1975 
L 1355 0 
L 386 0 
z
" transform="scale(0.015625)"/>
      <path id="Inter-Bold-70" d="M 386 -1309 
L 386 3491 
L 1341 3491 
L 1341 2905 
L 1384 2905 
Q 1450 3048 1570 3193 
Q 1691 3339 1888 3437 
Q 2086 3536 2377 3536 
Q 2761 3536 3081 3337 
Q 3402 3139 3596 2740 
Q 3791 2341 3791 1741 
Q 3791 1157 3602 756 
Q 3414 355 3093 149 
Q 2773 -57 2375 -57 
Q 2093 -57 1896 36 
Q 1700 130 1576 272 
Q 1452 414 1384 559 
L 1355 559 
L 1355 -1309 
L 386 -1309 
z
M 1334 1745 
Q 1334 1280 1526 997 
Q 1718 714 2068 714 
Q 2425 714 2613 1001 
Q 2802 1289 2802 1745 
Q 2802 2200 2614 2483 
Q 2427 2766 2068 2766 
Q 1716 2766 1525 2490 
Q 1334 2214 1334 1745 
z
" transform="scale(0.015625)"/>
      <path id="Inter-Bold-6f" d="M 1964 -68 
Q 1434 -68 1049 158 
Q 664 384 455 789 
Q 246 1195 246 1732 
Q 246 2273 455 2678 
Q 664 3084 1049 3310 
Q 1434 3536 1964 3536 
Q 2493 3536 2878 3310 
Q 3264 3084 3473 2678 
Q 3682 2273 3682 1732 
Q 3682 1195 3473 789 
Q 3264 384 2878 158 
Q 2493 -68 1964 -68 
z
M 1968 682 
Q 2327 682 2512 982 
Q 2698 1282 2698 1739 
Q 2698 2195 2512 2496 
Q 2327 2798 1968 2798 
Q 1602 2798 1416 2496 
Q 1230 2195 1230 1739 
Q 1230 1282 1416 982 
Q 1602 682 1968 682 
z
" transform="scale(0.015625)"/>
      <path id="Inter-Bold-2c" d="M 1439 636 
L 1414 386 
Q 1384 86 1301 -212 
Q 1218 -511 1128 -754 
Q 1039 -998 984 -1136 
L 357 -1136 
Q 391 -1002 450 -763 
Q 509 -525 561 -226 
Q 614 73 627 382 
L 639 636 
L 1439 636 
z
" transform="scale(0.015625)"/>
     </defs>
     <use xlink:href="#Inter-Bold-43"/>
     <use xlink:href="#Inter-Bold-75" x="75.213089"/>
     <use xlink:href="#Inter-Bold-6d" x="137.393494"/>
     <use xlink:href="#Inter-Bold-75" x="228.5867"/>
     <use xlink:href="#Inter-Bold-6c" x="290.767105"/>
     <use xlink:href="#Inter-Bold-61" x="317.968811"/>
     <use xlink:href="#Inter-Bold-74" x="375.994385"/>
     <use xlink:href="#Inter-Bold-69" x="414.843826"/>
     <use xlink:href="#Inter-Bold-76" x="442.045532"/>
     <use xlink:href="#Inter-Bold-65" x="500.639297"/>
     <use xlink:href="#Inter-Bold-20" x="560.404938"/>
     <use xlink:href="#Inter-Bold-43" x="583.593857"/>
     <use xlink:href="#Inter-Bold-4f" x="658.806946"/>
     <use xlink:href="#Inter-Bold-56" x="737.002991"/>
     <use xlink:href="#Inter-Bold-49" x="811.789932"/>
     <use xlink:href="#Inter-Bold-44" x="839.843918"/>
     <use xlink:href="#Inter-Bold-2d" x="912.571213"/>
     <use xlink:href="#Inter-Bold-31" x="959.446228"/>
     <use xlink:href="#Inter-Bold-39" x="1006.853912"/>
     <use xlink:href="#Inter-Bold-20" x="1072.869553"/>
     <use xlink:href="#Inter-Bold-63" x="1096.058472"/>
     <use xlink:href="#Inter-Bold-61" x="1154.794281"/>
     <use xlink:href="#Inter-Bold-73" x="1212.819855"/>
     <use xlink:href="#Inter-Bold-65" x="1268.99884"/>
     <use xlink:href="#Inter-Bold-73" x="1328.764481"/>
     <use xlink:href="#Inter-Bold-20" x="1384.943466"/>
     <use xlink:href="#Inter-Bold-62" x="1408.132385"/>
     <use xlink:href="#Inter-Bold-79" x="1471.662231"/>
     <use xlink:href="#Inter-Bold-20" x="1530.255997"/>
     <use xlink:href="#Inter-Bold-64" x="1553.444916"/>
     <use xlink:href="#Inter-Bold-61" x="1616.974762"/>
     <use xlink:href="#Inter-Bold-74" x="1675.000336"/>
     <use xlink:href="#Inter-Bold-65" x="1713.849777"/>
     <use xlink:href="#Inter-Bold-20" x="1773.615417"/>
     <use xlink:href="#Inter-Bold-72" x="1796.804337"/>
     <use xlink:href="#Inter-Bold-65" x="1839.666565"/>
     <use xlink:href="#Inter-Bold-70" x="1899.432205"/>
     <use xlink:href="#Inter-Bold-6f" x="1962.677963"/>
     <use xlink:href="#Inter-Bold-72" x="2024.041611"/>
     <use xlink:href="#Inter-Bold-74" x="2066.903839"/>
     <use xlink:href="#Inter-Bold-65" x="2105.753281"/>
     <use xlink:href="#Inter-Bold-64" x="2165.518921"/>
     <use xlink:href="#Inter-Bold-2c" x="2229.048767"/>
     <use xlink:href="#Inter-Bold-20" x="2259.339966"/>
     <use xlink:href="#Inter-Bold-70" x="2282.528885"/>
     <use xlink:href="#Inter-Bold-65" x="2345.774643"/>
     <use xlink:href="#Inter-Bold-72" x="2405.540283"/>
     <use xlink:href="#Inter-Bold-20" x="2448.402512"/>
     <use xlink:href="#Inter-Bold-63" x="2471.591431"/>
     <use xlink:href="#Inter-Bold-61" x="2530.32724"/>
     <use xlink:href="#Inter-Bold-70" x="2588.352814"/>
     <use xlink:href="#Inter-Bold-69" x="2651.598572"/>
     <use xlink:href="#Inter-Bold-74" x="2678.800278"/>
     <use xlink:href="#Inter-Bold-61" x="2717.649719"/>
    </g>
   </g>
   <g id="legend_1">
    <g id="patch_4">
     <path d="M 66.398438 98.614062 
L 175.971875 98.614062 
Q 177.971875 98.614062 177.971875 96.614062 
L 177.971875 40.225 
Q 177.971875 38.225 175.971875 38.225 
L 66.398438 38.225 
Q 64.398438 38.225 64.398438 40.225 
L 64.398438 96.614062 
Q 64.398438 98.614062 66.398438 98.614062 
z
" style="fill: #ffffff; opacity: 0.8; stroke: #cccccc; stroke-linejoin: miter"/>
    </g>
    <g id="line2d_50">
     <path d="M 68.398438 45.998437 
L 78.398438 45.998437 
L 88.398438 45.998437 
" style="fill: none; stroke: #d4351c; stroke-width: 2; stroke-linecap: square"/>
    </g>
    <g id="text_26">
     <!-- Wales -->
     <g transform="translate(96.398438 49.498437)scale(0.1 -0.1)">
      <defs>
       <path id="Inter-Regular-57" d="M 1409 0 
L 136 4655 
L 709 4655 
L 1682 864 
L 1727 864 
L 2718 4655 
L 3355 4655 
L 4346 864 
L 4391 864 
L 5364 4655 
L 5936 4655 
L 4664 0 
L 4082 0 
L 3055 3709 
L 3018 3709 
L 1991 0 
L 1409 0 
z
" transform="scale(0.015625)"/>
      </defs>
      <use xlink:href="#Inter-Regular-57"/>
      <use xlink:href="#Inter-Regular-61" x="94.886383"/>
      <use xlink:href="#Inter-Regular-6c" x="151.278442"/>
      <use xlink:href="#Inter-Regular-65" x="175.000031"/>
      <use xlink:href="#Inter-Regular-73" x="233.238678"/>
     </g>
    </g>
    <g id="line2d_51">
     <path d="M 68.398438 60.317187 
L 78.398438 60.317187 
L 88.398438 60.317187 
" style="fill: none; stroke: #003078; stroke-width: 2; stroke-linecap: square"/>
    </g>
    <g id="text_27">
     <!-- Scotland -->
     <g transform="translate(96.398438 63.817187)scale(0.1 -0.1)">
      <use xlink:href="#Inter-Regular-53"/>
      <use xlink:href="#Inter-Regular-63" x="63.778427"/>
      <use xlink:href="#Inter-Regular-6f" x="119.602295"/>
      <use xlink:href="#Inter-Regular-74" x="179.261398"/>
      <use xlink:href="#Inter-Regular-6c" x="215.625046"/>
      <use xlink:href="#Inter-Regular-61" x="239.346634"/>
      <use xlink:href="#Inter-Regular-6e" x="295.738693"/>
      <use xlink:href="#Inter-Regular-64" x="354.261429"/>
     </g>
    </g>
    <g id="line2d_52">
     <path d="M 68.398438 74.635937 
L 78.398438 74.635937 
L 88.398438 74.635937 
" style="fill: none; stroke: #ffdd00; stroke-width: 2; stroke-linecap: square"/>
    </g>
    <g id="text_28">
     <!-- Northern Ireland -->
     <g transform="translate(96.398438 78.135937)scale(0.1 -0.1)">
      <defs>
       <path id="Inter-Regular-68" d="M 1027 2100 
L 1027 0 
L 491 0 
L 491 4655 
L 1027 4655 
L 1027 2945 
L 1073 2945 
Q 1196 3216 1442 3376 
Q 1689 3536 2100 3536 
Q 2636 3536 2963 3213 
Q 3291 2891 3291 2218 
L 3291 0 
L 2755 0 
L 2755 2182 
Q 2755 2598 2540 2826 
Q 2325 3055 1946 3055 
Q 1548 3055 1287 2806 
Q 1027 2557 1027 2100 
z
" transform="scale(0.015625)"/>
       <path id="Inter-Regular-49" d="M 1127 4655 
L 1127 0 
L 564 0 
L 564 4655 
L 1127 4655 
z
" transform="scale(0.015625)"/>
      </defs>
      <use xlink:href="#Inter-Regular-4e"/>
      <use xlink:href="#Inter-Regular-6f" x="75.284103"/>
      <use xlink:href="#Inter-Regular-72" x="134.943207"/>
      <use xlink:href="#Inter-Regular-74" x="173.295486"/>
      <use xlink:href="#Inter-Regular-68" x="209.659134"/>
      <use xlink:href="#Inter-Regular-65" x="268.750061"/>
      <use xlink:href="#Inter-Regular-72" x="326.988708"/>
      <use xlink:href="#Inter-Regular-6e" x="365.340988"/>
      <use xlink:href="#Inter-Regular-20" x="423.863724"/>
      <use xlink:href="#Inter-Regular-49" x="451.988724"/>
      <use xlink:href="#Inter-Regular-72" x="478.40918"/>
      <use xlink:href="#Inter-Regular-65" x="516.761459"/>
      <use xlink:href="#Inter-Regular-6c" x="575.000107"/>
      <use xlink:href="#Inter-Regular-61" x="598.721695"/>
      <use xlink:href="#Inter-Regular-6e" x="655.113754"/>
      <use xlink:href="#Inter-Regular-64" x="713.63649"/>
     </g>
    </g>
    <g id="line2d_53">
     <path d="M 68.398438 88.954687 
L 78.398438 88.954687 
L 88.398438 88.954687 
" style="fill: none; stroke: #5694ca; stroke-width: 2; stroke-linecap: square"/>
    </g>
    <g id="text_29">
     <!-- England -->
     <g transform="translate(96.398438 92.454687)scale(0.1 -0.1)">
      <defs>
       <path id="Inter-Regular-45" d="M 564 0 
L 564 4655 
L 3373 4655 
L 3373 4155 
L 1127 4155 
L 1127 2582 
L 3227 2582 
L 3227 2082 
L 1127 2082 
L 1127 500 
L 3409 500 
L 3409 0 
L 564 0 
z
" transform="scale(0.015625)"/>
       <path id="Inter-Regular-67" d="M 1900 -1382 
Q 1316 -1382 976 -1169 
Q 636 -957 473 -682 
L 900 -382 
Q 973 -477 1084 -601 
Q 1196 -725 1390 -817 
Q 1584 -909 1900 -909 
Q 2323 -909 2598 -704 
Q 2873 -500 2873 -64 
L 2873 645 
L 2827 645 
Q 2768 550 2660 410 
Q 2552 270 2351 162 
Q 2150 55 1809 55 
Q 1386 55 1051 255 
Q 716 455 521 836 
Q 327 1218 327 1764 
Q 327 2300 516 2699 
Q 705 3098 1041 3317 
Q 1377 3536 1818 3536 
Q 2159 3536 2360 3423 
Q 2561 3311 2669 3169 
Q 2777 3027 2836 2936 
L 2891 2936 
L 2891 3491 
L 3409 3491 
L 3409 -100 
Q 3409 -550 3205 -833 
Q 3002 -1116 2660 -1249 
Q 2318 -1382 1900 -1382 
z
M 1882 536 
Q 2366 536 2624 864 
Q 2882 1193 2882 1773 
Q 2882 2339 2627 2697 
Q 2373 3055 1882 3055 
Q 1541 3055 1315 2882 
Q 1089 2709 976 2418 
Q 864 2127 864 1773 
Q 864 1227 1120 881 
Q 1377 536 1882 536 
z
" transform="scale(0.015625)"/>
      </defs>
      <use xlink:href="#Inter-Regular-45"/>
      <use xlink:href="#Inter-Regular-6e" x="59.801147"/>
      <use xlink:href="#Inter-Regular-67" x="118.323883"/>
      <use xlink:href="#Inter-Regular-6c" x="179.261398"/>
      <use xlink:href="#Inter-Regular-61" x="202.982986"/>
      <use xlink:href="#Inter-Regular-6e" x="259.375046"/>
      <use xlink:href="#Inter-Regular-64" x="317.897781"/>
     </g>
    </g>
   </g>
  </g>
 </g>
 <defs>
  <clipPath id="p5e300b430d">
   <rect x="59.398438" y="33.225" width="669.6" height="443.52"/>
  </clipPath>
 </defs>
</svg>
