<?xml version="1.0" encoding="utf-8" standalone="no"?>
<!DOCTYPE svg PUBLIC "-//W3C//DTD SVG 1.1//EN"
  "http://www.w3.org/Graphics/SVG/1.1/DTD/svg11.dtd">
<svg version="1.1" viewBox="0 0 760.053719 511.27625" xmlns="http://www.w3.org/2000/svg" xmlns:xlink="http://www.w3.org/1999/xlink">
 <metadata>
  <rdf:RDF xmlns:cc="http://creativecommons.org/ns#" xmlns:dc="http://purl.org/dc/elements/1.1/" xmlns:rdf="http://www.w3.org/1999/02/22-rdf-syntax-ns#">
   <cc:Work>
    <dc:type rdf:resource="http://purl.org/dc/dcmitype/StillImage"/>
    <dc:date>2021-04-07T16:07:16.113764</dc:date>
    <dc:format>image/svg+xml</dc:format>
    <dc:creator>
     <cc:Agent>
      <dc:title>Matplotlib v3.4.1, https://matplotlib.org/</dc:title>
     </cc:Agent>
    </dc:creator>
   </cc:Work>
  </rdf:RDF>
 </metadata>
 <defs>
  <style type="text/css">*{stroke-linecap:butt;stroke-linejoin:round;}</style>
 </defs>
 <g id="figure_1">
  <g id="patch_1">
   <path d="M 0 511.27625 
L 760.053719 511.27625 
L 760.053719 0 
L 0 0 
z
" style="fill:#ffffff;"/>
  </g>
  <g id="axes_1">
   <g id="patch_2">
    <path d="M 68.460938 476.745 
L 738.060938 476.745 
L 738.060938 33.225 
L 68.460938 33.225 
z
" style="fill:#ffffff;"/>
   </g>
   <g id="matplotlib.axis_1">
    <g id="xtick_1">
     <g id="line2d_1">
      <defs>
       <path d="M 0 0 
L 0 3.5 
" id="m2e97c08c08" style="stroke:#000000;stroke-width:0.8;"/>
      </defs>
      <g>
       <use style="stroke:#000000;stroke-width:0.8;" x="68.460938" xlink:href="#m2e97c08c08" y="476.745"/>
      </g>
     </g>
     <g id="text_1">
      <!-- 01 Mar -->
      <g transform="translate(52.424219 491.018438)scale(0.1 -0.1)">
       <defs>
        <path d="M 2000 -64 
Q 1230 -64 806 561 
Q 382 1186 382 2327 
Q 382 3459 809 4088 
Q 1236 4718 2000 4718 
Q 2764 4718 3191 4088 
Q 3618 3459 3618 2327 
Q 3618 1186 3194 561 
Q 2771 -64 2000 -64 
z
M 2000 436 
Q 2509 436 2791 927 
Q 3073 1418 3073 2327 
Q 3073 3234 2789 3730 
Q 2505 4227 2000 4227 
Q 1496 4227 1211 3730 
Q 927 3234 927 2327 
Q 927 1418 1210 927 
Q 1493 436 2000 436 
z
" id="Inter-Regular-30" transform="scale(0.015625)"/>
        <path d="M 1973 4655 
L 1973 0 
L 1409 0 
L 1409 3836 
L 1373 3836 
Q 1341 3773 1209 3692 
Q 1077 3611 868 3551 
Q 659 3491 391 3491 
L 391 3964 
Q 661 3964 859 4061 
Q 1057 4159 1190 4291 
Q 1323 4423 1392 4529 
Q 1461 4636 1473 4655 
L 1973 4655 
z
" id="Inter-Regular-31" transform="scale(0.015625)"/>
        <path id="Inter-Regular-20" transform="scale(0.015625)"/>
        <path d="M 564 4655 
L 1236 4655 
L 2818 791 
L 2873 791 
L 4455 4655 
L 5127 4655 
L 5127 0 
L 4600 0 
L 4600 3536 
L 4555 3536 
L 3100 0 
L 2591 0 
L 1136 3536 
L 1091 3536 
L 1091 0 
L 564 0 
L 564 4655 
z
" id="Inter-Regular-4d" transform="scale(0.015625)"/>
        <path d="M 1518 -82 
Q 1186 -82 916 44 
Q 646 170 486 410 
Q 327 650 327 991 
Q 327 1291 445 1478 
Q 564 1666 761 1773 
Q 959 1880 1199 1933 
Q 1439 1986 1682 2018 
Q 2000 2059 2199 2080 
Q 2398 2102 2490 2154 
Q 2582 2207 2582 2336 
L 2582 2355 
Q 2582 2691 2399 2877 
Q 2216 3064 1846 3064 
Q 1461 3064 1243 2895 
Q 1025 2727 936 2536 
L 427 2718 
Q 564 3036 792 3214 
Q 1021 3393 1292 3464 
Q 1564 3536 1827 3536 
Q 1996 3536 2215 3496 
Q 2434 3457 2640 3334 
Q 2846 3211 2982 2963 
Q 3118 2716 3118 2300 
L 3118 0 
L 2582 0 
L 2582 473 
L 2555 473 
Q 2500 359 2373 229 
Q 2246 100 2034 9 
Q 1823 -82 1518 -82 
z
M 1600 400 
Q 1918 400 2137 525 
Q 2357 650 2469 847 
Q 2582 1045 2582 1264 
L 2582 1755 
Q 2548 1714 2433 1681 
Q 2318 1648 2169 1624 
Q 2021 1600 1881 1583 
Q 1741 1566 1655 1555 
Q 1446 1527 1265 1467 
Q 1084 1407 974 1287 
Q 864 1168 864 964 
Q 864 684 1072 542 
Q 1280 400 1600 400 
z
" id="Inter-Regular-61" transform="scale(0.015625)"/>
        <path d="M 491 0 
L 491 3491 
L 1009 3491 
L 1009 2964 
L 1046 2964 
Q 1139 3223 1389 3384 
Q 1639 3545 1955 3545 
Q 2100 3545 2209 3511 
Q 2318 3477 2400 3418 
L 2218 2964 
Q 2161 2993 2085 3010 
Q 2009 3027 1909 3027 
Q 1527 3027 1277 2794 
Q 1027 2561 1027 2209 
L 1027 0 
L 491 0 
z
" id="Inter-Regular-72" transform="scale(0.015625)"/>
       </defs>
       <use xlink:href="#Inter-Regular-30"/>
       <use x="62.500015" xlink:href="#Inter-Regular-31"/>
       <use x="106.676163" xlink:href="#Inter-Regular-20"/>
       <use x="134.801163" xlink:href="#Inter-Regular-4d"/>
       <use x="225.99437" xlink:href="#Inter-Regular-61"/>
       <use x="282.386429" xlink:href="#Inter-Regular-72"/>
      </g>
     </g>
    </g>
    <g id="xtick_2">
     <g id="line2d_2">
      <g>
       <use style="stroke:#000000;stroke-width:0.8;" x="120.010777" xlink:href="#m2e97c08c08" y="476.745"/>
      </g>
     </g>
     <g id="text_2">
      <!-- 01 Apr -->
      <g transform="translate(104.925621 491.116875)scale(0.1 -0.1)">
       <defs>
        <path d="M 755 0 
L 164 0 
L 1873 4655 
L 2455 4655 
L 4164 0 
L 3573 0 
L 3105 1318 
L 1223 1318 
L 755 0 
z
M 1400 1818 
L 2927 1818 
L 2182 3918 
L 2146 3918 
L 1400 1818 
z
" id="Inter-Regular-41" transform="scale(0.015625)"/>
        <path d="M 491 -1309 
L 491 3491 
L 1009 3491 
L 1009 2936 
L 1073 2936 
Q 1132 3027 1237 3169 
Q 1343 3311 1542 3423 
Q 1741 3536 2082 3536 
Q 2523 3536 2859 3315 
Q 3196 3095 3384 2690 
Q 3573 2286 3573 1736 
Q 3573 1182 3384 776 
Q 3196 370 2861 148 
Q 2527 -73 2091 -73 
Q 1755 -73 1552 39 
Q 1350 152 1241 296 
Q 1132 441 1073 536 
L 1027 536 
L 1027 -1309 
L 491 -1309 
z
M 1018 1745 
Q 1018 1152 1276 780 
Q 1534 409 2018 409 
Q 2355 409 2581 587 
Q 2807 766 2921 1069 
Q 3036 1373 3036 1745 
Q 3036 2114 2923 2410 
Q 2811 2707 2585 2881 
Q 2359 3055 2018 3055 
Q 1527 3055 1272 2693 
Q 1018 2332 1018 1745 
z
" id="Inter-Regular-70" transform="scale(0.015625)"/>
       </defs>
       <use xlink:href="#Inter-Regular-30"/>
       <use x="62.500015" xlink:href="#Inter-Regular-31"/>
       <use x="106.676163" xlink:href="#Inter-Regular-20"/>
       <use x="134.801163" xlink:href="#Inter-Regular-41"/>
       <use x="202.41481" xlink:href="#Inter-Regular-70"/>
       <use x="263.352325" xlink:href="#Inter-Regular-72"/>
      </g>
     </g>
    </g>
    <g id="xtick_3">
     <g id="line2d_3">
      <g>
       <use style="stroke:#000000;stroke-width:0.8;" x="169.897718" xlink:href="#m2e97c08c08" y="476.745"/>
      </g>
     </g>
     <g id="text_3">
      <!-- 01 May -->
      <g transform="translate(152.994593 491.116875)scale(0.1 -0.1)">
       <defs>
        <path d="M 818 -1355 
Q 682 -1355 575 -1333 
Q 468 -1311 427 -1291 
L 564 -818 
Q 857 -893 1053 -814 
Q 1250 -736 1391 -345 
L 1509 -18 
L 218 3491 
L 800 3491 
L 1764 709 
L 1800 709 
L 2764 3491 
L 3346 3491 
L 1846 -564 
Q 1550 -1355 818 -1355 
z
" id="Inter-Regular-79" transform="scale(0.015625)"/>
       </defs>
       <use xlink:href="#Inter-Regular-30"/>
       <use x="62.500015" xlink:href="#Inter-Regular-31"/>
       <use x="106.676163" xlink:href="#Inter-Regular-20"/>
       <use x="134.801163" xlink:href="#Inter-Regular-4d"/>
       <use x="225.99437" xlink:href="#Inter-Regular-61"/>
       <use x="282.386429" xlink:href="#Inter-Regular-79"/>
      </g>
     </g>
    </g>
    <g id="xtick_4">
     <g id="line2d_4">
      <g>
       <use style="stroke:#000000;stroke-width:0.8;" x="221.447558" xlink:href="#m2e97c08c08" y="476.745"/>
      </g>
     </g>
     <g id="text_4">
      <!-- 01 Jun -->
      <g transform="translate(206.163183 491.018438)scale(0.1 -0.1)">
       <defs>
        <path d="M 2346 4655 
L 2909 4655 
L 2909 1327 
Q 2909 657 2549 296 
Q 2189 -64 1582 -64 
Q 1200 -64 902 76 
Q 605 216 434 475 
Q 264 734 264 1091 
L 818 1091 
Q 818 795 1034 615 
Q 1250 436 1582 436 
Q 1948 436 2147 664 
Q 2346 893 2346 1327 
L 2346 4655 
z
" id="Inter-Regular-4a" transform="scale(0.015625)"/>
        <path d="M 2691 1427 
L 2691 3491 
L 3227 3491 
L 3227 0 
L 2691 0 
L 2691 591 
L 2655 591 
Q 2532 325 2273 140 
Q 2014 -45 1618 -45 
Q 1127 -45 809 280 
Q 491 605 491 1273 
L 491 3491 
L 1027 3491 
L 1027 1309 
Q 1027 927 1242 700 
Q 1457 473 1791 473 
Q 1991 473 2199 575 
Q 2407 677 2549 888 
Q 2691 1100 2691 1427 
z
" id="Inter-Regular-75" transform="scale(0.015625)"/>
        <path d="M 1027 2100 
L 1027 0 
L 491 0 
L 491 3491 
L 1009 3491 
L 1009 2945 
L 1055 2945 
Q 1177 3211 1427 3373 
Q 1677 3536 2073 3536 
Q 2602 3536 2928 3211 
Q 3255 2886 3255 2218 
L 3255 0 
L 2718 0 
L 2718 2182 
Q 2718 2593 2504 2824 
Q 2291 3055 1918 3055 
Q 1534 3055 1280 2806 
Q 1027 2557 1027 2100 
z
" id="Inter-Regular-6e" transform="scale(0.015625)"/>
       </defs>
       <use xlink:href="#Inter-Regular-30"/>
       <use x="62.500015" xlink:href="#Inter-Regular-31"/>
       <use x="106.676163" xlink:href="#Inter-Regular-20"/>
       <use x="134.801163" xlink:href="#Inter-Regular-4a"/>
       <use x="189.062531" xlink:href="#Inter-Regular-75"/>
       <use x="247.159134" xlink:href="#Inter-Regular-6e"/>
      </g>
     </g>
    </g>
    <g id="xtick_5">
     <g id="line2d_5">
      <g>
       <use style="stroke:#000000;stroke-width:0.8;" x="271.334499" xlink:href="#m2e97c08c08" y="476.745"/>
      </g>
     </g>
     <g id="text_5">
      <!-- 01 Jul -->
      <g transform="translate(257.790749 491.018438)scale(0.1 -0.1)">
       <defs>
        <path d="M 1027 4655 
L 1027 0 
L 491 0 
L 491 4655 
L 1027 4655 
z
" id="Inter-Regular-6c" transform="scale(0.015625)"/>
       </defs>
       <use xlink:href="#Inter-Regular-30"/>
       <use x="62.500015" xlink:href="#Inter-Regular-31"/>
       <use x="106.676163" xlink:href="#Inter-Regular-20"/>
       <use x="134.801163" xlink:href="#Inter-Regular-4a"/>
       <use x="189.062531" xlink:href="#Inter-Regular-75"/>
       <use x="247.159134" xlink:href="#Inter-Regular-6c"/>
      </g>
     </g>
    </g>
    <g id="xtick_6">
     <g id="line2d_6">
      <g>
       <use style="stroke:#000000;stroke-width:0.8;" x="322.884338" xlink:href="#m2e97c08c08" y="476.745"/>
      </g>
     </g>
     <g id="text_6">
      <!-- 01 Aug -->
      <g transform="translate(306.812463 491.116875)scale(0.1 -0.1)">
       <defs>
        <path d="M 1900 -1382 
Q 1316 -1382 976 -1169 
Q 636 -957 473 -682 
L 900 -382 
Q 973 -477 1084 -601 
Q 1196 -725 1390 -817 
Q 1584 -909 1900 -909 
Q 2323 -909 2598 -704 
Q 2873 -500 2873 -64 
L 2873 645 
L 2827 645 
Q 2768 550 2660 410 
Q 2552 270 2351 162 
Q 2150 55 1809 55 
Q 1386 55 1051 255 
Q 716 455 521 836 
Q 327 1218 327 1764 
Q 327 2300 516 2699 
Q 705 3098 1041 3317 
Q 1377 3536 1818 3536 
Q 2159 3536 2360 3423 
Q 2561 3311 2669 3169 
Q 2777 3027 2836 2936 
L 2891 2936 
L 2891 3491 
L 3409 3491 
L 3409 -100 
Q 3409 -550 3205 -833 
Q 3002 -1116 2660 -1249 
Q 2318 -1382 1900 -1382 
z
M 1882 536 
Q 2366 536 2624 864 
Q 2882 1193 2882 1773 
Q 2882 2339 2627 2697 
Q 2373 3055 1882 3055 
Q 1541 3055 1315 2882 
Q 1089 2709 976 2418 
Q 864 2127 864 1773 
Q 864 1227 1120 881 
Q 1377 536 1882 536 
z
" id="Inter-Regular-67" transform="scale(0.015625)"/>
       </defs>
       <use xlink:href="#Inter-Regular-30"/>
       <use x="62.500015" xlink:href="#Inter-Regular-31"/>
       <use x="106.676163" xlink:href="#Inter-Regular-20"/>
       <use x="134.801163" xlink:href="#Inter-Regular-41"/>
       <use x="202.41481" xlink:href="#Inter-Regular-75"/>
       <use x="260.511414" xlink:href="#Inter-Regular-67"/>
      </g>
     </g>
    </g>
    <g id="xtick_7">
     <g id="line2d_7">
      <g>
       <use style="stroke:#000000;stroke-width:0.8;" x="374.434178" xlink:href="#m2e97c08c08" y="476.745"/>
      </g>
     </g>
     <g id="text_7">
      <!-- 01 Sep -->
      <g transform="translate(358.546678 491.116875)scale(0.1 -0.1)">
       <defs>
        <path d="M 3109 3491 
Q 3068 3836 2777 4027 
Q 2486 4218 2064 4218 
Q 1600 4218 1318 3999 
Q 1036 3780 1036 3445 
Q 1036 3195 1189 3042 
Q 1343 2889 1553 2803 
Q 1764 2718 1936 2673 
L 2409 2545 
Q 2591 2498 2815 2414 
Q 3039 2330 3244 2185 
Q 3450 2041 3584 1816 
Q 3718 1591 3718 1264 
Q 3718 886 3521 581 
Q 3325 277 2949 97 
Q 2573 -82 2036 -82 
Q 1286 -82 845 272 
Q 405 627 364 1200 
L 946 1200 
Q 968 936 1124 764 
Q 1280 593 1519 510 
Q 1759 427 2036 427 
Q 2359 427 2616 533 
Q 2873 639 3023 828 
Q 3173 1018 3173 1273 
Q 3173 1505 3043 1650 
Q 2914 1795 2702 1886 
Q 2491 1977 2246 2045 
L 1673 2209 
Q 1127 2366 809 2657 
Q 491 2948 491 3418 
Q 491 3809 703 4101 
Q 916 4393 1276 4555 
Q 1636 4718 2082 4718 
Q 2532 4718 2882 4558 
Q 3232 4398 3437 4120 
Q 3643 3843 3655 3491 
L 3109 3491 
z
" id="Inter-Regular-53" transform="scale(0.015625)"/>
        <path d="M 1955 -73 
Q 1450 -73 1085 151 
Q 721 375 524 778 
Q 327 1182 327 1718 
Q 327 2255 524 2665 
Q 721 3075 1074 3305 
Q 1427 3536 1900 3536 
Q 2173 3536 2439 3445 
Q 2705 3355 2923 3151 
Q 3141 2948 3270 2614 
Q 3400 2280 3400 1791 
L 3400 1564 
L 866 1564 
Q 884 1005 1183 707 
Q 1482 409 1955 409 
Q 2271 409 2498 545 
Q 2725 682 2827 955 
L 3346 809 
Q 3223 414 2854 170 
Q 2486 -73 1955 -73 
z
M 866 2027 
L 2855 2027 
Q 2855 2470 2595 2762 
Q 2336 3055 1900 3055 
Q 1593 3055 1368 2911 
Q 1143 2768 1013 2533 
Q 884 2298 866 2027 
z
" id="Inter-Regular-65" transform="scale(0.015625)"/>
       </defs>
       <use xlink:href="#Inter-Regular-30"/>
       <use x="62.500015" xlink:href="#Inter-Regular-31"/>
       <use x="106.676163" xlink:href="#Inter-Regular-20"/>
       <use x="134.801163" xlink:href="#Inter-Regular-53"/>
       <use x="198.57959" xlink:href="#Inter-Regular-65"/>
       <use x="256.818237" xlink:href="#Inter-Regular-70"/>
      </g>
     </g>
    </g>
    <g id="xtick_8">
     <g id="line2d_8">
      <g>
       <use style="stroke:#000000;stroke-width:0.8;" x="424.321119" xlink:href="#m2e97c08c08" y="476.745"/>
      </g>
     </g>
     <g id="text_8">
      <!-- 01 Oct -->
      <g transform="translate(409.164869 491.018438)scale(0.1 -0.1)">
       <defs>
        <path d="M 4491 2327 
Q 4491 1591 4225 1054 
Q 3959 518 3495 227 
Q 3032 -64 2436 -64 
Q 1841 -64 1377 227 
Q 914 518 648 1054 
Q 382 1591 382 2327 
Q 382 3064 648 3600 
Q 914 4136 1377 4427 
Q 1841 4718 2436 4718 
Q 3032 4718 3495 4427 
Q 3959 4136 4225 3600 
Q 4491 3064 4491 2327 
z
M 3946 2327 
Q 3946 2932 3744 3348 
Q 3543 3764 3201 3977 
Q 2859 4191 2436 4191 
Q 2014 4191 1672 3977 
Q 1330 3764 1128 3348 
Q 927 2932 927 2327 
Q 927 1723 1128 1307 
Q 1330 891 1672 677 
Q 2014 464 2436 464 
Q 2859 464 3201 677 
Q 3543 891 3744 1307 
Q 3946 1723 3946 2327 
z
" id="Inter-Regular-4f" transform="scale(0.015625)"/>
        <path d="M 1909 -73 
Q 1418 -73 1063 159 
Q 709 391 518 798 
Q 327 1205 327 1727 
Q 327 2259 524 2667 
Q 721 3075 1074 3305 
Q 1427 3536 1900 3536 
Q 2268 3536 2563 3400 
Q 2859 3264 3047 3018 
Q 3236 2773 3282 2445 
L 2746 2445 
Q 2684 2684 2474 2869 
Q 2264 3055 1909 3055 
Q 1439 3055 1151 2697 
Q 864 2339 864 1745 
Q 864 1139 1148 774 
Q 1432 409 1909 409 
Q 2223 409 2447 570 
Q 2671 732 2746 1018 
L 3282 1018 
Q 3236 709 3058 462 
Q 2880 216 2588 71 
Q 2296 -73 1909 -73 
z
" id="Inter-Regular-63" transform="scale(0.015625)"/>
        <path d="M 2009 3491 
L 2009 3036 
L 1264 3036 
L 1264 1000 
Q 1264 773 1331 660 
Q 1398 548 1503 510 
Q 1609 473 1727 473 
Q 1816 473 1873 483 
Q 1930 493 1964 500 
L 2073 18 
Q 2018 -2 1920 -23 
Q 1823 -45 1673 -45 
Q 1446 -45 1228 52 
Q 1011 150 869 350 
Q 727 550 727 855 
L 727 3036 
L 200 3036 
L 200 3491 
L 727 3491 
L 727 4327 
L 1264 4327 
L 1264 3491 
L 2009 3491 
z
" id="Inter-Regular-74" transform="scale(0.015625)"/>
       </defs>
       <use xlink:href="#Inter-Regular-30"/>
       <use x="62.500015" xlink:href="#Inter-Regular-31"/>
       <use x="106.676163" xlink:href="#Inter-Regular-20"/>
       <use x="134.801163" xlink:href="#Inter-Regular-4f"/>
       <use x="210.937546" xlink:href="#Inter-Regular-63"/>
       <use x="266.761414" xlink:href="#Inter-Regular-74"/>
      </g>
     </g>
    </g>
    <g id="xtick_9">
     <g id="line2d_9">
      <g>
       <use style="stroke:#000000;stroke-width:0.8;" x="475.870958" xlink:href="#m2e97c08c08" y="476.745"/>
      </g>
     </g>
     <g id="text_9">
      <!-- 01 Nov -->
      <g transform="translate(459.599865 491.018438)scale(0.1 -0.1)">
       <defs>
        <path d="M 4255 4655 
L 4255 0 
L 3709 0 
L 1173 3655 
L 1127 3655 
L 1127 0 
L 564 0 
L 564 4655 
L 1109 4655 
L 3655 991 
L 3700 991 
L 3700 4655 
L 4255 4655 
z
" id="Inter-Regular-4e" transform="scale(0.015625)"/>
        <path d="M 1909 -73 
Q 1436 -73 1080 152 
Q 725 377 526 781 
Q 327 1186 327 1727 
Q 327 2273 526 2679 
Q 725 3086 1080 3311 
Q 1436 3536 1909 3536 
Q 2382 3536 2737 3311 
Q 3093 3086 3292 2679 
Q 3491 2273 3491 1727 
Q 3491 1186 3292 781 
Q 3093 377 2737 152 
Q 2382 -73 1909 -73 
z
M 1909 409 
Q 2268 409 2500 593 
Q 2732 777 2843 1077 
Q 2955 1377 2955 1727 
Q 2955 2077 2843 2379 
Q 2732 2682 2500 2868 
Q 2268 3055 1909 3055 
Q 1550 3055 1318 2868 
Q 1086 2682 975 2379 
Q 864 2077 864 1727 
Q 864 1377 975 1077 
Q 1086 777 1318 593 
Q 1550 409 1909 409 
z
" id="Inter-Regular-6f" transform="scale(0.015625)"/>
        <path d="M 3346 3491 
L 2055 0 
L 1509 0 
L 218 3491 
L 800 3491 
L 1764 709 
L 1800 709 
L 2764 3491 
L 3346 3491 
z
" id="Inter-Regular-76" transform="scale(0.015625)"/>
       </defs>
       <use xlink:href="#Inter-Regular-30"/>
       <use x="62.500015" xlink:href="#Inter-Regular-31"/>
       <use x="106.676163" xlink:href="#Inter-Regular-20"/>
       <use x="134.801163" xlink:href="#Inter-Regular-4e"/>
       <use x="210.085266" xlink:href="#Inter-Regular-6f"/>
       <use x="269.74437" xlink:href="#Inter-Regular-76"/>
      </g>
     </g>
    </g>
    <g id="xtick_10">
     <g id="line2d_10">
      <g>
       <use style="stroke:#000000;stroke-width:0.8;" x="525.7579" xlink:href="#m2e97c08c08" y="476.745"/>
      </g>
     </g>
     <g id="text_10">
      <!-- 01 Dec -->
      <g transform="translate(509.721181 491.018438)scale(0.1 -0.1)">
       <defs>
        <path d="M 2000 0 
L 564 0 
L 564 4655 
L 2064 4655 
Q 2741 4655 3223 4376 
Q 3705 4098 3961 3578 
Q 4218 3059 4218 2336 
Q 4218 1609 3959 1085 
Q 3700 561 3204 280 
Q 2709 0 2000 0 
z
M 1127 500 
L 1964 500 
Q 2830 500 3251 992 
Q 3673 1484 3673 2336 
Q 3673 3182 3259 3668 
Q 2846 4155 2027 4155 
L 1127 4155 
L 1127 500 
z
" id="Inter-Regular-44" transform="scale(0.015625)"/>
       </defs>
       <use xlink:href="#Inter-Regular-30"/>
       <use x="62.500015" xlink:href="#Inter-Regular-31"/>
       <use x="106.676163" xlink:href="#Inter-Regular-20"/>
       <use x="134.801163" xlink:href="#Inter-Regular-44"/>
       <use x="206.676178" xlink:href="#Inter-Regular-65"/>
       <use x="264.914825" xlink:href="#Inter-Regular-63"/>
      </g>
     </g>
    </g>
    <g id="xtick_11">
     <g id="line2d_11">
      <g>
       <use style="stroke:#000000;stroke-width:0.8;" x="577.307739" xlink:href="#m2e97c08c08" y="476.745"/>
      </g>
     </g>
     <g id="text_11">
      <!-- 01 Jan -->
      <g transform="translate(562.10852 491.018438)scale(0.1 -0.1)">
       <use xlink:href="#Inter-Regular-30"/>
       <use x="62.500015" xlink:href="#Inter-Regular-31"/>
       <use x="106.676163" xlink:href="#Inter-Regular-20"/>
       <use x="134.801163" xlink:href="#Inter-Regular-4a"/>
       <use x="189.062531" xlink:href="#Inter-Regular-61"/>
       <use x="245.45459" xlink:href="#Inter-Regular-6e"/>
      </g>
     </g>
    </g>
    <g id="xtick_12">
     <g id="line2d_12">
      <g>
       <use style="stroke:#000000;stroke-width:0.8;" x="628.857579" xlink:href="#m2e97c08c08" y="476.745"/>
      </g>
     </g>
     <g id="text_12">
      <!-- 01 Feb -->
      <g transform="translate(613.168516 491.018438)scale(0.1 -0.1)">
       <defs>
        <path d="M 564 0 
L 564 4655 
L 3355 4655 
L 3355 4155 
L 1127 4155 
L 1127 2582 
L 3146 2582 
L 3146 2082 
L 1127 2082 
L 1127 0 
L 564 0 
z
" id="Inter-Regular-46" transform="scale(0.015625)"/>
        <path d="M 564 0 
L 564 4655 
L 1100 4655 
L 1100 2936 
L 1146 2936 
Q 1205 3027 1310 3169 
Q 1416 3311 1615 3423 
Q 1814 3536 2155 3536 
Q 2596 3536 2932 3315 
Q 3268 3095 3457 2690 
Q 3646 2286 3646 1736 
Q 3646 1182 3457 776 
Q 3268 370 2934 148 
Q 2600 -73 2164 -73 
Q 1827 -73 1625 39 
Q 1423 152 1314 296 
Q 1205 441 1146 536 
L 1082 536 
L 1082 0 
L 564 0 
z
M 1091 1745 
Q 1091 1152 1349 780 
Q 1607 409 2091 409 
Q 2427 409 2653 587 
Q 2880 766 2994 1069 
Q 3109 1373 3109 1745 
Q 3109 2114 2996 2410 
Q 2884 2707 2658 2881 
Q 2432 3055 2091 3055 
Q 1600 3055 1345 2693 
Q 1091 2332 1091 1745 
z
" id="Inter-Regular-62" transform="scale(0.015625)"/>
       </defs>
       <use xlink:href="#Inter-Regular-30"/>
       <use x="62.500015" xlink:href="#Inter-Regular-31"/>
       <use x="106.676163" xlink:href="#Inter-Regular-20"/>
       <use x="134.801163" xlink:href="#Inter-Regular-46"/>
       <use x="193.465942" xlink:href="#Inter-Regular-65"/>
       <use x="251.70459" xlink:href="#Inter-Regular-62"/>
      </g>
     </g>
    </g>
    <g id="xtick_13">
     <g id="line2d_13">
      <g>
       <use style="stroke:#000000;stroke-width:0.8;" x="675.418724" xlink:href="#m2e97c08c08" y="476.745"/>
      </g>
     </g>
     <g id="text_13">
      <!-- 01 Mar -->
      <g transform="translate(659.382005 491.018438)scale(0.1 -0.1)">
       <use xlink:href="#Inter-Regular-30"/>
       <use x="62.500015" xlink:href="#Inter-Regular-31"/>
       <use x="106.676163" xlink:href="#Inter-Regular-20"/>
       <use x="134.801163" xlink:href="#Inter-Regular-4d"/>
       <use x="225.99437" xlink:href="#Inter-Regular-61"/>
       <use x="282.386429" xlink:href="#Inter-Regular-72"/>
      </g>
     </g>
    </g>
    <g id="xtick_14">
     <g id="line2d_14">
      <g>
       <use style="stroke:#000000;stroke-width:0.8;" x="726.968563" xlink:href="#m2e97c08c08" y="476.745"/>
      </g>
     </g>
     <g id="text_14">
      <!-- 01 Apr -->
      <g transform="translate(711.883407 491.116875)scale(0.1 -0.1)">
       <use xlink:href="#Inter-Regular-30"/>
       <use x="62.500015" xlink:href="#Inter-Regular-31"/>
       <use x="106.676163" xlink:href="#Inter-Regular-20"/>
       <use x="134.801163" xlink:href="#Inter-Regular-41"/>
       <use x="202.41481" xlink:href="#Inter-Regular-70"/>
       <use x="263.352325" xlink:href="#Inter-Regular-72"/>
      </g>
     </g>
    </g>
   </g>
   <g id="matplotlib.axis_2">
    <g id="ytick_1">
     <g id="line2d_15">
      <path clip-path="url(#pb6b921edf7)" d="M 68.460938 476.745 
L 738.060938 476.745 
" style="fill:none;stroke:#e5e5e5;stroke-linecap:square;stroke-width:0.8;"/>
     </g>
     <g id="line2d_16">
      <defs>
       <path d="M 0 0 
L -3.5 0 
" id="mdd918609fc" style="stroke:#000000;stroke-width:0.8;"/>
      </defs>
      <g>
       <use style="stroke:#000000;stroke-width:0.8;" x="68.460938" xlink:href="#mdd918609fc" y="476.745"/>
      </g>
     </g>
     <g id="text_15">
      <!-- 0.00% -->
      <g transform="translate(31.829688 480.381719)scale(0.1 -0.1)">
       <defs>
        <path d="M 882 -36 
Q 714 -36 593 84 
Q 473 205 473 373 
Q 473 541 593 661 
Q 714 782 882 782 
Q 1050 782 1170 661 
Q 1291 541 1291 373 
Q 1291 205 1170 84 
Q 1050 -36 882 -36 
z
" id="Inter-Regular-2e" transform="scale(0.015625)"/>
        <path d="M 2855 873 
L 2855 1118 
Q 2855 1373 2960 1585 
Q 3066 1798 3269 1926 
Q 3473 2055 3764 2055 
Q 4059 2055 4259 1926 
Q 4459 1798 4561 1585 
Q 4664 1373 4664 1118 
L 4664 873 
Q 4664 618 4560 405 
Q 4457 193 4256 64 
Q 4055 -64 3764 -64 
Q 3468 -64 3266 64 
Q 3064 193 2959 405 
Q 2855 618 2855 873 
z
M 536 3536 
L 536 3782 
Q 536 4036 642 4248 
Q 748 4461 951 4589 
Q 1155 4718 1446 4718 
Q 1741 4718 1941 4589 
Q 2141 4461 2243 4248 
Q 2346 4036 2346 3782 
L 2346 3536 
Q 2346 3282 2242 3069 
Q 2139 2857 1937 2728 
Q 1736 2600 1446 2600 
Q 1150 2600 948 2728 
Q 746 2857 641 3069 
Q 536 3282 536 3536 
z
M 709 0 
L 3909 4655 
L 4427 4655 
L 1227 0 
L 709 0 
z
M 3318 1118 
L 3318 873 
Q 3318 661 3418 494 
Q 3518 327 3764 327 
Q 4002 327 4101 494 
Q 4200 661 4200 873 
L 4200 1118 
Q 4200 1330 4104 1497 
Q 4009 1664 3764 1664 
Q 3525 1664 3421 1497 
Q 3318 1330 3318 1118 
z
M 1000 3782 
L 1000 3536 
Q 1000 3325 1100 3158 
Q 1200 2991 1446 2991 
Q 1684 2991 1783 3158 
Q 1882 3325 1882 3536 
L 1882 3782 
Q 1882 3993 1786 4160 
Q 1691 4327 1446 4327 
Q 1207 4327 1103 4160 
Q 1000 3993 1000 3782 
z
" id="Inter-Regular-25" transform="scale(0.015625)"/>
       </defs>
       <use xlink:href="#Inter-Regular-30"/>
       <use x="62.500015" xlink:href="#Inter-Regular-2e"/>
       <use x="90.056839" xlink:href="#Inter-Regular-30"/>
       <use x="152.556854" xlink:href="#Inter-Regular-30"/>
       <use x="215.05687" xlink:href="#Inter-Regular-25"/>
      </g>
     </g>
    </g>
    <g id="ytick_2">
     <g id="line2d_17">
      <path clip-path="url(#pb6b921edf7)" d="M 68.460938 411.212242 
L 738.060938 411.212242 
" style="fill:none;stroke:#e5e5e5;stroke-linecap:square;stroke-width:0.8;"/>
     </g>
     <g id="line2d_18">
      <g>
       <use style="stroke:#000000;stroke-width:0.8;" x="68.460938" xlink:href="#mdd918609fc" y="411.212242"/>
      </g>
     </g>
     <g id="text_16">
      <!-- 0.02% -->
      <g transform="translate(32.028125 414.848961)scale(0.1 -0.1)">
       <defs>
        <path d="M 482 0 
L 482 409 
L 2018 2091 
Q 2289 2386 2464 2605 
Q 2639 2825 2724 3019 
Q 2809 3214 2809 3427 
Q 2809 3795 2553 4011 
Q 2298 4227 1918 4227 
Q 1514 4227 1275 3985 
Q 1036 3743 1036 3345 
L 500 3345 
Q 500 3755 688 4064 
Q 877 4373 1203 4545 
Q 1530 4718 1936 4718 
Q 2346 4718 2661 4545 
Q 2977 4373 3156 4079 
Q 3336 3786 3336 3427 
Q 3336 3170 3244 2926 
Q 3152 2682 2926 2383 
Q 2700 2084 2300 1655 
L 1255 536 
L 1255 500 
L 3418 500 
L 3418 0 
L 482 0 
z
" id="Inter-Regular-32" transform="scale(0.015625)"/>
       </defs>
       <use xlink:href="#Inter-Regular-30"/>
       <use x="62.500015" xlink:href="#Inter-Regular-2e"/>
       <use x="90.056839" xlink:href="#Inter-Regular-30"/>
       <use x="152.556854" xlink:href="#Inter-Regular-32"/>
       <use x="213.068237" xlink:href="#Inter-Regular-25"/>
      </g>
     </g>
    </g>
    <g id="ytick_3">
     <g id="line2d_19">
      <path clip-path="url(#pb6b921edf7)" d="M 68.460938 345.679484 
L 738.060938 345.679484 
" style="fill:none;stroke:#e5e5e5;stroke-linecap:square;stroke-width:0.8;"/>
     </g>
     <g id="line2d_20">
      <g>
       <use style="stroke:#000000;stroke-width:0.8;" x="68.460938" xlink:href="#mdd918609fc" y="345.679484"/>
      </g>
     </g>
     <g id="text_17">
      <!-- 0.04% -->
      <g transform="translate(31.659375 349.316202)scale(0.1 -0.1)">
       <defs>
        <path d="M 373 955 
L 373 1418 
L 2418 4655 
L 3100 4655 
L 3100 1455 
L 3736 1455 
L 3736 955 
L 3100 955 
L 3100 0 
L 2564 0 
L 2564 955 
L 373 955 
z
M 2564 1455 
L 2564 3936 
L 2527 3936 
L 982 1491 
L 982 1455 
L 2564 1455 
z
" id="Inter-Regular-34" transform="scale(0.015625)"/>
       </defs>
       <use xlink:href="#Inter-Regular-30"/>
       <use x="62.500015" xlink:href="#Inter-Regular-2e"/>
       <use x="90.056839" xlink:href="#Inter-Regular-30"/>
       <use x="152.556854" xlink:href="#Inter-Regular-34"/>
       <use x="216.761414" xlink:href="#Inter-Regular-25"/>
      </g>
     </g>
    </g>
    <g id="ytick_4">
     <g id="line2d_21">
      <path clip-path="url(#pb6b921edf7)" d="M 68.460938 280.146726 
L 738.060938 280.146726 
" style="fill:none;stroke:#e5e5e5;stroke-linecap:square;stroke-width:0.8;"/>
     </g>
     <g id="line2d_22">
      <g>
       <use style="stroke:#000000;stroke-width:0.8;" x="68.460938" xlink:href="#mdd918609fc" y="280.146726"/>
      </g>
     </g>
     <g id="text_18">
      <!-- 0.06% -->
      <g transform="translate(31.84375 283.783444)scale(0.1 -0.1)">
       <defs>
        <path d="M 2027 -64 
Q 1741 -59 1454 45 
Q 1168 150 932 399 
Q 696 648 552 1074 
Q 409 1500 409 2145 
Q 409 3386 861 4056 
Q 1314 4727 2100 4727 
Q 2686 4727 3073 4384 
Q 3461 4041 3546 3491 
L 2991 3491 
Q 2914 3811 2691 4019 
Q 2468 4227 2100 4227 
Q 1559 4227 1249 3755 
Q 939 3284 936 2427 
L 973 2427 
Q 1164 2716 1461 2880 
Q 1759 3045 2118 3045 
Q 2518 3045 2850 2846 
Q 3182 2648 3382 2299 
Q 3582 1950 3582 1500 
Q 3582 1068 3389 710 
Q 3196 352 2847 142 
Q 2498 -68 2027 -64 
z
M 2027 436 
Q 2314 436 2542 579 
Q 2771 723 2903 964 
Q 3036 1205 3036 1500 
Q 3036 1789 2908 2026 
Q 2780 2264 2556 2404 
Q 2332 2545 2046 2545 
Q 1757 2545 1525 2397 
Q 1293 2250 1157 2010 
Q 1021 1770 1018 1491 
Q 1018 1214 1149 973 
Q 1280 732 1508 584 
Q 1736 436 2027 436 
z
" id="Inter-Regular-36" transform="scale(0.015625)"/>
       </defs>
       <use xlink:href="#Inter-Regular-30"/>
       <use x="62.500015" xlink:href="#Inter-Regular-2e"/>
       <use x="90.056839" xlink:href="#Inter-Regular-30"/>
       <use x="152.556854" xlink:href="#Inter-Regular-36"/>
       <use x="214.914825" xlink:href="#Inter-Regular-25"/>
      </g>
     </g>
    </g>
    <g id="ytick_5">
     <g id="line2d_23">
      <path clip-path="url(#pb6b921edf7)" d="M 68.460938 214.613967 
L 738.060938 214.613967 
" style="fill:none;stroke:#e5e5e5;stroke-linecap:square;stroke-width:0.8;"/>
     </g>
     <g id="line2d_24">
      <g>
       <use style="stroke:#000000;stroke-width:0.8;" x="68.460938" xlink:href="#mdd918609fc" y="214.613967"/>
      </g>
     </g>
     <g id="text_19">
      <!-- 0.08% -->
      <g transform="translate(31.914063 218.250686)scale(0.1 -0.1)">
       <defs>
        <path d="M 1973 -64 
Q 1505 -64 1147 103 
Q 789 270 589 564 
Q 389 859 391 1236 
Q 389 1532 507 1783 
Q 625 2034 830 2203 
Q 1036 2373 1291 2418 
L 1291 2445 
Q 957 2532 759 2821 
Q 561 3111 564 3482 
Q 561 3836 743 4115 
Q 925 4395 1244 4556 
Q 1564 4718 1973 4718 
Q 2377 4718 2695 4556 
Q 3014 4395 3197 4115 
Q 3380 3836 3382 3482 
Q 3380 3111 3181 2821 
Q 2982 2532 2655 2445 
L 2655 2418 
Q 2907 2373 3109 2203 
Q 3311 2034 3431 1783 
Q 3552 1532 3555 1236 
Q 3552 859 3351 564 
Q 3150 270 2794 103 
Q 2439 -64 1973 -64 
z
M 1973 436 
Q 2446 436 2722 662 
Q 2998 889 3000 1264 
Q 2998 1527 2864 1729 
Q 2730 1932 2499 2048 
Q 2268 2164 1973 2164 
Q 1675 2164 1442 2048 
Q 1209 1932 1076 1729 
Q 943 1527 946 1264 
Q 943 889 1218 662 
Q 1493 436 1973 436 
z
M 1973 2645 
Q 2348 2645 2591 2864 
Q 2834 3084 2836 3445 
Q 2834 3800 2596 4013 
Q 2359 4227 1973 4227 
Q 1582 4227 1344 4013 
Q 1107 3800 1109 3445 
Q 1107 3084 1349 2864 
Q 1591 2645 1973 2645 
z
" id="Inter-Regular-38" transform="scale(0.015625)"/>
       </defs>
       <use xlink:href="#Inter-Regular-30"/>
       <use x="62.500015" xlink:href="#Inter-Regular-2e"/>
       <use x="90.056839" xlink:href="#Inter-Regular-30"/>
       <use x="152.556854" xlink:href="#Inter-Regular-38"/>
       <use x="214.20459" xlink:href="#Inter-Regular-25"/>
      </g>
     </g>
    </g>
    <g id="ytick_6">
     <g id="line2d_25">
      <path clip-path="url(#pb6b921edf7)" d="M 68.460938 149.081209 
L 738.060938 149.081209 
" style="fill:none;stroke:#e5e5e5;stroke-linecap:square;stroke-width:0.8;"/>
     </g>
     <g id="line2d_26">
      <g>
       <use style="stroke:#000000;stroke-width:0.8;" x="68.460938" xlink:href="#mdd918609fc" y="149.081209"/>
      </g>
     </g>
     <g id="text_20">
      <!-- 0.10% -->
      <g transform="translate(33.6625 152.717928)scale(0.1 -0.1)">
       <use xlink:href="#Inter-Regular-30"/>
       <use x="62.500015" xlink:href="#Inter-Regular-2e"/>
       <use x="90.056839" xlink:href="#Inter-Regular-31"/>
       <use x="134.232986" xlink:href="#Inter-Regular-30"/>
       <use x="196.733002" xlink:href="#Inter-Regular-25"/>
      </g>
     </g>
    </g>
    <g id="ytick_7">
     <g id="line2d_27">
      <path clip-path="url(#pb6b921edf7)" d="M 68.460938 83.548451 
L 738.060938 83.548451 
" style="fill:none;stroke:#e5e5e5;stroke-linecap:square;stroke-width:0.8;"/>
     </g>
     <g id="line2d_28">
      <g>
       <use style="stroke:#000000;stroke-width:0.8;" x="68.460938" xlink:href="#mdd918609fc" y="83.548451"/>
      </g>
     </g>
     <g id="text_21">
      <!-- 0.12% -->
      <g transform="translate(33.860938 87.18517)scale(0.1 -0.1)">
       <use xlink:href="#Inter-Regular-30"/>
       <use x="62.500015" xlink:href="#Inter-Regular-2e"/>
       <use x="90.056839" xlink:href="#Inter-Regular-31"/>
       <use x="134.232986" xlink:href="#Inter-Regular-32"/>
       <use x="194.74437" xlink:href="#Inter-Regular-25"/>
      </g>
     </g>
    </g>
    <g id="text_22">
     <!-- Percent of nation tested positive -->
     <g transform="translate(25.614063 332.215469)rotate(-90)scale(0.1 -0.1)">
      <defs>
       <path d="M 564 0 
L 564 4655 
L 2136 4655 
Q 2684 4655 3033 4458 
Q 3382 4261 3550 3927 
Q 3718 3593 3718 3182 
Q 3718 2770 3551 2434 
Q 3384 2098 3036 1899 
Q 2689 1700 2146 1700 
L 1127 1700 
L 1127 0 
L 564 0 
z
M 1127 2200 
L 2127 2200 
Q 2689 2200 2926 2482 
Q 3164 2764 3164 3182 
Q 3164 3602 2925 3878 
Q 2686 4155 2118 4155 
L 1127 4155 
L 1127 2200 
z
" id="Inter-Regular-50" transform="scale(0.015625)"/>
       <path d="M 2046 3491 
L 2046 3036 
L 1264 3036 
L 1264 0 
L 727 0 
L 727 3036 
L 164 3036 
L 164 3491 
L 727 3491 
L 727 3973 
Q 727 4273 868 4473 
Q 1009 4673 1234 4773 
Q 1459 4873 1709 4873 
Q 1907 4873 2032 4841 
Q 2157 4809 2218 4782 
L 2064 4318 
Q 2023 4332 1951 4352 
Q 1880 4373 1764 4373 
Q 1498 4373 1381 4239 
Q 1264 4105 1264 3845 
L 1264 3491 
L 2046 3491 
z
" id="Inter-Regular-66" transform="scale(0.015625)"/>
       <path d="M 491 0 
L 491 3491 
L 1027 3491 
L 1027 0 
L 491 0 
z
M 764 4073 
Q 607 4073 494 4179 
Q 382 4286 382 4436 
Q 382 4586 494 4693 
Q 607 4800 764 4800 
Q 921 4800 1033 4693 
Q 1146 4586 1146 4436 
Q 1146 4286 1033 4179 
Q 921 4073 764 4073 
z
" id="Inter-Regular-69" transform="scale(0.015625)"/>
       <path d="M 2964 2709 
L 2482 2573 
Q 2411 2755 2245 2914 
Q 2080 3073 1727 3073 
Q 1407 3073 1194 2926 
Q 982 2780 982 2555 
Q 982 2355 1127 2239 
Q 1273 2123 1582 2045 
L 2100 1918 
Q 3027 1691 3027 973 
Q 3027 673 2855 436 
Q 2684 200 2377 63 
Q 2071 -73 1664 -73 
Q 1130 -73 780 159 
Q 430 391 336 836 
L 846 964 
Q 989 400 1655 400 
Q 2030 400 2251 560 
Q 2473 720 2473 945 
Q 2473 1316 1955 1436 
L 1373 1573 
Q 893 1686 669 1926 
Q 446 2166 446 2527 
Q 446 2823 613 3050 
Q 780 3277 1069 3406 
Q 1359 3536 1727 3536 
Q 2246 3536 2542 3309 
Q 2839 3082 2964 2709 
z
" id="Inter-Regular-73" transform="scale(0.015625)"/>
       <path d="M 1809 -73 
Q 1373 -73 1039 148 
Q 705 370 516 776 
Q 327 1182 327 1736 
Q 327 2286 516 2690 
Q 705 3095 1041 3315 
Q 1377 3536 1818 3536 
Q 2159 3536 2358 3423 
Q 2557 3311 2662 3169 
Q 2768 3027 2827 2936 
L 2873 2936 
L 2873 4655 
L 3409 4655 
L 3409 0 
L 2891 0 
L 2891 536 
L 2827 536 
Q 2768 441 2659 296 
Q 2550 152 2348 39 
Q 2146 -73 1809 -73 
z
M 1882 409 
Q 2366 409 2624 780 
Q 2882 1152 2882 1745 
Q 2882 2332 2627 2693 
Q 2373 3055 1882 3055 
Q 1541 3055 1315 2881 
Q 1089 2707 976 2410 
Q 864 2114 864 1745 
Q 864 1373 978 1069 
Q 1093 766 1319 587 
Q 1546 409 1882 409 
z
" id="Inter-Regular-64" transform="scale(0.015625)"/>
      </defs>
      <use xlink:href="#Inter-Regular-50"/>
      <use x="63.494324" xlink:href="#Inter-Regular-65"/>
      <use x="121.732971" xlink:href="#Inter-Regular-72"/>
      <use x="160.085251" xlink:href="#Inter-Regular-63"/>
      <use x="215.909119" xlink:href="#Inter-Regular-65"/>
      <use x="274.147766" xlink:href="#Inter-Regular-6e"/>
      <use x="332.670502" xlink:href="#Inter-Regular-74"/>
      <use x="369.034149" xlink:href="#Inter-Regular-20"/>
      <use x="397.159149" xlink:href="#Inter-Regular-6f"/>
      <use x="456.818253" xlink:href="#Inter-Regular-66"/>
      <use x="492.897797" xlink:href="#Inter-Regular-20"/>
      <use x="521.022797" xlink:href="#Inter-Regular-6e"/>
      <use x="579.545532" xlink:href="#Inter-Regular-61"/>
      <use x="635.937592" xlink:href="#Inter-Regular-74"/>
      <use x="672.301239" xlink:href="#Inter-Regular-69"/>
      <use x="696.022827" xlink:href="#Inter-Regular-6f"/>
      <use x="755.681931" xlink:href="#Inter-Regular-6e"/>
      <use x="814.204666" xlink:href="#Inter-Regular-20"/>
      <use x="842.329666" xlink:href="#Inter-Regular-74"/>
      <use x="878.693314" xlink:href="#Inter-Regular-65"/>
      <use x="936.931961" xlink:href="#Inter-Regular-73"/>
      <use x="989.204697" xlink:href="#Inter-Regular-74"/>
      <use x="1025.568344" xlink:href="#Inter-Regular-65"/>
      <use x="1083.806992" xlink:href="#Inter-Regular-64"/>
      <use x="1145.880875" xlink:href="#Inter-Regular-20"/>
      <use x="1174.005875" xlink:href="#Inter-Regular-70"/>
      <use x="1234.94339" xlink:href="#Inter-Regular-6f"/>
      <use x="1294.602493" xlink:href="#Inter-Regular-73"/>
      <use x="1346.875229" xlink:href="#Inter-Regular-69"/>
      <use x="1370.596817" xlink:href="#Inter-Regular-74"/>
      <use x="1406.960464" xlink:href="#Inter-Regular-69"/>
      <use x="1430.682053" xlink:href="#Inter-Regular-76"/>
      <use x="1486.363876" xlink:href="#Inter-Regular-65"/>
     </g>
    </g>
   </g>
   <g id="line2d_29">
    <path clip-path="url(#pb6b921edf7)" d="M 16.911098 476.733357 
L 30.214282 476.745 
L 36.865875 476.739179 
L 61.809345 476.721715 
L 70.123836 476.52379 
L 71.786734 476.430649 
L 75.11253 476.47722 
L 76.775428 476.320044 
L 80.101224 476.453935 
L 81.764122 476.017336 
L 83.42702 475.423563 
L 85.089918 474.690078 
L 86.752816 474.334978 
L 88.415714 474.457226 
L 90.078612 474.911288 
L 91.74151 474.439762 
L 95.067306 472.78651 
L 96.730204 471.465073 
L 98.393102 471.337004 
L 100.056 470.42888 
L 101.718898 470.725767 
L 103.381796 469.724501 
L 105.044694 465.00342 
L 106.707593 464.927743 
L 108.370491 463.58302 
L 110.033389 461.539741 
L 111.696287 461.324353 
L 113.359185 462.954319 
L 115.022083 462.546827 
L 116.684981 456.271456 
L 118.347879 454.740452 
L 120.010777 452.726279 
L 121.673675 453.058094 
L 123.336573 453.017345 
L 124.999471 457.074797 
L 126.662369 458.797904 
L 128.325267 451.253488 
L 129.988165 450.159082 
L 131.651063 451.759942 
L 133.313961 453.116307 
L 136.639757 458.896867 
L 138.302655 459.607066 
L 139.965553 456.748804 
L 141.628451 456.125924 
L 143.29135 452.167434 
L 144.954248 451.451413 
L 146.617146 453.052273 
L 148.280044 452.842705 
L 149.942942 456.521773 
L 151.60584 455.31094 
L 153.268738 453.599476 
L 154.931636 448.761968 
L 156.594534 450.211474 
L 158.257432 451.393199 
L 159.92033 457.127189 
L 161.583228 458.489375 
L 163.246126 453.296767 
L 164.909024 452.807778 
L 166.571922 449.227673 
L 168.23482 451.672622 
L 169.897718 452.941668 
L 171.560616 460.759686 
L 173.223514 461.429136 
L 174.886412 460.224125 
L 176.54931 458.495196 
L 178.212208 457.738426 
L 179.875106 458.11099 
L 181.538005 461.504813 
L 183.200903 466.29575 
L 184.863801 465.084918 
L 186.526699 458.925973 
L 188.189597 459.752599 
L 189.852495 459.973809 
L 191.515393 463.874086 
L 193.178291 464.322327 
L 194.841189 466.435462 
L 196.504087 467.49494 
L 198.166985 463.868265 
L 199.829883 461.702738 
L 201.492781 463.09403 
L 203.155679 463.507343 
L 206.481475 469.165656 
L 208.144373 469.776893 
L 209.807271 468.723236 
L 211.470169 468.269174 
L 213.133067 467.36105 
L 214.795965 467.58226 
L 216.458863 468.763985 
L 218.121762 470.929512 
L 219.78466 470.999368 
L 221.447558 469.0958 
L 223.110456 468.886233 
L 228.09915 470.813086 
L 229.762048 472.542015 
L 231.424946 472.885472 
L 233.087844 470.999368 
L 234.750742 470.580234 
L 236.41364 470.469629 
L 238.076538 471.418502 
L 239.739436 471.278791 
L 241.402334 472.181094 
L 243.065232 472.419767 
L 244.72813 471.261327 
L 246.391028 470.96444 
L 248.053926 471.447609 
L 249.716824 471.238042 
L 251.379722 472.02974 
L 253.04262 473.095039 
L 254.705519 473.54328 
L 256.368417 472.018097 
L 258.031315 472.507087 
L 259.694213 472.501266 
L 261.357111 473.031005 
L 263.020009 473.001898 
L 264.682907 473.816882 
L 266.345805 474.346621 
L 268.008703 472.868008 
L 269.671601 473.415211 
L 271.334499 473.223108 
L 272.997397 473.490888 
L 274.660295 473.6306 
L 276.323193 474.515439 
L 277.986091 473.595672 
L 279.648989 472.932043 
L 281.311887 473.49671 
L 282.974785 472.821438 
L 284.637683 472.780689 
L 286.300581 473.717919 
L 287.963479 474.305872 
L 289.626377 474.695899 
L 291.289275 472.728297 
L 292.952174 472.955328 
L 294.615072 472.51873 
L 299.603766 474.026449 
L 301.266664 474.340799 
L 302.929562 472.355733 
L 304.59246 472.728297 
L 306.255358 472.379018 
L 309.581154 472.600228 
L 311.244052 473.880916 
L 312.90695 473.741205 
L 314.569848 472.035561 
L 316.232746 472.204379 
L 317.895644 471.086688 
L 319.558542 471.767781 
L 321.22144 473.106682 
L 322.884338 473.875095 
L 324.547236 473.76449 
L 326.210134 471.296255 
L 327.873032 471.401038 
L 331.198829 471.045939 
L 332.861727 471.715389 
L 334.524625 473.042647 
L 336.187523 473.502531 
L 337.850421 468.880412 
L 339.513319 469.695395 
L 341.176217 470.370667 
L 342.839115 470.813086 
L 344.502013 470.714124 
L 346.164911 473.00772 
L 347.827809 473.671349 
L 349.490707 470.131993 
L 351.153605 471.360289 
L 354.479401 469.648824 
L 356.142299 470.888763 
L 357.805197 472.588585 
L 359.468095 472.693369 
L 361.130993 470.1611 
L 362.793891 470.580234 
L 364.456789 470.126172 
L 366.119687 469.025944 
L 367.782586 468.699951 
L 369.445484 470.690839 
L 371.108382 471.057581 
L 372.77128 469.415972 
L 376.097076 461.504813 
L 377.759974 461.219569 
L 379.422872 461.661988 
L 381.08577 463.996333 
L 382.748668 464.747282 
L 384.411566 456.585807 
L 386.074464 459.263609 
L 387.737362 460.142627 
L 389.40026 458.704764 
L 391.063158 460.101878 
L 392.726056 463.868265 
L 394.388954 466.78474 
L 396.051852 459.857383 
L 397.71475 459.036578 
L 399.377648 454.920913 
L 401.040546 453.814864 
L 402.703444 451.864725 
L 404.366343 452.41775 
L 406.029241 449.803982 
L 407.692139 449.367384 
L 409.355037 445.507856 
L 411.017935 442.45749 
L 412.680833 440.134788 
L 414.343731 441.555187 
L 416.006629 443.808034 
L 417.669527 441.671613 
L 419.332425 426.774884 
L 420.995323 425.971543 
L 422.658221 415.499008 
L 424.321119 410.917638 
L 425.984017 409.340063 
L 427.646915 420.243375 
L 429.309813 419.515712 
L 430.972711 395.008001 
L 432.635609 393.529388 
L 434.298507 388.237818 
L 435.961405 387.865255 
L 437.624303 401.003949 
L 439.287201 417.623786 
L 440.9501 420.505334 
L 442.612998 382.439795 
L 444.275896 386.82324 
L 445.938794 380.972825 
L 447.601692 387.964217 
L 449.26459 392.015848 
L 450.927488 404.811085 
L 452.590386 407.686812 
L 454.253284 348.006752 
L 455.916182 352.512445 
L 457.57908 351.586857 
L 459.241978 362.519275 
L 460.904876 371.280345 
L 462.567774 398.023439 
L 464.230672 400.090004 
L 465.89357 344.228723 
L 467.556468 357.437273 
L 470.882264 360.382855 
L 472.545162 362.3621 
L 474.20806 393.162646 
L 475.870958 398.896635 
L 477.533856 314.144198 
L 479.196755 346.859954 
L 480.859653 356.255547 
L 482.522551 355.236818 
L 484.185449 355.510419 
L 485.848347 379.959917 
L 487.511245 372.141899 
L 489.174143 313.177861 
L 490.837041 334.221893 
L 492.499939 333.249734 
L 494.162837 348.903234 
L 495.825735 350.672912 
L 497.488633 383.400311 
L 499.151531 393.913595 
L 500.814429 338.622802 
L 502.477327 358.31629 
L 504.140225 370.657465 
L 505.803123 386.439034 
L 507.466021 391.259078 
L 509.128919 414.922699 
L 510.791817 418.304879 
L 512.454715 382.410688 
L 514.117613 395.089499 
L 515.780512 395.659987 
L 517.44341 405.32336 
L 519.106308 405.27679 
L 520.769206 423.177315 
L 522.432104 424.882958 
L 524.095002 389.140121 
L 525.7579 397.988511 
L 527.420798 398.390181 
L 529.083696 403.728322 
L 530.746594 401.492939 
L 532.409492 417.344363 
L 534.07239 413.28109 
L 535.735288 375.331976 
L 537.398186 379.622281 
L 539.061084 374.842987 
L 540.723982 368.660756 
L 542.38688 360.959165 
L 544.049778 383.411953 
L 545.712676 371.204668 
L 547.375574 304.853389 
L 549.038472 307.21684 
L 550.70137 301.348961 
L 552.364268 304.416791 
L 554.027167 291.371237 
L 555.690065 350.084959 
L 557.352963 308.113322 
L 559.015861 228.518564 
L 560.678759 238.350755 
L 562.341657 257.18269 
L 564.004555 309.481329 
L 565.667453 402.948266 
L 567.330351 263.09714 
L 568.993249 229.502366 
L 570.656147 243.589933 
L 572.319045 54.345 
L 573.981943 110.38092 
L 575.644841 204.755981 
L 577.307739 312.397805 
L 578.970637 161.119449 
L 580.633535 188.351532 
L 582.296433 74.073416 
L 583.959331 138.492021 
L 585.622229 177.628681 
L 588.948025 229.892393 
L 590.610924 270.274814 
L 592.273822 285.375289 
L 593.93672 173.448981 
L 595.599618 216.253066 
L 597.262516 236.825572 
L 598.925414 252.129793 
L 600.588312 262.287978 
L 602.25121 315.599525 
L 603.914108 323.98221 
L 605.577006 239.17156 
L 607.239904 266.927561 
L 608.902802 291.493485 
L 610.5657 309.027267 
L 612.228598 319.662799 
L 613.891496 360.749598 
L 615.554394 386.462319 
L 617.217292 318.440324 
L 618.88019 334.07636 
L 620.543088 340.986254 
L 622.205986 349.200121 
L 623.868884 361.82654 
L 625.531782 389.303118 
L 627.194681 396.539005 
L 628.857579 359.212772 
L 630.520477 373.527371 
L 632.183375 374.988519 
L 633.846273 382.247692 
L 635.509171 395.04875 
L 637.172069 414.986733 
L 638.834967 417.385112 
L 640.497865 395.62506 
L 642.160763 405.137078 
L 643.823661 407.50053 
L 647.149457 415.039125 
L 648.812355 431.56 
L 650.475253 432.712619 
L 652.138151 403.885497 
L 653.801049 413.607083 
L 655.463947 418.182632 
L 657.126845 418.921938 
L 658.789743 424.737426 
L 660.452641 436.467363 
L 662.115539 436.938889 
L 663.778437 418.863725 
L 665.441336 429.02773 
L 667.104234 434.086448 
L 668.767132 438.004189 
L 670.43003 443.551896 
L 672.092928 452.732101 
L 673.755826 453.547084 
L 675.418724 442.10239 
L 677.081622 443.493683 
L 678.74452 446.759438 
L 680.407418 448.424332 
L 682.070316 449.611879 
L 683.733214 455.014054 
L 685.396112 455.829037 
L 687.05901 443.179332 
L 688.721908 445.560248 
L 690.384806 446.823472 
L 692.047704 448.63972 
L 693.710602 449.21603 
L 695.3735 456.486845 
L 697.036398 455.450652 
L 698.699296 444.05835 
L 700.362194 448.360297 
L 702.025093 447.708311 
L 703.687991 449.611879 
L 705.350889 452.074293 
L 707.013787 456.900158 
L 708.676685 449.035569 
L 710.339583 445.502035 
L 712.002481 451.329165 
L 713.665379 447.178572 
L 715.328277 450.811069 
L 718.654073 459.554675 
L 720.316971 451.067206 
L 721.979869 457.901423 
L 723.642767 459.554675 
L 725.305665 458.122633 
L 726.968563 459.752599 
L 726.968563 459.752599 
" style="fill:none;stroke:#5694ca;stroke-linecap:square;stroke-width:2;"/>
   </g>
   <g id="line2d_30">
    <path clip-path="url(#pb6b921edf7)" d="M 23.56269 476.745 
L 73.449632 476.745 
L 75.11253 476.398937 
L 76.775428 476.398937 
L 78.438326 475.879843 
L 80.101224 476.225906 
L 81.764122 476.225906 
L 83.42702 475.879843 
L 85.089918 474.841655 
L 86.752816 476.052875 
L 88.415714 474.841655 
L 90.078612 475.014686 
L 91.74151 476.398937 
L 93.404408 475.360749 
L 95.067306 475.360749 
L 96.730204 474.495592 
L 98.393102 474.322561 
L 101.718898 473.284373 
L 103.381796 473.630435 
L 105.044694 469.650714 
L 106.707593 469.650714 
L 108.370491 467.055243 
L 110.033389 463.594616 
L 111.696287 465.151898 
L 113.359185 463.594616 
L 115.022083 466.017055 
L 116.684981 462.210365 
L 118.347879 457.538518 
L 120.010777 459.095801 
L 121.673675 458.576706 
L 123.336573 459.095801 
L 124.999471 461.864302 
L 126.662369 466.363118 
L 128.325267 458.576706 
L 129.988165 454.423954 
L 131.651063 459.095801 
L 133.313961 459.614895 
L 134.976859 460.480051 
L 136.639757 465.151898 
L 138.302655 464.11371 
L 139.965553 458.403675 
L 141.628451 460.30702 
L 143.29135 453.731828 
L 144.954248 452.866671 
L 146.617146 450.098169 
L 148.280044 462.037334 
L 149.942942 469.650714 
L 151.60584 457.365487 
L 153.268738 454.077891 
L 154.931636 460.133989 
L 156.594534 464.286742 
L 158.257432 462.556428 
L 159.92033 467.747369 
L 161.583228 469.13162 
L 163.246126 464.459773 
L 164.909024 463.940679 
L 166.571922 460.999146 
L 168.23482 456.846393 
L 169.897718 459.960957 
L 171.560616 461.345208 
L 173.223514 467.574338 
L 174.886412 463.940679 
L 176.54931 464.11371 
L 178.212208 462.902491 
L 179.875106 459.960957 
L 181.538005 464.286742 
L 183.200903 467.401306 
L 184.863801 466.190087 
L 186.526699 463.767647 
L 188.189597 460.999146 
L 189.852495 463.767647 
L 191.515393 464.11371 
L 193.178291 465.32493 
L 194.841189 469.823745 
L 196.504087 470.515871 
L 198.166985 466.017055 
L 199.829883 464.286742 
L 201.492781 463.940679 
L 203.155679 467.055243 
L 204.818577 471.034965 
L 206.481475 467.401306 
L 208.144373 471.554059 
L 209.807271 469.996777 
L 211.470169 472.073153 
L 213.133067 471.034965 
L 214.795965 471.900122 
L 216.458863 473.284373 
L 218.121762 474.495592 
L 219.78466 472.246184 
L 221.447558 472.592247 
L 223.110456 473.284373 
L 224.773354 474.841655 
L 226.436252 474.841655 
L 228.09915 472.765279 
L 229.762048 475.360749 
L 231.424946 475.879843 
L 233.087844 474.322561 
L 234.750742 474.841655 
L 236.41364 473.976498 
L 238.076538 475.014686 
L 241.402334 475.014686 
L 243.065232 475.360749 
L 244.72813 473.457404 
L 246.391028 474.841655 
L 248.053926 475.879843 
L 249.716824 475.53378 
L 251.379722 474.668624 
L 253.04262 475.879843 
L 254.705519 476.225906 
L 256.368417 476.052875 
L 258.031315 475.360749 
L 259.694213 476.052875 
L 261.357111 475.879843 
L 263.020009 476.225906 
L 266.345805 475.879843 
L 268.008703 476.052875 
L 269.671601 476.398937 
L 271.334499 476.052875 
L 272.997397 476.225906 
L 274.660295 475.360749 
L 276.323193 476.571969 
L 277.986091 476.398937 
L 279.648989 475.360749 
L 281.311887 475.879843 
L 282.974785 475.706812 
L 286.300581 476.052875 
L 287.963479 475.706812 
L 289.626377 476.052875 
L 291.289275 476.225906 
L 292.952174 475.53378 
L 294.615072 474.149529 
L 296.27797 473.457404 
L 297.940868 475.360749 
L 299.603766 475.53378 
L 301.266664 476.225906 
L 302.929562 476.225906 
L 304.59246 474.668624 
L 306.255358 475.360749 
L 307.918256 474.668624 
L 309.581154 474.322561 
L 311.244052 476.052875 
L 312.90695 476.571969 
L 314.569848 474.668624 
L 316.232746 474.495592 
L 317.895644 474.841655 
L 319.558542 475.014686 
L 321.22144 474.495592 
L 322.884338 475.014686 
L 324.547236 475.187718 
L 326.210134 473.630435 
L 327.873032 473.803467 
L 329.535931 471.72709 
L 331.198829 473.803467 
L 332.861727 473.976498 
L 334.524625 472.073153 
L 336.187523 472.419216 
L 337.850421 469.13162 
L 339.513319 470.169808 
L 341.176217 469.996777 
L 342.839115 467.9204 
L 344.502013 466.882212 
L 346.164911 472.93831 
L 347.827809 473.284373 
L 349.490707 467.574338 
L 351.153605 469.304651 
L 352.816503 469.650714 
L 354.479401 464.459773 
L 356.142299 462.902491 
L 357.805197 469.477683 
L 359.468095 467.747369 
L 361.130993 468.958588 
L 362.793891 465.497961 
L 364.456789 464.459773 
L 367.782586 462.037334 
L 369.445484 469.304651 
L 371.108382 470.688902 
L 372.77128 467.401306 
L 374.434178 465.497961 
L 376.097076 461.172177 
L 377.759974 458.403675 
L 379.422872 454.250922 
L 381.08577 461.172177 
L 382.748668 458.749738 
L 384.411566 464.286742 
L 386.074464 467.055243 
L 387.737362 459.787926 
L 389.40026 463.075522 
L 391.063158 464.11371 
L 392.726056 458.403675 
L 394.388954 460.999146 
L 396.051852 456.154267 
L 397.71475 458.230644 
L 399.377648 453.904859 
L 401.040546 447.67573 
L 402.703444 447.67573 
L 404.366343 448.88695 
L 406.029241 455.28911 
L 407.692139 453.385765 
L 409.355037 447.329668 
L 411.017935 438.85113 
L 412.680833 427.950154 
L 414.343731 434.525346 
L 416.006629 430.372593 
L 417.669527 429.853499 
L 419.332425 425.527715 
L 420.995323 409.435798 
L 422.658221 365.485831 
L 424.321119 393.516912 
L 425.984017 355.969105 
L 427.646915 369.119489 
L 429.309813 370.50374 
L 432.635609 337.800812 
L 434.298507 298.003597 
L 435.961405 306.828197 
L 437.624303 331.22562 
L 439.287201 338.319906 
L 440.9501 332.782902 
L 442.612998 285.199276 
L 445.938794 292.639625 
L 447.601692 284.853213 
L 450.927488 331.052588 
L 452.590386 339.704157 
L 454.253284 296.792378 
L 455.916182 292.639625 
L 457.57908 283.815025 
L 459.241978 290.217186 
L 460.904876 323.958302 
L 462.567774 348.701788 
L 464.230672 358.910639 
L 465.89357 322.574051 
L 469.219366 346.106317 
L 470.882264 356.834262 
L 472.545162 357.180325 
L 474.20806 387.806877 
L 475.870958 396.458445 
L 477.533856 356.315168 
L 479.196755 363.582486 
L 480.859653 374.137399 
L 482.522551 379.501371 
L 484.185449 392.478724 
L 485.848347 397.669665 
L 487.511245 403.725763 
L 489.174143 364.793705 
L 490.837041 355.969105 
L 492.499939 371.541928 
L 494.162837 381.404716 
L 495.825735 394.728132 
L 497.488633 404.071826 
L 499.151531 412.2043 
L 500.814429 376.386807 
L 502.477327 377.771058 
L 504.140225 400.78423 
L 505.803123 416.357053 
L 507.466021 412.377331 
L 509.128919 426.046809 
L 510.791817 429.334405 
L 512.454715 411.685206 
L 514.117613 417.914335 
L 515.780512 404.417888 
L 517.44341 418.433429 
L 519.106308 419.298586 
L 520.769206 417.395241 
L 522.432104 432.44897 
L 524.095002 389.364159 
L 525.7579 407.705484 
L 527.420798 405.629108 
L 529.083696 390.921442 
L 530.746594 401.822418 
L 532.409492 408.051547 
L 534.07239 413.069457 
L 535.735288 395.593289 
L 537.398186 395.420257 
L 539.061084 398.188759 
L 540.723982 390.056285 
L 542.38688 386.768689 
L 544.049778 414.280676 
L 545.712676 407.705484 
L 547.375574 378.636215 
L 549.038472 384.173218 
L 550.70137 370.157678 
L 552.364268 372.407085 
L 554.027167 383.827156 
L 555.690065 392.997818 
L 557.352963 392.132661 
L 559.015861 351.989384 
L 560.678759 351.47029 
L 562.341657 337.281718 
L 564.004555 368.600395 
L 565.667453 417.741304 
L 568.993249 288.313841 
L 570.656147 236.40443 
L 572.319045 77.561635 
L 573.981943 91.231113 
L 577.307739 260.801853 
L 578.970637 143.313555 
L 580.633535 194.530839 
L 582.296433 129.990139 
L 583.959331 196.607216 
L 585.622229 212.699133 
L 587.285127 262.532167 
L 588.948025 262.705198 
L 590.610924 303.886664 
L 592.273822 324.131334 
L 593.93672 258.033351 
L 595.599618 283.468962 
L 597.262516 293.677813 
L 598.925414 318.59433 
L 600.588312 330.187432 
L 602.25121 357.353356 
L 603.914108 371.022834 
L 605.577006 319.459487 
L 607.239904 327.764992 
L 608.902802 342.299627 
L 610.5657 346.45238 
L 613.891496 395.593289 
L 615.554394 399.399979 
L 617.217292 368.427364 
L 618.88019 368.081301 
L 620.543088 370.50374 
L 622.205986 387.460814 
L 623.868884 385.903532 
L 625.531782 407.878516 
L 627.194681 409.089735 
L 628.857579 386.94172 
L 630.520477 399.57301 
L 632.183375 394.901163 
L 633.846273 408.051547 
L 635.509171 402.341512 
L 637.172069 422.932245 
L 638.834967 427.950154 
L 640.497865 412.550363 
L 642.160763 419.644649 
L 643.823661 416.703115 
L 645.486559 426.046809 
L 647.149457 428.296217 
L 648.812355 443.349946 
L 650.475253 433.660189 
L 652.138151 411.339143 
L 653.801049 422.586182 
L 655.463947 418.260398 
L 657.126845 428.64228 
L 658.789743 425.181652 
L 660.452641 436.082629 
L 662.115539 444.215103 
L 663.778437 431.583813 
L 665.441336 432.44897 
L 667.104234 428.123186 
L 668.767132 433.660189 
L 670.43003 445.426322 
L 672.092928 449.233013 
L 673.755826 454.943048 
L 675.418724 443.003883 
L 677.081622 439.716287 
L 678.74452 447.848762 
L 680.407418 446.983605 
L 682.070316 450.617263 
L 683.733214 451.309389 
L 685.396112 448.540887 
L 687.05901 437.120817 
L 688.721908 443.522977 
L 690.384806 441.965695 
L 692.047704 443.522977 
L 693.710602 445.253291 
L 695.3735 452.69364 
L 697.036398 457.019424 
L 698.699296 445.599354 
L 700.362194 446.118448 
L 702.025093 452.001514 
L 703.687991 445.599354 
L 705.350889 453.212734 
L 707.013787 455.462142 
L 708.676685 456.50033 
L 710.339583 446.118448 
L 712.002481 450.790295 
L 713.665379 447.329668 
L 715.328277 445.253291 
L 716.991175 452.001514 
L 718.654073 455.635173 
L 720.316971 460.133989 
L 721.979869 452.174546 
L 723.642767 456.673361 
L 725.305665 454.770016 
L 726.968563 459.095801 
L 726.968563 459.095801 
" style="fill:none;stroke:#ffdd00;stroke-linecap:square;stroke-width:2;"/>
   </g>
   <g id="line2d_31">
    <path clip-path="url(#pb6b921edf7)" d="M 65.135141 476.685025 
L 66.798039 476.745 
L 68.460938 476.625049 
L 70.123836 476.685025 
L 73.449632 476.385147 
L 75.11253 476.625049 
L 76.775428 476.385147 
L 78.438326 476.385147 
L 80.101224 476.565074 
L 81.764122 475.785393 
L 85.089918 475.185639 
L 88.415714 473.866179 
L 90.078612 475.605467 
L 91.74151 476.025295 
L 93.404408 475.485516 
L 95.067306 474.166056 
L 96.730204 474.286007 
L 98.393102 473.806204 
L 100.056 471.767039 
L 101.718898 472.786621 
L 103.381796 472.246842 
L 105.044694 468.46839 
L 106.707593 466.669127 
L 108.370491 465.469618 
L 110.033389 463.370478 
L 111.696287 460.311731 
L 113.359185 464.450036 
L 115.022083 464.929839 
L 116.684981 457.552861 
L 118.347879 456.353352 
L 120.010777 453.474531 
L 121.673675 455.693623 
L 123.336573 454.01431 
L 124.999471 461.211362 
L 126.662369 463.250527 
L 128.325267 452.514924 
L 129.988165 455.693623 
L 131.651063 456.173426 
L 133.313961 458.512468 
L 134.976859 457.013082 
L 136.639757 465.649545 
L 138.302655 463.550404 
L 139.965553 455.213819 
L 143.29135 456.893131 
L 144.954248 451.13549 
L 146.617146 453.114679 
L 148.280044 460.911485 
L 149.942942 467.208906 
L 151.60584 430.204063 
L 153.268738 452.814802 
L 154.931636 456.353352 
L 156.594534 457.912714 
L 158.257432 458.452493 
L 159.92033 465.70952 
L 161.583228 466.429225 
L 163.246126 450.955563 
L 164.909024 453.954335 
L 166.571922 450.955563 
L 168.23482 456.653229 
L 169.897718 454.67404 
L 171.560616 463.730331 
L 173.223514 465.409643 
L 174.886412 456.953107 
L 176.54931 459.412099 
L 178.212208 458.392517 
L 179.875106 459.352124 
L 181.538005 461.51124 
L 183.200903 466.129348 
L 184.863801 467.748685 
L 186.526699 461.031436 
L 189.852495 464.869864 
L 191.515393 464.030208 
L 193.178291 467.628734 
L 194.841189 470.56753 
L 196.504087 471.22726 
L 198.166985 468.348439 
L 199.829883 465.829471 
L 201.492781 469.487972 
L 203.155679 470.087727 
L 204.818577 471.22726 
L 206.481475 473.746228 
L 208.144373 473.506327 
L 209.807271 470.927383 
L 211.470169 472.126892 
L 214.795965 473.446351 
L 216.458863 475.005712 
L 218.121762 474.345983 
L 219.78466 475.365565 
L 221.447558 474.465933 
L 223.110456 474.046105 
L 224.773354 474.64586 
L 226.436252 474.64586 
L 228.09915 475.30559 
L 229.762048 475.42554 
L 231.424946 475.725418 
L 233.087844 475.665442 
L 234.750742 475.125663 
L 236.41364 475.005712 
L 238.076538 475.485516 
L 239.739436 474.945737 
L 241.402334 475.365565 
L 243.065232 475.965319 
L 244.72813 475.485516 
L 246.391028 475.725418 
L 248.053926 474.765811 
L 249.716824 475.905344 
L 251.379722 475.365565 
L 253.04262 476.385147 
L 256.368417 476.08527 
L 258.031315 475.545491 
L 259.694213 476.265197 
L 261.357111 475.605467 
L 263.020009 476.385147 
L 266.345805 476.565074 
L 268.008703 475.905344 
L 269.671601 476.265197 
L 272.997397 475.965319 
L 274.660295 476.385147 
L 276.323193 476.445123 
L 277.986091 476.625049 
L 279.648989 476.265197 
L 281.311887 476.08527 
L 284.637683 476.265197 
L 286.300581 476.025295 
L 287.963479 476.205221 
L 289.626377 476.625049 
L 291.289275 475.725418 
L 292.952174 476.145246 
L 296.27797 475.485516 
L 297.940868 476.265197 
L 301.266664 475.725418 
L 302.929562 475.965319 
L 304.59246 475.605467 
L 306.255358 475.785393 
L 307.918256 475.365565 
L 309.581154 476.08527 
L 311.244052 476.565074 
L 312.90695 476.325172 
L 314.569848 475.965319 
L 316.232746 475.42554 
L 317.895644 475.065688 
L 319.558542 475.125663 
L 321.22144 475.485516 
L 322.884338 475.365565 
L 324.547236 475.605467 
L 326.210134 473.026523 
L 327.873032 473.266425 
L 329.535931 472.726646 
L 331.198829 472.846597 
L 334.524625 475.125663 
L 336.187523 475.185639 
L 337.850421 473.206449 
L 339.513319 472.966548 
L 341.176217 473.806204 
L 342.839115 473.206449 
L 344.502013 473.746228 
L 346.164911 475.545491 
L 347.827809 474.765811 
L 349.490707 472.246842 
L 351.153605 472.066916 
L 352.816503 471.167285 
L 354.479401 468.288464 
L 356.142299 471.287235 
L 357.805197 473.686253 
L 359.468095 472.726646 
L 361.130993 473.206449 
L 362.793891 472.426769 
L 364.456789 470.867407 
L 366.119687 470.927383 
L 367.782586 470.447579 
L 369.445484 471.107309 
L 371.108382 470.627506 
L 372.77128 468.168513 
L 374.434178 464.809889 
L 376.097076 465.229717 
L 377.759974 464.629962 
L 381.08577 468.528365 
L 382.748668 467.508783 
L 384.411566 466.729102 
L 386.074464 470.56753 
L 387.737362 463.370478 
L 389.40026 462.890675 
L 391.063158 463.790306 
L 392.726056 463.910257 
L 394.388954 466.069373 
L 396.051852 465.589569 
L 397.71475 462.470847 
L 399.377648 459.951878 
L 401.040546 460.85151 
L 402.703444 460.551633 
L 404.366343 462.590797 
L 406.029241 457.552861 
L 407.692139 449.516153 
L 409.355037 446.937209 
L 411.017935 442.439052 
L 412.680833 433.802589 
L 416.006629 450.535735 
L 417.669527 455.213819 
L 419.332425 439.260353 
L 420.995323 437.101238 
L 422.658221 429.184481 
L 424.321119 430.144087 
L 425.984017 427.685095 
L 427.646915 434.642245 
L 429.309813 432.123277 
L 430.972711 410.891973 
L 432.635609 405.254282 
L 434.298507 401.775707 
L 437.624303 411.011924 
L 439.287201 420.248141 
L 440.9501 419.228558 
L 442.612998 395.118434 
L 444.275896 391.399957 
L 445.938794 399.37669 
L 447.601692 399.136788 
L 449.26459 401.715732 
L 450.927488 425.046176 
L 452.590386 427.08534 
L 454.253284 395.478286 
L 455.916182 375.746368 
L 457.57908 381.983814 
L 459.241978 386.601922 
L 460.904876 399.556616 
L 462.567774 419.528436 
L 464.230672 420.428067 
L 465.89357 396.078041 
L 469.219366 400.696149 
L 470.882264 410.891973 
L 472.545162 410.41217 
L 474.20806 432.123277 
L 475.870958 418.328927 
L 477.533856 388.101308 
L 480.859653 398.597009 
L 482.522551 399.136788 
L 484.185449 408.313029 
L 485.848347 426.125733 
L 487.511245 424.086569 
L 489.174143 399.076812 
L 490.837041 399.37669 
L 492.499939 401.775707 
L 494.162837 405.01438 
L 497.488633 421.627576 
L 499.151531 428.044947 
L 500.814429 400.276321 
L 502.477327 403.275093 
L 504.140225 409.872391 
L 505.803123 417.909099 
L 507.466021 424.926225 
L 509.128919 430.983744 
L 510.791817 434.402343 
L 512.454715 407.233472 
L 514.117613 417.36932 
L 515.780512 420.967846 
L 517.44341 428.644702 
L 519.106308 432.543105 
L 520.769206 442.439052 
L 522.432104 443.578585 
L 524.095002 418.388902 
L 525.7579 421.267723 
L 527.420798 419.888288 
L 529.083696 428.284849 
L 530.746594 438.000869 
L 532.409492 436.921312 
L 534.07239 438.060845 
L 535.735288 419.588411 
L 537.398186 414.310573 
L 539.061084 417.009467 
L 540.723982 423.007011 
L 542.38688 424.446421 
L 544.049778 435.781778 
L 545.712676 433.442736 
L 547.375574 410.652071 
L 549.038472 414.550475 
L 550.70137 413.710818 
L 552.364268 421.927453 
L 554.027167 420.967846 
L 555.690065 431.403572 
L 557.352963 427.325242 
L 559.015861 397.3975 
L 560.678759 396.857721 
L 562.341657 397.337525 
L 564.004555 415.450106 
L 565.667453 445.557774 
L 567.330351 413.29099 
L 568.993249 374.486884 
L 570.656147 367.289832 
L 572.319045 287.882357 
L 573.981943 298.438033 
L 575.644841 334.063442 
L 577.307739 406.753668 
L 578.970637 343.719486 
L 580.633535 343.419609 
L 582.296433 333.643613 
L 583.959331 293.340122 
L 585.622229 323.267863 
L 590.610924 386.901799 
L 592.273822 390.980129 
L 593.93672 350.736612 
L 595.599618 357.753738 
L 597.262516 374.187007 
L 598.925414 379.344895 
L 600.588312 383.60315 
L 602.25121 406.213889 
L 603.914108 404.89443 
L 605.577006 372.56767 
L 607.239904 383.243298 
L 608.902802 381.623961 
L 610.5657 402.25551 
L 612.228598 402.195535 
L 613.891496 420.548018 
L 615.554394 425.046176 
L 617.217292 397.457476 
L 618.88019 406.273865 
L 620.543088 409.992341 
L 622.205986 409.572513 
L 623.868884 418.988657 
L 625.531782 429.664284 
L 627.194681 427.865021 
L 628.857579 410.772022 
L 630.520477 413.770794 
L 632.183375 421.087797 
L 633.846273 422.707134 
L 635.509171 420.488043 
L 637.172069 434.822171 
L 638.834967 437.34114 
L 640.497865 417.129418 
L 642.160763 431.343596 
L 643.823661 426.065758 
L 645.486559 426.065758 
L 647.149457 422.587183 
L 648.812355 444.238315 
L 650.475253 435.841754 
L 652.138151 418.868706 
L 653.801049 422.347281 
L 655.463947 427.08534 
L 657.126845 424.026593 
L 658.789743 423.306888 
L 660.452641 437.161213 
L 662.115539 440.10001 
L 663.778437 429.364407 
L 665.441336 435.002098 
L 667.104234 434.762196 
L 668.767132 439.020452 
L 672.092928 451.975146 
L 673.755826 451.25544 
L 675.418724 443.998413 
L 677.081622 445.61775 
L 678.74452 447.05716 
L 680.407418 443.278708 
L 682.070316 448.916398 
L 683.733214 448.076742 
L 685.396112 450.715661 
L 687.05901 441.479445 
L 688.721908 437.521066 
L 690.384806 439.320329 
L 692.047704 436.981287 
L 693.710602 441.659371 
L 695.3735 448.976374 
L 697.036398 450.055932 
L 698.699296 435.36195 
L 700.362194 442.439052 
L 702.025093 440.819715 
L 703.687991 443.63856 
L 705.350889 444.118364 
L 707.013787 449.396202 
L 708.676685 448.916398 
L 710.339583 435.841754 
L 712.002481 440.459862 
L 713.665379 444.358265 
L 715.328277 442.439052 
L 718.654073 453.534507 
L 720.316971 455.33377 
L 721.979869 445.797676 
L 723.642767 453.114679 
L 725.305665 453.294605 
L 726.968563 452.095096 
L 726.968563 452.095096 
" style="fill:none;stroke:#003078;stroke-linecap:square;stroke-width:2;"/>
   </g>
   <g id="line2d_32">
    <path clip-path="url(#pb6b921edf7)" d="M 63.472243 476.641075 
L 66.798039 476.745 
L 76.775428 476.745 
L 78.438326 476.537149 
L 80.101224 476.641075 
L 81.764122 476.433224 
L 83.42702 475.497897 
L 85.089918 475.186121 
L 86.752816 474.146868 
L 88.415714 473.835093 
L 90.078612 474.77042 
L 91.74151 473.419391 
L 93.404408 472.899765 
L 96.730204 473.00369 
L 98.393102 470.509484 
L 100.056 469.158456 
L 103.381796 468.84668 
L 105.044694 462.92294 
L 106.707593 462.091537 
L 108.370491 456.999199 
L 110.033389 458.350228 
L 111.696287 456.687424 
L 113.359185 459.38948 
L 115.022083 460.220883 
L 116.684981 441.098634 
L 118.347879 447.957701 
L 120.010777 442.761438 
L 121.673675 441.82611 
L 123.336573 442.449662 
L 124.999471 447.438075 
L 126.662369 453.569666 
L 128.325267 436.941623 
L 129.988165 436.629847 
L 131.651063 436.629847 
L 133.313961 436.110221 
L 134.976859 444.736018 
L 136.639757 451.075459 
L 138.302655 451.075459 
L 139.965553 448.373402 
L 143.29135 439.227979 
L 144.954248 439.020128 
L 146.617146 443.073214 
L 148.280044 451.075459 
L 149.942942 457.934527 
L 151.60584 447.542 
L 153.268738 449.828356 
L 154.931636 450.451908 
L 156.594534 455.856021 
L 158.257432 454.608918 
L 159.92033 462.611164 
L 161.583228 464.170043 
L 163.246126 458.869854 
L 164.909024 460.844434 
L 168.23482 455.959947 
L 169.897718 458.454153 
L 171.560616 458.142377 
L 173.223514 465.832847 
L 176.54931 458.558078 
L 178.212208 458.973779 
L 179.875106 458.454153 
L 181.538005 464.793594 
L 183.200903 462.611164 
L 184.863801 465.624996 
L 186.526699 458.246303 
L 188.189597 461.15621 
L 189.852495 460.844434 
L 191.515393 463.026865 
L 193.178291 458.142377 
L 194.841189 459.493406 
L 196.504087 464.481819 
L 198.166985 459.285555 
L 199.829883 454.608918 
L 201.492781 459.493406 
L 203.155679 463.026865 
L 204.818577 462.507238 
L 206.481475 464.066117 
L 208.144373 468.223128 
L 209.807271 465.832847 
L 211.470169 466.144623 
L 213.133067 464.481819 
L 214.795965 466.144623 
L 216.458863 465.728922 
L 218.121762 469.470231 
L 219.78466 471.964438 
L 221.447558 470.093783 
L 223.110456 469.158456 
L 224.773354 468.950605 
L 226.436252 470.509484 
L 228.09915 471.02911 
L 229.762048 471.236961 
L 231.424946 473.211541 
L 233.087844 469.05453 
L 234.750742 470.301633 
L 236.41364 469.782007 
L 238.076538 469.885932 
L 239.739436 468.950605 
L 241.402334 469.470231 
L 243.065232 471.133036 
L 244.72813 469.885932 
L 246.391028 468.223128 
L 248.053926 470.093783 
L 249.716824 470.301633 
L 251.379722 462.195463 
L 253.04262 471.860512 
L 254.705519 468.84668 
L 256.368417 469.885932 
L 258.031315 463.13079 
L 259.694213 472.899765 
L 261.357111 470.509484 
L 263.020009 474.77042 
L 264.682907 462.195463 
L 266.345805 473.835093 
L 268.008703 472.276214 
L 271.334499 473.939018 
L 272.997397 473.835093 
L 276.323193 475.809673 
L 277.986091 475.497897 
L 279.648989 473.107616 
L 281.311887 473.731167 
L 282.974785 475.290046 
L 286.300581 473.731167 
L 287.963479 475.497897 
L 289.626377 475.705747 
L 291.289275 474.250794 
L 292.952174 474.354719 
L 294.615072 474.874345 
L 296.27797 474.146868 
L 297.940868 474.97827 
L 299.603766 475.601822 
L 301.266664 475.705747 
L 302.929562 472.276214 
L 304.59246 470.405559 
L 306.255358 474.146868 
L 307.918256 473.523317 
L 309.581154 473.627242 
L 311.244052 474.250794 
L 312.90695 473.107616 
L 314.569848 474.354719 
L 316.232746 473.939018 
L 317.895644 473.939018 
L 319.558542 473.627242 
L 321.22144 475.082196 
L 322.884338 475.082196 
L 324.547236 475.290046 
L 326.210134 474.458644 
L 327.873032 474.250794 
L 329.535931 474.458644 
L 331.198829 474.458644 
L 332.861727 475.186121 
L 334.524625 476.225374 
L 336.187523 475.913598 
L 337.850421 474.77042 
L 339.513319 473.939018 
L 341.176217 474.250794 
L 342.839115 474.97827 
L 344.502013 474.97827 
L 346.164911 475.705747 
L 347.827809 474.874345 
L 349.490707 474.77042 
L 351.153605 472.79584 
L 354.479401 473.523317 
L 356.142299 474.458644 
L 357.805197 474.77042 
L 359.468095 475.601822 
L 361.130993 473.00369 
L 362.793891 471.548737 
L 364.456789 472.172288 
L 366.119687 471.548737 
L 367.782586 471.340886 
L 369.445484 472.172288 
L 371.108382 471.964438 
L 372.77128 472.172288 
L 374.434178 470.82126 
L 376.097076 466.8721 
L 377.759974 463.754342 
L 379.422872 461.260135 
L 381.08577 463.442566 
L 382.748668 463.13079 
L 384.411566 460.220883 
L 386.074464 461.883687 
L 387.737362 460.324808 
L 389.40026 457.4149 
L 391.063158 461.675836 
L 392.726056 462.195463 
L 394.388954 459.701256 
L 396.051852 456.895274 
L 397.71475 459.701256 
L 399.377648 455.23247 
L 401.040546 449.620505 
L 402.703444 451.179384 
L 404.366343 447.645925 
L 406.029241 450.555833 
L 407.692139 444.216392 
L 409.355037 437.357324 
L 411.017935 437.461249 
L 412.680833 443.904616 
L 414.343731 436.733772 
L 416.006629 434.863118 
L 417.669527 443.80069 
L 419.332425 432.472836 
L 420.995323 428.315826 
L 422.658221 414.285915 
L 424.321119 411.583858 
L 425.984017 414.285915 
L 427.646915 422.911712 
L 429.309813 412.934886 
L 430.972711 403.685538 
L 432.635609 396.618619 
L 434.298507 388.304598 
L 435.961405 390.798804 
L 437.624303 395.475441 
L 439.287201 412.41526 
L 440.9501 411.687783 
L 442.612998 395.475441 
L 444.275896 377.808146 
L 445.938794 382.796559 
L 447.601692 394.540114 
L 449.26459 377.808146 
L 450.927488 403.165911 
L 452.590386 402.334509 
L 454.253284 361.284029 
L 455.916182 348.189445 
L 457.57908 345.175612 
L 459.241978 366.999918 
L 460.904876 352.346456 
L 462.567774 370.221602 
L 464.230672 379.055249 
L 465.89357 315.037285 
L 467.556468 323.143456 
L 469.219366 335.718413 
L 470.882264 312.231303 
L 474.20806 385.394691 
L 475.870958 378.223847 
L 477.533856 330.210374 
L 479.196755 348.501221 
L 480.859653 363.050758 
L 482.522551 371.053004 
L 484.185449 385.602541 
L 485.848347 413.870214 
L 487.511245 404.413014 
L 489.174143 371.676555 
L 490.837041 376.664968 
L 492.499939 387.888897 
L 494.162837 396.514694 
L 495.825735 387.473196 
L 497.488633 411.479933 
L 499.151531 411.479933 
L 500.814429 373.54721 
L 502.477327 368.662723 
L 504.140225 374.170762 
L 505.803123 381.133755 
L 507.466021 379.47095 
L 509.128919 406.075819 
L 510.791817 402.230584 
L 512.454715 369.59805 
L 514.117613 363.154684 
L 515.780512 337.796918 
L 517.44341 356.295616 
L 519.106308 369.182349 
L 520.769206 389.032075 
L 522.432104 376.353192 
L 524.095002 320.337474 
L 525.7579 309.321395 
L 527.420798 305.891862 
L 529.083696 289.055968 
L 530.746594 300.279897 
L 532.409492 317.427566 
L 534.07239 300.383822 
L 535.735288 215.788655 
L 539.061084 196.978182 
L 540.723982 199.88809 
L 542.38688 184.50715 
L 544.049778 239.275766 
L 545.712676 192.613321 
L 547.375574 108.953481 
L 549.038472 146.158727 
L 550.70137 150.315737 
L 552.364268 188.24846 
L 554.027167 213.086598 
L 555.690065 251.227171 
L 557.352963 247.278011 
L 559.015861 191.574068 
L 560.678759 195.627154 
L 562.341657 222.855574 
L 564.004555 323.663082 
L 565.667453 409.921054 
L 567.330351 280.01447 
L 568.993249 217.347534 
L 570.656147 231.897072 
L 572.319045 106.459275 
L 573.981943 196.250705 
L 575.644841 267.855214 
L 577.307739 350.891502 
L 578.970637 259.852968 
L 580.633535 288.744193 
L 582.296433 200.511641 
L 583.959331 228.987164 
L 585.622229 269.933719 
L 587.285127 303.917282 
L 588.948025 310.880274 
L 590.610924 358.062345 
L 592.273822 354.217111 
L 593.93672 296.434662 
L 597.262516 324.702335 
L 598.925414 340.498975 
L 600.588312 350.787577 
L 602.25121 372.300107 
L 603.914108 391.006655 
L 605.577006 331.561402 
L 607.239904 364.401787 
L 608.902802 375.833566 
L 610.5657 382.276933 
L 612.228598 396.514694 
L 613.891496 420.521431 
L 615.554394 435.590594 
L 617.217292 388.824224 
L 618.88019 400.879555 
L 620.543088 403.581612 
L 622.205986 408.362175 
L 623.868884 414.597691 
L 625.531782 426.23732 
L 627.194681 428.939377 
L 628.857579 413.142737 
L 630.520477 414.493765 
L 632.183375 416.15657 
L 633.846273 424.678441 
L 635.509171 424.678441 
L 637.172069 439.435829 
L 638.834967 447.230224 
L 640.497865 425.613769 
L 642.160763 428.00405 
L 643.823661 429.97863 
L 645.486559 437.565174 
L 647.149457 434.447416 
L 648.812355 447.438075 
L 650.475253 446.710598 
L 652.138151 429.666854 
L 653.801049 430.810032 
L 655.463947 437.980876 
L 657.126845 441.098634 
L 658.789743 444.528167 
L 660.452641 448.996954 
L 662.115539 448.373402 
L 663.778437 441.82611 
L 665.441336 446.814523 
L 667.104234 449.30873 
L 668.767132 453.361815 
L 670.43003 455.752096 
L 672.092928 462.299388 
L 673.755826 455.23247 
L 675.418724 451.387235 
L 677.081622 452.114712 
L 678.74452 455.024619 
L 680.407418 456.063872 
L 682.070316 463.13079 
L 683.733214 459.18163 
L 685.396112 461.571911 
L 687.05901 449.932281 
L 688.721908 459.597331 
L 690.384806 455.752096 
L 692.047704 453.050039 
L 693.710602 455.336395 
L 695.3735 456.999199 
L 697.036398 460.324808 
L 698.699296 456.375648 
L 700.362194 457.726676 
L 702.025093 457.726676 
L 703.687991 453.985367 
L 705.350889 458.350228 
L 707.013787 460.948359 
L 708.676685 462.299388 
L 710.339583 456.167797 
L 712.002481 459.805182 
L 713.665379 456.999199 
L 715.328277 456.063872 
L 716.991175 460.948359 
L 718.654073 467.703502 
L 720.316971 466.040698 
L 721.979869 463.858267 
L 723.642767 462.507238 
L 725.305665 465.521071 
L 725.305665 465.521071 
" style="fill:none;stroke:#d4351c;stroke-linecap:square;stroke-width:2;"/>
   </g>
   <g id="patch_3">
    <path d="M 68.460938 476.745 
L 738.060938 476.745 
" style="fill:none;stroke:#000000;stroke-linecap:square;stroke-linejoin:miter;stroke-width:0.8;"/>
   </g>
   <g id="text_23">
    <!-- COVID-19 cases in UK Nations, per capita -->
    <g transform="translate(281.687813 27.225)scale(0.12 -0.12)">
     <defs>
      <path d="M 4511 3025 
L 3516 3025 
Q 3459 3409 3188 3628 
Q 2918 3848 2514 3848 
Q 1973 3848 1647 3451 
Q 1321 3055 1321 2327 
Q 1321 1582 1649 1194 
Q 1977 807 2507 807 
Q 2900 807 3173 1012 
Q 3446 1218 3516 1591 
L 4511 1586 
Q 4459 1159 4207 782 
Q 3955 405 3522 170 
Q 3089 -64 2491 -64 
Q 1868 -64 1378 218 
Q 889 500 606 1034 
Q 323 1568 323 2327 
Q 323 3089 609 3623 
Q 896 4157 1386 4437 
Q 1877 4718 2491 4718 
Q 3030 4718 3463 4519 
Q 3896 4320 4172 3942 
Q 4448 3564 4511 3025 
z
" id="Inter-Bold-43" transform="scale(0.015625)"/>
      <path d="M 4682 2327 
Q 4682 1566 4394 1032 
Q 4107 498 3614 217 
Q 3121 -64 2502 -64 
Q 1882 -64 1389 218 
Q 896 500 609 1035 
Q 323 1570 323 2327 
Q 323 3089 609 3623 
Q 896 4157 1389 4437 
Q 1882 4718 2502 4718 
Q 3121 4718 3614 4437 
Q 4107 4157 4394 3623 
Q 4682 3089 4682 2327 
z
M 3684 2327 
Q 3684 3068 3361 3458 
Q 3039 3848 2502 3848 
Q 1966 3848 1643 3458 
Q 1321 3068 1321 2327 
Q 1321 1589 1643 1198 
Q 1966 807 2502 807 
Q 3039 807 3361 1198 
Q 3684 1589 3684 2327 
z
" id="Inter-Bold-4f" transform="scale(0.015625)"/>
      <path d="M 1246 4655 
L 2371 1118 
L 2414 1118 
L 3541 4655 
L 4632 4655 
L 3027 0 
L 1759 0 
L 152 4655 
L 1246 4655 
z
" id="Inter-Bold-56" transform="scale(0.015625)"/>
      <path d="M 1389 4655 
L 1389 0 
L 405 0 
L 405 4655 
L 1389 4655 
z
" id="Inter-Bold-49" transform="scale(0.015625)"/>
      <path d="M 2055 0 
L 405 0 
L 405 4655 
L 2068 4655 
Q 2771 4655 3278 4376 
Q 3786 4098 4059 3577 
Q 4332 3057 4332 2332 
Q 4332 1605 4058 1082 
Q 3784 559 3274 279 
Q 2764 0 2055 0 
z
M 1389 843 
L 2014 843 
Q 2671 843 3010 1197 
Q 3350 1552 3350 2332 
Q 3350 3107 3010 3459 
Q 2671 3811 2016 3811 
L 1389 3811 
L 1389 843 
z
" id="Inter-Bold-44" transform="scale(0.015625)"/>
      <path d="M 2561 2295 
L 2561 1527 
L 439 1527 
L 439 2295 
L 2561 2295 
z
" id="Inter-Bold-2d" transform="scale(0.015625)"/>
      <path d="M 2305 4655 
L 2305 0 
L 1323 0 
L 1323 3450 
L 1280 3450 
Q 1205 3334 961 3219 
Q 718 3105 332 3105 
L 332 3886 
Q 632 3886 857 4019 
Q 1082 4152 1209 4333 
Q 1336 4514 1341 4655 
L 2305 4655 
z
" id="Inter-Bold-31" transform="scale(0.015625)"/>
      <path d="M 2061 4732 
Q 2421 4732 2753 4612 
Q 3086 4493 3348 4227 
Q 3611 3961 3766 3523 
Q 3921 3086 3921 2448 
Q 3921 1659 3686 1096 
Q 3452 534 3028 235 
Q 2605 -64 2027 -64 
Q 1561 -64 1204 117 
Q 848 298 631 610 
Q 414 923 368 1314 
L 1339 1314 
Q 1396 1059 1577 919 
Q 1759 780 2027 780 
Q 2482 780 2718 1176 
Q 2955 1573 2957 2264 
L 2925 2264 
Q 2771 1957 2453 1782 
Q 2136 1607 1752 1607 
Q 1341 1607 1016 1801 
Q 691 1995 506 2334 
Q 321 2673 323 3109 
Q 321 3582 539 3949 
Q 757 4316 1149 4525 
Q 1541 4734 2061 4732 
z
M 2068 3959 
Q 1725 3959 1500 3722 
Q 1275 3486 1277 3136 
Q 1275 2791 1496 2555 
Q 1718 2320 2059 2320 
Q 2284 2320 2465 2431 
Q 2646 2543 2751 2729 
Q 2857 2916 2859 3141 
Q 2857 3366 2753 3551 
Q 2650 3736 2473 3847 
Q 2296 3959 2068 3959 
z
" id="Inter-Bold-39" transform="scale(0.015625)"/>
      <path id="Inter-Bold-20" transform="scale(0.015625)"/>
      <path d="M 1964 -68 
Q 1427 -68 1042 160 
Q 657 389 451 795 
Q 246 1202 246 1732 
Q 246 2268 453 2674 
Q 661 3080 1045 3308 
Q 1430 3536 1959 3536 
Q 2416 3536 2760 3370 
Q 3105 3205 3303 2905 
Q 3502 2605 3523 2200 
L 2609 2200 
Q 2571 2461 2406 2621 
Q 2241 2782 1975 2782 
Q 1639 2782 1434 2511 
Q 1230 2241 1230 1745 
Q 1230 1245 1433 971 
Q 1636 698 1975 698 
Q 2225 698 2395 849 
Q 2566 1000 2609 1280 
L 3523 1280 
Q 3500 880 3305 575 
Q 3111 270 2770 101 
Q 2430 -68 1964 -68 
z
" id="Inter-Bold-63" transform="scale(0.015625)"/>
      <path d="M 1382 -66 
Q 882 -66 552 195 
Q 223 457 223 975 
Q 223 1366 407 1588 
Q 591 1811 890 1914 
Q 1189 2018 1534 2050 
Q 1989 2095 2184 2145 
Q 2380 2195 2380 2364 
L 2380 2377 
Q 2380 2593 2244 2711 
Q 2109 2830 1861 2830 
Q 1600 2830 1445 2716 
Q 1291 2602 1241 2427 
L 346 2500 
Q 446 2977 842 3256 
Q 1239 3536 1866 3536 
Q 2255 3536 2593 3413 
Q 2932 3291 3140 3030 
Q 3348 2770 3348 2355 
L 3348 0 
L 2430 0 
L 2430 484 
L 2402 484 
Q 2275 241 2021 87 
Q 1768 -66 1382 -66 
z
M 1659 602 
Q 1977 602 2181 787 
Q 2386 973 2386 1248 
L 2386 1618 
Q 2330 1580 2210 1550 
Q 2091 1520 1956 1498 
Q 1821 1477 1714 1461 
Q 1459 1425 1303 1318 
Q 1148 1211 1148 1007 
Q 1148 807 1292 704 
Q 1436 602 1659 602 
z
" id="Inter-Bold-61" transform="scale(0.015625)"/>
      <path d="M 3291 2495 
L 2405 2441 
Q 2368 2609 2220 2729 
Q 2073 2850 1821 2850 
Q 1596 2850 1440 2755 
Q 1284 2661 1286 2505 
Q 1284 2380 1385 2293 
Q 1486 2207 1730 2155 
L 2361 2027 
Q 3368 1820 3371 1082 
Q 3371 739 3169 479 
Q 2968 220 2618 76 
Q 2268 -68 1816 -68 
Q 1123 -68 711 221 
Q 300 511 232 1011 
L 1184 1061 
Q 1230 848 1394 739 
Q 1559 630 1818 630 
Q 2073 630 2228 730 
Q 2384 830 2386 984 
Q 2380 1243 1939 1332 
L 1334 1452 
Q 321 1655 325 2450 
Q 323 2955 728 3245 
Q 1134 3536 1805 3536 
Q 2466 3536 2846 3256 
Q 3227 2977 3291 2495 
z
" id="Inter-Bold-73" transform="scale(0.015625)"/>
      <path d="M 1977 -68 
Q 1441 -68 1052 151 
Q 664 370 455 773 
Q 246 1177 246 1730 
Q 246 2268 455 2675 
Q 664 3082 1044 3309 
Q 1425 3536 1939 3536 
Q 2400 3536 2771 3340 
Q 3143 3145 3361 2751 
Q 3580 2357 3580 1764 
L 3580 1498 
L 1202 1498 
L 1202 1495 
Q 1202 1105 1416 880 
Q 1630 655 1993 655 
Q 2236 655 2413 757 
Q 2591 859 2664 1059 
L 3559 1000 
Q 3457 514 3041 223 
Q 2625 -68 1977 -68 
z
M 1202 2098 
L 2668 2098 
Q 2666 2409 2468 2611 
Q 2271 2814 1955 2814 
Q 1632 2814 1425 2604 
Q 1218 2395 1202 2098 
z
" id="Inter-Bold-65" transform="scale(0.015625)"/>
      <path d="M 386 0 
L 386 3491 
L 1355 3491 
L 1355 0 
L 386 0 
z
M 876 3941 
Q 662 3941 507 4085 
Q 353 4230 353 4432 
Q 353 4634 507 4777 
Q 662 4920 876 4920 
Q 1092 4920 1246 4777 
Q 1401 4634 1401 4432 
Q 1401 4230 1246 4085 
Q 1092 3941 876 3941 
z
" id="Inter-Bold-69" transform="scale(0.015625)"/>
      <path d="M 1355 2018 
L 1355 0 
L 386 0 
L 386 3491 
L 1309 3491 
L 1309 2875 
L 1350 2875 
Q 1468 3180 1739 3358 
Q 2011 3536 2400 3536 
Q 2946 3536 3275 3185 
Q 3605 2834 3605 2223 
L 3605 0 
L 2636 0 
L 2636 2050 
Q 2639 2370 2473 2551 
Q 2307 2732 2016 2732 
Q 1723 2732 1540 2544 
Q 1357 2357 1355 2018 
z
" id="Inter-Bold-6e" transform="scale(0.015625)"/>
      <path d="M 3286 4655 
L 4264 4655 
L 4264 1577 
Q 4264 1050 4016 683 
Q 3768 316 3333 125 
Q 2898 -66 2334 -66 
Q 1771 -66 1334 125 
Q 898 316 651 683 
Q 405 1050 405 1577 
L 405 4655 
L 1389 4655 
L 1389 1611 
Q 1389 1239 1658 1025 
Q 1927 811 2334 811 
Q 2748 811 3017 1025 
Q 3286 1239 3286 1611 
L 3286 4655 
z
" id="Inter-Bold-55" transform="scale(0.015625)"/>
      <path d="M 405 0 
L 405 4655 
L 1389 4655 
L 1389 2602 
L 1450 2602 
L 3125 4655 
L 4305 4655 
L 2577 2570 
L 4325 0 
L 3148 0 
L 1873 1914 
L 1389 1323 
L 1389 0 
L 405 0 
z
" id="Inter-Bold-4b" transform="scale(0.015625)"/>
      <path d="M 4298 4655 
L 4298 0 
L 3448 0 
L 1423 2930 
L 1389 2930 
L 1389 0 
L 405 0 
L 405 4655 
L 1268 4655 
L 3277 1727 
L 3318 1727 
L 3318 4655 
L 4298 4655 
z
" id="Inter-Bold-4e" transform="scale(0.015625)"/>
      <path d="M 2243 3491 
L 2243 2764 
L 1586 2764 
L 1586 1073 
Q 1586 873 1677 802 
Q 1768 732 1914 732 
Q 1982 732 2050 744 
Q 2118 757 2155 764 
L 2307 43 
Q 2234 20 2102 -10 
Q 1971 -41 1782 -48 
Q 1255 -70 935 181 
Q 616 432 618 945 
L 618 2764 
L 141 2764 
L 141 3491 
L 618 3491 
L 618 4327 
L 1586 4327 
L 1586 3491 
L 2243 3491 
z
" id="Inter-Bold-74" transform="scale(0.015625)"/>
      <path d="M 1964 -68 
Q 1434 -68 1049 158 
Q 664 384 455 789 
Q 246 1195 246 1732 
Q 246 2273 455 2678 
Q 664 3084 1049 3310 
Q 1434 3536 1964 3536 
Q 2493 3536 2878 3310 
Q 3264 3084 3473 2678 
Q 3682 2273 3682 1732 
Q 3682 1195 3473 789 
Q 3264 384 2878 158 
Q 2493 -68 1964 -68 
z
M 1968 682 
Q 2327 682 2512 982 
Q 2698 1282 2698 1739 
Q 2698 2195 2512 2496 
Q 2327 2798 1968 2798 
Q 1602 2798 1416 2496 
Q 1230 2195 1230 1739 
Q 1230 1282 1416 982 
Q 1602 682 1968 682 
z
" id="Inter-Bold-6f" transform="scale(0.015625)"/>
      <path d="M 1439 636 
L 1414 386 
Q 1384 86 1301 -212 
Q 1218 -511 1128 -754 
Q 1039 -998 984 -1136 
L 357 -1136 
Q 391 -1002 450 -763 
Q 509 -525 561 -226 
Q 614 73 627 382 
L 639 636 
L 1439 636 
z
" id="Inter-Bold-2c" transform="scale(0.015625)"/>
      <path d="M 386 -1309 
L 386 3491 
L 1341 3491 
L 1341 2905 
L 1384 2905 
Q 1450 3048 1570 3193 
Q 1691 3339 1888 3437 
Q 2086 3536 2377 3536 
Q 2761 3536 3081 3337 
Q 3402 3139 3596 2740 
Q 3791 2341 3791 1741 
Q 3791 1157 3602 756 
Q 3414 355 3093 149 
Q 2773 -57 2375 -57 
Q 2093 -57 1896 36 
Q 1700 130 1576 272 
Q 1452 414 1384 559 
L 1355 559 
L 1355 -1309 
L 386 -1309 
z
M 1334 1745 
Q 1334 1280 1526 997 
Q 1718 714 2068 714 
Q 2425 714 2613 1001 
Q 2802 1289 2802 1745 
Q 2802 2200 2614 2483 
Q 2427 2766 2068 2766 
Q 1716 2766 1525 2490 
Q 1334 2214 1334 1745 
z
" id="Inter-Bold-70" transform="scale(0.015625)"/>
      <path d="M 386 0 
L 386 3491 
L 1325 3491 
L 1325 2882 
L 1361 2882 
Q 1457 3207 1681 3374 
Q 1905 3541 2200 3541 
Q 2341 3541 2461 3507 
Q 2582 3473 2677 3414 
L 2386 2614 
Q 2318 2648 2237 2671 
Q 2157 2695 2057 2695 
Q 1764 2695 1560 2495 
Q 1357 2295 1355 1975 
L 1355 0 
L 386 0 
z
" id="Inter-Bold-72" transform="scale(0.015625)"/>
     </defs>
     <use xlink:href="#Inter-Bold-43"/>
     <use x="75.213089" xlink:href="#Inter-Bold-4f"/>
     <use x="153.409134" xlink:href="#Inter-Bold-56"/>
     <use x="228.196075" xlink:href="#Inter-Bold-49"/>
     <use x="256.250061" xlink:href="#Inter-Bold-44"/>
     <use x="328.977356" xlink:href="#Inter-Bold-2d"/>
     <use x="375.852371" xlink:href="#Inter-Bold-31"/>
     <use x="423.260056" xlink:href="#Inter-Bold-39"/>
     <use x="489.275696" xlink:href="#Inter-Bold-20"/>
     <use x="512.464615" xlink:href="#Inter-Bold-63"/>
     <use x="571.200424" xlink:href="#Inter-Bold-61"/>
     <use x="629.225998" xlink:href="#Inter-Bold-73"/>
     <use x="685.404984" xlink:href="#Inter-Bold-65"/>
     <use x="745.170624" xlink:href="#Inter-Bold-73"/>
     <use x="801.349609" xlink:href="#Inter-Bold-20"/>
     <use x="824.538528" xlink:href="#Inter-Bold-69"/>
     <use x="851.740234" xlink:href="#Inter-Bold-6e"/>
     <use x="913.920639" xlink:href="#Inter-Bold-20"/>
     <use x="937.109558" xlink:href="#Inter-Bold-55"/>
     <use x="1010.049911" xlink:href="#Inter-Bold-4b"/>
     <use x="1079.013" xlink:href="#Inter-Bold-20"/>
     <use x="1102.20192" xlink:href="#Inter-Bold-4e"/>
     <use x="1175.710464" xlink:href="#Inter-Bold-61"/>
     <use x="1233.736038" xlink:href="#Inter-Bold-74"/>
     <use x="1272.58548" xlink:href="#Inter-Bold-69"/>
     <use x="1299.787186" xlink:href="#Inter-Bold-6f"/>
     <use x="1361.150833" xlink:href="#Inter-Bold-6e"/>
     <use x="1423.331238" xlink:href="#Inter-Bold-73"/>
     <use x="1479.510223" xlink:href="#Inter-Bold-2c"/>
     <use x="1509.801422" xlink:href="#Inter-Bold-20"/>
     <use x="1532.990341" xlink:href="#Inter-Bold-70"/>
     <use x="1596.236099" xlink:href="#Inter-Bold-65"/>
     <use x="1656.00174" xlink:href="#Inter-Bold-72"/>
     <use x="1698.863968" xlink:href="#Inter-Bold-20"/>
     <use x="1722.052887" xlink:href="#Inter-Bold-63"/>
     <use x="1780.788696" xlink:href="#Inter-Bold-61"/>
     <use x="1838.81427" xlink:href="#Inter-Bold-70"/>
     <use x="1902.060028" xlink:href="#Inter-Bold-69"/>
     <use x="1929.261734" xlink:href="#Inter-Bold-74"/>
     <use x="1968.111176" xlink:href="#Inter-Bold-61"/>
    </g>
   </g>
   <g id="legend_1">
    <g id="patch_4">
     <path d="M 621.4875 98.614063 
L 731.060937 98.614063 
Q 733.060937 98.614063 733.060937 96.614063 
L 733.060937 40.225 
Q 733.060937 38.225 731.060937 38.225 
L 621.4875 38.225 
Q 619.4875 38.225 619.4875 40.225 
L 619.4875 96.614063 
Q 619.4875 98.614063 621.4875 98.614063 
z
" style="fill:#ffffff;opacity:0.8;stroke:#cccccc;stroke-linejoin:miter;"/>
    </g>
    <g id="line2d_33">
     <path d="M 623.4875 45.998438 
L 643.4875 45.998438 
" style="fill:none;stroke:#d4351c;stroke-linecap:square;stroke-width:2;"/>
    </g>
    <g id="line2d_34"/>
    <g id="text_24">
     <!-- Wales -->
     <g transform="translate(651.4875 49.498438)scale(0.1 -0.1)">
      <defs>
       <path d="M 1409 0 
L 136 4655 
L 709 4655 
L 1682 864 
L 1727 864 
L 2718 4655 
L 3355 4655 
L 4346 864 
L 4391 864 
L 5364 4655 
L 5936 4655 
L 4664 0 
L 4082 0 
L 3055 3709 
L 3018 3709 
L 1991 0 
L 1409 0 
z
" id="Inter-Regular-57" transform="scale(0.015625)"/>
      </defs>
      <use xlink:href="#Inter-Regular-57"/>
      <use x="94.886383" xlink:href="#Inter-Regular-61"/>
      <use x="151.278442" xlink:href="#Inter-Regular-6c"/>
      <use x="175.000031" xlink:href="#Inter-Regular-65"/>
      <use x="233.238678" xlink:href="#Inter-Regular-73"/>
     </g>
    </g>
    <g id="line2d_35">
     <path d="M 623.4875 60.317188 
L 643.4875 60.317188 
" style="fill:none;stroke:#003078;stroke-linecap:square;stroke-width:2;"/>
    </g>
    <g id="line2d_36"/>
    <g id="text_25">
     <!-- Scotland -->
     <g transform="translate(651.4875 63.817188)scale(0.1 -0.1)">
      <use xlink:href="#Inter-Regular-53"/>
      <use x="63.778427" xlink:href="#Inter-Regular-63"/>
      <use x="119.602295" xlink:href="#Inter-Regular-6f"/>
      <use x="179.261398" xlink:href="#Inter-Regular-74"/>
      <use x="215.625046" xlink:href="#Inter-Regular-6c"/>
      <use x="239.346634" xlink:href="#Inter-Regular-61"/>
      <use x="295.738693" xlink:href="#Inter-Regular-6e"/>
      <use x="354.261429" xlink:href="#Inter-Regular-64"/>
     </g>
    </g>
    <g id="line2d_37">
     <path d="M 623.4875 74.635938 
L 643.4875 74.635938 
" style="fill:none;stroke:#ffdd00;stroke-linecap:square;stroke-width:2;"/>
    </g>
    <g id="line2d_38"/>
    <g id="text_26">
     <!-- Northern Ireland -->
     <g transform="translate(651.4875 78.135938)scale(0.1 -0.1)">
      <defs>
       <path d="M 1027 2100 
L 1027 0 
L 491 0 
L 491 4655 
L 1027 4655 
L 1027 2945 
L 1073 2945 
Q 1196 3216 1442 3376 
Q 1689 3536 2100 3536 
Q 2636 3536 2963 3213 
Q 3291 2891 3291 2218 
L 3291 0 
L 2755 0 
L 2755 2182 
Q 2755 2598 2540 2826 
Q 2325 3055 1946 3055 
Q 1548 3055 1287 2806 
Q 1027 2557 1027 2100 
z
" id="Inter-Regular-68" transform="scale(0.015625)"/>
       <path d="M 1127 4655 
L 1127 0 
L 564 0 
L 564 4655 
L 1127 4655 
z
" id="Inter-Regular-49" transform="scale(0.015625)"/>
      </defs>
      <use xlink:href="#Inter-Regular-4e"/>
      <use x="75.284103" xlink:href="#Inter-Regular-6f"/>
      <use x="134.943207" xlink:href="#Inter-Regular-72"/>
      <use x="173.295486" xlink:href="#Inter-Regular-74"/>
      <use x="209.659134" xlink:href="#Inter-Regular-68"/>
      <use x="268.750061" xlink:href="#Inter-Regular-65"/>
      <use x="326.988708" xlink:href="#Inter-Regular-72"/>
      <use x="365.340988" xlink:href="#Inter-Regular-6e"/>
      <use x="423.863724" xlink:href="#Inter-Regular-20"/>
      <use x="451.988724" xlink:href="#Inter-Regular-49"/>
      <use x="478.40918" xlink:href="#Inter-Regular-72"/>
      <use x="516.761459" xlink:href="#Inter-Regular-65"/>
      <use x="575.000107" xlink:href="#Inter-Regular-6c"/>
      <use x="598.721695" xlink:href="#Inter-Regular-61"/>
      <use x="655.113754" xlink:href="#Inter-Regular-6e"/>
      <use x="713.63649" xlink:href="#Inter-Regular-64"/>
     </g>
    </g>
    <g id="line2d_39">
     <path d="M 623.4875 88.954688 
L 643.4875 88.954688 
" style="fill:none;stroke:#5694ca;stroke-linecap:square;stroke-width:2;"/>
    </g>
    <g id="line2d_40"/>
    <g id="text_27">
     <!-- England -->
     <g transform="translate(651.4875 92.454688)scale(0.1 -0.1)">
      <defs>
       <path d="M 564 0 
L 564 4655 
L 3373 4655 
L 3373 4155 
L 1127 4155 
L 1127 2582 
L 3227 2582 
L 3227 2082 
L 1127 2082 
L 1127 500 
L 3409 500 
L 3409 0 
L 564 0 
z
" id="Inter-Regular-45" transform="scale(0.015625)"/>
      </defs>
      <use xlink:href="#Inter-Regular-45"/>
      <use x="59.801147" xlink:href="#Inter-Regular-6e"/>
      <use x="118.323883" xlink:href="#Inter-Regular-67"/>
      <use x="179.261398" xlink:href="#Inter-Regular-6c"/>
      <use x="202.982986" xlink:href="#Inter-Regular-61"/>
      <use x="259.375046" xlink:href="#Inter-Regular-6e"/>
      <use x="317.897781" xlink:href="#Inter-Regular-64"/>
     </g>
    </g>
   </g>
  </g>
 </g>
 <defs>
  <clipPath id="pb6b921edf7">
   <rect height="443.52" width="669.6" x="68.460938" y="33.225"/>
  </clipPath>
 </defs>
</svg>
