<?xml version="1.0" encoding="utf-8" standalone="no"?>
<!DOCTYPE svg PUBLIC "-//W3C//DTD SVG 1.1//EN"
  "http://www.w3.org/Graphics/SVG/1.1/DTD/svg11.dtd">
<svg version="1.1" viewBox="0 0 740.804688 511.234062" xmlns="http://www.w3.org/2000/svg" xmlns:xlink="http://www.w3.org/1999/xlink">
 <metadata>
  <rdf:RDF xmlns:cc="http://creativecommons.org/ns#" xmlns:dc="http://purl.org/dc/elements/1.1/" xmlns:rdf="http://www.w3.org/1999/02/22-rdf-syntax-ns#">
   <cc:Work>
    <dc:type rdf:resource="http://purl.org/dc/dcmitype/StillImage"/>
    <dc:date>2021-08-04T16:22:36.665390</dc:date>
    <dc:format>image/svg+xml</dc:format>
    <dc:creator>
     <cc:Agent>
      <dc:title>Matplotlib v3.4.2, https://matplotlib.org/</dc:title>
     </cc:Agent>
    </dc:creator>
   </cc:Work>
  </rdf:RDF>
 </metadata>
 <defs>
  <style type="text/css">*{stroke-linecap:butt;stroke-linejoin:round;}</style>
 </defs>
 <g id="figure_1">
  <g id="patch_1">
   <path d="M 0 511.234062 
L 740.804688 511.234062 
L 740.804688 0 
L 0 0 
z
" style="fill:#ffffff;"/>
  </g>
  <g id="axes_1">
   <g id="patch_2">
    <path d="M 53.204688 476.745 
L 722.804688 476.745 
L 722.804688 33.225 
L 53.204688 33.225 
z
" style="fill:#ffffff;"/>
   </g>
   <g id="matplotlib.axis_1">
    <g id="xtick_1">
     <g id="line2d_1">
      <defs>
       <path d="M 0 0 
L 0 3.5 
" id="m56487112e0" style="stroke:#000000;stroke-width:0.8;"/>
      </defs>
      <g>
       <use style="stroke:#000000;stroke-width:0.8;" x="53.204687" xlink:href="#m56487112e0" y="476.745"/>
      </g>
     </g>
     <g id="text_1">
      <!-- 01 Mar -->
      <g transform="translate(37.167969 491.018437)scale(0.1 -0.1)">
       <defs>
        <path d="M 2000 -64 
Q 1230 -64 806 561 
Q 382 1186 382 2327 
Q 382 3459 809 4088 
Q 1236 4718 2000 4718 
Q 2764 4718 3191 4088 
Q 3618 3459 3618 2327 
Q 3618 1186 3194 561 
Q 2771 -64 2000 -64 
z
M 2000 436 
Q 2509 436 2791 927 
Q 3073 1418 3073 2327 
Q 3073 3234 2789 3730 
Q 2505 4227 2000 4227 
Q 1496 4227 1211 3730 
Q 927 3234 927 2327 
Q 927 1418 1210 927 
Q 1493 436 2000 436 
z
" id="Inter-Regular-30" transform="scale(0.015625)"/>
        <path d="M 1973 4655 
L 1973 0 
L 1409 0 
L 1409 3836 
L 1373 3836 
Q 1341 3773 1209 3692 
Q 1077 3611 868 3551 
Q 659 3491 391 3491 
L 391 3964 
Q 661 3964 859 4061 
Q 1057 4159 1190 4291 
Q 1323 4423 1392 4529 
Q 1461 4636 1473 4655 
L 1973 4655 
z
" id="Inter-Regular-31" transform="scale(0.015625)"/>
        <path id="Inter-Regular-20" transform="scale(0.015625)"/>
        <path d="M 564 4655 
L 1236 4655 
L 2818 791 
L 2873 791 
L 4455 4655 
L 5127 4655 
L 5127 0 
L 4600 0 
L 4600 3536 
L 4555 3536 
L 3100 0 
L 2591 0 
L 1136 3536 
L 1091 3536 
L 1091 0 
L 564 0 
L 564 4655 
z
" id="Inter-Regular-4d" transform="scale(0.015625)"/>
        <path d="M 1518 -82 
Q 1186 -82 916 44 
Q 646 170 486 410 
Q 327 650 327 991 
Q 327 1291 445 1478 
Q 564 1666 761 1773 
Q 959 1880 1199 1933 
Q 1439 1986 1682 2018 
Q 2000 2059 2199 2080 
Q 2398 2102 2490 2154 
Q 2582 2207 2582 2336 
L 2582 2355 
Q 2582 2691 2399 2877 
Q 2216 3064 1846 3064 
Q 1461 3064 1243 2895 
Q 1025 2727 936 2536 
L 427 2718 
Q 564 3036 792 3214 
Q 1021 3393 1292 3464 
Q 1564 3536 1827 3536 
Q 1996 3536 2215 3496 
Q 2434 3457 2640 3334 
Q 2846 3211 2982 2963 
Q 3118 2716 3118 2300 
L 3118 0 
L 2582 0 
L 2582 473 
L 2555 473 
Q 2500 359 2373 229 
Q 2246 100 2034 9 
Q 1823 -82 1518 -82 
z
M 1600 400 
Q 1918 400 2137 525 
Q 2357 650 2469 847 
Q 2582 1045 2582 1264 
L 2582 1755 
Q 2548 1714 2433 1681 
Q 2318 1648 2169 1624 
Q 2021 1600 1881 1583 
Q 1741 1566 1655 1555 
Q 1446 1527 1265 1467 
Q 1084 1407 974 1287 
Q 864 1168 864 964 
Q 864 684 1072 542 
Q 1280 400 1600 400 
z
" id="Inter-Regular-61" transform="scale(0.015625)"/>
        <path d="M 491 0 
L 491 3491 
L 1009 3491 
L 1009 2964 
L 1046 2964 
Q 1139 3223 1389 3384 
Q 1639 3545 1955 3545 
Q 2100 3545 2209 3511 
Q 2318 3477 2400 3418 
L 2218 2964 
Q 2161 2993 2085 3010 
Q 2009 3027 1909 3027 
Q 1527 3027 1277 2794 
Q 1027 2561 1027 2209 
L 1027 0 
L 491 0 
z
" id="Inter-Regular-72" transform="scale(0.015625)"/>
       </defs>
       <use xlink:href="#Inter-Regular-30"/>
       <use x="62.500015" xlink:href="#Inter-Regular-31"/>
       <use x="106.676163" xlink:href="#Inter-Regular-20"/>
       <use x="134.801163" xlink:href="#Inter-Regular-4d"/>
       <use x="225.99437" xlink:href="#Inter-Regular-61"/>
       <use x="282.386429" xlink:href="#Inter-Regular-72"/>
      </g>
     </g>
    </g>
    <g id="xtick_2">
     <g id="line2d_2">
      <g>
       <use style="stroke:#000000;stroke-width:0.8;" x="92.994471" xlink:href="#m56487112e0" y="476.745"/>
      </g>
     </g>
    </g>
    <g id="xtick_3">
     <g id="line2d_3">
      <g>
       <use style="stroke:#000000;stroke-width:0.8;" x="131.500712" xlink:href="#m56487112e0" y="476.745"/>
      </g>
     </g>
     <g id="text_2">
      <!-- 01 May -->
      <g transform="translate(114.597587 491.116875)scale(0.1 -0.1)">
       <defs>
        <path d="M 818 -1355 
Q 682 -1355 575 -1333 
Q 468 -1311 427 -1291 
L 564 -818 
Q 857 -893 1053 -814 
Q 1250 -736 1391 -345 
L 1509 -18 
L 218 3491 
L 800 3491 
L 1764 709 
L 1800 709 
L 2764 3491 
L 3346 3491 
L 1846 -564 
Q 1550 -1355 818 -1355 
z
" id="Inter-Regular-79" transform="scale(0.015625)"/>
       </defs>
       <use xlink:href="#Inter-Regular-30"/>
       <use x="62.500015" xlink:href="#Inter-Regular-31"/>
       <use x="106.676163" xlink:href="#Inter-Regular-20"/>
       <use x="134.801163" xlink:href="#Inter-Regular-4d"/>
       <use x="225.99437" xlink:href="#Inter-Regular-61"/>
       <use x="282.386429" xlink:href="#Inter-Regular-79"/>
      </g>
     </g>
    </g>
    <g id="xtick_4">
     <g id="line2d_4">
      <g>
       <use style="stroke:#000000;stroke-width:0.8;" x="171.290496" xlink:href="#m56487112e0" y="476.745"/>
      </g>
     </g>
    </g>
    <g id="xtick_5">
     <g id="line2d_5">
      <g>
       <use style="stroke:#000000;stroke-width:0.8;" x="209.796737" xlink:href="#m56487112e0" y="476.745"/>
      </g>
     </g>
     <g id="text_3">
      <!-- 01 Jul -->
      <g transform="translate(196.252987 491.018437)scale(0.1 -0.1)">
       <defs>
        <path d="M 2346 4655 
L 2909 4655 
L 2909 1327 
Q 2909 657 2549 296 
Q 2189 -64 1582 -64 
Q 1200 -64 902 76 
Q 605 216 434 475 
Q 264 734 264 1091 
L 818 1091 
Q 818 795 1034 615 
Q 1250 436 1582 436 
Q 1948 436 2147 664 
Q 2346 893 2346 1327 
L 2346 4655 
z
" id="Inter-Regular-4a" transform="scale(0.015625)"/>
        <path d="M 2691 1427 
L 2691 3491 
L 3227 3491 
L 3227 0 
L 2691 0 
L 2691 591 
L 2655 591 
Q 2532 325 2273 140 
Q 2014 -45 1618 -45 
Q 1127 -45 809 280 
Q 491 605 491 1273 
L 491 3491 
L 1027 3491 
L 1027 1309 
Q 1027 927 1242 700 
Q 1457 473 1791 473 
Q 1991 473 2199 575 
Q 2407 677 2549 888 
Q 2691 1100 2691 1427 
z
" id="Inter-Regular-75" transform="scale(0.015625)"/>
        <path d="M 1027 4655 
L 1027 0 
L 491 0 
L 491 4655 
L 1027 4655 
z
" id="Inter-Regular-6c" transform="scale(0.015625)"/>
       </defs>
       <use xlink:href="#Inter-Regular-30"/>
       <use x="62.500015" xlink:href="#Inter-Regular-31"/>
       <use x="106.676163" xlink:href="#Inter-Regular-20"/>
       <use x="134.801163" xlink:href="#Inter-Regular-4a"/>
       <use x="189.062531" xlink:href="#Inter-Regular-75"/>
       <use x="247.159134" xlink:href="#Inter-Regular-6c"/>
      </g>
     </g>
    </g>
    <g id="xtick_6">
     <g id="line2d_6">
      <g>
       <use style="stroke:#000000;stroke-width:0.8;" x="249.58652" xlink:href="#m56487112e0" y="476.745"/>
      </g>
     </g>
    </g>
    <g id="xtick_7">
     <g id="line2d_7">
      <g>
       <use style="stroke:#000000;stroke-width:0.8;" x="289.376304" xlink:href="#m56487112e0" y="476.745"/>
      </g>
     </g>
     <g id="text_4">
      <!-- 01 Sep -->
      <g transform="translate(273.488804 491.116875)scale(0.1 -0.1)">
       <defs>
        <path d="M 3109 3491 
Q 3068 3836 2777 4027 
Q 2486 4218 2064 4218 
Q 1600 4218 1318 3999 
Q 1036 3780 1036 3445 
Q 1036 3195 1189 3042 
Q 1343 2889 1553 2803 
Q 1764 2718 1936 2673 
L 2409 2545 
Q 2591 2498 2815 2414 
Q 3039 2330 3244 2185 
Q 3450 2041 3584 1816 
Q 3718 1591 3718 1264 
Q 3718 886 3521 581 
Q 3325 277 2949 97 
Q 2573 -82 2036 -82 
Q 1286 -82 845 272 
Q 405 627 364 1200 
L 946 1200 
Q 968 936 1124 764 
Q 1280 593 1519 510 
Q 1759 427 2036 427 
Q 2359 427 2616 533 
Q 2873 639 3023 828 
Q 3173 1018 3173 1273 
Q 3173 1505 3043 1650 
Q 2914 1795 2702 1886 
Q 2491 1977 2246 2045 
L 1673 2209 
Q 1127 2366 809 2657 
Q 491 2948 491 3418 
Q 491 3809 703 4101 
Q 916 4393 1276 4555 
Q 1636 4718 2082 4718 
Q 2532 4718 2882 4558 
Q 3232 4398 3437 4120 
Q 3643 3843 3655 3491 
L 3109 3491 
z
" id="Inter-Regular-53" transform="scale(0.015625)"/>
        <path d="M 1955 -73 
Q 1450 -73 1085 151 
Q 721 375 524 778 
Q 327 1182 327 1718 
Q 327 2255 524 2665 
Q 721 3075 1074 3305 
Q 1427 3536 1900 3536 
Q 2173 3536 2439 3445 
Q 2705 3355 2923 3151 
Q 3141 2948 3270 2614 
Q 3400 2280 3400 1791 
L 3400 1564 
L 866 1564 
Q 884 1005 1183 707 
Q 1482 409 1955 409 
Q 2271 409 2498 545 
Q 2725 682 2827 955 
L 3346 809 
Q 3223 414 2854 170 
Q 2486 -73 1955 -73 
z
M 866 2027 
L 2855 2027 
Q 2855 2470 2595 2762 
Q 2336 3055 1900 3055 
Q 1593 3055 1368 2911 
Q 1143 2768 1013 2533 
Q 884 2298 866 2027 
z
" id="Inter-Regular-65" transform="scale(0.015625)"/>
        <path d="M 491 -1309 
L 491 3491 
L 1009 3491 
L 1009 2936 
L 1073 2936 
Q 1132 3027 1237 3169 
Q 1343 3311 1542 3423 
Q 1741 3536 2082 3536 
Q 2523 3536 2859 3315 
Q 3196 3095 3384 2690 
Q 3573 2286 3573 1736 
Q 3573 1182 3384 776 
Q 3196 370 2861 148 
Q 2527 -73 2091 -73 
Q 1755 -73 1552 39 
Q 1350 152 1241 296 
Q 1132 441 1073 536 
L 1027 536 
L 1027 -1309 
L 491 -1309 
z
M 1018 1745 
Q 1018 1152 1276 780 
Q 1534 409 2018 409 
Q 2355 409 2581 587 
Q 2807 766 2921 1069 
Q 3036 1373 3036 1745 
Q 3036 2114 2923 2410 
Q 2811 2707 2585 2881 
Q 2359 3055 2018 3055 
Q 1527 3055 1272 2693 
Q 1018 2332 1018 1745 
z
" id="Inter-Regular-70" transform="scale(0.015625)"/>
       </defs>
       <use xlink:href="#Inter-Regular-30"/>
       <use x="62.500015" xlink:href="#Inter-Regular-31"/>
       <use x="106.676163" xlink:href="#Inter-Regular-20"/>
       <use x="134.801163" xlink:href="#Inter-Regular-53"/>
       <use x="198.57959" xlink:href="#Inter-Regular-65"/>
       <use x="256.818237" xlink:href="#Inter-Regular-70"/>
      </g>
     </g>
    </g>
    <g id="xtick_8">
     <g id="line2d_8">
      <g>
       <use style="stroke:#000000;stroke-width:0.8;" x="327.882545" xlink:href="#m56487112e0" y="476.745"/>
      </g>
     </g>
    </g>
    <g id="xtick_9">
     <g id="line2d_9">
      <g>
       <use style="stroke:#000000;stroke-width:0.8;" x="367.672329" xlink:href="#m56487112e0" y="476.745"/>
      </g>
     </g>
     <g id="text_5">
      <!-- 01 Nov -->
      <g transform="translate(351.401235 491.018437)scale(0.1 -0.1)">
       <defs>
        <path d="M 4255 4655 
L 4255 0 
L 3709 0 
L 1173 3655 
L 1127 3655 
L 1127 0 
L 564 0 
L 564 4655 
L 1109 4655 
L 3655 991 
L 3700 991 
L 3700 4655 
L 4255 4655 
z
" id="Inter-Regular-4e" transform="scale(0.015625)"/>
        <path d="M 1909 -73 
Q 1436 -73 1080 152 
Q 725 377 526 781 
Q 327 1186 327 1727 
Q 327 2273 526 2679 
Q 725 3086 1080 3311 
Q 1436 3536 1909 3536 
Q 2382 3536 2737 3311 
Q 3093 3086 3292 2679 
Q 3491 2273 3491 1727 
Q 3491 1186 3292 781 
Q 3093 377 2737 152 
Q 2382 -73 1909 -73 
z
M 1909 409 
Q 2268 409 2500 593 
Q 2732 777 2843 1077 
Q 2955 1377 2955 1727 
Q 2955 2077 2843 2379 
Q 2732 2682 2500 2868 
Q 2268 3055 1909 3055 
Q 1550 3055 1318 2868 
Q 1086 2682 975 2379 
Q 864 2077 864 1727 
Q 864 1377 975 1077 
Q 1086 777 1318 593 
Q 1550 409 1909 409 
z
" id="Inter-Regular-6f" transform="scale(0.015625)"/>
        <path d="M 3346 3491 
L 2055 0 
L 1509 0 
L 218 3491 
L 800 3491 
L 1764 709 
L 1800 709 
L 2764 3491 
L 3346 3491 
z
" id="Inter-Regular-76" transform="scale(0.015625)"/>
       </defs>
       <use xlink:href="#Inter-Regular-30"/>
       <use x="62.500015" xlink:href="#Inter-Regular-31"/>
       <use x="106.676163" xlink:href="#Inter-Regular-20"/>
       <use x="134.801163" xlink:href="#Inter-Regular-4e"/>
       <use x="210.085266" xlink:href="#Inter-Regular-6f"/>
       <use x="269.74437" xlink:href="#Inter-Regular-76"/>
      </g>
     </g>
    </g>
    <g id="xtick_10">
     <g id="line2d_10">
      <g>
       <use style="stroke:#000000;stroke-width:0.8;" x="406.17857" xlink:href="#m56487112e0" y="476.745"/>
      </g>
     </g>
    </g>
    <g id="xtick_11">
     <g id="line2d_11">
      <g>
       <use style="stroke:#000000;stroke-width:0.8;" x="445.968353" xlink:href="#m56487112e0" y="476.745"/>
      </g>
     </g>
     <g id="text_6">
      <!-- 01 Jan -->
      <g transform="translate(430.769135 491.018437)scale(0.1 -0.1)">
       <defs>
        <path d="M 1027 2100 
L 1027 0 
L 491 0 
L 491 3491 
L 1009 3491 
L 1009 2945 
L 1055 2945 
Q 1177 3211 1427 3373 
Q 1677 3536 2073 3536 
Q 2602 3536 2928 3211 
Q 3255 2886 3255 2218 
L 3255 0 
L 2718 0 
L 2718 2182 
Q 2718 2593 2504 2824 
Q 2291 3055 1918 3055 
Q 1534 3055 1280 2806 
Q 1027 2557 1027 2100 
z
" id="Inter-Regular-6e" transform="scale(0.015625)"/>
       </defs>
       <use xlink:href="#Inter-Regular-30"/>
       <use x="62.500015" xlink:href="#Inter-Regular-31"/>
       <use x="106.676163" xlink:href="#Inter-Regular-20"/>
       <use x="134.801163" xlink:href="#Inter-Regular-4a"/>
       <use x="189.062531" xlink:href="#Inter-Regular-61"/>
       <use x="245.45459" xlink:href="#Inter-Regular-6e"/>
      </g>
     </g>
    </g>
    <g id="xtick_12">
     <g id="line2d_12">
      <g>
       <use style="stroke:#000000;stroke-width:0.8;" x="485.758137" xlink:href="#m56487112e0" y="476.745"/>
      </g>
     </g>
    </g>
    <g id="xtick_13">
     <g id="line2d_13">
      <g>
       <use style="stroke:#000000;stroke-width:0.8;" x="521.697296" xlink:href="#m56487112e0" y="476.745"/>
      </g>
     </g>
     <g id="text_7">
      <!-- 01 Mar -->
      <g transform="translate(505.660577 491.018437)scale(0.1 -0.1)">
       <use xlink:href="#Inter-Regular-30"/>
       <use x="62.500015" xlink:href="#Inter-Regular-31"/>
       <use x="106.676163" xlink:href="#Inter-Regular-20"/>
       <use x="134.801163" xlink:href="#Inter-Regular-4d"/>
       <use x="225.99437" xlink:href="#Inter-Regular-61"/>
       <use x="282.386429" xlink:href="#Inter-Regular-72"/>
      </g>
     </g>
    </g>
    <g id="xtick_14">
     <g id="line2d_14">
      <g>
       <use style="stroke:#000000;stroke-width:0.8;" x="561.487079" xlink:href="#m56487112e0" y="476.745"/>
      </g>
     </g>
    </g>
    <g id="xtick_15">
     <g id="line2d_15">
      <g>
       <use style="stroke:#000000;stroke-width:0.8;" x="599.99332" xlink:href="#m56487112e0" y="476.745"/>
      </g>
     </g>
     <g id="text_8">
      <!-- 01 May -->
      <g transform="translate(583.090195 491.116875)scale(0.1 -0.1)">
       <use xlink:href="#Inter-Regular-30"/>
       <use x="62.500015" xlink:href="#Inter-Regular-31"/>
       <use x="106.676163" xlink:href="#Inter-Regular-20"/>
       <use x="134.801163" xlink:href="#Inter-Regular-4d"/>
       <use x="225.99437" xlink:href="#Inter-Regular-61"/>
       <use x="282.386429" xlink:href="#Inter-Regular-79"/>
      </g>
     </g>
    </g>
    <g id="xtick_16">
     <g id="line2d_16">
      <g>
       <use style="stroke:#000000;stroke-width:0.8;" x="639.783104" xlink:href="#m56487112e0" y="476.745"/>
      </g>
     </g>
    </g>
    <g id="xtick_17">
     <g id="line2d_17">
      <g>
       <use style="stroke:#000000;stroke-width:0.8;" x="678.289345" xlink:href="#m56487112e0" y="476.745"/>
      </g>
     </g>
     <g id="text_9">
      <!-- 01 Jul -->
      <g transform="translate(664.745595 491.018437)scale(0.1 -0.1)">
       <use xlink:href="#Inter-Regular-30"/>
       <use x="62.500015" xlink:href="#Inter-Regular-31"/>
       <use x="106.676163" xlink:href="#Inter-Regular-20"/>
       <use x="134.801163" xlink:href="#Inter-Regular-4a"/>
       <use x="189.062531" xlink:href="#Inter-Regular-75"/>
       <use x="247.159134" xlink:href="#Inter-Regular-6c"/>
      </g>
     </g>
    </g>
    <g id="xtick_18">
     <g id="line2d_18">
      <g>
       <use style="stroke:#000000;stroke-width:0.8;" x="718.079128" xlink:href="#m56487112e0" y="476.745"/>
      </g>
     </g>
    </g>
   </g>
   <g id="matplotlib.axis_2">
    <g id="ytick_1">
     <g id="line2d_19">
      <path clip-path="url(#ped5f54f19a)" d="M 53.204688 476.745 
L 722.804688 476.745 
" style="fill:none;stroke:#e5e5e5;stroke-linecap:square;stroke-width:0.8;"/>
     </g>
     <g id="line2d_20">
      <defs>
       <path d="M 0 0 
L -3.5 0 
" id="mef1f19a664" style="stroke:#000000;stroke-width:0.8;"/>
      </defs>
      <g>
       <use style="stroke:#000000;stroke-width:0.8;" x="53.204688" xlink:href="#mef1f19a664" y="476.745"/>
      </g>
     </g>
     <g id="text_10">
      <!-- 0% -->
      <g transform="translate(31.829688 480.381719)scale(0.1 -0.1)">
       <defs>
        <path d="M 2855 873 
L 2855 1118 
Q 2855 1373 2960 1585 
Q 3066 1798 3269 1926 
Q 3473 2055 3764 2055 
Q 4059 2055 4259 1926 
Q 4459 1798 4561 1585 
Q 4664 1373 4664 1118 
L 4664 873 
Q 4664 618 4560 405 
Q 4457 193 4256 64 
Q 4055 -64 3764 -64 
Q 3468 -64 3266 64 
Q 3064 193 2959 405 
Q 2855 618 2855 873 
z
M 536 3536 
L 536 3782 
Q 536 4036 642 4248 
Q 748 4461 951 4589 
Q 1155 4718 1446 4718 
Q 1741 4718 1941 4589 
Q 2141 4461 2243 4248 
Q 2346 4036 2346 3782 
L 2346 3536 
Q 2346 3282 2242 3069 
Q 2139 2857 1937 2728 
Q 1736 2600 1446 2600 
Q 1150 2600 948 2728 
Q 746 2857 641 3069 
Q 536 3282 536 3536 
z
M 709 0 
L 3909 4655 
L 4427 4655 
L 1227 0 
L 709 0 
z
M 3318 1118 
L 3318 873 
Q 3318 661 3418 494 
Q 3518 327 3764 327 
Q 4002 327 4101 494 
Q 4200 661 4200 873 
L 4200 1118 
Q 4200 1330 4104 1497 
Q 4009 1664 3764 1664 
Q 3525 1664 3421 1497 
Q 3318 1330 3318 1118 
z
M 1000 3782 
L 1000 3536 
Q 1000 3325 1100 3158 
Q 1200 2991 1446 2991 
Q 1684 2991 1783 3158 
Q 1882 3325 1882 3536 
L 1882 3782 
Q 1882 3993 1786 4160 
Q 1691 4327 1446 4327 
Q 1207 4327 1103 4160 
Q 1000 3993 1000 3782 
z
" id="Inter-Regular-25" transform="scale(0.015625)"/>
       </defs>
       <use xlink:href="#Inter-Regular-30"/>
       <use x="62.500015" xlink:href="#Inter-Regular-25"/>
      </g>
     </g>
    </g>
    <g id="ytick_2">
     <g id="line2d_21">
      <path clip-path="url(#ped5f54f19a)" d="M 53.204688 384.533921 
L 722.804688 384.533921 
" style="fill:none;stroke:#e5e5e5;stroke-linecap:square;stroke-width:0.8;"/>
     </g>
     <g id="line2d_22">
      <g>
       <use style="stroke:#000000;stroke-width:0.8;" x="53.204688" xlink:href="#mef1f19a664" y="384.533921"/>
      </g>
     </g>
     <g id="text_11">
      <!-- 2% -->
      <g transform="translate(32.028125 388.17064)scale(0.1 -0.1)">
       <defs>
        <path d="M 482 0 
L 482 409 
L 2018 2091 
Q 2289 2386 2464 2605 
Q 2639 2825 2724 3019 
Q 2809 3214 2809 3427 
Q 2809 3795 2553 4011 
Q 2298 4227 1918 4227 
Q 1514 4227 1275 3985 
Q 1036 3743 1036 3345 
L 500 3345 
Q 500 3755 688 4064 
Q 877 4373 1203 4545 
Q 1530 4718 1936 4718 
Q 2346 4718 2661 4545 
Q 2977 4373 3156 4079 
Q 3336 3786 3336 3427 
Q 3336 3170 3244 2926 
Q 3152 2682 2926 2383 
Q 2700 2084 2300 1655 
L 1255 536 
L 1255 500 
L 3418 500 
L 3418 0 
L 482 0 
z
" id="Inter-Regular-32" transform="scale(0.015625)"/>
       </defs>
       <use xlink:href="#Inter-Regular-32"/>
       <use x="60.511383" xlink:href="#Inter-Regular-25"/>
      </g>
     </g>
    </g>
    <g id="ytick_3">
     <g id="line2d_23">
      <path clip-path="url(#ped5f54f19a)" d="M 53.204688 292.322843 
L 722.804688 292.322843 
" style="fill:none;stroke:#e5e5e5;stroke-linecap:square;stroke-width:0.8;"/>
     </g>
     <g id="line2d_24">
      <g>
       <use style="stroke:#000000;stroke-width:0.8;" x="53.204688" xlink:href="#mef1f19a664" y="292.322843"/>
      </g>
     </g>
     <g id="text_12">
      <!-- 4% -->
      <g transform="translate(31.659375 295.959561)scale(0.1 -0.1)">
       <defs>
        <path d="M 373 955 
L 373 1418 
L 2418 4655 
L 3100 4655 
L 3100 1455 
L 3736 1455 
L 3736 955 
L 3100 955 
L 3100 0 
L 2564 0 
L 2564 955 
L 373 955 
z
M 2564 1455 
L 2564 3936 
L 2527 3936 
L 982 1491 
L 982 1455 
L 2564 1455 
z
" id="Inter-Regular-34" transform="scale(0.015625)"/>
       </defs>
       <use xlink:href="#Inter-Regular-34"/>
       <use x="64.204559" xlink:href="#Inter-Regular-25"/>
      </g>
     </g>
    </g>
    <g id="ytick_4">
     <g id="line2d_25">
      <path clip-path="url(#ped5f54f19a)" d="M 53.204688 200.111764 
L 722.804688 200.111764 
" style="fill:none;stroke:#e5e5e5;stroke-linecap:square;stroke-width:0.8;"/>
     </g>
     <g id="line2d_26">
      <g>
       <use style="stroke:#000000;stroke-width:0.8;" x="53.204688" xlink:href="#mef1f19a664" y="200.111764"/>
      </g>
     </g>
     <g id="text_13">
      <!-- 6% -->
      <g transform="translate(31.84375 203.748483)scale(0.1 -0.1)">
       <defs>
        <path d="M 2027 -64 
Q 1741 -59 1454 45 
Q 1168 150 932 399 
Q 696 648 552 1074 
Q 409 1500 409 2145 
Q 409 3386 861 4056 
Q 1314 4727 2100 4727 
Q 2686 4727 3073 4384 
Q 3461 4041 3546 3491 
L 2991 3491 
Q 2914 3811 2691 4019 
Q 2468 4227 2100 4227 
Q 1559 4227 1249 3755 
Q 939 3284 936 2427 
L 973 2427 
Q 1164 2716 1461 2880 
Q 1759 3045 2118 3045 
Q 2518 3045 2850 2846 
Q 3182 2648 3382 2299 
Q 3582 1950 3582 1500 
Q 3582 1068 3389 710 
Q 3196 352 2847 142 
Q 2498 -68 2027 -64 
z
M 2027 436 
Q 2314 436 2542 579 
Q 2771 723 2903 964 
Q 3036 1205 3036 1500 
Q 3036 1789 2908 2026 
Q 2780 2264 2556 2404 
Q 2332 2545 2046 2545 
Q 1757 2545 1525 2397 
Q 1293 2250 1157 2010 
Q 1021 1770 1018 1491 
Q 1018 1214 1149 973 
Q 1280 732 1508 584 
Q 1736 436 2027 436 
z
" id="Inter-Regular-36" transform="scale(0.015625)"/>
       </defs>
       <use xlink:href="#Inter-Regular-36"/>
       <use x="62.357971" xlink:href="#Inter-Regular-25"/>
      </g>
     </g>
    </g>
    <g id="ytick_5">
     <g id="line2d_27">
      <path clip-path="url(#ped5f54f19a)" d="M 53.204688 107.900685 
L 722.804688 107.900685 
" style="fill:none;stroke:#e5e5e5;stroke-linecap:square;stroke-width:0.8;"/>
     </g>
     <g id="line2d_28">
      <g>
       <use style="stroke:#000000;stroke-width:0.8;" x="53.204688" xlink:href="#mef1f19a664" y="107.900685"/>
      </g>
     </g>
     <g id="text_14">
      <!-- 8% -->
      <g transform="translate(31.914063 111.537404)scale(0.1 -0.1)">
       <defs>
        <path d="M 1973 -64 
Q 1505 -64 1147 103 
Q 789 270 589 564 
Q 389 859 391 1236 
Q 389 1532 507 1783 
Q 625 2034 830 2203 
Q 1036 2373 1291 2418 
L 1291 2445 
Q 957 2532 759 2821 
Q 561 3111 564 3482 
Q 561 3836 743 4115 
Q 925 4395 1244 4556 
Q 1564 4718 1973 4718 
Q 2377 4718 2695 4556 
Q 3014 4395 3197 4115 
Q 3380 3836 3382 3482 
Q 3380 3111 3181 2821 
Q 2982 2532 2655 2445 
L 2655 2418 
Q 2907 2373 3109 2203 
Q 3311 2034 3431 1783 
Q 3552 1532 3555 1236 
Q 3552 859 3351 564 
Q 3150 270 2794 103 
Q 2439 -64 1973 -64 
z
M 1973 436 
Q 2446 436 2722 662 
Q 2998 889 3000 1264 
Q 2998 1527 2864 1729 
Q 2730 1932 2499 2048 
Q 2268 2164 1973 2164 
Q 1675 2164 1442 2048 
Q 1209 1932 1076 1729 
Q 943 1527 946 1264 
Q 943 889 1218 662 
Q 1493 436 1973 436 
z
M 1973 2645 
Q 2348 2645 2591 2864 
Q 2834 3084 2836 3445 
Q 2834 3800 2596 4013 
Q 2359 4227 1973 4227 
Q 1582 4227 1344 4013 
Q 1107 3800 1109 3445 
Q 1107 3084 1349 2864 
Q 1591 2645 1973 2645 
z
" id="Inter-Regular-38" transform="scale(0.015625)"/>
       </defs>
       <use xlink:href="#Inter-Regular-38"/>
       <use x="61.647736" xlink:href="#Inter-Regular-25"/>
      </g>
     </g>
    </g>
    <g id="text_15">
     <!-- Percent of nation tested positive -->
     <g transform="translate(25.614063 332.215469)rotate(-90)scale(0.1 -0.1)">
      <defs>
       <path d="M 564 0 
L 564 4655 
L 2136 4655 
Q 2684 4655 3033 4458 
Q 3382 4261 3550 3927 
Q 3718 3593 3718 3182 
Q 3718 2770 3551 2434 
Q 3384 2098 3036 1899 
Q 2689 1700 2146 1700 
L 1127 1700 
L 1127 0 
L 564 0 
z
M 1127 2200 
L 2127 2200 
Q 2689 2200 2926 2482 
Q 3164 2764 3164 3182 
Q 3164 3602 2925 3878 
Q 2686 4155 2118 4155 
L 1127 4155 
L 1127 2200 
z
" id="Inter-Regular-50" transform="scale(0.015625)"/>
       <path d="M 1909 -73 
Q 1418 -73 1063 159 
Q 709 391 518 798 
Q 327 1205 327 1727 
Q 327 2259 524 2667 
Q 721 3075 1074 3305 
Q 1427 3536 1900 3536 
Q 2268 3536 2563 3400 
Q 2859 3264 3047 3018 
Q 3236 2773 3282 2445 
L 2746 2445 
Q 2684 2684 2474 2869 
Q 2264 3055 1909 3055 
Q 1439 3055 1151 2697 
Q 864 2339 864 1745 
Q 864 1139 1148 774 
Q 1432 409 1909 409 
Q 2223 409 2447 570 
Q 2671 732 2746 1018 
L 3282 1018 
Q 3236 709 3058 462 
Q 2880 216 2588 71 
Q 2296 -73 1909 -73 
z
" id="Inter-Regular-63" transform="scale(0.015625)"/>
       <path d="M 2009 3491 
L 2009 3036 
L 1264 3036 
L 1264 1000 
Q 1264 773 1331 660 
Q 1398 548 1503 510 
Q 1609 473 1727 473 
Q 1816 473 1873 483 
Q 1930 493 1964 500 
L 2073 18 
Q 2018 -2 1920 -23 
Q 1823 -45 1673 -45 
Q 1446 -45 1228 52 
Q 1011 150 869 350 
Q 727 550 727 855 
L 727 3036 
L 200 3036 
L 200 3491 
L 727 3491 
L 727 4327 
L 1264 4327 
L 1264 3491 
L 2009 3491 
z
" id="Inter-Regular-74" transform="scale(0.015625)"/>
       <path d="M 2046 3491 
L 2046 3036 
L 1264 3036 
L 1264 0 
L 727 0 
L 727 3036 
L 164 3036 
L 164 3491 
L 727 3491 
L 727 3973 
Q 727 4273 868 4473 
Q 1009 4673 1234 4773 
Q 1459 4873 1709 4873 
Q 1907 4873 2032 4841 
Q 2157 4809 2218 4782 
L 2064 4318 
Q 2023 4332 1951 4352 
Q 1880 4373 1764 4373 
Q 1498 4373 1381 4239 
Q 1264 4105 1264 3845 
L 1264 3491 
L 2046 3491 
z
" id="Inter-Regular-66" transform="scale(0.015625)"/>
       <path d="M 491 0 
L 491 3491 
L 1027 3491 
L 1027 0 
L 491 0 
z
M 764 4073 
Q 607 4073 494 4179 
Q 382 4286 382 4436 
Q 382 4586 494 4693 
Q 607 4800 764 4800 
Q 921 4800 1033 4693 
Q 1146 4586 1146 4436 
Q 1146 4286 1033 4179 
Q 921 4073 764 4073 
z
" id="Inter-Regular-69" transform="scale(0.015625)"/>
       <path d="M 2964 2709 
L 2482 2573 
Q 2411 2755 2245 2914 
Q 2080 3073 1727 3073 
Q 1407 3073 1194 2926 
Q 982 2780 982 2555 
Q 982 2355 1127 2239 
Q 1273 2123 1582 2045 
L 2100 1918 
Q 3027 1691 3027 973 
Q 3027 673 2855 436 
Q 2684 200 2377 63 
Q 2071 -73 1664 -73 
Q 1130 -73 780 159 
Q 430 391 336 836 
L 846 964 
Q 989 400 1655 400 
Q 2030 400 2251 560 
Q 2473 720 2473 945 
Q 2473 1316 1955 1436 
L 1373 1573 
Q 893 1686 669 1926 
Q 446 2166 446 2527 
Q 446 2823 613 3050 
Q 780 3277 1069 3406 
Q 1359 3536 1727 3536 
Q 2246 3536 2542 3309 
Q 2839 3082 2964 2709 
z
" id="Inter-Regular-73" transform="scale(0.015625)"/>
       <path d="M 1809 -73 
Q 1373 -73 1039 148 
Q 705 370 516 776 
Q 327 1182 327 1736 
Q 327 2286 516 2690 
Q 705 3095 1041 3315 
Q 1377 3536 1818 3536 
Q 2159 3536 2358 3423 
Q 2557 3311 2662 3169 
Q 2768 3027 2827 2936 
L 2873 2936 
L 2873 4655 
L 3409 4655 
L 3409 0 
L 2891 0 
L 2891 536 
L 2827 536 
Q 2768 441 2659 296 
Q 2550 152 2348 39 
Q 2146 -73 1809 -73 
z
M 1882 409 
Q 2366 409 2624 780 
Q 2882 1152 2882 1745 
Q 2882 2332 2627 2693 
Q 2373 3055 1882 3055 
Q 1541 3055 1315 2881 
Q 1089 2707 976 2410 
Q 864 2114 864 1745 
Q 864 1373 978 1069 
Q 1093 766 1319 587 
Q 1546 409 1882 409 
z
" id="Inter-Regular-64" transform="scale(0.015625)"/>
      </defs>
      <use xlink:href="#Inter-Regular-50"/>
      <use x="63.494324" xlink:href="#Inter-Regular-65"/>
      <use x="121.732971" xlink:href="#Inter-Regular-72"/>
      <use x="160.085251" xlink:href="#Inter-Regular-63"/>
      <use x="215.909119" xlink:href="#Inter-Regular-65"/>
      <use x="274.147766" xlink:href="#Inter-Regular-6e"/>
      <use x="332.670502" xlink:href="#Inter-Regular-74"/>
      <use x="369.034149" xlink:href="#Inter-Regular-20"/>
      <use x="397.159149" xlink:href="#Inter-Regular-6f"/>
      <use x="456.818253" xlink:href="#Inter-Regular-66"/>
      <use x="492.897797" xlink:href="#Inter-Regular-20"/>
      <use x="521.022797" xlink:href="#Inter-Regular-6e"/>
      <use x="579.545532" xlink:href="#Inter-Regular-61"/>
      <use x="635.937592" xlink:href="#Inter-Regular-74"/>
      <use x="672.301239" xlink:href="#Inter-Regular-69"/>
      <use x="696.022827" xlink:href="#Inter-Regular-6f"/>
      <use x="755.681931" xlink:href="#Inter-Regular-6e"/>
      <use x="814.204666" xlink:href="#Inter-Regular-20"/>
      <use x="842.329666" xlink:href="#Inter-Regular-74"/>
      <use x="878.693314" xlink:href="#Inter-Regular-65"/>
      <use x="936.931961" xlink:href="#Inter-Regular-73"/>
      <use x="989.204697" xlink:href="#Inter-Regular-74"/>
      <use x="1025.568344" xlink:href="#Inter-Regular-65"/>
      <use x="1083.806992" xlink:href="#Inter-Regular-64"/>
      <use x="1145.880875" xlink:href="#Inter-Regular-20"/>
      <use x="1174.005875" xlink:href="#Inter-Regular-70"/>
      <use x="1234.94339" xlink:href="#Inter-Regular-6f"/>
      <use x="1294.602493" xlink:href="#Inter-Regular-73"/>
      <use x="1346.875229" xlink:href="#Inter-Regular-69"/>
      <use x="1370.596817" xlink:href="#Inter-Regular-74"/>
      <use x="1406.960464" xlink:href="#Inter-Regular-69"/>
      <use x="1430.682053" xlink:href="#Inter-Regular-76"/>
      <use x="1486.363876" xlink:href="#Inter-Regular-65"/>
     </g>
    </g>
   </g>
   <g id="line2d_29">
    <path clip-path="url(#ped5f54f19a)" d="M 14.698446 476.744836 
L 72.457808 476.646788 
L 78.875515 476.396057 
L 82.72614 476.184233 
L 85.293222 475.943495 
L 94.278012 474.433128 
L 103.262802 472.27615 
L 107.113426 471.311559 
L 112.247592 470.233685 
L 116.098216 469.32119 
L 119.94884 468.624286 
L 125.083005 467.717852 
L 134.067795 466.498353 
L 149.470292 465.144682 
L 155.887999 464.782551 
L 166.15633 464.322699 
L 178.991744 463.968268 
L 186.692992 463.814766 
L 208.513196 463.510218 
L 213.647361 463.364334 
L 236.751107 462.541368 
L 263.705476 461.236271 
L 277.824431 460.377346 
L 282.958597 460.045768 
L 293.226928 459.219362 
L 295.794011 458.887374 
L 307.345883 456.972118 
L 316.330673 454.939646 
L 329.166087 450.771493 
L 330.449628 449.886357 
L 331.73317 448.140903 
L 333.016711 447.265677 
L 339.434418 442.14391 
L 342.001501 440.339398 
L 344.568583 437.845846 
L 345.852125 436.523875 
L 348.419208 434.437177 
L 350.98629 431.892266 
L 352.269832 430.433093 
L 353.553373 428.553386 
L 359.97108 421.331079 
L 363.821704 416.36609 
L 367.672329 411.427887 
L 370.239411 408.709241 
L 375.373577 401.735044 
L 379.224201 397.152009 
L 380.507742 395.516234 
L 381.791284 392.989836 
L 384.358367 388.989438 
L 385.641908 387.187547 
L 388.208991 384.159112 
L 389.492532 382.751134 
L 390.776074 381.089066 
L 394.626698 376.819179 
L 395.910239 375.72738 
L 397.193781 374.920223 
L 399.760863 372.419462 
L 402.327946 370.217679 
L 404.895029 368.503843 
L 406.17857 367.552194 
L 410.029194 364.380004 
L 416.446901 359.301323 
L 424.14815 350.738368 
L 429.282315 343.115676 
L 430.565857 340.481809 
L 431.849398 338.127507 
L 434.416481 332.67752 
L 435.700022 329.764662 
L 438.267105 324.615127 
L 439.550646 322.516634 
L 440.834188 319.52596 
L 445.968353 303.882978 
L 449.818978 291.655135 
L 452.38606 282.56295 
L 453.669602 278.72613 
L 454.953143 273.667516 
L 457.520226 265.103824 
L 462.654392 251.16149 
L 463.937933 247.005215 
L 466.505016 241.023867 
L 467.788557 238.227897 
L 469.072098 235.740161 
L 474.206264 224.514752 
L 475.489805 222.255631 
L 476.773347 220.605194 
L 478.056888 219.137339 
L 479.34043 217.260417 
L 481.907512 212.928031 
L 484.474595 209.639855 
L 492.175844 201.346635 
L 493.459385 200.161702 
L 496.026468 198.2625 
L 498.59355 196.333319 
L 501.160633 194.285857 
L 507.57834 190.27137 
L 510.145423 188.693753 
L 517.846671 184.616195 
L 520.413754 183.665447 
L 522.980837 182.824379 
L 529.398544 180.717695 
L 531.965627 179.997119 
L 534.532709 179.128283 
L 537.099792 178.303597 
L 540.950416 177.285518 
L 548.651665 175.009523 
L 552.502289 173.823115 
L 553.78583 173.391195 
L 561.487079 171.624117 
L 565.337703 170.994872 
L 589.724989 167.607091 
L 624.380607 163.506516 
L 635.932479 161.705362 
L 641.066645 160.763379 
L 646.200811 159.237612 
L 648.767893 158.405144 
L 655.1856 155.760301 
L 659.036224 154.058588 
L 662.886849 151.805201 
L 665.453931 150.450055 
L 666.737473 149.704988 
L 670.588097 146.483323 
L 671.871638 145.24351 
L 673.15518 144.296612 
L 677.005804 139.64428 
L 680.856428 134.184217 
L 682.13997 132.508798 
L 684.707052 128.529452 
L 687.274135 123.947563 
L 689.841218 118.953988 
L 692.408301 114.117928 
L 693.691842 111.42443 
L 694.975383 108.32039 
L 697.542466 100.794108 
L 698.826008 96.620304 
L 700.109549 92.952549 
L 701.39309 90.113739 
L 703.960173 83.334327 
L 706.527256 77.704463 
L 707.810797 75.331648 
L 709.094339 73.248309 
L 712.944963 67.773503 
L 715.512046 63.369526 
L 718.079128 59.63485 
L 720.646211 56.506892 
L 721.929753 54.345 
L 721.929753 54.345 
" style="fill:none;stroke:#5694ca;stroke-linecap:square;stroke-width:2;"/>
   </g>
   <g id="line2d_30">
    <path clip-path="url(#ped5f54f19a)" d="M 14.698446 476.745 
L 71.174267 476.645176 
L 80.159057 476.443094 
L 85.293222 476.167971 
L 87.860305 475.965889 
L 94.278012 474.870264 
L 96.845095 474.324886 
L 104.546343 472.885965 
L 107.113426 472.35763 
L 109.680509 471.965639 
L 114.814674 470.702018 
L 116.098216 470.314897 
L 117.381757 470.112816 
L 118.665298 470.039774 
L 125.083005 468.700676 
L 137.918419 467.17654 
L 148.18675 466.307344 
L 171.290496 465.24337 
L 178.991744 465.077809 
L 208.513196 464.848945 
L 229.049858 464.715035 
L 232.900482 464.668776 
L 244.452355 464.564083 
L 264.989017 464.106355 
L 267.5561 463.767928 
L 272.690266 463.424632 
L 276.54089 463.078902 
L 277.824431 462.78917 
L 280.391514 462.650391 
L 295.794011 460.449401 
L 297.077552 460.106105 
L 299.644635 459.889415 
L 304.7788 459.020219 
L 309.912966 457.885638 
L 311.196507 457.488779 
L 313.76359 456.519759 
L 315.047131 456.215419 
L 316.330673 456.032814 
L 320.181297 454.372334 
L 321.464838 453.595657 
L 324.031921 452.604725 
L 325.315463 451.825614 
L 326.599004 450.793291 
L 327.882545 450.162698 
L 329.166087 447.888667 
L 330.449628 446.121059 
L 331.73317 444.996217 
L 334.300252 441.867598 
L 335.583794 439.851648 
L 336.867335 437.604399 
L 338.150876 434.974898 
L 339.434418 432.778778 
L 340.717959 430.183364 
L 343.285042 425.946947 
L 344.568583 422.983889 
L 345.852125 421.126196 
L 347.135666 417.963491 
L 349.702749 412.989353 
L 350.98629 410.99288 
L 352.269832 408.769978 
L 354.836915 403.703321 
L 356.120456 400.655048 
L 358.687539 396.226287 
L 361.254622 392.698374 
L 363.821704 388.651865 
L 365.105246 387.273812 
L 367.672329 384.025892 
L 368.95587 382.825574 
L 370.239411 381.437782 
L 371.522953 379.784605 
L 372.806494 378.528288 
L 375.373577 375.794095 
L 377.94066 373.624757 
L 379.224201 372.373309 
L 380.507742 370.447444 
L 385.641908 365.242007 
L 386.925449 364.436114 
L 389.492532 361.838265 
L 390.776074 360.652555 
L 394.626698 358.052271 
L 395.910239 357.370548 
L 397.193781 357.178205 
L 398.477322 355.880498 
L 401.044405 353.852374 
L 404.895029 351.524779 
L 407.462112 349.559958 
L 412.596277 345.238326 
L 416.446901 342.241182 
L 417.730443 341.167469 
L 420.297526 338.69866 
L 421.581067 337.522689 
L 422.864608 336.502541 
L 425.431691 334.077557 
L 426.715233 332.480379 
L 427.998774 331.23867 
L 429.282315 329.680448 
L 433.132939 326.030799 
L 435.700022 322.06707 
L 436.983564 322.06707 
L 438.267105 319.637217 
L 439.550646 319.637217 
L 442.117729 311.846104 
L 443.401271 306.628494 
L 444.684812 301.931914 
L 445.968353 301.931914 
L 447.251895 293.225346 
L 451.102519 281.438853 
L 452.38606 276.605929 
L 456.236685 266.010016 
L 457.520226 263.302604 
L 458.803767 261.45465 
L 461.37085 255.733051 
L 463.937933 250.802738 
L 465.221474 249.086259 
L 466.505016 247.084917 
L 467.788557 245.526694 
L 469.072098 243.790737 
L 470.35564 241.587313 
L 471.639181 239.805096 
L 472.922723 237.699061 
L 474.206264 236.067797 
L 476.773347 233.986109 
L 480.623971 229.922557 
L 481.907512 228.293727 
L 484.474595 226.148737 
L 485.758137 225.384234 
L 489.608761 222.065707 
L 490.892302 220.833737 
L 493.459385 219.070998 
L 498.59355 216.24672 
L 499.877092 215.255787 
L 501.160633 214.518066 
L 502.444175 214.089555 
L 503.727716 213.51983 
L 507.57834 211.133802 
L 510.145423 209.69975 
L 511.428964 209.059418 
L 513.996047 208.056313 
L 517.846671 206.152359 
L 520.413754 205.373248 
L 522.980837 204.674483 
L 524.264378 204.124235 
L 533.249168 201.27561 
L 535.816251 200.226244 
L 547.368123 197.000237 
L 548.651665 196.788416 
L 553.78583 195.140109 
L 556.352913 194.521689 
L 557.636455 194.363432 
L 560.203537 193.696318 
L 564.054161 192.970771 
L 565.337703 192.970771 
L 571.75541 191.887319 
L 573.038951 191.53185 
L 578.173117 190.570134 
L 580.7402 189.893282 
L 592.292072 187.796985 
L 594.859155 187.353866 
L 601.276862 186.233893 
L 603.843945 185.875989 
L 607.694569 185.228353 
L 612.828734 184.390808 
L 616.679359 183.640914 
L 617.9629 183.640914 
L 623.097065 182.662155 
L 628.231231 181.851393 
L 632.081855 181.379056 
L 637.216021 180.672987 
L 639.783104 180.446558 
L 646.200811 179.470234 
L 648.767893 179.141546 
L 659.036224 177.054989 
L 662.886849 175.801107 
L 665.453931 175.172948 
L 669.304556 173.777852 
L 670.588097 173.220301 
L 673.15518 171.859291 
L 674.438721 171.345564 
L 675.722263 170.668712 
L 678.289345 168.961971 
L 679.572887 168.1366 
L 680.856428 167.016628 
L 682.13997 165.71892 
L 684.707052 163.681058 
L 687.274135 160.766695 
L 688.557676 159.293687 
L 689.841218 158.210236 
L 691.124759 156.737229 
L 693.691842 154.207552 
L 694.975383 152.659068 
L 696.258925 150.022263 
L 698.826008 143.248865 
L 700.109549 141.941419 
L 701.39309 137.617352 
L 702.676632 134.846637 
L 703.960173 130.042929 
L 707.810797 119.605273 
L 709.094339 116.527784 
L 710.37788 114.971996 
L 714.228504 103.908616 
L 718.079128 95.752296 
L 719.36267 93.629217 
L 721.929753 88.462736 
L 721.929753 88.462736 
" style="fill:none;stroke:#ffdd00;stroke-linecap:square;stroke-width:2;"/>
   </g>
   <g id="line2d_31">
    <path clip-path="url(#ped5f54f19a)" d="M 14.698446 476.745 
L 69.890726 476.642886 
L 81.442598 476.323887 
L 84.009681 476.138226 
L 90.427388 475.425963 
L 92.994471 474.795559 
L 95.561553 474.212415 
L 99.412178 473.402258 
L 101.97926 472.892534 
L 104.546343 472.293355 
L 107.113426 471.755782 
L 108.396967 471.624975 
L 110.96405 471.05027 
L 117.381757 469.613929 
L 118.665298 469.42658 
L 123.799464 468.262823 
L 126.366547 467.866184 
L 128.93363 467.433256 
L 132.784254 466.679641 
L 137.918419 466.0197 
L 143.052585 465.363979 
L 154.604457 464.377444 
L 162.305706 463.954643 
L 204.662572 463.257571 
L 248.302979 462.920849 
L 256.004227 462.735188 
L 275.257348 462.095501 
L 279.107972 461.865957 
L 285.525679 461.597592 
L 293.226928 460.877734 
L 299.644635 460.177285 
L 303.495259 459.707226 
L 304.7788 459.501311 
L 306.062342 459.442237 
L 316.330673 457.534992 
L 320.181297 456.261526 
L 321.464838 455.658971 
L 324.031921 455.181316 
L 325.315463 454.501122 
L 327.882545 453.397282 
L 334.300252 450.195474 
L 336.867335 448.439289 
L 338.150876 447.387773 
L 342.001501 444.918481 
L 344.568583 442.617972 
L 347.135666 440.468524 
L 348.419208 439.483677 
L 349.702749 439.217 
L 350.98629 438.378994 
L 352.269832 437.150255 
L 354.836915 434.237909 
L 358.687539 430.746638 
L 359.97108 429.799766 
L 362.538163 427.665509 
L 371.522953 420.879598 
L 374.090035 418.948724 
L 375.373577 417.601837 
L 376.657118 416.660873 
L 379.224201 415.189088 
L 384.358367 411.013403 
L 385.641908 410.035307 
L 386.925449 409.430221 
L 390.776074 406.391287 
L 393.343156 404.783631 
L 398.477322 401.877193 
L 399.760863 400.843398 
L 401.044405 400.025646 
L 403.611487 398.731082 
L 404.895029 398.419678 
L 406.17857 397.783367 
L 411.312736 394.701394 
L 415.16336 393.00344 
L 419.013984 390.61432 
L 420.297526 389.716396 
L 427.998774 385.775318 
L 429.282315 385.2926 
L 430.565857 384.504384 
L 431.849398 383.235138 
L 435.700022 380.011388 
L 438.267105 378.058571 
L 439.550646 377.434075 
L 440.834188 376.61801 
L 443.401271 373.29299 
L 445.968353 368.937551 
L 447.251895 367.134108 
L 448.535436 365.054704 
L 449.818978 363.447049 
L 451.102519 361.312791 
L 452.38606 359.592051 
L 453.669602 357.356523 
L 454.953143 355.407926 
L 465.221474 342.776226 
L 469.072098 339.455425 
L 471.639181 336.677261 
L 474.206264 334.325273 
L 475.489805 333.316796 
L 476.773347 332.682173 
L 478.056888 331.796908 
L 480.623971 329.660962 
L 483.191054 327.847391 
L 485.758137 326.285307 
L 487.041678 325.64562 
L 488.325219 324.820273 
L 489.608761 323.850616 
L 492.175844 322.34001 
L 493.459385 321.847165 
L 496.026468 320.370316 
L 499.877092 318.291756 
L 502.444175 316.763428 
L 503.727716 316.291681 
L 505.011257 315.639335 
L 506.294799 314.693308 
L 507.57834 314.115227 
L 511.428964 311.992784 
L 517.846671 309.023895 
L 528.115002 305.546127 
L 530.682085 304.7942 
L 531.965627 304.400936 
L 535.816251 302.743489 
L 537.099792 302.204229 
L 540.950416 300.907133 
L 546.084582 298.888491 
L 547.368123 298.439529 
L 548.651665 298.136564 
L 549.935206 297.718827 
L 553.78583 296.08501 
L 555.069372 295.609887 
L 565.337703 292.841006 
L 569.188327 292.16925 
L 571.75541 291.62155 
L 575.606034 291.005493 
L 593.575613 288.452654 
L 597.426238 288.018039 
L 602.560403 287.474558 
L 606.411027 287.046694 
L 616.679359 285.446633 
L 619.246441 284.851674 
L 621.813524 284.489635 
L 629.514772 282.54779 
L 630.798314 282.279425 
L 641.066645 278.561985 
L 642.350186 277.857317 
L 644.917269 276.294389 
L 647.484352 275.099407 
L 648.767893 274.512887 
L 650.051435 273.65969 
L 651.334976 273.039414 
L 655.1856 270.364207 
L 656.469142 269.721989 
L 659.036224 267.947238 
L 660.319766 266.835804 
L 661.603307 266.034086 
L 665.453931 262.941986 
L 666.737473 261.113225 
L 669.304556 256.076747 
L 670.588097 254.60243 
L 674.438721 247.209746 
L 675.722263 244.578423 
L 679.572887 234.498717 
L 680.856428 231.875833 
L 682.13997 229.575324 
L 684.707052 225.579393 
L 685.990594 222.373364 
L 687.274135 220.008718 
L 688.557676 217.294691 
L 693.691842 209.783015 
L 694.975383 207.558459 
L 700.109549 200.651025 
L 702.676632 198.061897 
L 706.527256 193.828826 
L 709.094339 191.681909 
L 711.661422 189.95695 
L 712.944963 188.961976 
L 715.512046 186.553446 
L 718.079128 184.821735 
L 719.36267 184.147448 
L 720.646211 183.290031 
L 721.929753 182.217417 
L 721.929753 182.217417 
" style="fill:none;stroke:#003078;stroke-linecap:square;stroke-width:2;"/>
   </g>
   <g id="line2d_32">
    <path clip-path="url(#ped5f54f19a)" d="M 14.698446 476.745 
L 69.890726 476.65726 
L 81.442598 476.133745 
L 82.72614 476.046006 
L 91.710929 474.459376 
L 94.278012 473.643395 
L 100.695719 471.202764 
L 101.97926 470.788924 
L 103.262802 470.765527 
L 104.546343 470.031437 
L 108.396967 468.539859 
L 110.96405 467.79407 
L 123.799464 463.722939 
L 126.366547 463.165791 
L 127.650088 462.82653 
L 130.217171 462.38783 
L 137.918419 460.995691 
L 140.485502 460.646194 
L 141.769044 460.473639 
L 143.052585 460.147539 
L 150.753833 458.979136 
L 154.604457 458.351796 
L 157.17154 457.948192 
L 164.872789 456.768091 
L 178.991744 455.681579 
L 189.260075 455.084947 
L 194.394241 454.796868 
L 196.961323 454.614077 
L 208.513196 453.777623 
L 217.497986 453.546575 
L 236.751107 453.186841 
L 245.735896 452.838806 
L 252.153603 452.667714 
L 288.092762 451.68064 
L 295.794011 451.14104 
L 303.495259 449.902445 
L 311.196507 448.429877 
L 316.330673 447.075758 
L 318.897756 445.99802 
L 321.464838 444.989011 
L 327.882545 442.356815 
L 329.166087 441.681218 
L 330.449628 440.838915 
L 331.73317 440.207188 
L 333.016711 439.335638 
L 334.300252 438.714147 
L 335.583794 437.614474 
L 336.867335 436.681507 
L 338.150876 435.561361 
L 339.434418 434.644479 
L 342.001501 433.249415 
L 343.285042 432.132194 
L 344.568583 430.748828 
L 345.852125 429.685713 
L 347.135666 428.254091 
L 348.419208 427.26848 
L 349.702749 425.879265 
L 350.98629 424.963845 
L 352.269832 423.285089 
L 353.553373 421.878326 
L 354.836915 420.220042 
L 356.120456 419.107208 
L 357.403997 417.171081 
L 359.97108 413.863288 
L 361.254622 412.098254 
L 363.821704 408.019812 
L 365.105246 405.479742 
L 366.388787 403.577249 
L 367.672329 402.379599 
L 368.95587 399.972602 
L 371.522953 396.578531 
L 374.090035 392.741373 
L 375.373577 391.34046 
L 376.657118 390.252485 
L 377.94066 388.891055 
L 379.224201 388.24178 
L 381.791284 385.616895 
L 383.074825 384.451417 
L 384.358367 383.087061 
L 385.641908 381.137774 
L 386.925449 379.833374 
L 389.492532 377.869463 
L 393.343156 373.359633 
L 395.910239 370.87367 
L 397.193781 370.003582 
L 398.477322 368.677248 
L 399.760863 366.847871 
L 401.044405 365.231995 
L 402.327946 363.118926 
L 403.611487 361.650745 
L 404.895029 360.477956 
L 406.17857 359.502581 
L 410.029194 353.033227 
L 411.312736 350.627691 
L 413.879819 344.870493 
L 415.16336 343.729874 
L 416.446901 340.457177 
L 417.730443 337.579308 
L 419.013984 334.31246 
L 420.297526 330.665406 
L 421.581067 330.665406 
L 422.864608 328.869663 
L 425.431691 327.195293 
L 426.715233 310.425277 
L 427.998774 306.329287 
L 429.282315 301.847241 
L 430.565857 298.434159 
L 433.132939 290.648707 
L 434.416481 286.242703 
L 435.700022 283.082604 
L 436.983564 283.082604 
L 438.267105 279.811369 
L 439.550646 273.754393 
L 440.834188 270.430513 
L 443.401271 263.424484 
L 444.684812 260.746955 
L 445.968353 260.746955 
L 447.251895 256.705071 
L 448.535436 250.83966 
L 451.102519 245.038591 
L 452.38606 241.765893 
L 453.669602 239.253608 
L 456.236685 232.146677 
L 458.803767 227.097247 
L 460.087309 225.149422 
L 462.654392 220.503595 
L 463.937933 217.8597 
L 466.505016 214.494875 
L 467.788557 212.54705 
L 469.072098 210.929711 
L 471.639181 207.367472 
L 472.922723 206.196145 
L 474.206264 204.618289 
L 476.773347 202.17912 
L 479.34043 200.560319 
L 480.623971 199.529376 
L 481.907512 198.730943 
L 483.191054 197.653205 
L 487.041678 194.949354 
L 488.325219 194.283993 
L 489.608761 193.488485 
L 490.892302 192.905015 
L 492.175844 191.917941 
L 493.459385 191.243806 
L 494.742926 190.351784 
L 498.59355 188.766617 
L 499.877092 187.877519 
L 503.727716 186.185602 
L 505.011257 185.783461 
L 506.294799 185.236549 
L 507.57834 184.812473 
L 508.861882 184.03305 
L 512.712506 182.544397 
L 513.996047 182.080838 
L 516.56313 181.27948 
L 517.846671 180.829082 
L 524.264378 179.343353 
L 526.831461 178.616575 
L 530.682085 177.869323 
L 533.249168 177.297552 
L 538.383334 176.110138 
L 539.666875 175.74748 
L 542.233958 175.327791 
L 543.517499 174.893479 
L 548.651665 173.789419 
L 551.218748 173.371192 
L 555.069372 172.467471 
L 557.636455 172.034621 
L 564.054161 171.395582 
L 565.337703 171.395582 
L 567.904786 170.934948 
L 571.75541 170.52842 
L 573.038951 170.338316 
L 583.307282 169.634935 
L 585.874365 169.408274 
L 594.859155 168.856975 
L 610.261652 168.165292 
L 612.828734 167.96934 
L 617.9629 167.771925 
L 625.664148 167.341999 
L 628.231231 167.274732 
L 629.514772 167.127037 
L 638.499562 166.882827 
L 642.350186 166.552341 
L 647.484352 166.204306 
L 648.767893 166.172134 
L 650.051435 165.846034 
L 652.618518 165.508236 
L 653.902059 165.508236 
L 655.1856 165.340068 
L 656.469142 164.978872 
L 659.036224 164.629375 
L 661.603307 164.186288 
L 662.886849 164.186288 
L 664.17039 163.928918 
L 665.453931 163.22115 
L 668.021014 162.653765 
L 669.304556 162.013264 
L 670.588097 161.521921 
L 671.871638 161.521921 
L 673.15518 160.913591 
L 674.438721 159.933829 
L 675.722263 159.522914 
L 679.572887 157.235827 
L 680.856428 157.235827 
L 682.13997 156.45348 
L 683.423511 154.616792 
L 688.557676 150.643637 
L 689.841218 150.643637 
L 691.124759 149.62293 
L 692.408301 147.882756 
L 693.691842 146.805017 
L 694.975383 145.145271 
L 696.258925 143.886204 
L 697.542466 142.302499 
L 698.826008 142.302499 
L 700.109549 140.676387 
L 701.39309 137.67422 
L 702.676632 136.862626 
L 703.960173 135.486572 
L 706.527256 133.341332 
L 707.810797 133.341332 
L 710.37788 129.878532 
L 711.661422 128.84905 
L 712.944963 127.989199 
L 714.228504 126.930471 
L 715.512046 125.72551 
L 716.795587 125.72551 
L 718.079128 124.674094 
L 719.36267 123.056756 
L 721.929753 121.318044 
L 721.929753 121.318044 
" style="fill:none;stroke:#d4351c;stroke-linecap:square;stroke-width:2;"/>
   </g>
   <g id="patch_3">
    <path d="M 53.204687 476.745 
L 722.804687 476.745 
" style="fill:none;stroke:#000000;stroke-linecap:square;stroke-linejoin:miter;stroke-width:0.8;"/>
   </g>
   <g id="text_16">
    <!-- Cumulative COVID-19 cases by date reported, per capita -->
    <g transform="translate(221.460625 27.225)scale(0.12 -0.12)">
     <defs>
      <path d="M 4511 3025 
L 3516 3025 
Q 3459 3409 3188 3628 
Q 2918 3848 2514 3848 
Q 1973 3848 1647 3451 
Q 1321 3055 1321 2327 
Q 1321 1582 1649 1194 
Q 1977 807 2507 807 
Q 2900 807 3173 1012 
Q 3446 1218 3516 1591 
L 4511 1586 
Q 4459 1159 4207 782 
Q 3955 405 3522 170 
Q 3089 -64 2491 -64 
Q 1868 -64 1378 218 
Q 889 500 606 1034 
Q 323 1568 323 2327 
Q 323 3089 609 3623 
Q 896 4157 1386 4437 
Q 1877 4718 2491 4718 
Q 3030 4718 3463 4519 
Q 3896 4320 4172 3942 
Q 4448 3564 4511 3025 
z
" id="Inter-Bold-43" transform="scale(0.015625)"/>
      <path d="M 2625 1486 
L 2625 3491 
L 3593 3491 
L 3593 0 
L 2664 0 
L 2664 634 
L 2627 634 
Q 2509 327 2235 141 
Q 1961 -45 1568 -45 
Q 1041 -45 715 306 
Q 389 657 386 1268 
L 386 3491 
L 1355 3491 
L 1355 1441 
Q 1357 1132 1520 952 
Q 1684 773 1959 773 
Q 2221 773 2424 954 
Q 2627 1136 2625 1486 
z
" id="Inter-Bold-75" transform="scale(0.015625)"/>
      <path d="M 386 0 
L 386 3491 
L 1309 3491 
L 1309 2875 
L 1350 2875 
Q 1459 3184 1715 3360 
Q 1971 3536 2323 3536 
Q 2682 3536 2934 3358 
Q 3186 3180 3271 2875 
L 3307 2875 
Q 3414 3175 3694 3355 
Q 3975 3536 4359 3536 
Q 4848 3536 5153 3226 
Q 5459 2916 5459 2348 
L 5459 0 
L 4493 0 
L 4493 2157 
Q 4493 2448 4338 2593 
Q 4184 2739 3952 2739 
Q 3689 2739 3541 2570 
Q 3393 2402 3393 2132 
L 3393 0 
L 2455 0 
L 2455 2177 
Q 2455 2434 2308 2586 
Q 2161 2739 1923 2739 
Q 1682 2739 1518 2562 
Q 1355 2386 1355 2095 
L 1355 0 
L 386 0 
z
" id="Inter-Bold-6d" transform="scale(0.015625)"/>
      <path d="M 1355 4655 
L 1355 0 
L 386 0 
L 386 4655 
L 1355 4655 
z
" id="Inter-Bold-6c" transform="scale(0.015625)"/>
      <path d="M 1382 -66 
Q 882 -66 552 195 
Q 223 457 223 975 
Q 223 1366 407 1588 
Q 591 1811 890 1914 
Q 1189 2018 1534 2050 
Q 1989 2095 2184 2145 
Q 2380 2195 2380 2364 
L 2380 2377 
Q 2380 2593 2244 2711 
Q 2109 2830 1861 2830 
Q 1600 2830 1445 2716 
Q 1291 2602 1241 2427 
L 346 2500 
Q 446 2977 842 3256 
Q 1239 3536 1866 3536 
Q 2255 3536 2593 3413 
Q 2932 3291 3140 3030 
Q 3348 2770 3348 2355 
L 3348 0 
L 2430 0 
L 2430 484 
L 2402 484 
Q 2275 241 2021 87 
Q 1768 -66 1382 -66 
z
M 1659 602 
Q 1977 602 2181 787 
Q 2386 973 2386 1248 
L 2386 1618 
Q 2330 1580 2210 1550 
Q 2091 1520 1956 1498 
Q 1821 1477 1714 1461 
Q 1459 1425 1303 1318 
Q 1148 1211 1148 1007 
Q 1148 807 1292 704 
Q 1436 602 1659 602 
z
" id="Inter-Bold-61" transform="scale(0.015625)"/>
      <path d="M 2243 3491 
L 2243 2764 
L 1586 2764 
L 1586 1073 
Q 1586 873 1677 802 
Q 1768 732 1914 732 
Q 1982 732 2050 744 
Q 2118 757 2155 764 
L 2307 43 
Q 2234 20 2102 -10 
Q 1971 -41 1782 -48 
Q 1255 -70 935 181 
Q 616 432 618 945 
L 618 2764 
L 141 2764 
L 141 3491 
L 618 3491 
L 618 4327 
L 1586 4327 
L 1586 3491 
L 2243 3491 
z
" id="Inter-Bold-74" transform="scale(0.015625)"/>
      <path d="M 386 0 
L 386 3491 
L 1355 3491 
L 1355 0 
L 386 0 
z
M 876 3941 
Q 662 3941 507 4085 
Q 353 4230 353 4432 
Q 353 4634 507 4777 
Q 662 4920 876 4920 
Q 1092 4920 1246 4777 
Q 1401 4634 1401 4432 
Q 1401 4230 1246 4085 
Q 1092 3941 876 3941 
z
" id="Inter-Bold-69" transform="scale(0.015625)"/>
      <path d="M 3641 3491 
L 2421 0 
L 1330 0 
L 109 3491 
L 1132 3491 
L 1857 993 
L 1893 993 
L 2616 3491 
L 3641 3491 
z
" id="Inter-Bold-76" transform="scale(0.015625)"/>
      <path d="M 1977 -68 
Q 1441 -68 1052 151 
Q 664 370 455 773 
Q 246 1177 246 1730 
Q 246 2268 455 2675 
Q 664 3082 1044 3309 
Q 1425 3536 1939 3536 
Q 2400 3536 2771 3340 
Q 3143 3145 3361 2751 
Q 3580 2357 3580 1764 
L 3580 1498 
L 1202 1498 
L 1202 1495 
Q 1202 1105 1416 880 
Q 1630 655 1993 655 
Q 2236 655 2413 757 
Q 2591 859 2664 1059 
L 3559 1000 
Q 3457 514 3041 223 
Q 2625 -68 1977 -68 
z
M 1202 2098 
L 2668 2098 
Q 2666 2409 2468 2611 
Q 2271 2814 1955 2814 
Q 1632 2814 1425 2604 
Q 1218 2395 1202 2098 
z
" id="Inter-Bold-65" transform="scale(0.015625)"/>
      <path id="Inter-Bold-20" transform="scale(0.015625)"/>
      <path d="M 4682 2327 
Q 4682 1566 4394 1032 
Q 4107 498 3614 217 
Q 3121 -64 2502 -64 
Q 1882 -64 1389 218 
Q 896 500 609 1035 
Q 323 1570 323 2327 
Q 323 3089 609 3623 
Q 896 4157 1389 4437 
Q 1882 4718 2502 4718 
Q 3121 4718 3614 4437 
Q 4107 4157 4394 3623 
Q 4682 3089 4682 2327 
z
M 3684 2327 
Q 3684 3068 3361 3458 
Q 3039 3848 2502 3848 
Q 1966 3848 1643 3458 
Q 1321 3068 1321 2327 
Q 1321 1589 1643 1198 
Q 1966 807 2502 807 
Q 3039 807 3361 1198 
Q 3684 1589 3684 2327 
z
" id="Inter-Bold-4f" transform="scale(0.015625)"/>
      <path d="M 1246 4655 
L 2371 1118 
L 2414 1118 
L 3541 4655 
L 4632 4655 
L 3027 0 
L 1759 0 
L 152 4655 
L 1246 4655 
z
" id="Inter-Bold-56" transform="scale(0.015625)"/>
      <path d="M 1389 4655 
L 1389 0 
L 405 0 
L 405 4655 
L 1389 4655 
z
" id="Inter-Bold-49" transform="scale(0.015625)"/>
      <path d="M 2055 0 
L 405 0 
L 405 4655 
L 2068 4655 
Q 2771 4655 3278 4376 
Q 3786 4098 4059 3577 
Q 4332 3057 4332 2332 
Q 4332 1605 4058 1082 
Q 3784 559 3274 279 
Q 2764 0 2055 0 
z
M 1389 843 
L 2014 843 
Q 2671 843 3010 1197 
Q 3350 1552 3350 2332 
Q 3350 3107 3010 3459 
Q 2671 3811 2016 3811 
L 1389 3811 
L 1389 843 
z
" id="Inter-Bold-44" transform="scale(0.015625)"/>
      <path d="M 2561 2295 
L 2561 1527 
L 439 1527 
L 439 2295 
L 2561 2295 
z
" id="Inter-Bold-2d" transform="scale(0.015625)"/>
      <path d="M 2305 4655 
L 2305 0 
L 1323 0 
L 1323 3450 
L 1280 3450 
Q 1205 3334 961 3219 
Q 718 3105 332 3105 
L 332 3886 
Q 632 3886 857 4019 
Q 1082 4152 1209 4333 
Q 1336 4514 1341 4655 
L 2305 4655 
z
" id="Inter-Bold-31" transform="scale(0.015625)"/>
      <path d="M 2061 4732 
Q 2421 4732 2753 4612 
Q 3086 4493 3348 4227 
Q 3611 3961 3766 3523 
Q 3921 3086 3921 2448 
Q 3921 1659 3686 1096 
Q 3452 534 3028 235 
Q 2605 -64 2027 -64 
Q 1561 -64 1204 117 
Q 848 298 631 610 
Q 414 923 368 1314 
L 1339 1314 
Q 1396 1059 1577 919 
Q 1759 780 2027 780 
Q 2482 780 2718 1176 
Q 2955 1573 2957 2264 
L 2925 2264 
Q 2771 1957 2453 1782 
Q 2136 1607 1752 1607 
Q 1341 1607 1016 1801 
Q 691 1995 506 2334 
Q 321 2673 323 3109 
Q 321 3582 539 3949 
Q 757 4316 1149 4525 
Q 1541 4734 2061 4732 
z
M 2068 3959 
Q 1725 3959 1500 3722 
Q 1275 3486 1277 3136 
Q 1275 2791 1496 2555 
Q 1718 2320 2059 2320 
Q 2284 2320 2465 2431 
Q 2646 2543 2751 2729 
Q 2857 2916 2859 3141 
Q 2857 3366 2753 3551 
Q 2650 3736 2473 3847 
Q 2296 3959 2068 3959 
z
" id="Inter-Bold-39" transform="scale(0.015625)"/>
      <path d="M 1964 -68 
Q 1427 -68 1042 160 
Q 657 389 451 795 
Q 246 1202 246 1732 
Q 246 2268 453 2674 
Q 661 3080 1045 3308 
Q 1430 3536 1959 3536 
Q 2416 3536 2760 3370 
Q 3105 3205 3303 2905 
Q 3502 2605 3523 2200 
L 2609 2200 
Q 2571 2461 2406 2621 
Q 2241 2782 1975 2782 
Q 1639 2782 1434 2511 
Q 1230 2241 1230 1745 
Q 1230 1245 1433 971 
Q 1636 698 1975 698 
Q 2225 698 2395 849 
Q 2566 1000 2609 1280 
L 3523 1280 
Q 3500 880 3305 575 
Q 3111 270 2770 101 
Q 2430 -68 1964 -68 
z
" id="Inter-Bold-63" transform="scale(0.015625)"/>
      <path d="M 3291 2495 
L 2405 2441 
Q 2368 2609 2220 2729 
Q 2073 2850 1821 2850 
Q 1596 2850 1440 2755 
Q 1284 2661 1286 2505 
Q 1284 2380 1385 2293 
Q 1486 2207 1730 2155 
L 2361 2027 
Q 3368 1820 3371 1082 
Q 3371 739 3169 479 
Q 2968 220 2618 76 
Q 2268 -68 1816 -68 
Q 1123 -68 711 221 
Q 300 511 232 1011 
L 1184 1061 
Q 1230 848 1394 739 
Q 1559 630 1818 630 
Q 2073 630 2228 730 
Q 2384 830 2386 984 
Q 2380 1243 1939 1332 
L 1334 1452 
Q 321 1655 325 2450 
Q 323 2955 728 3245 
Q 1134 3536 1805 3536 
Q 2466 3536 2846 3256 
Q 3227 2977 3291 2495 
z
" id="Inter-Bold-73" transform="scale(0.015625)"/>
      <path d="M 405 0 
L 405 4655 
L 1373 4655 
L 1373 2905 
L 1402 2905 
Q 1468 3048 1588 3193 
Q 1709 3339 1907 3437 
Q 2105 3536 2396 3536 
Q 2780 3536 3100 3337 
Q 3421 3139 3615 2740 
Q 3809 2341 3809 1741 
Q 3809 1157 3620 756 
Q 3432 355 3111 149 
Q 2791 -57 2393 -57 
Q 2111 -57 1914 36 
Q 1718 130 1594 272 
Q 1471 414 1402 559 
L 1359 559 
L 1359 0 
L 405 0 
z
M 1352 1745 
Q 1352 1280 1544 997 
Q 1736 714 2086 714 
Q 2443 714 2632 1001 
Q 2821 1289 2821 1745 
Q 2821 2200 2633 2483 
Q 2446 2766 2086 2766 
Q 1734 2766 1543 2490 
Q 1352 2214 1352 1745 
z
" id="Inter-Bold-62" transform="scale(0.015625)"/>
      <path d="M 950 -1359 
Q 743 -1359 596 -1324 
Q 450 -1289 368 -1252 
L 586 -502 
Q 843 -580 1019 -543 
Q 1196 -507 1298 -268 
L 1361 -100 
L 109 3491 
L 1127 3491 
L 1850 927 
L 1886 927 
L 2616 3491 
L 3641 3491 
L 2277 -400 
Q 2130 -818 1806 -1088 
Q 1482 -1359 950 -1359 
z
" id="Inter-Bold-79" transform="scale(0.015625)"/>
      <path d="M 1673 -57 
Q 1275 -57 954 149 
Q 634 355 445 756 
Q 257 1157 257 1741 
Q 257 2341 451 2740 
Q 646 3139 967 3337 
Q 1289 3536 1671 3536 
Q 1964 3536 2160 3437 
Q 2357 3339 2478 3193 
Q 2600 3048 2664 2905 
L 2693 2905 
L 2693 4655 
L 3659 4655 
L 3659 0 
L 2705 0 
L 2705 559 
L 2664 559 
Q 2598 414 2473 272 
Q 2348 130 2151 36 
Q 1955 -57 1673 -57 
z
M 1980 714 
Q 2330 714 2522 997 
Q 2714 1280 2714 1745 
Q 2714 2214 2523 2490 
Q 2332 2766 1980 2766 
Q 1621 2766 1433 2483 
Q 1246 2200 1246 1745 
Q 1246 1289 1434 1001 
Q 1623 714 1980 714 
z
" id="Inter-Bold-64" transform="scale(0.015625)"/>
      <path d="M 386 0 
L 386 3491 
L 1325 3491 
L 1325 2882 
L 1361 2882 
Q 1457 3207 1681 3374 
Q 1905 3541 2200 3541 
Q 2341 3541 2461 3507 
Q 2582 3473 2677 3414 
L 2386 2614 
Q 2318 2648 2237 2671 
Q 2157 2695 2057 2695 
Q 1764 2695 1560 2495 
Q 1357 2295 1355 1975 
L 1355 0 
L 386 0 
z
" id="Inter-Bold-72" transform="scale(0.015625)"/>
      <path d="M 386 -1309 
L 386 3491 
L 1341 3491 
L 1341 2905 
L 1384 2905 
Q 1450 3048 1570 3193 
Q 1691 3339 1888 3437 
Q 2086 3536 2377 3536 
Q 2761 3536 3081 3337 
Q 3402 3139 3596 2740 
Q 3791 2341 3791 1741 
Q 3791 1157 3602 756 
Q 3414 355 3093 149 
Q 2773 -57 2375 -57 
Q 2093 -57 1896 36 
Q 1700 130 1576 272 
Q 1452 414 1384 559 
L 1355 559 
L 1355 -1309 
L 386 -1309 
z
M 1334 1745 
Q 1334 1280 1526 997 
Q 1718 714 2068 714 
Q 2425 714 2613 1001 
Q 2802 1289 2802 1745 
Q 2802 2200 2614 2483 
Q 2427 2766 2068 2766 
Q 1716 2766 1525 2490 
Q 1334 2214 1334 1745 
z
" id="Inter-Bold-70" transform="scale(0.015625)"/>
      <path d="M 1964 -68 
Q 1434 -68 1049 158 
Q 664 384 455 789 
Q 246 1195 246 1732 
Q 246 2273 455 2678 
Q 664 3084 1049 3310 
Q 1434 3536 1964 3536 
Q 2493 3536 2878 3310 
Q 3264 3084 3473 2678 
Q 3682 2273 3682 1732 
Q 3682 1195 3473 789 
Q 3264 384 2878 158 
Q 2493 -68 1964 -68 
z
M 1968 682 
Q 2327 682 2512 982 
Q 2698 1282 2698 1739 
Q 2698 2195 2512 2496 
Q 2327 2798 1968 2798 
Q 1602 2798 1416 2496 
Q 1230 2195 1230 1739 
Q 1230 1282 1416 982 
Q 1602 682 1968 682 
z
" id="Inter-Bold-6f" transform="scale(0.015625)"/>
      <path d="M 1439 636 
L 1414 386 
Q 1384 86 1301 -212 
Q 1218 -511 1128 -754 
Q 1039 -998 984 -1136 
L 357 -1136 
Q 391 -1002 450 -763 
Q 509 -525 561 -226 
Q 614 73 627 382 
L 639 636 
L 1439 636 
z
" id="Inter-Bold-2c" transform="scale(0.015625)"/>
     </defs>
     <use xlink:href="#Inter-Bold-43"/>
     <use x="75.213089" xlink:href="#Inter-Bold-75"/>
     <use x="137.393494" xlink:href="#Inter-Bold-6d"/>
     <use x="228.5867" xlink:href="#Inter-Bold-75"/>
     <use x="290.767105" xlink:href="#Inter-Bold-6c"/>
     <use x="317.968811" xlink:href="#Inter-Bold-61"/>
     <use x="375.994385" xlink:href="#Inter-Bold-74"/>
     <use x="414.843826" xlink:href="#Inter-Bold-69"/>
     <use x="442.045532" xlink:href="#Inter-Bold-76"/>
     <use x="500.639297" xlink:href="#Inter-Bold-65"/>
     <use x="560.404938" xlink:href="#Inter-Bold-20"/>
     <use x="583.593857" xlink:href="#Inter-Bold-43"/>
     <use x="658.806946" xlink:href="#Inter-Bold-4f"/>
     <use x="737.002991" xlink:href="#Inter-Bold-56"/>
     <use x="811.789932" xlink:href="#Inter-Bold-49"/>
     <use x="839.843918" xlink:href="#Inter-Bold-44"/>
     <use x="912.571213" xlink:href="#Inter-Bold-2d"/>
     <use x="959.446228" xlink:href="#Inter-Bold-31"/>
     <use x="1006.853912" xlink:href="#Inter-Bold-39"/>
     <use x="1072.869553" xlink:href="#Inter-Bold-20"/>
     <use x="1096.058472" xlink:href="#Inter-Bold-63"/>
     <use x="1154.794281" xlink:href="#Inter-Bold-61"/>
     <use x="1212.819855" xlink:href="#Inter-Bold-73"/>
     <use x="1268.99884" xlink:href="#Inter-Bold-65"/>
     <use x="1328.764481" xlink:href="#Inter-Bold-73"/>
     <use x="1384.943466" xlink:href="#Inter-Bold-20"/>
     <use x="1408.132385" xlink:href="#Inter-Bold-62"/>
     <use x="1471.662231" xlink:href="#Inter-Bold-79"/>
     <use x="1530.255997" xlink:href="#Inter-Bold-20"/>
     <use x="1553.444916" xlink:href="#Inter-Bold-64"/>
     <use x="1616.974762" xlink:href="#Inter-Bold-61"/>
     <use x="1675.000336" xlink:href="#Inter-Bold-74"/>
     <use x="1713.849777" xlink:href="#Inter-Bold-65"/>
     <use x="1773.615417" xlink:href="#Inter-Bold-20"/>
     <use x="1796.804337" xlink:href="#Inter-Bold-72"/>
     <use x="1839.666565" xlink:href="#Inter-Bold-65"/>
     <use x="1899.432205" xlink:href="#Inter-Bold-70"/>
     <use x="1962.677963" xlink:href="#Inter-Bold-6f"/>
     <use x="2024.041611" xlink:href="#Inter-Bold-72"/>
     <use x="2066.903839" xlink:href="#Inter-Bold-74"/>
     <use x="2105.753281" xlink:href="#Inter-Bold-65"/>
     <use x="2165.518921" xlink:href="#Inter-Bold-64"/>
     <use x="2229.048767" xlink:href="#Inter-Bold-2c"/>
     <use x="2259.339966" xlink:href="#Inter-Bold-20"/>
     <use x="2282.528885" xlink:href="#Inter-Bold-70"/>
     <use x="2345.774643" xlink:href="#Inter-Bold-65"/>
     <use x="2405.540283" xlink:href="#Inter-Bold-72"/>
     <use x="2448.402512" xlink:href="#Inter-Bold-20"/>
     <use x="2471.591431" xlink:href="#Inter-Bold-63"/>
     <use x="2530.32724" xlink:href="#Inter-Bold-61"/>
     <use x="2588.352814" xlink:href="#Inter-Bold-70"/>
     <use x="2651.598572" xlink:href="#Inter-Bold-69"/>
     <use x="2678.800278" xlink:href="#Inter-Bold-74"/>
     <use x="2717.649719" xlink:href="#Inter-Bold-61"/>
    </g>
   </g>
   <g id="legend_1">
    <g id="patch_4">
     <path d="M 60.204688 98.614062 
L 169.778125 98.614062 
Q 171.778125 98.614062 171.778125 96.614062 
L 171.778125 40.225 
Q 171.778125 38.225 169.778125 38.225 
L 60.204688 38.225 
Q 58.204688 38.225 58.204688 40.225 
L 58.204688 96.614062 
Q 58.204688 98.614062 60.204688 98.614062 
z
" style="fill:#ffffff;opacity:0.8;stroke:#cccccc;stroke-linejoin:miter;"/>
    </g>
    <g id="line2d_33">
     <path d="M 62.204688 45.998437 
L 82.204688 45.998437 
" style="fill:none;stroke:#d4351c;stroke-linecap:square;stroke-width:2;"/>
    </g>
    <g id="line2d_34"/>
    <g id="text_17">
     <!-- Wales -->
     <g transform="translate(90.204688 49.498437)scale(0.1 -0.1)">
      <defs>
       <path d="M 1409 0 
L 136 4655 
L 709 4655 
L 1682 864 
L 1727 864 
L 2718 4655 
L 3355 4655 
L 4346 864 
L 4391 864 
L 5364 4655 
L 5936 4655 
L 4664 0 
L 4082 0 
L 3055 3709 
L 3018 3709 
L 1991 0 
L 1409 0 
z
" id="Inter-Regular-57" transform="scale(0.015625)"/>
      </defs>
      <use xlink:href="#Inter-Regular-57"/>
      <use x="94.886383" xlink:href="#Inter-Regular-61"/>
      <use x="151.278442" xlink:href="#Inter-Regular-6c"/>
      <use x="175.000031" xlink:href="#Inter-Regular-65"/>
      <use x="233.238678" xlink:href="#Inter-Regular-73"/>
     </g>
    </g>
    <g id="line2d_35">
     <path d="M 62.204688 60.317187 
L 82.204688 60.317187 
" style="fill:none;stroke:#003078;stroke-linecap:square;stroke-width:2;"/>
    </g>
    <g id="line2d_36"/>
    <g id="text_18">
     <!-- Scotland -->
     <g transform="translate(90.204688 63.817187)scale(0.1 -0.1)">
      <use xlink:href="#Inter-Regular-53"/>
      <use x="63.778427" xlink:href="#Inter-Regular-63"/>
      <use x="119.602295" xlink:href="#Inter-Regular-6f"/>
      <use x="179.261398" xlink:href="#Inter-Regular-74"/>
      <use x="215.625046" xlink:href="#Inter-Regular-6c"/>
      <use x="239.346634" xlink:href="#Inter-Regular-61"/>
      <use x="295.738693" xlink:href="#Inter-Regular-6e"/>
      <use x="354.261429" xlink:href="#Inter-Regular-64"/>
     </g>
    </g>
    <g id="line2d_37">
     <path d="M 62.204688 74.635937 
L 82.204688 74.635937 
" style="fill:none;stroke:#ffdd00;stroke-linecap:square;stroke-width:2;"/>
    </g>
    <g id="line2d_38"/>
    <g id="text_19">
     <!-- Northern Ireland -->
     <g transform="translate(90.204688 78.135937)scale(0.1 -0.1)">
      <defs>
       <path d="M 1027 2100 
L 1027 0 
L 491 0 
L 491 4655 
L 1027 4655 
L 1027 2945 
L 1073 2945 
Q 1196 3216 1442 3376 
Q 1689 3536 2100 3536 
Q 2636 3536 2963 3213 
Q 3291 2891 3291 2218 
L 3291 0 
L 2755 0 
L 2755 2182 
Q 2755 2598 2540 2826 
Q 2325 3055 1946 3055 
Q 1548 3055 1287 2806 
Q 1027 2557 1027 2100 
z
" id="Inter-Regular-68" transform="scale(0.015625)"/>
       <path d="M 1127 4655 
L 1127 0 
L 564 0 
L 564 4655 
L 1127 4655 
z
" id="Inter-Regular-49" transform="scale(0.015625)"/>
      </defs>
      <use xlink:href="#Inter-Regular-4e"/>
      <use x="75.284103" xlink:href="#Inter-Regular-6f"/>
      <use x="134.943207" xlink:href="#Inter-Regular-72"/>
      <use x="173.295486" xlink:href="#Inter-Regular-74"/>
      <use x="209.659134" xlink:href="#Inter-Regular-68"/>
      <use x="268.750061" xlink:href="#Inter-Regular-65"/>
      <use x="326.988708" xlink:href="#Inter-Regular-72"/>
      <use x="365.340988" xlink:href="#Inter-Regular-6e"/>
      <use x="423.863724" xlink:href="#Inter-Regular-20"/>
      <use x="451.988724" xlink:href="#Inter-Regular-49"/>
      <use x="478.40918" xlink:href="#Inter-Regular-72"/>
      <use x="516.761459" xlink:href="#Inter-Regular-65"/>
      <use x="575.000107" xlink:href="#Inter-Regular-6c"/>
      <use x="598.721695" xlink:href="#Inter-Regular-61"/>
      <use x="655.113754" xlink:href="#Inter-Regular-6e"/>
      <use x="713.63649" xlink:href="#Inter-Regular-64"/>
     </g>
    </g>
    <g id="line2d_39">
     <path d="M 62.204688 88.954687 
L 82.204688 88.954687 
" style="fill:none;stroke:#5694ca;stroke-linecap:square;stroke-width:2;"/>
    </g>
    <g id="line2d_40"/>
    <g id="text_20">
     <!-- England -->
     <g transform="translate(90.204688 92.454687)scale(0.1 -0.1)">
      <defs>
       <path d="M 564 0 
L 564 4655 
L 3373 4655 
L 3373 4155 
L 1127 4155 
L 1127 2582 
L 3227 2582 
L 3227 2082 
L 1127 2082 
L 1127 500 
L 3409 500 
L 3409 0 
L 564 0 
z
" id="Inter-Regular-45" transform="scale(0.015625)"/>
       <path d="M 1900 -1382 
Q 1316 -1382 976 -1169 
Q 636 -957 473 -682 
L 900 -382 
Q 973 -477 1084 -601 
Q 1196 -725 1390 -817 
Q 1584 -909 1900 -909 
Q 2323 -909 2598 -704 
Q 2873 -500 2873 -64 
L 2873 645 
L 2827 645 
Q 2768 550 2660 410 
Q 2552 270 2351 162 
Q 2150 55 1809 55 
Q 1386 55 1051 255 
Q 716 455 521 836 
Q 327 1218 327 1764 
Q 327 2300 516 2699 
Q 705 3098 1041 3317 
Q 1377 3536 1818 3536 
Q 2159 3536 2360 3423 
Q 2561 3311 2669 3169 
Q 2777 3027 2836 2936 
L 2891 2936 
L 2891 3491 
L 3409 3491 
L 3409 -100 
Q 3409 -550 3205 -833 
Q 3002 -1116 2660 -1249 
Q 2318 -1382 1900 -1382 
z
M 1882 536 
Q 2366 536 2624 864 
Q 2882 1193 2882 1773 
Q 2882 2339 2627 2697 
Q 2373 3055 1882 3055 
Q 1541 3055 1315 2882 
Q 1089 2709 976 2418 
Q 864 2127 864 1773 
Q 864 1227 1120 881 
Q 1377 536 1882 536 
z
" id="Inter-Regular-67" transform="scale(0.015625)"/>
      </defs>
      <use xlink:href="#Inter-Regular-45"/>
      <use x="59.801147" xlink:href="#Inter-Regular-6e"/>
      <use x="118.323883" xlink:href="#Inter-Regular-67"/>
      <use x="179.261398" xlink:href="#Inter-Regular-6c"/>
      <use x="202.982986" xlink:href="#Inter-Regular-61"/>
      <use x="259.375046" xlink:href="#Inter-Regular-6e"/>
      <use x="317.897781" xlink:href="#Inter-Regular-64"/>
     </g>
    </g>
   </g>
  </g>
 </g>
 <defs>
  <clipPath id="ped5f54f19a">
   <rect height="443.52" width="669.6" x="53.204688" y="33.225"/>
  </clipPath>
 </defs>
</svg>
