<?xml version="1.0" encoding="utf-8" standalone="no"?>
<!DOCTYPE svg PUBLIC "-//W3C//DTD SVG 1.1//EN"
  "http://www.w3.org/Graphics/SVG/1.1/DTD/svg11.dtd">
<svg version="1.1" viewBox="0 0 756.175 511.27625" xmlns="http://www.w3.org/2000/svg" xmlns:xlink="http://www.w3.org/1999/xlink">
 <metadata>
  <rdf:RDF xmlns:cc="http://creativecommons.org/ns#" xmlns:dc="http://purl.org/dc/elements/1.1/" xmlns:rdf="http://www.w3.org/1999/02/22-rdf-syntax-ns#">
   <cc:Work>
    <dc:type rdf:resource="http://purl.org/dc/dcmitype/StillImage"/>
    <dc:date>2021-04-17T16:48:05.000076</dc:date>
    <dc:format>image/svg+xml</dc:format>
    <dc:creator>
     <cc:Agent>
      <dc:title>Matplotlib v3.4.1, https://matplotlib.org/</dc:title>
     </cc:Agent>
    </dc:creator>
   </cc:Work>
  </rdf:RDF>
 </metadata>
 <defs>
  <style type="text/css">*{stroke-linecap:butt;stroke-linejoin:round;}</style>
 </defs>
 <g id="figure_1">
  <g id="patch_1">
   <path d="M 0 511.27625 
L 756.175 511.27625 
L 756.175 0 
L 0 0 
z
" style="fill:#ffffff;"/>
  </g>
  <g id="axes_1">
   <g id="patch_2">
    <path d="M 68.575 476.745 
L 738.175 476.745 
L 738.175 33.225 
L 68.575 33.225 
z
" style="fill:#ffffff;"/>
   </g>
   <g id="matplotlib.axis_1">
    <g id="xtick_1">
     <g id="line2d_1">
      <defs>
       <path d="M 0 0 
L 0 3.5 
" id="mffdbf69aec" style="stroke:#000000;stroke-width:0.8;"/>
      </defs>
      <g>
       <use style="stroke:#000000;stroke-width:0.8;" x="68.575" xlink:href="#mffdbf69aec" y="476.745"/>
      </g>
     </g>
     <g id="text_1">
      <!-- 01 Mar -->
      <g transform="translate(52.538281 491.018438)scale(0.1 -0.1)">
       <defs>
        <path d="M 2000 -64 
Q 1230 -64 806 561 
Q 382 1186 382 2327 
Q 382 3459 809 4088 
Q 1236 4718 2000 4718 
Q 2764 4718 3191 4088 
Q 3618 3459 3618 2327 
Q 3618 1186 3194 561 
Q 2771 -64 2000 -64 
z
M 2000 436 
Q 2509 436 2791 927 
Q 3073 1418 3073 2327 
Q 3073 3234 2789 3730 
Q 2505 4227 2000 4227 
Q 1496 4227 1211 3730 
Q 927 3234 927 2327 
Q 927 1418 1210 927 
Q 1493 436 2000 436 
z
" id="Inter-Regular-30" transform="scale(0.015625)"/>
        <path d="M 1973 4655 
L 1973 0 
L 1409 0 
L 1409 3836 
L 1373 3836 
Q 1341 3773 1209 3692 
Q 1077 3611 868 3551 
Q 659 3491 391 3491 
L 391 3964 
Q 661 3964 859 4061 
Q 1057 4159 1190 4291 
Q 1323 4423 1392 4529 
Q 1461 4636 1473 4655 
L 1973 4655 
z
" id="Inter-Regular-31" transform="scale(0.015625)"/>
        <path id="Inter-Regular-20" transform="scale(0.015625)"/>
        <path d="M 564 4655 
L 1236 4655 
L 2818 791 
L 2873 791 
L 4455 4655 
L 5127 4655 
L 5127 0 
L 4600 0 
L 4600 3536 
L 4555 3536 
L 3100 0 
L 2591 0 
L 1136 3536 
L 1091 3536 
L 1091 0 
L 564 0 
L 564 4655 
z
" id="Inter-Regular-4d" transform="scale(0.015625)"/>
        <path d="M 1518 -82 
Q 1186 -82 916 44 
Q 646 170 486 410 
Q 327 650 327 991 
Q 327 1291 445 1478 
Q 564 1666 761 1773 
Q 959 1880 1199 1933 
Q 1439 1986 1682 2018 
Q 2000 2059 2199 2080 
Q 2398 2102 2490 2154 
Q 2582 2207 2582 2336 
L 2582 2355 
Q 2582 2691 2399 2877 
Q 2216 3064 1846 3064 
Q 1461 3064 1243 2895 
Q 1025 2727 936 2536 
L 427 2718 
Q 564 3036 792 3214 
Q 1021 3393 1292 3464 
Q 1564 3536 1827 3536 
Q 1996 3536 2215 3496 
Q 2434 3457 2640 3334 
Q 2846 3211 2982 2963 
Q 3118 2716 3118 2300 
L 3118 0 
L 2582 0 
L 2582 473 
L 2555 473 
Q 2500 359 2373 229 
Q 2246 100 2034 9 
Q 1823 -82 1518 -82 
z
M 1600 400 
Q 1918 400 2137 525 
Q 2357 650 2469 847 
Q 2582 1045 2582 1264 
L 2582 1755 
Q 2548 1714 2433 1681 
Q 2318 1648 2169 1624 
Q 2021 1600 1881 1583 
Q 1741 1566 1655 1555 
Q 1446 1527 1265 1467 
Q 1084 1407 974 1287 
Q 864 1168 864 964 
Q 864 684 1072 542 
Q 1280 400 1600 400 
z
" id="Inter-Regular-61" transform="scale(0.015625)"/>
        <path d="M 491 0 
L 491 3491 
L 1009 3491 
L 1009 2964 
L 1046 2964 
Q 1139 3223 1389 3384 
Q 1639 3545 1955 3545 
Q 2100 3545 2209 3511 
Q 2318 3477 2400 3418 
L 2218 2964 
Q 2161 2993 2085 3010 
Q 2009 3027 1909 3027 
Q 1527 3027 1277 2794 
Q 1027 2561 1027 2209 
L 1027 0 
L 491 0 
z
" id="Inter-Regular-72" transform="scale(0.015625)"/>
       </defs>
       <use xlink:href="#Inter-Regular-30"/>
       <use x="62.500015" xlink:href="#Inter-Regular-31"/>
       <use x="106.676163" xlink:href="#Inter-Regular-20"/>
       <use x="134.801163" xlink:href="#Inter-Regular-4d"/>
       <use x="225.99437" xlink:href="#Inter-Regular-61"/>
       <use x="282.386429" xlink:href="#Inter-Regular-72"/>
      </g>
     </g>
    </g>
    <g id="xtick_2">
     <g id="line2d_2">
      <g>
       <use style="stroke:#000000;stroke-width:0.8;" x="118.872246" xlink:href="#mffdbf69aec" y="476.745"/>
      </g>
     </g>
     <g id="text_2">
      <!-- 01 Apr -->
      <g transform="translate(103.787089 491.116875)scale(0.1 -0.1)">
       <defs>
        <path d="M 755 0 
L 164 0 
L 1873 4655 
L 2455 4655 
L 4164 0 
L 3573 0 
L 3105 1318 
L 1223 1318 
L 755 0 
z
M 1400 1818 
L 2927 1818 
L 2182 3918 
L 2146 3918 
L 1400 1818 
z
" id="Inter-Regular-41" transform="scale(0.015625)"/>
        <path d="M 491 -1309 
L 491 3491 
L 1009 3491 
L 1009 2936 
L 1073 2936 
Q 1132 3027 1237 3169 
Q 1343 3311 1542 3423 
Q 1741 3536 2082 3536 
Q 2523 3536 2859 3315 
Q 3196 3095 3384 2690 
Q 3573 2286 3573 1736 
Q 3573 1182 3384 776 
Q 3196 370 2861 148 
Q 2527 -73 2091 -73 
Q 1755 -73 1552 39 
Q 1350 152 1241 296 
Q 1132 441 1073 536 
L 1027 536 
L 1027 -1309 
L 491 -1309 
z
M 1018 1745 
Q 1018 1152 1276 780 
Q 1534 409 2018 409 
Q 2355 409 2581 587 
Q 2807 766 2921 1069 
Q 3036 1373 3036 1745 
Q 3036 2114 2923 2410 
Q 2811 2707 2585 2881 
Q 2359 3055 2018 3055 
Q 1527 3055 1272 2693 
Q 1018 2332 1018 1745 
z
" id="Inter-Regular-70" transform="scale(0.015625)"/>
       </defs>
       <use xlink:href="#Inter-Regular-30"/>
       <use x="62.500015" xlink:href="#Inter-Regular-31"/>
       <use x="106.676163" xlink:href="#Inter-Regular-20"/>
       <use x="134.801163" xlink:href="#Inter-Regular-41"/>
       <use x="202.41481" xlink:href="#Inter-Regular-70"/>
       <use x="263.352325" xlink:href="#Inter-Regular-72"/>
      </g>
     </g>
    </g>
    <g id="xtick_3">
     <g id="line2d_3">
      <g>
       <use style="stroke:#000000;stroke-width:0.8;" x="167.546999" xlink:href="#mffdbf69aec" y="476.745"/>
      </g>
     </g>
     <g id="text_3">
      <!-- 01 May -->
      <g transform="translate(150.643874 491.116875)scale(0.1 -0.1)">
       <defs>
        <path d="M 818 -1355 
Q 682 -1355 575 -1333 
Q 468 -1311 427 -1291 
L 564 -818 
Q 857 -893 1053 -814 
Q 1250 -736 1391 -345 
L 1509 -18 
L 218 3491 
L 800 3491 
L 1764 709 
L 1800 709 
L 2764 3491 
L 3346 3491 
L 1846 -564 
Q 1550 -1355 818 -1355 
z
" id="Inter-Regular-79" transform="scale(0.015625)"/>
       </defs>
       <use xlink:href="#Inter-Regular-30"/>
       <use x="62.500015" xlink:href="#Inter-Regular-31"/>
       <use x="106.676163" xlink:href="#Inter-Regular-20"/>
       <use x="134.801163" xlink:href="#Inter-Regular-4d"/>
       <use x="225.99437" xlink:href="#Inter-Regular-61"/>
       <use x="282.386429" xlink:href="#Inter-Regular-79"/>
      </g>
     </g>
    </g>
    <g id="xtick_4">
     <g id="line2d_4">
      <g>
       <use style="stroke:#000000;stroke-width:0.8;" x="217.844245" xlink:href="#mffdbf69aec" y="476.745"/>
      </g>
     </g>
     <g id="text_4">
      <!-- 01 Jun -->
      <g transform="translate(202.55987 491.018438)scale(0.1 -0.1)">
       <defs>
        <path d="M 2346 4655 
L 2909 4655 
L 2909 1327 
Q 2909 657 2549 296 
Q 2189 -64 1582 -64 
Q 1200 -64 902 76 
Q 605 216 434 475 
Q 264 734 264 1091 
L 818 1091 
Q 818 795 1034 615 
Q 1250 436 1582 436 
Q 1948 436 2147 664 
Q 2346 893 2346 1327 
L 2346 4655 
z
" id="Inter-Regular-4a" transform="scale(0.015625)"/>
        <path d="M 2691 1427 
L 2691 3491 
L 3227 3491 
L 3227 0 
L 2691 0 
L 2691 591 
L 2655 591 
Q 2532 325 2273 140 
Q 2014 -45 1618 -45 
Q 1127 -45 809 280 
Q 491 605 491 1273 
L 491 3491 
L 1027 3491 
L 1027 1309 
Q 1027 927 1242 700 
Q 1457 473 1791 473 
Q 1991 473 2199 575 
Q 2407 677 2549 888 
Q 2691 1100 2691 1427 
z
" id="Inter-Regular-75" transform="scale(0.015625)"/>
        <path d="M 1027 2100 
L 1027 0 
L 491 0 
L 491 3491 
L 1009 3491 
L 1009 2945 
L 1055 2945 
Q 1177 3211 1427 3373 
Q 1677 3536 2073 3536 
Q 2602 3536 2928 3211 
Q 3255 2886 3255 2218 
L 3255 0 
L 2718 0 
L 2718 2182 
Q 2718 2593 2504 2824 
Q 2291 3055 1918 3055 
Q 1534 3055 1280 2806 
Q 1027 2557 1027 2100 
z
" id="Inter-Regular-6e" transform="scale(0.015625)"/>
       </defs>
       <use xlink:href="#Inter-Regular-30"/>
       <use x="62.500015" xlink:href="#Inter-Regular-31"/>
       <use x="106.676163" xlink:href="#Inter-Regular-20"/>
       <use x="134.801163" xlink:href="#Inter-Regular-4a"/>
       <use x="189.062531" xlink:href="#Inter-Regular-75"/>
       <use x="247.159134" xlink:href="#Inter-Regular-6e"/>
      </g>
     </g>
    </g>
    <g id="xtick_5">
     <g id="line2d_5">
      <g>
       <use style="stroke:#000000;stroke-width:0.8;" x="266.518999" xlink:href="#mffdbf69aec" y="476.745"/>
      </g>
     </g>
     <g id="text_5">
      <!-- 01 Jul -->
      <g transform="translate(252.975249 491.018438)scale(0.1 -0.1)">
       <defs>
        <path d="M 1027 4655 
L 1027 0 
L 491 0 
L 491 4655 
L 1027 4655 
z
" id="Inter-Regular-6c" transform="scale(0.015625)"/>
       </defs>
       <use xlink:href="#Inter-Regular-30"/>
       <use x="62.500015" xlink:href="#Inter-Regular-31"/>
       <use x="106.676163" xlink:href="#Inter-Regular-20"/>
       <use x="134.801163" xlink:href="#Inter-Regular-4a"/>
       <use x="189.062531" xlink:href="#Inter-Regular-75"/>
       <use x="247.159134" xlink:href="#Inter-Regular-6c"/>
      </g>
     </g>
    </g>
    <g id="xtick_6">
     <g id="line2d_6">
      <g>
       <use style="stroke:#000000;stroke-width:0.8;" x="316.816244" xlink:href="#mffdbf69aec" y="476.745"/>
      </g>
     </g>
     <g id="text_6">
      <!-- 01 Aug -->
      <g transform="translate(300.744369 491.116875)scale(0.1 -0.1)">
       <defs>
        <path d="M 1900 -1382 
Q 1316 -1382 976 -1169 
Q 636 -957 473 -682 
L 900 -382 
Q 973 -477 1084 -601 
Q 1196 -725 1390 -817 
Q 1584 -909 1900 -909 
Q 2323 -909 2598 -704 
Q 2873 -500 2873 -64 
L 2873 645 
L 2827 645 
Q 2768 550 2660 410 
Q 2552 270 2351 162 
Q 2150 55 1809 55 
Q 1386 55 1051 255 
Q 716 455 521 836 
Q 327 1218 327 1764 
Q 327 2300 516 2699 
Q 705 3098 1041 3317 
Q 1377 3536 1818 3536 
Q 2159 3536 2360 3423 
Q 2561 3311 2669 3169 
Q 2777 3027 2836 2936 
L 2891 2936 
L 2891 3491 
L 3409 3491 
L 3409 -100 
Q 3409 -550 3205 -833 
Q 3002 -1116 2660 -1249 
Q 2318 -1382 1900 -1382 
z
M 1882 536 
Q 2366 536 2624 864 
Q 2882 1193 2882 1773 
Q 2882 2339 2627 2697 
Q 2373 3055 1882 3055 
Q 1541 3055 1315 2882 
Q 1089 2709 976 2418 
Q 864 2127 864 1773 
Q 864 1227 1120 881 
Q 1377 536 1882 536 
z
" id="Inter-Regular-67" transform="scale(0.015625)"/>
       </defs>
       <use xlink:href="#Inter-Regular-30"/>
       <use x="62.500015" xlink:href="#Inter-Regular-31"/>
       <use x="106.676163" xlink:href="#Inter-Regular-20"/>
       <use x="134.801163" xlink:href="#Inter-Regular-41"/>
       <use x="202.41481" xlink:href="#Inter-Regular-75"/>
       <use x="260.511414" xlink:href="#Inter-Regular-67"/>
      </g>
     </g>
    </g>
    <g id="xtick_7">
     <g id="line2d_7">
      <g>
       <use style="stroke:#000000;stroke-width:0.8;" x="367.11349" xlink:href="#mffdbf69aec" y="476.745"/>
      </g>
     </g>
     <g id="text_7">
      <!-- 01 Sep -->
      <g transform="translate(351.22599 491.116875)scale(0.1 -0.1)">
       <defs>
        <path d="M 3109 3491 
Q 3068 3836 2777 4027 
Q 2486 4218 2064 4218 
Q 1600 4218 1318 3999 
Q 1036 3780 1036 3445 
Q 1036 3195 1189 3042 
Q 1343 2889 1553 2803 
Q 1764 2718 1936 2673 
L 2409 2545 
Q 2591 2498 2815 2414 
Q 3039 2330 3244 2185 
Q 3450 2041 3584 1816 
Q 3718 1591 3718 1264 
Q 3718 886 3521 581 
Q 3325 277 2949 97 
Q 2573 -82 2036 -82 
Q 1286 -82 845 272 
Q 405 627 364 1200 
L 946 1200 
Q 968 936 1124 764 
Q 1280 593 1519 510 
Q 1759 427 2036 427 
Q 2359 427 2616 533 
Q 2873 639 3023 828 
Q 3173 1018 3173 1273 
Q 3173 1505 3043 1650 
Q 2914 1795 2702 1886 
Q 2491 1977 2246 2045 
L 1673 2209 
Q 1127 2366 809 2657 
Q 491 2948 491 3418 
Q 491 3809 703 4101 
Q 916 4393 1276 4555 
Q 1636 4718 2082 4718 
Q 2532 4718 2882 4558 
Q 3232 4398 3437 4120 
Q 3643 3843 3655 3491 
L 3109 3491 
z
" id="Inter-Regular-53" transform="scale(0.015625)"/>
        <path d="M 1955 -73 
Q 1450 -73 1085 151 
Q 721 375 524 778 
Q 327 1182 327 1718 
Q 327 2255 524 2665 
Q 721 3075 1074 3305 
Q 1427 3536 1900 3536 
Q 2173 3536 2439 3445 
Q 2705 3355 2923 3151 
Q 3141 2948 3270 2614 
Q 3400 2280 3400 1791 
L 3400 1564 
L 866 1564 
Q 884 1005 1183 707 
Q 1482 409 1955 409 
Q 2271 409 2498 545 
Q 2725 682 2827 955 
L 3346 809 
Q 3223 414 2854 170 
Q 2486 -73 1955 -73 
z
M 866 2027 
L 2855 2027 
Q 2855 2470 2595 2762 
Q 2336 3055 1900 3055 
Q 1593 3055 1368 2911 
Q 1143 2768 1013 2533 
Q 884 2298 866 2027 
z
" id="Inter-Regular-65" transform="scale(0.015625)"/>
       </defs>
       <use xlink:href="#Inter-Regular-30"/>
       <use x="62.500015" xlink:href="#Inter-Regular-31"/>
       <use x="106.676163" xlink:href="#Inter-Regular-20"/>
       <use x="134.801163" xlink:href="#Inter-Regular-53"/>
       <use x="198.57959" xlink:href="#Inter-Regular-65"/>
       <use x="256.818237" xlink:href="#Inter-Regular-70"/>
      </g>
     </g>
    </g>
    <g id="xtick_8">
     <g id="line2d_8">
      <g>
       <use style="stroke:#000000;stroke-width:0.8;" x="415.788244" xlink:href="#mffdbf69aec" y="476.745"/>
      </g>
     </g>
     <g id="text_8">
      <!-- 01 Oct -->
      <g transform="translate(400.631994 491.018438)scale(0.1 -0.1)">
       <defs>
        <path d="M 4491 2327 
Q 4491 1591 4225 1054 
Q 3959 518 3495 227 
Q 3032 -64 2436 -64 
Q 1841 -64 1377 227 
Q 914 518 648 1054 
Q 382 1591 382 2327 
Q 382 3064 648 3600 
Q 914 4136 1377 4427 
Q 1841 4718 2436 4718 
Q 3032 4718 3495 4427 
Q 3959 4136 4225 3600 
Q 4491 3064 4491 2327 
z
M 3946 2327 
Q 3946 2932 3744 3348 
Q 3543 3764 3201 3977 
Q 2859 4191 2436 4191 
Q 2014 4191 1672 3977 
Q 1330 3764 1128 3348 
Q 927 2932 927 2327 
Q 927 1723 1128 1307 
Q 1330 891 1672 677 
Q 2014 464 2436 464 
Q 2859 464 3201 677 
Q 3543 891 3744 1307 
Q 3946 1723 3946 2327 
z
" id="Inter-Regular-4f" transform="scale(0.015625)"/>
        <path d="M 1909 -73 
Q 1418 -73 1063 159 
Q 709 391 518 798 
Q 327 1205 327 1727 
Q 327 2259 524 2667 
Q 721 3075 1074 3305 
Q 1427 3536 1900 3536 
Q 2268 3536 2563 3400 
Q 2859 3264 3047 3018 
Q 3236 2773 3282 2445 
L 2746 2445 
Q 2684 2684 2474 2869 
Q 2264 3055 1909 3055 
Q 1439 3055 1151 2697 
Q 864 2339 864 1745 
Q 864 1139 1148 774 
Q 1432 409 1909 409 
Q 2223 409 2447 570 
Q 2671 732 2746 1018 
L 3282 1018 
Q 3236 709 3058 462 
Q 2880 216 2588 71 
Q 2296 -73 1909 -73 
z
" id="Inter-Regular-63" transform="scale(0.015625)"/>
        <path d="M 2009 3491 
L 2009 3036 
L 1264 3036 
L 1264 1000 
Q 1264 773 1331 660 
Q 1398 548 1503 510 
Q 1609 473 1727 473 
Q 1816 473 1873 483 
Q 1930 493 1964 500 
L 2073 18 
Q 2018 -2 1920 -23 
Q 1823 -45 1673 -45 
Q 1446 -45 1228 52 
Q 1011 150 869 350 
Q 727 550 727 855 
L 727 3036 
L 200 3036 
L 200 3491 
L 727 3491 
L 727 4327 
L 1264 4327 
L 1264 3491 
L 2009 3491 
z
" id="Inter-Regular-74" transform="scale(0.015625)"/>
       </defs>
       <use xlink:href="#Inter-Regular-30"/>
       <use x="62.500015" xlink:href="#Inter-Regular-31"/>
       <use x="106.676163" xlink:href="#Inter-Regular-20"/>
       <use x="134.801163" xlink:href="#Inter-Regular-4f"/>
       <use x="210.937546" xlink:href="#Inter-Regular-63"/>
       <use x="266.761414" xlink:href="#Inter-Regular-74"/>
      </g>
     </g>
    </g>
    <g id="xtick_9">
     <g id="line2d_9">
      <g>
       <use style="stroke:#000000;stroke-width:0.8;" x="466.085489" xlink:href="#mffdbf69aec" y="476.745"/>
      </g>
     </g>
     <g id="text_9">
      <!-- 01 Nov -->
      <g transform="translate(449.814396 491.018438)scale(0.1 -0.1)">
       <defs>
        <path d="M 4255 4655 
L 4255 0 
L 3709 0 
L 1173 3655 
L 1127 3655 
L 1127 0 
L 564 0 
L 564 4655 
L 1109 4655 
L 3655 991 
L 3700 991 
L 3700 4655 
L 4255 4655 
z
" id="Inter-Regular-4e" transform="scale(0.015625)"/>
        <path d="M 1909 -73 
Q 1436 -73 1080 152 
Q 725 377 526 781 
Q 327 1186 327 1727 
Q 327 2273 526 2679 
Q 725 3086 1080 3311 
Q 1436 3536 1909 3536 
Q 2382 3536 2737 3311 
Q 3093 3086 3292 2679 
Q 3491 2273 3491 1727 
Q 3491 1186 3292 781 
Q 3093 377 2737 152 
Q 2382 -73 1909 -73 
z
M 1909 409 
Q 2268 409 2500 593 
Q 2732 777 2843 1077 
Q 2955 1377 2955 1727 
Q 2955 2077 2843 2379 
Q 2732 2682 2500 2868 
Q 2268 3055 1909 3055 
Q 1550 3055 1318 2868 
Q 1086 2682 975 2379 
Q 864 2077 864 1727 
Q 864 1377 975 1077 
Q 1086 777 1318 593 
Q 1550 409 1909 409 
z
" id="Inter-Regular-6f" transform="scale(0.015625)"/>
        <path d="M 3346 3491 
L 2055 0 
L 1509 0 
L 218 3491 
L 800 3491 
L 1764 709 
L 1800 709 
L 2764 3491 
L 3346 3491 
z
" id="Inter-Regular-76" transform="scale(0.015625)"/>
       </defs>
       <use xlink:href="#Inter-Regular-30"/>
       <use x="62.500015" xlink:href="#Inter-Regular-31"/>
       <use x="106.676163" xlink:href="#Inter-Regular-20"/>
       <use x="134.801163" xlink:href="#Inter-Regular-4e"/>
       <use x="210.085266" xlink:href="#Inter-Regular-6f"/>
       <use x="269.74437" xlink:href="#Inter-Regular-76"/>
      </g>
     </g>
    </g>
    <g id="xtick_10">
     <g id="line2d_10">
      <g>
       <use style="stroke:#000000;stroke-width:0.8;" x="514.760243" xlink:href="#mffdbf69aec" y="476.745"/>
      </g>
     </g>
     <g id="text_10">
      <!-- 01 Dec -->
      <g transform="translate(498.723524 491.018438)scale(0.1 -0.1)">
       <defs>
        <path d="M 2000 0 
L 564 0 
L 564 4655 
L 2064 4655 
Q 2741 4655 3223 4376 
Q 3705 4098 3961 3578 
Q 4218 3059 4218 2336 
Q 4218 1609 3959 1085 
Q 3700 561 3204 280 
Q 2709 0 2000 0 
z
M 1127 500 
L 1964 500 
Q 2830 500 3251 992 
Q 3673 1484 3673 2336 
Q 3673 3182 3259 3668 
Q 2846 4155 2027 4155 
L 1127 4155 
L 1127 500 
z
" id="Inter-Regular-44" transform="scale(0.015625)"/>
       </defs>
       <use xlink:href="#Inter-Regular-30"/>
       <use x="62.500015" xlink:href="#Inter-Regular-31"/>
       <use x="106.676163" xlink:href="#Inter-Regular-20"/>
       <use x="134.801163" xlink:href="#Inter-Regular-44"/>
       <use x="206.676178" xlink:href="#Inter-Regular-65"/>
       <use x="264.914825" xlink:href="#Inter-Regular-63"/>
      </g>
     </g>
    </g>
    <g id="xtick_11">
     <g id="line2d_11">
      <g>
       <use style="stroke:#000000;stroke-width:0.8;" x="565.057489" xlink:href="#mffdbf69aec" y="476.745"/>
      </g>
     </g>
     <g id="text_11">
      <!-- 01 Jan -->
      <g transform="translate(549.85827 491.018438)scale(0.1 -0.1)">
       <use xlink:href="#Inter-Regular-30"/>
       <use x="62.500015" xlink:href="#Inter-Regular-31"/>
       <use x="106.676163" xlink:href="#Inter-Regular-20"/>
       <use x="134.801163" xlink:href="#Inter-Regular-4a"/>
       <use x="189.062531" xlink:href="#Inter-Regular-61"/>
       <use x="245.45459" xlink:href="#Inter-Regular-6e"/>
      </g>
     </g>
    </g>
    <g id="xtick_12">
     <g id="line2d_12">
      <g>
       <use style="stroke:#000000;stroke-width:0.8;" x="615.354734" xlink:href="#mffdbf69aec" y="476.745"/>
      </g>
     </g>
     <g id="text_12">
      <!-- 01 Feb -->
      <g transform="translate(599.665672 491.018438)scale(0.1 -0.1)">
       <defs>
        <path d="M 564 0 
L 564 4655 
L 3355 4655 
L 3355 4155 
L 1127 4155 
L 1127 2582 
L 3146 2582 
L 3146 2082 
L 1127 2082 
L 1127 0 
L 564 0 
z
" id="Inter-Regular-46" transform="scale(0.015625)"/>
        <path d="M 564 0 
L 564 4655 
L 1100 4655 
L 1100 2936 
L 1146 2936 
Q 1205 3027 1310 3169 
Q 1416 3311 1615 3423 
Q 1814 3536 2155 3536 
Q 2596 3536 2932 3315 
Q 3268 3095 3457 2690 
Q 3646 2286 3646 1736 
Q 3646 1182 3457 776 
Q 3268 370 2934 148 
Q 2600 -73 2164 -73 
Q 1827 -73 1625 39 
Q 1423 152 1314 296 
Q 1205 441 1146 536 
L 1082 536 
L 1082 0 
L 564 0 
z
M 1091 1745 
Q 1091 1152 1349 780 
Q 1607 409 2091 409 
Q 2427 409 2653 587 
Q 2880 766 2994 1069 
Q 3109 1373 3109 1745 
Q 3109 2114 2996 2410 
Q 2884 2707 2658 2881 
Q 2432 3055 2091 3055 
Q 1600 3055 1345 2693 
Q 1091 2332 1091 1745 
z
" id="Inter-Regular-62" transform="scale(0.015625)"/>
       </defs>
       <use xlink:href="#Inter-Regular-30"/>
       <use x="62.500015" xlink:href="#Inter-Regular-31"/>
       <use x="106.676163" xlink:href="#Inter-Regular-20"/>
       <use x="134.801163" xlink:href="#Inter-Regular-46"/>
       <use x="193.465942" xlink:href="#Inter-Regular-65"/>
       <use x="251.70459" xlink:href="#Inter-Regular-62"/>
      </g>
     </g>
    </g>
    <g id="xtick_13">
     <g id="line2d_13">
      <g>
       <use style="stroke:#000000;stroke-width:0.8;" x="660.784505" xlink:href="#mffdbf69aec" y="476.745"/>
      </g>
     </g>
     <g id="text_13">
      <!-- 01 Mar -->
      <g transform="translate(644.747786 491.018438)scale(0.1 -0.1)">
       <use xlink:href="#Inter-Regular-30"/>
       <use x="62.500015" xlink:href="#Inter-Regular-31"/>
       <use x="106.676163" xlink:href="#Inter-Regular-20"/>
       <use x="134.801163" xlink:href="#Inter-Regular-4d"/>
       <use x="225.99437" xlink:href="#Inter-Regular-61"/>
       <use x="282.386429" xlink:href="#Inter-Regular-72"/>
      </g>
     </g>
    </g>
    <g id="xtick_14">
     <g id="line2d_14">
      <g>
       <use style="stroke:#000000;stroke-width:0.8;" x="711.08175" xlink:href="#mffdbf69aec" y="476.745"/>
      </g>
     </g>
     <g id="text_14">
      <!-- 01 Apr -->
      <g transform="translate(695.996594 491.116875)scale(0.1 -0.1)">
       <use xlink:href="#Inter-Regular-30"/>
       <use x="62.500015" xlink:href="#Inter-Regular-31"/>
       <use x="106.676163" xlink:href="#Inter-Regular-20"/>
       <use x="134.801163" xlink:href="#Inter-Regular-41"/>
       <use x="202.41481" xlink:href="#Inter-Regular-70"/>
       <use x="263.352325" xlink:href="#Inter-Regular-72"/>
      </g>
     </g>
    </g>
   </g>
   <g id="matplotlib.axis_2">
    <g id="ytick_1">
     <g id="line2d_15">
      <path clip-path="url(#p35e821fdfb)" d="M 68.575 476.745 
L 738.175 476.745 
" style="fill:none;stroke:#e5e5e5;stroke-linecap:square;stroke-width:0.8;"/>
     </g>
     <g id="line2d_16">
      <defs>
       <path d="M 0 0 
L -3.5 0 
" id="me7bb9aa01a" style="stroke:#000000;stroke-width:0.8;"/>
      </defs>
      <g>
       <use style="stroke:#000000;stroke-width:0.8;" x="68.575" xlink:href="#me7bb9aa01a" y="476.745"/>
      </g>
     </g>
     <g id="text_15">
      <!-- 0.00% -->
      <g transform="translate(31.94375 480.381719)scale(0.1 -0.1)">
       <defs>
        <path d="M 882 -36 
Q 714 -36 593 84 
Q 473 205 473 373 
Q 473 541 593 661 
Q 714 782 882 782 
Q 1050 782 1170 661 
Q 1291 541 1291 373 
Q 1291 205 1170 84 
Q 1050 -36 882 -36 
z
" id="Inter-Regular-2e" transform="scale(0.015625)"/>
        <path d="M 2855 873 
L 2855 1118 
Q 2855 1373 2960 1585 
Q 3066 1798 3269 1926 
Q 3473 2055 3764 2055 
Q 4059 2055 4259 1926 
Q 4459 1798 4561 1585 
Q 4664 1373 4664 1118 
L 4664 873 
Q 4664 618 4560 405 
Q 4457 193 4256 64 
Q 4055 -64 3764 -64 
Q 3468 -64 3266 64 
Q 3064 193 2959 405 
Q 2855 618 2855 873 
z
M 536 3536 
L 536 3782 
Q 536 4036 642 4248 
Q 748 4461 951 4589 
Q 1155 4718 1446 4718 
Q 1741 4718 1941 4589 
Q 2141 4461 2243 4248 
Q 2346 4036 2346 3782 
L 2346 3536 
Q 2346 3282 2242 3069 
Q 2139 2857 1937 2728 
Q 1736 2600 1446 2600 
Q 1150 2600 948 2728 
Q 746 2857 641 3069 
Q 536 3282 536 3536 
z
M 709 0 
L 3909 4655 
L 4427 4655 
L 1227 0 
L 709 0 
z
M 3318 1118 
L 3318 873 
Q 3318 661 3418 494 
Q 3518 327 3764 327 
Q 4002 327 4101 494 
Q 4200 661 4200 873 
L 4200 1118 
Q 4200 1330 4104 1497 
Q 4009 1664 3764 1664 
Q 3525 1664 3421 1497 
Q 3318 1330 3318 1118 
z
M 1000 3782 
L 1000 3536 
Q 1000 3325 1100 3158 
Q 1200 2991 1446 2991 
Q 1684 2991 1783 3158 
Q 1882 3325 1882 3536 
L 1882 3782 
Q 1882 3993 1786 4160 
Q 1691 4327 1446 4327 
Q 1207 4327 1103 4160 
Q 1000 3993 1000 3782 
z
" id="Inter-Regular-25" transform="scale(0.015625)"/>
       </defs>
       <use xlink:href="#Inter-Regular-30"/>
       <use x="62.500015" xlink:href="#Inter-Regular-2e"/>
       <use x="90.056839" xlink:href="#Inter-Regular-30"/>
       <use x="152.556854" xlink:href="#Inter-Regular-30"/>
       <use x="215.05687" xlink:href="#Inter-Regular-25"/>
      </g>
     </g>
    </g>
    <g id="ytick_2">
     <g id="line2d_17">
      <path clip-path="url(#p35e821fdfb)" d="M 68.575 391.045228 
L 738.175 391.045228 
" style="fill:none;stroke:#e5e5e5;stroke-linecap:square;stroke-width:0.8;"/>
     </g>
     <g id="line2d_18">
      <g>
       <use style="stroke:#000000;stroke-width:0.8;" x="68.575" xlink:href="#me7bb9aa01a" y="391.045228"/>
      </g>
     </g>
     <g id="text_16">
      <!-- 0.02% -->
      <g transform="translate(32.142188 394.681947)scale(0.1 -0.1)">
       <defs>
        <path d="M 482 0 
L 482 409 
L 2018 2091 
Q 2289 2386 2464 2605 
Q 2639 2825 2724 3019 
Q 2809 3214 2809 3427 
Q 2809 3795 2553 4011 
Q 2298 4227 1918 4227 
Q 1514 4227 1275 3985 
Q 1036 3743 1036 3345 
L 500 3345 
Q 500 3755 688 4064 
Q 877 4373 1203 4545 
Q 1530 4718 1936 4718 
Q 2346 4718 2661 4545 
Q 2977 4373 3156 4079 
Q 3336 3786 3336 3427 
Q 3336 3170 3244 2926 
Q 3152 2682 2926 2383 
Q 2700 2084 2300 1655 
L 1255 536 
L 1255 500 
L 3418 500 
L 3418 0 
L 482 0 
z
" id="Inter-Regular-32" transform="scale(0.015625)"/>
       </defs>
       <use xlink:href="#Inter-Regular-30"/>
       <use x="62.500015" xlink:href="#Inter-Regular-2e"/>
       <use x="90.056839" xlink:href="#Inter-Regular-30"/>
       <use x="152.556854" xlink:href="#Inter-Regular-32"/>
       <use x="213.068237" xlink:href="#Inter-Regular-25"/>
      </g>
     </g>
    </g>
    <g id="ytick_3">
     <g id="line2d_19">
      <path clip-path="url(#p35e821fdfb)" d="M 68.575 305.345457 
L 738.175 305.345457 
" style="fill:none;stroke:#e5e5e5;stroke-linecap:square;stroke-width:0.8;"/>
     </g>
     <g id="line2d_20">
      <g>
       <use style="stroke:#000000;stroke-width:0.8;" x="68.575" xlink:href="#me7bb9aa01a" y="305.345457"/>
      </g>
     </g>
     <g id="text_17">
      <!-- 0.04% -->
      <g transform="translate(31.773438 308.982175)scale(0.1 -0.1)">
       <defs>
        <path d="M 373 955 
L 373 1418 
L 2418 4655 
L 3100 4655 
L 3100 1455 
L 3736 1455 
L 3736 955 
L 3100 955 
L 3100 0 
L 2564 0 
L 2564 955 
L 373 955 
z
M 2564 1455 
L 2564 3936 
L 2527 3936 
L 982 1491 
L 982 1455 
L 2564 1455 
z
" id="Inter-Regular-34" transform="scale(0.015625)"/>
       </defs>
       <use xlink:href="#Inter-Regular-30"/>
       <use x="62.500015" xlink:href="#Inter-Regular-2e"/>
       <use x="90.056839" xlink:href="#Inter-Regular-30"/>
       <use x="152.556854" xlink:href="#Inter-Regular-34"/>
       <use x="216.761414" xlink:href="#Inter-Regular-25"/>
      </g>
     </g>
    </g>
    <g id="ytick_4">
     <g id="line2d_21">
      <path clip-path="url(#p35e821fdfb)" d="M 68.575 219.645685 
L 738.175 219.645685 
" style="fill:none;stroke:#e5e5e5;stroke-linecap:square;stroke-width:0.8;"/>
     </g>
     <g id="line2d_22">
      <g>
       <use style="stroke:#000000;stroke-width:0.8;" x="68.575" xlink:href="#me7bb9aa01a" y="219.645685"/>
      </g>
     </g>
     <g id="text_18">
      <!-- 0.06% -->
      <g transform="translate(31.957813 223.282404)scale(0.1 -0.1)">
       <defs>
        <path d="M 2027 -64 
Q 1741 -59 1454 45 
Q 1168 150 932 399 
Q 696 648 552 1074 
Q 409 1500 409 2145 
Q 409 3386 861 4056 
Q 1314 4727 2100 4727 
Q 2686 4727 3073 4384 
Q 3461 4041 3546 3491 
L 2991 3491 
Q 2914 3811 2691 4019 
Q 2468 4227 2100 4227 
Q 1559 4227 1249 3755 
Q 939 3284 936 2427 
L 973 2427 
Q 1164 2716 1461 2880 
Q 1759 3045 2118 3045 
Q 2518 3045 2850 2846 
Q 3182 2648 3382 2299 
Q 3582 1950 3582 1500 
Q 3582 1068 3389 710 
Q 3196 352 2847 142 
Q 2498 -68 2027 -64 
z
M 2027 436 
Q 2314 436 2542 579 
Q 2771 723 2903 964 
Q 3036 1205 3036 1500 
Q 3036 1789 2908 2026 
Q 2780 2264 2556 2404 
Q 2332 2545 2046 2545 
Q 1757 2545 1525 2397 
Q 1293 2250 1157 2010 
Q 1021 1770 1018 1491 
Q 1018 1214 1149 973 
Q 1280 732 1508 584 
Q 1736 436 2027 436 
z
" id="Inter-Regular-36" transform="scale(0.015625)"/>
       </defs>
       <use xlink:href="#Inter-Regular-30"/>
       <use x="62.500015" xlink:href="#Inter-Regular-2e"/>
       <use x="90.056839" xlink:href="#Inter-Regular-30"/>
       <use x="152.556854" xlink:href="#Inter-Regular-36"/>
       <use x="214.914825" xlink:href="#Inter-Regular-25"/>
      </g>
     </g>
    </g>
    <g id="ytick_5">
     <g id="line2d_23">
      <path clip-path="url(#p35e821fdfb)" d="M 68.575 133.945913 
L 738.175 133.945913 
" style="fill:none;stroke:#e5e5e5;stroke-linecap:square;stroke-width:0.8;"/>
     </g>
     <g id="line2d_24">
      <g>
       <use style="stroke:#000000;stroke-width:0.8;" x="68.575" xlink:href="#me7bb9aa01a" y="133.945913"/>
      </g>
     </g>
     <g id="text_19">
      <!-- 0.08% -->
      <g transform="translate(32.028125 137.582632)scale(0.1 -0.1)">
       <defs>
        <path d="M 1973 -64 
Q 1505 -64 1147 103 
Q 789 270 589 564 
Q 389 859 391 1236 
Q 389 1532 507 1783 
Q 625 2034 830 2203 
Q 1036 2373 1291 2418 
L 1291 2445 
Q 957 2532 759 2821 
Q 561 3111 564 3482 
Q 561 3836 743 4115 
Q 925 4395 1244 4556 
Q 1564 4718 1973 4718 
Q 2377 4718 2695 4556 
Q 3014 4395 3197 4115 
Q 3380 3836 3382 3482 
Q 3380 3111 3181 2821 
Q 2982 2532 2655 2445 
L 2655 2418 
Q 2907 2373 3109 2203 
Q 3311 2034 3431 1783 
Q 3552 1532 3555 1236 
Q 3552 859 3351 564 
Q 3150 270 2794 103 
Q 2439 -64 1973 -64 
z
M 1973 436 
Q 2446 436 2722 662 
Q 2998 889 3000 1264 
Q 2998 1527 2864 1729 
Q 2730 1932 2499 2048 
Q 2268 2164 1973 2164 
Q 1675 2164 1442 2048 
Q 1209 1932 1076 1729 
Q 943 1527 946 1264 
Q 943 889 1218 662 
Q 1493 436 1973 436 
z
M 1973 2645 
Q 2348 2645 2591 2864 
Q 2834 3084 2836 3445 
Q 2834 3800 2596 4013 
Q 2359 4227 1973 4227 
Q 1582 4227 1344 4013 
Q 1107 3800 1109 3445 
Q 1107 3084 1349 2864 
Q 1591 2645 1973 2645 
z
" id="Inter-Regular-38" transform="scale(0.015625)"/>
       </defs>
       <use xlink:href="#Inter-Regular-30"/>
       <use x="62.500015" xlink:href="#Inter-Regular-2e"/>
       <use x="90.056839" xlink:href="#Inter-Regular-30"/>
       <use x="152.556854" xlink:href="#Inter-Regular-38"/>
       <use x="214.20459" xlink:href="#Inter-Regular-25"/>
      </g>
     </g>
    </g>
    <g id="ytick_6">
     <g id="line2d_25">
      <path clip-path="url(#p35e821fdfb)" d="M 68.575 48.246141 
L 738.175 48.246141 
" style="fill:none;stroke:#e5e5e5;stroke-linecap:square;stroke-width:0.8;"/>
     </g>
     <g id="line2d_26">
      <g>
       <use style="stroke:#000000;stroke-width:0.8;" x="68.575" xlink:href="#me7bb9aa01a" y="48.246141"/>
      </g>
     </g>
     <g id="text_20">
      <!-- 0.10% -->
      <g transform="translate(33.776563 51.88286)scale(0.1 -0.1)">
       <use xlink:href="#Inter-Regular-30"/>
       <use x="62.500015" xlink:href="#Inter-Regular-2e"/>
       <use x="90.056839" xlink:href="#Inter-Regular-31"/>
       <use x="134.232986" xlink:href="#Inter-Regular-30"/>
       <use x="196.733002" xlink:href="#Inter-Regular-25"/>
      </g>
     </g>
    </g>
    <g id="text_21">
     <!-- Percent of nation tested positive (seven day average) -->
     <g transform="translate(25.614063 382.124063)rotate(-90)scale(0.1 -0.1)">
      <defs>
       <path d="M 564 0 
L 564 4655 
L 2136 4655 
Q 2684 4655 3033 4458 
Q 3382 4261 3550 3927 
Q 3718 3593 3718 3182 
Q 3718 2770 3551 2434 
Q 3384 2098 3036 1899 
Q 2689 1700 2146 1700 
L 1127 1700 
L 1127 0 
L 564 0 
z
M 1127 2200 
L 2127 2200 
Q 2689 2200 2926 2482 
Q 3164 2764 3164 3182 
Q 3164 3602 2925 3878 
Q 2686 4155 2118 4155 
L 1127 4155 
L 1127 2200 
z
" id="Inter-Regular-50" transform="scale(0.015625)"/>
       <path d="M 2046 3491 
L 2046 3036 
L 1264 3036 
L 1264 0 
L 727 0 
L 727 3036 
L 164 3036 
L 164 3491 
L 727 3491 
L 727 3973 
Q 727 4273 868 4473 
Q 1009 4673 1234 4773 
Q 1459 4873 1709 4873 
Q 1907 4873 2032 4841 
Q 2157 4809 2218 4782 
L 2064 4318 
Q 2023 4332 1951 4352 
Q 1880 4373 1764 4373 
Q 1498 4373 1381 4239 
Q 1264 4105 1264 3845 
L 1264 3491 
L 2046 3491 
z
" id="Inter-Regular-66" transform="scale(0.015625)"/>
       <path d="M 491 0 
L 491 3491 
L 1027 3491 
L 1027 0 
L 491 0 
z
M 764 4073 
Q 607 4073 494 4179 
Q 382 4286 382 4436 
Q 382 4586 494 4693 
Q 607 4800 764 4800 
Q 921 4800 1033 4693 
Q 1146 4586 1146 4436 
Q 1146 4286 1033 4179 
Q 921 4073 764 4073 
z
" id="Inter-Regular-69" transform="scale(0.015625)"/>
       <path d="M 2964 2709 
L 2482 2573 
Q 2411 2755 2245 2914 
Q 2080 3073 1727 3073 
Q 1407 3073 1194 2926 
Q 982 2780 982 2555 
Q 982 2355 1127 2239 
Q 1273 2123 1582 2045 
L 2100 1918 
Q 3027 1691 3027 973 
Q 3027 673 2855 436 
Q 2684 200 2377 63 
Q 2071 -73 1664 -73 
Q 1130 -73 780 159 
Q 430 391 336 836 
L 846 964 
Q 989 400 1655 400 
Q 2030 400 2251 560 
Q 2473 720 2473 945 
Q 2473 1316 1955 1436 
L 1373 1573 
Q 893 1686 669 1926 
Q 446 2166 446 2527 
Q 446 2823 613 3050 
Q 780 3277 1069 3406 
Q 1359 3536 1727 3536 
Q 2246 3536 2542 3309 
Q 2839 3082 2964 2709 
z
" id="Inter-Regular-73" transform="scale(0.015625)"/>
       <path d="M 1809 -73 
Q 1373 -73 1039 148 
Q 705 370 516 776 
Q 327 1182 327 1736 
Q 327 2286 516 2690 
Q 705 3095 1041 3315 
Q 1377 3536 1818 3536 
Q 2159 3536 2358 3423 
Q 2557 3311 2662 3169 
Q 2768 3027 2827 2936 
L 2873 2936 
L 2873 4655 
L 3409 4655 
L 3409 0 
L 2891 0 
L 2891 536 
L 2827 536 
Q 2768 441 2659 296 
Q 2550 152 2348 39 
Q 2146 -73 1809 -73 
z
M 1882 409 
Q 2366 409 2624 780 
Q 2882 1152 2882 1745 
Q 2882 2332 2627 2693 
Q 2373 3055 1882 3055 
Q 1541 3055 1315 2881 
Q 1089 2707 976 2410 
Q 864 2114 864 1745 
Q 864 1373 978 1069 
Q 1093 766 1319 587 
Q 1546 409 1882 409 
z
" id="Inter-Regular-64" transform="scale(0.015625)"/>
       <path d="M 682 1964 
Q 682 2823 906 3544 
Q 1130 4266 1546 4873 
L 2018 4873 
Q 1800 4573 1623 4095 
Q 1446 3618 1341 3061 
Q 1236 2505 1236 1964 
Q 1236 1423 1341 866 
Q 1446 309 1623 -168 
Q 1800 -645 2018 -945 
L 1546 -945 
Q 1130 -339 906 383 
Q 682 1105 682 1964 
z
" id="Inter-Regular-28" transform="scale(0.015625)"/>
       <path d="M 1638 1940 
Q 1638 1081 1414 359 
Q 1191 -362 775 -969 
L 302 -969 
Q 520 -669 697 -191 
Q 875 286 979 842 
Q 1084 1399 1084 1940 
Q 1084 2481 979 3038 
Q 875 3595 697 4072 
Q 520 4549 302 4849 
L 775 4849 
Q 1191 4243 1414 3521 
Q 1638 2799 1638 1940 
z
" id="Inter-Regular-29" transform="scale(0.015625)"/>
      </defs>
      <use xlink:href="#Inter-Regular-50"/>
      <use x="63.494324" xlink:href="#Inter-Regular-65"/>
      <use x="121.732971" xlink:href="#Inter-Regular-72"/>
      <use x="160.085251" xlink:href="#Inter-Regular-63"/>
      <use x="215.909119" xlink:href="#Inter-Regular-65"/>
      <use x="274.147766" xlink:href="#Inter-Regular-6e"/>
      <use x="332.670502" xlink:href="#Inter-Regular-74"/>
      <use x="369.034149" xlink:href="#Inter-Regular-20"/>
      <use x="397.159149" xlink:href="#Inter-Regular-6f"/>
      <use x="456.818253" xlink:href="#Inter-Regular-66"/>
      <use x="492.897797" xlink:href="#Inter-Regular-20"/>
      <use x="521.022797" xlink:href="#Inter-Regular-6e"/>
      <use x="579.545532" xlink:href="#Inter-Regular-61"/>
      <use x="635.937592" xlink:href="#Inter-Regular-74"/>
      <use x="672.301239" xlink:href="#Inter-Regular-69"/>
      <use x="696.022827" xlink:href="#Inter-Regular-6f"/>
      <use x="755.681931" xlink:href="#Inter-Regular-6e"/>
      <use x="814.204666" xlink:href="#Inter-Regular-20"/>
      <use x="842.329666" xlink:href="#Inter-Regular-74"/>
      <use x="878.693314" xlink:href="#Inter-Regular-65"/>
      <use x="936.931961" xlink:href="#Inter-Regular-73"/>
      <use x="989.204697" xlink:href="#Inter-Regular-74"/>
      <use x="1025.568344" xlink:href="#Inter-Regular-65"/>
      <use x="1083.806992" xlink:href="#Inter-Regular-64"/>
      <use x="1145.880875" xlink:href="#Inter-Regular-20"/>
      <use x="1174.005875" xlink:href="#Inter-Regular-70"/>
      <use x="1234.94339" xlink:href="#Inter-Regular-6f"/>
      <use x="1294.602493" xlink:href="#Inter-Regular-73"/>
      <use x="1346.875229" xlink:href="#Inter-Regular-69"/>
      <use x="1370.596817" xlink:href="#Inter-Regular-74"/>
      <use x="1406.960464" xlink:href="#Inter-Regular-69"/>
      <use x="1430.682053" xlink:href="#Inter-Regular-76"/>
      <use x="1486.363876" xlink:href="#Inter-Regular-65"/>
      <use x="1544.602524" xlink:href="#Inter-Regular-20"/>
      <use x="1572.727524" xlink:href="#Inter-Regular-28"/>
      <use x="1608.949112" xlink:href="#Inter-Regular-73"/>
      <use x="1661.221848" xlink:href="#Inter-Regular-65"/>
      <use x="1719.460495" xlink:href="#Inter-Regular-76"/>
      <use x="1775.142319" xlink:href="#Inter-Regular-65"/>
      <use x="1833.380966" xlink:href="#Inter-Regular-6e"/>
      <use x="1891.903702" xlink:href="#Inter-Regular-20"/>
      <use x="1920.028702" xlink:href="#Inter-Regular-64"/>
      <use x="1982.102585" xlink:href="#Inter-Regular-61"/>
      <use x="2038.494644" xlink:href="#Inter-Regular-79"/>
      <use x="2094.176468" xlink:href="#Inter-Regular-20"/>
      <use x="2122.301468" xlink:href="#Inter-Regular-61"/>
      <use x="2178.693527" xlink:href="#Inter-Regular-76"/>
      <use x="2234.375351" xlink:href="#Inter-Regular-65"/>
      <use x="2292.613998" xlink:href="#Inter-Regular-72"/>
      <use x="2330.966278" xlink:href="#Inter-Regular-61"/>
      <use x="2387.358337" xlink:href="#Inter-Regular-67"/>
      <use x="2448.295853" xlink:href="#Inter-Regular-65"/>
      <use x="2506.5345" xlink:href="#Inter-Regular-29"/>
     </g>
    </g>
   </g>
   <g id="line2d_27">
    <path clip-path="url(#p35e821fdfb)" d="M 18.277754 476.729774 
L 44.237623 476.742825 
L 68.575 476.686273 
L 79.932443 476.348049 
L 83.177426 476.06529 
L 91.289885 474.327406 
L 94.534869 473.379075 
L 99.402344 471.462835 
L 102.647328 469.80108 
L 105.892311 466.734227 
L 107.514803 465.263878 
L 110.759787 461.727209 
L 115.627262 457.297673 
L 118.872246 453.361878 
L 122.117229 450.227598 
L 123.739721 449.130274 
L 125.362213 448.435338 
L 128.607196 446.644166 
L 130.229688 446.467985 
L 131.85218 446.47451 
L 133.474672 447.018278 
L 135.097164 447.359765 
L 136.719655 447.510932 
L 139.964639 449.653379 
L 141.587131 449.727332 
L 143.209622 449.426084 
L 144.832114 448.895366 
L 146.454606 447.75454 
L 148.077098 447.174883 
L 149.69959 446.904087 
L 151.322081 446.429921 
L 152.944573 445.801325 
L 156.189557 445.259732 
L 157.812049 446.064509 
L 159.43454 446.431009 
L 161.057032 446.056896 
L 162.679524 445.910079 
L 164.302016 445.993819 
L 167.546999 446.5452 
L 169.169491 447.225998 
L 170.791983 447.778466 
L 172.414475 449.07046 
L 174.036967 450.131895 
L 175.659458 451.719698 
L 177.28195 452.921426 
L 178.904442 454.525542 
L 180.526934 455.560877 
L 182.149426 456.240587 
L 183.771917 455.993717 
L 185.394409 456.231887 
L 187.016901 456.646239 
L 188.639393 457.726162 
L 190.261884 458.254705 
L 191.884376 458.280806 
L 193.506868 458.732134 
L 195.12936 459.658715 
L 196.751852 460.023039 
L 198.374343 460.607046 
L 199.996835 460.538532 
L 201.619327 460.906119 
L 204.864311 461.839225 
L 206.486802 462.745143 
L 208.109294 463.975147 
L 211.354278 465.532499 
L 212.97677 465.990352 
L 216.221753 466.550433 
L 219.466737 466.734227 
L 225.956704 468.290492 
L 230.824179 469.317126 
L 235.691655 469.827181 
L 240.55913 469.719514 
L 242.181622 469.791292 
L 243.804114 469.977261 
L 245.426605 469.94681 
L 251.916573 470.613469 
L 256.784048 471.429122 
L 264.896507 472.223023 
L 271.386474 472.688489 
L 273.008966 472.549284 
L 277.876441 472.499258 
L 279.498933 472.364403 
L 282.743917 472.349178 
L 284.366408 472.552547 
L 302.213818 472.014216 
L 303.83631 471.83586 
L 307.081294 471.697743 
L 310.326277 471.537875 
L 313.571261 471.1605 
L 316.816244 471.254028 
L 318.438736 471.258379 
L 321.68372 470.972356 
L 323.306212 471.008245 
L 324.928703 470.876653 
L 328.173687 470.460127 
L 329.796179 470.411188 
L 331.41867 469.960948 
L 333.041162 469.641212 
L 334.663654 469.471556 
L 336.286146 469.423705 
L 337.908638 469.236648 
L 341.153621 469.258399 
L 344.398605 469.799992 
L 346.021097 469.823918 
L 347.643588 469.609673 
L 350.888572 469.565084 
L 352.511064 469.383466 
L 354.133556 469.385641 
L 359.001031 469.052855 
L 362.246015 468.287229 
L 363.868506 467.980544 
L 365.490998 467.844602 
L 367.11349 466.902795 
L 370.358474 463.84138 
L 373.603457 461.280231 
L 375.225949 460.104605 
L 376.848441 457.707674 
L 378.470932 456.53531 
L 380.093424 456.280826 
L 381.715916 455.808835 
L 383.338408 455.517376 
L 384.9609 455.494537 
L 386.583391 455.874088 
L 388.205883 456.485283 
L 389.828375 456.446132 
L 393.073359 454.551643 
L 394.69585 453.014954 
L 396.318342 450.874683 
L 397.940834 447.700164 
L 399.563326 445.742598 
L 404.430801 438.319074 
L 406.053293 436.395222 
L 409.298277 433.271817 
L 410.920768 429.045651 
L 412.54326 425.393703 
L 414.165752 420.356234 
L 415.788244 414.902239 
L 417.410736 408.878374 
L 420.655719 400.328163 
L 423.900703 388.352211 
L 425.523195 383.264716 
L 427.145686 378.955896 
L 428.768178 377.401806 
L 430.39067 376.917853 
L 432.013162 377.108172 
L 433.635653 374.753655 
L 436.880637 372.149005 
L 438.503129 372.180544 
L 440.125621 370.503563 
L 443.370604 365.708614 
L 446.615588 352.856108 
L 448.23808 347.359699 
L 449.860571 342.594114 
L 451.483063 338.719222 
L 453.105555 337.458767 
L 454.728047 336.038444 
L 456.350539 335.336983 
L 457.97303 336.264652 
L 459.595522 337.640386 
L 461.218014 337.25431 
L 462.840506 335.589292 
L 464.462998 334.682286 
L 466.085489 334.454991 
L 467.707981 328.837866 
L 469.330473 326.857462 
L 470.952965 326.356107 
L 472.575457 325.390375 
L 474.197948 324.105994 
L 475.82044 321.637287 
L 477.442932 316.642232 
L 479.065424 316.455175 
L 480.687915 314.103921 
L 482.310407 309.814678 
L 483.932899 308.633613 
L 485.555391 307.737483 
L 487.177883 308.382392 
L 488.800374 312.459566 
L 492.045358 321.723202 
L 495.290342 335.723059 
L 496.912833 343.299925 
L 498.535325 349.190023 
L 500.157817 353.739188 
L 501.780309 361.91855 
L 503.402801 368.786343 
L 505.025292 373.468187 
L 506.647784 376.987455 
L 508.270276 379.621468 
L 509.892768 381.15707 
L 513.137751 383.659491 
L 516.382735 384.735065 
L 518.005227 384.444693 
L 519.627719 383.775858 
L 521.25021 382.760099 
L 522.872702 380.63179 
L 524.495194 378.057591 
L 526.117686 374.623151 
L 527.740177 370.258867 
L 529.362669 363.724948 
L 530.985161 356.127418 
L 532.607653 349.722916 
L 534.230145 341.826314 
L 537.475128 315.122943 
L 539.09762 301.346031 
L 540.720112 289.320053 
L 542.342604 276.309854 
L 543.965095 270.098933 
L 545.587587 258.341577 
L 547.210079 244.118775 
L 548.832571 231.285845 
L 550.455063 223.128233 
L 552.077554 224.103754 
L 553.700046 244.93334 
L 555.322538 228.657269 
L 556.94503 213.975527 
L 558.567522 216.760707 
L 560.190013 182.373892 
L 561.812505 154.88967 
L 563.434997 135.323802 
L 565.057489 118.414785 
L 566.679981 99.432923 
L 568.302472 91.737515 
L 569.924964 60.092379 
L 571.547456 75.831207 
L 573.169948 88.431404 
L 574.792439 88.291112 
L 576.414931 72.940535 
L 578.037423 93.299218 
L 581.282407 130.055775 
L 582.904898 144.597225 
L 584.52739 155.644421 
L 586.149882 164.670973 
L 587.772374 170.703538 
L 589.394866 179.167834 
L 591.017357 186.397777 
L 592.639849 198.657575 
L 594.262341 208.118055 
L 597.507325 228.954166 
L 599.129816 239.707727 
L 600.752308 248.168761 
L 602.3748 259.857603 
L 603.997292 274.666587 
L 605.619784 287.216757 
L 607.242275 296.471693 
L 610.487259 311.844021 
L 612.109751 317.149024 
L 613.732243 319.052212 
L 616.977226 334.030852 
L 621.844701 352.769105 
L 623.467193 357.569491 
L 625.089685 361.451997 
L 626.712177 368.265413 
L 631.579652 385.575731 
L 633.202144 389.277705 
L 634.824636 392.371746 
L 636.447128 395.205866 
L 639.692111 398.255318 
L 641.314603 400.229197 
L 642.937095 401.668008 
L 644.559587 403.498331 
L 646.182078 404.420562 
L 647.80457 405.214464 
L 652.672046 413.932156 
L 655.917029 421.010931 
L 659.162013 427.137024 
L 660.784505 431.443668 
L 662.406996 434.125533 
L 664.029488 436.512676 
L 665.65198 438.494167 
L 667.274472 439.704595 
L 673.764439 441.463142 
L 677.009422 441.678474 
L 678.631914 441.616485 
L 680.254406 441.888369 
L 681.876898 441.830729 
L 683.49939 441.969934 
L 685.121881 442.482164 
L 688.366865 442.82365 
L 689.989357 443.338055 
L 691.611849 443.430495 
L 693.23434 442.417999 
L 694.856832 442.747523 
L 696.479324 443.191237 
L 698.101816 442.911741 
L 699.724308 442.996568 
L 702.969291 444.035166 
L 704.591783 444.503894 
L 706.214275 446.62459 
L 707.836767 448.153666 
L 709.459258 450.315689 
L 712.704242 453.658776 
L 714.326734 454.678885 
L 715.949225 457.045364 
L 717.571717 458.129638 
L 719.194209 458.510276 
L 720.816701 459.044256 
L 722.439193 459.406406 
L 724.061684 459.149748 
L 725.684176 459.247626 
L 727.306668 459.151923 
L 727.306668 459.151923 
" style="fill:none;stroke:#5694ca;stroke-linecap:square;stroke-width:2;"/>
   </g>
   <g id="line2d_28">
    <path clip-path="url(#p35e821fdfb)" d="M 24.767722 476.745 
L 75.064967 476.680349 
L 78.309951 476.454069 
L 83.177426 476.098486 
L 84.799918 475.742903 
L 86.42241 475.678252 
L 88.044902 475.38732 
L 89.667393 475.225692 
L 91.289885 475.258018 
L 94.534869 474.999412 
L 96.15736 474.93476 
L 97.779852 474.611503 
L 99.402344 474.417549 
L 101.024836 474.094292 
L 102.647328 473.577081 
L 105.892311 471.443584 
L 107.514803 470.053579 
L 109.137295 468.049385 
L 110.759787 466.4331 
L 112.382278 464.62286 
L 115.627262 461.810524 
L 117.249754 459.547724 
L 118.872246 458.060742 
L 120.494737 457.123296 
L 122.117229 455.991897 
L 123.739721 455.66864 
L 125.362213 455.733291 
L 128.607196 454.472589 
L 130.229688 454.472589 
L 133.474672 454.925148 
L 135.097164 455.539337 
L 136.719655 455.119103 
L 138.342147 455.086777 
L 139.964639 456.185851 
L 141.587131 455.183754 
L 143.209622 453.923052 
L 144.832114 451.983509 
L 146.454606 451.401647 
L 148.077098 452.436069 
L 149.69959 452.242115 
L 151.322081 451.078389 
L 152.944573 452.274441 
L 154.567065 454.407937 
L 156.189557 456.735388 
L 157.812049 457.802136 
L 159.43454 457.705159 
L 161.057032 459.030513 
L 162.679524 460.873078 
L 164.302016 461.034707 
L 165.924508 459.644702 
L 167.546999 459.159816 
L 169.169491 457.963765 
L 170.791983 457.672833 
L 172.414475 457.575856 
L 174.036967 457.608182 
L 175.659458 457.963765 
L 177.28195 458.545628 
L 178.904442 459.35377 
L 180.526934 460.48517 
L 182.149426 460.226564 
L 183.771917 460.226564 
L 185.394409 459.644702 
L 187.016901 459.80633 
L 188.639393 460.582147 
L 190.261884 460.776101 
L 191.884376 461.228661 
L 193.506868 462.036804 
L 195.12936 462.424712 
L 196.751852 463.038901 
L 198.374343 463.071226 
L 199.996835 463.620763 
L 201.619327 464.687512 
L 203.241819 464.234952 
L 204.864311 464.428906 
L 206.486802 465.172397 
L 209.731786 467.952408 
L 211.354278 468.857528 
L 212.97677 469.277762 
L 214.599261 470.603116 
L 216.221753 470.732419 
L 217.844245 471.217304 
L 219.466737 471.443584 
L 221.089229 472.15475 
L 222.71172 472.704287 
L 224.334212 472.60731 
L 225.956704 472.768938 
L 227.579196 473.447778 
L 230.824179 474.061966 
L 232.446671 473.900338 
L 234.069163 473.932664 
L 235.691655 474.352898 
L 238.936638 474.191269 
L 240.55913 474.029641 
L 242.181622 474.029641 
L 243.804114 474.385223 
L 245.426605 474.482201 
L 247.049097 474.417549 
L 250.294081 474.740806 
L 251.916573 475.225692 
L 260.029032 475.742903 
L 263.274015 475.678252 
L 264.896507 475.872206 
L 274.631458 475.83988 
L 279.498933 475.6136 
L 281.121425 475.742903 
L 284.366408 475.516623 
L 285.9889 475.678252 
L 287.611392 475.6136 
L 289.233884 475.322669 
L 290.856376 474.870109 
L 294.101359 474.708481 
L 297.346343 474.740806 
L 298.968835 474.579178 
L 302.213818 475.031738 
L 303.83631 474.837783 
L 307.081294 474.999412 
L 308.703785 474.708481 
L 316.816244 474.482201 
L 320.061228 474.029641 
L 321.68372 473.900338 
L 323.306212 473.318475 
L 324.928703 473.092195 
L 326.551195 472.995218 
L 329.796179 471.92847 
L 331.41867 471.088001 
L 333.041162 470.409162 
L 334.663654 470.085905 
L 336.286146 468.986831 
L 337.908638 467.661477 
L 341.153621 467.984734 
L 342.776113 467.693802 
L 346.021097 467.467522 
L 350.888572 465.431003 
L 352.511064 464.39658 
L 354.133556 464.655186 
L 355.756047 463.94402 
L 357.378539 462.974249 
L 360.623523 462.586341 
L 362.246015 462.554015 
L 363.868506 463.103552 
L 365.490998 462.812621 
L 367.11349 462.812621 
L 368.735982 462.198432 
L 370.358474 461.293313 
L 373.603457 458.319348 
L 375.225949 456.1212 
L 376.848441 455.539337 
L 378.470932 455.830268 
L 380.093424 455.571663 
L 381.715916 456.444457 
L 383.338408 458.287022 
L 384.9609 457.769811 
L 386.583391 458.157719 
L 389.828375 454.9898 
L 391.450867 453.890726 
L 394.69585 447.942796 
L 396.318342 446.164882 
L 397.940834 445.098134 
L 399.563326 444.580923 
L 401.185818 442.544403 
L 402.808309 439.732067 
L 404.430801 436.046936 
L 406.053293 433.590183 
L 407.675785 430.131332 
L 409.298277 425.379453 
L 410.920768 420.175015 
L 412.54326 413.095685 
L 414.165752 399.389586 
L 415.788244 392.95677 
L 417.410736 378.2809 
L 420.655719 355.749883 
L 425.523195 316.344847 
L 427.145686 300.181994 
L 428.768178 295.591744 
L 430.39067 289.837768 
L 432.013162 282.790764 
L 433.635653 269.989785 
L 435.258145 260.873935 
L 436.880637 259.871839 
L 440.125621 251.499481 
L 441.748112 250.141801 
L 443.370604 251.434829 
L 444.993096 253.600652 
L 446.615588 254.279491 
L 448.23808 252.63088 
L 449.860571 253.632977 
L 451.483063 256.477639 
L 453.105555 259.774861 
L 454.728047 263.363015 
L 456.350539 268.179545 
L 457.97303 276.034692 
L 459.595522 287.671946 
L 461.218014 300.117343 
L 462.840506 306.356204 
L 466.085489 320.676492 
L 467.707981 326.980004 
L 470.952965 337.647487 
L 472.575457 341.882155 
L 474.197948 348.444273 
L 475.82044 350.286838 
L 477.442932 351.644518 
L 479.065424 353.228477 
L 480.687915 351.806146 
L 482.310407 351.288935 
L 485.555391 352.064752 
L 487.177883 353.260803 
L 488.800374 354.844763 
L 490.422866 357.010585 
L 492.045358 361.083624 
L 493.66785 366.546668 
L 495.290342 373.076461 
L 496.912833 376.373683 
L 498.535325 380.479048 
L 500.157817 383.679292 
L 501.780309 390.273737 
L 503.402801 397.7733 
L 505.025292 398.484466 
L 506.647784 398.872374 
L 508.270276 400.165403 
L 509.892768 398.549117 
L 511.51526 399.13098 
L 513.137751 394.960964 
L 514.760243 393.053747 
L 516.382735 393.247701 
L 518.005227 388.107914 
L 519.627719 384.843018 
L 521.25021 383.09743 
L 522.872702 379.476951 
L 524.495194 380.640676 
L 526.117686 378.345551 
L 527.740177 376.955546 
L 529.362669 376.793917 
L 530.985161 373.981581 
L 532.607653 375.145306 
L 534.230145 374.143209 
L 535.852636 370.97529 
L 537.475128 368.874119 
L 539.09762 363.637355 
L 540.720112 360.340133 
L 542.342604 359.822921 
L 543.965095 355.814534 
L 545.587587 352.90522 
L 547.210079 347.927062 
L 550.455063 335.675619 
L 552.077554 334.964454 
L 553.700046 341.267966 
L 555.322538 333.736077 
L 556.94503 314.340653 
L 558.567522 292.747082 
L 560.190013 241.575489 
L 561.812505 195.672987 
L 563.434997 160.147036 
L 565.057489 130.82762 
L 566.679981 91.745842 
L 568.302472 74.225309 
L 569.924964 54.345 
L 573.169948 99.21308 
L 574.792439 114.923373 
L 576.414931 115.311281 
L 578.037423 145.309537 
L 581.282407 193.507164 
L 584.52739 224.863099 
L 586.149882 235.368953 
L 587.772374 247.943653 
L 589.394866 257.932296 
L 591.017357 266.660237 
L 592.639849 278.103537 
L 594.262341 286.411243 
L 595.884833 295.494767 
L 597.507325 300.66688 
L 599.129816 308.392723 
L 600.752308 315.536704 
L 602.3748 320.83812 
L 603.997292 329.986295 
L 605.619784 337.485859 
L 607.242275 342.754949 
L 608.864767 350.416141 
L 610.487259 353.099175 
L 612.109751 355.3943 
L 613.732243 357.204539 
L 615.354734 360.66339 
L 616.977226 366.546668 
L 618.599718 371.104593 
L 620.22221 374.951352 
L 621.844701 378.022294 
L 623.467193 380.83463 
L 625.089685 384.358132 
L 626.712177 389.142337 
L 628.334669 392.892119 
L 629.95716 396.965158 
L 631.579652 400.327031 
L 633.202144 405.175887 
L 634.824636 408.99032 
L 636.447128 410.057069 
L 638.069619 409.830789 
L 639.692111 410.380326 
L 641.314603 410.671257 
L 642.937095 411.156143 
L 644.559587 410.57428 
L 646.182078 409.2166 
L 647.80457 411.188468 
L 649.427062 414.970576 
L 652.672046 418.655706 
L 654.294537 419.593152 
L 655.917029 423.375259 
L 657.539521 425.832013 
L 660.784505 430.002029 
L 662.406996 431.359709 
L 664.029488 435.044839 
L 665.65198 437.566244 
L 667.274472 438.536016 
L 668.896963 438.923924 
L 672.141947 436.596473 
L 673.764439 437.339964 
L 675.386931 436.24089 
L 677.009422 435.562051 
L 678.631914 434.592279 
L 680.254406 434.850885 
L 683.49939 438.018804 
L 685.121881 438.471364 
L 686.744373 440.346255 
L 688.366865 440.734164 
L 689.989357 442.18882 
L 691.611849 442.706032 
L 693.23434 442.673706 
L 694.856832 442.770683 
L 696.479324 443.675803 
L 698.101816 442.835334 
L 699.724308 442.803009 
L 701.346799 442.609054 
L 702.969291 442.673706 
L 704.591783 443.287894 
L 707.836767 445.744648 
L 709.459258 447.199305 
L 711.08175 449.817687 
L 712.704242 451.757229 
L 714.326734 453.923052 
L 715.949225 455.765617 
L 717.571717 458.287022 
L 720.816701 459.289119 
L 722.439193 458.287022 
L 724.061684 456.638411 
L 725.684176 455.377708 
L 727.306668 453.599795 
L 727.306668 453.599795 
" style="fill:none;stroke:#ffdd00;stroke-linecap:square;stroke-width:2;"/>
   </g>
   <g id="line2d_29">
    <path clip-path="url(#p35e821fdfb)" d="M 65.330016 476.666568 
L 68.575 476.666568 
L 75.064967 476.576931 
L 81.554934 476.274407 
L 84.799918 475.848632 
L 88.044902 474.974672 
L 91.289885 474.728171 
L 92.912377 474.672148 
L 96.15736 474.257578 
L 97.779852 474.134327 
L 99.402344 473.742166 
L 101.024836 473.215549 
L 102.647328 472.509659 
L 105.892311 469.798144 
L 107.514803 468.151067 
L 109.137295 466.201466 
L 110.759787 464.061386 
L 112.382278 462.503946 
L 114.00477 461.136984 
L 118.872246 454.929633 
L 120.494737 453.495443 
L 122.117229 452.318959 
L 123.739721 451.713911 
L 125.362213 451.400182 
L 126.984705 450.458995 
L 128.607196 450.335744 
L 133.474672 451.926798 
L 135.097164 452.755939 
L 136.719655 452.811962 
L 138.342147 453.316169 
L 141.587131 453.506648 
L 143.209622 452.128481 
L 144.832114 451.400182 
L 146.454606 450.515018 
L 148.077098 451.198499 
L 149.69959 446.526178 
L 151.322081 445.932334 
L 152.944573 445.831493 
L 154.567065 447.097613 
L 157.812049 448.991192 
L 159.43454 448.845532 
L 161.057032 452.722325 
L 162.679524 452.935213 
L 164.302016 451.926798 
L 165.924508 451.691502 
L 167.546999 450.985611 
L 169.169491 450.615859 
L 170.791983 450.425381 
L 174.036967 452.565461 
L 175.659458 453.954832 
L 177.28195 454.459039 
L 178.904442 455.736364 
L 182.149426 456.621528 
L 185.394409 458.044513 
L 187.016901 459.25461 
L 188.639393 460.12857 
L 190.261884 461.271439 
L 191.884376 462.10058 
L 193.506868 462.750447 
L 195.12936 464.117409 
L 196.751852 464.65523 
L 198.374343 465.517985 
L 199.996835 466.64965 
L 203.241819 467.915771 
L 206.486802 468.823344 
L 208.109294 469.999827 
L 212.97677 471.949429 
L 214.599261 472.061475 
L 216.221753 472.408818 
L 217.844245 473.069889 
L 221.089229 473.775779 
L 222.71172 473.999872 
L 224.334212 474.055895 
L 225.956704 474.257578 
L 227.579196 474.324805 
L 230.824179 474.75058 
L 235.691655 474.907445 
L 240.55913 474.907445 
L 242.181622 475.019491 
L 243.804114 474.974672 
L 247.049097 475.131537 
L 248.671589 475.322015 
L 253.539064 475.445266 
L 255.161556 475.725381 
L 256.784048 475.669358 
L 258.40654 475.859836 
L 281.121425 476.117542 
L 294.101359 475.770199 
L 295.723851 475.60213 
L 297.346343 475.646949 
L 300.591326 475.546107 
L 303.83631 475.490084 
L 307.081294 475.714176 
L 310.326277 475.680562 
L 313.571261 475.501289 
L 315.193753 475.389243 
L 318.438736 475.030695 
L 320.061228 474.48167 
L 326.551195 472.935434 
L 333.041162 472.789774 
L 334.663654 472.991457 
L 336.286146 473.058685 
L 337.908638 473.013866 
L 339.531129 473.092299 
L 342.776113 472.834593 
L 344.398605 472.666524 
L 346.021097 472.173521 
L 347.643588 471.254743 
L 350.888572 470.448012 
L 352.511064 470.067055 
L 354.133556 470.246329 
L 355.756047 470.313556 
L 357.378539 470.257533 
L 359.001031 470.750536 
L 360.623523 470.593671 
L 363.868506 469.719712 
L 365.490998 468.778525 
L 367.11349 467.35554 
L 370.358474 465.125824 
L 371.980965 464.397524 
L 376.848441 463.064176 
L 378.470932 464.139819 
L 381.715916 463.467542 
L 383.338408 462.95213 
L 384.9609 462.089376 
L 388.205883 461.607578 
L 389.828375 460.094956 
L 391.450867 459.456293 
L 393.073359 459.075337 
L 394.69585 458.470288 
L 396.318342 458.223787 
L 397.940834 456.632733 
L 402.808309 447.456161 
L 404.430801 442.402883 
L 406.053293 438.963069 
L 407.675785 436.710944 
L 409.298277 436.262759 
L 412.54326 432.520421 
L 414.165752 430.044203 
L 415.788244 429.360722 
L 417.410736 426.660412 
L 419.033227 423.691192 
L 420.655719 419.377418 
L 422.278211 414.055231 
L 423.900703 408.09438 
L 425.523195 402.951466 
L 427.145686 398.536852 
L 428.768178 395.433176 
L 430.39067 392.710457 
L 432.013162 390.290262 
L 433.635653 387.332246 
L 435.258145 384.743982 
L 436.880637 384.273389 
L 438.503129 382.895222 
L 440.125621 381.124894 
L 441.748112 382.043672 
L 443.370604 383.52268 
L 444.993096 383.556294 
L 446.615588 380.620687 
L 448.23808 377.404965 
L 449.860571 375.063203 
L 451.483063 374.682246 
L 453.105555 373.606604 
L 454.728047 372.351688 
L 456.350539 372.508553 
L 457.97303 376.699075 
L 459.595522 380.194912 
L 461.218014 384.710368 
L 462.840506 386.749607 
L 464.462998 389.147392 
L 466.085489 388.77764 
L 467.707981 387.287428 
L 469.330473 386.346241 
L 470.952965 385.95408 
L 472.575457 383.724363 
L 474.197948 383.287383 
L 475.82044 382.122104 
L 477.442932 383.197746 
L 479.065424 385.248189 
L 480.687915 386.413468 
L 482.310407 387.007312 
L 483.932899 388.150182 
L 485.555391 389.057755 
L 487.177883 388.273433 
L 488.800374 388.956914 
L 490.422866 389.147392 
L 492.045358 389.886896 
L 493.66785 391.377109 
L 496.912833 395.959792 
L 498.535325 397.685302 
L 501.780309 400.206338 
L 503.402801 402.805807 
L 506.647784 406.873078 
L 508.270276 408.284859 
L 509.892768 410.436143 
L 511.51526 412.150448 
L 513.137751 414.256914 
L 514.760243 414.940395 
L 516.382735 414.738712 
L 518.005227 414.705098 
L 519.627719 415.724717 
L 522.872702 413.66307 
L 524.495194 413.831139 
L 526.117686 412.553814 
L 527.740177 411.915151 
L 529.362669 410.828304 
L 530.985161 408.24004 
L 532.607653 408.027153 
L 534.230145 407.175603 
L 535.852636 405.595753 
L 537.475128 405.741413 
L 539.09762 405.259615 
L 540.720112 405.203592 
L 542.342604 404.643362 
L 543.965095 403.85904 
L 545.587587 402.704965 
L 547.210079 400.217543 
L 548.832571 396.867366 
L 550.455063 393.830917 
L 552.077554 392.598411 
L 553.700046 397.192299 
L 555.322538 393.819713 
L 556.94503 383.948455 
L 558.567522 378.312538 
L 560.190013 357.998588 
L 561.812505 339.499784 
L 563.434997 324.295134 
L 565.057489 317.045754 
L 566.679981 304.048411 
L 568.302472 298.244426 
L 569.924964 291.969846 
L 571.547456 292.955852 
L 573.169948 297.650581 
L 574.792439 299.633797 
L 576.414931 292.104302 
L 578.037423 300.171618 
L 579.659915 309.05687 
L 581.282407 312.238978 
L 582.904898 324.272725 
L 584.52739 333.729412 
L 586.149882 340.205674 
L 587.772374 343.410191 
L 589.394866 347.018074 
L 591.017357 349.617543 
L 592.639849 353.69602 
L 594.262341 358.480386 
L 595.884833 359.869757 
L 597.507325 364.149917 
L 599.129816 367.623344 
L 600.752308 370.301245 
L 602.3748 374.065993 
L 603.997292 378.715904 
L 605.619784 382.996064 
L 607.242275 388.295842 
L 608.864767 389.662804 
L 610.487259 392.800094 
L 612.109751 394.503194 
L 613.732243 395.041015 
L 615.354734 397.528437 
L 616.977226 398.929013 
L 618.599718 401.001865 
L 620.22221 403.455674 
L 621.844701 403.735789 
L 623.467193 404.699385 
L 625.089685 406.458508 
L 626.712177 407.646196 
L 628.334669 410.929146 
L 629.95716 411.859128 
L 631.579652 412.486586 
L 633.202144 412.878747 
L 634.824636 414.63787 
L 636.447128 414.357755 
L 638.069619 414.682689 
L 639.692111 413.001998 
L 641.314603 413.192476 
L 642.937095 412.81152 
L 644.559587 412.945975 
L 646.182078 411.623831 
L 647.80457 412.419358 
L 649.427062 414.380164 
L 651.049554 416.744336 
L 652.672046 418.178526 
L 654.294537 420.979677 
L 655.917029 425.125381 
L 657.539521 427.892919 
L 659.162013 429.976976 
L 660.784505 432.710899 
L 662.406996 434.694115 
L 664.029488 436.991059 
L 665.65198 437.786586 
L 667.274472 438.425248 
L 668.896963 437.708154 
L 670.519455 437.607312 
L 672.141947 437.136719 
L 675.386931 434.178703 
L 677.009422 433.002219 
L 678.631914 431.646462 
L 680.254406 431.803326 
L 681.876898 431.680076 
L 683.49939 430.537206 
L 685.121881 431.455984 
L 686.744373 431.736099 
L 688.366865 432.97981 
L 689.989357 433.439199 
L 691.611849 433.517631 
L 693.23434 433.304743 
L 694.856832 433.39438 
L 696.479324 433.024628 
L 698.101816 433.6857 
L 699.724308 433.461608 
L 702.969291 434.985434 
L 704.591783 436.184327 
L 706.214275 438.044292 
L 707.836767 440.408464 
L 712.704242 445.282467 
L 715.949225 447.669048 
L 717.571717 450.167675 
L 719.194209 450.59345 
L 720.816701 451.848366 
L 722.439193 453.327374 
L 724.061684 454.246152 
L 727.306668 455.310589 
L 727.306668 455.310589 
" style="fill:none;stroke:#003078;stroke-linecap:square;stroke-width:2;"/>
   </g>
   <g id="line2d_30">
    <path clip-path="url(#p35e821fdfb)" d="M 63.707525 476.609093 
L 68.575 476.711023 
L 79.932443 476.667339 
L 81.554934 476.609093 
L 84.799918 476.104295 
L 91.289885 474.143348 
L 92.912377 473.483228 
L 96.15736 472.590124 
L 97.779852 471.910588 
L 99.402344 471.036899 
L 101.024836 469.949642 
L 102.647328 469.095368 
L 105.892311 465.212306 
L 107.514803 462.222348 
L 110.759787 457.62092 
L 112.382278 455.834711 
L 114.00477 454.223241 
L 115.627262 450.146026 
L 118.872246 444.845646 
L 120.494737 441.758612 
L 122.117229 439.098714 
L 123.739721 436.865954 
L 125.362213 435.623374 
L 126.984705 434.846761 
L 128.607196 432.730493 
L 131.85218 430.517147 
L 133.474672 430.944284 
L 135.097164 431.62382 
L 136.719655 431.157853 
L 138.342147 433.293537 
L 139.964639 434.633193 
L 143.209622 435.662204 
L 144.832114 435.351559 
L 146.454606 435.351559 
L 148.077098 436.63297 
L 149.69959 436.477647 
L 151.322081 437.603735 
L 152.944573 439.700589 
L 154.567065 442.845869 
L 157.812049 447.156068 
L 159.43454 448.320986 
L 162.679524 452.495278 
L 164.302016 453.990257 
L 165.924508 454.009672 
L 167.546999 454.728039 
L 169.169491 453.89318 
L 170.791983 454.203825 
L 172.414475 454.844531 
L 174.036967 454.417394 
L 175.659458 454.51447 
L 177.28195 454.980438 
L 178.904442 456.164772 
L 180.526934 456.99963 
L 182.149426 456.960799 
L 183.771917 456.203602 
L 185.394409 456.688985 
L 187.016901 457.038461 
L 188.639393 457.892734 
L 190.261884 456.650154 
L 191.884376 456.067695 
L 193.506868 455.854127 
L 195.12936 456.04828 
L 196.751852 454.825115 
L 198.374343 454.572716 
L 199.996835 454.572716 
L 204.864311 456.941384 
L 206.486802 458.164548 
L 208.109294 460.319648 
L 209.731786 461.251583 
L 212.97677 462.435917 
L 214.599261 463.445513 
L 221.089229 466.338394 
L 222.71172 467.153837 
L 224.334212 468.144018 
L 227.579196 468.707062 
L 229.201688 468.512909 
L 232.446671 468.8818 
L 234.069163 468.765308 
L 238.936638 467.658635 
L 240.55913 467.813957 
L 242.181622 467.425651 
L 245.426605 467.561558 
L 247.049097 466.299563 
L 248.671589 466.746115 
L 250.294081 466.318979 
L 251.916573 466.318979 
L 253.539064 465.367628 
L 255.161556 465.891842 
L 256.784048 465.930672 
L 258.40654 468.279925 
L 260.029032 466.474301 
L 261.651523 467.406236 
L 263.274015 467.852788 
L 264.896507 469.716658 
L 266.518999 469.910811 
L 268.141491 470.532101 
L 269.763982 470.532101 
L 271.386474 473.075506 
L 273.008966 473.386151 
L 279.498933 474.026857 
L 281.121425 473.832704 
L 284.366408 473.813288 
L 287.611392 474.143348 
L 290.856376 474.007441 
L 292.478867 474.240425 
L 295.723851 474.25984 
L 297.346343 473.890949 
L 298.968835 473.153168 
L 303.83631 472.64837 
L 305.458802 472.395971 
L 307.081294 471.910588 
L 308.703785 472.298894 
L 310.326277 472.959015 
L 313.571261 472.939599 
L 315.193753 473.211414 
L 316.816244 473.366736 
L 318.438736 473.774458 
L 321.68372 473.852119 
L 328.173687 474.337502 
L 331.41867 474.512239 
L 334.663654 474.415163 
L 336.286146 474.512239 
L 339.531129 474.376332 
L 341.153621 474.182179 
L 342.776113 474.182179 
L 350.888572 473.211414 
L 352.511064 473.347321 
L 355.756047 472.784277 
L 357.378539 472.609539 
L 359.001031 472.240648 
L 363.868506 470.49327 
L 367.11349 470.202041 
L 368.735982 469.21186 
L 370.358474 467.755712 
L 371.980965 465.872426 
L 375.225949 462.591239 
L 376.848441 460.358478 
L 378.470932 458.688762 
L 381.715916 456.281263 
L 383.338408 456.358925 
L 384.9609 456.125941 
L 388.205883 454.863946 
L 389.828375 454.456224 
L 391.450867 453.504874 
L 393.073359 452.048726 
L 394.69585 450.08778 
L 396.318342 447.369636 
L 397.940834 445.661089 
L 399.563326 443.292421 
L 401.185818 439.11813 
L 402.808309 435.798112 
L 404.430801 434.73027 
L 406.053293 432.031541 
L 407.675785 429.643458 
L 409.298277 428.381463 
L 410.920768 426.187533 
L 412.54326 424.498401 
L 414.165752 420.168787 
L 415.788244 414.130626 
L 417.410736 409.936919 
L 419.033227 407.704158 
L 423.900703 390.638101 
L 425.523195 385.784273 
L 427.145686 381.901211 
L 428.768178 378.38704 
L 430.39067 376.426094 
L 432.013162 376.19311 
L 433.635653 374.659301 
L 435.258145 371.14513 
L 436.880637 370.116118 
L 438.503129 370.81507 
L 440.125621 367.514467 
L 443.370604 364.039126 
L 444.993096 357.651489 
L 446.615588 352.118126 
L 448.23808 345.089784 
L 449.860571 339.944727 
L 451.483063 335.187976 
L 453.105555 329.033323 
L 454.728047 324.684293 
L 456.350539 316.04448 
L 457.97303 311.365391 
L 459.595522 309.598598 
L 461.218014 299.366729 
L 462.840506 298.512456 
L 464.462998 301.347091 
L 466.085489 301.191768 
L 467.707981 304.026404 
L 469.330473 308.763739 
L 470.952965 313.869966 
L 472.575457 324.859031 
L 474.197948 331.926204 
L 475.82044 337.245999 
L 477.442932 342.138657 
L 479.065424 349.885366 
L 480.687915 355.146914 
L 483.932899 364.543924 
L 485.555391 364.8934 
L 487.177883 364.446848 
L 488.800374 365.767089 
L 490.422866 366.116565 
L 492.045358 364.621586 
L 493.66785 362.058765 
L 495.290342 359.185299 
L 496.912833 357.69032 
L 498.535325 356.680724 
L 500.157817 354.952761 
L 501.780309 354.21498 
L 503.402801 353.185968 
L 505.025292 346.39061 
L 506.647784 341.750351 
L 508.270276 339.828235 
L 509.892768 336.644124 
L 511.51526 331.809712 
L 513.137751 322.606855 
L 514.760243 312.549725 
L 516.382735 306.589225 
L 519.627719 281.155169 
L 522.872702 253.585429 
L 527.740177 194.46581 
L 529.362669 177.807474 
L 530.985161 156.178819 
L 532.607653 141.578506 
L 535.852636 101.485891 
L 537.475128 90.244427 
L 539.09762 81.526953 
L 540.720112 79.352438 
L 542.342604 84.691648 
L 543.965095 86.924409 
L 545.587587 97.136862 
L 547.210079 112.572033 
L 548.832571 121.813721 
L 550.455063 135.365607 
L 552.077554 160.663756 
L 553.700046 197.436353 
L 555.322538 202.814394 
L 556.94503 197.222784 
L 558.567522 204.755925 
L 560.190013 188.097589 
L 561.812505 183.127269 
L 565.057489 161.673352 
L 566.679981 157.906782 
L 568.302472 171.2451 
L 569.924964 165.381676 
L 571.547456 188.272326 
L 573.169948 202.037781 
L 574.792439 208.774894 
L 576.414931 201.299999 
L 578.037423 219.647467 
L 579.659915 231.898528 
L 581.282407 249.818859 
L 582.904898 265.021046 
L 584.52739 275.252915 
L 586.149882 282.087104 
L 587.772374 289.542583 
L 589.394866 292.20248 
L 592.639849 305.618459 
L 595.884833 325.266753 
L 597.507325 333.071707 
L 602.3748 358.952315 
L 603.997292 369.650151 
L 605.619784 376.464925 
L 608.864767 386.522055 
L 610.487259 389.900319 
L 612.109751 390.968161 
L 613.732243 389.725581 
L 615.354734 394.268764 
L 618.599718 399.161422 
L 620.22221 402.209626 
L 621.844701 404.092911 
L 623.467193 406.558655 
L 625.089685 409.975749 
L 626.712177 412.305587 
L 629.95716 417.50889 
L 631.579652 419.916388 
L 633.202144 421.741427 
L 634.824636 423.236406 
L 636.447128 423.13933 
L 638.069619 423.896527 
L 639.692111 424.323663 
L 641.314603 425.818642 
L 642.937095 426.478763 
L 644.559587 428.362048 
L 647.80457 428.963922 
L 649.427062 431.235514 
L 651.049554 434.225471 
L 655.917029 440.7296 
L 657.539521 443.21476 
L 659.162013 444.49617 
L 660.784505 446.282379 
L 664.029488 448.340402 
L 665.65198 448.8452 
L 667.274472 450.223687 
L 668.896963 449.641227 
L 670.519455 450.825561 
L 672.141947 450.553747 
L 673.764439 451.951649 
L 675.386931 452.087557 
L 677.009422 451.524513 
L 678.631914 450.068364 
L 680.254406 449.660643 
L 681.876898 449.427659 
L 683.49939 450.631408 
L 685.121881 450.281933 
L 686.744373 450.650824 
L 688.366865 450.825561 
L 689.989357 451.388605 
L 691.611849 452.126387 
L 693.23434 452.495278 
L 694.856832 452.456447 
L 696.479324 452.844754 
L 698.101816 452.708846 
L 701.346799 453.582535 
L 702.969291 454.844531 
L 704.591783 455.543482 
L 706.214275 456.99963 
L 707.836767 457.504428 
L 709.459258 459.096483 
L 711.08175 461.135091 
L 712.704242 462.863053 
L 715.949225 463.950311 
L 717.571717 464.940492 
L 719.194209 465.561782 
L 722.439193 465.697689 
L 724.061684 465.522951 
L 724.061684 465.522951 
" style="fill:none;stroke:#d4351c;stroke-linecap:square;stroke-width:2;"/>
   </g>
   <g id="patch_3">
    <path d="M 68.575 476.745 
L 738.175 476.745 
" style="fill:none;stroke:#000000;stroke-linecap:square;stroke-linejoin:miter;stroke-width:0.8;"/>
   </g>
   <g id="text_22">
    <!-- Average COVID-19 cases in UK Nations, per capita -->
    <g transform="translate(255.384062 27.225)scale(0.12 -0.12)">
     <defs>
      <path d="M 1207 0 
L 152 0 
L 1759 4655 
L 3027 4655 
L 4632 0 
L 3577 0 
L 3232 1061 
L 1552 1061 
L 1207 0 
z
M 1802 1830 
L 2984 1830 
L 2411 3591 
L 2375 3591 
L 1802 1830 
z
" id="Inter-Bold-41" transform="scale(0.015625)"/>
      <path d="M 3641 3491 
L 2421 0 
L 1330 0 
L 109 3491 
L 1132 3491 
L 1857 993 
L 1893 993 
L 2616 3491 
L 3641 3491 
z
" id="Inter-Bold-76" transform="scale(0.015625)"/>
      <path d="M 1977 -68 
Q 1441 -68 1052 151 
Q 664 370 455 773 
Q 246 1177 246 1730 
Q 246 2268 455 2675 
Q 664 3082 1044 3309 
Q 1425 3536 1939 3536 
Q 2400 3536 2771 3340 
Q 3143 3145 3361 2751 
Q 3580 2357 3580 1764 
L 3580 1498 
L 1202 1498 
L 1202 1495 
Q 1202 1105 1416 880 
Q 1630 655 1993 655 
Q 2236 655 2413 757 
Q 2591 859 2664 1059 
L 3559 1000 
Q 3457 514 3041 223 
Q 2625 -68 1977 -68 
z
M 1202 2098 
L 2668 2098 
Q 2666 2409 2468 2611 
Q 2271 2814 1955 2814 
Q 1632 2814 1425 2604 
Q 1218 2395 1202 2098 
z
" id="Inter-Bold-65" transform="scale(0.015625)"/>
      <path d="M 386 0 
L 386 3491 
L 1325 3491 
L 1325 2882 
L 1361 2882 
Q 1457 3207 1681 3374 
Q 1905 3541 2200 3541 
Q 2341 3541 2461 3507 
Q 2582 3473 2677 3414 
L 2386 2614 
Q 2318 2648 2237 2671 
Q 2157 2695 2057 2695 
Q 1764 2695 1560 2495 
Q 1357 2295 1355 1975 
L 1355 0 
L 386 0 
z
" id="Inter-Bold-72" transform="scale(0.015625)"/>
      <path d="M 1382 -66 
Q 882 -66 552 195 
Q 223 457 223 975 
Q 223 1366 407 1588 
Q 591 1811 890 1914 
Q 1189 2018 1534 2050 
Q 1989 2095 2184 2145 
Q 2380 2195 2380 2364 
L 2380 2377 
Q 2380 2593 2244 2711 
Q 2109 2830 1861 2830 
Q 1600 2830 1445 2716 
Q 1291 2602 1241 2427 
L 346 2500 
Q 446 2977 842 3256 
Q 1239 3536 1866 3536 
Q 2255 3536 2593 3413 
Q 2932 3291 3140 3030 
Q 3348 2770 3348 2355 
L 3348 0 
L 2430 0 
L 2430 484 
L 2402 484 
Q 2275 241 2021 87 
Q 1768 -66 1382 -66 
z
M 1659 602 
Q 1977 602 2181 787 
Q 2386 973 2386 1248 
L 2386 1618 
Q 2330 1580 2210 1550 
Q 2091 1520 1956 1498 
Q 1821 1477 1714 1461 
Q 1459 1425 1303 1318 
Q 1148 1211 1148 1007 
Q 1148 807 1292 704 
Q 1436 602 1659 602 
z
" id="Inter-Bold-61" transform="scale(0.015625)"/>
      <path d="M 1959 -1359 
Q 1255 -1359 852 -1082 
Q 450 -805 364 -409 
L 1259 -289 
Q 1318 -430 1489 -547 
Q 1661 -664 1982 -664 
Q 2298 -664 2503 -514 
Q 2709 -364 2709 -20 
L 2709 618 
L 2668 618 
Q 2573 402 2332 226 
Q 2091 50 1673 50 
Q 1280 50 958 234 
Q 636 418 446 795 
Q 257 1173 257 1752 
Q 257 2348 451 2743 
Q 646 3139 967 3337 
Q 1289 3536 1671 3536 
Q 1964 3536 2161 3437 
Q 2359 3339 2482 3193 
Q 2605 3048 2668 2905 
L 2705 2905 
L 2705 3491 
L 3666 3491 
L 3666 -34 
Q 3666 -468 3446 -763 
Q 3227 -1059 2843 -1209 
Q 2459 -1359 1959 -1359 
z
M 1980 777 
Q 2330 777 2522 1036 
Q 2714 1295 2714 1757 
Q 2714 2216 2523 2491 
Q 2332 2766 1980 2766 
Q 1621 2766 1433 2484 
Q 1246 2202 1246 1757 
Q 1246 1305 1434 1041 
Q 1623 777 1980 777 
z
" id="Inter-Bold-67" transform="scale(0.015625)"/>
      <path id="Inter-Bold-20" transform="scale(0.015625)"/>
      <path d="M 4511 3025 
L 3516 3025 
Q 3459 3409 3188 3628 
Q 2918 3848 2514 3848 
Q 1973 3848 1647 3451 
Q 1321 3055 1321 2327 
Q 1321 1582 1649 1194 
Q 1977 807 2507 807 
Q 2900 807 3173 1012 
Q 3446 1218 3516 1591 
L 4511 1586 
Q 4459 1159 4207 782 
Q 3955 405 3522 170 
Q 3089 -64 2491 -64 
Q 1868 -64 1378 218 
Q 889 500 606 1034 
Q 323 1568 323 2327 
Q 323 3089 609 3623 
Q 896 4157 1386 4437 
Q 1877 4718 2491 4718 
Q 3030 4718 3463 4519 
Q 3896 4320 4172 3942 
Q 4448 3564 4511 3025 
z
" id="Inter-Bold-43" transform="scale(0.015625)"/>
      <path d="M 4682 2327 
Q 4682 1566 4394 1032 
Q 4107 498 3614 217 
Q 3121 -64 2502 -64 
Q 1882 -64 1389 218 
Q 896 500 609 1035 
Q 323 1570 323 2327 
Q 323 3089 609 3623 
Q 896 4157 1389 4437 
Q 1882 4718 2502 4718 
Q 3121 4718 3614 4437 
Q 4107 4157 4394 3623 
Q 4682 3089 4682 2327 
z
M 3684 2327 
Q 3684 3068 3361 3458 
Q 3039 3848 2502 3848 
Q 1966 3848 1643 3458 
Q 1321 3068 1321 2327 
Q 1321 1589 1643 1198 
Q 1966 807 2502 807 
Q 3039 807 3361 1198 
Q 3684 1589 3684 2327 
z
" id="Inter-Bold-4f" transform="scale(0.015625)"/>
      <path d="M 1246 4655 
L 2371 1118 
L 2414 1118 
L 3541 4655 
L 4632 4655 
L 3027 0 
L 1759 0 
L 152 4655 
L 1246 4655 
z
" id="Inter-Bold-56" transform="scale(0.015625)"/>
      <path d="M 1389 4655 
L 1389 0 
L 405 0 
L 405 4655 
L 1389 4655 
z
" id="Inter-Bold-49" transform="scale(0.015625)"/>
      <path d="M 2055 0 
L 405 0 
L 405 4655 
L 2068 4655 
Q 2771 4655 3278 4376 
Q 3786 4098 4059 3577 
Q 4332 3057 4332 2332 
Q 4332 1605 4058 1082 
Q 3784 559 3274 279 
Q 2764 0 2055 0 
z
M 1389 843 
L 2014 843 
Q 2671 843 3010 1197 
Q 3350 1552 3350 2332 
Q 3350 3107 3010 3459 
Q 2671 3811 2016 3811 
L 1389 3811 
L 1389 843 
z
" id="Inter-Bold-44" transform="scale(0.015625)"/>
      <path d="M 2561 2295 
L 2561 1527 
L 439 1527 
L 439 2295 
L 2561 2295 
z
" id="Inter-Bold-2d" transform="scale(0.015625)"/>
      <path d="M 2305 4655 
L 2305 0 
L 1323 0 
L 1323 3450 
L 1280 3450 
Q 1205 3334 961 3219 
Q 718 3105 332 3105 
L 332 3886 
Q 632 3886 857 4019 
Q 1082 4152 1209 4333 
Q 1336 4514 1341 4655 
L 2305 4655 
z
" id="Inter-Bold-31" transform="scale(0.015625)"/>
      <path d="M 2061 4732 
Q 2421 4732 2753 4612 
Q 3086 4493 3348 4227 
Q 3611 3961 3766 3523 
Q 3921 3086 3921 2448 
Q 3921 1659 3686 1096 
Q 3452 534 3028 235 
Q 2605 -64 2027 -64 
Q 1561 -64 1204 117 
Q 848 298 631 610 
Q 414 923 368 1314 
L 1339 1314 
Q 1396 1059 1577 919 
Q 1759 780 2027 780 
Q 2482 780 2718 1176 
Q 2955 1573 2957 2264 
L 2925 2264 
Q 2771 1957 2453 1782 
Q 2136 1607 1752 1607 
Q 1341 1607 1016 1801 
Q 691 1995 506 2334 
Q 321 2673 323 3109 
Q 321 3582 539 3949 
Q 757 4316 1149 4525 
Q 1541 4734 2061 4732 
z
M 2068 3959 
Q 1725 3959 1500 3722 
Q 1275 3486 1277 3136 
Q 1275 2791 1496 2555 
Q 1718 2320 2059 2320 
Q 2284 2320 2465 2431 
Q 2646 2543 2751 2729 
Q 2857 2916 2859 3141 
Q 2857 3366 2753 3551 
Q 2650 3736 2473 3847 
Q 2296 3959 2068 3959 
z
" id="Inter-Bold-39" transform="scale(0.015625)"/>
      <path d="M 1964 -68 
Q 1427 -68 1042 160 
Q 657 389 451 795 
Q 246 1202 246 1732 
Q 246 2268 453 2674 
Q 661 3080 1045 3308 
Q 1430 3536 1959 3536 
Q 2416 3536 2760 3370 
Q 3105 3205 3303 2905 
Q 3502 2605 3523 2200 
L 2609 2200 
Q 2571 2461 2406 2621 
Q 2241 2782 1975 2782 
Q 1639 2782 1434 2511 
Q 1230 2241 1230 1745 
Q 1230 1245 1433 971 
Q 1636 698 1975 698 
Q 2225 698 2395 849 
Q 2566 1000 2609 1280 
L 3523 1280 
Q 3500 880 3305 575 
Q 3111 270 2770 101 
Q 2430 -68 1964 -68 
z
" id="Inter-Bold-63" transform="scale(0.015625)"/>
      <path d="M 3291 2495 
L 2405 2441 
Q 2368 2609 2220 2729 
Q 2073 2850 1821 2850 
Q 1596 2850 1440 2755 
Q 1284 2661 1286 2505 
Q 1284 2380 1385 2293 
Q 1486 2207 1730 2155 
L 2361 2027 
Q 3368 1820 3371 1082 
Q 3371 739 3169 479 
Q 2968 220 2618 76 
Q 2268 -68 1816 -68 
Q 1123 -68 711 221 
Q 300 511 232 1011 
L 1184 1061 
Q 1230 848 1394 739 
Q 1559 630 1818 630 
Q 2073 630 2228 730 
Q 2384 830 2386 984 
Q 2380 1243 1939 1332 
L 1334 1452 
Q 321 1655 325 2450 
Q 323 2955 728 3245 
Q 1134 3536 1805 3536 
Q 2466 3536 2846 3256 
Q 3227 2977 3291 2495 
z
" id="Inter-Bold-73" transform="scale(0.015625)"/>
      <path d="M 386 0 
L 386 3491 
L 1355 3491 
L 1355 0 
L 386 0 
z
M 876 3941 
Q 662 3941 507 4085 
Q 353 4230 353 4432 
Q 353 4634 507 4777 
Q 662 4920 876 4920 
Q 1092 4920 1246 4777 
Q 1401 4634 1401 4432 
Q 1401 4230 1246 4085 
Q 1092 3941 876 3941 
z
" id="Inter-Bold-69" transform="scale(0.015625)"/>
      <path d="M 1355 2018 
L 1355 0 
L 386 0 
L 386 3491 
L 1309 3491 
L 1309 2875 
L 1350 2875 
Q 1468 3180 1739 3358 
Q 2011 3536 2400 3536 
Q 2946 3536 3275 3185 
Q 3605 2834 3605 2223 
L 3605 0 
L 2636 0 
L 2636 2050 
Q 2639 2370 2473 2551 
Q 2307 2732 2016 2732 
Q 1723 2732 1540 2544 
Q 1357 2357 1355 2018 
z
" id="Inter-Bold-6e" transform="scale(0.015625)"/>
      <path d="M 3286 4655 
L 4264 4655 
L 4264 1577 
Q 4264 1050 4016 683 
Q 3768 316 3333 125 
Q 2898 -66 2334 -66 
Q 1771 -66 1334 125 
Q 898 316 651 683 
Q 405 1050 405 1577 
L 405 4655 
L 1389 4655 
L 1389 1611 
Q 1389 1239 1658 1025 
Q 1927 811 2334 811 
Q 2748 811 3017 1025 
Q 3286 1239 3286 1611 
L 3286 4655 
z
" id="Inter-Bold-55" transform="scale(0.015625)"/>
      <path d="M 405 0 
L 405 4655 
L 1389 4655 
L 1389 2602 
L 1450 2602 
L 3125 4655 
L 4305 4655 
L 2577 2570 
L 4325 0 
L 3148 0 
L 1873 1914 
L 1389 1323 
L 1389 0 
L 405 0 
z
" id="Inter-Bold-4b" transform="scale(0.015625)"/>
      <path d="M 4298 4655 
L 4298 0 
L 3448 0 
L 1423 2930 
L 1389 2930 
L 1389 0 
L 405 0 
L 405 4655 
L 1268 4655 
L 3277 1727 
L 3318 1727 
L 3318 4655 
L 4298 4655 
z
" id="Inter-Bold-4e" transform="scale(0.015625)"/>
      <path d="M 2243 3491 
L 2243 2764 
L 1586 2764 
L 1586 1073 
Q 1586 873 1677 802 
Q 1768 732 1914 732 
Q 1982 732 2050 744 
Q 2118 757 2155 764 
L 2307 43 
Q 2234 20 2102 -10 
Q 1971 -41 1782 -48 
Q 1255 -70 935 181 
Q 616 432 618 945 
L 618 2764 
L 141 2764 
L 141 3491 
L 618 3491 
L 618 4327 
L 1586 4327 
L 1586 3491 
L 2243 3491 
z
" id="Inter-Bold-74" transform="scale(0.015625)"/>
      <path d="M 1964 -68 
Q 1434 -68 1049 158 
Q 664 384 455 789 
Q 246 1195 246 1732 
Q 246 2273 455 2678 
Q 664 3084 1049 3310 
Q 1434 3536 1964 3536 
Q 2493 3536 2878 3310 
Q 3264 3084 3473 2678 
Q 3682 2273 3682 1732 
Q 3682 1195 3473 789 
Q 3264 384 2878 158 
Q 2493 -68 1964 -68 
z
M 1968 682 
Q 2327 682 2512 982 
Q 2698 1282 2698 1739 
Q 2698 2195 2512 2496 
Q 2327 2798 1968 2798 
Q 1602 2798 1416 2496 
Q 1230 2195 1230 1739 
Q 1230 1282 1416 982 
Q 1602 682 1968 682 
z
" id="Inter-Bold-6f" transform="scale(0.015625)"/>
      <path d="M 1439 636 
L 1414 386 
Q 1384 86 1301 -212 
Q 1218 -511 1128 -754 
Q 1039 -998 984 -1136 
L 357 -1136 
Q 391 -1002 450 -763 
Q 509 -525 561 -226 
Q 614 73 627 382 
L 639 636 
L 1439 636 
z
" id="Inter-Bold-2c" transform="scale(0.015625)"/>
      <path d="M 386 -1309 
L 386 3491 
L 1341 3491 
L 1341 2905 
L 1384 2905 
Q 1450 3048 1570 3193 
Q 1691 3339 1888 3437 
Q 2086 3536 2377 3536 
Q 2761 3536 3081 3337 
Q 3402 3139 3596 2740 
Q 3791 2341 3791 1741 
Q 3791 1157 3602 756 
Q 3414 355 3093 149 
Q 2773 -57 2375 -57 
Q 2093 -57 1896 36 
Q 1700 130 1576 272 
Q 1452 414 1384 559 
L 1355 559 
L 1355 -1309 
L 386 -1309 
z
M 1334 1745 
Q 1334 1280 1526 997 
Q 1718 714 2068 714 
Q 2425 714 2613 1001 
Q 2802 1289 2802 1745 
Q 2802 2200 2614 2483 
Q 2427 2766 2068 2766 
Q 1716 2766 1525 2490 
Q 1334 2214 1334 1745 
z
" id="Inter-Bold-70" transform="scale(0.015625)"/>
     </defs>
     <use xlink:href="#Inter-Bold-41"/>
     <use x="74.786942" xlink:href="#Inter-Bold-76"/>
     <use x="133.380707" xlink:href="#Inter-Bold-65"/>
     <use x="193.146347" xlink:href="#Inter-Bold-72"/>
     <use x="236.008575" xlink:href="#Inter-Bold-61"/>
     <use x="294.034149" xlink:href="#Inter-Bold-67"/>
     <use x="357.350922" xlink:href="#Inter-Bold-65"/>
     <use x="417.116562" xlink:href="#Inter-Bold-20"/>
     <use x="440.305481" xlink:href="#Inter-Bold-43"/>
     <use x="515.51857" xlink:href="#Inter-Bold-4f"/>
     <use x="593.714615" xlink:href="#Inter-Bold-56"/>
     <use x="668.501556" xlink:href="#Inter-Bold-49"/>
     <use x="696.555542" xlink:href="#Inter-Bold-44"/>
     <use x="769.282837" xlink:href="#Inter-Bold-2d"/>
     <use x="816.157852" xlink:href="#Inter-Bold-31"/>
     <use x="863.565536" xlink:href="#Inter-Bold-39"/>
     <use x="929.581177" xlink:href="#Inter-Bold-20"/>
     <use x="952.770096" xlink:href="#Inter-Bold-63"/>
     <use x="1011.505905" xlink:href="#Inter-Bold-61"/>
     <use x="1069.531479" xlink:href="#Inter-Bold-73"/>
     <use x="1125.710464" xlink:href="#Inter-Bold-65"/>
     <use x="1185.476105" xlink:href="#Inter-Bold-73"/>
     <use x="1241.65509" xlink:href="#Inter-Bold-20"/>
     <use x="1264.844009" xlink:href="#Inter-Bold-69"/>
     <use x="1292.045715" xlink:href="#Inter-Bold-6e"/>
     <use x="1354.22612" xlink:href="#Inter-Bold-20"/>
     <use x="1377.415039" xlink:href="#Inter-Bold-55"/>
     <use x="1450.355392" xlink:href="#Inter-Bold-4b"/>
     <use x="1519.318481" xlink:href="#Inter-Bold-20"/>
     <use x="1542.507401" xlink:href="#Inter-Bold-4e"/>
     <use x="1616.015945" xlink:href="#Inter-Bold-61"/>
     <use x="1674.041519" xlink:href="#Inter-Bold-74"/>
     <use x="1712.890961" xlink:href="#Inter-Bold-69"/>
     <use x="1740.092667" xlink:href="#Inter-Bold-6f"/>
     <use x="1801.456314" xlink:href="#Inter-Bold-6e"/>
     <use x="1863.636719" xlink:href="#Inter-Bold-73"/>
     <use x="1919.815704" xlink:href="#Inter-Bold-2c"/>
     <use x="1950.106903" xlink:href="#Inter-Bold-20"/>
     <use x="1973.295822" xlink:href="#Inter-Bold-70"/>
     <use x="2036.54158" xlink:href="#Inter-Bold-65"/>
     <use x="2096.30722" xlink:href="#Inter-Bold-72"/>
     <use x="2139.169449" xlink:href="#Inter-Bold-20"/>
     <use x="2162.358368" xlink:href="#Inter-Bold-63"/>
     <use x="2221.094177" xlink:href="#Inter-Bold-61"/>
     <use x="2279.119751" xlink:href="#Inter-Bold-70"/>
     <use x="2342.365509" xlink:href="#Inter-Bold-69"/>
     <use x="2369.567215" xlink:href="#Inter-Bold-74"/>
     <use x="2408.416656" xlink:href="#Inter-Bold-61"/>
    </g>
   </g>
   <g id="legend_1">
    <g id="patch_4">
     <path d="M 621.601562 98.614063 
L 731.175 98.614063 
Q 733.175 98.614063 733.175 96.614063 
L 733.175 40.225 
Q 733.175 38.225 731.175 38.225 
L 621.601562 38.225 
Q 619.601562 38.225 619.601562 40.225 
L 619.601562 96.614063 
Q 619.601562 98.614063 621.601562 98.614063 
z
" style="fill:#ffffff;opacity:0.8;stroke:#cccccc;stroke-linejoin:miter;"/>
    </g>
    <g id="line2d_31">
     <path d="M 623.601562 45.998438 
L 643.601562 45.998438 
" style="fill:none;stroke:#d4351c;stroke-linecap:square;stroke-width:2;"/>
    </g>
    <g id="line2d_32"/>
    <g id="text_23">
     <!-- Wales -->
     <g transform="translate(651.601562 49.498438)scale(0.1 -0.1)">
      <defs>
       <path d="M 1409 0 
L 136 4655 
L 709 4655 
L 1682 864 
L 1727 864 
L 2718 4655 
L 3355 4655 
L 4346 864 
L 4391 864 
L 5364 4655 
L 5936 4655 
L 4664 0 
L 4082 0 
L 3055 3709 
L 3018 3709 
L 1991 0 
L 1409 0 
z
" id="Inter-Regular-57" transform="scale(0.015625)"/>
      </defs>
      <use xlink:href="#Inter-Regular-57"/>
      <use x="94.886383" xlink:href="#Inter-Regular-61"/>
      <use x="151.278442" xlink:href="#Inter-Regular-6c"/>
      <use x="175.000031" xlink:href="#Inter-Regular-65"/>
      <use x="233.238678" xlink:href="#Inter-Regular-73"/>
     </g>
    </g>
    <g id="line2d_33">
     <path d="M 623.601562 60.317188 
L 643.601562 60.317188 
" style="fill:none;stroke:#003078;stroke-linecap:square;stroke-width:2;"/>
    </g>
    <g id="line2d_34"/>
    <g id="text_24">
     <!-- Scotland -->
     <g transform="translate(651.601562 63.817188)scale(0.1 -0.1)">
      <use xlink:href="#Inter-Regular-53"/>
      <use x="63.778427" xlink:href="#Inter-Regular-63"/>
      <use x="119.602295" xlink:href="#Inter-Regular-6f"/>
      <use x="179.261398" xlink:href="#Inter-Regular-74"/>
      <use x="215.625046" xlink:href="#Inter-Regular-6c"/>
      <use x="239.346634" xlink:href="#Inter-Regular-61"/>
      <use x="295.738693" xlink:href="#Inter-Regular-6e"/>
      <use x="354.261429" xlink:href="#Inter-Regular-64"/>
     </g>
    </g>
    <g id="line2d_35">
     <path d="M 623.601562 74.635938 
L 643.601562 74.635938 
" style="fill:none;stroke:#ffdd00;stroke-linecap:square;stroke-width:2;"/>
    </g>
    <g id="line2d_36"/>
    <g id="text_25">
     <!-- Northern Ireland -->
     <g transform="translate(651.601562 78.135938)scale(0.1 -0.1)">
      <defs>
       <path d="M 1027 2100 
L 1027 0 
L 491 0 
L 491 4655 
L 1027 4655 
L 1027 2945 
L 1073 2945 
Q 1196 3216 1442 3376 
Q 1689 3536 2100 3536 
Q 2636 3536 2963 3213 
Q 3291 2891 3291 2218 
L 3291 0 
L 2755 0 
L 2755 2182 
Q 2755 2598 2540 2826 
Q 2325 3055 1946 3055 
Q 1548 3055 1287 2806 
Q 1027 2557 1027 2100 
z
" id="Inter-Regular-68" transform="scale(0.015625)"/>
       <path d="M 1127 4655 
L 1127 0 
L 564 0 
L 564 4655 
L 1127 4655 
z
" id="Inter-Regular-49" transform="scale(0.015625)"/>
      </defs>
      <use xlink:href="#Inter-Regular-4e"/>
      <use x="75.284103" xlink:href="#Inter-Regular-6f"/>
      <use x="134.943207" xlink:href="#Inter-Regular-72"/>
      <use x="173.295486" xlink:href="#Inter-Regular-74"/>
      <use x="209.659134" xlink:href="#Inter-Regular-68"/>
      <use x="268.750061" xlink:href="#Inter-Regular-65"/>
      <use x="326.988708" xlink:href="#Inter-Regular-72"/>
      <use x="365.340988" xlink:href="#Inter-Regular-6e"/>
      <use x="423.863724" xlink:href="#Inter-Regular-20"/>
      <use x="451.988724" xlink:href="#Inter-Regular-49"/>
      <use x="478.40918" xlink:href="#Inter-Regular-72"/>
      <use x="516.761459" xlink:href="#Inter-Regular-65"/>
      <use x="575.000107" xlink:href="#Inter-Regular-6c"/>
      <use x="598.721695" xlink:href="#Inter-Regular-61"/>
      <use x="655.113754" xlink:href="#Inter-Regular-6e"/>
      <use x="713.63649" xlink:href="#Inter-Regular-64"/>
     </g>
    </g>
    <g id="line2d_37">
     <path d="M 623.601562 88.954688 
L 643.601562 88.954688 
" style="fill:none;stroke:#5694ca;stroke-linecap:square;stroke-width:2;"/>
    </g>
    <g id="line2d_38"/>
    <g id="text_26">
     <!-- England -->
     <g transform="translate(651.601562 92.454688)scale(0.1 -0.1)">
      <defs>
       <path d="M 564 0 
L 564 4655 
L 3373 4655 
L 3373 4155 
L 1127 4155 
L 1127 2582 
L 3227 2582 
L 3227 2082 
L 1127 2082 
L 1127 500 
L 3409 500 
L 3409 0 
L 564 0 
z
" id="Inter-Regular-45" transform="scale(0.015625)"/>
      </defs>
      <use xlink:href="#Inter-Regular-45"/>
      <use x="59.801147" xlink:href="#Inter-Regular-6e"/>
      <use x="118.323883" xlink:href="#Inter-Regular-67"/>
      <use x="179.261398" xlink:href="#Inter-Regular-6c"/>
      <use x="202.982986" xlink:href="#Inter-Regular-61"/>
      <use x="259.375046" xlink:href="#Inter-Regular-6e"/>
      <use x="317.897781" xlink:href="#Inter-Regular-64"/>
     </g>
    </g>
   </g>
  </g>
 </g>
 <defs>
  <clipPath id="p35e821fdfb">
   <rect height="443.52" width="669.6" x="68.575" y="33.225"/>
  </clipPath>
 </defs>
</svg>
