<?xml version="1.0" encoding="utf-8" standalone="no"?>
<!DOCTYPE svg PUBLIC "-//W3C//DTD SVG 1.1//EN"
  "http://www.w3.org/Graphics/SVG/1.1/DTD/svg11.dtd">
<!-- Created with matplotlib (https://matplotlib.org/) -->
<svg version="1.1" viewBox="0 0 756.175 511.27625" xmlns="http://www.w3.org/2000/svg" xmlns:xlink="http://www.w3.org/1999/xlink">
 <metadata>
  <rdf:RDF xmlns:cc="http://creativecommons.org/ns#" xmlns:dc="http://purl.org/dc/elements/1.1/" xmlns:rdf="http://www.w3.org/1999/02/22-rdf-syntax-ns#">
   <cc:Work>
    <dc:type rdf:resource="http://purl.org/dc/dcmitype/StillImage"/>
    <dc:date>2021-02-15T16:18:05.749164</dc:date>
    <dc:format>image/svg+xml</dc:format>
    <dc:creator>
     <cc:Agent>
      <dc:title>Matplotlib v3.3.4, https://matplotlib.org/</dc:title>
     </cc:Agent>
    </dc:creator>
   </cc:Work>
  </rdf:RDF>
 </metadata>
 <defs>
  <style type="text/css">*{stroke-linecap:butt;stroke-linejoin:round;}</style>
 </defs>
 <g id="figure_1">
  <g id="patch_1">
   <path d="M 0 511.27625 
L 756.175 511.27625 
L 756.175 0 
L 0 0 
z
" style="fill:#ffffff;"/>
  </g>
  <g id="axes_1">
   <g id="patch_2">
    <path d="M 68.575 476.745 
L 738.175 476.745 
L 738.175 33.225 
L 68.575 33.225 
z
" style="fill:#ffffff;"/>
   </g>
   <g id="matplotlib.axis_1">
    <g id="xtick_1">
     <g id="line2d_1">
      <defs>
       <path d="M 0 0 
L 0 3.5 
" id="mbb3234e6db" style="stroke:#000000;stroke-width:0.8;"/>
      </defs>
      <g>
       <use style="stroke:#000000;stroke-width:0.8;" x="68.575" xlink:href="#mbb3234e6db" y="476.745"/>
      </g>
     </g>
     <g id="text_1">
      <!-- 01 Mar -->
      <g transform="translate(52.538281 491.018438)scale(0.1 -0.1)">
       <defs>
        <path d="M 31.25 -1 
Q 19.21875 -1 12.59375 8.765625 
Q 5.96875 18.53125 5.96875 36.359375 
Q 5.96875 54.046875 12.640625 63.875 
Q 19.3125 73.71875 31.25 73.71875 
Q 43.1875 73.71875 49.859375 63.875 
Q 56.53125 54.046875 56.53125 36.359375 
Q 56.53125 18.53125 49.90625 8.765625 
Q 43.296875 -1 31.25 -1 
z
M 31.25 6.8125 
Q 39.203125 6.8125 43.609375 14.484375 
Q 48.015625 22.15625 48.015625 36.359375 
Q 48.015625 50.53125 43.578125 58.28125 
Q 39.140625 66.046875 31.25 66.046875 
Q 23.375 66.046875 18.921875 58.28125 
Q 14.484375 50.53125 14.484375 36.359375 
Q 14.484375 22.15625 18.90625 14.484375 
Q 23.328125 6.8125 31.25 6.8125 
z
" id="Inter-Regular-48"/>
        <path d="M 30.828125 72.734375 
L 30.828125 0 
L 22.015625 0 
L 22.015625 59.9375 
L 21.453125 59.9375 
Q 20.953125 58.953125 18.890625 57.6875 
Q 16.828125 56.421875 13.5625 55.484375 
Q 10.296875 54.546875 6.109375 54.546875 
L 6.109375 61.9375 
Q 10.328125 61.9375 13.421875 63.453125 
Q 16.515625 64.984375 18.59375 67.046875 
Q 20.671875 69.109375 21.75 70.765625 
Q 22.828125 72.4375 23.015625 72.734375 
z
" id="Inter-Regular-49"/>
        <path id="Inter-Regular-32"/>
        <path d="M 8.8125 72.734375 
L 19.3125 72.734375 
L 44.03125 12.359375 
L 44.890625 12.359375 
L 69.609375 72.734375 
L 80.109375 72.734375 
L 80.109375 0 
L 71.875 0 
L 71.875 55.25 
L 71.171875 55.25 
L 48.4375 0 
L 40.484375 0 
L 17.75 55.25 
L 17.046875 55.25 
L 17.046875 0 
L 8.8125 0 
z
" id="Inter-Regular-77"/>
        <path d="M 23.71875 -1.28125 
Q 18.53125 -1.28125 14.3125 0.6875 
Q 10.09375 2.65625 7.59375 6.40625 
Q 5.109375 10.15625 5.109375 15.484375 
Q 5.109375 20.171875 6.953125 23.09375 
Q 8.8125 26.03125 11.890625 27.703125 
Q 14.984375 29.375 18.734375 30.203125 
Q 22.484375 31.03125 26.28125 31.53125 
Q 31.25 32.171875 34.359375 32.5 
Q 37.46875 32.84375 38.90625 33.65625 
Q 40.34375 34.484375 40.34375 36.5 
L 40.34375 36.796875 
Q 40.34375 42.046875 37.484375 44.953125 
Q 34.625 47.875 28.84375 47.875 
Q 22.828125 47.875 19.421875 45.234375 
Q 16.015625 42.609375 14.625 39.625 
L 6.671875 42.46875 
Q 8.8125 47.4375 12.375 50.21875 
Q 15.953125 53.015625 20.1875 54.125 
Q 24.4375 55.25 28.546875 55.25 
Q 31.1875 55.25 34.609375 54.625 
Q 38.03125 54.015625 41.25 52.09375 
Q 44.46875 50.171875 46.59375 46.296875 
Q 48.71875 42.4375 48.71875 35.9375 
L 48.71875 0 
L 40.34375 0 
L 40.34375 7.390625 
L 39.921875 7.390625 
Q 39.0625 5.609375 37.078125 3.578125 
Q 35.09375 1.5625 31.78125 0.140625 
Q 28.484375 -1.28125 23.71875 -1.28125 
z
M 25 6.25 
Q 29.96875 6.25 33.390625 8.203125 
Q 36.828125 10.15625 38.578125 13.234375 
Q 40.34375 16.328125 40.34375 19.75 
L 40.34375 27.421875 
Q 39.8125 26.78125 38.015625 26.265625 
Q 36.21875 25.75 33.890625 25.375 
Q 31.578125 25 29.390625 24.734375 
Q 27.203125 24.46875 25.859375 24.296875 
Q 22.59375 23.859375 19.765625 22.921875 
Q 16.9375 21.984375 15.21875 20.109375 
Q 13.5 18.25 13.5 15.0625 
Q 13.5 10.6875 16.75 8.46875 
Q 20 6.25 25 6.25 
z
" id="Inter-Regular-97"/>
        <path d="M 7.671875 0 
L 7.671875 54.546875 
L 15.765625 54.546875 
L 15.765625 46.3125 
L 16.34375 46.3125 
Q 17.796875 50.359375 21.703125 52.875 
Q 25.609375 55.390625 30.546875 55.390625 
Q 32.8125 55.390625 34.515625 54.859375 
Q 36.21875 54.328125 37.5 53.40625 
L 34.65625 46.3125 
Q 33.765625 46.765625 32.578125 47.03125 
Q 31.390625 47.296875 29.828125 47.296875 
Q 23.859375 47.296875 19.953125 43.65625 
Q 16.046875 40.015625 16.046875 34.515625 
L 16.046875 0 
z
" id="Inter-Regular-114"/>
       </defs>
       <use xlink:href="#Inter-Regular-48"/>
       <use x="62.500015" xlink:href="#Inter-Regular-49"/>
       <use x="106.676163" xlink:href="#Inter-Regular-32"/>
       <use x="134.801163" xlink:href="#Inter-Regular-77"/>
       <use x="225.99437" xlink:href="#Inter-Regular-97"/>
       <use x="282.386429" xlink:href="#Inter-Regular-114"/>
      </g>
     </g>
    </g>
    <g id="xtick_2">
     <g id="line2d_2">
      <g>
       <use style="stroke:#000000;stroke-width:0.8;" x="127.599571" xlink:href="#mbb3234e6db" y="476.745"/>
      </g>
     </g>
     <g id="text_2">
      <!-- 01 Apr -->
      <g transform="translate(112.514415 491.116875)scale(0.1 -0.1)">
       <defs>
        <path d="M 11.796875 0 
L 2.5625 0 
L 29.265625 72.734375 
L 38.359375 72.734375 
L 65.0625 0 
L 55.828125 0 
L 48.515625 20.59375 
L 19.109375 20.59375 
z
M 21.875 28.40625 
L 45.734375 28.40625 
L 34.09375 61.21875 
L 33.53125 61.21875 
z
" id="Inter-Regular-65"/>
        <path d="M 7.671875 -20.453125 
L 7.671875 54.546875 
L 15.765625 54.546875 
L 15.765625 45.875 
L 16.765625 45.875 
Q 17.6875 47.296875 19.328125 49.515625 
Q 20.984375 51.734375 24.09375 53.484375 
Q 27.203125 55.25 32.53125 55.25 
Q 39.421875 55.25 44.671875 51.796875 
Q 49.9375 48.359375 52.875 42.03125 
Q 55.828125 35.71875 55.828125 27.125 
Q 55.828125 18.46875 52.875 12.125 
Q 49.9375 5.78125 44.703125 2.3125 
Q 39.484375 -1.140625 32.671875 -1.140625 
Q 27.421875 -1.140625 24.25 0.609375 
Q 21.09375 2.375 19.390625 4.625 
Q 17.6875 6.890625 16.765625 8.375 
L 16.046875 8.375 
L 16.046875 -20.453125 
z
M 15.90625 27.265625 
Q 15.90625 18 19.9375 12.1875 
Q 23.96875 6.390625 31.53125 6.390625 
Q 36.796875 6.390625 40.328125 9.171875 
Q 43.859375 11.96875 45.640625 16.703125 
Q 47.4375 21.453125 47.4375 27.265625 
Q 47.4375 33.03125 45.671875 37.65625 
Q 43.921875 42.296875 40.390625 45.015625 
Q 36.859375 47.734375 31.53125 47.734375 
Q 23.859375 47.734375 19.875 42.078125 
Q 15.90625 36.4375 15.90625 27.265625 
z
" id="Inter-Regular-112"/>
       </defs>
       <use xlink:href="#Inter-Regular-48"/>
       <use x="62.500015" xlink:href="#Inter-Regular-49"/>
       <use x="106.676163" xlink:href="#Inter-Regular-32"/>
       <use x="134.801163" xlink:href="#Inter-Regular-65"/>
       <use x="202.41481" xlink:href="#Inter-Regular-112"/>
       <use x="263.352325" xlink:href="#Inter-Regular-114"/>
      </g>
     </g>
    </g>
    <g id="xtick_3">
     <g id="line2d_3">
      <g>
       <use style="stroke:#000000;stroke-width:0.8;" x="184.720124" xlink:href="#mbb3234e6db" y="476.745"/>
      </g>
     </g>
     <g id="text_3">
      <!-- 01 May -->
      <g transform="translate(167.816999 491.116875)scale(0.1 -0.1)">
       <defs>
        <path d="M 12.78125 -21.171875 
Q 10.65625 -21.171875 8.984375 -20.828125 
Q 7.3125 -20.484375 6.671875 -20.171875 
L 8.8125 -12.78125 
Q 13.390625 -13.953125 16.453125 -12.71875 
Q 19.53125 -11.5 21.734375 -5.390625 
L 23.578125 -0.28125 
L 3.40625 54.546875 
L 12.5 54.546875 
L 27.5625 11.078125 
L 28.125 11.078125 
L 43.1875 54.546875 
L 52.28125 54.546875 
L 28.84375 -8.8125 
Q 24.21875 -21.171875 12.78125 -21.171875 
z
" id="Inter-Regular-121"/>
       </defs>
       <use xlink:href="#Inter-Regular-48"/>
       <use x="62.500015" xlink:href="#Inter-Regular-49"/>
       <use x="106.676163" xlink:href="#Inter-Regular-32"/>
       <use x="134.801163" xlink:href="#Inter-Regular-77"/>
       <use x="225.99437" xlink:href="#Inter-Regular-97"/>
       <use x="282.386429" xlink:href="#Inter-Regular-121"/>
      </g>
     </g>
    </g>
    <g id="xtick_4">
     <g id="line2d_4">
      <g>
       <use style="stroke:#000000;stroke-width:0.8;" x="243.744695" xlink:href="#mbb3234e6db" y="476.745"/>
      </g>
     </g>
     <g id="text_4">
      <!-- 01 Jun -->
      <g transform="translate(228.46032 491.018438)scale(0.1 -0.1)">
       <defs>
        <path d="M 36.65625 72.734375 
L 45.453125 72.734375 
L 45.453125 20.734375 
Q 45.453125 10.265625 39.828125 4.625 
Q 34.203125 -1 24.71875 -1 
Q 18.75 -1 14.09375 1.1875 
Q 9.453125 3.375 6.78125 7.421875 
Q 4.125 11.46875 4.125 17.046875 
L 12.78125 17.046875 
Q 12.78125 12.421875 16.15625 9.609375 
Q 19.53125 6.8125 24.71875 6.8125 
Q 30.4375 6.8125 33.546875 10.375 
Q 36.65625 13.953125 36.65625 20.734375 
z
" id="Inter-Regular-74"/>
        <path d="M 42.046875 22.296875 
L 42.046875 54.546875 
L 50.421875 54.546875 
L 50.421875 0 
L 42.046875 0 
L 42.046875 9.234375 
L 41.484375 9.234375 
Q 39.5625 5.078125 35.515625 2.1875 
Q 31.46875 -0.703125 25.28125 -0.703125 
Q 17.609375 -0.703125 12.640625 4.375 
Q 7.671875 9.453125 7.671875 19.890625 
L 7.671875 54.546875 
L 16.046875 54.546875 
L 16.046875 20.453125 
Q 16.046875 14.484375 19.40625 10.9375 
Q 22.765625 7.390625 27.984375 7.390625 
Q 31.109375 7.390625 34.359375 8.984375 
Q 37.609375 10.578125 39.828125 13.875 
Q 42.046875 17.1875 42.046875 22.296875 
z
" id="Inter-Regular-117"/>
        <path d="M 16.046875 32.8125 
L 16.046875 0 
L 7.671875 0 
L 7.671875 54.546875 
L 15.765625 54.546875 
L 15.765625 46.015625 
L 16.484375 46.015625 
Q 18.390625 50.171875 22.296875 52.703125 
Q 26.203125 55.25 32.390625 55.25 
Q 40.65625 55.25 45.75 50.171875 
Q 50.859375 45.09375 50.859375 34.65625 
L 50.859375 0 
L 42.46875 0 
L 42.46875 34.09375 
Q 42.46875 40.515625 39.125 44.125 
Q 35.796875 47.734375 29.96875 47.734375 
Q 23.96875 47.734375 20 43.84375 
Q 16.046875 39.953125 16.046875 32.8125 
z
" id="Inter-Regular-110"/>
       </defs>
       <use xlink:href="#Inter-Regular-48"/>
       <use x="62.500015" xlink:href="#Inter-Regular-49"/>
       <use x="106.676163" xlink:href="#Inter-Regular-32"/>
       <use x="134.801163" xlink:href="#Inter-Regular-74"/>
       <use x="189.062531" xlink:href="#Inter-Regular-117"/>
       <use x="247.159134" xlink:href="#Inter-Regular-110"/>
      </g>
     </g>
    </g>
    <g id="xtick_5">
     <g id="line2d_5">
      <g>
       <use style="stroke:#000000;stroke-width:0.8;" x="300.865247" xlink:href="#mbb3234e6db" y="476.745"/>
      </g>
     </g>
     <g id="text_5">
      <!-- 01 Jul -->
      <g transform="translate(287.321497 491.018438)scale(0.1 -0.1)">
       <defs>
        <path d="M 16.046875 72.734375 
L 16.046875 0 
L 7.671875 0 
L 7.671875 72.734375 
z
" id="Inter-Regular-108"/>
       </defs>
       <use xlink:href="#Inter-Regular-48"/>
       <use x="62.500015" xlink:href="#Inter-Regular-49"/>
       <use x="106.676163" xlink:href="#Inter-Regular-32"/>
       <use x="134.801163" xlink:href="#Inter-Regular-74"/>
       <use x="189.062531" xlink:href="#Inter-Regular-117"/>
       <use x="247.159134" xlink:href="#Inter-Regular-108"/>
      </g>
     </g>
    </g>
    <g id="xtick_6">
     <g id="line2d_6">
      <g>
       <use style="stroke:#000000;stroke-width:0.8;" x="359.889818" xlink:href="#mbb3234e6db" y="476.745"/>
      </g>
     </g>
     <g id="text_6">
      <!-- 01 Aug -->
      <g transform="translate(343.817943 491.116875)scale(0.1 -0.1)">
       <defs>
        <path d="M 29.6875 -21.59375 
Q 20.5625 -21.59375 15.25 -18.265625 
Q 9.9375 -14.953125 7.390625 -10.65625 
L 14.0625 -5.96875 
Q 15.203125 -7.453125 16.9375 -9.390625 
Q 18.6875 -11.328125 21.71875 -12.765625 
Q 24.75 -14.203125 29.6875 -14.203125 
Q 36.296875 -14.203125 40.59375 -11 
Q 44.890625 -7.8125 44.890625 -1 
L 44.890625 10.078125 
L 44.171875 10.078125 
Q 43.25 8.59375 41.5625 6.40625 
Q 39.875 4.21875 36.734375 2.53125 
Q 33.59375 0.859375 28.265625 0.859375 
Q 21.65625 0.859375 16.421875 3.984375 
Q 11.1875 7.109375 8.140625 13.0625 
Q 5.109375 19.03125 5.109375 27.5625 
Q 5.109375 35.9375 8.0625 42.171875 
Q 11.015625 48.40625 16.265625 51.828125 
Q 21.515625 55.25 28.40625 55.25 
Q 33.734375 55.25 36.875 53.484375 
Q 40.015625 51.734375 41.703125 49.515625 
Q 43.390625 47.296875 44.3125 45.875 
L 45.171875 45.875 
L 45.171875 54.546875 
L 53.265625 54.546875 
L 53.265625 -1.5625 
Q 53.265625 -8.59375 50.078125 -13.015625 
Q 46.90625 -17.4375 41.5625 -19.515625 
Q 36.21875 -21.59375 29.6875 -21.59375 
z
M 29.40625 8.375 
Q 36.96875 8.375 41 13.5 
Q 45.03125 18.640625 45.03125 27.703125 
Q 45.03125 36.546875 41.046875 42.140625 
Q 37.078125 47.734375 29.40625 47.734375 
Q 24.078125 47.734375 20.546875 45.03125 
Q 17.015625 42.328125 15.25 37.78125 
Q 13.5 33.234375 13.5 27.703125 
Q 13.5 19.171875 17.5 13.765625 
Q 21.515625 8.375 29.40625 8.375 
z
" id="Inter-Regular-103"/>
       </defs>
       <use xlink:href="#Inter-Regular-48"/>
       <use x="62.500015" xlink:href="#Inter-Regular-49"/>
       <use x="106.676163" xlink:href="#Inter-Regular-32"/>
       <use x="134.801163" xlink:href="#Inter-Regular-65"/>
       <use x="202.41481" xlink:href="#Inter-Regular-117"/>
       <use x="260.511414" xlink:href="#Inter-Regular-103"/>
      </g>
     </g>
    </g>
    <g id="xtick_7">
     <g id="line2d_7">
      <g>
       <use style="stroke:#000000;stroke-width:0.8;" x="418.914389" xlink:href="#mbb3234e6db" y="476.745"/>
      </g>
     </g>
     <g id="text_7">
      <!-- 01 Sep -->
      <g transform="translate(403.026889 491.116875)scale(0.1 -0.1)">
       <defs>
        <path d="M 48.578125 54.546875 
Q 47.9375 59.9375 43.390625 62.921875 
Q 38.84375 65.90625 32.25 65.90625 
Q 25 65.90625 20.59375 62.484375 
Q 16.1875 59.0625 16.1875 53.828125 
Q 16.1875 49.921875 18.578125 47.53125 
Q 20.984375 45.140625 24.265625 43.796875 
Q 27.5625 42.46875 30.25 41.765625 
L 37.640625 39.765625 
Q 40.484375 39.03125 43.984375 37.71875 
Q 47.484375 36.40625 50.6875 34.140625 
Q 53.90625 31.890625 56 28.375 
Q 58.09375 24.859375 58.09375 19.75 
Q 58.09375 13.84375 55.015625 9.078125 
Q 51.953125 4.328125 46.078125 1.515625 
Q 40.203125 -1.28125 31.8125 -1.28125 
Q 20.09375 -1.28125 13.203125 4.25 
Q 6.328125 9.796875 5.6875 18.75 
L 14.78125 18.75 
Q 15.125 14.625 17.5625 11.9375 
Q 20 9.265625 23.734375 7.96875 
Q 27.484375 6.671875 31.8125 6.671875 
Q 36.859375 6.671875 40.875 8.328125 
Q 44.890625 9.984375 47.234375 12.9375 
Q 49.578125 15.90625 49.578125 19.890625 
Q 49.578125 23.515625 47.546875 25.78125 
Q 45.53125 28.046875 42.21875 29.46875 
Q 38.921875 30.890625 35.09375 31.953125 
L 26.140625 34.515625 
Q 17.609375 36.96875 12.640625 41.515625 
Q 7.671875 46.0625 7.671875 53.40625 
Q 7.671875 59.515625 10.984375 64.078125 
Q 14.3125 68.640625 19.9375 71.171875 
Q 25.5625 73.71875 32.53125 73.71875 
Q 39.5625 73.71875 45.03125 71.21875 
Q 50.5 68.71875 53.703125 64.375 
Q 56.921875 60.046875 57.109375 54.546875 
z
" id="Inter-Regular-83"/>
        <path d="M 30.546875 -1.140625 
Q 22.65625 -1.140625 16.953125 2.359375 
Q 11.265625 5.859375 8.1875 12.15625 
Q 5.109375 18.46875 5.109375 26.84375 
Q 5.109375 35.234375 8.1875 41.640625 
Q 11.265625 48.046875 16.78125 51.640625 
Q 22.296875 55.25 29.6875 55.25 
Q 33.953125 55.25 38.109375 53.828125 
Q 42.265625 52.421875 45.671875 49.234375 
Q 49.078125 46.0625 51.09375 40.84375 
Q 53.125 35.625 53.125 27.984375 
L 53.125 24.4375 
L 13.53125 24.4375 
Q 13.8125 15.703125 18.484375 11.046875 
Q 23.15625 6.390625 30.546875 6.390625 
Q 35.484375 6.390625 39.03125 8.515625 
Q 42.578125 10.65625 44.171875 14.921875 
L 52.28125 12.640625 
Q 50.359375 6.46875 44.59375 2.65625 
Q 38.84375 -1.140625 30.546875 -1.140625 
z
M 13.53125 31.671875 
L 44.609375 31.671875 
Q 44.609375 38.59375 40.546875 43.15625 
Q 36.5 47.734375 29.6875 47.734375 
Q 24.890625 47.734375 21.375 45.484375 
Q 17.859375 43.25 15.828125 39.578125 
Q 13.8125 35.90625 13.53125 31.671875 
z
" id="Inter-Regular-101"/>
       </defs>
       <use xlink:href="#Inter-Regular-48"/>
       <use x="62.500015" xlink:href="#Inter-Regular-49"/>
       <use x="106.676163" xlink:href="#Inter-Regular-32"/>
       <use x="134.801163" xlink:href="#Inter-Regular-83"/>
       <use x="198.57959" xlink:href="#Inter-Regular-101"/>
       <use x="256.818237" xlink:href="#Inter-Regular-112"/>
      </g>
     </g>
    </g>
    <g id="xtick_8">
     <g id="line2d_8">
      <g>
       <use style="stroke:#000000;stroke-width:0.8;" x="476.034942" xlink:href="#mbb3234e6db" y="476.745"/>
      </g>
     </g>
     <g id="text_8">
      <!-- 01 Oct -->
      <g transform="translate(460.878692 491.018438)scale(0.1 -0.1)">
       <defs>
        <path d="M 70.171875 36.359375 
Q 70.171875 24.859375 66.015625 16.46875 
Q 61.859375 8.09375 54.609375 3.546875 
Q 47.375 -1 38.0625 -1 
Q 28.765625 -1 21.515625 3.546875 
Q 14.28125 8.09375 10.125 16.46875 
Q 5.96875 24.859375 5.96875 36.359375 
Q 5.96875 47.875 10.125 56.25 
Q 14.28125 64.625 21.515625 69.171875 
Q 28.765625 73.71875 38.0625 73.71875 
Q 47.375 73.71875 54.609375 69.171875 
Q 61.859375 64.625 66.015625 56.25 
Q 70.171875 47.875 70.171875 36.359375 
z
M 61.65625 36.359375 
Q 61.65625 45.8125 58.5 52.3125 
Q 55.359375 58.8125 50.015625 62.140625 
Q 44.671875 65.484375 38.0625 65.484375 
Q 31.46875 65.484375 26.125 62.140625 
Q 20.78125 58.8125 17.625 52.3125 
Q 14.484375 45.8125 14.484375 36.359375 
Q 14.484375 26.921875 17.625 20.421875 
Q 20.78125 13.921875 26.125 10.578125 
Q 31.46875 7.25 38.0625 7.25 
Q 44.671875 7.25 50.015625 10.578125 
Q 55.359375 13.921875 58.5 20.421875 
Q 61.65625 26.921875 61.65625 36.359375 
z
" id="Inter-Regular-79"/>
        <path d="M 29.828125 -1.140625 
Q 22.15625 -1.140625 16.609375 2.484375 
Q 11.078125 6.109375 8.09375 12.46875 
Q 5.109375 18.828125 5.109375 26.984375 
Q 5.109375 35.296875 8.1875 41.671875 
Q 11.265625 48.046875 16.78125 51.640625 
Q 22.296875 55.25 29.6875 55.25 
Q 35.4375 55.25 40.046875 53.125 
Q 44.671875 51 47.609375 47.15625 
Q 50.5625 43.328125 51.28125 38.203125 
L 42.90625 38.203125 
Q 41.9375 41.9375 38.65625 44.828125 
Q 35.375 47.734375 29.828125 47.734375 
Q 22.484375 47.734375 17.984375 42.140625 
Q 13.5 36.546875 13.5 27.265625 
Q 13.5 17.796875 17.9375 12.09375 
Q 22.375 6.390625 29.828125 6.390625 
Q 34.734375 6.390625 38.234375 8.90625 
Q 41.734375 11.4375 42.90625 15.90625 
L 51.28125 15.90625 
Q 50.5625 11.078125 47.78125 7.21875 
Q 45 3.375 40.4375 1.109375 
Q 35.875 -1.140625 29.828125 -1.140625 
z
" id="Inter-Regular-99"/>
        <path d="M 31.390625 54.546875 
L 31.390625 47.4375 
L 19.75 47.4375 
L 19.75 15.625 
Q 19.75 12.078125 20.796875 10.3125 
Q 21.84375 8.5625 23.484375 7.96875 
Q 25.140625 7.390625 26.984375 7.390625 
Q 28.375 7.390625 29.265625 7.546875 
Q 30.15625 7.703125 30.6875 7.8125 
L 32.390625 0.28125 
Q 31.53125 -0.03125 30 -0.359375 
Q 28.484375 -0.703125 26.140625 -0.703125 
Q 22.59375 -0.703125 19.1875 0.8125 
Q 15.796875 2.34375 13.578125 5.46875 
Q 11.359375 8.59375 11.359375 13.359375 
L 11.359375 47.4375 
L 3.125 47.4375 
L 3.125 54.546875 
L 11.359375 54.546875 
L 11.359375 67.609375 
L 19.75 67.609375 
L 19.75 54.546875 
z
" id="Inter-Regular-116"/>
       </defs>
       <use xlink:href="#Inter-Regular-48"/>
       <use x="62.500015" xlink:href="#Inter-Regular-49"/>
       <use x="106.676163" xlink:href="#Inter-Regular-32"/>
       <use x="134.801163" xlink:href="#Inter-Regular-79"/>
       <use x="210.937546" xlink:href="#Inter-Regular-99"/>
       <use x="266.761414" xlink:href="#Inter-Regular-116"/>
      </g>
     </g>
    </g>
    <g id="xtick_9">
     <g id="line2d_9">
      <g>
       <use style="stroke:#000000;stroke-width:0.8;" x="535.059513" xlink:href="#mbb3234e6db" y="476.745"/>
      </g>
     </g>
     <g id="text_9">
      <!-- 01 Nov -->
      <g transform="translate(518.788419 491.018438)scale(0.1 -0.1)">
       <defs>
        <path d="M 66.484375 72.734375 
L 66.484375 0 
L 57.953125 0 
L 18.328125 57.109375 
L 17.609375 57.109375 
L 17.609375 0 
L 8.8125 0 
L 8.8125 72.734375 
L 17.328125 72.734375 
L 57.109375 15.484375 
L 57.8125 15.484375 
L 57.8125 72.734375 
z
" id="Inter-Regular-78"/>
        <path d="M 29.828125 -1.140625 
Q 22.4375 -1.140625 16.875 2.375 
Q 11.328125 5.890625 8.21875 12.203125 
Q 5.109375 18.53125 5.109375 26.984375 
Q 5.109375 35.515625 8.21875 41.859375 
Q 11.328125 48.21875 16.875 51.734375 
Q 22.4375 55.25 29.828125 55.25 
Q 37.21875 55.25 42.765625 51.734375 
Q 48.328125 48.21875 51.4375 41.859375 
Q 54.546875 35.515625 54.546875 26.984375 
Q 54.546875 18.53125 51.4375 12.203125 
Q 48.328125 5.890625 42.765625 2.375 
Q 37.21875 -1.140625 29.828125 -1.140625 
z
M 29.828125 6.390625 
Q 35.4375 6.390625 39.0625 9.265625 
Q 42.6875 12.140625 44.421875 16.828125 
Q 46.171875 21.515625 46.171875 26.984375 
Q 46.171875 32.453125 44.421875 37.171875 
Q 42.6875 41.90625 39.0625 44.8125 
Q 35.4375 47.734375 29.828125 47.734375 
Q 24.21875 47.734375 20.59375 44.8125 
Q 16.96875 41.90625 15.234375 37.171875 
Q 13.5 32.453125 13.5 26.984375 
Q 13.5 21.515625 15.234375 16.828125 
Q 16.96875 12.140625 20.59375 9.265625 
Q 24.21875 6.390625 29.828125 6.390625 
z
" id="Inter-Regular-111"/>
        <path d="M 52.28125 54.546875 
L 32.109375 0 
L 23.578125 0 
L 3.40625 54.546875 
L 12.5 54.546875 
L 27.5625 11.078125 
L 28.125 11.078125 
L 43.1875 54.546875 
z
" id="Inter-Regular-118"/>
       </defs>
       <use xlink:href="#Inter-Regular-48"/>
       <use x="62.500015" xlink:href="#Inter-Regular-49"/>
       <use x="106.676163" xlink:href="#Inter-Regular-32"/>
       <use x="134.801163" xlink:href="#Inter-Regular-78"/>
       <use x="210.085266" xlink:href="#Inter-Regular-111"/>
       <use x="269.74437" xlink:href="#Inter-Regular-118"/>
      </g>
     </g>
    </g>
    <g id="xtick_10">
     <g id="line2d_10">
      <g>
       <use style="stroke:#000000;stroke-width:0.8;" x="592.180066" xlink:href="#mbb3234e6db" y="476.745"/>
      </g>
     </g>
     <g id="text_10">
      <!-- 01 Dec -->
      <g transform="translate(576.143347 491.018438)scale(0.1 -0.1)">
       <defs>
        <path d="M 31.25 0 
L 8.8125 0 
L 8.8125 72.734375 
L 32.25 72.734375 
Q 42.828125 72.734375 50.359375 68.375 
Q 57.890625 64.03125 61.890625 55.90625 
Q 65.90625 47.796875 65.90625 36.5 
Q 65.90625 25.140625 61.859375 16.953125 
Q 57.8125 8.765625 50.0625 4.375 
Q 42.328125 0 31.25 0 
z
M 17.609375 7.8125 
L 30.6875 7.8125 
Q 44.21875 7.8125 50.796875 15.5 
Q 57.390625 23.1875 57.390625 36.5 
Q 57.390625 49.71875 50.921875 57.3125 
Q 44.46875 64.921875 31.671875 64.921875 
L 17.609375 64.921875 
z
" id="Inter-Regular-68"/>
       </defs>
       <use xlink:href="#Inter-Regular-48"/>
       <use x="62.500015" xlink:href="#Inter-Regular-49"/>
       <use x="106.676163" xlink:href="#Inter-Regular-32"/>
       <use x="134.801163" xlink:href="#Inter-Regular-68"/>
       <use x="206.676178" xlink:href="#Inter-Regular-101"/>
       <use x="264.914825" xlink:href="#Inter-Regular-99"/>
      </g>
     </g>
    </g>
    <g id="xtick_11">
     <g id="line2d_11">
      <g>
       <use style="stroke:#000000;stroke-width:0.8;" x="651.204637" xlink:href="#mbb3234e6db" y="476.745"/>
      </g>
     </g>
     <g id="text_11">
      <!-- 01 Jan -->
      <g transform="translate(636.005418 491.018438)scale(0.1 -0.1)">
       <use xlink:href="#Inter-Regular-48"/>
       <use x="62.500015" xlink:href="#Inter-Regular-49"/>
       <use x="106.676163" xlink:href="#Inter-Regular-32"/>
       <use x="134.801163" xlink:href="#Inter-Regular-74"/>
       <use x="189.062531" xlink:href="#Inter-Regular-97"/>
       <use x="245.45459" xlink:href="#Inter-Regular-110"/>
      </g>
     </g>
    </g>
    <g id="xtick_12">
     <g id="line2d_12">
      <g>
       <use style="stroke:#000000;stroke-width:0.8;" x="710.229208" xlink:href="#mbb3234e6db" y="476.745"/>
      </g>
     </g>
     <g id="text_12">
      <!-- 01 Feb -->
      <g transform="translate(694.540145 491.018438)scale(0.1 -0.1)">
       <defs>
        <path d="M 8.8125 0 
L 8.8125 72.734375 
L 52.421875 72.734375 
L 52.421875 64.921875 
L 17.609375 64.921875 
L 17.609375 40.34375 
L 49.15625 40.34375 
L 49.15625 32.53125 
L 17.609375 32.53125 
L 17.609375 0 
z
" id="Inter-Regular-70"/>
        <path d="M 8.8125 0 
L 8.8125 72.734375 
L 17.1875 72.734375 
L 17.1875 45.875 
L 17.90625 45.875 
Q 18.828125 47.296875 20.46875 49.515625 
Q 22.125 51.734375 25.234375 53.484375 
Q 28.34375 55.25 33.671875 55.25 
Q 40.5625 55.25 45.8125 51.796875 
Q 51.0625 48.359375 54.015625 42.03125 
Q 56.96875 35.71875 56.96875 27.125 
Q 56.96875 18.46875 54.015625 12.125 
Q 51.0625 5.78125 45.84375 2.3125 
Q 40.625 -1.140625 33.8125 -1.140625 
Q 28.546875 -1.140625 25.390625 0.609375 
Q 22.234375 2.375 20.53125 4.625 
Q 18.828125 6.890625 17.90625 8.375 
L 16.90625 8.375 
L 16.90625 0 
z
M 17.046875 27.265625 
Q 17.046875 18 21.078125 12.1875 
Q 25.109375 6.390625 32.671875 6.390625 
Q 37.921875 6.390625 41.453125 9.171875 
Q 45 11.96875 46.78125 16.703125 
Q 48.578125 21.453125 48.578125 27.265625 
Q 48.578125 33.03125 46.8125 37.65625 
Q 45.0625 42.296875 41.53125 45.015625 
Q 38 47.734375 32.671875 47.734375 
Q 25 47.734375 21.015625 42.078125 
Q 17.046875 36.4375 17.046875 27.265625 
z
" id="Inter-Regular-98"/>
       </defs>
       <use xlink:href="#Inter-Regular-48"/>
       <use x="62.500015" xlink:href="#Inter-Regular-49"/>
       <use x="106.676163" xlink:href="#Inter-Regular-32"/>
       <use x="134.801163" xlink:href="#Inter-Regular-70"/>
       <use x="193.465942" xlink:href="#Inter-Regular-101"/>
       <use x="251.70459" xlink:href="#Inter-Regular-98"/>
      </g>
     </g>
    </g>
   </g>
   <g id="matplotlib.axis_2">
    <g id="ytick_1">
     <g id="line2d_13">
      <path clip-path="url(#pd9cb4781ab)" d="M 68.575 476.745 
L 738.175 476.745 
" style="fill:none;stroke:#e5e5e5;stroke-linecap:square;stroke-width:0.8;"/>
     </g>
     <g id="line2d_14">
      <defs>
       <path d="M 0 0 
L -3.5 0 
" id="m5331d76a9a" style="stroke:#000000;stroke-width:0.8;"/>
      </defs>
      <g>
       <use style="stroke:#000000;stroke-width:0.8;" x="68.575" xlink:href="#m5331d76a9a" y="476.745"/>
      </g>
     </g>
     <g id="text_13">
      <!-- 0.00% -->
      <g transform="translate(31.94375 480.381719)scale(0.1 -0.1)">
       <defs>
        <path d="M 13.78125 -0.5625 
Q 11.15625 -0.5625 9.265625 1.3125 
Q 7.390625 3.203125 7.390625 5.828125 
Q 7.390625 8.453125 9.265625 10.328125 
Q 11.15625 12.21875 13.78125 12.21875 
Q 16.40625 12.21875 18.28125 10.328125 
Q 20.171875 8.453125 20.171875 5.828125 
Q 20.171875 3.203125 18.28125 1.3125 
Q 16.40625 -0.5625 13.78125 -0.5625 
z
" id="Inter-Regular-46"/>
        <path d="M 44.609375 13.640625 
L 44.609375 17.46875 
Q 44.609375 21.453125 46.25 24.765625 
Q 47.90625 28.09375 51.078125 30.09375 
Q 54.265625 32.109375 58.8125 32.109375 
Q 63.421875 32.109375 66.546875 30.09375 
Q 69.671875 28.09375 71.265625 24.765625 
Q 72.875 21.453125 72.875 17.46875 
L 72.875 13.640625 
Q 72.875 9.65625 71.25 6.328125 
Q 69.640625 3.015625 66.5 1 
Q 63.359375 -1 58.8125 -1 
Q 54.1875 -1 51.03125 1 
Q 47.875 3.015625 46.234375 6.328125 
Q 44.609375 9.65625 44.609375 13.640625 
z
M 8.375 55.25 
L 8.375 59.09375 
Q 8.375 63.0625 10.03125 66.375 
Q 11.6875 69.703125 14.859375 71.703125 
Q 18.046875 73.71875 22.59375 73.71875 
Q 27.203125 73.71875 30.328125 71.703125 
Q 33.453125 69.703125 35.046875 66.375 
Q 36.65625 63.0625 36.65625 59.09375 
L 36.65625 55.25 
Q 36.65625 51.28125 35.03125 47.953125 
Q 33.421875 44.640625 30.265625 42.625 
Q 27.125 40.625 22.59375 40.625 
Q 17.96875 40.625 14.8125 42.625 
Q 11.65625 44.640625 10.015625 47.953125 
Q 8.375 51.28125 8.375 55.25 
z
M 11.078125 0 
L 61.078125 72.734375 
L 69.171875 72.734375 
L 19.171875 0 
z
M 51.84375 17.46875 
L 51.84375 13.640625 
Q 51.84375 10.328125 53.40625 7.71875 
Q 54.96875 5.109375 58.8125 5.109375 
Q 62.53125 5.109375 64.078125 7.71875 
Q 65.625 10.328125 65.625 13.640625 
L 65.625 17.46875 
Q 65.625 20.78125 64.125 23.390625 
Q 62.640625 26 58.8125 26 
Q 55.078125 26 53.453125 23.390625 
Q 51.84375 20.78125 51.84375 17.46875 
z
M 15.625 59.09375 
L 15.625 55.25 
Q 15.625 51.953125 17.1875 49.34375 
Q 18.75 46.734375 22.59375 46.734375 
Q 26.3125 46.734375 27.859375 49.34375 
Q 29.40625 51.953125 29.40625 55.25 
L 29.40625 59.09375 
Q 29.40625 62.390625 27.90625 65 
Q 26.421875 67.609375 22.59375 67.609375 
Q 18.859375 67.609375 17.234375 65 
Q 15.625 62.390625 15.625 59.09375 
z
" id="Inter-Regular-37"/>
       </defs>
       <use xlink:href="#Inter-Regular-48"/>
       <use x="62.500015" xlink:href="#Inter-Regular-46"/>
       <use x="90.056839" xlink:href="#Inter-Regular-48"/>
       <use x="152.556854" xlink:href="#Inter-Regular-48"/>
       <use x="215.05687" xlink:href="#Inter-Regular-37"/>
      </g>
     </g>
    </g>
    <g id="ytick_2">
     <g id="line2d_15">
      <path clip-path="url(#pd9cb4781ab)" d="M 68.575 391.143493 
L 738.175 391.143493 
" style="fill:none;stroke:#e5e5e5;stroke-linecap:square;stroke-width:0.8;"/>
     </g>
     <g id="line2d_16">
      <g>
       <use style="stroke:#000000;stroke-width:0.8;" x="68.575" xlink:href="#m5331d76a9a" y="391.143493"/>
      </g>
     </g>
     <g id="text_14">
      <!-- 0.02% -->
      <g transform="translate(32.142188 394.780212)scale(0.1 -0.1)">
       <defs>
        <path d="M 7.53125 0 
L 7.53125 6.390625 
L 31.53125 32.671875 
Q 35.765625 37.28125 38.5 40.703125 
Q 41.234375 44.140625 42.5625 47.171875 
Q 43.890625 50.21875 43.890625 53.546875 
Q 43.890625 59.296875 39.890625 62.671875 
Q 35.90625 66.046875 29.96875 66.046875 
Q 23.65625 66.046875 19.921875 62.265625 
Q 16.1875 58.484375 16.1875 52.265625 
L 7.8125 52.265625 
Q 7.8125 58.671875 10.75 63.5 
Q 13.703125 68.328125 18.796875 71.015625 
Q 23.90625 73.71875 30.25 73.71875 
Q 36.65625 73.71875 41.578125 71.015625 
Q 46.515625 68.328125 49.3125 63.734375 
Q 52.125 59.15625 52.125 53.546875 
Q 52.125 49.53125 50.6875 45.71875 
Q 49.25 41.90625 45.71875 37.234375 
Q 42.1875 32.5625 35.9375 25.859375 
L 19.609375 8.375 
L 19.609375 7.8125 
L 53.40625 7.8125 
L 53.40625 0 
z
" id="Inter-Regular-50"/>
       </defs>
       <use xlink:href="#Inter-Regular-48"/>
       <use x="62.500015" xlink:href="#Inter-Regular-46"/>
       <use x="90.056839" xlink:href="#Inter-Regular-48"/>
       <use x="152.556854" xlink:href="#Inter-Regular-50"/>
       <use x="213.068237" xlink:href="#Inter-Regular-37"/>
      </g>
     </g>
    </g>
    <g id="ytick_3">
     <g id="line2d_17">
      <path clip-path="url(#pd9cb4781ab)" d="M 68.575 305.541986 
L 738.175 305.541986 
" style="fill:none;stroke:#e5e5e5;stroke-linecap:square;stroke-width:0.8;"/>
     </g>
     <g id="line2d_18">
      <g>
       <use style="stroke:#000000;stroke-width:0.8;" x="68.575" xlink:href="#m5331d76a9a" y="305.541986"/>
      </g>
     </g>
     <g id="text_15">
      <!-- 0.04% -->
      <g transform="translate(31.773438 309.178704)scale(0.1 -0.1)">
       <defs>
        <path d="M 5.828125 14.921875 
L 5.828125 22.15625 
L 37.78125 72.734375 
L 48.4375 72.734375 
L 48.4375 22.734375 
L 58.375 22.734375 
L 58.375 14.921875 
L 48.4375 14.921875 
L 48.4375 0 
L 40.0625 0 
L 40.0625 14.921875 
z
M 40.0625 22.734375 
L 40.0625 61.5 
L 39.484375 61.5 
L 15.34375 23.296875 
L 15.34375 22.734375 
z
" id="Inter-Regular-52"/>
       </defs>
       <use xlink:href="#Inter-Regular-48"/>
       <use x="62.500015" xlink:href="#Inter-Regular-46"/>
       <use x="90.056839" xlink:href="#Inter-Regular-48"/>
       <use x="152.556854" xlink:href="#Inter-Regular-52"/>
       <use x="216.761414" xlink:href="#Inter-Regular-37"/>
      </g>
     </g>
    </g>
    <g id="ytick_4">
     <g id="line2d_19">
      <path clip-path="url(#pd9cb4781ab)" d="M 68.575 219.940478 
L 738.175 219.940478 
" style="fill:none;stroke:#e5e5e5;stroke-linecap:square;stroke-width:0.8;"/>
     </g>
     <g id="line2d_20">
      <g>
       <use style="stroke:#000000;stroke-width:0.8;" x="68.575" xlink:href="#m5331d76a9a" y="219.940478"/>
      </g>
     </g>
     <g id="text_16">
      <!-- 0.06% -->
      <g transform="translate(31.957813 223.577197)scale(0.1 -0.1)">
       <defs>
        <path d="M 31.671875 -1 
Q 27.203125 -0.921875 22.71875 0.703125 
Q 18.25 2.34375 14.5625 6.234375 
Q 10.875 10.125 8.625 16.78125 
Q 6.390625 23.4375 6.390625 33.515625 
Q 6.390625 52.90625 13.453125 63.375 
Q 20.53125 73.859375 32.8125 73.859375 
Q 41.96875 73.859375 48.015625 68.5 
Q 54.078125 63.140625 55.40625 54.546875 
L 46.734375 54.546875 
Q 45.53125 59.546875 42.046875 62.796875 
Q 38.5625 66.046875 32.8125 66.046875 
Q 24.359375 66.046875 19.515625 58.671875 
Q 14.671875 51.3125 14.625 37.921875 
L 15.203125 37.921875 
Q 18.1875 42.4375 22.828125 45 
Q 27.484375 47.578125 33.09375 47.578125 
Q 39.34375 47.578125 44.53125 44.46875 
Q 49.71875 41.375 52.84375 35.921875 
Q 55.96875 30.46875 55.96875 23.4375 
Q 55.96875 16.6875 52.953125 11.09375 
Q 49.9375 5.5 44.484375 2.21875 
Q 39.03125 -1.0625 31.671875 -1 
z
M 31.671875 6.8125 
Q 36.15625 6.8125 39.71875 9.046875 
Q 43.296875 11.296875 45.359375 15.0625 
Q 47.4375 18.828125 47.4375 23.4375 
Q 47.4375 27.953125 45.4375 31.65625 
Q 43.4375 35.375 39.9375 37.5625 
Q 36.4375 39.765625 31.96875 39.765625 
Q 27.453125 39.765625 23.828125 37.453125 
Q 20.203125 35.15625 18.078125 31.40625 
Q 15.953125 27.65625 15.90625 23.296875 
Q 15.90625 18.96875 17.953125 15.203125 
Q 20 11.4375 23.5625 9.125 
Q 27.125 6.8125 31.671875 6.8125 
z
" id="Inter-Regular-54"/>
       </defs>
       <use xlink:href="#Inter-Regular-48"/>
       <use x="62.500015" xlink:href="#Inter-Regular-46"/>
       <use x="90.056839" xlink:href="#Inter-Regular-48"/>
       <use x="152.556854" xlink:href="#Inter-Regular-54"/>
       <use x="214.914825" xlink:href="#Inter-Regular-37"/>
      </g>
     </g>
    </g>
    <g id="ytick_5">
     <g id="line2d_21">
      <path clip-path="url(#pd9cb4781ab)" d="M 68.575 134.338971 
L 738.175 134.338971 
" style="fill:none;stroke:#e5e5e5;stroke-linecap:square;stroke-width:0.8;"/>
     </g>
     <g id="line2d_22">
      <g>
       <use style="stroke:#000000;stroke-width:0.8;" x="68.575" xlink:href="#m5331d76a9a" y="134.338971"/>
      </g>
     </g>
     <g id="text_17">
      <!-- 0.08% -->
      <g transform="translate(32.028125 137.97569)scale(0.1 -0.1)">
       <defs>
        <path d="M 30.828125 -1 
Q 23.515625 -1 17.921875 1.609375 
Q 12.328125 4.21875 9.203125 8.8125 
Q 6.078125 13.421875 6.109375 19.3125 
Q 6.078125 23.9375 7.921875 27.859375 
Q 9.765625 31.78125 12.96875 34.421875 
Q 16.1875 37.078125 20.171875 37.78125 
L 20.171875 38.203125 
Q 14.953125 39.5625 11.859375 44.078125 
Q 8.765625 48.609375 8.8125 54.40625 
Q 8.765625 59.9375 11.609375 64.296875 
Q 14.453125 68.671875 19.4375 71.1875 
Q 24.4375 73.71875 30.828125 73.71875 
Q 37.140625 73.71875 42.109375 71.1875 
Q 47.09375 68.671875 49.953125 64.296875 
Q 52.8125 59.9375 52.84375 54.40625 
Q 52.8125 48.609375 49.703125 44.078125 
Q 46.59375 39.5625 41.484375 38.203125 
L 41.484375 37.78125 
Q 45.421875 37.078125 48.578125 34.421875 
Q 51.734375 31.78125 53.609375 27.859375 
Q 55.5 23.9375 55.546875 19.3125 
Q 55.5 13.421875 52.359375 8.8125 
Q 49.21875 4.21875 43.65625 1.609375 
Q 38.109375 -1 30.828125 -1 
z
M 30.828125 6.8125 
Q 38.21875 6.8125 42.53125 10.34375 
Q 46.84375 13.890625 46.875 19.75 
Q 46.84375 23.859375 44.75 27.015625 
Q 42.65625 30.1875 39.046875 32 
Q 35.4375 33.8125 30.828125 33.8125 
Q 26.171875 33.8125 22.53125 32 
Q 18.890625 30.1875 16.8125 27.015625 
Q 14.734375 23.859375 14.78125 19.75 
Q 14.734375 13.890625 19.03125 10.34375 
Q 23.328125 6.8125 30.828125 6.8125 
z
M 30.828125 41.328125 
Q 36.6875 41.328125 40.484375 44.75 
Q 44.28125 48.1875 44.3125 53.828125 
Q 44.28125 59.375 40.5625 62.703125 
Q 36.859375 66.046875 30.828125 66.046875 
Q 24.71875 66.046875 21 62.703125 
Q 17.296875 59.375 17.328125 53.828125 
Q 17.296875 48.1875 21.078125 44.75 
Q 24.859375 41.328125 30.828125 41.328125 
z
" id="Inter-Regular-56"/>
       </defs>
       <use xlink:href="#Inter-Regular-48"/>
       <use x="62.500015" xlink:href="#Inter-Regular-46"/>
       <use x="90.056839" xlink:href="#Inter-Regular-48"/>
       <use x="152.556854" xlink:href="#Inter-Regular-56"/>
       <use x="214.20459" xlink:href="#Inter-Regular-37"/>
      </g>
     </g>
    </g>
    <g id="ytick_6">
     <g id="line2d_23">
      <path clip-path="url(#pd9cb4781ab)" d="M 68.575 48.737464 
L 738.175 48.737464 
" style="fill:none;stroke:#e5e5e5;stroke-linecap:square;stroke-width:0.8;"/>
     </g>
     <g id="line2d_24">
      <g>
       <use style="stroke:#000000;stroke-width:0.8;" x="68.575" xlink:href="#m5331d76a9a" y="48.737464"/>
      </g>
     </g>
     <g id="text_18">
      <!-- 0.10% -->
      <g transform="translate(33.776563 52.374183)scale(0.1 -0.1)">
       <use xlink:href="#Inter-Regular-48"/>
       <use x="62.500015" xlink:href="#Inter-Regular-46"/>
       <use x="90.056839" xlink:href="#Inter-Regular-49"/>
       <use x="134.232986" xlink:href="#Inter-Regular-48"/>
       <use x="196.733002" xlink:href="#Inter-Regular-37"/>
      </g>
     </g>
    </g>
    <g id="text_19">
     <!-- Percent of nation tested positive (seven day average) -->
     <g transform="translate(25.614063 382.124063)rotate(-90)scale(0.1 -0.1)">
      <defs>
       <path d="M 8.8125 0 
L 8.8125 72.734375 
L 33.375 72.734375 
Q 41.9375 72.734375 47.390625 69.65625 
Q 52.84375 66.578125 55.46875 61.359375 
Q 58.09375 56.140625 58.09375 49.71875 
Q 58.09375 43.28125 55.484375 38.03125 
Q 52.875 32.78125 47.4375 29.671875 
Q 42.015625 26.5625 33.53125 26.5625 
L 17.609375 26.5625 
L 17.609375 0 
z
M 17.609375 34.375 
L 33.234375 34.375 
Q 42.015625 34.375 45.71875 38.78125 
Q 49.4375 43.1875 49.4375 49.71875 
Q 49.4375 56.28125 45.703125 60.59375 
Q 41.96875 64.921875 33.09375 64.921875 
L 17.609375 64.921875 
z
" id="Inter-Regular-80"/>
       <path d="M 31.96875 54.546875 
L 31.96875 47.4375 
L 19.75 47.4375 
L 19.75 0 
L 11.359375 0 
L 11.359375 47.4375 
L 2.5625 47.4375 
L 2.5625 54.546875 
L 11.359375 54.546875 
L 11.359375 62.078125 
Q 11.359375 66.765625 13.5625 69.890625 
Q 15.765625 73.015625 19.28125 74.578125 
Q 22.796875 76.140625 26.703125 76.140625 
Q 29.796875 76.140625 31.75 75.640625 
Q 33.703125 75.140625 34.65625 74.71875 
L 32.25 67.46875 
Q 31.609375 67.6875 30.484375 68 
Q 29.375 68.328125 27.5625 68.328125 
Q 23.40625 68.328125 21.578125 66.234375 
Q 19.75 64.140625 19.75 60.078125 
L 19.75 54.546875 
z
" id="Inter-Regular-102"/>
       <path d="M 7.671875 0 
L 7.671875 54.546875 
L 16.046875 54.546875 
L 16.046875 0 
z
M 11.9375 63.640625 
Q 9.484375 63.640625 7.71875 65.296875 
Q 5.96875 66.96875 5.96875 69.3125 
Q 5.96875 71.65625 7.71875 73.328125 
Q 9.484375 75 11.9375 75 
Q 14.390625 75 16.140625 73.328125 
Q 17.90625 71.65625 17.90625 69.3125 
Q 17.90625 66.96875 16.140625 65.296875 
Q 14.390625 63.640625 11.9375 63.640625 
z
" id="Inter-Regular-105"/>
       <path d="M 46.3125 42.328125 
L 38.78125 40.203125 
Q 37.671875 43.046875 35.078125 45.53125 
Q 32.5 48.015625 26.984375 48.015625 
Q 21.984375 48.015625 18.65625 45.71875 
Q 15.34375 43.4375 15.34375 39.921875 
Q 15.34375 36.796875 17.609375 34.984375 
Q 19.890625 33.171875 24.71875 31.953125 
L 32.8125 29.96875 
Q 47.296875 26.421875 47.296875 15.203125 
Q 47.296875 10.515625 44.609375 6.8125 
Q 41.9375 3.125 37.140625 0.984375 
Q 32.359375 -1.140625 26 -1.140625 
Q 17.65625 -1.140625 12.1875 2.484375 
Q 6.71875 6.109375 5.25 13.0625 
L 13.21875 15.0625 
Q 15.453125 6.25 25.859375 6.25 
Q 31.71875 6.25 35.171875 8.75 
Q 38.640625 11.25 38.640625 14.765625 
Q 38.640625 20.5625 30.546875 22.4375 
L 21.453125 24.578125 
Q 13.953125 26.34375 10.453125 30.09375 
Q 6.96875 33.84375 6.96875 39.484375 
Q 6.96875 44.109375 9.578125 47.65625 
Q 12.1875 51.203125 16.703125 53.21875 
Q 21.234375 55.25 26.984375 55.25 
Q 35.09375 55.25 39.71875 51.703125 
Q 44.359375 48.15625 46.3125 42.328125 
z
" id="Inter-Regular-115"/>
       <path d="M 28.265625 -1.140625 
Q 21.453125 -1.140625 16.234375 2.3125 
Q 11.015625 5.78125 8.0625 12.125 
Q 5.109375 18.46875 5.109375 27.125 
Q 5.109375 35.71875 8.0625 42.03125 
Q 11.015625 48.359375 16.265625 51.796875 
Q 21.515625 55.25 28.40625 55.25 
Q 33.734375 55.25 36.84375 53.484375 
Q 39.953125 51.734375 41.59375 49.515625 
Q 43.25 47.296875 44.171875 45.875 
L 44.890625 45.875 
L 44.890625 72.734375 
L 53.265625 72.734375 
L 53.265625 0 
L 45.171875 0 
L 45.171875 8.375 
L 44.171875 8.375 
Q 43.25 6.890625 41.546875 4.625 
Q 39.84375 2.375 36.6875 0.609375 
Q 33.53125 -1.140625 28.265625 -1.140625 
z
M 29.40625 6.390625 
Q 36.96875 6.390625 41 12.1875 
Q 45.03125 18 45.03125 27.265625 
Q 45.03125 36.4375 41.046875 42.078125 
Q 37.078125 47.734375 29.40625 47.734375 
Q 24.078125 47.734375 20.546875 45.015625 
Q 17.015625 42.296875 15.25 37.65625 
Q 13.5 33.03125 13.5 27.265625 
Q 13.5 21.453125 15.28125 16.703125 
Q 17.078125 11.96875 20.609375 9.171875 
Q 24.15625 6.390625 29.40625 6.390625 
z
" id="Inter-Regular-100"/>
       <path d="M 10.65625 30.6875 
Q 10.65625 44.109375 14.15625 55.375 
Q 17.65625 66.65625 24.15625 76.140625 
L 31.53125 76.140625 
Q 28.125 71.453125 25.359375 63.984375 
Q 22.59375 56.53125 20.953125 47.828125 
Q 19.3125 39.140625 19.3125 30.6875 
Q 19.3125 22.234375 20.953125 13.53125 
Q 22.59375 4.828125 25.359375 -2.625 
Q 28.125 -10.078125 31.53125 -14.765625 
L 24.15625 -14.765625 
Q 17.65625 -5.296875 14.15625 5.984375 
Q 10.65625 17.265625 10.65625 30.6875 
z
" id="Inter-Regular-40"/>
       <path d="M 25.59375 30.3125 
Q 25.59375 16.890625 22.09375 5.609375 
Q 18.609375 -5.65625 12.109375 -15.140625 
L 4.71875 -15.140625 
Q 8.125 -10.453125 10.890625 -2.984375 
Q 13.671875 4.46875 15.296875 13.15625 
Q 16.9375 21.859375 16.9375 30.3125 
Q 16.9375 38.765625 15.296875 47.46875 
Q 13.671875 56.171875 10.890625 63.625 
Q 8.125 71.078125 4.71875 75.765625 
L 12.109375 75.765625 
Q 18.609375 66.296875 22.09375 55.015625 
Q 25.59375 43.734375 25.59375 30.3125 
z
" id="Inter-Regular-41"/>
      </defs>
      <use xlink:href="#Inter-Regular-80"/>
      <use x="63.494324" xlink:href="#Inter-Regular-101"/>
      <use x="121.732971" xlink:href="#Inter-Regular-114"/>
      <use x="160.085251" xlink:href="#Inter-Regular-99"/>
      <use x="215.909119" xlink:href="#Inter-Regular-101"/>
      <use x="274.147766" xlink:href="#Inter-Regular-110"/>
      <use x="332.670502" xlink:href="#Inter-Regular-116"/>
      <use x="369.034149" xlink:href="#Inter-Regular-32"/>
      <use x="397.159149" xlink:href="#Inter-Regular-111"/>
      <use x="456.818253" xlink:href="#Inter-Regular-102"/>
      <use x="492.897797" xlink:href="#Inter-Regular-32"/>
      <use x="521.022797" xlink:href="#Inter-Regular-110"/>
      <use x="579.545532" xlink:href="#Inter-Regular-97"/>
      <use x="635.937592" xlink:href="#Inter-Regular-116"/>
      <use x="672.301239" xlink:href="#Inter-Regular-105"/>
      <use x="696.022827" xlink:href="#Inter-Regular-111"/>
      <use x="755.681931" xlink:href="#Inter-Regular-110"/>
      <use x="814.204666" xlink:href="#Inter-Regular-32"/>
      <use x="842.329666" xlink:href="#Inter-Regular-116"/>
      <use x="878.693314" xlink:href="#Inter-Regular-101"/>
      <use x="936.931961" xlink:href="#Inter-Regular-115"/>
      <use x="989.204697" xlink:href="#Inter-Regular-116"/>
      <use x="1025.568344" xlink:href="#Inter-Regular-101"/>
      <use x="1083.806992" xlink:href="#Inter-Regular-100"/>
      <use x="1145.880875" xlink:href="#Inter-Regular-32"/>
      <use x="1174.005875" xlink:href="#Inter-Regular-112"/>
      <use x="1234.94339" xlink:href="#Inter-Regular-111"/>
      <use x="1294.602493" xlink:href="#Inter-Regular-115"/>
      <use x="1346.875229" xlink:href="#Inter-Regular-105"/>
      <use x="1370.596817" xlink:href="#Inter-Regular-116"/>
      <use x="1406.960464" xlink:href="#Inter-Regular-105"/>
      <use x="1430.682053" xlink:href="#Inter-Regular-118"/>
      <use x="1486.363876" xlink:href="#Inter-Regular-101"/>
      <use x="1544.602524" xlink:href="#Inter-Regular-32"/>
      <use x="1572.727524" xlink:href="#Inter-Regular-40"/>
      <use x="1608.949112" xlink:href="#Inter-Regular-115"/>
      <use x="1661.221848" xlink:href="#Inter-Regular-101"/>
      <use x="1719.460495" xlink:href="#Inter-Regular-118"/>
      <use x="1775.142319" xlink:href="#Inter-Regular-101"/>
      <use x="1833.380966" xlink:href="#Inter-Regular-110"/>
      <use x="1891.903702" xlink:href="#Inter-Regular-32"/>
      <use x="1920.028702" xlink:href="#Inter-Regular-100"/>
      <use x="1982.102585" xlink:href="#Inter-Regular-97"/>
      <use x="2038.494644" xlink:href="#Inter-Regular-121"/>
      <use x="2094.176468" xlink:href="#Inter-Regular-32"/>
      <use x="2122.301468" xlink:href="#Inter-Regular-97"/>
      <use x="2178.693527" xlink:href="#Inter-Regular-118"/>
      <use x="2234.375351" xlink:href="#Inter-Regular-101"/>
      <use x="2292.613998" xlink:href="#Inter-Regular-114"/>
      <use x="2330.966278" xlink:href="#Inter-Regular-97"/>
      <use x="2387.358337" xlink:href="#Inter-Regular-103"/>
      <use x="2448.295853" xlink:href="#Inter-Regular-101"/>
      <use x="2506.5345" xlink:href="#Inter-Regular-41"/>
     </g>
    </g>
   </g>
   <g id="line2d_25">
    <path clip-path="url(#pd9cb4781ab)" d="M 9.550429 476.729792 
L 70.479018 476.647234 
L 83.807147 476.253997 
L 85.711166 476.066069 
L 95.231258 474.331265 
L 99.039295 473.381848 
L 104.75135 471.473237 
L 108.559387 469.812301 
L 112.367424 466.751137 
L 114.271442 465.279215 
L 118.079479 461.735738 
L 123.791534 457.310195 
L 127.599571 453.382172 
L 131.407608 450.258004 
L 133.311626 449.15542 
L 135.215645 448.458022 
L 139.023682 446.665644 
L 140.9277 446.492924 
L 142.831718 446.502701 
L 144.735737 447.044759 
L 146.639755 447.393458 
L 148.543774 447.543366 
L 152.35181 449.684443 
L 154.255829 449.755052 
L 156.159847 449.444373 
L 158.063866 448.908832 
L 159.967884 447.769314 
L 161.871903 447.189236 
L 163.775921 446.917663 
L 165.679939 446.449473 
L 167.583958 445.812907 
L 171.391995 445.278453 
L 173.296013 446.082307 
L 175.200032 446.453818 
L 177.10405 446.080134 
L 179.008068 445.928054 
L 180.912087 446.006267 
L 184.720124 446.562447 
L 186.624142 447.242464 
L 188.52816 447.79104 
L 190.432179 449.080466 
L 192.336197 450.147202 
L 194.240216 451.741875 
L 196.144234 452.941139 
L 198.048253 454.541243 
L 199.952271 455.577563 
L 201.856289 456.255408 
L 203.760308 456.015338 
L 205.664326 456.249976 
L 207.568345 456.664939 
L 209.472363 457.742538 
L 211.376382 458.269388 
L 213.2804 458.292201 
L 215.184418 458.74627 
L 217.088437 459.667443 
L 218.992455 460.025919 
L 220.896474 460.60817 
L 222.800492 460.539734 
L 224.70451 460.906899 
L 228.512547 461.842195 
L 230.416566 462.747074 
L 232.320584 463.978926 
L 236.128621 465.54101 
L 238.032639 466.000511 
L 241.840676 466.561036 
L 245.648713 466.745705 
L 253.264787 468.294754 
L 258.976842 469.320211 
L 264.688897 469.830767 
L 270.400953 469.723225 
L 278.017026 470.084959 
L 283.729081 470.607464 
L 289.441137 471.429786 
L 298.961229 472.229295 
L 306.577303 472.692054 
L 308.481321 472.553009 
L 314.193376 472.500867 
L 316.097395 472.36834 
L 319.905431 472.349873 
L 321.80945 472.553009 
L 340.849634 472.117407 
L 352.273745 471.540587 
L 356.081781 471.164731 
L 359.889818 471.259238 
L 361.793837 471.262497 
L 365.601874 470.973544 
L 367.505892 471.007219 
L 369.40991 470.872519 
L 373.217947 470.454298 
L 375.121966 470.405415 
L 377.025984 469.955691 
L 378.930003 469.637408 
L 380.834021 469.471206 
L 382.738039 469.42884 
L 384.642058 469.245257 
L 388.450095 469.269156 
L 392.258131 469.813387 
L 394.16215 469.839458 
L 396.066168 469.621114 
L 399.874205 469.575489 
L 401.778224 469.395165 
L 403.682242 469.402769 
L 409.394297 469.068192 
L 413.202334 468.305617 
L 415.106353 467.997111 
L 417.010371 467.856979 
L 418.914389 466.915166 
L 420.818408 465.307458 
L 422.722426 463.850744 
L 426.530463 461.289273 
L 428.434481 460.112822 
L 430.3385 457.717553 
L 432.242518 456.548706 
L 434.146537 456.294514 
L 436.050555 455.823065 
L 437.954574 455.535198 
L 439.858592 455.510213 
L 441.76261 455.888242 
L 443.666629 456.500909 
L 445.570647 456.456371 
L 449.378684 454.5684 
L 451.282702 453.029128 
L 453.186721 450.893483 
L 455.090739 447.728035 
L 456.994758 445.770542 
L 458.898776 443.251436 
L 460.802795 440.924604 
L 462.706813 438.367479 
L 464.610831 436.440401 
L 468.418868 433.318405 
L 470.322887 429.103602 
L 472.226905 425.45367 
L 474.130924 420.427408 
L 476.034942 414.984011 
L 477.93896 408.976831 
L 481.746997 400.438595 
L 485.555034 388.450305 
L 487.459052 383.368642 
L 489.363071 379.06585 
L 491.267089 377.503765 
L 493.171108 377.014935 
L 495.075126 377.198518 
L 496.979145 374.851047 
L 500.787181 372.233089 
L 502.6912 372.25047 
L 504.595218 370.575411 
L 508.403255 365.805514 
L 512.211292 352.991643 
L 514.11531 347.504795 
L 516.019329 342.75771 
L 517.923347 338.898124 
L 519.827366 337.636942 
L 521.731384 336.21173 
L 523.635402 335.504555 
L 525.539421 336.41378 
L 527.443439 337.794453 
L 529.347458 337.408821 
L 531.251476 335.74897 
L 533.155495 334.848436 
L 535.059513 334.635524 
L 536.963531 329.03027 
L 538.86755 327.073863 
L 540.771568 326.58286 
L 542.675587 325.608458 
L 544.579605 324.321205 
L 546.483624 321.853155 
L 548.387642 316.859483 
L 550.29166 316.673727 
L 552.195679 314.305616 
L 554.099697 310.006082 
L 556.003716 308.825286 
L 557.907734 307.925838 
L 559.811752 308.554799 
L 561.715771 312.602314 
L 565.523808 321.823826 
L 569.331845 335.786991 
L 571.235863 343.338875 
L 573.139881 349.228737 
L 575.0439 353.773772 
L 576.947918 361.938324 
L 578.851937 368.797155 
L 580.755955 373.45951 
L 582.659973 376.971484 
L 584.563992 379.605736 
L 586.46801 381.143922 
L 590.276047 383.657595 
L 594.084084 384.751489 
L 595.988102 384.473399 
L 597.892121 383.786864 
L 599.796139 382.715782 
L 601.700158 380.560584 
L 603.604176 377.980647 
L 605.508195 374.543627 
L 607.412213 370.140895 
L 609.316231 363.593829 
L 611.22025 356.012614 
L 613.124268 349.66108 
L 615.028287 341.802862 
L 618.836323 315.143145 
L 620.740342 301.429827 
L 622.64436 289.452399 
L 624.548379 276.470153 
L 626.452397 270.273958 
L 628.356416 258.517047 
L 630.260434 244.305122 
L 632.164452 231.486906 
L 634.068471 223.257177 
L 635.972489 224.205508 
L 637.876508 245.022073 
L 639.780526 228.784218 
L 641.684545 214.112792 
L 643.588563 216.904556 
L 645.492581 182.577808 
L 647.3966 155.191364 
L 649.300618 135.663138 
L 651.204637 118.781113 
L 653.108655 99.765616 
L 655.012673 92.077945 
L 656.916692 60.487561 
L 658.82071 76.165977 
L 660.724729 88.728915 
L 662.628747 88.555108 
L 664.532766 73.178681 
L 666.436784 93.54335 
L 670.244821 130.165427 
L 672.148839 144.671737 
L 674.052858 155.69323 
L 675.956876 164.699656 
L 677.860895 170.732908 
L 679.764913 179.177722 
L 681.668931 186.380908 
L 683.57295 198.645116 
L 685.476968 208.092576 
L 689.285005 228.896105 
L 691.189023 239.585194 
L 693.093042 248.010455 
L 694.99706 259.661996 
L 696.901079 274.439878 
L 698.805097 286.969141 
L 700.709116 296.2265 
L 704.517152 311.609446 
L 706.421171 316.943127 
L 708.325189 318.832184 
L 712.133226 333.881639 
L 717.845281 352.674447 
L 719.7493 357.532333 
L 721.653318 361.504894 
L 723.557337 368.335482 
L 725.461355 374.281831 
L 725.461355 374.281831 
" style="fill:none;stroke:#5694ca;stroke-linecap:square;stroke-width:2;"/>
   </g>
   <g id="line2d_26">
    <path clip-path="url(#pd9cb4781ab)" d="M 17.166503 476.745 
L 76.191074 476.680423 
L 79.999111 476.454402 
L 85.711166 476.099227 
L 87.615184 475.744052 
L 89.519203 475.679475 
L 91.423221 475.388877 
L 93.327239 475.227434 
L 95.231258 475.259723 
L 99.039295 474.969125 
L 100.943313 474.904547 
L 102.847332 474.581661 
L 104.75135 474.387929 
L 106.655368 474.065043 
L 108.559387 473.548425 
L 112.367424 471.449663 
L 114.271442 470.061251 
L 116.175461 468.059356 
L 118.079479 466.444924 
L 119.983497 464.63676 
L 123.791534 461.827648 
L 125.695553 459.567443 
L 127.599571 458.082166 
L 129.503589 457.145795 
L 131.407608 456.015693 
L 133.311626 455.660518 
L 135.215645 455.725095 
L 139.023682 454.465838 
L 140.9277 454.465838 
L 144.735737 454.917879 
L 146.639755 455.563652 
L 148.543774 455.143899 
L 150.447792 455.079322 
L 152.35181 456.177136 
L 154.255829 455.176188 
L 156.159847 453.916931 
L 158.063866 451.947324 
L 159.967884 451.366128 
L 161.871903 452.399365 
L 163.775921 452.237922 
L 165.679939 451.07553 
L 167.583958 452.27021 
L 169.487976 454.401261 
L 171.391995 456.726043 
L 173.296013 457.791568 
L 175.200032 457.694702 
L 177.10405 459.018536 
L 179.008068 460.858989 
L 180.912087 461.020432 
L 182.816105 459.63202 
L 184.720124 459.179979 
L 186.624142 457.953011 
L 188.52816 457.662413 
L 190.432179 457.565547 
L 192.336197 457.597836 
L 194.240216 457.953011 
L 196.144234 458.534207 
L 198.048253 459.341423 
L 199.952271 460.503814 
L 201.856289 460.245505 
L 203.760308 460.213216 
L 205.664326 459.63202 
L 207.568345 459.793464 
L 209.472363 460.536102 
L 211.376382 460.729834 
L 213.2804 461.181875 
L 215.184418 461.989091 
L 217.088437 462.408843 
L 218.992455 463.022328 
L 220.896474 463.054616 
L 222.800492 463.635812 
L 224.70451 464.701337 
L 226.608529 464.249296 
L 228.512547 464.443028 
L 230.416566 465.185667 
L 234.224603 467.96249 
L 236.128621 468.866572 
L 238.032639 469.286324 
L 239.936658 470.610158 
L 241.840676 470.739313 
L 243.744695 471.223642 
L 245.648713 471.417374 
L 247.552732 472.127724 
L 249.45675 472.676631 
L 251.360768 472.547477 
L 253.264787 472.70892 
L 255.168805 473.386981 
L 258.976842 474.032754 
L 260.88086 473.871311 
L 262.784879 473.9036 
L 264.688897 474.355641 
L 268.496934 474.194197 
L 270.400953 474.032754 
L 272.304971 474.032754 
L 274.208989 474.387929 
L 276.113008 474.484795 
L 278.017026 474.420218 
L 281.825063 474.743104 
L 283.729081 475.227434 
L 293.249174 475.744052 
L 297.05721 475.679475 
L 298.961229 475.873207 
L 310.385339 475.840918 
L 316.097395 475.614898 
L 318.001413 475.744052 
L 321.80945 475.518032 
L 323.713468 475.679475 
L 325.617487 475.614898 
L 327.521505 475.3243 
L 329.425524 474.872259 
L 333.23356 474.710816 
L 337.041597 474.743104 
L 338.945616 474.581661 
L 342.753653 475.033702 
L 344.657671 474.83997 
L 348.465708 475.001413 
L 350.369726 474.710816 
L 359.889818 474.484795 
L 363.697855 474.032754 
L 365.601874 473.9036 
L 367.505892 473.322404 
L 369.40991 473.096384 
L 371.313929 472.999518 
L 375.121966 471.933993 
L 377.025984 471.094488 
L 378.930003 470.416426 
L 380.834021 470.09354 
L 382.738039 468.995726 
L 384.642058 467.671892 
L 388.450095 467.994778 
L 390.354113 467.704181 
L 394.16215 467.47816 
L 399.874205 465.443976 
L 401.778224 464.410739 
L 403.682242 464.669048 
L 405.58626 463.958698 
L 407.490279 462.990039 
L 411.298316 462.570287 
L 413.202334 462.537998 
L 415.106353 463.086905 
L 417.010371 462.796307 
L 418.914389 462.796307 
L 420.818408 462.182823 
L 422.722426 461.278741 
L 426.530463 458.340475 
L 428.434481 456.112558 
L 430.3385 455.531363 
L 432.242518 455.821961 
L 434.146537 455.563652 
L 436.050555 456.435445 
L 437.954574 458.275897 
L 439.858592 457.759279 
L 441.76261 458.179031 
L 445.570647 455.014745 
L 447.474666 453.884642 
L 451.282702 447.943532 
L 453.186721 446.167657 
L 455.090739 445.102132 
L 456.994758 444.585514 
L 458.898776 442.551329 
L 460.802795 439.774506 
L 462.706813 436.061312 
L 464.610831 433.607376 
L 466.51485 430.152491 
L 468.418868 425.373772 
L 470.322887 420.175301 
L 472.226905 413.104089 
L 474.130924 399.413705 
L 476.034942 393.020554 
L 477.93896 378.361511 
L 481.746997 355.82404 
L 487.459052 316.399609 
L 489.363071 300.190712 
L 491.267089 295.508859 
L 493.171108 289.729192 
L 495.075126 282.690268 
L 496.979145 269.903967 
L 498.883163 260.830858 
L 500.787181 259.797622 
L 504.595218 251.53173 
L 506.499237 250.240184 
L 508.403255 251.53173 
L 510.307274 253.630492 
L 512.211292 254.340842 
L 514.11531 252.72641 
L 516.019329 253.695069 
L 517.923347 256.504181 
L 519.827366 259.733045 
L 521.731384 263.317084 
L 523.635402 268.192669 
L 525.539421 276.00652 
L 527.443439 287.63043 
L 529.347458 300.093846 
L 531.251476 306.357842 
L 535.059513 320.693999 
L 536.963531 326.925706 
L 540.771568 337.516381 
L 542.675587 341.746192 
L 544.579605 348.333075 
L 546.483624 350.205816 
L 548.387642 351.561939 
L 550.29166 353.176371 
L 552.195679 351.820248 
L 554.099697 351.30363 
L 557.907734 352.110846 
L 559.811752 353.240949 
L 561.715771 354.855381 
L 563.619789 357.051008 
L 565.523808 361.087088 
L 567.427826 366.576157 
L 569.331845 373.066174 
L 571.235863 376.359616 
L 573.139881 380.52485 
L 575.0439 383.721426 
L 576.947918 390.308308 
L 578.851937 397.799273 
L 580.755955 398.477335 
L 582.659973 398.897087 
L 584.563992 400.220921 
L 586.46801 398.606489 
L 588.372029 399.155396 
L 590.276047 394.957873 
L 592.180066 393.052843 
L 594.084084 393.181997 
L 595.988102 388.015815 
L 597.892121 384.722373 
L 599.796139 382.978787 
L 601.700158 379.394748 
L 603.604176 380.589427 
L 605.508195 378.329223 
L 607.412213 377.005388 
L 609.316231 376.876234 
L 611.22025 374.034833 
L 613.124268 375.197224 
L 615.028287 374.163988 
L 616.932305 370.999701 
L 618.836323 368.804074 
L 620.740342 363.573314 
L 622.64436 360.247584 
L 624.548379 359.698677 
L 626.452397 355.694885 
L 628.356416 352.821196 
L 630.260434 347.816457 
L 634.068471 335.643639 
L 635.972489 334.965578 
L 637.876508 341.32644 
L 639.780526 333.803187 
L 641.684545 314.365425 
L 643.588563 292.764324 
L 645.492581 241.55454 
L 647.3966 195.575515 
L 649.300618 160.090299 
L 651.204637 130.772213 
L 653.108655 91.670669 
L 655.012673 74.234803 
L 656.916692 54.345 
L 660.724729 99.355365 
L 662.628747 114.983068 
L 664.532766 115.305954 
L 666.436784 145.302101 
L 670.244821 193.347599 
L 672.148839 209.556497 
L 674.052858 224.667581 
L 675.956876 235.1291 
L 677.860895 247.72167 
L 679.764913 257.666572 
L 681.668931 266.384505 
L 683.57295 277.782395 
L 685.476968 286.080576 
L 687.380987 294.99224 
L 689.285005 300.158423 
L 691.189023 307.810831 
L 693.093042 314.914332 
L 694.99706 320.209669 
L 696.901079 329.282777 
L 698.805097 336.676876 
L 700.709116 342.03679 
L 702.613134 349.721487 
L 704.517152 352.433733 
L 706.421171 354.790803 
L 708.325189 356.566679 
L 710.229208 360.021563 
L 712.133226 365.898096 
L 714.037244 370.32164 
L 715.941263 373.937967 
L 717.845281 376.843945 
L 719.7493 379.394748 
L 721.653318 382.91421 
L 723.557337 387.596063 
L 725.461355 391.018658 
L 725.461355 391.018658 
" style="fill:none;stroke:#ffdd00;stroke-linecap:square;stroke-width:2;"/>
   </g>
   <g id="line2d_27">
    <path clip-path="url(#pd9cb4781ab)" d="M 64.766963 476.666658 
L 68.575 476.666658 
L 76.191074 476.577124 
L 83.807147 476.274946 
L 87.615184 475.849659 
L 91.423221 474.976702 
L 95.231258 474.730483 
L 97.135276 474.674525 
L 100.943313 474.26043 
L 102.847332 474.13732 
L 104.75135 473.745609 
L 106.655368 473.219596 
L 108.559387 472.514515 
L 112.367424 469.80611 
L 114.271442 468.160921 
L 116.175461 466.213555 
L 118.079479 464.075929 
L 119.983497 462.520275 
L 121.887516 461.154881 
L 127.599571 454.954646 
L 129.503589 453.522101 
L 131.407608 452.346967 
L 133.311626 451.742612 
L 135.215645 451.429242 
L 137.119663 450.489135 
L 139.023682 450.366025 
L 144.735737 451.955255 
L 146.639755 452.783445 
L 148.543774 452.839404 
L 150.447792 453.343033 
L 154.255829 453.533293 
L 156.159847 452.156707 
L 158.063866 451.429242 
L 159.967884 450.545094 
L 161.871903 451.227791 
L 163.775921 446.560828 
L 165.679939 445.967664 
L 167.583958 445.866939 
L 169.487976 447.131607 
L 173.296013 449.023014 
L 175.200032 448.877522 
L 177.10405 452.74987 
L 179.008068 452.962513 
L 180.912087 451.955255 
L 182.816105 451.720228 
L 184.720124 451.015147 
L 186.624142 450.645819 
L 188.52816 450.455559 
L 192.336197 452.593185 
L 194.240216 453.980963 
L 196.144234 454.484593 
L 198.048253 455.760453 
L 201.856289 456.644602 
L 205.664326 458.065955 
L 207.568345 459.274665 
L 209.472363 460.147622 
L 211.376382 461.289182 
L 213.2804 462.117372 
L 215.184418 462.766494 
L 217.088437 464.131888 
L 218.992455 464.669093 
L 220.896474 465.530858 
L 222.800492 466.661226 
L 226.608529 467.925894 
L 230.416566 468.832427 
L 232.320584 470.007561 
L 238.032639 471.954927 
L 239.936658 472.066845 
L 241.840676 472.413789 
L 243.744695 473.074103 
L 247.552732 473.779184 
L 249.45675 474.003019 
L 251.360768 474.058978 
L 253.264787 474.26043 
L 255.168805 474.32758 
L 258.976842 474.752867 
L 264.688897 474.909552 
L 270.400953 474.909552 
L 272.304971 475.021469 
L 274.208989 474.976702 
L 278.017026 475.133387 
L 279.921045 475.323647 
L 285.6331 475.446756 
L 287.537118 475.72655 
L 289.441137 475.670591 
L 291.345155 475.860851 
L 318.001413 476.118262 
L 333.23356 475.771317 
L 335.137579 475.603441 
L 337.041597 475.648208 
L 340.849634 475.547482 
L 344.657671 475.491523 
L 348.465708 475.715358 
L 352.273745 475.681783 
L 356.081781 475.502715 
L 357.9858 475.390797 
L 361.793837 475.032661 
L 363.697855 474.484265 
L 371.313929 472.939802 
L 378.930003 472.794309 
L 380.834021 472.995761 
L 382.738039 473.062911 
L 384.642058 473.018144 
L 386.546076 473.096487 
L 390.354113 472.839076 
L 392.258131 472.6712 
L 394.16215 472.178763 
L 396.066168 471.261038 
L 399.874205 470.455232 
L 401.778224 470.074712 
L 403.682242 470.25378 
L 405.58626 470.320931 
L 407.490279 470.264972 
L 409.394297 470.757409 
L 411.298316 470.600725 
L 415.106353 469.727767 
L 417.010371 468.78766 
L 418.914389 467.366306 
L 422.722426 465.139147 
L 424.626445 464.411682 
L 430.3385 463.079863 
L 432.242518 464.154272 
L 436.050555 463.482766 
L 437.954574 462.967945 
L 439.858592 462.10618 
L 443.666629 461.624934 
L 445.570647 460.114047 
L 447.474666 459.476117 
L 449.378684 459.095597 
L 451.282702 458.491242 
L 453.186721 458.245023 
L 455.090739 456.655794 
L 460.802795 447.489744 
L 462.706813 442.44226 
L 464.610831 439.017582 
L 466.51485 436.768039 
L 468.418868 436.33156 
L 472.226905 432.582321 
L 474.130924 430.108943 
L 476.034942 429.426245 
L 477.93896 426.71784 
L 479.842979 423.752024 
L 481.746997 419.443197 
L 483.651016 414.138303 
L 485.555034 408.19548 
L 487.459052 403.080846 
L 489.363071 398.671293 
L 491.267089 395.559985 
L 493.171108 392.873962 
L 495.075126 390.467734 
L 496.979145 387.535494 
L 498.883163 384.950198 
L 500.787181 384.502527 
L 502.6912 383.125941 
L 504.595218 381.391218 
L 506.499237 382.286559 
L 508.403255 383.752679 
L 510.307274 383.81983 
L 512.211292 380.898781 
L 514.11531 377.653171 
L 516.019329 375.314094 
L 517.923347 374.91119 
L 519.827366 373.881548 
L 521.731384 372.639263 
L 523.635402 372.751181 
L 525.539421 376.959282 
L 527.443439 380.451111 
L 529.347458 384.983773 
L 531.251476 387.009481 
L 533.155495 389.348559 
L 535.059513 388.956847 
L 536.963531 387.468343 
L 538.86755 386.528235 
L 540.771568 386.136524 
L 542.675587 383.942939 
L 544.579605 383.551228 
L 546.483624 382.443244 
L 548.387642 383.517652 
L 550.29166 385.565744 
L 552.195679 386.707304 
L 554.099697 387.300467 
L 556.003716 388.397259 
L 557.907734 389.281408 
L 559.811752 388.442026 
L 561.715771 389.180682 
L 563.619789 389.404517 
L 565.523808 390.131982 
L 567.427826 391.642869 
L 569.331845 394.049097 
L 571.235863 396.265065 
L 573.139881 398.01098 
L 576.947918 400.49555 
L 578.851937 403.125613 
L 582.659973 407.199413 
L 584.563992 408.620767 
L 586.46801 410.758392 
L 588.372029 412.470731 
L 590.276047 414.552399 
L 592.180066 415.291055 
L 594.084084 415.089603 
L 595.988102 415.022452 
L 597.892121 416.040902 
L 601.700158 413.981619 
L 603.604176 414.205454 
L 605.508195 412.896018 
L 607.412213 412.358814 
L 609.316231 411.373939 
L 611.22025 408.844602 
L 613.124268 408.631958 
L 615.028287 407.770193 
L 616.932305 406.102621 
L 618.836323 406.147388 
L 620.740342 405.531841 
L 622.64436 405.33039 
L 624.548379 404.681268 
L 626.452397 403.864269 
L 628.356416 402.72271 
L 630.260434 400.249331 
L 632.164452 396.936571 
L 634.068471 393.881221 
L 635.972489 392.672511 
L 637.876508 397.24994 
L 639.780526 393.870029 
L 641.684545 384.01009 
L 643.588563 378.391827 
L 645.492581 358.067594 
L 647.3966 339.612384 
L 649.300618 324.425168 
L 651.204637 317.195292 
L 653.108655 304.201661 
L 655.012673 298.40433 
L 656.916692 292.125753 
L 658.82071 293.110628 
L 660.724729 297.732824 
L 662.628747 299.68019 
L 664.532766 292.136945 
L 666.436784 300.206203 
L 668.340802 309.058884 
L 670.244821 312.181384 
L 672.148839 324.167758 
L 674.052858 333.669561 
L 675.956876 340.149589 
L 677.860895 343.372815 
L 679.764913 346.976561 
L 681.668931 349.606624 
L 683.57295 353.736383 
L 685.476968 358.571223 
L 687.380987 359.947809 
L 689.285005 364.234253 
L 691.189023 367.692506 
L 693.093042 370.378528 
L 694.99706 374.105384 
L 696.901079 378.772347 
L 698.805097 383.069982 
L 700.709116 388.374876 
L 702.613134 389.74027 
L 704.517152 392.885154 
L 706.421171 394.608685 
L 708.325189 395.201848 
L 710.229208 397.686419 
L 712.133226 399.197306 
L 714.037244 401.278973 
L 715.941263 403.74116 
L 717.845281 404.009762 
L 719.7493 405.028212 
L 721.653318 406.751743 
L 723.557337 407.904494 
L 725.461355 411.116529 
L 725.461355 411.116529 
" style="fill:none;stroke:#003078;stroke-linecap:square;stroke-width:2;"/>
   </g>
   <g id="line2d_28">
    <path clip-path="url(#pd9cb4781ab)" d="M 62.862945 476.609249 
L 68.575 476.711062 
L 81.903129 476.667428 
L 83.807147 476.609249 
L 87.615184 476.105029 
L 95.231258 474.146332 
L 97.135276 473.486968 
L 100.943313 472.594888 
L 102.847332 471.916131 
L 104.75135 471.043444 
L 106.655368 469.957433 
L 108.559387 469.104139 
L 112.367424 465.22553 
L 114.271442 462.239 
L 118.079479 457.642848 
L 119.983497 455.858687 
L 121.887516 454.249064 
L 123.791534 450.176524 
L 127.599571 444.882222 
L 129.503589 441.798728 
L 131.407608 439.14188 
L 133.311626 436.911679 
L 135.215645 435.670524 
L 137.119663 434.894802 
L 139.023682 432.78096 
L 142.831718 430.570153 
L 144.735737 430.9968 
L 146.639755 431.675557 
L 148.543774 431.210123 
L 150.447792 433.343359 
L 152.35181 434.681479 
L 156.159847 435.70931 
L 158.063866 435.399022 
L 159.967884 435.399022 
L 161.871903 436.678963 
L 163.775921 436.523818 
L 165.679939 437.648615 
L 167.583958 439.743064 
L 169.487976 442.884738 
L 173.296013 447.189995 
L 175.200032 448.353578 
L 179.008068 452.523083 
L 180.912087 454.016348 
L 182.816105 454.035741 
L 184.720124 454.753284 
L 186.624142 453.919383 
L 188.52816 454.229671 
L 190.432179 454.869642 
L 192.336197 454.442995 
L 194.240216 454.53996 
L 196.144234 455.005393 
L 198.048253 456.188369 
L 199.952271 457.02227 
L 201.856289 456.983484 
L 203.760308 456.227155 
L 205.664326 456.711981 
L 207.568345 457.061056 
L 209.472363 457.91435 
L 211.376382 456.673195 
L 213.2804 456.091404 
L 215.184418 455.87808 
L 217.088437 456.072011 
L 218.992455 454.850249 
L 220.896474 454.598139 
L 222.800492 454.598139 
L 228.512547 456.964091 
L 230.416566 458.185853 
L 232.320584 460.338481 
L 234.224603 461.269348 
L 238.032639 462.452324 
L 239.936658 463.460762 
L 247.552732 466.350326 
L 249.45675 467.164834 
L 251.360768 468.15388 
L 255.168805 468.716278 
L 257.072824 468.522348 
L 260.88086 468.890816 
L 262.784879 468.774457 
L 268.496934 467.669054 
L 270.400953 467.824198 
L 272.304971 467.436337 
L 276.113008 467.572088 
L 278.017026 466.31154 
L 279.921045 466.75758 
L 281.825063 466.330933 
L 283.729081 466.330933 
L 285.6331 465.380674 
L 287.537118 465.904286 
L 289.441137 465.943072 
L 291.345155 468.289631 
L 293.249174 466.486078 
L 295.153192 467.416944 
L 297.05721 467.862984 
L 298.961229 469.724717 
L 300.865247 469.918647 
L 302.769266 470.539225 
L 304.673284 470.539225 
L 306.577303 473.079714 
L 308.481321 473.390003 
L 316.097395 474.029973 
L 318.001413 473.836043 
L 321.80945 473.81665 
L 325.617487 474.146332 
L 329.425524 474.01058 
L 331.329542 474.243297 
L 335.137579 474.26269 
L 337.041597 473.894222 
L 338.945616 473.157286 
L 344.657671 472.653067 
L 346.561689 472.400957 
L 348.465708 471.916131 
L 350.369726 472.303992 
L 352.273745 472.963356 
L 356.081781 472.943963 
L 357.9858 473.215465 
L 359.889818 473.37061 
L 361.793837 473.777864 
L 365.601874 473.855436 
L 373.217947 474.340262 
L 377.025984 474.514799 
L 380.834021 474.417834 
L 382.738039 474.514799 
L 386.546076 474.379048 
L 388.450095 474.185118 
L 390.354113 474.185118 
L 399.874205 473.215465 
L 401.778224 473.351217 
L 405.58626 472.788818 
L 407.490279 472.614281 
L 409.394297 472.245813 
L 415.106353 470.500439 
L 418.914389 470.209543 
L 420.818408 469.220497 
L 422.722426 467.766019 
L 424.626445 465.884893 
L 428.434481 462.607468 
L 430.3385 460.377268 
L 432.242518 458.709465 
L 436.050555 456.304727 
L 437.954574 456.3823 
L 439.858592 456.149583 
L 443.666629 454.889035 
L 445.570647 454.481781 
L 447.474666 453.531522 
L 449.378684 452.077043 
L 451.282702 450.118345 
L 453.186721 447.403318 
L 455.090739 445.69673 
L 456.994758 443.330778 
L 458.898776 439.161273 
L 460.802795 435.845062 
L 462.706813 434.778444 
L 464.610831 432.082811 
L 466.51485 429.697466 
L 468.418868 428.436917 
L 470.322887 426.245503 
L 472.226905 424.558308 
L 474.130924 420.233658 
L 476.034942 414.20242 
L 477.93896 410.013522 
L 479.842979 407.783321 
L 481.746997 402.023586 
L 483.651016 396.651712 
L 485.555034 390.736832 
L 487.459052 385.88857 
L 489.363071 382.009961 
L 491.267089 378.499819 
L 493.171108 376.541121 
L 495.075126 376.308405 
L 496.979145 374.776354 
L 498.883163 371.266212 
L 500.787181 370.238381 
L 502.6912 370.93653 
L 504.595218 367.639712 
L 508.403255 364.168356 
L 510.307274 357.788044 
L 512.211292 352.261025 
L 514.11531 345.240742 
L 516.019329 340.101584 
L 517.923347 335.350287 
L 519.827366 329.202691 
L 521.731384 324.858648 
L 523.635402 316.228742 
L 525.539421 311.555017 
L 527.443439 309.79025 
L 529.347458 299.570114 
L 531.251476 298.71682 
L 533.155495 301.548205 
L 535.059513 301.39306 
L 536.963531 304.224445 
L 538.86755 308.956349 
L 540.771568 314.056721 
L 542.675587 325.033186 
L 544.579605 332.092255 
L 546.483624 337.40595 
L 548.387642 342.292998 
L 550.29166 350.030825 
L 552.195679 355.286341 
L 556.003716 364.672576 
L 557.907734 365.021651 
L 559.811752 364.575611 
L 561.715771 365.894338 
L 563.619789 366.243413 
L 565.523808 364.750148 
L 567.427826 362.190266 
L 569.331845 359.320095 
L 571.235863 357.82683 
L 573.139881 356.818391 
L 575.0439 355.09241 
L 576.947918 354.355474 
L 578.851937 353.327643 
L 580.755955 346.540076 
L 582.659973 341.905137 
L 584.563992 339.985226 
L 586.46801 336.804766 
L 588.372029 331.975897 
L 590.276047 322.783592 
L 592.180066 312.737993 
L 594.084084 306.784328 
L 597.892121 281.360042 
L 599.796139 267.998232 
L 601.700158 253.821914 
L 607.412213 194.770082 
L 609.316231 178.15024 
L 611.22025 156.546385 
L 613.124268 141.962813 
L 616.932305 101.916169 
L 618.836323 90.687594 
L 620.740342 81.960722 
L 622.64436 79.788701 
L 624.548379 85.121789 
L 626.452397 87.35199 
L 628.356416 97.552733 
L 630.260434 112.970206 
L 632.164452 122.181904 
L 634.068471 135.737644 
L 635.972489 161.006786 
L 637.876508 197.737219 
L 639.780526 203.109093 
L 641.684545 197.523895 
L 643.588563 205.048398 
L 645.492581 188.428556 
L 647.3966 183.463935 
L 651.204637 162.034617 
L 653.108655 158.272366 
L 655.012673 171.59539 
L 656.916692 165.719297 
L 658.82071 188.5837 
L 660.724729 202.333371 
L 662.628747 209.062759 
L 664.532766 201.596435 
L 666.436784 219.922866 
L 668.340802 232.140486 
L 670.244821 250.059662 
L 672.148839 265.244419 
L 674.052858 275.464555 
L 675.956876 282.290908 
L 677.860895 289.737838 
L 679.764913 292.394686 
L 683.57295 305.795282 
L 687.380987 325.421047 
L 689.285005 333.217052 
L 691.189023 341.808172 
L 694.99706 359.746742 
L 696.901079 370.49049 
L 698.805097 377.316843 
L 700.709116 382.572359 
L 702.613134 389.282354 
L 704.517152 392.617958 
L 706.421171 393.471252 
L 708.325189 391.842236 
L 710.229208 396.32203 
L 712.133226 398.862519 
L 714.037244 401.131506 
L 715.941263 402.333875 
L 717.845281 404.195608 
L 719.7493 406.658525 
L 721.653318 410.071701 
L 725.461355 414.939356 
L 725.461355 414.939356 
" style="fill:none;stroke:#d4351c;stroke-linecap:square;stroke-width:2;"/>
   </g>
   <g id="patch_3">
    <path d="M 68.575 476.745 
L 738.175 476.745 
" style="fill:none;stroke:#000000;stroke-linecap:square;stroke-linejoin:miter;stroke-width:0.8;"/>
   </g>
   <g id="text_20">
    <!-- Average COVID-19 cases in UK Nations, per capita -->
    <g transform="translate(255.384062 27.225)scale(0.12 -0.12)">
     <defs>
      <path d="M 18.859375 0 
L 2.375 0 
L 27.484375 72.734375 
L 47.296875 72.734375 
L 72.375 0 
L 55.890625 0 
L 50.5 16.578125 
L 24.25 16.578125 
z
M 28.15625 28.59375 
L 46.625 28.59375 
L 37.671875 56.109375 
L 37.109375 56.109375 
z
" id="Inter-Bold-65"/>
      <path d="M 56.890625 54.546875 
L 37.828125 0 
L 20.78125 0 
L 1.703125 54.546875 
L 17.6875 54.546875 
L 29.015625 15.515625 
L 29.578125 15.515625 
L 40.875 54.546875 
z
" id="Inter-Bold-118"/>
      <path d="M 30.890625 -1.0625 
Q 22.515625 -1.0625 16.4375 2.359375 
Q 10.375 5.78125 7.109375 12.078125 
Q 3.84375 18.390625 3.84375 27.03125 
Q 3.84375 35.4375 7.109375 41.796875 
Q 10.375 48.15625 16.3125 51.703125 
Q 22.265625 55.25 30.296875 55.25 
Q 37.5 55.25 43.296875 52.1875 
Q 49.109375 49.140625 52.515625 42.984375 
Q 55.9375 36.828125 55.9375 27.5625 
L 55.9375 23.40625 
L 18.78125 23.40625 
L 18.78125 23.359375 
Q 18.78125 17.265625 22.125 13.75 
Q 25.46875 10.234375 31.140625 10.234375 
Q 34.9375 10.234375 37.703125 11.828125 
Q 40.484375 13.421875 41.625 16.546875 
L 55.609375 15.625 
Q 54.015625 8.03125 47.515625 3.484375 
Q 41.015625 -1.0625 30.890625 -1.0625 
z
M 18.78125 32.78125 
L 41.6875 32.78125 
Q 41.65625 37.640625 38.5625 40.796875 
Q 35.484375 43.96875 30.546875 43.96875 
Q 25.5 43.96875 22.265625 40.6875 
Q 19.03125 37.421875 18.78125 32.78125 
z
" id="Inter-Bold-101"/>
      <path d="M 6.03125 0 
L 6.03125 54.546875 
L 20.703125 54.546875 
L 20.703125 45.03125 
L 21.265625 45.03125 
Q 22.765625 50.109375 26.265625 52.71875 
Q 29.765625 55.328125 34.375 55.328125 
Q 36.578125 55.328125 38.453125 54.796875 
Q 40.34375 54.265625 41.828125 53.34375 
L 37.28125 40.84375 
Q 36.21875 41.375 34.953125 41.734375 
Q 33.703125 42.109375 32.140625 42.109375 
Q 27.5625 42.109375 24.375 38.984375 
Q 21.203125 35.859375 21.171875 30.859375 
L 21.171875 0 
z
" id="Inter-Bold-114"/>
      <path d="M 21.59375 -1.03125 
Q 13.78125 -1.03125 8.625 3.046875 
Q 3.484375 7.140625 3.484375 15.234375 
Q 3.484375 21.34375 6.359375 24.8125 
Q 9.234375 28.296875 13.90625 29.90625 
Q 18.578125 31.53125 23.96875 32.03125 
Q 31.078125 32.734375 34.125 33.515625 
Q 37.1875 34.296875 37.1875 36.9375 
L 37.1875 37.140625 
Q 37.1875 40.515625 35.0625 42.359375 
Q 32.953125 44.21875 29.078125 44.21875 
Q 25 44.21875 22.578125 42.4375 
Q 20.171875 40.65625 19.390625 37.921875 
L 5.40625 39.0625 
Q 6.96875 46.515625 13.15625 50.875 
Q 19.359375 55.25 29.15625 55.25 
Q 35.234375 55.25 40.515625 53.328125 
Q 45.8125 51.421875 49.0625 47.34375 
Q 52.3125 43.28125 52.3125 36.796875 
L 52.3125 0 
L 37.96875 0 
L 37.96875 7.5625 
L 37.53125 7.5625 
Q 35.546875 3.765625 31.578125 1.359375 
Q 27.625 -1.03125 21.59375 -1.03125 
z
M 25.921875 9.40625 
Q 30.890625 9.40625 34.078125 12.296875 
Q 37.28125 15.203125 37.28125 19.5 
L 37.28125 25.28125 
Q 36.40625 24.6875 34.53125 24.21875 
Q 32.671875 23.75 30.5625 23.40625 
Q 28.453125 23.078125 26.78125 22.828125 
Q 22.796875 22.265625 20.359375 20.59375 
Q 17.9375 18.921875 17.9375 15.734375 
Q 17.9375 12.609375 20.1875 11 
Q 22.4375 9.40625 25.921875 9.40625 
z
" id="Inter-Bold-97"/>
      <path d="M 30.609375 -21.234375 
Q 19.609375 -21.234375 13.3125 -16.90625 
Q 7.03125 -12.578125 5.6875 -6.390625 
L 19.671875 -4.515625 
Q 20.59375 -6.71875 23.265625 -8.546875 
Q 25.953125 -10.375 30.96875 -10.375 
Q 35.90625 -10.375 39.109375 -8.03125 
Q 42.328125 -5.6875 42.328125 -0.3125 
L 42.328125 9.65625 
L 41.6875 9.65625 
Q 40.203125 6.28125 36.4375 3.53125 
Q 32.671875 0.78125 26.140625 0.78125 
Q 20 0.78125 14.96875 3.65625 
Q 9.9375 6.53125 6.96875 12.421875 
Q 4.015625 18.328125 4.015625 27.375 
Q 4.015625 36.6875 7.046875 42.859375 
Q 10.09375 49.046875 15.109375 52.140625 
Q 20.140625 55.25 26.109375 55.25 
Q 30.6875 55.25 33.765625 53.703125 
Q 36.859375 52.171875 38.78125 49.890625 
Q 40.703125 47.625 41.6875 45.390625 
L 42.265625 45.390625 
L 42.265625 54.546875 
L 57.28125 54.546875 
L 57.28125 -0.53125 
Q 57.28125 -7.3125 53.84375 -11.921875 
Q 50.421875 -16.546875 44.421875 -18.890625 
Q 38.421875 -21.234375 30.609375 -21.234375 
z
M 30.9375 12.140625 
Q 36.40625 12.140625 39.40625 16.1875 
Q 42.40625 20.234375 42.40625 27.453125 
Q 42.40625 34.625 39.421875 38.921875 
Q 36.4375 43.21875 30.9375 43.21875 
Q 25.328125 43.21875 22.390625 38.8125 
Q 19.46875 34.40625 19.46875 27.453125 
Q 19.46875 20.390625 22.40625 16.265625 
Q 25.359375 12.140625 30.9375 12.140625 
z
" id="Inter-Bold-103"/>
      <path id="Inter-Bold-32"/>
      <path d="M 70.484375 47.265625 
L 54.9375 47.265625 
Q 54.046875 53.265625 49.8125 56.6875 
Q 45.59375 60.125 39.28125 60.125 
Q 30.828125 60.125 25.734375 53.921875 
Q 20.640625 47.734375 20.640625 36.359375 
Q 20.640625 24.71875 25.765625 18.65625 
Q 30.890625 12.609375 39.171875 12.609375 
Q 45.3125 12.609375 49.578125 15.8125 
Q 53.84375 19.03125 54.9375 24.859375 
L 70.484375 24.78125 
Q 69.671875 18.109375 65.734375 12.21875 
Q 61.796875 6.328125 55.03125 2.65625 
Q 48.265625 -1 38.921875 -1 
Q 29.1875 -1 21.53125 3.40625 
Q 13.890625 7.8125 9.46875 16.15625 
Q 5.046875 24.5 5.046875 36.359375 
Q 5.046875 48.265625 9.515625 56.609375 
Q 14 64.953125 21.65625 69.328125 
Q 29.328125 73.71875 38.921875 73.71875 
Q 47.34375 73.71875 54.109375 70.609375 
Q 60.875 67.5 65.1875 61.59375 
Q 69.5 55.6875 70.484375 47.265625 
z
" id="Inter-Bold-67"/>
      <path d="M 73.15625 36.359375 
Q 73.15625 24.46875 68.65625 16.125 
Q 64.171875 7.78125 56.46875 3.390625 
Q 48.765625 -1 39.09375 -1 
Q 29.40625 -1 21.703125 3.40625 
Q 14 7.8125 9.515625 16.171875 
Q 5.046875 24.53125 5.046875 36.359375 
Q 5.046875 48.265625 9.515625 56.609375 
Q 14 64.953125 21.703125 69.328125 
Q 29.40625 73.71875 39.09375 73.71875 
Q 48.765625 73.71875 56.46875 69.328125 
Q 64.171875 64.953125 68.65625 56.609375 
Q 73.15625 48.265625 73.15625 36.359375 
z
M 57.5625 36.359375 
Q 57.5625 47.9375 52.515625 54.03125 
Q 47.484375 60.125 39.09375 60.125 
Q 30.71875 60.125 25.671875 54.03125 
Q 20.640625 47.9375 20.640625 36.359375 
Q 20.640625 24.828125 25.671875 18.71875 
Q 30.71875 12.609375 39.09375 12.609375 
Q 47.484375 12.609375 52.515625 18.71875 
Q 57.5625 24.828125 57.5625 36.359375 
z
" id="Inter-Bold-79"/>
      <path d="M 19.46875 72.734375 
L 37.046875 17.46875 
L 37.71875 17.46875 
L 55.328125 72.734375 
L 72.375 72.734375 
L 47.296875 0 
L 27.484375 0 
L 2.375 72.734375 
z
" id="Inter-Bold-86"/>
      <path d="M 21.703125 72.734375 
L 21.703125 0 
L 6.328125 0 
L 6.328125 72.734375 
z
" id="Inter-Bold-73"/>
      <path d="M 32.109375 0 
L 6.328125 0 
L 6.328125 72.734375 
L 32.3125 72.734375 
Q 43.296875 72.734375 51.21875 68.375 
Q 59.15625 64.03125 63.421875 55.890625 
Q 67.6875 47.765625 67.6875 36.4375 
Q 67.6875 25.078125 63.40625 16.90625 
Q 59.125 8.734375 51.15625 4.359375 
Q 43.1875 0 32.109375 0 
z
M 21.703125 13.171875 
L 31.46875 13.171875 
Q 41.734375 13.171875 47.03125 18.703125 
Q 52.34375 24.25 52.34375 36.4375 
Q 52.34375 48.546875 47.03125 54.046875 
Q 41.734375 59.546875 31.5 59.546875 
L 21.703125 59.546875 
z
" id="Inter-Bold-68"/>
      <path d="M 40.015625 35.859375 
L 40.015625 23.859375 
L 6.859375 23.859375 
L 6.859375 35.859375 
z
" id="Inter-Bold-45"/>
      <path d="M 36.015625 72.734375 
L 36.015625 0 
L 20.671875 0 
L 20.671875 53.90625 
L 20 53.90625 
Q 18.828125 52.09375 15.015625 50.296875 
Q 11.21875 48.515625 5.1875 48.515625 
L 5.1875 60.71875 
Q 9.875 60.71875 13.390625 62.796875 
Q 16.90625 64.875 18.890625 67.703125 
Q 20.875 70.53125 20.953125 72.734375 
z
" id="Inter-Bold-49"/>
      <path d="M 32.203125 73.9375 
Q 37.828125 73.9375 43.015625 72.0625 
Q 48.21875 70.203125 52.3125 66.046875 
Q 56.421875 61.890625 58.84375 55.046875 
Q 61.265625 48.21875 61.265625 38.25 
Q 61.265625 25.921875 57.59375 17.125 
Q 53.9375 8.34375 47.3125 3.671875 
Q 40.703125 -1 31.671875 -1 
Q 24.390625 -1 18.8125 1.828125 
Q 13.25 4.65625 9.859375 9.53125 
Q 6.46875 14.421875 5.75 20.53125 
L 20.921875 20.53125 
Q 21.8125 16.546875 24.640625 14.359375 
Q 27.484375 12.1875 31.671875 12.1875 
Q 38.78125 12.1875 42.46875 18.375 
Q 46.171875 24.578125 46.203125 35.375 
L 45.703125 35.375 
Q 43.296875 30.578125 38.328125 27.84375 
Q 33.375 25.109375 27.375 25.109375 
Q 20.953125 25.109375 15.875 28.140625 
Q 10.796875 31.171875 7.90625 36.46875 
Q 5.015625 41.765625 5.046875 48.578125 
Q 5.015625 55.96875 8.421875 61.703125 
Q 11.828125 67.4375 17.953125 70.703125 
Q 24.078125 73.96875 32.203125 73.9375 
z
M 32.3125 61.859375 
Q 26.953125 61.859375 23.4375 58.15625 
Q 19.921875 54.46875 19.953125 49 
Q 19.921875 43.609375 23.375 39.921875 
Q 26.84375 36.25 32.171875 36.25 
Q 35.6875 36.25 38.515625 37.984375 
Q 41.34375 39.734375 42.984375 42.640625 
Q 44.640625 45.5625 44.671875 49.078125 
Q 44.640625 52.59375 43.015625 55.484375 
Q 41.40625 58.375 38.640625 60.109375 
Q 35.875 61.859375 32.3125 61.859375 
z
" id="Inter-Bold-57"/>
      <path d="M 30.6875 -1.0625 
Q 22.296875 -1.0625 16.28125 2.5 
Q 10.265625 6.078125 7.046875 12.421875 
Q 3.84375 18.78125 3.84375 27.0625 
Q 3.84375 35.4375 7.078125 41.78125 
Q 10.328125 48.125 16.328125 51.6875 
Q 22.34375 55.25 30.609375 55.25 
Q 37.75 55.25 43.125 52.65625 
Q 48.515625 50.078125 51.609375 45.390625 
Q 54.71875 40.703125 55.046875 34.375 
L 40.765625 34.375 
Q 40.171875 38.453125 37.59375 40.953125 
Q 35.015625 43.46875 30.859375 43.46875 
Q 25.609375 43.46875 22.40625 39.234375 
Q 19.21875 35.015625 19.21875 27.265625 
Q 19.21875 19.453125 22.390625 15.171875 
Q 25.5625 10.90625 30.859375 10.90625 
Q 34.765625 10.90625 37.421875 13.265625 
Q 40.09375 15.625 40.765625 20 
L 55.046875 20 
Q 54.6875 13.75 51.640625 8.984375 
Q 48.609375 4.21875 43.28125 1.578125 
Q 37.96875 -1.0625 30.6875 -1.0625 
z
" id="Inter-Bold-99"/>
      <path d="M 51.421875 38.984375 
L 37.578125 38.140625 
Q 37 40.765625 34.6875 42.640625 
Q 32.390625 44.53125 28.453125 44.53125 
Q 24.9375 44.53125 22.5 43.046875 
Q 20.0625 41.578125 20.09375 39.140625 
Q 20.0625 37.1875 21.640625 35.828125 
Q 23.21875 34.484375 27.03125 33.671875 
L 36.890625 31.671875 
Q 52.625 28.4375 52.671875 16.90625 
Q 52.671875 11.546875 49.515625 7.484375 
Q 46.375 3.4375 40.90625 1.1875 
Q 35.4375 -1.0625 28.375 -1.0625 
Q 17.546875 -1.0625 11.109375 3.453125 
Q 4.6875 7.984375 3.625 15.796875 
L 18.5 16.578125 
Q 19.21875 13.25 21.78125 11.546875 
Q 24.359375 9.84375 28.40625 9.84375 
Q 32.390625 9.84375 34.8125 11.40625 
Q 37.25 12.96875 37.28125 15.375 
Q 37.1875 19.421875 30.296875 20.8125 
L 20.84375 22.6875 
Q 5.015625 25.859375 5.078125 38.28125 
Q 5.046875 46.171875 11.375 50.703125 
Q 17.71875 55.25 28.203125 55.25 
Q 38.53125 55.25 44.46875 50.875 
Q 50.421875 46.515625 51.421875 38.984375 
z
" id="Inter-Bold-115"/>
      <path d="M 6.03125 0 
L 6.03125 54.546875 
L 21.171875 54.546875 
L 21.171875 0 
z
M 13.6875 61.578125 
Q 10.34375 61.578125 7.921875 63.828125 
Q 5.515625 66.09375 5.515625 69.25 
Q 5.515625 72.40625 7.921875 74.640625 
Q 10.34375 76.875 13.6875 76.875 
Q 17.0625 76.875 19.46875 74.640625 
Q 21.890625 72.40625 21.890625 69.25 
Q 21.890625 66.09375 19.46875 63.828125 
Q 17.0625 61.578125 13.6875 61.578125 
z
" id="Inter-Bold-105"/>
      <path d="M 21.171875 31.53125 
L 21.171875 0 
L 6.03125 0 
L 6.03125 54.546875 
L 20.453125 54.546875 
L 20.453125 44.921875 
L 21.09375 44.921875 
Q 22.9375 49.6875 27.171875 52.46875 
Q 31.421875 55.25 37.5 55.25 
Q 46.03125 55.25 51.171875 49.765625 
Q 56.328125 44.28125 56.328125 34.734375 
L 56.328125 0 
L 41.1875 0 
L 41.1875 32.03125 
Q 41.234375 37.03125 38.640625 39.859375 
Q 36.046875 42.6875 31.5 42.6875 
Q 26.921875 42.6875 24.0625 39.75 
Q 21.203125 36.828125 21.171875 31.53125 
z
" id="Inter-Bold-110"/>
      <path d="M 51.34375 72.734375 
L 66.625 72.734375 
L 66.625 24.640625 
Q 66.625 16.40625 62.75 10.671875 
Q 58.875 4.9375 52.078125 1.953125 
Q 45.28125 -1.03125 36.46875 -1.03125 
Q 27.671875 -1.03125 20.84375 1.953125 
Q 14.03125 4.9375 10.171875 10.671875 
Q 6.328125 16.40625 6.328125 24.640625 
L 6.328125 72.734375 
L 21.703125 72.734375 
L 21.703125 25.171875 
Q 21.703125 19.359375 25.90625 16.015625 
Q 30.109375 12.671875 36.46875 12.671875 
Q 42.9375 12.671875 47.140625 16.015625 
Q 51.34375 19.359375 51.34375 25.171875 
z
" id="Inter-Bold-85"/>
      <path d="M 6.328125 0 
L 6.328125 72.734375 
L 21.703125 72.734375 
L 21.703125 40.65625 
L 22.65625 40.65625 
L 48.828125 72.734375 
L 67.265625 72.734375 
L 40.265625 40.15625 
L 67.578125 0 
L 49.1875 0 
L 29.265625 29.90625 
L 21.703125 20.671875 
L 21.703125 0 
z
" id="Inter-Bold-75"/>
      <path d="M 67.15625 72.734375 
L 67.15625 0 
L 53.875 0 
L 22.234375 45.78125 
L 21.703125 45.78125 
L 21.703125 0 
L 6.328125 0 
L 6.328125 72.734375 
L 19.8125 72.734375 
L 51.203125 26.984375 
L 51.84375 26.984375 
L 51.84375 72.734375 
z
" id="Inter-Bold-78"/>
      <path d="M 35.046875 54.546875 
L 35.046875 43.1875 
L 24.78125 43.1875 
L 24.78125 16.765625 
Q 24.78125 13.640625 26.203125 12.53125 
Q 27.625 11.4375 29.90625 11.4375 
Q 30.96875 11.4375 32.03125 11.625 
Q 33.09375 11.828125 33.671875 11.9375 
L 36.046875 0.671875 
Q 34.90625 0.3125 32.84375 -0.15625 
Q 30.796875 -0.640625 27.84375 -0.75 
Q 19.609375 -1.09375 14.609375 2.828125 
Q 9.625 6.75 9.65625 14.765625 
L 9.65625 43.1875 
L 2.203125 43.1875 
L 2.203125 54.546875 
L 9.65625 54.546875 
L 9.65625 67.609375 
L 24.78125 67.609375 
L 24.78125 54.546875 
z
" id="Inter-Bold-116"/>
      <path d="M 30.6875 -1.0625 
Q 22.40625 -1.0625 16.390625 2.46875 
Q 10.375 6 7.109375 12.328125 
Q 3.84375 18.671875 3.84375 27.0625 
Q 3.84375 35.515625 7.109375 41.84375 
Q 10.375 48.1875 16.390625 51.71875 
Q 22.40625 55.25 30.6875 55.25 
Q 38.953125 55.25 44.96875 51.71875 
Q 51 48.1875 54.265625 41.84375 
Q 57.53125 35.515625 57.53125 27.0625 
Q 57.53125 18.671875 54.265625 12.328125 
Q 51 6 44.96875 2.46875 
Q 38.953125 -1.0625 30.6875 -1.0625 
z
M 30.75 10.65625 
Q 36.359375 10.65625 39.25 15.34375 
Q 42.15625 20.03125 42.15625 27.171875 
Q 42.15625 34.296875 39.25 39 
Q 36.359375 43.71875 30.75 43.71875 
Q 25.03125 43.71875 22.125 39 
Q 19.21875 34.296875 19.21875 27.171875 
Q 19.21875 20.03125 22.125 15.34375 
Q 25.03125 10.65625 30.75 10.65625 
z
" id="Inter-Bold-111"/>
      <path d="M 22.484375 9.9375 
L 22.09375 6.03125 
Q 21.625 1.34375 20.328125 -3.3125 
Q 19.03125 -7.984375 17.625 -11.78125 
Q 16.234375 -15.59375 15.375 -17.75 
L 5.578125 -17.75 
Q 6.109375 -15.65625 7.03125 -11.921875 
Q 7.953125 -8.203125 8.765625 -3.53125 
Q 9.59375 1.140625 9.796875 5.96875 
L 9.984375 9.9375 
z
" id="Inter-Bold-44"/>
      <path d="M 6.03125 -20.453125 
L 6.03125 54.546875 
L 20.953125 54.546875 
L 20.953125 45.390625 
L 21.625 45.390625 
Q 22.65625 47.625 24.53125 49.890625 
Q 26.421875 52.171875 29.5 53.703125 
Q 32.59375 55.25 37.140625 55.25 
Q 43.140625 55.25 48.140625 52.140625 
Q 53.15625 49.046875 56.1875 42.8125 
Q 59.234375 36.578125 59.234375 27.203125 
Q 59.234375 18.078125 56.28125 11.8125 
Q 53.34375 5.546875 48.328125 2.328125 
Q 43.328125 -0.890625 37.109375 -0.890625 
Q 32.703125 -0.890625 29.625 0.5625 
Q 26.5625 2.03125 24.625 4.25 
Q 22.6875 6.46875 21.625 8.734375 
L 21.171875 8.734375 
L 21.171875 -20.453125 
z
M 20.84375 27.265625 
Q 20.84375 20 23.84375 15.578125 
Q 26.84375 11.15625 32.3125 11.15625 
Q 37.890625 11.15625 40.828125 15.640625 
Q 43.78125 20.140625 43.78125 27.265625 
Q 43.78125 34.375 40.84375 38.796875 
Q 37.921875 43.21875 32.3125 43.21875 
Q 26.8125 43.21875 23.828125 38.90625 
Q 20.84375 34.59375 20.84375 27.265625 
z
" id="Inter-Bold-112"/>
     </defs>
     <use xlink:href="#Inter-Bold-65"/>
     <use x="74.786942" xlink:href="#Inter-Bold-118"/>
     <use x="133.380707" xlink:href="#Inter-Bold-101"/>
     <use x="193.146347" xlink:href="#Inter-Bold-114"/>
     <use x="236.008575" xlink:href="#Inter-Bold-97"/>
     <use x="294.034149" xlink:href="#Inter-Bold-103"/>
     <use x="357.350922" xlink:href="#Inter-Bold-101"/>
     <use x="417.116562" xlink:href="#Inter-Bold-32"/>
     <use x="440.305481" xlink:href="#Inter-Bold-67"/>
     <use x="515.51857" xlink:href="#Inter-Bold-79"/>
     <use x="593.714615" xlink:href="#Inter-Bold-86"/>
     <use x="668.501556" xlink:href="#Inter-Bold-73"/>
     <use x="696.555542" xlink:href="#Inter-Bold-68"/>
     <use x="769.282837" xlink:href="#Inter-Bold-45"/>
     <use x="816.157852" xlink:href="#Inter-Bold-49"/>
     <use x="863.565536" xlink:href="#Inter-Bold-57"/>
     <use x="929.581177" xlink:href="#Inter-Bold-32"/>
     <use x="952.770096" xlink:href="#Inter-Bold-99"/>
     <use x="1011.505905" xlink:href="#Inter-Bold-97"/>
     <use x="1069.531479" xlink:href="#Inter-Bold-115"/>
     <use x="1125.710464" xlink:href="#Inter-Bold-101"/>
     <use x="1185.476105" xlink:href="#Inter-Bold-115"/>
     <use x="1241.65509" xlink:href="#Inter-Bold-32"/>
     <use x="1264.844009" xlink:href="#Inter-Bold-105"/>
     <use x="1292.045715" xlink:href="#Inter-Bold-110"/>
     <use x="1354.22612" xlink:href="#Inter-Bold-32"/>
     <use x="1377.415039" xlink:href="#Inter-Bold-85"/>
     <use x="1450.355392" xlink:href="#Inter-Bold-75"/>
     <use x="1519.318481" xlink:href="#Inter-Bold-32"/>
     <use x="1542.507401" xlink:href="#Inter-Bold-78"/>
     <use x="1616.015945" xlink:href="#Inter-Bold-97"/>
     <use x="1674.041519" xlink:href="#Inter-Bold-116"/>
     <use x="1712.890961" xlink:href="#Inter-Bold-105"/>
     <use x="1740.092667" xlink:href="#Inter-Bold-111"/>
     <use x="1801.456314" xlink:href="#Inter-Bold-110"/>
     <use x="1863.636719" xlink:href="#Inter-Bold-115"/>
     <use x="1919.815704" xlink:href="#Inter-Bold-44"/>
     <use x="1950.106903" xlink:href="#Inter-Bold-32"/>
     <use x="1973.295822" xlink:href="#Inter-Bold-112"/>
     <use x="2036.54158" xlink:href="#Inter-Bold-101"/>
     <use x="2096.30722" xlink:href="#Inter-Bold-114"/>
     <use x="2139.169449" xlink:href="#Inter-Bold-32"/>
     <use x="2162.358368" xlink:href="#Inter-Bold-99"/>
     <use x="2221.094177" xlink:href="#Inter-Bold-97"/>
     <use x="2279.119751" xlink:href="#Inter-Bold-112"/>
     <use x="2342.365509" xlink:href="#Inter-Bold-105"/>
     <use x="2369.567215" xlink:href="#Inter-Bold-116"/>
     <use x="2408.416656" xlink:href="#Inter-Bold-97"/>
    </g>
   </g>
   <g id="legend_1">
    <g id="patch_4">
     <path d="M 75.575 98.614063 
L 185.148438 98.614063 
Q 187.148438 98.614063 187.148438 96.614063 
L 187.148438 40.225 
Q 187.148438 38.225 185.148438 38.225 
L 75.575 38.225 
Q 73.575 38.225 73.575 40.225 
L 73.575 96.614063 
Q 73.575 98.614063 75.575 98.614063 
z
" style="fill:#ffffff;opacity:0.8;stroke:#cccccc;stroke-linejoin:miter;"/>
    </g>
    <g id="line2d_29">
     <path d="M 77.575 45.998438 
L 97.575 45.998438 
" style="fill:none;stroke:#d4351c;stroke-linecap:square;stroke-width:2;"/>
    </g>
    <g id="line2d_30"/>
    <g id="text_21">
     <!-- Wales -->
     <g transform="translate(105.575 49.498438)scale(0.1 -0.1)">
      <defs>
       <path d="M 22.015625 0 
L 2.125 72.734375 
L 11.078125 72.734375 
L 26.28125 13.5 
L 26.984375 13.5 
L 42.46875 72.734375 
L 52.421875 72.734375 
L 67.90625 13.5 
L 68.609375 13.5 
L 83.8125 72.734375 
L 92.75 72.734375 
L 72.875 0 
L 63.78125 0 
L 47.734375 57.953125 
L 47.15625 57.953125 
L 31.109375 0 
z
" id="Inter-Regular-87"/>
      </defs>
      <use xlink:href="#Inter-Regular-87"/>
      <use x="94.886383" xlink:href="#Inter-Regular-97"/>
      <use x="151.278442" xlink:href="#Inter-Regular-108"/>
      <use x="175.000031" xlink:href="#Inter-Regular-101"/>
      <use x="233.238678" xlink:href="#Inter-Regular-115"/>
     </g>
    </g>
    <g id="line2d_31">
     <path d="M 77.575 60.317188 
L 97.575 60.317188 
" style="fill:none;stroke:#003078;stroke-linecap:square;stroke-width:2;"/>
    </g>
    <g id="line2d_32"/>
    <g id="text_22">
     <!-- Scotland -->
     <g transform="translate(105.575 63.817188)scale(0.1 -0.1)">
      <use xlink:href="#Inter-Regular-83"/>
      <use x="63.778427" xlink:href="#Inter-Regular-99"/>
      <use x="119.602295" xlink:href="#Inter-Regular-111"/>
      <use x="179.261398" xlink:href="#Inter-Regular-116"/>
      <use x="215.625046" xlink:href="#Inter-Regular-108"/>
      <use x="239.346634" xlink:href="#Inter-Regular-97"/>
      <use x="295.738693" xlink:href="#Inter-Regular-110"/>
      <use x="354.261429" xlink:href="#Inter-Regular-100"/>
     </g>
    </g>
    <g id="line2d_33">
     <path d="M 77.575 74.635938 
L 97.575 74.635938 
" style="fill:none;stroke:#ffdd00;stroke-linecap:square;stroke-width:2;"/>
    </g>
    <g id="line2d_34"/>
    <g id="text_23">
     <!-- Northern Ireland -->
     <g transform="translate(105.575 78.135938)scale(0.1 -0.1)">
      <defs>
       <path d="M 16.046875 32.8125 
L 16.046875 0 
L 7.671875 0 
L 7.671875 72.734375 
L 16.046875 72.734375 
L 16.046875 46.015625 
L 16.765625 46.015625 
Q 18.6875 50.25 22.53125 52.75 
Q 26.390625 55.25 32.8125 55.25 
Q 41.1875 55.25 46.296875 50.203125 
Q 51.421875 45.171875 51.421875 34.65625 
L 51.421875 0 
L 43.046875 0 
L 43.046875 34.09375 
Q 43.046875 40.59375 39.6875 44.15625 
Q 36.328125 47.734375 30.40625 47.734375 
Q 24.1875 47.734375 20.109375 43.84375 
Q 16.046875 39.953125 16.046875 32.8125 
z
" id="Inter-Regular-104"/>
       <path d="M 17.609375 72.734375 
L 17.609375 0 
L 8.8125 0 
L 8.8125 72.734375 
z
" id="Inter-Regular-73"/>
      </defs>
      <use xlink:href="#Inter-Regular-78"/>
      <use x="75.284103" xlink:href="#Inter-Regular-111"/>
      <use x="134.943207" xlink:href="#Inter-Regular-114"/>
      <use x="173.295486" xlink:href="#Inter-Regular-116"/>
      <use x="209.659134" xlink:href="#Inter-Regular-104"/>
      <use x="268.750061" xlink:href="#Inter-Regular-101"/>
      <use x="326.988708" xlink:href="#Inter-Regular-114"/>
      <use x="365.340988" xlink:href="#Inter-Regular-110"/>
      <use x="423.863724" xlink:href="#Inter-Regular-32"/>
      <use x="451.988724" xlink:href="#Inter-Regular-73"/>
      <use x="478.40918" xlink:href="#Inter-Regular-114"/>
      <use x="516.761459" xlink:href="#Inter-Regular-101"/>
      <use x="575.000107" xlink:href="#Inter-Regular-108"/>
      <use x="598.721695" xlink:href="#Inter-Regular-97"/>
      <use x="655.113754" xlink:href="#Inter-Regular-110"/>
      <use x="713.63649" xlink:href="#Inter-Regular-100"/>
     </g>
    </g>
    <g id="line2d_35">
     <path d="M 77.575 88.954688 
L 97.575 88.954688 
" style="fill:none;stroke:#5694ca;stroke-linecap:square;stroke-width:2;"/>
    </g>
    <g id="line2d_36"/>
    <g id="text_24">
     <!-- England -->
     <g transform="translate(105.575 92.454688)scale(0.1 -0.1)">
      <defs>
       <path d="M 8.8125 0 
L 8.8125 72.734375 
L 52.703125 72.734375 
L 52.703125 64.921875 
L 17.609375 64.921875 
L 17.609375 40.34375 
L 50.421875 40.34375 
L 50.421875 32.53125 
L 17.609375 32.53125 
L 17.609375 7.8125 
L 53.265625 7.8125 
L 53.265625 0 
z
" id="Inter-Regular-69"/>
      </defs>
      <use xlink:href="#Inter-Regular-69"/>
      <use x="59.801147" xlink:href="#Inter-Regular-110"/>
      <use x="118.323883" xlink:href="#Inter-Regular-103"/>
      <use x="179.261398" xlink:href="#Inter-Regular-108"/>
      <use x="202.982986" xlink:href="#Inter-Regular-97"/>
      <use x="259.375046" xlink:href="#Inter-Regular-110"/>
      <use x="317.897781" xlink:href="#Inter-Regular-100"/>
     </g>
    </g>
   </g>
  </g>
 </g>
 <defs>
  <clipPath id="pd9cb4781ab">
   <rect height="443.52" width="669.6" x="68.575" y="33.225"/>
  </clipPath>
 </defs>
</svg>
