<?xml version="1.0" encoding="utf-8" standalone="no"?>
<!DOCTYPE svg PUBLIC "-//W3C//DTD SVG 1.1//EN"
  "http://www.w3.org/Graphics/SVG/1.1/DTD/svg11.dtd">
<svg xmlns:xlink="http://www.w3.org/1999/xlink" viewBox="0 0 755.9625 511.234062" xmlns="http://www.w3.org/2000/svg" version="1.1">
 <metadata>
  <rdf:RDF xmlns:dc="http://purl.org/dc/elements/1.1/" xmlns:cc="http://creativecommons.org/ns#" xmlns:rdf="http://www.w3.org/1999/02/22-rdf-syntax-ns#">
   <cc:Work>
    <dc:type rdf:resource="http://purl.org/dc/dcmitype/StillImage"/>
    <dc:date>2021-12-17T17:17:25.440806</dc:date>
    <dc:format>image/svg+xml</dc:format>
    <dc:creator>
     <cc:Agent>
      <dc:title>Matplotlib v3.5.1, https://matplotlib.org/</dc:title>
     </cc:Agent>
    </dc:creator>
   </cc:Work>
  </rdf:RDF>
 </metadata>
 <defs>
  <style type="text/css">*{stroke-linejoin: round; stroke-linecap: butt}</style>
 </defs>
 <g id="figure_1">
  <g id="patch_1">
   <path d="M 0 511.234062 
L 755.9625 511.234062 
L 755.9625 0 
L 0 0 
z
" style="fill: #ffffff"/>
  </g>
  <g id="axes_1">
   <g id="patch_2">
    <path d="M 68.3625 476.745 
L 737.9625 476.745 
L 737.9625 33.225 
L 68.3625 33.225 
z
" style="fill: #ffffff"/>
   </g>
   <g id="matplotlib.axis_1">
    <g id="xtick_1">
     <g id="line2d_1">
      <defs>
       <path id="m0133db3669" d="M 0 0 
L 0 3.5 
" style="stroke: #000000; stroke-width: 0.8"/>
      </defs>
      <g>
       <use xlink:href="#m0133db3669" x="68.3625" y="476.745" style="stroke: #000000; stroke-width: 0.8"/>
      </g>
     </g>
     <g id="text_1">
      <!-- 01 Mar -->
      <g transform="translate(52.325781 491.018437)scale(0.1 -0.1)">
       <defs>
        <path id="Inter-Regular-30" d="M 2000 -64 
Q 1230 -64 806 561 
Q 382 1186 382 2327 
Q 382 3459 809 4088 
Q 1236 4718 2000 4718 
Q 2764 4718 3191 4088 
Q 3618 3459 3618 2327 
Q 3618 1186 3194 561 
Q 2771 -64 2000 -64 
z
M 2000 436 
Q 2509 436 2791 927 
Q 3073 1418 3073 2327 
Q 3073 3234 2789 3730 
Q 2505 4227 2000 4227 
Q 1496 4227 1211 3730 
Q 927 3234 927 2327 
Q 927 1418 1210 927 
Q 1493 436 2000 436 
z
" transform="scale(0.015625)"/>
        <path id="Inter-Regular-31" d="M 1973 4655 
L 1973 0 
L 1409 0 
L 1409 3836 
L 1373 3836 
Q 1341 3773 1209 3692 
Q 1077 3611 868 3551 
Q 659 3491 391 3491 
L 391 3964 
Q 661 3964 859 4061 
Q 1057 4159 1190 4291 
Q 1323 4423 1392 4529 
Q 1461 4636 1473 4655 
L 1973 4655 
z
" transform="scale(0.015625)"/>
        <path id="Inter-Regular-20" transform="scale(0.015625)"/>
        <path id="Inter-Regular-4d" d="M 564 4655 
L 1236 4655 
L 2818 791 
L 2873 791 
L 4455 4655 
L 5127 4655 
L 5127 0 
L 4600 0 
L 4600 3536 
L 4555 3536 
L 3100 0 
L 2591 0 
L 1136 3536 
L 1091 3536 
L 1091 0 
L 564 0 
L 564 4655 
z
" transform="scale(0.015625)"/>
        <path id="Inter-Regular-61" d="M 1518 -82 
Q 1186 -82 916 44 
Q 646 170 486 410 
Q 327 650 327 991 
Q 327 1291 445 1478 
Q 564 1666 761 1773 
Q 959 1880 1199 1933 
Q 1439 1986 1682 2018 
Q 2000 2059 2199 2080 
Q 2398 2102 2490 2154 
Q 2582 2207 2582 2336 
L 2582 2355 
Q 2582 2691 2399 2877 
Q 2216 3064 1846 3064 
Q 1461 3064 1243 2895 
Q 1025 2727 936 2536 
L 427 2718 
Q 564 3036 792 3214 
Q 1021 3393 1292 3464 
Q 1564 3536 1827 3536 
Q 1996 3536 2215 3496 
Q 2434 3457 2640 3334 
Q 2846 3211 2982 2963 
Q 3118 2716 3118 2300 
L 3118 0 
L 2582 0 
L 2582 473 
L 2555 473 
Q 2500 359 2373 229 
Q 2246 100 2034 9 
Q 1823 -82 1518 -82 
z
M 1600 400 
Q 1918 400 2137 525 
Q 2357 650 2469 847 
Q 2582 1045 2582 1264 
L 2582 1755 
Q 2548 1714 2433 1681 
Q 2318 1648 2169 1624 
Q 2021 1600 1881 1583 
Q 1741 1566 1655 1555 
Q 1446 1527 1265 1467 
Q 1084 1407 974 1287 
Q 864 1168 864 964 
Q 864 684 1072 542 
Q 1280 400 1600 400 
z
" transform="scale(0.015625)"/>
        <path id="Inter-Regular-72" d="M 491 0 
L 491 3491 
L 1009 3491 
L 1009 2964 
L 1046 2964 
Q 1139 3223 1389 3384 
Q 1639 3545 1955 3545 
Q 2100 3545 2209 3511 
Q 2318 3477 2400 3418 
L 2218 2964 
Q 2161 2993 2085 3010 
Q 2009 3027 1909 3027 
Q 1527 3027 1277 2794 
Q 1027 2561 1027 2209 
L 1027 0 
L 491 0 
z
" transform="scale(0.015625)"/>
       </defs>
       <use xlink:href="#Inter-Regular-30"/>
       <use xlink:href="#Inter-Regular-31" x="62.500015"/>
       <use xlink:href="#Inter-Regular-20" x="106.676163"/>
       <use xlink:href="#Inter-Regular-4d" x="134.801163"/>
       <use xlink:href="#Inter-Regular-61" x="225.99437"/>
       <use xlink:href="#Inter-Regular-72" x="282.386429"/>
      </g>
     </g>
    </g>
    <g id="xtick_2">
     <g id="line2d_2">
      <g>
       <use xlink:href="#m0133db3669" x="99.970542" y="476.745" style="stroke: #000000; stroke-width: 0.8"/>
      </g>
     </g>
    </g>
    <g id="xtick_3">
     <g id="line2d_3">
      <g>
       <use xlink:href="#m0133db3669" x="130.558969" y="476.745" style="stroke: #000000; stroke-width: 0.8"/>
      </g>
     </g>
     <g id="text_2">
      <!-- 01 May -->
      <g transform="translate(113.655844 491.116875)scale(0.1 -0.1)">
       <defs>
        <path id="Inter-Regular-79" d="M 818 -1355 
Q 682 -1355 575 -1333 
Q 468 -1311 427 -1291 
L 564 -818 
Q 857 -893 1053 -814 
Q 1250 -736 1391 -345 
L 1509 -18 
L 218 3491 
L 800 3491 
L 1764 709 
L 1800 709 
L 2764 3491 
L 3346 3491 
L 1846 -564 
Q 1550 -1355 818 -1355 
z
" transform="scale(0.015625)"/>
       </defs>
       <use xlink:href="#Inter-Regular-30"/>
       <use xlink:href="#Inter-Regular-31" x="62.500015"/>
       <use xlink:href="#Inter-Regular-20" x="106.676163"/>
       <use xlink:href="#Inter-Regular-4d" x="134.801163"/>
       <use xlink:href="#Inter-Regular-61" x="225.99437"/>
       <use xlink:href="#Inter-Regular-79" x="282.386429"/>
      </g>
     </g>
    </g>
    <g id="xtick_4">
     <g id="line2d_4">
      <g>
       <use xlink:href="#m0133db3669" x="162.167011" y="476.745" style="stroke: #000000; stroke-width: 0.8"/>
      </g>
     </g>
    </g>
    <g id="xtick_5">
     <g id="line2d_5">
      <g>
       <use xlink:href="#m0133db3669" x="192.755439" y="476.745" style="stroke: #000000; stroke-width: 0.8"/>
      </g>
     </g>
     <g id="text_3">
      <!-- 01 Jul -->
      <g transform="translate(179.211689 491.018437)scale(0.1 -0.1)">
       <defs>
        <path id="Inter-Regular-4a" d="M 2346 4655 
L 2909 4655 
L 2909 1327 
Q 2909 657 2549 296 
Q 2189 -64 1582 -64 
Q 1200 -64 902 76 
Q 605 216 434 475 
Q 264 734 264 1091 
L 818 1091 
Q 818 795 1034 615 
Q 1250 436 1582 436 
Q 1948 436 2147 664 
Q 2346 893 2346 1327 
L 2346 4655 
z
" transform="scale(0.015625)"/>
        <path id="Inter-Regular-75" d="M 2691 1427 
L 2691 3491 
L 3227 3491 
L 3227 0 
L 2691 0 
L 2691 591 
L 2655 591 
Q 2532 325 2273 140 
Q 2014 -45 1618 -45 
Q 1127 -45 809 280 
Q 491 605 491 1273 
L 491 3491 
L 1027 3491 
L 1027 1309 
Q 1027 927 1242 700 
Q 1457 473 1791 473 
Q 1991 473 2199 575 
Q 2407 677 2549 888 
Q 2691 1100 2691 1427 
z
" transform="scale(0.015625)"/>
        <path id="Inter-Regular-6c" d="M 1027 4655 
L 1027 0 
L 491 0 
L 491 4655 
L 1027 4655 
z
" transform="scale(0.015625)"/>
       </defs>
       <use xlink:href="#Inter-Regular-30"/>
       <use xlink:href="#Inter-Regular-31" x="62.500015"/>
       <use xlink:href="#Inter-Regular-20" x="106.676163"/>
       <use xlink:href="#Inter-Regular-4a" x="134.801163"/>
       <use xlink:href="#Inter-Regular-75" x="189.062531"/>
       <use xlink:href="#Inter-Regular-6c" x="247.159134"/>
      </g>
     </g>
    </g>
    <g id="xtick_6">
     <g id="line2d_6">
      <g>
       <use xlink:href="#m0133db3669" x="224.363481" y="476.745" style="stroke: #000000; stroke-width: 0.8"/>
      </g>
     </g>
    </g>
    <g id="xtick_7">
     <g id="line2d_7">
      <g>
       <use xlink:href="#m0133db3669" x="255.971522" y="476.745" style="stroke: #000000; stroke-width: 0.8"/>
      </g>
     </g>
     <g id="text_4">
      <!-- 01 Sep -->
      <g transform="translate(240.084022 491.116875)scale(0.1 -0.1)">
       <defs>
        <path id="Inter-Regular-53" d="M 3109 3491 
Q 3068 3836 2777 4027 
Q 2486 4218 2064 4218 
Q 1600 4218 1318 3999 
Q 1036 3780 1036 3445 
Q 1036 3195 1189 3042 
Q 1343 2889 1553 2803 
Q 1764 2718 1936 2673 
L 2409 2545 
Q 2591 2498 2815 2414 
Q 3039 2330 3244 2185 
Q 3450 2041 3584 1816 
Q 3718 1591 3718 1264 
Q 3718 886 3521 581 
Q 3325 277 2949 97 
Q 2573 -82 2036 -82 
Q 1286 -82 845 272 
Q 405 627 364 1200 
L 946 1200 
Q 968 936 1124 764 
Q 1280 593 1519 510 
Q 1759 427 2036 427 
Q 2359 427 2616 533 
Q 2873 639 3023 828 
Q 3173 1018 3173 1273 
Q 3173 1505 3043 1650 
Q 2914 1795 2702 1886 
Q 2491 1977 2246 2045 
L 1673 2209 
Q 1127 2366 809 2657 
Q 491 2948 491 3418 
Q 491 3809 703 4101 
Q 916 4393 1276 4555 
Q 1636 4718 2082 4718 
Q 2532 4718 2882 4558 
Q 3232 4398 3437 4120 
Q 3643 3843 3655 3491 
L 3109 3491 
z
" transform="scale(0.015625)"/>
        <path id="Inter-Regular-65" d="M 1955 -73 
Q 1450 -73 1085 151 
Q 721 375 524 778 
Q 327 1182 327 1718 
Q 327 2255 524 2665 
Q 721 3075 1074 3305 
Q 1427 3536 1900 3536 
Q 2173 3536 2439 3445 
Q 2705 3355 2923 3151 
Q 3141 2948 3270 2614 
Q 3400 2280 3400 1791 
L 3400 1564 
L 866 1564 
Q 884 1005 1183 707 
Q 1482 409 1955 409 
Q 2271 409 2498 545 
Q 2725 682 2827 955 
L 3346 809 
Q 3223 414 2854 170 
Q 2486 -73 1955 -73 
z
M 866 2027 
L 2855 2027 
Q 2855 2470 2595 2762 
Q 2336 3055 1900 3055 
Q 1593 3055 1368 2911 
Q 1143 2768 1013 2533 
Q 884 2298 866 2027 
z
" transform="scale(0.015625)"/>
        <path id="Inter-Regular-70" d="M 491 -1309 
L 491 3491 
L 1009 3491 
L 1009 2936 
L 1073 2936 
Q 1132 3027 1237 3169 
Q 1343 3311 1542 3423 
Q 1741 3536 2082 3536 
Q 2523 3536 2859 3315 
Q 3196 3095 3384 2690 
Q 3573 2286 3573 1736 
Q 3573 1182 3384 776 
Q 3196 370 2861 148 
Q 2527 -73 2091 -73 
Q 1755 -73 1552 39 
Q 1350 152 1241 296 
Q 1132 441 1073 536 
L 1027 536 
L 1027 -1309 
L 491 -1309 
z
M 1018 1745 
Q 1018 1152 1276 780 
Q 1534 409 2018 409 
Q 2355 409 2581 587 
Q 2807 766 2921 1069 
Q 3036 1373 3036 1745 
Q 3036 2114 2923 2410 
Q 2811 2707 2585 2881 
Q 2359 3055 2018 3055 
Q 1527 3055 1272 2693 
Q 1018 2332 1018 1745 
z
" transform="scale(0.015625)"/>
       </defs>
       <use xlink:href="#Inter-Regular-30"/>
       <use xlink:href="#Inter-Regular-31" x="62.500015"/>
       <use xlink:href="#Inter-Regular-20" x="106.676163"/>
       <use xlink:href="#Inter-Regular-53" x="134.801163"/>
       <use xlink:href="#Inter-Regular-65" x="198.57959"/>
       <use xlink:href="#Inter-Regular-70" x="256.818237"/>
      </g>
     </g>
    </g>
    <g id="xtick_8">
     <g id="line2d_8">
      <g>
       <use xlink:href="#m0133db3669" x="286.55995" y="476.745" style="stroke: #000000; stroke-width: 0.8"/>
      </g>
     </g>
    </g>
    <g id="xtick_9">
     <g id="line2d_9">
      <g>
       <use xlink:href="#m0133db3669" x="318.167992" y="476.745" style="stroke: #000000; stroke-width: 0.8"/>
      </g>
     </g>
     <g id="text_5">
      <!-- 01 Nov -->
      <g transform="translate(301.896898 491.018437)scale(0.1 -0.1)">
       <defs>
        <path id="Inter-Regular-4e" d="M 4255 4655 
L 4255 0 
L 3709 0 
L 1173 3655 
L 1127 3655 
L 1127 0 
L 564 0 
L 564 4655 
L 1109 4655 
L 3655 991 
L 3700 991 
L 3700 4655 
L 4255 4655 
z
" transform="scale(0.015625)"/>
        <path id="Inter-Regular-6f" d="M 1909 -73 
Q 1436 -73 1080 152 
Q 725 377 526 781 
Q 327 1186 327 1727 
Q 327 2273 526 2679 
Q 725 3086 1080 3311 
Q 1436 3536 1909 3536 
Q 2382 3536 2737 3311 
Q 3093 3086 3292 2679 
Q 3491 2273 3491 1727 
Q 3491 1186 3292 781 
Q 3093 377 2737 152 
Q 2382 -73 1909 -73 
z
M 1909 409 
Q 2268 409 2500 593 
Q 2732 777 2843 1077 
Q 2955 1377 2955 1727 
Q 2955 2077 2843 2379 
Q 2732 2682 2500 2868 
Q 2268 3055 1909 3055 
Q 1550 3055 1318 2868 
Q 1086 2682 975 2379 
Q 864 2077 864 1727 
Q 864 1377 975 1077 
Q 1086 777 1318 593 
Q 1550 409 1909 409 
z
" transform="scale(0.015625)"/>
        <path id="Inter-Regular-76" d="M 3346 3491 
L 2055 0 
L 1509 0 
L 218 3491 
L 800 3491 
L 1764 709 
L 1800 709 
L 2764 3491 
L 3346 3491 
z
" transform="scale(0.015625)"/>
       </defs>
       <use xlink:href="#Inter-Regular-30"/>
       <use xlink:href="#Inter-Regular-31" x="62.500015"/>
       <use xlink:href="#Inter-Regular-20" x="106.676163"/>
       <use xlink:href="#Inter-Regular-4e" x="134.801163"/>
       <use xlink:href="#Inter-Regular-6f" x="210.085266"/>
       <use xlink:href="#Inter-Regular-76" x="269.74437"/>
      </g>
     </g>
    </g>
    <g id="xtick_10">
     <g id="line2d_10">
      <g>
       <use xlink:href="#m0133db3669" x="348.756419" y="476.745" style="stroke: #000000; stroke-width: 0.8"/>
      </g>
     </g>
    </g>
    <g id="xtick_11">
     <g id="line2d_11">
      <g>
       <use xlink:href="#m0133db3669" x="380.364461" y="476.745" style="stroke: #000000; stroke-width: 0.8"/>
      </g>
     </g>
     <g id="text_6">
      <!-- 01 Jan -->
      <g transform="translate(365.165243 491.018437)scale(0.1 -0.1)">
       <defs>
        <path id="Inter-Regular-6e" d="M 1027 2100 
L 1027 0 
L 491 0 
L 491 3491 
L 1009 3491 
L 1009 2945 
L 1055 2945 
Q 1177 3211 1427 3373 
Q 1677 3536 2073 3536 
Q 2602 3536 2928 3211 
Q 3255 2886 3255 2218 
L 3255 0 
L 2718 0 
L 2718 2182 
Q 2718 2593 2504 2824 
Q 2291 3055 1918 3055 
Q 1534 3055 1280 2806 
Q 1027 2557 1027 2100 
z
" transform="scale(0.015625)"/>
       </defs>
       <use xlink:href="#Inter-Regular-30"/>
       <use xlink:href="#Inter-Regular-31" x="62.500015"/>
       <use xlink:href="#Inter-Regular-20" x="106.676163"/>
       <use xlink:href="#Inter-Regular-4a" x="134.801163"/>
       <use xlink:href="#Inter-Regular-61" x="189.062531"/>
       <use xlink:href="#Inter-Regular-6e" x="245.45459"/>
      </g>
     </g>
    </g>
    <g id="xtick_12">
     <g id="line2d_12">
      <g>
       <use xlink:href="#m0133db3669" x="411.972503" y="476.745" style="stroke: #000000; stroke-width: 0.8"/>
      </g>
     </g>
    </g>
    <g id="xtick_13">
     <g id="line2d_13">
      <g>
       <use xlink:href="#m0133db3669" x="440.521702" y="476.745" style="stroke: #000000; stroke-width: 0.8"/>
      </g>
     </g>
     <g id="text_7">
      <!-- 01 Mar -->
      <g transform="translate(424.484983 491.018437)scale(0.1 -0.1)">
       <use xlink:href="#Inter-Regular-30"/>
       <use xlink:href="#Inter-Regular-31" x="62.500015"/>
       <use xlink:href="#Inter-Regular-20" x="106.676163"/>
       <use xlink:href="#Inter-Regular-4d" x="134.801163"/>
       <use xlink:href="#Inter-Regular-61" x="225.99437"/>
       <use xlink:href="#Inter-Regular-72" x="282.386429"/>
      </g>
     </g>
    </g>
    <g id="xtick_14">
     <g id="line2d_14">
      <g>
       <use xlink:href="#m0133db3669" x="472.129744" y="476.745" style="stroke: #000000; stroke-width: 0.8"/>
      </g>
     </g>
    </g>
    <g id="xtick_15">
     <g id="line2d_15">
      <g>
       <use xlink:href="#m0133db3669" x="502.718172" y="476.745" style="stroke: #000000; stroke-width: 0.8"/>
      </g>
     </g>
     <g id="text_8">
      <!-- 01 May -->
      <g transform="translate(485.815047 491.116875)scale(0.1 -0.1)">
       <use xlink:href="#Inter-Regular-30"/>
       <use xlink:href="#Inter-Regular-31" x="62.500015"/>
       <use xlink:href="#Inter-Regular-20" x="106.676163"/>
       <use xlink:href="#Inter-Regular-4d" x="134.801163"/>
       <use xlink:href="#Inter-Regular-61" x="225.99437"/>
       <use xlink:href="#Inter-Regular-79" x="282.386429"/>
      </g>
     </g>
    </g>
    <g id="xtick_16">
     <g id="line2d_16">
      <g>
       <use xlink:href="#m0133db3669" x="534.326213" y="476.745" style="stroke: #000000; stroke-width: 0.8"/>
      </g>
     </g>
    </g>
    <g id="xtick_17">
     <g id="line2d_17">
      <g>
       <use xlink:href="#m0133db3669" x="564.914641" y="476.745" style="stroke: #000000; stroke-width: 0.8"/>
      </g>
     </g>
     <g id="text_9">
      <!-- 01 Jul -->
      <g transform="translate(551.370891 491.018437)scale(0.1 -0.1)">
       <use xlink:href="#Inter-Regular-30"/>
       <use xlink:href="#Inter-Regular-31" x="62.500015"/>
       <use xlink:href="#Inter-Regular-20" x="106.676163"/>
       <use xlink:href="#Inter-Regular-4a" x="134.801163"/>
       <use xlink:href="#Inter-Regular-75" x="189.062531"/>
       <use xlink:href="#Inter-Regular-6c" x="247.159134"/>
      </g>
     </g>
    </g>
    <g id="xtick_18">
     <g id="line2d_18">
      <g>
       <use xlink:href="#m0133db3669" x="596.522683" y="476.745" style="stroke: #000000; stroke-width: 0.8"/>
      </g>
     </g>
    </g>
    <g id="xtick_19">
     <g id="line2d_19">
      <g>
       <use xlink:href="#m0133db3669" x="628.130725" y="476.745" style="stroke: #000000; stroke-width: 0.8"/>
      </g>
     </g>
     <g id="text_10">
      <!-- 01 Sep -->
      <g transform="translate(612.243225 491.116875)scale(0.1 -0.1)">
       <use xlink:href="#Inter-Regular-30"/>
       <use xlink:href="#Inter-Regular-31" x="62.500015"/>
       <use xlink:href="#Inter-Regular-20" x="106.676163"/>
       <use xlink:href="#Inter-Regular-53" x="134.801163"/>
       <use xlink:href="#Inter-Regular-65" x="198.57959"/>
       <use xlink:href="#Inter-Regular-70" x="256.818237"/>
      </g>
     </g>
    </g>
    <g id="xtick_20">
     <g id="line2d_20">
      <g>
       <use xlink:href="#m0133db3669" x="658.719152" y="476.745" style="stroke: #000000; stroke-width: 0.8"/>
      </g>
     </g>
    </g>
    <g id="xtick_21">
     <g id="line2d_21">
      <g>
       <use xlink:href="#m0133db3669" x="690.327194" y="476.745" style="stroke: #000000; stroke-width: 0.8"/>
      </g>
     </g>
     <g id="text_11">
      <!-- 01 Nov -->
      <g transform="translate(674.0561 491.018437)scale(0.1 -0.1)">
       <use xlink:href="#Inter-Regular-30"/>
       <use xlink:href="#Inter-Regular-31" x="62.500015"/>
       <use xlink:href="#Inter-Regular-20" x="106.676163"/>
       <use xlink:href="#Inter-Regular-4e" x="134.801163"/>
       <use xlink:href="#Inter-Regular-6f" x="210.085266"/>
       <use xlink:href="#Inter-Regular-76" x="269.74437"/>
      </g>
     </g>
    </g>
    <g id="xtick_22">
     <g id="line2d_22">
      <g>
       <use xlink:href="#m0133db3669" x="720.915622" y="476.745" style="stroke: #000000; stroke-width: 0.8"/>
      </g>
     </g>
    </g>
   </g>
   <g id="matplotlib.axis_2">
    <g id="ytick_1">
     <g id="line2d_23">
      <path d="M 68.3625 476.745 
L 737.9625 476.745 
" clip-path="url(#pb89976c7c8)" style="fill: none; stroke: #e5e5e5; stroke-width: 0.8; stroke-linecap: square"/>
     </g>
     <g id="line2d_24">
      <defs>
       <path id="m50a992d429" d="M 0 0 
L -3.5 0 
" style="stroke: #000000; stroke-width: 0.8"/>
      </defs>
      <g>
       <use xlink:href="#m50a992d429" x="68.3625" y="476.745" style="stroke: #000000; stroke-width: 0.8"/>
      </g>
     </g>
     <g id="text_12">
      <!-- 0.00% -->
      <g transform="translate(31.73125 480.381719)scale(0.1 -0.1)">
       <defs>
        <path id="Inter-Regular-2e" d="M 882 -36 
Q 714 -36 593 84 
Q 473 205 473 373 
Q 473 541 593 661 
Q 714 782 882 782 
Q 1050 782 1170 661 
Q 1291 541 1291 373 
Q 1291 205 1170 84 
Q 1050 -36 882 -36 
z
" transform="scale(0.015625)"/>
        <path id="Inter-Regular-25" d="M 2855 873 
L 2855 1118 
Q 2855 1373 2960 1585 
Q 3066 1798 3269 1926 
Q 3473 2055 3764 2055 
Q 4059 2055 4259 1926 
Q 4459 1798 4561 1585 
Q 4664 1373 4664 1118 
L 4664 873 
Q 4664 618 4560 405 
Q 4457 193 4256 64 
Q 4055 -64 3764 -64 
Q 3468 -64 3266 64 
Q 3064 193 2959 405 
Q 2855 618 2855 873 
z
M 536 3536 
L 536 3782 
Q 536 4036 642 4248 
Q 748 4461 951 4589 
Q 1155 4718 1446 4718 
Q 1741 4718 1941 4589 
Q 2141 4461 2243 4248 
Q 2346 4036 2346 3782 
L 2346 3536 
Q 2346 3282 2242 3069 
Q 2139 2857 1937 2728 
Q 1736 2600 1446 2600 
Q 1150 2600 948 2728 
Q 746 2857 641 3069 
Q 536 3282 536 3536 
z
M 709 0 
L 3909 4655 
L 4427 4655 
L 1227 0 
L 709 0 
z
M 3318 1118 
L 3318 873 
Q 3318 661 3418 494 
Q 3518 327 3764 327 
Q 4002 327 4101 494 
Q 4200 661 4200 873 
L 4200 1118 
Q 4200 1330 4104 1497 
Q 4009 1664 3764 1664 
Q 3525 1664 3421 1497 
Q 3318 1330 3318 1118 
z
M 1000 3782 
L 1000 3536 
Q 1000 3325 1100 3158 
Q 1200 2991 1446 2991 
Q 1684 2991 1783 3158 
Q 1882 3325 1882 3536 
L 1882 3782 
Q 1882 3993 1786 4160 
Q 1691 4327 1446 4327 
Q 1207 4327 1103 4160 
Q 1000 3993 1000 3782 
z
" transform="scale(0.015625)"/>
       </defs>
       <use xlink:href="#Inter-Regular-30"/>
       <use xlink:href="#Inter-Regular-2e" x="62.500015"/>
       <use xlink:href="#Inter-Regular-30" x="90.056839"/>
       <use xlink:href="#Inter-Regular-30" x="152.556854"/>
       <use xlink:href="#Inter-Regular-25" x="215.05687"/>
      </g>
     </g>
    </g>
    <g id="ytick_2">
     <g id="line2d_25">
      <path d="M 68.3625 383.311721 
L 737.9625 383.311721 
" clip-path="url(#pb89976c7c8)" style="fill: none; stroke: #e5e5e5; stroke-width: 0.8; stroke-linecap: square"/>
     </g>
     <g id="line2d_26">
      <g>
       <use xlink:href="#m50a992d429" x="68.3625" y="383.311721" style="stroke: #000000; stroke-width: 0.8"/>
      </g>
     </g>
     <g id="text_13">
      <!-- 0.05% -->
      <g transform="translate(31.901563 386.94844)scale(0.1 -0.1)">
       <defs>
        <path id="Inter-Regular-35" d="M 1936 -64 
Q 1536 -64 1216 95 
Q 896 255 702 532 
Q 509 809 491 1164 
L 1036 1164 
Q 1068 848 1324 642 
Q 1580 436 1936 436 
Q 2223 436 2447 570 
Q 2671 705 2799 940 
Q 2927 1175 2927 1473 
Q 2927 1777 2794 2017 
Q 2661 2257 2429 2395 
Q 2198 2534 1900 2536 
Q 1686 2539 1461 2472 
Q 1236 2405 1091 2300 
L 564 2364 
L 846 4655 
L 3264 4655 
L 3264 4155 
L 1318 4155 
L 1155 2782 
L 1182 2782 
Q 1325 2895 1541 2970 
Q 1757 3045 1991 3045 
Q 2418 3045 2753 2842 
Q 3089 2639 3281 2286 
Q 3473 1934 3473 1482 
Q 3473 1036 3274 687 
Q 3075 339 2727 137 
Q 2380 -64 1936 -64 
z
" transform="scale(0.015625)"/>
       </defs>
       <use xlink:href="#Inter-Regular-30"/>
       <use xlink:href="#Inter-Regular-2e" x="62.500015"/>
       <use xlink:href="#Inter-Regular-30" x="90.056839"/>
       <use xlink:href="#Inter-Regular-35" x="152.556854"/>
       <use xlink:href="#Inter-Regular-25" x="213.352325"/>
      </g>
     </g>
    </g>
    <g id="ytick_3">
     <g id="line2d_27">
      <path d="M 68.3625 289.878443 
L 737.9625 289.878443 
" clip-path="url(#pb89976c7c8)" style="fill: none; stroke: #e5e5e5; stroke-width: 0.8; stroke-linecap: square"/>
     </g>
     <g id="line2d_28">
      <g>
       <use xlink:href="#m50a992d429" x="68.3625" y="289.878443" style="stroke: #000000; stroke-width: 0.8"/>
      </g>
     </g>
     <g id="text_14">
      <!-- 0.10% -->
      <g transform="translate(33.564063 293.515161)scale(0.1 -0.1)">
       <use xlink:href="#Inter-Regular-30"/>
       <use xlink:href="#Inter-Regular-2e" x="62.500015"/>
       <use xlink:href="#Inter-Regular-31" x="90.056839"/>
       <use xlink:href="#Inter-Regular-30" x="134.232986"/>
       <use xlink:href="#Inter-Regular-25" x="196.733002"/>
      </g>
     </g>
    </g>
    <g id="ytick_4">
     <g id="line2d_29">
      <path d="M 68.3625 196.445164 
L 737.9625 196.445164 
" clip-path="url(#pb89976c7c8)" style="fill: none; stroke: #e5e5e5; stroke-width: 0.8; stroke-linecap: square"/>
     </g>
     <g id="line2d_30">
      <g>
       <use xlink:href="#m50a992d429" x="68.3625" y="196.445164" style="stroke: #000000; stroke-width: 0.8"/>
      </g>
     </g>
     <g id="text_15">
      <!-- 0.15% -->
      <g transform="translate(33.734375 200.081883)scale(0.1 -0.1)">
       <use xlink:href="#Inter-Regular-30"/>
       <use xlink:href="#Inter-Regular-2e" x="62.500015"/>
       <use xlink:href="#Inter-Regular-31" x="90.056839"/>
       <use xlink:href="#Inter-Regular-35" x="134.232986"/>
       <use xlink:href="#Inter-Regular-25" x="195.028458"/>
      </g>
     </g>
    </g>
    <g id="ytick_5">
     <g id="line2d_31">
      <path d="M 68.3625 103.011885 
L 737.9625 103.011885 
" clip-path="url(#pb89976c7c8)" style="fill: none; stroke: #e5e5e5; stroke-width: 0.8; stroke-linecap: square"/>
     </g>
     <g id="line2d_32">
      <g>
       <use xlink:href="#m50a992d429" x="68.3625" y="103.011885" style="stroke: #000000; stroke-width: 0.8"/>
      </g>
     </g>
     <g id="text_16">
      <!-- 0.20% -->
      <g transform="translate(31.929688 106.648604)scale(0.1 -0.1)">
       <defs>
        <path id="Inter-Regular-32" d="M 482 0 
L 482 409 
L 2018 2091 
Q 2289 2386 2464 2605 
Q 2639 2825 2724 3019 
Q 2809 3214 2809 3427 
Q 2809 3795 2553 4011 
Q 2298 4227 1918 4227 
Q 1514 4227 1275 3985 
Q 1036 3743 1036 3345 
L 500 3345 
Q 500 3755 688 4064 
Q 877 4373 1203 4545 
Q 1530 4718 1936 4718 
Q 2346 4718 2661 4545 
Q 2977 4373 3156 4079 
Q 3336 3786 3336 3427 
Q 3336 3170 3244 2926 
Q 3152 2682 2926 2383 
Q 2700 2084 2300 1655 
L 1255 536 
L 1255 500 
L 3418 500 
L 3418 0 
L 482 0 
z
" transform="scale(0.015625)"/>
       </defs>
       <use xlink:href="#Inter-Regular-30"/>
       <use xlink:href="#Inter-Regular-2e" x="62.500015"/>
       <use xlink:href="#Inter-Regular-32" x="90.056839"/>
       <use xlink:href="#Inter-Regular-30" x="150.568222"/>
       <use xlink:href="#Inter-Regular-25" x="213.068237"/>
      </g>
     </g>
    </g>
    <g id="text_17">
     <!-- Percent of nation who have died within 28 days of a positive test -->
     <g transform="translate(25.614063 408.395937)rotate(-90)scale(0.1 -0.1)">
      <defs>
       <path id="Inter-Regular-50" d="M 564 0 
L 564 4655 
L 2136 4655 
Q 2684 4655 3033 4458 
Q 3382 4261 3550 3927 
Q 3718 3593 3718 3182 
Q 3718 2770 3551 2434 
Q 3384 2098 3036 1899 
Q 2689 1700 2146 1700 
L 1127 1700 
L 1127 0 
L 564 0 
z
M 1127 2200 
L 2127 2200 
Q 2689 2200 2926 2482 
Q 3164 2764 3164 3182 
Q 3164 3602 2925 3878 
Q 2686 4155 2118 4155 
L 1127 4155 
L 1127 2200 
z
" transform="scale(0.015625)"/>
       <path id="Inter-Regular-63" d="M 1909 -73 
Q 1418 -73 1063 159 
Q 709 391 518 798 
Q 327 1205 327 1727 
Q 327 2259 524 2667 
Q 721 3075 1074 3305 
Q 1427 3536 1900 3536 
Q 2268 3536 2563 3400 
Q 2859 3264 3047 3018 
Q 3236 2773 3282 2445 
L 2746 2445 
Q 2684 2684 2474 2869 
Q 2264 3055 1909 3055 
Q 1439 3055 1151 2697 
Q 864 2339 864 1745 
Q 864 1139 1148 774 
Q 1432 409 1909 409 
Q 2223 409 2447 570 
Q 2671 732 2746 1018 
L 3282 1018 
Q 3236 709 3058 462 
Q 2880 216 2588 71 
Q 2296 -73 1909 -73 
z
" transform="scale(0.015625)"/>
       <path id="Inter-Regular-74" d="M 2009 3491 
L 2009 3036 
L 1264 3036 
L 1264 1000 
Q 1264 773 1331 660 
Q 1398 548 1503 510 
Q 1609 473 1727 473 
Q 1816 473 1873 483 
Q 1930 493 1964 500 
L 2073 18 
Q 2018 -2 1920 -23 
Q 1823 -45 1673 -45 
Q 1446 -45 1228 52 
Q 1011 150 869 350 
Q 727 550 727 855 
L 727 3036 
L 200 3036 
L 200 3491 
L 727 3491 
L 727 4327 
L 1264 4327 
L 1264 3491 
L 2009 3491 
z
" transform="scale(0.015625)"/>
       <path id="Inter-Regular-66" d="M 2046 3491 
L 2046 3036 
L 1264 3036 
L 1264 0 
L 727 0 
L 727 3036 
L 164 3036 
L 164 3491 
L 727 3491 
L 727 3973 
Q 727 4273 868 4473 
Q 1009 4673 1234 4773 
Q 1459 4873 1709 4873 
Q 1907 4873 2032 4841 
Q 2157 4809 2218 4782 
L 2064 4318 
Q 2023 4332 1951 4352 
Q 1880 4373 1764 4373 
Q 1498 4373 1381 4239 
Q 1264 4105 1264 3845 
L 1264 3491 
L 2046 3491 
z
" transform="scale(0.015625)"/>
       <path id="Inter-Regular-69" d="M 491 0 
L 491 3491 
L 1027 3491 
L 1027 0 
L 491 0 
z
M 764 4073 
Q 607 4073 494 4179 
Q 382 4286 382 4436 
Q 382 4586 494 4693 
Q 607 4800 764 4800 
Q 921 4800 1033 4693 
Q 1146 4586 1146 4436 
Q 1146 4286 1033 4179 
Q 921 4073 764 4073 
z
" transform="scale(0.015625)"/>
       <path id="Inter-Regular-77" d="M 1282 0 
L 218 3491 
L 782 3491 
L 1536 818 
L 1573 818 
L 2318 3491 
L 2891 3491 
L 3627 827 
L 3664 827 
L 4418 3491 
L 4982 3491 
L 3918 0 
L 3391 0 
L 2627 2682 
L 2573 2682 
L 1809 0 
L 1282 0 
z
" transform="scale(0.015625)"/>
       <path id="Inter-Regular-68" d="M 1027 2100 
L 1027 0 
L 491 0 
L 491 4655 
L 1027 4655 
L 1027 2945 
L 1073 2945 
Q 1196 3216 1442 3376 
Q 1689 3536 2100 3536 
Q 2636 3536 2963 3213 
Q 3291 2891 3291 2218 
L 3291 0 
L 2755 0 
L 2755 2182 
Q 2755 2598 2540 2826 
Q 2325 3055 1946 3055 
Q 1548 3055 1287 2806 
Q 1027 2557 1027 2100 
z
" transform="scale(0.015625)"/>
       <path id="Inter-Regular-64" d="M 1809 -73 
Q 1373 -73 1039 148 
Q 705 370 516 776 
Q 327 1182 327 1736 
Q 327 2286 516 2690 
Q 705 3095 1041 3315 
Q 1377 3536 1818 3536 
Q 2159 3536 2358 3423 
Q 2557 3311 2662 3169 
Q 2768 3027 2827 2936 
L 2873 2936 
L 2873 4655 
L 3409 4655 
L 3409 0 
L 2891 0 
L 2891 536 
L 2827 536 
Q 2768 441 2659 296 
Q 2550 152 2348 39 
Q 2146 -73 1809 -73 
z
M 1882 409 
Q 2366 409 2624 780 
Q 2882 1152 2882 1745 
Q 2882 2332 2627 2693 
Q 2373 3055 1882 3055 
Q 1541 3055 1315 2881 
Q 1089 2707 976 2410 
Q 864 2114 864 1745 
Q 864 1373 978 1069 
Q 1093 766 1319 587 
Q 1546 409 1882 409 
z
" transform="scale(0.015625)"/>
       <path id="Inter-Regular-38" d="M 1973 -64 
Q 1505 -64 1147 103 
Q 789 270 589 564 
Q 389 859 391 1236 
Q 389 1532 507 1783 
Q 625 2034 830 2203 
Q 1036 2373 1291 2418 
L 1291 2445 
Q 957 2532 759 2821 
Q 561 3111 564 3482 
Q 561 3836 743 4115 
Q 925 4395 1244 4556 
Q 1564 4718 1973 4718 
Q 2377 4718 2695 4556 
Q 3014 4395 3197 4115 
Q 3380 3836 3382 3482 
Q 3380 3111 3181 2821 
Q 2982 2532 2655 2445 
L 2655 2418 
Q 2907 2373 3109 2203 
Q 3311 2034 3431 1783 
Q 3552 1532 3555 1236 
Q 3552 859 3351 564 
Q 3150 270 2794 103 
Q 2439 -64 1973 -64 
z
M 1973 436 
Q 2446 436 2722 662 
Q 2998 889 3000 1264 
Q 2998 1527 2864 1729 
Q 2730 1932 2499 2048 
Q 2268 2164 1973 2164 
Q 1675 2164 1442 2048 
Q 1209 1932 1076 1729 
Q 943 1527 946 1264 
Q 943 889 1218 662 
Q 1493 436 1973 436 
z
M 1973 2645 
Q 2348 2645 2591 2864 
Q 2834 3084 2836 3445 
Q 2834 3800 2596 4013 
Q 2359 4227 1973 4227 
Q 1582 4227 1344 4013 
Q 1107 3800 1109 3445 
Q 1107 3084 1349 2864 
Q 1591 2645 1973 2645 
z
" transform="scale(0.015625)"/>
       <path id="Inter-Regular-73" d="M 2964 2709 
L 2482 2573 
Q 2411 2755 2245 2914 
Q 2080 3073 1727 3073 
Q 1407 3073 1194 2926 
Q 982 2780 982 2555 
Q 982 2355 1127 2239 
Q 1273 2123 1582 2045 
L 2100 1918 
Q 3027 1691 3027 973 
Q 3027 673 2855 436 
Q 2684 200 2377 63 
Q 2071 -73 1664 -73 
Q 1130 -73 780 159 
Q 430 391 336 836 
L 846 964 
Q 989 400 1655 400 
Q 2030 400 2251 560 
Q 2473 720 2473 945 
Q 2473 1316 1955 1436 
L 1373 1573 
Q 893 1686 669 1926 
Q 446 2166 446 2527 
Q 446 2823 613 3050 
Q 780 3277 1069 3406 
Q 1359 3536 1727 3536 
Q 2246 3536 2542 3309 
Q 2839 3082 2964 2709 
z
" transform="scale(0.015625)"/>
      </defs>
      <use xlink:href="#Inter-Regular-50"/>
      <use xlink:href="#Inter-Regular-65" x="63.494324"/>
      <use xlink:href="#Inter-Regular-72" x="121.732971"/>
      <use xlink:href="#Inter-Regular-63" x="160.085251"/>
      <use xlink:href="#Inter-Regular-65" x="215.909119"/>
      <use xlink:href="#Inter-Regular-6e" x="274.147766"/>
      <use xlink:href="#Inter-Regular-74" x="332.670502"/>
      <use xlink:href="#Inter-Regular-20" x="369.034149"/>
      <use xlink:href="#Inter-Regular-6f" x="397.159149"/>
      <use xlink:href="#Inter-Regular-66" x="456.818253"/>
      <use xlink:href="#Inter-Regular-20" x="492.897797"/>
      <use xlink:href="#Inter-Regular-6e" x="521.022797"/>
      <use xlink:href="#Inter-Regular-61" x="579.545532"/>
      <use xlink:href="#Inter-Regular-74" x="635.937592"/>
      <use xlink:href="#Inter-Regular-69" x="672.301239"/>
      <use xlink:href="#Inter-Regular-6f" x="696.022827"/>
      <use xlink:href="#Inter-Regular-6e" x="755.681931"/>
      <use xlink:href="#Inter-Regular-20" x="814.204666"/>
      <use xlink:href="#Inter-Regular-77" x="842.329666"/>
      <use xlink:href="#Inter-Regular-68" x="923.579681"/>
      <use xlink:href="#Inter-Regular-6f" x="982.670609"/>
      <use xlink:href="#Inter-Regular-20" x="1042.329712"/>
      <use xlink:href="#Inter-Regular-68" x="1070.454712"/>
      <use xlink:href="#Inter-Regular-61" x="1129.545639"/>
      <use xlink:href="#Inter-Regular-76" x="1185.937698"/>
      <use xlink:href="#Inter-Regular-65" x="1241.619522"/>
      <use xlink:href="#Inter-Regular-20" x="1299.85817"/>
      <use xlink:href="#Inter-Regular-64" x="1327.98317"/>
      <use xlink:href="#Inter-Regular-69" x="1390.057053"/>
      <use xlink:href="#Inter-Regular-65" x="1413.778641"/>
      <use xlink:href="#Inter-Regular-64" x="1472.017288"/>
      <use xlink:href="#Inter-Regular-20" x="1534.091171"/>
      <use xlink:href="#Inter-Regular-77" x="1562.216171"/>
      <use xlink:href="#Inter-Regular-69" x="1643.466187"/>
      <use xlink:href="#Inter-Regular-74" x="1667.187775"/>
      <use xlink:href="#Inter-Regular-68" x="1703.551422"/>
      <use xlink:href="#Inter-Regular-69" x="1762.642349"/>
      <use xlink:href="#Inter-Regular-6e" x="1786.363937"/>
      <use xlink:href="#Inter-Regular-20" x="1844.886673"/>
      <use xlink:href="#Inter-Regular-32" x="1873.011673"/>
      <use xlink:href="#Inter-Regular-38" x="1933.523056"/>
      <use xlink:href="#Inter-Regular-20" x="1995.170792"/>
      <use xlink:href="#Inter-Regular-64" x="2023.295792"/>
      <use xlink:href="#Inter-Regular-61" x="2085.369675"/>
      <use xlink:href="#Inter-Regular-79" x="2141.761734"/>
      <use xlink:href="#Inter-Regular-73" x="2197.443558"/>
      <use xlink:href="#Inter-Regular-20" x="2249.716293"/>
      <use xlink:href="#Inter-Regular-6f" x="2277.841293"/>
      <use xlink:href="#Inter-Regular-66" x="2337.500397"/>
      <use xlink:href="#Inter-Regular-20" x="2373.579941"/>
      <use xlink:href="#Inter-Regular-61" x="2401.704941"/>
      <use xlink:href="#Inter-Regular-20" x="2458.097"/>
      <use xlink:href="#Inter-Regular-70" x="2486.222"/>
      <use xlink:href="#Inter-Regular-6f" x="2547.159515"/>
      <use xlink:href="#Inter-Regular-73" x="2606.818619"/>
      <use xlink:href="#Inter-Regular-69" x="2659.091354"/>
      <use xlink:href="#Inter-Regular-74" x="2682.812943"/>
      <use xlink:href="#Inter-Regular-69" x="2719.17659"/>
      <use xlink:href="#Inter-Regular-76" x="2742.898178"/>
      <use xlink:href="#Inter-Regular-65" x="2798.580002"/>
      <use xlink:href="#Inter-Regular-20" x="2856.818649"/>
      <use xlink:href="#Inter-Regular-74" x="2884.943649"/>
      <use xlink:href="#Inter-Regular-65" x="2921.307297"/>
      <use xlink:href="#Inter-Regular-73" x="2979.545944"/>
      <use xlink:href="#Inter-Regular-74" x="3031.81868"/>
     </g>
    </g>
   </g>
   <g id="line2d_33">
    <path d="M 73.460571 476.741696 
L 82.6371 476.606214 
L 86.715557 476.236116 
L 89.774399 475.872628 
L 90.794014 475.65123 
L 92.833242 474.590505 
L 93.852856 474.032054 
L 95.892085 472.214612 
L 96.911699 471.570246 
L 98.950928 469.187745 
L 102.00977 463.008441 
L 103.029385 460.731682 
L 105.068613 457.067058 
L 109.14707 443.994692 
L 110.166684 441.532884 
L 111.186299 439.537002 
L 112.205913 437.24372 
L 113.225527 433.916149 
L 114.245141 431.503907 
L 117.303984 422.462959 
L 118.323598 421.207271 
L 119.343213 419.436091 
L 120.362827 415.748336 
L 121.382441 413.352616 
L 122.402055 411.389779 
L 124.441284 406.267896 
L 126.480512 404.232361 
L 127.500127 401.383934 
L 130.558969 395.535074 
L 131.578584 393.932421 
L 133.617812 392.382638 
L 134.637426 390.271101 
L 135.657041 388.523052 
L 136.676655 387.277278 
L 137.696269 385.631666 
L 139.735498 384.257019 
L 140.755112 383.682047 
L 141.774726 381.900953 
L 142.79434 380.704746 
L 145.853183 377.628312 
L 146.872797 377.486221 
L 147.892412 377.043426 
L 148.912026 375.566341 
L 151.970869 373.134273 
L 152.990483 372.483298 
L 154.010097 371.287091 
L 156.049326 370.655943 
L 157.06894 369.347384 
L 158.088554 368.306486 
L 159.108168 367.493593 
L 160.127783 367.106974 
L 161.147397 366.978101 
L 162.167011 366.71705 
L 164.20624 365.24327 
L 165.225854 364.873172 
L 166.245468 364.083411 
L 167.265083 363.667052 
L 169.304311 363.359739 
L 171.34354 362.295709 
L 172.363154 362.084225 
L 174.402382 361.386988 
L 176.441611 361.228375 
L 178.480839 360.580704 
L 182.559296 359.820683 
L 183.578911 359.777725 
L 187.657368 358.703782 
L 191.735825 358.287423 
L 192.755439 357.990023 
L 203.971196 356.925993 
L 204.99081 356.899558 
L 207.030038 356.681465 
L 211.108495 356.460067 
L 215.186952 356.261801 
L 217.226181 356.106492 
L 223.343866 355.861963 
L 239.657694 355.379515 
L 244.755766 355.257251 
L 249.853837 355.082115 
L 260.049979 354.837587 
L 264.128436 354.708714 
L 276.363808 354.14035 
L 282.481493 353.535637 
L 283.501107 353.49268 
L 286.55995 352.904489 
L 288.599179 352.583959 
L 291.658021 352.207252 
L 297.775707 350.974696 
L 302.873778 349.021772 
L 304.913007 348.58889 
L 305.932621 347.885044 
L 307.971849 346.880495 
L 308.991464 346.25926 
L 311.030692 345.340625 
L 312.050306 345.043226 
L 313.069921 343.979196 
L 317.148378 340.82676 
L 319.187606 339.977519 
L 322.246449 336.527683 
L 324.285677 334.442581 
L 325.305292 334.022917 
L 326.324906 333.44464 
L 329.383749 328.795293 
L 330.403363 327.870049 
L 331.422977 326.561491 
L 332.442591 326.088956 
L 333.462206 325.457808 
L 334.48182 323.746108 
L 337.540663 319.532946 
L 338.560277 318.653965 
L 339.579891 317.431322 
L 340.599505 316.790261 
L 341.61912 315.022385 
L 342.638734 313.026503 
L 345.697577 308.866213 
L 347.736805 307.600612 
L 349.776034 304.01199 
L 350.795648 302.928134 
L 351.815262 301.527051 
L 352.834876 300.390323 
L 354.874105 299.141245 
L 355.893719 297.363456 
L 357.932948 294.488593 
L 358.952562 293.322126 
L 359.972176 291.868172 
L 360.99179 291.412159 
L 362.011405 290.771098 
L 363.031019 289.227924 
L 364.050633 287.453439 
L 367.109476 283.217147 
L 368.12909 282.420777 
L 369.148705 281.766498 
L 371.187933 277.692123 
L 372.207547 276.145645 
L 373.227162 274.262114 
L 374.246776 273.683837 
L 375.26639 272.870944 
L 377.305619 270.617316 
L 379.344847 264.870894 
L 380.364461 262.845272 
L 382.40369 260.396682 
L 383.423304 259.174039 
L 384.442918 256.583358 
L 385.462533 253.662233 
L 386.482147 250.344574 
L 387.501761 246.524641 
L 388.521375 243.646474 
L 390.560604 240.365165 
L 391.580218 236.561754 
L 392.599832 231.935537 
L 395.658675 220.723571 
L 397.697904 216.897029 
L 399.737132 206.425258 
L 401.776361 198.544168 
L 402.795975 194.469793 
L 404.835203 190.838213 
L 406.874432 180.634101 
L 409.933275 169.696403 
L 410.952889 167.951659 
L 411.972503 166.735625 
L 412.992117 162.254804 
L 414.011732 158.378695 
L 417.070574 150.338992 
L 419.109803 148.247281 
L 421.149031 141.968845 
L 424.207874 136.037374 
L 426.247103 134.590029 
L 427.266717 132.167874 
L 428.286331 130.059642 
L 429.305945 128.813868 
L 430.32556 127.224432 
L 431.345174 125.912569 
L 433.384402 124.739493 
L 434.404017 123.143448 
L 435.423631 121.887761 
L 438.482474 119.17812 
L 440.521702 118.470969 
L 442.560931 116.584134 
L 444.600159 115.2194 
L 445.619773 114.773301 
L 447.659002 114.366854 
L 448.678616 113.682835 
L 451.737459 112.232186 
L 452.757073 111.881915 
L 454.796302 111.548167 
L 458.874759 110.272653 
L 459.894373 110.001689 
L 461.933602 109.862902 
L 463.97283 109.218536 
L 468.051287 108.656781 
L 471.11013 108.336251 
L 474.168973 108.019024 
L 477.227815 107.883542 
L 482.325887 107.318483 
L 485.384729 107.103694 
L 492.522029 106.63116 
L 494.561258 106.469242 
L 496.600486 106.356891 
L 498.639715 106.294107 
L 501.698557 106.109058 
L 511.8947 105.838094 
L 516.992771 105.643132 
L 529.228142 105.421734 
L 558.796955 104.569189 
L 562.875413 104.390749 
L 568.993098 104.106567 
L 575.110784 103.571248 
L 576.130398 103.551421 
L 581.228469 102.883924 
L 583.267698 102.764964 
L 585.306926 102.28582 
L 589.385383 101.57867 
L 590.404997 101.539017 
L 591.424612 101.13918 
L 594.483454 100.494814 
L 596.522683 100.144543 
L 597.542297 100.088368 
L 599.581526 99.348173 
L 603.659983 98.446061 
L 604.679597 98.360145 
L 605.699211 97.923959 
L 609.777668 96.797145 
L 611.816897 96.552616 
L 612.836511 96.043733 
L 617.934582 94.712043 
L 618.954196 94.616214 
L 620.993425 93.66784 
L 623.032653 92.983821 
L 624.052268 92.590593 
L 627.11111 92.170929 
L 628.130725 91.562912 
L 629.150339 91.087072 
L 632.209182 90.241135 
L 633.228796 90.148611 
L 635.268024 89.021797 
L 638.326867 87.716543 
L 640.366096 87.472014 
L 643.424938 86.064323 
L 645.464167 85.201864 
L 647.503395 85.000293 
L 648.52301 84.42532 
L 652.601467 82.852407 
L 654.640695 82.65414 
L 656.679924 81.821421 
L 659.738767 80.929223 
L 661.777995 80.787132 
L 662.797609 80.32451 
L 666.876066 79.035778 
L 668.915295 78.873861 
L 669.934909 78.388108 
L 674.013366 76.973807 
L 676.052595 76.765628 
L 677.072209 76.141088 
L 678.091823 75.698293 
L 679.111437 75.4802 
L 681.150666 74.59461 
L 683.189894 74.369908 
L 685.229123 73.124134 
L 687.268351 72.225327 
L 688.287966 71.769314 
L 689.30758 71.574352 
L 690.327194 71.531394 
L 691.346808 70.688762 
L 693.386037 69.588383 
L 695.425265 68.676358 
L 697.464494 68.415307 
L 698.484108 67.655286 
L 700.523337 66.59456 
L 702.562565 65.725493 
L 704.601794 65.461137 
L 706.641022 64.307888 
L 709.699865 62.986111 
L 711.739093 62.718452 
L 713.778322 61.829557 
L 716.837165 60.673003 
L 718.876393 60.471432 
L 720.915622 59.532971 
L 723.974464 58.465637 
L 726.013693 58.217804 
L 728.052921 57.242994 
L 731.111764 56.185573 
L 733.150993 55.954262 
L 736.209835 54.668835 
L 737.22945 54.345 
L 737.22945 54.345 
" clip-path="url(#pb89976c7c8)" style="fill: none; stroke: #5694ca; stroke-width: 2; stroke-linecap: square"/>
   </g>
   <g id="line2d_34">
    <path d="M 73.460571 476.745 
L 89.774399 476.646416 
L 91.813628 476.350665 
L 93.852856 475.857746 
L 95.892085 475.364827 
L 96.911699 474.773324 
L 97.931313 474.67474 
L 98.950928 474.083238 
L 99.970542 473.88607 
L 100.990156 473.294567 
L 102.00977 472.111562 
L 104.048999 470.632805 
L 105.068613 469.942719 
L 106.088227 469.646967 
L 108.127456 468.759713 
L 109.14707 467.773875 
L 110.166684 466.295118 
L 111.186299 465.210697 
L 112.205913 464.619194 
L 113.225527 463.633356 
L 114.245141 463.041853 
L 117.303984 457.816913 
L 118.323598 457.718329 
L 120.362827 455.15515 
L 121.382441 452.197637 
L 122.402055 450.916047 
L 124.441284 447.85995 
L 125.460898 447.367031 
L 126.480512 446.381193 
L 127.500127 444.409517 
L 129.539355 442.635009 
L 130.558969 440.860501 
L 131.578584 439.776079 
L 133.617812 438.691658 
L 134.637426 437.015733 
L 135.657041 435.63556 
L 140.755112 433.663884 
L 141.774726 432.77663 
L 142.79434 432.579463 
L 143.813955 432.086544 
L 144.833569 430.607787 
L 147.892412 429.326198 
L 148.912026 428.636111 
L 149.93164 428.143192 
L 150.951254 427.453106 
L 151.970869 427.157354 
L 154.010097 426.960187 
L 155.029711 426.171516 
L 156.049326 426.171516 
L 161.147397 425.284262 
L 163.186625 424.988511 
L 164.20624 424.199841 
L 168.284697 423.904089 
L 172.363154 423.805505 
L 178.480839 423.312587 
L 180.520068 423.214003 
L 182.559296 423.115419 
L 184.598525 423.016835 
L 190.71621 422.523916 
L 193.775053 422.425332 
L 194.794667 422.228165 
L 203.971196 422.228165 
L 204.99081 422.030997 
L 236.598852 421.932413 
L 238.63808 421.83383 
L 249.853837 421.735246 
L 251.893065 421.636662 
L 255.971522 421.636662 
L 258.010751 421.340911 
L 260.049979 421.242327 
L 262.089208 421.143743 
L 263.108822 420.946576 
L 268.206894 420.847992 
L 271.265736 420.355073 
L 272.285351 420.355073 
L 273.304965 420.157905 
L 275.344193 420.157905 
L 276.363808 419.960738 
L 284.520722 419.862154 
L 294.716864 418.9749 
L 296.756093 418.876316 
L 297.775707 418.580565 
L 298.795321 417.890478 
L 300.83455 417.101808 
L 302.873778 416.707473 
L 310.011078 413.25704 
L 311.030692 412.46837 
L 312.050306 411.975451 
L 313.069921 410.693862 
L 319.187606 405.468921 
L 320.20722 404.877418 
L 321.226835 403.89158 
L 322.246449 402.708575 
L 323.266063 401.919904 
L 324.285677 400.539731 
L 325.305292 399.849645 
L 328.364134 396.990715 
L 329.383749 395.511958 
L 331.422977 393.441699 
L 332.442591 392.554444 
L 333.462206 391.174271 
L 334.48182 390.287017 
L 336.521048 388.01959 
L 337.540663 386.836585 
L 339.579891 384.864909 
L 340.599505 384.569158 
L 341.61912 383.484736 
L 343.658348 382.005979 
L 344.677962 380.822974 
L 345.697577 379.935719 
L 346.717191 379.639968 
L 347.736805 378.65413 
L 348.756419 377.175373 
L 349.776034 376.781038 
L 350.795648 375.696617 
L 352.834876 374.415027 
L 353.854491 373.330606 
L 354.874105 372.443352 
L 355.893719 371.063179 
L 356.913333 369.880173 
L 357.932948 368.5 
L 358.952562 367.316995 
L 359.972176 366.42974 
L 362.011405 365.542486 
L 363.031019 364.950984 
L 364.050633 364.162313 
L 366.089862 361.796302 
L 367.109476 360.120378 
L 368.12909 358.838789 
L 369.148705 358.148702 
L 370.168319 356.571362 
L 371.187933 354.501102 
L 372.207547 353.41668 
L 373.227162 353.41668 
L 374.246776 351.445005 
L 375.26639 351.445005 
L 376.286004 349.473329 
L 377.305619 348.093156 
L 378.325233 347.501653 
L 379.344847 346.417231 
L 380.364461 346.417231 
L 381.384076 343.854053 
L 382.40369 343.26255 
L 383.423304 342.079545 
L 384.442918 340.305036 
L 385.462533 339.023447 
L 386.482147 337.347523 
L 387.501761 335.375847 
L 388.521375 334.488593 
L 390.560604 331.235328 
L 391.580218 329.066485 
L 392.599832 327.193393 
L 393.619447 325.616052 
L 394.639061 323.052873 
L 395.658675 320.88403 
L 396.678289 318.419435 
L 397.697904 316.546343 
L 399.737132 312.011489 
L 400.756746 309.94123 
L 402.795975 307.575219 
L 403.815589 306.195046 
L 406.874432 301.36444 
L 407.894046 300.082851 
L 408.91366 297.914007 
L 410.952889 294.364991 
L 411.972503 293.280569 
L 412.992117 291.604645 
L 415.031346 289.534385 
L 416.05096 287.957045 
L 417.070574 287.266958 
L 418.090189 286.379704 
L 419.109803 285.196699 
L 420.129417 284.210861 
L 421.149031 283.816525 
L 424.207874 281.056179 
L 425.227488 279.971758 
L 426.247103 279.577423 
L 427.266717 278.690168 
L 430.32556 277.014244 
L 432.364788 276.324158 
L 436.443245 274.746817 
L 441.541316 273.662395 
L 443.580545 272.972309 
L 444.600159 272.775141 
L 446.639388 272.085055 
L 448.678616 271.690719 
L 450.717845 270.014795 
L 455.815916 269.62046 
L 457.855144 269.521876 
L 458.874759 269.226125 
L 460.913987 269.127541 
L 464.992444 268.83179 
L 466.012059 268.83179 
L 468.051287 268.437454 
L 469.070901 268.437454 
L 470.090516 267.944536 
L 475.188587 267.845952 
L 482.325887 266.564362 
L 485.384729 266.465779 
L 488.443572 265.97286 
L 491.502415 265.874276 
L 492.522029 265.775692 
L 493.541643 265.479941 
L 497.6201 265.184189 
L 500.678943 265.085606 
L 503.737786 264.888438 
L 511.8947 264.789854 
L 514.953543 264.592687 
L 519.032 264.494103 
L 520.051614 264.296935 
L 535.345828 264.198352 
L 537.385056 264.099768 
L 564.914641 264.001184 
L 566.95387 263.9026 
L 574.091169 263.804016 
L 576.130398 263.705433 
L 580.208855 263.606849 
L 582.248083 263.311097 
L 590.404997 262.522427 
L 594.483454 261.438005 
L 595.503069 260.649335 
L 598.561911 259.071995 
L 599.581526 258.973411 
L 601.620754 258.283324 
L 602.640368 257.691821 
L 603.659983 257.593238 
L 604.679597 256.804567 
L 606.718825 256.311648 
L 608.758054 255.621562 
L 609.777668 255.128643 
L 611.816897 254.53714 
L 612.836511 253.847054 
L 613.856125 252.762632 
L 615.895354 250.988124 
L 616.914968 250.593789 
L 617.934582 249.509367 
L 618.954196 248.622113 
L 619.973811 247.439107 
L 624.052268 245.467432 
L 625.071882 244.580178 
L 627.11111 243.397172 
L 628.130725 242.509918 
L 629.150339 241.326913 
L 630.169953 240.439658 
L 632.209182 239.059485 
L 633.228796 238.172231 
L 637.307253 235.510469 
L 638.326867 235.214718 
L 639.346481 234.623215 
L 642.405324 232.15862 
L 643.424938 231.665701 
L 644.444553 230.679863 
L 646.483781 229.595442 
L 648.52301 228.708188 
L 649.542624 228.313852 
L 651.581852 226.736512 
L 655.660309 224.86342 
L 657.699538 224.469085 
L 658.719152 223.680414 
L 660.758381 223.384663 
L 667.895681 221.314403 
L 669.934909 220.229982 
L 670.954523 220.131398 
L 671.974138 219.539895 
L 676.052595 218.061138 
L 677.072209 217.272468 
L 678.091823 216.680965 
L 679.111437 216.28663 
L 680.131052 215.596544 
L 681.150666 214.610706 
L 683.189894 213.723452 
L 684.209509 213.329117 
L 685.229123 212.737614 
L 686.248737 211.85036 
L 689.30758 209.7801 
L 690.327194 208.794262 
L 691.346808 208.597095 
L 692.366423 207.709841 
L 693.386037 206.526835 
L 694.405651 206.1325 
L 695.425265 205.540997 
L 696.44488 205.146662 
L 697.464494 204.06224 
L 700.523337 202.090565 
L 702.562565 201.597646 
L 705.621408 200.118889 
L 706.641022 198.935883 
L 709.699865 197.062791 
L 710.719479 196.372705 
L 712.758708 195.682618 
L 714.797936 194.795364 
L 715.81755 193.90811 
L 717.856779 193.513775 
L 718.876393 193.11944 
L 719.896007 192.922272 
L 720.915622 192.527937 
L 721.935236 192.33077 
L 722.95485 191.936434 
L 723.974464 191.04918 
L 724.994079 190.359094 
L 726.013693 190.26051 
L 729.072536 188.880337 
L 731.111764 188.387418 
L 733.150993 187.697332 
L 735.190221 186.908661 
L 736.209835 186.317158 
L 737.22945 186.021407 
L 737.22945 186.021407 
" clip-path="url(#pb89976c7c8)" style="fill: none; stroke: #ffdd00; stroke-width: 2; stroke-linecap: square"/>
   </g>
   <g id="line2d_35">
    <path d="M 73.460571 476.745 
L 85.695942 476.676626 
L 87.735171 476.574065 
L 89.774399 476.437316 
L 94.872471 475.651014 
L 95.892085 475.411704 
L 96.911699 475.377517 
L 97.931313 475.172395 
L 98.950928 474.420279 
L 100.990156 472.471616 
L 103.029385 469.326405 
L 105.068613 469.189656 
L 108.127456 461.497564 
L 110.166684 458.249792 
L 111.186299 457.429302 
L 112.205913 457.121618 
L 113.225527 455.754135 
L 115.264756 450.147455 
L 117.303984 446.250128 
L 119.343213 445.498013 
L 122.402055 438.489662 
L 123.42167 436.301689 
L 124.441284 434.694897 
L 125.460898 434.079529 
L 126.480512 433.635097 
L 127.500127 431.242002 
L 128.519741 428.404475 
L 129.539355 426.35325 
L 131.578584 423.481536 
L 132.598198 423.071291 
L 133.617812 422.900355 
L 134.637426 421.396124 
L 135.657041 418.558597 
L 136.676655 416.541559 
L 137.696269 414.866392 
L 138.715883 413.635658 
L 139.735498 413.293787 
L 140.755112 413.122852 
L 141.774726 411.413498 
L 142.79434 409.328086 
L 143.813955 408.165726 
L 145.853183 405.19145 
L 146.872797 404.883766 
L 147.892412 404.815392 
L 148.912026 403.823967 
L 149.93164 402.114613 
L 150.951254 400.849691 
L 151.970869 400.029201 
L 152.990483 399.482208 
L 154.010097 399.174525 
L 155.029711 399.071963 
L 156.049326 398.456596 
L 159.108168 397.089113 
L 160.127783 396.336997 
L 161.147397 396.029314 
L 162.167011 395.995127 
L 164.20624 395.208824 
L 165.225854 394.90114 
L 166.245468 394.422521 
L 167.265083 394.217399 
L 169.304311 394.217399 
L 170.323925 393.978089 
L 171.34354 393.567844 
L 174.402382 393.123412 
L 177.461225 392.91829 
L 178.480839 392.610606 
L 179.500454 392.542232 
L 180.520068 392.337109 
L 182.559296 392.268735 
L 183.578911 392.268735 
L 186.637753 391.926864 
L 191.735825 391.824303 
L 199.892739 391.653368 
L 248.834223 391.584994 
L 250.873451 391.51662 
L 262.089208 391.448245 
L 264.128436 391.345684 
L 273.304965 391.243123 
L 275.344193 391.140562 
L 278.403036 391.038001 
L 281.461879 390.935439 
L 284.520722 390.901252 
L 285.540336 390.661943 
L 289.618793 390.285885 
L 292.677636 390.183324 
L 296.756093 389.602143 
L 297.775707 389.602143 
L 298.795321 389.362834 
L 300.83455 388.405596 
L 301.854164 388.097912 
L 302.873778 387.585106 
L 304.913007 387.550919 
L 305.932621 387.038113 
L 306.952235 386.080874 
L 308.991464 384.884327 
L 310.011078 384.508269 
L 312.050306 384.439895 
L 314.089535 382.62798 
L 315.109149 381.363058 
L 317.148378 379.58533 
L 318.167992 379.380208 
L 319.187606 379.380208 
L 320.20722 378.422969 
L 321.226835 376.713616 
L 322.246449 375.38032 
L 323.266063 374.32052 
L 324.285677 372.987224 
L 326.324906 372.850476 
L 327.34452 371.51718 
L 328.364134 369.329207 
L 329.383749 367.790789 
L 330.403363 365.876313 
L 331.422977 364.645578 
L 332.442591 364.645578 
L 333.462206 364.440455 
L 334.48182 363.175534 
L 336.521048 359.620078 
L 337.540663 358.526091 
L 338.560277 357.261169 
L 339.579891 357.02186 
L 340.599505 357.02186 
L 342.638734 354.115958 
L 343.658348 352.372418 
L 344.677962 351.107496 
L 345.697577 349.603264 
L 347.736805 349.432329 
L 349.776034 346.97086 
L 350.795648 345.227319 
L 351.815262 343.825649 
L 352.834876 343.073533 
L 353.854491 342.902598 
L 354.874105 342.86841 
L 355.893719 341.740237 
L 356.913333 340.406941 
L 357.932948 338.697587 
L 358.952562 337.671975 
L 359.972176 336.338679 
L 362.011405 336.270305 
L 363.031019 335.449815 
L 364.050633 334.150706 
L 365.070248 333.125094 
L 367.109476 330.492689 
L 369.148705 330.390128 
L 373.227162 324.373202 
L 376.286004 324.339015 
L 377.305619 324.099706 
L 378.325233 322.629661 
L 379.344847 320.30494 
L 380.364461 318.834896 
L 383.423304 318.800709 
L 384.442918 318.424651 
L 385.462533 316.09993 
L 386.482147 313.433338 
L 388.521375 307.074542 
L 390.560604 306.937794 
L 391.580218 305.091691 
L 392.599832 302.390912 
L 394.639061 298.117528 
L 395.658675 295.450936 
L 397.697904 295.450936 
L 398.717518 293.023654 
L 400.756746 286.835793 
L 402.795975 281.810293 
L 404.835203 281.639357 
L 407.894046 272.716531 
L 408.91366 270.323435 
L 409.933275 268.272211 
L 411.972503 267.861966 
L 412.992117 265.503057 
L 414.011732 262.494595 
L 415.031346 260.68268 
L 416.05096 258.597268 
L 417.070574 256.956288 
L 419.109803 256.546044 
L 420.129417 254.563193 
L 422.168646 251.21286 
L 423.18826 248.922326 
L 424.207874 247.383907 
L 425.227488 247.247159 
L 426.247103 247.247159 
L 427.266717 245.571992 
L 429.305945 241.435356 
L 431.345174 239.384131 
L 432.364788 239.213196 
L 433.384402 239.213196 
L 434.404017 237.29872 
L 435.423631 235.691927 
L 437.462859 233.709077 
L 438.482474 233.093709 
L 440.521702 233.025335 
L 442.560931 230.700614 
L 443.580545 229.880124 
L 445.619773 229.093822 
L 447.659002 229.059634 
L 449.69823 227.726339 
L 450.717845 226.974223 
L 451.737459 226.393043 
L 452.757073 226.119546 
L 455.815916 225.811862 
L 456.83553 225.401617 
L 459.894373 224.615315 
L 461.933602 224.615315 
L 462.953216 224.376005 
L 463.97283 224.273444 
L 464.992444 223.931573 
L 467.031673 223.521328 
L 469.070901 223.521328 
L 470.090516 223.111083 
L 473.149358 222.495716 
L 477.227815 222.495716 
L 478.24743 222.324781 
L 479.267044 222.290593 
L 481.306272 221.948723 
L 484.365115 221.846161 
L 488.443572 221.538478 
L 492.522029 221.435917 
L 496.600486 221.128233 
L 499.659329 221.059859 
L 500.678943 220.888923 
L 514.953543 220.786362 
L 516.992771 220.717988 
L 529.228142 220.649614 
L 531.267371 220.58124 
L 535.345828 220.512865 
L 537.385056 220.307743 
L 543.502742 220.205182 
L 547.581199 220.136808 
L 556.757727 219.453066 
L 558.796955 219.213757 
L 560.836184 219.077008 
L 562.875413 219.042821 
L 564.914641 218.735138 
L 566.95387 218.495828 
L 568.993098 218.495828 
L 574.091169 217.53859 
L 576.130398 217.53859 
L 577.150012 217.401842 
L 578.169626 217.025784 
L 579.189241 216.376229 
L 581.228469 216.068546 
L 583.267698 216.068546 
L 584.287312 215.624114 
L 585.306926 215.384804 
L 586.32654 214.632688 
L 587.346155 214.427566 
L 588.365769 214.051508 
L 590.404997 214.051508 
L 592.444226 213.504515 
L 593.46384 213.060083 
L 596.522683 212.444716 
L 597.542297 212.410528 
L 598.561911 212.102845 
L 600.60114 211.282355 
L 602.640368 210.735362 
L 604.679597 210.735362 
L 606.718825 210.017433 
L 609.777668 209.299505 
L 611.816897 209.299505 
L 615.895354 208.102957 
L 617.934582 208.000396 
L 618.954196 208.000396 
L 619.973811 207.658525 
L 620.993425 207.48759 
L 622.013039 207.00897 
L 623.032653 206.872222 
L 624.052268 206.598726 
L 626.091496 206.598726 
L 628.130725 206.051732 
L 629.150339 205.470552 
L 631.189567 204.752623 
L 633.228796 204.752623 
L 638.326867 202.120219 
L 640.366096 202.120219 
L 641.38571 201.40229 
L 644.444553 198.462201 
L 645.464167 197.53915 
L 647.503395 197.470776 
L 648.52301 196.855409 
L 649.542624 195.79561 
L 650.562238 194.530688 
L 651.581852 192.821334 
L 652.601467 192.205967 
L 654.640695 192.103405 
L 655.660309 191.556412 
L 656.679924 190.599174 
L 658.719152 188.240266 
L 659.738767 187.659085 
L 661.777995 187.624898 
L 662.797609 186.90697 
L 663.817224 185.744609 
L 664.836838 184.411313 
L 666.876066 183.248953 
L 668.915295 183.214766 
L 670.954523 181.266102 
L 672.993752 179.180691 
L 674.013366 178.462762 
L 676.052595 178.394388 
L 678.091823 176.685034 
L 679.111437 175.591048 
L 680.131052 174.941493 
L 681.150666 174.941493 
L 682.17028 174.223565 
L 683.189894 174.223565 
L 684.209509 173.539823 
L 685.229123 172.616772 
L 686.248737 171.933031 
L 688.287966 170.428799 
L 690.327194 170.428799 
L 691.346808 169.539935 
L 692.366423 168.856194 
L 693.386037 167.72802 
L 695.425265 166.052853 
L 697.464494 165.984479 
L 699.503722 164.651183 
L 700.523337 163.762319 
L 701.542951 163.181139 
L 702.562565 162.736707 
L 704.601794 162.70252 
L 705.621408 162.12134 
L 706.641022 161.676908 
L 707.660636 160.685483 
L 708.680251 160.035928 
L 709.699865 159.65987 
L 711.739093 159.65987 
L 712.758708 159.07869 
L 713.778322 158.771006 
L 716.837165 156.788156 
L 718.876393 156.788156 
L 719.896007 156.446285 
L 720.915622 155.796731 
L 721.935236 154.87368 
L 723.974464 153.848067 
L 726.013693 153.81388 
L 729.072536 152.480584 
L 730.09215 151.83103 
L 731.111764 151.420785 
L 733.150993 151.420785 
L 734.170607 151.215662 
L 736.209835 149.848179 
L 737.22945 149.60887 
L 737.22945 149.60887 
" clip-path="url(#pb89976c7c8)" style="fill: none; stroke: #003078; stroke-width: 2; stroke-linecap: square"/>
   </g>
   <g id="line2d_36">
    <path d="M 73.460571 476.745 
L 87.735171 476.745 
L 88.754785 476.627088 
L 89.774399 476.096482 
L 90.794014 475.860658 
L 91.813628 475.801702 
L 93.852856 475.153184 
L 94.872471 474.799447 
L 95.892085 474.563623 
L 96.911699 473.974061 
L 97.931313 473.148675 
L 98.950928 472.735982 
L 99.970542 471.026254 
L 100.990156 469.906088 
L 102.00977 468.49114 
L 104.048999 467.017237 
L 105.068613 465.425421 
L 106.088227 464.305254 
L 107.107842 462.359702 
L 108.127456 459.9425 
L 109.14707 458.232772 
L 110.166684 456.110351 
L 111.186299 455.04914 
L 112.205913 454.164798 
L 113.225527 453.044632 
L 114.245141 449.507263 
L 115.264756 447.620667 
L 116.28437 446.972149 
L 117.303984 445.321377 
L 118.323598 442.904175 
L 119.343213 442.37357 
L 120.362827 440.899667 
L 122.402055 439.01307 
L 123.42167 432.527895 
L 124.441284 431.171903 
L 125.460898 430.346517 
L 126.480512 429.874868 
L 127.500127 428.872614 
L 128.519741 424.568816 
L 129.539355 423.271781 
L 130.558969 422.269526 
L 131.578584 419.675456 
L 133.617812 418.024684 
L 134.637426 416.491824 
L 135.657041 415.253746 
L 136.676655 414.192535 
L 137.696269 412.541763 
L 138.715883 412.011158 
L 139.735498 411.303684 
L 140.755112 411.008903 
L 141.774726 410.065605 
L 142.79434 408.76857 
L 144.833569 407.648403 
L 145.853183 406.587193 
L 146.872797 405.879719 
L 147.892412 405.643895 
L 148.912026 404.64164 
L 149.93164 403.816254 
L 151.970869 402.872956 
L 154.010097 402.106526 
L 156.049326 401.222184 
L 157.06894 400.573667 
L 158.088554 399.748281 
L 159.108168 399.158719 
L 160.127783 398.333333 
L 161.147397 397.684816 
L 162.167011 397.390035 
L 163.186625 396.977342 
L 164.20624 395.975088 
L 165.225854 395.503438 
L 166.245468 395.267614 
L 167.265083 394.678053 
L 168.284697 394.383272 
L 169.304311 394.206403 
L 171.34354 393.145193 
L 172.363154 392.791456 
L 173.382768 392.201895 
L 174.402382 391.848158 
L 176.441611 391.435465 
L 179.500454 390.079474 
L 180.520068 389.843649 
L 183.578911 389.666781 
L 184.598525 389.372 
L 186.637753 388.546614 
L 187.657368 388.428702 
L 188.676982 388.133921 
L 190.71621 387.83914 
L 191.735825 387.662272 
L 192.755439 387.308535 
L 193.775053 386.836886 
L 194.794667 386.718974 
L 195.814282 386.424193 
L 198.873124 386.188368 
L 199.892739 385.952544 
L 200.912353 385.834631 
L 204.99081 385.775675 
L 207.030038 385.539851 
L 210.088881 385.480895 
L 212.12811 385.421938 
L 217.226181 385.362982 
L 219.265409 385.304026 
L 220.285024 385.304026 
L 221.304638 385.009245 
L 222.324252 385.009245 
L 223.343866 384.655509 
L 226.402709 384.360728 
L 228.441938 384.18386 
L 229.461552 384.006991 
L 230.481166 383.594298 
L 232.520395 383.535342 
L 233.540009 383.535342 
L 234.559623 383.41743 
L 235.579237 383.122649 
L 238.63808 383.063693 
L 239.657694 382.945781 
L 245.77538 382.886824 
L 247.814608 382.709956 
L 249.853837 382.651 
L 251.893065 382.592044 
L 259.030365 382.533088 
L 261.069594 382.474131 
L 271.265736 382.474131 
L 272.285351 382.297263 
L 276.363808 382.120395 
L 277.383422 382.120395 
L 282.481493 381.589789 
L 283.501107 381.589789 
L 284.520722 381.412921 
L 285.540336 381.353965 
L 286.55995 381.000228 
L 287.579564 380.82336 
L 288.599179 380.528579 
L 290.638407 380.528579 
L 291.658021 379.939017 
L 292.677636 379.762149 
L 294.716864 379.585281 
L 295.736478 378.347202 
L 296.756093 378.229289 
L 298.795321 377.698684 
L 300.83455 376.519561 
L 302.873778 375.93 
L 303.893392 375.753131 
L 304.913007 375.694175 
L 305.932621 375.104614 
L 306.952235 374.279228 
L 307.971849 373.866535 
L 308.991464 373.100105 
L 310.011078 372.156807 
L 312.050306 371.508289 
L 313.069921 371.095596 
L 314.089535 368.914219 
L 315.109149 367.67614 
L 317.148378 366.261193 
L 318.167992 365.317895 
L 320.20722 364.905202 
L 321.226835 362.311131 
L 322.246449 360.542447 
L 323.266063 359.776017 
L 324.285677 357.889421 
L 325.305292 356.769254 
L 326.324906 356.297605 
L 327.34452 355.00057 
L 328.364134 352.347544 
L 329.383749 350.343035 
L 330.403363 348.633307 
L 331.422977 347.454184 
L 332.442591 346.510886 
L 333.462206 346.392973 
L 334.48182 344.388465 
L 335.501434 341.971263 
L 336.521048 340.615272 
L 338.560277 337.136859 
L 340.599505 335.957737 
L 341.61912 334.719658 
L 342.638734 332.302456 
L 343.658348 330.651684 
L 344.677962 329.413605 
L 345.697577 327.703877 
L 346.717191 326.760579 
L 347.736805 326.58371 
L 348.756419 325.227719 
L 349.776034 322.220956 
L 350.795648 320.806009 
L 351.815262 318.860456 
L 352.834876 317.445509 
L 353.854491 316.620123 
L 354.874105 316.50221 
L 359.972176 307.364009 
L 360.99179 307.364009 
L 362.011405 305.418456 
L 363.031019 304.887851 
L 364.050633 303.119166 
L 365.070248 300.053447 
L 367.109476 295.749649 
L 368.12909 291.681675 
L 369.148705 291.092114 
L 370.168319 289.677166 
L 371.187933 286.670403 
L 372.207547 282.956166 
L 373.227162 282.956166 
L 374.246776 280.892701 
L 375.26639 276.765772 
L 376.286004 275.88143 
L 377.305619 273.935877 
L 378.325233 273.169447 
L 379.344847 269.337298 
L 380.364461 269.337298 
L 381.384076 265.210368 
L 382.40369 261.908824 
L 383.423304 260.434921 
L 384.442918 259.432666 
L 385.462533 254.952 
L 387.501761 247.936219 
L 388.521375 244.280938 
L 389.54099 241.627912 
L 391.580218 239.682359 
L 392.599832 235.791254 
L 396.678289 223.351508 
L 397.697904 222.172386 
L 398.717518 221.700736 
L 400.756746 216.394684 
L 401.776361 212.444622 
L 402.795975 210.852807 
L 403.815589 208.258736 
L 404.835203 206.902745 
L 405.854818 206.431096 
L 406.874432 203.542245 
L 407.894046 200.240701 
L 408.91366 198.530973 
L 409.933275 197.05707 
L 410.952889 195.052561 
L 411.972503 193.814482 
L 412.992117 193.401789 
L 414.011732 190.453982 
L 415.031346 188.390517 
L 417.070574 182.84864 
L 418.090189 181.197868 
L 420.129417 179.900833 
L 421.149031 178.662754 
L 423.18826 175.597035 
L 424.207874 174.3 
L 426.247103 172.472359 
L 427.266717 172.00071 
L 428.286331 170.232026 
L 430.32556 168.463342 
L 432.364788 166.576745 
L 433.384402 166.04614 
L 434.404017 165.810315 
L 435.423631 165.043886 
L 436.443245 163.805807 
L 438.482474 161.91921 
L 439.502088 160.504263 
L 440.521702 160.327394 
L 441.541316 160.268438 
L 444.600159 158.087061 
L 445.619773 157.674368 
L 446.639388 156.613157 
L 447.659002 156.613157 
L 448.678616 156.436289 
L 449.69823 156.082552 
L 451.737459 154.667605 
L 452.757073 154.313868 
L 453.776687 153.724307 
L 455.815916 153.547438 
L 456.83553 153.075789 
L 457.855144 152.839964 
L 458.874759 152.309359 
L 460.913987 151.601886 
L 462.953216 151.601886 
L 466.012059 151.012324 
L 467.031673 150.599631 
L 470.090516 150.540675 
L 475.188587 150.245894 
L 476.208201 149.774245 
L 477.227815 149.656333 
L 478.24743 149.656333 
L 479.267044 149.302596 
L 489.463186 148.654078 
L 491.502415 148.418254 
L 495.580872 148.359298 
L 497.6201 148.064517 
L 499.659329 148.064517 
L 500.678943 147.946605 
L 506.796629 147.887649 
L 508.835857 147.828693 
L 510.875086 147.828693 
L 511.8947 147.592868 
L 514.953543 147.474956 
L 518.012385 147.416 
L 520.051614 147.357043 
L 522.090842 147.298087 
L 523.110457 147.121219 
L 524.130071 147.121219 
L 525.149685 147.003307 
L 528.208528 146.94435 
L 529.228142 146.826438 
L 542.483127 146.767482 
L 544.522356 146.708526 
L 555.738113 146.64957 
L 558.796955 146.531657 
L 567.973484 146.472701 
L 570.012712 146.295833 
L 576.130398 146.236877 
L 582.248083 145.824184 
L 583.267698 145.647315 
L 585.306926 145.588359 
L 586.32654 145.352535 
L 588.365769 145.293578 
L 589.385383 145.293578 
L 590.404997 145.175666 
L 591.424612 145.175666 
L 592.444226 144.821929 
L 594.483454 144.409236 
L 595.503069 144.409236 
L 596.522683 144.114456 
L 598.561911 144.0555 
L 600.60114 143.642807 
L 602.640368 143.642807 
L 604.679597 143.28907 
L 609.777668 142.994289 
L 611.816897 142.581596 
L 612.836511 142.581596 
L 613.856125 142.345771 
L 614.875739 142.227859 
L 615.895354 141.992035 
L 616.914968 141.992035 
L 617.934582 141.697254 
L 618.954196 141.579342 
L 619.973811 141.579342 
L 620.993425 141.343517 
L 622.013039 141.284561 
L 623.032653 140.98978 
L 624.052268 140.98978 
L 625.071882 140.812912 
L 627.11111 140.753956 
L 630.169953 139.810657 
L 631.189567 139.810657 
L 632.209182 139.633789 
L 633.228796 139.16214 
L 634.24841 138.985271 
L 636.287639 137.865105 
L 637.307253 137.570324 
L 638.326867 137.570324 
L 639.346481 137.098675 
L 640.366096 135.860596 
L 641.38571 135.565815 
L 642.405324 134.976254 
L 643.424938 134.740429 
L 644.444553 134.26878 
L 645.464167 134.26878 
L 647.503395 132.382184 
L 648.52301 131.969491 
L 649.542624 131.379929 
L 650.562238 131.026192 
L 651.581852 130.90828 
L 652.601467 130.90828 
L 654.640695 129.434377 
L 655.660309 129.08064 
L 656.679924 128.550035 
L 657.699538 127.783605 
L 658.719152 127.488824 
L 659.738767 127.488824 
L 660.758381 126.899263 
L 661.777995 125.897008 
L 662.797609 125.779096 
L 664.836838 124.835798 
L 665.856452 123.479807 
L 667.895681 123.479807 
L 668.915295 123.008157 
L 669.934909 122.949201 
L 670.954523 122.713377 
L 671.974138 122.005903 
L 672.993752 121.121561 
L 674.013366 121.121561 
L 675.03298 120.531999 
L 676.052595 119.352877 
L 677.072209 119.234964 
L 680.131052 117.053587 
L 681.150666 117.053587 
L 682.17028 116.346114 
L 683.189894 116.346114 
L 684.209509 114.518473 
L 685.229123 114.223692 
L 686.248737 113.516219 
L 687.268351 113.103526 
L 688.287966 113.103526 
L 689.30758 112.572921 
L 690.327194 111.570666 
L 691.346808 110.981105 
L 692.366423 110.568412 
L 693.386037 109.566157 
L 694.405651 108.799728 
L 695.425265 108.799728 
L 696.44488 108.269122 
L 697.464494 107.443736 
L 698.484108 107.148956 
L 699.503722 106.087745 
L 700.523337 105.380271 
L 701.542951 105.144447 
L 702.562565 105.144447 
L 703.582179 104.79071 
L 704.601794 104.02428 
L 705.621408 103.906368 
L 706.641022 102.904114 
L 707.660636 101.724991 
L 708.680251 101.253342 
L 709.699865 101.253342 
L 715.81755 98.895096 
L 716.837165 98.895096 
L 718.876393 97.774929 
L 719.896007 97.539105 
L 722.95485 96.183113 
L 723.974464 96.183113 
L 726.013693 95.534596 
L 727.033307 95.416684 
L 728.052921 94.768166 
L 729.072536 93.883824 
L 730.09215 93.353219 
L 731.111764 93.353219 
L 732.131378 93.058438 
L 733.150993 92.586789 
L 734.170607 92.468877 
L 735.190221 91.879315 
L 736.209835 91.879315 
L 737.22945 91.702447 
L 737.22945 91.702447 
" clip-path="url(#pb89976c7c8)" style="fill: none; stroke: #d4351c; stroke-width: 2; stroke-linecap: square"/>
   </g>
   <g id="patch_3">
    <path d="M 68.3625 476.745 
L 737.9625 476.745 
" style="fill: none; stroke: #000000; stroke-width: 0.8; stroke-linejoin: miter; stroke-linecap: square"/>
   </g>
   <g id="text_18">
    <!-- Cumulative deaths within 4 weeks of a positive COVID-19 test by date reported, per capita -->
    <g transform="translate(137.840625 27.225)scale(0.12 -0.12)">
     <defs>
      <path id="Inter-Bold-43" d="M 4511 3025 
L 3516 3025 
Q 3459 3409 3188 3628 
Q 2918 3848 2514 3848 
Q 1973 3848 1647 3451 
Q 1321 3055 1321 2327 
Q 1321 1582 1649 1194 
Q 1977 807 2507 807 
Q 2900 807 3173 1012 
Q 3446 1218 3516 1591 
L 4511 1586 
Q 4459 1159 4207 782 
Q 3955 405 3522 170 
Q 3089 -64 2491 -64 
Q 1868 -64 1378 218 
Q 889 500 606 1034 
Q 323 1568 323 2327 
Q 323 3089 609 3623 
Q 896 4157 1386 4437 
Q 1877 4718 2491 4718 
Q 3030 4718 3463 4519 
Q 3896 4320 4172 3942 
Q 4448 3564 4511 3025 
z
" transform="scale(0.015625)"/>
      <path id="Inter-Bold-75" d="M 2625 1486 
L 2625 3491 
L 3593 3491 
L 3593 0 
L 2664 0 
L 2664 634 
L 2627 634 
Q 2509 327 2235 141 
Q 1961 -45 1568 -45 
Q 1041 -45 715 306 
Q 389 657 386 1268 
L 386 3491 
L 1355 3491 
L 1355 1441 
Q 1357 1132 1520 952 
Q 1684 773 1959 773 
Q 2221 773 2424 954 
Q 2627 1136 2625 1486 
z
" transform="scale(0.015625)"/>
      <path id="Inter-Bold-6d" d="M 386 0 
L 386 3491 
L 1309 3491 
L 1309 2875 
L 1350 2875 
Q 1459 3184 1715 3360 
Q 1971 3536 2323 3536 
Q 2682 3536 2934 3358 
Q 3186 3180 3271 2875 
L 3307 2875 
Q 3414 3175 3694 3355 
Q 3975 3536 4359 3536 
Q 4848 3536 5153 3226 
Q 5459 2916 5459 2348 
L 5459 0 
L 4493 0 
L 4493 2157 
Q 4493 2448 4338 2593 
Q 4184 2739 3952 2739 
Q 3689 2739 3541 2570 
Q 3393 2402 3393 2132 
L 3393 0 
L 2455 0 
L 2455 2177 
Q 2455 2434 2308 2586 
Q 2161 2739 1923 2739 
Q 1682 2739 1518 2562 
Q 1355 2386 1355 2095 
L 1355 0 
L 386 0 
z
" transform="scale(0.015625)"/>
      <path id="Inter-Bold-6c" d="M 1355 4655 
L 1355 0 
L 386 0 
L 386 4655 
L 1355 4655 
z
" transform="scale(0.015625)"/>
      <path id="Inter-Bold-61" d="M 1382 -66 
Q 882 -66 552 195 
Q 223 457 223 975 
Q 223 1366 407 1588 
Q 591 1811 890 1914 
Q 1189 2018 1534 2050 
Q 1989 2095 2184 2145 
Q 2380 2195 2380 2364 
L 2380 2377 
Q 2380 2593 2244 2711 
Q 2109 2830 1861 2830 
Q 1600 2830 1445 2716 
Q 1291 2602 1241 2427 
L 346 2500 
Q 446 2977 842 3256 
Q 1239 3536 1866 3536 
Q 2255 3536 2593 3413 
Q 2932 3291 3140 3030 
Q 3348 2770 3348 2355 
L 3348 0 
L 2430 0 
L 2430 484 
L 2402 484 
Q 2275 241 2021 87 
Q 1768 -66 1382 -66 
z
M 1659 602 
Q 1977 602 2181 787 
Q 2386 973 2386 1248 
L 2386 1618 
Q 2330 1580 2210 1550 
Q 2091 1520 1956 1498 
Q 1821 1477 1714 1461 
Q 1459 1425 1303 1318 
Q 1148 1211 1148 1007 
Q 1148 807 1292 704 
Q 1436 602 1659 602 
z
" transform="scale(0.015625)"/>
      <path id="Inter-Bold-74" d="M 2243 3491 
L 2243 2764 
L 1586 2764 
L 1586 1073 
Q 1586 873 1677 802 
Q 1768 732 1914 732 
Q 1982 732 2050 744 
Q 2118 757 2155 764 
L 2307 43 
Q 2234 20 2102 -10 
Q 1971 -41 1782 -48 
Q 1255 -70 935 181 
Q 616 432 618 945 
L 618 2764 
L 141 2764 
L 141 3491 
L 618 3491 
L 618 4327 
L 1586 4327 
L 1586 3491 
L 2243 3491 
z
" transform="scale(0.015625)"/>
      <path id="Inter-Bold-69" d="M 386 0 
L 386 3491 
L 1355 3491 
L 1355 0 
L 386 0 
z
M 876 3941 
Q 662 3941 507 4085 
Q 353 4230 353 4432 
Q 353 4634 507 4777 
Q 662 4920 876 4920 
Q 1092 4920 1246 4777 
Q 1401 4634 1401 4432 
Q 1401 4230 1246 4085 
Q 1092 3941 876 3941 
z
" transform="scale(0.015625)"/>
      <path id="Inter-Bold-76" d="M 3641 3491 
L 2421 0 
L 1330 0 
L 109 3491 
L 1132 3491 
L 1857 993 
L 1893 993 
L 2616 3491 
L 3641 3491 
z
" transform="scale(0.015625)"/>
      <path id="Inter-Bold-65" d="M 1977 -68 
Q 1441 -68 1052 151 
Q 664 370 455 773 
Q 246 1177 246 1730 
Q 246 2268 455 2675 
Q 664 3082 1044 3309 
Q 1425 3536 1939 3536 
Q 2400 3536 2771 3340 
Q 3143 3145 3361 2751 
Q 3580 2357 3580 1764 
L 3580 1498 
L 1202 1498 
L 1202 1495 
Q 1202 1105 1416 880 
Q 1630 655 1993 655 
Q 2236 655 2413 757 
Q 2591 859 2664 1059 
L 3559 1000 
Q 3457 514 3041 223 
Q 2625 -68 1977 -68 
z
M 1202 2098 
L 2668 2098 
Q 2666 2409 2468 2611 
Q 2271 2814 1955 2814 
Q 1632 2814 1425 2604 
Q 1218 2395 1202 2098 
z
" transform="scale(0.015625)"/>
      <path id="Inter-Bold-20" transform="scale(0.015625)"/>
      <path id="Inter-Bold-64" d="M 1673 -57 
Q 1275 -57 954 149 
Q 634 355 445 756 
Q 257 1157 257 1741 
Q 257 2341 451 2740 
Q 646 3139 967 3337 
Q 1289 3536 1671 3536 
Q 1964 3536 2160 3437 
Q 2357 3339 2478 3193 
Q 2600 3048 2664 2905 
L 2693 2905 
L 2693 4655 
L 3659 4655 
L 3659 0 
L 2705 0 
L 2705 559 
L 2664 559 
Q 2598 414 2473 272 
Q 2348 130 2151 36 
Q 1955 -57 1673 -57 
z
M 1980 714 
Q 2330 714 2522 997 
Q 2714 1280 2714 1745 
Q 2714 2214 2523 2490 
Q 2332 2766 1980 2766 
Q 1621 2766 1433 2483 
Q 1246 2200 1246 1745 
Q 1246 1289 1434 1001 
Q 1623 714 1980 714 
z
" transform="scale(0.015625)"/>
      <path id="Inter-Bold-68" d="M 1355 2018 
L 1355 0 
L 386 0 
L 386 4655 
L 1327 4655 
L 1327 2875 
L 1368 2875 
Q 1489 3184 1751 3360 
Q 2014 3536 2411 3536 
Q 2957 3536 3289 3186 
Q 3621 2836 3618 2223 
L 3618 0 
L 2650 0 
L 2650 2050 
Q 2652 2373 2487 2552 
Q 2323 2732 2027 2732 
Q 1732 2732 1544 2544 
Q 1357 2357 1355 2018 
z
" transform="scale(0.015625)"/>
      <path id="Inter-Bold-73" d="M 3291 2495 
L 2405 2441 
Q 2368 2609 2220 2729 
Q 2073 2850 1821 2850 
Q 1596 2850 1440 2755 
Q 1284 2661 1286 2505 
Q 1284 2380 1385 2293 
Q 1486 2207 1730 2155 
L 2361 2027 
Q 3368 1820 3371 1082 
Q 3371 739 3169 479 
Q 2968 220 2618 76 
Q 2268 -68 1816 -68 
Q 1123 -68 711 221 
Q 300 511 232 1011 
L 1184 1061 
Q 1230 848 1394 739 
Q 1559 630 1818 630 
Q 2073 630 2228 730 
Q 2384 830 2386 984 
Q 2380 1243 1939 1332 
L 1334 1452 
Q 321 1655 325 2450 
Q 323 2955 728 3245 
Q 1134 3536 1805 3536 
Q 2466 3536 2846 3256 
Q 3227 2977 3291 2495 
z
" transform="scale(0.015625)"/>
      <path id="Inter-Bold-77" d="M 1075 0 
L 125 3491 
L 1105 3491 
L 1646 1145 
L 1677 1145 
L 2241 3491 
L 3202 3491 
L 3775 1159 
L 3805 1159 
L 4336 3491 
L 5314 3491 
L 4366 0 
L 3341 0 
L 2741 2195 
L 2698 2195 
L 2098 0 
L 1075 0 
z
" transform="scale(0.015625)"/>
      <path id="Inter-Bold-6e" d="M 1355 2018 
L 1355 0 
L 386 0 
L 386 3491 
L 1309 3491 
L 1309 2875 
L 1350 2875 
Q 1468 3180 1739 3358 
Q 2011 3536 2400 3536 
Q 2946 3536 3275 3185 
Q 3605 2834 3605 2223 
L 3605 0 
L 2636 0 
L 2636 2050 
Q 2639 2370 2473 2551 
Q 2307 2732 2016 2732 
Q 1723 2732 1540 2544 
Q 1357 2357 1355 2018 
z
" transform="scale(0.015625)"/>
      <path id="Inter-Bold-34" d="M 307 818 
L 307 1593 
L 2250 4655 
L 3482 4655 
L 3482 1607 
L 4059 1607 
L 4059 818 
L 3482 818 
L 3482 0 
L 2541 0 
L 2541 818 
L 307 818 
z
M 2559 1607 
L 2559 3582 
L 2523 3582 
L 1298 1643 
L 1298 1607 
L 2559 1607 
z
" transform="scale(0.015625)"/>
      <path id="Inter-Bold-6b" d="M 386 0 
L 386 4655 
L 1355 4655 
L 1355 2166 
L 1407 2166 
L 2525 3491 
L 3636 3491 
L 2341 1980 
L 3702 0 
L 2568 0 
L 1616 1407 
L 1355 1109 
L 1355 0 
L 386 0 
z
" transform="scale(0.015625)"/>
      <path id="Inter-Bold-6f" d="M 1964 -68 
Q 1434 -68 1049 158 
Q 664 384 455 789 
Q 246 1195 246 1732 
Q 246 2273 455 2678 
Q 664 3084 1049 3310 
Q 1434 3536 1964 3536 
Q 2493 3536 2878 3310 
Q 3264 3084 3473 2678 
Q 3682 2273 3682 1732 
Q 3682 1195 3473 789 
Q 3264 384 2878 158 
Q 2493 -68 1964 -68 
z
M 1968 682 
Q 2327 682 2512 982 
Q 2698 1282 2698 1739 
Q 2698 2195 2512 2496 
Q 2327 2798 1968 2798 
Q 1602 2798 1416 2496 
Q 1230 2195 1230 1739 
Q 1230 1282 1416 982 
Q 1602 682 1968 682 
z
" transform="scale(0.015625)"/>
      <path id="Inter-Bold-66" d="M 2296 3491 
L 2296 2764 
L 1602 2764 
L 1602 0 
L 634 0 
L 634 2764 
L 141 2764 
L 141 3491 
L 634 3491 
L 634 3743 
Q 634 4314 960 4593 
Q 1286 4873 1780 4873 
Q 2002 4873 2187 4839 
Q 2373 4805 2464 4777 
L 2293 4050 
Q 2236 4068 2152 4084 
Q 2068 4100 1982 4100 
Q 1768 4100 1685 4001 
Q 1602 3902 1602 3725 
L 1602 3491 
L 2296 3491 
z
" transform="scale(0.015625)"/>
      <path id="Inter-Bold-70" d="M 386 -1309 
L 386 3491 
L 1341 3491 
L 1341 2905 
L 1384 2905 
Q 1450 3048 1570 3193 
Q 1691 3339 1888 3437 
Q 2086 3536 2377 3536 
Q 2761 3536 3081 3337 
Q 3402 3139 3596 2740 
Q 3791 2341 3791 1741 
Q 3791 1157 3602 756 
Q 3414 355 3093 149 
Q 2773 -57 2375 -57 
Q 2093 -57 1896 36 
Q 1700 130 1576 272 
Q 1452 414 1384 559 
L 1355 559 
L 1355 -1309 
L 386 -1309 
z
M 1334 1745 
Q 1334 1280 1526 997 
Q 1718 714 2068 714 
Q 2425 714 2613 1001 
Q 2802 1289 2802 1745 
Q 2802 2200 2614 2483 
Q 2427 2766 2068 2766 
Q 1716 2766 1525 2490 
Q 1334 2214 1334 1745 
z
" transform="scale(0.015625)"/>
      <path id="Inter-Bold-4f" d="M 4682 2327 
Q 4682 1566 4394 1032 
Q 4107 498 3614 217 
Q 3121 -64 2502 -64 
Q 1882 -64 1389 218 
Q 896 500 609 1035 
Q 323 1570 323 2327 
Q 323 3089 609 3623 
Q 896 4157 1389 4437 
Q 1882 4718 2502 4718 
Q 3121 4718 3614 4437 
Q 4107 4157 4394 3623 
Q 4682 3089 4682 2327 
z
M 3684 2327 
Q 3684 3068 3361 3458 
Q 3039 3848 2502 3848 
Q 1966 3848 1643 3458 
Q 1321 3068 1321 2327 
Q 1321 1589 1643 1198 
Q 1966 807 2502 807 
Q 3039 807 3361 1198 
Q 3684 1589 3684 2327 
z
" transform="scale(0.015625)"/>
      <path id="Inter-Bold-56" d="M 1246 4655 
L 2371 1118 
L 2414 1118 
L 3541 4655 
L 4632 4655 
L 3027 0 
L 1759 0 
L 152 4655 
L 1246 4655 
z
" transform="scale(0.015625)"/>
      <path id="Inter-Bold-49" d="M 1389 4655 
L 1389 0 
L 405 0 
L 405 4655 
L 1389 4655 
z
" transform="scale(0.015625)"/>
      <path id="Inter-Bold-44" d="M 2055 0 
L 405 0 
L 405 4655 
L 2068 4655 
Q 2771 4655 3278 4376 
Q 3786 4098 4059 3577 
Q 4332 3057 4332 2332 
Q 4332 1605 4058 1082 
Q 3784 559 3274 279 
Q 2764 0 2055 0 
z
M 1389 843 
L 2014 843 
Q 2671 843 3010 1197 
Q 3350 1552 3350 2332 
Q 3350 3107 3010 3459 
Q 2671 3811 2016 3811 
L 1389 3811 
L 1389 843 
z
" transform="scale(0.015625)"/>
      <path id="Inter-Bold-2d" d="M 2561 2295 
L 2561 1527 
L 439 1527 
L 439 2295 
L 2561 2295 
z
" transform="scale(0.015625)"/>
      <path id="Inter-Bold-31" d="M 2305 4655 
L 2305 0 
L 1323 0 
L 1323 3450 
L 1280 3450 
Q 1205 3334 961 3219 
Q 718 3105 332 3105 
L 332 3886 
Q 632 3886 857 4019 
Q 1082 4152 1209 4333 
Q 1336 4514 1341 4655 
L 2305 4655 
z
" transform="scale(0.015625)"/>
      <path id="Inter-Bold-39" d="M 2061 4732 
Q 2421 4732 2753 4612 
Q 3086 4493 3348 4227 
Q 3611 3961 3766 3523 
Q 3921 3086 3921 2448 
Q 3921 1659 3686 1096 
Q 3452 534 3028 235 
Q 2605 -64 2027 -64 
Q 1561 -64 1204 117 
Q 848 298 631 610 
Q 414 923 368 1314 
L 1339 1314 
Q 1396 1059 1577 919 
Q 1759 780 2027 780 
Q 2482 780 2718 1176 
Q 2955 1573 2957 2264 
L 2925 2264 
Q 2771 1957 2453 1782 
Q 2136 1607 1752 1607 
Q 1341 1607 1016 1801 
Q 691 1995 506 2334 
Q 321 2673 323 3109 
Q 321 3582 539 3949 
Q 757 4316 1149 4525 
Q 1541 4734 2061 4732 
z
M 2068 3959 
Q 1725 3959 1500 3722 
Q 1275 3486 1277 3136 
Q 1275 2791 1496 2555 
Q 1718 2320 2059 2320 
Q 2284 2320 2465 2431 
Q 2646 2543 2751 2729 
Q 2857 2916 2859 3141 
Q 2857 3366 2753 3551 
Q 2650 3736 2473 3847 
Q 2296 3959 2068 3959 
z
" transform="scale(0.015625)"/>
      <path id="Inter-Bold-62" d="M 405 0 
L 405 4655 
L 1373 4655 
L 1373 2905 
L 1402 2905 
Q 1468 3048 1588 3193 
Q 1709 3339 1907 3437 
Q 2105 3536 2396 3536 
Q 2780 3536 3100 3337 
Q 3421 3139 3615 2740 
Q 3809 2341 3809 1741 
Q 3809 1157 3620 756 
Q 3432 355 3111 149 
Q 2791 -57 2393 -57 
Q 2111 -57 1914 36 
Q 1718 130 1594 272 
Q 1471 414 1402 559 
L 1359 559 
L 1359 0 
L 405 0 
z
M 1352 1745 
Q 1352 1280 1544 997 
Q 1736 714 2086 714 
Q 2443 714 2632 1001 
Q 2821 1289 2821 1745 
Q 2821 2200 2633 2483 
Q 2446 2766 2086 2766 
Q 1734 2766 1543 2490 
Q 1352 2214 1352 1745 
z
" transform="scale(0.015625)"/>
      <path id="Inter-Bold-79" d="M 950 -1359 
Q 743 -1359 596 -1324 
Q 450 -1289 368 -1252 
L 586 -502 
Q 843 -580 1019 -543 
Q 1196 -507 1298 -268 
L 1361 -100 
L 109 3491 
L 1127 3491 
L 1850 927 
L 1886 927 
L 2616 3491 
L 3641 3491 
L 2277 -400 
Q 2130 -818 1806 -1088 
Q 1482 -1359 950 -1359 
z
" transform="scale(0.015625)"/>
      <path id="Inter-Bold-72" d="M 386 0 
L 386 3491 
L 1325 3491 
L 1325 2882 
L 1361 2882 
Q 1457 3207 1681 3374 
Q 1905 3541 2200 3541 
Q 2341 3541 2461 3507 
Q 2582 3473 2677 3414 
L 2386 2614 
Q 2318 2648 2237 2671 
Q 2157 2695 2057 2695 
Q 1764 2695 1560 2495 
Q 1357 2295 1355 1975 
L 1355 0 
L 386 0 
z
" transform="scale(0.015625)"/>
      <path id="Inter-Bold-2c" d="M 1439 636 
L 1414 386 
Q 1384 86 1301 -212 
Q 1218 -511 1128 -754 
Q 1039 -998 984 -1136 
L 357 -1136 
Q 391 -1002 450 -763 
Q 509 -525 561 -226 
Q 614 73 627 382 
L 639 636 
L 1439 636 
z
" transform="scale(0.015625)"/>
      <path id="Inter-Bold-63" d="M 1964 -68 
Q 1427 -68 1042 160 
Q 657 389 451 795 
Q 246 1202 246 1732 
Q 246 2268 453 2674 
Q 661 3080 1045 3308 
Q 1430 3536 1959 3536 
Q 2416 3536 2760 3370 
Q 3105 3205 3303 2905 
Q 3502 2605 3523 2200 
L 2609 2200 
Q 2571 2461 2406 2621 
Q 2241 2782 1975 2782 
Q 1639 2782 1434 2511 
Q 1230 2241 1230 1745 
Q 1230 1245 1433 971 
Q 1636 698 1975 698 
Q 2225 698 2395 849 
Q 2566 1000 2609 1280 
L 3523 1280 
Q 3500 880 3305 575 
Q 3111 270 2770 101 
Q 2430 -68 1964 -68 
z
" transform="scale(0.015625)"/>
     </defs>
     <use xlink:href="#Inter-Bold-43"/>
     <use xlink:href="#Inter-Bold-75" x="75.213089"/>
     <use xlink:href="#Inter-Bold-6d" x="137.393494"/>
     <use xlink:href="#Inter-Bold-75" x="228.5867"/>
     <use xlink:href="#Inter-Bold-6c" x="290.767105"/>
     <use xlink:href="#Inter-Bold-61" x="317.968811"/>
     <use xlink:href="#Inter-Bold-74" x="375.994385"/>
     <use xlink:href="#Inter-Bold-69" x="414.843826"/>
     <use xlink:href="#Inter-Bold-76" x="442.045532"/>
     <use xlink:href="#Inter-Bold-65" x="500.639297"/>
     <use xlink:href="#Inter-Bold-20" x="560.404938"/>
     <use xlink:href="#Inter-Bold-64" x="583.593857"/>
     <use xlink:href="#Inter-Bold-65" x="647.123703"/>
     <use xlink:href="#Inter-Bold-61" x="706.889343"/>
     <use xlink:href="#Inter-Bold-74" x="764.914917"/>
     <use xlink:href="#Inter-Bold-68" x="803.764359"/>
     <use xlink:href="#Inter-Bold-73" x="866.193344"/>
     <use xlink:href="#Inter-Bold-20" x="922.37233"/>
     <use xlink:href="#Inter-Bold-77" x="945.561249"/>
     <use xlink:href="#Inter-Bold-69" x="1030.57547"/>
     <use xlink:href="#Inter-Bold-74" x="1057.777176"/>
     <use xlink:href="#Inter-Bold-68" x="1096.626617"/>
     <use xlink:href="#Inter-Bold-69" x="1159.055603"/>
     <use xlink:href="#Inter-Bold-6e" x="1186.257309"/>
     <use xlink:href="#Inter-Bold-20" x="1248.437714"/>
     <use xlink:href="#Inter-Bold-34" x="1271.626633"/>
     <use xlink:href="#Inter-Bold-20" x="1339.417847"/>
     <use xlink:href="#Inter-Bold-77" x="1362.606766"/>
     <use xlink:href="#Inter-Bold-65" x="1447.620987"/>
     <use xlink:href="#Inter-Bold-65" x="1507.386627"/>
     <use xlink:href="#Inter-Bold-6b" x="1567.152267"/>
     <use xlink:href="#Inter-Bold-73" x="1625.319885"/>
     <use xlink:href="#Inter-Bold-20" x="1681.498871"/>
     <use xlink:href="#Inter-Bold-6f" x="1704.68779"/>
     <use xlink:href="#Inter-Bold-66" x="1766.051437"/>
     <use xlink:href="#Inter-Bold-20" x="1805.113937"/>
     <use xlink:href="#Inter-Bold-61" x="1828.302856"/>
     <use xlink:href="#Inter-Bold-20" x="1886.32843"/>
     <use xlink:href="#Inter-Bold-70" x="1909.517349"/>
     <use xlink:href="#Inter-Bold-6f" x="1972.763107"/>
     <use xlink:href="#Inter-Bold-73" x="2034.126755"/>
     <use xlink:href="#Inter-Bold-69" x="2090.30574"/>
     <use xlink:href="#Inter-Bold-74" x="2117.507446"/>
     <use xlink:href="#Inter-Bold-69" x="2156.356888"/>
     <use xlink:href="#Inter-Bold-76" x="2183.558594"/>
     <use xlink:href="#Inter-Bold-65" x="2242.152359"/>
     <use xlink:href="#Inter-Bold-20" x="2301.917999"/>
     <use xlink:href="#Inter-Bold-43" x="2325.106918"/>
     <use xlink:href="#Inter-Bold-4f" x="2400.320007"/>
     <use xlink:href="#Inter-Bold-56" x="2478.516052"/>
     <use xlink:href="#Inter-Bold-49" x="2553.302994"/>
     <use xlink:href="#Inter-Bold-44" x="2581.356979"/>
     <use xlink:href="#Inter-Bold-2d" x="2654.084274"/>
     <use xlink:href="#Inter-Bold-31" x="2700.95929"/>
     <use xlink:href="#Inter-Bold-39" x="2748.366974"/>
     <use xlink:href="#Inter-Bold-20" x="2814.382614"/>
     <use xlink:href="#Inter-Bold-74" x="2837.571533"/>
     <use xlink:href="#Inter-Bold-65" x="2876.420975"/>
     <use xlink:href="#Inter-Bold-73" x="2936.186615"/>
     <use xlink:href="#Inter-Bold-74" x="2992.365601"/>
     <use xlink:href="#Inter-Bold-20" x="3031.215042"/>
     <use xlink:href="#Inter-Bold-62" x="3054.403961"/>
     <use xlink:href="#Inter-Bold-79" x="3117.933807"/>
     <use xlink:href="#Inter-Bold-20" x="3176.527573"/>
     <use xlink:href="#Inter-Bold-64" x="3199.716492"/>
     <use xlink:href="#Inter-Bold-61" x="3263.246338"/>
     <use xlink:href="#Inter-Bold-74" x="3321.271912"/>
     <use xlink:href="#Inter-Bold-65" x="3360.121353"/>
     <use xlink:href="#Inter-Bold-20" x="3419.886993"/>
     <use xlink:href="#Inter-Bold-72" x="3443.075912"/>
     <use xlink:href="#Inter-Bold-65" x="3485.938141"/>
     <use xlink:href="#Inter-Bold-70" x="3545.703781"/>
     <use xlink:href="#Inter-Bold-6f" x="3608.949539"/>
     <use xlink:href="#Inter-Bold-72" x="3670.313187"/>
     <use xlink:href="#Inter-Bold-74" x="3713.175415"/>
     <use xlink:href="#Inter-Bold-65" x="3752.024857"/>
     <use xlink:href="#Inter-Bold-64" x="3811.790497"/>
     <use xlink:href="#Inter-Bold-2c" x="3875.320343"/>
     <use xlink:href="#Inter-Bold-20" x="3905.611542"/>
     <use xlink:href="#Inter-Bold-70" x="3928.800461"/>
     <use xlink:href="#Inter-Bold-65" x="3992.046219"/>
     <use xlink:href="#Inter-Bold-72" x="4051.811859"/>
     <use xlink:href="#Inter-Bold-20" x="4094.674088"/>
     <use xlink:href="#Inter-Bold-63" x="4117.863007"/>
     <use xlink:href="#Inter-Bold-61" x="4176.598816"/>
     <use xlink:href="#Inter-Bold-70" x="4234.62439"/>
     <use xlink:href="#Inter-Bold-69" x="4297.870148"/>
     <use xlink:href="#Inter-Bold-74" x="4325.071854"/>
     <use xlink:href="#Inter-Bold-61" x="4363.921295"/>
    </g>
   </g>
   <g id="legend_1">
    <g id="patch_4">
     <path d="M 75.3625 98.614062 
L 184.935938 98.614062 
Q 186.935938 98.614062 186.935938 96.614062 
L 186.935938 40.225 
Q 186.935938 38.225 184.935938 38.225 
L 75.3625 38.225 
Q 73.3625 38.225 73.3625 40.225 
L 73.3625 96.614062 
Q 73.3625 98.614062 75.3625 98.614062 
z
" style="fill: #ffffff; opacity: 0.8; stroke: #cccccc; stroke-linejoin: miter"/>
    </g>
    <g id="line2d_37">
     <path d="M 77.3625 45.998437 
L 87.3625 45.998437 
L 97.3625 45.998437 
" style="fill: none; stroke: #d4351c; stroke-width: 2; stroke-linecap: square"/>
    </g>
    <g id="text_19">
     <!-- Wales -->
     <g transform="translate(105.3625 49.498437)scale(0.1 -0.1)">
      <defs>
       <path id="Inter-Regular-57" d="M 1409 0 
L 136 4655 
L 709 4655 
L 1682 864 
L 1727 864 
L 2718 4655 
L 3355 4655 
L 4346 864 
L 4391 864 
L 5364 4655 
L 5936 4655 
L 4664 0 
L 4082 0 
L 3055 3709 
L 3018 3709 
L 1991 0 
L 1409 0 
z
" transform="scale(0.015625)"/>
      </defs>
      <use xlink:href="#Inter-Regular-57"/>
      <use xlink:href="#Inter-Regular-61" x="94.886383"/>
      <use xlink:href="#Inter-Regular-6c" x="151.278442"/>
      <use xlink:href="#Inter-Regular-65" x="175.000031"/>
      <use xlink:href="#Inter-Regular-73" x="233.238678"/>
     </g>
    </g>
    <g id="line2d_38">
     <path d="M 77.3625 60.317187 
L 87.3625 60.317187 
L 97.3625 60.317187 
" style="fill: none; stroke: #003078; stroke-width: 2; stroke-linecap: square"/>
    </g>
    <g id="text_20">
     <!-- Scotland -->
     <g transform="translate(105.3625 63.817187)scale(0.1 -0.1)">
      <use xlink:href="#Inter-Regular-53"/>
      <use xlink:href="#Inter-Regular-63" x="63.778427"/>
      <use xlink:href="#Inter-Regular-6f" x="119.602295"/>
      <use xlink:href="#Inter-Regular-74" x="179.261398"/>
      <use xlink:href="#Inter-Regular-6c" x="215.625046"/>
      <use xlink:href="#Inter-Regular-61" x="239.346634"/>
      <use xlink:href="#Inter-Regular-6e" x="295.738693"/>
      <use xlink:href="#Inter-Regular-64" x="354.261429"/>
     </g>
    </g>
    <g id="line2d_39">
     <path d="M 77.3625 74.635937 
L 87.3625 74.635937 
L 97.3625 74.635937 
" style="fill: none; stroke: #ffdd00; stroke-width: 2; stroke-linecap: square"/>
    </g>
    <g id="text_21">
     <!-- Northern Ireland -->
     <g transform="translate(105.3625 78.135937)scale(0.1 -0.1)">
      <defs>
       <path id="Inter-Regular-49" d="M 1127 4655 
L 1127 0 
L 564 0 
L 564 4655 
L 1127 4655 
z
" transform="scale(0.015625)"/>
      </defs>
      <use xlink:href="#Inter-Regular-4e"/>
      <use xlink:href="#Inter-Regular-6f" x="75.284103"/>
      <use xlink:href="#Inter-Regular-72" x="134.943207"/>
      <use xlink:href="#Inter-Regular-74" x="173.295486"/>
      <use xlink:href="#Inter-Regular-68" x="209.659134"/>
      <use xlink:href="#Inter-Regular-65" x="268.750061"/>
      <use xlink:href="#Inter-Regular-72" x="326.988708"/>
      <use xlink:href="#Inter-Regular-6e" x="365.340988"/>
      <use xlink:href="#Inter-Regular-20" x="423.863724"/>
      <use xlink:href="#Inter-Regular-49" x="451.988724"/>
      <use xlink:href="#Inter-Regular-72" x="478.40918"/>
      <use xlink:href="#Inter-Regular-65" x="516.761459"/>
      <use xlink:href="#Inter-Regular-6c" x="575.000107"/>
      <use xlink:href="#Inter-Regular-61" x="598.721695"/>
      <use xlink:href="#Inter-Regular-6e" x="655.113754"/>
      <use xlink:href="#Inter-Regular-64" x="713.63649"/>
     </g>
    </g>
    <g id="line2d_40">
     <path d="M 77.3625 88.954687 
L 87.3625 88.954687 
L 97.3625 88.954687 
" style="fill: none; stroke: #5694ca; stroke-width: 2; stroke-linecap: square"/>
    </g>
    <g id="text_22">
     <!-- England -->
     <g transform="translate(105.3625 92.454687)scale(0.1 -0.1)">
      <defs>
       <path id="Inter-Regular-45" d="M 564 0 
L 564 4655 
L 3373 4655 
L 3373 4155 
L 1127 4155 
L 1127 2582 
L 3227 2582 
L 3227 2082 
L 1127 2082 
L 1127 500 
L 3409 500 
L 3409 0 
L 564 0 
z
" transform="scale(0.015625)"/>
       <path id="Inter-Regular-67" d="M 1900 -1382 
Q 1316 -1382 976 -1169 
Q 636 -957 473 -682 
L 900 -382 
Q 973 -477 1084 -601 
Q 1196 -725 1390 -817 
Q 1584 -909 1900 -909 
Q 2323 -909 2598 -704 
Q 2873 -500 2873 -64 
L 2873 645 
L 2827 645 
Q 2768 550 2660 410 
Q 2552 270 2351 162 
Q 2150 55 1809 55 
Q 1386 55 1051 255 
Q 716 455 521 836 
Q 327 1218 327 1764 
Q 327 2300 516 2699 
Q 705 3098 1041 3317 
Q 1377 3536 1818 3536 
Q 2159 3536 2360 3423 
Q 2561 3311 2669 3169 
Q 2777 3027 2836 2936 
L 2891 2936 
L 2891 3491 
L 3409 3491 
L 3409 -100 
Q 3409 -550 3205 -833 
Q 3002 -1116 2660 -1249 
Q 2318 -1382 1900 -1382 
z
M 1882 536 
Q 2366 536 2624 864 
Q 2882 1193 2882 1773 
Q 2882 2339 2627 2697 
Q 2373 3055 1882 3055 
Q 1541 3055 1315 2882 
Q 1089 2709 976 2418 
Q 864 2127 864 1773 
Q 864 1227 1120 881 
Q 1377 536 1882 536 
z
" transform="scale(0.015625)"/>
      </defs>
      <use xlink:href="#Inter-Regular-45"/>
      <use xlink:href="#Inter-Regular-6e" x="59.801147"/>
      <use xlink:href="#Inter-Regular-67" x="118.323883"/>
      <use xlink:href="#Inter-Regular-6c" x="179.261398"/>
      <use xlink:href="#Inter-Regular-61" x="202.982986"/>
      <use xlink:href="#Inter-Regular-6e" x="259.375046"/>
      <use xlink:href="#Inter-Regular-64" x="317.897781"/>
     </g>
    </g>
   </g>
  </g>
 </g>
 <defs>
  <clipPath id="pb89976c7c8">
   <rect x="68.3625" y="33.225" width="669.6" height="443.52"/>
  </clipPath>
 </defs>
</svg>
