<?xml version="1.0" encoding="utf-8" standalone="no"?>
<!DOCTYPE svg PUBLIC "-//W3C//DTD SVG 1.1//EN"
  "http://www.w3.org/Graphics/SVG/1.1/DTD/svg11.dtd">
<!-- Created with matplotlib (https://matplotlib.org/) -->
<svg version="1.1" viewBox="0 0 756.132813 511.27625" xmlns="http://www.w3.org/2000/svg" xmlns:xlink="http://www.w3.org/1999/xlink">
 <metadata>
  <rdf:RDF xmlns:cc="http://creativecommons.org/ns#" xmlns:dc="http://purl.org/dc/elements/1.1/" xmlns:rdf="http://www.w3.org/1999/02/22-rdf-syntax-ns#">
   <cc:Work>
    <dc:type rdf:resource="http://purl.org/dc/dcmitype/StillImage"/>
    <dc:date>2021-01-18T17:32:59.254344</dc:date>
    <dc:format>image/svg+xml</dc:format>
    <dc:creator>
     <cc:Agent>
      <dc:title>Matplotlib v3.3.3, https://matplotlib.org/</dc:title>
     </cc:Agent>
    </dc:creator>
   </cc:Work>
  </rdf:RDF>
 </metadata>
 <defs>
  <style type="text/css">*{stroke-linecap:butt;stroke-linejoin:round;}</style>
 </defs>
 <g id="figure_1">
  <g id="patch_1">
   <path d="M 0 511.27625 
L 756.132813 511.27625 
L 756.132813 0 
L 0 0 
z
" style="fill:#ffffff;"/>
  </g>
  <g id="axes_1">
   <g id="patch_2">
    <path d="M 68.532813 476.745 
L 738.132812 476.745 
L 738.132812 33.225 
L 68.532813 33.225 
z
" style="fill:#ffffff;"/>
   </g>
   <g id="matplotlib.axis_1">
    <g id="xtick_1">
     <g id="line2d_1">
      <defs>
       <path d="M 0 0 
L 0 3.5 
" id="m96b699f9f2" style="stroke:#000000;stroke-width:0.8;"/>
      </defs>
      <g>
       <use style="stroke:#000000;stroke-width:0.8;" x="68.532813" xlink:href="#m96b699f9f2" y="476.745"/>
      </g>
     </g>
     <g id="text_1">
      <!-- 01 Mar -->
      <g transform="translate(52.496094 491.018438)scale(0.1 -0.1)">
       <defs>
        <path d="M 31.25 -1 
Q 19.21875 -1 12.59375 8.765625 
Q 5.96875 18.53125 5.96875 36.359375 
Q 5.96875 54.046875 12.640625 63.875 
Q 19.3125 73.71875 31.25 73.71875 
Q 43.1875 73.71875 49.859375 63.875 
Q 56.53125 54.046875 56.53125 36.359375 
Q 56.53125 18.53125 49.90625 8.765625 
Q 43.296875 -1 31.25 -1 
z
M 31.25 6.8125 
Q 39.203125 6.8125 43.609375 14.484375 
Q 48.015625 22.15625 48.015625 36.359375 
Q 48.015625 50.53125 43.578125 58.28125 
Q 39.140625 66.046875 31.25 66.046875 
Q 23.375 66.046875 18.921875 58.28125 
Q 14.484375 50.53125 14.484375 36.359375 
Q 14.484375 22.15625 18.90625 14.484375 
Q 23.328125 6.8125 31.25 6.8125 
z
" id="Inter-Regular-48"/>
        <path d="M 30.828125 72.734375 
L 30.828125 0 
L 22.015625 0 
L 22.015625 59.9375 
L 21.453125 59.9375 
Q 20.953125 58.953125 18.890625 57.6875 
Q 16.828125 56.421875 13.5625 55.484375 
Q 10.296875 54.546875 6.109375 54.546875 
L 6.109375 61.9375 
Q 10.328125 61.9375 13.421875 63.453125 
Q 16.515625 64.984375 18.59375 67.046875 
Q 20.671875 69.109375 21.75 70.765625 
Q 22.828125 72.4375 23.015625 72.734375 
z
" id="Inter-Regular-49"/>
        <path id="Inter-Regular-32"/>
        <path d="M 8.8125 72.734375 
L 19.3125 72.734375 
L 44.03125 12.359375 
L 44.890625 12.359375 
L 69.609375 72.734375 
L 80.109375 72.734375 
L 80.109375 0 
L 71.875 0 
L 71.875 55.25 
L 71.171875 55.25 
L 48.4375 0 
L 40.484375 0 
L 17.75 55.25 
L 17.046875 55.25 
L 17.046875 0 
L 8.8125 0 
z
" id="Inter-Regular-77"/>
        <path d="M 23.71875 -1.28125 
Q 18.53125 -1.28125 14.3125 0.6875 
Q 10.09375 2.65625 7.59375 6.40625 
Q 5.109375 10.15625 5.109375 15.484375 
Q 5.109375 20.171875 6.953125 23.09375 
Q 8.8125 26.03125 11.890625 27.703125 
Q 14.984375 29.375 18.734375 30.203125 
Q 22.484375 31.03125 26.28125 31.53125 
Q 31.25 32.171875 34.359375 32.5 
Q 37.46875 32.84375 38.90625 33.65625 
Q 40.34375 34.484375 40.34375 36.5 
L 40.34375 36.796875 
Q 40.34375 42.046875 37.484375 44.953125 
Q 34.625 47.875 28.84375 47.875 
Q 22.828125 47.875 19.421875 45.234375 
Q 16.015625 42.609375 14.625 39.625 
L 6.671875 42.46875 
Q 8.8125 47.4375 12.375 50.21875 
Q 15.953125 53.015625 20.1875 54.125 
Q 24.4375 55.25 28.546875 55.25 
Q 31.1875 55.25 34.609375 54.625 
Q 38.03125 54.015625 41.25 52.09375 
Q 44.46875 50.171875 46.59375 46.296875 
Q 48.71875 42.4375 48.71875 35.9375 
L 48.71875 0 
L 40.34375 0 
L 40.34375 7.390625 
L 39.921875 7.390625 
Q 39.0625 5.609375 37.078125 3.578125 
Q 35.09375 1.5625 31.78125 0.140625 
Q 28.484375 -1.28125 23.71875 -1.28125 
z
M 25 6.25 
Q 29.96875 6.25 33.390625 8.203125 
Q 36.828125 10.15625 38.578125 13.234375 
Q 40.34375 16.328125 40.34375 19.75 
L 40.34375 27.421875 
Q 39.8125 26.78125 38.015625 26.265625 
Q 36.21875 25.75 33.890625 25.375 
Q 31.578125 25 29.390625 24.734375 
Q 27.203125 24.46875 25.859375 24.296875 
Q 22.59375 23.859375 19.765625 22.921875 
Q 16.9375 21.984375 15.21875 20.109375 
Q 13.5 18.25 13.5 15.0625 
Q 13.5 10.6875 16.75 8.46875 
Q 20 6.25 25 6.25 
z
" id="Inter-Regular-97"/>
        <path d="M 7.671875 0 
L 7.671875 54.546875 
L 15.765625 54.546875 
L 15.765625 46.3125 
L 16.34375 46.3125 
Q 17.796875 50.359375 21.703125 52.875 
Q 25.609375 55.390625 30.546875 55.390625 
Q 32.8125 55.390625 34.515625 54.859375 
Q 36.21875 54.328125 37.5 53.40625 
L 34.65625 46.3125 
Q 33.765625 46.765625 32.578125 47.03125 
Q 31.390625 47.296875 29.828125 47.296875 
Q 23.859375 47.296875 19.953125 43.65625 
Q 16.046875 40.015625 16.046875 34.515625 
L 16.046875 0 
z
" id="Inter-Regular-114"/>
       </defs>
       <use xlink:href="#Inter-Regular-48"/>
       <use x="62.500015" xlink:href="#Inter-Regular-49"/>
       <use x="106.676163" xlink:href="#Inter-Regular-32"/>
       <use x="134.801163" xlink:href="#Inter-Regular-77"/>
       <use x="225.99437" xlink:href="#Inter-Regular-97"/>
       <use x="282.386429" xlink:href="#Inter-Regular-114"/>
      </g>
     </g>
    </g>
    <g id="xtick_2">
     <g id="line2d_2">
      <g>
       <use style="stroke:#000000;stroke-width:0.8;" x="132.652875" xlink:href="#m96b699f9f2" y="476.745"/>
      </g>
     </g>
     <g id="text_2">
      <!-- 01 Apr -->
      <g transform="translate(117.567718 491.116875)scale(0.1 -0.1)">
       <defs>
        <path d="M 11.796875 0 
L 2.5625 0 
L 29.265625 72.734375 
L 38.359375 72.734375 
L 65.0625 0 
L 55.828125 0 
L 48.515625 20.59375 
L 19.109375 20.59375 
z
M 21.875 28.40625 
L 45.734375 28.40625 
L 34.09375 61.21875 
L 33.53125 61.21875 
z
" id="Inter-Regular-65"/>
        <path d="M 7.671875 -20.453125 
L 7.671875 54.546875 
L 15.765625 54.546875 
L 15.765625 45.875 
L 16.765625 45.875 
Q 17.6875 47.296875 19.328125 49.515625 
Q 20.984375 51.734375 24.09375 53.484375 
Q 27.203125 55.25 32.53125 55.25 
Q 39.421875 55.25 44.671875 51.796875 
Q 49.9375 48.359375 52.875 42.03125 
Q 55.828125 35.71875 55.828125 27.125 
Q 55.828125 18.46875 52.875 12.125 
Q 49.9375 5.78125 44.703125 2.3125 
Q 39.484375 -1.140625 32.671875 -1.140625 
Q 27.421875 -1.140625 24.25 0.609375 
Q 21.09375 2.375 19.390625 4.625 
Q 17.6875 6.890625 16.765625 8.375 
L 16.046875 8.375 
L 16.046875 -20.453125 
z
M 15.90625 27.265625 
Q 15.90625 18 19.9375 12.1875 
Q 23.96875 6.390625 31.53125 6.390625 
Q 36.796875 6.390625 40.328125 9.171875 
Q 43.859375 11.96875 45.640625 16.703125 
Q 47.4375 21.453125 47.4375 27.265625 
Q 47.4375 33.03125 45.671875 37.65625 
Q 43.921875 42.296875 40.390625 45.015625 
Q 36.859375 47.734375 31.53125 47.734375 
Q 23.859375 47.734375 19.875 42.078125 
Q 15.90625 36.4375 15.90625 27.265625 
z
" id="Inter-Regular-112"/>
       </defs>
       <use xlink:href="#Inter-Regular-48"/>
       <use x="62.500015" xlink:href="#Inter-Regular-49"/>
       <use x="106.676163" xlink:href="#Inter-Regular-32"/>
       <use x="134.801163" xlink:href="#Inter-Regular-65"/>
       <use x="202.41481" xlink:href="#Inter-Regular-112"/>
       <use x="263.352325" xlink:href="#Inter-Regular-114"/>
      </g>
     </g>
    </g>
    <g id="xtick_3">
     <g id="line2d_3">
      <g>
       <use style="stroke:#000000;stroke-width:0.8;" x="194.704548" xlink:href="#m96b699f9f2" y="476.745"/>
      </g>
     </g>
     <g id="text_3">
      <!-- 01 May -->
      <g transform="translate(177.801423 491.116875)scale(0.1 -0.1)">
       <defs>
        <path d="M 12.78125 -21.171875 
Q 10.65625 -21.171875 8.984375 -20.828125 
Q 7.3125 -20.484375 6.671875 -20.171875 
L 8.8125 -12.78125 
Q 13.390625 -13.953125 16.453125 -12.71875 
Q 19.53125 -11.5 21.734375 -5.390625 
L 23.578125 -0.28125 
L 3.40625 54.546875 
L 12.5 54.546875 
L 27.5625 11.078125 
L 28.125 11.078125 
L 43.1875 54.546875 
L 52.28125 54.546875 
L 28.84375 -8.8125 
Q 24.21875 -21.171875 12.78125 -21.171875 
z
" id="Inter-Regular-121"/>
       </defs>
       <use xlink:href="#Inter-Regular-48"/>
       <use x="62.500015" xlink:href="#Inter-Regular-49"/>
       <use x="106.676163" xlink:href="#Inter-Regular-32"/>
       <use x="134.801163" xlink:href="#Inter-Regular-77"/>
       <use x="225.99437" xlink:href="#Inter-Regular-97"/>
       <use x="282.386429" xlink:href="#Inter-Regular-121"/>
      </g>
     </g>
    </g>
    <g id="xtick_4">
     <g id="line2d_4">
      <g>
       <use style="stroke:#000000;stroke-width:0.8;" x="258.82461" xlink:href="#m96b699f9f2" y="476.745"/>
      </g>
     </g>
     <g id="text_4">
      <!-- 01 Jun -->
      <g transform="translate(243.540235 491.018438)scale(0.1 -0.1)">
       <defs>
        <path d="M 36.65625 72.734375 
L 45.453125 72.734375 
L 45.453125 20.734375 
Q 45.453125 10.265625 39.828125 4.625 
Q 34.203125 -1 24.71875 -1 
Q 18.75 -1 14.09375 1.1875 
Q 9.453125 3.375 6.78125 7.421875 
Q 4.125 11.46875 4.125 17.046875 
L 12.78125 17.046875 
Q 12.78125 12.421875 16.15625 9.609375 
Q 19.53125 6.8125 24.71875 6.8125 
Q 30.4375 6.8125 33.546875 10.375 
Q 36.65625 13.953125 36.65625 20.734375 
z
" id="Inter-Regular-74"/>
        <path d="M 42.046875 22.296875 
L 42.046875 54.546875 
L 50.421875 54.546875 
L 50.421875 0 
L 42.046875 0 
L 42.046875 9.234375 
L 41.484375 9.234375 
Q 39.5625 5.078125 35.515625 2.1875 
Q 31.46875 -0.703125 25.28125 -0.703125 
Q 17.609375 -0.703125 12.640625 4.375 
Q 7.671875 9.453125 7.671875 19.890625 
L 7.671875 54.546875 
L 16.046875 54.546875 
L 16.046875 20.453125 
Q 16.046875 14.484375 19.40625 10.9375 
Q 22.765625 7.390625 27.984375 7.390625 
Q 31.109375 7.390625 34.359375 8.984375 
Q 37.609375 10.578125 39.828125 13.875 
Q 42.046875 17.1875 42.046875 22.296875 
z
" id="Inter-Regular-117"/>
        <path d="M 16.046875 32.8125 
L 16.046875 0 
L 7.671875 0 
L 7.671875 54.546875 
L 15.765625 54.546875 
L 15.765625 46.015625 
L 16.484375 46.015625 
Q 18.390625 50.171875 22.296875 52.703125 
Q 26.203125 55.25 32.390625 55.25 
Q 40.65625 55.25 45.75 50.171875 
Q 50.859375 45.09375 50.859375 34.65625 
L 50.859375 0 
L 42.46875 0 
L 42.46875 34.09375 
Q 42.46875 40.515625 39.125 44.125 
Q 35.796875 47.734375 29.96875 47.734375 
Q 23.96875 47.734375 20 43.84375 
Q 16.046875 39.953125 16.046875 32.8125 
z
" id="Inter-Regular-110"/>
       </defs>
       <use xlink:href="#Inter-Regular-48"/>
       <use x="62.500015" xlink:href="#Inter-Regular-49"/>
       <use x="106.676163" xlink:href="#Inter-Regular-32"/>
       <use x="134.801163" xlink:href="#Inter-Regular-74"/>
       <use x="189.062531" xlink:href="#Inter-Regular-117"/>
       <use x="247.159134" xlink:href="#Inter-Regular-110"/>
      </g>
     </g>
    </g>
    <g id="xtick_5">
     <g id="line2d_5">
      <g>
       <use style="stroke:#000000;stroke-width:0.8;" x="320.876283" xlink:href="#m96b699f9f2" y="476.745"/>
      </g>
     </g>
     <g id="text_5">
      <!-- 01 Jul -->
      <g transform="translate(307.332533 491.018438)scale(0.1 -0.1)">
       <defs>
        <path d="M 16.046875 72.734375 
L 16.046875 0 
L 7.671875 0 
L 7.671875 72.734375 
z
" id="Inter-Regular-108"/>
       </defs>
       <use xlink:href="#Inter-Regular-48"/>
       <use x="62.500015" xlink:href="#Inter-Regular-49"/>
       <use x="106.676163" xlink:href="#Inter-Regular-32"/>
       <use x="134.801163" xlink:href="#Inter-Regular-74"/>
       <use x="189.062531" xlink:href="#Inter-Regular-117"/>
       <use x="247.159134" xlink:href="#Inter-Regular-108"/>
      </g>
     </g>
    </g>
    <g id="xtick_6">
     <g id="line2d_6">
      <g>
       <use style="stroke:#000000;stroke-width:0.8;" x="384.996346" xlink:href="#m96b699f9f2" y="476.745"/>
      </g>
     </g>
     <g id="text_6">
      <!-- 01 Aug -->
      <g transform="translate(368.924471 491.116875)scale(0.1 -0.1)">
       <defs>
        <path d="M 29.6875 -21.59375 
Q 20.5625 -21.59375 15.25 -18.265625 
Q 9.9375 -14.953125 7.390625 -10.65625 
L 14.0625 -5.96875 
Q 15.203125 -7.453125 16.9375 -9.390625 
Q 18.6875 -11.328125 21.71875 -12.765625 
Q 24.75 -14.203125 29.6875 -14.203125 
Q 36.296875 -14.203125 40.59375 -11 
Q 44.890625 -7.8125 44.890625 -1 
L 44.890625 10.078125 
L 44.171875 10.078125 
Q 43.25 8.59375 41.5625 6.40625 
Q 39.875 4.21875 36.734375 2.53125 
Q 33.59375 0.859375 28.265625 0.859375 
Q 21.65625 0.859375 16.421875 3.984375 
Q 11.1875 7.109375 8.140625 13.0625 
Q 5.109375 19.03125 5.109375 27.5625 
Q 5.109375 35.9375 8.0625 42.171875 
Q 11.015625 48.40625 16.265625 51.828125 
Q 21.515625 55.25 28.40625 55.25 
Q 33.734375 55.25 36.875 53.484375 
Q 40.015625 51.734375 41.703125 49.515625 
Q 43.390625 47.296875 44.3125 45.875 
L 45.171875 45.875 
L 45.171875 54.546875 
L 53.265625 54.546875 
L 53.265625 -1.5625 
Q 53.265625 -8.59375 50.078125 -13.015625 
Q 46.90625 -17.4375 41.5625 -19.515625 
Q 36.21875 -21.59375 29.6875 -21.59375 
z
M 29.40625 8.375 
Q 36.96875 8.375 41 13.5 
Q 45.03125 18.640625 45.03125 27.703125 
Q 45.03125 36.546875 41.046875 42.140625 
Q 37.078125 47.734375 29.40625 47.734375 
Q 24.078125 47.734375 20.546875 45.03125 
Q 17.015625 42.328125 15.25 37.78125 
Q 13.5 33.234375 13.5 27.703125 
Q 13.5 19.171875 17.5 13.765625 
Q 21.515625 8.375 29.40625 8.375 
z
" id="Inter-Regular-103"/>
       </defs>
       <use xlink:href="#Inter-Regular-48"/>
       <use x="62.500015" xlink:href="#Inter-Regular-49"/>
       <use x="106.676163" xlink:href="#Inter-Regular-32"/>
       <use x="134.801163" xlink:href="#Inter-Regular-65"/>
       <use x="202.41481" xlink:href="#Inter-Regular-117"/>
       <use x="260.511414" xlink:href="#Inter-Regular-103"/>
      </g>
     </g>
    </g>
    <g id="xtick_7">
     <g id="line2d_7">
      <g>
       <use style="stroke:#000000;stroke-width:0.8;" x="449.116408" xlink:href="#m96b699f9f2" y="476.745"/>
      </g>
     </g>
     <g id="text_7">
      <!-- 01 Sep -->
      <g transform="translate(433.228908 491.116875)scale(0.1 -0.1)">
       <defs>
        <path d="M 48.578125 54.546875 
Q 47.9375 59.9375 43.390625 62.921875 
Q 38.84375 65.90625 32.25 65.90625 
Q 25 65.90625 20.59375 62.484375 
Q 16.1875 59.0625 16.1875 53.828125 
Q 16.1875 49.921875 18.578125 47.53125 
Q 20.984375 45.140625 24.265625 43.796875 
Q 27.5625 42.46875 30.25 41.765625 
L 37.640625 39.765625 
Q 40.484375 39.03125 43.984375 37.71875 
Q 47.484375 36.40625 50.6875 34.140625 
Q 53.90625 31.890625 56 28.375 
Q 58.09375 24.859375 58.09375 19.75 
Q 58.09375 13.84375 55.015625 9.078125 
Q 51.953125 4.328125 46.078125 1.515625 
Q 40.203125 -1.28125 31.8125 -1.28125 
Q 20.09375 -1.28125 13.203125 4.25 
Q 6.328125 9.796875 5.6875 18.75 
L 14.78125 18.75 
Q 15.125 14.625 17.5625 11.9375 
Q 20 9.265625 23.734375 7.96875 
Q 27.484375 6.671875 31.8125 6.671875 
Q 36.859375 6.671875 40.875 8.328125 
Q 44.890625 9.984375 47.234375 12.9375 
Q 49.578125 15.90625 49.578125 19.890625 
Q 49.578125 23.515625 47.546875 25.78125 
Q 45.53125 28.046875 42.21875 29.46875 
Q 38.921875 30.890625 35.09375 31.953125 
L 26.140625 34.515625 
Q 17.609375 36.96875 12.640625 41.515625 
Q 7.671875 46.0625 7.671875 53.40625 
Q 7.671875 59.515625 10.984375 64.078125 
Q 14.3125 68.640625 19.9375 71.171875 
Q 25.5625 73.71875 32.53125 73.71875 
Q 39.5625 73.71875 45.03125 71.21875 
Q 50.5 68.71875 53.703125 64.375 
Q 56.921875 60.046875 57.109375 54.546875 
z
" id="Inter-Regular-83"/>
        <path d="M 30.546875 -1.140625 
Q 22.65625 -1.140625 16.953125 2.359375 
Q 11.265625 5.859375 8.1875 12.15625 
Q 5.109375 18.46875 5.109375 26.84375 
Q 5.109375 35.234375 8.1875 41.640625 
Q 11.265625 48.046875 16.78125 51.640625 
Q 22.296875 55.25 29.6875 55.25 
Q 33.953125 55.25 38.109375 53.828125 
Q 42.265625 52.421875 45.671875 49.234375 
Q 49.078125 46.0625 51.09375 40.84375 
Q 53.125 35.625 53.125 27.984375 
L 53.125 24.4375 
L 13.53125 24.4375 
Q 13.8125 15.703125 18.484375 11.046875 
Q 23.15625 6.390625 30.546875 6.390625 
Q 35.484375 6.390625 39.03125 8.515625 
Q 42.578125 10.65625 44.171875 14.921875 
L 52.28125 12.640625 
Q 50.359375 6.46875 44.59375 2.65625 
Q 38.84375 -1.140625 30.546875 -1.140625 
z
M 13.53125 31.671875 
L 44.609375 31.671875 
Q 44.609375 38.59375 40.546875 43.15625 
Q 36.5 47.734375 29.6875 47.734375 
Q 24.890625 47.734375 21.375 45.484375 
Q 17.859375 43.25 15.828125 39.578125 
Q 13.8125 35.90625 13.53125 31.671875 
z
" id="Inter-Regular-101"/>
       </defs>
       <use xlink:href="#Inter-Regular-48"/>
       <use x="62.500015" xlink:href="#Inter-Regular-49"/>
       <use x="106.676163" xlink:href="#Inter-Regular-32"/>
       <use x="134.801163" xlink:href="#Inter-Regular-83"/>
       <use x="198.57959" xlink:href="#Inter-Regular-101"/>
       <use x="256.818237" xlink:href="#Inter-Regular-112"/>
      </g>
     </g>
    </g>
    <g id="xtick_8">
     <g id="line2d_8">
      <g>
       <use style="stroke:#000000;stroke-width:0.8;" x="511.168081" xlink:href="#m96b699f9f2" y="476.745"/>
      </g>
     </g>
     <g id="text_8">
      <!-- 01 Oct -->
      <g transform="translate(496.011831 491.018438)scale(0.1 -0.1)">
       <defs>
        <path d="M 70.171875 36.359375 
Q 70.171875 24.859375 66.015625 16.46875 
Q 61.859375 8.09375 54.609375 3.546875 
Q 47.375 -1 38.0625 -1 
Q 28.765625 -1 21.515625 3.546875 
Q 14.28125 8.09375 10.125 16.46875 
Q 5.96875 24.859375 5.96875 36.359375 
Q 5.96875 47.875 10.125 56.25 
Q 14.28125 64.625 21.515625 69.171875 
Q 28.765625 73.71875 38.0625 73.71875 
Q 47.375 73.71875 54.609375 69.171875 
Q 61.859375 64.625 66.015625 56.25 
Q 70.171875 47.875 70.171875 36.359375 
z
M 61.65625 36.359375 
Q 61.65625 45.8125 58.5 52.3125 
Q 55.359375 58.8125 50.015625 62.140625 
Q 44.671875 65.484375 38.0625 65.484375 
Q 31.46875 65.484375 26.125 62.140625 
Q 20.78125 58.8125 17.625 52.3125 
Q 14.484375 45.8125 14.484375 36.359375 
Q 14.484375 26.921875 17.625 20.421875 
Q 20.78125 13.921875 26.125 10.578125 
Q 31.46875 7.25 38.0625 7.25 
Q 44.671875 7.25 50.015625 10.578125 
Q 55.359375 13.921875 58.5 20.421875 
Q 61.65625 26.921875 61.65625 36.359375 
z
" id="Inter-Regular-79"/>
        <path d="M 29.828125 -1.140625 
Q 22.15625 -1.140625 16.609375 2.484375 
Q 11.078125 6.109375 8.09375 12.46875 
Q 5.109375 18.828125 5.109375 26.984375 
Q 5.109375 35.296875 8.1875 41.671875 
Q 11.265625 48.046875 16.78125 51.640625 
Q 22.296875 55.25 29.6875 55.25 
Q 35.4375 55.25 40.046875 53.125 
Q 44.671875 51 47.609375 47.15625 
Q 50.5625 43.328125 51.28125 38.203125 
L 42.90625 38.203125 
Q 41.9375 41.9375 38.65625 44.828125 
Q 35.375 47.734375 29.828125 47.734375 
Q 22.484375 47.734375 17.984375 42.140625 
Q 13.5 36.546875 13.5 27.265625 
Q 13.5 17.796875 17.9375 12.09375 
Q 22.375 6.390625 29.828125 6.390625 
Q 34.734375 6.390625 38.234375 8.90625 
Q 41.734375 11.4375 42.90625 15.90625 
L 51.28125 15.90625 
Q 50.5625 11.078125 47.78125 7.21875 
Q 45 3.375 40.4375 1.109375 
Q 35.875 -1.140625 29.828125 -1.140625 
z
" id="Inter-Regular-99"/>
        <path d="M 31.390625 54.546875 
L 31.390625 47.4375 
L 19.75 47.4375 
L 19.75 15.625 
Q 19.75 12.078125 20.796875 10.3125 
Q 21.84375 8.5625 23.484375 7.96875 
Q 25.140625 7.390625 26.984375 7.390625 
Q 28.375 7.390625 29.265625 7.546875 
Q 30.15625 7.703125 30.6875 7.8125 
L 32.390625 0.28125 
Q 31.53125 -0.03125 30 -0.359375 
Q 28.484375 -0.703125 26.140625 -0.703125 
Q 22.59375 -0.703125 19.1875 0.8125 
Q 15.796875 2.34375 13.578125 5.46875 
Q 11.359375 8.59375 11.359375 13.359375 
L 11.359375 47.4375 
L 3.125 47.4375 
L 3.125 54.546875 
L 11.359375 54.546875 
L 11.359375 67.609375 
L 19.75 67.609375 
L 19.75 54.546875 
z
" id="Inter-Regular-116"/>
       </defs>
       <use xlink:href="#Inter-Regular-48"/>
       <use x="62.500015" xlink:href="#Inter-Regular-49"/>
       <use x="106.676163" xlink:href="#Inter-Regular-32"/>
       <use x="134.801163" xlink:href="#Inter-Regular-79"/>
       <use x="210.937546" xlink:href="#Inter-Regular-99"/>
       <use x="266.761414" xlink:href="#Inter-Regular-116"/>
      </g>
     </g>
    </g>
    <g id="xtick_9">
     <g id="line2d_9">
      <g>
       <use style="stroke:#000000;stroke-width:0.8;" x="575.288143" xlink:href="#m96b699f9f2" y="476.745"/>
      </g>
     </g>
     <g id="text_9">
      <!-- 01 Nov -->
      <g transform="translate(559.017049 491.018438)scale(0.1 -0.1)">
       <defs>
        <path d="M 66.484375 72.734375 
L 66.484375 0 
L 57.953125 0 
L 18.328125 57.109375 
L 17.609375 57.109375 
L 17.609375 0 
L 8.8125 0 
L 8.8125 72.734375 
L 17.328125 72.734375 
L 57.109375 15.484375 
L 57.8125 15.484375 
L 57.8125 72.734375 
z
" id="Inter-Regular-78"/>
        <path d="M 29.828125 -1.140625 
Q 22.4375 -1.140625 16.875 2.375 
Q 11.328125 5.890625 8.21875 12.203125 
Q 5.109375 18.53125 5.109375 26.984375 
Q 5.109375 35.515625 8.21875 41.859375 
Q 11.328125 48.21875 16.875 51.734375 
Q 22.4375 55.25 29.828125 55.25 
Q 37.21875 55.25 42.765625 51.734375 
Q 48.328125 48.21875 51.4375 41.859375 
Q 54.546875 35.515625 54.546875 26.984375 
Q 54.546875 18.53125 51.4375 12.203125 
Q 48.328125 5.890625 42.765625 2.375 
Q 37.21875 -1.140625 29.828125 -1.140625 
z
M 29.828125 6.390625 
Q 35.4375 6.390625 39.0625 9.265625 
Q 42.6875 12.140625 44.421875 16.828125 
Q 46.171875 21.515625 46.171875 26.984375 
Q 46.171875 32.453125 44.421875 37.171875 
Q 42.6875 41.90625 39.0625 44.8125 
Q 35.4375 47.734375 29.828125 47.734375 
Q 24.21875 47.734375 20.59375 44.8125 
Q 16.96875 41.90625 15.234375 37.171875 
Q 13.5 32.453125 13.5 26.984375 
Q 13.5 21.515625 15.234375 16.828125 
Q 16.96875 12.140625 20.59375 9.265625 
Q 24.21875 6.390625 29.828125 6.390625 
z
" id="Inter-Regular-111"/>
        <path d="M 52.28125 54.546875 
L 32.109375 0 
L 23.578125 0 
L 3.40625 54.546875 
L 12.5 54.546875 
L 27.5625 11.078125 
L 28.125 11.078125 
L 43.1875 54.546875 
z
" id="Inter-Regular-118"/>
       </defs>
       <use xlink:href="#Inter-Regular-48"/>
       <use x="62.500015" xlink:href="#Inter-Regular-49"/>
       <use x="106.676163" xlink:href="#Inter-Regular-32"/>
       <use x="134.801163" xlink:href="#Inter-Regular-78"/>
       <use x="210.085266" xlink:href="#Inter-Regular-111"/>
       <use x="269.74437" xlink:href="#Inter-Regular-118"/>
      </g>
     </g>
    </g>
    <g id="xtick_10">
     <g id="line2d_10">
      <g>
       <use style="stroke:#000000;stroke-width:0.8;" x="637.339816" xlink:href="#m96b699f9f2" y="476.745"/>
      </g>
     </g>
     <g id="text_10">
      <!-- 01 Dec -->
      <g transform="translate(621.303098 491.018438)scale(0.1 -0.1)">
       <defs>
        <path d="M 31.25 0 
L 8.8125 0 
L 8.8125 72.734375 
L 32.25 72.734375 
Q 42.828125 72.734375 50.359375 68.375 
Q 57.890625 64.03125 61.890625 55.90625 
Q 65.90625 47.796875 65.90625 36.5 
Q 65.90625 25.140625 61.859375 16.953125 
Q 57.8125 8.765625 50.0625 4.375 
Q 42.328125 0 31.25 0 
z
M 17.609375 7.8125 
L 30.6875 7.8125 
Q 44.21875 7.8125 50.796875 15.5 
Q 57.390625 23.1875 57.390625 36.5 
Q 57.390625 49.71875 50.921875 57.3125 
Q 44.46875 64.921875 31.671875 64.921875 
L 17.609375 64.921875 
z
" id="Inter-Regular-68"/>
       </defs>
       <use xlink:href="#Inter-Regular-48"/>
       <use x="62.500015" xlink:href="#Inter-Regular-49"/>
       <use x="106.676163" xlink:href="#Inter-Regular-32"/>
       <use x="134.801163" xlink:href="#Inter-Regular-68"/>
       <use x="206.676178" xlink:href="#Inter-Regular-101"/>
       <use x="264.914825" xlink:href="#Inter-Regular-99"/>
      </g>
     </g>
    </g>
    <g id="xtick_11">
     <g id="line2d_11">
      <g>
       <use style="stroke:#000000;stroke-width:0.8;" x="701.459879" xlink:href="#m96b699f9f2" y="476.745"/>
      </g>
     </g>
     <g id="text_11">
      <!-- 01 Jan -->
      <g transform="translate(686.26066 491.018438)scale(0.1 -0.1)">
       <use xlink:href="#Inter-Regular-48"/>
       <use x="62.500015" xlink:href="#Inter-Regular-49"/>
       <use x="106.676163" xlink:href="#Inter-Regular-32"/>
       <use x="134.801163" xlink:href="#Inter-Regular-74"/>
       <use x="189.062531" xlink:href="#Inter-Regular-97"/>
       <use x="245.45459" xlink:href="#Inter-Regular-110"/>
      </g>
     </g>
    </g>
   </g>
   <g id="matplotlib.axis_2">
    <g id="ytick_1">
     <g id="line2d_12">
      <path clip-path="url(#paefb9d6556)" d="M 68.532813 476.745 
L 738.132812 476.745 
" style="fill:none;stroke:#e5e5e5;stroke-linecap:square;stroke-width:0.8;"/>
     </g>
     <g id="line2d_13">
      <defs>
       <path d="M 0 0 
L -3.5 0 
" id="mcd5695c64f" style="stroke:#000000;stroke-width:0.8;"/>
      </defs>
      <g>
       <use style="stroke:#000000;stroke-width:0.8;" x="68.532813" xlink:href="#mcd5695c64f" y="476.745"/>
      </g>
     </g>
     <g id="text_12">
      <!-- 0.00% -->
      <g transform="translate(31.901563 480.381719)scale(0.1 -0.1)">
       <defs>
        <path d="M 13.78125 -0.5625 
Q 11.15625 -0.5625 9.265625 1.3125 
Q 7.390625 3.203125 7.390625 5.828125 
Q 7.390625 8.453125 9.265625 10.328125 
Q 11.15625 12.21875 13.78125 12.21875 
Q 16.40625 12.21875 18.28125 10.328125 
Q 20.171875 8.453125 20.171875 5.828125 
Q 20.171875 3.203125 18.28125 1.3125 
Q 16.40625 -0.5625 13.78125 -0.5625 
z
" id="Inter-Regular-46"/>
        <path d="M 44.609375 13.640625 
L 44.609375 17.46875 
Q 44.609375 21.453125 46.25 24.765625 
Q 47.90625 28.09375 51.078125 30.09375 
Q 54.265625 32.109375 58.8125 32.109375 
Q 63.421875 32.109375 66.546875 30.09375 
Q 69.671875 28.09375 71.265625 24.765625 
Q 72.875 21.453125 72.875 17.46875 
L 72.875 13.640625 
Q 72.875 9.65625 71.25 6.328125 
Q 69.640625 3.015625 66.5 1 
Q 63.359375 -1 58.8125 -1 
Q 54.1875 -1 51.03125 1 
Q 47.875 3.015625 46.234375 6.328125 
Q 44.609375 9.65625 44.609375 13.640625 
z
M 8.375 55.25 
L 8.375 59.09375 
Q 8.375 63.0625 10.03125 66.375 
Q 11.6875 69.703125 14.859375 71.703125 
Q 18.046875 73.71875 22.59375 73.71875 
Q 27.203125 73.71875 30.328125 71.703125 
Q 33.453125 69.703125 35.046875 66.375 
Q 36.65625 63.0625 36.65625 59.09375 
L 36.65625 55.25 
Q 36.65625 51.28125 35.03125 47.953125 
Q 33.421875 44.640625 30.265625 42.625 
Q 27.125 40.625 22.59375 40.625 
Q 17.96875 40.625 14.8125 42.625 
Q 11.65625 44.640625 10.015625 47.953125 
Q 8.375 51.28125 8.375 55.25 
z
M 11.078125 0 
L 61.078125 72.734375 
L 69.171875 72.734375 
L 19.171875 0 
z
M 51.84375 17.46875 
L 51.84375 13.640625 
Q 51.84375 10.328125 53.40625 7.71875 
Q 54.96875 5.109375 58.8125 5.109375 
Q 62.53125 5.109375 64.078125 7.71875 
Q 65.625 10.328125 65.625 13.640625 
L 65.625 17.46875 
Q 65.625 20.78125 64.125 23.390625 
Q 62.640625 26 58.8125 26 
Q 55.078125 26 53.453125 23.390625 
Q 51.84375 20.78125 51.84375 17.46875 
z
M 15.625 59.09375 
L 15.625 55.25 
Q 15.625 51.953125 17.1875 49.34375 
Q 18.75 46.734375 22.59375 46.734375 
Q 26.3125 46.734375 27.859375 49.34375 
Q 29.40625 51.953125 29.40625 55.25 
L 29.40625 59.09375 
Q 29.40625 62.390625 27.90625 65 
Q 26.421875 67.609375 22.59375 67.609375 
Q 18.859375 67.609375 17.234375 65 
Q 15.625 62.390625 15.625 59.09375 
z
" id="Inter-Regular-37"/>
       </defs>
       <use xlink:href="#Inter-Regular-48"/>
       <use x="62.500015" xlink:href="#Inter-Regular-46"/>
       <use x="90.056839" xlink:href="#Inter-Regular-48"/>
       <use x="152.556854" xlink:href="#Inter-Regular-48"/>
       <use x="215.05687" xlink:href="#Inter-Regular-37"/>
      </g>
     </g>
    </g>
    <g id="ytick_2">
     <g id="line2d_14">
      <path clip-path="url(#paefb9d6556)" d="M 68.532813 413.949553 
L 738.132812 413.949553 
" style="fill:none;stroke:#e5e5e5;stroke-linecap:square;stroke-width:0.8;"/>
     </g>
     <g id="line2d_15">
      <g>
       <use style="stroke:#000000;stroke-width:0.8;" x="68.532813" xlink:href="#mcd5695c64f" y="413.949553"/>
      </g>
     </g>
     <g id="text_13">
      <!-- 0.02% -->
      <g transform="translate(32.1 417.586271)scale(0.1 -0.1)">
       <defs>
        <path d="M 7.53125 0 
L 7.53125 6.390625 
L 31.53125 32.671875 
Q 35.765625 37.28125 38.5 40.703125 
Q 41.234375 44.140625 42.5625 47.171875 
Q 43.890625 50.21875 43.890625 53.546875 
Q 43.890625 59.296875 39.890625 62.671875 
Q 35.90625 66.046875 29.96875 66.046875 
Q 23.65625 66.046875 19.921875 62.265625 
Q 16.1875 58.484375 16.1875 52.265625 
L 7.8125 52.265625 
Q 7.8125 58.671875 10.75 63.5 
Q 13.703125 68.328125 18.796875 71.015625 
Q 23.90625 73.71875 30.25 73.71875 
Q 36.65625 73.71875 41.578125 71.015625 
Q 46.515625 68.328125 49.3125 63.734375 
Q 52.125 59.15625 52.125 53.546875 
Q 52.125 49.53125 50.6875 45.71875 
Q 49.25 41.90625 45.71875 37.234375 
Q 42.1875 32.5625 35.9375 25.859375 
L 19.609375 8.375 
L 19.609375 7.8125 
L 53.40625 7.8125 
L 53.40625 0 
z
" id="Inter-Regular-50"/>
       </defs>
       <use xlink:href="#Inter-Regular-48"/>
       <use x="62.500015" xlink:href="#Inter-Regular-46"/>
       <use x="90.056839" xlink:href="#Inter-Regular-48"/>
       <use x="152.556854" xlink:href="#Inter-Regular-50"/>
       <use x="213.068237" xlink:href="#Inter-Regular-37"/>
      </g>
     </g>
    </g>
    <g id="ytick_3">
     <g id="line2d_16">
      <path clip-path="url(#paefb9d6556)" d="M 68.532813 351.154105 
L 738.132812 351.154105 
" style="fill:none;stroke:#e5e5e5;stroke-linecap:square;stroke-width:0.8;"/>
     </g>
     <g id="line2d_17">
      <g>
       <use style="stroke:#000000;stroke-width:0.8;" x="68.532813" xlink:href="#mcd5695c64f" y="351.154105"/>
      </g>
     </g>
     <g id="text_14">
      <!-- 0.04% -->
      <g transform="translate(31.73125 354.790824)scale(0.1 -0.1)">
       <defs>
        <path d="M 5.828125 14.921875 
L 5.828125 22.15625 
L 37.78125 72.734375 
L 48.4375 72.734375 
L 48.4375 22.734375 
L 58.375 22.734375 
L 58.375 14.921875 
L 48.4375 14.921875 
L 48.4375 0 
L 40.0625 0 
L 40.0625 14.921875 
z
M 40.0625 22.734375 
L 40.0625 61.5 
L 39.484375 61.5 
L 15.34375 23.296875 
L 15.34375 22.734375 
z
" id="Inter-Regular-52"/>
       </defs>
       <use xlink:href="#Inter-Regular-48"/>
       <use x="62.500015" xlink:href="#Inter-Regular-46"/>
       <use x="90.056839" xlink:href="#Inter-Regular-48"/>
       <use x="152.556854" xlink:href="#Inter-Regular-52"/>
       <use x="216.761414" xlink:href="#Inter-Regular-37"/>
      </g>
     </g>
    </g>
    <g id="ytick_4">
     <g id="line2d_18">
      <path clip-path="url(#paefb9d6556)" d="M 68.532813 288.358658 
L 738.132812 288.358658 
" style="fill:none;stroke:#e5e5e5;stroke-linecap:square;stroke-width:0.8;"/>
     </g>
     <g id="line2d_19">
      <g>
       <use style="stroke:#000000;stroke-width:0.8;" x="68.532813" xlink:href="#mcd5695c64f" y="288.358658"/>
      </g>
     </g>
     <g id="text_15">
      <!-- 0.06% -->
      <g transform="translate(31.915625 291.995376)scale(0.1 -0.1)">
       <defs>
        <path d="M 31.671875 -1 
Q 27.203125 -0.921875 22.71875 0.703125 
Q 18.25 2.34375 14.5625 6.234375 
Q 10.875 10.125 8.625 16.78125 
Q 6.390625 23.4375 6.390625 33.515625 
Q 6.390625 52.90625 13.453125 63.375 
Q 20.53125 73.859375 32.8125 73.859375 
Q 41.96875 73.859375 48.015625 68.5 
Q 54.078125 63.140625 55.40625 54.546875 
L 46.734375 54.546875 
Q 45.53125 59.546875 42.046875 62.796875 
Q 38.5625 66.046875 32.8125 66.046875 
Q 24.359375 66.046875 19.515625 58.671875 
Q 14.671875 51.3125 14.625 37.921875 
L 15.203125 37.921875 
Q 18.1875 42.4375 22.828125 45 
Q 27.484375 47.578125 33.09375 47.578125 
Q 39.34375 47.578125 44.53125 44.46875 
Q 49.71875 41.375 52.84375 35.921875 
Q 55.96875 30.46875 55.96875 23.4375 
Q 55.96875 16.6875 52.953125 11.09375 
Q 49.9375 5.5 44.484375 2.21875 
Q 39.03125 -1.0625 31.671875 -1 
z
M 31.671875 6.8125 
Q 36.15625 6.8125 39.71875 9.046875 
Q 43.296875 11.296875 45.359375 15.0625 
Q 47.4375 18.828125 47.4375 23.4375 
Q 47.4375 27.953125 45.4375 31.65625 
Q 43.4375 35.375 39.9375 37.5625 
Q 36.4375 39.765625 31.96875 39.765625 
Q 27.453125 39.765625 23.828125 37.453125 
Q 20.203125 35.15625 18.078125 31.40625 
Q 15.953125 27.65625 15.90625 23.296875 
Q 15.90625 18.96875 17.953125 15.203125 
Q 20 11.4375 23.5625 9.125 
Q 27.125 6.8125 31.671875 6.8125 
z
" id="Inter-Regular-54"/>
       </defs>
       <use xlink:href="#Inter-Regular-48"/>
       <use x="62.500015" xlink:href="#Inter-Regular-46"/>
       <use x="90.056839" xlink:href="#Inter-Regular-48"/>
       <use x="152.556854" xlink:href="#Inter-Regular-54"/>
       <use x="214.914825" xlink:href="#Inter-Regular-37"/>
      </g>
     </g>
    </g>
    <g id="ytick_5">
     <g id="line2d_20">
      <path clip-path="url(#paefb9d6556)" d="M 68.532813 225.56321 
L 738.132812 225.56321 
" style="fill:none;stroke:#e5e5e5;stroke-linecap:square;stroke-width:0.8;"/>
     </g>
     <g id="line2d_21">
      <g>
       <use style="stroke:#000000;stroke-width:0.8;" x="68.532813" xlink:href="#mcd5695c64f" y="225.56321"/>
      </g>
     </g>
     <g id="text_16">
      <!-- 0.08% -->
      <g transform="translate(31.985938 229.199929)scale(0.1 -0.1)">
       <defs>
        <path d="M 30.828125 -1 
Q 23.515625 -1 17.921875 1.609375 
Q 12.328125 4.21875 9.203125 8.8125 
Q 6.078125 13.421875 6.109375 19.3125 
Q 6.078125 23.9375 7.921875 27.859375 
Q 9.765625 31.78125 12.96875 34.421875 
Q 16.1875 37.078125 20.171875 37.78125 
L 20.171875 38.203125 
Q 14.953125 39.5625 11.859375 44.078125 
Q 8.765625 48.609375 8.8125 54.40625 
Q 8.765625 59.9375 11.609375 64.296875 
Q 14.453125 68.671875 19.4375 71.1875 
Q 24.4375 73.71875 30.828125 73.71875 
Q 37.140625 73.71875 42.109375 71.1875 
Q 47.09375 68.671875 49.953125 64.296875 
Q 52.8125 59.9375 52.84375 54.40625 
Q 52.8125 48.609375 49.703125 44.078125 
Q 46.59375 39.5625 41.484375 38.203125 
L 41.484375 37.78125 
Q 45.421875 37.078125 48.578125 34.421875 
Q 51.734375 31.78125 53.609375 27.859375 
Q 55.5 23.9375 55.546875 19.3125 
Q 55.5 13.421875 52.359375 8.8125 
Q 49.21875 4.21875 43.65625 1.609375 
Q 38.109375 -1 30.828125 -1 
z
M 30.828125 6.8125 
Q 38.21875 6.8125 42.53125 10.34375 
Q 46.84375 13.890625 46.875 19.75 
Q 46.84375 23.859375 44.75 27.015625 
Q 42.65625 30.1875 39.046875 32 
Q 35.4375 33.8125 30.828125 33.8125 
Q 26.171875 33.8125 22.53125 32 
Q 18.890625 30.1875 16.8125 27.015625 
Q 14.734375 23.859375 14.78125 19.75 
Q 14.734375 13.890625 19.03125 10.34375 
Q 23.328125 6.8125 30.828125 6.8125 
z
M 30.828125 41.328125 
Q 36.6875 41.328125 40.484375 44.75 
Q 44.28125 48.1875 44.3125 53.828125 
Q 44.28125 59.375 40.5625 62.703125 
Q 36.859375 66.046875 30.828125 66.046875 
Q 24.71875 66.046875 21 62.703125 
Q 17.296875 59.375 17.328125 53.828125 
Q 17.296875 48.1875 21.078125 44.75 
Q 24.859375 41.328125 30.828125 41.328125 
z
" id="Inter-Regular-56"/>
       </defs>
       <use xlink:href="#Inter-Regular-48"/>
       <use x="62.500015" xlink:href="#Inter-Regular-46"/>
       <use x="90.056839" xlink:href="#Inter-Regular-48"/>
       <use x="152.556854" xlink:href="#Inter-Regular-56"/>
       <use x="214.20459" xlink:href="#Inter-Regular-37"/>
      </g>
     </g>
    </g>
    <g id="ytick_6">
     <g id="line2d_22">
      <path clip-path="url(#paefb9d6556)" d="M 68.532813 162.767763 
L 738.132812 162.767763 
" style="fill:none;stroke:#e5e5e5;stroke-linecap:square;stroke-width:0.8;"/>
     </g>
     <g id="line2d_23">
      <g>
       <use style="stroke:#000000;stroke-width:0.8;" x="68.532813" xlink:href="#mcd5695c64f" y="162.767763"/>
      </g>
     </g>
     <g id="text_17">
      <!-- 0.10% -->
      <g transform="translate(33.734375 166.404481)scale(0.1 -0.1)">
       <use xlink:href="#Inter-Regular-48"/>
       <use x="62.500015" xlink:href="#Inter-Regular-46"/>
       <use x="90.056839" xlink:href="#Inter-Regular-49"/>
       <use x="134.232986" xlink:href="#Inter-Regular-48"/>
       <use x="196.733002" xlink:href="#Inter-Regular-37"/>
      </g>
     </g>
    </g>
    <g id="ytick_7">
     <g id="line2d_24">
      <path clip-path="url(#paefb9d6556)" d="M 68.532813 99.972315 
L 738.132812 99.972315 
" style="fill:none;stroke:#e5e5e5;stroke-linecap:square;stroke-width:0.8;"/>
     </g>
     <g id="line2d_25">
      <g>
       <use style="stroke:#000000;stroke-width:0.8;" x="68.532813" xlink:href="#mcd5695c64f" y="99.972315"/>
      </g>
     </g>
     <g id="text_18">
      <!-- 0.12% -->
      <g transform="translate(33.932813 103.609034)scale(0.1 -0.1)">
       <use xlink:href="#Inter-Regular-48"/>
       <use x="62.500015" xlink:href="#Inter-Regular-46"/>
       <use x="90.056839" xlink:href="#Inter-Regular-49"/>
       <use x="134.232986" xlink:href="#Inter-Regular-50"/>
       <use x="194.74437" xlink:href="#Inter-Regular-37"/>
      </g>
     </g>
    </g>
    <g id="ytick_8">
     <g id="line2d_26">
      <path clip-path="url(#paefb9d6556)" d="M 68.532813 37.176868 
L 738.132812 37.176868 
" style="fill:none;stroke:#e5e5e5;stroke-linecap:square;stroke-width:0.8;"/>
     </g>
     <g id="line2d_27">
      <g>
       <use style="stroke:#000000;stroke-width:0.8;" x="68.532813" xlink:href="#mcd5695c64f" y="37.176868"/>
      </g>
     </g>
     <g id="text_19">
      <!-- 0.14% -->
      <g transform="translate(33.564063 40.813586)scale(0.1 -0.1)">
       <use xlink:href="#Inter-Regular-48"/>
       <use x="62.500015" xlink:href="#Inter-Regular-46"/>
       <use x="90.056839" xlink:href="#Inter-Regular-49"/>
       <use x="134.232986" xlink:href="#Inter-Regular-52"/>
       <use x="198.437546" xlink:href="#Inter-Regular-37"/>
      </g>
     </g>
    </g>
    <g id="text_20">
     <!-- Percent of nation who have died within 28 days of a positive test -->
     <g transform="translate(25.614062 408.395938)rotate(-90)scale(0.1 -0.1)">
      <defs>
       <path d="M 8.8125 0 
L 8.8125 72.734375 
L 33.375 72.734375 
Q 41.9375 72.734375 47.390625 69.65625 
Q 52.84375 66.578125 55.46875 61.359375 
Q 58.09375 56.140625 58.09375 49.71875 
Q 58.09375 43.28125 55.484375 38.03125 
Q 52.875 32.78125 47.4375 29.671875 
Q 42.015625 26.5625 33.53125 26.5625 
L 17.609375 26.5625 
L 17.609375 0 
z
M 17.609375 34.375 
L 33.234375 34.375 
Q 42.015625 34.375 45.71875 38.78125 
Q 49.4375 43.1875 49.4375 49.71875 
Q 49.4375 56.28125 45.703125 60.59375 
Q 41.96875 64.921875 33.09375 64.921875 
L 17.609375 64.921875 
z
" id="Inter-Regular-80"/>
       <path d="M 31.96875 54.546875 
L 31.96875 47.4375 
L 19.75 47.4375 
L 19.75 0 
L 11.359375 0 
L 11.359375 47.4375 
L 2.5625 47.4375 
L 2.5625 54.546875 
L 11.359375 54.546875 
L 11.359375 62.078125 
Q 11.359375 66.765625 13.5625 69.890625 
Q 15.765625 73.015625 19.28125 74.578125 
Q 22.796875 76.140625 26.703125 76.140625 
Q 29.796875 76.140625 31.75 75.640625 
Q 33.703125 75.140625 34.65625 74.71875 
L 32.25 67.46875 
Q 31.609375 67.6875 30.484375 68 
Q 29.375 68.328125 27.5625 68.328125 
Q 23.40625 68.328125 21.578125 66.234375 
Q 19.75 64.140625 19.75 60.078125 
L 19.75 54.546875 
z
" id="Inter-Regular-102"/>
       <path d="M 7.671875 0 
L 7.671875 54.546875 
L 16.046875 54.546875 
L 16.046875 0 
z
M 11.9375 63.640625 
Q 9.484375 63.640625 7.71875 65.296875 
Q 5.96875 66.96875 5.96875 69.3125 
Q 5.96875 71.65625 7.71875 73.328125 
Q 9.484375 75 11.9375 75 
Q 14.390625 75 16.140625 73.328125 
Q 17.90625 71.65625 17.90625 69.3125 
Q 17.90625 66.96875 16.140625 65.296875 
Q 14.390625 63.640625 11.9375 63.640625 
z
" id="Inter-Regular-105"/>
       <path d="M 20.03125 0 
L 3.40625 54.546875 
L 12.21875 54.546875 
L 24 12.78125 
L 24.578125 12.78125 
L 36.21875 54.546875 
L 45.171875 54.546875 
L 56.671875 12.921875 
L 57.25 12.921875 
L 69.03125 54.546875 
L 77.84375 54.546875 
L 61.21875 0 
L 52.984375 0 
L 41.046875 41.90625 
L 40.203125 41.90625 
L 28.265625 0 
z
" id="Inter-Regular-119"/>
       <path d="M 16.046875 32.8125 
L 16.046875 0 
L 7.671875 0 
L 7.671875 72.734375 
L 16.046875 72.734375 
L 16.046875 46.015625 
L 16.765625 46.015625 
Q 18.6875 50.25 22.53125 52.75 
Q 26.390625 55.25 32.8125 55.25 
Q 41.1875 55.25 46.296875 50.203125 
Q 51.421875 45.171875 51.421875 34.65625 
L 51.421875 0 
L 43.046875 0 
L 43.046875 34.09375 
Q 43.046875 40.59375 39.6875 44.15625 
Q 36.328125 47.734375 30.40625 47.734375 
Q 24.1875 47.734375 20.109375 43.84375 
Q 16.046875 39.953125 16.046875 32.8125 
z
" id="Inter-Regular-104"/>
       <path d="M 28.265625 -1.140625 
Q 21.453125 -1.140625 16.234375 2.3125 
Q 11.015625 5.78125 8.0625 12.125 
Q 5.109375 18.46875 5.109375 27.125 
Q 5.109375 35.71875 8.0625 42.03125 
Q 11.015625 48.359375 16.265625 51.796875 
Q 21.515625 55.25 28.40625 55.25 
Q 33.734375 55.25 36.84375 53.484375 
Q 39.953125 51.734375 41.59375 49.515625 
Q 43.25 47.296875 44.171875 45.875 
L 44.890625 45.875 
L 44.890625 72.734375 
L 53.265625 72.734375 
L 53.265625 0 
L 45.171875 0 
L 45.171875 8.375 
L 44.171875 8.375 
Q 43.25 6.890625 41.546875 4.625 
Q 39.84375 2.375 36.6875 0.609375 
Q 33.53125 -1.140625 28.265625 -1.140625 
z
M 29.40625 6.390625 
Q 36.96875 6.390625 41 12.1875 
Q 45.03125 18 45.03125 27.265625 
Q 45.03125 36.4375 41.046875 42.078125 
Q 37.078125 47.734375 29.40625 47.734375 
Q 24.078125 47.734375 20.546875 45.015625 
Q 17.015625 42.296875 15.25 37.65625 
Q 13.5 33.03125 13.5 27.265625 
Q 13.5 21.453125 15.28125 16.703125 
Q 17.078125 11.96875 20.609375 9.171875 
Q 24.15625 6.390625 29.40625 6.390625 
z
" id="Inter-Regular-100"/>
       <path d="M 46.3125 42.328125 
L 38.78125 40.203125 
Q 37.671875 43.046875 35.078125 45.53125 
Q 32.5 48.015625 26.984375 48.015625 
Q 21.984375 48.015625 18.65625 45.71875 
Q 15.34375 43.4375 15.34375 39.921875 
Q 15.34375 36.796875 17.609375 34.984375 
Q 19.890625 33.171875 24.71875 31.953125 
L 32.8125 29.96875 
Q 47.296875 26.421875 47.296875 15.203125 
Q 47.296875 10.515625 44.609375 6.8125 
Q 41.9375 3.125 37.140625 0.984375 
Q 32.359375 -1.140625 26 -1.140625 
Q 17.65625 -1.140625 12.1875 2.484375 
Q 6.71875 6.109375 5.25 13.0625 
L 13.21875 15.0625 
Q 15.453125 6.25 25.859375 6.25 
Q 31.71875 6.25 35.171875 8.75 
Q 38.640625 11.25 38.640625 14.765625 
Q 38.640625 20.5625 30.546875 22.4375 
L 21.453125 24.578125 
Q 13.953125 26.34375 10.453125 30.09375 
Q 6.96875 33.84375 6.96875 39.484375 
Q 6.96875 44.109375 9.578125 47.65625 
Q 12.1875 51.203125 16.703125 53.21875 
Q 21.234375 55.25 26.984375 55.25 
Q 35.09375 55.25 39.71875 51.703125 
Q 44.359375 48.15625 46.3125 42.328125 
z
" id="Inter-Regular-115"/>
      </defs>
      <use xlink:href="#Inter-Regular-80"/>
      <use x="63.494324" xlink:href="#Inter-Regular-101"/>
      <use x="121.732971" xlink:href="#Inter-Regular-114"/>
      <use x="160.085251" xlink:href="#Inter-Regular-99"/>
      <use x="215.909119" xlink:href="#Inter-Regular-101"/>
      <use x="274.147766" xlink:href="#Inter-Regular-110"/>
      <use x="332.670502" xlink:href="#Inter-Regular-116"/>
      <use x="369.034149" xlink:href="#Inter-Regular-32"/>
      <use x="397.159149" xlink:href="#Inter-Regular-111"/>
      <use x="456.818253" xlink:href="#Inter-Regular-102"/>
      <use x="492.897797" xlink:href="#Inter-Regular-32"/>
      <use x="521.022797" xlink:href="#Inter-Regular-110"/>
      <use x="579.545532" xlink:href="#Inter-Regular-97"/>
      <use x="635.937592" xlink:href="#Inter-Regular-116"/>
      <use x="672.301239" xlink:href="#Inter-Regular-105"/>
      <use x="696.022827" xlink:href="#Inter-Regular-111"/>
      <use x="755.681931" xlink:href="#Inter-Regular-110"/>
      <use x="814.204666" xlink:href="#Inter-Regular-32"/>
      <use x="842.329666" xlink:href="#Inter-Regular-119"/>
      <use x="923.579681" xlink:href="#Inter-Regular-104"/>
      <use x="982.670609" xlink:href="#Inter-Regular-111"/>
      <use x="1042.329712" xlink:href="#Inter-Regular-32"/>
      <use x="1070.454712" xlink:href="#Inter-Regular-104"/>
      <use x="1129.545639" xlink:href="#Inter-Regular-97"/>
      <use x="1185.937698" xlink:href="#Inter-Regular-118"/>
      <use x="1241.619522" xlink:href="#Inter-Regular-101"/>
      <use x="1299.85817" xlink:href="#Inter-Regular-32"/>
      <use x="1327.98317" xlink:href="#Inter-Regular-100"/>
      <use x="1390.057053" xlink:href="#Inter-Regular-105"/>
      <use x="1413.778641" xlink:href="#Inter-Regular-101"/>
      <use x="1472.017288" xlink:href="#Inter-Regular-100"/>
      <use x="1534.091171" xlink:href="#Inter-Regular-32"/>
      <use x="1562.216171" xlink:href="#Inter-Regular-119"/>
      <use x="1643.466187" xlink:href="#Inter-Regular-105"/>
      <use x="1667.187775" xlink:href="#Inter-Regular-116"/>
      <use x="1703.551422" xlink:href="#Inter-Regular-104"/>
      <use x="1762.642349" xlink:href="#Inter-Regular-105"/>
      <use x="1786.363937" xlink:href="#Inter-Regular-110"/>
      <use x="1844.886673" xlink:href="#Inter-Regular-32"/>
      <use x="1873.011673" xlink:href="#Inter-Regular-50"/>
      <use x="1933.523056" xlink:href="#Inter-Regular-56"/>
      <use x="1995.170792" xlink:href="#Inter-Regular-32"/>
      <use x="2023.295792" xlink:href="#Inter-Regular-100"/>
      <use x="2085.369675" xlink:href="#Inter-Regular-97"/>
      <use x="2141.761734" xlink:href="#Inter-Regular-121"/>
      <use x="2197.443558" xlink:href="#Inter-Regular-115"/>
      <use x="2249.716293" xlink:href="#Inter-Regular-32"/>
      <use x="2277.841293" xlink:href="#Inter-Regular-111"/>
      <use x="2337.500397" xlink:href="#Inter-Regular-102"/>
      <use x="2373.579941" xlink:href="#Inter-Regular-32"/>
      <use x="2401.704941" xlink:href="#Inter-Regular-97"/>
      <use x="2458.097" xlink:href="#Inter-Regular-32"/>
      <use x="2486.222" xlink:href="#Inter-Regular-112"/>
      <use x="2547.159515" xlink:href="#Inter-Regular-111"/>
      <use x="2606.818619" xlink:href="#Inter-Regular-115"/>
      <use x="2659.091354" xlink:href="#Inter-Regular-105"/>
      <use x="2682.812943" xlink:href="#Inter-Regular-116"/>
      <use x="2719.17659" xlink:href="#Inter-Regular-105"/>
      <use x="2742.898178" xlink:href="#Inter-Regular-118"/>
      <use x="2798.580002" xlink:href="#Inter-Regular-101"/>
      <use x="2856.818649" xlink:href="#Inter-Regular-32"/>
      <use x="2884.943649" xlink:href="#Inter-Regular-116"/>
      <use x="2921.307297" xlink:href="#Inter-Regular-101"/>
      <use x="2979.545944" xlink:href="#Inter-Regular-115"/>
      <use x="3031.81868" xlink:href="#Inter-Regular-116"/>
     </g>
    </g>
   </g>
   <g id="line2d_28">
    <path clip-path="url(#paefb9d6556)" d="M 66.464423 476.745 
L 87.148314 476.650171 
L 93.353482 476.449358 
L 97.49026 476.159294 
L 101.627038 475.646104 
L 105.763816 474.898632 
L 109.900595 473.677016 
L 114.037373 471.85296 
L 116.105762 470.631345 
L 118.174151 469.080619 
L 120.24254 467.20636 
L 124.379318 462.972542 
L 126.447707 460.378701 
L 128.516097 457.377655 
L 130.584486 454.01403 
L 134.721264 446.04285 
L 136.789653 441.898283 
L 145.063209 423.027394 
L 147.131598 417.588696 
L 153.336766 403.163594 
L 155.405155 398.377539 
L 159.541933 389.591949 
L 163.678711 381.029486 
L 167.81549 372.941165 
L 174.020657 361.678876 
L 176.089046 358.092124 
L 182.294213 348.324779 
L 184.362602 345.201014 
L 190.56777 336.844942 
L 194.704548 331.473181 
L 196.772937 329.113623 
L 200.909715 324.656679 
L 207.114883 318.057725 
L 211.251661 314.376145 
L 213.32005 312.702699 
L 219.525217 308.295959 
L 225.730384 303.755343 
L 227.798774 302.516993 
L 231.935552 299.817167 
L 234.003941 298.51188 
L 240.209108 295.192879 
L 244.345886 293.268417 
L 248.482665 291.26586 
L 252.619443 289.341397 
L 254.687832 288.532565 
L 258.82461 287.227278 
L 262.961388 285.587301 
L 267.098167 284.304326 
L 271.234945 283.127336 
L 273.303334 282.508161 
L 281.57689 280.695261 
L 283.645279 280.399619 
L 287.782058 279.635413 
L 291.918836 278.954878 
L 298.124003 278.07353 
L 302.260781 277.487824 
L 310.534338 276.238318 
L 322.944672 275.011124 
L 347.765342 273.376726 
L 356.038898 273.019724 
L 378.791178 272.249939 
L 469.800299 270.22507 
L 488.415801 269.243315 
L 492.552579 268.919782 
L 496.689357 268.445639 
L 502.894524 267.854355 
L 511.168081 266.772193 
L 517.373248 265.812751 
L 521.510026 265.143373 
L 525.646805 264.267603 
L 527.715194 263.893867 
L 535.98875 261.796482 
L 538.057139 261.238666 
L 542.193917 259.860863 
L 544.262307 258.968359 
L 546.330696 258.29898 
L 550.467474 256.45819 
L 556.672641 253.306534 
L 558.74103 252.35267 
L 562.877809 249.976377 
L 567.014587 247.43274 
L 569.082976 246.04378 
L 581.49331 236.599968 
L 583.5617 234.920944 
L 589.766867 229.314901 
L 591.835256 227.066906 
L 598.040423 221.611473 
L 606.31398 213.495261 
L 608.382369 211.470392 
L 610.450758 209.038318 
L 622.861093 195.712112 
L 624.929482 193.369288 
L 637.339816 180.957899 
L 639.408205 179.078062 
L 643.544984 174.543024 
L 649.750151 168.702699 
L 662.160486 156.135122 
L 666.297264 151.706069 
L 668.365653 149.709091 
L 672.502431 144.895145 
L 676.639209 140.242966 
L 686.981155 126.459352 
L 695.254711 113.702118 
L 701.459879 103.237504 
L 705.596657 96.130938 
L 707.665046 91.991949 
L 711.801824 83.156156 
L 713.870213 78.470508 
L 715.938602 74.063768 
L 720.07538 64.642269 
L 724.212159 54.345 
L 724.212159 54.345 
" style="fill:none;stroke:#5694ca;stroke-linecap:square;stroke-width:2;"/>
   </g>
   <g id="line2d_29">
    <path clip-path="url(#paefb9d6556)" d="M 66.464423 476.745 
L 101.627038 476.745 
L 105.763816 476.413392 
L 107.832205 476.413392 
L 111.968984 476.081785 
L 114.037373 475.252766 
L 116.105762 474.921158 
L 118.174151 474.257943 
L 120.24254 473.926335 
L 122.310929 473.428923 
L 124.379318 472.102493 
L 128.516097 470.776062 
L 130.584486 469.947043 
L 132.652875 469.283828 
L 136.789653 465.967751 
L 138.858042 464.475517 
L 140.926431 462.651675 
L 142.99482 461.656852 
L 145.063209 460.330421 
L 147.131598 459.667206 
L 149.199988 456.682737 
L 153.336766 453.035053 
L 155.405155 450.382191 
L 157.473544 449.221565 
L 159.541933 447.231919 
L 161.610322 444.579057 
L 163.678711 442.755215 
L 165.7471 441.262981 
L 169.883879 437.946904 
L 171.952268 435.957258 
L 174.020657 433.801809 
L 176.089046 430.651536 
L 178.157435 427.998675 
L 180.225824 426.174832 
L 184.362602 421.366521 
L 186.430991 419.211072 
L 188.499381 418.216249 
L 190.56777 415.894995 
L 192.636159 414.568565 
L 196.772937 410.589273 
L 198.841326 408.765431 
L 200.909715 407.273196 
L 202.978104 406.278373 
L 207.114883 405.28355 
L 209.183272 404.288727 
L 211.251661 403.1281 
L 213.32005 401.470062 
L 215.388439 401.138454 
L 217.456828 400.475239 
L 219.525217 399.977828 
L 221.593606 398.319789 
L 223.661995 397.822378 
L 225.730384 397.159163 
L 229.867163 394.837909 
L 234.003941 393.179871 
L 236.07233 392.516655 
L 238.140719 392.350852 
L 240.209108 392.019244 
L 242.277497 390.858617 
L 246.414275 390.527009 
L 248.482665 389.863794 
L 250.551054 389.366383 
L 252.619443 389.200579 
L 254.687832 388.868971 
L 258.82461 388.537364 
L 262.961388 387.874148 
L 265.029777 387.874148 
L 267.098167 387.708344 
L 277.440112 387.708344 
L 279.508501 387.376737 
L 283.645279 387.045129 
L 287.782058 387.045129 
L 296.055614 386.381914 
L 300.192392 386.381914 
L 304.32917 386.050306 
L 306.39756 386.050306 
L 308.465949 385.884502 
L 310.534338 385.552895 
L 314.671116 385.552895 
L 316.739505 385.387091 
L 318.807894 385.387091 
L 320.876283 385.221287 
L 322.944672 385.221287 
L 325.013061 384.889679 
L 335.355007 384.889679 
L 337.423396 384.723876 
L 341.560174 384.723876 
L 343.628563 384.558072 
L 397.40668 384.558072 
L 399.475069 384.392268 
L 407.748626 384.392268 
L 409.817015 384.226464 
L 411.885404 384.226464 
L 413.953793 384.06066 
L 432.569295 384.06066 
L 434.637684 383.894856 
L 438.774462 383.894856 
L 440.842851 383.729053 
L 447.048019 383.729053 
L 449.116408 383.563249 
L 451.184797 383.563249 
L 453.253186 383.231641 
L 455.321575 383.231641 
L 457.389964 383.065837 
L 459.458353 383.065837 
L 461.526742 382.73423 
L 465.663521 382.73423 
L 467.73191 382.568426 
L 469.800299 382.236818 
L 473.937077 382.236818 
L 478.073855 381.90521 
L 480.142244 381.573603 
L 482.210633 381.573603 
L 484.279023 381.407799 
L 486.347412 381.076191 
L 496.689357 381.076191 
L 498.757746 380.910387 
L 502.894524 380.910387 
L 504.962914 380.744584 
L 507.031303 380.744584 
L 511.168081 380.412976 
L 513.23647 380.081368 
L 515.304859 379.915564 
L 517.373248 379.915564 
L 523.578416 379.418153 
L 529.783583 379.418153 
L 531.851972 378.42333 
L 533.920361 377.594311 
L 535.98875 376.931096 
L 538.057139 376.599488 
L 540.125528 375.936273 
L 542.193917 375.604665 
L 544.262307 375.107253 
L 546.330696 373.946627 
L 548.399085 373.283411 
L 550.467474 372.786 
L 552.535863 371.791177 
L 554.604252 371.127962 
L 556.672641 370.133139 
L 558.74103 368.806708 
L 560.809419 367.811885 
L 562.877809 365.988043 
L 564.946198 364.330005 
L 567.014587 362.83777 
L 569.082976 360.516517 
L 571.151365 359.024282 
L 573.219754 357.863655 
L 575.288143 356.205617 
L 577.356532 355.376598 
L 579.424921 353.386952 
L 581.49331 351.728914 
L 583.5617 350.568287 
L 585.630089 348.08123 
L 587.698478 346.920603 
L 591.835256 343.604526 
L 593.903645 342.278096 
L 595.972034 340.122646 
L 598.040423 338.464608 
L 600.108812 336.640765 
L 604.245591 332.329866 
L 606.31398 330.837631 
L 608.382369 329.013789 
L 610.450758 327.355751 
L 614.587536 323.044852 
L 616.655925 321.884225 
L 618.724314 320.889402 
L 620.792703 319.562971 
L 622.861093 318.402344 
L 624.929482 316.744306 
L 626.997871 315.417875 
L 631.134649 311.770191 
L 633.203038 310.443761 
L 635.271427 308.454115 
L 639.408205 305.801253 
L 641.476594 304.80643 
L 643.544984 303.645804 
L 645.613373 301.656158 
L 647.681762 299.832316 
L 649.750151 297.013651 
L 651.81854 295.853024 
L 653.886929 294.360789 
L 655.955318 292.20534 
L 658.023707 290.713105 
L 660.092096 289.552478 
L 662.160486 288.723459 
L 666.297264 286.733813 
L 668.365653 284.578363 
L 670.434042 282.25711 
L 672.502431 280.599072 
L 674.57082 278.112014 
L 676.639209 276.122368 
L 678.707598 273.303703 
L 680.775987 271.645665 
L 684.912766 266.67155 
L 686.981155 265.510923 
L 689.049544 263.852885 
L 691.117933 261.531631 
L 693.186322 260.205201 
L 695.254711 258.381359 
L 697.3231 256.225909 
L 699.391489 254.567871 
L 701.459879 252.412421 
L 703.528268 250.091167 
L 705.596657 248.267325 
L 707.665046 246.111875 
L 709.733435 244.951249 
L 711.801824 243.127406 
L 713.870213 239.645526 
L 715.938602 237.987488 
L 718.006991 234.671411 
L 720.07538 232.01855 
L 722.14377 228.370866 
L 724.212159 225.386397 
L 724.212159 225.386397 
" style="fill:none;stroke:#ffdd00;stroke-linecap:square;stroke-width:2;"/>
   </g>
   <g id="line2d_30">
    <path clip-path="url(#paefb9d6556)" d="M 66.464423 476.745 
L 93.353482 476.68753 
L 95.421871 476.572589 
L 99.558649 476.515119 
L 101.627038 476.400178 
L 103.695427 476.400178 
L 105.763816 476.227768 
L 114.037373 475.078363 
L 116.105762 474.676071 
L 122.310929 472.837023 
L 124.379318 471.170385 
L 126.447707 470.02098 
L 128.516097 468.469283 
L 130.584486 466.285414 
L 132.652875 463.756723 
L 134.721264 461.687794 
L 136.789653 458.411989 
L 138.858042 456.860292 
L 140.926431 454.331601 
L 142.99482 450.768445 
L 145.063209 448.067343 
L 147.131598 445.07889 
L 149.199988 441.458264 
L 153.336766 435.308947 
L 155.405155 432.665315 
L 157.473544 430.423975 
L 159.541933 427.550463 
L 163.678711 422.837902 
L 165.7471 420.711503 
L 167.81549 417.78052 
L 169.883879 415.251828 
L 171.952268 411.746143 
L 174.020657 408.87263 
L 176.089046 406.343939 
L 178.157435 403.585367 
L 180.225824 401.401497 
L 182.294213 398.700395 
L 184.362602 396.229174 
L 186.430991 392.780959 
L 188.499381 390.482149 
L 190.56777 388.35575 
L 192.636159 385.884529 
L 194.704548 383.125957 
L 196.772937 380.597265 
L 198.841326 378.528336 
L 200.909715 376.229526 
L 202.978104 373.356013 
L 205.046493 370.884793 
L 207.114883 368.643453 
L 211.251661 364.735475 
L 213.32005 363.183779 
L 217.456828 359.678093 
L 219.525217 357.264342 
L 221.593606 355.310354 
L 223.661995 353.931068 
L 227.798774 350.827674 
L 229.867163 349.505858 
L 231.935552 347.896691 
L 236.07233 345.368 
L 238.140719 344.448476 
L 240.209108 343.931244 
L 242.277497 343.528952 
L 248.482665 341.057731 
L 250.551054 340.138207 
L 252.619443 339.506034 
L 256.756221 338.816391 
L 258.82461 338.64398 
L 260.892999 338.299159 
L 262.961388 337.839397 
L 265.029777 337.724456 
L 267.098167 337.207224 
L 269.166556 337.034813 
L 271.234945 336.632521 
L 273.303334 336.34517 
L 275.371723 336.2877 
L 277.440112 336.000349 
L 283.645279 335.598057 
L 293.987225 334.506122 
L 296.055614 334.506122 
L 302.260781 334.04636 
L 308.465949 333.931419 
L 310.534338 333.931419 
L 312.602727 333.701538 
L 318.807894 333.586598 
L 327.081451 333.529128 
L 331.218229 333.471657 
L 426.364128 333.414187 
L 432.569295 333.299247 
L 449.116408 333.241776 
L 457.389964 333.069366 
L 473.937077 333.011895 
L 476.005466 332.839485 
L 482.210633 332.782014 
L 488.415801 332.552133 
L 496.689357 332.149842 
L 500.826135 331.977431 
L 507.031303 331.632609 
L 511.168081 331.172847 
L 515.304859 331.000436 
L 517.373248 330.828026 
L 519.441637 330.828026 
L 521.510026 330.655615 
L 523.578416 330.195853 
L 525.646805 329.56368 
L 527.715194 329.218859 
L 531.851972 328.126924 
L 533.920361 327.724632 
L 535.98875 327.092459 
L 538.057139 326.747638 
L 542.193917 324.90859 
L 544.262307 324.391357 
L 546.330696 323.184482 
L 550.467474 321.402904 
L 552.535863 320.770731 
L 558.74103 317.724808 
L 560.809419 316.517932 
L 562.877809 314.851295 
L 564.946198 313.989241 
L 569.082976 311.058258 
L 571.151365 309.046799 
L 573.219754 307.667513 
L 575.288143 305.713525 
L 577.356532 304.161828 
L 579.424921 302.26531 
L 581.49331 301.173375 
L 583.5617 299.046975 
L 585.630089 297.552749 
L 589.766867 293.529831 
L 591.835256 291.345961 
L 600.108812 283.644947 
L 602.177201 281.461078 
L 608.382369 275.656582 
L 610.450758 274.392236 
L 612.519147 272.89801 
L 614.587536 271.231373 
L 616.655925 269.334854 
L 618.724314 267.265925 
L 624.929482 262.036132 
L 629.06626 259.44997 
L 631.134649 257.208631 
L 633.203038 255.714404 
L 635.271427 253.932826 
L 637.339816 252.381129 
L 639.408205 251.289194 
L 641.476594 249.335206 
L 643.544984 247.726039 
L 645.613373 246.634104 
L 651.81854 241.806603 
L 655.955318 239.220441 
L 658.023707 238.071036 
L 660.092096 236.74922 
L 662.160486 235.254994 
L 668.365653 229.91026 
L 670.434042 227.956271 
L 672.502431 226.634456 
L 680.775987 220.427668 
L 682.844377 218.53115 
L 686.981155 214.508232 
L 691.117933 210.887606 
L 693.186322 209.163498 
L 695.254711 207.784212 
L 697.3231 205.945164 
L 699.391489 203.473943 
L 701.459879 201.519955 
L 703.528268 199.336085 
L 705.596657 196.979805 
L 709.733435 192.956887 
L 713.870213 187.727094 
L 715.938602 185.428284 
L 718.006991 183.416825 
L 720.07538 180.255961 
L 724.212159 175.370989 
L 724.212159 175.370989 
" style="fill:none;stroke:#003078;stroke-linecap:square;stroke-width:2;"/>
   </g>
   <g id="line2d_31">
    <path clip-path="url(#paefb9d6556)" d="M 66.464423 476.745 
L 97.49026 476.745 
L 99.558649 476.446247 
L 103.695427 476.446247 
L 107.832205 475.948326 
L 109.900595 475.251236 
L 114.037373 474.354977 
L 118.174151 472.462875 
L 122.310929 470.371605 
L 124.379318 468.877841 
L 126.447707 467.085323 
L 130.584486 463.99821 
L 132.652875 461.90694 
L 136.789653 456.230635 
L 140.926431 450.155993 
L 142.99482 448.164307 
L 145.063209 444.977609 
L 149.199988 436.512944 
L 151.268377 434.023337 
L 153.336766 430.936224 
L 155.405155 427.251605 
L 157.473544 422.96948 
L 159.541933 420.380288 
L 161.610322 416.596085 
L 163.678711 413.110634 
L 165.7471 410.22269 
L 167.81549 407.035992 
L 171.952268 401.957193 
L 174.020657 398.969664 
L 176.089046 396.679226 
L 178.157435 394.886708 
L 182.294213 388.91165 
L 188.499381 384.231188 
L 190.56777 381.641997 
L 192.636159 380.048648 
L 194.704548 377.160703 
L 198.841326 374.372343 
L 200.909715 372.081904 
L 202.978104 370.388971 
L 205.046493 368.098532 
L 207.114883 366.206431 
L 209.183272 364.911835 
L 211.251661 364.214745 
L 213.32005 363.218902 
L 215.388439 361.725137 
L 217.456828 360.62971 
L 219.525217 359.036361 
L 221.593606 357.84135 
L 223.661995 356.248001 
L 225.730384 354.953405 
L 231.935552 351.766708 
L 234.003941 351.069618 
L 240.209108 348.480426 
L 242.277497 347.285414 
L 246.414275 345.293729 
L 248.482665 344.696223 
L 250.551054 343.102874 
L 254.687832 341.011604 
L 256.756221 340.314514 
L 258.82461 339.418255 
L 260.892999 338.920334 
L 262.961388 338.223243 
L 265.029777 337.028232 
L 267.098167 336.629895 
L 271.234945 334.936962 
L 273.303334 334.239872 
L 275.371723 333.841534 
L 277.440112 333.144444 
L 283.645279 331.65068 
L 289.850447 329.55941 
L 293.987225 329.459825 
L 300.192392 328.264814 
L 304.32917 327.966061 
L 306.39756 327.368555 
L 308.465949 326.472296 
L 310.534338 326.273128 
L 312.602727 325.675622 
L 316.739505 325.177701 
L 322.944672 324.082273 
L 325.013061 324.082273 
L 333.286618 323.385183 
L 341.560174 323.08643 
L 343.628563 323.08643 
L 347.765342 322.787677 
L 360.175676 322.688093 
L 374.6544 321.891419 
L 376.722789 321.69225 
L 378.791178 321.293913 
L 380.859567 321.094744 
L 382.927956 320.696407 
L 391.201513 319.800149 
L 393.269902 319.501396 
L 395.338291 319.501396 
L 397.40668 319.003474 
L 399.475069 318.804306 
L 401.543458 318.804306 
L 403.611847 318.605137 
L 407.748626 318.505553 
L 413.953793 318.306384 
L 418.090571 318.306384 
L 420.15896 318.107216 
L 430.500906 318.007631 
L 434.637684 317.908047 
L 444.97963 317.908047 
L 447.048019 317.708878 
L 467.73191 317.609294 
L 473.937077 317.410125 
L 476.005466 317.410125 
L 482.210633 316.81262 
L 488.415801 316.713035 
L 490.48419 316.613451 
L 494.620968 316.015945 
L 498.757746 315.916361 
L 502.894524 315.41844 
L 507.031303 314.721349 
L 513.23647 313.625922 
L 515.304859 312.829248 
L 517.373248 312.530495 
L 519.441637 311.534652 
L 521.510026 311.136315 
L 523.578416 310.040888 
L 527.715194 308.845876 
L 531.851972 308.148786 
L 533.920361 307.750449 
L 538.057139 306.256684 
L 542.193917 304.962088 
L 544.262307 304.563751 
L 546.330696 303.468324 
L 548.399085 302.173728 
L 550.467474 301.775391 
L 552.535863 300.480795 
L 554.604252 297.692435 
L 556.672641 296.597007 
L 562.877809 292.01613 
L 564.946198 289.725691 
L 567.014587 288.630264 
L 569.082976 286.538994 
L 571.151365 285.144813 
L 573.219754 283.949802 
L 575.288143 281.161442 
L 577.356532 279.468508 
L 581.49331 274.987215 
L 583.5617 271.900102 
L 585.630089 269.31091 
L 587.698478 267.817146 
L 595.972034 256.364952 
L 598.040423 253.576591 
L 600.108812 250.589062 
L 602.177201 248.696961 
L 604.245591 246.207353 
L 606.31398 243.916915 
L 608.382369 241.02897 
L 610.450758 239.236453 
L 612.519147 236.746845 
L 614.587536 234.655575 
L 616.655925 232.165968 
L 618.724314 229.477192 
L 620.792703 226.987584 
L 624.929482 223.502134 
L 626.997871 220.514605 
L 629.06626 217.925413 
L 631.134649 214.738716 
L 633.203038 212.249108 
L 635.271427 210.556175 
L 637.339816 208.664074 
L 639.408205 206.473219 
L 643.544984 201.195251 
L 645.613373 199.203565 
L 647.681762 196.713958 
L 649.750151 194.722272 
L 653.886929 189.643473 
L 655.955318 186.456775 
L 658.023707 183.867584 
L 660.092096 180.581302 
L 662.160486 178.390447 
L 664.228875 175.402919 
L 668.365653 168.830355 
L 672.502431 159.469431 
L 676.639209 152.598115 
L 680.775987 145.428045 
L 682.844377 142.042179 
L 684.912766 137.560886 
L 686.981155 134.374188 
L 689.049544 130.191648 
L 691.117933 127.403288 
L 693.186322 122.523657 
L 695.254711 118.440701 
L 699.391489 108.68144 
L 701.459879 103.204304 
L 703.528268 100.11719 
L 705.596657 95.038391 
L 709.733435 87.669153 
L 711.801824 83.18786 
L 713.870213 79.403657 
L 715.938602 75.021948 
L 718.006991 72.134003 
L 720.07538 68.648553 
L 722.14377 63.768922 
L 724.212159 59.78555 
L 724.212159 59.78555 
" style="fill:none;stroke:#d4351c;stroke-linecap:square;stroke-width:2;"/>
   </g>
   <g id="patch_3">
    <path d="M 68.532813 476.745 
L 738.132813 476.745 
" style="fill:none;stroke:#000000;stroke-linecap:square;stroke-linejoin:miter;stroke-width:0.8;"/>
   </g>
   <g id="text_21">
    <!-- Cumulative deaths within 4 weeks of a positive COVID-19 test, per capita -->
    <g transform="translate(188.656563 27.225)scale(0.12 -0.12)">
     <defs>
      <path d="M 70.484375 47.265625 
L 54.9375 47.265625 
Q 54.046875 53.265625 49.8125 56.6875 
Q 45.59375 60.125 39.28125 60.125 
Q 30.828125 60.125 25.734375 53.921875 
Q 20.640625 47.734375 20.640625 36.359375 
Q 20.640625 24.71875 25.765625 18.65625 
Q 30.890625 12.609375 39.171875 12.609375 
Q 45.3125 12.609375 49.578125 15.8125 
Q 53.84375 19.03125 54.9375 24.859375 
L 70.484375 24.78125 
Q 69.671875 18.109375 65.734375 12.21875 
Q 61.796875 6.328125 55.03125 2.65625 
Q 48.265625 -1 38.921875 -1 
Q 29.1875 -1 21.53125 3.40625 
Q 13.890625 7.8125 9.46875 16.15625 
Q 5.046875 24.5 5.046875 36.359375 
Q 5.046875 48.265625 9.515625 56.609375 
Q 14 64.953125 21.65625 69.328125 
Q 29.328125 73.71875 38.921875 73.71875 
Q 47.34375 73.71875 54.109375 70.609375 
Q 60.875 67.5 65.1875 61.59375 
Q 69.5 55.6875 70.484375 47.265625 
z
" id="Inter-Bold-67"/>
      <path d="M 41.015625 23.21875 
L 41.015625 54.546875 
L 56.140625 54.546875 
L 56.140625 0 
L 41.625 0 
L 41.625 9.90625 
L 41.046875 9.90625 
Q 39.203125 5.109375 34.921875 2.203125 
Q 30.640625 -0.703125 24.5 -0.703125 
Q 16.265625 -0.703125 11.171875 4.78125 
Q 6.078125 10.265625 6.03125 19.8125 
L 6.03125 54.546875 
L 21.171875 54.546875 
L 21.171875 22.515625 
Q 21.203125 17.6875 23.75 14.875 
Q 26.3125 12.078125 30.609375 12.078125 
Q 34.703125 12.078125 37.875 14.90625 
Q 41.046875 17.75 41.015625 23.21875 
z
" id="Inter-Bold-117"/>
      <path d="M 6.03125 0 
L 6.03125 54.546875 
L 20.453125 54.546875 
L 20.453125 44.921875 
L 21.09375 44.921875 
Q 22.796875 49.75 26.796875 52.5 
Q 30.796875 55.25 36.296875 55.25 
Q 41.90625 55.25 45.84375 52.46875 
Q 49.78125 49.6875 51.109375 44.921875 
L 51.671875 44.921875 
Q 53.34375 49.609375 57.71875 52.421875 
Q 62.109375 55.25 68.109375 55.25 
Q 75.75 55.25 80.515625 50.40625 
Q 85.296875 45.5625 85.296875 36.6875 
L 85.296875 0 
L 70.203125 0 
L 70.203125 33.703125 
Q 70.203125 38.25 67.78125 40.515625 
Q 65.375 42.796875 61.75 42.796875 
Q 57.640625 42.796875 55.328125 40.15625 
Q 53.015625 37.53125 53.015625 33.3125 
L 53.015625 0 
L 38.359375 0 
L 38.359375 34.015625 
Q 38.359375 38.03125 36.0625 40.40625 
Q 33.765625 42.796875 30.046875 42.796875 
Q 26.28125 42.796875 23.71875 40.03125 
Q 21.171875 37.28125 21.171875 32.734375 
L 21.171875 0 
z
" id="Inter-Bold-109"/>
      <path d="M 21.171875 72.734375 
L 21.171875 0 
L 6.03125 0 
L 6.03125 72.734375 
z
" id="Inter-Bold-108"/>
      <path d="M 21.59375 -1.03125 
Q 13.78125 -1.03125 8.625 3.046875 
Q 3.484375 7.140625 3.484375 15.234375 
Q 3.484375 21.34375 6.359375 24.8125 
Q 9.234375 28.296875 13.90625 29.90625 
Q 18.578125 31.53125 23.96875 32.03125 
Q 31.078125 32.734375 34.125 33.515625 
Q 37.1875 34.296875 37.1875 36.9375 
L 37.1875 37.140625 
Q 37.1875 40.515625 35.0625 42.359375 
Q 32.953125 44.21875 29.078125 44.21875 
Q 25 44.21875 22.578125 42.4375 
Q 20.171875 40.65625 19.390625 37.921875 
L 5.40625 39.0625 
Q 6.96875 46.515625 13.15625 50.875 
Q 19.359375 55.25 29.15625 55.25 
Q 35.234375 55.25 40.515625 53.328125 
Q 45.8125 51.421875 49.0625 47.34375 
Q 52.3125 43.28125 52.3125 36.796875 
L 52.3125 0 
L 37.96875 0 
L 37.96875 7.5625 
L 37.53125 7.5625 
Q 35.546875 3.765625 31.578125 1.359375 
Q 27.625 -1.03125 21.59375 -1.03125 
z
M 25.921875 9.40625 
Q 30.890625 9.40625 34.078125 12.296875 
Q 37.28125 15.203125 37.28125 19.5 
L 37.28125 25.28125 
Q 36.40625 24.6875 34.53125 24.21875 
Q 32.671875 23.75 30.5625 23.40625 
Q 28.453125 23.078125 26.78125 22.828125 
Q 22.796875 22.265625 20.359375 20.59375 
Q 17.9375 18.921875 17.9375 15.734375 
Q 17.9375 12.609375 20.1875 11 
Q 22.4375 9.40625 25.921875 9.40625 
z
" id="Inter-Bold-97"/>
      <path d="M 35.046875 54.546875 
L 35.046875 43.1875 
L 24.78125 43.1875 
L 24.78125 16.765625 
Q 24.78125 13.640625 26.203125 12.53125 
Q 27.625 11.4375 29.90625 11.4375 
Q 30.96875 11.4375 32.03125 11.625 
Q 33.09375 11.828125 33.671875 11.9375 
L 36.046875 0.671875 
Q 34.90625 0.3125 32.84375 -0.15625 
Q 30.796875 -0.640625 27.84375 -0.75 
Q 19.609375 -1.09375 14.609375 2.828125 
Q 9.625 6.75 9.65625 14.765625 
L 9.65625 43.1875 
L 2.203125 43.1875 
L 2.203125 54.546875 
L 9.65625 54.546875 
L 9.65625 67.609375 
L 24.78125 67.609375 
L 24.78125 54.546875 
z
" id="Inter-Bold-116"/>
      <path d="M 6.03125 0 
L 6.03125 54.546875 
L 21.171875 54.546875 
L 21.171875 0 
z
M 13.6875 61.578125 
Q 10.34375 61.578125 7.921875 63.828125 
Q 5.515625 66.09375 5.515625 69.25 
Q 5.515625 72.40625 7.921875 74.640625 
Q 10.34375 76.875 13.6875 76.875 
Q 17.0625 76.875 19.46875 74.640625 
Q 21.890625 72.40625 21.890625 69.25 
Q 21.890625 66.09375 19.46875 63.828125 
Q 17.0625 61.578125 13.6875 61.578125 
z
" id="Inter-Bold-105"/>
      <path d="M 56.890625 54.546875 
L 37.828125 0 
L 20.78125 0 
L 1.703125 54.546875 
L 17.6875 54.546875 
L 29.015625 15.515625 
L 29.578125 15.515625 
L 40.875 54.546875 
z
" id="Inter-Bold-118"/>
      <path d="M 30.890625 -1.0625 
Q 22.515625 -1.0625 16.4375 2.359375 
Q 10.375 5.78125 7.109375 12.078125 
Q 3.84375 18.390625 3.84375 27.03125 
Q 3.84375 35.4375 7.109375 41.796875 
Q 10.375 48.15625 16.3125 51.703125 
Q 22.265625 55.25 30.296875 55.25 
Q 37.5 55.25 43.296875 52.1875 
Q 49.109375 49.140625 52.515625 42.984375 
Q 55.9375 36.828125 55.9375 27.5625 
L 55.9375 23.40625 
L 18.78125 23.40625 
L 18.78125 23.359375 
Q 18.78125 17.265625 22.125 13.75 
Q 25.46875 10.234375 31.140625 10.234375 
Q 34.9375 10.234375 37.703125 11.828125 
Q 40.484375 13.421875 41.625 16.546875 
L 55.609375 15.625 
Q 54.015625 8.03125 47.515625 3.484375 
Q 41.015625 -1.0625 30.890625 -1.0625 
z
M 18.78125 32.78125 
L 41.6875 32.78125 
Q 41.65625 37.640625 38.5625 40.796875 
Q 35.484375 43.96875 30.546875 43.96875 
Q 25.5 43.96875 22.265625 40.6875 
Q 19.03125 37.421875 18.78125 32.78125 
z
" id="Inter-Bold-101"/>
      <path id="Inter-Bold-32"/>
      <path d="M 26.140625 -0.890625 
Q 19.921875 -0.890625 14.90625 2.328125 
Q 9.90625 5.546875 6.953125 11.8125 
Q 4.015625 18.078125 4.015625 27.203125 
Q 4.015625 36.578125 7.046875 42.8125 
Q 10.09375 49.046875 15.109375 52.140625 
Q 20.140625 55.25 26.109375 55.25 
Q 30.6875 55.25 33.75 53.703125 
Q 36.828125 52.171875 38.71875 49.890625 
Q 40.625 47.625 41.625 45.390625 
L 42.078125 45.390625 
L 42.078125 72.734375 
L 57.171875 72.734375 
L 57.171875 0 
L 42.265625 0 
L 42.265625 8.734375 
L 41.625 8.734375 
Q 40.59375 6.46875 38.640625 4.25 
Q 36.6875 2.03125 33.609375 0.5625 
Q 30.546875 -0.890625 26.140625 -0.890625 
z
M 30.9375 11.15625 
Q 36.40625 11.15625 39.40625 15.578125 
Q 42.40625 20 42.40625 27.265625 
Q 42.40625 34.59375 39.421875 38.90625 
Q 36.4375 43.21875 30.9375 43.21875 
Q 25.328125 43.21875 22.390625 38.796875 
Q 19.46875 34.375 19.46875 27.265625 
Q 19.46875 20.140625 22.40625 15.640625 
Q 25.359375 11.15625 30.9375 11.15625 
z
" id="Inter-Bold-100"/>
      <path d="M 21.171875 31.53125 
L 21.171875 0 
L 6.03125 0 
L 6.03125 72.734375 
L 20.734375 72.734375 
L 20.734375 44.921875 
L 21.375 44.921875 
Q 23.265625 49.75 27.359375 52.5 
Q 31.46875 55.25 37.671875 55.25 
Q 46.203125 55.25 51.390625 49.78125 
Q 56.578125 44.3125 56.53125 34.734375 
L 56.53125 0 
L 41.40625 0 
L 41.40625 32.03125 
Q 41.4375 37.078125 38.859375 39.875 
Q 36.296875 42.6875 31.671875 42.6875 
Q 27.0625 42.6875 24.125 39.75 
Q 21.203125 36.828125 21.171875 31.53125 
z
" id="Inter-Bold-104"/>
      <path d="M 51.421875 38.984375 
L 37.578125 38.140625 
Q 37 40.765625 34.6875 42.640625 
Q 32.390625 44.53125 28.453125 44.53125 
Q 24.9375 44.53125 22.5 43.046875 
Q 20.0625 41.578125 20.09375 39.140625 
Q 20.0625 37.1875 21.640625 35.828125 
Q 23.21875 34.484375 27.03125 33.671875 
L 36.890625 31.671875 
Q 52.625 28.4375 52.671875 16.90625 
Q 52.671875 11.546875 49.515625 7.484375 
Q 46.375 3.4375 40.90625 1.1875 
Q 35.4375 -1.0625 28.375 -1.0625 
Q 17.546875 -1.0625 11.109375 3.453125 
Q 4.6875 7.984375 3.625 15.796875 
L 18.5 16.578125 
Q 19.21875 13.25 21.78125 11.546875 
Q 24.359375 9.84375 28.40625 9.84375 
Q 32.390625 9.84375 34.8125 11.40625 
Q 37.25 12.96875 37.28125 15.375 
Q 37.1875 19.421875 30.296875 20.8125 
L 20.84375 22.6875 
Q 5.015625 25.859375 5.078125 38.28125 
Q 5.046875 46.171875 11.375 50.703125 
Q 17.71875 55.25 28.203125 55.25 
Q 38.53125 55.25 44.46875 50.875 
Q 50.421875 46.515625 51.421875 38.984375 
z
" id="Inter-Bold-115"/>
      <path d="M 16.796875 0 
L 1.953125 54.546875 
L 17.265625 54.546875 
L 25.71875 17.890625 
L 26.203125 17.890625 
L 35.015625 54.546875 
L 50.03125 54.546875 
L 58.984375 18.109375 
L 59.453125 18.109375 
L 67.75 54.546875 
L 83.03125 54.546875 
L 68.21875 0 
L 52.203125 0 
L 42.828125 34.296875 
L 42.15625 34.296875 
L 32.78125 0 
z
" id="Inter-Bold-119"/>
      <path d="M 21.171875 31.53125 
L 21.171875 0 
L 6.03125 0 
L 6.03125 54.546875 
L 20.453125 54.546875 
L 20.453125 44.921875 
L 21.09375 44.921875 
Q 22.9375 49.6875 27.171875 52.46875 
Q 31.421875 55.25 37.5 55.25 
Q 46.03125 55.25 51.171875 49.765625 
Q 56.328125 44.28125 56.328125 34.734375 
L 56.328125 0 
L 41.1875 0 
L 41.1875 32.03125 
Q 41.234375 37.03125 38.640625 39.859375 
Q 36.046875 42.6875 31.5 42.6875 
Q 26.921875 42.6875 24.0625 39.75 
Q 21.203125 36.828125 21.171875 31.53125 
z
" id="Inter-Bold-110"/>
      <path d="M 4.796875 12.78125 
L 4.796875 24.890625 
L 35.15625 72.734375 
L 54.40625 72.734375 
L 54.40625 25.109375 
L 63.421875 25.109375 
L 63.421875 12.78125 
L 54.40625 12.78125 
L 54.40625 0 
L 39.703125 0 
L 39.703125 12.78125 
z
M 39.984375 25.109375 
L 39.984375 55.96875 
L 39.421875 55.96875 
L 20.28125 25.671875 
L 20.28125 25.109375 
z
" id="Inter-Bold-52"/>
      <path d="M 6.03125 0 
L 6.03125 72.734375 
L 21.171875 72.734375 
L 21.171875 33.84375 
L 21.984375 33.84375 
L 39.453125 54.546875 
L 56.8125 54.546875 
L 36.578125 30.9375 
L 57.84375 0 
L 40.125 0 
L 25.25 21.984375 
L 21.171875 17.328125 
L 21.171875 0 
z
" id="Inter-Bold-107"/>
      <path d="M 30.6875 -1.0625 
Q 22.40625 -1.0625 16.390625 2.46875 
Q 10.375 6 7.109375 12.328125 
Q 3.84375 18.671875 3.84375 27.0625 
Q 3.84375 35.515625 7.109375 41.84375 
Q 10.375 48.1875 16.390625 51.71875 
Q 22.40625 55.25 30.6875 55.25 
Q 38.953125 55.25 44.96875 51.71875 
Q 51 48.1875 54.265625 41.84375 
Q 57.53125 35.515625 57.53125 27.0625 
Q 57.53125 18.671875 54.265625 12.328125 
Q 51 6 44.96875 2.46875 
Q 38.953125 -1.0625 30.6875 -1.0625 
z
M 30.75 10.65625 
Q 36.359375 10.65625 39.25 15.34375 
Q 42.15625 20.03125 42.15625 27.171875 
Q 42.15625 34.296875 39.25 39 
Q 36.359375 43.71875 30.75 43.71875 
Q 25.03125 43.71875 22.125 39 
Q 19.21875 34.296875 19.21875 27.171875 
Q 19.21875 20.03125 22.125 15.34375 
Q 25.03125 10.65625 30.75 10.65625 
z
" id="Inter-Bold-111"/>
      <path d="M 35.875 54.546875 
L 35.875 43.1875 
L 25.03125 43.1875 
L 25.03125 0 
L 9.90625 0 
L 9.90625 43.1875 
L 2.203125 43.1875 
L 2.203125 54.546875 
L 9.90625 54.546875 
L 9.90625 58.484375 
Q 9.90625 67.40625 15 71.765625 
Q 20.09375 76.140625 27.8125 76.140625 
Q 31.28125 76.140625 34.171875 75.609375 
Q 37.078125 75.078125 38.5 74.640625 
L 35.828125 63.28125 
Q 34.9375 63.5625 33.625 63.8125 
Q 32.3125 64.0625 30.96875 64.0625 
Q 27.625 64.0625 26.328125 62.515625 
Q 25.03125 60.96875 25.03125 58.203125 
L 25.03125 54.546875 
z
" id="Inter-Bold-102"/>
      <path d="M 6.03125 -20.453125 
L 6.03125 54.546875 
L 20.953125 54.546875 
L 20.953125 45.390625 
L 21.625 45.390625 
Q 22.65625 47.625 24.53125 49.890625 
Q 26.421875 52.171875 29.5 53.703125 
Q 32.59375 55.25 37.140625 55.25 
Q 43.140625 55.25 48.140625 52.140625 
Q 53.15625 49.046875 56.1875 42.8125 
Q 59.234375 36.578125 59.234375 27.203125 
Q 59.234375 18.078125 56.28125 11.8125 
Q 53.34375 5.546875 48.328125 2.328125 
Q 43.328125 -0.890625 37.109375 -0.890625 
Q 32.703125 -0.890625 29.625 0.5625 
Q 26.5625 2.03125 24.625 4.25 
Q 22.6875 6.46875 21.625 8.734375 
L 21.171875 8.734375 
L 21.171875 -20.453125 
z
M 20.84375 27.265625 
Q 20.84375 20 23.84375 15.578125 
Q 26.84375 11.15625 32.3125 11.15625 
Q 37.890625 11.15625 40.828125 15.640625 
Q 43.78125 20.140625 43.78125 27.265625 
Q 43.78125 34.375 40.84375 38.796875 
Q 37.921875 43.21875 32.3125 43.21875 
Q 26.8125 43.21875 23.828125 38.90625 
Q 20.84375 34.59375 20.84375 27.265625 
z
" id="Inter-Bold-112"/>
      <path d="M 73.15625 36.359375 
Q 73.15625 24.46875 68.65625 16.125 
Q 64.171875 7.78125 56.46875 3.390625 
Q 48.765625 -1 39.09375 -1 
Q 29.40625 -1 21.703125 3.40625 
Q 14 7.8125 9.515625 16.171875 
Q 5.046875 24.53125 5.046875 36.359375 
Q 5.046875 48.265625 9.515625 56.609375 
Q 14 64.953125 21.703125 69.328125 
Q 29.40625 73.71875 39.09375 73.71875 
Q 48.765625 73.71875 56.46875 69.328125 
Q 64.171875 64.953125 68.65625 56.609375 
Q 73.15625 48.265625 73.15625 36.359375 
z
M 57.5625 36.359375 
Q 57.5625 47.9375 52.515625 54.03125 
Q 47.484375 60.125 39.09375 60.125 
Q 30.71875 60.125 25.671875 54.03125 
Q 20.640625 47.9375 20.640625 36.359375 
Q 20.640625 24.828125 25.671875 18.71875 
Q 30.71875 12.609375 39.09375 12.609375 
Q 47.484375 12.609375 52.515625 18.71875 
Q 57.5625 24.828125 57.5625 36.359375 
z
" id="Inter-Bold-79"/>
      <path d="M 19.46875 72.734375 
L 37.046875 17.46875 
L 37.71875 17.46875 
L 55.328125 72.734375 
L 72.375 72.734375 
L 47.296875 0 
L 27.484375 0 
L 2.375 72.734375 
z
" id="Inter-Bold-86"/>
      <path d="M 21.703125 72.734375 
L 21.703125 0 
L 6.328125 0 
L 6.328125 72.734375 
z
" id="Inter-Bold-73"/>
      <path d="M 32.109375 0 
L 6.328125 0 
L 6.328125 72.734375 
L 32.3125 72.734375 
Q 43.296875 72.734375 51.21875 68.375 
Q 59.15625 64.03125 63.421875 55.890625 
Q 67.6875 47.765625 67.6875 36.4375 
Q 67.6875 25.078125 63.40625 16.90625 
Q 59.125 8.734375 51.15625 4.359375 
Q 43.1875 0 32.109375 0 
z
M 21.703125 13.171875 
L 31.46875 13.171875 
Q 41.734375 13.171875 47.03125 18.703125 
Q 52.34375 24.25 52.34375 36.4375 
Q 52.34375 48.546875 47.03125 54.046875 
Q 41.734375 59.546875 31.5 59.546875 
L 21.703125 59.546875 
z
" id="Inter-Bold-68"/>
      <path d="M 40.015625 35.859375 
L 40.015625 23.859375 
L 6.859375 23.859375 
L 6.859375 35.859375 
z
" id="Inter-Bold-45"/>
      <path d="M 36.015625 72.734375 
L 36.015625 0 
L 20.671875 0 
L 20.671875 53.90625 
L 20 53.90625 
Q 18.828125 52.09375 15.015625 50.296875 
Q 11.21875 48.515625 5.1875 48.515625 
L 5.1875 60.71875 
Q 9.875 60.71875 13.390625 62.796875 
Q 16.90625 64.875 18.890625 67.703125 
Q 20.875 70.53125 20.953125 72.734375 
z
" id="Inter-Bold-49"/>
      <path d="M 32.203125 73.9375 
Q 37.828125 73.9375 43.015625 72.0625 
Q 48.21875 70.203125 52.3125 66.046875 
Q 56.421875 61.890625 58.84375 55.046875 
Q 61.265625 48.21875 61.265625 38.25 
Q 61.265625 25.921875 57.59375 17.125 
Q 53.9375 8.34375 47.3125 3.671875 
Q 40.703125 -1 31.671875 -1 
Q 24.390625 -1 18.8125 1.828125 
Q 13.25 4.65625 9.859375 9.53125 
Q 6.46875 14.421875 5.75 20.53125 
L 20.921875 20.53125 
Q 21.8125 16.546875 24.640625 14.359375 
Q 27.484375 12.1875 31.671875 12.1875 
Q 38.78125 12.1875 42.46875 18.375 
Q 46.171875 24.578125 46.203125 35.375 
L 45.703125 35.375 
Q 43.296875 30.578125 38.328125 27.84375 
Q 33.375 25.109375 27.375 25.109375 
Q 20.953125 25.109375 15.875 28.140625 
Q 10.796875 31.171875 7.90625 36.46875 
Q 5.015625 41.765625 5.046875 48.578125 
Q 5.015625 55.96875 8.421875 61.703125 
Q 11.828125 67.4375 17.953125 70.703125 
Q 24.078125 73.96875 32.203125 73.9375 
z
M 32.3125 61.859375 
Q 26.953125 61.859375 23.4375 58.15625 
Q 19.921875 54.46875 19.953125 49 
Q 19.921875 43.609375 23.375 39.921875 
Q 26.84375 36.25 32.171875 36.25 
Q 35.6875 36.25 38.515625 37.984375 
Q 41.34375 39.734375 42.984375 42.640625 
Q 44.640625 45.5625 44.671875 49.078125 
Q 44.640625 52.59375 43.015625 55.484375 
Q 41.40625 58.375 38.640625 60.109375 
Q 35.875 61.859375 32.3125 61.859375 
z
" id="Inter-Bold-57"/>
      <path d="M 22.484375 9.9375 
L 22.09375 6.03125 
Q 21.625 1.34375 20.328125 -3.3125 
Q 19.03125 -7.984375 17.625 -11.78125 
Q 16.234375 -15.59375 15.375 -17.75 
L 5.578125 -17.75 
Q 6.109375 -15.65625 7.03125 -11.921875 
Q 7.953125 -8.203125 8.765625 -3.53125 
Q 9.59375 1.140625 9.796875 5.96875 
L 9.984375 9.9375 
z
" id="Inter-Bold-44"/>
      <path d="M 6.03125 0 
L 6.03125 54.546875 
L 20.703125 54.546875 
L 20.703125 45.03125 
L 21.265625 45.03125 
Q 22.765625 50.109375 26.265625 52.71875 
Q 29.765625 55.328125 34.375 55.328125 
Q 36.578125 55.328125 38.453125 54.796875 
Q 40.34375 54.265625 41.828125 53.34375 
L 37.28125 40.84375 
Q 36.21875 41.375 34.953125 41.734375 
Q 33.703125 42.109375 32.140625 42.109375 
Q 27.5625 42.109375 24.375 38.984375 
Q 21.203125 35.859375 21.171875 30.859375 
L 21.171875 0 
z
" id="Inter-Bold-114"/>
      <path d="M 30.6875 -1.0625 
Q 22.296875 -1.0625 16.28125 2.5 
Q 10.265625 6.078125 7.046875 12.421875 
Q 3.84375 18.78125 3.84375 27.0625 
Q 3.84375 35.4375 7.078125 41.78125 
Q 10.328125 48.125 16.328125 51.6875 
Q 22.34375 55.25 30.609375 55.25 
Q 37.75 55.25 43.125 52.65625 
Q 48.515625 50.078125 51.609375 45.390625 
Q 54.71875 40.703125 55.046875 34.375 
L 40.765625 34.375 
Q 40.171875 38.453125 37.59375 40.953125 
Q 35.015625 43.46875 30.859375 43.46875 
Q 25.609375 43.46875 22.40625 39.234375 
Q 19.21875 35.015625 19.21875 27.265625 
Q 19.21875 19.453125 22.390625 15.171875 
Q 25.5625 10.90625 30.859375 10.90625 
Q 34.765625 10.90625 37.421875 13.265625 
Q 40.09375 15.625 40.765625 20 
L 55.046875 20 
Q 54.6875 13.75 51.640625 8.984375 
Q 48.609375 4.21875 43.28125 1.578125 
Q 37.96875 -1.0625 30.6875 -1.0625 
z
" id="Inter-Bold-99"/>
     </defs>
     <use xlink:href="#Inter-Bold-67"/>
     <use x="75.213089" xlink:href="#Inter-Bold-117"/>
     <use x="137.393494" xlink:href="#Inter-Bold-109"/>
     <use x="228.5867" xlink:href="#Inter-Bold-117"/>
     <use x="290.767105" xlink:href="#Inter-Bold-108"/>
     <use x="317.968811" xlink:href="#Inter-Bold-97"/>
     <use x="375.994385" xlink:href="#Inter-Bold-116"/>
     <use x="414.843826" xlink:href="#Inter-Bold-105"/>
     <use x="442.045532" xlink:href="#Inter-Bold-118"/>
     <use x="500.639297" xlink:href="#Inter-Bold-101"/>
     <use x="560.404938" xlink:href="#Inter-Bold-32"/>
     <use x="583.593857" xlink:href="#Inter-Bold-100"/>
     <use x="647.123703" xlink:href="#Inter-Bold-101"/>
     <use x="706.889343" xlink:href="#Inter-Bold-97"/>
     <use x="764.914917" xlink:href="#Inter-Bold-116"/>
     <use x="803.764359" xlink:href="#Inter-Bold-104"/>
     <use x="866.193344" xlink:href="#Inter-Bold-115"/>
     <use x="922.37233" xlink:href="#Inter-Bold-32"/>
     <use x="945.561249" xlink:href="#Inter-Bold-119"/>
     <use x="1030.57547" xlink:href="#Inter-Bold-105"/>
     <use x="1057.777176" xlink:href="#Inter-Bold-116"/>
     <use x="1096.626617" xlink:href="#Inter-Bold-104"/>
     <use x="1159.055603" xlink:href="#Inter-Bold-105"/>
     <use x="1186.257309" xlink:href="#Inter-Bold-110"/>
     <use x="1248.437714" xlink:href="#Inter-Bold-32"/>
     <use x="1271.626633" xlink:href="#Inter-Bold-52"/>
     <use x="1339.417847" xlink:href="#Inter-Bold-32"/>
     <use x="1362.606766" xlink:href="#Inter-Bold-119"/>
     <use x="1447.620987" xlink:href="#Inter-Bold-101"/>
     <use x="1507.386627" xlink:href="#Inter-Bold-101"/>
     <use x="1567.152267" xlink:href="#Inter-Bold-107"/>
     <use x="1625.319885" xlink:href="#Inter-Bold-115"/>
     <use x="1681.498871" xlink:href="#Inter-Bold-32"/>
     <use x="1704.68779" xlink:href="#Inter-Bold-111"/>
     <use x="1766.051437" xlink:href="#Inter-Bold-102"/>
     <use x="1805.113937" xlink:href="#Inter-Bold-32"/>
     <use x="1828.302856" xlink:href="#Inter-Bold-97"/>
     <use x="1886.32843" xlink:href="#Inter-Bold-32"/>
     <use x="1909.517349" xlink:href="#Inter-Bold-112"/>
     <use x="1972.763107" xlink:href="#Inter-Bold-111"/>
     <use x="2034.126755" xlink:href="#Inter-Bold-115"/>
     <use x="2090.30574" xlink:href="#Inter-Bold-105"/>
     <use x="2117.507446" xlink:href="#Inter-Bold-116"/>
     <use x="2156.356888" xlink:href="#Inter-Bold-105"/>
     <use x="2183.558594" xlink:href="#Inter-Bold-118"/>
     <use x="2242.152359" xlink:href="#Inter-Bold-101"/>
     <use x="2301.917999" xlink:href="#Inter-Bold-32"/>
     <use x="2325.106918" xlink:href="#Inter-Bold-67"/>
     <use x="2400.320007" xlink:href="#Inter-Bold-79"/>
     <use x="2478.516052" xlink:href="#Inter-Bold-86"/>
     <use x="2553.302994" xlink:href="#Inter-Bold-73"/>
     <use x="2581.356979" xlink:href="#Inter-Bold-68"/>
     <use x="2654.084274" xlink:href="#Inter-Bold-45"/>
     <use x="2700.95929" xlink:href="#Inter-Bold-49"/>
     <use x="2748.366974" xlink:href="#Inter-Bold-57"/>
     <use x="2814.382614" xlink:href="#Inter-Bold-32"/>
     <use x="2837.571533" xlink:href="#Inter-Bold-116"/>
     <use x="2876.420975" xlink:href="#Inter-Bold-101"/>
     <use x="2936.186615" xlink:href="#Inter-Bold-115"/>
     <use x="2992.365601" xlink:href="#Inter-Bold-116"/>
     <use x="3031.215042" xlink:href="#Inter-Bold-44"/>
     <use x="3061.506241" xlink:href="#Inter-Bold-32"/>
     <use x="3084.69516" xlink:href="#Inter-Bold-112"/>
     <use x="3147.940918" xlink:href="#Inter-Bold-101"/>
     <use x="3207.706558" xlink:href="#Inter-Bold-114"/>
     <use x="3250.568787" xlink:href="#Inter-Bold-32"/>
     <use x="3273.757706" xlink:href="#Inter-Bold-99"/>
     <use x="3332.493515" xlink:href="#Inter-Bold-97"/>
     <use x="3390.519089" xlink:href="#Inter-Bold-112"/>
     <use x="3453.764847" xlink:href="#Inter-Bold-105"/>
     <use x="3480.966553" xlink:href="#Inter-Bold-116"/>
     <use x="3519.815994" xlink:href="#Inter-Bold-97"/>
    </g>
   </g>
   <g id="legend_1">
    <g id="patch_4">
     <path d="M 75.532813 98.614063 
L 185.10625 98.614063 
Q 187.10625 98.614063 187.10625 96.614063 
L 187.10625 40.225 
Q 187.10625 38.225 185.10625 38.225 
L 75.532813 38.225 
Q 73.532813 38.225 73.532813 40.225 
L 73.532813 96.614063 
Q 73.532813 98.614063 75.532813 98.614063 
z
" style="fill:#ffffff;opacity:0.8;stroke:#cccccc;stroke-linejoin:miter;"/>
    </g>
    <g id="line2d_32">
     <path d="M 77.532813 45.998438 
L 97.532813 45.998438 
" style="fill:none;stroke:#d4351c;stroke-linecap:square;stroke-width:2;"/>
    </g>
    <g id="line2d_33"/>
    <g id="text_22">
     <!-- Wales -->
     <g transform="translate(105.532813 49.498438)scale(0.1 -0.1)">
      <defs>
       <path d="M 22.015625 0 
L 2.125 72.734375 
L 11.078125 72.734375 
L 26.28125 13.5 
L 26.984375 13.5 
L 42.46875 72.734375 
L 52.421875 72.734375 
L 67.90625 13.5 
L 68.609375 13.5 
L 83.8125 72.734375 
L 92.75 72.734375 
L 72.875 0 
L 63.78125 0 
L 47.734375 57.953125 
L 47.15625 57.953125 
L 31.109375 0 
z
" id="Inter-Regular-87"/>
      </defs>
      <use xlink:href="#Inter-Regular-87"/>
      <use x="94.886383" xlink:href="#Inter-Regular-97"/>
      <use x="151.278442" xlink:href="#Inter-Regular-108"/>
      <use x="175.000031" xlink:href="#Inter-Regular-101"/>
      <use x="233.238678" xlink:href="#Inter-Regular-115"/>
     </g>
    </g>
    <g id="line2d_34">
     <path d="M 77.532813 60.317188 
L 97.532813 60.317188 
" style="fill:none;stroke:#003078;stroke-linecap:square;stroke-width:2;"/>
    </g>
    <g id="line2d_35"/>
    <g id="text_23">
     <!-- Scotland -->
     <g transform="translate(105.532813 63.817188)scale(0.1 -0.1)">
      <use xlink:href="#Inter-Regular-83"/>
      <use x="63.778427" xlink:href="#Inter-Regular-99"/>
      <use x="119.602295" xlink:href="#Inter-Regular-111"/>
      <use x="179.261398" xlink:href="#Inter-Regular-116"/>
      <use x="215.625046" xlink:href="#Inter-Regular-108"/>
      <use x="239.346634" xlink:href="#Inter-Regular-97"/>
      <use x="295.738693" xlink:href="#Inter-Regular-110"/>
      <use x="354.261429" xlink:href="#Inter-Regular-100"/>
     </g>
    </g>
    <g id="line2d_36">
     <path d="M 77.532813 74.635938 
L 97.532813 74.635938 
" style="fill:none;stroke:#ffdd00;stroke-linecap:square;stroke-width:2;"/>
    </g>
    <g id="line2d_37"/>
    <g id="text_24">
     <!-- Northern Ireland -->
     <g transform="translate(105.532813 78.135938)scale(0.1 -0.1)">
      <defs>
       <path d="M 17.609375 72.734375 
L 17.609375 0 
L 8.8125 0 
L 8.8125 72.734375 
z
" id="Inter-Regular-73"/>
      </defs>
      <use xlink:href="#Inter-Regular-78"/>
      <use x="75.284103" xlink:href="#Inter-Regular-111"/>
      <use x="134.943207" xlink:href="#Inter-Regular-114"/>
      <use x="173.295486" xlink:href="#Inter-Regular-116"/>
      <use x="209.659134" xlink:href="#Inter-Regular-104"/>
      <use x="268.750061" xlink:href="#Inter-Regular-101"/>
      <use x="326.988708" xlink:href="#Inter-Regular-114"/>
      <use x="365.340988" xlink:href="#Inter-Regular-110"/>
      <use x="423.863724" xlink:href="#Inter-Regular-32"/>
      <use x="451.988724" xlink:href="#Inter-Regular-73"/>
      <use x="478.40918" xlink:href="#Inter-Regular-114"/>
      <use x="516.761459" xlink:href="#Inter-Regular-101"/>
      <use x="575.000107" xlink:href="#Inter-Regular-108"/>
      <use x="598.721695" xlink:href="#Inter-Regular-97"/>
      <use x="655.113754" xlink:href="#Inter-Regular-110"/>
      <use x="713.63649" xlink:href="#Inter-Regular-100"/>
     </g>
    </g>
    <g id="line2d_38">
     <path d="M 77.532813 88.954688 
L 97.532813 88.954688 
" style="fill:none;stroke:#5694ca;stroke-linecap:square;stroke-width:2;"/>
    </g>
    <g id="line2d_39"/>
    <g id="text_25">
     <!-- England -->
     <g transform="translate(105.532813 92.454688)scale(0.1 -0.1)">
      <defs>
       <path d="M 8.8125 0 
L 8.8125 72.734375 
L 52.703125 72.734375 
L 52.703125 64.921875 
L 17.609375 64.921875 
L 17.609375 40.34375 
L 50.421875 40.34375 
L 50.421875 32.53125 
L 17.609375 32.53125 
L 17.609375 7.8125 
L 53.265625 7.8125 
L 53.265625 0 
z
" id="Inter-Regular-69"/>
      </defs>
      <use xlink:href="#Inter-Regular-69"/>
      <use x="59.801147" xlink:href="#Inter-Regular-110"/>
      <use x="118.323883" xlink:href="#Inter-Regular-103"/>
      <use x="179.261398" xlink:href="#Inter-Regular-108"/>
      <use x="202.982986" xlink:href="#Inter-Regular-97"/>
      <use x="259.375046" xlink:href="#Inter-Regular-110"/>
      <use x="317.897781" xlink:href="#Inter-Regular-100"/>
     </g>
    </g>
   </g>
  </g>
 </g>
 <defs>
  <clipPath id="paefb9d6556">
   <rect height="443.52" width="669.6" x="68.532813" y="33.225"/>
  </clipPath>
 </defs>
</svg>
