<?xml version="1.0" encoding="utf-8" standalone="no"?>
<!DOCTYPE svg PUBLIC "-//W3C//DTD SVG 1.1//EN"
  "http://www.w3.org/Graphics/SVG/1.1/DTD/svg11.dtd">
<svg version="1.1" viewBox="0 0 751.405982 511.27625" xmlns="http://www.w3.org/2000/svg" xmlns:xlink="http://www.w3.org/1999/xlink">
 <metadata>
  <rdf:RDF xmlns:cc="http://creativecommons.org/ns#" xmlns:dc="http://purl.org/dc/elements/1.1/" xmlns:rdf="http://www.w3.org/1999/02/22-rdf-syntax-ns#">
   <cc:Work>
    <dc:type rdf:resource="http://purl.org/dc/dcmitype/StillImage"/>
    <dc:date>2021-04-03T16:05:32.424414</dc:date>
    <dc:format>image/svg+xml</dc:format>
    <dc:creator>
     <cc:Agent>
      <dc:title>Matplotlib v3.4.1, https://matplotlib.org/</dc:title>
     </cc:Agent>
    </dc:creator>
   </cc:Work>
  </rdf:RDF>
 </metadata>
 <defs>
  <style type="text/css">*{stroke-linecap:butt;stroke-linejoin:round;}</style>
 </defs>
 <g id="figure_1">
  <g id="patch_1">
   <path d="M 0 511.27625 
L 751.405982 511.27625 
L 751.405982 0 
L 0 0 
z
" style="fill:#ffffff;"/>
  </g>
  <g id="axes_1">
   <g id="patch_2">
    <path d="M 53.204688 476.745 
L 722.804688 476.745 
L 722.804688 33.225 
L 53.204688 33.225 
z
" style="fill:#ffffff;"/>
   </g>
   <g id="matplotlib.axis_1">
    <g id="xtick_1">
     <g id="line2d_1">
      <defs>
       <path d="M 0 0 
L 0 3.5 
" id="m4e283fabc4" style="stroke:#000000;stroke-width:0.8;"/>
      </defs>
      <g>
       <use style="stroke:#000000;stroke-width:0.8;" x="53.204688" xlink:href="#m4e283fabc4" y="476.745"/>
      </g>
     </g>
     <g id="text_1">
      <!-- 01 Mar -->
      <g transform="translate(37.167969 491.018438)scale(0.1 -0.1)">
       <defs>
        <path d="M 2000 -64 
Q 1230 -64 806 561 
Q 382 1186 382 2327 
Q 382 3459 809 4088 
Q 1236 4718 2000 4718 
Q 2764 4718 3191 4088 
Q 3618 3459 3618 2327 
Q 3618 1186 3194 561 
Q 2771 -64 2000 -64 
z
M 2000 436 
Q 2509 436 2791 927 
Q 3073 1418 3073 2327 
Q 3073 3234 2789 3730 
Q 2505 4227 2000 4227 
Q 1496 4227 1211 3730 
Q 927 3234 927 2327 
Q 927 1418 1210 927 
Q 1493 436 2000 436 
z
" id="Inter-Regular-30" transform="scale(0.015625)"/>
        <path d="M 1973 4655 
L 1973 0 
L 1409 0 
L 1409 3836 
L 1373 3836 
Q 1341 3773 1209 3692 
Q 1077 3611 868 3551 
Q 659 3491 391 3491 
L 391 3964 
Q 661 3964 859 4061 
Q 1057 4159 1190 4291 
Q 1323 4423 1392 4529 
Q 1461 4636 1473 4655 
L 1973 4655 
z
" id="Inter-Regular-31" transform="scale(0.015625)"/>
        <path id="Inter-Regular-20" transform="scale(0.015625)"/>
        <path d="M 564 4655 
L 1236 4655 
L 2818 791 
L 2873 791 
L 4455 4655 
L 5127 4655 
L 5127 0 
L 4600 0 
L 4600 3536 
L 4555 3536 
L 3100 0 
L 2591 0 
L 1136 3536 
L 1091 3536 
L 1091 0 
L 564 0 
L 564 4655 
z
" id="Inter-Regular-4d" transform="scale(0.015625)"/>
        <path d="M 1518 -82 
Q 1186 -82 916 44 
Q 646 170 486 410 
Q 327 650 327 991 
Q 327 1291 445 1478 
Q 564 1666 761 1773 
Q 959 1880 1199 1933 
Q 1439 1986 1682 2018 
Q 2000 2059 2199 2080 
Q 2398 2102 2490 2154 
Q 2582 2207 2582 2336 
L 2582 2355 
Q 2582 2691 2399 2877 
Q 2216 3064 1846 3064 
Q 1461 3064 1243 2895 
Q 1025 2727 936 2536 
L 427 2718 
Q 564 3036 792 3214 
Q 1021 3393 1292 3464 
Q 1564 3536 1827 3536 
Q 1996 3536 2215 3496 
Q 2434 3457 2640 3334 
Q 2846 3211 2982 2963 
Q 3118 2716 3118 2300 
L 3118 0 
L 2582 0 
L 2582 473 
L 2555 473 
Q 2500 359 2373 229 
Q 2246 100 2034 9 
Q 1823 -82 1518 -82 
z
M 1600 400 
Q 1918 400 2137 525 
Q 2357 650 2469 847 
Q 2582 1045 2582 1264 
L 2582 1755 
Q 2548 1714 2433 1681 
Q 2318 1648 2169 1624 
Q 2021 1600 1881 1583 
Q 1741 1566 1655 1555 
Q 1446 1527 1265 1467 
Q 1084 1407 974 1287 
Q 864 1168 864 964 
Q 864 684 1072 542 
Q 1280 400 1600 400 
z
" id="Inter-Regular-61" transform="scale(0.015625)"/>
        <path d="M 491 0 
L 491 3491 
L 1009 3491 
L 1009 2964 
L 1046 2964 
Q 1139 3223 1389 3384 
Q 1639 3545 1955 3545 
Q 2100 3545 2209 3511 
Q 2318 3477 2400 3418 
L 2218 2964 
Q 2161 2993 2085 3010 
Q 2009 3027 1909 3027 
Q 1527 3027 1277 2794 
Q 1027 2561 1027 2209 
L 1027 0 
L 491 0 
z
" id="Inter-Regular-72" transform="scale(0.015625)"/>
       </defs>
       <use xlink:href="#Inter-Regular-30"/>
       <use x="62.500015" xlink:href="#Inter-Regular-31"/>
       <use x="106.676163" xlink:href="#Inter-Regular-20"/>
       <use x="134.801163" xlink:href="#Inter-Regular-4d"/>
       <use x="225.99437" xlink:href="#Inter-Regular-61"/>
       <use x="282.386429" xlink:href="#Inter-Regular-72"/>
      </g>
     </g>
    </g>
    <g id="xtick_2">
     <g id="line2d_2">
      <g>
       <use style="stroke:#000000;stroke-width:0.8;" x="105.27186" xlink:href="#m4e283fabc4" y="476.745"/>
      </g>
     </g>
     <g id="text_2">
      <!-- 01 Apr -->
      <g transform="translate(90.186704 491.116875)scale(0.1 -0.1)">
       <defs>
        <path d="M 755 0 
L 164 0 
L 1873 4655 
L 2455 4655 
L 4164 0 
L 3573 0 
L 3105 1318 
L 1223 1318 
L 755 0 
z
M 1400 1818 
L 2927 1818 
L 2182 3918 
L 2146 3918 
L 1400 1818 
z
" id="Inter-Regular-41" transform="scale(0.015625)"/>
        <path d="M 491 -1309 
L 491 3491 
L 1009 3491 
L 1009 2936 
L 1073 2936 
Q 1132 3027 1237 3169 
Q 1343 3311 1542 3423 
Q 1741 3536 2082 3536 
Q 2523 3536 2859 3315 
Q 3196 3095 3384 2690 
Q 3573 2286 3573 1736 
Q 3573 1182 3384 776 
Q 3196 370 2861 148 
Q 2527 -73 2091 -73 
Q 1755 -73 1552 39 
Q 1350 152 1241 296 
Q 1132 441 1073 536 
L 1027 536 
L 1027 -1309 
L 491 -1309 
z
M 1018 1745 
Q 1018 1152 1276 780 
Q 1534 409 2018 409 
Q 2355 409 2581 587 
Q 2807 766 2921 1069 
Q 3036 1373 3036 1745 
Q 3036 2114 2923 2410 
Q 2811 2707 2585 2881 
Q 2359 3055 2018 3055 
Q 1527 3055 1272 2693 
Q 1018 2332 1018 1745 
z
" id="Inter-Regular-70" transform="scale(0.015625)"/>
       </defs>
       <use xlink:href="#Inter-Regular-30"/>
       <use x="62.500015" xlink:href="#Inter-Regular-31"/>
       <use x="106.676163" xlink:href="#Inter-Regular-20"/>
       <use x="134.801163" xlink:href="#Inter-Regular-41"/>
       <use x="202.41481" xlink:href="#Inter-Regular-70"/>
       <use x="263.352325" xlink:href="#Inter-Regular-72"/>
      </g>
     </g>
    </g>
    <g id="xtick_3">
     <g id="line2d_3">
      <g>
       <use style="stroke:#000000;stroke-width:0.8;" x="155.659446" xlink:href="#m4e283fabc4" y="476.745"/>
      </g>
     </g>
     <g id="text_3">
      <!-- 01 May -->
      <g transform="translate(138.756321 491.116875)scale(0.1 -0.1)">
       <defs>
        <path d="M 818 -1355 
Q 682 -1355 575 -1333 
Q 468 -1311 427 -1291 
L 564 -818 
Q 857 -893 1053 -814 
Q 1250 -736 1391 -345 
L 1509 -18 
L 218 3491 
L 800 3491 
L 1764 709 
L 1800 709 
L 2764 3491 
L 3346 3491 
L 1846 -564 
Q 1550 -1355 818 -1355 
z
" id="Inter-Regular-79" transform="scale(0.015625)"/>
       </defs>
       <use xlink:href="#Inter-Regular-30"/>
       <use x="62.500015" xlink:href="#Inter-Regular-31"/>
       <use x="106.676163" xlink:href="#Inter-Regular-20"/>
       <use x="134.801163" xlink:href="#Inter-Regular-4d"/>
       <use x="225.99437" xlink:href="#Inter-Regular-61"/>
       <use x="282.386429" xlink:href="#Inter-Regular-79"/>
      </g>
     </g>
    </g>
    <g id="xtick_4">
     <g id="line2d_4">
      <g>
       <use style="stroke:#000000;stroke-width:0.8;" x="207.726619" xlink:href="#m4e283fabc4" y="476.745"/>
      </g>
     </g>
     <g id="text_4">
      <!-- 01 Jun -->
      <g transform="translate(192.442244 491.018438)scale(0.1 -0.1)">
       <defs>
        <path d="M 2346 4655 
L 2909 4655 
L 2909 1327 
Q 2909 657 2549 296 
Q 2189 -64 1582 -64 
Q 1200 -64 902 76 
Q 605 216 434 475 
Q 264 734 264 1091 
L 818 1091 
Q 818 795 1034 615 
Q 1250 436 1582 436 
Q 1948 436 2147 664 
Q 2346 893 2346 1327 
L 2346 4655 
z
" id="Inter-Regular-4a" transform="scale(0.015625)"/>
        <path d="M 2691 1427 
L 2691 3491 
L 3227 3491 
L 3227 0 
L 2691 0 
L 2691 591 
L 2655 591 
Q 2532 325 2273 140 
Q 2014 -45 1618 -45 
Q 1127 -45 809 280 
Q 491 605 491 1273 
L 491 3491 
L 1027 3491 
L 1027 1309 
Q 1027 927 1242 700 
Q 1457 473 1791 473 
Q 1991 473 2199 575 
Q 2407 677 2549 888 
Q 2691 1100 2691 1427 
z
" id="Inter-Regular-75" transform="scale(0.015625)"/>
        <path d="M 1027 2100 
L 1027 0 
L 491 0 
L 491 3491 
L 1009 3491 
L 1009 2945 
L 1055 2945 
Q 1177 3211 1427 3373 
Q 1677 3536 2073 3536 
Q 2602 3536 2928 3211 
Q 3255 2886 3255 2218 
L 3255 0 
L 2718 0 
L 2718 2182 
Q 2718 2593 2504 2824 
Q 2291 3055 1918 3055 
Q 1534 3055 1280 2806 
Q 1027 2557 1027 2100 
z
" id="Inter-Regular-6e" transform="scale(0.015625)"/>
       </defs>
       <use xlink:href="#Inter-Regular-30"/>
       <use x="62.500015" xlink:href="#Inter-Regular-31"/>
       <use x="106.676163" xlink:href="#Inter-Regular-20"/>
       <use x="134.801163" xlink:href="#Inter-Regular-4a"/>
       <use x="189.062531" xlink:href="#Inter-Regular-75"/>
       <use x="247.159134" xlink:href="#Inter-Regular-6e"/>
      </g>
     </g>
    </g>
    <g id="xtick_5">
     <g id="line2d_5">
      <g>
       <use style="stroke:#000000;stroke-width:0.8;" x="258.114205" xlink:href="#m4e283fabc4" y="476.745"/>
      </g>
     </g>
     <g id="text_5">
      <!-- 01 Jul -->
      <g transform="translate(244.570455 491.018438)scale(0.1 -0.1)">
       <defs>
        <path d="M 1027 4655 
L 1027 0 
L 491 0 
L 491 4655 
L 1027 4655 
z
" id="Inter-Regular-6c" transform="scale(0.015625)"/>
       </defs>
       <use xlink:href="#Inter-Regular-30"/>
       <use x="62.500015" xlink:href="#Inter-Regular-31"/>
       <use x="106.676163" xlink:href="#Inter-Regular-20"/>
       <use x="134.801163" xlink:href="#Inter-Regular-4a"/>
       <use x="189.062531" xlink:href="#Inter-Regular-75"/>
       <use x="247.159134" xlink:href="#Inter-Regular-6c"/>
      </g>
     </g>
    </g>
    <g id="xtick_6">
     <g id="line2d_6">
      <g>
       <use style="stroke:#000000;stroke-width:0.8;" x="310.181377" xlink:href="#m4e283fabc4" y="476.745"/>
      </g>
     </g>
     <g id="text_6">
      <!-- 01 Aug -->
      <g transform="translate(294.109502 491.116875)scale(0.1 -0.1)">
       <defs>
        <path d="M 1900 -1382 
Q 1316 -1382 976 -1169 
Q 636 -957 473 -682 
L 900 -382 
Q 973 -477 1084 -601 
Q 1196 -725 1390 -817 
Q 1584 -909 1900 -909 
Q 2323 -909 2598 -704 
Q 2873 -500 2873 -64 
L 2873 645 
L 2827 645 
Q 2768 550 2660 410 
Q 2552 270 2351 162 
Q 2150 55 1809 55 
Q 1386 55 1051 255 
Q 716 455 521 836 
Q 327 1218 327 1764 
Q 327 2300 516 2699 
Q 705 3098 1041 3317 
Q 1377 3536 1818 3536 
Q 2159 3536 2360 3423 
Q 2561 3311 2669 3169 
Q 2777 3027 2836 2936 
L 2891 2936 
L 2891 3491 
L 3409 3491 
L 3409 -100 
Q 3409 -550 3205 -833 
Q 3002 -1116 2660 -1249 
Q 2318 -1382 1900 -1382 
z
M 1882 536 
Q 2366 536 2624 864 
Q 2882 1193 2882 1773 
Q 2882 2339 2627 2697 
Q 2373 3055 1882 3055 
Q 1541 3055 1315 2882 
Q 1089 2709 976 2418 
Q 864 2127 864 1773 
Q 864 1227 1120 881 
Q 1377 536 1882 536 
z
" id="Inter-Regular-67" transform="scale(0.015625)"/>
       </defs>
       <use xlink:href="#Inter-Regular-30"/>
       <use x="62.500015" xlink:href="#Inter-Regular-31"/>
       <use x="106.676163" xlink:href="#Inter-Regular-20"/>
       <use x="134.801163" xlink:href="#Inter-Regular-41"/>
       <use x="202.41481" xlink:href="#Inter-Regular-75"/>
       <use x="260.511414" xlink:href="#Inter-Regular-67"/>
      </g>
     </g>
    </g>
    <g id="xtick_7">
     <g id="line2d_7">
      <g>
       <use style="stroke:#000000;stroke-width:0.8;" x="362.24855" xlink:href="#m4e283fabc4" y="476.745"/>
      </g>
     </g>
     <g id="text_7">
      <!-- 01 Sep -->
      <g transform="translate(346.36105 491.116875)scale(0.1 -0.1)">
       <defs>
        <path d="M 3109 3491 
Q 3068 3836 2777 4027 
Q 2486 4218 2064 4218 
Q 1600 4218 1318 3999 
Q 1036 3780 1036 3445 
Q 1036 3195 1189 3042 
Q 1343 2889 1553 2803 
Q 1764 2718 1936 2673 
L 2409 2545 
Q 2591 2498 2815 2414 
Q 3039 2330 3244 2185 
Q 3450 2041 3584 1816 
Q 3718 1591 3718 1264 
Q 3718 886 3521 581 
Q 3325 277 2949 97 
Q 2573 -82 2036 -82 
Q 1286 -82 845 272 
Q 405 627 364 1200 
L 946 1200 
Q 968 936 1124 764 
Q 1280 593 1519 510 
Q 1759 427 2036 427 
Q 2359 427 2616 533 
Q 2873 639 3023 828 
Q 3173 1018 3173 1273 
Q 3173 1505 3043 1650 
Q 2914 1795 2702 1886 
Q 2491 1977 2246 2045 
L 1673 2209 
Q 1127 2366 809 2657 
Q 491 2948 491 3418 
Q 491 3809 703 4101 
Q 916 4393 1276 4555 
Q 1636 4718 2082 4718 
Q 2532 4718 2882 4558 
Q 3232 4398 3437 4120 
Q 3643 3843 3655 3491 
L 3109 3491 
z
" id="Inter-Regular-53" transform="scale(0.015625)"/>
        <path d="M 1955 -73 
Q 1450 -73 1085 151 
Q 721 375 524 778 
Q 327 1182 327 1718 
Q 327 2255 524 2665 
Q 721 3075 1074 3305 
Q 1427 3536 1900 3536 
Q 2173 3536 2439 3445 
Q 2705 3355 2923 3151 
Q 3141 2948 3270 2614 
Q 3400 2280 3400 1791 
L 3400 1564 
L 866 1564 
Q 884 1005 1183 707 
Q 1482 409 1955 409 
Q 2271 409 2498 545 
Q 2725 682 2827 955 
L 3346 809 
Q 3223 414 2854 170 
Q 2486 -73 1955 -73 
z
M 866 2027 
L 2855 2027 
Q 2855 2470 2595 2762 
Q 2336 3055 1900 3055 
Q 1593 3055 1368 2911 
Q 1143 2768 1013 2533 
Q 884 2298 866 2027 
z
" id="Inter-Regular-65" transform="scale(0.015625)"/>
       </defs>
       <use xlink:href="#Inter-Regular-30"/>
       <use x="62.500015" xlink:href="#Inter-Regular-31"/>
       <use x="106.676163" xlink:href="#Inter-Regular-20"/>
       <use x="134.801163" xlink:href="#Inter-Regular-53"/>
       <use x="198.57959" xlink:href="#Inter-Regular-65"/>
       <use x="256.818237" xlink:href="#Inter-Regular-70"/>
      </g>
     </g>
    </g>
    <g id="xtick_8">
     <g id="line2d_8">
      <g>
       <use style="stroke:#000000;stroke-width:0.8;" x="412.636136" xlink:href="#m4e283fabc4" y="476.745"/>
      </g>
     </g>
     <g id="text_8">
      <!-- 01 Oct -->
      <g transform="translate(397.479886 491.018438)scale(0.1 -0.1)">
       <defs>
        <path d="M 4491 2327 
Q 4491 1591 4225 1054 
Q 3959 518 3495 227 
Q 3032 -64 2436 -64 
Q 1841 -64 1377 227 
Q 914 518 648 1054 
Q 382 1591 382 2327 
Q 382 3064 648 3600 
Q 914 4136 1377 4427 
Q 1841 4718 2436 4718 
Q 3032 4718 3495 4427 
Q 3959 4136 4225 3600 
Q 4491 3064 4491 2327 
z
M 3946 2327 
Q 3946 2932 3744 3348 
Q 3543 3764 3201 3977 
Q 2859 4191 2436 4191 
Q 2014 4191 1672 3977 
Q 1330 3764 1128 3348 
Q 927 2932 927 2327 
Q 927 1723 1128 1307 
Q 1330 891 1672 677 
Q 2014 464 2436 464 
Q 2859 464 3201 677 
Q 3543 891 3744 1307 
Q 3946 1723 3946 2327 
z
" id="Inter-Regular-4f" transform="scale(0.015625)"/>
        <path d="M 1909 -73 
Q 1418 -73 1063 159 
Q 709 391 518 798 
Q 327 1205 327 1727 
Q 327 2259 524 2667 
Q 721 3075 1074 3305 
Q 1427 3536 1900 3536 
Q 2268 3536 2563 3400 
Q 2859 3264 3047 3018 
Q 3236 2773 3282 2445 
L 2746 2445 
Q 2684 2684 2474 2869 
Q 2264 3055 1909 3055 
Q 1439 3055 1151 2697 
Q 864 2339 864 1745 
Q 864 1139 1148 774 
Q 1432 409 1909 409 
Q 2223 409 2447 570 
Q 2671 732 2746 1018 
L 3282 1018 
Q 3236 709 3058 462 
Q 2880 216 2588 71 
Q 2296 -73 1909 -73 
z
" id="Inter-Regular-63" transform="scale(0.015625)"/>
        <path d="M 2009 3491 
L 2009 3036 
L 1264 3036 
L 1264 1000 
Q 1264 773 1331 660 
Q 1398 548 1503 510 
Q 1609 473 1727 473 
Q 1816 473 1873 483 
Q 1930 493 1964 500 
L 2073 18 
Q 2018 -2 1920 -23 
Q 1823 -45 1673 -45 
Q 1446 -45 1228 52 
Q 1011 150 869 350 
Q 727 550 727 855 
L 727 3036 
L 200 3036 
L 200 3491 
L 727 3491 
L 727 4327 
L 1264 4327 
L 1264 3491 
L 2009 3491 
z
" id="Inter-Regular-74" transform="scale(0.015625)"/>
       </defs>
       <use xlink:href="#Inter-Regular-30"/>
       <use x="62.500015" xlink:href="#Inter-Regular-31"/>
       <use x="106.676163" xlink:href="#Inter-Regular-20"/>
       <use x="134.801163" xlink:href="#Inter-Regular-4f"/>
       <use x="210.937546" xlink:href="#Inter-Regular-63"/>
       <use x="266.761414" xlink:href="#Inter-Regular-74"/>
      </g>
     </g>
    </g>
    <g id="xtick_9">
     <g id="line2d_9">
      <g>
       <use style="stroke:#000000;stroke-width:0.8;" x="464.703308" xlink:href="#m4e283fabc4" y="476.745"/>
      </g>
     </g>
     <g id="text_9">
      <!-- 01 Nov -->
      <g transform="translate(448.432215 491.018438)scale(0.1 -0.1)">
       <defs>
        <path d="M 4255 4655 
L 4255 0 
L 3709 0 
L 1173 3655 
L 1127 3655 
L 1127 0 
L 564 0 
L 564 4655 
L 1109 4655 
L 3655 991 
L 3700 991 
L 3700 4655 
L 4255 4655 
z
" id="Inter-Regular-4e" transform="scale(0.015625)"/>
        <path d="M 1909 -73 
Q 1436 -73 1080 152 
Q 725 377 526 781 
Q 327 1186 327 1727 
Q 327 2273 526 2679 
Q 725 3086 1080 3311 
Q 1436 3536 1909 3536 
Q 2382 3536 2737 3311 
Q 3093 3086 3292 2679 
Q 3491 2273 3491 1727 
Q 3491 1186 3292 781 
Q 3093 377 2737 152 
Q 2382 -73 1909 -73 
z
M 1909 409 
Q 2268 409 2500 593 
Q 2732 777 2843 1077 
Q 2955 1377 2955 1727 
Q 2955 2077 2843 2379 
Q 2732 2682 2500 2868 
Q 2268 3055 1909 3055 
Q 1550 3055 1318 2868 
Q 1086 2682 975 2379 
Q 864 2077 864 1727 
Q 864 1377 975 1077 
Q 1086 777 1318 593 
Q 1550 409 1909 409 
z
" id="Inter-Regular-6f" transform="scale(0.015625)"/>
        <path d="M 3346 3491 
L 2055 0 
L 1509 0 
L 218 3491 
L 800 3491 
L 1764 709 
L 1800 709 
L 2764 3491 
L 3346 3491 
z
" id="Inter-Regular-76" transform="scale(0.015625)"/>
       </defs>
       <use xlink:href="#Inter-Regular-30"/>
       <use x="62.500015" xlink:href="#Inter-Regular-31"/>
       <use x="106.676163" xlink:href="#Inter-Regular-20"/>
       <use x="134.801163" xlink:href="#Inter-Regular-4e"/>
       <use x="210.085266" xlink:href="#Inter-Regular-6f"/>
       <use x="269.74437" xlink:href="#Inter-Regular-76"/>
      </g>
     </g>
    </g>
    <g id="xtick_10">
     <g id="line2d_10">
      <g>
       <use style="stroke:#000000;stroke-width:0.8;" x="515.090895" xlink:href="#m4e283fabc4" y="476.745"/>
      </g>
     </g>
     <g id="text_10">
      <!-- 01 Dec -->
      <g transform="translate(499.054176 491.018438)scale(0.1 -0.1)">
       <defs>
        <path d="M 2000 0 
L 564 0 
L 564 4655 
L 2064 4655 
Q 2741 4655 3223 4376 
Q 3705 4098 3961 3578 
Q 4218 3059 4218 2336 
Q 4218 1609 3959 1085 
Q 3700 561 3204 280 
Q 2709 0 2000 0 
z
M 1127 500 
L 1964 500 
Q 2830 500 3251 992 
Q 3673 1484 3673 2336 
Q 3673 3182 3259 3668 
Q 2846 4155 2027 4155 
L 1127 4155 
L 1127 500 
z
" id="Inter-Regular-44" transform="scale(0.015625)"/>
       </defs>
       <use xlink:href="#Inter-Regular-30"/>
       <use x="62.500015" xlink:href="#Inter-Regular-31"/>
       <use x="106.676163" xlink:href="#Inter-Regular-20"/>
       <use x="134.801163" xlink:href="#Inter-Regular-44"/>
       <use x="206.676178" xlink:href="#Inter-Regular-65"/>
       <use x="264.914825" xlink:href="#Inter-Regular-63"/>
      </g>
     </g>
    </g>
    <g id="xtick_11">
     <g id="line2d_11">
      <g>
       <use style="stroke:#000000;stroke-width:0.8;" x="567.158067" xlink:href="#m4e283fabc4" y="476.745"/>
      </g>
     </g>
     <g id="text_11">
      <!-- 01 Jan -->
      <g transform="translate(551.958848 491.018438)scale(0.1 -0.1)">
       <use xlink:href="#Inter-Regular-30"/>
       <use x="62.500015" xlink:href="#Inter-Regular-31"/>
       <use x="106.676163" xlink:href="#Inter-Regular-20"/>
       <use x="134.801163" xlink:href="#Inter-Regular-4a"/>
       <use x="189.062531" xlink:href="#Inter-Regular-61"/>
       <use x="245.45459" xlink:href="#Inter-Regular-6e"/>
      </g>
     </g>
    </g>
    <g id="xtick_12">
     <g id="line2d_12">
      <g>
       <use style="stroke:#000000;stroke-width:0.8;" x="619.225239" xlink:href="#m4e283fabc4" y="476.745"/>
      </g>
     </g>
     <g id="text_12">
      <!-- 01 Feb -->
      <g transform="translate(603.536177 491.018438)scale(0.1 -0.1)">
       <defs>
        <path d="M 564 0 
L 564 4655 
L 3355 4655 
L 3355 4155 
L 1127 4155 
L 1127 2582 
L 3146 2582 
L 3146 2082 
L 1127 2082 
L 1127 0 
L 564 0 
z
" id="Inter-Regular-46" transform="scale(0.015625)"/>
        <path d="M 564 0 
L 564 4655 
L 1100 4655 
L 1100 2936 
L 1146 2936 
Q 1205 3027 1310 3169 
Q 1416 3311 1615 3423 
Q 1814 3536 2155 3536 
Q 2596 3536 2932 3315 
Q 3268 3095 3457 2690 
Q 3646 2286 3646 1736 
Q 3646 1182 3457 776 
Q 3268 370 2934 148 
Q 2600 -73 2164 -73 
Q 1827 -73 1625 39 
Q 1423 152 1314 296 
Q 1205 441 1146 536 
L 1082 536 
L 1082 0 
L 564 0 
z
M 1091 1745 
Q 1091 1152 1349 780 
Q 1607 409 2091 409 
Q 2427 409 2653 587 
Q 2880 766 2994 1069 
Q 3109 1373 3109 1745 
Q 3109 2114 2996 2410 
Q 2884 2707 2658 2881 
Q 2432 3055 2091 3055 
Q 1600 3055 1345 2693 
Q 1091 2332 1091 1745 
z
" id="Inter-Regular-62" transform="scale(0.015625)"/>
       </defs>
       <use xlink:href="#Inter-Regular-30"/>
       <use x="62.500015" xlink:href="#Inter-Regular-31"/>
       <use x="106.676163" xlink:href="#Inter-Regular-20"/>
       <use x="134.801163" xlink:href="#Inter-Regular-46"/>
       <use x="193.465942" xlink:href="#Inter-Regular-65"/>
       <use x="251.70459" xlink:href="#Inter-Regular-62"/>
      </g>
     </g>
    </g>
    <g id="xtick_13">
     <g id="line2d_13">
      <g>
       <use style="stroke:#000000;stroke-width:0.8;" x="666.253653" xlink:href="#m4e283fabc4" y="476.745"/>
      </g>
     </g>
     <g id="text_13">
      <!-- 01 Mar -->
      <g transform="translate(650.216935 491.018438)scale(0.1 -0.1)">
       <use xlink:href="#Inter-Regular-30"/>
       <use x="62.500015" xlink:href="#Inter-Regular-31"/>
       <use x="106.676163" xlink:href="#Inter-Regular-20"/>
       <use x="134.801163" xlink:href="#Inter-Regular-4d"/>
       <use x="225.99437" xlink:href="#Inter-Regular-61"/>
       <use x="282.386429" xlink:href="#Inter-Regular-72"/>
      </g>
     </g>
    </g>
    <g id="xtick_14">
     <g id="line2d_14">
      <g>
       <use style="stroke:#000000;stroke-width:0.8;" x="718.320826" xlink:href="#m4e283fabc4" y="476.745"/>
      </g>
     </g>
     <g id="text_14">
      <!-- 01 Apr -->
      <g transform="translate(703.235669 491.116875)scale(0.1 -0.1)">
       <use xlink:href="#Inter-Regular-30"/>
       <use x="62.500015" xlink:href="#Inter-Regular-31"/>
       <use x="106.676163" xlink:href="#Inter-Regular-20"/>
       <use x="134.801163" xlink:href="#Inter-Regular-41"/>
       <use x="202.41481" xlink:href="#Inter-Regular-70"/>
       <use x="263.352325" xlink:href="#Inter-Regular-72"/>
      </g>
     </g>
    </g>
   </g>
   <g id="matplotlib.axis_2">
    <g id="ytick_1">
     <g id="line2d_15">
      <path clip-path="url(#p798344b024)" d="M 53.204688 476.745 
L 722.804688 476.745 
" style="fill:none;stroke:#e5e5e5;stroke-linecap:square;stroke-width:0.8;"/>
     </g>
     <g id="line2d_16">
      <defs>
       <path d="M 0 0 
L -3.5 0 
" id="m1f922a2a18" style="stroke:#000000;stroke-width:0.8;"/>
      </defs>
      <g>
       <use style="stroke:#000000;stroke-width:0.8;" x="53.204688" xlink:href="#m1f922a2a18" y="476.745"/>
      </g>
     </g>
     <g id="text_15">
      <!-- 0% -->
      <g transform="translate(31.829688 480.381719)scale(0.1 -0.1)">
       <defs>
        <path d="M 2855 873 
L 2855 1118 
Q 2855 1373 2960 1585 
Q 3066 1798 3269 1926 
Q 3473 2055 3764 2055 
Q 4059 2055 4259 1926 
Q 4459 1798 4561 1585 
Q 4664 1373 4664 1118 
L 4664 873 
Q 4664 618 4560 405 
Q 4457 193 4256 64 
Q 4055 -64 3764 -64 
Q 3468 -64 3266 64 
Q 3064 193 2959 405 
Q 2855 618 2855 873 
z
M 536 3536 
L 536 3782 
Q 536 4036 642 4248 
Q 748 4461 951 4589 
Q 1155 4718 1446 4718 
Q 1741 4718 1941 4589 
Q 2141 4461 2243 4248 
Q 2346 4036 2346 3782 
L 2346 3536 
Q 2346 3282 2242 3069 
Q 2139 2857 1937 2728 
Q 1736 2600 1446 2600 
Q 1150 2600 948 2728 
Q 746 2857 641 3069 
Q 536 3282 536 3536 
z
M 709 0 
L 3909 4655 
L 4427 4655 
L 1227 0 
L 709 0 
z
M 3318 1118 
L 3318 873 
Q 3318 661 3418 494 
Q 3518 327 3764 327 
Q 4002 327 4101 494 
Q 4200 661 4200 873 
L 4200 1118 
Q 4200 1330 4104 1497 
Q 4009 1664 3764 1664 
Q 3525 1664 3421 1497 
Q 3318 1330 3318 1118 
z
M 1000 3782 
L 1000 3536 
Q 1000 3325 1100 3158 
Q 1200 2991 1446 2991 
Q 1684 2991 1783 3158 
Q 1882 3325 1882 3536 
L 1882 3782 
Q 1882 3993 1786 4160 
Q 1691 4327 1446 4327 
Q 1207 4327 1103 4160 
Q 1000 3993 1000 3782 
z
" id="Inter-Regular-25" transform="scale(0.015625)"/>
       </defs>
       <use xlink:href="#Inter-Regular-30"/>
       <use x="62.500015" xlink:href="#Inter-Regular-25"/>
      </g>
     </g>
    </g>
    <g id="ytick_2">
     <g id="line2d_17">
      <path clip-path="url(#p798344b024)" d="M 53.204688 413.015902 
L 722.804688 413.015902 
" style="fill:none;stroke:#e5e5e5;stroke-linecap:square;stroke-width:0.8;"/>
     </g>
     <g id="line2d_18">
      <g>
       <use style="stroke:#000000;stroke-width:0.8;" x="53.204688" xlink:href="#m1f922a2a18" y="413.015902"/>
      </g>
     </g>
     <g id="text_16">
      <!-- 1% -->
      <g transform="translate(33.6625 416.65262)scale(0.1 -0.1)">
       <use xlink:href="#Inter-Regular-31"/>
       <use x="44.176147" xlink:href="#Inter-Regular-25"/>
      </g>
     </g>
    </g>
    <g id="ytick_3">
     <g id="line2d_19">
      <path clip-path="url(#p798344b024)" d="M 53.204688 349.286803 
L 722.804688 349.286803 
" style="fill:none;stroke:#e5e5e5;stroke-linecap:square;stroke-width:0.8;"/>
     </g>
     <g id="line2d_20">
      <g>
       <use style="stroke:#000000;stroke-width:0.8;" x="53.204688" xlink:href="#m1f922a2a18" y="349.286803"/>
      </g>
     </g>
     <g id="text_17">
      <!-- 2% -->
      <g transform="translate(32.028125 352.923522)scale(0.1 -0.1)">
       <defs>
        <path d="M 482 0 
L 482 409 
L 2018 2091 
Q 2289 2386 2464 2605 
Q 2639 2825 2724 3019 
Q 2809 3214 2809 3427 
Q 2809 3795 2553 4011 
Q 2298 4227 1918 4227 
Q 1514 4227 1275 3985 
Q 1036 3743 1036 3345 
L 500 3345 
Q 500 3755 688 4064 
Q 877 4373 1203 4545 
Q 1530 4718 1936 4718 
Q 2346 4718 2661 4545 
Q 2977 4373 3156 4079 
Q 3336 3786 3336 3427 
Q 3336 3170 3244 2926 
Q 3152 2682 2926 2383 
Q 2700 2084 2300 1655 
L 1255 536 
L 1255 500 
L 3418 500 
L 3418 0 
L 482 0 
z
" id="Inter-Regular-32" transform="scale(0.015625)"/>
       </defs>
       <use xlink:href="#Inter-Regular-32"/>
       <use x="60.511383" xlink:href="#Inter-Regular-25"/>
      </g>
     </g>
    </g>
    <g id="ytick_4">
     <g id="line2d_21">
      <path clip-path="url(#p798344b024)" d="M 53.204688 285.557705 
L 722.804688 285.557705 
" style="fill:none;stroke:#e5e5e5;stroke-linecap:square;stroke-width:0.8;"/>
     </g>
     <g id="line2d_22">
      <g>
       <use style="stroke:#000000;stroke-width:0.8;" x="53.204688" xlink:href="#m1f922a2a18" y="285.557705"/>
      </g>
     </g>
     <g id="text_18">
      <!-- 3% -->
      <g transform="translate(31.715625 289.194423)scale(0.1 -0.1)">
       <defs>
        <path d="M 2055 -64 
Q 1605 -64 1253 90 
Q 902 245 696 521 
Q 491 798 473 1164 
L 1046 1164 
Q 1071 827 1356 631 
Q 1641 436 2046 436 
Q 2493 436 2783 664 
Q 3073 893 3073 1264 
Q 3073 1650 2787 1893 
Q 2502 2136 1973 2136 
L 1600 2136 
L 1600 2636 
L 1973 2636 
Q 2386 2636 2647 2856 
Q 2909 3077 2909 3445 
Q 2909 3798 2679 4012 
Q 2450 4227 2064 4227 
Q 1823 4227 1610 4139 
Q 1398 4052 1264 3887 
Q 1130 3723 1118 3491 
L 573 3491 
Q 586 3857 793 4133 
Q 1000 4409 1335 4563 
Q 1671 4718 2073 4718 
Q 2505 4718 2814 4544 
Q 3123 4370 3289 4086 
Q 3455 3802 3455 3473 
Q 3455 3080 3249 2802 
Q 3043 2525 2691 2418 
L 2691 2382 
Q 3132 2309 3379 2008 
Q 3627 1707 3627 1264 
Q 3627 884 3421 583 
Q 3216 282 2861 109 
Q 2507 -64 2055 -64 
z
" id="Inter-Regular-33" transform="scale(0.015625)"/>
       </defs>
       <use xlink:href="#Inter-Regular-33"/>
       <use x="63.636383" xlink:href="#Inter-Regular-25"/>
      </g>
     </g>
    </g>
    <g id="ytick_5">
     <g id="line2d_23">
      <path clip-path="url(#p798344b024)" d="M 53.204688 221.828606 
L 722.804688 221.828606 
" style="fill:none;stroke:#e5e5e5;stroke-linecap:square;stroke-width:0.8;"/>
     </g>
     <g id="line2d_24">
      <g>
       <use style="stroke:#000000;stroke-width:0.8;" x="53.204688" xlink:href="#m1f922a2a18" y="221.828606"/>
      </g>
     </g>
     <g id="text_19">
      <!-- 4% -->
      <g transform="translate(31.659375 225.465325)scale(0.1 -0.1)">
       <defs>
        <path d="M 373 955 
L 373 1418 
L 2418 4655 
L 3100 4655 
L 3100 1455 
L 3736 1455 
L 3736 955 
L 3100 955 
L 3100 0 
L 2564 0 
L 2564 955 
L 373 955 
z
M 2564 1455 
L 2564 3936 
L 2527 3936 
L 982 1491 
L 982 1455 
L 2564 1455 
z
" id="Inter-Regular-34" transform="scale(0.015625)"/>
       </defs>
       <use xlink:href="#Inter-Regular-34"/>
       <use x="64.204559" xlink:href="#Inter-Regular-25"/>
      </g>
     </g>
    </g>
    <g id="ytick_6">
     <g id="line2d_25">
      <path clip-path="url(#p798344b024)" d="M 53.204688 158.099508 
L 722.804688 158.099508 
" style="fill:none;stroke:#e5e5e5;stroke-linecap:square;stroke-width:0.8;"/>
     </g>
     <g id="line2d_26">
      <g>
       <use style="stroke:#000000;stroke-width:0.8;" x="53.204688" xlink:href="#m1f922a2a18" y="158.099508"/>
      </g>
     </g>
     <g id="text_20">
      <!-- 5% -->
      <g transform="translate(32 161.736226)scale(0.1 -0.1)">
       <defs>
        <path d="M 1936 -64 
Q 1536 -64 1216 95 
Q 896 255 702 532 
Q 509 809 491 1164 
L 1036 1164 
Q 1068 848 1324 642 
Q 1580 436 1936 436 
Q 2223 436 2447 570 
Q 2671 705 2799 940 
Q 2927 1175 2927 1473 
Q 2927 1777 2794 2017 
Q 2661 2257 2429 2395 
Q 2198 2534 1900 2536 
Q 1686 2539 1461 2472 
Q 1236 2405 1091 2300 
L 564 2364 
L 846 4655 
L 3264 4655 
L 3264 4155 
L 1318 4155 
L 1155 2782 
L 1182 2782 
Q 1325 2895 1541 2970 
Q 1757 3045 1991 3045 
Q 2418 3045 2753 2842 
Q 3089 2639 3281 2286 
Q 3473 1934 3473 1482 
Q 3473 1036 3274 687 
Q 3075 339 2727 137 
Q 2380 -64 1936 -64 
z
" id="Inter-Regular-35" transform="scale(0.015625)"/>
       </defs>
       <use xlink:href="#Inter-Regular-35"/>
       <use x="60.795471" xlink:href="#Inter-Regular-25"/>
      </g>
     </g>
    </g>
    <g id="ytick_7">
     <g id="line2d_27">
      <path clip-path="url(#p798344b024)" d="M 53.204688 94.370409 
L 722.804688 94.370409 
" style="fill:none;stroke:#e5e5e5;stroke-linecap:square;stroke-width:0.8;"/>
     </g>
     <g id="line2d_28">
      <g>
       <use style="stroke:#000000;stroke-width:0.8;" x="53.204688" xlink:href="#m1f922a2a18" y="94.370409"/>
      </g>
     </g>
     <g id="text_21">
      <!-- 6% -->
      <g transform="translate(31.84375 98.007128)scale(0.1 -0.1)">
       <defs>
        <path d="M 2027 -64 
Q 1741 -59 1454 45 
Q 1168 150 932 399 
Q 696 648 552 1074 
Q 409 1500 409 2145 
Q 409 3386 861 4056 
Q 1314 4727 2100 4727 
Q 2686 4727 3073 4384 
Q 3461 4041 3546 3491 
L 2991 3491 
Q 2914 3811 2691 4019 
Q 2468 4227 2100 4227 
Q 1559 4227 1249 3755 
Q 939 3284 936 2427 
L 973 2427 
Q 1164 2716 1461 2880 
Q 1759 3045 2118 3045 
Q 2518 3045 2850 2846 
Q 3182 2648 3382 2299 
Q 3582 1950 3582 1500 
Q 3582 1068 3389 710 
Q 3196 352 2847 142 
Q 2498 -68 2027 -64 
z
M 2027 436 
Q 2314 436 2542 579 
Q 2771 723 2903 964 
Q 3036 1205 3036 1500 
Q 3036 1789 2908 2026 
Q 2780 2264 2556 2404 
Q 2332 2545 2046 2545 
Q 1757 2545 1525 2397 
Q 1293 2250 1157 2010 
Q 1021 1770 1018 1491 
Q 1018 1214 1149 973 
Q 1280 732 1508 584 
Q 1736 436 2027 436 
z
" id="Inter-Regular-36" transform="scale(0.015625)"/>
       </defs>
       <use xlink:href="#Inter-Regular-36"/>
       <use x="62.357971" xlink:href="#Inter-Regular-25"/>
      </g>
     </g>
    </g>
    <g id="text_22">
     <!-- Percent of nation tested positive -->
     <g transform="translate(25.614063 332.215469)rotate(-90)scale(0.1 -0.1)">
      <defs>
       <path d="M 564 0 
L 564 4655 
L 2136 4655 
Q 2684 4655 3033 4458 
Q 3382 4261 3550 3927 
Q 3718 3593 3718 3182 
Q 3718 2770 3551 2434 
Q 3384 2098 3036 1899 
Q 2689 1700 2146 1700 
L 1127 1700 
L 1127 0 
L 564 0 
z
M 1127 2200 
L 2127 2200 
Q 2689 2200 2926 2482 
Q 3164 2764 3164 3182 
Q 3164 3602 2925 3878 
Q 2686 4155 2118 4155 
L 1127 4155 
L 1127 2200 
z
" id="Inter-Regular-50" transform="scale(0.015625)"/>
       <path d="M 2046 3491 
L 2046 3036 
L 1264 3036 
L 1264 0 
L 727 0 
L 727 3036 
L 164 3036 
L 164 3491 
L 727 3491 
L 727 3973 
Q 727 4273 868 4473 
Q 1009 4673 1234 4773 
Q 1459 4873 1709 4873 
Q 1907 4873 2032 4841 
Q 2157 4809 2218 4782 
L 2064 4318 
Q 2023 4332 1951 4352 
Q 1880 4373 1764 4373 
Q 1498 4373 1381 4239 
Q 1264 4105 1264 3845 
L 1264 3491 
L 2046 3491 
z
" id="Inter-Regular-66" transform="scale(0.015625)"/>
       <path d="M 491 0 
L 491 3491 
L 1027 3491 
L 1027 0 
L 491 0 
z
M 764 4073 
Q 607 4073 494 4179 
Q 382 4286 382 4436 
Q 382 4586 494 4693 
Q 607 4800 764 4800 
Q 921 4800 1033 4693 
Q 1146 4586 1146 4436 
Q 1146 4286 1033 4179 
Q 921 4073 764 4073 
z
" id="Inter-Regular-69" transform="scale(0.015625)"/>
       <path d="M 2964 2709 
L 2482 2573 
Q 2411 2755 2245 2914 
Q 2080 3073 1727 3073 
Q 1407 3073 1194 2926 
Q 982 2780 982 2555 
Q 982 2355 1127 2239 
Q 1273 2123 1582 2045 
L 2100 1918 
Q 3027 1691 3027 973 
Q 3027 673 2855 436 
Q 2684 200 2377 63 
Q 2071 -73 1664 -73 
Q 1130 -73 780 159 
Q 430 391 336 836 
L 846 964 
Q 989 400 1655 400 
Q 2030 400 2251 560 
Q 2473 720 2473 945 
Q 2473 1316 1955 1436 
L 1373 1573 
Q 893 1686 669 1926 
Q 446 2166 446 2527 
Q 446 2823 613 3050 
Q 780 3277 1069 3406 
Q 1359 3536 1727 3536 
Q 2246 3536 2542 3309 
Q 2839 3082 2964 2709 
z
" id="Inter-Regular-73" transform="scale(0.015625)"/>
       <path d="M 1809 -73 
Q 1373 -73 1039 148 
Q 705 370 516 776 
Q 327 1182 327 1736 
Q 327 2286 516 2690 
Q 705 3095 1041 3315 
Q 1377 3536 1818 3536 
Q 2159 3536 2358 3423 
Q 2557 3311 2662 3169 
Q 2768 3027 2827 2936 
L 2873 2936 
L 2873 4655 
L 3409 4655 
L 3409 0 
L 2891 0 
L 2891 536 
L 2827 536 
Q 2768 441 2659 296 
Q 2550 152 2348 39 
Q 2146 -73 1809 -73 
z
M 1882 409 
Q 2366 409 2624 780 
Q 2882 1152 2882 1745 
Q 2882 2332 2627 2693 
Q 2373 3055 1882 3055 
Q 1541 3055 1315 2881 
Q 1089 2707 976 2410 
Q 864 2114 864 1745 
Q 864 1373 978 1069 
Q 1093 766 1319 587 
Q 1546 409 1882 409 
z
" id="Inter-Regular-64" transform="scale(0.015625)"/>
      </defs>
      <use xlink:href="#Inter-Regular-50"/>
      <use x="63.494324" xlink:href="#Inter-Regular-65"/>
      <use x="121.732971" xlink:href="#Inter-Regular-72"/>
      <use x="160.085251" xlink:href="#Inter-Regular-63"/>
      <use x="215.909119" xlink:href="#Inter-Regular-65"/>
      <use x="274.147766" xlink:href="#Inter-Regular-6e"/>
      <use x="332.670502" xlink:href="#Inter-Regular-74"/>
      <use x="369.034149" xlink:href="#Inter-Regular-20"/>
      <use x="397.159149" xlink:href="#Inter-Regular-6f"/>
      <use x="456.818253" xlink:href="#Inter-Regular-66"/>
      <use x="492.897797" xlink:href="#Inter-Regular-20"/>
      <use x="521.022797" xlink:href="#Inter-Regular-6e"/>
      <use x="579.545532" xlink:href="#Inter-Regular-61"/>
      <use x="635.937592" xlink:href="#Inter-Regular-74"/>
      <use x="672.301239" xlink:href="#Inter-Regular-69"/>
      <use x="696.022827" xlink:href="#Inter-Regular-6f"/>
      <use x="755.681931" xlink:href="#Inter-Regular-6e"/>
      <use x="814.204666" xlink:href="#Inter-Regular-20"/>
      <use x="842.329666" xlink:href="#Inter-Regular-74"/>
      <use x="878.693314" xlink:href="#Inter-Regular-65"/>
      <use x="936.931961" xlink:href="#Inter-Regular-73"/>
      <use x="989.204697" xlink:href="#Inter-Regular-74"/>
      <use x="1025.568344" xlink:href="#Inter-Regular-65"/>
      <use x="1083.806992" xlink:href="#Inter-Regular-64"/>
      <use x="1145.880875" xlink:href="#Inter-Regular-20"/>
      <use x="1174.005875" xlink:href="#Inter-Regular-70"/>
      <use x="1234.94339" xlink:href="#Inter-Regular-6f"/>
      <use x="1294.602493" xlink:href="#Inter-Regular-73"/>
      <use x="1346.875229" xlink:href="#Inter-Regular-69"/>
      <use x="1370.596817" xlink:href="#Inter-Regular-74"/>
      <use x="1406.960464" xlink:href="#Inter-Regular-69"/>
      <use x="1430.682053" xlink:href="#Inter-Regular-76"/>
      <use x="1486.363876" xlink:href="#Inter-Regular-65"/>
     </g>
    </g>
   </g>
   <g id="line2d_29">
    <path clip-path="url(#p798344b024)" d="M -1 476.745 
L 75.039308 476.648875 
L 83.437239 476.432621 
L 91.83517 475.969884 
L 95.194343 475.637125 
L 100.233101 474.877973 
L 103.592274 474.366097 
L 118.70855 470.567959 
L 123.747308 469.23466 
L 127.106481 468.458751 
L 132.145239 467.293586 
L 135.504412 466.483484 
L 138.863584 465.862123 
L 145.581929 464.510934 
L 160.698205 462.4135 
L 169.096136 461.43651 
L 194.289929 459.813702 
L 221.163308 459.000317 
L 227.881653 458.872263 
L 253.075446 458.484705 
L 259.793791 458.372049 
L 286.66717 457.352713 
L 325.297653 455.530069 
L 345.452688 454.227113 
L 358.889377 453.268125 
L 367.287308 452.520295 
L 368.966895 452.353066 
L 385.762757 449.414055 
L 395.840274 447.078743 
L 399.199446 446.029177 
L 404.238205 444.218308 
L 405.917791 443.674843 
L 407.597377 443.2994 
L 414.315722 440.84328 
L 415.995308 439.619805 
L 417.674895 437.207162 
L 419.354481 435.997388 
L 427.752412 428.917856 
L 429.431998 427.742274 
L 431.111584 426.42358 
L 432.79117 424.803377 
L 436.150343 421.149597 
L 439.509515 418.265272 
L 441.189101 416.600459 
L 444.548274 412.730652 
L 446.22786 410.132438 
L 449.587033 406.229684 
L 451.266619 404.04088 
L 454.625791 400.149448 
L 457.984964 395.521621 
L 464.703308 386.460821 
L 466.382895 384.665124 
L 468.062481 382.702991 
L 471.421653 377.834454 
L 478.139998 368.836493 
L 481.49917 364.467038 
L 483.178757 360.974939 
L 486.537929 355.445413 
L 488.217515 352.954761 
L 489.897101 350.755654 
L 493.256274 346.822556 
L 494.93586 344.525173 
L 499.974619 338.623148 
L 501.654205 337.114015 
L 503.333791 335.998327 
L 506.692964 332.541667 
L 510.052136 329.498265 
L 513.411308 327.129326 
L 515.090895 325.813915 
L 516.770481 324.305461 
L 518.450067 322.947706 
L 523.488826 318.376716 
L 528.527584 314.409199 
L 538.605102 302.573107 
L 545.323446 292.036688 
L 547.003033 288.396042 
L 548.682619 285.141822 
L 552.041791 277.608611 
L 553.721377 273.582331 
L 557.08055 266.464417 
L 558.760136 263.563789 
L 560.439722 259.429948 
L 562.119308 254.089956 
L 563.798895 249.158695 
L 572.196826 220.905672 
L 575.555998 208.338055 
L 577.235584 203.034633 
L 578.915171 196.042396 
L 580.594757 189.899322 
L 582.274343 184.205285 
L 588.992688 164.93358 
L 590.672274 159.188594 
L 594.031446 150.920913 
L 595.711033 147.056201 
L 597.390619 143.617542 
L 602.429377 131.554101 
L 604.108964 128.10129 
L 605.78855 124.978633 
L 607.468136 122.697328 
L 609.147722 120.668393 
L 610.827308 118.074029 
L 614.186481 112.085616 
L 615.866067 109.697882 
L 617.545653 107.540554 
L 619.225239 105.63673 
L 620.904826 103.936026 
L 627.623171 96.077302 
L 629.302757 94.439436 
L 630.982343 93.050205 
L 634.341515 90.506451 
L 636.021102 89.147676 
L 637.700688 87.64194 
L 639.380274 86.317585 
L 646.098619 81.984587 
L 649.457791 79.602854 
L 654.49655 76.569416 
L 656.176136 75.743803 
L 659.535308 73.788803 
L 662.894481 72.212755 
L 679.690343 66.567065 
L 683.049515 65.366121 
L 686.408688 64.226204 
L 689.76786 63.316128 
L 693.127033 62.272449 
L 694.806619 61.682224 
L 698.165791 60.715197 
L 704.884136 58.631577 
L 708.243308 57.436068 
L 714.961653 55.798654 
L 721.679998 54.345 
L 721.679998 54.345 
" style="fill:none;stroke:#5694ca;stroke-linecap:square;stroke-width:2;"/>
   </g>
   <g id="line2d_30">
    <path clip-path="url(#p798344b024)" d="M -1 476.745 
L 75.039308 476.644039 
L 91.83517 476.179616 
L 98.553515 475.668078 
L 100.233101 475.378656 
L 101.912688 474.964714 
L 103.592274 474.786349 
L 111.990205 473.093562 
L 115.349377 472.534909 
L 117.028963 472.252217 
L 120.388136 471.410872 
L 122.067722 470.980103 
L 128.786067 469.731547 
L 132.145239 468.890202 
L 135.504412 467.85703 
L 137.183998 467.577704 
L 138.863584 467.476742 
L 147.261515 465.625783 
L 150.620688 465.289245 
L 153.97986 464.858476 
L 159.018619 464.081073 
L 162.377791 463.69742 
L 170.775722 462.89646 
L 174.134894 462.647421 
L 177.494067 462.317614 
L 195.969515 461.247423 
L 202.68786 460.954635 
L 219.483722 460.597905 
L 283.307998 460.116655 
L 286.66717 460.052713 
L 295.065101 459.988771 
L 300.10386 459.93829 
L 306.822205 459.85079 
L 330.336412 459.27531 
L 333.695584 458.807522 
L 340.413929 458.333004 
L 345.452688 457.85512 
L 347.132274 457.454639 
L 348.81186 457.420986 
L 352.171032 457.020505 
L 355.530205 456.502237 
L 357.209791 456.202718 
L 363.928136 455.438777 
L 368.966895 454.577239 
L 370.646481 454.220509 
L 372.326067 453.74599 
L 375.685239 453.446471 
L 379.044412 452.887818 
L 384.08317 451.878204 
L 385.762757 451.612339 
L 389.121929 450.676763 
L 390.801515 450.128206 
L 392.481101 449.381092 
L 394.160688 448.788785 
L 395.840274 448.368112 
L 397.51986 448.115709 
L 402.558619 445.820519 
L 404.238205 444.746963 
L 407.597377 443.377253 
L 409.276964 442.300331 
L 410.95655 440.87341 
L 412.636136 440.001777 
L 414.315722 436.858511 
L 415.995308 434.415245 
L 417.674895 432.860439 
L 419.354481 430.787365 
L 421.034067 428.535925 
L 422.713653 425.74939 
L 424.393239 422.643144 
L 426.072826 419.008533 
L 427.752412 415.97296 
L 429.431998 412.385465 
L 432.79117 406.529703 
L 434.470757 402.434035 
L 436.150343 399.86625 
L 437.829929 395.49462 
L 441.189101 388.619148 
L 442.868688 385.859536 
L 444.548274 382.786944 
L 447.907446 375.783587 
L 449.587033 371.570131 
L 452.946205 365.448504 
L 456.305377 360.572068 
L 459.66455 354.978806 
L 461.344136 353.074 
L 464.703308 348.584583 
L 466.382895 346.92545 
L 468.062481 345.007183 
L 469.742067 342.72209 
L 471.421653 340.985554 
L 473.101239 338.983152 
L 474.780826 337.206232 
L 476.460412 335.792772 
L 479.819584 332.477872 
L 481.49917 329.815856 
L 483.178757 327.971628 
L 484.858343 325.928842 
L 488.217515 322.620673 
L 489.897101 321.506732 
L 493.256274 317.915871 
L 494.93586 316.276931 
L 499.974619 312.682704 
L 501.654205 311.740398 
L 503.333791 311.474533 
L 505.013377 309.680785 
L 506.692964 308.193287 
L 508.37255 306.877423 
L 513.411308 303.66012 
L 516.770481 300.944258 
L 521.809239 296.380802 
L 525.168412 293.634651 
L 526.847998 292.453403 
L 535.245929 284.305817 
L 536.925515 282.895722 
L 540.284688 279.543803 
L 541.964274 277.336114 
L 543.64386 275.61977 
L 545.323446 273.465926 
L 547.003033 271.766409 
L 548.682619 269.898623 
L 550.362205 268.421221 
L 553.721377 262.942382 
L 555.400964 262.942382 
L 557.08055 259.583732 
L 558.760136 259.583732 
L 562.119308 248.814515 
L 563.798895 241.602505 
L 565.478481 235.110686 
L 567.158067 235.110686 
L 568.837653 223.076085 
L 570.517239 217.482823 
L 572.196826 211.421773 
L 573.876412 206.784279 
L 575.555998 200.103999 
L 578.915171 190.310742 
L 580.594757 185.457863 
L 582.274343 181.71556 
L 583.953929 179.161236 
L 587.313102 171.252592 
L 588.992688 167.978077 
L 590.672274 164.437697 
L 592.35186 162.065104 
L 594.031446 159.298761 
L 595.711033 157.144917 
L 597.390619 154.745401 
L 599.070205 151.699732 
L 600.749791 149.236274 
L 602.429377 146.325219 
L 604.108964 144.070415 
L 607.468136 141.193014 
L 612.506895 135.576194 
L 614.186481 133.324755 
L 617.545653 130.359855 
L 619.225239 129.303125 
L 620.904826 127.7988 
L 622.584412 126.102648 
L 624.263998 124.716112 
L 625.943584 123.013229 
L 627.623171 121.700731 
L 630.982343 119.580541 
L 632.661929 118.655062 
L 634.341515 117.524294 
L 636.021102 116.672853 
L 637.700688 115.303143 
L 639.380274 114.283432 
L 641.05986 113.691125 
L 642.739446 112.903626 
L 644.419033 111.756032 
L 646.098619 110.756514 
L 649.457791 108.55219 
L 652.816964 106.73825 
L 654.49655 106.108923 
L 657.855722 104.476714 
L 659.535308 103.531042 
L 661.214895 102.719985 
L 662.894481 102.100755 
L 667.93324 100.677199 
L 669.612826 99.916623 
L 678.010757 97.281531 
L 679.690343 96.473839 
L 681.369929 95.979128 
L 684.729102 94.528649 
L 699.845377 90.06952 
L 701.524964 89.776732 
L 703.20455 89.191156 
L 704.884136 88.723368 
L 708.243308 87.49837 
L 711.602481 86.643563 
L 713.282067 86.424813 
L 716.64124 85.502699 
L 721.679998 84.499816 
L 721.679998 84.499816 
" style="fill:none;stroke:#ffdd00;stroke-linecap:square;stroke-width:2;"/>
   </g>
   <g id="line2d_31">
    <path clip-path="url(#p798344b024)" d="M -1 476.745 
L 73.359722 476.645848 
L 90.155584 476.162919 
L 93.514756 475.90629 
L 101.912688 474.921769 
L 103.592274 474.420176 
L 110.310619 472.843076 
L 111.990205 472.421971 
L 117.028963 471.419952 
L 120.388136 470.591741 
L 123.747308 469.848684 
L 125.426894 469.667877 
L 127.106481 469.328427 
L 130.465653 468.460555 
L 132.145239 468.102442 
L 135.504412 467.194909 
L 140.54317 466.202222 
L 143.902343 465.433502 
L 147.261515 464.70211 
L 150.620688 464.239012 
L 157.339032 462.832219 
L 162.377791 462.237307 
L 165.736963 461.669224 
L 169.096136 461.22479 
L 174.134894 460.690535 
L 182.532825 459.787668 
L 189.25117 459.415556 
L 194.289929 459.129765 
L 206.047032 458.780983 
L 226.202067 458.420537 
L 258.114205 458.065922 
L 286.66717 457.875784 
L 305.142619 457.691478 
L 316.899722 457.457012 
L 325.297653 457.170054 
L 345.452688 456.352342 
L 353.850619 455.969732 
L 357.209791 455.807589 
L 362.24855 455.297831 
L 380.723998 453.194641 
L 382.403584 452.910016 
L 384.08317 452.828362 
L 395.840274 450.638851 
L 397.51986 450.192084 
L 402.558619 448.431844 
L 404.238205 447.598966 
L 405.917791 447.197692 
L 407.597377 446.93873 
L 409.276964 445.998536 
L 412.636136 444.472761 
L 421.034067 440.04708 
L 424.393239 437.619605 
L 426.072826 436.166153 
L 431.111584 432.75299 
L 432.79117 431.240046 
L 436.150343 427.997191 
L 439.509515 425.240765 
L 441.189101 424.872152 
L 442.868688 423.713823 
L 444.548274 422.015407 
L 447.907446 417.989834 
L 452.946205 413.164046 
L 454.625791 411.855239 
L 457.984964 408.905175 
L 459.66455 407.589369 
L 461.344136 406.095089 
L 466.382895 402.362307 
L 468.062481 401.196978 
L 469.742067 399.525392 
L 471.421653 398.106934 
L 473.101239 396.856452 
L 474.780826 394.994727 
L 476.460412 393.694085 
L 479.819584 391.659719 
L 486.537929 385.887904 
L 488.217515 384.535936 
L 489.897101 383.69956 
L 493.256274 380.769325 
L 496.615446 378.311521 
L 505.013377 373.259433 
L 506.692964 371.830477 
L 508.37255 370.700144 
L 511.731722 368.910741 
L 513.411308 368.480305 
L 515.090895 367.600768 
L 520.129653 364.247096 
L 521.809239 363.34073 
L 526.847998 360.993743 
L 530.20717 358.859058 
L 533.566343 356.450246 
L 538.605102 353.675156 
L 540.284688 352.871441 
L 541.964274 351.870589 
L 543.64386 351.002717 
L 545.323446 350.335482 
L 547.003033 349.245976 
L 548.682619 347.491568 
L 553.721377 343.035559 
L 557.08055 340.33629 
L 558.760136 339.473084 
L 560.439722 338.345084 
L 563.798895 333.749095 
L 567.158067 327.728817 
L 568.837653 325.236018 
L 570.517239 322.361775 
L 572.196826 320.139603 
L 573.876412 317.189538 
L 575.555998 314.811056 
L 577.235584 311.721012 
L 578.915171 309.027576 
L 588.992688 296.131978 
L 590.672274 293.61235 
L 592.35186 291.567485 
L 597.390619 286.977328 
L 600.749791 283.137228 
L 602.429377 281.410816 
L 605.78855 278.492247 
L 607.468136 277.615043 
L 609.147722 276.39139 
L 612.506895 273.438992 
L 614.186481 272.091691 
L 617.545653 269.762201 
L 622.584412 266.747979 
L 624.263998 265.407677 
L 627.623171 263.319652 
L 629.302757 262.638419 
L 632.661929 260.597054 
L 637.700688 257.723977 
L 641.05986 255.611456 
L 642.739446 254.959385 
L 644.419033 254.057685 
L 646.098619 252.750044 
L 647.778205 251.950996 
L 651.137377 249.981953 
L 652.816964 249.017262 
L 661.214895 244.913534 
L 671.292412 241.334729 
L 679.690343 238.523477 
L 683.049515 237.028031 
L 686.408688 235.487091 
L 691.447446 233.694189 
L 696.486205 231.473183 
L 703.20455 229.287172 
L 706.563722 227.662246 
L 711.602481 225.879842 
L 714.961653 224.989806 
L 716.64124 224.357566 
L 721.679998 222.944941 
L 721.679998 222.944941 
" style="fill:none;stroke:#003078;stroke-linecap:square;stroke-width:2;"/>
   </g>
   <g id="line2d_32">
    <path clip-path="url(#p798344b024)" d="M -1 476.745 
L 73.359722 476.668191 
L 85.116825 476.358932 
L 90.155584 475.900097 
L 91.83517 475.778819 
L 100.233101 474.236568 
L 101.912688 473.812096 
L 103.592274 473.58571 
L 106.951446 472.457826 
L 115.349377 469.084278 
L 117.028963 468.512251 
L 118.70855 468.47991 
L 120.388136 467.465218 
L 125.426894 465.403494 
L 128.786067 464.372631 
L 142.222757 459.84088 
L 148.941101 457.975221 
L 150.620688 457.50628 
L 152.300274 457.269788 
L 160.698205 455.460726 
L 164.057377 454.975614 
L 165.736963 454.799761 
L 174.134894 453.340384 
L 180.853239 452.188244 
L 182.532825 451.860793 
L 184.212412 451.656642 
L 189.25117 450.763228 
L 199.328688 449.13204 
L 217.804136 447.630215 
L 229.561239 446.930846 
L 237.95917 446.40733 
L 239.638757 446.356797 
L 242.997929 446.011155 
L 246.357101 445.813068 
L 248.036688 445.560406 
L 251.39586 445.336041 
L 253.075446 445.285509 
L 254.755032 445.051038 
L 271.550894 444.620502 
L 286.66717 444.363797 
L 313.54055 443.464319 
L 328.656826 443.169209 
L 342.093515 442.853887 
L 365.607722 441.810897 
L 368.966895 441.55217 
L 372.326067 441.08525 
L 389.121929 437.980536 
L 394.160688 436.775842 
L 397.51986 435.734873 
L 400.879032 434.245176 
L 404.238205 432.85048 
L 405.917791 432.11877 
L 407.597377 431.540679 
L 412.636136 429.212143 
L 414.315722 428.278303 
L 415.995308 427.114035 
L 417.674895 426.240834 
L 419.354481 425.03614 
L 421.034067 424.177088 
L 422.713653 422.657071 
L 424.393239 421.367483 
L 426.072826 419.819168 
L 427.752412 418.551814 
L 431.111584 416.623495 
L 432.79117 415.079223 
L 434.470757 413.167074 
L 436.150343 411.69759 
L 437.829929 409.718739 
L 439.509515 408.356384 
L 441.189101 406.43615 
L 442.868688 405.170817 
L 444.548274 402.850366 
L 446.22786 400.905877 
L 447.907446 398.613725 
L 449.587033 397.075516 
L 451.266619 394.399317 
L 454.625791 389.82714 
L 456.305377 387.387432 
L 459.66455 381.750031 
L 461.344136 378.239035 
L 463.023722 375.609326 
L 464.703308 373.953882 
L 466.382895 370.626825 
L 469.742067 365.935391 
L 473.101239 360.631503 
L 474.780826 358.695099 
L 476.460412 357.191253 
L 478.139998 355.309424 
L 479.819584 354.411967 
L 483.178757 350.783736 
L 484.858343 349.172761 
L 486.537929 347.28689 
L 488.217515 344.592499 
L 489.897101 342.7895 
L 493.256274 340.074896 
L 498.295033 333.841212 
L 499.974619 332.208002 
L 501.654205 330.405004 
L 503.333791 329.202331 
L 505.013377 327.369014 
L 506.692964 324.840369 
L 508.37255 322.606834 
L 510.052136 319.686058 
L 511.731722 317.656674 
L 513.411308 316.035592 
L 515.090895 314.687386 
L 520.129653 305.745161 
L 521.809239 302.420125 
L 525.168412 294.462273 
L 526.847998 292.88566 
L 528.527584 288.361994 
L 530.20717 284.384078 
L 531.886757 279.868497 
L 533.566343 274.827378 
L 535.245929 274.827378 
L 536.925515 272.345224 
L 538.605102 271.102125 
L 540.284688 270.030837 
L 541.964274 246.850585 
L 543.64386 241.188927 
L 545.323446 234.993647 
L 547.003033 230.275936 
L 548.682619 225.095348 
L 550.362205 219.514543 
L 552.041791 213.42437 
L 553.721377 209.056344 
L 555.400964 209.056344 
L 557.08055 204.534699 
L 558.760136 196.16248 
L 560.439722 191.568068 
L 562.119308 186.494609 
L 563.798895 181.884027 
L 565.478481 178.183029 
L 567.158067 178.183029 
L 568.837653 172.59616 
L 570.517239 164.488731 
L 572.196826 160.652307 
L 573.876412 156.47024 
L 575.555998 151.946574 
L 577.235584 148.473983 
L 580.594757 138.650472 
L 582.274343 135.295116 
L 583.953929 131.670928 
L 585.633515 128.978558 
L 588.992688 122.556892 
L 590.672274 118.902385 
L 594.031446 114.251376 
L 595.711033 111.559007 
L 597.390619 109.323451 
L 599.070205 106.730124 
L 600.749791 104.399567 
L 602.429377 102.780507 
L 604.108964 100.599526 
L 607.468136 97.228 
L 610.827308 94.990422 
L 612.506895 93.565407 
L 614.186481 92.461778 
L 615.866067 90.972081 
L 620.904826 87.2347 
L 622.584412 86.315009 
L 624.263998 85.215422 
L 625.943584 84.408924 
L 627.623171 83.044548 
L 629.302757 82.112729 
L 630.982343 80.879737 
L 636.021102 78.688649 
L 637.700688 77.4597 
L 642.739446 75.121057 
L 644.419033 74.5652 
L 646.098619 73.809234 
L 647.778205 73.223058 
L 649.457791 72.145706 
L 652.816964 70.732818 
L 656.176136 69.447272 
L 657.855722 68.970246 
L 661.214895 67.717041 
L 669.612826 65.663401 
L 672.971998 64.658816 
L 676.331171 63.957425 
L 679.690343 63.290397 
L 683.049515 62.441451 
L 688.088274 61.19431 
L 689.76786 60.693028 
L 693.127033 60.112915 
L 694.806619 59.51259 
L 701.524964 57.986509 
L 704.884136 57.408418 
L 708.243308 56.565536 
L 711.602481 55.813613 
L 714.961653 55.370949 
L 716.64124 55.249671 
L 718.320826 54.869667 
L 720.000412 54.869667 
L 721.679998 54.677643 
L 721.679998 54.677643 
" style="fill:none;stroke:#d4351c;stroke-linecap:square;stroke-width:2;"/>
   </g>
   <g id="patch_3">
    <path d="M 53.204688 476.745 
L 722.804688 476.745 
" style="fill:none;stroke:#000000;stroke-linecap:square;stroke-linejoin:miter;stroke-width:0.8;"/>
   </g>
   <g id="text_23">
    <!-- Cumulative COVID-19 cases by date reported, per capita -->
    <g transform="translate(221.460625 27.225)scale(0.12 -0.12)">
     <defs>
      <path d="M 4511 3025 
L 3516 3025 
Q 3459 3409 3188 3628 
Q 2918 3848 2514 3848 
Q 1973 3848 1647 3451 
Q 1321 3055 1321 2327 
Q 1321 1582 1649 1194 
Q 1977 807 2507 807 
Q 2900 807 3173 1012 
Q 3446 1218 3516 1591 
L 4511 1586 
Q 4459 1159 4207 782 
Q 3955 405 3522 170 
Q 3089 -64 2491 -64 
Q 1868 -64 1378 218 
Q 889 500 606 1034 
Q 323 1568 323 2327 
Q 323 3089 609 3623 
Q 896 4157 1386 4437 
Q 1877 4718 2491 4718 
Q 3030 4718 3463 4519 
Q 3896 4320 4172 3942 
Q 4448 3564 4511 3025 
z
" id="Inter-Bold-43" transform="scale(0.015625)"/>
      <path d="M 2625 1486 
L 2625 3491 
L 3593 3491 
L 3593 0 
L 2664 0 
L 2664 634 
L 2627 634 
Q 2509 327 2235 141 
Q 1961 -45 1568 -45 
Q 1041 -45 715 306 
Q 389 657 386 1268 
L 386 3491 
L 1355 3491 
L 1355 1441 
Q 1357 1132 1520 952 
Q 1684 773 1959 773 
Q 2221 773 2424 954 
Q 2627 1136 2625 1486 
z
" id="Inter-Bold-75" transform="scale(0.015625)"/>
      <path d="M 386 0 
L 386 3491 
L 1309 3491 
L 1309 2875 
L 1350 2875 
Q 1459 3184 1715 3360 
Q 1971 3536 2323 3536 
Q 2682 3536 2934 3358 
Q 3186 3180 3271 2875 
L 3307 2875 
Q 3414 3175 3694 3355 
Q 3975 3536 4359 3536 
Q 4848 3536 5153 3226 
Q 5459 2916 5459 2348 
L 5459 0 
L 4493 0 
L 4493 2157 
Q 4493 2448 4338 2593 
Q 4184 2739 3952 2739 
Q 3689 2739 3541 2570 
Q 3393 2402 3393 2132 
L 3393 0 
L 2455 0 
L 2455 2177 
Q 2455 2434 2308 2586 
Q 2161 2739 1923 2739 
Q 1682 2739 1518 2562 
Q 1355 2386 1355 2095 
L 1355 0 
L 386 0 
z
" id="Inter-Bold-6d" transform="scale(0.015625)"/>
      <path d="M 1355 4655 
L 1355 0 
L 386 0 
L 386 4655 
L 1355 4655 
z
" id="Inter-Bold-6c" transform="scale(0.015625)"/>
      <path d="M 1382 -66 
Q 882 -66 552 195 
Q 223 457 223 975 
Q 223 1366 407 1588 
Q 591 1811 890 1914 
Q 1189 2018 1534 2050 
Q 1989 2095 2184 2145 
Q 2380 2195 2380 2364 
L 2380 2377 
Q 2380 2593 2244 2711 
Q 2109 2830 1861 2830 
Q 1600 2830 1445 2716 
Q 1291 2602 1241 2427 
L 346 2500 
Q 446 2977 842 3256 
Q 1239 3536 1866 3536 
Q 2255 3536 2593 3413 
Q 2932 3291 3140 3030 
Q 3348 2770 3348 2355 
L 3348 0 
L 2430 0 
L 2430 484 
L 2402 484 
Q 2275 241 2021 87 
Q 1768 -66 1382 -66 
z
M 1659 602 
Q 1977 602 2181 787 
Q 2386 973 2386 1248 
L 2386 1618 
Q 2330 1580 2210 1550 
Q 2091 1520 1956 1498 
Q 1821 1477 1714 1461 
Q 1459 1425 1303 1318 
Q 1148 1211 1148 1007 
Q 1148 807 1292 704 
Q 1436 602 1659 602 
z
" id="Inter-Bold-61" transform="scale(0.015625)"/>
      <path d="M 2243 3491 
L 2243 2764 
L 1586 2764 
L 1586 1073 
Q 1586 873 1677 802 
Q 1768 732 1914 732 
Q 1982 732 2050 744 
Q 2118 757 2155 764 
L 2307 43 
Q 2234 20 2102 -10 
Q 1971 -41 1782 -48 
Q 1255 -70 935 181 
Q 616 432 618 945 
L 618 2764 
L 141 2764 
L 141 3491 
L 618 3491 
L 618 4327 
L 1586 4327 
L 1586 3491 
L 2243 3491 
z
" id="Inter-Bold-74" transform="scale(0.015625)"/>
      <path d="M 386 0 
L 386 3491 
L 1355 3491 
L 1355 0 
L 386 0 
z
M 876 3941 
Q 662 3941 507 4085 
Q 353 4230 353 4432 
Q 353 4634 507 4777 
Q 662 4920 876 4920 
Q 1092 4920 1246 4777 
Q 1401 4634 1401 4432 
Q 1401 4230 1246 4085 
Q 1092 3941 876 3941 
z
" id="Inter-Bold-69" transform="scale(0.015625)"/>
      <path d="M 3641 3491 
L 2421 0 
L 1330 0 
L 109 3491 
L 1132 3491 
L 1857 993 
L 1893 993 
L 2616 3491 
L 3641 3491 
z
" id="Inter-Bold-76" transform="scale(0.015625)"/>
      <path d="M 1977 -68 
Q 1441 -68 1052 151 
Q 664 370 455 773 
Q 246 1177 246 1730 
Q 246 2268 455 2675 
Q 664 3082 1044 3309 
Q 1425 3536 1939 3536 
Q 2400 3536 2771 3340 
Q 3143 3145 3361 2751 
Q 3580 2357 3580 1764 
L 3580 1498 
L 1202 1498 
L 1202 1495 
Q 1202 1105 1416 880 
Q 1630 655 1993 655 
Q 2236 655 2413 757 
Q 2591 859 2664 1059 
L 3559 1000 
Q 3457 514 3041 223 
Q 2625 -68 1977 -68 
z
M 1202 2098 
L 2668 2098 
Q 2666 2409 2468 2611 
Q 2271 2814 1955 2814 
Q 1632 2814 1425 2604 
Q 1218 2395 1202 2098 
z
" id="Inter-Bold-65" transform="scale(0.015625)"/>
      <path id="Inter-Bold-20" transform="scale(0.015625)"/>
      <path d="M 4682 2327 
Q 4682 1566 4394 1032 
Q 4107 498 3614 217 
Q 3121 -64 2502 -64 
Q 1882 -64 1389 218 
Q 896 500 609 1035 
Q 323 1570 323 2327 
Q 323 3089 609 3623 
Q 896 4157 1389 4437 
Q 1882 4718 2502 4718 
Q 3121 4718 3614 4437 
Q 4107 4157 4394 3623 
Q 4682 3089 4682 2327 
z
M 3684 2327 
Q 3684 3068 3361 3458 
Q 3039 3848 2502 3848 
Q 1966 3848 1643 3458 
Q 1321 3068 1321 2327 
Q 1321 1589 1643 1198 
Q 1966 807 2502 807 
Q 3039 807 3361 1198 
Q 3684 1589 3684 2327 
z
" id="Inter-Bold-4f" transform="scale(0.015625)"/>
      <path d="M 1246 4655 
L 2371 1118 
L 2414 1118 
L 3541 4655 
L 4632 4655 
L 3027 0 
L 1759 0 
L 152 4655 
L 1246 4655 
z
" id="Inter-Bold-56" transform="scale(0.015625)"/>
      <path d="M 1389 4655 
L 1389 0 
L 405 0 
L 405 4655 
L 1389 4655 
z
" id="Inter-Bold-49" transform="scale(0.015625)"/>
      <path d="M 2055 0 
L 405 0 
L 405 4655 
L 2068 4655 
Q 2771 4655 3278 4376 
Q 3786 4098 4059 3577 
Q 4332 3057 4332 2332 
Q 4332 1605 4058 1082 
Q 3784 559 3274 279 
Q 2764 0 2055 0 
z
M 1389 843 
L 2014 843 
Q 2671 843 3010 1197 
Q 3350 1552 3350 2332 
Q 3350 3107 3010 3459 
Q 2671 3811 2016 3811 
L 1389 3811 
L 1389 843 
z
" id="Inter-Bold-44" transform="scale(0.015625)"/>
      <path d="M 2561 2295 
L 2561 1527 
L 439 1527 
L 439 2295 
L 2561 2295 
z
" id="Inter-Bold-2d" transform="scale(0.015625)"/>
      <path d="M 2305 4655 
L 2305 0 
L 1323 0 
L 1323 3450 
L 1280 3450 
Q 1205 3334 961 3219 
Q 718 3105 332 3105 
L 332 3886 
Q 632 3886 857 4019 
Q 1082 4152 1209 4333 
Q 1336 4514 1341 4655 
L 2305 4655 
z
" id="Inter-Bold-31" transform="scale(0.015625)"/>
      <path d="M 2061 4732 
Q 2421 4732 2753 4612 
Q 3086 4493 3348 4227 
Q 3611 3961 3766 3523 
Q 3921 3086 3921 2448 
Q 3921 1659 3686 1096 
Q 3452 534 3028 235 
Q 2605 -64 2027 -64 
Q 1561 -64 1204 117 
Q 848 298 631 610 
Q 414 923 368 1314 
L 1339 1314 
Q 1396 1059 1577 919 
Q 1759 780 2027 780 
Q 2482 780 2718 1176 
Q 2955 1573 2957 2264 
L 2925 2264 
Q 2771 1957 2453 1782 
Q 2136 1607 1752 1607 
Q 1341 1607 1016 1801 
Q 691 1995 506 2334 
Q 321 2673 323 3109 
Q 321 3582 539 3949 
Q 757 4316 1149 4525 
Q 1541 4734 2061 4732 
z
M 2068 3959 
Q 1725 3959 1500 3722 
Q 1275 3486 1277 3136 
Q 1275 2791 1496 2555 
Q 1718 2320 2059 2320 
Q 2284 2320 2465 2431 
Q 2646 2543 2751 2729 
Q 2857 2916 2859 3141 
Q 2857 3366 2753 3551 
Q 2650 3736 2473 3847 
Q 2296 3959 2068 3959 
z
" id="Inter-Bold-39" transform="scale(0.015625)"/>
      <path d="M 1964 -68 
Q 1427 -68 1042 160 
Q 657 389 451 795 
Q 246 1202 246 1732 
Q 246 2268 453 2674 
Q 661 3080 1045 3308 
Q 1430 3536 1959 3536 
Q 2416 3536 2760 3370 
Q 3105 3205 3303 2905 
Q 3502 2605 3523 2200 
L 2609 2200 
Q 2571 2461 2406 2621 
Q 2241 2782 1975 2782 
Q 1639 2782 1434 2511 
Q 1230 2241 1230 1745 
Q 1230 1245 1433 971 
Q 1636 698 1975 698 
Q 2225 698 2395 849 
Q 2566 1000 2609 1280 
L 3523 1280 
Q 3500 880 3305 575 
Q 3111 270 2770 101 
Q 2430 -68 1964 -68 
z
" id="Inter-Bold-63" transform="scale(0.015625)"/>
      <path d="M 3291 2495 
L 2405 2441 
Q 2368 2609 2220 2729 
Q 2073 2850 1821 2850 
Q 1596 2850 1440 2755 
Q 1284 2661 1286 2505 
Q 1284 2380 1385 2293 
Q 1486 2207 1730 2155 
L 2361 2027 
Q 3368 1820 3371 1082 
Q 3371 739 3169 479 
Q 2968 220 2618 76 
Q 2268 -68 1816 -68 
Q 1123 -68 711 221 
Q 300 511 232 1011 
L 1184 1061 
Q 1230 848 1394 739 
Q 1559 630 1818 630 
Q 2073 630 2228 730 
Q 2384 830 2386 984 
Q 2380 1243 1939 1332 
L 1334 1452 
Q 321 1655 325 2450 
Q 323 2955 728 3245 
Q 1134 3536 1805 3536 
Q 2466 3536 2846 3256 
Q 3227 2977 3291 2495 
z
" id="Inter-Bold-73" transform="scale(0.015625)"/>
      <path d="M 405 0 
L 405 4655 
L 1373 4655 
L 1373 2905 
L 1402 2905 
Q 1468 3048 1588 3193 
Q 1709 3339 1907 3437 
Q 2105 3536 2396 3536 
Q 2780 3536 3100 3337 
Q 3421 3139 3615 2740 
Q 3809 2341 3809 1741 
Q 3809 1157 3620 756 
Q 3432 355 3111 149 
Q 2791 -57 2393 -57 
Q 2111 -57 1914 36 
Q 1718 130 1594 272 
Q 1471 414 1402 559 
L 1359 559 
L 1359 0 
L 405 0 
z
M 1352 1745 
Q 1352 1280 1544 997 
Q 1736 714 2086 714 
Q 2443 714 2632 1001 
Q 2821 1289 2821 1745 
Q 2821 2200 2633 2483 
Q 2446 2766 2086 2766 
Q 1734 2766 1543 2490 
Q 1352 2214 1352 1745 
z
" id="Inter-Bold-62" transform="scale(0.015625)"/>
      <path d="M 950 -1359 
Q 743 -1359 596 -1324 
Q 450 -1289 368 -1252 
L 586 -502 
Q 843 -580 1019 -543 
Q 1196 -507 1298 -268 
L 1361 -100 
L 109 3491 
L 1127 3491 
L 1850 927 
L 1886 927 
L 2616 3491 
L 3641 3491 
L 2277 -400 
Q 2130 -818 1806 -1088 
Q 1482 -1359 950 -1359 
z
" id="Inter-Bold-79" transform="scale(0.015625)"/>
      <path d="M 1673 -57 
Q 1275 -57 954 149 
Q 634 355 445 756 
Q 257 1157 257 1741 
Q 257 2341 451 2740 
Q 646 3139 967 3337 
Q 1289 3536 1671 3536 
Q 1964 3536 2160 3437 
Q 2357 3339 2478 3193 
Q 2600 3048 2664 2905 
L 2693 2905 
L 2693 4655 
L 3659 4655 
L 3659 0 
L 2705 0 
L 2705 559 
L 2664 559 
Q 2598 414 2473 272 
Q 2348 130 2151 36 
Q 1955 -57 1673 -57 
z
M 1980 714 
Q 2330 714 2522 997 
Q 2714 1280 2714 1745 
Q 2714 2214 2523 2490 
Q 2332 2766 1980 2766 
Q 1621 2766 1433 2483 
Q 1246 2200 1246 1745 
Q 1246 1289 1434 1001 
Q 1623 714 1980 714 
z
" id="Inter-Bold-64" transform="scale(0.015625)"/>
      <path d="M 386 0 
L 386 3491 
L 1325 3491 
L 1325 2882 
L 1361 2882 
Q 1457 3207 1681 3374 
Q 1905 3541 2200 3541 
Q 2341 3541 2461 3507 
Q 2582 3473 2677 3414 
L 2386 2614 
Q 2318 2648 2237 2671 
Q 2157 2695 2057 2695 
Q 1764 2695 1560 2495 
Q 1357 2295 1355 1975 
L 1355 0 
L 386 0 
z
" id="Inter-Bold-72" transform="scale(0.015625)"/>
      <path d="M 386 -1309 
L 386 3491 
L 1341 3491 
L 1341 2905 
L 1384 2905 
Q 1450 3048 1570 3193 
Q 1691 3339 1888 3437 
Q 2086 3536 2377 3536 
Q 2761 3536 3081 3337 
Q 3402 3139 3596 2740 
Q 3791 2341 3791 1741 
Q 3791 1157 3602 756 
Q 3414 355 3093 149 
Q 2773 -57 2375 -57 
Q 2093 -57 1896 36 
Q 1700 130 1576 272 
Q 1452 414 1384 559 
L 1355 559 
L 1355 -1309 
L 386 -1309 
z
M 1334 1745 
Q 1334 1280 1526 997 
Q 1718 714 2068 714 
Q 2425 714 2613 1001 
Q 2802 1289 2802 1745 
Q 2802 2200 2614 2483 
Q 2427 2766 2068 2766 
Q 1716 2766 1525 2490 
Q 1334 2214 1334 1745 
z
" id="Inter-Bold-70" transform="scale(0.015625)"/>
      <path d="M 1964 -68 
Q 1434 -68 1049 158 
Q 664 384 455 789 
Q 246 1195 246 1732 
Q 246 2273 455 2678 
Q 664 3084 1049 3310 
Q 1434 3536 1964 3536 
Q 2493 3536 2878 3310 
Q 3264 3084 3473 2678 
Q 3682 2273 3682 1732 
Q 3682 1195 3473 789 
Q 3264 384 2878 158 
Q 2493 -68 1964 -68 
z
M 1968 682 
Q 2327 682 2512 982 
Q 2698 1282 2698 1739 
Q 2698 2195 2512 2496 
Q 2327 2798 1968 2798 
Q 1602 2798 1416 2496 
Q 1230 2195 1230 1739 
Q 1230 1282 1416 982 
Q 1602 682 1968 682 
z
" id="Inter-Bold-6f" transform="scale(0.015625)"/>
      <path d="M 1439 636 
L 1414 386 
Q 1384 86 1301 -212 
Q 1218 -511 1128 -754 
Q 1039 -998 984 -1136 
L 357 -1136 
Q 391 -1002 450 -763 
Q 509 -525 561 -226 
Q 614 73 627 382 
L 639 636 
L 1439 636 
z
" id="Inter-Bold-2c" transform="scale(0.015625)"/>
     </defs>
     <use xlink:href="#Inter-Bold-43"/>
     <use x="75.213089" xlink:href="#Inter-Bold-75"/>
     <use x="137.393494" xlink:href="#Inter-Bold-6d"/>
     <use x="228.5867" xlink:href="#Inter-Bold-75"/>
     <use x="290.767105" xlink:href="#Inter-Bold-6c"/>
     <use x="317.968811" xlink:href="#Inter-Bold-61"/>
     <use x="375.994385" xlink:href="#Inter-Bold-74"/>
     <use x="414.843826" xlink:href="#Inter-Bold-69"/>
     <use x="442.045532" xlink:href="#Inter-Bold-76"/>
     <use x="500.639297" xlink:href="#Inter-Bold-65"/>
     <use x="560.404938" xlink:href="#Inter-Bold-20"/>
     <use x="583.593857" xlink:href="#Inter-Bold-43"/>
     <use x="658.806946" xlink:href="#Inter-Bold-4f"/>
     <use x="737.002991" xlink:href="#Inter-Bold-56"/>
     <use x="811.789932" xlink:href="#Inter-Bold-49"/>
     <use x="839.843918" xlink:href="#Inter-Bold-44"/>
     <use x="912.571213" xlink:href="#Inter-Bold-2d"/>
     <use x="959.446228" xlink:href="#Inter-Bold-31"/>
     <use x="1006.853912" xlink:href="#Inter-Bold-39"/>
     <use x="1072.869553" xlink:href="#Inter-Bold-20"/>
     <use x="1096.058472" xlink:href="#Inter-Bold-63"/>
     <use x="1154.794281" xlink:href="#Inter-Bold-61"/>
     <use x="1212.819855" xlink:href="#Inter-Bold-73"/>
     <use x="1268.99884" xlink:href="#Inter-Bold-65"/>
     <use x="1328.764481" xlink:href="#Inter-Bold-73"/>
     <use x="1384.943466" xlink:href="#Inter-Bold-20"/>
     <use x="1408.132385" xlink:href="#Inter-Bold-62"/>
     <use x="1471.662231" xlink:href="#Inter-Bold-79"/>
     <use x="1530.255997" xlink:href="#Inter-Bold-20"/>
     <use x="1553.444916" xlink:href="#Inter-Bold-64"/>
     <use x="1616.974762" xlink:href="#Inter-Bold-61"/>
     <use x="1675.000336" xlink:href="#Inter-Bold-74"/>
     <use x="1713.849777" xlink:href="#Inter-Bold-65"/>
     <use x="1773.615417" xlink:href="#Inter-Bold-20"/>
     <use x="1796.804337" xlink:href="#Inter-Bold-72"/>
     <use x="1839.666565" xlink:href="#Inter-Bold-65"/>
     <use x="1899.432205" xlink:href="#Inter-Bold-70"/>
     <use x="1962.677963" xlink:href="#Inter-Bold-6f"/>
     <use x="2024.041611" xlink:href="#Inter-Bold-72"/>
     <use x="2066.903839" xlink:href="#Inter-Bold-74"/>
     <use x="2105.753281" xlink:href="#Inter-Bold-65"/>
     <use x="2165.518921" xlink:href="#Inter-Bold-64"/>
     <use x="2229.048767" xlink:href="#Inter-Bold-2c"/>
     <use x="2259.339966" xlink:href="#Inter-Bold-20"/>
     <use x="2282.528885" xlink:href="#Inter-Bold-70"/>
     <use x="2345.774643" xlink:href="#Inter-Bold-65"/>
     <use x="2405.540283" xlink:href="#Inter-Bold-72"/>
     <use x="2448.402512" xlink:href="#Inter-Bold-20"/>
     <use x="2471.591431" xlink:href="#Inter-Bold-63"/>
     <use x="2530.32724" xlink:href="#Inter-Bold-61"/>
     <use x="2588.352814" xlink:href="#Inter-Bold-70"/>
     <use x="2651.598572" xlink:href="#Inter-Bold-69"/>
     <use x="2678.800278" xlink:href="#Inter-Bold-74"/>
     <use x="2717.649719" xlink:href="#Inter-Bold-61"/>
    </g>
   </g>
   <g id="legend_1">
    <g id="patch_4">
     <path d="M 60.204688 98.614063 
L 169.778125 98.614063 
Q 171.778125 98.614063 171.778125 96.614063 
L 171.778125 40.225 
Q 171.778125 38.225 169.778125 38.225 
L 60.204688 38.225 
Q 58.204688 38.225 58.204688 40.225 
L 58.204688 96.614063 
Q 58.204688 98.614063 60.204688 98.614063 
z
" style="fill:#ffffff;opacity:0.8;stroke:#cccccc;stroke-linejoin:miter;"/>
    </g>
    <g id="line2d_33">
     <path d="M 62.204688 45.998438 
L 82.204688 45.998438 
" style="fill:none;stroke:#d4351c;stroke-linecap:square;stroke-width:2;"/>
    </g>
    <g id="line2d_34"/>
    <g id="text_24">
     <!-- Wales -->
     <g transform="translate(90.204688 49.498438)scale(0.1 -0.1)">
      <defs>
       <path d="M 1409 0 
L 136 4655 
L 709 4655 
L 1682 864 
L 1727 864 
L 2718 4655 
L 3355 4655 
L 4346 864 
L 4391 864 
L 5364 4655 
L 5936 4655 
L 4664 0 
L 4082 0 
L 3055 3709 
L 3018 3709 
L 1991 0 
L 1409 0 
z
" id="Inter-Regular-57" transform="scale(0.015625)"/>
      </defs>
      <use xlink:href="#Inter-Regular-57"/>
      <use x="94.886383" xlink:href="#Inter-Regular-61"/>
      <use x="151.278442" xlink:href="#Inter-Regular-6c"/>
      <use x="175.000031" xlink:href="#Inter-Regular-65"/>
      <use x="233.238678" xlink:href="#Inter-Regular-73"/>
     </g>
    </g>
    <g id="line2d_35">
     <path d="M 62.204688 60.317188 
L 82.204688 60.317188 
" style="fill:none;stroke:#003078;stroke-linecap:square;stroke-width:2;"/>
    </g>
    <g id="line2d_36"/>
    <g id="text_25">
     <!-- Scotland -->
     <g transform="translate(90.204688 63.817188)scale(0.1 -0.1)">
      <use xlink:href="#Inter-Regular-53"/>
      <use x="63.778427" xlink:href="#Inter-Regular-63"/>
      <use x="119.602295" xlink:href="#Inter-Regular-6f"/>
      <use x="179.261398" xlink:href="#Inter-Regular-74"/>
      <use x="215.625046" xlink:href="#Inter-Regular-6c"/>
      <use x="239.346634" xlink:href="#Inter-Regular-61"/>
      <use x="295.738693" xlink:href="#Inter-Regular-6e"/>
      <use x="354.261429" xlink:href="#Inter-Regular-64"/>
     </g>
    </g>
    <g id="line2d_37">
     <path d="M 62.204688 74.635938 
L 82.204688 74.635938 
" style="fill:none;stroke:#ffdd00;stroke-linecap:square;stroke-width:2;"/>
    </g>
    <g id="line2d_38"/>
    <g id="text_26">
     <!-- Northern Ireland -->
     <g transform="translate(90.204688 78.135938)scale(0.1 -0.1)">
      <defs>
       <path d="M 1027 2100 
L 1027 0 
L 491 0 
L 491 4655 
L 1027 4655 
L 1027 2945 
L 1073 2945 
Q 1196 3216 1442 3376 
Q 1689 3536 2100 3536 
Q 2636 3536 2963 3213 
Q 3291 2891 3291 2218 
L 3291 0 
L 2755 0 
L 2755 2182 
Q 2755 2598 2540 2826 
Q 2325 3055 1946 3055 
Q 1548 3055 1287 2806 
Q 1027 2557 1027 2100 
z
" id="Inter-Regular-68" transform="scale(0.015625)"/>
       <path d="M 1127 4655 
L 1127 0 
L 564 0 
L 564 4655 
L 1127 4655 
z
" id="Inter-Regular-49" transform="scale(0.015625)"/>
      </defs>
      <use xlink:href="#Inter-Regular-4e"/>
      <use x="75.284103" xlink:href="#Inter-Regular-6f"/>
      <use x="134.943207" xlink:href="#Inter-Regular-72"/>
      <use x="173.295486" xlink:href="#Inter-Regular-74"/>
      <use x="209.659134" xlink:href="#Inter-Regular-68"/>
      <use x="268.750061" xlink:href="#Inter-Regular-65"/>
      <use x="326.988708" xlink:href="#Inter-Regular-72"/>
      <use x="365.340988" xlink:href="#Inter-Regular-6e"/>
      <use x="423.863724" xlink:href="#Inter-Regular-20"/>
      <use x="451.988724" xlink:href="#Inter-Regular-49"/>
      <use x="478.40918" xlink:href="#Inter-Regular-72"/>
      <use x="516.761459" xlink:href="#Inter-Regular-65"/>
      <use x="575.000107" xlink:href="#Inter-Regular-6c"/>
      <use x="598.721695" xlink:href="#Inter-Regular-61"/>
      <use x="655.113754" xlink:href="#Inter-Regular-6e"/>
      <use x="713.63649" xlink:href="#Inter-Regular-64"/>
     </g>
    </g>
    <g id="line2d_39">
     <path d="M 62.204688 88.954688 
L 82.204688 88.954688 
" style="fill:none;stroke:#5694ca;stroke-linecap:square;stroke-width:2;"/>
    </g>
    <g id="line2d_40"/>
    <g id="text_27">
     <!-- England -->
     <g transform="translate(90.204688 92.454688)scale(0.1 -0.1)">
      <defs>
       <path d="M 564 0 
L 564 4655 
L 3373 4655 
L 3373 4155 
L 1127 4155 
L 1127 2582 
L 3227 2582 
L 3227 2082 
L 1127 2082 
L 1127 500 
L 3409 500 
L 3409 0 
L 564 0 
z
" id="Inter-Regular-45" transform="scale(0.015625)"/>
      </defs>
      <use xlink:href="#Inter-Regular-45"/>
      <use x="59.801147" xlink:href="#Inter-Regular-6e"/>
      <use x="118.323883" xlink:href="#Inter-Regular-67"/>
      <use x="179.261398" xlink:href="#Inter-Regular-6c"/>
      <use x="202.982986" xlink:href="#Inter-Regular-61"/>
      <use x="259.375046" xlink:href="#Inter-Regular-6e"/>
      <use x="317.897781" xlink:href="#Inter-Regular-64"/>
     </g>
    </g>
   </g>
  </g>
 </g>
 <defs>
  <clipPath id="p798344b024">
   <rect height="443.52" width="669.6" x="53.204688" y="33.225"/>
  </clipPath>
 </defs>
</svg>
