<?xml version="1.0" encoding="utf-8" standalone="no"?>
<!DOCTYPE svg PUBLIC "-//W3C//DTD SVG 1.1//EN"
  "http://www.w3.org/Graphics/SVG/1.1/DTD/svg11.dtd">
<svg version="1.1" viewBox="0 0 768.22937 511.27625" xmlns="http://www.w3.org/2000/svg" xmlns:xlink="http://www.w3.org/1999/xlink">
 <metadata>
  <rdf:RDF xmlns:cc="http://creativecommons.org/ns#" xmlns:dc="http://purl.org/dc/elements/1.1/" xmlns:rdf="http://www.w3.org/1999/02/22-rdf-syntax-ns#">
   <cc:Work>
    <dc:type rdf:resource="http://purl.org/dc/dcmitype/StillImage"/>
    <dc:date>2021-04-02T16:47:30.493382</dc:date>
    <dc:format>image/svg+xml</dc:format>
    <dc:creator>
     <cc:Agent>
      <dc:title>Matplotlib v3.4.1, https://matplotlib.org/</dc:title>
     </cc:Agent>
    </dc:creator>
   </cc:Work>
  </rdf:RDF>
 </metadata>
 <defs>
  <style type="text/css">*{stroke-linecap:butt;stroke-linejoin:round;}</style>
 </defs>
 <g id="figure_1">
  <g id="patch_1">
   <path d="M 0 511.27625 
L 768.22937 511.27625 
L 768.22937 0 
L 0 0 
z
" style="fill:#ffffff;"/>
  </g>
  <g id="axes_1">
   <g id="patch_2">
    <path d="M 68.404688 476.745 
L 738.004688 476.745 
L 738.004688 33.225 
L 68.404688 33.225 
z
" style="fill:#ffffff;"/>
   </g>
   <g id="matplotlib.axis_1">
    <g id="xtick_1">
     <g id="line2d_1">
      <defs>
       <path d="M 0 0 
L 0 3.5 
" id="mfdbfbcae0b" style="stroke:#000000;stroke-width:0.8;"/>
      </defs>
      <g>
       <use style="stroke:#000000;stroke-width:0.8;" x="68.404687" xlink:href="#mfdbfbcae0b" y="476.745"/>
      </g>
     </g>
     <g id="text_1">
      <!-- 01 Mar -->
      <g transform="translate(52.367969 491.018438)scale(0.1 -0.1)">
       <defs>
        <path d="M 2000 -64 
Q 1230 -64 806 561 
Q 382 1186 382 2327 
Q 382 3459 809 4088 
Q 1236 4718 2000 4718 
Q 2764 4718 3191 4088 
Q 3618 3459 3618 2327 
Q 3618 1186 3194 561 
Q 2771 -64 2000 -64 
z
M 2000 436 
Q 2509 436 2791 927 
Q 3073 1418 3073 2327 
Q 3073 3234 2789 3730 
Q 2505 4227 2000 4227 
Q 1496 4227 1211 3730 
Q 927 3234 927 2327 
Q 927 1418 1210 927 
Q 1493 436 2000 436 
z
" id="Inter-Regular-30" transform="scale(0.015625)"/>
        <path d="M 1973 4655 
L 1973 0 
L 1409 0 
L 1409 3836 
L 1373 3836 
Q 1341 3773 1209 3692 
Q 1077 3611 868 3551 
Q 659 3491 391 3491 
L 391 3964 
Q 661 3964 859 4061 
Q 1057 4159 1190 4291 
Q 1323 4423 1392 4529 
Q 1461 4636 1473 4655 
L 1973 4655 
z
" id="Inter-Regular-31" transform="scale(0.015625)"/>
        <path id="Inter-Regular-20" transform="scale(0.015625)"/>
        <path d="M 564 4655 
L 1236 4655 
L 2818 791 
L 2873 791 
L 4455 4655 
L 5127 4655 
L 5127 0 
L 4600 0 
L 4600 3536 
L 4555 3536 
L 3100 0 
L 2591 0 
L 1136 3536 
L 1091 3536 
L 1091 0 
L 564 0 
L 564 4655 
z
" id="Inter-Regular-4d" transform="scale(0.015625)"/>
        <path d="M 1518 -82 
Q 1186 -82 916 44 
Q 646 170 486 410 
Q 327 650 327 991 
Q 327 1291 445 1478 
Q 564 1666 761 1773 
Q 959 1880 1199 1933 
Q 1439 1986 1682 2018 
Q 2000 2059 2199 2080 
Q 2398 2102 2490 2154 
Q 2582 2207 2582 2336 
L 2582 2355 
Q 2582 2691 2399 2877 
Q 2216 3064 1846 3064 
Q 1461 3064 1243 2895 
Q 1025 2727 936 2536 
L 427 2718 
Q 564 3036 792 3214 
Q 1021 3393 1292 3464 
Q 1564 3536 1827 3536 
Q 1996 3536 2215 3496 
Q 2434 3457 2640 3334 
Q 2846 3211 2982 2963 
Q 3118 2716 3118 2300 
L 3118 0 
L 2582 0 
L 2582 473 
L 2555 473 
Q 2500 359 2373 229 
Q 2246 100 2034 9 
Q 1823 -82 1518 -82 
z
M 1600 400 
Q 1918 400 2137 525 
Q 2357 650 2469 847 
Q 2582 1045 2582 1264 
L 2582 1755 
Q 2548 1714 2433 1681 
Q 2318 1648 2169 1624 
Q 2021 1600 1881 1583 
Q 1741 1566 1655 1555 
Q 1446 1527 1265 1467 
Q 1084 1407 974 1287 
Q 864 1168 864 964 
Q 864 684 1072 542 
Q 1280 400 1600 400 
z
" id="Inter-Regular-61" transform="scale(0.015625)"/>
        <path d="M 491 0 
L 491 3491 
L 1009 3491 
L 1009 2964 
L 1046 2964 
Q 1139 3223 1389 3384 
Q 1639 3545 1955 3545 
Q 2100 3545 2209 3511 
Q 2318 3477 2400 3418 
L 2218 2964 
Q 2161 2993 2085 3010 
Q 2009 3027 1909 3027 
Q 1527 3027 1277 2794 
Q 1027 2561 1027 2209 
L 1027 0 
L 491 0 
z
" id="Inter-Regular-72" transform="scale(0.015625)"/>
       </defs>
       <use xlink:href="#Inter-Regular-30"/>
       <use x="62.500015" xlink:href="#Inter-Regular-31"/>
       <use x="106.676163" xlink:href="#Inter-Regular-20"/>
       <use x="134.801163" xlink:href="#Inter-Regular-4d"/>
       <use x="225.99437" xlink:href="#Inter-Regular-61"/>
       <use x="282.386429" xlink:href="#Inter-Regular-72"/>
      </g>
     </g>
    </g>
    <g id="xtick_2">
     <g id="line2d_2">
      <g>
       <use style="stroke:#000000;stroke-width:0.8;" x="120.598943" xlink:href="#mfdbfbcae0b" y="476.745"/>
      </g>
     </g>
     <g id="text_2">
      <!-- 01 Apr -->
      <g transform="translate(105.513787 491.116875)scale(0.1 -0.1)">
       <defs>
        <path d="M 755 0 
L 164 0 
L 1873 4655 
L 2455 4655 
L 4164 0 
L 3573 0 
L 3105 1318 
L 1223 1318 
L 755 0 
z
M 1400 1818 
L 2927 1818 
L 2182 3918 
L 2146 3918 
L 1400 1818 
z
" id="Inter-Regular-41" transform="scale(0.015625)"/>
        <path d="M 491 -1309 
L 491 3491 
L 1009 3491 
L 1009 2936 
L 1073 2936 
Q 1132 3027 1237 3169 
Q 1343 3311 1542 3423 
Q 1741 3536 2082 3536 
Q 2523 3536 2859 3315 
Q 3196 3095 3384 2690 
Q 3573 2286 3573 1736 
Q 3573 1182 3384 776 
Q 3196 370 2861 148 
Q 2527 -73 2091 -73 
Q 1755 -73 1552 39 
Q 1350 152 1241 296 
Q 1132 441 1073 536 
L 1027 536 
L 1027 -1309 
L 491 -1309 
z
M 1018 1745 
Q 1018 1152 1276 780 
Q 1534 409 2018 409 
Q 2355 409 2581 587 
Q 2807 766 2921 1069 
Q 3036 1373 3036 1745 
Q 3036 2114 2923 2410 
Q 2811 2707 2585 2881 
Q 2359 3055 2018 3055 
Q 1527 3055 1272 2693 
Q 1018 2332 1018 1745 
z
" id="Inter-Regular-70" transform="scale(0.015625)"/>
       </defs>
       <use xlink:href="#Inter-Regular-30"/>
       <use x="62.500015" xlink:href="#Inter-Regular-31"/>
       <use x="106.676163" xlink:href="#Inter-Regular-20"/>
       <use x="134.801163" xlink:href="#Inter-Regular-41"/>
       <use x="202.41481" xlink:href="#Inter-Regular-70"/>
       <use x="263.352325" xlink:href="#Inter-Regular-72"/>
      </g>
     </g>
    </g>
    <g id="xtick_3">
     <g id="line2d_3">
      <g>
       <use style="stroke:#000000;stroke-width:0.8;" x="171.109513" xlink:href="#mfdbfbcae0b" y="476.745"/>
      </g>
     </g>
     <g id="text_3">
      <!-- 01 May -->
      <g transform="translate(154.206388 491.116875)scale(0.1 -0.1)">
       <defs>
        <path d="M 818 -1355 
Q 682 -1355 575 -1333 
Q 468 -1311 427 -1291 
L 564 -818 
Q 857 -893 1053 -814 
Q 1250 -736 1391 -345 
L 1509 -18 
L 218 3491 
L 800 3491 
L 1764 709 
L 1800 709 
L 2764 3491 
L 3346 3491 
L 1846 -564 
Q 1550 -1355 818 -1355 
z
" id="Inter-Regular-79" transform="scale(0.015625)"/>
       </defs>
       <use xlink:href="#Inter-Regular-30"/>
       <use x="62.500015" xlink:href="#Inter-Regular-31"/>
       <use x="106.676163" xlink:href="#Inter-Regular-20"/>
       <use x="134.801163" xlink:href="#Inter-Regular-4d"/>
       <use x="225.99437" xlink:href="#Inter-Regular-61"/>
       <use x="282.386429" xlink:href="#Inter-Regular-79"/>
      </g>
     </g>
    </g>
    <g id="xtick_4">
     <g id="line2d_4">
      <g>
       <use style="stroke:#000000;stroke-width:0.8;" x="223.303769" xlink:href="#mfdbfbcae0b" y="476.745"/>
      </g>
     </g>
     <g id="text_4">
      <!-- 01 Jun -->
      <g transform="translate(208.019394 491.018438)scale(0.1 -0.1)">
       <defs>
        <path d="M 2346 4655 
L 2909 4655 
L 2909 1327 
Q 2909 657 2549 296 
Q 2189 -64 1582 -64 
Q 1200 -64 902 76 
Q 605 216 434 475 
Q 264 734 264 1091 
L 818 1091 
Q 818 795 1034 615 
Q 1250 436 1582 436 
Q 1948 436 2147 664 
Q 2346 893 2346 1327 
L 2346 4655 
z
" id="Inter-Regular-4a" transform="scale(0.015625)"/>
        <path d="M 2691 1427 
L 2691 3491 
L 3227 3491 
L 3227 0 
L 2691 0 
L 2691 591 
L 2655 591 
Q 2532 325 2273 140 
Q 2014 -45 1618 -45 
Q 1127 -45 809 280 
Q 491 605 491 1273 
L 491 3491 
L 1027 3491 
L 1027 1309 
Q 1027 927 1242 700 
Q 1457 473 1791 473 
Q 1991 473 2199 575 
Q 2407 677 2549 888 
Q 2691 1100 2691 1427 
z
" id="Inter-Regular-75" transform="scale(0.015625)"/>
        <path d="M 1027 2100 
L 1027 0 
L 491 0 
L 491 3491 
L 1009 3491 
L 1009 2945 
L 1055 2945 
Q 1177 3211 1427 3373 
Q 1677 3536 2073 3536 
Q 2602 3536 2928 3211 
Q 3255 2886 3255 2218 
L 3255 0 
L 2718 0 
L 2718 2182 
Q 2718 2593 2504 2824 
Q 2291 3055 1918 3055 
Q 1534 3055 1280 2806 
Q 1027 2557 1027 2100 
z
" id="Inter-Regular-6e" transform="scale(0.015625)"/>
       </defs>
       <use xlink:href="#Inter-Regular-30"/>
       <use x="62.500015" xlink:href="#Inter-Regular-31"/>
       <use x="106.676163" xlink:href="#Inter-Regular-20"/>
       <use x="134.801163" xlink:href="#Inter-Regular-4a"/>
       <use x="189.062531" xlink:href="#Inter-Regular-75"/>
       <use x="247.159134" xlink:href="#Inter-Regular-6e"/>
      </g>
     </g>
    </g>
    <g id="xtick_5">
     <g id="line2d_5">
      <g>
       <use style="stroke:#000000;stroke-width:0.8;" x="273.814339" xlink:href="#mfdbfbcae0b" y="476.745"/>
      </g>
     </g>
     <g id="text_5">
      <!-- 01 Jul -->
      <g transform="translate(260.270589 491.018438)scale(0.1 -0.1)">
       <defs>
        <path d="M 1027 4655 
L 1027 0 
L 491 0 
L 491 4655 
L 1027 4655 
z
" id="Inter-Regular-6c" transform="scale(0.015625)"/>
       </defs>
       <use xlink:href="#Inter-Regular-30"/>
       <use x="62.500015" xlink:href="#Inter-Regular-31"/>
       <use x="106.676163" xlink:href="#Inter-Regular-20"/>
       <use x="134.801163" xlink:href="#Inter-Regular-4a"/>
       <use x="189.062531" xlink:href="#Inter-Regular-75"/>
       <use x="247.159134" xlink:href="#Inter-Regular-6c"/>
      </g>
     </g>
    </g>
    <g id="xtick_6">
     <g id="line2d_6">
      <g>
       <use style="stroke:#000000;stroke-width:0.8;" x="326.008595" xlink:href="#mfdbfbcae0b" y="476.745"/>
      </g>
     </g>
     <g id="text_6">
      <!-- 01 Aug -->
      <g transform="translate(309.93672 491.116875)scale(0.1 -0.1)">
       <defs>
        <path d="M 1900 -1382 
Q 1316 -1382 976 -1169 
Q 636 -957 473 -682 
L 900 -382 
Q 973 -477 1084 -601 
Q 1196 -725 1390 -817 
Q 1584 -909 1900 -909 
Q 2323 -909 2598 -704 
Q 2873 -500 2873 -64 
L 2873 645 
L 2827 645 
Q 2768 550 2660 410 
Q 2552 270 2351 162 
Q 2150 55 1809 55 
Q 1386 55 1051 255 
Q 716 455 521 836 
Q 327 1218 327 1764 
Q 327 2300 516 2699 
Q 705 3098 1041 3317 
Q 1377 3536 1818 3536 
Q 2159 3536 2360 3423 
Q 2561 3311 2669 3169 
Q 2777 3027 2836 2936 
L 2891 2936 
L 2891 3491 
L 3409 3491 
L 3409 -100 
Q 3409 -550 3205 -833 
Q 3002 -1116 2660 -1249 
Q 2318 -1382 1900 -1382 
z
M 1882 536 
Q 2366 536 2624 864 
Q 2882 1193 2882 1773 
Q 2882 2339 2627 2697 
Q 2373 3055 1882 3055 
Q 1541 3055 1315 2882 
Q 1089 2709 976 2418 
Q 864 2127 864 1773 
Q 864 1227 1120 881 
Q 1377 536 1882 536 
z
" id="Inter-Regular-67" transform="scale(0.015625)"/>
       </defs>
       <use xlink:href="#Inter-Regular-30"/>
       <use x="62.500015" xlink:href="#Inter-Regular-31"/>
       <use x="106.676163" xlink:href="#Inter-Regular-20"/>
       <use x="134.801163" xlink:href="#Inter-Regular-41"/>
       <use x="202.41481" xlink:href="#Inter-Regular-75"/>
       <use x="260.511414" xlink:href="#Inter-Regular-67"/>
      </g>
     </g>
    </g>
    <g id="xtick_7">
     <g id="line2d_7">
      <g>
       <use style="stroke:#000000;stroke-width:0.8;" x="378.202851" xlink:href="#mfdbfbcae0b" y="476.745"/>
      </g>
     </g>
     <g id="text_7">
      <!-- 01 Sep -->
      <g transform="translate(362.315351 491.116875)scale(0.1 -0.1)">
       <defs>
        <path d="M 3109 3491 
Q 3068 3836 2777 4027 
Q 2486 4218 2064 4218 
Q 1600 4218 1318 3999 
Q 1036 3780 1036 3445 
Q 1036 3195 1189 3042 
Q 1343 2889 1553 2803 
Q 1764 2718 1936 2673 
L 2409 2545 
Q 2591 2498 2815 2414 
Q 3039 2330 3244 2185 
Q 3450 2041 3584 1816 
Q 3718 1591 3718 1264 
Q 3718 886 3521 581 
Q 3325 277 2949 97 
Q 2573 -82 2036 -82 
Q 1286 -82 845 272 
Q 405 627 364 1200 
L 946 1200 
Q 968 936 1124 764 
Q 1280 593 1519 510 
Q 1759 427 2036 427 
Q 2359 427 2616 533 
Q 2873 639 3023 828 
Q 3173 1018 3173 1273 
Q 3173 1505 3043 1650 
Q 2914 1795 2702 1886 
Q 2491 1977 2246 2045 
L 1673 2209 
Q 1127 2366 809 2657 
Q 491 2948 491 3418 
Q 491 3809 703 4101 
Q 916 4393 1276 4555 
Q 1636 4718 2082 4718 
Q 2532 4718 2882 4558 
Q 3232 4398 3437 4120 
Q 3643 3843 3655 3491 
L 3109 3491 
z
" id="Inter-Regular-53" transform="scale(0.015625)"/>
        <path d="M 1955 -73 
Q 1450 -73 1085 151 
Q 721 375 524 778 
Q 327 1182 327 1718 
Q 327 2255 524 2665 
Q 721 3075 1074 3305 
Q 1427 3536 1900 3536 
Q 2173 3536 2439 3445 
Q 2705 3355 2923 3151 
Q 3141 2948 3270 2614 
Q 3400 2280 3400 1791 
L 3400 1564 
L 866 1564 
Q 884 1005 1183 707 
Q 1482 409 1955 409 
Q 2271 409 2498 545 
Q 2725 682 2827 955 
L 3346 809 
Q 3223 414 2854 170 
Q 2486 -73 1955 -73 
z
M 866 2027 
L 2855 2027 
Q 2855 2470 2595 2762 
Q 2336 3055 1900 3055 
Q 1593 3055 1368 2911 
Q 1143 2768 1013 2533 
Q 884 2298 866 2027 
z
" id="Inter-Regular-65" transform="scale(0.015625)"/>
       </defs>
       <use xlink:href="#Inter-Regular-30"/>
       <use x="62.500015" xlink:href="#Inter-Regular-31"/>
       <use x="106.676163" xlink:href="#Inter-Regular-20"/>
       <use x="134.801163" xlink:href="#Inter-Regular-53"/>
       <use x="198.57959" xlink:href="#Inter-Regular-65"/>
       <use x="256.818237" xlink:href="#Inter-Regular-70"/>
      </g>
     </g>
    </g>
    <g id="xtick_8">
     <g id="line2d_8">
      <g>
       <use style="stroke:#000000;stroke-width:0.8;" x="428.713421" xlink:href="#mfdbfbcae0b" y="476.745"/>
      </g>
     </g>
     <g id="text_8">
      <!-- 01 Oct -->
      <g transform="translate(413.557171 491.018438)scale(0.1 -0.1)">
       <defs>
        <path d="M 4491 2327 
Q 4491 1591 4225 1054 
Q 3959 518 3495 227 
Q 3032 -64 2436 -64 
Q 1841 -64 1377 227 
Q 914 518 648 1054 
Q 382 1591 382 2327 
Q 382 3064 648 3600 
Q 914 4136 1377 4427 
Q 1841 4718 2436 4718 
Q 3032 4718 3495 4427 
Q 3959 4136 4225 3600 
Q 4491 3064 4491 2327 
z
M 3946 2327 
Q 3946 2932 3744 3348 
Q 3543 3764 3201 3977 
Q 2859 4191 2436 4191 
Q 2014 4191 1672 3977 
Q 1330 3764 1128 3348 
Q 927 2932 927 2327 
Q 927 1723 1128 1307 
Q 1330 891 1672 677 
Q 2014 464 2436 464 
Q 2859 464 3201 677 
Q 3543 891 3744 1307 
Q 3946 1723 3946 2327 
z
" id="Inter-Regular-4f" transform="scale(0.015625)"/>
        <path d="M 1909 -73 
Q 1418 -73 1063 159 
Q 709 391 518 798 
Q 327 1205 327 1727 
Q 327 2259 524 2667 
Q 721 3075 1074 3305 
Q 1427 3536 1900 3536 
Q 2268 3536 2563 3400 
Q 2859 3264 3047 3018 
Q 3236 2773 3282 2445 
L 2746 2445 
Q 2684 2684 2474 2869 
Q 2264 3055 1909 3055 
Q 1439 3055 1151 2697 
Q 864 2339 864 1745 
Q 864 1139 1148 774 
Q 1432 409 1909 409 
Q 2223 409 2447 570 
Q 2671 732 2746 1018 
L 3282 1018 
Q 3236 709 3058 462 
Q 2880 216 2588 71 
Q 2296 -73 1909 -73 
z
" id="Inter-Regular-63" transform="scale(0.015625)"/>
        <path d="M 2009 3491 
L 2009 3036 
L 1264 3036 
L 1264 1000 
Q 1264 773 1331 660 
Q 1398 548 1503 510 
Q 1609 473 1727 473 
Q 1816 473 1873 483 
Q 1930 493 1964 500 
L 2073 18 
Q 2018 -2 1920 -23 
Q 1823 -45 1673 -45 
Q 1446 -45 1228 52 
Q 1011 150 869 350 
Q 727 550 727 855 
L 727 3036 
L 200 3036 
L 200 3491 
L 727 3491 
L 727 4327 
L 1264 4327 
L 1264 3491 
L 2009 3491 
z
" id="Inter-Regular-74" transform="scale(0.015625)"/>
       </defs>
       <use xlink:href="#Inter-Regular-30"/>
       <use x="62.500015" xlink:href="#Inter-Regular-31"/>
       <use x="106.676163" xlink:href="#Inter-Regular-20"/>
       <use x="134.801163" xlink:href="#Inter-Regular-4f"/>
       <use x="210.937546" xlink:href="#Inter-Regular-63"/>
       <use x="266.761414" xlink:href="#Inter-Regular-74"/>
      </g>
     </g>
    </g>
    <g id="xtick_9">
     <g id="line2d_9">
      <g>
       <use style="stroke:#000000;stroke-width:0.8;" x="480.907677" xlink:href="#mfdbfbcae0b" y="476.745"/>
      </g>
     </g>
     <g id="text_9">
      <!-- 01 Nov -->
      <g transform="translate(464.636583 491.018438)scale(0.1 -0.1)">
       <defs>
        <path d="M 4255 4655 
L 4255 0 
L 3709 0 
L 1173 3655 
L 1127 3655 
L 1127 0 
L 564 0 
L 564 4655 
L 1109 4655 
L 3655 991 
L 3700 991 
L 3700 4655 
L 4255 4655 
z
" id="Inter-Regular-4e" transform="scale(0.015625)"/>
        <path d="M 1909 -73 
Q 1436 -73 1080 152 
Q 725 377 526 781 
Q 327 1186 327 1727 
Q 327 2273 526 2679 
Q 725 3086 1080 3311 
Q 1436 3536 1909 3536 
Q 2382 3536 2737 3311 
Q 3093 3086 3292 2679 
Q 3491 2273 3491 1727 
Q 3491 1186 3292 781 
Q 3093 377 2737 152 
Q 2382 -73 1909 -73 
z
M 1909 409 
Q 2268 409 2500 593 
Q 2732 777 2843 1077 
Q 2955 1377 2955 1727 
Q 2955 2077 2843 2379 
Q 2732 2682 2500 2868 
Q 2268 3055 1909 3055 
Q 1550 3055 1318 2868 
Q 1086 2682 975 2379 
Q 864 2077 864 1727 
Q 864 1377 975 1077 
Q 1086 777 1318 593 
Q 1550 409 1909 409 
z
" id="Inter-Regular-6f" transform="scale(0.015625)"/>
        <path d="M 3346 3491 
L 2055 0 
L 1509 0 
L 218 3491 
L 800 3491 
L 1764 709 
L 1800 709 
L 2764 3491 
L 3346 3491 
z
" id="Inter-Regular-76" transform="scale(0.015625)"/>
       </defs>
       <use xlink:href="#Inter-Regular-30"/>
       <use x="62.500015" xlink:href="#Inter-Regular-31"/>
       <use x="106.676163" xlink:href="#Inter-Regular-20"/>
       <use x="134.801163" xlink:href="#Inter-Regular-4e"/>
       <use x="210.085266" xlink:href="#Inter-Regular-6f"/>
       <use x="269.74437" xlink:href="#Inter-Regular-76"/>
      </g>
     </g>
    </g>
    <g id="xtick_10">
     <g id="line2d_10">
      <g>
       <use style="stroke:#000000;stroke-width:0.8;" x="531.418247" xlink:href="#mfdbfbcae0b" y="476.745"/>
      </g>
     </g>
     <g id="text_10">
      <!-- 01 Dec -->
      <g transform="translate(515.381528 491.018438)scale(0.1 -0.1)">
       <defs>
        <path d="M 2000 0 
L 564 0 
L 564 4655 
L 2064 4655 
Q 2741 4655 3223 4376 
Q 3705 4098 3961 3578 
Q 4218 3059 4218 2336 
Q 4218 1609 3959 1085 
Q 3700 561 3204 280 
Q 2709 0 2000 0 
z
M 1127 500 
L 1964 500 
Q 2830 500 3251 992 
Q 3673 1484 3673 2336 
Q 3673 3182 3259 3668 
Q 2846 4155 2027 4155 
L 1127 4155 
L 1127 500 
z
" id="Inter-Regular-44" transform="scale(0.015625)"/>
       </defs>
       <use xlink:href="#Inter-Regular-30"/>
       <use x="62.500015" xlink:href="#Inter-Regular-31"/>
       <use x="106.676163" xlink:href="#Inter-Regular-20"/>
       <use x="134.801163" xlink:href="#Inter-Regular-44"/>
       <use x="206.676178" xlink:href="#Inter-Regular-65"/>
       <use x="264.914825" xlink:href="#Inter-Regular-63"/>
      </g>
     </g>
    </g>
    <g id="xtick_11">
     <g id="line2d_11">
      <g>
       <use style="stroke:#000000;stroke-width:0.8;" x="583.612503" xlink:href="#mfdbfbcae0b" y="476.745"/>
      </g>
     </g>
     <g id="text_11">
      <!-- 01 Jan -->
      <g transform="translate(568.413284 491.018438)scale(0.1 -0.1)">
       <use xlink:href="#Inter-Regular-30"/>
       <use x="62.500015" xlink:href="#Inter-Regular-31"/>
       <use x="106.676163" xlink:href="#Inter-Regular-20"/>
       <use x="134.801163" xlink:href="#Inter-Regular-4a"/>
       <use x="189.062531" xlink:href="#Inter-Regular-61"/>
       <use x="245.45459" xlink:href="#Inter-Regular-6e"/>
      </g>
     </g>
    </g>
    <g id="xtick_12">
     <g id="line2d_12">
      <g>
       <use style="stroke:#000000;stroke-width:0.8;" x="635.806759" xlink:href="#mfdbfbcae0b" y="476.745"/>
      </g>
     </g>
     <g id="text_12">
      <!-- 01 Feb -->
      <g transform="translate(620.117696 491.018438)scale(0.1 -0.1)">
       <defs>
        <path d="M 564 0 
L 564 4655 
L 3355 4655 
L 3355 4155 
L 1127 4155 
L 1127 2582 
L 3146 2582 
L 3146 2082 
L 1127 2082 
L 1127 0 
L 564 0 
z
" id="Inter-Regular-46" transform="scale(0.015625)"/>
        <path d="M 564 0 
L 564 4655 
L 1100 4655 
L 1100 2936 
L 1146 2936 
Q 1205 3027 1310 3169 
Q 1416 3311 1615 3423 
Q 1814 3536 2155 3536 
Q 2596 3536 2932 3315 
Q 3268 3095 3457 2690 
Q 3646 2286 3646 1736 
Q 3646 1182 3457 776 
Q 3268 370 2934 148 
Q 2600 -73 2164 -73 
Q 1827 -73 1625 39 
Q 1423 152 1314 296 
Q 1205 441 1146 536 
L 1082 536 
L 1082 0 
L 564 0 
z
M 1091 1745 
Q 1091 1152 1349 780 
Q 1607 409 2091 409 
Q 2427 409 2653 587 
Q 2880 766 2994 1069 
Q 3109 1373 3109 1745 
Q 3109 2114 2996 2410 
Q 2884 2707 2658 2881 
Q 2432 3055 2091 3055 
Q 1600 3055 1345 2693 
Q 1091 2332 1091 1745 
z
" id="Inter-Regular-62" transform="scale(0.015625)"/>
       </defs>
       <use xlink:href="#Inter-Regular-30"/>
       <use x="62.500015" xlink:href="#Inter-Regular-31"/>
       <use x="106.676163" xlink:href="#Inter-Regular-20"/>
       <use x="134.801163" xlink:href="#Inter-Regular-46"/>
       <use x="193.465942" xlink:href="#Inter-Regular-65"/>
       <use x="251.70459" xlink:href="#Inter-Regular-62"/>
      </g>
     </g>
    </g>
    <g id="xtick_13">
     <g id="line2d_13">
      <g>
       <use style="stroke:#000000;stroke-width:0.8;" x="682.949958" xlink:href="#mfdbfbcae0b" y="476.745"/>
      </g>
     </g>
     <g id="text_13">
      <!-- 01 Mar -->
      <g transform="translate(666.913239 491.018438)scale(0.1 -0.1)">
       <use xlink:href="#Inter-Regular-30"/>
       <use x="62.500015" xlink:href="#Inter-Regular-31"/>
       <use x="106.676163" xlink:href="#Inter-Regular-20"/>
       <use x="134.801163" xlink:href="#Inter-Regular-4d"/>
       <use x="225.99437" xlink:href="#Inter-Regular-61"/>
       <use x="282.386429" xlink:href="#Inter-Regular-72"/>
      </g>
     </g>
    </g>
    <g id="xtick_14">
     <g id="line2d_14">
      <g>
       <use style="stroke:#000000;stroke-width:0.8;" x="735.144214" xlink:href="#mfdbfbcae0b" y="476.745"/>
      </g>
     </g>
     <g id="text_14">
      <!-- 01 Apr -->
      <g transform="translate(720.059057 491.116875)scale(0.1 -0.1)">
       <use xlink:href="#Inter-Regular-30"/>
       <use x="62.500015" xlink:href="#Inter-Regular-31"/>
       <use x="106.676163" xlink:href="#Inter-Regular-20"/>
       <use x="134.801163" xlink:href="#Inter-Regular-41"/>
       <use x="202.41481" xlink:href="#Inter-Regular-70"/>
       <use x="263.352325" xlink:href="#Inter-Regular-72"/>
      </g>
     </g>
    </g>
   </g>
   <g id="matplotlib.axis_2">
    <g id="ytick_1">
     <g id="line2d_15">
      <path clip-path="url(#p7e33e31341)" d="M 68.404688 476.745 
L 738.004688 476.745 
" style="fill:none;stroke:#e5e5e5;stroke-linecap:square;stroke-width:0.8;"/>
     </g>
     <g id="line2d_16">
      <defs>
       <path d="M 0 0 
L -3.5 0 
" id="m319d1a5257" style="stroke:#000000;stroke-width:0.8;"/>
      </defs>
      <g>
       <use style="stroke:#000000;stroke-width:0.8;" x="68.404688" xlink:href="#m319d1a5257" y="476.745"/>
      </g>
     </g>
     <g id="text_15">
      <!-- 0.00% -->
      <g transform="translate(31.773438 480.381719)scale(0.1 -0.1)">
       <defs>
        <path d="M 882 -36 
Q 714 -36 593 84 
Q 473 205 473 373 
Q 473 541 593 661 
Q 714 782 882 782 
Q 1050 782 1170 661 
Q 1291 541 1291 373 
Q 1291 205 1170 84 
Q 1050 -36 882 -36 
z
" id="Inter-Regular-2e" transform="scale(0.015625)"/>
        <path d="M 2855 873 
L 2855 1118 
Q 2855 1373 2960 1585 
Q 3066 1798 3269 1926 
Q 3473 2055 3764 2055 
Q 4059 2055 4259 1926 
Q 4459 1798 4561 1585 
Q 4664 1373 4664 1118 
L 4664 873 
Q 4664 618 4560 405 
Q 4457 193 4256 64 
Q 4055 -64 3764 -64 
Q 3468 -64 3266 64 
Q 3064 193 2959 405 
Q 2855 618 2855 873 
z
M 536 3536 
L 536 3782 
Q 536 4036 642 4248 
Q 748 4461 951 4589 
Q 1155 4718 1446 4718 
Q 1741 4718 1941 4589 
Q 2141 4461 2243 4248 
Q 2346 4036 2346 3782 
L 2346 3536 
Q 2346 3282 2242 3069 
Q 2139 2857 1937 2728 
Q 1736 2600 1446 2600 
Q 1150 2600 948 2728 
Q 746 2857 641 3069 
Q 536 3282 536 3536 
z
M 709 0 
L 3909 4655 
L 4427 4655 
L 1227 0 
L 709 0 
z
M 3318 1118 
L 3318 873 
Q 3318 661 3418 494 
Q 3518 327 3764 327 
Q 4002 327 4101 494 
Q 4200 661 4200 873 
L 4200 1118 
Q 4200 1330 4104 1497 
Q 4009 1664 3764 1664 
Q 3525 1664 3421 1497 
Q 3318 1330 3318 1118 
z
M 1000 3782 
L 1000 3536 
Q 1000 3325 1100 3158 
Q 1200 2991 1446 2991 
Q 1684 2991 1783 3158 
Q 1882 3325 1882 3536 
L 1882 3782 
Q 1882 3993 1786 4160 
Q 1691 4327 1446 4327 
Q 1207 4327 1103 4160 
Q 1000 3993 1000 3782 
z
" id="Inter-Regular-25" transform="scale(0.015625)"/>
       </defs>
       <use xlink:href="#Inter-Regular-30"/>
       <use x="62.500015" xlink:href="#Inter-Regular-2e"/>
       <use x="90.056839" xlink:href="#Inter-Regular-30"/>
       <use x="152.556854" xlink:href="#Inter-Regular-30"/>
       <use x="215.05687" xlink:href="#Inter-Regular-25"/>
      </g>
     </g>
    </g>
    <g id="ytick_2">
     <g id="line2d_17">
      <path clip-path="url(#p7e33e31341)" d="M 68.404688 418.68012 
L 738.004688 418.68012 
" style="fill:none;stroke:#e5e5e5;stroke-linecap:square;stroke-width:0.8;"/>
     </g>
     <g id="line2d_18">
      <g>
       <use style="stroke:#000000;stroke-width:0.8;" x="68.404688" xlink:href="#m319d1a5257" y="418.68012"/>
      </g>
     </g>
     <g id="text_16">
      <!-- 0.05% -->
      <g transform="translate(31.94375 422.316839)scale(0.1 -0.1)">
       <defs>
        <path d="M 1936 -64 
Q 1536 -64 1216 95 
Q 896 255 702 532 
Q 509 809 491 1164 
L 1036 1164 
Q 1068 848 1324 642 
Q 1580 436 1936 436 
Q 2223 436 2447 570 
Q 2671 705 2799 940 
Q 2927 1175 2927 1473 
Q 2927 1777 2794 2017 
Q 2661 2257 2429 2395 
Q 2198 2534 1900 2536 
Q 1686 2539 1461 2472 
Q 1236 2405 1091 2300 
L 564 2364 
L 846 4655 
L 3264 4655 
L 3264 4155 
L 1318 4155 
L 1155 2782 
L 1182 2782 
Q 1325 2895 1541 2970 
Q 1757 3045 1991 3045 
Q 2418 3045 2753 2842 
Q 3089 2639 3281 2286 
Q 3473 1934 3473 1482 
Q 3473 1036 3274 687 
Q 3075 339 2727 137 
Q 2380 -64 1936 -64 
z
" id="Inter-Regular-35" transform="scale(0.015625)"/>
       </defs>
       <use xlink:href="#Inter-Regular-30"/>
       <use x="62.500015" xlink:href="#Inter-Regular-2e"/>
       <use x="90.056839" xlink:href="#Inter-Regular-30"/>
       <use x="152.556854" xlink:href="#Inter-Regular-35"/>
       <use x="213.352325" xlink:href="#Inter-Regular-25"/>
      </g>
     </g>
    </g>
    <g id="ytick_3">
     <g id="line2d_19">
      <path clip-path="url(#p7e33e31341)" d="M 68.404688 360.61524 
L 738.004688 360.61524 
" style="fill:none;stroke:#e5e5e5;stroke-linecap:square;stroke-width:0.8;"/>
     </g>
     <g id="line2d_20">
      <g>
       <use style="stroke:#000000;stroke-width:0.8;" x="68.404688" xlink:href="#m319d1a5257" y="360.61524"/>
      </g>
     </g>
     <g id="text_17">
      <!-- 0.10% -->
      <g transform="translate(33.60625 364.251959)scale(0.1 -0.1)">
       <use xlink:href="#Inter-Regular-30"/>
       <use x="62.500015" xlink:href="#Inter-Regular-2e"/>
       <use x="90.056839" xlink:href="#Inter-Regular-31"/>
       <use x="134.232986" xlink:href="#Inter-Regular-30"/>
       <use x="196.733002" xlink:href="#Inter-Regular-25"/>
      </g>
     </g>
    </g>
    <g id="ytick_4">
     <g id="line2d_21">
      <path clip-path="url(#p7e33e31341)" d="M 68.404688 302.55036 
L 738.004688 302.55036 
" style="fill:none;stroke:#e5e5e5;stroke-linecap:square;stroke-width:0.8;"/>
     </g>
     <g id="line2d_22">
      <g>
       <use style="stroke:#000000;stroke-width:0.8;" x="68.404688" xlink:href="#m319d1a5257" y="302.55036"/>
      </g>
     </g>
     <g id="text_18">
      <!-- 0.15% -->
      <g transform="translate(33.776563 306.187078)scale(0.1 -0.1)">
       <use xlink:href="#Inter-Regular-30"/>
       <use x="62.500015" xlink:href="#Inter-Regular-2e"/>
       <use x="90.056839" xlink:href="#Inter-Regular-31"/>
       <use x="134.232986" xlink:href="#Inter-Regular-35"/>
       <use x="195.028458" xlink:href="#Inter-Regular-25"/>
      </g>
     </g>
    </g>
    <g id="ytick_5">
     <g id="line2d_23">
      <path clip-path="url(#p7e33e31341)" d="M 68.404688 244.48548 
L 738.004688 244.48548 
" style="fill:none;stroke:#e5e5e5;stroke-linecap:square;stroke-width:0.8;"/>
     </g>
     <g id="line2d_24">
      <g>
       <use style="stroke:#000000;stroke-width:0.8;" x="68.404688" xlink:href="#m319d1a5257" y="244.48548"/>
      </g>
     </g>
     <g id="text_19">
      <!-- 0.20% -->
      <g transform="translate(31.971875 248.122198)scale(0.1 -0.1)">
       <defs>
        <path d="M 482 0 
L 482 409 
L 2018 2091 
Q 2289 2386 2464 2605 
Q 2639 2825 2724 3019 
Q 2809 3214 2809 3427 
Q 2809 3795 2553 4011 
Q 2298 4227 1918 4227 
Q 1514 4227 1275 3985 
Q 1036 3743 1036 3345 
L 500 3345 
Q 500 3755 688 4064 
Q 877 4373 1203 4545 
Q 1530 4718 1936 4718 
Q 2346 4718 2661 4545 
Q 2977 4373 3156 4079 
Q 3336 3786 3336 3427 
Q 3336 3170 3244 2926 
Q 3152 2682 2926 2383 
Q 2700 2084 2300 1655 
L 1255 536 
L 1255 500 
L 3418 500 
L 3418 0 
L 482 0 
z
" id="Inter-Regular-32" transform="scale(0.015625)"/>
       </defs>
       <use xlink:href="#Inter-Regular-30"/>
       <use x="62.500015" xlink:href="#Inter-Regular-2e"/>
       <use x="90.056839" xlink:href="#Inter-Regular-32"/>
       <use x="150.568222" xlink:href="#Inter-Regular-30"/>
       <use x="213.068237" xlink:href="#Inter-Regular-25"/>
      </g>
     </g>
    </g>
    <g id="ytick_6">
     <g id="line2d_25">
      <path clip-path="url(#p7e33e31341)" d="M 68.404688 186.4206 
L 738.004688 186.4206 
" style="fill:none;stroke:#e5e5e5;stroke-linecap:square;stroke-width:0.8;"/>
     </g>
     <g id="line2d_26">
      <g>
       <use style="stroke:#000000;stroke-width:0.8;" x="68.404688" xlink:href="#m319d1a5257" y="186.4206"/>
      </g>
     </g>
     <g id="text_20">
      <!-- 0.25% -->
      <g transform="translate(32.142188 190.057318)scale(0.1 -0.1)">
       <use xlink:href="#Inter-Regular-30"/>
       <use x="62.500015" xlink:href="#Inter-Regular-2e"/>
       <use x="90.056839" xlink:href="#Inter-Regular-32"/>
       <use x="150.568222" xlink:href="#Inter-Regular-35"/>
       <use x="211.363693" xlink:href="#Inter-Regular-25"/>
      </g>
     </g>
    </g>
    <g id="ytick_7">
     <g id="line2d_27">
      <path clip-path="url(#p7e33e31341)" d="M 68.404688 128.355719 
L 738.004688 128.355719 
" style="fill:none;stroke:#e5e5e5;stroke-linecap:square;stroke-width:0.8;"/>
     </g>
     <g id="line2d_28">
      <g>
       <use style="stroke:#000000;stroke-width:0.8;" x="68.404688" xlink:href="#m319d1a5257" y="128.355719"/>
      </g>
     </g>
     <g id="text_21">
      <!-- 0.30% -->
      <g transform="translate(31.659375 131.992438)scale(0.1 -0.1)">
       <defs>
        <path d="M 2055 -64 
Q 1605 -64 1253 90 
Q 902 245 696 521 
Q 491 798 473 1164 
L 1046 1164 
Q 1071 827 1356 631 
Q 1641 436 2046 436 
Q 2493 436 2783 664 
Q 3073 893 3073 1264 
Q 3073 1650 2787 1893 
Q 2502 2136 1973 2136 
L 1600 2136 
L 1600 2636 
L 1973 2636 
Q 2386 2636 2647 2856 
Q 2909 3077 2909 3445 
Q 2909 3798 2679 4012 
Q 2450 4227 2064 4227 
Q 1823 4227 1610 4139 
Q 1398 4052 1264 3887 
Q 1130 3723 1118 3491 
L 573 3491 
Q 586 3857 793 4133 
Q 1000 4409 1335 4563 
Q 1671 4718 2073 4718 
Q 2505 4718 2814 4544 
Q 3123 4370 3289 4086 
Q 3455 3802 3455 3473 
Q 3455 3080 3249 2802 
Q 3043 2525 2691 2418 
L 2691 2382 
Q 3132 2309 3379 2008 
Q 3627 1707 3627 1264 
Q 3627 884 3421 583 
Q 3216 282 2861 109 
Q 2507 -64 2055 -64 
z
" id="Inter-Regular-33" transform="scale(0.015625)"/>
       </defs>
       <use xlink:href="#Inter-Regular-30"/>
       <use x="62.500015" xlink:href="#Inter-Regular-2e"/>
       <use x="90.056839" xlink:href="#Inter-Regular-33"/>
       <use x="153.693222" xlink:href="#Inter-Regular-30"/>
       <use x="216.193237" xlink:href="#Inter-Regular-25"/>
      </g>
     </g>
    </g>
    <g id="ytick_8">
     <g id="line2d_29">
      <path clip-path="url(#p7e33e31341)" d="M 68.404688 70.290839 
L 738.004688 70.290839 
" style="fill:none;stroke:#e5e5e5;stroke-linecap:square;stroke-width:0.8;"/>
     </g>
     <g id="line2d_30">
      <g>
       <use style="stroke:#000000;stroke-width:0.8;" x="68.404688" xlink:href="#m319d1a5257" y="70.290839"/>
      </g>
     </g>
     <g id="text_22">
      <!-- 0.35% -->
      <g transform="translate(31.829688 73.927558)scale(0.1 -0.1)">
       <use xlink:href="#Inter-Regular-30"/>
       <use x="62.500015" xlink:href="#Inter-Regular-2e"/>
       <use x="90.056839" xlink:href="#Inter-Regular-33"/>
       <use x="153.693222" xlink:href="#Inter-Regular-35"/>
       <use x="214.488693" xlink:href="#Inter-Regular-25"/>
      </g>
     </g>
    </g>
    <g id="text_23">
     <!-- Percent of nation tested positive -->
     <g transform="translate(25.614063 332.215469)rotate(-90)scale(0.1 -0.1)">
      <defs>
       <path d="M 564 0 
L 564 4655 
L 2136 4655 
Q 2684 4655 3033 4458 
Q 3382 4261 3550 3927 
Q 3718 3593 3718 3182 
Q 3718 2770 3551 2434 
Q 3384 2098 3036 1899 
Q 2689 1700 2146 1700 
L 1127 1700 
L 1127 0 
L 564 0 
z
M 1127 2200 
L 2127 2200 
Q 2689 2200 2926 2482 
Q 3164 2764 3164 3182 
Q 3164 3602 2925 3878 
Q 2686 4155 2118 4155 
L 1127 4155 
L 1127 2200 
z
" id="Inter-Regular-50" transform="scale(0.015625)"/>
       <path d="M 2046 3491 
L 2046 3036 
L 1264 3036 
L 1264 0 
L 727 0 
L 727 3036 
L 164 3036 
L 164 3491 
L 727 3491 
L 727 3973 
Q 727 4273 868 4473 
Q 1009 4673 1234 4773 
Q 1459 4873 1709 4873 
Q 1907 4873 2032 4841 
Q 2157 4809 2218 4782 
L 2064 4318 
Q 2023 4332 1951 4352 
Q 1880 4373 1764 4373 
Q 1498 4373 1381 4239 
Q 1264 4105 1264 3845 
L 1264 3491 
L 2046 3491 
z
" id="Inter-Regular-66" transform="scale(0.015625)"/>
       <path d="M 491 0 
L 491 3491 
L 1027 3491 
L 1027 0 
L 491 0 
z
M 764 4073 
Q 607 4073 494 4179 
Q 382 4286 382 4436 
Q 382 4586 494 4693 
Q 607 4800 764 4800 
Q 921 4800 1033 4693 
Q 1146 4586 1146 4436 
Q 1146 4286 1033 4179 
Q 921 4073 764 4073 
z
" id="Inter-Regular-69" transform="scale(0.015625)"/>
       <path d="M 2964 2709 
L 2482 2573 
Q 2411 2755 2245 2914 
Q 2080 3073 1727 3073 
Q 1407 3073 1194 2926 
Q 982 2780 982 2555 
Q 982 2355 1127 2239 
Q 1273 2123 1582 2045 
L 2100 1918 
Q 3027 1691 3027 973 
Q 3027 673 2855 436 
Q 2684 200 2377 63 
Q 2071 -73 1664 -73 
Q 1130 -73 780 159 
Q 430 391 336 836 
L 846 964 
Q 989 400 1655 400 
Q 2030 400 2251 560 
Q 2473 720 2473 945 
Q 2473 1316 1955 1436 
L 1373 1573 
Q 893 1686 669 1926 
Q 446 2166 446 2527 
Q 446 2823 613 3050 
Q 780 3277 1069 3406 
Q 1359 3536 1727 3536 
Q 2246 3536 2542 3309 
Q 2839 3082 2964 2709 
z
" id="Inter-Regular-73" transform="scale(0.015625)"/>
       <path d="M 1809 -73 
Q 1373 -73 1039 148 
Q 705 370 516 776 
Q 327 1182 327 1736 
Q 327 2286 516 2690 
Q 705 3095 1041 3315 
Q 1377 3536 1818 3536 
Q 2159 3536 2358 3423 
Q 2557 3311 2662 3169 
Q 2768 3027 2827 2936 
L 2873 2936 
L 2873 4655 
L 3409 4655 
L 3409 0 
L 2891 0 
L 2891 536 
L 2827 536 
Q 2768 441 2659 296 
Q 2550 152 2348 39 
Q 2146 -73 1809 -73 
z
M 1882 409 
Q 2366 409 2624 780 
Q 2882 1152 2882 1745 
Q 2882 2332 2627 2693 
Q 2373 3055 1882 3055 
Q 1541 3055 1315 2881 
Q 1089 2707 976 2410 
Q 864 2114 864 1745 
Q 864 1373 978 1069 
Q 1093 766 1319 587 
Q 1546 409 1882 409 
z
" id="Inter-Regular-64" transform="scale(0.015625)"/>
      </defs>
      <use xlink:href="#Inter-Regular-50"/>
      <use x="63.494324" xlink:href="#Inter-Regular-65"/>
      <use x="121.732971" xlink:href="#Inter-Regular-72"/>
      <use x="160.085251" xlink:href="#Inter-Regular-63"/>
      <use x="215.909119" xlink:href="#Inter-Regular-65"/>
      <use x="274.147766" xlink:href="#Inter-Regular-6e"/>
      <use x="332.670502" xlink:href="#Inter-Regular-74"/>
      <use x="369.034149" xlink:href="#Inter-Regular-20"/>
      <use x="397.159149" xlink:href="#Inter-Regular-6f"/>
      <use x="456.818253" xlink:href="#Inter-Regular-66"/>
      <use x="492.897797" xlink:href="#Inter-Regular-20"/>
      <use x="521.022797" xlink:href="#Inter-Regular-6e"/>
      <use x="579.545532" xlink:href="#Inter-Regular-61"/>
      <use x="635.937592" xlink:href="#Inter-Regular-74"/>
      <use x="672.301239" xlink:href="#Inter-Regular-69"/>
      <use x="696.022827" xlink:href="#Inter-Regular-6f"/>
      <use x="755.681931" xlink:href="#Inter-Regular-6e"/>
      <use x="814.204666" xlink:href="#Inter-Regular-20"/>
      <use x="842.329666" xlink:href="#Inter-Regular-74"/>
      <use x="878.693314" xlink:href="#Inter-Regular-65"/>
      <use x="936.931961" xlink:href="#Inter-Regular-73"/>
      <use x="989.204697" xlink:href="#Inter-Regular-74"/>
      <use x="1025.568344" xlink:href="#Inter-Regular-65"/>
      <use x="1083.806992" xlink:href="#Inter-Regular-64"/>
      <use x="1145.880875" xlink:href="#Inter-Regular-20"/>
      <use x="1174.005875" xlink:href="#Inter-Regular-70"/>
      <use x="1234.94339" xlink:href="#Inter-Regular-6f"/>
      <use x="1294.602493" xlink:href="#Inter-Regular-73"/>
      <use x="1346.875229" xlink:href="#Inter-Regular-69"/>
      <use x="1370.596817" xlink:href="#Inter-Regular-74"/>
      <use x="1406.960464" xlink:href="#Inter-Regular-69"/>
      <use x="1430.682053" xlink:href="#Inter-Regular-76"/>
      <use x="1486.363876" xlink:href="#Inter-Regular-65"/>
     </g>
    </g>
   </g>
   <g id="line2d_31">
    <path clip-path="url(#p7e33e31341)" d="M -1 476.745 
L 78.506802 476.664536 
L 90.292601 476.330302 
L 91.976287 476.223017 
L 93.659973 476.544872 
L 97.027344 475.455517 
L 98.71103 475.560738 
L 100.394715 475.449327 
L 102.078401 474.94385 
L 103.762087 475.641202 
L 105.445772 475.108904 
L 107.129458 474.149528 
L 108.813144 474.413614 
L 112.180515 471.574687 
L 113.864201 472.331872 
L 115.547886 472.494863 
L 117.231572 472.397894 
L 118.915258 471.764499 
L 120.598943 469.255681 
L 123.966315 469.367092 
L 125.65 470.741165 
L 127.333686 466.208373 
L 129.017372 470.192361 
L 130.701057 470.60087 
L 132.384743 466.866526 
L 134.068429 468.909067 
L 135.752114 467.949692 
L 137.4358 468.820351 
L 139.119486 469.169027 
L 140.803171 470.557543 
L 142.486857 468.79353 
L 144.170543 470.167603 
L 145.854228 470.312025 
L 147.537914 468.523254 
L 149.2216 469.424861 
L 150.905285 469.303134 
L 152.588971 471.791321 
L 154.272657 470.375984 
L 155.956342 470.514216 
L 157.640028 470.382173 
L 159.323714 470.547227 
L 161.007399 470.914472 
L 162.691085 472.305051 
L 164.374771 472.073975 
L 166.058456 472.641348 
L 167.742142 473.850368 
L 169.425828 471.620077 
L 171.109513 471.585003 
L 172.793199 472.14825 
L 174.476885 472.579453 
L 176.16057 473.681188 
L 177.844256 472.944635 
L 179.527942 473.421228 
L 181.211628 472.344251 
L 182.895313 473.249984 
L 186.262685 474.667384 
L 187.94637 474.906713 
L 189.630056 474.543594 
L 192.997427 474.291887 
L 194.681113 474.450751 
L 196.364799 474.401235 
L 198.048484 475.119219 
L 204.783227 474.98305 
L 206.466913 474.510583 
L 208.150598 474.725153 
L 209.834284 475.540107 
L 211.51797 475.725792 
L 213.201655 475.729919 
L 214.885341 475.488527 
L 216.569027 475.674213 
L 218.252712 475.589623 
L 219.936398 475.269831 
L 221.620084 476.084785 
L 223.303769 476.138427 
L 224.987455 475.828951 
L 230.038512 475.814509 
L 231.722198 475.874341 
L 233.405883 476.274596 
L 235.089569 476.555188 
L 236.773255 475.401874 
L 238.45694 476.61502 
L 240.140626 476.117795 
L 241.824312 475.936236 
L 243.507997 475.977499 
L 246.875369 476.293165 
L 253.610111 476.078595 
L 255.293797 476.076532 
L 256.977483 476.301418 
L 258.661168 476.377755 
L 260.344854 476.311734 
L 262.02854 476.52424 
L 263.712225 476.206512 
L 265.395911 476.383945 
L 267.079597 476.348871 
L 270.446968 476.540746 
L 272.130654 476.340618 
L 273.814339 476.379818 
L 275.498025 475.66596 
L 277.181711 475.709287 
L 278.865396 475.550423 
L 280.549082 475.729919 
L 282.232768 476.06209 
L 283.916453 475.564865 
L 287.283825 475.472022 
L 288.96751 475.754677 
L 290.651196 475.082082 
L 292.334882 475.476148 
L 295.702253 475.977499 
L 299.069625 475.513285 
L 300.75331 475.434885 
L 302.436996 475.102714 
L 307.488053 475.921794 
L 309.171739 475.674213 
L 310.855424 475.296652 
L 314.222796 475.280147 
L 315.906481 475.257452 
L 319.273853 475.616444 
L 322.641224 475.069703 
L 324.32491 475.065577 
L 327.692281 475.350295 
L 329.375967 474.978924 
L 331.059652 475.472022 
L 332.743338 475.086209 
L 336.110709 475.102714 
L 337.794395 475.344105 
L 339.478081 474.706585 
L 341.161766 475.302842 
L 342.845452 474.609616 
L 344.529138 474.836565 
L 346.212823 474.560099 
L 347.896509 474.095885 
L 349.580195 474.817996 
L 351.26388 474.780859 
L 352.947566 475.436948 
L 354.631252 474.733406 
L 356.314937 475.286336 
L 357.998623 474.609616 
L 359.682309 474.871639 
L 361.365994 474.558036 
L 363.04968 474.809743 
L 364.733366 475.181115 
L 366.417051 474.54772 
L 368.100737 474.939723 
L 369.784423 473.959716 
L 373.151794 474.906713 
L 374.83548 473.677061 
L 376.519165 474.374414 
L 378.202851 474.597237 
L 379.886537 474.188728 
L 381.570222 473.635798 
L 383.253908 473.301564 
L 384.937594 473.697693 
L 386.621279 471.430265 
L 388.304965 471.529298 
L 389.988651 472.424715 
L 391.672336 472.028586 
L 393.356022 471.426139 
L 395.039708 470.260446 
L 398.407079 470.891777 
L 400.090765 472.084291 
L 401.774451 471.279654 
L 403.458136 469.738463 
L 405.141822 470.992873 
L 406.825508 468.964773 
L 408.509193 469.239175 
L 410.192879 469.979854 
L 413.56025 468.106493 
L 415.243936 466.25789 
L 416.927622 465.125207 
L 418.611307 464.937459 
L 420.294993 467.173939 
L 421.978679 466.841768 
L 423.662364 469.903517 
L 425.34605 465.086007 
L 427.029736 465.075691 
L 428.713421 465.213924 
L 430.397107 466.847957 
L 432.080793 454.450348 
L 433.764478 432.780838 
L 435.448164 454.699992 
L 437.13185 450.649983 
L 438.815535 452.960737 
L 440.499221 445.896431 
L 442.182907 454.520496 
L 443.866592 450.691246 
L 445.550278 455.323071 
L 447.233964 452.71522 
L 448.917649 447.220989 
L 450.601335 443.461887 
L 452.285021 443.447445 
L 453.968706 451.623801 
L 455.652392 449.306857 
L 457.336078 446.408098 
L 459.019763 442.981167 
L 460.703449 439.991629 
L 462.387135 429.399297 
L 464.07082 440.940689 
L 465.754506 441.431724 
L 467.438192 436.859732 
L 469.121877 442.72946 
L 470.805563 439.84927 
L 472.489249 436.24697 
L 474.172934 432.912881 
L 475.85662 436.017957 
L 477.540306 433.787667 
L 479.223991 437.825297 
L 480.907677 434.239502 
L 482.591363 444.02307 
L 484.275048 440.990205 
L 485.958734 431.63784 
L 487.64242 433.135704 
L 489.326105 434.928602 
L 491.009791 431.613082 
L 492.693477 439.003369 
L 494.377162 437.470431 
L 496.060848 438.324585 
L 497.744534 435.543427 
L 499.428219 413.110543 
L 501.111905 426.114725 
L 502.795591 426.614013 
L 504.479276 431.359312 
L 506.162962 436.671983 
L 507.846648 440.53837 
L 509.530333 441.281113 
L 511.214019 434.881149 
L 512.897705 439.927671 
L 514.581391 440.402201 
L 516.265076 442.356026 
L 519.632448 456.414489 
L 521.316133 443.954985 
L 522.999819 446.546331 
L 524.683505 448.774558 
L 526.36719 449.257341 
L 528.050876 456.001855 
L 531.418247 452.775052 
L 533.101933 449.257341 
L 534.785619 452.003425 
L 536.469304 449.073718 
L 538.15299 450.612846 
L 539.836676 447.254 
L 541.520361 452.764736 
L 543.204047 455.16627 
L 544.887733 450.006273 
L 546.571418 440.387759 
L 548.255104 439.816259 
L 549.93879 440.705487 
L 551.622475 441.332692 
L 553.306161 439.851333 
L 554.989847 442.694386 
L 556.673532 428.400721 
L 558.357218 430.527853 
L 560.040904 426.296284 
L 561.724589 429.756226 
L 563.408275 410.40366 
L 565.091961 417.44527 
L 566.775646 410.129258 
L 568.459332 406.087501 
L 570.143018 403.376491 
L 571.826703 411.631248 
L 573.510389 412.153231 
L 575.194075 423.888561 
L 578.561446 379.43749 
L 580.245132 386.885546 
L 581.928817 374.597285 
L 583.612503 372.047203 
L 585.296189 375.137837 
L 586.979874 380.079137 
L 588.66356 367.025439 
L 590.347246 363.394254 
L 592.030931 361.0835 
L 593.714617 380.103895 
L 595.398303 349.329601 
L 597.081988 364.803401 
L 598.765674 372.985947 
L 600.44936 390.432141 
L 602.133045 391.905247 
L 603.816731 388.238988 
L 605.500417 385.226755 
L 607.184102 372.057519 
L 608.867788 398.841636 
L 610.551474 403.991317 
L 612.235159 406.320639 
L 613.918845 414.084361 
L 615.602531 404.408078 
L 617.286216 405.831667 
L 618.969902 400.17032 
L 620.653588 413.826464 
L 622.337274 419.842678 
L 624.020959 435.174119 
L 625.704645 439.772933 
L 627.388331 429.469445 
L 629.072016 422.726994 
L 630.755702 421.639702 
L 632.439388 433.234736 
L 634.123073 437.433294 
L 635.806759 442.052739 
L 637.490445 445.754073 
L 639.17413 441.124311 
L 640.857816 438.51646 
L 642.541502 441.023216 
L 644.225187 443.111147 
L 645.908873 446.899134 
L 647.592559 451.429862 
L 649.276244 454.223399 
L 650.95993 452.913284 
L 652.643616 451.984856 
L 654.327301 449.306857 
L 656.010987 452.612061 
L 657.694673 457.146916 
L 659.378358 458.98314 
L 661.062044 457.689531 
L 662.74573 454.202768 
L 664.429415 454.586518 
L 666.113101 455.502567 
L 667.796787 458.250714 
L 669.480472 459.397838 
L 671.164158 457.309907 
L 672.847844 461.70034 
L 674.531529 458.910929 
L 676.215215 458.954256 
L 677.898901 461.491959 
L 679.582586 463.278667 
L 681.266272 466.264079 
L 682.949958 466.969684 
L 684.633643 465.335651 
L 686.317329 465.587358 
L 688.001015 465.102513 
L 689.6847 466.319785 
L 691.368386 466.185679 
L 694.735757 468.692434 
L 696.419443 466.647829 
L 698.103129 466.711788 
L 699.786814 464.894132 
L 701.4705 465.337714 
L 703.154186 467.380256 
L 704.837871 468.958584 
L 706.521557 467.947629 
L 708.205243 467.685606 
L 711.572614 465.989677 
L 713.2563 468.886373 
L 714.939985 466.982064 
L 716.623671 467.54531 
L 718.307357 466.953179 
L 719.991042 467.289476 
L 721.674728 467.223455 
L 723.358414 465.839065 
L 725.042099 465.865887 
L 726.725785 468.87812 
L 728.409471 470.239814 
L 730.093156 468.261231 
L 731.776842 469.763221 
L 733.460528 469.880822 
L 735.144214 468.937952 
L 736.827899 470.800997 
L 736.827899 470.800997 
" style="fill:none;stroke:#5694ca;stroke-linecap:square;stroke-width:2;"/>
   </g>
   <g id="line2d_32">
    <path clip-path="url(#p7e33e31341)" d="M -1 476.745 
L 75.13943 476.745 
L 76.823116 476.622349 
L 78.506802 476.622349 
L 80.190487 476.438373 
L 83.557859 476.745 
L 85.241544 476.622349 
L 86.92523 476.683675 
L 88.608916 476.131747 
L 90.292601 476.438373 
L 91.976287 476.070421 
L 93.659973 476.315723 
L 95.343658 476.131747 
L 97.027344 476.377048 
L 98.71103 476.193072 
L 100.394715 476.193072 
L 102.078401 475.395843 
L 103.762087 475.518493 
L 105.445772 475.518493 
L 107.129458 475.273192 
L 108.813144 474.475963 
L 110.496829 474.782589 
L 112.180515 474.659939 
L 113.864201 473.740059 
L 117.231572 469.201984 
L 118.915258 473.494757 
L 120.598943 470.428491 
L 122.282629 471.532347 
L 123.966315 468.772707 
L 125.65 470.980419 
L 127.333686 471.164395 
L 129.017372 472.513552 
L 130.701057 470.796443 
L 132.384743 471.593672 
L 134.068429 468.282104 
L 135.752114 469.876563 
L 137.4358 468.895357 
L 139.119486 471.287045 
L 140.803171 472.084275 
L 142.486857 471.532347 
L 144.170543 469.324635 
L 145.854228 469.815237 
L 147.537914 468.343429 
L 150.905285 466.994272 
L 152.588971 471.654997 
L 154.272657 474.90524 
L 155.956342 469.631261 
L 157.640028 468.036803 
L 159.323714 470.244515 
L 161.007399 470.367165 
L 162.691085 471.716323 
L 164.374771 472.697528 
L 166.058456 474.659939 
L 167.742142 473.372107 
L 169.425828 472.268251 
L 171.109513 471.409696 
L 172.793199 472.697528 
L 174.476885 471.961624 
L 176.16057 472.513552 
L 177.844256 473.98536 
L 179.527942 473.494757 
L 181.211628 473.678733 
L 182.895313 474.414637 
L 184.578999 473.310781 
L 186.262685 474.230661 
L 187.94637 474.90524 
L 191.313742 473.06548 
L 192.997427 474.414637 
L 194.681113 475.150541 
L 196.364799 474.291987 
L 199.73217 475.763795 
L 201.415856 475.518493 
L 203.099541 475.641144 
L 204.783227 474.169336 
L 206.466913 475.334517 
L 208.150598 474.230661 
L 209.834284 475.211867 
L 211.51797 474.353312 
L 213.201655 475.027891 
L 214.885341 475.150541 
L 216.569027 475.763795 
L 218.252712 475.702469 
L 219.936398 475.947771 
L 221.620084 476.315723 
L 223.303769 476.009096 
L 224.987455 476.499699 
L 226.671141 476.254397 
L 228.354826 474.721264 
L 230.038512 476.561024 
L 231.722198 475.886445 
L 233.405883 476.377048 
L 235.089569 476.377048 
L 236.773255 476.561024 
L 238.45694 475.947771 
L 240.140626 476.499699 
L 241.824312 475.763795 
L 243.507997 476.561024 
L 245.191683 476.315723 
L 248.559054 476.622349 
L 250.24274 476.254397 
L 251.926426 476.683675 
L 253.610111 476.561024 
L 255.293797 476.745 
L 256.977483 476.499699 
L 258.661168 476.683675 
L 260.344854 476.745 
L 262.02854 476.622349 
L 263.712225 476.683675 
L 265.395911 476.499699 
L 268.763282 476.683675 
L 270.446968 476.377048 
L 273.814339 476.683675 
L 275.498025 476.315723 
L 278.865396 476.745 
L 282.232768 476.745 
L 283.916453 476.438373 
L 287.283825 476.561024 
L 288.96751 476.499699 
L 290.651196 476.745 
L 294.018568 476.745 
L 295.702253 476.622349 
L 299.069625 475.763795 
L 300.75331 475.579819 
L 302.436996 476.745 
L 305.804367 476.745 
L 307.488053 476.622349 
L 309.171739 476.193072 
L 310.855424 476.254397 
L 312.53911 475.82512 
L 314.222796 476.745 
L 317.590167 476.745 
L 319.273853 476.193072 
L 324.32491 476.131747 
L 326.008595 476.745 
L 329.375967 476.745 
L 331.059652 476.254397 
L 332.743338 476.131747 
L 334.427024 474.108011 
L 336.110709 475.82512 
L 337.794395 476.745 
L 341.161766 476.745 
L 342.845452 473.801384 
L 346.212823 476.254397 
L 347.896509 472.206925 
L 349.580195 472.758853 
L 351.26388 475.089216 
L 352.947566 474.353312 
L 354.631252 474.230661 
L 356.314937 474.659939 
L 357.998623 473.617408 
L 359.682309 475.518493 
L 363.04968 469.447285 
L 364.733366 476.131747 
L 366.417051 473.862709 
L 368.100737 472.329576 
L 369.784423 472.513552 
L 371.468108 471.532347 
L 373.151794 471.287045 
L 374.83548 473.740059 
L 376.519165 473.188131 
L 378.202851 473.740059 
L 379.886537 472.390901 
L 381.570222 472.022949 
L 383.253908 473.004155 
L 384.937594 469.508611 
L 386.621279 470.244515 
L 388.304965 468.098128 
L 389.988651 474.291987 
L 391.672336 473.740059 
L 393.356022 471.961624 
L 395.039708 471.348371 
L 396.723393 470.367165 
L 398.407079 471.409696 
L 400.090765 470.060539 
L 401.774451 471.900299 
L 403.458136 468.834032 
L 405.141822 467.607525 
L 406.825508 466.748971 
L 408.509193 463.130776 
L 410.192879 465.951741 
L 413.56025 472.1456 
L 415.243936 463.253427 
L 416.927622 465.154512 
L 418.611307 460.003184 
L 420.294993 457.182219 
L 421.978679 465.277163 
L 423.662364 463.253427 
L 427.029736 450.743059 
L 428.713421 460.861739 
L 430.397107 419.467139 
L 432.080793 432.222808 
L 433.764478 448.412696 
L 435.448164 438.968595 
L 437.13185 435.718352 
L 438.815535 425.967624 
L 440.499221 420.141717 
L 442.182907 410.51364 
L 443.866592 421.429549 
L 445.550278 411.372195 
L 447.233964 422.962683 
L 448.917649 423.821237 
L 450.601335 402.112069 
L 452.285021 429.953771 
L 453.968706 397.083392 
L 455.652392 413.518581 
L 457.336078 414.683763 
L 459.019763 426.458227 
L 460.703449 420.754971 
L 462.387135 413.027979 
L 464.07082 412.844003 
L 465.754506 399.965683 
L 467.438192 420.141717 
L 469.121877 421.797501 
L 470.805563 432.161483 
L 472.489249 432.468109 
L 474.172934 425.23172 
L 475.85662 426.335576 
L 477.540306 442.034861 
L 479.223991 436.944859 
L 480.907677 434.737147 
L 482.591363 446.511611 
L 484.275048 441.78956 
L 485.958734 435.105099 
L 487.64242 445.101128 
L 489.326105 440.256427 
L 491.009791 444.365224 
L 492.693477 450.98836 
L 494.377162 447.860768 
L 496.060848 445.223779 
L 497.744534 428.236661 
L 499.428219 443.138717 
L 501.111905 439.520523 
L 502.795591 445.407755 
L 504.479276 447.799443 
L 506.162962 456.446315 
L 507.846648 443.077392 
L 511.214019 446.879563 
L 512.897705 454.115952 
L 514.581391 454.851856 
L 516.265076 455.771736 
L 517.948762 459.573907 
L 519.632448 471.900299 
L 521.316133 444.058597 
L 522.999819 449.639203 
L 524.683505 452.766795 
L 526.36719 457.42752 
L 528.050876 455.219808 
L 529.734562 458.960653 
L 531.418247 452.766795 
L 533.101933 451.233661 
L 534.785619 448.780648 
L 536.469304 449.209925 
L 538.15299 449.087275 
L 539.836676 451.049685 
L 541.520361 452.398843 
L 543.204047 455.219808 
L 544.887733 447.124864 
L 546.571418 449.700528 
L 548.255104 443.751971 
L 549.93879 447.554141 
L 551.622475 447.124864 
L 553.306161 451.049685 
L 554.989847 446.940888 
L 556.673532 445.46908 
L 558.357218 436.515581 
L 560.040904 445.46908 
L 561.724589 437.496787 
L 563.408275 445.775707 
L 565.091961 442.70944 
L 566.775646 449.823179 
L 568.459332 428.481963 
L 570.143018 425.170395 
L 571.826703 476.745 
L 573.510389 415.542317 
L 575.194075 476.745 
L 576.87776 376.539405 
L 578.561446 380.709528 
L 580.245132 345.32481 
L 581.928817 358.448432 
L 583.612503 476.745 
L 585.296189 257.445608 
L 586.979874 374.822296 
L 588.66356 366.298075 
L 590.347246 392.238691 
L 592.030931 355.014213 
L 593.714617 390.27628 
L 595.398303 384.757 
L 597.081988 388.313869 
L 598.765674 408.551229 
L 600.44936 430.199072 
L 602.133045 402.847973 
L 603.816731 406.527493 
L 605.500417 417.075451 
L 607.184102 412.230749 
L 608.867788 433.51064 
L 610.551474 426.335576 
L 612.235159 437.496787 
L 613.918845 433.020037 
L 615.602531 421.245573 
L 617.286216 431.854856 
L 618.969902 423.698587 
L 620.653588 435.657027 
L 622.337274 450.191131 
L 624.020959 450.865709 
L 625.704645 443.016067 
L 627.388331 444.426549 
L 629.072016 440.440403 
L 630.755702 435.718352 
L 632.439388 448.841973 
L 634.123073 450.620408 
L 635.806759 457.488845 
L 637.490445 449.332576 
L 639.17413 445.837032 
L 640.857816 451.478963 
L 642.541502 445.714381 
L 644.225187 452.82812 
L 645.908873 456.262339 
L 647.592559 458.592701 
L 649.276244 459.880533 
L 650.95993 456.139688 
L 652.643616 461.229691 
L 654.327301 451.785589 
L 656.010987 458.163424 
L 657.694673 465.951741 
L 659.378358 462.394872 
L 661.062044 455.833061 
L 662.74573 458.531376 
L 664.429415 455.771736 
L 666.113101 457.550171 
L 667.796787 459.819208 
L 669.480472 460.616437 
L 671.164158 465.277163 
L 674.531529 460.800413 
L 676.215215 459.512581 
L 677.898901 461.965595 
L 679.582586 465.461139 
L 681.266272 468.404755 
L 682.949958 468.282104 
L 684.633643 467.607525 
L 686.317329 462.885475 
L 688.001015 466.748971 
L 689.6847 466.564995 
L 691.368386 466.197043 
L 693.052072 468.282104 
L 694.735757 467.914152 
L 696.419443 462.02692 
L 698.103129 467.730176 
L 699.786814 463.069451 
L 701.4705 463.989331 
L 703.154186 467.791501 
L 704.837871 467.975477 
L 706.521557 469.324635 
L 708.205243 466.687645 
L 709.888928 466.871621 
L 711.572614 466.381019 
L 713.2563 468.343429 
L 714.939985 466.994272 
L 716.623671 469.079333 
L 718.307357 471.409696 
L 719.991042 466.074392 
L 721.674728 468.220779 
L 723.358414 465.522464 
L 725.042099 465.645115 
L 726.725785 468.282104 
L 728.409471 469.631261 
L 730.093156 472.758853 
L 731.776842 467.484875 
L 733.460528 469.201984 
L 735.144214 470.183189 
L 736.827899 470.183189 
L 736.827899 470.183189 
" style="fill:none;stroke:#ffdd00;stroke-linecap:square;stroke-width:2;"/>
   </g>
   <g id="line2d_33">
    <path clip-path="url(#p7e33e31341)" d="M -1 476.745 
L 83.557859 476.659975 
L 85.241544 476.553693 
L 86.92523 476.234848 
L 88.608916 476.213592 
L 90.292601 475.979772 
L 91.976287 476.064797 
L 93.659973 476.362386 
L 98.71103 475.916003 
L 100.394715 475.554645 
L 103.762087 475.830977 
L 105.445772 474.980724 
L 107.129458 474.938211 
L 108.813144 473.875394 
L 110.496829 473.025141 
L 112.180515 473.237704 
L 113.864201 472.791321 
L 115.547886 473.790369 
L 117.231572 472.940115 
L 118.915258 467.604774 
L 120.598943 470.00674 
L 122.282629 470.538149 
L 123.966315 468.26372 
L 125.65 469.432819 
L 127.333686 469.071461 
L 129.017372 471.324633 
L 130.701057 471.048301 
L 132.384743 469.60287 
L 134.068429 468.412515 
L 135.752114 469.985484 
L 137.4358 470.049253 
L 139.119486 469.900459 
L 140.803171 473.450267 
L 142.486857 470.559405 
L 144.170543 468.455028 
L 145.854228 469.220256 
L 147.537914 470.219304 
L 149.2216 468.008644 
L 150.905285 468.943923 
L 152.588971 471.154583 
L 154.272657 472.026093 
L 155.956342 468.96518 
L 157.640028 468.858898 
L 159.323714 470.623174 
L 161.007399 469.220256 
L 164.374771 472.557501 
L 166.058456 472.493732 
L 167.742142 470.091766 
L 169.425828 469.964228 
L 171.109513 470.346842 
L 172.793199 470.942019 
L 174.476885 473.131422 
L 177.844256 473.110166 
L 179.527942 470.963276 
L 181.211628 472.174887 
L 182.895313 471.962324 
L 184.578999 473.429011 
L 186.262685 472.897603 
L 187.94637 473.747856 
L 189.630056 473.854138 
L 191.313742 473.216448 
L 192.997427 472.748808 
L 194.681113 473.705343 
L 196.364799 472.770064 
L 198.048484 474.831929 
L 199.73217 475.533389 
L 201.415856 475.448363 
L 203.099541 474.704391 
L 206.466913 474.343034 
L 208.150598 475.214544 
L 209.834284 475.46962 
L 211.51797 475.575901 
L 213.201655 476.128566 
L 214.885341 475.575901 
L 218.252712 475.916003 
L 219.936398 475.575901 
L 221.620084 476.362386 
L 223.303769 476.362386 
L 224.987455 475.618414 
L 226.671141 476.043541 
L 228.354826 475.703439 
L 230.038512 476.128566 
L 233.405883 476.362386 
L 236.773255 476.447411 
L 238.45694 476.489924 
L 241.824312 476.171079 
L 243.507997 476.298617 
L 246.875369 476.128566 
L 248.559054 476.426155 
L 250.24274 476.298617 
L 251.926426 476.51118 
L 253.610111 476.171079 
L 256.977483 476.192335 
L 258.661168 476.447411 
L 263.712225 476.638718 
L 265.395911 476.383642 
L 268.763282 476.574949 
L 270.446968 476.638718 
L 272.130654 476.532437 
L 275.498025 476.638718 
L 277.181711 476.489924 
L 282.232768 476.659975 
L 283.916453 476.702487 
L 285.600139 476.596206 
L 287.283825 476.617462 
L 288.96751 476.362386 
L 290.651196 476.596206 
L 292.334882 476.34113 
L 294.018568 476.617462 
L 297.385939 476.638718 
L 302.436996 476.298617 
L 304.120682 476.256104 
L 305.804367 476.596206 
L 307.488053 476.277361 
L 309.171739 476.532437 
L 314.222796 476.171079 
L 315.906481 476.659975 
L 319.273853 476.659975 
L 320.957538 476.277361 
L 322.641224 476.383642 
L 324.32491 476.10731 
L 326.008595 476.362386 
L 327.692281 476.086053 
L 329.375967 476.362386 
L 331.059652 476.256104 
L 332.743338 475.384594 
L 334.427024 475.342082 
L 336.110709 475.830977 
L 337.794395 475.46962 
L 339.478081 475.724696 
L 341.161766 476.128566 
L 342.845452 475.63967 
L 346.212823 475.745952 
L 347.896509 475.363338 
L 349.580195 475.660927 
L 351.26388 475.830977 
L 352.947566 476.192335 
L 354.631252 475.703439 
L 356.314937 475.682183 
L 357.998623 475.108262 
L 359.682309 475.2358 
L 361.365994 474.13047 
L 363.04968 474.980724 
L 366.417051 475.809721 
L 368.100737 475.320825 
L 369.784423 475.299569 
L 371.468108 475.660927 
L 376.519165 473.343986 
L 378.202851 473.471524 
L 379.886537 473.429011 
L 381.570222 474.59811 
L 383.253908 473.365242 
L 384.937594 473.747856 
L 386.621279 472.323681 
L 388.304965 473.641574 
L 389.988651 473.003884 
L 391.672336 473.365242 
L 393.356022 473.322729 
L 395.039708 473.025141 
L 396.723393 472.047349 
L 398.407079 471.558453 
L 400.090765 475.257056 
L 401.774451 471.069557 
L 403.458136 471.069557 
L 405.141822 470.580662 
L 406.825508 472.429963 
L 408.509193 469.305281 
L 410.192879 471.537197 
L 411.876565 471.324633 
L 413.56025 468.603822 
L 415.243936 466.414419 
L 416.927622 466.860802 
L 418.611307 464.883963 
L 420.294993 461.567974 
L 421.978679 469.432819 
L 423.662364 472.026093 
L 425.34605 459.61239 
L 427.029736 463.140943 
L 428.713421 462.545765 
L 430.397107 460.271337 
L 433.764478 460.632695 
L 435.448164 461.929331 
L 437.13185 459.739928 
L 438.815535 454.340818 
L 440.499221 454.914739 
L 442.182907 450.259601 
L 443.866592 455.297353 
L 445.550278 456.423939 
L 447.233964 456.317658 
L 448.917649 449.175528 
L 450.601335 446.369691 
L 452.285021 448.027685 
L 453.968706 451.322418 
L 455.652392 451.938852 
L 457.336078 470.027997 
L 459.019763 455.637455 
L 460.703449 445.79577 
L 462.387135 439.780225 
L 464.07082 440.354147 
L 465.754506 446.964868 
L 467.438192 446.284665 
L 469.121877 449.047989 
L 470.805563 452.895387 
L 472.489249 448.537837 
L 474.172934 451.19488 
L 475.85662 452.767849 
L 477.540306 449.515629 
L 479.223991 453.34177 
L 480.907677 452.342722 
L 482.591363 456.530221 
L 484.275048 455.509917 
L 485.958734 446.284665 
L 487.64242 450.897291 
L 489.326105 453.958204 
L 491.009791 442.819882 
L 492.693477 453.044181 
L 494.377162 457.359218 
L 496.060848 459.059725 
L 497.744534 449.940756 
L 499.428219 450.982316 
L 501.111905 447.900147 
L 502.795591 452.980412 
L 504.479276 452.108902 
L 506.162962 461.504205 
L 507.846648 450.217088 
L 509.530333 449.876987 
L 511.214019 453.596846 
L 512.897705 455.106046 
L 514.581391 457.890627 
L 516.265076 458.804649 
L 517.948762 456.572734 
L 519.632448 460.356362 
L 521.316133 458.039421 
L 522.999819 450.705984 
L 524.683505 456.147607 
L 526.36719 459.995004 
L 528.050876 460.887771 
L 529.734562 468.901411 
L 531.418247 460.71772 
L 533.101933 456.530221 
L 536.469304 456.211376 
L 538.15299 460.228824 
L 539.836676 463.077174 
L 541.520361 462.354458 
L 543.204047 462.035613 
L 544.887733 457.678063 
L 546.571418 456.912835 
L 549.93879 454.128255 
L 551.622475 459.739928 
L 553.306161 461.142847 
L 554.989847 458.783393 
L 556.673532 462.099382 
L 558.357218 458.507061 
L 560.040904 460.930283 
L 561.724589 464.586374 
L 563.408275 456.891579 
L 565.091961 444.775465 
L 566.775646 448.771657 
L 568.459332 451.449956 
L 570.143018 448.81417 
L 571.826703 451.981364 
L 573.510389 452.321466 
L 575.194075 461.015309 
L 576.87776 456.19012 
L 578.561446 436.464236 
L 580.245132 433.275786 
L 581.928817 421.010878 
L 583.612503 422.775154 
L 585.296189 431.320202 
L 586.979874 424.369379 
L 588.66356 436.251673 
L 590.347246 422.987717 
L 592.030931 433.403324 
L 593.714617 420.436956 
L 595.398303 427.664112 
L 597.081988 437.101927 
L 598.765674 436.846851 
L 600.44936 438.866203 
L 602.133045 436.889363 
L 603.816731 435.316394 
L 605.500417 440.460428 
L 607.184102 430.831306 
L 610.551474 448.240249 
L 612.235159 446.369691 
L 613.918845 451.981364 
L 615.602531 441.544502 
L 617.286216 441.969628 
L 618.969902 445.285617 
L 620.653588 448.962964 
L 622.337274 451.343674 
L 624.020959 460.760233 
L 627.388331 448.474068 
L 629.072016 451.216136 
L 630.755702 452.193928 
L 632.439388 455.616198 
L 634.123073 455.424891 
L 635.806759 458.719624 
L 637.490445 460.632695 
L 639.17413 455.9563 
L 640.857816 452.321466 
L 642.541502 457.720576 
L 644.225187 457.720576 
L 645.908873 464.331298 
L 647.592559 457.019117 
L 649.276244 459.272289 
L 650.95993 459.676159 
L 652.643616 459.102238 
L 654.327301 459.102238 
L 656.010987 457.444244 
L 657.694673 457.550525 
L 659.378358 464.862706 
L 661.062044 460.313849 
L 662.74573 452.916643 
L 664.429415 462.184407 
L 666.113101 457.933139 
L 667.796787 459.676159 
L 669.480472 459.166007 
L 671.164158 461.546717 
L 672.847844 462.822098 
L 674.531529 459.782441 
L 676.215215 460.398875 
L 677.898901 464.395067 
L 679.582586 465.585422 
L 681.266272 464.586374 
L 682.949958 468.540053 
L 684.633643 465.224064 
L 686.317329 465.202808 
L 688.001015 466.11683 
L 689.6847 466.159343 
L 691.368386 464.947732 
L 693.052072 468.455028 
L 694.735757 466.095574 
L 696.419443 466.839546 
L 698.103129 462.056869 
L 699.786814 464.182503 
L 701.4705 462.248176 
L 703.154186 463.162199 
L 704.837871 466.456932 
L 706.521557 467.052109 
L 708.205243 464.054965 
L 709.888928 463.459788 
L 711.572614 463.481044 
L 713.2563 462.822098 
L 714.939985 466.371906 
L 716.623671 465.436627 
L 718.307357 469.113974 
L 719.991042 466.223112 
L 721.674728 462.035613 
L 723.358414 461.844306 
L 725.042099 465.202808 
L 726.725785 464.777681 
L 728.409471 467.774825 
L 730.093156 469.262768 
L 731.776842 468.008644 
L 733.460528 465.224064 
L 735.144214 468.242464 
L 736.827899 467.944875 
L 736.827899 467.944875 
" style="fill:none;stroke:#003078;stroke-linecap:square;stroke-width:2;"/>
   </g>
   <g id="line2d_34">
    <path clip-path="url(#p7e33e31341)" d="M -1 476.745 
L 83.557859 476.671334 
L 85.241544 476.413504 
L 88.608916 476.266172 
L 91.976287 475.492681 
L 93.659973 475.640012 
L 95.343658 476.303005 
L 97.027344 476.266172 
L 98.71103 475.971509 
L 100.394715 475.971509 
L 102.078401 473.46687 
L 103.762087 474.277194 
L 105.445772 474.129862 
L 107.129458 474.535024 
L 108.813144 471.220061 
L 110.496829 472.582879 
L 112.180515 470.115073 
L 113.864201 470.409737 
L 115.547886 471.293727 
L 117.231572 469.010085 
L 118.915258 472.619712 
L 120.598943 466.652778 
L 122.282629 466.284449 
L 123.966315 464.03764 
L 125.65 462.490657 
L 129.017372 465.621456 
L 132.384743 466.321282 
L 134.068429 476.155673 
L 135.752114 458.254871 
L 137.4358 464.221805 
L 139.119486 463.227316 
L 140.803171 465.216294 
L 142.486857 467.978764 
L 144.170543 466.726444 
L 145.854228 466.284449 
L 147.537914 467.757766 
L 149.2216 465.989785 
L 150.905285 464.442803 
L 152.588971 466.579112 
L 154.272657 465.54779 
L 155.956342 466.652778 
L 157.640028 468.126095 
L 159.323714 467.794599 
L 161.007399 465.731955 
L 162.691085 470.188739 
L 164.374771 469.267916 
L 166.058456 468.199761 
L 167.742142 472.435548 
L 169.425828 470.004574 
L 171.109513 470.851732 
L 172.793199 470.004574 
L 174.476885 470.336071 
L 176.16057 469.562579 
L 179.527942 473.245872 
L 181.211628 473.540535 
L 182.895313 471.146395 
L 184.578999 472.398715 
L 186.262685 468.531257 
L 187.94637 472.177717 
L 189.630056 472.877543 
L 191.313742 471.846221 
L 194.681113 472.104051 
L 196.364799 470.004574 
L 198.048484 470.778066 
L 199.73217 473.024874 
L 201.415856 470.630734 
L 203.099541 472.693378 
L 204.783227 470.630734 
L 206.466913 471.662056 
L 208.150598 469.930909 
L 209.834284 471.58839 
L 211.51797 472.84071 
L 213.201655 471.551557 
L 214.885341 473.172206 
L 216.569027 474.093029 
L 218.252712 472.988042 
L 219.936398 473.577368 
L 221.620084 473.7247 
L 223.303769 474.571857 
L 224.987455 474.277194 
L 226.671141 473.7247 
L 228.354826 475.455848 
L 230.038512 473.945698 
L 231.722198 475.198017 
L 233.405883 475.271683 
L 236.773255 475.198017 
L 238.45694 475.345349 
L 240.140626 474.424526 
L 241.824312 473.908865 
L 243.507997 475.087518 
L 245.191683 475.308516 
L 246.875369 474.461359 
L 248.559054 474.35086 
L 250.24274 474.792855 
L 251.926426 474.97702 
L 253.610111 475.603179 
L 255.293797 475.824177 
L 256.977483 473.061707 
L 258.661168 474.129862 
L 260.344854 474.866521 
L 262.02854 475.013852 
L 263.712225 472.140884 
L 265.395911 474.35086 
L 268.763282 475.824177 
L 270.446968 472.472381 
L 272.130654 475.787344 
L 275.498025 475.23485 
L 277.181711 475.787344 
L 278.865396 475.492681 
L 280.549082 476.192506 
L 283.916453 476.671334 
L 285.600139 476.266172 
L 287.283825 476.155673 
L 290.651196 476.48717 
L 292.334882 476.155673 
L 294.018568 476.339838 
L 295.702253 475.971509 
L 299.069625 476.082007 
L 300.75331 476.155673 
L 302.436996 476.376671 
L 304.120682 475.603179 
L 305.804367 476.192506 
L 307.488053 475.934676 
L 309.171739 475.934676 
L 310.855424 475.161184 
L 312.53911 475.087518 
L 314.222796 475.640012 
L 315.906481 475.934676 
L 317.590167 475.087518 
L 319.273853 475.971509 
L 320.957538 475.566346 
L 322.641224 476.413504 
L 324.32491 475.787344 
L 326.008595 475.971509 
L 327.692281 475.382182 
L 329.375967 475.86101 
L 331.059652 475.934676 
L 332.743338 476.229339 
L 337.794395 476.045174 
L 339.478081 475.787344 
L 341.161766 476.303005 
L 342.845452 476.266172 
L 344.529138 476.450337 
L 346.212823 476.192506 
L 347.896509 476.082007 
L 349.580195 475.750511 
L 351.26388 476.082007 
L 352.947566 476.229339 
L 354.631252 475.86101 
L 357.998623 476.045174 
L 359.682309 475.492681 
L 361.365994 475.492681 
L 363.04968 476.008341 
L 364.733366 476.045174 
L 368.100737 475.492681 
L 373.151794 475.271683 
L 374.83548 474.682356 
L 376.519165 475.308516 
L 378.202851 474.866521 
L 379.886537 475.198017 
L 381.570222 474.903354 
L 383.253908 474.866521 
L 384.937594 473.908865 
L 386.621279 473.135373 
L 388.304965 471.846221 
L 391.672336 470.667567 
L 393.356022 472.988042 
L 396.723393 470.7044 
L 398.407079 470.778066 
L 400.090765 470.004574 
L 401.774451 472.693378 
L 403.458136 469.415248 
L 405.141822 470.557068 
L 406.825508 469.930909 
L 408.509193 468.93642 
L 410.192879 469.415248 
L 411.876565 468.126095 
L 413.56025 466.394948 
L 415.243936 462.416992 
L 416.927622 463.927142 
L 418.611307 464.958464 
L 420.294993 463.116817 
L 421.978679 463.411481 
L 423.662364 466.210783 
L 425.34605 463.264149 
L 427.029736 462.453825 
L 428.713421 462.085495 
L 430.397107 459.728188 
L 432.080793 455.529234 
L 433.764478 460.833176 
L 435.448164 454.792576 
L 437.13185 461.091006 
L 438.815535 449.046639 
L 440.499221 453.245593 
L 442.182907 448.530978 
L 443.866592 453.650755 
L 445.550278 459.544023 
L 447.233964 458.807365 
L 448.917649 448.604644 
L 450.601335 441.901052 
L 452.285021 449.967463 
L 453.968706 440.685565 
L 455.652392 451.919608 
L 457.336078 441.75372 
L 459.019763 453.687588 
L 460.703449 434.4608 
L 462.387135 441.311725 
L 464.07082 434.976461 
L 465.754506 448.715143 
L 467.438192 427.978205 
L 469.121877 436.081449 
L 470.805563 434.092471 
L 472.489249 432.287658 
L 474.172934 424.663242 
L 475.85662 426.099726 
L 477.540306 412.766207 
L 479.223991 428.825363 
L 480.907677 446.578833 
L 482.591363 416.118003 
L 484.275048 435.528955 
L 485.958734 432.471822 
L 487.64242 429.893518 
L 489.326105 426.946884 
L 491.009791 441.459057 
L 492.693477 449.341303 
L 494.377162 442.453546 
L 496.060848 460.391181 
L 497.744534 442.564044 
L 499.428219 444.810853 
L 501.111905 447.389158 
L 502.795591 442.37988 
L 504.479276 427.646709 
L 506.162962 443.89003 
L 507.846648 450.777787 
L 509.530333 453.245593 
L 511.214019 438.144093 
L 512.897705 439.175415 
L 514.581391 439.322747 
L 516.265076 446.983995 
L 517.948762 443.89003 
L 519.632448 454.829409 
L 521.316133 443.337536 
L 522.999819 430.667009 
L 524.683505 436.044616 
L 526.36719 423.521421 
L 528.050876 439.764742 
L 529.734562 447.204993 
L 531.418247 452.177438 
L 533.101933 422.232269 
L 534.785619 422.490099 
L 536.469304 422.563765 
L 538.15299 416.154836 
L 539.836676 406.173113 
L 541.520361 402.305656 
L 543.204047 448.015317 
L 544.887733 394.312911 
L 546.571418 404.257801 
L 549.93879 384.883682 
L 551.622475 476.745 
L 553.306161 431.514166 
L 554.989847 454.09275 
L 556.673532 457.223549 
L 558.357218 54.345 
L 560.040904 373.575973 
L 561.724589 363.852081 
L 563.408275 390.77695 
L 565.091961 382.34221 
L 566.775646 375.04929 
L 568.459332 365.767393 
L 570.143018 397.149046 
L 571.826703 476.745 
L 573.510389 394.349744 
L 575.194075 324.183019 
L 576.87776 393.023758 
L 578.561446 384.294355 
L 580.245132 392.729095 
L 581.928817 409.303912 
L 583.612503 476.745 
L 585.296189 374.938791 
L 586.979874 329.008132 
L 588.66356 406.836106 
L 592.030931 394.312911 
L 593.714617 413.466032 
L 595.398303 385.141512 
L 597.081988 389.340466 
L 598.765674 415.602342 
L 600.44936 410.703563 
L 602.133045 427.683542 
L 603.816731 420.280124 
L 605.500417 416.191669 
L 607.184102 410.151069 
L 608.867788 435.160626 
L 610.551474 433.57681 
L 612.235159 427.683542 
L 613.918845 436.007783 
L 615.602531 429.488355 
L 617.286216 434.276636 
L 618.969902 447.241826 
L 620.653588 437.002272 
L 622.337274 447.425991 
L 624.020959 444.626688 
L 625.704645 455.750232 
L 627.388331 456.965719 
L 629.072016 450.777787 
L 630.755702 456.634222 
L 632.439388 449.599133 
L 634.123073 454.46108 
L 635.806759 453.540256 
L 637.490445 454.129583 
L 639.17413 459.986018 
L 640.857816 456.707888 
L 642.541502 462.048662 
L 644.225187 451.882775 
L 645.908873 459.765021 
L 647.592559 454.276915 
L 649.276244 463.816643 
L 650.95993 464.847965 
L 652.643616 461.6435 
L 654.327301 454.350581 
L 656.010987 462.011829 
L 657.694673 462.232827 
L 659.378358 463.374648 
L 661.062044 466.615945 
L 662.74573 462.969486 
L 664.429415 466.063451 
L 666.113101 457.11305 
L 667.796787 463.374648 
L 669.480472 464.369137 
L 671.164158 464.995296 
L 672.847844 465.068962 
L 674.531529 468.052429 
L 676.215215 465.253127 
L 677.898901 465.400459 
L 679.582586 469.452081 
L 681.266272 467.647267 
L 682.949958 469.636245 
L 684.633643 470.483403 
L 686.317329 469.083751 
L 688.001015 466.910609 
L 691.368386 469.562579 
L 693.052072 471.146395 
L 694.735757 470.7044 
L 696.419443 470.630734 
L 698.103129 468.457592 
L 699.786814 469.562579 
L 701.4705 469.746744 
L 703.154186 469.010085 
L 704.837871 468.752255 
L 706.521557 467.610434 
L 708.205243 471.514724 
L 709.888928 471.404226 
L 711.572614 465.805621 
L 713.2563 469.341582 
L 714.939985 469.083751 
L 716.623671 469.525746 
L 718.307357 471.220061 
L 719.991042 472.067218 
L 721.674728 470.888565 
L 723.358414 468.383926 
L 725.042099 469.746744 
L 726.725785 469.341582 
L 728.409471 470.44657 
L 730.093156 472.140884 
L 733.460528 474.535024 
L 735.144214 469.82041 
L 736.827899 476.745 
L 736.827899 476.745 
" style="fill:none;stroke:#d4351c;stroke-linecap:square;stroke-width:2;"/>
   </g>
   <g id="patch_3">
    <path d="M 68.404687 476.745 
L 738.004687 476.745 
" style="fill:none;stroke:#000000;stroke-linecap:square;stroke-linejoin:miter;stroke-width:0.8;"/>
   </g>
   <g id="text_24">
    <!-- COVID-19 cases by date reported, per capita -->
    <g transform="translate(271.677188 27.225)scale(0.12 -0.12)">
     <defs>
      <path d="M 4511 3025 
L 3516 3025 
Q 3459 3409 3188 3628 
Q 2918 3848 2514 3848 
Q 1973 3848 1647 3451 
Q 1321 3055 1321 2327 
Q 1321 1582 1649 1194 
Q 1977 807 2507 807 
Q 2900 807 3173 1012 
Q 3446 1218 3516 1591 
L 4511 1586 
Q 4459 1159 4207 782 
Q 3955 405 3522 170 
Q 3089 -64 2491 -64 
Q 1868 -64 1378 218 
Q 889 500 606 1034 
Q 323 1568 323 2327 
Q 323 3089 609 3623 
Q 896 4157 1386 4437 
Q 1877 4718 2491 4718 
Q 3030 4718 3463 4519 
Q 3896 4320 4172 3942 
Q 4448 3564 4511 3025 
z
" id="Inter-Bold-43" transform="scale(0.015625)"/>
      <path d="M 4682 2327 
Q 4682 1566 4394 1032 
Q 4107 498 3614 217 
Q 3121 -64 2502 -64 
Q 1882 -64 1389 218 
Q 896 500 609 1035 
Q 323 1570 323 2327 
Q 323 3089 609 3623 
Q 896 4157 1389 4437 
Q 1882 4718 2502 4718 
Q 3121 4718 3614 4437 
Q 4107 4157 4394 3623 
Q 4682 3089 4682 2327 
z
M 3684 2327 
Q 3684 3068 3361 3458 
Q 3039 3848 2502 3848 
Q 1966 3848 1643 3458 
Q 1321 3068 1321 2327 
Q 1321 1589 1643 1198 
Q 1966 807 2502 807 
Q 3039 807 3361 1198 
Q 3684 1589 3684 2327 
z
" id="Inter-Bold-4f" transform="scale(0.015625)"/>
      <path d="M 1246 4655 
L 2371 1118 
L 2414 1118 
L 3541 4655 
L 4632 4655 
L 3027 0 
L 1759 0 
L 152 4655 
L 1246 4655 
z
" id="Inter-Bold-56" transform="scale(0.015625)"/>
      <path d="M 1389 4655 
L 1389 0 
L 405 0 
L 405 4655 
L 1389 4655 
z
" id="Inter-Bold-49" transform="scale(0.015625)"/>
      <path d="M 2055 0 
L 405 0 
L 405 4655 
L 2068 4655 
Q 2771 4655 3278 4376 
Q 3786 4098 4059 3577 
Q 4332 3057 4332 2332 
Q 4332 1605 4058 1082 
Q 3784 559 3274 279 
Q 2764 0 2055 0 
z
M 1389 843 
L 2014 843 
Q 2671 843 3010 1197 
Q 3350 1552 3350 2332 
Q 3350 3107 3010 3459 
Q 2671 3811 2016 3811 
L 1389 3811 
L 1389 843 
z
" id="Inter-Bold-44" transform="scale(0.015625)"/>
      <path d="M 2561 2295 
L 2561 1527 
L 439 1527 
L 439 2295 
L 2561 2295 
z
" id="Inter-Bold-2d" transform="scale(0.015625)"/>
      <path d="M 2305 4655 
L 2305 0 
L 1323 0 
L 1323 3450 
L 1280 3450 
Q 1205 3334 961 3219 
Q 718 3105 332 3105 
L 332 3886 
Q 632 3886 857 4019 
Q 1082 4152 1209 4333 
Q 1336 4514 1341 4655 
L 2305 4655 
z
" id="Inter-Bold-31" transform="scale(0.015625)"/>
      <path d="M 2061 4732 
Q 2421 4732 2753 4612 
Q 3086 4493 3348 4227 
Q 3611 3961 3766 3523 
Q 3921 3086 3921 2448 
Q 3921 1659 3686 1096 
Q 3452 534 3028 235 
Q 2605 -64 2027 -64 
Q 1561 -64 1204 117 
Q 848 298 631 610 
Q 414 923 368 1314 
L 1339 1314 
Q 1396 1059 1577 919 
Q 1759 780 2027 780 
Q 2482 780 2718 1176 
Q 2955 1573 2957 2264 
L 2925 2264 
Q 2771 1957 2453 1782 
Q 2136 1607 1752 1607 
Q 1341 1607 1016 1801 
Q 691 1995 506 2334 
Q 321 2673 323 3109 
Q 321 3582 539 3949 
Q 757 4316 1149 4525 
Q 1541 4734 2061 4732 
z
M 2068 3959 
Q 1725 3959 1500 3722 
Q 1275 3486 1277 3136 
Q 1275 2791 1496 2555 
Q 1718 2320 2059 2320 
Q 2284 2320 2465 2431 
Q 2646 2543 2751 2729 
Q 2857 2916 2859 3141 
Q 2857 3366 2753 3551 
Q 2650 3736 2473 3847 
Q 2296 3959 2068 3959 
z
" id="Inter-Bold-39" transform="scale(0.015625)"/>
      <path id="Inter-Bold-20" transform="scale(0.015625)"/>
      <path d="M 1964 -68 
Q 1427 -68 1042 160 
Q 657 389 451 795 
Q 246 1202 246 1732 
Q 246 2268 453 2674 
Q 661 3080 1045 3308 
Q 1430 3536 1959 3536 
Q 2416 3536 2760 3370 
Q 3105 3205 3303 2905 
Q 3502 2605 3523 2200 
L 2609 2200 
Q 2571 2461 2406 2621 
Q 2241 2782 1975 2782 
Q 1639 2782 1434 2511 
Q 1230 2241 1230 1745 
Q 1230 1245 1433 971 
Q 1636 698 1975 698 
Q 2225 698 2395 849 
Q 2566 1000 2609 1280 
L 3523 1280 
Q 3500 880 3305 575 
Q 3111 270 2770 101 
Q 2430 -68 1964 -68 
z
" id="Inter-Bold-63" transform="scale(0.015625)"/>
      <path d="M 1382 -66 
Q 882 -66 552 195 
Q 223 457 223 975 
Q 223 1366 407 1588 
Q 591 1811 890 1914 
Q 1189 2018 1534 2050 
Q 1989 2095 2184 2145 
Q 2380 2195 2380 2364 
L 2380 2377 
Q 2380 2593 2244 2711 
Q 2109 2830 1861 2830 
Q 1600 2830 1445 2716 
Q 1291 2602 1241 2427 
L 346 2500 
Q 446 2977 842 3256 
Q 1239 3536 1866 3536 
Q 2255 3536 2593 3413 
Q 2932 3291 3140 3030 
Q 3348 2770 3348 2355 
L 3348 0 
L 2430 0 
L 2430 484 
L 2402 484 
Q 2275 241 2021 87 
Q 1768 -66 1382 -66 
z
M 1659 602 
Q 1977 602 2181 787 
Q 2386 973 2386 1248 
L 2386 1618 
Q 2330 1580 2210 1550 
Q 2091 1520 1956 1498 
Q 1821 1477 1714 1461 
Q 1459 1425 1303 1318 
Q 1148 1211 1148 1007 
Q 1148 807 1292 704 
Q 1436 602 1659 602 
z
" id="Inter-Bold-61" transform="scale(0.015625)"/>
      <path d="M 3291 2495 
L 2405 2441 
Q 2368 2609 2220 2729 
Q 2073 2850 1821 2850 
Q 1596 2850 1440 2755 
Q 1284 2661 1286 2505 
Q 1284 2380 1385 2293 
Q 1486 2207 1730 2155 
L 2361 2027 
Q 3368 1820 3371 1082 
Q 3371 739 3169 479 
Q 2968 220 2618 76 
Q 2268 -68 1816 -68 
Q 1123 -68 711 221 
Q 300 511 232 1011 
L 1184 1061 
Q 1230 848 1394 739 
Q 1559 630 1818 630 
Q 2073 630 2228 730 
Q 2384 830 2386 984 
Q 2380 1243 1939 1332 
L 1334 1452 
Q 321 1655 325 2450 
Q 323 2955 728 3245 
Q 1134 3536 1805 3536 
Q 2466 3536 2846 3256 
Q 3227 2977 3291 2495 
z
" id="Inter-Bold-73" transform="scale(0.015625)"/>
      <path d="M 1977 -68 
Q 1441 -68 1052 151 
Q 664 370 455 773 
Q 246 1177 246 1730 
Q 246 2268 455 2675 
Q 664 3082 1044 3309 
Q 1425 3536 1939 3536 
Q 2400 3536 2771 3340 
Q 3143 3145 3361 2751 
Q 3580 2357 3580 1764 
L 3580 1498 
L 1202 1498 
L 1202 1495 
Q 1202 1105 1416 880 
Q 1630 655 1993 655 
Q 2236 655 2413 757 
Q 2591 859 2664 1059 
L 3559 1000 
Q 3457 514 3041 223 
Q 2625 -68 1977 -68 
z
M 1202 2098 
L 2668 2098 
Q 2666 2409 2468 2611 
Q 2271 2814 1955 2814 
Q 1632 2814 1425 2604 
Q 1218 2395 1202 2098 
z
" id="Inter-Bold-65" transform="scale(0.015625)"/>
      <path d="M 405 0 
L 405 4655 
L 1373 4655 
L 1373 2905 
L 1402 2905 
Q 1468 3048 1588 3193 
Q 1709 3339 1907 3437 
Q 2105 3536 2396 3536 
Q 2780 3536 3100 3337 
Q 3421 3139 3615 2740 
Q 3809 2341 3809 1741 
Q 3809 1157 3620 756 
Q 3432 355 3111 149 
Q 2791 -57 2393 -57 
Q 2111 -57 1914 36 
Q 1718 130 1594 272 
Q 1471 414 1402 559 
L 1359 559 
L 1359 0 
L 405 0 
z
M 1352 1745 
Q 1352 1280 1544 997 
Q 1736 714 2086 714 
Q 2443 714 2632 1001 
Q 2821 1289 2821 1745 
Q 2821 2200 2633 2483 
Q 2446 2766 2086 2766 
Q 1734 2766 1543 2490 
Q 1352 2214 1352 1745 
z
" id="Inter-Bold-62" transform="scale(0.015625)"/>
      <path d="M 950 -1359 
Q 743 -1359 596 -1324 
Q 450 -1289 368 -1252 
L 586 -502 
Q 843 -580 1019 -543 
Q 1196 -507 1298 -268 
L 1361 -100 
L 109 3491 
L 1127 3491 
L 1850 927 
L 1886 927 
L 2616 3491 
L 3641 3491 
L 2277 -400 
Q 2130 -818 1806 -1088 
Q 1482 -1359 950 -1359 
z
" id="Inter-Bold-79" transform="scale(0.015625)"/>
      <path d="M 1673 -57 
Q 1275 -57 954 149 
Q 634 355 445 756 
Q 257 1157 257 1741 
Q 257 2341 451 2740 
Q 646 3139 967 3337 
Q 1289 3536 1671 3536 
Q 1964 3536 2160 3437 
Q 2357 3339 2478 3193 
Q 2600 3048 2664 2905 
L 2693 2905 
L 2693 4655 
L 3659 4655 
L 3659 0 
L 2705 0 
L 2705 559 
L 2664 559 
Q 2598 414 2473 272 
Q 2348 130 2151 36 
Q 1955 -57 1673 -57 
z
M 1980 714 
Q 2330 714 2522 997 
Q 2714 1280 2714 1745 
Q 2714 2214 2523 2490 
Q 2332 2766 1980 2766 
Q 1621 2766 1433 2483 
Q 1246 2200 1246 1745 
Q 1246 1289 1434 1001 
Q 1623 714 1980 714 
z
" id="Inter-Bold-64" transform="scale(0.015625)"/>
      <path d="M 2243 3491 
L 2243 2764 
L 1586 2764 
L 1586 1073 
Q 1586 873 1677 802 
Q 1768 732 1914 732 
Q 1982 732 2050 744 
Q 2118 757 2155 764 
L 2307 43 
Q 2234 20 2102 -10 
Q 1971 -41 1782 -48 
Q 1255 -70 935 181 
Q 616 432 618 945 
L 618 2764 
L 141 2764 
L 141 3491 
L 618 3491 
L 618 4327 
L 1586 4327 
L 1586 3491 
L 2243 3491 
z
" id="Inter-Bold-74" transform="scale(0.015625)"/>
      <path d="M 386 0 
L 386 3491 
L 1325 3491 
L 1325 2882 
L 1361 2882 
Q 1457 3207 1681 3374 
Q 1905 3541 2200 3541 
Q 2341 3541 2461 3507 
Q 2582 3473 2677 3414 
L 2386 2614 
Q 2318 2648 2237 2671 
Q 2157 2695 2057 2695 
Q 1764 2695 1560 2495 
Q 1357 2295 1355 1975 
L 1355 0 
L 386 0 
z
" id="Inter-Bold-72" transform="scale(0.015625)"/>
      <path d="M 386 -1309 
L 386 3491 
L 1341 3491 
L 1341 2905 
L 1384 2905 
Q 1450 3048 1570 3193 
Q 1691 3339 1888 3437 
Q 2086 3536 2377 3536 
Q 2761 3536 3081 3337 
Q 3402 3139 3596 2740 
Q 3791 2341 3791 1741 
Q 3791 1157 3602 756 
Q 3414 355 3093 149 
Q 2773 -57 2375 -57 
Q 2093 -57 1896 36 
Q 1700 130 1576 272 
Q 1452 414 1384 559 
L 1355 559 
L 1355 -1309 
L 386 -1309 
z
M 1334 1745 
Q 1334 1280 1526 997 
Q 1718 714 2068 714 
Q 2425 714 2613 1001 
Q 2802 1289 2802 1745 
Q 2802 2200 2614 2483 
Q 2427 2766 2068 2766 
Q 1716 2766 1525 2490 
Q 1334 2214 1334 1745 
z
" id="Inter-Bold-70" transform="scale(0.015625)"/>
      <path d="M 1964 -68 
Q 1434 -68 1049 158 
Q 664 384 455 789 
Q 246 1195 246 1732 
Q 246 2273 455 2678 
Q 664 3084 1049 3310 
Q 1434 3536 1964 3536 
Q 2493 3536 2878 3310 
Q 3264 3084 3473 2678 
Q 3682 2273 3682 1732 
Q 3682 1195 3473 789 
Q 3264 384 2878 158 
Q 2493 -68 1964 -68 
z
M 1968 682 
Q 2327 682 2512 982 
Q 2698 1282 2698 1739 
Q 2698 2195 2512 2496 
Q 2327 2798 1968 2798 
Q 1602 2798 1416 2496 
Q 1230 2195 1230 1739 
Q 1230 1282 1416 982 
Q 1602 682 1968 682 
z
" id="Inter-Bold-6f" transform="scale(0.015625)"/>
      <path d="M 1439 636 
L 1414 386 
Q 1384 86 1301 -212 
Q 1218 -511 1128 -754 
Q 1039 -998 984 -1136 
L 357 -1136 
Q 391 -1002 450 -763 
Q 509 -525 561 -226 
Q 614 73 627 382 
L 639 636 
L 1439 636 
z
" id="Inter-Bold-2c" transform="scale(0.015625)"/>
      <path d="M 386 0 
L 386 3491 
L 1355 3491 
L 1355 0 
L 386 0 
z
M 876 3941 
Q 662 3941 507 4085 
Q 353 4230 353 4432 
Q 353 4634 507 4777 
Q 662 4920 876 4920 
Q 1092 4920 1246 4777 
Q 1401 4634 1401 4432 
Q 1401 4230 1246 4085 
Q 1092 3941 876 3941 
z
" id="Inter-Bold-69" transform="scale(0.015625)"/>
     </defs>
     <use xlink:href="#Inter-Bold-43"/>
     <use x="75.213089" xlink:href="#Inter-Bold-4f"/>
     <use x="153.409134" xlink:href="#Inter-Bold-56"/>
     <use x="228.196075" xlink:href="#Inter-Bold-49"/>
     <use x="256.250061" xlink:href="#Inter-Bold-44"/>
     <use x="328.977356" xlink:href="#Inter-Bold-2d"/>
     <use x="375.852371" xlink:href="#Inter-Bold-31"/>
     <use x="423.260056" xlink:href="#Inter-Bold-39"/>
     <use x="489.275696" xlink:href="#Inter-Bold-20"/>
     <use x="512.464615" xlink:href="#Inter-Bold-63"/>
     <use x="571.200424" xlink:href="#Inter-Bold-61"/>
     <use x="629.225998" xlink:href="#Inter-Bold-73"/>
     <use x="685.404984" xlink:href="#Inter-Bold-65"/>
     <use x="745.170624" xlink:href="#Inter-Bold-73"/>
     <use x="801.349609" xlink:href="#Inter-Bold-20"/>
     <use x="824.538528" xlink:href="#Inter-Bold-62"/>
     <use x="888.068375" xlink:href="#Inter-Bold-79"/>
     <use x="946.66214" xlink:href="#Inter-Bold-20"/>
     <use x="969.851059" xlink:href="#Inter-Bold-64"/>
     <use x="1033.380905" xlink:href="#Inter-Bold-61"/>
     <use x="1091.406479" xlink:href="#Inter-Bold-74"/>
     <use x="1130.25592" xlink:href="#Inter-Bold-65"/>
     <use x="1190.021561" xlink:href="#Inter-Bold-20"/>
     <use x="1213.21048" xlink:href="#Inter-Bold-72"/>
     <use x="1256.072708" xlink:href="#Inter-Bold-65"/>
     <use x="1315.838348" xlink:href="#Inter-Bold-70"/>
     <use x="1379.084106" xlink:href="#Inter-Bold-6f"/>
     <use x="1440.447754" xlink:href="#Inter-Bold-72"/>
     <use x="1483.309982" xlink:href="#Inter-Bold-74"/>
     <use x="1522.159424" xlink:href="#Inter-Bold-65"/>
     <use x="1581.925064" xlink:href="#Inter-Bold-64"/>
     <use x="1645.45491" xlink:href="#Inter-Bold-2c"/>
     <use x="1675.746109" xlink:href="#Inter-Bold-20"/>
     <use x="1698.935028" xlink:href="#Inter-Bold-70"/>
     <use x="1762.180786" xlink:href="#Inter-Bold-65"/>
     <use x="1821.946426" xlink:href="#Inter-Bold-72"/>
     <use x="1864.808655" xlink:href="#Inter-Bold-20"/>
     <use x="1887.997574" xlink:href="#Inter-Bold-63"/>
     <use x="1946.733383" xlink:href="#Inter-Bold-61"/>
     <use x="2004.758957" xlink:href="#Inter-Bold-70"/>
     <use x="2068.004715" xlink:href="#Inter-Bold-69"/>
     <use x="2095.206421" xlink:href="#Inter-Bold-74"/>
     <use x="2134.055862" xlink:href="#Inter-Bold-61"/>
    </g>
   </g>
   <g id="legend_1">
    <g id="patch_4">
     <path d="M 621.43125 98.614063 
L 731.004688 98.614063 
Q 733.004688 98.614063 733.004688 96.614063 
L 733.004688 40.225 
Q 733.004688 38.225 731.004688 38.225 
L 621.43125 38.225 
Q 619.43125 38.225 619.43125 40.225 
L 619.43125 96.614063 
Q 619.43125 98.614063 621.43125 98.614063 
z
" style="fill:#ffffff;opacity:0.8;stroke:#cccccc;stroke-linejoin:miter;"/>
    </g>
    <g id="line2d_35">
     <path d="M 623.43125 45.998438 
L 643.43125 45.998438 
" style="fill:none;stroke:#d4351c;stroke-linecap:square;stroke-width:2;"/>
    </g>
    <g id="line2d_36"/>
    <g id="text_25">
     <!-- Wales -->
     <g transform="translate(651.43125 49.498438)scale(0.1 -0.1)">
      <defs>
       <path d="M 1409 0 
L 136 4655 
L 709 4655 
L 1682 864 
L 1727 864 
L 2718 4655 
L 3355 4655 
L 4346 864 
L 4391 864 
L 5364 4655 
L 5936 4655 
L 4664 0 
L 4082 0 
L 3055 3709 
L 3018 3709 
L 1991 0 
L 1409 0 
z
" id="Inter-Regular-57" transform="scale(0.015625)"/>
      </defs>
      <use xlink:href="#Inter-Regular-57"/>
      <use x="94.886383" xlink:href="#Inter-Regular-61"/>
      <use x="151.278442" xlink:href="#Inter-Regular-6c"/>
      <use x="175.000031" xlink:href="#Inter-Regular-65"/>
      <use x="233.238678" xlink:href="#Inter-Regular-73"/>
     </g>
    </g>
    <g id="line2d_37">
     <path d="M 623.43125 60.317188 
L 643.43125 60.317188 
" style="fill:none;stroke:#003078;stroke-linecap:square;stroke-width:2;"/>
    </g>
    <g id="line2d_38"/>
    <g id="text_26">
     <!-- Scotland -->
     <g transform="translate(651.43125 63.817188)scale(0.1 -0.1)">
      <use xlink:href="#Inter-Regular-53"/>
      <use x="63.778427" xlink:href="#Inter-Regular-63"/>
      <use x="119.602295" xlink:href="#Inter-Regular-6f"/>
      <use x="179.261398" xlink:href="#Inter-Regular-74"/>
      <use x="215.625046" xlink:href="#Inter-Regular-6c"/>
      <use x="239.346634" xlink:href="#Inter-Regular-61"/>
      <use x="295.738693" xlink:href="#Inter-Regular-6e"/>
      <use x="354.261429" xlink:href="#Inter-Regular-64"/>
     </g>
    </g>
    <g id="line2d_39">
     <path d="M 623.43125 74.635938 
L 643.43125 74.635938 
" style="fill:none;stroke:#ffdd00;stroke-linecap:square;stroke-width:2;"/>
    </g>
    <g id="line2d_40"/>
    <g id="text_27">
     <!-- Northern Ireland -->
     <g transform="translate(651.43125 78.135938)scale(0.1 -0.1)">
      <defs>
       <path d="M 1027 2100 
L 1027 0 
L 491 0 
L 491 4655 
L 1027 4655 
L 1027 2945 
L 1073 2945 
Q 1196 3216 1442 3376 
Q 1689 3536 2100 3536 
Q 2636 3536 2963 3213 
Q 3291 2891 3291 2218 
L 3291 0 
L 2755 0 
L 2755 2182 
Q 2755 2598 2540 2826 
Q 2325 3055 1946 3055 
Q 1548 3055 1287 2806 
Q 1027 2557 1027 2100 
z
" id="Inter-Regular-68" transform="scale(0.015625)"/>
       <path d="M 1127 4655 
L 1127 0 
L 564 0 
L 564 4655 
L 1127 4655 
z
" id="Inter-Regular-49" transform="scale(0.015625)"/>
      </defs>
      <use xlink:href="#Inter-Regular-4e"/>
      <use x="75.284103" xlink:href="#Inter-Regular-6f"/>
      <use x="134.943207" xlink:href="#Inter-Regular-72"/>
      <use x="173.295486" xlink:href="#Inter-Regular-74"/>
      <use x="209.659134" xlink:href="#Inter-Regular-68"/>
      <use x="268.750061" xlink:href="#Inter-Regular-65"/>
      <use x="326.988708" xlink:href="#Inter-Regular-72"/>
      <use x="365.340988" xlink:href="#Inter-Regular-6e"/>
      <use x="423.863724" xlink:href="#Inter-Regular-20"/>
      <use x="451.988724" xlink:href="#Inter-Regular-49"/>
      <use x="478.40918" xlink:href="#Inter-Regular-72"/>
      <use x="516.761459" xlink:href="#Inter-Regular-65"/>
      <use x="575.000107" xlink:href="#Inter-Regular-6c"/>
      <use x="598.721695" xlink:href="#Inter-Regular-61"/>
      <use x="655.113754" xlink:href="#Inter-Regular-6e"/>
      <use x="713.63649" xlink:href="#Inter-Regular-64"/>
     </g>
    </g>
    <g id="line2d_41">
     <path d="M 623.43125 88.954688 
L 643.43125 88.954688 
" style="fill:none;stroke:#5694ca;stroke-linecap:square;stroke-width:2;"/>
    </g>
    <g id="line2d_42"/>
    <g id="text_28">
     <!-- England -->
     <g transform="translate(651.43125 92.454688)scale(0.1 -0.1)">
      <defs>
       <path d="M 564 0 
L 564 4655 
L 3373 4655 
L 3373 4155 
L 1127 4155 
L 1127 2582 
L 3227 2582 
L 3227 2082 
L 1127 2082 
L 1127 500 
L 3409 500 
L 3409 0 
L 564 0 
z
" id="Inter-Regular-45" transform="scale(0.015625)"/>
      </defs>
      <use xlink:href="#Inter-Regular-45"/>
      <use x="59.801147" xlink:href="#Inter-Regular-6e"/>
      <use x="118.323883" xlink:href="#Inter-Regular-67"/>
      <use x="179.261398" xlink:href="#Inter-Regular-6c"/>
      <use x="202.982986" xlink:href="#Inter-Regular-61"/>
      <use x="259.375046" xlink:href="#Inter-Regular-6e"/>
      <use x="317.897781" xlink:href="#Inter-Regular-64"/>
     </g>
    </g>
   </g>
  </g>
 </g>
 <defs>
  <clipPath id="p7e33e31341">
   <rect height="443.52" width="669.6" x="68.404688" y="33.225"/>
  </clipPath>
 </defs>
</svg>
