<?xml version="1.0" encoding="utf-8" standalone="no"?>
<!DOCTYPE svg PUBLIC "-//W3C//DTD SVG 1.1//EN"
  "http://www.w3.org/Graphics/SVG/1.1/DTD/svg11.dtd">
<!-- Created with matplotlib (https://matplotlib.org/) -->
<svg version="1.1" viewBox="0 0 770.673984 511.27625" xmlns="http://www.w3.org/2000/svg" xmlns:xlink="http://www.w3.org/1999/xlink">
 <metadata>
  <rdf:RDF xmlns:cc="http://creativecommons.org/ns#" xmlns:dc="http://purl.org/dc/elements/1.1/" xmlns:rdf="http://www.w3.org/1999/02/22-rdf-syntax-ns#">
   <cc:Work>
    <dc:type rdf:resource="http://purl.org/dc/dcmitype/StillImage"/>
    <dc:date>2021-02-04T16:16:32.399209</dc:date>
    <dc:format>image/svg+xml</dc:format>
    <dc:creator>
     <cc:Agent>
      <dc:title>Matplotlib v3.3.4, https://matplotlib.org/</dc:title>
     </cc:Agent>
    </dc:creator>
   </cc:Work>
  </rdf:RDF>
 </metadata>
 <defs>
  <style type="text/css">*{stroke-linecap:butt;stroke-linejoin:round;}</style>
 </defs>
 <g id="figure_1">
  <g id="patch_1">
   <path d="M 0 511.27625 
L 770.673984 511.27625 
L 770.673984 0 
L 0 0 
z
" style="fill:#ffffff;"/>
  </g>
  <g id="axes_1">
   <g id="patch_2">
    <path d="M 74.6125 476.745 
L 744.2125 476.745 
L 744.2125 33.225 
L 74.6125 33.225 
z
" style="fill:#ffffff;"/>
   </g>
   <g id="matplotlib.axis_1">
    <g id="xtick_1">
     <g id="line2d_1">
      <defs>
       <path d="M 0 0 
L 0 3.5 
" id="m669539e703" style="stroke:#000000;stroke-width:0.8;"/>
      </defs>
      <g>
       <use style="stroke:#000000;stroke-width:0.8;" x="74.6125" xlink:href="#m669539e703" y="476.745"/>
      </g>
     </g>
     <g id="text_1">
      <!-- 01 Mar -->
      <g transform="translate(58.575781 491.018438)scale(0.1 -0.1)">
       <defs>
        <path d="M 31.25 -1 
Q 19.21875 -1 12.59375 8.765625 
Q 5.96875 18.53125 5.96875 36.359375 
Q 5.96875 54.046875 12.640625 63.875 
Q 19.3125 73.71875 31.25 73.71875 
Q 43.1875 73.71875 49.859375 63.875 
Q 56.53125 54.046875 56.53125 36.359375 
Q 56.53125 18.53125 49.90625 8.765625 
Q 43.296875 -1 31.25 -1 
z
M 31.25 6.8125 
Q 39.203125 6.8125 43.609375 14.484375 
Q 48.015625 22.15625 48.015625 36.359375 
Q 48.015625 50.53125 43.578125 58.28125 
Q 39.140625 66.046875 31.25 66.046875 
Q 23.375 66.046875 18.921875 58.28125 
Q 14.484375 50.53125 14.484375 36.359375 
Q 14.484375 22.15625 18.90625 14.484375 
Q 23.328125 6.8125 31.25 6.8125 
z
" id="Inter-Regular-48"/>
        <path d="M 30.828125 72.734375 
L 30.828125 0 
L 22.015625 0 
L 22.015625 59.9375 
L 21.453125 59.9375 
Q 20.953125 58.953125 18.890625 57.6875 
Q 16.828125 56.421875 13.5625 55.484375 
Q 10.296875 54.546875 6.109375 54.546875 
L 6.109375 61.9375 
Q 10.328125 61.9375 13.421875 63.453125 
Q 16.515625 64.984375 18.59375 67.046875 
Q 20.671875 69.109375 21.75 70.765625 
Q 22.828125 72.4375 23.015625 72.734375 
z
" id="Inter-Regular-49"/>
        <path id="Inter-Regular-32"/>
        <path d="M 8.8125 72.734375 
L 19.3125 72.734375 
L 44.03125 12.359375 
L 44.890625 12.359375 
L 69.609375 72.734375 
L 80.109375 72.734375 
L 80.109375 0 
L 71.875 0 
L 71.875 55.25 
L 71.171875 55.25 
L 48.4375 0 
L 40.484375 0 
L 17.75 55.25 
L 17.046875 55.25 
L 17.046875 0 
L 8.8125 0 
z
" id="Inter-Regular-77"/>
        <path d="M 23.71875 -1.28125 
Q 18.53125 -1.28125 14.3125 0.6875 
Q 10.09375 2.65625 7.59375 6.40625 
Q 5.109375 10.15625 5.109375 15.484375 
Q 5.109375 20.171875 6.953125 23.09375 
Q 8.8125 26.03125 11.890625 27.703125 
Q 14.984375 29.375 18.734375 30.203125 
Q 22.484375 31.03125 26.28125 31.53125 
Q 31.25 32.171875 34.359375 32.5 
Q 37.46875 32.84375 38.90625 33.65625 
Q 40.34375 34.484375 40.34375 36.5 
L 40.34375 36.796875 
Q 40.34375 42.046875 37.484375 44.953125 
Q 34.625 47.875 28.84375 47.875 
Q 22.828125 47.875 19.421875 45.234375 
Q 16.015625 42.609375 14.625 39.625 
L 6.671875 42.46875 
Q 8.8125 47.4375 12.375 50.21875 
Q 15.953125 53.015625 20.1875 54.125 
Q 24.4375 55.25 28.546875 55.25 
Q 31.1875 55.25 34.609375 54.625 
Q 38.03125 54.015625 41.25 52.09375 
Q 44.46875 50.171875 46.59375 46.296875 
Q 48.71875 42.4375 48.71875 35.9375 
L 48.71875 0 
L 40.34375 0 
L 40.34375 7.390625 
L 39.921875 7.390625 
Q 39.0625 5.609375 37.078125 3.578125 
Q 35.09375 1.5625 31.78125 0.140625 
Q 28.484375 -1.28125 23.71875 -1.28125 
z
M 25 6.25 
Q 29.96875 6.25 33.390625 8.203125 
Q 36.828125 10.15625 38.578125 13.234375 
Q 40.34375 16.328125 40.34375 19.75 
L 40.34375 27.421875 
Q 39.8125 26.78125 38.015625 26.265625 
Q 36.21875 25.75 33.890625 25.375 
Q 31.578125 25 29.390625 24.734375 
Q 27.203125 24.46875 25.859375 24.296875 
Q 22.59375 23.859375 19.765625 22.921875 
Q 16.9375 21.984375 15.21875 20.109375 
Q 13.5 18.25 13.5 15.0625 
Q 13.5 10.6875 16.75 8.46875 
Q 20 6.25 25 6.25 
z
" id="Inter-Regular-97"/>
        <path d="M 7.671875 0 
L 7.671875 54.546875 
L 15.765625 54.546875 
L 15.765625 46.3125 
L 16.34375 46.3125 
Q 17.796875 50.359375 21.703125 52.875 
Q 25.609375 55.390625 30.546875 55.390625 
Q 32.8125 55.390625 34.515625 54.859375 
Q 36.21875 54.328125 37.5 53.40625 
L 34.65625 46.3125 
Q 33.765625 46.765625 32.578125 47.03125 
Q 31.390625 47.296875 29.828125 47.296875 
Q 23.859375 47.296875 19.953125 43.65625 
Q 16.046875 40.015625 16.046875 34.515625 
L 16.046875 0 
z
" id="Inter-Regular-114"/>
       </defs>
       <use xlink:href="#Inter-Regular-48"/>
       <use x="62.500015" xlink:href="#Inter-Regular-49"/>
       <use x="106.676163" xlink:href="#Inter-Regular-32"/>
       <use x="134.801163" xlink:href="#Inter-Regular-77"/>
       <use x="225.99437" xlink:href="#Inter-Regular-97"/>
       <use x="282.386429" xlink:href="#Inter-Regular-114"/>
      </g>
     </g>
    </g>
    <g id="xtick_2">
     <g id="line2d_2">
      <g>
       <use style="stroke:#000000;stroke-width:0.8;" x="135.542901" xlink:href="#m669539e703" y="476.745"/>
      </g>
     </g>
     <g id="text_2">
      <!-- 01 Apr -->
      <g transform="translate(120.457745 491.116875)scale(0.1 -0.1)">
       <defs>
        <path d="M 11.796875 0 
L 2.5625 0 
L 29.265625 72.734375 
L 38.359375 72.734375 
L 65.0625 0 
L 55.828125 0 
L 48.515625 20.59375 
L 19.109375 20.59375 
z
M 21.875 28.40625 
L 45.734375 28.40625 
L 34.09375 61.21875 
L 33.53125 61.21875 
z
" id="Inter-Regular-65"/>
        <path d="M 7.671875 -20.453125 
L 7.671875 54.546875 
L 15.765625 54.546875 
L 15.765625 45.875 
L 16.765625 45.875 
Q 17.6875 47.296875 19.328125 49.515625 
Q 20.984375 51.734375 24.09375 53.484375 
Q 27.203125 55.25 32.53125 55.25 
Q 39.421875 55.25 44.671875 51.796875 
Q 49.9375 48.359375 52.875 42.03125 
Q 55.828125 35.71875 55.828125 27.125 
Q 55.828125 18.46875 52.875 12.125 
Q 49.9375 5.78125 44.703125 2.3125 
Q 39.484375 -1.140625 32.671875 -1.140625 
Q 27.421875 -1.140625 24.25 0.609375 
Q 21.09375 2.375 19.390625 4.625 
Q 17.6875 6.890625 16.765625 8.375 
L 16.046875 8.375 
L 16.046875 -20.453125 
z
M 15.90625 27.265625 
Q 15.90625 18 19.9375 12.1875 
Q 23.96875 6.390625 31.53125 6.390625 
Q 36.796875 6.390625 40.328125 9.171875 
Q 43.859375 11.96875 45.640625 16.703125 
Q 47.4375 21.453125 47.4375 27.265625 
Q 47.4375 33.03125 45.671875 37.65625 
Q 43.921875 42.296875 40.390625 45.015625 
Q 36.859375 47.734375 31.53125 47.734375 
Q 23.859375 47.734375 19.875 42.078125 
Q 15.90625 36.4375 15.90625 27.265625 
z
" id="Inter-Regular-112"/>
       </defs>
       <use xlink:href="#Inter-Regular-48"/>
       <use x="62.500015" xlink:href="#Inter-Regular-49"/>
       <use x="106.676163" xlink:href="#Inter-Regular-32"/>
       <use x="134.801163" xlink:href="#Inter-Regular-65"/>
       <use x="202.41481" xlink:href="#Inter-Regular-112"/>
       <use x="263.352325" xlink:href="#Inter-Regular-114"/>
      </g>
     </g>
    </g>
    <g id="xtick_3">
     <g id="line2d_3">
      <g>
       <use style="stroke:#000000;stroke-width:0.8;" x="194.507805" xlink:href="#m669539e703" y="476.745"/>
      </g>
     </g>
     <g id="text_3">
      <!-- 01 May -->
      <g transform="translate(177.60468 491.116875)scale(0.1 -0.1)">
       <defs>
        <path d="M 12.78125 -21.171875 
Q 10.65625 -21.171875 8.984375 -20.828125 
Q 7.3125 -20.484375 6.671875 -20.171875 
L 8.8125 -12.78125 
Q 13.390625 -13.953125 16.453125 -12.71875 
Q 19.53125 -11.5 21.734375 -5.390625 
L 23.578125 -0.28125 
L 3.40625 54.546875 
L 12.5 54.546875 
L 27.5625 11.078125 
L 28.125 11.078125 
L 43.1875 54.546875 
L 52.28125 54.546875 
L 28.84375 -8.8125 
Q 24.21875 -21.171875 12.78125 -21.171875 
z
" id="Inter-Regular-121"/>
       </defs>
       <use xlink:href="#Inter-Regular-48"/>
       <use x="62.500015" xlink:href="#Inter-Regular-49"/>
       <use x="106.676163" xlink:href="#Inter-Regular-32"/>
       <use x="134.801163" xlink:href="#Inter-Regular-77"/>
       <use x="225.99437" xlink:href="#Inter-Regular-97"/>
       <use x="282.386429" xlink:href="#Inter-Regular-121"/>
      </g>
     </g>
    </g>
    <g id="xtick_4">
     <g id="line2d_4">
      <g>
       <use style="stroke:#000000;stroke-width:0.8;" x="255.438206" xlink:href="#m669539e703" y="476.745"/>
      </g>
     </g>
     <g id="text_4">
      <!-- 01 Jun -->
      <g transform="translate(240.153831 491.018438)scale(0.1 -0.1)">
       <defs>
        <path d="M 36.65625 72.734375 
L 45.453125 72.734375 
L 45.453125 20.734375 
Q 45.453125 10.265625 39.828125 4.625 
Q 34.203125 -1 24.71875 -1 
Q 18.75 -1 14.09375 1.1875 
Q 9.453125 3.375 6.78125 7.421875 
Q 4.125 11.46875 4.125 17.046875 
L 12.78125 17.046875 
Q 12.78125 12.421875 16.15625 9.609375 
Q 19.53125 6.8125 24.71875 6.8125 
Q 30.4375 6.8125 33.546875 10.375 
Q 36.65625 13.953125 36.65625 20.734375 
z
" id="Inter-Regular-74"/>
        <path d="M 42.046875 22.296875 
L 42.046875 54.546875 
L 50.421875 54.546875 
L 50.421875 0 
L 42.046875 0 
L 42.046875 9.234375 
L 41.484375 9.234375 
Q 39.5625 5.078125 35.515625 2.1875 
Q 31.46875 -0.703125 25.28125 -0.703125 
Q 17.609375 -0.703125 12.640625 4.375 
Q 7.671875 9.453125 7.671875 19.890625 
L 7.671875 54.546875 
L 16.046875 54.546875 
L 16.046875 20.453125 
Q 16.046875 14.484375 19.40625 10.9375 
Q 22.765625 7.390625 27.984375 7.390625 
Q 31.109375 7.390625 34.359375 8.984375 
Q 37.609375 10.578125 39.828125 13.875 
Q 42.046875 17.1875 42.046875 22.296875 
z
" id="Inter-Regular-117"/>
        <path d="M 16.046875 32.8125 
L 16.046875 0 
L 7.671875 0 
L 7.671875 54.546875 
L 15.765625 54.546875 
L 15.765625 46.015625 
L 16.484375 46.015625 
Q 18.390625 50.171875 22.296875 52.703125 
Q 26.203125 55.25 32.390625 55.25 
Q 40.65625 55.25 45.75 50.171875 
Q 50.859375 45.09375 50.859375 34.65625 
L 50.859375 0 
L 42.46875 0 
L 42.46875 34.09375 
Q 42.46875 40.515625 39.125 44.125 
Q 35.796875 47.734375 29.96875 47.734375 
Q 23.96875 47.734375 20 43.84375 
Q 16.046875 39.953125 16.046875 32.8125 
z
" id="Inter-Regular-110"/>
       </defs>
       <use xlink:href="#Inter-Regular-48"/>
       <use x="62.500015" xlink:href="#Inter-Regular-49"/>
       <use x="106.676163" xlink:href="#Inter-Regular-32"/>
       <use x="134.801163" xlink:href="#Inter-Regular-74"/>
       <use x="189.062531" xlink:href="#Inter-Regular-117"/>
       <use x="247.159134" xlink:href="#Inter-Regular-110"/>
      </g>
     </g>
    </g>
    <g id="xtick_5">
     <g id="line2d_5">
      <g>
       <use style="stroke:#000000;stroke-width:0.8;" x="314.40311" xlink:href="#m669539e703" y="476.745"/>
      </g>
     </g>
     <g id="text_5">
      <!-- 01 Jul -->
      <g transform="translate(300.85936 491.018438)scale(0.1 -0.1)">
       <defs>
        <path d="M 16.046875 72.734375 
L 16.046875 0 
L 7.671875 0 
L 7.671875 72.734375 
z
" id="Inter-Regular-108"/>
       </defs>
       <use xlink:href="#Inter-Regular-48"/>
       <use x="62.500015" xlink:href="#Inter-Regular-49"/>
       <use x="106.676163" xlink:href="#Inter-Regular-32"/>
       <use x="134.801163" xlink:href="#Inter-Regular-74"/>
       <use x="189.062531" xlink:href="#Inter-Regular-117"/>
       <use x="247.159134" xlink:href="#Inter-Regular-108"/>
      </g>
     </g>
    </g>
    <g id="xtick_6">
     <g id="line2d_6">
      <g>
       <use style="stroke:#000000;stroke-width:0.8;" x="375.33351" xlink:href="#m669539e703" y="476.745"/>
      </g>
     </g>
     <g id="text_6">
      <!-- 01 Aug -->
      <g transform="translate(359.261635 491.116875)scale(0.1 -0.1)">
       <defs>
        <path d="M 29.6875 -21.59375 
Q 20.5625 -21.59375 15.25 -18.265625 
Q 9.9375 -14.953125 7.390625 -10.65625 
L 14.0625 -5.96875 
Q 15.203125 -7.453125 16.9375 -9.390625 
Q 18.6875 -11.328125 21.71875 -12.765625 
Q 24.75 -14.203125 29.6875 -14.203125 
Q 36.296875 -14.203125 40.59375 -11 
Q 44.890625 -7.8125 44.890625 -1 
L 44.890625 10.078125 
L 44.171875 10.078125 
Q 43.25 8.59375 41.5625 6.40625 
Q 39.875 4.21875 36.734375 2.53125 
Q 33.59375 0.859375 28.265625 0.859375 
Q 21.65625 0.859375 16.421875 3.984375 
Q 11.1875 7.109375 8.140625 13.0625 
Q 5.109375 19.03125 5.109375 27.5625 
Q 5.109375 35.9375 8.0625 42.171875 
Q 11.015625 48.40625 16.265625 51.828125 
Q 21.515625 55.25 28.40625 55.25 
Q 33.734375 55.25 36.875 53.484375 
Q 40.015625 51.734375 41.703125 49.515625 
Q 43.390625 47.296875 44.3125 45.875 
L 45.171875 45.875 
L 45.171875 54.546875 
L 53.265625 54.546875 
L 53.265625 -1.5625 
Q 53.265625 -8.59375 50.078125 -13.015625 
Q 46.90625 -17.4375 41.5625 -19.515625 
Q 36.21875 -21.59375 29.6875 -21.59375 
z
M 29.40625 8.375 
Q 36.96875 8.375 41 13.5 
Q 45.03125 18.640625 45.03125 27.703125 
Q 45.03125 36.546875 41.046875 42.140625 
Q 37.078125 47.734375 29.40625 47.734375 
Q 24.078125 47.734375 20.546875 45.03125 
Q 17.015625 42.328125 15.25 37.78125 
Q 13.5 33.234375 13.5 27.703125 
Q 13.5 19.171875 17.5 13.765625 
Q 21.515625 8.375 29.40625 8.375 
z
" id="Inter-Regular-103"/>
       </defs>
       <use xlink:href="#Inter-Regular-48"/>
       <use x="62.500015" xlink:href="#Inter-Regular-49"/>
       <use x="106.676163" xlink:href="#Inter-Regular-32"/>
       <use x="134.801163" xlink:href="#Inter-Regular-65"/>
       <use x="202.41481" xlink:href="#Inter-Regular-117"/>
       <use x="260.511414" xlink:href="#Inter-Regular-103"/>
      </g>
     </g>
    </g>
    <g id="xtick_7">
     <g id="line2d_7">
      <g>
       <use style="stroke:#000000;stroke-width:0.8;" x="436.263911" xlink:href="#m669539e703" y="476.745"/>
      </g>
     </g>
     <g id="text_7">
      <!-- 01 Sep -->
      <g transform="translate(420.376411 491.116875)scale(0.1 -0.1)">
       <defs>
        <path d="M 48.578125 54.546875 
Q 47.9375 59.9375 43.390625 62.921875 
Q 38.84375 65.90625 32.25 65.90625 
Q 25 65.90625 20.59375 62.484375 
Q 16.1875 59.0625 16.1875 53.828125 
Q 16.1875 49.921875 18.578125 47.53125 
Q 20.984375 45.140625 24.265625 43.796875 
Q 27.5625 42.46875 30.25 41.765625 
L 37.640625 39.765625 
Q 40.484375 39.03125 43.984375 37.71875 
Q 47.484375 36.40625 50.6875 34.140625 
Q 53.90625 31.890625 56 28.375 
Q 58.09375 24.859375 58.09375 19.75 
Q 58.09375 13.84375 55.015625 9.078125 
Q 51.953125 4.328125 46.078125 1.515625 
Q 40.203125 -1.28125 31.8125 -1.28125 
Q 20.09375 -1.28125 13.203125 4.25 
Q 6.328125 9.796875 5.6875 18.75 
L 14.78125 18.75 
Q 15.125 14.625 17.5625 11.9375 
Q 20 9.265625 23.734375 7.96875 
Q 27.484375 6.671875 31.8125 6.671875 
Q 36.859375 6.671875 40.875 8.328125 
Q 44.890625 9.984375 47.234375 12.9375 
Q 49.578125 15.90625 49.578125 19.890625 
Q 49.578125 23.515625 47.546875 25.78125 
Q 45.53125 28.046875 42.21875 29.46875 
Q 38.921875 30.890625 35.09375 31.953125 
L 26.140625 34.515625 
Q 17.609375 36.96875 12.640625 41.515625 
Q 7.671875 46.0625 7.671875 53.40625 
Q 7.671875 59.515625 10.984375 64.078125 
Q 14.3125 68.640625 19.9375 71.171875 
Q 25.5625 73.71875 32.53125 73.71875 
Q 39.5625 73.71875 45.03125 71.21875 
Q 50.5 68.71875 53.703125 64.375 
Q 56.921875 60.046875 57.109375 54.546875 
z
" id="Inter-Regular-83"/>
        <path d="M 30.546875 -1.140625 
Q 22.65625 -1.140625 16.953125 2.359375 
Q 11.265625 5.859375 8.1875 12.15625 
Q 5.109375 18.46875 5.109375 26.84375 
Q 5.109375 35.234375 8.1875 41.640625 
Q 11.265625 48.046875 16.78125 51.640625 
Q 22.296875 55.25 29.6875 55.25 
Q 33.953125 55.25 38.109375 53.828125 
Q 42.265625 52.421875 45.671875 49.234375 
Q 49.078125 46.0625 51.09375 40.84375 
Q 53.125 35.625 53.125 27.984375 
L 53.125 24.4375 
L 13.53125 24.4375 
Q 13.8125 15.703125 18.484375 11.046875 
Q 23.15625 6.390625 30.546875 6.390625 
Q 35.484375 6.390625 39.03125 8.515625 
Q 42.578125 10.65625 44.171875 14.921875 
L 52.28125 12.640625 
Q 50.359375 6.46875 44.59375 2.65625 
Q 38.84375 -1.140625 30.546875 -1.140625 
z
M 13.53125 31.671875 
L 44.609375 31.671875 
Q 44.609375 38.59375 40.546875 43.15625 
Q 36.5 47.734375 29.6875 47.734375 
Q 24.890625 47.734375 21.375 45.484375 
Q 17.859375 43.25 15.828125 39.578125 
Q 13.8125 35.90625 13.53125 31.671875 
z
" id="Inter-Regular-101"/>
       </defs>
       <use xlink:href="#Inter-Regular-48"/>
       <use x="62.500015" xlink:href="#Inter-Regular-49"/>
       <use x="106.676163" xlink:href="#Inter-Regular-32"/>
       <use x="134.801163" xlink:href="#Inter-Regular-83"/>
       <use x="198.57959" xlink:href="#Inter-Regular-101"/>
       <use x="256.818237" xlink:href="#Inter-Regular-112"/>
      </g>
     </g>
    </g>
    <g id="xtick_8">
     <g id="line2d_8">
      <g>
       <use style="stroke:#000000;stroke-width:0.8;" x="495.228815" xlink:href="#m669539e703" y="476.745"/>
      </g>
     </g>
     <g id="text_8">
      <!-- 01 Oct -->
      <g transform="translate(480.072565 491.018438)scale(0.1 -0.1)">
       <defs>
        <path d="M 70.171875 36.359375 
Q 70.171875 24.859375 66.015625 16.46875 
Q 61.859375 8.09375 54.609375 3.546875 
Q 47.375 -1 38.0625 -1 
Q 28.765625 -1 21.515625 3.546875 
Q 14.28125 8.09375 10.125 16.46875 
Q 5.96875 24.859375 5.96875 36.359375 
Q 5.96875 47.875 10.125 56.25 
Q 14.28125 64.625 21.515625 69.171875 
Q 28.765625 73.71875 38.0625 73.71875 
Q 47.375 73.71875 54.609375 69.171875 
Q 61.859375 64.625 66.015625 56.25 
Q 70.171875 47.875 70.171875 36.359375 
z
M 61.65625 36.359375 
Q 61.65625 45.8125 58.5 52.3125 
Q 55.359375 58.8125 50.015625 62.140625 
Q 44.671875 65.484375 38.0625 65.484375 
Q 31.46875 65.484375 26.125 62.140625 
Q 20.78125 58.8125 17.625 52.3125 
Q 14.484375 45.8125 14.484375 36.359375 
Q 14.484375 26.921875 17.625 20.421875 
Q 20.78125 13.921875 26.125 10.578125 
Q 31.46875 7.25 38.0625 7.25 
Q 44.671875 7.25 50.015625 10.578125 
Q 55.359375 13.921875 58.5 20.421875 
Q 61.65625 26.921875 61.65625 36.359375 
z
" id="Inter-Regular-79"/>
        <path d="M 29.828125 -1.140625 
Q 22.15625 -1.140625 16.609375 2.484375 
Q 11.078125 6.109375 8.09375 12.46875 
Q 5.109375 18.828125 5.109375 26.984375 
Q 5.109375 35.296875 8.1875 41.671875 
Q 11.265625 48.046875 16.78125 51.640625 
Q 22.296875 55.25 29.6875 55.25 
Q 35.4375 55.25 40.046875 53.125 
Q 44.671875 51 47.609375 47.15625 
Q 50.5625 43.328125 51.28125 38.203125 
L 42.90625 38.203125 
Q 41.9375 41.9375 38.65625 44.828125 
Q 35.375 47.734375 29.828125 47.734375 
Q 22.484375 47.734375 17.984375 42.140625 
Q 13.5 36.546875 13.5 27.265625 
Q 13.5 17.796875 17.9375 12.09375 
Q 22.375 6.390625 29.828125 6.390625 
Q 34.734375 6.390625 38.234375 8.90625 
Q 41.734375 11.4375 42.90625 15.90625 
L 51.28125 15.90625 
Q 50.5625 11.078125 47.78125 7.21875 
Q 45 3.375 40.4375 1.109375 
Q 35.875 -1.140625 29.828125 -1.140625 
z
" id="Inter-Regular-99"/>
        <path d="M 31.390625 54.546875 
L 31.390625 47.4375 
L 19.75 47.4375 
L 19.75 15.625 
Q 19.75 12.078125 20.796875 10.3125 
Q 21.84375 8.5625 23.484375 7.96875 
Q 25.140625 7.390625 26.984375 7.390625 
Q 28.375 7.390625 29.265625 7.546875 
Q 30.15625 7.703125 30.6875 7.8125 
L 32.390625 0.28125 
Q 31.53125 -0.03125 30 -0.359375 
Q 28.484375 -0.703125 26.140625 -0.703125 
Q 22.59375 -0.703125 19.1875 0.8125 
Q 15.796875 2.34375 13.578125 5.46875 
Q 11.359375 8.59375 11.359375 13.359375 
L 11.359375 47.4375 
L 3.125 47.4375 
L 3.125 54.546875 
L 11.359375 54.546875 
L 11.359375 67.609375 
L 19.75 67.609375 
L 19.75 54.546875 
z
" id="Inter-Regular-116"/>
       </defs>
       <use xlink:href="#Inter-Regular-48"/>
       <use x="62.500015" xlink:href="#Inter-Regular-49"/>
       <use x="106.676163" xlink:href="#Inter-Regular-32"/>
       <use x="134.801163" xlink:href="#Inter-Regular-79"/>
       <use x="210.937546" xlink:href="#Inter-Regular-99"/>
       <use x="266.761414" xlink:href="#Inter-Regular-116"/>
      </g>
     </g>
    </g>
    <g id="xtick_9">
     <g id="line2d_9">
      <g>
       <use style="stroke:#000000;stroke-width:0.8;" x="556.159216" xlink:href="#m669539e703" y="476.745"/>
      </g>
     </g>
     <g id="text_9">
      <!-- 01 Nov -->
      <g transform="translate(539.888122 491.018438)scale(0.1 -0.1)">
       <defs>
        <path d="M 66.484375 72.734375 
L 66.484375 0 
L 57.953125 0 
L 18.328125 57.109375 
L 17.609375 57.109375 
L 17.609375 0 
L 8.8125 0 
L 8.8125 72.734375 
L 17.328125 72.734375 
L 57.109375 15.484375 
L 57.8125 15.484375 
L 57.8125 72.734375 
z
" id="Inter-Regular-78"/>
        <path d="M 29.828125 -1.140625 
Q 22.4375 -1.140625 16.875 2.375 
Q 11.328125 5.890625 8.21875 12.203125 
Q 5.109375 18.53125 5.109375 26.984375 
Q 5.109375 35.515625 8.21875 41.859375 
Q 11.328125 48.21875 16.875 51.734375 
Q 22.4375 55.25 29.828125 55.25 
Q 37.21875 55.25 42.765625 51.734375 
Q 48.328125 48.21875 51.4375 41.859375 
Q 54.546875 35.515625 54.546875 26.984375 
Q 54.546875 18.53125 51.4375 12.203125 
Q 48.328125 5.890625 42.765625 2.375 
Q 37.21875 -1.140625 29.828125 -1.140625 
z
M 29.828125 6.390625 
Q 35.4375 6.390625 39.0625 9.265625 
Q 42.6875 12.140625 44.421875 16.828125 
Q 46.171875 21.515625 46.171875 26.984375 
Q 46.171875 32.453125 44.421875 37.171875 
Q 42.6875 41.90625 39.0625 44.8125 
Q 35.4375 47.734375 29.828125 47.734375 
Q 24.21875 47.734375 20.59375 44.8125 
Q 16.96875 41.90625 15.234375 37.171875 
Q 13.5 32.453125 13.5 26.984375 
Q 13.5 21.515625 15.234375 16.828125 
Q 16.96875 12.140625 20.59375 9.265625 
Q 24.21875 6.390625 29.828125 6.390625 
z
" id="Inter-Regular-111"/>
        <path d="M 52.28125 54.546875 
L 32.109375 0 
L 23.578125 0 
L 3.40625 54.546875 
L 12.5 54.546875 
L 27.5625 11.078125 
L 28.125 11.078125 
L 43.1875 54.546875 
z
" id="Inter-Regular-118"/>
       </defs>
       <use xlink:href="#Inter-Regular-48"/>
       <use x="62.500015" xlink:href="#Inter-Regular-49"/>
       <use x="106.676163" xlink:href="#Inter-Regular-32"/>
       <use x="134.801163" xlink:href="#Inter-Regular-78"/>
       <use x="210.085266" xlink:href="#Inter-Regular-111"/>
       <use x="269.74437" xlink:href="#Inter-Regular-118"/>
      </g>
     </g>
    </g>
    <g id="xtick_10">
     <g id="line2d_10">
      <g>
       <use style="stroke:#000000;stroke-width:0.8;" x="615.12412" xlink:href="#m669539e703" y="476.745"/>
      </g>
     </g>
     <g id="text_10">
      <!-- 01 Dec -->
      <g transform="translate(599.087401 491.018438)scale(0.1 -0.1)">
       <defs>
        <path d="M 31.25 0 
L 8.8125 0 
L 8.8125 72.734375 
L 32.25 72.734375 
Q 42.828125 72.734375 50.359375 68.375 
Q 57.890625 64.03125 61.890625 55.90625 
Q 65.90625 47.796875 65.90625 36.5 
Q 65.90625 25.140625 61.859375 16.953125 
Q 57.8125 8.765625 50.0625 4.375 
Q 42.328125 0 31.25 0 
z
M 17.609375 7.8125 
L 30.6875 7.8125 
Q 44.21875 7.8125 50.796875 15.5 
Q 57.390625 23.1875 57.390625 36.5 
Q 57.390625 49.71875 50.921875 57.3125 
Q 44.46875 64.921875 31.671875 64.921875 
L 17.609375 64.921875 
z
" id="Inter-Regular-68"/>
       </defs>
       <use xlink:href="#Inter-Regular-48"/>
       <use x="62.500015" xlink:href="#Inter-Regular-49"/>
       <use x="106.676163" xlink:href="#Inter-Regular-32"/>
       <use x="134.801163" xlink:href="#Inter-Regular-68"/>
       <use x="206.676178" xlink:href="#Inter-Regular-101"/>
       <use x="264.914825" xlink:href="#Inter-Regular-99"/>
      </g>
     </g>
    </g>
    <g id="xtick_11">
     <g id="line2d_11">
      <g>
       <use style="stroke:#000000;stroke-width:0.8;" x="676.054521" xlink:href="#m669539e703" y="476.745"/>
      </g>
     </g>
     <g id="text_11">
      <!-- 01 Jan -->
      <g transform="translate(660.855302 491.018438)scale(0.1 -0.1)">
       <use xlink:href="#Inter-Regular-48"/>
       <use x="62.500015" xlink:href="#Inter-Regular-49"/>
       <use x="106.676163" xlink:href="#Inter-Regular-32"/>
       <use x="134.801163" xlink:href="#Inter-Regular-74"/>
       <use x="189.062531" xlink:href="#Inter-Regular-97"/>
       <use x="245.45459" xlink:href="#Inter-Regular-110"/>
      </g>
     </g>
    </g>
    <g id="xtick_12">
     <g id="line2d_12">
      <g>
       <use style="stroke:#000000;stroke-width:0.8;" x="736.984922" xlink:href="#m669539e703" y="476.745"/>
      </g>
     </g>
     <g id="text_12">
      <!-- 01 Feb -->
      <g transform="translate(721.295859 491.018438)scale(0.1 -0.1)">
       <defs>
        <path d="M 8.8125 0 
L 8.8125 72.734375 
L 52.421875 72.734375 
L 52.421875 64.921875 
L 17.609375 64.921875 
L 17.609375 40.34375 
L 49.15625 40.34375 
L 49.15625 32.53125 
L 17.609375 32.53125 
L 17.609375 0 
z
" id="Inter-Regular-70"/>
        <path d="M 8.8125 0 
L 8.8125 72.734375 
L 17.1875 72.734375 
L 17.1875 45.875 
L 17.90625 45.875 
Q 18.828125 47.296875 20.46875 49.515625 
Q 22.125 51.734375 25.234375 53.484375 
Q 28.34375 55.25 33.671875 55.25 
Q 40.5625 55.25 45.8125 51.796875 
Q 51.0625 48.359375 54.015625 42.03125 
Q 56.96875 35.71875 56.96875 27.125 
Q 56.96875 18.46875 54.015625 12.125 
Q 51.0625 5.78125 45.84375 2.3125 
Q 40.625 -1.140625 33.8125 -1.140625 
Q 28.546875 -1.140625 25.390625 0.609375 
Q 22.234375 2.375 20.53125 4.625 
Q 18.828125 6.890625 17.90625 8.375 
L 16.90625 8.375 
L 16.90625 0 
z
M 17.046875 27.265625 
Q 17.046875 18 21.078125 12.1875 
Q 25.109375 6.390625 32.671875 6.390625 
Q 37.921875 6.390625 41.453125 9.171875 
Q 45 11.96875 46.78125 16.703125 
Q 48.578125 21.453125 48.578125 27.265625 
Q 48.578125 33.03125 46.8125 37.65625 
Q 45.0625 42.296875 41.53125 45.015625 
Q 38 47.734375 32.671875 47.734375 
Q 25 47.734375 21.015625 42.078125 
Q 17.046875 36.4375 17.046875 27.265625 
z
" id="Inter-Regular-98"/>
       </defs>
       <use xlink:href="#Inter-Regular-48"/>
       <use x="62.500015" xlink:href="#Inter-Regular-49"/>
       <use x="106.676163" xlink:href="#Inter-Regular-32"/>
       <use x="134.801163" xlink:href="#Inter-Regular-70"/>
       <use x="193.465942" xlink:href="#Inter-Regular-101"/>
       <use x="251.70459" xlink:href="#Inter-Regular-98"/>
      </g>
     </g>
    </g>
   </g>
   <g id="matplotlib.axis_2">
    <g id="ytick_1">
     <g id="line2d_13">
      <path clip-path="url(#p8ed3e965b6)" d="M 74.6125 476.745 
L 744.2125 476.745 
" style="fill:none;stroke:#e5e5e5;stroke-linecap:square;stroke-width:0.8;"/>
     </g>
     <g id="line2d_14">
      <defs>
       <path d="M 0 0 
L -3.5 0 
" id="md835e2b669" style="stroke:#000000;stroke-width:0.8;"/>
      </defs>
      <g>
       <use style="stroke:#000000;stroke-width:0.8;" x="74.6125" xlink:href="#md835e2b669" y="476.745"/>
      </g>
     </g>
     <g id="text_13">
      <!-- 0.000% -->
      <g transform="translate(31.73125 480.381719)scale(0.1 -0.1)">
       <defs>
        <path d="M 13.78125 -0.5625 
Q 11.15625 -0.5625 9.265625 1.3125 
Q 7.390625 3.203125 7.390625 5.828125 
Q 7.390625 8.453125 9.265625 10.328125 
Q 11.15625 12.21875 13.78125 12.21875 
Q 16.40625 12.21875 18.28125 10.328125 
Q 20.171875 8.453125 20.171875 5.828125 
Q 20.171875 3.203125 18.28125 1.3125 
Q 16.40625 -0.5625 13.78125 -0.5625 
z
" id="Inter-Regular-46"/>
        <path d="M 44.609375 13.640625 
L 44.609375 17.46875 
Q 44.609375 21.453125 46.25 24.765625 
Q 47.90625 28.09375 51.078125 30.09375 
Q 54.265625 32.109375 58.8125 32.109375 
Q 63.421875 32.109375 66.546875 30.09375 
Q 69.671875 28.09375 71.265625 24.765625 
Q 72.875 21.453125 72.875 17.46875 
L 72.875 13.640625 
Q 72.875 9.65625 71.25 6.328125 
Q 69.640625 3.015625 66.5 1 
Q 63.359375 -1 58.8125 -1 
Q 54.1875 -1 51.03125 1 
Q 47.875 3.015625 46.234375 6.328125 
Q 44.609375 9.65625 44.609375 13.640625 
z
M 8.375 55.25 
L 8.375 59.09375 
Q 8.375 63.0625 10.03125 66.375 
Q 11.6875 69.703125 14.859375 71.703125 
Q 18.046875 73.71875 22.59375 73.71875 
Q 27.203125 73.71875 30.328125 71.703125 
Q 33.453125 69.703125 35.046875 66.375 
Q 36.65625 63.0625 36.65625 59.09375 
L 36.65625 55.25 
Q 36.65625 51.28125 35.03125 47.953125 
Q 33.421875 44.640625 30.265625 42.625 
Q 27.125 40.625 22.59375 40.625 
Q 17.96875 40.625 14.8125 42.625 
Q 11.65625 44.640625 10.015625 47.953125 
Q 8.375 51.28125 8.375 55.25 
z
M 11.078125 0 
L 61.078125 72.734375 
L 69.171875 72.734375 
L 19.171875 0 
z
M 51.84375 17.46875 
L 51.84375 13.640625 
Q 51.84375 10.328125 53.40625 7.71875 
Q 54.96875 5.109375 58.8125 5.109375 
Q 62.53125 5.109375 64.078125 7.71875 
Q 65.625 10.328125 65.625 13.640625 
L 65.625 17.46875 
Q 65.625 20.78125 64.125 23.390625 
Q 62.640625 26 58.8125 26 
Q 55.078125 26 53.453125 23.390625 
Q 51.84375 20.78125 51.84375 17.46875 
z
M 15.625 59.09375 
L 15.625 55.25 
Q 15.625 51.953125 17.1875 49.34375 
Q 18.75 46.734375 22.59375 46.734375 
Q 26.3125 46.734375 27.859375 49.34375 
Q 29.40625 51.953125 29.40625 55.25 
L 29.40625 59.09375 
Q 29.40625 62.390625 27.90625 65 
Q 26.421875 67.609375 22.59375 67.609375 
Q 18.859375 67.609375 17.234375 65 
Q 15.625 62.390625 15.625 59.09375 
z
" id="Inter-Regular-37"/>
       </defs>
       <use xlink:href="#Inter-Regular-48"/>
       <use x="62.500015" xlink:href="#Inter-Regular-46"/>
       <use x="90.056839" xlink:href="#Inter-Regular-48"/>
       <use x="152.556854" xlink:href="#Inter-Regular-48"/>
       <use x="215.05687" xlink:href="#Inter-Regular-48"/>
       <use x="277.556885" xlink:href="#Inter-Regular-37"/>
      </g>
     </g>
    </g>
    <g id="ytick_2">
     <g id="line2d_15">
      <path clip-path="url(#p8ed3e965b6)" d="M 74.6125 415.569818 
L 744.2125 415.569818 
" style="fill:none;stroke:#e5e5e5;stroke-linecap:square;stroke-width:0.8;"/>
     </g>
     <g id="line2d_16">
      <g>
       <use style="stroke:#000000;stroke-width:0.8;" x="74.6125" xlink:href="#md835e2b669" y="415.569818"/>
      </g>
     </g>
     <g id="text_14">
      <!-- 0.025% -->
      <g transform="translate(32.1 419.206536)scale(0.1 -0.1)">
       <defs>
        <path d="M 7.53125 0 
L 7.53125 6.390625 
L 31.53125 32.671875 
Q 35.765625 37.28125 38.5 40.703125 
Q 41.234375 44.140625 42.5625 47.171875 
Q 43.890625 50.21875 43.890625 53.546875 
Q 43.890625 59.296875 39.890625 62.671875 
Q 35.90625 66.046875 29.96875 66.046875 
Q 23.65625 66.046875 19.921875 62.265625 
Q 16.1875 58.484375 16.1875 52.265625 
L 7.8125 52.265625 
Q 7.8125 58.671875 10.75 63.5 
Q 13.703125 68.328125 18.796875 71.015625 
Q 23.90625 73.71875 30.25 73.71875 
Q 36.65625 73.71875 41.578125 71.015625 
Q 46.515625 68.328125 49.3125 63.734375 
Q 52.125 59.15625 52.125 53.546875 
Q 52.125 49.53125 50.6875 45.71875 
Q 49.25 41.90625 45.71875 37.234375 
Q 42.1875 32.5625 35.9375 25.859375 
L 19.609375 8.375 
L 19.609375 7.8125 
L 53.40625 7.8125 
L 53.40625 0 
z
" id="Inter-Regular-50"/>
        <path d="M 30.25 -1 
Q 24 -1 19 1.484375 
Q 14 3.984375 10.96875 8.3125 
Q 7.953125 12.640625 7.671875 18.1875 
L 16.1875 18.1875 
Q 16.6875 13.25 20.6875 10.03125 
Q 24.6875 6.8125 30.25 6.8125 
Q 34.734375 6.8125 38.234375 8.90625 
Q 41.734375 11.015625 43.734375 14.6875 
Q 45.734375 18.359375 45.734375 23.015625 
Q 45.734375 27.765625 43.65625 31.515625 
Q 41.578125 35.265625 37.953125 37.421875 
Q 34.34375 39.59375 29.6875 39.625 
Q 26.34375 39.671875 22.828125 38.625 
Q 19.3125 37.578125 17.046875 35.9375 
L 8.8125 36.9375 
L 13.21875 72.734375 
L 51 72.734375 
L 51 64.921875 
L 20.59375 64.921875 
L 18.046875 43.46875 
L 18.46875 43.46875 
Q 20.703125 45.234375 24.078125 46.40625 
Q 27.453125 47.578125 31.109375 47.578125 
Q 37.78125 47.578125 43.015625 44.40625 
Q 48.265625 41.234375 51.265625 35.71875 
Q 54.265625 30.21875 54.265625 23.15625 
Q 54.265625 16.1875 51.15625 10.734375 
Q 48.046875 5.296875 42.609375 2.140625 
Q 37.1875 -1 30.25 -1 
z
" id="Inter-Regular-53"/>
       </defs>
       <use xlink:href="#Inter-Regular-48"/>
       <use x="62.500015" xlink:href="#Inter-Regular-46"/>
       <use x="90.056839" xlink:href="#Inter-Regular-48"/>
       <use x="152.556854" xlink:href="#Inter-Regular-50"/>
       <use x="213.068237" xlink:href="#Inter-Regular-53"/>
       <use x="273.863708" xlink:href="#Inter-Regular-37"/>
      </g>
     </g>
    </g>
    <g id="ytick_3">
     <g id="line2d_17">
      <path clip-path="url(#p8ed3e965b6)" d="M 74.6125 354.394635 
L 744.2125 354.394635 
" style="fill:none;stroke:#e5e5e5;stroke-linecap:square;stroke-width:0.8;"/>
     </g>
     <g id="line2d_18">
      <g>
       <use style="stroke:#000000;stroke-width:0.8;" x="74.6125" xlink:href="#md835e2b669" y="354.394635"/>
      </g>
     </g>
     <g id="text_15">
      <!-- 0.050% -->
      <g transform="translate(31.901563 358.031354)scale(0.1 -0.1)">
       <use xlink:href="#Inter-Regular-48"/>
       <use x="62.500015" xlink:href="#Inter-Regular-46"/>
       <use x="90.056839" xlink:href="#Inter-Regular-48"/>
       <use x="152.556854" xlink:href="#Inter-Regular-53"/>
       <use x="213.352325" xlink:href="#Inter-Regular-48"/>
       <use x="275.852341" xlink:href="#Inter-Regular-37"/>
      </g>
     </g>
    </g>
    <g id="ytick_4">
     <g id="line2d_19">
      <path clip-path="url(#p8ed3e965b6)" d="M 74.6125 293.219453 
L 744.2125 293.219453 
" style="fill:none;stroke:#e5e5e5;stroke-linecap:square;stroke-width:0.8;"/>
     </g>
     <g id="line2d_20">
      <g>
       <use style="stroke:#000000;stroke-width:0.8;" x="74.6125" xlink:href="#md835e2b669" y="293.219453"/>
      </g>
     </g>
     <g id="text_16">
      <!-- 0.075% -->
      <g transform="translate(32.440625 296.856171)scale(0.1 -0.1)">
       <defs>
        <path d="M 9.796875 0 
L 42.328125 64.34375 
L 42.328125 64.921875 
L 4.828125 64.921875 
L 4.828125 72.734375 
L 51.421875 72.734375 
L 51.421875 64.484375 
L 19.03125 0 
z
" id="Inter-Regular-55"/>
       </defs>
       <use xlink:href="#Inter-Regular-48"/>
       <use x="62.500015" xlink:href="#Inter-Regular-46"/>
       <use x="90.056839" xlink:href="#Inter-Regular-48"/>
       <use x="152.556854" xlink:href="#Inter-Regular-55"/>
       <use x="209.659134" xlink:href="#Inter-Regular-53"/>
       <use x="270.454605" xlink:href="#Inter-Regular-37"/>
      </g>
     </g>
    </g>
    <g id="ytick_5">
     <g id="line2d_21">
      <path clip-path="url(#p8ed3e965b6)" d="M 74.6125 232.04427 
L 744.2125 232.04427 
" style="fill:none;stroke:#e5e5e5;stroke-linecap:square;stroke-width:0.8;"/>
     </g>
     <g id="line2d_22">
      <g>
       <use style="stroke:#000000;stroke-width:0.8;" x="74.6125" xlink:href="#md835e2b669" y="232.04427"/>
      </g>
     </g>
     <g id="text_17">
      <!-- 0.100% -->
      <g transform="translate(33.564063 235.680989)scale(0.1 -0.1)">
       <use xlink:href="#Inter-Regular-48"/>
       <use x="62.500015" xlink:href="#Inter-Regular-46"/>
       <use x="90.056839" xlink:href="#Inter-Regular-49"/>
       <use x="134.232986" xlink:href="#Inter-Regular-48"/>
       <use x="196.733002" xlink:href="#Inter-Regular-48"/>
       <use x="259.233017" xlink:href="#Inter-Regular-37"/>
      </g>
     </g>
    </g>
    <g id="ytick_6">
     <g id="line2d_23">
      <path clip-path="url(#p8ed3e965b6)" d="M 74.6125 170.869088 
L 744.2125 170.869088 
" style="fill:none;stroke:#e5e5e5;stroke-linecap:square;stroke-width:0.8;"/>
     </g>
     <g id="line2d_24">
      <g>
       <use style="stroke:#000000;stroke-width:0.8;" x="74.6125" xlink:href="#md835e2b669" y="170.869088"/>
      </g>
     </g>
     <g id="text_18">
      <!-- 0.125% -->
      <g transform="translate(33.932813 174.505806)scale(0.1 -0.1)">
       <use xlink:href="#Inter-Regular-48"/>
       <use x="62.500015" xlink:href="#Inter-Regular-46"/>
       <use x="90.056839" xlink:href="#Inter-Regular-49"/>
       <use x="134.232986" xlink:href="#Inter-Regular-50"/>
       <use x="194.74437" xlink:href="#Inter-Regular-53"/>
       <use x="255.539841" xlink:href="#Inter-Regular-37"/>
      </g>
     </g>
    </g>
    <g id="ytick_7">
     <g id="line2d_25">
      <path clip-path="url(#p8ed3e965b6)" d="M 74.6125 109.693905 
L 744.2125 109.693905 
" style="fill:none;stroke:#e5e5e5;stroke-linecap:square;stroke-width:0.8;"/>
     </g>
     <g id="line2d_26">
      <g>
       <use style="stroke:#000000;stroke-width:0.8;" x="74.6125" xlink:href="#md835e2b669" y="109.693905"/>
      </g>
     </g>
     <g id="text_19">
      <!-- 0.150% -->
      <g transform="translate(33.734375 113.330624)scale(0.1 -0.1)">
       <use xlink:href="#Inter-Regular-48"/>
       <use x="62.500015" xlink:href="#Inter-Regular-46"/>
       <use x="90.056839" xlink:href="#Inter-Regular-49"/>
       <use x="134.232986" xlink:href="#Inter-Regular-53"/>
       <use x="195.028458" xlink:href="#Inter-Regular-48"/>
       <use x="257.528473" xlink:href="#Inter-Regular-37"/>
      </g>
     </g>
    </g>
    <g id="ytick_8">
     <g id="line2d_27">
      <path clip-path="url(#p8ed3e965b6)" d="M 74.6125 48.518723 
L 744.2125 48.518723 
" style="fill:none;stroke:#e5e5e5;stroke-linecap:square;stroke-width:0.8;"/>
     </g>
     <g id="line2d_28">
      <g>
       <use style="stroke:#000000;stroke-width:0.8;" x="74.6125" xlink:href="#md835e2b669" y="48.518723"/>
      </g>
     </g>
     <g id="text_20">
      <!-- 0.175% -->
      <g transform="translate(34.273438 52.155441)scale(0.1 -0.1)">
       <use xlink:href="#Inter-Regular-48"/>
       <use x="62.500015" xlink:href="#Inter-Regular-46"/>
       <use x="90.056839" xlink:href="#Inter-Regular-49"/>
       <use x="134.232986" xlink:href="#Inter-Regular-55"/>
       <use x="191.335266" xlink:href="#Inter-Regular-53"/>
       <use x="252.130737" xlink:href="#Inter-Regular-37"/>
      </g>
     </g>
    </g>
    <g id="text_21">
     <!-- Percent of nation who have died within 28 days of a positive test -->
     <g transform="translate(25.614063 408.395938)rotate(-90)scale(0.1 -0.1)">
      <defs>
       <path d="M 8.8125 0 
L 8.8125 72.734375 
L 33.375 72.734375 
Q 41.9375 72.734375 47.390625 69.65625 
Q 52.84375 66.578125 55.46875 61.359375 
Q 58.09375 56.140625 58.09375 49.71875 
Q 58.09375 43.28125 55.484375 38.03125 
Q 52.875 32.78125 47.4375 29.671875 
Q 42.015625 26.5625 33.53125 26.5625 
L 17.609375 26.5625 
L 17.609375 0 
z
M 17.609375 34.375 
L 33.234375 34.375 
Q 42.015625 34.375 45.71875 38.78125 
Q 49.4375 43.1875 49.4375 49.71875 
Q 49.4375 56.28125 45.703125 60.59375 
Q 41.96875 64.921875 33.09375 64.921875 
L 17.609375 64.921875 
z
" id="Inter-Regular-80"/>
       <path d="M 31.96875 54.546875 
L 31.96875 47.4375 
L 19.75 47.4375 
L 19.75 0 
L 11.359375 0 
L 11.359375 47.4375 
L 2.5625 47.4375 
L 2.5625 54.546875 
L 11.359375 54.546875 
L 11.359375 62.078125 
Q 11.359375 66.765625 13.5625 69.890625 
Q 15.765625 73.015625 19.28125 74.578125 
Q 22.796875 76.140625 26.703125 76.140625 
Q 29.796875 76.140625 31.75 75.640625 
Q 33.703125 75.140625 34.65625 74.71875 
L 32.25 67.46875 
Q 31.609375 67.6875 30.484375 68 
Q 29.375 68.328125 27.5625 68.328125 
Q 23.40625 68.328125 21.578125 66.234375 
Q 19.75 64.140625 19.75 60.078125 
L 19.75 54.546875 
z
" id="Inter-Regular-102"/>
       <path d="M 7.671875 0 
L 7.671875 54.546875 
L 16.046875 54.546875 
L 16.046875 0 
z
M 11.9375 63.640625 
Q 9.484375 63.640625 7.71875 65.296875 
Q 5.96875 66.96875 5.96875 69.3125 
Q 5.96875 71.65625 7.71875 73.328125 
Q 9.484375 75 11.9375 75 
Q 14.390625 75 16.140625 73.328125 
Q 17.90625 71.65625 17.90625 69.3125 
Q 17.90625 66.96875 16.140625 65.296875 
Q 14.390625 63.640625 11.9375 63.640625 
z
" id="Inter-Regular-105"/>
       <path d="M 20.03125 0 
L 3.40625 54.546875 
L 12.21875 54.546875 
L 24 12.78125 
L 24.578125 12.78125 
L 36.21875 54.546875 
L 45.171875 54.546875 
L 56.671875 12.921875 
L 57.25 12.921875 
L 69.03125 54.546875 
L 77.84375 54.546875 
L 61.21875 0 
L 52.984375 0 
L 41.046875 41.90625 
L 40.203125 41.90625 
L 28.265625 0 
z
" id="Inter-Regular-119"/>
       <path d="M 16.046875 32.8125 
L 16.046875 0 
L 7.671875 0 
L 7.671875 72.734375 
L 16.046875 72.734375 
L 16.046875 46.015625 
L 16.765625 46.015625 
Q 18.6875 50.25 22.53125 52.75 
Q 26.390625 55.25 32.8125 55.25 
Q 41.1875 55.25 46.296875 50.203125 
Q 51.421875 45.171875 51.421875 34.65625 
L 51.421875 0 
L 43.046875 0 
L 43.046875 34.09375 
Q 43.046875 40.59375 39.6875 44.15625 
Q 36.328125 47.734375 30.40625 47.734375 
Q 24.1875 47.734375 20.109375 43.84375 
Q 16.046875 39.953125 16.046875 32.8125 
z
" id="Inter-Regular-104"/>
       <path d="M 28.265625 -1.140625 
Q 21.453125 -1.140625 16.234375 2.3125 
Q 11.015625 5.78125 8.0625 12.125 
Q 5.109375 18.46875 5.109375 27.125 
Q 5.109375 35.71875 8.0625 42.03125 
Q 11.015625 48.359375 16.265625 51.796875 
Q 21.515625 55.25 28.40625 55.25 
Q 33.734375 55.25 36.84375 53.484375 
Q 39.953125 51.734375 41.59375 49.515625 
Q 43.25 47.296875 44.171875 45.875 
L 44.890625 45.875 
L 44.890625 72.734375 
L 53.265625 72.734375 
L 53.265625 0 
L 45.171875 0 
L 45.171875 8.375 
L 44.171875 8.375 
Q 43.25 6.890625 41.546875 4.625 
Q 39.84375 2.375 36.6875 0.609375 
Q 33.53125 -1.140625 28.265625 -1.140625 
z
M 29.40625 6.390625 
Q 36.96875 6.390625 41 12.1875 
Q 45.03125 18 45.03125 27.265625 
Q 45.03125 36.4375 41.046875 42.078125 
Q 37.078125 47.734375 29.40625 47.734375 
Q 24.078125 47.734375 20.546875 45.015625 
Q 17.015625 42.296875 15.25 37.65625 
Q 13.5 33.03125 13.5 27.265625 
Q 13.5 21.453125 15.28125 16.703125 
Q 17.078125 11.96875 20.609375 9.171875 
Q 24.15625 6.390625 29.40625 6.390625 
z
" id="Inter-Regular-100"/>
       <path d="M 30.828125 -1 
Q 23.515625 -1 17.921875 1.609375 
Q 12.328125 4.21875 9.203125 8.8125 
Q 6.078125 13.421875 6.109375 19.3125 
Q 6.078125 23.9375 7.921875 27.859375 
Q 9.765625 31.78125 12.96875 34.421875 
Q 16.1875 37.078125 20.171875 37.78125 
L 20.171875 38.203125 
Q 14.953125 39.5625 11.859375 44.078125 
Q 8.765625 48.609375 8.8125 54.40625 
Q 8.765625 59.9375 11.609375 64.296875 
Q 14.453125 68.671875 19.4375 71.1875 
Q 24.4375 73.71875 30.828125 73.71875 
Q 37.140625 73.71875 42.109375 71.1875 
Q 47.09375 68.671875 49.953125 64.296875 
Q 52.8125 59.9375 52.84375 54.40625 
Q 52.8125 48.609375 49.703125 44.078125 
Q 46.59375 39.5625 41.484375 38.203125 
L 41.484375 37.78125 
Q 45.421875 37.078125 48.578125 34.421875 
Q 51.734375 31.78125 53.609375 27.859375 
Q 55.5 23.9375 55.546875 19.3125 
Q 55.5 13.421875 52.359375 8.8125 
Q 49.21875 4.21875 43.65625 1.609375 
Q 38.109375 -1 30.828125 -1 
z
M 30.828125 6.8125 
Q 38.21875 6.8125 42.53125 10.34375 
Q 46.84375 13.890625 46.875 19.75 
Q 46.84375 23.859375 44.75 27.015625 
Q 42.65625 30.1875 39.046875 32 
Q 35.4375 33.8125 30.828125 33.8125 
Q 26.171875 33.8125 22.53125 32 
Q 18.890625 30.1875 16.8125 27.015625 
Q 14.734375 23.859375 14.78125 19.75 
Q 14.734375 13.890625 19.03125 10.34375 
Q 23.328125 6.8125 30.828125 6.8125 
z
M 30.828125 41.328125 
Q 36.6875 41.328125 40.484375 44.75 
Q 44.28125 48.1875 44.3125 53.828125 
Q 44.28125 59.375 40.5625 62.703125 
Q 36.859375 66.046875 30.828125 66.046875 
Q 24.71875 66.046875 21 62.703125 
Q 17.296875 59.375 17.328125 53.828125 
Q 17.296875 48.1875 21.078125 44.75 
Q 24.859375 41.328125 30.828125 41.328125 
z
" id="Inter-Regular-56"/>
       <path d="M 46.3125 42.328125 
L 38.78125 40.203125 
Q 37.671875 43.046875 35.078125 45.53125 
Q 32.5 48.015625 26.984375 48.015625 
Q 21.984375 48.015625 18.65625 45.71875 
Q 15.34375 43.4375 15.34375 39.921875 
Q 15.34375 36.796875 17.609375 34.984375 
Q 19.890625 33.171875 24.71875 31.953125 
L 32.8125 29.96875 
Q 47.296875 26.421875 47.296875 15.203125 
Q 47.296875 10.515625 44.609375 6.8125 
Q 41.9375 3.125 37.140625 0.984375 
Q 32.359375 -1.140625 26 -1.140625 
Q 17.65625 -1.140625 12.1875 2.484375 
Q 6.71875 6.109375 5.25 13.0625 
L 13.21875 15.0625 
Q 15.453125 6.25 25.859375 6.25 
Q 31.71875 6.25 35.171875 8.75 
Q 38.640625 11.25 38.640625 14.765625 
Q 38.640625 20.5625 30.546875 22.4375 
L 21.453125 24.578125 
Q 13.953125 26.34375 10.453125 30.09375 
Q 6.96875 33.84375 6.96875 39.484375 
Q 6.96875 44.109375 9.578125 47.65625 
Q 12.1875 51.203125 16.703125 53.21875 
Q 21.234375 55.25 26.984375 55.25 
Q 35.09375 55.25 39.71875 51.703125 
Q 44.359375 48.15625 46.3125 42.328125 
z
" id="Inter-Regular-115"/>
      </defs>
      <use xlink:href="#Inter-Regular-80"/>
      <use x="63.494324" xlink:href="#Inter-Regular-101"/>
      <use x="121.732971" xlink:href="#Inter-Regular-114"/>
      <use x="160.085251" xlink:href="#Inter-Regular-99"/>
      <use x="215.909119" xlink:href="#Inter-Regular-101"/>
      <use x="274.147766" xlink:href="#Inter-Regular-110"/>
      <use x="332.670502" xlink:href="#Inter-Regular-116"/>
      <use x="369.034149" xlink:href="#Inter-Regular-32"/>
      <use x="397.159149" xlink:href="#Inter-Regular-111"/>
      <use x="456.818253" xlink:href="#Inter-Regular-102"/>
      <use x="492.897797" xlink:href="#Inter-Regular-32"/>
      <use x="521.022797" xlink:href="#Inter-Regular-110"/>
      <use x="579.545532" xlink:href="#Inter-Regular-97"/>
      <use x="635.937592" xlink:href="#Inter-Regular-116"/>
      <use x="672.301239" xlink:href="#Inter-Regular-105"/>
      <use x="696.022827" xlink:href="#Inter-Regular-111"/>
      <use x="755.681931" xlink:href="#Inter-Regular-110"/>
      <use x="814.204666" xlink:href="#Inter-Regular-32"/>
      <use x="842.329666" xlink:href="#Inter-Regular-119"/>
      <use x="923.579681" xlink:href="#Inter-Regular-104"/>
      <use x="982.670609" xlink:href="#Inter-Regular-111"/>
      <use x="1042.329712" xlink:href="#Inter-Regular-32"/>
      <use x="1070.454712" xlink:href="#Inter-Regular-104"/>
      <use x="1129.545639" xlink:href="#Inter-Regular-97"/>
      <use x="1185.937698" xlink:href="#Inter-Regular-118"/>
      <use x="1241.619522" xlink:href="#Inter-Regular-101"/>
      <use x="1299.85817" xlink:href="#Inter-Regular-32"/>
      <use x="1327.98317" xlink:href="#Inter-Regular-100"/>
      <use x="1390.057053" xlink:href="#Inter-Regular-105"/>
      <use x="1413.778641" xlink:href="#Inter-Regular-101"/>
      <use x="1472.017288" xlink:href="#Inter-Regular-100"/>
      <use x="1534.091171" xlink:href="#Inter-Regular-32"/>
      <use x="1562.216171" xlink:href="#Inter-Regular-119"/>
      <use x="1643.466187" xlink:href="#Inter-Regular-105"/>
      <use x="1667.187775" xlink:href="#Inter-Regular-116"/>
      <use x="1703.551422" xlink:href="#Inter-Regular-104"/>
      <use x="1762.642349" xlink:href="#Inter-Regular-105"/>
      <use x="1786.363937" xlink:href="#Inter-Regular-110"/>
      <use x="1844.886673" xlink:href="#Inter-Regular-32"/>
      <use x="1873.011673" xlink:href="#Inter-Regular-50"/>
      <use x="1933.523056" xlink:href="#Inter-Regular-56"/>
      <use x="1995.170792" xlink:href="#Inter-Regular-32"/>
      <use x="2023.295792" xlink:href="#Inter-Regular-100"/>
      <use x="2085.369675" xlink:href="#Inter-Regular-97"/>
      <use x="2141.761734" xlink:href="#Inter-Regular-121"/>
      <use x="2197.443558" xlink:href="#Inter-Regular-115"/>
      <use x="2249.716293" xlink:href="#Inter-Regular-32"/>
      <use x="2277.841293" xlink:href="#Inter-Regular-111"/>
      <use x="2337.500397" xlink:href="#Inter-Regular-102"/>
      <use x="2373.579941" xlink:href="#Inter-Regular-32"/>
      <use x="2401.704941" xlink:href="#Inter-Regular-97"/>
      <use x="2458.097" xlink:href="#Inter-Regular-32"/>
      <use x="2486.222" xlink:href="#Inter-Regular-112"/>
      <use x="2547.159515" xlink:href="#Inter-Regular-111"/>
      <use x="2606.818619" xlink:href="#Inter-Regular-115"/>
      <use x="2659.091354" xlink:href="#Inter-Regular-105"/>
      <use x="2682.812943" xlink:href="#Inter-Regular-116"/>
      <use x="2719.17659" xlink:href="#Inter-Regular-105"/>
      <use x="2742.898178" xlink:href="#Inter-Regular-118"/>
      <use x="2798.580002" xlink:href="#Inter-Regular-101"/>
      <use x="2856.818649" xlink:href="#Inter-Regular-32"/>
      <use x="2884.943649" xlink:href="#Inter-Regular-116"/>
      <use x="2921.307297" xlink:href="#Inter-Regular-101"/>
      <use x="2979.545944" xlink:href="#Inter-Regular-115"/>
      <use x="3031.81868" xlink:href="#Inter-Regular-116"/>
     </g>
    </g>
   </g>
   <g id="line2d_29">
    <path clip-path="url(#p8ed3e965b6)" d="M -1 476.745 
L 98.198462 476.701526 
L 108.025946 476.258094 
L 117.85343 475.306018 
L 119.818926 474.684343 
L 123.74992 473.175802 
L 127.680914 470.784744 
L 129.64641 469.937005 
L 133.577404 466.802545 
L 139.473894 458.672947 
L 141.439391 455.677603 
L 143.404888 453.164818 
L 145.370385 450.85636 
L 147.335882 446.469855 
L 149.301378 442.461572 
L 153.232372 433.658131 
L 155.197869 430.419334 
L 157.163366 427.793517 
L 159.128862 424.776436 
L 161.094359 420.398626 
L 163.059856 417.22504 
L 165.025353 413.286315 
L 166.99085 409.69538 
L 168.956346 405.330612 
L 170.921843 403.678608 
L 172.88734 401.348413 
L 174.852837 396.496738 
L 176.818334 393.344889 
L 178.78383 390.762546 
L 180.749327 387.193348 
L 182.714824 384.024109 
L 184.680321 382.602516 
L 186.645818 381.346124 
L 188.611314 377.598684 
L 190.576811 374.972867 
L 192.542308 372.61224 
L 194.507805 369.903823 
L 196.473302 367.795345 
L 200.404295 365.756424 
L 202.369792 362.978449 
L 204.335289 360.678686 
L 206.300786 359.039724 
L 208.266282 356.87473 
L 210.231779 355.892222 
L 214.162773 354.309776 
L 216.12827 351.966539 
L 218.093766 350.392788 
L 223.990257 346.345379 
L 225.955754 346.158441 
L 227.92125 345.575893 
L 229.886747 343.632614 
L 231.852244 342.506643 
L 233.817741 341.55022 
L 235.783238 340.432944 
L 237.748734 339.57651 
L 239.714231 338.002759 
L 243.645225 337.17241 
L 245.610722 335.450848 
L 247.576218 334.081424 
L 249.541715 333.011969 
L 251.507212 332.503325 
L 253.472709 332.333778 
L 255.438206 331.990335 
L 259.369199 330.051404 
L 261.334696 329.564497 
L 263.300193 328.525474 
L 265.26569 327.977704 
L 269.196683 327.573398 
L 271.16218 326.795217 
L 273.127677 326.173542 
L 275.093174 325.89531 
L 279.024167 324.978013 
L 282.955161 324.769339 
L 286.886154 323.917253 
L 294.748142 322.917355 
L 296.713638 322.86084 
L 304.575626 321.447941 
L 312.437613 320.900172 
L 314.40311 320.508908 
L 336.023574 319.109052 
L 337.989071 319.074273 
L 341.920065 318.787346 
L 349.782052 318.496071 
L 357.644039 318.235229 
L 361.575033 318.030902 
L 367.471523 317.896133 
L 369.43702 317.770059 
L 375.33351 317.661375 
L 383.195498 317.522259 
L 389.091988 317.426616 
L 394.988478 317.283153 
L 402.850466 317.087521 
L 414.643446 316.913626 
L 418.57444 316.822331 
L 424.47093 316.683215 
L 436.263911 316.526709 
L 451.987886 316.191961 
L 475.573847 315.444212 
L 485.401331 314.718199 
L 489.332325 314.592125 
L 493.263318 314.026966 
L 501.125306 313.25748 
L 503.090802 313.17488 
L 516.84928 311.279423 
L 520.780274 310.270831 
L 528.642261 308.453627 
L 530.607758 308.140616 
L 532.573254 307.214624 
L 536.504248 305.893021 
L 538.469745 305.075714 
L 542.400738 303.867142 
L 544.366235 303.475878 
L 546.331732 302.076022 
L 550.262726 300.119702 
L 552.228222 299.137194 
L 554.193719 297.928623 
L 558.124713 296.811347 
L 562.055706 293.563855 
L 565.9867 290.955428 
L 567.952197 289.529488 
L 569.917694 288.977371 
L 571.88319 288.216579 
L 577.779681 282.099818 
L 579.745178 280.882552 
L 581.710674 279.16099 
L 583.676171 278.539315 
L 585.641668 277.708965 
L 587.607165 275.457023 
L 593.503655 269.914115 
L 595.469152 268.757713 
L 597.434649 267.149183 
L 599.400146 266.305791 
L 601.365642 263.979944 
L 603.331139 261.354127 
L 605.296636 259.567354 
L 607.262133 257.606687 
L 609.22763 255.880777 
L 613.158623 254.215731 
L 617.089617 249.494478 
L 619.055114 248.068538 
L 621.02061 246.225249 
L 622.986107 244.729751 
L 626.917101 243.086442 
L 628.882598 240.747552 
L 632.813591 236.965333 
L 634.779088 235.430708 
L 636.744585 233.517862 
L 638.710082 232.917924 
L 640.675578 232.074532 
L 642.641075 230.044306 
L 644.606572 227.709764 
L 650.503062 222.136425 
L 652.468559 221.088706 
L 654.434056 220.227925 
L 658.36505 214.867608 
L 660.330546 212.833034 
L 662.296043 210.355029 
L 664.26154 209.594237 
L 666.227037 208.524782 
L 668.192534 207.124926 
L 670.15803 205.55987 
L 672.123527 201.564629 
L 674.089024 197.999779 
L 676.054521 195.334836 
L 678.020018 193.8176 
L 681.951011 190.504898 
L 683.916508 187.096553 
L 685.882005 183.25347 
L 687.847502 178.888702 
L 689.812998 173.863133 
L 691.778495 170.076566 
L 695.709489 165.759619 
L 697.674986 160.755786 
L 699.640482 154.669456 
L 705.536973 139.9188 
L 709.467966 134.884536 
L 711.433463 128.333036 
L 713.39896 121.107693 
L 715.364457 116.177766 
L 719.29545 105.378877 
L 723.226444 100.601108 
L 727.157438 87.176403 
L 733.053928 72.78658 
L 735.019425 70.491164 
L 736.984922 68.891329 
L 738.950418 62.996283 
L 740.915915 57.896808 
L 742.881412 54.345 
L 742.881412 54.345 
" style="fill:none;stroke:#5694ca;stroke-linecap:square;stroke-width:2;"/>
   </g>
   <g id="line2d_30">
    <path clip-path="url(#p8ed3e965b6)" d="M -1 476.745 
L 111.956939 476.745 
L 113.922436 476.615779 
L 115.887933 476.615779 
L 117.85343 476.486559 
L 121.784423 475.969677 
L 125.715417 475.194353 
L 127.680914 474.935912 
L 129.64641 474.160589 
L 131.611907 474.031368 
L 133.577404 473.256045 
L 135.542901 472.997603 
L 137.508398 472.22228 
L 139.473894 470.671633 
L 141.439391 469.637869 
L 145.370385 467.828781 
L 147.335882 467.441119 
L 149.301378 466.795016 
L 151.266875 466.278134 
L 153.232372 464.985928 
L 155.197869 463.04762 
L 157.163366 461.626193 
L 159.128862 460.85087 
L 161.094359 459.558664 
L 163.059856 458.783341 
L 168.956346 451.93465 
L 170.921843 451.80543 
L 174.852837 448.445695 
L 176.818334 444.569078 
L 178.78383 442.889211 
L 182.714824 438.883373 
L 184.680321 438.23727 
L 186.645818 436.945064 
L 188.611314 434.360653 
L 192.542308 432.034683 
L 194.507805 429.708712 
L 196.473302 428.287286 
L 198.438798 427.641183 
L 200.404295 426.86586 
L 202.369792 424.66911 
L 204.335289 422.860022 
L 210.231779 421.309375 
L 212.197276 420.663272 
L 214.162773 420.275611 
L 216.12827 419.112626 
L 218.093766 418.854184 
L 220.059263 418.208082 
L 222.02476 416.269773 
L 223.990257 415.752891 
L 225.955754 415.365229 
L 227.92125 414.589906 
L 229.886747 413.685362 
L 231.852244 413.039259 
L 233.817741 412.134715 
L 235.783238 411.747053 
L 239.714231 411.488612 
L 241.679728 410.454847 
L 243.645225 410.454847 
L 247.576218 409.937965 
L 249.541715 409.550303 
L 255.438206 409.162642 
L 257.403702 408.904201 
L 259.369199 407.870436 
L 265.26569 407.482774 
L 273.127677 407.482774 
L 277.05867 407.224333 
L 279.024167 406.965892 
L 282.955161 406.965892 
L 286.886154 406.707451 
L 288.851651 406.707451 
L 292.782645 406.44901 
L 296.713638 406.44901 
L 300.644632 406.190569 
L 302.610129 406.190569 
L 310.472116 405.673686 
L 314.40311 405.673686 
L 316.368606 405.544466 
L 318.334103 405.286025 
L 336.023574 405.286025 
L 337.989071 405.027583 
L 391.057485 405.027583 
L 393.022982 404.898363 
L 398.919472 404.898363 
L 400.884969 404.769142 
L 406.781459 404.769142 
L 408.746956 404.639922 
L 424.47093 404.639922 
L 426.436427 404.510701 
L 436.263911 404.510701 
L 438.229408 404.25226 
L 442.160402 403.993819 
L 446.091395 403.993819 
L 448.056892 403.864598 
L 450.022389 403.606157 
L 451.987886 403.606157 
L 453.953382 403.476937 
L 459.849873 403.476937 
L 461.81537 403.218495 
L 463.780866 403.089275 
L 465.746363 402.830834 
L 467.71186 402.830834 
L 469.677357 402.572393 
L 473.60835 402.572393 
L 475.573847 402.313951 
L 483.435834 402.313951 
L 485.401331 402.184731 
L 491.297822 402.184731 
L 493.263318 402.05551 
L 495.228815 401.797069 
L 501.125306 401.409407 
L 503.090802 401.409407 
L 508.987293 401.021746 
L 512.918286 401.021746 
L 514.883783 400.892525 
L 516.84928 400.504863 
L 518.814777 399.600319 
L 522.74577 398.566555 
L 526.676764 398.049673 
L 528.642261 397.40357 
L 530.607758 396.628246 
L 532.573254 396.240585 
L 538.469745 394.302276 
L 540.435242 393.526953 
L 542.400738 392.493188 
L 544.366235 391.847085 
L 546.331732 390.167218 
L 548.297229 389.004233 
L 550.262726 387.970468 
L 552.228222 386.807483 
L 554.193719 385.386057 
L 558.124713 383.318528 
L 560.09021 382.543204 
L 562.055706 381.250998 
L 564.021203 379.700352 
L 565.9867 378.666587 
L 567.952197 376.857499 
L 569.917694 375.952955 
L 575.814184 372.205559 
L 577.779681 370.26725 
L 581.710674 367.553618 
L 583.676171 366.390633 
L 585.641668 364.581545 
L 587.607165 363.41856 
L 591.538158 360.446487 
L 593.503655 358.89584 
L 597.434649 356.311428 
L 599.400146 355.923767 
L 601.365642 354.50234 
L 603.331139 353.597796 
L 605.296636 352.564032 
L 607.262133 351.013385 
L 609.22763 349.8504 
L 611.193126 349.462738 
L 613.158623 348.170532 
L 615.12412 346.232224 
L 617.089617 345.715342 
L 619.055114 344.293915 
L 621.02061 343.518592 
L 622.986107 342.614048 
L 624.951604 341.192622 
L 626.917101 340.029636 
L 628.882598 338.220548 
L 630.848094 336.669902 
L 632.813591 334.860814 
L 634.779088 333.310167 
L 636.744585 332.147182 
L 638.710082 331.630299 
L 640.675578 330.984197 
L 642.641075 330.208873 
L 644.606572 329.175109 
L 648.537566 326.073815 
L 650.503062 323.877065 
L 652.468559 322.197198 
L 654.434056 321.292654 
L 656.399553 319.225125 
L 658.36505 316.511493 
L 660.330546 315.090066 
L 662.296043 315.090066 
L 664.26154 312.505655 
L 666.227037 312.505655 
L 668.192534 309.921244 
L 670.15803 308.112156 
L 672.123527 307.336832 
L 674.089024 305.915406 
L 676.054521 305.915406 
L 678.020018 302.555671 
L 679.985514 301.780348 
L 681.951011 300.229701 
L 683.916508 297.90373 
L 685.882005 296.223863 
L 687.847502 294.027113 
L 689.812998 291.442702 
L 691.778495 290.279717 
L 695.709489 286.015438 
L 697.674986 283.172585 
L 699.640482 280.717395 
L 701.605979 278.649866 
L 703.571476 275.290131 
L 705.536973 272.447278 
L 707.50247 269.216764 
L 709.467966 266.761573 
L 711.433463 263.660279 
L 715.364457 258.103795 
L 719.29545 255.002501 
L 721.260947 253.193413 
L 725.191941 248.929134 
L 727.157438 246.861605 
L 729.122934 245.181738 
L 731.088431 242.338885 
L 733.053928 240.142136 
L 735.019425 237.686945 
L 736.984922 236.265518 
L 738.950418 234.068769 
L 742.881412 231.355137 
L 742.881412 231.355137 
" style="fill:none;stroke:#ffdd00;stroke-linecap:square;stroke-width:2;"/>
   </g>
   <g id="line2d_31">
    <path clip-path="url(#p8ed3e965b6)" d="M -1 476.745 
L 108.025946 476.65542 
L 109.991442 476.52105 
L 113.922436 476.476261 
L 119.818926 476.073151 
L 121.784423 475.804412 
L 123.74992 475.670042 
L 127.680914 474.998193 
L 129.64641 474.953403 
L 131.611907 474.684664 
L 133.577404 473.699286 
L 137.508398 471.146261 
L 141.439391 467.025589 
L 145.370385 466.846429 
L 151.266875 456.768699 
L 155.197869 452.513657 
L 157.163366 451.438699 
L 159.128862 451.03559 
L 161.094359 449.243994 
L 165.025353 441.898448 
L 168.956346 436.792398 
L 172.88734 435.80702 
L 174.852837 432.671726 
L 176.818334 429.222903 
L 178.78383 426.625088 
L 180.749327 423.758533 
L 182.714824 421.653407 
L 184.680321 420.847189 
L 186.645818 420.26492 
L 188.611314 417.129626 
L 190.576811 413.412063 
L 192.542308 410.724669 
L 194.507805 408.933072 
L 196.473302 406.962316 
L 198.438798 406.424837 
L 200.404295 406.200888 
L 202.369792 404.230131 
L 204.335289 400.512569 
L 206.300786 397.869964 
L 208.266282 395.675258 
L 210.231779 394.062821 
L 212.197276 393.614922 
L 214.162773 393.390972 
L 216.12827 391.151477 
L 218.093766 388.419292 
L 220.059263 386.896435 
L 222.02476 384.836099 
L 223.990257 382.999713 
L 225.955754 382.596604 
L 227.92125 382.507024 
L 229.886747 381.208116 
L 231.852244 378.968621 
L 233.817741 377.311394 
L 235.783238 376.236436 
L 237.748734 375.519797 
L 239.714231 375.116688 
L 241.679728 374.982318 
L 243.645225 374.1761 
L 249.541715 372.384503 
L 251.507212 371.399125 
L 253.472709 370.996016 
L 255.438206 370.951226 
L 259.369199 369.921058 
L 261.334696 369.517949 
L 263.300193 368.89089 
L 265.26569 368.622151 
L 269.196683 368.622151 
L 271.16218 368.308621 
L 273.127677 367.771142 
L 279.024167 367.188874 
L 282.955161 367.144084 
L 284.920658 366.920134 
L 286.886154 366.517025 
L 288.851651 366.427445 
L 290.817148 366.158706 
L 294.748142 366.069126 
L 296.713638 366.069126 
L 302.610129 365.621227 
L 310.472116 365.621227 
L 314.40311 365.442067 
L 322.265097 365.352487 
L 341.920065 365.262907 
L 347.816555 365.218117 
L 422.505434 365.173327 
L 426.436427 365.083748 
L 448.056892 364.994168 
L 450.022389 364.859798 
L 467.71186 364.770218 
L 491.297822 364.277529 
L 493.263318 363.964 
L 501.125306 363.471311 
L 505.056299 363.381731 
L 507.021796 363.336941 
L 512.918286 362.575513 
L 516.84928 362.575513 
L 518.814777 362.261983 
L 522.74577 361.007866 
L 524.711267 360.604756 
L 526.676764 359.932908 
L 530.607758 359.888118 
L 532.573254 359.216269 
L 534.538751 357.962152 
L 538.469745 356.394505 
L 540.435242 355.901816 
L 544.366235 355.812236 
L 546.331732 354.692488 
L 548.297229 353.43837 
L 550.262726 351.781144 
L 552.228222 350.527026 
L 554.193719 349.452068 
L 556.159216 349.183329 
L 558.124713 349.183329 
L 560.09021 347.929211 
L 562.055706 345.689715 
L 564.021203 343.942909 
L 565.9867 342.554422 
L 567.952197 340.807615 
L 571.88319 340.628455 
L 573.848687 338.881649 
L 575.814184 336.015094 
L 577.779681 333.999548 
L 579.745178 331.491313 
L 581.710674 329.878876 
L 583.676171 329.878876 
L 585.641668 329.610137 
L 587.607165 327.95291 
L 589.572662 325.534255 
L 591.538158 323.294759 
L 593.503655 321.861482 
L 595.469152 320.204255 
L 597.434649 319.890726 
L 599.400146 319.890726 
L 603.331139 316.083583 
L 605.296636 313.799298 
L 607.262133 312.142071 
L 609.22763 310.171315 
L 613.158623 309.947365 
L 615.12412 308.424508 
L 617.089617 306.722491 
L 619.055114 304.438206 
L 621.02061 302.601819 
L 622.986107 301.616441 
L 624.951604 301.392492 
L 626.917101 301.347702 
L 628.882598 299.869635 
L 630.848094 298.122828 
L 632.813591 295.883333 
L 634.779088 294.539635 
L 636.744585 292.792829 
L 640.675578 292.703249 
L 642.641075 291.628291 
L 644.606572 289.926274 
L 646.572069 288.582577 
L 648.537566 286.97014 
L 650.503062 285.133754 
L 652.468559 284.999384 
L 654.434056 284.999384 
L 656.399553 283.073418 
L 658.36505 280.968292 
L 662.296043 277.116359 
L 668.192534 277.071569 
L 670.15803 276.75804 
L 672.123527 274.832074 
L 674.089024 271.78636 
L 676.054521 269.860393 
L 681.951011 269.815603 
L 683.916508 269.322914 
L 685.882005 266.2772 
L 687.847502 262.783587 
L 691.778495 254.452663 
L 695.709489 254.273504 
L 697.674986 251.854848 
L 699.640482 248.316445 
L 703.571476 242.717706 
L 705.536973 239.224093 
L 709.467966 239.224093 
L 711.433463 236.044009 
L 715.364457 227.937035 
L 717.329954 224.756951 
L 719.29545 221.352918 
L 721.260947 221.308128 
L 723.226444 221.128968 
L 729.122934 209.438801 
L 731.088431 206.303507 
L 733.053928 203.616112 
L 736.984922 203.078633 
L 738.950418 199.98813 
L 740.915915 196.046617 
L 742.881412 193.672752 
L 742.881412 193.672752 
" style="fill:none;stroke:#003078;stroke-linecap:square;stroke-width:2;"/>
   </g>
   <g id="line2d_32">
    <path clip-path="url(#p8ed3e965b6)" d="M -1 476.745 
L 111.956939 476.745 
L 113.922436 476.589776 
L 115.887933 475.89127 
L 117.85343 475.580822 
L 119.818926 475.503211 
L 123.74992 474.64948 
L 125.715417 474.183809 
L 127.680914 473.873362 
L 129.64641 473.097244 
L 131.611907 472.010678 
L 133.577404 471.467395 
L 135.542901 469.216652 
L 137.508398 467.742027 
L 139.473894 465.879343 
L 143.404888 463.939047 
L 145.370385 461.843527 
L 147.335882 460.368902 
L 149.301378 457.807712 
L 151.266875 454.625627 
L 153.232372 452.374883 
L 155.197869 449.580857 
L 157.163366 448.183844 
L 159.128862 447.019667 
L 161.094359 445.545042 
L 163.059856 440.888331 
L 165.025353 438.404753 
L 166.99085 437.551022 
L 168.956346 435.377891 
L 170.921843 432.195806 
L 172.88734 431.497299 
L 174.852837 429.557003 
L 176.818334 428.392826 
L 178.78383 427.073425 
L 180.749327 418.536122 
L 182.714824 416.75105 
L 184.680321 415.664485 
L 186.645818 415.04359 
L 188.611314 413.724189 
L 190.576811 408.058525 
L 192.542308 406.351064 
L 194.507805 405.031663 
L 196.473302 401.616742 
L 200.404295 399.443611 
L 202.369792 397.425703 
L 204.335289 395.795854 
L 206.300786 394.398841 
L 208.266282 392.22571 
L 210.231779 391.527203 
L 212.197276 390.595861 
L 214.162773 390.207802 
L 216.12827 388.966013 
L 218.093766 387.258552 
L 222.02476 385.783927 
L 223.990257 384.386914 
L 225.955754 383.455572 
L 227.92125 383.145125 
L 229.886747 381.825724 
L 231.852244 380.739158 
L 233.817741 380.040652 
L 243.645225 377.324237 
L 245.610722 376.470507 
L 247.576218 375.383941 
L 249.541715 374.607823 
L 251.507212 373.521257 
L 253.472709 372.667527 
L 255.438206 372.279468 
L 257.403702 371.736185 
L 259.369199 370.416784 
L 261.334696 369.795889 
L 263.300193 369.485442 
L 265.26569 368.709323 
L 267.231186 368.321264 
L 269.196683 368.088429 
L 273.127677 366.691416 
L 275.093174 366.225745 
L 277.05867 365.449626 
L 279.024167 364.983955 
L 282.955161 364.440672 
L 284.920658 363.819778 
L 286.886154 363.043659 
L 290.817148 362.345153 
L 296.713638 362.112317 
L 298.679135 361.724258 
L 300.644632 361.103363 
L 302.610129 360.637692 
L 304.575626 360.482469 
L 306.541122 360.094409 
L 310.472116 359.70635 
L 312.437613 359.473515 
L 314.40311 359.007844 
L 316.368606 358.386949 
L 318.334103 358.231725 
L 320.2996 357.843666 
L 326.19609 357.533219 
L 328.161587 357.222772 
L 330.127084 357.067548 
L 337.989071 356.989936 
L 341.920065 356.679489 
L 347.816555 356.601877 
L 351.747549 356.524265 
L 361.575033 356.446653 
L 365.506026 356.369041 
L 367.471523 356.369041 
L 369.43702 355.980982 
L 371.402517 355.980982 
L 373.368014 355.515311 
L 379.264504 355.127252 
L 383.195498 354.894416 
L 385.160994 354.661581 
L 387.126491 354.118298 
L 391.057485 354.040686 
L 393.022982 354.040686 
L 394.988478 353.885463 
L 396.953975 353.497403 
L 402.850466 353.419792 
L 404.815962 353.264568 
L 416.608943 353.186956 
L 420.539937 352.954121 
L 424.47093 352.876509 
L 428.401924 352.798897 
L 442.160402 352.721285 
L 446.091395 352.643673 
L 465.746363 352.643673 
L 467.71186 352.410838 
L 475.573847 352.178002 
L 477.539344 352.178002 
L 487.366828 351.479496 
L 489.332325 351.479496 
L 491.297822 351.24666 
L 493.263318 351.169048 
L 495.228815 350.703377 
L 497.194312 350.470542 
L 499.159809 350.082483 
L 503.090802 350.082483 
L 505.056299 349.306364 
L 507.021796 349.073529 
L 510.95279 348.840693 
L 512.918286 347.210845 
L 514.883783 347.055621 
L 518.814777 346.357114 
L 522.74577 344.804878 
L 526.676764 344.028759 
L 528.642261 343.795924 
L 530.607758 343.718312 
L 532.573254 342.942194 
L 534.538751 341.855628 
L 536.504248 341.312345 
L 538.469745 340.303391 
L 540.435242 339.061602 
L 544.366235 338.207872 
L 546.331732 337.664589 
L 548.297229 334.792951 
L 550.262726 333.163102 
L 552.228222 332.309372 
L 554.193719 331.300418 
L 556.159216 330.058629 
L 560.09021 329.515346 
L 562.055706 326.100425 
L 564.021203 323.77207 
L 565.9867 322.763116 
L 567.952197 320.279537 
L 569.917694 318.804912 
L 571.88319 318.184018 
L 573.848687 316.476557 
L 575.814184 312.984025 
L 577.779681 310.345222 
L 579.745178 308.094479 
L 581.710674 306.542242 
L 583.676171 305.300453 
L 585.641668 305.145229 
L 587.607165 302.506427 
L 589.572662 299.324341 
L 591.538158 297.539269 
L 593.503655 295.133302 
L 595.469152 292.960171 
L 597.434649 292.106441 
L 599.400146 291.407934 
L 601.365642 289.778085 
L 603.331139 286.596 
L 605.296636 284.422869 
L 607.262133 282.79302 
L 609.22763 280.542277 
L 611.193126 279.300488 
L 613.158623 279.067652 
L 615.12412 277.28258 
L 617.089617 273.324376 
L 619.055114 271.461692 
L 621.02061 268.900501 
L 622.986107 267.037817 
L 624.951604 265.951252 
L 626.917101 265.796028 
L 636.744585 253.766193 
L 638.710082 253.766193 
L 640.675578 251.205003 
L 642.641075 250.506496 
L 644.606572 248.178141 
L 646.572069 244.142326 
L 648.537566 241.193076 
L 650.503062 238.476661 
L 652.468559 233.121445 
L 654.434056 232.345326 
L 656.399553 230.482642 
L 658.36505 226.524439 
L 660.330546 221.634893 
L 662.296043 221.634893 
L 664.26154 218.918479 
L 666.227037 213.48565 
L 668.192534 212.321472 
L 670.15803 209.760282 
L 672.123527 208.751328 
L 674.089024 203.706559 
L 676.054521 203.706559 
L 678.020018 198.27373 
L 679.985514 193.927467 
L 681.951011 191.987171 
L 683.916508 190.66777 
L 685.882005 184.76927 
L 687.847502 179.879725 
L 689.812998 175.533462 
L 691.778495 170.721528 
L 693.743992 167.228995 
L 697.674986 164.667805 
L 699.640482 159.545424 
L 705.536973 146.894694 
L 707.50247 143.169326 
L 709.467966 141.617089 
L 711.433463 140.996195 
L 715.364457 134.011129 
L 717.329954 128.811136 
L 719.29545 126.715617 
L 721.260947 123.300696 
L 723.226444 121.515624 
L 725.191941 120.894729 
L 727.157438 117.091749 
L 729.122934 112.745486 
L 731.088431 110.494743 
L 733.053928 108.554447 
L 735.019425 105.915644 
L 736.984922 104.285796 
L 738.950418 103.742513 
L 740.915915 99.861921 
L 742.881412 97.145507 
L 742.881412 97.145507 
" style="fill:none;stroke:#d4351c;stroke-linecap:square;stroke-width:2;"/>
   </g>
   <g id="patch_3">
    <path d="M 74.6125 476.745 
L 744.2125 476.745 
" style="fill:none;stroke:#000000;stroke-linecap:square;stroke-linejoin:miter;stroke-width:0.8;"/>
   </g>
   <g id="text_22">
    <!-- Cumulative deaths within 4 weeks of a positive COVID-19 test by date reported, per capita -->
    <g transform="translate(144.090625 27.225)scale(0.12 -0.12)">
     <defs>
      <path d="M 70.484375 47.265625 
L 54.9375 47.265625 
Q 54.046875 53.265625 49.8125 56.6875 
Q 45.59375 60.125 39.28125 60.125 
Q 30.828125 60.125 25.734375 53.921875 
Q 20.640625 47.734375 20.640625 36.359375 
Q 20.640625 24.71875 25.765625 18.65625 
Q 30.890625 12.609375 39.171875 12.609375 
Q 45.3125 12.609375 49.578125 15.8125 
Q 53.84375 19.03125 54.9375 24.859375 
L 70.484375 24.78125 
Q 69.671875 18.109375 65.734375 12.21875 
Q 61.796875 6.328125 55.03125 2.65625 
Q 48.265625 -1 38.921875 -1 
Q 29.1875 -1 21.53125 3.40625 
Q 13.890625 7.8125 9.46875 16.15625 
Q 5.046875 24.5 5.046875 36.359375 
Q 5.046875 48.265625 9.515625 56.609375 
Q 14 64.953125 21.65625 69.328125 
Q 29.328125 73.71875 38.921875 73.71875 
Q 47.34375 73.71875 54.109375 70.609375 
Q 60.875 67.5 65.1875 61.59375 
Q 69.5 55.6875 70.484375 47.265625 
z
" id="Inter-Bold-67"/>
      <path d="M 41.015625 23.21875 
L 41.015625 54.546875 
L 56.140625 54.546875 
L 56.140625 0 
L 41.625 0 
L 41.625 9.90625 
L 41.046875 9.90625 
Q 39.203125 5.109375 34.921875 2.203125 
Q 30.640625 -0.703125 24.5 -0.703125 
Q 16.265625 -0.703125 11.171875 4.78125 
Q 6.078125 10.265625 6.03125 19.8125 
L 6.03125 54.546875 
L 21.171875 54.546875 
L 21.171875 22.515625 
Q 21.203125 17.6875 23.75 14.875 
Q 26.3125 12.078125 30.609375 12.078125 
Q 34.703125 12.078125 37.875 14.90625 
Q 41.046875 17.75 41.015625 23.21875 
z
" id="Inter-Bold-117"/>
      <path d="M 6.03125 0 
L 6.03125 54.546875 
L 20.453125 54.546875 
L 20.453125 44.921875 
L 21.09375 44.921875 
Q 22.796875 49.75 26.796875 52.5 
Q 30.796875 55.25 36.296875 55.25 
Q 41.90625 55.25 45.84375 52.46875 
Q 49.78125 49.6875 51.109375 44.921875 
L 51.671875 44.921875 
Q 53.34375 49.609375 57.71875 52.421875 
Q 62.109375 55.25 68.109375 55.25 
Q 75.75 55.25 80.515625 50.40625 
Q 85.296875 45.5625 85.296875 36.6875 
L 85.296875 0 
L 70.203125 0 
L 70.203125 33.703125 
Q 70.203125 38.25 67.78125 40.515625 
Q 65.375 42.796875 61.75 42.796875 
Q 57.640625 42.796875 55.328125 40.15625 
Q 53.015625 37.53125 53.015625 33.3125 
L 53.015625 0 
L 38.359375 0 
L 38.359375 34.015625 
Q 38.359375 38.03125 36.0625 40.40625 
Q 33.765625 42.796875 30.046875 42.796875 
Q 26.28125 42.796875 23.71875 40.03125 
Q 21.171875 37.28125 21.171875 32.734375 
L 21.171875 0 
z
" id="Inter-Bold-109"/>
      <path d="M 21.171875 72.734375 
L 21.171875 0 
L 6.03125 0 
L 6.03125 72.734375 
z
" id="Inter-Bold-108"/>
      <path d="M 21.59375 -1.03125 
Q 13.78125 -1.03125 8.625 3.046875 
Q 3.484375 7.140625 3.484375 15.234375 
Q 3.484375 21.34375 6.359375 24.8125 
Q 9.234375 28.296875 13.90625 29.90625 
Q 18.578125 31.53125 23.96875 32.03125 
Q 31.078125 32.734375 34.125 33.515625 
Q 37.1875 34.296875 37.1875 36.9375 
L 37.1875 37.140625 
Q 37.1875 40.515625 35.0625 42.359375 
Q 32.953125 44.21875 29.078125 44.21875 
Q 25 44.21875 22.578125 42.4375 
Q 20.171875 40.65625 19.390625 37.921875 
L 5.40625 39.0625 
Q 6.96875 46.515625 13.15625 50.875 
Q 19.359375 55.25 29.15625 55.25 
Q 35.234375 55.25 40.515625 53.328125 
Q 45.8125 51.421875 49.0625 47.34375 
Q 52.3125 43.28125 52.3125 36.796875 
L 52.3125 0 
L 37.96875 0 
L 37.96875 7.5625 
L 37.53125 7.5625 
Q 35.546875 3.765625 31.578125 1.359375 
Q 27.625 -1.03125 21.59375 -1.03125 
z
M 25.921875 9.40625 
Q 30.890625 9.40625 34.078125 12.296875 
Q 37.28125 15.203125 37.28125 19.5 
L 37.28125 25.28125 
Q 36.40625 24.6875 34.53125 24.21875 
Q 32.671875 23.75 30.5625 23.40625 
Q 28.453125 23.078125 26.78125 22.828125 
Q 22.796875 22.265625 20.359375 20.59375 
Q 17.9375 18.921875 17.9375 15.734375 
Q 17.9375 12.609375 20.1875 11 
Q 22.4375 9.40625 25.921875 9.40625 
z
" id="Inter-Bold-97"/>
      <path d="M 35.046875 54.546875 
L 35.046875 43.1875 
L 24.78125 43.1875 
L 24.78125 16.765625 
Q 24.78125 13.640625 26.203125 12.53125 
Q 27.625 11.4375 29.90625 11.4375 
Q 30.96875 11.4375 32.03125 11.625 
Q 33.09375 11.828125 33.671875 11.9375 
L 36.046875 0.671875 
Q 34.90625 0.3125 32.84375 -0.15625 
Q 30.796875 -0.640625 27.84375 -0.75 
Q 19.609375 -1.09375 14.609375 2.828125 
Q 9.625 6.75 9.65625 14.765625 
L 9.65625 43.1875 
L 2.203125 43.1875 
L 2.203125 54.546875 
L 9.65625 54.546875 
L 9.65625 67.609375 
L 24.78125 67.609375 
L 24.78125 54.546875 
z
" id="Inter-Bold-116"/>
      <path d="M 6.03125 0 
L 6.03125 54.546875 
L 21.171875 54.546875 
L 21.171875 0 
z
M 13.6875 61.578125 
Q 10.34375 61.578125 7.921875 63.828125 
Q 5.515625 66.09375 5.515625 69.25 
Q 5.515625 72.40625 7.921875 74.640625 
Q 10.34375 76.875 13.6875 76.875 
Q 17.0625 76.875 19.46875 74.640625 
Q 21.890625 72.40625 21.890625 69.25 
Q 21.890625 66.09375 19.46875 63.828125 
Q 17.0625 61.578125 13.6875 61.578125 
z
" id="Inter-Bold-105"/>
      <path d="M 56.890625 54.546875 
L 37.828125 0 
L 20.78125 0 
L 1.703125 54.546875 
L 17.6875 54.546875 
L 29.015625 15.515625 
L 29.578125 15.515625 
L 40.875 54.546875 
z
" id="Inter-Bold-118"/>
      <path d="M 30.890625 -1.0625 
Q 22.515625 -1.0625 16.4375 2.359375 
Q 10.375 5.78125 7.109375 12.078125 
Q 3.84375 18.390625 3.84375 27.03125 
Q 3.84375 35.4375 7.109375 41.796875 
Q 10.375 48.15625 16.3125 51.703125 
Q 22.265625 55.25 30.296875 55.25 
Q 37.5 55.25 43.296875 52.1875 
Q 49.109375 49.140625 52.515625 42.984375 
Q 55.9375 36.828125 55.9375 27.5625 
L 55.9375 23.40625 
L 18.78125 23.40625 
L 18.78125 23.359375 
Q 18.78125 17.265625 22.125 13.75 
Q 25.46875 10.234375 31.140625 10.234375 
Q 34.9375 10.234375 37.703125 11.828125 
Q 40.484375 13.421875 41.625 16.546875 
L 55.609375 15.625 
Q 54.015625 8.03125 47.515625 3.484375 
Q 41.015625 -1.0625 30.890625 -1.0625 
z
M 18.78125 32.78125 
L 41.6875 32.78125 
Q 41.65625 37.640625 38.5625 40.796875 
Q 35.484375 43.96875 30.546875 43.96875 
Q 25.5 43.96875 22.265625 40.6875 
Q 19.03125 37.421875 18.78125 32.78125 
z
" id="Inter-Bold-101"/>
      <path id="Inter-Bold-32"/>
      <path d="M 26.140625 -0.890625 
Q 19.921875 -0.890625 14.90625 2.328125 
Q 9.90625 5.546875 6.953125 11.8125 
Q 4.015625 18.078125 4.015625 27.203125 
Q 4.015625 36.578125 7.046875 42.8125 
Q 10.09375 49.046875 15.109375 52.140625 
Q 20.140625 55.25 26.109375 55.25 
Q 30.6875 55.25 33.75 53.703125 
Q 36.828125 52.171875 38.71875 49.890625 
Q 40.625 47.625 41.625 45.390625 
L 42.078125 45.390625 
L 42.078125 72.734375 
L 57.171875 72.734375 
L 57.171875 0 
L 42.265625 0 
L 42.265625 8.734375 
L 41.625 8.734375 
Q 40.59375 6.46875 38.640625 4.25 
Q 36.6875 2.03125 33.609375 0.5625 
Q 30.546875 -0.890625 26.140625 -0.890625 
z
M 30.9375 11.15625 
Q 36.40625 11.15625 39.40625 15.578125 
Q 42.40625 20 42.40625 27.265625 
Q 42.40625 34.59375 39.421875 38.90625 
Q 36.4375 43.21875 30.9375 43.21875 
Q 25.328125 43.21875 22.390625 38.796875 
Q 19.46875 34.375 19.46875 27.265625 
Q 19.46875 20.140625 22.40625 15.640625 
Q 25.359375 11.15625 30.9375 11.15625 
z
" id="Inter-Bold-100"/>
      <path d="M 21.171875 31.53125 
L 21.171875 0 
L 6.03125 0 
L 6.03125 72.734375 
L 20.734375 72.734375 
L 20.734375 44.921875 
L 21.375 44.921875 
Q 23.265625 49.75 27.359375 52.5 
Q 31.46875 55.25 37.671875 55.25 
Q 46.203125 55.25 51.390625 49.78125 
Q 56.578125 44.3125 56.53125 34.734375 
L 56.53125 0 
L 41.40625 0 
L 41.40625 32.03125 
Q 41.4375 37.078125 38.859375 39.875 
Q 36.296875 42.6875 31.671875 42.6875 
Q 27.0625 42.6875 24.125 39.75 
Q 21.203125 36.828125 21.171875 31.53125 
z
" id="Inter-Bold-104"/>
      <path d="M 51.421875 38.984375 
L 37.578125 38.140625 
Q 37 40.765625 34.6875 42.640625 
Q 32.390625 44.53125 28.453125 44.53125 
Q 24.9375 44.53125 22.5 43.046875 
Q 20.0625 41.578125 20.09375 39.140625 
Q 20.0625 37.1875 21.640625 35.828125 
Q 23.21875 34.484375 27.03125 33.671875 
L 36.890625 31.671875 
Q 52.625 28.4375 52.671875 16.90625 
Q 52.671875 11.546875 49.515625 7.484375 
Q 46.375 3.4375 40.90625 1.1875 
Q 35.4375 -1.0625 28.375 -1.0625 
Q 17.546875 -1.0625 11.109375 3.453125 
Q 4.6875 7.984375 3.625 15.796875 
L 18.5 16.578125 
Q 19.21875 13.25 21.78125 11.546875 
Q 24.359375 9.84375 28.40625 9.84375 
Q 32.390625 9.84375 34.8125 11.40625 
Q 37.25 12.96875 37.28125 15.375 
Q 37.1875 19.421875 30.296875 20.8125 
L 20.84375 22.6875 
Q 5.015625 25.859375 5.078125 38.28125 
Q 5.046875 46.171875 11.375 50.703125 
Q 17.71875 55.25 28.203125 55.25 
Q 38.53125 55.25 44.46875 50.875 
Q 50.421875 46.515625 51.421875 38.984375 
z
" id="Inter-Bold-115"/>
      <path d="M 16.796875 0 
L 1.953125 54.546875 
L 17.265625 54.546875 
L 25.71875 17.890625 
L 26.203125 17.890625 
L 35.015625 54.546875 
L 50.03125 54.546875 
L 58.984375 18.109375 
L 59.453125 18.109375 
L 67.75 54.546875 
L 83.03125 54.546875 
L 68.21875 0 
L 52.203125 0 
L 42.828125 34.296875 
L 42.15625 34.296875 
L 32.78125 0 
z
" id="Inter-Bold-119"/>
      <path d="M 21.171875 31.53125 
L 21.171875 0 
L 6.03125 0 
L 6.03125 54.546875 
L 20.453125 54.546875 
L 20.453125 44.921875 
L 21.09375 44.921875 
Q 22.9375 49.6875 27.171875 52.46875 
Q 31.421875 55.25 37.5 55.25 
Q 46.03125 55.25 51.171875 49.765625 
Q 56.328125 44.28125 56.328125 34.734375 
L 56.328125 0 
L 41.1875 0 
L 41.1875 32.03125 
Q 41.234375 37.03125 38.640625 39.859375 
Q 36.046875 42.6875 31.5 42.6875 
Q 26.921875 42.6875 24.0625 39.75 
Q 21.203125 36.828125 21.171875 31.53125 
z
" id="Inter-Bold-110"/>
      <path d="M 4.796875 12.78125 
L 4.796875 24.890625 
L 35.15625 72.734375 
L 54.40625 72.734375 
L 54.40625 25.109375 
L 63.421875 25.109375 
L 63.421875 12.78125 
L 54.40625 12.78125 
L 54.40625 0 
L 39.703125 0 
L 39.703125 12.78125 
z
M 39.984375 25.109375 
L 39.984375 55.96875 
L 39.421875 55.96875 
L 20.28125 25.671875 
L 20.28125 25.109375 
z
" id="Inter-Bold-52"/>
      <path d="M 6.03125 0 
L 6.03125 72.734375 
L 21.171875 72.734375 
L 21.171875 33.84375 
L 21.984375 33.84375 
L 39.453125 54.546875 
L 56.8125 54.546875 
L 36.578125 30.9375 
L 57.84375 0 
L 40.125 0 
L 25.25 21.984375 
L 21.171875 17.328125 
L 21.171875 0 
z
" id="Inter-Bold-107"/>
      <path d="M 30.6875 -1.0625 
Q 22.40625 -1.0625 16.390625 2.46875 
Q 10.375 6 7.109375 12.328125 
Q 3.84375 18.671875 3.84375 27.0625 
Q 3.84375 35.515625 7.109375 41.84375 
Q 10.375 48.1875 16.390625 51.71875 
Q 22.40625 55.25 30.6875 55.25 
Q 38.953125 55.25 44.96875 51.71875 
Q 51 48.1875 54.265625 41.84375 
Q 57.53125 35.515625 57.53125 27.0625 
Q 57.53125 18.671875 54.265625 12.328125 
Q 51 6 44.96875 2.46875 
Q 38.953125 -1.0625 30.6875 -1.0625 
z
M 30.75 10.65625 
Q 36.359375 10.65625 39.25 15.34375 
Q 42.15625 20.03125 42.15625 27.171875 
Q 42.15625 34.296875 39.25 39 
Q 36.359375 43.71875 30.75 43.71875 
Q 25.03125 43.71875 22.125 39 
Q 19.21875 34.296875 19.21875 27.171875 
Q 19.21875 20.03125 22.125 15.34375 
Q 25.03125 10.65625 30.75 10.65625 
z
" id="Inter-Bold-111"/>
      <path d="M 35.875 54.546875 
L 35.875 43.1875 
L 25.03125 43.1875 
L 25.03125 0 
L 9.90625 0 
L 9.90625 43.1875 
L 2.203125 43.1875 
L 2.203125 54.546875 
L 9.90625 54.546875 
L 9.90625 58.484375 
Q 9.90625 67.40625 15 71.765625 
Q 20.09375 76.140625 27.8125 76.140625 
Q 31.28125 76.140625 34.171875 75.609375 
Q 37.078125 75.078125 38.5 74.640625 
L 35.828125 63.28125 
Q 34.9375 63.5625 33.625 63.8125 
Q 32.3125 64.0625 30.96875 64.0625 
Q 27.625 64.0625 26.328125 62.515625 
Q 25.03125 60.96875 25.03125 58.203125 
L 25.03125 54.546875 
z
" id="Inter-Bold-102"/>
      <path d="M 6.03125 -20.453125 
L 6.03125 54.546875 
L 20.953125 54.546875 
L 20.953125 45.390625 
L 21.625 45.390625 
Q 22.65625 47.625 24.53125 49.890625 
Q 26.421875 52.171875 29.5 53.703125 
Q 32.59375 55.25 37.140625 55.25 
Q 43.140625 55.25 48.140625 52.140625 
Q 53.15625 49.046875 56.1875 42.8125 
Q 59.234375 36.578125 59.234375 27.203125 
Q 59.234375 18.078125 56.28125 11.8125 
Q 53.34375 5.546875 48.328125 2.328125 
Q 43.328125 -0.890625 37.109375 -0.890625 
Q 32.703125 -0.890625 29.625 0.5625 
Q 26.5625 2.03125 24.625 4.25 
Q 22.6875 6.46875 21.625 8.734375 
L 21.171875 8.734375 
L 21.171875 -20.453125 
z
M 20.84375 27.265625 
Q 20.84375 20 23.84375 15.578125 
Q 26.84375 11.15625 32.3125 11.15625 
Q 37.890625 11.15625 40.828125 15.640625 
Q 43.78125 20.140625 43.78125 27.265625 
Q 43.78125 34.375 40.84375 38.796875 
Q 37.921875 43.21875 32.3125 43.21875 
Q 26.8125 43.21875 23.828125 38.90625 
Q 20.84375 34.59375 20.84375 27.265625 
z
" id="Inter-Bold-112"/>
      <path d="M 73.15625 36.359375 
Q 73.15625 24.46875 68.65625 16.125 
Q 64.171875 7.78125 56.46875 3.390625 
Q 48.765625 -1 39.09375 -1 
Q 29.40625 -1 21.703125 3.40625 
Q 14 7.8125 9.515625 16.171875 
Q 5.046875 24.53125 5.046875 36.359375 
Q 5.046875 48.265625 9.515625 56.609375 
Q 14 64.953125 21.703125 69.328125 
Q 29.40625 73.71875 39.09375 73.71875 
Q 48.765625 73.71875 56.46875 69.328125 
Q 64.171875 64.953125 68.65625 56.609375 
Q 73.15625 48.265625 73.15625 36.359375 
z
M 57.5625 36.359375 
Q 57.5625 47.9375 52.515625 54.03125 
Q 47.484375 60.125 39.09375 60.125 
Q 30.71875 60.125 25.671875 54.03125 
Q 20.640625 47.9375 20.640625 36.359375 
Q 20.640625 24.828125 25.671875 18.71875 
Q 30.71875 12.609375 39.09375 12.609375 
Q 47.484375 12.609375 52.515625 18.71875 
Q 57.5625 24.828125 57.5625 36.359375 
z
" id="Inter-Bold-79"/>
      <path d="M 19.46875 72.734375 
L 37.046875 17.46875 
L 37.71875 17.46875 
L 55.328125 72.734375 
L 72.375 72.734375 
L 47.296875 0 
L 27.484375 0 
L 2.375 72.734375 
z
" id="Inter-Bold-86"/>
      <path d="M 21.703125 72.734375 
L 21.703125 0 
L 6.328125 0 
L 6.328125 72.734375 
z
" id="Inter-Bold-73"/>
      <path d="M 32.109375 0 
L 6.328125 0 
L 6.328125 72.734375 
L 32.3125 72.734375 
Q 43.296875 72.734375 51.21875 68.375 
Q 59.15625 64.03125 63.421875 55.890625 
Q 67.6875 47.765625 67.6875 36.4375 
Q 67.6875 25.078125 63.40625 16.90625 
Q 59.125 8.734375 51.15625 4.359375 
Q 43.1875 0 32.109375 0 
z
M 21.703125 13.171875 
L 31.46875 13.171875 
Q 41.734375 13.171875 47.03125 18.703125 
Q 52.34375 24.25 52.34375 36.4375 
Q 52.34375 48.546875 47.03125 54.046875 
Q 41.734375 59.546875 31.5 59.546875 
L 21.703125 59.546875 
z
" id="Inter-Bold-68"/>
      <path d="M 40.015625 35.859375 
L 40.015625 23.859375 
L 6.859375 23.859375 
L 6.859375 35.859375 
z
" id="Inter-Bold-45"/>
      <path d="M 36.015625 72.734375 
L 36.015625 0 
L 20.671875 0 
L 20.671875 53.90625 
L 20 53.90625 
Q 18.828125 52.09375 15.015625 50.296875 
Q 11.21875 48.515625 5.1875 48.515625 
L 5.1875 60.71875 
Q 9.875 60.71875 13.390625 62.796875 
Q 16.90625 64.875 18.890625 67.703125 
Q 20.875 70.53125 20.953125 72.734375 
z
" id="Inter-Bold-49"/>
      <path d="M 32.203125 73.9375 
Q 37.828125 73.9375 43.015625 72.0625 
Q 48.21875 70.203125 52.3125 66.046875 
Q 56.421875 61.890625 58.84375 55.046875 
Q 61.265625 48.21875 61.265625 38.25 
Q 61.265625 25.921875 57.59375 17.125 
Q 53.9375 8.34375 47.3125 3.671875 
Q 40.703125 -1 31.671875 -1 
Q 24.390625 -1 18.8125 1.828125 
Q 13.25 4.65625 9.859375 9.53125 
Q 6.46875 14.421875 5.75 20.53125 
L 20.921875 20.53125 
Q 21.8125 16.546875 24.640625 14.359375 
Q 27.484375 12.1875 31.671875 12.1875 
Q 38.78125 12.1875 42.46875 18.375 
Q 46.171875 24.578125 46.203125 35.375 
L 45.703125 35.375 
Q 43.296875 30.578125 38.328125 27.84375 
Q 33.375 25.109375 27.375 25.109375 
Q 20.953125 25.109375 15.875 28.140625 
Q 10.796875 31.171875 7.90625 36.46875 
Q 5.015625 41.765625 5.046875 48.578125 
Q 5.015625 55.96875 8.421875 61.703125 
Q 11.828125 67.4375 17.953125 70.703125 
Q 24.078125 73.96875 32.203125 73.9375 
z
M 32.3125 61.859375 
Q 26.953125 61.859375 23.4375 58.15625 
Q 19.921875 54.46875 19.953125 49 
Q 19.921875 43.609375 23.375 39.921875 
Q 26.84375 36.25 32.171875 36.25 
Q 35.6875 36.25 38.515625 37.984375 
Q 41.34375 39.734375 42.984375 42.640625 
Q 44.640625 45.5625 44.671875 49.078125 
Q 44.640625 52.59375 43.015625 55.484375 
Q 41.40625 58.375 38.640625 60.109375 
Q 35.875 61.859375 32.3125 61.859375 
z
" id="Inter-Bold-57"/>
      <path d="M 6.328125 0 
L 6.328125 72.734375 
L 21.453125 72.734375 
L 21.453125 45.390625 
L 21.90625 45.390625 
Q 22.9375 47.625 24.8125 49.890625 
Q 26.703125 52.171875 29.796875 53.703125 
Q 32.890625 55.25 37.4375 55.25 
Q 43.4375 55.25 48.4375 52.140625 
Q 53.453125 49.046875 56.484375 42.8125 
Q 59.515625 36.578125 59.515625 27.203125 
Q 59.515625 18.078125 56.5625 11.8125 
Q 53.625 5.546875 48.609375 2.328125 
Q 43.609375 -0.890625 37.390625 -0.890625 
Q 32.984375 -0.890625 29.90625 0.5625 
Q 26.84375 2.03125 24.90625 4.25 
Q 22.984375 6.46875 21.90625 8.734375 
L 21.234375 8.734375 
L 21.234375 0 
z
M 21.125 27.265625 
Q 21.125 20 24.125 15.578125 
Q 27.125 11.15625 32.59375 11.15625 
Q 38.171875 11.15625 41.125 15.640625 
Q 44.078125 20.140625 44.078125 27.265625 
Q 44.078125 34.375 41.140625 38.796875 
Q 38.21875 43.21875 32.59375 43.21875 
Q 27.09375 43.21875 24.109375 38.90625 
Q 21.125 34.59375 21.125 27.265625 
z
" id="Inter-Bold-98"/>
      <path d="M 14.84375 -21.234375 
Q 11.609375 -21.234375 9.3125 -20.6875 
Q 7.03125 -20.140625 5.75 -19.5625 
L 9.15625 -7.84375 
Q 13.171875 -9.0625 15.921875 -8.484375 
Q 18.6875 -7.921875 20.28125 -4.1875 
L 21.265625 -1.5625 
L 1.703125 54.546875 
L 17.609375 54.546875 
L 28.90625 14.484375 
L 29.46875 14.484375 
L 40.875 54.546875 
L 56.890625 54.546875 
L 35.578125 -6.25 
Q 33.28125 -12.78125 28.21875 -17 
Q 23.15625 -21.234375 14.84375 -21.234375 
z
" id="Inter-Bold-121"/>
      <path d="M 6.03125 0 
L 6.03125 54.546875 
L 20.703125 54.546875 
L 20.703125 45.03125 
L 21.265625 45.03125 
Q 22.765625 50.109375 26.265625 52.71875 
Q 29.765625 55.328125 34.375 55.328125 
Q 36.578125 55.328125 38.453125 54.796875 
Q 40.34375 54.265625 41.828125 53.34375 
L 37.28125 40.84375 
Q 36.21875 41.375 34.953125 41.734375 
Q 33.703125 42.109375 32.140625 42.109375 
Q 27.5625 42.109375 24.375 38.984375 
Q 21.203125 35.859375 21.171875 30.859375 
L 21.171875 0 
z
" id="Inter-Bold-114"/>
      <path d="M 22.484375 9.9375 
L 22.09375 6.03125 
Q 21.625 1.34375 20.328125 -3.3125 
Q 19.03125 -7.984375 17.625 -11.78125 
Q 16.234375 -15.59375 15.375 -17.75 
L 5.578125 -17.75 
Q 6.109375 -15.65625 7.03125 -11.921875 
Q 7.953125 -8.203125 8.765625 -3.53125 
Q 9.59375 1.140625 9.796875 5.96875 
L 9.984375 9.9375 
z
" id="Inter-Bold-44"/>
      <path d="M 30.6875 -1.0625 
Q 22.296875 -1.0625 16.28125 2.5 
Q 10.265625 6.078125 7.046875 12.421875 
Q 3.84375 18.78125 3.84375 27.0625 
Q 3.84375 35.4375 7.078125 41.78125 
Q 10.328125 48.125 16.328125 51.6875 
Q 22.34375 55.25 30.609375 55.25 
Q 37.75 55.25 43.125 52.65625 
Q 48.515625 50.078125 51.609375 45.390625 
Q 54.71875 40.703125 55.046875 34.375 
L 40.765625 34.375 
Q 40.171875 38.453125 37.59375 40.953125 
Q 35.015625 43.46875 30.859375 43.46875 
Q 25.609375 43.46875 22.40625 39.234375 
Q 19.21875 35.015625 19.21875 27.265625 
Q 19.21875 19.453125 22.390625 15.171875 
Q 25.5625 10.90625 30.859375 10.90625 
Q 34.765625 10.90625 37.421875 13.265625 
Q 40.09375 15.625 40.765625 20 
L 55.046875 20 
Q 54.6875 13.75 51.640625 8.984375 
Q 48.609375 4.21875 43.28125 1.578125 
Q 37.96875 -1.0625 30.6875 -1.0625 
z
" id="Inter-Bold-99"/>
     </defs>
     <use xlink:href="#Inter-Bold-67"/>
     <use x="75.213089" xlink:href="#Inter-Bold-117"/>
     <use x="137.393494" xlink:href="#Inter-Bold-109"/>
     <use x="228.5867" xlink:href="#Inter-Bold-117"/>
     <use x="290.767105" xlink:href="#Inter-Bold-108"/>
     <use x="317.968811" xlink:href="#Inter-Bold-97"/>
     <use x="375.994385" xlink:href="#Inter-Bold-116"/>
     <use x="414.843826" xlink:href="#Inter-Bold-105"/>
     <use x="442.045532" xlink:href="#Inter-Bold-118"/>
     <use x="500.639297" xlink:href="#Inter-Bold-101"/>
     <use x="560.404938" xlink:href="#Inter-Bold-32"/>
     <use x="583.593857" xlink:href="#Inter-Bold-100"/>
     <use x="647.123703" xlink:href="#Inter-Bold-101"/>
     <use x="706.889343" xlink:href="#Inter-Bold-97"/>
     <use x="764.914917" xlink:href="#Inter-Bold-116"/>
     <use x="803.764359" xlink:href="#Inter-Bold-104"/>
     <use x="866.193344" xlink:href="#Inter-Bold-115"/>
     <use x="922.37233" xlink:href="#Inter-Bold-32"/>
     <use x="945.561249" xlink:href="#Inter-Bold-119"/>
     <use x="1030.57547" xlink:href="#Inter-Bold-105"/>
     <use x="1057.777176" xlink:href="#Inter-Bold-116"/>
     <use x="1096.626617" xlink:href="#Inter-Bold-104"/>
     <use x="1159.055603" xlink:href="#Inter-Bold-105"/>
     <use x="1186.257309" xlink:href="#Inter-Bold-110"/>
     <use x="1248.437714" xlink:href="#Inter-Bold-32"/>
     <use x="1271.626633" xlink:href="#Inter-Bold-52"/>
     <use x="1339.417847" xlink:href="#Inter-Bold-32"/>
     <use x="1362.606766" xlink:href="#Inter-Bold-119"/>
     <use x="1447.620987" xlink:href="#Inter-Bold-101"/>
     <use x="1507.386627" xlink:href="#Inter-Bold-101"/>
     <use x="1567.152267" xlink:href="#Inter-Bold-107"/>
     <use x="1625.319885" xlink:href="#Inter-Bold-115"/>
     <use x="1681.498871" xlink:href="#Inter-Bold-32"/>
     <use x="1704.68779" xlink:href="#Inter-Bold-111"/>
     <use x="1766.051437" xlink:href="#Inter-Bold-102"/>
     <use x="1805.113937" xlink:href="#Inter-Bold-32"/>
     <use x="1828.302856" xlink:href="#Inter-Bold-97"/>
     <use x="1886.32843" xlink:href="#Inter-Bold-32"/>
     <use x="1909.517349" xlink:href="#Inter-Bold-112"/>
     <use x="1972.763107" xlink:href="#Inter-Bold-111"/>
     <use x="2034.126755" xlink:href="#Inter-Bold-115"/>
     <use x="2090.30574" xlink:href="#Inter-Bold-105"/>
     <use x="2117.507446" xlink:href="#Inter-Bold-116"/>
     <use x="2156.356888" xlink:href="#Inter-Bold-105"/>
     <use x="2183.558594" xlink:href="#Inter-Bold-118"/>
     <use x="2242.152359" xlink:href="#Inter-Bold-101"/>
     <use x="2301.917999" xlink:href="#Inter-Bold-32"/>
     <use x="2325.106918" xlink:href="#Inter-Bold-67"/>
     <use x="2400.320007" xlink:href="#Inter-Bold-79"/>
     <use x="2478.516052" xlink:href="#Inter-Bold-86"/>
     <use x="2553.302994" xlink:href="#Inter-Bold-73"/>
     <use x="2581.356979" xlink:href="#Inter-Bold-68"/>
     <use x="2654.084274" xlink:href="#Inter-Bold-45"/>
     <use x="2700.95929" xlink:href="#Inter-Bold-49"/>
     <use x="2748.366974" xlink:href="#Inter-Bold-57"/>
     <use x="2814.382614" xlink:href="#Inter-Bold-32"/>
     <use x="2837.571533" xlink:href="#Inter-Bold-116"/>
     <use x="2876.420975" xlink:href="#Inter-Bold-101"/>
     <use x="2936.186615" xlink:href="#Inter-Bold-115"/>
     <use x="2992.365601" xlink:href="#Inter-Bold-116"/>
     <use x="3031.215042" xlink:href="#Inter-Bold-32"/>
     <use x="3054.403961" xlink:href="#Inter-Bold-98"/>
     <use x="3117.933807" xlink:href="#Inter-Bold-121"/>
     <use x="3176.527573" xlink:href="#Inter-Bold-32"/>
     <use x="3199.716492" xlink:href="#Inter-Bold-100"/>
     <use x="3263.246338" xlink:href="#Inter-Bold-97"/>
     <use x="3321.271912" xlink:href="#Inter-Bold-116"/>
     <use x="3360.121353" xlink:href="#Inter-Bold-101"/>
     <use x="3419.886993" xlink:href="#Inter-Bold-32"/>
     <use x="3443.075912" xlink:href="#Inter-Bold-114"/>
     <use x="3485.938141" xlink:href="#Inter-Bold-101"/>
     <use x="3545.703781" xlink:href="#Inter-Bold-112"/>
     <use x="3608.949539" xlink:href="#Inter-Bold-111"/>
     <use x="3670.313187" xlink:href="#Inter-Bold-114"/>
     <use x="3713.175415" xlink:href="#Inter-Bold-116"/>
     <use x="3752.024857" xlink:href="#Inter-Bold-101"/>
     <use x="3811.790497" xlink:href="#Inter-Bold-100"/>
     <use x="3875.320343" xlink:href="#Inter-Bold-44"/>
     <use x="3905.611542" xlink:href="#Inter-Bold-32"/>
     <use x="3928.800461" xlink:href="#Inter-Bold-112"/>
     <use x="3992.046219" xlink:href="#Inter-Bold-101"/>
     <use x="4051.811859" xlink:href="#Inter-Bold-114"/>
     <use x="4094.674088" xlink:href="#Inter-Bold-32"/>
     <use x="4117.863007" xlink:href="#Inter-Bold-99"/>
     <use x="4176.598816" xlink:href="#Inter-Bold-97"/>
     <use x="4234.62439" xlink:href="#Inter-Bold-112"/>
     <use x="4297.870148" xlink:href="#Inter-Bold-105"/>
     <use x="4325.071854" xlink:href="#Inter-Bold-116"/>
     <use x="4363.921295" xlink:href="#Inter-Bold-97"/>
    </g>
   </g>
   <g id="legend_1">
    <g id="patch_4">
     <path d="M 81.6125 98.614063 
L 191.185938 98.614063 
Q 193.185938 98.614063 193.185938 96.614063 
L 193.185938 40.225 
Q 193.185938 38.225 191.185938 38.225 
L 81.6125 38.225 
Q 79.6125 38.225 79.6125 40.225 
L 79.6125 96.614063 
Q 79.6125 98.614063 81.6125 98.614063 
z
" style="fill:#ffffff;opacity:0.8;stroke:#cccccc;stroke-linejoin:miter;"/>
    </g>
    <g id="line2d_33">
     <path d="M 83.6125 45.998438 
L 103.6125 45.998438 
" style="fill:none;stroke:#d4351c;stroke-linecap:square;stroke-width:2;"/>
    </g>
    <g id="line2d_34"/>
    <g id="text_23">
     <!-- Wales -->
     <g transform="translate(111.6125 49.498438)scale(0.1 -0.1)">
      <defs>
       <path d="M 22.015625 0 
L 2.125 72.734375 
L 11.078125 72.734375 
L 26.28125 13.5 
L 26.984375 13.5 
L 42.46875 72.734375 
L 52.421875 72.734375 
L 67.90625 13.5 
L 68.609375 13.5 
L 83.8125 72.734375 
L 92.75 72.734375 
L 72.875 0 
L 63.78125 0 
L 47.734375 57.953125 
L 47.15625 57.953125 
L 31.109375 0 
z
" id="Inter-Regular-87"/>
      </defs>
      <use xlink:href="#Inter-Regular-87"/>
      <use x="94.886383" xlink:href="#Inter-Regular-97"/>
      <use x="151.278442" xlink:href="#Inter-Regular-108"/>
      <use x="175.000031" xlink:href="#Inter-Regular-101"/>
      <use x="233.238678" xlink:href="#Inter-Regular-115"/>
     </g>
    </g>
    <g id="line2d_35">
     <path d="M 83.6125 60.317188 
L 103.6125 60.317188 
" style="fill:none;stroke:#003078;stroke-linecap:square;stroke-width:2;"/>
    </g>
    <g id="line2d_36"/>
    <g id="text_24">
     <!-- Scotland -->
     <g transform="translate(111.6125 63.817188)scale(0.1 -0.1)">
      <use xlink:href="#Inter-Regular-83"/>
      <use x="63.778427" xlink:href="#Inter-Regular-99"/>
      <use x="119.602295" xlink:href="#Inter-Regular-111"/>
      <use x="179.261398" xlink:href="#Inter-Regular-116"/>
      <use x="215.625046" xlink:href="#Inter-Regular-108"/>
      <use x="239.346634" xlink:href="#Inter-Regular-97"/>
      <use x="295.738693" xlink:href="#Inter-Regular-110"/>
      <use x="354.261429" xlink:href="#Inter-Regular-100"/>
     </g>
    </g>
    <g id="line2d_37">
     <path d="M 83.6125 74.635938 
L 103.6125 74.635938 
" style="fill:none;stroke:#ffdd00;stroke-linecap:square;stroke-width:2;"/>
    </g>
    <g id="line2d_38"/>
    <g id="text_25">
     <!-- Northern Ireland -->
     <g transform="translate(111.6125 78.135938)scale(0.1 -0.1)">
      <defs>
       <path d="M 17.609375 72.734375 
L 17.609375 0 
L 8.8125 0 
L 8.8125 72.734375 
z
" id="Inter-Regular-73"/>
      </defs>
      <use xlink:href="#Inter-Regular-78"/>
      <use x="75.284103" xlink:href="#Inter-Regular-111"/>
      <use x="134.943207" xlink:href="#Inter-Regular-114"/>
      <use x="173.295486" xlink:href="#Inter-Regular-116"/>
      <use x="209.659134" xlink:href="#Inter-Regular-104"/>
      <use x="268.750061" xlink:href="#Inter-Regular-101"/>
      <use x="326.988708" xlink:href="#Inter-Regular-114"/>
      <use x="365.340988" xlink:href="#Inter-Regular-110"/>
      <use x="423.863724" xlink:href="#Inter-Regular-32"/>
      <use x="451.988724" xlink:href="#Inter-Regular-73"/>
      <use x="478.40918" xlink:href="#Inter-Regular-114"/>
      <use x="516.761459" xlink:href="#Inter-Regular-101"/>
      <use x="575.000107" xlink:href="#Inter-Regular-108"/>
      <use x="598.721695" xlink:href="#Inter-Regular-97"/>
      <use x="655.113754" xlink:href="#Inter-Regular-110"/>
      <use x="713.63649" xlink:href="#Inter-Regular-100"/>
     </g>
    </g>
    <g id="line2d_39">
     <path d="M 83.6125 88.954688 
L 103.6125 88.954688 
" style="fill:none;stroke:#5694ca;stroke-linecap:square;stroke-width:2;"/>
    </g>
    <g id="line2d_40"/>
    <g id="text_26">
     <!-- England -->
     <g transform="translate(111.6125 92.454688)scale(0.1 -0.1)">
      <defs>
       <path d="M 8.8125 0 
L 8.8125 72.734375 
L 52.703125 72.734375 
L 52.703125 64.921875 
L 17.609375 64.921875 
L 17.609375 40.34375 
L 50.421875 40.34375 
L 50.421875 32.53125 
L 17.609375 32.53125 
L 17.609375 7.8125 
L 53.265625 7.8125 
L 53.265625 0 
z
" id="Inter-Regular-69"/>
      </defs>
      <use xlink:href="#Inter-Regular-69"/>
      <use x="59.801147" xlink:href="#Inter-Regular-110"/>
      <use x="118.323883" xlink:href="#Inter-Regular-103"/>
      <use x="179.261398" xlink:href="#Inter-Regular-108"/>
      <use x="202.982986" xlink:href="#Inter-Regular-97"/>
      <use x="259.375046" xlink:href="#Inter-Regular-110"/>
      <use x="317.897781" xlink:href="#Inter-Regular-100"/>
     </g>
    </g>
   </g>
  </g>
 </g>
 <defs>
  <clipPath id="p8ed3e965b6">
   <rect height="443.52" width="669.6" x="74.6125" y="33.225"/>
  </clipPath>
 </defs>
</svg>
