<?xml version="1.0" encoding="utf-8" standalone="no"?>
<!DOCTYPE svg PUBLIC "-//W3C//DTD SVG 1.1//EN"
  "http://www.w3.org/Graphics/SVG/1.1/DTD/svg11.dtd">
<!-- Created with matplotlib (https://matplotlib.org/) -->
<svg version="1.1" viewBox="0 0 756.175 511.27625" xmlns="http://www.w3.org/2000/svg" xmlns:xlink="http://www.w3.org/1999/xlink">
 <metadata>
  <rdf:RDF xmlns:cc="http://creativecommons.org/ns#" xmlns:dc="http://purl.org/dc/elements/1.1/" xmlns:rdf="http://www.w3.org/1999/02/22-rdf-syntax-ns#">
   <cc:Work>
    <dc:type rdf:resource="http://purl.org/dc/dcmitype/StillImage"/>
    <dc:date>2021-01-28T16:22:42.666997</dc:date>
    <dc:format>image/svg+xml</dc:format>
    <dc:creator>
     <cc:Agent>
      <dc:title>Matplotlib v3.3.4, https://matplotlib.org/</dc:title>
     </cc:Agent>
    </dc:creator>
   </cc:Work>
  </rdf:RDF>
 </metadata>
 <defs>
  <style type="text/css">*{stroke-linecap:butt;stroke-linejoin:round;}</style>
 </defs>
 <g id="figure_1">
  <g id="patch_1">
   <path d="M 0 511.27625 
L 756.175 511.27625 
L 756.175 0 
L 0 0 
z
" style="fill:#ffffff;"/>
  </g>
  <g id="axes_1">
   <g id="patch_2">
    <path d="M 68.575 476.745 
L 738.175 476.745 
L 738.175 33.225 
L 68.575 33.225 
z
" style="fill:#ffffff;"/>
   </g>
   <g id="matplotlib.axis_1">
    <g id="xtick_1">
     <g id="line2d_1">
      <defs>
       <path d="M 0 0 
L 0 3.5 
" id="m746ab0c86e" style="stroke:#000000;stroke-width:0.8;"/>
      </defs>
      <g>
       <use style="stroke:#000000;stroke-width:0.8;" x="68.575" xlink:href="#m746ab0c86e" y="476.745"/>
      </g>
     </g>
     <g id="text_1">
      <!-- 01 Mar -->
      <g transform="translate(52.538281 491.018438)scale(0.1 -0.1)">
       <defs>
        <path d="M 31.25 -1 
Q 19.21875 -1 12.59375 8.765625 
Q 5.96875 18.53125 5.96875 36.359375 
Q 5.96875 54.046875 12.640625 63.875 
Q 19.3125 73.71875 31.25 73.71875 
Q 43.1875 73.71875 49.859375 63.875 
Q 56.53125 54.046875 56.53125 36.359375 
Q 56.53125 18.53125 49.90625 8.765625 
Q 43.296875 -1 31.25 -1 
z
M 31.25 6.8125 
Q 39.203125 6.8125 43.609375 14.484375 
Q 48.015625 22.15625 48.015625 36.359375 
Q 48.015625 50.53125 43.578125 58.28125 
Q 39.140625 66.046875 31.25 66.046875 
Q 23.375 66.046875 18.921875 58.28125 
Q 14.484375 50.53125 14.484375 36.359375 
Q 14.484375 22.15625 18.90625 14.484375 
Q 23.328125 6.8125 31.25 6.8125 
z
" id="Inter-Regular-48"/>
        <path d="M 30.828125 72.734375 
L 30.828125 0 
L 22.015625 0 
L 22.015625 59.9375 
L 21.453125 59.9375 
Q 20.953125 58.953125 18.890625 57.6875 
Q 16.828125 56.421875 13.5625 55.484375 
Q 10.296875 54.546875 6.109375 54.546875 
L 6.109375 61.9375 
Q 10.328125 61.9375 13.421875 63.453125 
Q 16.515625 64.984375 18.59375 67.046875 
Q 20.671875 69.109375 21.75 70.765625 
Q 22.828125 72.4375 23.015625 72.734375 
z
" id="Inter-Regular-49"/>
        <path id="Inter-Regular-32"/>
        <path d="M 8.8125 72.734375 
L 19.3125 72.734375 
L 44.03125 12.359375 
L 44.890625 12.359375 
L 69.609375 72.734375 
L 80.109375 72.734375 
L 80.109375 0 
L 71.875 0 
L 71.875 55.25 
L 71.171875 55.25 
L 48.4375 0 
L 40.484375 0 
L 17.75 55.25 
L 17.046875 55.25 
L 17.046875 0 
L 8.8125 0 
z
" id="Inter-Regular-77"/>
        <path d="M 23.71875 -1.28125 
Q 18.53125 -1.28125 14.3125 0.6875 
Q 10.09375 2.65625 7.59375 6.40625 
Q 5.109375 10.15625 5.109375 15.484375 
Q 5.109375 20.171875 6.953125 23.09375 
Q 8.8125 26.03125 11.890625 27.703125 
Q 14.984375 29.375 18.734375 30.203125 
Q 22.484375 31.03125 26.28125 31.53125 
Q 31.25 32.171875 34.359375 32.5 
Q 37.46875 32.84375 38.90625 33.65625 
Q 40.34375 34.484375 40.34375 36.5 
L 40.34375 36.796875 
Q 40.34375 42.046875 37.484375 44.953125 
Q 34.625 47.875 28.84375 47.875 
Q 22.828125 47.875 19.421875 45.234375 
Q 16.015625 42.609375 14.625 39.625 
L 6.671875 42.46875 
Q 8.8125 47.4375 12.375 50.21875 
Q 15.953125 53.015625 20.1875 54.125 
Q 24.4375 55.25 28.546875 55.25 
Q 31.1875 55.25 34.609375 54.625 
Q 38.03125 54.015625 41.25 52.09375 
Q 44.46875 50.171875 46.59375 46.296875 
Q 48.71875 42.4375 48.71875 35.9375 
L 48.71875 0 
L 40.34375 0 
L 40.34375 7.390625 
L 39.921875 7.390625 
Q 39.0625 5.609375 37.078125 3.578125 
Q 35.09375 1.5625 31.78125 0.140625 
Q 28.484375 -1.28125 23.71875 -1.28125 
z
M 25 6.25 
Q 29.96875 6.25 33.390625 8.203125 
Q 36.828125 10.15625 38.578125 13.234375 
Q 40.34375 16.328125 40.34375 19.75 
L 40.34375 27.421875 
Q 39.8125 26.78125 38.015625 26.265625 
Q 36.21875 25.75 33.890625 25.375 
Q 31.578125 25 29.390625 24.734375 
Q 27.203125 24.46875 25.859375 24.296875 
Q 22.59375 23.859375 19.765625 22.921875 
Q 16.9375 21.984375 15.21875 20.109375 
Q 13.5 18.25 13.5 15.0625 
Q 13.5 10.6875 16.75 8.46875 
Q 20 6.25 25 6.25 
z
" id="Inter-Regular-97"/>
        <path d="M 7.671875 0 
L 7.671875 54.546875 
L 15.765625 54.546875 
L 15.765625 46.3125 
L 16.34375 46.3125 
Q 17.796875 50.359375 21.703125 52.875 
Q 25.609375 55.390625 30.546875 55.390625 
Q 32.8125 55.390625 34.515625 54.859375 
Q 36.21875 54.328125 37.5 53.40625 
L 34.65625 46.3125 
Q 33.765625 46.765625 32.578125 47.03125 
Q 31.390625 47.296875 29.828125 47.296875 
Q 23.859375 47.296875 19.953125 43.65625 
Q 16.046875 40.015625 16.046875 34.515625 
L 16.046875 0 
z
" id="Inter-Regular-114"/>
       </defs>
       <use xlink:href="#Inter-Regular-48"/>
       <use x="62.500015" xlink:href="#Inter-Regular-49"/>
       <use x="106.676163" xlink:href="#Inter-Regular-32"/>
       <use x="134.801163" xlink:href="#Inter-Regular-77"/>
       <use x="225.99437" xlink:href="#Inter-Regular-97"/>
       <use x="282.386429" xlink:href="#Inter-Regular-114"/>
      </g>
     </g>
    </g>
    <g id="xtick_2">
     <g id="line2d_2">
      <g>
       <use style="stroke:#000000;stroke-width:0.8;" x="130.782925" xlink:href="#m746ab0c86e" y="476.745"/>
      </g>
     </g>
     <g id="text_2">
      <!-- 01 Apr -->
      <g transform="translate(115.697768 491.116875)scale(0.1 -0.1)">
       <defs>
        <path d="M 11.796875 0 
L 2.5625 0 
L 29.265625 72.734375 
L 38.359375 72.734375 
L 65.0625 0 
L 55.828125 0 
L 48.515625 20.59375 
L 19.109375 20.59375 
z
M 21.875 28.40625 
L 45.734375 28.40625 
L 34.09375 61.21875 
L 33.53125 61.21875 
z
" id="Inter-Regular-65"/>
        <path d="M 7.671875 -20.453125 
L 7.671875 54.546875 
L 15.765625 54.546875 
L 15.765625 45.875 
L 16.765625 45.875 
Q 17.6875 47.296875 19.328125 49.515625 
Q 20.984375 51.734375 24.09375 53.484375 
Q 27.203125 55.25 32.53125 55.25 
Q 39.421875 55.25 44.671875 51.796875 
Q 49.9375 48.359375 52.875 42.03125 
Q 55.828125 35.71875 55.828125 27.125 
Q 55.828125 18.46875 52.875 12.125 
Q 49.9375 5.78125 44.703125 2.3125 
Q 39.484375 -1.140625 32.671875 -1.140625 
Q 27.421875 -1.140625 24.25 0.609375 
Q 21.09375 2.375 19.390625 4.625 
Q 17.6875 6.890625 16.765625 8.375 
L 16.046875 8.375 
L 16.046875 -20.453125 
z
M 15.90625 27.265625 
Q 15.90625 18 19.9375 12.1875 
Q 23.96875 6.390625 31.53125 6.390625 
Q 36.796875 6.390625 40.328125 9.171875 
Q 43.859375 11.96875 45.640625 16.703125 
Q 47.4375 21.453125 47.4375 27.265625 
Q 47.4375 33.03125 45.671875 37.65625 
Q 43.921875 42.296875 40.390625 45.015625 
Q 36.859375 47.734375 31.53125 47.734375 
Q 23.859375 47.734375 19.875 42.078125 
Q 15.90625 36.4375 15.90625 27.265625 
z
" id="Inter-Regular-112"/>
       </defs>
       <use xlink:href="#Inter-Regular-48"/>
       <use x="62.500015" xlink:href="#Inter-Regular-49"/>
       <use x="106.676163" xlink:href="#Inter-Regular-32"/>
       <use x="134.801163" xlink:href="#Inter-Regular-65"/>
       <use x="202.41481" xlink:href="#Inter-Regular-112"/>
       <use x="263.352325" xlink:href="#Inter-Regular-114"/>
      </g>
     </g>
    </g>
    <g id="xtick_3">
     <g id="line2d_3">
      <g>
       <use style="stroke:#000000;stroke-width:0.8;" x="190.984142" xlink:href="#m746ab0c86e" y="476.745"/>
      </g>
     </g>
     <g id="text_3">
      <!-- 01 May -->
      <g transform="translate(174.081017 491.116875)scale(0.1 -0.1)">
       <defs>
        <path d="M 12.78125 -21.171875 
Q 10.65625 -21.171875 8.984375 -20.828125 
Q 7.3125 -20.484375 6.671875 -20.171875 
L 8.8125 -12.78125 
Q 13.390625 -13.953125 16.453125 -12.71875 
Q 19.53125 -11.5 21.734375 -5.390625 
L 23.578125 -0.28125 
L 3.40625 54.546875 
L 12.5 54.546875 
L 27.5625 11.078125 
L 28.125 11.078125 
L 43.1875 54.546875 
L 52.28125 54.546875 
L 28.84375 -8.8125 
Q 24.21875 -21.171875 12.78125 -21.171875 
z
" id="Inter-Regular-121"/>
       </defs>
       <use xlink:href="#Inter-Regular-48"/>
       <use x="62.500015" xlink:href="#Inter-Regular-49"/>
       <use x="106.676163" xlink:href="#Inter-Regular-32"/>
       <use x="134.801163" xlink:href="#Inter-Regular-77"/>
       <use x="225.99437" xlink:href="#Inter-Regular-97"/>
       <use x="282.386429" xlink:href="#Inter-Regular-121"/>
      </g>
     </g>
    </g>
    <g id="xtick_4">
     <g id="line2d_4">
      <g>
       <use style="stroke:#000000;stroke-width:0.8;" x="253.192067" xlink:href="#m746ab0c86e" y="476.745"/>
      </g>
     </g>
     <g id="text_4">
      <!-- 01 Jun -->
      <g transform="translate(237.907692 491.018438)scale(0.1 -0.1)">
       <defs>
        <path d="M 36.65625 72.734375 
L 45.453125 72.734375 
L 45.453125 20.734375 
Q 45.453125 10.265625 39.828125 4.625 
Q 34.203125 -1 24.71875 -1 
Q 18.75 -1 14.09375 1.1875 
Q 9.453125 3.375 6.78125 7.421875 
Q 4.125 11.46875 4.125 17.046875 
L 12.78125 17.046875 
Q 12.78125 12.421875 16.15625 9.609375 
Q 19.53125 6.8125 24.71875 6.8125 
Q 30.4375 6.8125 33.546875 10.375 
Q 36.65625 13.953125 36.65625 20.734375 
z
" id="Inter-Regular-74"/>
        <path d="M 42.046875 22.296875 
L 42.046875 54.546875 
L 50.421875 54.546875 
L 50.421875 0 
L 42.046875 0 
L 42.046875 9.234375 
L 41.484375 9.234375 
Q 39.5625 5.078125 35.515625 2.1875 
Q 31.46875 -0.703125 25.28125 -0.703125 
Q 17.609375 -0.703125 12.640625 4.375 
Q 7.671875 9.453125 7.671875 19.890625 
L 7.671875 54.546875 
L 16.046875 54.546875 
L 16.046875 20.453125 
Q 16.046875 14.484375 19.40625 10.9375 
Q 22.765625 7.390625 27.984375 7.390625 
Q 31.109375 7.390625 34.359375 8.984375 
Q 37.609375 10.578125 39.828125 13.875 
Q 42.046875 17.1875 42.046875 22.296875 
z
" id="Inter-Regular-117"/>
        <path d="M 16.046875 32.8125 
L 16.046875 0 
L 7.671875 0 
L 7.671875 54.546875 
L 15.765625 54.546875 
L 15.765625 46.015625 
L 16.484375 46.015625 
Q 18.390625 50.171875 22.296875 52.703125 
Q 26.203125 55.25 32.390625 55.25 
Q 40.65625 55.25 45.75 50.171875 
Q 50.859375 45.09375 50.859375 34.65625 
L 50.859375 0 
L 42.46875 0 
L 42.46875 34.09375 
Q 42.46875 40.515625 39.125 44.125 
Q 35.796875 47.734375 29.96875 47.734375 
Q 23.96875 47.734375 20 43.84375 
Q 16.046875 39.953125 16.046875 32.8125 
z
" id="Inter-Regular-110"/>
       </defs>
       <use xlink:href="#Inter-Regular-48"/>
       <use x="62.500015" xlink:href="#Inter-Regular-49"/>
       <use x="106.676163" xlink:href="#Inter-Regular-32"/>
       <use x="134.801163" xlink:href="#Inter-Regular-74"/>
       <use x="189.062531" xlink:href="#Inter-Regular-117"/>
       <use x="247.159134" xlink:href="#Inter-Regular-110"/>
      </g>
     </g>
    </g>
    <g id="xtick_5">
     <g id="line2d_5">
      <g>
       <use style="stroke:#000000;stroke-width:0.8;" x="313.393284" xlink:href="#m746ab0c86e" y="476.745"/>
      </g>
     </g>
     <g id="text_5">
      <!-- 01 Jul -->
      <g transform="translate(299.849534 491.018438)scale(0.1 -0.1)">
       <defs>
        <path d="M 16.046875 72.734375 
L 16.046875 0 
L 7.671875 0 
L 7.671875 72.734375 
z
" id="Inter-Regular-108"/>
       </defs>
       <use xlink:href="#Inter-Regular-48"/>
       <use x="62.500015" xlink:href="#Inter-Regular-49"/>
       <use x="106.676163" xlink:href="#Inter-Regular-32"/>
       <use x="134.801163" xlink:href="#Inter-Regular-74"/>
       <use x="189.062531" xlink:href="#Inter-Regular-117"/>
       <use x="247.159134" xlink:href="#Inter-Regular-108"/>
      </g>
     </g>
    </g>
    <g id="xtick_6">
     <g id="line2d_6">
      <g>
       <use style="stroke:#000000;stroke-width:0.8;" x="375.601209" xlink:href="#m746ab0c86e" y="476.745"/>
      </g>
     </g>
     <g id="text_6">
      <!-- 01 Aug -->
      <g transform="translate(359.529334 491.116875)scale(0.1 -0.1)">
       <defs>
        <path d="M 29.6875 -21.59375 
Q 20.5625 -21.59375 15.25 -18.265625 
Q 9.9375 -14.953125 7.390625 -10.65625 
L 14.0625 -5.96875 
Q 15.203125 -7.453125 16.9375 -9.390625 
Q 18.6875 -11.328125 21.71875 -12.765625 
Q 24.75 -14.203125 29.6875 -14.203125 
Q 36.296875 -14.203125 40.59375 -11 
Q 44.890625 -7.8125 44.890625 -1 
L 44.890625 10.078125 
L 44.171875 10.078125 
Q 43.25 8.59375 41.5625 6.40625 
Q 39.875 4.21875 36.734375 2.53125 
Q 33.59375 0.859375 28.265625 0.859375 
Q 21.65625 0.859375 16.421875 3.984375 
Q 11.1875 7.109375 8.140625 13.0625 
Q 5.109375 19.03125 5.109375 27.5625 
Q 5.109375 35.9375 8.0625 42.171875 
Q 11.015625 48.40625 16.265625 51.828125 
Q 21.515625 55.25 28.40625 55.25 
Q 33.734375 55.25 36.875 53.484375 
Q 40.015625 51.734375 41.703125 49.515625 
Q 43.390625 47.296875 44.3125 45.875 
L 45.171875 45.875 
L 45.171875 54.546875 
L 53.265625 54.546875 
L 53.265625 -1.5625 
Q 53.265625 -8.59375 50.078125 -13.015625 
Q 46.90625 -17.4375 41.5625 -19.515625 
Q 36.21875 -21.59375 29.6875 -21.59375 
z
M 29.40625 8.375 
Q 36.96875 8.375 41 13.5 
Q 45.03125 18.640625 45.03125 27.703125 
Q 45.03125 36.546875 41.046875 42.140625 
Q 37.078125 47.734375 29.40625 47.734375 
Q 24.078125 47.734375 20.546875 45.03125 
Q 17.015625 42.328125 15.25 37.78125 
Q 13.5 33.234375 13.5 27.703125 
Q 13.5 19.171875 17.5 13.765625 
Q 21.515625 8.375 29.40625 8.375 
z
" id="Inter-Regular-103"/>
       </defs>
       <use xlink:href="#Inter-Regular-48"/>
       <use x="62.500015" xlink:href="#Inter-Regular-49"/>
       <use x="106.676163" xlink:href="#Inter-Regular-32"/>
       <use x="134.801163" xlink:href="#Inter-Regular-65"/>
       <use x="202.41481" xlink:href="#Inter-Regular-117"/>
       <use x="260.511414" xlink:href="#Inter-Regular-103"/>
      </g>
     </g>
    </g>
    <g id="xtick_7">
     <g id="line2d_7">
      <g>
       <use style="stroke:#000000;stroke-width:0.8;" x="437.809134" xlink:href="#m746ab0c86e" y="476.745"/>
      </g>
     </g>
     <g id="text_7">
      <!-- 01 Sep -->
      <g transform="translate(421.921634 491.116875)scale(0.1 -0.1)">
       <defs>
        <path d="M 48.578125 54.546875 
Q 47.9375 59.9375 43.390625 62.921875 
Q 38.84375 65.90625 32.25 65.90625 
Q 25 65.90625 20.59375 62.484375 
Q 16.1875 59.0625 16.1875 53.828125 
Q 16.1875 49.921875 18.578125 47.53125 
Q 20.984375 45.140625 24.265625 43.796875 
Q 27.5625 42.46875 30.25 41.765625 
L 37.640625 39.765625 
Q 40.484375 39.03125 43.984375 37.71875 
Q 47.484375 36.40625 50.6875 34.140625 
Q 53.90625 31.890625 56 28.375 
Q 58.09375 24.859375 58.09375 19.75 
Q 58.09375 13.84375 55.015625 9.078125 
Q 51.953125 4.328125 46.078125 1.515625 
Q 40.203125 -1.28125 31.8125 -1.28125 
Q 20.09375 -1.28125 13.203125 4.25 
Q 6.328125 9.796875 5.6875 18.75 
L 14.78125 18.75 
Q 15.125 14.625 17.5625 11.9375 
Q 20 9.265625 23.734375 7.96875 
Q 27.484375 6.671875 31.8125 6.671875 
Q 36.859375 6.671875 40.875 8.328125 
Q 44.890625 9.984375 47.234375 12.9375 
Q 49.578125 15.90625 49.578125 19.890625 
Q 49.578125 23.515625 47.546875 25.78125 
Q 45.53125 28.046875 42.21875 29.46875 
Q 38.921875 30.890625 35.09375 31.953125 
L 26.140625 34.515625 
Q 17.609375 36.96875 12.640625 41.515625 
Q 7.671875 46.0625 7.671875 53.40625 
Q 7.671875 59.515625 10.984375 64.078125 
Q 14.3125 68.640625 19.9375 71.171875 
Q 25.5625 73.71875 32.53125 73.71875 
Q 39.5625 73.71875 45.03125 71.21875 
Q 50.5 68.71875 53.703125 64.375 
Q 56.921875 60.046875 57.109375 54.546875 
z
" id="Inter-Regular-83"/>
        <path d="M 30.546875 -1.140625 
Q 22.65625 -1.140625 16.953125 2.359375 
Q 11.265625 5.859375 8.1875 12.15625 
Q 5.109375 18.46875 5.109375 26.84375 
Q 5.109375 35.234375 8.1875 41.640625 
Q 11.265625 48.046875 16.78125 51.640625 
Q 22.296875 55.25 29.6875 55.25 
Q 33.953125 55.25 38.109375 53.828125 
Q 42.265625 52.421875 45.671875 49.234375 
Q 49.078125 46.0625 51.09375 40.84375 
Q 53.125 35.625 53.125 27.984375 
L 53.125 24.4375 
L 13.53125 24.4375 
Q 13.8125 15.703125 18.484375 11.046875 
Q 23.15625 6.390625 30.546875 6.390625 
Q 35.484375 6.390625 39.03125 8.515625 
Q 42.578125 10.65625 44.171875 14.921875 
L 52.28125 12.640625 
Q 50.359375 6.46875 44.59375 2.65625 
Q 38.84375 -1.140625 30.546875 -1.140625 
z
M 13.53125 31.671875 
L 44.609375 31.671875 
Q 44.609375 38.59375 40.546875 43.15625 
Q 36.5 47.734375 29.6875 47.734375 
Q 24.890625 47.734375 21.375 45.484375 
Q 17.859375 43.25 15.828125 39.578125 
Q 13.8125 35.90625 13.53125 31.671875 
z
" id="Inter-Regular-101"/>
       </defs>
       <use xlink:href="#Inter-Regular-48"/>
       <use x="62.500015" xlink:href="#Inter-Regular-49"/>
       <use x="106.676163" xlink:href="#Inter-Regular-32"/>
       <use x="134.801163" xlink:href="#Inter-Regular-83"/>
       <use x="198.57959" xlink:href="#Inter-Regular-101"/>
       <use x="256.818237" xlink:href="#Inter-Regular-112"/>
      </g>
     </g>
    </g>
    <g id="xtick_8">
     <g id="line2d_8">
      <g>
       <use style="stroke:#000000;stroke-width:0.8;" x="498.010351" xlink:href="#m746ab0c86e" y="476.745"/>
      </g>
     </g>
     <g id="text_8">
      <!-- 01 Oct -->
      <g transform="translate(482.854101 491.018438)scale(0.1 -0.1)">
       <defs>
        <path d="M 70.171875 36.359375 
Q 70.171875 24.859375 66.015625 16.46875 
Q 61.859375 8.09375 54.609375 3.546875 
Q 47.375 -1 38.0625 -1 
Q 28.765625 -1 21.515625 3.546875 
Q 14.28125 8.09375 10.125 16.46875 
Q 5.96875 24.859375 5.96875 36.359375 
Q 5.96875 47.875 10.125 56.25 
Q 14.28125 64.625 21.515625 69.171875 
Q 28.765625 73.71875 38.0625 73.71875 
Q 47.375 73.71875 54.609375 69.171875 
Q 61.859375 64.625 66.015625 56.25 
Q 70.171875 47.875 70.171875 36.359375 
z
M 61.65625 36.359375 
Q 61.65625 45.8125 58.5 52.3125 
Q 55.359375 58.8125 50.015625 62.140625 
Q 44.671875 65.484375 38.0625 65.484375 
Q 31.46875 65.484375 26.125 62.140625 
Q 20.78125 58.8125 17.625 52.3125 
Q 14.484375 45.8125 14.484375 36.359375 
Q 14.484375 26.921875 17.625 20.421875 
Q 20.78125 13.921875 26.125 10.578125 
Q 31.46875 7.25 38.0625 7.25 
Q 44.671875 7.25 50.015625 10.578125 
Q 55.359375 13.921875 58.5 20.421875 
Q 61.65625 26.921875 61.65625 36.359375 
z
" id="Inter-Regular-79"/>
        <path d="M 29.828125 -1.140625 
Q 22.15625 -1.140625 16.609375 2.484375 
Q 11.078125 6.109375 8.09375 12.46875 
Q 5.109375 18.828125 5.109375 26.984375 
Q 5.109375 35.296875 8.1875 41.671875 
Q 11.265625 48.046875 16.78125 51.640625 
Q 22.296875 55.25 29.6875 55.25 
Q 35.4375 55.25 40.046875 53.125 
Q 44.671875 51 47.609375 47.15625 
Q 50.5625 43.328125 51.28125 38.203125 
L 42.90625 38.203125 
Q 41.9375 41.9375 38.65625 44.828125 
Q 35.375 47.734375 29.828125 47.734375 
Q 22.484375 47.734375 17.984375 42.140625 
Q 13.5 36.546875 13.5 27.265625 
Q 13.5 17.796875 17.9375 12.09375 
Q 22.375 6.390625 29.828125 6.390625 
Q 34.734375 6.390625 38.234375 8.90625 
Q 41.734375 11.4375 42.90625 15.90625 
L 51.28125 15.90625 
Q 50.5625 11.078125 47.78125 7.21875 
Q 45 3.375 40.4375 1.109375 
Q 35.875 -1.140625 29.828125 -1.140625 
z
" id="Inter-Regular-99"/>
        <path d="M 31.390625 54.546875 
L 31.390625 47.4375 
L 19.75 47.4375 
L 19.75 15.625 
Q 19.75 12.078125 20.796875 10.3125 
Q 21.84375 8.5625 23.484375 7.96875 
Q 25.140625 7.390625 26.984375 7.390625 
Q 28.375 7.390625 29.265625 7.546875 
Q 30.15625 7.703125 30.6875 7.8125 
L 32.390625 0.28125 
Q 31.53125 -0.03125 30 -0.359375 
Q 28.484375 -0.703125 26.140625 -0.703125 
Q 22.59375 -0.703125 19.1875 0.8125 
Q 15.796875 2.34375 13.578125 5.46875 
Q 11.359375 8.59375 11.359375 13.359375 
L 11.359375 47.4375 
L 3.125 47.4375 
L 3.125 54.546875 
L 11.359375 54.546875 
L 11.359375 67.609375 
L 19.75 67.609375 
L 19.75 54.546875 
z
" id="Inter-Regular-116"/>
       </defs>
       <use xlink:href="#Inter-Regular-48"/>
       <use x="62.500015" xlink:href="#Inter-Regular-49"/>
       <use x="106.676163" xlink:href="#Inter-Regular-32"/>
       <use x="134.801163" xlink:href="#Inter-Regular-79"/>
       <use x="210.937546" xlink:href="#Inter-Regular-99"/>
       <use x="266.761414" xlink:href="#Inter-Regular-116"/>
      </g>
     </g>
    </g>
    <g id="xtick_9">
     <g id="line2d_9">
      <g>
       <use style="stroke:#000000;stroke-width:0.8;" x="560.218276" xlink:href="#m746ab0c86e" y="476.745"/>
      </g>
     </g>
     <g id="text_9">
      <!-- 01 Nov -->
      <g transform="translate(543.947182 491.018438)scale(0.1 -0.1)">
       <defs>
        <path d="M 66.484375 72.734375 
L 66.484375 0 
L 57.953125 0 
L 18.328125 57.109375 
L 17.609375 57.109375 
L 17.609375 0 
L 8.8125 0 
L 8.8125 72.734375 
L 17.328125 72.734375 
L 57.109375 15.484375 
L 57.8125 15.484375 
L 57.8125 72.734375 
z
" id="Inter-Regular-78"/>
        <path d="M 29.828125 -1.140625 
Q 22.4375 -1.140625 16.875 2.375 
Q 11.328125 5.890625 8.21875 12.203125 
Q 5.109375 18.53125 5.109375 26.984375 
Q 5.109375 35.515625 8.21875 41.859375 
Q 11.328125 48.21875 16.875 51.734375 
Q 22.4375 55.25 29.828125 55.25 
Q 37.21875 55.25 42.765625 51.734375 
Q 48.328125 48.21875 51.4375 41.859375 
Q 54.546875 35.515625 54.546875 26.984375 
Q 54.546875 18.53125 51.4375 12.203125 
Q 48.328125 5.890625 42.765625 2.375 
Q 37.21875 -1.140625 29.828125 -1.140625 
z
M 29.828125 6.390625 
Q 35.4375 6.390625 39.0625 9.265625 
Q 42.6875 12.140625 44.421875 16.828125 
Q 46.171875 21.515625 46.171875 26.984375 
Q 46.171875 32.453125 44.421875 37.171875 
Q 42.6875 41.90625 39.0625 44.8125 
Q 35.4375 47.734375 29.828125 47.734375 
Q 24.21875 47.734375 20.59375 44.8125 
Q 16.96875 41.90625 15.234375 37.171875 
Q 13.5 32.453125 13.5 26.984375 
Q 13.5 21.515625 15.234375 16.828125 
Q 16.96875 12.140625 20.59375 9.265625 
Q 24.21875 6.390625 29.828125 6.390625 
z
" id="Inter-Regular-111"/>
        <path d="M 52.28125 54.546875 
L 32.109375 0 
L 23.578125 0 
L 3.40625 54.546875 
L 12.5 54.546875 
L 27.5625 11.078125 
L 28.125 11.078125 
L 43.1875 54.546875 
z
" id="Inter-Regular-118"/>
       </defs>
       <use xlink:href="#Inter-Regular-48"/>
       <use x="62.500015" xlink:href="#Inter-Regular-49"/>
       <use x="106.676163" xlink:href="#Inter-Regular-32"/>
       <use x="134.801163" xlink:href="#Inter-Regular-78"/>
       <use x="210.085266" xlink:href="#Inter-Regular-111"/>
       <use x="269.74437" xlink:href="#Inter-Regular-118"/>
      </g>
     </g>
    </g>
    <g id="xtick_10">
     <g id="line2d_10">
      <g>
       <use style="stroke:#000000;stroke-width:0.8;" x="620.419493" xlink:href="#m746ab0c86e" y="476.745"/>
      </g>
     </g>
     <g id="text_10">
      <!-- 01 Dec -->
      <g transform="translate(604.382775 491.018438)scale(0.1 -0.1)">
       <defs>
        <path d="M 31.25 0 
L 8.8125 0 
L 8.8125 72.734375 
L 32.25 72.734375 
Q 42.828125 72.734375 50.359375 68.375 
Q 57.890625 64.03125 61.890625 55.90625 
Q 65.90625 47.796875 65.90625 36.5 
Q 65.90625 25.140625 61.859375 16.953125 
Q 57.8125 8.765625 50.0625 4.375 
Q 42.328125 0 31.25 0 
z
M 17.609375 7.8125 
L 30.6875 7.8125 
Q 44.21875 7.8125 50.796875 15.5 
Q 57.390625 23.1875 57.390625 36.5 
Q 57.390625 49.71875 50.921875 57.3125 
Q 44.46875 64.921875 31.671875 64.921875 
L 17.609375 64.921875 
z
" id="Inter-Regular-68"/>
       </defs>
       <use xlink:href="#Inter-Regular-48"/>
       <use x="62.500015" xlink:href="#Inter-Regular-49"/>
       <use x="106.676163" xlink:href="#Inter-Regular-32"/>
       <use x="134.801163" xlink:href="#Inter-Regular-68"/>
       <use x="206.676178" xlink:href="#Inter-Regular-101"/>
       <use x="264.914825" xlink:href="#Inter-Regular-99"/>
      </g>
     </g>
    </g>
    <g id="xtick_11">
     <g id="line2d_11">
      <g>
       <use style="stroke:#000000;stroke-width:0.8;" x="682.627418" xlink:href="#m746ab0c86e" y="476.745"/>
      </g>
     </g>
     <g id="text_11">
      <!-- 01 Jan -->
      <g transform="translate(667.428199 491.018438)scale(0.1 -0.1)">
       <use xlink:href="#Inter-Regular-48"/>
       <use x="62.500015" xlink:href="#Inter-Regular-49"/>
       <use x="106.676163" xlink:href="#Inter-Regular-32"/>
       <use x="134.801163" xlink:href="#Inter-Regular-74"/>
       <use x="189.062531" xlink:href="#Inter-Regular-97"/>
       <use x="245.45459" xlink:href="#Inter-Regular-110"/>
      </g>
     </g>
    </g>
   </g>
   <g id="matplotlib.axis_2">
    <g id="ytick_1">
     <g id="line2d_12">
      <path clip-path="url(#pc87d0a7f07)" d="M 68.575 476.745 
L 738.175 476.745 
" style="fill:none;stroke:#e5e5e5;stroke-linecap:square;stroke-width:0.8;"/>
     </g>
     <g id="line2d_13">
      <defs>
       <path d="M 0 0 
L -3.5 0 
" id="m82354aef68" style="stroke:#000000;stroke-width:0.8;"/>
      </defs>
      <g>
       <use style="stroke:#000000;stroke-width:0.8;" x="68.575" xlink:href="#m82354aef68" y="476.745"/>
      </g>
     </g>
     <g id="text_12">
      <!-- 0.00% -->
      <g transform="translate(31.94375 480.381719)scale(0.1 -0.1)">
       <defs>
        <path d="M 13.78125 -0.5625 
Q 11.15625 -0.5625 9.265625 1.3125 
Q 7.390625 3.203125 7.390625 5.828125 
Q 7.390625 8.453125 9.265625 10.328125 
Q 11.15625 12.21875 13.78125 12.21875 
Q 16.40625 12.21875 18.28125 10.328125 
Q 20.171875 8.453125 20.171875 5.828125 
Q 20.171875 3.203125 18.28125 1.3125 
Q 16.40625 -0.5625 13.78125 -0.5625 
z
" id="Inter-Regular-46"/>
        <path d="M 44.609375 13.640625 
L 44.609375 17.46875 
Q 44.609375 21.453125 46.25 24.765625 
Q 47.90625 28.09375 51.078125 30.09375 
Q 54.265625 32.109375 58.8125 32.109375 
Q 63.421875 32.109375 66.546875 30.09375 
Q 69.671875 28.09375 71.265625 24.765625 
Q 72.875 21.453125 72.875 17.46875 
L 72.875 13.640625 
Q 72.875 9.65625 71.25 6.328125 
Q 69.640625 3.015625 66.5 1 
Q 63.359375 -1 58.8125 -1 
Q 54.1875 -1 51.03125 1 
Q 47.875 3.015625 46.234375 6.328125 
Q 44.609375 9.65625 44.609375 13.640625 
z
M 8.375 55.25 
L 8.375 59.09375 
Q 8.375 63.0625 10.03125 66.375 
Q 11.6875 69.703125 14.859375 71.703125 
Q 18.046875 73.71875 22.59375 73.71875 
Q 27.203125 73.71875 30.328125 71.703125 
Q 33.453125 69.703125 35.046875 66.375 
Q 36.65625 63.0625 36.65625 59.09375 
L 36.65625 55.25 
Q 36.65625 51.28125 35.03125 47.953125 
Q 33.421875 44.640625 30.265625 42.625 
Q 27.125 40.625 22.59375 40.625 
Q 17.96875 40.625 14.8125 42.625 
Q 11.65625 44.640625 10.015625 47.953125 
Q 8.375 51.28125 8.375 55.25 
z
M 11.078125 0 
L 61.078125 72.734375 
L 69.171875 72.734375 
L 19.171875 0 
z
M 51.84375 17.46875 
L 51.84375 13.640625 
Q 51.84375 10.328125 53.40625 7.71875 
Q 54.96875 5.109375 58.8125 5.109375 
Q 62.53125 5.109375 64.078125 7.71875 
Q 65.625 10.328125 65.625 13.640625 
L 65.625 17.46875 
Q 65.625 20.78125 64.125 23.390625 
Q 62.640625 26 58.8125 26 
Q 55.078125 26 53.453125 23.390625 
Q 51.84375 20.78125 51.84375 17.46875 
z
M 15.625 59.09375 
L 15.625 55.25 
Q 15.625 51.953125 17.1875 49.34375 
Q 18.75 46.734375 22.59375 46.734375 
Q 26.3125 46.734375 27.859375 49.34375 
Q 29.40625 51.953125 29.40625 55.25 
L 29.40625 59.09375 
Q 29.40625 62.390625 27.90625 65 
Q 26.421875 67.609375 22.59375 67.609375 
Q 18.859375 67.609375 17.234375 65 
Q 15.625 62.390625 15.625 59.09375 
z
" id="Inter-Regular-37"/>
       </defs>
       <use xlink:href="#Inter-Regular-48"/>
       <use x="62.500015" xlink:href="#Inter-Regular-46"/>
       <use x="90.056839" xlink:href="#Inter-Regular-48"/>
       <use x="152.556854" xlink:href="#Inter-Regular-48"/>
       <use x="215.05687" xlink:href="#Inter-Regular-37"/>
      </g>
     </g>
    </g>
    <g id="ytick_2">
     <g id="line2d_14">
      <path clip-path="url(#pc87d0a7f07)" d="M 68.575 410.168084 
L 738.175 410.168084 
" style="fill:none;stroke:#e5e5e5;stroke-linecap:square;stroke-width:0.8;"/>
     </g>
     <g id="line2d_15">
      <g>
       <use style="stroke:#000000;stroke-width:0.8;" x="68.575" xlink:href="#m82354aef68" y="410.168084"/>
      </g>
     </g>
     <g id="text_13">
      <!-- 0.02% -->
      <g transform="translate(32.142188 413.804803)scale(0.1 -0.1)">
       <defs>
        <path d="M 7.53125 0 
L 7.53125 6.390625 
L 31.53125 32.671875 
Q 35.765625 37.28125 38.5 40.703125 
Q 41.234375 44.140625 42.5625 47.171875 
Q 43.890625 50.21875 43.890625 53.546875 
Q 43.890625 59.296875 39.890625 62.671875 
Q 35.90625 66.046875 29.96875 66.046875 
Q 23.65625 66.046875 19.921875 62.265625 
Q 16.1875 58.484375 16.1875 52.265625 
L 7.8125 52.265625 
Q 7.8125 58.671875 10.75 63.5 
Q 13.703125 68.328125 18.796875 71.015625 
Q 23.90625 73.71875 30.25 73.71875 
Q 36.65625 73.71875 41.578125 71.015625 
Q 46.515625 68.328125 49.3125 63.734375 
Q 52.125 59.15625 52.125 53.546875 
Q 52.125 49.53125 50.6875 45.71875 
Q 49.25 41.90625 45.71875 37.234375 
Q 42.1875 32.5625 35.9375 25.859375 
L 19.609375 8.375 
L 19.609375 7.8125 
L 53.40625 7.8125 
L 53.40625 0 
z
" id="Inter-Regular-50"/>
       </defs>
       <use xlink:href="#Inter-Regular-48"/>
       <use x="62.500015" xlink:href="#Inter-Regular-46"/>
       <use x="90.056839" xlink:href="#Inter-Regular-48"/>
       <use x="152.556854" xlink:href="#Inter-Regular-50"/>
       <use x="213.068237" xlink:href="#Inter-Regular-37"/>
      </g>
     </g>
    </g>
    <g id="ytick_3">
     <g id="line2d_16">
      <path clip-path="url(#pc87d0a7f07)" d="M 68.575 343.591169 
L 738.175 343.591169 
" style="fill:none;stroke:#e5e5e5;stroke-linecap:square;stroke-width:0.8;"/>
     </g>
     <g id="line2d_17">
      <g>
       <use style="stroke:#000000;stroke-width:0.8;" x="68.575" xlink:href="#m82354aef68" y="343.591169"/>
      </g>
     </g>
     <g id="text_14">
      <!-- 0.04% -->
      <g transform="translate(31.773438 347.227887)scale(0.1 -0.1)">
       <defs>
        <path d="M 5.828125 14.921875 
L 5.828125 22.15625 
L 37.78125 72.734375 
L 48.4375 72.734375 
L 48.4375 22.734375 
L 58.375 22.734375 
L 58.375 14.921875 
L 48.4375 14.921875 
L 48.4375 0 
L 40.0625 0 
L 40.0625 14.921875 
z
M 40.0625 22.734375 
L 40.0625 61.5 
L 39.484375 61.5 
L 15.34375 23.296875 
L 15.34375 22.734375 
z
" id="Inter-Regular-52"/>
       </defs>
       <use xlink:href="#Inter-Regular-48"/>
       <use x="62.500015" xlink:href="#Inter-Regular-46"/>
       <use x="90.056839" xlink:href="#Inter-Regular-48"/>
       <use x="152.556854" xlink:href="#Inter-Regular-52"/>
       <use x="216.761414" xlink:href="#Inter-Regular-37"/>
      </g>
     </g>
    </g>
    <g id="ytick_4">
     <g id="line2d_18">
      <path clip-path="url(#pc87d0a7f07)" d="M 68.575 277.014253 
L 738.175 277.014253 
" style="fill:none;stroke:#e5e5e5;stroke-linecap:square;stroke-width:0.8;"/>
     </g>
     <g id="line2d_19">
      <g>
       <use style="stroke:#000000;stroke-width:0.8;" x="68.575" xlink:href="#m82354aef68" y="277.014253"/>
      </g>
     </g>
     <g id="text_15">
      <!-- 0.06% -->
      <g transform="translate(31.957813 280.650972)scale(0.1 -0.1)">
       <defs>
        <path d="M 31.671875 -1 
Q 27.203125 -0.921875 22.71875 0.703125 
Q 18.25 2.34375 14.5625 6.234375 
Q 10.875 10.125 8.625 16.78125 
Q 6.390625 23.4375 6.390625 33.515625 
Q 6.390625 52.90625 13.453125 63.375 
Q 20.53125 73.859375 32.8125 73.859375 
Q 41.96875 73.859375 48.015625 68.5 
Q 54.078125 63.140625 55.40625 54.546875 
L 46.734375 54.546875 
Q 45.53125 59.546875 42.046875 62.796875 
Q 38.5625 66.046875 32.8125 66.046875 
Q 24.359375 66.046875 19.515625 58.671875 
Q 14.671875 51.3125 14.625 37.921875 
L 15.203125 37.921875 
Q 18.1875 42.4375 22.828125 45 
Q 27.484375 47.578125 33.09375 47.578125 
Q 39.34375 47.578125 44.53125 44.46875 
Q 49.71875 41.375 52.84375 35.921875 
Q 55.96875 30.46875 55.96875 23.4375 
Q 55.96875 16.6875 52.953125 11.09375 
Q 49.9375 5.5 44.484375 2.21875 
Q 39.03125 -1.0625 31.671875 -1 
z
M 31.671875 6.8125 
Q 36.15625 6.8125 39.71875 9.046875 
Q 43.296875 11.296875 45.359375 15.0625 
Q 47.4375 18.828125 47.4375 23.4375 
Q 47.4375 27.953125 45.4375 31.65625 
Q 43.4375 35.375 39.9375 37.5625 
Q 36.4375 39.765625 31.96875 39.765625 
Q 27.453125 39.765625 23.828125 37.453125 
Q 20.203125 35.15625 18.078125 31.40625 
Q 15.953125 27.65625 15.90625 23.296875 
Q 15.90625 18.96875 17.953125 15.203125 
Q 20 11.4375 23.5625 9.125 
Q 27.125 6.8125 31.671875 6.8125 
z
" id="Inter-Regular-54"/>
       </defs>
       <use xlink:href="#Inter-Regular-48"/>
       <use x="62.500015" xlink:href="#Inter-Regular-46"/>
       <use x="90.056839" xlink:href="#Inter-Regular-48"/>
       <use x="152.556854" xlink:href="#Inter-Regular-54"/>
       <use x="214.914825" xlink:href="#Inter-Regular-37"/>
      </g>
     </g>
    </g>
    <g id="ytick_5">
     <g id="line2d_20">
      <path clip-path="url(#pc87d0a7f07)" d="M 68.575 210.437337 
L 738.175 210.437337 
" style="fill:none;stroke:#e5e5e5;stroke-linecap:square;stroke-width:0.8;"/>
     </g>
     <g id="line2d_21">
      <g>
       <use style="stroke:#000000;stroke-width:0.8;" x="68.575" xlink:href="#m82354aef68" y="210.437337"/>
      </g>
     </g>
     <g id="text_16">
      <!-- 0.08% -->
      <g transform="translate(32.028125 214.074056)scale(0.1 -0.1)">
       <defs>
        <path d="M 30.828125 -1 
Q 23.515625 -1 17.921875 1.609375 
Q 12.328125 4.21875 9.203125 8.8125 
Q 6.078125 13.421875 6.109375 19.3125 
Q 6.078125 23.9375 7.921875 27.859375 
Q 9.765625 31.78125 12.96875 34.421875 
Q 16.1875 37.078125 20.171875 37.78125 
L 20.171875 38.203125 
Q 14.953125 39.5625 11.859375 44.078125 
Q 8.765625 48.609375 8.8125 54.40625 
Q 8.765625 59.9375 11.609375 64.296875 
Q 14.453125 68.671875 19.4375 71.1875 
Q 24.4375 73.71875 30.828125 73.71875 
Q 37.140625 73.71875 42.109375 71.1875 
Q 47.09375 68.671875 49.953125 64.296875 
Q 52.8125 59.9375 52.84375 54.40625 
Q 52.8125 48.609375 49.703125 44.078125 
Q 46.59375 39.5625 41.484375 38.203125 
L 41.484375 37.78125 
Q 45.421875 37.078125 48.578125 34.421875 
Q 51.734375 31.78125 53.609375 27.859375 
Q 55.5 23.9375 55.546875 19.3125 
Q 55.5 13.421875 52.359375 8.8125 
Q 49.21875 4.21875 43.65625 1.609375 
Q 38.109375 -1 30.828125 -1 
z
M 30.828125 6.8125 
Q 38.21875 6.8125 42.53125 10.34375 
Q 46.84375 13.890625 46.875 19.75 
Q 46.84375 23.859375 44.75 27.015625 
Q 42.65625 30.1875 39.046875 32 
Q 35.4375 33.8125 30.828125 33.8125 
Q 26.171875 33.8125 22.53125 32 
Q 18.890625 30.1875 16.8125 27.015625 
Q 14.734375 23.859375 14.78125 19.75 
Q 14.734375 13.890625 19.03125 10.34375 
Q 23.328125 6.8125 30.828125 6.8125 
z
M 30.828125 41.328125 
Q 36.6875 41.328125 40.484375 44.75 
Q 44.28125 48.1875 44.3125 53.828125 
Q 44.28125 59.375 40.5625 62.703125 
Q 36.859375 66.046875 30.828125 66.046875 
Q 24.71875 66.046875 21 62.703125 
Q 17.296875 59.375 17.328125 53.828125 
Q 17.296875 48.1875 21.078125 44.75 
Q 24.859375 41.328125 30.828125 41.328125 
z
" id="Inter-Regular-56"/>
       </defs>
       <use xlink:href="#Inter-Regular-48"/>
       <use x="62.500015" xlink:href="#Inter-Regular-46"/>
       <use x="90.056839" xlink:href="#Inter-Regular-48"/>
       <use x="152.556854" xlink:href="#Inter-Regular-56"/>
       <use x="214.20459" xlink:href="#Inter-Regular-37"/>
      </g>
     </g>
    </g>
    <g id="ytick_6">
     <g id="line2d_22">
      <path clip-path="url(#pc87d0a7f07)" d="M 68.575 143.860421 
L 738.175 143.860421 
" style="fill:none;stroke:#e5e5e5;stroke-linecap:square;stroke-width:0.8;"/>
     </g>
     <g id="line2d_23">
      <g>
       <use style="stroke:#000000;stroke-width:0.8;" x="68.575" xlink:href="#m82354aef68" y="143.860421"/>
      </g>
     </g>
     <g id="text_17">
      <!-- 0.10% -->
      <g transform="translate(33.776563 147.49714)scale(0.1 -0.1)">
       <use xlink:href="#Inter-Regular-48"/>
       <use x="62.500015" xlink:href="#Inter-Regular-46"/>
       <use x="90.056839" xlink:href="#Inter-Regular-49"/>
       <use x="134.232986" xlink:href="#Inter-Regular-48"/>
       <use x="196.733002" xlink:href="#Inter-Regular-37"/>
      </g>
     </g>
    </g>
    <g id="ytick_7">
     <g id="line2d_24">
      <path clip-path="url(#pc87d0a7f07)" d="M 68.575 77.283506 
L 738.175 77.283506 
" style="fill:none;stroke:#e5e5e5;stroke-linecap:square;stroke-width:0.8;"/>
     </g>
     <g id="line2d_25">
      <g>
       <use style="stroke:#000000;stroke-width:0.8;" x="68.575" xlink:href="#m82354aef68" y="77.283506"/>
      </g>
     </g>
     <g id="text_18">
      <!-- 0.12% -->
      <g transform="translate(33.975 80.920224)scale(0.1 -0.1)">
       <use xlink:href="#Inter-Regular-48"/>
       <use x="62.500015" xlink:href="#Inter-Regular-46"/>
       <use x="90.056839" xlink:href="#Inter-Regular-49"/>
       <use x="134.232986" xlink:href="#Inter-Regular-50"/>
       <use x="194.74437" xlink:href="#Inter-Regular-37"/>
      </g>
     </g>
    </g>
    <g id="text_19">
     <!-- Percent of nation tested positive (seven day average) -->
     <g transform="translate(25.614063 382.124063)rotate(-90)scale(0.1 -0.1)">
      <defs>
       <path d="M 8.8125 0 
L 8.8125 72.734375 
L 33.375 72.734375 
Q 41.9375 72.734375 47.390625 69.65625 
Q 52.84375 66.578125 55.46875 61.359375 
Q 58.09375 56.140625 58.09375 49.71875 
Q 58.09375 43.28125 55.484375 38.03125 
Q 52.875 32.78125 47.4375 29.671875 
Q 42.015625 26.5625 33.53125 26.5625 
L 17.609375 26.5625 
L 17.609375 0 
z
M 17.609375 34.375 
L 33.234375 34.375 
Q 42.015625 34.375 45.71875 38.78125 
Q 49.4375 43.1875 49.4375 49.71875 
Q 49.4375 56.28125 45.703125 60.59375 
Q 41.96875 64.921875 33.09375 64.921875 
L 17.609375 64.921875 
z
" id="Inter-Regular-80"/>
       <path d="M 31.96875 54.546875 
L 31.96875 47.4375 
L 19.75 47.4375 
L 19.75 0 
L 11.359375 0 
L 11.359375 47.4375 
L 2.5625 47.4375 
L 2.5625 54.546875 
L 11.359375 54.546875 
L 11.359375 62.078125 
Q 11.359375 66.765625 13.5625 69.890625 
Q 15.765625 73.015625 19.28125 74.578125 
Q 22.796875 76.140625 26.703125 76.140625 
Q 29.796875 76.140625 31.75 75.640625 
Q 33.703125 75.140625 34.65625 74.71875 
L 32.25 67.46875 
Q 31.609375 67.6875 30.484375 68 
Q 29.375 68.328125 27.5625 68.328125 
Q 23.40625 68.328125 21.578125 66.234375 
Q 19.75 64.140625 19.75 60.078125 
L 19.75 54.546875 
z
" id="Inter-Regular-102"/>
       <path d="M 7.671875 0 
L 7.671875 54.546875 
L 16.046875 54.546875 
L 16.046875 0 
z
M 11.9375 63.640625 
Q 9.484375 63.640625 7.71875 65.296875 
Q 5.96875 66.96875 5.96875 69.3125 
Q 5.96875 71.65625 7.71875 73.328125 
Q 9.484375 75 11.9375 75 
Q 14.390625 75 16.140625 73.328125 
Q 17.90625 71.65625 17.90625 69.3125 
Q 17.90625 66.96875 16.140625 65.296875 
Q 14.390625 63.640625 11.9375 63.640625 
z
" id="Inter-Regular-105"/>
       <path d="M 46.3125 42.328125 
L 38.78125 40.203125 
Q 37.671875 43.046875 35.078125 45.53125 
Q 32.5 48.015625 26.984375 48.015625 
Q 21.984375 48.015625 18.65625 45.71875 
Q 15.34375 43.4375 15.34375 39.921875 
Q 15.34375 36.796875 17.609375 34.984375 
Q 19.890625 33.171875 24.71875 31.953125 
L 32.8125 29.96875 
Q 47.296875 26.421875 47.296875 15.203125 
Q 47.296875 10.515625 44.609375 6.8125 
Q 41.9375 3.125 37.140625 0.984375 
Q 32.359375 -1.140625 26 -1.140625 
Q 17.65625 -1.140625 12.1875 2.484375 
Q 6.71875 6.109375 5.25 13.0625 
L 13.21875 15.0625 
Q 15.453125 6.25 25.859375 6.25 
Q 31.71875 6.25 35.171875 8.75 
Q 38.640625 11.25 38.640625 14.765625 
Q 38.640625 20.5625 30.546875 22.4375 
L 21.453125 24.578125 
Q 13.953125 26.34375 10.453125 30.09375 
Q 6.96875 33.84375 6.96875 39.484375 
Q 6.96875 44.109375 9.578125 47.65625 
Q 12.1875 51.203125 16.703125 53.21875 
Q 21.234375 55.25 26.984375 55.25 
Q 35.09375 55.25 39.71875 51.703125 
Q 44.359375 48.15625 46.3125 42.328125 
z
" id="Inter-Regular-115"/>
       <path d="M 28.265625 -1.140625 
Q 21.453125 -1.140625 16.234375 2.3125 
Q 11.015625 5.78125 8.0625 12.125 
Q 5.109375 18.46875 5.109375 27.125 
Q 5.109375 35.71875 8.0625 42.03125 
Q 11.015625 48.359375 16.265625 51.796875 
Q 21.515625 55.25 28.40625 55.25 
Q 33.734375 55.25 36.84375 53.484375 
Q 39.953125 51.734375 41.59375 49.515625 
Q 43.25 47.296875 44.171875 45.875 
L 44.890625 45.875 
L 44.890625 72.734375 
L 53.265625 72.734375 
L 53.265625 0 
L 45.171875 0 
L 45.171875 8.375 
L 44.171875 8.375 
Q 43.25 6.890625 41.546875 4.625 
Q 39.84375 2.375 36.6875 0.609375 
Q 33.53125 -1.140625 28.265625 -1.140625 
z
M 29.40625 6.390625 
Q 36.96875 6.390625 41 12.1875 
Q 45.03125 18 45.03125 27.265625 
Q 45.03125 36.4375 41.046875 42.078125 
Q 37.078125 47.734375 29.40625 47.734375 
Q 24.078125 47.734375 20.546875 45.015625 
Q 17.015625 42.296875 15.25 37.65625 
Q 13.5 33.03125 13.5 27.265625 
Q 13.5 21.453125 15.28125 16.703125 
Q 17.078125 11.96875 20.609375 9.171875 
Q 24.15625 6.390625 29.40625 6.390625 
z
" id="Inter-Regular-100"/>
       <path d="M 10.65625 30.6875 
Q 10.65625 44.109375 14.15625 55.375 
Q 17.65625 66.65625 24.15625 76.140625 
L 31.53125 76.140625 
Q 28.125 71.453125 25.359375 63.984375 
Q 22.59375 56.53125 20.953125 47.828125 
Q 19.3125 39.140625 19.3125 30.6875 
Q 19.3125 22.234375 20.953125 13.53125 
Q 22.59375 4.828125 25.359375 -2.625 
Q 28.125 -10.078125 31.53125 -14.765625 
L 24.15625 -14.765625 
Q 17.65625 -5.296875 14.15625 5.984375 
Q 10.65625 17.265625 10.65625 30.6875 
z
" id="Inter-Regular-40"/>
       <path d="M 25.59375 30.3125 
Q 25.59375 16.890625 22.09375 5.609375 
Q 18.609375 -5.65625 12.109375 -15.140625 
L 4.71875 -15.140625 
Q 8.125 -10.453125 10.890625 -2.984375 
Q 13.671875 4.46875 15.296875 13.15625 
Q 16.9375 21.859375 16.9375 30.3125 
Q 16.9375 38.765625 15.296875 47.46875 
Q 13.671875 56.171875 10.890625 63.625 
Q 8.125 71.078125 4.71875 75.765625 
L 12.109375 75.765625 
Q 18.609375 66.296875 22.09375 55.015625 
Q 25.59375 43.734375 25.59375 30.3125 
z
" id="Inter-Regular-41"/>
      </defs>
      <use xlink:href="#Inter-Regular-80"/>
      <use x="63.494324" xlink:href="#Inter-Regular-101"/>
      <use x="121.732971" xlink:href="#Inter-Regular-114"/>
      <use x="160.085251" xlink:href="#Inter-Regular-99"/>
      <use x="215.909119" xlink:href="#Inter-Regular-101"/>
      <use x="274.147766" xlink:href="#Inter-Regular-110"/>
      <use x="332.670502" xlink:href="#Inter-Regular-116"/>
      <use x="369.034149" xlink:href="#Inter-Regular-32"/>
      <use x="397.159149" xlink:href="#Inter-Regular-111"/>
      <use x="456.818253" xlink:href="#Inter-Regular-102"/>
      <use x="492.897797" xlink:href="#Inter-Regular-32"/>
      <use x="521.022797" xlink:href="#Inter-Regular-110"/>
      <use x="579.545532" xlink:href="#Inter-Regular-97"/>
      <use x="635.937592" xlink:href="#Inter-Regular-116"/>
      <use x="672.301239" xlink:href="#Inter-Regular-105"/>
      <use x="696.022827" xlink:href="#Inter-Regular-111"/>
      <use x="755.681931" xlink:href="#Inter-Regular-110"/>
      <use x="814.204666" xlink:href="#Inter-Regular-32"/>
      <use x="842.329666" xlink:href="#Inter-Regular-116"/>
      <use x="878.693314" xlink:href="#Inter-Regular-101"/>
      <use x="936.931961" xlink:href="#Inter-Regular-115"/>
      <use x="989.204697" xlink:href="#Inter-Regular-116"/>
      <use x="1025.568344" xlink:href="#Inter-Regular-101"/>
      <use x="1083.806992" xlink:href="#Inter-Regular-100"/>
      <use x="1145.880875" xlink:href="#Inter-Regular-32"/>
      <use x="1174.005875" xlink:href="#Inter-Regular-112"/>
      <use x="1234.94339" xlink:href="#Inter-Regular-111"/>
      <use x="1294.602493" xlink:href="#Inter-Regular-115"/>
      <use x="1346.875229" xlink:href="#Inter-Regular-105"/>
      <use x="1370.596817" xlink:href="#Inter-Regular-116"/>
      <use x="1406.960464" xlink:href="#Inter-Regular-105"/>
      <use x="1430.682053" xlink:href="#Inter-Regular-118"/>
      <use x="1486.363876" xlink:href="#Inter-Regular-101"/>
      <use x="1544.602524" xlink:href="#Inter-Regular-32"/>
      <use x="1572.727524" xlink:href="#Inter-Regular-40"/>
      <use x="1608.949112" xlink:href="#Inter-Regular-115"/>
      <use x="1661.221848" xlink:href="#Inter-Regular-101"/>
      <use x="1719.460495" xlink:href="#Inter-Regular-118"/>
      <use x="1775.142319" xlink:href="#Inter-Regular-101"/>
      <use x="1833.380966" xlink:href="#Inter-Regular-110"/>
      <use x="1891.903702" xlink:href="#Inter-Regular-32"/>
      <use x="1920.028702" xlink:href="#Inter-Regular-100"/>
      <use x="1982.102585" xlink:href="#Inter-Regular-97"/>
      <use x="2038.494644" xlink:href="#Inter-Regular-121"/>
      <use x="2094.176468" xlink:href="#Inter-Regular-32"/>
      <use x="2122.301468" xlink:href="#Inter-Regular-97"/>
      <use x="2178.693527" xlink:href="#Inter-Regular-118"/>
      <use x="2234.375351" xlink:href="#Inter-Regular-101"/>
      <use x="2292.613998" xlink:href="#Inter-Regular-114"/>
      <use x="2330.966278" xlink:href="#Inter-Regular-97"/>
      <use x="2387.358337" xlink:href="#Inter-Regular-103"/>
      <use x="2448.295853" xlink:href="#Inter-Regular-101"/>
      <use x="2506.5345" xlink:href="#Inter-Regular-41"/>
     </g>
    </g>
   </g>
   <g id="line2d_26">
    <path clip-path="url(#pc87d0a7f07)" d="M -1 476.745 
L 78.608536 476.638547 
L 92.655487 476.319188 
L 100.682316 475.70328 
L 104.69573 474.827154 
L 106.702438 474.430912 
L 108.709145 473.863162 
L 110.715852 473.62491 
L 112.722559 473.036883 
L 114.729267 472.279038 
L 116.735974 471.852381 
L 118.742681 470.808971 
L 120.749388 469.222313 
L 122.756096 468.152713 
L 124.762803 466.864292 
L 126.76951 465.754138 
L 128.776217 464.777473 
L 130.782925 462.665308 
L 132.789632 461.166516 
L 134.796339 460.262509 
L 136.803046 459.611117 
L 138.809754 457.036811 
L 140.816461 456.133649 
L 142.823168 455.657145 
L 144.829875 454.67879 
L 146.836583 454.497144 
L 148.84329 453.916721 
L 150.849997 453.13015 
L 152.856704 454.342533 
L 154.863412 454.492074 
L 156.870119 453.751972 
L 158.876826 455.103757 
L 160.883533 455.678266 
L 164.896948 456.160685 
L 166.903655 456.215601 
L 168.910362 456.720831 
L 170.91707 457.368843 
L 172.923777 457.510781 
L 174.930484 457.539506 
L 176.937191 458.36832 
L 178.943899 458.978313 
L 180.950606 460.207593 
L 182.957313 460.323339 
L 184.96402 461.251002 
L 186.970728 462.617151 
L 192.990849 464.054268 
L 194.997557 464.166635 
L 197.004264 464.824786 
L 199.010971 464.948981 
L 201.017678 464.773249 
L 203.024386 465.069797 
L 207.0378 466.494241 
L 209.044507 467.349245 
L 211.051215 467.851096 
L 213.057922 468.505867 
L 215.064629 468.898729 
L 217.071336 469.696283 
L 219.078044 470.187995 
L 225.098165 470.616342 
L 229.11158 471.065811 
L 231.118287 471.348841 
L 235.131702 471.505986 
L 239.145116 471.950385 
L 241.151823 472.258762 
L 245.165238 472.723438 
L 247.171945 473.165303 
L 253.192067 473.780365 
L 257.205481 473.945114 
L 261.218896 474.111553 
L 263.225603 474.359098 
L 267.239018 474.607489 
L 269.245725 474.432602 
L 271.252432 474.769703 
L 275.265847 474.926848 
L 279.279261 474.91502 
L 281.285968 474.807722 
L 283.292676 475.144824 
L 285.299383 474.985144 
L 293.326212 475.16848 
L 301.353041 475.378007 
L 307.373163 475.676245 
L 311.386577 475.754817 
L 313.393284 475.695676 
L 317.406699 475.19805 
L 321.420113 474.575384 
L 323.426821 474.379375 
L 327.440235 473.699258 
L 337.473771 473.202477 
L 341.487186 473.455937 
L 343.493893 473.472834 
L 345.5006 473.34188 
L 351.520722 473.270066 
L 365.567673 473.065609 
L 373.594502 472.588259 
L 377.607916 472.61614 
L 379.614624 472.413372 
L 387.641452 472.269745 
L 389.64816 472.306074 
L 391.654867 472.042476 
L 393.661574 472.17512 
L 395.668281 471.821966 
L 399.681696 471.522883 
L 401.688403 471.110589 
L 403.69511 470.895148 
L 409.715232 471.031171 
L 411.721939 471.215352 
L 413.728647 471.235629 
L 415.735354 471.553298 
L 417.742061 471.446845 
L 419.748768 471.458673 
L 425.76889 471.135935 
L 429.782305 470.702518 
L 431.789012 470.845301 
L 433.795719 470.381469 
L 435.802426 470.051127 
L 437.809134 470.071403 
L 439.815841 469.763872 
L 441.822548 469.631228 
L 445.835963 468.660477 
L 447.84267 467.740418 
L 449.849377 466.575348 
L 455.869499 463.896278 
L 459.882913 461.357455 
L 461.889621 461.136945 
L 463.896328 461.364214 
L 465.903035 460.895314 
L 467.909742 459.957513 
L 469.91645 459.780091 
L 473.929864 458.717249 
L 475.936571 458.343818 
L 479.949986 455.78134 
L 481.956693 454.356051 
L 483.9634 451.953252 
L 485.970108 450.304074 
L 487.976815 449.458363 
L 489.983522 448.173321 
L 491.990229 448.543373 
L 493.996937 447.306489 
L 496.003644 446.822381 
L 498.010351 446.85871 
L 500.017058 447.641056 
L 502.023766 442.430767 
L 504.030473 428.482874 
L 508.043887 416.345529 
L 510.050595 411.384476 
L 512.057302 403.473996 
L 514.064009 398.425921 
L 516.070716 396.886576 
L 518.077424 406.117582 
L 520.084131 405.30482 
L 522.090838 403.900653 
L 524.097545 400.01089 
L 526.104253 399.008034 
L 528.11096 397.821842 
L 530.117667 397.254937 
L 532.124374 393.604271 
L 534.131082 389.618193 
L 536.137789 386.657783 
L 538.144496 380.899176 
L 540.151203 379.872664 
L 542.157911 375.699026 
L 544.164618 370.601949 
L 546.171325 369.095553 
L 548.178032 367.813047 
L 550.18474 366.279615 
L 552.191447 367.718422 
L 554.198154 365.702571 
L 556.204861 362.572343 
L 558.211569 362.96774 
L 560.218276 359.491116 
L 562.224983 361.20028 
L 564.23169 363.142627 
L 566.238398 362.6205 
L 568.245105 361.440222 
L 570.251812 361.907433 
L 572.258519 359.363542 
L 574.265227 361.314337 
L 576.271934 358.631043 
L 578.278641 357.539476 
L 580.285348 359.138807 
L 582.292056 350.938538 
L 584.298763 347.32927 
L 586.30547 345.28216 
L 588.312177 342.151931 
L 590.318885 341.824968 
L 592.325592 342.73151 
L 594.332299 345.081082 
L 596.339006 353.996108 
L 600.352421 365.298725 
L 602.359128 369.801861 
L 604.365835 374.950475 
L 606.372543 381.451719 
L 608.37925 382.546665 
L 610.385957 387.323537 
L 614.399372 394.572488 
L 616.406079 400.160431 
L 618.412786 402.238802 
L 620.419493 400.748458 
L 624.432908 405.154434 
L 626.439615 405.27694 
L 628.446322 405.832017 
L 630.45303 402.249785 
L 632.459737 401.612756 
L 634.466444 402.591956 
L 636.473151 402.898642 
L 638.479859 398.142046 
L 640.486566 394.351133 
L 642.493273 390.294086 
L 644.49998 387.869321 
L 648.513395 377.474089 
L 650.520102 368.626653 
L 652.526809 364.589038 
L 654.533517 359.052631 
L 656.540224 354.568927 
L 658.546931 341.903541 
L 660.553638 332.728296 
L 662.560346 319.392931 
L 664.567053 310.255705 
L 666.57376 299.137269 
L 668.580467 293.131961 
L 670.587175 285.923564 
L 672.593882 291.445609 
L 674.600589 284.881845 
L 676.607296 272.313618 
L 678.614004 264.45045 
L 680.620711 252.665414 
L 682.627418 236.455815 
L 684.634125 221.298074 
L 686.640833 203.358189 
L 688.64754 189.275118 
L 690.654247 182.70544 
L 692.660954 172.139546 
L 694.667662 174.394493 
L 696.674369 165.091673 
L 698.681076 160.859739 
L 700.687783 157.95509 
L 702.69449 167.540095 
L 706.707905 190.335425 
L 708.714612 192.433227 
L 710.721319 201.740271 
L 712.728027 215.67887 
L 714.734734 228.375516 
L 716.741441 234.88183 
L 718.748148 243.964139 
L 720.754856 250.585354 
L 722.761563 259.023031 
L 724.76827 270.535175 
L 728.781685 283.162542 
L 730.788392 294.977993 
L 734.801806 315.760007 
L 736.808514 322.678615 
L 736.808514 322.678615 
" style="fill:none;stroke:#5694ca;stroke-linecap:square;stroke-width:2;"/>
   </g>
   <g id="line2d_27">
    <path clip-path="url(#pc87d0a7f07)" d="M -1 476.745 
L 80.615243 476.64455 
L 84.628658 476.443649 
L 90.64878 476.368311 
L 92.655487 476.16741 
L 98.675609 475.840946 
L 100.682316 475.589819 
L 106.702438 475.313581 
L 108.709145 474.886666 
L 112.722559 474.334188 
L 114.729267 473.982612 
L 116.735974 473.204121 
L 120.749388 471.998715 
L 122.756096 471.320674 
L 124.762803 469.663241 
L 126.76951 467.076641 
L 128.776217 466.348375 
L 130.782925 464.690942 
L 132.789632 463.359974 
L 134.796339 460.949162 
L 136.803046 459.819094 
L 138.809754 459.693531 
L 140.816461 461.049612 
L 142.823168 459.944657 
L 144.829875 460.421797 
L 146.836583 459.090828 
L 148.84329 459.542855 
L 150.849997 458.689026 
L 152.856704 458.739251 
L 154.863412 458.563463 
L 156.870119 458.864815 
L 158.876826 457.935648 
L 160.883533 458.563463 
L 162.890241 457.935648 
L 164.896948 457.433395 
L 166.903655 455.675512 
L 168.910362 455.499723 
L 170.91707 456.880918 
L 172.923777 457.006481 
L 174.930484 456.278215 
L 176.937191 457.056706 
L 178.943899 458.161661 
L 180.950606 460.095333 
L 182.957313 460.522247 
L 184.96402 460.421797 
L 186.970728 461.953667 
L 188.977435 463.686438 
L 190.984142 464.163577 
L 192.990849 465.117857 
L 194.997557 465.218307 
L 197.004264 465.14297 
L 199.010971 464.866731 
L 201.017678 464.916956 
L 203.024386 465.494546 
L 205.031093 466.725065 
L 207.0378 466.976191 
L 211.051215 468.88475 
L 213.057922 468.909863 
L 215.064629 468.734074 
L 221.084751 469.738579 
L 225.098165 470.41662 
L 227.104873 471.019323 
L 229.11158 472.074053 
L 231.118287 471.973602 
L 237.138409 472.099165 
L 239.145116 471.521575 
L 243.158531 471.119773 
L 245.165238 471.772701 
L 247.171945 471.923377 
L 249.178652 472.62653 
L 251.18536 473.078557 
L 255.198774 474.359301 
L 257.205481 474.811328 
L 259.212189 474.384414 
L 261.218896 474.73599 
L 265.23231 474.73599 
L 267.239018 474.886666 
L 269.245725 474.911779 
L 271.252432 474.786216 
L 273.259139 475.514482 
L 275.265847 475.188018 
L 277.272554 475.464256 
L 281.285968 475.489369 
L 285.299383 475.640045 
L 287.30609 475.715383 
L 289.312797 476.041847 
L 301.353041 476.468761 
L 313.393284 476.292973 
L 315.399992 476.142297 
L 321.420113 476.217635 
L 323.426821 476.368311 
L 327.440235 476.242748 
L 331.45365 476.343198 
L 341.487186 476.292973 
L 345.5006 475.589819 
L 355.534137 475.589819 
L 359.547551 475.891171 
L 365.567673 475.891171 
L 367.57438 475.715383 
L 371.587795 475.715383 
L 373.594502 475.840946 
L 383.628038 475.840946 
L 385.634745 474.962004 
L 387.641452 474.836441 
L 393.661574 474.836441 
L 395.668281 473.831936 
L 397.674989 473.354796 
L 399.681696 474.233738 
L 401.688403 472.752093 
L 403.69511 471.119773 
L 405.701818 470.441732 
L 407.708525 469.46234 
L 409.715232 469.638129 
L 411.721939 469.512565 
L 413.728647 468.432723 
L 415.735354 469.788804 
L 417.742061 469.638129 
L 419.748768 467.327767 
L 421.755476 468.056033 
L 423.762183 467.905358 
L 425.76889 466.951078 
L 427.775597 466.499051 
L 429.782305 464.866731 
L 431.789012 464.414704 
L 433.795719 466.172587 
L 435.802426 464.967181 
L 441.822548 464.741168 
L 443.829255 465.343871 
L 445.835963 464.615605 
L 447.84267 463.184185 
L 449.849377 461.099838 
L 451.856084 461.325851 
L 453.862792 461.878329 
L 455.869499 461.853216 
L 457.876206 461.175176 
L 459.882913 461.526752 
L 461.889621 462.003892 
L 463.896328 462.807496 
L 465.903035 461.828104 
L 467.909742 459.819094 
L 471.923157 456.152652 
L 473.929864 453.189362 
L 475.936571 450.954339 
L 477.943279 450.552537 
L 479.949986 450.652988 
L 481.956693 448.367739 
L 483.9634 447.363235 
L 485.970108 444.600846 
L 487.976815 442.164922 
L 489.983522 441.888683 
L 491.990229 439.502985 
L 493.996937 433.350393 
L 496.003644 428.227418 
L 498.010351 426.469535 
L 500.017058 409.870093 
L 502.023766 399.649257 
L 504.030473 392.743286 
L 506.03718 382.798689 
L 508.043887 374.034384 
L 510.050595 363.888886 
L 512.057302 347.214106 
L 514.064009 343.547663 
L 516.070716 339.127842 
L 518.077424 323.95982 
L 520.084131 317.405426 
L 522.090838 312.533578 
L 524.097545 302.764768 
L 526.104253 306.782788 
L 528.11096 301.283124 
L 530.117667 298.043596 
L 534.131082 300.831097 
L 536.137789 299.575466 
L 538.144496 304.045512 
L 540.151203 297.039091 
L 542.157911 298.219384 
L 544.164618 300.931547 
L 546.171325 303.844611 
L 548.178032 306.180085 
L 552.191447 315.974007 
L 554.198154 321.498783 
L 556.204861 338.72604 
L 558.211569 345.606898 
L 560.218276 350.905661 
L 562.224983 356.782014 
L 566.238398 364.642264 
L 568.245105 372.326726 
L 570.251812 371.59846 
L 572.258519 374.637087 
L 574.265227 381.291931 
L 576.271934 381.844409 
L 578.278641 383.250716 
L 580.285348 380.438102 
L 582.292056 379.634498 
L 584.298763 379.333147 
L 586.30547 379.760061 
L 588.312177 378.454205 
L 590.318885 381.969972 
L 592.325592 381.09103 
L 594.332299 387.946776 
L 596.339006 389.478645 
L 598.345714 395.455449 
L 600.352421 399.322792 
L 602.359128 402.587433 
L 604.365835 403.868177 
L 606.372543 415.671108 
L 608.37925 415.294419 
L 610.385957 416.424487 
L 612.392664 415.872009 
L 614.399372 416.926739 
L 618.412786 416.449599 
L 620.419493 408.614462 
L 622.426201 411.552638 
L 624.432908 411.201062 
L 626.439615 409.74453 
L 628.446322 406.329213 
L 630.45303 404.621555 
L 632.459737 401.934505 
L 634.466444 402.93901 
L 636.473151 401.256464 
L 638.479859 401.633154 
L 640.486566 399.39813 
L 642.493273 398.770315 
L 644.49998 397.163107 
L 646.506688 396.61063 
L 648.513395 393.220426 
L 650.520102 392.542385 
L 652.526809 387.143172 
L 654.533517 387.846325 
L 656.540224 383.727855 
L 658.546931 383.175378 
L 660.553638 379.760061 
L 662.560346 380.940355 
L 664.567053 373.984159 
L 666.57376 369.338324 
L 668.580467 382.14576 
L 670.587175 373.155442 
L 672.593882 385.837316 
L 676.607296 330.438876 
L 678.614004 296.386163 
L 680.620711 269.063632 
L 682.627418 269.063632 
L 684.634125 204.323298 
L 686.640833 162.586124 
L 688.64754 158.392316 
L 690.654247 163.113489 
L 692.660954 167.081283 
L 694.667662 180.114732 
L 696.674369 142.445802 
L 698.681076 196.036133 
L 700.687783 209.848074 
L 702.69449 236.015424 
L 704.701198 240.359908 
L 706.707905 261.454509 
L 710.721319 283.679177 
L 712.728027 302.187178 
L 714.734734 309.469838 
L 716.741441 312.45824 
L 718.748148 324.813649 
L 722.761563 336.892819 
L 724.76827 341.588879 
L 726.774977 342.467821 
L 728.781685 352.23663 
L 730.788392 357.711181 
L 732.795099 361.804538 
L 734.801806 371.297109 
L 736.808514 374.812875 
L 736.808514 374.812875 
" style="fill:none;stroke:#ffdd00;stroke-linecap:square;stroke-width:2;"/>
   </g>
   <g id="line2d_28">
    <path clip-path="url(#pc87d0a7f07)" d="M -1 476.745 
L 78.608536 476.649251 
L 88.642072 476.457754 
L 94.662194 475.831034 
L 96.668901 475.569901 
L 100.682316 475.282655 
L 108.709145 474.551482 
L 110.715852 474.455734 
L 114.729267 473.358975 
L 116.735974 472.462418 
L 118.742681 471.278615 
L 120.749388 470.329831 
L 122.756096 469.154733 
L 126.76951 467.483481 
L 128.776217 464.480451 
L 130.782925 462.896244 
L 132.789632 461.877825 
L 134.796339 459.840987 
L 136.803046 458.465686 
L 138.809754 456.533302 
L 140.816461 455.871765 
L 142.823168 457.281883 
L 144.829875 457.116499 
L 146.836583 456.246056 
L 148.84329 456.951115 
L 152.856704 457.543016 
L 154.863412 458.41346 
L 156.870119 458.213258 
L 158.876826 457.743218 
L 160.883533 458.073987 
L 162.890241 458.169736 
L 164.896948 457.33411 
L 166.903655 456.94241 
L 168.910362 456.002331 
L 170.91707 456.602937 
L 172.923777 456.811844 
L 174.930484 456.663868 
L 176.937191 456.829253 
L 178.943899 457.325405 
L 180.950606 458.143622 
L 182.957313 458.718115 
L 184.96402 458.909613 
L 188.977435 459.823578 
L 190.984142 459.710421 
L 192.990849 460.41548 
L 194.997557 461.312037 
L 199.010971 461.80819 
L 201.017678 462.165071 
L 203.024386 463.070333 
L 205.031093 463.73187 
L 207.0378 464.750289 
L 209.044507 464.65454 
L 213.057922 465.202919 
L 215.064629 466.125589 
L 217.071336 466.360609 
L 219.078044 467.074373 
L 221.084751 466.804535 
L 225.098165 468.327811 
L 231.118287 470.312423 
L 233.124994 470.573556 
L 235.131702 471.574566 
L 237.138409 471.835699 
L 239.145116 471.853108 
L 243.158531 472.488531 
L 245.165238 472.984684 
L 247.171945 473.628812 
L 249.178652 473.776788 
L 253.192067 474.464438 
L 255.198774 474.255532 
L 257.205481 474.447029 
L 261.218896 474.525369 
L 263.225603 474.82132 
L 267.239018 474.82132 
L 269.245725 475.160793 
L 275.265847 475.639537 
L 279.279261 475.578606 
L 285.299383 475.395813 
L 289.312797 475.448039 
L 293.326212 475.395813 
L 297.339626 475.552492 
L 309.37987 476.126985 
L 333.460357 476.283665 
L 337.473771 476.179212 
L 347.507308 476.031236 
L 353.527429 475.82233 
L 361.554258 475.656946 
L 363.560966 475.82233 
L 365.567673 475.857148 
L 367.57438 476.013827 
L 371.587795 475.90067 
L 373.594502 475.813625 
L 375.601209 475.891965 
L 379.614624 475.526379 
L 381.621331 475.360995 
L 385.634745 474.568891 
L 387.641452 474.455734 
L 389.64816 474.090147 
L 395.668281 473.593995 
L 399.681696 473.907354 
L 401.688403 473.715857 
L 407.708525 473.863832 
L 411.721939 473.863832 
L 413.728647 473.602699 
L 415.735354 473.550472 
L 417.742061 472.923753 
L 421.755476 472.227398 
L 423.762183 472.27092 
L 425.76889 472.122945 
L 429.782305 472.375374 
L 431.789012 472.680029 
L 433.795719 472.331851 
L 435.802426 471.513635 
L 437.809134 470.556147 
L 439.815841 469.781452 
L 441.822548 469.494206 
L 443.829255 468.554127 
L 445.835963 468.092792 
L 447.84267 467.352915 
L 449.849377 467.474777 
L 451.856084 467.283279 
L 453.862792 467.257166 
L 455.869499 466.7349 
L 457.876206 466.595629 
L 459.882913 465.899274 
L 461.889621 465.585914 
L 463.896328 466.247451 
L 465.903035 465.455348 
L 467.909742 464.515269 
L 469.91645 463.392397 
L 471.923157 463.148673 
L 473.929864 462.0258 
L 475.936571 462.017096 
L 477.943279 460.406775 
L 479.949986 459.397061 
L 481.956693 457.49079 
L 483.9634 455.967514 
L 487.976815 449.709025 
L 489.983522 448.847286 
L 491.990229 449.134532 
L 493.996937 445.452556 
L 496.003644 444.112073 
L 500.017058 440.45621 
L 502.023766 440.020989 
L 504.030473 436.417353 
L 506.03718 432.282746 
L 508.043887 432.334973 
L 510.050595 428.731336 
L 512.057302 425.606444 
L 514.064009 421.506655 
L 516.070716 419.374069 
L 518.077424 417.650591 
L 520.084131 415.35262 
L 522.090838 411.026516 
L 524.097545 407.762353 
L 526.104253 404.942116 
L 528.11096 405.377337 
L 530.117667 404.002037 
L 532.124374 409.572875 
L 534.131082 409.294333 
L 536.137789 407.910328 
L 538.144496 405.211953 
L 540.151203 402.069652 
L 542.157911 400.285243 
L 544.164618 397.969863 
L 546.171325 389.378586 
L 548.178032 388.255714 
L 550.18474 389.378586 
L 552.191447 394.052867 
L 554.198154 399.136257 
L 556.204861 400.18079 
L 558.211569 403.070662 
L 560.218276 404.419849 
L 562.224983 405.908308 
L 564.23169 408.763363 
L 566.238398 406.752638 
L 568.245105 405.986648 
L 570.251812 407.805875 
L 572.258519 403.497179 
L 576.271934 404.123899 
L 580.285348 407.074702 
L 582.292056 407.10952 
L 584.298763 404.628756 
L 586.30547 408.789476 
L 588.312177 408.406481 
L 590.318885 410.103846 
L 592.325592 406.482801 
L 594.332299 406.456687 
L 596.339006 407.527333 
L 598.345714 410.478136 
L 600.352421 412.488861 
L 602.359128 415.230758 
L 604.365835 413.211329 
L 606.372543 417.363344 
L 608.37925 420.705847 
L 610.385957 419.522044 
L 612.392664 419.948562 
L 616.406079 421.663335 
L 618.412786 426.711908 
L 620.419493 426.859883 
L 622.426201 426.241868 
L 624.432908 428.565952 
L 628.446322 428.687814 
L 630.45303 429.584371 
L 632.459737 426.903405 
L 636.473151 427.91312 
L 638.479859 428.13073 
L 640.486566 427.826075 
L 642.493273 425.327902 
L 644.49998 423.961306 
L 646.506688 423.465153 
L 648.513395 422.133375 
L 650.520102 423.943897 
L 652.526809 424.59673 
L 654.533517 426.83377 
L 656.540224 431.116352 
L 658.546931 429.949957 
L 660.553638 423.247542 
L 662.560346 419.147754 
L 664.567053 414.786832 
L 666.57376 410.817609 
L 668.580467 407.153042 
L 670.587175 402.130583 
L 672.593882 403.819243 
L 674.600589 408.493525 
L 676.607296 403.453657 
L 678.614004 396.011365 
L 682.627418 372.666071 
L 684.634125 364.066089 
L 686.640833 349.059643 
L 688.64754 340.894883 
L 690.654247 335.376271 
L 692.660954 335.428498 
L 694.667662 335.193478 
L 696.674369 337.195498 
L 698.681076 339.563104 
L 700.687783 344.672608 
L 702.69449 345.743253 
L 704.701198 351.435954 
L 706.707905 352.219353 
L 708.714612 360.41893 
L 710.721319 361.715891 
L 712.728027 362.690788 
L 714.734734 367.356365 
L 716.741441 370.429031 
L 718.748148 376.60918 
L 720.754856 379.159579 
L 722.761563 379.777594 
L 724.76827 385.69661 
L 726.774977 389.578788 
L 728.781685 390.849635 
L 730.788392 396.742538 
L 732.795099 397.752252 
L 734.801806 400.589898 
L 736.808514 404.376327 
L 736.808514 404.376327 
" style="fill:none;stroke:#003078;stroke-linecap:square;stroke-width:2;"/>
   </g>
   <g id="line2d_29">
    <path clip-path="url(#pc87d0a7f07)" d="M -1 476.745 
L 86.635365 476.669585 
L 92.655487 476.202011 
L 94.662194 475.870185 
L 98.675609 474.935037 
L 106.702438 474.437298 
L 108.709145 473.426735 
L 110.715852 472.928996 
L 114.729267 471.586607 
L 116.735974 469.520233 
L 118.742681 468.132595 
L 120.749388 465.734395 
L 124.762803 463.260779 
L 126.76951 461.164239 
L 128.776217 460.379922 
L 130.782925 458.509628 
L 134.796339 453.441733 
L 136.803046 450.198883 
L 138.809754 447.242611 
L 140.816461 445.854973 
L 142.823168 443.155112 
L 144.829875 443.019365 
L 146.836583 447.061615 
L 148.84329 444.693581 
L 150.849997 445.402483 
L 152.856704 445.055573 
L 154.863412 444.88966 
L 156.870119 445.68906 
L 158.876826 445.854973 
L 160.883533 441.812724 
L 162.890241 445.704143 
L 164.896948 446.428128 
L 168.910362 447.483939 
L 170.91707 446.48846 
L 172.923777 446.458294 
L 174.930484 447.212445 
L 176.937191 447.227528 
L 178.943899 447.121947 
L 180.950606 449.474898 
L 184.96402 451.661936 
L 186.970728 454.029971 
L 188.977435 454.799205 
L 190.984142 456.051095 
L 192.990849 457.800726 
L 197.004264 457.981722 
L 199.010971 459.293945 
L 201.017678 459.625771 
L 203.024386 461.073741 
L 205.031093 461.194405 
L 207.0378 462.174802 
L 209.044507 461.435734 
L 211.051215 462.506628 
L 213.057922 463.109949 
L 217.071336 461.91839 
L 219.078044 462.310549 
L 221.084751 461.330153 
L 223.091458 462.250217 
L 225.098165 462.597126 
L 227.104873 461.677062 
L 229.11158 462.023972 
L 231.118287 461.450817 
L 233.124994 461.269821 
L 235.131702 461.239655 
L 237.138409 461.571481 
L 239.145116 461.496066 
L 241.151823 461.873141 
L 243.158531 462.069221 
L 245.165238 463.487025 
L 247.171945 464.030013 
L 249.178652 465.523232 
L 251.18536 466.398048 
L 253.192067 467.10695 
L 255.198774 468.223093 
L 257.205481 468.449339 
L 259.212189 469.00741 
L 261.218896 469.399569 
L 265.23231 470.696709 
L 267.239018 470.95312 
L 269.245725 471.330196 
L 271.252432 471.993848 
L 273.259139 471.571524 
L 279.279261 471.526275 
L 285.299383 470.65146 
L 287.30609 470.877705 
L 289.312797 471.571524 
L 291.319505 471.873184 
L 293.326212 470.95312 
L 295.332919 470.817373 
L 297.339626 471.028535 
L 299.346334 471.119033 
L 301.353041 469.957641 
L 303.359748 469.444818 
L 305.366455 469.128074 
L 307.373163 470.259301 
L 309.37987 469.580565 
L 311.386577 469.957641 
L 313.393284 470.183886 
L 315.399992 471.45086 
L 317.406699 472.039097 
L 321.420113 472.370924 
L 323.426821 473.99989 
L 329.446942 475.025536 
L 331.45365 475.266864 
L 333.460357 475.674106 
L 337.473771 475.613773 
L 339.480479 475.327196 
L 355.534137 474.723875 
L 361.554258 473.607732 
L 363.560966 473.743479 
L 365.567673 473.290988 
L 367.57438 473.306071 
L 369.581087 473.155241 
L 371.587795 473.668064 
L 373.594502 473.954641 
L 375.601209 474.090388 
L 377.607916 473.864143 
L 379.614624 474.180886 
L 381.621331 474.165803 
L 383.628038 474.437298 
L 385.634745 474.3468 
L 397.674989 475.085868 
L 401.688403 475.070785 
L 403.69511 474.950121 
L 405.701818 475.070785 
L 407.708525 475.040619 
L 417.742061 474.271385 
L 423.762183 474.105471 
L 427.775597 473.668064 
L 431.789012 473.577566 
L 433.795719 473.034577 
L 437.809134 472.386007 
L 441.822548 472.039097 
L 443.829255 471.782686 
L 447.84267 470.591127 
L 451.856084 467.680104 
L 453.862792 465.824893 
L 455.869499 465.040576 
L 459.882913 462.491545 
L 461.889621 461.526232 
L 463.896328 460.772081 
L 465.903035 461.375402 
L 467.909742 460.862579 
L 469.91645 459.8671 
L 473.929864 458.358798 
L 475.936571 457.800726 
L 477.943279 457.031492 
L 479.949986 454.452295 
L 483.9634 448.871577 
L 485.970108 446.83537 
L 489.983522 441.99372 
L 491.990229 441.209403 
L 493.996937 439.927346 
L 496.003644 439.942429 
L 498.010351 439.188278 
L 500.017058 437.046489 
L 502.023766 433.939387 
L 504.030473 432.883575 
L 506.03718 428.207839 
L 508.043887 427.317941 
L 510.050595 421.827721 
L 512.057302 418.207796 
L 514.064009 413.622558 
L 516.070716 412.853324 
L 518.077424 412.325418 
L 520.084131 413.969467 
L 522.090838 408.856323 
L 524.097545 405.930217 
L 526.104253 404.587828 
L 528.11096 401.375145 
L 530.117667 400.666243 
L 532.124374 393.381144 
L 534.131082 391.284604 
L 536.137789 385.492724 
L 538.144496 385.251395 
L 540.151203 379.112606 
L 542.157911 382.400704 
L 544.164618 372.596741 
L 546.171325 370.273956 
L 548.178032 362.249788 
L 550.18474 361.35989 
L 552.191447 354.542365 
L 554.198154 350.907357 
L 556.204861 336.186328 
L 558.211569 336.533238 
L 560.218276 340.831899 
L 562.224983 333.471385 
L 564.23169 334.79869 
L 566.238398 337.996291 
L 568.245105 339.549842 
L 570.251812 345.356805 
L 572.258519 350.530281 
L 574.265227 351.661508 
L 578.278641 372.626907 
L 580.285348 376.759655 
L 582.292056 382.868278 
L 584.298763 391.239355 
L 586.30547 391.61643 
L 588.312177 382.732531 
L 590.318885 383.320769 
L 592.325592 379.3841 
L 594.332299 383.758176 
L 596.339006 381.028149 
L 598.345714 377.664636 
L 600.352421 376.412745 
L 602.359128 384.331331 
L 604.365835 384.331331 
L 606.372543 385.990463 
L 608.37925 381.933131 
L 610.385957 378.871277 
L 612.392664 377.589221 
L 614.399372 371.118605 
L 616.406079 368.162333 
L 618.412786 369.519804 
L 620.419493 368.433827 
L 622.426201 359.791256 
L 624.432908 356.442825 
L 626.439615 350.92244 
L 628.446322 347.905836 
L 630.45303 334.150121 
L 632.459737 315.763918 
L 634.466444 314.059537 
L 636.473151 302.626607 
L 638.479859 295.160512 
L 640.486566 283.652167 
L 642.493273 270.846682 
L 644.49998 299.74575 
L 646.506688 311.706585 
L 648.513395 314.195284 
L 650.520102 339.957084 
L 652.526809 196.668385 
L 656.540224 179.503907 
L 658.546931 144.300137 
L 660.553638 124.164304 
L 662.560346 91.796141 
L 664.567053 54.345 
L 666.57376 194.722675 
L 668.580467 236.970217 
L 670.587175 249.458958 
L 672.593882 222.188856 
L 674.600589 226.562933 
L 676.607296 230.348771 
L 678.614004 241.389542 
L 680.620711 246.366939 
L 682.627418 246.366939 
L 684.634125 238.418187 
L 686.640833 240.394063 
L 688.64754 246.050196 
L 690.654247 252.701808 
L 692.660954 253.350378 
L 694.667662 255.054759 
L 696.674369 217.543286 
L 698.681076 223.440747 
L 700.687783 258.900929 
L 702.69449 260.484646 
L 706.707905 282.234363 
L 708.714612 283.350506 
L 710.721319 293.591877 
L 712.728027 312.355155 
L 716.741441 326.668942 
L 718.748148 330.077705 
L 720.754856 333.84846 
L 722.761563 341.254223 
L 724.76827 356.442825 
L 726.774977 357.196976 
L 728.781685 362.868192 
L 730.788392 369.806382 
L 732.795099 377.890881 
L 734.801806 389.142815 
L 736.808514 395.900008 
L 736.808514 395.900008 
" style="fill:none;stroke:#d4351c;stroke-linecap:square;stroke-width:2;"/>
   </g>
   <g id="patch_3">
    <path d="M 68.575 476.745 
L 738.175 476.745 
" style="fill:none;stroke:#000000;stroke-linecap:square;stroke-linejoin:miter;stroke-width:0.8;"/>
   </g>
   <g id="text_20">
    <!-- Average COVID-19 cases by date reported, per capita -->
    <g transform="translate(245.429688 27.225)scale(0.12 -0.12)">
     <defs>
      <path d="M 18.859375 0 
L 2.375 0 
L 27.484375 72.734375 
L 47.296875 72.734375 
L 72.375 0 
L 55.890625 0 
L 50.5 16.578125 
L 24.25 16.578125 
z
M 28.15625 28.59375 
L 46.625 28.59375 
L 37.671875 56.109375 
L 37.109375 56.109375 
z
" id="Inter-Bold-65"/>
      <path d="M 56.890625 54.546875 
L 37.828125 0 
L 20.78125 0 
L 1.703125 54.546875 
L 17.6875 54.546875 
L 29.015625 15.515625 
L 29.578125 15.515625 
L 40.875 54.546875 
z
" id="Inter-Bold-118"/>
      <path d="M 30.890625 -1.0625 
Q 22.515625 -1.0625 16.4375 2.359375 
Q 10.375 5.78125 7.109375 12.078125 
Q 3.84375 18.390625 3.84375 27.03125 
Q 3.84375 35.4375 7.109375 41.796875 
Q 10.375 48.15625 16.3125 51.703125 
Q 22.265625 55.25 30.296875 55.25 
Q 37.5 55.25 43.296875 52.1875 
Q 49.109375 49.140625 52.515625 42.984375 
Q 55.9375 36.828125 55.9375 27.5625 
L 55.9375 23.40625 
L 18.78125 23.40625 
L 18.78125 23.359375 
Q 18.78125 17.265625 22.125 13.75 
Q 25.46875 10.234375 31.140625 10.234375 
Q 34.9375 10.234375 37.703125 11.828125 
Q 40.484375 13.421875 41.625 16.546875 
L 55.609375 15.625 
Q 54.015625 8.03125 47.515625 3.484375 
Q 41.015625 -1.0625 30.890625 -1.0625 
z
M 18.78125 32.78125 
L 41.6875 32.78125 
Q 41.65625 37.640625 38.5625 40.796875 
Q 35.484375 43.96875 30.546875 43.96875 
Q 25.5 43.96875 22.265625 40.6875 
Q 19.03125 37.421875 18.78125 32.78125 
z
" id="Inter-Bold-101"/>
      <path d="M 6.03125 0 
L 6.03125 54.546875 
L 20.703125 54.546875 
L 20.703125 45.03125 
L 21.265625 45.03125 
Q 22.765625 50.109375 26.265625 52.71875 
Q 29.765625 55.328125 34.375 55.328125 
Q 36.578125 55.328125 38.453125 54.796875 
Q 40.34375 54.265625 41.828125 53.34375 
L 37.28125 40.84375 
Q 36.21875 41.375 34.953125 41.734375 
Q 33.703125 42.109375 32.140625 42.109375 
Q 27.5625 42.109375 24.375 38.984375 
Q 21.203125 35.859375 21.171875 30.859375 
L 21.171875 0 
z
" id="Inter-Bold-114"/>
      <path d="M 21.59375 -1.03125 
Q 13.78125 -1.03125 8.625 3.046875 
Q 3.484375 7.140625 3.484375 15.234375 
Q 3.484375 21.34375 6.359375 24.8125 
Q 9.234375 28.296875 13.90625 29.90625 
Q 18.578125 31.53125 23.96875 32.03125 
Q 31.078125 32.734375 34.125 33.515625 
Q 37.1875 34.296875 37.1875 36.9375 
L 37.1875 37.140625 
Q 37.1875 40.515625 35.0625 42.359375 
Q 32.953125 44.21875 29.078125 44.21875 
Q 25 44.21875 22.578125 42.4375 
Q 20.171875 40.65625 19.390625 37.921875 
L 5.40625 39.0625 
Q 6.96875 46.515625 13.15625 50.875 
Q 19.359375 55.25 29.15625 55.25 
Q 35.234375 55.25 40.515625 53.328125 
Q 45.8125 51.421875 49.0625 47.34375 
Q 52.3125 43.28125 52.3125 36.796875 
L 52.3125 0 
L 37.96875 0 
L 37.96875 7.5625 
L 37.53125 7.5625 
Q 35.546875 3.765625 31.578125 1.359375 
Q 27.625 -1.03125 21.59375 -1.03125 
z
M 25.921875 9.40625 
Q 30.890625 9.40625 34.078125 12.296875 
Q 37.28125 15.203125 37.28125 19.5 
L 37.28125 25.28125 
Q 36.40625 24.6875 34.53125 24.21875 
Q 32.671875 23.75 30.5625 23.40625 
Q 28.453125 23.078125 26.78125 22.828125 
Q 22.796875 22.265625 20.359375 20.59375 
Q 17.9375 18.921875 17.9375 15.734375 
Q 17.9375 12.609375 20.1875 11 
Q 22.4375 9.40625 25.921875 9.40625 
z
" id="Inter-Bold-97"/>
      <path d="M 30.609375 -21.234375 
Q 19.609375 -21.234375 13.3125 -16.90625 
Q 7.03125 -12.578125 5.6875 -6.390625 
L 19.671875 -4.515625 
Q 20.59375 -6.71875 23.265625 -8.546875 
Q 25.953125 -10.375 30.96875 -10.375 
Q 35.90625 -10.375 39.109375 -8.03125 
Q 42.328125 -5.6875 42.328125 -0.3125 
L 42.328125 9.65625 
L 41.6875 9.65625 
Q 40.203125 6.28125 36.4375 3.53125 
Q 32.671875 0.78125 26.140625 0.78125 
Q 20 0.78125 14.96875 3.65625 
Q 9.9375 6.53125 6.96875 12.421875 
Q 4.015625 18.328125 4.015625 27.375 
Q 4.015625 36.6875 7.046875 42.859375 
Q 10.09375 49.046875 15.109375 52.140625 
Q 20.140625 55.25 26.109375 55.25 
Q 30.6875 55.25 33.765625 53.703125 
Q 36.859375 52.171875 38.78125 49.890625 
Q 40.703125 47.625 41.6875 45.390625 
L 42.265625 45.390625 
L 42.265625 54.546875 
L 57.28125 54.546875 
L 57.28125 -0.53125 
Q 57.28125 -7.3125 53.84375 -11.921875 
Q 50.421875 -16.546875 44.421875 -18.890625 
Q 38.421875 -21.234375 30.609375 -21.234375 
z
M 30.9375 12.140625 
Q 36.40625 12.140625 39.40625 16.1875 
Q 42.40625 20.234375 42.40625 27.453125 
Q 42.40625 34.625 39.421875 38.921875 
Q 36.4375 43.21875 30.9375 43.21875 
Q 25.328125 43.21875 22.390625 38.8125 
Q 19.46875 34.40625 19.46875 27.453125 
Q 19.46875 20.390625 22.40625 16.265625 
Q 25.359375 12.140625 30.9375 12.140625 
z
" id="Inter-Bold-103"/>
      <path id="Inter-Bold-32"/>
      <path d="M 70.484375 47.265625 
L 54.9375 47.265625 
Q 54.046875 53.265625 49.8125 56.6875 
Q 45.59375 60.125 39.28125 60.125 
Q 30.828125 60.125 25.734375 53.921875 
Q 20.640625 47.734375 20.640625 36.359375 
Q 20.640625 24.71875 25.765625 18.65625 
Q 30.890625 12.609375 39.171875 12.609375 
Q 45.3125 12.609375 49.578125 15.8125 
Q 53.84375 19.03125 54.9375 24.859375 
L 70.484375 24.78125 
Q 69.671875 18.109375 65.734375 12.21875 
Q 61.796875 6.328125 55.03125 2.65625 
Q 48.265625 -1 38.921875 -1 
Q 29.1875 -1 21.53125 3.40625 
Q 13.890625 7.8125 9.46875 16.15625 
Q 5.046875 24.5 5.046875 36.359375 
Q 5.046875 48.265625 9.515625 56.609375 
Q 14 64.953125 21.65625 69.328125 
Q 29.328125 73.71875 38.921875 73.71875 
Q 47.34375 73.71875 54.109375 70.609375 
Q 60.875 67.5 65.1875 61.59375 
Q 69.5 55.6875 70.484375 47.265625 
z
" id="Inter-Bold-67"/>
      <path d="M 73.15625 36.359375 
Q 73.15625 24.46875 68.65625 16.125 
Q 64.171875 7.78125 56.46875 3.390625 
Q 48.765625 -1 39.09375 -1 
Q 29.40625 -1 21.703125 3.40625 
Q 14 7.8125 9.515625 16.171875 
Q 5.046875 24.53125 5.046875 36.359375 
Q 5.046875 48.265625 9.515625 56.609375 
Q 14 64.953125 21.703125 69.328125 
Q 29.40625 73.71875 39.09375 73.71875 
Q 48.765625 73.71875 56.46875 69.328125 
Q 64.171875 64.953125 68.65625 56.609375 
Q 73.15625 48.265625 73.15625 36.359375 
z
M 57.5625 36.359375 
Q 57.5625 47.9375 52.515625 54.03125 
Q 47.484375 60.125 39.09375 60.125 
Q 30.71875 60.125 25.671875 54.03125 
Q 20.640625 47.9375 20.640625 36.359375 
Q 20.640625 24.828125 25.671875 18.71875 
Q 30.71875 12.609375 39.09375 12.609375 
Q 47.484375 12.609375 52.515625 18.71875 
Q 57.5625 24.828125 57.5625 36.359375 
z
" id="Inter-Bold-79"/>
      <path d="M 19.46875 72.734375 
L 37.046875 17.46875 
L 37.71875 17.46875 
L 55.328125 72.734375 
L 72.375 72.734375 
L 47.296875 0 
L 27.484375 0 
L 2.375 72.734375 
z
" id="Inter-Bold-86"/>
      <path d="M 21.703125 72.734375 
L 21.703125 0 
L 6.328125 0 
L 6.328125 72.734375 
z
" id="Inter-Bold-73"/>
      <path d="M 32.109375 0 
L 6.328125 0 
L 6.328125 72.734375 
L 32.3125 72.734375 
Q 43.296875 72.734375 51.21875 68.375 
Q 59.15625 64.03125 63.421875 55.890625 
Q 67.6875 47.765625 67.6875 36.4375 
Q 67.6875 25.078125 63.40625 16.90625 
Q 59.125 8.734375 51.15625 4.359375 
Q 43.1875 0 32.109375 0 
z
M 21.703125 13.171875 
L 31.46875 13.171875 
Q 41.734375 13.171875 47.03125 18.703125 
Q 52.34375 24.25 52.34375 36.4375 
Q 52.34375 48.546875 47.03125 54.046875 
Q 41.734375 59.546875 31.5 59.546875 
L 21.703125 59.546875 
z
" id="Inter-Bold-68"/>
      <path d="M 40.015625 35.859375 
L 40.015625 23.859375 
L 6.859375 23.859375 
L 6.859375 35.859375 
z
" id="Inter-Bold-45"/>
      <path d="M 36.015625 72.734375 
L 36.015625 0 
L 20.671875 0 
L 20.671875 53.90625 
L 20 53.90625 
Q 18.828125 52.09375 15.015625 50.296875 
Q 11.21875 48.515625 5.1875 48.515625 
L 5.1875 60.71875 
Q 9.875 60.71875 13.390625 62.796875 
Q 16.90625 64.875 18.890625 67.703125 
Q 20.875 70.53125 20.953125 72.734375 
z
" id="Inter-Bold-49"/>
      <path d="M 32.203125 73.9375 
Q 37.828125 73.9375 43.015625 72.0625 
Q 48.21875 70.203125 52.3125 66.046875 
Q 56.421875 61.890625 58.84375 55.046875 
Q 61.265625 48.21875 61.265625 38.25 
Q 61.265625 25.921875 57.59375 17.125 
Q 53.9375 8.34375 47.3125 3.671875 
Q 40.703125 -1 31.671875 -1 
Q 24.390625 -1 18.8125 1.828125 
Q 13.25 4.65625 9.859375 9.53125 
Q 6.46875 14.421875 5.75 20.53125 
L 20.921875 20.53125 
Q 21.8125 16.546875 24.640625 14.359375 
Q 27.484375 12.1875 31.671875 12.1875 
Q 38.78125 12.1875 42.46875 18.375 
Q 46.171875 24.578125 46.203125 35.375 
L 45.703125 35.375 
Q 43.296875 30.578125 38.328125 27.84375 
Q 33.375 25.109375 27.375 25.109375 
Q 20.953125 25.109375 15.875 28.140625 
Q 10.796875 31.171875 7.90625 36.46875 
Q 5.015625 41.765625 5.046875 48.578125 
Q 5.015625 55.96875 8.421875 61.703125 
Q 11.828125 67.4375 17.953125 70.703125 
Q 24.078125 73.96875 32.203125 73.9375 
z
M 32.3125 61.859375 
Q 26.953125 61.859375 23.4375 58.15625 
Q 19.921875 54.46875 19.953125 49 
Q 19.921875 43.609375 23.375 39.921875 
Q 26.84375 36.25 32.171875 36.25 
Q 35.6875 36.25 38.515625 37.984375 
Q 41.34375 39.734375 42.984375 42.640625 
Q 44.640625 45.5625 44.671875 49.078125 
Q 44.640625 52.59375 43.015625 55.484375 
Q 41.40625 58.375 38.640625 60.109375 
Q 35.875 61.859375 32.3125 61.859375 
z
" id="Inter-Bold-57"/>
      <path d="M 30.6875 -1.0625 
Q 22.296875 -1.0625 16.28125 2.5 
Q 10.265625 6.078125 7.046875 12.421875 
Q 3.84375 18.78125 3.84375 27.0625 
Q 3.84375 35.4375 7.078125 41.78125 
Q 10.328125 48.125 16.328125 51.6875 
Q 22.34375 55.25 30.609375 55.25 
Q 37.75 55.25 43.125 52.65625 
Q 48.515625 50.078125 51.609375 45.390625 
Q 54.71875 40.703125 55.046875 34.375 
L 40.765625 34.375 
Q 40.171875 38.453125 37.59375 40.953125 
Q 35.015625 43.46875 30.859375 43.46875 
Q 25.609375 43.46875 22.40625 39.234375 
Q 19.21875 35.015625 19.21875 27.265625 
Q 19.21875 19.453125 22.390625 15.171875 
Q 25.5625 10.90625 30.859375 10.90625 
Q 34.765625 10.90625 37.421875 13.265625 
Q 40.09375 15.625 40.765625 20 
L 55.046875 20 
Q 54.6875 13.75 51.640625 8.984375 
Q 48.609375 4.21875 43.28125 1.578125 
Q 37.96875 -1.0625 30.6875 -1.0625 
z
" id="Inter-Bold-99"/>
      <path d="M 51.421875 38.984375 
L 37.578125 38.140625 
Q 37 40.765625 34.6875 42.640625 
Q 32.390625 44.53125 28.453125 44.53125 
Q 24.9375 44.53125 22.5 43.046875 
Q 20.0625 41.578125 20.09375 39.140625 
Q 20.0625 37.1875 21.640625 35.828125 
Q 23.21875 34.484375 27.03125 33.671875 
L 36.890625 31.671875 
Q 52.625 28.4375 52.671875 16.90625 
Q 52.671875 11.546875 49.515625 7.484375 
Q 46.375 3.4375 40.90625 1.1875 
Q 35.4375 -1.0625 28.375 -1.0625 
Q 17.546875 -1.0625 11.109375 3.453125 
Q 4.6875 7.984375 3.625 15.796875 
L 18.5 16.578125 
Q 19.21875 13.25 21.78125 11.546875 
Q 24.359375 9.84375 28.40625 9.84375 
Q 32.390625 9.84375 34.8125 11.40625 
Q 37.25 12.96875 37.28125 15.375 
Q 37.1875 19.421875 30.296875 20.8125 
L 20.84375 22.6875 
Q 5.015625 25.859375 5.078125 38.28125 
Q 5.046875 46.171875 11.375 50.703125 
Q 17.71875 55.25 28.203125 55.25 
Q 38.53125 55.25 44.46875 50.875 
Q 50.421875 46.515625 51.421875 38.984375 
z
" id="Inter-Bold-115"/>
      <path d="M 6.328125 0 
L 6.328125 72.734375 
L 21.453125 72.734375 
L 21.453125 45.390625 
L 21.90625 45.390625 
Q 22.9375 47.625 24.8125 49.890625 
Q 26.703125 52.171875 29.796875 53.703125 
Q 32.890625 55.25 37.4375 55.25 
Q 43.4375 55.25 48.4375 52.140625 
Q 53.453125 49.046875 56.484375 42.8125 
Q 59.515625 36.578125 59.515625 27.203125 
Q 59.515625 18.078125 56.5625 11.8125 
Q 53.625 5.546875 48.609375 2.328125 
Q 43.609375 -0.890625 37.390625 -0.890625 
Q 32.984375 -0.890625 29.90625 0.5625 
Q 26.84375 2.03125 24.90625 4.25 
Q 22.984375 6.46875 21.90625 8.734375 
L 21.234375 8.734375 
L 21.234375 0 
z
M 21.125 27.265625 
Q 21.125 20 24.125 15.578125 
Q 27.125 11.15625 32.59375 11.15625 
Q 38.171875 11.15625 41.125 15.640625 
Q 44.078125 20.140625 44.078125 27.265625 
Q 44.078125 34.375 41.140625 38.796875 
Q 38.21875 43.21875 32.59375 43.21875 
Q 27.09375 43.21875 24.109375 38.90625 
Q 21.125 34.59375 21.125 27.265625 
z
" id="Inter-Bold-98"/>
      <path d="M 14.84375 -21.234375 
Q 11.609375 -21.234375 9.3125 -20.6875 
Q 7.03125 -20.140625 5.75 -19.5625 
L 9.15625 -7.84375 
Q 13.171875 -9.0625 15.921875 -8.484375 
Q 18.6875 -7.921875 20.28125 -4.1875 
L 21.265625 -1.5625 
L 1.703125 54.546875 
L 17.609375 54.546875 
L 28.90625 14.484375 
L 29.46875 14.484375 
L 40.875 54.546875 
L 56.890625 54.546875 
L 35.578125 -6.25 
Q 33.28125 -12.78125 28.21875 -17 
Q 23.15625 -21.234375 14.84375 -21.234375 
z
" id="Inter-Bold-121"/>
      <path d="M 26.140625 -0.890625 
Q 19.921875 -0.890625 14.90625 2.328125 
Q 9.90625 5.546875 6.953125 11.8125 
Q 4.015625 18.078125 4.015625 27.203125 
Q 4.015625 36.578125 7.046875 42.8125 
Q 10.09375 49.046875 15.109375 52.140625 
Q 20.140625 55.25 26.109375 55.25 
Q 30.6875 55.25 33.75 53.703125 
Q 36.828125 52.171875 38.71875 49.890625 
Q 40.625 47.625 41.625 45.390625 
L 42.078125 45.390625 
L 42.078125 72.734375 
L 57.171875 72.734375 
L 57.171875 0 
L 42.265625 0 
L 42.265625 8.734375 
L 41.625 8.734375 
Q 40.59375 6.46875 38.640625 4.25 
Q 36.6875 2.03125 33.609375 0.5625 
Q 30.546875 -0.890625 26.140625 -0.890625 
z
M 30.9375 11.15625 
Q 36.40625 11.15625 39.40625 15.578125 
Q 42.40625 20 42.40625 27.265625 
Q 42.40625 34.59375 39.421875 38.90625 
Q 36.4375 43.21875 30.9375 43.21875 
Q 25.328125 43.21875 22.390625 38.796875 
Q 19.46875 34.375 19.46875 27.265625 
Q 19.46875 20.140625 22.40625 15.640625 
Q 25.359375 11.15625 30.9375 11.15625 
z
" id="Inter-Bold-100"/>
      <path d="M 35.046875 54.546875 
L 35.046875 43.1875 
L 24.78125 43.1875 
L 24.78125 16.765625 
Q 24.78125 13.640625 26.203125 12.53125 
Q 27.625 11.4375 29.90625 11.4375 
Q 30.96875 11.4375 32.03125 11.625 
Q 33.09375 11.828125 33.671875 11.9375 
L 36.046875 0.671875 
Q 34.90625 0.3125 32.84375 -0.15625 
Q 30.796875 -0.640625 27.84375 -0.75 
Q 19.609375 -1.09375 14.609375 2.828125 
Q 9.625 6.75 9.65625 14.765625 
L 9.65625 43.1875 
L 2.203125 43.1875 
L 2.203125 54.546875 
L 9.65625 54.546875 
L 9.65625 67.609375 
L 24.78125 67.609375 
L 24.78125 54.546875 
z
" id="Inter-Bold-116"/>
      <path d="M 6.03125 -20.453125 
L 6.03125 54.546875 
L 20.953125 54.546875 
L 20.953125 45.390625 
L 21.625 45.390625 
Q 22.65625 47.625 24.53125 49.890625 
Q 26.421875 52.171875 29.5 53.703125 
Q 32.59375 55.25 37.140625 55.25 
Q 43.140625 55.25 48.140625 52.140625 
Q 53.15625 49.046875 56.1875 42.8125 
Q 59.234375 36.578125 59.234375 27.203125 
Q 59.234375 18.078125 56.28125 11.8125 
Q 53.34375 5.546875 48.328125 2.328125 
Q 43.328125 -0.890625 37.109375 -0.890625 
Q 32.703125 -0.890625 29.625 0.5625 
Q 26.5625 2.03125 24.625 4.25 
Q 22.6875 6.46875 21.625 8.734375 
L 21.171875 8.734375 
L 21.171875 -20.453125 
z
M 20.84375 27.265625 
Q 20.84375 20 23.84375 15.578125 
Q 26.84375 11.15625 32.3125 11.15625 
Q 37.890625 11.15625 40.828125 15.640625 
Q 43.78125 20.140625 43.78125 27.265625 
Q 43.78125 34.375 40.84375 38.796875 
Q 37.921875 43.21875 32.3125 43.21875 
Q 26.8125 43.21875 23.828125 38.90625 
Q 20.84375 34.59375 20.84375 27.265625 
z
" id="Inter-Bold-112"/>
      <path d="M 30.6875 -1.0625 
Q 22.40625 -1.0625 16.390625 2.46875 
Q 10.375 6 7.109375 12.328125 
Q 3.84375 18.671875 3.84375 27.0625 
Q 3.84375 35.515625 7.109375 41.84375 
Q 10.375 48.1875 16.390625 51.71875 
Q 22.40625 55.25 30.6875 55.25 
Q 38.953125 55.25 44.96875 51.71875 
Q 51 48.1875 54.265625 41.84375 
Q 57.53125 35.515625 57.53125 27.0625 
Q 57.53125 18.671875 54.265625 12.328125 
Q 51 6 44.96875 2.46875 
Q 38.953125 -1.0625 30.6875 -1.0625 
z
M 30.75 10.65625 
Q 36.359375 10.65625 39.25 15.34375 
Q 42.15625 20.03125 42.15625 27.171875 
Q 42.15625 34.296875 39.25 39 
Q 36.359375 43.71875 30.75 43.71875 
Q 25.03125 43.71875 22.125 39 
Q 19.21875 34.296875 19.21875 27.171875 
Q 19.21875 20.03125 22.125 15.34375 
Q 25.03125 10.65625 30.75 10.65625 
z
" id="Inter-Bold-111"/>
      <path d="M 22.484375 9.9375 
L 22.09375 6.03125 
Q 21.625 1.34375 20.328125 -3.3125 
Q 19.03125 -7.984375 17.625 -11.78125 
Q 16.234375 -15.59375 15.375 -17.75 
L 5.578125 -17.75 
Q 6.109375 -15.65625 7.03125 -11.921875 
Q 7.953125 -8.203125 8.765625 -3.53125 
Q 9.59375 1.140625 9.796875 5.96875 
L 9.984375 9.9375 
z
" id="Inter-Bold-44"/>
      <path d="M 6.03125 0 
L 6.03125 54.546875 
L 21.171875 54.546875 
L 21.171875 0 
z
M 13.6875 61.578125 
Q 10.34375 61.578125 7.921875 63.828125 
Q 5.515625 66.09375 5.515625 69.25 
Q 5.515625 72.40625 7.921875 74.640625 
Q 10.34375 76.875 13.6875 76.875 
Q 17.0625 76.875 19.46875 74.640625 
Q 21.890625 72.40625 21.890625 69.25 
Q 21.890625 66.09375 19.46875 63.828125 
Q 17.0625 61.578125 13.6875 61.578125 
z
" id="Inter-Bold-105"/>
     </defs>
     <use xlink:href="#Inter-Bold-65"/>
     <use x="74.786942" xlink:href="#Inter-Bold-118"/>
     <use x="133.380707" xlink:href="#Inter-Bold-101"/>
     <use x="193.146347" xlink:href="#Inter-Bold-114"/>
     <use x="236.008575" xlink:href="#Inter-Bold-97"/>
     <use x="294.034149" xlink:href="#Inter-Bold-103"/>
     <use x="357.350922" xlink:href="#Inter-Bold-101"/>
     <use x="417.116562" xlink:href="#Inter-Bold-32"/>
     <use x="440.305481" xlink:href="#Inter-Bold-67"/>
     <use x="515.51857" xlink:href="#Inter-Bold-79"/>
     <use x="593.714615" xlink:href="#Inter-Bold-86"/>
     <use x="668.501556" xlink:href="#Inter-Bold-73"/>
     <use x="696.555542" xlink:href="#Inter-Bold-68"/>
     <use x="769.282837" xlink:href="#Inter-Bold-45"/>
     <use x="816.157852" xlink:href="#Inter-Bold-49"/>
     <use x="863.565536" xlink:href="#Inter-Bold-57"/>
     <use x="929.581177" xlink:href="#Inter-Bold-32"/>
     <use x="952.770096" xlink:href="#Inter-Bold-99"/>
     <use x="1011.505905" xlink:href="#Inter-Bold-97"/>
     <use x="1069.531479" xlink:href="#Inter-Bold-115"/>
     <use x="1125.710464" xlink:href="#Inter-Bold-101"/>
     <use x="1185.476105" xlink:href="#Inter-Bold-115"/>
     <use x="1241.65509" xlink:href="#Inter-Bold-32"/>
     <use x="1264.844009" xlink:href="#Inter-Bold-98"/>
     <use x="1328.373856" xlink:href="#Inter-Bold-121"/>
     <use x="1386.967621" xlink:href="#Inter-Bold-32"/>
     <use x="1410.15654" xlink:href="#Inter-Bold-100"/>
     <use x="1473.686386" xlink:href="#Inter-Bold-97"/>
     <use x="1531.71196" xlink:href="#Inter-Bold-116"/>
     <use x="1570.561401" xlink:href="#Inter-Bold-101"/>
     <use x="1630.327042" xlink:href="#Inter-Bold-32"/>
     <use x="1653.515961" xlink:href="#Inter-Bold-114"/>
     <use x="1696.378189" xlink:href="#Inter-Bold-101"/>
     <use x="1756.143829" xlink:href="#Inter-Bold-112"/>
     <use x="1819.389587" xlink:href="#Inter-Bold-111"/>
     <use x="1880.753235" xlink:href="#Inter-Bold-114"/>
     <use x="1923.615463" xlink:href="#Inter-Bold-116"/>
     <use x="1962.464905" xlink:href="#Inter-Bold-101"/>
     <use x="2022.230545" xlink:href="#Inter-Bold-100"/>
     <use x="2085.760391" xlink:href="#Inter-Bold-44"/>
     <use x="2116.05159" xlink:href="#Inter-Bold-32"/>
     <use x="2139.240509" xlink:href="#Inter-Bold-112"/>
     <use x="2202.486267" xlink:href="#Inter-Bold-101"/>
     <use x="2262.251907" xlink:href="#Inter-Bold-114"/>
     <use x="2305.114136" xlink:href="#Inter-Bold-32"/>
     <use x="2328.303055" xlink:href="#Inter-Bold-99"/>
     <use x="2387.038864" xlink:href="#Inter-Bold-97"/>
     <use x="2445.064438" xlink:href="#Inter-Bold-112"/>
     <use x="2508.310196" xlink:href="#Inter-Bold-105"/>
     <use x="2535.511902" xlink:href="#Inter-Bold-116"/>
     <use x="2574.361343" xlink:href="#Inter-Bold-97"/>
    </g>
   </g>
   <g id="legend_1">
    <g id="patch_4">
     <path d="M 75.575 98.614063 
L 185.148438 98.614063 
Q 187.148438 98.614063 187.148438 96.614063 
L 187.148438 40.225 
Q 187.148438 38.225 185.148438 38.225 
L 75.575 38.225 
Q 73.575 38.225 73.575 40.225 
L 73.575 96.614063 
Q 73.575 98.614063 75.575 98.614063 
z
" style="fill:#ffffff;opacity:0.8;stroke:#cccccc;stroke-linejoin:miter;"/>
    </g>
    <g id="line2d_30">
     <path d="M 77.575 45.998438 
L 97.575 45.998438 
" style="fill:none;stroke:#d4351c;stroke-linecap:square;stroke-width:2;"/>
    </g>
    <g id="line2d_31"/>
    <g id="text_21">
     <!-- Wales -->
     <g transform="translate(105.575 49.498438)scale(0.1 -0.1)">
      <defs>
       <path d="M 22.015625 0 
L 2.125 72.734375 
L 11.078125 72.734375 
L 26.28125 13.5 
L 26.984375 13.5 
L 42.46875 72.734375 
L 52.421875 72.734375 
L 67.90625 13.5 
L 68.609375 13.5 
L 83.8125 72.734375 
L 92.75 72.734375 
L 72.875 0 
L 63.78125 0 
L 47.734375 57.953125 
L 47.15625 57.953125 
L 31.109375 0 
z
" id="Inter-Regular-87"/>
      </defs>
      <use xlink:href="#Inter-Regular-87"/>
      <use x="94.886383" xlink:href="#Inter-Regular-97"/>
      <use x="151.278442" xlink:href="#Inter-Regular-108"/>
      <use x="175.000031" xlink:href="#Inter-Regular-101"/>
      <use x="233.238678" xlink:href="#Inter-Regular-115"/>
     </g>
    </g>
    <g id="line2d_32">
     <path d="M 77.575 60.317188 
L 97.575 60.317188 
" style="fill:none;stroke:#003078;stroke-linecap:square;stroke-width:2;"/>
    </g>
    <g id="line2d_33"/>
    <g id="text_22">
     <!-- Scotland -->
     <g transform="translate(105.575 63.817188)scale(0.1 -0.1)">
      <use xlink:href="#Inter-Regular-83"/>
      <use x="63.778427" xlink:href="#Inter-Regular-99"/>
      <use x="119.602295" xlink:href="#Inter-Regular-111"/>
      <use x="179.261398" xlink:href="#Inter-Regular-116"/>
      <use x="215.625046" xlink:href="#Inter-Regular-108"/>
      <use x="239.346634" xlink:href="#Inter-Regular-97"/>
      <use x="295.738693" xlink:href="#Inter-Regular-110"/>
      <use x="354.261429" xlink:href="#Inter-Regular-100"/>
     </g>
    </g>
    <g id="line2d_34">
     <path d="M 77.575 74.635938 
L 97.575 74.635938 
" style="fill:none;stroke:#ffdd00;stroke-linecap:square;stroke-width:2;"/>
    </g>
    <g id="line2d_35"/>
    <g id="text_23">
     <!-- Northern Ireland -->
     <g transform="translate(105.575 78.135938)scale(0.1 -0.1)">
      <defs>
       <path d="M 16.046875 32.8125 
L 16.046875 0 
L 7.671875 0 
L 7.671875 72.734375 
L 16.046875 72.734375 
L 16.046875 46.015625 
L 16.765625 46.015625 
Q 18.6875 50.25 22.53125 52.75 
Q 26.390625 55.25 32.8125 55.25 
Q 41.1875 55.25 46.296875 50.203125 
Q 51.421875 45.171875 51.421875 34.65625 
L 51.421875 0 
L 43.046875 0 
L 43.046875 34.09375 
Q 43.046875 40.59375 39.6875 44.15625 
Q 36.328125 47.734375 30.40625 47.734375 
Q 24.1875 47.734375 20.109375 43.84375 
Q 16.046875 39.953125 16.046875 32.8125 
z
" id="Inter-Regular-104"/>
       <path d="M 17.609375 72.734375 
L 17.609375 0 
L 8.8125 0 
L 8.8125 72.734375 
z
" id="Inter-Regular-73"/>
      </defs>
      <use xlink:href="#Inter-Regular-78"/>
      <use x="75.284103" xlink:href="#Inter-Regular-111"/>
      <use x="134.943207" xlink:href="#Inter-Regular-114"/>
      <use x="173.295486" xlink:href="#Inter-Regular-116"/>
      <use x="209.659134" xlink:href="#Inter-Regular-104"/>
      <use x="268.750061" xlink:href="#Inter-Regular-101"/>
      <use x="326.988708" xlink:href="#Inter-Regular-114"/>
      <use x="365.340988" xlink:href="#Inter-Regular-110"/>
      <use x="423.863724" xlink:href="#Inter-Regular-32"/>
      <use x="451.988724" xlink:href="#Inter-Regular-73"/>
      <use x="478.40918" xlink:href="#Inter-Regular-114"/>
      <use x="516.761459" xlink:href="#Inter-Regular-101"/>
      <use x="575.000107" xlink:href="#Inter-Regular-108"/>
      <use x="598.721695" xlink:href="#Inter-Regular-97"/>
      <use x="655.113754" xlink:href="#Inter-Regular-110"/>
      <use x="713.63649" xlink:href="#Inter-Regular-100"/>
     </g>
    </g>
    <g id="line2d_36">
     <path d="M 77.575 88.954688 
L 97.575 88.954688 
" style="fill:none;stroke:#5694ca;stroke-linecap:square;stroke-width:2;"/>
    </g>
    <g id="line2d_37"/>
    <g id="text_24">
     <!-- England -->
     <g transform="translate(105.575 92.454688)scale(0.1 -0.1)">
      <defs>
       <path d="M 8.8125 0 
L 8.8125 72.734375 
L 52.703125 72.734375 
L 52.703125 64.921875 
L 17.609375 64.921875 
L 17.609375 40.34375 
L 50.421875 40.34375 
L 50.421875 32.53125 
L 17.609375 32.53125 
L 17.609375 7.8125 
L 53.265625 7.8125 
L 53.265625 0 
z
" id="Inter-Regular-69"/>
      </defs>
      <use xlink:href="#Inter-Regular-69"/>
      <use x="59.801147" xlink:href="#Inter-Regular-110"/>
      <use x="118.323883" xlink:href="#Inter-Regular-103"/>
      <use x="179.261398" xlink:href="#Inter-Regular-108"/>
      <use x="202.982986" xlink:href="#Inter-Regular-97"/>
      <use x="259.375046" xlink:href="#Inter-Regular-110"/>
      <use x="317.897781" xlink:href="#Inter-Regular-100"/>
     </g>
    </g>
   </g>
  </g>
 </g>
 <defs>
  <clipPath id="pc87d0a7f07">
   <rect height="443.52" width="669.6" x="68.575" y="33.225"/>
  </clipPath>
 </defs>
</svg>
