<?xml version="1.0" encoding="utf-8" standalone="no"?>
<!DOCTYPE svg PUBLIC "-//W3C//DTD SVG 1.1//EN"
  "http://www.w3.org/Graphics/SVG/1.1/DTD/svg11.dtd">
<svg version="1.1" viewBox="0 0 756.175 511.27625" xmlns="http://www.w3.org/2000/svg" xmlns:xlink="http://www.w3.org/1999/xlink">
 <metadata>
  <rdf:RDF xmlns:cc="http://creativecommons.org/ns#" xmlns:dc="http://purl.org/dc/elements/1.1/" xmlns:rdf="http://www.w3.org/1999/02/22-rdf-syntax-ns#">
   <cc:Work>
    <dc:type rdf:resource="http://purl.org/dc/dcmitype/StillImage"/>
    <dc:date>2021-06-17T12:29:29.277181</dc:date>
    <dc:format>image/svg+xml</dc:format>
    <dc:creator>
     <cc:Agent>
      <dc:title>Matplotlib v3.4.1, https://matplotlib.org/</dc:title>
     </cc:Agent>
    </dc:creator>
   </cc:Work>
  </rdf:RDF>
 </metadata>
 <defs>
  <style type="text/css">*{stroke-linecap:butt;stroke-linejoin:round;}</style>
 </defs>
 <g id="figure_1">
  <g id="patch_1">
   <path d="M 0 511.27625 
L 756.175 511.27625 
L 756.175 0 
L 0 0 
z
" style="fill:#ffffff;"/>
  </g>
  <g id="axes_1">
   <g id="patch_2">
    <path d="M 68.575 476.745 
L 738.175 476.745 
L 738.175 33.225 
L 68.575 33.225 
z
" style="fill:#ffffff;"/>
   </g>
   <g id="matplotlib.axis_1">
    <g id="xtick_1">
     <g id="line2d_1">
      <defs>
       <path d="M 0 0 
L 0 3.5 
" id="m65dbf879ad" style="stroke:#000000;stroke-width:0.8;"/>
      </defs>
      <g>
       <use style="stroke:#000000;stroke-width:0.8;" x="68.575" xlink:href="#m65dbf879ad" y="476.745"/>
      </g>
     </g>
     <g id="text_1">
      <!-- 01 Mar -->
      <g transform="translate(52.538281 491.018438)scale(0.1 -0.1)">
       <defs>
        <path d="M 2000 -64 
Q 1230 -64 806 561 
Q 382 1186 382 2327 
Q 382 3459 809 4088 
Q 1236 4718 2000 4718 
Q 2764 4718 3191 4088 
Q 3618 3459 3618 2327 
Q 3618 1186 3194 561 
Q 2771 -64 2000 -64 
z
M 2000 436 
Q 2509 436 2791 927 
Q 3073 1418 3073 2327 
Q 3073 3234 2789 3730 
Q 2505 4227 2000 4227 
Q 1496 4227 1211 3730 
Q 927 3234 927 2327 
Q 927 1418 1210 927 
Q 1493 436 2000 436 
z
" id="Inter-Regular-30" transform="scale(0.015625)"/>
        <path d="M 1973 4655 
L 1973 0 
L 1409 0 
L 1409 3836 
L 1373 3836 
Q 1341 3773 1209 3692 
Q 1077 3611 868 3551 
Q 659 3491 391 3491 
L 391 3964 
Q 661 3964 859 4061 
Q 1057 4159 1190 4291 
Q 1323 4423 1392 4529 
Q 1461 4636 1473 4655 
L 1973 4655 
z
" id="Inter-Regular-31" transform="scale(0.015625)"/>
        <path id="Inter-Regular-20" transform="scale(0.015625)"/>
        <path d="M 564 4655 
L 1236 4655 
L 2818 791 
L 2873 791 
L 4455 4655 
L 5127 4655 
L 5127 0 
L 4600 0 
L 4600 3536 
L 4555 3536 
L 3100 0 
L 2591 0 
L 1136 3536 
L 1091 3536 
L 1091 0 
L 564 0 
L 564 4655 
z
" id="Inter-Regular-4d" transform="scale(0.015625)"/>
        <path d="M 1518 -82 
Q 1186 -82 916 44 
Q 646 170 486 410 
Q 327 650 327 991 
Q 327 1291 445 1478 
Q 564 1666 761 1773 
Q 959 1880 1199 1933 
Q 1439 1986 1682 2018 
Q 2000 2059 2199 2080 
Q 2398 2102 2490 2154 
Q 2582 2207 2582 2336 
L 2582 2355 
Q 2582 2691 2399 2877 
Q 2216 3064 1846 3064 
Q 1461 3064 1243 2895 
Q 1025 2727 936 2536 
L 427 2718 
Q 564 3036 792 3214 
Q 1021 3393 1292 3464 
Q 1564 3536 1827 3536 
Q 1996 3536 2215 3496 
Q 2434 3457 2640 3334 
Q 2846 3211 2982 2963 
Q 3118 2716 3118 2300 
L 3118 0 
L 2582 0 
L 2582 473 
L 2555 473 
Q 2500 359 2373 229 
Q 2246 100 2034 9 
Q 1823 -82 1518 -82 
z
M 1600 400 
Q 1918 400 2137 525 
Q 2357 650 2469 847 
Q 2582 1045 2582 1264 
L 2582 1755 
Q 2548 1714 2433 1681 
Q 2318 1648 2169 1624 
Q 2021 1600 1881 1583 
Q 1741 1566 1655 1555 
Q 1446 1527 1265 1467 
Q 1084 1407 974 1287 
Q 864 1168 864 964 
Q 864 684 1072 542 
Q 1280 400 1600 400 
z
" id="Inter-Regular-61" transform="scale(0.015625)"/>
        <path d="M 491 0 
L 491 3491 
L 1009 3491 
L 1009 2964 
L 1046 2964 
Q 1139 3223 1389 3384 
Q 1639 3545 1955 3545 
Q 2100 3545 2209 3511 
Q 2318 3477 2400 3418 
L 2218 2964 
Q 2161 2993 2085 3010 
Q 2009 3027 1909 3027 
Q 1527 3027 1277 2794 
Q 1027 2561 1027 2209 
L 1027 0 
L 491 0 
z
" id="Inter-Regular-72" transform="scale(0.015625)"/>
       </defs>
       <use xlink:href="#Inter-Regular-30"/>
       <use x="62.500015" xlink:href="#Inter-Regular-31"/>
       <use x="106.676163" xlink:href="#Inter-Regular-20"/>
       <use x="134.801163" xlink:href="#Inter-Regular-4d"/>
       <use x="225.99437" xlink:href="#Inter-Regular-61"/>
       <use x="282.386429" xlink:href="#Inter-Regular-72"/>
      </g>
     </g>
    </g>
    <g id="xtick_2">
     <g id="line2d_2">
      <g>
       <use style="stroke:#000000;stroke-width:0.8;" x="112.411937" xlink:href="#m65dbf879ad" y="476.745"/>
      </g>
     </g>
     <g id="text_2">
      <!-- 01 Apr -->
      <g transform="translate(97.326781 491.116875)scale(0.1 -0.1)">
       <defs>
        <path d="M 755 0 
L 164 0 
L 1873 4655 
L 2455 4655 
L 4164 0 
L 3573 0 
L 3105 1318 
L 1223 1318 
L 755 0 
z
M 1400 1818 
L 2927 1818 
L 2182 3918 
L 2146 3918 
L 1400 1818 
z
" id="Inter-Regular-41" transform="scale(0.015625)"/>
        <path d="M 491 -1309 
L 491 3491 
L 1009 3491 
L 1009 2936 
L 1073 2936 
Q 1132 3027 1237 3169 
Q 1343 3311 1542 3423 
Q 1741 3536 2082 3536 
Q 2523 3536 2859 3315 
Q 3196 3095 3384 2690 
Q 3573 2286 3573 1736 
Q 3573 1182 3384 776 
Q 3196 370 2861 148 
Q 2527 -73 2091 -73 
Q 1755 -73 1552 39 
Q 1350 152 1241 296 
Q 1132 441 1073 536 
L 1027 536 
L 1027 -1309 
L 491 -1309 
z
M 1018 1745 
Q 1018 1152 1276 780 
Q 1534 409 2018 409 
Q 2355 409 2581 587 
Q 2807 766 2921 1069 
Q 3036 1373 3036 1745 
Q 3036 2114 2923 2410 
Q 2811 2707 2585 2881 
Q 2359 3055 2018 3055 
Q 1527 3055 1272 2693 
Q 1018 2332 1018 1745 
z
" id="Inter-Regular-70" transform="scale(0.015625)"/>
       </defs>
       <use xlink:href="#Inter-Regular-30"/>
       <use x="62.500015" xlink:href="#Inter-Regular-31"/>
       <use x="106.676163" xlink:href="#Inter-Regular-20"/>
       <use x="134.801163" xlink:href="#Inter-Regular-41"/>
       <use x="202.41481" xlink:href="#Inter-Regular-70"/>
       <use x="263.352325" xlink:href="#Inter-Regular-72"/>
      </g>
     </g>
    </g>
    <g id="xtick_3">
     <g id="line2d_3">
      <g>
       <use style="stroke:#000000;stroke-width:0.8;" x="154.834779" xlink:href="#m65dbf879ad" y="476.745"/>
      </g>
     </g>
     <g id="text_3">
      <!-- 01 May -->
      <g transform="translate(137.931654 491.116875)scale(0.1 -0.1)">
       <defs>
        <path d="M 818 -1355 
Q 682 -1355 575 -1333 
Q 468 -1311 427 -1291 
L 564 -818 
Q 857 -893 1053 -814 
Q 1250 -736 1391 -345 
L 1509 -18 
L 218 3491 
L 800 3491 
L 1764 709 
L 1800 709 
L 2764 3491 
L 3346 3491 
L 1846 -564 
Q 1550 -1355 818 -1355 
z
" id="Inter-Regular-79" transform="scale(0.015625)"/>
       </defs>
       <use xlink:href="#Inter-Regular-30"/>
       <use x="62.500015" xlink:href="#Inter-Regular-31"/>
       <use x="106.676163" xlink:href="#Inter-Regular-20"/>
       <use x="134.801163" xlink:href="#Inter-Regular-4d"/>
       <use x="225.99437" xlink:href="#Inter-Regular-61"/>
       <use x="282.386429" xlink:href="#Inter-Regular-79"/>
      </g>
     </g>
    </g>
    <g id="xtick_4">
     <g id="line2d_4">
      <g>
       <use style="stroke:#000000;stroke-width:0.8;" x="198.671716" xlink:href="#m65dbf879ad" y="476.745"/>
      </g>
     </g>
     <g id="text_4">
      <!-- 01 Jun -->
      <g transform="translate(183.387341 491.018438)scale(0.1 -0.1)">
       <defs>
        <path d="M 2346 4655 
L 2909 4655 
L 2909 1327 
Q 2909 657 2549 296 
Q 2189 -64 1582 -64 
Q 1200 -64 902 76 
Q 605 216 434 475 
Q 264 734 264 1091 
L 818 1091 
Q 818 795 1034 615 
Q 1250 436 1582 436 
Q 1948 436 2147 664 
Q 2346 893 2346 1327 
L 2346 4655 
z
" id="Inter-Regular-4a" transform="scale(0.015625)"/>
        <path d="M 2691 1427 
L 2691 3491 
L 3227 3491 
L 3227 0 
L 2691 0 
L 2691 591 
L 2655 591 
Q 2532 325 2273 140 
Q 2014 -45 1618 -45 
Q 1127 -45 809 280 
Q 491 605 491 1273 
L 491 3491 
L 1027 3491 
L 1027 1309 
Q 1027 927 1242 700 
Q 1457 473 1791 473 
Q 1991 473 2199 575 
Q 2407 677 2549 888 
Q 2691 1100 2691 1427 
z
" id="Inter-Regular-75" transform="scale(0.015625)"/>
        <path d="M 1027 2100 
L 1027 0 
L 491 0 
L 491 3491 
L 1009 3491 
L 1009 2945 
L 1055 2945 
Q 1177 3211 1427 3373 
Q 1677 3536 2073 3536 
Q 2602 3536 2928 3211 
Q 3255 2886 3255 2218 
L 3255 0 
L 2718 0 
L 2718 2182 
Q 2718 2593 2504 2824 
Q 2291 3055 1918 3055 
Q 1534 3055 1280 2806 
Q 1027 2557 1027 2100 
z
" id="Inter-Regular-6e" transform="scale(0.015625)"/>
       </defs>
       <use xlink:href="#Inter-Regular-30"/>
       <use x="62.500015" xlink:href="#Inter-Regular-31"/>
       <use x="106.676163" xlink:href="#Inter-Regular-20"/>
       <use x="134.801163" xlink:href="#Inter-Regular-4a"/>
       <use x="189.062531" xlink:href="#Inter-Regular-75"/>
       <use x="247.159134" xlink:href="#Inter-Regular-6e"/>
      </g>
     </g>
    </g>
    <g id="xtick_5">
     <g id="line2d_5">
      <g>
       <use style="stroke:#000000;stroke-width:0.8;" x="241.094558" xlink:href="#m65dbf879ad" y="476.745"/>
      </g>
     </g>
     <g id="text_5">
      <!-- 01 Jul -->
      <g transform="translate(227.550808 491.018438)scale(0.1 -0.1)">
       <defs>
        <path d="M 1027 4655 
L 1027 0 
L 491 0 
L 491 4655 
L 1027 4655 
z
" id="Inter-Regular-6c" transform="scale(0.015625)"/>
       </defs>
       <use xlink:href="#Inter-Regular-30"/>
       <use x="62.500015" xlink:href="#Inter-Regular-31"/>
       <use x="106.676163" xlink:href="#Inter-Regular-20"/>
       <use x="134.801163" xlink:href="#Inter-Regular-4a"/>
       <use x="189.062531" xlink:href="#Inter-Regular-75"/>
       <use x="247.159134" xlink:href="#Inter-Regular-6c"/>
      </g>
     </g>
    </g>
    <g id="xtick_6">
     <g id="line2d_6">
      <g>
       <use style="stroke:#000000;stroke-width:0.8;" x="284.931495" xlink:href="#m65dbf879ad" y="476.745"/>
      </g>
     </g>
     <g id="text_6">
      <!-- 01 Aug -->
      <g transform="translate(268.85962 491.116875)scale(0.1 -0.1)">
       <defs>
        <path d="M 1900 -1382 
Q 1316 -1382 976 -1169 
Q 636 -957 473 -682 
L 900 -382 
Q 973 -477 1084 -601 
Q 1196 -725 1390 -817 
Q 1584 -909 1900 -909 
Q 2323 -909 2598 -704 
Q 2873 -500 2873 -64 
L 2873 645 
L 2827 645 
Q 2768 550 2660 410 
Q 2552 270 2351 162 
Q 2150 55 1809 55 
Q 1386 55 1051 255 
Q 716 455 521 836 
Q 327 1218 327 1764 
Q 327 2300 516 2699 
Q 705 3098 1041 3317 
Q 1377 3536 1818 3536 
Q 2159 3536 2360 3423 
Q 2561 3311 2669 3169 
Q 2777 3027 2836 2936 
L 2891 2936 
L 2891 3491 
L 3409 3491 
L 3409 -100 
Q 3409 -550 3205 -833 
Q 3002 -1116 2660 -1249 
Q 2318 -1382 1900 -1382 
z
M 1882 536 
Q 2366 536 2624 864 
Q 2882 1193 2882 1773 
Q 2882 2339 2627 2697 
Q 2373 3055 1882 3055 
Q 1541 3055 1315 2882 
Q 1089 2709 976 2418 
Q 864 2127 864 1773 
Q 864 1227 1120 881 
Q 1377 536 1882 536 
z
" id="Inter-Regular-67" transform="scale(0.015625)"/>
       </defs>
       <use xlink:href="#Inter-Regular-30"/>
       <use x="62.500015" xlink:href="#Inter-Regular-31"/>
       <use x="106.676163" xlink:href="#Inter-Regular-20"/>
       <use x="134.801163" xlink:href="#Inter-Regular-41"/>
       <use x="202.41481" xlink:href="#Inter-Regular-75"/>
       <use x="260.511414" xlink:href="#Inter-Regular-67"/>
      </g>
     </g>
    </g>
    <g id="xtick_7">
     <g id="line2d_7">
      <g>
       <use style="stroke:#000000;stroke-width:0.8;" x="328.768432" xlink:href="#m65dbf879ad" y="476.745"/>
      </g>
     </g>
     <g id="text_7">
      <!-- 01 Sep -->
      <g transform="translate(312.880932 491.116875)scale(0.1 -0.1)">
       <defs>
        <path d="M 3109 3491 
Q 3068 3836 2777 4027 
Q 2486 4218 2064 4218 
Q 1600 4218 1318 3999 
Q 1036 3780 1036 3445 
Q 1036 3195 1189 3042 
Q 1343 2889 1553 2803 
Q 1764 2718 1936 2673 
L 2409 2545 
Q 2591 2498 2815 2414 
Q 3039 2330 3244 2185 
Q 3450 2041 3584 1816 
Q 3718 1591 3718 1264 
Q 3718 886 3521 581 
Q 3325 277 2949 97 
Q 2573 -82 2036 -82 
Q 1286 -82 845 272 
Q 405 627 364 1200 
L 946 1200 
Q 968 936 1124 764 
Q 1280 593 1519 510 
Q 1759 427 2036 427 
Q 2359 427 2616 533 
Q 2873 639 3023 828 
Q 3173 1018 3173 1273 
Q 3173 1505 3043 1650 
Q 2914 1795 2702 1886 
Q 2491 1977 2246 2045 
L 1673 2209 
Q 1127 2366 809 2657 
Q 491 2948 491 3418 
Q 491 3809 703 4101 
Q 916 4393 1276 4555 
Q 1636 4718 2082 4718 
Q 2532 4718 2882 4558 
Q 3232 4398 3437 4120 
Q 3643 3843 3655 3491 
L 3109 3491 
z
" id="Inter-Regular-53" transform="scale(0.015625)"/>
        <path d="M 1955 -73 
Q 1450 -73 1085 151 
Q 721 375 524 778 
Q 327 1182 327 1718 
Q 327 2255 524 2665 
Q 721 3075 1074 3305 
Q 1427 3536 1900 3536 
Q 2173 3536 2439 3445 
Q 2705 3355 2923 3151 
Q 3141 2948 3270 2614 
Q 3400 2280 3400 1791 
L 3400 1564 
L 866 1564 
Q 884 1005 1183 707 
Q 1482 409 1955 409 
Q 2271 409 2498 545 
Q 2725 682 2827 955 
L 3346 809 
Q 3223 414 2854 170 
Q 2486 -73 1955 -73 
z
M 866 2027 
L 2855 2027 
Q 2855 2470 2595 2762 
Q 2336 3055 1900 3055 
Q 1593 3055 1368 2911 
Q 1143 2768 1013 2533 
Q 884 2298 866 2027 
z
" id="Inter-Regular-65" transform="scale(0.015625)"/>
       </defs>
       <use xlink:href="#Inter-Regular-30"/>
       <use x="62.500015" xlink:href="#Inter-Regular-31"/>
       <use x="106.676163" xlink:href="#Inter-Regular-20"/>
       <use x="134.801163" xlink:href="#Inter-Regular-53"/>
       <use x="198.57959" xlink:href="#Inter-Regular-65"/>
       <use x="256.818237" xlink:href="#Inter-Regular-70"/>
      </g>
     </g>
    </g>
    <g id="xtick_8">
     <g id="line2d_8">
      <g>
       <use style="stroke:#000000;stroke-width:0.8;" x="371.191274" xlink:href="#m65dbf879ad" y="476.745"/>
      </g>
     </g>
     <g id="text_8">
      <!-- 01 Oct -->
      <g transform="translate(356.035024 491.018438)scale(0.1 -0.1)">
       <defs>
        <path d="M 4491 2327 
Q 4491 1591 4225 1054 
Q 3959 518 3495 227 
Q 3032 -64 2436 -64 
Q 1841 -64 1377 227 
Q 914 518 648 1054 
Q 382 1591 382 2327 
Q 382 3064 648 3600 
Q 914 4136 1377 4427 
Q 1841 4718 2436 4718 
Q 3032 4718 3495 4427 
Q 3959 4136 4225 3600 
Q 4491 3064 4491 2327 
z
M 3946 2327 
Q 3946 2932 3744 3348 
Q 3543 3764 3201 3977 
Q 2859 4191 2436 4191 
Q 2014 4191 1672 3977 
Q 1330 3764 1128 3348 
Q 927 2932 927 2327 
Q 927 1723 1128 1307 
Q 1330 891 1672 677 
Q 2014 464 2436 464 
Q 2859 464 3201 677 
Q 3543 891 3744 1307 
Q 3946 1723 3946 2327 
z
" id="Inter-Regular-4f" transform="scale(0.015625)"/>
        <path d="M 1909 -73 
Q 1418 -73 1063 159 
Q 709 391 518 798 
Q 327 1205 327 1727 
Q 327 2259 524 2667 
Q 721 3075 1074 3305 
Q 1427 3536 1900 3536 
Q 2268 3536 2563 3400 
Q 2859 3264 3047 3018 
Q 3236 2773 3282 2445 
L 2746 2445 
Q 2684 2684 2474 2869 
Q 2264 3055 1909 3055 
Q 1439 3055 1151 2697 
Q 864 2339 864 1745 
Q 864 1139 1148 774 
Q 1432 409 1909 409 
Q 2223 409 2447 570 
Q 2671 732 2746 1018 
L 3282 1018 
Q 3236 709 3058 462 
Q 2880 216 2588 71 
Q 2296 -73 1909 -73 
z
" id="Inter-Regular-63" transform="scale(0.015625)"/>
        <path d="M 2009 3491 
L 2009 3036 
L 1264 3036 
L 1264 1000 
Q 1264 773 1331 660 
Q 1398 548 1503 510 
Q 1609 473 1727 473 
Q 1816 473 1873 483 
Q 1930 493 1964 500 
L 2073 18 
Q 2018 -2 1920 -23 
Q 1823 -45 1673 -45 
Q 1446 -45 1228 52 
Q 1011 150 869 350 
Q 727 550 727 855 
L 727 3036 
L 200 3036 
L 200 3491 
L 727 3491 
L 727 4327 
L 1264 4327 
L 1264 3491 
L 2009 3491 
z
" id="Inter-Regular-74" transform="scale(0.015625)"/>
       </defs>
       <use xlink:href="#Inter-Regular-30"/>
       <use x="62.500015" xlink:href="#Inter-Regular-31"/>
       <use x="106.676163" xlink:href="#Inter-Regular-20"/>
       <use x="134.801163" xlink:href="#Inter-Regular-4f"/>
       <use x="210.937546" xlink:href="#Inter-Regular-63"/>
       <use x="266.761414" xlink:href="#Inter-Regular-74"/>
      </g>
     </g>
    </g>
    <g id="xtick_9">
     <g id="line2d_9">
      <g>
       <use style="stroke:#000000;stroke-width:0.8;" x="415.028211" xlink:href="#m65dbf879ad" y="476.745"/>
      </g>
     </g>
     <g id="text_9">
      <!-- 01 Nov -->
      <g transform="translate(398.757117 491.018438)scale(0.1 -0.1)">
       <defs>
        <path d="M 4255 4655 
L 4255 0 
L 3709 0 
L 1173 3655 
L 1127 3655 
L 1127 0 
L 564 0 
L 564 4655 
L 1109 4655 
L 3655 991 
L 3700 991 
L 3700 4655 
L 4255 4655 
z
" id="Inter-Regular-4e" transform="scale(0.015625)"/>
        <path d="M 1909 -73 
Q 1436 -73 1080 152 
Q 725 377 526 781 
Q 327 1186 327 1727 
Q 327 2273 526 2679 
Q 725 3086 1080 3311 
Q 1436 3536 1909 3536 
Q 2382 3536 2737 3311 
Q 3093 3086 3292 2679 
Q 3491 2273 3491 1727 
Q 3491 1186 3292 781 
Q 3093 377 2737 152 
Q 2382 -73 1909 -73 
z
M 1909 409 
Q 2268 409 2500 593 
Q 2732 777 2843 1077 
Q 2955 1377 2955 1727 
Q 2955 2077 2843 2379 
Q 2732 2682 2500 2868 
Q 2268 3055 1909 3055 
Q 1550 3055 1318 2868 
Q 1086 2682 975 2379 
Q 864 2077 864 1727 
Q 864 1377 975 1077 
Q 1086 777 1318 593 
Q 1550 409 1909 409 
z
" id="Inter-Regular-6f" transform="scale(0.015625)"/>
        <path d="M 3346 3491 
L 2055 0 
L 1509 0 
L 218 3491 
L 800 3491 
L 1764 709 
L 1800 709 
L 2764 3491 
L 3346 3491 
z
" id="Inter-Regular-76" transform="scale(0.015625)"/>
       </defs>
       <use xlink:href="#Inter-Regular-30"/>
       <use x="62.500015" xlink:href="#Inter-Regular-31"/>
       <use x="106.676163" xlink:href="#Inter-Regular-20"/>
       <use x="134.801163" xlink:href="#Inter-Regular-4e"/>
       <use x="210.085266" xlink:href="#Inter-Regular-6f"/>
       <use x="269.74437" xlink:href="#Inter-Regular-76"/>
      </g>
     </g>
    </g>
    <g id="xtick_10">
     <g id="line2d_10">
      <g>
       <use style="stroke:#000000;stroke-width:0.8;" x="457.451053" xlink:href="#m65dbf879ad" y="476.745"/>
      </g>
     </g>
     <g id="text_10">
      <!-- 01 Dec -->
      <g transform="translate(441.414334 491.018438)scale(0.1 -0.1)">
       <defs>
        <path d="M 2000 0 
L 564 0 
L 564 4655 
L 2064 4655 
Q 2741 4655 3223 4376 
Q 3705 4098 3961 3578 
Q 4218 3059 4218 2336 
Q 4218 1609 3959 1085 
Q 3700 561 3204 280 
Q 2709 0 2000 0 
z
M 1127 500 
L 1964 500 
Q 2830 500 3251 992 
Q 3673 1484 3673 2336 
Q 3673 3182 3259 3668 
Q 2846 4155 2027 4155 
L 1127 4155 
L 1127 500 
z
" id="Inter-Regular-44" transform="scale(0.015625)"/>
       </defs>
       <use xlink:href="#Inter-Regular-30"/>
       <use x="62.500015" xlink:href="#Inter-Regular-31"/>
       <use x="106.676163" xlink:href="#Inter-Regular-20"/>
       <use x="134.801163" xlink:href="#Inter-Regular-44"/>
       <use x="206.676178" xlink:href="#Inter-Regular-65"/>
       <use x="264.914825" xlink:href="#Inter-Regular-63"/>
      </g>
     </g>
    </g>
    <g id="xtick_11">
     <g id="line2d_11">
      <g>
       <use style="stroke:#000000;stroke-width:0.8;" x="501.28799" xlink:href="#m65dbf879ad" y="476.745"/>
      </g>
     </g>
     <g id="text_11">
      <!-- 01 Jan -->
      <g transform="translate(486.088771 491.018438)scale(0.1 -0.1)">
       <use xlink:href="#Inter-Regular-30"/>
       <use x="62.500015" xlink:href="#Inter-Regular-31"/>
       <use x="106.676163" xlink:href="#Inter-Regular-20"/>
       <use x="134.801163" xlink:href="#Inter-Regular-4a"/>
       <use x="189.062531" xlink:href="#Inter-Regular-61"/>
       <use x="245.45459" xlink:href="#Inter-Regular-6e"/>
      </g>
     </g>
    </g>
    <g id="xtick_12">
     <g id="line2d_12">
      <g>
       <use style="stroke:#000000;stroke-width:0.8;" x="545.124927" xlink:href="#m65dbf879ad" y="476.745"/>
      </g>
     </g>
     <g id="text_12">
      <!-- 01 Feb -->
      <g transform="translate(529.435864 491.018438)scale(0.1 -0.1)">
       <defs>
        <path d="M 564 0 
L 564 4655 
L 3355 4655 
L 3355 4155 
L 1127 4155 
L 1127 2582 
L 3146 2582 
L 3146 2082 
L 1127 2082 
L 1127 0 
L 564 0 
z
" id="Inter-Regular-46" transform="scale(0.015625)"/>
        <path d="M 564 0 
L 564 4655 
L 1100 4655 
L 1100 2936 
L 1146 2936 
Q 1205 3027 1310 3169 
Q 1416 3311 1615 3423 
Q 1814 3536 2155 3536 
Q 2596 3536 2932 3315 
Q 3268 3095 3457 2690 
Q 3646 2286 3646 1736 
Q 3646 1182 3457 776 
Q 3268 370 2934 148 
Q 2600 -73 2164 -73 
Q 1827 -73 1625 39 
Q 1423 152 1314 296 
Q 1205 441 1146 536 
L 1082 536 
L 1082 0 
L 564 0 
z
M 1091 1745 
Q 1091 1152 1349 780 
Q 1607 409 2091 409 
Q 2427 409 2653 587 
Q 2880 766 2994 1069 
Q 3109 1373 3109 1745 
Q 3109 2114 2996 2410 
Q 2884 2707 2658 2881 
Q 2432 3055 2091 3055 
Q 1600 3055 1345 2693 
Q 1091 2332 1091 1745 
z
" id="Inter-Regular-62" transform="scale(0.015625)"/>
       </defs>
       <use xlink:href="#Inter-Regular-30"/>
       <use x="62.500015" xlink:href="#Inter-Regular-31"/>
       <use x="106.676163" xlink:href="#Inter-Regular-20"/>
       <use x="134.801163" xlink:href="#Inter-Regular-46"/>
       <use x="193.465942" xlink:href="#Inter-Regular-65"/>
       <use x="251.70459" xlink:href="#Inter-Regular-62"/>
      </g>
     </g>
    </g>
    <g id="xtick_13">
     <g id="line2d_13">
      <g>
       <use style="stroke:#000000;stroke-width:0.8;" x="584.719579" xlink:href="#m65dbf879ad" y="476.745"/>
      </g>
     </g>
     <g id="text_13">
      <!-- 01 Mar -->
      <g transform="translate(568.682861 491.018438)scale(0.1 -0.1)">
       <use xlink:href="#Inter-Regular-30"/>
       <use x="62.500015" xlink:href="#Inter-Regular-31"/>
       <use x="106.676163" xlink:href="#Inter-Regular-20"/>
       <use x="134.801163" xlink:href="#Inter-Regular-4d"/>
       <use x="225.99437" xlink:href="#Inter-Regular-61"/>
       <use x="282.386429" xlink:href="#Inter-Regular-72"/>
      </g>
     </g>
    </g>
    <g id="xtick_14">
     <g id="line2d_14">
      <g>
       <use style="stroke:#000000;stroke-width:0.8;" x="628.556516" xlink:href="#m65dbf879ad" y="476.745"/>
      </g>
     </g>
     <g id="text_14">
      <!-- 01 Apr -->
      <g transform="translate(613.47136 491.116875)scale(0.1 -0.1)">
       <use xlink:href="#Inter-Regular-30"/>
       <use x="62.500015" xlink:href="#Inter-Regular-31"/>
       <use x="106.676163" xlink:href="#Inter-Regular-20"/>
       <use x="134.801163" xlink:href="#Inter-Regular-41"/>
       <use x="202.41481" xlink:href="#Inter-Regular-70"/>
       <use x="263.352325" xlink:href="#Inter-Regular-72"/>
      </g>
     </g>
    </g>
    <g id="xtick_15">
     <g id="line2d_15">
      <g>
       <use style="stroke:#000000;stroke-width:0.8;" x="670.979358" xlink:href="#m65dbf879ad" y="476.745"/>
      </g>
     </g>
     <g id="text_15">
      <!-- 01 May -->
      <g transform="translate(654.076233 491.116875)scale(0.1 -0.1)">
       <use xlink:href="#Inter-Regular-30"/>
       <use x="62.500015" xlink:href="#Inter-Regular-31"/>
       <use x="106.676163" xlink:href="#Inter-Regular-20"/>
       <use x="134.801163" xlink:href="#Inter-Regular-4d"/>
       <use x="225.99437" xlink:href="#Inter-Regular-61"/>
       <use x="282.386429" xlink:href="#Inter-Regular-79"/>
      </g>
     </g>
    </g>
    <g id="xtick_16">
     <g id="line2d_16">
      <g>
       <use style="stroke:#000000;stroke-width:0.8;" x="714.816295" xlink:href="#m65dbf879ad" y="476.745"/>
      </g>
     </g>
     <g id="text_16">
      <!-- 01 Jun -->
      <g transform="translate(699.53192 491.018438)scale(0.1 -0.1)">
       <use xlink:href="#Inter-Regular-30"/>
       <use x="62.500015" xlink:href="#Inter-Regular-31"/>
       <use x="106.676163" xlink:href="#Inter-Regular-20"/>
       <use x="134.801163" xlink:href="#Inter-Regular-4a"/>
       <use x="189.062531" xlink:href="#Inter-Regular-75"/>
       <use x="247.159134" xlink:href="#Inter-Regular-6e"/>
      </g>
     </g>
    </g>
   </g>
   <g id="matplotlib.axis_2">
    <g id="ytick_1">
     <g id="line2d_17">
      <path clip-path="url(#pdadac80ed9)" d="M 68.575 476.745 
L 738.175 476.745 
" style="fill:none;stroke:#e5e5e5;stroke-linecap:square;stroke-width:0.8;"/>
     </g>
     <g id="line2d_18">
      <defs>
       <path d="M 0 0 
L -3.5 0 
" id="ma7d7db16cc" style="stroke:#000000;stroke-width:0.8;"/>
      </defs>
      <g>
       <use style="stroke:#000000;stroke-width:0.8;" x="68.575" xlink:href="#ma7d7db16cc" y="476.745"/>
      </g>
     </g>
     <g id="text_17">
      <!-- 0.00% -->
      <g transform="translate(31.94375 480.381719)scale(0.1 -0.1)">
       <defs>
        <path d="M 882 -36 
Q 714 -36 593 84 
Q 473 205 473 373 
Q 473 541 593 661 
Q 714 782 882 782 
Q 1050 782 1170 661 
Q 1291 541 1291 373 
Q 1291 205 1170 84 
Q 1050 -36 882 -36 
z
" id="Inter-Regular-2e" transform="scale(0.015625)"/>
        <path d="M 2855 873 
L 2855 1118 
Q 2855 1373 2960 1585 
Q 3066 1798 3269 1926 
Q 3473 2055 3764 2055 
Q 4059 2055 4259 1926 
Q 4459 1798 4561 1585 
Q 4664 1373 4664 1118 
L 4664 873 
Q 4664 618 4560 405 
Q 4457 193 4256 64 
Q 4055 -64 3764 -64 
Q 3468 -64 3266 64 
Q 3064 193 2959 405 
Q 2855 618 2855 873 
z
M 536 3536 
L 536 3782 
Q 536 4036 642 4248 
Q 748 4461 951 4589 
Q 1155 4718 1446 4718 
Q 1741 4718 1941 4589 
Q 2141 4461 2243 4248 
Q 2346 4036 2346 3782 
L 2346 3536 
Q 2346 3282 2242 3069 
Q 2139 2857 1937 2728 
Q 1736 2600 1446 2600 
Q 1150 2600 948 2728 
Q 746 2857 641 3069 
Q 536 3282 536 3536 
z
M 709 0 
L 3909 4655 
L 4427 4655 
L 1227 0 
L 709 0 
z
M 3318 1118 
L 3318 873 
Q 3318 661 3418 494 
Q 3518 327 3764 327 
Q 4002 327 4101 494 
Q 4200 661 4200 873 
L 4200 1118 
Q 4200 1330 4104 1497 
Q 4009 1664 3764 1664 
Q 3525 1664 3421 1497 
Q 3318 1330 3318 1118 
z
M 1000 3782 
L 1000 3536 
Q 1000 3325 1100 3158 
Q 1200 2991 1446 2991 
Q 1684 2991 1783 3158 
Q 1882 3325 1882 3536 
L 1882 3782 
Q 1882 3993 1786 4160 
Q 1691 4327 1446 4327 
Q 1207 4327 1103 4160 
Q 1000 3993 1000 3782 
z
" id="Inter-Regular-25" transform="scale(0.015625)"/>
       </defs>
       <use xlink:href="#Inter-Regular-30"/>
       <use x="62.500015" xlink:href="#Inter-Regular-2e"/>
       <use x="90.056839" xlink:href="#Inter-Regular-30"/>
       <use x="152.556854" xlink:href="#Inter-Regular-30"/>
       <use x="215.05687" xlink:href="#Inter-Regular-25"/>
      </g>
     </g>
    </g>
    <g id="ytick_2">
     <g id="line2d_19">
      <path clip-path="url(#pdadac80ed9)" d="M 68.575 391.005859 
L 738.175 391.005859 
" style="fill:none;stroke:#e5e5e5;stroke-linecap:square;stroke-width:0.8;"/>
     </g>
     <g id="line2d_20">
      <g>
       <use style="stroke:#000000;stroke-width:0.8;" x="68.575" xlink:href="#ma7d7db16cc" y="391.005859"/>
      </g>
     </g>
     <g id="text_18">
      <!-- 0.02% -->
      <g transform="translate(32.142188 394.642578)scale(0.1 -0.1)">
       <defs>
        <path d="M 482 0 
L 482 409 
L 2018 2091 
Q 2289 2386 2464 2605 
Q 2639 2825 2724 3019 
Q 2809 3214 2809 3427 
Q 2809 3795 2553 4011 
Q 2298 4227 1918 4227 
Q 1514 4227 1275 3985 
Q 1036 3743 1036 3345 
L 500 3345 
Q 500 3755 688 4064 
Q 877 4373 1203 4545 
Q 1530 4718 1936 4718 
Q 2346 4718 2661 4545 
Q 2977 4373 3156 4079 
Q 3336 3786 3336 3427 
Q 3336 3170 3244 2926 
Q 3152 2682 2926 2383 
Q 2700 2084 2300 1655 
L 1255 536 
L 1255 500 
L 3418 500 
L 3418 0 
L 482 0 
z
" id="Inter-Regular-32" transform="scale(0.015625)"/>
       </defs>
       <use xlink:href="#Inter-Regular-30"/>
       <use x="62.500015" xlink:href="#Inter-Regular-2e"/>
       <use x="90.056839" xlink:href="#Inter-Regular-30"/>
       <use x="152.556854" xlink:href="#Inter-Regular-32"/>
       <use x="213.068237" xlink:href="#Inter-Regular-25"/>
      </g>
     </g>
    </g>
    <g id="ytick_3">
     <g id="line2d_21">
      <path clip-path="url(#pdadac80ed9)" d="M 68.575 305.266719 
L 738.175 305.266719 
" style="fill:none;stroke:#e5e5e5;stroke-linecap:square;stroke-width:0.8;"/>
     </g>
     <g id="line2d_22">
      <g>
       <use style="stroke:#000000;stroke-width:0.8;" x="68.575" xlink:href="#ma7d7db16cc" y="305.266719"/>
      </g>
     </g>
     <g id="text_19">
      <!-- 0.04% -->
      <g transform="translate(31.773438 308.903437)scale(0.1 -0.1)">
       <defs>
        <path d="M 373 955 
L 373 1418 
L 2418 4655 
L 3100 4655 
L 3100 1455 
L 3736 1455 
L 3736 955 
L 3100 955 
L 3100 0 
L 2564 0 
L 2564 955 
L 373 955 
z
M 2564 1455 
L 2564 3936 
L 2527 3936 
L 982 1491 
L 982 1455 
L 2564 1455 
z
" id="Inter-Regular-34" transform="scale(0.015625)"/>
       </defs>
       <use xlink:href="#Inter-Regular-30"/>
       <use x="62.500015" xlink:href="#Inter-Regular-2e"/>
       <use x="90.056839" xlink:href="#Inter-Regular-30"/>
       <use x="152.556854" xlink:href="#Inter-Regular-34"/>
       <use x="216.761414" xlink:href="#Inter-Regular-25"/>
      </g>
     </g>
    </g>
    <g id="ytick_4">
     <g id="line2d_23">
      <path clip-path="url(#pdadac80ed9)" d="M 68.575 219.527578 
L 738.175 219.527578 
" style="fill:none;stroke:#e5e5e5;stroke-linecap:square;stroke-width:0.8;"/>
     </g>
     <g id="line2d_24">
      <g>
       <use style="stroke:#000000;stroke-width:0.8;" x="68.575" xlink:href="#ma7d7db16cc" y="219.527578"/>
      </g>
     </g>
     <g id="text_20">
      <!-- 0.06% -->
      <g transform="translate(31.957813 223.164297)scale(0.1 -0.1)">
       <defs>
        <path d="M 2027 -64 
Q 1741 -59 1454 45 
Q 1168 150 932 399 
Q 696 648 552 1074 
Q 409 1500 409 2145 
Q 409 3386 861 4056 
Q 1314 4727 2100 4727 
Q 2686 4727 3073 4384 
Q 3461 4041 3546 3491 
L 2991 3491 
Q 2914 3811 2691 4019 
Q 2468 4227 2100 4227 
Q 1559 4227 1249 3755 
Q 939 3284 936 2427 
L 973 2427 
Q 1164 2716 1461 2880 
Q 1759 3045 2118 3045 
Q 2518 3045 2850 2846 
Q 3182 2648 3382 2299 
Q 3582 1950 3582 1500 
Q 3582 1068 3389 710 
Q 3196 352 2847 142 
Q 2498 -68 2027 -64 
z
M 2027 436 
Q 2314 436 2542 579 
Q 2771 723 2903 964 
Q 3036 1205 3036 1500 
Q 3036 1789 2908 2026 
Q 2780 2264 2556 2404 
Q 2332 2545 2046 2545 
Q 1757 2545 1525 2397 
Q 1293 2250 1157 2010 
Q 1021 1770 1018 1491 
Q 1018 1214 1149 973 
Q 1280 732 1508 584 
Q 1736 436 2027 436 
z
" id="Inter-Regular-36" transform="scale(0.015625)"/>
       </defs>
       <use xlink:href="#Inter-Regular-30"/>
       <use x="62.500015" xlink:href="#Inter-Regular-2e"/>
       <use x="90.056839" xlink:href="#Inter-Regular-30"/>
       <use x="152.556854" xlink:href="#Inter-Regular-36"/>
       <use x="214.914825" xlink:href="#Inter-Regular-25"/>
      </g>
     </g>
    </g>
    <g id="ytick_5">
     <g id="line2d_25">
      <path clip-path="url(#pdadac80ed9)" d="M 68.575 133.788437 
L 738.175 133.788437 
" style="fill:none;stroke:#e5e5e5;stroke-linecap:square;stroke-width:0.8;"/>
     </g>
     <g id="line2d_26">
      <g>
       <use style="stroke:#000000;stroke-width:0.8;" x="68.575" xlink:href="#ma7d7db16cc" y="133.788437"/>
      </g>
     </g>
     <g id="text_21">
      <!-- 0.08% -->
      <g transform="translate(32.028125 137.425156)scale(0.1 -0.1)">
       <defs>
        <path d="M 1973 -64 
Q 1505 -64 1147 103 
Q 789 270 589 564 
Q 389 859 391 1236 
Q 389 1532 507 1783 
Q 625 2034 830 2203 
Q 1036 2373 1291 2418 
L 1291 2445 
Q 957 2532 759 2821 
Q 561 3111 564 3482 
Q 561 3836 743 4115 
Q 925 4395 1244 4556 
Q 1564 4718 1973 4718 
Q 2377 4718 2695 4556 
Q 3014 4395 3197 4115 
Q 3380 3836 3382 3482 
Q 3380 3111 3181 2821 
Q 2982 2532 2655 2445 
L 2655 2418 
Q 2907 2373 3109 2203 
Q 3311 2034 3431 1783 
Q 3552 1532 3555 1236 
Q 3552 859 3351 564 
Q 3150 270 2794 103 
Q 2439 -64 1973 -64 
z
M 1973 436 
Q 2446 436 2722 662 
Q 2998 889 3000 1264 
Q 2998 1527 2864 1729 
Q 2730 1932 2499 2048 
Q 2268 2164 1973 2164 
Q 1675 2164 1442 2048 
Q 1209 1932 1076 1729 
Q 943 1527 946 1264 
Q 943 889 1218 662 
Q 1493 436 1973 436 
z
M 1973 2645 
Q 2348 2645 2591 2864 
Q 2834 3084 2836 3445 
Q 2834 3800 2596 4013 
Q 2359 4227 1973 4227 
Q 1582 4227 1344 4013 
Q 1107 3800 1109 3445 
Q 1107 3084 1349 2864 
Q 1591 2645 1973 2645 
z
" id="Inter-Regular-38" transform="scale(0.015625)"/>
       </defs>
       <use xlink:href="#Inter-Regular-30"/>
       <use x="62.500015" xlink:href="#Inter-Regular-2e"/>
       <use x="90.056839" xlink:href="#Inter-Regular-30"/>
       <use x="152.556854" xlink:href="#Inter-Regular-38"/>
       <use x="214.20459" xlink:href="#Inter-Regular-25"/>
      </g>
     </g>
    </g>
    <g id="ytick_6">
     <g id="line2d_27">
      <path clip-path="url(#pdadac80ed9)" d="M 68.575 48.049296 
L 738.175 48.049296 
" style="fill:none;stroke:#e5e5e5;stroke-linecap:square;stroke-width:0.8;"/>
     </g>
     <g id="line2d_28">
      <g>
       <use style="stroke:#000000;stroke-width:0.8;" x="68.575" xlink:href="#ma7d7db16cc" y="48.049296"/>
      </g>
     </g>
     <g id="text_22">
      <!-- 0.10% -->
      <g transform="translate(33.776563 51.686015)scale(0.1 -0.1)">
       <use xlink:href="#Inter-Regular-30"/>
       <use x="62.500015" xlink:href="#Inter-Regular-2e"/>
       <use x="90.056839" xlink:href="#Inter-Regular-31"/>
       <use x="134.232986" xlink:href="#Inter-Regular-30"/>
       <use x="196.733002" xlink:href="#Inter-Regular-25"/>
      </g>
     </g>
    </g>
    <g id="text_23">
     <!-- Percent of nation tested positive (seven day average) -->
     <g transform="translate(25.614063 382.124063)rotate(-90)scale(0.1 -0.1)">
      <defs>
       <path d="M 564 0 
L 564 4655 
L 2136 4655 
Q 2684 4655 3033 4458 
Q 3382 4261 3550 3927 
Q 3718 3593 3718 3182 
Q 3718 2770 3551 2434 
Q 3384 2098 3036 1899 
Q 2689 1700 2146 1700 
L 1127 1700 
L 1127 0 
L 564 0 
z
M 1127 2200 
L 2127 2200 
Q 2689 2200 2926 2482 
Q 3164 2764 3164 3182 
Q 3164 3602 2925 3878 
Q 2686 4155 2118 4155 
L 1127 4155 
L 1127 2200 
z
" id="Inter-Regular-50" transform="scale(0.015625)"/>
       <path d="M 2046 3491 
L 2046 3036 
L 1264 3036 
L 1264 0 
L 727 0 
L 727 3036 
L 164 3036 
L 164 3491 
L 727 3491 
L 727 3973 
Q 727 4273 868 4473 
Q 1009 4673 1234 4773 
Q 1459 4873 1709 4873 
Q 1907 4873 2032 4841 
Q 2157 4809 2218 4782 
L 2064 4318 
Q 2023 4332 1951 4352 
Q 1880 4373 1764 4373 
Q 1498 4373 1381 4239 
Q 1264 4105 1264 3845 
L 1264 3491 
L 2046 3491 
z
" id="Inter-Regular-66" transform="scale(0.015625)"/>
       <path d="M 491 0 
L 491 3491 
L 1027 3491 
L 1027 0 
L 491 0 
z
M 764 4073 
Q 607 4073 494 4179 
Q 382 4286 382 4436 
Q 382 4586 494 4693 
Q 607 4800 764 4800 
Q 921 4800 1033 4693 
Q 1146 4586 1146 4436 
Q 1146 4286 1033 4179 
Q 921 4073 764 4073 
z
" id="Inter-Regular-69" transform="scale(0.015625)"/>
       <path d="M 2964 2709 
L 2482 2573 
Q 2411 2755 2245 2914 
Q 2080 3073 1727 3073 
Q 1407 3073 1194 2926 
Q 982 2780 982 2555 
Q 982 2355 1127 2239 
Q 1273 2123 1582 2045 
L 2100 1918 
Q 3027 1691 3027 973 
Q 3027 673 2855 436 
Q 2684 200 2377 63 
Q 2071 -73 1664 -73 
Q 1130 -73 780 159 
Q 430 391 336 836 
L 846 964 
Q 989 400 1655 400 
Q 2030 400 2251 560 
Q 2473 720 2473 945 
Q 2473 1316 1955 1436 
L 1373 1573 
Q 893 1686 669 1926 
Q 446 2166 446 2527 
Q 446 2823 613 3050 
Q 780 3277 1069 3406 
Q 1359 3536 1727 3536 
Q 2246 3536 2542 3309 
Q 2839 3082 2964 2709 
z
" id="Inter-Regular-73" transform="scale(0.015625)"/>
       <path d="M 1809 -73 
Q 1373 -73 1039 148 
Q 705 370 516 776 
Q 327 1182 327 1736 
Q 327 2286 516 2690 
Q 705 3095 1041 3315 
Q 1377 3536 1818 3536 
Q 2159 3536 2358 3423 
Q 2557 3311 2662 3169 
Q 2768 3027 2827 2936 
L 2873 2936 
L 2873 4655 
L 3409 4655 
L 3409 0 
L 2891 0 
L 2891 536 
L 2827 536 
Q 2768 441 2659 296 
Q 2550 152 2348 39 
Q 2146 -73 1809 -73 
z
M 1882 409 
Q 2366 409 2624 780 
Q 2882 1152 2882 1745 
Q 2882 2332 2627 2693 
Q 2373 3055 1882 3055 
Q 1541 3055 1315 2881 
Q 1089 2707 976 2410 
Q 864 2114 864 1745 
Q 864 1373 978 1069 
Q 1093 766 1319 587 
Q 1546 409 1882 409 
z
" id="Inter-Regular-64" transform="scale(0.015625)"/>
       <path d="M 682 1964 
Q 682 2823 906 3544 
Q 1130 4266 1546 4873 
L 2018 4873 
Q 1800 4573 1623 4095 
Q 1446 3618 1341 3061 
Q 1236 2505 1236 1964 
Q 1236 1423 1341 866 
Q 1446 309 1623 -168 
Q 1800 -645 2018 -945 
L 1546 -945 
Q 1130 -339 906 383 
Q 682 1105 682 1964 
z
" id="Inter-Regular-28" transform="scale(0.015625)"/>
       <path d="M 1638 1940 
Q 1638 1081 1414 359 
Q 1191 -362 775 -969 
L 302 -969 
Q 520 -669 697 -191 
Q 875 286 979 842 
Q 1084 1399 1084 1940 
Q 1084 2481 979 3038 
Q 875 3595 697 4072 
Q 520 4549 302 4849 
L 775 4849 
Q 1191 4243 1414 3521 
Q 1638 2799 1638 1940 
z
" id="Inter-Regular-29" transform="scale(0.015625)"/>
      </defs>
      <use xlink:href="#Inter-Regular-50"/>
      <use x="63.494324" xlink:href="#Inter-Regular-65"/>
      <use x="121.732971" xlink:href="#Inter-Regular-72"/>
      <use x="160.085251" xlink:href="#Inter-Regular-63"/>
      <use x="215.909119" xlink:href="#Inter-Regular-65"/>
      <use x="274.147766" xlink:href="#Inter-Regular-6e"/>
      <use x="332.670502" xlink:href="#Inter-Regular-74"/>
      <use x="369.034149" xlink:href="#Inter-Regular-20"/>
      <use x="397.159149" xlink:href="#Inter-Regular-6f"/>
      <use x="456.818253" xlink:href="#Inter-Regular-66"/>
      <use x="492.897797" xlink:href="#Inter-Regular-20"/>
      <use x="521.022797" xlink:href="#Inter-Regular-6e"/>
      <use x="579.545532" xlink:href="#Inter-Regular-61"/>
      <use x="635.937592" xlink:href="#Inter-Regular-74"/>
      <use x="672.301239" xlink:href="#Inter-Regular-69"/>
      <use x="696.022827" xlink:href="#Inter-Regular-6f"/>
      <use x="755.681931" xlink:href="#Inter-Regular-6e"/>
      <use x="814.204666" xlink:href="#Inter-Regular-20"/>
      <use x="842.329666" xlink:href="#Inter-Regular-74"/>
      <use x="878.693314" xlink:href="#Inter-Regular-65"/>
      <use x="936.931961" xlink:href="#Inter-Regular-73"/>
      <use x="989.204697" xlink:href="#Inter-Regular-74"/>
      <use x="1025.568344" xlink:href="#Inter-Regular-65"/>
      <use x="1083.806992" xlink:href="#Inter-Regular-64"/>
      <use x="1145.880875" xlink:href="#Inter-Regular-20"/>
      <use x="1174.005875" xlink:href="#Inter-Regular-70"/>
      <use x="1234.94339" xlink:href="#Inter-Regular-6f"/>
      <use x="1294.602493" xlink:href="#Inter-Regular-73"/>
      <use x="1346.875229" xlink:href="#Inter-Regular-69"/>
      <use x="1370.596817" xlink:href="#Inter-Regular-74"/>
      <use x="1406.960464" xlink:href="#Inter-Regular-69"/>
      <use x="1430.682053" xlink:href="#Inter-Regular-76"/>
      <use x="1486.363876" xlink:href="#Inter-Regular-65"/>
      <use x="1544.602524" xlink:href="#Inter-Regular-20"/>
      <use x="1572.727524" xlink:href="#Inter-Regular-28"/>
      <use x="1608.949112" xlink:href="#Inter-Regular-73"/>
      <use x="1661.221848" xlink:href="#Inter-Regular-65"/>
      <use x="1719.460495" xlink:href="#Inter-Regular-76"/>
      <use x="1775.142319" xlink:href="#Inter-Regular-65"/>
      <use x="1833.380966" xlink:href="#Inter-Regular-6e"/>
      <use x="1891.903702" xlink:href="#Inter-Regular-20"/>
      <use x="1920.028702" xlink:href="#Inter-Regular-64"/>
      <use x="1982.102585" xlink:href="#Inter-Regular-61"/>
      <use x="2038.494644" xlink:href="#Inter-Regular-79"/>
      <use x="2094.176468" xlink:href="#Inter-Regular-20"/>
      <use x="2122.301468" xlink:href="#Inter-Regular-61"/>
      <use x="2178.693527" xlink:href="#Inter-Regular-76"/>
      <use x="2234.375351" xlink:href="#Inter-Regular-65"/>
      <use x="2292.613998" xlink:href="#Inter-Regular-72"/>
      <use x="2330.966278" xlink:href="#Inter-Regular-61"/>
      <use x="2387.358337" xlink:href="#Inter-Regular-67"/>
      <use x="2448.295853" xlink:href="#Inter-Regular-65"/>
      <use x="2506.5345" xlink:href="#Inter-Regular-29"/>
     </g>
    </g>
   </g>
   <g id="line2d_29">
    <path clip-path="url(#pdadac80ed9)" d="M 24.738063 476.729767 
L 47.363579 476.742824 
L 68.575 476.686246 
L 78.473663 476.348955 
L 81.301853 476.064977 
L 88.372326 474.327384 
L 91.200516 473.377528 
L 95.4428 471.458233 
L 98.27099 469.801154 
L 101.099179 466.73942 
L 102.513274 465.276012 
L 105.341463 461.743159 
L 109.583747 457.311588 
L 112.411937 453.364193 
L 115.240126 450.224121 
L 116.654221 449.126293 
L 118.068316 448.432126 
L 120.896505 446.653187 
L 122.3106 446.468221 
L 123.724695 446.478013 
L 125.13879 447.025295 
L 126.552884 447.37129 
L 127.966979 447.517087 
L 130.795168 449.652902 
L 132.209263 449.731241 
L 133.623358 449.420062 
L 135.037453 448.886925 
L 136.451547 447.751015 
L 137.865642 447.176532 
L 139.279737 446.903435 
L 140.693832 446.430139 
L 142.107926 445.796902 
L 144.936116 445.265941 
L 146.350211 446.062383 
L 147.764305 446.427963 
L 149.1784 446.054767 
L 150.592495 445.907882 
L 152.00659 445.985132 
L 154.834779 446.541119 
L 156.248874 447.226582 
L 157.662969 447.772776 
L 159.077063 449.062098 
L 160.491158 450.11967 
L 161.905253 451.713642 
L 163.319347 452.912658 
L 164.733442 454.508807 
L 166.147537 455.541353 
L 167.561632 456.226816 
L 168.975726 455.990712 
L 170.389821 456.231168 
L 171.803916 456.643534 
L 173.218011 457.725042 
L 174.632105 458.254915 
L 176.0462 458.281028 
L 177.460295 458.732563 
L 178.87439 459.661746 
L 180.288484 460.02515 
L 181.702579 460.615953 
L 183.116674 460.553935 
L 184.530769 460.92278 
L 187.358958 461.850874 
L 188.773053 462.752856 
L 190.187147 463.987777 
L 193.015337 465.543669 
L 194.429432 466.000644 
L 197.257621 466.564247 
L 200.085811 466.73942 
L 205.74219 468.283344 
L 209.984474 469.305009 
L 214.226758 469.81421 
L 217.054948 469.656445 
L 219.883137 469.780481 
L 221.297232 469.965447 
L 222.711326 469.932806 
L 225.539516 470.246161 
L 238.266369 472.051212 
L 241.094558 472.343894 
L 245.336842 472.657249 
L 246.750937 472.515804 
L 250.993221 472.480987 
L 252.407316 472.350422 
L 255.235505 472.341718 
L 256.6496 472.543005 
L 270.790548 472.112142 
L 279.275116 471.535483 
L 282.103305 471.150319 
L 284.931495 471.247154 
L 286.34559 471.250418 
L 289.173779 470.954472 
L 290.587874 470.989289 
L 292.001969 470.856549 
L 294.830158 470.442007 
L 296.244253 470.395222 
L 297.658348 469.946951 
L 299.072442 469.630332 
L 300.486537 469.462775 
L 301.900632 469.418165 
L 303.314727 469.232111 
L 306.142916 469.251696 
L 308.971105 469.795714 
L 310.3852 469.81965 
L 311.799295 469.605307 
L 313.21339 469.641213 
L 321.697958 469.051497 
L 324.526148 468.287696 
L 325.940242 467.983046 
L 327.354337 467.841601 
L 328.768432 466.897186 
L 331.596621 463.8311 
L 334.424811 461.266599 
L 335.838906 460.089344 
L 337.253 457.693489 
L 338.667095 456.528202 
L 340.08119 456.271425 
L 341.495284 455.79813 
L 342.909379 455.5098 
L 344.323474 455.491304 
L 345.737569 455.872116 
L 347.151663 456.490121 
L 348.565758 456.446599 
L 351.393948 454.567561 
L 352.808042 453.023638 
L 354.222137 450.878031 
L 355.636232 447.706406 
L 357.050327 445.743588 
L 361.292611 438.323183 
L 362.706706 436.409327 
L 365.534895 433.285576 
L 366.94899 429.060732 
L 368.363085 425.406018 
L 369.777179 420.367323 
L 371.191274 414.911911 
L 372.605369 408.880927 
L 375.433558 400.326787 
L 378.261748 388.326837 
L 379.675842 383.242445 
L 381.089937 378.93491 
L 382.504032 377.37249 
L 383.918127 376.881786 
L 385.332221 377.076545 
L 386.746316 374.725299 
L 389.574506 372.128157 
L 390.9886 372.151005 
L 392.402695 370.48087 
L 395.230885 365.696775 
L 398.059074 352.839453 
L 399.473169 347.351399 
L 400.887263 342.593418 
L 402.301358 338.724361 
L 403.715453 337.452447 
L 405.129548 336.023856 
L 406.543642 335.316632 
L 407.957737 336.243639 
L 409.371832 337.608036 
L 410.785927 337.220696 
L 412.200021 335.544032 
L 413.614116 334.64205 
L 415.028211 334.423355 
L 416.442306 328.793856 
L 417.8564 326.813631 
L 419.270495 326.31531 
L 420.68459 325.326285 
L 422.098685 324.043491 
L 423.512779 321.572561 
L 424.926874 316.574123 
L 426.340969 316.393509 
L 427.755064 314.045527 
L 429.169158 309.746697 
L 430.583253 308.587939 
L 431.997348 307.683781 
L 433.411442 308.314842 
L 434.825537 312.394977 
L 437.653727 321.647635 
L 440.481916 335.652836 
L 441.896011 343.241887 
L 443.310106 349.143395 
L 444.7242 353.688121 
L 446.138295 361.873417 
L 447.55239 368.723692 
L 448.966485 373.381574 
L 450.380579 376.89049 
L 451.794674 379.521362 
L 453.208769 381.05114 
L 456.036958 383.560151 
L 458.865148 384.624251 
L 460.279242 384.35877 
L 461.693337 383.686364 
L 463.107432 382.66905 
L 464.521527 380.533235 
L 465.935621 377.961118 
L 467.349716 374.526188 
L 468.763811 370.180572 
L 470.177906 363.628419 
L 471.592 356.030663 
L 473.006095 349.624307 
L 474.42019 341.724077 
L 481.490664 276.191665 
L 482.904758 269.985507 
L 484.318853 258.224925 
L 485.732948 244.003206 
L 487.147043 231.16438 
L 488.561137 223.01499 
L 489.975232 223.988783 
L 491.389327 244.831201 
L 492.803421 228.543302 
L 494.217516 213.849375 
L 495.631611 216.627131 
L 497.045706 182.237575 
L 498.4598 154.727671 
L 499.873895 135.157166 
L 501.28799 118.240382 
L 502.702085 99.245448 
L 504.116179 91.557385 
L 505.530274 59.929265 
L 506.944369 75.668795 
L 508.358464 88.273693 
L 509.772558 88.115927 
L 511.186653 72.760474 
L 512.600748 93.127421 
L 515.428937 129.858431 
L 516.843032 144.402209 
L 518.257127 155.457743 
L 519.671221 164.503675 
L 521.085316 170.537923 
L 522.499411 179.014812 
L 523.913506 186.254604 
L 525.3276 198.527651 
L 526.741695 207.994653 
L 529.569885 228.840335 
L 530.983979 239.59122 
L 532.398074 248.0507 
L 533.812169 259.747088 
L 535.226264 274.558523 
L 536.640358 287.110107 
L 538.054453 296.374734 
L 540.882643 311.7563 
L 542.296737 317.06374 
L 543.710832 318.965627 
L 546.539022 333.950059 
L 550.781306 352.704537 
L 552.1954 357.510392 
L 553.609495 361.397945 
L 555.02359 368.225371 
L 559.265874 385.536025 
L 560.679969 389.240788 
L 563.508158 395.16188 
L 566.336348 398.207293 
L 567.750443 400.185343 
L 569.164537 401.620462 
L 570.578632 403.451627 
L 573.406822 405.179428 
L 577.649106 413.902213 
L 580.477295 420.98424 
L 583.305485 427.110971 
L 584.719579 431.423946 
L 586.133674 434.102691 
L 587.547769 436.488754 
L 588.961864 438.467891 
L 590.375958 439.681052 
L 596.032337 441.44367 
L 598.860527 441.654749 
L 600.274622 441.586203 
L 601.688716 441.863652 
L 603.102811 441.804898 
L 604.516906 441.943079 
L 605.931001 442.455544 
L 608.75919 442.800451 
L 610.173285 443.318356 
L 611.587379 443.406487 
L 613.001474 442.391349 
L 614.415569 442.713408 
L 615.829664 443.151887 
L 617.243758 442.875525 
L 618.657853 442.963656 
L 621.486043 443.989674 
L 622.900137 444.449914 
L 624.314232 446.560704 
L 625.728327 448.065457 
L 627.142422 450.205624 
L 629.970611 453.545895 
L 631.384706 454.553416 
L 632.798801 456.912279 
L 634.212895 458.014459 
L 635.62699 458.442057 
L 637.041085 459.049181 
L 638.45518 459.472428 
L 639.869274 459.270053 
L 642.697464 459.440874 
L 644.111558 459.398441 
L 648.353843 461.547312 
L 651.182032 462.737624 
L 652.596127 462.480847 
L 654.010222 462.590739 
L 655.424316 462.558098 
L 656.838411 462.357899 
L 658.252506 462.270856 
L 659.666601 462.518928 
L 661.080695 462.627732 
L 662.49479 463.018337 
L 663.908885 463.064035 
L 665.32298 463.330603 
L 670.979358 463.843068 
L 672.393453 464.452369 
L 673.807548 464.876703 
L 675.221643 464.498066 
L 678.049832 464.441488 
L 680.878022 464.205384 
L 682.292116 463.517746 
L 683.706211 463.000928 
L 686.534401 463.617845 
L 689.36259 463.869181 
L 690.776685 463.810427 
L 692.19078 464.164039 
L 693.604874 464.090053 
L 696.433064 463.2218 
L 700.675348 462.275208 
L 703.503537 461.52664 
L 704.917632 460.938012 
L 706.331727 459.962044 
L 709.159916 457.708721 
L 710.574011 456.77845 
L 711.988106 456.026617 
L 713.402201 455.537001 
L 714.816295 453.75371 
L 717.644485 449.574563 
L 719.05858 447.49315 
L 720.472674 445.902442 
L 721.886769 443.646943 
L 723.300864 439.834465 
L 724.714959 437.559381 
L 726.129053 435.619413 
L 727.543148 433.923165 
L 727.543148 433.923165 
" style="fill:none;stroke:#5694ca;stroke-linecap:square;stroke-width:2;"/>
   </g>
   <g id="line2d_30">
    <path clip-path="url(#pdadac80ed9)" d="M 74.231379 476.292232 
L 75.645474 476.292232 
L 77.059568 476.065848 
L 81.301853 475.990387 
L 82.715947 475.742443 
L 84.130042 475.677762 
L 85.544137 475.386697 
L 86.958232 475.224994 
L 88.372326 475.257334 
L 91.200516 474.99861 
L 92.614611 474.933929 
L 94.028705 474.610523 
L 95.4428 474.41648 
L 96.856895 474.093074 
L 98.27099 473.575626 
L 101.099179 471.441149 
L 102.513274 470.050505 
L 103.927368 468.04539 
L 105.341463 466.428363 
L 106.755558 464.617292 
L 109.583747 461.803663 
L 110.997842 459.539824 
L 112.411937 458.084499 
L 113.826032 457.146623 
L 115.240126 456.014704 
L 116.654221 455.691298 
L 118.068316 455.755979 
L 120.896505 454.494698 
L 122.3106 454.462357 
L 125.13879 454.915125 
L 126.552884 455.529595 
L 127.966979 455.109168 
L 129.381074 455.076828 
L 130.795168 456.176406 
L 132.209263 455.173849 
L 133.623358 453.912568 
L 135.037453 451.972134 
L 136.451547 451.390004 
L 137.865642 452.424902 
L 139.279737 452.230859 
L 140.693832 451.066599 
L 142.107926 452.263199 
L 144.936116 456.726196 
L 146.350211 457.793434 
L 147.764305 457.696413 
L 149.1784 459.022375 
L 150.592495 460.865787 
L 152.00659 461.02749 
L 153.420684 459.636846 
L 154.834779 459.151738 
L 156.248874 457.955137 
L 157.662969 457.664072 
L 159.077063 457.56705 
L 160.491158 457.599391 
L 161.905253 457.955137 
L 163.319347 458.537267 
L 164.733442 459.345781 
L 166.147537 460.4777 
L 167.561632 460.218976 
L 168.975726 460.218976 
L 170.389821 459.636846 
L 171.803916 459.798549 
L 173.218011 460.574722 
L 174.632105 460.768765 
L 176.0462 461.221533 
L 177.460295 462.030047 
L 178.87439 462.418134 
L 180.288484 463.032604 
L 181.702579 463.064945 
L 183.116674 463.614734 
L 184.530769 464.681973 
L 185.944863 464.229205 
L 187.358958 464.423248 
L 188.773053 465.167081 
L 191.601242 467.948369 
L 193.015337 468.853904 
L 194.429432 469.274332 
L 195.843526 470.600294 
L 197.257621 470.729657 
L 198.671716 471.214765 
L 200.085811 471.441149 
L 201.499905 472.152641 
L 202.914 472.702431 
L 204.328095 472.605409 
L 205.74219 472.767112 
L 207.156284 473.446263 
L 209.984474 474.060734 
L 211.398569 473.899031 
L 212.812663 473.931372 
L 214.226758 474.351799 
L 217.054948 474.190096 
L 218.469042 474.028393 
L 219.883137 474.028393 
L 221.297232 474.384139 
L 222.711326 474.481161 
L 224.125421 474.41648 
L 226.953611 474.739886 
L 228.367705 475.224994 
L 235.438179 475.742443 
L 238.266369 475.677762 
L 239.680463 475.871805 
L 248.165032 475.839464 
L 252.407316 475.613081 
L 253.821411 475.742443 
L 256.6496 475.516059 
L 258.063695 475.677762 
L 259.47779 475.613081 
L 260.891884 475.322016 
L 262.305979 474.869248 
L 265.134169 474.707545 
L 267.962358 474.739886 
L 269.376453 474.578183 
L 272.204642 475.030951 
L 273.618737 474.836907 
L 276.446927 474.99861 
L 277.861021 474.707545 
L 284.931495 474.481161 
L 287.759684 474.028393 
L 289.173779 473.899031 
L 290.587874 473.316901 
L 292.001969 473.090517 
L 293.416063 472.993496 
L 296.244253 471.926257 
L 297.658348 471.085403 
L 299.072442 470.406251 
L 300.486537 470.082845 
L 301.900632 468.983267 
L 303.314727 467.657304 
L 306.142916 467.980709 
L 307.557011 467.689644 
L 310.3852 467.46326 
L 314.627484 465.425805 
L 316.041579 464.390908 
L 317.455674 464.649632 
L 318.869769 463.93814 
L 320.283863 462.967923 
L 323.112053 462.579837 
L 324.526148 462.547496 
L 325.940242 463.097285 
L 327.354337 462.80622 
L 328.768432 462.80622 
L 330.182527 462.19175 
L 331.596621 461.286214 
L 334.424811 458.310883 
L 335.838906 456.176406 
L 337.253 455.594276 
L 338.667095 455.885341 
L 340.08119 455.626617 
L 341.495284 456.499812 
L 342.909379 458.343224 
L 344.323474 457.825775 
L 345.737569 458.14918 
L 348.565758 454.979806 
L 349.979853 453.912568 
L 352.808042 447.961905 
L 354.222137 446.183175 
L 355.636232 445.115936 
L 357.050327 444.598487 
L 358.464421 442.561032 
L 359.878516 439.715064 
L 361.292611 436.02824 
L 362.706706 433.570358 
L 364.1208 430.142259 
L 365.534895 425.388197 
L 366.94899 420.181368 
L 368.363085 413.098786 
L 369.777179 399.418731 
L 371.191274 392.98296 
L 372.605369 378.332689 
L 375.433558 355.823662 
L 379.675842 316.465205 
L 381.089937 300.359608 
L 382.504032 295.734909 
L 383.918127 289.97829 
L 385.332221 282.895708 
L 386.746316 270.088848 
L 388.160411 261.001152 
L 389.574506 259.933914 
L 392.402695 251.525369 
L 393.81679 250.134725 
L 395.230885 251.428347 
L 396.644979 253.595165 
L 398.059074 254.209635 
L 399.473169 252.592607 
L 400.887263 253.595165 
L 402.301358 256.408793 
L 403.715453 259.70753 
L 405.129548 263.329672 
L 406.543642 268.148415 
L 407.957737 276.00717 
L 410.785927 300.068543 
L 412.200021 306.374952 
L 415.028211 320.701818 
L 416.442306 327.008226 
L 419.270495 337.71295 
L 420.68459 341.981904 
L 422.098685 348.482355 
L 423.512779 350.325767 
L 424.926874 351.65173 
L 426.340969 353.236417 
L 427.755064 351.845773 
L 429.169158 351.295984 
L 431.997348 352.039817 
L 433.411442 353.236417 
L 434.825537 354.821104 
L 436.239632 356.987922 
L 437.653727 361.030491 
L 439.067821 366.496045 
L 440.481916 373.028837 
L 441.896011 376.327574 
L 443.310106 380.434825 
L 444.7242 383.63654 
L 446.138295 390.234013 
L 447.55239 397.737022 
L 448.966485 398.480855 
L 450.380579 398.868942 
L 451.794674 400.162564 
L 453.208769 398.545536 
L 454.622864 399.127666 
L 456.036958 394.955734 
L 457.451053 393.047641 
L 458.865148 393.209344 
L 460.279242 388.067196 
L 461.693337 384.83314 
L 463.107432 383.119091 
L 464.521527 379.496949 
L 465.935621 380.661209 
L 467.349716 378.39737 
L 468.763811 377.006726 
L 470.177906 376.845023 
L 471.592 373.999054 
L 473.006095 375.130974 
L 474.42019 374.128416 
L 475.834285 370.959042 
L 477.248379 368.824565 
L 478.662474 363.585395 
L 480.076569 360.286658 
L 481.490664 359.769209 
L 482.904758 355.758981 
L 484.318853 352.913012 
L 485.732948 347.964907 
L 488.561137 335.837198 
L 489.975232 335.125706 
L 491.389327 341.432114 
L 492.803421 333.896765 
L 494.217516 314.42775 
L 495.631611 292.921281 
L 497.045706 241.726181 
L 498.4598 195.770251 
L 499.873895 160.26032 
L 501.28799 130.959777 
L 502.702085 91.860045 
L 504.116179 74.363804 
L 505.530274 54.345 
L 508.358464 99.233692 
L 509.772558 114.983542 
L 511.186653 115.371629 
L 512.600748 145.383665 
L 515.428937 193.635774 
L 518.257127 224.973773 
L 519.671221 235.419772 
L 521.085316 247.967908 
L 522.499411 257.96114 
L 523.913506 266.660749 
L 525.3276 278.076965 
L 526.741695 286.356148 
L 528.15579 295.443844 
L 529.569885 300.650673 
L 532.398074 315.527329 
L 533.812169 320.863521 
L 535.226264 330.015898 
L 536.640358 337.518907 
L 538.054453 342.790418 
L 539.468548 350.422789 
L 540.882643 353.139396 
L 542.296737 355.435575 
L 543.710832 357.278987 
L 545.124927 360.739426 
L 546.539022 366.625407 
L 547.953116 371.185426 
L 549.367211 375.033952 
L 553.609495 384.380372 
L 555.02359 389.166775 
L 556.437685 392.885939 
L 557.851779 396.960849 
L 559.265874 400.388948 
L 560.679969 405.240031 
L 562.094064 409.056217 
L 563.508158 410.091114 
L 564.922253 409.83239 
L 566.336348 410.382179 
L 569.164537 411.158353 
L 570.578632 410.576223 
L 571.992727 409.217919 
L 573.406822 411.223034 
L 574.820916 415.039219 
L 577.649106 418.661362 
L 579.063201 419.663919 
L 580.477295 423.447764 
L 581.89139 425.905646 
L 584.719579 430.077578 
L 586.133674 431.435881 
L 587.547769 435.122705 
L 588.961864 437.580587 
L 590.375958 438.550804 
L 591.790053 438.93889 
L 594.618243 436.57803 
L 596.032337 437.354203 
L 597.446432 436.254624 
L 598.860527 435.575472 
L 600.274622 434.605256 
L 601.688716 434.896321 
L 604.516906 438.065695 
L 605.931001 438.486122 
L 607.345095 440.394215 
L 608.75919 440.782302 
L 610.173285 442.237627 
L 611.587379 442.722735 
L 614.415569 442.819757 
L 615.829664 443.757633 
L 617.243758 442.884438 
L 621.486043 442.884438 
L 622.900137 443.466568 
L 625.728327 445.956791 
L 627.142422 447.412116 
L 628.556516 450.096382 
L 629.970611 451.939794 
L 631.384706 454.07427 
L 632.798801 455.917682 
L 634.212895 458.407905 
L 637.041085 459.410462 
L 638.45518 458.310883 
L 639.869274 456.758536 
L 641.283369 455.529595 
L 644.111558 452.166178 
L 645.525653 451.972134 
L 646.939748 450.064041 
L 648.353843 450.484469 
L 649.767937 451.325323 
L 651.182032 451.454685 
L 652.596127 451.907453 
L 655.424316 450.322766 
L 656.838411 452.004475 
L 658.252506 453.201075 
L 659.666601 454.04193 
L 661.080695 454.494698 
L 662.49479 454.494698 
L 663.908885 455.497255 
L 666.737074 456.467471 
L 669.565264 455.78832 
L 670.979358 455.917682 
L 673.807548 456.790877 
L 675.221643 456.855558 
L 678.049832 457.761094 
L 679.463927 457.922796 
L 680.878022 457.146623 
L 683.706211 455.853001 
L 685.120306 455.885341 
L 686.534401 455.400233 
L 687.948495 455.076828 
L 689.36259 455.853001 
L 690.776685 456.758536 
L 692.19078 457.146623 
L 695.018969 457.211304 
L 696.433064 457.502369 
L 697.847159 457.599391 
L 699.261253 456.823218 
L 700.675348 456.790877 
L 702.089443 457.308326 
L 703.503537 458.181521 
L 704.917632 459.604505 
L 706.331727 460.251317 
L 707.745822 460.154295 
L 710.574011 460.4777 
L 711.988106 461.092171 
L 713.402201 461.900685 
L 714.816295 461.64196 
L 716.23039 461.092171 
L 719.05858 460.930468 
L 720.472674 460.380679 
L 721.886769 459.960252 
L 723.300864 459.022375 
L 724.714959 457.922796 
L 726.129053 457.599391 
L 727.543148 456.37045 
L 727.543148 456.37045 
" style="fill:none;stroke:#ffdd00;stroke-linecap:square;stroke-width:2;"/>
   </g>
   <g id="line2d_31">
    <path clip-path="url(#pdadac80ed9)" d="M 65.746811 476.666532 
L 68.575 476.666532 
L 74.231379 476.576854 
L 79.887758 476.27419 
L 82.715947 475.84822 
L 85.544137 474.973859 
L 88.372326 474.727244 
L 89.786421 474.671196 
L 92.614611 474.256435 
L 94.028705 474.133128 
L 95.4428 473.740786 
L 96.856895 473.213928 
L 98.27099 472.507713 
L 101.099179 469.794953 
L 102.513274 468.147119 
L 103.927368 466.196622 
L 105.341463 464.05556 
L 106.755558 462.497404 
L 108.169653 461.129814 
L 112.411937 454.919611 
L 113.826032 453.484763 
L 115.240126 452.307739 
L 116.654221 451.702412 
L 118.068316 451.388539 
L 119.482411 450.44692 
L 120.896505 450.323612 
L 125.13879 451.915397 
L 126.552884 452.744919 
L 127.966979 452.800968 
L 129.381074 453.305407 
L 132.209263 453.495972 
L 133.623358 452.117173 
L 135.037453 451.388539 
L 136.451547 450.502968 
L 137.865642 451.186763 
L 139.279737 446.512296 
L 140.693832 445.918179 
L 142.107926 445.817292 
L 143.522021 447.083994 
L 146.350211 448.978442 
L 147.764305 448.832715 
L 149.1784 452.71129 
L 150.592495 452.924275 
L 152.00659 451.915397 
L 153.420684 451.679992 
L 154.834779 450.973778 
L 156.248874 450.603856 
L 157.662969 450.41329 
L 160.491158 452.554353 
L 161.905253 453.944362 
L 163.319347 454.448801 
L 164.733442 455.726713 
L 167.561632 456.612284 
L 170.389821 458.035922 
L 171.803916 459.246576 
L 173.218011 460.120936 
L 174.632105 461.264331 
L 176.0462 462.093853 
L 177.460295 462.744019 
L 178.87439 464.111608 
L 180.288484 464.649677 
L 181.702579 465.512828 
L 183.116674 466.645013 
L 185.944863 467.911715 
L 188.773053 468.819705 
L 190.187147 469.996729 
L 194.429432 471.947226 
L 195.843526 472.059323 
L 197.257621 472.406826 
L 198.671716 473.068201 
L 201.499905 473.774415 
L 202.914 473.998611 
L 204.328095 474.054659 
L 205.74219 474.256435 
L 207.156284 474.323693 
L 209.984474 474.749664 
L 214.226758 474.906601 
L 218.469042 474.906601 
L 219.883137 475.018698 
L 221.297232 474.973859 
L 224.125421 475.130796 
L 225.539516 475.321361 
L 229.7818 475.444669 
L 231.195895 475.724912 
L 232.60999 475.668864 
L 234.024084 475.85943 
L 253.821411 476.117254 
L 265.134169 475.769751 
L 266.548263 475.601605 
L 267.962358 475.646444 
L 270.790548 475.545556 
L 273.618737 475.489508 
L 276.446927 475.713703 
L 279.275116 475.680073 
L 282.103305 475.500717 
L 283.5174 475.38862 
L 286.34559 475.029908 
L 287.759684 474.48063 
L 293.416063 472.933684 
L 299.072442 472.787957 
L 300.486537 472.989733 
L 301.900632 473.056991 
L 303.314727 473.012152 
L 304.728821 473.090621 
L 307.557011 472.832796 
L 308.971105 472.66465 
L 310.3852 472.171421 
L 311.799295 471.252221 
L 314.627484 470.445119 
L 316.041579 470.063987 
L 317.455674 470.243343 
L 318.869769 470.310602 
L 320.283863 470.254553 
L 321.697958 470.747782 
L 323.112053 470.590846 
L 325.940242 469.716485 
L 327.354337 468.763656 
L 328.768432 467.340017 
L 331.596621 465.109276 
L 333.010716 464.380642 
L 335.838906 463.315716 
L 337.253 463.057892 
L 338.667095 464.134028 
L 341.495284 463.461443 
L 342.909379 462.945794 
L 344.323474 462.082643 
L 347.151663 461.600624 
L 348.565758 460.087307 
L 349.979853 459.448351 
L 351.393948 459.06722 
L 352.808042 458.461893 
L 354.222137 458.215278 
L 355.636232 456.623493 
L 359.878516 447.442706 
L 361.292611 442.387107 
L 362.706706 438.945713 
L 364.1208 436.692553 
L 365.534895 436.244163 
L 368.363085 432.500105 
L 369.777179 430.02275 
L 371.191274 429.338955 
L 372.605369 426.637404 
L 374.019463 423.66682 
L 375.433558 419.351065 
L 376.847653 414.026432 
L 378.261748 408.062844 
L 379.675842 402.917567 
L 381.089937 398.500924 
L 382.504032 395.395823 
L 383.918127 392.671853 
L 385.332221 390.250546 
L 386.746316 387.291171 
L 388.160411 384.701718 
L 389.574506 384.230909 
L 390.9886 382.852109 
L 392.402695 381.080968 
L 393.81679 382.000168 
L 395.230885 383.479855 
L 396.644979 383.513485 
L 398.059074 380.576529 
L 399.473169 377.35933 
L 400.887263 375.016492 
L 402.301358 374.63536 
L 403.715453 373.559224 
L 405.129548 372.303732 
L 406.543642 372.460668 
L 407.957737 376.653116 
L 409.371832 380.150559 
L 410.785927 384.668089 
L 412.200021 386.708264 
L 413.614116 389.107151 
L 415.028211 388.737229 
L 416.442306 387.246332 
L 417.8564 386.304713 
L 419.270495 385.912372 
L 420.68459 383.681631 
L 422.098685 383.244451 
L 423.512779 382.078636 
L 424.926874 383.154772 
L 426.340969 385.206157 
L 427.755064 386.371972 
L 429.169158 386.966088 
L 430.583253 388.109483 
L 431.997348 389.017473 
L 433.411442 388.232791 
L 434.825537 388.916586 
L 436.239632 389.107151 
L 437.653727 389.846995 
L 439.067821 391.337892 
L 441.896011 395.922681 
L 443.310106 397.648983 
L 446.138295 400.171177 
L 447.55239 402.77184 
L 450.380579 406.840981 
L 451.794674 408.253409 
L 453.208769 410.405682 
L 454.622864 412.120774 
L 456.036958 414.216998 
L 457.451053 414.912003 
L 458.865148 414.710227 
L 460.279242 414.676598 
L 461.693337 415.696685 
L 464.521527 413.634091 
L 465.935621 413.813447 
L 467.349716 412.524325 
L 468.763811 411.885369 
L 470.177906 410.798023 
L 471.592 408.20857 
L 473.006095 407.995585 
L 474.42019 407.143644 
L 475.834285 405.563069 
L 477.248379 405.708795 
L 478.662474 405.226776 
L 480.076569 405.170727 
L 481.490664 404.61024 
L 482.904758 403.825557 
L 484.318853 402.670952 
L 485.732948 400.182387 
L 487.147043 396.830671 
L 488.561137 393.792828 
L 489.975232 392.559755 
L 491.389327 397.155754 
L 492.803421 393.781618 
L 494.217516 383.905826 
L 495.631611 378.26732 
L 497.045706 357.944038 
L 498.4598 339.436736 
L 499.873895 324.225101 
L 501.28799 316.972391 
L 502.702085 303.969078 
L 504.116179 298.162425 
L 505.530274 291.884964 
L 506.944369 292.871422 
L 508.358464 297.568309 
L 509.772558 299.552435 
L 511.186653 292.019481 
L 512.600748 300.090503 
L 514.014843 308.979837 
L 515.428937 312.163407 
L 516.843032 324.202682 
L 518.257127 333.663713 
L 519.671221 340.14295 
L 521.085316 343.34894 
L 522.499411 346.95848 
L 523.913506 349.559143 
L 525.3276 353.639493 
L 526.741695 358.426057 
L 528.15579 359.804857 
L 529.569885 364.086983 
L 530.983979 367.562006 
L 532.398074 370.241137 
L 533.812169 374.007614 
L 538.054453 388.25521 
L 539.468548 389.6228 
L 540.882643 392.761531 
L 542.296737 394.465413 
L 543.710832 395.003481 
L 545.124927 397.492047 
L 546.539022 398.893266 
L 547.953116 400.96707 
L 549.367211 403.422006 
L 550.781306 403.70225 
L 552.1954 404.475723 
L 553.609495 406.235654 
L 555.02359 407.435097 
L 556.437685 410.719555 
L 557.851779 411.672384 
L 559.265874 412.28892 
L 560.679969 412.703681 
L 562.094064 414.676598 
L 563.508158 414.396354 
L 564.922253 414.710227 
L 566.336348 413.028764 
L 567.750443 413.19691 
L 569.164537 412.838198 
L 570.578632 412.950296 
L 571.992727 411.616335 
L 573.406822 412.412228 
L 574.820916 414.373934 
L 576.235011 416.716773 
L 577.649106 418.151621 
L 579.063201 420.94285 
L 580.477295 425.090458 
L 581.89139 427.848058 
L 583.305485 429.933072 
L 584.719579 432.668251 
L 586.133674 434.674797 
L 587.547769 436.972796 
L 588.961864 437.768689 
L 590.375958 438.407645 
L 591.790053 437.690221 
L 593.204148 437.589333 
L 594.618243 437.118523 
L 597.446432 434.159148 
L 598.860527 432.982124 
L 600.274622 431.625744 
L 601.688716 431.782681 
L 603.102811 431.659374 
L 604.516906 430.515979 
L 605.931001 431.435179 
L 607.345095 431.715422 
L 608.75919 432.959705 
L 610.173285 433.419305 
L 611.587379 433.497773 
L 613.001474 433.284788 
L 614.415569 433.374466 
L 615.829664 433.004544 
L 617.243758 433.665919 
L 618.657853 433.452934 
L 621.486043 434.966251 
L 622.900137 436.165694 
L 624.314232 438.026513 
L 625.728327 440.380561 
L 629.970611 445.234384 
L 632.798801 447.633272 
L 634.212895 450.133046 
L 635.62699 450.570227 
L 637.041085 451.825719 
L 638.45518 453.305407 
L 639.869274 454.235816 
L 642.697464 455.300743 
L 644.111558 455.726713 
L 645.525653 456.79164 
L 646.939748 457.565113 
L 648.353843 458.506732 
L 649.767937 458.999961 
L 651.182032 459.268995 
L 652.596127 459.683756 
L 654.010222 459.616497 
L 655.424316 459.840693 
L 658.252506 459.212946 
L 659.666601 459.605288 
L 662.49479 460.939248 
L 663.908885 461.690302 
L 668.151169 463.282087 
L 670.979358 463.652009 
L 672.393453 463.539911 
L 673.807548 463.898623 
L 675.221643 463.887413 
L 676.635737 463.58475 
L 678.049832 463.091521 
L 679.463927 462.788858 
L 680.878022 462.149902 
L 682.292116 461.141024 
L 683.706211 459.302624 
L 689.36259 455.40163 
L 690.776685 454.897191 
L 692.19078 454.672996 
L 693.604874 454.280655 
L 695.018969 452.823387 
L 696.433064 451.534266 
L 700.675348 449.180217 
L 702.089443 448.115291 
L 703.503537 446.624394 
L 704.917632 445.649145 
L 706.331727 443.239048 
L 707.745822 441.322181 
L 709.159916 439.214747 
L 710.574011 437.611752 
L 711.988106 435.739724 
L 713.402201 434.282456 
L 714.816295 431.009208 
L 716.23039 427.141843 
L 717.644485 422.613103 
L 719.05858 419.485582 
L 720.472674 417.568714 
L 721.886769 415.438861 
L 723.300864 411.750852 
L 724.714959 409.082931 
L 727.543148 407.076385 
L 727.543148 407.076385 
" style="fill:none;stroke:#003078;stroke-linecap:square;stroke-width:2;"/>
   </g>
   <g id="line2d_32">
    <path clip-path="url(#pdadac80ed9)" d="M 64.332716 476.60903 
L 68.575 476.711008 
L 78.473663 476.667303 
L 79.887758 476.60903 
L 82.715947 476.104 
L 88.372326 474.142153 
L 89.786421 473.48173 
L 94.028705 471.908367 
L 95.4428 471.034277 
L 96.856895 469.94652 
L 98.27099 469.091854 
L 101.099179 465.207008 
L 102.513274 462.215677 
L 105.341463 457.612135 
L 108.169653 454.212894 
L 109.583747 450.133806 
L 112.411937 444.830992 
L 113.826032 441.74254 
L 115.240126 439.08142 
L 116.654221 436.847634 
L 118.068316 435.604483 
L 119.482411 434.827514 
L 120.896505 432.710273 
L 123.724695 430.495911 
L 125.13879 430.923244 
L 126.552884 431.603092 
L 127.966979 431.136911 
L 129.381074 433.273576 
L 130.795168 434.613848 
L 133.623358 435.643332 
L 135.037453 435.332544 
L 136.451547 435.332544 
L 137.865642 436.614543 
L 139.279737 436.459149 
L 140.693832 437.585755 
L 142.107926 439.683571 
L 143.522021 442.830296 
L 146.350211 447.142475 
L 147.764305 448.307929 
L 150.592495 452.484138 
L 152.00659 453.979804 
L 153.420684 453.999228 
L 154.834779 454.717924 
L 156.248874 453.882683 
L 157.662969 454.19347 
L 159.077063 454.83447 
L 160.491158 454.407137 
L 161.905253 454.504258 
L 163.319347 454.970439 
L 164.733442 456.155317 
L 166.147537 456.990559 
L 167.561632 456.951711 
L 168.975726 456.194166 
L 170.389821 456.679772 
L 171.803916 457.029408 
L 173.218011 457.884074 
L 174.632105 456.640923 
L 176.0462 456.058196 
L 177.460295 455.84453 
L 178.87439 456.038772 
L 180.288484 454.815046 
L 181.702579 454.562531 
L 183.116674 454.562531 
L 187.358958 456.932287 
L 188.773053 458.156013 
L 190.187147 460.312102 
L 191.601242 461.244465 
L 194.429432 462.429343 
L 195.843526 463.439403 
L 201.499905 466.333613 
L 202.914 467.149431 
L 204.328095 468.140067 
L 207.156284 468.703369 
L 208.570379 468.509127 
L 211.398569 468.878187 
L 212.812663 468.761642 
L 217.054948 467.654461 
L 218.469042 467.809855 
L 219.883137 467.42137 
L 222.711326 467.55734 
L 224.125421 466.294765 
L 225.539516 466.741522 
L 226.953611 466.314189 
L 228.367705 466.314189 
L 229.7818 465.362402 
L 231.195895 465.886856 
L 232.60999 465.925705 
L 234.024084 468.276036 
L 235.438179 466.469583 
L 236.852274 467.401946 
L 238.266369 467.848703 
L 239.680463 469.713429 
L 241.094558 469.907671 
L 242.508653 470.529247 
L 243.922748 470.529247 
L 245.336842 473.073821 
L 246.750937 473.384608 
L 252.407316 474.025608 
L 253.821411 473.831366 
L 256.6496 473.811941 
L 259.47779 474.142153 
L 262.305979 474.006184 
L 263.720074 474.239274 
L 266.548263 474.258699 
L 267.962358 473.889638 
L 269.376453 473.151518 
L 273.618737 472.646488 
L 275.032832 472.393973 
L 276.446927 471.908367 
L 277.861021 472.296852 
L 279.275116 472.957275 
L 282.103305 472.937851 
L 283.5174 473.20979 
L 284.931495 473.365184 
L 286.34559 473.773093 
L 289.173779 473.85079 
L 294.830158 474.336396 
L 297.658348 474.511214 
L 300.486537 474.414093 
L 301.900632 474.511214 
L 304.728821 474.375244 
L 306.142916 474.181002 
L 307.557011 474.181002 
L 314.627484 473.20979 
L 316.041579 473.34576 
L 318.869769 472.782457 
L 320.283863 472.607639 
L 321.697958 472.238579 
L 325.940242 470.490398 
L 328.768432 470.199035 
L 330.182527 469.208399 
L 331.596621 467.751582 
L 333.010716 465.867432 
L 335.838906 462.584737 
L 337.253 460.350951 
L 338.667095 458.680467 
L 341.495284 456.271863 
L 342.909379 456.34956 
L 344.323474 456.116469 
L 347.151663 454.853894 
L 348.565758 454.445985 
L 349.979853 453.494198 
L 351.393948 452.037381 
L 352.808042 450.075534 
L 354.222137 447.356142 
L 355.636232 445.64681 
L 357.050327 443.277054 
L 358.464421 439.100844 
L 359.878516 435.779301 
L 361.292611 434.710969 
L 362.706706 432.011001 
L 364.1208 429.621821 
L 365.534895 428.359246 
L 366.94899 426.164308 
L 368.363085 424.4744 
L 369.777179 420.142797 
L 371.191274 414.101862 
L 372.605369 409.906228 
L 374.019463 407.672442 
L 378.261748 390.598545 
L 379.675842 385.742488 
L 381.089937 381.857642 
L 382.504032 378.341856 
L 383.918127 376.380009 
L 385.332221 376.146919 
L 386.746316 374.612404 
L 388.160411 371.096619 
L 389.574506 370.067135 
L 390.9886 370.766407 
L 392.402695 367.464288 
L 395.230885 363.987351 
L 396.644979 357.59678 
L 398.059074 352.060875 
L 399.473169 345.029304 
L 402.301358 335.122947 
L 403.715453 328.965467 
L 405.129548 324.614439 
L 406.543642 315.970657 
L 407.957737 311.289418 
L 409.371832 309.521813 
L 410.785927 299.285245 
L 412.200021 298.430579 
L 413.614116 301.266516 
L 415.028211 301.111122 
L 416.442306 303.94706 
L 419.270495 313.795144 
L 420.68459 324.789257 
L 422.098685 331.859677 
L 424.926874 342.076821 
L 426.340969 349.827088 
L 427.755064 355.091054 
L 430.583253 364.492381 
L 431.997348 364.842017 
L 433.411442 364.39526 
L 434.825537 365.716108 
L 436.239632 366.065744 
L 437.653727 364.570078 
L 439.067821 362.00608 
L 440.481916 359.131294 
L 441.896011 357.635628 
L 443.310106 356.625568 
L 444.7242 354.896812 
L 446.138295 354.158691 
L 447.55239 353.129207 
L 448.966485 346.330727 
L 450.380579 341.688336 
L 451.794674 339.765338 
L 453.208769 336.579764 
L 454.622864 331.743131 
L 456.036958 322.536047 
L 457.451053 312.474296 
L 458.865148 306.511058 
L 461.693337 281.065318 
L 464.521527 253.482913 
L 468.763811 194.336136 
L 470.177906 177.670148 
L 471.592 156.031557 
L 473.006095 141.424537 
L 475.834285 101.313504 
L 477.248379 90.066875 
L 478.662474 81.345397 
L 480.076569 79.169883 
L 481.490664 84.511546 
L 482.904758 86.745332 
L 484.318853 96.962477 
L 485.732948 112.404739 
L 487.147043 121.650672 
L 488.561137 135.208783 
L 489.975232 160.518554 
L 491.389327 197.308043 
L 492.803421 202.688554 
L 494.217516 197.094377 
L 495.631611 204.630977 
L 497.045706 187.964989 
L 498.4598 182.992386 
L 501.28799 161.528613 
L 502.702085 157.760313 
L 504.116179 171.104758 
L 505.530274 165.238641 
L 506.944369 188.159231 
L 508.358464 201.93101 
L 509.772558 208.671217 
L 511.186653 201.192889 
L 512.600748 219.548785 
L 514.014843 231.805474 
L 515.428937 249.734037 
L 516.843032 264.923784 
L 518.257127 275.160353 
L 519.671221 281.997681 
L 521.085316 289.456585 
L 522.499411 292.117704 
L 525.3276 305.539847 
L 528.15579 325.197166 
L 529.569885 333.005706 
L 533.812169 358.898203 
L 535.226264 369.600953 
L 536.640358 376.399434 
L 539.468548 386.461184 
L 540.882643 389.841 
L 542.296737 390.909333 
L 543.710832 389.666182 
L 545.124927 394.211451 
L 547.953116 399.125781 
L 549.367211 402.175385 
L 550.781306 404.059535 
L 552.1954 406.526413 
L 553.609495 409.945077 
L 555.02359 412.275984 
L 557.851779 417.481678 
L 559.265874 419.890282 
L 560.679969 421.71616 
L 562.094064 423.211825 
L 563.508158 423.114704 
L 564.922253 423.872249 
L 566.336348 424.299582 
L 567.750443 425.795248 
L 569.164537 426.455671 
L 570.578632 428.339822 
L 573.406822 428.941973 
L 574.820916 431.214607 
L 576.235011 434.205939 
L 580.477295 440.713055 
L 581.89139 443.199357 
L 583.305485 444.481356 
L 584.719579 446.268385 
L 587.547769 448.327353 
L 588.961864 448.832383 
L 590.375958 450.211503 
L 591.790053 449.628776 
L 593.204148 450.813654 
L 594.618243 450.541715 
L 596.032337 451.94026 
L 597.446432 452.076229 
L 598.860527 451.512927 
L 600.274622 450.056109 
L 601.688716 449.648201 
L 603.102811 449.41511 
L 604.516906 450.619412 
L 605.931001 450.269776 
L 607.345095 450.638836 
L 608.75919 450.813654 
L 610.173285 451.376957 
L 611.587379 452.115078 
L 613.001474 452.484138 
L 614.415569 452.44529 
L 615.829664 452.833774 
L 617.243758 452.697805 
L 620.071948 453.571895 
L 621.486043 454.83447 
L 622.900137 455.533742 
L 624.314232 456.990559 
L 625.728327 457.495589 
L 627.142422 459.088376 
L 628.556516 461.12792 
L 629.970611 462.856676 
L 632.798801 463.944433 
L 634.212895 464.935069 
L 635.62699 465.556644 
L 638.45518 465.692614 
L 639.869274 465.517796 
L 641.283369 465.653765 
L 642.697464 466.081098 
L 644.111558 465.40125 
L 645.525653 466.217068 
L 646.939748 466.722098 
L 648.353843 467.091158 
L 651.182032 467.576764 
L 652.596127 467.576764 
L 654.010222 468.217764 
L 655.424316 468.334309 
L 659.666601 469.188975 
L 661.080695 469.188975 
L 663.908885 469.965944 
L 665.32298 469.907671 
L 666.737074 470.199035 
L 668.151169 470.199035 
L 669.565264 470.470974 
L 672.393453 470.684641 
L 673.807548 471.247943 
L 676.635737 471.383913 
L 679.463927 471.092549 
L 682.292116 471.053701 
L 683.706211 470.762337 
L 685.120306 470.587519 
L 686.534401 470.276732 
L 687.948495 470.801186 
L 689.36259 470.704065 
L 692.19078 470.762337 
L 693.604874 470.606944 
L 695.018969 470.995428 
L 696.433064 471.500458 
L 700.675348 471.034277 
L 703.503537 471.403337 
L 704.917632 471.306216 
L 706.331727 471.403337 
L 709.159916 471.83067 
L 710.574011 471.714125 
L 713.402201 470.995428 
L 714.816295 470.82061 
L 717.644485 468.839339 
L 719.05858 468.353733 
L 723.300864 466.236492 
L 724.714959 465.129311 
L 726.129053 464.177524 
L 726.129053 464.177524 
" style="fill:none;stroke:#d4351c;stroke-linecap:square;stroke-width:2;"/>
   </g>
   <g id="patch_3">
    <path d="M 68.575 476.745 
L 738.175 476.745 
" style="fill:none;stroke:#000000;stroke-linecap:square;stroke-linejoin:miter;stroke-width:0.8;"/>
   </g>
   <g id="text_24">
    <!-- Average COVID-19 cases in UK Nations, per capita -->
    <g transform="translate(255.384062 27.225)scale(0.12 -0.12)">
     <defs>
      <path d="M 1207 0 
L 152 0 
L 1759 4655 
L 3027 4655 
L 4632 0 
L 3577 0 
L 3232 1061 
L 1552 1061 
L 1207 0 
z
M 1802 1830 
L 2984 1830 
L 2411 3591 
L 2375 3591 
L 1802 1830 
z
" id="Inter-Bold-41" transform="scale(0.015625)"/>
      <path d="M 3641 3491 
L 2421 0 
L 1330 0 
L 109 3491 
L 1132 3491 
L 1857 993 
L 1893 993 
L 2616 3491 
L 3641 3491 
z
" id="Inter-Bold-76" transform="scale(0.015625)"/>
      <path d="M 1977 -68 
Q 1441 -68 1052 151 
Q 664 370 455 773 
Q 246 1177 246 1730 
Q 246 2268 455 2675 
Q 664 3082 1044 3309 
Q 1425 3536 1939 3536 
Q 2400 3536 2771 3340 
Q 3143 3145 3361 2751 
Q 3580 2357 3580 1764 
L 3580 1498 
L 1202 1498 
L 1202 1495 
Q 1202 1105 1416 880 
Q 1630 655 1993 655 
Q 2236 655 2413 757 
Q 2591 859 2664 1059 
L 3559 1000 
Q 3457 514 3041 223 
Q 2625 -68 1977 -68 
z
M 1202 2098 
L 2668 2098 
Q 2666 2409 2468 2611 
Q 2271 2814 1955 2814 
Q 1632 2814 1425 2604 
Q 1218 2395 1202 2098 
z
" id="Inter-Bold-65" transform="scale(0.015625)"/>
      <path d="M 386 0 
L 386 3491 
L 1325 3491 
L 1325 2882 
L 1361 2882 
Q 1457 3207 1681 3374 
Q 1905 3541 2200 3541 
Q 2341 3541 2461 3507 
Q 2582 3473 2677 3414 
L 2386 2614 
Q 2318 2648 2237 2671 
Q 2157 2695 2057 2695 
Q 1764 2695 1560 2495 
Q 1357 2295 1355 1975 
L 1355 0 
L 386 0 
z
" id="Inter-Bold-72" transform="scale(0.015625)"/>
      <path d="M 1382 -66 
Q 882 -66 552 195 
Q 223 457 223 975 
Q 223 1366 407 1588 
Q 591 1811 890 1914 
Q 1189 2018 1534 2050 
Q 1989 2095 2184 2145 
Q 2380 2195 2380 2364 
L 2380 2377 
Q 2380 2593 2244 2711 
Q 2109 2830 1861 2830 
Q 1600 2830 1445 2716 
Q 1291 2602 1241 2427 
L 346 2500 
Q 446 2977 842 3256 
Q 1239 3536 1866 3536 
Q 2255 3536 2593 3413 
Q 2932 3291 3140 3030 
Q 3348 2770 3348 2355 
L 3348 0 
L 2430 0 
L 2430 484 
L 2402 484 
Q 2275 241 2021 87 
Q 1768 -66 1382 -66 
z
M 1659 602 
Q 1977 602 2181 787 
Q 2386 973 2386 1248 
L 2386 1618 
Q 2330 1580 2210 1550 
Q 2091 1520 1956 1498 
Q 1821 1477 1714 1461 
Q 1459 1425 1303 1318 
Q 1148 1211 1148 1007 
Q 1148 807 1292 704 
Q 1436 602 1659 602 
z
" id="Inter-Bold-61" transform="scale(0.015625)"/>
      <path d="M 1959 -1359 
Q 1255 -1359 852 -1082 
Q 450 -805 364 -409 
L 1259 -289 
Q 1318 -430 1489 -547 
Q 1661 -664 1982 -664 
Q 2298 -664 2503 -514 
Q 2709 -364 2709 -20 
L 2709 618 
L 2668 618 
Q 2573 402 2332 226 
Q 2091 50 1673 50 
Q 1280 50 958 234 
Q 636 418 446 795 
Q 257 1173 257 1752 
Q 257 2348 451 2743 
Q 646 3139 967 3337 
Q 1289 3536 1671 3536 
Q 1964 3536 2161 3437 
Q 2359 3339 2482 3193 
Q 2605 3048 2668 2905 
L 2705 2905 
L 2705 3491 
L 3666 3491 
L 3666 -34 
Q 3666 -468 3446 -763 
Q 3227 -1059 2843 -1209 
Q 2459 -1359 1959 -1359 
z
M 1980 777 
Q 2330 777 2522 1036 
Q 2714 1295 2714 1757 
Q 2714 2216 2523 2491 
Q 2332 2766 1980 2766 
Q 1621 2766 1433 2484 
Q 1246 2202 1246 1757 
Q 1246 1305 1434 1041 
Q 1623 777 1980 777 
z
" id="Inter-Bold-67" transform="scale(0.015625)"/>
      <path id="Inter-Bold-20" transform="scale(0.015625)"/>
      <path d="M 4511 3025 
L 3516 3025 
Q 3459 3409 3188 3628 
Q 2918 3848 2514 3848 
Q 1973 3848 1647 3451 
Q 1321 3055 1321 2327 
Q 1321 1582 1649 1194 
Q 1977 807 2507 807 
Q 2900 807 3173 1012 
Q 3446 1218 3516 1591 
L 4511 1586 
Q 4459 1159 4207 782 
Q 3955 405 3522 170 
Q 3089 -64 2491 -64 
Q 1868 -64 1378 218 
Q 889 500 606 1034 
Q 323 1568 323 2327 
Q 323 3089 609 3623 
Q 896 4157 1386 4437 
Q 1877 4718 2491 4718 
Q 3030 4718 3463 4519 
Q 3896 4320 4172 3942 
Q 4448 3564 4511 3025 
z
" id="Inter-Bold-43" transform="scale(0.015625)"/>
      <path d="M 4682 2327 
Q 4682 1566 4394 1032 
Q 4107 498 3614 217 
Q 3121 -64 2502 -64 
Q 1882 -64 1389 218 
Q 896 500 609 1035 
Q 323 1570 323 2327 
Q 323 3089 609 3623 
Q 896 4157 1389 4437 
Q 1882 4718 2502 4718 
Q 3121 4718 3614 4437 
Q 4107 4157 4394 3623 
Q 4682 3089 4682 2327 
z
M 3684 2327 
Q 3684 3068 3361 3458 
Q 3039 3848 2502 3848 
Q 1966 3848 1643 3458 
Q 1321 3068 1321 2327 
Q 1321 1589 1643 1198 
Q 1966 807 2502 807 
Q 3039 807 3361 1198 
Q 3684 1589 3684 2327 
z
" id="Inter-Bold-4f" transform="scale(0.015625)"/>
      <path d="M 1246 4655 
L 2371 1118 
L 2414 1118 
L 3541 4655 
L 4632 4655 
L 3027 0 
L 1759 0 
L 152 4655 
L 1246 4655 
z
" id="Inter-Bold-56" transform="scale(0.015625)"/>
      <path d="M 1389 4655 
L 1389 0 
L 405 0 
L 405 4655 
L 1389 4655 
z
" id="Inter-Bold-49" transform="scale(0.015625)"/>
      <path d="M 2055 0 
L 405 0 
L 405 4655 
L 2068 4655 
Q 2771 4655 3278 4376 
Q 3786 4098 4059 3577 
Q 4332 3057 4332 2332 
Q 4332 1605 4058 1082 
Q 3784 559 3274 279 
Q 2764 0 2055 0 
z
M 1389 843 
L 2014 843 
Q 2671 843 3010 1197 
Q 3350 1552 3350 2332 
Q 3350 3107 3010 3459 
Q 2671 3811 2016 3811 
L 1389 3811 
L 1389 843 
z
" id="Inter-Bold-44" transform="scale(0.015625)"/>
      <path d="M 2561 2295 
L 2561 1527 
L 439 1527 
L 439 2295 
L 2561 2295 
z
" id="Inter-Bold-2d" transform="scale(0.015625)"/>
      <path d="M 2305 4655 
L 2305 0 
L 1323 0 
L 1323 3450 
L 1280 3450 
Q 1205 3334 961 3219 
Q 718 3105 332 3105 
L 332 3886 
Q 632 3886 857 4019 
Q 1082 4152 1209 4333 
Q 1336 4514 1341 4655 
L 2305 4655 
z
" id="Inter-Bold-31" transform="scale(0.015625)"/>
      <path d="M 2061 4732 
Q 2421 4732 2753 4612 
Q 3086 4493 3348 4227 
Q 3611 3961 3766 3523 
Q 3921 3086 3921 2448 
Q 3921 1659 3686 1096 
Q 3452 534 3028 235 
Q 2605 -64 2027 -64 
Q 1561 -64 1204 117 
Q 848 298 631 610 
Q 414 923 368 1314 
L 1339 1314 
Q 1396 1059 1577 919 
Q 1759 780 2027 780 
Q 2482 780 2718 1176 
Q 2955 1573 2957 2264 
L 2925 2264 
Q 2771 1957 2453 1782 
Q 2136 1607 1752 1607 
Q 1341 1607 1016 1801 
Q 691 1995 506 2334 
Q 321 2673 323 3109 
Q 321 3582 539 3949 
Q 757 4316 1149 4525 
Q 1541 4734 2061 4732 
z
M 2068 3959 
Q 1725 3959 1500 3722 
Q 1275 3486 1277 3136 
Q 1275 2791 1496 2555 
Q 1718 2320 2059 2320 
Q 2284 2320 2465 2431 
Q 2646 2543 2751 2729 
Q 2857 2916 2859 3141 
Q 2857 3366 2753 3551 
Q 2650 3736 2473 3847 
Q 2296 3959 2068 3959 
z
" id="Inter-Bold-39" transform="scale(0.015625)"/>
      <path d="M 1964 -68 
Q 1427 -68 1042 160 
Q 657 389 451 795 
Q 246 1202 246 1732 
Q 246 2268 453 2674 
Q 661 3080 1045 3308 
Q 1430 3536 1959 3536 
Q 2416 3536 2760 3370 
Q 3105 3205 3303 2905 
Q 3502 2605 3523 2200 
L 2609 2200 
Q 2571 2461 2406 2621 
Q 2241 2782 1975 2782 
Q 1639 2782 1434 2511 
Q 1230 2241 1230 1745 
Q 1230 1245 1433 971 
Q 1636 698 1975 698 
Q 2225 698 2395 849 
Q 2566 1000 2609 1280 
L 3523 1280 
Q 3500 880 3305 575 
Q 3111 270 2770 101 
Q 2430 -68 1964 -68 
z
" id="Inter-Bold-63" transform="scale(0.015625)"/>
      <path d="M 3291 2495 
L 2405 2441 
Q 2368 2609 2220 2729 
Q 2073 2850 1821 2850 
Q 1596 2850 1440 2755 
Q 1284 2661 1286 2505 
Q 1284 2380 1385 2293 
Q 1486 2207 1730 2155 
L 2361 2027 
Q 3368 1820 3371 1082 
Q 3371 739 3169 479 
Q 2968 220 2618 76 
Q 2268 -68 1816 -68 
Q 1123 -68 711 221 
Q 300 511 232 1011 
L 1184 1061 
Q 1230 848 1394 739 
Q 1559 630 1818 630 
Q 2073 630 2228 730 
Q 2384 830 2386 984 
Q 2380 1243 1939 1332 
L 1334 1452 
Q 321 1655 325 2450 
Q 323 2955 728 3245 
Q 1134 3536 1805 3536 
Q 2466 3536 2846 3256 
Q 3227 2977 3291 2495 
z
" id="Inter-Bold-73" transform="scale(0.015625)"/>
      <path d="M 386 0 
L 386 3491 
L 1355 3491 
L 1355 0 
L 386 0 
z
M 876 3941 
Q 662 3941 507 4085 
Q 353 4230 353 4432 
Q 353 4634 507 4777 
Q 662 4920 876 4920 
Q 1092 4920 1246 4777 
Q 1401 4634 1401 4432 
Q 1401 4230 1246 4085 
Q 1092 3941 876 3941 
z
" id="Inter-Bold-69" transform="scale(0.015625)"/>
      <path d="M 1355 2018 
L 1355 0 
L 386 0 
L 386 3491 
L 1309 3491 
L 1309 2875 
L 1350 2875 
Q 1468 3180 1739 3358 
Q 2011 3536 2400 3536 
Q 2946 3536 3275 3185 
Q 3605 2834 3605 2223 
L 3605 0 
L 2636 0 
L 2636 2050 
Q 2639 2370 2473 2551 
Q 2307 2732 2016 2732 
Q 1723 2732 1540 2544 
Q 1357 2357 1355 2018 
z
" id="Inter-Bold-6e" transform="scale(0.015625)"/>
      <path d="M 3286 4655 
L 4264 4655 
L 4264 1577 
Q 4264 1050 4016 683 
Q 3768 316 3333 125 
Q 2898 -66 2334 -66 
Q 1771 -66 1334 125 
Q 898 316 651 683 
Q 405 1050 405 1577 
L 405 4655 
L 1389 4655 
L 1389 1611 
Q 1389 1239 1658 1025 
Q 1927 811 2334 811 
Q 2748 811 3017 1025 
Q 3286 1239 3286 1611 
L 3286 4655 
z
" id="Inter-Bold-55" transform="scale(0.015625)"/>
      <path d="M 405 0 
L 405 4655 
L 1389 4655 
L 1389 2602 
L 1450 2602 
L 3125 4655 
L 4305 4655 
L 2577 2570 
L 4325 0 
L 3148 0 
L 1873 1914 
L 1389 1323 
L 1389 0 
L 405 0 
z
" id="Inter-Bold-4b" transform="scale(0.015625)"/>
      <path d="M 4298 4655 
L 4298 0 
L 3448 0 
L 1423 2930 
L 1389 2930 
L 1389 0 
L 405 0 
L 405 4655 
L 1268 4655 
L 3277 1727 
L 3318 1727 
L 3318 4655 
L 4298 4655 
z
" id="Inter-Bold-4e" transform="scale(0.015625)"/>
      <path d="M 2243 3491 
L 2243 2764 
L 1586 2764 
L 1586 1073 
Q 1586 873 1677 802 
Q 1768 732 1914 732 
Q 1982 732 2050 744 
Q 2118 757 2155 764 
L 2307 43 
Q 2234 20 2102 -10 
Q 1971 -41 1782 -48 
Q 1255 -70 935 181 
Q 616 432 618 945 
L 618 2764 
L 141 2764 
L 141 3491 
L 618 3491 
L 618 4327 
L 1586 4327 
L 1586 3491 
L 2243 3491 
z
" id="Inter-Bold-74" transform="scale(0.015625)"/>
      <path d="M 1964 -68 
Q 1434 -68 1049 158 
Q 664 384 455 789 
Q 246 1195 246 1732 
Q 246 2273 455 2678 
Q 664 3084 1049 3310 
Q 1434 3536 1964 3536 
Q 2493 3536 2878 3310 
Q 3264 3084 3473 2678 
Q 3682 2273 3682 1732 
Q 3682 1195 3473 789 
Q 3264 384 2878 158 
Q 2493 -68 1964 -68 
z
M 1968 682 
Q 2327 682 2512 982 
Q 2698 1282 2698 1739 
Q 2698 2195 2512 2496 
Q 2327 2798 1968 2798 
Q 1602 2798 1416 2496 
Q 1230 2195 1230 1739 
Q 1230 1282 1416 982 
Q 1602 682 1968 682 
z
" id="Inter-Bold-6f" transform="scale(0.015625)"/>
      <path d="M 1439 636 
L 1414 386 
Q 1384 86 1301 -212 
Q 1218 -511 1128 -754 
Q 1039 -998 984 -1136 
L 357 -1136 
Q 391 -1002 450 -763 
Q 509 -525 561 -226 
Q 614 73 627 382 
L 639 636 
L 1439 636 
z
" id="Inter-Bold-2c" transform="scale(0.015625)"/>
      <path d="M 386 -1309 
L 386 3491 
L 1341 3491 
L 1341 2905 
L 1384 2905 
Q 1450 3048 1570 3193 
Q 1691 3339 1888 3437 
Q 2086 3536 2377 3536 
Q 2761 3536 3081 3337 
Q 3402 3139 3596 2740 
Q 3791 2341 3791 1741 
Q 3791 1157 3602 756 
Q 3414 355 3093 149 
Q 2773 -57 2375 -57 
Q 2093 -57 1896 36 
Q 1700 130 1576 272 
Q 1452 414 1384 559 
L 1355 559 
L 1355 -1309 
L 386 -1309 
z
M 1334 1745 
Q 1334 1280 1526 997 
Q 1718 714 2068 714 
Q 2425 714 2613 1001 
Q 2802 1289 2802 1745 
Q 2802 2200 2614 2483 
Q 2427 2766 2068 2766 
Q 1716 2766 1525 2490 
Q 1334 2214 1334 1745 
z
" id="Inter-Bold-70" transform="scale(0.015625)"/>
     </defs>
     <use xlink:href="#Inter-Bold-41"/>
     <use x="74.786942" xlink:href="#Inter-Bold-76"/>
     <use x="133.380707" xlink:href="#Inter-Bold-65"/>
     <use x="193.146347" xlink:href="#Inter-Bold-72"/>
     <use x="236.008575" xlink:href="#Inter-Bold-61"/>
     <use x="294.034149" xlink:href="#Inter-Bold-67"/>
     <use x="357.350922" xlink:href="#Inter-Bold-65"/>
     <use x="417.116562" xlink:href="#Inter-Bold-20"/>
     <use x="440.305481" xlink:href="#Inter-Bold-43"/>
     <use x="515.51857" xlink:href="#Inter-Bold-4f"/>
     <use x="593.714615" xlink:href="#Inter-Bold-56"/>
     <use x="668.501556" xlink:href="#Inter-Bold-49"/>
     <use x="696.555542" xlink:href="#Inter-Bold-44"/>
     <use x="769.282837" xlink:href="#Inter-Bold-2d"/>
     <use x="816.157852" xlink:href="#Inter-Bold-31"/>
     <use x="863.565536" xlink:href="#Inter-Bold-39"/>
     <use x="929.581177" xlink:href="#Inter-Bold-20"/>
     <use x="952.770096" xlink:href="#Inter-Bold-63"/>
     <use x="1011.505905" xlink:href="#Inter-Bold-61"/>
     <use x="1069.531479" xlink:href="#Inter-Bold-73"/>
     <use x="1125.710464" xlink:href="#Inter-Bold-65"/>
     <use x="1185.476105" xlink:href="#Inter-Bold-73"/>
     <use x="1241.65509" xlink:href="#Inter-Bold-20"/>
     <use x="1264.844009" xlink:href="#Inter-Bold-69"/>
     <use x="1292.045715" xlink:href="#Inter-Bold-6e"/>
     <use x="1354.22612" xlink:href="#Inter-Bold-20"/>
     <use x="1377.415039" xlink:href="#Inter-Bold-55"/>
     <use x="1450.355392" xlink:href="#Inter-Bold-4b"/>
     <use x="1519.318481" xlink:href="#Inter-Bold-20"/>
     <use x="1542.507401" xlink:href="#Inter-Bold-4e"/>
     <use x="1616.015945" xlink:href="#Inter-Bold-61"/>
     <use x="1674.041519" xlink:href="#Inter-Bold-74"/>
     <use x="1712.890961" xlink:href="#Inter-Bold-69"/>
     <use x="1740.092667" xlink:href="#Inter-Bold-6f"/>
     <use x="1801.456314" xlink:href="#Inter-Bold-6e"/>
     <use x="1863.636719" xlink:href="#Inter-Bold-73"/>
     <use x="1919.815704" xlink:href="#Inter-Bold-2c"/>
     <use x="1950.106903" xlink:href="#Inter-Bold-20"/>
     <use x="1973.295822" xlink:href="#Inter-Bold-70"/>
     <use x="2036.54158" xlink:href="#Inter-Bold-65"/>
     <use x="2096.30722" xlink:href="#Inter-Bold-72"/>
     <use x="2139.169449" xlink:href="#Inter-Bold-20"/>
     <use x="2162.358368" xlink:href="#Inter-Bold-63"/>
     <use x="2221.094177" xlink:href="#Inter-Bold-61"/>
     <use x="2279.119751" xlink:href="#Inter-Bold-70"/>
     <use x="2342.365509" xlink:href="#Inter-Bold-69"/>
     <use x="2369.567215" xlink:href="#Inter-Bold-74"/>
     <use x="2408.416656" xlink:href="#Inter-Bold-61"/>
    </g>
   </g>
   <g id="legend_1">
    <g id="patch_4">
     <path d="M 621.601562 98.614063 
L 731.175 98.614063 
Q 733.175 98.614063 733.175 96.614063 
L 733.175 40.225 
Q 733.175 38.225 731.175 38.225 
L 621.601562 38.225 
Q 619.601562 38.225 619.601562 40.225 
L 619.601562 96.614063 
Q 619.601562 98.614063 621.601562 98.614063 
z
" style="fill:#ffffff;opacity:0.8;stroke:#cccccc;stroke-linejoin:miter;"/>
    </g>
    <g id="line2d_33">
     <path d="M 623.601562 45.998438 
L 643.601562 45.998438 
" style="fill:none;stroke:#d4351c;stroke-linecap:square;stroke-width:2;"/>
    </g>
    <g id="line2d_34"/>
    <g id="text_25">
     <!-- Wales -->
     <g transform="translate(651.601562 49.498438)scale(0.1 -0.1)">
      <defs>
       <path d="M 1409 0 
L 136 4655 
L 709 4655 
L 1682 864 
L 1727 864 
L 2718 4655 
L 3355 4655 
L 4346 864 
L 4391 864 
L 5364 4655 
L 5936 4655 
L 4664 0 
L 4082 0 
L 3055 3709 
L 3018 3709 
L 1991 0 
L 1409 0 
z
" id="Inter-Regular-57" transform="scale(0.015625)"/>
      </defs>
      <use xlink:href="#Inter-Regular-57"/>
      <use x="94.886383" xlink:href="#Inter-Regular-61"/>
      <use x="151.278442" xlink:href="#Inter-Regular-6c"/>
      <use x="175.000031" xlink:href="#Inter-Regular-65"/>
      <use x="233.238678" xlink:href="#Inter-Regular-73"/>
     </g>
    </g>
    <g id="line2d_35">
     <path d="M 623.601562 60.317188 
L 643.601562 60.317188 
" style="fill:none;stroke:#003078;stroke-linecap:square;stroke-width:2;"/>
    </g>
    <g id="line2d_36"/>
    <g id="text_26">
     <!-- Scotland -->
     <g transform="translate(651.601562 63.817188)scale(0.1 -0.1)">
      <use xlink:href="#Inter-Regular-53"/>
      <use x="63.778427" xlink:href="#Inter-Regular-63"/>
      <use x="119.602295" xlink:href="#Inter-Regular-6f"/>
      <use x="179.261398" xlink:href="#Inter-Regular-74"/>
      <use x="215.625046" xlink:href="#Inter-Regular-6c"/>
      <use x="239.346634" xlink:href="#Inter-Regular-61"/>
      <use x="295.738693" xlink:href="#Inter-Regular-6e"/>
      <use x="354.261429" xlink:href="#Inter-Regular-64"/>
     </g>
    </g>
    <g id="line2d_37">
     <path d="M 623.601562 74.635938 
L 643.601562 74.635938 
" style="fill:none;stroke:#ffdd00;stroke-linecap:square;stroke-width:2;"/>
    </g>
    <g id="line2d_38"/>
    <g id="text_27">
     <!-- Northern Ireland -->
     <g transform="translate(651.601562 78.135938)scale(0.1 -0.1)">
      <defs>
       <path d="M 1027 2100 
L 1027 0 
L 491 0 
L 491 4655 
L 1027 4655 
L 1027 2945 
L 1073 2945 
Q 1196 3216 1442 3376 
Q 1689 3536 2100 3536 
Q 2636 3536 2963 3213 
Q 3291 2891 3291 2218 
L 3291 0 
L 2755 0 
L 2755 2182 
Q 2755 2598 2540 2826 
Q 2325 3055 1946 3055 
Q 1548 3055 1287 2806 
Q 1027 2557 1027 2100 
z
" id="Inter-Regular-68" transform="scale(0.015625)"/>
       <path d="M 1127 4655 
L 1127 0 
L 564 0 
L 564 4655 
L 1127 4655 
z
" id="Inter-Regular-49" transform="scale(0.015625)"/>
      </defs>
      <use xlink:href="#Inter-Regular-4e"/>
      <use x="75.284103" xlink:href="#Inter-Regular-6f"/>
      <use x="134.943207" xlink:href="#Inter-Regular-72"/>
      <use x="173.295486" xlink:href="#Inter-Regular-74"/>
      <use x="209.659134" xlink:href="#Inter-Regular-68"/>
      <use x="268.750061" xlink:href="#Inter-Regular-65"/>
      <use x="326.988708" xlink:href="#Inter-Regular-72"/>
      <use x="365.340988" xlink:href="#Inter-Regular-6e"/>
      <use x="423.863724" xlink:href="#Inter-Regular-20"/>
      <use x="451.988724" xlink:href="#Inter-Regular-49"/>
      <use x="478.40918" xlink:href="#Inter-Regular-72"/>
      <use x="516.761459" xlink:href="#Inter-Regular-65"/>
      <use x="575.000107" xlink:href="#Inter-Regular-6c"/>
      <use x="598.721695" xlink:href="#Inter-Regular-61"/>
      <use x="655.113754" xlink:href="#Inter-Regular-6e"/>
      <use x="713.63649" xlink:href="#Inter-Regular-64"/>
     </g>
    </g>
    <g id="line2d_39">
     <path d="M 623.601562 88.954688 
L 643.601562 88.954688 
" style="fill:none;stroke:#5694ca;stroke-linecap:square;stroke-width:2;"/>
    </g>
    <g id="line2d_40"/>
    <g id="text_28">
     <!-- England -->
     <g transform="translate(651.601562 92.454688)scale(0.1 -0.1)">
      <defs>
       <path d="M 564 0 
L 564 4655 
L 3373 4655 
L 3373 4155 
L 1127 4155 
L 1127 2582 
L 3227 2582 
L 3227 2082 
L 1127 2082 
L 1127 500 
L 3409 500 
L 3409 0 
L 564 0 
z
" id="Inter-Regular-45" transform="scale(0.015625)"/>
      </defs>
      <use xlink:href="#Inter-Regular-45"/>
      <use x="59.801147" xlink:href="#Inter-Regular-6e"/>
      <use x="118.323883" xlink:href="#Inter-Regular-67"/>
      <use x="179.261398" xlink:href="#Inter-Regular-6c"/>
      <use x="202.982986" xlink:href="#Inter-Regular-61"/>
      <use x="259.375046" xlink:href="#Inter-Regular-6e"/>
      <use x="317.897781" xlink:href="#Inter-Regular-64"/>
     </g>
    </g>
   </g>
  </g>
 </g>
 <defs>
  <clipPath id="pdadac80ed9">
   <rect height="443.52" width="669.6" x="68.575" y="33.225"/>
  </clipPath>
 </defs>
</svg>
