<?xml version="1.0" encoding="utf-8" standalone="no"?>
<!DOCTYPE svg PUBLIC "-//W3C//DTD SVG 1.1//EN"
  "http://www.w3.org/Graphics/SVG/1.1/DTD/svg11.dtd">
<svg version="1.1" viewBox="0 0 740.804688 511.234062" xmlns="http://www.w3.org/2000/svg" xmlns:xlink="http://www.w3.org/1999/xlink">
 <metadata>
  <rdf:RDF xmlns:cc="http://creativecommons.org/ns#" xmlns:dc="http://purl.org/dc/elements/1.1/" xmlns:rdf="http://www.w3.org/1999/02/22-rdf-syntax-ns#">
   <cc:Work>
    <dc:type rdf:resource="http://purl.org/dc/dcmitype/StillImage"/>
    <dc:date>2021-08-02T16:23:10.081584</dc:date>
    <dc:format>image/svg+xml</dc:format>
    <dc:creator>
     <cc:Agent>
      <dc:title>Matplotlib v3.4.2, https://matplotlib.org/</dc:title>
     </cc:Agent>
    </dc:creator>
   </cc:Work>
  </rdf:RDF>
 </metadata>
 <defs>
  <style type="text/css">*{stroke-linecap:butt;stroke-linejoin:round;}</style>
 </defs>
 <g id="figure_1">
  <g id="patch_1">
   <path d="M 0 511.234062 
L 740.804688 511.234062 
L 740.804688 0 
L 0 0 
z
" style="fill:#ffffff;"/>
  </g>
  <g id="axes_1">
   <g id="patch_2">
    <path d="M 53.204688 476.745 
L 722.804688 476.745 
L 722.804688 33.225 
L 53.204688 33.225 
z
" style="fill:#ffffff;"/>
   </g>
   <g id="matplotlib.axis_1">
    <g id="xtick_1">
     <g id="line2d_1">
      <defs>
       <path d="M 0 0 
L 0 3.5 
" id="m53c37ff9bc" style="stroke:#000000;stroke-width:0.8;"/>
      </defs>
      <g>
       <use style="stroke:#000000;stroke-width:0.8;" x="53.204688" xlink:href="#m53c37ff9bc" y="476.745"/>
      </g>
     </g>
     <g id="text_1">
      <!-- 01 Mar -->
      <g transform="translate(37.167969 491.018437)scale(0.1 -0.1)">
       <defs>
        <path d="M 2000 -64 
Q 1230 -64 806 561 
Q 382 1186 382 2327 
Q 382 3459 809 4088 
Q 1236 4718 2000 4718 
Q 2764 4718 3191 4088 
Q 3618 3459 3618 2327 
Q 3618 1186 3194 561 
Q 2771 -64 2000 -64 
z
M 2000 436 
Q 2509 436 2791 927 
Q 3073 1418 3073 2327 
Q 3073 3234 2789 3730 
Q 2505 4227 2000 4227 
Q 1496 4227 1211 3730 
Q 927 3234 927 2327 
Q 927 1418 1210 927 
Q 1493 436 2000 436 
z
" id="Inter-Regular-30" transform="scale(0.015625)"/>
        <path d="M 1973 4655 
L 1973 0 
L 1409 0 
L 1409 3836 
L 1373 3836 
Q 1341 3773 1209 3692 
Q 1077 3611 868 3551 
Q 659 3491 391 3491 
L 391 3964 
Q 661 3964 859 4061 
Q 1057 4159 1190 4291 
Q 1323 4423 1392 4529 
Q 1461 4636 1473 4655 
L 1973 4655 
z
" id="Inter-Regular-31" transform="scale(0.015625)"/>
        <path id="Inter-Regular-20" transform="scale(0.015625)"/>
        <path d="M 564 4655 
L 1236 4655 
L 2818 791 
L 2873 791 
L 4455 4655 
L 5127 4655 
L 5127 0 
L 4600 0 
L 4600 3536 
L 4555 3536 
L 3100 0 
L 2591 0 
L 1136 3536 
L 1091 3536 
L 1091 0 
L 564 0 
L 564 4655 
z
" id="Inter-Regular-4d" transform="scale(0.015625)"/>
        <path d="M 1518 -82 
Q 1186 -82 916 44 
Q 646 170 486 410 
Q 327 650 327 991 
Q 327 1291 445 1478 
Q 564 1666 761 1773 
Q 959 1880 1199 1933 
Q 1439 1986 1682 2018 
Q 2000 2059 2199 2080 
Q 2398 2102 2490 2154 
Q 2582 2207 2582 2336 
L 2582 2355 
Q 2582 2691 2399 2877 
Q 2216 3064 1846 3064 
Q 1461 3064 1243 2895 
Q 1025 2727 936 2536 
L 427 2718 
Q 564 3036 792 3214 
Q 1021 3393 1292 3464 
Q 1564 3536 1827 3536 
Q 1996 3536 2215 3496 
Q 2434 3457 2640 3334 
Q 2846 3211 2982 2963 
Q 3118 2716 3118 2300 
L 3118 0 
L 2582 0 
L 2582 473 
L 2555 473 
Q 2500 359 2373 229 
Q 2246 100 2034 9 
Q 1823 -82 1518 -82 
z
M 1600 400 
Q 1918 400 2137 525 
Q 2357 650 2469 847 
Q 2582 1045 2582 1264 
L 2582 1755 
Q 2548 1714 2433 1681 
Q 2318 1648 2169 1624 
Q 2021 1600 1881 1583 
Q 1741 1566 1655 1555 
Q 1446 1527 1265 1467 
Q 1084 1407 974 1287 
Q 864 1168 864 964 
Q 864 684 1072 542 
Q 1280 400 1600 400 
z
" id="Inter-Regular-61" transform="scale(0.015625)"/>
        <path d="M 491 0 
L 491 3491 
L 1009 3491 
L 1009 2964 
L 1046 2964 
Q 1139 3223 1389 3384 
Q 1639 3545 1955 3545 
Q 2100 3545 2209 3511 
Q 2318 3477 2400 3418 
L 2218 2964 
Q 2161 2993 2085 3010 
Q 2009 3027 1909 3027 
Q 1527 3027 1277 2794 
Q 1027 2561 1027 2209 
L 1027 0 
L 491 0 
z
" id="Inter-Regular-72" transform="scale(0.015625)"/>
       </defs>
       <use xlink:href="#Inter-Regular-30"/>
       <use x="62.500015" xlink:href="#Inter-Regular-31"/>
       <use x="106.676163" xlink:href="#Inter-Regular-20"/>
       <use x="134.801163" xlink:href="#Inter-Regular-4d"/>
       <use x="225.99437" xlink:href="#Inter-Regular-61"/>
       <use x="282.386429" xlink:href="#Inter-Regular-72"/>
      </g>
     </g>
    </g>
    <g id="xtick_2">
     <g id="line2d_2">
      <g>
       <use style="stroke:#000000;stroke-width:0.8;" x="93.147598" xlink:href="#m53c37ff9bc" y="476.745"/>
      </g>
     </g>
    </g>
    <g id="xtick_3">
     <g id="line2d_3">
      <g>
       <use style="stroke:#000000;stroke-width:0.8;" x="131.802028" xlink:href="#m53c37ff9bc" y="476.745"/>
      </g>
     </g>
     <g id="text_2">
      <!-- 01 May -->
      <g transform="translate(114.898903 491.116875)scale(0.1 -0.1)">
       <defs>
        <path d="M 818 -1355 
Q 682 -1355 575 -1333 
Q 468 -1311 427 -1291 
L 564 -818 
Q 857 -893 1053 -814 
Q 1250 -736 1391 -345 
L 1509 -18 
L 218 3491 
L 800 3491 
L 1764 709 
L 1800 709 
L 2764 3491 
L 3346 3491 
L 1846 -564 
Q 1550 -1355 818 -1355 
z
" id="Inter-Regular-79" transform="scale(0.015625)"/>
       </defs>
       <use xlink:href="#Inter-Regular-30"/>
       <use x="62.500015" xlink:href="#Inter-Regular-31"/>
       <use x="106.676163" xlink:href="#Inter-Regular-20"/>
       <use x="134.801163" xlink:href="#Inter-Regular-4d"/>
       <use x="225.99437" xlink:href="#Inter-Regular-61"/>
       <use x="282.386429" xlink:href="#Inter-Regular-79"/>
      </g>
     </g>
    </g>
    <g id="xtick_4">
     <g id="line2d_4">
      <g>
       <use style="stroke:#000000;stroke-width:0.8;" x="171.744939" xlink:href="#m53c37ff9bc" y="476.745"/>
      </g>
     </g>
    </g>
    <g id="xtick_5">
     <g id="line2d_5">
      <g>
       <use style="stroke:#000000;stroke-width:0.8;" x="210.399369" xlink:href="#m53c37ff9bc" y="476.745"/>
      </g>
     </g>
     <g id="text_3">
      <!-- 01 Jul -->
      <g transform="translate(196.855619 491.018437)scale(0.1 -0.1)">
       <defs>
        <path d="M 2346 4655 
L 2909 4655 
L 2909 1327 
Q 2909 657 2549 296 
Q 2189 -64 1582 -64 
Q 1200 -64 902 76 
Q 605 216 434 475 
Q 264 734 264 1091 
L 818 1091 
Q 818 795 1034 615 
Q 1250 436 1582 436 
Q 1948 436 2147 664 
Q 2346 893 2346 1327 
L 2346 4655 
z
" id="Inter-Regular-4a" transform="scale(0.015625)"/>
        <path d="M 2691 1427 
L 2691 3491 
L 3227 3491 
L 3227 0 
L 2691 0 
L 2691 591 
L 2655 591 
Q 2532 325 2273 140 
Q 2014 -45 1618 -45 
Q 1127 -45 809 280 
Q 491 605 491 1273 
L 491 3491 
L 1027 3491 
L 1027 1309 
Q 1027 927 1242 700 
Q 1457 473 1791 473 
Q 1991 473 2199 575 
Q 2407 677 2549 888 
Q 2691 1100 2691 1427 
z
" id="Inter-Regular-75" transform="scale(0.015625)"/>
        <path d="M 1027 4655 
L 1027 0 
L 491 0 
L 491 4655 
L 1027 4655 
z
" id="Inter-Regular-6c" transform="scale(0.015625)"/>
       </defs>
       <use xlink:href="#Inter-Regular-30"/>
       <use x="62.500015" xlink:href="#Inter-Regular-31"/>
       <use x="106.676163" xlink:href="#Inter-Regular-20"/>
       <use x="134.801163" xlink:href="#Inter-Regular-4a"/>
       <use x="189.062531" xlink:href="#Inter-Regular-75"/>
       <use x="247.159134" xlink:href="#Inter-Regular-6c"/>
      </g>
     </g>
    </g>
    <g id="xtick_6">
     <g id="line2d_6">
      <g>
       <use style="stroke:#000000;stroke-width:0.8;" x="250.342279" xlink:href="#m53c37ff9bc" y="476.745"/>
      </g>
     </g>
    </g>
    <g id="xtick_7">
     <g id="line2d_7">
      <g>
       <use style="stroke:#000000;stroke-width:0.8;" x="290.28519" xlink:href="#m53c37ff9bc" y="476.745"/>
      </g>
     </g>
     <g id="text_4">
      <!-- 01 Sep -->
      <g transform="translate(274.39769 491.116875)scale(0.1 -0.1)">
       <defs>
        <path d="M 3109 3491 
Q 3068 3836 2777 4027 
Q 2486 4218 2064 4218 
Q 1600 4218 1318 3999 
Q 1036 3780 1036 3445 
Q 1036 3195 1189 3042 
Q 1343 2889 1553 2803 
Q 1764 2718 1936 2673 
L 2409 2545 
Q 2591 2498 2815 2414 
Q 3039 2330 3244 2185 
Q 3450 2041 3584 1816 
Q 3718 1591 3718 1264 
Q 3718 886 3521 581 
Q 3325 277 2949 97 
Q 2573 -82 2036 -82 
Q 1286 -82 845 272 
Q 405 627 364 1200 
L 946 1200 
Q 968 936 1124 764 
Q 1280 593 1519 510 
Q 1759 427 2036 427 
Q 2359 427 2616 533 
Q 2873 639 3023 828 
Q 3173 1018 3173 1273 
Q 3173 1505 3043 1650 
Q 2914 1795 2702 1886 
Q 2491 1977 2246 2045 
L 1673 2209 
Q 1127 2366 809 2657 
Q 491 2948 491 3418 
Q 491 3809 703 4101 
Q 916 4393 1276 4555 
Q 1636 4718 2082 4718 
Q 2532 4718 2882 4558 
Q 3232 4398 3437 4120 
Q 3643 3843 3655 3491 
L 3109 3491 
z
" id="Inter-Regular-53" transform="scale(0.015625)"/>
        <path d="M 1955 -73 
Q 1450 -73 1085 151 
Q 721 375 524 778 
Q 327 1182 327 1718 
Q 327 2255 524 2665 
Q 721 3075 1074 3305 
Q 1427 3536 1900 3536 
Q 2173 3536 2439 3445 
Q 2705 3355 2923 3151 
Q 3141 2948 3270 2614 
Q 3400 2280 3400 1791 
L 3400 1564 
L 866 1564 
Q 884 1005 1183 707 
Q 1482 409 1955 409 
Q 2271 409 2498 545 
Q 2725 682 2827 955 
L 3346 809 
Q 3223 414 2854 170 
Q 2486 -73 1955 -73 
z
M 866 2027 
L 2855 2027 
Q 2855 2470 2595 2762 
Q 2336 3055 1900 3055 
Q 1593 3055 1368 2911 
Q 1143 2768 1013 2533 
Q 884 2298 866 2027 
z
" id="Inter-Regular-65" transform="scale(0.015625)"/>
        <path d="M 491 -1309 
L 491 3491 
L 1009 3491 
L 1009 2936 
L 1073 2936 
Q 1132 3027 1237 3169 
Q 1343 3311 1542 3423 
Q 1741 3536 2082 3536 
Q 2523 3536 2859 3315 
Q 3196 3095 3384 2690 
Q 3573 2286 3573 1736 
Q 3573 1182 3384 776 
Q 3196 370 2861 148 
Q 2527 -73 2091 -73 
Q 1755 -73 1552 39 
Q 1350 152 1241 296 
Q 1132 441 1073 536 
L 1027 536 
L 1027 -1309 
L 491 -1309 
z
M 1018 1745 
Q 1018 1152 1276 780 
Q 1534 409 2018 409 
Q 2355 409 2581 587 
Q 2807 766 2921 1069 
Q 3036 1373 3036 1745 
Q 3036 2114 2923 2410 
Q 2811 2707 2585 2881 
Q 2359 3055 2018 3055 
Q 1527 3055 1272 2693 
Q 1018 2332 1018 1745 
z
" id="Inter-Regular-70" transform="scale(0.015625)"/>
       </defs>
       <use xlink:href="#Inter-Regular-30"/>
       <use x="62.500015" xlink:href="#Inter-Regular-31"/>
       <use x="106.676163" xlink:href="#Inter-Regular-20"/>
       <use x="134.801163" xlink:href="#Inter-Regular-53"/>
       <use x="198.57959" xlink:href="#Inter-Regular-65"/>
       <use x="256.818237" xlink:href="#Inter-Regular-70"/>
      </g>
     </g>
    </g>
    <g id="xtick_8">
     <g id="line2d_8">
      <g>
       <use style="stroke:#000000;stroke-width:0.8;" x="328.93962" xlink:href="#m53c37ff9bc" y="476.745"/>
      </g>
     </g>
    </g>
    <g id="xtick_9">
     <g id="line2d_9">
      <g>
       <use style="stroke:#000000;stroke-width:0.8;" x="368.882531" xlink:href="#m53c37ff9bc" y="476.745"/>
      </g>
     </g>
     <g id="text_5">
      <!-- 01 Nov -->
      <g transform="translate(352.611437 491.018437)scale(0.1 -0.1)">
       <defs>
        <path d="M 4255 4655 
L 4255 0 
L 3709 0 
L 1173 3655 
L 1127 3655 
L 1127 0 
L 564 0 
L 564 4655 
L 1109 4655 
L 3655 991 
L 3700 991 
L 3700 4655 
L 4255 4655 
z
" id="Inter-Regular-4e" transform="scale(0.015625)"/>
        <path d="M 1909 -73 
Q 1436 -73 1080 152 
Q 725 377 526 781 
Q 327 1186 327 1727 
Q 327 2273 526 2679 
Q 725 3086 1080 3311 
Q 1436 3536 1909 3536 
Q 2382 3536 2737 3311 
Q 3093 3086 3292 2679 
Q 3491 2273 3491 1727 
Q 3491 1186 3292 781 
Q 3093 377 2737 152 
Q 2382 -73 1909 -73 
z
M 1909 409 
Q 2268 409 2500 593 
Q 2732 777 2843 1077 
Q 2955 1377 2955 1727 
Q 2955 2077 2843 2379 
Q 2732 2682 2500 2868 
Q 2268 3055 1909 3055 
Q 1550 3055 1318 2868 
Q 1086 2682 975 2379 
Q 864 2077 864 1727 
Q 864 1377 975 1077 
Q 1086 777 1318 593 
Q 1550 409 1909 409 
z
" id="Inter-Regular-6f" transform="scale(0.015625)"/>
        <path d="M 3346 3491 
L 2055 0 
L 1509 0 
L 218 3491 
L 800 3491 
L 1764 709 
L 1800 709 
L 2764 3491 
L 3346 3491 
z
" id="Inter-Regular-76" transform="scale(0.015625)"/>
       </defs>
       <use xlink:href="#Inter-Regular-30"/>
       <use x="62.500015" xlink:href="#Inter-Regular-31"/>
       <use x="106.676163" xlink:href="#Inter-Regular-20"/>
       <use x="134.801163" xlink:href="#Inter-Regular-4e"/>
       <use x="210.085266" xlink:href="#Inter-Regular-6f"/>
       <use x="269.74437" xlink:href="#Inter-Regular-76"/>
      </g>
     </g>
    </g>
    <g id="xtick_10">
     <g id="line2d_10">
      <g>
       <use style="stroke:#000000;stroke-width:0.8;" x="407.536961" xlink:href="#m53c37ff9bc" y="476.745"/>
      </g>
     </g>
    </g>
    <g id="xtick_11">
     <g id="line2d_11">
      <g>
       <use style="stroke:#000000;stroke-width:0.8;" x="447.479871" xlink:href="#m53c37ff9bc" y="476.745"/>
      </g>
     </g>
     <g id="text_6">
      <!-- 01 Jan -->
      <g transform="translate(432.280653 491.018437)scale(0.1 -0.1)">
       <defs>
        <path d="M 1027 2100 
L 1027 0 
L 491 0 
L 491 3491 
L 1009 3491 
L 1009 2945 
L 1055 2945 
Q 1177 3211 1427 3373 
Q 1677 3536 2073 3536 
Q 2602 3536 2928 3211 
Q 3255 2886 3255 2218 
L 3255 0 
L 2718 0 
L 2718 2182 
Q 2718 2593 2504 2824 
Q 2291 3055 1918 3055 
Q 1534 3055 1280 2806 
Q 1027 2557 1027 2100 
z
" id="Inter-Regular-6e" transform="scale(0.015625)"/>
       </defs>
       <use xlink:href="#Inter-Regular-30"/>
       <use x="62.500015" xlink:href="#Inter-Regular-31"/>
       <use x="106.676163" xlink:href="#Inter-Regular-20"/>
       <use x="134.801163" xlink:href="#Inter-Regular-4a"/>
       <use x="189.062531" xlink:href="#Inter-Regular-61"/>
       <use x="245.45459" xlink:href="#Inter-Regular-6e"/>
      </g>
     </g>
    </g>
    <g id="xtick_12">
     <g id="line2d_12">
      <g>
       <use style="stroke:#000000;stroke-width:0.8;" x="487.422782" xlink:href="#m53c37ff9bc" y="476.745"/>
      </g>
     </g>
    </g>
    <g id="xtick_13">
     <g id="line2d_13">
      <g>
       <use style="stroke:#000000;stroke-width:0.8;" x="523.50025" xlink:href="#m53c37ff9bc" y="476.745"/>
      </g>
     </g>
     <g id="text_7">
      <!-- 01 Mar -->
      <g transform="translate(507.463531 491.018437)scale(0.1 -0.1)">
       <use xlink:href="#Inter-Regular-30"/>
       <use x="62.500015" xlink:href="#Inter-Regular-31"/>
       <use x="106.676163" xlink:href="#Inter-Regular-20"/>
       <use x="134.801163" xlink:href="#Inter-Regular-4d"/>
       <use x="225.99437" xlink:href="#Inter-Regular-61"/>
       <use x="282.386429" xlink:href="#Inter-Regular-72"/>
      </g>
     </g>
    </g>
    <g id="xtick_14">
     <g id="line2d_14">
      <g>
       <use style="stroke:#000000;stroke-width:0.8;" x="563.443161" xlink:href="#m53c37ff9bc" y="476.745"/>
      </g>
     </g>
    </g>
    <g id="xtick_15">
     <g id="line2d_15">
      <g>
       <use style="stroke:#000000;stroke-width:0.8;" x="602.097591" xlink:href="#m53c37ff9bc" y="476.745"/>
      </g>
     </g>
     <g id="text_8">
      <!-- 01 May -->
      <g transform="translate(585.194466 491.116875)scale(0.1 -0.1)">
       <use xlink:href="#Inter-Regular-30"/>
       <use x="62.500015" xlink:href="#Inter-Regular-31"/>
       <use x="106.676163" xlink:href="#Inter-Regular-20"/>
       <use x="134.801163" xlink:href="#Inter-Regular-4d"/>
       <use x="225.99437" xlink:href="#Inter-Regular-61"/>
       <use x="282.386429" xlink:href="#Inter-Regular-79"/>
      </g>
     </g>
    </g>
    <g id="xtick_16">
     <g id="line2d_16">
      <g>
       <use style="stroke:#000000;stroke-width:0.8;" x="642.040501" xlink:href="#m53c37ff9bc" y="476.745"/>
      </g>
     </g>
    </g>
    <g id="xtick_17">
     <g id="line2d_17">
      <g>
       <use style="stroke:#000000;stroke-width:0.8;" x="680.694931" xlink:href="#m53c37ff9bc" y="476.745"/>
      </g>
     </g>
     <g id="text_9">
      <!-- 01 Jul -->
      <g transform="translate(667.151181 491.018437)scale(0.1 -0.1)">
       <use xlink:href="#Inter-Regular-30"/>
       <use x="62.500015" xlink:href="#Inter-Regular-31"/>
       <use x="106.676163" xlink:href="#Inter-Regular-20"/>
       <use x="134.801163" xlink:href="#Inter-Regular-4a"/>
       <use x="189.062531" xlink:href="#Inter-Regular-75"/>
       <use x="247.159134" xlink:href="#Inter-Regular-6c"/>
      </g>
     </g>
    </g>
    <g id="xtick_18">
     <g id="line2d_18">
      <g>
       <use style="stroke:#000000;stroke-width:0.8;" x="720.637842" xlink:href="#m53c37ff9bc" y="476.745"/>
      </g>
     </g>
    </g>
   </g>
   <g id="matplotlib.axis_2">
    <g id="ytick_1">
     <g id="line2d_19">
      <path clip-path="url(#pf8d5103ddd)" d="M 53.204688 476.745 
L 722.804688 476.745 
" style="fill:none;stroke:#e5e5e5;stroke-linecap:square;stroke-width:0.8;"/>
     </g>
     <g id="line2d_20">
      <defs>
       <path d="M 0 0 
L -3.5 0 
" id="madbd47f474" style="stroke:#000000;stroke-width:0.8;"/>
      </defs>
      <g>
       <use style="stroke:#000000;stroke-width:0.8;" x="53.204688" xlink:href="#madbd47f474" y="476.745"/>
      </g>
     </g>
     <g id="text_10">
      <!-- 0% -->
      <g transform="translate(31.829688 480.381719)scale(0.1 -0.1)">
       <defs>
        <path d="M 2855 873 
L 2855 1118 
Q 2855 1373 2960 1585 
Q 3066 1798 3269 1926 
Q 3473 2055 3764 2055 
Q 4059 2055 4259 1926 
Q 4459 1798 4561 1585 
Q 4664 1373 4664 1118 
L 4664 873 
Q 4664 618 4560 405 
Q 4457 193 4256 64 
Q 4055 -64 3764 -64 
Q 3468 -64 3266 64 
Q 3064 193 2959 405 
Q 2855 618 2855 873 
z
M 536 3536 
L 536 3782 
Q 536 4036 642 4248 
Q 748 4461 951 4589 
Q 1155 4718 1446 4718 
Q 1741 4718 1941 4589 
Q 2141 4461 2243 4248 
Q 2346 4036 2346 3782 
L 2346 3536 
Q 2346 3282 2242 3069 
Q 2139 2857 1937 2728 
Q 1736 2600 1446 2600 
Q 1150 2600 948 2728 
Q 746 2857 641 3069 
Q 536 3282 536 3536 
z
M 709 0 
L 3909 4655 
L 4427 4655 
L 1227 0 
L 709 0 
z
M 3318 1118 
L 3318 873 
Q 3318 661 3418 494 
Q 3518 327 3764 327 
Q 4002 327 4101 494 
Q 4200 661 4200 873 
L 4200 1118 
Q 4200 1330 4104 1497 
Q 4009 1664 3764 1664 
Q 3525 1664 3421 1497 
Q 3318 1330 3318 1118 
z
M 1000 3782 
L 1000 3536 
Q 1000 3325 1100 3158 
Q 1200 2991 1446 2991 
Q 1684 2991 1783 3158 
Q 1882 3325 1882 3536 
L 1882 3782 
Q 1882 3993 1786 4160 
Q 1691 4327 1446 4327 
Q 1207 4327 1103 4160 
Q 1000 3993 1000 3782 
z
" id="Inter-Regular-25" transform="scale(0.015625)"/>
       </defs>
       <use xlink:href="#Inter-Regular-30"/>
       <use x="62.500015" xlink:href="#Inter-Regular-25"/>
      </g>
     </g>
    </g>
    <g id="ytick_2">
     <g id="line2d_21">
      <path clip-path="url(#pf8d5103ddd)" d="M 53.204688 382.803628 
L 722.804688 382.803628 
" style="fill:none;stroke:#e5e5e5;stroke-linecap:square;stroke-width:0.8;"/>
     </g>
     <g id="line2d_22">
      <g>
       <use style="stroke:#000000;stroke-width:0.8;" x="53.204688" xlink:href="#madbd47f474" y="382.803628"/>
      </g>
     </g>
     <g id="text_11">
      <!-- 2% -->
      <g transform="translate(32.028125 386.440347)scale(0.1 -0.1)">
       <defs>
        <path d="M 482 0 
L 482 409 
L 2018 2091 
Q 2289 2386 2464 2605 
Q 2639 2825 2724 3019 
Q 2809 3214 2809 3427 
Q 2809 3795 2553 4011 
Q 2298 4227 1918 4227 
Q 1514 4227 1275 3985 
Q 1036 3743 1036 3345 
L 500 3345 
Q 500 3755 688 4064 
Q 877 4373 1203 4545 
Q 1530 4718 1936 4718 
Q 2346 4718 2661 4545 
Q 2977 4373 3156 4079 
Q 3336 3786 3336 3427 
Q 3336 3170 3244 2926 
Q 3152 2682 2926 2383 
Q 2700 2084 2300 1655 
L 1255 536 
L 1255 500 
L 3418 500 
L 3418 0 
L 482 0 
z
" id="Inter-Regular-32" transform="scale(0.015625)"/>
       </defs>
       <use xlink:href="#Inter-Regular-32"/>
       <use x="60.511383" xlink:href="#Inter-Regular-25"/>
      </g>
     </g>
    </g>
    <g id="ytick_3">
     <g id="line2d_23">
      <path clip-path="url(#pf8d5103ddd)" d="M 53.204688 288.862257 
L 722.804688 288.862257 
" style="fill:none;stroke:#e5e5e5;stroke-linecap:square;stroke-width:0.8;"/>
     </g>
     <g id="line2d_24">
      <g>
       <use style="stroke:#000000;stroke-width:0.8;" x="53.204688" xlink:href="#madbd47f474" y="288.862257"/>
      </g>
     </g>
     <g id="text_12">
      <!-- 4% -->
      <g transform="translate(31.659375 292.498976)scale(0.1 -0.1)">
       <defs>
        <path d="M 373 955 
L 373 1418 
L 2418 4655 
L 3100 4655 
L 3100 1455 
L 3736 1455 
L 3736 955 
L 3100 955 
L 3100 0 
L 2564 0 
L 2564 955 
L 373 955 
z
M 2564 1455 
L 2564 3936 
L 2527 3936 
L 982 1491 
L 982 1455 
L 2564 1455 
z
" id="Inter-Regular-34" transform="scale(0.015625)"/>
       </defs>
       <use xlink:href="#Inter-Regular-34"/>
       <use x="64.204559" xlink:href="#Inter-Regular-25"/>
      </g>
     </g>
    </g>
    <g id="ytick_4">
     <g id="line2d_25">
      <path clip-path="url(#pf8d5103ddd)" d="M 53.204688 194.920885 
L 722.804688 194.920885 
" style="fill:none;stroke:#e5e5e5;stroke-linecap:square;stroke-width:0.8;"/>
     </g>
     <g id="line2d_26">
      <g>
       <use style="stroke:#000000;stroke-width:0.8;" x="53.204688" xlink:href="#madbd47f474" y="194.920885"/>
      </g>
     </g>
     <g id="text_13">
      <!-- 6% -->
      <g transform="translate(31.84375 198.557604)scale(0.1 -0.1)">
       <defs>
        <path d="M 2027 -64 
Q 1741 -59 1454 45 
Q 1168 150 932 399 
Q 696 648 552 1074 
Q 409 1500 409 2145 
Q 409 3386 861 4056 
Q 1314 4727 2100 4727 
Q 2686 4727 3073 4384 
Q 3461 4041 3546 3491 
L 2991 3491 
Q 2914 3811 2691 4019 
Q 2468 4227 2100 4227 
Q 1559 4227 1249 3755 
Q 939 3284 936 2427 
L 973 2427 
Q 1164 2716 1461 2880 
Q 1759 3045 2118 3045 
Q 2518 3045 2850 2846 
Q 3182 2648 3382 2299 
Q 3582 1950 3582 1500 
Q 3582 1068 3389 710 
Q 3196 352 2847 142 
Q 2498 -68 2027 -64 
z
M 2027 436 
Q 2314 436 2542 579 
Q 2771 723 2903 964 
Q 3036 1205 3036 1500 
Q 3036 1789 2908 2026 
Q 2780 2264 2556 2404 
Q 2332 2545 2046 2545 
Q 1757 2545 1525 2397 
Q 1293 2250 1157 2010 
Q 1021 1770 1018 1491 
Q 1018 1214 1149 973 
Q 1280 732 1508 584 
Q 1736 436 2027 436 
z
" id="Inter-Regular-36" transform="scale(0.015625)"/>
       </defs>
       <use xlink:href="#Inter-Regular-36"/>
       <use x="62.357971" xlink:href="#Inter-Regular-25"/>
      </g>
     </g>
    </g>
    <g id="ytick_5">
     <g id="line2d_27">
      <path clip-path="url(#pf8d5103ddd)" d="M 53.204688 100.979514 
L 722.804688 100.979514 
" style="fill:none;stroke:#e5e5e5;stroke-linecap:square;stroke-width:0.8;"/>
     </g>
     <g id="line2d_28">
      <g>
       <use style="stroke:#000000;stroke-width:0.8;" x="53.204688" xlink:href="#madbd47f474" y="100.979514"/>
      </g>
     </g>
     <g id="text_14">
      <!-- 8% -->
      <g transform="translate(31.914063 104.616233)scale(0.1 -0.1)">
       <defs>
        <path d="M 1973 -64 
Q 1505 -64 1147 103 
Q 789 270 589 564 
Q 389 859 391 1236 
Q 389 1532 507 1783 
Q 625 2034 830 2203 
Q 1036 2373 1291 2418 
L 1291 2445 
Q 957 2532 759 2821 
Q 561 3111 564 3482 
Q 561 3836 743 4115 
Q 925 4395 1244 4556 
Q 1564 4718 1973 4718 
Q 2377 4718 2695 4556 
Q 3014 4395 3197 4115 
Q 3380 3836 3382 3482 
Q 3380 3111 3181 2821 
Q 2982 2532 2655 2445 
L 2655 2418 
Q 2907 2373 3109 2203 
Q 3311 2034 3431 1783 
Q 3552 1532 3555 1236 
Q 3552 859 3351 564 
Q 3150 270 2794 103 
Q 2439 -64 1973 -64 
z
M 1973 436 
Q 2446 436 2722 662 
Q 2998 889 3000 1264 
Q 2998 1527 2864 1729 
Q 2730 1932 2499 2048 
Q 2268 2164 1973 2164 
Q 1675 2164 1442 2048 
Q 1209 1932 1076 1729 
Q 943 1527 946 1264 
Q 943 889 1218 662 
Q 1493 436 1973 436 
z
M 1973 2645 
Q 2348 2645 2591 2864 
Q 2834 3084 2836 3445 
Q 2834 3800 2596 4013 
Q 2359 4227 1973 4227 
Q 1582 4227 1344 4013 
Q 1107 3800 1109 3445 
Q 1107 3084 1349 2864 
Q 1591 2645 1973 2645 
z
" id="Inter-Regular-38" transform="scale(0.015625)"/>
       </defs>
       <use xlink:href="#Inter-Regular-38"/>
       <use x="61.647736" xlink:href="#Inter-Regular-25"/>
      </g>
     </g>
    </g>
    <g id="text_15">
     <!-- Percent of nation tested positive -->
     <g transform="translate(25.614063 332.215469)rotate(-90)scale(0.1 -0.1)">
      <defs>
       <path d="M 564 0 
L 564 4655 
L 2136 4655 
Q 2684 4655 3033 4458 
Q 3382 4261 3550 3927 
Q 3718 3593 3718 3182 
Q 3718 2770 3551 2434 
Q 3384 2098 3036 1899 
Q 2689 1700 2146 1700 
L 1127 1700 
L 1127 0 
L 564 0 
z
M 1127 2200 
L 2127 2200 
Q 2689 2200 2926 2482 
Q 3164 2764 3164 3182 
Q 3164 3602 2925 3878 
Q 2686 4155 2118 4155 
L 1127 4155 
L 1127 2200 
z
" id="Inter-Regular-50" transform="scale(0.015625)"/>
       <path d="M 1909 -73 
Q 1418 -73 1063 159 
Q 709 391 518 798 
Q 327 1205 327 1727 
Q 327 2259 524 2667 
Q 721 3075 1074 3305 
Q 1427 3536 1900 3536 
Q 2268 3536 2563 3400 
Q 2859 3264 3047 3018 
Q 3236 2773 3282 2445 
L 2746 2445 
Q 2684 2684 2474 2869 
Q 2264 3055 1909 3055 
Q 1439 3055 1151 2697 
Q 864 2339 864 1745 
Q 864 1139 1148 774 
Q 1432 409 1909 409 
Q 2223 409 2447 570 
Q 2671 732 2746 1018 
L 3282 1018 
Q 3236 709 3058 462 
Q 2880 216 2588 71 
Q 2296 -73 1909 -73 
z
" id="Inter-Regular-63" transform="scale(0.015625)"/>
       <path d="M 2009 3491 
L 2009 3036 
L 1264 3036 
L 1264 1000 
Q 1264 773 1331 660 
Q 1398 548 1503 510 
Q 1609 473 1727 473 
Q 1816 473 1873 483 
Q 1930 493 1964 500 
L 2073 18 
Q 2018 -2 1920 -23 
Q 1823 -45 1673 -45 
Q 1446 -45 1228 52 
Q 1011 150 869 350 
Q 727 550 727 855 
L 727 3036 
L 200 3036 
L 200 3491 
L 727 3491 
L 727 4327 
L 1264 4327 
L 1264 3491 
L 2009 3491 
z
" id="Inter-Regular-74" transform="scale(0.015625)"/>
       <path d="M 2046 3491 
L 2046 3036 
L 1264 3036 
L 1264 0 
L 727 0 
L 727 3036 
L 164 3036 
L 164 3491 
L 727 3491 
L 727 3973 
Q 727 4273 868 4473 
Q 1009 4673 1234 4773 
Q 1459 4873 1709 4873 
Q 1907 4873 2032 4841 
Q 2157 4809 2218 4782 
L 2064 4318 
Q 2023 4332 1951 4352 
Q 1880 4373 1764 4373 
Q 1498 4373 1381 4239 
Q 1264 4105 1264 3845 
L 1264 3491 
L 2046 3491 
z
" id="Inter-Regular-66" transform="scale(0.015625)"/>
       <path d="M 491 0 
L 491 3491 
L 1027 3491 
L 1027 0 
L 491 0 
z
M 764 4073 
Q 607 4073 494 4179 
Q 382 4286 382 4436 
Q 382 4586 494 4693 
Q 607 4800 764 4800 
Q 921 4800 1033 4693 
Q 1146 4586 1146 4436 
Q 1146 4286 1033 4179 
Q 921 4073 764 4073 
z
" id="Inter-Regular-69" transform="scale(0.015625)"/>
       <path d="M 2964 2709 
L 2482 2573 
Q 2411 2755 2245 2914 
Q 2080 3073 1727 3073 
Q 1407 3073 1194 2926 
Q 982 2780 982 2555 
Q 982 2355 1127 2239 
Q 1273 2123 1582 2045 
L 2100 1918 
Q 3027 1691 3027 973 
Q 3027 673 2855 436 
Q 2684 200 2377 63 
Q 2071 -73 1664 -73 
Q 1130 -73 780 159 
Q 430 391 336 836 
L 846 964 
Q 989 400 1655 400 
Q 2030 400 2251 560 
Q 2473 720 2473 945 
Q 2473 1316 1955 1436 
L 1373 1573 
Q 893 1686 669 1926 
Q 446 2166 446 2527 
Q 446 2823 613 3050 
Q 780 3277 1069 3406 
Q 1359 3536 1727 3536 
Q 2246 3536 2542 3309 
Q 2839 3082 2964 2709 
z
" id="Inter-Regular-73" transform="scale(0.015625)"/>
       <path d="M 1809 -73 
Q 1373 -73 1039 148 
Q 705 370 516 776 
Q 327 1182 327 1736 
Q 327 2286 516 2690 
Q 705 3095 1041 3315 
Q 1377 3536 1818 3536 
Q 2159 3536 2358 3423 
Q 2557 3311 2662 3169 
Q 2768 3027 2827 2936 
L 2873 2936 
L 2873 4655 
L 3409 4655 
L 3409 0 
L 2891 0 
L 2891 536 
L 2827 536 
Q 2768 441 2659 296 
Q 2550 152 2348 39 
Q 2146 -73 1809 -73 
z
M 1882 409 
Q 2366 409 2624 780 
Q 2882 1152 2882 1745 
Q 2882 2332 2627 2693 
Q 2373 3055 1882 3055 
Q 1541 3055 1315 2881 
Q 1089 2707 976 2410 
Q 864 2114 864 1745 
Q 864 1373 978 1069 
Q 1093 766 1319 587 
Q 1546 409 1882 409 
z
" id="Inter-Regular-64" transform="scale(0.015625)"/>
      </defs>
      <use xlink:href="#Inter-Regular-50"/>
      <use x="63.494324" xlink:href="#Inter-Regular-65"/>
      <use x="121.732971" xlink:href="#Inter-Regular-72"/>
      <use x="160.085251" xlink:href="#Inter-Regular-63"/>
      <use x="215.909119" xlink:href="#Inter-Regular-65"/>
      <use x="274.147766" xlink:href="#Inter-Regular-6e"/>
      <use x="332.670502" xlink:href="#Inter-Regular-74"/>
      <use x="369.034149" xlink:href="#Inter-Regular-20"/>
      <use x="397.159149" xlink:href="#Inter-Regular-6f"/>
      <use x="456.818253" xlink:href="#Inter-Regular-66"/>
      <use x="492.897797" xlink:href="#Inter-Regular-20"/>
      <use x="521.022797" xlink:href="#Inter-Regular-6e"/>
      <use x="579.545532" xlink:href="#Inter-Regular-61"/>
      <use x="635.937592" xlink:href="#Inter-Regular-74"/>
      <use x="672.301239" xlink:href="#Inter-Regular-69"/>
      <use x="696.022827" xlink:href="#Inter-Regular-6f"/>
      <use x="755.681931" xlink:href="#Inter-Regular-6e"/>
      <use x="814.204666" xlink:href="#Inter-Regular-20"/>
      <use x="842.329666" xlink:href="#Inter-Regular-74"/>
      <use x="878.693314" xlink:href="#Inter-Regular-65"/>
      <use x="936.931961" xlink:href="#Inter-Regular-73"/>
      <use x="989.204697" xlink:href="#Inter-Regular-74"/>
      <use x="1025.568344" xlink:href="#Inter-Regular-65"/>
      <use x="1083.806992" xlink:href="#Inter-Regular-64"/>
      <use x="1145.880875" xlink:href="#Inter-Regular-20"/>
      <use x="1174.005875" xlink:href="#Inter-Regular-70"/>
      <use x="1234.94339" xlink:href="#Inter-Regular-6f"/>
      <use x="1294.602493" xlink:href="#Inter-Regular-73"/>
      <use x="1346.875229" xlink:href="#Inter-Regular-69"/>
      <use x="1370.596817" xlink:href="#Inter-Regular-74"/>
      <use x="1406.960464" xlink:href="#Inter-Regular-69"/>
      <use x="1430.682053" xlink:href="#Inter-Regular-76"/>
      <use x="1486.363876" xlink:href="#Inter-Regular-65"/>
     </g>
    </g>
   </g>
   <g id="line2d_29">
    <path clip-path="url(#pf8d5103ddd)" d="M 13.261777 476.744833 
L 66.089497 476.650369 
L 76.397345 476.268592 
L 81.551269 475.82356 
L 85.416712 475.248766 
L 90.570636 474.332918 
L 100.878484 471.709711 
L 104.743927 470.714753 
L 109.897851 469.63159 
L 116.340256 467.946596 
L 118.917218 467.308047 
L 122.782661 466.164634 
L 127.936585 464.943447 
L 131.802028 463.848685 
L 138.244433 462.628917 
L 140.821395 462.142829 
L 143.398357 461.826141 
L 148.552281 460.902365 
L 160.14861 459.40246 
L 166.591015 458.801213 
L 175.610382 458.100328 
L 188.495192 457.355465 
L 201.380002 456.683537 
L 223.284179 455.883766 
L 229.726584 455.628496 
L 245.188355 454.989113 
L 250.342279 454.743023 
L 255.496203 454.466558 
L 288.996709 452.295809 
L 291.573671 451.916619 
L 309.612405 448.715447 
L 314.766329 447.295903 
L 317.343291 446.456827 
L 323.785696 443.962965 
L 326.362658 442.519471 
L 328.93962 440.698706 
L 330.228101 439.732872 
L 332.805063 438.102369 
L 336.670506 434.47102 
L 337.958987 433.197177 
L 339.247468 432.111594 
L 341.82443 430.458727 
L 346.978354 425.175846 
L 348.266835 423.961919 
L 350.843797 421.942213 
L 354.70924 416.524145 
L 357.286202 413.376797 
L 359.863164 411.149721 
L 362.440126 407.541152 
L 366.305569 402.547588 
L 368.882531 400.234893 
L 370.171012 397.904424 
L 372.747974 394.315883 
L 375.324936 390.835742 
L 377.901898 387.949923 
L 379.190379 385.605684 
L 383.055822 379.675993 
L 384.344303 377.869581 
L 386.921265 375.345678 
L 388.209746 373.365943 
L 390.786708 370.14975 
L 393.36367 367.631104 
L 395.940632 365.907974 
L 397.229113 364.555439 
L 399.806075 362.222216 
L 402.383037 360.174387 
L 404.959999 358.662715 
L 407.536961 356.280925 
L 411.402404 353.036944 
L 413.979366 351.283438 
L 419.13329 345.435861 
L 420.421771 343.777987 
L 421.710252 342.440139 
L 422.998733 340.927132 
L 429.441137 328.397157 
L 430.729618 326.583652 
L 432.018099 324.168732 
L 434.595061 317.200774 
L 435.883542 314.062104 
L 437.172023 311.66738 
L 438.460504 310.609836 
L 439.748985 307.546687 
L 442.325947 300.664597 
L 443.614428 294.614156 
L 444.902909 289.36624 
L 446.19139 285.470442 
L 447.479871 283.115188 
L 450.056833 274.463487 
L 451.345314 268.69652 
L 452.633795 263.85358 
L 455.210757 255.662098 
L 456.499238 252.129718 
L 459.0762 246.430345 
L 460.364681 242.091518 
L 462.941643 234.929875 
L 465.518605 228.646028 
L 468.095567 224.151486 
L 469.384048 220.753709 
L 470.672529 217.752146 
L 473.249491 212.703505 
L 474.537972 210.45807 
L 475.826453 208.799529 
L 477.114934 207.509831 
L 479.691896 203.208806 
L 482.268858 199.446859 
L 483.557339 197.804674 
L 486.134301 195.409282 
L 487.422782 193.730963 
L 491.288225 189.457059 
L 492.576706 188.291199 
L 495.153668 186.560642 
L 497.73063 184.384052 
L 500.307592 182.459309 
L 501.596073 181.577925 
L 504.173035 180.303748 
L 506.749997 178.360814 
L 510.61544 175.95666 
L 513.192402 174.814249 
L 514.480883 173.991863 
L 517.057845 172.704167 
L 519.634807 171.679752 
L 522.211769 171.00749 
L 526.077212 169.616569 
L 529.942655 168.527815 
L 531.231136 168.232156 
L 535.096579 166.914753 
L 538.962022 165.8507 
L 540.250503 165.55162 
L 544.115946 164.297721 
L 546.692908 163.574722 
L 549.26987 162.916897 
L 553.135313 161.699632 
L 555.712275 161.026369 
L 558.289237 160.439391 
L 563.443161 159.424656 
L 589.212781 155.977394 
L 599.520629 154.809364 
L 607.251515 154.015184 
L 618.847843 152.747099 
L 622.713286 152.327936 
L 629.155691 151.530418 
L 631.732653 151.158571 
L 640.75202 149.528653 
L 644.617463 148.341596 
L 649.771387 146.68898 
L 658.790754 142.862945 
L 663.944678 139.882244 
L 666.52164 138.635188 
L 669.098602 136.498403 
L 675.541007 130.505708 
L 681.983412 120.972539 
L 684.560374 117.510924 
L 687.137336 112.468708 
L 688.425817 109.673847 
L 691.002779 104.860699 
L 693.579741 100.539479 
L 696.156703 93.708376 
L 697.445184 89.602287 
L 698.733665 84.907052 
L 700.022146 80.730449 
L 702.599108 75.139893 
L 703.887589 71.606428 
L 705.17607 68.680887 
L 706.464551 66.099821 
L 707.753032 63.844706 
L 709.041513 61.849867 
L 711.618475 58.602381 
L 714.195437 54.345 
L 714.195437 54.345 
" style="fill:none;stroke:#5694ca;stroke-linecap:square;stroke-width:2;"/>
   </g>
   <g id="line2d_30">
    <path clip-path="url(#pf8d5103ddd)" d="M 13.261777 476.745 
L 67.377978 476.658186 
L 81.551269 476.256359 
L 84.128231 476.01576 
L 93.147598 474.584564 
L 97.013041 473.857804 
L 99.590003 473.448537 
L 102.166965 472.875562 
L 106.032408 472.230656 
L 108.60937 471.786663 
L 111.186332 471.221129 
L 115.051775 470.286015 
L 116.340256 470.184318 
L 121.49418 469.16487 
L 124.071142 468.832495 
L 126.648104 468.547248 
L 129.225066 468.137981 
L 133.090509 467.391378 
L 136.955952 466.900257 
L 148.552281 465.2235 
L 151.129243 464.963057 
L 153.706205 464.722458 
L 157.571648 464.221415 
L 171.744939 463.415282 
L 179.475825 463.22181 
L 196.226078 462.879514 
L 227.149622 462.61163 
L 236.168989 462.445442 
L 254.207722 462.06842 
L 265.804051 461.359023 
L 268.381013 461.163071 
L 270.957975 460.984482 
L 274.823418 460.600018 
L 277.40038 460.297408 
L 282.554304 459.721953 
L 286.419747 459.21843 
L 288.996709 459.000154 
L 291.573671 458.618171 
L 298.016076 457.387889 
L 300.593038 457.005906 
L 305.746962 456.150164 
L 309.612405 455.269619 
L 313.477848 454.046778 
L 316.05481 453.411793 
L 317.343291 452.990123 
L 318.631772 452.449394 
L 321.208734 451.14966 
L 325.074177 449.090921 
L 326.362658 448.135963 
L 327.651139 446.546021 
L 328.93962 445.352944 
L 330.228101 443.62906 
L 332.805063 440.583118 
L 334.093544 438.824508 
L 335.382025 436.8377 
L 337.958987 431.876882 
L 341.82443 425.777557 
L 346.978354 415.00018 
L 348.266835 412.604105 
L 350.843797 408.561038 
L 354.70924 400.613808 
L 355.997721 397.944888 
L 357.286202 395.767089 
L 359.863164 392.264752 
L 362.440126 388.030693 
L 365.017088 384.444022 
L 366.305569 382.744942 
L 368.882531 380.324063 
L 371.459493 376.992874 
L 374.036455 374.147845 
L 376.613417 371.808819 
L 377.901898 370.767047 
L 381.767341 365.942652 
L 383.055822 364.580907 
L 385.632784 362.368382 
L 386.921265 361.44319 
L 389.498227 358.585759 
L 390.786708 357.496859 
L 394.652151 354.981725 
L 395.940632 354.302093 
L 401.094556 350.673254 
L 403.671518 349.001459 
L 404.959999 348.368954 
L 406.24848 347.116348 
L 408.825442 345.107217 
L 410.113923 343.879414 
L 412.690885 341.830596 
L 413.979366 340.917806 
L 419.13329 336.227353 
L 420.421771 334.944981 
L 422.998733 333.05987 
L 430.729618 324.790187 
L 432.018099 323.587189 
L 434.595061 320.02036 
L 435.883542 318.028592 
L 437.172023 316.485778 
L 438.460504 315.642439 
L 439.748985 313.863985 
L 441.037466 311.1653 
L 442.325947 307.734895 
L 444.902909 296.520966 
L 446.19139 292.259623 
L 447.479871 289.171514 
L 448.768352 284.399208 
L 450.056833 280.373504 
L 451.345314 275.410205 
L 453.922276 267.634123 
L 456.499238 261.524876 
L 457.787719 259.046948 
L 459.0762 256.866668 
L 460.364681 253.738872 
L 462.941643 248.358865 
L 465.518605 244.000787 
L 466.807086 242.289305 
L 468.095567 240.776255 
L 470.672529 236.390892 
L 473.249491 232.598347 
L 474.537972 231.090258 
L 477.114934 228.820684 
L 480.980377 224.197202 
L 483.557339 221.617577 
L 486.134301 219.665495 
L 487.422782 218.390565 
L 492.576706 214.064731 
L 497.73063 210.860043 
L 499.019111 210.004302 
L 501.596073 208.592949 
L 502.884554 208.11423 
L 504.173035 207.496608 
L 505.461516 206.559014 
L 510.61544 203.522993 
L 517.057845 200.499375 
L 518.346326 199.886714 
L 520.923288 199.045855 
L 522.211769 198.735804 
L 527.365693 196.887899 
L 531.231136 195.744431 
L 533.808098 194.7101 
L 537.673541 193.288826 
L 541.538984 192.21977 
L 545.404427 190.987006 
L 551.846832 189.255681 
L 555.712275 188.045241 
L 563.443161 186.348642 
L 566.020123 186.011306 
L 568.597085 185.763265 
L 571.174047 185.259742 
L 575.03949 184.384158 
L 578.904933 183.630113 
L 580.193414 183.213405 
L 584.058857 182.444478 
L 585.347338 182.253487 
L 589.212781 181.318372 
L 596.943667 180.021118 
L 600.80911 179.324124 
L 604.674553 178.768512 
L 607.251515 178.279871 
L 612.405439 177.443974 
L 617.559362 176.427006 
L 621.424805 175.943326 
L 625.290248 175.169439 
L 629.155691 174.591503 
L 633.021134 174.095421 
L 639.463539 173.259524 
L 643.328982 172.716314 
L 647.194425 172.098692 
L 649.771387 171.758876 
L 658.790754 169.982903 
L 665.233159 168.038263 
L 666.52164 167.710849 
L 670.387083 166.207721 
L 672.964045 164.982399 
L 676.829488 163.0452 
L 685.848855 155.842092 
L 687.137336 154.490269 
L 691.002779 149.839502 
L 694.868222 146.118889 
L 696.156703 143.933649 
L 697.445184 141.110943 
L 701.310627 131.424946 
L 702.599108 128.917253 
L 705.17607 120.982425 
L 707.753032 113.73963 
L 709.041513 110.467971 
L 711.618475 105.020993 
L 712.906956 101.595548 
L 714.195437 97.800523 
L 714.195437 97.800523 
" style="fill:none;stroke:#ffdd00;stroke-linecap:square;stroke-width:2;"/>
   </g>
   <g id="line2d_31">
    <path clip-path="url(#pf8d5103ddd)" d="M 13.261777 476.745 
L 66.089497 476.665903 
L 80.262788 476.238608 
L 84.128231 475.816471 
L 90.570636 474.774455 
L 104.743927 471.612296 
L 107.320889 471.266677 
L 115.051775 469.442289 
L 116.340256 469.305589 
L 122.782661 467.837997 
L 125.359623 467.532786 
L 129.225066 466.459819 
L 133.090509 465.656813 
L 134.37899 465.487442 
L 139.532914 464.434249 
L 142.109876 464.058539 
L 144.686838 463.700023 
L 148.552281 463.149784 
L 156.283167 462.469722 
L 160.14861 462.253065 
L 162.725572 462.124962 
L 164.014053 461.714002 
L 170.456458 461.530016 
L 185.91823 461.236841 
L 206.533926 461.039959 
L 255.496203 460.483701 
L 267.092532 460.112289 
L 272.246456 459.941199 
L 290.28519 458.734971 
L 298.016076 457.859746 
L 300.593038 457.581187 
L 313.477848 455.667385 
L 314.766329 455.396564 
L 317.343291 454.582381 
L 318.631772 454.094904 
L 321.208734 452.984107 
L 325.074177 451.767562 
L 327.651139 450.518346 
L 332.805063 447.911586 
L 335.382025 445.94448 
L 337.958987 443.862167 
L 340.535949 442.114297 
L 341.82443 441.291516 
L 348.266835 435.615451 
L 350.843797 434.165914 
L 352.132278 433.001813 
L 354.70924 430.193872 
L 355.997721 428.911986 
L 357.286202 427.811506 
L 359.863164 426.190879 
L 363.728607 422.829259 
L 366.305569 420.948987 
L 367.59405 420.311913 
L 368.882531 419.477096 
L 371.459493 417.016494 
L 374.036455 414.788023 
L 375.324936 413.815647 
L 377.901898 412.345476 
L 383.055822 408.027814 
L 385.632784 406.344425 
L 386.921265 405.646309 
L 389.498227 403.498655 
L 392.075189 401.700919 
L 394.652151 400.308125 
L 395.940632 399.701142 
L 398.517594 397.858699 
L 401.094556 396.372193 
L 402.383037 395.740277 
L 404.959999 394.772199 
L 408.825442 392.327932 
L 410.113923 391.637553 
L 413.979366 389.960182 
L 420.421771 385.88497 
L 422.998733 384.683041 
L 426.864175 381.979989 
L 429.441137 380.405788 
L 432.018099 379.065438 
L 435.883542 375.672867 
L 437.172023 374.799362 
L 438.460504 374.355731 
L 439.748985 373.452995 
L 442.325947 370.456768 
L 444.902909 365.215736 
L 446.19139 363.174691 
L 447.479871 362.178242 
L 451.345314 356.298416 
L 452.633795 353.67704 
L 453.922276 351.486399 
L 455.210757 349.59753 
L 456.499238 348.031066 
L 459.0762 345.520598 
L 461.653162 342.026577 
L 464.230124 339.162752 
L 465.518605 337.843037 
L 468.095567 335.801992 
L 470.672529 332.979435 
L 471.96101 331.629628 
L 474.537972 329.506907 
L 477.114934 327.965376 
L 479.691896 325.819442 
L 483.557339 323.079421 
L 486.134301 321.714139 
L 488.711263 319.870836 
L 492.576706 317.494489 
L 495.153668 316.332108 
L 496.442149 315.480097 
L 499.019111 314.101918 
L 501.596073 312.602516 
L 502.884554 312.136531 
L 504.173035 311.551042 
L 506.749997 309.938152 
L 511.903921 307.140528 
L 513.192402 306.6178 
L 515.769364 305.345371 
L 518.346326 304.204484 
L 520.923288 303.406637 
L 523.50025 302.5701 
L 529.942655 300.406971 
L 531.231136 300.03384 
L 535.096579 298.432127 
L 537.673541 297.360879 
L 540.250503 296.581087 
L 542.827465 295.496943 
L 546.692908 294.043966 
L 549.26987 293.252137 
L 551.846832 292.148219 
L 555.712275 290.782937 
L 562.15468 289.02475 
L 564.731642 288.366182 
L 578.904933 285.810147 
L 581.481895 285.45765 
L 582.770376 285.129225 
L 589.212781 284.163727 
L 593.078224 283.674529 
L 595.655186 283.413166 
L 602.097591 282.672921 
L 605.963034 282.261101 
L 614.9824 280.842515 
L 624.001767 279.002651 
L 627.86721 278.0148 
L 630.444172 277.486054 
L 634.309615 276.089821 
L 638.175058 274.769246 
L 640.75202 273.834698 
L 642.040501 273.170112 
L 645.905944 270.823856 
L 648.482906 269.719938 
L 651.059868 268.018494 
L 653.63683 266.216459 
L 654.925311 265.472776 
L 656.213792 264.865793 
L 657.502273 264.130707 
L 660.079235 262.06215 
L 663.944678 258.914608 
L 665.233159 258.057438 
L 666.52164 256.726546 
L 671.675564 246.324439 
L 672.964045 244.072755 
L 675.541007 239.945099 
L 679.40645 229.884312 
L 680.694931 226.936231 
L 681.983412 224.290783 
L 684.560374 220.065974 
L 687.137336 214.505975 
L 689.714298 209.670745 
L 691.002779 207.624542 
L 693.579741 204.450347 
L 696.156703 200.134405 
L 697.445184 198.236079 
L 698.733665 196.548391 
L 700.022146 195.046409 
L 702.599108 192.652007 
L 703.887589 191.011605 
L 706.464551 188.28448 
L 709.041513 186.001846 
L 711.618475 184.37348 
L 714.195437 182.040121 
L 714.195437 182.040121 
" style="fill:none;stroke:#003078;stroke-linecap:square;stroke-width:2;"/>
   </g>
   <g id="line2d_32">
    <path clip-path="url(#pf8d5103ddd)" d="M 13.261777 476.745 
L 67.377978 476.655614 
L 76.397345 476.284661 
L 81.551269 475.752812 
L 84.128231 475.259698 
L 89.282155 474.222817 
L 91.859117 473.299159 
L 97.013041 471.399701 
L 98.301522 471.067482 
L 104.743927 468.305446 
L 108.60937 467.162791 
L 111.186332 466.152726 
L 113.763294 465.129253 
L 121.49418 463.010799 
L 122.782661 462.693477 
L 127.936585 461.82643 
L 134.37899 460.580982 
L 138.244433 459.858443 
L 140.821395 459.424919 
L 148.552281 458.149675 
L 152.417724 457.459911 
L 160.14861 456.062505 
L 164.014053 455.631961 
L 167.879496 455.146296 
L 178.187344 454.407369 
L 182.052787 454.154108 
L 193.649116 453.251307 
L 194.937597 453.042739 
L 198.80304 452.761172 
L 200.091521 452.566012 
L 203.956964 452.393199 
L 205.245445 452.184631 
L 225.861141 451.624477 
L 282.554304 450.043829 
L 291.573671 449.465798 
L 298.016076 448.434876 
L 304.458481 447.284773 
L 309.612405 446.203199 
L 316.05481 444.189028 
L 322.497215 441.416564 
L 323.785696 440.944306 
L 326.362658 439.61543 
L 334.093544 434.156908 
L 336.670506 431.740499 
L 339.247468 429.343457 
L 341.82443 427.488692 
L 343.112911 426.323691 
L 345.689873 423.558676 
L 346.978354 422.380267 
L 348.266835 420.962004 
L 350.843797 418.84057 
L 352.132278 417.185434 
L 354.70924 413.456537 
L 355.997721 411.883338 
L 357.286202 410.100082 
L 359.863164 407.172681 
L 362.440126 402.652715 
L 363.728607 400.631096 
L 365.017088 398.272788 
L 366.305569 396.423982 
L 368.882531 393.702169 
L 370.171012 391.601592 
L 371.459493 389.763214 
L 374.036455 386.618307 
L 375.324936 385.311778 
L 377.901898 383.373585 
L 380.47886 380.432777 
L 384.344303 376.729205 
L 386.921265 374.858053 
L 393.36367 367.593928 
L 395.940632 365.512717 
L 398.517594 362.348443 
L 399.806075 360.356619 
L 402.383037 357.088061 
L 403.671518 355.830694 
L 404.959999 354.391575 
L 407.536961 349.749447 
L 408.825442 347.300263 
L 411.402404 342.080105 
L 412.690885 339.796286 
L 413.979366 337.268144 
L 416.556328 329.650943 
L 420.421771 317.482491 
L 421.710252 314.078364 
L 422.998733 310.006819 
L 424.287214 304.734518 
L 426.864175 295.316184 
L 429.441137 287.40103 
L 432.018099 280.878811 
L 434.595061 272.761047 
L 435.883542 269.121536 
L 437.172023 266.927103 
L 438.460504 265.96918 
L 439.748985 263.149043 
L 442.325947 255.920673 
L 443.614428 250.612618 
L 444.902909 246.591725 
L 446.19139 243.597285 
L 447.479871 241.793172 
L 448.768352 238.684019 
L 450.056833 235.989023 
L 451.345314 232.029211 
L 452.633795 228.479086 
L 453.922276 225.514441 
L 456.499238 220.659276 
L 459.0762 217.203007 
L 461.653162 212.23313 
L 462.941643 210.053595 
L 465.518605 206.294902 
L 466.807086 204.797682 
L 468.095567 203.56862 
L 469.384048 201.48741 
L 471.96101 198.430399 
L 473.249491 197.076197 
L 474.537972 195.926094 
L 475.826453 195.120127 
L 477.114934 194.530178 
L 478.403415 193.269831 
L 480.980377 191.13201 
L 483.557339 189.260857 
L 486.134301 187.851533 
L 489.999744 185.178884 
L 492.576706 183.686133 
L 496.442149 181.995242 
L 499.019111 180.633592 
L 502.884554 179.045495 
L 504.173035 178.614951 
L 506.749997 177.281606 
L 509.326959 176.21493 
L 511.903921 175.355332 
L 519.634807 172.989575 
L 522.211769 172.474114 
L 526.077212 171.446172 
L 528.654174 170.954548 
L 533.808098 169.855096 
L 545.404427 167.22565 
L 555.712275 165.184663 
L 559.577718 164.718365 
L 563.443161 164.213332 
L 569.885566 163.656158 
L 573.751009 163.258389 
L 578.904933 162.847212 
L 584.058857 162.477749 
L 602.097591 161.42597 
L 607.251515 161.195056 
L 611.116958 160.993937 
L 614.9824 160.789838 
L 618.847843 160.578291 
L 626.578729 160.228194 
L 633.021134 159.93322 
L 640.75202 159.566736 
L 647.194425 159.0185 
L 649.771387 158.76077 
L 658.790754 157.463179 
L 666.52164 155.733554 
L 670.387083 154.097786 
L 672.964045 152.922356 
L 674.252526 152.546934 
L 675.541007 152.004657 
L 681.983412 147.411692 
L 684.560374 145.845942 
L 691.002779 140.160975 
L 693.579741 138.121478 
L 694.868222 136.758338 
L 697.445184 133.325905 
L 698.733665 131.658851 
L 700.022146 130.237609 
L 702.599108 128.363476 
L 705.17607 125.784682 
L 709.041513 122.344801 
L 711.618475 120.689665 
L 714.195437 118.428192 
L 714.195437 118.428192 
" style="fill:none;stroke:#d4351c;stroke-linecap:square;stroke-width:2;"/>
   </g>
   <g id="patch_3">
    <path d="M 53.204688 476.745 
L 722.804688 476.745 
" style="fill:none;stroke:#000000;stroke-linecap:square;stroke-linejoin:miter;stroke-width:0.8;"/>
   </g>
   <g id="text_16">
    <!-- Cumulative COVID-19 cases in UK Nations, per capita -->
    <g transform="translate(231.415 27.225)scale(0.12 -0.12)">
     <defs>
      <path d="M 4511 3025 
L 3516 3025 
Q 3459 3409 3188 3628 
Q 2918 3848 2514 3848 
Q 1973 3848 1647 3451 
Q 1321 3055 1321 2327 
Q 1321 1582 1649 1194 
Q 1977 807 2507 807 
Q 2900 807 3173 1012 
Q 3446 1218 3516 1591 
L 4511 1586 
Q 4459 1159 4207 782 
Q 3955 405 3522 170 
Q 3089 -64 2491 -64 
Q 1868 -64 1378 218 
Q 889 500 606 1034 
Q 323 1568 323 2327 
Q 323 3089 609 3623 
Q 896 4157 1386 4437 
Q 1877 4718 2491 4718 
Q 3030 4718 3463 4519 
Q 3896 4320 4172 3942 
Q 4448 3564 4511 3025 
z
" id="Inter-Bold-43" transform="scale(0.015625)"/>
      <path d="M 2625 1486 
L 2625 3491 
L 3593 3491 
L 3593 0 
L 2664 0 
L 2664 634 
L 2627 634 
Q 2509 327 2235 141 
Q 1961 -45 1568 -45 
Q 1041 -45 715 306 
Q 389 657 386 1268 
L 386 3491 
L 1355 3491 
L 1355 1441 
Q 1357 1132 1520 952 
Q 1684 773 1959 773 
Q 2221 773 2424 954 
Q 2627 1136 2625 1486 
z
" id="Inter-Bold-75" transform="scale(0.015625)"/>
      <path d="M 386 0 
L 386 3491 
L 1309 3491 
L 1309 2875 
L 1350 2875 
Q 1459 3184 1715 3360 
Q 1971 3536 2323 3536 
Q 2682 3536 2934 3358 
Q 3186 3180 3271 2875 
L 3307 2875 
Q 3414 3175 3694 3355 
Q 3975 3536 4359 3536 
Q 4848 3536 5153 3226 
Q 5459 2916 5459 2348 
L 5459 0 
L 4493 0 
L 4493 2157 
Q 4493 2448 4338 2593 
Q 4184 2739 3952 2739 
Q 3689 2739 3541 2570 
Q 3393 2402 3393 2132 
L 3393 0 
L 2455 0 
L 2455 2177 
Q 2455 2434 2308 2586 
Q 2161 2739 1923 2739 
Q 1682 2739 1518 2562 
Q 1355 2386 1355 2095 
L 1355 0 
L 386 0 
z
" id="Inter-Bold-6d" transform="scale(0.015625)"/>
      <path d="M 1355 4655 
L 1355 0 
L 386 0 
L 386 4655 
L 1355 4655 
z
" id="Inter-Bold-6c" transform="scale(0.015625)"/>
      <path d="M 1382 -66 
Q 882 -66 552 195 
Q 223 457 223 975 
Q 223 1366 407 1588 
Q 591 1811 890 1914 
Q 1189 2018 1534 2050 
Q 1989 2095 2184 2145 
Q 2380 2195 2380 2364 
L 2380 2377 
Q 2380 2593 2244 2711 
Q 2109 2830 1861 2830 
Q 1600 2830 1445 2716 
Q 1291 2602 1241 2427 
L 346 2500 
Q 446 2977 842 3256 
Q 1239 3536 1866 3536 
Q 2255 3536 2593 3413 
Q 2932 3291 3140 3030 
Q 3348 2770 3348 2355 
L 3348 0 
L 2430 0 
L 2430 484 
L 2402 484 
Q 2275 241 2021 87 
Q 1768 -66 1382 -66 
z
M 1659 602 
Q 1977 602 2181 787 
Q 2386 973 2386 1248 
L 2386 1618 
Q 2330 1580 2210 1550 
Q 2091 1520 1956 1498 
Q 1821 1477 1714 1461 
Q 1459 1425 1303 1318 
Q 1148 1211 1148 1007 
Q 1148 807 1292 704 
Q 1436 602 1659 602 
z
" id="Inter-Bold-61" transform="scale(0.015625)"/>
      <path d="M 2243 3491 
L 2243 2764 
L 1586 2764 
L 1586 1073 
Q 1586 873 1677 802 
Q 1768 732 1914 732 
Q 1982 732 2050 744 
Q 2118 757 2155 764 
L 2307 43 
Q 2234 20 2102 -10 
Q 1971 -41 1782 -48 
Q 1255 -70 935 181 
Q 616 432 618 945 
L 618 2764 
L 141 2764 
L 141 3491 
L 618 3491 
L 618 4327 
L 1586 4327 
L 1586 3491 
L 2243 3491 
z
" id="Inter-Bold-74" transform="scale(0.015625)"/>
      <path d="M 386 0 
L 386 3491 
L 1355 3491 
L 1355 0 
L 386 0 
z
M 876 3941 
Q 662 3941 507 4085 
Q 353 4230 353 4432 
Q 353 4634 507 4777 
Q 662 4920 876 4920 
Q 1092 4920 1246 4777 
Q 1401 4634 1401 4432 
Q 1401 4230 1246 4085 
Q 1092 3941 876 3941 
z
" id="Inter-Bold-69" transform="scale(0.015625)"/>
      <path d="M 3641 3491 
L 2421 0 
L 1330 0 
L 109 3491 
L 1132 3491 
L 1857 993 
L 1893 993 
L 2616 3491 
L 3641 3491 
z
" id="Inter-Bold-76" transform="scale(0.015625)"/>
      <path d="M 1977 -68 
Q 1441 -68 1052 151 
Q 664 370 455 773 
Q 246 1177 246 1730 
Q 246 2268 455 2675 
Q 664 3082 1044 3309 
Q 1425 3536 1939 3536 
Q 2400 3536 2771 3340 
Q 3143 3145 3361 2751 
Q 3580 2357 3580 1764 
L 3580 1498 
L 1202 1498 
L 1202 1495 
Q 1202 1105 1416 880 
Q 1630 655 1993 655 
Q 2236 655 2413 757 
Q 2591 859 2664 1059 
L 3559 1000 
Q 3457 514 3041 223 
Q 2625 -68 1977 -68 
z
M 1202 2098 
L 2668 2098 
Q 2666 2409 2468 2611 
Q 2271 2814 1955 2814 
Q 1632 2814 1425 2604 
Q 1218 2395 1202 2098 
z
" id="Inter-Bold-65" transform="scale(0.015625)"/>
      <path id="Inter-Bold-20" transform="scale(0.015625)"/>
      <path d="M 4682 2327 
Q 4682 1566 4394 1032 
Q 4107 498 3614 217 
Q 3121 -64 2502 -64 
Q 1882 -64 1389 218 
Q 896 500 609 1035 
Q 323 1570 323 2327 
Q 323 3089 609 3623 
Q 896 4157 1389 4437 
Q 1882 4718 2502 4718 
Q 3121 4718 3614 4437 
Q 4107 4157 4394 3623 
Q 4682 3089 4682 2327 
z
M 3684 2327 
Q 3684 3068 3361 3458 
Q 3039 3848 2502 3848 
Q 1966 3848 1643 3458 
Q 1321 3068 1321 2327 
Q 1321 1589 1643 1198 
Q 1966 807 2502 807 
Q 3039 807 3361 1198 
Q 3684 1589 3684 2327 
z
" id="Inter-Bold-4f" transform="scale(0.015625)"/>
      <path d="M 1246 4655 
L 2371 1118 
L 2414 1118 
L 3541 4655 
L 4632 4655 
L 3027 0 
L 1759 0 
L 152 4655 
L 1246 4655 
z
" id="Inter-Bold-56" transform="scale(0.015625)"/>
      <path d="M 1389 4655 
L 1389 0 
L 405 0 
L 405 4655 
L 1389 4655 
z
" id="Inter-Bold-49" transform="scale(0.015625)"/>
      <path d="M 2055 0 
L 405 0 
L 405 4655 
L 2068 4655 
Q 2771 4655 3278 4376 
Q 3786 4098 4059 3577 
Q 4332 3057 4332 2332 
Q 4332 1605 4058 1082 
Q 3784 559 3274 279 
Q 2764 0 2055 0 
z
M 1389 843 
L 2014 843 
Q 2671 843 3010 1197 
Q 3350 1552 3350 2332 
Q 3350 3107 3010 3459 
Q 2671 3811 2016 3811 
L 1389 3811 
L 1389 843 
z
" id="Inter-Bold-44" transform="scale(0.015625)"/>
      <path d="M 2561 2295 
L 2561 1527 
L 439 1527 
L 439 2295 
L 2561 2295 
z
" id="Inter-Bold-2d" transform="scale(0.015625)"/>
      <path d="M 2305 4655 
L 2305 0 
L 1323 0 
L 1323 3450 
L 1280 3450 
Q 1205 3334 961 3219 
Q 718 3105 332 3105 
L 332 3886 
Q 632 3886 857 4019 
Q 1082 4152 1209 4333 
Q 1336 4514 1341 4655 
L 2305 4655 
z
" id="Inter-Bold-31" transform="scale(0.015625)"/>
      <path d="M 2061 4732 
Q 2421 4732 2753 4612 
Q 3086 4493 3348 4227 
Q 3611 3961 3766 3523 
Q 3921 3086 3921 2448 
Q 3921 1659 3686 1096 
Q 3452 534 3028 235 
Q 2605 -64 2027 -64 
Q 1561 -64 1204 117 
Q 848 298 631 610 
Q 414 923 368 1314 
L 1339 1314 
Q 1396 1059 1577 919 
Q 1759 780 2027 780 
Q 2482 780 2718 1176 
Q 2955 1573 2957 2264 
L 2925 2264 
Q 2771 1957 2453 1782 
Q 2136 1607 1752 1607 
Q 1341 1607 1016 1801 
Q 691 1995 506 2334 
Q 321 2673 323 3109 
Q 321 3582 539 3949 
Q 757 4316 1149 4525 
Q 1541 4734 2061 4732 
z
M 2068 3959 
Q 1725 3959 1500 3722 
Q 1275 3486 1277 3136 
Q 1275 2791 1496 2555 
Q 1718 2320 2059 2320 
Q 2284 2320 2465 2431 
Q 2646 2543 2751 2729 
Q 2857 2916 2859 3141 
Q 2857 3366 2753 3551 
Q 2650 3736 2473 3847 
Q 2296 3959 2068 3959 
z
" id="Inter-Bold-39" transform="scale(0.015625)"/>
      <path d="M 1964 -68 
Q 1427 -68 1042 160 
Q 657 389 451 795 
Q 246 1202 246 1732 
Q 246 2268 453 2674 
Q 661 3080 1045 3308 
Q 1430 3536 1959 3536 
Q 2416 3536 2760 3370 
Q 3105 3205 3303 2905 
Q 3502 2605 3523 2200 
L 2609 2200 
Q 2571 2461 2406 2621 
Q 2241 2782 1975 2782 
Q 1639 2782 1434 2511 
Q 1230 2241 1230 1745 
Q 1230 1245 1433 971 
Q 1636 698 1975 698 
Q 2225 698 2395 849 
Q 2566 1000 2609 1280 
L 3523 1280 
Q 3500 880 3305 575 
Q 3111 270 2770 101 
Q 2430 -68 1964 -68 
z
" id="Inter-Bold-63" transform="scale(0.015625)"/>
      <path d="M 3291 2495 
L 2405 2441 
Q 2368 2609 2220 2729 
Q 2073 2850 1821 2850 
Q 1596 2850 1440 2755 
Q 1284 2661 1286 2505 
Q 1284 2380 1385 2293 
Q 1486 2207 1730 2155 
L 2361 2027 
Q 3368 1820 3371 1082 
Q 3371 739 3169 479 
Q 2968 220 2618 76 
Q 2268 -68 1816 -68 
Q 1123 -68 711 221 
Q 300 511 232 1011 
L 1184 1061 
Q 1230 848 1394 739 
Q 1559 630 1818 630 
Q 2073 630 2228 730 
Q 2384 830 2386 984 
Q 2380 1243 1939 1332 
L 1334 1452 
Q 321 1655 325 2450 
Q 323 2955 728 3245 
Q 1134 3536 1805 3536 
Q 2466 3536 2846 3256 
Q 3227 2977 3291 2495 
z
" id="Inter-Bold-73" transform="scale(0.015625)"/>
      <path d="M 1355 2018 
L 1355 0 
L 386 0 
L 386 3491 
L 1309 3491 
L 1309 2875 
L 1350 2875 
Q 1468 3180 1739 3358 
Q 2011 3536 2400 3536 
Q 2946 3536 3275 3185 
Q 3605 2834 3605 2223 
L 3605 0 
L 2636 0 
L 2636 2050 
Q 2639 2370 2473 2551 
Q 2307 2732 2016 2732 
Q 1723 2732 1540 2544 
Q 1357 2357 1355 2018 
z
" id="Inter-Bold-6e" transform="scale(0.015625)"/>
      <path d="M 3286 4655 
L 4264 4655 
L 4264 1577 
Q 4264 1050 4016 683 
Q 3768 316 3333 125 
Q 2898 -66 2334 -66 
Q 1771 -66 1334 125 
Q 898 316 651 683 
Q 405 1050 405 1577 
L 405 4655 
L 1389 4655 
L 1389 1611 
Q 1389 1239 1658 1025 
Q 1927 811 2334 811 
Q 2748 811 3017 1025 
Q 3286 1239 3286 1611 
L 3286 4655 
z
" id="Inter-Bold-55" transform="scale(0.015625)"/>
      <path d="M 405 0 
L 405 4655 
L 1389 4655 
L 1389 2602 
L 1450 2602 
L 3125 4655 
L 4305 4655 
L 2577 2570 
L 4325 0 
L 3148 0 
L 1873 1914 
L 1389 1323 
L 1389 0 
L 405 0 
z
" id="Inter-Bold-4b" transform="scale(0.015625)"/>
      <path d="M 4298 4655 
L 4298 0 
L 3448 0 
L 1423 2930 
L 1389 2930 
L 1389 0 
L 405 0 
L 405 4655 
L 1268 4655 
L 3277 1727 
L 3318 1727 
L 3318 4655 
L 4298 4655 
z
" id="Inter-Bold-4e" transform="scale(0.015625)"/>
      <path d="M 1964 -68 
Q 1434 -68 1049 158 
Q 664 384 455 789 
Q 246 1195 246 1732 
Q 246 2273 455 2678 
Q 664 3084 1049 3310 
Q 1434 3536 1964 3536 
Q 2493 3536 2878 3310 
Q 3264 3084 3473 2678 
Q 3682 2273 3682 1732 
Q 3682 1195 3473 789 
Q 3264 384 2878 158 
Q 2493 -68 1964 -68 
z
M 1968 682 
Q 2327 682 2512 982 
Q 2698 1282 2698 1739 
Q 2698 2195 2512 2496 
Q 2327 2798 1968 2798 
Q 1602 2798 1416 2496 
Q 1230 2195 1230 1739 
Q 1230 1282 1416 982 
Q 1602 682 1968 682 
z
" id="Inter-Bold-6f" transform="scale(0.015625)"/>
      <path d="M 1439 636 
L 1414 386 
Q 1384 86 1301 -212 
Q 1218 -511 1128 -754 
Q 1039 -998 984 -1136 
L 357 -1136 
Q 391 -1002 450 -763 
Q 509 -525 561 -226 
Q 614 73 627 382 
L 639 636 
L 1439 636 
z
" id="Inter-Bold-2c" transform="scale(0.015625)"/>
      <path d="M 386 -1309 
L 386 3491 
L 1341 3491 
L 1341 2905 
L 1384 2905 
Q 1450 3048 1570 3193 
Q 1691 3339 1888 3437 
Q 2086 3536 2377 3536 
Q 2761 3536 3081 3337 
Q 3402 3139 3596 2740 
Q 3791 2341 3791 1741 
Q 3791 1157 3602 756 
Q 3414 355 3093 149 
Q 2773 -57 2375 -57 
Q 2093 -57 1896 36 
Q 1700 130 1576 272 
Q 1452 414 1384 559 
L 1355 559 
L 1355 -1309 
L 386 -1309 
z
M 1334 1745 
Q 1334 1280 1526 997 
Q 1718 714 2068 714 
Q 2425 714 2613 1001 
Q 2802 1289 2802 1745 
Q 2802 2200 2614 2483 
Q 2427 2766 2068 2766 
Q 1716 2766 1525 2490 
Q 1334 2214 1334 1745 
z
" id="Inter-Bold-70" transform="scale(0.015625)"/>
      <path d="M 386 0 
L 386 3491 
L 1325 3491 
L 1325 2882 
L 1361 2882 
Q 1457 3207 1681 3374 
Q 1905 3541 2200 3541 
Q 2341 3541 2461 3507 
Q 2582 3473 2677 3414 
L 2386 2614 
Q 2318 2648 2237 2671 
Q 2157 2695 2057 2695 
Q 1764 2695 1560 2495 
Q 1357 2295 1355 1975 
L 1355 0 
L 386 0 
z
" id="Inter-Bold-72" transform="scale(0.015625)"/>
     </defs>
     <use xlink:href="#Inter-Bold-43"/>
     <use x="75.213089" xlink:href="#Inter-Bold-75"/>
     <use x="137.393494" xlink:href="#Inter-Bold-6d"/>
     <use x="228.5867" xlink:href="#Inter-Bold-75"/>
     <use x="290.767105" xlink:href="#Inter-Bold-6c"/>
     <use x="317.968811" xlink:href="#Inter-Bold-61"/>
     <use x="375.994385" xlink:href="#Inter-Bold-74"/>
     <use x="414.843826" xlink:href="#Inter-Bold-69"/>
     <use x="442.045532" xlink:href="#Inter-Bold-76"/>
     <use x="500.639297" xlink:href="#Inter-Bold-65"/>
     <use x="560.404938" xlink:href="#Inter-Bold-20"/>
     <use x="583.593857" xlink:href="#Inter-Bold-43"/>
     <use x="658.806946" xlink:href="#Inter-Bold-4f"/>
     <use x="737.002991" xlink:href="#Inter-Bold-56"/>
     <use x="811.789932" xlink:href="#Inter-Bold-49"/>
     <use x="839.843918" xlink:href="#Inter-Bold-44"/>
     <use x="912.571213" xlink:href="#Inter-Bold-2d"/>
     <use x="959.446228" xlink:href="#Inter-Bold-31"/>
     <use x="1006.853912" xlink:href="#Inter-Bold-39"/>
     <use x="1072.869553" xlink:href="#Inter-Bold-20"/>
     <use x="1096.058472" xlink:href="#Inter-Bold-63"/>
     <use x="1154.794281" xlink:href="#Inter-Bold-61"/>
     <use x="1212.819855" xlink:href="#Inter-Bold-73"/>
     <use x="1268.99884" xlink:href="#Inter-Bold-65"/>
     <use x="1328.764481" xlink:href="#Inter-Bold-73"/>
     <use x="1384.943466" xlink:href="#Inter-Bold-20"/>
     <use x="1408.132385" xlink:href="#Inter-Bold-69"/>
     <use x="1435.334091" xlink:href="#Inter-Bold-6e"/>
     <use x="1497.514496" xlink:href="#Inter-Bold-20"/>
     <use x="1520.703415" xlink:href="#Inter-Bold-55"/>
     <use x="1593.643768" xlink:href="#Inter-Bold-4b"/>
     <use x="1662.606857" xlink:href="#Inter-Bold-20"/>
     <use x="1685.795776" xlink:href="#Inter-Bold-4e"/>
     <use x="1759.304321" xlink:href="#Inter-Bold-61"/>
     <use x="1817.329895" xlink:href="#Inter-Bold-74"/>
     <use x="1856.179337" xlink:href="#Inter-Bold-69"/>
     <use x="1883.381042" xlink:href="#Inter-Bold-6f"/>
     <use x="1944.74469" xlink:href="#Inter-Bold-6e"/>
     <use x="2006.925095" xlink:href="#Inter-Bold-73"/>
     <use x="2063.10408" xlink:href="#Inter-Bold-2c"/>
     <use x="2093.395279" xlink:href="#Inter-Bold-20"/>
     <use x="2116.584198" xlink:href="#Inter-Bold-70"/>
     <use x="2179.829956" xlink:href="#Inter-Bold-65"/>
     <use x="2239.595596" xlink:href="#Inter-Bold-72"/>
     <use x="2282.457825" xlink:href="#Inter-Bold-20"/>
     <use x="2305.646744" xlink:href="#Inter-Bold-63"/>
     <use x="2364.382553" xlink:href="#Inter-Bold-61"/>
     <use x="2422.408127" xlink:href="#Inter-Bold-70"/>
     <use x="2485.653885" xlink:href="#Inter-Bold-69"/>
     <use x="2512.855591" xlink:href="#Inter-Bold-74"/>
     <use x="2551.705032" xlink:href="#Inter-Bold-61"/>
    </g>
   </g>
   <g id="legend_1">
    <g id="patch_4">
     <path d="M 60.204688 98.614062 
L 169.778125 98.614062 
Q 171.778125 98.614062 171.778125 96.614062 
L 171.778125 40.225 
Q 171.778125 38.225 169.778125 38.225 
L 60.204688 38.225 
Q 58.204688 38.225 58.204688 40.225 
L 58.204688 96.614062 
Q 58.204688 98.614062 60.204688 98.614062 
z
" style="fill:#ffffff;opacity:0.8;stroke:#cccccc;stroke-linejoin:miter;"/>
    </g>
    <g id="line2d_33">
     <path d="M 62.204688 45.998437 
L 82.204688 45.998437 
" style="fill:none;stroke:#d4351c;stroke-linecap:square;stroke-width:2;"/>
    </g>
    <g id="line2d_34"/>
    <g id="text_17">
     <!-- Wales -->
     <g transform="translate(90.204688 49.498437)scale(0.1 -0.1)">
      <defs>
       <path d="M 1409 0 
L 136 4655 
L 709 4655 
L 1682 864 
L 1727 864 
L 2718 4655 
L 3355 4655 
L 4346 864 
L 4391 864 
L 5364 4655 
L 5936 4655 
L 4664 0 
L 4082 0 
L 3055 3709 
L 3018 3709 
L 1991 0 
L 1409 0 
z
" id="Inter-Regular-57" transform="scale(0.015625)"/>
      </defs>
      <use xlink:href="#Inter-Regular-57"/>
      <use x="94.886383" xlink:href="#Inter-Regular-61"/>
      <use x="151.278442" xlink:href="#Inter-Regular-6c"/>
      <use x="175.000031" xlink:href="#Inter-Regular-65"/>
      <use x="233.238678" xlink:href="#Inter-Regular-73"/>
     </g>
    </g>
    <g id="line2d_35">
     <path d="M 62.204688 60.317187 
L 82.204688 60.317187 
" style="fill:none;stroke:#003078;stroke-linecap:square;stroke-width:2;"/>
    </g>
    <g id="line2d_36"/>
    <g id="text_18">
     <!-- Scotland -->
     <g transform="translate(90.204688 63.817187)scale(0.1 -0.1)">
      <use xlink:href="#Inter-Regular-53"/>
      <use x="63.778427" xlink:href="#Inter-Regular-63"/>
      <use x="119.602295" xlink:href="#Inter-Regular-6f"/>
      <use x="179.261398" xlink:href="#Inter-Regular-74"/>
      <use x="215.625046" xlink:href="#Inter-Regular-6c"/>
      <use x="239.346634" xlink:href="#Inter-Regular-61"/>
      <use x="295.738693" xlink:href="#Inter-Regular-6e"/>
      <use x="354.261429" xlink:href="#Inter-Regular-64"/>
     </g>
    </g>
    <g id="line2d_37">
     <path d="M 62.204688 74.635937 
L 82.204688 74.635937 
" style="fill:none;stroke:#ffdd00;stroke-linecap:square;stroke-width:2;"/>
    </g>
    <g id="line2d_38"/>
    <g id="text_19">
     <!-- Northern Ireland -->
     <g transform="translate(90.204688 78.135937)scale(0.1 -0.1)">
      <defs>
       <path d="M 1027 2100 
L 1027 0 
L 491 0 
L 491 4655 
L 1027 4655 
L 1027 2945 
L 1073 2945 
Q 1196 3216 1442 3376 
Q 1689 3536 2100 3536 
Q 2636 3536 2963 3213 
Q 3291 2891 3291 2218 
L 3291 0 
L 2755 0 
L 2755 2182 
Q 2755 2598 2540 2826 
Q 2325 3055 1946 3055 
Q 1548 3055 1287 2806 
Q 1027 2557 1027 2100 
z
" id="Inter-Regular-68" transform="scale(0.015625)"/>
       <path d="M 1127 4655 
L 1127 0 
L 564 0 
L 564 4655 
L 1127 4655 
z
" id="Inter-Regular-49" transform="scale(0.015625)"/>
      </defs>
      <use xlink:href="#Inter-Regular-4e"/>
      <use x="75.284103" xlink:href="#Inter-Regular-6f"/>
      <use x="134.943207" xlink:href="#Inter-Regular-72"/>
      <use x="173.295486" xlink:href="#Inter-Regular-74"/>
      <use x="209.659134" xlink:href="#Inter-Regular-68"/>
      <use x="268.750061" xlink:href="#Inter-Regular-65"/>
      <use x="326.988708" xlink:href="#Inter-Regular-72"/>
      <use x="365.340988" xlink:href="#Inter-Regular-6e"/>
      <use x="423.863724" xlink:href="#Inter-Regular-20"/>
      <use x="451.988724" xlink:href="#Inter-Regular-49"/>
      <use x="478.40918" xlink:href="#Inter-Regular-72"/>
      <use x="516.761459" xlink:href="#Inter-Regular-65"/>
      <use x="575.000107" xlink:href="#Inter-Regular-6c"/>
      <use x="598.721695" xlink:href="#Inter-Regular-61"/>
      <use x="655.113754" xlink:href="#Inter-Regular-6e"/>
      <use x="713.63649" xlink:href="#Inter-Regular-64"/>
     </g>
    </g>
    <g id="line2d_39">
     <path d="M 62.204688 88.954687 
L 82.204688 88.954687 
" style="fill:none;stroke:#5694ca;stroke-linecap:square;stroke-width:2;"/>
    </g>
    <g id="line2d_40"/>
    <g id="text_20">
     <!-- England -->
     <g transform="translate(90.204688 92.454687)scale(0.1 -0.1)">
      <defs>
       <path d="M 564 0 
L 564 4655 
L 3373 4655 
L 3373 4155 
L 1127 4155 
L 1127 2582 
L 3227 2582 
L 3227 2082 
L 1127 2082 
L 1127 500 
L 3409 500 
L 3409 0 
L 564 0 
z
" id="Inter-Regular-45" transform="scale(0.015625)"/>
       <path d="M 1900 -1382 
Q 1316 -1382 976 -1169 
Q 636 -957 473 -682 
L 900 -382 
Q 973 -477 1084 -601 
Q 1196 -725 1390 -817 
Q 1584 -909 1900 -909 
Q 2323 -909 2598 -704 
Q 2873 -500 2873 -64 
L 2873 645 
L 2827 645 
Q 2768 550 2660 410 
Q 2552 270 2351 162 
Q 2150 55 1809 55 
Q 1386 55 1051 255 
Q 716 455 521 836 
Q 327 1218 327 1764 
Q 327 2300 516 2699 
Q 705 3098 1041 3317 
Q 1377 3536 1818 3536 
Q 2159 3536 2360 3423 
Q 2561 3311 2669 3169 
Q 2777 3027 2836 2936 
L 2891 2936 
L 2891 3491 
L 3409 3491 
L 3409 -100 
Q 3409 -550 3205 -833 
Q 3002 -1116 2660 -1249 
Q 2318 -1382 1900 -1382 
z
M 1882 536 
Q 2366 536 2624 864 
Q 2882 1193 2882 1773 
Q 2882 2339 2627 2697 
Q 2373 3055 1882 3055 
Q 1541 3055 1315 2882 
Q 1089 2709 976 2418 
Q 864 2127 864 1773 
Q 864 1227 1120 881 
Q 1377 536 1882 536 
z
" id="Inter-Regular-67" transform="scale(0.015625)"/>
      </defs>
      <use xlink:href="#Inter-Regular-45"/>
      <use x="59.801147" xlink:href="#Inter-Regular-6e"/>
      <use x="118.323883" xlink:href="#Inter-Regular-67"/>
      <use x="179.261398" xlink:href="#Inter-Regular-6c"/>
      <use x="202.982986" xlink:href="#Inter-Regular-61"/>
      <use x="259.375046" xlink:href="#Inter-Regular-6e"/>
      <use x="317.897781" xlink:href="#Inter-Regular-64"/>
     </g>
    </g>
   </g>
  </g>
 </g>
 <defs>
  <clipPath id="pf8d5103ddd">
   <rect height="443.52" width="669.6" x="53.204688" y="33.225"/>
  </clipPath>
 </defs>
</svg>
