<?xml version="1.0" encoding="utf-8" standalone="no"?>
<!DOCTYPE svg PUBLIC "-//W3C//DTD SVG 1.1//EN"
  "http://www.w3.org/Graphics/SVG/1.1/DTD/svg11.dtd">
<!-- Created with matplotlib (https://matplotlib.org/) -->
<svg version="1.1" viewBox="0 0 774.7125 511.27625" xmlns="http://www.w3.org/2000/svg" xmlns:xlink="http://www.w3.org/1999/xlink">
 <metadata>
  <rdf:RDF xmlns:cc="http://creativecommons.org/ns#" xmlns:dc="http://purl.org/dc/elements/1.1/" xmlns:rdf="http://www.w3.org/1999/02/22-rdf-syntax-ns#">
   <cc:Work>
    <dc:type rdf:resource="http://purl.org/dc/dcmitype/StillImage"/>
    <dc:date>2021-01-30T16:21:46.275334</dc:date>
    <dc:format>image/svg+xml</dc:format>
    <dc:creator>
     <cc:Agent>
      <dc:title>Matplotlib v3.3.4, https://matplotlib.org/</dc:title>
     </cc:Agent>
    </dc:creator>
   </cc:Work>
  </rdf:RDF>
 </metadata>
 <defs>
  <style type="text/css">*{stroke-linecap:butt;stroke-linejoin:round;}</style>
 </defs>
 <g id="figure_1">
  <g id="patch_1">
   <path d="M 0 511.27625 
L 774.7125 511.27625 
L 774.7125 0 
L 0 0 
z
" style="fill:#ffffff;"/>
  </g>
  <g id="axes_1">
   <g id="patch_2">
    <path d="M 87.1125 476.745 
L 756.7125 476.745 
L 756.7125 33.225 
L 87.1125 33.225 
z
" style="fill:#ffffff;"/>
   </g>
   <g id="matplotlib.axis_1">
    <g id="xtick_1">
     <g id="line2d_1">
      <defs>
       <path d="M 0 0 
L 0 3.5 
" id="m2ed4c71186" style="stroke:#000000;stroke-width:0.8;"/>
      </defs>
      <g>
       <use style="stroke:#000000;stroke-width:0.8;" x="87.1125" xlink:href="#m2ed4c71186" y="476.745"/>
      </g>
     </g>
     <g id="text_1">
      <!-- 01 Mar -->
      <g transform="translate(71.075781 491.018438)scale(0.1 -0.1)">
       <defs>
        <path d="M 31.25 -1 
Q 19.21875 -1 12.59375 8.765625 
Q 5.96875 18.53125 5.96875 36.359375 
Q 5.96875 54.046875 12.640625 63.875 
Q 19.3125 73.71875 31.25 73.71875 
Q 43.1875 73.71875 49.859375 63.875 
Q 56.53125 54.046875 56.53125 36.359375 
Q 56.53125 18.53125 49.90625 8.765625 
Q 43.296875 -1 31.25 -1 
z
M 31.25 6.8125 
Q 39.203125 6.8125 43.609375 14.484375 
Q 48.015625 22.15625 48.015625 36.359375 
Q 48.015625 50.53125 43.578125 58.28125 
Q 39.140625 66.046875 31.25 66.046875 
Q 23.375 66.046875 18.921875 58.28125 
Q 14.484375 50.53125 14.484375 36.359375 
Q 14.484375 22.15625 18.90625 14.484375 
Q 23.328125 6.8125 31.25 6.8125 
z
" id="Inter-Regular-48"/>
        <path d="M 30.828125 72.734375 
L 30.828125 0 
L 22.015625 0 
L 22.015625 59.9375 
L 21.453125 59.9375 
Q 20.953125 58.953125 18.890625 57.6875 
Q 16.828125 56.421875 13.5625 55.484375 
Q 10.296875 54.546875 6.109375 54.546875 
L 6.109375 61.9375 
Q 10.328125 61.9375 13.421875 63.453125 
Q 16.515625 64.984375 18.59375 67.046875 
Q 20.671875 69.109375 21.75 70.765625 
Q 22.828125 72.4375 23.015625 72.734375 
z
" id="Inter-Regular-49"/>
        <path id="Inter-Regular-32"/>
        <path d="M 8.8125 72.734375 
L 19.3125 72.734375 
L 44.03125 12.359375 
L 44.890625 12.359375 
L 69.609375 72.734375 
L 80.109375 72.734375 
L 80.109375 0 
L 71.875 0 
L 71.875 55.25 
L 71.171875 55.25 
L 48.4375 0 
L 40.484375 0 
L 17.75 55.25 
L 17.046875 55.25 
L 17.046875 0 
L 8.8125 0 
z
" id="Inter-Regular-77"/>
        <path d="M 23.71875 -1.28125 
Q 18.53125 -1.28125 14.3125 0.6875 
Q 10.09375 2.65625 7.59375 6.40625 
Q 5.109375 10.15625 5.109375 15.484375 
Q 5.109375 20.171875 6.953125 23.09375 
Q 8.8125 26.03125 11.890625 27.703125 
Q 14.984375 29.375 18.734375 30.203125 
Q 22.484375 31.03125 26.28125 31.53125 
Q 31.25 32.171875 34.359375 32.5 
Q 37.46875 32.84375 38.90625 33.65625 
Q 40.34375 34.484375 40.34375 36.5 
L 40.34375 36.796875 
Q 40.34375 42.046875 37.484375 44.953125 
Q 34.625 47.875 28.84375 47.875 
Q 22.828125 47.875 19.421875 45.234375 
Q 16.015625 42.609375 14.625 39.625 
L 6.671875 42.46875 
Q 8.8125 47.4375 12.375 50.21875 
Q 15.953125 53.015625 20.1875 54.125 
Q 24.4375 55.25 28.546875 55.25 
Q 31.1875 55.25 34.609375 54.625 
Q 38.03125 54.015625 41.25 52.09375 
Q 44.46875 50.171875 46.59375 46.296875 
Q 48.71875 42.4375 48.71875 35.9375 
L 48.71875 0 
L 40.34375 0 
L 40.34375 7.390625 
L 39.921875 7.390625 
Q 39.0625 5.609375 37.078125 3.578125 
Q 35.09375 1.5625 31.78125 0.140625 
Q 28.484375 -1.28125 23.71875 -1.28125 
z
M 25 6.25 
Q 29.96875 6.25 33.390625 8.203125 
Q 36.828125 10.15625 38.578125 13.234375 
Q 40.34375 16.328125 40.34375 19.75 
L 40.34375 27.421875 
Q 39.8125 26.78125 38.015625 26.265625 
Q 36.21875 25.75 33.890625 25.375 
Q 31.578125 25 29.390625 24.734375 
Q 27.203125 24.46875 25.859375 24.296875 
Q 22.59375 23.859375 19.765625 22.921875 
Q 16.9375 21.984375 15.21875 20.109375 
Q 13.5 18.25 13.5 15.0625 
Q 13.5 10.6875 16.75 8.46875 
Q 20 6.25 25 6.25 
z
" id="Inter-Regular-97"/>
        <path d="M 7.671875 0 
L 7.671875 54.546875 
L 15.765625 54.546875 
L 15.765625 46.3125 
L 16.34375 46.3125 
Q 17.796875 50.359375 21.703125 52.875 
Q 25.609375 55.390625 30.546875 55.390625 
Q 32.8125 55.390625 34.515625 54.859375 
Q 36.21875 54.328125 37.5 53.40625 
L 34.65625 46.3125 
Q 33.765625 46.765625 32.578125 47.03125 
Q 31.390625 47.296875 29.828125 47.296875 
Q 23.859375 47.296875 19.953125 43.65625 
Q 16.046875 40.015625 16.046875 34.515625 
L 16.046875 0 
z
" id="Inter-Regular-114"/>
       </defs>
       <use xlink:href="#Inter-Regular-48"/>
       <use x="62.500015" xlink:href="#Inter-Regular-49"/>
       <use x="106.676163" xlink:href="#Inter-Regular-32"/>
       <use x="134.801163" xlink:href="#Inter-Regular-77"/>
       <use x="225.99437" xlink:href="#Inter-Regular-97"/>
       <use x="282.386429" xlink:href="#Inter-Regular-114"/>
      </g>
     </g>
    </g>
    <g id="xtick_2">
     <g id="line2d_2">
      <g>
       <use style="stroke:#000000;stroke-width:0.8;" x="148.949824" xlink:href="#m2ed4c71186" y="476.745"/>
      </g>
     </g>
     <g id="text_2">
      <!-- 01 Apr -->
      <g transform="translate(133.864668 491.116875)scale(0.1 -0.1)">
       <defs>
        <path d="M 11.796875 0 
L 2.5625 0 
L 29.265625 72.734375 
L 38.359375 72.734375 
L 65.0625 0 
L 55.828125 0 
L 48.515625 20.59375 
L 19.109375 20.59375 
z
M 21.875 28.40625 
L 45.734375 28.40625 
L 34.09375 61.21875 
L 33.53125 61.21875 
z
" id="Inter-Regular-65"/>
        <path d="M 7.671875 -20.453125 
L 7.671875 54.546875 
L 15.765625 54.546875 
L 15.765625 45.875 
L 16.765625 45.875 
Q 17.6875 47.296875 19.328125 49.515625 
Q 20.984375 51.734375 24.09375 53.484375 
Q 27.203125 55.25 32.53125 55.25 
Q 39.421875 55.25 44.671875 51.796875 
Q 49.9375 48.359375 52.875 42.03125 
Q 55.828125 35.71875 55.828125 27.125 
Q 55.828125 18.46875 52.875 12.125 
Q 49.9375 5.78125 44.703125 2.3125 
Q 39.484375 -1.140625 32.671875 -1.140625 
Q 27.421875 -1.140625 24.25 0.609375 
Q 21.09375 2.375 19.390625 4.625 
Q 17.6875 6.890625 16.765625 8.375 
L 16.046875 8.375 
L 16.046875 -20.453125 
z
M 15.90625 27.265625 
Q 15.90625 18 19.9375 12.1875 
Q 23.96875 6.390625 31.53125 6.390625 
Q 36.796875 6.390625 40.328125 9.171875 
Q 43.859375 11.96875 45.640625 16.703125 
Q 47.4375 21.453125 47.4375 27.265625 
Q 47.4375 33.03125 45.671875 37.65625 
Q 43.921875 42.296875 40.390625 45.015625 
Q 36.859375 47.734375 31.53125 47.734375 
Q 23.859375 47.734375 19.875 42.078125 
Q 15.90625 36.4375 15.90625 27.265625 
z
" id="Inter-Regular-112"/>
       </defs>
       <use xlink:href="#Inter-Regular-48"/>
       <use x="62.500015" xlink:href="#Inter-Regular-49"/>
       <use x="106.676163" xlink:href="#Inter-Regular-32"/>
       <use x="134.801163" xlink:href="#Inter-Regular-65"/>
       <use x="202.41481" xlink:href="#Inter-Regular-112"/>
       <use x="263.352325" xlink:href="#Inter-Regular-114"/>
      </g>
     </g>
    </g>
    <g id="xtick_3">
     <g id="line2d_3">
      <g>
       <use style="stroke:#000000;stroke-width:0.8;" x="208.792395" xlink:href="#m2ed4c71186" y="476.745"/>
      </g>
     </g>
     <g id="text_3">
      <!-- 01 May -->
      <g transform="translate(191.88927 491.116875)scale(0.1 -0.1)">
       <defs>
        <path d="M 12.78125 -21.171875 
Q 10.65625 -21.171875 8.984375 -20.828125 
Q 7.3125 -20.484375 6.671875 -20.171875 
L 8.8125 -12.78125 
Q 13.390625 -13.953125 16.453125 -12.71875 
Q 19.53125 -11.5 21.734375 -5.390625 
L 23.578125 -0.28125 
L 3.40625 54.546875 
L 12.5 54.546875 
L 27.5625 11.078125 
L 28.125 11.078125 
L 43.1875 54.546875 
L 52.28125 54.546875 
L 28.84375 -8.8125 
Q 24.21875 -21.171875 12.78125 -21.171875 
z
" id="Inter-Regular-121"/>
       </defs>
       <use xlink:href="#Inter-Regular-48"/>
       <use x="62.500015" xlink:href="#Inter-Regular-49"/>
       <use x="106.676163" xlink:href="#Inter-Regular-32"/>
       <use x="134.801163" xlink:href="#Inter-Regular-77"/>
       <use x="225.99437" xlink:href="#Inter-Regular-97"/>
       <use x="282.386429" xlink:href="#Inter-Regular-121"/>
      </g>
     </g>
    </g>
    <g id="xtick_4">
     <g id="line2d_4">
      <g>
       <use style="stroke:#000000;stroke-width:0.8;" x="270.629719" xlink:href="#m2ed4c71186" y="476.745"/>
      </g>
     </g>
     <g id="text_4">
      <!-- 01 Jun -->
      <g transform="translate(255.345344 491.018438)scale(0.1 -0.1)">
       <defs>
        <path d="M 36.65625 72.734375 
L 45.453125 72.734375 
L 45.453125 20.734375 
Q 45.453125 10.265625 39.828125 4.625 
Q 34.203125 -1 24.71875 -1 
Q 18.75 -1 14.09375 1.1875 
Q 9.453125 3.375 6.78125 7.421875 
Q 4.125 11.46875 4.125 17.046875 
L 12.78125 17.046875 
Q 12.78125 12.421875 16.15625 9.609375 
Q 19.53125 6.8125 24.71875 6.8125 
Q 30.4375 6.8125 33.546875 10.375 
Q 36.65625 13.953125 36.65625 20.734375 
z
" id="Inter-Regular-74"/>
        <path d="M 42.046875 22.296875 
L 42.046875 54.546875 
L 50.421875 54.546875 
L 50.421875 0 
L 42.046875 0 
L 42.046875 9.234375 
L 41.484375 9.234375 
Q 39.5625 5.078125 35.515625 2.1875 
Q 31.46875 -0.703125 25.28125 -0.703125 
Q 17.609375 -0.703125 12.640625 4.375 
Q 7.671875 9.453125 7.671875 19.890625 
L 7.671875 54.546875 
L 16.046875 54.546875 
L 16.046875 20.453125 
Q 16.046875 14.484375 19.40625 10.9375 
Q 22.765625 7.390625 27.984375 7.390625 
Q 31.109375 7.390625 34.359375 8.984375 
Q 37.609375 10.578125 39.828125 13.875 
Q 42.046875 17.1875 42.046875 22.296875 
z
" id="Inter-Regular-117"/>
        <path d="M 16.046875 32.8125 
L 16.046875 0 
L 7.671875 0 
L 7.671875 54.546875 
L 15.765625 54.546875 
L 15.765625 46.015625 
L 16.484375 46.015625 
Q 18.390625 50.171875 22.296875 52.703125 
Q 26.203125 55.25 32.390625 55.25 
Q 40.65625 55.25 45.75 50.171875 
Q 50.859375 45.09375 50.859375 34.65625 
L 50.859375 0 
L 42.46875 0 
L 42.46875 34.09375 
Q 42.46875 40.515625 39.125 44.125 
Q 35.796875 47.734375 29.96875 47.734375 
Q 23.96875 47.734375 20 43.84375 
Q 16.046875 39.953125 16.046875 32.8125 
z
" id="Inter-Regular-110"/>
       </defs>
       <use xlink:href="#Inter-Regular-48"/>
       <use x="62.500015" xlink:href="#Inter-Regular-49"/>
       <use x="106.676163" xlink:href="#Inter-Regular-32"/>
       <use x="134.801163" xlink:href="#Inter-Regular-74"/>
       <use x="189.062531" xlink:href="#Inter-Regular-117"/>
       <use x="247.159134" xlink:href="#Inter-Regular-110"/>
      </g>
     </g>
    </g>
    <g id="xtick_5">
     <g id="line2d_5">
      <g>
       <use style="stroke:#000000;stroke-width:0.8;" x="330.472291" xlink:href="#m2ed4c71186" y="476.745"/>
      </g>
     </g>
     <g id="text_5">
      <!-- 01 Jul -->
      <g transform="translate(316.928541 491.018438)scale(0.1 -0.1)">
       <defs>
        <path d="M 16.046875 72.734375 
L 16.046875 0 
L 7.671875 0 
L 7.671875 72.734375 
z
" id="Inter-Regular-108"/>
       </defs>
       <use xlink:href="#Inter-Regular-48"/>
       <use x="62.500015" xlink:href="#Inter-Regular-49"/>
       <use x="106.676163" xlink:href="#Inter-Regular-32"/>
       <use x="134.801163" xlink:href="#Inter-Regular-74"/>
       <use x="189.062531" xlink:href="#Inter-Regular-117"/>
       <use x="247.159134" xlink:href="#Inter-Regular-108"/>
      </g>
     </g>
    </g>
    <g id="xtick_6">
     <g id="line2d_6">
      <g>
       <use style="stroke:#000000;stroke-width:0.8;" x="392.309615" xlink:href="#m2ed4c71186" y="476.745"/>
      </g>
     </g>
     <g id="text_6">
      <!-- 01 Aug -->
      <g transform="translate(376.23774 491.116875)scale(0.1 -0.1)">
       <defs>
        <path d="M 29.6875 -21.59375 
Q 20.5625 -21.59375 15.25 -18.265625 
Q 9.9375 -14.953125 7.390625 -10.65625 
L 14.0625 -5.96875 
Q 15.203125 -7.453125 16.9375 -9.390625 
Q 18.6875 -11.328125 21.71875 -12.765625 
Q 24.75 -14.203125 29.6875 -14.203125 
Q 36.296875 -14.203125 40.59375 -11 
Q 44.890625 -7.8125 44.890625 -1 
L 44.890625 10.078125 
L 44.171875 10.078125 
Q 43.25 8.59375 41.5625 6.40625 
Q 39.875 4.21875 36.734375 2.53125 
Q 33.59375 0.859375 28.265625 0.859375 
Q 21.65625 0.859375 16.421875 3.984375 
Q 11.1875 7.109375 8.140625 13.0625 
Q 5.109375 19.03125 5.109375 27.5625 
Q 5.109375 35.9375 8.0625 42.171875 
Q 11.015625 48.40625 16.265625 51.828125 
Q 21.515625 55.25 28.40625 55.25 
Q 33.734375 55.25 36.875 53.484375 
Q 40.015625 51.734375 41.703125 49.515625 
Q 43.390625 47.296875 44.3125 45.875 
L 45.171875 45.875 
L 45.171875 54.546875 
L 53.265625 54.546875 
L 53.265625 -1.5625 
Q 53.265625 -8.59375 50.078125 -13.015625 
Q 46.90625 -17.4375 41.5625 -19.515625 
Q 36.21875 -21.59375 29.6875 -21.59375 
z
M 29.40625 8.375 
Q 36.96875 8.375 41 13.5 
Q 45.03125 18.640625 45.03125 27.703125 
Q 45.03125 36.546875 41.046875 42.140625 
Q 37.078125 47.734375 29.40625 47.734375 
Q 24.078125 47.734375 20.546875 45.03125 
Q 17.015625 42.328125 15.25 37.78125 
Q 13.5 33.234375 13.5 27.703125 
Q 13.5 19.171875 17.5 13.765625 
Q 21.515625 8.375 29.40625 8.375 
z
" id="Inter-Regular-103"/>
       </defs>
       <use xlink:href="#Inter-Regular-48"/>
       <use x="62.500015" xlink:href="#Inter-Regular-49"/>
       <use x="106.676163" xlink:href="#Inter-Regular-32"/>
       <use x="134.801163" xlink:href="#Inter-Regular-65"/>
       <use x="202.41481" xlink:href="#Inter-Regular-117"/>
       <use x="260.511414" xlink:href="#Inter-Regular-103"/>
      </g>
     </g>
    </g>
    <g id="xtick_7">
     <g id="line2d_7">
      <g>
       <use style="stroke:#000000;stroke-width:0.8;" x="454.146939" xlink:href="#m2ed4c71186" y="476.745"/>
      </g>
     </g>
     <g id="text_7">
      <!-- 01 Sep -->
      <g transform="translate(438.259439 491.116875)scale(0.1 -0.1)">
       <defs>
        <path d="M 48.578125 54.546875 
Q 47.9375 59.9375 43.390625 62.921875 
Q 38.84375 65.90625 32.25 65.90625 
Q 25 65.90625 20.59375 62.484375 
Q 16.1875 59.0625 16.1875 53.828125 
Q 16.1875 49.921875 18.578125 47.53125 
Q 20.984375 45.140625 24.265625 43.796875 
Q 27.5625 42.46875 30.25 41.765625 
L 37.640625 39.765625 
Q 40.484375 39.03125 43.984375 37.71875 
Q 47.484375 36.40625 50.6875 34.140625 
Q 53.90625 31.890625 56 28.375 
Q 58.09375 24.859375 58.09375 19.75 
Q 58.09375 13.84375 55.015625 9.078125 
Q 51.953125 4.328125 46.078125 1.515625 
Q 40.203125 -1.28125 31.8125 -1.28125 
Q 20.09375 -1.28125 13.203125 4.25 
Q 6.328125 9.796875 5.6875 18.75 
L 14.78125 18.75 
Q 15.125 14.625 17.5625 11.9375 
Q 20 9.265625 23.734375 7.96875 
Q 27.484375 6.671875 31.8125 6.671875 
Q 36.859375 6.671875 40.875 8.328125 
Q 44.890625 9.984375 47.234375 12.9375 
Q 49.578125 15.90625 49.578125 19.890625 
Q 49.578125 23.515625 47.546875 25.78125 
Q 45.53125 28.046875 42.21875 29.46875 
Q 38.921875 30.890625 35.09375 31.953125 
L 26.140625 34.515625 
Q 17.609375 36.96875 12.640625 41.515625 
Q 7.671875 46.0625 7.671875 53.40625 
Q 7.671875 59.515625 10.984375 64.078125 
Q 14.3125 68.640625 19.9375 71.171875 
Q 25.5625 73.71875 32.53125 73.71875 
Q 39.5625 73.71875 45.03125 71.21875 
Q 50.5 68.71875 53.703125 64.375 
Q 56.921875 60.046875 57.109375 54.546875 
z
" id="Inter-Regular-83"/>
        <path d="M 30.546875 -1.140625 
Q 22.65625 -1.140625 16.953125 2.359375 
Q 11.265625 5.859375 8.1875 12.15625 
Q 5.109375 18.46875 5.109375 26.84375 
Q 5.109375 35.234375 8.1875 41.640625 
Q 11.265625 48.046875 16.78125 51.640625 
Q 22.296875 55.25 29.6875 55.25 
Q 33.953125 55.25 38.109375 53.828125 
Q 42.265625 52.421875 45.671875 49.234375 
Q 49.078125 46.0625 51.09375 40.84375 
Q 53.125 35.625 53.125 27.984375 
L 53.125 24.4375 
L 13.53125 24.4375 
Q 13.8125 15.703125 18.484375 11.046875 
Q 23.15625 6.390625 30.546875 6.390625 
Q 35.484375 6.390625 39.03125 8.515625 
Q 42.578125 10.65625 44.171875 14.921875 
L 52.28125 12.640625 
Q 50.359375 6.46875 44.59375 2.65625 
Q 38.84375 -1.140625 30.546875 -1.140625 
z
M 13.53125 31.671875 
L 44.609375 31.671875 
Q 44.609375 38.59375 40.546875 43.15625 
Q 36.5 47.734375 29.6875 47.734375 
Q 24.890625 47.734375 21.375 45.484375 
Q 17.859375 43.25 15.828125 39.578125 
Q 13.8125 35.90625 13.53125 31.671875 
z
" id="Inter-Regular-101"/>
       </defs>
       <use xlink:href="#Inter-Regular-48"/>
       <use x="62.500015" xlink:href="#Inter-Regular-49"/>
       <use x="106.676163" xlink:href="#Inter-Regular-32"/>
       <use x="134.801163" xlink:href="#Inter-Regular-83"/>
       <use x="198.57959" xlink:href="#Inter-Regular-101"/>
       <use x="256.818237" xlink:href="#Inter-Regular-112"/>
      </g>
     </g>
    </g>
    <g id="xtick_8">
     <g id="line2d_8">
      <g>
       <use style="stroke:#000000;stroke-width:0.8;" x="513.98951" xlink:href="#m2ed4c71186" y="476.745"/>
      </g>
     </g>
     <g id="text_8">
      <!-- 01 Oct -->
      <g transform="translate(498.83326 491.018438)scale(0.1 -0.1)">
       <defs>
        <path d="M 70.171875 36.359375 
Q 70.171875 24.859375 66.015625 16.46875 
Q 61.859375 8.09375 54.609375 3.546875 
Q 47.375 -1 38.0625 -1 
Q 28.765625 -1 21.515625 3.546875 
Q 14.28125 8.09375 10.125 16.46875 
Q 5.96875 24.859375 5.96875 36.359375 
Q 5.96875 47.875 10.125 56.25 
Q 14.28125 64.625 21.515625 69.171875 
Q 28.765625 73.71875 38.0625 73.71875 
Q 47.375 73.71875 54.609375 69.171875 
Q 61.859375 64.625 66.015625 56.25 
Q 70.171875 47.875 70.171875 36.359375 
z
M 61.65625 36.359375 
Q 61.65625 45.8125 58.5 52.3125 
Q 55.359375 58.8125 50.015625 62.140625 
Q 44.671875 65.484375 38.0625 65.484375 
Q 31.46875 65.484375 26.125 62.140625 
Q 20.78125 58.8125 17.625 52.3125 
Q 14.484375 45.8125 14.484375 36.359375 
Q 14.484375 26.921875 17.625 20.421875 
Q 20.78125 13.921875 26.125 10.578125 
Q 31.46875 7.25 38.0625 7.25 
Q 44.671875 7.25 50.015625 10.578125 
Q 55.359375 13.921875 58.5 20.421875 
Q 61.65625 26.921875 61.65625 36.359375 
z
" id="Inter-Regular-79"/>
        <path d="M 29.828125 -1.140625 
Q 22.15625 -1.140625 16.609375 2.484375 
Q 11.078125 6.109375 8.09375 12.46875 
Q 5.109375 18.828125 5.109375 26.984375 
Q 5.109375 35.296875 8.1875 41.671875 
Q 11.265625 48.046875 16.78125 51.640625 
Q 22.296875 55.25 29.6875 55.25 
Q 35.4375 55.25 40.046875 53.125 
Q 44.671875 51 47.609375 47.15625 
Q 50.5625 43.328125 51.28125 38.203125 
L 42.90625 38.203125 
Q 41.9375 41.9375 38.65625 44.828125 
Q 35.375 47.734375 29.828125 47.734375 
Q 22.484375 47.734375 17.984375 42.140625 
Q 13.5 36.546875 13.5 27.265625 
Q 13.5 17.796875 17.9375 12.09375 
Q 22.375 6.390625 29.828125 6.390625 
Q 34.734375 6.390625 38.234375 8.90625 
Q 41.734375 11.4375 42.90625 15.90625 
L 51.28125 15.90625 
Q 50.5625 11.078125 47.78125 7.21875 
Q 45 3.375 40.4375 1.109375 
Q 35.875 -1.140625 29.828125 -1.140625 
z
" id="Inter-Regular-99"/>
        <path d="M 31.390625 54.546875 
L 31.390625 47.4375 
L 19.75 47.4375 
L 19.75 15.625 
Q 19.75 12.078125 20.796875 10.3125 
Q 21.84375 8.5625 23.484375 7.96875 
Q 25.140625 7.390625 26.984375 7.390625 
Q 28.375 7.390625 29.265625 7.546875 
Q 30.15625 7.703125 30.6875 7.8125 
L 32.390625 0.28125 
Q 31.53125 -0.03125 30 -0.359375 
Q 28.484375 -0.703125 26.140625 -0.703125 
Q 22.59375 -0.703125 19.1875 0.8125 
Q 15.796875 2.34375 13.578125 5.46875 
Q 11.359375 8.59375 11.359375 13.359375 
L 11.359375 47.4375 
L 3.125 47.4375 
L 3.125 54.546875 
L 11.359375 54.546875 
L 11.359375 67.609375 
L 19.75 67.609375 
L 19.75 54.546875 
z
" id="Inter-Regular-116"/>
       </defs>
       <use xlink:href="#Inter-Regular-48"/>
       <use x="62.500015" xlink:href="#Inter-Regular-49"/>
       <use x="106.676163" xlink:href="#Inter-Regular-32"/>
       <use x="134.801163" xlink:href="#Inter-Regular-79"/>
       <use x="210.937546" xlink:href="#Inter-Regular-99"/>
       <use x="266.761414" xlink:href="#Inter-Regular-116"/>
      </g>
     </g>
    </g>
    <g id="xtick_9">
     <g id="line2d_9">
      <g>
       <use style="stroke:#000000;stroke-width:0.8;" x="575.826834" xlink:href="#m2ed4c71186" y="476.745"/>
      </g>
     </g>
     <g id="text_9">
      <!-- 01 Nov -->
      <g transform="translate(559.55574 491.018438)scale(0.1 -0.1)">
       <defs>
        <path d="M 66.484375 72.734375 
L 66.484375 0 
L 57.953125 0 
L 18.328125 57.109375 
L 17.609375 57.109375 
L 17.609375 0 
L 8.8125 0 
L 8.8125 72.734375 
L 17.328125 72.734375 
L 57.109375 15.484375 
L 57.8125 15.484375 
L 57.8125 72.734375 
z
" id="Inter-Regular-78"/>
        <path d="M 29.828125 -1.140625 
Q 22.4375 -1.140625 16.875 2.375 
Q 11.328125 5.890625 8.21875 12.203125 
Q 5.109375 18.53125 5.109375 26.984375 
Q 5.109375 35.515625 8.21875 41.859375 
Q 11.328125 48.21875 16.875 51.734375 
Q 22.4375 55.25 29.828125 55.25 
Q 37.21875 55.25 42.765625 51.734375 
Q 48.328125 48.21875 51.4375 41.859375 
Q 54.546875 35.515625 54.546875 26.984375 
Q 54.546875 18.53125 51.4375 12.203125 
Q 48.328125 5.890625 42.765625 2.375 
Q 37.21875 -1.140625 29.828125 -1.140625 
z
M 29.828125 6.390625 
Q 35.4375 6.390625 39.0625 9.265625 
Q 42.6875 12.140625 44.421875 16.828125 
Q 46.171875 21.515625 46.171875 26.984375 
Q 46.171875 32.453125 44.421875 37.171875 
Q 42.6875 41.90625 39.0625 44.8125 
Q 35.4375 47.734375 29.828125 47.734375 
Q 24.21875 47.734375 20.59375 44.8125 
Q 16.96875 41.90625 15.234375 37.171875 
Q 13.5 32.453125 13.5 26.984375 
Q 13.5 21.515625 15.234375 16.828125 
Q 16.96875 12.140625 20.59375 9.265625 
Q 24.21875 6.390625 29.828125 6.390625 
z
" id="Inter-Regular-111"/>
        <path d="M 52.28125 54.546875 
L 32.109375 0 
L 23.578125 0 
L 3.40625 54.546875 
L 12.5 54.546875 
L 27.5625 11.078125 
L 28.125 11.078125 
L 43.1875 54.546875 
z
" id="Inter-Regular-118"/>
       </defs>
       <use xlink:href="#Inter-Regular-48"/>
       <use x="62.500015" xlink:href="#Inter-Regular-49"/>
       <use x="106.676163" xlink:href="#Inter-Regular-32"/>
       <use x="134.801163" xlink:href="#Inter-Regular-78"/>
       <use x="210.085266" xlink:href="#Inter-Regular-111"/>
       <use x="269.74437" xlink:href="#Inter-Regular-118"/>
      </g>
     </g>
    </g>
    <g id="xtick_10">
     <g id="line2d_10">
      <g>
       <use style="stroke:#000000;stroke-width:0.8;" x="635.669405" xlink:href="#m2ed4c71186" y="476.745"/>
      </g>
     </g>
     <g id="text_10">
      <!-- 01 Dec -->
      <g transform="translate(619.632687 491.018438)scale(0.1 -0.1)">
       <defs>
        <path d="M 31.25 0 
L 8.8125 0 
L 8.8125 72.734375 
L 32.25 72.734375 
Q 42.828125 72.734375 50.359375 68.375 
Q 57.890625 64.03125 61.890625 55.90625 
Q 65.90625 47.796875 65.90625 36.5 
Q 65.90625 25.140625 61.859375 16.953125 
Q 57.8125 8.765625 50.0625 4.375 
Q 42.328125 0 31.25 0 
z
M 17.609375 7.8125 
L 30.6875 7.8125 
Q 44.21875 7.8125 50.796875 15.5 
Q 57.390625 23.1875 57.390625 36.5 
Q 57.390625 49.71875 50.921875 57.3125 
Q 44.46875 64.921875 31.671875 64.921875 
L 17.609375 64.921875 
z
" id="Inter-Regular-68"/>
       </defs>
       <use xlink:href="#Inter-Regular-48"/>
       <use x="62.500015" xlink:href="#Inter-Regular-49"/>
       <use x="106.676163" xlink:href="#Inter-Regular-32"/>
       <use x="134.801163" xlink:href="#Inter-Regular-68"/>
       <use x="206.676178" xlink:href="#Inter-Regular-101"/>
       <use x="264.914825" xlink:href="#Inter-Regular-99"/>
      </g>
     </g>
    </g>
    <g id="xtick_11">
     <g id="line2d_11">
      <g>
       <use style="stroke:#000000;stroke-width:0.8;" x="697.506729" xlink:href="#m2ed4c71186" y="476.745"/>
      </g>
     </g>
     <g id="text_11">
      <!-- 01 Jan -->
      <g transform="translate(682.307511 491.018438)scale(0.1 -0.1)">
       <use xlink:href="#Inter-Regular-48"/>
       <use x="62.500015" xlink:href="#Inter-Regular-49"/>
       <use x="106.676163" xlink:href="#Inter-Regular-32"/>
       <use x="134.801163" xlink:href="#Inter-Regular-74"/>
       <use x="189.062531" xlink:href="#Inter-Regular-97"/>
       <use x="245.45459" xlink:href="#Inter-Regular-110"/>
      </g>
     </g>
    </g>
   </g>
   <g id="matplotlib.axis_2">
    <g id="ytick_1">
     <g id="line2d_12">
      <path clip-path="url(#p91e0b7cf58)" d="M 87.1125 476.745 
L 756.7125 476.745 
" style="fill:none;stroke:#e5e5e5;stroke-linecap:square;stroke-width:0.8;"/>
     </g>
     <g id="line2d_13">
      <defs>
       <path d="M 0 0 
L -3.5 0 
" id="m42e302fb16" style="stroke:#000000;stroke-width:0.8;"/>
      </defs>
      <g>
       <use style="stroke:#000000;stroke-width:0.8;" x="87.1125" xlink:href="#m42e302fb16" y="476.745"/>
      </g>
     </g>
     <g id="text_12">
      <!-- 0.00000% -->
      <g transform="translate(31.73125 480.381719)scale(0.1 -0.1)">
       <defs>
        <path d="M 13.78125 -0.5625 
Q 11.15625 -0.5625 9.265625 1.3125 
Q 7.390625 3.203125 7.390625 5.828125 
Q 7.390625 8.453125 9.265625 10.328125 
Q 11.15625 12.21875 13.78125 12.21875 
Q 16.40625 12.21875 18.28125 10.328125 
Q 20.171875 8.453125 20.171875 5.828125 
Q 20.171875 3.203125 18.28125 1.3125 
Q 16.40625 -0.5625 13.78125 -0.5625 
z
" id="Inter-Regular-46"/>
        <path d="M 44.609375 13.640625 
L 44.609375 17.46875 
Q 44.609375 21.453125 46.25 24.765625 
Q 47.90625 28.09375 51.078125 30.09375 
Q 54.265625 32.109375 58.8125 32.109375 
Q 63.421875 32.109375 66.546875 30.09375 
Q 69.671875 28.09375 71.265625 24.765625 
Q 72.875 21.453125 72.875 17.46875 
L 72.875 13.640625 
Q 72.875 9.65625 71.25 6.328125 
Q 69.640625 3.015625 66.5 1 
Q 63.359375 -1 58.8125 -1 
Q 54.1875 -1 51.03125 1 
Q 47.875 3.015625 46.234375 6.328125 
Q 44.609375 9.65625 44.609375 13.640625 
z
M 8.375 55.25 
L 8.375 59.09375 
Q 8.375 63.0625 10.03125 66.375 
Q 11.6875 69.703125 14.859375 71.703125 
Q 18.046875 73.71875 22.59375 73.71875 
Q 27.203125 73.71875 30.328125 71.703125 
Q 33.453125 69.703125 35.046875 66.375 
Q 36.65625 63.0625 36.65625 59.09375 
L 36.65625 55.25 
Q 36.65625 51.28125 35.03125 47.953125 
Q 33.421875 44.640625 30.265625 42.625 
Q 27.125 40.625 22.59375 40.625 
Q 17.96875 40.625 14.8125 42.625 
Q 11.65625 44.640625 10.015625 47.953125 
Q 8.375 51.28125 8.375 55.25 
z
M 11.078125 0 
L 61.078125 72.734375 
L 69.171875 72.734375 
L 19.171875 0 
z
M 51.84375 17.46875 
L 51.84375 13.640625 
Q 51.84375 10.328125 53.40625 7.71875 
Q 54.96875 5.109375 58.8125 5.109375 
Q 62.53125 5.109375 64.078125 7.71875 
Q 65.625 10.328125 65.625 13.640625 
L 65.625 17.46875 
Q 65.625 20.78125 64.125 23.390625 
Q 62.640625 26 58.8125 26 
Q 55.078125 26 53.453125 23.390625 
Q 51.84375 20.78125 51.84375 17.46875 
z
M 15.625 59.09375 
L 15.625 55.25 
Q 15.625 51.953125 17.1875 49.34375 
Q 18.75 46.734375 22.59375 46.734375 
Q 26.3125 46.734375 27.859375 49.34375 
Q 29.40625 51.953125 29.40625 55.25 
L 29.40625 59.09375 
Q 29.40625 62.390625 27.90625 65 
Q 26.421875 67.609375 22.59375 67.609375 
Q 18.859375 67.609375 17.234375 65 
Q 15.625 62.390625 15.625 59.09375 
z
" id="Inter-Regular-37"/>
       </defs>
       <use xlink:href="#Inter-Regular-48"/>
       <use x="62.500015" xlink:href="#Inter-Regular-46"/>
       <use x="90.056839" xlink:href="#Inter-Regular-48"/>
       <use x="152.556854" xlink:href="#Inter-Regular-48"/>
       <use x="215.05687" xlink:href="#Inter-Regular-48"/>
       <use x="277.556885" xlink:href="#Inter-Regular-48"/>
       <use x="340.0569" xlink:href="#Inter-Regular-48"/>
       <use x="402.556915" xlink:href="#Inter-Regular-37"/>
      </g>
     </g>
    </g>
    <g id="ytick_2">
     <g id="line2d_14">
      <path clip-path="url(#p91e0b7cf58)" d="M 87.1125 426.712146 
L 756.7125 426.712146 
" style="fill:none;stroke:#e5e5e5;stroke-linecap:square;stroke-width:0.8;"/>
     </g>
     <g id="line2d_15">
      <g>
       <use style="stroke:#000000;stroke-width:0.8;" x="87.1125" xlink:href="#m42e302fb16" y="426.712146"/>
      </g>
     </g>
     <g id="text_13">
      <!-- 0.00025% -->
      <g transform="translate(32.1 430.348865)scale(0.1 -0.1)">
       <defs>
        <path d="M 7.53125 0 
L 7.53125 6.390625 
L 31.53125 32.671875 
Q 35.765625 37.28125 38.5 40.703125 
Q 41.234375 44.140625 42.5625 47.171875 
Q 43.890625 50.21875 43.890625 53.546875 
Q 43.890625 59.296875 39.890625 62.671875 
Q 35.90625 66.046875 29.96875 66.046875 
Q 23.65625 66.046875 19.921875 62.265625 
Q 16.1875 58.484375 16.1875 52.265625 
L 7.8125 52.265625 
Q 7.8125 58.671875 10.75 63.5 
Q 13.703125 68.328125 18.796875 71.015625 
Q 23.90625 73.71875 30.25 73.71875 
Q 36.65625 73.71875 41.578125 71.015625 
Q 46.515625 68.328125 49.3125 63.734375 
Q 52.125 59.15625 52.125 53.546875 
Q 52.125 49.53125 50.6875 45.71875 
Q 49.25 41.90625 45.71875 37.234375 
Q 42.1875 32.5625 35.9375 25.859375 
L 19.609375 8.375 
L 19.609375 7.8125 
L 53.40625 7.8125 
L 53.40625 0 
z
" id="Inter-Regular-50"/>
        <path d="M 30.25 -1 
Q 24 -1 19 1.484375 
Q 14 3.984375 10.96875 8.3125 
Q 7.953125 12.640625 7.671875 18.1875 
L 16.1875 18.1875 
Q 16.6875 13.25 20.6875 10.03125 
Q 24.6875 6.8125 30.25 6.8125 
Q 34.734375 6.8125 38.234375 8.90625 
Q 41.734375 11.015625 43.734375 14.6875 
Q 45.734375 18.359375 45.734375 23.015625 
Q 45.734375 27.765625 43.65625 31.515625 
Q 41.578125 35.265625 37.953125 37.421875 
Q 34.34375 39.59375 29.6875 39.625 
Q 26.34375 39.671875 22.828125 38.625 
Q 19.3125 37.578125 17.046875 35.9375 
L 8.8125 36.9375 
L 13.21875 72.734375 
L 51 72.734375 
L 51 64.921875 
L 20.59375 64.921875 
L 18.046875 43.46875 
L 18.46875 43.46875 
Q 20.703125 45.234375 24.078125 46.40625 
Q 27.453125 47.578125 31.109375 47.578125 
Q 37.78125 47.578125 43.015625 44.40625 
Q 48.265625 41.234375 51.265625 35.71875 
Q 54.265625 30.21875 54.265625 23.15625 
Q 54.265625 16.1875 51.15625 10.734375 
Q 48.046875 5.296875 42.609375 2.140625 
Q 37.1875 -1 30.25 -1 
z
" id="Inter-Regular-53"/>
       </defs>
       <use xlink:href="#Inter-Regular-48"/>
       <use x="62.500015" xlink:href="#Inter-Regular-46"/>
       <use x="90.056839" xlink:href="#Inter-Regular-48"/>
       <use x="152.556854" xlink:href="#Inter-Regular-48"/>
       <use x="215.05687" xlink:href="#Inter-Regular-48"/>
       <use x="277.556885" xlink:href="#Inter-Regular-50"/>
       <use x="338.068268" xlink:href="#Inter-Regular-53"/>
       <use x="398.863739" xlink:href="#Inter-Regular-37"/>
      </g>
     </g>
    </g>
    <g id="ytick_3">
     <g id="line2d_16">
      <path clip-path="url(#p91e0b7cf58)" d="M 87.1125 376.679292 
L 756.7125 376.679292 
" style="fill:none;stroke:#e5e5e5;stroke-linecap:square;stroke-width:0.8;"/>
     </g>
     <g id="line2d_17">
      <g>
       <use style="stroke:#000000;stroke-width:0.8;" x="87.1125" xlink:href="#m42e302fb16" y="376.679292"/>
      </g>
     </g>
     <g id="text_14">
      <!-- 0.00050% -->
      <g transform="translate(31.901563 380.31601)scale(0.1 -0.1)">
       <use xlink:href="#Inter-Regular-48"/>
       <use x="62.500015" xlink:href="#Inter-Regular-46"/>
       <use x="90.056839" xlink:href="#Inter-Regular-48"/>
       <use x="152.556854" xlink:href="#Inter-Regular-48"/>
       <use x="215.05687" xlink:href="#Inter-Regular-48"/>
       <use x="277.556885" xlink:href="#Inter-Regular-53"/>
       <use x="338.352356" xlink:href="#Inter-Regular-48"/>
       <use x="400.852371" xlink:href="#Inter-Regular-37"/>
      </g>
     </g>
    </g>
    <g id="ytick_4">
     <g id="line2d_18">
      <path clip-path="url(#p91e0b7cf58)" d="M 87.1125 326.646437 
L 756.7125 326.646437 
" style="fill:none;stroke:#e5e5e5;stroke-linecap:square;stroke-width:0.8;"/>
     </g>
     <g id="line2d_19">
      <g>
       <use style="stroke:#000000;stroke-width:0.8;" x="87.1125" xlink:href="#m42e302fb16" y="326.646437"/>
      </g>
     </g>
     <g id="text_15">
      <!-- 0.00075% -->
      <g transform="translate(32.440625 330.283156)scale(0.1 -0.1)">
       <defs>
        <path d="M 9.796875 0 
L 42.328125 64.34375 
L 42.328125 64.921875 
L 4.828125 64.921875 
L 4.828125 72.734375 
L 51.421875 72.734375 
L 51.421875 64.484375 
L 19.03125 0 
z
" id="Inter-Regular-55"/>
       </defs>
       <use xlink:href="#Inter-Regular-48"/>
       <use x="62.500015" xlink:href="#Inter-Regular-46"/>
       <use x="90.056839" xlink:href="#Inter-Regular-48"/>
       <use x="152.556854" xlink:href="#Inter-Regular-48"/>
       <use x="215.05687" xlink:href="#Inter-Regular-48"/>
       <use x="277.556885" xlink:href="#Inter-Regular-55"/>
       <use x="334.659164" xlink:href="#Inter-Regular-53"/>
       <use x="395.454636" xlink:href="#Inter-Regular-37"/>
      </g>
     </g>
    </g>
    <g id="ytick_5">
     <g id="line2d_20">
      <path clip-path="url(#p91e0b7cf58)" d="M 87.1125 276.613583 
L 756.7125 276.613583 
" style="fill:none;stroke:#e5e5e5;stroke-linecap:square;stroke-width:0.8;"/>
     </g>
     <g id="line2d_21">
      <g>
       <use style="stroke:#000000;stroke-width:0.8;" x="87.1125" xlink:href="#m42e302fb16" y="276.613583"/>
      </g>
     </g>
     <g id="text_16">
      <!-- 0.00100% -->
      <g transform="translate(33.564063 280.250302)scale(0.1 -0.1)">
       <use xlink:href="#Inter-Regular-48"/>
       <use x="62.500015" xlink:href="#Inter-Regular-46"/>
       <use x="90.056839" xlink:href="#Inter-Regular-48"/>
       <use x="152.556854" xlink:href="#Inter-Regular-48"/>
       <use x="215.05687" xlink:href="#Inter-Regular-49"/>
       <use x="259.233017" xlink:href="#Inter-Regular-48"/>
       <use x="321.733032" xlink:href="#Inter-Regular-48"/>
       <use x="384.233047" xlink:href="#Inter-Regular-37"/>
      </g>
     </g>
    </g>
    <g id="ytick_6">
     <g id="line2d_22">
      <path clip-path="url(#p91e0b7cf58)" d="M 87.1125 226.580729 
L 756.7125 226.580729 
" style="fill:none;stroke:#e5e5e5;stroke-linecap:square;stroke-width:0.8;"/>
     </g>
     <g id="line2d_23">
      <g>
       <use style="stroke:#000000;stroke-width:0.8;" x="87.1125" xlink:href="#m42e302fb16" y="226.580729"/>
      </g>
     </g>
     <g id="text_17">
      <!-- 0.00125% -->
      <g transform="translate(33.932813 230.217448)scale(0.1 -0.1)">
       <use xlink:href="#Inter-Regular-48"/>
       <use x="62.500015" xlink:href="#Inter-Regular-46"/>
       <use x="90.056839" xlink:href="#Inter-Regular-48"/>
       <use x="152.556854" xlink:href="#Inter-Regular-48"/>
       <use x="215.05687" xlink:href="#Inter-Regular-49"/>
       <use x="259.233017" xlink:href="#Inter-Regular-50"/>
       <use x="319.7444" xlink:href="#Inter-Regular-53"/>
       <use x="380.539871" xlink:href="#Inter-Regular-37"/>
      </g>
     </g>
    </g>
    <g id="ytick_7">
     <g id="line2d_24">
      <path clip-path="url(#p91e0b7cf58)" d="M 87.1125 176.547875 
L 756.7125 176.547875 
" style="fill:none;stroke:#e5e5e5;stroke-linecap:square;stroke-width:0.8;"/>
     </g>
     <g id="line2d_25">
      <g>
       <use style="stroke:#000000;stroke-width:0.8;" x="87.1125" xlink:href="#m42e302fb16" y="176.547875"/>
      </g>
     </g>
     <g id="text_18">
      <!-- 0.00150% -->
      <g transform="translate(33.734375 180.184593)scale(0.1 -0.1)">
       <use xlink:href="#Inter-Regular-48"/>
       <use x="62.500015" xlink:href="#Inter-Regular-46"/>
       <use x="90.056839" xlink:href="#Inter-Regular-48"/>
       <use x="152.556854" xlink:href="#Inter-Regular-48"/>
       <use x="215.05687" xlink:href="#Inter-Regular-49"/>
       <use x="259.233017" xlink:href="#Inter-Regular-53"/>
       <use x="320.028488" xlink:href="#Inter-Regular-48"/>
       <use x="382.528503" xlink:href="#Inter-Regular-37"/>
      </g>
     </g>
    </g>
    <g id="ytick_8">
     <g id="line2d_26">
      <path clip-path="url(#p91e0b7cf58)" d="M 87.1125 126.51502 
L 756.7125 126.51502 
" style="fill:none;stroke:#e5e5e5;stroke-linecap:square;stroke-width:0.8;"/>
     </g>
     <g id="line2d_27">
      <g>
       <use style="stroke:#000000;stroke-width:0.8;" x="87.1125" xlink:href="#m42e302fb16" y="126.51502"/>
      </g>
     </g>
     <g id="text_19">
      <!-- 0.00175% -->
      <g transform="translate(34.273438 130.151739)scale(0.1 -0.1)">
       <use xlink:href="#Inter-Regular-48"/>
       <use x="62.500015" xlink:href="#Inter-Regular-46"/>
       <use x="90.056839" xlink:href="#Inter-Regular-48"/>
       <use x="152.556854" xlink:href="#Inter-Regular-48"/>
       <use x="215.05687" xlink:href="#Inter-Regular-49"/>
       <use x="259.233017" xlink:href="#Inter-Regular-55"/>
       <use x="316.335297" xlink:href="#Inter-Regular-53"/>
       <use x="377.130768" xlink:href="#Inter-Regular-37"/>
      </g>
     </g>
    </g>
    <g id="ytick_9">
     <g id="line2d_28">
      <path clip-path="url(#p91e0b7cf58)" d="M 87.1125 76.482166 
L 756.7125 76.482166 
" style="fill:none;stroke:#e5e5e5;stroke-linecap:square;stroke-width:0.8;"/>
     </g>
     <g id="line2d_29">
      <g>
       <use style="stroke:#000000;stroke-width:0.8;" x="87.1125" xlink:href="#m42e302fb16" y="76.482166"/>
      </g>
     </g>
     <g id="text_20">
      <!-- 0.00200% -->
      <g transform="translate(31.929688 80.118885)scale(0.1 -0.1)">
       <use xlink:href="#Inter-Regular-48"/>
       <use x="62.500015" xlink:href="#Inter-Regular-46"/>
       <use x="90.056839" xlink:href="#Inter-Regular-48"/>
       <use x="152.556854" xlink:href="#Inter-Regular-48"/>
       <use x="215.05687" xlink:href="#Inter-Regular-50"/>
       <use x="275.568253" xlink:href="#Inter-Regular-48"/>
       <use x="338.068268" xlink:href="#Inter-Regular-48"/>
       <use x="400.568283" xlink:href="#Inter-Regular-37"/>
      </g>
     </g>
    </g>
    <g id="text_21">
     <!-- Percent of nation who have died within 28 days of a positive test -->
     <g transform="translate(25.614063 408.395938)rotate(-90)scale(0.1 -0.1)">
      <defs>
       <path d="M 8.8125 0 
L 8.8125 72.734375 
L 33.375 72.734375 
Q 41.9375 72.734375 47.390625 69.65625 
Q 52.84375 66.578125 55.46875 61.359375 
Q 58.09375 56.140625 58.09375 49.71875 
Q 58.09375 43.28125 55.484375 38.03125 
Q 52.875 32.78125 47.4375 29.671875 
Q 42.015625 26.5625 33.53125 26.5625 
L 17.609375 26.5625 
L 17.609375 0 
z
M 17.609375 34.375 
L 33.234375 34.375 
Q 42.015625 34.375 45.71875 38.78125 
Q 49.4375 43.1875 49.4375 49.71875 
Q 49.4375 56.28125 45.703125 60.59375 
Q 41.96875 64.921875 33.09375 64.921875 
L 17.609375 64.921875 
z
" id="Inter-Regular-80"/>
       <path d="M 31.96875 54.546875 
L 31.96875 47.4375 
L 19.75 47.4375 
L 19.75 0 
L 11.359375 0 
L 11.359375 47.4375 
L 2.5625 47.4375 
L 2.5625 54.546875 
L 11.359375 54.546875 
L 11.359375 62.078125 
Q 11.359375 66.765625 13.5625 69.890625 
Q 15.765625 73.015625 19.28125 74.578125 
Q 22.796875 76.140625 26.703125 76.140625 
Q 29.796875 76.140625 31.75 75.640625 
Q 33.703125 75.140625 34.65625 74.71875 
L 32.25 67.46875 
Q 31.609375 67.6875 30.484375 68 
Q 29.375 68.328125 27.5625 68.328125 
Q 23.40625 68.328125 21.578125 66.234375 
Q 19.75 64.140625 19.75 60.078125 
L 19.75 54.546875 
z
" id="Inter-Regular-102"/>
       <path d="M 7.671875 0 
L 7.671875 54.546875 
L 16.046875 54.546875 
L 16.046875 0 
z
M 11.9375 63.640625 
Q 9.484375 63.640625 7.71875 65.296875 
Q 5.96875 66.96875 5.96875 69.3125 
Q 5.96875 71.65625 7.71875 73.328125 
Q 9.484375 75 11.9375 75 
Q 14.390625 75 16.140625 73.328125 
Q 17.90625 71.65625 17.90625 69.3125 
Q 17.90625 66.96875 16.140625 65.296875 
Q 14.390625 63.640625 11.9375 63.640625 
z
" id="Inter-Regular-105"/>
       <path d="M 20.03125 0 
L 3.40625 54.546875 
L 12.21875 54.546875 
L 24 12.78125 
L 24.578125 12.78125 
L 36.21875 54.546875 
L 45.171875 54.546875 
L 56.671875 12.921875 
L 57.25 12.921875 
L 69.03125 54.546875 
L 77.84375 54.546875 
L 61.21875 0 
L 52.984375 0 
L 41.046875 41.90625 
L 40.203125 41.90625 
L 28.265625 0 
z
" id="Inter-Regular-119"/>
       <path d="M 16.046875 32.8125 
L 16.046875 0 
L 7.671875 0 
L 7.671875 72.734375 
L 16.046875 72.734375 
L 16.046875 46.015625 
L 16.765625 46.015625 
Q 18.6875 50.25 22.53125 52.75 
Q 26.390625 55.25 32.8125 55.25 
Q 41.1875 55.25 46.296875 50.203125 
Q 51.421875 45.171875 51.421875 34.65625 
L 51.421875 0 
L 43.046875 0 
L 43.046875 34.09375 
Q 43.046875 40.59375 39.6875 44.15625 
Q 36.328125 47.734375 30.40625 47.734375 
Q 24.1875 47.734375 20.109375 43.84375 
Q 16.046875 39.953125 16.046875 32.8125 
z
" id="Inter-Regular-104"/>
       <path d="M 28.265625 -1.140625 
Q 21.453125 -1.140625 16.234375 2.3125 
Q 11.015625 5.78125 8.0625 12.125 
Q 5.109375 18.46875 5.109375 27.125 
Q 5.109375 35.71875 8.0625 42.03125 
Q 11.015625 48.359375 16.265625 51.796875 
Q 21.515625 55.25 28.40625 55.25 
Q 33.734375 55.25 36.84375 53.484375 
Q 39.953125 51.734375 41.59375 49.515625 
Q 43.25 47.296875 44.171875 45.875 
L 44.890625 45.875 
L 44.890625 72.734375 
L 53.265625 72.734375 
L 53.265625 0 
L 45.171875 0 
L 45.171875 8.375 
L 44.171875 8.375 
Q 43.25 6.890625 41.546875 4.625 
Q 39.84375 2.375 36.6875 0.609375 
Q 33.53125 -1.140625 28.265625 -1.140625 
z
M 29.40625 6.390625 
Q 36.96875 6.390625 41 12.1875 
Q 45.03125 18 45.03125 27.265625 
Q 45.03125 36.4375 41.046875 42.078125 
Q 37.078125 47.734375 29.40625 47.734375 
Q 24.078125 47.734375 20.546875 45.015625 
Q 17.015625 42.296875 15.25 37.65625 
Q 13.5 33.03125 13.5 27.265625 
Q 13.5 21.453125 15.28125 16.703125 
Q 17.078125 11.96875 20.609375 9.171875 
Q 24.15625 6.390625 29.40625 6.390625 
z
" id="Inter-Regular-100"/>
       <path d="M 30.828125 -1 
Q 23.515625 -1 17.921875 1.609375 
Q 12.328125 4.21875 9.203125 8.8125 
Q 6.078125 13.421875 6.109375 19.3125 
Q 6.078125 23.9375 7.921875 27.859375 
Q 9.765625 31.78125 12.96875 34.421875 
Q 16.1875 37.078125 20.171875 37.78125 
L 20.171875 38.203125 
Q 14.953125 39.5625 11.859375 44.078125 
Q 8.765625 48.609375 8.8125 54.40625 
Q 8.765625 59.9375 11.609375 64.296875 
Q 14.453125 68.671875 19.4375 71.1875 
Q 24.4375 73.71875 30.828125 73.71875 
Q 37.140625 73.71875 42.109375 71.1875 
Q 47.09375 68.671875 49.953125 64.296875 
Q 52.8125 59.9375 52.84375 54.40625 
Q 52.8125 48.609375 49.703125 44.078125 
Q 46.59375 39.5625 41.484375 38.203125 
L 41.484375 37.78125 
Q 45.421875 37.078125 48.578125 34.421875 
Q 51.734375 31.78125 53.609375 27.859375 
Q 55.5 23.9375 55.546875 19.3125 
Q 55.5 13.421875 52.359375 8.8125 
Q 49.21875 4.21875 43.65625 1.609375 
Q 38.109375 -1 30.828125 -1 
z
M 30.828125 6.8125 
Q 38.21875 6.8125 42.53125 10.34375 
Q 46.84375 13.890625 46.875 19.75 
Q 46.84375 23.859375 44.75 27.015625 
Q 42.65625 30.1875 39.046875 32 
Q 35.4375 33.8125 30.828125 33.8125 
Q 26.171875 33.8125 22.53125 32 
Q 18.890625 30.1875 16.8125 27.015625 
Q 14.734375 23.859375 14.78125 19.75 
Q 14.734375 13.890625 19.03125 10.34375 
Q 23.328125 6.8125 30.828125 6.8125 
z
M 30.828125 41.328125 
Q 36.6875 41.328125 40.484375 44.75 
Q 44.28125 48.1875 44.3125 53.828125 
Q 44.28125 59.375 40.5625 62.703125 
Q 36.859375 66.046875 30.828125 66.046875 
Q 24.71875 66.046875 21 62.703125 
Q 17.296875 59.375 17.328125 53.828125 
Q 17.296875 48.1875 21.078125 44.75 
Q 24.859375 41.328125 30.828125 41.328125 
z
" id="Inter-Regular-56"/>
       <path d="M 46.3125 42.328125 
L 38.78125 40.203125 
Q 37.671875 43.046875 35.078125 45.53125 
Q 32.5 48.015625 26.984375 48.015625 
Q 21.984375 48.015625 18.65625 45.71875 
Q 15.34375 43.4375 15.34375 39.921875 
Q 15.34375 36.796875 17.609375 34.984375 
Q 19.890625 33.171875 24.71875 31.953125 
L 32.8125 29.96875 
Q 47.296875 26.421875 47.296875 15.203125 
Q 47.296875 10.515625 44.609375 6.8125 
Q 41.9375 3.125 37.140625 0.984375 
Q 32.359375 -1.140625 26 -1.140625 
Q 17.65625 -1.140625 12.1875 2.484375 
Q 6.71875 6.109375 5.25 13.0625 
L 13.21875 15.0625 
Q 15.453125 6.25 25.859375 6.25 
Q 31.71875 6.25 35.171875 8.75 
Q 38.640625 11.25 38.640625 14.765625 
Q 38.640625 20.5625 30.546875 22.4375 
L 21.453125 24.578125 
Q 13.953125 26.34375 10.453125 30.09375 
Q 6.96875 33.84375 6.96875 39.484375 
Q 6.96875 44.109375 9.578125 47.65625 
Q 12.1875 51.203125 16.703125 53.21875 
Q 21.234375 55.25 26.984375 55.25 
Q 35.09375 55.25 39.71875 51.703125 
Q 44.359375 48.15625 46.3125 42.328125 
z
" id="Inter-Regular-115"/>
      </defs>
      <use xlink:href="#Inter-Regular-80"/>
      <use x="63.494324" xlink:href="#Inter-Regular-101"/>
      <use x="121.732971" xlink:href="#Inter-Regular-114"/>
      <use x="160.085251" xlink:href="#Inter-Regular-99"/>
      <use x="215.909119" xlink:href="#Inter-Regular-101"/>
      <use x="274.147766" xlink:href="#Inter-Regular-110"/>
      <use x="332.670502" xlink:href="#Inter-Regular-116"/>
      <use x="369.034149" xlink:href="#Inter-Regular-32"/>
      <use x="397.159149" xlink:href="#Inter-Regular-111"/>
      <use x="456.818253" xlink:href="#Inter-Regular-102"/>
      <use x="492.897797" xlink:href="#Inter-Regular-32"/>
      <use x="521.022797" xlink:href="#Inter-Regular-110"/>
      <use x="579.545532" xlink:href="#Inter-Regular-97"/>
      <use x="635.937592" xlink:href="#Inter-Regular-116"/>
      <use x="672.301239" xlink:href="#Inter-Regular-105"/>
      <use x="696.022827" xlink:href="#Inter-Regular-111"/>
      <use x="755.681931" xlink:href="#Inter-Regular-110"/>
      <use x="814.204666" xlink:href="#Inter-Regular-32"/>
      <use x="842.329666" xlink:href="#Inter-Regular-119"/>
      <use x="923.579681" xlink:href="#Inter-Regular-104"/>
      <use x="982.670609" xlink:href="#Inter-Regular-111"/>
      <use x="1042.329712" xlink:href="#Inter-Regular-32"/>
      <use x="1070.454712" xlink:href="#Inter-Regular-104"/>
      <use x="1129.545639" xlink:href="#Inter-Regular-97"/>
      <use x="1185.937698" xlink:href="#Inter-Regular-118"/>
      <use x="1241.619522" xlink:href="#Inter-Regular-101"/>
      <use x="1299.85817" xlink:href="#Inter-Regular-32"/>
      <use x="1327.98317" xlink:href="#Inter-Regular-100"/>
      <use x="1390.057053" xlink:href="#Inter-Regular-105"/>
      <use x="1413.778641" xlink:href="#Inter-Regular-101"/>
      <use x="1472.017288" xlink:href="#Inter-Regular-100"/>
      <use x="1534.091171" xlink:href="#Inter-Regular-32"/>
      <use x="1562.216171" xlink:href="#Inter-Regular-119"/>
      <use x="1643.466187" xlink:href="#Inter-Regular-105"/>
      <use x="1667.187775" xlink:href="#Inter-Regular-116"/>
      <use x="1703.551422" xlink:href="#Inter-Regular-104"/>
      <use x="1762.642349" xlink:href="#Inter-Regular-105"/>
      <use x="1786.363937" xlink:href="#Inter-Regular-110"/>
      <use x="1844.886673" xlink:href="#Inter-Regular-32"/>
      <use x="1873.011673" xlink:href="#Inter-Regular-50"/>
      <use x="1933.523056" xlink:href="#Inter-Regular-56"/>
      <use x="1995.170792" xlink:href="#Inter-Regular-32"/>
      <use x="2023.295792" xlink:href="#Inter-Regular-100"/>
      <use x="2085.369675" xlink:href="#Inter-Regular-97"/>
      <use x="2141.761734" xlink:href="#Inter-Regular-121"/>
      <use x="2197.443558" xlink:href="#Inter-Regular-115"/>
      <use x="2249.716293" xlink:href="#Inter-Regular-32"/>
      <use x="2277.841293" xlink:href="#Inter-Regular-111"/>
      <use x="2337.500397" xlink:href="#Inter-Regular-102"/>
      <use x="2373.579941" xlink:href="#Inter-Regular-32"/>
      <use x="2401.704941" xlink:href="#Inter-Regular-97"/>
      <use x="2458.097" xlink:href="#Inter-Regular-32"/>
      <use x="2486.222" xlink:href="#Inter-Regular-112"/>
      <use x="2547.159515" xlink:href="#Inter-Regular-111"/>
      <use x="2606.818619" xlink:href="#Inter-Regular-115"/>
      <use x="2659.091354" xlink:href="#Inter-Regular-105"/>
      <use x="2682.812943" xlink:href="#Inter-Regular-116"/>
      <use x="2719.17659" xlink:href="#Inter-Regular-105"/>
      <use x="2742.898178" xlink:href="#Inter-Regular-118"/>
      <use x="2798.580002" xlink:href="#Inter-Regular-101"/>
      <use x="2856.818649" xlink:href="#Inter-Regular-32"/>
      <use x="2884.943649" xlink:href="#Inter-Regular-116"/>
      <use x="2921.307297" xlink:href="#Inter-Regular-101"/>
      <use x="2979.545944" xlink:href="#Inter-Regular-115"/>
      <use x="3031.81868" xlink:href="#Inter-Regular-116"/>
     </g>
    </g>
   </g>
   <g id="line2d_30">
    <path clip-path="url(#p91e0b7cf58)" d="M 89.107252 476.389444 
L 91.102005 476.033889 
L 93.096757 476.745 
L 95.09151 475.678333 
L 97.086262 476.745 
L 99.081014 476.745 
L 101.075767 475.678333 
L 103.070519 474.967222 
L 105.065271 475.678333 
L 107.060024 473.900556 
L 113.044281 469.633889 
L 115.039033 465.367222 
L 117.033786 461.811667 
L 119.028538 458.967222 
L 121.023291 452.922778 
L 123.018043 452.922778 
L 125.012795 440.478333 
L 127.007548 435.145 
L 129.0023 421.989444 
L 130.997052 415.233889 
L 132.991805 398.878333 
L 136.98131 357.278333 
L 138.976062 343.767222 
L 140.970814 340.211667 
L 142.965567 311.411667 
L 144.960319 285.100556 
L 146.955072 262.345 
L 148.949824 228.567222 
L 150.944576 216.478333 
L 152.939329 212.567222 
L 154.934081 178.789444 
L 156.928833 181.633889 
L 158.923586 190.878333 
L 160.918338 152.478333 
L 162.913091 130.078333 
L 164.907843 165.633889 
L 166.902595 174.522778 
L 168.897348 170.256111 
L 170.8921 171.678333 
L 172.886852 190.878333 
L 174.881605 202.611667 
L 176.876357 197.989444 
L 178.87111 209.367222 
L 180.865862 212.211667 
L 182.860614 225.722778 
L 184.855367 233.189444 
L 186.850119 233.189444 
L 188.844872 245.989444 
L 190.839624 248.122778 
L 192.834376 265.900556 
L 194.829129 262.345 
L 196.823881 279.056111 
L 198.818633 277.278333 
L 200.813386 296.833889 
L 202.808138 299.678333 
L 204.802891 301.456111 
L 206.797643 304.656111 
L 208.792395 306.433889 
L 210.787148 325.989444 
L 212.7819 339.145 
L 214.776653 330.256111 
L 216.771405 337.722778 
L 218.766157 337.367222 
L 220.76091 334.522778 
L 222.755662 359.411667 
L 224.750414 359.411667 
L 226.745167 370.078333 
L 228.739919 384.300556 
L 230.734672 378.967222 
L 232.729424 386.078333 
L 234.724176 378.256111 
L 236.718929 381.100556 
L 238.713681 381.456111 
L 240.708434 397.456111 
L 242.703186 386.789444 
L 244.697938 394.611667 
L 246.692691 393.545 
L 248.687443 405.278333 
L 250.682195 407.411667 
L 252.676948 405.633889 
L 254.6717 416.656111 
L 256.666453 414.167222 
L 258.661205 409.900556 
L 260.655957 415.945 
L 262.65071 412.033889 
L 266.640215 425.189444 
L 268.634967 436.922778 
L 270.629719 433.367222 
L 272.624472 421.278333 
L 276.613976 433.722778 
L 278.608729 437.989444 
L 280.603481 441.545 
L 282.598234 436.922778 
L 284.592986 437.278333 
L 286.587738 446.522778 
L 288.582491 442.256111 
L 290.577243 451.500556 
L 292.571996 451.145 
L 294.566748 457.900556 
L 296.5615 449.722778 
L 298.556253 455.056111 
L 300.551005 452.211667 
L 302.545757 457.900556 
L 304.54051 456.478333 
L 306.535262 460.033889 
L 308.530015 457.545 
L 310.524767 460.033889 
L 312.519519 456.122778 
L 314.514272 455.056111 
L 316.509024 452.567222 
L 318.503776 456.122778 
L 320.498529 463.589444 
L 322.493281 462.878333 
L 324.488034 461.811667 
L 326.482786 464.656111 
L 328.477538 461.456111 
L 330.472291 468.922778 
L 332.467043 462.522778 
L 334.461796 467.500556 
L 336.456548 465.722778 
L 338.4513 468.211667 
L 340.446053 464.656111 
L 342.440805 467.500556 
L 344.435557 468.567222 
L 346.43031 464.300556 
L 348.425062 469.278333 
L 350.419815 469.633889 
L 352.414567 472.478333 
L 354.409319 468.922778 
L 356.404072 469.633889 
L 358.398824 469.278333 
L 360.393577 472.478333 
L 362.388329 470.345 
L 364.383081 471.411667 
L 366.377834 471.767222 
L 368.372586 472.478333 
L 370.367338 469.989444 
L 372.362091 471.056111 
L 374.356843 471.056111 
L 376.351596 474.611667 
L 378.346348 471.767222 
L 380.3411 471.767222 
L 382.335853 473.189444 
L 384.330605 473.189444 
L 386.325358 473.900556 
L 388.32011 473.900556 
L 390.314862 473.189444 
L 394.304367 473.900556 
L 396.299119 471.767222 
L 398.293872 473.189444 
L 400.288624 475.678333 
L 402.283377 473.545 
L 404.278129 473.900556 
L 406.272881 472.833889 
L 408.267634 473.900556 
L 410.262386 472.833889 
L 412.257139 473.189444 
L 414.251891 474.611667 
L 416.246643 474.256111 
L 418.241396 474.611667 
L 420.236148 472.833889 
L 422.2309 475.322778 
L 424.225653 472.478333 
L 428.215158 476.033889 
L 430.20991 473.900556 
L 434.199415 474.611667 
L 436.194167 472.122778 
L 438.18892 474.967222 
L 440.183672 472.833889 
L 442.178424 472.833889 
L 444.173177 473.900556 
L 446.167929 473.900556 
L 448.162681 474.967222 
L 452.152186 474.256111 
L 454.146939 476.033889 
L 456.141691 473.900556 
L 458.136443 474.611667 
L 460.131196 474.611667 
L 462.125948 472.478333 
L 464.1207 473.900556 
L 466.115453 472.122778 
L 468.110205 473.545 
L 470.104958 473.545 
L 472.09971 472.478333 
L 474.094462 473.189444 
L 476.089215 470.345 
L 478.083967 471.767222 
L 480.07872 470.700556 
L 482.073472 471.411667 
L 484.068224 468.922778 
L 486.062977 468.211667 
L 490.052481 470.345 
L 492.047234 467.145 
L 494.041986 468.211667 
L 496.036739 464.656111 
L 498.031491 458.256111 
L 500.026243 465.011667 
L 502.020996 466.433889 
L 504.015748 464.300556 
L 506.010501 461.811667 
L 508.005253 460.033889 
L 510.000005 461.456111 
L 511.994758 459.678333 
L 513.98951 456.833889 
L 515.984262 454.345 
L 517.979015 457.189444 
L 519.973767 457.545 
L 521.96852 455.767222 
L 523.963272 455.056111 
L 525.958024 447.589444 
L 527.952777 450.078333 
L 529.947529 452.922778 
L 531.942282 444.745 
L 533.937034 440.122778 
L 535.931786 442.611667 
L 537.926539 445.811667 
L 539.921291 441.189444 
L 541.916043 432.656111 
L 543.910796 433.011667 
L 545.905548 419.856111 
L 547.900301 434.078333 
L 549.895053 420.211667 
L 551.889805 415.945 
L 553.884558 408.478333 
L 555.87931 410.967222 
L 557.874063 409.900556 
L 559.868815 415.945 
L 561.863567 404.211667 
L 563.85832 397.811667 
L 565.853072 399.233889 
L 567.847824 392.122778 
L 569.842577 388.211667 
L 571.837329 377.189444 
L 573.832082 378.611667 
L 575.826834 375.056111 
L 577.821586 376.833889 
L 579.816339 372.567222 
L 581.811091 377.900556 
L 583.805844 370.433889 
L 585.800596 357.633889 
L 587.795348 358.345 
L 589.790101 356.211667 
L 591.784853 333.456111 
L 593.779605 363.678333 
L 595.774358 366.522778 
L 597.76911 352.300556 
L 599.763863 350.167222 
L 601.758615 349.811667 
L 603.753367 341.633889 
L 605.74812 349.456111 
L 607.742872 348.033889 
L 609.737624 321.722778 
L 611.732377 335.945 
L 613.727129 339.145 
L 615.721882 335.589444 
L 617.716634 333.100556 
L 619.711386 334.167222 
L 621.706139 333.456111 
L 623.700891 326.700556 
L 625.695644 344.122778 
L 627.690396 348.033889 
L 629.685148 341.633889 
L 631.679901 334.522778 
L 633.674653 348.389444 
L 635.669405 352.656111 
L 637.664158 356.567222 
L 639.65891 333.456111 
L 641.653663 329.900556 
L 643.648415 355.856111 
L 645.643167 351.945 
L 647.63792 350.167222 
L 649.632672 343.411667 
L 651.627425 345.189444 
L 653.622177 342.700556 
L 655.616929 335.945 
L 657.611682 343.767222 
L 659.606434 346.967222 
L 661.601186 330.256111 
L 663.595939 339.856111 
L 665.590691 350.167222 
L 667.585444 321.367222 
L 669.580196 322.789444 
L 671.574948 330.967222 
L 673.569701 324.922778 
L 675.564453 301.811667 
L 677.559206 302.522778 
L 679.553958 305.011667 
L 681.54871 303.945 
L 683.543463 286.878333 
L 685.538215 275.500556 
L 687.532967 274.433889 
L 689.52772 268.033889 
L 691.522472 269.811667 
L 693.517225 256.300556 
L 695.511977 247.767222 
L 697.506729 250.256111 
L 699.501482 240.300556 
L 701.496234 246.700556 
L 703.490987 211.145 
L 705.485739 185.189444 
L 707.480491 185.189444 
L 709.475244 163.500556 
L 711.469996 164.922778 
L 715.459501 133.989444 
L 717.454253 120.833889 
L 719.449006 94.167222 
L 721.443758 91.678333 
L 723.43851 101.633889 
L 725.433263 92.033889 
L 727.428015 72.478333 
L 729.422768 74.967222 
L 731.41752 61.811667 
L 733.412272 54.345 
L 735.407025 85.633889 
L 737.401777 89.545 
L 739.396529 111.945 
L 741.391282 145.011667 
L 743.386034 147.856111 
L 743.386034 147.856111 
" style="fill:none;stroke:#5694ca;stroke-linecap:square;stroke-width:2;"/>
   </g>
   <g id="line2d_31">
    <path clip-path="url(#p91e0b7cf58)" d="M 121.023291 466.176541 
L 123.018043 466.176541 
L 125.012795 476.745 
L 127.007548 466.176541 
L 129.0023 466.176541 
L 130.997052 423.902706 
L 132.991805 455.608082 
L 134.986557 434.471165 
L 136.98131 455.608082 
L 138.976062 445.039624 
L 140.970814 392.19733 
L 142.965567 434.471165 
L 144.960319 434.471165 
L 146.955072 423.902706 
L 148.949824 434.471165 
L 150.944576 371.060412 
L 152.939329 371.060412 
L 154.934081 381.628871 
L 156.928833 360.491953 
L 158.923586 413.334247 
L 160.918338 392.19733 
L 162.913091 434.471165 
L 164.907843 286.512741 
L 166.902595 360.491953 
L 168.897348 360.491953 
L 170.8921 307.649659 
L 172.886852 402.765788 
L 174.881605 349.923494 
L 176.876357 307.649659 
L 178.87111 360.491953 
L 180.865862 381.628871 
L 182.860614 371.060412 
L 184.855367 371.060412 
L 186.850119 349.923494 
L 188.844872 339.355035 
L 190.839624 275.944283 
L 192.834376 307.649659 
L 194.829129 360.491953 
L 196.823881 318.218118 
L 200.813386 339.355035 
L 202.808138 413.334247 
L 204.802891 328.786577 
L 206.797643 392.19733 
L 208.792395 349.923494 
L 210.787148 349.923494 
L 212.7819 360.491953 
L 214.776653 381.628871 
L 218.766157 445.039624 
L 220.76091 445.039624 
L 222.755662 413.334247 
L 224.750414 402.765788 
L 226.745167 371.060412 
L 228.739919 455.608082 
L 230.734672 434.471165 
L 232.729424 445.039624 
L 234.724176 371.060412 
L 236.718929 445.039624 
L 238.713681 434.471165 
L 240.708434 402.765788 
L 242.703186 402.765788 
L 244.697938 423.902706 
L 246.692691 423.902706 
L 248.687443 434.471165 
L 250.682195 466.176541 
L 252.676948 455.608082 
L 254.6717 402.765788 
L 256.666453 466.176541 
L 258.661205 466.176541 
L 260.655957 434.471165 
L 262.65071 445.039624 
L 264.645462 466.176541 
L 266.640215 455.608082 
L 268.634967 466.176541 
L 270.629719 466.176541 
L 272.624472 455.608082 
L 274.619224 455.608082 
L 276.613976 476.745 
L 278.608729 466.176541 
L 280.603481 476.745 
L 288.582491 476.745 
L 290.577243 455.608082 
L 292.571996 466.176541 
L 294.566748 466.176541 
L 296.5615 476.745 
L 298.556253 476.745 
L 300.551005 466.176541 
L 306.535262 466.176541 
L 308.530015 476.745 
L 310.524767 476.745 
L 312.519519 466.176541 
L 314.514272 466.176541 
L 316.509024 476.745 
L 320.498529 455.608082 
L 322.493281 476.745 
L 324.488034 476.745 
L 326.482786 466.176541 
L 328.477538 476.745 
L 330.472291 466.176541 
L 332.467043 476.745 
L 334.461796 455.608082 
L 336.456548 476.745 
L 344.435557 476.745 
L 346.43031 466.176541 
L 348.425062 476.745 
L 350.419815 476.745 
L 352.414567 466.176541 
L 354.409319 476.745 
L 404.278129 476.745 
L 406.272881 466.176541 
L 408.267634 476.745 
L 414.251891 476.745 
L 416.246643 466.176541 
L 418.241396 476.745 
L 420.236148 466.176541 
L 422.2309 476.745 
L 438.18892 476.745 
L 440.183672 466.176541 
L 442.178424 476.745 
L 444.173177 476.745 
L 446.167929 466.176541 
L 448.162681 476.745 
L 452.152186 476.745 
L 454.146939 466.176541 
L 456.141691 476.745 
L 458.136443 455.608082 
L 460.131196 476.745 
L 462.125948 466.176541 
L 464.1207 476.745 
L 466.115453 455.608082 
L 468.110205 476.745 
L 470.104958 476.745 
L 474.094462 455.608082 
L 476.089215 476.745 
L 478.083967 476.745 
L 480.07872 466.176541 
L 482.073472 466.176541 
L 484.068224 455.608082 
L 486.062977 476.745 
L 490.052481 455.608082 
L 492.047234 476.745 
L 500.026243 476.745 
L 502.020996 466.176541 
L 504.015748 476.745 
L 506.010501 476.745 
L 508.005253 466.176541 
L 510.000005 476.745 
L 511.994758 466.176541 
L 513.98951 466.176541 
L 515.984262 455.608082 
L 519.973767 476.745 
L 521.96852 466.176541 
L 525.958024 466.176541 
L 527.952777 476.745 
L 531.942282 476.745 
L 533.937034 413.334247 
L 537.926539 434.471165 
L 539.921291 455.608082 
L 541.916043 434.471165 
L 543.910796 455.608082 
L 545.905548 445.039624 
L 547.900301 402.765788 
L 549.895053 434.471165 
L 551.889805 445.039624 
L 553.884558 413.334247 
L 555.87931 434.471165 
L 559.868815 392.19733 
L 561.863567 413.334247 
L 563.85832 360.491953 
L 567.847824 381.628871 
L 569.842577 328.786577 
L 571.837329 381.628871 
L 573.832082 402.765788 
L 575.826834 371.060412 
L 577.821586 423.902706 
L 579.816339 349.923494 
L 581.811091 371.060412 
L 583.805844 402.765788 
L 585.800596 318.218118 
L 587.795348 402.765788 
L 589.790101 371.060412 
L 591.784853 371.060412 
L 593.779605 392.19733 
L 595.774358 339.355035 
L 597.76911 371.060412 
L 599.763863 360.491953 
L 601.758615 339.355035 
L 603.753367 339.355035 
L 605.74812 381.628871 
L 607.742872 360.491953 
L 609.737624 371.060412 
L 611.732377 339.355035 
L 613.727129 339.355035 
L 615.721882 402.765788 
L 617.716634 413.334247 
L 619.711386 392.19733 
L 621.706139 402.765788 
L 623.700891 371.060412 
L 625.695644 392.19733 
L 627.690396 360.491953 
L 629.685148 360.491953 
L 631.679901 392.19733 
L 633.674653 349.923494 
L 635.669405 392.19733 
L 637.664158 392.19733 
L 639.65891 413.334247 
L 641.653663 402.765788 
L 643.648415 349.923494 
L 645.643167 360.491953 
L 647.63792 297.0812 
L 649.632672 402.765788 
L 651.627425 381.628871 
L 653.622177 339.355035 
L 655.616929 381.628871 
L 659.606434 423.902706 
L 661.601186 413.334247 
L 663.595939 413.334247 
L 665.590691 339.355035 
L 667.585444 328.786577 
L 669.580196 371.060412 
L 671.574948 318.218118 
L 673.569701 349.923494 
L 675.564453 297.0812 
L 677.559206 371.060412 
L 679.553958 318.218118 
L 681.54871 318.218118 
L 683.543463 402.765788 
L 685.538215 371.060412 
L 687.532967 328.786577 
L 689.52772 392.19733 
L 691.522472 360.491953 
L 693.517225 339.355035 
L 695.511977 371.060412 
L 697.506729 339.355035 
L 699.501482 328.786577 
L 701.496234 349.923494 
L 703.490987 339.355035 
L 705.485739 402.765788 
L 707.480491 360.491953 
L 709.475244 254.807365 
L 711.469996 371.060412 
L 713.464748 265.375824 
L 715.459501 307.649659 
L 717.454253 244.238906 
L 719.449006 275.944283 
L 721.443758 275.944283 
L 723.43851 201.965071 
L 725.433263 212.53353 
L 727.428015 265.375824 
L 729.422768 170.259695 
L 731.41752 254.807365 
L 733.412272 275.944283 
L 735.407025 275.944283 
L 737.401777 360.491953 
L 739.396529 339.355035 
L 741.391282 265.375824 
L 741.391282 265.375824 
" style="fill:none;stroke:#ffdd00;stroke-linecap:square;stroke-width:2;"/>
   </g>
   <g id="line2d_32">
    <path clip-path="url(#p91e0b7cf58)" d="M 85.117748 476.745 
L 107.060024 476.745 
L 109.054776 473.081803 
L 111.049529 476.745 
L 113.044281 469.418607 
L 115.039033 476.745 
L 119.028538 469.418607 
L 121.023291 476.745 
L 123.018043 465.75541 
L 125.012795 458.429017 
L 127.007548 454.765821 
L 130.997052 462.092214 
L 134.986557 440.113035 
L 136.98131 436.449838 
L 138.976062 436.449838 
L 140.970814 370.5123 
L 142.965567 403.481069 
L 144.960319 377.838693 
L 146.955072 337.543531 
L 148.949824 315.564352 
L 150.944576 344.869924 
L 152.939329 267.942797 
L 154.934081 377.838693 
L 156.928833 315.564352 
L 158.923586 249.626814 
L 160.918338 304.574762 
L 162.913091 286.25878 
L 164.907843 245.963618 
L 166.902595 275.26919 
L 168.897348 286.25878 
L 170.8921 308.237959 
L 172.886852 333.880335 
L 174.881605 293.585173 
L 176.876357 326.553942 
L 178.87111 326.553942 
L 180.865862 341.206728 
L 182.860614 289.921976 
L 184.855367 315.564352 
L 186.850119 253.290011 
L 188.844872 293.585173 
L 190.839624 315.564352 
L 192.834376 300.911566 
L 194.829129 337.543531 
L 196.823881 304.574762 
L 198.818633 319.227549 
L 200.813386 256.953207 
L 202.808138 330.217138 
L 204.802891 341.206728 
L 206.797643 319.227549 
L 208.792395 300.911566 
L 210.787148 315.564352 
L 212.7819 344.869924 
L 214.776653 330.217138 
L 216.771405 293.585173 
L 218.766157 319.227549 
L 220.76091 333.880335 
L 222.755662 352.196317 
L 224.750414 352.196317 
L 226.745167 377.838693 
L 228.739919 363.185907 
L 230.734672 366.849104 
L 232.729424 322.890745 
L 234.724176 352.196317 
L 236.718929 388.828283 
L 238.713681 374.175497 
L 240.708434 381.50189 
L 242.703186 392.491479 
L 244.697938 374.175497 
L 246.692691 399.817873 
L 248.687443 392.491479 
L 252.676948 443.776231 
L 254.6717 451.102624 
L 256.666453 425.460248 
L 258.661205 429.123445 
L 260.655957 418.133855 
L 262.65071 418.133855 
L 266.640215 454.765821 
L 268.634967 454.765821 
L 270.629719 465.75541 
L 272.624472 454.765821 
L 274.619224 447.439428 
L 276.613976 469.418607 
L 278.608729 443.776231 
L 280.603481 465.75541 
L 282.598234 451.102624 
L 284.592986 458.429017 
L 286.587738 473.081803 
L 288.582491 458.429017 
L 290.577243 469.418607 
L 292.571996 469.418607 
L 296.5615 462.092214 
L 298.556253 465.75541 
L 300.551005 454.765821 
L 302.545757 465.75541 
L 304.54051 465.75541 
L 306.535262 476.745 
L 308.530015 465.75541 
L 310.524767 469.418607 
L 312.519519 465.75541 
L 314.514272 473.081803 
L 316.509024 473.081803 
L 318.503776 476.745 
L 320.498529 476.745 
L 322.493281 462.092214 
L 324.488034 473.081803 
L 326.482786 473.081803 
L 328.477538 476.745 
L 332.467043 476.745 
L 334.461796 473.081803 
L 336.456548 476.745 
L 338.4513 473.081803 
L 340.446053 476.745 
L 426.220405 476.745 
L 428.215158 473.081803 
L 430.20991 476.745 
L 432.204662 476.745 
L 434.199415 473.081803 
L 436.194167 473.081803 
L 438.18892 476.745 
L 444.173177 476.745 
L 446.167929 473.081803 
L 448.162681 476.745 
L 454.146939 476.745 
L 456.141691 473.081803 
L 460.131196 473.081803 
L 462.125948 476.745 
L 476.089215 476.745 
L 478.083967 473.081803 
L 480.07872 465.75541 
L 482.073472 476.745 
L 484.068224 476.745 
L 486.062977 473.081803 
L 488.057729 473.081803 
L 490.052481 476.745 
L 492.047234 465.75541 
L 494.041986 469.418607 
L 496.036739 469.418607 
L 498.031491 473.081803 
L 500.026243 469.418607 
L 502.020996 473.081803 
L 504.015748 469.418607 
L 506.010501 469.418607 
L 508.005253 465.75541 
L 510.000005 473.081803 
L 511.994758 462.092214 
L 513.98951 462.092214 
L 515.984262 473.081803 
L 519.973767 465.75541 
L 521.96852 476.745 
L 523.963272 465.75541 
L 525.958024 447.439428 
L 527.952777 436.449838 
L 529.947529 454.765821 
L 531.942282 440.113035 
L 533.937034 443.776231 
L 535.931786 451.102624 
L 537.926539 436.449838 
L 539.921291 454.765821 
L 541.916043 418.133855 
L 543.910796 418.133855 
L 545.905548 443.776231 
L 547.900301 399.817873 
L 549.895053 421.797052 
L 551.889805 418.133855 
L 553.884558 436.449838 
L 555.87931 414.470659 
L 557.874063 414.470659 
L 561.863567 399.817873 
L 563.85832 370.5123 
L 565.853072 421.797052 
L 567.847824 385.165086 
L 569.842577 381.50189 
L 571.837329 348.533121 
L 573.832082 388.828283 
L 575.826834 352.196317 
L 577.821586 377.838693 
L 579.816339 355.859514 
L 581.811091 407.144266 
L 583.805844 341.206728 
L 585.800596 381.50189 
L 587.795348 348.533121 
L 589.790101 348.533121 
L 591.784853 337.543531 
L 593.779605 355.859514 
L 595.774358 348.533121 
L 597.76911 363.185907 
L 599.763863 348.533121 
L 601.758615 337.543531 
L 603.753367 355.859514 
L 605.74812 355.859514 
L 607.742872 344.869924 
L 609.737624 396.154676 
L 611.732377 381.50189 
L 613.727129 370.5123 
L 615.721882 355.859514 
L 617.716634 344.869924 
L 619.711386 366.849104 
L 621.706139 370.5123 
L 623.700891 359.522711 
L 625.695644 392.491479 
L 627.690396 396.154676 
L 629.685148 333.880335 
L 631.679901 381.50189 
L 633.674653 363.185907 
L 635.669405 377.838693 
L 637.664158 407.144266 
L 639.65891 352.196317 
L 641.653663 374.175497 
L 643.648415 407.144266 
L 645.643167 374.175497 
L 647.63792 370.5123 
L 649.632672 377.838693 
L 651.627425 392.491479 
L 653.622177 396.154676 
L 655.616929 403.481069 
L 659.606434 381.50189 
L 661.601186 363.185907 
L 665.590691 363.185907 
L 667.585444 352.196317 
L 669.580196 392.491479 
L 671.574948 377.838693 
L 673.569701 370.5123 
L 675.564453 388.828283 
L 677.559206 374.175497 
L 679.553958 355.859514 
L 681.54871 344.869924 
L 685.538215 359.522711 
L 689.52772 366.849104 
L 691.522472 381.50189 
L 693.517225 359.522711 
L 695.511977 319.227549 
L 697.506729 352.196317 
L 699.501482 337.543531 
L 701.496234 326.553942 
L 703.490987 348.533121 
L 705.485739 341.206728 
L 707.480491 300.911566 
L 709.475244 315.564352 
L 711.469996 326.553942 
L 713.464748 341.206728 
L 715.459501 264.2796 
L 717.454253 304.574762 
L 719.449006 293.585173 
L 721.443758 289.921976 
L 723.43851 282.595583 
L 725.433263 264.2796 
L 727.428015 198.342063 
L 729.422768 322.890745 
L 731.41752 253.290011 
L 733.412272 223.984438 
L 735.407025 245.963618 
L 737.401777 271.605993 
L 739.396529 253.290011 
L 741.391282 293.585173 
L 743.386034 253.290011 
L 743.386034 253.290011 
" style="fill:none;stroke:#003078;stroke-linecap:square;stroke-width:2;"/>
   </g>
   <g id="line2d_33">
    <path clip-path="url(#p91e0b7cf58)" d="M 117.033786 457.70227 
L 119.028538 476.745 
L 121.023291 476.745 
L 123.018043 457.70227 
L 125.012795 464.049846 
L 127.007548 432.311962 
L 129.0023 445.007116 
L 130.997052 451.354693 
L 132.991805 419.616809 
L 136.98131 406.921655 
L 138.976062 413.269232 
L 140.970814 381.531348 
L 142.965567 362.488617 
L 144.960319 375.183771 
L 146.955072 381.531348 
L 148.949824 343.445887 
L 150.944576 299.012849 
L 152.939329 292.665272 
L 154.934081 279.970118 
L 156.928833 286.317695 
L 158.923586 349.793463 
L 160.918338 273.622541 
L 162.913091 210.146773 
L 164.907843 203.799196 
L 166.902595 318.055579 
L 172.886852 203.799196 
L 174.881605 311.708002 
L 176.876357 235.53708 
L 178.87111 254.579811 
L 180.865862 292.665272 
L 182.860614 273.622541 
L 184.855367 311.708002 
L 186.850119 318.055579 
L 188.844872 286.317695 
L 190.839624 330.750733 
L 192.834376 362.488617 
L 194.829129 279.970118 
L 196.823881 292.665272 
L 198.818633 375.183771 
L 200.813386 375.183771 
L 202.808138 381.531348 
L 204.802891 311.708002 
L 206.797643 375.183771 
L 208.792395 292.665272 
L 210.787148 387.878924 
L 212.7819 387.878924 
L 214.776653 330.750733 
L 216.771405 368.836194 
L 218.766157 330.750733 
L 220.76091 356.14104 
L 224.750414 432.311962 
L 226.745167 413.269232 
L 228.739919 381.531348 
L 230.734672 406.921655 
L 232.729424 375.183771 
L 234.724176 400.574078 
L 236.718929 375.183771 
L 238.713681 394.226501 
L 240.708434 406.921655 
L 242.703186 413.269232 
L 244.697938 406.921655 
L 246.692691 432.311962 
L 248.687443 419.616809 
L 250.682195 413.269232 
L 252.676948 432.311962 
L 254.6717 400.574078 
L 256.666453 413.269232 
L 258.661205 413.269232 
L 260.655957 438.659539 
L 262.65071 375.183771 
L 264.645462 406.921655 
L 266.640215 413.269232 
L 268.634967 432.311962 
L 270.629719 419.616809 
L 272.624472 445.007116 
L 274.619224 432.311962 
L 276.613976 400.574078 
L 278.608729 451.354693 
L 280.603481 419.616809 
L 284.592986 432.311962 
L 286.587738 451.354693 
L 288.582491 432.311962 
L 290.577243 445.007116 
L 292.571996 451.354693 
L 294.566748 438.659539 
L 296.5615 432.311962 
L 298.556253 438.659539 
L 300.551005 425.964385 
L 302.545757 470.397423 
L 304.54051 476.745 
L 306.535262 451.354693 
L 308.530015 457.70227 
L 310.524767 445.007116 
L 312.519519 464.049846 
L 314.514272 470.397423 
L 316.509024 438.659539 
L 318.503776 419.616809 
L 320.498529 464.049846 
L 322.493281 438.659539 
L 324.488034 464.049846 
L 328.477538 451.354693 
L 330.472291 451.354693 
L 332.467043 457.70227 
L 334.461796 476.745 
L 336.456548 464.049846 
L 340.446053 464.049846 
L 342.440805 470.397423 
L 346.43031 470.397423 
L 348.425062 476.745 
L 350.419815 470.397423 
L 352.414567 476.745 
L 354.409319 464.049846 
L 358.398824 476.745 
L 360.393577 470.397423 
L 362.388329 476.745 
L 368.372586 476.745 
L 370.367338 470.397423 
L 372.362091 470.397423 
L 374.356843 476.745 
L 378.346348 464.049846 
L 380.3411 464.049846 
L 382.335853 470.397423 
L 384.330605 464.049846 
L 386.325358 451.354693 
L 388.32011 464.049846 
L 390.314862 451.354693 
L 392.309615 464.049846 
L 394.304367 464.049846 
L 396.299119 470.397423 
L 398.293872 451.354693 
L 400.288624 457.70227 
L 402.283377 476.745 
L 404.278129 445.007116 
L 406.272881 464.049846 
L 408.267634 476.745 
L 410.262386 464.049846 
L 412.257139 476.745 
L 414.251891 470.397423 
L 418.241396 470.397423 
L 420.236148 476.745 
L 424.225653 476.745 
L 426.220405 464.049846 
L 428.215158 476.745 
L 432.204662 476.745 
L 434.199415 470.397423 
L 436.194167 476.745 
L 438.18892 470.397423 
L 440.183672 476.745 
L 450.157434 476.745 
L 452.152186 464.049846 
L 454.146939 476.745 
L 456.141691 476.745 
L 458.136443 470.397423 
L 460.131196 476.745 
L 472.09971 476.745 
L 474.094462 470.397423 
L 476.089215 476.745 
L 478.083967 470.397423 
L 480.07872 476.745 
L 482.073472 464.049846 
L 486.062977 464.049846 
L 488.057729 476.745 
L 490.052481 476.745 
L 492.047234 470.397423 
L 494.041986 470.397423 
L 496.036739 457.70227 
L 498.031491 457.70227 
L 500.026243 476.745 
L 506.010501 457.70227 
L 508.005253 457.70227 
L 510.000005 451.354693 
L 511.994758 451.354693 
L 513.98951 445.007116 
L 515.984262 464.049846 
L 517.979015 425.964385 
L 519.973767 457.70227 
L 521.96852 413.269232 
L 523.963272 451.354693 
L 525.958024 406.921655 
L 527.952777 438.659539 
L 529.947529 438.659539 
L 531.942282 457.70227 
L 533.937034 451.354693 
L 535.931786 451.354693 
L 537.926539 425.964385 
L 539.921291 432.311962 
L 541.916043 432.311962 
L 543.910796 438.659539 
L 545.905548 451.354693 
L 547.900301 406.921655 
L 549.895053 394.226501 
L 551.889805 451.354693 
L 553.884558 394.226501 
L 555.87931 299.012849 
L 557.874063 406.921655 
L 559.868815 381.531348 
L 561.863567 375.183771 
L 563.85832 381.531348 
L 565.853072 330.750733 
L 567.847824 406.921655 
L 569.842577 343.445887 
L 571.837329 387.878924 
L 573.832082 400.574078 
L 575.826834 299.012849 
L 577.821586 368.836194 
L 579.816339 330.750733 
L 581.811091 337.09831 
L 583.805844 279.970118 
L 585.800596 311.708002 
L 587.795348 381.531348 
L 589.790101 292.665272 
L 591.784853 292.665272 
L 593.779605 299.012849 
L 595.774358 292.665272 
L 597.76911 299.012849 
L 599.763863 286.317695 
L 601.758615 356.14104 
L 603.753367 318.055579 
L 605.74812 330.750733 
L 607.742872 292.665272 
L 609.737624 362.488617 
L 611.732377 311.708002 
L 613.727129 343.445887 
L 615.721882 311.708002 
L 617.716634 305.360426 
L 619.711386 318.055579 
L 621.706139 362.488617 
L 623.700891 368.836194 
L 625.695644 286.317695 
L 627.690396 311.708002 
L 629.685148 273.622541 
L 631.679901 318.055579 
L 633.674653 368.836194 
L 635.669405 356.14104 
L 637.664158 337.09831 
L 639.65891 305.360426 
L 641.653663 311.708002 
L 643.648415 349.793463 
L 645.643167 318.055579 
L 647.63792 349.793463 
L 649.632672 311.708002 
L 651.627425 318.055579 
L 653.622177 273.622541 
L 655.616929 311.708002 
L 657.611682 267.274965 
L 659.606434 337.09831 
L 661.601186 286.317695 
L 665.590691 260.927388 
L 667.585444 172.061312 
L 669.580196 184.756466 
L 671.574948 260.927388 
L 673.569701 254.579811 
L 675.564453 241.884657 
L 677.559206 254.579811 
L 679.553958 260.927388 
L 681.54871 191.104043 
L 683.543463 273.622541 
L 685.538215 210.146773 
L 687.532967 292.665272 
L 689.52772 165.713735 
L 691.522472 216.49435 
L 693.517225 159.366158 
L 695.511977 159.366158 
L 697.506729 121.280698 
L 699.501482 273.622541 
L 701.496234 146.671005 
L 703.490987 241.884657 
L 705.485739 229.189504 
L 707.480491 172.061312 
L 709.475244 222.841927 
L 711.469996 191.104043 
L 713.464748 267.274965 
L 715.459501 222.841927 
L 717.454253 140.323428 
L 721.443758 203.799196 
L 723.43851 140.323428 
L 725.433263 229.189504 
L 727.428015 229.189504 
L 729.422768 324.403156 
L 731.41752 210.146773 
L 733.412272 318.055579 
L 735.407025 260.927388 
L 737.401777 292.665272 
L 739.396529 260.927388 
L 741.391282 286.317695 
L 743.386034 273.622541 
L 743.386034 273.622541 
" style="fill:none;stroke:#d4351c;stroke-linecap:square;stroke-width:2;"/>
   </g>
   <g id="patch_3">
    <path d="M 87.1125 476.745 
L 756.7125 476.745 
" style="fill:none;stroke:#000000;stroke-linecap:square;stroke-linejoin:miter;stroke-width:0.8;"/>
   </g>
   <g id="text_22">
    <!-- Deaths within 4 weeks of a positive COVID-19 test, per capita -->
    <g transform="translate(241.700625 27.225)scale(0.12 -0.12)">
     <defs>
      <path d="M 32.109375 0 
L 6.328125 0 
L 6.328125 72.734375 
L 32.3125 72.734375 
Q 43.296875 72.734375 51.21875 68.375 
Q 59.15625 64.03125 63.421875 55.890625 
Q 67.6875 47.765625 67.6875 36.4375 
Q 67.6875 25.078125 63.40625 16.90625 
Q 59.125 8.734375 51.15625 4.359375 
Q 43.1875 0 32.109375 0 
z
M 21.703125 13.171875 
L 31.46875 13.171875 
Q 41.734375 13.171875 47.03125 18.703125 
Q 52.34375 24.25 52.34375 36.4375 
Q 52.34375 48.546875 47.03125 54.046875 
Q 41.734375 59.546875 31.5 59.546875 
L 21.703125 59.546875 
z
" id="Inter-Bold-68"/>
      <path d="M 30.890625 -1.0625 
Q 22.515625 -1.0625 16.4375 2.359375 
Q 10.375 5.78125 7.109375 12.078125 
Q 3.84375 18.390625 3.84375 27.03125 
Q 3.84375 35.4375 7.109375 41.796875 
Q 10.375 48.15625 16.3125 51.703125 
Q 22.265625 55.25 30.296875 55.25 
Q 37.5 55.25 43.296875 52.1875 
Q 49.109375 49.140625 52.515625 42.984375 
Q 55.9375 36.828125 55.9375 27.5625 
L 55.9375 23.40625 
L 18.78125 23.40625 
L 18.78125 23.359375 
Q 18.78125 17.265625 22.125 13.75 
Q 25.46875 10.234375 31.140625 10.234375 
Q 34.9375 10.234375 37.703125 11.828125 
Q 40.484375 13.421875 41.625 16.546875 
L 55.609375 15.625 
Q 54.015625 8.03125 47.515625 3.484375 
Q 41.015625 -1.0625 30.890625 -1.0625 
z
M 18.78125 32.78125 
L 41.6875 32.78125 
Q 41.65625 37.640625 38.5625 40.796875 
Q 35.484375 43.96875 30.546875 43.96875 
Q 25.5 43.96875 22.265625 40.6875 
Q 19.03125 37.421875 18.78125 32.78125 
z
" id="Inter-Bold-101"/>
      <path d="M 21.59375 -1.03125 
Q 13.78125 -1.03125 8.625 3.046875 
Q 3.484375 7.140625 3.484375 15.234375 
Q 3.484375 21.34375 6.359375 24.8125 
Q 9.234375 28.296875 13.90625 29.90625 
Q 18.578125 31.53125 23.96875 32.03125 
Q 31.078125 32.734375 34.125 33.515625 
Q 37.1875 34.296875 37.1875 36.9375 
L 37.1875 37.140625 
Q 37.1875 40.515625 35.0625 42.359375 
Q 32.953125 44.21875 29.078125 44.21875 
Q 25 44.21875 22.578125 42.4375 
Q 20.171875 40.65625 19.390625 37.921875 
L 5.40625 39.0625 
Q 6.96875 46.515625 13.15625 50.875 
Q 19.359375 55.25 29.15625 55.25 
Q 35.234375 55.25 40.515625 53.328125 
Q 45.8125 51.421875 49.0625 47.34375 
Q 52.3125 43.28125 52.3125 36.796875 
L 52.3125 0 
L 37.96875 0 
L 37.96875 7.5625 
L 37.53125 7.5625 
Q 35.546875 3.765625 31.578125 1.359375 
Q 27.625 -1.03125 21.59375 -1.03125 
z
M 25.921875 9.40625 
Q 30.890625 9.40625 34.078125 12.296875 
Q 37.28125 15.203125 37.28125 19.5 
L 37.28125 25.28125 
Q 36.40625 24.6875 34.53125 24.21875 
Q 32.671875 23.75 30.5625 23.40625 
Q 28.453125 23.078125 26.78125 22.828125 
Q 22.796875 22.265625 20.359375 20.59375 
Q 17.9375 18.921875 17.9375 15.734375 
Q 17.9375 12.609375 20.1875 11 
Q 22.4375 9.40625 25.921875 9.40625 
z
" id="Inter-Bold-97"/>
      <path d="M 35.046875 54.546875 
L 35.046875 43.1875 
L 24.78125 43.1875 
L 24.78125 16.765625 
Q 24.78125 13.640625 26.203125 12.53125 
Q 27.625 11.4375 29.90625 11.4375 
Q 30.96875 11.4375 32.03125 11.625 
Q 33.09375 11.828125 33.671875 11.9375 
L 36.046875 0.671875 
Q 34.90625 0.3125 32.84375 -0.15625 
Q 30.796875 -0.640625 27.84375 -0.75 
Q 19.609375 -1.09375 14.609375 2.828125 
Q 9.625 6.75 9.65625 14.765625 
L 9.65625 43.1875 
L 2.203125 43.1875 
L 2.203125 54.546875 
L 9.65625 54.546875 
L 9.65625 67.609375 
L 24.78125 67.609375 
L 24.78125 54.546875 
z
" id="Inter-Bold-116"/>
      <path d="M 21.171875 31.53125 
L 21.171875 0 
L 6.03125 0 
L 6.03125 72.734375 
L 20.734375 72.734375 
L 20.734375 44.921875 
L 21.375 44.921875 
Q 23.265625 49.75 27.359375 52.5 
Q 31.46875 55.25 37.671875 55.25 
Q 46.203125 55.25 51.390625 49.78125 
Q 56.578125 44.3125 56.53125 34.734375 
L 56.53125 0 
L 41.40625 0 
L 41.40625 32.03125 
Q 41.4375 37.078125 38.859375 39.875 
Q 36.296875 42.6875 31.671875 42.6875 
Q 27.0625 42.6875 24.125 39.75 
Q 21.203125 36.828125 21.171875 31.53125 
z
" id="Inter-Bold-104"/>
      <path d="M 51.421875 38.984375 
L 37.578125 38.140625 
Q 37 40.765625 34.6875 42.640625 
Q 32.390625 44.53125 28.453125 44.53125 
Q 24.9375 44.53125 22.5 43.046875 
Q 20.0625 41.578125 20.09375 39.140625 
Q 20.0625 37.1875 21.640625 35.828125 
Q 23.21875 34.484375 27.03125 33.671875 
L 36.890625 31.671875 
Q 52.625 28.4375 52.671875 16.90625 
Q 52.671875 11.546875 49.515625 7.484375 
Q 46.375 3.4375 40.90625 1.1875 
Q 35.4375 -1.0625 28.375 -1.0625 
Q 17.546875 -1.0625 11.109375 3.453125 
Q 4.6875 7.984375 3.625 15.796875 
L 18.5 16.578125 
Q 19.21875 13.25 21.78125 11.546875 
Q 24.359375 9.84375 28.40625 9.84375 
Q 32.390625 9.84375 34.8125 11.40625 
Q 37.25 12.96875 37.28125 15.375 
Q 37.1875 19.421875 30.296875 20.8125 
L 20.84375 22.6875 
Q 5.015625 25.859375 5.078125 38.28125 
Q 5.046875 46.171875 11.375 50.703125 
Q 17.71875 55.25 28.203125 55.25 
Q 38.53125 55.25 44.46875 50.875 
Q 50.421875 46.515625 51.421875 38.984375 
z
" id="Inter-Bold-115"/>
      <path id="Inter-Bold-32"/>
      <path d="M 16.796875 0 
L 1.953125 54.546875 
L 17.265625 54.546875 
L 25.71875 17.890625 
L 26.203125 17.890625 
L 35.015625 54.546875 
L 50.03125 54.546875 
L 58.984375 18.109375 
L 59.453125 18.109375 
L 67.75 54.546875 
L 83.03125 54.546875 
L 68.21875 0 
L 52.203125 0 
L 42.828125 34.296875 
L 42.15625 34.296875 
L 32.78125 0 
z
" id="Inter-Bold-119"/>
      <path d="M 6.03125 0 
L 6.03125 54.546875 
L 21.171875 54.546875 
L 21.171875 0 
z
M 13.6875 61.578125 
Q 10.34375 61.578125 7.921875 63.828125 
Q 5.515625 66.09375 5.515625 69.25 
Q 5.515625 72.40625 7.921875 74.640625 
Q 10.34375 76.875 13.6875 76.875 
Q 17.0625 76.875 19.46875 74.640625 
Q 21.890625 72.40625 21.890625 69.25 
Q 21.890625 66.09375 19.46875 63.828125 
Q 17.0625 61.578125 13.6875 61.578125 
z
" id="Inter-Bold-105"/>
      <path d="M 21.171875 31.53125 
L 21.171875 0 
L 6.03125 0 
L 6.03125 54.546875 
L 20.453125 54.546875 
L 20.453125 44.921875 
L 21.09375 44.921875 
Q 22.9375 49.6875 27.171875 52.46875 
Q 31.421875 55.25 37.5 55.25 
Q 46.03125 55.25 51.171875 49.765625 
Q 56.328125 44.28125 56.328125 34.734375 
L 56.328125 0 
L 41.1875 0 
L 41.1875 32.03125 
Q 41.234375 37.03125 38.640625 39.859375 
Q 36.046875 42.6875 31.5 42.6875 
Q 26.921875 42.6875 24.0625 39.75 
Q 21.203125 36.828125 21.171875 31.53125 
z
" id="Inter-Bold-110"/>
      <path d="M 4.796875 12.78125 
L 4.796875 24.890625 
L 35.15625 72.734375 
L 54.40625 72.734375 
L 54.40625 25.109375 
L 63.421875 25.109375 
L 63.421875 12.78125 
L 54.40625 12.78125 
L 54.40625 0 
L 39.703125 0 
L 39.703125 12.78125 
z
M 39.984375 25.109375 
L 39.984375 55.96875 
L 39.421875 55.96875 
L 20.28125 25.671875 
L 20.28125 25.109375 
z
" id="Inter-Bold-52"/>
      <path d="M 6.03125 0 
L 6.03125 72.734375 
L 21.171875 72.734375 
L 21.171875 33.84375 
L 21.984375 33.84375 
L 39.453125 54.546875 
L 56.8125 54.546875 
L 36.578125 30.9375 
L 57.84375 0 
L 40.125 0 
L 25.25 21.984375 
L 21.171875 17.328125 
L 21.171875 0 
z
" id="Inter-Bold-107"/>
      <path d="M 30.6875 -1.0625 
Q 22.40625 -1.0625 16.390625 2.46875 
Q 10.375 6 7.109375 12.328125 
Q 3.84375 18.671875 3.84375 27.0625 
Q 3.84375 35.515625 7.109375 41.84375 
Q 10.375 48.1875 16.390625 51.71875 
Q 22.40625 55.25 30.6875 55.25 
Q 38.953125 55.25 44.96875 51.71875 
Q 51 48.1875 54.265625 41.84375 
Q 57.53125 35.515625 57.53125 27.0625 
Q 57.53125 18.671875 54.265625 12.328125 
Q 51 6 44.96875 2.46875 
Q 38.953125 -1.0625 30.6875 -1.0625 
z
M 30.75 10.65625 
Q 36.359375 10.65625 39.25 15.34375 
Q 42.15625 20.03125 42.15625 27.171875 
Q 42.15625 34.296875 39.25 39 
Q 36.359375 43.71875 30.75 43.71875 
Q 25.03125 43.71875 22.125 39 
Q 19.21875 34.296875 19.21875 27.171875 
Q 19.21875 20.03125 22.125 15.34375 
Q 25.03125 10.65625 30.75 10.65625 
z
" id="Inter-Bold-111"/>
      <path d="M 35.875 54.546875 
L 35.875 43.1875 
L 25.03125 43.1875 
L 25.03125 0 
L 9.90625 0 
L 9.90625 43.1875 
L 2.203125 43.1875 
L 2.203125 54.546875 
L 9.90625 54.546875 
L 9.90625 58.484375 
Q 9.90625 67.40625 15 71.765625 
Q 20.09375 76.140625 27.8125 76.140625 
Q 31.28125 76.140625 34.171875 75.609375 
Q 37.078125 75.078125 38.5 74.640625 
L 35.828125 63.28125 
Q 34.9375 63.5625 33.625 63.8125 
Q 32.3125 64.0625 30.96875 64.0625 
Q 27.625 64.0625 26.328125 62.515625 
Q 25.03125 60.96875 25.03125 58.203125 
L 25.03125 54.546875 
z
" id="Inter-Bold-102"/>
      <path d="M 6.03125 -20.453125 
L 6.03125 54.546875 
L 20.953125 54.546875 
L 20.953125 45.390625 
L 21.625 45.390625 
Q 22.65625 47.625 24.53125 49.890625 
Q 26.421875 52.171875 29.5 53.703125 
Q 32.59375 55.25 37.140625 55.25 
Q 43.140625 55.25 48.140625 52.140625 
Q 53.15625 49.046875 56.1875 42.8125 
Q 59.234375 36.578125 59.234375 27.203125 
Q 59.234375 18.078125 56.28125 11.8125 
Q 53.34375 5.546875 48.328125 2.328125 
Q 43.328125 -0.890625 37.109375 -0.890625 
Q 32.703125 -0.890625 29.625 0.5625 
Q 26.5625 2.03125 24.625 4.25 
Q 22.6875 6.46875 21.625 8.734375 
L 21.171875 8.734375 
L 21.171875 -20.453125 
z
M 20.84375 27.265625 
Q 20.84375 20 23.84375 15.578125 
Q 26.84375 11.15625 32.3125 11.15625 
Q 37.890625 11.15625 40.828125 15.640625 
Q 43.78125 20.140625 43.78125 27.265625 
Q 43.78125 34.375 40.84375 38.796875 
Q 37.921875 43.21875 32.3125 43.21875 
Q 26.8125 43.21875 23.828125 38.90625 
Q 20.84375 34.59375 20.84375 27.265625 
z
" id="Inter-Bold-112"/>
      <path d="M 56.890625 54.546875 
L 37.828125 0 
L 20.78125 0 
L 1.703125 54.546875 
L 17.6875 54.546875 
L 29.015625 15.515625 
L 29.578125 15.515625 
L 40.875 54.546875 
z
" id="Inter-Bold-118"/>
      <path d="M 70.484375 47.265625 
L 54.9375 47.265625 
Q 54.046875 53.265625 49.8125 56.6875 
Q 45.59375 60.125 39.28125 60.125 
Q 30.828125 60.125 25.734375 53.921875 
Q 20.640625 47.734375 20.640625 36.359375 
Q 20.640625 24.71875 25.765625 18.65625 
Q 30.890625 12.609375 39.171875 12.609375 
Q 45.3125 12.609375 49.578125 15.8125 
Q 53.84375 19.03125 54.9375 24.859375 
L 70.484375 24.78125 
Q 69.671875 18.109375 65.734375 12.21875 
Q 61.796875 6.328125 55.03125 2.65625 
Q 48.265625 -1 38.921875 -1 
Q 29.1875 -1 21.53125 3.40625 
Q 13.890625 7.8125 9.46875 16.15625 
Q 5.046875 24.5 5.046875 36.359375 
Q 5.046875 48.265625 9.515625 56.609375 
Q 14 64.953125 21.65625 69.328125 
Q 29.328125 73.71875 38.921875 73.71875 
Q 47.34375 73.71875 54.109375 70.609375 
Q 60.875 67.5 65.1875 61.59375 
Q 69.5 55.6875 70.484375 47.265625 
z
" id="Inter-Bold-67"/>
      <path d="M 73.15625 36.359375 
Q 73.15625 24.46875 68.65625 16.125 
Q 64.171875 7.78125 56.46875 3.390625 
Q 48.765625 -1 39.09375 -1 
Q 29.40625 -1 21.703125 3.40625 
Q 14 7.8125 9.515625 16.171875 
Q 5.046875 24.53125 5.046875 36.359375 
Q 5.046875 48.265625 9.515625 56.609375 
Q 14 64.953125 21.703125 69.328125 
Q 29.40625 73.71875 39.09375 73.71875 
Q 48.765625 73.71875 56.46875 69.328125 
Q 64.171875 64.953125 68.65625 56.609375 
Q 73.15625 48.265625 73.15625 36.359375 
z
M 57.5625 36.359375 
Q 57.5625 47.9375 52.515625 54.03125 
Q 47.484375 60.125 39.09375 60.125 
Q 30.71875 60.125 25.671875 54.03125 
Q 20.640625 47.9375 20.640625 36.359375 
Q 20.640625 24.828125 25.671875 18.71875 
Q 30.71875 12.609375 39.09375 12.609375 
Q 47.484375 12.609375 52.515625 18.71875 
Q 57.5625 24.828125 57.5625 36.359375 
z
" id="Inter-Bold-79"/>
      <path d="M 19.46875 72.734375 
L 37.046875 17.46875 
L 37.71875 17.46875 
L 55.328125 72.734375 
L 72.375 72.734375 
L 47.296875 0 
L 27.484375 0 
L 2.375 72.734375 
z
" id="Inter-Bold-86"/>
      <path d="M 21.703125 72.734375 
L 21.703125 0 
L 6.328125 0 
L 6.328125 72.734375 
z
" id="Inter-Bold-73"/>
      <path d="M 40.015625 35.859375 
L 40.015625 23.859375 
L 6.859375 23.859375 
L 6.859375 35.859375 
z
" id="Inter-Bold-45"/>
      <path d="M 36.015625 72.734375 
L 36.015625 0 
L 20.671875 0 
L 20.671875 53.90625 
L 20 53.90625 
Q 18.828125 52.09375 15.015625 50.296875 
Q 11.21875 48.515625 5.1875 48.515625 
L 5.1875 60.71875 
Q 9.875 60.71875 13.390625 62.796875 
Q 16.90625 64.875 18.890625 67.703125 
Q 20.875 70.53125 20.953125 72.734375 
z
" id="Inter-Bold-49"/>
      <path d="M 32.203125 73.9375 
Q 37.828125 73.9375 43.015625 72.0625 
Q 48.21875 70.203125 52.3125 66.046875 
Q 56.421875 61.890625 58.84375 55.046875 
Q 61.265625 48.21875 61.265625 38.25 
Q 61.265625 25.921875 57.59375 17.125 
Q 53.9375 8.34375 47.3125 3.671875 
Q 40.703125 -1 31.671875 -1 
Q 24.390625 -1 18.8125 1.828125 
Q 13.25 4.65625 9.859375 9.53125 
Q 6.46875 14.421875 5.75 20.53125 
L 20.921875 20.53125 
Q 21.8125 16.546875 24.640625 14.359375 
Q 27.484375 12.1875 31.671875 12.1875 
Q 38.78125 12.1875 42.46875 18.375 
Q 46.171875 24.578125 46.203125 35.375 
L 45.703125 35.375 
Q 43.296875 30.578125 38.328125 27.84375 
Q 33.375 25.109375 27.375 25.109375 
Q 20.953125 25.109375 15.875 28.140625 
Q 10.796875 31.171875 7.90625 36.46875 
Q 5.015625 41.765625 5.046875 48.578125 
Q 5.015625 55.96875 8.421875 61.703125 
Q 11.828125 67.4375 17.953125 70.703125 
Q 24.078125 73.96875 32.203125 73.9375 
z
M 32.3125 61.859375 
Q 26.953125 61.859375 23.4375 58.15625 
Q 19.921875 54.46875 19.953125 49 
Q 19.921875 43.609375 23.375 39.921875 
Q 26.84375 36.25 32.171875 36.25 
Q 35.6875 36.25 38.515625 37.984375 
Q 41.34375 39.734375 42.984375 42.640625 
Q 44.640625 45.5625 44.671875 49.078125 
Q 44.640625 52.59375 43.015625 55.484375 
Q 41.40625 58.375 38.640625 60.109375 
Q 35.875 61.859375 32.3125 61.859375 
z
" id="Inter-Bold-57"/>
      <path d="M 22.484375 9.9375 
L 22.09375 6.03125 
Q 21.625 1.34375 20.328125 -3.3125 
Q 19.03125 -7.984375 17.625 -11.78125 
Q 16.234375 -15.59375 15.375 -17.75 
L 5.578125 -17.75 
Q 6.109375 -15.65625 7.03125 -11.921875 
Q 7.953125 -8.203125 8.765625 -3.53125 
Q 9.59375 1.140625 9.796875 5.96875 
L 9.984375 9.9375 
z
" id="Inter-Bold-44"/>
      <path d="M 6.03125 0 
L 6.03125 54.546875 
L 20.703125 54.546875 
L 20.703125 45.03125 
L 21.265625 45.03125 
Q 22.765625 50.109375 26.265625 52.71875 
Q 29.765625 55.328125 34.375 55.328125 
Q 36.578125 55.328125 38.453125 54.796875 
Q 40.34375 54.265625 41.828125 53.34375 
L 37.28125 40.84375 
Q 36.21875 41.375 34.953125 41.734375 
Q 33.703125 42.109375 32.140625 42.109375 
Q 27.5625 42.109375 24.375 38.984375 
Q 21.203125 35.859375 21.171875 30.859375 
L 21.171875 0 
z
" id="Inter-Bold-114"/>
      <path d="M 30.6875 -1.0625 
Q 22.296875 -1.0625 16.28125 2.5 
Q 10.265625 6.078125 7.046875 12.421875 
Q 3.84375 18.78125 3.84375 27.0625 
Q 3.84375 35.4375 7.078125 41.78125 
Q 10.328125 48.125 16.328125 51.6875 
Q 22.34375 55.25 30.609375 55.25 
Q 37.75 55.25 43.125 52.65625 
Q 48.515625 50.078125 51.609375 45.390625 
Q 54.71875 40.703125 55.046875 34.375 
L 40.765625 34.375 
Q 40.171875 38.453125 37.59375 40.953125 
Q 35.015625 43.46875 30.859375 43.46875 
Q 25.609375 43.46875 22.40625 39.234375 
Q 19.21875 35.015625 19.21875 27.265625 
Q 19.21875 19.453125 22.390625 15.171875 
Q 25.5625 10.90625 30.859375 10.90625 
Q 34.765625 10.90625 37.421875 13.265625 
Q 40.09375 15.625 40.765625 20 
L 55.046875 20 
Q 54.6875 13.75 51.640625 8.984375 
Q 48.609375 4.21875 43.28125 1.578125 
Q 37.96875 -1.0625 30.6875 -1.0625 
z
" id="Inter-Bold-99"/>
     </defs>
     <use xlink:href="#Inter-Bold-68"/>
     <use x="72.727295" xlink:href="#Inter-Bold-101"/>
     <use x="132.492935" xlink:href="#Inter-Bold-97"/>
     <use x="190.518509" xlink:href="#Inter-Bold-116"/>
     <use x="229.36795" xlink:href="#Inter-Bold-104"/>
     <use x="291.796936" xlink:href="#Inter-Bold-115"/>
     <use x="347.975922" xlink:href="#Inter-Bold-32"/>
     <use x="371.164841" xlink:href="#Inter-Bold-119"/>
     <use x="456.179062" xlink:href="#Inter-Bold-105"/>
     <use x="483.380768" xlink:href="#Inter-Bold-116"/>
     <use x="522.230209" xlink:href="#Inter-Bold-104"/>
     <use x="584.659195" xlink:href="#Inter-Bold-105"/>
     <use x="611.860901" xlink:href="#Inter-Bold-110"/>
     <use x="674.041306" xlink:href="#Inter-Bold-32"/>
     <use x="697.230225" xlink:href="#Inter-Bold-52"/>
     <use x="765.021439" xlink:href="#Inter-Bold-32"/>
     <use x="788.210358" xlink:href="#Inter-Bold-119"/>
     <use x="873.224579" xlink:href="#Inter-Bold-101"/>
     <use x="932.990219" xlink:href="#Inter-Bold-101"/>
     <use x="992.755859" xlink:href="#Inter-Bold-107"/>
     <use x="1050.923477" xlink:href="#Inter-Bold-115"/>
     <use x="1107.102463" xlink:href="#Inter-Bold-32"/>
     <use x="1130.291382" xlink:href="#Inter-Bold-111"/>
     <use x="1191.655029" xlink:href="#Inter-Bold-102"/>
     <use x="1230.717529" xlink:href="#Inter-Bold-32"/>
     <use x="1253.906448" xlink:href="#Inter-Bold-97"/>
     <use x="1311.932022" xlink:href="#Inter-Bold-32"/>
     <use x="1335.120941" xlink:href="#Inter-Bold-112"/>
     <use x="1398.366699" xlink:href="#Inter-Bold-111"/>
     <use x="1459.730347" xlink:href="#Inter-Bold-115"/>
     <use x="1515.909332" xlink:href="#Inter-Bold-105"/>
     <use x="1543.111038" xlink:href="#Inter-Bold-116"/>
     <use x="1581.96048" xlink:href="#Inter-Bold-105"/>
     <use x="1609.162186" xlink:href="#Inter-Bold-118"/>
     <use x="1667.755951" xlink:href="#Inter-Bold-101"/>
     <use x="1727.521591" xlink:href="#Inter-Bold-32"/>
     <use x="1750.71051" xlink:href="#Inter-Bold-67"/>
     <use x="1825.923599" xlink:href="#Inter-Bold-79"/>
     <use x="1904.119644" xlink:href="#Inter-Bold-86"/>
     <use x="1978.906586" xlink:href="#Inter-Bold-73"/>
     <use x="2006.960571" xlink:href="#Inter-Bold-68"/>
     <use x="2079.687866" xlink:href="#Inter-Bold-45"/>
     <use x="2126.562881" xlink:href="#Inter-Bold-49"/>
     <use x="2173.970566" xlink:href="#Inter-Bold-57"/>
     <use x="2239.986206" xlink:href="#Inter-Bold-32"/>
     <use x="2263.175125" xlink:href="#Inter-Bold-116"/>
     <use x="2302.024567" xlink:href="#Inter-Bold-101"/>
     <use x="2361.790207" xlink:href="#Inter-Bold-115"/>
     <use x="2417.969193" xlink:href="#Inter-Bold-116"/>
     <use x="2456.818634" xlink:href="#Inter-Bold-44"/>
     <use x="2487.109833" xlink:href="#Inter-Bold-32"/>
     <use x="2510.298752" xlink:href="#Inter-Bold-112"/>
     <use x="2573.54451" xlink:href="#Inter-Bold-101"/>
     <use x="2633.31015" xlink:href="#Inter-Bold-114"/>
     <use x="2676.172379" xlink:href="#Inter-Bold-32"/>
     <use x="2699.361298" xlink:href="#Inter-Bold-99"/>
     <use x="2758.097107" xlink:href="#Inter-Bold-97"/>
     <use x="2816.122681" xlink:href="#Inter-Bold-112"/>
     <use x="2879.368439" xlink:href="#Inter-Bold-105"/>
     <use x="2906.570145" xlink:href="#Inter-Bold-116"/>
     <use x="2945.419586" xlink:href="#Inter-Bold-97"/>
    </g>
   </g>
   <g id="legend_1">
    <g id="patch_4">
     <path d="M 94.1125 98.614063 
L 203.685938 98.614063 
Q 205.685938 98.614063 205.685938 96.614063 
L 205.685938 40.225 
Q 205.685938 38.225 203.685938 38.225 
L 94.1125 38.225 
Q 92.1125 38.225 92.1125 40.225 
L 92.1125 96.614063 
Q 92.1125 98.614063 94.1125 98.614063 
z
" style="fill:#ffffff;opacity:0.8;stroke:#cccccc;stroke-linejoin:miter;"/>
    </g>
    <g id="line2d_34">
     <path d="M 96.1125 45.998438 
L 116.1125 45.998438 
" style="fill:none;stroke:#d4351c;stroke-linecap:square;stroke-width:2;"/>
    </g>
    <g id="line2d_35"/>
    <g id="text_23">
     <!-- Wales -->
     <g transform="translate(124.1125 49.498438)scale(0.1 -0.1)">
      <defs>
       <path d="M 22.015625 0 
L 2.125 72.734375 
L 11.078125 72.734375 
L 26.28125 13.5 
L 26.984375 13.5 
L 42.46875 72.734375 
L 52.421875 72.734375 
L 67.90625 13.5 
L 68.609375 13.5 
L 83.8125 72.734375 
L 92.75 72.734375 
L 72.875 0 
L 63.78125 0 
L 47.734375 57.953125 
L 47.15625 57.953125 
L 31.109375 0 
z
" id="Inter-Regular-87"/>
      </defs>
      <use xlink:href="#Inter-Regular-87"/>
      <use x="94.886383" xlink:href="#Inter-Regular-97"/>
      <use x="151.278442" xlink:href="#Inter-Regular-108"/>
      <use x="175.000031" xlink:href="#Inter-Regular-101"/>
      <use x="233.238678" xlink:href="#Inter-Regular-115"/>
     </g>
    </g>
    <g id="line2d_36">
     <path d="M 96.1125 60.317188 
L 116.1125 60.317188 
" style="fill:none;stroke:#003078;stroke-linecap:square;stroke-width:2;"/>
    </g>
    <g id="line2d_37"/>
    <g id="text_24">
     <!-- Scotland -->
     <g transform="translate(124.1125 63.817188)scale(0.1 -0.1)">
      <use xlink:href="#Inter-Regular-83"/>
      <use x="63.778427" xlink:href="#Inter-Regular-99"/>
      <use x="119.602295" xlink:href="#Inter-Regular-111"/>
      <use x="179.261398" xlink:href="#Inter-Regular-116"/>
      <use x="215.625046" xlink:href="#Inter-Regular-108"/>
      <use x="239.346634" xlink:href="#Inter-Regular-97"/>
      <use x="295.738693" xlink:href="#Inter-Regular-110"/>
      <use x="354.261429" xlink:href="#Inter-Regular-100"/>
     </g>
    </g>
    <g id="line2d_38">
     <path d="M 96.1125 74.635938 
L 116.1125 74.635938 
" style="fill:none;stroke:#ffdd00;stroke-linecap:square;stroke-width:2;"/>
    </g>
    <g id="line2d_39"/>
    <g id="text_25">
     <!-- Northern Ireland -->
     <g transform="translate(124.1125 78.135938)scale(0.1 -0.1)">
      <defs>
       <path d="M 17.609375 72.734375 
L 17.609375 0 
L 8.8125 0 
L 8.8125 72.734375 
z
" id="Inter-Regular-73"/>
      </defs>
      <use xlink:href="#Inter-Regular-78"/>
      <use x="75.284103" xlink:href="#Inter-Regular-111"/>
      <use x="134.943207" xlink:href="#Inter-Regular-114"/>
      <use x="173.295486" xlink:href="#Inter-Regular-116"/>
      <use x="209.659134" xlink:href="#Inter-Regular-104"/>
      <use x="268.750061" xlink:href="#Inter-Regular-101"/>
      <use x="326.988708" xlink:href="#Inter-Regular-114"/>
      <use x="365.340988" xlink:href="#Inter-Regular-110"/>
      <use x="423.863724" xlink:href="#Inter-Regular-32"/>
      <use x="451.988724" xlink:href="#Inter-Regular-73"/>
      <use x="478.40918" xlink:href="#Inter-Regular-114"/>
      <use x="516.761459" xlink:href="#Inter-Regular-101"/>
      <use x="575.000107" xlink:href="#Inter-Regular-108"/>
      <use x="598.721695" xlink:href="#Inter-Regular-97"/>
      <use x="655.113754" xlink:href="#Inter-Regular-110"/>
      <use x="713.63649" xlink:href="#Inter-Regular-100"/>
     </g>
    </g>
    <g id="line2d_40">
     <path d="M 96.1125 88.954688 
L 116.1125 88.954688 
" style="fill:none;stroke:#5694ca;stroke-linecap:square;stroke-width:2;"/>
    </g>
    <g id="line2d_41"/>
    <g id="text_26">
     <!-- England -->
     <g transform="translate(124.1125 92.454688)scale(0.1 -0.1)">
      <defs>
       <path d="M 8.8125 0 
L 8.8125 72.734375 
L 52.703125 72.734375 
L 52.703125 64.921875 
L 17.609375 64.921875 
L 17.609375 40.34375 
L 50.421875 40.34375 
L 50.421875 32.53125 
L 17.609375 32.53125 
L 17.609375 7.8125 
L 53.265625 7.8125 
L 53.265625 0 
z
" id="Inter-Regular-69"/>
      </defs>
      <use xlink:href="#Inter-Regular-69"/>
      <use x="59.801147" xlink:href="#Inter-Regular-110"/>
      <use x="118.323883" xlink:href="#Inter-Regular-103"/>
      <use x="179.261398" xlink:href="#Inter-Regular-108"/>
      <use x="202.982986" xlink:href="#Inter-Regular-97"/>
      <use x="259.375046" xlink:href="#Inter-Regular-110"/>
      <use x="317.897781" xlink:href="#Inter-Regular-100"/>
     </g>
    </g>
   </g>
  </g>
 </g>
 <defs>
  <clipPath id="p91e0b7cf58">
   <rect height="443.52" width="669.6" x="87.1125" y="33.225"/>
  </clipPath>
 </defs>
</svg>
