<?xml version="1.0" encoding="utf-8" standalone="no"?>
<!DOCTYPE svg PUBLIC "-//W3C//DTD SVG 1.1//EN"
  "http://www.w3.org/Graphics/SVG/1.1/DTD/svg11.dtd">
<svg version="1.1" viewBox="0 0 761.970313 511.27625" xmlns="http://www.w3.org/2000/svg" xmlns:xlink="http://www.w3.org/1999/xlink">
 <metadata>
  <rdf:RDF xmlns:cc="http://creativecommons.org/ns#" xmlns:dc="http://purl.org/dc/elements/1.1/" xmlns:rdf="http://www.w3.org/1999/02/22-rdf-syntax-ns#">
   <cc:Work>
    <dc:type rdf:resource="http://purl.org/dc/dcmitype/StillImage"/>
    <dc:date>2021-04-18T16:06:27.825080</dc:date>
    <dc:format>image/svg+xml</dc:format>
    <dc:creator>
     <cc:Agent>
      <dc:title>Matplotlib v3.4.1, https://matplotlib.org/</dc:title>
     </cc:Agent>
    </dc:creator>
   </cc:Work>
  </rdf:RDF>
 </metadata>
 <defs>
  <style type="text/css">*{stroke-linecap:butt;stroke-linejoin:round;}</style>
 </defs>
 <g id="figure_1">
  <g id="patch_1">
   <path d="M 0 511.27625 
L 761.970313 511.27625 
L 761.970313 0 
L 0 0 
z
" style="fill:#ffffff;"/>
  </g>
  <g id="axes_1">
   <g id="patch_2">
    <path d="M 74.370313 476.745 
L 743.970313 476.745 
L 743.970313 33.225 
L 74.370313 33.225 
z
" style="fill:#ffffff;"/>
   </g>
   <g id="matplotlib.axis_1">
    <g id="xtick_1">
     <g id="line2d_1">
      <defs>
       <path d="M 0 0 
L 0 3.5 
" id="m7d5c2a9fa1" style="stroke:#000000;stroke-width:0.8;"/>
      </defs>
      <g>
       <use style="stroke:#000000;stroke-width:0.8;" x="74.370312" xlink:href="#m7d5c2a9fa1" y="476.745"/>
      </g>
     </g>
     <g id="text_1">
      <!-- 01 Mar -->
      <g transform="translate(58.333594 491.018438)scale(0.1 -0.1)">
       <defs>
        <path d="M 2000 -64 
Q 1230 -64 806 561 
Q 382 1186 382 2327 
Q 382 3459 809 4088 
Q 1236 4718 2000 4718 
Q 2764 4718 3191 4088 
Q 3618 3459 3618 2327 
Q 3618 1186 3194 561 
Q 2771 -64 2000 -64 
z
M 2000 436 
Q 2509 436 2791 927 
Q 3073 1418 3073 2327 
Q 3073 3234 2789 3730 
Q 2505 4227 2000 4227 
Q 1496 4227 1211 3730 
Q 927 3234 927 2327 
Q 927 1418 1210 927 
Q 1493 436 2000 436 
z
" id="Inter-Regular-30" transform="scale(0.015625)"/>
        <path d="M 1973 4655 
L 1973 0 
L 1409 0 
L 1409 3836 
L 1373 3836 
Q 1341 3773 1209 3692 
Q 1077 3611 868 3551 
Q 659 3491 391 3491 
L 391 3964 
Q 661 3964 859 4061 
Q 1057 4159 1190 4291 
Q 1323 4423 1392 4529 
Q 1461 4636 1473 4655 
L 1973 4655 
z
" id="Inter-Regular-31" transform="scale(0.015625)"/>
        <path id="Inter-Regular-20" transform="scale(0.015625)"/>
        <path d="M 564 4655 
L 1236 4655 
L 2818 791 
L 2873 791 
L 4455 4655 
L 5127 4655 
L 5127 0 
L 4600 0 
L 4600 3536 
L 4555 3536 
L 3100 0 
L 2591 0 
L 1136 3536 
L 1091 3536 
L 1091 0 
L 564 0 
L 564 4655 
z
" id="Inter-Regular-4d" transform="scale(0.015625)"/>
        <path d="M 1518 -82 
Q 1186 -82 916 44 
Q 646 170 486 410 
Q 327 650 327 991 
Q 327 1291 445 1478 
Q 564 1666 761 1773 
Q 959 1880 1199 1933 
Q 1439 1986 1682 2018 
Q 2000 2059 2199 2080 
Q 2398 2102 2490 2154 
Q 2582 2207 2582 2336 
L 2582 2355 
Q 2582 2691 2399 2877 
Q 2216 3064 1846 3064 
Q 1461 3064 1243 2895 
Q 1025 2727 936 2536 
L 427 2718 
Q 564 3036 792 3214 
Q 1021 3393 1292 3464 
Q 1564 3536 1827 3536 
Q 1996 3536 2215 3496 
Q 2434 3457 2640 3334 
Q 2846 3211 2982 2963 
Q 3118 2716 3118 2300 
L 3118 0 
L 2582 0 
L 2582 473 
L 2555 473 
Q 2500 359 2373 229 
Q 2246 100 2034 9 
Q 1823 -82 1518 -82 
z
M 1600 400 
Q 1918 400 2137 525 
Q 2357 650 2469 847 
Q 2582 1045 2582 1264 
L 2582 1755 
Q 2548 1714 2433 1681 
Q 2318 1648 2169 1624 
Q 2021 1600 1881 1583 
Q 1741 1566 1655 1555 
Q 1446 1527 1265 1467 
Q 1084 1407 974 1287 
Q 864 1168 864 964 
Q 864 684 1072 542 
Q 1280 400 1600 400 
z
" id="Inter-Regular-61" transform="scale(0.015625)"/>
        <path d="M 491 0 
L 491 3491 
L 1009 3491 
L 1009 2964 
L 1046 2964 
Q 1139 3223 1389 3384 
Q 1639 3545 1955 3545 
Q 2100 3545 2209 3511 
Q 2318 3477 2400 3418 
L 2218 2964 
Q 2161 2993 2085 3010 
Q 2009 3027 1909 3027 
Q 1527 3027 1277 2794 
Q 1027 2561 1027 2209 
L 1027 0 
L 491 0 
z
" id="Inter-Regular-72" transform="scale(0.015625)"/>
       </defs>
       <use xlink:href="#Inter-Regular-30"/>
       <use x="62.500015" xlink:href="#Inter-Regular-31"/>
       <use x="106.676163" xlink:href="#Inter-Regular-20"/>
       <use x="134.801163" xlink:href="#Inter-Regular-4d"/>
       <use x="225.99437" xlink:href="#Inter-Regular-61"/>
       <use x="282.386429" xlink:href="#Inter-Regular-72"/>
      </g>
     </g>
    </g>
    <g id="xtick_2">
     <g id="line2d_2">
      <g>
       <use style="stroke:#000000;stroke-width:0.8;" x="124.549481" xlink:href="#m7d5c2a9fa1" y="476.745"/>
      </g>
     </g>
     <g id="text_2">
      <!-- 01 Apr -->
      <g transform="translate(109.464325 491.116875)scale(0.1 -0.1)">
       <defs>
        <path d="M 755 0 
L 164 0 
L 1873 4655 
L 2455 4655 
L 4164 0 
L 3573 0 
L 3105 1318 
L 1223 1318 
L 755 0 
z
M 1400 1818 
L 2927 1818 
L 2182 3918 
L 2146 3918 
L 1400 1818 
z
" id="Inter-Regular-41" transform="scale(0.015625)"/>
        <path d="M 491 -1309 
L 491 3491 
L 1009 3491 
L 1009 2936 
L 1073 2936 
Q 1132 3027 1237 3169 
Q 1343 3311 1542 3423 
Q 1741 3536 2082 3536 
Q 2523 3536 2859 3315 
Q 3196 3095 3384 2690 
Q 3573 2286 3573 1736 
Q 3573 1182 3384 776 
Q 3196 370 2861 148 
Q 2527 -73 2091 -73 
Q 1755 -73 1552 39 
Q 1350 152 1241 296 
Q 1132 441 1073 536 
L 1027 536 
L 1027 -1309 
L 491 -1309 
z
M 1018 1745 
Q 1018 1152 1276 780 
Q 1534 409 2018 409 
Q 2355 409 2581 587 
Q 2807 766 2921 1069 
Q 3036 1373 3036 1745 
Q 3036 2114 2923 2410 
Q 2811 2707 2585 2881 
Q 2359 3055 2018 3055 
Q 1527 3055 1272 2693 
Q 1018 2332 1018 1745 
z
" id="Inter-Regular-70" transform="scale(0.015625)"/>
       </defs>
       <use xlink:href="#Inter-Regular-30"/>
       <use x="62.500015" xlink:href="#Inter-Regular-31"/>
       <use x="106.676163" xlink:href="#Inter-Regular-20"/>
       <use x="134.801163" xlink:href="#Inter-Regular-41"/>
       <use x="202.41481" xlink:href="#Inter-Regular-70"/>
       <use x="263.352325" xlink:href="#Inter-Regular-72"/>
      </g>
     </g>
    </g>
    <g id="xtick_3">
     <g id="line2d_3">
      <g>
       <use style="stroke:#000000;stroke-width:0.8;" x="173.109967" xlink:href="#m7d5c2a9fa1" y="476.745"/>
      </g>
     </g>
     <g id="text_3">
      <!-- 01 May -->
      <g transform="translate(156.206842 491.116875)scale(0.1 -0.1)">
       <defs>
        <path d="M 818 -1355 
Q 682 -1355 575 -1333 
Q 468 -1311 427 -1291 
L 564 -818 
Q 857 -893 1053 -814 
Q 1250 -736 1391 -345 
L 1509 -18 
L 218 3491 
L 800 3491 
L 1764 709 
L 1800 709 
L 2764 3491 
L 3346 3491 
L 1846 -564 
Q 1550 -1355 818 -1355 
z
" id="Inter-Regular-79" transform="scale(0.015625)"/>
       </defs>
       <use xlink:href="#Inter-Regular-30"/>
       <use x="62.500015" xlink:href="#Inter-Regular-31"/>
       <use x="106.676163" xlink:href="#Inter-Regular-20"/>
       <use x="134.801163" xlink:href="#Inter-Regular-4d"/>
       <use x="225.99437" xlink:href="#Inter-Regular-61"/>
       <use x="282.386429" xlink:href="#Inter-Regular-79"/>
      </g>
     </g>
    </g>
    <g id="xtick_4">
     <g id="line2d_4">
      <g>
       <use style="stroke:#000000;stroke-width:0.8;" x="223.289136" xlink:href="#m7d5c2a9fa1" y="476.745"/>
      </g>
     </g>
     <g id="text_4">
      <!-- 01 Jun -->
      <g transform="translate(208.004761 491.018438)scale(0.1 -0.1)">
       <defs>
        <path d="M 2346 4655 
L 2909 4655 
L 2909 1327 
Q 2909 657 2549 296 
Q 2189 -64 1582 -64 
Q 1200 -64 902 76 
Q 605 216 434 475 
Q 264 734 264 1091 
L 818 1091 
Q 818 795 1034 615 
Q 1250 436 1582 436 
Q 1948 436 2147 664 
Q 2346 893 2346 1327 
L 2346 4655 
z
" id="Inter-Regular-4a" transform="scale(0.015625)"/>
        <path d="M 2691 1427 
L 2691 3491 
L 3227 3491 
L 3227 0 
L 2691 0 
L 2691 591 
L 2655 591 
Q 2532 325 2273 140 
Q 2014 -45 1618 -45 
Q 1127 -45 809 280 
Q 491 605 491 1273 
L 491 3491 
L 1027 3491 
L 1027 1309 
Q 1027 927 1242 700 
Q 1457 473 1791 473 
Q 1991 473 2199 575 
Q 2407 677 2549 888 
Q 2691 1100 2691 1427 
z
" id="Inter-Regular-75" transform="scale(0.015625)"/>
        <path d="M 1027 2100 
L 1027 0 
L 491 0 
L 491 3491 
L 1009 3491 
L 1009 2945 
L 1055 2945 
Q 1177 3211 1427 3373 
Q 1677 3536 2073 3536 
Q 2602 3536 2928 3211 
Q 3255 2886 3255 2218 
L 3255 0 
L 2718 0 
L 2718 2182 
Q 2718 2593 2504 2824 
Q 2291 3055 1918 3055 
Q 1534 3055 1280 2806 
Q 1027 2557 1027 2100 
z
" id="Inter-Regular-6e" transform="scale(0.015625)"/>
       </defs>
       <use xlink:href="#Inter-Regular-30"/>
       <use x="62.500015" xlink:href="#Inter-Regular-31"/>
       <use x="106.676163" xlink:href="#Inter-Regular-20"/>
       <use x="134.801163" xlink:href="#Inter-Regular-4a"/>
       <use x="189.062531" xlink:href="#Inter-Regular-75"/>
       <use x="247.159134" xlink:href="#Inter-Regular-6e"/>
      </g>
     </g>
    </g>
    <g id="xtick_5">
     <g id="line2d_5">
      <g>
       <use style="stroke:#000000;stroke-width:0.8;" x="271.849621" xlink:href="#m7d5c2a9fa1" y="476.745"/>
      </g>
     </g>
     <g id="text_5">
      <!-- 01 Jul -->
      <g transform="translate(258.305871 491.018438)scale(0.1 -0.1)">
       <defs>
        <path d="M 1027 4655 
L 1027 0 
L 491 0 
L 491 4655 
L 1027 4655 
z
" id="Inter-Regular-6c" transform="scale(0.015625)"/>
       </defs>
       <use xlink:href="#Inter-Regular-30"/>
       <use x="62.500015" xlink:href="#Inter-Regular-31"/>
       <use x="106.676163" xlink:href="#Inter-Regular-20"/>
       <use x="134.801163" xlink:href="#Inter-Regular-4a"/>
       <use x="189.062531" xlink:href="#Inter-Regular-75"/>
       <use x="247.159134" xlink:href="#Inter-Regular-6c"/>
      </g>
     </g>
    </g>
    <g id="xtick_6">
     <g id="line2d_6">
      <g>
       <use style="stroke:#000000;stroke-width:0.8;" x="322.02879" xlink:href="#m7d5c2a9fa1" y="476.745"/>
      </g>
     </g>
     <g id="text_6">
      <!-- 01 Aug -->
      <g transform="translate(305.956915 491.116875)scale(0.1 -0.1)">
       <defs>
        <path d="M 1900 -1382 
Q 1316 -1382 976 -1169 
Q 636 -957 473 -682 
L 900 -382 
Q 973 -477 1084 -601 
Q 1196 -725 1390 -817 
Q 1584 -909 1900 -909 
Q 2323 -909 2598 -704 
Q 2873 -500 2873 -64 
L 2873 645 
L 2827 645 
Q 2768 550 2660 410 
Q 2552 270 2351 162 
Q 2150 55 1809 55 
Q 1386 55 1051 255 
Q 716 455 521 836 
Q 327 1218 327 1764 
Q 327 2300 516 2699 
Q 705 3098 1041 3317 
Q 1377 3536 1818 3536 
Q 2159 3536 2360 3423 
Q 2561 3311 2669 3169 
Q 2777 3027 2836 2936 
L 2891 2936 
L 2891 3491 
L 3409 3491 
L 3409 -100 
Q 3409 -550 3205 -833 
Q 3002 -1116 2660 -1249 
Q 2318 -1382 1900 -1382 
z
M 1882 536 
Q 2366 536 2624 864 
Q 2882 1193 2882 1773 
Q 2882 2339 2627 2697 
Q 2373 3055 1882 3055 
Q 1541 3055 1315 2882 
Q 1089 2709 976 2418 
Q 864 2127 864 1773 
Q 864 1227 1120 881 
Q 1377 536 1882 536 
z
" id="Inter-Regular-67" transform="scale(0.015625)"/>
       </defs>
       <use xlink:href="#Inter-Regular-30"/>
       <use x="62.500015" xlink:href="#Inter-Regular-31"/>
       <use x="106.676163" xlink:href="#Inter-Regular-20"/>
       <use x="134.801163" xlink:href="#Inter-Regular-41"/>
       <use x="202.41481" xlink:href="#Inter-Regular-75"/>
       <use x="260.511414" xlink:href="#Inter-Regular-67"/>
      </g>
     </g>
    </g>
    <g id="xtick_7">
     <g id="line2d_7">
      <g>
       <use style="stroke:#000000;stroke-width:0.8;" x="372.207959" xlink:href="#m7d5c2a9fa1" y="476.745"/>
      </g>
     </g>
     <g id="text_7">
      <!-- 01 Sep -->
      <g transform="translate(356.320459 491.116875)scale(0.1 -0.1)">
       <defs>
        <path d="M 3109 3491 
Q 3068 3836 2777 4027 
Q 2486 4218 2064 4218 
Q 1600 4218 1318 3999 
Q 1036 3780 1036 3445 
Q 1036 3195 1189 3042 
Q 1343 2889 1553 2803 
Q 1764 2718 1936 2673 
L 2409 2545 
Q 2591 2498 2815 2414 
Q 3039 2330 3244 2185 
Q 3450 2041 3584 1816 
Q 3718 1591 3718 1264 
Q 3718 886 3521 581 
Q 3325 277 2949 97 
Q 2573 -82 2036 -82 
Q 1286 -82 845 272 
Q 405 627 364 1200 
L 946 1200 
Q 968 936 1124 764 
Q 1280 593 1519 510 
Q 1759 427 2036 427 
Q 2359 427 2616 533 
Q 2873 639 3023 828 
Q 3173 1018 3173 1273 
Q 3173 1505 3043 1650 
Q 2914 1795 2702 1886 
Q 2491 1977 2246 2045 
L 1673 2209 
Q 1127 2366 809 2657 
Q 491 2948 491 3418 
Q 491 3809 703 4101 
Q 916 4393 1276 4555 
Q 1636 4718 2082 4718 
Q 2532 4718 2882 4558 
Q 3232 4398 3437 4120 
Q 3643 3843 3655 3491 
L 3109 3491 
z
" id="Inter-Regular-53" transform="scale(0.015625)"/>
        <path d="M 1955 -73 
Q 1450 -73 1085 151 
Q 721 375 524 778 
Q 327 1182 327 1718 
Q 327 2255 524 2665 
Q 721 3075 1074 3305 
Q 1427 3536 1900 3536 
Q 2173 3536 2439 3445 
Q 2705 3355 2923 3151 
Q 3141 2948 3270 2614 
Q 3400 2280 3400 1791 
L 3400 1564 
L 866 1564 
Q 884 1005 1183 707 
Q 1482 409 1955 409 
Q 2271 409 2498 545 
Q 2725 682 2827 955 
L 3346 809 
Q 3223 414 2854 170 
Q 2486 -73 1955 -73 
z
M 866 2027 
L 2855 2027 
Q 2855 2470 2595 2762 
Q 2336 3055 1900 3055 
Q 1593 3055 1368 2911 
Q 1143 2768 1013 2533 
Q 884 2298 866 2027 
z
" id="Inter-Regular-65" transform="scale(0.015625)"/>
       </defs>
       <use xlink:href="#Inter-Regular-30"/>
       <use x="62.500015" xlink:href="#Inter-Regular-31"/>
       <use x="106.676163" xlink:href="#Inter-Regular-20"/>
       <use x="134.801163" xlink:href="#Inter-Regular-53"/>
       <use x="198.57959" xlink:href="#Inter-Regular-65"/>
       <use x="256.818237" xlink:href="#Inter-Regular-70"/>
      </g>
     </g>
    </g>
    <g id="xtick_8">
     <g id="line2d_8">
      <g>
       <use style="stroke:#000000;stroke-width:0.8;" x="420.768445" xlink:href="#m7d5c2a9fa1" y="476.745"/>
      </g>
     </g>
     <g id="text_8">
      <!-- 01 Oct -->
      <g transform="translate(405.612195 491.018438)scale(0.1 -0.1)">
       <defs>
        <path d="M 4491 2327 
Q 4491 1591 4225 1054 
Q 3959 518 3495 227 
Q 3032 -64 2436 -64 
Q 1841 -64 1377 227 
Q 914 518 648 1054 
Q 382 1591 382 2327 
Q 382 3064 648 3600 
Q 914 4136 1377 4427 
Q 1841 4718 2436 4718 
Q 3032 4718 3495 4427 
Q 3959 4136 4225 3600 
Q 4491 3064 4491 2327 
z
M 3946 2327 
Q 3946 2932 3744 3348 
Q 3543 3764 3201 3977 
Q 2859 4191 2436 4191 
Q 2014 4191 1672 3977 
Q 1330 3764 1128 3348 
Q 927 2932 927 2327 
Q 927 1723 1128 1307 
Q 1330 891 1672 677 
Q 2014 464 2436 464 
Q 2859 464 3201 677 
Q 3543 891 3744 1307 
Q 3946 1723 3946 2327 
z
" id="Inter-Regular-4f" transform="scale(0.015625)"/>
        <path d="M 1909 -73 
Q 1418 -73 1063 159 
Q 709 391 518 798 
Q 327 1205 327 1727 
Q 327 2259 524 2667 
Q 721 3075 1074 3305 
Q 1427 3536 1900 3536 
Q 2268 3536 2563 3400 
Q 2859 3264 3047 3018 
Q 3236 2773 3282 2445 
L 2746 2445 
Q 2684 2684 2474 2869 
Q 2264 3055 1909 3055 
Q 1439 3055 1151 2697 
Q 864 2339 864 1745 
Q 864 1139 1148 774 
Q 1432 409 1909 409 
Q 2223 409 2447 570 
Q 2671 732 2746 1018 
L 3282 1018 
Q 3236 709 3058 462 
Q 2880 216 2588 71 
Q 2296 -73 1909 -73 
z
" id="Inter-Regular-63" transform="scale(0.015625)"/>
        <path d="M 2009 3491 
L 2009 3036 
L 1264 3036 
L 1264 1000 
Q 1264 773 1331 660 
Q 1398 548 1503 510 
Q 1609 473 1727 473 
Q 1816 473 1873 483 
Q 1930 493 1964 500 
L 2073 18 
Q 2018 -2 1920 -23 
Q 1823 -45 1673 -45 
Q 1446 -45 1228 52 
Q 1011 150 869 350 
Q 727 550 727 855 
L 727 3036 
L 200 3036 
L 200 3491 
L 727 3491 
L 727 4327 
L 1264 4327 
L 1264 3491 
L 2009 3491 
z
" id="Inter-Regular-74" transform="scale(0.015625)"/>
       </defs>
       <use xlink:href="#Inter-Regular-30"/>
       <use x="62.500015" xlink:href="#Inter-Regular-31"/>
       <use x="106.676163" xlink:href="#Inter-Regular-20"/>
       <use x="134.801163" xlink:href="#Inter-Regular-4f"/>
       <use x="210.937546" xlink:href="#Inter-Regular-63"/>
       <use x="266.761414" xlink:href="#Inter-Regular-74"/>
      </g>
     </g>
    </g>
    <g id="xtick_9">
     <g id="line2d_9">
      <g>
       <use style="stroke:#000000;stroke-width:0.8;" x="470.947613" xlink:href="#m7d5c2a9fa1" y="476.745"/>
      </g>
     </g>
     <g id="text_9">
      <!-- 01 Nov -->
      <g transform="translate(454.676519 491.018438)scale(0.1 -0.1)">
       <defs>
        <path d="M 4255 4655 
L 4255 0 
L 3709 0 
L 1173 3655 
L 1127 3655 
L 1127 0 
L 564 0 
L 564 4655 
L 1109 4655 
L 3655 991 
L 3700 991 
L 3700 4655 
L 4255 4655 
z
" id="Inter-Regular-4e" transform="scale(0.015625)"/>
        <path d="M 1909 -73 
Q 1436 -73 1080 152 
Q 725 377 526 781 
Q 327 1186 327 1727 
Q 327 2273 526 2679 
Q 725 3086 1080 3311 
Q 1436 3536 1909 3536 
Q 2382 3536 2737 3311 
Q 3093 3086 3292 2679 
Q 3491 2273 3491 1727 
Q 3491 1186 3292 781 
Q 3093 377 2737 152 
Q 2382 -73 1909 -73 
z
M 1909 409 
Q 2268 409 2500 593 
Q 2732 777 2843 1077 
Q 2955 1377 2955 1727 
Q 2955 2077 2843 2379 
Q 2732 2682 2500 2868 
Q 2268 3055 1909 3055 
Q 1550 3055 1318 2868 
Q 1086 2682 975 2379 
Q 864 2077 864 1727 
Q 864 1377 975 1077 
Q 1086 777 1318 593 
Q 1550 409 1909 409 
z
" id="Inter-Regular-6f" transform="scale(0.015625)"/>
        <path d="M 3346 3491 
L 2055 0 
L 1509 0 
L 218 3491 
L 800 3491 
L 1764 709 
L 1800 709 
L 2764 3491 
L 3346 3491 
z
" id="Inter-Regular-76" transform="scale(0.015625)"/>
       </defs>
       <use xlink:href="#Inter-Regular-30"/>
       <use x="62.500015" xlink:href="#Inter-Regular-31"/>
       <use x="106.676163" xlink:href="#Inter-Regular-20"/>
       <use x="134.801163" xlink:href="#Inter-Regular-4e"/>
       <use x="210.085266" xlink:href="#Inter-Regular-6f"/>
       <use x="269.74437" xlink:href="#Inter-Regular-76"/>
      </g>
     </g>
    </g>
    <g id="xtick_10">
     <g id="line2d_10">
      <g>
       <use style="stroke:#000000;stroke-width:0.8;" x="519.508099" xlink:href="#m7d5c2a9fa1" y="476.745"/>
      </g>
     </g>
     <g id="text_10">
      <!-- 01 Dec -->
      <g transform="translate(503.47138 491.018438)scale(0.1 -0.1)">
       <defs>
        <path d="M 2000 0 
L 564 0 
L 564 4655 
L 2064 4655 
Q 2741 4655 3223 4376 
Q 3705 4098 3961 3578 
Q 4218 3059 4218 2336 
Q 4218 1609 3959 1085 
Q 3700 561 3204 280 
Q 2709 0 2000 0 
z
M 1127 500 
L 1964 500 
Q 2830 500 3251 992 
Q 3673 1484 3673 2336 
Q 3673 3182 3259 3668 
Q 2846 4155 2027 4155 
L 1127 4155 
L 1127 500 
z
" id="Inter-Regular-44" transform="scale(0.015625)"/>
       </defs>
       <use xlink:href="#Inter-Regular-30"/>
       <use x="62.500015" xlink:href="#Inter-Regular-31"/>
       <use x="106.676163" xlink:href="#Inter-Regular-20"/>
       <use x="134.801163" xlink:href="#Inter-Regular-44"/>
       <use x="206.676178" xlink:href="#Inter-Regular-65"/>
       <use x="264.914825" xlink:href="#Inter-Regular-63"/>
      </g>
     </g>
    </g>
    <g id="xtick_11">
     <g id="line2d_11">
      <g>
       <use style="stroke:#000000;stroke-width:0.8;" x="569.687268" xlink:href="#m7d5c2a9fa1" y="476.745"/>
      </g>
     </g>
     <g id="text_11">
      <!-- 01 Jan -->
      <g transform="translate(554.488049 491.018438)scale(0.1 -0.1)">
       <use xlink:href="#Inter-Regular-30"/>
       <use x="62.500015" xlink:href="#Inter-Regular-31"/>
       <use x="106.676163" xlink:href="#Inter-Regular-20"/>
       <use x="134.801163" xlink:href="#Inter-Regular-4a"/>
       <use x="189.062531" xlink:href="#Inter-Regular-61"/>
       <use x="245.45459" xlink:href="#Inter-Regular-6e"/>
      </g>
     </g>
    </g>
    <g id="xtick_12">
     <g id="line2d_12">
      <g>
       <use style="stroke:#000000;stroke-width:0.8;" x="619.866436" xlink:href="#m7d5c2a9fa1" y="476.745"/>
      </g>
     </g>
     <g id="text_12">
      <!-- 01 Feb -->
      <g transform="translate(604.177374 491.018438)scale(0.1 -0.1)">
       <defs>
        <path d="M 564 0 
L 564 4655 
L 3355 4655 
L 3355 4155 
L 1127 4155 
L 1127 2582 
L 3146 2582 
L 3146 2082 
L 1127 2082 
L 1127 0 
L 564 0 
z
" id="Inter-Regular-46" transform="scale(0.015625)"/>
        <path d="M 564 0 
L 564 4655 
L 1100 4655 
L 1100 2936 
L 1146 2936 
Q 1205 3027 1310 3169 
Q 1416 3311 1615 3423 
Q 1814 3536 2155 3536 
Q 2596 3536 2932 3315 
Q 3268 3095 3457 2690 
Q 3646 2286 3646 1736 
Q 3646 1182 3457 776 
Q 3268 370 2934 148 
Q 2600 -73 2164 -73 
Q 1827 -73 1625 39 
Q 1423 152 1314 296 
Q 1205 441 1146 536 
L 1082 536 
L 1082 0 
L 564 0 
z
M 1091 1745 
Q 1091 1152 1349 780 
Q 1607 409 2091 409 
Q 2427 409 2653 587 
Q 2880 766 2994 1069 
Q 3109 1373 3109 1745 
Q 3109 2114 2996 2410 
Q 2884 2707 2658 2881 
Q 2432 3055 2091 3055 
Q 1600 3055 1345 2693 
Q 1091 2332 1091 1745 
z
" id="Inter-Regular-62" transform="scale(0.015625)"/>
       </defs>
       <use xlink:href="#Inter-Regular-30"/>
       <use x="62.500015" xlink:href="#Inter-Regular-31"/>
       <use x="106.676163" xlink:href="#Inter-Regular-20"/>
       <use x="134.801163" xlink:href="#Inter-Regular-46"/>
       <use x="193.465942" xlink:href="#Inter-Regular-65"/>
       <use x="251.70459" xlink:href="#Inter-Regular-62"/>
      </g>
     </g>
    </g>
    <g id="xtick_13">
     <g id="line2d_13">
      <g>
       <use style="stroke:#000000;stroke-width:0.8;" x="665.189556" xlink:href="#m7d5c2a9fa1" y="476.745"/>
      </g>
     </g>
     <g id="text_13">
      <!-- 01 Mar -->
      <g transform="translate(649.152838 491.018438)scale(0.1 -0.1)">
       <use xlink:href="#Inter-Regular-30"/>
       <use x="62.500015" xlink:href="#Inter-Regular-31"/>
       <use x="106.676163" xlink:href="#Inter-Regular-20"/>
       <use x="134.801163" xlink:href="#Inter-Regular-4d"/>
       <use x="225.99437" xlink:href="#Inter-Regular-61"/>
       <use x="282.386429" xlink:href="#Inter-Regular-72"/>
      </g>
     </g>
    </g>
    <g id="xtick_14">
     <g id="line2d_14">
      <g>
       <use style="stroke:#000000;stroke-width:0.8;" x="715.368725" xlink:href="#m7d5c2a9fa1" y="476.745"/>
      </g>
     </g>
     <g id="text_14">
      <!-- 01 Apr -->
      <g transform="translate(700.283569 491.116875)scale(0.1 -0.1)">
       <use xlink:href="#Inter-Regular-30"/>
       <use x="62.500015" xlink:href="#Inter-Regular-31"/>
       <use x="106.676163" xlink:href="#Inter-Regular-20"/>
       <use x="134.801163" xlink:href="#Inter-Regular-41"/>
       <use x="202.41481" xlink:href="#Inter-Regular-70"/>
       <use x="263.352325" xlink:href="#Inter-Regular-72"/>
      </g>
     </g>
    </g>
   </g>
   <g id="matplotlib.axis_2">
    <g id="ytick_1">
     <g id="line2d_15">
      <path clip-path="url(#p0b21840ffc)" d="M 74.370313 476.745 
L 743.970313 476.745 
" style="fill:none;stroke:#e5e5e5;stroke-linecap:square;stroke-width:0.8;"/>
     </g>
     <g id="line2d_16">
      <defs>
       <path d="M 0 0 
L -3.5 0 
" id="m301e4543cc" style="stroke:#000000;stroke-width:0.8;"/>
      </defs>
      <g>
       <use style="stroke:#000000;stroke-width:0.8;" x="74.370313" xlink:href="#m301e4543cc" y="476.745"/>
      </g>
     </g>
     <g id="text_15">
      <!-- 0.000% -->
      <g transform="translate(31.489063 480.381719)scale(0.1 -0.1)">
       <defs>
        <path d="M 882 -36 
Q 714 -36 593 84 
Q 473 205 473 373 
Q 473 541 593 661 
Q 714 782 882 782 
Q 1050 782 1170 661 
Q 1291 541 1291 373 
Q 1291 205 1170 84 
Q 1050 -36 882 -36 
z
" id="Inter-Regular-2e" transform="scale(0.015625)"/>
        <path d="M 2855 873 
L 2855 1118 
Q 2855 1373 2960 1585 
Q 3066 1798 3269 1926 
Q 3473 2055 3764 2055 
Q 4059 2055 4259 1926 
Q 4459 1798 4561 1585 
Q 4664 1373 4664 1118 
L 4664 873 
Q 4664 618 4560 405 
Q 4457 193 4256 64 
Q 4055 -64 3764 -64 
Q 3468 -64 3266 64 
Q 3064 193 2959 405 
Q 2855 618 2855 873 
z
M 536 3536 
L 536 3782 
Q 536 4036 642 4248 
Q 748 4461 951 4589 
Q 1155 4718 1446 4718 
Q 1741 4718 1941 4589 
Q 2141 4461 2243 4248 
Q 2346 4036 2346 3782 
L 2346 3536 
Q 2346 3282 2242 3069 
Q 2139 2857 1937 2728 
Q 1736 2600 1446 2600 
Q 1150 2600 948 2728 
Q 746 2857 641 3069 
Q 536 3282 536 3536 
z
M 709 0 
L 3909 4655 
L 4427 4655 
L 1227 0 
L 709 0 
z
M 3318 1118 
L 3318 873 
Q 3318 661 3418 494 
Q 3518 327 3764 327 
Q 4002 327 4101 494 
Q 4200 661 4200 873 
L 4200 1118 
Q 4200 1330 4104 1497 
Q 4009 1664 3764 1664 
Q 3525 1664 3421 1497 
Q 3318 1330 3318 1118 
z
M 1000 3782 
L 1000 3536 
Q 1000 3325 1100 3158 
Q 1200 2991 1446 2991 
Q 1684 2991 1783 3158 
Q 1882 3325 1882 3536 
L 1882 3782 
Q 1882 3993 1786 4160 
Q 1691 4327 1446 4327 
Q 1207 4327 1103 4160 
Q 1000 3993 1000 3782 
z
" id="Inter-Regular-25" transform="scale(0.015625)"/>
       </defs>
       <use xlink:href="#Inter-Regular-30"/>
       <use x="62.500015" xlink:href="#Inter-Regular-2e"/>
       <use x="90.056839" xlink:href="#Inter-Regular-30"/>
       <use x="152.556854" xlink:href="#Inter-Regular-30"/>
       <use x="215.05687" xlink:href="#Inter-Regular-30"/>
       <use x="277.556885" xlink:href="#Inter-Regular-25"/>
      </g>
     </g>
    </g>
    <g id="ytick_2">
     <g id="line2d_17">
      <path clip-path="url(#p0b21840ffc)" d="M 74.370313 413.105781 
L 743.970313 413.105781 
" style="fill:none;stroke:#e5e5e5;stroke-linecap:square;stroke-width:0.8;"/>
     </g>
     <g id="line2d_18">
      <g>
       <use style="stroke:#000000;stroke-width:0.8;" x="74.370313" xlink:href="#m301e4543cc" y="413.105781"/>
      </g>
     </g>
     <g id="text_16">
      <!-- 0.001% -->
      <g transform="translate(33.321875 416.742499)scale(0.1 -0.1)">
       <use xlink:href="#Inter-Regular-30"/>
       <use x="62.500015" xlink:href="#Inter-Regular-2e"/>
       <use x="90.056839" xlink:href="#Inter-Regular-30"/>
       <use x="152.556854" xlink:href="#Inter-Regular-30"/>
       <use x="215.05687" xlink:href="#Inter-Regular-31"/>
       <use x="259.233017" xlink:href="#Inter-Regular-25"/>
      </g>
     </g>
    </g>
    <g id="ytick_3">
     <g id="line2d_19">
      <path clip-path="url(#p0b21840ffc)" d="M 74.370313 349.466561 
L 743.970313 349.466561 
" style="fill:none;stroke:#e5e5e5;stroke-linecap:square;stroke-width:0.8;"/>
     </g>
     <g id="line2d_20">
      <g>
       <use style="stroke:#000000;stroke-width:0.8;" x="74.370313" xlink:href="#m301e4543cc" y="349.466561"/>
      </g>
     </g>
     <g id="text_17">
      <!-- 0.002% -->
      <g transform="translate(31.6875 353.10328)scale(0.1 -0.1)">
       <defs>
        <path d="M 482 0 
L 482 409 
L 2018 2091 
Q 2289 2386 2464 2605 
Q 2639 2825 2724 3019 
Q 2809 3214 2809 3427 
Q 2809 3795 2553 4011 
Q 2298 4227 1918 4227 
Q 1514 4227 1275 3985 
Q 1036 3743 1036 3345 
L 500 3345 
Q 500 3755 688 4064 
Q 877 4373 1203 4545 
Q 1530 4718 1936 4718 
Q 2346 4718 2661 4545 
Q 2977 4373 3156 4079 
Q 3336 3786 3336 3427 
Q 3336 3170 3244 2926 
Q 3152 2682 2926 2383 
Q 2700 2084 2300 1655 
L 1255 536 
L 1255 500 
L 3418 500 
L 3418 0 
L 482 0 
z
" id="Inter-Regular-32" transform="scale(0.015625)"/>
       </defs>
       <use xlink:href="#Inter-Regular-30"/>
       <use x="62.500015" xlink:href="#Inter-Regular-2e"/>
       <use x="90.056839" xlink:href="#Inter-Regular-30"/>
       <use x="152.556854" xlink:href="#Inter-Regular-30"/>
       <use x="215.05687" xlink:href="#Inter-Regular-32"/>
       <use x="275.568253" xlink:href="#Inter-Regular-25"/>
      </g>
     </g>
    </g>
    <g id="ytick_4">
     <g id="line2d_21">
      <path clip-path="url(#p0b21840ffc)" d="M 74.370313 285.827342 
L 743.970313 285.827342 
" style="fill:none;stroke:#e5e5e5;stroke-linecap:square;stroke-width:0.8;"/>
     </g>
     <g id="line2d_22">
      <g>
       <use style="stroke:#000000;stroke-width:0.8;" x="74.370313" xlink:href="#m301e4543cc" y="285.827342"/>
      </g>
     </g>
     <g id="text_18">
      <!-- 0.003% -->
      <g transform="translate(31.375 289.464061)scale(0.1 -0.1)">
       <defs>
        <path d="M 2055 -64 
Q 1605 -64 1253 90 
Q 902 245 696 521 
Q 491 798 473 1164 
L 1046 1164 
Q 1071 827 1356 631 
Q 1641 436 2046 436 
Q 2493 436 2783 664 
Q 3073 893 3073 1264 
Q 3073 1650 2787 1893 
Q 2502 2136 1973 2136 
L 1600 2136 
L 1600 2636 
L 1973 2636 
Q 2386 2636 2647 2856 
Q 2909 3077 2909 3445 
Q 2909 3798 2679 4012 
Q 2450 4227 2064 4227 
Q 1823 4227 1610 4139 
Q 1398 4052 1264 3887 
Q 1130 3723 1118 3491 
L 573 3491 
Q 586 3857 793 4133 
Q 1000 4409 1335 4563 
Q 1671 4718 2073 4718 
Q 2505 4718 2814 4544 
Q 3123 4370 3289 4086 
Q 3455 3802 3455 3473 
Q 3455 3080 3249 2802 
Q 3043 2525 2691 2418 
L 2691 2382 
Q 3132 2309 3379 2008 
Q 3627 1707 3627 1264 
Q 3627 884 3421 583 
Q 3216 282 2861 109 
Q 2507 -64 2055 -64 
z
" id="Inter-Regular-33" transform="scale(0.015625)"/>
       </defs>
       <use xlink:href="#Inter-Regular-30"/>
       <use x="62.500015" xlink:href="#Inter-Regular-2e"/>
       <use x="90.056839" xlink:href="#Inter-Regular-30"/>
       <use x="152.556854" xlink:href="#Inter-Regular-30"/>
       <use x="215.05687" xlink:href="#Inter-Regular-33"/>
       <use x="278.693253" xlink:href="#Inter-Regular-25"/>
      </g>
     </g>
    </g>
    <g id="ytick_5">
     <g id="line2d_23">
      <path clip-path="url(#p0b21840ffc)" d="M 74.370313 222.188123 
L 743.970313 222.188123 
" style="fill:none;stroke:#e5e5e5;stroke-linecap:square;stroke-width:0.8;"/>
     </g>
     <g id="line2d_24">
      <g>
       <use style="stroke:#000000;stroke-width:0.8;" x="74.370313" xlink:href="#m301e4543cc" y="222.188123"/>
      </g>
     </g>
     <g id="text_19">
      <!-- 0.004% -->
      <g transform="translate(31.31875 225.824842)scale(0.1 -0.1)">
       <defs>
        <path d="M 373 955 
L 373 1418 
L 2418 4655 
L 3100 4655 
L 3100 1455 
L 3736 1455 
L 3736 955 
L 3100 955 
L 3100 0 
L 2564 0 
L 2564 955 
L 373 955 
z
M 2564 1455 
L 2564 3936 
L 2527 3936 
L 982 1491 
L 982 1455 
L 2564 1455 
z
" id="Inter-Regular-34" transform="scale(0.015625)"/>
       </defs>
       <use xlink:href="#Inter-Regular-30"/>
       <use x="62.500015" xlink:href="#Inter-Regular-2e"/>
       <use x="90.056839" xlink:href="#Inter-Regular-30"/>
       <use x="152.556854" xlink:href="#Inter-Regular-30"/>
       <use x="215.05687" xlink:href="#Inter-Regular-34"/>
       <use x="279.261429" xlink:href="#Inter-Regular-25"/>
      </g>
     </g>
    </g>
    <g id="ytick_6">
     <g id="line2d_25">
      <path clip-path="url(#p0b21840ffc)" d="M 74.370313 158.548904 
L 743.970313 158.548904 
" style="fill:none;stroke:#e5e5e5;stroke-linecap:square;stroke-width:0.8;"/>
     </g>
     <g id="line2d_26">
      <g>
       <use style="stroke:#000000;stroke-width:0.8;" x="74.370313" xlink:href="#m301e4543cc" y="158.548904"/>
      </g>
     </g>
     <g id="text_20">
      <!-- 0.005% -->
      <g transform="translate(31.659375 162.185622)scale(0.1 -0.1)">
       <defs>
        <path d="M 1936 -64 
Q 1536 -64 1216 95 
Q 896 255 702 532 
Q 509 809 491 1164 
L 1036 1164 
Q 1068 848 1324 642 
Q 1580 436 1936 436 
Q 2223 436 2447 570 
Q 2671 705 2799 940 
Q 2927 1175 2927 1473 
Q 2927 1777 2794 2017 
Q 2661 2257 2429 2395 
Q 2198 2534 1900 2536 
Q 1686 2539 1461 2472 
Q 1236 2405 1091 2300 
L 564 2364 
L 846 4655 
L 3264 4655 
L 3264 4155 
L 1318 4155 
L 1155 2782 
L 1182 2782 
Q 1325 2895 1541 2970 
Q 1757 3045 1991 3045 
Q 2418 3045 2753 2842 
Q 3089 2639 3281 2286 
Q 3473 1934 3473 1482 
Q 3473 1036 3274 687 
Q 3075 339 2727 137 
Q 2380 -64 1936 -64 
z
" id="Inter-Regular-35" transform="scale(0.015625)"/>
       </defs>
       <use xlink:href="#Inter-Regular-30"/>
       <use x="62.500015" xlink:href="#Inter-Regular-2e"/>
       <use x="90.056839" xlink:href="#Inter-Regular-30"/>
       <use x="152.556854" xlink:href="#Inter-Regular-30"/>
       <use x="215.05687" xlink:href="#Inter-Regular-35"/>
       <use x="275.852341" xlink:href="#Inter-Regular-25"/>
      </g>
     </g>
    </g>
    <g id="ytick_7">
     <g id="line2d_27">
      <path clip-path="url(#p0b21840ffc)" d="M 74.370313 94.909684 
L 743.970313 94.909684 
" style="fill:none;stroke:#e5e5e5;stroke-linecap:square;stroke-width:0.8;"/>
     </g>
     <g id="line2d_28">
      <g>
       <use style="stroke:#000000;stroke-width:0.8;" x="74.370313" xlink:href="#m301e4543cc" y="94.909684"/>
      </g>
     </g>
     <g id="text_21">
      <!-- 0.006% -->
      <g transform="translate(31.503125 98.546403)scale(0.1 -0.1)">
       <defs>
        <path d="M 2027 -64 
Q 1741 -59 1454 45 
Q 1168 150 932 399 
Q 696 648 552 1074 
Q 409 1500 409 2145 
Q 409 3386 861 4056 
Q 1314 4727 2100 4727 
Q 2686 4727 3073 4384 
Q 3461 4041 3546 3491 
L 2991 3491 
Q 2914 3811 2691 4019 
Q 2468 4227 2100 4227 
Q 1559 4227 1249 3755 
Q 939 3284 936 2427 
L 973 2427 
Q 1164 2716 1461 2880 
Q 1759 3045 2118 3045 
Q 2518 3045 2850 2846 
Q 3182 2648 3382 2299 
Q 3582 1950 3582 1500 
Q 3582 1068 3389 710 
Q 3196 352 2847 142 
Q 2498 -68 2027 -64 
z
M 2027 436 
Q 2314 436 2542 579 
Q 2771 723 2903 964 
Q 3036 1205 3036 1500 
Q 3036 1789 2908 2026 
Q 2780 2264 2556 2404 
Q 2332 2545 2046 2545 
Q 1757 2545 1525 2397 
Q 1293 2250 1157 2010 
Q 1021 1770 1018 1491 
Q 1018 1214 1149 973 
Q 1280 732 1508 584 
Q 1736 436 2027 436 
z
" id="Inter-Regular-36" transform="scale(0.015625)"/>
       </defs>
       <use xlink:href="#Inter-Regular-30"/>
       <use x="62.500015" xlink:href="#Inter-Regular-2e"/>
       <use x="90.056839" xlink:href="#Inter-Regular-30"/>
       <use x="152.556854" xlink:href="#Inter-Regular-30"/>
       <use x="215.05687" xlink:href="#Inter-Regular-36"/>
       <use x="277.414841" xlink:href="#Inter-Regular-25"/>
      </g>
     </g>
    </g>
    <g id="text_22">
     <!-- Percent of nation who are in mechanical ventilation beds -->
     <g transform="translate(25.273438 388.907656)rotate(-90)scale(0.1 -0.1)">
      <defs>
       <path d="M 564 0 
L 564 4655 
L 2136 4655 
Q 2684 4655 3033 4458 
Q 3382 4261 3550 3927 
Q 3718 3593 3718 3182 
Q 3718 2770 3551 2434 
Q 3384 2098 3036 1899 
Q 2689 1700 2146 1700 
L 1127 1700 
L 1127 0 
L 564 0 
z
M 1127 2200 
L 2127 2200 
Q 2689 2200 2926 2482 
Q 3164 2764 3164 3182 
Q 3164 3602 2925 3878 
Q 2686 4155 2118 4155 
L 1127 4155 
L 1127 2200 
z
" id="Inter-Regular-50" transform="scale(0.015625)"/>
       <path d="M 2046 3491 
L 2046 3036 
L 1264 3036 
L 1264 0 
L 727 0 
L 727 3036 
L 164 3036 
L 164 3491 
L 727 3491 
L 727 3973 
Q 727 4273 868 4473 
Q 1009 4673 1234 4773 
Q 1459 4873 1709 4873 
Q 1907 4873 2032 4841 
Q 2157 4809 2218 4782 
L 2064 4318 
Q 2023 4332 1951 4352 
Q 1880 4373 1764 4373 
Q 1498 4373 1381 4239 
Q 1264 4105 1264 3845 
L 1264 3491 
L 2046 3491 
z
" id="Inter-Regular-66" transform="scale(0.015625)"/>
       <path d="M 491 0 
L 491 3491 
L 1027 3491 
L 1027 0 
L 491 0 
z
M 764 4073 
Q 607 4073 494 4179 
Q 382 4286 382 4436 
Q 382 4586 494 4693 
Q 607 4800 764 4800 
Q 921 4800 1033 4693 
Q 1146 4586 1146 4436 
Q 1146 4286 1033 4179 
Q 921 4073 764 4073 
z
" id="Inter-Regular-69" transform="scale(0.015625)"/>
       <path d="M 1282 0 
L 218 3491 
L 782 3491 
L 1536 818 
L 1573 818 
L 2318 3491 
L 2891 3491 
L 3627 827 
L 3664 827 
L 4418 3491 
L 4982 3491 
L 3918 0 
L 3391 0 
L 2627 2682 
L 2573 2682 
L 1809 0 
L 1282 0 
z
" id="Inter-Regular-77" transform="scale(0.015625)"/>
       <path d="M 1027 2100 
L 1027 0 
L 491 0 
L 491 4655 
L 1027 4655 
L 1027 2945 
L 1073 2945 
Q 1196 3216 1442 3376 
Q 1689 3536 2100 3536 
Q 2636 3536 2963 3213 
Q 3291 2891 3291 2218 
L 3291 0 
L 2755 0 
L 2755 2182 
Q 2755 2598 2540 2826 
Q 2325 3055 1946 3055 
Q 1548 3055 1287 2806 
Q 1027 2557 1027 2100 
z
" id="Inter-Regular-68" transform="scale(0.015625)"/>
       <path d="M 491 0 
L 491 3491 
L 1009 3491 
L 1009 2945 
L 1055 2945 
Q 1164 3225 1407 3380 
Q 1650 3536 1991 3536 
Q 2336 3536 2567 3380 
Q 2798 3225 2927 2945 
L 2964 2945 
Q 3098 3216 3366 3376 
Q 3634 3536 4009 3536 
Q 4477 3536 4775 3244 
Q 5073 2952 5073 2336 
L 5073 0 
L 4536 0 
L 4536 2336 
Q 4536 2723 4325 2889 
Q 4114 3055 3827 3055 
Q 3459 3055 3257 2833 
Q 3055 2611 3055 2273 
L 3055 0 
L 2509 0 
L 2509 2391 
Q 2509 2689 2316 2872 
Q 2123 3055 1818 3055 
Q 1609 3055 1428 2943 
Q 1248 2832 1137 2635 
Q 1027 2439 1027 2182 
L 1027 0 
L 491 0 
z
" id="Inter-Regular-6d" transform="scale(0.015625)"/>
       <path d="M 1809 -73 
Q 1373 -73 1039 148 
Q 705 370 516 776 
Q 327 1182 327 1736 
Q 327 2286 516 2690 
Q 705 3095 1041 3315 
Q 1377 3536 1818 3536 
Q 2159 3536 2358 3423 
Q 2557 3311 2662 3169 
Q 2768 3027 2827 2936 
L 2873 2936 
L 2873 4655 
L 3409 4655 
L 3409 0 
L 2891 0 
L 2891 536 
L 2827 536 
Q 2768 441 2659 296 
Q 2550 152 2348 39 
Q 2146 -73 1809 -73 
z
M 1882 409 
Q 2366 409 2624 780 
Q 2882 1152 2882 1745 
Q 2882 2332 2627 2693 
Q 2373 3055 1882 3055 
Q 1541 3055 1315 2881 
Q 1089 2707 976 2410 
Q 864 2114 864 1745 
Q 864 1373 978 1069 
Q 1093 766 1319 587 
Q 1546 409 1882 409 
z
" id="Inter-Regular-64" transform="scale(0.015625)"/>
       <path d="M 2964 2709 
L 2482 2573 
Q 2411 2755 2245 2914 
Q 2080 3073 1727 3073 
Q 1407 3073 1194 2926 
Q 982 2780 982 2555 
Q 982 2355 1127 2239 
Q 1273 2123 1582 2045 
L 2100 1918 
Q 3027 1691 3027 973 
Q 3027 673 2855 436 
Q 2684 200 2377 63 
Q 2071 -73 1664 -73 
Q 1130 -73 780 159 
Q 430 391 336 836 
L 846 964 
Q 989 400 1655 400 
Q 2030 400 2251 560 
Q 2473 720 2473 945 
Q 2473 1316 1955 1436 
L 1373 1573 
Q 893 1686 669 1926 
Q 446 2166 446 2527 
Q 446 2823 613 3050 
Q 780 3277 1069 3406 
Q 1359 3536 1727 3536 
Q 2246 3536 2542 3309 
Q 2839 3082 2964 2709 
z
" id="Inter-Regular-73" transform="scale(0.015625)"/>
      </defs>
      <use xlink:href="#Inter-Regular-50"/>
      <use x="63.494324" xlink:href="#Inter-Regular-65"/>
      <use x="121.732971" xlink:href="#Inter-Regular-72"/>
      <use x="160.085251" xlink:href="#Inter-Regular-63"/>
      <use x="215.909119" xlink:href="#Inter-Regular-65"/>
      <use x="274.147766" xlink:href="#Inter-Regular-6e"/>
      <use x="332.670502" xlink:href="#Inter-Regular-74"/>
      <use x="369.034149" xlink:href="#Inter-Regular-20"/>
      <use x="397.159149" xlink:href="#Inter-Regular-6f"/>
      <use x="456.818253" xlink:href="#Inter-Regular-66"/>
      <use x="492.897797" xlink:href="#Inter-Regular-20"/>
      <use x="521.022797" xlink:href="#Inter-Regular-6e"/>
      <use x="579.545532" xlink:href="#Inter-Regular-61"/>
      <use x="635.937592" xlink:href="#Inter-Regular-74"/>
      <use x="672.301239" xlink:href="#Inter-Regular-69"/>
      <use x="696.022827" xlink:href="#Inter-Regular-6f"/>
      <use x="755.681931" xlink:href="#Inter-Regular-6e"/>
      <use x="814.204666" xlink:href="#Inter-Regular-20"/>
      <use x="842.329666" xlink:href="#Inter-Regular-77"/>
      <use x="923.579681" xlink:href="#Inter-Regular-68"/>
      <use x="982.670609" xlink:href="#Inter-Regular-6f"/>
      <use x="1042.329712" xlink:href="#Inter-Regular-20"/>
      <use x="1070.454712" xlink:href="#Inter-Regular-61"/>
      <use x="1126.846771" xlink:href="#Inter-Regular-72"/>
      <use x="1165.199051" xlink:href="#Inter-Regular-65"/>
      <use x="1223.437698" xlink:href="#Inter-Regular-20"/>
      <use x="1251.562698" xlink:href="#Inter-Regular-69"/>
      <use x="1275.284286" xlink:href="#Inter-Regular-6e"/>
      <use x="1333.807022" xlink:href="#Inter-Regular-20"/>
      <use x="1361.932022" xlink:href="#Inter-Regular-6d"/>
      <use x="1448.863861" xlink:href="#Inter-Regular-65"/>
      <use x="1507.102509" xlink:href="#Inter-Regular-63"/>
      <use x="1562.926376" xlink:href="#Inter-Regular-68"/>
      <use x="1622.017303" xlink:href="#Inter-Regular-61"/>
      <use x="1678.409363" xlink:href="#Inter-Regular-6e"/>
      <use x="1736.932098" xlink:href="#Inter-Regular-69"/>
      <use x="1760.653687" xlink:href="#Inter-Regular-63"/>
      <use x="1816.477554" xlink:href="#Inter-Regular-61"/>
      <use x="1872.869614" xlink:href="#Inter-Regular-6c"/>
      <use x="1896.591202" xlink:href="#Inter-Regular-20"/>
      <use x="1924.716202" xlink:href="#Inter-Regular-76"/>
      <use x="1980.398026" xlink:href="#Inter-Regular-65"/>
      <use x="2038.636673" xlink:href="#Inter-Regular-6e"/>
      <use x="2097.159409" xlink:href="#Inter-Regular-74"/>
      <use x="2133.523056" xlink:href="#Inter-Regular-69"/>
      <use x="2157.244644" xlink:href="#Inter-Regular-6c"/>
      <use x="2180.966232" xlink:href="#Inter-Regular-61"/>
      <use x="2237.358292" xlink:href="#Inter-Regular-74"/>
      <use x="2273.721939" xlink:href="#Inter-Regular-69"/>
      <use x="2297.443527" xlink:href="#Inter-Regular-6f"/>
      <use x="2357.102631" xlink:href="#Inter-Regular-6e"/>
      <use x="2415.625366" xlink:href="#Inter-Regular-20"/>
      <use x="2443.750366" xlink:href="#Inter-Regular-62"/>
      <use x="2505.824249" xlink:href="#Inter-Regular-65"/>
      <use x="2564.062897" xlink:href="#Inter-Regular-64"/>
      <use x="2626.13678" xlink:href="#Inter-Regular-73"/>
     </g>
    </g>
   </g>
   <g id="line2d_29">
    <path clip-path="url(#p0b21840ffc)" d="M 126.168164 307.830225 
L 127.786847 274.589968 
L 129.40553 256.273908 
L 131.024213 239.653779 
L 132.642895 220.772409 
L 134.261578 197.255493 
L 135.880261 187.192966 
L 137.498944 188.888897 
L 139.117627 157.909882 
L 140.73631 152.822088 
L 142.354993 151.013094 
L 143.973675 152.030653 
L 145.592358 154.631081 
L 147.211041 154.857206 
L 148.829724 155.874764 
L 150.448407 162.432366 
L 152.06709 152.482901 
L 153.685773 157.909882 
L 155.304456 162.432366 
L 156.923138 171.364272 
L 158.541821 177.582687 
L 160.160504 186.966842 
L 161.779187 203.813094 
L 163.39787 204.830653 
L 165.016553 215.684615 
L 166.635236 228.686756 
L 168.253918 240.106028 
L 169.872601 245.533009 
L 171.491284 251.638362 
L 173.109967 255.82166 
L 174.72865 268.25849 
L 176.347333 273.798533 
L 177.966016 281.825942 
L 179.584698 288.835792 
L 181.203381 294.715021 
L 182.822064 307.943287 
L 186.05943 318.684186 
L 187.678113 322.754422 
L 189.296796 327.955278 
L 190.915478 335.756563 
L 192.534161 341.296606 
L 194.152844 345.366842 
L 195.771527 341.070482 
L 197.39021 352.26363 
L 199.008893 356.446927 
L 200.627576 362.552281 
L 202.246258 366.396392 
L 203.864941 372.614807 
L 205.483624 375.667484 
L 207.102307 380.416092 
L 208.72099 384.59939 
L 210.339673 387.878191 
L 213.577038 391.270054 
L 215.195721 398.053779 
L 218.433087 405.515878 
L 220.05177 405.742002 
L 223.289136 410.716734 
L 226.526501 417.613522 
L 228.145184 420.892323 
L 229.763867 422.362131 
L 231.38255 423.266627 
L 233.001233 426.09318 
L 234.619916 426.65849 
L 236.238599 428.467484 
L 237.857281 433.329154 
L 239.475964 438.982259 
L 241.094647 438.756135 
L 244.332013 437.9647 
L 245.950696 439.773694 
L 247.569379 439.773694 
L 249.188061 442.82637 
L 250.806744 442.939433 
L 252.425427 444.748426 
L 254.04411 443.165557 
L 255.662793 446.783544 
L 257.281476 443.278619 
L 258.900159 446.670482 
L 260.518841 446.896606 
L 262.137524 450.062345 
L 263.756207 451.192966 
L 265.37489 450.401531 
L 266.993573 450.062345 
L 268.612256 450.966842 
L 270.230939 449.836221 
L 271.849621 451.871338 
L 275.086987 453.906456 
L 276.70567 455.71545 
L 278.324353 455.263201 
L 279.943036 455.489325 
L 281.561719 456.619946 
L 283.180401 458.202816 
L 284.799084 457.86363 
L 286.417767 458.42894 
L 288.03645 459.559561 
L 289.655133 461.029368 
L 291.273816 461.14243 
L 292.892499 462.838362 
L 294.511181 461.368555 
L 296.129864 463.403672 
L 297.748547 462.951424 
L 299.36723 463.403672 
L 300.985913 463.29061 
L 305.841961 465.777976 
L 307.460644 465.325728 
L 310.69801 467.473908 
L 312.316693 467.58697 
L 313.935376 467.360846 
L 317.172742 468.604529 
L 318.791424 468.830653 
L 320.410107 468.717591 
L 322.02879 468.378405 
L 323.647473 468.604529 
L 325.266156 469.169839 
L 330.122204 469.848212 
L 331.740887 470.30046 
L 333.35957 470.526585 
L 334.978253 470.413522 
L 339.834302 469.056777 
L 341.452984 469.509026 
L 343.071667 469.622088 
L 344.69035 469.056777 
L 346.309033 468.943715 
L 347.927716 469.169839 
L 349.546399 469.509026 
L 351.165082 469.622088 
L 352.783764 469.509026 
L 354.402447 469.509026 
L 356.02113 469.282901 
L 357.639813 469.395964 
L 359.258496 469.73515 
L 360.877179 469.73515 
L 362.495862 470.526585 
L 364.114544 469.73515 
L 365.733227 470.865771 
L 367.35191 470.413522 
L 368.970593 470.865771 
L 370.589276 470.639647 
L 372.207959 470.074336 
L 373.826642 470.074336 
L 375.445324 470.187398 
L 378.68269 471.091895 
L 380.301373 470.865771 
L 381.920056 469.73515 
L 383.538739 469.509026 
L 385.157422 469.509026 
L 386.776104 469.73515 
L 388.394787 462.159989 
L 390.01347 468.830653 
L 391.632153 468.378405 
L 394.869519 465.325728 
L 396.488202 464.647355 
L 398.106885 464.534293 
L 401.34425 462.838362 
L 402.962933 460.690182 
L 404.581616 459.333437 
L 406.200299 456.506884 
L 407.818982 455.037077 
L 411.056347 451.079904 
L 412.67503 451.532152 
L 414.293713 450.401531 
L 415.912396 449.044786 
L 417.531079 447.461916 
L 419.149762 444.861488 
L 420.768445 444.522302 
L 422.387127 441.582687 
L 424.00581 442.034936 
L 425.624493 441.695749 
L 427.243176 439.321445 
L 428.861859 437.286328 
L 430.480542 434.233651 
L 432.099225 435.138148 
L 433.717907 435.25121 
L 435.33659 431.972409 
L 436.955273 431.407099 
L 438.573956 428.580546 
L 440.192639 426.884615 
L 441.811322 423.831938 
L 443.430005 422.249069 
L 445.048687 422.249069 
L 446.66737 420.779261 
L 448.286053 419.761702 
L 449.904736 416.93515 
L 451.523419 413.430225 
L 453.142102 412.07348 
L 454.760785 412.977976 
L 456.379467 408.681617 
L 459.616833 401.784829 
L 461.235516 399.636649 
L 462.854199 392.739861 
L 464.472882 387.652066 
L 466.091565 385.956135 
L 467.710247 386.182259 
L 469.32893 384.486328 
L 470.947613 385.843073 
L 472.566296 376.911167 
L 474.184979 368.883758 
L 475.803662 364.022088 
L 477.422345 365.265771 
L 479.041028 365.491895 
L 480.65971 363.343715 
L 482.278393 361.760846 
L 483.897076 358.255921 
L 485.515759 362.552281 
L 487.134442 354.524872 
L 488.753125 353.733437 
L 490.371808 345.81909 
L 491.99049 345.366842 
L 493.609173 341.748854 
L 495.227856 341.296606 
L 496.846539 337.904743 
L 498.465222 336.321874 
L 500.083905 336.434936 
L 501.702588 336.434936 
L 503.32127 335.643501 
L 504.939953 334.399818 
L 506.558636 329.877334 
L 508.177319 329.085899 
L 509.796002 329.764272 
L 511.414685 333.834507 
L 513.033368 336.321874 
L 514.65205 340.618233 
L 516.270733 339.487612 
L 517.889416 342.766413 
L 519.508099 343.1056 
L 521.126782 346.836649 
L 522.745465 353.055064 
L 524.364148 350.906884 
L 525.98283 353.959561 
L 527.601513 353.846499 
L 529.220196 351.359133 
L 530.838879 350.341574 
L 532.457562 353.055064 
L 534.076245 351.246071 
L 535.694928 350.454636 
L 537.31361 353.846499 
L 538.932293 349.776263 
L 540.550976 349.324015 
L 542.169659 345.706028 
L 543.788342 345.253779 
L 545.407025 342.427227 
L 547.025708 342.201103 
L 548.64439 336.66106 
L 550.263073 333.495321 
L 551.881756 326.711595 
L 553.500439 325.35485 
L 555.119122 321.397677 
L 556.737805 315.405385 
L 558.356488 314.274764 
L 561.593853 300.820375 
L 564.831219 281.373694 
L 566.449902 267.127869 
L 568.068585 262.040075 
L 569.687268 257.404529 
L 571.305951 248.698747 
L 572.924633 230.156563 
L 574.543316 215.571552 
L 576.161999 207.88333 
L 577.780682 188.436649 
L 579.399365 176.678191 
L 581.018048 158.588255 
L 582.636731 153.387398 
L 584.255413 141.742002 
L 585.874096 131.340289 
L 587.492779 117.772837 
L 589.111462 102.84864 
L 590.730145 97.873908 
L 592.348828 85.097891 
L 593.967511 78.201103 
L 595.586193 77.296606 
L 597.204876 73.113308 
L 598.823559 69.382259 
L 600.442242 69.382259 
L 602.060925 68.930011 
L 603.679608 55.362559 
L 606.916973 54.345 
L 608.535656 59.093608 
L 610.154339 65.877334 
L 611.773022 69.495321 
L 613.391705 71.417377 
L 615.010388 80.349283 
L 616.629071 82.610525 
L 618.247753 96.177976 
L 619.866436 90.750996 
L 621.485119 100.926585 
L 623.103802 100.474336 
L 624.722485 106.466627 
L 626.341168 113.024229 
L 627.959851 126.365557 
L 629.578533 132.244786 
L 632.815899 147.621231 
L 634.434582 152.030653 
L 639.290631 183.688041 
L 640.909314 181.539861 
L 642.527996 185.383972 
L 645.765362 206.187398 
L 647.384045 214.89318 
L 649.002728 222.242216 
L 650.621411 234.565985 
L 652.240094 236.827227 
L 653.858776 242.480332 
L 655.477459 255.595535 
L 657.096142 258.422088 
L 658.714825 265.771124 
L 661.952191 279.225514 
L 663.570874 292.453779 
L 665.189556 289.288041 
L 666.808239 300.820375 
L 668.426922 306.360418 
L 670.045605 312.352709 
L 671.664288 316.536006 
L 673.282971 326.824657 
L 674.901654 332.816949 
L 676.520336 337.000246 
L 679.757702 348.193394 
L 681.376385 352.26363 
L 682.995068 361.082473 
L 684.613751 363.682901 
L 686.232434 367.866199 
L 687.851116 371.597248 
L 689.469799 377.024229 
L 691.088482 381.094465 
L 694.325848 392.061488 
L 695.944531 396.47091 
L 697.563214 398.506028 
L 699.181896 400.315021 
L 700.800579 403.593822 
L 702.419262 407.437934 
L 704.037945 412.751852 
L 705.656628 413.543287 
L 707.275311 416.030653 
L 708.893994 416.595964 
L 710.512676 416.595964 
L 712.131359 418.178833 
L 713.750042 420.100889 
L 715.368725 423.605814 
L 716.987408 427.449925 
L 718.606091 427.789111 
L 720.224774 429.032794 
L 721.843457 429.711167 
L 723.462139 430.841788 
L 725.080822 432.311595 
L 728.318188 435.81652 
L 729.936871 438.077762 
L 731.555554 437.9647 
L 733.174237 438.643073 
L 734.792919 439.095321 
L 736.411602 441.130439 
L 738.030285 443.504743 
L 739.648968 443.052495 
L 739.648968 443.052495 
" style="fill:none;stroke:#5694ca;stroke-linecap:square;stroke-width:2;"/>
   </g>
   <g id="line2d_30">
    <path clip-path="url(#p0b21840ffc)" d="M 109.981335 456.581195 
L 111.600018 470.023732 
L 113.218701 443.138659 
L 114.837384 443.138659 
L 116.456067 426.335488 
L 118.07475 412.892952 
L 119.693433 389.368513 
L 121.312115 392.729147 
L 122.930798 369.204708 
L 124.549481 322.155831 
L 126.168164 318.795196 
L 131.024213 328.877099 
L 132.642895 328.877099 
L 134.261578 312.073928 
L 135.880261 322.155831 
L 137.498944 328.877099 
L 139.117627 315.434562 
L 140.73631 315.434562 
L 142.354993 322.155831 
L 143.973675 345.680269 
L 145.592358 349.040904 
L 147.211041 355.762172 
L 148.829724 365.844074 
L 150.448407 362.48344 
L 152.06709 365.844074 
L 153.685773 379.286611 
L 155.304456 372.565342 
L 156.923138 362.48344 
L 158.541821 372.565342 
L 160.160504 365.844074 
L 161.779187 379.286611 
L 163.39787 372.565342 
L 165.016553 386.007879 
L 168.253918 386.007879 
L 171.491284 392.729147 
L 173.109967 402.811049 
L 174.72865 399.450415 
L 176.347333 406.171684 
L 179.584698 406.171684 
L 181.203381 402.811049 
L 182.822064 402.811049 
L 184.440747 399.450415 
L 186.05943 412.892952 
L 189.296796 433.056756 
L 190.915478 429.696122 
L 192.534161 436.417391 
L 194.152844 436.417391 
L 195.771527 443.138659 
L 197.39021 436.417391 
L 199.008893 433.056756 
L 200.627576 446.499293 
L 203.864941 459.941829 
L 205.483624 456.581195 
L 207.102307 463.302464 
L 208.72099 459.941829 
L 210.339673 463.302464 
L 211.958356 459.941829 
L 216.814404 459.941829 
L 218.433087 463.302464 
L 223.289136 463.302464 
L 224.907818 459.941829 
L 226.526501 466.663098 
L 228.145184 453.220561 
L 229.763867 456.581195 
L 231.38255 456.581195 
L 233.001233 463.302464 
L 234.619916 463.302464 
L 236.238599 466.663098 
L 237.857281 459.941829 
L 239.475964 456.581195 
L 242.71333 463.302464 
L 245.950696 463.302464 
L 249.188061 470.023732 
L 260.518841 470.023732 
L 262.137524 473.384366 
L 263.756207 473.384366 
L 265.37489 476.745 
L 289.655133 476.745 
L 291.273816 473.384366 
L 302.604596 473.384366 
L 304.223279 470.023732 
L 312.316693 470.023732 
L 313.935376 473.384366 
L 338.215619 473.384366 
L 339.834302 470.023732 
L 341.452984 470.023732 
L 344.69035 476.745 
L 357.639813 476.745 
L 359.258496 473.384366 
L 364.114544 473.384366 
L 365.733227 470.023732 
L 370.589276 470.023732 
L 372.207959 466.663098 
L 380.301373 466.663098 
L 381.920056 473.384366 
L 383.538739 473.384366 
L 385.157422 470.023732 
L 386.776104 470.023732 
L 388.394787 473.384366 
L 393.250836 473.384366 
L 394.869519 470.023732 
L 396.488202 470.023732 
L 398.106885 466.663098 
L 404.581616 466.663098 
L 407.818982 459.941829 
L 414.293713 459.941829 
L 415.912396 456.581195 
L 417.531079 459.941829 
L 419.149762 453.220561 
L 422.387127 453.220561 
L 424.00581 446.499293 
L 425.624493 453.220561 
L 427.243176 449.859927 
L 428.861859 449.859927 
L 430.480542 439.778025 
L 432.099225 439.778025 
L 433.717907 443.138659 
L 436.955273 436.417391 
L 438.573956 426.335488 
L 440.192639 426.335488 
L 441.811322 419.61422 
L 443.430005 419.61422 
L 445.048687 409.532318 
L 446.66737 402.811049 
L 448.286053 399.450415 
L 449.904736 392.729147 
L 451.523419 392.729147 
L 453.142102 389.368513 
L 454.760785 399.450415 
L 457.99815 386.007879 
L 459.616833 386.007879 
L 462.854199 365.844074 
L 464.472882 352.401538 
L 466.091565 345.680269 
L 467.710247 349.040904 
L 469.32893 338.959001 
L 470.947613 338.959001 
L 472.566296 335.598367 
L 474.184979 328.877099 
L 475.803662 335.598367 
L 477.422345 335.598367 
L 479.041028 345.680269 
L 480.65971 349.040904 
L 483.897076 328.877099 
L 485.515759 345.680269 
L 487.134442 359.122806 
L 488.753125 375.925976 
L 490.371808 362.48344 
L 491.99049 345.680269 
L 493.609173 342.319635 
L 495.227856 352.401538 
L 496.846539 359.122806 
L 498.465222 352.401538 
L 500.083905 369.204708 
L 501.702588 382.647245 
L 503.32127 372.565342 
L 504.939953 382.647245 
L 506.558636 375.925976 
L 508.177319 379.286611 
L 509.796002 375.925976 
L 511.414685 365.844074 
L 513.033368 375.925976 
L 514.65205 379.286611 
L 516.270733 375.925976 
L 517.889416 379.286611 
L 521.126782 379.286611 
L 522.745465 386.007879 
L 524.364148 396.089781 
L 527.601513 396.089781 
L 529.220196 406.171684 
L 530.838879 409.532318 
L 532.457562 396.089781 
L 534.076245 402.811049 
L 535.694928 399.450415 
L 537.31361 399.450415 
L 538.932293 396.089781 
L 542.169659 396.089781 
L 545.407025 389.368513 
L 547.025708 389.368513 
L 548.64439 399.450415 
L 550.263073 396.089781 
L 551.881756 396.089781 
L 555.119122 402.811049 
L 561.593853 402.811049 
L 564.831219 396.089781 
L 566.449902 396.089781 
L 568.068585 386.007879 
L 569.687268 386.007879 
L 571.305951 392.729147 
L 572.924633 402.811049 
L 574.543316 379.286611 
L 576.161999 362.48344 
L 577.780682 352.401538 
L 579.399365 369.204708 
L 581.018048 355.762172 
L 582.636731 365.844074 
L 584.255413 362.48344 
L 585.874096 352.401538 
L 587.492779 349.040904 
L 589.111462 342.319635 
L 590.730145 328.877099 
L 592.348828 318.795196 
L 593.967511 325.516465 
L 595.586193 308.713294 
L 597.204876 305.35266 
L 598.823559 285.188855 
L 600.442242 285.188855 
L 602.060925 281.828221 
L 605.298291 322.155831 
L 606.916973 295.270758 
L 608.535656 308.713294 
L 610.154339 315.434562 
L 611.773022 288.549489 
L 613.391705 285.188855 
L 615.010388 295.270758 
L 616.629071 288.549489 
L 619.866436 288.549489 
L 623.103802 275.106953 
L 624.722485 265.025051 
L 629.578533 285.188855 
L 631.197216 295.270758 
L 632.815899 285.188855 
L 634.434582 285.188855 
L 636.053265 298.631392 
L 637.671948 305.35266 
L 639.290631 301.992026 
L 640.909314 305.35266 
L 642.527996 312.073928 
L 644.146679 325.516465 
L 645.765362 325.516465 
L 647.384045 335.598367 
L 649.002728 338.959001 
L 650.621411 335.598367 
L 652.240094 342.319635 
L 653.858776 338.959001 
L 655.477459 345.680269 
L 657.096142 359.122806 
L 660.333508 379.286611 
L 661.952191 372.565342 
L 665.189556 379.286611 
L 666.808239 375.925976 
L 668.426922 379.286611 
L 670.045605 386.007879 
L 671.664288 386.007879 
L 673.282971 392.729147 
L 674.901654 396.089781 
L 676.520336 392.729147 
L 679.757702 412.892952 
L 681.376385 412.892952 
L 682.995068 416.253586 
L 686.232434 416.253586 
L 689.469799 429.696122 
L 691.088482 433.056756 
L 692.707165 429.696122 
L 694.325848 429.696122 
L 695.944531 422.974854 
L 697.563214 433.056756 
L 700.800579 439.778025 
L 702.419262 436.417391 
L 704.037945 443.138659 
L 707.275311 443.138659 
L 710.512676 436.417391 
L 712.131359 436.417391 
L 713.750042 446.499293 
L 716.987408 446.499293 
L 718.606091 443.138659 
L 720.224774 446.499293 
L 721.843457 443.138659 
L 725.080822 443.138659 
L 726.699505 446.499293 
L 728.318188 446.499293 
L 731.555554 459.941829 
L 733.174237 456.581195 
L 734.792919 459.941829 
L 736.411602 459.941829 
L 738.030285 456.581195 
L 739.648968 459.941829 
L 739.648968 459.941829 
" style="fill:none;stroke:#ffdd00;stroke-linecap:square;stroke-width:2;"/>
   </g>
   <g id="line2d_31">
    <path clip-path="url(#p0b21840ffc)" d="M 101.887921 469.755903 
L 105.125287 458.107409 
L 106.74397 453.448011 
L 108.362653 449.953463 
L 109.981335 441.799517 
L 111.600018 427.821324 
L 113.218701 416.172829 
L 114.837384 410.348582 
L 116.456067 392.875841 
L 118.07475 382.392196 
L 119.693433 366.084303 
L 121.312115 350.941261 
L 122.930798 319.490326 
L 124.549481 305.512133 
L 129.40553 253.093908 
L 131.024213 247.269661 
L 132.642895 244.939962 
L 134.261578 244.939962 
L 135.880261 232.126618 
L 137.498944 229.796919 
L 139.117627 235.621167 
L 140.73631 229.796919 
L 142.354993 219.313274 
L 143.973675 230.961769 
L 145.592358 248.43451 
L 147.211041 249.59936 
L 148.829724 248.43451 
L 152.06709 264.742402 
L 153.685773 274.061198 
L 155.304456 279.885445 
L 156.923138 283.379993 
L 158.541821 296.193337 
L 161.779187 312.501229 
L 163.39787 313.666079 
L 165.016553 321.820025 
L 166.635236 320.655175 
L 168.253918 329.973971 
L 169.872601 343.952164 
L 171.491284 349.776411 
L 173.109967 348.611562 
L 174.72865 350.941261 
L 176.347333 361.424906 
L 177.966016 361.424906 
L 179.584698 355.600659 
L 181.203381 373.0734 
L 182.822064 376.567948 
L 184.440747 378.897647 
L 186.05943 368.414002 
L 187.678113 381.227346 
L 189.296796 383.557045 
L 190.915478 382.392196 
L 192.534161 399.864937 
L 194.152844 394.04069 
L 195.771527 394.04069 
L 197.39021 408.018883 
L 199.008893 408.018883 
L 200.627576 403.359485 
L 202.246258 408.018883 
L 203.864941 415.00798 
L 205.483624 417.337679 
L 207.102307 418.502528 
L 208.72099 418.502528 
L 210.339673 425.491625 
L 211.958356 430.151023 
L 213.577038 435.97527 
L 215.195721 432.480721 
L 216.814404 433.645571 
L 218.433087 430.151023 
L 220.05177 438.304969 
L 221.670453 445.294065 
L 223.289136 445.294065 
L 224.907818 437.140119 
L 226.526501 437.140119 
L 228.145184 444.129216 
L 229.763867 449.953463 
L 231.38255 453.448011 
L 233.001233 447.623764 
L 234.619916 448.788614 
L 237.857281 455.77771 
L 239.475964 452.283162 
L 241.094647 449.953463 
L 242.71333 453.448011 
L 244.332013 459.272258 
L 245.950696 455.77771 
L 247.569379 454.612861 
L 249.188061 451.118312 
L 250.806744 451.118312 
L 254.04411 460.437108 
L 255.662793 458.107409 
L 257.281476 459.272258 
L 258.900159 452.283162 
L 260.518841 449.953463 
L 262.137524 455.77771 
L 265.37489 458.107409 
L 268.612256 465.096506 
L 270.230939 454.612861 
L 271.849621 456.94256 
L 273.468304 466.261355 
L 275.086987 462.766807 
L 276.70567 454.612861 
L 278.324353 463.931656 
L 279.943036 467.426205 
L 281.561719 468.591054 
L 283.180401 463.931656 
L 284.799084 466.261355 
L 286.417767 462.766807 
L 288.03645 469.755903 
L 291.273816 469.755903 
L 292.892499 462.766807 
L 294.511181 469.755903 
L 296.129864 469.755903 
L 297.748547 466.261355 
L 299.36723 467.426205 
L 300.985913 472.085602 
L 302.604596 465.096506 
L 304.223279 453.448011 
L 305.841961 473.250452 
L 307.460644 474.415301 
L 318.791424 474.415301 
L 320.410107 472.085602 
L 322.02879 473.250452 
L 328.503522 473.250452 
L 330.122204 472.085602 
L 331.740887 472.085602 
L 333.35957 473.250452 
L 349.546399 473.250452 
L 351.165082 474.415301 
L 357.639813 474.415301 
L 359.258496 475.580151 
L 360.877179 475.580151 
L 362.495862 474.415301 
L 364.114544 474.415301 
L 365.733227 473.250452 
L 367.35191 470.920753 
L 370.589276 470.920753 
L 372.207959 469.755903 
L 375.445324 472.085602 
L 377.064007 472.085602 
L 378.68269 474.415301 
L 380.301373 472.085602 
L 383.538739 469.755903 
L 385.157422 469.755903 
L 386.776104 468.591054 
L 388.394787 469.755903 
L 390.01347 468.591054 
L 391.632153 469.755903 
L 396.488202 469.755903 
L 398.106885 470.920753 
L 399.725567 470.920753 
L 401.34425 466.261355 
L 402.962933 466.261355 
L 404.581616 467.426205 
L 406.200299 465.096506 
L 409.437665 465.096506 
L 411.056347 463.931656 
L 412.67503 463.931656 
L 414.293713 462.766807 
L 415.912396 458.107409 
L 417.531079 458.107409 
L 419.149762 459.272258 
L 422.387127 454.612861 
L 424.00581 449.953463 
L 425.624493 451.118312 
L 427.243176 451.118312 
L 432.099225 440.634667 
L 433.717907 440.634667 
L 435.33659 437.140119 
L 438.573956 434.81042 
L 440.192639 435.97527 
L 441.811322 419.667378 
L 443.430005 416.172829 
L 445.048687 409.183733 
L 446.66737 404.524335 
L 448.286053 403.359485 
L 449.904736 405.689184 
L 451.523419 395.205539 
L 453.142102 391.710991 
L 454.760785 390.546142 
L 456.379467 388.216443 
L 457.99815 378.897647 
L 459.616833 376.567948 
L 461.235516 371.908551 
L 462.854199 381.227346 
L 464.472882 377.732798 
L 466.091565 376.567948 
L 469.32893 383.557045 
L 470.947613 382.392196 
L 472.566296 368.414002 
L 474.184979 369.578852 
L 475.803662 367.249153 
L 477.422345 366.084303 
L 479.041028 362.589755 
L 480.65971 354.435809 
L 482.278393 347.446712 
L 483.897076 354.435809 
L 485.515759 357.930357 
L 487.134442 368.414002 
L 488.753125 362.589755 
L 490.371808 364.919454 
L 491.99049 369.578852 
L 493.609173 360.260056 
L 495.227856 362.589755 
L 496.846539 366.084303 
L 498.465222 374.23825 
L 500.083905 377.732798 
L 501.702588 374.23825 
L 503.32127 360.260056 
L 504.939953 366.084303 
L 506.558636 378.897647 
L 509.796002 378.897647 
L 511.414685 371.908551 
L 513.033368 383.557045 
L 514.65205 387.051593 
L 517.889416 389.381292 
L 519.508099 395.205539 
L 521.126782 397.535238 
L 522.745465 396.370389 
L 524.364148 401.029787 
L 525.98283 402.194636 
L 527.601513 404.524335 
L 529.220196 408.018883 
L 530.838879 410.348582 
L 532.457562 418.502528 
L 534.076245 416.172829 
L 535.694928 415.00798 
L 537.31361 416.172829 
L 538.932293 421.997076 
L 542.169659 424.326775 
L 543.788342 419.667378 
L 545.407025 418.502528 
L 547.025708 418.502528 
L 548.64439 415.00798 
L 550.263073 409.183733 
L 553.500439 406.854034 
L 555.119122 411.513432 
L 556.737805 411.513432 
L 558.356488 421.997076 
L 559.975171 416.172829 
L 563.212536 411.513432 
L 564.831219 401.029787 
L 566.449902 396.370389 
L 568.068585 395.205539 
L 569.687268 391.710991 
L 571.305951 385.886744 
L 572.924633 382.392196 
L 574.543316 380.062497 
L 576.161999 368.414002 
L 577.780682 366.084303 
L 579.399365 360.260056 
L 581.018048 357.930357 
L 582.636731 349.776411 
L 584.255413 333.468519 
L 585.874096 329.973971 
L 587.492779 321.820025 
L 589.111462 320.655175 
L 590.730145 311.33638 
L 592.348828 312.501229 
L 593.967511 307.841832 
L 595.586193 305.512133 
L 597.204876 306.676982 
L 598.823559 302.017584 
L 600.442242 295.028488 
L 602.060925 289.204241 
L 603.679608 289.204241 
L 606.916973 293.863638 
L 608.535656 300.852735 
L 610.154339 303.182434 
L 611.773022 307.841832 
L 613.391705 311.33638 
L 615.010388 309.006681 
L 616.629071 311.33638 
L 618.247753 310.171531 
L 621.485119 310.171531 
L 623.103802 324.149724 
L 626.341168 333.468519 
L 627.959851 340.457616 
L 629.578533 350.941261 
L 631.197216 350.941261 
L 632.815899 346.281863 
L 634.434582 345.117014 
L 636.053265 349.776411 
L 637.671948 342.787315 
L 639.290631 348.611562 
L 640.909314 355.600659 
L 644.146679 360.260056 
L 645.765362 361.424906 
L 647.384045 366.084303 
L 649.002728 362.589755 
L 650.621411 362.589755 
L 652.240094 361.424906 
L 653.858776 361.424906 
L 655.477459 368.414002 
L 657.096142 368.414002 
L 658.714825 373.0734 
L 660.333508 383.557045 
L 661.952191 390.546142 
L 663.570874 385.886744 
L 665.189556 394.04069 
L 666.808239 394.04069 
L 670.045605 398.700088 
L 671.664288 402.194636 
L 673.282971 403.359485 
L 676.520336 408.018883 
L 678.139019 419.667378 
L 679.757702 419.667378 
L 681.376385 430.151023 
L 682.995068 432.480721 
L 684.613751 432.480721 
L 686.232434 430.151023 
L 687.851116 430.151023 
L 689.469799 427.821324 
L 691.088482 432.480721 
L 692.707165 432.480721 
L 694.325848 435.97527 
L 695.944531 440.634667 
L 697.563214 440.634667 
L 699.181896 438.304969 
L 700.800579 444.129216 
L 702.419262 440.634667 
L 704.037945 439.469818 
L 705.656628 446.458915 
L 707.275311 446.458915 
L 708.893994 451.118312 
L 710.512676 451.118312 
L 712.131359 449.953463 
L 713.750042 452.283162 
L 715.368725 452.283162 
L 716.987408 449.953463 
L 718.606091 455.77771 
L 720.224774 454.612861 
L 721.843457 455.77771 
L 723.462139 452.283162 
L 726.699505 452.283162 
L 728.318188 454.612861 
L 731.555554 452.283162 
L 733.174237 452.283162 
L 734.792919 453.448011 
L 736.411602 453.448011 
L 738.030285 458.107409 
L 739.648968 455.77771 
L 739.648968 455.77771 
" style="fill:none;stroke:#003078;stroke-linecap:square;stroke-width:2;"/>
   </g>
   <g id="line2d_32">
    <path clip-path="url(#p0b21840ffc)" d="M 109.981335 444.449834 
L 111.600018 416.191564 
L 113.218701 414.173116 
L 114.837384 404.080876 
L 116.456067 402.062428 
L 118.07475 369.767262 
L 119.693433 333.435201 
L 121.312115 339.490544 
L 122.930798 313.250722 
L 124.549481 274.900212 
L 126.168164 254.715733 
L 127.786847 254.715733 
L 129.40553 230.494359 
L 131.024213 212.328328 
L 132.642895 200.217641 
L 134.261578 186.088505 
L 135.880261 173.977818 
L 137.498944 151.774892 
L 139.117627 167.922475 
L 140.73631 175.996266 
L 142.354993 167.922475 
L 143.973675 163.885579 
L 145.592358 171.95937 
L 147.211041 173.977818 
L 148.829724 163.885579 
L 150.448407 155.811787 
L 152.06709 145.719548 
L 153.685773 167.922475 
L 155.304456 173.977818 
L 156.923138 204.254536 
L 158.541821 210.30988 
L 160.160504 228.475911 
L 161.779187 236.549702 
L 163.39787 222.420567 
L 165.016553 252.697285 
L 166.635236 264.807973 
L 168.253918 260.771077 
L 169.872601 272.881764 
L 171.491284 276.91866 
L 173.109967 291.047795 
L 176.347333 287.010899 
L 177.966016 291.047795 
L 179.584698 301.140035 
L 181.203381 313.250722 
L 182.822064 307.195378 
L 184.440747 297.103139 
L 186.05943 325.361409 
L 187.678113 319.306065 
L 189.296796 323.342961 
L 190.915478 331.416753 
L 192.534161 343.52744 
L 194.152844 337.472096 
L 195.771527 363.711919 
L 197.39021 351.601232 
L 199.008893 355.638127 
L 200.627576 357.656575 
L 202.246258 347.564336 
L 203.864941 365.730367 
L 205.483624 361.693471 
L 207.102307 359.675023 
L 208.72099 359.675023 
L 210.339673 371.78571 
L 211.958356 381.87795 
L 213.577038 373.804158 
L 215.195721 387.933293 
L 216.814404 383.896398 
L 218.433087 385.914845 
L 220.05177 398.025533 
L 221.670453 391.970189 
L 223.289136 402.062428 
L 224.907818 387.933293 
L 226.526501 391.970189 
L 228.145184 391.970189 
L 229.763867 387.933293 
L 233.001233 400.043981 
L 234.619916 400.043981 
L 236.238599 396.007085 
L 237.857281 412.154668 
L 239.475964 418.210012 
L 241.094647 418.210012 
L 242.71333 422.246907 
L 244.332013 414.173116 
L 245.950696 404.080876 
L 247.569379 418.210012 
L 249.188061 410.13622 
L 250.806744 418.210012 
L 252.425427 422.246907 
L 254.04411 410.13622 
L 255.662793 422.246907 
L 257.281476 422.246907 
L 258.900159 432.339147 
L 260.518841 422.246907 
L 262.137524 434.357595 
L 263.756207 428.302251 
L 265.37489 434.357595 
L 266.993573 434.357595 
L 268.612256 428.302251 
L 270.230939 432.339147 
L 271.849621 432.339147 
L 273.468304 438.39449 
L 276.70567 446.468282 
L 278.324353 444.449834 
L 279.943036 450.505178 
L 281.561719 452.523625 
L 283.180401 456.560521 
L 284.799084 452.523625 
L 286.417767 442.431386 
L 288.03645 456.560521 
L 289.655133 448.48673 
L 291.273816 442.431386 
L 292.892499 458.578969 
L 294.511181 456.560521 
L 296.129864 442.431386 
L 297.748547 454.542073 
L 299.36723 456.560521 
L 300.985913 462.615865 
L 302.604596 464.634313 
L 304.223279 458.578969 
L 305.841961 460.597417 
L 307.460644 464.634313 
L 309.079327 460.597417 
L 310.69801 462.615865 
L 312.316693 462.615865 
L 313.935376 454.542073 
L 315.554059 452.523625 
L 317.172742 452.523625 
L 320.410107 456.560521 
L 322.02879 448.48673 
L 323.647473 458.578969 
L 325.266156 464.634313 
L 326.884839 462.615865 
L 328.503522 464.634313 
L 330.122204 470.689656 
L 331.740887 466.652761 
L 333.35957 470.689656 
L 334.978253 466.652761 
L 336.596936 464.634313 
L 338.215619 464.634313 
L 339.834302 462.615865 
L 341.452984 464.634313 
L 343.071667 464.634313 
L 344.69035 466.652761 
L 346.309033 464.634313 
L 347.927716 470.689656 
L 349.546399 464.634313 
L 351.165082 466.652761 
L 352.783764 456.560521 
L 354.402447 464.634313 
L 356.02113 470.689656 
L 357.639813 466.652761 
L 359.258496 468.671208 
L 360.877179 468.671208 
L 362.495862 464.634313 
L 364.114544 464.634313 
L 365.733227 470.689656 
L 367.35191 470.689656 
L 368.970593 458.578969 
L 370.589276 456.560521 
L 372.207959 448.48673 
L 373.826642 448.48673 
L 377.064007 460.597417 
L 378.68269 456.560521 
L 380.301373 456.560521 
L 381.920056 458.578969 
L 383.538739 458.578969 
L 386.776104 462.615865 
L 388.394787 462.615865 
L 390.01347 460.597417 
L 391.632153 454.542073 
L 393.250836 456.560521 
L 394.869519 464.634313 
L 396.488202 458.578969 
L 398.106885 454.542073 
L 399.725567 446.468282 
L 401.34425 458.578969 
L 402.962933 454.542073 
L 404.581616 444.449834 
L 406.200299 440.412938 
L 407.818982 434.357595 
L 409.437665 438.39449 
L 411.056347 438.39449 
L 412.67503 432.339147 
L 417.531079 408.117772 
L 419.149762 418.210012 
L 420.768445 412.154668 
L 422.387127 412.154668 
L 424.00581 416.191564 
L 425.624493 416.191564 
L 427.243176 412.154668 
L 428.861859 420.228459 
L 432.099225 424.265355 
L 433.717907 412.154668 
L 435.33659 418.210012 
L 436.955273 418.210012 
L 438.573956 416.191564 
L 440.192639 426.283803 
L 441.811322 418.210012 
L 443.430005 416.191564 
L 445.048687 412.154668 
L 446.66737 406.099324 
L 448.286053 396.007085 
L 449.904736 389.951741 
L 451.523419 389.951741 
L 453.142102 393.988637 
L 454.760785 381.87795 
L 456.379467 393.988637 
L 457.99815 385.914845 
L 459.616833 371.78571 
L 461.235516 373.804158 
L 462.854199 385.914845 
L 464.472882 381.87795 
L 466.091565 383.896398 
L 467.710247 361.693471 
L 469.32893 343.52744 
L 470.947613 369.767262 
L 472.566296 361.693471 
L 474.184979 367.748815 
L 475.803662 355.638127 
L 477.422345 355.638127 
L 479.041028 343.52744 
L 480.65971 353.619679 
L 482.278393 349.582784 
L 483.897076 327.379857 
L 485.515759 339.490544 
L 487.134442 357.656575 
L 488.753125 357.656575 
L 490.371808 341.508992 
L 491.99049 331.416753 
L 493.609173 349.582784 
L 495.227856 359.675023 
L 496.846539 351.601232 
L 498.465222 349.582784 
L 500.083905 339.490544 
L 501.702588 347.564336 
L 504.939953 331.416753 
L 506.558636 327.379857 
L 509.796002 343.52744 
L 511.414685 337.472096 
L 513.033368 345.545888 
L 514.65205 339.490544 
L 517.889416 339.490544 
L 519.508099 335.453649 
L 521.126782 337.472096 
L 522.745465 333.435201 
L 525.98283 329.398305 
L 527.601513 323.342961 
L 529.220196 311.232274 
L 530.838879 321.324513 
L 532.457562 325.361409 
L 534.076245 309.213826 
L 537.31361 313.250722 
L 538.932293 301.140035 
L 540.550976 293.066243 
L 542.169659 278.937108 
L 543.788342 268.844869 
L 545.407025 270.863316 
L 547.025708 278.937108 
L 548.64439 280.955556 
L 550.263073 289.029347 
L 551.881756 270.863316 
L 553.500439 260.771077 
L 555.119122 270.863316 
L 556.737805 270.863316 
L 558.356488 254.715733 
L 559.975171 254.715733 
L 561.593853 236.549702 
L 563.212536 220.402119 
L 564.831219 230.494359 
L 566.449902 236.549702 
L 568.068585 222.420567 
L 569.687268 230.494359 
L 571.305951 202.236089 
L 572.924633 202.236089 
L 576.161999 194.162297 
L 577.780682 196.180745 
L 579.399365 188.106953 
L 581.018048 182.05161 
L 582.636731 188.106953 
L 585.874096 184.070058 
L 587.492779 173.977818 
L 589.111462 184.070058 
L 590.730145 204.254536 
L 595.586193 192.143849 
L 597.204876 175.996266 
L 598.823559 200.217641 
L 600.442242 200.217641 
L 602.060925 206.272984 
L 603.679608 202.236089 
L 605.298291 214.346776 
L 606.916973 214.346776 
L 608.535656 200.217641 
L 610.154339 214.346776 
L 611.773022 206.272984 
L 613.391705 206.272984 
L 616.629071 230.494359 
L 618.247753 230.494359 
L 619.866436 248.66039 
L 621.485119 248.66039 
L 623.103802 256.734181 
L 624.722485 260.771077 
L 626.341168 266.826421 
L 627.959851 278.937108 
L 629.578533 295.084691 
L 631.197216 299.121587 
L 632.815899 307.195378 
L 634.434582 295.084691 
L 636.053265 287.010899 
L 637.671948 297.103139 
L 639.290631 299.121587 
L 640.909314 305.17693 
L 642.527996 321.324513 
L 644.146679 317.287618 
L 645.765362 321.324513 
L 647.384045 311.232274 
L 650.621411 323.342961 
L 652.240094 339.490544 
L 653.858776 353.619679 
L 655.477459 353.619679 
L 657.096142 357.656575 
L 658.714825 355.638127 
L 660.333508 367.748815 
L 661.952191 373.804158 
L 663.570874 385.914845 
L 665.189556 379.859502 
L 666.808239 371.78571 
L 668.426922 391.970189 
L 670.045605 393.988637 
L 671.664288 408.117772 
L 674.901654 404.080876 
L 676.520336 404.080876 
L 678.139019 408.117772 
L 679.757702 414.173116 
L 681.376385 412.154668 
L 682.995068 414.173116 
L 684.613751 414.173116 
L 686.232434 420.228459 
L 687.851116 416.191564 
L 689.469799 416.191564 
L 691.088482 420.228459 
L 694.325848 412.154668 
L 695.944531 416.191564 
L 697.563214 412.154668 
L 699.181896 422.246907 
L 700.800579 426.283803 
L 702.419262 424.265355 
L 704.037945 432.339147 
L 705.656628 436.376042 
L 707.275311 434.357595 
L 708.893994 442.431386 
L 710.512676 442.431386 
L 712.131359 446.468282 
L 715.368725 442.431386 
L 718.606091 442.431386 
L 720.224774 438.39449 
L 721.843457 442.431386 
L 723.462139 444.449834 
L 725.080822 444.449834 
L 726.699505 448.48673 
L 729.936871 444.449834 
L 731.555554 444.449834 
L 733.174237 450.505178 
L 736.411602 454.542073 
L 738.030285 450.505178 
L 739.648968 454.542073 
L 739.648968 454.542073 
" style="fill:none;stroke:#d4351c;stroke-linecap:square;stroke-width:2;"/>
   </g>
   <g id="patch_3">
    <path d="M 74.370312 476.745 
L 743.970313 476.745 
" style="fill:none;stroke:#000000;stroke-linecap:square;stroke-linejoin:miter;stroke-width:0.8;"/>
   </g>
   <g id="text_23">
    <!-- COVID-19 patients in mechanical ventilation beds by nation, per capita -->
    <g transform="translate(202.059688 27.225)scale(0.12 -0.12)">
     <defs>
      <path d="M 4511 3025 
L 3516 3025 
Q 3459 3409 3188 3628 
Q 2918 3848 2514 3848 
Q 1973 3848 1647 3451 
Q 1321 3055 1321 2327 
Q 1321 1582 1649 1194 
Q 1977 807 2507 807 
Q 2900 807 3173 1012 
Q 3446 1218 3516 1591 
L 4511 1586 
Q 4459 1159 4207 782 
Q 3955 405 3522 170 
Q 3089 -64 2491 -64 
Q 1868 -64 1378 218 
Q 889 500 606 1034 
Q 323 1568 323 2327 
Q 323 3089 609 3623 
Q 896 4157 1386 4437 
Q 1877 4718 2491 4718 
Q 3030 4718 3463 4519 
Q 3896 4320 4172 3942 
Q 4448 3564 4511 3025 
z
" id="Inter-Bold-43" transform="scale(0.015625)"/>
      <path d="M 4682 2327 
Q 4682 1566 4394 1032 
Q 4107 498 3614 217 
Q 3121 -64 2502 -64 
Q 1882 -64 1389 218 
Q 896 500 609 1035 
Q 323 1570 323 2327 
Q 323 3089 609 3623 
Q 896 4157 1389 4437 
Q 1882 4718 2502 4718 
Q 3121 4718 3614 4437 
Q 4107 4157 4394 3623 
Q 4682 3089 4682 2327 
z
M 3684 2327 
Q 3684 3068 3361 3458 
Q 3039 3848 2502 3848 
Q 1966 3848 1643 3458 
Q 1321 3068 1321 2327 
Q 1321 1589 1643 1198 
Q 1966 807 2502 807 
Q 3039 807 3361 1198 
Q 3684 1589 3684 2327 
z
" id="Inter-Bold-4f" transform="scale(0.015625)"/>
      <path d="M 1246 4655 
L 2371 1118 
L 2414 1118 
L 3541 4655 
L 4632 4655 
L 3027 0 
L 1759 0 
L 152 4655 
L 1246 4655 
z
" id="Inter-Bold-56" transform="scale(0.015625)"/>
      <path d="M 1389 4655 
L 1389 0 
L 405 0 
L 405 4655 
L 1389 4655 
z
" id="Inter-Bold-49" transform="scale(0.015625)"/>
      <path d="M 2055 0 
L 405 0 
L 405 4655 
L 2068 4655 
Q 2771 4655 3278 4376 
Q 3786 4098 4059 3577 
Q 4332 3057 4332 2332 
Q 4332 1605 4058 1082 
Q 3784 559 3274 279 
Q 2764 0 2055 0 
z
M 1389 843 
L 2014 843 
Q 2671 843 3010 1197 
Q 3350 1552 3350 2332 
Q 3350 3107 3010 3459 
Q 2671 3811 2016 3811 
L 1389 3811 
L 1389 843 
z
" id="Inter-Bold-44" transform="scale(0.015625)"/>
      <path d="M 2561 2295 
L 2561 1527 
L 439 1527 
L 439 2295 
L 2561 2295 
z
" id="Inter-Bold-2d" transform="scale(0.015625)"/>
      <path d="M 2305 4655 
L 2305 0 
L 1323 0 
L 1323 3450 
L 1280 3450 
Q 1205 3334 961 3219 
Q 718 3105 332 3105 
L 332 3886 
Q 632 3886 857 4019 
Q 1082 4152 1209 4333 
Q 1336 4514 1341 4655 
L 2305 4655 
z
" id="Inter-Bold-31" transform="scale(0.015625)"/>
      <path d="M 2061 4732 
Q 2421 4732 2753 4612 
Q 3086 4493 3348 4227 
Q 3611 3961 3766 3523 
Q 3921 3086 3921 2448 
Q 3921 1659 3686 1096 
Q 3452 534 3028 235 
Q 2605 -64 2027 -64 
Q 1561 -64 1204 117 
Q 848 298 631 610 
Q 414 923 368 1314 
L 1339 1314 
Q 1396 1059 1577 919 
Q 1759 780 2027 780 
Q 2482 780 2718 1176 
Q 2955 1573 2957 2264 
L 2925 2264 
Q 2771 1957 2453 1782 
Q 2136 1607 1752 1607 
Q 1341 1607 1016 1801 
Q 691 1995 506 2334 
Q 321 2673 323 3109 
Q 321 3582 539 3949 
Q 757 4316 1149 4525 
Q 1541 4734 2061 4732 
z
M 2068 3959 
Q 1725 3959 1500 3722 
Q 1275 3486 1277 3136 
Q 1275 2791 1496 2555 
Q 1718 2320 2059 2320 
Q 2284 2320 2465 2431 
Q 2646 2543 2751 2729 
Q 2857 2916 2859 3141 
Q 2857 3366 2753 3551 
Q 2650 3736 2473 3847 
Q 2296 3959 2068 3959 
z
" id="Inter-Bold-39" transform="scale(0.015625)"/>
      <path id="Inter-Bold-20" transform="scale(0.015625)"/>
      <path d="M 386 -1309 
L 386 3491 
L 1341 3491 
L 1341 2905 
L 1384 2905 
Q 1450 3048 1570 3193 
Q 1691 3339 1888 3437 
Q 2086 3536 2377 3536 
Q 2761 3536 3081 3337 
Q 3402 3139 3596 2740 
Q 3791 2341 3791 1741 
Q 3791 1157 3602 756 
Q 3414 355 3093 149 
Q 2773 -57 2375 -57 
Q 2093 -57 1896 36 
Q 1700 130 1576 272 
Q 1452 414 1384 559 
L 1355 559 
L 1355 -1309 
L 386 -1309 
z
M 1334 1745 
Q 1334 1280 1526 997 
Q 1718 714 2068 714 
Q 2425 714 2613 1001 
Q 2802 1289 2802 1745 
Q 2802 2200 2614 2483 
Q 2427 2766 2068 2766 
Q 1716 2766 1525 2490 
Q 1334 2214 1334 1745 
z
" id="Inter-Bold-70" transform="scale(0.015625)"/>
      <path d="M 1382 -66 
Q 882 -66 552 195 
Q 223 457 223 975 
Q 223 1366 407 1588 
Q 591 1811 890 1914 
Q 1189 2018 1534 2050 
Q 1989 2095 2184 2145 
Q 2380 2195 2380 2364 
L 2380 2377 
Q 2380 2593 2244 2711 
Q 2109 2830 1861 2830 
Q 1600 2830 1445 2716 
Q 1291 2602 1241 2427 
L 346 2500 
Q 446 2977 842 3256 
Q 1239 3536 1866 3536 
Q 2255 3536 2593 3413 
Q 2932 3291 3140 3030 
Q 3348 2770 3348 2355 
L 3348 0 
L 2430 0 
L 2430 484 
L 2402 484 
Q 2275 241 2021 87 
Q 1768 -66 1382 -66 
z
M 1659 602 
Q 1977 602 2181 787 
Q 2386 973 2386 1248 
L 2386 1618 
Q 2330 1580 2210 1550 
Q 2091 1520 1956 1498 
Q 1821 1477 1714 1461 
Q 1459 1425 1303 1318 
Q 1148 1211 1148 1007 
Q 1148 807 1292 704 
Q 1436 602 1659 602 
z
" id="Inter-Bold-61" transform="scale(0.015625)"/>
      <path d="M 2243 3491 
L 2243 2764 
L 1586 2764 
L 1586 1073 
Q 1586 873 1677 802 
Q 1768 732 1914 732 
Q 1982 732 2050 744 
Q 2118 757 2155 764 
L 2307 43 
Q 2234 20 2102 -10 
Q 1971 -41 1782 -48 
Q 1255 -70 935 181 
Q 616 432 618 945 
L 618 2764 
L 141 2764 
L 141 3491 
L 618 3491 
L 618 4327 
L 1586 4327 
L 1586 3491 
L 2243 3491 
z
" id="Inter-Bold-74" transform="scale(0.015625)"/>
      <path d="M 386 0 
L 386 3491 
L 1355 3491 
L 1355 0 
L 386 0 
z
M 876 3941 
Q 662 3941 507 4085 
Q 353 4230 353 4432 
Q 353 4634 507 4777 
Q 662 4920 876 4920 
Q 1092 4920 1246 4777 
Q 1401 4634 1401 4432 
Q 1401 4230 1246 4085 
Q 1092 3941 876 3941 
z
" id="Inter-Bold-69" transform="scale(0.015625)"/>
      <path d="M 1977 -68 
Q 1441 -68 1052 151 
Q 664 370 455 773 
Q 246 1177 246 1730 
Q 246 2268 455 2675 
Q 664 3082 1044 3309 
Q 1425 3536 1939 3536 
Q 2400 3536 2771 3340 
Q 3143 3145 3361 2751 
Q 3580 2357 3580 1764 
L 3580 1498 
L 1202 1498 
L 1202 1495 
Q 1202 1105 1416 880 
Q 1630 655 1993 655 
Q 2236 655 2413 757 
Q 2591 859 2664 1059 
L 3559 1000 
Q 3457 514 3041 223 
Q 2625 -68 1977 -68 
z
M 1202 2098 
L 2668 2098 
Q 2666 2409 2468 2611 
Q 2271 2814 1955 2814 
Q 1632 2814 1425 2604 
Q 1218 2395 1202 2098 
z
" id="Inter-Bold-65" transform="scale(0.015625)"/>
      <path d="M 1355 2018 
L 1355 0 
L 386 0 
L 386 3491 
L 1309 3491 
L 1309 2875 
L 1350 2875 
Q 1468 3180 1739 3358 
Q 2011 3536 2400 3536 
Q 2946 3536 3275 3185 
Q 3605 2834 3605 2223 
L 3605 0 
L 2636 0 
L 2636 2050 
Q 2639 2370 2473 2551 
Q 2307 2732 2016 2732 
Q 1723 2732 1540 2544 
Q 1357 2357 1355 2018 
z
" id="Inter-Bold-6e" transform="scale(0.015625)"/>
      <path d="M 3291 2495 
L 2405 2441 
Q 2368 2609 2220 2729 
Q 2073 2850 1821 2850 
Q 1596 2850 1440 2755 
Q 1284 2661 1286 2505 
Q 1284 2380 1385 2293 
Q 1486 2207 1730 2155 
L 2361 2027 
Q 3368 1820 3371 1082 
Q 3371 739 3169 479 
Q 2968 220 2618 76 
Q 2268 -68 1816 -68 
Q 1123 -68 711 221 
Q 300 511 232 1011 
L 1184 1061 
Q 1230 848 1394 739 
Q 1559 630 1818 630 
Q 2073 630 2228 730 
Q 2384 830 2386 984 
Q 2380 1243 1939 1332 
L 1334 1452 
Q 321 1655 325 2450 
Q 323 2955 728 3245 
Q 1134 3536 1805 3536 
Q 2466 3536 2846 3256 
Q 3227 2977 3291 2495 
z
" id="Inter-Bold-73" transform="scale(0.015625)"/>
      <path d="M 386 0 
L 386 3491 
L 1309 3491 
L 1309 2875 
L 1350 2875 
Q 1459 3184 1715 3360 
Q 1971 3536 2323 3536 
Q 2682 3536 2934 3358 
Q 3186 3180 3271 2875 
L 3307 2875 
Q 3414 3175 3694 3355 
Q 3975 3536 4359 3536 
Q 4848 3536 5153 3226 
Q 5459 2916 5459 2348 
L 5459 0 
L 4493 0 
L 4493 2157 
Q 4493 2448 4338 2593 
Q 4184 2739 3952 2739 
Q 3689 2739 3541 2570 
Q 3393 2402 3393 2132 
L 3393 0 
L 2455 0 
L 2455 2177 
Q 2455 2434 2308 2586 
Q 2161 2739 1923 2739 
Q 1682 2739 1518 2562 
Q 1355 2386 1355 2095 
L 1355 0 
L 386 0 
z
" id="Inter-Bold-6d" transform="scale(0.015625)"/>
      <path d="M 1964 -68 
Q 1427 -68 1042 160 
Q 657 389 451 795 
Q 246 1202 246 1732 
Q 246 2268 453 2674 
Q 661 3080 1045 3308 
Q 1430 3536 1959 3536 
Q 2416 3536 2760 3370 
Q 3105 3205 3303 2905 
Q 3502 2605 3523 2200 
L 2609 2200 
Q 2571 2461 2406 2621 
Q 2241 2782 1975 2782 
Q 1639 2782 1434 2511 
Q 1230 2241 1230 1745 
Q 1230 1245 1433 971 
Q 1636 698 1975 698 
Q 2225 698 2395 849 
Q 2566 1000 2609 1280 
L 3523 1280 
Q 3500 880 3305 575 
Q 3111 270 2770 101 
Q 2430 -68 1964 -68 
z
" id="Inter-Bold-63" transform="scale(0.015625)"/>
      <path d="M 1355 2018 
L 1355 0 
L 386 0 
L 386 4655 
L 1327 4655 
L 1327 2875 
L 1368 2875 
Q 1489 3184 1751 3360 
Q 2014 3536 2411 3536 
Q 2957 3536 3289 3186 
Q 3621 2836 3618 2223 
L 3618 0 
L 2650 0 
L 2650 2050 
Q 2652 2373 2487 2552 
Q 2323 2732 2027 2732 
Q 1732 2732 1544 2544 
Q 1357 2357 1355 2018 
z
" id="Inter-Bold-68" transform="scale(0.015625)"/>
      <path d="M 1355 4655 
L 1355 0 
L 386 0 
L 386 4655 
L 1355 4655 
z
" id="Inter-Bold-6c" transform="scale(0.015625)"/>
      <path d="M 3641 3491 
L 2421 0 
L 1330 0 
L 109 3491 
L 1132 3491 
L 1857 993 
L 1893 993 
L 2616 3491 
L 3641 3491 
z
" id="Inter-Bold-76" transform="scale(0.015625)"/>
      <path d="M 1964 -68 
Q 1434 -68 1049 158 
Q 664 384 455 789 
Q 246 1195 246 1732 
Q 246 2273 455 2678 
Q 664 3084 1049 3310 
Q 1434 3536 1964 3536 
Q 2493 3536 2878 3310 
Q 3264 3084 3473 2678 
Q 3682 2273 3682 1732 
Q 3682 1195 3473 789 
Q 3264 384 2878 158 
Q 2493 -68 1964 -68 
z
M 1968 682 
Q 2327 682 2512 982 
Q 2698 1282 2698 1739 
Q 2698 2195 2512 2496 
Q 2327 2798 1968 2798 
Q 1602 2798 1416 2496 
Q 1230 2195 1230 1739 
Q 1230 1282 1416 982 
Q 1602 682 1968 682 
z
" id="Inter-Bold-6f" transform="scale(0.015625)"/>
      <path d="M 405 0 
L 405 4655 
L 1373 4655 
L 1373 2905 
L 1402 2905 
Q 1468 3048 1588 3193 
Q 1709 3339 1907 3437 
Q 2105 3536 2396 3536 
Q 2780 3536 3100 3337 
Q 3421 3139 3615 2740 
Q 3809 2341 3809 1741 
Q 3809 1157 3620 756 
Q 3432 355 3111 149 
Q 2791 -57 2393 -57 
Q 2111 -57 1914 36 
Q 1718 130 1594 272 
Q 1471 414 1402 559 
L 1359 559 
L 1359 0 
L 405 0 
z
M 1352 1745 
Q 1352 1280 1544 997 
Q 1736 714 2086 714 
Q 2443 714 2632 1001 
Q 2821 1289 2821 1745 
Q 2821 2200 2633 2483 
Q 2446 2766 2086 2766 
Q 1734 2766 1543 2490 
Q 1352 2214 1352 1745 
z
" id="Inter-Bold-62" transform="scale(0.015625)"/>
      <path d="M 1673 -57 
Q 1275 -57 954 149 
Q 634 355 445 756 
Q 257 1157 257 1741 
Q 257 2341 451 2740 
Q 646 3139 967 3337 
Q 1289 3536 1671 3536 
Q 1964 3536 2160 3437 
Q 2357 3339 2478 3193 
Q 2600 3048 2664 2905 
L 2693 2905 
L 2693 4655 
L 3659 4655 
L 3659 0 
L 2705 0 
L 2705 559 
L 2664 559 
Q 2598 414 2473 272 
Q 2348 130 2151 36 
Q 1955 -57 1673 -57 
z
M 1980 714 
Q 2330 714 2522 997 
Q 2714 1280 2714 1745 
Q 2714 2214 2523 2490 
Q 2332 2766 1980 2766 
Q 1621 2766 1433 2483 
Q 1246 2200 1246 1745 
Q 1246 1289 1434 1001 
Q 1623 714 1980 714 
z
" id="Inter-Bold-64" transform="scale(0.015625)"/>
      <path d="M 950 -1359 
Q 743 -1359 596 -1324 
Q 450 -1289 368 -1252 
L 586 -502 
Q 843 -580 1019 -543 
Q 1196 -507 1298 -268 
L 1361 -100 
L 109 3491 
L 1127 3491 
L 1850 927 
L 1886 927 
L 2616 3491 
L 3641 3491 
L 2277 -400 
Q 2130 -818 1806 -1088 
Q 1482 -1359 950 -1359 
z
" id="Inter-Bold-79" transform="scale(0.015625)"/>
      <path d="M 1439 636 
L 1414 386 
Q 1384 86 1301 -212 
Q 1218 -511 1128 -754 
Q 1039 -998 984 -1136 
L 357 -1136 
Q 391 -1002 450 -763 
Q 509 -525 561 -226 
Q 614 73 627 382 
L 639 636 
L 1439 636 
z
" id="Inter-Bold-2c" transform="scale(0.015625)"/>
      <path d="M 386 0 
L 386 3491 
L 1325 3491 
L 1325 2882 
L 1361 2882 
Q 1457 3207 1681 3374 
Q 1905 3541 2200 3541 
Q 2341 3541 2461 3507 
Q 2582 3473 2677 3414 
L 2386 2614 
Q 2318 2648 2237 2671 
Q 2157 2695 2057 2695 
Q 1764 2695 1560 2495 
Q 1357 2295 1355 1975 
L 1355 0 
L 386 0 
z
" id="Inter-Bold-72" transform="scale(0.015625)"/>
     </defs>
     <use xlink:href="#Inter-Bold-43"/>
     <use x="75.213089" xlink:href="#Inter-Bold-4f"/>
     <use x="153.409134" xlink:href="#Inter-Bold-56"/>
     <use x="228.196075" xlink:href="#Inter-Bold-49"/>
     <use x="256.250061" xlink:href="#Inter-Bold-44"/>
     <use x="328.977356" xlink:href="#Inter-Bold-2d"/>
     <use x="375.852371" xlink:href="#Inter-Bold-31"/>
     <use x="423.260056" xlink:href="#Inter-Bold-39"/>
     <use x="489.275696" xlink:href="#Inter-Bold-20"/>
     <use x="512.464615" xlink:href="#Inter-Bold-70"/>
     <use x="575.710373" xlink:href="#Inter-Bold-61"/>
     <use x="633.735947" xlink:href="#Inter-Bold-74"/>
     <use x="672.585388" xlink:href="#Inter-Bold-69"/>
     <use x="699.787094" xlink:href="#Inter-Bold-65"/>
     <use x="759.552734" xlink:href="#Inter-Bold-6e"/>
     <use x="821.733139" xlink:href="#Inter-Bold-74"/>
     <use x="860.582581" xlink:href="#Inter-Bold-73"/>
     <use x="916.761566" xlink:href="#Inter-Bold-20"/>
     <use x="939.950485" xlink:href="#Inter-Bold-69"/>
     <use x="967.152191" xlink:href="#Inter-Bold-6e"/>
     <use x="1029.332596" xlink:href="#Inter-Bold-20"/>
     <use x="1052.521515" xlink:href="#Inter-Bold-6d"/>
     <use x="1143.714722" xlink:href="#Inter-Bold-65"/>
     <use x="1203.480362" xlink:href="#Inter-Bold-63"/>
     <use x="1262.216171" xlink:href="#Inter-Bold-68"/>
     <use x="1324.645157" xlink:href="#Inter-Bold-61"/>
     <use x="1382.670731" xlink:href="#Inter-Bold-6e"/>
     <use x="1444.851135" xlink:href="#Inter-Bold-69"/>
     <use x="1472.052841" xlink:href="#Inter-Bold-63"/>
     <use x="1530.788651" xlink:href="#Inter-Bold-61"/>
     <use x="1588.814224" xlink:href="#Inter-Bold-6c"/>
     <use x="1616.01593" xlink:href="#Inter-Bold-20"/>
     <use x="1639.204849" xlink:href="#Inter-Bold-76"/>
     <use x="1697.798615" xlink:href="#Inter-Bold-65"/>
     <use x="1757.564255" xlink:href="#Inter-Bold-6e"/>
     <use x="1819.744659" xlink:href="#Inter-Bold-74"/>
     <use x="1858.594101" xlink:href="#Inter-Bold-69"/>
     <use x="1885.795807" xlink:href="#Inter-Bold-6c"/>
     <use x="1912.997513" xlink:href="#Inter-Bold-61"/>
     <use x="1971.023087" xlink:href="#Inter-Bold-74"/>
     <use x="2009.872528" xlink:href="#Inter-Bold-69"/>
     <use x="2037.074234" xlink:href="#Inter-Bold-6f"/>
     <use x="2098.437881" xlink:href="#Inter-Bold-6e"/>
     <use x="2160.618286" xlink:href="#Inter-Bold-20"/>
     <use x="2183.807205" xlink:href="#Inter-Bold-62"/>
     <use x="2247.337051" xlink:href="#Inter-Bold-65"/>
     <use x="2307.102692" xlink:href="#Inter-Bold-64"/>
     <use x="2370.632538" xlink:href="#Inter-Bold-73"/>
     <use x="2426.811523" xlink:href="#Inter-Bold-20"/>
     <use x="2450.000443" xlink:href="#Inter-Bold-62"/>
     <use x="2513.530289" xlink:href="#Inter-Bold-79"/>
     <use x="2572.124054" xlink:href="#Inter-Bold-20"/>
     <use x="2595.312973" xlink:href="#Inter-Bold-6e"/>
     <use x="2657.493378" xlink:href="#Inter-Bold-61"/>
     <use x="2715.518951" xlink:href="#Inter-Bold-74"/>
     <use x="2754.368393" xlink:href="#Inter-Bold-69"/>
     <use x="2781.570099" xlink:href="#Inter-Bold-6f"/>
     <use x="2842.933746" xlink:href="#Inter-Bold-6e"/>
     <use x="2905.114151" xlink:href="#Inter-Bold-2c"/>
     <use x="2935.40535" xlink:href="#Inter-Bold-20"/>
     <use x="2958.594269" xlink:href="#Inter-Bold-70"/>
     <use x="3021.840027" xlink:href="#Inter-Bold-65"/>
     <use x="3081.605667" xlink:href="#Inter-Bold-72"/>
     <use x="3124.467896" xlink:href="#Inter-Bold-20"/>
     <use x="3147.656815" xlink:href="#Inter-Bold-63"/>
     <use x="3206.392624" xlink:href="#Inter-Bold-61"/>
     <use x="3264.418198" xlink:href="#Inter-Bold-70"/>
     <use x="3327.663956" xlink:href="#Inter-Bold-69"/>
     <use x="3354.865662" xlink:href="#Inter-Bold-74"/>
     <use x="3393.715103" xlink:href="#Inter-Bold-61"/>
    </g>
   </g>
   <g id="legend_1">
    <g id="patch_4">
     <path d="M 627.396875 98.614063 
L 736.970313 98.614063 
Q 738.970313 98.614063 738.970313 96.614063 
L 738.970313 40.225 
Q 738.970313 38.225 736.970313 38.225 
L 627.396875 38.225 
Q 625.396875 38.225 625.396875 40.225 
L 625.396875 96.614063 
Q 625.396875 98.614063 627.396875 98.614063 
z
" style="fill:#ffffff;opacity:0.8;stroke:#cccccc;stroke-linejoin:miter;"/>
    </g>
    <g id="line2d_33">
     <path d="M 629.396875 45.998438 
L 649.396875 45.998438 
" style="fill:none;stroke:#d4351c;stroke-linecap:square;stroke-width:2;"/>
    </g>
    <g id="line2d_34"/>
    <g id="text_24">
     <!-- Wales -->
     <g transform="translate(657.396875 49.498438)scale(0.1 -0.1)">
      <defs>
       <path d="M 1409 0 
L 136 4655 
L 709 4655 
L 1682 864 
L 1727 864 
L 2718 4655 
L 3355 4655 
L 4346 864 
L 4391 864 
L 5364 4655 
L 5936 4655 
L 4664 0 
L 4082 0 
L 3055 3709 
L 3018 3709 
L 1991 0 
L 1409 0 
z
" id="Inter-Regular-57" transform="scale(0.015625)"/>
      </defs>
      <use xlink:href="#Inter-Regular-57"/>
      <use x="94.886383" xlink:href="#Inter-Regular-61"/>
      <use x="151.278442" xlink:href="#Inter-Regular-6c"/>
      <use x="175.000031" xlink:href="#Inter-Regular-65"/>
      <use x="233.238678" xlink:href="#Inter-Regular-73"/>
     </g>
    </g>
    <g id="line2d_35">
     <path d="M 629.396875 60.317188 
L 649.396875 60.317188 
" style="fill:none;stroke:#003078;stroke-linecap:square;stroke-width:2;"/>
    </g>
    <g id="line2d_36"/>
    <g id="text_25">
     <!-- Scotland -->
     <g transform="translate(657.396875 63.817188)scale(0.1 -0.1)">
      <use xlink:href="#Inter-Regular-53"/>
      <use x="63.778427" xlink:href="#Inter-Regular-63"/>
      <use x="119.602295" xlink:href="#Inter-Regular-6f"/>
      <use x="179.261398" xlink:href="#Inter-Regular-74"/>
      <use x="215.625046" xlink:href="#Inter-Regular-6c"/>
      <use x="239.346634" xlink:href="#Inter-Regular-61"/>
      <use x="295.738693" xlink:href="#Inter-Regular-6e"/>
      <use x="354.261429" xlink:href="#Inter-Regular-64"/>
     </g>
    </g>
    <g id="line2d_37">
     <path d="M 629.396875 74.635938 
L 649.396875 74.635938 
" style="fill:none;stroke:#ffdd00;stroke-linecap:square;stroke-width:2;"/>
    </g>
    <g id="line2d_38"/>
    <g id="text_26">
     <!-- Northern Ireland -->
     <g transform="translate(657.396875 78.135938)scale(0.1 -0.1)">
      <defs>
       <path d="M 1127 4655 
L 1127 0 
L 564 0 
L 564 4655 
L 1127 4655 
z
" id="Inter-Regular-49" transform="scale(0.015625)"/>
      </defs>
      <use xlink:href="#Inter-Regular-4e"/>
      <use x="75.284103" xlink:href="#Inter-Regular-6f"/>
      <use x="134.943207" xlink:href="#Inter-Regular-72"/>
      <use x="173.295486" xlink:href="#Inter-Regular-74"/>
      <use x="209.659134" xlink:href="#Inter-Regular-68"/>
      <use x="268.750061" xlink:href="#Inter-Regular-65"/>
      <use x="326.988708" xlink:href="#Inter-Regular-72"/>
      <use x="365.340988" xlink:href="#Inter-Regular-6e"/>
      <use x="423.863724" xlink:href="#Inter-Regular-20"/>
      <use x="451.988724" xlink:href="#Inter-Regular-49"/>
      <use x="478.40918" xlink:href="#Inter-Regular-72"/>
      <use x="516.761459" xlink:href="#Inter-Regular-65"/>
      <use x="575.000107" xlink:href="#Inter-Regular-6c"/>
      <use x="598.721695" xlink:href="#Inter-Regular-61"/>
      <use x="655.113754" xlink:href="#Inter-Regular-6e"/>
      <use x="713.63649" xlink:href="#Inter-Regular-64"/>
     </g>
    </g>
    <g id="line2d_39">
     <path d="M 629.396875 88.954688 
L 649.396875 88.954688 
" style="fill:none;stroke:#5694ca;stroke-linecap:square;stroke-width:2;"/>
    </g>
    <g id="line2d_40"/>
    <g id="text_27">
     <!-- England -->
     <g transform="translate(657.396875 92.454688)scale(0.1 -0.1)">
      <defs>
       <path d="M 564 0 
L 564 4655 
L 3373 4655 
L 3373 4155 
L 1127 4155 
L 1127 2582 
L 3227 2582 
L 3227 2082 
L 1127 2082 
L 1127 500 
L 3409 500 
L 3409 0 
L 564 0 
z
" id="Inter-Regular-45" transform="scale(0.015625)"/>
      </defs>
      <use xlink:href="#Inter-Regular-45"/>
      <use x="59.801147" xlink:href="#Inter-Regular-6e"/>
      <use x="118.323883" xlink:href="#Inter-Regular-67"/>
      <use x="179.261398" xlink:href="#Inter-Regular-6c"/>
      <use x="202.982986" xlink:href="#Inter-Regular-61"/>
      <use x="259.375046" xlink:href="#Inter-Regular-6e"/>
      <use x="317.897781" xlink:href="#Inter-Regular-64"/>
     </g>
    </g>
   </g>
  </g>
 </g>
 <defs>
  <clipPath id="p0b21840ffc">
   <rect height="443.52" width="669.6" x="74.370313" y="33.225"/>
  </clipPath>
 </defs>
</svg>
