<?xml version="1.0" encoding="utf-8" standalone="no"?>
<!DOCTYPE svg PUBLIC "-//W3C//DTD SVG 1.1//EN"
  "http://www.w3.org/Graphics/SVG/1.1/DTD/svg11.dtd">
<svg version="1.1" viewBox="0 0 749.927843 511.234062" xmlns="http://www.w3.org/2000/svg" xmlns:xlink="http://www.w3.org/1999/xlink">
 <metadata>
  <rdf:RDF xmlns:cc="http://creativecommons.org/ns#" xmlns:dc="http://purl.org/dc/elements/1.1/" xmlns:rdf="http://www.w3.org/1999/02/22-rdf-syntax-ns#">
   <cc:Work>
    <dc:type rdf:resource="http://purl.org/dc/dcmitype/StillImage"/>
    <dc:date>2021-11-11T17:19:59.692708</dc:date>
    <dc:format>image/svg+xml</dc:format>
    <dc:creator>
     <cc:Agent>
      <dc:title>Matplotlib v3.4.3, https://matplotlib.org/</dc:title>
     </cc:Agent>
    </dc:creator>
   </cc:Work>
  </rdf:RDF>
 </metadata>
 <defs>
  <style type="text/css">*{stroke-linecap:butt;stroke-linejoin:round;}</style>
 </defs>
 <g id="figure_1">
  <g id="patch_1">
   <path d="M 0 511.234062 
L 749.927843 511.234062 
L 749.927843 0 
L 0 0 
z
" style="fill:#ffffff;"/>
  </g>
  <g id="axes_1">
   <g id="patch_2">
    <path d="M 57.621875 476.745 
L 727.221875 476.745 
L 727.221875 33.225 
L 57.621875 33.225 
z
" style="fill:#ffffff;"/>
   </g>
   <g id="matplotlib.axis_1">
    <g id="xtick_1">
     <g id="line2d_1">
      <defs>
       <path d="M 0 0 
L 0 3.5 
" id="mb352f7910e" style="stroke:#000000;stroke-width:0.8;"/>
      </defs>
      <g>
       <use style="stroke:#000000;stroke-width:0.8;" x="57.621875" xlink:href="#mb352f7910e" y="476.745"/>
      </g>
     </g>
     <g id="text_1">
      <!-- 01 Mar -->
      <g transform="translate(41.585156 491.018437)scale(0.1 -0.1)">
       <defs>
        <path d="M 2000 -64 
Q 1230 -64 806 561 
Q 382 1186 382 2327 
Q 382 3459 809 4088 
Q 1236 4718 2000 4718 
Q 2764 4718 3191 4088 
Q 3618 3459 3618 2327 
Q 3618 1186 3194 561 
Q 2771 -64 2000 -64 
z
M 2000 436 
Q 2509 436 2791 927 
Q 3073 1418 3073 2327 
Q 3073 3234 2789 3730 
Q 2505 4227 2000 4227 
Q 1496 4227 1211 3730 
Q 927 3234 927 2327 
Q 927 1418 1210 927 
Q 1493 436 2000 436 
z
" id="Inter-Regular-30" transform="scale(0.015625)"/>
        <path d="M 1973 4655 
L 1973 0 
L 1409 0 
L 1409 3836 
L 1373 3836 
Q 1341 3773 1209 3692 
Q 1077 3611 868 3551 
Q 659 3491 391 3491 
L 391 3964 
Q 661 3964 859 4061 
Q 1057 4159 1190 4291 
Q 1323 4423 1392 4529 
Q 1461 4636 1473 4655 
L 1973 4655 
z
" id="Inter-Regular-31" transform="scale(0.015625)"/>
        <path id="Inter-Regular-20" transform="scale(0.015625)"/>
        <path d="M 564 4655 
L 1236 4655 
L 2818 791 
L 2873 791 
L 4455 4655 
L 5127 4655 
L 5127 0 
L 4600 0 
L 4600 3536 
L 4555 3536 
L 3100 0 
L 2591 0 
L 1136 3536 
L 1091 3536 
L 1091 0 
L 564 0 
L 564 4655 
z
" id="Inter-Regular-4d" transform="scale(0.015625)"/>
        <path d="M 1518 -82 
Q 1186 -82 916 44 
Q 646 170 486 410 
Q 327 650 327 991 
Q 327 1291 445 1478 
Q 564 1666 761 1773 
Q 959 1880 1199 1933 
Q 1439 1986 1682 2018 
Q 2000 2059 2199 2080 
Q 2398 2102 2490 2154 
Q 2582 2207 2582 2336 
L 2582 2355 
Q 2582 2691 2399 2877 
Q 2216 3064 1846 3064 
Q 1461 3064 1243 2895 
Q 1025 2727 936 2536 
L 427 2718 
Q 564 3036 792 3214 
Q 1021 3393 1292 3464 
Q 1564 3536 1827 3536 
Q 1996 3536 2215 3496 
Q 2434 3457 2640 3334 
Q 2846 3211 2982 2963 
Q 3118 2716 3118 2300 
L 3118 0 
L 2582 0 
L 2582 473 
L 2555 473 
Q 2500 359 2373 229 
Q 2246 100 2034 9 
Q 1823 -82 1518 -82 
z
M 1600 400 
Q 1918 400 2137 525 
Q 2357 650 2469 847 
Q 2582 1045 2582 1264 
L 2582 1755 
Q 2548 1714 2433 1681 
Q 2318 1648 2169 1624 
Q 2021 1600 1881 1583 
Q 1741 1566 1655 1555 
Q 1446 1527 1265 1467 
Q 1084 1407 974 1287 
Q 864 1168 864 964 
Q 864 684 1072 542 
Q 1280 400 1600 400 
z
" id="Inter-Regular-61" transform="scale(0.015625)"/>
        <path d="M 491 0 
L 491 3491 
L 1009 3491 
L 1009 2964 
L 1046 2964 
Q 1139 3223 1389 3384 
Q 1639 3545 1955 3545 
Q 2100 3545 2209 3511 
Q 2318 3477 2400 3418 
L 2218 2964 
Q 2161 2993 2085 3010 
Q 2009 3027 1909 3027 
Q 1527 3027 1277 2794 
Q 1027 2561 1027 2209 
L 1027 0 
L 491 0 
z
" id="Inter-Regular-72" transform="scale(0.015625)"/>
       </defs>
       <use xlink:href="#Inter-Regular-30"/>
       <use x="62.500015" xlink:href="#Inter-Regular-31"/>
       <use x="106.676163" xlink:href="#Inter-Regular-20"/>
       <use x="134.801163" xlink:href="#Inter-Regular-4d"/>
       <use x="225.99437" xlink:href="#Inter-Regular-61"/>
       <use x="282.386429" xlink:href="#Inter-Regular-72"/>
      </g>
     </g>
    </g>
    <g id="xtick_2">
     <g id="line2d_2">
      <g>
       <use style="stroke:#000000;stroke-width:0.8;" x="91.062992" xlink:href="#mb352f7910e" y="476.745"/>
      </g>
     </g>
    </g>
    <g id="xtick_3">
     <g id="line2d_3">
      <g>
       <use style="stroke:#000000;stroke-width:0.8;" x="123.425362" xlink:href="#mb352f7910e" y="476.745"/>
      </g>
     </g>
     <g id="text_2">
      <!-- 01 May -->
      <g transform="translate(106.522237 491.116875)scale(0.1 -0.1)">
       <defs>
        <path d="M 818 -1355 
Q 682 -1355 575 -1333 
Q 468 -1311 427 -1291 
L 564 -818 
Q 857 -893 1053 -814 
Q 1250 -736 1391 -345 
L 1509 -18 
L 218 3491 
L 800 3491 
L 1764 709 
L 1800 709 
L 2764 3491 
L 3346 3491 
L 1846 -564 
Q 1550 -1355 818 -1355 
z
" id="Inter-Regular-79" transform="scale(0.015625)"/>
       </defs>
       <use xlink:href="#Inter-Regular-30"/>
       <use x="62.500015" xlink:href="#Inter-Regular-31"/>
       <use x="106.676163" xlink:href="#Inter-Regular-20"/>
       <use x="134.801163" xlink:href="#Inter-Regular-4d"/>
       <use x="225.99437" xlink:href="#Inter-Regular-61"/>
       <use x="282.386429" xlink:href="#Inter-Regular-79"/>
      </g>
     </g>
    </g>
    <g id="xtick_4">
     <g id="line2d_4">
      <g>
       <use style="stroke:#000000;stroke-width:0.8;" x="156.866479" xlink:href="#mb352f7910e" y="476.745"/>
      </g>
     </g>
    </g>
    <g id="xtick_5">
     <g id="line2d_5">
      <g>
       <use style="stroke:#000000;stroke-width:0.8;" x="189.22885" xlink:href="#mb352f7910e" y="476.745"/>
      </g>
     </g>
     <g id="text_3">
      <!-- 01 Jul -->
      <g transform="translate(175.6851 491.018437)scale(0.1 -0.1)">
       <defs>
        <path d="M 2346 4655 
L 2909 4655 
L 2909 1327 
Q 2909 657 2549 296 
Q 2189 -64 1582 -64 
Q 1200 -64 902 76 
Q 605 216 434 475 
Q 264 734 264 1091 
L 818 1091 
Q 818 795 1034 615 
Q 1250 436 1582 436 
Q 1948 436 2147 664 
Q 2346 893 2346 1327 
L 2346 4655 
z
" id="Inter-Regular-4a" transform="scale(0.015625)"/>
        <path d="M 2691 1427 
L 2691 3491 
L 3227 3491 
L 3227 0 
L 2691 0 
L 2691 591 
L 2655 591 
Q 2532 325 2273 140 
Q 2014 -45 1618 -45 
Q 1127 -45 809 280 
Q 491 605 491 1273 
L 491 3491 
L 1027 3491 
L 1027 1309 
Q 1027 927 1242 700 
Q 1457 473 1791 473 
Q 1991 473 2199 575 
Q 2407 677 2549 888 
Q 2691 1100 2691 1427 
z
" id="Inter-Regular-75" transform="scale(0.015625)"/>
        <path d="M 1027 4655 
L 1027 0 
L 491 0 
L 491 4655 
L 1027 4655 
z
" id="Inter-Regular-6c" transform="scale(0.015625)"/>
       </defs>
       <use xlink:href="#Inter-Regular-30"/>
       <use x="62.500015" xlink:href="#Inter-Regular-31"/>
       <use x="106.676163" xlink:href="#Inter-Regular-20"/>
       <use x="134.801163" xlink:href="#Inter-Regular-4a"/>
       <use x="189.062531" xlink:href="#Inter-Regular-75"/>
       <use x="247.159134" xlink:href="#Inter-Regular-6c"/>
      </g>
     </g>
    </g>
    <g id="xtick_6">
     <g id="line2d_6">
      <g>
       <use style="stroke:#000000;stroke-width:0.8;" x="222.669966" xlink:href="#mb352f7910e" y="476.745"/>
      </g>
     </g>
    </g>
    <g id="xtick_7">
     <g id="line2d_7">
      <g>
       <use style="stroke:#000000;stroke-width:0.8;" x="256.111083" xlink:href="#mb352f7910e" y="476.745"/>
      </g>
     </g>
     <g id="text_4">
      <!-- 01 Sep -->
      <g transform="translate(240.223583 491.116875)scale(0.1 -0.1)">
       <defs>
        <path d="M 3109 3491 
Q 3068 3836 2777 4027 
Q 2486 4218 2064 4218 
Q 1600 4218 1318 3999 
Q 1036 3780 1036 3445 
Q 1036 3195 1189 3042 
Q 1343 2889 1553 2803 
Q 1764 2718 1936 2673 
L 2409 2545 
Q 2591 2498 2815 2414 
Q 3039 2330 3244 2185 
Q 3450 2041 3584 1816 
Q 3718 1591 3718 1264 
Q 3718 886 3521 581 
Q 3325 277 2949 97 
Q 2573 -82 2036 -82 
Q 1286 -82 845 272 
Q 405 627 364 1200 
L 946 1200 
Q 968 936 1124 764 
Q 1280 593 1519 510 
Q 1759 427 2036 427 
Q 2359 427 2616 533 
Q 2873 639 3023 828 
Q 3173 1018 3173 1273 
Q 3173 1505 3043 1650 
Q 2914 1795 2702 1886 
Q 2491 1977 2246 2045 
L 1673 2209 
Q 1127 2366 809 2657 
Q 491 2948 491 3418 
Q 491 3809 703 4101 
Q 916 4393 1276 4555 
Q 1636 4718 2082 4718 
Q 2532 4718 2882 4558 
Q 3232 4398 3437 4120 
Q 3643 3843 3655 3491 
L 3109 3491 
z
" id="Inter-Regular-53" transform="scale(0.015625)"/>
        <path d="M 1955 -73 
Q 1450 -73 1085 151 
Q 721 375 524 778 
Q 327 1182 327 1718 
Q 327 2255 524 2665 
Q 721 3075 1074 3305 
Q 1427 3536 1900 3536 
Q 2173 3536 2439 3445 
Q 2705 3355 2923 3151 
Q 3141 2948 3270 2614 
Q 3400 2280 3400 1791 
L 3400 1564 
L 866 1564 
Q 884 1005 1183 707 
Q 1482 409 1955 409 
Q 2271 409 2498 545 
Q 2725 682 2827 955 
L 3346 809 
Q 3223 414 2854 170 
Q 2486 -73 1955 -73 
z
M 866 2027 
L 2855 2027 
Q 2855 2470 2595 2762 
Q 2336 3055 1900 3055 
Q 1593 3055 1368 2911 
Q 1143 2768 1013 2533 
Q 884 2298 866 2027 
z
" id="Inter-Regular-65" transform="scale(0.015625)"/>
        <path d="M 491 -1309 
L 491 3491 
L 1009 3491 
L 1009 2936 
L 1073 2936 
Q 1132 3027 1237 3169 
Q 1343 3311 1542 3423 
Q 1741 3536 2082 3536 
Q 2523 3536 2859 3315 
Q 3196 3095 3384 2690 
Q 3573 2286 3573 1736 
Q 3573 1182 3384 776 
Q 3196 370 2861 148 
Q 2527 -73 2091 -73 
Q 1755 -73 1552 39 
Q 1350 152 1241 296 
Q 1132 441 1073 536 
L 1027 536 
L 1027 -1309 
L 491 -1309 
z
M 1018 1745 
Q 1018 1152 1276 780 
Q 1534 409 2018 409 
Q 2355 409 2581 587 
Q 2807 766 2921 1069 
Q 3036 1373 3036 1745 
Q 3036 2114 2923 2410 
Q 2811 2707 2585 2881 
Q 2359 3055 2018 3055 
Q 1527 3055 1272 2693 
Q 1018 2332 1018 1745 
z
" id="Inter-Regular-70" transform="scale(0.015625)"/>
       </defs>
       <use xlink:href="#Inter-Regular-30"/>
       <use x="62.500015" xlink:href="#Inter-Regular-31"/>
       <use x="106.676163" xlink:href="#Inter-Regular-20"/>
       <use x="134.801163" xlink:href="#Inter-Regular-53"/>
       <use x="198.57959" xlink:href="#Inter-Regular-65"/>
       <use x="256.818237" xlink:href="#Inter-Regular-70"/>
      </g>
     </g>
    </g>
    <g id="xtick_8">
     <g id="line2d_8">
      <g>
       <use style="stroke:#000000;stroke-width:0.8;" x="288.473454" xlink:href="#mb352f7910e" y="476.745"/>
      </g>
     </g>
    </g>
    <g id="xtick_9">
     <g id="line2d_9">
      <g>
       <use style="stroke:#000000;stroke-width:0.8;" x="321.91457" xlink:href="#mb352f7910e" y="476.745"/>
      </g>
     </g>
     <g id="text_5">
      <!-- 01 Nov -->
      <g transform="translate(305.643477 491.018437)scale(0.1 -0.1)">
       <defs>
        <path d="M 4255 4655 
L 4255 0 
L 3709 0 
L 1173 3655 
L 1127 3655 
L 1127 0 
L 564 0 
L 564 4655 
L 1109 4655 
L 3655 991 
L 3700 991 
L 3700 4655 
L 4255 4655 
z
" id="Inter-Regular-4e" transform="scale(0.015625)"/>
        <path d="M 1909 -73 
Q 1436 -73 1080 152 
Q 725 377 526 781 
Q 327 1186 327 1727 
Q 327 2273 526 2679 
Q 725 3086 1080 3311 
Q 1436 3536 1909 3536 
Q 2382 3536 2737 3311 
Q 3093 3086 3292 2679 
Q 3491 2273 3491 1727 
Q 3491 1186 3292 781 
Q 3093 377 2737 152 
Q 2382 -73 1909 -73 
z
M 1909 409 
Q 2268 409 2500 593 
Q 2732 777 2843 1077 
Q 2955 1377 2955 1727 
Q 2955 2077 2843 2379 
Q 2732 2682 2500 2868 
Q 2268 3055 1909 3055 
Q 1550 3055 1318 2868 
Q 1086 2682 975 2379 
Q 864 2077 864 1727 
Q 864 1377 975 1077 
Q 1086 777 1318 593 
Q 1550 409 1909 409 
z
" id="Inter-Regular-6f" transform="scale(0.015625)"/>
        <path d="M 3346 3491 
L 2055 0 
L 1509 0 
L 218 3491 
L 800 3491 
L 1764 709 
L 1800 709 
L 2764 3491 
L 3346 3491 
z
" id="Inter-Regular-76" transform="scale(0.015625)"/>
       </defs>
       <use xlink:href="#Inter-Regular-30"/>
       <use x="62.500015" xlink:href="#Inter-Regular-31"/>
       <use x="106.676163" xlink:href="#Inter-Regular-20"/>
       <use x="134.801163" xlink:href="#Inter-Regular-4e"/>
       <use x="210.085266" xlink:href="#Inter-Regular-6f"/>
       <use x="269.74437" xlink:href="#Inter-Regular-76"/>
      </g>
     </g>
    </g>
    <g id="xtick_10">
     <g id="line2d_10">
      <g>
       <use style="stroke:#000000;stroke-width:0.8;" x="354.276941" xlink:href="#mb352f7910e" y="476.745"/>
      </g>
     </g>
    </g>
    <g id="xtick_11">
     <g id="line2d_11">
      <g>
       <use style="stroke:#000000;stroke-width:0.8;" x="387.718058" xlink:href="#mb352f7910e" y="476.745"/>
      </g>
     </g>
     <g id="text_6">
      <!-- 01 Jan -->
      <g transform="translate(372.518839 491.018437)scale(0.1 -0.1)">
       <defs>
        <path d="M 1027 2100 
L 1027 0 
L 491 0 
L 491 3491 
L 1009 3491 
L 1009 2945 
L 1055 2945 
Q 1177 3211 1427 3373 
Q 1677 3536 2073 3536 
Q 2602 3536 2928 3211 
Q 3255 2886 3255 2218 
L 3255 0 
L 2718 0 
L 2718 2182 
Q 2718 2593 2504 2824 
Q 2291 3055 1918 3055 
Q 1534 3055 1280 2806 
Q 1027 2557 1027 2100 
z
" id="Inter-Regular-6e" transform="scale(0.015625)"/>
       </defs>
       <use xlink:href="#Inter-Regular-30"/>
       <use x="62.500015" xlink:href="#Inter-Regular-31"/>
       <use x="106.676163" xlink:href="#Inter-Regular-20"/>
       <use x="134.801163" xlink:href="#Inter-Regular-4a"/>
       <use x="189.062531" xlink:href="#Inter-Regular-61"/>
       <use x="245.45459" xlink:href="#Inter-Regular-6e"/>
      </g>
     </g>
    </g>
    <g id="xtick_12">
     <g id="line2d_12">
      <g>
       <use style="stroke:#000000;stroke-width:0.8;" x="421.159174" xlink:href="#mb352f7910e" y="476.745"/>
      </g>
     </g>
    </g>
    <g id="xtick_13">
     <g id="line2d_13">
      <g>
       <use style="stroke:#000000;stroke-width:0.8;" x="451.364054" xlink:href="#mb352f7910e" y="476.745"/>
      </g>
     </g>
     <g id="text_7">
      <!-- 01 Mar -->
      <g transform="translate(435.327335 491.018437)scale(0.1 -0.1)">
       <use xlink:href="#Inter-Regular-30"/>
       <use x="62.500015" xlink:href="#Inter-Regular-31"/>
       <use x="106.676163" xlink:href="#Inter-Regular-20"/>
       <use x="134.801163" xlink:href="#Inter-Regular-4d"/>
       <use x="225.99437" xlink:href="#Inter-Regular-61"/>
       <use x="282.386429" xlink:href="#Inter-Regular-72"/>
      </g>
     </g>
    </g>
    <g id="xtick_14">
     <g id="line2d_14">
      <g>
       <use style="stroke:#000000;stroke-width:0.8;" x="484.80517" xlink:href="#mb352f7910e" y="476.745"/>
      </g>
     </g>
    </g>
    <g id="xtick_15">
     <g id="line2d_15">
      <g>
       <use style="stroke:#000000;stroke-width:0.8;" x="517.167541" xlink:href="#mb352f7910e" y="476.745"/>
      </g>
     </g>
     <g id="text_8">
      <!-- 01 May -->
      <g transform="translate(500.264416 491.116875)scale(0.1 -0.1)">
       <use xlink:href="#Inter-Regular-30"/>
       <use x="62.500015" xlink:href="#Inter-Regular-31"/>
       <use x="106.676163" xlink:href="#Inter-Regular-20"/>
       <use x="134.801163" xlink:href="#Inter-Regular-4d"/>
       <use x="225.99437" xlink:href="#Inter-Regular-61"/>
       <use x="282.386429" xlink:href="#Inter-Regular-79"/>
      </g>
     </g>
    </g>
    <g id="xtick_16">
     <g id="line2d_16">
      <g>
       <use style="stroke:#000000;stroke-width:0.8;" x="550.608658" xlink:href="#mb352f7910e" y="476.745"/>
      </g>
     </g>
    </g>
    <g id="xtick_17">
     <g id="line2d_17">
      <g>
       <use style="stroke:#000000;stroke-width:0.8;" x="582.971029" xlink:href="#mb352f7910e" y="476.745"/>
      </g>
     </g>
     <g id="text_9">
      <!-- 01 Jul -->
      <g transform="translate(569.427279 491.018437)scale(0.1 -0.1)">
       <use xlink:href="#Inter-Regular-30"/>
       <use x="62.500015" xlink:href="#Inter-Regular-31"/>
       <use x="106.676163" xlink:href="#Inter-Regular-20"/>
       <use x="134.801163" xlink:href="#Inter-Regular-4a"/>
       <use x="189.062531" xlink:href="#Inter-Regular-75"/>
       <use x="247.159134" xlink:href="#Inter-Regular-6c"/>
      </g>
     </g>
    </g>
    <g id="xtick_18">
     <g id="line2d_18">
      <g>
       <use style="stroke:#000000;stroke-width:0.8;" x="616.412145" xlink:href="#mb352f7910e" y="476.745"/>
      </g>
     </g>
    </g>
    <g id="xtick_19">
     <g id="line2d_19">
      <g>
       <use style="stroke:#000000;stroke-width:0.8;" x="649.853262" xlink:href="#mb352f7910e" y="476.745"/>
      </g>
     </g>
     <g id="text_10">
      <!-- 01 Sep -->
      <g transform="translate(633.965762 491.116875)scale(0.1 -0.1)">
       <use xlink:href="#Inter-Regular-30"/>
       <use x="62.500015" xlink:href="#Inter-Regular-31"/>
       <use x="106.676163" xlink:href="#Inter-Regular-20"/>
       <use x="134.801163" xlink:href="#Inter-Regular-53"/>
       <use x="198.57959" xlink:href="#Inter-Regular-65"/>
       <use x="256.818237" xlink:href="#Inter-Regular-70"/>
      </g>
     </g>
    </g>
    <g id="xtick_20">
     <g id="line2d_20">
      <g>
       <use style="stroke:#000000;stroke-width:0.8;" x="682.215633" xlink:href="#mb352f7910e" y="476.745"/>
      </g>
     </g>
    </g>
    <g id="xtick_21">
     <g id="line2d_21">
      <g>
       <use style="stroke:#000000;stroke-width:0.8;" x="715.656749" xlink:href="#mb352f7910e" y="476.745"/>
      </g>
     </g>
     <g id="text_11">
      <!-- 01 Nov -->
      <g transform="translate(699.385656 491.018437)scale(0.1 -0.1)">
       <use xlink:href="#Inter-Regular-30"/>
       <use x="62.500015" xlink:href="#Inter-Regular-31"/>
       <use x="106.676163" xlink:href="#Inter-Regular-20"/>
       <use x="134.801163" xlink:href="#Inter-Regular-4e"/>
       <use x="210.085266" xlink:href="#Inter-Regular-6f"/>
       <use x="269.74437" xlink:href="#Inter-Regular-76"/>
      </g>
     </g>
    </g>
   </g>
   <g id="matplotlib.axis_2">
    <g id="ytick_1">
     <g id="line2d_22">
      <path clip-path="url(#p9374a322b8)" d="M 57.621875 476.745 
L 727.221875 476.745 
" style="fill:none;stroke:#e5e5e5;stroke-linecap:square;stroke-width:0.8;"/>
     </g>
     <g id="line2d_23">
      <defs>
       <path d="M 0 0 
L -3.5 0 
" id="m51bf4ce663" style="stroke:#000000;stroke-width:0.8;"/>
      </defs>
      <g>
       <use style="stroke:#000000;stroke-width:0.8;" x="57.621875" xlink:href="#m51bf4ce663" y="476.745"/>
      </g>
     </g>
     <g id="text_12">
      <!-- 0% -->
      <g transform="translate(36.246875 480.381719)scale(0.1 -0.1)">
       <defs>
        <path d="M 2855 873 
L 2855 1118 
Q 2855 1373 2960 1585 
Q 3066 1798 3269 1926 
Q 3473 2055 3764 2055 
Q 4059 2055 4259 1926 
Q 4459 1798 4561 1585 
Q 4664 1373 4664 1118 
L 4664 873 
Q 4664 618 4560 405 
Q 4457 193 4256 64 
Q 4055 -64 3764 -64 
Q 3468 -64 3266 64 
Q 3064 193 2959 405 
Q 2855 618 2855 873 
z
M 536 3536 
L 536 3782 
Q 536 4036 642 4248 
Q 748 4461 951 4589 
Q 1155 4718 1446 4718 
Q 1741 4718 1941 4589 
Q 2141 4461 2243 4248 
Q 2346 4036 2346 3782 
L 2346 3536 
Q 2346 3282 2242 3069 
Q 2139 2857 1937 2728 
Q 1736 2600 1446 2600 
Q 1150 2600 948 2728 
Q 746 2857 641 3069 
Q 536 3282 536 3536 
z
M 709 0 
L 3909 4655 
L 4427 4655 
L 1227 0 
L 709 0 
z
M 3318 1118 
L 3318 873 
Q 3318 661 3418 494 
Q 3518 327 3764 327 
Q 4002 327 4101 494 
Q 4200 661 4200 873 
L 4200 1118 
Q 4200 1330 4104 1497 
Q 4009 1664 3764 1664 
Q 3525 1664 3421 1497 
Q 3318 1330 3318 1118 
z
M 1000 3782 
L 1000 3536 
Q 1000 3325 1100 3158 
Q 1200 2991 1446 2991 
Q 1684 2991 1783 3158 
Q 1882 3325 1882 3536 
L 1882 3782 
Q 1882 3993 1786 4160 
Q 1691 4327 1446 4327 
Q 1207 4327 1103 4160 
Q 1000 3993 1000 3782 
z
" id="Inter-Regular-25" transform="scale(0.015625)"/>
       </defs>
       <use xlink:href="#Inter-Regular-30"/>
       <use x="62.500015" xlink:href="#Inter-Regular-25"/>
      </g>
     </g>
    </g>
    <g id="ytick_2">
     <g id="line2d_24">
      <path clip-path="url(#p9374a322b8)" d="M 57.621875 421.130233 
L 727.221875 421.130233 
" style="fill:none;stroke:#e5e5e5;stroke-linecap:square;stroke-width:0.8;"/>
     </g>
     <g id="line2d_25">
      <g>
       <use style="stroke:#000000;stroke-width:0.8;" x="57.621875" xlink:href="#m51bf4ce663" y="421.130233"/>
      </g>
     </g>
     <g id="text_13">
      <!-- 2% -->
      <g transform="translate(36.445313 424.766952)scale(0.1 -0.1)">
       <defs>
        <path d="M 482 0 
L 482 409 
L 2018 2091 
Q 2289 2386 2464 2605 
Q 2639 2825 2724 3019 
Q 2809 3214 2809 3427 
Q 2809 3795 2553 4011 
Q 2298 4227 1918 4227 
Q 1514 4227 1275 3985 
Q 1036 3743 1036 3345 
L 500 3345 
Q 500 3755 688 4064 
Q 877 4373 1203 4545 
Q 1530 4718 1936 4718 
Q 2346 4718 2661 4545 
Q 2977 4373 3156 4079 
Q 3336 3786 3336 3427 
Q 3336 3170 3244 2926 
Q 3152 2682 2926 2383 
Q 2700 2084 2300 1655 
L 1255 536 
L 1255 500 
L 3418 500 
L 3418 0 
L 482 0 
z
" id="Inter-Regular-32" transform="scale(0.015625)"/>
       </defs>
       <use xlink:href="#Inter-Regular-32"/>
       <use x="60.511383" xlink:href="#Inter-Regular-25"/>
      </g>
     </g>
    </g>
    <g id="ytick_3">
     <g id="line2d_26">
      <path clip-path="url(#p9374a322b8)" d="M 57.621875 365.515467 
L 727.221875 365.515467 
" style="fill:none;stroke:#e5e5e5;stroke-linecap:square;stroke-width:0.8;"/>
     </g>
     <g id="line2d_27">
      <g>
       <use style="stroke:#000000;stroke-width:0.8;" x="57.621875" xlink:href="#m51bf4ce663" y="365.515467"/>
      </g>
     </g>
     <g id="text_14">
      <!-- 4% -->
      <g transform="translate(36.076563 369.152186)scale(0.1 -0.1)">
       <defs>
        <path d="M 373 955 
L 373 1418 
L 2418 4655 
L 3100 4655 
L 3100 1455 
L 3736 1455 
L 3736 955 
L 3100 955 
L 3100 0 
L 2564 0 
L 2564 955 
L 373 955 
z
M 2564 1455 
L 2564 3936 
L 2527 3936 
L 982 1491 
L 982 1455 
L 2564 1455 
z
" id="Inter-Regular-34" transform="scale(0.015625)"/>
       </defs>
       <use xlink:href="#Inter-Regular-34"/>
       <use x="64.204559" xlink:href="#Inter-Regular-25"/>
      </g>
     </g>
    </g>
    <g id="ytick_4">
     <g id="line2d_28">
      <path clip-path="url(#p9374a322b8)" d="M 57.621875 309.9007 
L 727.221875 309.9007 
" style="fill:none;stroke:#e5e5e5;stroke-linecap:square;stroke-width:0.8;"/>
     </g>
     <g id="line2d_29">
      <g>
       <use style="stroke:#000000;stroke-width:0.8;" x="57.621875" xlink:href="#m51bf4ce663" y="309.9007"/>
      </g>
     </g>
     <g id="text_15">
      <!-- 6% -->
      <g transform="translate(36.260938 313.537419)scale(0.1 -0.1)">
       <defs>
        <path d="M 2027 -64 
Q 1741 -59 1454 45 
Q 1168 150 932 399 
Q 696 648 552 1074 
Q 409 1500 409 2145 
Q 409 3386 861 4056 
Q 1314 4727 2100 4727 
Q 2686 4727 3073 4384 
Q 3461 4041 3546 3491 
L 2991 3491 
Q 2914 3811 2691 4019 
Q 2468 4227 2100 4227 
Q 1559 4227 1249 3755 
Q 939 3284 936 2427 
L 973 2427 
Q 1164 2716 1461 2880 
Q 1759 3045 2118 3045 
Q 2518 3045 2850 2846 
Q 3182 2648 3382 2299 
Q 3582 1950 3582 1500 
Q 3582 1068 3389 710 
Q 3196 352 2847 142 
Q 2498 -68 2027 -64 
z
M 2027 436 
Q 2314 436 2542 579 
Q 2771 723 2903 964 
Q 3036 1205 3036 1500 
Q 3036 1789 2908 2026 
Q 2780 2264 2556 2404 
Q 2332 2545 2046 2545 
Q 1757 2545 1525 2397 
Q 1293 2250 1157 2010 
Q 1021 1770 1018 1491 
Q 1018 1214 1149 973 
Q 1280 732 1508 584 
Q 1736 436 2027 436 
z
" id="Inter-Regular-36" transform="scale(0.015625)"/>
       </defs>
       <use xlink:href="#Inter-Regular-36"/>
       <use x="62.357971" xlink:href="#Inter-Regular-25"/>
      </g>
     </g>
    </g>
    <g id="ytick_5">
     <g id="line2d_30">
      <path clip-path="url(#p9374a322b8)" d="M 57.621875 254.285934 
L 727.221875 254.285934 
" style="fill:none;stroke:#e5e5e5;stroke-linecap:square;stroke-width:0.8;"/>
     </g>
     <g id="line2d_31">
      <g>
       <use style="stroke:#000000;stroke-width:0.8;" x="57.621875" xlink:href="#m51bf4ce663" y="254.285934"/>
      </g>
     </g>
     <g id="text_16">
      <!-- 8% -->
      <g transform="translate(36.33125 257.922653)scale(0.1 -0.1)">
       <defs>
        <path d="M 1973 -64 
Q 1505 -64 1147 103 
Q 789 270 589 564 
Q 389 859 391 1236 
Q 389 1532 507 1783 
Q 625 2034 830 2203 
Q 1036 2373 1291 2418 
L 1291 2445 
Q 957 2532 759 2821 
Q 561 3111 564 3482 
Q 561 3836 743 4115 
Q 925 4395 1244 4556 
Q 1564 4718 1973 4718 
Q 2377 4718 2695 4556 
Q 3014 4395 3197 4115 
Q 3380 3836 3382 3482 
Q 3380 3111 3181 2821 
Q 2982 2532 2655 2445 
L 2655 2418 
Q 2907 2373 3109 2203 
Q 3311 2034 3431 1783 
Q 3552 1532 3555 1236 
Q 3552 859 3351 564 
Q 3150 270 2794 103 
Q 2439 -64 1973 -64 
z
M 1973 436 
Q 2446 436 2722 662 
Q 2998 889 3000 1264 
Q 2998 1527 2864 1729 
Q 2730 1932 2499 2048 
Q 2268 2164 1973 2164 
Q 1675 2164 1442 2048 
Q 1209 1932 1076 1729 
Q 943 1527 946 1264 
Q 943 889 1218 662 
Q 1493 436 1973 436 
z
M 1973 2645 
Q 2348 2645 2591 2864 
Q 2834 3084 2836 3445 
Q 2834 3800 2596 4013 
Q 2359 4227 1973 4227 
Q 1582 4227 1344 4013 
Q 1107 3800 1109 3445 
Q 1107 3084 1349 2864 
Q 1591 2645 1973 2645 
z
" id="Inter-Regular-38" transform="scale(0.015625)"/>
       </defs>
       <use xlink:href="#Inter-Regular-38"/>
       <use x="61.647736" xlink:href="#Inter-Regular-25"/>
      </g>
     </g>
    </g>
    <g id="ytick_6">
     <g id="line2d_32">
      <path clip-path="url(#p9374a322b8)" d="M 57.621875 198.671167 
L 727.221875 198.671167 
" style="fill:none;stroke:#e5e5e5;stroke-linecap:square;stroke-width:0.8;"/>
     </g>
     <g id="line2d_33">
      <g>
       <use style="stroke:#000000;stroke-width:0.8;" x="57.621875" xlink:href="#m51bf4ce663" y="198.671167"/>
      </g>
     </g>
     <g id="text_17">
      <!-- 10% -->
      <g transform="translate(31.829688 202.307886)scale(0.1 -0.1)">
       <use xlink:href="#Inter-Regular-31"/>
       <use x="44.176147" xlink:href="#Inter-Regular-30"/>
       <use x="106.676163" xlink:href="#Inter-Regular-25"/>
      </g>
     </g>
    </g>
    <g id="ytick_7">
     <g id="line2d_34">
      <path clip-path="url(#p9374a322b8)" d="M 57.621875 143.056401 
L 727.221875 143.056401 
" style="fill:none;stroke:#e5e5e5;stroke-linecap:square;stroke-width:0.8;"/>
     </g>
     <g id="line2d_35">
      <g>
       <use style="stroke:#000000;stroke-width:0.8;" x="57.621875" xlink:href="#m51bf4ce663" y="143.056401"/>
      </g>
     </g>
     <g id="text_18">
      <!-- 12% -->
      <g transform="translate(32.028125 146.69312)scale(0.1 -0.1)">
       <use xlink:href="#Inter-Regular-31"/>
       <use x="44.176147" xlink:href="#Inter-Regular-32"/>
       <use x="104.687531" xlink:href="#Inter-Regular-25"/>
      </g>
     </g>
    </g>
    <g id="ytick_8">
     <g id="line2d_36">
      <path clip-path="url(#p9374a322b8)" d="M 57.621875 87.441634 
L 727.221875 87.441634 
" style="fill:none;stroke:#e5e5e5;stroke-linecap:square;stroke-width:0.8;"/>
     </g>
     <g id="line2d_37">
      <g>
       <use style="stroke:#000000;stroke-width:0.8;" x="57.621875" xlink:href="#m51bf4ce663" y="87.441634"/>
      </g>
     </g>
     <g id="text_19">
      <!-- 14% -->
      <g transform="translate(31.659375 91.078353)scale(0.1 -0.1)">
       <use xlink:href="#Inter-Regular-31"/>
       <use x="44.176147" xlink:href="#Inter-Regular-34"/>
       <use x="108.380707" xlink:href="#Inter-Regular-25"/>
      </g>
     </g>
    </g>
    <g id="text_20">
     <!-- Percent of nation tested positive -->
     <g transform="translate(25.614063 332.215469)rotate(-90)scale(0.1 -0.1)">
      <defs>
       <path d="M 564 0 
L 564 4655 
L 2136 4655 
Q 2684 4655 3033 4458 
Q 3382 4261 3550 3927 
Q 3718 3593 3718 3182 
Q 3718 2770 3551 2434 
Q 3384 2098 3036 1899 
Q 2689 1700 2146 1700 
L 1127 1700 
L 1127 0 
L 564 0 
z
M 1127 2200 
L 2127 2200 
Q 2689 2200 2926 2482 
Q 3164 2764 3164 3182 
Q 3164 3602 2925 3878 
Q 2686 4155 2118 4155 
L 1127 4155 
L 1127 2200 
z
" id="Inter-Regular-50" transform="scale(0.015625)"/>
       <path d="M 1909 -73 
Q 1418 -73 1063 159 
Q 709 391 518 798 
Q 327 1205 327 1727 
Q 327 2259 524 2667 
Q 721 3075 1074 3305 
Q 1427 3536 1900 3536 
Q 2268 3536 2563 3400 
Q 2859 3264 3047 3018 
Q 3236 2773 3282 2445 
L 2746 2445 
Q 2684 2684 2474 2869 
Q 2264 3055 1909 3055 
Q 1439 3055 1151 2697 
Q 864 2339 864 1745 
Q 864 1139 1148 774 
Q 1432 409 1909 409 
Q 2223 409 2447 570 
Q 2671 732 2746 1018 
L 3282 1018 
Q 3236 709 3058 462 
Q 2880 216 2588 71 
Q 2296 -73 1909 -73 
z
" id="Inter-Regular-63" transform="scale(0.015625)"/>
       <path d="M 2009 3491 
L 2009 3036 
L 1264 3036 
L 1264 1000 
Q 1264 773 1331 660 
Q 1398 548 1503 510 
Q 1609 473 1727 473 
Q 1816 473 1873 483 
Q 1930 493 1964 500 
L 2073 18 
Q 2018 -2 1920 -23 
Q 1823 -45 1673 -45 
Q 1446 -45 1228 52 
Q 1011 150 869 350 
Q 727 550 727 855 
L 727 3036 
L 200 3036 
L 200 3491 
L 727 3491 
L 727 4327 
L 1264 4327 
L 1264 3491 
L 2009 3491 
z
" id="Inter-Regular-74" transform="scale(0.015625)"/>
       <path d="M 2046 3491 
L 2046 3036 
L 1264 3036 
L 1264 0 
L 727 0 
L 727 3036 
L 164 3036 
L 164 3491 
L 727 3491 
L 727 3973 
Q 727 4273 868 4473 
Q 1009 4673 1234 4773 
Q 1459 4873 1709 4873 
Q 1907 4873 2032 4841 
Q 2157 4809 2218 4782 
L 2064 4318 
Q 2023 4332 1951 4352 
Q 1880 4373 1764 4373 
Q 1498 4373 1381 4239 
Q 1264 4105 1264 3845 
L 1264 3491 
L 2046 3491 
z
" id="Inter-Regular-66" transform="scale(0.015625)"/>
       <path d="M 491 0 
L 491 3491 
L 1027 3491 
L 1027 0 
L 491 0 
z
M 764 4073 
Q 607 4073 494 4179 
Q 382 4286 382 4436 
Q 382 4586 494 4693 
Q 607 4800 764 4800 
Q 921 4800 1033 4693 
Q 1146 4586 1146 4436 
Q 1146 4286 1033 4179 
Q 921 4073 764 4073 
z
" id="Inter-Regular-69" transform="scale(0.015625)"/>
       <path d="M 2964 2709 
L 2482 2573 
Q 2411 2755 2245 2914 
Q 2080 3073 1727 3073 
Q 1407 3073 1194 2926 
Q 982 2780 982 2555 
Q 982 2355 1127 2239 
Q 1273 2123 1582 2045 
L 2100 1918 
Q 3027 1691 3027 973 
Q 3027 673 2855 436 
Q 2684 200 2377 63 
Q 2071 -73 1664 -73 
Q 1130 -73 780 159 
Q 430 391 336 836 
L 846 964 
Q 989 400 1655 400 
Q 2030 400 2251 560 
Q 2473 720 2473 945 
Q 2473 1316 1955 1436 
L 1373 1573 
Q 893 1686 669 1926 
Q 446 2166 446 2527 
Q 446 2823 613 3050 
Q 780 3277 1069 3406 
Q 1359 3536 1727 3536 
Q 2246 3536 2542 3309 
Q 2839 3082 2964 2709 
z
" id="Inter-Regular-73" transform="scale(0.015625)"/>
       <path d="M 1809 -73 
Q 1373 -73 1039 148 
Q 705 370 516 776 
Q 327 1182 327 1736 
Q 327 2286 516 2690 
Q 705 3095 1041 3315 
Q 1377 3536 1818 3536 
Q 2159 3536 2358 3423 
Q 2557 3311 2662 3169 
Q 2768 3027 2827 2936 
L 2873 2936 
L 2873 4655 
L 3409 4655 
L 3409 0 
L 2891 0 
L 2891 536 
L 2827 536 
Q 2768 441 2659 296 
Q 2550 152 2348 39 
Q 2146 -73 1809 -73 
z
M 1882 409 
Q 2366 409 2624 780 
Q 2882 1152 2882 1745 
Q 2882 2332 2627 2693 
Q 2373 3055 1882 3055 
Q 1541 3055 1315 2881 
Q 1089 2707 976 2410 
Q 864 2114 864 1745 
Q 864 1373 978 1069 
Q 1093 766 1319 587 
Q 1546 409 1882 409 
z
" id="Inter-Regular-64" transform="scale(0.015625)"/>
      </defs>
      <use xlink:href="#Inter-Regular-50"/>
      <use x="63.494324" xlink:href="#Inter-Regular-65"/>
      <use x="121.732971" xlink:href="#Inter-Regular-72"/>
      <use x="160.085251" xlink:href="#Inter-Regular-63"/>
      <use x="215.909119" xlink:href="#Inter-Regular-65"/>
      <use x="274.147766" xlink:href="#Inter-Regular-6e"/>
      <use x="332.670502" xlink:href="#Inter-Regular-74"/>
      <use x="369.034149" xlink:href="#Inter-Regular-20"/>
      <use x="397.159149" xlink:href="#Inter-Regular-6f"/>
      <use x="456.818253" xlink:href="#Inter-Regular-66"/>
      <use x="492.897797" xlink:href="#Inter-Regular-20"/>
      <use x="521.022797" xlink:href="#Inter-Regular-6e"/>
      <use x="579.545532" xlink:href="#Inter-Regular-61"/>
      <use x="635.937592" xlink:href="#Inter-Regular-74"/>
      <use x="672.301239" xlink:href="#Inter-Regular-69"/>
      <use x="696.022827" xlink:href="#Inter-Regular-6f"/>
      <use x="755.681931" xlink:href="#Inter-Regular-6e"/>
      <use x="814.204666" xlink:href="#Inter-Regular-20"/>
      <use x="842.329666" xlink:href="#Inter-Regular-74"/>
      <use x="878.693314" xlink:href="#Inter-Regular-65"/>
      <use x="936.931961" xlink:href="#Inter-Regular-73"/>
      <use x="989.204697" xlink:href="#Inter-Regular-74"/>
      <use x="1025.568344" xlink:href="#Inter-Regular-65"/>
      <use x="1083.806992" xlink:href="#Inter-Regular-64"/>
      <use x="1145.880875" xlink:href="#Inter-Regular-20"/>
      <use x="1174.005875" xlink:href="#Inter-Regular-70"/>
      <use x="1234.94339" xlink:href="#Inter-Regular-6f"/>
      <use x="1294.602493" xlink:href="#Inter-Regular-73"/>
      <use x="1346.875229" xlink:href="#Inter-Regular-69"/>
      <use x="1370.596817" xlink:href="#Inter-Regular-74"/>
      <use x="1406.960464" xlink:href="#Inter-Regular-69"/>
      <use x="1430.682053" xlink:href="#Inter-Regular-76"/>
      <use x="1486.363876" xlink:href="#Inter-Regular-65"/>
     </g>
    </g>
   </g>
   <g id="line2d_38">
    <path clip-path="url(#p9374a322b8)" d="M 25.259504 476.744901 
L 75.960552 476.637055 
L 83.511772 476.350963 
L 89.984246 475.706996 
L 114.795397 471.694839 
L 119.11038 471.188657 
L 133.134074 470.015586 
L 155.787733 469.174008 
L 200.016307 468.481923 
L 233.457423 467.437002 
L 257.189829 466.331761 
L 262.583557 465.849737 
L 266.89854 465.350718 
L 277.685997 463.800505 
L 279.843488 463.34254 
L 284.158471 462.315257 
L 285.237217 462.151437 
L 289.5522 461.07974 
L 290.630945 460.545892 
L 291.709691 459.493166 
L 293.867182 458.340449 
L 294.945928 457.770932 
L 296.024674 457.03226 
L 300.339657 454.787887 
L 302.497148 453.283965 
L 303.575894 452.486651 
L 305.733385 451.228113 
L 307.890876 449.693215 
L 308.969622 448.813152 
L 310.048368 447.679454 
L 315.442096 443.323503 
L 320.835825 438.368443 
L 321.91457 437.350645 
L 324.072062 435.710963 
L 328.387045 431.504653 
L 332.702027 427.753936 
L 333.780773 426.230203 
L 337.01701 422.7307 
L 339.174502 420.904177 
L 340.253247 420.054991 
L 342.410739 418.170962 
L 344.56823 416.477283 
L 345.646976 415.818792 
L 346.725721 415.331976 
L 348.883213 413.823706 
L 351.040704 412.495756 
L 354.276941 410.888137 
L 360.749415 407.0688 
L 361.828161 406.552095 
L 362.906907 405.911833 
L 369.379381 400.747305 
L 373.694364 396.149873 
L 381.245584 384.991737 
L 382.324329 383.726084 
L 383.403075 381.922335 
L 389.875549 367.740002 
L 394.190532 357.314955 
L 395.269278 354.263981 
L 397.426769 349.099008 
L 401.741752 340.690044 
L 402.820498 338.183293 
L 404.977989 334.575795 
L 411.450463 324.618742 
L 412.529209 323.256211 
L 415.765446 320.243474 
L 417.922937 317.630506 
L 420.080429 315.647326 
L 427.631649 309.930819 
L 434.104123 306.386953 
L 444.89158 301.773217 
L 448.127817 300.554942 
L 450.285308 299.981523 
L 453.521545 299.207083 
L 457.836528 298.203661 
L 461.072765 297.528818 
L 464.309002 296.747659 
L 468.623985 295.895163 
L 471.860222 295.215676 
L 482.647679 293.070405 
L 488.041408 292.339588 
L 509.616321 290.207211 
L 513.931304 289.842025 
L 519.325033 289.416123 
L 529.033744 288.576718 
L 533.348727 288.223883 
L 538.742455 287.709401 
L 548.451167 286.607371 
L 552.766149 285.955796 
L 560.317369 284.122109 
L 567.868589 281.661945 
L 574.341063 278.868508 
L 578.656046 276.237211 
L 581.892283 273.431276 
L 585.12852 270.138178 
L 587.286012 267.977296 
L 589.443503 265.36828 
L 591.600994 262.421299 
L 595.915977 256.411191 
L 596.994723 254.539068 
L 599.152214 249.999783 
L 600.23096 247.482459 
L 601.309706 245.270346 
L 602.388451 243.55819 
L 604.545943 239.46936 
L 606.703434 236.07385 
L 608.860925 233.386235 
L 612.097163 230.084245 
L 614.254654 227.428098 
L 616.412145 225.175623 
L 618.569637 223.289075 
L 623.963365 216.802526 
L 626.120857 214.70068 
L 631.514585 208.131183 
L 633.672076 205.86443 
L 639.065805 198.902576 
L 642.302042 195.198248 
L 644.459533 192.384161 
L 646.617025 190.031645 
L 649.853262 186.72096 
L 652.010753 183.736433 
L 654.168245 180.938451 
L 660.640719 172.956921 
L 663.876956 169.956733 
L 669.270684 164.353408 
L 676.821904 154.963698 
L 683.294378 146.435327 
L 685.45187 143.795879 
L 686.530616 142.370803 
L 690.845598 135.93998 
L 694.081835 131.16114 
L 697.318073 125.596548 
L 704.869292 111.667009 
L 705.948038 109.628695 
L 710.263021 102.894489 
L 712.420512 99.398938 
L 713.499258 97.610356 
L 719.971732 88.46766 
L 722.129224 85.996083 
L 724.286715 83.385091 
L 726.444206 80.074456 
L 726.444206 80.074456 
" style="fill:none;stroke:#5694ca;stroke-linecap:square;stroke-width:2;"/>
   </g>
   <g id="line2d_39">
    <path clip-path="url(#p9374a322b8)" d="M 25.259504 476.745 
L 77.039298 476.637804 
L 82.433026 476.498302 
L 87.826754 476.148813 
L 89.984246 475.890367 
L 109.401668 473.100329 
L 111.55916 472.744967 
L 112.637905 472.700913 
L 118.031634 471.893271 
L 129.897837 470.900605 
L 150.394005 469.941713 
L 156.866479 469.808085 
L 226.984949 469.33231 
L 230.221186 469.24714 
L 233.457423 469.176655 
L 239.929898 468.821292 
L 245.323626 468.50264 
L 246.402372 468.327896 
L 248.559863 468.244195 
L 261.504811 466.916724 
L 262.583557 466.709674 
L 265.819794 466.464444 
L 272.292268 465.589253 
L 274.44976 465.1311 
L 276.607251 464.54666 
L 279.843488 463.929915 
L 280.922234 463.65238 
L 284.158471 462.508464 
L 285.237217 462.185407 
L 286.315962 461.715506 
L 287.394708 461.092887 
L 288.473454 460.712561 
L 289.5522 459.341037 
L 290.630945 458.274949 
L 291.709691 457.596529 
L 293.867182 455.709582 
L 296.024674 453.138342 
L 297.103419 451.552426 
L 298.182165 450.227892 
L 299.260911 448.662534 
L 301.418402 446.107446 
L 302.497148 444.320354 
L 303.575894 443.199933 
L 304.654639 441.292428 
L 306.812131 438.292403 
L 308.969622 435.747595 
L 311.127113 432.691769 
L 312.205859 430.853281 
L 314.363351 428.182187 
L 316.520842 426.054416 
L 318.678333 423.613867 
L 320.835825 421.829711 
L 321.91457 420.823829 
L 324.072062 419.262876 
L 325.150808 418.265804 
L 331.623282 413.79587 
L 332.702027 412.634333 
L 337.01701 409.494806 
L 338.095756 409.008752 
L 341.331993 406.726795 
L 344.56823 405.1585 
L 345.646976 404.747336 
L 346.725721 404.631329 
L 348.883213 403.199599 
L 351.040704 402.16288 
L 355.355687 400.036577 
L 359.67067 397.430094 
L 363.985653 394.974861 
L 366.143144 393.485862 
L 370.458127 390.698761 
L 371.536872 389.735463 
L 372.615618 388.986559 
L 373.694364 388.046756 
L 376.930601 385.845563 
L 379.088092 383.454941 
L 380.166838 383.454941 
L 381.245584 381.989437 
L 382.324329 381.989437 
L 384.481821 377.290426 
L 386.639312 371.310934 
L 387.718058 371.310934 
L 388.796804 366.059789 
L 394.190532 353.965708 
L 396.348023 349.645555 
L 397.426769 348.012648 
L 398.505515 346.898102 
L 400.663006 343.447265 
L 402.820498 340.473672 
L 403.899243 339.438421 
L 404.977989 338.231363 
L 407.13548 336.244562 
L 408.214226 334.915623 
L 409.292972 333.840724 
L 410.371717 332.570523 
L 411.450463 331.586667 
L 413.607955 330.33115 
L 416.844192 327.880322 
L 417.922937 326.897935 
L 420.080429 325.604238 
L 421.159174 325.143148 
L 426.552903 321.825939 
L 428.710394 320.900822 
L 431.946631 319.632089 
L 433.025377 319.034433 
L 434.104123 318.589495 
L 436.261614 317.987435 
L 440.576597 316.08874 
L 442.734088 315.297251 
L 444.89158 314.692253 
L 449.206563 313.273739 
L 452.4428 312.652588 
L 454.600291 312.081365 
L 462.151511 310.275182 
L 464.309002 309.755354 
L 477.253951 307.167961 
L 479.411442 306.699528 
L 486.962662 305.593792 
L 488.041408 305.593792 
L 496.671373 304.452814 
L 509.616321 302.580551 
L 513.931304 302.062192 
L 522.56127 301.019598 
L 526.876253 300.549697 
L 543.057438 298.699462 
L 558.159878 297.253047 
L 566.789843 295.994593 
L 571.104826 295.054791 
L 573.262318 294.58489 
L 576.498555 293.681799 
L 578.656046 292.86094 
L 580.813537 292.142872 
L 582.971029 291.113495 
L 584.049774 290.615694 
L 588.364757 287.928447 
L 594.837231 282.965116 
L 595.915977 282.214743 
L 596.994723 281.280814 
L 598.073469 279.690492 
L 600.23096 275.60529 
L 601.309706 274.816737 
L 602.388451 272.208785 
L 603.467197 270.5377 
L 604.545943 267.640465 
L 607.78218 261.345259 
L 608.860925 259.489149 
L 609.939671 258.550815 
L 613.175908 251.878219 
L 616.412145 246.958942 
L 617.490891 245.678461 
L 619.648382 242.562429 
L 620.727128 240.152718 
L 622.88462 236.066046 
L 626.120857 230.977898 
L 631.514585 220.409528 
L 632.593331 218.491744 
L 633.672076 216.195102 
L 634.750822 214.220049 
L 635.829568 211.337499 
L 636.908314 207.817646 
L 639.065805 203.269884 
L 640.144551 201.331542 
L 643.380788 194.034859 
L 644.459533 191.281532 
L 645.538279 189.181661 
L 648.774516 183.60599 
L 649.853262 181.444445 
L 650.932008 180.279971 
L 652.010753 178.447357 
L 653.089499 175.786542 
L 654.168245 173.977423 
L 656.325736 168.820258 
L 657.404482 167.043444 
L 659.561973 161.877468 
L 660.640719 159.786408 
L 661.719465 158.272446 
L 662.79821 156.511785 
L 663.876956 154.176964 
L 664.955702 152.262117 
L 666.034447 150.689416 
L 667.113193 148.870018 
L 668.191939 147.295849 
L 669.270684 145.990405 
L 671.428176 142.81123 
L 674.664413 138.031454 
L 676.821904 134.888991 
L 677.90065 133.562988 
L 678.979396 131.980009 
L 680.058141 130.041667 
L 682.215633 126.80816 
L 685.45187 122.4557 
L 687.609361 118.714113 
L 690.845598 113.053272 
L 693.00309 109.78746 
L 694.081835 107.910792 
L 696.239327 103.835868 
L 698.396818 100.06638 
L 700.55431 97.045797 
L 702.711801 92.948846 
L 703.790547 91.405515 
L 705.948038 87.47303 
L 709.184275 82.768145 
L 710.263021 80.872387 
L 711.341767 79.224796 
L 713.499258 75.512577 
L 717.814241 69.553644 
L 718.892986 67.378883 
L 722.129224 62.396462 
L 723.207969 60.886905 
L 724.286715 59.083659 
L 725.365461 56.491861 
L 726.444206 54.345 
L 726.444206 54.345 
" style="fill:none;stroke:#ffdd00;stroke-linecap:square;stroke-width:2;"/>
   </g>
   <g id="line2d_40">
    <path clip-path="url(#p9374a322b8)" d="M 25.259504 476.745 
L 74.881806 476.645748 
L 82.433026 476.447753 
L 88.9055 475.949456 
L 91.062992 475.569244 
L 94.299229 475.042445 
L 97.535466 474.592502 
L 104.00794 473.656987 
L 108.322923 472.973929 
L 111.55916 472.444076 
L 113.716651 472.144793 
L 118.031634 471.490238 
L 121.267871 471.128858 
L 125.582854 470.587807 
L 142.842785 469.285823 
L 151.472751 468.988067 
L 165.496445 468.777856 
L 226.984949 468.328931 
L 239.929898 468.035247 
L 251.7961 467.654017 
L 256.111083 467.3868 
L 271.213523 466.173379 
L 278.764743 465.158972 
L 282.00098 464.390914 
L 283.079725 464.027498 
L 285.237217 463.739413 
L 287.394708 463.00342 
L 290.630945 461.88009 
L 293.867182 460.732329 
L 301.418402 456.889491 
L 303.575894 455.474512 
L 305.733385 454.271781 
L 306.812131 454.110941 
L 307.890876 453.605519 
L 308.969622 452.864437 
L 311.127113 451.107929 
L 314.363351 449.002258 
L 316.520842 447.755753 
L 321.91457 444.773101 
L 324.072062 443.78058 
L 326.229553 442.432278 
L 327.308299 441.886646 
L 328.387045 441.074306 
L 330.544536 440.042593 
L 331.623282 439.619117 
L 337.01701 436.510745 
L 338.095756 436.145803 
L 341.331993 434.312948 
L 343.489484 433.343331 
L 347.804467 431.590386 
L 348.883213 430.96688 
L 351.040704 430.072593 
L 352.11945 429.69289 
L 353.198196 429.505074 
L 355.355687 428.637255 
L 358.591924 427.262486 
L 361.828161 426.238408 
L 365.064398 424.797471 
L 366.143144 424.255911 
L 372.615618 421.878951 
L 373.694364 421.587811 
L 374.77311 421.112419 
L 376.930601 419.677081 
L 381.245584 417.224791 
L 383.403075 416.355953 
L 385.560566 414.350552 
L 387.718058 411.72368 
L 388.796804 410.635979 
L 389.875549 409.381839 
L 390.954295 408.412223 
L 392.033041 407.124999 
L 393.111786 406.087179 
L 395.269278 403.563631 
L 403.899243 395.945141 
L 408.214226 393.099406 
L 410.371717 391.513408 
L 412.529209 390.239927 
L 413.607955 389.857171 
L 414.6867 389.323245 
L 416.844192 388.035004 
L 419.001683 386.941195 
L 421.159174 385.999064 
L 423.316666 385.115465 
L 424.395412 384.530642 
L 426.552903 383.619558 
L 427.631649 383.322311 
L 430.867886 382.022872 
L 443.812834 377.014967 
L 445.970325 376.275412 
L 448.127817 375.588282 
L 457.836528 373.29225 
L 461.072765 372.448353 
L 472.938968 369.204591 
L 475.096459 368.769918 
L 478.332696 367.784523 
L 480.490188 367.283172 
L 482.647679 366.894817 
L 484.80517 366.415353 
L 488.041408 365.827984 
L 493.435136 365.0925 
L 499.90761 364.346328 
L 518.246287 362.658534 
L 523.640016 362.213172 
L 531.191235 361.368256 
L 533.348727 361.009422 
L 535.506218 360.791067 
L 545.214929 358.94396 
L 548.451167 358.053236 
L 551.687404 357.215956 
L 561.396115 353.323238 
L 563.553606 352.271675 
L 565.711098 351.388585 
L 571.104826 348.431382 
L 572.183572 347.795151 
L 573.262318 346.69218 
L 575.419809 343.654557 
L 576.498555 342.76536 
L 579.734792 338.30665 
L 580.813537 336.719635 
L 584.049774 330.640317 
L 586.207266 327.670897 
L 588.364757 325.260853 
L 589.443503 323.327219 
L 590.522249 321.901042 
L 591.600994 320.264146 
L 595.915977 315.73367 
L 596.994723 314.391985 
L 601.309706 310.225942 
L 603.467197 308.664376 
L 606.703434 306.111306 
L 608.860925 304.816448 
L 612.097163 303.175989 
L 614.254654 301.723346 
L 619.648382 299.10818 
L 622.88462 297.063587 
L 623.963365 296.432446 
L 626.120857 295.474027 
L 632.593331 290.886544 
L 633.672076 289.962736 
L 634.750822 288.670932 
L 640.144551 280.108275 
L 641.223296 277.907933 
L 643.380788 272.845567 
L 644.459533 269.366654 
L 645.538279 266.385019 
L 646.617025 262.764608 
L 647.695771 260.783129 
L 650.932008 251.316515 
L 653.089499 244.769439 
L 654.168245 241.528222 
L 655.24699 237.932243 
L 657.404482 232.077896 
L 659.561973 225.12974 
L 660.640719 222.942122 
L 661.719465 219.933002 
L 662.79821 217.774396 
L 663.876956 216.056572 
L 664.955702 213.553892 
L 666.034447 213.553892 
L 668.191939 207.62676 
L 669.270684 205.67582 
L 671.428176 202.730324 
L 673.585667 198.850839 
L 675.743159 195.32459 
L 676.821904 194.023624 
L 678.979396 191.76424 
L 681.136887 188.757156 
L 683.294378 186.106361 
L 686.530616 183.125744 
L 688.688107 180.201116 
L 690.845598 177.633795 
L 693.00309 175.261924 
L 694.081835 174.290781 
L 707.026784 158.594698 
L 709.184275 156.303756 
L 710.263021 154.9977 
L 711.341767 153.901856 
L 712.420512 152.511308 
L 713.499258 150.543063 
L 714.578004 149.263983 
L 716.735495 147.189869 
L 717.814241 145.410966 
L 718.892986 143.974101 
L 719.971732 142.758136 
L 722.129224 139.624314 
L 724.286715 137.463673 
L 725.365461 135.503062 
L 726.444206 133.803052 
L 726.444206 133.803052 
" style="fill:none;stroke:#003078;stroke-linecap:square;stroke-width:2;"/>
   </g>
   <g id="line2d_41">
    <path clip-path="url(#p9374a322b8)" d="M 25.259504 476.745 
L 73.80306 476.635636 
L 79.196789 476.498049 
L 84.590517 476.091462 
L 92.141737 474.874346 
L 98.614211 473.152744 
L 99.692957 473.138633 
L 100.771703 472.695885 
L 105.086686 471.586369 
L 119.11038 468.555045 
L 121.267871 468.247239 
L 127.740345 467.329992 
L 132.055328 466.931342 
L 134.212819 466.625299 
L 138.527802 466.191371 
L 142.842785 465.651607 
L 146.079022 465.286472 
L 149.315259 464.906344 
L 152.551496 464.632934 
L 157.945225 464.283674 
L 162.260207 464.076412 
L 174.12641 463.577218 
L 182.756376 463.137998 
L 190.307596 462.828427 
L 201.095053 462.698778 
L 212.961255 462.498571 
L 220.512475 462.31865 
L 241.008643 461.992322 
L 253.953592 461.662466 
L 260.426066 461.389055 
L 263.662303 461.053026 
L 270.134777 460.251317 
L 272.292268 459.978789 
L 276.607251 459.304965 
L 278.764743 458.850752 
L 283.079725 457.592183 
L 289.5522 455.597172 
L 290.630945 455.089158 
L 291.709691 454.708148 
L 292.788437 454.182495 
L 293.867182 453.807659 
L 297.103419 451.906136 
L 298.182165 451.353142 
L 300.339657 450.511744 
L 301.418402 449.837921 
L 302.497148 449.003579 
L 303.575894 448.362388 
L 304.654639 447.498942 
L 305.733385 446.904495 
L 306.812131 446.066626 
L 307.890876 445.514514 
L 308.969622 444.502015 
L 310.048368 443.653561 
L 311.127113 442.65341 
L 312.205859 441.982232 
L 313.284605 440.814506 
L 316.520842 437.75496 
L 318.678333 435.295151 
L 319.757079 433.763172 
L 320.835825 432.615732 
L 321.91457 431.8934 
L 322.993316 430.441681 
L 325.150808 428.394633 
L 327.308299 426.080349 
L 328.387045 425.235424 
L 329.46579 424.57924 
L 330.544536 423.758128 
L 331.623282 423.366534 
L 333.780773 421.783401 
L 335.938264 420.257597 
L 337.01701 419.081933 
L 338.095756 418.295218 
L 340.253247 417.110735 
L 343.489484 414.390746 
L 347.804467 411.566684 
L 351.040704 408.214324 
L 352.11945 407.328828 
L 354.276941 406.033217 
L 358.591924 400.680553 
L 360.749415 397.208246 
L 361.828161 396.52031 
L 362.906907 394.546466 
L 363.985653 392.810753 
L 366.143144 388.640809 
L 367.22189 388.640809 
L 368.300635 387.557752 
L 370.458127 386.547899 
L 371.536872 376.43349 
L 374.77311 369.201352 
L 376.930601 364.505755 
L 378.009347 361.848385 
L 379.088092 359.942452 
L 380.166838 359.942452 
L 381.245584 357.96949 
L 382.324329 354.316379 
L 386.639312 346.471273 
L 387.718058 346.471273 
L 388.796804 344.033514 
L 389.875549 340.49594 
L 392.033041 336.997173 
L 393.111786 335.023329 
L 394.190532 333.508108 
L 396.348023 329.221744 
L 399.584261 325.001527 
L 401.741752 322.199515 
L 402.820498 320.604917 
L 404.977989 318.575508 
L 406.056735 317.400727 
L 407.13548 316.42527 
L 409.292972 314.276796 
L 410.371717 313.57034 
L 411.450463 312.618696 
L 414.6867 310.644852 
L 415.765446 310.171235 
L 416.844192 309.549448 
L 417.922937 309.067893 
L 420.080429 307.884292 
L 422.23792 306.787124 
L 425.474157 305.554133 
L 426.552903 304.958805 
L 427.631649 304.552217 
L 428.710394 304.014217 
L 431.946631 303.058164 
L 433.025377 302.521927 
L 436.261614 301.50149 
L 439.497851 300.673322 
L 440.576597 300.203233 
L 444.89158 299.025806 
L 447.049071 298.542488 
L 449.206563 298.096212 
L 451.364054 297.708146 
L 453.521545 297.374762 
L 456.757782 296.76444 
L 461.072765 296.140889 
L 481.568933 292.966686 
L 486.962662 292.581266 
L 488.041408 292.581266 
L 490.198899 292.303446 
L 506.380084 291.326225 
L 516.088796 290.926694 
L 519.325033 290.857019 
L 524.718761 290.680625 
L 538.742455 290.136451 
L 540.899947 290.09588 
L 543.057438 289.990044 
L 552.766149 289.660188 
L 560.317369 289.134535 
L 571.104826 288.077937 
L 572.183572 287.651065 
L 574.341063 287.308861 
L 576.498555 286.626218 
L 577.5773 286.626218 
L 578.656046 286.259319 
L 579.734792 285.668401 
L 580.813537 285.420568 
L 584.049774 284.04117 
L 585.12852 284.04117 
L 586.207266 283.569317 
L 587.286012 282.461565 
L 591.600994 280.065258 
L 592.67974 280.065258 
L 593.758486 279.449645 
L 594.837231 278.400103 
L 595.915977 277.750092 
L 596.994723 276.749059 
L 598.073469 275.989684 
L 599.152214 275.034513 
L 600.23096 275.034513 
L 601.309706 274.053765 
L 602.388451 272.243084 
L 603.467197 271.753592 
L 604.545943 270.92366 
L 606.703434 269.629813 
L 607.78218 269.629813 
L 609.939671 267.541313 
L 614.254654 265.036524 
L 615.3334 265.036524 
L 616.412145 264.402389 
L 617.490891 263.426932 
L 620.727128 261.777652 
L 621.805874 261.069432 
L 622.88462 261.069432 
L 623.963365 260.307412 
L 625.042111 259.104407 
L 626.120857 258.625499 
L 627.199602 258.625499 
L 628.278348 256.997386 
L 629.357094 256.036041 
L 630.435839 256.036041 
L 631.514585 255.066758 
L 632.593331 252.955327 
L 633.672076 252.284149 
L 635.829568 249.767894 
L 636.908314 248.243854 
L 637.987059 248.243854 
L 639.065805 246.809774 
L 640.144551 243.946024 
L 641.223296 242.717442 
L 642.302042 241.213687 
L 643.380788 239.106665 
L 644.459533 237.527061 
L 645.538279 237.527061 
L 646.617025 235.448262 
L 647.695771 235.448262 
L 648.774516 232.033282 
L 649.853262 229.098093 
L 652.010753 224.98283 
L 653.089499 224.98283 
L 654.168245 222.875809 
L 655.24699 218.323972 
L 659.561973 209.559856 
L 660.640719 209.559856 
L 661.719465 207.516336 
L 662.79821 203.716818 
L 663.876956 202.019912 
L 664.955702 199.993149 
L 667.113193 195.134388 
L 668.191939 195.134388 
L 669.270684 192.738081 
L 670.34943 188.100693 
L 674.664413 179.048174 
L 675.743159 179.048174 
L 676.821904 176.135033 
L 677.90065 171.143977 
L 678.979396 169.141909 
L 680.058141 166.170559 
L 681.136887 163.895082 
L 682.215633 161.24124 
L 683.294378 161.24124 
L 684.373124 159.185373 
L 685.45187 155.669848 
L 686.530616 154.119349 
L 687.609361 152.349239 
L 688.688107 149.350548 
L 689.766853 144.31892 
L 691.924344 144.31892 
L 693.00309 140.377406 
L 695.160581 136.573478 
L 696.239327 134.249492 
L 697.318073 131.488932 
L 698.396818 131.488932 
L 699.475564 128.873897 
L 700.55431 123.231066 
L 702.711801 117.365979 
L 703.790547 113.626435 
L 704.869292 110.719468 
L 705.948038 110.719468 
L 707.026784 107.939505 
L 708.105529 107.939505 
L 709.184275 103.275659 
L 712.420512 96.390134 
L 713.499258 96.390134 
L 714.578004 93.730119 
L 715.656749 89.335273 
L 716.735495 87.386123 
L 717.814241 85.188259 
L 718.892986 82.719631 
L 719.971732 80.968042 
L 721.050478 80.968042 
L 722.129224 78.689919 
L 723.207969 74.894811 
L 724.286715 73.32138 
L 726.444206 69.524508 
L 726.444206 69.524508 
" style="fill:none;stroke:#d4351c;stroke-linecap:square;stroke-width:2;"/>
   </g>
   <g id="patch_3">
    <path d="M 57.621875 476.745 
L 727.221875 476.745 
" style="fill:none;stroke:#000000;stroke-linecap:square;stroke-linejoin:miter;stroke-width:0.8;"/>
   </g>
   <g id="text_21">
    <!-- Cumulative COVID-19 cases by date reported, per capita -->
    <g transform="translate(225.877813 27.225)scale(0.12 -0.12)">
     <defs>
      <path d="M 4511 3025 
L 3516 3025 
Q 3459 3409 3188 3628 
Q 2918 3848 2514 3848 
Q 1973 3848 1647 3451 
Q 1321 3055 1321 2327 
Q 1321 1582 1649 1194 
Q 1977 807 2507 807 
Q 2900 807 3173 1012 
Q 3446 1218 3516 1591 
L 4511 1586 
Q 4459 1159 4207 782 
Q 3955 405 3522 170 
Q 3089 -64 2491 -64 
Q 1868 -64 1378 218 
Q 889 500 606 1034 
Q 323 1568 323 2327 
Q 323 3089 609 3623 
Q 896 4157 1386 4437 
Q 1877 4718 2491 4718 
Q 3030 4718 3463 4519 
Q 3896 4320 4172 3942 
Q 4448 3564 4511 3025 
z
" id="Inter-Bold-43" transform="scale(0.015625)"/>
      <path d="M 2625 1486 
L 2625 3491 
L 3593 3491 
L 3593 0 
L 2664 0 
L 2664 634 
L 2627 634 
Q 2509 327 2235 141 
Q 1961 -45 1568 -45 
Q 1041 -45 715 306 
Q 389 657 386 1268 
L 386 3491 
L 1355 3491 
L 1355 1441 
Q 1357 1132 1520 952 
Q 1684 773 1959 773 
Q 2221 773 2424 954 
Q 2627 1136 2625 1486 
z
" id="Inter-Bold-75" transform="scale(0.015625)"/>
      <path d="M 386 0 
L 386 3491 
L 1309 3491 
L 1309 2875 
L 1350 2875 
Q 1459 3184 1715 3360 
Q 1971 3536 2323 3536 
Q 2682 3536 2934 3358 
Q 3186 3180 3271 2875 
L 3307 2875 
Q 3414 3175 3694 3355 
Q 3975 3536 4359 3536 
Q 4848 3536 5153 3226 
Q 5459 2916 5459 2348 
L 5459 0 
L 4493 0 
L 4493 2157 
Q 4493 2448 4338 2593 
Q 4184 2739 3952 2739 
Q 3689 2739 3541 2570 
Q 3393 2402 3393 2132 
L 3393 0 
L 2455 0 
L 2455 2177 
Q 2455 2434 2308 2586 
Q 2161 2739 1923 2739 
Q 1682 2739 1518 2562 
Q 1355 2386 1355 2095 
L 1355 0 
L 386 0 
z
" id="Inter-Bold-6d" transform="scale(0.015625)"/>
      <path d="M 1355 4655 
L 1355 0 
L 386 0 
L 386 4655 
L 1355 4655 
z
" id="Inter-Bold-6c" transform="scale(0.015625)"/>
      <path d="M 1382 -66 
Q 882 -66 552 195 
Q 223 457 223 975 
Q 223 1366 407 1588 
Q 591 1811 890 1914 
Q 1189 2018 1534 2050 
Q 1989 2095 2184 2145 
Q 2380 2195 2380 2364 
L 2380 2377 
Q 2380 2593 2244 2711 
Q 2109 2830 1861 2830 
Q 1600 2830 1445 2716 
Q 1291 2602 1241 2427 
L 346 2500 
Q 446 2977 842 3256 
Q 1239 3536 1866 3536 
Q 2255 3536 2593 3413 
Q 2932 3291 3140 3030 
Q 3348 2770 3348 2355 
L 3348 0 
L 2430 0 
L 2430 484 
L 2402 484 
Q 2275 241 2021 87 
Q 1768 -66 1382 -66 
z
M 1659 602 
Q 1977 602 2181 787 
Q 2386 973 2386 1248 
L 2386 1618 
Q 2330 1580 2210 1550 
Q 2091 1520 1956 1498 
Q 1821 1477 1714 1461 
Q 1459 1425 1303 1318 
Q 1148 1211 1148 1007 
Q 1148 807 1292 704 
Q 1436 602 1659 602 
z
" id="Inter-Bold-61" transform="scale(0.015625)"/>
      <path d="M 2243 3491 
L 2243 2764 
L 1586 2764 
L 1586 1073 
Q 1586 873 1677 802 
Q 1768 732 1914 732 
Q 1982 732 2050 744 
Q 2118 757 2155 764 
L 2307 43 
Q 2234 20 2102 -10 
Q 1971 -41 1782 -48 
Q 1255 -70 935 181 
Q 616 432 618 945 
L 618 2764 
L 141 2764 
L 141 3491 
L 618 3491 
L 618 4327 
L 1586 4327 
L 1586 3491 
L 2243 3491 
z
" id="Inter-Bold-74" transform="scale(0.015625)"/>
      <path d="M 386 0 
L 386 3491 
L 1355 3491 
L 1355 0 
L 386 0 
z
M 876 3941 
Q 662 3941 507 4085 
Q 353 4230 353 4432 
Q 353 4634 507 4777 
Q 662 4920 876 4920 
Q 1092 4920 1246 4777 
Q 1401 4634 1401 4432 
Q 1401 4230 1246 4085 
Q 1092 3941 876 3941 
z
" id="Inter-Bold-69" transform="scale(0.015625)"/>
      <path d="M 3641 3491 
L 2421 0 
L 1330 0 
L 109 3491 
L 1132 3491 
L 1857 993 
L 1893 993 
L 2616 3491 
L 3641 3491 
z
" id="Inter-Bold-76" transform="scale(0.015625)"/>
      <path d="M 1977 -68 
Q 1441 -68 1052 151 
Q 664 370 455 773 
Q 246 1177 246 1730 
Q 246 2268 455 2675 
Q 664 3082 1044 3309 
Q 1425 3536 1939 3536 
Q 2400 3536 2771 3340 
Q 3143 3145 3361 2751 
Q 3580 2357 3580 1764 
L 3580 1498 
L 1202 1498 
L 1202 1495 
Q 1202 1105 1416 880 
Q 1630 655 1993 655 
Q 2236 655 2413 757 
Q 2591 859 2664 1059 
L 3559 1000 
Q 3457 514 3041 223 
Q 2625 -68 1977 -68 
z
M 1202 2098 
L 2668 2098 
Q 2666 2409 2468 2611 
Q 2271 2814 1955 2814 
Q 1632 2814 1425 2604 
Q 1218 2395 1202 2098 
z
" id="Inter-Bold-65" transform="scale(0.015625)"/>
      <path id="Inter-Bold-20" transform="scale(0.015625)"/>
      <path d="M 4682 2327 
Q 4682 1566 4394 1032 
Q 4107 498 3614 217 
Q 3121 -64 2502 -64 
Q 1882 -64 1389 218 
Q 896 500 609 1035 
Q 323 1570 323 2327 
Q 323 3089 609 3623 
Q 896 4157 1389 4437 
Q 1882 4718 2502 4718 
Q 3121 4718 3614 4437 
Q 4107 4157 4394 3623 
Q 4682 3089 4682 2327 
z
M 3684 2327 
Q 3684 3068 3361 3458 
Q 3039 3848 2502 3848 
Q 1966 3848 1643 3458 
Q 1321 3068 1321 2327 
Q 1321 1589 1643 1198 
Q 1966 807 2502 807 
Q 3039 807 3361 1198 
Q 3684 1589 3684 2327 
z
" id="Inter-Bold-4f" transform="scale(0.015625)"/>
      <path d="M 1246 4655 
L 2371 1118 
L 2414 1118 
L 3541 4655 
L 4632 4655 
L 3027 0 
L 1759 0 
L 152 4655 
L 1246 4655 
z
" id="Inter-Bold-56" transform="scale(0.015625)"/>
      <path d="M 1389 4655 
L 1389 0 
L 405 0 
L 405 4655 
L 1389 4655 
z
" id="Inter-Bold-49" transform="scale(0.015625)"/>
      <path d="M 2055 0 
L 405 0 
L 405 4655 
L 2068 4655 
Q 2771 4655 3278 4376 
Q 3786 4098 4059 3577 
Q 4332 3057 4332 2332 
Q 4332 1605 4058 1082 
Q 3784 559 3274 279 
Q 2764 0 2055 0 
z
M 1389 843 
L 2014 843 
Q 2671 843 3010 1197 
Q 3350 1552 3350 2332 
Q 3350 3107 3010 3459 
Q 2671 3811 2016 3811 
L 1389 3811 
L 1389 843 
z
" id="Inter-Bold-44" transform="scale(0.015625)"/>
      <path d="M 2561 2295 
L 2561 1527 
L 439 1527 
L 439 2295 
L 2561 2295 
z
" id="Inter-Bold-2d" transform="scale(0.015625)"/>
      <path d="M 2305 4655 
L 2305 0 
L 1323 0 
L 1323 3450 
L 1280 3450 
Q 1205 3334 961 3219 
Q 718 3105 332 3105 
L 332 3886 
Q 632 3886 857 4019 
Q 1082 4152 1209 4333 
Q 1336 4514 1341 4655 
L 2305 4655 
z
" id="Inter-Bold-31" transform="scale(0.015625)"/>
      <path d="M 2061 4732 
Q 2421 4732 2753 4612 
Q 3086 4493 3348 4227 
Q 3611 3961 3766 3523 
Q 3921 3086 3921 2448 
Q 3921 1659 3686 1096 
Q 3452 534 3028 235 
Q 2605 -64 2027 -64 
Q 1561 -64 1204 117 
Q 848 298 631 610 
Q 414 923 368 1314 
L 1339 1314 
Q 1396 1059 1577 919 
Q 1759 780 2027 780 
Q 2482 780 2718 1176 
Q 2955 1573 2957 2264 
L 2925 2264 
Q 2771 1957 2453 1782 
Q 2136 1607 1752 1607 
Q 1341 1607 1016 1801 
Q 691 1995 506 2334 
Q 321 2673 323 3109 
Q 321 3582 539 3949 
Q 757 4316 1149 4525 
Q 1541 4734 2061 4732 
z
M 2068 3959 
Q 1725 3959 1500 3722 
Q 1275 3486 1277 3136 
Q 1275 2791 1496 2555 
Q 1718 2320 2059 2320 
Q 2284 2320 2465 2431 
Q 2646 2543 2751 2729 
Q 2857 2916 2859 3141 
Q 2857 3366 2753 3551 
Q 2650 3736 2473 3847 
Q 2296 3959 2068 3959 
z
" id="Inter-Bold-39" transform="scale(0.015625)"/>
      <path d="M 1964 -68 
Q 1427 -68 1042 160 
Q 657 389 451 795 
Q 246 1202 246 1732 
Q 246 2268 453 2674 
Q 661 3080 1045 3308 
Q 1430 3536 1959 3536 
Q 2416 3536 2760 3370 
Q 3105 3205 3303 2905 
Q 3502 2605 3523 2200 
L 2609 2200 
Q 2571 2461 2406 2621 
Q 2241 2782 1975 2782 
Q 1639 2782 1434 2511 
Q 1230 2241 1230 1745 
Q 1230 1245 1433 971 
Q 1636 698 1975 698 
Q 2225 698 2395 849 
Q 2566 1000 2609 1280 
L 3523 1280 
Q 3500 880 3305 575 
Q 3111 270 2770 101 
Q 2430 -68 1964 -68 
z
" id="Inter-Bold-63" transform="scale(0.015625)"/>
      <path d="M 3291 2495 
L 2405 2441 
Q 2368 2609 2220 2729 
Q 2073 2850 1821 2850 
Q 1596 2850 1440 2755 
Q 1284 2661 1286 2505 
Q 1284 2380 1385 2293 
Q 1486 2207 1730 2155 
L 2361 2027 
Q 3368 1820 3371 1082 
Q 3371 739 3169 479 
Q 2968 220 2618 76 
Q 2268 -68 1816 -68 
Q 1123 -68 711 221 
Q 300 511 232 1011 
L 1184 1061 
Q 1230 848 1394 739 
Q 1559 630 1818 630 
Q 2073 630 2228 730 
Q 2384 830 2386 984 
Q 2380 1243 1939 1332 
L 1334 1452 
Q 321 1655 325 2450 
Q 323 2955 728 3245 
Q 1134 3536 1805 3536 
Q 2466 3536 2846 3256 
Q 3227 2977 3291 2495 
z
" id="Inter-Bold-73" transform="scale(0.015625)"/>
      <path d="M 405 0 
L 405 4655 
L 1373 4655 
L 1373 2905 
L 1402 2905 
Q 1468 3048 1588 3193 
Q 1709 3339 1907 3437 
Q 2105 3536 2396 3536 
Q 2780 3536 3100 3337 
Q 3421 3139 3615 2740 
Q 3809 2341 3809 1741 
Q 3809 1157 3620 756 
Q 3432 355 3111 149 
Q 2791 -57 2393 -57 
Q 2111 -57 1914 36 
Q 1718 130 1594 272 
Q 1471 414 1402 559 
L 1359 559 
L 1359 0 
L 405 0 
z
M 1352 1745 
Q 1352 1280 1544 997 
Q 1736 714 2086 714 
Q 2443 714 2632 1001 
Q 2821 1289 2821 1745 
Q 2821 2200 2633 2483 
Q 2446 2766 2086 2766 
Q 1734 2766 1543 2490 
Q 1352 2214 1352 1745 
z
" id="Inter-Bold-62" transform="scale(0.015625)"/>
      <path d="M 950 -1359 
Q 743 -1359 596 -1324 
Q 450 -1289 368 -1252 
L 586 -502 
Q 843 -580 1019 -543 
Q 1196 -507 1298 -268 
L 1361 -100 
L 109 3491 
L 1127 3491 
L 1850 927 
L 1886 927 
L 2616 3491 
L 3641 3491 
L 2277 -400 
Q 2130 -818 1806 -1088 
Q 1482 -1359 950 -1359 
z
" id="Inter-Bold-79" transform="scale(0.015625)"/>
      <path d="M 1673 -57 
Q 1275 -57 954 149 
Q 634 355 445 756 
Q 257 1157 257 1741 
Q 257 2341 451 2740 
Q 646 3139 967 3337 
Q 1289 3536 1671 3536 
Q 1964 3536 2160 3437 
Q 2357 3339 2478 3193 
Q 2600 3048 2664 2905 
L 2693 2905 
L 2693 4655 
L 3659 4655 
L 3659 0 
L 2705 0 
L 2705 559 
L 2664 559 
Q 2598 414 2473 272 
Q 2348 130 2151 36 
Q 1955 -57 1673 -57 
z
M 1980 714 
Q 2330 714 2522 997 
Q 2714 1280 2714 1745 
Q 2714 2214 2523 2490 
Q 2332 2766 1980 2766 
Q 1621 2766 1433 2483 
Q 1246 2200 1246 1745 
Q 1246 1289 1434 1001 
Q 1623 714 1980 714 
z
" id="Inter-Bold-64" transform="scale(0.015625)"/>
      <path d="M 386 0 
L 386 3491 
L 1325 3491 
L 1325 2882 
L 1361 2882 
Q 1457 3207 1681 3374 
Q 1905 3541 2200 3541 
Q 2341 3541 2461 3507 
Q 2582 3473 2677 3414 
L 2386 2614 
Q 2318 2648 2237 2671 
Q 2157 2695 2057 2695 
Q 1764 2695 1560 2495 
Q 1357 2295 1355 1975 
L 1355 0 
L 386 0 
z
" id="Inter-Bold-72" transform="scale(0.015625)"/>
      <path d="M 386 -1309 
L 386 3491 
L 1341 3491 
L 1341 2905 
L 1384 2905 
Q 1450 3048 1570 3193 
Q 1691 3339 1888 3437 
Q 2086 3536 2377 3536 
Q 2761 3536 3081 3337 
Q 3402 3139 3596 2740 
Q 3791 2341 3791 1741 
Q 3791 1157 3602 756 
Q 3414 355 3093 149 
Q 2773 -57 2375 -57 
Q 2093 -57 1896 36 
Q 1700 130 1576 272 
Q 1452 414 1384 559 
L 1355 559 
L 1355 -1309 
L 386 -1309 
z
M 1334 1745 
Q 1334 1280 1526 997 
Q 1718 714 2068 714 
Q 2425 714 2613 1001 
Q 2802 1289 2802 1745 
Q 2802 2200 2614 2483 
Q 2427 2766 2068 2766 
Q 1716 2766 1525 2490 
Q 1334 2214 1334 1745 
z
" id="Inter-Bold-70" transform="scale(0.015625)"/>
      <path d="M 1964 -68 
Q 1434 -68 1049 158 
Q 664 384 455 789 
Q 246 1195 246 1732 
Q 246 2273 455 2678 
Q 664 3084 1049 3310 
Q 1434 3536 1964 3536 
Q 2493 3536 2878 3310 
Q 3264 3084 3473 2678 
Q 3682 2273 3682 1732 
Q 3682 1195 3473 789 
Q 3264 384 2878 158 
Q 2493 -68 1964 -68 
z
M 1968 682 
Q 2327 682 2512 982 
Q 2698 1282 2698 1739 
Q 2698 2195 2512 2496 
Q 2327 2798 1968 2798 
Q 1602 2798 1416 2496 
Q 1230 2195 1230 1739 
Q 1230 1282 1416 982 
Q 1602 682 1968 682 
z
" id="Inter-Bold-6f" transform="scale(0.015625)"/>
      <path d="M 1439 636 
L 1414 386 
Q 1384 86 1301 -212 
Q 1218 -511 1128 -754 
Q 1039 -998 984 -1136 
L 357 -1136 
Q 391 -1002 450 -763 
Q 509 -525 561 -226 
Q 614 73 627 382 
L 639 636 
L 1439 636 
z
" id="Inter-Bold-2c" transform="scale(0.015625)"/>
     </defs>
     <use xlink:href="#Inter-Bold-43"/>
     <use x="75.213089" xlink:href="#Inter-Bold-75"/>
     <use x="137.393494" xlink:href="#Inter-Bold-6d"/>
     <use x="228.5867" xlink:href="#Inter-Bold-75"/>
     <use x="290.767105" xlink:href="#Inter-Bold-6c"/>
     <use x="317.968811" xlink:href="#Inter-Bold-61"/>
     <use x="375.994385" xlink:href="#Inter-Bold-74"/>
     <use x="414.843826" xlink:href="#Inter-Bold-69"/>
     <use x="442.045532" xlink:href="#Inter-Bold-76"/>
     <use x="500.639297" xlink:href="#Inter-Bold-65"/>
     <use x="560.404938" xlink:href="#Inter-Bold-20"/>
     <use x="583.593857" xlink:href="#Inter-Bold-43"/>
     <use x="658.806946" xlink:href="#Inter-Bold-4f"/>
     <use x="737.002991" xlink:href="#Inter-Bold-56"/>
     <use x="811.789932" xlink:href="#Inter-Bold-49"/>
     <use x="839.843918" xlink:href="#Inter-Bold-44"/>
     <use x="912.571213" xlink:href="#Inter-Bold-2d"/>
     <use x="959.446228" xlink:href="#Inter-Bold-31"/>
     <use x="1006.853912" xlink:href="#Inter-Bold-39"/>
     <use x="1072.869553" xlink:href="#Inter-Bold-20"/>
     <use x="1096.058472" xlink:href="#Inter-Bold-63"/>
     <use x="1154.794281" xlink:href="#Inter-Bold-61"/>
     <use x="1212.819855" xlink:href="#Inter-Bold-73"/>
     <use x="1268.99884" xlink:href="#Inter-Bold-65"/>
     <use x="1328.764481" xlink:href="#Inter-Bold-73"/>
     <use x="1384.943466" xlink:href="#Inter-Bold-20"/>
     <use x="1408.132385" xlink:href="#Inter-Bold-62"/>
     <use x="1471.662231" xlink:href="#Inter-Bold-79"/>
     <use x="1530.255997" xlink:href="#Inter-Bold-20"/>
     <use x="1553.444916" xlink:href="#Inter-Bold-64"/>
     <use x="1616.974762" xlink:href="#Inter-Bold-61"/>
     <use x="1675.000336" xlink:href="#Inter-Bold-74"/>
     <use x="1713.849777" xlink:href="#Inter-Bold-65"/>
     <use x="1773.615417" xlink:href="#Inter-Bold-20"/>
     <use x="1796.804337" xlink:href="#Inter-Bold-72"/>
     <use x="1839.666565" xlink:href="#Inter-Bold-65"/>
     <use x="1899.432205" xlink:href="#Inter-Bold-70"/>
     <use x="1962.677963" xlink:href="#Inter-Bold-6f"/>
     <use x="2024.041611" xlink:href="#Inter-Bold-72"/>
     <use x="2066.903839" xlink:href="#Inter-Bold-74"/>
     <use x="2105.753281" xlink:href="#Inter-Bold-65"/>
     <use x="2165.518921" xlink:href="#Inter-Bold-64"/>
     <use x="2229.048767" xlink:href="#Inter-Bold-2c"/>
     <use x="2259.339966" xlink:href="#Inter-Bold-20"/>
     <use x="2282.528885" xlink:href="#Inter-Bold-70"/>
     <use x="2345.774643" xlink:href="#Inter-Bold-65"/>
     <use x="2405.540283" xlink:href="#Inter-Bold-72"/>
     <use x="2448.402512" xlink:href="#Inter-Bold-20"/>
     <use x="2471.591431" xlink:href="#Inter-Bold-63"/>
     <use x="2530.32724" xlink:href="#Inter-Bold-61"/>
     <use x="2588.352814" xlink:href="#Inter-Bold-70"/>
     <use x="2651.598572" xlink:href="#Inter-Bold-69"/>
     <use x="2678.800278" xlink:href="#Inter-Bold-74"/>
     <use x="2717.649719" xlink:href="#Inter-Bold-61"/>
    </g>
   </g>
   <g id="legend_1">
    <g id="patch_4">
     <path d="M 64.621875 98.614062 
L 174.195313 98.614062 
Q 176.195313 98.614062 176.195313 96.614062 
L 176.195313 40.225 
Q 176.195313 38.225 174.195313 38.225 
L 64.621875 38.225 
Q 62.621875 38.225 62.621875 40.225 
L 62.621875 96.614062 
Q 62.621875 98.614062 64.621875 98.614062 
z
" style="fill:#ffffff;opacity:0.8;stroke:#cccccc;stroke-linejoin:miter;"/>
    </g>
    <g id="line2d_42">
     <path d="M 66.621875 45.998437 
L 86.621875 45.998437 
" style="fill:none;stroke:#d4351c;stroke-linecap:square;stroke-width:2;"/>
    </g>
    <g id="line2d_43"/>
    <g id="text_22">
     <!-- Wales -->
     <g transform="translate(94.621875 49.498437)scale(0.1 -0.1)">
      <defs>
       <path d="M 1409 0 
L 136 4655 
L 709 4655 
L 1682 864 
L 1727 864 
L 2718 4655 
L 3355 4655 
L 4346 864 
L 4391 864 
L 5364 4655 
L 5936 4655 
L 4664 0 
L 4082 0 
L 3055 3709 
L 3018 3709 
L 1991 0 
L 1409 0 
z
" id="Inter-Regular-57" transform="scale(0.015625)"/>
      </defs>
      <use xlink:href="#Inter-Regular-57"/>
      <use x="94.886383" xlink:href="#Inter-Regular-61"/>
      <use x="151.278442" xlink:href="#Inter-Regular-6c"/>
      <use x="175.000031" xlink:href="#Inter-Regular-65"/>
      <use x="233.238678" xlink:href="#Inter-Regular-73"/>
     </g>
    </g>
    <g id="line2d_44">
     <path d="M 66.621875 60.317187 
L 86.621875 60.317187 
" style="fill:none;stroke:#003078;stroke-linecap:square;stroke-width:2;"/>
    </g>
    <g id="line2d_45"/>
    <g id="text_23">
     <!-- Scotland -->
     <g transform="translate(94.621875 63.817187)scale(0.1 -0.1)">
      <use xlink:href="#Inter-Regular-53"/>
      <use x="63.778427" xlink:href="#Inter-Regular-63"/>
      <use x="119.602295" xlink:href="#Inter-Regular-6f"/>
      <use x="179.261398" xlink:href="#Inter-Regular-74"/>
      <use x="215.625046" xlink:href="#Inter-Regular-6c"/>
      <use x="239.346634" xlink:href="#Inter-Regular-61"/>
      <use x="295.738693" xlink:href="#Inter-Regular-6e"/>
      <use x="354.261429" xlink:href="#Inter-Regular-64"/>
     </g>
    </g>
    <g id="line2d_46">
     <path d="M 66.621875 74.635937 
L 86.621875 74.635937 
" style="fill:none;stroke:#ffdd00;stroke-linecap:square;stroke-width:2;"/>
    </g>
    <g id="line2d_47"/>
    <g id="text_24">
     <!-- Northern Ireland -->
     <g transform="translate(94.621875 78.135937)scale(0.1 -0.1)">
      <defs>
       <path d="M 1027 2100 
L 1027 0 
L 491 0 
L 491 4655 
L 1027 4655 
L 1027 2945 
L 1073 2945 
Q 1196 3216 1442 3376 
Q 1689 3536 2100 3536 
Q 2636 3536 2963 3213 
Q 3291 2891 3291 2218 
L 3291 0 
L 2755 0 
L 2755 2182 
Q 2755 2598 2540 2826 
Q 2325 3055 1946 3055 
Q 1548 3055 1287 2806 
Q 1027 2557 1027 2100 
z
" id="Inter-Regular-68" transform="scale(0.015625)"/>
       <path d="M 1127 4655 
L 1127 0 
L 564 0 
L 564 4655 
L 1127 4655 
z
" id="Inter-Regular-49" transform="scale(0.015625)"/>
      </defs>
      <use xlink:href="#Inter-Regular-4e"/>
      <use x="75.284103" xlink:href="#Inter-Regular-6f"/>
      <use x="134.943207" xlink:href="#Inter-Regular-72"/>
      <use x="173.295486" xlink:href="#Inter-Regular-74"/>
      <use x="209.659134" xlink:href="#Inter-Regular-68"/>
      <use x="268.750061" xlink:href="#Inter-Regular-65"/>
      <use x="326.988708" xlink:href="#Inter-Regular-72"/>
      <use x="365.340988" xlink:href="#Inter-Regular-6e"/>
      <use x="423.863724" xlink:href="#Inter-Regular-20"/>
      <use x="451.988724" xlink:href="#Inter-Regular-49"/>
      <use x="478.40918" xlink:href="#Inter-Regular-72"/>
      <use x="516.761459" xlink:href="#Inter-Regular-65"/>
      <use x="575.000107" xlink:href="#Inter-Regular-6c"/>
      <use x="598.721695" xlink:href="#Inter-Regular-61"/>
      <use x="655.113754" xlink:href="#Inter-Regular-6e"/>
      <use x="713.63649" xlink:href="#Inter-Regular-64"/>
     </g>
    </g>
    <g id="line2d_48">
     <path d="M 66.621875 88.954687 
L 86.621875 88.954687 
" style="fill:none;stroke:#5694ca;stroke-linecap:square;stroke-width:2;"/>
    </g>
    <g id="line2d_49"/>
    <g id="text_25">
     <!-- England -->
     <g transform="translate(94.621875 92.454687)scale(0.1 -0.1)">
      <defs>
       <path d="M 564 0 
L 564 4655 
L 3373 4655 
L 3373 4155 
L 1127 4155 
L 1127 2582 
L 3227 2582 
L 3227 2082 
L 1127 2082 
L 1127 500 
L 3409 500 
L 3409 0 
L 564 0 
z
" id="Inter-Regular-45" transform="scale(0.015625)"/>
       <path d="M 1900 -1382 
Q 1316 -1382 976 -1169 
Q 636 -957 473 -682 
L 900 -382 
Q 973 -477 1084 -601 
Q 1196 -725 1390 -817 
Q 1584 -909 1900 -909 
Q 2323 -909 2598 -704 
Q 2873 -500 2873 -64 
L 2873 645 
L 2827 645 
Q 2768 550 2660 410 
Q 2552 270 2351 162 
Q 2150 55 1809 55 
Q 1386 55 1051 255 
Q 716 455 521 836 
Q 327 1218 327 1764 
Q 327 2300 516 2699 
Q 705 3098 1041 3317 
Q 1377 3536 1818 3536 
Q 2159 3536 2360 3423 
Q 2561 3311 2669 3169 
Q 2777 3027 2836 2936 
L 2891 2936 
L 2891 3491 
L 3409 3491 
L 3409 -100 
Q 3409 -550 3205 -833 
Q 3002 -1116 2660 -1249 
Q 2318 -1382 1900 -1382 
z
M 1882 536 
Q 2366 536 2624 864 
Q 2882 1193 2882 1773 
Q 2882 2339 2627 2697 
Q 2373 3055 1882 3055 
Q 1541 3055 1315 2882 
Q 1089 2709 976 2418 
Q 864 2127 864 1773 
Q 864 1227 1120 881 
Q 1377 536 1882 536 
z
" id="Inter-Regular-67" transform="scale(0.015625)"/>
      </defs>
      <use xlink:href="#Inter-Regular-45"/>
      <use x="59.801147" xlink:href="#Inter-Regular-6e"/>
      <use x="118.323883" xlink:href="#Inter-Regular-67"/>
      <use x="179.261398" xlink:href="#Inter-Regular-6c"/>
      <use x="202.982986" xlink:href="#Inter-Regular-61"/>
      <use x="259.375046" xlink:href="#Inter-Regular-6e"/>
      <use x="317.897781" xlink:href="#Inter-Regular-64"/>
     </g>
    </g>
   </g>
  </g>
 </g>
 <defs>
  <clipPath id="p9374a322b8">
   <rect height="443.52" width="669.6" x="57.621875" y="33.225"/>
  </clipPath>
 </defs>
</svg>
