<?xml version="1.0" encoding="utf-8" standalone="no"?>
<!DOCTYPE svg PUBLIC "-//W3C//DTD SVG 1.1//EN"
  "http://www.w3.org/Graphics/SVG/1.1/DTD/svg11.dtd">
<!-- Created with matplotlib (https://matplotlib.org/) -->
<svg version="1.1" viewBox="0 0 756.175 511.27625" xmlns="http://www.w3.org/2000/svg" xmlns:xlink="http://www.w3.org/1999/xlink">
 <metadata>
  <rdf:RDF xmlns:cc="http://creativecommons.org/ns#" xmlns:dc="http://purl.org/dc/elements/1.1/" xmlns:rdf="http://www.w3.org/1999/02/22-rdf-syntax-ns#">
   <cc:Work>
    <dc:type rdf:resource="http://purl.org/dc/dcmitype/StillImage"/>
    <dc:date>2021-02-10T16:18:25.279806</dc:date>
    <dc:format>image/svg+xml</dc:format>
    <dc:creator>
     <cc:Agent>
      <dc:title>Matplotlib v3.3.4, https://matplotlib.org/</dc:title>
     </cc:Agent>
    </dc:creator>
   </cc:Work>
  </rdf:RDF>
 </metadata>
 <defs>
  <style type="text/css">*{stroke-linecap:butt;stroke-linejoin:round;}</style>
 </defs>
 <g id="figure_1">
  <g id="patch_1">
   <path d="M 0 511.27625 
L 756.175 511.27625 
L 756.175 0 
L 0 0 
z
" style="fill:#ffffff;"/>
  </g>
  <g id="axes_1">
   <g id="patch_2">
    <path d="M 68.575 476.745 
L 738.175 476.745 
L 738.175 33.225 
L 68.575 33.225 
z
" style="fill:#ffffff;"/>
   </g>
   <g id="matplotlib.axis_1">
    <g id="xtick_1">
     <g id="line2d_1">
      <defs>
       <path d="M 0 0 
L 0 3.5 
" id="mb3ae50d3ec" style="stroke:#000000;stroke-width:0.8;"/>
      </defs>
      <g>
       <use style="stroke:#000000;stroke-width:0.8;" x="68.575" xlink:href="#mb3ae50d3ec" y="476.745"/>
      </g>
     </g>
     <g id="text_1">
      <!-- 01 Mar -->
      <g transform="translate(52.538281 491.018438)scale(0.1 -0.1)">
       <defs>
        <path d="M 31.25 -1 
Q 19.21875 -1 12.59375 8.765625 
Q 5.96875 18.53125 5.96875 36.359375 
Q 5.96875 54.046875 12.640625 63.875 
Q 19.3125 73.71875 31.25 73.71875 
Q 43.1875 73.71875 49.859375 63.875 
Q 56.53125 54.046875 56.53125 36.359375 
Q 56.53125 18.53125 49.90625 8.765625 
Q 43.296875 -1 31.25 -1 
z
M 31.25 6.8125 
Q 39.203125 6.8125 43.609375 14.484375 
Q 48.015625 22.15625 48.015625 36.359375 
Q 48.015625 50.53125 43.578125 58.28125 
Q 39.140625 66.046875 31.25 66.046875 
Q 23.375 66.046875 18.921875 58.28125 
Q 14.484375 50.53125 14.484375 36.359375 
Q 14.484375 22.15625 18.90625 14.484375 
Q 23.328125 6.8125 31.25 6.8125 
z
" id="Inter-Regular-48"/>
        <path d="M 30.828125 72.734375 
L 30.828125 0 
L 22.015625 0 
L 22.015625 59.9375 
L 21.453125 59.9375 
Q 20.953125 58.953125 18.890625 57.6875 
Q 16.828125 56.421875 13.5625 55.484375 
Q 10.296875 54.546875 6.109375 54.546875 
L 6.109375 61.9375 
Q 10.328125 61.9375 13.421875 63.453125 
Q 16.515625 64.984375 18.59375 67.046875 
Q 20.671875 69.109375 21.75 70.765625 
Q 22.828125 72.4375 23.015625 72.734375 
z
" id="Inter-Regular-49"/>
        <path id="Inter-Regular-32"/>
        <path d="M 8.8125 72.734375 
L 19.3125 72.734375 
L 44.03125 12.359375 
L 44.890625 12.359375 
L 69.609375 72.734375 
L 80.109375 72.734375 
L 80.109375 0 
L 71.875 0 
L 71.875 55.25 
L 71.171875 55.25 
L 48.4375 0 
L 40.484375 0 
L 17.75 55.25 
L 17.046875 55.25 
L 17.046875 0 
L 8.8125 0 
z
" id="Inter-Regular-77"/>
        <path d="M 23.71875 -1.28125 
Q 18.53125 -1.28125 14.3125 0.6875 
Q 10.09375 2.65625 7.59375 6.40625 
Q 5.109375 10.15625 5.109375 15.484375 
Q 5.109375 20.171875 6.953125 23.09375 
Q 8.8125 26.03125 11.890625 27.703125 
Q 14.984375 29.375 18.734375 30.203125 
Q 22.484375 31.03125 26.28125 31.53125 
Q 31.25 32.171875 34.359375 32.5 
Q 37.46875 32.84375 38.90625 33.65625 
Q 40.34375 34.484375 40.34375 36.5 
L 40.34375 36.796875 
Q 40.34375 42.046875 37.484375 44.953125 
Q 34.625 47.875 28.84375 47.875 
Q 22.828125 47.875 19.421875 45.234375 
Q 16.015625 42.609375 14.625 39.625 
L 6.671875 42.46875 
Q 8.8125 47.4375 12.375 50.21875 
Q 15.953125 53.015625 20.1875 54.125 
Q 24.4375 55.25 28.546875 55.25 
Q 31.1875 55.25 34.609375 54.625 
Q 38.03125 54.015625 41.25 52.09375 
Q 44.46875 50.171875 46.59375 46.296875 
Q 48.71875 42.4375 48.71875 35.9375 
L 48.71875 0 
L 40.34375 0 
L 40.34375 7.390625 
L 39.921875 7.390625 
Q 39.0625 5.609375 37.078125 3.578125 
Q 35.09375 1.5625 31.78125 0.140625 
Q 28.484375 -1.28125 23.71875 -1.28125 
z
M 25 6.25 
Q 29.96875 6.25 33.390625 8.203125 
Q 36.828125 10.15625 38.578125 13.234375 
Q 40.34375 16.328125 40.34375 19.75 
L 40.34375 27.421875 
Q 39.8125 26.78125 38.015625 26.265625 
Q 36.21875 25.75 33.890625 25.375 
Q 31.578125 25 29.390625 24.734375 
Q 27.203125 24.46875 25.859375 24.296875 
Q 22.59375 23.859375 19.765625 22.921875 
Q 16.9375 21.984375 15.21875 20.109375 
Q 13.5 18.25 13.5 15.0625 
Q 13.5 10.6875 16.75 8.46875 
Q 20 6.25 25 6.25 
z
" id="Inter-Regular-97"/>
        <path d="M 7.671875 0 
L 7.671875 54.546875 
L 15.765625 54.546875 
L 15.765625 46.3125 
L 16.34375 46.3125 
Q 17.796875 50.359375 21.703125 52.875 
Q 25.609375 55.390625 30.546875 55.390625 
Q 32.8125 55.390625 34.515625 54.859375 
Q 36.21875 54.328125 37.5 53.40625 
L 34.65625 46.3125 
Q 33.765625 46.765625 32.578125 47.03125 
Q 31.390625 47.296875 29.828125 47.296875 
Q 23.859375 47.296875 19.953125 43.65625 
Q 16.046875 40.015625 16.046875 34.515625 
L 16.046875 0 
z
" id="Inter-Regular-114"/>
       </defs>
       <use xlink:href="#Inter-Regular-48"/>
       <use x="62.500015" xlink:href="#Inter-Regular-49"/>
       <use x="106.676163" xlink:href="#Inter-Regular-32"/>
       <use x="134.801163" xlink:href="#Inter-Regular-77"/>
       <use x="225.99437" xlink:href="#Inter-Regular-97"/>
       <use x="282.386429" xlink:href="#Inter-Regular-114"/>
      </g>
     </g>
    </g>
    <g id="xtick_2">
     <g id="line2d_2">
      <g>
       <use style="stroke:#000000;stroke-width:0.8;" x="128.450878" xlink:href="#mb3ae50d3ec" y="476.745"/>
      </g>
     </g>
     <g id="text_2">
      <!-- 01 Apr -->
      <g transform="translate(113.365722 491.116875)scale(0.1 -0.1)">
       <defs>
        <path d="M 11.796875 0 
L 2.5625 0 
L 29.265625 72.734375 
L 38.359375 72.734375 
L 65.0625 0 
L 55.828125 0 
L 48.515625 20.59375 
L 19.109375 20.59375 
z
M 21.875 28.40625 
L 45.734375 28.40625 
L 34.09375 61.21875 
L 33.53125 61.21875 
z
" id="Inter-Regular-65"/>
        <path d="M 7.671875 -20.453125 
L 7.671875 54.546875 
L 15.765625 54.546875 
L 15.765625 45.875 
L 16.765625 45.875 
Q 17.6875 47.296875 19.328125 49.515625 
Q 20.984375 51.734375 24.09375 53.484375 
Q 27.203125 55.25 32.53125 55.25 
Q 39.421875 55.25 44.671875 51.796875 
Q 49.9375 48.359375 52.875 42.03125 
Q 55.828125 35.71875 55.828125 27.125 
Q 55.828125 18.46875 52.875 12.125 
Q 49.9375 5.78125 44.703125 2.3125 
Q 39.484375 -1.140625 32.671875 -1.140625 
Q 27.421875 -1.140625 24.25 0.609375 
Q 21.09375 2.375 19.390625 4.625 
Q 17.6875 6.890625 16.765625 8.375 
L 16.046875 8.375 
L 16.046875 -20.453125 
z
M 15.90625 27.265625 
Q 15.90625 18 19.9375 12.1875 
Q 23.96875 6.390625 31.53125 6.390625 
Q 36.796875 6.390625 40.328125 9.171875 
Q 43.859375 11.96875 45.640625 16.703125 
Q 47.4375 21.453125 47.4375 27.265625 
Q 47.4375 33.03125 45.671875 37.65625 
Q 43.921875 42.296875 40.390625 45.015625 
Q 36.859375 47.734375 31.53125 47.734375 
Q 23.859375 47.734375 19.875 42.078125 
Q 15.90625 36.4375 15.90625 27.265625 
z
" id="Inter-Regular-112"/>
       </defs>
       <use xlink:href="#Inter-Regular-48"/>
       <use x="62.500015" xlink:href="#Inter-Regular-49"/>
       <use x="106.676163" xlink:href="#Inter-Regular-32"/>
       <use x="134.801163" xlink:href="#Inter-Regular-65"/>
       <use x="202.41481" xlink:href="#Inter-Regular-112"/>
       <use x="263.352325" xlink:href="#Inter-Regular-114"/>
      </g>
     </g>
    </g>
    <g id="xtick_3">
     <g id="line2d_3">
      <g>
       <use style="stroke:#000000;stroke-width:0.8;" x="186.395276" xlink:href="#mb3ae50d3ec" y="476.745"/>
      </g>
     </g>
     <g id="text_3">
      <!-- 01 May -->
      <g transform="translate(169.492151 491.116875)scale(0.1 -0.1)">
       <defs>
        <path d="M 12.78125 -21.171875 
Q 10.65625 -21.171875 8.984375 -20.828125 
Q 7.3125 -20.484375 6.671875 -20.171875 
L 8.8125 -12.78125 
Q 13.390625 -13.953125 16.453125 -12.71875 
Q 19.53125 -11.5 21.734375 -5.390625 
L 23.578125 -0.28125 
L 3.40625 54.546875 
L 12.5 54.546875 
L 27.5625 11.078125 
L 28.125 11.078125 
L 43.1875 54.546875 
L 52.28125 54.546875 
L 28.84375 -8.8125 
Q 24.21875 -21.171875 12.78125 -21.171875 
z
" id="Inter-Regular-121"/>
       </defs>
       <use xlink:href="#Inter-Regular-48"/>
       <use x="62.500015" xlink:href="#Inter-Regular-49"/>
       <use x="106.676163" xlink:href="#Inter-Regular-32"/>
       <use x="134.801163" xlink:href="#Inter-Regular-77"/>
       <use x="225.99437" xlink:href="#Inter-Regular-97"/>
       <use x="282.386429" xlink:href="#Inter-Regular-121"/>
      </g>
     </g>
    </g>
    <g id="xtick_4">
     <g id="line2d_4">
      <g>
       <use style="stroke:#000000;stroke-width:0.8;" x="246.271154" xlink:href="#mb3ae50d3ec" y="476.745"/>
      </g>
     </g>
     <g id="text_4">
      <!-- 01 Jun -->
      <g transform="translate(230.986779 491.018438)scale(0.1 -0.1)">
       <defs>
        <path d="M 36.65625 72.734375 
L 45.453125 72.734375 
L 45.453125 20.734375 
Q 45.453125 10.265625 39.828125 4.625 
Q 34.203125 -1 24.71875 -1 
Q 18.75 -1 14.09375 1.1875 
Q 9.453125 3.375 6.78125 7.421875 
Q 4.125 11.46875 4.125 17.046875 
L 12.78125 17.046875 
Q 12.78125 12.421875 16.15625 9.609375 
Q 19.53125 6.8125 24.71875 6.8125 
Q 30.4375 6.8125 33.546875 10.375 
Q 36.65625 13.953125 36.65625 20.734375 
z
" id="Inter-Regular-74"/>
        <path d="M 42.046875 22.296875 
L 42.046875 54.546875 
L 50.421875 54.546875 
L 50.421875 0 
L 42.046875 0 
L 42.046875 9.234375 
L 41.484375 9.234375 
Q 39.5625 5.078125 35.515625 2.1875 
Q 31.46875 -0.703125 25.28125 -0.703125 
Q 17.609375 -0.703125 12.640625 4.375 
Q 7.671875 9.453125 7.671875 19.890625 
L 7.671875 54.546875 
L 16.046875 54.546875 
L 16.046875 20.453125 
Q 16.046875 14.484375 19.40625 10.9375 
Q 22.765625 7.390625 27.984375 7.390625 
Q 31.109375 7.390625 34.359375 8.984375 
Q 37.609375 10.578125 39.828125 13.875 
Q 42.046875 17.1875 42.046875 22.296875 
z
" id="Inter-Regular-117"/>
        <path d="M 16.046875 32.8125 
L 16.046875 0 
L 7.671875 0 
L 7.671875 54.546875 
L 15.765625 54.546875 
L 15.765625 46.015625 
L 16.484375 46.015625 
Q 18.390625 50.171875 22.296875 52.703125 
Q 26.203125 55.25 32.390625 55.25 
Q 40.65625 55.25 45.75 50.171875 
Q 50.859375 45.09375 50.859375 34.65625 
L 50.859375 0 
L 42.46875 0 
L 42.46875 34.09375 
Q 42.46875 40.515625 39.125 44.125 
Q 35.796875 47.734375 29.96875 47.734375 
Q 23.96875 47.734375 20 43.84375 
Q 16.046875 39.953125 16.046875 32.8125 
z
" id="Inter-Regular-110"/>
       </defs>
       <use xlink:href="#Inter-Regular-48"/>
       <use x="62.500015" xlink:href="#Inter-Regular-49"/>
       <use x="106.676163" xlink:href="#Inter-Regular-32"/>
       <use x="134.801163" xlink:href="#Inter-Regular-74"/>
       <use x="189.062531" xlink:href="#Inter-Regular-117"/>
       <use x="247.159134" xlink:href="#Inter-Regular-110"/>
      </g>
     </g>
    </g>
    <g id="xtick_5">
     <g id="line2d_5">
      <g>
       <use style="stroke:#000000;stroke-width:0.8;" x="304.215553" xlink:href="#mb3ae50d3ec" y="476.745"/>
      </g>
     </g>
     <g id="text_5">
      <!-- 01 Jul -->
      <g transform="translate(290.671803 491.018438)scale(0.1 -0.1)">
       <defs>
        <path d="M 16.046875 72.734375 
L 16.046875 0 
L 7.671875 0 
L 7.671875 72.734375 
z
" id="Inter-Regular-108"/>
       </defs>
       <use xlink:href="#Inter-Regular-48"/>
       <use x="62.500015" xlink:href="#Inter-Regular-49"/>
       <use x="106.676163" xlink:href="#Inter-Regular-32"/>
       <use x="134.801163" xlink:href="#Inter-Regular-74"/>
       <use x="189.062531" xlink:href="#Inter-Regular-117"/>
       <use x="247.159134" xlink:href="#Inter-Regular-108"/>
      </g>
     </g>
    </g>
    <g id="xtick_6">
     <g id="line2d_6">
      <g>
       <use style="stroke:#000000;stroke-width:0.8;" x="364.091431" xlink:href="#mb3ae50d3ec" y="476.745"/>
      </g>
     </g>
     <g id="text_6">
      <!-- 01 Aug -->
      <g transform="translate(348.019556 491.116875)scale(0.1 -0.1)">
       <defs>
        <path d="M 29.6875 -21.59375 
Q 20.5625 -21.59375 15.25 -18.265625 
Q 9.9375 -14.953125 7.390625 -10.65625 
L 14.0625 -5.96875 
Q 15.203125 -7.453125 16.9375 -9.390625 
Q 18.6875 -11.328125 21.71875 -12.765625 
Q 24.75 -14.203125 29.6875 -14.203125 
Q 36.296875 -14.203125 40.59375 -11 
Q 44.890625 -7.8125 44.890625 -1 
L 44.890625 10.078125 
L 44.171875 10.078125 
Q 43.25 8.59375 41.5625 6.40625 
Q 39.875 4.21875 36.734375 2.53125 
Q 33.59375 0.859375 28.265625 0.859375 
Q 21.65625 0.859375 16.421875 3.984375 
Q 11.1875 7.109375 8.140625 13.0625 
Q 5.109375 19.03125 5.109375 27.5625 
Q 5.109375 35.9375 8.0625 42.171875 
Q 11.015625 48.40625 16.265625 51.828125 
Q 21.515625 55.25 28.40625 55.25 
Q 33.734375 55.25 36.875 53.484375 
Q 40.015625 51.734375 41.703125 49.515625 
Q 43.390625 47.296875 44.3125 45.875 
L 45.171875 45.875 
L 45.171875 54.546875 
L 53.265625 54.546875 
L 53.265625 -1.5625 
Q 53.265625 -8.59375 50.078125 -13.015625 
Q 46.90625 -17.4375 41.5625 -19.515625 
Q 36.21875 -21.59375 29.6875 -21.59375 
z
M 29.40625 8.375 
Q 36.96875 8.375 41 13.5 
Q 45.03125 18.640625 45.03125 27.703125 
Q 45.03125 36.546875 41.046875 42.140625 
Q 37.078125 47.734375 29.40625 47.734375 
Q 24.078125 47.734375 20.546875 45.03125 
Q 17.015625 42.328125 15.25 37.78125 
Q 13.5 33.234375 13.5 27.703125 
Q 13.5 19.171875 17.5 13.765625 
Q 21.515625 8.375 29.40625 8.375 
z
" id="Inter-Regular-103"/>
       </defs>
       <use xlink:href="#Inter-Regular-48"/>
       <use x="62.500015" xlink:href="#Inter-Regular-49"/>
       <use x="106.676163" xlink:href="#Inter-Regular-32"/>
       <use x="134.801163" xlink:href="#Inter-Regular-65"/>
       <use x="202.41481" xlink:href="#Inter-Regular-117"/>
       <use x="260.511414" xlink:href="#Inter-Regular-103"/>
      </g>
     </g>
    </g>
    <g id="xtick_7">
     <g id="line2d_7">
      <g>
       <use style="stroke:#000000;stroke-width:0.8;" x="423.967309" xlink:href="#mb3ae50d3ec" y="476.745"/>
      </g>
     </g>
     <g id="text_7">
      <!-- 01 Sep -->
      <g transform="translate(408.079809 491.116875)scale(0.1 -0.1)">
       <defs>
        <path d="M 48.578125 54.546875 
Q 47.9375 59.9375 43.390625 62.921875 
Q 38.84375 65.90625 32.25 65.90625 
Q 25 65.90625 20.59375 62.484375 
Q 16.1875 59.0625 16.1875 53.828125 
Q 16.1875 49.921875 18.578125 47.53125 
Q 20.984375 45.140625 24.265625 43.796875 
Q 27.5625 42.46875 30.25 41.765625 
L 37.640625 39.765625 
Q 40.484375 39.03125 43.984375 37.71875 
Q 47.484375 36.40625 50.6875 34.140625 
Q 53.90625 31.890625 56 28.375 
Q 58.09375 24.859375 58.09375 19.75 
Q 58.09375 13.84375 55.015625 9.078125 
Q 51.953125 4.328125 46.078125 1.515625 
Q 40.203125 -1.28125 31.8125 -1.28125 
Q 20.09375 -1.28125 13.203125 4.25 
Q 6.328125 9.796875 5.6875 18.75 
L 14.78125 18.75 
Q 15.125 14.625 17.5625 11.9375 
Q 20 9.265625 23.734375 7.96875 
Q 27.484375 6.671875 31.8125 6.671875 
Q 36.859375 6.671875 40.875 8.328125 
Q 44.890625 9.984375 47.234375 12.9375 
Q 49.578125 15.90625 49.578125 19.890625 
Q 49.578125 23.515625 47.546875 25.78125 
Q 45.53125 28.046875 42.21875 29.46875 
Q 38.921875 30.890625 35.09375 31.953125 
L 26.140625 34.515625 
Q 17.609375 36.96875 12.640625 41.515625 
Q 7.671875 46.0625 7.671875 53.40625 
Q 7.671875 59.515625 10.984375 64.078125 
Q 14.3125 68.640625 19.9375 71.171875 
Q 25.5625 73.71875 32.53125 73.71875 
Q 39.5625 73.71875 45.03125 71.21875 
Q 50.5 68.71875 53.703125 64.375 
Q 56.921875 60.046875 57.109375 54.546875 
z
" id="Inter-Regular-83"/>
        <path d="M 30.546875 -1.140625 
Q 22.65625 -1.140625 16.953125 2.359375 
Q 11.265625 5.859375 8.1875 12.15625 
Q 5.109375 18.46875 5.109375 26.84375 
Q 5.109375 35.234375 8.1875 41.640625 
Q 11.265625 48.046875 16.78125 51.640625 
Q 22.296875 55.25 29.6875 55.25 
Q 33.953125 55.25 38.109375 53.828125 
Q 42.265625 52.421875 45.671875 49.234375 
Q 49.078125 46.0625 51.09375 40.84375 
Q 53.125 35.625 53.125 27.984375 
L 53.125 24.4375 
L 13.53125 24.4375 
Q 13.8125 15.703125 18.484375 11.046875 
Q 23.15625 6.390625 30.546875 6.390625 
Q 35.484375 6.390625 39.03125 8.515625 
Q 42.578125 10.65625 44.171875 14.921875 
L 52.28125 12.640625 
Q 50.359375 6.46875 44.59375 2.65625 
Q 38.84375 -1.140625 30.546875 -1.140625 
z
M 13.53125 31.671875 
L 44.609375 31.671875 
Q 44.609375 38.59375 40.546875 43.15625 
Q 36.5 47.734375 29.6875 47.734375 
Q 24.890625 47.734375 21.375 45.484375 
Q 17.859375 43.25 15.828125 39.578125 
Q 13.8125 35.90625 13.53125 31.671875 
z
" id="Inter-Regular-101"/>
       </defs>
       <use xlink:href="#Inter-Regular-48"/>
       <use x="62.500015" xlink:href="#Inter-Regular-49"/>
       <use x="106.676163" xlink:href="#Inter-Regular-32"/>
       <use x="134.801163" xlink:href="#Inter-Regular-83"/>
       <use x="198.57959" xlink:href="#Inter-Regular-101"/>
       <use x="256.818237" xlink:href="#Inter-Regular-112"/>
      </g>
     </g>
    </g>
    <g id="xtick_8">
     <g id="line2d_8">
      <g>
       <use style="stroke:#000000;stroke-width:0.8;" x="481.911707" xlink:href="#mb3ae50d3ec" y="476.745"/>
      </g>
     </g>
     <g id="text_8">
      <!-- 01 Oct -->
      <g transform="translate(466.755457 491.018438)scale(0.1 -0.1)">
       <defs>
        <path d="M 70.171875 36.359375 
Q 70.171875 24.859375 66.015625 16.46875 
Q 61.859375 8.09375 54.609375 3.546875 
Q 47.375 -1 38.0625 -1 
Q 28.765625 -1 21.515625 3.546875 
Q 14.28125 8.09375 10.125 16.46875 
Q 5.96875 24.859375 5.96875 36.359375 
Q 5.96875 47.875 10.125 56.25 
Q 14.28125 64.625 21.515625 69.171875 
Q 28.765625 73.71875 38.0625 73.71875 
Q 47.375 73.71875 54.609375 69.171875 
Q 61.859375 64.625 66.015625 56.25 
Q 70.171875 47.875 70.171875 36.359375 
z
M 61.65625 36.359375 
Q 61.65625 45.8125 58.5 52.3125 
Q 55.359375 58.8125 50.015625 62.140625 
Q 44.671875 65.484375 38.0625 65.484375 
Q 31.46875 65.484375 26.125 62.140625 
Q 20.78125 58.8125 17.625 52.3125 
Q 14.484375 45.8125 14.484375 36.359375 
Q 14.484375 26.921875 17.625 20.421875 
Q 20.78125 13.921875 26.125 10.578125 
Q 31.46875 7.25 38.0625 7.25 
Q 44.671875 7.25 50.015625 10.578125 
Q 55.359375 13.921875 58.5 20.421875 
Q 61.65625 26.921875 61.65625 36.359375 
z
" id="Inter-Regular-79"/>
        <path d="M 29.828125 -1.140625 
Q 22.15625 -1.140625 16.609375 2.484375 
Q 11.078125 6.109375 8.09375 12.46875 
Q 5.109375 18.828125 5.109375 26.984375 
Q 5.109375 35.296875 8.1875 41.671875 
Q 11.265625 48.046875 16.78125 51.640625 
Q 22.296875 55.25 29.6875 55.25 
Q 35.4375 55.25 40.046875 53.125 
Q 44.671875 51 47.609375 47.15625 
Q 50.5625 43.328125 51.28125 38.203125 
L 42.90625 38.203125 
Q 41.9375 41.9375 38.65625 44.828125 
Q 35.375 47.734375 29.828125 47.734375 
Q 22.484375 47.734375 17.984375 42.140625 
Q 13.5 36.546875 13.5 27.265625 
Q 13.5 17.796875 17.9375 12.09375 
Q 22.375 6.390625 29.828125 6.390625 
Q 34.734375 6.390625 38.234375 8.90625 
Q 41.734375 11.4375 42.90625 15.90625 
L 51.28125 15.90625 
Q 50.5625 11.078125 47.78125 7.21875 
Q 45 3.375 40.4375 1.109375 
Q 35.875 -1.140625 29.828125 -1.140625 
z
" id="Inter-Regular-99"/>
        <path d="M 31.390625 54.546875 
L 31.390625 47.4375 
L 19.75 47.4375 
L 19.75 15.625 
Q 19.75 12.078125 20.796875 10.3125 
Q 21.84375 8.5625 23.484375 7.96875 
Q 25.140625 7.390625 26.984375 7.390625 
Q 28.375 7.390625 29.265625 7.546875 
Q 30.15625 7.703125 30.6875 7.8125 
L 32.390625 0.28125 
Q 31.53125 -0.03125 30 -0.359375 
Q 28.484375 -0.703125 26.140625 -0.703125 
Q 22.59375 -0.703125 19.1875 0.8125 
Q 15.796875 2.34375 13.578125 5.46875 
Q 11.359375 8.59375 11.359375 13.359375 
L 11.359375 47.4375 
L 3.125 47.4375 
L 3.125 54.546875 
L 11.359375 54.546875 
L 11.359375 67.609375 
L 19.75 67.609375 
L 19.75 54.546875 
z
" id="Inter-Regular-116"/>
       </defs>
       <use xlink:href="#Inter-Regular-48"/>
       <use x="62.500015" xlink:href="#Inter-Regular-49"/>
       <use x="106.676163" xlink:href="#Inter-Regular-32"/>
       <use x="134.801163" xlink:href="#Inter-Regular-79"/>
       <use x="210.937546" xlink:href="#Inter-Regular-99"/>
       <use x="266.761414" xlink:href="#Inter-Regular-116"/>
      </g>
     </g>
    </g>
    <g id="xtick_9">
     <g id="line2d_9">
      <g>
       <use style="stroke:#000000;stroke-width:0.8;" x="541.787585" xlink:href="#mb3ae50d3ec" y="476.745"/>
      </g>
     </g>
     <g id="text_9">
      <!-- 01 Nov -->
      <g transform="translate(525.516491 491.018438)scale(0.1 -0.1)">
       <defs>
        <path d="M 66.484375 72.734375 
L 66.484375 0 
L 57.953125 0 
L 18.328125 57.109375 
L 17.609375 57.109375 
L 17.609375 0 
L 8.8125 0 
L 8.8125 72.734375 
L 17.328125 72.734375 
L 57.109375 15.484375 
L 57.8125 15.484375 
L 57.8125 72.734375 
z
" id="Inter-Regular-78"/>
        <path d="M 29.828125 -1.140625 
Q 22.4375 -1.140625 16.875 2.375 
Q 11.328125 5.890625 8.21875 12.203125 
Q 5.109375 18.53125 5.109375 26.984375 
Q 5.109375 35.515625 8.21875 41.859375 
Q 11.328125 48.21875 16.875 51.734375 
Q 22.4375 55.25 29.828125 55.25 
Q 37.21875 55.25 42.765625 51.734375 
Q 48.328125 48.21875 51.4375 41.859375 
Q 54.546875 35.515625 54.546875 26.984375 
Q 54.546875 18.53125 51.4375 12.203125 
Q 48.328125 5.890625 42.765625 2.375 
Q 37.21875 -1.140625 29.828125 -1.140625 
z
M 29.828125 6.390625 
Q 35.4375 6.390625 39.0625 9.265625 
Q 42.6875 12.140625 44.421875 16.828125 
Q 46.171875 21.515625 46.171875 26.984375 
Q 46.171875 32.453125 44.421875 37.171875 
Q 42.6875 41.90625 39.0625 44.8125 
Q 35.4375 47.734375 29.828125 47.734375 
Q 24.21875 47.734375 20.59375 44.8125 
Q 16.96875 41.90625 15.234375 37.171875 
Q 13.5 32.453125 13.5 26.984375 
Q 13.5 21.515625 15.234375 16.828125 
Q 16.96875 12.140625 20.59375 9.265625 
Q 24.21875 6.390625 29.828125 6.390625 
z
" id="Inter-Regular-111"/>
        <path d="M 52.28125 54.546875 
L 32.109375 0 
L 23.578125 0 
L 3.40625 54.546875 
L 12.5 54.546875 
L 27.5625 11.078125 
L 28.125 11.078125 
L 43.1875 54.546875 
z
" id="Inter-Regular-118"/>
       </defs>
       <use xlink:href="#Inter-Regular-48"/>
       <use x="62.500015" xlink:href="#Inter-Regular-49"/>
       <use x="106.676163" xlink:href="#Inter-Regular-32"/>
       <use x="134.801163" xlink:href="#Inter-Regular-78"/>
       <use x="210.085266" xlink:href="#Inter-Regular-111"/>
       <use x="269.74437" xlink:href="#Inter-Regular-118"/>
      </g>
     </g>
    </g>
    <g id="xtick_10">
     <g id="line2d_10">
      <g>
       <use style="stroke:#000000;stroke-width:0.8;" x="599.731983" xlink:href="#mb3ae50d3ec" y="476.745"/>
      </g>
     </g>
     <g id="text_10">
      <!-- 01 Dec -->
      <g transform="translate(583.695265 491.018438)scale(0.1 -0.1)">
       <defs>
        <path d="M 31.25 0 
L 8.8125 0 
L 8.8125 72.734375 
L 32.25 72.734375 
Q 42.828125 72.734375 50.359375 68.375 
Q 57.890625 64.03125 61.890625 55.90625 
Q 65.90625 47.796875 65.90625 36.5 
Q 65.90625 25.140625 61.859375 16.953125 
Q 57.8125 8.765625 50.0625 4.375 
Q 42.328125 0 31.25 0 
z
M 17.609375 7.8125 
L 30.6875 7.8125 
Q 44.21875 7.8125 50.796875 15.5 
Q 57.390625 23.1875 57.390625 36.5 
Q 57.390625 49.71875 50.921875 57.3125 
Q 44.46875 64.921875 31.671875 64.921875 
L 17.609375 64.921875 
z
" id="Inter-Regular-68"/>
       </defs>
       <use xlink:href="#Inter-Regular-48"/>
       <use x="62.500015" xlink:href="#Inter-Regular-49"/>
       <use x="106.676163" xlink:href="#Inter-Regular-32"/>
       <use x="134.801163" xlink:href="#Inter-Regular-68"/>
       <use x="206.676178" xlink:href="#Inter-Regular-101"/>
       <use x="264.914825" xlink:href="#Inter-Regular-99"/>
      </g>
     </g>
    </g>
    <g id="xtick_11">
     <g id="line2d_11">
      <g>
       <use style="stroke:#000000;stroke-width:0.8;" x="659.607862" xlink:href="#mb3ae50d3ec" y="476.745"/>
      </g>
     </g>
     <g id="text_11">
      <!-- 01 Jan -->
      <g transform="translate(644.408643 491.018438)scale(0.1 -0.1)">
       <use xlink:href="#Inter-Regular-48"/>
       <use x="62.500015" xlink:href="#Inter-Regular-49"/>
       <use x="106.676163" xlink:href="#Inter-Regular-32"/>
       <use x="134.801163" xlink:href="#Inter-Regular-74"/>
       <use x="189.062531" xlink:href="#Inter-Regular-97"/>
       <use x="245.45459" xlink:href="#Inter-Regular-110"/>
      </g>
     </g>
    </g>
    <g id="xtick_12">
     <g id="line2d_12">
      <g>
       <use style="stroke:#000000;stroke-width:0.8;" x="719.48374" xlink:href="#mb3ae50d3ec" y="476.745"/>
      </g>
     </g>
     <g id="text_12">
      <!-- 01 Feb -->
      <g transform="translate(703.794677 491.018438)scale(0.1 -0.1)">
       <defs>
        <path d="M 8.8125 0 
L 8.8125 72.734375 
L 52.421875 72.734375 
L 52.421875 64.921875 
L 17.609375 64.921875 
L 17.609375 40.34375 
L 49.15625 40.34375 
L 49.15625 32.53125 
L 17.609375 32.53125 
L 17.609375 0 
z
" id="Inter-Regular-70"/>
        <path d="M 8.8125 0 
L 8.8125 72.734375 
L 17.1875 72.734375 
L 17.1875 45.875 
L 17.90625 45.875 
Q 18.828125 47.296875 20.46875 49.515625 
Q 22.125 51.734375 25.234375 53.484375 
Q 28.34375 55.25 33.671875 55.25 
Q 40.5625 55.25 45.8125 51.796875 
Q 51.0625 48.359375 54.015625 42.03125 
Q 56.96875 35.71875 56.96875 27.125 
Q 56.96875 18.46875 54.015625 12.125 
Q 51.0625 5.78125 45.84375 2.3125 
Q 40.625 -1.140625 33.8125 -1.140625 
Q 28.546875 -1.140625 25.390625 0.609375 
Q 22.234375 2.375 20.53125 4.625 
Q 18.828125 6.890625 17.90625 8.375 
L 16.90625 8.375 
L 16.90625 0 
z
M 17.046875 27.265625 
Q 17.046875 18 21.078125 12.1875 
Q 25.109375 6.390625 32.671875 6.390625 
Q 37.921875 6.390625 41.453125 9.171875 
Q 45 11.96875 46.78125 16.703125 
Q 48.578125 21.453125 48.578125 27.265625 
Q 48.578125 33.03125 46.8125 37.65625 
Q 45.0625 42.296875 41.53125 45.015625 
Q 38 47.734375 32.671875 47.734375 
Q 25 47.734375 21.015625 42.078125 
Q 17.046875 36.4375 17.046875 27.265625 
z
" id="Inter-Regular-98"/>
       </defs>
       <use xlink:href="#Inter-Regular-48"/>
       <use x="62.500015" xlink:href="#Inter-Regular-49"/>
       <use x="106.676163" xlink:href="#Inter-Regular-32"/>
       <use x="134.801163" xlink:href="#Inter-Regular-70"/>
       <use x="193.465942" xlink:href="#Inter-Regular-101"/>
       <use x="251.70459" xlink:href="#Inter-Regular-98"/>
      </g>
     </g>
    </g>
   </g>
   <g id="matplotlib.axis_2">
    <g id="ytick_1">
     <g id="line2d_13">
      <path clip-path="url(#peef1c8c690)" d="M 68.575 476.745 
L 738.175 476.745 
" style="fill:none;stroke:#e5e5e5;stroke-linecap:square;stroke-width:0.8;"/>
     </g>
     <g id="line2d_14">
      <defs>
       <path d="M 0 0 
L -3.5 0 
" id="m7dc2c7aa5a" style="stroke:#000000;stroke-width:0.8;"/>
      </defs>
      <g>
       <use style="stroke:#000000;stroke-width:0.8;" x="68.575" xlink:href="#m7dc2c7aa5a" y="476.745"/>
      </g>
     </g>
     <g id="text_13">
      <!-- 0.00% -->
      <g transform="translate(31.94375 480.381719)scale(0.1 -0.1)">
       <defs>
        <path d="M 13.78125 -0.5625 
Q 11.15625 -0.5625 9.265625 1.3125 
Q 7.390625 3.203125 7.390625 5.828125 
Q 7.390625 8.453125 9.265625 10.328125 
Q 11.15625 12.21875 13.78125 12.21875 
Q 16.40625 12.21875 18.28125 10.328125 
Q 20.171875 8.453125 20.171875 5.828125 
Q 20.171875 3.203125 18.28125 1.3125 
Q 16.40625 -0.5625 13.78125 -0.5625 
z
" id="Inter-Regular-46"/>
        <path d="M 44.609375 13.640625 
L 44.609375 17.46875 
Q 44.609375 21.453125 46.25 24.765625 
Q 47.90625 28.09375 51.078125 30.09375 
Q 54.265625 32.109375 58.8125 32.109375 
Q 63.421875 32.109375 66.546875 30.09375 
Q 69.671875 28.09375 71.265625 24.765625 
Q 72.875 21.453125 72.875 17.46875 
L 72.875 13.640625 
Q 72.875 9.65625 71.25 6.328125 
Q 69.640625 3.015625 66.5 1 
Q 63.359375 -1 58.8125 -1 
Q 54.1875 -1 51.03125 1 
Q 47.875 3.015625 46.234375 6.328125 
Q 44.609375 9.65625 44.609375 13.640625 
z
M 8.375 55.25 
L 8.375 59.09375 
Q 8.375 63.0625 10.03125 66.375 
Q 11.6875 69.703125 14.859375 71.703125 
Q 18.046875 73.71875 22.59375 73.71875 
Q 27.203125 73.71875 30.328125 71.703125 
Q 33.453125 69.703125 35.046875 66.375 
Q 36.65625 63.0625 36.65625 59.09375 
L 36.65625 55.25 
Q 36.65625 51.28125 35.03125 47.953125 
Q 33.421875 44.640625 30.265625 42.625 
Q 27.125 40.625 22.59375 40.625 
Q 17.96875 40.625 14.8125 42.625 
Q 11.65625 44.640625 10.015625 47.953125 
Q 8.375 51.28125 8.375 55.25 
z
M 11.078125 0 
L 61.078125 72.734375 
L 69.171875 72.734375 
L 19.171875 0 
z
M 51.84375 17.46875 
L 51.84375 13.640625 
Q 51.84375 10.328125 53.40625 7.71875 
Q 54.96875 5.109375 58.8125 5.109375 
Q 62.53125 5.109375 64.078125 7.71875 
Q 65.625 10.328125 65.625 13.640625 
L 65.625 17.46875 
Q 65.625 20.78125 64.125 23.390625 
Q 62.640625 26 58.8125 26 
Q 55.078125 26 53.453125 23.390625 
Q 51.84375 20.78125 51.84375 17.46875 
z
M 15.625 59.09375 
L 15.625 55.25 
Q 15.625 51.953125 17.1875 49.34375 
Q 18.75 46.734375 22.59375 46.734375 
Q 26.3125 46.734375 27.859375 49.34375 
Q 29.40625 51.953125 29.40625 55.25 
L 29.40625 59.09375 
Q 29.40625 62.390625 27.90625 65 
Q 26.421875 67.609375 22.59375 67.609375 
Q 18.859375 67.609375 17.234375 65 
Q 15.625 62.390625 15.625 59.09375 
z
" id="Inter-Regular-37"/>
       </defs>
       <use xlink:href="#Inter-Regular-48"/>
       <use x="62.500015" xlink:href="#Inter-Regular-46"/>
       <use x="90.056839" xlink:href="#Inter-Regular-48"/>
       <use x="152.556854" xlink:href="#Inter-Regular-48"/>
       <use x="215.05687" xlink:href="#Inter-Regular-37"/>
      </g>
     </g>
    </g>
    <g id="ytick_2">
     <g id="line2d_15">
      <path clip-path="url(#peef1c8c690)" d="M 68.575 391.143493 
L 738.175 391.143493 
" style="fill:none;stroke:#e5e5e5;stroke-linecap:square;stroke-width:0.8;"/>
     </g>
     <g id="line2d_16">
      <g>
       <use style="stroke:#000000;stroke-width:0.8;" x="68.575" xlink:href="#m7dc2c7aa5a" y="391.143493"/>
      </g>
     </g>
     <g id="text_14">
      <!-- 0.02% -->
      <g transform="translate(32.142188 394.780212)scale(0.1 -0.1)">
       <defs>
        <path d="M 7.53125 0 
L 7.53125 6.390625 
L 31.53125 32.671875 
Q 35.765625 37.28125 38.5 40.703125 
Q 41.234375 44.140625 42.5625 47.171875 
Q 43.890625 50.21875 43.890625 53.546875 
Q 43.890625 59.296875 39.890625 62.671875 
Q 35.90625 66.046875 29.96875 66.046875 
Q 23.65625 66.046875 19.921875 62.265625 
Q 16.1875 58.484375 16.1875 52.265625 
L 7.8125 52.265625 
Q 7.8125 58.671875 10.75 63.5 
Q 13.703125 68.328125 18.796875 71.015625 
Q 23.90625 73.71875 30.25 73.71875 
Q 36.65625 73.71875 41.578125 71.015625 
Q 46.515625 68.328125 49.3125 63.734375 
Q 52.125 59.15625 52.125 53.546875 
Q 52.125 49.53125 50.6875 45.71875 
Q 49.25 41.90625 45.71875 37.234375 
Q 42.1875 32.5625 35.9375 25.859375 
L 19.609375 8.375 
L 19.609375 7.8125 
L 53.40625 7.8125 
L 53.40625 0 
z
" id="Inter-Regular-50"/>
       </defs>
       <use xlink:href="#Inter-Regular-48"/>
       <use x="62.500015" xlink:href="#Inter-Regular-46"/>
       <use x="90.056839" xlink:href="#Inter-Regular-48"/>
       <use x="152.556854" xlink:href="#Inter-Regular-50"/>
       <use x="213.068237" xlink:href="#Inter-Regular-37"/>
      </g>
     </g>
    </g>
    <g id="ytick_3">
     <g id="line2d_17">
      <path clip-path="url(#peef1c8c690)" d="M 68.575 305.541986 
L 738.175 305.541986 
" style="fill:none;stroke:#e5e5e5;stroke-linecap:square;stroke-width:0.8;"/>
     </g>
     <g id="line2d_18">
      <g>
       <use style="stroke:#000000;stroke-width:0.8;" x="68.575" xlink:href="#m7dc2c7aa5a" y="305.541986"/>
      </g>
     </g>
     <g id="text_15">
      <!-- 0.04% -->
      <g transform="translate(31.773438 309.178704)scale(0.1 -0.1)">
       <defs>
        <path d="M 5.828125 14.921875 
L 5.828125 22.15625 
L 37.78125 72.734375 
L 48.4375 72.734375 
L 48.4375 22.734375 
L 58.375 22.734375 
L 58.375 14.921875 
L 48.4375 14.921875 
L 48.4375 0 
L 40.0625 0 
L 40.0625 14.921875 
z
M 40.0625 22.734375 
L 40.0625 61.5 
L 39.484375 61.5 
L 15.34375 23.296875 
L 15.34375 22.734375 
z
" id="Inter-Regular-52"/>
       </defs>
       <use xlink:href="#Inter-Regular-48"/>
       <use x="62.500015" xlink:href="#Inter-Regular-46"/>
       <use x="90.056839" xlink:href="#Inter-Regular-48"/>
       <use x="152.556854" xlink:href="#Inter-Regular-52"/>
       <use x="216.761414" xlink:href="#Inter-Regular-37"/>
      </g>
     </g>
    </g>
    <g id="ytick_4">
     <g id="line2d_19">
      <path clip-path="url(#peef1c8c690)" d="M 68.575 219.940478 
L 738.175 219.940478 
" style="fill:none;stroke:#e5e5e5;stroke-linecap:square;stroke-width:0.8;"/>
     </g>
     <g id="line2d_20">
      <g>
       <use style="stroke:#000000;stroke-width:0.8;" x="68.575" xlink:href="#m7dc2c7aa5a" y="219.940478"/>
      </g>
     </g>
     <g id="text_16">
      <!-- 0.06% -->
      <g transform="translate(31.957813 223.577197)scale(0.1 -0.1)">
       <defs>
        <path d="M 31.671875 -1 
Q 27.203125 -0.921875 22.71875 0.703125 
Q 18.25 2.34375 14.5625 6.234375 
Q 10.875 10.125 8.625 16.78125 
Q 6.390625 23.4375 6.390625 33.515625 
Q 6.390625 52.90625 13.453125 63.375 
Q 20.53125 73.859375 32.8125 73.859375 
Q 41.96875 73.859375 48.015625 68.5 
Q 54.078125 63.140625 55.40625 54.546875 
L 46.734375 54.546875 
Q 45.53125 59.546875 42.046875 62.796875 
Q 38.5625 66.046875 32.8125 66.046875 
Q 24.359375 66.046875 19.515625 58.671875 
Q 14.671875 51.3125 14.625 37.921875 
L 15.203125 37.921875 
Q 18.1875 42.4375 22.828125 45 
Q 27.484375 47.578125 33.09375 47.578125 
Q 39.34375 47.578125 44.53125 44.46875 
Q 49.71875 41.375 52.84375 35.921875 
Q 55.96875 30.46875 55.96875 23.4375 
Q 55.96875 16.6875 52.953125 11.09375 
Q 49.9375 5.5 44.484375 2.21875 
Q 39.03125 -1.0625 31.671875 -1 
z
M 31.671875 6.8125 
Q 36.15625 6.8125 39.71875 9.046875 
Q 43.296875 11.296875 45.359375 15.0625 
Q 47.4375 18.828125 47.4375 23.4375 
Q 47.4375 27.953125 45.4375 31.65625 
Q 43.4375 35.375 39.9375 37.5625 
Q 36.4375 39.765625 31.96875 39.765625 
Q 27.453125 39.765625 23.828125 37.453125 
Q 20.203125 35.15625 18.078125 31.40625 
Q 15.953125 27.65625 15.90625 23.296875 
Q 15.90625 18.96875 17.953125 15.203125 
Q 20 11.4375 23.5625 9.125 
Q 27.125 6.8125 31.671875 6.8125 
z
" id="Inter-Regular-54"/>
       </defs>
       <use xlink:href="#Inter-Regular-48"/>
       <use x="62.500015" xlink:href="#Inter-Regular-46"/>
       <use x="90.056839" xlink:href="#Inter-Regular-48"/>
       <use x="152.556854" xlink:href="#Inter-Regular-54"/>
       <use x="214.914825" xlink:href="#Inter-Regular-37"/>
      </g>
     </g>
    </g>
    <g id="ytick_5">
     <g id="line2d_21">
      <path clip-path="url(#peef1c8c690)" d="M 68.575 134.338971 
L 738.175 134.338971 
" style="fill:none;stroke:#e5e5e5;stroke-linecap:square;stroke-width:0.8;"/>
     </g>
     <g id="line2d_22">
      <g>
       <use style="stroke:#000000;stroke-width:0.8;" x="68.575" xlink:href="#m7dc2c7aa5a" y="134.338971"/>
      </g>
     </g>
     <g id="text_17">
      <!-- 0.08% -->
      <g transform="translate(32.028125 137.97569)scale(0.1 -0.1)">
       <defs>
        <path d="M 30.828125 -1 
Q 23.515625 -1 17.921875 1.609375 
Q 12.328125 4.21875 9.203125 8.8125 
Q 6.078125 13.421875 6.109375 19.3125 
Q 6.078125 23.9375 7.921875 27.859375 
Q 9.765625 31.78125 12.96875 34.421875 
Q 16.1875 37.078125 20.171875 37.78125 
L 20.171875 38.203125 
Q 14.953125 39.5625 11.859375 44.078125 
Q 8.765625 48.609375 8.8125 54.40625 
Q 8.765625 59.9375 11.609375 64.296875 
Q 14.453125 68.671875 19.4375 71.1875 
Q 24.4375 73.71875 30.828125 73.71875 
Q 37.140625 73.71875 42.109375 71.1875 
Q 47.09375 68.671875 49.953125 64.296875 
Q 52.8125 59.9375 52.84375 54.40625 
Q 52.8125 48.609375 49.703125 44.078125 
Q 46.59375 39.5625 41.484375 38.203125 
L 41.484375 37.78125 
Q 45.421875 37.078125 48.578125 34.421875 
Q 51.734375 31.78125 53.609375 27.859375 
Q 55.5 23.9375 55.546875 19.3125 
Q 55.5 13.421875 52.359375 8.8125 
Q 49.21875 4.21875 43.65625 1.609375 
Q 38.109375 -1 30.828125 -1 
z
M 30.828125 6.8125 
Q 38.21875 6.8125 42.53125 10.34375 
Q 46.84375 13.890625 46.875 19.75 
Q 46.84375 23.859375 44.75 27.015625 
Q 42.65625 30.1875 39.046875 32 
Q 35.4375 33.8125 30.828125 33.8125 
Q 26.171875 33.8125 22.53125 32 
Q 18.890625 30.1875 16.8125 27.015625 
Q 14.734375 23.859375 14.78125 19.75 
Q 14.734375 13.890625 19.03125 10.34375 
Q 23.328125 6.8125 30.828125 6.8125 
z
M 30.828125 41.328125 
Q 36.6875 41.328125 40.484375 44.75 
Q 44.28125 48.1875 44.3125 53.828125 
Q 44.28125 59.375 40.5625 62.703125 
Q 36.859375 66.046875 30.828125 66.046875 
Q 24.71875 66.046875 21 62.703125 
Q 17.296875 59.375 17.328125 53.828125 
Q 17.296875 48.1875 21.078125 44.75 
Q 24.859375 41.328125 30.828125 41.328125 
z
" id="Inter-Regular-56"/>
       </defs>
       <use xlink:href="#Inter-Regular-48"/>
       <use x="62.500015" xlink:href="#Inter-Regular-46"/>
       <use x="90.056839" xlink:href="#Inter-Regular-48"/>
       <use x="152.556854" xlink:href="#Inter-Regular-56"/>
       <use x="214.20459" xlink:href="#Inter-Regular-37"/>
      </g>
     </g>
    </g>
    <g id="ytick_6">
     <g id="line2d_23">
      <path clip-path="url(#peef1c8c690)" d="M 68.575 48.737464 
L 738.175 48.737464 
" style="fill:none;stroke:#e5e5e5;stroke-linecap:square;stroke-width:0.8;"/>
     </g>
     <g id="line2d_24">
      <g>
       <use style="stroke:#000000;stroke-width:0.8;" x="68.575" xlink:href="#m7dc2c7aa5a" y="48.737464"/>
      </g>
     </g>
     <g id="text_18">
      <!-- 0.10% -->
      <g transform="translate(33.776563 52.374183)scale(0.1 -0.1)">
       <use xlink:href="#Inter-Regular-48"/>
       <use x="62.500015" xlink:href="#Inter-Regular-46"/>
       <use x="90.056839" xlink:href="#Inter-Regular-49"/>
       <use x="134.232986" xlink:href="#Inter-Regular-48"/>
       <use x="196.733002" xlink:href="#Inter-Regular-37"/>
      </g>
     </g>
    </g>
    <g id="text_19">
     <!-- Percent of nation tested positive (seven day average) -->
     <g transform="translate(25.614063 382.124063)rotate(-90)scale(0.1 -0.1)">
      <defs>
       <path d="M 8.8125 0 
L 8.8125 72.734375 
L 33.375 72.734375 
Q 41.9375 72.734375 47.390625 69.65625 
Q 52.84375 66.578125 55.46875 61.359375 
Q 58.09375 56.140625 58.09375 49.71875 
Q 58.09375 43.28125 55.484375 38.03125 
Q 52.875 32.78125 47.4375 29.671875 
Q 42.015625 26.5625 33.53125 26.5625 
L 17.609375 26.5625 
L 17.609375 0 
z
M 17.609375 34.375 
L 33.234375 34.375 
Q 42.015625 34.375 45.71875 38.78125 
Q 49.4375 43.1875 49.4375 49.71875 
Q 49.4375 56.28125 45.703125 60.59375 
Q 41.96875 64.921875 33.09375 64.921875 
L 17.609375 64.921875 
z
" id="Inter-Regular-80"/>
       <path d="M 31.96875 54.546875 
L 31.96875 47.4375 
L 19.75 47.4375 
L 19.75 0 
L 11.359375 0 
L 11.359375 47.4375 
L 2.5625 47.4375 
L 2.5625 54.546875 
L 11.359375 54.546875 
L 11.359375 62.078125 
Q 11.359375 66.765625 13.5625 69.890625 
Q 15.765625 73.015625 19.28125 74.578125 
Q 22.796875 76.140625 26.703125 76.140625 
Q 29.796875 76.140625 31.75 75.640625 
Q 33.703125 75.140625 34.65625 74.71875 
L 32.25 67.46875 
Q 31.609375 67.6875 30.484375 68 
Q 29.375 68.328125 27.5625 68.328125 
Q 23.40625 68.328125 21.578125 66.234375 
Q 19.75 64.140625 19.75 60.078125 
L 19.75 54.546875 
z
" id="Inter-Regular-102"/>
       <path d="M 7.671875 0 
L 7.671875 54.546875 
L 16.046875 54.546875 
L 16.046875 0 
z
M 11.9375 63.640625 
Q 9.484375 63.640625 7.71875 65.296875 
Q 5.96875 66.96875 5.96875 69.3125 
Q 5.96875 71.65625 7.71875 73.328125 
Q 9.484375 75 11.9375 75 
Q 14.390625 75 16.140625 73.328125 
Q 17.90625 71.65625 17.90625 69.3125 
Q 17.90625 66.96875 16.140625 65.296875 
Q 14.390625 63.640625 11.9375 63.640625 
z
" id="Inter-Regular-105"/>
       <path d="M 46.3125 42.328125 
L 38.78125 40.203125 
Q 37.671875 43.046875 35.078125 45.53125 
Q 32.5 48.015625 26.984375 48.015625 
Q 21.984375 48.015625 18.65625 45.71875 
Q 15.34375 43.4375 15.34375 39.921875 
Q 15.34375 36.796875 17.609375 34.984375 
Q 19.890625 33.171875 24.71875 31.953125 
L 32.8125 29.96875 
Q 47.296875 26.421875 47.296875 15.203125 
Q 47.296875 10.515625 44.609375 6.8125 
Q 41.9375 3.125 37.140625 0.984375 
Q 32.359375 -1.140625 26 -1.140625 
Q 17.65625 -1.140625 12.1875 2.484375 
Q 6.71875 6.109375 5.25 13.0625 
L 13.21875 15.0625 
Q 15.453125 6.25 25.859375 6.25 
Q 31.71875 6.25 35.171875 8.75 
Q 38.640625 11.25 38.640625 14.765625 
Q 38.640625 20.5625 30.546875 22.4375 
L 21.453125 24.578125 
Q 13.953125 26.34375 10.453125 30.09375 
Q 6.96875 33.84375 6.96875 39.484375 
Q 6.96875 44.109375 9.578125 47.65625 
Q 12.1875 51.203125 16.703125 53.21875 
Q 21.234375 55.25 26.984375 55.25 
Q 35.09375 55.25 39.71875 51.703125 
Q 44.359375 48.15625 46.3125 42.328125 
z
" id="Inter-Regular-115"/>
       <path d="M 28.265625 -1.140625 
Q 21.453125 -1.140625 16.234375 2.3125 
Q 11.015625 5.78125 8.0625 12.125 
Q 5.109375 18.46875 5.109375 27.125 
Q 5.109375 35.71875 8.0625 42.03125 
Q 11.015625 48.359375 16.265625 51.796875 
Q 21.515625 55.25 28.40625 55.25 
Q 33.734375 55.25 36.84375 53.484375 
Q 39.953125 51.734375 41.59375 49.515625 
Q 43.25 47.296875 44.171875 45.875 
L 44.890625 45.875 
L 44.890625 72.734375 
L 53.265625 72.734375 
L 53.265625 0 
L 45.171875 0 
L 45.171875 8.375 
L 44.171875 8.375 
Q 43.25 6.890625 41.546875 4.625 
Q 39.84375 2.375 36.6875 0.609375 
Q 33.53125 -1.140625 28.265625 -1.140625 
z
M 29.40625 6.390625 
Q 36.96875 6.390625 41 12.1875 
Q 45.03125 18 45.03125 27.265625 
Q 45.03125 36.4375 41.046875 42.078125 
Q 37.078125 47.734375 29.40625 47.734375 
Q 24.078125 47.734375 20.546875 45.015625 
Q 17.015625 42.296875 15.25 37.65625 
Q 13.5 33.03125 13.5 27.265625 
Q 13.5 21.453125 15.28125 16.703125 
Q 17.078125 11.96875 20.609375 9.171875 
Q 24.15625 6.390625 29.40625 6.390625 
z
" id="Inter-Regular-100"/>
       <path d="M 10.65625 30.6875 
Q 10.65625 44.109375 14.15625 55.375 
Q 17.65625 66.65625 24.15625 76.140625 
L 31.53125 76.140625 
Q 28.125 71.453125 25.359375 63.984375 
Q 22.59375 56.53125 20.953125 47.828125 
Q 19.3125 39.140625 19.3125 30.6875 
Q 19.3125 22.234375 20.953125 13.53125 
Q 22.59375 4.828125 25.359375 -2.625 
Q 28.125 -10.078125 31.53125 -14.765625 
L 24.15625 -14.765625 
Q 17.65625 -5.296875 14.15625 5.984375 
Q 10.65625 17.265625 10.65625 30.6875 
z
" id="Inter-Regular-40"/>
       <path d="M 25.59375 30.3125 
Q 25.59375 16.890625 22.09375 5.609375 
Q 18.609375 -5.65625 12.109375 -15.140625 
L 4.71875 -15.140625 
Q 8.125 -10.453125 10.890625 -2.984375 
Q 13.671875 4.46875 15.296875 13.15625 
Q 16.9375 21.859375 16.9375 30.3125 
Q 16.9375 38.765625 15.296875 47.46875 
Q 13.671875 56.171875 10.890625 63.625 
Q 8.125 71.078125 4.71875 75.765625 
L 12.109375 75.765625 
Q 18.609375 66.296875 22.09375 55.015625 
Q 25.59375 43.734375 25.59375 30.3125 
z
" id="Inter-Regular-41"/>
      </defs>
      <use xlink:href="#Inter-Regular-80"/>
      <use x="63.494324" xlink:href="#Inter-Regular-101"/>
      <use x="121.732971" xlink:href="#Inter-Regular-114"/>
      <use x="160.085251" xlink:href="#Inter-Regular-99"/>
      <use x="215.909119" xlink:href="#Inter-Regular-101"/>
      <use x="274.147766" xlink:href="#Inter-Regular-110"/>
      <use x="332.670502" xlink:href="#Inter-Regular-116"/>
      <use x="369.034149" xlink:href="#Inter-Regular-32"/>
      <use x="397.159149" xlink:href="#Inter-Regular-111"/>
      <use x="456.818253" xlink:href="#Inter-Regular-102"/>
      <use x="492.897797" xlink:href="#Inter-Regular-32"/>
      <use x="521.022797" xlink:href="#Inter-Regular-110"/>
      <use x="579.545532" xlink:href="#Inter-Regular-97"/>
      <use x="635.937592" xlink:href="#Inter-Regular-116"/>
      <use x="672.301239" xlink:href="#Inter-Regular-105"/>
      <use x="696.022827" xlink:href="#Inter-Regular-111"/>
      <use x="755.681931" xlink:href="#Inter-Regular-110"/>
      <use x="814.204666" xlink:href="#Inter-Regular-32"/>
      <use x="842.329666" xlink:href="#Inter-Regular-116"/>
      <use x="878.693314" xlink:href="#Inter-Regular-101"/>
      <use x="936.931961" xlink:href="#Inter-Regular-115"/>
      <use x="989.204697" xlink:href="#Inter-Regular-116"/>
      <use x="1025.568344" xlink:href="#Inter-Regular-101"/>
      <use x="1083.806992" xlink:href="#Inter-Regular-100"/>
      <use x="1145.880875" xlink:href="#Inter-Regular-32"/>
      <use x="1174.005875" xlink:href="#Inter-Regular-112"/>
      <use x="1234.94339" xlink:href="#Inter-Regular-111"/>
      <use x="1294.602493" xlink:href="#Inter-Regular-115"/>
      <use x="1346.875229" xlink:href="#Inter-Regular-105"/>
      <use x="1370.596817" xlink:href="#Inter-Regular-116"/>
      <use x="1406.960464" xlink:href="#Inter-Regular-105"/>
      <use x="1430.682053" xlink:href="#Inter-Regular-118"/>
      <use x="1486.363876" xlink:href="#Inter-Regular-101"/>
      <use x="1544.602524" xlink:href="#Inter-Regular-32"/>
      <use x="1572.727524" xlink:href="#Inter-Regular-40"/>
      <use x="1608.949112" xlink:href="#Inter-Regular-115"/>
      <use x="1661.221848" xlink:href="#Inter-Regular-101"/>
      <use x="1719.460495" xlink:href="#Inter-Regular-118"/>
      <use x="1775.142319" xlink:href="#Inter-Regular-101"/>
      <use x="1833.380966" xlink:href="#Inter-Regular-110"/>
      <use x="1891.903702" xlink:href="#Inter-Regular-32"/>
      <use x="1920.028702" xlink:href="#Inter-Regular-100"/>
      <use x="1982.102585" xlink:href="#Inter-Regular-97"/>
      <use x="2038.494644" xlink:href="#Inter-Regular-121"/>
      <use x="2094.176468" xlink:href="#Inter-Regular-32"/>
      <use x="2122.301468" xlink:href="#Inter-Regular-97"/>
      <use x="2178.693527" xlink:href="#Inter-Regular-118"/>
      <use x="2234.375351" xlink:href="#Inter-Regular-101"/>
      <use x="2292.613998" xlink:href="#Inter-Regular-114"/>
      <use x="2330.966278" xlink:href="#Inter-Regular-97"/>
      <use x="2387.358337" xlink:href="#Inter-Regular-103"/>
      <use x="2448.295853" xlink:href="#Inter-Regular-101"/>
      <use x="2506.5345" xlink:href="#Inter-Regular-41"/>
     </g>
    </g>
   </g>
   <g id="line2d_25">
    <path clip-path="url(#peef1c8c690)" d="M 8.699122 476.729792 
L 70.50648 476.647234 
L 84.02684 476.253997 
L 85.958319 476.066069 
L 95.615719 474.330178 
L 99.478679 473.381848 
L 105.273119 471.474323 
L 109.136079 469.814473 
L 112.999039 466.747878 
L 114.930519 465.282473 
L 118.793478 461.747687 
L 124.587918 457.32323 
L 128.450878 453.389776 
L 132.313838 450.2504 
L 134.245318 449.157592 
L 136.176798 448.463453 
L 140.039758 446.688456 
L 141.971238 446.500528 
L 143.902718 446.517909 
L 145.834198 447.06214 
L 147.765678 447.399976 
L 149.697157 447.548798 
L 153.560117 449.677925 
L 155.491597 449.765914 
L 157.423077 449.445459 
L 159.354557 448.914263 
L 161.286037 447.769314 
L 163.217517 447.188149 
L 165.148997 446.922009 
L 167.080477 446.445127 
L 169.011957 445.805303 
L 172.874917 445.271935 
L 174.806397 446.079048 
L 176.737877 446.452732 
L 178.669357 446.076875 
L 180.600837 445.926967 
L 182.532316 446.008439 
L 186.395276 446.56136 
L 188.326756 447.241378 
L 190.258236 447.788868 
L 192.189716 449.078293 
L 194.121196 450.139598 
L 196.052676 451.729926 
L 197.984156 452.935707 
L 199.915636 454.532553 
L 201.847116 455.571045 
L 203.778596 456.244545 
L 205.710076 455.999043 
L 207.641556 456.235855 
L 209.573036 456.654076 
L 211.504516 457.730589 
L 213.435995 458.260698 
L 215.367475 458.280251 
L 217.298955 458.738666 
L 219.230435 459.66527 
L 221.161915 460.025919 
L 223.093395 460.607083 
L 225.024875 460.536475 
L 226.956355 460.901468 
L 230.819315 461.836763 
L 232.750795 462.742729 
L 234.682275 463.975667 
L 238.545235 465.537751 
L 240.476715 465.998338 
L 244.339675 466.558864 
L 248.202634 466.743533 
L 257.860034 468.636935 
L 261.722994 469.309348 
L 267.517434 469.829681 
L 273.311874 469.722138 
L 275.243354 469.792747 
L 277.174833 469.977417 
L 279.106313 469.945914 
L 286.832233 470.607464 
L 292.626673 471.427613 
L 302.284073 472.227122 
L 310.009992 472.697485 
L 311.941472 472.55844 
L 317.735912 472.504126 
L 319.667392 472.370512 
L 323.530352 472.348786 
L 325.461832 472.550836 
L 344.776631 472.117407 
L 358.296991 471.297258 
L 360.228471 471.164731 
L 364.091431 471.259238 
L 366.022911 471.262497 
L 369.885871 470.973544 
L 371.817351 471.007219 
L 373.74883 470.872519 
L 377.61179 470.454298 
L 379.54327 470.405415 
L 381.47475 469.955691 
L 383.40623 469.638494 
L 385.33771 469.470119 
L 387.26919 469.427754 
L 389.20067 469.241999 
L 393.06363 469.264811 
L 396.92659 469.807955 
L 398.85807 469.836199 
L 400.78955 469.615682 
L 404.65251 469.573317 
L 406.583989 469.391906 
L 408.515469 469.399511 
L 414.309909 469.068192 
L 418.172869 468.306703 
L 420.104349 467.999283 
L 422.035829 467.859152 
L 423.967309 466.915166 
L 425.898789 465.306372 
L 427.830269 463.848571 
L 431.693229 461.283842 
L 433.624709 460.10739 
L 435.556189 457.713208 
L 437.487668 456.541102 
L 439.419148 456.287996 
L 441.350628 455.814374 
L 443.282108 455.526508 
L 445.213588 455.501523 
L 447.145068 455.879552 
L 449.076548 456.492219 
L 451.008028 456.449854 
L 454.870988 454.561882 
L 456.802468 453.02261 
L 458.733948 450.885879 
L 460.665428 447.720431 
L 462.596908 445.764024 
L 464.528388 443.244919 
L 466.459868 440.917 
L 468.391348 438.360961 
L 470.322827 436.433884 
L 474.185787 433.312974 
L 476.117267 429.097084 
L 478.048747 425.447152 
L 479.980227 420.42089 
L 481.911707 414.974235 
L 483.843187 408.967054 
L 487.706147 400.428819 
L 491.569107 388.438355 
L 493.500587 383.352348 
L 495.432067 379.046297 
L 497.363547 377.489644 
L 499.295027 377.005159 
L 501.226506 377.189828 
L 503.157986 374.842356 
L 507.020946 372.227657 
L 508.952426 372.254815 
L 510.883906 370.573239 
L 514.746866 365.793565 
L 518.609826 352.97209 
L 520.541306 347.486328 
L 522.472786 342.735984 
L 524.404266 338.86119 
L 526.335746 337.600008 
L 528.267226 336.176968 
L 530.198706 335.475225 
L 532.130186 336.385536 
L 534.061665 337.759692 
L 535.993145 337.365369 
L 537.924625 335.706605 
L 539.856105 334.796295 
L 541.787585 334.575778 
L 543.719065 328.965093 
L 545.650545 326.998909 
L 547.582025 326.505733 
L 549.513505 325.536763 
L 551.444985 324.262545 
L 553.376465 321.8021 
L 555.307945 316.811686 
L 557.239425 316.623758 
L 559.170905 314.270855 
L 561.102385 309.975666 
L 563.033865 308.790524 
L 564.965345 307.887818 
L 566.896824 308.52547 
L 568.828304 312.587106 
L 572.691264 321.822739 
L 576.554224 335.81632 
L 578.485704 343.382327 
L 580.417184 349.274361 
L 582.348664 353.817223 
L 584.280144 361.990465 
L 586.211624 368.854729 
L 588.143104 373.530119 
L 590.074584 377.041006 
L 592.006064 379.66005 
L 593.937544 381.192805 
L 597.800503 383.67389 
L 601.663463 384.747144 
L 603.594943 384.460363 
L 605.526423 383.778174 
L 607.457903 382.71361 
L 609.389383 380.559498 
L 611.320863 377.989337 
L 613.252343 374.545799 
L 615.183823 370.139809 
L 617.115303 363.591656 
L 619.046783 356.014787 
L 620.978263 349.650217 
L 622.909743 341.791999 
L 626.772703 315.137714 
L 628.704183 301.430913 
L 630.635662 289.446968 
L 632.567142 276.458204 
L 634.498622 270.264182 
L 636.430102 258.510529 
L 638.361582 244.287741 
L 640.293062 231.466266 
L 642.224542 223.227847 
L 644.156022 224.181609 
L 646.087502 245.003606 
L 648.018982 228.766837 
L 649.950462 214.094325 
L 651.881942 216.899124 
L 653.813422 182.569118 
L 655.744902 155.188105 
L 657.676382 135.679432 
L 659.607862 118.795235 
L 661.539341 99.779738 
L 663.470821 92.089894 
L 665.402301 60.491906 
L 667.333781 76.167063 
L 669.265261 88.728915 
L 671.196741 88.520347 
L 673.128221 73.142833 
L 675.059701 93.510761 
L 678.922661 130.131752 
L 680.854141 144.640234 
L 682.785621 155.661727 
L 684.717101 164.679016 
L 686.648581 170.716613 
L 688.580061 179.157083 
L 690.511541 186.358096 
L 692.443021 198.628822 
L 694.3745 208.086058 
L 698.23746 228.881984 
L 700.16894 239.5689 
L 702.10042 247.999592 
L 704.0319 259.658737 
L 705.96338 274.440965 
L 707.89486 286.971314 
L 709.82634 296.233018 
L 713.6893 311.647466 
L 715.62078 316.984406 
L 717.55226 318.879981 
L 721.41522 333.931608 
L 725.27818 346.623814 
L 725.27818 346.623814 
" style="fill:none;stroke:#5694ca;stroke-linecap:square;stroke-width:2;"/>
   </g>
   <g id="line2d_26">
    <path clip-path="url(#peef1c8c690)" d="M 16.425042 476.745 
L 76.30092 476.680423 
L 80.16388 476.454402 
L 85.958319 476.099227 
L 87.889799 475.744052 
L 89.821279 475.679475 
L 91.752759 475.388877 
L 93.684239 475.227434 
L 95.615719 475.259723 
L 99.478679 474.969125 
L 101.410159 474.904547 
L 103.341639 474.581661 
L 105.273119 474.387929 
L 107.204599 474.065043 
L 109.136079 473.548425 
L 112.999039 471.449663 
L 114.930519 470.061251 
L 116.861998 468.059356 
L 118.793478 466.444924 
L 120.724958 464.63676 
L 124.587918 461.827648 
L 126.519398 459.535154 
L 128.450878 458.049877 
L 130.382358 457.113506 
L 132.313838 455.983404 
L 134.245318 455.628229 
L 136.176798 455.692806 
L 138.108278 455.014745 
L 140.039758 454.465838 
L 141.971238 454.465838 
L 145.834198 454.917879 
L 147.765678 455.563652 
L 149.697157 455.143899 
L 151.628637 455.079322 
L 153.560117 456.177136 
L 155.491597 455.176188 
L 157.423077 453.916931 
L 159.354557 451.947324 
L 161.286037 451.366128 
L 163.217517 452.399365 
L 165.148997 452.237922 
L 167.080477 451.07553 
L 169.011957 452.27021 
L 170.943437 454.401261 
L 172.874917 456.726043 
L 174.806397 457.791568 
L 176.737877 457.694702 
L 178.669357 459.018536 
L 180.600837 460.858989 
L 182.532316 461.020432 
L 184.463796 459.63202 
L 186.395276 459.179979 
L 188.326756 457.953011 
L 190.258236 457.630125 
L 192.189716 457.533259 
L 194.121196 457.565547 
L 196.052676 457.920722 
L 197.984156 458.501918 
L 199.915636 459.309134 
L 201.847116 460.471525 
L 203.778596 460.245505 
L 205.710076 460.213216 
L 207.641556 459.63202 
L 209.573036 459.793464 
L 211.504516 460.536102 
L 213.435995 460.729834 
L 215.367475 461.181875 
L 217.298955 461.989091 
L 219.230435 462.408843 
L 221.161915 463.022328 
L 223.093395 463.054616 
L 225.024875 463.635812 
L 226.956355 464.701337 
L 228.887835 464.249296 
L 230.819315 464.443028 
L 232.750795 465.185667 
L 236.613755 467.96249 
L 238.545235 468.866572 
L 240.476715 469.286324 
L 242.408195 470.610158 
L 244.339675 470.739313 
L 246.271154 471.223642 
L 248.202634 471.417374 
L 250.134114 472.127724 
L 252.065594 472.676631 
L 253.997074 472.547477 
L 255.928554 472.70892 
L 257.860034 473.386981 
L 261.722994 474.032754 
L 263.654474 473.871311 
L 265.585954 473.9036 
L 267.517434 474.355641 
L 271.380394 474.194197 
L 273.311874 474.032754 
L 275.243354 474.032754 
L 277.174833 474.387929 
L 279.106313 474.484795 
L 281.037793 474.420218 
L 284.900753 474.743104 
L 286.832233 475.227434 
L 296.489633 475.744052 
L 300.352593 475.679475 
L 302.284073 475.873207 
L 313.872952 475.840918 
L 319.667392 475.614898 
L 321.598872 475.744052 
L 325.461832 475.518032 
L 327.393312 475.679475 
L 329.324792 475.614898 
L 331.256272 475.3243 
L 333.187752 474.872259 
L 337.050712 474.710816 
L 340.913671 474.743104 
L 342.845151 474.581661 
L 346.708111 475.033702 
L 348.639591 474.83997 
L 352.502551 475.001413 
L 354.434031 474.710816 
L 364.091431 474.484795 
L 367.954391 474.032754 
L 369.885871 473.9036 
L 371.817351 473.322404 
L 373.74883 473.096384 
L 375.68031 472.999518 
L 379.54327 471.933993 
L 381.47475 471.094488 
L 383.40623 470.416426 
L 385.33771 470.09354 
L 387.26919 468.995726 
L 389.20067 467.671892 
L 393.06363 467.994778 
L 394.99511 467.704181 
L 398.85807 467.47816 
L 404.65251 465.443976 
L 406.583989 464.410739 
L 408.515469 464.669048 
L 410.446949 463.958698 
L 412.378429 462.990039 
L 416.241389 462.570287 
L 418.172869 462.537998 
L 420.104349 463.086905 
L 422.035829 462.796307 
L 423.967309 462.796307 
L 425.898789 462.182823 
L 427.830269 461.278741 
L 431.693229 458.340475 
L 433.624709 456.112558 
L 435.556189 455.531363 
L 437.487668 455.821961 
L 439.419148 455.563652 
L 441.350628 456.435445 
L 443.282108 458.275897 
L 445.213588 457.759279 
L 447.145068 458.179031 
L 451.008028 455.014745 
L 452.939508 453.884642 
L 456.802468 447.943532 
L 458.733948 446.167657 
L 460.665428 445.102132 
L 462.596908 444.585514 
L 464.528388 442.551329 
L 466.459868 439.774506 
L 468.391348 436.061312 
L 470.322827 433.607376 
L 472.254307 430.152491 
L 474.185787 425.373772 
L 476.117267 420.175301 
L 478.048747 413.104089 
L 479.980227 399.413705 
L 481.911707 393.020554 
L 483.843187 378.361511 
L 487.706147 355.82404 
L 493.500587 316.399609 
L 495.432067 300.190712 
L 497.363547 295.508859 
L 499.295027 289.729192 
L 501.226506 282.690268 
L 503.157986 269.903967 
L 505.089466 260.830858 
L 507.020946 259.797622 
L 510.883906 251.53173 
L 512.815386 250.240184 
L 514.746866 251.53173 
L 516.678346 253.630492 
L 518.609826 254.340842 
L 520.541306 252.72641 
L 522.472786 253.727357 
L 524.404266 256.536469 
L 526.335746 259.765333 
L 528.267226 263.349372 
L 530.198706 268.224957 
L 532.130186 276.038808 
L 534.061665 287.662719 
L 535.993145 300.093846 
L 537.924625 306.357842 
L 541.787585 320.693999 
L 543.719065 326.925706 
L 547.582025 337.516381 
L 549.513505 341.746192 
L 551.444985 348.333075 
L 553.376465 350.205816 
L 555.307945 351.561939 
L 557.239425 353.176371 
L 559.170905 351.820248 
L 561.102385 351.30363 
L 564.965345 352.110846 
L 566.896824 353.240949 
L 568.828304 354.855381 
L 570.759784 357.051008 
L 572.691264 361.087088 
L 574.622744 366.576157 
L 576.554224 373.066174 
L 578.485704 376.359616 
L 580.417184 380.52485 
L 582.348664 383.721426 
L 584.280144 390.308308 
L 586.211624 397.799273 
L 588.143104 398.477335 
L 590.074584 398.897087 
L 592.006064 400.220921 
L 593.937544 398.606489 
L 595.869024 399.155396 
L 597.800503 394.957873 
L 599.731983 393.052843 
L 601.663463 393.181997 
L 603.594943 388.015815 
L 605.526423 384.722373 
L 607.457903 382.946498 
L 609.389383 379.362459 
L 611.320863 380.557139 
L 613.252343 378.296934 
L 615.183823 376.9731 
L 617.115303 376.843945 
L 619.046783 374.002545 
L 620.978263 375.197224 
L 622.909743 374.163988 
L 624.841223 370.999701 
L 626.772703 368.804074 
L 628.704183 363.573314 
L 630.635662 360.247584 
L 632.567142 359.698677 
L 634.498622 355.694885 
L 636.430102 352.821196 
L 638.361582 347.816457 
L 642.224542 335.643639 
L 644.156022 334.965578 
L 646.087502 341.32644 
L 648.018982 333.803187 
L 649.950462 314.365425 
L 651.881942 292.699747 
L 653.813422 241.489963 
L 655.744902 195.510938 
L 657.676382 160.025722 
L 659.607862 130.707636 
L 661.539341 91.606092 
L 663.470821 74.170226 
L 665.402301 54.345 
L 669.265261 99.258499 
L 671.196741 114.853913 
L 673.128221 115.176799 
L 675.059701 145.172947 
L 678.922661 193.218444 
L 680.854141 209.459631 
L 682.785621 224.603003 
L 684.717101 235.064523 
L 686.648581 247.657093 
L 688.580061 257.537417 
L 690.511541 266.223061 
L 692.443021 277.588663 
L 694.3745 285.854555 
L 696.30598 294.733931 
L 698.23746 299.867825 
L 702.10042 314.559157 
L 704.0319 319.886783 
L 705.96338 328.959891 
L 707.89486 336.289412 
L 709.82634 341.649327 
L 711.75782 349.301734 
L 713.6893 352.01398 
L 715.62078 354.274185 
L 717.55226 355.888617 
L 719.48374 359.246636 
L 721.41522 364.994014 
L 723.3467 369.191537 
L 725.27818 372.840154 
L 725.27818 372.840154 
" style="fill:none;stroke:#ffdd00;stroke-linecap:square;stroke-width:2;"/>
   </g>
   <g id="line2d_27">
    <path clip-path="url(#peef1c8c690)" d="M 64.71204 476.666658 
L 68.575 476.666658 
L 76.30092 476.577124 
L 84.02684 476.274946 
L 87.889799 475.849659 
L 91.752759 474.976702 
L 95.615719 474.730483 
L 97.547199 474.674525 
L 101.410159 474.26043 
L 103.341639 474.13732 
L 105.273119 473.745609 
L 107.204599 473.219596 
L 109.136079 472.514515 
L 112.999039 469.80611 
L 114.930519 468.160921 
L 116.861998 466.213555 
L 118.793478 464.075929 
L 120.724958 462.520275 
L 122.656438 461.154881 
L 128.450878 454.954646 
L 130.382358 453.522101 
L 132.313838 452.346967 
L 134.245318 451.742612 
L 136.176798 451.429242 
L 138.108278 450.489135 
L 140.039758 450.366025 
L 145.834198 451.955255 
L 147.765678 452.783445 
L 149.697157 452.839404 
L 151.628637 453.343033 
L 155.491597 453.533293 
L 157.423077 452.156707 
L 159.354557 451.429242 
L 161.286037 450.545094 
L 163.217517 451.227791 
L 165.148997 446.560828 
L 167.080477 445.967664 
L 169.011957 445.866939 
L 170.943437 447.131607 
L 174.806397 449.023014 
L 176.737877 448.877522 
L 178.669357 452.74987 
L 180.600837 452.962513 
L 182.532316 451.955255 
L 184.463796 451.720228 
L 186.395276 451.015147 
L 188.326756 450.645819 
L 190.258236 450.455559 
L 194.121196 452.593185 
L 196.052676 453.980963 
L 197.984156 454.484593 
L 199.915636 455.760453 
L 203.778596 456.644602 
L 207.641556 458.065955 
L 209.573036 459.274665 
L 211.504516 460.147622 
L 213.435995 461.289182 
L 215.367475 462.117372 
L 217.298955 462.766494 
L 219.230435 464.131888 
L 221.161915 464.669093 
L 223.093395 465.530858 
L 225.024875 466.661226 
L 228.887835 467.925894 
L 232.750795 468.832427 
L 234.682275 470.007561 
L 240.476715 471.954927 
L 242.408195 472.066845 
L 244.339675 472.413789 
L 246.271154 473.074103 
L 250.134114 473.779184 
L 252.065594 474.003019 
L 253.997074 474.058978 
L 255.928554 474.26043 
L 257.860034 474.32758 
L 261.722994 474.752867 
L 267.517434 474.909552 
L 273.311874 474.909552 
L 275.243354 475.021469 
L 277.174833 474.976702 
L 281.037793 475.133387 
L 282.969273 475.323647 
L 288.763713 475.446756 
L 290.695193 475.72655 
L 292.626673 475.670591 
L 294.558153 475.860851 
L 321.598872 476.118262 
L 337.050712 475.771317 
L 338.982192 475.603441 
L 340.913671 475.648208 
L 344.776631 475.547482 
L 348.639591 475.491523 
L 352.502551 475.715358 
L 356.365511 475.681783 
L 360.228471 475.502715 
L 362.159951 475.390797 
L 366.022911 475.032661 
L 367.954391 474.484265 
L 375.68031 472.939802 
L 383.40623 472.794309 
L 385.33771 472.995761 
L 387.26919 473.062911 
L 389.20067 473.018144 
L 391.13215 473.096487 
L 394.99511 472.839076 
L 396.92659 472.6712 
L 398.85807 472.178763 
L 400.78955 471.261038 
L 404.65251 470.455232 
L 406.583989 470.074712 
L 408.515469 470.25378 
L 410.446949 470.320931 
L 412.378429 470.264972 
L 414.309909 470.757409 
L 416.241389 470.600725 
L 420.104349 469.727767 
L 422.035829 468.78766 
L 423.967309 467.366306 
L 427.830269 465.139147 
L 429.761749 464.411682 
L 435.556189 463.079863 
L 437.487668 464.154272 
L 441.350628 463.482766 
L 443.282108 462.967945 
L 445.213588 462.10618 
L 449.076548 461.624934 
L 451.008028 460.114047 
L 452.939508 459.476117 
L 454.870988 459.095597 
L 456.802468 458.491242 
L 458.733948 458.245023 
L 460.665428 456.655794 
L 466.459868 447.489744 
L 468.391348 442.44226 
L 470.322827 439.017582 
L 472.254307 436.768039 
L 474.185787 436.33156 
L 478.048747 432.582321 
L 479.980227 430.108943 
L 481.911707 429.426245 
L 483.843187 426.71784 
L 485.774667 423.752024 
L 487.706147 419.443197 
L 489.637627 414.138303 
L 491.569107 408.19548 
L 493.500587 403.080846 
L 495.432067 398.671293 
L 497.363547 395.559985 
L 499.295027 392.873962 
L 501.226506 390.467734 
L 503.157986 387.535494 
L 505.089466 384.950198 
L 507.020946 384.502527 
L 508.952426 383.125941 
L 510.883906 381.391218 
L 512.815386 382.286559 
L 514.746866 383.752679 
L 516.678346 383.81983 
L 518.609826 380.898781 
L 520.541306 377.653171 
L 522.472786 375.314094 
L 524.404266 374.91119 
L 526.335746 373.881548 
L 528.267226 372.639263 
L 530.198706 372.751181 
L 532.130186 376.959282 
L 534.061665 380.451111 
L 535.993145 384.983773 
L 537.924625 387.009481 
L 539.856105 389.348559 
L 541.787585 388.956847 
L 543.719065 387.468343 
L 545.650545 386.528235 
L 547.582025 386.136524 
L 549.513505 383.942939 
L 551.444985 383.551228 
L 553.376465 382.443244 
L 555.307945 383.517652 
L 557.239425 385.565744 
L 559.170905 386.707304 
L 561.102385 387.300467 
L 563.033865 388.397259 
L 564.965345 389.281408 
L 566.896824 388.442026 
L 568.828304 389.180682 
L 570.759784 389.404517 
L 572.691264 390.131982 
L 574.622744 391.642869 
L 576.554224 394.049097 
L 578.485704 396.265065 
L 580.417184 398.01098 
L 584.280144 400.49555 
L 586.211624 403.125613 
L 590.074584 407.199413 
L 592.006064 408.620767 
L 593.937544 410.758392 
L 595.869024 412.470731 
L 597.800503 414.552399 
L 599.731983 415.291055 
L 601.663463 415.089603 
L 603.594943 415.022452 
L 605.526423 416.040902 
L 609.389383 413.981619 
L 611.320863 414.205454 
L 613.252343 412.896018 
L 615.183823 412.358814 
L 617.115303 411.373939 
L 619.046783 408.844602 
L 620.978263 408.631958 
L 622.909743 407.770193 
L 624.841223 406.102621 
L 626.772703 406.147388 
L 628.704183 405.531841 
L 630.635662 405.33039 
L 632.567142 404.681268 
L 634.498622 403.864269 
L 636.430102 402.72271 
L 638.361582 400.249331 
L 640.293062 396.936571 
L 642.224542 393.881221 
L 644.156022 392.672511 
L 646.087502 397.24994 
L 648.018982 393.870029 
L 649.950462 384.01009 
L 651.881942 378.391827 
L 653.813422 358.067594 
L 655.744902 339.612384 
L 657.676382 324.425168 
L 659.607862 317.195292 
L 661.539341 304.201661 
L 663.470821 298.40433 
L 665.402301 292.125753 
L 667.333781 293.110628 
L 669.265261 297.732824 
L 671.196741 299.68019 
L 673.128221 292.136945 
L 675.059701 300.217395 
L 676.991181 309.070076 
L 678.922661 312.192576 
L 680.854141 324.190141 
L 682.785621 333.691944 
L 684.717101 340.171972 
L 686.648581 343.384007 
L 688.580061 346.987753 
L 690.511541 349.617816 
L 692.443021 353.747575 
L 694.3745 358.571223 
L 696.30598 359.959001 
L 698.23746 364.245444 
L 700.16894 367.71489 
L 702.10042 370.38972 
L 704.0319 374.116575 
L 705.96338 378.79473 
L 707.89486 383.103557 
L 709.82634 388.397259 
L 711.75782 389.762654 
L 713.6893 392.907538 
L 715.62078 394.653452 
L 717.55226 395.302574 
L 719.48374 397.775953 
L 721.41522 399.309224 
L 723.3467 401.424466 
L 725.27818 403.909036 
L 725.27818 403.909036 
" style="fill:none;stroke:#003078;stroke-linecap:square;stroke-width:2;"/>
   </g>
   <g id="line2d_28">
    <path clip-path="url(#peef1c8c690)" d="M 62.78056 476.609249 
L 68.575 476.711062 
L 82.09536 476.667428 
L 84.02684 476.609249 
L 87.889799 476.105029 
L 95.615719 474.146332 
L 97.547199 473.486968 
L 101.410159 472.594888 
L 103.341639 471.916131 
L 105.273119 471.043444 
L 107.204599 469.957433 
L 109.136079 469.104139 
L 111.067559 467.242406 
L 112.999039 465.22553 
L 114.930519 462.239 
L 118.793478 457.642848 
L 120.724958 455.858687 
L 122.656438 454.249064 
L 124.587918 450.176524 
L 128.450878 444.882222 
L 130.382358 441.798728 
L 132.313838 439.14188 
L 134.245318 436.911679 
L 136.176798 435.670524 
L 138.108278 434.894802 
L 140.039758 432.78096 
L 143.902718 430.570153 
L 145.834198 430.9968 
L 147.765678 431.675557 
L 149.697157 431.210123 
L 151.628637 433.343359 
L 153.560117 434.681479 
L 157.423077 435.70931 
L 159.354557 435.399022 
L 161.286037 435.399022 
L 163.217517 436.678963 
L 165.148997 436.523818 
L 167.080477 437.648615 
L 169.011957 439.743064 
L 170.943437 442.884738 
L 174.806397 447.189995 
L 176.737877 448.353578 
L 180.600837 452.523083 
L 182.532316 454.016348 
L 184.463796 454.035741 
L 186.395276 454.753284 
L 188.326756 453.919383 
L 190.258236 454.229671 
L 192.189716 454.869642 
L 194.121196 454.442995 
L 196.052676 454.53996 
L 197.984156 455.005393 
L 199.915636 456.188369 
L 201.847116 457.02227 
L 203.778596 456.983484 
L 205.710076 456.227155 
L 207.641556 456.711981 
L 209.573036 457.061056 
L 211.504516 457.91435 
L 213.435995 456.673195 
L 215.367475 456.091404 
L 217.298955 455.87808 
L 219.230435 456.072011 
L 221.161915 454.850249 
L 223.093395 454.598139 
L 225.024875 454.598139 
L 230.819315 456.964091 
L 232.750795 458.185853 
L 234.682275 460.338481 
L 236.613755 461.269348 
L 240.476715 462.452324 
L 242.408195 463.460762 
L 250.134114 466.350326 
L 252.065594 467.164834 
L 253.997074 468.15388 
L 257.860034 468.716278 
L 259.791514 468.522348 
L 263.654474 468.890816 
L 265.585954 468.774457 
L 271.380394 467.669054 
L 273.311874 467.824198 
L 275.243354 467.436337 
L 279.106313 467.572088 
L 281.037793 466.31154 
L 282.969273 466.75758 
L 284.900753 466.330933 
L 286.832233 466.330933 
L 288.763713 465.380674 
L 290.695193 465.904286 
L 292.626673 465.943072 
L 294.558153 468.289631 
L 296.489633 466.486078 
L 298.421113 467.416944 
L 300.352593 467.862984 
L 302.284073 469.724717 
L 304.215553 469.918647 
L 306.147033 470.539225 
L 308.078513 470.539225 
L 310.009992 473.079714 
L 311.941472 473.390003 
L 319.667392 474.029973 
L 321.598872 473.836043 
L 325.461832 473.81665 
L 329.324792 474.146332 
L 333.187752 474.01058 
L 335.119232 474.243297 
L 338.982192 474.26269 
L 340.913671 473.894222 
L 342.845151 473.157286 
L 348.639591 472.653067 
L 350.571071 472.400957 
L 352.502551 471.916131 
L 354.434031 472.303992 
L 356.365511 472.963356 
L 360.228471 472.943963 
L 362.159951 473.215465 
L 364.091431 473.37061 
L 366.022911 473.777864 
L 369.885871 473.855436 
L 377.61179 474.340262 
L 381.47475 474.514799 
L 385.33771 474.417834 
L 387.26919 474.514799 
L 391.13215 474.379048 
L 393.06363 474.185118 
L 394.99511 474.185118 
L 404.65251 473.215465 
L 406.583989 473.351217 
L 410.446949 472.788818 
L 412.378429 472.614281 
L 414.309909 472.245813 
L 420.104349 470.500439 
L 423.967309 470.209543 
L 425.898789 469.220497 
L 427.830269 467.766019 
L 429.761749 465.884893 
L 433.624709 462.607468 
L 435.556189 460.377268 
L 437.487668 458.709465 
L 441.350628 456.304727 
L 443.282108 456.3823 
L 445.213588 456.149583 
L 449.076548 454.889035 
L 451.008028 454.481781 
L 452.939508 453.531522 
L 454.870988 452.077043 
L 456.802468 450.118345 
L 458.733948 447.403318 
L 460.665428 445.69673 
L 462.596908 443.330778 
L 464.528388 439.161273 
L 466.459868 435.845062 
L 468.391348 434.778444 
L 470.322827 432.082811 
L 472.254307 429.697466 
L 474.185787 428.436917 
L 476.117267 426.245503 
L 478.048747 424.558308 
L 479.980227 420.233658 
L 481.911707 414.20242 
L 483.843187 410.013522 
L 485.774667 407.783321 
L 487.706147 402.023586 
L 489.637627 396.651712 
L 491.569107 390.736832 
L 493.500587 385.88857 
L 495.432067 382.009961 
L 497.363547 378.499819 
L 499.295027 376.541121 
L 501.226506 376.308405 
L 503.157986 374.776354 
L 505.089466 371.266212 
L 507.020946 370.238381 
L 508.952426 370.93653 
L 510.883906 367.639712 
L 514.746866 364.168356 
L 516.678346 357.788044 
L 518.609826 352.261025 
L 520.541306 345.240742 
L 522.472786 340.101584 
L 524.404266 335.350287 
L 526.335746 329.202691 
L 528.267226 324.858648 
L 530.198706 316.228742 
L 532.130186 311.555017 
L 534.061665 309.79025 
L 535.993145 299.570114 
L 537.924625 298.71682 
L 539.856105 301.548205 
L 541.787585 301.39306 
L 543.719065 304.224445 
L 545.650545 308.956349 
L 547.582025 314.056721 
L 549.513505 325.033186 
L 551.444985 332.092255 
L 553.376465 337.40595 
L 555.307945 342.292998 
L 557.239425 350.030825 
L 559.170905 355.286341 
L 563.033865 364.672576 
L 564.965345 365.021651 
L 566.896824 364.575611 
L 568.828304 365.894338 
L 570.759784 366.243413 
L 572.691264 364.750148 
L 574.622744 362.190266 
L 576.554224 359.320095 
L 578.485704 357.82683 
L 580.417184 356.818391 
L 582.348664 355.09241 
L 584.280144 354.355474 
L 586.211624 353.327643 
L 588.143104 346.540076 
L 590.074584 341.905137 
L 592.006064 339.985226 
L 593.937544 336.804766 
L 595.869024 331.975897 
L 597.800503 322.783592 
L 599.731983 312.737993 
L 601.663463 306.784328 
L 605.526423 281.360042 
L 607.457903 267.998232 
L 609.389383 253.821914 
L 615.183823 194.770082 
L 617.115303 178.15024 
L 619.046783 156.546385 
L 620.978263 141.962813 
L 624.841223 101.916169 
L 626.772703 90.687594 
L 628.704183 81.960722 
L 630.635662 79.788701 
L 632.567142 85.121789 
L 634.498622 87.35199 
L 636.430102 97.552733 
L 638.361582 112.970206 
L 640.293062 122.181904 
L 642.224542 135.737644 
L 644.156022 161.006786 
L 646.087502 197.737219 
L 648.018982 203.109093 
L 649.950462 197.523895 
L 651.881942 205.048398 
L 653.813422 188.428556 
L 655.744902 183.463935 
L 659.607862 162.034617 
L 661.539341 158.272366 
L 663.470821 171.59539 
L 665.402301 165.719297 
L 667.333781 188.5837 
L 669.265261 202.333371 
L 671.196741 209.062759 
L 673.128221 201.596435 
L 675.059701 219.922866 
L 676.991181 232.140486 
L 678.922661 250.059662 
L 680.854141 265.244419 
L 682.785621 275.464555 
L 684.717101 282.290908 
L 686.648581 289.737838 
L 688.580061 292.394686 
L 692.443021 305.795282 
L 696.30598 325.421047 
L 698.23746 333.217052 
L 700.16894 341.808172 
L 704.0319 359.746742 
L 705.96338 370.49049 
L 707.89486 377.316843 
L 709.82634 382.572359 
L 711.75782 389.262961 
L 713.6893 392.598565 
L 715.62078 393.451859 
L 717.55226 391.822843 
L 719.48374 396.341423 
L 721.41522 398.881912 
L 723.3467 401.170292 
L 723.3467 401.170292 
" style="fill:none;stroke:#d4351c;stroke-linecap:square;stroke-width:2;"/>
   </g>
   <g id="patch_3">
    <path d="M 68.575 476.745 
L 738.175 476.745 
" style="fill:none;stroke:#000000;stroke-linecap:square;stroke-linejoin:miter;stroke-width:0.8;"/>
   </g>
   <g id="text_20">
    <!-- Average COVID-19 cases in UK Nations, per capita -->
    <g transform="translate(255.384062 27.225)scale(0.12 -0.12)">
     <defs>
      <path d="M 18.859375 0 
L 2.375 0 
L 27.484375 72.734375 
L 47.296875 72.734375 
L 72.375 0 
L 55.890625 0 
L 50.5 16.578125 
L 24.25 16.578125 
z
M 28.15625 28.59375 
L 46.625 28.59375 
L 37.671875 56.109375 
L 37.109375 56.109375 
z
" id="Inter-Bold-65"/>
      <path d="M 56.890625 54.546875 
L 37.828125 0 
L 20.78125 0 
L 1.703125 54.546875 
L 17.6875 54.546875 
L 29.015625 15.515625 
L 29.578125 15.515625 
L 40.875 54.546875 
z
" id="Inter-Bold-118"/>
      <path d="M 30.890625 -1.0625 
Q 22.515625 -1.0625 16.4375 2.359375 
Q 10.375 5.78125 7.109375 12.078125 
Q 3.84375 18.390625 3.84375 27.03125 
Q 3.84375 35.4375 7.109375 41.796875 
Q 10.375 48.15625 16.3125 51.703125 
Q 22.265625 55.25 30.296875 55.25 
Q 37.5 55.25 43.296875 52.1875 
Q 49.109375 49.140625 52.515625 42.984375 
Q 55.9375 36.828125 55.9375 27.5625 
L 55.9375 23.40625 
L 18.78125 23.40625 
L 18.78125 23.359375 
Q 18.78125 17.265625 22.125 13.75 
Q 25.46875 10.234375 31.140625 10.234375 
Q 34.9375 10.234375 37.703125 11.828125 
Q 40.484375 13.421875 41.625 16.546875 
L 55.609375 15.625 
Q 54.015625 8.03125 47.515625 3.484375 
Q 41.015625 -1.0625 30.890625 -1.0625 
z
M 18.78125 32.78125 
L 41.6875 32.78125 
Q 41.65625 37.640625 38.5625 40.796875 
Q 35.484375 43.96875 30.546875 43.96875 
Q 25.5 43.96875 22.265625 40.6875 
Q 19.03125 37.421875 18.78125 32.78125 
z
" id="Inter-Bold-101"/>
      <path d="M 6.03125 0 
L 6.03125 54.546875 
L 20.703125 54.546875 
L 20.703125 45.03125 
L 21.265625 45.03125 
Q 22.765625 50.109375 26.265625 52.71875 
Q 29.765625 55.328125 34.375 55.328125 
Q 36.578125 55.328125 38.453125 54.796875 
Q 40.34375 54.265625 41.828125 53.34375 
L 37.28125 40.84375 
Q 36.21875 41.375 34.953125 41.734375 
Q 33.703125 42.109375 32.140625 42.109375 
Q 27.5625 42.109375 24.375 38.984375 
Q 21.203125 35.859375 21.171875 30.859375 
L 21.171875 0 
z
" id="Inter-Bold-114"/>
      <path d="M 21.59375 -1.03125 
Q 13.78125 -1.03125 8.625 3.046875 
Q 3.484375 7.140625 3.484375 15.234375 
Q 3.484375 21.34375 6.359375 24.8125 
Q 9.234375 28.296875 13.90625 29.90625 
Q 18.578125 31.53125 23.96875 32.03125 
Q 31.078125 32.734375 34.125 33.515625 
Q 37.1875 34.296875 37.1875 36.9375 
L 37.1875 37.140625 
Q 37.1875 40.515625 35.0625 42.359375 
Q 32.953125 44.21875 29.078125 44.21875 
Q 25 44.21875 22.578125 42.4375 
Q 20.171875 40.65625 19.390625 37.921875 
L 5.40625 39.0625 
Q 6.96875 46.515625 13.15625 50.875 
Q 19.359375 55.25 29.15625 55.25 
Q 35.234375 55.25 40.515625 53.328125 
Q 45.8125 51.421875 49.0625 47.34375 
Q 52.3125 43.28125 52.3125 36.796875 
L 52.3125 0 
L 37.96875 0 
L 37.96875 7.5625 
L 37.53125 7.5625 
Q 35.546875 3.765625 31.578125 1.359375 
Q 27.625 -1.03125 21.59375 -1.03125 
z
M 25.921875 9.40625 
Q 30.890625 9.40625 34.078125 12.296875 
Q 37.28125 15.203125 37.28125 19.5 
L 37.28125 25.28125 
Q 36.40625 24.6875 34.53125 24.21875 
Q 32.671875 23.75 30.5625 23.40625 
Q 28.453125 23.078125 26.78125 22.828125 
Q 22.796875 22.265625 20.359375 20.59375 
Q 17.9375 18.921875 17.9375 15.734375 
Q 17.9375 12.609375 20.1875 11 
Q 22.4375 9.40625 25.921875 9.40625 
z
" id="Inter-Bold-97"/>
      <path d="M 30.609375 -21.234375 
Q 19.609375 -21.234375 13.3125 -16.90625 
Q 7.03125 -12.578125 5.6875 -6.390625 
L 19.671875 -4.515625 
Q 20.59375 -6.71875 23.265625 -8.546875 
Q 25.953125 -10.375 30.96875 -10.375 
Q 35.90625 -10.375 39.109375 -8.03125 
Q 42.328125 -5.6875 42.328125 -0.3125 
L 42.328125 9.65625 
L 41.6875 9.65625 
Q 40.203125 6.28125 36.4375 3.53125 
Q 32.671875 0.78125 26.140625 0.78125 
Q 20 0.78125 14.96875 3.65625 
Q 9.9375 6.53125 6.96875 12.421875 
Q 4.015625 18.328125 4.015625 27.375 
Q 4.015625 36.6875 7.046875 42.859375 
Q 10.09375 49.046875 15.109375 52.140625 
Q 20.140625 55.25 26.109375 55.25 
Q 30.6875 55.25 33.765625 53.703125 
Q 36.859375 52.171875 38.78125 49.890625 
Q 40.703125 47.625 41.6875 45.390625 
L 42.265625 45.390625 
L 42.265625 54.546875 
L 57.28125 54.546875 
L 57.28125 -0.53125 
Q 57.28125 -7.3125 53.84375 -11.921875 
Q 50.421875 -16.546875 44.421875 -18.890625 
Q 38.421875 -21.234375 30.609375 -21.234375 
z
M 30.9375 12.140625 
Q 36.40625 12.140625 39.40625 16.1875 
Q 42.40625 20.234375 42.40625 27.453125 
Q 42.40625 34.625 39.421875 38.921875 
Q 36.4375 43.21875 30.9375 43.21875 
Q 25.328125 43.21875 22.390625 38.8125 
Q 19.46875 34.40625 19.46875 27.453125 
Q 19.46875 20.390625 22.40625 16.265625 
Q 25.359375 12.140625 30.9375 12.140625 
z
" id="Inter-Bold-103"/>
      <path id="Inter-Bold-32"/>
      <path d="M 70.484375 47.265625 
L 54.9375 47.265625 
Q 54.046875 53.265625 49.8125 56.6875 
Q 45.59375 60.125 39.28125 60.125 
Q 30.828125 60.125 25.734375 53.921875 
Q 20.640625 47.734375 20.640625 36.359375 
Q 20.640625 24.71875 25.765625 18.65625 
Q 30.890625 12.609375 39.171875 12.609375 
Q 45.3125 12.609375 49.578125 15.8125 
Q 53.84375 19.03125 54.9375 24.859375 
L 70.484375 24.78125 
Q 69.671875 18.109375 65.734375 12.21875 
Q 61.796875 6.328125 55.03125 2.65625 
Q 48.265625 -1 38.921875 -1 
Q 29.1875 -1 21.53125 3.40625 
Q 13.890625 7.8125 9.46875 16.15625 
Q 5.046875 24.5 5.046875 36.359375 
Q 5.046875 48.265625 9.515625 56.609375 
Q 14 64.953125 21.65625 69.328125 
Q 29.328125 73.71875 38.921875 73.71875 
Q 47.34375 73.71875 54.109375 70.609375 
Q 60.875 67.5 65.1875 61.59375 
Q 69.5 55.6875 70.484375 47.265625 
z
" id="Inter-Bold-67"/>
      <path d="M 73.15625 36.359375 
Q 73.15625 24.46875 68.65625 16.125 
Q 64.171875 7.78125 56.46875 3.390625 
Q 48.765625 -1 39.09375 -1 
Q 29.40625 -1 21.703125 3.40625 
Q 14 7.8125 9.515625 16.171875 
Q 5.046875 24.53125 5.046875 36.359375 
Q 5.046875 48.265625 9.515625 56.609375 
Q 14 64.953125 21.703125 69.328125 
Q 29.40625 73.71875 39.09375 73.71875 
Q 48.765625 73.71875 56.46875 69.328125 
Q 64.171875 64.953125 68.65625 56.609375 
Q 73.15625 48.265625 73.15625 36.359375 
z
M 57.5625 36.359375 
Q 57.5625 47.9375 52.515625 54.03125 
Q 47.484375 60.125 39.09375 60.125 
Q 30.71875 60.125 25.671875 54.03125 
Q 20.640625 47.9375 20.640625 36.359375 
Q 20.640625 24.828125 25.671875 18.71875 
Q 30.71875 12.609375 39.09375 12.609375 
Q 47.484375 12.609375 52.515625 18.71875 
Q 57.5625 24.828125 57.5625 36.359375 
z
" id="Inter-Bold-79"/>
      <path d="M 19.46875 72.734375 
L 37.046875 17.46875 
L 37.71875 17.46875 
L 55.328125 72.734375 
L 72.375 72.734375 
L 47.296875 0 
L 27.484375 0 
L 2.375 72.734375 
z
" id="Inter-Bold-86"/>
      <path d="M 21.703125 72.734375 
L 21.703125 0 
L 6.328125 0 
L 6.328125 72.734375 
z
" id="Inter-Bold-73"/>
      <path d="M 32.109375 0 
L 6.328125 0 
L 6.328125 72.734375 
L 32.3125 72.734375 
Q 43.296875 72.734375 51.21875 68.375 
Q 59.15625 64.03125 63.421875 55.890625 
Q 67.6875 47.765625 67.6875 36.4375 
Q 67.6875 25.078125 63.40625 16.90625 
Q 59.125 8.734375 51.15625 4.359375 
Q 43.1875 0 32.109375 0 
z
M 21.703125 13.171875 
L 31.46875 13.171875 
Q 41.734375 13.171875 47.03125 18.703125 
Q 52.34375 24.25 52.34375 36.4375 
Q 52.34375 48.546875 47.03125 54.046875 
Q 41.734375 59.546875 31.5 59.546875 
L 21.703125 59.546875 
z
" id="Inter-Bold-68"/>
      <path d="M 40.015625 35.859375 
L 40.015625 23.859375 
L 6.859375 23.859375 
L 6.859375 35.859375 
z
" id="Inter-Bold-45"/>
      <path d="M 36.015625 72.734375 
L 36.015625 0 
L 20.671875 0 
L 20.671875 53.90625 
L 20 53.90625 
Q 18.828125 52.09375 15.015625 50.296875 
Q 11.21875 48.515625 5.1875 48.515625 
L 5.1875 60.71875 
Q 9.875 60.71875 13.390625 62.796875 
Q 16.90625 64.875 18.890625 67.703125 
Q 20.875 70.53125 20.953125 72.734375 
z
" id="Inter-Bold-49"/>
      <path d="M 32.203125 73.9375 
Q 37.828125 73.9375 43.015625 72.0625 
Q 48.21875 70.203125 52.3125 66.046875 
Q 56.421875 61.890625 58.84375 55.046875 
Q 61.265625 48.21875 61.265625 38.25 
Q 61.265625 25.921875 57.59375 17.125 
Q 53.9375 8.34375 47.3125 3.671875 
Q 40.703125 -1 31.671875 -1 
Q 24.390625 -1 18.8125 1.828125 
Q 13.25 4.65625 9.859375 9.53125 
Q 6.46875 14.421875 5.75 20.53125 
L 20.921875 20.53125 
Q 21.8125 16.546875 24.640625 14.359375 
Q 27.484375 12.1875 31.671875 12.1875 
Q 38.78125 12.1875 42.46875 18.375 
Q 46.171875 24.578125 46.203125 35.375 
L 45.703125 35.375 
Q 43.296875 30.578125 38.328125 27.84375 
Q 33.375 25.109375 27.375 25.109375 
Q 20.953125 25.109375 15.875 28.140625 
Q 10.796875 31.171875 7.90625 36.46875 
Q 5.015625 41.765625 5.046875 48.578125 
Q 5.015625 55.96875 8.421875 61.703125 
Q 11.828125 67.4375 17.953125 70.703125 
Q 24.078125 73.96875 32.203125 73.9375 
z
M 32.3125 61.859375 
Q 26.953125 61.859375 23.4375 58.15625 
Q 19.921875 54.46875 19.953125 49 
Q 19.921875 43.609375 23.375 39.921875 
Q 26.84375 36.25 32.171875 36.25 
Q 35.6875 36.25 38.515625 37.984375 
Q 41.34375 39.734375 42.984375 42.640625 
Q 44.640625 45.5625 44.671875 49.078125 
Q 44.640625 52.59375 43.015625 55.484375 
Q 41.40625 58.375 38.640625 60.109375 
Q 35.875 61.859375 32.3125 61.859375 
z
" id="Inter-Bold-57"/>
      <path d="M 30.6875 -1.0625 
Q 22.296875 -1.0625 16.28125 2.5 
Q 10.265625 6.078125 7.046875 12.421875 
Q 3.84375 18.78125 3.84375 27.0625 
Q 3.84375 35.4375 7.078125 41.78125 
Q 10.328125 48.125 16.328125 51.6875 
Q 22.34375 55.25 30.609375 55.25 
Q 37.75 55.25 43.125 52.65625 
Q 48.515625 50.078125 51.609375 45.390625 
Q 54.71875 40.703125 55.046875 34.375 
L 40.765625 34.375 
Q 40.171875 38.453125 37.59375 40.953125 
Q 35.015625 43.46875 30.859375 43.46875 
Q 25.609375 43.46875 22.40625 39.234375 
Q 19.21875 35.015625 19.21875 27.265625 
Q 19.21875 19.453125 22.390625 15.171875 
Q 25.5625 10.90625 30.859375 10.90625 
Q 34.765625 10.90625 37.421875 13.265625 
Q 40.09375 15.625 40.765625 20 
L 55.046875 20 
Q 54.6875 13.75 51.640625 8.984375 
Q 48.609375 4.21875 43.28125 1.578125 
Q 37.96875 -1.0625 30.6875 -1.0625 
z
" id="Inter-Bold-99"/>
      <path d="M 51.421875 38.984375 
L 37.578125 38.140625 
Q 37 40.765625 34.6875 42.640625 
Q 32.390625 44.53125 28.453125 44.53125 
Q 24.9375 44.53125 22.5 43.046875 
Q 20.0625 41.578125 20.09375 39.140625 
Q 20.0625 37.1875 21.640625 35.828125 
Q 23.21875 34.484375 27.03125 33.671875 
L 36.890625 31.671875 
Q 52.625 28.4375 52.671875 16.90625 
Q 52.671875 11.546875 49.515625 7.484375 
Q 46.375 3.4375 40.90625 1.1875 
Q 35.4375 -1.0625 28.375 -1.0625 
Q 17.546875 -1.0625 11.109375 3.453125 
Q 4.6875 7.984375 3.625 15.796875 
L 18.5 16.578125 
Q 19.21875 13.25 21.78125 11.546875 
Q 24.359375 9.84375 28.40625 9.84375 
Q 32.390625 9.84375 34.8125 11.40625 
Q 37.25 12.96875 37.28125 15.375 
Q 37.1875 19.421875 30.296875 20.8125 
L 20.84375 22.6875 
Q 5.015625 25.859375 5.078125 38.28125 
Q 5.046875 46.171875 11.375 50.703125 
Q 17.71875 55.25 28.203125 55.25 
Q 38.53125 55.25 44.46875 50.875 
Q 50.421875 46.515625 51.421875 38.984375 
z
" id="Inter-Bold-115"/>
      <path d="M 6.03125 0 
L 6.03125 54.546875 
L 21.171875 54.546875 
L 21.171875 0 
z
M 13.6875 61.578125 
Q 10.34375 61.578125 7.921875 63.828125 
Q 5.515625 66.09375 5.515625 69.25 
Q 5.515625 72.40625 7.921875 74.640625 
Q 10.34375 76.875 13.6875 76.875 
Q 17.0625 76.875 19.46875 74.640625 
Q 21.890625 72.40625 21.890625 69.25 
Q 21.890625 66.09375 19.46875 63.828125 
Q 17.0625 61.578125 13.6875 61.578125 
z
" id="Inter-Bold-105"/>
      <path d="M 21.171875 31.53125 
L 21.171875 0 
L 6.03125 0 
L 6.03125 54.546875 
L 20.453125 54.546875 
L 20.453125 44.921875 
L 21.09375 44.921875 
Q 22.9375 49.6875 27.171875 52.46875 
Q 31.421875 55.25 37.5 55.25 
Q 46.03125 55.25 51.171875 49.765625 
Q 56.328125 44.28125 56.328125 34.734375 
L 56.328125 0 
L 41.1875 0 
L 41.1875 32.03125 
Q 41.234375 37.03125 38.640625 39.859375 
Q 36.046875 42.6875 31.5 42.6875 
Q 26.921875 42.6875 24.0625 39.75 
Q 21.203125 36.828125 21.171875 31.53125 
z
" id="Inter-Bold-110"/>
      <path d="M 51.34375 72.734375 
L 66.625 72.734375 
L 66.625 24.640625 
Q 66.625 16.40625 62.75 10.671875 
Q 58.875 4.9375 52.078125 1.953125 
Q 45.28125 -1.03125 36.46875 -1.03125 
Q 27.671875 -1.03125 20.84375 1.953125 
Q 14.03125 4.9375 10.171875 10.671875 
Q 6.328125 16.40625 6.328125 24.640625 
L 6.328125 72.734375 
L 21.703125 72.734375 
L 21.703125 25.171875 
Q 21.703125 19.359375 25.90625 16.015625 
Q 30.109375 12.671875 36.46875 12.671875 
Q 42.9375 12.671875 47.140625 16.015625 
Q 51.34375 19.359375 51.34375 25.171875 
z
" id="Inter-Bold-85"/>
      <path d="M 6.328125 0 
L 6.328125 72.734375 
L 21.703125 72.734375 
L 21.703125 40.65625 
L 22.65625 40.65625 
L 48.828125 72.734375 
L 67.265625 72.734375 
L 40.265625 40.15625 
L 67.578125 0 
L 49.1875 0 
L 29.265625 29.90625 
L 21.703125 20.671875 
L 21.703125 0 
z
" id="Inter-Bold-75"/>
      <path d="M 67.15625 72.734375 
L 67.15625 0 
L 53.875 0 
L 22.234375 45.78125 
L 21.703125 45.78125 
L 21.703125 0 
L 6.328125 0 
L 6.328125 72.734375 
L 19.8125 72.734375 
L 51.203125 26.984375 
L 51.84375 26.984375 
L 51.84375 72.734375 
z
" id="Inter-Bold-78"/>
      <path d="M 35.046875 54.546875 
L 35.046875 43.1875 
L 24.78125 43.1875 
L 24.78125 16.765625 
Q 24.78125 13.640625 26.203125 12.53125 
Q 27.625 11.4375 29.90625 11.4375 
Q 30.96875 11.4375 32.03125 11.625 
Q 33.09375 11.828125 33.671875 11.9375 
L 36.046875 0.671875 
Q 34.90625 0.3125 32.84375 -0.15625 
Q 30.796875 -0.640625 27.84375 -0.75 
Q 19.609375 -1.09375 14.609375 2.828125 
Q 9.625 6.75 9.65625 14.765625 
L 9.65625 43.1875 
L 2.203125 43.1875 
L 2.203125 54.546875 
L 9.65625 54.546875 
L 9.65625 67.609375 
L 24.78125 67.609375 
L 24.78125 54.546875 
z
" id="Inter-Bold-116"/>
      <path d="M 30.6875 -1.0625 
Q 22.40625 -1.0625 16.390625 2.46875 
Q 10.375 6 7.109375 12.328125 
Q 3.84375 18.671875 3.84375 27.0625 
Q 3.84375 35.515625 7.109375 41.84375 
Q 10.375 48.1875 16.390625 51.71875 
Q 22.40625 55.25 30.6875 55.25 
Q 38.953125 55.25 44.96875 51.71875 
Q 51 48.1875 54.265625 41.84375 
Q 57.53125 35.515625 57.53125 27.0625 
Q 57.53125 18.671875 54.265625 12.328125 
Q 51 6 44.96875 2.46875 
Q 38.953125 -1.0625 30.6875 -1.0625 
z
M 30.75 10.65625 
Q 36.359375 10.65625 39.25 15.34375 
Q 42.15625 20.03125 42.15625 27.171875 
Q 42.15625 34.296875 39.25 39 
Q 36.359375 43.71875 30.75 43.71875 
Q 25.03125 43.71875 22.125 39 
Q 19.21875 34.296875 19.21875 27.171875 
Q 19.21875 20.03125 22.125 15.34375 
Q 25.03125 10.65625 30.75 10.65625 
z
" id="Inter-Bold-111"/>
      <path d="M 22.484375 9.9375 
L 22.09375 6.03125 
Q 21.625 1.34375 20.328125 -3.3125 
Q 19.03125 -7.984375 17.625 -11.78125 
Q 16.234375 -15.59375 15.375 -17.75 
L 5.578125 -17.75 
Q 6.109375 -15.65625 7.03125 -11.921875 
Q 7.953125 -8.203125 8.765625 -3.53125 
Q 9.59375 1.140625 9.796875 5.96875 
L 9.984375 9.9375 
z
" id="Inter-Bold-44"/>
      <path d="M 6.03125 -20.453125 
L 6.03125 54.546875 
L 20.953125 54.546875 
L 20.953125 45.390625 
L 21.625 45.390625 
Q 22.65625 47.625 24.53125 49.890625 
Q 26.421875 52.171875 29.5 53.703125 
Q 32.59375 55.25 37.140625 55.25 
Q 43.140625 55.25 48.140625 52.140625 
Q 53.15625 49.046875 56.1875 42.8125 
Q 59.234375 36.578125 59.234375 27.203125 
Q 59.234375 18.078125 56.28125 11.8125 
Q 53.34375 5.546875 48.328125 2.328125 
Q 43.328125 -0.890625 37.109375 -0.890625 
Q 32.703125 -0.890625 29.625 0.5625 
Q 26.5625 2.03125 24.625 4.25 
Q 22.6875 6.46875 21.625 8.734375 
L 21.171875 8.734375 
L 21.171875 -20.453125 
z
M 20.84375 27.265625 
Q 20.84375 20 23.84375 15.578125 
Q 26.84375 11.15625 32.3125 11.15625 
Q 37.890625 11.15625 40.828125 15.640625 
Q 43.78125 20.140625 43.78125 27.265625 
Q 43.78125 34.375 40.84375 38.796875 
Q 37.921875 43.21875 32.3125 43.21875 
Q 26.8125 43.21875 23.828125 38.90625 
Q 20.84375 34.59375 20.84375 27.265625 
z
" id="Inter-Bold-112"/>
     </defs>
     <use xlink:href="#Inter-Bold-65"/>
     <use x="74.786942" xlink:href="#Inter-Bold-118"/>
     <use x="133.380707" xlink:href="#Inter-Bold-101"/>
     <use x="193.146347" xlink:href="#Inter-Bold-114"/>
     <use x="236.008575" xlink:href="#Inter-Bold-97"/>
     <use x="294.034149" xlink:href="#Inter-Bold-103"/>
     <use x="357.350922" xlink:href="#Inter-Bold-101"/>
     <use x="417.116562" xlink:href="#Inter-Bold-32"/>
     <use x="440.305481" xlink:href="#Inter-Bold-67"/>
     <use x="515.51857" xlink:href="#Inter-Bold-79"/>
     <use x="593.714615" xlink:href="#Inter-Bold-86"/>
     <use x="668.501556" xlink:href="#Inter-Bold-73"/>
     <use x="696.555542" xlink:href="#Inter-Bold-68"/>
     <use x="769.282837" xlink:href="#Inter-Bold-45"/>
     <use x="816.157852" xlink:href="#Inter-Bold-49"/>
     <use x="863.565536" xlink:href="#Inter-Bold-57"/>
     <use x="929.581177" xlink:href="#Inter-Bold-32"/>
     <use x="952.770096" xlink:href="#Inter-Bold-99"/>
     <use x="1011.505905" xlink:href="#Inter-Bold-97"/>
     <use x="1069.531479" xlink:href="#Inter-Bold-115"/>
     <use x="1125.710464" xlink:href="#Inter-Bold-101"/>
     <use x="1185.476105" xlink:href="#Inter-Bold-115"/>
     <use x="1241.65509" xlink:href="#Inter-Bold-32"/>
     <use x="1264.844009" xlink:href="#Inter-Bold-105"/>
     <use x="1292.045715" xlink:href="#Inter-Bold-110"/>
     <use x="1354.22612" xlink:href="#Inter-Bold-32"/>
     <use x="1377.415039" xlink:href="#Inter-Bold-85"/>
     <use x="1450.355392" xlink:href="#Inter-Bold-75"/>
     <use x="1519.318481" xlink:href="#Inter-Bold-32"/>
     <use x="1542.507401" xlink:href="#Inter-Bold-78"/>
     <use x="1616.015945" xlink:href="#Inter-Bold-97"/>
     <use x="1674.041519" xlink:href="#Inter-Bold-116"/>
     <use x="1712.890961" xlink:href="#Inter-Bold-105"/>
     <use x="1740.092667" xlink:href="#Inter-Bold-111"/>
     <use x="1801.456314" xlink:href="#Inter-Bold-110"/>
     <use x="1863.636719" xlink:href="#Inter-Bold-115"/>
     <use x="1919.815704" xlink:href="#Inter-Bold-44"/>
     <use x="1950.106903" xlink:href="#Inter-Bold-32"/>
     <use x="1973.295822" xlink:href="#Inter-Bold-112"/>
     <use x="2036.54158" xlink:href="#Inter-Bold-101"/>
     <use x="2096.30722" xlink:href="#Inter-Bold-114"/>
     <use x="2139.169449" xlink:href="#Inter-Bold-32"/>
     <use x="2162.358368" xlink:href="#Inter-Bold-99"/>
     <use x="2221.094177" xlink:href="#Inter-Bold-97"/>
     <use x="2279.119751" xlink:href="#Inter-Bold-112"/>
     <use x="2342.365509" xlink:href="#Inter-Bold-105"/>
     <use x="2369.567215" xlink:href="#Inter-Bold-116"/>
     <use x="2408.416656" xlink:href="#Inter-Bold-97"/>
    </g>
   </g>
   <g id="legend_1">
    <g id="patch_4">
     <path d="M 75.575 98.614063 
L 185.148438 98.614063 
Q 187.148438 98.614063 187.148438 96.614063 
L 187.148438 40.225 
Q 187.148438 38.225 185.148438 38.225 
L 75.575 38.225 
Q 73.575 38.225 73.575 40.225 
L 73.575 96.614063 
Q 73.575 98.614063 75.575 98.614063 
z
" style="fill:#ffffff;opacity:0.8;stroke:#cccccc;stroke-linejoin:miter;"/>
    </g>
    <g id="line2d_29">
     <path d="M 77.575 45.998438 
L 97.575 45.998438 
" style="fill:none;stroke:#d4351c;stroke-linecap:square;stroke-width:2;"/>
    </g>
    <g id="line2d_30"/>
    <g id="text_21">
     <!-- Wales -->
     <g transform="translate(105.575 49.498438)scale(0.1 -0.1)">
      <defs>
       <path d="M 22.015625 0 
L 2.125 72.734375 
L 11.078125 72.734375 
L 26.28125 13.5 
L 26.984375 13.5 
L 42.46875 72.734375 
L 52.421875 72.734375 
L 67.90625 13.5 
L 68.609375 13.5 
L 83.8125 72.734375 
L 92.75 72.734375 
L 72.875 0 
L 63.78125 0 
L 47.734375 57.953125 
L 47.15625 57.953125 
L 31.109375 0 
z
" id="Inter-Regular-87"/>
      </defs>
      <use xlink:href="#Inter-Regular-87"/>
      <use x="94.886383" xlink:href="#Inter-Regular-97"/>
      <use x="151.278442" xlink:href="#Inter-Regular-108"/>
      <use x="175.000031" xlink:href="#Inter-Regular-101"/>
      <use x="233.238678" xlink:href="#Inter-Regular-115"/>
     </g>
    </g>
    <g id="line2d_31">
     <path d="M 77.575 60.317188 
L 97.575 60.317188 
" style="fill:none;stroke:#003078;stroke-linecap:square;stroke-width:2;"/>
    </g>
    <g id="line2d_32"/>
    <g id="text_22">
     <!-- Scotland -->
     <g transform="translate(105.575 63.817188)scale(0.1 -0.1)">
      <use xlink:href="#Inter-Regular-83"/>
      <use x="63.778427" xlink:href="#Inter-Regular-99"/>
      <use x="119.602295" xlink:href="#Inter-Regular-111"/>
      <use x="179.261398" xlink:href="#Inter-Regular-116"/>
      <use x="215.625046" xlink:href="#Inter-Regular-108"/>
      <use x="239.346634" xlink:href="#Inter-Regular-97"/>
      <use x="295.738693" xlink:href="#Inter-Regular-110"/>
      <use x="354.261429" xlink:href="#Inter-Regular-100"/>
     </g>
    </g>
    <g id="line2d_33">
     <path d="M 77.575 74.635938 
L 97.575 74.635938 
" style="fill:none;stroke:#ffdd00;stroke-linecap:square;stroke-width:2;"/>
    </g>
    <g id="line2d_34"/>
    <g id="text_23">
     <!-- Northern Ireland -->
     <g transform="translate(105.575 78.135938)scale(0.1 -0.1)">
      <defs>
       <path d="M 16.046875 32.8125 
L 16.046875 0 
L 7.671875 0 
L 7.671875 72.734375 
L 16.046875 72.734375 
L 16.046875 46.015625 
L 16.765625 46.015625 
Q 18.6875 50.25 22.53125 52.75 
Q 26.390625 55.25 32.8125 55.25 
Q 41.1875 55.25 46.296875 50.203125 
Q 51.421875 45.171875 51.421875 34.65625 
L 51.421875 0 
L 43.046875 0 
L 43.046875 34.09375 
Q 43.046875 40.59375 39.6875 44.15625 
Q 36.328125 47.734375 30.40625 47.734375 
Q 24.1875 47.734375 20.109375 43.84375 
Q 16.046875 39.953125 16.046875 32.8125 
z
" id="Inter-Regular-104"/>
       <path d="M 17.609375 72.734375 
L 17.609375 0 
L 8.8125 0 
L 8.8125 72.734375 
z
" id="Inter-Regular-73"/>
      </defs>
      <use xlink:href="#Inter-Regular-78"/>
      <use x="75.284103" xlink:href="#Inter-Regular-111"/>
      <use x="134.943207" xlink:href="#Inter-Regular-114"/>
      <use x="173.295486" xlink:href="#Inter-Regular-116"/>
      <use x="209.659134" xlink:href="#Inter-Regular-104"/>
      <use x="268.750061" xlink:href="#Inter-Regular-101"/>
      <use x="326.988708" xlink:href="#Inter-Regular-114"/>
      <use x="365.340988" xlink:href="#Inter-Regular-110"/>
      <use x="423.863724" xlink:href="#Inter-Regular-32"/>
      <use x="451.988724" xlink:href="#Inter-Regular-73"/>
      <use x="478.40918" xlink:href="#Inter-Regular-114"/>
      <use x="516.761459" xlink:href="#Inter-Regular-101"/>
      <use x="575.000107" xlink:href="#Inter-Regular-108"/>
      <use x="598.721695" xlink:href="#Inter-Regular-97"/>
      <use x="655.113754" xlink:href="#Inter-Regular-110"/>
      <use x="713.63649" xlink:href="#Inter-Regular-100"/>
     </g>
    </g>
    <g id="line2d_35">
     <path d="M 77.575 88.954688 
L 97.575 88.954688 
" style="fill:none;stroke:#5694ca;stroke-linecap:square;stroke-width:2;"/>
    </g>
    <g id="line2d_36"/>
    <g id="text_24">
     <!-- England -->
     <g transform="translate(105.575 92.454688)scale(0.1 -0.1)">
      <defs>
       <path d="M 8.8125 0 
L 8.8125 72.734375 
L 52.703125 72.734375 
L 52.703125 64.921875 
L 17.609375 64.921875 
L 17.609375 40.34375 
L 50.421875 40.34375 
L 50.421875 32.53125 
L 17.609375 32.53125 
L 17.609375 7.8125 
L 53.265625 7.8125 
L 53.265625 0 
z
" id="Inter-Regular-69"/>
      </defs>
      <use xlink:href="#Inter-Regular-69"/>
      <use x="59.801147" xlink:href="#Inter-Regular-110"/>
      <use x="118.323883" xlink:href="#Inter-Regular-103"/>
      <use x="179.261398" xlink:href="#Inter-Regular-108"/>
      <use x="202.982986" xlink:href="#Inter-Regular-97"/>
      <use x="259.375046" xlink:href="#Inter-Regular-110"/>
      <use x="317.897781" xlink:href="#Inter-Regular-100"/>
     </g>
    </g>
   </g>
  </g>
 </g>
 <defs>
  <clipPath id="peef1c8c690">
   <rect height="443.52" width="669.6" x="68.575" y="33.225"/>
  </clipPath>
 </defs>
</svg>
