<?xml version="1.0" encoding="utf-8" standalone="no"?>
<!DOCTYPE svg PUBLIC "-//W3C//DTD SVG 1.1//EN"
  "http://www.w3.org/Graphics/SVG/1.1/DTD/svg11.dtd">
<svg xmlns:xlink="http://www.w3.org/1999/xlink" viewBox="0 0 756.175 511.234062" xmlns="http://www.w3.org/2000/svg" version="1.1">
 <metadata>
  <rdf:RDF xmlns:dc="http://purl.org/dc/elements/1.1/" xmlns:cc="http://creativecommons.org/ns#" xmlns:rdf="http://www.w3.org/1999/02/22-rdf-syntax-ns#">
   <cc:Work>
    <dc:type rdf:resource="http://purl.org/dc/dcmitype/StillImage"/>
    <dc:date>2021-12-13T17:23:04.526556</dc:date>
    <dc:format>image/svg+xml</dc:format>
    <dc:creator>
     <cc:Agent>
      <dc:title>Matplotlib v3.5.1, https://matplotlib.org/</dc:title>
     </cc:Agent>
    </dc:creator>
   </cc:Work>
  </rdf:RDF>
 </metadata>
 <defs>
  <style type="text/css">*{stroke-linejoin: round; stroke-linecap: butt}</style>
 </defs>
 <g id="figure_1">
  <g id="patch_1">
   <path d="M 0 511.234062 
L 756.175 511.234062 
L 756.175 0 
L 0 0 
z
" style="fill: #ffffff"/>
  </g>
  <g id="axes_1">
   <g id="patch_2">
    <path d="M 68.575 476.745 
L 738.175 476.745 
L 738.175 33.225 
L 68.575 33.225 
z
" style="fill: #ffffff"/>
   </g>
   <g id="matplotlib.axis_1">
    <g id="xtick_1">
     <g id="line2d_1">
      <defs>
       <path id="m71757ba68b" d="M 0 0 
L 0 3.5 
" style="stroke: #000000; stroke-width: 0.8"/>
      </defs>
      <g>
       <use xlink:href="#m71757ba68b" x="68.575" y="476.745" style="stroke: #000000; stroke-width: 0.8"/>
      </g>
     </g>
     <g id="text_1">
      <!-- 01 Mar -->
      <g transform="translate(52.538281 491.018437)scale(0.1 -0.1)">
       <defs>
        <path id="Inter-Regular-30" d="M 2000 -64 
Q 1230 -64 806 561 
Q 382 1186 382 2327 
Q 382 3459 809 4088 
Q 1236 4718 2000 4718 
Q 2764 4718 3191 4088 
Q 3618 3459 3618 2327 
Q 3618 1186 3194 561 
Q 2771 -64 2000 -64 
z
M 2000 436 
Q 2509 436 2791 927 
Q 3073 1418 3073 2327 
Q 3073 3234 2789 3730 
Q 2505 4227 2000 4227 
Q 1496 4227 1211 3730 
Q 927 3234 927 2327 
Q 927 1418 1210 927 
Q 1493 436 2000 436 
z
" transform="scale(0.015625)"/>
        <path id="Inter-Regular-31" d="M 1973 4655 
L 1973 0 
L 1409 0 
L 1409 3836 
L 1373 3836 
Q 1341 3773 1209 3692 
Q 1077 3611 868 3551 
Q 659 3491 391 3491 
L 391 3964 
Q 661 3964 859 4061 
Q 1057 4159 1190 4291 
Q 1323 4423 1392 4529 
Q 1461 4636 1473 4655 
L 1973 4655 
z
" transform="scale(0.015625)"/>
        <path id="Inter-Regular-20" transform="scale(0.015625)"/>
        <path id="Inter-Regular-4d" d="M 564 4655 
L 1236 4655 
L 2818 791 
L 2873 791 
L 4455 4655 
L 5127 4655 
L 5127 0 
L 4600 0 
L 4600 3536 
L 4555 3536 
L 3100 0 
L 2591 0 
L 1136 3536 
L 1091 3536 
L 1091 0 
L 564 0 
L 564 4655 
z
" transform="scale(0.015625)"/>
        <path id="Inter-Regular-61" d="M 1518 -82 
Q 1186 -82 916 44 
Q 646 170 486 410 
Q 327 650 327 991 
Q 327 1291 445 1478 
Q 564 1666 761 1773 
Q 959 1880 1199 1933 
Q 1439 1986 1682 2018 
Q 2000 2059 2199 2080 
Q 2398 2102 2490 2154 
Q 2582 2207 2582 2336 
L 2582 2355 
Q 2582 2691 2399 2877 
Q 2216 3064 1846 3064 
Q 1461 3064 1243 2895 
Q 1025 2727 936 2536 
L 427 2718 
Q 564 3036 792 3214 
Q 1021 3393 1292 3464 
Q 1564 3536 1827 3536 
Q 1996 3536 2215 3496 
Q 2434 3457 2640 3334 
Q 2846 3211 2982 2963 
Q 3118 2716 3118 2300 
L 3118 0 
L 2582 0 
L 2582 473 
L 2555 473 
Q 2500 359 2373 229 
Q 2246 100 2034 9 
Q 1823 -82 1518 -82 
z
M 1600 400 
Q 1918 400 2137 525 
Q 2357 650 2469 847 
Q 2582 1045 2582 1264 
L 2582 1755 
Q 2548 1714 2433 1681 
Q 2318 1648 2169 1624 
Q 2021 1600 1881 1583 
Q 1741 1566 1655 1555 
Q 1446 1527 1265 1467 
Q 1084 1407 974 1287 
Q 864 1168 864 964 
Q 864 684 1072 542 
Q 1280 400 1600 400 
z
" transform="scale(0.015625)"/>
        <path id="Inter-Regular-72" d="M 491 0 
L 491 3491 
L 1009 3491 
L 1009 2964 
L 1046 2964 
Q 1139 3223 1389 3384 
Q 1639 3545 1955 3545 
Q 2100 3545 2209 3511 
Q 2318 3477 2400 3418 
L 2218 2964 
Q 2161 2993 2085 3010 
Q 2009 3027 1909 3027 
Q 1527 3027 1277 2794 
Q 1027 2561 1027 2209 
L 1027 0 
L 491 0 
z
" transform="scale(0.015625)"/>
       </defs>
       <use xlink:href="#Inter-Regular-30"/>
       <use xlink:href="#Inter-Regular-31" x="62.500015"/>
       <use xlink:href="#Inter-Regular-20" x="106.676163"/>
       <use xlink:href="#Inter-Regular-4d" x="134.801163"/>
       <use xlink:href="#Inter-Regular-61" x="225.99437"/>
       <use xlink:href="#Inter-Regular-72" x="282.386429"/>
      </g>
     </g>
    </g>
    <g id="xtick_2">
     <g id="line2d_2">
      <g>
       <use xlink:href="#m71757ba68b" x="100.376587" y="476.745" style="stroke: #000000; stroke-width: 0.8"/>
      </g>
     </g>
    </g>
    <g id="xtick_3">
     <g id="line2d_3">
      <g>
       <use xlink:href="#m71757ba68b" x="131.152316" y="476.745" style="stroke: #000000; stroke-width: 0.8"/>
      </g>
     </g>
     <g id="text_2">
      <!-- 01 May -->
      <g transform="translate(114.249191 491.116875)scale(0.1 -0.1)">
       <defs>
        <path id="Inter-Regular-79" d="M 818 -1355 
Q 682 -1355 575 -1333 
Q 468 -1311 427 -1291 
L 564 -818 
Q 857 -893 1053 -814 
Q 1250 -736 1391 -345 
L 1509 -18 
L 218 3491 
L 800 3491 
L 1764 709 
L 1800 709 
L 2764 3491 
L 3346 3491 
L 1846 -564 
Q 1550 -1355 818 -1355 
z
" transform="scale(0.015625)"/>
       </defs>
       <use xlink:href="#Inter-Regular-30"/>
       <use xlink:href="#Inter-Regular-31" x="62.500015"/>
       <use xlink:href="#Inter-Regular-20" x="106.676163"/>
       <use xlink:href="#Inter-Regular-4d" x="134.801163"/>
       <use xlink:href="#Inter-Regular-61" x="225.99437"/>
       <use xlink:href="#Inter-Regular-79" x="282.386429"/>
      </g>
     </g>
    </g>
    <g id="xtick_4">
     <g id="line2d_4">
      <g>
       <use xlink:href="#m71757ba68b" x="162.953903" y="476.745" style="stroke: #000000; stroke-width: 0.8"/>
      </g>
     </g>
    </g>
    <g id="xtick_5">
     <g id="line2d_5">
      <g>
       <use xlink:href="#m71757ba68b" x="193.729632" y="476.745" style="stroke: #000000; stroke-width: 0.8"/>
      </g>
     </g>
     <g id="text_3">
      <!-- 01 Jul -->
      <g transform="translate(180.185882 491.018437)scale(0.1 -0.1)">
       <defs>
        <path id="Inter-Regular-4a" d="M 2346 4655 
L 2909 4655 
L 2909 1327 
Q 2909 657 2549 296 
Q 2189 -64 1582 -64 
Q 1200 -64 902 76 
Q 605 216 434 475 
Q 264 734 264 1091 
L 818 1091 
Q 818 795 1034 615 
Q 1250 436 1582 436 
Q 1948 436 2147 664 
Q 2346 893 2346 1327 
L 2346 4655 
z
" transform="scale(0.015625)"/>
        <path id="Inter-Regular-75" d="M 2691 1427 
L 2691 3491 
L 3227 3491 
L 3227 0 
L 2691 0 
L 2691 591 
L 2655 591 
Q 2532 325 2273 140 
Q 2014 -45 1618 -45 
Q 1127 -45 809 280 
Q 491 605 491 1273 
L 491 3491 
L 1027 3491 
L 1027 1309 
Q 1027 927 1242 700 
Q 1457 473 1791 473 
Q 1991 473 2199 575 
Q 2407 677 2549 888 
Q 2691 1100 2691 1427 
z
" transform="scale(0.015625)"/>
        <path id="Inter-Regular-6c" d="M 1027 4655 
L 1027 0 
L 491 0 
L 491 4655 
L 1027 4655 
z
" transform="scale(0.015625)"/>
       </defs>
       <use xlink:href="#Inter-Regular-30"/>
       <use xlink:href="#Inter-Regular-31" x="62.500015"/>
       <use xlink:href="#Inter-Regular-20" x="106.676163"/>
       <use xlink:href="#Inter-Regular-4a" x="134.801163"/>
       <use xlink:href="#Inter-Regular-75" x="189.062531"/>
       <use xlink:href="#Inter-Regular-6c" x="247.159134"/>
      </g>
     </g>
    </g>
    <g id="xtick_6">
     <g id="line2d_6">
      <g>
       <use xlink:href="#m71757ba68b" x="225.531218" y="476.745" style="stroke: #000000; stroke-width: 0.8"/>
      </g>
     </g>
    </g>
    <g id="xtick_7">
     <g id="line2d_7">
      <g>
       <use xlink:href="#m71757ba68b" x="257.332805" y="476.745" style="stroke: #000000; stroke-width: 0.8"/>
      </g>
     </g>
     <g id="text_4">
      <!-- 01 Sep -->
      <g transform="translate(241.445305 491.116875)scale(0.1 -0.1)">
       <defs>
        <path id="Inter-Regular-53" d="M 3109 3491 
Q 3068 3836 2777 4027 
Q 2486 4218 2064 4218 
Q 1600 4218 1318 3999 
Q 1036 3780 1036 3445 
Q 1036 3195 1189 3042 
Q 1343 2889 1553 2803 
Q 1764 2718 1936 2673 
L 2409 2545 
Q 2591 2498 2815 2414 
Q 3039 2330 3244 2185 
Q 3450 2041 3584 1816 
Q 3718 1591 3718 1264 
Q 3718 886 3521 581 
Q 3325 277 2949 97 
Q 2573 -82 2036 -82 
Q 1286 -82 845 272 
Q 405 627 364 1200 
L 946 1200 
Q 968 936 1124 764 
Q 1280 593 1519 510 
Q 1759 427 2036 427 
Q 2359 427 2616 533 
Q 2873 639 3023 828 
Q 3173 1018 3173 1273 
Q 3173 1505 3043 1650 
Q 2914 1795 2702 1886 
Q 2491 1977 2246 2045 
L 1673 2209 
Q 1127 2366 809 2657 
Q 491 2948 491 3418 
Q 491 3809 703 4101 
Q 916 4393 1276 4555 
Q 1636 4718 2082 4718 
Q 2532 4718 2882 4558 
Q 3232 4398 3437 4120 
Q 3643 3843 3655 3491 
L 3109 3491 
z
" transform="scale(0.015625)"/>
        <path id="Inter-Regular-65" d="M 1955 -73 
Q 1450 -73 1085 151 
Q 721 375 524 778 
Q 327 1182 327 1718 
Q 327 2255 524 2665 
Q 721 3075 1074 3305 
Q 1427 3536 1900 3536 
Q 2173 3536 2439 3445 
Q 2705 3355 2923 3151 
Q 3141 2948 3270 2614 
Q 3400 2280 3400 1791 
L 3400 1564 
L 866 1564 
Q 884 1005 1183 707 
Q 1482 409 1955 409 
Q 2271 409 2498 545 
Q 2725 682 2827 955 
L 3346 809 
Q 3223 414 2854 170 
Q 2486 -73 1955 -73 
z
M 866 2027 
L 2855 2027 
Q 2855 2470 2595 2762 
Q 2336 3055 1900 3055 
Q 1593 3055 1368 2911 
Q 1143 2768 1013 2533 
Q 884 2298 866 2027 
z
" transform="scale(0.015625)"/>
        <path id="Inter-Regular-70" d="M 491 -1309 
L 491 3491 
L 1009 3491 
L 1009 2936 
L 1073 2936 
Q 1132 3027 1237 3169 
Q 1343 3311 1542 3423 
Q 1741 3536 2082 3536 
Q 2523 3536 2859 3315 
Q 3196 3095 3384 2690 
Q 3573 2286 3573 1736 
Q 3573 1182 3384 776 
Q 3196 370 2861 148 
Q 2527 -73 2091 -73 
Q 1755 -73 1552 39 
Q 1350 152 1241 296 
Q 1132 441 1073 536 
L 1027 536 
L 1027 -1309 
L 491 -1309 
z
M 1018 1745 
Q 1018 1152 1276 780 
Q 1534 409 2018 409 
Q 2355 409 2581 587 
Q 2807 766 2921 1069 
Q 3036 1373 3036 1745 
Q 3036 2114 2923 2410 
Q 2811 2707 2585 2881 
Q 2359 3055 2018 3055 
Q 1527 3055 1272 2693 
Q 1018 2332 1018 1745 
z
" transform="scale(0.015625)"/>
       </defs>
       <use xlink:href="#Inter-Regular-30"/>
       <use xlink:href="#Inter-Regular-31" x="62.500015"/>
       <use xlink:href="#Inter-Regular-20" x="106.676163"/>
       <use xlink:href="#Inter-Regular-53" x="134.801163"/>
       <use xlink:href="#Inter-Regular-65" x="198.57959"/>
       <use xlink:href="#Inter-Regular-70" x="256.818237"/>
      </g>
     </g>
    </g>
    <g id="xtick_8">
     <g id="line2d_8">
      <g>
       <use xlink:href="#m71757ba68b" x="288.108534" y="476.745" style="stroke: #000000; stroke-width: 0.8"/>
      </g>
     </g>
    </g>
    <g id="xtick_9">
     <g id="line2d_9">
      <g>
       <use xlink:href="#m71757ba68b" x="319.910121" y="476.745" style="stroke: #000000; stroke-width: 0.8"/>
      </g>
     </g>
     <g id="text_5">
      <!-- 01 Nov -->
      <g transform="translate(303.639027 491.018437)scale(0.1 -0.1)">
       <defs>
        <path id="Inter-Regular-4e" d="M 4255 4655 
L 4255 0 
L 3709 0 
L 1173 3655 
L 1127 3655 
L 1127 0 
L 564 0 
L 564 4655 
L 1109 4655 
L 3655 991 
L 3700 991 
L 3700 4655 
L 4255 4655 
z
" transform="scale(0.015625)"/>
        <path id="Inter-Regular-6f" d="M 1909 -73 
Q 1436 -73 1080 152 
Q 725 377 526 781 
Q 327 1186 327 1727 
Q 327 2273 526 2679 
Q 725 3086 1080 3311 
Q 1436 3536 1909 3536 
Q 2382 3536 2737 3311 
Q 3093 3086 3292 2679 
Q 3491 2273 3491 1727 
Q 3491 1186 3292 781 
Q 3093 377 2737 152 
Q 2382 -73 1909 -73 
z
M 1909 409 
Q 2268 409 2500 593 
Q 2732 777 2843 1077 
Q 2955 1377 2955 1727 
Q 2955 2077 2843 2379 
Q 2732 2682 2500 2868 
Q 2268 3055 1909 3055 
Q 1550 3055 1318 2868 
Q 1086 2682 975 2379 
Q 864 2077 864 1727 
Q 864 1377 975 1077 
Q 1086 777 1318 593 
Q 1550 409 1909 409 
z
" transform="scale(0.015625)"/>
        <path id="Inter-Regular-76" d="M 3346 3491 
L 2055 0 
L 1509 0 
L 218 3491 
L 800 3491 
L 1764 709 
L 1800 709 
L 2764 3491 
L 3346 3491 
z
" transform="scale(0.015625)"/>
       </defs>
       <use xlink:href="#Inter-Regular-30"/>
       <use xlink:href="#Inter-Regular-31" x="62.500015"/>
       <use xlink:href="#Inter-Regular-20" x="106.676163"/>
       <use xlink:href="#Inter-Regular-4e" x="134.801163"/>
       <use xlink:href="#Inter-Regular-6f" x="210.085266"/>
       <use xlink:href="#Inter-Regular-76" x="269.74437"/>
      </g>
     </g>
    </g>
    <g id="xtick_10">
     <g id="line2d_10">
      <g>
       <use xlink:href="#m71757ba68b" x="350.68585" y="476.745" style="stroke: #000000; stroke-width: 0.8"/>
      </g>
     </g>
    </g>
    <g id="xtick_11">
     <g id="line2d_11">
      <g>
       <use xlink:href="#m71757ba68b" x="382.487437" y="476.745" style="stroke: #000000; stroke-width: 0.8"/>
      </g>
     </g>
     <g id="text_6">
      <!-- 01 Jan -->
      <g transform="translate(367.288218 491.018437)scale(0.1 -0.1)">
       <defs>
        <path id="Inter-Regular-6e" d="M 1027 2100 
L 1027 0 
L 491 0 
L 491 3491 
L 1009 3491 
L 1009 2945 
L 1055 2945 
Q 1177 3211 1427 3373 
Q 1677 3536 2073 3536 
Q 2602 3536 2928 3211 
Q 3255 2886 3255 2218 
L 3255 0 
L 2718 0 
L 2718 2182 
Q 2718 2593 2504 2824 
Q 2291 3055 1918 3055 
Q 1534 3055 1280 2806 
Q 1027 2557 1027 2100 
z
" transform="scale(0.015625)"/>
       </defs>
       <use xlink:href="#Inter-Regular-30"/>
       <use xlink:href="#Inter-Regular-31" x="62.500015"/>
       <use xlink:href="#Inter-Regular-20" x="106.676163"/>
       <use xlink:href="#Inter-Regular-4a" x="134.801163"/>
       <use xlink:href="#Inter-Regular-61" x="189.062531"/>
       <use xlink:href="#Inter-Regular-6e" x="245.45459"/>
      </g>
     </g>
    </g>
    <g id="xtick_12">
     <g id="line2d_12">
      <g>
       <use xlink:href="#m71757ba68b" x="414.289023" y="476.745" style="stroke: #000000; stroke-width: 0.8"/>
      </g>
     </g>
    </g>
    <g id="xtick_13">
     <g id="line2d_13">
      <g>
       <use xlink:href="#m71757ba68b" x="443.013037" y="476.745" style="stroke: #000000; stroke-width: 0.8"/>
      </g>
     </g>
     <g id="text_7">
      <!-- 01 Mar -->
      <g transform="translate(426.976319 491.018437)scale(0.1 -0.1)">
       <use xlink:href="#Inter-Regular-30"/>
       <use xlink:href="#Inter-Regular-31" x="62.500015"/>
       <use xlink:href="#Inter-Regular-20" x="106.676163"/>
       <use xlink:href="#Inter-Regular-4d" x="134.801163"/>
       <use xlink:href="#Inter-Regular-61" x="225.99437"/>
       <use xlink:href="#Inter-Regular-72" x="282.386429"/>
      </g>
     </g>
    </g>
    <g id="xtick_14">
     <g id="line2d_14">
      <g>
       <use xlink:href="#m71757ba68b" x="474.814624" y="476.745" style="stroke: #000000; stroke-width: 0.8"/>
      </g>
     </g>
    </g>
    <g id="xtick_15">
     <g id="line2d_15">
      <g>
       <use xlink:href="#m71757ba68b" x="505.590353" y="476.745" style="stroke: #000000; stroke-width: 0.8"/>
      </g>
     </g>
     <g id="text_8">
      <!-- 01 May -->
      <g transform="translate(488.687228 491.116875)scale(0.1 -0.1)">
       <use xlink:href="#Inter-Regular-30"/>
       <use xlink:href="#Inter-Regular-31" x="62.500015"/>
       <use xlink:href="#Inter-Regular-20" x="106.676163"/>
       <use xlink:href="#Inter-Regular-4d" x="134.801163"/>
       <use xlink:href="#Inter-Regular-61" x="225.99437"/>
       <use xlink:href="#Inter-Regular-79" x="282.386429"/>
      </g>
     </g>
    </g>
    <g id="xtick_16">
     <g id="line2d_16">
      <g>
       <use xlink:href="#m71757ba68b" x="537.39194" y="476.745" style="stroke: #000000; stroke-width: 0.8"/>
      </g>
     </g>
    </g>
    <g id="xtick_17">
     <g id="line2d_17">
      <g>
       <use xlink:href="#m71757ba68b" x="568.167669" y="476.745" style="stroke: #000000; stroke-width: 0.8"/>
      </g>
     </g>
     <g id="text_9">
      <!-- 01 Jul -->
      <g transform="translate(554.623919 491.018437)scale(0.1 -0.1)">
       <use xlink:href="#Inter-Regular-30"/>
       <use xlink:href="#Inter-Regular-31" x="62.500015"/>
       <use xlink:href="#Inter-Regular-20" x="106.676163"/>
       <use xlink:href="#Inter-Regular-4a" x="134.801163"/>
       <use xlink:href="#Inter-Regular-75" x="189.062531"/>
       <use xlink:href="#Inter-Regular-6c" x="247.159134"/>
      </g>
     </g>
    </g>
    <g id="xtick_18">
     <g id="line2d_18">
      <g>
       <use xlink:href="#m71757ba68b" x="599.969256" y="476.745" style="stroke: #000000; stroke-width: 0.8"/>
      </g>
     </g>
    </g>
    <g id="xtick_19">
     <g id="line2d_19">
      <g>
       <use xlink:href="#m71757ba68b" x="631.770842" y="476.745" style="stroke: #000000; stroke-width: 0.8"/>
      </g>
     </g>
     <g id="text_10">
      <!-- 01 Sep -->
      <g transform="translate(615.883342 491.116875)scale(0.1 -0.1)">
       <use xlink:href="#Inter-Regular-30"/>
       <use xlink:href="#Inter-Regular-31" x="62.500015"/>
       <use xlink:href="#Inter-Regular-20" x="106.676163"/>
       <use xlink:href="#Inter-Regular-53" x="134.801163"/>
       <use xlink:href="#Inter-Regular-65" x="198.57959"/>
       <use xlink:href="#Inter-Regular-70" x="256.818237"/>
      </g>
     </g>
    </g>
    <g id="xtick_20">
     <g id="line2d_20">
      <g>
       <use xlink:href="#m71757ba68b" x="662.546571" y="476.745" style="stroke: #000000; stroke-width: 0.8"/>
      </g>
     </g>
    </g>
    <g id="xtick_21">
     <g id="line2d_21">
      <g>
       <use xlink:href="#m71757ba68b" x="694.348158" y="476.745" style="stroke: #000000; stroke-width: 0.8"/>
      </g>
     </g>
     <g id="text_11">
      <!-- 01 Nov -->
      <g transform="translate(678.077064 491.018437)scale(0.1 -0.1)">
       <use xlink:href="#Inter-Regular-30"/>
       <use xlink:href="#Inter-Regular-31" x="62.500015"/>
       <use xlink:href="#Inter-Regular-20" x="106.676163"/>
       <use xlink:href="#Inter-Regular-4e" x="134.801163"/>
       <use xlink:href="#Inter-Regular-6f" x="210.085266"/>
       <use xlink:href="#Inter-Regular-76" x="269.74437"/>
      </g>
     </g>
    </g>
    <g id="xtick_22">
     <g id="line2d_22">
      <g>
       <use xlink:href="#m71757ba68b" x="725.123887" y="476.745" style="stroke: #000000; stroke-width: 0.8"/>
      </g>
     </g>
    </g>
   </g>
   <g id="matplotlib.axis_2">
    <g id="ytick_1">
     <g id="line2d_23">
      <path d="M 68.575 476.745 
L 738.175 476.745 
" clip-path="url(#pbb11cbb168)" style="fill: none; stroke: #e5e5e5; stroke-width: 0.8; stroke-linecap: square"/>
     </g>
     <g id="line2d_24">
      <defs>
       <path id="m4b824f0814" d="M 0 0 
L -3.5 0 
" style="stroke: #000000; stroke-width: 0.8"/>
      </defs>
      <g>
       <use xlink:href="#m4b824f0814" x="68.575" y="476.745" style="stroke: #000000; stroke-width: 0.8"/>
      </g>
     </g>
     <g id="text_12">
      <!-- 0.00% -->
      <g transform="translate(31.94375 480.381719)scale(0.1 -0.1)">
       <defs>
        <path id="Inter-Regular-2e" d="M 882 -36 
Q 714 -36 593 84 
Q 473 205 473 373 
Q 473 541 593 661 
Q 714 782 882 782 
Q 1050 782 1170 661 
Q 1291 541 1291 373 
Q 1291 205 1170 84 
Q 1050 -36 882 -36 
z
" transform="scale(0.015625)"/>
        <path id="Inter-Regular-25" d="M 2855 873 
L 2855 1118 
Q 2855 1373 2960 1585 
Q 3066 1798 3269 1926 
Q 3473 2055 3764 2055 
Q 4059 2055 4259 1926 
Q 4459 1798 4561 1585 
Q 4664 1373 4664 1118 
L 4664 873 
Q 4664 618 4560 405 
Q 4457 193 4256 64 
Q 4055 -64 3764 -64 
Q 3468 -64 3266 64 
Q 3064 193 2959 405 
Q 2855 618 2855 873 
z
M 536 3536 
L 536 3782 
Q 536 4036 642 4248 
Q 748 4461 951 4589 
Q 1155 4718 1446 4718 
Q 1741 4718 1941 4589 
Q 2141 4461 2243 4248 
Q 2346 4036 2346 3782 
L 2346 3536 
Q 2346 3282 2242 3069 
Q 2139 2857 1937 2728 
Q 1736 2600 1446 2600 
Q 1150 2600 948 2728 
Q 746 2857 641 3069 
Q 536 3282 536 3536 
z
M 709 0 
L 3909 4655 
L 4427 4655 
L 1227 0 
L 709 0 
z
M 3318 1118 
L 3318 873 
Q 3318 661 3418 494 
Q 3518 327 3764 327 
Q 4002 327 4101 494 
Q 4200 661 4200 873 
L 4200 1118 
Q 4200 1330 4104 1497 
Q 4009 1664 3764 1664 
Q 3525 1664 3421 1497 
Q 3318 1330 3318 1118 
z
M 1000 3782 
L 1000 3536 
Q 1000 3325 1100 3158 
Q 1200 2991 1446 2991 
Q 1684 2991 1783 3158 
Q 1882 3325 1882 3536 
L 1882 3782 
Q 1882 3993 1786 4160 
Q 1691 4327 1446 4327 
Q 1207 4327 1103 4160 
Q 1000 3993 1000 3782 
z
" transform="scale(0.015625)"/>
       </defs>
       <use xlink:href="#Inter-Regular-30"/>
       <use xlink:href="#Inter-Regular-2e" x="62.500015"/>
       <use xlink:href="#Inter-Regular-30" x="90.056839"/>
       <use xlink:href="#Inter-Regular-30" x="152.556854"/>
       <use xlink:href="#Inter-Regular-25" x="215.05687"/>
      </g>
     </g>
    </g>
    <g id="ytick_2">
     <g id="line2d_25">
      <path d="M 68.575 408.974546 
L 738.175 408.974546 
" clip-path="url(#pbb11cbb168)" style="fill: none; stroke: #e5e5e5; stroke-width: 0.8; stroke-linecap: square"/>
     </g>
     <g id="line2d_26">
      <g>
       <use xlink:href="#m4b824f0814" x="68.575" y="408.974546" style="stroke: #000000; stroke-width: 0.8"/>
      </g>
     </g>
     <g id="text_13">
      <!-- 0.01% -->
      <g transform="translate(33.776563 412.611265)scale(0.1 -0.1)">
       <use xlink:href="#Inter-Regular-30"/>
       <use xlink:href="#Inter-Regular-2e" x="62.500015"/>
       <use xlink:href="#Inter-Regular-30" x="90.056839"/>
       <use xlink:href="#Inter-Regular-31" x="152.556854"/>
       <use xlink:href="#Inter-Regular-25" x="196.733002"/>
      </g>
     </g>
    </g>
    <g id="ytick_3">
     <g id="line2d_27">
      <path d="M 68.575 341.204092 
L 738.175 341.204092 
" clip-path="url(#pbb11cbb168)" style="fill: none; stroke: #e5e5e5; stroke-width: 0.8; stroke-linecap: square"/>
     </g>
     <g id="line2d_28">
      <g>
       <use xlink:href="#m4b824f0814" x="68.575" y="341.204092" style="stroke: #000000; stroke-width: 0.8"/>
      </g>
     </g>
     <g id="text_14">
      <!-- 0.02% -->
      <g transform="translate(32.142188 344.84081)scale(0.1 -0.1)">
       <defs>
        <path id="Inter-Regular-32" d="M 482 0 
L 482 409 
L 2018 2091 
Q 2289 2386 2464 2605 
Q 2639 2825 2724 3019 
Q 2809 3214 2809 3427 
Q 2809 3795 2553 4011 
Q 2298 4227 1918 4227 
Q 1514 4227 1275 3985 
Q 1036 3743 1036 3345 
L 500 3345 
Q 500 3755 688 4064 
Q 877 4373 1203 4545 
Q 1530 4718 1936 4718 
Q 2346 4718 2661 4545 
Q 2977 4373 3156 4079 
Q 3336 3786 3336 3427 
Q 3336 3170 3244 2926 
Q 3152 2682 2926 2383 
Q 2700 2084 2300 1655 
L 1255 536 
L 1255 500 
L 3418 500 
L 3418 0 
L 482 0 
z
" transform="scale(0.015625)"/>
       </defs>
       <use xlink:href="#Inter-Regular-30"/>
       <use xlink:href="#Inter-Regular-2e" x="62.500015"/>
       <use xlink:href="#Inter-Regular-30" x="90.056839"/>
       <use xlink:href="#Inter-Regular-32" x="152.556854"/>
       <use xlink:href="#Inter-Regular-25" x="213.068237"/>
      </g>
     </g>
    </g>
    <g id="ytick_4">
     <g id="line2d_29">
      <path d="M 68.575 273.433637 
L 738.175 273.433637 
" clip-path="url(#pbb11cbb168)" style="fill: none; stroke: #e5e5e5; stroke-width: 0.8; stroke-linecap: square"/>
     </g>
     <g id="line2d_30">
      <g>
       <use xlink:href="#m4b824f0814" x="68.575" y="273.433637" style="stroke: #000000; stroke-width: 0.8"/>
      </g>
     </g>
     <g id="text_15">
      <!-- 0.03% -->
      <g transform="translate(31.829688 277.070356)scale(0.1 -0.1)">
       <defs>
        <path id="Inter-Regular-33" d="M 2055 -64 
Q 1605 -64 1253 90 
Q 902 245 696 521 
Q 491 798 473 1164 
L 1046 1164 
Q 1071 827 1356 631 
Q 1641 436 2046 436 
Q 2493 436 2783 664 
Q 3073 893 3073 1264 
Q 3073 1650 2787 1893 
Q 2502 2136 1973 2136 
L 1600 2136 
L 1600 2636 
L 1973 2636 
Q 2386 2636 2647 2856 
Q 2909 3077 2909 3445 
Q 2909 3798 2679 4012 
Q 2450 4227 2064 4227 
Q 1823 4227 1610 4139 
Q 1398 4052 1264 3887 
Q 1130 3723 1118 3491 
L 573 3491 
Q 586 3857 793 4133 
Q 1000 4409 1335 4563 
Q 1671 4718 2073 4718 
Q 2505 4718 2814 4544 
Q 3123 4370 3289 4086 
Q 3455 3802 3455 3473 
Q 3455 3080 3249 2802 
Q 3043 2525 2691 2418 
L 2691 2382 
Q 3132 2309 3379 2008 
Q 3627 1707 3627 1264 
Q 3627 884 3421 583 
Q 3216 282 2861 109 
Q 2507 -64 2055 -64 
z
" transform="scale(0.015625)"/>
       </defs>
       <use xlink:href="#Inter-Regular-30"/>
       <use xlink:href="#Inter-Regular-2e" x="62.500015"/>
       <use xlink:href="#Inter-Regular-30" x="90.056839"/>
       <use xlink:href="#Inter-Regular-33" x="152.556854"/>
       <use xlink:href="#Inter-Regular-25" x="216.193237"/>
      </g>
     </g>
    </g>
    <g id="ytick_5">
     <g id="line2d_31">
      <path d="M 68.575 205.663183 
L 738.175 205.663183 
" clip-path="url(#pbb11cbb168)" style="fill: none; stroke: #e5e5e5; stroke-width: 0.8; stroke-linecap: square"/>
     </g>
     <g id="line2d_32">
      <g>
       <use xlink:href="#m4b824f0814" x="68.575" y="205.663183" style="stroke: #000000; stroke-width: 0.8"/>
      </g>
     </g>
     <g id="text_16">
      <!-- 0.04% -->
      <g transform="translate(31.773438 209.299902)scale(0.1 -0.1)">
       <defs>
        <path id="Inter-Regular-34" d="M 373 955 
L 373 1418 
L 2418 4655 
L 3100 4655 
L 3100 1455 
L 3736 1455 
L 3736 955 
L 3100 955 
L 3100 0 
L 2564 0 
L 2564 955 
L 373 955 
z
M 2564 1455 
L 2564 3936 
L 2527 3936 
L 982 1491 
L 982 1455 
L 2564 1455 
z
" transform="scale(0.015625)"/>
       </defs>
       <use xlink:href="#Inter-Regular-30"/>
       <use xlink:href="#Inter-Regular-2e" x="62.500015"/>
       <use xlink:href="#Inter-Regular-30" x="90.056839"/>
       <use xlink:href="#Inter-Regular-34" x="152.556854"/>
       <use xlink:href="#Inter-Regular-25" x="216.761414"/>
      </g>
     </g>
    </g>
    <g id="ytick_6">
     <g id="line2d_33">
      <path d="M 68.575 137.892729 
L 738.175 137.892729 
" clip-path="url(#pbb11cbb168)" style="fill: none; stroke: #e5e5e5; stroke-width: 0.8; stroke-linecap: square"/>
     </g>
     <g id="line2d_34">
      <g>
       <use xlink:href="#m4b824f0814" x="68.575" y="137.892729" style="stroke: #000000; stroke-width: 0.8"/>
      </g>
     </g>
     <g id="text_17">
      <!-- 0.05% -->
      <g transform="translate(32.114063 141.529448)scale(0.1 -0.1)">
       <defs>
        <path id="Inter-Regular-35" d="M 1936 -64 
Q 1536 -64 1216 95 
Q 896 255 702 532 
Q 509 809 491 1164 
L 1036 1164 
Q 1068 848 1324 642 
Q 1580 436 1936 436 
Q 2223 436 2447 570 
Q 2671 705 2799 940 
Q 2927 1175 2927 1473 
Q 2927 1777 2794 2017 
Q 2661 2257 2429 2395 
Q 2198 2534 1900 2536 
Q 1686 2539 1461 2472 
Q 1236 2405 1091 2300 
L 564 2364 
L 846 4655 
L 3264 4655 
L 3264 4155 
L 1318 4155 
L 1155 2782 
L 1182 2782 
Q 1325 2895 1541 2970 
Q 1757 3045 1991 3045 
Q 2418 3045 2753 2842 
Q 3089 2639 3281 2286 
Q 3473 1934 3473 1482 
Q 3473 1036 3274 687 
Q 3075 339 2727 137 
Q 2380 -64 1936 -64 
z
" transform="scale(0.015625)"/>
       </defs>
       <use xlink:href="#Inter-Regular-30"/>
       <use xlink:href="#Inter-Regular-2e" x="62.500015"/>
       <use xlink:href="#Inter-Regular-30" x="90.056839"/>
       <use xlink:href="#Inter-Regular-35" x="152.556854"/>
       <use xlink:href="#Inter-Regular-25" x="213.352325"/>
      </g>
     </g>
    </g>
    <g id="ytick_7">
     <g id="line2d_35">
      <path d="M 68.575 70.122275 
L 738.175 70.122275 
" clip-path="url(#pbb11cbb168)" style="fill: none; stroke: #e5e5e5; stroke-width: 0.8; stroke-linecap: square"/>
     </g>
     <g id="line2d_36">
      <g>
       <use xlink:href="#m4b824f0814" x="68.575" y="70.122275" style="stroke: #000000; stroke-width: 0.8"/>
      </g>
     </g>
     <g id="text_18">
      <!-- 0.06% -->
      <g transform="translate(31.957813 73.758993)scale(0.1 -0.1)">
       <defs>
        <path id="Inter-Regular-36" d="M 2027 -64 
Q 1741 -59 1454 45 
Q 1168 150 932 399 
Q 696 648 552 1074 
Q 409 1500 409 2145 
Q 409 3386 861 4056 
Q 1314 4727 2100 4727 
Q 2686 4727 3073 4384 
Q 3461 4041 3546 3491 
L 2991 3491 
Q 2914 3811 2691 4019 
Q 2468 4227 2100 4227 
Q 1559 4227 1249 3755 
Q 939 3284 936 2427 
L 973 2427 
Q 1164 2716 1461 2880 
Q 1759 3045 2118 3045 
Q 2518 3045 2850 2846 
Q 3182 2648 3382 2299 
Q 3582 1950 3582 1500 
Q 3582 1068 3389 710 
Q 3196 352 2847 142 
Q 2498 -68 2027 -64 
z
M 2027 436 
Q 2314 436 2542 579 
Q 2771 723 2903 964 
Q 3036 1205 3036 1500 
Q 3036 1789 2908 2026 
Q 2780 2264 2556 2404 
Q 2332 2545 2046 2545 
Q 1757 2545 1525 2397 
Q 1293 2250 1157 2010 
Q 1021 1770 1018 1491 
Q 1018 1214 1149 973 
Q 1280 732 1508 584 
Q 1736 436 2027 436 
z
" transform="scale(0.015625)"/>
       </defs>
       <use xlink:href="#Inter-Regular-30"/>
       <use xlink:href="#Inter-Regular-2e" x="62.500015"/>
       <use xlink:href="#Inter-Regular-30" x="90.056839"/>
       <use xlink:href="#Inter-Regular-36" x="152.556854"/>
       <use xlink:href="#Inter-Regular-25" x="214.914825"/>
      </g>
     </g>
    </g>
    <g id="text_19">
     <!-- Percent of nation Patients in hospital with COVID-19 (seven day average) -->
     <g transform="translate(25.614063 428.013125)rotate(-90)scale(0.1 -0.1)">
      <defs>
       <path id="Inter-Regular-50" d="M 564 0 
L 564 4655 
L 2136 4655 
Q 2684 4655 3033 4458 
Q 3382 4261 3550 3927 
Q 3718 3593 3718 3182 
Q 3718 2770 3551 2434 
Q 3384 2098 3036 1899 
Q 2689 1700 2146 1700 
L 1127 1700 
L 1127 0 
L 564 0 
z
M 1127 2200 
L 2127 2200 
Q 2689 2200 2926 2482 
Q 3164 2764 3164 3182 
Q 3164 3602 2925 3878 
Q 2686 4155 2118 4155 
L 1127 4155 
L 1127 2200 
z
" transform="scale(0.015625)"/>
       <path id="Inter-Regular-63" d="M 1909 -73 
Q 1418 -73 1063 159 
Q 709 391 518 798 
Q 327 1205 327 1727 
Q 327 2259 524 2667 
Q 721 3075 1074 3305 
Q 1427 3536 1900 3536 
Q 2268 3536 2563 3400 
Q 2859 3264 3047 3018 
Q 3236 2773 3282 2445 
L 2746 2445 
Q 2684 2684 2474 2869 
Q 2264 3055 1909 3055 
Q 1439 3055 1151 2697 
Q 864 2339 864 1745 
Q 864 1139 1148 774 
Q 1432 409 1909 409 
Q 2223 409 2447 570 
Q 2671 732 2746 1018 
L 3282 1018 
Q 3236 709 3058 462 
Q 2880 216 2588 71 
Q 2296 -73 1909 -73 
z
" transform="scale(0.015625)"/>
       <path id="Inter-Regular-74" d="M 2009 3491 
L 2009 3036 
L 1264 3036 
L 1264 1000 
Q 1264 773 1331 660 
Q 1398 548 1503 510 
Q 1609 473 1727 473 
Q 1816 473 1873 483 
Q 1930 493 1964 500 
L 2073 18 
Q 2018 -2 1920 -23 
Q 1823 -45 1673 -45 
Q 1446 -45 1228 52 
Q 1011 150 869 350 
Q 727 550 727 855 
L 727 3036 
L 200 3036 
L 200 3491 
L 727 3491 
L 727 4327 
L 1264 4327 
L 1264 3491 
L 2009 3491 
z
" transform="scale(0.015625)"/>
       <path id="Inter-Regular-66" d="M 2046 3491 
L 2046 3036 
L 1264 3036 
L 1264 0 
L 727 0 
L 727 3036 
L 164 3036 
L 164 3491 
L 727 3491 
L 727 3973 
Q 727 4273 868 4473 
Q 1009 4673 1234 4773 
Q 1459 4873 1709 4873 
Q 1907 4873 2032 4841 
Q 2157 4809 2218 4782 
L 2064 4318 
Q 2023 4332 1951 4352 
Q 1880 4373 1764 4373 
Q 1498 4373 1381 4239 
Q 1264 4105 1264 3845 
L 1264 3491 
L 2046 3491 
z
" transform="scale(0.015625)"/>
       <path id="Inter-Regular-69" d="M 491 0 
L 491 3491 
L 1027 3491 
L 1027 0 
L 491 0 
z
M 764 4073 
Q 607 4073 494 4179 
Q 382 4286 382 4436 
Q 382 4586 494 4693 
Q 607 4800 764 4800 
Q 921 4800 1033 4693 
Q 1146 4586 1146 4436 
Q 1146 4286 1033 4179 
Q 921 4073 764 4073 
z
" transform="scale(0.015625)"/>
       <path id="Inter-Regular-73" d="M 2964 2709 
L 2482 2573 
Q 2411 2755 2245 2914 
Q 2080 3073 1727 3073 
Q 1407 3073 1194 2926 
Q 982 2780 982 2555 
Q 982 2355 1127 2239 
Q 1273 2123 1582 2045 
L 2100 1918 
Q 3027 1691 3027 973 
Q 3027 673 2855 436 
Q 2684 200 2377 63 
Q 2071 -73 1664 -73 
Q 1130 -73 780 159 
Q 430 391 336 836 
L 846 964 
Q 989 400 1655 400 
Q 2030 400 2251 560 
Q 2473 720 2473 945 
Q 2473 1316 1955 1436 
L 1373 1573 
Q 893 1686 669 1926 
Q 446 2166 446 2527 
Q 446 2823 613 3050 
Q 780 3277 1069 3406 
Q 1359 3536 1727 3536 
Q 2246 3536 2542 3309 
Q 2839 3082 2964 2709 
z
" transform="scale(0.015625)"/>
       <path id="Inter-Regular-68" d="M 1027 2100 
L 1027 0 
L 491 0 
L 491 4655 
L 1027 4655 
L 1027 2945 
L 1073 2945 
Q 1196 3216 1442 3376 
Q 1689 3536 2100 3536 
Q 2636 3536 2963 3213 
Q 3291 2891 3291 2218 
L 3291 0 
L 2755 0 
L 2755 2182 
Q 2755 2598 2540 2826 
Q 2325 3055 1946 3055 
Q 1548 3055 1287 2806 
Q 1027 2557 1027 2100 
z
" transform="scale(0.015625)"/>
       <path id="Inter-Regular-77" d="M 1282 0 
L 218 3491 
L 782 3491 
L 1536 818 
L 1573 818 
L 2318 3491 
L 2891 3491 
L 3627 827 
L 3664 827 
L 4418 3491 
L 4982 3491 
L 3918 0 
L 3391 0 
L 2627 2682 
L 2573 2682 
L 1809 0 
L 1282 0 
z
" transform="scale(0.015625)"/>
       <path id="Inter-Regular-43" d="M 4309 3200 
L 3746 3200 
Q 3677 3523 3484 3743 
Q 3291 3964 3018 4077 
Q 2746 4191 2436 4191 
Q 2014 4191 1672 3977 
Q 1330 3764 1128 3348 
Q 927 2932 927 2327 
Q 927 1723 1128 1307 
Q 1330 891 1672 677 
Q 2014 464 2436 464 
Q 2746 464 3018 577 
Q 3291 691 3484 911 
Q 3677 1132 3746 1455 
L 4309 1455 
Q 4223 977 3957 637 
Q 3691 298 3298 117 
Q 2905 -64 2436 -64 
Q 1841 -64 1377 227 
Q 914 518 648 1054 
Q 382 1591 382 2327 
Q 382 3064 648 3600 
Q 914 4136 1377 4427 
Q 1841 4718 2436 4718 
Q 2905 4718 3298 4537 
Q 3691 4357 3957 4017 
Q 4223 3677 4309 3200 
z
" transform="scale(0.015625)"/>
       <path id="Inter-Regular-4f" d="M 4491 2327 
Q 4491 1591 4225 1054 
Q 3959 518 3495 227 
Q 3032 -64 2436 -64 
Q 1841 -64 1377 227 
Q 914 518 648 1054 
Q 382 1591 382 2327 
Q 382 3064 648 3600 
Q 914 4136 1377 4427 
Q 1841 4718 2436 4718 
Q 3032 4718 3495 4427 
Q 3959 4136 4225 3600 
Q 4491 3064 4491 2327 
z
M 3946 2327 
Q 3946 2932 3744 3348 
Q 3543 3764 3201 3977 
Q 2859 4191 2436 4191 
Q 2014 4191 1672 3977 
Q 1330 3764 1128 3348 
Q 927 2932 927 2327 
Q 927 1723 1128 1307 
Q 1330 891 1672 677 
Q 2014 464 2436 464 
Q 2859 464 3201 677 
Q 3543 891 3744 1307 
Q 3946 1723 3946 2327 
z
" transform="scale(0.015625)"/>
       <path id="Inter-Regular-56" d="M 755 4655 
L 2136 736 
L 2191 736 
L 3573 4655 
L 4164 4655 
L 2455 0 
L 1873 0 
L 164 4655 
L 755 4655 
z
" transform="scale(0.015625)"/>
       <path id="Inter-Regular-49" d="M 1127 4655 
L 1127 0 
L 564 0 
L 564 4655 
L 1127 4655 
z
" transform="scale(0.015625)"/>
       <path id="Inter-Regular-44" d="M 2000 0 
L 564 0 
L 564 4655 
L 2064 4655 
Q 2741 4655 3223 4376 
Q 3705 4098 3961 3578 
Q 4218 3059 4218 2336 
Q 4218 1609 3959 1085 
Q 3700 561 3204 280 
Q 2709 0 2000 0 
z
M 1127 500 
L 1964 500 
Q 2830 500 3251 992 
Q 3673 1484 3673 2336 
Q 3673 3182 3259 3668 
Q 2846 4155 2027 4155 
L 1127 4155 
L 1127 500 
z
" transform="scale(0.015625)"/>
       <path id="Inter-Regular-2d" d="M 2491 2245 
L 2491 1745 
L 455 1745 
L 455 2245 
L 2491 2245 
z
" transform="scale(0.015625)"/>
       <path id="Inter-Regular-39" d="M 1964 4727 
Q 2250 4725 2536 4618 
Q 2823 4511 3059 4263 
Q 3296 4016 3439 3590 
Q 3582 3164 3582 2518 
Q 3582 1277 3128 606 
Q 2675 -64 1891 -64 
Q 1305 -64 916 278 
Q 527 620 446 1173 
L 1000 1173 
Q 1075 852 1299 644 
Q 1523 436 1891 436 
Q 2430 436 2742 906 
Q 3055 1377 3055 2236 
L 3018 2236 
Q 2827 1950 2530 1784 
Q 2234 1618 1873 1618 
Q 1473 1618 1140 1817 
Q 807 2016 608 2365 
Q 409 2714 409 3164 
Q 409 3595 601 3952 
Q 793 4309 1142 4520 
Q 1491 4732 1964 4727 
z
M 1964 4227 
Q 1677 4227 1449 4084 
Q 1221 3941 1088 3700 
Q 955 3459 955 3164 
Q 955 2873 1083 2635 
Q 1211 2398 1435 2258 
Q 1659 2118 1946 2118 
Q 2232 2118 2465 2266 
Q 2698 2414 2835 2654 
Q 2973 2895 2973 3173 
Q 2973 3450 2842 3691 
Q 2711 3932 2483 4079 
Q 2255 4227 1964 4227 
z
" transform="scale(0.015625)"/>
       <path id="Inter-Regular-28" d="M 682 1964 
Q 682 2823 906 3544 
Q 1130 4266 1546 4873 
L 2018 4873 
Q 1800 4573 1623 4095 
Q 1446 3618 1341 3061 
Q 1236 2505 1236 1964 
Q 1236 1423 1341 866 
Q 1446 309 1623 -168 
Q 1800 -645 2018 -945 
L 1546 -945 
Q 1130 -339 906 383 
Q 682 1105 682 1964 
z
" transform="scale(0.015625)"/>
       <path id="Inter-Regular-64" d="M 1809 -73 
Q 1373 -73 1039 148 
Q 705 370 516 776 
Q 327 1182 327 1736 
Q 327 2286 516 2690 
Q 705 3095 1041 3315 
Q 1377 3536 1818 3536 
Q 2159 3536 2358 3423 
Q 2557 3311 2662 3169 
Q 2768 3027 2827 2936 
L 2873 2936 
L 2873 4655 
L 3409 4655 
L 3409 0 
L 2891 0 
L 2891 536 
L 2827 536 
Q 2768 441 2659 296 
Q 2550 152 2348 39 
Q 2146 -73 1809 -73 
z
M 1882 409 
Q 2366 409 2624 780 
Q 2882 1152 2882 1745 
Q 2882 2332 2627 2693 
Q 2373 3055 1882 3055 
Q 1541 3055 1315 2881 
Q 1089 2707 976 2410 
Q 864 2114 864 1745 
Q 864 1373 978 1069 
Q 1093 766 1319 587 
Q 1546 409 1882 409 
z
" transform="scale(0.015625)"/>
       <path id="Inter-Regular-67" d="M 1900 -1382 
Q 1316 -1382 976 -1169 
Q 636 -957 473 -682 
L 900 -382 
Q 973 -477 1084 -601 
Q 1196 -725 1390 -817 
Q 1584 -909 1900 -909 
Q 2323 -909 2598 -704 
Q 2873 -500 2873 -64 
L 2873 645 
L 2827 645 
Q 2768 550 2660 410 
Q 2552 270 2351 162 
Q 2150 55 1809 55 
Q 1386 55 1051 255 
Q 716 455 521 836 
Q 327 1218 327 1764 
Q 327 2300 516 2699 
Q 705 3098 1041 3317 
Q 1377 3536 1818 3536 
Q 2159 3536 2360 3423 
Q 2561 3311 2669 3169 
Q 2777 3027 2836 2936 
L 2891 2936 
L 2891 3491 
L 3409 3491 
L 3409 -100 
Q 3409 -550 3205 -833 
Q 3002 -1116 2660 -1249 
Q 2318 -1382 1900 -1382 
z
M 1882 536 
Q 2366 536 2624 864 
Q 2882 1193 2882 1773 
Q 2882 2339 2627 2697 
Q 2373 3055 1882 3055 
Q 1541 3055 1315 2882 
Q 1089 2709 976 2418 
Q 864 2127 864 1773 
Q 864 1227 1120 881 
Q 1377 536 1882 536 
z
" transform="scale(0.015625)"/>
       <path id="Inter-Regular-29" d="M 1638 1940 
Q 1638 1081 1414 359 
Q 1191 -362 775 -969 
L 302 -969 
Q 520 -669 697 -191 
Q 875 286 979 842 
Q 1084 1399 1084 1940 
Q 1084 2481 979 3038 
Q 875 3595 697 4072 
Q 520 4549 302 4849 
L 775 4849 
Q 1191 4243 1414 3521 
Q 1638 2799 1638 1940 
z
" transform="scale(0.015625)"/>
      </defs>
      <use xlink:href="#Inter-Regular-50"/>
      <use xlink:href="#Inter-Regular-65" x="63.494324"/>
      <use xlink:href="#Inter-Regular-72" x="121.732971"/>
      <use xlink:href="#Inter-Regular-63" x="160.085251"/>
      <use xlink:href="#Inter-Regular-65" x="215.909119"/>
      <use xlink:href="#Inter-Regular-6e" x="274.147766"/>
      <use xlink:href="#Inter-Regular-74" x="332.670502"/>
      <use xlink:href="#Inter-Regular-20" x="369.034149"/>
      <use xlink:href="#Inter-Regular-6f" x="397.159149"/>
      <use xlink:href="#Inter-Regular-66" x="456.818253"/>
      <use xlink:href="#Inter-Regular-20" x="492.897797"/>
      <use xlink:href="#Inter-Regular-6e" x="521.022797"/>
      <use xlink:href="#Inter-Regular-61" x="579.545532"/>
      <use xlink:href="#Inter-Regular-74" x="635.937592"/>
      <use xlink:href="#Inter-Regular-69" x="672.301239"/>
      <use xlink:href="#Inter-Regular-6f" x="696.022827"/>
      <use xlink:href="#Inter-Regular-6e" x="755.681931"/>
      <use xlink:href="#Inter-Regular-20" x="814.204666"/>
      <use xlink:href="#Inter-Regular-50" x="842.329666"/>
      <use xlink:href="#Inter-Regular-61" x="905.82399"/>
      <use xlink:href="#Inter-Regular-74" x="962.216049"/>
      <use xlink:href="#Inter-Regular-69" x="998.579697"/>
      <use xlink:href="#Inter-Regular-65" x="1022.301285"/>
      <use xlink:href="#Inter-Regular-6e" x="1080.539932"/>
      <use xlink:href="#Inter-Regular-74" x="1139.062668"/>
      <use xlink:href="#Inter-Regular-73" x="1175.426315"/>
      <use xlink:href="#Inter-Regular-20" x="1227.699051"/>
      <use xlink:href="#Inter-Regular-69" x="1255.824051"/>
      <use xlink:href="#Inter-Regular-6e" x="1279.545639"/>
      <use xlink:href="#Inter-Regular-20" x="1338.068375"/>
      <use xlink:href="#Inter-Regular-68" x="1366.193375"/>
      <use xlink:href="#Inter-Regular-6f" x="1425.284302"/>
      <use xlink:href="#Inter-Regular-73" x="1484.943405"/>
      <use xlink:href="#Inter-Regular-70" x="1537.216141"/>
      <use xlink:href="#Inter-Regular-69" x="1598.153656"/>
      <use xlink:href="#Inter-Regular-74" x="1621.875244"/>
      <use xlink:href="#Inter-Regular-61" x="1658.238892"/>
      <use xlink:href="#Inter-Regular-6c" x="1714.630951"/>
      <use xlink:href="#Inter-Regular-20" x="1738.352539"/>
      <use xlink:href="#Inter-Regular-77" x="1766.477539"/>
      <use xlink:href="#Inter-Regular-69" x="1847.727554"/>
      <use xlink:href="#Inter-Regular-74" x="1871.449142"/>
      <use xlink:href="#Inter-Regular-68" x="1907.81279"/>
      <use xlink:href="#Inter-Regular-20" x="1966.903717"/>
      <use xlink:href="#Inter-Regular-43" x="1995.028717"/>
      <use xlink:href="#Inter-Regular-4f" x="2067.756012"/>
      <use xlink:href="#Inter-Regular-56" x="2143.892395"/>
      <use xlink:href="#Inter-Regular-49" x="2211.506042"/>
      <use xlink:href="#Inter-Regular-44" x="2237.926498"/>
      <use xlink:href="#Inter-Regular-2d" x="2309.801514"/>
      <use xlink:href="#Inter-Regular-31" x="2355.824249"/>
      <use xlink:href="#Inter-Regular-39" x="2400.000397"/>
      <use xlink:href="#Inter-Regular-20" x="2462.358368"/>
      <use xlink:href="#Inter-Regular-28" x="2490.483368"/>
      <use xlink:href="#Inter-Regular-73" x="2526.704956"/>
      <use xlink:href="#Inter-Regular-65" x="2578.977692"/>
      <use xlink:href="#Inter-Regular-76" x="2637.216339"/>
      <use xlink:href="#Inter-Regular-65" x="2692.898163"/>
      <use xlink:href="#Inter-Regular-6e" x="2751.13681"/>
      <use xlink:href="#Inter-Regular-20" x="2809.659546"/>
      <use xlink:href="#Inter-Regular-64" x="2837.784546"/>
      <use xlink:href="#Inter-Regular-61" x="2899.858429"/>
      <use xlink:href="#Inter-Regular-79" x="2956.250488"/>
      <use xlink:href="#Inter-Regular-20" x="3011.932312"/>
      <use xlink:href="#Inter-Regular-61" x="3040.057312"/>
      <use xlink:href="#Inter-Regular-76" x="3096.449371"/>
      <use xlink:href="#Inter-Regular-65" x="3152.131195"/>
      <use xlink:href="#Inter-Regular-72" x="3210.369843"/>
      <use xlink:href="#Inter-Regular-61" x="3248.722122"/>
      <use xlink:href="#Inter-Regular-67" x="3305.114182"/>
      <use xlink:href="#Inter-Regular-65" x="3366.051697"/>
      <use xlink:href="#Inter-Regular-29" x="3424.290344"/>
     </g>
    </g>
   </g>
   <g id="line2d_37">
    <path d="M 88.066295 457.721532 
L 90.11801 451.051279 
L 93.195583 441.45727 
L 94.221441 437.509528 
L 96.273156 420.311006 
L 97.299014 410.413987 
L 98.324871 398.943146 
L 101.402444 360.892771 
L 102.428302 348.555037 
L 105.505875 307.730263 
L 107.55759 285.794794 
L 108.583448 274.979282 
L 109.609305 266.32068 
L 110.635163 260.928405 
L 111.661021 256.943108 
L 112.686878 254.419833 
L 113.712736 253.150455 
L 114.738594 253.52542 
L 115.764451 254.626236 
L 121.919597 274.679998 
L 122.945455 278.775376 
L 123.971312 282.363346 
L 128.074743 300.858766 
L 129.100601 305.664514 
L 130.126458 309.930174 
L 137.307462 334.356237 
L 139.359177 342.116986 
L 140.385035 345.94576 
L 142.43675 352.609134 
L 144.488465 357.975609 
L 145.514323 359.988038 
L 146.54018 362.624835 
L 147.566038 364.829906 
L 150.643611 372.055728 
L 153.721184 378.696741 
L 157.824614 387.13862 
L 159.87633 392.102609 
L 165.005618 404.393902 
L 167.057333 408.121195 
L 168.083191 409.786178 
L 172.186621 417.615728 
L 174.238337 421.564904 
L 175.264194 423.291808 
L 178.341767 427.571228 
L 179.367625 428.639363 
L 181.41934 430.460869 
L 187.574486 436.556635 
L 188.600343 437.788172 
L 190.652059 439.78168 
L 191.677916 440.45765 
L 193.729632 442.757322 
L 197.833062 447.239705 
L 198.85892 448.830727 
L 201.936493 452.072973 
L 203.988208 453.896199 
L 208.091639 457.128124 
L 210.143354 458.595305 
L 214.246784 460.798656 
L 215.272642 461.11514 
L 216.2985 461.550306 
L 222.453645 464.926714 
L 224.505361 465.520122 
L 228.608791 466.304453 
L 231.686364 467.032023 
L 233.738079 467.831835 
L 238.867368 468.862129 
L 241.944941 469.008331 
L 248.100086 469.883823 
L 251.177659 470.37747 
L 257.332805 470.907238 
L 260.410378 470.998399 
L 262.462093 471.003559 
L 265.539666 470.650954 
L 267.591381 470.217508 
L 269.643097 469.529499 
L 270.668954 469.087452 
L 273.746527 467.126625 
L 275.798243 465.723085 
L 279.901673 462.339797 
L 280.927531 461.373144 
L 282.979246 459.181833 
L 287.082677 454.971214 
L 290.160249 452.188215 
L 291.186107 451.083959 
L 292.211965 449.793941 
L 294.26368 446.390013 
L 300.418826 434.79705 
L 302.470541 430.261346 
L 305.548114 421.877948 
L 307.599829 415.369377 
L 311.70326 401.834506 
L 314.780833 389.544934 
L 316.832548 379.945479 
L 318.884263 371.243876 
L 319.910121 367.784907 
L 321.961836 359.327549 
L 325.039409 349.48901 
L 326.065267 346.509928 
L 328.116982 339.769153 
L 329.14284 337.942488 
L 330.168697 335.030487 
L 333.24627 324.701741 
L 336.323843 313.284221 
L 337.349701 310.256978 
L 338.375558 307.656302 
L 339.401416 306.09452 
L 340.427274 304.857822 
L 342.478989 303.366561 
L 343.504847 303.203159 
L 344.530704 303.633165 
L 346.582419 305.444351 
L 350.68585 311.805 
L 352.737565 315.313849 
L 353.763423 316.633108 
L 354.789281 317.045914 
L 355.815138 317.616962 
L 356.840996 317.857765 
L 357.866853 317.647922 
L 358.892711 317.209316 
L 361.970284 312.439689 
L 362.996142 310.253538 
L 365.047857 305.37039 
L 369.151287 291.328112 
L 370.177145 287.5905 
L 371.203003 283.022115 
L 372.22886 277.807002 
L 374.280576 269.456284 
L 375.306433 266.30004 
L 376.332291 262.572748 
L 378.384006 253.351698 
L 379.409864 246.946328 
L 383.513294 213.543458 
L 386.590867 185.059857 
L 388.642583 166.944563 
L 389.66844 155.227758 
L 392.746013 125.729343 
L 393.771871 115.865004 
L 395.823586 99.282251 
L 396.849444 92.374634 
L 397.875301 86.42163 
L 398.901159 81.959887 
L 399.927017 78.062312 
L 400.952874 74.943909 
L 401.978732 72.88504 
L 403.004589 72.351832 
L 404.030447 72.265831 
L 405.056305 72.797318 
L 406.082162 73.562729 
L 407.10802 75.967323 
L 408.133878 78.853524 
L 410.185593 89.073907 
L 412.237308 102.999223 
L 415.314881 127.310045 
L 416.340739 135.001993 
L 419.418312 161.636568 
L 421.470027 179.937625 
L 429.676888 252.76001 
L 431.728603 267.927183 
L 432.754461 274.7918 
L 434.806176 286.871529 
L 437.883749 305.148506 
L 440.961322 321.74158 
L 445.064753 345.22679 
L 447.116468 356.482628 
L 449.168183 366.665172 
L 451.219898 376.276667 
L 453.271614 384.918068 
L 454.297471 388.707282 
L 456.349187 395.109212 
L 458.400902 401.40106 
L 463.53019 414.751888 
L 466.607763 422.123912 
L 467.633621 424.394344 
L 468.659478 426.336251 
L 469.685336 427.906633 
L 472.762909 433.154427 
L 476.866339 439.489276 
L 479.943912 443.35417 
L 481.995627 445.321878 
L 484.047343 446.955901 
L 487.124916 449.843822 
L 490.202489 452.403218 
L 492.254204 453.882438 
L 498.40935 457.681972 
L 508.667926 462.957286 
L 511.745499 464.149263 
L 514.823072 464.878553 
L 516.874787 465.3894 
L 522.004075 466.596857 
L 524.055791 467.150705 
L 527.133363 467.542871 
L 529.185079 467.621992 
L 532.262652 467.627152 
L 536.366082 467.678752 
L 538.417797 467.563511 
L 542.521228 467.245306 
L 547.650516 466.435175 
L 551.753947 465.477122 
L 553.805662 464.794272 
L 555.857377 463.910179 
L 556.883235 463.530054 
L 558.93495 462.55308 
L 560.986665 461.951072 
L 563.038381 461.526226 
L 566.115954 460.697174 
L 568.167669 459.783841 
L 570.219384 458.602185 
L 572.271099 457.164245 
L 573.296957 456.213071 
L 575.348672 453.98908 
L 577.400388 451.350563 
L 579.452103 448.374921 
L 583.555533 441.520625 
L 587.658964 434.754049 
L 590.736537 429.635257 
L 591.762395 427.856752 
L 593.81411 423.692574 
L 595.865825 419.585156 
L 596.891683 418.164416 
L 597.91754 416.943199 
L 598.943398 415.943865 
L 599.969256 415.316056 
L 600.995113 414.87917 
L 602.020971 414.960011 
L 603.046829 415.369377 
L 604.072686 415.648021 
L 606.124401 416.459872 
L 608.176117 417.082521 
L 609.201974 417.116921 
L 611.25369 416.662835 
L 614.331263 415.752942 
L 616.382978 414.597086 
L 617.408835 413.838555 
L 620.486408 411.040076 
L 622.538124 408.967447 
L 624.589839 407.450385 
L 626.641554 406.32893 
L 627.667412 406.017605 
L 628.693269 405.835283 
L 629.719127 405.831843 
L 631.770842 404.634706 
L 635.874273 402.574117 
L 636.900131 401.932548 
L 637.925988 402.016829 
L 639.977703 401.786346 
L 642.029419 401.153377 
L 645.106992 400.749171 
L 646.132849 400.742291 
L 647.158707 401.039855 
L 649.210422 402.77364 
L 650.23628 403.733413 
L 651.262137 404.93227 
L 653.313853 407.858031 
L 655.365568 410.852593 
L 656.391426 411.863967 
L 657.417283 413.147105 
L 658.443141 414.18944 
L 660.494856 415.57578 
L 662.546571 416.495993 
L 663.572429 417.266563 
L 666.650002 418.131736 
L 668.701717 418.066375 
L 669.727575 417.76365 
L 675.882721 414.949691 
L 677.934436 413.48423 
L 678.960294 412.545097 
L 679.986151 411.286039 
L 681.012009 409.762098 
L 685.115439 402.584437 
L 687.167155 399.565794 
L 688.193012 398.217295 
L 691.270585 394.754887 
L 694.348158 390.800551 
L 695.374016 389.722096 
L 696.399873 389.137288 
L 697.425731 388.824243 
L 698.451589 388.894764 
L 699.477446 389.378091 
L 701.529162 390.859032 
L 702.555019 391.645083 
L 705.632592 393.304906 
L 708.710165 394.421202 
L 709.736023 395.160813 
L 711.787738 397.008118 
L 713.839453 398.581941 
L 717.942884 401.232498 
L 719.994599 402.240432 
L 721.020457 402.82352 
L 722.046314 403.566571 
L 723.072172 404.134179 
L 724.09803 404.364662 
L 725.123887 404.765428 
L 727.175603 405.271115 
L 728.20146 405.388076 
L 729.227318 405.365716 
L 731.279033 405.706281 
L 734.356606 404.543544 
L 736.408321 403.458209 
L 737.434179 402.765039 
L 737.434179 402.765039 
" clip-path="url(#pbb11cbb168)" style="fill: none; stroke: #5694ca; stroke-width: 2; stroke-linecap: square"/>
   </g>
   <g id="line2d_38">
    <path d="M 68.575 472.808326 
L 69.600858 472.629386 
L 72.678431 472.450446 
L 76.781861 471.530185 
L 77.807719 471.070054 
L 80.885292 468.973903 
L 82.937007 467.440134 
L 86.01458 464.781601 
L 87.040437 463.96359 
L 88.066295 462.583198 
L 89.092153 460.589298 
L 90.11801 458.237519 
L 92.169726 452.664824 
L 93.195583 448.932653 
L 95.247299 438.809776 
L 97.299014 426.130618 
L 98.324871 418.973028 
L 103.45416 379.248407 
L 105.505875 366.876003 
L 106.531733 361.661188 
L 107.55759 357.724513 
L 108.583448 355.577237 
L 109.609305 355.014855 
L 111.661021 356.344121 
L 112.686878 358.286895 
L 113.712736 361.252182 
L 114.738594 365.291108 
L 115.764451 368.563149 
L 116.790309 369.943541 
L 117.816167 371.528436 
L 118.842024 372.448697 
L 119.867882 372.6532 
L 120.893739 371.83519 
L 121.919597 370.199169 
L 122.945455 369.278908 
L 123.971312 369.02328 
L 124.99717 368.460897 
L 126.023028 368.921028 
L 127.048885 369.84129 
L 128.074743 371.630687 
L 129.100601 373.675713 
L 131.152316 376.334246 
L 132.178173 377.868015 
L 134.229889 380.475423 
L 136.281604 383.798589 
L 139.359177 390.393796 
L 140.385035 391.569686 
L 141.410892 392.183194 
L 142.43675 392.132068 
L 143.462607 391.825314 
L 144.488465 392.080943 
L 145.514323 392.592199 
L 146.54018 393.921465 
L 147.566038 395.608612 
L 149.617753 400.363296 
L 150.643611 403.635337 
L 151.669469 406.396121 
L 155.772899 415.598736 
L 156.798757 417.592636 
L 158.850472 420.660174 
L 160.902187 423.369833 
L 161.928045 424.494597 
L 162.953903 426.130618 
L 165.005618 430.220669 
L 169.109048 439.93454 
L 171.160764 443.717837 
L 172.186621 445.09823 
L 176.290052 449.495035 
L 178.341767 451.89794 
L 180.393482 454.607598 
L 181.41934 455.885739 
L 182.445198 456.959378 
L 184.496913 458.493147 
L 186.548628 459.055529 
L 188.600343 459.464534 
L 190.652059 460.538173 
L 191.677916 461.356183 
L 192.703774 462.32757 
L 194.755489 463.96359 
L 195.781347 464.577098 
L 196.807205 464.934977 
L 197.833062 465.446234 
L 198.85892 465.752988 
L 200.910635 465.95749 
L 205.014066 466.213118 
L 206.039923 466.417621 
L 208.091639 467.082254 
L 211.169211 467.798013 
L 213.220927 467.798013 
L 215.272642 467.798013 
L 216.2985 467.849139 
L 218.350215 467.746888 
L 221.427788 467.95139 
L 223.479503 467.849139 
L 225.531218 467.746888 
L 227.582934 467.644636 
L 231.686364 467.746888 
L 233.738079 467.542385 
L 235.789795 467.13338 
L 238.867368 466.417621 
L 240.919083 466.161993 
L 241.944941 465.701862 
L 242.970798 465.088354 
L 243.996656 464.168093 
L 249.125944 458.902152 
L 250.151802 458.288644 
L 255.28109 457.930765 
L 257.332805 457.52176 
L 258.358663 457.266132 
L 259.38452 457.16388 
L 262.462093 457.470634 
L 263.487951 457.777388 
L 264.513809 457.828514 
L 266.565524 457.317257 
L 267.591381 456.806001 
L 268.617239 456.090242 
L 269.643097 455.221106 
L 270.668954 454.147468 
L 272.72067 452.460322 
L 274.772385 451.233306 
L 276.8241 450.415296 
L 277.849958 449.750663 
L 278.875815 448.830401 
L 279.901673 447.55226 
L 281.953388 444.638099 
L 284.005104 440.803676 
L 287.082677 433.543835 
L 291.186107 422.040567 
L 292.211965 418.768526 
L 294.26368 410.435047 
L 296.315395 401.027929 
L 299.392968 385.332358 
L 302.470541 369.790164 
L 304.522256 355.935116 
L 309.651545 319.942666 
L 311.70326 307.468011 
L 313.754975 296.475998 
L 315.80669 287.171132 
L 316.832548 282.927704 
L 317.858406 279.757915 
L 321.961836 268.510274 
L 322.987694 265.596113 
L 325.039409 261.812815 
L 326.065267 260.688051 
L 327.091124 258.94978 
L 328.116982 258.029518 
L 330.168697 254.348472 
L 331.194555 252.559075 
L 332.220413 251.280934 
L 333.24627 250.258421 
L 334.272128 250.053919 
L 335.297985 248.98028 
L 338.375558 250.871929 
L 339.401416 251.178683 
L 341.453131 250.871929 
L 342.478989 252.712452 
L 347.608277 259.921167 
L 348.634135 260.790303 
L 350.68585 260.125669 
L 351.711708 260.841428 
L 352.737565 260.94368 
L 354.789281 259.818916 
L 355.815138 259.665539 
L 356.840996 259.665539 
L 359.918569 256.546875 
L 360.944426 256.546875 
L 361.970284 256.035618 
L 362.996142 255.166482 
L 364.021999 253.377085 
L 365.047857 251.843316 
L 366.073715 249.287034 
L 367.099572 247.80439 
L 368.12543 246.066119 
L 369.151287 244.839103 
L 370.177145 243.816591 
L 371.203003 243.254209 
L 372.22886 243.816591 
L 373.254718 244.787978 
L 374.280576 245.503737 
L 375.306433 244.839103 
L 376.332291 242.947455 
L 377.358149 240.18667 
L 378.384006 236.249996 
L 379.409864 229.859291 
L 381.461579 213.192333 
L 384.539152 185.68674 
L 385.56501 177.455512 
L 390.694298 143.508088 
L 392.746013 127.914768 
L 394.797728 113.650715 
L 395.823586 107.771266 
L 396.849444 105.163859 
L 397.875301 103.118833 
L 398.901159 103.425587 
L 399.927017 104.396974 
L 400.952874 107.004382 
L 401.978732 110.685428 
L 403.004589 113.599589 
L 404.030447 116.05362 
L 405.056305 119.376786 
L 406.082162 121.881943 
L 408.133878 127.761391 
L 409.159735 131.698065 
L 411.211451 144.07047 
L 412.237308 150.461175 
L 417.366596 187.373886 
L 419.418312 204.756603 
L 424.5476 250.769677 
L 427.625173 273.622838 
L 430.702746 291.107806 
L 431.728603 295.964742 
L 434.806176 308.030393 
L 435.832034 312.938454 
L 437.883749 321.42531 
L 438.909607 325.873241 
L 447.116468 366.518123 
L 449.168183 375.158356 
L 451.219898 382.26482 
L 452.245756 385.690238 
L 453.271614 388.604399 
L 454.297471 390.905053 
L 455.323329 392.898953 
L 456.349187 395.199606 
L 457.375044 397.909265 
L 458.400902 400.005416 
L 459.426759 400.618924 
L 461.478475 402.357196 
L 462.504332 403.533086 
L 463.53019 404.504473 
L 464.556048 405.782614 
L 465.581905 406.856252 
L 466.607763 408.28777 
L 467.633621 410.179419 
L 469.685336 414.320595 
L 470.711193 416.161118 
L 471.737051 417.746013 
L 473.788766 422.602949 
L 474.814624 424.290095 
L 475.840482 425.670487 
L 476.866339 427.408759 
L 478.918055 431.243182 
L 479.943912 432.31682 
L 480.96977 433.083705 
L 481.995627 434.31072 
L 483.021485 435.94674 
L 485.0732 438.451897 
L 487.124916 441.366058 
L 488.150773 443.206581 
L 489.176631 444.791476 
L 490.202489 445.55836 
L 492.254204 447.450009 
L 494.305919 449.034904 
L 497.383492 449.750663 
L 498.40935 450.006291 
L 499.435207 450.006291 
L 500.461065 449.852914 
L 501.486923 449.392783 
L 502.51278 449.239406 
L 504.564495 449.239406 
L 505.590353 449.08603 
L 506.616211 449.290532 
L 507.642068 449.137155 
L 508.667926 449.188281 
L 510.719641 449.648412 
L 512.771357 451.131055 
L 513.797214 451.54006 
L 514.823072 452.35807 
L 519.95236 457.112755 
L 520.978218 458.442021 
L 522.004075 459.566785 
L 523.029933 460.487047 
L 525.081648 461.662937 
L 526.107506 462.174193 
L 527.133363 462.532072 
L 528.159221 462.736575 
L 530.210936 463.50346 
L 532.262652 464.423721 
L 534.314367 464.883852 
L 537.39194 465.855239 
L 538.417797 466.264244 
L 539.443655 466.519872 
L 542.521228 467.95139 
L 546.624659 468.053641 
L 547.650516 467.95139 
L 549.702231 468.155893 
L 551.753947 468.718275 
L 554.83152 468.922777 
L 556.883235 468.820526 
L 558.93495 468.360395 
L 563.038381 466.826626 
L 565.090096 465.088354 
L 567.141811 462.889952 
L 568.167669 461.407308 
L 571.245242 455.630111 
L 573.296957 451.89794 
L 575.348672 447.859014 
L 576.37453 446.478622 
L 578.426245 442.848702 
L 580.477961 438.145143 
L 581.503818 435.179856 
L 583.555533 427.971141 
L 584.581391 424.136718 
L 586.633106 415.700988 
L 589.710679 402.203819 
L 592.788252 384.769976 
L 593.81411 378.27702 
L 594.839967 372.959954 
L 595.865825 369.074405 
L 596.891683 367.131631 
L 597.91754 365.802364 
L 598.943398 364.6776 
L 599.969256 364.268595 
L 600.995113 363.706213 
L 602.020971 362.888203 
L 603.046829 361.610062 
L 604.072686 359.156031 
L 605.098544 355.730613 
L 606.124401 351.487185 
L 607.150259 346.527999 
L 608.176117 342.437947 
L 609.201974 337.683263 
L 611.25369 327.509261 
L 612.279547 324.799602 
L 613.305405 322.447823 
L 614.331263 320.402797 
L 616.382978 315.085731 
L 617.408835 313.654213 
L 619.460551 312.324946 
L 621.512266 311.660313 
L 622.538124 312.427198 
L 624.589839 313.347459 
L 625.615697 312.478323 
L 626.641554 310.688926 
L 627.667412 309.359659 
L 628.693269 308.388272 
L 629.719127 306.240995 
L 630.744985 304.809477 
L 631.770842 302.406572 
L 633.822558 300.668301 
L 635.874273 297.600762 
L 636.900131 296.475998 
L 637.925988 294.942229 
L 638.951846 293.919716 
L 639.977703 292.488199 
L 641.003561 292.59045 
L 642.029419 292.897204 
L 644.081134 294.430973 
L 645.106992 296.527124 
L 646.132849 298.112019 
L 647.158707 300.259296 
L 648.184565 301.84419 
L 649.210422 303.684713 
L 650.23628 305.218483 
L 651.262137 307.416885 
L 652.287995 308.439398 
L 653.313853 310.535549 
L 655.365568 315.290233 
L 657.417283 319.533661 
L 658.443141 321.271933 
L 659.468999 323.623712 
L 660.494856 325.310859 
L 661.520714 326.026617 
L 662.546571 326.537874 
L 663.572429 327.253633 
L 664.598287 327.816015 
L 665.624144 328.22502 
L 666.650002 328.071643 
L 667.67586 327.764889 
L 669.727575 326.333371 
L 670.753433 325.157482 
L 671.77929 324.186094 
L 672.805148 322.959079 
L 674.856863 321.016305 
L 675.882721 320.351672 
L 676.908578 319.124656 
L 677.934436 318.6134 
L 679.986151 316.005992 
L 681.012009 314.727851 
L 683.063724 311.251308 
L 684.089582 310.535549 
L 687.167155 307.621388 
L 688.193012 306.905629 
L 689.21887 306.701126 
L 690.244728 306.18987 
L 691.270585 304.451598 
L 692.296443 301.997567 
L 693.322301 300.105919 
L 696.399873 296.885003 
L 698.451589 295.555737 
L 699.477446 296.066993 
L 700.503304 296.731627 
L 701.529162 297.600762 
L 702.555019 298.21427 
L 703.580877 298.265396 
L 705.632592 300.105919 
L 706.65845 300.003667 
L 707.684307 299.748039 
L 708.710165 299.952542 
L 709.736023 300.872803 
L 711.787738 303.633588 
L 712.813596 305.883116 
L 714.865311 311.915941 
L 715.891169 314.472223 
L 717.942884 318.817902 
L 719.994599 324.5951 
L 725.123887 341.773314 
L 726.149745 343.716088 
L 727.175603 345.147606 
L 729.227318 347.294883 
L 731.279033 348.010642 
L 732.304891 348.215145 
L 733.330748 349.851165 
L 735.382464 354.24797 
L 736.408321 357.213257 
L 736.408321 357.213257 
" clip-path="url(#pbb11cbb168)" style="fill: none; stroke: #ffdd00; stroke-width: 2; stroke-linecap: square"/>
   </g>
   <g id="line2d_39">
    <path d="M 95.247299 426.630118 
L 96.273156 419.993617 
L 98.324871 411.403381 
L 100.376587 400.787048 
L 101.402444 395.512108 
L 105.505875 351.156538 
L 108.583448 320.924576 
L 109.609305 313.410888 
L 110.635163 307.031342 
L 111.661021 302.016309 
L 112.686878 298.117698 
L 113.712736 294.821599 
L 114.738594 293.56341 
L 115.764451 292.872293 
L 116.790309 292.411548 
L 119.867882 290.550847 
L 120.893739 291.295127 
L 122.945455 293.244433 
L 124.99717 297.143045 
L 127.048885 301.945426 
L 128.074743 303.947894 
L 129.100601 305.170641 
L 130.126458 306.925016 
L 131.152316 308.360414 
L 134.229889 314.243774 
L 135.255746 316.618383 
L 136.281604 319.436016 
L 140.385035 328.491427 
L 141.410892 330.866036 
L 143.462607 334.357066 
L 145.514323 337.918979 
L 146.54018 340.541682 
L 147.566038 342.756802 
L 148.591896 345.237737 
L 150.643611 350.908445 
L 153.721184 360.708137 
L 155.772899 366.343403 
L 157.824614 371.110342 
L 159.87633 374.955791 
L 161.928045 378.80124 
L 166.031475 386.598464 
L 169.109048 391.064146 
L 173.212479 396.451319 
L 174.238337 398.081647 
L 176.290052 400.686629 
L 179.367625 404.904218 
L 181.41934 407.349711 
L 182.445198 408.607899 
L 185.522771 411.709067 
L 188.600343 415.005167 
L 189.626201 415.979819 
L 192.703774 419.329081 
L 193.729632 420.21513 
L 195.781347 421.721411 
L 197.833062 422.696064 
L 199.884777 425.230162 
L 201.936493 428.260446 
L 202.96235 429.766728 
L 205.014066 433.328642 
L 207.065781 435.065296 
L 209.117496 435.969065 
L 212.195069 437.15637 
L 213.220927 437.794324 
L 214.246784 438.219627 
L 223.479503 443.624521 
L 224.505361 444.032103 
L 225.531218 444.209313 
L 228.608791 444.227034 
L 232.712222 443.78401 
L 234.763937 443.819452 
L 236.815652 443.872614 
L 239.893225 444.546011 
L 243.996656 445.786478 
L 245.022513 445.963688 
L 249.125944 445.892804 
L 250.151802 446.087735 
L 251.177659 446.052293 
L 252.203517 445.892804 
L 253.229375 445.857362 
L 255.28109 445.538385 
L 256.306947 445.361175 
L 257.332805 444.989035 
L 258.358663 444.829546 
L 260.410378 444.740942 
L 263.487951 445.024477 
L 264.513809 444.971314 
L 265.539666 444.687779 
L 266.565524 444.563732 
L 269.643097 455.56845 
L 271.694812 463.082138 
L 273.746527 470.826199 
L 275.798243 470.152802 
L 277.849958 469.443963 
L 278.875815 469.000939 
L 282.979246 466.732656 
L 285.030961 465.120049 
L 287.082677 463.277068 
L 288.108534 462.054322 
L 290.160249 458.899991 
L 292.211965 455.338077 
L 293.237822 452.874863 
L 294.26368 449.649648 
L 297.341253 437.493068 
L 298.367111 433.257758 
L 301.444683 419.346802 
L 304.522256 407.048454 
L 306.573972 397.638623 
L 308.625687 387.006046 
L 312.729117 364.004236 
L 314.780833 353.850125 
L 316.832548 345.66304 
L 317.858406 342.189731 
L 319.910121 335.881069 
L 321.961836 329.731895 
L 322.987694 327.25096 
L 324.013551 325.478864 
L 325.039409 324.30928 
L 326.065267 322.696673 
L 327.091124 321.952392 
L 328.116982 322.09416 
L 330.168697 322.927045 
L 331.194555 323.724488 
L 332.220413 323.883977 
L 333.24627 324.716862 
L 335.297985 324.787746 
L 337.349701 324.48649 
L 339.401416 324.291559 
L 340.427274 324.362443 
L 341.453131 325.620631 
L 342.478989 325.95733 
L 343.504847 326.896541 
L 345.556562 329.944546 
L 347.608277 334.463392 
L 348.634135 336.607628 
L 352.737565 348.143975 
L 354.789281 352.804588 
L 355.815138 354.541242 
L 356.840996 355.728547 
L 357.866853 356.401943 
L 358.892711 356.738642 
L 359.918569 356.7032 
L 360.944426 356.100687 
L 361.970284 355.23236 
L 362.996142 354.098218 
L 364.021999 353.424822 
L 365.047857 353.194449 
L 366.073715 352.148912 
L 368.12543 351.067934 
L 370.177145 349.561652 
L 371.203003 348.392068 
L 372.22886 347.523741 
L 374.280576 347.700951 
L 375.306433 348.746488 
L 376.332291 349.597094 
L 377.358149 350.802119 
L 378.384006 351.475516 
L 379.409864 350.642631 
L 380.435721 348.728767 
L 381.461579 345.787087 
L 383.513294 337.9367 
L 387.616725 320.198017 
L 388.642583 315.005775 
L 389.66844 308.962927 
L 392.746013 289.150891 
L 394.797728 275.32854 
L 396.849444 262.498563 
L 400.952874 241.516943 
L 401.978732 237.813262 
L 404.030447 231.859019 
L 405.056305 229.502131 
L 406.082162 227.871802 
L 407.10802 226.861707 
L 408.133878 226.489567 
L 409.159735 226.259195 
L 410.185593 226.631335 
L 411.211451 228.314826 
L 413.263166 230.848924 
L 414.289023 231.87674 
L 415.314881 233.223533 
L 416.340739 235.899398 
L 418.392454 241.835921 
L 420.444169 249.881238 
L 422.495885 260.549257 
L 425.573457 277.525939 
L 427.625173 287.219306 
L 429.676888 295.707647 
L 431.728603 303.912452 
L 432.754461 308.342693 
L 445.064753 370.70276 
L 449.168183 387.980699 
L 452.245756 396.982948 
L 453.271614 400.403093 
L 455.323329 405.967476 
L 456.349187 408.926876 
L 457.375044 412.595116 
L 459.426759 418.513917 
L 462.504332 424.663091 
L 463.53019 426.736444 
L 465.581905 430.156589 
L 468.659478 435.419715 
L 471.737051 439.991724 
L 475.840482 446.353549 
L 476.866339 447.806668 
L 477.892197 449.064857 
L 479.943912 451.031883 
L 481.995627 452.555886 
L 485.0732 454.771006 
L 486.099058 455.621613 
L 487.124916 456.738033 
L 488.150773 458.031664 
L 491.228346 461.079669 
L 493.280061 462.763161 
L 494.305919 463.241627 
L 495.331777 463.454278 
L 497.383492 464.127675 
L 500.461065 464.78335 
L 501.486923 465.226374 
L 502.51278 465.793445 
L 504.564495 466.661772 
L 505.590353 467.17568 
L 506.616211 467.54782 
L 508.667926 468.45159 
L 512.771357 468.770567 
L 513.797214 468.82373 
L 515.848929 468.504752 
L 516.874787 468.575636 
L 517.900645 468.487031 
L 518.926502 468.557915 
L 519.95236 468.46931 
L 523.029933 468.593357 
L 524.055791 468.362985 
L 527.133363 467.370611 
L 528.159221 466.697214 
L 531.236794 465.403584 
L 532.262652 465.403584 
L 533.288509 465.244095 
L 535.340225 465.244095 
L 538.417797 464.535257 
L 541.49537 463.153022 
L 545.598801 462.284695 
L 548.676374 461.434088 
L 549.702231 461.115111 
L 550.728089 461.008785 
L 551.753947 460.72525 
L 552.779804 460.565761 
L 553.805662 460.282226 
L 554.83152 460.35311 
L 556.883235 459.715155 
L 558.93495 458.563292 
L 560.986665 457.251941 
L 563.038381 455.267193 
L 566.115954 452.910305 
L 567.141811 451.758443 
L 570.219384 446.37127 
L 571.245242 444.244755 
L 582.529676 417.539264 
L 583.555533 415.678563 
L 584.581391 414.243165 
L 586.633106 411.833114 
L 587.658964 411.425532 
L 588.684822 411.177439 
L 589.710679 412.152092 
L 590.736537 412.68372 
L 592.788252 413.95963 
L 594.839967 416.050703 
L 595.865825 417.025356 
L 596.891683 416.989914 
L 598.943398 418.318987 
L 599.969256 419.346802 
L 602.020971 421.721411 
L 603.046829 423.334019 
L 604.072686 425.265604 
L 606.124401 428.437656 
L 607.150259 429.536356 
L 609.201974 431.397057 
L 611.25369 432.318547 
L 612.279547 432.56664 
L 615.35712 433.824829 
L 616.382978 434.072922 
L 618.434693 435.331111 
L 619.460551 436.05767 
L 620.486408 436.305763 
L 621.512266 436.181717 
L 622.538124 435.845018 
L 623.563981 435.384273 
L 624.589839 434.196969 
L 625.615697 432.265384 
L 628.693269 423.280856 
L 629.719127 419.825268 
L 632.7967 408.182596 
L 634.848415 401.980259 
L 637.925988 390.426191 
L 638.951846 385.925067 
L 644.081134 358.936041 
L 645.106992 354.328591 
L 646.132849 350.855282 
L 647.158707 348.622441 
L 650.23628 345.46811 
L 652.287995 344.014991 
L 654.33971 344.014991 
L 655.365568 344.475736 
L 656.391426 345.308621 
L 659.468999 349.15407 
L 661.520714 351.19198 
L 662.546571 351.688167 
L 664.598287 353.052681 
L 666.650002 353.93873 
L 667.67586 354.5058 
L 668.701717 354.824778 
L 671.77929 356.207013 
L 675.882721 361.044836 
L 678.960294 366.662381 
L 681.012009 369.178757 
L 682.037867 369.674944 
L 683.063724 369.515456 
L 684.089582 368.700291 
L 685.115439 367.725638 
L 686.141297 366.485171 
L 689.21887 364.216888 
L 690.244728 363.951073 
L 692.296443 362.728327 
L 693.322301 362.533396 
L 694.348158 362.001768 
L 696.399873 361.31065 
L 697.425731 361.806837 
L 698.451589 363.242235 
L 699.477446 364.925726 
L 700.503304 366.83959 
L 701.529162 369.391409 
L 702.555019 372.492577 
L 703.580877 375.186164 
L 704.606735 377.50761 
L 705.632592 379.137938 
L 706.65845 380.183475 
L 707.684307 380.945477 
L 708.710165 381.246733 
L 709.736023 380.980918 
L 710.76188 381.264454 
L 711.787738 381.034081 
L 712.813596 380.573336 
L 713.839453 380.236638 
L 714.865311 380.360685 
L 715.891169 380.732825 
L 716.917026 381.37078 
L 718.968741 383.692226 
L 719.994599 384.595995 
L 721.020457 385.747857 
L 722.046314 386.509859 
L 724.09803 387.785768 
L 725.123887 387.892094 
L 726.149745 388.618653 
L 727.175603 390.071772 
L 733.330748 402.91947 
L 734.356606 404.319426 
L 735.382464 405.258637 
L 736.408321 406.002918 
L 737.434179 406.534546 
L 737.434179 406.534546 
" clip-path="url(#pbb11cbb168)" style="fill: none; stroke: #003078; stroke-width: 2; stroke-linecap: square"/>
   </g>
   <g id="line2d_40">
    <path d="M 91.143868 453.100737 
L 93.195583 444.646122 
L 94.221441 441.762238 
L 95.247299 438.312326 
L 96.273156 433.612133 
L 97.299014 429.671422 
L 100.376587 403.232837 
L 107.55759 334.3267 
L 110.635163 309.638405 
L 111.661021 302.084524 
L 113.712736 291.429252 
L 114.738594 289.341187 
L 115.764451 287.836552 
L 116.790309 288.082207 
L 117.816167 289.525428 
L 118.842024 292.043389 
L 119.867882 293.394489 
L 120.893739 295.881743 
L 122.945455 302.453006 
L 123.971312 304.970966 
L 124.99717 308.010943 
L 127.048885 315.288463 
L 128.074743 320.26297 
L 130.126458 326.619285 
L 132.178173 339.270501 
L 133.204031 344.521369 
L 135.255746 355.913605 
L 137.307462 366.937359 
L 138.333319 370.407231 
L 142.43675 379.619281 
L 143.462607 382.198656 
L 144.488465 385.45358 
L 145.514323 387.910127 
L 146.54018 390.059605 
L 147.566038 392.761807 
L 148.591896 396.108852 
L 149.617753 399.056708 
L 150.643611 401.206186 
L 151.669469 402.895062 
L 152.695326 401.390427 
L 153.721184 401.236893 
L 155.772899 399.885792 
L 157.824614 393.498771 
L 158.850472 389.537589 
L 160.902187 386.896801 
L 161.928045 385.668528 
L 162.953903 384.102479 
L 163.97976 384.378841 
L 165.005618 385.177219 
L 167.057333 387.695179 
L 168.083191 388.278609 
L 169.109048 389.813951 
L 173.212479 399.793672 
L 174.238337 402.802942 
L 175.264194 406.272814 
L 176.290052 409.036429 
L 177.315909 410.448944 
L 178.341767 411.615803 
L 180.393482 413.48892 
L 183.471055 415.054969 
L 184.496913 415.33133 
L 186.548628 416.559604 
L 188.600343 417.849291 
L 190.652059 420.09089 
L 191.677916 421.994714 
L 193.729632 425.03469 
L 195.781347 428.565976 
L 196.807205 429.855663 
L 197.833062 431.667366 
L 200.910635 436.058444 
L 201.936493 437.102476 
L 203.988208 441.032951 
L 205.014066 442.69112 
L 208.091639 446.897957 
L 209.117496 448.003403 
L 210.143354 448.433298 
L 211.169211 448.494712 
L 212.195069 449.108849 
L 213.220927 449.415917 
L 214.246784 449.96864 
L 215.272642 450.214295 
L 216.2985 450.337122 
L 217.324357 449.937933 
L 218.350215 449.815106 
L 219.376073 449.38521 
L 220.40193 449.38521 
L 222.453645 448.402591 
L 223.479503 448.402591 
L 224.505361 448.893901 
L 225.531218 449.047435 
L 227.582934 449.722985 
L 228.608791 450.367829 
L 230.660507 452.240946 
L 231.686364 452.855083 
L 234.763937 456.263541 
L 235.789795 457.676056 
L 237.84151 459.856241 
L 238.867368 460.654619 
L 239.893225 461.238048 
L 240.919083 461.575824 
L 243.996656 462.312788 
L 245.022513 462.589149 
L 247.074229 463.571768 
L 249.125944 464.830748 
L 251.177659 465.598419 
L 253.229375 466.581038 
L 254.255232 466.888106 
L 255.28109 467.010933 
L 257.332805 467.410122 
L 260.410378 467.870725 
L 261.436236 467.962845 
L 262.462093 468.30062 
L 263.487951 468.423448 
L 265.539666 468.822637 
L 267.591381 468.30062 
L 270.668954 467.993552 
L 272.72067 466.918813 
L 273.746527 466.703865 
L 274.772385 465.905487 
L 275.798243 464.677214 
L 276.8241 463.2647 
L 277.849958 461.60653 
L 278.875815 460.378257 
L 280.927531 456.785557 
L 281.953388 454.421131 
L 282.979246 452.762962 
L 285.030961 447.266439 
L 287.082677 440.75659 
L 288.108534 437.716613 
L 289.134392 435.475014 
L 290.160249 432.89564 
L 293.237822 427.521944 
L 295.289538 423.345814 
L 297.341253 418.893323 
L 301.444683 407.009778 
L 302.470541 403.01789 
L 307.599829 380.264125 
L 310.677402 367.827857 
L 312.729117 359.598425 
L 313.754975 354.593211 
L 314.780833 348.666792 
L 316.832548 337.612331 
L 317.858406 331.747326 
L 319.910121 318.973283 
L 324.013551 292.780353 
L 325.039409 287.161002 
L 326.065267 282.278615 
L 328.116982 271.623343 
L 330.168697 262.902602 
L 334.272128 248.347563 
L 336.323843 242.329023 
L 338.375558 237.999359 
L 340.427274 235.389278 
L 341.453131 235.358572 
L 342.478989 234.652314 
L 343.504847 235.542813 
L 344.530704 235.327865 
L 345.556562 235.512106 
L 346.582419 234.621608 
L 347.608277 235.205037 
L 348.634135 234.590901 
L 349.659992 234.560194 
L 351.711708 231.213149 
L 352.737565 229.585687 
L 353.763423 228.173172 
L 354.789281 226.300055 
L 355.815138 224.02775 
L 357.866853 220.43505 
L 358.892711 217.364366 
L 359.918569 213.034703 
L 362.996142 193.413035 
L 365.047857 174.528332 
L 370.177145 139.52254 
L 371.203003 134.793688 
L 373.254718 122.234592 
L 374.280576 117.966342 
L 375.306433 117.59786 
L 376.332291 114.189401 
L 377.358149 110.197513 
L 379.409864 100.217792 
L 381.461579 89.501106 
L 383.513294 75.314549 
L 384.539152 70.554989 
L 385.56501 66.778048 
L 386.590867 64.567156 
L 387.616725 64.167967 
L 388.642583 62.325557 
L 389.66844 59.316288 
L 390.694298 58.149428 
L 391.720155 56.736913 
L 392.746013 56.614086 
L 393.771871 55.232279 
L 394.797728 54.157539 
L 396.849444 57.93448 
L 397.875301 61.465766 
L 398.901159 65.457655 
L 399.927017 66.655221 
L 400.952874 71.844676 
L 401.978732 74.362637 
L 404.030447 77.371906 
L 405.056305 79.705626 
L 406.082162 80.841779 
L 407.10802 83.881755 
L 408.133878 84.833667 
L 411.211451 96.164489 
L 413.263166 104.731696 
L 414.289023 110.688822 
L 415.314881 115.939691 
L 416.340739 120.453596 
L 419.418312 136.728218 
L 420.444169 144.527754 
L 422.495885 158.990673 
L 423.521742 166.114659 
L 426.599315 182.419988 
L 427.625173 186.411877 
L 428.65103 189.513267 
L 429.676888 193.996465 
L 430.702746 199.124506 
L 431.728603 205.450114 
L 432.754461 209.933312 
L 433.780319 215.460543 
L 435.832034 225.28673 
L 436.857891 229.278618 
L 437.883749 231.735165 
L 438.909607 235.051503 
L 439.935464 239.596115 
L 444.038895 262.564827 
L 447.116468 283.1077 
L 448.142325 287.46807 
L 449.168183 293.240955 
L 450.194041 301.194025 
L 453.271614 321.736898 
L 455.323329 332.822065 
L 456.349187 337.704452 
L 457.375044 341.880582 
L 458.400902 346.793675 
L 459.426759 349.895065 
L 462.504332 366.476756 
L 464.556048 377.715458 
L 465.581905 382.567138 
L 466.607763 388.217195 
L 469.685336 398.442571 
L 470.711193 401.298307 
L 472.762909 405.904332 
L 473.788766 408.452999 
L 475.840482 412.383474 
L 477.892197 417.204447 
L 480.96977 423.069453 
L 481.995627 425.341759 
L 483.021485 426.815687 
L 484.047343 428.074667 
L 485.0732 429.118699 
L 487.124916 436.027737 
L 490.202489 445.055546 
L 491.228346 447.727041 
L 492.254204 450.767018 
L 493.280061 452.148825 
L 494.305919 453.131444 
L 495.331777 453.837701 
L 496.357634 454.329011 
L 497.383492 454.421131 
L 498.40935 454.789613 
L 499.435207 455.649404 
L 500.461065 455.98718 
L 501.486923 455.956473 
L 503.538638 456.969798 
L 504.564495 458.228779 
L 505.590353 459.149984 
L 507.642068 460.531791 
L 508.667926 461.637237 
L 509.693784 462.251374 
L 510.719641 463.172579 
L 513.797214 463.970957 
L 514.823072 464.370146 
L 515.848929 464.646507 
L 516.874787 465.291351 
L 517.900645 465.659833 
L 518.926502 465.844074 
L 519.95236 466.45821 
L 523.029933 467.932138 
L 525.081648 468.024259 
L 528.159221 468.822637 
L 529.185079 468.853343 
L 530.210936 469.221825 
L 533.288509 471.187063 
L 535.340225 471.89332 
L 536.366082 472.323216 
L 537.39194 472.507457 
L 538.417797 472.446043 
L 539.443655 472.231095 
L 542.521228 472.077561 
L 544.572943 471.555545 
L 551.753947 467.962845 
L 552.779804 467.778604 
L 553.805662 467.870725 
L 554.83152 467.655777 
L 556.883235 467.62507 
L 557.909093 467.471536 
L 560.986665 467.563656 
L 562.012523 467.747897 
L 564.064238 467.840018 
L 565.090096 468.147086 
L 567.141811 468.331327 
L 568.167669 468.147086 
L 569.193527 467.778604 
L 570.219384 467.594363 
L 571.245242 467.563656 
L 572.271099 466.826692 
L 578.426245 463.571768 
L 580.477961 463.080459 
L 585.607249 459.272811 
L 589.710679 455.373043 
L 591.762395 452.762962 
L 592.788252 451.565395 
L 594.839967 448.986021 
L 595.865825 447.849868 
L 596.891683 447.297145 
L 598.943398 446.621595 
L 599.969256 446.038165 
L 600.995113 445.60827 
L 602.020971 445.424028 
L 604.072686 446.007458 
L 605.098544 446.222406 
L 606.124401 446.652302 
L 607.150259 446.928663 
L 608.176117 447.389266 
L 609.201974 447.5428 
L 610.227832 447.358559 
L 615.35712 447.174318 
L 616.382978 446.897957 
L 617.408835 446.191699 
L 618.434693 444.625651 
L 619.460551 442.813948 
L 621.512266 439.528316 
L 625.615697 432.22009 
L 626.641554 430.684748 
L 629.719127 423.898537 
L 630.744985 421.257749 
L 631.770842 418.309893 
L 634.848415 410.47965 
L 636.900131 405.351609 
L 637.925988 402.219512 
L 639.977703 394.880578 
L 643.055276 383.672584 
L 644.081134 379.649988 
L 646.132849 373.447208 
L 648.184565 369.455319 
L 649.210422 367.950684 
L 650.23628 366.691704 
L 651.262137 365.709085 
L 652.287995 365.248483 
L 654.33971 367.305841 
L 655.365568 368.626235 
L 656.391426 370.345817 
L 657.417283 372.311055 
L 659.468999 374.798308 
L 661.520714 375.811634 
L 662.546571 376.763546 
L 663.572429 376.732839 
L 664.598287 376.24153 
L 665.624144 376.33365 
L 666.650002 376.548598 
L 667.67586 377.132028 
L 668.701717 377.193442 
L 669.727575 376.487184 
L 671.77929 376.026582 
L 672.805148 375.873048 
L 673.831005 374.460533 
L 674.856863 372.802364 
L 676.908578 367.919977 
L 679.986151 359.16853 
L 681.012009 357.541067 
L 682.037867 355.053814 
L 683.063724 353.334231 
L 684.089582 351.952423 
L 685.115439 350.785564 
L 686.141297 349.833652 
L 687.167155 348.543965 
L 690.244728 340.191706 
L 692.296443 334.295993 
L 693.322301 331.839447 
L 694.348158 330.027743 
L 695.374016 328.830177 
L 696.399873 328.277454 
L 697.425731 328.308161 
L 698.451589 328.922297 
L 700.503304 331.378844 
L 701.529162 332.514997 
L 702.555019 333.988925 
L 704.606735 338.01152 
L 706.65845 340.744429 
L 708.710165 342.586839 
L 709.736023 344.275715 
L 711.787738 348.758913 
L 712.813596 351.430407 
L 713.839453 353.518472 
L 715.891169 359.567718 
L 716.917026 362.822643 
L 717.942884 365.678378 
L 718.968741 367.919977 
L 721.020457 372.863778 
L 722.046314 375.105377 
L 723.072172 376.425771 
L 724.09803 376.886373 
L 726.149745 378.268181 
L 727.175603 378.114647 
L 728.20146 379.005145 
L 729.227318 380.172005 
L 730.253175 382.137242 
L 732.304891 387.234577 
L 733.330748 389.199814 
L 734.356606 390.919397 
L 734.356606 390.919397 
" clip-path="url(#pbb11cbb168)" style="fill: none; stroke: #d4351c; stroke-width: 2; stroke-linecap: square"/>
   </g>
   <g id="patch_3">
    <path d="M 68.575 476.745 
L 738.175 476.745 
" style="fill: none; stroke: #000000; stroke-width: 0.8; stroke-linejoin: miter; stroke-linecap: square"/>
   </g>
   <g id="text_20">
    <!-- Average patients in hospital with COVID-19, per capita -->
    <g transform="translate(243.132812 27.225)scale(0.12 -0.12)">
     <defs>
      <path id="Inter-Bold-41" d="M 1207 0 
L 152 0 
L 1759 4655 
L 3027 4655 
L 4632 0 
L 3577 0 
L 3232 1061 
L 1552 1061 
L 1207 0 
z
M 1802 1830 
L 2984 1830 
L 2411 3591 
L 2375 3591 
L 1802 1830 
z
" transform="scale(0.015625)"/>
      <path id="Inter-Bold-76" d="M 3641 3491 
L 2421 0 
L 1330 0 
L 109 3491 
L 1132 3491 
L 1857 993 
L 1893 993 
L 2616 3491 
L 3641 3491 
z
" transform="scale(0.015625)"/>
      <path id="Inter-Bold-65" d="M 1977 -68 
Q 1441 -68 1052 151 
Q 664 370 455 773 
Q 246 1177 246 1730 
Q 246 2268 455 2675 
Q 664 3082 1044 3309 
Q 1425 3536 1939 3536 
Q 2400 3536 2771 3340 
Q 3143 3145 3361 2751 
Q 3580 2357 3580 1764 
L 3580 1498 
L 1202 1498 
L 1202 1495 
Q 1202 1105 1416 880 
Q 1630 655 1993 655 
Q 2236 655 2413 757 
Q 2591 859 2664 1059 
L 3559 1000 
Q 3457 514 3041 223 
Q 2625 -68 1977 -68 
z
M 1202 2098 
L 2668 2098 
Q 2666 2409 2468 2611 
Q 2271 2814 1955 2814 
Q 1632 2814 1425 2604 
Q 1218 2395 1202 2098 
z
" transform="scale(0.015625)"/>
      <path id="Inter-Bold-72" d="M 386 0 
L 386 3491 
L 1325 3491 
L 1325 2882 
L 1361 2882 
Q 1457 3207 1681 3374 
Q 1905 3541 2200 3541 
Q 2341 3541 2461 3507 
Q 2582 3473 2677 3414 
L 2386 2614 
Q 2318 2648 2237 2671 
Q 2157 2695 2057 2695 
Q 1764 2695 1560 2495 
Q 1357 2295 1355 1975 
L 1355 0 
L 386 0 
z
" transform="scale(0.015625)"/>
      <path id="Inter-Bold-61" d="M 1382 -66 
Q 882 -66 552 195 
Q 223 457 223 975 
Q 223 1366 407 1588 
Q 591 1811 890 1914 
Q 1189 2018 1534 2050 
Q 1989 2095 2184 2145 
Q 2380 2195 2380 2364 
L 2380 2377 
Q 2380 2593 2244 2711 
Q 2109 2830 1861 2830 
Q 1600 2830 1445 2716 
Q 1291 2602 1241 2427 
L 346 2500 
Q 446 2977 842 3256 
Q 1239 3536 1866 3536 
Q 2255 3536 2593 3413 
Q 2932 3291 3140 3030 
Q 3348 2770 3348 2355 
L 3348 0 
L 2430 0 
L 2430 484 
L 2402 484 
Q 2275 241 2021 87 
Q 1768 -66 1382 -66 
z
M 1659 602 
Q 1977 602 2181 787 
Q 2386 973 2386 1248 
L 2386 1618 
Q 2330 1580 2210 1550 
Q 2091 1520 1956 1498 
Q 1821 1477 1714 1461 
Q 1459 1425 1303 1318 
Q 1148 1211 1148 1007 
Q 1148 807 1292 704 
Q 1436 602 1659 602 
z
" transform="scale(0.015625)"/>
      <path id="Inter-Bold-67" d="M 1959 -1359 
Q 1255 -1359 852 -1082 
Q 450 -805 364 -409 
L 1259 -289 
Q 1318 -430 1489 -547 
Q 1661 -664 1982 -664 
Q 2298 -664 2503 -514 
Q 2709 -364 2709 -20 
L 2709 618 
L 2668 618 
Q 2573 402 2332 226 
Q 2091 50 1673 50 
Q 1280 50 958 234 
Q 636 418 446 795 
Q 257 1173 257 1752 
Q 257 2348 451 2743 
Q 646 3139 967 3337 
Q 1289 3536 1671 3536 
Q 1964 3536 2161 3437 
Q 2359 3339 2482 3193 
Q 2605 3048 2668 2905 
L 2705 2905 
L 2705 3491 
L 3666 3491 
L 3666 -34 
Q 3666 -468 3446 -763 
Q 3227 -1059 2843 -1209 
Q 2459 -1359 1959 -1359 
z
M 1980 777 
Q 2330 777 2522 1036 
Q 2714 1295 2714 1757 
Q 2714 2216 2523 2491 
Q 2332 2766 1980 2766 
Q 1621 2766 1433 2484 
Q 1246 2202 1246 1757 
Q 1246 1305 1434 1041 
Q 1623 777 1980 777 
z
" transform="scale(0.015625)"/>
      <path id="Inter-Bold-20" transform="scale(0.015625)"/>
      <path id="Inter-Bold-70" d="M 386 -1309 
L 386 3491 
L 1341 3491 
L 1341 2905 
L 1384 2905 
Q 1450 3048 1570 3193 
Q 1691 3339 1888 3437 
Q 2086 3536 2377 3536 
Q 2761 3536 3081 3337 
Q 3402 3139 3596 2740 
Q 3791 2341 3791 1741 
Q 3791 1157 3602 756 
Q 3414 355 3093 149 
Q 2773 -57 2375 -57 
Q 2093 -57 1896 36 
Q 1700 130 1576 272 
Q 1452 414 1384 559 
L 1355 559 
L 1355 -1309 
L 386 -1309 
z
M 1334 1745 
Q 1334 1280 1526 997 
Q 1718 714 2068 714 
Q 2425 714 2613 1001 
Q 2802 1289 2802 1745 
Q 2802 2200 2614 2483 
Q 2427 2766 2068 2766 
Q 1716 2766 1525 2490 
Q 1334 2214 1334 1745 
z
" transform="scale(0.015625)"/>
      <path id="Inter-Bold-74" d="M 2243 3491 
L 2243 2764 
L 1586 2764 
L 1586 1073 
Q 1586 873 1677 802 
Q 1768 732 1914 732 
Q 1982 732 2050 744 
Q 2118 757 2155 764 
L 2307 43 
Q 2234 20 2102 -10 
Q 1971 -41 1782 -48 
Q 1255 -70 935 181 
Q 616 432 618 945 
L 618 2764 
L 141 2764 
L 141 3491 
L 618 3491 
L 618 4327 
L 1586 4327 
L 1586 3491 
L 2243 3491 
z
" transform="scale(0.015625)"/>
      <path id="Inter-Bold-69" d="M 386 0 
L 386 3491 
L 1355 3491 
L 1355 0 
L 386 0 
z
M 876 3941 
Q 662 3941 507 4085 
Q 353 4230 353 4432 
Q 353 4634 507 4777 
Q 662 4920 876 4920 
Q 1092 4920 1246 4777 
Q 1401 4634 1401 4432 
Q 1401 4230 1246 4085 
Q 1092 3941 876 3941 
z
" transform="scale(0.015625)"/>
      <path id="Inter-Bold-6e" d="M 1355 2018 
L 1355 0 
L 386 0 
L 386 3491 
L 1309 3491 
L 1309 2875 
L 1350 2875 
Q 1468 3180 1739 3358 
Q 2011 3536 2400 3536 
Q 2946 3536 3275 3185 
Q 3605 2834 3605 2223 
L 3605 0 
L 2636 0 
L 2636 2050 
Q 2639 2370 2473 2551 
Q 2307 2732 2016 2732 
Q 1723 2732 1540 2544 
Q 1357 2357 1355 2018 
z
" transform="scale(0.015625)"/>
      <path id="Inter-Bold-73" d="M 3291 2495 
L 2405 2441 
Q 2368 2609 2220 2729 
Q 2073 2850 1821 2850 
Q 1596 2850 1440 2755 
Q 1284 2661 1286 2505 
Q 1284 2380 1385 2293 
Q 1486 2207 1730 2155 
L 2361 2027 
Q 3368 1820 3371 1082 
Q 3371 739 3169 479 
Q 2968 220 2618 76 
Q 2268 -68 1816 -68 
Q 1123 -68 711 221 
Q 300 511 232 1011 
L 1184 1061 
Q 1230 848 1394 739 
Q 1559 630 1818 630 
Q 2073 630 2228 730 
Q 2384 830 2386 984 
Q 2380 1243 1939 1332 
L 1334 1452 
Q 321 1655 325 2450 
Q 323 2955 728 3245 
Q 1134 3536 1805 3536 
Q 2466 3536 2846 3256 
Q 3227 2977 3291 2495 
z
" transform="scale(0.015625)"/>
      <path id="Inter-Bold-68" d="M 1355 2018 
L 1355 0 
L 386 0 
L 386 4655 
L 1327 4655 
L 1327 2875 
L 1368 2875 
Q 1489 3184 1751 3360 
Q 2014 3536 2411 3536 
Q 2957 3536 3289 3186 
Q 3621 2836 3618 2223 
L 3618 0 
L 2650 0 
L 2650 2050 
Q 2652 2373 2487 2552 
Q 2323 2732 2027 2732 
Q 1732 2732 1544 2544 
Q 1357 2357 1355 2018 
z
" transform="scale(0.015625)"/>
      <path id="Inter-Bold-6f" d="M 1964 -68 
Q 1434 -68 1049 158 
Q 664 384 455 789 
Q 246 1195 246 1732 
Q 246 2273 455 2678 
Q 664 3084 1049 3310 
Q 1434 3536 1964 3536 
Q 2493 3536 2878 3310 
Q 3264 3084 3473 2678 
Q 3682 2273 3682 1732 
Q 3682 1195 3473 789 
Q 3264 384 2878 158 
Q 2493 -68 1964 -68 
z
M 1968 682 
Q 2327 682 2512 982 
Q 2698 1282 2698 1739 
Q 2698 2195 2512 2496 
Q 2327 2798 1968 2798 
Q 1602 2798 1416 2496 
Q 1230 2195 1230 1739 
Q 1230 1282 1416 982 
Q 1602 682 1968 682 
z
" transform="scale(0.015625)"/>
      <path id="Inter-Bold-6c" d="M 1355 4655 
L 1355 0 
L 386 0 
L 386 4655 
L 1355 4655 
z
" transform="scale(0.015625)"/>
      <path id="Inter-Bold-77" d="M 1075 0 
L 125 3491 
L 1105 3491 
L 1646 1145 
L 1677 1145 
L 2241 3491 
L 3202 3491 
L 3775 1159 
L 3805 1159 
L 4336 3491 
L 5314 3491 
L 4366 0 
L 3341 0 
L 2741 2195 
L 2698 2195 
L 2098 0 
L 1075 0 
z
" transform="scale(0.015625)"/>
      <path id="Inter-Bold-43" d="M 4511 3025 
L 3516 3025 
Q 3459 3409 3188 3628 
Q 2918 3848 2514 3848 
Q 1973 3848 1647 3451 
Q 1321 3055 1321 2327 
Q 1321 1582 1649 1194 
Q 1977 807 2507 807 
Q 2900 807 3173 1012 
Q 3446 1218 3516 1591 
L 4511 1586 
Q 4459 1159 4207 782 
Q 3955 405 3522 170 
Q 3089 -64 2491 -64 
Q 1868 -64 1378 218 
Q 889 500 606 1034 
Q 323 1568 323 2327 
Q 323 3089 609 3623 
Q 896 4157 1386 4437 
Q 1877 4718 2491 4718 
Q 3030 4718 3463 4519 
Q 3896 4320 4172 3942 
Q 4448 3564 4511 3025 
z
" transform="scale(0.015625)"/>
      <path id="Inter-Bold-4f" d="M 4682 2327 
Q 4682 1566 4394 1032 
Q 4107 498 3614 217 
Q 3121 -64 2502 -64 
Q 1882 -64 1389 218 
Q 896 500 609 1035 
Q 323 1570 323 2327 
Q 323 3089 609 3623 
Q 896 4157 1389 4437 
Q 1882 4718 2502 4718 
Q 3121 4718 3614 4437 
Q 4107 4157 4394 3623 
Q 4682 3089 4682 2327 
z
M 3684 2327 
Q 3684 3068 3361 3458 
Q 3039 3848 2502 3848 
Q 1966 3848 1643 3458 
Q 1321 3068 1321 2327 
Q 1321 1589 1643 1198 
Q 1966 807 2502 807 
Q 3039 807 3361 1198 
Q 3684 1589 3684 2327 
z
" transform="scale(0.015625)"/>
      <path id="Inter-Bold-56" d="M 1246 4655 
L 2371 1118 
L 2414 1118 
L 3541 4655 
L 4632 4655 
L 3027 0 
L 1759 0 
L 152 4655 
L 1246 4655 
z
" transform="scale(0.015625)"/>
      <path id="Inter-Bold-49" d="M 1389 4655 
L 1389 0 
L 405 0 
L 405 4655 
L 1389 4655 
z
" transform="scale(0.015625)"/>
      <path id="Inter-Bold-44" d="M 2055 0 
L 405 0 
L 405 4655 
L 2068 4655 
Q 2771 4655 3278 4376 
Q 3786 4098 4059 3577 
Q 4332 3057 4332 2332 
Q 4332 1605 4058 1082 
Q 3784 559 3274 279 
Q 2764 0 2055 0 
z
M 1389 843 
L 2014 843 
Q 2671 843 3010 1197 
Q 3350 1552 3350 2332 
Q 3350 3107 3010 3459 
Q 2671 3811 2016 3811 
L 1389 3811 
L 1389 843 
z
" transform="scale(0.015625)"/>
      <path id="Inter-Bold-2d" d="M 2561 2295 
L 2561 1527 
L 439 1527 
L 439 2295 
L 2561 2295 
z
" transform="scale(0.015625)"/>
      <path id="Inter-Bold-31" d="M 2305 4655 
L 2305 0 
L 1323 0 
L 1323 3450 
L 1280 3450 
Q 1205 3334 961 3219 
Q 718 3105 332 3105 
L 332 3886 
Q 632 3886 857 4019 
Q 1082 4152 1209 4333 
Q 1336 4514 1341 4655 
L 2305 4655 
z
" transform="scale(0.015625)"/>
      <path id="Inter-Bold-39" d="M 2061 4732 
Q 2421 4732 2753 4612 
Q 3086 4493 3348 4227 
Q 3611 3961 3766 3523 
Q 3921 3086 3921 2448 
Q 3921 1659 3686 1096 
Q 3452 534 3028 235 
Q 2605 -64 2027 -64 
Q 1561 -64 1204 117 
Q 848 298 631 610 
Q 414 923 368 1314 
L 1339 1314 
Q 1396 1059 1577 919 
Q 1759 780 2027 780 
Q 2482 780 2718 1176 
Q 2955 1573 2957 2264 
L 2925 2264 
Q 2771 1957 2453 1782 
Q 2136 1607 1752 1607 
Q 1341 1607 1016 1801 
Q 691 1995 506 2334 
Q 321 2673 323 3109 
Q 321 3582 539 3949 
Q 757 4316 1149 4525 
Q 1541 4734 2061 4732 
z
M 2068 3959 
Q 1725 3959 1500 3722 
Q 1275 3486 1277 3136 
Q 1275 2791 1496 2555 
Q 1718 2320 2059 2320 
Q 2284 2320 2465 2431 
Q 2646 2543 2751 2729 
Q 2857 2916 2859 3141 
Q 2857 3366 2753 3551 
Q 2650 3736 2473 3847 
Q 2296 3959 2068 3959 
z
" transform="scale(0.015625)"/>
      <path id="Inter-Bold-2c" d="M 1439 636 
L 1414 386 
Q 1384 86 1301 -212 
Q 1218 -511 1128 -754 
Q 1039 -998 984 -1136 
L 357 -1136 
Q 391 -1002 450 -763 
Q 509 -525 561 -226 
Q 614 73 627 382 
L 639 636 
L 1439 636 
z
" transform="scale(0.015625)"/>
      <path id="Inter-Bold-63" d="M 1964 -68 
Q 1427 -68 1042 160 
Q 657 389 451 795 
Q 246 1202 246 1732 
Q 246 2268 453 2674 
Q 661 3080 1045 3308 
Q 1430 3536 1959 3536 
Q 2416 3536 2760 3370 
Q 3105 3205 3303 2905 
Q 3502 2605 3523 2200 
L 2609 2200 
Q 2571 2461 2406 2621 
Q 2241 2782 1975 2782 
Q 1639 2782 1434 2511 
Q 1230 2241 1230 1745 
Q 1230 1245 1433 971 
Q 1636 698 1975 698 
Q 2225 698 2395 849 
Q 2566 1000 2609 1280 
L 3523 1280 
Q 3500 880 3305 575 
Q 3111 270 2770 101 
Q 2430 -68 1964 -68 
z
" transform="scale(0.015625)"/>
     </defs>
     <use xlink:href="#Inter-Bold-41"/>
     <use xlink:href="#Inter-Bold-76" x="74.786942"/>
     <use xlink:href="#Inter-Bold-65" x="133.380707"/>
     <use xlink:href="#Inter-Bold-72" x="193.146347"/>
     <use xlink:href="#Inter-Bold-61" x="236.008575"/>
     <use xlink:href="#Inter-Bold-67" x="294.034149"/>
     <use xlink:href="#Inter-Bold-65" x="357.350922"/>
     <use xlink:href="#Inter-Bold-20" x="417.116562"/>
     <use xlink:href="#Inter-Bold-70" x="440.305481"/>
     <use xlink:href="#Inter-Bold-61" x="503.551239"/>
     <use xlink:href="#Inter-Bold-74" x="561.576813"/>
     <use xlink:href="#Inter-Bold-69" x="600.426254"/>
     <use xlink:href="#Inter-Bold-65" x="627.62796"/>
     <use xlink:href="#Inter-Bold-6e" x="687.3936"/>
     <use xlink:href="#Inter-Bold-74" x="749.574005"/>
     <use xlink:href="#Inter-Bold-73" x="788.423447"/>
     <use xlink:href="#Inter-Bold-20" x="844.602432"/>
     <use xlink:href="#Inter-Bold-69" x="867.791351"/>
     <use xlink:href="#Inter-Bold-6e" x="894.993057"/>
     <use xlink:href="#Inter-Bold-20" x="957.173462"/>
     <use xlink:href="#Inter-Bold-68" x="980.362381"/>
     <use xlink:href="#Inter-Bold-6f" x="1042.791367"/>
     <use xlink:href="#Inter-Bold-73" x="1104.155014"/>
     <use xlink:href="#Inter-Bold-70" x="1160.334"/>
     <use xlink:href="#Inter-Bold-69" x="1223.579758"/>
     <use xlink:href="#Inter-Bold-74" x="1250.781464"/>
     <use xlink:href="#Inter-Bold-61" x="1289.630905"/>
     <use xlink:href="#Inter-Bold-6c" x="1347.656479"/>
     <use xlink:href="#Inter-Bold-20" x="1374.858185"/>
     <use xlink:href="#Inter-Bold-77" x="1398.047104"/>
     <use xlink:href="#Inter-Bold-69" x="1483.061325"/>
     <use xlink:href="#Inter-Bold-74" x="1510.263031"/>
     <use xlink:href="#Inter-Bold-68" x="1549.112473"/>
     <use xlink:href="#Inter-Bold-20" x="1611.541458"/>
     <use xlink:href="#Inter-Bold-43" x="1634.730377"/>
     <use xlink:href="#Inter-Bold-4f" x="1709.943466"/>
     <use xlink:href="#Inter-Bold-56" x="1788.139511"/>
     <use xlink:href="#Inter-Bold-49" x="1862.926453"/>
     <use xlink:href="#Inter-Bold-44" x="1890.980438"/>
     <use xlink:href="#Inter-Bold-2d" x="1963.707733"/>
     <use xlink:href="#Inter-Bold-31" x="2010.582748"/>
     <use xlink:href="#Inter-Bold-39" x="2057.990433"/>
     <use xlink:href="#Inter-Bold-2c" x="2124.006073"/>
     <use xlink:href="#Inter-Bold-20" x="2154.297272"/>
     <use xlink:href="#Inter-Bold-70" x="2177.486191"/>
     <use xlink:href="#Inter-Bold-65" x="2240.731949"/>
     <use xlink:href="#Inter-Bold-72" x="2300.497589"/>
     <use xlink:href="#Inter-Bold-20" x="2343.359818"/>
     <use xlink:href="#Inter-Bold-63" x="2366.548737"/>
     <use xlink:href="#Inter-Bold-61" x="2425.284546"/>
     <use xlink:href="#Inter-Bold-70" x="2483.31012"/>
     <use xlink:href="#Inter-Bold-69" x="2546.555878"/>
     <use xlink:href="#Inter-Bold-74" x="2573.757584"/>
     <use xlink:href="#Inter-Bold-61" x="2612.607025"/>
    </g>
   </g>
   <g id="legend_1">
    <g id="patch_4">
     <path d="M 621.601562 98.614062 
L 731.175 98.614062 
Q 733.175 98.614062 733.175 96.614062 
L 733.175 40.225 
Q 733.175 38.225 731.175 38.225 
L 621.601562 38.225 
Q 619.601562 38.225 619.601562 40.225 
L 619.601562 96.614062 
Q 619.601562 98.614062 621.601562 98.614062 
z
" style="fill: #ffffff; opacity: 0.8; stroke: #cccccc; stroke-linejoin: miter"/>
    </g>
    <g id="line2d_41">
     <path d="M 623.601562 45.998437 
L 633.601562 45.998437 
L 643.601562 45.998437 
" style="fill: none; stroke: #d4351c; stroke-width: 2; stroke-linecap: square"/>
    </g>
    <g id="text_21">
     <!-- Wales -->
     <g transform="translate(651.601562 49.498437)scale(0.1 -0.1)">
      <defs>
       <path id="Inter-Regular-57" d="M 1409 0 
L 136 4655 
L 709 4655 
L 1682 864 
L 1727 864 
L 2718 4655 
L 3355 4655 
L 4346 864 
L 4391 864 
L 5364 4655 
L 5936 4655 
L 4664 0 
L 4082 0 
L 3055 3709 
L 3018 3709 
L 1991 0 
L 1409 0 
z
" transform="scale(0.015625)"/>
      </defs>
      <use xlink:href="#Inter-Regular-57"/>
      <use xlink:href="#Inter-Regular-61" x="94.886383"/>
      <use xlink:href="#Inter-Regular-6c" x="151.278442"/>
      <use xlink:href="#Inter-Regular-65" x="175.000031"/>
      <use xlink:href="#Inter-Regular-73" x="233.238678"/>
     </g>
    </g>
    <g id="line2d_42">
     <path d="M 623.601562 60.317187 
L 633.601562 60.317187 
L 643.601562 60.317187 
" style="fill: none; stroke: #003078; stroke-width: 2; stroke-linecap: square"/>
    </g>
    <g id="text_22">
     <!-- Scotland -->
     <g transform="translate(651.601562 63.817187)scale(0.1 -0.1)">
      <use xlink:href="#Inter-Regular-53"/>
      <use xlink:href="#Inter-Regular-63" x="63.778427"/>
      <use xlink:href="#Inter-Regular-6f" x="119.602295"/>
      <use xlink:href="#Inter-Regular-74" x="179.261398"/>
      <use xlink:href="#Inter-Regular-6c" x="215.625046"/>
      <use xlink:href="#Inter-Regular-61" x="239.346634"/>
      <use xlink:href="#Inter-Regular-6e" x="295.738693"/>
      <use xlink:href="#Inter-Regular-64" x="354.261429"/>
     </g>
    </g>
    <g id="line2d_43">
     <path d="M 623.601562 74.635937 
L 633.601562 74.635937 
L 643.601562 74.635937 
" style="fill: none; stroke: #ffdd00; stroke-width: 2; stroke-linecap: square"/>
    </g>
    <g id="text_23">
     <!-- Northern Ireland -->
     <g transform="translate(651.601562 78.135937)scale(0.1 -0.1)">
      <use xlink:href="#Inter-Regular-4e"/>
      <use xlink:href="#Inter-Regular-6f" x="75.284103"/>
      <use xlink:href="#Inter-Regular-72" x="134.943207"/>
      <use xlink:href="#Inter-Regular-74" x="173.295486"/>
      <use xlink:href="#Inter-Regular-68" x="209.659134"/>
      <use xlink:href="#Inter-Regular-65" x="268.750061"/>
      <use xlink:href="#Inter-Regular-72" x="326.988708"/>
      <use xlink:href="#Inter-Regular-6e" x="365.340988"/>
      <use xlink:href="#Inter-Regular-20" x="423.863724"/>
      <use xlink:href="#Inter-Regular-49" x="451.988724"/>
      <use xlink:href="#Inter-Regular-72" x="478.40918"/>
      <use xlink:href="#Inter-Regular-65" x="516.761459"/>
      <use xlink:href="#Inter-Regular-6c" x="575.000107"/>
      <use xlink:href="#Inter-Regular-61" x="598.721695"/>
      <use xlink:href="#Inter-Regular-6e" x="655.113754"/>
      <use xlink:href="#Inter-Regular-64" x="713.63649"/>
     </g>
    </g>
    <g id="line2d_44">
     <path d="M 623.601562 88.954687 
L 633.601562 88.954687 
L 643.601562 88.954687 
" style="fill: none; stroke: #5694ca; stroke-width: 2; stroke-linecap: square"/>
    </g>
    <g id="text_24">
     <!-- England -->
     <g transform="translate(651.601562 92.454687)scale(0.1 -0.1)">
      <defs>
       <path id="Inter-Regular-45" d="M 564 0 
L 564 4655 
L 3373 4655 
L 3373 4155 
L 1127 4155 
L 1127 2582 
L 3227 2582 
L 3227 2082 
L 1127 2082 
L 1127 500 
L 3409 500 
L 3409 0 
L 564 0 
z
" transform="scale(0.015625)"/>
      </defs>
      <use xlink:href="#Inter-Regular-45"/>
      <use xlink:href="#Inter-Regular-6e" x="59.801147"/>
      <use xlink:href="#Inter-Regular-67" x="118.323883"/>
      <use xlink:href="#Inter-Regular-6c" x="179.261398"/>
      <use xlink:href="#Inter-Regular-61" x="202.982986"/>
      <use xlink:href="#Inter-Regular-6e" x="259.375046"/>
      <use xlink:href="#Inter-Regular-64" x="317.897781"/>
     </g>
    </g>
   </g>
  </g>
 </g>
 <defs>
  <clipPath id="pbb11cbb168">
   <rect x="68.575" y="33.225" width="669.6" height="443.52"/>
  </clipPath>
 </defs>
</svg>
