<?xml version="1.0" encoding="utf-8" standalone="no"?>
<!DOCTYPE svg PUBLIC "-//W3C//DTD SVG 1.1//EN"
  "http://www.w3.org/Graphics/SVG/1.1/DTD/svg11.dtd">
<!-- Created with matplotlib (https://matplotlib.org/) -->
<svg version="1.1" viewBox="0 0 740.804688 511.27625" xmlns="http://www.w3.org/2000/svg" xmlns:xlink="http://www.w3.org/1999/xlink">
 <metadata>
  <rdf:RDF xmlns:cc="http://creativecommons.org/ns#" xmlns:dc="http://purl.org/dc/elements/1.1/" xmlns:rdf="http://www.w3.org/1999/02/22-rdf-syntax-ns#">
   <cc:Work>
    <dc:type rdf:resource="http://purl.org/dc/dcmitype/StillImage"/>
    <dc:date>2021-03-20T16:18:31.743366</dc:date>
    <dc:format>image/svg+xml</dc:format>
    <dc:creator>
     <cc:Agent>
      <dc:title>Matplotlib v3.3.4, https://matplotlib.org/</dc:title>
     </cc:Agent>
    </dc:creator>
   </cc:Work>
  </rdf:RDF>
 </metadata>
 <defs>
  <style type="text/css">*{stroke-linecap:butt;stroke-linejoin:round;}</style>
 </defs>
 <g id="figure_1">
  <g id="patch_1">
   <path d="M 0 511.27625 
L 740.804688 511.27625 
L 740.804688 0 
L 0 0 
z
" style="fill:#ffffff;"/>
  </g>
  <g id="axes_1">
   <g id="patch_2">
    <path d="M 53.204688 476.745 
L 722.804688 476.745 
L 722.804688 33.225 
L 53.204688 33.225 
z
" style="fill:#ffffff;"/>
   </g>
   <g id="matplotlib.axis_1">
    <g id="xtick_1">
     <g id="line2d_1">
      <defs>
       <path d="M 0 0 
L 0 3.5 
" id="m8fa84761e3" style="stroke:#000000;stroke-width:0.8;"/>
      </defs>
      <g>
       <use style="stroke:#000000;stroke-width:0.8;" x="53.204688" xlink:href="#m8fa84761e3" y="476.745"/>
      </g>
     </g>
     <g id="text_1">
      <!-- 01 Mar -->
      <g transform="translate(37.167969 491.018438)scale(0.1 -0.1)">
       <defs>
        <path d="M 31.25 -1 
Q 19.21875 -1 12.59375 8.765625 
Q 5.96875 18.53125 5.96875 36.359375 
Q 5.96875 54.046875 12.640625 63.875 
Q 19.3125 73.71875 31.25 73.71875 
Q 43.1875 73.71875 49.859375 63.875 
Q 56.53125 54.046875 56.53125 36.359375 
Q 56.53125 18.53125 49.90625 8.765625 
Q 43.296875 -1 31.25 -1 
z
M 31.25 6.8125 
Q 39.203125 6.8125 43.609375 14.484375 
Q 48.015625 22.15625 48.015625 36.359375 
Q 48.015625 50.53125 43.578125 58.28125 
Q 39.140625 66.046875 31.25 66.046875 
Q 23.375 66.046875 18.921875 58.28125 
Q 14.484375 50.53125 14.484375 36.359375 
Q 14.484375 22.15625 18.90625 14.484375 
Q 23.328125 6.8125 31.25 6.8125 
z
" id="Inter-Regular-48"/>
        <path d="M 30.828125 72.734375 
L 30.828125 0 
L 22.015625 0 
L 22.015625 59.9375 
L 21.453125 59.9375 
Q 20.953125 58.953125 18.890625 57.6875 
Q 16.828125 56.421875 13.5625 55.484375 
Q 10.296875 54.546875 6.109375 54.546875 
L 6.109375 61.9375 
Q 10.328125 61.9375 13.421875 63.453125 
Q 16.515625 64.984375 18.59375 67.046875 
Q 20.671875 69.109375 21.75 70.765625 
Q 22.828125 72.4375 23.015625 72.734375 
z
" id="Inter-Regular-49"/>
        <path id="Inter-Regular-32"/>
        <path d="M 8.8125 72.734375 
L 19.3125 72.734375 
L 44.03125 12.359375 
L 44.890625 12.359375 
L 69.609375 72.734375 
L 80.109375 72.734375 
L 80.109375 0 
L 71.875 0 
L 71.875 55.25 
L 71.171875 55.25 
L 48.4375 0 
L 40.484375 0 
L 17.75 55.25 
L 17.046875 55.25 
L 17.046875 0 
L 8.8125 0 
z
" id="Inter-Regular-77"/>
        <path d="M 23.71875 -1.28125 
Q 18.53125 -1.28125 14.3125 0.6875 
Q 10.09375 2.65625 7.59375 6.40625 
Q 5.109375 10.15625 5.109375 15.484375 
Q 5.109375 20.171875 6.953125 23.09375 
Q 8.8125 26.03125 11.890625 27.703125 
Q 14.984375 29.375 18.734375 30.203125 
Q 22.484375 31.03125 26.28125 31.53125 
Q 31.25 32.171875 34.359375 32.5 
Q 37.46875 32.84375 38.90625 33.65625 
Q 40.34375 34.484375 40.34375 36.5 
L 40.34375 36.796875 
Q 40.34375 42.046875 37.484375 44.953125 
Q 34.625 47.875 28.84375 47.875 
Q 22.828125 47.875 19.421875 45.234375 
Q 16.015625 42.609375 14.625 39.625 
L 6.671875 42.46875 
Q 8.8125 47.4375 12.375 50.21875 
Q 15.953125 53.015625 20.1875 54.125 
Q 24.4375 55.25 28.546875 55.25 
Q 31.1875 55.25 34.609375 54.625 
Q 38.03125 54.015625 41.25 52.09375 
Q 44.46875 50.171875 46.59375 46.296875 
Q 48.71875 42.4375 48.71875 35.9375 
L 48.71875 0 
L 40.34375 0 
L 40.34375 7.390625 
L 39.921875 7.390625 
Q 39.0625 5.609375 37.078125 3.578125 
Q 35.09375 1.5625 31.78125 0.140625 
Q 28.484375 -1.28125 23.71875 -1.28125 
z
M 25 6.25 
Q 29.96875 6.25 33.390625 8.203125 
Q 36.828125 10.15625 38.578125 13.234375 
Q 40.34375 16.328125 40.34375 19.75 
L 40.34375 27.421875 
Q 39.8125 26.78125 38.015625 26.265625 
Q 36.21875 25.75 33.890625 25.375 
Q 31.578125 25 29.390625 24.734375 
Q 27.203125 24.46875 25.859375 24.296875 
Q 22.59375 23.859375 19.765625 22.921875 
Q 16.9375 21.984375 15.21875 20.109375 
Q 13.5 18.25 13.5 15.0625 
Q 13.5 10.6875 16.75 8.46875 
Q 20 6.25 25 6.25 
z
" id="Inter-Regular-97"/>
        <path d="M 7.671875 0 
L 7.671875 54.546875 
L 15.765625 54.546875 
L 15.765625 46.3125 
L 16.34375 46.3125 
Q 17.796875 50.359375 21.703125 52.875 
Q 25.609375 55.390625 30.546875 55.390625 
Q 32.8125 55.390625 34.515625 54.859375 
Q 36.21875 54.328125 37.5 53.40625 
L 34.65625 46.3125 
Q 33.765625 46.765625 32.578125 47.03125 
Q 31.390625 47.296875 29.828125 47.296875 
Q 23.859375 47.296875 19.953125 43.65625 
Q 16.046875 40.015625 16.046875 34.515625 
L 16.046875 0 
z
" id="Inter-Regular-114"/>
       </defs>
       <use xlink:href="#Inter-Regular-48"/>
       <use x="62.500015" xlink:href="#Inter-Regular-49"/>
       <use x="106.676163" xlink:href="#Inter-Regular-32"/>
       <use x="134.801163" xlink:href="#Inter-Regular-77"/>
       <use x="225.99437" xlink:href="#Inter-Regular-97"/>
       <use x="282.386429" xlink:href="#Inter-Regular-114"/>
      </g>
     </g>
    </g>
    <g id="xtick_2">
     <g id="line2d_2">
      <g>
       <use style="stroke:#000000;stroke-width:0.8;" x="107.165647" xlink:href="#m8fa84761e3" y="476.745"/>
      </g>
     </g>
     <g id="text_2">
      <!-- 01 Apr -->
      <g transform="translate(92.08049 491.116875)scale(0.1 -0.1)">
       <defs>
        <path d="M 11.796875 0 
L 2.5625 0 
L 29.265625 72.734375 
L 38.359375 72.734375 
L 65.0625 0 
L 55.828125 0 
L 48.515625 20.59375 
L 19.109375 20.59375 
z
M 21.875 28.40625 
L 45.734375 28.40625 
L 34.09375 61.21875 
L 33.53125 61.21875 
z
" id="Inter-Regular-65"/>
        <path d="M 7.671875 -20.453125 
L 7.671875 54.546875 
L 15.765625 54.546875 
L 15.765625 45.875 
L 16.765625 45.875 
Q 17.6875 47.296875 19.328125 49.515625 
Q 20.984375 51.734375 24.09375 53.484375 
Q 27.203125 55.25 32.53125 55.25 
Q 39.421875 55.25 44.671875 51.796875 
Q 49.9375 48.359375 52.875 42.03125 
Q 55.828125 35.71875 55.828125 27.125 
Q 55.828125 18.46875 52.875 12.125 
Q 49.9375 5.78125 44.703125 2.3125 
Q 39.484375 -1.140625 32.671875 -1.140625 
Q 27.421875 -1.140625 24.25 0.609375 
Q 21.09375 2.375 19.390625 4.625 
Q 17.6875 6.890625 16.765625 8.375 
L 16.046875 8.375 
L 16.046875 -20.453125 
z
M 15.90625 27.265625 
Q 15.90625 18 19.9375 12.1875 
Q 23.96875 6.390625 31.53125 6.390625 
Q 36.796875 6.390625 40.328125 9.171875 
Q 43.859375 11.96875 45.640625 16.703125 
Q 47.4375 21.453125 47.4375 27.265625 
Q 47.4375 33.03125 45.671875 37.65625 
Q 43.921875 42.296875 40.390625 45.015625 
Q 36.859375 47.734375 31.53125 47.734375 
Q 23.859375 47.734375 19.875 42.078125 
Q 15.90625 36.4375 15.90625 27.265625 
z
" id="Inter-Regular-112"/>
       </defs>
       <use xlink:href="#Inter-Regular-48"/>
       <use x="62.500015" xlink:href="#Inter-Regular-49"/>
       <use x="106.676163" xlink:href="#Inter-Regular-32"/>
       <use x="134.801163" xlink:href="#Inter-Regular-65"/>
       <use x="202.41481" xlink:href="#Inter-Regular-112"/>
       <use x="263.352325" xlink:href="#Inter-Regular-114"/>
      </g>
     </g>
    </g>
    <g id="xtick_3">
     <g id="line2d_3">
      <g>
       <use style="stroke:#000000;stroke-width:0.8;" x="159.38593" xlink:href="#m8fa84761e3" y="476.745"/>
      </g>
     </g>
     <g id="text_3">
      <!-- 01 May -->
      <g transform="translate(142.482805 491.116875)scale(0.1 -0.1)">
       <defs>
        <path d="M 12.78125 -21.171875 
Q 10.65625 -21.171875 8.984375 -20.828125 
Q 7.3125 -20.484375 6.671875 -20.171875 
L 8.8125 -12.78125 
Q 13.390625 -13.953125 16.453125 -12.71875 
Q 19.53125 -11.5 21.734375 -5.390625 
L 23.578125 -0.28125 
L 3.40625 54.546875 
L 12.5 54.546875 
L 27.5625 11.078125 
L 28.125 11.078125 
L 43.1875 54.546875 
L 52.28125 54.546875 
L 28.84375 -8.8125 
Q 24.21875 -21.171875 12.78125 -21.171875 
z
" id="Inter-Regular-121"/>
       </defs>
       <use xlink:href="#Inter-Regular-48"/>
       <use x="62.500015" xlink:href="#Inter-Regular-49"/>
       <use x="106.676163" xlink:href="#Inter-Regular-32"/>
       <use x="134.801163" xlink:href="#Inter-Regular-77"/>
       <use x="225.99437" xlink:href="#Inter-Regular-97"/>
       <use x="282.386429" xlink:href="#Inter-Regular-121"/>
      </g>
     </g>
    </g>
    <g id="xtick_4">
     <g id="line2d_4">
      <g>
       <use style="stroke:#000000;stroke-width:0.8;" x="213.346889" xlink:href="#m8fa84761e3" y="476.745"/>
      </g>
     </g>
     <g id="text_4">
      <!-- 01 Jun -->
      <g transform="translate(198.062514 491.018438)scale(0.1 -0.1)">
       <defs>
        <path d="M 36.65625 72.734375 
L 45.453125 72.734375 
L 45.453125 20.734375 
Q 45.453125 10.265625 39.828125 4.625 
Q 34.203125 -1 24.71875 -1 
Q 18.75 -1 14.09375 1.1875 
Q 9.453125 3.375 6.78125 7.421875 
Q 4.125 11.46875 4.125 17.046875 
L 12.78125 17.046875 
Q 12.78125 12.421875 16.15625 9.609375 
Q 19.53125 6.8125 24.71875 6.8125 
Q 30.4375 6.8125 33.546875 10.375 
Q 36.65625 13.953125 36.65625 20.734375 
z
" id="Inter-Regular-74"/>
        <path d="M 42.046875 22.296875 
L 42.046875 54.546875 
L 50.421875 54.546875 
L 50.421875 0 
L 42.046875 0 
L 42.046875 9.234375 
L 41.484375 9.234375 
Q 39.5625 5.078125 35.515625 2.1875 
Q 31.46875 -0.703125 25.28125 -0.703125 
Q 17.609375 -0.703125 12.640625 4.375 
Q 7.671875 9.453125 7.671875 19.890625 
L 7.671875 54.546875 
L 16.046875 54.546875 
L 16.046875 20.453125 
Q 16.046875 14.484375 19.40625 10.9375 
Q 22.765625 7.390625 27.984375 7.390625 
Q 31.109375 7.390625 34.359375 8.984375 
Q 37.609375 10.578125 39.828125 13.875 
Q 42.046875 17.1875 42.046875 22.296875 
z
" id="Inter-Regular-117"/>
        <path d="M 16.046875 32.8125 
L 16.046875 0 
L 7.671875 0 
L 7.671875 54.546875 
L 15.765625 54.546875 
L 15.765625 46.015625 
L 16.484375 46.015625 
Q 18.390625 50.171875 22.296875 52.703125 
Q 26.203125 55.25 32.390625 55.25 
Q 40.65625 55.25 45.75 50.171875 
Q 50.859375 45.09375 50.859375 34.65625 
L 50.859375 0 
L 42.46875 0 
L 42.46875 34.09375 
Q 42.46875 40.515625 39.125 44.125 
Q 35.796875 47.734375 29.96875 47.734375 
Q 23.96875 47.734375 20 43.84375 
Q 16.046875 39.953125 16.046875 32.8125 
z
" id="Inter-Regular-110"/>
       </defs>
       <use xlink:href="#Inter-Regular-48"/>
       <use x="62.500015" xlink:href="#Inter-Regular-49"/>
       <use x="106.676163" xlink:href="#Inter-Regular-32"/>
       <use x="134.801163" xlink:href="#Inter-Regular-74"/>
       <use x="189.062531" xlink:href="#Inter-Regular-117"/>
       <use x="247.159134" xlink:href="#Inter-Regular-110"/>
      </g>
     </g>
    </g>
    <g id="xtick_5">
     <g id="line2d_5">
      <g>
       <use style="stroke:#000000;stroke-width:0.8;" x="265.567172" xlink:href="#m8fa84761e3" y="476.745"/>
      </g>
     </g>
     <g id="text_5">
      <!-- 01 Jul -->
      <g transform="translate(252.023422 491.018438)scale(0.1 -0.1)">
       <defs>
        <path d="M 16.046875 72.734375 
L 16.046875 0 
L 7.671875 0 
L 7.671875 72.734375 
z
" id="Inter-Regular-108"/>
       </defs>
       <use xlink:href="#Inter-Regular-48"/>
       <use x="62.500015" xlink:href="#Inter-Regular-49"/>
       <use x="106.676163" xlink:href="#Inter-Regular-32"/>
       <use x="134.801163" xlink:href="#Inter-Regular-74"/>
       <use x="189.062531" xlink:href="#Inter-Regular-117"/>
       <use x="247.159134" xlink:href="#Inter-Regular-108"/>
      </g>
     </g>
    </g>
    <g id="xtick_6">
     <g id="line2d_6">
      <g>
       <use style="stroke:#000000;stroke-width:0.8;" x="319.528131" xlink:href="#m8fa84761e3" y="476.745"/>
      </g>
     </g>
     <g id="text_6">
      <!-- 01 Aug -->
      <g transform="translate(303.456256 491.116875)scale(0.1 -0.1)">
       <defs>
        <path d="M 29.6875 -21.59375 
Q 20.5625 -21.59375 15.25 -18.265625 
Q 9.9375 -14.953125 7.390625 -10.65625 
L 14.0625 -5.96875 
Q 15.203125 -7.453125 16.9375 -9.390625 
Q 18.6875 -11.328125 21.71875 -12.765625 
Q 24.75 -14.203125 29.6875 -14.203125 
Q 36.296875 -14.203125 40.59375 -11 
Q 44.890625 -7.8125 44.890625 -1 
L 44.890625 10.078125 
L 44.171875 10.078125 
Q 43.25 8.59375 41.5625 6.40625 
Q 39.875 4.21875 36.734375 2.53125 
Q 33.59375 0.859375 28.265625 0.859375 
Q 21.65625 0.859375 16.421875 3.984375 
Q 11.1875 7.109375 8.140625 13.0625 
Q 5.109375 19.03125 5.109375 27.5625 
Q 5.109375 35.9375 8.0625 42.171875 
Q 11.015625 48.40625 16.265625 51.828125 
Q 21.515625 55.25 28.40625 55.25 
Q 33.734375 55.25 36.875 53.484375 
Q 40.015625 51.734375 41.703125 49.515625 
Q 43.390625 47.296875 44.3125 45.875 
L 45.171875 45.875 
L 45.171875 54.546875 
L 53.265625 54.546875 
L 53.265625 -1.5625 
Q 53.265625 -8.59375 50.078125 -13.015625 
Q 46.90625 -17.4375 41.5625 -19.515625 
Q 36.21875 -21.59375 29.6875 -21.59375 
z
M 29.40625 8.375 
Q 36.96875 8.375 41 13.5 
Q 45.03125 18.640625 45.03125 27.703125 
Q 45.03125 36.546875 41.046875 42.140625 
Q 37.078125 47.734375 29.40625 47.734375 
Q 24.078125 47.734375 20.546875 45.03125 
Q 17.015625 42.328125 15.25 37.78125 
Q 13.5 33.234375 13.5 27.703125 
Q 13.5 19.171875 17.5 13.765625 
Q 21.515625 8.375 29.40625 8.375 
z
" id="Inter-Regular-103"/>
       </defs>
       <use xlink:href="#Inter-Regular-48"/>
       <use x="62.500015" xlink:href="#Inter-Regular-49"/>
       <use x="106.676163" xlink:href="#Inter-Regular-32"/>
       <use x="134.801163" xlink:href="#Inter-Regular-65"/>
       <use x="202.41481" xlink:href="#Inter-Regular-117"/>
       <use x="260.511414" xlink:href="#Inter-Regular-103"/>
      </g>
     </g>
    </g>
    <g id="xtick_7">
     <g id="line2d_7">
      <g>
       <use style="stroke:#000000;stroke-width:0.8;" x="373.489091" xlink:href="#m8fa84761e3" y="476.745"/>
      </g>
     </g>
     <g id="text_7">
      <!-- 01 Sep -->
      <g transform="translate(357.601591 491.116875)scale(0.1 -0.1)">
       <defs>
        <path d="M 48.578125 54.546875 
Q 47.9375 59.9375 43.390625 62.921875 
Q 38.84375 65.90625 32.25 65.90625 
Q 25 65.90625 20.59375 62.484375 
Q 16.1875 59.0625 16.1875 53.828125 
Q 16.1875 49.921875 18.578125 47.53125 
Q 20.984375 45.140625 24.265625 43.796875 
Q 27.5625 42.46875 30.25 41.765625 
L 37.640625 39.765625 
Q 40.484375 39.03125 43.984375 37.71875 
Q 47.484375 36.40625 50.6875 34.140625 
Q 53.90625 31.890625 56 28.375 
Q 58.09375 24.859375 58.09375 19.75 
Q 58.09375 13.84375 55.015625 9.078125 
Q 51.953125 4.328125 46.078125 1.515625 
Q 40.203125 -1.28125 31.8125 -1.28125 
Q 20.09375 -1.28125 13.203125 4.25 
Q 6.328125 9.796875 5.6875 18.75 
L 14.78125 18.75 
Q 15.125 14.625 17.5625 11.9375 
Q 20 9.265625 23.734375 7.96875 
Q 27.484375 6.671875 31.8125 6.671875 
Q 36.859375 6.671875 40.875 8.328125 
Q 44.890625 9.984375 47.234375 12.9375 
Q 49.578125 15.90625 49.578125 19.890625 
Q 49.578125 23.515625 47.546875 25.78125 
Q 45.53125 28.046875 42.21875 29.46875 
Q 38.921875 30.890625 35.09375 31.953125 
L 26.140625 34.515625 
Q 17.609375 36.96875 12.640625 41.515625 
Q 7.671875 46.0625 7.671875 53.40625 
Q 7.671875 59.515625 10.984375 64.078125 
Q 14.3125 68.640625 19.9375 71.171875 
Q 25.5625 73.71875 32.53125 73.71875 
Q 39.5625 73.71875 45.03125 71.21875 
Q 50.5 68.71875 53.703125 64.375 
Q 56.921875 60.046875 57.109375 54.546875 
z
" id="Inter-Regular-83"/>
        <path d="M 30.546875 -1.140625 
Q 22.65625 -1.140625 16.953125 2.359375 
Q 11.265625 5.859375 8.1875 12.15625 
Q 5.109375 18.46875 5.109375 26.84375 
Q 5.109375 35.234375 8.1875 41.640625 
Q 11.265625 48.046875 16.78125 51.640625 
Q 22.296875 55.25 29.6875 55.25 
Q 33.953125 55.25 38.109375 53.828125 
Q 42.265625 52.421875 45.671875 49.234375 
Q 49.078125 46.0625 51.09375 40.84375 
Q 53.125 35.625 53.125 27.984375 
L 53.125 24.4375 
L 13.53125 24.4375 
Q 13.8125 15.703125 18.484375 11.046875 
Q 23.15625 6.390625 30.546875 6.390625 
Q 35.484375 6.390625 39.03125 8.515625 
Q 42.578125 10.65625 44.171875 14.921875 
L 52.28125 12.640625 
Q 50.359375 6.46875 44.59375 2.65625 
Q 38.84375 -1.140625 30.546875 -1.140625 
z
M 13.53125 31.671875 
L 44.609375 31.671875 
Q 44.609375 38.59375 40.546875 43.15625 
Q 36.5 47.734375 29.6875 47.734375 
Q 24.890625 47.734375 21.375 45.484375 
Q 17.859375 43.25 15.828125 39.578125 
Q 13.8125 35.90625 13.53125 31.671875 
z
" id="Inter-Regular-101"/>
       </defs>
       <use xlink:href="#Inter-Regular-48"/>
       <use x="62.500015" xlink:href="#Inter-Regular-49"/>
       <use x="106.676163" xlink:href="#Inter-Regular-32"/>
       <use x="134.801163" xlink:href="#Inter-Regular-83"/>
       <use x="198.57959" xlink:href="#Inter-Regular-101"/>
       <use x="256.818237" xlink:href="#Inter-Regular-112"/>
      </g>
     </g>
    </g>
    <g id="xtick_8">
     <g id="line2d_8">
      <g>
       <use style="stroke:#000000;stroke-width:0.8;" x="425.709374" xlink:href="#m8fa84761e3" y="476.745"/>
      </g>
     </g>
     <g id="text_8">
      <!-- 01 Oct -->
      <g transform="translate(410.553124 491.018438)scale(0.1 -0.1)">
       <defs>
        <path d="M 70.171875 36.359375 
Q 70.171875 24.859375 66.015625 16.46875 
Q 61.859375 8.09375 54.609375 3.546875 
Q 47.375 -1 38.0625 -1 
Q 28.765625 -1 21.515625 3.546875 
Q 14.28125 8.09375 10.125 16.46875 
Q 5.96875 24.859375 5.96875 36.359375 
Q 5.96875 47.875 10.125 56.25 
Q 14.28125 64.625 21.515625 69.171875 
Q 28.765625 73.71875 38.0625 73.71875 
Q 47.375 73.71875 54.609375 69.171875 
Q 61.859375 64.625 66.015625 56.25 
Q 70.171875 47.875 70.171875 36.359375 
z
M 61.65625 36.359375 
Q 61.65625 45.8125 58.5 52.3125 
Q 55.359375 58.8125 50.015625 62.140625 
Q 44.671875 65.484375 38.0625 65.484375 
Q 31.46875 65.484375 26.125 62.140625 
Q 20.78125 58.8125 17.625 52.3125 
Q 14.484375 45.8125 14.484375 36.359375 
Q 14.484375 26.921875 17.625 20.421875 
Q 20.78125 13.921875 26.125 10.578125 
Q 31.46875 7.25 38.0625 7.25 
Q 44.671875 7.25 50.015625 10.578125 
Q 55.359375 13.921875 58.5 20.421875 
Q 61.65625 26.921875 61.65625 36.359375 
z
" id="Inter-Regular-79"/>
        <path d="M 29.828125 -1.140625 
Q 22.15625 -1.140625 16.609375 2.484375 
Q 11.078125 6.109375 8.09375 12.46875 
Q 5.109375 18.828125 5.109375 26.984375 
Q 5.109375 35.296875 8.1875 41.671875 
Q 11.265625 48.046875 16.78125 51.640625 
Q 22.296875 55.25 29.6875 55.25 
Q 35.4375 55.25 40.046875 53.125 
Q 44.671875 51 47.609375 47.15625 
Q 50.5625 43.328125 51.28125 38.203125 
L 42.90625 38.203125 
Q 41.9375 41.9375 38.65625 44.828125 
Q 35.375 47.734375 29.828125 47.734375 
Q 22.484375 47.734375 17.984375 42.140625 
Q 13.5 36.546875 13.5 27.265625 
Q 13.5 17.796875 17.9375 12.09375 
Q 22.375 6.390625 29.828125 6.390625 
Q 34.734375 6.390625 38.234375 8.90625 
Q 41.734375 11.4375 42.90625 15.90625 
L 51.28125 15.90625 
Q 50.5625 11.078125 47.78125 7.21875 
Q 45 3.375 40.4375 1.109375 
Q 35.875 -1.140625 29.828125 -1.140625 
z
" id="Inter-Regular-99"/>
        <path d="M 31.390625 54.546875 
L 31.390625 47.4375 
L 19.75 47.4375 
L 19.75 15.625 
Q 19.75 12.078125 20.796875 10.3125 
Q 21.84375 8.5625 23.484375 7.96875 
Q 25.140625 7.390625 26.984375 7.390625 
Q 28.375 7.390625 29.265625 7.546875 
Q 30.15625 7.703125 30.6875 7.8125 
L 32.390625 0.28125 
Q 31.53125 -0.03125 30 -0.359375 
Q 28.484375 -0.703125 26.140625 -0.703125 
Q 22.59375 -0.703125 19.1875 0.8125 
Q 15.796875 2.34375 13.578125 5.46875 
Q 11.359375 8.59375 11.359375 13.359375 
L 11.359375 47.4375 
L 3.125 47.4375 
L 3.125 54.546875 
L 11.359375 54.546875 
L 11.359375 67.609375 
L 19.75 67.609375 
L 19.75 54.546875 
z
" id="Inter-Regular-116"/>
       </defs>
       <use xlink:href="#Inter-Regular-48"/>
       <use x="62.500015" xlink:href="#Inter-Regular-49"/>
       <use x="106.676163" xlink:href="#Inter-Regular-32"/>
       <use x="134.801163" xlink:href="#Inter-Regular-79"/>
       <use x="210.937546" xlink:href="#Inter-Regular-99"/>
       <use x="266.761414" xlink:href="#Inter-Regular-116"/>
      </g>
     </g>
    </g>
    <g id="xtick_9">
     <g id="line2d_9">
      <g>
       <use style="stroke:#000000;stroke-width:0.8;" x="479.670333" xlink:href="#m8fa84761e3" y="476.745"/>
      </g>
     </g>
     <g id="text_9">
      <!-- 01 Nov -->
      <g transform="translate(463.399239 491.018438)scale(0.1 -0.1)">
       <defs>
        <path d="M 66.484375 72.734375 
L 66.484375 0 
L 57.953125 0 
L 18.328125 57.109375 
L 17.609375 57.109375 
L 17.609375 0 
L 8.8125 0 
L 8.8125 72.734375 
L 17.328125 72.734375 
L 57.109375 15.484375 
L 57.8125 15.484375 
L 57.8125 72.734375 
z
" id="Inter-Regular-78"/>
        <path d="M 29.828125 -1.140625 
Q 22.4375 -1.140625 16.875 2.375 
Q 11.328125 5.890625 8.21875 12.203125 
Q 5.109375 18.53125 5.109375 26.984375 
Q 5.109375 35.515625 8.21875 41.859375 
Q 11.328125 48.21875 16.875 51.734375 
Q 22.4375 55.25 29.828125 55.25 
Q 37.21875 55.25 42.765625 51.734375 
Q 48.328125 48.21875 51.4375 41.859375 
Q 54.546875 35.515625 54.546875 26.984375 
Q 54.546875 18.53125 51.4375 12.203125 
Q 48.328125 5.890625 42.765625 2.375 
Q 37.21875 -1.140625 29.828125 -1.140625 
z
M 29.828125 6.390625 
Q 35.4375 6.390625 39.0625 9.265625 
Q 42.6875 12.140625 44.421875 16.828125 
Q 46.171875 21.515625 46.171875 26.984375 
Q 46.171875 32.453125 44.421875 37.171875 
Q 42.6875 41.90625 39.0625 44.8125 
Q 35.4375 47.734375 29.828125 47.734375 
Q 24.21875 47.734375 20.59375 44.8125 
Q 16.96875 41.90625 15.234375 37.171875 
Q 13.5 32.453125 13.5 26.984375 
Q 13.5 21.515625 15.234375 16.828125 
Q 16.96875 12.140625 20.59375 9.265625 
Q 24.21875 6.390625 29.828125 6.390625 
z
" id="Inter-Regular-111"/>
        <path d="M 52.28125 54.546875 
L 32.109375 0 
L 23.578125 0 
L 3.40625 54.546875 
L 12.5 54.546875 
L 27.5625 11.078125 
L 28.125 11.078125 
L 43.1875 54.546875 
z
" id="Inter-Regular-118"/>
       </defs>
       <use xlink:href="#Inter-Regular-48"/>
       <use x="62.500015" xlink:href="#Inter-Regular-49"/>
       <use x="106.676163" xlink:href="#Inter-Regular-32"/>
       <use x="134.801163" xlink:href="#Inter-Regular-78"/>
       <use x="210.085266" xlink:href="#Inter-Regular-111"/>
       <use x="269.74437" xlink:href="#Inter-Regular-118"/>
      </g>
     </g>
    </g>
    <g id="xtick_10">
     <g id="line2d_10">
      <g>
       <use style="stroke:#000000;stroke-width:0.8;" x="531.890616" xlink:href="#m8fa84761e3" y="476.745"/>
      </g>
     </g>
     <g id="text_10">
      <!-- 01 Dec -->
      <g transform="translate(515.853897 491.018438)scale(0.1 -0.1)">
       <defs>
        <path d="M 31.25 0 
L 8.8125 0 
L 8.8125 72.734375 
L 32.25 72.734375 
Q 42.828125 72.734375 50.359375 68.375 
Q 57.890625 64.03125 61.890625 55.90625 
Q 65.90625 47.796875 65.90625 36.5 
Q 65.90625 25.140625 61.859375 16.953125 
Q 57.8125 8.765625 50.0625 4.375 
Q 42.328125 0 31.25 0 
z
M 17.609375 7.8125 
L 30.6875 7.8125 
Q 44.21875 7.8125 50.796875 15.5 
Q 57.390625 23.1875 57.390625 36.5 
Q 57.390625 49.71875 50.921875 57.3125 
Q 44.46875 64.921875 31.671875 64.921875 
L 17.609375 64.921875 
z
" id="Inter-Regular-68"/>
       </defs>
       <use xlink:href="#Inter-Regular-48"/>
       <use x="62.500015" xlink:href="#Inter-Regular-49"/>
       <use x="106.676163" xlink:href="#Inter-Regular-32"/>
       <use x="134.801163" xlink:href="#Inter-Regular-68"/>
       <use x="206.676178" xlink:href="#Inter-Regular-101"/>
       <use x="264.914825" xlink:href="#Inter-Regular-99"/>
      </g>
     </g>
    </g>
    <g id="xtick_11">
     <g id="line2d_11">
      <g>
       <use style="stroke:#000000;stroke-width:0.8;" x="585.851575" xlink:href="#m8fa84761e3" y="476.745"/>
      </g>
     </g>
     <g id="text_11">
      <!-- 01 Jan -->
      <g transform="translate(570.652357 491.018438)scale(0.1 -0.1)">
       <use xlink:href="#Inter-Regular-48"/>
       <use x="62.500015" xlink:href="#Inter-Regular-49"/>
       <use x="106.676163" xlink:href="#Inter-Regular-32"/>
       <use x="134.801163" xlink:href="#Inter-Regular-74"/>
       <use x="189.062531" xlink:href="#Inter-Regular-97"/>
       <use x="245.45459" xlink:href="#Inter-Regular-110"/>
      </g>
     </g>
    </g>
    <g id="xtick_12">
     <g id="line2d_12">
      <g>
       <use style="stroke:#000000;stroke-width:0.8;" x="639.812535" xlink:href="#m8fa84761e3" y="476.745"/>
      </g>
     </g>
     <g id="text_12">
      <!-- 01 Feb -->
      <g transform="translate(624.123472 491.018438)scale(0.1 -0.1)">
       <defs>
        <path d="M 8.8125 0 
L 8.8125 72.734375 
L 52.421875 72.734375 
L 52.421875 64.921875 
L 17.609375 64.921875 
L 17.609375 40.34375 
L 49.15625 40.34375 
L 49.15625 32.53125 
L 17.609375 32.53125 
L 17.609375 0 
z
" id="Inter-Regular-70"/>
        <path d="M 8.8125 0 
L 8.8125 72.734375 
L 17.1875 72.734375 
L 17.1875 45.875 
L 17.90625 45.875 
Q 18.828125 47.296875 20.46875 49.515625 
Q 22.125 51.734375 25.234375 53.484375 
Q 28.34375 55.25 33.671875 55.25 
Q 40.5625 55.25 45.8125 51.796875 
Q 51.0625 48.359375 54.015625 42.03125 
Q 56.96875 35.71875 56.96875 27.125 
Q 56.96875 18.46875 54.015625 12.125 
Q 51.0625 5.78125 45.84375 2.3125 
Q 40.625 -1.140625 33.8125 -1.140625 
Q 28.546875 -1.140625 25.390625 0.609375 
Q 22.234375 2.375 20.53125 4.625 
Q 18.828125 6.890625 17.90625 8.375 
L 16.90625 8.375 
L 16.90625 0 
z
M 17.046875 27.265625 
Q 17.046875 18 21.078125 12.1875 
Q 25.109375 6.390625 32.671875 6.390625 
Q 37.921875 6.390625 41.453125 9.171875 
Q 45 11.96875 46.78125 16.703125 
Q 48.578125 21.453125 48.578125 27.265625 
Q 48.578125 33.03125 46.8125 37.65625 
Q 45.0625 42.296875 41.53125 45.015625 
Q 38 47.734375 32.671875 47.734375 
Q 25 47.734375 21.015625 42.078125 
Q 17.046875 36.4375 17.046875 27.265625 
z
" id="Inter-Regular-98"/>
       </defs>
       <use xlink:href="#Inter-Regular-48"/>
       <use x="62.500015" xlink:href="#Inter-Regular-49"/>
       <use x="106.676163" xlink:href="#Inter-Regular-32"/>
       <use x="134.801163" xlink:href="#Inter-Regular-70"/>
       <use x="193.465942" xlink:href="#Inter-Regular-101"/>
       <use x="251.70459" xlink:href="#Inter-Regular-98"/>
      </g>
     </g>
    </g>
    <g id="xtick_13">
     <g id="line2d_13">
      <g>
       <use style="stroke:#000000;stroke-width:0.8;" x="688.551466" xlink:href="#m8fa84761e3" y="476.745"/>
      </g>
     </g>
     <g id="text_13">
      <!-- 01 Mar -->
      <g transform="translate(672.514747 491.018438)scale(0.1 -0.1)">
       <use xlink:href="#Inter-Regular-48"/>
       <use x="62.500015" xlink:href="#Inter-Regular-49"/>
       <use x="106.676163" xlink:href="#Inter-Regular-32"/>
       <use x="134.801163" xlink:href="#Inter-Regular-77"/>
       <use x="225.99437" xlink:href="#Inter-Regular-97"/>
       <use x="282.386429" xlink:href="#Inter-Regular-114"/>
      </g>
     </g>
    </g>
   </g>
   <g id="matplotlib.axis_2">
    <g id="ytick_1">
     <g id="line2d_14">
      <path clip-path="url(#p4f6880783c)" d="M 53.204688 476.745 
L 722.804688 476.745 
" style="fill:none;stroke:#e5e5e5;stroke-linecap:square;stroke-width:0.8;"/>
     </g>
     <g id="line2d_15">
      <defs>
       <path d="M 0 0 
L -3.5 0 
" id="m855475ff43" style="stroke:#000000;stroke-width:0.8;"/>
      </defs>
      <g>
       <use style="stroke:#000000;stroke-width:0.8;" x="53.204688" xlink:href="#m855475ff43" y="476.745"/>
      </g>
     </g>
     <g id="text_14">
      <!-- 0% -->
      <g transform="translate(31.829688 480.381719)scale(0.1 -0.1)">
       <defs>
        <path d="M 44.609375 13.640625 
L 44.609375 17.46875 
Q 44.609375 21.453125 46.25 24.765625 
Q 47.90625 28.09375 51.078125 30.09375 
Q 54.265625 32.109375 58.8125 32.109375 
Q 63.421875 32.109375 66.546875 30.09375 
Q 69.671875 28.09375 71.265625 24.765625 
Q 72.875 21.453125 72.875 17.46875 
L 72.875 13.640625 
Q 72.875 9.65625 71.25 6.328125 
Q 69.640625 3.015625 66.5 1 
Q 63.359375 -1 58.8125 -1 
Q 54.1875 -1 51.03125 1 
Q 47.875 3.015625 46.234375 6.328125 
Q 44.609375 9.65625 44.609375 13.640625 
z
M 8.375 55.25 
L 8.375 59.09375 
Q 8.375 63.0625 10.03125 66.375 
Q 11.6875 69.703125 14.859375 71.703125 
Q 18.046875 73.71875 22.59375 73.71875 
Q 27.203125 73.71875 30.328125 71.703125 
Q 33.453125 69.703125 35.046875 66.375 
Q 36.65625 63.0625 36.65625 59.09375 
L 36.65625 55.25 
Q 36.65625 51.28125 35.03125 47.953125 
Q 33.421875 44.640625 30.265625 42.625 
Q 27.125 40.625 22.59375 40.625 
Q 17.96875 40.625 14.8125 42.625 
Q 11.65625 44.640625 10.015625 47.953125 
Q 8.375 51.28125 8.375 55.25 
z
M 11.078125 0 
L 61.078125 72.734375 
L 69.171875 72.734375 
L 19.171875 0 
z
M 51.84375 17.46875 
L 51.84375 13.640625 
Q 51.84375 10.328125 53.40625 7.71875 
Q 54.96875 5.109375 58.8125 5.109375 
Q 62.53125 5.109375 64.078125 7.71875 
Q 65.625 10.328125 65.625 13.640625 
L 65.625 17.46875 
Q 65.625 20.78125 64.125 23.390625 
Q 62.640625 26 58.8125 26 
Q 55.078125 26 53.453125 23.390625 
Q 51.84375 20.78125 51.84375 17.46875 
z
M 15.625 59.09375 
L 15.625 55.25 
Q 15.625 51.953125 17.1875 49.34375 
Q 18.75 46.734375 22.59375 46.734375 
Q 26.3125 46.734375 27.859375 49.34375 
Q 29.40625 51.953125 29.40625 55.25 
L 29.40625 59.09375 
Q 29.40625 62.390625 27.90625 65 
Q 26.421875 67.609375 22.59375 67.609375 
Q 18.859375 67.609375 17.234375 65 
Q 15.625 62.390625 15.625 59.09375 
z
" id="Inter-Regular-37"/>
       </defs>
       <use xlink:href="#Inter-Regular-48"/>
       <use x="62.500015" xlink:href="#Inter-Regular-37"/>
      </g>
     </g>
    </g>
    <g id="ytick_2">
     <g id="line2d_16">
      <path clip-path="url(#p4f6880783c)" d="M 53.204688 413.087651 
L 722.804688 413.087651 
" style="fill:none;stroke:#e5e5e5;stroke-linecap:square;stroke-width:0.8;"/>
     </g>
     <g id="line2d_17">
      <g>
       <use style="stroke:#000000;stroke-width:0.8;" x="53.204688" xlink:href="#m855475ff43" y="413.087651"/>
      </g>
     </g>
     <g id="text_15">
      <!-- 1% -->
      <g transform="translate(33.6625 416.72437)scale(0.1 -0.1)">
       <use xlink:href="#Inter-Regular-49"/>
       <use x="44.176147" xlink:href="#Inter-Regular-37"/>
      </g>
     </g>
    </g>
    <g id="ytick_3">
     <g id="line2d_18">
      <path clip-path="url(#p4f6880783c)" d="M 53.204688 349.430303 
L 722.804688 349.430303 
" style="fill:none;stroke:#e5e5e5;stroke-linecap:square;stroke-width:0.8;"/>
     </g>
     <g id="line2d_19">
      <g>
       <use style="stroke:#000000;stroke-width:0.8;" x="53.204688" xlink:href="#m855475ff43" y="349.430303"/>
      </g>
     </g>
     <g id="text_16">
      <!-- 2% -->
      <g transform="translate(32.028125 353.067021)scale(0.1 -0.1)">
       <defs>
        <path d="M 7.53125 0 
L 7.53125 6.390625 
L 31.53125 32.671875 
Q 35.765625 37.28125 38.5 40.703125 
Q 41.234375 44.140625 42.5625 47.171875 
Q 43.890625 50.21875 43.890625 53.546875 
Q 43.890625 59.296875 39.890625 62.671875 
Q 35.90625 66.046875 29.96875 66.046875 
Q 23.65625 66.046875 19.921875 62.265625 
Q 16.1875 58.484375 16.1875 52.265625 
L 7.8125 52.265625 
Q 7.8125 58.671875 10.75 63.5 
Q 13.703125 68.328125 18.796875 71.015625 
Q 23.90625 73.71875 30.25 73.71875 
Q 36.65625 73.71875 41.578125 71.015625 
Q 46.515625 68.328125 49.3125 63.734375 
Q 52.125 59.15625 52.125 53.546875 
Q 52.125 49.53125 50.6875 45.71875 
Q 49.25 41.90625 45.71875 37.234375 
Q 42.1875 32.5625 35.9375 25.859375 
L 19.609375 8.375 
L 19.609375 7.8125 
L 53.40625 7.8125 
L 53.40625 0 
z
" id="Inter-Regular-50"/>
       </defs>
       <use xlink:href="#Inter-Regular-50"/>
       <use x="60.511383" xlink:href="#Inter-Regular-37"/>
      </g>
     </g>
    </g>
    <g id="ytick_4">
     <g id="line2d_20">
      <path clip-path="url(#p4f6880783c)" d="M 53.204688 285.772954 
L 722.804688 285.772954 
" style="fill:none;stroke:#e5e5e5;stroke-linecap:square;stroke-width:0.8;"/>
     </g>
     <g id="line2d_21">
      <g>
       <use style="stroke:#000000;stroke-width:0.8;" x="53.204688" xlink:href="#m855475ff43" y="285.772954"/>
      </g>
     </g>
     <g id="text_17">
      <!-- 3% -->
      <g transform="translate(31.715625 289.409673)scale(0.1 -0.1)">
       <defs>
        <path d="M 32.109375 -1 
Q 25.078125 -1 19.578125 1.40625 
Q 14.09375 3.828125 10.875 8.140625 
Q 7.671875 12.46875 7.390625 18.1875 
L 16.34375 18.1875 
Q 16.734375 12.921875 21.1875 9.859375 
Q 25.640625 6.8125 31.96875 6.8125 
Q 38.953125 6.8125 43.484375 10.375 
Q 48.015625 13.953125 48.015625 19.75 
Q 48.015625 25.78125 43.546875 29.578125 
Q 39.09375 33.375 30.828125 33.375 
L 25 33.375 
L 25 41.1875 
L 30.828125 41.1875 
Q 37.28125 41.1875 41.359375 44.625 
Q 45.453125 48.078125 45.453125 53.828125 
Q 45.453125 59.34375 41.859375 62.6875 
Q 38.28125 66.046875 32.25 66.046875 
Q 28.484375 66.046875 25.15625 64.671875 
Q 21.84375 63.3125 19.75 60.734375 
Q 17.65625 58.171875 17.46875 54.546875 
L 8.953125 54.546875 
Q 9.15625 60.265625 12.390625 64.578125 
Q 15.625 68.890625 20.859375 71.296875 
Q 26.109375 73.71875 32.390625 73.71875 
Q 39.140625 73.71875 43.96875 71 
Q 48.796875 68.28125 51.390625 63.84375 
Q 53.984375 59.40625 53.984375 54.265625 
Q 53.984375 48.125 50.765625 43.78125 
Q 47.546875 39.453125 42.046875 37.78125 
L 42.046875 37.21875 
Q 48.9375 36.078125 52.796875 31.375 
Q 56.671875 26.671875 56.671875 19.75 
Q 56.671875 13.8125 53.453125 9.109375 
Q 50.25 4.40625 44.703125 1.703125 
Q 39.171875 -1 32.109375 -1 
z
" id="Inter-Regular-51"/>
       </defs>
       <use xlink:href="#Inter-Regular-51"/>
       <use x="63.636383" xlink:href="#Inter-Regular-37"/>
      </g>
     </g>
    </g>
    <g id="ytick_5">
     <g id="line2d_22">
      <path clip-path="url(#p4f6880783c)" d="M 53.204688 222.115605 
L 722.804688 222.115605 
" style="fill:none;stroke:#e5e5e5;stroke-linecap:square;stroke-width:0.8;"/>
     </g>
     <g id="line2d_23">
      <g>
       <use style="stroke:#000000;stroke-width:0.8;" x="53.204688" xlink:href="#m855475ff43" y="222.115605"/>
      </g>
     </g>
     <g id="text_18">
      <!-- 4% -->
      <g transform="translate(31.659375 225.752324)scale(0.1 -0.1)">
       <defs>
        <path d="M 5.828125 14.921875 
L 5.828125 22.15625 
L 37.78125 72.734375 
L 48.4375 72.734375 
L 48.4375 22.734375 
L 58.375 22.734375 
L 58.375 14.921875 
L 48.4375 14.921875 
L 48.4375 0 
L 40.0625 0 
L 40.0625 14.921875 
z
M 40.0625 22.734375 
L 40.0625 61.5 
L 39.484375 61.5 
L 15.34375 23.296875 
L 15.34375 22.734375 
z
" id="Inter-Regular-52"/>
       </defs>
       <use xlink:href="#Inter-Regular-52"/>
       <use x="64.204559" xlink:href="#Inter-Regular-37"/>
      </g>
     </g>
    </g>
    <g id="ytick_6">
     <g id="line2d_24">
      <path clip-path="url(#p4f6880783c)" d="M 53.204688 158.458257 
L 722.804688 158.458257 
" style="fill:none;stroke:#e5e5e5;stroke-linecap:square;stroke-width:0.8;"/>
     </g>
     <g id="line2d_25">
      <g>
       <use style="stroke:#000000;stroke-width:0.8;" x="53.204688" xlink:href="#m855475ff43" y="158.458257"/>
      </g>
     </g>
     <g id="text_19">
      <!-- 5% -->
      <g transform="translate(32 162.094975)scale(0.1 -0.1)">
       <defs>
        <path d="M 30.25 -1 
Q 24 -1 19 1.484375 
Q 14 3.984375 10.96875 8.3125 
Q 7.953125 12.640625 7.671875 18.1875 
L 16.1875 18.1875 
Q 16.6875 13.25 20.6875 10.03125 
Q 24.6875 6.8125 30.25 6.8125 
Q 34.734375 6.8125 38.234375 8.90625 
Q 41.734375 11.015625 43.734375 14.6875 
Q 45.734375 18.359375 45.734375 23.015625 
Q 45.734375 27.765625 43.65625 31.515625 
Q 41.578125 35.265625 37.953125 37.421875 
Q 34.34375 39.59375 29.6875 39.625 
Q 26.34375 39.671875 22.828125 38.625 
Q 19.3125 37.578125 17.046875 35.9375 
L 8.8125 36.9375 
L 13.21875 72.734375 
L 51 72.734375 
L 51 64.921875 
L 20.59375 64.921875 
L 18.046875 43.46875 
L 18.46875 43.46875 
Q 20.703125 45.234375 24.078125 46.40625 
Q 27.453125 47.578125 31.109375 47.578125 
Q 37.78125 47.578125 43.015625 44.40625 
Q 48.265625 41.234375 51.265625 35.71875 
Q 54.265625 30.21875 54.265625 23.15625 
Q 54.265625 16.1875 51.15625 10.734375 
Q 48.046875 5.296875 42.609375 2.140625 
Q 37.1875 -1 30.25 -1 
z
" id="Inter-Regular-53"/>
       </defs>
       <use xlink:href="#Inter-Regular-53"/>
       <use x="60.795471" xlink:href="#Inter-Regular-37"/>
      </g>
     </g>
    </g>
    <g id="ytick_7">
     <g id="line2d_26">
      <path clip-path="url(#p4f6880783c)" d="M 53.204688 94.800908 
L 722.804688 94.800908 
" style="fill:none;stroke:#e5e5e5;stroke-linecap:square;stroke-width:0.8;"/>
     </g>
     <g id="line2d_27">
      <g>
       <use style="stroke:#000000;stroke-width:0.8;" x="53.204688" xlink:href="#m855475ff43" y="94.800908"/>
      </g>
     </g>
     <g id="text_20">
      <!-- 6% -->
      <g transform="translate(31.84375 98.437627)scale(0.1 -0.1)">
       <defs>
        <path d="M 31.671875 -1 
Q 27.203125 -0.921875 22.71875 0.703125 
Q 18.25 2.34375 14.5625 6.234375 
Q 10.875 10.125 8.625 16.78125 
Q 6.390625 23.4375 6.390625 33.515625 
Q 6.390625 52.90625 13.453125 63.375 
Q 20.53125 73.859375 32.8125 73.859375 
Q 41.96875 73.859375 48.015625 68.5 
Q 54.078125 63.140625 55.40625 54.546875 
L 46.734375 54.546875 
Q 45.53125 59.546875 42.046875 62.796875 
Q 38.5625 66.046875 32.8125 66.046875 
Q 24.359375 66.046875 19.515625 58.671875 
Q 14.671875 51.3125 14.625 37.921875 
L 15.203125 37.921875 
Q 18.1875 42.4375 22.828125 45 
Q 27.484375 47.578125 33.09375 47.578125 
Q 39.34375 47.578125 44.53125 44.46875 
Q 49.71875 41.375 52.84375 35.921875 
Q 55.96875 30.46875 55.96875 23.4375 
Q 55.96875 16.6875 52.953125 11.09375 
Q 49.9375 5.5 44.484375 2.21875 
Q 39.03125 -1.0625 31.671875 -1 
z
M 31.671875 6.8125 
Q 36.15625 6.8125 39.71875 9.046875 
Q 43.296875 11.296875 45.359375 15.0625 
Q 47.4375 18.828125 47.4375 23.4375 
Q 47.4375 27.953125 45.4375 31.65625 
Q 43.4375 35.375 39.9375 37.5625 
Q 36.4375 39.765625 31.96875 39.765625 
Q 27.453125 39.765625 23.828125 37.453125 
Q 20.203125 35.15625 18.078125 31.40625 
Q 15.953125 27.65625 15.90625 23.296875 
Q 15.90625 18.96875 17.953125 15.203125 
Q 20 11.4375 23.5625 9.125 
Q 27.125 6.8125 31.671875 6.8125 
z
" id="Inter-Regular-54"/>
       </defs>
       <use xlink:href="#Inter-Regular-54"/>
       <use x="62.357971" xlink:href="#Inter-Regular-37"/>
      </g>
     </g>
    </g>
    <g id="text_21">
     <!-- Percent of nation tested positive -->
     <g transform="translate(25.614063 332.215469)rotate(-90)scale(0.1 -0.1)">
      <defs>
       <path d="M 8.8125 0 
L 8.8125 72.734375 
L 33.375 72.734375 
Q 41.9375 72.734375 47.390625 69.65625 
Q 52.84375 66.578125 55.46875 61.359375 
Q 58.09375 56.140625 58.09375 49.71875 
Q 58.09375 43.28125 55.484375 38.03125 
Q 52.875 32.78125 47.4375 29.671875 
Q 42.015625 26.5625 33.53125 26.5625 
L 17.609375 26.5625 
L 17.609375 0 
z
M 17.609375 34.375 
L 33.234375 34.375 
Q 42.015625 34.375 45.71875 38.78125 
Q 49.4375 43.1875 49.4375 49.71875 
Q 49.4375 56.28125 45.703125 60.59375 
Q 41.96875 64.921875 33.09375 64.921875 
L 17.609375 64.921875 
z
" id="Inter-Regular-80"/>
       <path d="M 31.96875 54.546875 
L 31.96875 47.4375 
L 19.75 47.4375 
L 19.75 0 
L 11.359375 0 
L 11.359375 47.4375 
L 2.5625 47.4375 
L 2.5625 54.546875 
L 11.359375 54.546875 
L 11.359375 62.078125 
Q 11.359375 66.765625 13.5625 69.890625 
Q 15.765625 73.015625 19.28125 74.578125 
Q 22.796875 76.140625 26.703125 76.140625 
Q 29.796875 76.140625 31.75 75.640625 
Q 33.703125 75.140625 34.65625 74.71875 
L 32.25 67.46875 
Q 31.609375 67.6875 30.484375 68 
Q 29.375 68.328125 27.5625 68.328125 
Q 23.40625 68.328125 21.578125 66.234375 
Q 19.75 64.140625 19.75 60.078125 
L 19.75 54.546875 
z
" id="Inter-Regular-102"/>
       <path d="M 7.671875 0 
L 7.671875 54.546875 
L 16.046875 54.546875 
L 16.046875 0 
z
M 11.9375 63.640625 
Q 9.484375 63.640625 7.71875 65.296875 
Q 5.96875 66.96875 5.96875 69.3125 
Q 5.96875 71.65625 7.71875 73.328125 
Q 9.484375 75 11.9375 75 
Q 14.390625 75 16.140625 73.328125 
Q 17.90625 71.65625 17.90625 69.3125 
Q 17.90625 66.96875 16.140625 65.296875 
Q 14.390625 63.640625 11.9375 63.640625 
z
" id="Inter-Regular-105"/>
       <path d="M 46.3125 42.328125 
L 38.78125 40.203125 
Q 37.671875 43.046875 35.078125 45.53125 
Q 32.5 48.015625 26.984375 48.015625 
Q 21.984375 48.015625 18.65625 45.71875 
Q 15.34375 43.4375 15.34375 39.921875 
Q 15.34375 36.796875 17.609375 34.984375 
Q 19.890625 33.171875 24.71875 31.953125 
L 32.8125 29.96875 
Q 47.296875 26.421875 47.296875 15.203125 
Q 47.296875 10.515625 44.609375 6.8125 
Q 41.9375 3.125 37.140625 0.984375 
Q 32.359375 -1.140625 26 -1.140625 
Q 17.65625 -1.140625 12.1875 2.484375 
Q 6.71875 6.109375 5.25 13.0625 
L 13.21875 15.0625 
Q 15.453125 6.25 25.859375 6.25 
Q 31.71875 6.25 35.171875 8.75 
Q 38.640625 11.25 38.640625 14.765625 
Q 38.640625 20.5625 30.546875 22.4375 
L 21.453125 24.578125 
Q 13.953125 26.34375 10.453125 30.09375 
Q 6.96875 33.84375 6.96875 39.484375 
Q 6.96875 44.109375 9.578125 47.65625 
Q 12.1875 51.203125 16.703125 53.21875 
Q 21.234375 55.25 26.984375 55.25 
Q 35.09375 55.25 39.71875 51.703125 
Q 44.359375 48.15625 46.3125 42.328125 
z
" id="Inter-Regular-115"/>
       <path d="M 28.265625 -1.140625 
Q 21.453125 -1.140625 16.234375 2.3125 
Q 11.015625 5.78125 8.0625 12.125 
Q 5.109375 18.46875 5.109375 27.125 
Q 5.109375 35.71875 8.0625 42.03125 
Q 11.015625 48.359375 16.265625 51.796875 
Q 21.515625 55.25 28.40625 55.25 
Q 33.734375 55.25 36.84375 53.484375 
Q 39.953125 51.734375 41.59375 49.515625 
Q 43.25 47.296875 44.171875 45.875 
L 44.890625 45.875 
L 44.890625 72.734375 
L 53.265625 72.734375 
L 53.265625 0 
L 45.171875 0 
L 45.171875 8.375 
L 44.171875 8.375 
Q 43.25 6.890625 41.546875 4.625 
Q 39.84375 2.375 36.6875 0.609375 
Q 33.53125 -1.140625 28.265625 -1.140625 
z
M 29.40625 6.390625 
Q 36.96875 6.390625 41 12.1875 
Q 45.03125 18 45.03125 27.265625 
Q 45.03125 36.4375 41.046875 42.078125 
Q 37.078125 47.734375 29.40625 47.734375 
Q 24.078125 47.734375 20.546875 45.015625 
Q 17.015625 42.296875 15.25 37.65625 
Q 13.5 33.03125 13.5 27.265625 
Q 13.5 21.453125 15.28125 16.703125 
Q 17.078125 11.96875 20.609375 9.171875 
Q 24.15625 6.390625 29.40625 6.390625 
z
" id="Inter-Regular-100"/>
      </defs>
      <use xlink:href="#Inter-Regular-80"/>
      <use x="63.494324" xlink:href="#Inter-Regular-101"/>
      <use x="121.732971" xlink:href="#Inter-Regular-114"/>
      <use x="160.085251" xlink:href="#Inter-Regular-99"/>
      <use x="215.909119" xlink:href="#Inter-Regular-101"/>
      <use x="274.147766" xlink:href="#Inter-Regular-110"/>
      <use x="332.670502" xlink:href="#Inter-Regular-116"/>
      <use x="369.034149" xlink:href="#Inter-Regular-32"/>
      <use x="397.159149" xlink:href="#Inter-Regular-111"/>
      <use x="456.818253" xlink:href="#Inter-Regular-102"/>
      <use x="492.897797" xlink:href="#Inter-Regular-32"/>
      <use x="521.022797" xlink:href="#Inter-Regular-110"/>
      <use x="579.545532" xlink:href="#Inter-Regular-97"/>
      <use x="635.937592" xlink:href="#Inter-Regular-116"/>
      <use x="672.301239" xlink:href="#Inter-Regular-105"/>
      <use x="696.022827" xlink:href="#Inter-Regular-111"/>
      <use x="755.681931" xlink:href="#Inter-Regular-110"/>
      <use x="814.204666" xlink:href="#Inter-Regular-32"/>
      <use x="842.329666" xlink:href="#Inter-Regular-116"/>
      <use x="878.693314" xlink:href="#Inter-Regular-101"/>
      <use x="936.931961" xlink:href="#Inter-Regular-115"/>
      <use x="989.204697" xlink:href="#Inter-Regular-116"/>
      <use x="1025.568344" xlink:href="#Inter-Regular-101"/>
      <use x="1083.806992" xlink:href="#Inter-Regular-100"/>
      <use x="1145.880875" xlink:href="#Inter-Regular-32"/>
      <use x="1174.005875" xlink:href="#Inter-Regular-112"/>
      <use x="1234.94339" xlink:href="#Inter-Regular-111"/>
      <use x="1294.602493" xlink:href="#Inter-Regular-115"/>
      <use x="1346.875229" xlink:href="#Inter-Regular-105"/>
      <use x="1370.596817" xlink:href="#Inter-Regular-116"/>
      <use x="1406.960464" xlink:href="#Inter-Regular-105"/>
      <use x="1430.682053" xlink:href="#Inter-Regular-118"/>
      <use x="1486.363876" xlink:href="#Inter-Regular-101"/>
     </g>
    </g>
   </g>
   <g id="line2d_28">
    <path clip-path="url(#p4f6880783c)" d="M -0.756272 476.744774 
L 68.870772 476.65656 
L 81.055505 476.306533 
L 89.758886 475.723532 
L 96.72159 474.71507 
L 103.684295 473.472955 
L 115.869027 470.432076 
L 121.091056 468.970671 
L 124.572408 468.219499 
L 128.05376 467.497844 
L 131.535112 466.61944 
L 136.757141 465.202595 
L 141.979169 463.943629 
L 147.201197 462.39288 
L 152.423225 461.201092 
L 161.126606 458.940337 
L 166.348634 457.967047 
L 171.570663 456.939812 
L 175.052015 456.510167 
L 180.274043 455.507925 
L 185.496071 454.815901 
L 188.977424 454.385464 
L 194.199452 453.57028 
L 197.680804 453.22014 
L 204.643509 452.581949 
L 209.865537 452.136131 
L 216.828241 451.583665 
L 222.05027 451.256936 
L 227.272298 450.950677 
L 235.975678 450.445258 
L 249.901087 449.70008 
L 263.826496 449.146935 
L 324.75016 446.6402 
L 364.78571 444.120459 
L 375.229767 443.079652 
L 380.451795 442.237326 
L 382.192471 442.004238 
L 385.673823 441.273197 
L 392.636528 440.026671 
L 394.377204 439.833167 
L 399.599232 438.73717 
L 404.821261 437.335366 
L 410.043289 435.674576 
L 418.746669 432.292491 
L 422.228022 430.33562 
L 425.709374 427.866771 
L 427.45005 426.557818 
L 430.931402 424.347955 
L 434.412754 421.142184 
L 437.894107 417.696766 
L 439.634783 416.225409 
L 443.116135 413.985237 
L 448.338163 408.545966 
L 451.819515 405.175869 
L 455.300868 402.437064 
L 460.522896 395.091023 
L 464.004248 390.823409 
L 467.4856 387.805262 
L 469.226276 385.230444 
L 476.188981 376.139584 
L 479.670333 373.002122 
L 481.411009 369.842719 
L 484.892361 364.978533 
L 488.373714 360.261482 
L 491.855066 356.350003 
L 493.595742 353.172505 
L 497.077094 347.617539 
L 500.558446 342.685044 
L 502.299122 340.871916 
L 504.039799 339.263036 
L 505.780475 336.580552 
L 507.521151 334.281006 
L 509.261827 332.219749 
L 512.743179 328.805658 
L 516.224531 326.469469 
L 517.965207 324.636097 
L 521.44656 321.472736 
L 524.927912 318.694348 
L 528.409264 316.643722 
L 530.14994 314.940861 
L 535.371968 310.467529 
L 537.112645 309.004994 
L 540.593997 306.618364 
L 547.556701 298.680388 
L 549.297377 296.430377 
L 551.038053 294.61691 
L 552.77873 292.566962 
L 559.741434 279.178406 
L 561.48211 275.578048 
L 563.222786 273.117795 
L 564.963462 269.842697 
L 568.444814 260.392084 
L 570.185491 256.127976 
L 571.926167 252.878777 
L 573.666843 251.44508 
L 575.407519 247.294519 
L 578.888871 237.961072 
L 580.629547 229.755854 
L 582.370223 222.638716 
L 584.110899 217.355742 
L 585.851575 214.163316 
L 587.592252 208.030551 
L 589.332928 202.426162 
L 591.073604 194.603316 
L 592.81428 188.030953 
L 594.554956 182.220394 
L 596.295632 176.917741 
L 598.036308 172.123108 
L 599.776984 168.111879 
L 601.51766 164.393904 
L 603.258337 158.50022 
L 604.999013 153.439702 
L 608.480365 144.414664 
L 610.221041 140.248835 
L 613.702393 134.149998 
L 615.443069 129.53575 
L 617.183745 125.459605 
L 618.924421 121.860605 
L 622.405774 115.550395 
L 624.14645 113.296991 
L 625.887126 111.543125 
L 627.627802 108.467525 
L 631.109154 103.059129 
L 632.84983 100.581233 
L 634.590506 98.34909 
L 638.071859 95.092427 
L 639.812535 92.809166 
L 643.293887 88.827002 
L 645.034563 86.991255 
L 646.775239 85.40375 
L 650.256591 83.050823 
L 651.997267 81.47508 
L 655.47862 78.73865 
L 658.959972 76.26607 
L 662.441324 74.532221 
L 664.182 73.116732 
L 667.663352 70.752835 
L 671.144705 68.619877 
L 674.626057 67.06483 
L 676.366733 65.940446 
L 679.848085 64.184657 
L 683.329437 62.787377 
L 686.81079 61.870634 
L 692.032818 59.969972 
L 695.51417 58.893314 
L 698.995522 58.065577 
L 702.476874 56.808759 
L 707.698903 55.14944 
L 711.180255 54.345 
L 711.180255 54.345 
" style="fill:none;stroke:#5694ca;stroke-linecap:square;stroke-width:2;"/>
   </g>
   <g id="line2d_29">
    <path clip-path="url(#p4f6880783c)" d="M -0.756272 476.745 
L 70.611449 476.640791 
L 82.796181 476.452542 
L 89.758886 476.220592 
L 94.980914 475.756692 
L 105.424971 474.156575 
L 112.387675 472.828746 
L 114.128351 472.62705 
L 122.831732 470.848769 
L 126.313084 470.378146 
L 131.535112 469.255374 
L 135.016464 468.273789 
L 136.757141 467.988054 
L 138.497817 467.850229 
L 143.719845 466.710649 
L 148.941873 466.0148 
L 152.423225 465.628217 
L 155.904578 465.073554 
L 159.38593 464.360897 
L 161.126606 464.061715 
L 164.607958 463.634793 
L 185.496071 460.753909 
L 188.977424 460.424473 
L 194.199452 459.745432 
L 211.606213 458.72687 
L 220.309594 458.424326 
L 237.716355 458.05119 
L 251.641763 457.866302 
L 289.936638 457.50325 
L 295.158666 457.388956 
L 303.862047 457.261216 
L 316.046779 457.042712 
L 329.972188 456.609067 
L 336.934893 456.158614 
L 350.860301 455.062735 
L 356.08233 454.413948 
L 363.045034 453.630697 
L 368.267062 452.938209 
L 371.748415 452.639027 
L 375.229767 452.117981 
L 383.933147 450.430462 
L 385.673823 450.242213 
L 389.155176 449.647211 
L 392.636528 449.045486 
L 396.11788 448.339552 
L 399.599232 447.536132 
L 404.821261 445.865421 
L 408.302613 444.994768 
L 410.043289 444.423298 
L 411.783965 443.687109 
L 413.524641 442.739141 
L 417.005993 441.018006 
L 420.487346 439.108622 
L 422.228022 437.800963 
L 423.968698 435.639459 
L 425.709374 434.022534 
L 427.45005 431.676143 
L 430.931402 427.521216 
L 432.672078 425.131124 
L 434.412754 422.428405 
L 437.894107 415.654798 
L 443.116135 407.338221 
L 450.078839 392.661512 
L 451.819515 389.394045 
L 455.300868 383.901205 
L 458.78222 376.821693 
L 462.263572 369.449723 
L 464.004248 366.478076 
L 465.744924 363.990498 
L 467.4856 361.701255 
L 469.226276 358.706076 
L 470.966953 355.94621 
L 472.707629 353.408208 
L 476.188981 348.752404 
L 477.929657 347.024546 
L 479.670333 345.464768 
L 483.151685 340.923258 
L 486.633038 337.037258 
L 490.11439 333.863915 
L 491.855066 332.441962 
L 497.077094 325.873412 
L 498.81777 324.021176 
L 500.558446 322.427781 
L 502.299122 321.015913 
L 504.039799 319.762039 
L 507.521151 315.889486 
L 509.261827 314.413747 
L 514.483855 311.005093 
L 516.224531 310.084017 
L 523.187236 305.139116 
L 526.668588 302.870042 
L 528.409264 302.009474 
L 530.14994 300.311871 
L 533.631292 297.575535 
L 535.371968 295.908186 
L 538.853321 293.118065 
L 540.593997 291.880999 
L 547.556701 285.510783 
L 549.297377 283.762756 
L 552.77873 281.207946 
L 558.000758 275.429371 
L 559.741434 273.398969 
L 561.48211 271.593795 
L 564.963462 268.319605 
L 568.444814 263.462105 
L 570.185491 260.752662 
L 571.926167 258.651667 
L 573.666843 257.505365 
L 575.407519 255.091742 
L 577.148195 251.430969 
L 578.888871 246.758357 
L 582.370223 231.510178 
L 584.110899 225.714794 
L 585.851575 221.519528 
L 587.592252 215.041741 
L 589.332928 209.558985 
L 591.073604 202.822356 
L 594.554956 192.246789 
L 598.036308 183.923489 
L 599.776984 180.561897 
L 601.51766 177.596973 
L 603.258337 173.34456 
L 606.739689 166.029737 
L 608.480365 162.953881 
L 610.221041 160.106613 
L 611.961717 157.787115 
L 613.702393 155.733182 
L 617.183745 149.776442 
L 620.665098 144.633207 
L 622.405774 142.585998 
L 625.887126 139.50678 
L 631.109154 133.220604 
L 634.590506 129.721188 
L 638.071859 127.06553 
L 639.812535 125.314141 
L 646.775239 119.438079 
L 651.997267 116.197505 
L 657.219296 112.930038 
L 658.959972 111.988792 
L 660.700648 111.340005 
L 662.441324 110.502969 
L 664.182 109.228926 
L 671.144705 105.09753 
L 672.885381 104.307556 
L 674.626057 103.675577 
L 681.588761 100.152629 
L 685.070113 99.006326 
L 686.81079 98.582766 
L 693.773494 96.048126 
L 698.995522 94.478262 
L 700.736198 93.701735 
L 707.698903 91.096501 
L 711.180255 90.222488 
L 711.180255 90.222488 
" style="fill:none;stroke:#ffdd00;stroke-linecap:square;stroke-width:2;"/>
   </g>
   <g id="line2d_30">
    <path clip-path="url(#p4f6880783c)" d="M -0.756272 476.745 
L 70.611449 476.636638 
L 89.758886 476.059873 
L 94.980914 475.484274 
L 101.943618 474.436776 
L 107.165647 473.215666 
L 112.387675 472.063302 
L 114.128351 471.801136 
L 117.609703 470.921424 
L 122.831732 469.784207 
L 126.313084 469.312309 
L 136.757141 466.840959 
L 138.497817 466.655695 
L 140.238493 465.751515 
L 143.719845 464.890446 
L 147.201197 464.169198 
L 150.682549 463.754394 
L 155.904578 462.309569 
L 161.126606 461.237602 
L 162.867282 461.017383 
L 168.08931 459.93959 
L 171.570663 459.305732 
L 176.792691 458.61944 
L 182.014719 457.873724 
L 185.496071 457.576603 
L 188.977424 457.306281 
L 192.458776 456.953231 
L 197.680804 456.65844 
L 220.309594 455.938358 
L 258.604468 455.482772 
L 286.455286 455.320812 
L 314.306103 455.041168 
L 326.490836 454.718413 
L 331.712864 454.557618 
L 338.675569 454.328077 
L 352.600977 453.688393 
L 357.823006 453.44487 
L 364.78571 453.065021 
L 371.748415 452.54768 
L 380.451795 451.499017 
L 387.4145 450.745145 
L 394.377204 449.767558 
L 397.858556 449.273521 
L 406.561937 447.676058 
L 410.043289 446.56797 
L 411.783965 445.901486 
L 413.524641 445.067217 
L 415.265317 444.396072 
L 418.746669 443.468588 
L 422.228022 441.970165 
L 429.190726 438.369755 
L 430.931402 437.50286 
L 434.412754 434.834595 
L 437.894107 432.013691 
L 439.634783 430.736652 
L 443.116135 428.521643 
L 450.078839 422.266949 
L 451.819515 420.809308 
L 455.300868 418.840151 
L 457.041544 417.261331 
L 460.522896 413.458179 
L 462.263572 411.706912 
L 464.004248 410.207323 
L 467.4856 408.001635 
L 472.707629 403.432959 
L 476.188981 400.8649 
L 477.929657 399.998005 
L 479.670333 398.863118 
L 483.151685 395.519048 
L 486.633038 392.493072 
L 488.373714 391.1636 
L 491.855066 389.157158 
L 497.077094 384.688688 
L 498.81777 383.295131 
L 500.558446 382.057709 
L 504.039799 380.04078 
L 507.521151 377.127827 
L 509.261827 375.82865 
L 511.002503 374.685607 
L 514.483855 372.789857 
L 516.224531 371.967239 
L 517.965207 370.616794 
L 521.44656 368.379646 
L 524.927912 366.586432 
L 528.409264 365.275603 
L 533.631292 361.959497 
L 535.371968 361.01803 
L 540.593997 358.740101 
L 544.075349 356.41673 
L 547.556701 354.212207 
L 549.297377 353.196169 
L 552.77873 351.559089 
L 558.000758 347.842161 
L 561.48211 345.693566 
L 564.963462 343.85258 
L 570.185491 339.216324 
L 571.926167 338.025508 
L 573.666843 337.419614 
L 575.407519 336.186852 
L 578.888871 332.073762 
L 582.370223 324.940523 
L 584.110899 322.168556 
L 585.851575 320.80879 
L 591.073604 312.854097 
L 592.81428 309.290973 
L 594.554956 306.309274 
L 596.295632 303.74238 
L 598.036308 301.599611 
L 601.51766 298.18796 
L 604.999013 293.425865 
L 608.480365 289.54115 
L 610.221041 287.731624 
L 613.702393 284.963153 
L 615.443069 282.938068 
L 618.924421 279.268912 
L 622.405774 276.373437 
L 625.887126 274.27378 
L 627.627802 272.73341 
L 632.84983 268.758977 
L 634.590506 267.636907 
L 638.071859 265.771452 
L 641.553211 263.266312 
L 646.775239 260.037595 
L 650.256591 258.458774 
L 651.997267 257.298254 
L 655.47862 255.432799 
L 658.959972 253.396062 
L 660.700648 252.763368 
L 662.441324 251.968715 
L 665.922676 249.781669 
L 669.404029 247.79154 
L 671.144705 246.753363 
L 676.366733 244.344934 
L 681.588761 241.97612 
L 683.329437 241.3644 
L 686.81079 240.373996 
L 693.773494 237.899151 
L 698.995522 236.294696 
L 704.217551 234.13445 
L 707.698903 232.680304 
L 711.180255 231.623484 
L 711.180255 231.623484 
" style="fill:none;stroke:#003078;stroke-linecap:square;stroke-width:2;"/>
   </g>
   <g id="line2d_31">
    <path clip-path="url(#p4f6880783c)" d="M -0.756272 476.745 
L 70.611449 476.674334 
L 82.796181 476.242263 
L 89.758886 475.668861 
L 93.240238 475.115649 
L 100.202942 473.647819 
L 101.943618 473.326794 
L 103.684295 472.634269 
L 107.165647 471.41478 
L 110.646999 470.07011 
L 112.387675 469.500746 
L 114.128351 469.050504 
L 121.091056 465.929094 
L 122.831732 465.307235 
L 128.05376 463.758645 
L 131.535112 462.389747 
L 135.016464 461.002679 
L 136.757141 460.50398 
L 138.497817 460.138537 
L 143.719845 458.537452 
L 148.941873 457.426989 
L 152.423225 456.835415 
L 155.904578 456.171157 
L 161.126606 455.050599 
L 164.607958 454.557957 
L 169.829987 453.504028 
L 175.052015 452.781217 
L 180.274043 451.810067 
L 183.755395 451.182151 
L 194.199452 449.237832 
L 197.680804 448.714905 
L 202.902832 448.131408 
L 208.124861 447.473206 
L 220.309594 446.578779 
L 230.75365 445.860007 
L 255.123116 443.780413 
L 256.863792 443.742052 
L 258.604468 443.459389 
L 282.973933 442.768883 
L 291.677314 442.566981 
L 298.640018 442.40344 
L 302.12137 442.229804 
L 319.528131 441.706877 
L 345.638273 441.173855 
L 357.823006 440.820526 
L 366.526386 440.352112 
L 373.489091 439.966479 
L 376.970443 439.522294 
L 396.11788 436.102069 
L 399.599232 435.353012 
L 408.302613 432.623293 
L 411.783965 431.094892 
L 413.524641 430.456881 
L 420.487346 427.365757 
L 422.228022 426.424893 
L 432.672078 419.027193 
L 434.412754 417.470526 
L 437.894107 414.082606 
L 439.634783 412.50373 
L 443.116135 409.990046 
L 444.856811 408.41117 
L 448.338163 404.663864 
L 450.078839 403.066817 
L 451.819515 401.144707 
L 455.300868 398.269618 
L 457.041544 396.026484 
L 460.522896 390.97287 
L 462.263572 388.840781 
L 464.004248 386.424011 
L 467.4856 382.456631 
L 470.966953 376.330916 
L 472.707629 373.591102 
L 474.448305 370.394988 
L 476.188981 367.889381 
L 479.670333 364.200626 
L 481.411009 361.353804 
L 483.151685 358.86233 
L 486.633038 354.600172 
L 488.373714 352.829489 
L 490.11439 351.60798 
L 491.855066 350.20274 
L 495.336418 346.217189 
L 497.077094 344.490925 
L 498.81777 342.932239 
L 500.558446 341.197898 
L 504.039799 338.662006 
L 511.002503 330.707055 
L 512.743179 328.81725 
L 516.224531 325.996675 
L 519.705884 321.70827 
L 521.44656 319.008837 
L 523.187236 316.668789 
L 524.927912 314.579101 
L 526.668588 312.875045 
L 528.409264 310.924669 
L 531.890616 304.633394 
L 533.631292 301.31412 
L 537.112645 294.237445 
L 538.853321 291.142283 
L 540.593997 287.716001 
L 544.075349 277.392737 
L 549.297377 260.901358 
L 551.038053 256.287891 
L 552.77873 250.767882 
L 554.519406 243.62256 
L 558.000758 230.856278 
L 559.741434 225.251471 
L 561.48211 220.12921 
L 564.963462 211.289928 
L 568.444814 200.286253 
L 570.185491 195.35378 
L 571.926167 192.379759 
L 573.666843 191.081527 
L 575.407519 187.259517 
L 578.888871 177.463218 
L 580.629547 170.26944 
L 582.370223 164.820097 
L 584.110899 160.761861 
L 585.851575 158.316824 
L 587.592252 154.103123 
L 589.332928 150.450711 
L 591.073604 145.084148 
L 592.81428 140.270797 
L 594.554956 136.252942 
L 598.036308 129.672946 
L 601.51766 124.986794 
L 603.258337 121.483789 
L 604.999013 118.251334 
L 606.739689 115.297503 
L 610.221041 110.203509 
L 611.961717 108.174391 
L 613.702393 106.508697 
L 615.443069 103.688122 
L 617.183745 101.505558 
L 620.665098 97.709795 
L 622.405774 96.151109 
L 624.14645 95.081027 
L 625.887126 94.321875 
L 627.627802 92.617819 
L 631.109154 89.72254 
L 634.590506 87.186648 
L 638.071859 85.276652 
L 643.293887 81.654525 
L 646.775239 79.631464 
L 648.515915 78.906635 
L 650.256591 78.333232 
L 653.737944 76.392951 
L 655.47862 75.484391 
L 658.959972 73.901477 
L 662.441324 72.748615 
L 665.922676 70.941589 
L 669.404029 69.495969 
L 672.885381 68.330993 
L 674.626057 67.7798 
L 678.107409 66.519929 
L 681.588761 65.532627 
L 683.329437 65.124785 
L 685.070113 64.84414 
L 688.551466 63.933561 
L 692.032818 63.033077 
L 693.773494 62.631291 
L 698.995522 61.730807 
L 700.736198 61.209899 
L 704.217551 60.468918 
L 707.698903 59.592662 
L 711.180255 58.890042 
L 711.180255 58.890042 
" style="fill:none;stroke:#d4351c;stroke-linecap:square;stroke-width:2;"/>
   </g>
   <g id="patch_3">
    <path d="M 53.204688 476.745 
L 722.804688 476.745 
" style="fill:none;stroke:#000000;stroke-linecap:square;stroke-linejoin:miter;stroke-width:0.8;"/>
   </g>
   <g id="text_22">
    <!-- Cumulative COVID-19 cases in UK Nations, per capita -->
    <g transform="translate(231.415 27.225)scale(0.12 -0.12)">
     <defs>
      <path d="M 70.484375 47.265625 
L 54.9375 47.265625 
Q 54.046875 53.265625 49.8125 56.6875 
Q 45.59375 60.125 39.28125 60.125 
Q 30.828125 60.125 25.734375 53.921875 
Q 20.640625 47.734375 20.640625 36.359375 
Q 20.640625 24.71875 25.765625 18.65625 
Q 30.890625 12.609375 39.171875 12.609375 
Q 45.3125 12.609375 49.578125 15.8125 
Q 53.84375 19.03125 54.9375 24.859375 
L 70.484375 24.78125 
Q 69.671875 18.109375 65.734375 12.21875 
Q 61.796875 6.328125 55.03125 2.65625 
Q 48.265625 -1 38.921875 -1 
Q 29.1875 -1 21.53125 3.40625 
Q 13.890625 7.8125 9.46875 16.15625 
Q 5.046875 24.5 5.046875 36.359375 
Q 5.046875 48.265625 9.515625 56.609375 
Q 14 64.953125 21.65625 69.328125 
Q 29.328125 73.71875 38.921875 73.71875 
Q 47.34375 73.71875 54.109375 70.609375 
Q 60.875 67.5 65.1875 61.59375 
Q 69.5 55.6875 70.484375 47.265625 
z
" id="Inter-Bold-67"/>
      <path d="M 41.015625 23.21875 
L 41.015625 54.546875 
L 56.140625 54.546875 
L 56.140625 0 
L 41.625 0 
L 41.625 9.90625 
L 41.046875 9.90625 
Q 39.203125 5.109375 34.921875 2.203125 
Q 30.640625 -0.703125 24.5 -0.703125 
Q 16.265625 -0.703125 11.171875 4.78125 
Q 6.078125 10.265625 6.03125 19.8125 
L 6.03125 54.546875 
L 21.171875 54.546875 
L 21.171875 22.515625 
Q 21.203125 17.6875 23.75 14.875 
Q 26.3125 12.078125 30.609375 12.078125 
Q 34.703125 12.078125 37.875 14.90625 
Q 41.046875 17.75 41.015625 23.21875 
z
" id="Inter-Bold-117"/>
      <path d="M 6.03125 0 
L 6.03125 54.546875 
L 20.453125 54.546875 
L 20.453125 44.921875 
L 21.09375 44.921875 
Q 22.796875 49.75 26.796875 52.5 
Q 30.796875 55.25 36.296875 55.25 
Q 41.90625 55.25 45.84375 52.46875 
Q 49.78125 49.6875 51.109375 44.921875 
L 51.671875 44.921875 
Q 53.34375 49.609375 57.71875 52.421875 
Q 62.109375 55.25 68.109375 55.25 
Q 75.75 55.25 80.515625 50.40625 
Q 85.296875 45.5625 85.296875 36.6875 
L 85.296875 0 
L 70.203125 0 
L 70.203125 33.703125 
Q 70.203125 38.25 67.78125 40.515625 
Q 65.375 42.796875 61.75 42.796875 
Q 57.640625 42.796875 55.328125 40.15625 
Q 53.015625 37.53125 53.015625 33.3125 
L 53.015625 0 
L 38.359375 0 
L 38.359375 34.015625 
Q 38.359375 38.03125 36.0625 40.40625 
Q 33.765625 42.796875 30.046875 42.796875 
Q 26.28125 42.796875 23.71875 40.03125 
Q 21.171875 37.28125 21.171875 32.734375 
L 21.171875 0 
z
" id="Inter-Bold-109"/>
      <path d="M 21.171875 72.734375 
L 21.171875 0 
L 6.03125 0 
L 6.03125 72.734375 
z
" id="Inter-Bold-108"/>
      <path d="M 21.59375 -1.03125 
Q 13.78125 -1.03125 8.625 3.046875 
Q 3.484375 7.140625 3.484375 15.234375 
Q 3.484375 21.34375 6.359375 24.8125 
Q 9.234375 28.296875 13.90625 29.90625 
Q 18.578125 31.53125 23.96875 32.03125 
Q 31.078125 32.734375 34.125 33.515625 
Q 37.1875 34.296875 37.1875 36.9375 
L 37.1875 37.140625 
Q 37.1875 40.515625 35.0625 42.359375 
Q 32.953125 44.21875 29.078125 44.21875 
Q 25 44.21875 22.578125 42.4375 
Q 20.171875 40.65625 19.390625 37.921875 
L 5.40625 39.0625 
Q 6.96875 46.515625 13.15625 50.875 
Q 19.359375 55.25 29.15625 55.25 
Q 35.234375 55.25 40.515625 53.328125 
Q 45.8125 51.421875 49.0625 47.34375 
Q 52.3125 43.28125 52.3125 36.796875 
L 52.3125 0 
L 37.96875 0 
L 37.96875 7.5625 
L 37.53125 7.5625 
Q 35.546875 3.765625 31.578125 1.359375 
Q 27.625 -1.03125 21.59375 -1.03125 
z
M 25.921875 9.40625 
Q 30.890625 9.40625 34.078125 12.296875 
Q 37.28125 15.203125 37.28125 19.5 
L 37.28125 25.28125 
Q 36.40625 24.6875 34.53125 24.21875 
Q 32.671875 23.75 30.5625 23.40625 
Q 28.453125 23.078125 26.78125 22.828125 
Q 22.796875 22.265625 20.359375 20.59375 
Q 17.9375 18.921875 17.9375 15.734375 
Q 17.9375 12.609375 20.1875 11 
Q 22.4375 9.40625 25.921875 9.40625 
z
" id="Inter-Bold-97"/>
      <path d="M 35.046875 54.546875 
L 35.046875 43.1875 
L 24.78125 43.1875 
L 24.78125 16.765625 
Q 24.78125 13.640625 26.203125 12.53125 
Q 27.625 11.4375 29.90625 11.4375 
Q 30.96875 11.4375 32.03125 11.625 
Q 33.09375 11.828125 33.671875 11.9375 
L 36.046875 0.671875 
Q 34.90625 0.3125 32.84375 -0.15625 
Q 30.796875 -0.640625 27.84375 -0.75 
Q 19.609375 -1.09375 14.609375 2.828125 
Q 9.625 6.75 9.65625 14.765625 
L 9.65625 43.1875 
L 2.203125 43.1875 
L 2.203125 54.546875 
L 9.65625 54.546875 
L 9.65625 67.609375 
L 24.78125 67.609375 
L 24.78125 54.546875 
z
" id="Inter-Bold-116"/>
      <path d="M 6.03125 0 
L 6.03125 54.546875 
L 21.171875 54.546875 
L 21.171875 0 
z
M 13.6875 61.578125 
Q 10.34375 61.578125 7.921875 63.828125 
Q 5.515625 66.09375 5.515625 69.25 
Q 5.515625 72.40625 7.921875 74.640625 
Q 10.34375 76.875 13.6875 76.875 
Q 17.0625 76.875 19.46875 74.640625 
Q 21.890625 72.40625 21.890625 69.25 
Q 21.890625 66.09375 19.46875 63.828125 
Q 17.0625 61.578125 13.6875 61.578125 
z
" id="Inter-Bold-105"/>
      <path d="M 56.890625 54.546875 
L 37.828125 0 
L 20.78125 0 
L 1.703125 54.546875 
L 17.6875 54.546875 
L 29.015625 15.515625 
L 29.578125 15.515625 
L 40.875 54.546875 
z
" id="Inter-Bold-118"/>
      <path d="M 30.890625 -1.0625 
Q 22.515625 -1.0625 16.4375 2.359375 
Q 10.375 5.78125 7.109375 12.078125 
Q 3.84375 18.390625 3.84375 27.03125 
Q 3.84375 35.4375 7.109375 41.796875 
Q 10.375 48.15625 16.3125 51.703125 
Q 22.265625 55.25 30.296875 55.25 
Q 37.5 55.25 43.296875 52.1875 
Q 49.109375 49.140625 52.515625 42.984375 
Q 55.9375 36.828125 55.9375 27.5625 
L 55.9375 23.40625 
L 18.78125 23.40625 
L 18.78125 23.359375 
Q 18.78125 17.265625 22.125 13.75 
Q 25.46875 10.234375 31.140625 10.234375 
Q 34.9375 10.234375 37.703125 11.828125 
Q 40.484375 13.421875 41.625 16.546875 
L 55.609375 15.625 
Q 54.015625 8.03125 47.515625 3.484375 
Q 41.015625 -1.0625 30.890625 -1.0625 
z
M 18.78125 32.78125 
L 41.6875 32.78125 
Q 41.65625 37.640625 38.5625 40.796875 
Q 35.484375 43.96875 30.546875 43.96875 
Q 25.5 43.96875 22.265625 40.6875 
Q 19.03125 37.421875 18.78125 32.78125 
z
" id="Inter-Bold-101"/>
      <path id="Inter-Bold-32"/>
      <path d="M 73.15625 36.359375 
Q 73.15625 24.46875 68.65625 16.125 
Q 64.171875 7.78125 56.46875 3.390625 
Q 48.765625 -1 39.09375 -1 
Q 29.40625 -1 21.703125 3.40625 
Q 14 7.8125 9.515625 16.171875 
Q 5.046875 24.53125 5.046875 36.359375 
Q 5.046875 48.265625 9.515625 56.609375 
Q 14 64.953125 21.703125 69.328125 
Q 29.40625 73.71875 39.09375 73.71875 
Q 48.765625 73.71875 56.46875 69.328125 
Q 64.171875 64.953125 68.65625 56.609375 
Q 73.15625 48.265625 73.15625 36.359375 
z
M 57.5625 36.359375 
Q 57.5625 47.9375 52.515625 54.03125 
Q 47.484375 60.125 39.09375 60.125 
Q 30.71875 60.125 25.671875 54.03125 
Q 20.640625 47.9375 20.640625 36.359375 
Q 20.640625 24.828125 25.671875 18.71875 
Q 30.71875 12.609375 39.09375 12.609375 
Q 47.484375 12.609375 52.515625 18.71875 
Q 57.5625 24.828125 57.5625 36.359375 
z
" id="Inter-Bold-79"/>
      <path d="M 19.46875 72.734375 
L 37.046875 17.46875 
L 37.71875 17.46875 
L 55.328125 72.734375 
L 72.375 72.734375 
L 47.296875 0 
L 27.484375 0 
L 2.375 72.734375 
z
" id="Inter-Bold-86"/>
      <path d="M 21.703125 72.734375 
L 21.703125 0 
L 6.328125 0 
L 6.328125 72.734375 
z
" id="Inter-Bold-73"/>
      <path d="M 32.109375 0 
L 6.328125 0 
L 6.328125 72.734375 
L 32.3125 72.734375 
Q 43.296875 72.734375 51.21875 68.375 
Q 59.15625 64.03125 63.421875 55.890625 
Q 67.6875 47.765625 67.6875 36.4375 
Q 67.6875 25.078125 63.40625 16.90625 
Q 59.125 8.734375 51.15625 4.359375 
Q 43.1875 0 32.109375 0 
z
M 21.703125 13.171875 
L 31.46875 13.171875 
Q 41.734375 13.171875 47.03125 18.703125 
Q 52.34375 24.25 52.34375 36.4375 
Q 52.34375 48.546875 47.03125 54.046875 
Q 41.734375 59.546875 31.5 59.546875 
L 21.703125 59.546875 
z
" id="Inter-Bold-68"/>
      <path d="M 40.015625 35.859375 
L 40.015625 23.859375 
L 6.859375 23.859375 
L 6.859375 35.859375 
z
" id="Inter-Bold-45"/>
      <path d="M 36.015625 72.734375 
L 36.015625 0 
L 20.671875 0 
L 20.671875 53.90625 
L 20 53.90625 
Q 18.828125 52.09375 15.015625 50.296875 
Q 11.21875 48.515625 5.1875 48.515625 
L 5.1875 60.71875 
Q 9.875 60.71875 13.390625 62.796875 
Q 16.90625 64.875 18.890625 67.703125 
Q 20.875 70.53125 20.953125 72.734375 
z
" id="Inter-Bold-49"/>
      <path d="M 32.203125 73.9375 
Q 37.828125 73.9375 43.015625 72.0625 
Q 48.21875 70.203125 52.3125 66.046875 
Q 56.421875 61.890625 58.84375 55.046875 
Q 61.265625 48.21875 61.265625 38.25 
Q 61.265625 25.921875 57.59375 17.125 
Q 53.9375 8.34375 47.3125 3.671875 
Q 40.703125 -1 31.671875 -1 
Q 24.390625 -1 18.8125 1.828125 
Q 13.25 4.65625 9.859375 9.53125 
Q 6.46875 14.421875 5.75 20.53125 
L 20.921875 20.53125 
Q 21.8125 16.546875 24.640625 14.359375 
Q 27.484375 12.1875 31.671875 12.1875 
Q 38.78125 12.1875 42.46875 18.375 
Q 46.171875 24.578125 46.203125 35.375 
L 45.703125 35.375 
Q 43.296875 30.578125 38.328125 27.84375 
Q 33.375 25.109375 27.375 25.109375 
Q 20.953125 25.109375 15.875 28.140625 
Q 10.796875 31.171875 7.90625 36.46875 
Q 5.015625 41.765625 5.046875 48.578125 
Q 5.015625 55.96875 8.421875 61.703125 
Q 11.828125 67.4375 17.953125 70.703125 
Q 24.078125 73.96875 32.203125 73.9375 
z
M 32.3125 61.859375 
Q 26.953125 61.859375 23.4375 58.15625 
Q 19.921875 54.46875 19.953125 49 
Q 19.921875 43.609375 23.375 39.921875 
Q 26.84375 36.25 32.171875 36.25 
Q 35.6875 36.25 38.515625 37.984375 
Q 41.34375 39.734375 42.984375 42.640625 
Q 44.640625 45.5625 44.671875 49.078125 
Q 44.640625 52.59375 43.015625 55.484375 
Q 41.40625 58.375 38.640625 60.109375 
Q 35.875 61.859375 32.3125 61.859375 
z
" id="Inter-Bold-57"/>
      <path d="M 30.6875 -1.0625 
Q 22.296875 -1.0625 16.28125 2.5 
Q 10.265625 6.078125 7.046875 12.421875 
Q 3.84375 18.78125 3.84375 27.0625 
Q 3.84375 35.4375 7.078125 41.78125 
Q 10.328125 48.125 16.328125 51.6875 
Q 22.34375 55.25 30.609375 55.25 
Q 37.75 55.25 43.125 52.65625 
Q 48.515625 50.078125 51.609375 45.390625 
Q 54.71875 40.703125 55.046875 34.375 
L 40.765625 34.375 
Q 40.171875 38.453125 37.59375 40.953125 
Q 35.015625 43.46875 30.859375 43.46875 
Q 25.609375 43.46875 22.40625 39.234375 
Q 19.21875 35.015625 19.21875 27.265625 
Q 19.21875 19.453125 22.390625 15.171875 
Q 25.5625 10.90625 30.859375 10.90625 
Q 34.765625 10.90625 37.421875 13.265625 
Q 40.09375 15.625 40.765625 20 
L 55.046875 20 
Q 54.6875 13.75 51.640625 8.984375 
Q 48.609375 4.21875 43.28125 1.578125 
Q 37.96875 -1.0625 30.6875 -1.0625 
z
" id="Inter-Bold-99"/>
      <path d="M 51.421875 38.984375 
L 37.578125 38.140625 
Q 37 40.765625 34.6875 42.640625 
Q 32.390625 44.53125 28.453125 44.53125 
Q 24.9375 44.53125 22.5 43.046875 
Q 20.0625 41.578125 20.09375 39.140625 
Q 20.0625 37.1875 21.640625 35.828125 
Q 23.21875 34.484375 27.03125 33.671875 
L 36.890625 31.671875 
Q 52.625 28.4375 52.671875 16.90625 
Q 52.671875 11.546875 49.515625 7.484375 
Q 46.375 3.4375 40.90625 1.1875 
Q 35.4375 -1.0625 28.375 -1.0625 
Q 17.546875 -1.0625 11.109375 3.453125 
Q 4.6875 7.984375 3.625 15.796875 
L 18.5 16.578125 
Q 19.21875 13.25 21.78125 11.546875 
Q 24.359375 9.84375 28.40625 9.84375 
Q 32.390625 9.84375 34.8125 11.40625 
Q 37.25 12.96875 37.28125 15.375 
Q 37.1875 19.421875 30.296875 20.8125 
L 20.84375 22.6875 
Q 5.015625 25.859375 5.078125 38.28125 
Q 5.046875 46.171875 11.375 50.703125 
Q 17.71875 55.25 28.203125 55.25 
Q 38.53125 55.25 44.46875 50.875 
Q 50.421875 46.515625 51.421875 38.984375 
z
" id="Inter-Bold-115"/>
      <path d="M 21.171875 31.53125 
L 21.171875 0 
L 6.03125 0 
L 6.03125 54.546875 
L 20.453125 54.546875 
L 20.453125 44.921875 
L 21.09375 44.921875 
Q 22.9375 49.6875 27.171875 52.46875 
Q 31.421875 55.25 37.5 55.25 
Q 46.03125 55.25 51.171875 49.765625 
Q 56.328125 44.28125 56.328125 34.734375 
L 56.328125 0 
L 41.1875 0 
L 41.1875 32.03125 
Q 41.234375 37.03125 38.640625 39.859375 
Q 36.046875 42.6875 31.5 42.6875 
Q 26.921875 42.6875 24.0625 39.75 
Q 21.203125 36.828125 21.171875 31.53125 
z
" id="Inter-Bold-110"/>
      <path d="M 51.34375 72.734375 
L 66.625 72.734375 
L 66.625 24.640625 
Q 66.625 16.40625 62.75 10.671875 
Q 58.875 4.9375 52.078125 1.953125 
Q 45.28125 -1.03125 36.46875 -1.03125 
Q 27.671875 -1.03125 20.84375 1.953125 
Q 14.03125 4.9375 10.171875 10.671875 
Q 6.328125 16.40625 6.328125 24.640625 
L 6.328125 72.734375 
L 21.703125 72.734375 
L 21.703125 25.171875 
Q 21.703125 19.359375 25.90625 16.015625 
Q 30.109375 12.671875 36.46875 12.671875 
Q 42.9375 12.671875 47.140625 16.015625 
Q 51.34375 19.359375 51.34375 25.171875 
z
" id="Inter-Bold-85"/>
      <path d="M 6.328125 0 
L 6.328125 72.734375 
L 21.703125 72.734375 
L 21.703125 40.65625 
L 22.65625 40.65625 
L 48.828125 72.734375 
L 67.265625 72.734375 
L 40.265625 40.15625 
L 67.578125 0 
L 49.1875 0 
L 29.265625 29.90625 
L 21.703125 20.671875 
L 21.703125 0 
z
" id="Inter-Bold-75"/>
      <path d="M 67.15625 72.734375 
L 67.15625 0 
L 53.875 0 
L 22.234375 45.78125 
L 21.703125 45.78125 
L 21.703125 0 
L 6.328125 0 
L 6.328125 72.734375 
L 19.8125 72.734375 
L 51.203125 26.984375 
L 51.84375 26.984375 
L 51.84375 72.734375 
z
" id="Inter-Bold-78"/>
      <path d="M 30.6875 -1.0625 
Q 22.40625 -1.0625 16.390625 2.46875 
Q 10.375 6 7.109375 12.328125 
Q 3.84375 18.671875 3.84375 27.0625 
Q 3.84375 35.515625 7.109375 41.84375 
Q 10.375 48.1875 16.390625 51.71875 
Q 22.40625 55.25 30.6875 55.25 
Q 38.953125 55.25 44.96875 51.71875 
Q 51 48.1875 54.265625 41.84375 
Q 57.53125 35.515625 57.53125 27.0625 
Q 57.53125 18.671875 54.265625 12.328125 
Q 51 6 44.96875 2.46875 
Q 38.953125 -1.0625 30.6875 -1.0625 
z
M 30.75 10.65625 
Q 36.359375 10.65625 39.25 15.34375 
Q 42.15625 20.03125 42.15625 27.171875 
Q 42.15625 34.296875 39.25 39 
Q 36.359375 43.71875 30.75 43.71875 
Q 25.03125 43.71875 22.125 39 
Q 19.21875 34.296875 19.21875 27.171875 
Q 19.21875 20.03125 22.125 15.34375 
Q 25.03125 10.65625 30.75 10.65625 
z
" id="Inter-Bold-111"/>
      <path d="M 22.484375 9.9375 
L 22.09375 6.03125 
Q 21.625 1.34375 20.328125 -3.3125 
Q 19.03125 -7.984375 17.625 -11.78125 
Q 16.234375 -15.59375 15.375 -17.75 
L 5.578125 -17.75 
Q 6.109375 -15.65625 7.03125 -11.921875 
Q 7.953125 -8.203125 8.765625 -3.53125 
Q 9.59375 1.140625 9.796875 5.96875 
L 9.984375 9.9375 
z
" id="Inter-Bold-44"/>
      <path d="M 6.03125 -20.453125 
L 6.03125 54.546875 
L 20.953125 54.546875 
L 20.953125 45.390625 
L 21.625 45.390625 
Q 22.65625 47.625 24.53125 49.890625 
Q 26.421875 52.171875 29.5 53.703125 
Q 32.59375 55.25 37.140625 55.25 
Q 43.140625 55.25 48.140625 52.140625 
Q 53.15625 49.046875 56.1875 42.8125 
Q 59.234375 36.578125 59.234375 27.203125 
Q 59.234375 18.078125 56.28125 11.8125 
Q 53.34375 5.546875 48.328125 2.328125 
Q 43.328125 -0.890625 37.109375 -0.890625 
Q 32.703125 -0.890625 29.625 0.5625 
Q 26.5625 2.03125 24.625 4.25 
Q 22.6875 6.46875 21.625 8.734375 
L 21.171875 8.734375 
L 21.171875 -20.453125 
z
M 20.84375 27.265625 
Q 20.84375 20 23.84375 15.578125 
Q 26.84375 11.15625 32.3125 11.15625 
Q 37.890625 11.15625 40.828125 15.640625 
Q 43.78125 20.140625 43.78125 27.265625 
Q 43.78125 34.375 40.84375 38.796875 
Q 37.921875 43.21875 32.3125 43.21875 
Q 26.8125 43.21875 23.828125 38.90625 
Q 20.84375 34.59375 20.84375 27.265625 
z
" id="Inter-Bold-112"/>
      <path d="M 6.03125 0 
L 6.03125 54.546875 
L 20.703125 54.546875 
L 20.703125 45.03125 
L 21.265625 45.03125 
Q 22.765625 50.109375 26.265625 52.71875 
Q 29.765625 55.328125 34.375 55.328125 
Q 36.578125 55.328125 38.453125 54.796875 
Q 40.34375 54.265625 41.828125 53.34375 
L 37.28125 40.84375 
Q 36.21875 41.375 34.953125 41.734375 
Q 33.703125 42.109375 32.140625 42.109375 
Q 27.5625 42.109375 24.375 38.984375 
Q 21.203125 35.859375 21.171875 30.859375 
L 21.171875 0 
z
" id="Inter-Bold-114"/>
     </defs>
     <use xlink:href="#Inter-Bold-67"/>
     <use x="75.213089" xlink:href="#Inter-Bold-117"/>
     <use x="137.393494" xlink:href="#Inter-Bold-109"/>
     <use x="228.5867" xlink:href="#Inter-Bold-117"/>
     <use x="290.767105" xlink:href="#Inter-Bold-108"/>
     <use x="317.968811" xlink:href="#Inter-Bold-97"/>
     <use x="375.994385" xlink:href="#Inter-Bold-116"/>
     <use x="414.843826" xlink:href="#Inter-Bold-105"/>
     <use x="442.045532" xlink:href="#Inter-Bold-118"/>
     <use x="500.639297" xlink:href="#Inter-Bold-101"/>
     <use x="560.404938" xlink:href="#Inter-Bold-32"/>
     <use x="583.593857" xlink:href="#Inter-Bold-67"/>
     <use x="658.806946" xlink:href="#Inter-Bold-79"/>
     <use x="737.002991" xlink:href="#Inter-Bold-86"/>
     <use x="811.789932" xlink:href="#Inter-Bold-73"/>
     <use x="839.843918" xlink:href="#Inter-Bold-68"/>
     <use x="912.571213" xlink:href="#Inter-Bold-45"/>
     <use x="959.446228" xlink:href="#Inter-Bold-49"/>
     <use x="1006.853912" xlink:href="#Inter-Bold-57"/>
     <use x="1072.869553" xlink:href="#Inter-Bold-32"/>
     <use x="1096.058472" xlink:href="#Inter-Bold-99"/>
     <use x="1154.794281" xlink:href="#Inter-Bold-97"/>
     <use x="1212.819855" xlink:href="#Inter-Bold-115"/>
     <use x="1268.99884" xlink:href="#Inter-Bold-101"/>
     <use x="1328.764481" xlink:href="#Inter-Bold-115"/>
     <use x="1384.943466" xlink:href="#Inter-Bold-32"/>
     <use x="1408.132385" xlink:href="#Inter-Bold-105"/>
     <use x="1435.334091" xlink:href="#Inter-Bold-110"/>
     <use x="1497.514496" xlink:href="#Inter-Bold-32"/>
     <use x="1520.703415" xlink:href="#Inter-Bold-85"/>
     <use x="1593.643768" xlink:href="#Inter-Bold-75"/>
     <use x="1662.606857" xlink:href="#Inter-Bold-32"/>
     <use x="1685.795776" xlink:href="#Inter-Bold-78"/>
     <use x="1759.304321" xlink:href="#Inter-Bold-97"/>
     <use x="1817.329895" xlink:href="#Inter-Bold-116"/>
     <use x="1856.179337" xlink:href="#Inter-Bold-105"/>
     <use x="1883.381042" xlink:href="#Inter-Bold-111"/>
     <use x="1944.74469" xlink:href="#Inter-Bold-110"/>
     <use x="2006.925095" xlink:href="#Inter-Bold-115"/>
     <use x="2063.10408" xlink:href="#Inter-Bold-44"/>
     <use x="2093.395279" xlink:href="#Inter-Bold-32"/>
     <use x="2116.584198" xlink:href="#Inter-Bold-112"/>
     <use x="2179.829956" xlink:href="#Inter-Bold-101"/>
     <use x="2239.595596" xlink:href="#Inter-Bold-114"/>
     <use x="2282.457825" xlink:href="#Inter-Bold-32"/>
     <use x="2305.646744" xlink:href="#Inter-Bold-99"/>
     <use x="2364.382553" xlink:href="#Inter-Bold-97"/>
     <use x="2422.408127" xlink:href="#Inter-Bold-112"/>
     <use x="2485.653885" xlink:href="#Inter-Bold-105"/>
     <use x="2512.855591" xlink:href="#Inter-Bold-116"/>
     <use x="2551.705032" xlink:href="#Inter-Bold-97"/>
    </g>
   </g>
   <g id="legend_1">
    <g id="patch_4">
     <path d="M 60.204688 98.614063 
L 169.778125 98.614063 
Q 171.778125 98.614063 171.778125 96.614063 
L 171.778125 40.225 
Q 171.778125 38.225 169.778125 38.225 
L 60.204688 38.225 
Q 58.204688 38.225 58.204688 40.225 
L 58.204688 96.614063 
Q 58.204688 98.614063 60.204688 98.614063 
z
" style="fill:#ffffff;opacity:0.8;stroke:#cccccc;stroke-linejoin:miter;"/>
    </g>
    <g id="line2d_32">
     <path d="M 62.204688 45.998438 
L 82.204688 45.998438 
" style="fill:none;stroke:#d4351c;stroke-linecap:square;stroke-width:2;"/>
    </g>
    <g id="line2d_33"/>
    <g id="text_23">
     <!-- Wales -->
     <g transform="translate(90.204688 49.498438)scale(0.1 -0.1)">
      <defs>
       <path d="M 22.015625 0 
L 2.125 72.734375 
L 11.078125 72.734375 
L 26.28125 13.5 
L 26.984375 13.5 
L 42.46875 72.734375 
L 52.421875 72.734375 
L 67.90625 13.5 
L 68.609375 13.5 
L 83.8125 72.734375 
L 92.75 72.734375 
L 72.875 0 
L 63.78125 0 
L 47.734375 57.953125 
L 47.15625 57.953125 
L 31.109375 0 
z
" id="Inter-Regular-87"/>
      </defs>
      <use xlink:href="#Inter-Regular-87"/>
      <use x="94.886383" xlink:href="#Inter-Regular-97"/>
      <use x="151.278442" xlink:href="#Inter-Regular-108"/>
      <use x="175.000031" xlink:href="#Inter-Regular-101"/>
      <use x="233.238678" xlink:href="#Inter-Regular-115"/>
     </g>
    </g>
    <g id="line2d_34">
     <path d="M 62.204688 60.317188 
L 82.204688 60.317188 
" style="fill:none;stroke:#003078;stroke-linecap:square;stroke-width:2;"/>
    </g>
    <g id="line2d_35"/>
    <g id="text_24">
     <!-- Scotland -->
     <g transform="translate(90.204688 63.817188)scale(0.1 -0.1)">
      <use xlink:href="#Inter-Regular-83"/>
      <use x="63.778427" xlink:href="#Inter-Regular-99"/>
      <use x="119.602295" xlink:href="#Inter-Regular-111"/>
      <use x="179.261398" xlink:href="#Inter-Regular-116"/>
      <use x="215.625046" xlink:href="#Inter-Regular-108"/>
      <use x="239.346634" xlink:href="#Inter-Regular-97"/>
      <use x="295.738693" xlink:href="#Inter-Regular-110"/>
      <use x="354.261429" xlink:href="#Inter-Regular-100"/>
     </g>
    </g>
    <g id="line2d_36">
     <path d="M 62.204688 74.635938 
L 82.204688 74.635938 
" style="fill:none;stroke:#ffdd00;stroke-linecap:square;stroke-width:2;"/>
    </g>
    <g id="line2d_37"/>
    <g id="text_25">
     <!-- Northern Ireland -->
     <g transform="translate(90.204688 78.135938)scale(0.1 -0.1)">
      <defs>
       <path d="M 16.046875 32.8125 
L 16.046875 0 
L 7.671875 0 
L 7.671875 72.734375 
L 16.046875 72.734375 
L 16.046875 46.015625 
L 16.765625 46.015625 
Q 18.6875 50.25 22.53125 52.75 
Q 26.390625 55.25 32.8125 55.25 
Q 41.1875 55.25 46.296875 50.203125 
Q 51.421875 45.171875 51.421875 34.65625 
L 51.421875 0 
L 43.046875 0 
L 43.046875 34.09375 
Q 43.046875 40.59375 39.6875 44.15625 
Q 36.328125 47.734375 30.40625 47.734375 
Q 24.1875 47.734375 20.109375 43.84375 
Q 16.046875 39.953125 16.046875 32.8125 
z
" id="Inter-Regular-104"/>
       <path d="M 17.609375 72.734375 
L 17.609375 0 
L 8.8125 0 
L 8.8125 72.734375 
z
" id="Inter-Regular-73"/>
      </defs>
      <use xlink:href="#Inter-Regular-78"/>
      <use x="75.284103" xlink:href="#Inter-Regular-111"/>
      <use x="134.943207" xlink:href="#Inter-Regular-114"/>
      <use x="173.295486" xlink:href="#Inter-Regular-116"/>
      <use x="209.659134" xlink:href="#Inter-Regular-104"/>
      <use x="268.750061" xlink:href="#Inter-Regular-101"/>
      <use x="326.988708" xlink:href="#Inter-Regular-114"/>
      <use x="365.340988" xlink:href="#Inter-Regular-110"/>
      <use x="423.863724" xlink:href="#Inter-Regular-32"/>
      <use x="451.988724" xlink:href="#Inter-Regular-73"/>
      <use x="478.40918" xlink:href="#Inter-Regular-114"/>
      <use x="516.761459" xlink:href="#Inter-Regular-101"/>
      <use x="575.000107" xlink:href="#Inter-Regular-108"/>
      <use x="598.721695" xlink:href="#Inter-Regular-97"/>
      <use x="655.113754" xlink:href="#Inter-Regular-110"/>
      <use x="713.63649" xlink:href="#Inter-Regular-100"/>
     </g>
    </g>
    <g id="line2d_38">
     <path d="M 62.204688 88.954688 
L 82.204688 88.954688 
" style="fill:none;stroke:#5694ca;stroke-linecap:square;stroke-width:2;"/>
    </g>
    <g id="line2d_39"/>
    <g id="text_26">
     <!-- England -->
     <g transform="translate(90.204688 92.454688)scale(0.1 -0.1)">
      <defs>
       <path d="M 8.8125 0 
L 8.8125 72.734375 
L 52.703125 72.734375 
L 52.703125 64.921875 
L 17.609375 64.921875 
L 17.609375 40.34375 
L 50.421875 40.34375 
L 50.421875 32.53125 
L 17.609375 32.53125 
L 17.609375 7.8125 
L 53.265625 7.8125 
L 53.265625 0 
z
" id="Inter-Regular-69"/>
      </defs>
      <use xlink:href="#Inter-Regular-69"/>
      <use x="59.801147" xlink:href="#Inter-Regular-110"/>
      <use x="118.323883" xlink:href="#Inter-Regular-103"/>
      <use x="179.261398" xlink:href="#Inter-Regular-108"/>
      <use x="202.982986" xlink:href="#Inter-Regular-97"/>
      <use x="259.375046" xlink:href="#Inter-Regular-110"/>
      <use x="317.897781" xlink:href="#Inter-Regular-100"/>
     </g>
    </g>
   </g>
  </g>
 </g>
 <defs>
  <clipPath id="p4f6880783c">
   <rect height="443.52" width="669.6" x="53.204688" y="33.225"/>
  </clipPath>
 </defs>
</svg>
