<?xml version="1.0" encoding="utf-8" standalone="no"?>
<!DOCTYPE svg PUBLIC "-//W3C//DTD SVG 1.1//EN"
  "http://www.w3.org/Graphics/SVG/1.1/DTD/svg11.dtd">
<svg version="1.1" viewBox="0 0 740.804688 511.234062" xmlns="http://www.w3.org/2000/svg" xmlns:xlink="http://www.w3.org/1999/xlink">
 <metadata>
  <rdf:RDF xmlns:cc="http://creativecommons.org/ns#" xmlns:dc="http://purl.org/dc/elements/1.1/" xmlns:rdf="http://www.w3.org/1999/02/22-rdf-syntax-ns#">
   <cc:Work>
    <dc:type rdf:resource="http://purl.org/dc/dcmitype/StillImage"/>
    <dc:date>2021-07-29T16:18:19.323184</dc:date>
    <dc:format>image/svg+xml</dc:format>
    <dc:creator>
     <cc:Agent>
      <dc:title>Matplotlib v3.4.2, https://matplotlib.org/</dc:title>
     </cc:Agent>
    </dc:creator>
   </cc:Work>
  </rdf:RDF>
 </metadata>
 <defs>
  <style type="text/css">*{stroke-linecap:butt;stroke-linejoin:round;}</style>
 </defs>
 <g id="figure_1">
  <g id="patch_1">
   <path d="M 0 511.234062 
L 740.804688 511.234062 
L 740.804688 0 
L 0 0 
z
" style="fill:#ffffff;"/>
  </g>
  <g id="axes_1">
   <g id="patch_2">
    <path d="M 53.204688 476.745 
L 722.804688 476.745 
L 722.804688 33.225 
L 53.204688 33.225 
z
" style="fill:#ffffff;"/>
   </g>
   <g id="matplotlib.axis_1">
    <g id="xtick_1">
     <g id="line2d_1">
      <defs>
       <path d="M 0 0 
L 0 3.5 
" id="m64285cbc35" style="stroke:#000000;stroke-width:0.8;"/>
      </defs>
      <g>
       <use style="stroke:#000000;stroke-width:0.8;" x="53.204688" xlink:href="#m64285cbc35" y="476.745"/>
      </g>
     </g>
     <g id="text_1">
      <!-- 01 Mar -->
      <g transform="translate(37.167969 491.018437)scale(0.1 -0.1)">
       <defs>
        <path d="M 2000 -64 
Q 1230 -64 806 561 
Q 382 1186 382 2327 
Q 382 3459 809 4088 
Q 1236 4718 2000 4718 
Q 2764 4718 3191 4088 
Q 3618 3459 3618 2327 
Q 3618 1186 3194 561 
Q 2771 -64 2000 -64 
z
M 2000 436 
Q 2509 436 2791 927 
Q 3073 1418 3073 2327 
Q 3073 3234 2789 3730 
Q 2505 4227 2000 4227 
Q 1496 4227 1211 3730 
Q 927 3234 927 2327 
Q 927 1418 1210 927 
Q 1493 436 2000 436 
z
" id="Inter-Regular-30" transform="scale(0.015625)"/>
        <path d="M 1973 4655 
L 1973 0 
L 1409 0 
L 1409 3836 
L 1373 3836 
Q 1341 3773 1209 3692 
Q 1077 3611 868 3551 
Q 659 3491 391 3491 
L 391 3964 
Q 661 3964 859 4061 
Q 1057 4159 1190 4291 
Q 1323 4423 1392 4529 
Q 1461 4636 1473 4655 
L 1973 4655 
z
" id="Inter-Regular-31" transform="scale(0.015625)"/>
        <path id="Inter-Regular-20" transform="scale(0.015625)"/>
        <path d="M 564 4655 
L 1236 4655 
L 2818 791 
L 2873 791 
L 4455 4655 
L 5127 4655 
L 5127 0 
L 4600 0 
L 4600 3536 
L 4555 3536 
L 3100 0 
L 2591 0 
L 1136 3536 
L 1091 3536 
L 1091 0 
L 564 0 
L 564 4655 
z
" id="Inter-Regular-4d" transform="scale(0.015625)"/>
        <path d="M 1518 -82 
Q 1186 -82 916 44 
Q 646 170 486 410 
Q 327 650 327 991 
Q 327 1291 445 1478 
Q 564 1666 761 1773 
Q 959 1880 1199 1933 
Q 1439 1986 1682 2018 
Q 2000 2059 2199 2080 
Q 2398 2102 2490 2154 
Q 2582 2207 2582 2336 
L 2582 2355 
Q 2582 2691 2399 2877 
Q 2216 3064 1846 3064 
Q 1461 3064 1243 2895 
Q 1025 2727 936 2536 
L 427 2718 
Q 564 3036 792 3214 
Q 1021 3393 1292 3464 
Q 1564 3536 1827 3536 
Q 1996 3536 2215 3496 
Q 2434 3457 2640 3334 
Q 2846 3211 2982 2963 
Q 3118 2716 3118 2300 
L 3118 0 
L 2582 0 
L 2582 473 
L 2555 473 
Q 2500 359 2373 229 
Q 2246 100 2034 9 
Q 1823 -82 1518 -82 
z
M 1600 400 
Q 1918 400 2137 525 
Q 2357 650 2469 847 
Q 2582 1045 2582 1264 
L 2582 1755 
Q 2548 1714 2433 1681 
Q 2318 1648 2169 1624 
Q 2021 1600 1881 1583 
Q 1741 1566 1655 1555 
Q 1446 1527 1265 1467 
Q 1084 1407 974 1287 
Q 864 1168 864 964 
Q 864 684 1072 542 
Q 1280 400 1600 400 
z
" id="Inter-Regular-61" transform="scale(0.015625)"/>
        <path d="M 491 0 
L 491 3491 
L 1009 3491 
L 1009 2964 
L 1046 2964 
Q 1139 3223 1389 3384 
Q 1639 3545 1955 3545 
Q 2100 3545 2209 3511 
Q 2318 3477 2400 3418 
L 2218 2964 
Q 2161 2993 2085 3010 
Q 2009 3027 1909 3027 
Q 1527 3027 1277 2794 
Q 1027 2561 1027 2209 
L 1027 0 
L 491 0 
z
" id="Inter-Regular-72" transform="scale(0.015625)"/>
       </defs>
       <use xlink:href="#Inter-Regular-30"/>
       <use x="62.500015" xlink:href="#Inter-Regular-31"/>
       <use x="106.676163" xlink:href="#Inter-Regular-20"/>
       <use x="134.801163" xlink:href="#Inter-Regular-4d"/>
       <use x="225.99437" xlink:href="#Inter-Regular-61"/>
       <use x="282.386429" xlink:href="#Inter-Regular-72"/>
      </g>
     </g>
    </g>
    <g id="xtick_2">
     <g id="line2d_2">
      <g>
       <use style="stroke:#000000;stroke-width:0.8;" x="93.457676" xlink:href="#m64285cbc35" y="476.745"/>
      </g>
     </g>
    </g>
    <g id="xtick_3">
     <g id="line2d_3">
      <g>
       <use style="stroke:#000000;stroke-width:0.8;" x="132.412181" xlink:href="#m64285cbc35" y="476.745"/>
      </g>
     </g>
     <g id="text_2">
      <!-- 01 May -->
      <g transform="translate(115.509056 491.116875)scale(0.1 -0.1)">
       <defs>
        <path d="M 818 -1355 
Q 682 -1355 575 -1333 
Q 468 -1311 427 -1291 
L 564 -818 
Q 857 -893 1053 -814 
Q 1250 -736 1391 -345 
L 1509 -18 
L 218 3491 
L 800 3491 
L 1764 709 
L 1800 709 
L 2764 3491 
L 3346 3491 
L 1846 -564 
Q 1550 -1355 818 -1355 
z
" id="Inter-Regular-79" transform="scale(0.015625)"/>
       </defs>
       <use xlink:href="#Inter-Regular-30"/>
       <use x="62.500015" xlink:href="#Inter-Regular-31"/>
       <use x="106.676163" xlink:href="#Inter-Regular-20"/>
       <use x="134.801163" xlink:href="#Inter-Regular-4d"/>
       <use x="225.99437" xlink:href="#Inter-Regular-61"/>
       <use x="282.386429" xlink:href="#Inter-Regular-79"/>
      </g>
     </g>
    </g>
    <g id="xtick_4">
     <g id="line2d_4">
      <g>
       <use style="stroke:#000000;stroke-width:0.8;" x="172.665169" xlink:href="#m64285cbc35" y="476.745"/>
      </g>
     </g>
    </g>
    <g id="xtick_5">
     <g id="line2d_5">
      <g>
       <use style="stroke:#000000;stroke-width:0.8;" x="211.619674" xlink:href="#m64285cbc35" y="476.745"/>
      </g>
     </g>
     <g id="text_3">
      <!-- 01 Jul -->
      <g transform="translate(198.075924 491.018437)scale(0.1 -0.1)">
       <defs>
        <path d="M 2346 4655 
L 2909 4655 
L 2909 1327 
Q 2909 657 2549 296 
Q 2189 -64 1582 -64 
Q 1200 -64 902 76 
Q 605 216 434 475 
Q 264 734 264 1091 
L 818 1091 
Q 818 795 1034 615 
Q 1250 436 1582 436 
Q 1948 436 2147 664 
Q 2346 893 2346 1327 
L 2346 4655 
z
" id="Inter-Regular-4a" transform="scale(0.015625)"/>
        <path d="M 2691 1427 
L 2691 3491 
L 3227 3491 
L 3227 0 
L 2691 0 
L 2691 591 
L 2655 591 
Q 2532 325 2273 140 
Q 2014 -45 1618 -45 
Q 1127 -45 809 280 
Q 491 605 491 1273 
L 491 3491 
L 1027 3491 
L 1027 1309 
Q 1027 927 1242 700 
Q 1457 473 1791 473 
Q 1991 473 2199 575 
Q 2407 677 2549 888 
Q 2691 1100 2691 1427 
z
" id="Inter-Regular-75" transform="scale(0.015625)"/>
        <path d="M 1027 4655 
L 1027 0 
L 491 0 
L 491 4655 
L 1027 4655 
z
" id="Inter-Regular-6c" transform="scale(0.015625)"/>
       </defs>
       <use xlink:href="#Inter-Regular-30"/>
       <use x="62.500015" xlink:href="#Inter-Regular-31"/>
       <use x="106.676163" xlink:href="#Inter-Regular-20"/>
       <use x="134.801163" xlink:href="#Inter-Regular-4a"/>
       <use x="189.062531" xlink:href="#Inter-Regular-75"/>
       <use x="247.159134" xlink:href="#Inter-Regular-6c"/>
      </g>
     </g>
    </g>
    <g id="xtick_6">
     <g id="line2d_6">
      <g>
       <use style="stroke:#000000;stroke-width:0.8;" x="251.872663" xlink:href="#m64285cbc35" y="476.745"/>
      </g>
     </g>
    </g>
    <g id="xtick_7">
     <g id="line2d_7">
      <g>
       <use style="stroke:#000000;stroke-width:0.8;" x="292.125651" xlink:href="#m64285cbc35" y="476.745"/>
      </g>
     </g>
     <g id="text_4">
      <!-- 01 Sep -->
      <g transform="translate(276.238151 491.116875)scale(0.1 -0.1)">
       <defs>
        <path d="M 3109 3491 
Q 3068 3836 2777 4027 
Q 2486 4218 2064 4218 
Q 1600 4218 1318 3999 
Q 1036 3780 1036 3445 
Q 1036 3195 1189 3042 
Q 1343 2889 1553 2803 
Q 1764 2718 1936 2673 
L 2409 2545 
Q 2591 2498 2815 2414 
Q 3039 2330 3244 2185 
Q 3450 2041 3584 1816 
Q 3718 1591 3718 1264 
Q 3718 886 3521 581 
Q 3325 277 2949 97 
Q 2573 -82 2036 -82 
Q 1286 -82 845 272 
Q 405 627 364 1200 
L 946 1200 
Q 968 936 1124 764 
Q 1280 593 1519 510 
Q 1759 427 2036 427 
Q 2359 427 2616 533 
Q 2873 639 3023 828 
Q 3173 1018 3173 1273 
Q 3173 1505 3043 1650 
Q 2914 1795 2702 1886 
Q 2491 1977 2246 2045 
L 1673 2209 
Q 1127 2366 809 2657 
Q 491 2948 491 3418 
Q 491 3809 703 4101 
Q 916 4393 1276 4555 
Q 1636 4718 2082 4718 
Q 2532 4718 2882 4558 
Q 3232 4398 3437 4120 
Q 3643 3843 3655 3491 
L 3109 3491 
z
" id="Inter-Regular-53" transform="scale(0.015625)"/>
        <path d="M 1955 -73 
Q 1450 -73 1085 151 
Q 721 375 524 778 
Q 327 1182 327 1718 
Q 327 2255 524 2665 
Q 721 3075 1074 3305 
Q 1427 3536 1900 3536 
Q 2173 3536 2439 3445 
Q 2705 3355 2923 3151 
Q 3141 2948 3270 2614 
Q 3400 2280 3400 1791 
L 3400 1564 
L 866 1564 
Q 884 1005 1183 707 
Q 1482 409 1955 409 
Q 2271 409 2498 545 
Q 2725 682 2827 955 
L 3346 809 
Q 3223 414 2854 170 
Q 2486 -73 1955 -73 
z
M 866 2027 
L 2855 2027 
Q 2855 2470 2595 2762 
Q 2336 3055 1900 3055 
Q 1593 3055 1368 2911 
Q 1143 2768 1013 2533 
Q 884 2298 866 2027 
z
" id="Inter-Regular-65" transform="scale(0.015625)"/>
        <path d="M 491 -1309 
L 491 3491 
L 1009 3491 
L 1009 2936 
L 1073 2936 
Q 1132 3027 1237 3169 
Q 1343 3311 1542 3423 
Q 1741 3536 2082 3536 
Q 2523 3536 2859 3315 
Q 3196 3095 3384 2690 
Q 3573 2286 3573 1736 
Q 3573 1182 3384 776 
Q 3196 370 2861 148 
Q 2527 -73 2091 -73 
Q 1755 -73 1552 39 
Q 1350 152 1241 296 
Q 1132 441 1073 536 
L 1027 536 
L 1027 -1309 
L 491 -1309 
z
M 1018 1745 
Q 1018 1152 1276 780 
Q 1534 409 2018 409 
Q 2355 409 2581 587 
Q 2807 766 2921 1069 
Q 3036 1373 3036 1745 
Q 3036 2114 2923 2410 
Q 2811 2707 2585 2881 
Q 2359 3055 2018 3055 
Q 1527 3055 1272 2693 
Q 1018 2332 1018 1745 
z
" id="Inter-Regular-70" transform="scale(0.015625)"/>
       </defs>
       <use xlink:href="#Inter-Regular-30"/>
       <use x="62.500015" xlink:href="#Inter-Regular-31"/>
       <use x="106.676163" xlink:href="#Inter-Regular-20"/>
       <use x="134.801163" xlink:href="#Inter-Regular-53"/>
       <use x="198.57959" xlink:href="#Inter-Regular-65"/>
       <use x="256.818237" xlink:href="#Inter-Regular-70"/>
      </g>
     </g>
    </g>
    <g id="xtick_8">
     <g id="line2d_8">
      <g>
       <use style="stroke:#000000;stroke-width:0.8;" x="331.080156" xlink:href="#m64285cbc35" y="476.745"/>
      </g>
     </g>
    </g>
    <g id="xtick_9">
     <g id="line2d_9">
      <g>
       <use style="stroke:#000000;stroke-width:0.8;" x="371.333145" xlink:href="#m64285cbc35" y="476.745"/>
      </g>
     </g>
     <g id="text_5">
      <!-- 01 Nov -->
      <g transform="translate(355.062051 491.018437)scale(0.1 -0.1)">
       <defs>
        <path d="M 4255 4655 
L 4255 0 
L 3709 0 
L 1173 3655 
L 1127 3655 
L 1127 0 
L 564 0 
L 564 4655 
L 1109 4655 
L 3655 991 
L 3700 991 
L 3700 4655 
L 4255 4655 
z
" id="Inter-Regular-4e" transform="scale(0.015625)"/>
        <path d="M 1909 -73 
Q 1436 -73 1080 152 
Q 725 377 526 781 
Q 327 1186 327 1727 
Q 327 2273 526 2679 
Q 725 3086 1080 3311 
Q 1436 3536 1909 3536 
Q 2382 3536 2737 3311 
Q 3093 3086 3292 2679 
Q 3491 2273 3491 1727 
Q 3491 1186 3292 781 
Q 3093 377 2737 152 
Q 2382 -73 1909 -73 
z
M 1909 409 
Q 2268 409 2500 593 
Q 2732 777 2843 1077 
Q 2955 1377 2955 1727 
Q 2955 2077 2843 2379 
Q 2732 2682 2500 2868 
Q 2268 3055 1909 3055 
Q 1550 3055 1318 2868 
Q 1086 2682 975 2379 
Q 864 2077 864 1727 
Q 864 1377 975 1077 
Q 1086 777 1318 593 
Q 1550 409 1909 409 
z
" id="Inter-Regular-6f" transform="scale(0.015625)"/>
        <path d="M 3346 3491 
L 2055 0 
L 1509 0 
L 218 3491 
L 800 3491 
L 1764 709 
L 1800 709 
L 2764 3491 
L 3346 3491 
z
" id="Inter-Regular-76" transform="scale(0.015625)"/>
       </defs>
       <use xlink:href="#Inter-Regular-30"/>
       <use x="62.500015" xlink:href="#Inter-Regular-31"/>
       <use x="106.676163" xlink:href="#Inter-Regular-20"/>
       <use x="134.801163" xlink:href="#Inter-Regular-4e"/>
       <use x="210.085266" xlink:href="#Inter-Regular-6f"/>
       <use x="269.74437" xlink:href="#Inter-Regular-76"/>
      </g>
     </g>
    </g>
    <g id="xtick_10">
     <g id="line2d_10">
      <g>
       <use style="stroke:#000000;stroke-width:0.8;" x="410.28765" xlink:href="#m64285cbc35" y="476.745"/>
      </g>
     </g>
    </g>
    <g id="xtick_11">
     <g id="line2d_11">
      <g>
       <use style="stroke:#000000;stroke-width:0.8;" x="450.540638" xlink:href="#m64285cbc35" y="476.745"/>
      </g>
     </g>
     <g id="text_6">
      <!-- 01 Jan -->
      <g transform="translate(435.341419 491.018437)scale(0.1 -0.1)">
       <defs>
        <path d="M 1027 2100 
L 1027 0 
L 491 0 
L 491 3491 
L 1009 3491 
L 1009 2945 
L 1055 2945 
Q 1177 3211 1427 3373 
Q 1677 3536 2073 3536 
Q 2602 3536 2928 3211 
Q 3255 2886 3255 2218 
L 3255 0 
L 2718 0 
L 2718 2182 
Q 2718 2593 2504 2824 
Q 2291 3055 1918 3055 
Q 1534 3055 1280 2806 
Q 1027 2557 1027 2100 
z
" id="Inter-Regular-6e" transform="scale(0.015625)"/>
       </defs>
       <use xlink:href="#Inter-Regular-30"/>
       <use x="62.500015" xlink:href="#Inter-Regular-31"/>
       <use x="106.676163" xlink:href="#Inter-Regular-20"/>
       <use x="134.801163" xlink:href="#Inter-Regular-4a"/>
       <use x="189.062531" xlink:href="#Inter-Regular-61"/>
       <use x="245.45459" xlink:href="#Inter-Regular-6e"/>
      </g>
     </g>
    </g>
    <g id="xtick_12">
     <g id="line2d_12">
      <g>
       <use style="stroke:#000000;stroke-width:0.8;" x="490.793626" xlink:href="#m64285cbc35" y="476.745"/>
      </g>
     </g>
    </g>
    <g id="xtick_13">
     <g id="line2d_13">
      <g>
       <use style="stroke:#000000;stroke-width:0.8;" x="527.151164" xlink:href="#m64285cbc35" y="476.745"/>
      </g>
     </g>
     <g id="text_7">
      <!-- 01 Mar -->
      <g transform="translate(511.114446 491.018437)scale(0.1 -0.1)">
       <use xlink:href="#Inter-Regular-30"/>
       <use x="62.500015" xlink:href="#Inter-Regular-31"/>
       <use x="106.676163" xlink:href="#Inter-Regular-20"/>
       <use x="134.801163" xlink:href="#Inter-Regular-4d"/>
       <use x="225.99437" xlink:href="#Inter-Regular-61"/>
       <use x="282.386429" xlink:href="#Inter-Regular-72"/>
      </g>
     </g>
    </g>
    <g id="xtick_14">
     <g id="line2d_14">
      <g>
       <use style="stroke:#000000;stroke-width:0.8;" x="567.404153" xlink:href="#m64285cbc35" y="476.745"/>
      </g>
     </g>
    </g>
    <g id="xtick_15">
     <g id="line2d_15">
      <g>
       <use style="stroke:#000000;stroke-width:0.8;" x="606.358658" xlink:href="#m64285cbc35" y="476.745"/>
      </g>
     </g>
     <g id="text_8">
      <!-- 01 May -->
      <g transform="translate(589.455533 491.116875)scale(0.1 -0.1)">
       <use xlink:href="#Inter-Regular-30"/>
       <use x="62.500015" xlink:href="#Inter-Regular-31"/>
       <use x="106.676163" xlink:href="#Inter-Regular-20"/>
       <use x="134.801163" xlink:href="#Inter-Regular-4d"/>
       <use x="225.99437" xlink:href="#Inter-Regular-61"/>
       <use x="282.386429" xlink:href="#Inter-Regular-79"/>
      </g>
     </g>
    </g>
    <g id="xtick_16">
     <g id="line2d_16">
      <g>
       <use style="stroke:#000000;stroke-width:0.8;" x="646.611646" xlink:href="#m64285cbc35" y="476.745"/>
      </g>
     </g>
    </g>
    <g id="xtick_17">
     <g id="line2d_17">
      <g>
       <use style="stroke:#000000;stroke-width:0.8;" x="685.566151" xlink:href="#m64285cbc35" y="476.745"/>
      </g>
     </g>
     <g id="text_9">
      <!-- 01 Jul -->
      <g transform="translate(672.022401 491.018437)scale(0.1 -0.1)">
       <use xlink:href="#Inter-Regular-30"/>
       <use x="62.500015" xlink:href="#Inter-Regular-31"/>
       <use x="106.676163" xlink:href="#Inter-Regular-20"/>
       <use x="134.801163" xlink:href="#Inter-Regular-4a"/>
       <use x="189.062531" xlink:href="#Inter-Regular-75"/>
       <use x="247.159134" xlink:href="#Inter-Regular-6c"/>
      </g>
     </g>
    </g>
   </g>
   <g id="matplotlib.axis_2">
    <g id="ytick_1">
     <g id="line2d_18">
      <path clip-path="url(#p451fedd9e0)" d="M 53.204688 476.745 
L 722.804688 476.745 
" style="fill:none;stroke:#e5e5e5;stroke-linecap:square;stroke-width:0.8;"/>
     </g>
     <g id="line2d_19">
      <defs>
       <path d="M 0 0 
L -3.5 0 
" id="md209950615" style="stroke:#000000;stroke-width:0.8;"/>
      </defs>
      <g>
       <use style="stroke:#000000;stroke-width:0.8;" x="53.204688" xlink:href="#md209950615" y="476.745"/>
      </g>
     </g>
     <g id="text_10">
      <!-- 0% -->
      <g transform="translate(31.829688 480.381719)scale(0.1 -0.1)">
       <defs>
        <path d="M 2855 873 
L 2855 1118 
Q 2855 1373 2960 1585 
Q 3066 1798 3269 1926 
Q 3473 2055 3764 2055 
Q 4059 2055 4259 1926 
Q 4459 1798 4561 1585 
Q 4664 1373 4664 1118 
L 4664 873 
Q 4664 618 4560 405 
Q 4457 193 4256 64 
Q 4055 -64 3764 -64 
Q 3468 -64 3266 64 
Q 3064 193 2959 405 
Q 2855 618 2855 873 
z
M 536 3536 
L 536 3782 
Q 536 4036 642 4248 
Q 748 4461 951 4589 
Q 1155 4718 1446 4718 
Q 1741 4718 1941 4589 
Q 2141 4461 2243 4248 
Q 2346 4036 2346 3782 
L 2346 3536 
Q 2346 3282 2242 3069 
Q 2139 2857 1937 2728 
Q 1736 2600 1446 2600 
Q 1150 2600 948 2728 
Q 746 2857 641 3069 
Q 536 3282 536 3536 
z
M 709 0 
L 3909 4655 
L 4427 4655 
L 1227 0 
L 709 0 
z
M 3318 1118 
L 3318 873 
Q 3318 661 3418 494 
Q 3518 327 3764 327 
Q 4002 327 4101 494 
Q 4200 661 4200 873 
L 4200 1118 
Q 4200 1330 4104 1497 
Q 4009 1664 3764 1664 
Q 3525 1664 3421 1497 
Q 3318 1330 3318 1118 
z
M 1000 3782 
L 1000 3536 
Q 1000 3325 1100 3158 
Q 1200 2991 1446 2991 
Q 1684 2991 1783 3158 
Q 1882 3325 1882 3536 
L 1882 3782 
Q 1882 3993 1786 4160 
Q 1691 4327 1446 4327 
Q 1207 4327 1103 4160 
Q 1000 3993 1000 3782 
z
" id="Inter-Regular-25" transform="scale(0.015625)"/>
       </defs>
       <use xlink:href="#Inter-Regular-30"/>
       <use x="62.500015" xlink:href="#Inter-Regular-25"/>
      </g>
     </g>
    </g>
    <g id="ytick_2">
     <g id="line2d_20">
      <path clip-path="url(#p451fedd9e0)" d="M 53.204688 381.099956 
L 722.804688 381.099956 
" style="fill:none;stroke:#e5e5e5;stroke-linecap:square;stroke-width:0.8;"/>
     </g>
     <g id="line2d_21">
      <g>
       <use style="stroke:#000000;stroke-width:0.8;" x="53.204688" xlink:href="#md209950615" y="381.099956"/>
      </g>
     </g>
     <g id="text_11">
      <!-- 2% -->
      <g transform="translate(32.028125 384.736675)scale(0.1 -0.1)">
       <defs>
        <path d="M 482 0 
L 482 409 
L 2018 2091 
Q 2289 2386 2464 2605 
Q 2639 2825 2724 3019 
Q 2809 3214 2809 3427 
Q 2809 3795 2553 4011 
Q 2298 4227 1918 4227 
Q 1514 4227 1275 3985 
Q 1036 3743 1036 3345 
L 500 3345 
Q 500 3755 688 4064 
Q 877 4373 1203 4545 
Q 1530 4718 1936 4718 
Q 2346 4718 2661 4545 
Q 2977 4373 3156 4079 
Q 3336 3786 3336 3427 
Q 3336 3170 3244 2926 
Q 3152 2682 2926 2383 
Q 2700 2084 2300 1655 
L 1255 536 
L 1255 500 
L 3418 500 
L 3418 0 
L 482 0 
z
" id="Inter-Regular-32" transform="scale(0.015625)"/>
       </defs>
       <use xlink:href="#Inter-Regular-32"/>
       <use x="60.511383" xlink:href="#Inter-Regular-25"/>
      </g>
     </g>
    </g>
    <g id="ytick_3">
     <g id="line2d_22">
      <path clip-path="url(#p451fedd9e0)" d="M 53.204688 285.454913 
L 722.804688 285.454913 
" style="fill:none;stroke:#e5e5e5;stroke-linecap:square;stroke-width:0.8;"/>
     </g>
     <g id="line2d_23">
      <g>
       <use style="stroke:#000000;stroke-width:0.8;" x="53.204688" xlink:href="#md209950615" y="285.454913"/>
      </g>
     </g>
     <g id="text_12">
      <!-- 4% -->
      <g transform="translate(31.659375 289.091631)scale(0.1 -0.1)">
       <defs>
        <path d="M 373 955 
L 373 1418 
L 2418 4655 
L 3100 4655 
L 3100 1455 
L 3736 1455 
L 3736 955 
L 3100 955 
L 3100 0 
L 2564 0 
L 2564 955 
L 373 955 
z
M 2564 1455 
L 2564 3936 
L 2527 3936 
L 982 1491 
L 982 1455 
L 2564 1455 
z
" id="Inter-Regular-34" transform="scale(0.015625)"/>
       </defs>
       <use xlink:href="#Inter-Regular-34"/>
       <use x="64.204559" xlink:href="#Inter-Regular-25"/>
      </g>
     </g>
    </g>
    <g id="ytick_4">
     <g id="line2d_24">
      <path clip-path="url(#p451fedd9e0)" d="M 53.204688 189.809869 
L 722.804688 189.809869 
" style="fill:none;stroke:#e5e5e5;stroke-linecap:square;stroke-width:0.8;"/>
     </g>
     <g id="line2d_25">
      <g>
       <use style="stroke:#000000;stroke-width:0.8;" x="53.204688" xlink:href="#md209950615" y="189.809869"/>
      </g>
     </g>
     <g id="text_13">
      <!-- 6% -->
      <g transform="translate(31.84375 193.446588)scale(0.1 -0.1)">
       <defs>
        <path d="M 2027 -64 
Q 1741 -59 1454 45 
Q 1168 150 932 399 
Q 696 648 552 1074 
Q 409 1500 409 2145 
Q 409 3386 861 4056 
Q 1314 4727 2100 4727 
Q 2686 4727 3073 4384 
Q 3461 4041 3546 3491 
L 2991 3491 
Q 2914 3811 2691 4019 
Q 2468 4227 2100 4227 
Q 1559 4227 1249 3755 
Q 939 3284 936 2427 
L 973 2427 
Q 1164 2716 1461 2880 
Q 1759 3045 2118 3045 
Q 2518 3045 2850 2846 
Q 3182 2648 3382 2299 
Q 3582 1950 3582 1500 
Q 3582 1068 3389 710 
Q 3196 352 2847 142 
Q 2498 -68 2027 -64 
z
M 2027 436 
Q 2314 436 2542 579 
Q 2771 723 2903 964 
Q 3036 1205 3036 1500 
Q 3036 1789 2908 2026 
Q 2780 2264 2556 2404 
Q 2332 2545 2046 2545 
Q 1757 2545 1525 2397 
Q 1293 2250 1157 2010 
Q 1021 1770 1018 1491 
Q 1018 1214 1149 973 
Q 1280 732 1508 584 
Q 1736 436 2027 436 
z
" id="Inter-Regular-36" transform="scale(0.015625)"/>
       </defs>
       <use xlink:href="#Inter-Regular-36"/>
       <use x="62.357971" xlink:href="#Inter-Regular-25"/>
      </g>
     </g>
    </g>
    <g id="ytick_5">
     <g id="line2d_26">
      <path clip-path="url(#p451fedd9e0)" d="M 53.204688 94.164825 
L 722.804688 94.164825 
" style="fill:none;stroke:#e5e5e5;stroke-linecap:square;stroke-width:0.8;"/>
     </g>
     <g id="line2d_27">
      <g>
       <use style="stroke:#000000;stroke-width:0.8;" x="53.204688" xlink:href="#md209950615" y="94.164825"/>
      </g>
     </g>
     <g id="text_14">
      <!-- 8% -->
      <g transform="translate(31.914063 97.801544)scale(0.1 -0.1)">
       <defs>
        <path d="M 1973 -64 
Q 1505 -64 1147 103 
Q 789 270 589 564 
Q 389 859 391 1236 
Q 389 1532 507 1783 
Q 625 2034 830 2203 
Q 1036 2373 1291 2418 
L 1291 2445 
Q 957 2532 759 2821 
Q 561 3111 564 3482 
Q 561 3836 743 4115 
Q 925 4395 1244 4556 
Q 1564 4718 1973 4718 
Q 2377 4718 2695 4556 
Q 3014 4395 3197 4115 
Q 3380 3836 3382 3482 
Q 3380 3111 3181 2821 
Q 2982 2532 2655 2445 
L 2655 2418 
Q 2907 2373 3109 2203 
Q 3311 2034 3431 1783 
Q 3552 1532 3555 1236 
Q 3552 859 3351 564 
Q 3150 270 2794 103 
Q 2439 -64 1973 -64 
z
M 1973 436 
Q 2446 436 2722 662 
Q 2998 889 3000 1264 
Q 2998 1527 2864 1729 
Q 2730 1932 2499 2048 
Q 2268 2164 1973 2164 
Q 1675 2164 1442 2048 
Q 1209 1932 1076 1729 
Q 943 1527 946 1264 
Q 943 889 1218 662 
Q 1493 436 1973 436 
z
M 1973 2645 
Q 2348 2645 2591 2864 
Q 2834 3084 2836 3445 
Q 2834 3800 2596 4013 
Q 2359 4227 1973 4227 
Q 1582 4227 1344 4013 
Q 1107 3800 1109 3445 
Q 1107 3084 1349 2864 
Q 1591 2645 1973 2645 
z
" id="Inter-Regular-38" transform="scale(0.015625)"/>
       </defs>
       <use xlink:href="#Inter-Regular-38"/>
       <use x="61.647736" xlink:href="#Inter-Regular-25"/>
      </g>
     </g>
    </g>
    <g id="text_15">
     <!-- Percent of nation tested positive -->
     <g transform="translate(25.614063 332.215469)rotate(-90)scale(0.1 -0.1)">
      <defs>
       <path d="M 564 0 
L 564 4655 
L 2136 4655 
Q 2684 4655 3033 4458 
Q 3382 4261 3550 3927 
Q 3718 3593 3718 3182 
Q 3718 2770 3551 2434 
Q 3384 2098 3036 1899 
Q 2689 1700 2146 1700 
L 1127 1700 
L 1127 0 
L 564 0 
z
M 1127 2200 
L 2127 2200 
Q 2689 2200 2926 2482 
Q 3164 2764 3164 3182 
Q 3164 3602 2925 3878 
Q 2686 4155 2118 4155 
L 1127 4155 
L 1127 2200 
z
" id="Inter-Regular-50" transform="scale(0.015625)"/>
       <path d="M 1909 -73 
Q 1418 -73 1063 159 
Q 709 391 518 798 
Q 327 1205 327 1727 
Q 327 2259 524 2667 
Q 721 3075 1074 3305 
Q 1427 3536 1900 3536 
Q 2268 3536 2563 3400 
Q 2859 3264 3047 3018 
Q 3236 2773 3282 2445 
L 2746 2445 
Q 2684 2684 2474 2869 
Q 2264 3055 1909 3055 
Q 1439 3055 1151 2697 
Q 864 2339 864 1745 
Q 864 1139 1148 774 
Q 1432 409 1909 409 
Q 2223 409 2447 570 
Q 2671 732 2746 1018 
L 3282 1018 
Q 3236 709 3058 462 
Q 2880 216 2588 71 
Q 2296 -73 1909 -73 
z
" id="Inter-Regular-63" transform="scale(0.015625)"/>
       <path d="M 2009 3491 
L 2009 3036 
L 1264 3036 
L 1264 1000 
Q 1264 773 1331 660 
Q 1398 548 1503 510 
Q 1609 473 1727 473 
Q 1816 473 1873 483 
Q 1930 493 1964 500 
L 2073 18 
Q 2018 -2 1920 -23 
Q 1823 -45 1673 -45 
Q 1446 -45 1228 52 
Q 1011 150 869 350 
Q 727 550 727 855 
L 727 3036 
L 200 3036 
L 200 3491 
L 727 3491 
L 727 4327 
L 1264 4327 
L 1264 3491 
L 2009 3491 
z
" id="Inter-Regular-74" transform="scale(0.015625)"/>
       <path d="M 2046 3491 
L 2046 3036 
L 1264 3036 
L 1264 0 
L 727 0 
L 727 3036 
L 164 3036 
L 164 3491 
L 727 3491 
L 727 3973 
Q 727 4273 868 4473 
Q 1009 4673 1234 4773 
Q 1459 4873 1709 4873 
Q 1907 4873 2032 4841 
Q 2157 4809 2218 4782 
L 2064 4318 
Q 2023 4332 1951 4352 
Q 1880 4373 1764 4373 
Q 1498 4373 1381 4239 
Q 1264 4105 1264 3845 
L 1264 3491 
L 2046 3491 
z
" id="Inter-Regular-66" transform="scale(0.015625)"/>
       <path d="M 491 0 
L 491 3491 
L 1027 3491 
L 1027 0 
L 491 0 
z
M 764 4073 
Q 607 4073 494 4179 
Q 382 4286 382 4436 
Q 382 4586 494 4693 
Q 607 4800 764 4800 
Q 921 4800 1033 4693 
Q 1146 4586 1146 4436 
Q 1146 4286 1033 4179 
Q 921 4073 764 4073 
z
" id="Inter-Regular-69" transform="scale(0.015625)"/>
       <path d="M 2964 2709 
L 2482 2573 
Q 2411 2755 2245 2914 
Q 2080 3073 1727 3073 
Q 1407 3073 1194 2926 
Q 982 2780 982 2555 
Q 982 2355 1127 2239 
Q 1273 2123 1582 2045 
L 2100 1918 
Q 3027 1691 3027 973 
Q 3027 673 2855 436 
Q 2684 200 2377 63 
Q 2071 -73 1664 -73 
Q 1130 -73 780 159 
Q 430 391 336 836 
L 846 964 
Q 989 400 1655 400 
Q 2030 400 2251 560 
Q 2473 720 2473 945 
Q 2473 1316 1955 1436 
L 1373 1573 
Q 893 1686 669 1926 
Q 446 2166 446 2527 
Q 446 2823 613 3050 
Q 780 3277 1069 3406 
Q 1359 3536 1727 3536 
Q 2246 3536 2542 3309 
Q 2839 3082 2964 2709 
z
" id="Inter-Regular-73" transform="scale(0.015625)"/>
       <path d="M 1809 -73 
Q 1373 -73 1039 148 
Q 705 370 516 776 
Q 327 1182 327 1736 
Q 327 2286 516 2690 
Q 705 3095 1041 3315 
Q 1377 3536 1818 3536 
Q 2159 3536 2358 3423 
Q 2557 3311 2662 3169 
Q 2768 3027 2827 2936 
L 2873 2936 
L 2873 4655 
L 3409 4655 
L 3409 0 
L 2891 0 
L 2891 536 
L 2827 536 
Q 2768 441 2659 296 
Q 2550 152 2348 39 
Q 2146 -73 1809 -73 
z
M 1882 409 
Q 2366 409 2624 780 
Q 2882 1152 2882 1745 
Q 2882 2332 2627 2693 
Q 2373 3055 1882 3055 
Q 1541 3055 1315 2881 
Q 1089 2707 976 2410 
Q 864 2114 864 1745 
Q 864 1373 978 1069 
Q 1093 766 1319 587 
Q 1546 409 1882 409 
z
" id="Inter-Regular-64" transform="scale(0.015625)"/>
      </defs>
      <use xlink:href="#Inter-Regular-50"/>
      <use x="63.494324" xlink:href="#Inter-Regular-65"/>
      <use x="121.732971" xlink:href="#Inter-Regular-72"/>
      <use x="160.085251" xlink:href="#Inter-Regular-63"/>
      <use x="215.909119" xlink:href="#Inter-Regular-65"/>
      <use x="274.147766" xlink:href="#Inter-Regular-6e"/>
      <use x="332.670502" xlink:href="#Inter-Regular-74"/>
      <use x="369.034149" xlink:href="#Inter-Regular-20"/>
      <use x="397.159149" xlink:href="#Inter-Regular-6f"/>
      <use x="456.818253" xlink:href="#Inter-Regular-66"/>
      <use x="492.897797" xlink:href="#Inter-Regular-20"/>
      <use x="521.022797" xlink:href="#Inter-Regular-6e"/>
      <use x="579.545532" xlink:href="#Inter-Regular-61"/>
      <use x="635.937592" xlink:href="#Inter-Regular-74"/>
      <use x="672.301239" xlink:href="#Inter-Regular-69"/>
      <use x="696.022827" xlink:href="#Inter-Regular-6f"/>
      <use x="755.681931" xlink:href="#Inter-Regular-6e"/>
      <use x="814.204666" xlink:href="#Inter-Regular-20"/>
      <use x="842.329666" xlink:href="#Inter-Regular-74"/>
      <use x="878.693314" xlink:href="#Inter-Regular-65"/>
      <use x="936.931961" xlink:href="#Inter-Regular-73"/>
      <use x="989.204697" xlink:href="#Inter-Regular-74"/>
      <use x="1025.568344" xlink:href="#Inter-Regular-65"/>
      <use x="1083.806992" xlink:href="#Inter-Regular-64"/>
      <use x="1145.880875" xlink:href="#Inter-Regular-20"/>
      <use x="1174.005875" xlink:href="#Inter-Regular-70"/>
      <use x="1234.94339" xlink:href="#Inter-Regular-6f"/>
      <use x="1294.602493" xlink:href="#Inter-Regular-73"/>
      <use x="1346.875229" xlink:href="#Inter-Regular-69"/>
      <use x="1370.596817" xlink:href="#Inter-Regular-74"/>
      <use x="1406.960464" xlink:href="#Inter-Regular-69"/>
      <use x="1430.682053" xlink:href="#Inter-Regular-76"/>
      <use x="1486.363876" xlink:href="#Inter-Regular-65"/>
     </g>
    </g>
   </g>
   <g id="line2d_28">
    <path clip-path="url(#p451fedd9e0)" d="M 12.951699 476.74483 
L 66.189522 476.648653 
L 76.57739 476.259782 
L 81.771324 475.806595 
L 85.666775 475.221462 
L 90.860709 474.289089 
L 101.248577 471.618479 
L 105.144027 470.605477 
L 110.337961 469.503605 
L 116.830379 467.787033 
L 119.427346 467.136819 
L 123.322796 465.972669 
L 128.51673 464.728996 
L 132.412181 463.614549 
L 138.904598 462.373085 
L 141.501565 461.878436 
L 144.098532 461.556005 
L 149.292466 460.615391 
L 160.978818 459.088114 
L 167.471235 458.476218 
L 176.56062 457.762537 
L 189.545455 457.004167 
L 201.231806 456.382075 
L 212.918158 455.928633 
L 244.081762 454.729649 
L 273.946882 453.044683 
L 292.125651 451.689115 
L 310.30442 448.525385 
L 315.498354 447.154948 
L 319.393805 445.907706 
L 325.886222 443.368362 
L 328.483189 441.898775 
L 331.080156 440.044904 
L 332.37864 439.061384 
L 334.975607 437.401567 
L 338.871057 433.704191 
L 340.169541 432.407331 
L 341.468024 431.302145 
L 344.064991 429.619728 
L 349.258925 424.241464 
L 350.557409 423.005267 
L 353.154376 420.948677 
L 357.049826 415.432095 
L 359.646793 412.227839 
L 362.24376 409.960458 
L 364.840727 406.286447 
L 368.736178 401.202492 
L 371.333145 398.84811 
L 372.631628 396.475376 
L 375.228595 392.821841 
L 377.825562 389.278756 
L 380.422529 386.34077 
L 381.721013 383.953933 
L 385.616463 377.91594 
L 386.914947 376.076682 
L 389.511914 373.506837 
L 390.810397 371.490859 
L 393.407364 368.216849 
L 396.004331 365.653036 
L 398.601298 363.898571 
L 399.899782 362.521337 
L 402.496749 360.14563 
L 405.093716 358.060662 
L 407.690683 356.522001 
L 410.28765 354.096166 
L 414.1831 350.793439 
L 416.780067 349.008047 
L 421.974001 343.054081 
L 423.272485 341.365801 
L 424.570968 340.003776 
L 425.869452 338.463415 
L 432.361869 325.706032 
L 433.660353 323.859638 
L 434.958836 321.400838 
L 437.555803 314.307532 
L 438.854287 311.111687 
L 440.15277 308.673023 
L 441.451254 307.596214 
L 442.749737 304.4776 
L 445.346704 297.470614 
L 446.645188 291.310615 
L 447.943671 285.967611 
L 449.242155 282.000905 
L 450.540638 279.602853 
L 453.137605 270.794334 
L 454.436088 264.922696 
L 455.734572 259.992182 
L 458.331539 251.652143 
L 459.630022 248.055702 
L 462.226989 242.252883 
L 463.525473 237.835114 
L 466.12244 230.543337 
L 468.719407 224.145019 
L 471.316374 219.568712 
L 472.614857 216.109314 
L 473.913341 213.052892 
L 476.510308 207.912266 
L 477.808791 205.626109 
L 479.107275 203.93766 
L 480.405758 202.624657 
L 481.704242 200.321338 
L 484.301209 196.271624 
L 486.898176 192.744427 
L 489.495143 190.305678 
L 490.793626 188.596838 
L 494.689077 184.24534 
L 495.98756 183.058336 
L 498.584527 181.296479 
L 501.181494 179.080585 
L 503.778461 177.121022 
L 505.076945 176.223738 
L 507.673912 174.925859 
L 510.270879 172.947434 
L 514.166329 170.499849 
L 516.763296 169.336805 
L 518.06178 168.499504 
L 520.658747 167.188201 
L 523.255714 166.145377 
L 525.852681 165.460924 
L 529.748131 164.044437 
L 533.643582 162.936108 
L 534.942065 162.635258 
L 538.837516 161.293963 
L 542.732966 160.210442 
L 544.03145 159.905939 
L 547.9269 158.6293 
L 550.523867 157.893699 
L 553.120834 157.223859 
L 557.016285 155.984518 
L 559.613252 155.299045 
L 562.210219 154.701337 
L 567.404153 153.668454 
L 593.373823 150.159269 
L 603.761691 148.970056 
L 611.552592 148.161473 
L 623.238943 146.870391 
L 627.134394 146.443457 
L 633.626811 145.631475 
L 636.223778 145.252799 
L 645.313163 143.593492 
L 649.208613 142.384992 
L 654.402547 140.70266 
L 663.491932 136.807493 
L 668.685866 133.772735 
L 671.282833 132.502978 
L 673.8798 130.327442 
L 680.372217 124.225896 
L 686.864635 114.520094 
L 689.461602 110.997824 
L 692.058569 105.864846 
L 693.357052 103.019639 
L 695.954019 98.119031 
L 698.550986 93.71902 
L 701.147953 86.763946 
L 702.446437 82.584071 
L 703.74492 77.803515 
L 705.043404 73.551337 
L 707.640371 67.859649 
L 708.938854 64.265162 
L 710.237338 61.288519 
L 711.535821 58.664383 
L 712.834305 56.370579 
L 714.132788 54.345 
L 714.132788 54.345 
" style="fill:none;stroke:#5694ca;stroke-linecap:square;stroke-width:2;"/>
   </g>
   <g id="line2d_29">
    <path clip-path="url(#p451fedd9e0)" d="M 12.951699 476.745 
L 67.488006 476.656611 
L 81.771324 476.247498 
L 84.368291 476.002535 
L 92.159192 474.800448 
L 97.353126 473.805443 
L 98.65161 473.65392 
L 106.442511 472.148786 
L 109.039478 471.696741 
L 111.636445 471.120951 
L 115.531895 470.168878 
L 116.830379 470.065337 
L 122.024313 469.027401 
L 124.62128 468.688998 
L 127.218247 468.398578 
L 129.815214 467.981888 
L 133.710664 467.221745 
L 137.606115 466.721718 
L 149.292466 465.014552 
L 151.889433 464.749386 
L 154.4864 464.504423 
L 158.381851 463.994294 
L 172.665169 463.173541 
L 180.45607 462.976561 
L 197.336356 462.628057 
L 228.49996 462.355314 
L 237.589344 462.186113 
L 255.768113 461.802253 
L 267.454465 461.079991 
L 270.051432 460.880485 
L 272.648399 460.698657 
L 276.543849 460.307221 
L 279.140816 459.999123 
L 284.33475 459.413232 
L 288.230201 458.900578 
L 290.827168 458.678343 
L 293.424135 458.289433 
L 299.916552 457.036838 
L 302.513519 456.647928 
L 307.707453 455.776667 
L 311.602904 454.880153 
L 315.498354 453.632609 
L 318.095321 452.986109 
L 319.393805 452.556792 
L 320.692288 452.003731 
L 323.289255 450.680425 
L 327.184706 448.58435 
L 328.483189 447.612074 
L 329.781673 445.993297 
L 331.080156 444.778583 
L 332.37864 443.023436 
L 334.975607 439.922254 
L 336.27409 438.131751 
L 337.572574 436.108911 
L 340.169541 431.055601 
L 344.064991 424.845662 
L 349.258925 413.872832 
L 350.557409 411.428252 
L 353.154376 407.306812 
L 355.751343 402.011064 
L 358.34831 396.490556 
L 359.646793 394.273262 
L 362.24376 390.707408 
L 364.840727 386.396563 
L 367.437694 382.744845 
L 368.736178 381.012426 
L 371.333145 378.547643 
L 373.930112 375.150991 
L 376.527079 372.254366 
L 379.124046 369.872921 
L 380.422529 368.812256 
L 384.31798 363.900368 
L 385.616463 362.513927 
L 388.21343 360.261277 
L 389.511914 359.319306 
L 392.108881 356.410054 
L 393.407364 355.301407 
L 397.302815 352.740659 
L 398.601298 352.048701 
L 403.795232 348.354052 
L 406.392199 346.651938 
L 407.690683 346.007963 
L 408.989166 344.73264 
L 411.586133 342.687072 
L 412.884617 341.437003 
L 415.481584 339.351028 
L 416.780067 338.421684 
L 421.974001 333.646167 
L 423.272485 332.335488 
L 425.869452 330.41619 
L 433.660353 321.996532 
L 434.958836 320.771717 
L 437.555803 317.137677 
L 438.854287 315.109787 
L 440.15277 313.536468 
L 441.451254 312.677834 
L 442.749737 310.867128 
L 444.048221 308.119501 
L 445.346704 304.626883 
L 447.943671 293.202008 
L 449.242155 288.863384 
L 450.540638 285.716745 
L 451.839122 280.855365 
L 453.137605 276.751603 
L 454.436088 271.695767 
L 457.033055 263.776137 
L 459.630022 257.55357 
L 460.928506 255.030703 
L 462.226989 252.810883 
L 463.525473 249.626363 
L 466.12244 244.146262 
L 468.719407 239.709147 
L 470.01789 237.966627 
L 471.316374 236.426137 
L 473.913341 231.961244 
L 476.510308 228.099919 
L 477.808791 226.56448 
L 480.405758 224.253746 
L 484.301209 219.546415 
L 486.898176 216.920007 
L 489.495143 214.932523 
L 490.793626 213.634471 
L 495.98756 209.230187 
L 501.181494 205.96738 
L 502.479978 205.09612 
L 505.076945 203.656646 
L 506.375428 203.169245 
L 507.673912 202.540423 
L 508.972395 201.585824 
L 514.166329 198.492219 
L 520.658747 195.41124 
L 521.95723 194.787468 
L 524.554197 193.93136 
L 525.852681 193.615686 
L 531.046615 191.734269 
L 534.942065 190.570063 
L 537.539032 189.516974 
L 541.434483 188.067399 
L 545.329933 186.978955 
L 549.225384 185.723835 
L 555.717801 183.961111 
L 559.613252 182.728719 
L 567.404153 181.001351 
L 570.00112 180.657898 
L 572.598087 180.405358 
L 575.195054 179.892704 
L 579.090504 179.00124 
L 582.985955 178.233521 
L 584.284438 177.809255 
L 588.179889 177.026383 
L 589.478372 176.831928 
L 593.373823 175.879855 
L 601.164724 174.559075 
L 605.060174 173.84944 
L 608.955625 173.283752 
L 611.552592 172.78625 
L 616.746526 171.935192 
L 621.94046 170.899782 
L 625.83591 170.40733 
L 629.731361 169.619408 
L 633.626811 169.030991 
L 637.522262 168.525913 
L 644.014679 167.674856 
L 647.91013 167.121795 
L 651.80558 166.492972 
L 654.402547 166.146993 
L 663.491932 164.338812 
L 669.984349 162.358905 
L 671.282833 162.025553 
L 675.178283 160.495165 
L 677.77525 159.247621 
L 681.670701 157.27529 
L 690.760085 149.939025 
L 692.058569 148.562686 
L 695.954019 143.827575 
L 699.84947 140.039487 
L 701.147953 137.814616 
L 702.446437 134.938194 
L 706.341887 125.058859 
L 707.640371 122.500637 
L 710.237338 114.384026 
L 712.834305 106.903814 
L 714.132788 103.512212 
L 714.132788 103.512212 
" style="fill:none;stroke:#ffdd00;stroke-linecap:square;stroke-width:2;"/>
   </g>
   <g id="line2d_30">
    <path clip-path="url(#p451fedd9e0)" d="M 12.951699 476.745 
L 66.189522 476.664469 
L 80.472841 476.229424 
L 84.368291 475.799631 
L 90.860709 474.738718 
L 105.144027 471.519212 
L 107.740994 471.167325 
L 115.531895 469.309851 
L 116.830379 469.170672 
L 123.322796 467.676464 
L 125.919763 467.365718 
L 129.815214 466.273292 
L 133.710664 465.455723 
L 135.009148 465.283281 
L 140.203082 464.210988 
L 142.800049 463.828464 
L 145.397016 463.463446 
L 149.292466 462.903228 
L 157.083367 462.210833 
L 160.978818 461.990247 
L 163.575785 461.859821 
L 164.874268 461.441408 
L 171.366686 461.254085 
L 186.948488 460.955593 
L 207.724224 460.75514 
L 257.066597 460.188794 
L 268.752948 459.810647 
L 273.946882 459.636454 
L 290.827168 458.582543 
L 297.319585 457.797362 
L 303.812003 457.044568 
L 315.498354 455.285132 
L 316.796838 455.0094 
L 319.393805 454.180452 
L 320.692288 453.684133 
L 323.289255 452.553192 
L 327.184706 451.314584 
L 329.781673 450.042713 
L 334.975607 447.388678 
L 337.572574 445.385898 
L 340.169541 443.265821 
L 342.766508 441.486252 
L 344.064991 440.64855 
L 350.557409 434.869547 
L 353.154376 433.393722 
L 354.452859 432.208509 
L 357.049826 429.349645 
L 358.34831 428.044511 
L 359.646793 426.924074 
L 362.24376 425.274056 
L 366.139211 421.851471 
L 368.736178 419.9371 
L 370.034661 419.288472 
L 371.333145 418.438515 
L 373.930112 415.933288 
L 376.527079 413.664404 
L 377.825562 412.674393 
L 380.422529 411.177559 
L 385.616463 406.781595 
L 388.21343 405.067677 
L 389.511914 404.3569 
L 392.108881 402.170297 
L 394.705848 400.339958 
L 397.302815 398.921905 
L 398.601298 398.303914 
L 399.899782 397.294646 
L 402.496749 395.613991 
L 405.093716 394.271217 
L 407.690683 393.285583 
L 411.586133 390.796987 
L 412.884617 390.094088 
L 416.780067 388.386297 
L 423.272485 384.23718 
L 425.869452 383.013452 
L 429.764902 380.261379 
L 432.361869 378.658629 
L 434.958836 377.293972 
L 438.854287 373.839876 
L 440.15277 372.950529 
L 441.451254 372.498853 
L 442.749737 371.579744 
L 445.346704 368.52918 
L 447.943671 363.193099 
L 449.242155 361.115039 
L 450.540638 360.100518 
L 454.436088 354.114059 
L 455.734572 351.445143 
L 457.033055 349.214774 
L 458.331539 347.291649 
L 459.630022 345.696777 
L 462.226989 343.14078 
L 464.823956 339.583393 
L 467.420923 336.667631 
L 468.719407 335.323983 
L 471.316374 333.245922 
L 473.913341 330.372177 
L 475.211824 328.997891 
L 477.808791 326.836673 
L 480.405758 325.267186 
L 483.002725 323.082334 
L 486.898176 320.292622 
L 489.495143 318.90258 
L 492.09211 317.025848 
L 495.98756 314.606404 
L 498.584527 313.422943 
L 499.883011 312.55548 
L 502.479978 311.152308 
L 505.076945 309.625712 
L 506.375428 309.151277 
L 507.673912 308.55517 
L 510.270879 306.91303 
L 515.464813 304.064669 
L 516.763296 303.532461 
L 519.360263 302.236956 
L 521.95723 301.075378 
L 524.554197 300.263062 
L 527.151164 299.411355 
L 533.643582 297.208996 
L 534.942065 296.829098 
L 538.837516 295.198337 
L 541.434483 294.107662 
L 544.03145 293.313727 
L 546.628417 292.209922 
L 550.523867 290.730595 
L 553.120834 289.924405 
L 555.717801 288.800467 
L 559.613252 287.410425 
L 566.105669 285.620352 
L 568.702636 284.949841 
L 582.985955 282.347451 
L 585.582922 281.988561 
L 586.881405 281.654181 
L 593.373823 280.671172 
L 597.269273 280.173103 
L 599.86624 279.906999 
L 606.358658 279.153331 
L 610.254108 278.734042 
L 619.343493 277.289729 
L 628.432877 275.416499 
L 632.328328 274.410731 
L 634.925295 273.872397 
L 637.522262 272.998806 
L 640.119229 271.967654 
L 642.716196 271.106318 
L 645.313163 270.154822 
L 646.611646 269.478183 
L 650.507097 267.089377 
L 653.104064 265.965438 
L 655.701031 264.233138 
L 658.297998 262.398423 
L 659.596481 261.641252 
L 660.894965 261.023261 
L 662.193448 260.274845 
L 664.790415 258.169649 
L 668.685866 254.965024 
L 669.984349 254.092309 
L 671.282833 252.737281 
L 676.476767 242.146526 
L 677.77525 239.854007 
L 680.372217 235.651494 
L 684.267668 225.40825 
L 685.566151 222.406704 
L 686.864635 219.713279 
L 689.461602 215.411852 
L 692.058569 209.751019 
L 694.655536 204.828975 
L 695.954019 202.745663 
L 698.550986 199.513903 
L 701.147953 195.119689 
L 702.446437 193.186936 
L 703.74492 191.469516 
L 705.043404 189.940295 
L 707.640371 187.502469 
L 708.938854 185.832318 
L 711.535821 183.056611 
L 714.132788 180.733455 
L 714.132788 180.733455 
" style="fill:none;stroke:#003078;stroke-linecap:square;stroke-width:2;"/>
   </g>
   <g id="line2d_31">
    <path clip-path="url(#p451fedd9e0)" d="M 12.951699 476.745 
L 67.488006 476.653993 
L 76.57739 476.276312 
L 81.771324 475.734819 
L 84.368291 475.232761 
L 89.562225 474.177076 
L 92.159192 473.236667 
L 97.353126 471.302761 
L 98.65161 470.964517 
L 105.144027 468.15239 
L 109.039478 466.989013 
L 111.636445 465.96063 
L 114.233412 464.918596 
L 122.024313 462.761722 
L 123.322796 462.438646 
L 128.51673 461.555875 
L 135.009148 460.287839 
L 138.904598 459.552197 
L 141.501565 459.110811 
L 149.292466 457.81244 
L 153.187917 457.110166 
L 160.978818 455.687418 
L 164.874268 455.249066 
L 168.769719 454.754593 
L 179.157587 454.002266 
L 183.053037 453.744412 
L 194.739389 452.825237 
L 196.037872 452.612887 
L 199.933323 452.326214 
L 201.231806 452.127515 
L 205.127257 451.951567 
L 206.42574 451.739217 
L 227.201476 451.168904 
L 284.33475 449.559591 
L 293.424135 448.971077 
L 299.916552 447.921459 
L 306.40897 446.750498 
L 311.602904 445.649309 
L 318.095321 443.59861 
L 324.587739 440.775866 
L 325.886222 440.295044 
L 328.483189 438.942068 
L 336.27409 433.384553 
L 338.871057 430.924321 
L 341.468024 428.483808 
L 344.064991 426.595405 
L 345.363475 425.409276 
L 347.960442 422.594116 
L 349.258925 421.394336 
L 350.557409 419.950353 
L 353.154376 417.790445 
L 354.452859 416.105293 
L 357.049826 412.30877 
L 358.34831 410.707041 
L 359.646793 408.891444 
L 362.24376 405.910954 
L 364.840727 401.309016 
L 366.139211 399.250733 
L 367.437694 396.849656 
L 368.736178 394.967321 
L 371.333145 392.196148 
L 372.631628 390.057475 
L 373.930112 388.185758 
L 376.527079 384.983816 
L 377.825562 383.653592 
L 379.124046 382.735935 
L 380.422529 381.680249 
L 383.019496 378.686108 
L 386.914947 374.915371 
L 389.511914 373.010284 
L 396.004331 365.61442 
L 398.601298 363.495466 
L 401.198265 360.273806 
L 402.496749 358.245859 
L 403.795232 356.487901 
L 405.093716 354.918024 
L 406.392199 353.637854 
L 407.690683 352.172636 
L 410.28765 347.446322 
L 411.586133 344.952721 
L 414.1831 339.637892 
L 415.481584 337.312654 
L 416.780067 334.738664 
L 419.377034 326.983321 
L 423.272485 314.594189 
L 424.570968 311.128326 
L 425.869452 306.982942 
L 427.167935 301.615025 
L 429.764902 292.025885 
L 432.361869 283.967185 
L 434.958836 277.326683 
L 437.555803 269.0617 
L 438.854287 265.356184 
L 440.15277 263.121954 
L 441.451254 262.146659 
L 442.749737 259.275377 
L 445.346704 251.915917 
L 446.645188 246.511598 
L 447.943671 242.417784 
L 449.242155 239.369038 
L 450.540638 237.532207 
L 451.839122 234.366668 
L 453.137605 231.622797 
L 454.436088 227.591172 
L 455.734572 223.976664 
L 457.033055 220.958254 
L 459.630022 216.015038 
L 462.226989 212.496088 
L 464.823956 207.43608 
L 466.12244 205.217017 
L 468.719407 201.390159 
L 470.01789 199.865786 
L 471.316374 198.614435 
L 472.614857 196.495481 
L 475.211824 193.38303 
L 476.510308 192.004268 
L 477.808791 190.833307 
L 479.107275 190.012724 
L 480.405758 189.412076 
L 481.704242 188.128873 
L 484.301209 185.95228 
L 486.898176 184.047193 
L 489.495143 182.612311 
L 493.390593 179.891191 
L 495.98756 178.371369 
L 499.883011 176.649813 
L 502.479978 175.263468 
L 506.375428 173.646571 
L 507.673912 173.208219 
L 510.270879 171.850693 
L 512.867846 170.764672 
L 515.464813 169.889485 
L 518.06178 168.96576 
L 520.658747 168.128493 
L 523.255714 167.480824 
L 525.852681 166.956015 
L 529.748131 165.90943 
L 532.345098 165.40889 
L 537.539032 164.2895 
L 549.225384 161.612367 
L 559.613252 159.534366 
L 563.508702 159.059611 
L 567.404153 158.54542 
L 573.89657 157.978141 
L 577.792021 157.573158 
L 582.985955 157.154524 
L 588.179889 156.778361 
L 606.358658 155.707508 
L 611.552592 155.472405 
L 615.448042 155.267639 
L 619.343493 155.059839 
L 623.238943 154.844455 
L 631.029844 154.488009 
L 637.522262 154.187685 
L 645.313163 153.814555 
L 651.80558 153.256377 
L 654.402547 152.993972 
L 663.491932 151.672849 
L 671.282833 149.911857 
L 675.178283 148.246423 
L 677.77525 147.049676 
L 679.073734 146.667445 
L 680.372217 146.115334 
L 686.864635 141.439074 
L 689.461602 139.844928 
L 695.954019 134.056861 
L 698.550986 131.980377 
L 699.84947 130.592515 
L 702.446437 127.097834 
L 703.74492 125.400547 
L 705.043404 123.95353 
L 707.640371 122.045409 
L 710.237338 119.421364 
L 712.834305 116.958099 
L 714.132788 116.958099 
L 714.132788 116.958099 
" style="fill:none;stroke:#d4351c;stroke-linecap:square;stroke-width:2;"/>
   </g>
   <g id="patch_3">
    <path d="M 53.204688 476.745 
L 722.804688 476.745 
" style="fill:none;stroke:#000000;stroke-linecap:square;stroke-linejoin:miter;stroke-width:0.8;"/>
   </g>
   <g id="text_16">
    <!-- Cumulative COVID-19 cases in UK Nations, per capita -->
    <g transform="translate(231.415 27.225)scale(0.12 -0.12)">
     <defs>
      <path d="M 4511 3025 
L 3516 3025 
Q 3459 3409 3188 3628 
Q 2918 3848 2514 3848 
Q 1973 3848 1647 3451 
Q 1321 3055 1321 2327 
Q 1321 1582 1649 1194 
Q 1977 807 2507 807 
Q 2900 807 3173 1012 
Q 3446 1218 3516 1591 
L 4511 1586 
Q 4459 1159 4207 782 
Q 3955 405 3522 170 
Q 3089 -64 2491 -64 
Q 1868 -64 1378 218 
Q 889 500 606 1034 
Q 323 1568 323 2327 
Q 323 3089 609 3623 
Q 896 4157 1386 4437 
Q 1877 4718 2491 4718 
Q 3030 4718 3463 4519 
Q 3896 4320 4172 3942 
Q 4448 3564 4511 3025 
z
" id="Inter-Bold-43" transform="scale(0.015625)"/>
      <path d="M 2625 1486 
L 2625 3491 
L 3593 3491 
L 3593 0 
L 2664 0 
L 2664 634 
L 2627 634 
Q 2509 327 2235 141 
Q 1961 -45 1568 -45 
Q 1041 -45 715 306 
Q 389 657 386 1268 
L 386 3491 
L 1355 3491 
L 1355 1441 
Q 1357 1132 1520 952 
Q 1684 773 1959 773 
Q 2221 773 2424 954 
Q 2627 1136 2625 1486 
z
" id="Inter-Bold-75" transform="scale(0.015625)"/>
      <path d="M 386 0 
L 386 3491 
L 1309 3491 
L 1309 2875 
L 1350 2875 
Q 1459 3184 1715 3360 
Q 1971 3536 2323 3536 
Q 2682 3536 2934 3358 
Q 3186 3180 3271 2875 
L 3307 2875 
Q 3414 3175 3694 3355 
Q 3975 3536 4359 3536 
Q 4848 3536 5153 3226 
Q 5459 2916 5459 2348 
L 5459 0 
L 4493 0 
L 4493 2157 
Q 4493 2448 4338 2593 
Q 4184 2739 3952 2739 
Q 3689 2739 3541 2570 
Q 3393 2402 3393 2132 
L 3393 0 
L 2455 0 
L 2455 2177 
Q 2455 2434 2308 2586 
Q 2161 2739 1923 2739 
Q 1682 2739 1518 2562 
Q 1355 2386 1355 2095 
L 1355 0 
L 386 0 
z
" id="Inter-Bold-6d" transform="scale(0.015625)"/>
      <path d="M 1355 4655 
L 1355 0 
L 386 0 
L 386 4655 
L 1355 4655 
z
" id="Inter-Bold-6c" transform="scale(0.015625)"/>
      <path d="M 1382 -66 
Q 882 -66 552 195 
Q 223 457 223 975 
Q 223 1366 407 1588 
Q 591 1811 890 1914 
Q 1189 2018 1534 2050 
Q 1989 2095 2184 2145 
Q 2380 2195 2380 2364 
L 2380 2377 
Q 2380 2593 2244 2711 
Q 2109 2830 1861 2830 
Q 1600 2830 1445 2716 
Q 1291 2602 1241 2427 
L 346 2500 
Q 446 2977 842 3256 
Q 1239 3536 1866 3536 
Q 2255 3536 2593 3413 
Q 2932 3291 3140 3030 
Q 3348 2770 3348 2355 
L 3348 0 
L 2430 0 
L 2430 484 
L 2402 484 
Q 2275 241 2021 87 
Q 1768 -66 1382 -66 
z
M 1659 602 
Q 1977 602 2181 787 
Q 2386 973 2386 1248 
L 2386 1618 
Q 2330 1580 2210 1550 
Q 2091 1520 1956 1498 
Q 1821 1477 1714 1461 
Q 1459 1425 1303 1318 
Q 1148 1211 1148 1007 
Q 1148 807 1292 704 
Q 1436 602 1659 602 
z
" id="Inter-Bold-61" transform="scale(0.015625)"/>
      <path d="M 2243 3491 
L 2243 2764 
L 1586 2764 
L 1586 1073 
Q 1586 873 1677 802 
Q 1768 732 1914 732 
Q 1982 732 2050 744 
Q 2118 757 2155 764 
L 2307 43 
Q 2234 20 2102 -10 
Q 1971 -41 1782 -48 
Q 1255 -70 935 181 
Q 616 432 618 945 
L 618 2764 
L 141 2764 
L 141 3491 
L 618 3491 
L 618 4327 
L 1586 4327 
L 1586 3491 
L 2243 3491 
z
" id="Inter-Bold-74" transform="scale(0.015625)"/>
      <path d="M 386 0 
L 386 3491 
L 1355 3491 
L 1355 0 
L 386 0 
z
M 876 3941 
Q 662 3941 507 4085 
Q 353 4230 353 4432 
Q 353 4634 507 4777 
Q 662 4920 876 4920 
Q 1092 4920 1246 4777 
Q 1401 4634 1401 4432 
Q 1401 4230 1246 4085 
Q 1092 3941 876 3941 
z
" id="Inter-Bold-69" transform="scale(0.015625)"/>
      <path d="M 3641 3491 
L 2421 0 
L 1330 0 
L 109 3491 
L 1132 3491 
L 1857 993 
L 1893 993 
L 2616 3491 
L 3641 3491 
z
" id="Inter-Bold-76" transform="scale(0.015625)"/>
      <path d="M 1977 -68 
Q 1441 -68 1052 151 
Q 664 370 455 773 
Q 246 1177 246 1730 
Q 246 2268 455 2675 
Q 664 3082 1044 3309 
Q 1425 3536 1939 3536 
Q 2400 3536 2771 3340 
Q 3143 3145 3361 2751 
Q 3580 2357 3580 1764 
L 3580 1498 
L 1202 1498 
L 1202 1495 
Q 1202 1105 1416 880 
Q 1630 655 1993 655 
Q 2236 655 2413 757 
Q 2591 859 2664 1059 
L 3559 1000 
Q 3457 514 3041 223 
Q 2625 -68 1977 -68 
z
M 1202 2098 
L 2668 2098 
Q 2666 2409 2468 2611 
Q 2271 2814 1955 2814 
Q 1632 2814 1425 2604 
Q 1218 2395 1202 2098 
z
" id="Inter-Bold-65" transform="scale(0.015625)"/>
      <path id="Inter-Bold-20" transform="scale(0.015625)"/>
      <path d="M 4682 2327 
Q 4682 1566 4394 1032 
Q 4107 498 3614 217 
Q 3121 -64 2502 -64 
Q 1882 -64 1389 218 
Q 896 500 609 1035 
Q 323 1570 323 2327 
Q 323 3089 609 3623 
Q 896 4157 1389 4437 
Q 1882 4718 2502 4718 
Q 3121 4718 3614 4437 
Q 4107 4157 4394 3623 
Q 4682 3089 4682 2327 
z
M 3684 2327 
Q 3684 3068 3361 3458 
Q 3039 3848 2502 3848 
Q 1966 3848 1643 3458 
Q 1321 3068 1321 2327 
Q 1321 1589 1643 1198 
Q 1966 807 2502 807 
Q 3039 807 3361 1198 
Q 3684 1589 3684 2327 
z
" id="Inter-Bold-4f" transform="scale(0.015625)"/>
      <path d="M 1246 4655 
L 2371 1118 
L 2414 1118 
L 3541 4655 
L 4632 4655 
L 3027 0 
L 1759 0 
L 152 4655 
L 1246 4655 
z
" id="Inter-Bold-56" transform="scale(0.015625)"/>
      <path d="M 1389 4655 
L 1389 0 
L 405 0 
L 405 4655 
L 1389 4655 
z
" id="Inter-Bold-49" transform="scale(0.015625)"/>
      <path d="M 2055 0 
L 405 0 
L 405 4655 
L 2068 4655 
Q 2771 4655 3278 4376 
Q 3786 4098 4059 3577 
Q 4332 3057 4332 2332 
Q 4332 1605 4058 1082 
Q 3784 559 3274 279 
Q 2764 0 2055 0 
z
M 1389 843 
L 2014 843 
Q 2671 843 3010 1197 
Q 3350 1552 3350 2332 
Q 3350 3107 3010 3459 
Q 2671 3811 2016 3811 
L 1389 3811 
L 1389 843 
z
" id="Inter-Bold-44" transform="scale(0.015625)"/>
      <path d="M 2561 2295 
L 2561 1527 
L 439 1527 
L 439 2295 
L 2561 2295 
z
" id="Inter-Bold-2d" transform="scale(0.015625)"/>
      <path d="M 2305 4655 
L 2305 0 
L 1323 0 
L 1323 3450 
L 1280 3450 
Q 1205 3334 961 3219 
Q 718 3105 332 3105 
L 332 3886 
Q 632 3886 857 4019 
Q 1082 4152 1209 4333 
Q 1336 4514 1341 4655 
L 2305 4655 
z
" id="Inter-Bold-31" transform="scale(0.015625)"/>
      <path d="M 2061 4732 
Q 2421 4732 2753 4612 
Q 3086 4493 3348 4227 
Q 3611 3961 3766 3523 
Q 3921 3086 3921 2448 
Q 3921 1659 3686 1096 
Q 3452 534 3028 235 
Q 2605 -64 2027 -64 
Q 1561 -64 1204 117 
Q 848 298 631 610 
Q 414 923 368 1314 
L 1339 1314 
Q 1396 1059 1577 919 
Q 1759 780 2027 780 
Q 2482 780 2718 1176 
Q 2955 1573 2957 2264 
L 2925 2264 
Q 2771 1957 2453 1782 
Q 2136 1607 1752 1607 
Q 1341 1607 1016 1801 
Q 691 1995 506 2334 
Q 321 2673 323 3109 
Q 321 3582 539 3949 
Q 757 4316 1149 4525 
Q 1541 4734 2061 4732 
z
M 2068 3959 
Q 1725 3959 1500 3722 
Q 1275 3486 1277 3136 
Q 1275 2791 1496 2555 
Q 1718 2320 2059 2320 
Q 2284 2320 2465 2431 
Q 2646 2543 2751 2729 
Q 2857 2916 2859 3141 
Q 2857 3366 2753 3551 
Q 2650 3736 2473 3847 
Q 2296 3959 2068 3959 
z
" id="Inter-Bold-39" transform="scale(0.015625)"/>
      <path d="M 1964 -68 
Q 1427 -68 1042 160 
Q 657 389 451 795 
Q 246 1202 246 1732 
Q 246 2268 453 2674 
Q 661 3080 1045 3308 
Q 1430 3536 1959 3536 
Q 2416 3536 2760 3370 
Q 3105 3205 3303 2905 
Q 3502 2605 3523 2200 
L 2609 2200 
Q 2571 2461 2406 2621 
Q 2241 2782 1975 2782 
Q 1639 2782 1434 2511 
Q 1230 2241 1230 1745 
Q 1230 1245 1433 971 
Q 1636 698 1975 698 
Q 2225 698 2395 849 
Q 2566 1000 2609 1280 
L 3523 1280 
Q 3500 880 3305 575 
Q 3111 270 2770 101 
Q 2430 -68 1964 -68 
z
" id="Inter-Bold-63" transform="scale(0.015625)"/>
      <path d="M 3291 2495 
L 2405 2441 
Q 2368 2609 2220 2729 
Q 2073 2850 1821 2850 
Q 1596 2850 1440 2755 
Q 1284 2661 1286 2505 
Q 1284 2380 1385 2293 
Q 1486 2207 1730 2155 
L 2361 2027 
Q 3368 1820 3371 1082 
Q 3371 739 3169 479 
Q 2968 220 2618 76 
Q 2268 -68 1816 -68 
Q 1123 -68 711 221 
Q 300 511 232 1011 
L 1184 1061 
Q 1230 848 1394 739 
Q 1559 630 1818 630 
Q 2073 630 2228 730 
Q 2384 830 2386 984 
Q 2380 1243 1939 1332 
L 1334 1452 
Q 321 1655 325 2450 
Q 323 2955 728 3245 
Q 1134 3536 1805 3536 
Q 2466 3536 2846 3256 
Q 3227 2977 3291 2495 
z
" id="Inter-Bold-73" transform="scale(0.015625)"/>
      <path d="M 1355 2018 
L 1355 0 
L 386 0 
L 386 3491 
L 1309 3491 
L 1309 2875 
L 1350 2875 
Q 1468 3180 1739 3358 
Q 2011 3536 2400 3536 
Q 2946 3536 3275 3185 
Q 3605 2834 3605 2223 
L 3605 0 
L 2636 0 
L 2636 2050 
Q 2639 2370 2473 2551 
Q 2307 2732 2016 2732 
Q 1723 2732 1540 2544 
Q 1357 2357 1355 2018 
z
" id="Inter-Bold-6e" transform="scale(0.015625)"/>
      <path d="M 3286 4655 
L 4264 4655 
L 4264 1577 
Q 4264 1050 4016 683 
Q 3768 316 3333 125 
Q 2898 -66 2334 -66 
Q 1771 -66 1334 125 
Q 898 316 651 683 
Q 405 1050 405 1577 
L 405 4655 
L 1389 4655 
L 1389 1611 
Q 1389 1239 1658 1025 
Q 1927 811 2334 811 
Q 2748 811 3017 1025 
Q 3286 1239 3286 1611 
L 3286 4655 
z
" id="Inter-Bold-55" transform="scale(0.015625)"/>
      <path d="M 405 0 
L 405 4655 
L 1389 4655 
L 1389 2602 
L 1450 2602 
L 3125 4655 
L 4305 4655 
L 2577 2570 
L 4325 0 
L 3148 0 
L 1873 1914 
L 1389 1323 
L 1389 0 
L 405 0 
z
" id="Inter-Bold-4b" transform="scale(0.015625)"/>
      <path d="M 4298 4655 
L 4298 0 
L 3448 0 
L 1423 2930 
L 1389 2930 
L 1389 0 
L 405 0 
L 405 4655 
L 1268 4655 
L 3277 1727 
L 3318 1727 
L 3318 4655 
L 4298 4655 
z
" id="Inter-Bold-4e" transform="scale(0.015625)"/>
      <path d="M 1964 -68 
Q 1434 -68 1049 158 
Q 664 384 455 789 
Q 246 1195 246 1732 
Q 246 2273 455 2678 
Q 664 3084 1049 3310 
Q 1434 3536 1964 3536 
Q 2493 3536 2878 3310 
Q 3264 3084 3473 2678 
Q 3682 2273 3682 1732 
Q 3682 1195 3473 789 
Q 3264 384 2878 158 
Q 2493 -68 1964 -68 
z
M 1968 682 
Q 2327 682 2512 982 
Q 2698 1282 2698 1739 
Q 2698 2195 2512 2496 
Q 2327 2798 1968 2798 
Q 1602 2798 1416 2496 
Q 1230 2195 1230 1739 
Q 1230 1282 1416 982 
Q 1602 682 1968 682 
z
" id="Inter-Bold-6f" transform="scale(0.015625)"/>
      <path d="M 1439 636 
L 1414 386 
Q 1384 86 1301 -212 
Q 1218 -511 1128 -754 
Q 1039 -998 984 -1136 
L 357 -1136 
Q 391 -1002 450 -763 
Q 509 -525 561 -226 
Q 614 73 627 382 
L 639 636 
L 1439 636 
z
" id="Inter-Bold-2c" transform="scale(0.015625)"/>
      <path d="M 386 -1309 
L 386 3491 
L 1341 3491 
L 1341 2905 
L 1384 2905 
Q 1450 3048 1570 3193 
Q 1691 3339 1888 3437 
Q 2086 3536 2377 3536 
Q 2761 3536 3081 3337 
Q 3402 3139 3596 2740 
Q 3791 2341 3791 1741 
Q 3791 1157 3602 756 
Q 3414 355 3093 149 
Q 2773 -57 2375 -57 
Q 2093 -57 1896 36 
Q 1700 130 1576 272 
Q 1452 414 1384 559 
L 1355 559 
L 1355 -1309 
L 386 -1309 
z
M 1334 1745 
Q 1334 1280 1526 997 
Q 1718 714 2068 714 
Q 2425 714 2613 1001 
Q 2802 1289 2802 1745 
Q 2802 2200 2614 2483 
Q 2427 2766 2068 2766 
Q 1716 2766 1525 2490 
Q 1334 2214 1334 1745 
z
" id="Inter-Bold-70" transform="scale(0.015625)"/>
      <path d="M 386 0 
L 386 3491 
L 1325 3491 
L 1325 2882 
L 1361 2882 
Q 1457 3207 1681 3374 
Q 1905 3541 2200 3541 
Q 2341 3541 2461 3507 
Q 2582 3473 2677 3414 
L 2386 2614 
Q 2318 2648 2237 2671 
Q 2157 2695 2057 2695 
Q 1764 2695 1560 2495 
Q 1357 2295 1355 1975 
L 1355 0 
L 386 0 
z
" id="Inter-Bold-72" transform="scale(0.015625)"/>
     </defs>
     <use xlink:href="#Inter-Bold-43"/>
     <use x="75.213089" xlink:href="#Inter-Bold-75"/>
     <use x="137.393494" xlink:href="#Inter-Bold-6d"/>
     <use x="228.5867" xlink:href="#Inter-Bold-75"/>
     <use x="290.767105" xlink:href="#Inter-Bold-6c"/>
     <use x="317.968811" xlink:href="#Inter-Bold-61"/>
     <use x="375.994385" xlink:href="#Inter-Bold-74"/>
     <use x="414.843826" xlink:href="#Inter-Bold-69"/>
     <use x="442.045532" xlink:href="#Inter-Bold-76"/>
     <use x="500.639297" xlink:href="#Inter-Bold-65"/>
     <use x="560.404938" xlink:href="#Inter-Bold-20"/>
     <use x="583.593857" xlink:href="#Inter-Bold-43"/>
     <use x="658.806946" xlink:href="#Inter-Bold-4f"/>
     <use x="737.002991" xlink:href="#Inter-Bold-56"/>
     <use x="811.789932" xlink:href="#Inter-Bold-49"/>
     <use x="839.843918" xlink:href="#Inter-Bold-44"/>
     <use x="912.571213" xlink:href="#Inter-Bold-2d"/>
     <use x="959.446228" xlink:href="#Inter-Bold-31"/>
     <use x="1006.853912" xlink:href="#Inter-Bold-39"/>
     <use x="1072.869553" xlink:href="#Inter-Bold-20"/>
     <use x="1096.058472" xlink:href="#Inter-Bold-63"/>
     <use x="1154.794281" xlink:href="#Inter-Bold-61"/>
     <use x="1212.819855" xlink:href="#Inter-Bold-73"/>
     <use x="1268.99884" xlink:href="#Inter-Bold-65"/>
     <use x="1328.764481" xlink:href="#Inter-Bold-73"/>
     <use x="1384.943466" xlink:href="#Inter-Bold-20"/>
     <use x="1408.132385" xlink:href="#Inter-Bold-69"/>
     <use x="1435.334091" xlink:href="#Inter-Bold-6e"/>
     <use x="1497.514496" xlink:href="#Inter-Bold-20"/>
     <use x="1520.703415" xlink:href="#Inter-Bold-55"/>
     <use x="1593.643768" xlink:href="#Inter-Bold-4b"/>
     <use x="1662.606857" xlink:href="#Inter-Bold-20"/>
     <use x="1685.795776" xlink:href="#Inter-Bold-4e"/>
     <use x="1759.304321" xlink:href="#Inter-Bold-61"/>
     <use x="1817.329895" xlink:href="#Inter-Bold-74"/>
     <use x="1856.179337" xlink:href="#Inter-Bold-69"/>
     <use x="1883.381042" xlink:href="#Inter-Bold-6f"/>
     <use x="1944.74469" xlink:href="#Inter-Bold-6e"/>
     <use x="2006.925095" xlink:href="#Inter-Bold-73"/>
     <use x="2063.10408" xlink:href="#Inter-Bold-2c"/>
     <use x="2093.395279" xlink:href="#Inter-Bold-20"/>
     <use x="2116.584198" xlink:href="#Inter-Bold-70"/>
     <use x="2179.829956" xlink:href="#Inter-Bold-65"/>
     <use x="2239.595596" xlink:href="#Inter-Bold-72"/>
     <use x="2282.457825" xlink:href="#Inter-Bold-20"/>
     <use x="2305.646744" xlink:href="#Inter-Bold-63"/>
     <use x="2364.382553" xlink:href="#Inter-Bold-61"/>
     <use x="2422.408127" xlink:href="#Inter-Bold-70"/>
     <use x="2485.653885" xlink:href="#Inter-Bold-69"/>
     <use x="2512.855591" xlink:href="#Inter-Bold-74"/>
     <use x="2551.705032" xlink:href="#Inter-Bold-61"/>
    </g>
   </g>
   <g id="legend_1">
    <g id="patch_4">
     <path d="M 60.204688 98.614062 
L 169.778125 98.614062 
Q 171.778125 98.614062 171.778125 96.614062 
L 171.778125 40.225 
Q 171.778125 38.225 169.778125 38.225 
L 60.204688 38.225 
Q 58.204688 38.225 58.204688 40.225 
L 58.204688 96.614062 
Q 58.204688 98.614062 60.204688 98.614062 
z
" style="fill:#ffffff;opacity:0.8;stroke:#cccccc;stroke-linejoin:miter;"/>
    </g>
    <g id="line2d_32">
     <path d="M 62.204688 45.998437 
L 82.204688 45.998437 
" style="fill:none;stroke:#d4351c;stroke-linecap:square;stroke-width:2;"/>
    </g>
    <g id="line2d_33"/>
    <g id="text_17">
     <!-- Wales -->
     <g transform="translate(90.204688 49.498437)scale(0.1 -0.1)">
      <defs>
       <path d="M 1409 0 
L 136 4655 
L 709 4655 
L 1682 864 
L 1727 864 
L 2718 4655 
L 3355 4655 
L 4346 864 
L 4391 864 
L 5364 4655 
L 5936 4655 
L 4664 0 
L 4082 0 
L 3055 3709 
L 3018 3709 
L 1991 0 
L 1409 0 
z
" id="Inter-Regular-57" transform="scale(0.015625)"/>
      </defs>
      <use xlink:href="#Inter-Regular-57"/>
      <use x="94.886383" xlink:href="#Inter-Regular-61"/>
      <use x="151.278442" xlink:href="#Inter-Regular-6c"/>
      <use x="175.000031" xlink:href="#Inter-Regular-65"/>
      <use x="233.238678" xlink:href="#Inter-Regular-73"/>
     </g>
    </g>
    <g id="line2d_34">
     <path d="M 62.204688 60.317187 
L 82.204688 60.317187 
" style="fill:none;stroke:#003078;stroke-linecap:square;stroke-width:2;"/>
    </g>
    <g id="line2d_35"/>
    <g id="text_18">
     <!-- Scotland -->
     <g transform="translate(90.204688 63.817187)scale(0.1 -0.1)">
      <use xlink:href="#Inter-Regular-53"/>
      <use x="63.778427" xlink:href="#Inter-Regular-63"/>
      <use x="119.602295" xlink:href="#Inter-Regular-6f"/>
      <use x="179.261398" xlink:href="#Inter-Regular-74"/>
      <use x="215.625046" xlink:href="#Inter-Regular-6c"/>
      <use x="239.346634" xlink:href="#Inter-Regular-61"/>
      <use x="295.738693" xlink:href="#Inter-Regular-6e"/>
      <use x="354.261429" xlink:href="#Inter-Regular-64"/>
     </g>
    </g>
    <g id="line2d_36">
     <path d="M 62.204688 74.635937 
L 82.204688 74.635937 
" style="fill:none;stroke:#ffdd00;stroke-linecap:square;stroke-width:2;"/>
    </g>
    <g id="line2d_37"/>
    <g id="text_19">
     <!-- Northern Ireland -->
     <g transform="translate(90.204688 78.135937)scale(0.1 -0.1)">
      <defs>
       <path d="M 1027 2100 
L 1027 0 
L 491 0 
L 491 4655 
L 1027 4655 
L 1027 2945 
L 1073 2945 
Q 1196 3216 1442 3376 
Q 1689 3536 2100 3536 
Q 2636 3536 2963 3213 
Q 3291 2891 3291 2218 
L 3291 0 
L 2755 0 
L 2755 2182 
Q 2755 2598 2540 2826 
Q 2325 3055 1946 3055 
Q 1548 3055 1287 2806 
Q 1027 2557 1027 2100 
z
" id="Inter-Regular-68" transform="scale(0.015625)"/>
       <path d="M 1127 4655 
L 1127 0 
L 564 0 
L 564 4655 
L 1127 4655 
z
" id="Inter-Regular-49" transform="scale(0.015625)"/>
      </defs>
      <use xlink:href="#Inter-Regular-4e"/>
      <use x="75.284103" xlink:href="#Inter-Regular-6f"/>
      <use x="134.943207" xlink:href="#Inter-Regular-72"/>
      <use x="173.295486" xlink:href="#Inter-Regular-74"/>
      <use x="209.659134" xlink:href="#Inter-Regular-68"/>
      <use x="268.750061" xlink:href="#Inter-Regular-65"/>
      <use x="326.988708" xlink:href="#Inter-Regular-72"/>
      <use x="365.340988" xlink:href="#Inter-Regular-6e"/>
      <use x="423.863724" xlink:href="#Inter-Regular-20"/>
      <use x="451.988724" xlink:href="#Inter-Regular-49"/>
      <use x="478.40918" xlink:href="#Inter-Regular-72"/>
      <use x="516.761459" xlink:href="#Inter-Regular-65"/>
      <use x="575.000107" xlink:href="#Inter-Regular-6c"/>
      <use x="598.721695" xlink:href="#Inter-Regular-61"/>
      <use x="655.113754" xlink:href="#Inter-Regular-6e"/>
      <use x="713.63649" xlink:href="#Inter-Regular-64"/>
     </g>
    </g>
    <g id="line2d_38">
     <path d="M 62.204688 88.954687 
L 82.204688 88.954687 
" style="fill:none;stroke:#5694ca;stroke-linecap:square;stroke-width:2;"/>
    </g>
    <g id="line2d_39"/>
    <g id="text_20">
     <!-- England -->
     <g transform="translate(90.204688 92.454687)scale(0.1 -0.1)">
      <defs>
       <path d="M 564 0 
L 564 4655 
L 3373 4655 
L 3373 4155 
L 1127 4155 
L 1127 2582 
L 3227 2582 
L 3227 2082 
L 1127 2082 
L 1127 500 
L 3409 500 
L 3409 0 
L 564 0 
z
" id="Inter-Regular-45" transform="scale(0.015625)"/>
       <path d="M 1900 -1382 
Q 1316 -1382 976 -1169 
Q 636 -957 473 -682 
L 900 -382 
Q 973 -477 1084 -601 
Q 1196 -725 1390 -817 
Q 1584 -909 1900 -909 
Q 2323 -909 2598 -704 
Q 2873 -500 2873 -64 
L 2873 645 
L 2827 645 
Q 2768 550 2660 410 
Q 2552 270 2351 162 
Q 2150 55 1809 55 
Q 1386 55 1051 255 
Q 716 455 521 836 
Q 327 1218 327 1764 
Q 327 2300 516 2699 
Q 705 3098 1041 3317 
Q 1377 3536 1818 3536 
Q 2159 3536 2360 3423 
Q 2561 3311 2669 3169 
Q 2777 3027 2836 2936 
L 2891 2936 
L 2891 3491 
L 3409 3491 
L 3409 -100 
Q 3409 -550 3205 -833 
Q 3002 -1116 2660 -1249 
Q 2318 -1382 1900 -1382 
z
M 1882 536 
Q 2366 536 2624 864 
Q 2882 1193 2882 1773 
Q 2882 2339 2627 2697 
Q 2373 3055 1882 3055 
Q 1541 3055 1315 2882 
Q 1089 2709 976 2418 
Q 864 2127 864 1773 
Q 864 1227 1120 881 
Q 1377 536 1882 536 
z
" id="Inter-Regular-67" transform="scale(0.015625)"/>
      </defs>
      <use xlink:href="#Inter-Regular-45"/>
      <use x="59.801147" xlink:href="#Inter-Regular-6e"/>
      <use x="118.323883" xlink:href="#Inter-Regular-67"/>
      <use x="179.261398" xlink:href="#Inter-Regular-6c"/>
      <use x="202.982986" xlink:href="#Inter-Regular-61"/>
      <use x="259.375046" xlink:href="#Inter-Regular-6e"/>
      <use x="317.897781" xlink:href="#Inter-Regular-64"/>
     </g>
    </g>
   </g>
  </g>
 </g>
 <defs>
  <clipPath id="p451fedd9e0">
   <rect height="443.52" width="669.6" x="53.204688" y="33.225"/>
  </clipPath>
 </defs>
</svg>
