<?xml version="1.0" encoding="utf-8" standalone="no"?>
<!DOCTYPE svg PUBLIC "-//W3C//DTD SVG 1.1//EN"
  "http://www.w3.org/Graphics/SVG/1.1/DTD/svg11.dtd">
<svg xmlns:xlink="http://www.w3.org/1999/xlink" viewBox="0 0 754.057812 511.234062" xmlns="http://www.w3.org/2000/svg" version="1.1">
 <metadata>
  <rdf:RDF xmlns:dc="http://purl.org/dc/elements/1.1/" xmlns:cc="http://creativecommons.org/ns#" xmlns:rdf="http://www.w3.org/1999/02/22-rdf-syntax-ns#">
   <cc:Work>
    <dc:type rdf:resource="http://purl.org/dc/dcmitype/StillImage"/>
    <dc:date>2021-12-15T17:17:42.538060</dc:date>
    <dc:format>image/svg+xml</dc:format>
    <dc:creator>
     <cc:Agent>
      <dc:title>Matplotlib v3.5.1, https://matplotlib.org/</dc:title>
     </cc:Agent>
    </dc:creator>
   </cc:Work>
  </rdf:RDF>
 </metadata>
 <defs>
  <style type="text/css">*{stroke-linejoin: round; stroke-linecap: butt}</style>
 </defs>
 <g id="figure_1">
  <g id="patch_1">
   <path d="M 0 511.234062 
L 754.057812 511.234062 
L 754.057812 0 
L 0 0 
z
" style="fill: #ffffff"/>
  </g>
  <g id="axes_1">
   <g id="patch_2">
    <path d="M 66.457813 476.745 
L 736.057813 476.745 
L 736.057813 33.225 
L 66.457813 33.225 
z
" style="fill: #ffffff"/>
   </g>
   <g id="matplotlib.axis_1">
    <g id="xtick_1">
     <g id="line2d_1">
      <defs>
       <path id="md3973edcdc" d="M 0 0 
L 0 3.5 
" style="stroke: #000000; stroke-width: 0.8"/>
      </defs>
      <g>
       <use xlink:href="#md3973edcdc" x="66.457813" y="476.745" style="stroke: #000000; stroke-width: 0.8"/>
      </g>
     </g>
     <g id="text_1">
      <!-- 01 Mar -->
      <g transform="translate(50.421094 491.018437)scale(0.1 -0.1)">
       <defs>
        <path id="Inter-Regular-30" d="M 2000 -64 
Q 1230 -64 806 561 
Q 382 1186 382 2327 
Q 382 3459 809 4088 
Q 1236 4718 2000 4718 
Q 2764 4718 3191 4088 
Q 3618 3459 3618 2327 
Q 3618 1186 3194 561 
Q 2771 -64 2000 -64 
z
M 2000 436 
Q 2509 436 2791 927 
Q 3073 1418 3073 2327 
Q 3073 3234 2789 3730 
Q 2505 4227 2000 4227 
Q 1496 4227 1211 3730 
Q 927 3234 927 2327 
Q 927 1418 1210 927 
Q 1493 436 2000 436 
z
" transform="scale(0.015625)"/>
        <path id="Inter-Regular-31" d="M 1973 4655 
L 1973 0 
L 1409 0 
L 1409 3836 
L 1373 3836 
Q 1341 3773 1209 3692 
Q 1077 3611 868 3551 
Q 659 3491 391 3491 
L 391 3964 
Q 661 3964 859 4061 
Q 1057 4159 1190 4291 
Q 1323 4423 1392 4529 
Q 1461 4636 1473 4655 
L 1973 4655 
z
" transform="scale(0.015625)"/>
        <path id="Inter-Regular-20" transform="scale(0.015625)"/>
        <path id="Inter-Regular-4d" d="M 564 4655 
L 1236 4655 
L 2818 791 
L 2873 791 
L 4455 4655 
L 5127 4655 
L 5127 0 
L 4600 0 
L 4600 3536 
L 4555 3536 
L 3100 0 
L 2591 0 
L 1136 3536 
L 1091 3536 
L 1091 0 
L 564 0 
L 564 4655 
z
" transform="scale(0.015625)"/>
        <path id="Inter-Regular-61" d="M 1518 -82 
Q 1186 -82 916 44 
Q 646 170 486 410 
Q 327 650 327 991 
Q 327 1291 445 1478 
Q 564 1666 761 1773 
Q 959 1880 1199 1933 
Q 1439 1986 1682 2018 
Q 2000 2059 2199 2080 
Q 2398 2102 2490 2154 
Q 2582 2207 2582 2336 
L 2582 2355 
Q 2582 2691 2399 2877 
Q 2216 3064 1846 3064 
Q 1461 3064 1243 2895 
Q 1025 2727 936 2536 
L 427 2718 
Q 564 3036 792 3214 
Q 1021 3393 1292 3464 
Q 1564 3536 1827 3536 
Q 1996 3536 2215 3496 
Q 2434 3457 2640 3334 
Q 2846 3211 2982 2963 
Q 3118 2716 3118 2300 
L 3118 0 
L 2582 0 
L 2582 473 
L 2555 473 
Q 2500 359 2373 229 
Q 2246 100 2034 9 
Q 1823 -82 1518 -82 
z
M 1600 400 
Q 1918 400 2137 525 
Q 2357 650 2469 847 
Q 2582 1045 2582 1264 
L 2582 1755 
Q 2548 1714 2433 1681 
Q 2318 1648 2169 1624 
Q 2021 1600 1881 1583 
Q 1741 1566 1655 1555 
Q 1446 1527 1265 1467 
Q 1084 1407 974 1287 
Q 864 1168 864 964 
Q 864 684 1072 542 
Q 1280 400 1600 400 
z
" transform="scale(0.015625)"/>
        <path id="Inter-Regular-72" d="M 491 0 
L 491 3491 
L 1009 3491 
L 1009 2964 
L 1046 2964 
Q 1139 3223 1389 3384 
Q 1639 3545 1955 3545 
Q 2100 3545 2209 3511 
Q 2318 3477 2400 3418 
L 2218 2964 
Q 2161 2993 2085 3010 
Q 2009 3027 1909 3027 
Q 1527 3027 1277 2794 
Q 1027 2561 1027 2209 
L 1027 0 
L 491 0 
z
" transform="scale(0.015625)"/>
       </defs>
       <use xlink:href="#Inter-Regular-30"/>
       <use xlink:href="#Inter-Regular-31" x="62.500015"/>
       <use xlink:href="#Inter-Regular-20" x="106.676163"/>
       <use xlink:href="#Inter-Regular-4d" x="134.801163"/>
       <use xlink:href="#Inter-Regular-61" x="225.99437"/>
       <use xlink:href="#Inter-Regular-72" x="282.386429"/>
      </g>
     </g>
    </g>
    <g id="xtick_2">
     <g id="line2d_2">
      <g>
       <use xlink:href="#md3973edcdc" x="98.162368" y="476.745" style="stroke: #000000; stroke-width: 0.8"/>
      </g>
     </g>
    </g>
    <g id="xtick_3">
     <g id="line2d_3">
      <g>
       <use xlink:href="#md3973edcdc" x="128.844195" y="476.745" style="stroke: #000000; stroke-width: 0.8"/>
      </g>
     </g>
     <g id="text_2">
      <!-- 01 May -->
      <g transform="translate(111.94107 491.116875)scale(0.1 -0.1)">
       <defs>
        <path id="Inter-Regular-79" d="M 818 -1355 
Q 682 -1355 575 -1333 
Q 468 -1311 427 -1291 
L 564 -818 
Q 857 -893 1053 -814 
Q 1250 -736 1391 -345 
L 1509 -18 
L 218 3491 
L 800 3491 
L 1764 709 
L 1800 709 
L 2764 3491 
L 3346 3491 
L 1846 -564 
Q 1550 -1355 818 -1355 
z
" transform="scale(0.015625)"/>
       </defs>
       <use xlink:href="#Inter-Regular-30"/>
       <use xlink:href="#Inter-Regular-31" x="62.500015"/>
       <use xlink:href="#Inter-Regular-20" x="106.676163"/>
       <use xlink:href="#Inter-Regular-4d" x="134.801163"/>
       <use xlink:href="#Inter-Regular-61" x="225.99437"/>
       <use xlink:href="#Inter-Regular-79" x="282.386429"/>
      </g>
     </g>
    </g>
    <g id="xtick_4">
     <g id="line2d_4">
      <g>
       <use xlink:href="#md3973edcdc" x="160.54875" y="476.745" style="stroke: #000000; stroke-width: 0.8"/>
      </g>
     </g>
    </g>
    <g id="xtick_5">
     <g id="line2d_5">
      <g>
       <use xlink:href="#md3973edcdc" x="191.230578" y="476.745" style="stroke: #000000; stroke-width: 0.8"/>
      </g>
     </g>
     <g id="text_3">
      <!-- 01 Jul -->
      <g transform="translate(177.686828 491.018437)scale(0.1 -0.1)">
       <defs>
        <path id="Inter-Regular-4a" d="M 2346 4655 
L 2909 4655 
L 2909 1327 
Q 2909 657 2549 296 
Q 2189 -64 1582 -64 
Q 1200 -64 902 76 
Q 605 216 434 475 
Q 264 734 264 1091 
L 818 1091 
Q 818 795 1034 615 
Q 1250 436 1582 436 
Q 1948 436 2147 664 
Q 2346 893 2346 1327 
L 2346 4655 
z
" transform="scale(0.015625)"/>
        <path id="Inter-Regular-75" d="M 2691 1427 
L 2691 3491 
L 3227 3491 
L 3227 0 
L 2691 0 
L 2691 591 
L 2655 591 
Q 2532 325 2273 140 
Q 2014 -45 1618 -45 
Q 1127 -45 809 280 
Q 491 605 491 1273 
L 491 3491 
L 1027 3491 
L 1027 1309 
Q 1027 927 1242 700 
Q 1457 473 1791 473 
Q 1991 473 2199 575 
Q 2407 677 2549 888 
Q 2691 1100 2691 1427 
z
" transform="scale(0.015625)"/>
        <path id="Inter-Regular-6c" d="M 1027 4655 
L 1027 0 
L 491 0 
L 491 4655 
L 1027 4655 
z
" transform="scale(0.015625)"/>
       </defs>
       <use xlink:href="#Inter-Regular-30"/>
       <use xlink:href="#Inter-Regular-31" x="62.500015"/>
       <use xlink:href="#Inter-Regular-20" x="106.676163"/>
       <use xlink:href="#Inter-Regular-4a" x="134.801163"/>
       <use xlink:href="#Inter-Regular-75" x="189.062531"/>
       <use xlink:href="#Inter-Regular-6c" x="247.159134"/>
      </g>
     </g>
    </g>
    <g id="xtick_6">
     <g id="line2d_6">
      <g>
       <use xlink:href="#md3973edcdc" x="222.935133" y="476.745" style="stroke: #000000; stroke-width: 0.8"/>
      </g>
     </g>
    </g>
    <g id="xtick_7">
     <g id="line2d_7">
      <g>
       <use xlink:href="#md3973edcdc" x="254.639688" y="476.745" style="stroke: #000000; stroke-width: 0.8"/>
      </g>
     </g>
     <g id="text_4">
      <!-- 01 Sep -->
      <g transform="translate(238.752188 491.116875)scale(0.1 -0.1)">
       <defs>
        <path id="Inter-Regular-53" d="M 3109 3491 
Q 3068 3836 2777 4027 
Q 2486 4218 2064 4218 
Q 1600 4218 1318 3999 
Q 1036 3780 1036 3445 
Q 1036 3195 1189 3042 
Q 1343 2889 1553 2803 
Q 1764 2718 1936 2673 
L 2409 2545 
Q 2591 2498 2815 2414 
Q 3039 2330 3244 2185 
Q 3450 2041 3584 1816 
Q 3718 1591 3718 1264 
Q 3718 886 3521 581 
Q 3325 277 2949 97 
Q 2573 -82 2036 -82 
Q 1286 -82 845 272 
Q 405 627 364 1200 
L 946 1200 
Q 968 936 1124 764 
Q 1280 593 1519 510 
Q 1759 427 2036 427 
Q 2359 427 2616 533 
Q 2873 639 3023 828 
Q 3173 1018 3173 1273 
Q 3173 1505 3043 1650 
Q 2914 1795 2702 1886 
Q 2491 1977 2246 2045 
L 1673 2209 
Q 1127 2366 809 2657 
Q 491 2948 491 3418 
Q 491 3809 703 4101 
Q 916 4393 1276 4555 
Q 1636 4718 2082 4718 
Q 2532 4718 2882 4558 
Q 3232 4398 3437 4120 
Q 3643 3843 3655 3491 
L 3109 3491 
z
" transform="scale(0.015625)"/>
        <path id="Inter-Regular-65" d="M 1955 -73 
Q 1450 -73 1085 151 
Q 721 375 524 778 
Q 327 1182 327 1718 
Q 327 2255 524 2665 
Q 721 3075 1074 3305 
Q 1427 3536 1900 3536 
Q 2173 3536 2439 3445 
Q 2705 3355 2923 3151 
Q 3141 2948 3270 2614 
Q 3400 2280 3400 1791 
L 3400 1564 
L 866 1564 
Q 884 1005 1183 707 
Q 1482 409 1955 409 
Q 2271 409 2498 545 
Q 2725 682 2827 955 
L 3346 809 
Q 3223 414 2854 170 
Q 2486 -73 1955 -73 
z
M 866 2027 
L 2855 2027 
Q 2855 2470 2595 2762 
Q 2336 3055 1900 3055 
Q 1593 3055 1368 2911 
Q 1143 2768 1013 2533 
Q 884 2298 866 2027 
z
" transform="scale(0.015625)"/>
        <path id="Inter-Regular-70" d="M 491 -1309 
L 491 3491 
L 1009 3491 
L 1009 2936 
L 1073 2936 
Q 1132 3027 1237 3169 
Q 1343 3311 1542 3423 
Q 1741 3536 2082 3536 
Q 2523 3536 2859 3315 
Q 3196 3095 3384 2690 
Q 3573 2286 3573 1736 
Q 3573 1182 3384 776 
Q 3196 370 2861 148 
Q 2527 -73 2091 -73 
Q 1755 -73 1552 39 
Q 1350 152 1241 296 
Q 1132 441 1073 536 
L 1027 536 
L 1027 -1309 
L 491 -1309 
z
M 1018 1745 
Q 1018 1152 1276 780 
Q 1534 409 2018 409 
Q 2355 409 2581 587 
Q 2807 766 2921 1069 
Q 3036 1373 3036 1745 
Q 3036 2114 2923 2410 
Q 2811 2707 2585 2881 
Q 2359 3055 2018 3055 
Q 1527 3055 1272 2693 
Q 1018 2332 1018 1745 
z
" transform="scale(0.015625)"/>
       </defs>
       <use xlink:href="#Inter-Regular-30"/>
       <use xlink:href="#Inter-Regular-31" x="62.500015"/>
       <use xlink:href="#Inter-Regular-20" x="106.676163"/>
       <use xlink:href="#Inter-Regular-53" x="134.801163"/>
       <use xlink:href="#Inter-Regular-65" x="198.57959"/>
       <use xlink:href="#Inter-Regular-70" x="256.818237"/>
      </g>
     </g>
    </g>
    <g id="xtick_8">
     <g id="line2d_8">
      <g>
       <use xlink:href="#md3973edcdc" x="285.321515" y="476.745" style="stroke: #000000; stroke-width: 0.8"/>
      </g>
     </g>
    </g>
    <g id="xtick_9">
     <g id="line2d_9">
      <g>
       <use xlink:href="#md3973edcdc" x="317.02607" y="476.745" style="stroke: #000000; stroke-width: 0.8"/>
      </g>
     </g>
     <g id="text_5">
      <!-- 01 Nov -->
      <g transform="translate(300.754976 491.018437)scale(0.1 -0.1)">
       <defs>
        <path id="Inter-Regular-4e" d="M 4255 4655 
L 4255 0 
L 3709 0 
L 1173 3655 
L 1127 3655 
L 1127 0 
L 564 0 
L 564 4655 
L 1109 4655 
L 3655 991 
L 3700 991 
L 3700 4655 
L 4255 4655 
z
" transform="scale(0.015625)"/>
        <path id="Inter-Regular-6f" d="M 1909 -73 
Q 1436 -73 1080 152 
Q 725 377 526 781 
Q 327 1186 327 1727 
Q 327 2273 526 2679 
Q 725 3086 1080 3311 
Q 1436 3536 1909 3536 
Q 2382 3536 2737 3311 
Q 3093 3086 3292 2679 
Q 3491 2273 3491 1727 
Q 3491 1186 3292 781 
Q 3093 377 2737 152 
Q 2382 -73 1909 -73 
z
M 1909 409 
Q 2268 409 2500 593 
Q 2732 777 2843 1077 
Q 2955 1377 2955 1727 
Q 2955 2077 2843 2379 
Q 2732 2682 2500 2868 
Q 2268 3055 1909 3055 
Q 1550 3055 1318 2868 
Q 1086 2682 975 2379 
Q 864 2077 864 1727 
Q 864 1377 975 1077 
Q 1086 777 1318 593 
Q 1550 409 1909 409 
z
" transform="scale(0.015625)"/>
        <path id="Inter-Regular-76" d="M 3346 3491 
L 2055 0 
L 1509 0 
L 218 3491 
L 800 3491 
L 1764 709 
L 1800 709 
L 2764 3491 
L 3346 3491 
z
" transform="scale(0.015625)"/>
       </defs>
       <use xlink:href="#Inter-Regular-30"/>
       <use xlink:href="#Inter-Regular-31" x="62.500015"/>
       <use xlink:href="#Inter-Regular-20" x="106.676163"/>
       <use xlink:href="#Inter-Regular-4e" x="134.801163"/>
       <use xlink:href="#Inter-Regular-6f" x="210.085266"/>
       <use xlink:href="#Inter-Regular-76" x="269.74437"/>
      </g>
     </g>
    </g>
    <g id="xtick_10">
     <g id="line2d_10">
      <g>
       <use xlink:href="#md3973edcdc" x="347.707898" y="476.745" style="stroke: #000000; stroke-width: 0.8"/>
      </g>
     </g>
    </g>
    <g id="xtick_11">
     <g id="line2d_11">
      <g>
       <use xlink:href="#md3973edcdc" x="379.412453" y="476.745" style="stroke: #000000; stroke-width: 0.8"/>
      </g>
     </g>
     <g id="text_6">
      <!-- 01 Jan -->
      <g transform="translate(364.213234 491.018437)scale(0.1 -0.1)">
       <defs>
        <path id="Inter-Regular-6e" d="M 1027 2100 
L 1027 0 
L 491 0 
L 491 3491 
L 1009 3491 
L 1009 2945 
L 1055 2945 
Q 1177 3211 1427 3373 
Q 1677 3536 2073 3536 
Q 2602 3536 2928 3211 
Q 3255 2886 3255 2218 
L 3255 0 
L 2718 0 
L 2718 2182 
Q 2718 2593 2504 2824 
Q 2291 3055 1918 3055 
Q 1534 3055 1280 2806 
Q 1027 2557 1027 2100 
z
" transform="scale(0.015625)"/>
       </defs>
       <use xlink:href="#Inter-Regular-30"/>
       <use xlink:href="#Inter-Regular-31" x="62.500015"/>
       <use xlink:href="#Inter-Regular-20" x="106.676163"/>
       <use xlink:href="#Inter-Regular-4a" x="134.801163"/>
       <use xlink:href="#Inter-Regular-61" x="189.062531"/>
       <use xlink:href="#Inter-Regular-6e" x="245.45459"/>
      </g>
     </g>
    </g>
    <g id="xtick_12">
     <g id="line2d_12">
      <g>
       <use xlink:href="#md3973edcdc" x="411.117008" y="476.745" style="stroke: #000000; stroke-width: 0.8"/>
      </g>
     </g>
    </g>
    <g id="xtick_13">
     <g id="line2d_13">
      <g>
       <use xlink:href="#md3973edcdc" x="439.75338" y="476.745" style="stroke: #000000; stroke-width: 0.8"/>
      </g>
     </g>
     <g id="text_7">
      <!-- 01 Mar -->
      <g transform="translate(423.716661 491.018437)scale(0.1 -0.1)">
       <use xlink:href="#Inter-Regular-30"/>
       <use xlink:href="#Inter-Regular-31" x="62.500015"/>
       <use xlink:href="#Inter-Regular-20" x="106.676163"/>
       <use xlink:href="#Inter-Regular-4d" x="134.801163"/>
       <use xlink:href="#Inter-Regular-61" x="225.99437"/>
       <use xlink:href="#Inter-Regular-72" x="282.386429"/>
      </g>
     </g>
    </g>
    <g id="xtick_14">
     <g id="line2d_14">
      <g>
       <use xlink:href="#md3973edcdc" x="471.457935" y="476.745" style="stroke: #000000; stroke-width: 0.8"/>
      </g>
     </g>
    </g>
    <g id="xtick_15">
     <g id="line2d_15">
      <g>
       <use xlink:href="#md3973edcdc" x="502.139763" y="476.745" style="stroke: #000000; stroke-width: 0.8"/>
      </g>
     </g>
     <g id="text_8">
      <!-- 01 May -->
      <g transform="translate(485.236638 491.116875)scale(0.1 -0.1)">
       <use xlink:href="#Inter-Regular-30"/>
       <use xlink:href="#Inter-Regular-31" x="62.500015"/>
       <use xlink:href="#Inter-Regular-20" x="106.676163"/>
       <use xlink:href="#Inter-Regular-4d" x="134.801163"/>
       <use xlink:href="#Inter-Regular-61" x="225.99437"/>
       <use xlink:href="#Inter-Regular-79" x="282.386429"/>
      </g>
     </g>
    </g>
    <g id="xtick_16">
     <g id="line2d_16">
      <g>
       <use xlink:href="#md3973edcdc" x="533.844318" y="476.745" style="stroke: #000000; stroke-width: 0.8"/>
      </g>
     </g>
    </g>
    <g id="xtick_17">
     <g id="line2d_17">
      <g>
       <use xlink:href="#md3973edcdc" x="564.526145" y="476.745" style="stroke: #000000; stroke-width: 0.8"/>
      </g>
     </g>
     <g id="text_9">
      <!-- 01 Jul -->
      <g transform="translate(550.982395 491.018437)scale(0.1 -0.1)">
       <use xlink:href="#Inter-Regular-30"/>
       <use xlink:href="#Inter-Regular-31" x="62.500015"/>
       <use xlink:href="#Inter-Regular-20" x="106.676163"/>
       <use xlink:href="#Inter-Regular-4a" x="134.801163"/>
       <use xlink:href="#Inter-Regular-75" x="189.062531"/>
       <use xlink:href="#Inter-Regular-6c" x="247.159134"/>
      </g>
     </g>
    </g>
    <g id="xtick_18">
     <g id="line2d_18">
      <g>
       <use xlink:href="#md3973edcdc" x="596.2307" y="476.745" style="stroke: #000000; stroke-width: 0.8"/>
      </g>
     </g>
    </g>
    <g id="xtick_19">
     <g id="line2d_19">
      <g>
       <use xlink:href="#md3973edcdc" x="627.935255" y="476.745" style="stroke: #000000; stroke-width: 0.8"/>
      </g>
     </g>
     <g id="text_10">
      <!-- 01 Sep -->
      <g transform="translate(612.047755 491.116875)scale(0.1 -0.1)">
       <use xlink:href="#Inter-Regular-30"/>
       <use xlink:href="#Inter-Regular-31" x="62.500015"/>
       <use xlink:href="#Inter-Regular-20" x="106.676163"/>
       <use xlink:href="#Inter-Regular-53" x="134.801163"/>
       <use xlink:href="#Inter-Regular-65" x="198.57959"/>
       <use xlink:href="#Inter-Regular-70" x="256.818237"/>
      </g>
     </g>
    </g>
    <g id="xtick_20">
     <g id="line2d_20">
      <g>
       <use xlink:href="#md3973edcdc" x="658.617083" y="476.745" style="stroke: #000000; stroke-width: 0.8"/>
      </g>
     </g>
    </g>
    <g id="xtick_21">
     <g id="line2d_21">
      <g>
       <use xlink:href="#md3973edcdc" x="690.321638" y="476.745" style="stroke: #000000; stroke-width: 0.8"/>
      </g>
     </g>
     <g id="text_11">
      <!-- 01 Nov -->
      <g transform="translate(674.050544 491.018437)scale(0.1 -0.1)">
       <use xlink:href="#Inter-Regular-30"/>
       <use xlink:href="#Inter-Regular-31" x="62.500015"/>
       <use xlink:href="#Inter-Regular-20" x="106.676163"/>
       <use xlink:href="#Inter-Regular-4e" x="134.801163"/>
       <use xlink:href="#Inter-Regular-6f" x="210.085266"/>
       <use xlink:href="#Inter-Regular-76" x="269.74437"/>
      </g>
     </g>
    </g>
    <g id="xtick_22">
     <g id="line2d_22">
      <g>
       <use xlink:href="#md3973edcdc" x="721.003465" y="476.745" style="stroke: #000000; stroke-width: 0.8"/>
      </g>
     </g>
    </g>
   </g>
   <g id="matplotlib.axis_2">
    <g id="ytick_1">
     <g id="line2d_23">
      <path d="M 66.457813 476.745 
L 736.057813 476.745 
" clip-path="url(#p69cfd8f04f)" style="fill: none; stroke: #e5e5e5; stroke-width: 0.8; stroke-linecap: square"/>
     </g>
     <g id="line2d_24">
      <defs>
       <path id="m943cc76143" d="M 0 0 
L -3.5 0 
" style="stroke: #000000; stroke-width: 0.8"/>
      </defs>
      <g>
       <use xlink:href="#m943cc76143" x="66.457813" y="476.745" style="stroke: #000000; stroke-width: 0.8"/>
      </g>
     </g>
     <g id="text_12">
      <!-- 0.0% -->
      <g transform="translate(36.076563 480.381719)scale(0.1 -0.1)">
       <defs>
        <path id="Inter-Regular-2e" d="M 882 -36 
Q 714 -36 593 84 
Q 473 205 473 373 
Q 473 541 593 661 
Q 714 782 882 782 
Q 1050 782 1170 661 
Q 1291 541 1291 373 
Q 1291 205 1170 84 
Q 1050 -36 882 -36 
z
" transform="scale(0.015625)"/>
        <path id="Inter-Regular-25" d="M 2855 873 
L 2855 1118 
Q 2855 1373 2960 1585 
Q 3066 1798 3269 1926 
Q 3473 2055 3764 2055 
Q 4059 2055 4259 1926 
Q 4459 1798 4561 1585 
Q 4664 1373 4664 1118 
L 4664 873 
Q 4664 618 4560 405 
Q 4457 193 4256 64 
Q 4055 -64 3764 -64 
Q 3468 -64 3266 64 
Q 3064 193 2959 405 
Q 2855 618 2855 873 
z
M 536 3536 
L 536 3782 
Q 536 4036 642 4248 
Q 748 4461 951 4589 
Q 1155 4718 1446 4718 
Q 1741 4718 1941 4589 
Q 2141 4461 2243 4248 
Q 2346 4036 2346 3782 
L 2346 3536 
Q 2346 3282 2242 3069 
Q 2139 2857 1937 2728 
Q 1736 2600 1446 2600 
Q 1150 2600 948 2728 
Q 746 2857 641 3069 
Q 536 3282 536 3536 
z
M 709 0 
L 3909 4655 
L 4427 4655 
L 1227 0 
L 709 0 
z
M 3318 1118 
L 3318 873 
Q 3318 661 3418 494 
Q 3518 327 3764 327 
Q 4002 327 4101 494 
Q 4200 661 4200 873 
L 4200 1118 
Q 4200 1330 4104 1497 
Q 4009 1664 3764 1664 
Q 3525 1664 3421 1497 
Q 3318 1330 3318 1118 
z
M 1000 3782 
L 1000 3536 
Q 1000 3325 1100 3158 
Q 1200 2991 1446 2991 
Q 1684 2991 1783 3158 
Q 1882 3325 1882 3536 
L 1882 3782 
Q 1882 3993 1786 4160 
Q 1691 4327 1446 4327 
Q 1207 4327 1103 4160 
Q 1000 3993 1000 3782 
z
" transform="scale(0.015625)"/>
       </defs>
       <use xlink:href="#Inter-Regular-30"/>
       <use xlink:href="#Inter-Regular-2e" x="62.500015"/>
       <use xlink:href="#Inter-Regular-30" x="90.056839"/>
       <use xlink:href="#Inter-Regular-25" x="152.556854"/>
      </g>
     </g>
    </g>
    <g id="ytick_2">
     <g id="line2d_25">
      <path d="M 66.457813 418.64119 
L 736.057813 418.64119 
" clip-path="url(#p69cfd8f04f)" style="fill: none; stroke: #e5e5e5; stroke-width: 0.8; stroke-linecap: square"/>
     </g>
     <g id="line2d_26">
      <g>
       <use xlink:href="#m943cc76143" x="66.457813" y="418.64119" style="stroke: #000000; stroke-width: 0.8"/>
      </g>
     </g>
     <g id="text_13">
      <!-- 2.5% -->
      <g transform="translate(36.445313 422.277909)scale(0.1 -0.1)">
       <defs>
        <path id="Inter-Regular-32" d="M 482 0 
L 482 409 
L 2018 2091 
Q 2289 2386 2464 2605 
Q 2639 2825 2724 3019 
Q 2809 3214 2809 3427 
Q 2809 3795 2553 4011 
Q 2298 4227 1918 4227 
Q 1514 4227 1275 3985 
Q 1036 3743 1036 3345 
L 500 3345 
Q 500 3755 688 4064 
Q 877 4373 1203 4545 
Q 1530 4718 1936 4718 
Q 2346 4718 2661 4545 
Q 2977 4373 3156 4079 
Q 3336 3786 3336 3427 
Q 3336 3170 3244 2926 
Q 3152 2682 2926 2383 
Q 2700 2084 2300 1655 
L 1255 536 
L 1255 500 
L 3418 500 
L 3418 0 
L 482 0 
z
" transform="scale(0.015625)"/>
        <path id="Inter-Regular-35" d="M 1936 -64 
Q 1536 -64 1216 95 
Q 896 255 702 532 
Q 509 809 491 1164 
L 1036 1164 
Q 1068 848 1324 642 
Q 1580 436 1936 436 
Q 2223 436 2447 570 
Q 2671 705 2799 940 
Q 2927 1175 2927 1473 
Q 2927 1777 2794 2017 
Q 2661 2257 2429 2395 
Q 2198 2534 1900 2536 
Q 1686 2539 1461 2472 
Q 1236 2405 1091 2300 
L 564 2364 
L 846 4655 
L 3264 4655 
L 3264 4155 
L 1318 4155 
L 1155 2782 
L 1182 2782 
Q 1325 2895 1541 2970 
Q 1757 3045 1991 3045 
Q 2418 3045 2753 2842 
Q 3089 2639 3281 2286 
Q 3473 1934 3473 1482 
Q 3473 1036 3274 687 
Q 3075 339 2727 137 
Q 2380 -64 1936 -64 
z
" transform="scale(0.015625)"/>
       </defs>
       <use xlink:href="#Inter-Regular-32"/>
       <use xlink:href="#Inter-Regular-2e" x="60.511383"/>
       <use xlink:href="#Inter-Regular-35" x="88.068207"/>
       <use xlink:href="#Inter-Regular-25" x="148.863678"/>
      </g>
     </g>
    </g>
    <g id="ytick_3">
     <g id="line2d_27">
      <path d="M 66.457813 360.53738 
L 736.057813 360.53738 
" clip-path="url(#p69cfd8f04f)" style="fill: none; stroke: #e5e5e5; stroke-width: 0.8; stroke-linecap: square"/>
     </g>
     <g id="line2d_28">
      <g>
       <use xlink:href="#m943cc76143" x="66.457813" y="360.53738" style="stroke: #000000; stroke-width: 0.8"/>
      </g>
     </g>
     <g id="text_14">
      <!-- 5.0% -->
      <g transform="translate(36.246875 364.174098)scale(0.1 -0.1)">
       <use xlink:href="#Inter-Regular-35"/>
       <use xlink:href="#Inter-Regular-2e" x="60.795471"/>
       <use xlink:href="#Inter-Regular-30" x="88.352295"/>
       <use xlink:href="#Inter-Regular-25" x="150.85231"/>
      </g>
     </g>
    </g>
    <g id="ytick_4">
     <g id="line2d_29">
      <path d="M 66.457813 302.433569 
L 736.057813 302.433569 
" clip-path="url(#p69cfd8f04f)" style="fill: none; stroke: #e5e5e5; stroke-width: 0.8; stroke-linecap: square"/>
     </g>
     <g id="line2d_30">
      <g>
       <use xlink:href="#m943cc76143" x="66.457813" y="302.433569" style="stroke: #000000; stroke-width: 0.8"/>
      </g>
     </g>
     <g id="text_15">
      <!-- 7.5% -->
      <g transform="translate(36.785938 306.070288)scale(0.1 -0.1)">
       <defs>
        <path id="Inter-Regular-37" d="M 627 0 
L 2709 4118 
L 2709 4155 
L 309 4155 
L 309 4655 
L 3291 4655 
L 3291 4127 
L 1218 0 
L 627 0 
z
" transform="scale(0.015625)"/>
       </defs>
       <use xlink:href="#Inter-Regular-37"/>
       <use xlink:href="#Inter-Regular-2e" x="57.10228"/>
       <use xlink:href="#Inter-Regular-35" x="84.659103"/>
       <use xlink:href="#Inter-Regular-25" x="145.454575"/>
      </g>
     </g>
    </g>
    <g id="ytick_5">
     <g id="line2d_31">
      <path d="M 66.457813 244.329759 
L 736.057813 244.329759 
" clip-path="url(#p69cfd8f04f)" style="fill: none; stroke: #e5e5e5; stroke-width: 0.8; stroke-linecap: square"/>
     </g>
     <g id="line2d_32">
      <g>
       <use xlink:href="#m943cc76143" x="66.457813" y="244.329759" style="stroke: #000000; stroke-width: 0.8"/>
      </g>
     </g>
     <g id="text_16">
      <!-- 10.0% -->
      <g transform="translate(31.659375 247.966478)scale(0.1 -0.1)">
       <use xlink:href="#Inter-Regular-31"/>
       <use xlink:href="#Inter-Regular-30" x="44.176147"/>
       <use xlink:href="#Inter-Regular-2e" x="106.676163"/>
       <use xlink:href="#Inter-Regular-30" x="134.232986"/>
       <use xlink:href="#Inter-Regular-25" x="196.733002"/>
      </g>
     </g>
    </g>
    <g id="ytick_6">
     <g id="line2d_33">
      <path d="M 66.457813 186.225949 
L 736.057813 186.225949 
" clip-path="url(#p69cfd8f04f)" style="fill: none; stroke: #e5e5e5; stroke-width: 0.8; stroke-linecap: square"/>
     </g>
     <g id="line2d_34">
      <g>
       <use xlink:href="#m943cc76143" x="66.457813" y="186.225949" style="stroke: #000000; stroke-width: 0.8"/>
      </g>
     </g>
     <g id="text_17">
      <!-- 12.5% -->
      <g transform="translate(32.028125 189.862668)scale(0.1 -0.1)">
       <use xlink:href="#Inter-Regular-31"/>
       <use xlink:href="#Inter-Regular-32" x="44.176147"/>
       <use xlink:href="#Inter-Regular-2e" x="104.687531"/>
       <use xlink:href="#Inter-Regular-35" x="132.244354"/>
       <use xlink:href="#Inter-Regular-25" x="193.039825"/>
      </g>
     </g>
    </g>
    <g id="ytick_7">
     <g id="line2d_35">
      <path d="M 66.457813 128.122139 
L 736.057813 128.122139 
" clip-path="url(#p69cfd8f04f)" style="fill: none; stroke: #e5e5e5; stroke-width: 0.8; stroke-linecap: square"/>
     </g>
     <g id="line2d_36">
      <g>
       <use xlink:href="#m943cc76143" x="66.457813" y="128.122139" style="stroke: #000000; stroke-width: 0.8"/>
      </g>
     </g>
     <g id="text_18">
      <!-- 15.0% -->
      <g transform="translate(31.829688 131.758858)scale(0.1 -0.1)">
       <use xlink:href="#Inter-Regular-31"/>
       <use xlink:href="#Inter-Regular-35" x="44.176147"/>
       <use xlink:href="#Inter-Regular-2e" x="104.971619"/>
       <use xlink:href="#Inter-Regular-30" x="132.528442"/>
       <use xlink:href="#Inter-Regular-25" x="195.028458"/>
      </g>
     </g>
    </g>
    <g id="ytick_8">
     <g id="line2d_37">
      <path d="M 66.457813 70.018329 
L 736.057813 70.018329 
" clip-path="url(#p69cfd8f04f)" style="fill: none; stroke: #e5e5e5; stroke-width: 0.8; stroke-linecap: square"/>
     </g>
     <g id="line2d_38">
      <g>
       <use xlink:href="#m943cc76143" x="66.457813" y="70.018329" style="stroke: #000000; stroke-width: 0.8"/>
      </g>
     </g>
     <g id="text_19">
      <!-- 17.5% -->
      <g transform="translate(32.36875 73.655047)scale(0.1 -0.1)">
       <use xlink:href="#Inter-Regular-31"/>
       <use xlink:href="#Inter-Regular-37" x="44.176147"/>
       <use xlink:href="#Inter-Regular-2e" x="101.278427"/>
       <use xlink:href="#Inter-Regular-35" x="128.835251"/>
       <use xlink:href="#Inter-Regular-25" x="189.630722"/>
      </g>
     </g>
    </g>
    <g id="text_20">
     <!-- Percent of nation tested positive -->
     <g transform="translate(25.614063 332.215469)rotate(-90)scale(0.1 -0.1)">
      <defs>
       <path id="Inter-Regular-50" d="M 564 0 
L 564 4655 
L 2136 4655 
Q 2684 4655 3033 4458 
Q 3382 4261 3550 3927 
Q 3718 3593 3718 3182 
Q 3718 2770 3551 2434 
Q 3384 2098 3036 1899 
Q 2689 1700 2146 1700 
L 1127 1700 
L 1127 0 
L 564 0 
z
M 1127 2200 
L 2127 2200 
Q 2689 2200 2926 2482 
Q 3164 2764 3164 3182 
Q 3164 3602 2925 3878 
Q 2686 4155 2118 4155 
L 1127 4155 
L 1127 2200 
z
" transform="scale(0.015625)"/>
       <path id="Inter-Regular-63" d="M 1909 -73 
Q 1418 -73 1063 159 
Q 709 391 518 798 
Q 327 1205 327 1727 
Q 327 2259 524 2667 
Q 721 3075 1074 3305 
Q 1427 3536 1900 3536 
Q 2268 3536 2563 3400 
Q 2859 3264 3047 3018 
Q 3236 2773 3282 2445 
L 2746 2445 
Q 2684 2684 2474 2869 
Q 2264 3055 1909 3055 
Q 1439 3055 1151 2697 
Q 864 2339 864 1745 
Q 864 1139 1148 774 
Q 1432 409 1909 409 
Q 2223 409 2447 570 
Q 2671 732 2746 1018 
L 3282 1018 
Q 3236 709 3058 462 
Q 2880 216 2588 71 
Q 2296 -73 1909 -73 
z
" transform="scale(0.015625)"/>
       <path id="Inter-Regular-74" d="M 2009 3491 
L 2009 3036 
L 1264 3036 
L 1264 1000 
Q 1264 773 1331 660 
Q 1398 548 1503 510 
Q 1609 473 1727 473 
Q 1816 473 1873 483 
Q 1930 493 1964 500 
L 2073 18 
Q 2018 -2 1920 -23 
Q 1823 -45 1673 -45 
Q 1446 -45 1228 52 
Q 1011 150 869 350 
Q 727 550 727 855 
L 727 3036 
L 200 3036 
L 200 3491 
L 727 3491 
L 727 4327 
L 1264 4327 
L 1264 3491 
L 2009 3491 
z
" transform="scale(0.015625)"/>
       <path id="Inter-Regular-66" d="M 2046 3491 
L 2046 3036 
L 1264 3036 
L 1264 0 
L 727 0 
L 727 3036 
L 164 3036 
L 164 3491 
L 727 3491 
L 727 3973 
Q 727 4273 868 4473 
Q 1009 4673 1234 4773 
Q 1459 4873 1709 4873 
Q 1907 4873 2032 4841 
Q 2157 4809 2218 4782 
L 2064 4318 
Q 2023 4332 1951 4352 
Q 1880 4373 1764 4373 
Q 1498 4373 1381 4239 
Q 1264 4105 1264 3845 
L 1264 3491 
L 2046 3491 
z
" transform="scale(0.015625)"/>
       <path id="Inter-Regular-69" d="M 491 0 
L 491 3491 
L 1027 3491 
L 1027 0 
L 491 0 
z
M 764 4073 
Q 607 4073 494 4179 
Q 382 4286 382 4436 
Q 382 4586 494 4693 
Q 607 4800 764 4800 
Q 921 4800 1033 4693 
Q 1146 4586 1146 4436 
Q 1146 4286 1033 4179 
Q 921 4073 764 4073 
z
" transform="scale(0.015625)"/>
       <path id="Inter-Regular-73" d="M 2964 2709 
L 2482 2573 
Q 2411 2755 2245 2914 
Q 2080 3073 1727 3073 
Q 1407 3073 1194 2926 
Q 982 2780 982 2555 
Q 982 2355 1127 2239 
Q 1273 2123 1582 2045 
L 2100 1918 
Q 3027 1691 3027 973 
Q 3027 673 2855 436 
Q 2684 200 2377 63 
Q 2071 -73 1664 -73 
Q 1130 -73 780 159 
Q 430 391 336 836 
L 846 964 
Q 989 400 1655 400 
Q 2030 400 2251 560 
Q 2473 720 2473 945 
Q 2473 1316 1955 1436 
L 1373 1573 
Q 893 1686 669 1926 
Q 446 2166 446 2527 
Q 446 2823 613 3050 
Q 780 3277 1069 3406 
Q 1359 3536 1727 3536 
Q 2246 3536 2542 3309 
Q 2839 3082 2964 2709 
z
" transform="scale(0.015625)"/>
       <path id="Inter-Regular-64" d="M 1809 -73 
Q 1373 -73 1039 148 
Q 705 370 516 776 
Q 327 1182 327 1736 
Q 327 2286 516 2690 
Q 705 3095 1041 3315 
Q 1377 3536 1818 3536 
Q 2159 3536 2358 3423 
Q 2557 3311 2662 3169 
Q 2768 3027 2827 2936 
L 2873 2936 
L 2873 4655 
L 3409 4655 
L 3409 0 
L 2891 0 
L 2891 536 
L 2827 536 
Q 2768 441 2659 296 
Q 2550 152 2348 39 
Q 2146 -73 1809 -73 
z
M 1882 409 
Q 2366 409 2624 780 
Q 2882 1152 2882 1745 
Q 2882 2332 2627 2693 
Q 2373 3055 1882 3055 
Q 1541 3055 1315 2881 
Q 1089 2707 976 2410 
Q 864 2114 864 1745 
Q 864 1373 978 1069 
Q 1093 766 1319 587 
Q 1546 409 1882 409 
z
" transform="scale(0.015625)"/>
      </defs>
      <use xlink:href="#Inter-Regular-50"/>
      <use xlink:href="#Inter-Regular-65" x="63.494324"/>
      <use xlink:href="#Inter-Regular-72" x="121.732971"/>
      <use xlink:href="#Inter-Regular-63" x="160.085251"/>
      <use xlink:href="#Inter-Regular-65" x="215.909119"/>
      <use xlink:href="#Inter-Regular-6e" x="274.147766"/>
      <use xlink:href="#Inter-Regular-74" x="332.670502"/>
      <use xlink:href="#Inter-Regular-20" x="369.034149"/>
      <use xlink:href="#Inter-Regular-6f" x="397.159149"/>
      <use xlink:href="#Inter-Regular-66" x="456.818253"/>
      <use xlink:href="#Inter-Regular-20" x="492.897797"/>
      <use xlink:href="#Inter-Regular-6e" x="521.022797"/>
      <use xlink:href="#Inter-Regular-61" x="579.545532"/>
      <use xlink:href="#Inter-Regular-74" x="635.937592"/>
      <use xlink:href="#Inter-Regular-69" x="672.301239"/>
      <use xlink:href="#Inter-Regular-6f" x="696.022827"/>
      <use xlink:href="#Inter-Regular-6e" x="755.681931"/>
      <use xlink:href="#Inter-Regular-20" x="814.204666"/>
      <use xlink:href="#Inter-Regular-74" x="842.329666"/>
      <use xlink:href="#Inter-Regular-65" x="878.693314"/>
      <use xlink:href="#Inter-Regular-73" x="936.931961"/>
      <use xlink:href="#Inter-Regular-74" x="989.204697"/>
      <use xlink:href="#Inter-Regular-65" x="1025.568344"/>
      <use xlink:href="#Inter-Regular-64" x="1083.806992"/>
      <use xlink:href="#Inter-Regular-20" x="1145.880875"/>
      <use xlink:href="#Inter-Regular-70" x="1174.005875"/>
      <use xlink:href="#Inter-Regular-6f" x="1234.94339"/>
      <use xlink:href="#Inter-Regular-73" x="1294.602493"/>
      <use xlink:href="#Inter-Regular-69" x="1346.875229"/>
      <use xlink:href="#Inter-Regular-74" x="1370.596817"/>
      <use xlink:href="#Inter-Regular-69" x="1406.960464"/>
      <use xlink:href="#Inter-Regular-76" x="1430.682053"/>
      <use xlink:href="#Inter-Regular-65" x="1486.363876"/>
     </g>
    </g>
   </g>
   <g id="line2d_39">
    <path d="M 35.775985 476.744917 
L 83.844181 476.654779 
L 91.003274 476.415662 
L 97.13964 475.877432 
L 120.662374 472.524055 
L 124.753285 472.100986 
L 138.048743 471.120528 
L 160.54875 470.404994 
L 182.026029 470.130491 
L 200.435126 469.871967 
L 211.685129 469.606465 
L 226.003315 469.205941 
L 248.503322 468.382761 
L 261.798781 467.552231 
L 267.935146 466.88699 
L 272.026057 466.366556 
L 277.139695 465.54317 
L 281.230605 464.684562 
L 283.27606 464.314304 
L 286.344243 463.651912 
L 287.36697 463.20572 
L 288.389698 462.325847 
L 291.457881 460.886397 
L 292.480608 460.269012 
L 296.571519 458.393156 
L 298.616974 457.136171 
L 299.639701 456.469774 
L 301.685156 455.417882 
L 303.730612 454.135008 
L 304.753339 453.399447 
L 305.776067 452.451899 
L 310.889705 448.811177 
L 322.139708 439.836177 
L 324.185163 438.177595 
L 327.253346 435.79807 
L 328.276074 434.524527 
L 331.344256 431.599628 
L 333.389712 430.073013 
L 335.435167 428.525421 
L 338.503349 426.372997 
L 339.526077 425.822627 
L 340.548805 425.415745 
L 342.59426 424.155126 
L 344.639715 423.045221 
L 347.707898 421.701566 
L 353.844263 418.509348 
L 355.889718 417.542351 
L 362.026084 413.225817 
L 366.116994 409.383265 
L 373.276087 400.057249 
L 374.298815 398.999412 
L 375.321542 397.491831 
L 381.457908 385.638179 
L 385.548818 376.924883 
L 386.571546 374.374866 
L 388.617001 370.057961 
L 392.707911 363.029715 
L 393.730639 360.934561 
L 395.776094 357.9194 
L 401.91246 349.597255 
L 402.935187 348.458445 
L 406.00337 345.940388 
L 408.048825 343.756459 
L 410.09428 342.098909 
L 417.253373 337.321029 
L 423.389739 334.359051 
L 434.639742 330.145951 
L 436.685197 329.484633 
L 438.730653 329.005366 
L 443.84429 327.916437 
L 452.026111 326.30249 
L 456.117021 325.58997 
L 460.207932 324.837935 
L 468.389752 323.368755 
L 474.526118 322.618206 
L 496.003397 320.778108 
L 520.548859 318.938629 
L 533.844318 317.604513 
L 536.9125 317.07194 
L 542.026138 316.015754 
L 549.185231 314.080728 
L 554.298869 312.261688 
L 555.321597 311.886104 
L 558.38978 310.262082 
L 559.412507 309.6371 
L 560.435235 309.159774 
L 563.503418 306.814562 
L 566.5716 304.062177 
L 568.617056 302.256103 
L 570.662511 300.075477 
L 572.707966 297.612379 
L 576.798876 292.589106 
L 577.821604 291.024378 
L 579.867059 287.230425 
L 580.889787 285.126435 
L 581.912514 283.277542 
L 582.935242 281.846515 
L 584.980697 278.429055 
L 587.026152 275.591074 
L 589.071607 273.344754 
L 592.13979 270.584937 
L 594.185245 268.364919 
L 596.2307 266.482291 
L 598.276155 264.905507 
L 603.389793 259.484022 
L 606.457976 256.627006 
L 609.526159 253.180353 
L 612.594342 250.341918 
L 617.707979 244.523171 
L 620.776162 241.427079 
L 622.821617 239.075054 
L 624.867073 237.108811 
L 627.935255 234.341727 
L 637.139804 223.821448 
L 638.162531 222.837687 
L 642.253441 219.418492 
L 647.367079 214.535898 
L 649.412535 212.376785 
L 652.480717 208.853371 
L 654.526172 206.587851 
L 659.63981 200.670831 
L 661.685266 198.46477 
L 662.707993 197.273686 
L 666.798903 191.898778 
L 669.867086 187.904604 
L 672.935269 183.253695 
L 680.094362 171.611329 
L 681.11709 169.907698 
L 686.230728 162.879328 
L 688.276183 159.862722 
L 694.412548 152.22122 
L 699.526186 146.670824 
L 702.594369 142.454174 
L 705.662552 138.667901 
L 706.685279 137.402823 
L 708.730734 134.251442 
L 714.8671 125.176766 
L 715.889827 123.431307 
L 718.95801 119.184927 
L 719.980738 117.797958 
L 722.026193 114.189154 
L 724.071648 110.727429 
L 726.117103 107.468692 
L 727.139831 105.863871 
L 730.208014 100.228581 
L 731.230741 98.224309 
L 733.276196 94.687971 
L 734.298924 92.495701 
L 735.321651 89.652063 
L 735.321651 89.652063 
" clip-path="url(#p69cfd8f04f)" style="fill: none; stroke: #5694ca; stroke-width: 2; stroke-linecap: square"/>
   </g>
   <g id="line2d_40">
    <path d="M 35.775985 476.745 
L 85.889637 476.644359 
L 94.071457 476.352255 
L 105.321461 475.106516 
L 109.412371 474.533353 
L 112.480554 474.187246 
L 115.548736 473.698769 
L 117.594192 473.401756 
L 119.639647 473.222566 
L 122.70783 472.790546 
L 125.776012 472.567172 
L 130.88965 472.126561 
L 136.003288 471.813592 
L 142.139654 471.483441 
L 164.63966 470.888186 
L 176.912391 470.782636 
L 213.730584 470.634129 
L 222.935133 470.571535 
L 232.139681 470.478258 
L 242.366957 469.967689 
L 244.412412 469.856002 
L 245.435139 469.70995 
L 247.480595 469.639992 
L 259.753326 468.530487 
L 260.776053 468.357434 
L 263.844236 468.15247 
L 269.980601 467.420982 
L 273.048784 466.765588 
L 275.094239 466.396162 
L 276.116967 466.304112 
L 279.18515 465.467074 
L 280.207877 465.075556 
L 282.253332 464.576033 
L 283.27606 464.183288 
L 284.298788 463.6629 
L 285.321515 463.345022 
L 286.344243 462.198697 
L 287.36697 461.307656 
L 288.389698 460.74063 
L 290.435153 459.163512 
L 292.480608 457.014459 
L 293.503336 455.688944 
L 294.526063 454.581893 
L 295.548791 453.27356 
L 297.594246 451.138008 
L 298.616974 449.644349 
L 299.639701 448.707897 
L 300.662429 447.113596 
L 302.707884 444.606163 
L 304.753339 442.479202 
L 306.798794 439.92513 
L 307.821522 438.388514 
L 309.866977 436.156003 
L 312.93516 433.346647 
L 313.957887 432.337782 
L 316.003343 430.846578 
L 317.02607 430.005857 
L 319.071525 428.701207 
L 320.094253 427.86785 
L 326.230618 424.131861 
L 327.253346 423.161044 
L 331.344256 420.537014 
L 332.366984 420.130768 
L 335.435167 418.223499 
L 338.503349 416.912712 
L 339.526077 416.56906 
L 340.548805 416.472101 
L 342.59426 415.275455 
L 344.639715 414.408961 
L 348.730625 412.631788 
L 352.821536 410.453279 
L 356.912446 408.401185 
L 358.957901 407.156674 
L 363.048811 404.827203 
L 364.071539 404.022075 
L 365.094267 403.396138 
L 366.116994 402.610647 
L 369.185177 400.770881 
L 371.230632 398.772789 
L 372.25336 398.772789 
L 373.276087 397.547915 
L 374.298815 397.547915 
L 376.34427 393.620462 
L 378.389725 388.622778 
L 379.412453 388.622778 
L 380.43518 384.23385 
L 385.548818 374.125568 
L 387.594273 370.514767 
L 388.617001 369.149977 
L 389.639729 368.218434 
L 391.685184 365.334211 
L 393.730639 362.84887 
L 397.821549 359.314162 
L 398.844277 358.203429 
L 399.867004 357.305025 
L 400.889732 356.243385 
L 401.91246 355.421075 
L 403.957915 354.371708 
L 407.026097 352.323296 
L 408.048825 351.502213 
L 410.09428 350.420936 
L 411.117008 350.035555 
L 417.253373 346.853091 
L 431.571559 341.806314 
L 433.617015 341.300655 
L 437.707925 340.115055 
L 440.776108 339.595895 
L 442.821563 339.118464 
L 449.980656 337.608849 
L 452.026111 337.174375 
L 471.457935 333.930544 
L 473.50339 333.696124 
L 475.548846 333.586892 
L 478.617028 333.288651 
L 494.98067 331.177645 
L 500.094308 330.627802 
L 503.16249 330.300105 
L 506.230673 329.998182 
L 511.344311 329.480249 
L 526.685225 327.933815 
L 541.003411 326.724896 
L 550.207959 325.453383 
L 553.276142 324.887584 
L 555.321597 324.494839 
L 558.38978 323.740031 
L 560.435235 323.053955 
L 562.48069 322.453791 
L 566.5716 320.612797 
L 567.594328 319.958631 
L 569.639783 318.931356 
L 577.821604 313.375238 
L 578.844331 312.046041 
L 580.889787 308.631612 
L 581.912514 307.972536 
L 582.935242 305.7928 
L 583.957969 304.396099 
L 584.980697 301.974579 
L 589.071607 295.161676 
L 590.094335 294.377413 
L 593.162518 288.80043 
L 596.2307 284.688878 
L 597.253428 283.618647 
L 599.298883 281.014255 
L 600.321611 279.000208 
L 602.367066 275.584551 
L 605.435249 271.331856 
L 610.548886 262.498769 
L 611.571614 260.895878 
L 612.594342 258.976335 
L 613.617069 257.325578 
L 614.639797 254.916331 
L 615.662524 251.974423 
L 617.707979 248.173385 
L 618.730707 246.553311 
L 621.79889 240.454713 
L 622.821617 238.153472 
L 623.844345 236.398391 
L 626.912528 231.738223 
L 627.935255 229.931595 
L 628.957983 228.958323 
L 629.98071 227.426616 
L 631.003438 225.202696 
L 632.026166 223.690627 
L 634.071621 219.380247 
L 635.094348 217.895179 
L 637.139804 213.577436 
L 638.162531 211.829719 
L 639.185259 210.564343 
L 640.207986 209.092776 
L 641.230714 207.141323 
L 642.253441 205.540886 
L 643.276169 204.226416 
L 644.298897 202.705756 
L 645.321624 201.390059 
L 647.367079 199.047088 
L 650.435262 194.910989 
L 655.5489 188.589018 
L 657.594355 185.54156 
L 659.63981 183.048855 
L 660.662538 181.954077 
L 662.707993 179.144721 
L 666.798903 172.769974 
L 668.844359 170.040395 
L 669.867086 168.471868 
L 671.912541 165.06603 
L 673.957997 161.915477 
L 676.003452 159.390861 
L 678.048907 155.966613 
L 679.071634 154.67669 
L 681.11709 151.389903 
L 684.185272 147.457541 
L 685.208 145.873059 
L 686.230728 144.495996 
L 688.276183 141.393309 
L 692.367093 136.412808 
L 693.389821 134.595133 
L 696.458003 130.430806 
L 697.480731 129.169112 
L 698.503459 127.661952 
L 699.526186 125.495716 
L 700.548914 123.701361 
L 701.571641 122.367255 
L 702.594369 120.150698 
L 704.639824 116.672448 
L 708.730734 108.183013 
L 709.753462 105.917364 
L 712.821645 100.577256 
L 713.844372 98.207283 
L 714.8671 96.306151 
L 715.889827 93.846584 
L 719.980738 86.561159 
L 721.003465 84.116319 
L 722.026193 81.327828 
L 723.04892 78.986084 
L 724.071648 76.97081 
L 725.094376 75.225548 
L 727.139831 71.183954 
L 729.185286 66.579015 
L 730.208014 64.362459 
L 733.276196 58.931528 
L 734.298924 56.991121 
L 735.321651 54.345 
L 735.321651 54.345 
" clip-path="url(#p69cfd8f04f)" style="fill: none; stroke: #ffdd00; stroke-width: 2; stroke-linecap: square"/>
   </g>
   <g id="line2d_41">
    <path d="M 35.775985 476.745 
L 83.844181 476.648432 
L 91.003274 476.439129 
L 97.13964 475.897154 
L 129.866923 471.671113 
L 148.276019 470.46975 
L 155.435112 470.261724 
L 169.753298 470.080924 
L 237.253319 469.494706 
L 250.548777 469.146719 
L 256.685143 468.814047 
L 268.957874 467.909196 
L 276.116967 467.061351 
L 279.18515 466.419404 
L 280.207877 466.11566 
L 282.253332 465.874877 
L 284.298788 465.259732 
L 287.36697 464.320848 
L 290.435153 463.361544 
L 297.594246 460.149685 
L 299.639701 458.96704 
L 301.685156 457.961792 
L 302.707884 457.827362 
L 303.730612 457.404928 
L 305.776067 456.045737 
L 307.821522 454.72143 
L 309.866977 453.557503 
L 312.93516 452.004325 
L 322.139708 447.610246 
L 323.162436 446.931289 
L 325.207891 446.068979 
L 326.230618 445.715036 
L 331.344256 443.117046 
L 332.366984 442.812026 
L 335.435167 441.280118 
L 337.480622 440.469709 
L 341.571532 439.00459 
L 343.616987 438.071237 
L 345.662443 437.418655 
L 346.68517 437.261678 
L 348.730625 436.536351 
L 351.798808 435.387313 
L 354.866991 434.531385 
L 357.935174 433.327044 
L 359.980629 432.534076 
L 367.139722 430.247062 
L 369.185177 429.047401 
L 373.276087 426.997767 
L 375.321542 426.271589 
L 377.366998 424.595466 
L 379.412453 422.399916 
L 382.480636 419.632187 
L 383.503363 418.55632 
L 384.526091 417.688905 
L 386.571546 415.579714 
L 394.753366 409.212149 
L 398.844277 406.833672 
L 400.889732 405.508089 
L 402.935187 404.443708 
L 403.957915 404.123799 
L 406.00337 403.111744 
L 409.071553 401.686614 
L 411.117008 400.899177 
L 413.162463 400.160662 
L 415.207918 399.29112 
L 416.230646 398.910377 
L 417.253373 398.661936 
L 420.321556 397.57586 
L 432.594287 393.390233 
L 438.730653 391.731127 
L 440.776108 391.336345 
L 445.889746 390.278771 
L 449.980656 389.32202 
L 453.048839 388.554151 
L 455.094294 388.106193 
L 460.207932 386.862289 
L 462.253387 386.498987 
L 466.344297 385.435883 
L 474.526118 384.040107 
L 497.026125 381.827965 
L 506.230673 381.239621 
L 510.321583 380.838457 
L 513.389766 380.518973 
L 520.548859 379.662619 
L 525.662497 378.851359 
L 527.707952 378.483803 
L 529.753407 378.013723 
L 535.889773 376.48692 
L 537.935228 375.699057 
L 543.048866 374.058244 
L 546.117049 372.709688 
L 548.162504 371.971599 
L 554.298869 368.968191 
L 555.321597 368.046324 
L 557.367052 365.507466 
L 558.38978 364.764271 
L 561.457962 361.037664 
L 562.48069 359.71123 
L 566.5716 353.307931 
L 568.617056 351.139182 
L 569.639783 350.133934 
L 570.662511 348.517794 
L 571.685238 347.32579 
L 572.707966 345.957666 
L 576.798876 342.171075 
L 577.821604 341.049689 
L 581.912514 337.567694 
L 583.957969 336.26253 
L 587.026152 334.128665 
L 589.071607 333.046417 
L 592.13979 331.675315 
L 594.185245 330.461189 
L 599.298883 328.275423 
L 603.389793 326.039033 
L 605.435249 325.237983 
L 611.571614 321.403746 
L 612.594342 320.631624 
L 613.617069 319.551928 
L 618.730707 312.395225 
L 619.753435 310.55617 
L 621.79889 306.325024 
L 622.821617 303.417334 
L 623.844345 300.925272 
L 624.867073 297.899318 
L 625.8898 296.243189 
L 628.957983 288.330955 
L 631.003438 282.858883 
L 637.139804 266.443942 
L 638.162531 264.615522 
L 639.185259 262.100487 
L 640.207986 260.296316 
L 641.230714 258.860551 
L 642.253441 256.768801 
L 643.276169 256.768801 
L 645.321624 251.81488 
L 646.344352 250.184277 
L 648.389807 247.722419 
L 650.435262 244.47993 
L 652.480717 241.532677 
L 653.503445 240.445324 
L 655.5489 238.556921 
L 658.617083 234.897954 
L 659.63981 233.828043 
L 662.707993 231.336831 
L 664.753448 228.892415 
L 666.798903 226.746638 
L 668.844359 224.764219 
L 669.867086 223.952533 
L 682.139817 210.833683 
L 686.230728 206.911386 
L 687.253455 205.749161 
L 688.276183 204.104094 
L 689.29891 203.035034 
L 691.344365 201.301481 
L 692.367093 199.814666 
L 693.389821 198.613729 
L 694.412548 197.59742 
L 696.458003 194.978159 
L 698.503459 193.172286 
L 699.526186 191.5336 
L 702.594369 187.389663 
L 703.617096 186.080671 
L 704.639824 185.107329 
L 705.662552 183.928513 
L 708.730734 179.808399 
L 711.798917 176.44169 
L 712.821645 175.366674 
L 715.889827 171.580509 
L 719.980738 167.633964 
L 723.04892 164.132824 
L 724.071648 163.598082 
L 725.094376 162.489033 
L 726.117103 160.832479 
L 729.185286 156.862111 
L 730.208014 154.727394 
L 733.276196 149.688391 
L 734.298924 148.362383 
L 735.321651 146.169385 
L 735.321651 146.169385 
" clip-path="url(#p69cfd8f04f)" style="fill: none; stroke: #003078; stroke-width: 2; stroke-linecap: square"/>
   </g>
   <g id="line2d_42">
    <path d="M 35.775985 476.745 
L 83.844181 476.635164 
L 87.935092 476.489208 
L 92.026002 476.19877 
L 99.185095 475.1815 
L 105.321461 473.742578 
L 106.344188 473.730784 
L 107.366916 473.360733 
L 111.457826 472.433395 
L 125.776012 469.728783 
L 128.844195 469.389693 
L 133.957833 468.805868 
L 137.026016 468.542705 
L 139.071471 468.286913 
L 144.185109 467.789335 
L 152.366929 466.928341 
L 161.571478 466.329773 
L 166.685116 466.127056 
L 181.003302 465.588935 
L 192.253305 465.113472 
L 206.571491 464.954984 
L 221.912405 464.668232 
L 254.639688 464.072613 
L 259.753326 463.838198 
L 268.957874 462.878426 
L 276.116967 461.788914 
L 281.230605 460.470149 
L 283.27606 459.989525 
L 286.344243 459.069559 
L 289.412425 457.887167 
L 290.435153 457.573877 
L 293.503336 455.984576 
L 295.548791 455.178131 
L 296.571519 454.819138 
L 297.594246 454.255954 
L 298.616974 453.558608 
L 299.639701 453.022698 
L 300.662429 452.301026 
L 301.685156 451.804185 
L 302.707884 451.10389 
L 303.730612 450.642433 
L 305.776067 449.087041 
L 306.798794 448.25111 
L 307.821522 447.690137 
L 308.84425 446.714147 
L 311.912432 444.156966 
L 313.957887 442.101047 
L 314.980615 440.820614 
L 316.003343 439.861578 
L 317.02607 439.25785 
L 318.048798 438.044498 
L 320.094253 436.333567 
L 322.139708 434.399279 
L 323.162436 433.693087 
L 324.185163 433.144645 
L 325.207891 432.458356 
L 326.230618 432.131061 
L 328.276074 430.807872 
L 330.321529 429.532598 
L 331.344256 428.549974 
L 332.366984 427.892434 
L 334.412439 426.902439 
L 337.480622 424.629061 
L 341.571532 422.268698 
L 345.662443 418.726681 
L 347.707898 417.643804 
L 351.798808 413.170026 
L 353.844263 410.267857 
L 354.866991 409.692878 
L 358.957901 403.107158 
L 359.980629 403.107158 
L 361.003356 402.201935 
L 363.048811 401.357896 
L 364.071539 392.904232 
L 367.139722 386.859582 
L 369.185177 382.934982 
L 370.207905 380.713942 
L 371.230632 379.120955 
L 372.25336 379.120955 
L 373.276087 377.471945 
L 374.298815 374.41866 
L 378.389725 367.861689 
L 379.412453 367.861689 
L 380.43518 365.8242 
L 381.457908 362.867482 
L 383.503363 359.943198 
L 384.526091 358.293451 
L 385.548818 357.027023 
L 387.594273 353.444462 
L 390.662456 349.917188 
L 392.707911 347.575254 
L 393.730639 346.242483 
L 395.776094 344.546295 
L 396.798822 343.564408 
L 398.844277 341.803351 
L 399.867004 340.953414 
L 400.889732 340.362955 
L 401.91246 339.567568 
L 404.980642 337.917821 
L 406.00337 337.52197 
L 409.071553 336.056511 
L 413.162463 334.358111 
L 418.276101 332.375909 
L 421.344284 331.576835 
L 422.367011 331.128647 
L 425.435194 330.275761 
L 428.503377 329.583575 
L 429.526104 329.190673 
L 433.617015 328.206574 
L 445.889746 326.204468 
L 451.003384 325.511545 
L 461.230659 324.02692 
L 464.298842 323.648761 
L 468.389752 323.142337 
L 486.798849 322.001962 
L 488.844304 321.93267 
L 492.935214 321.724793 
L 503.16249 321.379069 
L 506.230673 321.291348 
L 520.548859 320.830627 
L 531.798863 320.545349 
L 533.844318 320.476057 
L 539.980683 320.203311 
L 541.003411 320.187093 
L 543.048866 319.93941 
L 553.276142 319.056301 
L 554.298869 318.69952 
L 556.344325 318.413504 
L 558.38978 317.842949 
L 559.412507 317.842949 
L 560.435235 317.536293 
L 561.457962 317.042401 
L 562.48069 316.835261 
L 565.548873 315.682355 
L 566.5716 315.682355 
L 567.594328 315.287978 
L 568.617056 314.362115 
L 572.707966 312.359272 
L 573.730693 312.359272 
L 574.753421 311.844739 
L 575.776149 310.967528 
L 576.798876 310.424246 
L 577.821604 309.587578 
L 578.844331 308.95289 
L 579.867059 308.154554 
L 580.889787 308.154554 
L 581.912514 307.334841 
L 582.935242 305.821467 
L 583.957969 305.412347 
L 584.980697 304.718687 
L 587.026152 303.637284 
L 588.04888 303.637284 
L 590.094335 301.891707 
L 594.185245 299.798194 
L 595.207973 299.798194 
L 596.2307 299.268182 
L 597.253428 298.452891 
L 600.321611 297.074416 
L 601.344338 296.482483 
L 602.367066 296.482483 
L 603.389793 295.845583 
L 604.412521 294.840107 
L 605.435249 294.439833 
L 606.457976 294.439833 
L 607.480704 293.07905 
L 608.503431 292.275554 
L 609.526159 292.275554 
L 610.548886 291.465423 
L 611.571614 289.70068 
L 612.594342 289.139707 
L 614.639797 287.036611 
L 615.662524 285.762812 
L 616.685252 285.762812 
L 617.707979 284.564202 
L 618.730707 282.170668 
L 619.753435 281.143815 
L 620.776162 279.88697 
L 621.79889 278.125913 
L 622.821617 276.805673 
L 623.844345 276.805673 
L 624.867073 275.068205 
L 625.8898 275.068205 
L 626.912528 272.21395 
L 627.935255 269.760707 
L 629.98071 266.321154 
L 631.003438 266.321154 
L 632.026166 264.560097 
L 633.048893 260.755653 
L 637.139804 253.430569 
L 638.162531 253.430569 
L 639.185259 251.722587 
L 640.207986 248.546935 
L 641.230714 247.128653 
L 642.253441 245.434677 
L 644.298897 241.373704 
L 645.321624 241.373704 
L 646.344352 239.370861 
L 647.367079 235.494914 
L 651.45799 227.928781 
L 652.480717 227.928781 
L 653.503445 225.493967 
L 654.526172 221.322421 
L 655.5489 219.649085 
L 656.571628 217.165619 
L 657.594355 215.263765 
L 658.617083 213.045674 
L 659.63981 213.045674 
L 660.662538 211.327371 
L 661.685266 208.389082 
L 662.707993 207.093168 
L 663.730721 205.613703 
L 664.753448 203.107385 
L 665.776176 198.90193 
L 667.821631 198.90193 
L 668.844359 195.607596 
L 670.889814 192.428257 
L 671.912541 190.485861 
L 672.935269 188.178574 
L 673.957997 188.178574 
L 674.980724 185.992917 
L 676.003452 181.276616 
L 678.048907 176.374552 
L 679.071634 173.249026 
L 680.094362 170.819371 
L 681.11709 170.819371 
L 682.139817 168.495867 
L 683.162545 168.495867 
L 684.185272 164.597805 
L 687.253455 158.842856 
L 688.276183 158.842856 
L 689.29891 156.619604 
L 690.321638 152.946373 
L 692.367093 149.480283 
L 693.389821 147.416993 
L 694.412548 145.953008 
L 695.435276 145.953008 
L 696.458003 144.048944 
L 697.480731 140.876977 
L 698.503459 139.561897 
L 700.548914 136.388456 
L 701.571641 134.336223 
L 702.594369 134.336223 
L 703.617096 132.376135 
L 704.639824 129.044206 
L 705.662552 127.628136 
L 708.730734 122.137088 
L 709.753462 122.137088 
L 710.77619 120.362025 
L 711.798917 117.052947 
L 713.844372 114.04168 
L 714.8671 112.289469 
L 715.889827 110.131823 
L 716.912555 110.131823 
L 717.935283 108.684793 
L 718.95801 105.759035 
L 721.003465 102.781676 
L 722.026193 100.724284 
L 723.04892 98.987553 
L 724.071648 98.987553 
L 725.094376 97.095283 
L 726.117103 93.848126 
L 728.162558 90.589913 
L 730.208014 87.078118 
L 731.230741 87.078118 
L 732.253469 85.168156 
L 733.276196 81.819273 
L 734.298924 80.478393 
L 735.321651 78.686375 
L 735.321651 78.686375 
" clip-path="url(#p69cfd8f04f)" style="fill: none; stroke: #d4351c; stroke-width: 2; stroke-linecap: square"/>
   </g>
   <g id="patch_3">
    <path d="M 66.457813 476.745 
L 736.057812 476.745 
" style="fill: none; stroke: #000000; stroke-width: 0.8; stroke-linejoin: miter; stroke-linecap: square"/>
   </g>
   <g id="text_21">
    <!-- Cumulative COVID-19 cases by date reported, per capita -->
    <g transform="translate(234.71375 27.225)scale(0.12 -0.12)">
     <defs>
      <path id="Inter-Bold-43" d="M 4511 3025 
L 3516 3025 
Q 3459 3409 3188 3628 
Q 2918 3848 2514 3848 
Q 1973 3848 1647 3451 
Q 1321 3055 1321 2327 
Q 1321 1582 1649 1194 
Q 1977 807 2507 807 
Q 2900 807 3173 1012 
Q 3446 1218 3516 1591 
L 4511 1586 
Q 4459 1159 4207 782 
Q 3955 405 3522 170 
Q 3089 -64 2491 -64 
Q 1868 -64 1378 218 
Q 889 500 606 1034 
Q 323 1568 323 2327 
Q 323 3089 609 3623 
Q 896 4157 1386 4437 
Q 1877 4718 2491 4718 
Q 3030 4718 3463 4519 
Q 3896 4320 4172 3942 
Q 4448 3564 4511 3025 
z
" transform="scale(0.015625)"/>
      <path id="Inter-Bold-75" d="M 2625 1486 
L 2625 3491 
L 3593 3491 
L 3593 0 
L 2664 0 
L 2664 634 
L 2627 634 
Q 2509 327 2235 141 
Q 1961 -45 1568 -45 
Q 1041 -45 715 306 
Q 389 657 386 1268 
L 386 3491 
L 1355 3491 
L 1355 1441 
Q 1357 1132 1520 952 
Q 1684 773 1959 773 
Q 2221 773 2424 954 
Q 2627 1136 2625 1486 
z
" transform="scale(0.015625)"/>
      <path id="Inter-Bold-6d" d="M 386 0 
L 386 3491 
L 1309 3491 
L 1309 2875 
L 1350 2875 
Q 1459 3184 1715 3360 
Q 1971 3536 2323 3536 
Q 2682 3536 2934 3358 
Q 3186 3180 3271 2875 
L 3307 2875 
Q 3414 3175 3694 3355 
Q 3975 3536 4359 3536 
Q 4848 3536 5153 3226 
Q 5459 2916 5459 2348 
L 5459 0 
L 4493 0 
L 4493 2157 
Q 4493 2448 4338 2593 
Q 4184 2739 3952 2739 
Q 3689 2739 3541 2570 
Q 3393 2402 3393 2132 
L 3393 0 
L 2455 0 
L 2455 2177 
Q 2455 2434 2308 2586 
Q 2161 2739 1923 2739 
Q 1682 2739 1518 2562 
Q 1355 2386 1355 2095 
L 1355 0 
L 386 0 
z
" transform="scale(0.015625)"/>
      <path id="Inter-Bold-6c" d="M 1355 4655 
L 1355 0 
L 386 0 
L 386 4655 
L 1355 4655 
z
" transform="scale(0.015625)"/>
      <path id="Inter-Bold-61" d="M 1382 -66 
Q 882 -66 552 195 
Q 223 457 223 975 
Q 223 1366 407 1588 
Q 591 1811 890 1914 
Q 1189 2018 1534 2050 
Q 1989 2095 2184 2145 
Q 2380 2195 2380 2364 
L 2380 2377 
Q 2380 2593 2244 2711 
Q 2109 2830 1861 2830 
Q 1600 2830 1445 2716 
Q 1291 2602 1241 2427 
L 346 2500 
Q 446 2977 842 3256 
Q 1239 3536 1866 3536 
Q 2255 3536 2593 3413 
Q 2932 3291 3140 3030 
Q 3348 2770 3348 2355 
L 3348 0 
L 2430 0 
L 2430 484 
L 2402 484 
Q 2275 241 2021 87 
Q 1768 -66 1382 -66 
z
M 1659 602 
Q 1977 602 2181 787 
Q 2386 973 2386 1248 
L 2386 1618 
Q 2330 1580 2210 1550 
Q 2091 1520 1956 1498 
Q 1821 1477 1714 1461 
Q 1459 1425 1303 1318 
Q 1148 1211 1148 1007 
Q 1148 807 1292 704 
Q 1436 602 1659 602 
z
" transform="scale(0.015625)"/>
      <path id="Inter-Bold-74" d="M 2243 3491 
L 2243 2764 
L 1586 2764 
L 1586 1073 
Q 1586 873 1677 802 
Q 1768 732 1914 732 
Q 1982 732 2050 744 
Q 2118 757 2155 764 
L 2307 43 
Q 2234 20 2102 -10 
Q 1971 -41 1782 -48 
Q 1255 -70 935 181 
Q 616 432 618 945 
L 618 2764 
L 141 2764 
L 141 3491 
L 618 3491 
L 618 4327 
L 1586 4327 
L 1586 3491 
L 2243 3491 
z
" transform="scale(0.015625)"/>
      <path id="Inter-Bold-69" d="M 386 0 
L 386 3491 
L 1355 3491 
L 1355 0 
L 386 0 
z
M 876 3941 
Q 662 3941 507 4085 
Q 353 4230 353 4432 
Q 353 4634 507 4777 
Q 662 4920 876 4920 
Q 1092 4920 1246 4777 
Q 1401 4634 1401 4432 
Q 1401 4230 1246 4085 
Q 1092 3941 876 3941 
z
" transform="scale(0.015625)"/>
      <path id="Inter-Bold-76" d="M 3641 3491 
L 2421 0 
L 1330 0 
L 109 3491 
L 1132 3491 
L 1857 993 
L 1893 993 
L 2616 3491 
L 3641 3491 
z
" transform="scale(0.015625)"/>
      <path id="Inter-Bold-65" d="M 1977 -68 
Q 1441 -68 1052 151 
Q 664 370 455 773 
Q 246 1177 246 1730 
Q 246 2268 455 2675 
Q 664 3082 1044 3309 
Q 1425 3536 1939 3536 
Q 2400 3536 2771 3340 
Q 3143 3145 3361 2751 
Q 3580 2357 3580 1764 
L 3580 1498 
L 1202 1498 
L 1202 1495 
Q 1202 1105 1416 880 
Q 1630 655 1993 655 
Q 2236 655 2413 757 
Q 2591 859 2664 1059 
L 3559 1000 
Q 3457 514 3041 223 
Q 2625 -68 1977 -68 
z
M 1202 2098 
L 2668 2098 
Q 2666 2409 2468 2611 
Q 2271 2814 1955 2814 
Q 1632 2814 1425 2604 
Q 1218 2395 1202 2098 
z
" transform="scale(0.015625)"/>
      <path id="Inter-Bold-20" transform="scale(0.015625)"/>
      <path id="Inter-Bold-4f" d="M 4682 2327 
Q 4682 1566 4394 1032 
Q 4107 498 3614 217 
Q 3121 -64 2502 -64 
Q 1882 -64 1389 218 
Q 896 500 609 1035 
Q 323 1570 323 2327 
Q 323 3089 609 3623 
Q 896 4157 1389 4437 
Q 1882 4718 2502 4718 
Q 3121 4718 3614 4437 
Q 4107 4157 4394 3623 
Q 4682 3089 4682 2327 
z
M 3684 2327 
Q 3684 3068 3361 3458 
Q 3039 3848 2502 3848 
Q 1966 3848 1643 3458 
Q 1321 3068 1321 2327 
Q 1321 1589 1643 1198 
Q 1966 807 2502 807 
Q 3039 807 3361 1198 
Q 3684 1589 3684 2327 
z
" transform="scale(0.015625)"/>
      <path id="Inter-Bold-56" d="M 1246 4655 
L 2371 1118 
L 2414 1118 
L 3541 4655 
L 4632 4655 
L 3027 0 
L 1759 0 
L 152 4655 
L 1246 4655 
z
" transform="scale(0.015625)"/>
      <path id="Inter-Bold-49" d="M 1389 4655 
L 1389 0 
L 405 0 
L 405 4655 
L 1389 4655 
z
" transform="scale(0.015625)"/>
      <path id="Inter-Bold-44" d="M 2055 0 
L 405 0 
L 405 4655 
L 2068 4655 
Q 2771 4655 3278 4376 
Q 3786 4098 4059 3577 
Q 4332 3057 4332 2332 
Q 4332 1605 4058 1082 
Q 3784 559 3274 279 
Q 2764 0 2055 0 
z
M 1389 843 
L 2014 843 
Q 2671 843 3010 1197 
Q 3350 1552 3350 2332 
Q 3350 3107 3010 3459 
Q 2671 3811 2016 3811 
L 1389 3811 
L 1389 843 
z
" transform="scale(0.015625)"/>
      <path id="Inter-Bold-2d" d="M 2561 2295 
L 2561 1527 
L 439 1527 
L 439 2295 
L 2561 2295 
z
" transform="scale(0.015625)"/>
      <path id="Inter-Bold-31" d="M 2305 4655 
L 2305 0 
L 1323 0 
L 1323 3450 
L 1280 3450 
Q 1205 3334 961 3219 
Q 718 3105 332 3105 
L 332 3886 
Q 632 3886 857 4019 
Q 1082 4152 1209 4333 
Q 1336 4514 1341 4655 
L 2305 4655 
z
" transform="scale(0.015625)"/>
      <path id="Inter-Bold-39" d="M 2061 4732 
Q 2421 4732 2753 4612 
Q 3086 4493 3348 4227 
Q 3611 3961 3766 3523 
Q 3921 3086 3921 2448 
Q 3921 1659 3686 1096 
Q 3452 534 3028 235 
Q 2605 -64 2027 -64 
Q 1561 -64 1204 117 
Q 848 298 631 610 
Q 414 923 368 1314 
L 1339 1314 
Q 1396 1059 1577 919 
Q 1759 780 2027 780 
Q 2482 780 2718 1176 
Q 2955 1573 2957 2264 
L 2925 2264 
Q 2771 1957 2453 1782 
Q 2136 1607 1752 1607 
Q 1341 1607 1016 1801 
Q 691 1995 506 2334 
Q 321 2673 323 3109 
Q 321 3582 539 3949 
Q 757 4316 1149 4525 
Q 1541 4734 2061 4732 
z
M 2068 3959 
Q 1725 3959 1500 3722 
Q 1275 3486 1277 3136 
Q 1275 2791 1496 2555 
Q 1718 2320 2059 2320 
Q 2284 2320 2465 2431 
Q 2646 2543 2751 2729 
Q 2857 2916 2859 3141 
Q 2857 3366 2753 3551 
Q 2650 3736 2473 3847 
Q 2296 3959 2068 3959 
z
" transform="scale(0.015625)"/>
      <path id="Inter-Bold-63" d="M 1964 -68 
Q 1427 -68 1042 160 
Q 657 389 451 795 
Q 246 1202 246 1732 
Q 246 2268 453 2674 
Q 661 3080 1045 3308 
Q 1430 3536 1959 3536 
Q 2416 3536 2760 3370 
Q 3105 3205 3303 2905 
Q 3502 2605 3523 2200 
L 2609 2200 
Q 2571 2461 2406 2621 
Q 2241 2782 1975 2782 
Q 1639 2782 1434 2511 
Q 1230 2241 1230 1745 
Q 1230 1245 1433 971 
Q 1636 698 1975 698 
Q 2225 698 2395 849 
Q 2566 1000 2609 1280 
L 3523 1280 
Q 3500 880 3305 575 
Q 3111 270 2770 101 
Q 2430 -68 1964 -68 
z
" transform="scale(0.015625)"/>
      <path id="Inter-Bold-73" d="M 3291 2495 
L 2405 2441 
Q 2368 2609 2220 2729 
Q 2073 2850 1821 2850 
Q 1596 2850 1440 2755 
Q 1284 2661 1286 2505 
Q 1284 2380 1385 2293 
Q 1486 2207 1730 2155 
L 2361 2027 
Q 3368 1820 3371 1082 
Q 3371 739 3169 479 
Q 2968 220 2618 76 
Q 2268 -68 1816 -68 
Q 1123 -68 711 221 
Q 300 511 232 1011 
L 1184 1061 
Q 1230 848 1394 739 
Q 1559 630 1818 630 
Q 2073 630 2228 730 
Q 2384 830 2386 984 
Q 2380 1243 1939 1332 
L 1334 1452 
Q 321 1655 325 2450 
Q 323 2955 728 3245 
Q 1134 3536 1805 3536 
Q 2466 3536 2846 3256 
Q 3227 2977 3291 2495 
z
" transform="scale(0.015625)"/>
      <path id="Inter-Bold-62" d="M 405 0 
L 405 4655 
L 1373 4655 
L 1373 2905 
L 1402 2905 
Q 1468 3048 1588 3193 
Q 1709 3339 1907 3437 
Q 2105 3536 2396 3536 
Q 2780 3536 3100 3337 
Q 3421 3139 3615 2740 
Q 3809 2341 3809 1741 
Q 3809 1157 3620 756 
Q 3432 355 3111 149 
Q 2791 -57 2393 -57 
Q 2111 -57 1914 36 
Q 1718 130 1594 272 
Q 1471 414 1402 559 
L 1359 559 
L 1359 0 
L 405 0 
z
M 1352 1745 
Q 1352 1280 1544 997 
Q 1736 714 2086 714 
Q 2443 714 2632 1001 
Q 2821 1289 2821 1745 
Q 2821 2200 2633 2483 
Q 2446 2766 2086 2766 
Q 1734 2766 1543 2490 
Q 1352 2214 1352 1745 
z
" transform="scale(0.015625)"/>
      <path id="Inter-Bold-79" d="M 950 -1359 
Q 743 -1359 596 -1324 
Q 450 -1289 368 -1252 
L 586 -502 
Q 843 -580 1019 -543 
Q 1196 -507 1298 -268 
L 1361 -100 
L 109 3491 
L 1127 3491 
L 1850 927 
L 1886 927 
L 2616 3491 
L 3641 3491 
L 2277 -400 
Q 2130 -818 1806 -1088 
Q 1482 -1359 950 -1359 
z
" transform="scale(0.015625)"/>
      <path id="Inter-Bold-64" d="M 1673 -57 
Q 1275 -57 954 149 
Q 634 355 445 756 
Q 257 1157 257 1741 
Q 257 2341 451 2740 
Q 646 3139 967 3337 
Q 1289 3536 1671 3536 
Q 1964 3536 2160 3437 
Q 2357 3339 2478 3193 
Q 2600 3048 2664 2905 
L 2693 2905 
L 2693 4655 
L 3659 4655 
L 3659 0 
L 2705 0 
L 2705 559 
L 2664 559 
Q 2598 414 2473 272 
Q 2348 130 2151 36 
Q 1955 -57 1673 -57 
z
M 1980 714 
Q 2330 714 2522 997 
Q 2714 1280 2714 1745 
Q 2714 2214 2523 2490 
Q 2332 2766 1980 2766 
Q 1621 2766 1433 2483 
Q 1246 2200 1246 1745 
Q 1246 1289 1434 1001 
Q 1623 714 1980 714 
z
" transform="scale(0.015625)"/>
      <path id="Inter-Bold-72" d="M 386 0 
L 386 3491 
L 1325 3491 
L 1325 2882 
L 1361 2882 
Q 1457 3207 1681 3374 
Q 1905 3541 2200 3541 
Q 2341 3541 2461 3507 
Q 2582 3473 2677 3414 
L 2386 2614 
Q 2318 2648 2237 2671 
Q 2157 2695 2057 2695 
Q 1764 2695 1560 2495 
Q 1357 2295 1355 1975 
L 1355 0 
L 386 0 
z
" transform="scale(0.015625)"/>
      <path id="Inter-Bold-70" d="M 386 -1309 
L 386 3491 
L 1341 3491 
L 1341 2905 
L 1384 2905 
Q 1450 3048 1570 3193 
Q 1691 3339 1888 3437 
Q 2086 3536 2377 3536 
Q 2761 3536 3081 3337 
Q 3402 3139 3596 2740 
Q 3791 2341 3791 1741 
Q 3791 1157 3602 756 
Q 3414 355 3093 149 
Q 2773 -57 2375 -57 
Q 2093 -57 1896 36 
Q 1700 130 1576 272 
Q 1452 414 1384 559 
L 1355 559 
L 1355 -1309 
L 386 -1309 
z
M 1334 1745 
Q 1334 1280 1526 997 
Q 1718 714 2068 714 
Q 2425 714 2613 1001 
Q 2802 1289 2802 1745 
Q 2802 2200 2614 2483 
Q 2427 2766 2068 2766 
Q 1716 2766 1525 2490 
Q 1334 2214 1334 1745 
z
" transform="scale(0.015625)"/>
      <path id="Inter-Bold-6f" d="M 1964 -68 
Q 1434 -68 1049 158 
Q 664 384 455 789 
Q 246 1195 246 1732 
Q 246 2273 455 2678 
Q 664 3084 1049 3310 
Q 1434 3536 1964 3536 
Q 2493 3536 2878 3310 
Q 3264 3084 3473 2678 
Q 3682 2273 3682 1732 
Q 3682 1195 3473 789 
Q 3264 384 2878 158 
Q 2493 -68 1964 -68 
z
M 1968 682 
Q 2327 682 2512 982 
Q 2698 1282 2698 1739 
Q 2698 2195 2512 2496 
Q 2327 2798 1968 2798 
Q 1602 2798 1416 2496 
Q 1230 2195 1230 1739 
Q 1230 1282 1416 982 
Q 1602 682 1968 682 
z
" transform="scale(0.015625)"/>
      <path id="Inter-Bold-2c" d="M 1439 636 
L 1414 386 
Q 1384 86 1301 -212 
Q 1218 -511 1128 -754 
Q 1039 -998 984 -1136 
L 357 -1136 
Q 391 -1002 450 -763 
Q 509 -525 561 -226 
Q 614 73 627 382 
L 639 636 
L 1439 636 
z
" transform="scale(0.015625)"/>
     </defs>
     <use xlink:href="#Inter-Bold-43"/>
     <use xlink:href="#Inter-Bold-75" x="75.213089"/>
     <use xlink:href="#Inter-Bold-6d" x="137.393494"/>
     <use xlink:href="#Inter-Bold-75" x="228.5867"/>
     <use xlink:href="#Inter-Bold-6c" x="290.767105"/>
     <use xlink:href="#Inter-Bold-61" x="317.968811"/>
     <use xlink:href="#Inter-Bold-74" x="375.994385"/>
     <use xlink:href="#Inter-Bold-69" x="414.843826"/>
     <use xlink:href="#Inter-Bold-76" x="442.045532"/>
     <use xlink:href="#Inter-Bold-65" x="500.639297"/>
     <use xlink:href="#Inter-Bold-20" x="560.404938"/>
     <use xlink:href="#Inter-Bold-43" x="583.593857"/>
     <use xlink:href="#Inter-Bold-4f" x="658.806946"/>
     <use xlink:href="#Inter-Bold-56" x="737.002991"/>
     <use xlink:href="#Inter-Bold-49" x="811.789932"/>
     <use xlink:href="#Inter-Bold-44" x="839.843918"/>
     <use xlink:href="#Inter-Bold-2d" x="912.571213"/>
     <use xlink:href="#Inter-Bold-31" x="959.446228"/>
     <use xlink:href="#Inter-Bold-39" x="1006.853912"/>
     <use xlink:href="#Inter-Bold-20" x="1072.869553"/>
     <use xlink:href="#Inter-Bold-63" x="1096.058472"/>
     <use xlink:href="#Inter-Bold-61" x="1154.794281"/>
     <use xlink:href="#Inter-Bold-73" x="1212.819855"/>
     <use xlink:href="#Inter-Bold-65" x="1268.99884"/>
     <use xlink:href="#Inter-Bold-73" x="1328.764481"/>
     <use xlink:href="#Inter-Bold-20" x="1384.943466"/>
     <use xlink:href="#Inter-Bold-62" x="1408.132385"/>
     <use xlink:href="#Inter-Bold-79" x="1471.662231"/>
     <use xlink:href="#Inter-Bold-20" x="1530.255997"/>
     <use xlink:href="#Inter-Bold-64" x="1553.444916"/>
     <use xlink:href="#Inter-Bold-61" x="1616.974762"/>
     <use xlink:href="#Inter-Bold-74" x="1675.000336"/>
     <use xlink:href="#Inter-Bold-65" x="1713.849777"/>
     <use xlink:href="#Inter-Bold-20" x="1773.615417"/>
     <use xlink:href="#Inter-Bold-72" x="1796.804337"/>
     <use xlink:href="#Inter-Bold-65" x="1839.666565"/>
     <use xlink:href="#Inter-Bold-70" x="1899.432205"/>
     <use xlink:href="#Inter-Bold-6f" x="1962.677963"/>
     <use xlink:href="#Inter-Bold-72" x="2024.041611"/>
     <use xlink:href="#Inter-Bold-74" x="2066.903839"/>
     <use xlink:href="#Inter-Bold-65" x="2105.753281"/>
     <use xlink:href="#Inter-Bold-64" x="2165.518921"/>
     <use xlink:href="#Inter-Bold-2c" x="2229.048767"/>
     <use xlink:href="#Inter-Bold-20" x="2259.339966"/>
     <use xlink:href="#Inter-Bold-70" x="2282.528885"/>
     <use xlink:href="#Inter-Bold-65" x="2345.774643"/>
     <use xlink:href="#Inter-Bold-72" x="2405.540283"/>
     <use xlink:href="#Inter-Bold-20" x="2448.402512"/>
     <use xlink:href="#Inter-Bold-63" x="2471.591431"/>
     <use xlink:href="#Inter-Bold-61" x="2530.32724"/>
     <use xlink:href="#Inter-Bold-70" x="2588.352814"/>
     <use xlink:href="#Inter-Bold-69" x="2651.598572"/>
     <use xlink:href="#Inter-Bold-74" x="2678.800278"/>
     <use xlink:href="#Inter-Bold-61" x="2717.649719"/>
    </g>
   </g>
   <g id="legend_1">
    <g id="patch_4">
     <path d="M 73.457813 98.614062 
L 183.03125 98.614062 
Q 185.03125 98.614062 185.03125 96.614062 
L 185.03125 40.225 
Q 185.03125 38.225 183.03125 38.225 
L 73.457813 38.225 
Q 71.457813 38.225 71.457813 40.225 
L 71.457813 96.614062 
Q 71.457813 98.614062 73.457813 98.614062 
z
" style="fill: #ffffff; opacity: 0.8; stroke: #cccccc; stroke-linejoin: miter"/>
    </g>
    <g id="line2d_43">
     <path d="M 75.457813 45.998437 
L 85.457813 45.998437 
L 95.457813 45.998437 
" style="fill: none; stroke: #d4351c; stroke-width: 2; stroke-linecap: square"/>
    </g>
    <g id="text_22">
     <!-- Wales -->
     <g transform="translate(103.457813 49.498437)scale(0.1 -0.1)">
      <defs>
       <path id="Inter-Regular-57" d="M 1409 0 
L 136 4655 
L 709 4655 
L 1682 864 
L 1727 864 
L 2718 4655 
L 3355 4655 
L 4346 864 
L 4391 864 
L 5364 4655 
L 5936 4655 
L 4664 0 
L 4082 0 
L 3055 3709 
L 3018 3709 
L 1991 0 
L 1409 0 
z
" transform="scale(0.015625)"/>
      </defs>
      <use xlink:href="#Inter-Regular-57"/>
      <use xlink:href="#Inter-Regular-61" x="94.886383"/>
      <use xlink:href="#Inter-Regular-6c" x="151.278442"/>
      <use xlink:href="#Inter-Regular-65" x="175.000031"/>
      <use xlink:href="#Inter-Regular-73" x="233.238678"/>
     </g>
    </g>
    <g id="line2d_44">
     <path d="M 75.457813 60.317187 
L 85.457813 60.317187 
L 95.457813 60.317187 
" style="fill: none; stroke: #003078; stroke-width: 2; stroke-linecap: square"/>
    </g>
    <g id="text_23">
     <!-- Scotland -->
     <g transform="translate(103.457813 63.817187)scale(0.1 -0.1)">
      <use xlink:href="#Inter-Regular-53"/>
      <use xlink:href="#Inter-Regular-63" x="63.778427"/>
      <use xlink:href="#Inter-Regular-6f" x="119.602295"/>
      <use xlink:href="#Inter-Regular-74" x="179.261398"/>
      <use xlink:href="#Inter-Regular-6c" x="215.625046"/>
      <use xlink:href="#Inter-Regular-61" x="239.346634"/>
      <use xlink:href="#Inter-Regular-6e" x="295.738693"/>
      <use xlink:href="#Inter-Regular-64" x="354.261429"/>
     </g>
    </g>
    <g id="line2d_45">
     <path d="M 75.457813 74.635937 
L 85.457813 74.635937 
L 95.457813 74.635937 
" style="fill: none; stroke: #ffdd00; stroke-width: 2; stroke-linecap: square"/>
    </g>
    <g id="text_24">
     <!-- Northern Ireland -->
     <g transform="translate(103.457813 78.135937)scale(0.1 -0.1)">
      <defs>
       <path id="Inter-Regular-68" d="M 1027 2100 
L 1027 0 
L 491 0 
L 491 4655 
L 1027 4655 
L 1027 2945 
L 1073 2945 
Q 1196 3216 1442 3376 
Q 1689 3536 2100 3536 
Q 2636 3536 2963 3213 
Q 3291 2891 3291 2218 
L 3291 0 
L 2755 0 
L 2755 2182 
Q 2755 2598 2540 2826 
Q 2325 3055 1946 3055 
Q 1548 3055 1287 2806 
Q 1027 2557 1027 2100 
z
" transform="scale(0.015625)"/>
       <path id="Inter-Regular-49" d="M 1127 4655 
L 1127 0 
L 564 0 
L 564 4655 
L 1127 4655 
z
" transform="scale(0.015625)"/>
      </defs>
      <use xlink:href="#Inter-Regular-4e"/>
      <use xlink:href="#Inter-Regular-6f" x="75.284103"/>
      <use xlink:href="#Inter-Regular-72" x="134.943207"/>
      <use xlink:href="#Inter-Regular-74" x="173.295486"/>
      <use xlink:href="#Inter-Regular-68" x="209.659134"/>
      <use xlink:href="#Inter-Regular-65" x="268.750061"/>
      <use xlink:href="#Inter-Regular-72" x="326.988708"/>
      <use xlink:href="#Inter-Regular-6e" x="365.340988"/>
      <use xlink:href="#Inter-Regular-20" x="423.863724"/>
      <use xlink:href="#Inter-Regular-49" x="451.988724"/>
      <use xlink:href="#Inter-Regular-72" x="478.40918"/>
      <use xlink:href="#Inter-Regular-65" x="516.761459"/>
      <use xlink:href="#Inter-Regular-6c" x="575.000107"/>
      <use xlink:href="#Inter-Regular-61" x="598.721695"/>
      <use xlink:href="#Inter-Regular-6e" x="655.113754"/>
      <use xlink:href="#Inter-Regular-64" x="713.63649"/>
     </g>
    </g>
    <g id="line2d_46">
     <path d="M 75.457813 88.954687 
L 85.457813 88.954687 
L 95.457813 88.954687 
" style="fill: none; stroke: #5694ca; stroke-width: 2; stroke-linecap: square"/>
    </g>
    <g id="text_25">
     <!-- England -->
     <g transform="translate(103.457813 92.454687)scale(0.1 -0.1)">
      <defs>
       <path id="Inter-Regular-45" d="M 564 0 
L 564 4655 
L 3373 4655 
L 3373 4155 
L 1127 4155 
L 1127 2582 
L 3227 2582 
L 3227 2082 
L 1127 2082 
L 1127 500 
L 3409 500 
L 3409 0 
L 564 0 
z
" transform="scale(0.015625)"/>
       <path id="Inter-Regular-67" d="M 1900 -1382 
Q 1316 -1382 976 -1169 
Q 636 -957 473 -682 
L 900 -382 
Q 973 -477 1084 -601 
Q 1196 -725 1390 -817 
Q 1584 -909 1900 -909 
Q 2323 -909 2598 -704 
Q 2873 -500 2873 -64 
L 2873 645 
L 2827 645 
Q 2768 550 2660 410 
Q 2552 270 2351 162 
Q 2150 55 1809 55 
Q 1386 55 1051 255 
Q 716 455 521 836 
Q 327 1218 327 1764 
Q 327 2300 516 2699 
Q 705 3098 1041 3317 
Q 1377 3536 1818 3536 
Q 2159 3536 2360 3423 
Q 2561 3311 2669 3169 
Q 2777 3027 2836 2936 
L 2891 2936 
L 2891 3491 
L 3409 3491 
L 3409 -100 
Q 3409 -550 3205 -833 
Q 3002 -1116 2660 -1249 
Q 2318 -1382 1900 -1382 
z
M 1882 536 
Q 2366 536 2624 864 
Q 2882 1193 2882 1773 
Q 2882 2339 2627 2697 
Q 2373 3055 1882 3055 
Q 1541 3055 1315 2882 
Q 1089 2709 976 2418 
Q 864 2127 864 1773 
Q 864 1227 1120 881 
Q 1377 536 1882 536 
z
" transform="scale(0.015625)"/>
      </defs>
      <use xlink:href="#Inter-Regular-45"/>
      <use xlink:href="#Inter-Regular-6e" x="59.801147"/>
      <use xlink:href="#Inter-Regular-67" x="118.323883"/>
      <use xlink:href="#Inter-Regular-6c" x="179.261398"/>
      <use xlink:href="#Inter-Regular-61" x="202.982986"/>
      <use xlink:href="#Inter-Regular-6e" x="259.375046"/>
      <use xlink:href="#Inter-Regular-64" x="317.897781"/>
     </g>
    </g>
   </g>
  </g>
 </g>
 <defs>
  <clipPath id="p69cfd8f04f">
   <rect x="66.457813" y="33.225" width="669.6" height="443.52"/>
  </clipPath>
 </defs>
</svg>
