<?xml version="1.0" encoding="utf-8" standalone="no"?>
<!DOCTYPE svg PUBLIC "-//W3C//DTD SVG 1.1//EN"
  "http://www.w3.org/Graphics/SVG/1.1/DTD/svg11.dtd">
<svg version="1.1" viewBox="0 0 761.807192 511.27625" xmlns="http://www.w3.org/2000/svg" xmlns:xlink="http://www.w3.org/1999/xlink">
 <metadata>
  <rdf:RDF xmlns:cc="http://creativecommons.org/ns#" xmlns:dc="http://purl.org/dc/elements/1.1/" xmlns:rdf="http://www.w3.org/1999/02/22-rdf-syntax-ns#">
   <cc:Work>
    <dc:type rdf:resource="http://purl.org/dc/dcmitype/StillImage"/>
    <dc:date>2021-04-06T16:09:18.120087</dc:date>
    <dc:format>image/svg+xml</dc:format>
    <dc:creator>
     <cc:Agent>
      <dc:title>Matplotlib v3.4.1, https://matplotlib.org/</dc:title>
     </cc:Agent>
    </dc:creator>
   </cc:Work>
  </rdf:RDF>
 </metadata>
 <defs>
  <style type="text/css">*{stroke-linecap:butt;stroke-linejoin:round;}</style>
 </defs>
 <g id="figure_1">
  <g id="patch_1">
   <path d="M 0 511.27625 
L 761.807192 511.27625 
L 761.807192 0 
L 0 0 
z
" style="fill:#ffffff;"/>
  </g>
  <g id="axes_1">
   <g id="patch_2">
    <path d="M 68.575 476.745 
L 738.175 476.745 
L 738.175 33.225 
L 68.575 33.225 
z
" style="fill:#ffffff;"/>
   </g>
   <g id="matplotlib.axis_1">
    <g id="xtick_1">
     <g id="line2d_1">
      <defs>
       <path d="M 0 0 
L 0 3.5 
" id="m3c4d035857" style="stroke:#000000;stroke-width:0.8;"/>
      </defs>
      <g>
       <use style="stroke:#000000;stroke-width:0.8;" x="68.575" xlink:href="#m3c4d035857" y="476.745"/>
      </g>
     </g>
     <g id="text_1">
      <!-- 01 Mar -->
      <g transform="translate(52.538281 491.018438)scale(0.1 -0.1)">
       <defs>
        <path d="M 2000 -64 
Q 1230 -64 806 561 
Q 382 1186 382 2327 
Q 382 3459 809 4088 
Q 1236 4718 2000 4718 
Q 2764 4718 3191 4088 
Q 3618 3459 3618 2327 
Q 3618 1186 3194 561 
Q 2771 -64 2000 -64 
z
M 2000 436 
Q 2509 436 2791 927 
Q 3073 1418 3073 2327 
Q 3073 3234 2789 3730 
Q 2505 4227 2000 4227 
Q 1496 4227 1211 3730 
Q 927 3234 927 2327 
Q 927 1418 1210 927 
Q 1493 436 2000 436 
z
" id="Inter-Regular-30" transform="scale(0.015625)"/>
        <path d="M 1973 4655 
L 1973 0 
L 1409 0 
L 1409 3836 
L 1373 3836 
Q 1341 3773 1209 3692 
Q 1077 3611 868 3551 
Q 659 3491 391 3491 
L 391 3964 
Q 661 3964 859 4061 
Q 1057 4159 1190 4291 
Q 1323 4423 1392 4529 
Q 1461 4636 1473 4655 
L 1973 4655 
z
" id="Inter-Regular-31" transform="scale(0.015625)"/>
        <path id="Inter-Regular-20" transform="scale(0.015625)"/>
        <path d="M 564 4655 
L 1236 4655 
L 2818 791 
L 2873 791 
L 4455 4655 
L 5127 4655 
L 5127 0 
L 4600 0 
L 4600 3536 
L 4555 3536 
L 3100 0 
L 2591 0 
L 1136 3536 
L 1091 3536 
L 1091 0 
L 564 0 
L 564 4655 
z
" id="Inter-Regular-4d" transform="scale(0.015625)"/>
        <path d="M 1518 -82 
Q 1186 -82 916 44 
Q 646 170 486 410 
Q 327 650 327 991 
Q 327 1291 445 1478 
Q 564 1666 761 1773 
Q 959 1880 1199 1933 
Q 1439 1986 1682 2018 
Q 2000 2059 2199 2080 
Q 2398 2102 2490 2154 
Q 2582 2207 2582 2336 
L 2582 2355 
Q 2582 2691 2399 2877 
Q 2216 3064 1846 3064 
Q 1461 3064 1243 2895 
Q 1025 2727 936 2536 
L 427 2718 
Q 564 3036 792 3214 
Q 1021 3393 1292 3464 
Q 1564 3536 1827 3536 
Q 1996 3536 2215 3496 
Q 2434 3457 2640 3334 
Q 2846 3211 2982 2963 
Q 3118 2716 3118 2300 
L 3118 0 
L 2582 0 
L 2582 473 
L 2555 473 
Q 2500 359 2373 229 
Q 2246 100 2034 9 
Q 1823 -82 1518 -82 
z
M 1600 400 
Q 1918 400 2137 525 
Q 2357 650 2469 847 
Q 2582 1045 2582 1264 
L 2582 1755 
Q 2548 1714 2433 1681 
Q 2318 1648 2169 1624 
Q 2021 1600 1881 1583 
Q 1741 1566 1655 1555 
Q 1446 1527 1265 1467 
Q 1084 1407 974 1287 
Q 864 1168 864 964 
Q 864 684 1072 542 
Q 1280 400 1600 400 
z
" id="Inter-Regular-61" transform="scale(0.015625)"/>
        <path d="M 491 0 
L 491 3491 
L 1009 3491 
L 1009 2964 
L 1046 2964 
Q 1139 3223 1389 3384 
Q 1639 3545 1955 3545 
Q 2100 3545 2209 3511 
Q 2318 3477 2400 3418 
L 2218 2964 
Q 2161 2993 2085 3010 
Q 2009 3027 1909 3027 
Q 1527 3027 1277 2794 
Q 1027 2561 1027 2209 
L 1027 0 
L 491 0 
z
" id="Inter-Regular-72" transform="scale(0.015625)"/>
       </defs>
       <use xlink:href="#Inter-Regular-30"/>
       <use x="62.500015" xlink:href="#Inter-Regular-31"/>
       <use x="106.676163" xlink:href="#Inter-Regular-20"/>
       <use x="134.801163" xlink:href="#Inter-Regular-4d"/>
       <use x="225.99437" xlink:href="#Inter-Regular-61"/>
       <use x="282.386429" xlink:href="#Inter-Regular-72"/>
      </g>
     </g>
    </g>
    <g id="xtick_2">
     <g id="line2d_2">
      <g>
       <use style="stroke:#000000;stroke-width:0.8;" x="120.253177" xlink:href="#m3c4d035857" y="476.745"/>
      </g>
     </g>
     <g id="text_2">
      <!-- 01 Apr -->
      <g transform="translate(105.168021 491.116875)scale(0.1 -0.1)">
       <defs>
        <path d="M 755 0 
L 164 0 
L 1873 4655 
L 2455 4655 
L 4164 0 
L 3573 0 
L 3105 1318 
L 1223 1318 
L 755 0 
z
M 1400 1818 
L 2927 1818 
L 2182 3918 
L 2146 3918 
L 1400 1818 
z
" id="Inter-Regular-41" transform="scale(0.015625)"/>
        <path d="M 491 -1309 
L 491 3491 
L 1009 3491 
L 1009 2936 
L 1073 2936 
Q 1132 3027 1237 3169 
Q 1343 3311 1542 3423 
Q 1741 3536 2082 3536 
Q 2523 3536 2859 3315 
Q 3196 3095 3384 2690 
Q 3573 2286 3573 1736 
Q 3573 1182 3384 776 
Q 3196 370 2861 148 
Q 2527 -73 2091 -73 
Q 1755 -73 1552 39 
Q 1350 152 1241 296 
Q 1132 441 1073 536 
L 1027 536 
L 1027 -1309 
L 491 -1309 
z
M 1018 1745 
Q 1018 1152 1276 780 
Q 1534 409 2018 409 
Q 2355 409 2581 587 
Q 2807 766 2921 1069 
Q 3036 1373 3036 1745 
Q 3036 2114 2923 2410 
Q 2811 2707 2585 2881 
Q 2359 3055 2018 3055 
Q 1527 3055 1272 2693 
Q 1018 2332 1018 1745 
z
" id="Inter-Regular-70" transform="scale(0.015625)"/>
       </defs>
       <use xlink:href="#Inter-Regular-30"/>
       <use x="62.500015" xlink:href="#Inter-Regular-31"/>
       <use x="106.676163" xlink:href="#Inter-Regular-20"/>
       <use x="134.801163" xlink:href="#Inter-Regular-41"/>
       <use x="202.41481" xlink:href="#Inter-Regular-70"/>
       <use x="263.352325" xlink:href="#Inter-Regular-72"/>
      </g>
     </g>
    </g>
    <g id="xtick_3">
     <g id="line2d_3">
      <g>
       <use style="stroke:#000000;stroke-width:0.8;" x="170.264316" xlink:href="#m3c4d035857" y="476.745"/>
      </g>
     </g>
     <g id="text_3">
      <!-- 01 May -->
      <g transform="translate(153.361191 491.116875)scale(0.1 -0.1)">
       <defs>
        <path d="M 818 -1355 
Q 682 -1355 575 -1333 
Q 468 -1311 427 -1291 
L 564 -818 
Q 857 -893 1053 -814 
Q 1250 -736 1391 -345 
L 1509 -18 
L 218 3491 
L 800 3491 
L 1764 709 
L 1800 709 
L 2764 3491 
L 3346 3491 
L 1846 -564 
Q 1550 -1355 818 -1355 
z
" id="Inter-Regular-79" transform="scale(0.015625)"/>
       </defs>
       <use xlink:href="#Inter-Regular-30"/>
       <use x="62.500015" xlink:href="#Inter-Regular-31"/>
       <use x="106.676163" xlink:href="#Inter-Regular-20"/>
       <use x="134.801163" xlink:href="#Inter-Regular-4d"/>
       <use x="225.99437" xlink:href="#Inter-Regular-61"/>
       <use x="282.386429" xlink:href="#Inter-Regular-79"/>
      </g>
     </g>
    </g>
    <g id="xtick_4">
     <g id="line2d_4">
      <g>
       <use style="stroke:#000000;stroke-width:0.8;" x="221.942493" xlink:href="#m3c4d035857" y="476.745"/>
      </g>
     </g>
     <g id="text_4">
      <!-- 01 Jun -->
      <g transform="translate(206.658118 491.018438)scale(0.1 -0.1)">
       <defs>
        <path d="M 2346 4655 
L 2909 4655 
L 2909 1327 
Q 2909 657 2549 296 
Q 2189 -64 1582 -64 
Q 1200 -64 902 76 
Q 605 216 434 475 
Q 264 734 264 1091 
L 818 1091 
Q 818 795 1034 615 
Q 1250 436 1582 436 
Q 1948 436 2147 664 
Q 2346 893 2346 1327 
L 2346 4655 
z
" id="Inter-Regular-4a" transform="scale(0.015625)"/>
        <path d="M 2691 1427 
L 2691 3491 
L 3227 3491 
L 3227 0 
L 2691 0 
L 2691 591 
L 2655 591 
Q 2532 325 2273 140 
Q 2014 -45 1618 -45 
Q 1127 -45 809 280 
Q 491 605 491 1273 
L 491 3491 
L 1027 3491 
L 1027 1309 
Q 1027 927 1242 700 
Q 1457 473 1791 473 
Q 1991 473 2199 575 
Q 2407 677 2549 888 
Q 2691 1100 2691 1427 
z
" id="Inter-Regular-75" transform="scale(0.015625)"/>
        <path d="M 1027 2100 
L 1027 0 
L 491 0 
L 491 3491 
L 1009 3491 
L 1009 2945 
L 1055 2945 
Q 1177 3211 1427 3373 
Q 1677 3536 2073 3536 
Q 2602 3536 2928 3211 
Q 3255 2886 3255 2218 
L 3255 0 
L 2718 0 
L 2718 2182 
Q 2718 2593 2504 2824 
Q 2291 3055 1918 3055 
Q 1534 3055 1280 2806 
Q 1027 2557 1027 2100 
z
" id="Inter-Regular-6e" transform="scale(0.015625)"/>
       </defs>
       <use xlink:href="#Inter-Regular-30"/>
       <use x="62.500015" xlink:href="#Inter-Regular-31"/>
       <use x="106.676163" xlink:href="#Inter-Regular-20"/>
       <use x="134.801163" xlink:href="#Inter-Regular-4a"/>
       <use x="189.062531" xlink:href="#Inter-Regular-75"/>
       <use x="247.159134" xlink:href="#Inter-Regular-6e"/>
      </g>
     </g>
    </g>
    <g id="xtick_5">
     <g id="line2d_5">
      <g>
       <use style="stroke:#000000;stroke-width:0.8;" x="271.953632" xlink:href="#m3c4d035857" y="476.745"/>
      </g>
     </g>
     <g id="text_5">
      <!-- 01 Jul -->
      <g transform="translate(258.409882 491.018438)scale(0.1 -0.1)">
       <defs>
        <path d="M 1027 4655 
L 1027 0 
L 491 0 
L 491 4655 
L 1027 4655 
z
" id="Inter-Regular-6c" transform="scale(0.015625)"/>
       </defs>
       <use xlink:href="#Inter-Regular-30"/>
       <use x="62.500015" xlink:href="#Inter-Regular-31"/>
       <use x="106.676163" xlink:href="#Inter-Regular-20"/>
       <use x="134.801163" xlink:href="#Inter-Regular-4a"/>
       <use x="189.062531" xlink:href="#Inter-Regular-75"/>
       <use x="247.159134" xlink:href="#Inter-Regular-6c"/>
      </g>
     </g>
    </g>
    <g id="xtick_6">
     <g id="line2d_6">
      <g>
       <use style="stroke:#000000;stroke-width:0.8;" x="323.631809" xlink:href="#m3c4d035857" y="476.745"/>
      </g>
     </g>
     <g id="text_6">
      <!-- 01 Aug -->
      <g transform="translate(307.559934 491.116875)scale(0.1 -0.1)">
       <defs>
        <path d="M 1900 -1382 
Q 1316 -1382 976 -1169 
Q 636 -957 473 -682 
L 900 -382 
Q 973 -477 1084 -601 
Q 1196 -725 1390 -817 
Q 1584 -909 1900 -909 
Q 2323 -909 2598 -704 
Q 2873 -500 2873 -64 
L 2873 645 
L 2827 645 
Q 2768 550 2660 410 
Q 2552 270 2351 162 
Q 2150 55 1809 55 
Q 1386 55 1051 255 
Q 716 455 521 836 
Q 327 1218 327 1764 
Q 327 2300 516 2699 
Q 705 3098 1041 3317 
Q 1377 3536 1818 3536 
Q 2159 3536 2360 3423 
Q 2561 3311 2669 3169 
Q 2777 3027 2836 2936 
L 2891 2936 
L 2891 3491 
L 3409 3491 
L 3409 -100 
Q 3409 -550 3205 -833 
Q 3002 -1116 2660 -1249 
Q 2318 -1382 1900 -1382 
z
M 1882 536 
Q 2366 536 2624 864 
Q 2882 1193 2882 1773 
Q 2882 2339 2627 2697 
Q 2373 3055 1882 3055 
Q 1541 3055 1315 2882 
Q 1089 2709 976 2418 
Q 864 2127 864 1773 
Q 864 1227 1120 881 
Q 1377 536 1882 536 
z
" id="Inter-Regular-67" transform="scale(0.015625)"/>
       </defs>
       <use xlink:href="#Inter-Regular-30"/>
       <use x="62.500015" xlink:href="#Inter-Regular-31"/>
       <use x="106.676163" xlink:href="#Inter-Regular-20"/>
       <use x="134.801163" xlink:href="#Inter-Regular-41"/>
       <use x="202.41481" xlink:href="#Inter-Regular-75"/>
       <use x="260.511414" xlink:href="#Inter-Regular-67"/>
      </g>
     </g>
    </g>
    <g id="xtick_7">
     <g id="line2d_7">
      <g>
       <use style="stroke:#000000;stroke-width:0.8;" x="375.309986" xlink:href="#m3c4d035857" y="476.745"/>
      </g>
     </g>
     <g id="text_7">
      <!-- 01 Sep -->
      <g transform="translate(359.422486 491.116875)scale(0.1 -0.1)">
       <defs>
        <path d="M 3109 3491 
Q 3068 3836 2777 4027 
Q 2486 4218 2064 4218 
Q 1600 4218 1318 3999 
Q 1036 3780 1036 3445 
Q 1036 3195 1189 3042 
Q 1343 2889 1553 2803 
Q 1764 2718 1936 2673 
L 2409 2545 
Q 2591 2498 2815 2414 
Q 3039 2330 3244 2185 
Q 3450 2041 3584 1816 
Q 3718 1591 3718 1264 
Q 3718 886 3521 581 
Q 3325 277 2949 97 
Q 2573 -82 2036 -82 
Q 1286 -82 845 272 
Q 405 627 364 1200 
L 946 1200 
Q 968 936 1124 764 
Q 1280 593 1519 510 
Q 1759 427 2036 427 
Q 2359 427 2616 533 
Q 2873 639 3023 828 
Q 3173 1018 3173 1273 
Q 3173 1505 3043 1650 
Q 2914 1795 2702 1886 
Q 2491 1977 2246 2045 
L 1673 2209 
Q 1127 2366 809 2657 
Q 491 2948 491 3418 
Q 491 3809 703 4101 
Q 916 4393 1276 4555 
Q 1636 4718 2082 4718 
Q 2532 4718 2882 4558 
Q 3232 4398 3437 4120 
Q 3643 3843 3655 3491 
L 3109 3491 
z
" id="Inter-Regular-53" transform="scale(0.015625)"/>
        <path d="M 1955 -73 
Q 1450 -73 1085 151 
Q 721 375 524 778 
Q 327 1182 327 1718 
Q 327 2255 524 2665 
Q 721 3075 1074 3305 
Q 1427 3536 1900 3536 
Q 2173 3536 2439 3445 
Q 2705 3355 2923 3151 
Q 3141 2948 3270 2614 
Q 3400 2280 3400 1791 
L 3400 1564 
L 866 1564 
Q 884 1005 1183 707 
Q 1482 409 1955 409 
Q 2271 409 2498 545 
Q 2725 682 2827 955 
L 3346 809 
Q 3223 414 2854 170 
Q 2486 -73 1955 -73 
z
M 866 2027 
L 2855 2027 
Q 2855 2470 2595 2762 
Q 2336 3055 1900 3055 
Q 1593 3055 1368 2911 
Q 1143 2768 1013 2533 
Q 884 2298 866 2027 
z
" id="Inter-Regular-65" transform="scale(0.015625)"/>
       </defs>
       <use xlink:href="#Inter-Regular-30"/>
       <use x="62.500015" xlink:href="#Inter-Regular-31"/>
       <use x="106.676163" xlink:href="#Inter-Regular-20"/>
       <use x="134.801163" xlink:href="#Inter-Regular-53"/>
       <use x="198.57959" xlink:href="#Inter-Regular-65"/>
       <use x="256.818237" xlink:href="#Inter-Regular-70"/>
      </g>
     </g>
    </g>
    <g id="xtick_8">
     <g id="line2d_8">
      <g>
       <use style="stroke:#000000;stroke-width:0.8;" x="425.321125" xlink:href="#m3c4d035857" y="476.745"/>
      </g>
     </g>
     <g id="text_8">
      <!-- 01 Oct -->
      <g transform="translate(410.164875 491.018438)scale(0.1 -0.1)">
       <defs>
        <path d="M 4491 2327 
Q 4491 1591 4225 1054 
Q 3959 518 3495 227 
Q 3032 -64 2436 -64 
Q 1841 -64 1377 227 
Q 914 518 648 1054 
Q 382 1591 382 2327 
Q 382 3064 648 3600 
Q 914 4136 1377 4427 
Q 1841 4718 2436 4718 
Q 3032 4718 3495 4427 
Q 3959 4136 4225 3600 
Q 4491 3064 4491 2327 
z
M 3946 2327 
Q 3946 2932 3744 3348 
Q 3543 3764 3201 3977 
Q 2859 4191 2436 4191 
Q 2014 4191 1672 3977 
Q 1330 3764 1128 3348 
Q 927 2932 927 2327 
Q 927 1723 1128 1307 
Q 1330 891 1672 677 
Q 2014 464 2436 464 
Q 2859 464 3201 677 
Q 3543 891 3744 1307 
Q 3946 1723 3946 2327 
z
" id="Inter-Regular-4f" transform="scale(0.015625)"/>
        <path d="M 1909 -73 
Q 1418 -73 1063 159 
Q 709 391 518 798 
Q 327 1205 327 1727 
Q 327 2259 524 2667 
Q 721 3075 1074 3305 
Q 1427 3536 1900 3536 
Q 2268 3536 2563 3400 
Q 2859 3264 3047 3018 
Q 3236 2773 3282 2445 
L 2746 2445 
Q 2684 2684 2474 2869 
Q 2264 3055 1909 3055 
Q 1439 3055 1151 2697 
Q 864 2339 864 1745 
Q 864 1139 1148 774 
Q 1432 409 1909 409 
Q 2223 409 2447 570 
Q 2671 732 2746 1018 
L 3282 1018 
Q 3236 709 3058 462 
Q 2880 216 2588 71 
Q 2296 -73 1909 -73 
z
" id="Inter-Regular-63" transform="scale(0.015625)"/>
        <path d="M 2009 3491 
L 2009 3036 
L 1264 3036 
L 1264 1000 
Q 1264 773 1331 660 
Q 1398 548 1503 510 
Q 1609 473 1727 473 
Q 1816 473 1873 483 
Q 1930 493 1964 500 
L 2073 18 
Q 2018 -2 1920 -23 
Q 1823 -45 1673 -45 
Q 1446 -45 1228 52 
Q 1011 150 869 350 
Q 727 550 727 855 
L 727 3036 
L 200 3036 
L 200 3491 
L 727 3491 
L 727 4327 
L 1264 4327 
L 1264 3491 
L 2009 3491 
z
" id="Inter-Regular-74" transform="scale(0.015625)"/>
       </defs>
       <use xlink:href="#Inter-Regular-30"/>
       <use x="62.500015" xlink:href="#Inter-Regular-31"/>
       <use x="106.676163" xlink:href="#Inter-Regular-20"/>
       <use x="134.801163" xlink:href="#Inter-Regular-4f"/>
       <use x="210.937546" xlink:href="#Inter-Regular-63"/>
       <use x="266.761414" xlink:href="#Inter-Regular-74"/>
      </g>
     </g>
    </g>
    <g id="xtick_9">
     <g id="line2d_9">
      <g>
       <use style="stroke:#000000;stroke-width:0.8;" x="476.999303" xlink:href="#m3c4d035857" y="476.745"/>
      </g>
     </g>
     <g id="text_9">
      <!-- 01 Nov -->
      <g transform="translate(460.728209 491.018438)scale(0.1 -0.1)">
       <defs>
        <path d="M 4255 4655 
L 4255 0 
L 3709 0 
L 1173 3655 
L 1127 3655 
L 1127 0 
L 564 0 
L 564 4655 
L 1109 4655 
L 3655 991 
L 3700 991 
L 3700 4655 
L 4255 4655 
z
" id="Inter-Regular-4e" transform="scale(0.015625)"/>
        <path d="M 1909 -73 
Q 1436 -73 1080 152 
Q 725 377 526 781 
Q 327 1186 327 1727 
Q 327 2273 526 2679 
Q 725 3086 1080 3311 
Q 1436 3536 1909 3536 
Q 2382 3536 2737 3311 
Q 3093 3086 3292 2679 
Q 3491 2273 3491 1727 
Q 3491 1186 3292 781 
Q 3093 377 2737 152 
Q 2382 -73 1909 -73 
z
M 1909 409 
Q 2268 409 2500 593 
Q 2732 777 2843 1077 
Q 2955 1377 2955 1727 
Q 2955 2077 2843 2379 
Q 2732 2682 2500 2868 
Q 2268 3055 1909 3055 
Q 1550 3055 1318 2868 
Q 1086 2682 975 2379 
Q 864 2077 864 1727 
Q 864 1377 975 1077 
Q 1086 777 1318 593 
Q 1550 409 1909 409 
z
" id="Inter-Regular-6f" transform="scale(0.015625)"/>
        <path d="M 3346 3491 
L 2055 0 
L 1509 0 
L 218 3491 
L 800 3491 
L 1764 709 
L 1800 709 
L 2764 3491 
L 3346 3491 
z
" id="Inter-Regular-76" transform="scale(0.015625)"/>
       </defs>
       <use xlink:href="#Inter-Regular-30"/>
       <use x="62.500015" xlink:href="#Inter-Regular-31"/>
       <use x="106.676163" xlink:href="#Inter-Regular-20"/>
       <use x="134.801163" xlink:href="#Inter-Regular-4e"/>
       <use x="210.085266" xlink:href="#Inter-Regular-6f"/>
       <use x="269.74437" xlink:href="#Inter-Regular-76"/>
      </g>
     </g>
    </g>
    <g id="xtick_10">
     <g id="line2d_10">
      <g>
       <use style="stroke:#000000;stroke-width:0.8;" x="527.010442" xlink:href="#m3c4d035857" y="476.745"/>
      </g>
     </g>
     <g id="text_10">
      <!-- 01 Dec -->
      <g transform="translate(510.973723 491.018438)scale(0.1 -0.1)">
       <defs>
        <path d="M 2000 0 
L 564 0 
L 564 4655 
L 2064 4655 
Q 2741 4655 3223 4376 
Q 3705 4098 3961 3578 
Q 4218 3059 4218 2336 
Q 4218 1609 3959 1085 
Q 3700 561 3204 280 
Q 2709 0 2000 0 
z
M 1127 500 
L 1964 500 
Q 2830 500 3251 992 
Q 3673 1484 3673 2336 
Q 3673 3182 3259 3668 
Q 2846 4155 2027 4155 
L 1127 4155 
L 1127 500 
z
" id="Inter-Regular-44" transform="scale(0.015625)"/>
       </defs>
       <use xlink:href="#Inter-Regular-30"/>
       <use x="62.500015" xlink:href="#Inter-Regular-31"/>
       <use x="106.676163" xlink:href="#Inter-Regular-20"/>
       <use x="134.801163" xlink:href="#Inter-Regular-44"/>
       <use x="206.676178" xlink:href="#Inter-Regular-65"/>
       <use x="264.914825" xlink:href="#Inter-Regular-63"/>
      </g>
     </g>
    </g>
    <g id="xtick_11">
     <g id="line2d_11">
      <g>
       <use style="stroke:#000000;stroke-width:0.8;" x="578.688619" xlink:href="#m3c4d035857" y="476.745"/>
      </g>
     </g>
     <g id="text_11">
      <!-- 01 Jan -->
      <g transform="translate(563.4894 491.018438)scale(0.1 -0.1)">
       <use xlink:href="#Inter-Regular-30"/>
       <use x="62.500015" xlink:href="#Inter-Regular-31"/>
       <use x="106.676163" xlink:href="#Inter-Regular-20"/>
       <use x="134.801163" xlink:href="#Inter-Regular-4a"/>
       <use x="189.062531" xlink:href="#Inter-Regular-61"/>
       <use x="245.45459" xlink:href="#Inter-Regular-6e"/>
      </g>
     </g>
    </g>
    <g id="xtick_12">
     <g id="line2d_12">
      <g>
       <use style="stroke:#000000;stroke-width:0.8;" x="630.366796" xlink:href="#m3c4d035857" y="476.745"/>
      </g>
     </g>
     <g id="text_12">
      <!-- 01 Feb -->
      <g transform="translate(614.677733 491.018438)scale(0.1 -0.1)">
       <defs>
        <path d="M 564 0 
L 564 4655 
L 3355 4655 
L 3355 4155 
L 1127 4155 
L 1127 2582 
L 3146 2582 
L 3146 2082 
L 1127 2082 
L 1127 0 
L 564 0 
z
" id="Inter-Regular-46" transform="scale(0.015625)"/>
        <path d="M 564 0 
L 564 4655 
L 1100 4655 
L 1100 2936 
L 1146 2936 
Q 1205 3027 1310 3169 
Q 1416 3311 1615 3423 
Q 1814 3536 2155 3536 
Q 2596 3536 2932 3315 
Q 3268 3095 3457 2690 
Q 3646 2286 3646 1736 
Q 3646 1182 3457 776 
Q 3268 370 2934 148 
Q 2600 -73 2164 -73 
Q 1827 -73 1625 39 
Q 1423 152 1314 296 
Q 1205 441 1146 536 
L 1082 536 
L 1082 0 
L 564 0 
z
M 1091 1745 
Q 1091 1152 1349 780 
Q 1607 409 2091 409 
Q 2427 409 2653 587 
Q 2880 766 2994 1069 
Q 3109 1373 3109 1745 
Q 3109 2114 2996 2410 
Q 2884 2707 2658 2881 
Q 2432 3055 2091 3055 
Q 1600 3055 1345 2693 
Q 1091 2332 1091 1745 
z
" id="Inter-Regular-62" transform="scale(0.015625)"/>
       </defs>
       <use xlink:href="#Inter-Regular-30"/>
       <use x="62.500015" xlink:href="#Inter-Regular-31"/>
       <use x="106.676163" xlink:href="#Inter-Regular-20"/>
       <use x="134.801163" xlink:href="#Inter-Regular-46"/>
       <use x="193.465942" xlink:href="#Inter-Regular-65"/>
       <use x="251.70459" xlink:href="#Inter-Regular-62"/>
      </g>
     </g>
    </g>
    <g id="xtick_13">
     <g id="line2d_13">
      <g>
       <use style="stroke:#000000;stroke-width:0.8;" x="677.043859" xlink:href="#m3c4d035857" y="476.745"/>
      </g>
     </g>
     <g id="text_13">
      <!-- 01 Mar -->
      <g transform="translate(661.00714 491.018438)scale(0.1 -0.1)">
       <use xlink:href="#Inter-Regular-30"/>
       <use x="62.500015" xlink:href="#Inter-Regular-31"/>
       <use x="106.676163" xlink:href="#Inter-Regular-20"/>
       <use x="134.801163" xlink:href="#Inter-Regular-4d"/>
       <use x="225.99437" xlink:href="#Inter-Regular-61"/>
       <use x="282.386429" xlink:href="#Inter-Regular-72"/>
      </g>
     </g>
    </g>
    <g id="xtick_14">
     <g id="line2d_14">
      <g>
       <use style="stroke:#000000;stroke-width:0.8;" x="728.722036" xlink:href="#m3c4d035857" y="476.745"/>
      </g>
     </g>
     <g id="text_14">
      <!-- 01 Apr -->
      <g transform="translate(713.63688 491.116875)scale(0.1 -0.1)">
       <use xlink:href="#Inter-Regular-30"/>
       <use x="62.500015" xlink:href="#Inter-Regular-31"/>
       <use x="106.676163" xlink:href="#Inter-Regular-20"/>
       <use x="134.801163" xlink:href="#Inter-Regular-41"/>
       <use x="202.41481" xlink:href="#Inter-Regular-70"/>
       <use x="263.352325" xlink:href="#Inter-Regular-72"/>
      </g>
     </g>
    </g>
   </g>
   <g id="matplotlib.axis_2">
    <g id="ytick_1">
     <g id="line2d_15">
      <path clip-path="url(#pe72dd50a1f)" d="M 68.575 476.745 
L 738.175 476.745 
" style="fill:none;stroke:#e5e5e5;stroke-linecap:square;stroke-width:0.8;"/>
     </g>
     <g id="line2d_16">
      <defs>
       <path d="M 0 0 
L -3.5 0 
" id="m5dd3384ce0" style="stroke:#000000;stroke-width:0.8;"/>
      </defs>
      <g>
       <use style="stroke:#000000;stroke-width:0.8;" x="68.575" xlink:href="#m5dd3384ce0" y="476.745"/>
      </g>
     </g>
     <g id="text_15">
      <!-- 0.00% -->
      <g transform="translate(31.94375 480.381719)scale(0.1 -0.1)">
       <defs>
        <path d="M 882 -36 
Q 714 -36 593 84 
Q 473 205 473 373 
Q 473 541 593 661 
Q 714 782 882 782 
Q 1050 782 1170 661 
Q 1291 541 1291 373 
Q 1291 205 1170 84 
Q 1050 -36 882 -36 
z
" id="Inter-Regular-2e" transform="scale(0.015625)"/>
        <path d="M 2855 873 
L 2855 1118 
Q 2855 1373 2960 1585 
Q 3066 1798 3269 1926 
Q 3473 2055 3764 2055 
Q 4059 2055 4259 1926 
Q 4459 1798 4561 1585 
Q 4664 1373 4664 1118 
L 4664 873 
Q 4664 618 4560 405 
Q 4457 193 4256 64 
Q 4055 -64 3764 -64 
Q 3468 -64 3266 64 
Q 3064 193 2959 405 
Q 2855 618 2855 873 
z
M 536 3536 
L 536 3782 
Q 536 4036 642 4248 
Q 748 4461 951 4589 
Q 1155 4718 1446 4718 
Q 1741 4718 1941 4589 
Q 2141 4461 2243 4248 
Q 2346 4036 2346 3782 
L 2346 3536 
Q 2346 3282 2242 3069 
Q 2139 2857 1937 2728 
Q 1736 2600 1446 2600 
Q 1150 2600 948 2728 
Q 746 2857 641 3069 
Q 536 3282 536 3536 
z
M 709 0 
L 3909 4655 
L 4427 4655 
L 1227 0 
L 709 0 
z
M 3318 1118 
L 3318 873 
Q 3318 661 3418 494 
Q 3518 327 3764 327 
Q 4002 327 4101 494 
Q 4200 661 4200 873 
L 4200 1118 
Q 4200 1330 4104 1497 
Q 4009 1664 3764 1664 
Q 3525 1664 3421 1497 
Q 3318 1330 3318 1118 
z
M 1000 3782 
L 1000 3536 
Q 1000 3325 1100 3158 
Q 1200 2991 1446 2991 
Q 1684 2991 1783 3158 
Q 1882 3325 1882 3536 
L 1882 3782 
Q 1882 3993 1786 4160 
Q 1691 4327 1446 4327 
Q 1207 4327 1103 4160 
Q 1000 3993 1000 3782 
z
" id="Inter-Regular-25" transform="scale(0.015625)"/>
       </defs>
       <use xlink:href="#Inter-Regular-30"/>
       <use x="62.500015" xlink:href="#Inter-Regular-2e"/>
       <use x="90.056839" xlink:href="#Inter-Regular-30"/>
       <use x="152.556854" xlink:href="#Inter-Regular-30"/>
       <use x="215.05687" xlink:href="#Inter-Regular-25"/>
      </g>
     </g>
    </g>
    <g id="ytick_2">
     <g id="line2d_17">
      <path clip-path="url(#pe72dd50a1f)" d="M 68.575 391.058343 
L 738.175 391.058343 
" style="fill:none;stroke:#e5e5e5;stroke-linecap:square;stroke-width:0.8;"/>
     </g>
     <g id="line2d_18">
      <g>
       <use style="stroke:#000000;stroke-width:0.8;" x="68.575" xlink:href="#m5dd3384ce0" y="391.058343"/>
      </g>
     </g>
     <g id="text_16">
      <!-- 0.02% -->
      <g transform="translate(32.142188 394.695062)scale(0.1 -0.1)">
       <defs>
        <path d="M 482 0 
L 482 409 
L 2018 2091 
Q 2289 2386 2464 2605 
Q 2639 2825 2724 3019 
Q 2809 3214 2809 3427 
Q 2809 3795 2553 4011 
Q 2298 4227 1918 4227 
Q 1514 4227 1275 3985 
Q 1036 3743 1036 3345 
L 500 3345 
Q 500 3755 688 4064 
Q 877 4373 1203 4545 
Q 1530 4718 1936 4718 
Q 2346 4718 2661 4545 
Q 2977 4373 3156 4079 
Q 3336 3786 3336 3427 
Q 3336 3170 3244 2926 
Q 3152 2682 2926 2383 
Q 2700 2084 2300 1655 
L 1255 536 
L 1255 500 
L 3418 500 
L 3418 0 
L 482 0 
z
" id="Inter-Regular-32" transform="scale(0.015625)"/>
       </defs>
       <use xlink:href="#Inter-Regular-30"/>
       <use x="62.500015" xlink:href="#Inter-Regular-2e"/>
       <use x="90.056839" xlink:href="#Inter-Regular-30"/>
       <use x="152.556854" xlink:href="#Inter-Regular-32"/>
       <use x="213.068237" xlink:href="#Inter-Regular-25"/>
      </g>
     </g>
    </g>
    <g id="ytick_3">
     <g id="line2d_19">
      <path clip-path="url(#pe72dd50a1f)" d="M 68.575 305.371686 
L 738.175 305.371686 
" style="fill:none;stroke:#e5e5e5;stroke-linecap:square;stroke-width:0.8;"/>
     </g>
     <g id="line2d_20">
      <g>
       <use style="stroke:#000000;stroke-width:0.8;" x="68.575" xlink:href="#m5dd3384ce0" y="305.371686"/>
      </g>
     </g>
     <g id="text_17">
      <!-- 0.04% -->
      <g transform="translate(31.773438 309.008405)scale(0.1 -0.1)">
       <defs>
        <path d="M 373 955 
L 373 1418 
L 2418 4655 
L 3100 4655 
L 3100 1455 
L 3736 1455 
L 3736 955 
L 3100 955 
L 3100 0 
L 2564 0 
L 2564 955 
L 373 955 
z
M 2564 1455 
L 2564 3936 
L 2527 3936 
L 982 1491 
L 982 1455 
L 2564 1455 
z
" id="Inter-Regular-34" transform="scale(0.015625)"/>
       </defs>
       <use xlink:href="#Inter-Regular-30"/>
       <use x="62.500015" xlink:href="#Inter-Regular-2e"/>
       <use x="90.056839" xlink:href="#Inter-Regular-30"/>
       <use x="152.556854" xlink:href="#Inter-Regular-34"/>
       <use x="216.761414" xlink:href="#Inter-Regular-25"/>
      </g>
     </g>
    </g>
    <g id="ytick_4">
     <g id="line2d_21">
      <path clip-path="url(#pe72dd50a1f)" d="M 68.575 219.68503 
L 738.175 219.68503 
" style="fill:none;stroke:#e5e5e5;stroke-linecap:square;stroke-width:0.8;"/>
     </g>
     <g id="line2d_22">
      <g>
       <use style="stroke:#000000;stroke-width:0.8;" x="68.575" xlink:href="#m5dd3384ce0" y="219.68503"/>
      </g>
     </g>
     <g id="text_18">
      <!-- 0.06% -->
      <g transform="translate(31.957813 223.321748)scale(0.1 -0.1)">
       <defs>
        <path d="M 2027 -64 
Q 1741 -59 1454 45 
Q 1168 150 932 399 
Q 696 648 552 1074 
Q 409 1500 409 2145 
Q 409 3386 861 4056 
Q 1314 4727 2100 4727 
Q 2686 4727 3073 4384 
Q 3461 4041 3546 3491 
L 2991 3491 
Q 2914 3811 2691 4019 
Q 2468 4227 2100 4227 
Q 1559 4227 1249 3755 
Q 939 3284 936 2427 
L 973 2427 
Q 1164 2716 1461 2880 
Q 1759 3045 2118 3045 
Q 2518 3045 2850 2846 
Q 3182 2648 3382 2299 
Q 3582 1950 3582 1500 
Q 3582 1068 3389 710 
Q 3196 352 2847 142 
Q 2498 -68 2027 -64 
z
M 2027 436 
Q 2314 436 2542 579 
Q 2771 723 2903 964 
Q 3036 1205 3036 1500 
Q 3036 1789 2908 2026 
Q 2780 2264 2556 2404 
Q 2332 2545 2046 2545 
Q 1757 2545 1525 2397 
Q 1293 2250 1157 2010 
Q 1021 1770 1018 1491 
Q 1018 1214 1149 973 
Q 1280 732 1508 584 
Q 1736 436 2027 436 
z
" id="Inter-Regular-36" transform="scale(0.015625)"/>
       </defs>
       <use xlink:href="#Inter-Regular-30"/>
       <use x="62.500015" xlink:href="#Inter-Regular-2e"/>
       <use x="90.056839" xlink:href="#Inter-Regular-30"/>
       <use x="152.556854" xlink:href="#Inter-Regular-36"/>
       <use x="214.914825" xlink:href="#Inter-Regular-25"/>
      </g>
     </g>
    </g>
    <g id="ytick_5">
     <g id="line2d_23">
      <path clip-path="url(#pe72dd50a1f)" d="M 68.575 133.998373 
L 738.175 133.998373 
" style="fill:none;stroke:#e5e5e5;stroke-linecap:square;stroke-width:0.8;"/>
     </g>
     <g id="line2d_24">
      <g>
       <use style="stroke:#000000;stroke-width:0.8;" x="68.575" xlink:href="#m5dd3384ce0" y="133.998373"/>
      </g>
     </g>
     <g id="text_19">
      <!-- 0.08% -->
      <g transform="translate(32.028125 137.635092)scale(0.1 -0.1)">
       <defs>
        <path d="M 1973 -64 
Q 1505 -64 1147 103 
Q 789 270 589 564 
Q 389 859 391 1236 
Q 389 1532 507 1783 
Q 625 2034 830 2203 
Q 1036 2373 1291 2418 
L 1291 2445 
Q 957 2532 759 2821 
Q 561 3111 564 3482 
Q 561 3836 743 4115 
Q 925 4395 1244 4556 
Q 1564 4718 1973 4718 
Q 2377 4718 2695 4556 
Q 3014 4395 3197 4115 
Q 3380 3836 3382 3482 
Q 3380 3111 3181 2821 
Q 2982 2532 2655 2445 
L 2655 2418 
Q 2907 2373 3109 2203 
Q 3311 2034 3431 1783 
Q 3552 1532 3555 1236 
Q 3552 859 3351 564 
Q 3150 270 2794 103 
Q 2439 -64 1973 -64 
z
M 1973 436 
Q 2446 436 2722 662 
Q 2998 889 3000 1264 
Q 2998 1527 2864 1729 
Q 2730 1932 2499 2048 
Q 2268 2164 1973 2164 
Q 1675 2164 1442 2048 
Q 1209 1932 1076 1729 
Q 943 1527 946 1264 
Q 943 889 1218 662 
Q 1493 436 1973 436 
z
M 1973 2645 
Q 2348 2645 2591 2864 
Q 2834 3084 2836 3445 
Q 2834 3800 2596 4013 
Q 2359 4227 1973 4227 
Q 1582 4227 1344 4013 
Q 1107 3800 1109 3445 
Q 1107 3084 1349 2864 
Q 1591 2645 1973 2645 
z
" id="Inter-Regular-38" transform="scale(0.015625)"/>
       </defs>
       <use xlink:href="#Inter-Regular-30"/>
       <use x="62.500015" xlink:href="#Inter-Regular-2e"/>
       <use x="90.056839" xlink:href="#Inter-Regular-30"/>
       <use x="152.556854" xlink:href="#Inter-Regular-38"/>
       <use x="214.20459" xlink:href="#Inter-Regular-25"/>
      </g>
     </g>
    </g>
    <g id="ytick_6">
     <g id="line2d_25">
      <path clip-path="url(#pe72dd50a1f)" d="M 68.575 48.311716 
L 738.175 48.311716 
" style="fill:none;stroke:#e5e5e5;stroke-linecap:square;stroke-width:0.8;"/>
     </g>
     <g id="line2d_26">
      <g>
       <use style="stroke:#000000;stroke-width:0.8;" x="68.575" xlink:href="#m5dd3384ce0" y="48.311716"/>
      </g>
     </g>
     <g id="text_20">
      <!-- 0.10% -->
      <g transform="translate(33.776563 51.948435)scale(0.1 -0.1)">
       <use xlink:href="#Inter-Regular-30"/>
       <use x="62.500015" xlink:href="#Inter-Regular-2e"/>
       <use x="90.056839" xlink:href="#Inter-Regular-31"/>
       <use x="134.232986" xlink:href="#Inter-Regular-30"/>
       <use x="196.733002" xlink:href="#Inter-Regular-25"/>
      </g>
     </g>
    </g>
    <g id="text_21">
     <!-- Percent of nation tested positive (seven day average) -->
     <g transform="translate(25.614063 382.124063)rotate(-90)scale(0.1 -0.1)">
      <defs>
       <path d="M 564 0 
L 564 4655 
L 2136 4655 
Q 2684 4655 3033 4458 
Q 3382 4261 3550 3927 
Q 3718 3593 3718 3182 
Q 3718 2770 3551 2434 
Q 3384 2098 3036 1899 
Q 2689 1700 2146 1700 
L 1127 1700 
L 1127 0 
L 564 0 
z
M 1127 2200 
L 2127 2200 
Q 2689 2200 2926 2482 
Q 3164 2764 3164 3182 
Q 3164 3602 2925 3878 
Q 2686 4155 2118 4155 
L 1127 4155 
L 1127 2200 
z
" id="Inter-Regular-50" transform="scale(0.015625)"/>
       <path d="M 2046 3491 
L 2046 3036 
L 1264 3036 
L 1264 0 
L 727 0 
L 727 3036 
L 164 3036 
L 164 3491 
L 727 3491 
L 727 3973 
Q 727 4273 868 4473 
Q 1009 4673 1234 4773 
Q 1459 4873 1709 4873 
Q 1907 4873 2032 4841 
Q 2157 4809 2218 4782 
L 2064 4318 
Q 2023 4332 1951 4352 
Q 1880 4373 1764 4373 
Q 1498 4373 1381 4239 
Q 1264 4105 1264 3845 
L 1264 3491 
L 2046 3491 
z
" id="Inter-Regular-66" transform="scale(0.015625)"/>
       <path d="M 491 0 
L 491 3491 
L 1027 3491 
L 1027 0 
L 491 0 
z
M 764 4073 
Q 607 4073 494 4179 
Q 382 4286 382 4436 
Q 382 4586 494 4693 
Q 607 4800 764 4800 
Q 921 4800 1033 4693 
Q 1146 4586 1146 4436 
Q 1146 4286 1033 4179 
Q 921 4073 764 4073 
z
" id="Inter-Regular-69" transform="scale(0.015625)"/>
       <path d="M 2964 2709 
L 2482 2573 
Q 2411 2755 2245 2914 
Q 2080 3073 1727 3073 
Q 1407 3073 1194 2926 
Q 982 2780 982 2555 
Q 982 2355 1127 2239 
Q 1273 2123 1582 2045 
L 2100 1918 
Q 3027 1691 3027 973 
Q 3027 673 2855 436 
Q 2684 200 2377 63 
Q 2071 -73 1664 -73 
Q 1130 -73 780 159 
Q 430 391 336 836 
L 846 964 
Q 989 400 1655 400 
Q 2030 400 2251 560 
Q 2473 720 2473 945 
Q 2473 1316 1955 1436 
L 1373 1573 
Q 893 1686 669 1926 
Q 446 2166 446 2527 
Q 446 2823 613 3050 
Q 780 3277 1069 3406 
Q 1359 3536 1727 3536 
Q 2246 3536 2542 3309 
Q 2839 3082 2964 2709 
z
" id="Inter-Regular-73" transform="scale(0.015625)"/>
       <path d="M 1809 -73 
Q 1373 -73 1039 148 
Q 705 370 516 776 
Q 327 1182 327 1736 
Q 327 2286 516 2690 
Q 705 3095 1041 3315 
Q 1377 3536 1818 3536 
Q 2159 3536 2358 3423 
Q 2557 3311 2662 3169 
Q 2768 3027 2827 2936 
L 2873 2936 
L 2873 4655 
L 3409 4655 
L 3409 0 
L 2891 0 
L 2891 536 
L 2827 536 
Q 2768 441 2659 296 
Q 2550 152 2348 39 
Q 2146 -73 1809 -73 
z
M 1882 409 
Q 2366 409 2624 780 
Q 2882 1152 2882 1745 
Q 2882 2332 2627 2693 
Q 2373 3055 1882 3055 
Q 1541 3055 1315 2881 
Q 1089 2707 976 2410 
Q 864 2114 864 1745 
Q 864 1373 978 1069 
Q 1093 766 1319 587 
Q 1546 409 1882 409 
z
" id="Inter-Regular-64" transform="scale(0.015625)"/>
       <path d="M 682 1964 
Q 682 2823 906 3544 
Q 1130 4266 1546 4873 
L 2018 4873 
Q 1800 4573 1623 4095 
Q 1446 3618 1341 3061 
Q 1236 2505 1236 1964 
Q 1236 1423 1341 866 
Q 1446 309 1623 -168 
Q 1800 -645 2018 -945 
L 1546 -945 
Q 1130 -339 906 383 
Q 682 1105 682 1964 
z
" id="Inter-Regular-28" transform="scale(0.015625)"/>
       <path d="M 1638 1940 
Q 1638 1081 1414 359 
Q 1191 -362 775 -969 
L 302 -969 
Q 520 -669 697 -191 
Q 875 286 979 842 
Q 1084 1399 1084 1940 
Q 1084 2481 979 3038 
Q 875 3595 697 4072 
Q 520 4549 302 4849 
L 775 4849 
Q 1191 4243 1414 3521 
Q 1638 2799 1638 1940 
z
" id="Inter-Regular-29" transform="scale(0.015625)"/>
      </defs>
      <use xlink:href="#Inter-Regular-50"/>
      <use x="63.494324" xlink:href="#Inter-Regular-65"/>
      <use x="121.732971" xlink:href="#Inter-Regular-72"/>
      <use x="160.085251" xlink:href="#Inter-Regular-63"/>
      <use x="215.909119" xlink:href="#Inter-Regular-65"/>
      <use x="274.147766" xlink:href="#Inter-Regular-6e"/>
      <use x="332.670502" xlink:href="#Inter-Regular-74"/>
      <use x="369.034149" xlink:href="#Inter-Regular-20"/>
      <use x="397.159149" xlink:href="#Inter-Regular-6f"/>
      <use x="456.818253" xlink:href="#Inter-Regular-66"/>
      <use x="492.897797" xlink:href="#Inter-Regular-20"/>
      <use x="521.022797" xlink:href="#Inter-Regular-6e"/>
      <use x="579.545532" xlink:href="#Inter-Regular-61"/>
      <use x="635.937592" xlink:href="#Inter-Regular-74"/>
      <use x="672.301239" xlink:href="#Inter-Regular-69"/>
      <use x="696.022827" xlink:href="#Inter-Regular-6f"/>
      <use x="755.681931" xlink:href="#Inter-Regular-6e"/>
      <use x="814.204666" xlink:href="#Inter-Regular-20"/>
      <use x="842.329666" xlink:href="#Inter-Regular-74"/>
      <use x="878.693314" xlink:href="#Inter-Regular-65"/>
      <use x="936.931961" xlink:href="#Inter-Regular-73"/>
      <use x="989.204697" xlink:href="#Inter-Regular-74"/>
      <use x="1025.568344" xlink:href="#Inter-Regular-65"/>
      <use x="1083.806992" xlink:href="#Inter-Regular-64"/>
      <use x="1145.880875" xlink:href="#Inter-Regular-20"/>
      <use x="1174.005875" xlink:href="#Inter-Regular-70"/>
      <use x="1234.94339" xlink:href="#Inter-Regular-6f"/>
      <use x="1294.602493" xlink:href="#Inter-Regular-73"/>
      <use x="1346.875229" xlink:href="#Inter-Regular-69"/>
      <use x="1370.596817" xlink:href="#Inter-Regular-74"/>
      <use x="1406.960464" xlink:href="#Inter-Regular-69"/>
      <use x="1430.682053" xlink:href="#Inter-Regular-76"/>
      <use x="1486.363876" xlink:href="#Inter-Regular-65"/>
      <use x="1544.602524" xlink:href="#Inter-Regular-20"/>
      <use x="1572.727524" xlink:href="#Inter-Regular-28"/>
      <use x="1608.949112" xlink:href="#Inter-Regular-73"/>
      <use x="1661.221848" xlink:href="#Inter-Regular-65"/>
      <use x="1719.460495" xlink:href="#Inter-Regular-76"/>
      <use x="1775.142319" xlink:href="#Inter-Regular-65"/>
      <use x="1833.380966" xlink:href="#Inter-Regular-6e"/>
      <use x="1891.903702" xlink:href="#Inter-Regular-20"/>
      <use x="1920.028702" xlink:href="#Inter-Regular-64"/>
      <use x="1982.102585" xlink:href="#Inter-Regular-61"/>
      <use x="2038.494644" xlink:href="#Inter-Regular-79"/>
      <use x="2094.176468" xlink:href="#Inter-Regular-20"/>
      <use x="2122.301468" xlink:href="#Inter-Regular-61"/>
      <use x="2178.693527" xlink:href="#Inter-Regular-76"/>
      <use x="2234.375351" xlink:href="#Inter-Regular-65"/>
      <use x="2292.613998" xlink:href="#Inter-Regular-72"/>
      <use x="2330.966278" xlink:href="#Inter-Regular-61"/>
      <use x="2387.358337" xlink:href="#Inter-Regular-67"/>
      <use x="2448.295853" xlink:href="#Inter-Regular-65"/>
      <use x="2506.5345" xlink:href="#Inter-Regular-29"/>
     </g>
    </g>
   </g>
   <g id="line2d_27">
    <path clip-path="url(#pe72dd50a1f)" d="M 16.896823 476.729777 
L 43.56943 476.742825 
L 68.575 476.686282 
L 80.244266 476.34811 
L 83.578342 476.065394 
L 91.913532 474.328864 
L 95.247608 473.378502 
L 100.248721 471.461469 
L 103.582797 469.79888 
L 106.916873 466.739021 
L 108.583911 465.271071 
L 111.917987 461.740381 
L 116.919101 457.313697 
L 120.253177 453.38068 
L 123.587253 450.237093 
L 125.254291 449.145374 
L 126.921329 448.452719 
L 130.255405 446.653122 
L 131.922443 446.471531 
L 133.589481 446.482405 
L 135.256519 447.030439 
L 136.923557 447.367524 
L 138.590595 447.512144 
L 141.924671 449.662962 
L 143.591709 449.741253 
L 145.258747 449.442226 
L 146.925785 448.910502 
L 148.592823 447.772025 
L 150.259861 447.197894 
L 151.926898 446.924964 
L 153.593936 446.457395 
L 155.260974 445.819109 
L 158.59505 445.26455 
L 160.262088 446.065942 
L 161.929126 446.431298 
L 163.596164 446.052893 
L 165.263202 445.908273 
L 166.93024 445.990913 
L 170.264316 446.550909 
L 171.931354 447.229428 
L 173.598392 447.779637 
L 175.26543 449.069258 
L 176.932468 450.125094 
L 178.599506 451.717004 
L 180.266544 452.919635 
L 181.933582 454.519156 
L 183.60062 455.55542 
L 185.267658 456.238288 
L 186.934696 456.004504 
L 188.601734 456.240463 
L 190.268772 456.654751 
L 191.93581 457.733422 
L 193.602848 458.266234 
L 195.269886 458.289068 
L 196.936924 458.735977 
L 198.603962 459.65263 
L 200.271 460.017987 
L 201.938038 460.602992 
L 203.605076 460.535575 
L 205.272113 460.899844 
L 208.606189 461.838244 
L 210.273227 462.748373 
L 211.940265 463.978188 
L 215.274341 465.535302 
L 216.941379 465.991998 
L 220.275455 466.551993 
L 223.609531 466.730322 
L 230.277683 468.270038 
L 235.278797 469.291078 
L 240.279911 469.797793 
L 245.281025 469.693405 
L 246.948063 469.762997 
L 248.615101 469.94785 
L 250.282139 469.918491 
L 256.950291 470.59701 
L 261.951404 471.417974 
L 270.286594 472.220453 
L 276.954746 472.691285 
L 278.621784 472.551014 
L 283.622898 472.499907 
L 285.289936 472.365073 
L 288.624012 472.341151 
L 290.29105 472.545577 
L 306.96143 472.112804 
L 316.963657 471.53541 
L 320.297733 471.160267 
L 323.631809 471.253781 
L 325.298847 471.257043 
L 328.632923 470.969978 
L 330.299961 471.003686 
L 331.966999 470.86994 
L 335.301075 470.451302 
L 336.968113 470.402371 
L 338.635151 469.950025 
L 340.302189 469.631425 
L 341.969227 469.462883 
L 343.636265 469.420475 
L 345.303303 469.23671 
L 348.637379 469.259545 
L 351.971455 469.805404 
L 353.638493 469.832589 
L 355.305531 469.61294 
L 358.639607 469.566183 
L 360.306645 469.38568 
L 361.973683 469.391116 
L 366.974797 469.059469 
L 370.308872 468.297222 
L 371.97591 467.990584 
L 373.642948 467.8514 
L 375.309986 466.907563 
L 378.644062 463.83683 
L 381.978138 461.273899 
L 383.645176 460.09519 
L 385.312214 457.697539 
L 386.979252 456.526442 
L 388.64629 456.273084 
L 390.313328 455.797904 
L 391.980366 455.511925 
L 393.647404 455.488003 
L 395.314442 455.868583 
L 396.98148 456.479685 
L 398.648518 456.43619 
L 401.982594 454.548515 
L 403.649632 453.002275 
L 405.31667 450.863418 
L 406.983708 447.69156 
L 408.650746 445.733207 
L 413.65186 438.326042 
L 415.318898 436.403572 
L 418.652974 433.279558 
L 420.320012 429.059474 
L 421.98705 425.405911 
L 423.654087 420.373563 
L 425.321125 414.920402 
L 426.988163 408.901809 
L 430.322239 400.353993 
L 433.656315 388.358127 
L 435.323353 383.264885 
L 436.990391 378.954551 
L 438.657429 377.396349 
L 440.324467 376.907033 
L 441.991505 377.09841 
L 443.658543 374.749691 
L 446.992619 372.147614 
L 448.659657 372.169362 
L 450.326695 370.4872 
L 453.660771 365.698422 
L 456.994847 352.856582 
L 458.661885 347.365364 
L 460.328923 342.60812 
L 461.995961 338.73817 
L 463.662999 337.472471 
L 465.330037 336.049104 
L 466.997075 335.3434 
L 468.664113 336.262228 
L 470.331151 337.635577 
L 471.998189 337.241949 
L 473.665227 335.577185 
L 475.332265 334.672493 
L 476.999303 334.452844 
L 478.66634 328.832229 
L 480.333378 326.853215 
L 482.000416 326.351938 
L 483.667454 325.389615 
L 485.334492 324.104344 
L 487.00153 321.640363 
L 488.668568 316.639548 
L 490.335606 316.455783 
L 492.002644 314.098365 
L 493.669682 309.805428 
L 495.33672 308.623457 
L 497.003758 307.720939 
L 498.670796 308.360313 
L 500.337834 312.431426 
L 503.67191 321.690382 
L 507.005986 335.68266 
L 508.673024 343.265979 
L 510.340062 349.156262 
L 512.0071 353.705818 
L 513.674138 361.890453 
L 515.341176 368.756107 
L 517.008214 373.420924 
L 518.675252 376.942916 
L 520.34229 379.568915 
L 522.009328 381.108631 
L 525.343404 383.583485 
L 528.67748 384.646933 
L 530.344518 384.350081 
L 532.011556 383.635679 
L 533.678593 382.545046 
L 535.345631 380.386617 
L 537.012669 377.804113 
L 538.679707 374.368024 
L 540.346745 369.96635 
L 542.013783 363.419295 
L 543.680821 355.847937 
L 545.347859 349.506395 
L 547.014897 341.64036 
L 550.348973 314.953038 
L 552.016011 301.219554 
L 553.683049 289.214989 
L 555.350087 276.208956 
L 557.017125 269.990287 
L 558.684163 258.211894 
L 560.351201 243.956473 
L 562.018239 231.09506 
L 563.685277 222.85497 
L 565.352315 223.803157 
L 567.019353 244.656739 
L 568.686391 228.402732 
L 570.353429 213.715625 
L 572.020467 216.531913 
L 573.687505 182.173195 
L 575.354543 154.745373 
L 577.021581 135.185761 
L 578.688619 118.270633 
L 580.355657 99.224259 
L 582.022695 91.54199 
L 583.689733 59.884299 
L 585.356771 75.591359 
L 587.023808 88.166793 
L 588.690846 87.991727 
L 590.357884 72.579344 
L 592.024922 92.970794 
L 595.358998 129.644523 
L 597.026036 144.178311 
L 598.693074 155.229253 
L 600.360112 164.262036 
L 602.02715 170.307813 
L 603.694188 178.772989 
L 605.361226 185.981165 
L 607.028264 198.268446 
L 608.695302 207.724216 
L 612.029378 228.549527 
L 613.696416 239.269908 
L 615.363454 247.70355 
L 617.030492 259.37538 
L 618.69753 274.176661 
L 620.364568 286.719475 
L 622.031606 295.965382 
L 625.365682 311.345144 
L 627.03272 316.679781 
L 628.699758 318.565281 
L 632.033834 333.545978 
L 637.034948 352.278101 
L 638.701986 357.074491 
L 640.369024 360.965101 
L 642.036061 367.768775 
L 647.037175 385.146036 
L 648.704213 388.878977 
L 652.038289 394.836677 
L 655.372365 397.955255 
L 657.039403 399.948404 
L 658.706441 401.396781 
L 660.373479 403.214863 
L 662.040517 404.134778 
L 663.707555 404.926384 
L 667.041631 410.60898 
L 668.708669 413.578587 
L 672.042745 420.657366 
L 675.376821 426.797745 
L 677.043859 431.140701 
L 678.710897 433.84499 
L 680.377935 436.220893 
L 682.044973 438.166198 
L 683.712011 439.298151 
L 687.046087 440.147387 
L 688.713125 440.349638 
L 690.380163 440.732392 
L 695.381277 440.705208 
L 697.048314 440.982487 
L 698.715352 440.91072 
L 700.38239 441.074913 
L 702.049428 441.597938 
L 705.383504 441.946984 
L 707.050542 442.477621 
L 708.71758 442.554824 
L 710.384618 441.35763 
L 712.051656 441.628385 
L 713.718694 442.186206 
L 715.385732 442.087255 
L 717.05277 442.314515 
L 720.386846 443.427982 
L 722.053884 443.816173 
L 723.720922 446.171417 
L 725.38796 447.772025 
L 727.054998 449.853252 
L 727.054998 449.853252 
" style="fill:none;stroke:#5694ca;stroke-linecap:square;stroke-width:2;"/>
   </g>
   <g id="line2d_28">
    <path clip-path="url(#pe72dd50a1f)" d="M 23.564975 476.745 
L 75.243152 476.680358 
L 78.577228 476.454113 
L 83.578342 476.098585 
L 85.24538 475.743056 
L 86.912418 475.678415 
L 88.579456 475.387528 
L 90.246494 475.225924 
L 91.913532 475.258245 
L 95.247608 474.999679 
L 96.914645 474.935037 
L 98.581683 474.61183 
L 100.248721 474.417905 
L 101.915759 474.094698 
L 103.582797 473.577566 
L 106.916873 471.444396 
L 108.583911 470.054603 
L 110.250949 468.050716 
L 111.917987 466.434678 
L 113.585025 464.624715 
L 116.919101 461.812809 
L 118.586139 459.550356 
L 120.253177 458.063601 
L 121.920215 457.126299 
L 123.587253 455.995073 
L 125.254291 455.671865 
L 126.921329 455.736507 
L 130.255405 454.475997 
L 131.922443 454.475997 
L 135.256519 454.928488 
L 136.923557 455.542582 
L 138.590595 455.122412 
L 140.257633 455.090091 
L 141.924671 456.188997 
L 143.591709 455.187054 
L 145.258747 453.926544 
L 146.925785 451.987299 
L 148.592823 451.405525 
L 150.259861 452.439789 
L 151.926898 452.245865 
L 153.593936 451.082317 
L 155.260974 452.278185 
L 156.928012 454.411355 
L 158.59505 456.73845 
L 160.262088 457.805035 
L 161.929126 457.708073 
L 163.596164 459.033224 
L 165.263202 460.875507 
L 166.93024 461.037111 
L 168.597278 459.647318 
L 170.264316 459.162507 
L 171.931354 457.966639 
L 173.598392 457.675752 
L 175.26543 457.57879 
L 176.932468 457.611111 
L 178.599506 457.966639 
L 180.266544 458.548413 
L 181.933582 459.356432 
L 183.60062 460.487658 
L 185.267658 460.229092 
L 186.934696 460.196771 
L 188.601734 459.614998 
L 190.268772 459.776601 
L 191.93581 460.5523 
L 193.602848 460.746224 
L 195.269886 461.198715 
L 196.936924 462.006734 
L 198.603962 462.426904 
L 200.271 463.040998 
L 201.938038 463.073319 
L 203.605076 463.622772 
L 205.272113 464.689357 
L 206.939151 464.236866 
L 208.606189 464.430791 
L 210.273227 465.174168 
L 213.607303 467.953754 
L 215.274341 468.858735 
L 216.941379 469.278905 
L 218.608417 470.604056 
L 220.275455 470.733339 
L 221.942493 471.21815 
L 223.609531 471.444396 
L 225.276569 472.155452 
L 226.943607 472.704905 
L 228.610645 472.607943 
L 230.277683 472.769547 
L 231.944721 473.448283 
L 235.278797 474.062377 
L 236.945835 473.900773 
L 238.612873 473.933094 
L 240.279911 474.353264 
L 243.613987 474.19166 
L 245.281025 474.030056 
L 246.948063 474.030056 
L 248.615101 474.385585 
L 250.282139 474.482547 
L 251.949177 474.417905 
L 255.283253 474.741113 
L 256.950291 475.225924 
L 265.28548 475.743056 
L 268.619556 475.678415 
L 270.286594 475.87234 
L 280.288822 475.840019 
L 285.289936 475.613773 
L 286.956974 475.743056 
L 290.29105 475.516811 
L 291.958088 475.678415 
L 293.625126 475.613773 
L 295.292164 475.322887 
L 296.959202 474.870396 
L 300.293278 474.708792 
L 303.627354 474.741113 
L 305.294392 474.579509 
L 308.628468 475.032 
L 310.295506 474.838075 
L 313.629582 474.999679 
L 315.296619 474.708792 
L 323.631809 474.482547 
L 326.965885 474.030056 
L 328.632923 473.900773 
L 330.299961 473.319 
L 331.966999 473.092754 
L 333.634037 472.995792 
L 336.968113 471.929207 
L 338.635151 471.088867 
L 340.302189 470.410131 
L 341.969227 470.086924 
L 343.636265 468.988018 
L 345.303303 467.662867 
L 348.637379 467.986074 
L 350.304417 467.695187 
L 353.638493 467.468942 
L 358.639607 465.432734 
L 360.306645 464.39847 
L 361.973683 464.657036 
L 363.640721 463.945979 
L 365.307759 462.976357 
L 368.641834 462.588508 
L 370.308872 462.556187 
L 371.97591 463.10564 
L 373.642948 462.814753 
L 375.309986 462.814753 
L 376.977024 462.200658 
L 378.644062 461.295677 
L 381.978138 458.322167 
L 383.645176 456.092035 
L 385.312214 455.510261 
L 386.979252 455.801148 
L 388.64629 455.542582 
L 390.313328 456.415243 
L 391.980366 458.257526 
L 393.647404 457.740394 
L 395.314442 458.160564 
L 398.648518 454.993129 
L 400.315556 453.894223 
L 403.649632 447.947204 
L 405.31667 446.169562 
L 406.983708 445.102977 
L 408.650746 444.585845 
L 410.317784 442.549637 
L 411.984822 439.737731 
L 413.65186 436.053164 
L 415.318898 433.596787 
L 416.985936 430.138465 
L 418.652974 425.387314 
L 420.320012 420.183672 
L 421.98705 413.105425 
L 423.654087 399.401424 
L 425.321125 392.969593 
L 426.988163 378.295968 
L 430.322239 355.768399 
L 435.323353 316.369394 
L 436.990391 300.176693 
L 438.657429 295.554825 
L 440.324467 289.80173 
L 441.991505 282.755804 
L 443.658543 269.956784 
L 445.325581 260.84233 
L 446.992619 259.840386 
L 450.326695 251.533951 
L 451.993733 250.176479 
L 453.660771 251.469309 
L 455.327809 253.6348 
L 456.994847 254.313536 
L 458.661885 252.665178 
L 460.328923 253.667121 
L 461.995961 256.479027 
L 463.662999 259.775745 
L 465.330037 263.363349 
L 466.997075 268.179142 
L 468.664113 276.033086 
L 470.331151 287.66856 
L 471.998189 300.112052 
L 473.665227 306.349958 
L 476.999303 320.668055 
L 478.66634 326.970603 
L 482.000416 337.571812 
L 483.667454 341.805831 
L 485.334492 348.399266 
L 487.00153 350.241549 
L 488.668568 351.599021 
L 490.335606 353.182738 
L 492.002644 351.792946 
L 493.669682 351.308134 
L 497.003758 352.083832 
L 498.670796 353.2797 
L 500.337834 354.863418 
L 502.004872 357.028908 
L 503.67191 361.101324 
L 505.338948 366.563532 
L 507.005986 373.092326 
L 508.673024 376.389043 
L 510.340062 380.49378 
L 512.0071 383.693535 
L 513.674138 390.28697 
L 515.341176 397.785386 
L 517.008214 398.464122 
L 518.675252 398.851971 
L 520.34229 400.144801 
L 522.009328 398.528763 
L 523.676366 399.110537 
L 525.343404 394.941159 
L 527.010442 393.034234 
L 528.67748 393.260479 
L 530.344518 388.121479 
L 532.011556 384.857082 
L 533.678593 383.111761 
L 535.345631 379.491836 
L 537.012669 380.655383 
L 538.679707 378.360609 
L 540.346745 376.970817 
L 542.013783 376.809213 
L 543.680821 373.997307 
L 545.347859 375.160854 
L 547.014897 374.158911 
L 548.681935 370.991476 
L 550.348973 368.890627 
L 552.016011 363.654664 
L 553.683049 360.357947 
L 555.350087 359.808494 
L 557.017125 355.83304 
L 558.684163 352.924172 
L 560.351201 347.946775 
L 563.685277 335.697208 
L 565.352315 334.986151 
L 567.019353 341.32102 
L 568.686391 333.757962 
L 570.353429 314.365507 
L 572.020467 292.775239 
L 573.687505 241.611478 
L 575.354543 195.651359 
L 577.021581 160.130844 
L 578.688619 130.815916 
L 580.355657 91.740118 
L 582.022695 74.222267 
L 583.689733 54.345 
L 587.023808 99.270855 
L 588.690846 114.978744 
L 590.357884 115.334272 
L 592.024922 145.295616 
L 595.358998 193.421226 
L 597.026036 209.646247 
L 598.693074 224.772362 
L 600.360112 235.211968 
L 602.02715 247.817064 
L 603.694188 257.836499 
L 605.361226 266.595425 
L 607.028264 278.069294 
L 608.695302 286.343408 
L 610.36234 295.425542 
L 612.029378 300.661505 
L 613.696416 308.353845 
L 615.363454 315.496733 
L 617.030492 320.797338 
L 618.69753 329.911792 
L 620.364568 337.442529 
L 622.031606 342.710812 
L 623.698644 350.370832 
L 625.365682 353.085776 
L 627.03272 355.38055 
L 628.699758 357.190512 
L 630.366796 360.681154 
L 632.033834 366.563532 
L 633.700872 371.120759 
L 635.36791 374.96693 
L 637.034948 378.037402 
L 638.701986 380.849308 
L 640.369024 384.372271 
L 642.036061 389.155743 
L 643.703099 392.904951 
L 645.370137 396.977367 
L 647.037175 400.338726 
L 648.704213 405.186839 
L 650.371251 409.000689 
L 652.038289 410.067274 
L 653.705327 409.841029 
L 655.372365 410.390482 
L 657.039403 410.681369 
L 658.706441 411.16618 
L 660.373479 410.584406 
L 662.040517 409.226934 
L 663.707555 411.198501 
L 665.374593 414.947709 
L 668.708669 418.632275 
L 670.375707 419.569577 
L 672.042745 423.351106 
L 673.709783 425.807484 
L 677.043859 429.944541 
L 678.710897 431.302013 
L 680.377935 434.986579 
L 682.044973 437.475278 
L 683.712011 438.444901 
L 685.379049 438.83275 
L 687.046087 437.604561 
L 688.713125 436.537976 
L 690.380163 437.249032 
L 692.047201 436.150127 
L 693.714239 435.503711 
L 695.381277 434.501768 
L 697.048314 434.760334 
L 700.38239 437.960089 
L 702.049428 438.444901 
L 703.716466 440.319505 
L 705.383504 440.739674 
L 707.050542 442.226429 
L 708.71758 442.711241 
L 712.051656 442.614278 
L 713.718694 443.486939 
L 715.385732 442.581958 
L 717.05277 442.484995 
L 718.719808 442.161788 
L 720.386846 442.194109 
L 722.053884 442.840524 
L 722.053884 442.840524 
" style="fill:none;stroke:#ffdd00;stroke-linecap:square;stroke-width:2;"/>
   </g>
   <g id="line2d_29">
    <path clip-path="url(#pe72dd50a1f)" d="M 65.240924 476.66658 
L 68.575 476.66658 
L 75.243152 476.576957 
L 81.911304 476.274479 
L 85.24538 475.848769 
L 88.579456 474.974943 
L 91.913532 474.72848 
L 93.58057 474.672465 
L 96.914645 474.257958 
L 98.581683 474.134726 
L 100.248721 473.742625 
L 101.915759 473.216089 
L 103.582797 472.510307 
L 106.916873 469.799208 
L 108.583911 468.152383 
L 110.250949 466.203079 
L 111.917987 464.063327 
L 113.585025 462.506125 
L 115.252063 461.139373 
L 120.253177 454.932971 
L 121.920215 453.499001 
L 123.587253 452.322697 
L 125.254291 451.717741 
L 126.921329 451.40406 
L 128.588367 450.463018 
L 130.255405 450.339786 
L 135.256519 451.930596 
L 136.923557 452.75961 
L 138.590595 452.815625 
L 140.257633 453.319755 
L 143.591709 453.510204 
L 145.258747 452.132248 
L 146.925785 451.40406 
L 148.592823 450.519032 
L 150.259861 451.202408 
L 151.926898 446.530803 
L 153.593936 445.93705 
L 155.260974 445.836224 
L 156.928012 447.10215 
L 160.262088 448.995439 
L 161.929126 448.849801 
L 163.596164 452.726002 
L 165.263202 452.938856 
L 166.93024 451.930596 
L 168.597278 451.695336 
L 170.264316 450.989553 
L 171.931354 450.619858 
L 173.598392 450.429409 
L 176.932468 452.569161 
L 178.599506 453.95832 
L 180.266544 454.46245 
L 181.933582 455.739579 
L 185.267658 456.624608 
L 188.601734 458.047375 
L 190.268772 459.257287 
L 191.93581 460.131113 
L 193.602848 461.273807 
L 195.269886 462.102821 
L 196.936924 462.752589 
L 198.603962 464.119342 
L 200.271 464.657081 
L 201.938038 465.519703 
L 203.605076 466.651195 
L 206.939151 467.917122 
L 210.273227 468.824556 
L 211.940265 470.00086 
L 216.941379 471.950163 
L 218.608417 472.062192 
L 220.275455 472.409481 
L 221.942493 473.070452 
L 225.276569 473.776234 
L 226.943607 474.000292 
L 228.610645 474.056306 
L 230.277683 474.257958 
L 231.944721 474.325176 
L 235.278797 474.750885 
L 240.279911 474.907726 
L 245.281025 474.907726 
L 246.948063 475.019755 
L 248.615101 474.974943 
L 251.949177 475.131784 
L 253.616215 475.322233 
L 258.617329 475.445465 
L 260.284366 475.725537 
L 261.951404 475.669522 
L 263.618442 475.859972 
L 286.956974 476.117638 
L 300.293278 475.770348 
L 301.960316 475.602305 
L 303.627354 475.647117 
L 306.96143 475.546291 
L 310.295506 475.490276 
L 313.629582 475.714334 
L 316.963657 475.680725 
L 320.297733 475.501479 
L 321.964771 475.38945 
L 325.298847 475.030958 
L 326.965885 474.482016 
L 333.634037 472.936017 
L 340.302189 472.790379 
L 341.969227 472.992031 
L 343.636265 473.059249 
L 345.303303 473.014437 
L 346.970341 473.092858 
L 350.304417 472.835191 
L 351.971455 472.667148 
L 353.638493 472.17422 
L 355.305531 471.255583 
L 358.639607 470.448975 
L 360.306645 470.068077 
L 361.973683 470.247323 
L 363.640721 470.314541 
L 365.307759 470.258526 
L 366.974797 470.751453 
L 368.641834 470.594613 
L 371.97591 469.720787 
L 373.642948 468.779744 
L 375.309986 467.356977 
L 378.644062 465.127602 
L 380.3111 464.399414 
L 385.312214 463.06627 
L 386.979252 464.141748 
L 390.313328 463.469574 
L 391.980366 462.954241 
L 393.647404 462.091618 
L 396.98148 461.609894 
L 398.648518 460.097504 
L 400.315556 459.458939 
L 401.982594 459.078041 
L 403.649632 458.473085 
L 405.31667 458.226621 
L 406.983708 456.635811 
L 411.984822 447.460643 
L 413.65186 442.408139 
L 415.318898 438.980054 
L 416.985936 436.728273 
L 418.652974 436.29136 
L 421.98705 432.538392 
L 423.654087 430.062553 
L 425.321125 429.379177 
L 426.988163 426.668077 
L 428.655201 423.699311 
L 430.322239 419.386198 
L 431.989277 414.08723 
L 433.656315 408.138495 
L 435.323353 403.018774 
L 436.990391 398.604835 
L 438.657429 395.490431 
L 440.324467 392.801737 
L 441.991505 390.393116 
L 443.658543 387.446755 
L 445.325581 384.858887 
L 446.992619 384.410772 
L 448.659657 383.032816 
L 450.326695 381.296368 
L 451.993733 382.192599 
L 453.660771 383.660178 
L 455.327809 383.727395 
L 456.994847 380.803441 
L 458.661885 377.554602 
L 460.328923 375.213198 
L 461.995961 374.809894 
L 463.662999 373.779228 
L 465.330037 372.535707 
L 466.997075 372.647736 
L 468.664113 376.860023 
L 470.331151 380.355325 
L 471.998189 384.892496 
L 473.665227 386.920219 
L 475.332265 389.272826 
L 476.999303 388.880725 
L 478.66634 387.390741 
L 480.333378 386.449698 
L 482.000416 386.057597 
L 483.667454 383.86183 
L 485.334492 383.469729 
L 487.00153 382.34944 
L 488.668568 383.424917 
L 490.335606 385.475046 
L 492.002644 386.617741 
L 493.669682 387.211495 
L 495.33672 388.309378 
L 497.003758 389.194406 
L 498.670796 388.354189 
L 500.337834 389.09358 
L 502.004872 389.317638 
L 503.67191 390.045826 
L 505.338948 391.558216 
L 508.673024 396.18501 
L 510.340062 397.932661 
L 513.674138 400.419703 
L 515.341176 403.052382 
L 518.675252 407.130235 
L 520.34229 408.553002 
L 522.009328 410.692754 
L 523.676366 412.406797 
L 525.343404 414.490534 
L 527.010442 415.218722 
L 528.67748 415.01707 
L 530.344518 414.949853 
L 532.011556 415.969316 
L 535.345631 413.907984 
L 537.012669 414.132042 
L 538.679707 412.832506 
L 540.346745 412.294768 
L 542.013783 411.308913 
L 543.680821 408.77706 
L 545.347859 408.564205 
L 547.014897 407.701582 
L 548.681935 406.032352 
L 550.348973 406.077163 
L 552.016011 405.461004 
L 553.683049 405.259352 
L 555.350087 404.609584 
L 557.017125 403.791773 
L 558.684163 402.649078 
L 560.351201 400.173239 
L 563.685277 393.809997 
L 565.352315 392.600085 
L 567.019353 397.19327 
L 568.686391 393.809997 
L 570.353429 383.94025 
L 572.020467 378.316399 
L 573.687505 357.960746 
L 575.354543 339.487179 
L 577.021581 324.284855 
L 578.688619 317.036585 
L 580.355657 304.041231 
L 582.022695 298.238134 
L 583.689733 291.953312 
L 585.356771 292.972775 
L 587.023808 297.610772 
L 588.690846 299.58248 
L 590.357884 292.054138 
L 592.024922 300.120219 
L 593.69196 309.004112 
L 595.358998 312.196936 
L 597.026036 324.228841 
L 598.693074 333.740095 
L 600.360112 340.226569 
L 602.02715 343.430596 
L 603.694188 347.037927 
L 605.361226 349.636998 
L 607.028264 353.71485 
L 608.695302 358.476079 
L 610.36234 359.865237 
L 612.029378 364.144742 
L 613.696416 367.617638 
L 615.363454 370.295129 
L 617.030492 374.0593 
L 618.69753 378.7085 
L 620.364568 383.01041 
L 622.031606 388.309378 
L 623.698644 389.676131 
L 625.365682 392.81294 
L 627.03272 394.515779 
L 628.699758 395.042315 
L 630.366796 397.529357 
L 632.033834 398.929719 
L 633.700872 401.002253 
L 635.36791 403.455687 
L 637.034948 403.735759 
L 638.701986 404.699207 
L 640.369024 406.469264 
L 642.036061 407.656771 
L 643.703099 410.939218 
L 645.370137 411.869058 
L 647.037175 412.49642 
L 648.704213 412.888521 
L 650.371251 414.647375 
L 652.038289 414.367302 
L 653.705327 414.692186 
L 655.372365 413.011753 
L 657.039403 413.202202 
L 658.706441 412.821304 
L 660.373479 412.955738 
L 662.040517 411.633797 
L 663.707555 412.429202 
L 665.374593 414.389708 
L 667.041631 416.753518 
L 668.708669 418.187488 
L 670.375707 420.988211 
L 672.042745 425.122078 
L 673.709783 427.889192 
L 675.376821 429.97293 
L 677.043859 432.706435 
L 678.710897 434.689347 
L 680.377935 436.98594 
L 682.044973 437.781345 
L 683.712011 438.431113 
L 685.379049 437.702925 
L 687.046087 437.602099 
L 688.713125 437.131577 
L 692.047201 434.174014 
L 693.714239 432.99771 
L 695.381277 431.642161 
L 697.048314 431.810204 
L 698.715352 431.686972 
L 700.38239 430.544277 
L 702.049428 431.462914 
L 703.716466 431.742987 
L 705.383504 432.986507 
L 707.050542 433.445826 
L 708.71758 433.524246 
L 710.384618 433.311391 
L 712.051656 433.401014 
L 713.718694 433.031319 
L 715.385732 433.69229 
L 717.05277 433.468232 
L 720.386846 434.991825 
L 722.053884 436.190534 
L 723.720922 438.050214 
L 725.38796 440.414024 
L 727.054998 442.083255 
L 727.054998 442.083255 
" style="fill:none;stroke:#003078;stroke-linecap:square;stroke-width:2;"/>
   </g>
   <g id="line2d_30">
    <path clip-path="url(#pe72dd50a1f)" d="M 63.573886 476.609114 
L 68.575 476.711028 
L 80.244266 476.667351 
L 81.911304 476.609114 
L 85.24538 476.104393 
L 91.913532 474.143747 
L 93.58057 473.483727 
L 96.914645 472.59076 
L 98.581683 471.911328 
L 100.248721 471.037772 
L 101.915759 469.950681 
L 103.582797 469.096539 
L 106.916873 465.214071 
L 108.583911 462.224571 
L 111.917987 457.623846 
L 113.585025 455.837911 
L 115.252063 454.226687 
L 116.919101 450.150096 
L 120.253177 444.850528 
L 121.920215 441.763966 
L 123.587253 439.104475 
L 125.254291 436.872056 
L 126.921329 435.629667 
L 128.588367 434.853173 
L 130.255405 432.737228 
L 133.589481 430.524222 
L 135.256519 430.951293 
L 136.923557 431.630725 
L 138.590595 431.164829 
L 140.257633 433.300186 
L 141.924671 434.639637 
L 145.258747 435.668491 
L 146.925785 435.357894 
L 148.592823 435.357894 
L 150.259861 436.639108 
L 151.926898 436.48381 
L 153.593936 437.609725 
L 155.260974 439.706258 
L 156.928012 442.851057 
L 160.262088 447.160596 
L 161.929126 448.325336 
L 165.263202 452.498989 
L 166.93024 453.993739 
L 168.597278 454.013151 
L 170.264316 454.731408 
L 171.931354 453.896677 
L 173.598392 454.207275 
L 175.26543 454.847882 
L 176.932468 454.420811 
L 178.599506 454.517872 
L 180.266544 454.983768 
L 181.933582 456.167921 
L 183.60062 457.002652 
L 185.267658 456.963827 
L 186.934696 456.206746 
L 188.601734 456.692054 
L 190.268772 457.041476 
L 191.93581 457.895619 
L 193.602848 456.65323 
L 195.269886 456.070859 
L 196.936924 455.857324 
L 198.603962 456.051447 
L 200.271 454.82847 
L 201.938038 454.576109 
L 203.605076 454.576109 
L 208.606189 456.944415 
L 210.273227 458.167392 
L 211.940265 460.322162 
L 213.607303 461.253954 
L 216.941379 462.438106 
L 218.608417 463.447548 
L 225.276569 466.339986 
L 226.943607 467.155305 
L 228.610645 468.145334 
L 231.944721 468.708292 
L 233.611759 468.514168 
L 236.945835 468.883003 
L 238.612873 468.766529 
L 243.613987 467.660026 
L 245.281025 467.815324 
L 246.948063 467.427077 
L 250.282139 467.562964 
L 251.949177 466.301162 
L 253.616215 466.747646 
L 255.283253 466.320574 
L 256.950291 466.320574 
L 258.617329 465.36937 
L 260.284366 465.893503 
L 261.951404 465.932327 
L 263.618442 468.28122 
L 265.28548 466.475873 
L 266.952518 467.407665 
L 268.619556 467.854149 
L 270.286594 469.717733 
L 271.953632 469.911857 
L 273.62067 470.533052 
L 275.287708 470.533052 
L 276.954746 473.076068 
L 278.621784 473.386665 
L 285.289936 474.027273 
L 286.956974 473.833149 
L 290.29105 473.813737 
L 293.625126 474.143747 
L 296.959202 474.00786 
L 298.62624 474.240808 
L 301.960316 474.260221 
L 303.627354 473.891386 
L 305.294392 473.153717 
L 310.295506 472.648997 
L 311.962544 472.396636 
L 313.629582 471.911328 
L 315.296619 472.299574 
L 316.963657 472.959594 
L 320.297733 472.940182 
L 321.964771 473.211954 
L 323.631809 473.367253 
L 325.298847 473.774912 
L 328.632923 473.852562 
L 335.301075 474.33787 
L 338.635151 474.512581 
L 341.969227 474.415519 
L 343.636265 474.512581 
L 346.970341 474.376695 
L 348.637379 474.182571 
L 350.304417 474.182571 
L 358.639607 473.211954 
L 360.306645 473.347841 
L 363.640721 472.784883 
L 365.307759 472.610172 
L 366.974797 472.241337 
L 371.97591 470.494227 
L 375.309986 470.203042 
L 376.977024 469.213013 
L 378.644062 467.757087 
L 380.3111 465.87409 
L 383.645176 462.593405 
L 385.312214 460.360986 
L 386.979252 458.691525 
L 390.313328 456.284395 
L 391.980366 456.362044 
L 393.647404 456.129096 
L 396.98148 454.867294 
L 398.648518 454.459635 
L 400.315556 453.508431 
L 401.982594 452.052505 
L 403.649632 450.091859 
L 405.31667 447.374132 
L 406.983708 445.665846 
L 408.650746 443.297541 
L 410.317784 439.123888 
L 411.984822 435.804378 
L 413.65186 434.736699 
L 415.318898 432.038384 
L 416.985936 429.650666 
L 418.652974 428.388864 
L 420.320012 426.19527 
L 421.98705 424.506397 
L 423.654087 420.177445 
L 425.321125 414.140208 
L 426.988163 409.947143 
L 428.655201 407.714724 
L 433.656315 390.651278 
L 435.323353 385.798193 
L 436.990391 381.915726 
L 438.657429 378.402092 
L 440.324467 376.441446 
L 441.991505 376.208498 
L 443.658543 374.674923 
L 445.325581 371.16129 
L 446.992619 370.132436 
L 448.659657 370.83128 
L 450.326695 367.531183 
L 453.660771 364.056374 
L 455.327809 357.669715 
L 456.994847 352.137198 
L 458.661885 345.109932 
L 460.328923 339.965662 
L 461.995961 335.209639 
L 463.662999 329.055928 
L 465.330037 324.707564 
L 466.997075 316.069073 
L 468.664113 311.3907 
L 470.331151 309.624177 
L 471.998189 299.393874 
L 473.665227 298.539731 
L 475.332265 301.373933 
L 476.999303 301.218634 
L 478.66634 304.052835 
L 480.333378 308.789446 
L 482.000416 313.894891 
L 483.667454 324.882275 
L 485.334492 331.948366 
L 487.00153 337.267347 
L 488.668568 342.159256 
L 490.335606 349.904779 
L 492.002644 355.165523 
L 495.33672 364.561095 
L 497.003758 364.910517 
L 498.670796 364.464033 
L 500.337834 365.784072 
L 502.004872 366.133494 
L 503.67191 364.638744 
L 505.338948 362.076316 
L 507.005986 359.20329 
L 508.673024 357.708539 
L 510.340062 356.699098 
L 512.0071 354.9714 
L 513.674138 354.233731 
L 515.341176 353.204877 
L 517.008214 346.410558 
L 518.675252 341.771009 
L 520.34229 339.849188 
L 522.009328 336.665564 
L 523.676366 331.831892 
L 525.343404 322.630444 
L 527.010442 312.574852 
L 528.67748 306.615264 
L 532.011556 281.165688 
L 535.345631 253.600167 
L 540.346745 194.489596 
L 542.013783 177.853222 
L 543.680821 156.227877 
L 545.347859 141.629798 
L 548.681935 101.543319 
L 550.348973 90.303575 
L 552.016011 81.587435 
L 553.683049 79.413253 
L 555.350087 84.751646 
L 557.017125 86.984065 
L 558.684163 97.194955 
L 560.351201 112.627764 
L 562.018239 121.868037 
L 563.685277 135.41785 
L 565.352315 160.712127 
L 567.019353 197.479096 
L 568.686391 202.856314 
L 570.353429 197.265561 
L 572.020467 204.797548 
L 573.687505 188.141762 
L 575.354543 183.172203 
L 578.688619 161.721569 
L 580.355657 157.955575 
L 582.022695 171.291852 
L 583.689733 165.429325 
L 585.356771 188.316473 
L 587.023808 202.079821 
L 588.690846 208.815902 
L 590.357884 201.342152 
L 592.024922 219.686812 
L 593.69196 231.916585 
L 595.358998 249.834174 
L 597.026036 265.034035 
L 598.693074 275.264337 
L 600.360112 282.097481 
L 602.02715 289.551819 
L 603.694188 292.211309 
L 607.028264 305.644647 
L 610.36234 325.289934 
L 612.029378 333.093694 
L 617.030492 358.970341 
L 618.69753 369.66654 
L 620.364568 376.480271 
L 623.698644 386.535862 
L 625.365682 389.913609 
L 627.03272 390.981288 
L 628.699758 389.738898 
L 630.366796 394.281385 
L 633.700872 399.173295 
L 635.36791 402.221032 
L 637.034948 404.104029 
L 638.701986 406.569396 
L 640.369024 409.985967 
L 642.036061 412.315448 
L 647.037175 419.828023 
L 648.704213 421.652783 
L 650.371251 423.147533 
L 652.038289 423.050471 
L 653.705327 423.807553 
L 655.372365 424.331686 
L 657.039403 425.826436 
L 658.706441 426.486455 
L 660.373479 428.369452 
L 663.707555 428.971235 
L 665.374593 431.242478 
L 667.041631 434.231978 
L 672.042745 440.735112 
L 673.709783 443.219891 
L 675.376821 444.501106 
L 677.043859 446.287041 
L 680.377935 448.344749 
L 682.044973 448.849469 
L 683.712011 450.227745 
L 685.379049 449.645375 
L 687.046087 450.829528 
L 688.713125 450.557755 
L 690.380163 451.955444 
L 692.047201 452.09133 
L 693.714239 451.528372 
L 695.381277 450.072447 
L 697.048314 449.664788 
L 698.715352 449.43184 
L 700.38239 450.635405 
L 702.049428 450.285982 
L 703.716466 450.654817 
L 705.383504 450.829528 
L 707.050542 451.392486 
L 708.71758 452.130155 
L 710.384618 452.498989 
L 712.051656 452.460164 
L 713.718694 452.848411 
L 715.385732 452.712525 
L 718.719808 453.58608 
L 720.386846 454.847882 
L 722.053884 455.546726 
L 723.720922 456.983239 
L 725.38796 457.48796 
L 725.38796 457.48796 
" style="fill:none;stroke:#d4351c;stroke-linecap:square;stroke-width:2;"/>
   </g>
   <g id="patch_3">
    <path d="M 68.575 476.745 
L 738.175 476.745 
" style="fill:none;stroke:#000000;stroke-linecap:square;stroke-linejoin:miter;stroke-width:0.8;"/>
   </g>
   <g id="text_22">
    <!-- Average COVID-19 cases in UK Nations, per capita -->
    <g transform="translate(255.384062 27.225)scale(0.12 -0.12)">
     <defs>
      <path d="M 1207 0 
L 152 0 
L 1759 4655 
L 3027 4655 
L 4632 0 
L 3577 0 
L 3232 1061 
L 1552 1061 
L 1207 0 
z
M 1802 1830 
L 2984 1830 
L 2411 3591 
L 2375 3591 
L 1802 1830 
z
" id="Inter-Bold-41" transform="scale(0.015625)"/>
      <path d="M 3641 3491 
L 2421 0 
L 1330 0 
L 109 3491 
L 1132 3491 
L 1857 993 
L 1893 993 
L 2616 3491 
L 3641 3491 
z
" id="Inter-Bold-76" transform="scale(0.015625)"/>
      <path d="M 1977 -68 
Q 1441 -68 1052 151 
Q 664 370 455 773 
Q 246 1177 246 1730 
Q 246 2268 455 2675 
Q 664 3082 1044 3309 
Q 1425 3536 1939 3536 
Q 2400 3536 2771 3340 
Q 3143 3145 3361 2751 
Q 3580 2357 3580 1764 
L 3580 1498 
L 1202 1498 
L 1202 1495 
Q 1202 1105 1416 880 
Q 1630 655 1993 655 
Q 2236 655 2413 757 
Q 2591 859 2664 1059 
L 3559 1000 
Q 3457 514 3041 223 
Q 2625 -68 1977 -68 
z
M 1202 2098 
L 2668 2098 
Q 2666 2409 2468 2611 
Q 2271 2814 1955 2814 
Q 1632 2814 1425 2604 
Q 1218 2395 1202 2098 
z
" id="Inter-Bold-65" transform="scale(0.015625)"/>
      <path d="M 386 0 
L 386 3491 
L 1325 3491 
L 1325 2882 
L 1361 2882 
Q 1457 3207 1681 3374 
Q 1905 3541 2200 3541 
Q 2341 3541 2461 3507 
Q 2582 3473 2677 3414 
L 2386 2614 
Q 2318 2648 2237 2671 
Q 2157 2695 2057 2695 
Q 1764 2695 1560 2495 
Q 1357 2295 1355 1975 
L 1355 0 
L 386 0 
z
" id="Inter-Bold-72" transform="scale(0.015625)"/>
      <path d="M 1382 -66 
Q 882 -66 552 195 
Q 223 457 223 975 
Q 223 1366 407 1588 
Q 591 1811 890 1914 
Q 1189 2018 1534 2050 
Q 1989 2095 2184 2145 
Q 2380 2195 2380 2364 
L 2380 2377 
Q 2380 2593 2244 2711 
Q 2109 2830 1861 2830 
Q 1600 2830 1445 2716 
Q 1291 2602 1241 2427 
L 346 2500 
Q 446 2977 842 3256 
Q 1239 3536 1866 3536 
Q 2255 3536 2593 3413 
Q 2932 3291 3140 3030 
Q 3348 2770 3348 2355 
L 3348 0 
L 2430 0 
L 2430 484 
L 2402 484 
Q 2275 241 2021 87 
Q 1768 -66 1382 -66 
z
M 1659 602 
Q 1977 602 2181 787 
Q 2386 973 2386 1248 
L 2386 1618 
Q 2330 1580 2210 1550 
Q 2091 1520 1956 1498 
Q 1821 1477 1714 1461 
Q 1459 1425 1303 1318 
Q 1148 1211 1148 1007 
Q 1148 807 1292 704 
Q 1436 602 1659 602 
z
" id="Inter-Bold-61" transform="scale(0.015625)"/>
      <path d="M 1959 -1359 
Q 1255 -1359 852 -1082 
Q 450 -805 364 -409 
L 1259 -289 
Q 1318 -430 1489 -547 
Q 1661 -664 1982 -664 
Q 2298 -664 2503 -514 
Q 2709 -364 2709 -20 
L 2709 618 
L 2668 618 
Q 2573 402 2332 226 
Q 2091 50 1673 50 
Q 1280 50 958 234 
Q 636 418 446 795 
Q 257 1173 257 1752 
Q 257 2348 451 2743 
Q 646 3139 967 3337 
Q 1289 3536 1671 3536 
Q 1964 3536 2161 3437 
Q 2359 3339 2482 3193 
Q 2605 3048 2668 2905 
L 2705 2905 
L 2705 3491 
L 3666 3491 
L 3666 -34 
Q 3666 -468 3446 -763 
Q 3227 -1059 2843 -1209 
Q 2459 -1359 1959 -1359 
z
M 1980 777 
Q 2330 777 2522 1036 
Q 2714 1295 2714 1757 
Q 2714 2216 2523 2491 
Q 2332 2766 1980 2766 
Q 1621 2766 1433 2484 
Q 1246 2202 1246 1757 
Q 1246 1305 1434 1041 
Q 1623 777 1980 777 
z
" id="Inter-Bold-67" transform="scale(0.015625)"/>
      <path id="Inter-Bold-20" transform="scale(0.015625)"/>
      <path d="M 4511 3025 
L 3516 3025 
Q 3459 3409 3188 3628 
Q 2918 3848 2514 3848 
Q 1973 3848 1647 3451 
Q 1321 3055 1321 2327 
Q 1321 1582 1649 1194 
Q 1977 807 2507 807 
Q 2900 807 3173 1012 
Q 3446 1218 3516 1591 
L 4511 1586 
Q 4459 1159 4207 782 
Q 3955 405 3522 170 
Q 3089 -64 2491 -64 
Q 1868 -64 1378 218 
Q 889 500 606 1034 
Q 323 1568 323 2327 
Q 323 3089 609 3623 
Q 896 4157 1386 4437 
Q 1877 4718 2491 4718 
Q 3030 4718 3463 4519 
Q 3896 4320 4172 3942 
Q 4448 3564 4511 3025 
z
" id="Inter-Bold-43" transform="scale(0.015625)"/>
      <path d="M 4682 2327 
Q 4682 1566 4394 1032 
Q 4107 498 3614 217 
Q 3121 -64 2502 -64 
Q 1882 -64 1389 218 
Q 896 500 609 1035 
Q 323 1570 323 2327 
Q 323 3089 609 3623 
Q 896 4157 1389 4437 
Q 1882 4718 2502 4718 
Q 3121 4718 3614 4437 
Q 4107 4157 4394 3623 
Q 4682 3089 4682 2327 
z
M 3684 2327 
Q 3684 3068 3361 3458 
Q 3039 3848 2502 3848 
Q 1966 3848 1643 3458 
Q 1321 3068 1321 2327 
Q 1321 1589 1643 1198 
Q 1966 807 2502 807 
Q 3039 807 3361 1198 
Q 3684 1589 3684 2327 
z
" id="Inter-Bold-4f" transform="scale(0.015625)"/>
      <path d="M 1246 4655 
L 2371 1118 
L 2414 1118 
L 3541 4655 
L 4632 4655 
L 3027 0 
L 1759 0 
L 152 4655 
L 1246 4655 
z
" id="Inter-Bold-56" transform="scale(0.015625)"/>
      <path d="M 1389 4655 
L 1389 0 
L 405 0 
L 405 4655 
L 1389 4655 
z
" id="Inter-Bold-49" transform="scale(0.015625)"/>
      <path d="M 2055 0 
L 405 0 
L 405 4655 
L 2068 4655 
Q 2771 4655 3278 4376 
Q 3786 4098 4059 3577 
Q 4332 3057 4332 2332 
Q 4332 1605 4058 1082 
Q 3784 559 3274 279 
Q 2764 0 2055 0 
z
M 1389 843 
L 2014 843 
Q 2671 843 3010 1197 
Q 3350 1552 3350 2332 
Q 3350 3107 3010 3459 
Q 2671 3811 2016 3811 
L 1389 3811 
L 1389 843 
z
" id="Inter-Bold-44" transform="scale(0.015625)"/>
      <path d="M 2561 2295 
L 2561 1527 
L 439 1527 
L 439 2295 
L 2561 2295 
z
" id="Inter-Bold-2d" transform="scale(0.015625)"/>
      <path d="M 2305 4655 
L 2305 0 
L 1323 0 
L 1323 3450 
L 1280 3450 
Q 1205 3334 961 3219 
Q 718 3105 332 3105 
L 332 3886 
Q 632 3886 857 4019 
Q 1082 4152 1209 4333 
Q 1336 4514 1341 4655 
L 2305 4655 
z
" id="Inter-Bold-31" transform="scale(0.015625)"/>
      <path d="M 2061 4732 
Q 2421 4732 2753 4612 
Q 3086 4493 3348 4227 
Q 3611 3961 3766 3523 
Q 3921 3086 3921 2448 
Q 3921 1659 3686 1096 
Q 3452 534 3028 235 
Q 2605 -64 2027 -64 
Q 1561 -64 1204 117 
Q 848 298 631 610 
Q 414 923 368 1314 
L 1339 1314 
Q 1396 1059 1577 919 
Q 1759 780 2027 780 
Q 2482 780 2718 1176 
Q 2955 1573 2957 2264 
L 2925 2264 
Q 2771 1957 2453 1782 
Q 2136 1607 1752 1607 
Q 1341 1607 1016 1801 
Q 691 1995 506 2334 
Q 321 2673 323 3109 
Q 321 3582 539 3949 
Q 757 4316 1149 4525 
Q 1541 4734 2061 4732 
z
M 2068 3959 
Q 1725 3959 1500 3722 
Q 1275 3486 1277 3136 
Q 1275 2791 1496 2555 
Q 1718 2320 2059 2320 
Q 2284 2320 2465 2431 
Q 2646 2543 2751 2729 
Q 2857 2916 2859 3141 
Q 2857 3366 2753 3551 
Q 2650 3736 2473 3847 
Q 2296 3959 2068 3959 
z
" id="Inter-Bold-39" transform="scale(0.015625)"/>
      <path d="M 1964 -68 
Q 1427 -68 1042 160 
Q 657 389 451 795 
Q 246 1202 246 1732 
Q 246 2268 453 2674 
Q 661 3080 1045 3308 
Q 1430 3536 1959 3536 
Q 2416 3536 2760 3370 
Q 3105 3205 3303 2905 
Q 3502 2605 3523 2200 
L 2609 2200 
Q 2571 2461 2406 2621 
Q 2241 2782 1975 2782 
Q 1639 2782 1434 2511 
Q 1230 2241 1230 1745 
Q 1230 1245 1433 971 
Q 1636 698 1975 698 
Q 2225 698 2395 849 
Q 2566 1000 2609 1280 
L 3523 1280 
Q 3500 880 3305 575 
Q 3111 270 2770 101 
Q 2430 -68 1964 -68 
z
" id="Inter-Bold-63" transform="scale(0.015625)"/>
      <path d="M 3291 2495 
L 2405 2441 
Q 2368 2609 2220 2729 
Q 2073 2850 1821 2850 
Q 1596 2850 1440 2755 
Q 1284 2661 1286 2505 
Q 1284 2380 1385 2293 
Q 1486 2207 1730 2155 
L 2361 2027 
Q 3368 1820 3371 1082 
Q 3371 739 3169 479 
Q 2968 220 2618 76 
Q 2268 -68 1816 -68 
Q 1123 -68 711 221 
Q 300 511 232 1011 
L 1184 1061 
Q 1230 848 1394 739 
Q 1559 630 1818 630 
Q 2073 630 2228 730 
Q 2384 830 2386 984 
Q 2380 1243 1939 1332 
L 1334 1452 
Q 321 1655 325 2450 
Q 323 2955 728 3245 
Q 1134 3536 1805 3536 
Q 2466 3536 2846 3256 
Q 3227 2977 3291 2495 
z
" id="Inter-Bold-73" transform="scale(0.015625)"/>
      <path d="M 386 0 
L 386 3491 
L 1355 3491 
L 1355 0 
L 386 0 
z
M 876 3941 
Q 662 3941 507 4085 
Q 353 4230 353 4432 
Q 353 4634 507 4777 
Q 662 4920 876 4920 
Q 1092 4920 1246 4777 
Q 1401 4634 1401 4432 
Q 1401 4230 1246 4085 
Q 1092 3941 876 3941 
z
" id="Inter-Bold-69" transform="scale(0.015625)"/>
      <path d="M 1355 2018 
L 1355 0 
L 386 0 
L 386 3491 
L 1309 3491 
L 1309 2875 
L 1350 2875 
Q 1468 3180 1739 3358 
Q 2011 3536 2400 3536 
Q 2946 3536 3275 3185 
Q 3605 2834 3605 2223 
L 3605 0 
L 2636 0 
L 2636 2050 
Q 2639 2370 2473 2551 
Q 2307 2732 2016 2732 
Q 1723 2732 1540 2544 
Q 1357 2357 1355 2018 
z
" id="Inter-Bold-6e" transform="scale(0.015625)"/>
      <path d="M 3286 4655 
L 4264 4655 
L 4264 1577 
Q 4264 1050 4016 683 
Q 3768 316 3333 125 
Q 2898 -66 2334 -66 
Q 1771 -66 1334 125 
Q 898 316 651 683 
Q 405 1050 405 1577 
L 405 4655 
L 1389 4655 
L 1389 1611 
Q 1389 1239 1658 1025 
Q 1927 811 2334 811 
Q 2748 811 3017 1025 
Q 3286 1239 3286 1611 
L 3286 4655 
z
" id="Inter-Bold-55" transform="scale(0.015625)"/>
      <path d="M 405 0 
L 405 4655 
L 1389 4655 
L 1389 2602 
L 1450 2602 
L 3125 4655 
L 4305 4655 
L 2577 2570 
L 4325 0 
L 3148 0 
L 1873 1914 
L 1389 1323 
L 1389 0 
L 405 0 
z
" id="Inter-Bold-4b" transform="scale(0.015625)"/>
      <path d="M 4298 4655 
L 4298 0 
L 3448 0 
L 1423 2930 
L 1389 2930 
L 1389 0 
L 405 0 
L 405 4655 
L 1268 4655 
L 3277 1727 
L 3318 1727 
L 3318 4655 
L 4298 4655 
z
" id="Inter-Bold-4e" transform="scale(0.015625)"/>
      <path d="M 2243 3491 
L 2243 2764 
L 1586 2764 
L 1586 1073 
Q 1586 873 1677 802 
Q 1768 732 1914 732 
Q 1982 732 2050 744 
Q 2118 757 2155 764 
L 2307 43 
Q 2234 20 2102 -10 
Q 1971 -41 1782 -48 
Q 1255 -70 935 181 
Q 616 432 618 945 
L 618 2764 
L 141 2764 
L 141 3491 
L 618 3491 
L 618 4327 
L 1586 4327 
L 1586 3491 
L 2243 3491 
z
" id="Inter-Bold-74" transform="scale(0.015625)"/>
      <path d="M 1964 -68 
Q 1434 -68 1049 158 
Q 664 384 455 789 
Q 246 1195 246 1732 
Q 246 2273 455 2678 
Q 664 3084 1049 3310 
Q 1434 3536 1964 3536 
Q 2493 3536 2878 3310 
Q 3264 3084 3473 2678 
Q 3682 2273 3682 1732 
Q 3682 1195 3473 789 
Q 3264 384 2878 158 
Q 2493 -68 1964 -68 
z
M 1968 682 
Q 2327 682 2512 982 
Q 2698 1282 2698 1739 
Q 2698 2195 2512 2496 
Q 2327 2798 1968 2798 
Q 1602 2798 1416 2496 
Q 1230 2195 1230 1739 
Q 1230 1282 1416 982 
Q 1602 682 1968 682 
z
" id="Inter-Bold-6f" transform="scale(0.015625)"/>
      <path d="M 1439 636 
L 1414 386 
Q 1384 86 1301 -212 
Q 1218 -511 1128 -754 
Q 1039 -998 984 -1136 
L 357 -1136 
Q 391 -1002 450 -763 
Q 509 -525 561 -226 
Q 614 73 627 382 
L 639 636 
L 1439 636 
z
" id="Inter-Bold-2c" transform="scale(0.015625)"/>
      <path d="M 386 -1309 
L 386 3491 
L 1341 3491 
L 1341 2905 
L 1384 2905 
Q 1450 3048 1570 3193 
Q 1691 3339 1888 3437 
Q 2086 3536 2377 3536 
Q 2761 3536 3081 3337 
Q 3402 3139 3596 2740 
Q 3791 2341 3791 1741 
Q 3791 1157 3602 756 
Q 3414 355 3093 149 
Q 2773 -57 2375 -57 
Q 2093 -57 1896 36 
Q 1700 130 1576 272 
Q 1452 414 1384 559 
L 1355 559 
L 1355 -1309 
L 386 -1309 
z
M 1334 1745 
Q 1334 1280 1526 997 
Q 1718 714 2068 714 
Q 2425 714 2613 1001 
Q 2802 1289 2802 1745 
Q 2802 2200 2614 2483 
Q 2427 2766 2068 2766 
Q 1716 2766 1525 2490 
Q 1334 2214 1334 1745 
z
" id="Inter-Bold-70" transform="scale(0.015625)"/>
     </defs>
     <use xlink:href="#Inter-Bold-41"/>
     <use x="74.786942" xlink:href="#Inter-Bold-76"/>
     <use x="133.380707" xlink:href="#Inter-Bold-65"/>
     <use x="193.146347" xlink:href="#Inter-Bold-72"/>
     <use x="236.008575" xlink:href="#Inter-Bold-61"/>
     <use x="294.034149" xlink:href="#Inter-Bold-67"/>
     <use x="357.350922" xlink:href="#Inter-Bold-65"/>
     <use x="417.116562" xlink:href="#Inter-Bold-20"/>
     <use x="440.305481" xlink:href="#Inter-Bold-43"/>
     <use x="515.51857" xlink:href="#Inter-Bold-4f"/>
     <use x="593.714615" xlink:href="#Inter-Bold-56"/>
     <use x="668.501556" xlink:href="#Inter-Bold-49"/>
     <use x="696.555542" xlink:href="#Inter-Bold-44"/>
     <use x="769.282837" xlink:href="#Inter-Bold-2d"/>
     <use x="816.157852" xlink:href="#Inter-Bold-31"/>
     <use x="863.565536" xlink:href="#Inter-Bold-39"/>
     <use x="929.581177" xlink:href="#Inter-Bold-20"/>
     <use x="952.770096" xlink:href="#Inter-Bold-63"/>
     <use x="1011.505905" xlink:href="#Inter-Bold-61"/>
     <use x="1069.531479" xlink:href="#Inter-Bold-73"/>
     <use x="1125.710464" xlink:href="#Inter-Bold-65"/>
     <use x="1185.476105" xlink:href="#Inter-Bold-73"/>
     <use x="1241.65509" xlink:href="#Inter-Bold-20"/>
     <use x="1264.844009" xlink:href="#Inter-Bold-69"/>
     <use x="1292.045715" xlink:href="#Inter-Bold-6e"/>
     <use x="1354.22612" xlink:href="#Inter-Bold-20"/>
     <use x="1377.415039" xlink:href="#Inter-Bold-55"/>
     <use x="1450.355392" xlink:href="#Inter-Bold-4b"/>
     <use x="1519.318481" xlink:href="#Inter-Bold-20"/>
     <use x="1542.507401" xlink:href="#Inter-Bold-4e"/>
     <use x="1616.015945" xlink:href="#Inter-Bold-61"/>
     <use x="1674.041519" xlink:href="#Inter-Bold-74"/>
     <use x="1712.890961" xlink:href="#Inter-Bold-69"/>
     <use x="1740.092667" xlink:href="#Inter-Bold-6f"/>
     <use x="1801.456314" xlink:href="#Inter-Bold-6e"/>
     <use x="1863.636719" xlink:href="#Inter-Bold-73"/>
     <use x="1919.815704" xlink:href="#Inter-Bold-2c"/>
     <use x="1950.106903" xlink:href="#Inter-Bold-20"/>
     <use x="1973.295822" xlink:href="#Inter-Bold-70"/>
     <use x="2036.54158" xlink:href="#Inter-Bold-65"/>
     <use x="2096.30722" xlink:href="#Inter-Bold-72"/>
     <use x="2139.169449" xlink:href="#Inter-Bold-20"/>
     <use x="2162.358368" xlink:href="#Inter-Bold-63"/>
     <use x="2221.094177" xlink:href="#Inter-Bold-61"/>
     <use x="2279.119751" xlink:href="#Inter-Bold-70"/>
     <use x="2342.365509" xlink:href="#Inter-Bold-69"/>
     <use x="2369.567215" xlink:href="#Inter-Bold-74"/>
     <use x="2408.416656" xlink:href="#Inter-Bold-61"/>
    </g>
   </g>
   <g id="legend_1">
    <g id="patch_4">
     <path d="M 621.601562 98.614063 
L 731.175 98.614063 
Q 733.175 98.614063 733.175 96.614063 
L 733.175 40.225 
Q 733.175 38.225 731.175 38.225 
L 621.601562 38.225 
Q 619.601562 38.225 619.601562 40.225 
L 619.601562 96.614063 
Q 619.601562 98.614063 621.601562 98.614063 
z
" style="fill:#ffffff;opacity:0.8;stroke:#cccccc;stroke-linejoin:miter;"/>
    </g>
    <g id="line2d_31">
     <path d="M 623.601562 45.998438 
L 643.601562 45.998438 
" style="fill:none;stroke:#d4351c;stroke-linecap:square;stroke-width:2;"/>
    </g>
    <g id="line2d_32"/>
    <g id="text_23">
     <!-- Wales -->
     <g transform="translate(651.601562 49.498438)scale(0.1 -0.1)">
      <defs>
       <path d="M 1409 0 
L 136 4655 
L 709 4655 
L 1682 864 
L 1727 864 
L 2718 4655 
L 3355 4655 
L 4346 864 
L 4391 864 
L 5364 4655 
L 5936 4655 
L 4664 0 
L 4082 0 
L 3055 3709 
L 3018 3709 
L 1991 0 
L 1409 0 
z
" id="Inter-Regular-57" transform="scale(0.015625)"/>
      </defs>
      <use xlink:href="#Inter-Regular-57"/>
      <use x="94.886383" xlink:href="#Inter-Regular-61"/>
      <use x="151.278442" xlink:href="#Inter-Regular-6c"/>
      <use x="175.000031" xlink:href="#Inter-Regular-65"/>
      <use x="233.238678" xlink:href="#Inter-Regular-73"/>
     </g>
    </g>
    <g id="line2d_33">
     <path d="M 623.601562 60.317188 
L 643.601562 60.317188 
" style="fill:none;stroke:#003078;stroke-linecap:square;stroke-width:2;"/>
    </g>
    <g id="line2d_34"/>
    <g id="text_24">
     <!-- Scotland -->
     <g transform="translate(651.601562 63.817188)scale(0.1 -0.1)">
      <use xlink:href="#Inter-Regular-53"/>
      <use x="63.778427" xlink:href="#Inter-Regular-63"/>
      <use x="119.602295" xlink:href="#Inter-Regular-6f"/>
      <use x="179.261398" xlink:href="#Inter-Regular-74"/>
      <use x="215.625046" xlink:href="#Inter-Regular-6c"/>
      <use x="239.346634" xlink:href="#Inter-Regular-61"/>
      <use x="295.738693" xlink:href="#Inter-Regular-6e"/>
      <use x="354.261429" xlink:href="#Inter-Regular-64"/>
     </g>
    </g>
    <g id="line2d_35">
     <path d="M 623.601562 74.635938 
L 643.601562 74.635938 
" style="fill:none;stroke:#ffdd00;stroke-linecap:square;stroke-width:2;"/>
    </g>
    <g id="line2d_36"/>
    <g id="text_25">
     <!-- Northern Ireland -->
     <g transform="translate(651.601562 78.135938)scale(0.1 -0.1)">
      <defs>
       <path d="M 1027 2100 
L 1027 0 
L 491 0 
L 491 4655 
L 1027 4655 
L 1027 2945 
L 1073 2945 
Q 1196 3216 1442 3376 
Q 1689 3536 2100 3536 
Q 2636 3536 2963 3213 
Q 3291 2891 3291 2218 
L 3291 0 
L 2755 0 
L 2755 2182 
Q 2755 2598 2540 2826 
Q 2325 3055 1946 3055 
Q 1548 3055 1287 2806 
Q 1027 2557 1027 2100 
z
" id="Inter-Regular-68" transform="scale(0.015625)"/>
       <path d="M 1127 4655 
L 1127 0 
L 564 0 
L 564 4655 
L 1127 4655 
z
" id="Inter-Regular-49" transform="scale(0.015625)"/>
      </defs>
      <use xlink:href="#Inter-Regular-4e"/>
      <use x="75.284103" xlink:href="#Inter-Regular-6f"/>
      <use x="134.943207" xlink:href="#Inter-Regular-72"/>
      <use x="173.295486" xlink:href="#Inter-Regular-74"/>
      <use x="209.659134" xlink:href="#Inter-Regular-68"/>
      <use x="268.750061" xlink:href="#Inter-Regular-65"/>
      <use x="326.988708" xlink:href="#Inter-Regular-72"/>
      <use x="365.340988" xlink:href="#Inter-Regular-6e"/>
      <use x="423.863724" xlink:href="#Inter-Regular-20"/>
      <use x="451.988724" xlink:href="#Inter-Regular-49"/>
      <use x="478.40918" xlink:href="#Inter-Regular-72"/>
      <use x="516.761459" xlink:href="#Inter-Regular-65"/>
      <use x="575.000107" xlink:href="#Inter-Regular-6c"/>
      <use x="598.721695" xlink:href="#Inter-Regular-61"/>
      <use x="655.113754" xlink:href="#Inter-Regular-6e"/>
      <use x="713.63649" xlink:href="#Inter-Regular-64"/>
     </g>
    </g>
    <g id="line2d_37">
     <path d="M 623.601562 88.954688 
L 643.601562 88.954688 
" style="fill:none;stroke:#5694ca;stroke-linecap:square;stroke-width:2;"/>
    </g>
    <g id="line2d_38"/>
    <g id="text_26">
     <!-- England -->
     <g transform="translate(651.601562 92.454688)scale(0.1 -0.1)">
      <defs>
       <path d="M 564 0 
L 564 4655 
L 3373 4655 
L 3373 4155 
L 1127 4155 
L 1127 2582 
L 3227 2582 
L 3227 2082 
L 1127 2082 
L 1127 500 
L 3409 500 
L 3409 0 
L 564 0 
z
" id="Inter-Regular-45" transform="scale(0.015625)"/>
      </defs>
      <use xlink:href="#Inter-Regular-45"/>
      <use x="59.801147" xlink:href="#Inter-Regular-6e"/>
      <use x="118.323883" xlink:href="#Inter-Regular-67"/>
      <use x="179.261398" xlink:href="#Inter-Regular-6c"/>
      <use x="202.982986" xlink:href="#Inter-Regular-61"/>
      <use x="259.375046" xlink:href="#Inter-Regular-6e"/>
      <use x="317.897781" xlink:href="#Inter-Regular-64"/>
     </g>
    </g>
   </g>
  </g>
 </g>
 <defs>
  <clipPath id="pe72dd50a1f">
   <rect height="443.52" width="669.6" x="68.575" y="33.225"/>
  </clipPath>
 </defs>
</svg>
