<?xml version="1.0" encoding="utf-8" standalone="no"?>
<!DOCTYPE svg PUBLIC "-//W3C//DTD SVG 1.1//EN"
  "http://www.w3.org/Graphics/SVG/1.1/DTD/svg11.dtd">
<svg xmlns:xlink="http://www.w3.org/1999/xlink" viewBox="0 0 745.221875 511.234062" xmlns="http://www.w3.org/2000/svg" version="1.1">
 <metadata>
  <rdf:RDF xmlns:dc="http://purl.org/dc/elements/1.1/" xmlns:cc="http://creativecommons.org/ns#" xmlns:rdf="http://www.w3.org/1999/02/22-rdf-syntax-ns#">
   <cc:Work>
    <dc:type rdf:resource="http://purl.org/dc/dcmitype/StillImage"/>
    <dc:date>2021-11-25T17:16:52.591647</dc:date>
    <dc:format>image/svg+xml</dc:format>
    <dc:creator>
     <cc:Agent>
      <dc:title>Matplotlib v3.5.0, https://matplotlib.org/</dc:title>
     </cc:Agent>
    </dc:creator>
   </cc:Work>
  </rdf:RDF>
 </metadata>
 <defs>
  <style type="text/css">*{stroke-linejoin: round; stroke-linecap: butt}</style>
 </defs>
 <g id="figure_1">
  <g id="patch_1">
   <path d="M 0 511.234062 
L 745.221875 511.234062 
L 745.221875 0 
L 0 0 
z
" style="fill: #ffffff"/>
  </g>
  <g id="axes_1">
   <g id="patch_2">
    <path d="M 57.621875 476.745 
L 727.221875 476.745 
L 727.221875 33.225 
L 57.621875 33.225 
z
" style="fill: #ffffff"/>
   </g>
   <g id="matplotlib.axis_1">
    <g id="xtick_1">
     <g id="line2d_1">
      <defs>
       <path id="me2920f34f4" d="M 0 0 
L 0 3.5 
" style="stroke: #000000; stroke-width: 0.8"/>
      </defs>
      <g>
       <use xlink:href="#me2920f34f4" x="57.621875" y="476.745" style="stroke: #000000; stroke-width: 0.8"/>
      </g>
     </g>
     <g id="text_1">
      <!-- 01 Mar -->
      <g transform="translate(41.585156 491.018437)scale(0.1 -0.1)">
       <defs>
        <path id="Inter-Regular-30" d="M 2000 -64 
Q 1230 -64 806 561 
Q 382 1186 382 2327 
Q 382 3459 809 4088 
Q 1236 4718 2000 4718 
Q 2764 4718 3191 4088 
Q 3618 3459 3618 2327 
Q 3618 1186 3194 561 
Q 2771 -64 2000 -64 
z
M 2000 436 
Q 2509 436 2791 927 
Q 3073 1418 3073 2327 
Q 3073 3234 2789 3730 
Q 2505 4227 2000 4227 
Q 1496 4227 1211 3730 
Q 927 3234 927 2327 
Q 927 1418 1210 927 
Q 1493 436 2000 436 
z
" transform="scale(0.015625)"/>
        <path id="Inter-Regular-31" d="M 1973 4655 
L 1973 0 
L 1409 0 
L 1409 3836 
L 1373 3836 
Q 1341 3773 1209 3692 
Q 1077 3611 868 3551 
Q 659 3491 391 3491 
L 391 3964 
Q 661 3964 859 4061 
Q 1057 4159 1190 4291 
Q 1323 4423 1392 4529 
Q 1461 4636 1473 4655 
L 1973 4655 
z
" transform="scale(0.015625)"/>
        <path id="Inter-Regular-20" transform="scale(0.015625)"/>
        <path id="Inter-Regular-4d" d="M 564 4655 
L 1236 4655 
L 2818 791 
L 2873 791 
L 4455 4655 
L 5127 4655 
L 5127 0 
L 4600 0 
L 4600 3536 
L 4555 3536 
L 3100 0 
L 2591 0 
L 1136 3536 
L 1091 3536 
L 1091 0 
L 564 0 
L 564 4655 
z
" transform="scale(0.015625)"/>
        <path id="Inter-Regular-61" d="M 1518 -82 
Q 1186 -82 916 44 
Q 646 170 486 410 
Q 327 650 327 991 
Q 327 1291 445 1478 
Q 564 1666 761 1773 
Q 959 1880 1199 1933 
Q 1439 1986 1682 2018 
Q 2000 2059 2199 2080 
Q 2398 2102 2490 2154 
Q 2582 2207 2582 2336 
L 2582 2355 
Q 2582 2691 2399 2877 
Q 2216 3064 1846 3064 
Q 1461 3064 1243 2895 
Q 1025 2727 936 2536 
L 427 2718 
Q 564 3036 792 3214 
Q 1021 3393 1292 3464 
Q 1564 3536 1827 3536 
Q 1996 3536 2215 3496 
Q 2434 3457 2640 3334 
Q 2846 3211 2982 2963 
Q 3118 2716 3118 2300 
L 3118 0 
L 2582 0 
L 2582 473 
L 2555 473 
Q 2500 359 2373 229 
Q 2246 100 2034 9 
Q 1823 -82 1518 -82 
z
M 1600 400 
Q 1918 400 2137 525 
Q 2357 650 2469 847 
Q 2582 1045 2582 1264 
L 2582 1755 
Q 2548 1714 2433 1681 
Q 2318 1648 2169 1624 
Q 2021 1600 1881 1583 
Q 1741 1566 1655 1555 
Q 1446 1527 1265 1467 
Q 1084 1407 974 1287 
Q 864 1168 864 964 
Q 864 684 1072 542 
Q 1280 400 1600 400 
z
" transform="scale(0.015625)"/>
        <path id="Inter-Regular-72" d="M 491 0 
L 491 3491 
L 1009 3491 
L 1009 2964 
L 1046 2964 
Q 1139 3223 1389 3384 
Q 1639 3545 1955 3545 
Q 2100 3545 2209 3511 
Q 2318 3477 2400 3418 
L 2218 2964 
Q 2161 2993 2085 3010 
Q 2009 3027 1909 3027 
Q 1527 3027 1277 2794 
Q 1027 2561 1027 2209 
L 1027 0 
L 491 0 
z
" transform="scale(0.015625)"/>
       </defs>
       <use xlink:href="#Inter-Regular-30"/>
       <use xlink:href="#Inter-Regular-31" x="62.500015"/>
       <use xlink:href="#Inter-Regular-20" x="106.676163"/>
       <use xlink:href="#Inter-Regular-4d" x="134.801163"/>
       <use xlink:href="#Inter-Regular-61" x="225.99437"/>
       <use xlink:href="#Inter-Regular-72" x="282.386429"/>
      </g>
     </g>
    </g>
    <g id="xtick_2">
     <g id="line2d_2">
      <g>
       <use xlink:href="#me2920f34f4" x="90.325475" y="476.745" style="stroke: #000000; stroke-width: 0.8"/>
      </g>
     </g>
    </g>
    <g id="xtick_3">
     <g id="line2d_3">
      <g>
       <use xlink:href="#me2920f34f4" x="121.97412" y="476.745" style="stroke: #000000; stroke-width: 0.8"/>
      </g>
     </g>
     <g id="text_2">
      <!-- 01 May -->
      <g transform="translate(105.070995 491.116875)scale(0.1 -0.1)">
       <defs>
        <path id="Inter-Regular-79" d="M 818 -1355 
Q 682 -1355 575 -1333 
Q 468 -1311 427 -1291 
L 564 -818 
Q 857 -893 1053 -814 
Q 1250 -736 1391 -345 
L 1509 -18 
L 218 3491 
L 800 3491 
L 1764 709 
L 1800 709 
L 2764 3491 
L 3346 3491 
L 1846 -564 
Q 1550 -1355 818 -1355 
z
" transform="scale(0.015625)"/>
       </defs>
       <use xlink:href="#Inter-Regular-30"/>
       <use xlink:href="#Inter-Regular-31" x="62.500015"/>
       <use xlink:href="#Inter-Regular-20" x="106.676163"/>
       <use xlink:href="#Inter-Regular-4d" x="134.801163"/>
       <use xlink:href="#Inter-Regular-61" x="225.99437"/>
       <use xlink:href="#Inter-Regular-79" x="282.386429"/>
      </g>
     </g>
    </g>
    <g id="xtick_4">
     <g id="line2d_4">
      <g>
       <use xlink:href="#me2920f34f4" x="154.67772" y="476.745" style="stroke: #000000; stroke-width: 0.8"/>
      </g>
     </g>
    </g>
    <g id="xtick_5">
     <g id="line2d_5">
      <g>
       <use xlink:href="#me2920f34f4" x="186.326366" y="476.745" style="stroke: #000000; stroke-width: 0.8"/>
      </g>
     </g>
     <g id="text_3">
      <!-- 01 Jul -->
      <g transform="translate(172.782616 491.018437)scale(0.1 -0.1)">
       <defs>
        <path id="Inter-Regular-4a" d="M 2346 4655 
L 2909 4655 
L 2909 1327 
Q 2909 657 2549 296 
Q 2189 -64 1582 -64 
Q 1200 -64 902 76 
Q 605 216 434 475 
Q 264 734 264 1091 
L 818 1091 
Q 818 795 1034 615 
Q 1250 436 1582 436 
Q 1948 436 2147 664 
Q 2346 893 2346 1327 
L 2346 4655 
z
" transform="scale(0.015625)"/>
        <path id="Inter-Regular-75" d="M 2691 1427 
L 2691 3491 
L 3227 3491 
L 3227 0 
L 2691 0 
L 2691 591 
L 2655 591 
Q 2532 325 2273 140 
Q 2014 -45 1618 -45 
Q 1127 -45 809 280 
Q 491 605 491 1273 
L 491 3491 
L 1027 3491 
L 1027 1309 
Q 1027 927 1242 700 
Q 1457 473 1791 473 
Q 1991 473 2199 575 
Q 2407 677 2549 888 
Q 2691 1100 2691 1427 
z
" transform="scale(0.015625)"/>
        <path id="Inter-Regular-6c" d="M 1027 4655 
L 1027 0 
L 491 0 
L 491 4655 
L 1027 4655 
z
" transform="scale(0.015625)"/>
       </defs>
       <use xlink:href="#Inter-Regular-30"/>
       <use xlink:href="#Inter-Regular-31" x="62.500015"/>
       <use xlink:href="#Inter-Regular-20" x="106.676163"/>
       <use xlink:href="#Inter-Regular-4a" x="134.801163"/>
       <use xlink:href="#Inter-Regular-75" x="189.062531"/>
       <use xlink:href="#Inter-Regular-6c" x="247.159134"/>
      </g>
     </g>
    </g>
    <g id="xtick_6">
     <g id="line2d_6">
      <g>
       <use xlink:href="#me2920f34f4" x="219.029966" y="476.745" style="stroke: #000000; stroke-width: 0.8"/>
      </g>
     </g>
    </g>
    <g id="xtick_7">
     <g id="line2d_7">
      <g>
       <use xlink:href="#me2920f34f4" x="251.733566" y="476.745" style="stroke: #000000; stroke-width: 0.8"/>
      </g>
     </g>
     <g id="text_4">
      <!-- 01 Sep -->
      <g transform="translate(235.846066 491.116875)scale(0.1 -0.1)">
       <defs>
        <path id="Inter-Regular-53" d="M 3109 3491 
Q 3068 3836 2777 4027 
Q 2486 4218 2064 4218 
Q 1600 4218 1318 3999 
Q 1036 3780 1036 3445 
Q 1036 3195 1189 3042 
Q 1343 2889 1553 2803 
Q 1764 2718 1936 2673 
L 2409 2545 
Q 2591 2498 2815 2414 
Q 3039 2330 3244 2185 
Q 3450 2041 3584 1816 
Q 3718 1591 3718 1264 
Q 3718 886 3521 581 
Q 3325 277 2949 97 
Q 2573 -82 2036 -82 
Q 1286 -82 845 272 
Q 405 627 364 1200 
L 946 1200 
Q 968 936 1124 764 
Q 1280 593 1519 510 
Q 1759 427 2036 427 
Q 2359 427 2616 533 
Q 2873 639 3023 828 
Q 3173 1018 3173 1273 
Q 3173 1505 3043 1650 
Q 2914 1795 2702 1886 
Q 2491 1977 2246 2045 
L 1673 2209 
Q 1127 2366 809 2657 
Q 491 2948 491 3418 
Q 491 3809 703 4101 
Q 916 4393 1276 4555 
Q 1636 4718 2082 4718 
Q 2532 4718 2882 4558 
Q 3232 4398 3437 4120 
Q 3643 3843 3655 3491 
L 3109 3491 
z
" transform="scale(0.015625)"/>
        <path id="Inter-Regular-65" d="M 1955 -73 
Q 1450 -73 1085 151 
Q 721 375 524 778 
Q 327 1182 327 1718 
Q 327 2255 524 2665 
Q 721 3075 1074 3305 
Q 1427 3536 1900 3536 
Q 2173 3536 2439 3445 
Q 2705 3355 2923 3151 
Q 3141 2948 3270 2614 
Q 3400 2280 3400 1791 
L 3400 1564 
L 866 1564 
Q 884 1005 1183 707 
Q 1482 409 1955 409 
Q 2271 409 2498 545 
Q 2725 682 2827 955 
L 3346 809 
Q 3223 414 2854 170 
Q 2486 -73 1955 -73 
z
M 866 2027 
L 2855 2027 
Q 2855 2470 2595 2762 
Q 2336 3055 1900 3055 
Q 1593 3055 1368 2911 
Q 1143 2768 1013 2533 
Q 884 2298 866 2027 
z
" transform="scale(0.015625)"/>
        <path id="Inter-Regular-70" d="M 491 -1309 
L 491 3491 
L 1009 3491 
L 1009 2936 
L 1073 2936 
Q 1132 3027 1237 3169 
Q 1343 3311 1542 3423 
Q 1741 3536 2082 3536 
Q 2523 3536 2859 3315 
Q 3196 3095 3384 2690 
Q 3573 2286 3573 1736 
Q 3573 1182 3384 776 
Q 3196 370 2861 148 
Q 2527 -73 2091 -73 
Q 1755 -73 1552 39 
Q 1350 152 1241 296 
Q 1132 441 1073 536 
L 1027 536 
L 1027 -1309 
L 491 -1309 
z
M 1018 1745 
Q 1018 1152 1276 780 
Q 1534 409 2018 409 
Q 2355 409 2581 587 
Q 2807 766 2921 1069 
Q 3036 1373 3036 1745 
Q 3036 2114 2923 2410 
Q 2811 2707 2585 2881 
Q 2359 3055 2018 3055 
Q 1527 3055 1272 2693 
Q 1018 2332 1018 1745 
z
" transform="scale(0.015625)"/>
       </defs>
       <use xlink:href="#Inter-Regular-30"/>
       <use xlink:href="#Inter-Regular-31" x="62.500015"/>
       <use xlink:href="#Inter-Regular-20" x="106.676163"/>
       <use xlink:href="#Inter-Regular-53" x="134.801163"/>
       <use xlink:href="#Inter-Regular-65" x="198.57959"/>
       <use xlink:href="#Inter-Regular-70" x="256.818237"/>
      </g>
     </g>
    </g>
    <g id="xtick_8">
     <g id="line2d_8">
      <g>
       <use xlink:href="#me2920f34f4" x="283.382211" y="476.745" style="stroke: #000000; stroke-width: 0.8"/>
      </g>
     </g>
    </g>
    <g id="xtick_9">
     <g id="line2d_9">
      <g>
       <use xlink:href="#me2920f34f4" x="316.085811" y="476.745" style="stroke: #000000; stroke-width: 0.8"/>
      </g>
     </g>
     <g id="text_5">
      <!-- 01 Nov -->
      <g transform="translate(299.814717 491.018437)scale(0.1 -0.1)">
       <defs>
        <path id="Inter-Regular-4e" d="M 4255 4655 
L 4255 0 
L 3709 0 
L 1173 3655 
L 1127 3655 
L 1127 0 
L 564 0 
L 564 4655 
L 1109 4655 
L 3655 991 
L 3700 991 
L 3700 4655 
L 4255 4655 
z
" transform="scale(0.015625)"/>
        <path id="Inter-Regular-6f" d="M 1909 -73 
Q 1436 -73 1080 152 
Q 725 377 526 781 
Q 327 1186 327 1727 
Q 327 2273 526 2679 
Q 725 3086 1080 3311 
Q 1436 3536 1909 3536 
Q 2382 3536 2737 3311 
Q 3093 3086 3292 2679 
Q 3491 2273 3491 1727 
Q 3491 1186 3292 781 
Q 3093 377 2737 152 
Q 2382 -73 1909 -73 
z
M 1909 409 
Q 2268 409 2500 593 
Q 2732 777 2843 1077 
Q 2955 1377 2955 1727 
Q 2955 2077 2843 2379 
Q 2732 2682 2500 2868 
Q 2268 3055 1909 3055 
Q 1550 3055 1318 2868 
Q 1086 2682 975 2379 
Q 864 2077 864 1727 
Q 864 1377 975 1077 
Q 1086 777 1318 593 
Q 1550 409 1909 409 
z
" transform="scale(0.015625)"/>
        <path id="Inter-Regular-76" d="M 3346 3491 
L 2055 0 
L 1509 0 
L 218 3491 
L 800 3491 
L 1764 709 
L 1800 709 
L 2764 3491 
L 3346 3491 
z
" transform="scale(0.015625)"/>
       </defs>
       <use xlink:href="#Inter-Regular-30"/>
       <use xlink:href="#Inter-Regular-31" x="62.500015"/>
       <use xlink:href="#Inter-Regular-20" x="106.676163"/>
       <use xlink:href="#Inter-Regular-4e" x="134.801163"/>
       <use xlink:href="#Inter-Regular-6f" x="210.085266"/>
       <use xlink:href="#Inter-Regular-76" x="269.74437"/>
      </g>
     </g>
    </g>
    <g id="xtick_10">
     <g id="line2d_10">
      <g>
       <use xlink:href="#me2920f34f4" x="347.734456" y="476.745" style="stroke: #000000; stroke-width: 0.8"/>
      </g>
     </g>
    </g>
    <g id="xtick_11">
     <g id="line2d_11">
      <g>
       <use xlink:href="#me2920f34f4" x="380.438056" y="476.745" style="stroke: #000000; stroke-width: 0.8"/>
      </g>
     </g>
     <g id="text_6">
      <!-- 01 Jan -->
      <g transform="translate(365.238838 491.018437)scale(0.1 -0.1)">
       <defs>
        <path id="Inter-Regular-6e" d="M 1027 2100 
L 1027 0 
L 491 0 
L 491 3491 
L 1009 3491 
L 1009 2945 
L 1055 2945 
Q 1177 3211 1427 3373 
Q 1677 3536 2073 3536 
Q 2602 3536 2928 3211 
Q 3255 2886 3255 2218 
L 3255 0 
L 2718 0 
L 2718 2182 
Q 2718 2593 2504 2824 
Q 2291 3055 1918 3055 
Q 1534 3055 1280 2806 
Q 1027 2557 1027 2100 
z
" transform="scale(0.015625)"/>
       </defs>
       <use xlink:href="#Inter-Regular-30"/>
       <use xlink:href="#Inter-Regular-31" x="62.500015"/>
       <use xlink:href="#Inter-Regular-20" x="106.676163"/>
       <use xlink:href="#Inter-Regular-4a" x="134.801163"/>
       <use xlink:href="#Inter-Regular-61" x="189.062531"/>
       <use xlink:href="#Inter-Regular-6e" x="245.45459"/>
      </g>
     </g>
    </g>
    <g id="xtick_12">
     <g id="line2d_12">
      <g>
       <use xlink:href="#me2920f34f4" x="413.141657" y="476.745" style="stroke: #000000; stroke-width: 0.8"/>
      </g>
     </g>
    </g>
    <g id="xtick_13">
     <g id="line2d_13">
      <g>
       <use xlink:href="#me2920f34f4" x="442.680392" y="476.745" style="stroke: #000000; stroke-width: 0.8"/>
      </g>
     </g>
     <g id="text_7">
      <!-- 01 Mar -->
      <g transform="translate(426.643673 491.018437)scale(0.1 -0.1)">
       <use xlink:href="#Inter-Regular-30"/>
       <use xlink:href="#Inter-Regular-31" x="62.500015"/>
       <use xlink:href="#Inter-Regular-20" x="106.676163"/>
       <use xlink:href="#Inter-Regular-4d" x="134.801163"/>
       <use xlink:href="#Inter-Regular-61" x="225.99437"/>
       <use xlink:href="#Inter-Regular-72" x="282.386429"/>
      </g>
     </g>
    </g>
    <g id="xtick_14">
     <g id="line2d_14">
      <g>
       <use xlink:href="#me2920f34f4" x="475.383992" y="476.745" style="stroke: #000000; stroke-width: 0.8"/>
      </g>
     </g>
    </g>
    <g id="xtick_15">
     <g id="line2d_15">
      <g>
       <use xlink:href="#me2920f34f4" x="507.032637" y="476.745" style="stroke: #000000; stroke-width: 0.8"/>
      </g>
     </g>
     <g id="text_8">
      <!-- 01 May -->
      <g transform="translate(490.129512 491.116875)scale(0.1 -0.1)">
       <use xlink:href="#Inter-Regular-30"/>
       <use xlink:href="#Inter-Regular-31" x="62.500015"/>
       <use xlink:href="#Inter-Regular-20" x="106.676163"/>
       <use xlink:href="#Inter-Regular-4d" x="134.801163"/>
       <use xlink:href="#Inter-Regular-61" x="225.99437"/>
       <use xlink:href="#Inter-Regular-79" x="282.386429"/>
      </g>
     </g>
    </g>
    <g id="xtick_16">
     <g id="line2d_16">
      <g>
       <use xlink:href="#me2920f34f4" x="539.736237" y="476.745" style="stroke: #000000; stroke-width: 0.8"/>
      </g>
     </g>
    </g>
    <g id="xtick_17">
     <g id="line2d_17">
      <g>
       <use xlink:href="#me2920f34f4" x="571.384883" y="476.745" style="stroke: #000000; stroke-width: 0.8"/>
      </g>
     </g>
     <g id="text_9">
      <!-- 01 Jul -->
      <g transform="translate(557.841133 491.018437)scale(0.1 -0.1)">
       <use xlink:href="#Inter-Regular-30"/>
       <use xlink:href="#Inter-Regular-31" x="62.500015"/>
       <use xlink:href="#Inter-Regular-20" x="106.676163"/>
       <use xlink:href="#Inter-Regular-4a" x="134.801163"/>
       <use xlink:href="#Inter-Regular-75" x="189.062531"/>
       <use xlink:href="#Inter-Regular-6c" x="247.159134"/>
      </g>
     </g>
    </g>
    <g id="xtick_18">
     <g id="line2d_18">
      <g>
       <use xlink:href="#me2920f34f4" x="604.088483" y="476.745" style="stroke: #000000; stroke-width: 0.8"/>
      </g>
     </g>
    </g>
    <g id="xtick_19">
     <g id="line2d_19">
      <g>
       <use xlink:href="#me2920f34f4" x="636.792083" y="476.745" style="stroke: #000000; stroke-width: 0.8"/>
      </g>
     </g>
     <g id="text_10">
      <!-- 01 Sep -->
      <g transform="translate(620.904583 491.116875)scale(0.1 -0.1)">
       <use xlink:href="#Inter-Regular-30"/>
       <use xlink:href="#Inter-Regular-31" x="62.500015"/>
       <use xlink:href="#Inter-Regular-20" x="106.676163"/>
       <use xlink:href="#Inter-Regular-53" x="134.801163"/>
       <use xlink:href="#Inter-Regular-65" x="198.57959"/>
       <use xlink:href="#Inter-Regular-70" x="256.818237"/>
      </g>
     </g>
    </g>
    <g id="xtick_20">
     <g id="line2d_20">
      <g>
       <use xlink:href="#me2920f34f4" x="668.440728" y="476.745" style="stroke: #000000; stroke-width: 0.8"/>
      </g>
     </g>
    </g>
    <g id="xtick_21">
     <g id="line2d_21">
      <g>
       <use xlink:href="#me2920f34f4" x="701.144328" y="476.745" style="stroke: #000000; stroke-width: 0.8"/>
      </g>
     </g>
     <g id="text_11">
      <!-- 01 Nov -->
      <g transform="translate(684.873234 491.018437)scale(0.1 -0.1)">
       <use xlink:href="#Inter-Regular-30"/>
       <use xlink:href="#Inter-Regular-31" x="62.500015"/>
       <use xlink:href="#Inter-Regular-20" x="106.676163"/>
       <use xlink:href="#Inter-Regular-4e" x="134.801163"/>
       <use xlink:href="#Inter-Regular-6f" x="210.085266"/>
       <use xlink:href="#Inter-Regular-76" x="269.74437"/>
      </g>
     </g>
    </g>
   </g>
   <g id="matplotlib.axis_2">
    <g id="ytick_1">
     <g id="line2d_22">
      <path d="M 57.621875 476.745 
L 727.221875 476.745 
" clip-path="url(#pb9f7a95ff7)" style="fill: none; stroke: #e5e5e5; stroke-width: 0.8; stroke-linecap: square"/>
     </g>
     <g id="line2d_23">
      <defs>
       <path id="m62f41fbb67" d="M 0 0 
L -3.5 0 
" style="stroke: #000000; stroke-width: 0.8"/>
      </defs>
      <g>
       <use xlink:href="#m62f41fbb67" x="57.621875" y="476.745" style="stroke: #000000; stroke-width: 0.8"/>
      </g>
     </g>
     <g id="text_12">
      <!-- 0% -->
      <g transform="translate(36.246875 480.381719)scale(0.1 -0.1)">
       <defs>
        <path id="Inter-Regular-25" d="M 2855 873 
L 2855 1118 
Q 2855 1373 2960 1585 
Q 3066 1798 3269 1926 
Q 3473 2055 3764 2055 
Q 4059 2055 4259 1926 
Q 4459 1798 4561 1585 
Q 4664 1373 4664 1118 
L 4664 873 
Q 4664 618 4560 405 
Q 4457 193 4256 64 
Q 4055 -64 3764 -64 
Q 3468 -64 3266 64 
Q 3064 193 2959 405 
Q 2855 618 2855 873 
z
M 536 3536 
L 536 3782 
Q 536 4036 642 4248 
Q 748 4461 951 4589 
Q 1155 4718 1446 4718 
Q 1741 4718 1941 4589 
Q 2141 4461 2243 4248 
Q 2346 4036 2346 3782 
L 2346 3536 
Q 2346 3282 2242 3069 
Q 2139 2857 1937 2728 
Q 1736 2600 1446 2600 
Q 1150 2600 948 2728 
Q 746 2857 641 3069 
Q 536 3282 536 3536 
z
M 709 0 
L 3909 4655 
L 4427 4655 
L 1227 0 
L 709 0 
z
M 3318 1118 
L 3318 873 
Q 3318 661 3418 494 
Q 3518 327 3764 327 
Q 4002 327 4101 494 
Q 4200 661 4200 873 
L 4200 1118 
Q 4200 1330 4104 1497 
Q 4009 1664 3764 1664 
Q 3525 1664 3421 1497 
Q 3318 1330 3318 1118 
z
M 1000 3782 
L 1000 3536 
Q 1000 3325 1100 3158 
Q 1200 2991 1446 2991 
Q 1684 2991 1783 3158 
Q 1882 3325 1882 3536 
L 1882 3782 
Q 1882 3993 1786 4160 
Q 1691 4327 1446 4327 
Q 1207 4327 1103 4160 
Q 1000 3993 1000 3782 
z
" transform="scale(0.015625)"/>
       </defs>
       <use xlink:href="#Inter-Regular-30"/>
       <use xlink:href="#Inter-Regular-25" x="62.500015"/>
      </g>
     </g>
    </g>
    <g id="ytick_2">
     <g id="line2d_24">
      <path d="M 57.621875 425.135025 
L 727.221875 425.135025 
" clip-path="url(#pb9f7a95ff7)" style="fill: none; stroke: #e5e5e5; stroke-width: 0.8; stroke-linecap: square"/>
     </g>
     <g id="line2d_25">
      <g>
       <use xlink:href="#m62f41fbb67" x="57.621875" y="425.135025" style="stroke: #000000; stroke-width: 0.8"/>
      </g>
     </g>
     <g id="text_13">
      <!-- 2% -->
      <g transform="translate(36.445313 428.771744)scale(0.1 -0.1)">
       <defs>
        <path id="Inter-Regular-32" d="M 482 0 
L 482 409 
L 2018 2091 
Q 2289 2386 2464 2605 
Q 2639 2825 2724 3019 
Q 2809 3214 2809 3427 
Q 2809 3795 2553 4011 
Q 2298 4227 1918 4227 
Q 1514 4227 1275 3985 
Q 1036 3743 1036 3345 
L 500 3345 
Q 500 3755 688 4064 
Q 877 4373 1203 4545 
Q 1530 4718 1936 4718 
Q 2346 4718 2661 4545 
Q 2977 4373 3156 4079 
Q 3336 3786 3336 3427 
Q 3336 3170 3244 2926 
Q 3152 2682 2926 2383 
Q 2700 2084 2300 1655 
L 1255 536 
L 1255 500 
L 3418 500 
L 3418 0 
L 482 0 
z
" transform="scale(0.015625)"/>
       </defs>
       <use xlink:href="#Inter-Regular-32"/>
       <use xlink:href="#Inter-Regular-25" x="60.511383"/>
      </g>
     </g>
    </g>
    <g id="ytick_3">
     <g id="line2d_26">
      <path d="M 57.621875 373.52505 
L 727.221875 373.52505 
" clip-path="url(#pb9f7a95ff7)" style="fill: none; stroke: #e5e5e5; stroke-width: 0.8; stroke-linecap: square"/>
     </g>
     <g id="line2d_27">
      <g>
       <use xlink:href="#m62f41fbb67" x="57.621875" y="373.52505" style="stroke: #000000; stroke-width: 0.8"/>
      </g>
     </g>
     <g id="text_14">
      <!-- 4% -->
      <g transform="translate(36.076563 377.161769)scale(0.1 -0.1)">
       <defs>
        <path id="Inter-Regular-34" d="M 373 955 
L 373 1418 
L 2418 4655 
L 3100 4655 
L 3100 1455 
L 3736 1455 
L 3736 955 
L 3100 955 
L 3100 0 
L 2564 0 
L 2564 955 
L 373 955 
z
M 2564 1455 
L 2564 3936 
L 2527 3936 
L 982 1491 
L 982 1455 
L 2564 1455 
z
" transform="scale(0.015625)"/>
       </defs>
       <use xlink:href="#Inter-Regular-34"/>
       <use xlink:href="#Inter-Regular-25" x="64.204559"/>
      </g>
     </g>
    </g>
    <g id="ytick_4">
     <g id="line2d_28">
      <path d="M 57.621875 321.915075 
L 727.221875 321.915075 
" clip-path="url(#pb9f7a95ff7)" style="fill: none; stroke: #e5e5e5; stroke-width: 0.8; stroke-linecap: square"/>
     </g>
     <g id="line2d_29">
      <g>
       <use xlink:href="#m62f41fbb67" x="57.621875" y="321.915075" style="stroke: #000000; stroke-width: 0.8"/>
      </g>
     </g>
     <g id="text_15">
      <!-- 6% -->
      <g transform="translate(36.260938 325.551793)scale(0.1 -0.1)">
       <defs>
        <path id="Inter-Regular-36" d="M 2027 -64 
Q 1741 -59 1454 45 
Q 1168 150 932 399 
Q 696 648 552 1074 
Q 409 1500 409 2145 
Q 409 3386 861 4056 
Q 1314 4727 2100 4727 
Q 2686 4727 3073 4384 
Q 3461 4041 3546 3491 
L 2991 3491 
Q 2914 3811 2691 4019 
Q 2468 4227 2100 4227 
Q 1559 4227 1249 3755 
Q 939 3284 936 2427 
L 973 2427 
Q 1164 2716 1461 2880 
Q 1759 3045 2118 3045 
Q 2518 3045 2850 2846 
Q 3182 2648 3382 2299 
Q 3582 1950 3582 1500 
Q 3582 1068 3389 710 
Q 3196 352 2847 142 
Q 2498 -68 2027 -64 
z
M 2027 436 
Q 2314 436 2542 579 
Q 2771 723 2903 964 
Q 3036 1205 3036 1500 
Q 3036 1789 2908 2026 
Q 2780 2264 2556 2404 
Q 2332 2545 2046 2545 
Q 1757 2545 1525 2397 
Q 1293 2250 1157 2010 
Q 1021 1770 1018 1491 
Q 1018 1214 1149 973 
Q 1280 732 1508 584 
Q 1736 436 2027 436 
z
" transform="scale(0.015625)"/>
       </defs>
       <use xlink:href="#Inter-Regular-36"/>
       <use xlink:href="#Inter-Regular-25" x="62.357971"/>
      </g>
     </g>
    </g>
    <g id="ytick_5">
     <g id="line2d_30">
      <path d="M 57.621875 270.3051 
L 727.221875 270.3051 
" clip-path="url(#pb9f7a95ff7)" style="fill: none; stroke: #e5e5e5; stroke-width: 0.8; stroke-linecap: square"/>
     </g>
     <g id="line2d_31">
      <g>
       <use xlink:href="#m62f41fbb67" x="57.621875" y="270.3051" style="stroke: #000000; stroke-width: 0.8"/>
      </g>
     </g>
     <g id="text_16">
      <!-- 8% -->
      <g transform="translate(36.33125 273.941818)scale(0.1 -0.1)">
       <defs>
        <path id="Inter-Regular-38" d="M 1973 -64 
Q 1505 -64 1147 103 
Q 789 270 589 564 
Q 389 859 391 1236 
Q 389 1532 507 1783 
Q 625 2034 830 2203 
Q 1036 2373 1291 2418 
L 1291 2445 
Q 957 2532 759 2821 
Q 561 3111 564 3482 
Q 561 3836 743 4115 
Q 925 4395 1244 4556 
Q 1564 4718 1973 4718 
Q 2377 4718 2695 4556 
Q 3014 4395 3197 4115 
Q 3380 3836 3382 3482 
Q 3380 3111 3181 2821 
Q 2982 2532 2655 2445 
L 2655 2418 
Q 2907 2373 3109 2203 
Q 3311 2034 3431 1783 
Q 3552 1532 3555 1236 
Q 3552 859 3351 564 
Q 3150 270 2794 103 
Q 2439 -64 1973 -64 
z
M 1973 436 
Q 2446 436 2722 662 
Q 2998 889 3000 1264 
Q 2998 1527 2864 1729 
Q 2730 1932 2499 2048 
Q 2268 2164 1973 2164 
Q 1675 2164 1442 2048 
Q 1209 1932 1076 1729 
Q 943 1527 946 1264 
Q 943 889 1218 662 
Q 1493 436 1973 436 
z
M 1973 2645 
Q 2348 2645 2591 2864 
Q 2834 3084 2836 3445 
Q 2834 3800 2596 4013 
Q 2359 4227 1973 4227 
Q 1582 4227 1344 4013 
Q 1107 3800 1109 3445 
Q 1107 3084 1349 2864 
Q 1591 2645 1973 2645 
z
" transform="scale(0.015625)"/>
       </defs>
       <use xlink:href="#Inter-Regular-38"/>
       <use xlink:href="#Inter-Regular-25" x="61.647736"/>
      </g>
     </g>
    </g>
    <g id="ytick_6">
     <g id="line2d_32">
      <path d="M 57.621875 218.695124 
L 727.221875 218.695124 
" clip-path="url(#pb9f7a95ff7)" style="fill: none; stroke: #e5e5e5; stroke-width: 0.8; stroke-linecap: square"/>
     </g>
     <g id="line2d_33">
      <g>
       <use xlink:href="#m62f41fbb67" x="57.621875" y="218.695124" style="stroke: #000000; stroke-width: 0.8"/>
      </g>
     </g>
     <g id="text_17">
      <!-- 10% -->
      <g transform="translate(31.829688 222.331843)scale(0.1 -0.1)">
       <use xlink:href="#Inter-Regular-31"/>
       <use xlink:href="#Inter-Regular-30" x="44.176147"/>
       <use xlink:href="#Inter-Regular-25" x="106.676163"/>
      </g>
     </g>
    </g>
    <g id="ytick_7">
     <g id="line2d_34">
      <path d="M 57.621875 167.085149 
L 727.221875 167.085149 
" clip-path="url(#pb9f7a95ff7)" style="fill: none; stroke: #e5e5e5; stroke-width: 0.8; stroke-linecap: square"/>
     </g>
     <g id="line2d_35">
      <g>
       <use xlink:href="#m62f41fbb67" x="57.621875" y="167.085149" style="stroke: #000000; stroke-width: 0.8"/>
      </g>
     </g>
     <g id="text_18">
      <!-- 12% -->
      <g transform="translate(32.028125 170.721868)scale(0.1 -0.1)">
       <use xlink:href="#Inter-Regular-31"/>
       <use xlink:href="#Inter-Regular-32" x="44.176147"/>
       <use xlink:href="#Inter-Regular-25" x="104.687531"/>
      </g>
     </g>
    </g>
    <g id="ytick_8">
     <g id="line2d_36">
      <path d="M 57.621875 115.475174 
L 727.221875 115.475174 
" clip-path="url(#pb9f7a95ff7)" style="fill: none; stroke: #e5e5e5; stroke-width: 0.8; stroke-linecap: square"/>
     </g>
     <g id="line2d_37">
      <g>
       <use xlink:href="#m62f41fbb67" x="57.621875" y="115.475174" style="stroke: #000000; stroke-width: 0.8"/>
      </g>
     </g>
     <g id="text_19">
      <!-- 14% -->
      <g transform="translate(31.659375 119.111893)scale(0.1 -0.1)">
       <use xlink:href="#Inter-Regular-31"/>
       <use xlink:href="#Inter-Regular-34" x="44.176147"/>
       <use xlink:href="#Inter-Regular-25" x="108.380707"/>
      </g>
     </g>
    </g>
    <g id="ytick_9">
     <g id="line2d_38">
      <path d="M 57.621875 63.865199 
L 727.221875 63.865199 
" clip-path="url(#pb9f7a95ff7)" style="fill: none; stroke: #e5e5e5; stroke-width: 0.8; stroke-linecap: square"/>
     </g>
     <g id="line2d_39">
      <g>
       <use xlink:href="#m62f41fbb67" x="57.621875" y="63.865199" style="stroke: #000000; stroke-width: 0.8"/>
      </g>
     </g>
     <g id="text_20">
      <!-- 16% -->
      <g transform="translate(31.84375 67.501918)scale(0.1 -0.1)">
       <use xlink:href="#Inter-Regular-31"/>
       <use xlink:href="#Inter-Regular-36" x="44.176147"/>
       <use xlink:href="#Inter-Regular-25" x="106.534119"/>
      </g>
     </g>
    </g>
    <g id="text_21">
     <!-- Percent of nation tested positive -->
     <g transform="translate(25.614063 332.215469)rotate(-90)scale(0.1 -0.1)">
      <defs>
       <path id="Inter-Regular-50" d="M 564 0 
L 564 4655 
L 2136 4655 
Q 2684 4655 3033 4458 
Q 3382 4261 3550 3927 
Q 3718 3593 3718 3182 
Q 3718 2770 3551 2434 
Q 3384 2098 3036 1899 
Q 2689 1700 2146 1700 
L 1127 1700 
L 1127 0 
L 564 0 
z
M 1127 2200 
L 2127 2200 
Q 2689 2200 2926 2482 
Q 3164 2764 3164 3182 
Q 3164 3602 2925 3878 
Q 2686 4155 2118 4155 
L 1127 4155 
L 1127 2200 
z
" transform="scale(0.015625)"/>
       <path id="Inter-Regular-63" d="M 1909 -73 
Q 1418 -73 1063 159 
Q 709 391 518 798 
Q 327 1205 327 1727 
Q 327 2259 524 2667 
Q 721 3075 1074 3305 
Q 1427 3536 1900 3536 
Q 2268 3536 2563 3400 
Q 2859 3264 3047 3018 
Q 3236 2773 3282 2445 
L 2746 2445 
Q 2684 2684 2474 2869 
Q 2264 3055 1909 3055 
Q 1439 3055 1151 2697 
Q 864 2339 864 1745 
Q 864 1139 1148 774 
Q 1432 409 1909 409 
Q 2223 409 2447 570 
Q 2671 732 2746 1018 
L 3282 1018 
Q 3236 709 3058 462 
Q 2880 216 2588 71 
Q 2296 -73 1909 -73 
z
" transform="scale(0.015625)"/>
       <path id="Inter-Regular-74" d="M 2009 3491 
L 2009 3036 
L 1264 3036 
L 1264 1000 
Q 1264 773 1331 660 
Q 1398 548 1503 510 
Q 1609 473 1727 473 
Q 1816 473 1873 483 
Q 1930 493 1964 500 
L 2073 18 
Q 2018 -2 1920 -23 
Q 1823 -45 1673 -45 
Q 1446 -45 1228 52 
Q 1011 150 869 350 
Q 727 550 727 855 
L 727 3036 
L 200 3036 
L 200 3491 
L 727 3491 
L 727 4327 
L 1264 4327 
L 1264 3491 
L 2009 3491 
z
" transform="scale(0.015625)"/>
       <path id="Inter-Regular-66" d="M 2046 3491 
L 2046 3036 
L 1264 3036 
L 1264 0 
L 727 0 
L 727 3036 
L 164 3036 
L 164 3491 
L 727 3491 
L 727 3973 
Q 727 4273 868 4473 
Q 1009 4673 1234 4773 
Q 1459 4873 1709 4873 
Q 1907 4873 2032 4841 
Q 2157 4809 2218 4782 
L 2064 4318 
Q 2023 4332 1951 4352 
Q 1880 4373 1764 4373 
Q 1498 4373 1381 4239 
Q 1264 4105 1264 3845 
L 1264 3491 
L 2046 3491 
z
" transform="scale(0.015625)"/>
       <path id="Inter-Regular-69" d="M 491 0 
L 491 3491 
L 1027 3491 
L 1027 0 
L 491 0 
z
M 764 4073 
Q 607 4073 494 4179 
Q 382 4286 382 4436 
Q 382 4586 494 4693 
Q 607 4800 764 4800 
Q 921 4800 1033 4693 
Q 1146 4586 1146 4436 
Q 1146 4286 1033 4179 
Q 921 4073 764 4073 
z
" transform="scale(0.015625)"/>
       <path id="Inter-Regular-73" d="M 2964 2709 
L 2482 2573 
Q 2411 2755 2245 2914 
Q 2080 3073 1727 3073 
Q 1407 3073 1194 2926 
Q 982 2780 982 2555 
Q 982 2355 1127 2239 
Q 1273 2123 1582 2045 
L 2100 1918 
Q 3027 1691 3027 973 
Q 3027 673 2855 436 
Q 2684 200 2377 63 
Q 2071 -73 1664 -73 
Q 1130 -73 780 159 
Q 430 391 336 836 
L 846 964 
Q 989 400 1655 400 
Q 2030 400 2251 560 
Q 2473 720 2473 945 
Q 2473 1316 1955 1436 
L 1373 1573 
Q 893 1686 669 1926 
Q 446 2166 446 2527 
Q 446 2823 613 3050 
Q 780 3277 1069 3406 
Q 1359 3536 1727 3536 
Q 2246 3536 2542 3309 
Q 2839 3082 2964 2709 
z
" transform="scale(0.015625)"/>
       <path id="Inter-Regular-64" d="M 1809 -73 
Q 1373 -73 1039 148 
Q 705 370 516 776 
Q 327 1182 327 1736 
Q 327 2286 516 2690 
Q 705 3095 1041 3315 
Q 1377 3536 1818 3536 
Q 2159 3536 2358 3423 
Q 2557 3311 2662 3169 
Q 2768 3027 2827 2936 
L 2873 2936 
L 2873 4655 
L 3409 4655 
L 3409 0 
L 2891 0 
L 2891 536 
L 2827 536 
Q 2768 441 2659 296 
Q 2550 152 2348 39 
Q 2146 -73 1809 -73 
z
M 1882 409 
Q 2366 409 2624 780 
Q 2882 1152 2882 1745 
Q 2882 2332 2627 2693 
Q 2373 3055 1882 3055 
Q 1541 3055 1315 2881 
Q 1089 2707 976 2410 
Q 864 2114 864 1745 
Q 864 1373 978 1069 
Q 1093 766 1319 587 
Q 1546 409 1882 409 
z
" transform="scale(0.015625)"/>
      </defs>
      <use xlink:href="#Inter-Regular-50"/>
      <use xlink:href="#Inter-Regular-65" x="63.494324"/>
      <use xlink:href="#Inter-Regular-72" x="121.732971"/>
      <use xlink:href="#Inter-Regular-63" x="160.085251"/>
      <use xlink:href="#Inter-Regular-65" x="215.909119"/>
      <use xlink:href="#Inter-Regular-6e" x="274.147766"/>
      <use xlink:href="#Inter-Regular-74" x="332.670502"/>
      <use xlink:href="#Inter-Regular-20" x="369.034149"/>
      <use xlink:href="#Inter-Regular-6f" x="397.159149"/>
      <use xlink:href="#Inter-Regular-66" x="456.818253"/>
      <use xlink:href="#Inter-Regular-20" x="492.897797"/>
      <use xlink:href="#Inter-Regular-6e" x="521.022797"/>
      <use xlink:href="#Inter-Regular-61" x="579.545532"/>
      <use xlink:href="#Inter-Regular-74" x="635.937592"/>
      <use xlink:href="#Inter-Regular-69" x="672.301239"/>
      <use xlink:href="#Inter-Regular-6f" x="696.022827"/>
      <use xlink:href="#Inter-Regular-6e" x="755.681931"/>
      <use xlink:href="#Inter-Regular-20" x="814.204666"/>
      <use xlink:href="#Inter-Regular-74" x="842.329666"/>
      <use xlink:href="#Inter-Regular-65" x="878.693314"/>
      <use xlink:href="#Inter-Regular-73" x="936.931961"/>
      <use xlink:href="#Inter-Regular-74" x="989.204697"/>
      <use xlink:href="#Inter-Regular-65" x="1025.568344"/>
      <use xlink:href="#Inter-Regular-64" x="1083.806992"/>
      <use xlink:href="#Inter-Regular-20" x="1145.880875"/>
      <use xlink:href="#Inter-Regular-70" x="1174.005875"/>
      <use xlink:href="#Inter-Regular-6f" x="1234.94339"/>
      <use xlink:href="#Inter-Regular-73" x="1294.602493"/>
      <use xlink:href="#Inter-Regular-69" x="1346.875229"/>
      <use xlink:href="#Inter-Regular-74" x="1370.596817"/>
      <use xlink:href="#Inter-Regular-69" x="1406.960464"/>
      <use xlink:href="#Inter-Regular-76" x="1430.682053"/>
      <use xlink:href="#Inter-Regular-65" x="1486.363876"/>
     </g>
    </g>
   </g>
   <g id="line2d_40">
    <path d="M 25.97323 476.744908 
L 75.556107 476.644828 
L 82.940791 476.379337 
L 89.27052 475.781742 
L 113.534482 472.058499 
L 117.754301 471.588767 
L 131.468714 470.500168 
L 154.67772 469.705713 
L 175.776817 469.409093 
L 193.71105 469.164187 
L 230.634469 468.064859 
L 257.00834 466.750197 
L 268.612843 465.394731 
L 274.942572 464.307645 
L 279.162392 463.354335 
L 281.272301 462.94324 
L 284.437166 462.207788 
L 285.492121 461.712382 
L 286.547076 460.735462 
L 288.656985 459.665751 
L 289.71194 459.137245 
L 290.766895 458.451765 
L 294.986714 456.369008 
L 297.096624 454.973382 
L 298.151579 454.233483 
L 300.261488 453.065571 
L 302.371398 451.6412 
L 303.426353 450.82451 
L 304.481308 449.77245 
L 309.756082 445.730168 
L 321.360585 435.765256 
L 322.41554 434.762388 
L 326.63536 431.281758 
L 327.690314 429.867748 
L 330.855179 426.620243 
L 332.965089 424.925246 
L 334.020043 424.13721 
L 336.129953 422.388849 
L 338.239863 420.817131 
L 339.294818 420.206058 
L 340.349772 419.754297 
L 342.459682 418.354636 
L 344.569592 417.122312 
L 347.734456 415.630456 
L 354.064185 412.086148 
L 356.174095 411.012494 
L 362.503824 406.219861 
L 366.723643 401.953487 
L 374.108327 391.598843 
L 375.163282 390.42433 
L 376.218237 388.750468 
L 382.547966 375.589397 
L 386.767785 365.915053 
L 387.82274 363.083778 
L 389.93265 358.290732 
L 394.152469 350.487293 
L 395.207424 348.161051 
L 397.317334 344.813328 
L 403.647063 335.573278 
L 404.702018 334.308861 
L 407.866882 331.513071 
L 409.976792 329.088261 
L 412.086702 327.247889 
L 419.471386 321.943025 
L 425.801115 318.65435 
L 437.405618 313.97656 
L 439.515528 313.2423 
L 441.625437 312.710172 
L 445.845257 311.732794 
L 455.33985 309.709177 
L 459.55967 308.918069 
L 462.724534 308.287511 
L 474.329037 306.144192 
L 477.493902 305.708111 
L 485.933541 304.932177 
L 489.098405 304.595397 
L 505.977683 303.110602 
L 519.692095 302.024432 
L 533.406508 300.83722 
L 541.846147 299.694431 
L 549.230831 297.992787 
L 556.615515 295.709777 
L 562.945244 293.117495 
L 567.165063 290.675676 
L 570.329928 288.071795 
L 573.494792 285.015831 
L 575.604702 283.010553 
L 577.714612 280.589411 
L 579.824521 277.854641 
L 584.044341 272.277318 
L 585.099296 270.540006 
L 587.209205 266.327592 
L 588.26416 263.991539 
L 589.319115 261.938719 
L 590.37407 260.349855 
L 592.48398 256.55546 
L 594.593889 253.404459 
L 596.703799 250.910377 
L 599.868663 247.846162 
L 601.978573 245.381283 
L 604.088483 243.291008 
L 606.198392 241.540309 
L 611.473167 235.520853 
L 613.583076 233.57036 
L 618.857851 227.473929 
L 620.96776 225.370404 
L 626.242534 218.909869 
L 629.407399 215.472288 
L 631.517309 212.860842 
L 633.627218 210.67773 
L 636.792083 207.605445 
L 638.901993 204.835833 
L 641.011902 202.239332 
L 647.341631 194.832548 
L 651.561451 191.036227 
L 655.78127 186.84857 
L 663.165954 178.135008 
L 669.495683 170.220761 
L 671.605593 167.771378 
L 672.660547 166.448921 
L 676.880367 160.481179 
L 680.045231 156.046461 
L 683.210096 150.882571 
L 690.59478 137.956091 
L 691.649735 136.064556 
L 696.924509 128.260979 
L 699.034418 124.911651 
L 705.364148 116.427316 
L 707.474057 114.133716 
L 709.583967 111.710741 
L 711.693877 108.638502 
L 714.858741 104.234959 
L 718.023606 99.974499 
L 720.133515 96.475532 
L 726.463244 86.399949 
L 726.463244 86.399949 
" clip-path="url(#pb9f7a95ff7)" style="fill: none; stroke: #5694ca; stroke-width: 2; stroke-linecap: square"/>
   </g>
   <g id="line2d_41">
    <path d="M 25.97323 476.745 
L 76.611062 476.645523 
L 82.940791 476.465647 
L 87.160611 476.191744 
L 89.27052 475.951909 
L 108.259707 473.36278 
L 110.369617 473.033007 
L 111.424572 472.992126 
L 117.754301 472.152703 
L 120.919165 471.931946 
L 125.138985 471.523136 
L 139.908353 470.753211 
L 148.347991 470.431614 
L 154.67772 470.307608 
L 223.249785 469.866094 
L 226.41465 469.787057 
L 230.634469 469.682129 
L 232.744379 469.570388 
L 235.909243 469.391874 
L 241.184017 469.096169 
L 242.238972 468.934007 
L 244.348882 468.856334 
L 257.00834 467.624453 
L 258.063295 467.432313 
L 261.228159 467.204742 
L 267.557888 466.392573 
L 269.667798 465.967411 
L 271.777708 465.425057 
L 274.942572 464.852723 
L 275.997527 464.595173 
L 279.162392 463.53363 
L 280.217347 463.233836 
L 281.272301 462.797772 
L 282.327256 462.219988 
L 283.382211 461.867049 
L 284.437166 460.594288 
L 285.492121 459.604968 
L 286.547076 458.975401 
L 288.656985 457.224332 
L 290.766895 454.838246 
L 291.82185 453.36653 
L 292.876805 452.137375 
L 293.931759 450.684738 
L 296.041669 448.313641 
L 297.096624 446.655236 
L 298.151579 445.615496 
L 299.206534 443.84535 
L 301.316443 441.061355 
L 303.426353 438.699797 
L 305.536263 435.86402 
L 306.591218 434.15792 
L 308.701127 431.67917 
L 311.865992 428.559952 
L 312.920947 427.439813 
L 315.030856 425.784133 
L 316.085811 424.850684 
L 318.195721 423.402135 
L 319.250676 422.476862 
L 325.580405 418.328805 
L 326.63536 417.25091 
L 330.855179 414.337459 
L 331.910134 413.886405 
L 335.074998 411.76877 
L 338.239863 410.313408 
L 339.294818 409.931852 
L 340.349772 409.824199 
L 342.459682 408.495567 
L 344.569592 407.533501 
L 348.789411 405.560312 
L 353.009231 403.141521 
L 357.22905 400.863088 
L 359.33896 399.481311 
L 363.558779 396.894907 
L 364.613734 396.000976 
L 365.668689 395.306 
L 366.723643 394.433872 
L 369.888508 392.391186 
L 371.998418 390.172711 
L 373.053373 390.172711 
L 374.108327 388.812738 
L 375.163282 388.812738 
L 377.273192 384.4521 
L 379.383102 378.903188 
L 380.438056 378.903188 
L 381.493011 374.030175 
L 386.767785 362.806983 
L 388.877695 358.797922 
L 389.93265 357.2826 
L 390.987605 356.248312 
L 393.097515 353.045968 
L 395.207424 350.286502 
L 396.262379 349.325799 
L 397.317334 348.20566 
L 399.427244 346.361928 
L 400.482198 345.128685 
L 401.537153 344.131189 
L 402.592108 342.952454 
L 403.647063 342.039446 
L 405.756973 340.874338 
L 408.921837 338.599993 
L 409.976792 337.688347 
L 412.086702 336.487809 
L 413.141657 336.059921 
L 419.471386 332.526442 
L 424.74616 330.391092 
L 425.801115 329.978194 
L 427.911024 329.419487 
L 432.130844 327.657517 
L 434.240753 326.923022 
L 436.350663 326.36159 
L 440.570482 325.045222 
L 443.735347 324.4688 
L 445.845257 323.93871 
L 453.22994 322.26259 
L 455.33985 321.780195 
L 467.999308 319.379118 
L 470.109218 318.944417 
L 477.493902 317.918305 
L 478.548857 317.918305 
L 486.988495 316.859487 
L 499.647953 315.122046 
L 503.867773 314.641013 
L 513.362366 313.584921 
L 519.692095 312.82726 
L 520.74705 312.696441 
L 521.802005 312.696441 
L 528.131734 311.911526 
L 536.571373 311.121161 
L 547.120921 310.178173 
L 555.56056 309.010339 
L 559.780379 308.138212 
L 561.890289 307.702148 
L 565.055154 306.864088 
L 567.165063 306.102339 
L 569.274973 305.435979 
L 573.494792 303.39193 
L 574.549747 302.665611 
L 576.659657 301.525032 
L 585.099296 295.356092 
L 586.15425 293.880289 
L 588.26416 290.089259 
L 589.319115 289.357489 
L 590.37407 286.937335 
L 591.429025 285.386584 
L 592.48398 282.697978 
L 596.703799 275.133634 
L 597.758754 274.262869 
L 600.923618 268.070763 
L 604.088483 263.50572 
L 605.143438 262.317447 
L 607.253347 259.425799 
L 608.308302 257.189609 
L 610.418212 253.397217 
L 613.583076 248.675464 
L 618.857851 238.868117 
L 619.912805 237.088431 
L 620.96776 234.957169 
L 622.022715 233.124339 
L 623.07767 230.44936 
L 624.132625 227.18297 
L 626.242534 222.96269 
L 627.297489 221.163927 
L 630.462354 214.392674 
L 631.517309 211.837613 
L 632.572263 209.888953 
L 635.737128 204.714783 
L 636.792083 202.70889 
L 637.847038 201.628269 
L 638.901993 199.92762 
L 639.956947 197.458409 
L 641.011902 195.779564 
L 643.121812 190.993764 
L 644.176767 189.344897 
L 646.286676 184.550921 
L 647.341631 182.610437 
L 648.396586 181.205494 
L 649.451541 179.571618 
L 650.506496 177.404926 
L 651.561451 175.627966 
L 652.616405 174.168515 
L 653.67136 172.48013 
L 654.726315 171.019317 
L 655.78127 169.807877 
L 657.89118 166.857633 
L 665.275864 156.806363 
L 667.385773 153.42278 
L 669.495683 150.655138 
L 670.550638 149.43961 
L 672.660547 146.320391 
L 676.880367 139.242531 
L 678.990277 136.211888 
L 680.045231 134.470358 
L 682.155141 130.688867 
L 684.265051 127.190818 
L 686.37496 124.387746 
L 688.48487 120.585815 
L 689.539825 119.153618 
L 691.649735 115.504309 
L 694.814599 111.13822 
L 695.869554 109.378975 
L 696.924509 107.850027 
L 699.034418 104.405123 
L 703.254238 98.875289 
L 704.309193 96.857131 
L 707.474057 92.233492 
L 708.529012 90.832637 
L 709.583967 89.159243 
L 710.638922 86.754078 
L 711.693877 84.761812 
L 712.748831 83.280558 
L 713.803786 80.819523 
L 715.913696 76.957633 
L 720.133515 67.531841 
L 721.18847 65.016298 
L 724.353335 59.087194 
L 725.40829 56.455821 
L 726.463244 54.345 
L 726.463244 54.345 
" clip-path="url(#pb9f7a95ff7)" style="fill: none; stroke: #ffdd00; stroke-width: 2; stroke-linecap: square"/>
   </g>
   <g id="line2d_42">
    <path d="M 25.97323 476.745 
L 75.556107 476.63778 
L 82.940791 476.405392 
L 89.27052 475.80364 
L 123.029075 471.11148 
L 140.963307 469.822955 
L 150.457901 469.523968 
L 170.502043 469.282606 
L 197.930869 469.134293 
L 222.19483 468.965197 
L 252.788521 467.986995 
L 257.00834 467.699344 
L 263.338069 467.209062 
L 273.887617 465.993276 
L 277.052482 465.280525 
L 278.107437 464.943279 
L 280.217347 464.675938 
L 282.327256 463.992944 
L 285.492121 462.950505 
L 288.656985 461.885393 
L 296.041669 458.319276 
L 298.151579 457.00619 
L 300.261488 455.890066 
L 301.316443 455.740809 
L 302.371398 455.271782 
L 303.426353 454.584064 
L 305.536263 452.954042 
L 308.701127 450.999999 
L 310.811037 449.843254 
L 316.085811 447.075381 
L 318.195721 446.154331 
L 320.30563 444.90312 
L 321.360585 444.396779 
L 322.41554 443.642935 
L 324.52545 442.685515 
L 325.580405 442.292534 
L 330.855179 439.407994 
L 331.910134 439.069331 
L 335.074998 437.368458 
L 337.184908 436.468663 
L 341.404727 434.841947 
L 343.514637 433.805648 
L 345.624547 433.081089 
L 346.679502 432.906798 
L 348.789411 432.101469 
L 351.954276 430.825697 
L 355.11914 429.875362 
L 358.284005 428.538187 
L 359.33896 428.035624 
L 365.668689 425.829827 
L 366.723643 425.559653 
L 367.778598 425.118493 
L 369.888508 423.786513 
L 374.108327 421.510811 
L 376.218237 420.704538 
L 378.328147 418.843545 
L 380.438056 416.405832 
L 381.493011 415.396456 
L 382.547966 414.232627 
L 383.602921 413.332832 
L 384.657876 412.138301 
L 385.712831 411.175213 
L 387.82274 408.833384 
L 396.262379 401.763499 
L 400.482198 399.122683 
L 402.592108 397.650892 
L 404.702018 396.469114 
L 405.756973 396.11392 
L 406.811927 395.618442 
L 408.921837 394.422966 
L 411.031747 393.407922 
L 413.141657 392.533633 
L 415.251566 391.713662 
L 417.361476 390.748213 
L 418.416431 390.325474 
L 419.471386 390.049632 
L 422.63625 388.843765 
L 435.295708 384.196477 
L 437.405618 383.510177 
L 439.515528 382.872527 
L 450.065076 380.505192 
L 452.174986 379.958702 
L 463.779489 376.948522 
L 465.889399 376.545149 
L 469.054263 375.630712 
L 471.164173 375.165463 
L 473.274082 374.805073 
L 475.383992 374.360135 
L 478.548857 373.815062 
L 483.823631 373.132541 
L 490.15336 372.4401 
L 509.142547 370.811495 
L 513.362366 370.460551 
L 520.74705 369.676478 
L 522.85696 369.343483 
L 524.96687 369.140852 
L 534.461463 367.426754 
L 537.626328 366.600171 
L 540.791192 365.823182 
L 550.285786 362.210777 
L 552.395696 361.234936 
L 554.505605 360.415438 
L 559.780379 357.671181 
L 560.835334 357.080764 
L 561.890289 356.057218 
L 564.000199 353.238333 
L 565.055154 352.413166 
L 568.220018 348.275526 
L 569.274973 346.802791 
L 572.439838 341.161241 
L 574.549747 338.405649 
L 576.659657 336.16915 
L 577.714612 334.374756 
L 578.769567 333.051278 
L 579.824521 331.532254 
L 584.044341 327.328015 
L 585.099296 326.082944 
L 589.319115 322.216896 
L 591.429025 320.767777 
L 594.593889 318.398553 
L 596.703799 317.196937 
L 599.868663 315.674607 
L 601.978573 314.326567 
L 607.253347 311.899718 
L 611.473167 309.416662 
L 613.583076 308.527258 
L 619.912805 304.270118 
L 620.96776 303.412833 
L 622.022715 302.214051 
L 627.297489 294.267987 
L 628.352444 292.22609 
L 630.462354 287.528263 
L 631.517309 284.299864 
L 632.572263 281.532935 
L 633.627218 278.173228 
L 634.682173 276.334435 
L 637.847038 267.549507 
L 639.956947 261.473883 
L 646.286676 243.248429 
L 647.341631 241.21834 
L 648.396586 238.425905 
L 649.451541 236.422739 
L 650.506496 234.828614 
L 651.561451 232.506151 
L 652.616405 232.506151 
L 654.726315 227.00583 
L 655.78127 225.195376 
L 657.89118 222.461983 
L 660.001089 218.861858 
L 662.110999 215.589533 
L 663.165954 214.382249 
L 665.275864 212.285561 
L 668.440728 208.223022 
L 669.495683 207.035104 
L 672.660547 204.269119 
L 674.770457 201.555092 
L 676.880367 199.172643 
L 678.990277 196.971569 
L 680.045231 196.070357 
L 692.704689 181.504542 
L 694.814599 179.378569 
L 695.869554 178.166562 
L 696.924509 177.149628 
L 697.979464 175.859214 
L 699.034418 174.0327 
L 700.089373 172.845727 
L 702.199283 170.920968 
L 703.254238 169.270163 
L 704.309193 167.936766 
L 705.364148 166.808362 
L 707.474057 163.900206 
L 709.583967 161.895151 
L 710.638922 160.075722 
L 713.803786 155.474723 
L 714.858741 154.021354 
L 715.913696 152.940655 
L 716.968651 151.631819 
L 720.133515 147.057271 
L 723.29838 143.319225 
L 724.353335 142.125638 
L 726.463244 139.28597 
L 726.463244 139.28597 
" clip-path="url(#pb9f7a95ff7)" style="fill: none; stroke: #003078; stroke-width: 2; stroke-linecap: square"/>
   </g>
   <g id="line2d_43">
    <path d="M 25.97323 476.745 
L 73.446198 476.643511 
L 78.720972 476.515832 
L 83.995746 476.138523 
L 91.38043 475.009051 
L 97.710159 473.411421 
L 98.765114 473.398326 
L 99.820069 472.98746 
L 104.039888 471.95784 
L 117.754301 469.1448 
L 119.864211 468.859158 
L 126.19394 468.007962 
L 130.413759 467.638019 
L 132.523669 467.354014 
L 136.743488 466.951333 
L 140.963307 466.450436 
L 144.128172 466.111595 
L 147.293037 465.758839 
L 150.457901 465.505118 
L 156.78763 465.113895 
L 165.227269 464.804518 
L 171.556998 464.525423 
L 183.161501 464.006521 
L 185.271411 463.8903 
L 195.820959 463.729064 
L 208.480417 463.559643 
L 217.975011 463.336204 
L 250.678611 462.716631 
L 257.00834 462.41462 
L 266.502934 461.348988 
L 273.887617 460.139307 
L 278.107437 458.971368 
L 284.437166 457.120016 
L 287.60203 455.80721 
L 288.656985 455.459365 
L 291.82185 453.69477 
L 292.876805 453.181597 
L 294.986714 452.400788 
L 296.041669 451.775486 
L 297.096624 451.001225 
L 298.151579 450.406206 
L 299.206534 449.604936 
L 300.261488 449.053295 
L 301.316443 448.27576 
L 302.371398 447.763405 
L 303.426353 446.823816 
L 304.481308 446.036459 
L 305.536263 445.108328 
L 306.591218 444.485481 
L 307.646172 443.401843 
L 310.811037 440.562613 
L 312.920947 438.279934 
L 313.975901 436.858272 
L 315.030856 435.793458 
L 316.085811 435.123141 
L 317.140766 433.77596 
L 319.250676 431.876319 
L 321.360585 429.728685 
L 322.41554 428.944603 
L 323.470495 428.33567 
L 324.52545 427.573686 
L 325.580405 427.21029 
L 327.690314 425.741158 
L 329.800224 424.325226 
L 330.855179 423.234222 
L 331.910134 422.504157 
L 334.020043 421.404968 
L 337.184908 418.880844 
L 341.404727 416.260142 
L 344.569592 413.149184 
L 345.624547 412.327452 
L 347.734456 411.125137 
L 351.954276 406.157916 
L 354.064185 402.935647 
L 355.11914 402.29725 
L 357.22905 398.854816 
L 359.33896 394.985147 
L 360.393914 394.985147 
L 361.448869 393.980081 
L 363.558779 393.042946 
L 364.613734 383.656871 
L 367.778598 376.945516 
L 369.888508 372.588046 
L 370.943463 370.122033 
L 371.998418 368.353345 
L 373.053373 368.353345 
L 374.108327 366.522455 
L 375.163282 363.132402 
L 379.383102 355.852219 
L 380.438056 355.852219 
L 381.493011 353.590001 
L 382.547966 350.307167 
L 384.657876 347.060344 
L 385.712831 345.228635 
L 386.767785 343.822525 
L 388.877695 339.844819 
L 392.04256 335.928498 
L 394.152469 333.328257 
L 395.207424 331.848486 
L 397.317334 329.965214 
L 398.372289 328.875028 
L 400.482198 326.919732 
L 401.537153 325.97605 
L 402.592108 325.320465 
L 403.647063 324.437349 
L 406.811927 322.60564 
L 407.866882 322.166128 
L 408.921837 321.589116 
L 409.976792 321.142238 
L 412.086702 320.043867 
L 414.196611 319.025705 
L 417.361476 317.881501 
L 418.416431 317.329042 
L 419.471386 316.951733 
L 420.52634 316.452474 
L 423.691205 315.565265 
L 424.74616 315.067643 
L 427.911024 314.120687 
L 431.075889 313.352155 
L 432.130844 312.915917 
L 436.350663 311.823276 
L 438.460573 311.374761 
L 440.570482 310.960621 
L 443.735347 310.461362 
L 458.504715 308.162314 
L 459.55967 308.043637 
L 461.669579 307.636045 
L 464.834444 307.182619 
L 467.999308 306.762751 
L 472.219128 306.20047 
L 490.15336 304.973602 
L 536.571373 303.341597 
L 541.846147 303.132071 
L 549.230831 302.64427 
L 559.780379 301.663758 
L 560.835334 301.267624 
L 562.945244 300.950063 
L 565.055154 300.316576 
L 566.110108 300.316576 
L 567.165063 299.976098 
L 568.220018 299.427731 
L 569.274973 299.197744 
L 572.439838 297.917676 
L 573.494792 297.917676 
L 574.549747 297.479801 
L 575.604702 296.451818 
L 579.824521 294.228068 
L 580.879476 294.228068 
L 581.934431 293.656784 
L 582.989386 292.682819 
L 584.044341 292.079616 
L 585.099296 291.150666 
L 586.15425 290.445974 
L 587.209205 289.559584 
L 588.26416 289.559584 
L 589.319115 288.649459 
L 590.37407 286.969164 
L 591.429025 286.51492 
L 592.48398 285.744751 
L 594.593889 284.544074 
L 595.648844 284.544074 
L 597.758754 282.605965 
L 601.978573 280.281545 
L 603.033528 280.281545 
L 604.088483 279.693074 
L 605.143438 278.787859 
L 608.308302 277.257343 
L 609.363257 276.600121 
L 610.418212 276.600121 
L 611.473167 275.892974 
L 612.528122 274.776597 
L 613.583076 274.332174 
L 614.638031 274.332174 
L 615.692986 272.821301 
L 616.747941 271.929182 
L 617.802896 271.929182 
L 618.857851 271.029697 
L 619.912805 269.070308 
L 620.96776 268.447462 
L 623.07767 266.112402 
L 624.132625 264.698106 
L 625.18758 264.698106 
L 626.242534 263.367294 
L 627.297489 260.709761 
L 628.352444 259.569649 
L 629.407399 258.174178 
L 630.462354 256.218882 
L 631.517309 254.753024 
L 632.572263 254.753024 
L 633.627218 252.823919 
L 634.682173 252.823919 
L 635.737128 249.65485 
L 636.792083 246.931022 
L 638.901993 243.112097 
L 639.956947 243.112097 
L 641.011902 241.156801 
L 642.066857 236.93274 
L 646.286676 228.799724 
L 647.341631 228.799724 
L 648.396586 226.903357 
L 649.451541 223.37744 
L 650.506496 221.802727 
L 651.561451 219.921911 
L 653.67136 215.413026 
L 654.726315 215.413026 
L 655.78127 213.189276 
L 656.836225 208.885825 
L 661.056044 200.485173 
L 662.110999 200.485173 
L 663.165954 197.781806 
L 664.220909 193.150153 
L 665.275864 191.292253 
L 666.330818 188.534869 
L 667.385773 186.423247 
L 668.440728 183.960507 
L 669.495683 183.960507 
L 670.550638 182.052682 
L 671.605593 178.790309 
L 672.660547 177.35146 
L 673.715502 175.708815 
L 674.770457 172.926058 
L 675.825412 168.256755 
L 677.935322 168.256755 
L 678.990277 164.599067 
L 681.100186 161.069058 
L 682.155141 158.912421 
L 683.210096 156.350648 
L 684.265051 156.350648 
L 685.320006 153.923921 
L 686.37496 148.687427 
L 688.48487 143.244682 
L 689.539825 139.77442 
L 690.59478 137.076783 
L 691.649735 137.076783 
L 692.704689 134.497004 
L 693.759644 134.497004 
L 694.814599 130.168998 
L 697.979464 123.779297 
L 699.034418 123.779297 
L 700.089373 121.310828 
L 701.144328 117.232452 
L 702.199283 115.42366 
L 703.254238 113.384063 
L 704.309193 111.0932 
L 705.364148 109.467742 
L 706.419102 109.467742 
L 707.474057 107.353665 
L 708.529012 103.831841 
L 709.583967 102.371712 
L 711.693877 98.848251 
L 712.748831 96.569664 
L 713.803786 96.569664 
L 714.858741 94.393384 
L 715.913696 90.693955 
L 716.968651 89.121697 
L 720.133515 83.025004 
L 721.18847 83.025004 
L 722.243425 81.054157 
L 723.29838 77.3801 
L 725.40829 74.036699 
L 726.463244 72.091225 
L 726.463244 72.091225 
" clip-path="url(#pb9f7a95ff7)" style="fill: none; stroke: #d4351c; stroke-width: 2; stroke-linecap: square"/>
   </g>
   <g id="patch_3">
    <path d="M 57.621875 476.745 
L 727.221875 476.745 
" style="fill: none; stroke: #000000; stroke-width: 0.8; stroke-linejoin: miter; stroke-linecap: square"/>
   </g>
   <g id="text_22">
    <!-- Cumulative COVID-19 cases by date reported, per capita -->
    <g transform="translate(225.877813 27.225)scale(0.12 -0.12)">
     <defs>
      <path id="Inter-Bold-43" d="M 4511 3025 
L 3516 3025 
Q 3459 3409 3188 3628 
Q 2918 3848 2514 3848 
Q 1973 3848 1647 3451 
Q 1321 3055 1321 2327 
Q 1321 1582 1649 1194 
Q 1977 807 2507 807 
Q 2900 807 3173 1012 
Q 3446 1218 3516 1591 
L 4511 1586 
Q 4459 1159 4207 782 
Q 3955 405 3522 170 
Q 3089 -64 2491 -64 
Q 1868 -64 1378 218 
Q 889 500 606 1034 
Q 323 1568 323 2327 
Q 323 3089 609 3623 
Q 896 4157 1386 4437 
Q 1877 4718 2491 4718 
Q 3030 4718 3463 4519 
Q 3896 4320 4172 3942 
Q 4448 3564 4511 3025 
z
" transform="scale(0.015625)"/>
      <path id="Inter-Bold-75" d="M 2625 1486 
L 2625 3491 
L 3593 3491 
L 3593 0 
L 2664 0 
L 2664 634 
L 2627 634 
Q 2509 327 2235 141 
Q 1961 -45 1568 -45 
Q 1041 -45 715 306 
Q 389 657 386 1268 
L 386 3491 
L 1355 3491 
L 1355 1441 
Q 1357 1132 1520 952 
Q 1684 773 1959 773 
Q 2221 773 2424 954 
Q 2627 1136 2625 1486 
z
" transform="scale(0.015625)"/>
      <path id="Inter-Bold-6d" d="M 386 0 
L 386 3491 
L 1309 3491 
L 1309 2875 
L 1350 2875 
Q 1459 3184 1715 3360 
Q 1971 3536 2323 3536 
Q 2682 3536 2934 3358 
Q 3186 3180 3271 2875 
L 3307 2875 
Q 3414 3175 3694 3355 
Q 3975 3536 4359 3536 
Q 4848 3536 5153 3226 
Q 5459 2916 5459 2348 
L 5459 0 
L 4493 0 
L 4493 2157 
Q 4493 2448 4338 2593 
Q 4184 2739 3952 2739 
Q 3689 2739 3541 2570 
Q 3393 2402 3393 2132 
L 3393 0 
L 2455 0 
L 2455 2177 
Q 2455 2434 2308 2586 
Q 2161 2739 1923 2739 
Q 1682 2739 1518 2562 
Q 1355 2386 1355 2095 
L 1355 0 
L 386 0 
z
" transform="scale(0.015625)"/>
      <path id="Inter-Bold-6c" d="M 1355 4655 
L 1355 0 
L 386 0 
L 386 4655 
L 1355 4655 
z
" transform="scale(0.015625)"/>
      <path id="Inter-Bold-61" d="M 1382 -66 
Q 882 -66 552 195 
Q 223 457 223 975 
Q 223 1366 407 1588 
Q 591 1811 890 1914 
Q 1189 2018 1534 2050 
Q 1989 2095 2184 2145 
Q 2380 2195 2380 2364 
L 2380 2377 
Q 2380 2593 2244 2711 
Q 2109 2830 1861 2830 
Q 1600 2830 1445 2716 
Q 1291 2602 1241 2427 
L 346 2500 
Q 446 2977 842 3256 
Q 1239 3536 1866 3536 
Q 2255 3536 2593 3413 
Q 2932 3291 3140 3030 
Q 3348 2770 3348 2355 
L 3348 0 
L 2430 0 
L 2430 484 
L 2402 484 
Q 2275 241 2021 87 
Q 1768 -66 1382 -66 
z
M 1659 602 
Q 1977 602 2181 787 
Q 2386 973 2386 1248 
L 2386 1618 
Q 2330 1580 2210 1550 
Q 2091 1520 1956 1498 
Q 1821 1477 1714 1461 
Q 1459 1425 1303 1318 
Q 1148 1211 1148 1007 
Q 1148 807 1292 704 
Q 1436 602 1659 602 
z
" transform="scale(0.015625)"/>
      <path id="Inter-Bold-74" d="M 2243 3491 
L 2243 2764 
L 1586 2764 
L 1586 1073 
Q 1586 873 1677 802 
Q 1768 732 1914 732 
Q 1982 732 2050 744 
Q 2118 757 2155 764 
L 2307 43 
Q 2234 20 2102 -10 
Q 1971 -41 1782 -48 
Q 1255 -70 935 181 
Q 616 432 618 945 
L 618 2764 
L 141 2764 
L 141 3491 
L 618 3491 
L 618 4327 
L 1586 4327 
L 1586 3491 
L 2243 3491 
z
" transform="scale(0.015625)"/>
      <path id="Inter-Bold-69" d="M 386 0 
L 386 3491 
L 1355 3491 
L 1355 0 
L 386 0 
z
M 876 3941 
Q 662 3941 507 4085 
Q 353 4230 353 4432 
Q 353 4634 507 4777 
Q 662 4920 876 4920 
Q 1092 4920 1246 4777 
Q 1401 4634 1401 4432 
Q 1401 4230 1246 4085 
Q 1092 3941 876 3941 
z
" transform="scale(0.015625)"/>
      <path id="Inter-Bold-76" d="M 3641 3491 
L 2421 0 
L 1330 0 
L 109 3491 
L 1132 3491 
L 1857 993 
L 1893 993 
L 2616 3491 
L 3641 3491 
z
" transform="scale(0.015625)"/>
      <path id="Inter-Bold-65" d="M 1977 -68 
Q 1441 -68 1052 151 
Q 664 370 455 773 
Q 246 1177 246 1730 
Q 246 2268 455 2675 
Q 664 3082 1044 3309 
Q 1425 3536 1939 3536 
Q 2400 3536 2771 3340 
Q 3143 3145 3361 2751 
Q 3580 2357 3580 1764 
L 3580 1498 
L 1202 1498 
L 1202 1495 
Q 1202 1105 1416 880 
Q 1630 655 1993 655 
Q 2236 655 2413 757 
Q 2591 859 2664 1059 
L 3559 1000 
Q 3457 514 3041 223 
Q 2625 -68 1977 -68 
z
M 1202 2098 
L 2668 2098 
Q 2666 2409 2468 2611 
Q 2271 2814 1955 2814 
Q 1632 2814 1425 2604 
Q 1218 2395 1202 2098 
z
" transform="scale(0.015625)"/>
      <path id="Inter-Bold-20" transform="scale(0.015625)"/>
      <path id="Inter-Bold-4f" d="M 4682 2327 
Q 4682 1566 4394 1032 
Q 4107 498 3614 217 
Q 3121 -64 2502 -64 
Q 1882 -64 1389 218 
Q 896 500 609 1035 
Q 323 1570 323 2327 
Q 323 3089 609 3623 
Q 896 4157 1389 4437 
Q 1882 4718 2502 4718 
Q 3121 4718 3614 4437 
Q 4107 4157 4394 3623 
Q 4682 3089 4682 2327 
z
M 3684 2327 
Q 3684 3068 3361 3458 
Q 3039 3848 2502 3848 
Q 1966 3848 1643 3458 
Q 1321 3068 1321 2327 
Q 1321 1589 1643 1198 
Q 1966 807 2502 807 
Q 3039 807 3361 1198 
Q 3684 1589 3684 2327 
z
" transform="scale(0.015625)"/>
      <path id="Inter-Bold-56" d="M 1246 4655 
L 2371 1118 
L 2414 1118 
L 3541 4655 
L 4632 4655 
L 3027 0 
L 1759 0 
L 152 4655 
L 1246 4655 
z
" transform="scale(0.015625)"/>
      <path id="Inter-Bold-49" d="M 1389 4655 
L 1389 0 
L 405 0 
L 405 4655 
L 1389 4655 
z
" transform="scale(0.015625)"/>
      <path id="Inter-Bold-44" d="M 2055 0 
L 405 0 
L 405 4655 
L 2068 4655 
Q 2771 4655 3278 4376 
Q 3786 4098 4059 3577 
Q 4332 3057 4332 2332 
Q 4332 1605 4058 1082 
Q 3784 559 3274 279 
Q 2764 0 2055 0 
z
M 1389 843 
L 2014 843 
Q 2671 843 3010 1197 
Q 3350 1552 3350 2332 
Q 3350 3107 3010 3459 
Q 2671 3811 2016 3811 
L 1389 3811 
L 1389 843 
z
" transform="scale(0.015625)"/>
      <path id="Inter-Bold-2d" d="M 2561 2295 
L 2561 1527 
L 439 1527 
L 439 2295 
L 2561 2295 
z
" transform="scale(0.015625)"/>
      <path id="Inter-Bold-31" d="M 2305 4655 
L 2305 0 
L 1323 0 
L 1323 3450 
L 1280 3450 
Q 1205 3334 961 3219 
Q 718 3105 332 3105 
L 332 3886 
Q 632 3886 857 4019 
Q 1082 4152 1209 4333 
Q 1336 4514 1341 4655 
L 2305 4655 
z
" transform="scale(0.015625)"/>
      <path id="Inter-Bold-39" d="M 2061 4732 
Q 2421 4732 2753 4612 
Q 3086 4493 3348 4227 
Q 3611 3961 3766 3523 
Q 3921 3086 3921 2448 
Q 3921 1659 3686 1096 
Q 3452 534 3028 235 
Q 2605 -64 2027 -64 
Q 1561 -64 1204 117 
Q 848 298 631 610 
Q 414 923 368 1314 
L 1339 1314 
Q 1396 1059 1577 919 
Q 1759 780 2027 780 
Q 2482 780 2718 1176 
Q 2955 1573 2957 2264 
L 2925 2264 
Q 2771 1957 2453 1782 
Q 2136 1607 1752 1607 
Q 1341 1607 1016 1801 
Q 691 1995 506 2334 
Q 321 2673 323 3109 
Q 321 3582 539 3949 
Q 757 4316 1149 4525 
Q 1541 4734 2061 4732 
z
M 2068 3959 
Q 1725 3959 1500 3722 
Q 1275 3486 1277 3136 
Q 1275 2791 1496 2555 
Q 1718 2320 2059 2320 
Q 2284 2320 2465 2431 
Q 2646 2543 2751 2729 
Q 2857 2916 2859 3141 
Q 2857 3366 2753 3551 
Q 2650 3736 2473 3847 
Q 2296 3959 2068 3959 
z
" transform="scale(0.015625)"/>
      <path id="Inter-Bold-63" d="M 1964 -68 
Q 1427 -68 1042 160 
Q 657 389 451 795 
Q 246 1202 246 1732 
Q 246 2268 453 2674 
Q 661 3080 1045 3308 
Q 1430 3536 1959 3536 
Q 2416 3536 2760 3370 
Q 3105 3205 3303 2905 
Q 3502 2605 3523 2200 
L 2609 2200 
Q 2571 2461 2406 2621 
Q 2241 2782 1975 2782 
Q 1639 2782 1434 2511 
Q 1230 2241 1230 1745 
Q 1230 1245 1433 971 
Q 1636 698 1975 698 
Q 2225 698 2395 849 
Q 2566 1000 2609 1280 
L 3523 1280 
Q 3500 880 3305 575 
Q 3111 270 2770 101 
Q 2430 -68 1964 -68 
z
" transform="scale(0.015625)"/>
      <path id="Inter-Bold-73" d="M 3291 2495 
L 2405 2441 
Q 2368 2609 2220 2729 
Q 2073 2850 1821 2850 
Q 1596 2850 1440 2755 
Q 1284 2661 1286 2505 
Q 1284 2380 1385 2293 
Q 1486 2207 1730 2155 
L 2361 2027 
Q 3368 1820 3371 1082 
Q 3371 739 3169 479 
Q 2968 220 2618 76 
Q 2268 -68 1816 -68 
Q 1123 -68 711 221 
Q 300 511 232 1011 
L 1184 1061 
Q 1230 848 1394 739 
Q 1559 630 1818 630 
Q 2073 630 2228 730 
Q 2384 830 2386 984 
Q 2380 1243 1939 1332 
L 1334 1452 
Q 321 1655 325 2450 
Q 323 2955 728 3245 
Q 1134 3536 1805 3536 
Q 2466 3536 2846 3256 
Q 3227 2977 3291 2495 
z
" transform="scale(0.015625)"/>
      <path id="Inter-Bold-62" d="M 405 0 
L 405 4655 
L 1373 4655 
L 1373 2905 
L 1402 2905 
Q 1468 3048 1588 3193 
Q 1709 3339 1907 3437 
Q 2105 3536 2396 3536 
Q 2780 3536 3100 3337 
Q 3421 3139 3615 2740 
Q 3809 2341 3809 1741 
Q 3809 1157 3620 756 
Q 3432 355 3111 149 
Q 2791 -57 2393 -57 
Q 2111 -57 1914 36 
Q 1718 130 1594 272 
Q 1471 414 1402 559 
L 1359 559 
L 1359 0 
L 405 0 
z
M 1352 1745 
Q 1352 1280 1544 997 
Q 1736 714 2086 714 
Q 2443 714 2632 1001 
Q 2821 1289 2821 1745 
Q 2821 2200 2633 2483 
Q 2446 2766 2086 2766 
Q 1734 2766 1543 2490 
Q 1352 2214 1352 1745 
z
" transform="scale(0.015625)"/>
      <path id="Inter-Bold-79" d="M 950 -1359 
Q 743 -1359 596 -1324 
Q 450 -1289 368 -1252 
L 586 -502 
Q 843 -580 1019 -543 
Q 1196 -507 1298 -268 
L 1361 -100 
L 109 3491 
L 1127 3491 
L 1850 927 
L 1886 927 
L 2616 3491 
L 3641 3491 
L 2277 -400 
Q 2130 -818 1806 -1088 
Q 1482 -1359 950 -1359 
z
" transform="scale(0.015625)"/>
      <path id="Inter-Bold-64" d="M 1673 -57 
Q 1275 -57 954 149 
Q 634 355 445 756 
Q 257 1157 257 1741 
Q 257 2341 451 2740 
Q 646 3139 967 3337 
Q 1289 3536 1671 3536 
Q 1964 3536 2160 3437 
Q 2357 3339 2478 3193 
Q 2600 3048 2664 2905 
L 2693 2905 
L 2693 4655 
L 3659 4655 
L 3659 0 
L 2705 0 
L 2705 559 
L 2664 559 
Q 2598 414 2473 272 
Q 2348 130 2151 36 
Q 1955 -57 1673 -57 
z
M 1980 714 
Q 2330 714 2522 997 
Q 2714 1280 2714 1745 
Q 2714 2214 2523 2490 
Q 2332 2766 1980 2766 
Q 1621 2766 1433 2483 
Q 1246 2200 1246 1745 
Q 1246 1289 1434 1001 
Q 1623 714 1980 714 
z
" transform="scale(0.015625)"/>
      <path id="Inter-Bold-72" d="M 386 0 
L 386 3491 
L 1325 3491 
L 1325 2882 
L 1361 2882 
Q 1457 3207 1681 3374 
Q 1905 3541 2200 3541 
Q 2341 3541 2461 3507 
Q 2582 3473 2677 3414 
L 2386 2614 
Q 2318 2648 2237 2671 
Q 2157 2695 2057 2695 
Q 1764 2695 1560 2495 
Q 1357 2295 1355 1975 
L 1355 0 
L 386 0 
z
" transform="scale(0.015625)"/>
      <path id="Inter-Bold-70" d="M 386 -1309 
L 386 3491 
L 1341 3491 
L 1341 2905 
L 1384 2905 
Q 1450 3048 1570 3193 
Q 1691 3339 1888 3437 
Q 2086 3536 2377 3536 
Q 2761 3536 3081 3337 
Q 3402 3139 3596 2740 
Q 3791 2341 3791 1741 
Q 3791 1157 3602 756 
Q 3414 355 3093 149 
Q 2773 -57 2375 -57 
Q 2093 -57 1896 36 
Q 1700 130 1576 272 
Q 1452 414 1384 559 
L 1355 559 
L 1355 -1309 
L 386 -1309 
z
M 1334 1745 
Q 1334 1280 1526 997 
Q 1718 714 2068 714 
Q 2425 714 2613 1001 
Q 2802 1289 2802 1745 
Q 2802 2200 2614 2483 
Q 2427 2766 2068 2766 
Q 1716 2766 1525 2490 
Q 1334 2214 1334 1745 
z
" transform="scale(0.015625)"/>
      <path id="Inter-Bold-6f" d="M 1964 -68 
Q 1434 -68 1049 158 
Q 664 384 455 789 
Q 246 1195 246 1732 
Q 246 2273 455 2678 
Q 664 3084 1049 3310 
Q 1434 3536 1964 3536 
Q 2493 3536 2878 3310 
Q 3264 3084 3473 2678 
Q 3682 2273 3682 1732 
Q 3682 1195 3473 789 
Q 3264 384 2878 158 
Q 2493 -68 1964 -68 
z
M 1968 682 
Q 2327 682 2512 982 
Q 2698 1282 2698 1739 
Q 2698 2195 2512 2496 
Q 2327 2798 1968 2798 
Q 1602 2798 1416 2496 
Q 1230 2195 1230 1739 
Q 1230 1282 1416 982 
Q 1602 682 1968 682 
z
" transform="scale(0.015625)"/>
      <path id="Inter-Bold-2c" d="M 1439 636 
L 1414 386 
Q 1384 86 1301 -212 
Q 1218 -511 1128 -754 
Q 1039 -998 984 -1136 
L 357 -1136 
Q 391 -1002 450 -763 
Q 509 -525 561 -226 
Q 614 73 627 382 
L 639 636 
L 1439 636 
z
" transform="scale(0.015625)"/>
     </defs>
     <use xlink:href="#Inter-Bold-43"/>
     <use xlink:href="#Inter-Bold-75" x="75.213089"/>
     <use xlink:href="#Inter-Bold-6d" x="137.393494"/>
     <use xlink:href="#Inter-Bold-75" x="228.5867"/>
     <use xlink:href="#Inter-Bold-6c" x="290.767105"/>
     <use xlink:href="#Inter-Bold-61" x="317.968811"/>
     <use xlink:href="#Inter-Bold-74" x="375.994385"/>
     <use xlink:href="#Inter-Bold-69" x="414.843826"/>
     <use xlink:href="#Inter-Bold-76" x="442.045532"/>
     <use xlink:href="#Inter-Bold-65" x="500.639297"/>
     <use xlink:href="#Inter-Bold-20" x="560.404938"/>
     <use xlink:href="#Inter-Bold-43" x="583.593857"/>
     <use xlink:href="#Inter-Bold-4f" x="658.806946"/>
     <use xlink:href="#Inter-Bold-56" x="737.002991"/>
     <use xlink:href="#Inter-Bold-49" x="811.789932"/>
     <use xlink:href="#Inter-Bold-44" x="839.843918"/>
     <use xlink:href="#Inter-Bold-2d" x="912.571213"/>
     <use xlink:href="#Inter-Bold-31" x="959.446228"/>
     <use xlink:href="#Inter-Bold-39" x="1006.853912"/>
     <use xlink:href="#Inter-Bold-20" x="1072.869553"/>
     <use xlink:href="#Inter-Bold-63" x="1096.058472"/>
     <use xlink:href="#Inter-Bold-61" x="1154.794281"/>
     <use xlink:href="#Inter-Bold-73" x="1212.819855"/>
     <use xlink:href="#Inter-Bold-65" x="1268.99884"/>
     <use xlink:href="#Inter-Bold-73" x="1328.764481"/>
     <use xlink:href="#Inter-Bold-20" x="1384.943466"/>
     <use xlink:href="#Inter-Bold-62" x="1408.132385"/>
     <use xlink:href="#Inter-Bold-79" x="1471.662231"/>
     <use xlink:href="#Inter-Bold-20" x="1530.255997"/>
     <use xlink:href="#Inter-Bold-64" x="1553.444916"/>
     <use xlink:href="#Inter-Bold-61" x="1616.974762"/>
     <use xlink:href="#Inter-Bold-74" x="1675.000336"/>
     <use xlink:href="#Inter-Bold-65" x="1713.849777"/>
     <use xlink:href="#Inter-Bold-20" x="1773.615417"/>
     <use xlink:href="#Inter-Bold-72" x="1796.804337"/>
     <use xlink:href="#Inter-Bold-65" x="1839.666565"/>
     <use xlink:href="#Inter-Bold-70" x="1899.432205"/>
     <use xlink:href="#Inter-Bold-6f" x="1962.677963"/>
     <use xlink:href="#Inter-Bold-72" x="2024.041611"/>
     <use xlink:href="#Inter-Bold-74" x="2066.903839"/>
     <use xlink:href="#Inter-Bold-65" x="2105.753281"/>
     <use xlink:href="#Inter-Bold-64" x="2165.518921"/>
     <use xlink:href="#Inter-Bold-2c" x="2229.048767"/>
     <use xlink:href="#Inter-Bold-20" x="2259.339966"/>
     <use xlink:href="#Inter-Bold-70" x="2282.528885"/>
     <use xlink:href="#Inter-Bold-65" x="2345.774643"/>
     <use xlink:href="#Inter-Bold-72" x="2405.540283"/>
     <use xlink:href="#Inter-Bold-20" x="2448.402512"/>
     <use xlink:href="#Inter-Bold-63" x="2471.591431"/>
     <use xlink:href="#Inter-Bold-61" x="2530.32724"/>
     <use xlink:href="#Inter-Bold-70" x="2588.352814"/>
     <use xlink:href="#Inter-Bold-69" x="2651.598572"/>
     <use xlink:href="#Inter-Bold-74" x="2678.800278"/>
     <use xlink:href="#Inter-Bold-61" x="2717.649719"/>
    </g>
   </g>
   <g id="legend_1">
    <g id="patch_4">
     <path d="M 64.621875 98.614062 
L 174.195313 98.614062 
Q 176.195313 98.614062 176.195313 96.614062 
L 176.195313 40.225 
Q 176.195313 38.225 174.195313 38.225 
L 64.621875 38.225 
Q 62.621875 38.225 62.621875 40.225 
L 62.621875 96.614062 
Q 62.621875 98.614062 64.621875 98.614062 
z
" style="fill: #ffffff; opacity: 0.8; stroke: #cccccc; stroke-linejoin: miter"/>
    </g>
    <g id="line2d_44">
     <path d="M 66.621875 45.998437 
L 76.621875 45.998437 
L 86.621875 45.998437 
" style="fill: none; stroke: #d4351c; stroke-width: 2; stroke-linecap: square"/>
    </g>
    <g id="text_23">
     <!-- Wales -->
     <g transform="translate(94.621875 49.498437)scale(0.1 -0.1)">
      <defs>
       <path id="Inter-Regular-57" d="M 1409 0 
L 136 4655 
L 709 4655 
L 1682 864 
L 1727 864 
L 2718 4655 
L 3355 4655 
L 4346 864 
L 4391 864 
L 5364 4655 
L 5936 4655 
L 4664 0 
L 4082 0 
L 3055 3709 
L 3018 3709 
L 1991 0 
L 1409 0 
z
" transform="scale(0.015625)"/>
      </defs>
      <use xlink:href="#Inter-Regular-57"/>
      <use xlink:href="#Inter-Regular-61" x="94.886383"/>
      <use xlink:href="#Inter-Regular-6c" x="151.278442"/>
      <use xlink:href="#Inter-Regular-65" x="175.000031"/>
      <use xlink:href="#Inter-Regular-73" x="233.238678"/>
     </g>
    </g>
    <g id="line2d_45">
     <path d="M 66.621875 60.317187 
L 76.621875 60.317187 
L 86.621875 60.317187 
" style="fill: none; stroke: #003078; stroke-width: 2; stroke-linecap: square"/>
    </g>
    <g id="text_24">
     <!-- Scotland -->
     <g transform="translate(94.621875 63.817187)scale(0.1 -0.1)">
      <use xlink:href="#Inter-Regular-53"/>
      <use xlink:href="#Inter-Regular-63" x="63.778427"/>
      <use xlink:href="#Inter-Regular-6f" x="119.602295"/>
      <use xlink:href="#Inter-Regular-74" x="179.261398"/>
      <use xlink:href="#Inter-Regular-6c" x="215.625046"/>
      <use xlink:href="#Inter-Regular-61" x="239.346634"/>
      <use xlink:href="#Inter-Regular-6e" x="295.738693"/>
      <use xlink:href="#Inter-Regular-64" x="354.261429"/>
     </g>
    </g>
    <g id="line2d_46">
     <path d="M 66.621875 74.635937 
L 76.621875 74.635937 
L 86.621875 74.635937 
" style="fill: none; stroke: #ffdd00; stroke-width: 2; stroke-linecap: square"/>
    </g>
    <g id="text_25">
     <!-- Northern Ireland -->
     <g transform="translate(94.621875 78.135937)scale(0.1 -0.1)">
      <defs>
       <path id="Inter-Regular-68" d="M 1027 2100 
L 1027 0 
L 491 0 
L 491 4655 
L 1027 4655 
L 1027 2945 
L 1073 2945 
Q 1196 3216 1442 3376 
Q 1689 3536 2100 3536 
Q 2636 3536 2963 3213 
Q 3291 2891 3291 2218 
L 3291 0 
L 2755 0 
L 2755 2182 
Q 2755 2598 2540 2826 
Q 2325 3055 1946 3055 
Q 1548 3055 1287 2806 
Q 1027 2557 1027 2100 
z
" transform="scale(0.015625)"/>
       <path id="Inter-Regular-49" d="M 1127 4655 
L 1127 0 
L 564 0 
L 564 4655 
L 1127 4655 
z
" transform="scale(0.015625)"/>
      </defs>
      <use xlink:href="#Inter-Regular-4e"/>
      <use xlink:href="#Inter-Regular-6f" x="75.284103"/>
      <use xlink:href="#Inter-Regular-72" x="134.943207"/>
      <use xlink:href="#Inter-Regular-74" x="173.295486"/>
      <use xlink:href="#Inter-Regular-68" x="209.659134"/>
      <use xlink:href="#Inter-Regular-65" x="268.750061"/>
      <use xlink:href="#Inter-Regular-72" x="326.988708"/>
      <use xlink:href="#Inter-Regular-6e" x="365.340988"/>
      <use xlink:href="#Inter-Regular-20" x="423.863724"/>
      <use xlink:href="#Inter-Regular-49" x="451.988724"/>
      <use xlink:href="#Inter-Regular-72" x="478.40918"/>
      <use xlink:href="#Inter-Regular-65" x="516.761459"/>
      <use xlink:href="#Inter-Regular-6c" x="575.000107"/>
      <use xlink:href="#Inter-Regular-61" x="598.721695"/>
      <use xlink:href="#Inter-Regular-6e" x="655.113754"/>
      <use xlink:href="#Inter-Regular-64" x="713.63649"/>
     </g>
    </g>
    <g id="line2d_47">
     <path d="M 66.621875 88.954687 
L 76.621875 88.954687 
L 86.621875 88.954687 
" style="fill: none; stroke: #5694ca; stroke-width: 2; stroke-linecap: square"/>
    </g>
    <g id="text_26">
     <!-- England -->
     <g transform="translate(94.621875 92.454687)scale(0.1 -0.1)">
      <defs>
       <path id="Inter-Regular-45" d="M 564 0 
L 564 4655 
L 3373 4655 
L 3373 4155 
L 1127 4155 
L 1127 2582 
L 3227 2582 
L 3227 2082 
L 1127 2082 
L 1127 500 
L 3409 500 
L 3409 0 
L 564 0 
z
" transform="scale(0.015625)"/>
       <path id="Inter-Regular-67" d="M 1900 -1382 
Q 1316 -1382 976 -1169 
Q 636 -957 473 -682 
L 900 -382 
Q 973 -477 1084 -601 
Q 1196 -725 1390 -817 
Q 1584 -909 1900 -909 
Q 2323 -909 2598 -704 
Q 2873 -500 2873 -64 
L 2873 645 
L 2827 645 
Q 2768 550 2660 410 
Q 2552 270 2351 162 
Q 2150 55 1809 55 
Q 1386 55 1051 255 
Q 716 455 521 836 
Q 327 1218 327 1764 
Q 327 2300 516 2699 
Q 705 3098 1041 3317 
Q 1377 3536 1818 3536 
Q 2159 3536 2360 3423 
Q 2561 3311 2669 3169 
Q 2777 3027 2836 2936 
L 2891 2936 
L 2891 3491 
L 3409 3491 
L 3409 -100 
Q 3409 -550 3205 -833 
Q 3002 -1116 2660 -1249 
Q 2318 -1382 1900 -1382 
z
M 1882 536 
Q 2366 536 2624 864 
Q 2882 1193 2882 1773 
Q 2882 2339 2627 2697 
Q 2373 3055 1882 3055 
Q 1541 3055 1315 2882 
Q 1089 2709 976 2418 
Q 864 2127 864 1773 
Q 864 1227 1120 881 
Q 1377 536 1882 536 
z
" transform="scale(0.015625)"/>
      </defs>
      <use xlink:href="#Inter-Regular-45"/>
      <use xlink:href="#Inter-Regular-6e" x="59.801147"/>
      <use xlink:href="#Inter-Regular-67" x="118.323883"/>
      <use xlink:href="#Inter-Regular-6c" x="179.261398"/>
      <use xlink:href="#Inter-Regular-61" x="202.982986"/>
      <use xlink:href="#Inter-Regular-6e" x="259.375046"/>
      <use xlink:href="#Inter-Regular-64" x="317.897781"/>
     </g>
    </g>
   </g>
  </g>
 </g>
 <defs>
  <clipPath id="pb9f7a95ff7">
   <rect x="57.621875" y="33.225" width="669.6" height="443.52"/>
  </clipPath>
 </defs>
</svg>
