<?xml version="1.0" encoding="utf-8" standalone="no"?>
<!DOCTYPE svg PUBLIC "-//W3C//DTD SVG 1.1//EN"
  "http://www.w3.org/Graphics/SVG/1.1/DTD/svg11.dtd">
<svg version="1.1" viewBox="0 0 756.175 511.27625" xmlns="http://www.w3.org/2000/svg" xmlns:xlink="http://www.w3.org/1999/xlink">
 <metadata>
  <rdf:RDF xmlns:cc="http://creativecommons.org/ns#" xmlns:dc="http://purl.org/dc/elements/1.1/" xmlns:rdf="http://www.w3.org/1999/02/22-rdf-syntax-ns#">
   <cc:Work>
    <dc:type rdf:resource="http://purl.org/dc/dcmitype/StillImage"/>
    <dc:date>2021-04-26T16:07:49.782851</dc:date>
    <dc:format>image/svg+xml</dc:format>
    <dc:creator>
     <cc:Agent>
      <dc:title>Matplotlib v3.4.1, https://matplotlib.org/</dc:title>
     </cc:Agent>
    </dc:creator>
   </cc:Work>
  </rdf:RDF>
 </metadata>
 <defs>
  <style type="text/css">*{stroke-linecap:butt;stroke-linejoin:round;}</style>
 </defs>
 <g id="figure_1">
  <g id="patch_1">
   <path d="M 0 511.27625 
L 756.175 511.27625 
L 756.175 0 
L 0 0 
z
" style="fill:#ffffff;"/>
  </g>
  <g id="axes_1">
   <g id="patch_2">
    <path d="M 68.575 476.745 
L 738.175 476.745 
L 738.175 33.225 
L 68.575 33.225 
z
" style="fill:#ffffff;"/>
   </g>
   <g id="matplotlib.axis_1">
    <g id="xtick_1">
     <g id="line2d_1">
      <defs>
       <path d="M 0 0 
L 0 3.5 
" id="m044ad1019a" style="stroke:#000000;stroke-width:0.8;"/>
      </defs>
      <g>
       <use style="stroke:#000000;stroke-width:0.8;" x="68.575" xlink:href="#m044ad1019a" y="476.745"/>
      </g>
     </g>
     <g id="text_1">
      <!-- 01 Mar -->
      <g transform="translate(52.538281 491.018438)scale(0.1 -0.1)">
       <defs>
        <path d="M 2000 -64 
Q 1230 -64 806 561 
Q 382 1186 382 2327 
Q 382 3459 809 4088 
Q 1236 4718 2000 4718 
Q 2764 4718 3191 4088 
Q 3618 3459 3618 2327 
Q 3618 1186 3194 561 
Q 2771 -64 2000 -64 
z
M 2000 436 
Q 2509 436 2791 927 
Q 3073 1418 3073 2327 
Q 3073 3234 2789 3730 
Q 2505 4227 2000 4227 
Q 1496 4227 1211 3730 
Q 927 3234 927 2327 
Q 927 1418 1210 927 
Q 1493 436 2000 436 
z
" id="Inter-Regular-30" transform="scale(0.015625)"/>
        <path d="M 1973 4655 
L 1973 0 
L 1409 0 
L 1409 3836 
L 1373 3836 
Q 1341 3773 1209 3692 
Q 1077 3611 868 3551 
Q 659 3491 391 3491 
L 391 3964 
Q 661 3964 859 4061 
Q 1057 4159 1190 4291 
Q 1323 4423 1392 4529 
Q 1461 4636 1473 4655 
L 1973 4655 
z
" id="Inter-Regular-31" transform="scale(0.015625)"/>
        <path id="Inter-Regular-20" transform="scale(0.015625)"/>
        <path d="M 564 4655 
L 1236 4655 
L 2818 791 
L 2873 791 
L 4455 4655 
L 5127 4655 
L 5127 0 
L 4600 0 
L 4600 3536 
L 4555 3536 
L 3100 0 
L 2591 0 
L 1136 3536 
L 1091 3536 
L 1091 0 
L 564 0 
L 564 4655 
z
" id="Inter-Regular-4d" transform="scale(0.015625)"/>
        <path d="M 1518 -82 
Q 1186 -82 916 44 
Q 646 170 486 410 
Q 327 650 327 991 
Q 327 1291 445 1478 
Q 564 1666 761 1773 
Q 959 1880 1199 1933 
Q 1439 1986 1682 2018 
Q 2000 2059 2199 2080 
Q 2398 2102 2490 2154 
Q 2582 2207 2582 2336 
L 2582 2355 
Q 2582 2691 2399 2877 
Q 2216 3064 1846 3064 
Q 1461 3064 1243 2895 
Q 1025 2727 936 2536 
L 427 2718 
Q 564 3036 792 3214 
Q 1021 3393 1292 3464 
Q 1564 3536 1827 3536 
Q 1996 3536 2215 3496 
Q 2434 3457 2640 3334 
Q 2846 3211 2982 2963 
Q 3118 2716 3118 2300 
L 3118 0 
L 2582 0 
L 2582 473 
L 2555 473 
Q 2500 359 2373 229 
Q 2246 100 2034 9 
Q 1823 -82 1518 -82 
z
M 1600 400 
Q 1918 400 2137 525 
Q 2357 650 2469 847 
Q 2582 1045 2582 1264 
L 2582 1755 
Q 2548 1714 2433 1681 
Q 2318 1648 2169 1624 
Q 2021 1600 1881 1583 
Q 1741 1566 1655 1555 
Q 1446 1527 1265 1467 
Q 1084 1407 974 1287 
Q 864 1168 864 964 
Q 864 684 1072 542 
Q 1280 400 1600 400 
z
" id="Inter-Regular-61" transform="scale(0.015625)"/>
        <path d="M 491 0 
L 491 3491 
L 1009 3491 
L 1009 2964 
L 1046 2964 
Q 1139 3223 1389 3384 
Q 1639 3545 1955 3545 
Q 2100 3545 2209 3511 
Q 2318 3477 2400 3418 
L 2218 2964 
Q 2161 2993 2085 3010 
Q 2009 3027 1909 3027 
Q 1527 3027 1277 2794 
Q 1027 2561 1027 2209 
L 1027 0 
L 491 0 
z
" id="Inter-Regular-72" transform="scale(0.015625)"/>
       </defs>
       <use xlink:href="#Inter-Regular-30"/>
       <use x="62.500015" xlink:href="#Inter-Regular-31"/>
       <use x="106.676163" xlink:href="#Inter-Regular-20"/>
       <use x="134.801163" xlink:href="#Inter-Regular-4d"/>
       <use x="225.99437" xlink:href="#Inter-Regular-61"/>
       <use x="282.386429" xlink:href="#Inter-Regular-72"/>
      </g>
     </g>
    </g>
    <g id="xtick_2">
     <g id="line2d_2">
      <g>
       <use style="stroke:#000000;stroke-width:0.8;" x="117.802075" xlink:href="#m044ad1019a" y="476.745"/>
      </g>
     </g>
     <g id="text_2">
      <!-- 01 Apr -->
      <g transform="translate(102.716919 491.116875)scale(0.1 -0.1)">
       <defs>
        <path d="M 755 0 
L 164 0 
L 1873 4655 
L 2455 4655 
L 4164 0 
L 3573 0 
L 3105 1318 
L 1223 1318 
L 755 0 
z
M 1400 1818 
L 2927 1818 
L 2182 3918 
L 2146 3918 
L 1400 1818 
z
" id="Inter-Regular-41" transform="scale(0.015625)"/>
        <path d="M 491 -1309 
L 491 3491 
L 1009 3491 
L 1009 2936 
L 1073 2936 
Q 1132 3027 1237 3169 
Q 1343 3311 1542 3423 
Q 1741 3536 2082 3536 
Q 2523 3536 2859 3315 
Q 3196 3095 3384 2690 
Q 3573 2286 3573 1736 
Q 3573 1182 3384 776 
Q 3196 370 2861 148 
Q 2527 -73 2091 -73 
Q 1755 -73 1552 39 
Q 1350 152 1241 296 
Q 1132 441 1073 536 
L 1027 536 
L 1027 -1309 
L 491 -1309 
z
M 1018 1745 
Q 1018 1152 1276 780 
Q 1534 409 2018 409 
Q 2355 409 2581 587 
Q 2807 766 2921 1069 
Q 3036 1373 3036 1745 
Q 3036 2114 2923 2410 
Q 2811 2707 2585 2881 
Q 2359 3055 2018 3055 
Q 1527 3055 1272 2693 
Q 1018 2332 1018 1745 
z
" id="Inter-Regular-70" transform="scale(0.015625)"/>
       </defs>
       <use xlink:href="#Inter-Regular-30"/>
       <use x="62.500015" xlink:href="#Inter-Regular-31"/>
       <use x="106.676163" xlink:href="#Inter-Regular-20"/>
       <use x="134.801163" xlink:href="#Inter-Regular-41"/>
       <use x="202.41481" xlink:href="#Inter-Regular-70"/>
       <use x="263.352325" xlink:href="#Inter-Regular-72"/>
      </g>
     </g>
    </g>
    <g id="xtick_3">
     <g id="line2d_3">
      <g>
       <use style="stroke:#000000;stroke-width:0.8;" x="165.44118" xlink:href="#m044ad1019a" y="476.745"/>
      </g>
     </g>
     <g id="text_3">
      <!-- 01 May -->
      <g transform="translate(148.538055 491.116875)scale(0.1 -0.1)">
       <defs>
        <path d="M 818 -1355 
Q 682 -1355 575 -1333 
Q 468 -1311 427 -1291 
L 564 -818 
Q 857 -893 1053 -814 
Q 1250 -736 1391 -345 
L 1509 -18 
L 218 3491 
L 800 3491 
L 1764 709 
L 1800 709 
L 2764 3491 
L 3346 3491 
L 1846 -564 
Q 1550 -1355 818 -1355 
z
" id="Inter-Regular-79" transform="scale(0.015625)"/>
       </defs>
       <use xlink:href="#Inter-Regular-30"/>
       <use x="62.500015" xlink:href="#Inter-Regular-31"/>
       <use x="106.676163" xlink:href="#Inter-Regular-20"/>
       <use x="134.801163" xlink:href="#Inter-Regular-4d"/>
       <use x="225.99437" xlink:href="#Inter-Regular-61"/>
       <use x="282.386429" xlink:href="#Inter-Regular-79"/>
      </g>
     </g>
    </g>
    <g id="xtick_4">
     <g id="line2d_4">
      <g>
       <use style="stroke:#000000;stroke-width:0.8;" x="214.668256" xlink:href="#m044ad1019a" y="476.745"/>
      </g>
     </g>
     <g id="text_4">
      <!-- 01 Jun -->
      <g transform="translate(199.383881 491.018438)scale(0.1 -0.1)">
       <defs>
        <path d="M 2346 4655 
L 2909 4655 
L 2909 1327 
Q 2909 657 2549 296 
Q 2189 -64 1582 -64 
Q 1200 -64 902 76 
Q 605 216 434 475 
Q 264 734 264 1091 
L 818 1091 
Q 818 795 1034 615 
Q 1250 436 1582 436 
Q 1948 436 2147 664 
Q 2346 893 2346 1327 
L 2346 4655 
z
" id="Inter-Regular-4a" transform="scale(0.015625)"/>
        <path d="M 2691 1427 
L 2691 3491 
L 3227 3491 
L 3227 0 
L 2691 0 
L 2691 591 
L 2655 591 
Q 2532 325 2273 140 
Q 2014 -45 1618 -45 
Q 1127 -45 809 280 
Q 491 605 491 1273 
L 491 3491 
L 1027 3491 
L 1027 1309 
Q 1027 927 1242 700 
Q 1457 473 1791 473 
Q 1991 473 2199 575 
Q 2407 677 2549 888 
Q 2691 1100 2691 1427 
z
" id="Inter-Regular-75" transform="scale(0.015625)"/>
        <path d="M 1027 2100 
L 1027 0 
L 491 0 
L 491 3491 
L 1009 3491 
L 1009 2945 
L 1055 2945 
Q 1177 3211 1427 3373 
Q 1677 3536 2073 3536 
Q 2602 3536 2928 3211 
Q 3255 2886 3255 2218 
L 3255 0 
L 2718 0 
L 2718 2182 
Q 2718 2593 2504 2824 
Q 2291 3055 1918 3055 
Q 1534 3055 1280 2806 
Q 1027 2557 1027 2100 
z
" id="Inter-Regular-6e" transform="scale(0.015625)"/>
       </defs>
       <use xlink:href="#Inter-Regular-30"/>
       <use x="62.500015" xlink:href="#Inter-Regular-31"/>
       <use x="106.676163" xlink:href="#Inter-Regular-20"/>
       <use x="134.801163" xlink:href="#Inter-Regular-4a"/>
       <use x="189.062531" xlink:href="#Inter-Regular-75"/>
       <use x="247.159134" xlink:href="#Inter-Regular-6e"/>
      </g>
     </g>
    </g>
    <g id="xtick_5">
     <g id="line2d_5">
      <g>
       <use style="stroke:#000000;stroke-width:0.8;" x="262.307361" xlink:href="#m044ad1019a" y="476.745"/>
      </g>
     </g>
     <g id="text_5">
      <!-- 01 Jul -->
      <g transform="translate(248.763611 491.018438)scale(0.1 -0.1)">
       <defs>
        <path d="M 1027 4655 
L 1027 0 
L 491 0 
L 491 4655 
L 1027 4655 
z
" id="Inter-Regular-6c" transform="scale(0.015625)"/>
       </defs>
       <use xlink:href="#Inter-Regular-30"/>
       <use x="62.500015" xlink:href="#Inter-Regular-31"/>
       <use x="106.676163" xlink:href="#Inter-Regular-20"/>
       <use x="134.801163" xlink:href="#Inter-Regular-4a"/>
       <use x="189.062531" xlink:href="#Inter-Regular-75"/>
       <use x="247.159134" xlink:href="#Inter-Regular-6c"/>
      </g>
     </g>
    </g>
    <g id="xtick_6">
     <g id="line2d_6">
      <g>
       <use style="stroke:#000000;stroke-width:0.8;" x="311.534436" xlink:href="#m044ad1019a" y="476.745"/>
      </g>
     </g>
     <g id="text_6">
      <!-- 01 Aug -->
      <g transform="translate(295.462561 491.116875)scale(0.1 -0.1)">
       <defs>
        <path d="M 1900 -1382 
Q 1316 -1382 976 -1169 
Q 636 -957 473 -682 
L 900 -382 
Q 973 -477 1084 -601 
Q 1196 -725 1390 -817 
Q 1584 -909 1900 -909 
Q 2323 -909 2598 -704 
Q 2873 -500 2873 -64 
L 2873 645 
L 2827 645 
Q 2768 550 2660 410 
Q 2552 270 2351 162 
Q 2150 55 1809 55 
Q 1386 55 1051 255 
Q 716 455 521 836 
Q 327 1218 327 1764 
Q 327 2300 516 2699 
Q 705 3098 1041 3317 
Q 1377 3536 1818 3536 
Q 2159 3536 2360 3423 
Q 2561 3311 2669 3169 
Q 2777 3027 2836 2936 
L 2891 2936 
L 2891 3491 
L 3409 3491 
L 3409 -100 
Q 3409 -550 3205 -833 
Q 3002 -1116 2660 -1249 
Q 2318 -1382 1900 -1382 
z
M 1882 536 
Q 2366 536 2624 864 
Q 2882 1193 2882 1773 
Q 2882 2339 2627 2697 
Q 2373 3055 1882 3055 
Q 1541 3055 1315 2882 
Q 1089 2709 976 2418 
Q 864 2127 864 1773 
Q 864 1227 1120 881 
Q 1377 536 1882 536 
z
" id="Inter-Regular-67" transform="scale(0.015625)"/>
       </defs>
       <use xlink:href="#Inter-Regular-30"/>
       <use x="62.500015" xlink:href="#Inter-Regular-31"/>
       <use x="106.676163" xlink:href="#Inter-Regular-20"/>
       <use x="134.801163" xlink:href="#Inter-Regular-41"/>
       <use x="202.41481" xlink:href="#Inter-Regular-75"/>
       <use x="260.511414" xlink:href="#Inter-Regular-67"/>
      </g>
     </g>
    </g>
    <g id="xtick_7">
     <g id="line2d_7">
      <g>
       <use style="stroke:#000000;stroke-width:0.8;" x="360.761511" xlink:href="#m044ad1019a" y="476.745"/>
      </g>
     </g>
     <g id="text_7">
      <!-- 01 Sep -->
      <g transform="translate(344.874011 491.116875)scale(0.1 -0.1)">
       <defs>
        <path d="M 3109 3491 
Q 3068 3836 2777 4027 
Q 2486 4218 2064 4218 
Q 1600 4218 1318 3999 
Q 1036 3780 1036 3445 
Q 1036 3195 1189 3042 
Q 1343 2889 1553 2803 
Q 1764 2718 1936 2673 
L 2409 2545 
Q 2591 2498 2815 2414 
Q 3039 2330 3244 2185 
Q 3450 2041 3584 1816 
Q 3718 1591 3718 1264 
Q 3718 886 3521 581 
Q 3325 277 2949 97 
Q 2573 -82 2036 -82 
Q 1286 -82 845 272 
Q 405 627 364 1200 
L 946 1200 
Q 968 936 1124 764 
Q 1280 593 1519 510 
Q 1759 427 2036 427 
Q 2359 427 2616 533 
Q 2873 639 3023 828 
Q 3173 1018 3173 1273 
Q 3173 1505 3043 1650 
Q 2914 1795 2702 1886 
Q 2491 1977 2246 2045 
L 1673 2209 
Q 1127 2366 809 2657 
Q 491 2948 491 3418 
Q 491 3809 703 4101 
Q 916 4393 1276 4555 
Q 1636 4718 2082 4718 
Q 2532 4718 2882 4558 
Q 3232 4398 3437 4120 
Q 3643 3843 3655 3491 
L 3109 3491 
z
" id="Inter-Regular-53" transform="scale(0.015625)"/>
        <path d="M 1955 -73 
Q 1450 -73 1085 151 
Q 721 375 524 778 
Q 327 1182 327 1718 
Q 327 2255 524 2665 
Q 721 3075 1074 3305 
Q 1427 3536 1900 3536 
Q 2173 3536 2439 3445 
Q 2705 3355 2923 3151 
Q 3141 2948 3270 2614 
Q 3400 2280 3400 1791 
L 3400 1564 
L 866 1564 
Q 884 1005 1183 707 
Q 1482 409 1955 409 
Q 2271 409 2498 545 
Q 2725 682 2827 955 
L 3346 809 
Q 3223 414 2854 170 
Q 2486 -73 1955 -73 
z
M 866 2027 
L 2855 2027 
Q 2855 2470 2595 2762 
Q 2336 3055 1900 3055 
Q 1593 3055 1368 2911 
Q 1143 2768 1013 2533 
Q 884 2298 866 2027 
z
" id="Inter-Regular-65" transform="scale(0.015625)"/>
       </defs>
       <use xlink:href="#Inter-Regular-30"/>
       <use x="62.500015" xlink:href="#Inter-Regular-31"/>
       <use x="106.676163" xlink:href="#Inter-Regular-20"/>
       <use x="134.801163" xlink:href="#Inter-Regular-53"/>
       <use x="198.57959" xlink:href="#Inter-Regular-65"/>
       <use x="256.818237" xlink:href="#Inter-Regular-70"/>
      </g>
     </g>
    </g>
    <g id="xtick_8">
     <g id="line2d_8">
      <g>
       <use style="stroke:#000000;stroke-width:0.8;" x="408.400617" xlink:href="#m044ad1019a" y="476.745"/>
      </g>
     </g>
     <g id="text_8">
      <!-- 01 Oct -->
      <g transform="translate(393.244367 491.018438)scale(0.1 -0.1)">
       <defs>
        <path d="M 4491 2327 
Q 4491 1591 4225 1054 
Q 3959 518 3495 227 
Q 3032 -64 2436 -64 
Q 1841 -64 1377 227 
Q 914 518 648 1054 
Q 382 1591 382 2327 
Q 382 3064 648 3600 
Q 914 4136 1377 4427 
Q 1841 4718 2436 4718 
Q 3032 4718 3495 4427 
Q 3959 4136 4225 3600 
Q 4491 3064 4491 2327 
z
M 3946 2327 
Q 3946 2932 3744 3348 
Q 3543 3764 3201 3977 
Q 2859 4191 2436 4191 
Q 2014 4191 1672 3977 
Q 1330 3764 1128 3348 
Q 927 2932 927 2327 
Q 927 1723 1128 1307 
Q 1330 891 1672 677 
Q 2014 464 2436 464 
Q 2859 464 3201 677 
Q 3543 891 3744 1307 
Q 3946 1723 3946 2327 
z
" id="Inter-Regular-4f" transform="scale(0.015625)"/>
        <path d="M 1909 -73 
Q 1418 -73 1063 159 
Q 709 391 518 798 
Q 327 1205 327 1727 
Q 327 2259 524 2667 
Q 721 3075 1074 3305 
Q 1427 3536 1900 3536 
Q 2268 3536 2563 3400 
Q 2859 3264 3047 3018 
Q 3236 2773 3282 2445 
L 2746 2445 
Q 2684 2684 2474 2869 
Q 2264 3055 1909 3055 
Q 1439 3055 1151 2697 
Q 864 2339 864 1745 
Q 864 1139 1148 774 
Q 1432 409 1909 409 
Q 2223 409 2447 570 
Q 2671 732 2746 1018 
L 3282 1018 
Q 3236 709 3058 462 
Q 2880 216 2588 71 
Q 2296 -73 1909 -73 
z
" id="Inter-Regular-63" transform="scale(0.015625)"/>
        <path d="M 2009 3491 
L 2009 3036 
L 1264 3036 
L 1264 1000 
Q 1264 773 1331 660 
Q 1398 548 1503 510 
Q 1609 473 1727 473 
Q 1816 473 1873 483 
Q 1930 493 1964 500 
L 2073 18 
Q 2018 -2 1920 -23 
Q 1823 -45 1673 -45 
Q 1446 -45 1228 52 
Q 1011 150 869 350 
Q 727 550 727 855 
L 727 3036 
L 200 3036 
L 200 3491 
L 727 3491 
L 727 4327 
L 1264 4327 
L 1264 3491 
L 2009 3491 
z
" id="Inter-Regular-74" transform="scale(0.015625)"/>
       </defs>
       <use xlink:href="#Inter-Regular-30"/>
       <use x="62.500015" xlink:href="#Inter-Regular-31"/>
       <use x="106.676163" xlink:href="#Inter-Regular-20"/>
       <use x="134.801163" xlink:href="#Inter-Regular-4f"/>
       <use x="210.937546" xlink:href="#Inter-Regular-63"/>
       <use x="266.761414" xlink:href="#Inter-Regular-74"/>
      </g>
     </g>
    </g>
    <g id="xtick_9">
     <g id="line2d_9">
      <g>
       <use style="stroke:#000000;stroke-width:0.8;" x="457.627692" xlink:href="#m044ad1019a" y="476.745"/>
      </g>
     </g>
     <g id="text_9">
      <!-- 01 Nov -->
      <g transform="translate(441.356598 491.018438)scale(0.1 -0.1)">
       <defs>
        <path d="M 4255 4655 
L 4255 0 
L 3709 0 
L 1173 3655 
L 1127 3655 
L 1127 0 
L 564 0 
L 564 4655 
L 1109 4655 
L 3655 991 
L 3700 991 
L 3700 4655 
L 4255 4655 
z
" id="Inter-Regular-4e" transform="scale(0.015625)"/>
        <path d="M 1909 -73 
Q 1436 -73 1080 152 
Q 725 377 526 781 
Q 327 1186 327 1727 
Q 327 2273 526 2679 
Q 725 3086 1080 3311 
Q 1436 3536 1909 3536 
Q 2382 3536 2737 3311 
Q 3093 3086 3292 2679 
Q 3491 2273 3491 1727 
Q 3491 1186 3292 781 
Q 3093 377 2737 152 
Q 2382 -73 1909 -73 
z
M 1909 409 
Q 2268 409 2500 593 
Q 2732 777 2843 1077 
Q 2955 1377 2955 1727 
Q 2955 2077 2843 2379 
Q 2732 2682 2500 2868 
Q 2268 3055 1909 3055 
Q 1550 3055 1318 2868 
Q 1086 2682 975 2379 
Q 864 2077 864 1727 
Q 864 1377 975 1077 
Q 1086 777 1318 593 
Q 1550 409 1909 409 
z
" id="Inter-Regular-6f" transform="scale(0.015625)"/>
        <path d="M 3346 3491 
L 2055 0 
L 1509 0 
L 218 3491 
L 800 3491 
L 1764 709 
L 1800 709 
L 2764 3491 
L 3346 3491 
z
" id="Inter-Regular-76" transform="scale(0.015625)"/>
       </defs>
       <use xlink:href="#Inter-Regular-30"/>
       <use x="62.500015" xlink:href="#Inter-Regular-31"/>
       <use x="106.676163" xlink:href="#Inter-Regular-20"/>
       <use x="134.801163" xlink:href="#Inter-Regular-4e"/>
       <use x="210.085266" xlink:href="#Inter-Regular-6f"/>
       <use x="269.74437" xlink:href="#Inter-Regular-76"/>
      </g>
     </g>
    </g>
    <g id="xtick_10">
     <g id="line2d_10">
      <g>
       <use style="stroke:#000000;stroke-width:0.8;" x="505.266797" xlink:href="#m044ad1019a" y="476.745"/>
      </g>
     </g>
     <g id="text_10">
      <!-- 01 Dec -->
      <g transform="translate(489.230078 491.018438)scale(0.1 -0.1)">
       <defs>
        <path d="M 2000 0 
L 564 0 
L 564 4655 
L 2064 4655 
Q 2741 4655 3223 4376 
Q 3705 4098 3961 3578 
Q 4218 3059 4218 2336 
Q 4218 1609 3959 1085 
Q 3700 561 3204 280 
Q 2709 0 2000 0 
z
M 1127 500 
L 1964 500 
Q 2830 500 3251 992 
Q 3673 1484 3673 2336 
Q 3673 3182 3259 3668 
Q 2846 4155 2027 4155 
L 1127 4155 
L 1127 500 
z
" id="Inter-Regular-44" transform="scale(0.015625)"/>
       </defs>
       <use xlink:href="#Inter-Regular-30"/>
       <use x="62.500015" xlink:href="#Inter-Regular-31"/>
       <use x="106.676163" xlink:href="#Inter-Regular-20"/>
       <use x="134.801163" xlink:href="#Inter-Regular-44"/>
       <use x="206.676178" xlink:href="#Inter-Regular-65"/>
       <use x="264.914825" xlink:href="#Inter-Regular-63"/>
      </g>
     </g>
    </g>
    <g id="xtick_11">
     <g id="line2d_11">
      <g>
       <use style="stroke:#000000;stroke-width:0.8;" x="554.493872" xlink:href="#m044ad1019a" y="476.745"/>
      </g>
     </g>
     <g id="text_11">
      <!-- 01 Jan -->
      <g transform="translate(539.294654 491.018438)scale(0.1 -0.1)">
       <use xlink:href="#Inter-Regular-30"/>
       <use x="62.500015" xlink:href="#Inter-Regular-31"/>
       <use x="106.676163" xlink:href="#Inter-Regular-20"/>
       <use x="134.801163" xlink:href="#Inter-Regular-4a"/>
       <use x="189.062531" xlink:href="#Inter-Regular-61"/>
       <use x="245.45459" xlink:href="#Inter-Regular-6e"/>
      </g>
     </g>
    </g>
    <g id="xtick_12">
     <g id="line2d_12">
      <g>
       <use style="stroke:#000000;stroke-width:0.8;" x="603.720948" xlink:href="#m044ad1019a" y="476.745"/>
      </g>
     </g>
     <g id="text_12">
      <!-- 01 Feb -->
      <g transform="translate(588.031885 491.018438)scale(0.1 -0.1)">
       <defs>
        <path d="M 564 0 
L 564 4655 
L 3355 4655 
L 3355 4155 
L 1127 4155 
L 1127 2582 
L 3146 2582 
L 3146 2082 
L 1127 2082 
L 1127 0 
L 564 0 
z
" id="Inter-Regular-46" transform="scale(0.015625)"/>
        <path d="M 564 0 
L 564 4655 
L 1100 4655 
L 1100 2936 
L 1146 2936 
Q 1205 3027 1310 3169 
Q 1416 3311 1615 3423 
Q 1814 3536 2155 3536 
Q 2596 3536 2932 3315 
Q 3268 3095 3457 2690 
Q 3646 2286 3646 1736 
Q 3646 1182 3457 776 
Q 3268 370 2934 148 
Q 2600 -73 2164 -73 
Q 1827 -73 1625 39 
Q 1423 152 1314 296 
Q 1205 441 1146 536 
L 1082 536 
L 1082 0 
L 564 0 
z
M 1091 1745 
Q 1091 1152 1349 780 
Q 1607 409 2091 409 
Q 2427 409 2653 587 
Q 2880 766 2994 1069 
Q 3109 1373 3109 1745 
Q 3109 2114 2996 2410 
Q 2884 2707 2658 2881 
Q 2432 3055 2091 3055 
Q 1600 3055 1345 2693 
Q 1091 2332 1091 1745 
z
" id="Inter-Regular-62" transform="scale(0.015625)"/>
       </defs>
       <use xlink:href="#Inter-Regular-30"/>
       <use x="62.500015" xlink:href="#Inter-Regular-31"/>
       <use x="106.676163" xlink:href="#Inter-Regular-20"/>
       <use x="134.801163" xlink:href="#Inter-Regular-46"/>
       <use x="193.465942" xlink:href="#Inter-Regular-65"/>
       <use x="251.70459" xlink:href="#Inter-Regular-62"/>
      </g>
     </g>
    </g>
    <g id="xtick_13">
     <g id="line2d_13">
      <g>
       <use style="stroke:#000000;stroke-width:0.8;" x="648.184112" xlink:href="#m044ad1019a" y="476.745"/>
      </g>
     </g>
     <g id="text_13">
      <!-- 01 Mar -->
      <g transform="translate(632.147394 491.018438)scale(0.1 -0.1)">
       <use xlink:href="#Inter-Regular-30"/>
       <use x="62.500015" xlink:href="#Inter-Regular-31"/>
       <use x="106.676163" xlink:href="#Inter-Regular-20"/>
       <use x="134.801163" xlink:href="#Inter-Regular-4d"/>
       <use x="225.99437" xlink:href="#Inter-Regular-61"/>
       <use x="282.386429" xlink:href="#Inter-Regular-72"/>
      </g>
     </g>
    </g>
    <g id="xtick_14">
     <g id="line2d_14">
      <g>
       <use style="stroke:#000000;stroke-width:0.8;" x="697.411188" xlink:href="#m044ad1019a" y="476.745"/>
      </g>
     </g>
     <g id="text_14">
      <!-- 01 Apr -->
      <g transform="translate(682.326031 491.116875)scale(0.1 -0.1)">
       <use xlink:href="#Inter-Regular-30"/>
       <use x="62.500015" xlink:href="#Inter-Regular-31"/>
       <use x="106.676163" xlink:href="#Inter-Regular-20"/>
       <use x="134.801163" xlink:href="#Inter-Regular-41"/>
       <use x="202.41481" xlink:href="#Inter-Regular-70"/>
       <use x="263.352325" xlink:href="#Inter-Regular-72"/>
      </g>
     </g>
    </g>
   </g>
   <g id="matplotlib.axis_2">
    <g id="ytick_1">
     <g id="line2d_15">
      <path clip-path="url(#pc9acddf5ee)" d="M 68.575 476.745 
L 738.175 476.745 
" style="fill:none;stroke:#e5e5e5;stroke-linecap:square;stroke-width:0.8;"/>
     </g>
     <g id="line2d_16">
      <defs>
       <path d="M 0 0 
L -3.5 0 
" id="m28481ac252" style="stroke:#000000;stroke-width:0.8;"/>
      </defs>
      <g>
       <use style="stroke:#000000;stroke-width:0.8;" x="68.575" xlink:href="#m28481ac252" y="476.745"/>
      </g>
     </g>
     <g id="text_15">
      <!-- 0.00% -->
      <g transform="translate(31.94375 480.381719)scale(0.1 -0.1)">
       <defs>
        <path d="M 882 -36 
Q 714 -36 593 84 
Q 473 205 473 373 
Q 473 541 593 661 
Q 714 782 882 782 
Q 1050 782 1170 661 
Q 1291 541 1291 373 
Q 1291 205 1170 84 
Q 1050 -36 882 -36 
z
" id="Inter-Regular-2e" transform="scale(0.015625)"/>
        <path d="M 2855 873 
L 2855 1118 
Q 2855 1373 2960 1585 
Q 3066 1798 3269 1926 
Q 3473 2055 3764 2055 
Q 4059 2055 4259 1926 
Q 4459 1798 4561 1585 
Q 4664 1373 4664 1118 
L 4664 873 
Q 4664 618 4560 405 
Q 4457 193 4256 64 
Q 4055 -64 3764 -64 
Q 3468 -64 3266 64 
Q 3064 193 2959 405 
Q 2855 618 2855 873 
z
M 536 3536 
L 536 3782 
Q 536 4036 642 4248 
Q 748 4461 951 4589 
Q 1155 4718 1446 4718 
Q 1741 4718 1941 4589 
Q 2141 4461 2243 4248 
Q 2346 4036 2346 3782 
L 2346 3536 
Q 2346 3282 2242 3069 
Q 2139 2857 1937 2728 
Q 1736 2600 1446 2600 
Q 1150 2600 948 2728 
Q 746 2857 641 3069 
Q 536 3282 536 3536 
z
M 709 0 
L 3909 4655 
L 4427 4655 
L 1227 0 
L 709 0 
z
M 3318 1118 
L 3318 873 
Q 3318 661 3418 494 
Q 3518 327 3764 327 
Q 4002 327 4101 494 
Q 4200 661 4200 873 
L 4200 1118 
Q 4200 1330 4104 1497 
Q 4009 1664 3764 1664 
Q 3525 1664 3421 1497 
Q 3318 1330 3318 1118 
z
M 1000 3782 
L 1000 3536 
Q 1000 3325 1100 3158 
Q 1200 2991 1446 2991 
Q 1684 2991 1783 3158 
Q 1882 3325 1882 3536 
L 1882 3782 
Q 1882 3993 1786 4160 
Q 1691 4327 1446 4327 
Q 1207 4327 1103 4160 
Q 1000 3993 1000 3782 
z
" id="Inter-Regular-25" transform="scale(0.015625)"/>
       </defs>
       <use xlink:href="#Inter-Regular-30"/>
       <use x="62.500015" xlink:href="#Inter-Regular-2e"/>
       <use x="90.056839" xlink:href="#Inter-Regular-30"/>
       <use x="152.556854" xlink:href="#Inter-Regular-30"/>
       <use x="215.05687" xlink:href="#Inter-Regular-25"/>
      </g>
     </g>
    </g>
    <g id="ytick_2">
     <g id="line2d_17">
      <path clip-path="url(#pc9acddf5ee)" d="M 68.575 391.038669 
L 738.175 391.038669 
" style="fill:none;stroke:#e5e5e5;stroke-linecap:square;stroke-width:0.8;"/>
     </g>
     <g id="line2d_18">
      <g>
       <use style="stroke:#000000;stroke-width:0.8;" x="68.575" xlink:href="#m28481ac252" y="391.038669"/>
      </g>
     </g>
     <g id="text_16">
      <!-- 0.02% -->
      <g transform="translate(32.142188 394.675388)scale(0.1 -0.1)">
       <defs>
        <path d="M 482 0 
L 482 409 
L 2018 2091 
Q 2289 2386 2464 2605 
Q 2639 2825 2724 3019 
Q 2809 3214 2809 3427 
Q 2809 3795 2553 4011 
Q 2298 4227 1918 4227 
Q 1514 4227 1275 3985 
Q 1036 3743 1036 3345 
L 500 3345 
Q 500 3755 688 4064 
Q 877 4373 1203 4545 
Q 1530 4718 1936 4718 
Q 2346 4718 2661 4545 
Q 2977 4373 3156 4079 
Q 3336 3786 3336 3427 
Q 3336 3170 3244 2926 
Q 3152 2682 2926 2383 
Q 2700 2084 2300 1655 
L 1255 536 
L 1255 500 
L 3418 500 
L 3418 0 
L 482 0 
z
" id="Inter-Regular-32" transform="scale(0.015625)"/>
       </defs>
       <use xlink:href="#Inter-Regular-30"/>
       <use x="62.500015" xlink:href="#Inter-Regular-2e"/>
       <use x="90.056839" xlink:href="#Inter-Regular-30"/>
       <use x="152.556854" xlink:href="#Inter-Regular-32"/>
       <use x="213.068237" xlink:href="#Inter-Regular-25"/>
      </g>
     </g>
    </g>
    <g id="ytick_3">
     <g id="line2d_19">
      <path clip-path="url(#pc9acddf5ee)" d="M 68.575 305.332339 
L 738.175 305.332339 
" style="fill:none;stroke:#e5e5e5;stroke-linecap:square;stroke-width:0.8;"/>
     </g>
     <g id="line2d_20">
      <g>
       <use style="stroke:#000000;stroke-width:0.8;" x="68.575" xlink:href="#m28481ac252" y="305.332339"/>
      </g>
     </g>
     <g id="text_17">
      <!-- 0.04% -->
      <g transform="translate(31.773438 308.969057)scale(0.1 -0.1)">
       <defs>
        <path d="M 373 955 
L 373 1418 
L 2418 4655 
L 3100 4655 
L 3100 1455 
L 3736 1455 
L 3736 955 
L 3100 955 
L 3100 0 
L 2564 0 
L 2564 955 
L 373 955 
z
M 2564 1455 
L 2564 3936 
L 2527 3936 
L 982 1491 
L 982 1455 
L 2564 1455 
z
" id="Inter-Regular-34" transform="scale(0.015625)"/>
       </defs>
       <use xlink:href="#Inter-Regular-30"/>
       <use x="62.500015" xlink:href="#Inter-Regular-2e"/>
       <use x="90.056839" xlink:href="#Inter-Regular-30"/>
       <use x="152.556854" xlink:href="#Inter-Regular-34"/>
       <use x="216.761414" xlink:href="#Inter-Regular-25"/>
      </g>
     </g>
    </g>
    <g id="ytick_4">
     <g id="line2d_21">
      <path clip-path="url(#pc9acddf5ee)" d="M 68.575 219.626008 
L 738.175 219.626008 
" style="fill:none;stroke:#e5e5e5;stroke-linecap:square;stroke-width:0.8;"/>
     </g>
     <g id="line2d_22">
      <g>
       <use style="stroke:#000000;stroke-width:0.8;" x="68.575" xlink:href="#m28481ac252" y="219.626008"/>
      </g>
     </g>
     <g id="text_18">
      <!-- 0.06% -->
      <g transform="translate(31.957813 223.262727)scale(0.1 -0.1)">
       <defs>
        <path d="M 2027 -64 
Q 1741 -59 1454 45 
Q 1168 150 932 399 
Q 696 648 552 1074 
Q 409 1500 409 2145 
Q 409 3386 861 4056 
Q 1314 4727 2100 4727 
Q 2686 4727 3073 4384 
Q 3461 4041 3546 3491 
L 2991 3491 
Q 2914 3811 2691 4019 
Q 2468 4227 2100 4227 
Q 1559 4227 1249 3755 
Q 939 3284 936 2427 
L 973 2427 
Q 1164 2716 1461 2880 
Q 1759 3045 2118 3045 
Q 2518 3045 2850 2846 
Q 3182 2648 3382 2299 
Q 3582 1950 3582 1500 
Q 3582 1068 3389 710 
Q 3196 352 2847 142 
Q 2498 -68 2027 -64 
z
M 2027 436 
Q 2314 436 2542 579 
Q 2771 723 2903 964 
Q 3036 1205 3036 1500 
Q 3036 1789 2908 2026 
Q 2780 2264 2556 2404 
Q 2332 2545 2046 2545 
Q 1757 2545 1525 2397 
Q 1293 2250 1157 2010 
Q 1021 1770 1018 1491 
Q 1018 1214 1149 973 
Q 1280 732 1508 584 
Q 1736 436 2027 436 
z
" id="Inter-Regular-36" transform="scale(0.015625)"/>
       </defs>
       <use xlink:href="#Inter-Regular-30"/>
       <use x="62.500015" xlink:href="#Inter-Regular-2e"/>
       <use x="90.056839" xlink:href="#Inter-Regular-30"/>
       <use x="152.556854" xlink:href="#Inter-Regular-36"/>
       <use x="214.914825" xlink:href="#Inter-Regular-25"/>
      </g>
     </g>
    </g>
    <g id="ytick_5">
     <g id="line2d_23">
      <path clip-path="url(#pc9acddf5ee)" d="M 68.575 133.919677 
L 738.175 133.919677 
" style="fill:none;stroke:#e5e5e5;stroke-linecap:square;stroke-width:0.8;"/>
     </g>
     <g id="line2d_24">
      <g>
       <use style="stroke:#000000;stroke-width:0.8;" x="68.575" xlink:href="#m28481ac252" y="133.919677"/>
      </g>
     </g>
     <g id="text_19">
      <!-- 0.08% -->
      <g transform="translate(32.028125 137.556396)scale(0.1 -0.1)">
       <defs>
        <path d="M 1973 -64 
Q 1505 -64 1147 103 
Q 789 270 589 564 
Q 389 859 391 1236 
Q 389 1532 507 1783 
Q 625 2034 830 2203 
Q 1036 2373 1291 2418 
L 1291 2445 
Q 957 2532 759 2821 
Q 561 3111 564 3482 
Q 561 3836 743 4115 
Q 925 4395 1244 4556 
Q 1564 4718 1973 4718 
Q 2377 4718 2695 4556 
Q 3014 4395 3197 4115 
Q 3380 3836 3382 3482 
Q 3380 3111 3181 2821 
Q 2982 2532 2655 2445 
L 2655 2418 
Q 2907 2373 3109 2203 
Q 3311 2034 3431 1783 
Q 3552 1532 3555 1236 
Q 3552 859 3351 564 
Q 3150 270 2794 103 
Q 2439 -64 1973 -64 
z
M 1973 436 
Q 2446 436 2722 662 
Q 2998 889 3000 1264 
Q 2998 1527 2864 1729 
Q 2730 1932 2499 2048 
Q 2268 2164 1973 2164 
Q 1675 2164 1442 2048 
Q 1209 1932 1076 1729 
Q 943 1527 946 1264 
Q 943 889 1218 662 
Q 1493 436 1973 436 
z
M 1973 2645 
Q 2348 2645 2591 2864 
Q 2834 3084 2836 3445 
Q 2834 3800 2596 4013 
Q 2359 4227 1973 4227 
Q 1582 4227 1344 4013 
Q 1107 3800 1109 3445 
Q 1107 3084 1349 2864 
Q 1591 2645 1973 2645 
z
" id="Inter-Regular-38" transform="scale(0.015625)"/>
       </defs>
       <use xlink:href="#Inter-Regular-30"/>
       <use x="62.500015" xlink:href="#Inter-Regular-2e"/>
       <use x="90.056839" xlink:href="#Inter-Regular-30"/>
       <use x="152.556854" xlink:href="#Inter-Regular-38"/>
       <use x="214.20459" xlink:href="#Inter-Regular-25"/>
      </g>
     </g>
    </g>
    <g id="ytick_6">
     <g id="line2d_25">
      <path clip-path="url(#pc9acddf5ee)" d="M 68.575 48.213346 
L 738.175 48.213346 
" style="fill:none;stroke:#e5e5e5;stroke-linecap:square;stroke-width:0.8;"/>
     </g>
     <g id="line2d_26">
      <g>
       <use style="stroke:#000000;stroke-width:0.8;" x="68.575" xlink:href="#m28481ac252" y="48.213346"/>
      </g>
     </g>
     <g id="text_20">
      <!-- 0.10% -->
      <g transform="translate(33.776563 51.850065)scale(0.1 -0.1)">
       <use xlink:href="#Inter-Regular-30"/>
       <use x="62.500015" xlink:href="#Inter-Regular-2e"/>
       <use x="90.056839" xlink:href="#Inter-Regular-31"/>
       <use x="134.232986" xlink:href="#Inter-Regular-30"/>
       <use x="196.733002" xlink:href="#Inter-Regular-25"/>
      </g>
     </g>
    </g>
    <g id="text_21">
     <!-- Percent of nation tested positive (seven day average) -->
     <g transform="translate(25.614063 382.124063)rotate(-90)scale(0.1 -0.1)">
      <defs>
       <path d="M 564 0 
L 564 4655 
L 2136 4655 
Q 2684 4655 3033 4458 
Q 3382 4261 3550 3927 
Q 3718 3593 3718 3182 
Q 3718 2770 3551 2434 
Q 3384 2098 3036 1899 
Q 2689 1700 2146 1700 
L 1127 1700 
L 1127 0 
L 564 0 
z
M 1127 2200 
L 2127 2200 
Q 2689 2200 2926 2482 
Q 3164 2764 3164 3182 
Q 3164 3602 2925 3878 
Q 2686 4155 2118 4155 
L 1127 4155 
L 1127 2200 
z
" id="Inter-Regular-50" transform="scale(0.015625)"/>
       <path d="M 2046 3491 
L 2046 3036 
L 1264 3036 
L 1264 0 
L 727 0 
L 727 3036 
L 164 3036 
L 164 3491 
L 727 3491 
L 727 3973 
Q 727 4273 868 4473 
Q 1009 4673 1234 4773 
Q 1459 4873 1709 4873 
Q 1907 4873 2032 4841 
Q 2157 4809 2218 4782 
L 2064 4318 
Q 2023 4332 1951 4352 
Q 1880 4373 1764 4373 
Q 1498 4373 1381 4239 
Q 1264 4105 1264 3845 
L 1264 3491 
L 2046 3491 
z
" id="Inter-Regular-66" transform="scale(0.015625)"/>
       <path d="M 491 0 
L 491 3491 
L 1027 3491 
L 1027 0 
L 491 0 
z
M 764 4073 
Q 607 4073 494 4179 
Q 382 4286 382 4436 
Q 382 4586 494 4693 
Q 607 4800 764 4800 
Q 921 4800 1033 4693 
Q 1146 4586 1146 4436 
Q 1146 4286 1033 4179 
Q 921 4073 764 4073 
z
" id="Inter-Regular-69" transform="scale(0.015625)"/>
       <path d="M 2964 2709 
L 2482 2573 
Q 2411 2755 2245 2914 
Q 2080 3073 1727 3073 
Q 1407 3073 1194 2926 
Q 982 2780 982 2555 
Q 982 2355 1127 2239 
Q 1273 2123 1582 2045 
L 2100 1918 
Q 3027 1691 3027 973 
Q 3027 673 2855 436 
Q 2684 200 2377 63 
Q 2071 -73 1664 -73 
Q 1130 -73 780 159 
Q 430 391 336 836 
L 846 964 
Q 989 400 1655 400 
Q 2030 400 2251 560 
Q 2473 720 2473 945 
Q 2473 1316 1955 1436 
L 1373 1573 
Q 893 1686 669 1926 
Q 446 2166 446 2527 
Q 446 2823 613 3050 
Q 780 3277 1069 3406 
Q 1359 3536 1727 3536 
Q 2246 3536 2542 3309 
Q 2839 3082 2964 2709 
z
" id="Inter-Regular-73" transform="scale(0.015625)"/>
       <path d="M 1809 -73 
Q 1373 -73 1039 148 
Q 705 370 516 776 
Q 327 1182 327 1736 
Q 327 2286 516 2690 
Q 705 3095 1041 3315 
Q 1377 3536 1818 3536 
Q 2159 3536 2358 3423 
Q 2557 3311 2662 3169 
Q 2768 3027 2827 2936 
L 2873 2936 
L 2873 4655 
L 3409 4655 
L 3409 0 
L 2891 0 
L 2891 536 
L 2827 536 
Q 2768 441 2659 296 
Q 2550 152 2348 39 
Q 2146 -73 1809 -73 
z
M 1882 409 
Q 2366 409 2624 780 
Q 2882 1152 2882 1745 
Q 2882 2332 2627 2693 
Q 2373 3055 1882 3055 
Q 1541 3055 1315 2881 
Q 1089 2707 976 2410 
Q 864 2114 864 1745 
Q 864 1373 978 1069 
Q 1093 766 1319 587 
Q 1546 409 1882 409 
z
" id="Inter-Regular-64" transform="scale(0.015625)"/>
       <path d="M 682 1964 
Q 682 2823 906 3544 
Q 1130 4266 1546 4873 
L 2018 4873 
Q 1800 4573 1623 4095 
Q 1446 3618 1341 3061 
Q 1236 2505 1236 1964 
Q 1236 1423 1341 866 
Q 1446 309 1623 -168 
Q 1800 -645 2018 -945 
L 1546 -945 
Q 1130 -339 906 383 
Q 682 1105 682 1964 
z
" id="Inter-Regular-28" transform="scale(0.015625)"/>
       <path d="M 1638 1940 
Q 1638 1081 1414 359 
Q 1191 -362 775 -969 
L 302 -969 
Q 520 -669 697 -191 
Q 875 286 979 842 
Q 1084 1399 1084 1940 
Q 1084 2481 979 3038 
Q 875 3595 697 4072 
Q 520 4549 302 4849 
L 775 4849 
Q 1191 4243 1414 3521 
Q 1638 2799 1638 1940 
z
" id="Inter-Regular-29" transform="scale(0.015625)"/>
      </defs>
      <use xlink:href="#Inter-Regular-50"/>
      <use x="63.494324" xlink:href="#Inter-Regular-65"/>
      <use x="121.732971" xlink:href="#Inter-Regular-72"/>
      <use x="160.085251" xlink:href="#Inter-Regular-63"/>
      <use x="215.909119" xlink:href="#Inter-Regular-65"/>
      <use x="274.147766" xlink:href="#Inter-Regular-6e"/>
      <use x="332.670502" xlink:href="#Inter-Regular-74"/>
      <use x="369.034149" xlink:href="#Inter-Regular-20"/>
      <use x="397.159149" xlink:href="#Inter-Regular-6f"/>
      <use x="456.818253" xlink:href="#Inter-Regular-66"/>
      <use x="492.897797" xlink:href="#Inter-Regular-20"/>
      <use x="521.022797" xlink:href="#Inter-Regular-6e"/>
      <use x="579.545532" xlink:href="#Inter-Regular-61"/>
      <use x="635.937592" xlink:href="#Inter-Regular-74"/>
      <use x="672.301239" xlink:href="#Inter-Regular-69"/>
      <use x="696.022827" xlink:href="#Inter-Regular-6f"/>
      <use x="755.681931" xlink:href="#Inter-Regular-6e"/>
      <use x="814.204666" xlink:href="#Inter-Regular-20"/>
      <use x="842.329666" xlink:href="#Inter-Regular-74"/>
      <use x="878.693314" xlink:href="#Inter-Regular-65"/>
      <use x="936.931961" xlink:href="#Inter-Regular-73"/>
      <use x="989.204697" xlink:href="#Inter-Regular-74"/>
      <use x="1025.568344" xlink:href="#Inter-Regular-65"/>
      <use x="1083.806992" xlink:href="#Inter-Regular-64"/>
      <use x="1145.880875" xlink:href="#Inter-Regular-20"/>
      <use x="1174.005875" xlink:href="#Inter-Regular-70"/>
      <use x="1234.94339" xlink:href="#Inter-Regular-6f"/>
      <use x="1294.602493" xlink:href="#Inter-Regular-73"/>
      <use x="1346.875229" xlink:href="#Inter-Regular-69"/>
      <use x="1370.596817" xlink:href="#Inter-Regular-74"/>
      <use x="1406.960464" xlink:href="#Inter-Regular-69"/>
      <use x="1430.682053" xlink:href="#Inter-Regular-76"/>
      <use x="1486.363876" xlink:href="#Inter-Regular-65"/>
      <use x="1544.602524" xlink:href="#Inter-Regular-20"/>
      <use x="1572.727524" xlink:href="#Inter-Regular-28"/>
      <use x="1608.949112" xlink:href="#Inter-Regular-73"/>
      <use x="1661.221848" xlink:href="#Inter-Regular-65"/>
      <use x="1719.460495" xlink:href="#Inter-Regular-76"/>
      <use x="1775.142319" xlink:href="#Inter-Regular-65"/>
      <use x="1833.380966" xlink:href="#Inter-Regular-6e"/>
      <use x="1891.903702" xlink:href="#Inter-Regular-20"/>
      <use x="1920.028702" xlink:href="#Inter-Regular-64"/>
      <use x="1982.102585" xlink:href="#Inter-Regular-61"/>
      <use x="2038.494644" xlink:href="#Inter-Regular-79"/>
      <use x="2094.176468" xlink:href="#Inter-Regular-20"/>
      <use x="2122.301468" xlink:href="#Inter-Regular-61"/>
      <use x="2178.693527" xlink:href="#Inter-Regular-76"/>
      <use x="2234.375351" xlink:href="#Inter-Regular-65"/>
      <use x="2292.613998" xlink:href="#Inter-Regular-72"/>
      <use x="2330.966278" xlink:href="#Inter-Regular-61"/>
      <use x="2387.358337" xlink:href="#Inter-Regular-67"/>
      <use x="2448.295853" xlink:href="#Inter-Regular-65"/>
      <use x="2506.5345" xlink:href="#Inter-Regular-29"/>
     </g>
    </g>
   </g>
   <g id="line2d_27">
    <path clip-path="url(#pc9acddf5ee)" d="M 19.347925 476.729773 
L 44.755447 476.742825 
L 68.575 476.686269 
L 79.690791 476.349106 
L 82.866732 476.065238 
L 90.806582 474.327221 
L 93.982523 473.376642 
L 98.746433 471.462431 
L 101.922374 469.802723 
L 105.098314 466.745424 
L 106.686284 465.278225 
L 109.862224 461.742374 
L 114.626135 457.311411 
L 117.802075 453.36879 
L 120.978016 450.235357 
L 122.565986 449.141212 
L 124.153956 448.44296 
L 127.329896 446.661439 
L 128.917866 446.483069 
L 130.505837 446.488508 
L 132.093807 447.037756 
L 133.681777 447.374918 
L 135.269747 447.526097 
L 138.445688 449.669795 
L 140.033658 449.749191 
L 141.621628 449.435957 
L 143.209598 448.904111 
L 144.797568 447.765373 
L 146.385538 447.187847 
L 147.973509 446.920293 
L 149.561479 446.440652 
L 151.149449 445.801132 
L 154.325389 445.273636 
L 155.913359 446.0763 
L 157.50133 446.445003 
L 159.0893 446.063248 
L 160.67727 445.918595 
L 162.26524 446.003429 
L 165.44118 446.552677 
L 167.029151 447.24114 
L 168.617121 447.787125 
L 170.205091 449.079218 
L 171.793061 450.137472 
L 173.381031 451.729747 
L 174.969001 452.931567 
L 176.556972 454.527105 
L 178.144942 455.555993 
L 179.732912 456.240106 
L 181.320882 456.00518 
L 182.908852 456.242281 
L 184.496822 456.652314 
L 186.084793 457.73232 
L 187.672763 458.261991 
L 189.260733 458.289181 
L 190.848703 458.741631 
L 192.436673 459.657407 
L 194.024644 460.020672 
L 195.612614 460.610162 
L 197.200584 460.544905 
L 198.788554 460.914695 
L 201.964494 461.846785 
L 203.552465 462.757123 
L 205.140435 463.992659 
L 208.316375 465.54578 
L 209.904345 466.003668 
L 213.080286 466.561617 
L 216.256226 466.742162 
L 222.608107 468.288757 
L 227.372017 469.312207 
L 232.135928 469.825563 
L 236.899838 469.725502 
L 238.487808 469.791847 
L 240.075778 469.974567 
L 241.663749 469.943026 
L 244.839689 470.248648 
L 259.131421 472.049746 
L 262.307361 472.343403 
L 267.071271 472.656638 
L 268.659242 472.517422 
L 273.423152 472.475005 
L 275.011122 472.347754 
L 278.187063 472.329264 
L 279.775033 472.533737 
L 295.654734 472.110652 
L 305.182555 471.530951 
L 308.358496 471.153547 
L 311.534436 471.252521 
L 313.122406 471.255783 
L 316.298347 470.959951 
L 317.886317 470.993667 
L 319.474287 470.860977 
L 322.650227 470.446594 
L 324.238198 470.397651 
L 325.826168 469.951727 
L 327.414138 469.634142 
L 329.002108 469.465561 
L 330.590078 469.420969 
L 332.178048 469.232811 
L 335.353989 469.255651 
L 338.529929 469.798373 
L 340.117899 469.825563 
L 341.705869 469.610215 
L 344.88181 469.56671 
L 346.46978 469.385077 
L 348.05775 469.391603 
L 352.821661 469.055529 
L 355.997601 468.288757 
L 357.585571 467.983136 
L 359.173541 467.842833 
L 360.761511 466.898779 
L 363.937452 463.830604 
L 367.113392 461.271435 
L 368.701362 460.095718 
L 370.289332 457.698604 
L 371.877303 456.534851 
L 373.465273 456.281435 
L 375.053243 455.811584 
L 376.641213 455.522277 
L 378.229183 455.499437 
L 379.817154 455.880104 
L 381.405124 456.495696 
L 382.993094 456.452192 
L 386.169034 454.571697 
L 387.757004 453.034891 
L 389.344975 450.895543 
L 390.932945 447.725131 
L 392.520915 445.769591 
L 397.284825 438.350937 
L 398.872796 436.431288 
L 402.048736 433.301119 
L 403.636706 429.076804 
L 405.224676 425.415876 
L 406.812646 420.379109 
L 408.400617 414.929047 
L 409.988587 408.901458 
L 413.164527 400.35603 
L 416.340467 388.362848 
L 417.928438 383.274963 
L 419.516408 378.963638 
L 421.104378 377.403992 
L 422.692348 376.914563 
L 424.280318 377.110334 
L 425.868288 374.764339 
L 429.044229 372.162752 
L 430.632199 372.188855 
L 432.220169 370.516096 
L 435.396109 365.728394 
L 438.57205 352.885781 
L 440.16002 347.400915 
L 441.74799 342.65128 
L 443.33596 338.779353 
L 444.923931 337.513364 
L 446.511901 336.086407 
L 448.099871 335.376191 
L 449.687841 336.297405 
L 451.275811 337.666718 
L 452.863781 337.258861 
L 454.451752 335.588277 
L 456.039722 334.68664 
L 457.627692 334.463678 
L 459.215662 328.841772 
L 460.803632 326.861217 
L 462.391602 326.360912 
L 463.979573 325.394018 
L 465.567543 324.11824 
L 467.155513 321.643905 
L 468.743483 316.648468 
L 470.331453 316.463572 
L 471.919423 314.127365 
L 473.507394 309.822566 
L 475.095364 308.647937 
L 476.683334 307.747388 
L 478.271304 308.376032 
L 479.859274 312.449168 
L 483.035215 321.68741 
L 486.211155 335.689426 
L 487.799125 343.265785 
L 489.387095 349.163946 
L 490.975065 353.711284 
L 492.563036 361.889097 
L 494.151006 368.748714 
L 495.738976 373.410252 
L 497.326946 376.924352 
L 498.914916 379.546603 
L 500.502887 381.081234 
L 503.678827 383.593636 
L 506.854767 384.654065 
L 508.442737 384.379985 
L 510.030708 383.721975 
L 511.618678 382.70505 
L 513.206648 380.572228 
L 514.794618 377.995657 
L 516.382588 374.562042 
L 517.970558 370.219176 
L 519.558529 363.679319 
L 521.146499 356.06163 
L 522.734469 349.653375 
L 524.322439 341.762694 
L 532.26229 276.268411 
L 533.85026 270.068979 
L 535.43823 258.308547 
L 537.0262 244.095533 
L 538.614171 231.263796 
L 540.202141 223.10121 
L 541.790111 224.081155 
L 543.378081 244.911248 
L 544.966051 228.633931 
L 546.554021 213.951065 
L 548.141992 216.735372 
L 549.729962 182.354625 
L 551.317932 154.870475 
L 552.905902 135.306372 
L 554.493872 118.398236 
L 556.081842 99.412747 
L 557.669813 91.723276 
L 559.257783 60.100733 
L 560.845753 75.846203 
L 562.433723 88.441927 
L 564.021693 88.284222 
L 565.609664 72.929207 
L 567.197634 93.285098 
L 570.373574 130.004226 
L 571.961544 144.527212 
L 573.549514 155.581779 
L 575.137485 164.616636 
L 576.725455 170.659451 
L 578.313425 179.127658 
L 579.901395 186.355978 
L 581.489365 198.623241 
L 583.077335 208.095321 
L 586.253276 228.934114 
L 587.841246 239.685235 
L 589.429216 248.146916 
L 591.017186 259.83774 
L 592.605156 274.644595 
L 594.193127 287.191376 
L 595.781097 296.45137 
L 598.957037 311.819436 
L 600.545007 317.124845 
L 602.132977 319.02818 
L 605.308918 334.015579 
L 610.072828 352.754179 
L 611.660798 357.557108 
L 613.248769 361.443173 
L 614.836739 368.259285 
L 619.600649 385.56549 
L 621.18862 389.275361 
L 622.77659 392.368551 
L 624.36456 395.199625 
L 627.5405 398.244961 
L 629.12847 400.217903 
L 630.716441 401.655736 
L 632.304411 403.484025 
L 635.480351 405.204639 
L 640.244262 413.930612 
L 643.420202 421.008841 
L 646.596142 427.13214 
L 648.184112 431.438026 
L 649.772083 434.112483 
L 651.360053 436.499808 
L 652.948023 438.483627 
L 654.535993 439.694147 
L 660.887874 441.462617 
L 664.063814 441.674703 
L 665.651784 441.612708 
L 667.239754 441.883526 
L 668.827725 441.82697 
L 670.415695 441.966185 
L 672.003665 442.477366 
L 675.179605 442.821054 
L 676.767575 443.337673 
L 678.355546 443.429033 
L 679.943516 442.412109 
L 681.531486 442.74057 
L 683.119456 443.185407 
L 684.707426 442.905888 
L 686.295397 442.993985 
L 689.471337 444.023961 
L 691.059307 444.491638 
L 692.647277 446.612496 
L 694.235247 448.139514 
L 695.823218 450.299527 
L 698.999158 453.633081 
L 700.587128 454.659794 
L 702.175098 457.018841 
L 703.763068 458.101023 
L 705.351039 458.479515 
L 706.939009 459.013536 
L 708.526979 459.3681 
L 710.114949 459.107071 
L 711.702919 459.179942 
L 713.290889 459.07553 
L 714.87886 458.850393 
L 722.81871 461.9773 
L 724.406681 461.668416 
L 727.582621 461.768477 
L 727.582621 461.768477 
" style="fill:none;stroke:#5694ca;stroke-linecap:square;stroke-width:2;"/>
   </g>
   <g id="line2d_28">
    <path clip-path="url(#pc9acddf5ee)" d="M 74.926881 476.292405 
L 76.514851 476.292405 
L 78.102821 476.066108 
L 82.866732 475.990676 
L 84.454702 475.742826 
L 86.042672 475.67817 
L 87.630642 475.387216 
L 89.218612 475.225576 
L 90.806582 475.257904 
L 93.982523 474.999278 
L 95.570493 474.934622 
L 97.158463 474.61134 
L 98.746433 474.417371 
L 100.334403 474.094089 
L 101.922374 473.576838 
L 105.098314 471.443178 
L 106.686284 470.053067 
L 108.274254 468.04872 
L 109.862224 466.432311 
L 111.450195 464.621932 
L 114.626135 461.809381 
L 116.214105 459.546408 
L 117.802075 458.059312 
L 119.390045 457.121795 
L 120.978016 455.990308 
L 122.565986 455.667027 
L 124.153956 455.731683 
L 127.329896 454.470884 
L 128.917866 454.470884 
L 132.093807 454.923478 
L 133.681777 455.537714 
L 135.269747 455.117448 
L 136.857717 455.085119 
L 138.445688 456.184278 
L 140.033658 455.182104 
L 141.621628 453.921305 
L 143.209598 451.981614 
L 144.797568 451.399707 
L 146.385538 452.434209 
L 147.973509 452.24024 
L 149.561479 451.076425 
L 151.149449 452.272568 
L 152.737419 454.406228 
L 154.325389 456.733857 
L 155.913359 457.800687 
L 157.50133 457.703702 
L 159.0893 459.029157 
L 160.67727 460.871864 
L 162.26524 461.033505 
L 163.85321 459.643393 
L 165.44118 459.15847 
L 167.029151 457.962327 
L 168.617121 457.671374 
L 170.205091 457.574389 
L 171.793061 457.606717 
L 173.381031 457.962327 
L 174.969001 458.544235 
L 176.556972 459.352439 
L 178.144942 460.483925 
L 179.732912 460.2253 
L 181.320882 460.2253 
L 182.908852 459.643393 
L 184.496822 459.805034 
L 186.084793 460.58091 
L 187.672763 460.774879 
L 189.260733 461.227474 
L 190.848703 462.035678 
L 192.436673 462.423616 
L 194.024644 463.037852 
L 195.612614 463.07018 
L 197.200584 463.619759 
L 198.788554 464.686589 
L 200.376524 464.233994 
L 201.964494 464.427963 
L 203.552465 465.171512 
L 206.728405 467.951735 
L 208.316375 468.856924 
L 209.904345 469.27719 
L 211.492315 470.602646 
L 213.080286 470.731959 
L 214.668256 471.216881 
L 216.256226 471.443178 
L 217.844196 472.154398 
L 219.432166 472.703977 
L 221.020136 472.606993 
L 222.608107 472.768634 
L 224.196077 473.447526 
L 227.372017 474.061761 
L 228.959987 473.90012 
L 230.547957 473.932448 
L 232.135928 474.352715 
L 235.311868 474.191074 
L 236.899838 474.029433 
L 238.487808 474.029433 
L 240.075778 474.385043 
L 241.663749 474.482027 
L 243.251719 474.417371 
L 246.427659 474.740653 
L 248.015629 475.225576 
L 255.95548 475.742826 
L 259.131421 475.67817 
L 260.719391 475.872139 
L 270.247212 475.839811 
L 275.011122 475.613514 
L 276.599092 475.742826 
L 279.775033 475.516529 
L 281.363003 475.67817 
L 282.950973 475.613514 
L 284.538943 475.32256 
L 286.126913 474.869966 
L 289.302854 474.708325 
L 292.478794 474.740653 
L 294.066764 474.579012 
L 297.242705 475.031606 
L 298.830675 474.837637 
L 302.006615 474.999278 
L 303.594585 474.708325 
L 311.534436 474.482027 
L 314.710377 474.029433 
L 316.298347 473.90012 
L 317.886317 473.318213 
L 319.474287 473.091916 
L 321.062257 472.994931 
L 324.238198 471.928101 
L 325.826168 471.087568 
L 327.414138 470.408677 
L 329.002108 470.085395 
L 330.590078 468.986237 
L 332.178048 467.660781 
L 335.353989 467.984063 
L 336.941959 467.69311 
L 340.117899 467.466812 
L 344.88181 465.430137 
L 346.46978 464.395635 
L 348.05775 464.654261 
L 349.64572 463.943041 
L 351.23369 462.973195 
L 354.409631 462.585257 
L 355.997601 462.552929 
L 357.585571 463.102508 
L 359.173541 462.811554 
L 360.761511 462.811554 
L 362.349482 462.197319 
L 363.937452 461.29213 
L 367.113392 458.317937 
L 368.701362 456.151949 
L 370.289332 455.570042 
L 371.877303 455.860996 
L 373.465273 455.60237 
L 375.053243 456.475231 
L 376.641213 458.317937 
L 378.229183 457.800687 
L 379.817154 458.156296 
L 382.993094 454.988135 
L 384.581064 453.888977 
L 387.757004 447.940592 
L 389.344975 446.162542 
L 390.932945 445.095712 
L 392.520915 444.578461 
L 394.108885 442.541786 
L 395.696855 439.729234 
L 397.284825 436.043821 
L 398.872796 433.58688 
L 400.460766 430.127764 
L 402.048736 425.375522 
L 403.636706 420.170685 
L 405.224676 413.090814 
L 406.812646 399.383665 
L 408.400617 392.950357 
L 409.988587 378.273364 
L 413.164527 355.740622 
L 417.928438 316.364899 
L 419.516408 300.200809 
L 421.104378 295.610207 
L 422.692348 289.855791 
L 424.280318 282.808248 
L 425.868288 270.006289 
L 427.456259 260.857414 
L 429.044229 259.85524 
L 432.220169 251.482242 
L 433.808139 250.124458 
L 435.396109 251.417585 
L 436.98408 253.583573 
L 438.57205 254.262465 
L 440.16002 252.613728 
L 441.74799 253.615902 
L 443.33596 256.460781 
L 444.923931 259.758256 
L 446.511901 263.346684 
L 448.099871 268.163583 
L 449.687841 276.01933 
L 452.863781 300.103824 
L 454.451752 306.343163 
L 457.627692 320.696875 
L 459.215662 327.00087 
L 462.391602 337.66917 
L 463.979573 341.936489 
L 465.567543 348.49911 
L 467.155513 350.341816 
L 468.743483 351.667272 
L 470.331453 353.251352 
L 471.919423 351.828912 
L 473.507394 351.311662 
L 476.683334 352.05521 
L 478.271304 353.251352 
L 479.859274 354.835433 
L 481.447244 357.001421 
L 483.035215 361.074772 
L 484.623185 366.538234 
L 486.211155 373.068527 
L 487.799125 376.366001 
L 489.387095 380.47168 
L 490.975065 383.67217 
L 492.563036 390.267118 
L 494.151006 397.767256 
L 495.738976 398.478476 
L 497.326946 398.866414 
L 498.914916 400.159542 
L 500.502887 398.543133 
L 502.090857 399.12504 
L 503.678827 394.954705 
L 505.266797 393.047342 
L 506.854767 393.241311 
L 508.442737 388.10113 
L 510.030708 384.835984 
L 511.618678 383.122591 
L 513.206648 379.501835 
L 514.794618 380.665649 
L 516.382588 378.402676 
L 517.970558 377.012565 
L 519.558529 376.850924 
L 521.146499 374.038372 
L 522.734469 375.169858 
L 524.322439 374.167685 
L 525.910409 370.999523 
L 527.498379 368.865863 
L 529.08635 363.628698 
L 530.67432 360.331224 
L 532.26229 359.813973 
L 533.85026 355.805279 
L 535.43823 352.928071 
L 537.0262 347.949531 
L 540.202141 335.761807 
L 541.790111 335.050587 
L 543.378081 341.354582 
L 544.966051 333.822116 
L 546.554021 314.39288 
L 548.141992 292.862312 
L 549.729962 241.622147 
L 551.317932 195.716131 
L 552.905902 160.21979 
L 554.493872 130.89813 
L 556.081842 91.813361 
L 557.669813 74.291487 
L 559.257783 54.345 
L 562.433723 99.216514 
L 564.021693 114.895681 
L 565.609664 115.283619 
L 567.197634 145.28417 
L 570.373574 193.485487 
L 573.549514 224.843821 
L 575.137485 235.35048 
L 576.725455 247.926142 
L 578.313425 257.91555 
L 579.901395 266.644158 
L 581.489365 278.088334 
L 583.077335 286.396676 
L 584.665306 295.480895 
L 586.253276 300.653403 
L 587.841246 308.379839 
L 589.429216 315.524366 
L 591.017186 320.858516 
L 592.605156 330.007391 
L 594.193127 337.507529 
L 595.781097 342.777022 
L 597.369067 350.438801 
L 598.957037 353.12204 
L 600.545007 355.41734 
L 602.132977 357.19539 
L 603.720948 360.654506 
L 605.308918 366.538234 
L 606.896888 371.096508 
L 608.484858 374.943561 
L 610.072828 378.014738 
L 611.660798 380.82729 
L 613.248769 384.351062 
L 614.836739 389.135632 
L 616.424709 392.885701 
L 618.012679 396.959052 
L 619.600649 400.321182 
L 621.18862 405.170409 
L 622.77659 408.985135 
L 624.36456 410.051965 
L 625.95253 409.825667 
L 627.5405 410.375246 
L 629.12847 410.6662 
L 630.716441 411.151123 
L 632.304411 410.569216 
L 633.892381 409.211432 
L 635.480351 411.183451 
L 637.068321 414.965848 
L 640.244262 418.651261 
L 641.832232 419.588778 
L 643.420202 423.371175 
L 645.008172 425.828116 
L 648.184112 429.998452 
L 649.772083 431.356235 
L 651.360053 435.041648 
L 652.948023 437.563246 
L 654.535993 438.533091 
L 656.123963 438.921029 
L 659.299904 436.5934 
L 660.887874 437.369277 
L 662.475844 436.270119 
L 664.063814 435.591227 
L 665.651784 434.621381 
L 667.239754 434.880007 
L 670.415695 438.048169 
L 672.003665 438.468435 
L 673.591635 440.375797 
L 675.179605 440.763736 
L 676.767575 442.218504 
L 678.355546 442.735755 
L 681.531486 442.832739 
L 683.119456 443.737928 
L 684.707426 442.865067 
L 686.295397 442.832739 
L 687.883367 442.671098 
L 689.471337 442.735755 
L 691.059307 443.317662 
L 694.235247 445.806932 
L 695.823218 447.2617 
L 697.411188 449.912611 
L 698.999158 451.819973 
L 700.587128 453.985961 
L 702.175098 455.828668 
L 703.763068 458.317937 
L 706.939009 459.352439 
L 708.526979 458.317937 
L 710.114949 456.766185 
L 711.702919 455.537714 
L 714.87886 452.175583 
L 716.46683 451.916958 
L 718.0548 449.977267 
L 719.64277 450.397533 
L 721.23074 451.205738 
L 722.81871 451.270394 
L 724.406681 451.69066 
L 727.582621 449.944939 
L 727.582621 449.944939 
" style="fill:none;stroke:#ffdd00;stroke-linecap:square;stroke-width:2;"/>
   </g>
   <g id="line2d_29">
    <path clip-path="url(#pc9acddf5ee)" d="M 65.39906 476.666562 
L 68.575 476.666562 
L 74.926881 476.576918 
L 81.278761 476.274371 
L 84.454702 475.848563 
L 87.630642 474.974537 
L 90.806582 474.728017 
L 92.394553 474.671989 
L 95.570493 474.257387 
L 97.158463 474.134127 
L 98.746433 473.741936 
L 100.334403 473.215279 
L 101.922374 472.509335 
L 105.098314 469.797613 
L 106.686284 468.15041 
L 108.274254 466.200659 
L 109.862224 464.060416 
L 111.450195 462.502856 
L 113.038165 461.13579 
L 117.802075 454.927963 
L 119.390045 453.493664 
L 120.978016 452.31709 
L 122.565986 451.711995 
L 124.153956 451.398242 
L 125.741926 450.456983 
L 127.329896 450.333723 
L 132.093807 451.924899 
L 133.681777 452.754103 
L 135.269747 452.81013 
L 136.857717 453.314376 
L 140.033658 453.504869 
L 141.621628 452.126597 
L 143.209598 451.398242 
L 144.797568 450.51301 
L 146.385538 451.196544 
L 147.973509 446.523865 
L 149.561479 445.929976 
L 151.149449 445.829127 
L 152.737419 447.095344 
L 155.913359 448.989067 
L 157.50133 448.843396 
L 159.0893 452.720487 
L 160.67727 452.93339 
L 162.26524 451.924899 
L 163.85321 451.689584 
L 165.44118 450.98364 
L 167.029151 450.61386 
L 168.617121 450.423367 
L 171.793061 452.56361 
L 173.381031 453.953088 
L 174.969001 454.457333 
L 176.556972 455.734756 
L 179.732912 456.619988 
L 182.908852 458.043082 
L 184.496822 459.253272 
L 186.084793 460.127298 
L 187.672763 461.270255 
L 189.260733 462.099459 
L 190.848703 462.749376 
L 192.436673 464.116443 
L 194.024644 464.654305 
L 195.612614 465.517126 
L 197.200584 466.648878 
L 200.376524 467.915095 
L 203.552465 468.822737 
L 205.140435 469.999311 
L 209.904345 471.949062 
L 211.492315 472.061116 
L 213.080286 472.408486 
L 214.668256 473.069608 
L 217.844196 473.775552 
L 219.432166 473.999661 
L 221.020136 474.055689 
L 222.608107 474.257387 
L 224.196077 474.32462 
L 227.372017 474.750428 
L 232.135928 474.907304 
L 236.899838 474.907304 
L 238.487808 475.019359 
L 240.075778 474.974537 
L 243.251719 475.131413 
L 244.839689 475.321906 
L 249.603599 475.445166 
L 251.19157 475.725303 
L 252.77954 475.669276 
L 254.36751 475.859768 
L 276.599092 476.117494 
L 289.302854 475.770125 
L 290.890824 475.602043 
L 292.478794 475.646865 
L 295.654734 475.546015 
L 298.830675 475.489988 
L 302.006615 475.714097 
L 305.182555 475.680481 
L 308.358496 475.501194 
L 309.946466 475.389139 
L 313.122406 475.030564 
L 314.710377 474.481496 
L 321.062257 472.935142 
L 327.414138 472.789471 
L 329.002108 472.99117 
L 330.590078 473.058403 
L 332.178048 473.013581 
L 333.766019 473.092019 
L 336.941959 472.834293 
L 338.529929 472.666211 
L 340.117899 472.173171 
L 341.705869 471.254323 
L 344.88181 470.44753 
L 346.46978 470.066544 
L 348.05775 470.245831 
L 349.64572 470.313064 
L 351.23369 470.257037 
L 352.821661 470.750077 
L 354.409631 470.593201 
L 357.585571 469.719175 
L 359.173541 468.777916 
L 360.761511 467.354822 
L 363.937452 465.124935 
L 365.525422 464.396579 
L 370.289332 463.063129 
L 371.877303 464.138854 
L 375.053243 463.466526 
L 376.641213 462.951075 
L 378.229183 462.088254 
L 381.405124 461.606419 
L 382.993094 460.093682 
L 384.581064 459.45497 
L 386.169034 459.073984 
L 387.757004 458.468889 
L 389.344975 458.222369 
L 390.932945 456.631193 
L 395.696855 447.453919 
L 397.284825 442.400255 
L 398.872796 438.960178 
L 400.460766 436.70788 
L 402.048736 436.259661 
L 405.224676 432.517036 
L 406.812646 430.040629 
L 408.400617 429.357096 
L 409.988587 426.656579 
L 411.576557 423.687131 
L 413.164527 419.373028 
L 414.752497 414.050433 
L 416.340467 408.089126 
L 417.928438 402.945819 
L 419.516408 398.530866 
L 421.104378 395.426953 
L 422.692348 392.704025 
L 424.280318 390.283645 
L 425.868288 387.325403 
L 427.456259 384.736941 
L 429.044229 384.266311 
L 430.632199 382.888039 
L 432.220169 381.117576 
L 433.808139 382.036424 
L 435.396109 383.515545 
L 436.98408 383.549162 
L 438.57205 380.61333 
L 440.16002 377.397362 
L 441.74799 375.055421 
L 443.33596 374.674435 
L 444.923931 373.59871 
L 446.511901 372.343698 
L 448.099871 372.500575 
L 449.687841 376.691418 
L 451.275811 380.187523 
L 452.863781 384.703324 
L 454.451752 386.742719 
L 456.039722 389.140688 
L 457.627692 388.770908 
L 459.215662 387.280581 
L 460.803632 386.339322 
L 462.391602 385.947131 
L 463.979573 383.717244 
L 465.567543 383.280231 
L 467.155513 382.114862 
L 468.743483 383.190587 
L 470.331453 385.241187 
L 471.919423 386.406555 
L 473.507394 387.000444 
L 475.095364 388.143402 
L 476.683334 389.051044 
L 478.271304 388.266662 
L 479.859274 388.950195 
L 481.447244 389.140688 
L 483.035215 389.880248 
L 484.623185 391.370575 
L 487.799125 395.95361 
L 489.387095 397.679251 
L 492.563036 400.20048 
L 494.151006 402.800148 
L 497.326946 406.867731 
L 498.914916 408.279619 
L 500.502887 410.431068 
L 502.090857 412.145504 
L 503.678827 414.252131 
L 505.266797 414.935664 
L 506.854767 414.733966 
L 508.442737 414.70035 
L 510.030708 415.720047 
L 513.206648 413.658242 
L 514.794618 413.826324 
L 516.382588 412.548901 
L 517.970558 411.910189 
L 519.558529 410.823259 
L 521.146499 408.234797 
L 522.734469 408.021894 
L 524.322439 407.170278 
L 525.910409 405.590308 
L 527.498379 405.735979 
L 529.08635 405.254144 
L 530.67432 405.198117 
L 532.26229 404.637844 
L 533.85026 403.853461 
L 535.43823 402.699299 
L 537.0262 400.211686 
L 538.614171 396.861252 
L 540.202141 393.824572 
L 541.790111 392.591971 
L 543.378081 397.186211 
L 544.966051 393.813366 
L 546.554021 383.941353 
L 548.141992 378.305005 
L 549.729962 357.9895 
L 551.317932 339.48928 
L 552.905902 324.283466 
L 554.493872 317.033532 
L 556.081842 304.035194 
L 557.669813 298.230764 
L 559.257783 291.955705 
L 560.845753 292.941785 
L 562.433723 297.636875 
L 564.021693 299.620242 
L 565.609664 292.09017 
L 567.197634 300.158104 
L 568.785604 309.044036 
L 570.373574 312.226388 
L 571.961544 324.261055 
L 573.549514 333.718466 
L 575.137485 340.195224 
L 576.725455 343.399987 
L 578.313425 347.008146 
L 579.901395 349.607813 
L 581.489365 353.686602 
L 583.077335 358.471335 
L 584.665306 359.849607 
L 586.253276 364.130094 
L 587.841246 367.603787 
L 589.429216 370.281893 
L 591.017186 374.046929 
L 592.605156 378.697196 
L 594.193127 382.977683 
L 595.781097 388.289073 
L 597.369067 389.656139 
L 598.957037 392.793669 
L 600.545007 394.496899 
L 602.132977 395.034762 
L 603.720948 397.522374 
L 605.308918 398.923057 
L 606.896888 400.996068 
L 608.484858 403.450065 
L 610.072828 403.730201 
L 611.660798 404.503378 
L 613.248769 406.262636 
L 614.836739 407.46162 
L 616.424709 410.744821 
L 618.012679 411.697286 
L 619.600649 412.335997 
L 621.18862 412.750599 
L 622.77659 414.722761 
L 624.36456 414.442624 
L 625.95253 414.756377 
L 627.5405 413.075558 
L 629.12847 413.243639 
L 630.716441 412.862654 
L 632.304411 412.974708 
L 633.892381 411.641258 
L 635.480351 412.436846 
L 637.068321 414.397802 
L 638.656291 416.739744 
L 640.244262 418.174043 
L 641.832232 420.964204 
L 643.420202 425.110225 
L 645.008172 427.866769 
L 646.596142 429.950985 
L 648.184112 432.685118 
L 649.772083 434.690896 
L 651.360053 436.988016 
L 652.948023 437.783604 
L 654.535993 438.422316 
L 656.123963 437.705166 
L 657.711933 437.604317 
L 659.299904 437.133687 
L 662.475844 434.175445 
L 664.063814 432.998871 
L 665.651784 431.64301 
L 667.239754 431.799887 
L 668.827725 431.676627 
L 670.415695 430.533669 
L 672.003665 431.452517 
L 673.591635 431.732654 
L 675.179605 432.97646 
L 676.767575 433.435884 
L 678.355546 433.514323 
L 679.943516 433.301419 
L 681.531486 433.391062 
L 683.119456 433.021282 
L 684.707426 433.682405 
L 686.295397 433.469501 
L 689.471337 434.982238 
L 691.059307 436.181223 
L 692.647277 438.04133 
L 694.235247 440.405683 
L 698.999158 445.268854 
L 702.175098 447.666823 
L 703.763068 450.165641 
L 705.351039 450.591449 
L 706.939009 451.846461 
L 708.526979 453.325582 
L 710.114949 454.24443 
L 713.290889 455.320154 
L 714.87886 455.745962 
L 716.46683 456.810481 
L 718.0548 457.583658 
L 719.64277 458.513711 
L 721.23074 459.006752 
L 722.81871 459.264477 
L 724.406681 459.667874 
L 725.994651 459.600641 
L 727.582621 459.82475 
L 727.582621 459.82475 
" style="fill:none;stroke:#003078;stroke-linecap:square;stroke-width:2;"/>
   </g>
   <g id="line2d_30">
    <path clip-path="url(#pc9acddf5ee)" d="M 63.811089 476.609082 
L 68.575 476.711021 
L 79.690791 476.667333 
L 81.278761 476.609082 
L 84.454702 476.104246 
L 90.806582 474.143149 
L 92.394553 473.482978 
L 95.570493 472.589806 
L 97.158463 471.910218 
L 98.746433 471.036462 
L 100.334403 469.949121 
L 101.922374 469.094782 
L 105.098314 465.211423 
L 106.686284 462.221237 
L 109.862224 457.619456 
L 111.450195 455.833111 
L 113.038165 454.221517 
L 114.626135 450.14399 
L 117.802075 444.843205 
L 119.390045 441.755934 
L 120.978016 439.095833 
L 122.565986 436.862901 
L 124.153956 435.620227 
L 125.741926 434.843555 
L 127.329896 432.727124 
L 130.505837 430.513609 
L 132.093807 430.940779 
L 133.681777 431.620367 
L 135.269747 431.154364 
L 136.857717 433.290211 
L 138.445688 434.62997 
L 141.621628 435.65906 
L 143.209598 435.348391 
L 144.797568 435.348391 
L 146.385538 436.6299 
L 147.973509 436.474566 
L 149.561479 437.60074 
L 151.149449 439.697754 
L 152.737419 442.843275 
L 155.913359 447.153803 
L 157.50133 448.318811 
L 160.67727 452.493422 
L 162.26524 453.988515 
L 163.85321 454.007932 
L 165.44118 454.726354 
L 167.029151 453.891431 
L 168.617121 454.2021 
L 170.205091 454.842854 
L 171.793061 454.415685 
L 173.381031 454.512769 
L 174.969001 454.978772 
L 176.556972 456.163196 
L 178.144942 456.998119 
L 179.732912 456.959285 
L 181.320882 456.20203 
L 182.908852 456.68745 
L 184.496822 457.036952 
L 186.084793 457.891291 
L 187.672763 456.648616 
L 189.260733 456.066112 
L 190.848703 455.852528 
L 192.436673 456.046696 
L 194.024644 454.823438 
L 195.612614 454.571019 
L 197.200584 454.571019 
L 201.964494 456.939868 
L 203.552465 458.163126 
L 205.140435 460.318391 
L 206.728405 461.250397 
L 209.904345 462.434822 
L 211.492315 463.444495 
L 217.844196 466.337597 
L 219.432166 467.153103 
L 221.020136 468.143359 
L 224.196077 468.706447 
L 225.784047 468.512279 
L 228.959987 468.881198 
L 230.547957 468.764697 
L 235.311868 467.65794 
L 236.899838 467.813274 
L 238.487808 467.424938 
L 241.663749 467.560856 
L 243.251719 466.298764 
L 244.839689 466.74535 
L 246.427659 466.318181 
L 248.015629 466.318181 
L 249.603599 465.366758 
L 251.19157 465.891011 
L 252.77954 465.929845 
L 254.36751 468.279277 
L 255.95548 466.473515 
L 257.54345 467.405521 
L 259.131421 467.852108 
L 260.719391 469.71612 
L 262.307361 469.910288 
L 263.895331 470.531625 
L 265.483301 470.531625 
L 267.071271 473.075226 
L 268.659242 473.385894 
L 275.011122 474.026649 
L 276.599092 473.832481 
L 279.775033 473.813064 
L 282.950973 474.143149 
L 286.126913 474.007232 
L 287.714884 474.240233 
L 290.890824 474.25965 
L 292.478794 473.890731 
L 294.066764 473.152893 
L 298.830675 472.648056 
L 300.418645 472.395638 
L 302.006615 471.910218 
L 303.594585 472.298554 
L 305.182555 472.958725 
L 308.358496 472.939308 
L 309.946466 473.211143 
L 311.534436 473.366478 
L 313.122406 473.77423 
L 316.298347 473.851897 
L 322.650227 474.337317 
L 325.826168 474.512068 
L 329.002108 474.414985 
L 330.590078 474.512068 
L 333.766019 474.376151 
L 335.353989 474.181983 
L 336.941959 474.181983 
L 344.88181 473.211143 
L 346.46978 473.347061 
L 349.64572 472.783974 
L 351.23369 472.609222 
L 352.821661 472.240303 
L 357.585571 470.492792 
L 360.761511 470.20154 
L 362.349482 469.211283 
L 363.937452 467.755024 
L 365.525422 465.871594 
L 368.701362 462.590156 
L 370.289332 460.357224 
L 371.877303 458.68738 
L 375.053243 456.279697 
L 376.641213 456.357364 
L 378.229183 456.124363 
L 381.405124 454.862271 
L 382.993094 454.454518 
L 384.581064 453.503095 
L 386.169034 452.046836 
L 387.757004 450.085739 
L 389.344975 447.367388 
L 390.932945 445.65871 
L 392.520915 443.289861 
L 394.108885 439.11525 
L 395.696855 435.794978 
L 397.284825 434.727054 
L 398.872796 432.028119 
L 400.460766 429.639853 
L 402.048736 428.377762 
L 403.636706 426.183664 
L 405.224676 424.494403 
L 406.812646 420.164457 
L 408.400617 414.125834 
L 409.988587 409.931806 
L 411.576557 407.698874 
L 416.340467 390.631511 
L 417.928438 385.777312 
L 419.516408 381.893953 
L 421.104378 378.379513 
L 422.692348 376.418416 
L 424.280318 376.185415 
L 425.868288 374.651488 
L 427.456259 371.137048 
L 429.044229 370.107958 
L 430.632199 370.806962 
L 432.220169 367.506107 
L 435.396109 364.030501 
L 436.98408 357.642375 
L 438.57205 352.108588 
L 440.16002 345.079708 
L 441.74799 339.934257 
L 443.33596 335.177142 
L 444.923931 329.022018 
L 446.511901 324.672655 
L 448.099871 316.032181 
L 449.687841 311.352734 
L 451.275811 309.585805 
L 452.863781 299.353154 
L 454.451752 298.498815 
L 456.039722 301.333667 
L 457.627692 301.178333 
L 459.215662 304.013185 
L 460.803632 308.750883 
L 462.391602 313.8575 
L 463.979573 324.847407 
L 465.567543 331.91512 
L 467.155513 337.235322 
L 468.743483 342.128355 
L 470.331453 349.875656 
L 471.919423 355.137608 
L 475.095364 364.535337 
L 476.683334 364.88484 
L 478.271304 364.438253 
L 479.859274 365.758595 
L 481.447244 366.108098 
L 483.035215 364.613004 
L 484.623185 362.049987 
L 486.211155 359.176302 
L 487.799125 357.681208 
L 489.387095 356.671535 
L 490.975065 354.94344 
L 492.563036 354.205602 
L 494.151006 353.176512 
L 495.738976 346.380633 
L 497.326946 341.740019 
L 498.914916 339.817756 
L 500.502887 336.633402 
L 502.090857 331.79862 
L 503.678827 322.595058 
L 505.266797 312.537158 
L 506.854767 306.576202 
L 510.030708 281.140199 
L 513.206648 253.568349 
L 517.970558 194.444206 
L 519.558529 177.784595 
L 521.146499 156.154285 
L 522.734469 141.552854 
L 525.910409 101.457171 
L 527.498379 90.214846 
L 529.08635 81.496705 
L 530.67432 79.322024 
L 532.26229 84.661643 
L 533.85026 86.894574 
L 535.43823 97.107809 
L 537.0262 112.544162 
L 538.614171 121.786556 
L 540.202141 135.33948 
L 541.790111 160.639565 
L 543.378081 197.414976 
L 544.966051 202.793428 
L 546.554021 197.201391 
L 548.141992 204.735108 
L 549.729962 188.075497 
L 551.317932 183.104797 
L 554.493872 161.649238 
L 556.081842 157.88238 
L 557.669813 171.221718 
L 559.257783 165.357846 
L 560.845753 188.250248 
L 562.433723 202.016757 
L 564.021693 208.754385 
L 565.609664 201.278918 
L 567.197634 219.62779 
L 568.785604 231.879788 
L 570.373574 249.801491 
L 571.961544 265.004842 
L 573.549514 275.237493 
L 575.137485 282.072206 
L 576.725455 289.528255 
L 578.313425 292.188356 
L 581.489365 305.605362 
L 584.665306 325.255159 
L 586.253276 333.060711 
L 591.017186 358.9433 
L 592.605156 369.641954 
L 594.193127 376.45725 
L 597.369067 386.51515 
L 598.957037 389.893672 
L 600.545007 390.961596 
L 602.132977 389.718921 
L 603.720948 394.262452 
L 606.896888 399.155484 
L 608.484858 402.203921 
L 610.072828 404.08735 
L 611.660798 406.553283 
L 613.248769 409.970639 
L 614.836739 412.300655 
L 618.012679 417.504356 
L 619.600649 419.912039 
L 621.18862 421.737218 
L 622.77659 423.232311 
L 624.36456 423.135227 
L 625.95253 423.892482 
L 627.5405 424.319651 
L 629.12847 425.814745 
L 630.716441 426.474916 
L 632.304411 428.358345 
L 635.480351 428.960266 
L 637.068321 431.232031 
L 638.656291 434.222217 
L 643.420202 440.726844 
L 645.008172 443.212194 
L 646.596142 444.493702 
L 648.184112 446.280047 
L 651.360053 448.338228 
L 652.948023 448.843064 
L 654.535993 450.221657 
L 656.123963 449.639153 
L 657.711933 450.823578 
L 659.299904 450.551742 
L 660.887874 451.949752 
L 662.475844 452.085669 
L 664.063814 451.522582 
L 665.651784 450.066323 
L 667.239754 449.65857 
L 668.827725 449.425568 
L 670.415695 450.62941 
L 672.003665 450.279907 
L 673.591635 450.648826 
L 675.179605 450.823578 
L 676.767575 451.386665 
L 678.355546 452.124503 
L 679.943516 452.493422 
L 681.531486 452.454588 
L 683.119456 452.842924 
L 684.707426 452.707007 
L 687.883367 453.580763 
L 689.471337 454.842854 
L 691.059307 455.541859 
L 692.647277 456.998119 
L 694.235247 457.502955 
L 695.823218 459.095133 
L 697.411188 461.133896 
L 698.999158 462.861991 
L 702.175098 463.949332 
L 703.763068 464.939588 
L 705.351039 465.560926 
L 708.526979 465.696843 
L 710.114949 465.522092 
L 711.702919 465.65801 
L 713.290889 466.085179 
L 714.87886 465.405591 
L 716.46683 466.221097 
L 718.0548 466.725933 
L 719.64277 467.075436 
L 722.81871 467.560856 
L 724.406681 467.560856 
L 725.994651 468.20161 
L 725.994651 468.20161 
" style="fill:none;stroke:#d4351c;stroke-linecap:square;stroke-width:2;"/>
   </g>
   <g id="patch_3">
    <path d="M 68.575 476.745 
L 738.175 476.745 
" style="fill:none;stroke:#000000;stroke-linecap:square;stroke-linejoin:miter;stroke-width:0.8;"/>
   </g>
   <g id="text_22">
    <!-- Average COVID-19 cases in UK Nations, per capita -->
    <g transform="translate(255.384062 27.225)scale(0.12 -0.12)">
     <defs>
      <path d="M 1207 0 
L 152 0 
L 1759 4655 
L 3027 4655 
L 4632 0 
L 3577 0 
L 3232 1061 
L 1552 1061 
L 1207 0 
z
M 1802 1830 
L 2984 1830 
L 2411 3591 
L 2375 3591 
L 1802 1830 
z
" id="Inter-Bold-41" transform="scale(0.015625)"/>
      <path d="M 3641 3491 
L 2421 0 
L 1330 0 
L 109 3491 
L 1132 3491 
L 1857 993 
L 1893 993 
L 2616 3491 
L 3641 3491 
z
" id="Inter-Bold-76" transform="scale(0.015625)"/>
      <path d="M 1977 -68 
Q 1441 -68 1052 151 
Q 664 370 455 773 
Q 246 1177 246 1730 
Q 246 2268 455 2675 
Q 664 3082 1044 3309 
Q 1425 3536 1939 3536 
Q 2400 3536 2771 3340 
Q 3143 3145 3361 2751 
Q 3580 2357 3580 1764 
L 3580 1498 
L 1202 1498 
L 1202 1495 
Q 1202 1105 1416 880 
Q 1630 655 1993 655 
Q 2236 655 2413 757 
Q 2591 859 2664 1059 
L 3559 1000 
Q 3457 514 3041 223 
Q 2625 -68 1977 -68 
z
M 1202 2098 
L 2668 2098 
Q 2666 2409 2468 2611 
Q 2271 2814 1955 2814 
Q 1632 2814 1425 2604 
Q 1218 2395 1202 2098 
z
" id="Inter-Bold-65" transform="scale(0.015625)"/>
      <path d="M 386 0 
L 386 3491 
L 1325 3491 
L 1325 2882 
L 1361 2882 
Q 1457 3207 1681 3374 
Q 1905 3541 2200 3541 
Q 2341 3541 2461 3507 
Q 2582 3473 2677 3414 
L 2386 2614 
Q 2318 2648 2237 2671 
Q 2157 2695 2057 2695 
Q 1764 2695 1560 2495 
Q 1357 2295 1355 1975 
L 1355 0 
L 386 0 
z
" id="Inter-Bold-72" transform="scale(0.015625)"/>
      <path d="M 1382 -66 
Q 882 -66 552 195 
Q 223 457 223 975 
Q 223 1366 407 1588 
Q 591 1811 890 1914 
Q 1189 2018 1534 2050 
Q 1989 2095 2184 2145 
Q 2380 2195 2380 2364 
L 2380 2377 
Q 2380 2593 2244 2711 
Q 2109 2830 1861 2830 
Q 1600 2830 1445 2716 
Q 1291 2602 1241 2427 
L 346 2500 
Q 446 2977 842 3256 
Q 1239 3536 1866 3536 
Q 2255 3536 2593 3413 
Q 2932 3291 3140 3030 
Q 3348 2770 3348 2355 
L 3348 0 
L 2430 0 
L 2430 484 
L 2402 484 
Q 2275 241 2021 87 
Q 1768 -66 1382 -66 
z
M 1659 602 
Q 1977 602 2181 787 
Q 2386 973 2386 1248 
L 2386 1618 
Q 2330 1580 2210 1550 
Q 2091 1520 1956 1498 
Q 1821 1477 1714 1461 
Q 1459 1425 1303 1318 
Q 1148 1211 1148 1007 
Q 1148 807 1292 704 
Q 1436 602 1659 602 
z
" id="Inter-Bold-61" transform="scale(0.015625)"/>
      <path d="M 1959 -1359 
Q 1255 -1359 852 -1082 
Q 450 -805 364 -409 
L 1259 -289 
Q 1318 -430 1489 -547 
Q 1661 -664 1982 -664 
Q 2298 -664 2503 -514 
Q 2709 -364 2709 -20 
L 2709 618 
L 2668 618 
Q 2573 402 2332 226 
Q 2091 50 1673 50 
Q 1280 50 958 234 
Q 636 418 446 795 
Q 257 1173 257 1752 
Q 257 2348 451 2743 
Q 646 3139 967 3337 
Q 1289 3536 1671 3536 
Q 1964 3536 2161 3437 
Q 2359 3339 2482 3193 
Q 2605 3048 2668 2905 
L 2705 2905 
L 2705 3491 
L 3666 3491 
L 3666 -34 
Q 3666 -468 3446 -763 
Q 3227 -1059 2843 -1209 
Q 2459 -1359 1959 -1359 
z
M 1980 777 
Q 2330 777 2522 1036 
Q 2714 1295 2714 1757 
Q 2714 2216 2523 2491 
Q 2332 2766 1980 2766 
Q 1621 2766 1433 2484 
Q 1246 2202 1246 1757 
Q 1246 1305 1434 1041 
Q 1623 777 1980 777 
z
" id="Inter-Bold-67" transform="scale(0.015625)"/>
      <path id="Inter-Bold-20" transform="scale(0.015625)"/>
      <path d="M 4511 3025 
L 3516 3025 
Q 3459 3409 3188 3628 
Q 2918 3848 2514 3848 
Q 1973 3848 1647 3451 
Q 1321 3055 1321 2327 
Q 1321 1582 1649 1194 
Q 1977 807 2507 807 
Q 2900 807 3173 1012 
Q 3446 1218 3516 1591 
L 4511 1586 
Q 4459 1159 4207 782 
Q 3955 405 3522 170 
Q 3089 -64 2491 -64 
Q 1868 -64 1378 218 
Q 889 500 606 1034 
Q 323 1568 323 2327 
Q 323 3089 609 3623 
Q 896 4157 1386 4437 
Q 1877 4718 2491 4718 
Q 3030 4718 3463 4519 
Q 3896 4320 4172 3942 
Q 4448 3564 4511 3025 
z
" id="Inter-Bold-43" transform="scale(0.015625)"/>
      <path d="M 4682 2327 
Q 4682 1566 4394 1032 
Q 4107 498 3614 217 
Q 3121 -64 2502 -64 
Q 1882 -64 1389 218 
Q 896 500 609 1035 
Q 323 1570 323 2327 
Q 323 3089 609 3623 
Q 896 4157 1389 4437 
Q 1882 4718 2502 4718 
Q 3121 4718 3614 4437 
Q 4107 4157 4394 3623 
Q 4682 3089 4682 2327 
z
M 3684 2327 
Q 3684 3068 3361 3458 
Q 3039 3848 2502 3848 
Q 1966 3848 1643 3458 
Q 1321 3068 1321 2327 
Q 1321 1589 1643 1198 
Q 1966 807 2502 807 
Q 3039 807 3361 1198 
Q 3684 1589 3684 2327 
z
" id="Inter-Bold-4f" transform="scale(0.015625)"/>
      <path d="M 1246 4655 
L 2371 1118 
L 2414 1118 
L 3541 4655 
L 4632 4655 
L 3027 0 
L 1759 0 
L 152 4655 
L 1246 4655 
z
" id="Inter-Bold-56" transform="scale(0.015625)"/>
      <path d="M 1389 4655 
L 1389 0 
L 405 0 
L 405 4655 
L 1389 4655 
z
" id="Inter-Bold-49" transform="scale(0.015625)"/>
      <path d="M 2055 0 
L 405 0 
L 405 4655 
L 2068 4655 
Q 2771 4655 3278 4376 
Q 3786 4098 4059 3577 
Q 4332 3057 4332 2332 
Q 4332 1605 4058 1082 
Q 3784 559 3274 279 
Q 2764 0 2055 0 
z
M 1389 843 
L 2014 843 
Q 2671 843 3010 1197 
Q 3350 1552 3350 2332 
Q 3350 3107 3010 3459 
Q 2671 3811 2016 3811 
L 1389 3811 
L 1389 843 
z
" id="Inter-Bold-44" transform="scale(0.015625)"/>
      <path d="M 2561 2295 
L 2561 1527 
L 439 1527 
L 439 2295 
L 2561 2295 
z
" id="Inter-Bold-2d" transform="scale(0.015625)"/>
      <path d="M 2305 4655 
L 2305 0 
L 1323 0 
L 1323 3450 
L 1280 3450 
Q 1205 3334 961 3219 
Q 718 3105 332 3105 
L 332 3886 
Q 632 3886 857 4019 
Q 1082 4152 1209 4333 
Q 1336 4514 1341 4655 
L 2305 4655 
z
" id="Inter-Bold-31" transform="scale(0.015625)"/>
      <path d="M 2061 4732 
Q 2421 4732 2753 4612 
Q 3086 4493 3348 4227 
Q 3611 3961 3766 3523 
Q 3921 3086 3921 2448 
Q 3921 1659 3686 1096 
Q 3452 534 3028 235 
Q 2605 -64 2027 -64 
Q 1561 -64 1204 117 
Q 848 298 631 610 
Q 414 923 368 1314 
L 1339 1314 
Q 1396 1059 1577 919 
Q 1759 780 2027 780 
Q 2482 780 2718 1176 
Q 2955 1573 2957 2264 
L 2925 2264 
Q 2771 1957 2453 1782 
Q 2136 1607 1752 1607 
Q 1341 1607 1016 1801 
Q 691 1995 506 2334 
Q 321 2673 323 3109 
Q 321 3582 539 3949 
Q 757 4316 1149 4525 
Q 1541 4734 2061 4732 
z
M 2068 3959 
Q 1725 3959 1500 3722 
Q 1275 3486 1277 3136 
Q 1275 2791 1496 2555 
Q 1718 2320 2059 2320 
Q 2284 2320 2465 2431 
Q 2646 2543 2751 2729 
Q 2857 2916 2859 3141 
Q 2857 3366 2753 3551 
Q 2650 3736 2473 3847 
Q 2296 3959 2068 3959 
z
" id="Inter-Bold-39" transform="scale(0.015625)"/>
      <path d="M 1964 -68 
Q 1427 -68 1042 160 
Q 657 389 451 795 
Q 246 1202 246 1732 
Q 246 2268 453 2674 
Q 661 3080 1045 3308 
Q 1430 3536 1959 3536 
Q 2416 3536 2760 3370 
Q 3105 3205 3303 2905 
Q 3502 2605 3523 2200 
L 2609 2200 
Q 2571 2461 2406 2621 
Q 2241 2782 1975 2782 
Q 1639 2782 1434 2511 
Q 1230 2241 1230 1745 
Q 1230 1245 1433 971 
Q 1636 698 1975 698 
Q 2225 698 2395 849 
Q 2566 1000 2609 1280 
L 3523 1280 
Q 3500 880 3305 575 
Q 3111 270 2770 101 
Q 2430 -68 1964 -68 
z
" id="Inter-Bold-63" transform="scale(0.015625)"/>
      <path d="M 3291 2495 
L 2405 2441 
Q 2368 2609 2220 2729 
Q 2073 2850 1821 2850 
Q 1596 2850 1440 2755 
Q 1284 2661 1286 2505 
Q 1284 2380 1385 2293 
Q 1486 2207 1730 2155 
L 2361 2027 
Q 3368 1820 3371 1082 
Q 3371 739 3169 479 
Q 2968 220 2618 76 
Q 2268 -68 1816 -68 
Q 1123 -68 711 221 
Q 300 511 232 1011 
L 1184 1061 
Q 1230 848 1394 739 
Q 1559 630 1818 630 
Q 2073 630 2228 730 
Q 2384 830 2386 984 
Q 2380 1243 1939 1332 
L 1334 1452 
Q 321 1655 325 2450 
Q 323 2955 728 3245 
Q 1134 3536 1805 3536 
Q 2466 3536 2846 3256 
Q 3227 2977 3291 2495 
z
" id="Inter-Bold-73" transform="scale(0.015625)"/>
      <path d="M 386 0 
L 386 3491 
L 1355 3491 
L 1355 0 
L 386 0 
z
M 876 3941 
Q 662 3941 507 4085 
Q 353 4230 353 4432 
Q 353 4634 507 4777 
Q 662 4920 876 4920 
Q 1092 4920 1246 4777 
Q 1401 4634 1401 4432 
Q 1401 4230 1246 4085 
Q 1092 3941 876 3941 
z
" id="Inter-Bold-69" transform="scale(0.015625)"/>
      <path d="M 1355 2018 
L 1355 0 
L 386 0 
L 386 3491 
L 1309 3491 
L 1309 2875 
L 1350 2875 
Q 1468 3180 1739 3358 
Q 2011 3536 2400 3536 
Q 2946 3536 3275 3185 
Q 3605 2834 3605 2223 
L 3605 0 
L 2636 0 
L 2636 2050 
Q 2639 2370 2473 2551 
Q 2307 2732 2016 2732 
Q 1723 2732 1540 2544 
Q 1357 2357 1355 2018 
z
" id="Inter-Bold-6e" transform="scale(0.015625)"/>
      <path d="M 3286 4655 
L 4264 4655 
L 4264 1577 
Q 4264 1050 4016 683 
Q 3768 316 3333 125 
Q 2898 -66 2334 -66 
Q 1771 -66 1334 125 
Q 898 316 651 683 
Q 405 1050 405 1577 
L 405 4655 
L 1389 4655 
L 1389 1611 
Q 1389 1239 1658 1025 
Q 1927 811 2334 811 
Q 2748 811 3017 1025 
Q 3286 1239 3286 1611 
L 3286 4655 
z
" id="Inter-Bold-55" transform="scale(0.015625)"/>
      <path d="M 405 0 
L 405 4655 
L 1389 4655 
L 1389 2602 
L 1450 2602 
L 3125 4655 
L 4305 4655 
L 2577 2570 
L 4325 0 
L 3148 0 
L 1873 1914 
L 1389 1323 
L 1389 0 
L 405 0 
z
" id="Inter-Bold-4b" transform="scale(0.015625)"/>
      <path d="M 4298 4655 
L 4298 0 
L 3448 0 
L 1423 2930 
L 1389 2930 
L 1389 0 
L 405 0 
L 405 4655 
L 1268 4655 
L 3277 1727 
L 3318 1727 
L 3318 4655 
L 4298 4655 
z
" id="Inter-Bold-4e" transform="scale(0.015625)"/>
      <path d="M 2243 3491 
L 2243 2764 
L 1586 2764 
L 1586 1073 
Q 1586 873 1677 802 
Q 1768 732 1914 732 
Q 1982 732 2050 744 
Q 2118 757 2155 764 
L 2307 43 
Q 2234 20 2102 -10 
Q 1971 -41 1782 -48 
Q 1255 -70 935 181 
Q 616 432 618 945 
L 618 2764 
L 141 2764 
L 141 3491 
L 618 3491 
L 618 4327 
L 1586 4327 
L 1586 3491 
L 2243 3491 
z
" id="Inter-Bold-74" transform="scale(0.015625)"/>
      <path d="M 1964 -68 
Q 1434 -68 1049 158 
Q 664 384 455 789 
Q 246 1195 246 1732 
Q 246 2273 455 2678 
Q 664 3084 1049 3310 
Q 1434 3536 1964 3536 
Q 2493 3536 2878 3310 
Q 3264 3084 3473 2678 
Q 3682 2273 3682 1732 
Q 3682 1195 3473 789 
Q 3264 384 2878 158 
Q 2493 -68 1964 -68 
z
M 1968 682 
Q 2327 682 2512 982 
Q 2698 1282 2698 1739 
Q 2698 2195 2512 2496 
Q 2327 2798 1968 2798 
Q 1602 2798 1416 2496 
Q 1230 2195 1230 1739 
Q 1230 1282 1416 982 
Q 1602 682 1968 682 
z
" id="Inter-Bold-6f" transform="scale(0.015625)"/>
      <path d="M 1439 636 
L 1414 386 
Q 1384 86 1301 -212 
Q 1218 -511 1128 -754 
Q 1039 -998 984 -1136 
L 357 -1136 
Q 391 -1002 450 -763 
Q 509 -525 561 -226 
Q 614 73 627 382 
L 639 636 
L 1439 636 
z
" id="Inter-Bold-2c" transform="scale(0.015625)"/>
      <path d="M 386 -1309 
L 386 3491 
L 1341 3491 
L 1341 2905 
L 1384 2905 
Q 1450 3048 1570 3193 
Q 1691 3339 1888 3437 
Q 2086 3536 2377 3536 
Q 2761 3536 3081 3337 
Q 3402 3139 3596 2740 
Q 3791 2341 3791 1741 
Q 3791 1157 3602 756 
Q 3414 355 3093 149 
Q 2773 -57 2375 -57 
Q 2093 -57 1896 36 
Q 1700 130 1576 272 
Q 1452 414 1384 559 
L 1355 559 
L 1355 -1309 
L 386 -1309 
z
M 1334 1745 
Q 1334 1280 1526 997 
Q 1718 714 2068 714 
Q 2425 714 2613 1001 
Q 2802 1289 2802 1745 
Q 2802 2200 2614 2483 
Q 2427 2766 2068 2766 
Q 1716 2766 1525 2490 
Q 1334 2214 1334 1745 
z
" id="Inter-Bold-70" transform="scale(0.015625)"/>
     </defs>
     <use xlink:href="#Inter-Bold-41"/>
     <use x="74.786942" xlink:href="#Inter-Bold-76"/>
     <use x="133.380707" xlink:href="#Inter-Bold-65"/>
     <use x="193.146347" xlink:href="#Inter-Bold-72"/>
     <use x="236.008575" xlink:href="#Inter-Bold-61"/>
     <use x="294.034149" xlink:href="#Inter-Bold-67"/>
     <use x="357.350922" xlink:href="#Inter-Bold-65"/>
     <use x="417.116562" xlink:href="#Inter-Bold-20"/>
     <use x="440.305481" xlink:href="#Inter-Bold-43"/>
     <use x="515.51857" xlink:href="#Inter-Bold-4f"/>
     <use x="593.714615" xlink:href="#Inter-Bold-56"/>
     <use x="668.501556" xlink:href="#Inter-Bold-49"/>
     <use x="696.555542" xlink:href="#Inter-Bold-44"/>
     <use x="769.282837" xlink:href="#Inter-Bold-2d"/>
     <use x="816.157852" xlink:href="#Inter-Bold-31"/>
     <use x="863.565536" xlink:href="#Inter-Bold-39"/>
     <use x="929.581177" xlink:href="#Inter-Bold-20"/>
     <use x="952.770096" xlink:href="#Inter-Bold-63"/>
     <use x="1011.505905" xlink:href="#Inter-Bold-61"/>
     <use x="1069.531479" xlink:href="#Inter-Bold-73"/>
     <use x="1125.710464" xlink:href="#Inter-Bold-65"/>
     <use x="1185.476105" xlink:href="#Inter-Bold-73"/>
     <use x="1241.65509" xlink:href="#Inter-Bold-20"/>
     <use x="1264.844009" xlink:href="#Inter-Bold-69"/>
     <use x="1292.045715" xlink:href="#Inter-Bold-6e"/>
     <use x="1354.22612" xlink:href="#Inter-Bold-20"/>
     <use x="1377.415039" xlink:href="#Inter-Bold-55"/>
     <use x="1450.355392" xlink:href="#Inter-Bold-4b"/>
     <use x="1519.318481" xlink:href="#Inter-Bold-20"/>
     <use x="1542.507401" xlink:href="#Inter-Bold-4e"/>
     <use x="1616.015945" xlink:href="#Inter-Bold-61"/>
     <use x="1674.041519" xlink:href="#Inter-Bold-74"/>
     <use x="1712.890961" xlink:href="#Inter-Bold-69"/>
     <use x="1740.092667" xlink:href="#Inter-Bold-6f"/>
     <use x="1801.456314" xlink:href="#Inter-Bold-6e"/>
     <use x="1863.636719" xlink:href="#Inter-Bold-73"/>
     <use x="1919.815704" xlink:href="#Inter-Bold-2c"/>
     <use x="1950.106903" xlink:href="#Inter-Bold-20"/>
     <use x="1973.295822" xlink:href="#Inter-Bold-70"/>
     <use x="2036.54158" xlink:href="#Inter-Bold-65"/>
     <use x="2096.30722" xlink:href="#Inter-Bold-72"/>
     <use x="2139.169449" xlink:href="#Inter-Bold-20"/>
     <use x="2162.358368" xlink:href="#Inter-Bold-63"/>
     <use x="2221.094177" xlink:href="#Inter-Bold-61"/>
     <use x="2279.119751" xlink:href="#Inter-Bold-70"/>
     <use x="2342.365509" xlink:href="#Inter-Bold-69"/>
     <use x="2369.567215" xlink:href="#Inter-Bold-74"/>
     <use x="2408.416656" xlink:href="#Inter-Bold-61"/>
    </g>
   </g>
   <g id="legend_1">
    <g id="patch_4">
     <path d="M 621.601562 98.614063 
L 731.175 98.614063 
Q 733.175 98.614063 733.175 96.614063 
L 733.175 40.225 
Q 733.175 38.225 731.175 38.225 
L 621.601562 38.225 
Q 619.601562 38.225 619.601562 40.225 
L 619.601562 96.614063 
Q 619.601562 98.614063 621.601562 98.614063 
z
" style="fill:#ffffff;opacity:0.8;stroke:#cccccc;stroke-linejoin:miter;"/>
    </g>
    <g id="line2d_31">
     <path d="M 623.601562 45.998438 
L 643.601562 45.998438 
" style="fill:none;stroke:#d4351c;stroke-linecap:square;stroke-width:2;"/>
    </g>
    <g id="line2d_32"/>
    <g id="text_23">
     <!-- Wales -->
     <g transform="translate(651.601562 49.498438)scale(0.1 -0.1)">
      <defs>
       <path d="M 1409 0 
L 136 4655 
L 709 4655 
L 1682 864 
L 1727 864 
L 2718 4655 
L 3355 4655 
L 4346 864 
L 4391 864 
L 5364 4655 
L 5936 4655 
L 4664 0 
L 4082 0 
L 3055 3709 
L 3018 3709 
L 1991 0 
L 1409 0 
z
" id="Inter-Regular-57" transform="scale(0.015625)"/>
      </defs>
      <use xlink:href="#Inter-Regular-57"/>
      <use x="94.886383" xlink:href="#Inter-Regular-61"/>
      <use x="151.278442" xlink:href="#Inter-Regular-6c"/>
      <use x="175.000031" xlink:href="#Inter-Regular-65"/>
      <use x="233.238678" xlink:href="#Inter-Regular-73"/>
     </g>
    </g>
    <g id="line2d_33">
     <path d="M 623.601562 60.317188 
L 643.601562 60.317188 
" style="fill:none;stroke:#003078;stroke-linecap:square;stroke-width:2;"/>
    </g>
    <g id="line2d_34"/>
    <g id="text_24">
     <!-- Scotland -->
     <g transform="translate(651.601562 63.817188)scale(0.1 -0.1)">
      <use xlink:href="#Inter-Regular-53"/>
      <use x="63.778427" xlink:href="#Inter-Regular-63"/>
      <use x="119.602295" xlink:href="#Inter-Regular-6f"/>
      <use x="179.261398" xlink:href="#Inter-Regular-74"/>
      <use x="215.625046" xlink:href="#Inter-Regular-6c"/>
      <use x="239.346634" xlink:href="#Inter-Regular-61"/>
      <use x="295.738693" xlink:href="#Inter-Regular-6e"/>
      <use x="354.261429" xlink:href="#Inter-Regular-64"/>
     </g>
    </g>
    <g id="line2d_35">
     <path d="M 623.601562 74.635938 
L 643.601562 74.635938 
" style="fill:none;stroke:#ffdd00;stroke-linecap:square;stroke-width:2;"/>
    </g>
    <g id="line2d_36"/>
    <g id="text_25">
     <!-- Northern Ireland -->
     <g transform="translate(651.601562 78.135938)scale(0.1 -0.1)">
      <defs>
       <path d="M 1027 2100 
L 1027 0 
L 491 0 
L 491 4655 
L 1027 4655 
L 1027 2945 
L 1073 2945 
Q 1196 3216 1442 3376 
Q 1689 3536 2100 3536 
Q 2636 3536 2963 3213 
Q 3291 2891 3291 2218 
L 3291 0 
L 2755 0 
L 2755 2182 
Q 2755 2598 2540 2826 
Q 2325 3055 1946 3055 
Q 1548 3055 1287 2806 
Q 1027 2557 1027 2100 
z
" id="Inter-Regular-68" transform="scale(0.015625)"/>
       <path d="M 1127 4655 
L 1127 0 
L 564 0 
L 564 4655 
L 1127 4655 
z
" id="Inter-Regular-49" transform="scale(0.015625)"/>
      </defs>
      <use xlink:href="#Inter-Regular-4e"/>
      <use x="75.284103" xlink:href="#Inter-Regular-6f"/>
      <use x="134.943207" xlink:href="#Inter-Regular-72"/>
      <use x="173.295486" xlink:href="#Inter-Regular-74"/>
      <use x="209.659134" xlink:href="#Inter-Regular-68"/>
      <use x="268.750061" xlink:href="#Inter-Regular-65"/>
      <use x="326.988708" xlink:href="#Inter-Regular-72"/>
      <use x="365.340988" xlink:href="#Inter-Regular-6e"/>
      <use x="423.863724" xlink:href="#Inter-Regular-20"/>
      <use x="451.988724" xlink:href="#Inter-Regular-49"/>
      <use x="478.40918" xlink:href="#Inter-Regular-72"/>
      <use x="516.761459" xlink:href="#Inter-Regular-65"/>
      <use x="575.000107" xlink:href="#Inter-Regular-6c"/>
      <use x="598.721695" xlink:href="#Inter-Regular-61"/>
      <use x="655.113754" xlink:href="#Inter-Regular-6e"/>
      <use x="713.63649" xlink:href="#Inter-Regular-64"/>
     </g>
    </g>
    <g id="line2d_37">
     <path d="M 623.601562 88.954688 
L 643.601562 88.954688 
" style="fill:none;stroke:#5694ca;stroke-linecap:square;stroke-width:2;"/>
    </g>
    <g id="line2d_38"/>
    <g id="text_26">
     <!-- England -->
     <g transform="translate(651.601562 92.454688)scale(0.1 -0.1)">
      <defs>
       <path d="M 564 0 
L 564 4655 
L 3373 4655 
L 3373 4155 
L 1127 4155 
L 1127 2582 
L 3227 2582 
L 3227 2082 
L 1127 2082 
L 1127 500 
L 3409 500 
L 3409 0 
L 564 0 
z
" id="Inter-Regular-45" transform="scale(0.015625)"/>
      </defs>
      <use xlink:href="#Inter-Regular-45"/>
      <use x="59.801147" xlink:href="#Inter-Regular-6e"/>
      <use x="118.323883" xlink:href="#Inter-Regular-67"/>
      <use x="179.261398" xlink:href="#Inter-Regular-6c"/>
      <use x="202.982986" xlink:href="#Inter-Regular-61"/>
      <use x="259.375046" xlink:href="#Inter-Regular-6e"/>
      <use x="317.897781" xlink:href="#Inter-Regular-64"/>
     </g>
    </g>
   </g>
  </g>
 </g>
 <defs>
  <clipPath id="pc9acddf5ee">
   <rect height="443.52" width="669.6" x="68.575" y="33.225"/>
  </clipPath>
 </defs>
</svg>
