<?xml version="1.0" encoding="utf-8" standalone="no"?>
<!DOCTYPE svg PUBLIC "-//W3C//DTD SVG 1.1//EN"
  "http://www.w3.org/Graphics/SVG/1.1/DTD/svg11.dtd">
<!-- Created with matplotlib (https://matplotlib.org/) -->
<svg version="1.1" viewBox="0 0 768.426373 511.27625" xmlns="http://www.w3.org/2000/svg" xmlns:xlink="http://www.w3.org/1999/xlink">
 <metadata>
  <rdf:RDF xmlns:cc="http://creativecommons.org/ns#" xmlns:dc="http://purl.org/dc/elements/1.1/" xmlns:rdf="http://www.w3.org/1999/02/22-rdf-syntax-ns#">
   <cc:Work>
    <dc:type rdf:resource="http://purl.org/dc/dcmitype/StillImage"/>
    <dc:date>2021-02-02T16:23:14.734649</dc:date>
    <dc:format>image/svg+xml</dc:format>
    <dc:creator>
     <cc:Agent>
      <dc:title>Matplotlib v3.3.4, https://matplotlib.org/</dc:title>
     </cc:Agent>
    </dc:creator>
   </cc:Work>
  </rdf:RDF>
 </metadata>
 <defs>
  <style type="text/css">*{stroke-linecap:butt;stroke-linejoin:round;}</style>
 </defs>
 <g id="figure_1">
  <g id="patch_1">
   <path d="M 0 511.27625 
L 768.426373 511.27625 
L 768.426373 0 
L 0 0 
z
" style="fill:#ffffff;"/>
  </g>
  <g id="axes_1">
   <g id="patch_2">
    <path d="M 68.460938 476.745 
L 738.060938 476.745 
L 738.060938 33.225 
L 68.460938 33.225 
z
" style="fill:#ffffff;"/>
   </g>
   <g id="matplotlib.axis_1">
    <g id="xtick_1">
     <g id="line2d_1">
      <defs>
       <path d="M 0 0 
L 0 3.5 
" id="m62ac10336b" style="stroke:#000000;stroke-width:0.8;"/>
      </defs>
      <g>
       <use style="stroke:#000000;stroke-width:0.8;" x="68.460938" xlink:href="#m62ac10336b" y="476.745"/>
      </g>
     </g>
     <g id="text_1">
      <!-- 01 Mar -->
      <g transform="translate(52.424219 491.018438)scale(0.1 -0.1)">
       <defs>
        <path d="M 31.25 -1 
Q 19.21875 -1 12.59375 8.765625 
Q 5.96875 18.53125 5.96875 36.359375 
Q 5.96875 54.046875 12.640625 63.875 
Q 19.3125 73.71875 31.25 73.71875 
Q 43.1875 73.71875 49.859375 63.875 
Q 56.53125 54.046875 56.53125 36.359375 
Q 56.53125 18.53125 49.90625 8.765625 
Q 43.296875 -1 31.25 -1 
z
M 31.25 6.8125 
Q 39.203125 6.8125 43.609375 14.484375 
Q 48.015625 22.15625 48.015625 36.359375 
Q 48.015625 50.53125 43.578125 58.28125 
Q 39.140625 66.046875 31.25 66.046875 
Q 23.375 66.046875 18.921875 58.28125 
Q 14.484375 50.53125 14.484375 36.359375 
Q 14.484375 22.15625 18.90625 14.484375 
Q 23.328125 6.8125 31.25 6.8125 
z
" id="Inter-Regular-48"/>
        <path d="M 30.828125 72.734375 
L 30.828125 0 
L 22.015625 0 
L 22.015625 59.9375 
L 21.453125 59.9375 
Q 20.953125 58.953125 18.890625 57.6875 
Q 16.828125 56.421875 13.5625 55.484375 
Q 10.296875 54.546875 6.109375 54.546875 
L 6.109375 61.9375 
Q 10.328125 61.9375 13.421875 63.453125 
Q 16.515625 64.984375 18.59375 67.046875 
Q 20.671875 69.109375 21.75 70.765625 
Q 22.828125 72.4375 23.015625 72.734375 
z
" id="Inter-Regular-49"/>
        <path id="Inter-Regular-32"/>
        <path d="M 8.8125 72.734375 
L 19.3125 72.734375 
L 44.03125 12.359375 
L 44.890625 12.359375 
L 69.609375 72.734375 
L 80.109375 72.734375 
L 80.109375 0 
L 71.875 0 
L 71.875 55.25 
L 71.171875 55.25 
L 48.4375 0 
L 40.484375 0 
L 17.75 55.25 
L 17.046875 55.25 
L 17.046875 0 
L 8.8125 0 
z
" id="Inter-Regular-77"/>
        <path d="M 23.71875 -1.28125 
Q 18.53125 -1.28125 14.3125 0.6875 
Q 10.09375 2.65625 7.59375 6.40625 
Q 5.109375 10.15625 5.109375 15.484375 
Q 5.109375 20.171875 6.953125 23.09375 
Q 8.8125 26.03125 11.890625 27.703125 
Q 14.984375 29.375 18.734375 30.203125 
Q 22.484375 31.03125 26.28125 31.53125 
Q 31.25 32.171875 34.359375 32.5 
Q 37.46875 32.84375 38.90625 33.65625 
Q 40.34375 34.484375 40.34375 36.5 
L 40.34375 36.796875 
Q 40.34375 42.046875 37.484375 44.953125 
Q 34.625 47.875 28.84375 47.875 
Q 22.828125 47.875 19.421875 45.234375 
Q 16.015625 42.609375 14.625 39.625 
L 6.671875 42.46875 
Q 8.8125 47.4375 12.375 50.21875 
Q 15.953125 53.015625 20.1875 54.125 
Q 24.4375 55.25 28.546875 55.25 
Q 31.1875 55.25 34.609375 54.625 
Q 38.03125 54.015625 41.25 52.09375 
Q 44.46875 50.171875 46.59375 46.296875 
Q 48.71875 42.4375 48.71875 35.9375 
L 48.71875 0 
L 40.34375 0 
L 40.34375 7.390625 
L 39.921875 7.390625 
Q 39.0625 5.609375 37.078125 3.578125 
Q 35.09375 1.5625 31.78125 0.140625 
Q 28.484375 -1.28125 23.71875 -1.28125 
z
M 25 6.25 
Q 29.96875 6.25 33.390625 8.203125 
Q 36.828125 10.15625 38.578125 13.234375 
Q 40.34375 16.328125 40.34375 19.75 
L 40.34375 27.421875 
Q 39.8125 26.78125 38.015625 26.265625 
Q 36.21875 25.75 33.890625 25.375 
Q 31.578125 25 29.390625 24.734375 
Q 27.203125 24.46875 25.859375 24.296875 
Q 22.59375 23.859375 19.765625 22.921875 
Q 16.9375 21.984375 15.21875 20.109375 
Q 13.5 18.25 13.5 15.0625 
Q 13.5 10.6875 16.75 8.46875 
Q 20 6.25 25 6.25 
z
" id="Inter-Regular-97"/>
        <path d="M 7.671875 0 
L 7.671875 54.546875 
L 15.765625 54.546875 
L 15.765625 46.3125 
L 16.34375 46.3125 
Q 17.796875 50.359375 21.703125 52.875 
Q 25.609375 55.390625 30.546875 55.390625 
Q 32.8125 55.390625 34.515625 54.859375 
Q 36.21875 54.328125 37.5 53.40625 
L 34.65625 46.3125 
Q 33.765625 46.765625 32.578125 47.03125 
Q 31.390625 47.296875 29.828125 47.296875 
Q 23.859375 47.296875 19.953125 43.65625 
Q 16.046875 40.015625 16.046875 34.515625 
L 16.046875 0 
z
" id="Inter-Regular-114"/>
       </defs>
       <use xlink:href="#Inter-Regular-48"/>
       <use x="62.500015" xlink:href="#Inter-Regular-49"/>
       <use x="106.676163" xlink:href="#Inter-Regular-32"/>
       <use x="134.801163" xlink:href="#Inter-Regular-77"/>
       <use x="225.99437" xlink:href="#Inter-Regular-97"/>
       <use x="282.386429" xlink:href="#Inter-Regular-114"/>
      </g>
     </g>
    </g>
    <g id="xtick_2">
     <g id="line2d_2">
      <g>
       <use style="stroke:#000000;stroke-width:0.8;" x="129.750455" xlink:href="#m62ac10336b" y="476.745"/>
      </g>
     </g>
     <g id="text_2">
      <!-- 01 Apr -->
      <g transform="translate(114.665299 491.116875)scale(0.1 -0.1)">
       <defs>
        <path d="M 11.796875 0 
L 2.5625 0 
L 29.265625 72.734375 
L 38.359375 72.734375 
L 65.0625 0 
L 55.828125 0 
L 48.515625 20.59375 
L 19.109375 20.59375 
z
M 21.875 28.40625 
L 45.734375 28.40625 
L 34.09375 61.21875 
L 33.53125 61.21875 
z
" id="Inter-Regular-65"/>
        <path d="M 7.671875 -20.453125 
L 7.671875 54.546875 
L 15.765625 54.546875 
L 15.765625 45.875 
L 16.765625 45.875 
Q 17.6875 47.296875 19.328125 49.515625 
Q 20.984375 51.734375 24.09375 53.484375 
Q 27.203125 55.25 32.53125 55.25 
Q 39.421875 55.25 44.671875 51.796875 
Q 49.9375 48.359375 52.875 42.03125 
Q 55.828125 35.71875 55.828125 27.125 
Q 55.828125 18.46875 52.875 12.125 
Q 49.9375 5.78125 44.703125 2.3125 
Q 39.484375 -1.140625 32.671875 -1.140625 
Q 27.421875 -1.140625 24.25 0.609375 
Q 21.09375 2.375 19.390625 4.625 
Q 17.6875 6.890625 16.765625 8.375 
L 16.046875 8.375 
L 16.046875 -20.453125 
z
M 15.90625 27.265625 
Q 15.90625 18 19.9375 12.1875 
Q 23.96875 6.390625 31.53125 6.390625 
Q 36.796875 6.390625 40.328125 9.171875 
Q 43.859375 11.96875 45.640625 16.703125 
Q 47.4375 21.453125 47.4375 27.265625 
Q 47.4375 33.03125 45.671875 37.65625 
Q 43.921875 42.296875 40.390625 45.015625 
Q 36.859375 47.734375 31.53125 47.734375 
Q 23.859375 47.734375 19.875 42.078125 
Q 15.90625 36.4375 15.90625 27.265625 
z
" id="Inter-Regular-112"/>
       </defs>
       <use xlink:href="#Inter-Regular-48"/>
       <use x="62.500015" xlink:href="#Inter-Regular-49"/>
       <use x="106.676163" xlink:href="#Inter-Regular-32"/>
       <use x="134.801163" xlink:href="#Inter-Regular-65"/>
       <use x="202.41481" xlink:href="#Inter-Regular-112"/>
       <use x="263.352325" xlink:href="#Inter-Regular-114"/>
      </g>
     </g>
    </g>
    <g id="xtick_3">
     <g id="line2d_3">
      <g>
       <use style="stroke:#000000;stroke-width:0.8;" x="189.062892" xlink:href="#m62ac10336b" y="476.745"/>
      </g>
     </g>
     <g id="text_3">
      <!-- 01 May -->
      <g transform="translate(172.159767 491.116875)scale(0.1 -0.1)">
       <defs>
        <path d="M 12.78125 -21.171875 
Q 10.65625 -21.171875 8.984375 -20.828125 
Q 7.3125 -20.484375 6.671875 -20.171875 
L 8.8125 -12.78125 
Q 13.390625 -13.953125 16.453125 -12.71875 
Q 19.53125 -11.5 21.734375 -5.390625 
L 23.578125 -0.28125 
L 3.40625 54.546875 
L 12.5 54.546875 
L 27.5625 11.078125 
L 28.125 11.078125 
L 43.1875 54.546875 
L 52.28125 54.546875 
L 28.84375 -8.8125 
Q 24.21875 -21.171875 12.78125 -21.171875 
z
" id="Inter-Regular-121"/>
       </defs>
       <use xlink:href="#Inter-Regular-48"/>
       <use x="62.500015" xlink:href="#Inter-Regular-49"/>
       <use x="106.676163" xlink:href="#Inter-Regular-32"/>
       <use x="134.801163" xlink:href="#Inter-Regular-77"/>
       <use x="225.99437" xlink:href="#Inter-Regular-97"/>
       <use x="282.386429" xlink:href="#Inter-Regular-121"/>
      </g>
     </g>
    </g>
    <g id="xtick_4">
     <g id="line2d_4">
      <g>
       <use style="stroke:#000000;stroke-width:0.8;" x="250.35241" xlink:href="#m62ac10336b" y="476.745"/>
      </g>
     </g>
     <g id="text_4">
      <!-- 01 Jun -->
      <g transform="translate(235.068035 491.018438)scale(0.1 -0.1)">
       <defs>
        <path d="M 36.65625 72.734375 
L 45.453125 72.734375 
L 45.453125 20.734375 
Q 45.453125 10.265625 39.828125 4.625 
Q 34.203125 -1 24.71875 -1 
Q 18.75 -1 14.09375 1.1875 
Q 9.453125 3.375 6.78125 7.421875 
Q 4.125 11.46875 4.125 17.046875 
L 12.78125 17.046875 
Q 12.78125 12.421875 16.15625 9.609375 
Q 19.53125 6.8125 24.71875 6.8125 
Q 30.4375 6.8125 33.546875 10.375 
Q 36.65625 13.953125 36.65625 20.734375 
z
" id="Inter-Regular-74"/>
        <path d="M 42.046875 22.296875 
L 42.046875 54.546875 
L 50.421875 54.546875 
L 50.421875 0 
L 42.046875 0 
L 42.046875 9.234375 
L 41.484375 9.234375 
Q 39.5625 5.078125 35.515625 2.1875 
Q 31.46875 -0.703125 25.28125 -0.703125 
Q 17.609375 -0.703125 12.640625 4.375 
Q 7.671875 9.453125 7.671875 19.890625 
L 7.671875 54.546875 
L 16.046875 54.546875 
L 16.046875 20.453125 
Q 16.046875 14.484375 19.40625 10.9375 
Q 22.765625 7.390625 27.984375 7.390625 
Q 31.109375 7.390625 34.359375 8.984375 
Q 37.609375 10.578125 39.828125 13.875 
Q 42.046875 17.1875 42.046875 22.296875 
z
" id="Inter-Regular-117"/>
        <path d="M 16.046875 32.8125 
L 16.046875 0 
L 7.671875 0 
L 7.671875 54.546875 
L 15.765625 54.546875 
L 15.765625 46.015625 
L 16.484375 46.015625 
Q 18.390625 50.171875 22.296875 52.703125 
Q 26.203125 55.25 32.390625 55.25 
Q 40.65625 55.25 45.75 50.171875 
Q 50.859375 45.09375 50.859375 34.65625 
L 50.859375 0 
L 42.46875 0 
L 42.46875 34.09375 
Q 42.46875 40.515625 39.125 44.125 
Q 35.796875 47.734375 29.96875 47.734375 
Q 23.96875 47.734375 20 43.84375 
Q 16.046875 39.953125 16.046875 32.8125 
z
" id="Inter-Regular-110"/>
       </defs>
       <use xlink:href="#Inter-Regular-48"/>
       <use x="62.500015" xlink:href="#Inter-Regular-49"/>
       <use x="106.676163" xlink:href="#Inter-Regular-32"/>
       <use x="134.801163" xlink:href="#Inter-Regular-74"/>
       <use x="189.062531" xlink:href="#Inter-Regular-117"/>
       <use x="247.159134" xlink:href="#Inter-Regular-110"/>
      </g>
     </g>
    </g>
    <g id="xtick_5">
     <g id="line2d_5">
      <g>
       <use style="stroke:#000000;stroke-width:0.8;" x="309.664847" xlink:href="#m62ac10336b" y="476.745"/>
      </g>
     </g>
     <g id="text_5">
      <!-- 01 Jul -->
      <g transform="translate(296.121097 491.018438)scale(0.1 -0.1)">
       <defs>
        <path d="M 16.046875 72.734375 
L 16.046875 0 
L 7.671875 0 
L 7.671875 72.734375 
z
" id="Inter-Regular-108"/>
       </defs>
       <use xlink:href="#Inter-Regular-48"/>
       <use x="62.500015" xlink:href="#Inter-Regular-49"/>
       <use x="106.676163" xlink:href="#Inter-Regular-32"/>
       <use x="134.801163" xlink:href="#Inter-Regular-74"/>
       <use x="189.062531" xlink:href="#Inter-Regular-117"/>
       <use x="247.159134" xlink:href="#Inter-Regular-108"/>
      </g>
     </g>
    </g>
    <g id="xtick_6">
     <g id="line2d_6">
      <g>
       <use style="stroke:#000000;stroke-width:0.8;" x="370.954365" xlink:href="#m62ac10336b" y="476.745"/>
      </g>
     </g>
     <g id="text_6">
      <!-- 01 Aug -->
      <g transform="translate(354.88249 491.116875)scale(0.1 -0.1)">
       <defs>
        <path d="M 29.6875 -21.59375 
Q 20.5625 -21.59375 15.25 -18.265625 
Q 9.9375 -14.953125 7.390625 -10.65625 
L 14.0625 -5.96875 
Q 15.203125 -7.453125 16.9375 -9.390625 
Q 18.6875 -11.328125 21.71875 -12.765625 
Q 24.75 -14.203125 29.6875 -14.203125 
Q 36.296875 -14.203125 40.59375 -11 
Q 44.890625 -7.8125 44.890625 -1 
L 44.890625 10.078125 
L 44.171875 10.078125 
Q 43.25 8.59375 41.5625 6.40625 
Q 39.875 4.21875 36.734375 2.53125 
Q 33.59375 0.859375 28.265625 0.859375 
Q 21.65625 0.859375 16.421875 3.984375 
Q 11.1875 7.109375 8.140625 13.0625 
Q 5.109375 19.03125 5.109375 27.5625 
Q 5.109375 35.9375 8.0625 42.171875 
Q 11.015625 48.40625 16.265625 51.828125 
Q 21.515625 55.25 28.40625 55.25 
Q 33.734375 55.25 36.875 53.484375 
Q 40.015625 51.734375 41.703125 49.515625 
Q 43.390625 47.296875 44.3125 45.875 
L 45.171875 45.875 
L 45.171875 54.546875 
L 53.265625 54.546875 
L 53.265625 -1.5625 
Q 53.265625 -8.59375 50.078125 -13.015625 
Q 46.90625 -17.4375 41.5625 -19.515625 
Q 36.21875 -21.59375 29.6875 -21.59375 
z
M 29.40625 8.375 
Q 36.96875 8.375 41 13.5 
Q 45.03125 18.640625 45.03125 27.703125 
Q 45.03125 36.546875 41.046875 42.140625 
Q 37.078125 47.734375 29.40625 47.734375 
Q 24.078125 47.734375 20.546875 45.03125 
Q 17.015625 42.328125 15.25 37.78125 
Q 13.5 33.234375 13.5 27.703125 
Q 13.5 19.171875 17.5 13.765625 
Q 21.515625 8.375 29.40625 8.375 
z
" id="Inter-Regular-103"/>
       </defs>
       <use xlink:href="#Inter-Regular-48"/>
       <use x="62.500015" xlink:href="#Inter-Regular-49"/>
       <use x="106.676163" xlink:href="#Inter-Regular-32"/>
       <use x="134.801163" xlink:href="#Inter-Regular-65"/>
       <use x="202.41481" xlink:href="#Inter-Regular-117"/>
       <use x="260.511414" xlink:href="#Inter-Regular-103"/>
      </g>
     </g>
    </g>
    <g id="xtick_7">
     <g id="line2d_7">
      <g>
       <use style="stroke:#000000;stroke-width:0.8;" x="432.243883" xlink:href="#m62ac10336b" y="476.745"/>
      </g>
     </g>
     <g id="text_7">
      <!-- 01 Sep -->
      <g transform="translate(416.356383 491.116875)scale(0.1 -0.1)">
       <defs>
        <path d="M 48.578125 54.546875 
Q 47.9375 59.9375 43.390625 62.921875 
Q 38.84375 65.90625 32.25 65.90625 
Q 25 65.90625 20.59375 62.484375 
Q 16.1875 59.0625 16.1875 53.828125 
Q 16.1875 49.921875 18.578125 47.53125 
Q 20.984375 45.140625 24.265625 43.796875 
Q 27.5625 42.46875 30.25 41.765625 
L 37.640625 39.765625 
Q 40.484375 39.03125 43.984375 37.71875 
Q 47.484375 36.40625 50.6875 34.140625 
Q 53.90625 31.890625 56 28.375 
Q 58.09375 24.859375 58.09375 19.75 
Q 58.09375 13.84375 55.015625 9.078125 
Q 51.953125 4.328125 46.078125 1.515625 
Q 40.203125 -1.28125 31.8125 -1.28125 
Q 20.09375 -1.28125 13.203125 4.25 
Q 6.328125 9.796875 5.6875 18.75 
L 14.78125 18.75 
Q 15.125 14.625 17.5625 11.9375 
Q 20 9.265625 23.734375 7.96875 
Q 27.484375 6.671875 31.8125 6.671875 
Q 36.859375 6.671875 40.875 8.328125 
Q 44.890625 9.984375 47.234375 12.9375 
Q 49.578125 15.90625 49.578125 19.890625 
Q 49.578125 23.515625 47.546875 25.78125 
Q 45.53125 28.046875 42.21875 29.46875 
Q 38.921875 30.890625 35.09375 31.953125 
L 26.140625 34.515625 
Q 17.609375 36.96875 12.640625 41.515625 
Q 7.671875 46.0625 7.671875 53.40625 
Q 7.671875 59.515625 10.984375 64.078125 
Q 14.3125 68.640625 19.9375 71.171875 
Q 25.5625 73.71875 32.53125 73.71875 
Q 39.5625 73.71875 45.03125 71.21875 
Q 50.5 68.71875 53.703125 64.375 
Q 56.921875 60.046875 57.109375 54.546875 
z
" id="Inter-Regular-83"/>
        <path d="M 30.546875 -1.140625 
Q 22.65625 -1.140625 16.953125 2.359375 
Q 11.265625 5.859375 8.1875 12.15625 
Q 5.109375 18.46875 5.109375 26.84375 
Q 5.109375 35.234375 8.1875 41.640625 
Q 11.265625 48.046875 16.78125 51.640625 
Q 22.296875 55.25 29.6875 55.25 
Q 33.953125 55.25 38.109375 53.828125 
Q 42.265625 52.421875 45.671875 49.234375 
Q 49.078125 46.0625 51.09375 40.84375 
Q 53.125 35.625 53.125 27.984375 
L 53.125 24.4375 
L 13.53125 24.4375 
Q 13.8125 15.703125 18.484375 11.046875 
Q 23.15625 6.390625 30.546875 6.390625 
Q 35.484375 6.390625 39.03125 8.515625 
Q 42.578125 10.65625 44.171875 14.921875 
L 52.28125 12.640625 
Q 50.359375 6.46875 44.59375 2.65625 
Q 38.84375 -1.140625 30.546875 -1.140625 
z
M 13.53125 31.671875 
L 44.609375 31.671875 
Q 44.609375 38.59375 40.546875 43.15625 
Q 36.5 47.734375 29.6875 47.734375 
Q 24.890625 47.734375 21.375 45.484375 
Q 17.859375 43.25 15.828125 39.578125 
Q 13.8125 35.90625 13.53125 31.671875 
z
" id="Inter-Regular-101"/>
       </defs>
       <use xlink:href="#Inter-Regular-48"/>
       <use x="62.500015" xlink:href="#Inter-Regular-49"/>
       <use x="106.676163" xlink:href="#Inter-Regular-32"/>
       <use x="134.801163" xlink:href="#Inter-Regular-83"/>
       <use x="198.57959" xlink:href="#Inter-Regular-101"/>
       <use x="256.818237" xlink:href="#Inter-Regular-112"/>
      </g>
     </g>
    </g>
    <g id="xtick_8">
     <g id="line2d_8">
      <g>
       <use style="stroke:#000000;stroke-width:0.8;" x="491.55632" xlink:href="#m62ac10336b" y="476.745"/>
      </g>
     </g>
     <g id="text_8">
      <!-- 01 Oct -->
      <g transform="translate(476.40007 491.018438)scale(0.1 -0.1)">
       <defs>
        <path d="M 70.171875 36.359375 
Q 70.171875 24.859375 66.015625 16.46875 
Q 61.859375 8.09375 54.609375 3.546875 
Q 47.375 -1 38.0625 -1 
Q 28.765625 -1 21.515625 3.546875 
Q 14.28125 8.09375 10.125 16.46875 
Q 5.96875 24.859375 5.96875 36.359375 
Q 5.96875 47.875 10.125 56.25 
Q 14.28125 64.625 21.515625 69.171875 
Q 28.765625 73.71875 38.0625 73.71875 
Q 47.375 73.71875 54.609375 69.171875 
Q 61.859375 64.625 66.015625 56.25 
Q 70.171875 47.875 70.171875 36.359375 
z
M 61.65625 36.359375 
Q 61.65625 45.8125 58.5 52.3125 
Q 55.359375 58.8125 50.015625 62.140625 
Q 44.671875 65.484375 38.0625 65.484375 
Q 31.46875 65.484375 26.125 62.140625 
Q 20.78125 58.8125 17.625 52.3125 
Q 14.484375 45.8125 14.484375 36.359375 
Q 14.484375 26.921875 17.625 20.421875 
Q 20.78125 13.921875 26.125 10.578125 
Q 31.46875 7.25 38.0625 7.25 
Q 44.671875 7.25 50.015625 10.578125 
Q 55.359375 13.921875 58.5 20.421875 
Q 61.65625 26.921875 61.65625 36.359375 
z
" id="Inter-Regular-79"/>
        <path d="M 29.828125 -1.140625 
Q 22.15625 -1.140625 16.609375 2.484375 
Q 11.078125 6.109375 8.09375 12.46875 
Q 5.109375 18.828125 5.109375 26.984375 
Q 5.109375 35.296875 8.1875 41.671875 
Q 11.265625 48.046875 16.78125 51.640625 
Q 22.296875 55.25 29.6875 55.25 
Q 35.4375 55.25 40.046875 53.125 
Q 44.671875 51 47.609375 47.15625 
Q 50.5625 43.328125 51.28125 38.203125 
L 42.90625 38.203125 
Q 41.9375 41.9375 38.65625 44.828125 
Q 35.375 47.734375 29.828125 47.734375 
Q 22.484375 47.734375 17.984375 42.140625 
Q 13.5 36.546875 13.5 27.265625 
Q 13.5 17.796875 17.9375 12.09375 
Q 22.375 6.390625 29.828125 6.390625 
Q 34.734375 6.390625 38.234375 8.90625 
Q 41.734375 11.4375 42.90625 15.90625 
L 51.28125 15.90625 
Q 50.5625 11.078125 47.78125 7.21875 
Q 45 3.375 40.4375 1.109375 
Q 35.875 -1.140625 29.828125 -1.140625 
z
" id="Inter-Regular-99"/>
        <path d="M 31.390625 54.546875 
L 31.390625 47.4375 
L 19.75 47.4375 
L 19.75 15.625 
Q 19.75 12.078125 20.796875 10.3125 
Q 21.84375 8.5625 23.484375 7.96875 
Q 25.140625 7.390625 26.984375 7.390625 
Q 28.375 7.390625 29.265625 7.546875 
Q 30.15625 7.703125 30.6875 7.8125 
L 32.390625 0.28125 
Q 31.53125 -0.03125 30 -0.359375 
Q 28.484375 -0.703125 26.140625 -0.703125 
Q 22.59375 -0.703125 19.1875 0.8125 
Q 15.796875 2.34375 13.578125 5.46875 
Q 11.359375 8.59375 11.359375 13.359375 
L 11.359375 47.4375 
L 3.125 47.4375 
L 3.125 54.546875 
L 11.359375 54.546875 
L 11.359375 67.609375 
L 19.75 67.609375 
L 19.75 54.546875 
z
" id="Inter-Regular-116"/>
       </defs>
       <use xlink:href="#Inter-Regular-48"/>
       <use x="62.500015" xlink:href="#Inter-Regular-49"/>
       <use x="106.676163" xlink:href="#Inter-Regular-32"/>
       <use x="134.801163" xlink:href="#Inter-Regular-79"/>
       <use x="210.937546" xlink:href="#Inter-Regular-99"/>
       <use x="266.761414" xlink:href="#Inter-Regular-116"/>
      </g>
     </g>
    </g>
    <g id="xtick_9">
     <g id="line2d_9">
      <g>
       <use style="stroke:#000000;stroke-width:0.8;" x="552.845837" xlink:href="#m62ac10336b" y="476.745"/>
      </g>
     </g>
     <g id="text_9">
      <!-- 01 Nov -->
      <g transform="translate(536.574744 491.018438)scale(0.1 -0.1)">
       <defs>
        <path d="M 66.484375 72.734375 
L 66.484375 0 
L 57.953125 0 
L 18.328125 57.109375 
L 17.609375 57.109375 
L 17.609375 0 
L 8.8125 0 
L 8.8125 72.734375 
L 17.328125 72.734375 
L 57.109375 15.484375 
L 57.8125 15.484375 
L 57.8125 72.734375 
z
" id="Inter-Regular-78"/>
        <path d="M 29.828125 -1.140625 
Q 22.4375 -1.140625 16.875 2.375 
Q 11.328125 5.890625 8.21875 12.203125 
Q 5.109375 18.53125 5.109375 26.984375 
Q 5.109375 35.515625 8.21875 41.859375 
Q 11.328125 48.21875 16.875 51.734375 
Q 22.4375 55.25 29.828125 55.25 
Q 37.21875 55.25 42.765625 51.734375 
Q 48.328125 48.21875 51.4375 41.859375 
Q 54.546875 35.515625 54.546875 26.984375 
Q 54.546875 18.53125 51.4375 12.203125 
Q 48.328125 5.890625 42.765625 2.375 
Q 37.21875 -1.140625 29.828125 -1.140625 
z
M 29.828125 6.390625 
Q 35.4375 6.390625 39.0625 9.265625 
Q 42.6875 12.140625 44.421875 16.828125 
Q 46.171875 21.515625 46.171875 26.984375 
Q 46.171875 32.453125 44.421875 37.171875 
Q 42.6875 41.90625 39.0625 44.8125 
Q 35.4375 47.734375 29.828125 47.734375 
Q 24.21875 47.734375 20.59375 44.8125 
Q 16.96875 41.90625 15.234375 37.171875 
Q 13.5 32.453125 13.5 26.984375 
Q 13.5 21.515625 15.234375 16.828125 
Q 16.96875 12.140625 20.59375 9.265625 
Q 24.21875 6.390625 29.828125 6.390625 
z
" id="Inter-Regular-111"/>
        <path d="M 52.28125 54.546875 
L 32.109375 0 
L 23.578125 0 
L 3.40625 54.546875 
L 12.5 54.546875 
L 27.5625 11.078125 
L 28.125 11.078125 
L 43.1875 54.546875 
z
" id="Inter-Regular-118"/>
       </defs>
       <use xlink:href="#Inter-Regular-48"/>
       <use x="62.500015" xlink:href="#Inter-Regular-49"/>
       <use x="106.676163" xlink:href="#Inter-Regular-32"/>
       <use x="134.801163" xlink:href="#Inter-Regular-78"/>
       <use x="210.085266" xlink:href="#Inter-Regular-111"/>
       <use x="269.74437" xlink:href="#Inter-Regular-118"/>
      </g>
     </g>
    </g>
    <g id="xtick_10">
     <g id="line2d_10">
      <g>
       <use style="stroke:#000000;stroke-width:0.8;" x="612.158274" xlink:href="#m62ac10336b" y="476.745"/>
      </g>
     </g>
     <g id="text_10">
      <!-- 01 Dec -->
      <g transform="translate(596.121555 491.018438)scale(0.1 -0.1)">
       <defs>
        <path d="M 31.25 0 
L 8.8125 0 
L 8.8125 72.734375 
L 32.25 72.734375 
Q 42.828125 72.734375 50.359375 68.375 
Q 57.890625 64.03125 61.890625 55.90625 
Q 65.90625 47.796875 65.90625 36.5 
Q 65.90625 25.140625 61.859375 16.953125 
Q 57.8125 8.765625 50.0625 4.375 
Q 42.328125 0 31.25 0 
z
M 17.609375 7.8125 
L 30.6875 7.8125 
Q 44.21875 7.8125 50.796875 15.5 
Q 57.390625 23.1875 57.390625 36.5 
Q 57.390625 49.71875 50.921875 57.3125 
Q 44.46875 64.921875 31.671875 64.921875 
L 17.609375 64.921875 
z
" id="Inter-Regular-68"/>
       </defs>
       <use xlink:href="#Inter-Regular-48"/>
       <use x="62.500015" xlink:href="#Inter-Regular-49"/>
       <use x="106.676163" xlink:href="#Inter-Regular-32"/>
       <use x="134.801163" xlink:href="#Inter-Regular-68"/>
       <use x="206.676178" xlink:href="#Inter-Regular-101"/>
       <use x="264.914825" xlink:href="#Inter-Regular-99"/>
      </g>
     </g>
    </g>
    <g id="xtick_11">
     <g id="line2d_11">
      <g>
       <use style="stroke:#000000;stroke-width:0.8;" x="673.447792" xlink:href="#m62ac10336b" y="476.745"/>
      </g>
     </g>
     <g id="text_11">
      <!-- 01 Jan -->
      <g transform="translate(658.248573 491.018438)scale(0.1 -0.1)">
       <use xlink:href="#Inter-Regular-48"/>
       <use x="62.500015" xlink:href="#Inter-Regular-49"/>
       <use x="106.676163" xlink:href="#Inter-Regular-32"/>
       <use x="134.801163" xlink:href="#Inter-Regular-74"/>
       <use x="189.062531" xlink:href="#Inter-Regular-97"/>
       <use x="245.45459" xlink:href="#Inter-Regular-110"/>
      </g>
     </g>
    </g>
    <g id="xtick_12">
     <g id="line2d_12">
      <g>
       <use style="stroke:#000000;stroke-width:0.8;" x="734.73731" xlink:href="#m62ac10336b" y="476.745"/>
      </g>
     </g>
     <g id="text_12">
      <!-- 01 Feb -->
      <g transform="translate(719.048248 491.018438)scale(0.1 -0.1)">
       <defs>
        <path d="M 8.8125 0 
L 8.8125 72.734375 
L 52.421875 72.734375 
L 52.421875 64.921875 
L 17.609375 64.921875 
L 17.609375 40.34375 
L 49.15625 40.34375 
L 49.15625 32.53125 
L 17.609375 32.53125 
L 17.609375 0 
z
" id="Inter-Regular-70"/>
        <path d="M 8.8125 0 
L 8.8125 72.734375 
L 17.1875 72.734375 
L 17.1875 45.875 
L 17.90625 45.875 
Q 18.828125 47.296875 20.46875 49.515625 
Q 22.125 51.734375 25.234375 53.484375 
Q 28.34375 55.25 33.671875 55.25 
Q 40.5625 55.25 45.8125 51.796875 
Q 51.0625 48.359375 54.015625 42.03125 
Q 56.96875 35.71875 56.96875 27.125 
Q 56.96875 18.46875 54.015625 12.125 
Q 51.0625 5.78125 45.84375 2.3125 
Q 40.625 -1.140625 33.8125 -1.140625 
Q 28.546875 -1.140625 25.390625 0.609375 
Q 22.234375 2.375 20.53125 4.625 
Q 18.828125 6.890625 17.90625 8.375 
L 16.90625 8.375 
L 16.90625 0 
z
M 17.046875 27.265625 
Q 17.046875 18 21.078125 12.1875 
Q 25.109375 6.390625 32.671875 6.390625 
Q 37.921875 6.390625 41.453125 9.171875 
Q 45 11.96875 46.78125 16.703125 
Q 48.578125 21.453125 48.578125 27.265625 
Q 48.578125 33.03125 46.8125 37.65625 
Q 45.0625 42.296875 41.53125 45.015625 
Q 38 47.734375 32.671875 47.734375 
Q 25 47.734375 21.015625 42.078125 
Q 17.046875 36.4375 17.046875 27.265625 
z
" id="Inter-Regular-98"/>
       </defs>
       <use xlink:href="#Inter-Regular-48"/>
       <use x="62.500015" xlink:href="#Inter-Regular-49"/>
       <use x="106.676163" xlink:href="#Inter-Regular-32"/>
       <use x="134.801163" xlink:href="#Inter-Regular-70"/>
       <use x="193.465942" xlink:href="#Inter-Regular-101"/>
       <use x="251.70459" xlink:href="#Inter-Regular-98"/>
      </g>
     </g>
    </g>
   </g>
   <g id="matplotlib.axis_2">
    <g id="ytick_1">
     <g id="line2d_13">
      <path clip-path="url(#p9b20b11df6)" d="M 68.460938 476.745 
L 738.060938 476.745 
" style="fill:none;stroke:#e5e5e5;stroke-linecap:square;stroke-width:0.8;"/>
     </g>
     <g id="line2d_14">
      <defs>
       <path d="M 0 0 
L -3.5 0 
" id="m09f95d131c" style="stroke:#000000;stroke-width:0.8;"/>
      </defs>
      <g>
       <use style="stroke:#000000;stroke-width:0.8;" x="68.460938" xlink:href="#m09f95d131c" y="476.745"/>
      </g>
     </g>
     <g id="text_13">
      <!-- 0.00% -->
      <g transform="translate(31.829688 480.381719)scale(0.1 -0.1)">
       <defs>
        <path d="M 13.78125 -0.5625 
Q 11.15625 -0.5625 9.265625 1.3125 
Q 7.390625 3.203125 7.390625 5.828125 
Q 7.390625 8.453125 9.265625 10.328125 
Q 11.15625 12.21875 13.78125 12.21875 
Q 16.40625 12.21875 18.28125 10.328125 
Q 20.171875 8.453125 20.171875 5.828125 
Q 20.171875 3.203125 18.28125 1.3125 
Q 16.40625 -0.5625 13.78125 -0.5625 
z
" id="Inter-Regular-46"/>
        <path d="M 44.609375 13.640625 
L 44.609375 17.46875 
Q 44.609375 21.453125 46.25 24.765625 
Q 47.90625 28.09375 51.078125 30.09375 
Q 54.265625 32.109375 58.8125 32.109375 
Q 63.421875 32.109375 66.546875 30.09375 
Q 69.671875 28.09375 71.265625 24.765625 
Q 72.875 21.453125 72.875 17.46875 
L 72.875 13.640625 
Q 72.875 9.65625 71.25 6.328125 
Q 69.640625 3.015625 66.5 1 
Q 63.359375 -1 58.8125 -1 
Q 54.1875 -1 51.03125 1 
Q 47.875 3.015625 46.234375 6.328125 
Q 44.609375 9.65625 44.609375 13.640625 
z
M 8.375 55.25 
L 8.375 59.09375 
Q 8.375 63.0625 10.03125 66.375 
Q 11.6875 69.703125 14.859375 71.703125 
Q 18.046875 73.71875 22.59375 73.71875 
Q 27.203125 73.71875 30.328125 71.703125 
Q 33.453125 69.703125 35.046875 66.375 
Q 36.65625 63.0625 36.65625 59.09375 
L 36.65625 55.25 
Q 36.65625 51.28125 35.03125 47.953125 
Q 33.421875 44.640625 30.265625 42.625 
Q 27.125 40.625 22.59375 40.625 
Q 17.96875 40.625 14.8125 42.625 
Q 11.65625 44.640625 10.015625 47.953125 
Q 8.375 51.28125 8.375 55.25 
z
M 11.078125 0 
L 61.078125 72.734375 
L 69.171875 72.734375 
L 19.171875 0 
z
M 51.84375 17.46875 
L 51.84375 13.640625 
Q 51.84375 10.328125 53.40625 7.71875 
Q 54.96875 5.109375 58.8125 5.109375 
Q 62.53125 5.109375 64.078125 7.71875 
Q 65.625 10.328125 65.625 13.640625 
L 65.625 17.46875 
Q 65.625 20.78125 64.125 23.390625 
Q 62.640625 26 58.8125 26 
Q 55.078125 26 53.453125 23.390625 
Q 51.84375 20.78125 51.84375 17.46875 
z
M 15.625 59.09375 
L 15.625 55.25 
Q 15.625 51.953125 17.1875 49.34375 
Q 18.75 46.734375 22.59375 46.734375 
Q 26.3125 46.734375 27.859375 49.34375 
Q 29.40625 51.953125 29.40625 55.25 
L 29.40625 59.09375 
Q 29.40625 62.390625 27.90625 65 
Q 26.421875 67.609375 22.59375 67.609375 
Q 18.859375 67.609375 17.234375 65 
Q 15.625 62.390625 15.625 59.09375 
z
" id="Inter-Regular-37"/>
       </defs>
       <use xlink:href="#Inter-Regular-48"/>
       <use x="62.500015" xlink:href="#Inter-Regular-46"/>
       <use x="90.056839" xlink:href="#Inter-Regular-48"/>
       <use x="152.556854" xlink:href="#Inter-Regular-48"/>
       <use x="215.05687" xlink:href="#Inter-Regular-37"/>
      </g>
     </g>
    </g>
    <g id="ytick_2">
     <g id="line2d_15">
      <path clip-path="url(#p9b20b11df6)" d="M 68.460938 411.177905 
L 738.060938 411.177905 
" style="fill:none;stroke:#e5e5e5;stroke-linecap:square;stroke-width:0.8;"/>
     </g>
     <g id="line2d_16">
      <g>
       <use style="stroke:#000000;stroke-width:0.8;" x="68.460938" xlink:href="#m09f95d131c" y="411.177905"/>
      </g>
     </g>
     <g id="text_14">
      <!-- 0.02% -->
      <g transform="translate(32.028125 414.814623)scale(0.1 -0.1)">
       <defs>
        <path d="M 7.53125 0 
L 7.53125 6.390625 
L 31.53125 32.671875 
Q 35.765625 37.28125 38.5 40.703125 
Q 41.234375 44.140625 42.5625 47.171875 
Q 43.890625 50.21875 43.890625 53.546875 
Q 43.890625 59.296875 39.890625 62.671875 
Q 35.90625 66.046875 29.96875 66.046875 
Q 23.65625 66.046875 19.921875 62.265625 
Q 16.1875 58.484375 16.1875 52.265625 
L 7.8125 52.265625 
Q 7.8125 58.671875 10.75 63.5 
Q 13.703125 68.328125 18.796875 71.015625 
Q 23.90625 73.71875 30.25 73.71875 
Q 36.65625 73.71875 41.578125 71.015625 
Q 46.515625 68.328125 49.3125 63.734375 
Q 52.125 59.15625 52.125 53.546875 
Q 52.125 49.53125 50.6875 45.71875 
Q 49.25 41.90625 45.71875 37.234375 
Q 42.1875 32.5625 35.9375 25.859375 
L 19.609375 8.375 
L 19.609375 7.8125 
L 53.40625 7.8125 
L 53.40625 0 
z
" id="Inter-Regular-50"/>
       </defs>
       <use xlink:href="#Inter-Regular-48"/>
       <use x="62.500015" xlink:href="#Inter-Regular-46"/>
       <use x="90.056839" xlink:href="#Inter-Regular-48"/>
       <use x="152.556854" xlink:href="#Inter-Regular-50"/>
       <use x="213.068237" xlink:href="#Inter-Regular-37"/>
      </g>
     </g>
    </g>
    <g id="ytick_3">
     <g id="line2d_17">
      <path clip-path="url(#p9b20b11df6)" d="M 68.460938 345.610809 
L 738.060938 345.610809 
" style="fill:none;stroke:#e5e5e5;stroke-linecap:square;stroke-width:0.8;"/>
     </g>
     <g id="line2d_18">
      <g>
       <use style="stroke:#000000;stroke-width:0.8;" x="68.460938" xlink:href="#m09f95d131c" y="345.610809"/>
      </g>
     </g>
     <g id="text_15">
      <!-- 0.04% -->
      <g transform="translate(31.659375 349.247528)scale(0.1 -0.1)">
       <defs>
        <path d="M 5.828125 14.921875 
L 5.828125 22.15625 
L 37.78125 72.734375 
L 48.4375 72.734375 
L 48.4375 22.734375 
L 58.375 22.734375 
L 58.375 14.921875 
L 48.4375 14.921875 
L 48.4375 0 
L 40.0625 0 
L 40.0625 14.921875 
z
M 40.0625 22.734375 
L 40.0625 61.5 
L 39.484375 61.5 
L 15.34375 23.296875 
L 15.34375 22.734375 
z
" id="Inter-Regular-52"/>
       </defs>
       <use xlink:href="#Inter-Regular-48"/>
       <use x="62.500015" xlink:href="#Inter-Regular-46"/>
       <use x="90.056839" xlink:href="#Inter-Regular-48"/>
       <use x="152.556854" xlink:href="#Inter-Regular-52"/>
       <use x="216.761414" xlink:href="#Inter-Regular-37"/>
      </g>
     </g>
    </g>
    <g id="ytick_4">
     <g id="line2d_19">
      <path clip-path="url(#p9b20b11df6)" d="M 68.460938 280.043714 
L 738.060938 280.043714 
" style="fill:none;stroke:#e5e5e5;stroke-linecap:square;stroke-width:0.8;"/>
     </g>
     <g id="line2d_20">
      <g>
       <use style="stroke:#000000;stroke-width:0.8;" x="68.460938" xlink:href="#m09f95d131c" y="280.043714"/>
      </g>
     </g>
     <g id="text_16">
      <!-- 0.06% -->
      <g transform="translate(31.84375 283.680432)scale(0.1 -0.1)">
       <defs>
        <path d="M 31.671875 -1 
Q 27.203125 -0.921875 22.71875 0.703125 
Q 18.25 2.34375 14.5625 6.234375 
Q 10.875 10.125 8.625 16.78125 
Q 6.390625 23.4375 6.390625 33.515625 
Q 6.390625 52.90625 13.453125 63.375 
Q 20.53125 73.859375 32.8125 73.859375 
Q 41.96875 73.859375 48.015625 68.5 
Q 54.078125 63.140625 55.40625 54.546875 
L 46.734375 54.546875 
Q 45.53125 59.546875 42.046875 62.796875 
Q 38.5625 66.046875 32.8125 66.046875 
Q 24.359375 66.046875 19.515625 58.671875 
Q 14.671875 51.3125 14.625 37.921875 
L 15.203125 37.921875 
Q 18.1875 42.4375 22.828125 45 
Q 27.484375 47.578125 33.09375 47.578125 
Q 39.34375 47.578125 44.53125 44.46875 
Q 49.71875 41.375 52.84375 35.921875 
Q 55.96875 30.46875 55.96875 23.4375 
Q 55.96875 16.6875 52.953125 11.09375 
Q 49.9375 5.5 44.484375 2.21875 
Q 39.03125 -1.0625 31.671875 -1 
z
M 31.671875 6.8125 
Q 36.15625 6.8125 39.71875 9.046875 
Q 43.296875 11.296875 45.359375 15.0625 
Q 47.4375 18.828125 47.4375 23.4375 
Q 47.4375 27.953125 45.4375 31.65625 
Q 43.4375 35.375 39.9375 37.5625 
Q 36.4375 39.765625 31.96875 39.765625 
Q 27.453125 39.765625 23.828125 37.453125 
Q 20.203125 35.15625 18.078125 31.40625 
Q 15.953125 27.65625 15.90625 23.296875 
Q 15.90625 18.96875 17.953125 15.203125 
Q 20 11.4375 23.5625 9.125 
Q 27.125 6.8125 31.671875 6.8125 
z
" id="Inter-Regular-54"/>
       </defs>
       <use xlink:href="#Inter-Regular-48"/>
       <use x="62.500015" xlink:href="#Inter-Regular-46"/>
       <use x="90.056839" xlink:href="#Inter-Regular-48"/>
       <use x="152.556854" xlink:href="#Inter-Regular-54"/>
       <use x="214.914825" xlink:href="#Inter-Regular-37"/>
      </g>
     </g>
    </g>
    <g id="ytick_5">
     <g id="line2d_21">
      <path clip-path="url(#p9b20b11df6)" d="M 68.460938 214.476618 
L 738.060938 214.476618 
" style="fill:none;stroke:#e5e5e5;stroke-linecap:square;stroke-width:0.8;"/>
     </g>
     <g id="line2d_22">
      <g>
       <use style="stroke:#000000;stroke-width:0.8;" x="68.460938" xlink:href="#m09f95d131c" y="214.476618"/>
      </g>
     </g>
     <g id="text_17">
      <!-- 0.08% -->
      <g transform="translate(31.914063 218.113337)scale(0.1 -0.1)">
       <defs>
        <path d="M 30.828125 -1 
Q 23.515625 -1 17.921875 1.609375 
Q 12.328125 4.21875 9.203125 8.8125 
Q 6.078125 13.421875 6.109375 19.3125 
Q 6.078125 23.9375 7.921875 27.859375 
Q 9.765625 31.78125 12.96875 34.421875 
Q 16.1875 37.078125 20.171875 37.78125 
L 20.171875 38.203125 
Q 14.953125 39.5625 11.859375 44.078125 
Q 8.765625 48.609375 8.8125 54.40625 
Q 8.765625 59.9375 11.609375 64.296875 
Q 14.453125 68.671875 19.4375 71.1875 
Q 24.4375 73.71875 30.828125 73.71875 
Q 37.140625 73.71875 42.109375 71.1875 
Q 47.09375 68.671875 49.953125 64.296875 
Q 52.8125 59.9375 52.84375 54.40625 
Q 52.8125 48.609375 49.703125 44.078125 
Q 46.59375 39.5625 41.484375 38.203125 
L 41.484375 37.78125 
Q 45.421875 37.078125 48.578125 34.421875 
Q 51.734375 31.78125 53.609375 27.859375 
Q 55.5 23.9375 55.546875 19.3125 
Q 55.5 13.421875 52.359375 8.8125 
Q 49.21875 4.21875 43.65625 1.609375 
Q 38.109375 -1 30.828125 -1 
z
M 30.828125 6.8125 
Q 38.21875 6.8125 42.53125 10.34375 
Q 46.84375 13.890625 46.875 19.75 
Q 46.84375 23.859375 44.75 27.015625 
Q 42.65625 30.1875 39.046875 32 
Q 35.4375 33.8125 30.828125 33.8125 
Q 26.171875 33.8125 22.53125 32 
Q 18.890625 30.1875 16.8125 27.015625 
Q 14.734375 23.859375 14.78125 19.75 
Q 14.734375 13.890625 19.03125 10.34375 
Q 23.328125 6.8125 30.828125 6.8125 
z
M 30.828125 41.328125 
Q 36.6875 41.328125 40.484375 44.75 
Q 44.28125 48.1875 44.3125 53.828125 
Q 44.28125 59.375 40.5625 62.703125 
Q 36.859375 66.046875 30.828125 66.046875 
Q 24.71875 66.046875 21 62.703125 
Q 17.296875 59.375 17.328125 53.828125 
Q 17.296875 48.1875 21.078125 44.75 
Q 24.859375 41.328125 30.828125 41.328125 
z
" id="Inter-Regular-56"/>
       </defs>
       <use xlink:href="#Inter-Regular-48"/>
       <use x="62.500015" xlink:href="#Inter-Regular-46"/>
       <use x="90.056839" xlink:href="#Inter-Regular-48"/>
       <use x="152.556854" xlink:href="#Inter-Regular-56"/>
       <use x="214.20459" xlink:href="#Inter-Regular-37"/>
      </g>
     </g>
    </g>
    <g id="ytick_6">
     <g id="line2d_23">
      <path clip-path="url(#p9b20b11df6)" d="M 68.460938 148.909523 
L 738.060938 148.909523 
" style="fill:none;stroke:#e5e5e5;stroke-linecap:square;stroke-width:0.8;"/>
     </g>
     <g id="line2d_24">
      <g>
       <use style="stroke:#000000;stroke-width:0.8;" x="68.460938" xlink:href="#m09f95d131c" y="148.909523"/>
      </g>
     </g>
     <g id="text_18">
      <!-- 0.10% -->
      <g transform="translate(33.6625 152.546241)scale(0.1 -0.1)">
       <use xlink:href="#Inter-Regular-48"/>
       <use x="62.500015" xlink:href="#Inter-Regular-46"/>
       <use x="90.056839" xlink:href="#Inter-Regular-49"/>
       <use x="134.232986" xlink:href="#Inter-Regular-48"/>
       <use x="196.733002" xlink:href="#Inter-Regular-37"/>
      </g>
     </g>
    </g>
    <g id="ytick_7">
     <g id="line2d_25">
      <path clip-path="url(#p9b20b11df6)" d="M 68.460938 83.342427 
L 738.060938 83.342427 
" style="fill:none;stroke:#e5e5e5;stroke-linecap:square;stroke-width:0.8;"/>
     </g>
     <g id="line2d_26">
      <g>
       <use style="stroke:#000000;stroke-width:0.8;" x="68.460938" xlink:href="#m09f95d131c" y="83.342427"/>
      </g>
     </g>
     <g id="text_19">
      <!-- 0.12% -->
      <g transform="translate(33.860938 86.979146)scale(0.1 -0.1)">
       <use xlink:href="#Inter-Regular-48"/>
       <use x="62.500015" xlink:href="#Inter-Regular-46"/>
       <use x="90.056839" xlink:href="#Inter-Regular-49"/>
       <use x="134.232986" xlink:href="#Inter-Regular-50"/>
       <use x="194.74437" xlink:href="#Inter-Regular-37"/>
      </g>
     </g>
    </g>
    <g id="text_20">
     <!-- Percent of nation tested positive -->
     <g transform="translate(25.614063 332.215469)rotate(-90)scale(0.1 -0.1)">
      <defs>
       <path d="M 8.8125 0 
L 8.8125 72.734375 
L 33.375 72.734375 
Q 41.9375 72.734375 47.390625 69.65625 
Q 52.84375 66.578125 55.46875 61.359375 
Q 58.09375 56.140625 58.09375 49.71875 
Q 58.09375 43.28125 55.484375 38.03125 
Q 52.875 32.78125 47.4375 29.671875 
Q 42.015625 26.5625 33.53125 26.5625 
L 17.609375 26.5625 
L 17.609375 0 
z
M 17.609375 34.375 
L 33.234375 34.375 
Q 42.015625 34.375 45.71875 38.78125 
Q 49.4375 43.1875 49.4375 49.71875 
Q 49.4375 56.28125 45.703125 60.59375 
Q 41.96875 64.921875 33.09375 64.921875 
L 17.609375 64.921875 
z
" id="Inter-Regular-80"/>
       <path d="M 31.96875 54.546875 
L 31.96875 47.4375 
L 19.75 47.4375 
L 19.75 0 
L 11.359375 0 
L 11.359375 47.4375 
L 2.5625 47.4375 
L 2.5625 54.546875 
L 11.359375 54.546875 
L 11.359375 62.078125 
Q 11.359375 66.765625 13.5625 69.890625 
Q 15.765625 73.015625 19.28125 74.578125 
Q 22.796875 76.140625 26.703125 76.140625 
Q 29.796875 76.140625 31.75 75.640625 
Q 33.703125 75.140625 34.65625 74.71875 
L 32.25 67.46875 
Q 31.609375 67.6875 30.484375 68 
Q 29.375 68.328125 27.5625 68.328125 
Q 23.40625 68.328125 21.578125 66.234375 
Q 19.75 64.140625 19.75 60.078125 
L 19.75 54.546875 
z
" id="Inter-Regular-102"/>
       <path d="M 7.671875 0 
L 7.671875 54.546875 
L 16.046875 54.546875 
L 16.046875 0 
z
M 11.9375 63.640625 
Q 9.484375 63.640625 7.71875 65.296875 
Q 5.96875 66.96875 5.96875 69.3125 
Q 5.96875 71.65625 7.71875 73.328125 
Q 9.484375 75 11.9375 75 
Q 14.390625 75 16.140625 73.328125 
Q 17.90625 71.65625 17.90625 69.3125 
Q 17.90625 66.96875 16.140625 65.296875 
Q 14.390625 63.640625 11.9375 63.640625 
z
" id="Inter-Regular-105"/>
       <path d="M 46.3125 42.328125 
L 38.78125 40.203125 
Q 37.671875 43.046875 35.078125 45.53125 
Q 32.5 48.015625 26.984375 48.015625 
Q 21.984375 48.015625 18.65625 45.71875 
Q 15.34375 43.4375 15.34375 39.921875 
Q 15.34375 36.796875 17.609375 34.984375 
Q 19.890625 33.171875 24.71875 31.953125 
L 32.8125 29.96875 
Q 47.296875 26.421875 47.296875 15.203125 
Q 47.296875 10.515625 44.609375 6.8125 
Q 41.9375 3.125 37.140625 0.984375 
Q 32.359375 -1.140625 26 -1.140625 
Q 17.65625 -1.140625 12.1875 2.484375 
Q 6.71875 6.109375 5.25 13.0625 
L 13.21875 15.0625 
Q 15.453125 6.25 25.859375 6.25 
Q 31.71875 6.25 35.171875 8.75 
Q 38.640625 11.25 38.640625 14.765625 
Q 38.640625 20.5625 30.546875 22.4375 
L 21.453125 24.578125 
Q 13.953125 26.34375 10.453125 30.09375 
Q 6.96875 33.84375 6.96875 39.484375 
Q 6.96875 44.109375 9.578125 47.65625 
Q 12.1875 51.203125 16.703125 53.21875 
Q 21.234375 55.25 26.984375 55.25 
Q 35.09375 55.25 39.71875 51.703125 
Q 44.359375 48.15625 46.3125 42.328125 
z
" id="Inter-Regular-115"/>
       <path d="M 28.265625 -1.140625 
Q 21.453125 -1.140625 16.234375 2.3125 
Q 11.015625 5.78125 8.0625 12.125 
Q 5.109375 18.46875 5.109375 27.125 
Q 5.109375 35.71875 8.0625 42.03125 
Q 11.015625 48.359375 16.265625 51.796875 
Q 21.515625 55.25 28.40625 55.25 
Q 33.734375 55.25 36.84375 53.484375 
Q 39.953125 51.734375 41.59375 49.515625 
Q 43.25 47.296875 44.171875 45.875 
L 44.890625 45.875 
L 44.890625 72.734375 
L 53.265625 72.734375 
L 53.265625 0 
L 45.171875 0 
L 45.171875 8.375 
L 44.171875 8.375 
Q 43.25 6.890625 41.546875 4.625 
Q 39.84375 2.375 36.6875 0.609375 
Q 33.53125 -1.140625 28.265625 -1.140625 
z
M 29.40625 6.390625 
Q 36.96875 6.390625 41 12.1875 
Q 45.03125 18 45.03125 27.265625 
Q 45.03125 36.4375 41.046875 42.078125 
Q 37.078125 47.734375 29.40625 47.734375 
Q 24.078125 47.734375 20.546875 45.015625 
Q 17.015625 42.296875 15.25 37.65625 
Q 13.5 33.03125 13.5 27.265625 
Q 13.5 21.453125 15.28125 16.703125 
Q 17.078125 11.96875 20.609375 9.171875 
Q 24.15625 6.390625 29.40625 6.390625 
z
" id="Inter-Regular-100"/>
      </defs>
      <use xlink:href="#Inter-Regular-80"/>
      <use x="63.494324" xlink:href="#Inter-Regular-101"/>
      <use x="121.732971" xlink:href="#Inter-Regular-114"/>
      <use x="160.085251" xlink:href="#Inter-Regular-99"/>
      <use x="215.909119" xlink:href="#Inter-Regular-101"/>
      <use x="274.147766" xlink:href="#Inter-Regular-110"/>
      <use x="332.670502" xlink:href="#Inter-Regular-116"/>
      <use x="369.034149" xlink:href="#Inter-Regular-32"/>
      <use x="397.159149" xlink:href="#Inter-Regular-111"/>
      <use x="456.818253" xlink:href="#Inter-Regular-102"/>
      <use x="492.897797" xlink:href="#Inter-Regular-32"/>
      <use x="521.022797" xlink:href="#Inter-Regular-110"/>
      <use x="579.545532" xlink:href="#Inter-Regular-97"/>
      <use x="635.937592" xlink:href="#Inter-Regular-116"/>
      <use x="672.301239" xlink:href="#Inter-Regular-105"/>
      <use x="696.022827" xlink:href="#Inter-Regular-111"/>
      <use x="755.681931" xlink:href="#Inter-Regular-110"/>
      <use x="814.204666" xlink:href="#Inter-Regular-32"/>
      <use x="842.329666" xlink:href="#Inter-Regular-116"/>
      <use x="878.693314" xlink:href="#Inter-Regular-101"/>
      <use x="936.931961" xlink:href="#Inter-Regular-115"/>
      <use x="989.204697" xlink:href="#Inter-Regular-116"/>
      <use x="1025.568344" xlink:href="#Inter-Regular-101"/>
      <use x="1083.806992" xlink:href="#Inter-Regular-100"/>
      <use x="1145.880875" xlink:href="#Inter-Regular-32"/>
      <use x="1174.005875" xlink:href="#Inter-Regular-112"/>
      <use x="1234.94339" xlink:href="#Inter-Regular-111"/>
      <use x="1294.602493" xlink:href="#Inter-Regular-115"/>
      <use x="1346.875229" xlink:href="#Inter-Regular-105"/>
      <use x="1370.596817" xlink:href="#Inter-Regular-116"/>
      <use x="1406.960464" xlink:href="#Inter-Regular-105"/>
      <use x="1430.682053" xlink:href="#Inter-Regular-118"/>
      <use x="1486.363876" xlink:href="#Inter-Regular-101"/>
     </g>
    </g>
   </g>
   <g id="line2d_27">
    <path clip-path="url(#p9b20b11df6)" d="M 7.17142 476.733351 
L 48.690125 476.745 
L 68.460938 476.628513 
L 72.4151 476.430485 
L 76.369262 476.477079 
L 78.346344 476.319822 
L 82.300506 476.453782 
L 84.277587 476.016955 
L 86.254669 475.42287 
L 88.23175 474.689001 
L 90.208831 474.333715 
L 92.185912 474.456027 
L 94.162993 474.910327 
L 96.140075 474.438554 
L 100.094237 472.784436 
L 102.071318 471.456482 
L 104.0484 471.33417 
L 106.025481 470.431395 
L 108.002562 470.722613 
L 109.979643 469.714998 
L 111.956724 465.008916 
L 113.933806 464.927375 
L 115.910887 463.576124 
L 117.887968 461.508476 
L 119.865049 461.304624 
L 121.842131 462.947093 
L 123.819212 462.527739 
L 125.796293 456.237431 
L 127.773374 454.717274 
L 129.750455 452.696221 
L 131.727537 453.051507 
L 133.704618 452.940844 
L 135.681699 457.099437 
L 137.65878 458.823447 
L 139.635862 451.181888 
L 141.612943 450.081084 
L 143.590024 451.787621 
L 145.567105 453.10975 
L 149.521268 458.875866 
L 151.498349 459.603911 
L 153.47543 456.744151 
L 155.452511 456.045228 
L 157.429593 452.137083 
L 159.406674 451.414862 
L 161.383755 453.034034 
L 163.360836 452.766113 
L 165.337917 456.493703 
L 167.314999 455.293885 
L 169.29208 453.598997 
L 171.269161 448.758954 
L 173.246242 450.191747 
L 175.223324 451.420686 
L 177.200405 457.081963 
L 179.177486 458.473985 
L 181.154567 453.267008 
L 183.131649 452.771938 
L 185.10873 449.189957 
L 187.085811 451.642012 
L 189.062892 452.923371 
L 191.039973 460.733837 
L 193.017055 461.43276 
L 194.994136 460.197996 
L 196.971217 458.485634 
L 198.948298 457.728467 
L 200.92538 458.089578 
L 202.902461 461.496828 
L 204.879542 466.290275 
L 206.856623 465.055511 
L 208.833704 458.904988 
L 210.810786 459.714574 
L 212.787867 459.965021 
L 214.764948 463.844044 
L 216.742029 464.327466 
L 218.719111 466.424236 
L 220.696192 467.484269 
L 222.673273 463.855693 
L 224.650354 461.671558 
L 226.627435 463.081053 
L 228.604517 463.494583 
L 232.558679 469.161684 
L 234.53576 469.761593 
L 236.512842 468.713209 
L 238.489923 468.264733 
L 240.467004 467.356133 
L 242.444085 467.589107 
L 244.421166 468.753979 
L 246.398248 470.926465 
L 248.375329 470.996358 
L 250.35241 469.097616 
L 252.329491 468.870466 
L 258.260735 470.815802 
L 260.237816 472.545637 
L 262.214897 472.88345 
L 264.191979 470.996358 
L 266.16906 470.571179 
L 268.146141 470.448868 
L 270.123222 471.409887 
L 272.100304 471.281751 
L 274.077385 472.178702 
L 276.054466 472.405852 
L 278.031547 471.264278 
L 280.008629 470.961411 
L 281.98571 471.439009 
L 283.962791 471.240981 
L 285.939872 472.027269 
L 287.916953 473.098951 
L 289.894035 473.529954 
L 291.871116 472.01562 
L 293.848197 472.493218 
L 295.825278 472.504867 
L 297.80236 473.029059 
L 299.779441 472.994113 
L 301.756522 473.815347 
L 303.733603 474.351188 
L 305.710684 472.871801 
L 307.687766 473.425115 
L 309.664847 473.227087 
L 311.641928 473.489183 
L 313.619009 473.623143 
L 315.596091 474.51427 
L 317.573172 473.60567 
L 319.550253 472.918396 
L 321.527334 473.495008 
L 323.504415 472.819382 
L 325.481497 472.79026 
L 327.458578 473.727982 
L 329.435659 474.304594 
L 331.41274 474.694826 
L 333.389822 472.732017 
L 335.366903 472.947518 
L 337.343984 472.528164 
L 343.275228 474.025024 
L 345.252309 474.33954 
L 347.22939 472.353433 
L 349.206471 472.726192 
L 351.183553 472.382555 
L 355.137715 472.592232 
L 357.114796 473.879415 
L 359.091877 473.745455 
L 361.068959 472.027269 
L 363.04604 472.202 
L 365.023121 471.083723 
L 367.000202 471.765173 
L 368.977284 473.104776 
L 370.954365 473.873591 
L 372.931446 473.762928 
L 374.908527 471.281751 
L 376.885608 471.392414 
L 380.839771 471.042952 
L 382.816852 471.701105 
L 384.793933 473.040708 
L 386.771015 473.500832 
L 388.748096 468.876291 
L 390.725177 469.691701 
L 392.702258 470.367327 
L 394.67934 470.815802 
L 396.656421 470.699315 
L 398.633502 472.988288 
L 400.610583 473.669738 
L 402.587664 470.122704 
L 404.564746 471.357468 
L 408.518908 469.639282 
L 410.495989 470.891519 
L 412.473071 472.586408 
L 414.450152 472.702895 
L 416.427233 470.15765 
L 418.404314 470.571179 
L 420.381395 470.116879 
L 422.358477 469.016075 
L 424.335558 468.695736 
L 426.312639 470.687666 
L 428.28972 471.048777 
L 430.266802 469.406307 
L 434.220964 461.502652 
L 436.198045 461.217258 
L 438.175126 461.654085 
L 440.152208 463.989653 
L 442.129289 464.740996 
L 444.10637 456.56942 
L 446.083451 459.236976 
L 448.060533 460.128103 
L 450.037614 458.660365 
L 452.014695 460.122279 
L 453.991776 463.855693 
L 455.968857 466.773697 
L 457.945939 459.860183 
L 459.92302 459.015651 
L 461.900101 454.892004 
L 463.877182 453.797025 
L 465.854264 451.834216 
L 467.831345 452.38753 
L 469.808426 449.79569 
L 471.785507 449.364688 
L 473.762588 445.508962 
L 475.73967 442.410403 
L 477.716751 440.086483 
L 479.693832 441.542573 
L 481.670913 443.819898 
L 483.647995 441.647412 
L 485.625076 426.754525 
L 487.602157 425.921642 
L 489.579238 415.472742 
L 491.55632 410.883147 
L 493.533401 409.293096 
L 495.510482 420.190472 
L 497.487563 419.485725 
L 499.464644 394.970997 
L 501.441726 393.45084 
L 503.418807 388.197268 
L 505.395888 387.807035 
L 507.372969 400.940965 
L 509.350051 417.598633 
L 511.327132 420.493339 
L 513.304213 382.355435 
L 515.281294 386.71788 
L 517.258375 380.910994 
L 519.235457 387.935171 
L 521.212538 391.965628 
L 523.189619 404.738448 
L 525.1667 407.679749 
L 527.143782 347.898526 
L 529.120863 352.493946 
L 531.097944 351.468859 
L 533.075025 362.482722 
L 535.052106 371.184314 
L 537.029188 397.999664 
L 539.006269 400.055663 
L 540.98335 344.153464 
L 542.960431 357.32234 
L 546.914594 360.327709 
L 548.891675 362.284694 
L 550.868756 393.118851 
L 552.845837 398.873318 
L 554.822919 314.093946 
L 556.8 346.786074 
L 558.777081 356.209887 
L 560.754162 355.126556 
L 562.731244 355.45272 
L 564.708325 379.90338 
L 566.685406 372.098739 
L 568.662487 313.05721 
L 570.639568 334.129741 
L 572.61665 333.151249 
L 574.593731 348.812951 
L 576.570812 350.58938 
L 578.547893 383.357225 
L 580.524975 393.899315 
L 582.502056 338.573727 
L 584.479137 358.23094 
L 586.456218 370.555284 
L 588.4333 386.415014 
L 590.410381 391.196813 
L 592.387462 414.925252 
L 594.364543 418.250961 
L 596.341624 382.36126 
L 598.318706 395.011768 
L 600.295787 395.617501 
L 602.272868 405.245167 
L 604.249949 405.198572 
L 606.227031 423.137598 
L 608.204112 424.826662 
L 610.181193 389.076746 
L 612.158274 398.011313 
L 614.135355 398.407369 
L 616.112437 403.690063 
L 618.089518 401.569996 
L 620.066599 417.435551 
L 622.04368 413.271134 
L 624.020762 375.313785 
L 625.997843 379.536445 
L 627.974924 374.777944 
L 629.952005 368.604123 
L 631.929086 360.927618 
L 633.906168 383.357225 
L 635.883249 371.13772 
L 637.86033 304.804093 
L 639.837411 307.145485 
L 641.814493 301.292004 
L 643.791574 304.355617 
L 645.768655 291.285755 
L 647.745736 350.111783 
L 649.722817 308.118153 
L 651.699899 228.633124 
L 653.67698 238.464642 
L 655.654061 257.120064 
L 657.631142 309.457756 
L 659.608224 402.938721 
L 661.585305 263.02014 
L 663.562386 229.436885 
L 665.539467 243.595902 
L 667.516548 54.345 
L 669.49363 110.462701 
L 671.470711 204.863914 
L 673.447792 312.445652 
L 675.424873 161.332654 
L 677.401955 188.340207 
L 679.379036 74.468161 
L 681.356117 138.908871 
L 683.333198 178.04274 
L 687.287361 230.135808 
L 689.264442 270.312238 
L 691.241523 285.350733 
L 693.218604 173.482267 
L 695.195686 216.21559 
L 697.172767 236.775578 
L 699.149848 252.21013 
L 701.126929 262.396934 
L 703.104011 315.614104 
L 705.081092 323.977883 
L 707.058173 239.390715 
L 709.035254 267.114665 
L 711.012335 291.588622 
L 712.989417 308.980159 
L 714.966498 319.801818 
L 716.943579 360.875199 
L 718.92066 386.514028 
L 720.897742 319.166963 
L 722.874823 334.362716 
L 724.851904 341.614043 
L 724.851904 341.614043 
" style="fill:none;stroke:#5694ca;stroke-linecap:square;stroke-width:2;"/>
   </g>
   <g id="line2d_28">
    <path clip-path="url(#p9b20b11df6)" d="M 15.079744 476.745 
L 74.392181 476.745 
L 76.369262 476.398756 
L 78.346344 476.398756 
L 80.323425 475.87939 
L 82.300506 476.225634 
L 84.277587 476.225634 
L 86.254669 475.87939 
L 88.23175 474.840658 
L 90.208831 476.052512 
L 92.185912 474.840658 
L 94.162993 475.01378 
L 96.140075 476.398756 
L 98.117156 475.360024 
L 100.094237 475.186902 
L 102.071318 474.494414 
L 104.0484 474.321292 
L 108.002562 473.282559 
L 109.979643 473.628803 
L 111.956724 469.646997 
L 113.933806 469.646997 
L 115.910887 467.050166 
L 117.887968 463.587726 
L 119.865049 465.145824 
L 121.842131 463.587726 
L 123.819212 466.011434 
L 125.796293 462.202749 
L 127.773374 457.355333 
L 129.750455 459.086553 
L 131.727537 458.567187 
L 133.704618 459.086553 
L 135.681699 461.683383 
L 137.65878 466.357678 
L 139.635862 458.567187 
L 141.612943 454.412258 
L 143.590024 459.086553 
L 145.567105 459.432797 
L 147.544186 460.471529 
L 149.521268 465.145824 
L 151.498349 464.107092 
L 153.47543 458.220943 
L 155.452511 460.298407 
L 157.429593 453.71977 
L 159.406674 452.85416 
L 161.383755 449.911085 
L 163.360836 462.029627 
L 165.337917 469.646997 
L 167.314999 457.355333 
L 169.29208 454.066014 
L 171.269161 460.125285 
L 173.246242 464.280214 
L 175.223324 462.375871 
L 177.200405 467.569532 
L 179.177486 469.127631 
L 181.154567 464.453336 
L 183.131649 463.93397 
L 185.10873 460.990895 
L 187.085811 456.835966 
L 189.062892 459.952163 
L 191.039973 461.164017 
L 193.017055 467.39641 
L 194.994136 463.93397 
L 196.971217 464.107092 
L 198.948298 462.895238 
L 200.92538 459.952163 
L 202.902461 464.280214 
L 204.879542 467.39641 
L 206.856623 466.184556 
L 208.833704 463.760848 
L 210.810786 460.990895 
L 212.787867 463.760848 
L 214.764948 463.93397 
L 216.742029 465.318946 
L 218.719111 469.820119 
L 220.696192 470.512607 
L 222.673273 466.011434 
L 224.650354 464.280214 
L 226.627435 463.93397 
L 228.604517 467.050166 
L 230.581598 471.031973 
L 232.558679 467.39641 
L 234.53576 471.551339 
L 236.512842 469.820119 
L 238.489923 472.070705 
L 240.467004 471.031973 
L 242.444085 471.897583 
L 244.421166 473.282559 
L 246.398248 474.494414 
L 248.375329 472.243827 
L 250.35241 472.590071 
L 252.329491 473.109437 
L 254.306573 474.840658 
L 256.283654 474.840658 
L 258.260735 472.590071 
L 260.237816 475.360024 
L 262.214897 475.87939 
L 264.191979 474.321292 
L 266.16906 474.840658 
L 268.146141 473.975048 
L 270.123222 475.01378 
L 274.077385 475.01378 
L 276.054466 475.360024 
L 278.031547 473.455681 
L 280.008629 474.840658 
L 281.98571 475.87939 
L 283.962791 475.533146 
L 285.939872 474.667536 
L 287.916953 475.87939 
L 289.894035 476.225634 
L 291.871116 476.052512 
L 293.848197 475.360024 
L 295.825278 476.052512 
L 297.80236 475.87939 
L 299.779441 476.225634 
L 303.733603 475.87939 
L 305.710684 476.052512 
L 307.687766 476.398756 
L 309.664847 476.052512 
L 311.641928 476.225634 
L 313.619009 475.360024 
L 315.596091 476.571878 
L 317.573172 476.398756 
L 319.550253 475.360024 
L 321.527334 475.87939 
L 323.504415 475.706268 
L 327.458578 476.052512 
L 329.435659 475.706268 
L 331.41274 476.052512 
L 333.389822 476.225634 
L 335.366903 475.533146 
L 337.343984 474.14817 
L 339.321065 473.455681 
L 341.298146 475.360024 
L 343.275228 475.533146 
L 345.252309 476.225634 
L 347.22939 476.225634 
L 349.206471 474.667536 
L 351.183553 475.360024 
L 353.160634 474.667536 
L 355.137715 474.321292 
L 357.114796 476.052512 
L 359.091877 476.571878 
L 361.068959 474.667536 
L 363.04604 474.494414 
L 365.023121 474.840658 
L 367.000202 475.01378 
L 368.977284 474.494414 
L 370.954365 475.01378 
L 372.931446 475.186902 
L 374.908527 473.628803 
L 376.885608 473.801925 
L 378.86269 471.724461 
L 380.839771 473.801925 
L 382.816852 473.975048 
L 384.793933 472.070705 
L 386.771015 472.416949 
L 388.748096 469.127631 
L 390.725177 470.166363 
L 392.702258 469.993241 
L 394.67934 467.915776 
L 396.656421 466.877044 
L 398.633502 472.936315 
L 400.610583 473.282559 
L 402.587664 467.569532 
L 404.564746 469.300753 
L 406.541827 469.646997 
L 408.518908 464.453336 
L 410.495989 462.895238 
L 412.473071 469.473875 
L 414.450152 467.742654 
L 416.427233 468.954509 
L 418.404314 465.492068 
L 420.381395 464.453336 
L 422.358477 463.241482 
L 424.335558 461.856505 
L 426.312639 469.300753 
L 428.28972 470.685729 
L 430.266802 467.39641 
L 432.243883 465.492068 
L 434.220964 461.164017 
L 436.198045 458.394065 
L 438.175126 454.239136 
L 440.152208 461.164017 
L 442.129289 458.740309 
L 444.10637 464.280214 
L 446.083451 467.050166 
L 448.060533 459.779041 
L 450.037614 463.06836 
L 452.014695 464.107092 
L 453.991776 458.394065 
L 455.968857 460.990895 
L 457.945939 456.143478 
L 459.92302 458.220943 
L 461.900101 453.71977 
L 463.877182 447.660499 
L 465.854264 447.660499 
L 467.831345 448.872353 
L 469.808426 455.277868 
L 471.785507 453.373526 
L 473.762588 447.314255 
L 475.73967 438.831275 
L 477.716751 427.751465 
L 479.693832 434.503224 
L 481.670913 430.175174 
L 483.647995 429.482685 
L 485.625076 425.500879 
L 487.602157 409.40053 
L 489.579238 365.427534 
L 491.55632 393.300181 
L 493.533401 355.905822 
L 495.510482 368.889975 
L 497.487563 370.274951 
L 501.441726 337.381765 
L 503.418807 297.73682 
L 505.395888 306.392921 
L 507.372969 330.803128 
L 509.350051 337.901131 
L 511.327132 332.534348 
L 513.304213 285.098912 
L 517.258375 292.370037 
L 519.235457 284.579545 
L 521.212538 308.470386 
L 523.189619 330.97625 
L 525.1667 339.459229 
L 527.143782 296.351844 
L 529.120863 292.370037 
L 531.097944 283.713935 
L 533.075025 289.946328 
L 535.052106 323.532002 
L 537.029188 348.288453 
L 539.006269 358.675775 
L 540.98335 322.49327 
L 544.937513 346.037866 
L 546.914594 356.59831 
L 548.891675 357.117676 
L 550.868756 387.587154 
L 552.845837 396.243256 
L 554.822919 355.7327 
L 556.8 363.176948 
L 558.777081 374.083636 
L 560.754162 379.277296 
L 562.731244 392.434571 
L 564.708325 397.45511 
L 566.685406 403.514381 
L 568.662487 364.388802 
L 570.639568 355.905822 
L 572.61665 371.140561 
L 574.593731 381.354761 
L 576.570812 394.685157 
L 578.547893 403.687503 
L 580.524975 411.99736 
L 582.502056 376.334222 
L 584.479137 377.546076 
L 586.456218 400.744428 
L 588.4333 416.152289 
L 590.410381 412.343604 
L 592.387462 426.020245 
L 594.364543 429.309563 
L 596.341624 411.651116 
L 598.318706 417.710387 
L 600.295787 404.379991 
L 602.272868 418.402875 
L 604.249949 419.441608 
L 606.227031 417.364143 
L 608.204112 432.252638 
L 610.181193 388.97213 
L 612.158274 407.496188 
L 614.135355 405.072479 
L 616.112437 390.357106 
L 618.089518 401.783161 
L 620.066599 407.842432 
L 622.04368 413.036093 
L 624.020762 395.550767 
L 625.997843 395.377645 
L 627.974924 397.974476 
L 629.952005 390.010862 
L 631.929086 386.548422 
L 633.906168 414.247947 
L 635.883249 407.496188 
L 637.86033 378.411686 
L 639.837411 383.605347 
L 641.814493 369.755585 
L 643.791574 372.179293 
L 645.768655 383.605347 
L 647.745736 392.780815 
L 649.722817 392.088327 
L 651.699899 351.750894 
L 653.67698 351.404649 
L 655.654061 336.343033 
L 657.631142 368.370608 
L 659.608224 417.537265 
L 663.562386 287.52262 
L 665.539467 235.586011 
L 667.516548 76.833108 
L 669.49363 90.336626 
L 671.470711 178.282618 
L 673.447792 260.515583 
L 675.424873 142.61948 
L 677.401955 194.036723 
L 679.379036 128.769717 
L 681.356117 195.248577 
L 683.333198 211.868292 
L 685.310279 261.727437 
L 687.287361 261.900559 
L 689.264442 303.276725 
L 691.241523 323.705124 
L 693.218604 257.053142 
L 695.195686 282.848325 
L 697.172767 292.889403 
L 699.149848 316.607121 
L 701.126929 328.725663 
L 703.104011 355.559578 
L 705.081092 369.409341 
L 707.058173 316.953365 
L 709.035254 325.782589 
L 711.012335 339.286107 
L 712.989417 343.267914 
L 716.943579 393.473303 
L 718.92066 397.628232 
L 720.897742 364.388802 
L 722.874823 364.388802 
L 722.874823 364.388802 
" style="fill:none;stroke:#ffdd00;stroke-linecap:square;stroke-width:2;"/>
   </g>
   <g id="line2d_29">
    <path clip-path="url(#p9b20b11df6)" d="M 64.506775 476.684993 
L 66.483856 476.745 
L 68.460938 476.624986 
L 70.438019 476.684993 
L 74.392181 476.384959 
L 76.369262 476.624986 
L 78.346344 476.384959 
L 80.323425 476.384959 
L 82.300506 476.564979 
L 84.277587 475.78489 
L 88.23175 475.184822 
L 90.208831 474.464739 
L 92.185912 473.864671 
L 94.162993 475.60487 
L 96.140075 476.024918 
L 98.117156 475.484856 
L 100.094237 474.164705 
L 102.071318 474.284719 
L 104.0484 473.804664 
L 106.025481 471.764431 
L 108.002562 472.784547 
L 109.979643 472.244486 
L 111.956724 468.464053 
L 113.933806 466.663848 
L 115.910887 465.46371 
L 117.887968 463.36347 
L 119.865049 460.30312 
L 121.842131 464.443594 
L 123.819212 464.923649 
L 125.796293 457.542805 
L 127.773374 456.342668 
L 129.750455 453.462338 
L 131.727537 455.682592 
L 133.704618 454.0024 
L 135.681699 461.203223 
L 137.65878 463.243457 
L 139.635862 452.502229 
L 141.612943 455.682592 
L 143.590024 456.162647 
L 145.567105 458.502915 
L 147.544186 457.002743 
L 149.521268 465.643731 
L 151.498349 463.543491 
L 153.47543 455.202537 
L 155.452511 455.982626 
L 157.429593 456.882729 
L 159.406674 451.122071 
L 161.383755 453.102297 
L 163.360836 460.903189 
L 165.337917 467.203909 
L 167.314999 430.179677 
L 169.29208 452.802263 
L 171.269161 456.342668 
L 173.246242 457.902846 
L 175.223324 458.442908 
L 177.200405 465.703738 
L 179.177486 466.42382 
L 181.154567 450.94205 
L 183.131649 453.942393 
L 185.10873 450.94205 
L 187.085811 456.642702 
L 189.062892 454.662476 
L 191.039973 463.723511 
L 193.017055 465.403703 
L 194.994136 456.942736 
L 196.971217 459.403018 
L 198.948298 458.382901 
L 200.92538 459.343011 
L 202.902461 461.503258 
L 204.879542 466.123786 
L 206.856623 467.743971 
L 208.833704 461.023203 
L 212.787867 464.863642 
L 214.764948 464.023546 
L 216.742029 467.623957 
L 218.719111 470.564293 
L 220.696192 471.224369 
L 222.673273 468.34404 
L 224.650354 465.823752 
L 226.627435 469.48417 
L 228.604517 470.084239 
L 230.581598 471.224369 
L 232.558679 473.744657 
L 234.53576 473.50463 
L 236.512842 470.924335 
L 238.489923 472.124472 
L 242.444085 473.444623 
L 244.421166 475.004801 
L 246.398248 474.344726 
L 248.375329 475.364842 
L 250.35241 474.464739 
L 252.329491 474.044691 
L 254.306573 474.64476 
L 256.283654 474.64476 
L 258.260735 475.304835 
L 260.237816 475.424849 
L 262.214897 475.724883 
L 264.191979 475.664877 
L 266.16906 475.124815 
L 268.146141 475.004801 
L 270.123222 475.484856 
L 272.100304 474.944794 
L 274.077385 475.364842 
L 276.054466 475.964911 
L 278.031547 475.484856 
L 280.008629 475.724883 
L 281.98571 474.764774 
L 283.962791 475.904904 
L 285.939872 475.364842 
L 287.916953 476.384959 
L 291.871116 476.084925 
L 293.848197 475.544863 
L 295.825278 476.264945 
L 297.80236 475.60487 
L 299.779441 476.384959 
L 303.733603 476.564979 
L 305.710684 475.904904 
L 307.687766 476.264945 
L 311.641928 475.964911 
L 313.619009 476.384959 
L 315.596091 476.444966 
L 317.573172 476.624986 
L 319.550253 476.264945 
L 321.527334 476.084925 
L 325.481497 476.264945 
L 327.458578 476.024918 
L 329.435659 476.204938 
L 331.41274 476.624986 
L 333.389822 475.724883 
L 335.366903 476.144931 
L 339.321065 475.484856 
L 341.298146 476.264945 
L 345.252309 475.724883 
L 347.22939 475.964911 
L 349.206471 475.60487 
L 351.183553 475.78489 
L 353.160634 475.364842 
L 355.137715 476.084925 
L 357.114796 476.564979 
L 359.091877 476.324952 
L 361.068959 475.964911 
L 363.04604 475.424849 
L 365.023121 475.064808 
L 367.000202 475.124815 
L 368.977284 475.484856 
L 370.954365 475.364842 
L 372.931446 475.60487 
L 374.908527 473.024575 
L 376.885608 473.264602 
L 378.86269 472.72454 
L 380.839771 472.844554 
L 384.793933 475.124815 
L 386.771015 475.184822 
L 388.748096 473.204595 
L 390.725177 472.964568 
L 392.702258 473.804664 
L 394.67934 473.204595 
L 396.656421 473.744657 
L 398.633502 475.544863 
L 400.610583 474.764774 
L 402.587664 472.244486 
L 404.564746 472.064465 
L 406.541827 471.164362 
L 408.518908 468.284033 
L 410.495989 471.284376 
L 412.473071 473.68465 
L 414.450152 472.72454 
L 416.427233 473.204595 
L 418.404314 472.424506 
L 420.381395 470.864328 
L 422.358477 470.924335 
L 424.335558 470.44428 
L 426.312639 471.104355 
L 428.28972 470.6243 
L 430.266802 468.164019 
L 432.243883 464.803635 
L 434.220964 465.223683 
L 436.198045 464.623614 
L 440.152208 468.52406 
L 442.129289 467.503944 
L 444.10637 466.723854 
L 446.083451 470.564293 
L 448.060533 463.36347 
L 450.037614 462.883415 
L 452.014695 463.783518 
L 453.991776 463.903532 
L 455.968857 466.063779 
L 457.945939 465.583724 
L 459.92302 462.463367 
L 461.900101 459.943079 
L 463.877182 460.843182 
L 465.854264 460.543148 
L 467.831345 462.583381 
L 469.808426 457.542805 
L 471.785507 449.501886 
L 473.762588 446.921591 
L 475.73967 442.421076 
L 477.716751 433.780088 
L 481.670913 450.522002 
L 483.647995 455.202537 
L 485.625076 439.240713 
L 487.602157 437.080466 
L 489.579238 429.15956 
L 491.55632 430.11967 
L 493.533401 427.659389 
L 495.510482 434.620184 
L 497.487563 432.099896 
L 499.464644 410.797461 
L 501.441726 405.216823 
L 503.418807 401.736425 
L 507.372969 410.977482 
L 509.350051 420.218538 
L 511.327132 419.198421 
L 513.304213 395.075664 
L 515.281294 391.355238 
L 517.258375 399.336151 
L 519.235457 399.096123 
L 521.212538 401.676418 
L 523.189619 425.019087 
L 525.1667 427.05932 
L 527.143782 395.435705 
L 529.120863 375.693448 
L 531.097944 381.934161 
L 533.075025 386.55469 
L 535.052106 399.516171 
L 537.029188 419.498456 
L 539.006269 420.398559 
L 540.98335 396.035774 
L 542.960431 398.256027 
L 544.937513 400.656302 
L 546.914594 410.857468 
L 548.891675 410.377413 
L 550.868756 432.039889 
L 552.845837 418.298319 
L 554.822919 388.054861 
L 558.777081 398.556062 
L 560.754162 399.096123 
L 562.731244 408.277173 
L 564.708325 426.09921 
L 566.685406 424.058977 
L 568.662487 399.036117 
L 570.639568 399.336151 
L 572.61665 401.736425 
L 574.593731 404.976796 
L 576.570812 413.017715 
L 578.547893 421.598696 
L 580.524975 428.01943 
L 582.502056 400.236254 
L 584.479137 403.236597 
L 586.456218 409.837351 
L 588.4333 417.87827 
L 590.410381 424.899073 
L 592.387462 430.959766 
L 594.364543 434.380157 
L 596.341624 407.197049 
L 598.318706 417.338209 
L 600.295787 420.93862 
L 602.272868 428.619498 
L 604.249949 432.519944 
L 606.227031 442.421076 
L 608.204112 443.561207 
L 610.181193 418.358325 
L 612.158274 421.298662 
L 614.135355 419.858497 
L 616.112437 428.259457 
L 618.089518 437.980569 
L 620.066599 436.900445 
L 622.04368 438.040575 
L 624.020762 419.558463 
L 625.997843 414.277859 
L 627.974924 416.978168 
L 629.952005 422.978854 
L 631.929086 424.419018 
L 633.906168 435.760315 
L 635.883249 433.420047 
L 637.86033 410.61744 
L 639.837411 414.517886 
L 641.814493 413.67779 
L 643.791574 421.89873 
L 645.768655 420.93862 
L 647.745736 431.379814 
L 649.722817 427.299347 
L 651.699899 397.355924 
L 653.67698 396.755856 
L 655.654061 397.295918 
L 657.631142 415.417989 
L 659.608224 445.481426 
L 661.585305 413.257742 
L 663.562386 374.373297 
L 665.539467 367.232481 
L 667.516548 287.783398 
L 669.49363 298.344606 
L 671.470711 333.98868 
L 673.447792 406.716995 
L 675.424873 343.589778 
L 677.401955 343.349751 
L 679.379036 333.628639 
L 681.356117 293.124009 
L 683.333198 323.127439 
L 689.264442 386.914731 
L 691.241523 390.815177 
L 693.218604 350.250539 
L 695.195686 357.391356 
L 697.172767 374.013256 
L 699.149848 379.173846 
L 701.126929 383.49434 
L 703.104011 406.23694 
L 705.081092 404.916789 
L 707.058173 372.453078 
L 709.035254 383.254312 
L 711.012335 381.514113 
L 712.989417 402.156473 
L 714.966498 402.156473 
L 716.943579 420.518572 
L 718.92066 424.899073 
L 720.897742 397.955993 
L 722.874823 406.596981 
L 722.874823 406.596981 
" style="fill:none;stroke:#003078;stroke-linecap:square;stroke-width:2;"/>
   </g>
   <g id="line2d_30">
    <path clip-path="url(#p9b20b11df6)" d="M 62.529694 476.64102 
L 66.483856 476.745 
L 78.346344 476.745 
L 80.323425 476.537041 
L 82.300506 476.64102 
L 84.277587 476.433061 
L 86.254669 475.497243 
L 88.23175 475.185304 
L 90.208831 474.145507 
L 92.185912 473.833568 
L 94.162993 474.769385 
L 96.140075 473.417649 
L 98.117156 472.89775 
L 102.071318 473.00173 
L 104.0484 470.506217 
L 106.025481 469.15448 
L 109.979643 468.842541 
L 111.956724 462.915697 
L 113.933806 462.083859 
L 115.910887 456.988853 
L 117.887968 458.340589 
L 119.865049 456.676914 
L 121.842131 459.380387 
L 123.819212 460.212224 
L 125.796293 441.079956 
L 127.773374 447.942617 
L 129.750455 442.743631 
L 131.727537 441.807814 
L 133.704618 442.431692 
L 135.681699 447.422719 
L 137.65878 453.557522 
L 139.635862 436.920767 
L 141.612943 436.608828 
L 143.590024 436.608828 
L 145.567105 436.088929 
L 147.544186 444.719246 
L 149.521268 451.062009 
L 151.498349 451.062009 
L 153.47543 448.358536 
L 157.429593 439.208321 
L 159.406674 439.000361 
L 161.383755 443.055571 
L 163.360836 451.062009 
L 165.337917 457.924671 
L 167.314999 447.526699 
L 169.29208 449.814252 
L 171.269161 450.438131 
L 173.246242 455.845076 
L 175.223324 454.59732 
L 177.200405 462.603758 
L 179.177486 464.163454 
L 181.154567 458.860488 
L 183.131649 460.836103 
L 187.085811 455.949056 
L 189.062892 458.444569 
L 191.039973 458.13263 
L 193.017055 465.827129 
L 196.971217 458.548549 
L 198.948298 458.964468 
L 200.92538 458.444569 
L 202.902461 464.787332 
L 204.879542 462.603758 
L 206.856623 465.61917 
L 208.833704 458.23661 
L 210.810786 461.148042 
L 212.787867 460.836103 
L 214.764948 463.019677 
L 216.742029 458.13263 
L 218.719111 459.484366 
L 220.696192 464.475393 
L 222.673273 459.276407 
L 224.650354 454.59732 
L 226.627435 459.484366 
L 228.604517 463.019677 
L 230.581598 462.499778 
L 232.558679 464.059474 
L 234.53576 468.218663 
L 236.512842 465.827129 
L 238.489923 466.139069 
L 240.467004 464.475393 
L 242.444085 466.139069 
L 244.421166 465.72315 
L 246.398248 469.46642 
L 248.375329 471.961933 
L 250.35241 470.090298 
L 252.329491 469.15448 
L 254.306573 468.946521 
L 256.283654 470.506217 
L 258.260735 471.026115 
L 260.237816 471.234075 
L 262.214897 473.20969 
L 264.191979 469.050501 
L 266.16906 470.298257 
L 268.146141 469.778359 
L 270.123222 469.882338 
L 272.100304 468.946521 
L 274.077385 469.46642 
L 276.054466 471.130095 
L 278.031547 469.882338 
L 280.008629 468.218663 
L 281.98571 470.090298 
L 283.962791 470.298257 
L 285.939872 462.187839 
L 287.916953 471.857953 
L 289.894035 468.842541 
L 291.871116 469.882338 
L 293.848197 463.123657 
L 295.825278 472.89775 
L 297.80236 470.506217 
L 299.779441 474.769385 
L 301.756522 462.187839 
L 303.733603 473.833568 
L 305.710684 472.273872 
L 309.664847 473.937548 
L 311.641928 473.833568 
L 315.596091 475.809183 
L 317.573172 475.497243 
L 319.550253 473.10571 
L 321.527334 473.729588 
L 323.504415 475.289284 
L 327.458578 473.729588 
L 329.435659 475.497243 
L 331.41274 475.705203 
L 333.389822 474.249487 
L 335.366903 474.353466 
L 337.343984 474.873365 
L 339.321065 474.145507 
L 341.298146 474.977345 
L 343.275228 475.601223 
L 345.252309 475.705203 
L 347.22939 472.273872 
L 349.206471 470.402237 
L 351.183553 474.145507 
L 353.160634 473.521629 
L 355.137715 473.625608 
L 357.114796 474.249487 
L 359.091877 473.10571 
L 361.068959 474.353466 
L 363.04604 473.937548 
L 365.023121 473.937548 
L 367.000202 473.625608 
L 368.977284 475.081324 
L 370.954365 475.081324 
L 372.931446 475.289284 
L 374.908527 474.457446 
L 376.885608 474.249487 
L 378.86269 474.457446 
L 380.839771 474.457446 
L 382.816852 475.185304 
L 384.793933 476.225101 
L 386.771015 475.913162 
L 388.748096 474.769385 
L 390.725177 473.937548 
L 392.702258 474.249487 
L 394.67934 474.977345 
L 396.656421 474.977345 
L 398.633502 475.705203 
L 400.610583 474.873365 
L 402.587664 474.769385 
L 404.564746 472.793771 
L 408.518908 473.521629 
L 410.495989 474.457446 
L 412.473071 474.769385 
L 414.450152 475.601223 
L 416.427233 473.00173 
L 418.404314 471.546014 
L 420.381395 472.169892 
L 422.358477 471.546014 
L 424.335558 471.338055 
L 426.312639 472.169892 
L 428.28972 471.961933 
L 430.266802 472.169892 
L 432.243883 470.818156 
L 434.220964 466.866927 
L 436.198045 463.747535 
L 438.175126 461.252022 
L 440.152208 463.435596 
L 442.129289 463.123657 
L 444.10637 460.212224 
L 446.083451 461.8759 
L 448.060533 460.316204 
L 450.037614 457.404772 
L 452.014695 461.667941 
L 453.991776 462.187839 
L 455.968857 459.692326 
L 457.945939 456.884873 
L 459.92302 459.692326 
L 461.900101 455.221198 
L 463.877182 449.606293 
L 465.854264 451.165989 
L 467.831345 447.630678 
L 469.808426 450.54211 
L 471.785507 444.199347 
L 473.762588 437.336686 
L 475.73967 437.440666 
L 477.716751 443.887408 
L 479.693832 436.712808 
L 481.670913 434.841173 
L 483.647995 443.783429 
L 485.625076 432.449639 
L 487.602157 428.29045 
L 489.579238 414.253188 
L 491.55632 411.549715 
L 493.533401 414.253188 
L 495.510482 422.883505 
L 497.487563 412.901452 
L 499.464644 403.647256 
L 501.441726 396.576635 
L 503.418807 388.258258 
L 505.395888 390.753771 
L 507.372969 395.432859 
L 509.350051 412.381553 
L 511.327132 411.653695 
L 513.304213 395.432859 
L 515.281294 377.756306 
L 517.258375 382.747333 
L 519.235457 394.497041 
L 521.212538 377.756306 
L 523.189619 403.127358 
L 525.1667 402.29552 
L 527.143782 361.22353 
L 529.120863 348.122086 
L 531.097944 345.106674 
L 533.075025 366.942415 
L 535.052106 352.281274 
L 537.029188 370.165786 
L 539.006269 379.004063 
L 540.98335 314.952555 
L 542.960431 323.062973 
L 544.937513 335.644519 
L 546.914594 312.145102 
L 548.891675 347.706167 
L 550.868756 385.346826 
L 552.845837 378.172225 
L 554.822919 330.133594 
L 556.8 348.434025 
L 558.777081 362.991186 
L 560.754162 370.997624 
L 562.731244 385.554785 
L 564.708325 413.837269 
L 566.685406 404.375114 
L 568.662487 371.621503 
L 570.639568 376.612529 
L 572.61665 387.842339 
L 574.593731 396.472656 
L 576.570812 387.42642 
L 578.547893 411.445735 
L 580.524975 411.445735 
L 582.502056 373.493137 
L 584.479137 368.606091 
L 586.456218 374.117016 
L 588.4333 381.083657 
L 590.410381 379.419982 
L 592.387462 406.03879 
L 594.364543 402.19154 
L 596.341624 369.541908 
L 598.318706 363.095165 
L 600.295787 337.724114 
L 602.272868 356.232504 
L 604.249949 369.125989 
L 606.227031 388.986116 
L 608.204112 376.30059 
L 610.181193 320.255521 
L 612.158274 309.23367 
L 614.135355 305.802339 
L 616.112437 288.853645 
L 618.089518 300.187434 
L 620.066599 317.344088 
L 622.04368 300.291414 
L 624.020762 215.651922 
L 627.974924 196.831592 
L 629.952005 199.743024 
L 631.929086 184.354026 
L 633.906168 239.151339 
L 635.883249 192.464444 
L 637.86033 108.760769 
L 639.837411 145.985509 
L 641.814493 150.040718 
L 643.791574 188.097296 
L 645.768655 212.948449 
L 647.745736 251.109006 
L 649.722817 247.157777 
L 651.699899 191.424647 
L 653.67698 195.375876 
L 655.654061 222.722543 
L 657.631142 323.582872 
L 659.608224 409.88604 
L 661.585305 279.911389 
L 663.562386 217.211617 
L 665.539467 231.768778 
L 667.516548 106.265256 
L 669.49363 196.103734 
L 671.470711 267.745762 
L 673.447792 350.825558 
L 675.424873 259.739323 
L 677.401955 288.645686 
L 679.379036 200.366903 
L 681.356117 228.857346 
L 683.333198 269.825356 
L 685.310279 303.826725 
L 687.287361 310.793366 
L 689.264442 358.000159 
L 691.241523 354.152909 
L 693.218604 296.340185 
L 697.172767 324.622669 
L 699.149848 340.427586 
L 701.126929 350.721579 
L 703.104011 372.245381 
L 705.081092 390.857751 
L 707.058173 331.48533 
L 709.035254 364.342922 
L 711.012335 375.780691 
L 712.989417 382.227434 
L 714.966498 396.992554 
L 716.943579 421.635748 
L 718.92066 437.648625 
L 720.897742 389.402035 
L 722.874823 401.463682 
L 724.851904 404.687054 
L 724.851904 404.687054 
" style="fill:none;stroke:#d4351c;stroke-linecap:square;stroke-width:2;"/>
   </g>
   <g id="patch_3">
    <path d="M 68.460938 476.745 
L 738.060937 476.745 
" style="fill:none;stroke:#000000;stroke-linecap:square;stroke-linejoin:miter;stroke-width:0.8;"/>
   </g>
   <g id="text_21">
    <!-- COVID-19 cases in UK Nations, per capita -->
    <g transform="translate(281.687813 27.225)scale(0.12 -0.12)">
     <defs>
      <path d="M 70.484375 47.265625 
L 54.9375 47.265625 
Q 54.046875 53.265625 49.8125 56.6875 
Q 45.59375 60.125 39.28125 60.125 
Q 30.828125 60.125 25.734375 53.921875 
Q 20.640625 47.734375 20.640625 36.359375 
Q 20.640625 24.71875 25.765625 18.65625 
Q 30.890625 12.609375 39.171875 12.609375 
Q 45.3125 12.609375 49.578125 15.8125 
Q 53.84375 19.03125 54.9375 24.859375 
L 70.484375 24.78125 
Q 69.671875 18.109375 65.734375 12.21875 
Q 61.796875 6.328125 55.03125 2.65625 
Q 48.265625 -1 38.921875 -1 
Q 29.1875 -1 21.53125 3.40625 
Q 13.890625 7.8125 9.46875 16.15625 
Q 5.046875 24.5 5.046875 36.359375 
Q 5.046875 48.265625 9.515625 56.609375 
Q 14 64.953125 21.65625 69.328125 
Q 29.328125 73.71875 38.921875 73.71875 
Q 47.34375 73.71875 54.109375 70.609375 
Q 60.875 67.5 65.1875 61.59375 
Q 69.5 55.6875 70.484375 47.265625 
z
" id="Inter-Bold-67"/>
      <path d="M 73.15625 36.359375 
Q 73.15625 24.46875 68.65625 16.125 
Q 64.171875 7.78125 56.46875 3.390625 
Q 48.765625 -1 39.09375 -1 
Q 29.40625 -1 21.703125 3.40625 
Q 14 7.8125 9.515625 16.171875 
Q 5.046875 24.53125 5.046875 36.359375 
Q 5.046875 48.265625 9.515625 56.609375 
Q 14 64.953125 21.703125 69.328125 
Q 29.40625 73.71875 39.09375 73.71875 
Q 48.765625 73.71875 56.46875 69.328125 
Q 64.171875 64.953125 68.65625 56.609375 
Q 73.15625 48.265625 73.15625 36.359375 
z
M 57.5625 36.359375 
Q 57.5625 47.9375 52.515625 54.03125 
Q 47.484375 60.125 39.09375 60.125 
Q 30.71875 60.125 25.671875 54.03125 
Q 20.640625 47.9375 20.640625 36.359375 
Q 20.640625 24.828125 25.671875 18.71875 
Q 30.71875 12.609375 39.09375 12.609375 
Q 47.484375 12.609375 52.515625 18.71875 
Q 57.5625 24.828125 57.5625 36.359375 
z
" id="Inter-Bold-79"/>
      <path d="M 19.46875 72.734375 
L 37.046875 17.46875 
L 37.71875 17.46875 
L 55.328125 72.734375 
L 72.375 72.734375 
L 47.296875 0 
L 27.484375 0 
L 2.375 72.734375 
z
" id="Inter-Bold-86"/>
      <path d="M 21.703125 72.734375 
L 21.703125 0 
L 6.328125 0 
L 6.328125 72.734375 
z
" id="Inter-Bold-73"/>
      <path d="M 32.109375 0 
L 6.328125 0 
L 6.328125 72.734375 
L 32.3125 72.734375 
Q 43.296875 72.734375 51.21875 68.375 
Q 59.15625 64.03125 63.421875 55.890625 
Q 67.6875 47.765625 67.6875 36.4375 
Q 67.6875 25.078125 63.40625 16.90625 
Q 59.125 8.734375 51.15625 4.359375 
Q 43.1875 0 32.109375 0 
z
M 21.703125 13.171875 
L 31.46875 13.171875 
Q 41.734375 13.171875 47.03125 18.703125 
Q 52.34375 24.25 52.34375 36.4375 
Q 52.34375 48.546875 47.03125 54.046875 
Q 41.734375 59.546875 31.5 59.546875 
L 21.703125 59.546875 
z
" id="Inter-Bold-68"/>
      <path d="M 40.015625 35.859375 
L 40.015625 23.859375 
L 6.859375 23.859375 
L 6.859375 35.859375 
z
" id="Inter-Bold-45"/>
      <path d="M 36.015625 72.734375 
L 36.015625 0 
L 20.671875 0 
L 20.671875 53.90625 
L 20 53.90625 
Q 18.828125 52.09375 15.015625 50.296875 
Q 11.21875 48.515625 5.1875 48.515625 
L 5.1875 60.71875 
Q 9.875 60.71875 13.390625 62.796875 
Q 16.90625 64.875 18.890625 67.703125 
Q 20.875 70.53125 20.953125 72.734375 
z
" id="Inter-Bold-49"/>
      <path d="M 32.203125 73.9375 
Q 37.828125 73.9375 43.015625 72.0625 
Q 48.21875 70.203125 52.3125 66.046875 
Q 56.421875 61.890625 58.84375 55.046875 
Q 61.265625 48.21875 61.265625 38.25 
Q 61.265625 25.921875 57.59375 17.125 
Q 53.9375 8.34375 47.3125 3.671875 
Q 40.703125 -1 31.671875 -1 
Q 24.390625 -1 18.8125 1.828125 
Q 13.25 4.65625 9.859375 9.53125 
Q 6.46875 14.421875 5.75 20.53125 
L 20.921875 20.53125 
Q 21.8125 16.546875 24.640625 14.359375 
Q 27.484375 12.1875 31.671875 12.1875 
Q 38.78125 12.1875 42.46875 18.375 
Q 46.171875 24.578125 46.203125 35.375 
L 45.703125 35.375 
Q 43.296875 30.578125 38.328125 27.84375 
Q 33.375 25.109375 27.375 25.109375 
Q 20.953125 25.109375 15.875 28.140625 
Q 10.796875 31.171875 7.90625 36.46875 
Q 5.015625 41.765625 5.046875 48.578125 
Q 5.015625 55.96875 8.421875 61.703125 
Q 11.828125 67.4375 17.953125 70.703125 
Q 24.078125 73.96875 32.203125 73.9375 
z
M 32.3125 61.859375 
Q 26.953125 61.859375 23.4375 58.15625 
Q 19.921875 54.46875 19.953125 49 
Q 19.921875 43.609375 23.375 39.921875 
Q 26.84375 36.25 32.171875 36.25 
Q 35.6875 36.25 38.515625 37.984375 
Q 41.34375 39.734375 42.984375 42.640625 
Q 44.640625 45.5625 44.671875 49.078125 
Q 44.640625 52.59375 43.015625 55.484375 
Q 41.40625 58.375 38.640625 60.109375 
Q 35.875 61.859375 32.3125 61.859375 
z
" id="Inter-Bold-57"/>
      <path id="Inter-Bold-32"/>
      <path d="M 30.6875 -1.0625 
Q 22.296875 -1.0625 16.28125 2.5 
Q 10.265625 6.078125 7.046875 12.421875 
Q 3.84375 18.78125 3.84375 27.0625 
Q 3.84375 35.4375 7.078125 41.78125 
Q 10.328125 48.125 16.328125 51.6875 
Q 22.34375 55.25 30.609375 55.25 
Q 37.75 55.25 43.125 52.65625 
Q 48.515625 50.078125 51.609375 45.390625 
Q 54.71875 40.703125 55.046875 34.375 
L 40.765625 34.375 
Q 40.171875 38.453125 37.59375 40.953125 
Q 35.015625 43.46875 30.859375 43.46875 
Q 25.609375 43.46875 22.40625 39.234375 
Q 19.21875 35.015625 19.21875 27.265625 
Q 19.21875 19.453125 22.390625 15.171875 
Q 25.5625 10.90625 30.859375 10.90625 
Q 34.765625 10.90625 37.421875 13.265625 
Q 40.09375 15.625 40.765625 20 
L 55.046875 20 
Q 54.6875 13.75 51.640625 8.984375 
Q 48.609375 4.21875 43.28125 1.578125 
Q 37.96875 -1.0625 30.6875 -1.0625 
z
" id="Inter-Bold-99"/>
      <path d="M 21.59375 -1.03125 
Q 13.78125 -1.03125 8.625 3.046875 
Q 3.484375 7.140625 3.484375 15.234375 
Q 3.484375 21.34375 6.359375 24.8125 
Q 9.234375 28.296875 13.90625 29.90625 
Q 18.578125 31.53125 23.96875 32.03125 
Q 31.078125 32.734375 34.125 33.515625 
Q 37.1875 34.296875 37.1875 36.9375 
L 37.1875 37.140625 
Q 37.1875 40.515625 35.0625 42.359375 
Q 32.953125 44.21875 29.078125 44.21875 
Q 25 44.21875 22.578125 42.4375 
Q 20.171875 40.65625 19.390625 37.921875 
L 5.40625 39.0625 
Q 6.96875 46.515625 13.15625 50.875 
Q 19.359375 55.25 29.15625 55.25 
Q 35.234375 55.25 40.515625 53.328125 
Q 45.8125 51.421875 49.0625 47.34375 
Q 52.3125 43.28125 52.3125 36.796875 
L 52.3125 0 
L 37.96875 0 
L 37.96875 7.5625 
L 37.53125 7.5625 
Q 35.546875 3.765625 31.578125 1.359375 
Q 27.625 -1.03125 21.59375 -1.03125 
z
M 25.921875 9.40625 
Q 30.890625 9.40625 34.078125 12.296875 
Q 37.28125 15.203125 37.28125 19.5 
L 37.28125 25.28125 
Q 36.40625 24.6875 34.53125 24.21875 
Q 32.671875 23.75 30.5625 23.40625 
Q 28.453125 23.078125 26.78125 22.828125 
Q 22.796875 22.265625 20.359375 20.59375 
Q 17.9375 18.921875 17.9375 15.734375 
Q 17.9375 12.609375 20.1875 11 
Q 22.4375 9.40625 25.921875 9.40625 
z
" id="Inter-Bold-97"/>
      <path d="M 51.421875 38.984375 
L 37.578125 38.140625 
Q 37 40.765625 34.6875 42.640625 
Q 32.390625 44.53125 28.453125 44.53125 
Q 24.9375 44.53125 22.5 43.046875 
Q 20.0625 41.578125 20.09375 39.140625 
Q 20.0625 37.1875 21.640625 35.828125 
Q 23.21875 34.484375 27.03125 33.671875 
L 36.890625 31.671875 
Q 52.625 28.4375 52.671875 16.90625 
Q 52.671875 11.546875 49.515625 7.484375 
Q 46.375 3.4375 40.90625 1.1875 
Q 35.4375 -1.0625 28.375 -1.0625 
Q 17.546875 -1.0625 11.109375 3.453125 
Q 4.6875 7.984375 3.625 15.796875 
L 18.5 16.578125 
Q 19.21875 13.25 21.78125 11.546875 
Q 24.359375 9.84375 28.40625 9.84375 
Q 32.390625 9.84375 34.8125 11.40625 
Q 37.25 12.96875 37.28125 15.375 
Q 37.1875 19.421875 30.296875 20.8125 
L 20.84375 22.6875 
Q 5.015625 25.859375 5.078125 38.28125 
Q 5.046875 46.171875 11.375 50.703125 
Q 17.71875 55.25 28.203125 55.25 
Q 38.53125 55.25 44.46875 50.875 
Q 50.421875 46.515625 51.421875 38.984375 
z
" id="Inter-Bold-115"/>
      <path d="M 30.890625 -1.0625 
Q 22.515625 -1.0625 16.4375 2.359375 
Q 10.375 5.78125 7.109375 12.078125 
Q 3.84375 18.390625 3.84375 27.03125 
Q 3.84375 35.4375 7.109375 41.796875 
Q 10.375 48.15625 16.3125 51.703125 
Q 22.265625 55.25 30.296875 55.25 
Q 37.5 55.25 43.296875 52.1875 
Q 49.109375 49.140625 52.515625 42.984375 
Q 55.9375 36.828125 55.9375 27.5625 
L 55.9375 23.40625 
L 18.78125 23.40625 
L 18.78125 23.359375 
Q 18.78125 17.265625 22.125 13.75 
Q 25.46875 10.234375 31.140625 10.234375 
Q 34.9375 10.234375 37.703125 11.828125 
Q 40.484375 13.421875 41.625 16.546875 
L 55.609375 15.625 
Q 54.015625 8.03125 47.515625 3.484375 
Q 41.015625 -1.0625 30.890625 -1.0625 
z
M 18.78125 32.78125 
L 41.6875 32.78125 
Q 41.65625 37.640625 38.5625 40.796875 
Q 35.484375 43.96875 30.546875 43.96875 
Q 25.5 43.96875 22.265625 40.6875 
Q 19.03125 37.421875 18.78125 32.78125 
z
" id="Inter-Bold-101"/>
      <path d="M 6.03125 0 
L 6.03125 54.546875 
L 21.171875 54.546875 
L 21.171875 0 
z
M 13.6875 61.578125 
Q 10.34375 61.578125 7.921875 63.828125 
Q 5.515625 66.09375 5.515625 69.25 
Q 5.515625 72.40625 7.921875 74.640625 
Q 10.34375 76.875 13.6875 76.875 
Q 17.0625 76.875 19.46875 74.640625 
Q 21.890625 72.40625 21.890625 69.25 
Q 21.890625 66.09375 19.46875 63.828125 
Q 17.0625 61.578125 13.6875 61.578125 
z
" id="Inter-Bold-105"/>
      <path d="M 21.171875 31.53125 
L 21.171875 0 
L 6.03125 0 
L 6.03125 54.546875 
L 20.453125 54.546875 
L 20.453125 44.921875 
L 21.09375 44.921875 
Q 22.9375 49.6875 27.171875 52.46875 
Q 31.421875 55.25 37.5 55.25 
Q 46.03125 55.25 51.171875 49.765625 
Q 56.328125 44.28125 56.328125 34.734375 
L 56.328125 0 
L 41.1875 0 
L 41.1875 32.03125 
Q 41.234375 37.03125 38.640625 39.859375 
Q 36.046875 42.6875 31.5 42.6875 
Q 26.921875 42.6875 24.0625 39.75 
Q 21.203125 36.828125 21.171875 31.53125 
z
" id="Inter-Bold-110"/>
      <path d="M 51.34375 72.734375 
L 66.625 72.734375 
L 66.625 24.640625 
Q 66.625 16.40625 62.75 10.671875 
Q 58.875 4.9375 52.078125 1.953125 
Q 45.28125 -1.03125 36.46875 -1.03125 
Q 27.671875 -1.03125 20.84375 1.953125 
Q 14.03125 4.9375 10.171875 10.671875 
Q 6.328125 16.40625 6.328125 24.640625 
L 6.328125 72.734375 
L 21.703125 72.734375 
L 21.703125 25.171875 
Q 21.703125 19.359375 25.90625 16.015625 
Q 30.109375 12.671875 36.46875 12.671875 
Q 42.9375 12.671875 47.140625 16.015625 
Q 51.34375 19.359375 51.34375 25.171875 
z
" id="Inter-Bold-85"/>
      <path d="M 6.328125 0 
L 6.328125 72.734375 
L 21.703125 72.734375 
L 21.703125 40.65625 
L 22.65625 40.65625 
L 48.828125 72.734375 
L 67.265625 72.734375 
L 40.265625 40.15625 
L 67.578125 0 
L 49.1875 0 
L 29.265625 29.90625 
L 21.703125 20.671875 
L 21.703125 0 
z
" id="Inter-Bold-75"/>
      <path d="M 67.15625 72.734375 
L 67.15625 0 
L 53.875 0 
L 22.234375 45.78125 
L 21.703125 45.78125 
L 21.703125 0 
L 6.328125 0 
L 6.328125 72.734375 
L 19.8125 72.734375 
L 51.203125 26.984375 
L 51.84375 26.984375 
L 51.84375 72.734375 
z
" id="Inter-Bold-78"/>
      <path d="M 35.046875 54.546875 
L 35.046875 43.1875 
L 24.78125 43.1875 
L 24.78125 16.765625 
Q 24.78125 13.640625 26.203125 12.53125 
Q 27.625 11.4375 29.90625 11.4375 
Q 30.96875 11.4375 32.03125 11.625 
Q 33.09375 11.828125 33.671875 11.9375 
L 36.046875 0.671875 
Q 34.90625 0.3125 32.84375 -0.15625 
Q 30.796875 -0.640625 27.84375 -0.75 
Q 19.609375 -1.09375 14.609375 2.828125 
Q 9.625 6.75 9.65625 14.765625 
L 9.65625 43.1875 
L 2.203125 43.1875 
L 2.203125 54.546875 
L 9.65625 54.546875 
L 9.65625 67.609375 
L 24.78125 67.609375 
L 24.78125 54.546875 
z
" id="Inter-Bold-116"/>
      <path d="M 30.6875 -1.0625 
Q 22.40625 -1.0625 16.390625 2.46875 
Q 10.375 6 7.109375 12.328125 
Q 3.84375 18.671875 3.84375 27.0625 
Q 3.84375 35.515625 7.109375 41.84375 
Q 10.375 48.1875 16.390625 51.71875 
Q 22.40625 55.25 30.6875 55.25 
Q 38.953125 55.25 44.96875 51.71875 
Q 51 48.1875 54.265625 41.84375 
Q 57.53125 35.515625 57.53125 27.0625 
Q 57.53125 18.671875 54.265625 12.328125 
Q 51 6 44.96875 2.46875 
Q 38.953125 -1.0625 30.6875 -1.0625 
z
M 30.75 10.65625 
Q 36.359375 10.65625 39.25 15.34375 
Q 42.15625 20.03125 42.15625 27.171875 
Q 42.15625 34.296875 39.25 39 
Q 36.359375 43.71875 30.75 43.71875 
Q 25.03125 43.71875 22.125 39 
Q 19.21875 34.296875 19.21875 27.171875 
Q 19.21875 20.03125 22.125 15.34375 
Q 25.03125 10.65625 30.75 10.65625 
z
" id="Inter-Bold-111"/>
      <path d="M 22.484375 9.9375 
L 22.09375 6.03125 
Q 21.625 1.34375 20.328125 -3.3125 
Q 19.03125 -7.984375 17.625 -11.78125 
Q 16.234375 -15.59375 15.375 -17.75 
L 5.578125 -17.75 
Q 6.109375 -15.65625 7.03125 -11.921875 
Q 7.953125 -8.203125 8.765625 -3.53125 
Q 9.59375 1.140625 9.796875 5.96875 
L 9.984375 9.9375 
z
" id="Inter-Bold-44"/>
      <path d="M 6.03125 -20.453125 
L 6.03125 54.546875 
L 20.953125 54.546875 
L 20.953125 45.390625 
L 21.625 45.390625 
Q 22.65625 47.625 24.53125 49.890625 
Q 26.421875 52.171875 29.5 53.703125 
Q 32.59375 55.25 37.140625 55.25 
Q 43.140625 55.25 48.140625 52.140625 
Q 53.15625 49.046875 56.1875 42.8125 
Q 59.234375 36.578125 59.234375 27.203125 
Q 59.234375 18.078125 56.28125 11.8125 
Q 53.34375 5.546875 48.328125 2.328125 
Q 43.328125 -0.890625 37.109375 -0.890625 
Q 32.703125 -0.890625 29.625 0.5625 
Q 26.5625 2.03125 24.625 4.25 
Q 22.6875 6.46875 21.625 8.734375 
L 21.171875 8.734375 
L 21.171875 -20.453125 
z
M 20.84375 27.265625 
Q 20.84375 20 23.84375 15.578125 
Q 26.84375 11.15625 32.3125 11.15625 
Q 37.890625 11.15625 40.828125 15.640625 
Q 43.78125 20.140625 43.78125 27.265625 
Q 43.78125 34.375 40.84375 38.796875 
Q 37.921875 43.21875 32.3125 43.21875 
Q 26.8125 43.21875 23.828125 38.90625 
Q 20.84375 34.59375 20.84375 27.265625 
z
" id="Inter-Bold-112"/>
      <path d="M 6.03125 0 
L 6.03125 54.546875 
L 20.703125 54.546875 
L 20.703125 45.03125 
L 21.265625 45.03125 
Q 22.765625 50.109375 26.265625 52.71875 
Q 29.765625 55.328125 34.375 55.328125 
Q 36.578125 55.328125 38.453125 54.796875 
Q 40.34375 54.265625 41.828125 53.34375 
L 37.28125 40.84375 
Q 36.21875 41.375 34.953125 41.734375 
Q 33.703125 42.109375 32.140625 42.109375 
Q 27.5625 42.109375 24.375 38.984375 
Q 21.203125 35.859375 21.171875 30.859375 
L 21.171875 0 
z
" id="Inter-Bold-114"/>
     </defs>
     <use xlink:href="#Inter-Bold-67"/>
     <use x="75.213089" xlink:href="#Inter-Bold-79"/>
     <use x="153.409134" xlink:href="#Inter-Bold-86"/>
     <use x="228.196075" xlink:href="#Inter-Bold-73"/>
     <use x="256.250061" xlink:href="#Inter-Bold-68"/>
     <use x="328.977356" xlink:href="#Inter-Bold-45"/>
     <use x="375.852371" xlink:href="#Inter-Bold-49"/>
     <use x="423.260056" xlink:href="#Inter-Bold-57"/>
     <use x="489.275696" xlink:href="#Inter-Bold-32"/>
     <use x="512.464615" xlink:href="#Inter-Bold-99"/>
     <use x="571.200424" xlink:href="#Inter-Bold-97"/>
     <use x="629.225998" xlink:href="#Inter-Bold-115"/>
     <use x="685.404984" xlink:href="#Inter-Bold-101"/>
     <use x="745.170624" xlink:href="#Inter-Bold-115"/>
     <use x="801.349609" xlink:href="#Inter-Bold-32"/>
     <use x="824.538528" xlink:href="#Inter-Bold-105"/>
     <use x="851.740234" xlink:href="#Inter-Bold-110"/>
     <use x="913.920639" xlink:href="#Inter-Bold-32"/>
     <use x="937.109558" xlink:href="#Inter-Bold-85"/>
     <use x="1010.049911" xlink:href="#Inter-Bold-75"/>
     <use x="1079.013" xlink:href="#Inter-Bold-32"/>
     <use x="1102.20192" xlink:href="#Inter-Bold-78"/>
     <use x="1175.710464" xlink:href="#Inter-Bold-97"/>
     <use x="1233.736038" xlink:href="#Inter-Bold-116"/>
     <use x="1272.58548" xlink:href="#Inter-Bold-105"/>
     <use x="1299.787186" xlink:href="#Inter-Bold-111"/>
     <use x="1361.150833" xlink:href="#Inter-Bold-110"/>
     <use x="1423.331238" xlink:href="#Inter-Bold-115"/>
     <use x="1479.510223" xlink:href="#Inter-Bold-44"/>
     <use x="1509.801422" xlink:href="#Inter-Bold-32"/>
     <use x="1532.990341" xlink:href="#Inter-Bold-112"/>
     <use x="1596.236099" xlink:href="#Inter-Bold-101"/>
     <use x="1656.00174" xlink:href="#Inter-Bold-114"/>
     <use x="1698.863968" xlink:href="#Inter-Bold-32"/>
     <use x="1722.052887" xlink:href="#Inter-Bold-99"/>
     <use x="1780.788696" xlink:href="#Inter-Bold-97"/>
     <use x="1838.81427" xlink:href="#Inter-Bold-112"/>
     <use x="1902.060028" xlink:href="#Inter-Bold-105"/>
     <use x="1929.261734" xlink:href="#Inter-Bold-116"/>
     <use x="1968.111176" xlink:href="#Inter-Bold-97"/>
    </g>
   </g>
   <g id="legend_1">
    <g id="patch_4">
     <path d="M 75.460938 98.614063 
L 185.034375 98.614063 
Q 187.034375 98.614063 187.034375 96.614063 
L 187.034375 40.225 
Q 187.034375 38.225 185.034375 38.225 
L 75.460938 38.225 
Q 73.460938 38.225 73.460938 40.225 
L 73.460938 96.614063 
Q 73.460938 98.614063 75.460938 98.614063 
z
" style="fill:#ffffff;opacity:0.8;stroke:#cccccc;stroke-linejoin:miter;"/>
    </g>
    <g id="line2d_31">
     <path d="M 77.460938 45.998438 
L 97.460938 45.998438 
" style="fill:none;stroke:#d4351c;stroke-linecap:square;stroke-width:2;"/>
    </g>
    <g id="line2d_32"/>
    <g id="text_22">
     <!-- Wales -->
     <g transform="translate(105.460938 49.498438)scale(0.1 -0.1)">
      <defs>
       <path d="M 22.015625 0 
L 2.125 72.734375 
L 11.078125 72.734375 
L 26.28125 13.5 
L 26.984375 13.5 
L 42.46875 72.734375 
L 52.421875 72.734375 
L 67.90625 13.5 
L 68.609375 13.5 
L 83.8125 72.734375 
L 92.75 72.734375 
L 72.875 0 
L 63.78125 0 
L 47.734375 57.953125 
L 47.15625 57.953125 
L 31.109375 0 
z
" id="Inter-Regular-87"/>
      </defs>
      <use xlink:href="#Inter-Regular-87"/>
      <use x="94.886383" xlink:href="#Inter-Regular-97"/>
      <use x="151.278442" xlink:href="#Inter-Regular-108"/>
      <use x="175.000031" xlink:href="#Inter-Regular-101"/>
      <use x="233.238678" xlink:href="#Inter-Regular-115"/>
     </g>
    </g>
    <g id="line2d_33">
     <path d="M 77.460938 60.317188 
L 97.460938 60.317188 
" style="fill:none;stroke:#003078;stroke-linecap:square;stroke-width:2;"/>
    </g>
    <g id="line2d_34"/>
    <g id="text_23">
     <!-- Scotland -->
     <g transform="translate(105.460938 63.817188)scale(0.1 -0.1)">
      <use xlink:href="#Inter-Regular-83"/>
      <use x="63.778427" xlink:href="#Inter-Regular-99"/>
      <use x="119.602295" xlink:href="#Inter-Regular-111"/>
      <use x="179.261398" xlink:href="#Inter-Regular-116"/>
      <use x="215.625046" xlink:href="#Inter-Regular-108"/>
      <use x="239.346634" xlink:href="#Inter-Regular-97"/>
      <use x="295.738693" xlink:href="#Inter-Regular-110"/>
      <use x="354.261429" xlink:href="#Inter-Regular-100"/>
     </g>
    </g>
    <g id="line2d_35">
     <path d="M 77.460938 74.635938 
L 97.460938 74.635938 
" style="fill:none;stroke:#ffdd00;stroke-linecap:square;stroke-width:2;"/>
    </g>
    <g id="line2d_36"/>
    <g id="text_24">
     <!-- Northern Ireland -->
     <g transform="translate(105.460938 78.135938)scale(0.1 -0.1)">
      <defs>
       <path d="M 16.046875 32.8125 
L 16.046875 0 
L 7.671875 0 
L 7.671875 72.734375 
L 16.046875 72.734375 
L 16.046875 46.015625 
L 16.765625 46.015625 
Q 18.6875 50.25 22.53125 52.75 
Q 26.390625 55.25 32.8125 55.25 
Q 41.1875 55.25 46.296875 50.203125 
Q 51.421875 45.171875 51.421875 34.65625 
L 51.421875 0 
L 43.046875 0 
L 43.046875 34.09375 
Q 43.046875 40.59375 39.6875 44.15625 
Q 36.328125 47.734375 30.40625 47.734375 
Q 24.1875 47.734375 20.109375 43.84375 
Q 16.046875 39.953125 16.046875 32.8125 
z
" id="Inter-Regular-104"/>
       <path d="M 17.609375 72.734375 
L 17.609375 0 
L 8.8125 0 
L 8.8125 72.734375 
z
" id="Inter-Regular-73"/>
      </defs>
      <use xlink:href="#Inter-Regular-78"/>
      <use x="75.284103" xlink:href="#Inter-Regular-111"/>
      <use x="134.943207" xlink:href="#Inter-Regular-114"/>
      <use x="173.295486" xlink:href="#Inter-Regular-116"/>
      <use x="209.659134" xlink:href="#Inter-Regular-104"/>
      <use x="268.750061" xlink:href="#Inter-Regular-101"/>
      <use x="326.988708" xlink:href="#Inter-Regular-114"/>
      <use x="365.340988" xlink:href="#Inter-Regular-110"/>
      <use x="423.863724" xlink:href="#Inter-Regular-32"/>
      <use x="451.988724" xlink:href="#Inter-Regular-73"/>
      <use x="478.40918" xlink:href="#Inter-Regular-114"/>
      <use x="516.761459" xlink:href="#Inter-Regular-101"/>
      <use x="575.000107" xlink:href="#Inter-Regular-108"/>
      <use x="598.721695" xlink:href="#Inter-Regular-97"/>
      <use x="655.113754" xlink:href="#Inter-Regular-110"/>
      <use x="713.63649" xlink:href="#Inter-Regular-100"/>
     </g>
    </g>
    <g id="line2d_37">
     <path d="M 77.460938 88.954688 
L 97.460938 88.954688 
" style="fill:none;stroke:#5694ca;stroke-linecap:square;stroke-width:2;"/>
    </g>
    <g id="line2d_38"/>
    <g id="text_25">
     <!-- England -->
     <g transform="translate(105.460938 92.454688)scale(0.1 -0.1)">
      <defs>
       <path d="M 8.8125 0 
L 8.8125 72.734375 
L 52.703125 72.734375 
L 52.703125 64.921875 
L 17.609375 64.921875 
L 17.609375 40.34375 
L 50.421875 40.34375 
L 50.421875 32.53125 
L 17.609375 32.53125 
L 17.609375 7.8125 
L 53.265625 7.8125 
L 53.265625 0 
z
" id="Inter-Regular-69"/>
      </defs>
      <use xlink:href="#Inter-Regular-69"/>
      <use x="59.801147" xlink:href="#Inter-Regular-110"/>
      <use x="118.323883" xlink:href="#Inter-Regular-103"/>
      <use x="179.261398" xlink:href="#Inter-Regular-108"/>
      <use x="202.982986" xlink:href="#Inter-Regular-97"/>
      <use x="259.375046" xlink:href="#Inter-Regular-110"/>
      <use x="317.897781" xlink:href="#Inter-Regular-100"/>
     </g>
    </g>
   </g>
  </g>
 </g>
 <defs>
  <clipPath id="p9b20b11df6">
   <rect height="443.52" width="669.6" x="68.460938" y="33.225"/>
  </clipPath>
 </defs>
</svg>
