<?xml version="1.0" encoding="utf-8" standalone="no"?>
<!DOCTYPE svg PUBLIC "-//W3C//DTD SVG 1.1//EN"
  "http://www.w3.org/Graphics/SVG/1.1/DTD/svg11.dtd">
<svg version="1.1" viewBox="0 0 740.804688 511.234062" xmlns="http://www.w3.org/2000/svg" xmlns:xlink="http://www.w3.org/1999/xlink">
 <metadata>
  <rdf:RDF xmlns:cc="http://creativecommons.org/ns#" xmlns:dc="http://purl.org/dc/elements/1.1/" xmlns:rdf="http://www.w3.org/1999/02/22-rdf-syntax-ns#">
   <cc:Work>
    <dc:type rdf:resource="http://purl.org/dc/dcmitype/StillImage"/>
    <dc:date>2021-08-11T16:21:59.832399</dc:date>
    <dc:format>image/svg+xml</dc:format>
    <dc:creator>
     <cc:Agent>
      <dc:title>Matplotlib v3.4.2, https://matplotlib.org/</dc:title>
     </cc:Agent>
    </dc:creator>
   </cc:Work>
  </rdf:RDF>
 </metadata>
 <defs>
  <style type="text/css">*{stroke-linecap:butt;stroke-linejoin:round;}</style>
 </defs>
 <g id="figure_1">
  <g id="patch_1">
   <path d="M 0 511.234062 
L 740.804688 511.234062 
L 740.804688 0 
L 0 0 
z
" style="fill:#ffffff;"/>
  </g>
  <g id="axes_1">
   <g id="patch_2">
    <path d="M 53.204688 476.745 
L 722.804688 476.745 
L 722.804688 33.225 
L 53.204688 33.225 
z
" style="fill:#ffffff;"/>
   </g>
   <g id="matplotlib.axis_1">
    <g id="xtick_1">
     <g id="line2d_1">
      <defs>
       <path d="M 0 0 
L 0 3.5 
" id="mcb0e77af14" style="stroke:#000000;stroke-width:0.8;"/>
      </defs>
      <g>
       <use style="stroke:#000000;stroke-width:0.8;" x="53.204688" xlink:href="#mcb0e77af14" y="476.745"/>
      </g>
     </g>
     <g id="text_1">
      <!-- 01 Mar -->
      <g transform="translate(37.167969 491.018437)scale(0.1 -0.1)">
       <defs>
        <path d="M 2000 -64 
Q 1230 -64 806 561 
Q 382 1186 382 2327 
Q 382 3459 809 4088 
Q 1236 4718 2000 4718 
Q 2764 4718 3191 4088 
Q 3618 3459 3618 2327 
Q 3618 1186 3194 561 
Q 2771 -64 2000 -64 
z
M 2000 436 
Q 2509 436 2791 927 
Q 3073 1418 3073 2327 
Q 3073 3234 2789 3730 
Q 2505 4227 2000 4227 
Q 1496 4227 1211 3730 
Q 927 3234 927 2327 
Q 927 1418 1210 927 
Q 1493 436 2000 436 
z
" id="Inter-Regular-30" transform="scale(0.015625)"/>
        <path d="M 1973 4655 
L 1973 0 
L 1409 0 
L 1409 3836 
L 1373 3836 
Q 1341 3773 1209 3692 
Q 1077 3611 868 3551 
Q 659 3491 391 3491 
L 391 3964 
Q 661 3964 859 4061 
Q 1057 4159 1190 4291 
Q 1323 4423 1392 4529 
Q 1461 4636 1473 4655 
L 1973 4655 
z
" id="Inter-Regular-31" transform="scale(0.015625)"/>
        <path id="Inter-Regular-20" transform="scale(0.015625)"/>
        <path d="M 564 4655 
L 1236 4655 
L 2818 791 
L 2873 791 
L 4455 4655 
L 5127 4655 
L 5127 0 
L 4600 0 
L 4600 3536 
L 4555 3536 
L 3100 0 
L 2591 0 
L 1136 3536 
L 1091 3536 
L 1091 0 
L 564 0 
L 564 4655 
z
" id="Inter-Regular-4d" transform="scale(0.015625)"/>
        <path d="M 1518 -82 
Q 1186 -82 916 44 
Q 646 170 486 410 
Q 327 650 327 991 
Q 327 1291 445 1478 
Q 564 1666 761 1773 
Q 959 1880 1199 1933 
Q 1439 1986 1682 2018 
Q 2000 2059 2199 2080 
Q 2398 2102 2490 2154 
Q 2582 2207 2582 2336 
L 2582 2355 
Q 2582 2691 2399 2877 
Q 2216 3064 1846 3064 
Q 1461 3064 1243 2895 
Q 1025 2727 936 2536 
L 427 2718 
Q 564 3036 792 3214 
Q 1021 3393 1292 3464 
Q 1564 3536 1827 3536 
Q 1996 3536 2215 3496 
Q 2434 3457 2640 3334 
Q 2846 3211 2982 2963 
Q 3118 2716 3118 2300 
L 3118 0 
L 2582 0 
L 2582 473 
L 2555 473 
Q 2500 359 2373 229 
Q 2246 100 2034 9 
Q 1823 -82 1518 -82 
z
M 1600 400 
Q 1918 400 2137 525 
Q 2357 650 2469 847 
Q 2582 1045 2582 1264 
L 2582 1755 
Q 2548 1714 2433 1681 
Q 2318 1648 2169 1624 
Q 2021 1600 1881 1583 
Q 1741 1566 1655 1555 
Q 1446 1527 1265 1467 
Q 1084 1407 974 1287 
Q 864 1168 864 964 
Q 864 684 1072 542 
Q 1280 400 1600 400 
z
" id="Inter-Regular-61" transform="scale(0.015625)"/>
        <path d="M 491 0 
L 491 3491 
L 1009 3491 
L 1009 2964 
L 1046 2964 
Q 1139 3223 1389 3384 
Q 1639 3545 1955 3545 
Q 2100 3545 2209 3511 
Q 2318 3477 2400 3418 
L 2218 2964 
Q 2161 2993 2085 3010 
Q 2009 3027 1909 3027 
Q 1527 3027 1277 2794 
Q 1027 2561 1027 2209 
L 1027 0 
L 491 0 
z
" id="Inter-Regular-72" transform="scale(0.015625)"/>
       </defs>
       <use xlink:href="#Inter-Regular-30"/>
       <use x="62.500015" xlink:href="#Inter-Regular-31"/>
       <use x="106.676163" xlink:href="#Inter-Regular-20"/>
       <use x="134.801163" xlink:href="#Inter-Regular-4d"/>
       <use x="225.99437" xlink:href="#Inter-Regular-61"/>
       <use x="282.386429" xlink:href="#Inter-Regular-72"/>
      </g>
     </g>
    </g>
    <g id="xtick_2">
     <g id="line2d_2">
      <g>
       <use style="stroke:#000000;stroke-width:0.8;" x="92.467684" xlink:href="#mcb0e77af14" y="476.745"/>
      </g>
     </g>
    </g>
    <g id="xtick_3">
     <g id="line2d_3">
      <g>
       <use style="stroke:#000000;stroke-width:0.8;" x="130.464132" xlink:href="#mcb0e77af14" y="476.745"/>
      </g>
     </g>
     <g id="text_2">
      <!-- 01 May -->
      <g transform="translate(113.561007 491.116875)scale(0.1 -0.1)">
       <defs>
        <path d="M 818 -1355 
Q 682 -1355 575 -1333 
Q 468 -1311 427 -1291 
L 564 -818 
Q 857 -893 1053 -814 
Q 1250 -736 1391 -345 
L 1509 -18 
L 218 3491 
L 800 3491 
L 1764 709 
L 1800 709 
L 2764 3491 
L 3346 3491 
L 1846 -564 
Q 1550 -1355 818 -1355 
z
" id="Inter-Regular-79" transform="scale(0.015625)"/>
       </defs>
       <use xlink:href="#Inter-Regular-30"/>
       <use x="62.500015" xlink:href="#Inter-Regular-31"/>
       <use x="106.676163" xlink:href="#Inter-Regular-20"/>
       <use x="134.801163" xlink:href="#Inter-Regular-4d"/>
       <use x="225.99437" xlink:href="#Inter-Regular-61"/>
       <use x="282.386429" xlink:href="#Inter-Regular-79"/>
      </g>
     </g>
    </g>
    <g id="xtick_4">
     <g id="line2d_4">
      <g>
       <use style="stroke:#000000;stroke-width:0.8;" x="169.727128" xlink:href="#mcb0e77af14" y="476.745"/>
      </g>
     </g>
    </g>
    <g id="xtick_5">
     <g id="line2d_5">
      <g>
       <use style="stroke:#000000;stroke-width:0.8;" x="207.723577" xlink:href="#mcb0e77af14" y="476.745"/>
      </g>
     </g>
     <g id="text_3">
      <!-- 01 Jul -->
      <g transform="translate(194.179827 491.018437)scale(0.1 -0.1)">
       <defs>
        <path d="M 2346 4655 
L 2909 4655 
L 2909 1327 
Q 2909 657 2549 296 
Q 2189 -64 1582 -64 
Q 1200 -64 902 76 
Q 605 216 434 475 
Q 264 734 264 1091 
L 818 1091 
Q 818 795 1034 615 
Q 1250 436 1582 436 
Q 1948 436 2147 664 
Q 2346 893 2346 1327 
L 2346 4655 
z
" id="Inter-Regular-4a" transform="scale(0.015625)"/>
        <path d="M 2691 1427 
L 2691 3491 
L 3227 3491 
L 3227 0 
L 2691 0 
L 2691 591 
L 2655 591 
Q 2532 325 2273 140 
Q 2014 -45 1618 -45 
Q 1127 -45 809 280 
Q 491 605 491 1273 
L 491 3491 
L 1027 3491 
L 1027 1309 
Q 1027 927 1242 700 
Q 1457 473 1791 473 
Q 1991 473 2199 575 
Q 2407 677 2549 888 
Q 2691 1100 2691 1427 
z
" id="Inter-Regular-75" transform="scale(0.015625)"/>
        <path d="M 1027 4655 
L 1027 0 
L 491 0 
L 491 4655 
L 1027 4655 
z
" id="Inter-Regular-6c" transform="scale(0.015625)"/>
       </defs>
       <use xlink:href="#Inter-Regular-30"/>
       <use x="62.500015" xlink:href="#Inter-Regular-31"/>
       <use x="106.676163" xlink:href="#Inter-Regular-20"/>
       <use x="134.801163" xlink:href="#Inter-Regular-4a"/>
       <use x="189.062531" xlink:href="#Inter-Regular-75"/>
       <use x="247.159134" xlink:href="#Inter-Regular-6c"/>
      </g>
     </g>
    </g>
    <g id="xtick_6">
     <g id="line2d_6">
      <g>
       <use style="stroke:#000000;stroke-width:0.8;" x="246.986573" xlink:href="#mcb0e77af14" y="476.745"/>
      </g>
     </g>
    </g>
    <g id="xtick_7">
     <g id="line2d_7">
      <g>
       <use style="stroke:#000000;stroke-width:0.8;" x="286.249569" xlink:href="#mcb0e77af14" y="476.745"/>
      </g>
     </g>
     <g id="text_4">
      <!-- 01 Sep -->
      <g transform="translate(270.362069 491.116875)scale(0.1 -0.1)">
       <defs>
        <path d="M 3109 3491 
Q 3068 3836 2777 4027 
Q 2486 4218 2064 4218 
Q 1600 4218 1318 3999 
Q 1036 3780 1036 3445 
Q 1036 3195 1189 3042 
Q 1343 2889 1553 2803 
Q 1764 2718 1936 2673 
L 2409 2545 
Q 2591 2498 2815 2414 
Q 3039 2330 3244 2185 
Q 3450 2041 3584 1816 
Q 3718 1591 3718 1264 
Q 3718 886 3521 581 
Q 3325 277 2949 97 
Q 2573 -82 2036 -82 
Q 1286 -82 845 272 
Q 405 627 364 1200 
L 946 1200 
Q 968 936 1124 764 
Q 1280 593 1519 510 
Q 1759 427 2036 427 
Q 2359 427 2616 533 
Q 2873 639 3023 828 
Q 3173 1018 3173 1273 
Q 3173 1505 3043 1650 
Q 2914 1795 2702 1886 
Q 2491 1977 2246 2045 
L 1673 2209 
Q 1127 2366 809 2657 
Q 491 2948 491 3418 
Q 491 3809 703 4101 
Q 916 4393 1276 4555 
Q 1636 4718 2082 4718 
Q 2532 4718 2882 4558 
Q 3232 4398 3437 4120 
Q 3643 3843 3655 3491 
L 3109 3491 
z
" id="Inter-Regular-53" transform="scale(0.015625)"/>
        <path d="M 1955 -73 
Q 1450 -73 1085 151 
Q 721 375 524 778 
Q 327 1182 327 1718 
Q 327 2255 524 2665 
Q 721 3075 1074 3305 
Q 1427 3536 1900 3536 
Q 2173 3536 2439 3445 
Q 2705 3355 2923 3151 
Q 3141 2948 3270 2614 
Q 3400 2280 3400 1791 
L 3400 1564 
L 866 1564 
Q 884 1005 1183 707 
Q 1482 409 1955 409 
Q 2271 409 2498 545 
Q 2725 682 2827 955 
L 3346 809 
Q 3223 414 2854 170 
Q 2486 -73 1955 -73 
z
M 866 2027 
L 2855 2027 
Q 2855 2470 2595 2762 
Q 2336 3055 1900 3055 
Q 1593 3055 1368 2911 
Q 1143 2768 1013 2533 
Q 884 2298 866 2027 
z
" id="Inter-Regular-65" transform="scale(0.015625)"/>
        <path d="M 491 -1309 
L 491 3491 
L 1009 3491 
L 1009 2936 
L 1073 2936 
Q 1132 3027 1237 3169 
Q 1343 3311 1542 3423 
Q 1741 3536 2082 3536 
Q 2523 3536 2859 3315 
Q 3196 3095 3384 2690 
Q 3573 2286 3573 1736 
Q 3573 1182 3384 776 
Q 3196 370 2861 148 
Q 2527 -73 2091 -73 
Q 1755 -73 1552 39 
Q 1350 152 1241 296 
Q 1132 441 1073 536 
L 1027 536 
L 1027 -1309 
L 491 -1309 
z
M 1018 1745 
Q 1018 1152 1276 780 
Q 1534 409 2018 409 
Q 2355 409 2581 587 
Q 2807 766 2921 1069 
Q 3036 1373 3036 1745 
Q 3036 2114 2923 2410 
Q 2811 2707 2585 2881 
Q 2359 3055 2018 3055 
Q 1527 3055 1272 2693 
Q 1018 2332 1018 1745 
z
" id="Inter-Regular-70" transform="scale(0.015625)"/>
       </defs>
       <use xlink:href="#Inter-Regular-30"/>
       <use x="62.500015" xlink:href="#Inter-Regular-31"/>
       <use x="106.676163" xlink:href="#Inter-Regular-20"/>
       <use x="134.801163" xlink:href="#Inter-Regular-53"/>
       <use x="198.57959" xlink:href="#Inter-Regular-65"/>
       <use x="256.818237" xlink:href="#Inter-Regular-70"/>
      </g>
     </g>
    </g>
    <g id="xtick_8">
     <g id="line2d_8">
      <g>
       <use style="stroke:#000000;stroke-width:0.8;" x="324.246018" xlink:href="#mcb0e77af14" y="476.745"/>
      </g>
     </g>
    </g>
    <g id="xtick_9">
     <g id="line2d_9">
      <g>
       <use style="stroke:#000000;stroke-width:0.8;" x="363.509014" xlink:href="#mcb0e77af14" y="476.745"/>
      </g>
     </g>
     <g id="text_5">
      <!-- 01 Nov -->
      <g transform="translate(347.23792 491.018437)scale(0.1 -0.1)">
       <defs>
        <path d="M 4255 4655 
L 4255 0 
L 3709 0 
L 1173 3655 
L 1127 3655 
L 1127 0 
L 564 0 
L 564 4655 
L 1109 4655 
L 3655 991 
L 3700 991 
L 3700 4655 
L 4255 4655 
z
" id="Inter-Regular-4e" transform="scale(0.015625)"/>
        <path d="M 1909 -73 
Q 1436 -73 1080 152 
Q 725 377 526 781 
Q 327 1186 327 1727 
Q 327 2273 526 2679 
Q 725 3086 1080 3311 
Q 1436 3536 1909 3536 
Q 2382 3536 2737 3311 
Q 3093 3086 3292 2679 
Q 3491 2273 3491 1727 
Q 3491 1186 3292 781 
Q 3093 377 2737 152 
Q 2382 -73 1909 -73 
z
M 1909 409 
Q 2268 409 2500 593 
Q 2732 777 2843 1077 
Q 2955 1377 2955 1727 
Q 2955 2077 2843 2379 
Q 2732 2682 2500 2868 
Q 2268 3055 1909 3055 
Q 1550 3055 1318 2868 
Q 1086 2682 975 2379 
Q 864 2077 864 1727 
Q 864 1377 975 1077 
Q 1086 777 1318 593 
Q 1550 409 1909 409 
z
" id="Inter-Regular-6f" transform="scale(0.015625)"/>
        <path d="M 3346 3491 
L 2055 0 
L 1509 0 
L 218 3491 
L 800 3491 
L 1764 709 
L 1800 709 
L 2764 3491 
L 3346 3491 
z
" id="Inter-Regular-76" transform="scale(0.015625)"/>
       </defs>
       <use xlink:href="#Inter-Regular-30"/>
       <use x="62.500015" xlink:href="#Inter-Regular-31"/>
       <use x="106.676163" xlink:href="#Inter-Regular-20"/>
       <use x="134.801163" xlink:href="#Inter-Regular-4e"/>
       <use x="210.085266" xlink:href="#Inter-Regular-6f"/>
       <use x="269.74437" xlink:href="#Inter-Regular-76"/>
      </g>
     </g>
    </g>
    <g id="xtick_10">
     <g id="line2d_10">
      <g>
       <use style="stroke:#000000;stroke-width:0.8;" x="401.505462" xlink:href="#mcb0e77af14" y="476.745"/>
      </g>
     </g>
    </g>
    <g id="xtick_11">
     <g id="line2d_11">
      <g>
       <use style="stroke:#000000;stroke-width:0.8;" x="440.768459" xlink:href="#mcb0e77af14" y="476.745"/>
      </g>
     </g>
     <g id="text_6">
      <!-- 01 Jan -->
      <g transform="translate(425.56924 491.018437)scale(0.1 -0.1)">
       <defs>
        <path d="M 1027 2100 
L 1027 0 
L 491 0 
L 491 3491 
L 1009 3491 
L 1009 2945 
L 1055 2945 
Q 1177 3211 1427 3373 
Q 1677 3536 2073 3536 
Q 2602 3536 2928 3211 
Q 3255 2886 3255 2218 
L 3255 0 
L 2718 0 
L 2718 2182 
Q 2718 2593 2504 2824 
Q 2291 3055 1918 3055 
Q 1534 3055 1280 2806 
Q 1027 2557 1027 2100 
z
" id="Inter-Regular-6e" transform="scale(0.015625)"/>
       </defs>
       <use xlink:href="#Inter-Regular-30"/>
       <use x="62.500015" xlink:href="#Inter-Regular-31"/>
       <use x="106.676163" xlink:href="#Inter-Regular-20"/>
       <use x="134.801163" xlink:href="#Inter-Regular-4a"/>
       <use x="189.062531" xlink:href="#Inter-Regular-61"/>
       <use x="245.45459" xlink:href="#Inter-Regular-6e"/>
      </g>
     </g>
    </g>
    <g id="xtick_12">
     <g id="line2d_12">
      <g>
       <use style="stroke:#000000;stroke-width:0.8;" x="480.031455" xlink:href="#mcb0e77af14" y="476.745"/>
      </g>
     </g>
    </g>
    <g id="xtick_13">
     <g id="line2d_13">
      <g>
       <use style="stroke:#000000;stroke-width:0.8;" x="515.494807" xlink:href="#mcb0e77af14" y="476.745"/>
      </g>
     </g>
     <g id="text_7">
      <!-- 01 Mar -->
      <g transform="translate(499.458088 491.018437)scale(0.1 -0.1)">
       <use xlink:href="#Inter-Regular-30"/>
       <use x="62.500015" xlink:href="#Inter-Regular-31"/>
       <use x="106.676163" xlink:href="#Inter-Regular-20"/>
       <use x="134.801163" xlink:href="#Inter-Regular-4d"/>
       <use x="225.99437" xlink:href="#Inter-Regular-61"/>
       <use x="282.386429" xlink:href="#Inter-Regular-72"/>
      </g>
     </g>
    </g>
    <g id="xtick_14">
     <g id="line2d_14">
      <g>
       <use style="stroke:#000000;stroke-width:0.8;" x="554.757803" xlink:href="#mcb0e77af14" y="476.745"/>
      </g>
     </g>
    </g>
    <g id="xtick_15">
     <g id="line2d_15">
      <g>
       <use style="stroke:#000000;stroke-width:0.8;" x="592.754251" xlink:href="#mcb0e77af14" y="476.745"/>
      </g>
     </g>
     <g id="text_8">
      <!-- 01 May -->
      <g transform="translate(575.851126 491.116875)scale(0.1 -0.1)">
       <use xlink:href="#Inter-Regular-30"/>
       <use x="62.500015" xlink:href="#Inter-Regular-31"/>
       <use x="106.676163" xlink:href="#Inter-Regular-20"/>
       <use x="134.801163" xlink:href="#Inter-Regular-4d"/>
       <use x="225.99437" xlink:href="#Inter-Regular-61"/>
       <use x="282.386429" xlink:href="#Inter-Regular-79"/>
      </g>
     </g>
    </g>
    <g id="xtick_16">
     <g id="line2d_16">
      <g>
       <use style="stroke:#000000;stroke-width:0.8;" x="632.017248" xlink:href="#mcb0e77af14" y="476.745"/>
      </g>
     </g>
    </g>
    <g id="xtick_17">
     <g id="line2d_17">
      <g>
       <use style="stroke:#000000;stroke-width:0.8;" x="670.013696" xlink:href="#mcb0e77af14" y="476.745"/>
      </g>
     </g>
     <g id="text_9">
      <!-- 01 Jul -->
      <g transform="translate(656.469946 491.018437)scale(0.1 -0.1)">
       <use xlink:href="#Inter-Regular-30"/>
       <use x="62.500015" xlink:href="#Inter-Regular-31"/>
       <use x="106.676163" xlink:href="#Inter-Regular-20"/>
       <use x="134.801163" xlink:href="#Inter-Regular-4a"/>
       <use x="189.062531" xlink:href="#Inter-Regular-75"/>
       <use x="247.159134" xlink:href="#Inter-Regular-6c"/>
      </g>
     </g>
    </g>
    <g id="xtick_18">
     <g id="line2d_18">
      <g>
       <use style="stroke:#000000;stroke-width:0.8;" x="709.276692" xlink:href="#mcb0e77af14" y="476.745"/>
      </g>
     </g>
    </g>
   </g>
   <g id="matplotlib.axis_2">
    <g id="ytick_1">
     <g id="line2d_19">
      <path clip-path="url(#pdf731132e7)" d="M 53.204688 476.745 
L 722.804688 476.745 
" style="fill:none;stroke:#e5e5e5;stroke-linecap:square;stroke-width:0.8;"/>
     </g>
     <g id="line2d_20">
      <defs>
       <path d="M 0 0 
L -3.5 0 
" id="ma6bef65692" style="stroke:#000000;stroke-width:0.8;"/>
      </defs>
      <g>
       <use style="stroke:#000000;stroke-width:0.8;" x="53.204688" xlink:href="#ma6bef65692" y="476.745"/>
      </g>
     </g>
     <g id="text_10">
      <!-- 0% -->
      <g transform="translate(31.829688 480.381719)scale(0.1 -0.1)">
       <defs>
        <path d="M 2855 873 
L 2855 1118 
Q 2855 1373 2960 1585 
Q 3066 1798 3269 1926 
Q 3473 2055 3764 2055 
Q 4059 2055 4259 1926 
Q 4459 1798 4561 1585 
Q 4664 1373 4664 1118 
L 4664 873 
Q 4664 618 4560 405 
Q 4457 193 4256 64 
Q 4055 -64 3764 -64 
Q 3468 -64 3266 64 
Q 3064 193 2959 405 
Q 2855 618 2855 873 
z
M 536 3536 
L 536 3782 
Q 536 4036 642 4248 
Q 748 4461 951 4589 
Q 1155 4718 1446 4718 
Q 1741 4718 1941 4589 
Q 2141 4461 2243 4248 
Q 2346 4036 2346 3782 
L 2346 3536 
Q 2346 3282 2242 3069 
Q 2139 2857 1937 2728 
Q 1736 2600 1446 2600 
Q 1150 2600 948 2728 
Q 746 2857 641 3069 
Q 536 3282 536 3536 
z
M 709 0 
L 3909 4655 
L 4427 4655 
L 1227 0 
L 709 0 
z
M 3318 1118 
L 3318 873 
Q 3318 661 3418 494 
Q 3518 327 3764 327 
Q 4002 327 4101 494 
Q 4200 661 4200 873 
L 4200 1118 
Q 4200 1330 4104 1497 
Q 4009 1664 3764 1664 
Q 3525 1664 3421 1497 
Q 3318 1330 3318 1118 
z
M 1000 3782 
L 1000 3536 
Q 1000 3325 1100 3158 
Q 1200 2991 1446 2991 
Q 1684 2991 1783 3158 
Q 1882 3325 1882 3536 
L 1882 3782 
Q 1882 3993 1786 4160 
Q 1691 4327 1446 4327 
Q 1207 4327 1103 4160 
Q 1000 3993 1000 3782 
z
" id="Inter-Regular-25" transform="scale(0.015625)"/>
       </defs>
       <use xlink:href="#Inter-Regular-30"/>
       <use x="62.500015" xlink:href="#Inter-Regular-25"/>
      </g>
     </g>
    </g>
    <g id="ytick_2">
     <g id="line2d_21">
      <path clip-path="url(#pdf731132e7)" d="M 53.204688 386.657198 
L 722.804688 386.657198 
" style="fill:none;stroke:#e5e5e5;stroke-linecap:square;stroke-width:0.8;"/>
     </g>
     <g id="line2d_22">
      <g>
       <use style="stroke:#000000;stroke-width:0.8;" x="53.204688" xlink:href="#ma6bef65692" y="386.657198"/>
      </g>
     </g>
     <g id="text_11">
      <!-- 2% -->
      <g transform="translate(32.028125 390.293917)scale(0.1 -0.1)">
       <defs>
        <path d="M 482 0 
L 482 409 
L 2018 2091 
Q 2289 2386 2464 2605 
Q 2639 2825 2724 3019 
Q 2809 3214 2809 3427 
Q 2809 3795 2553 4011 
Q 2298 4227 1918 4227 
Q 1514 4227 1275 3985 
Q 1036 3743 1036 3345 
L 500 3345 
Q 500 3755 688 4064 
Q 877 4373 1203 4545 
Q 1530 4718 1936 4718 
Q 2346 4718 2661 4545 
Q 2977 4373 3156 4079 
Q 3336 3786 3336 3427 
Q 3336 3170 3244 2926 
Q 3152 2682 2926 2383 
Q 2700 2084 2300 1655 
L 1255 536 
L 1255 500 
L 3418 500 
L 3418 0 
L 482 0 
z
" id="Inter-Regular-32" transform="scale(0.015625)"/>
       </defs>
       <use xlink:href="#Inter-Regular-32"/>
       <use x="60.511383" xlink:href="#Inter-Regular-25"/>
      </g>
     </g>
    </g>
    <g id="ytick_3">
     <g id="line2d_23">
      <path clip-path="url(#pdf731132e7)" d="M 53.204688 296.569396 
L 722.804688 296.569396 
" style="fill:none;stroke:#e5e5e5;stroke-linecap:square;stroke-width:0.8;"/>
     </g>
     <g id="line2d_24">
      <g>
       <use style="stroke:#000000;stroke-width:0.8;" x="53.204688" xlink:href="#ma6bef65692" y="296.569396"/>
      </g>
     </g>
     <g id="text_12">
      <!-- 4% -->
      <g transform="translate(31.659375 300.206115)scale(0.1 -0.1)">
       <defs>
        <path d="M 373 955 
L 373 1418 
L 2418 4655 
L 3100 4655 
L 3100 1455 
L 3736 1455 
L 3736 955 
L 3100 955 
L 3100 0 
L 2564 0 
L 2564 955 
L 373 955 
z
M 2564 1455 
L 2564 3936 
L 2527 3936 
L 982 1491 
L 982 1455 
L 2564 1455 
z
" id="Inter-Regular-34" transform="scale(0.015625)"/>
       </defs>
       <use xlink:href="#Inter-Regular-34"/>
       <use x="64.204559" xlink:href="#Inter-Regular-25"/>
      </g>
     </g>
    </g>
    <g id="ytick_4">
     <g id="line2d_25">
      <path clip-path="url(#pdf731132e7)" d="M 53.204688 206.481594 
L 722.804688 206.481594 
" style="fill:none;stroke:#e5e5e5;stroke-linecap:square;stroke-width:0.8;"/>
     </g>
     <g id="line2d_26">
      <g>
       <use style="stroke:#000000;stroke-width:0.8;" x="53.204688" xlink:href="#ma6bef65692" y="206.481594"/>
      </g>
     </g>
     <g id="text_13">
      <!-- 6% -->
      <g transform="translate(31.84375 210.118313)scale(0.1 -0.1)">
       <defs>
        <path d="M 2027 -64 
Q 1741 -59 1454 45 
Q 1168 150 932 399 
Q 696 648 552 1074 
Q 409 1500 409 2145 
Q 409 3386 861 4056 
Q 1314 4727 2100 4727 
Q 2686 4727 3073 4384 
Q 3461 4041 3546 3491 
L 2991 3491 
Q 2914 3811 2691 4019 
Q 2468 4227 2100 4227 
Q 1559 4227 1249 3755 
Q 939 3284 936 2427 
L 973 2427 
Q 1164 2716 1461 2880 
Q 1759 3045 2118 3045 
Q 2518 3045 2850 2846 
Q 3182 2648 3382 2299 
Q 3582 1950 3582 1500 
Q 3582 1068 3389 710 
Q 3196 352 2847 142 
Q 2498 -68 2027 -64 
z
M 2027 436 
Q 2314 436 2542 579 
Q 2771 723 2903 964 
Q 3036 1205 3036 1500 
Q 3036 1789 2908 2026 
Q 2780 2264 2556 2404 
Q 2332 2545 2046 2545 
Q 1757 2545 1525 2397 
Q 1293 2250 1157 2010 
Q 1021 1770 1018 1491 
Q 1018 1214 1149 973 
Q 1280 732 1508 584 
Q 1736 436 2027 436 
z
" id="Inter-Regular-36" transform="scale(0.015625)"/>
       </defs>
       <use xlink:href="#Inter-Regular-36"/>
       <use x="62.357971" xlink:href="#Inter-Regular-25"/>
      </g>
     </g>
    </g>
    <g id="ytick_5">
     <g id="line2d_27">
      <path clip-path="url(#pdf731132e7)" d="M 53.204688 116.393792 
L 722.804688 116.393792 
" style="fill:none;stroke:#e5e5e5;stroke-linecap:square;stroke-width:0.8;"/>
     </g>
     <g id="line2d_28">
      <g>
       <use style="stroke:#000000;stroke-width:0.8;" x="53.204688" xlink:href="#ma6bef65692" y="116.393792"/>
      </g>
     </g>
     <g id="text_14">
      <!-- 8% -->
      <g transform="translate(31.914063 120.030511)scale(0.1 -0.1)">
       <defs>
        <path d="M 1973 -64 
Q 1505 -64 1147 103 
Q 789 270 589 564 
Q 389 859 391 1236 
Q 389 1532 507 1783 
Q 625 2034 830 2203 
Q 1036 2373 1291 2418 
L 1291 2445 
Q 957 2532 759 2821 
Q 561 3111 564 3482 
Q 561 3836 743 4115 
Q 925 4395 1244 4556 
Q 1564 4718 1973 4718 
Q 2377 4718 2695 4556 
Q 3014 4395 3197 4115 
Q 3380 3836 3382 3482 
Q 3380 3111 3181 2821 
Q 2982 2532 2655 2445 
L 2655 2418 
Q 2907 2373 3109 2203 
Q 3311 2034 3431 1783 
Q 3552 1532 3555 1236 
Q 3552 859 3351 564 
Q 3150 270 2794 103 
Q 2439 -64 1973 -64 
z
M 1973 436 
Q 2446 436 2722 662 
Q 2998 889 3000 1264 
Q 2998 1527 2864 1729 
Q 2730 1932 2499 2048 
Q 2268 2164 1973 2164 
Q 1675 2164 1442 2048 
Q 1209 1932 1076 1729 
Q 943 1527 946 1264 
Q 943 889 1218 662 
Q 1493 436 1973 436 
z
M 1973 2645 
Q 2348 2645 2591 2864 
Q 2834 3084 2836 3445 
Q 2834 3800 2596 4013 
Q 2359 4227 1973 4227 
Q 1582 4227 1344 4013 
Q 1107 3800 1109 3445 
Q 1107 3084 1349 2864 
Q 1591 2645 1973 2645 
z
" id="Inter-Regular-38" transform="scale(0.015625)"/>
       </defs>
       <use xlink:href="#Inter-Regular-38"/>
       <use x="61.647736" xlink:href="#Inter-Regular-25"/>
      </g>
     </g>
    </g>
    <g id="text_15">
     <!-- Percent of nation tested positive -->
     <g transform="translate(25.614063 332.215469)rotate(-90)scale(0.1 -0.1)">
      <defs>
       <path d="M 564 0 
L 564 4655 
L 2136 4655 
Q 2684 4655 3033 4458 
Q 3382 4261 3550 3927 
Q 3718 3593 3718 3182 
Q 3718 2770 3551 2434 
Q 3384 2098 3036 1899 
Q 2689 1700 2146 1700 
L 1127 1700 
L 1127 0 
L 564 0 
z
M 1127 2200 
L 2127 2200 
Q 2689 2200 2926 2482 
Q 3164 2764 3164 3182 
Q 3164 3602 2925 3878 
Q 2686 4155 2118 4155 
L 1127 4155 
L 1127 2200 
z
" id="Inter-Regular-50" transform="scale(0.015625)"/>
       <path d="M 1909 -73 
Q 1418 -73 1063 159 
Q 709 391 518 798 
Q 327 1205 327 1727 
Q 327 2259 524 2667 
Q 721 3075 1074 3305 
Q 1427 3536 1900 3536 
Q 2268 3536 2563 3400 
Q 2859 3264 3047 3018 
Q 3236 2773 3282 2445 
L 2746 2445 
Q 2684 2684 2474 2869 
Q 2264 3055 1909 3055 
Q 1439 3055 1151 2697 
Q 864 2339 864 1745 
Q 864 1139 1148 774 
Q 1432 409 1909 409 
Q 2223 409 2447 570 
Q 2671 732 2746 1018 
L 3282 1018 
Q 3236 709 3058 462 
Q 2880 216 2588 71 
Q 2296 -73 1909 -73 
z
" id="Inter-Regular-63" transform="scale(0.015625)"/>
       <path d="M 2009 3491 
L 2009 3036 
L 1264 3036 
L 1264 1000 
Q 1264 773 1331 660 
Q 1398 548 1503 510 
Q 1609 473 1727 473 
Q 1816 473 1873 483 
Q 1930 493 1964 500 
L 2073 18 
Q 2018 -2 1920 -23 
Q 1823 -45 1673 -45 
Q 1446 -45 1228 52 
Q 1011 150 869 350 
Q 727 550 727 855 
L 727 3036 
L 200 3036 
L 200 3491 
L 727 3491 
L 727 4327 
L 1264 4327 
L 1264 3491 
L 2009 3491 
z
" id="Inter-Regular-74" transform="scale(0.015625)"/>
       <path d="M 2046 3491 
L 2046 3036 
L 1264 3036 
L 1264 0 
L 727 0 
L 727 3036 
L 164 3036 
L 164 3491 
L 727 3491 
L 727 3973 
Q 727 4273 868 4473 
Q 1009 4673 1234 4773 
Q 1459 4873 1709 4873 
Q 1907 4873 2032 4841 
Q 2157 4809 2218 4782 
L 2064 4318 
Q 2023 4332 1951 4352 
Q 1880 4373 1764 4373 
Q 1498 4373 1381 4239 
Q 1264 4105 1264 3845 
L 1264 3491 
L 2046 3491 
z
" id="Inter-Regular-66" transform="scale(0.015625)"/>
       <path d="M 491 0 
L 491 3491 
L 1027 3491 
L 1027 0 
L 491 0 
z
M 764 4073 
Q 607 4073 494 4179 
Q 382 4286 382 4436 
Q 382 4586 494 4693 
Q 607 4800 764 4800 
Q 921 4800 1033 4693 
Q 1146 4586 1146 4436 
Q 1146 4286 1033 4179 
Q 921 4073 764 4073 
z
" id="Inter-Regular-69" transform="scale(0.015625)"/>
       <path d="M 2964 2709 
L 2482 2573 
Q 2411 2755 2245 2914 
Q 2080 3073 1727 3073 
Q 1407 3073 1194 2926 
Q 982 2780 982 2555 
Q 982 2355 1127 2239 
Q 1273 2123 1582 2045 
L 2100 1918 
Q 3027 1691 3027 973 
Q 3027 673 2855 436 
Q 2684 200 2377 63 
Q 2071 -73 1664 -73 
Q 1130 -73 780 159 
Q 430 391 336 836 
L 846 964 
Q 989 400 1655 400 
Q 2030 400 2251 560 
Q 2473 720 2473 945 
Q 2473 1316 1955 1436 
L 1373 1573 
Q 893 1686 669 1926 
Q 446 2166 446 2527 
Q 446 2823 613 3050 
Q 780 3277 1069 3406 
Q 1359 3536 1727 3536 
Q 2246 3536 2542 3309 
Q 2839 3082 2964 2709 
z
" id="Inter-Regular-73" transform="scale(0.015625)"/>
       <path d="M 1809 -73 
Q 1373 -73 1039 148 
Q 705 370 516 776 
Q 327 1182 327 1736 
Q 327 2286 516 2690 
Q 705 3095 1041 3315 
Q 1377 3536 1818 3536 
Q 2159 3536 2358 3423 
Q 2557 3311 2662 3169 
Q 2768 3027 2827 2936 
L 2873 2936 
L 2873 4655 
L 3409 4655 
L 3409 0 
L 2891 0 
L 2891 536 
L 2827 536 
Q 2768 441 2659 296 
Q 2550 152 2348 39 
Q 2146 -73 1809 -73 
z
M 1882 409 
Q 2366 409 2624 780 
Q 2882 1152 2882 1745 
Q 2882 2332 2627 2693 
Q 2373 3055 1882 3055 
Q 1541 3055 1315 2881 
Q 1089 2707 976 2410 
Q 864 2114 864 1745 
Q 864 1373 978 1069 
Q 1093 766 1319 587 
Q 1546 409 1882 409 
z
" id="Inter-Regular-64" transform="scale(0.015625)"/>
      </defs>
      <use xlink:href="#Inter-Regular-50"/>
      <use x="63.494324" xlink:href="#Inter-Regular-65"/>
      <use x="121.732971" xlink:href="#Inter-Regular-72"/>
      <use x="160.085251" xlink:href="#Inter-Regular-63"/>
      <use x="215.909119" xlink:href="#Inter-Regular-65"/>
      <use x="274.147766" xlink:href="#Inter-Regular-6e"/>
      <use x="332.670502" xlink:href="#Inter-Regular-74"/>
      <use x="369.034149" xlink:href="#Inter-Regular-20"/>
      <use x="397.159149" xlink:href="#Inter-Regular-6f"/>
      <use x="456.818253" xlink:href="#Inter-Regular-66"/>
      <use x="492.897797" xlink:href="#Inter-Regular-20"/>
      <use x="521.022797" xlink:href="#Inter-Regular-6e"/>
      <use x="579.545532" xlink:href="#Inter-Regular-61"/>
      <use x="635.937592" xlink:href="#Inter-Regular-74"/>
      <use x="672.301239" xlink:href="#Inter-Regular-69"/>
      <use x="696.022827" xlink:href="#Inter-Regular-6f"/>
      <use x="755.681931" xlink:href="#Inter-Regular-6e"/>
      <use x="814.204666" xlink:href="#Inter-Regular-20"/>
      <use x="842.329666" xlink:href="#Inter-Regular-74"/>
      <use x="878.693314" xlink:href="#Inter-Regular-65"/>
      <use x="936.931961" xlink:href="#Inter-Regular-73"/>
      <use x="989.204697" xlink:href="#Inter-Regular-74"/>
      <use x="1025.568344" xlink:href="#Inter-Regular-65"/>
      <use x="1083.806992" xlink:href="#Inter-Regular-64"/>
      <use x="1145.880875" xlink:href="#Inter-Regular-20"/>
      <use x="1174.005875" xlink:href="#Inter-Regular-70"/>
      <use x="1234.94339" xlink:href="#Inter-Regular-6f"/>
      <use x="1294.602493" xlink:href="#Inter-Regular-73"/>
      <use x="1346.875229" xlink:href="#Inter-Regular-69"/>
      <use x="1370.596817" xlink:href="#Inter-Regular-74"/>
      <use x="1406.960464" xlink:href="#Inter-Regular-69"/>
      <use x="1430.682053" xlink:href="#Inter-Regular-76"/>
      <use x="1486.363876" xlink:href="#Inter-Regular-65"/>
     </g>
    </g>
   </g>
   <g id="line2d_29">
    <path clip-path="url(#pdf731132e7)" d="M 13.941691 476.74484 
L 65.87017 476.654171 
L 76.002556 476.288055 
L 81.068749 475.861199 
L 84.868394 475.309903 
L 89.934587 474.431864 
L 100.066974 471.916344 
L 103.866618 470.96228 
L 108.932811 469.92411 
L 116.532101 468.013582 
L 120.331746 466.947243 
L 122.864842 466.329606 
L 125.397939 465.756384 
L 131.73068 464.158995 
L 136.796873 463.209253 
L 139.32997 462.743265 
L 141.863067 462.439488 
L 146.92926 461.553446 
L 158.328194 460.115309 
L 183.659159 458.275203 
L 207.723577 457.184296 
L 241.92038 455.883322 
L 246.986573 455.647247 
L 252.052766 455.382203 
L 284.983021 453.30074 
L 287.516118 452.937185 
L 305.247794 449.867728 
L 310.313987 448.506415 
L 312.847083 447.701599 
L 319.179825 445.309638 
L 321.712921 443.925517 
L 324.246018 442.179282 
L 325.512566 441.253067 
L 328.045662 439.68969 
L 331.845307 436.207222 
L 333.111856 434.985953 
L 334.378404 433.945062 
L 336.9115 432.360158 
L 341.977693 427.294146 
L 343.244242 426.130015 
L 345.777338 424.192919 
L 349.576983 418.997106 
L 352.11008 415.979185 
L 354.643176 413.843546 
L 357.176273 410.383005 
L 360.975917 405.593961 
L 363.509014 403.376215 
L 364.775562 401.141424 
L 367.308659 397.700089 
L 369.841755 394.362868 
L 372.374852 391.595107 
L 373.6414 389.347192 
L 377.441045 383.660902 
L 378.707593 381.927871 
L 381.24069 379.507261 
L 382.507238 377.608657 
L 385.040335 374.524955 
L 387.573431 372.109547 
L 390.106528 370.457021 
L 391.373076 369.159888 
L 395.172721 365.940304 
L 396.439269 364.958632 
L 398.972366 363.50921 
L 401.505462 361.224323 
L 405.305107 358.113174 
L 407.838204 356.431278 
L 412.904397 350.823574 
L 414.170945 349.234188 
L 415.437493 347.95154 
L 416.704041 346.500599 
L 423.036783 334.483975 
L 424.303331 332.744862 
L 425.569879 330.429245 
L 428.102976 323.747839 
L 429.369524 320.738161 
L 430.636072 318.441511 
L 431.902621 317.427268 
L 433.169169 314.489773 
L 435.702266 307.889993 
L 436.968814 302.087427 
L 438.235362 297.054946 
L 439.50191 293.318957 
L 440.768459 291.060399 
L 443.301555 282.763839 
L 444.568103 277.233679 
L 445.834652 272.589161 
L 448.367748 264.733702 
L 449.634297 261.346144 
L 452.167393 255.880965 
L 453.433941 251.719801 
L 455.967038 244.851616 
L 458.500134 238.825058 
L 461.033231 234.514647 
L 462.299779 231.25633 
L 463.566327 228.377654 
L 466.099424 223.535793 
L 467.365972 221.382388 
L 468.632521 219.791882 
L 469.899069 218.555169 
L 472.432165 214.430496 
L 474.965262 210.823269 
L 476.23181 209.248447 
L 478.764907 206.950996 
L 480.031455 205.341284 
L 483.8311 201.24278 
L 485.097648 200.124744 
L 487.630745 198.465176 
L 490.163841 196.377792 
L 492.696938 194.531765 
L 493.963486 193.686536 
L 496.496583 192.464467 
L 499.029679 190.601154 
L 502.829324 188.295621 
L 505.36242 187.200312 
L 506.628969 186.411581 
L 509.162065 185.176468 
L 511.695162 184.193996 
L 514.228258 183.54931 
L 518.027903 182.215526 
L 521.827548 181.171674 
L 523.094096 180.888304 
L 526.893741 179.625102 
L 530.693386 178.604937 
L 531.959934 178.318206 
L 535.759579 177.115663 
L 538.292676 176.422643 
L 540.825772 175.791722 
L 544.625417 174.624311 
L 547.158513 173.978665 
L 549.69161 173.415766 
L 554.757803 172.442977 
L 580.088768 169.137605 
L 590.221155 168.017248 
L 597.820444 167.255646 
L 609.219379 166.039659 
L 613.019024 165.637611 
L 619.351765 164.872808 
L 621.884861 164.516214 
L 630.750699 162.953077 
L 634.550344 161.814715 
L 639.616537 160.230211 
L 648.482375 156.561123 
L 653.548568 153.702934 
L 656.081665 152.507033 
L 658.614761 150.457981 
L 664.947503 144.710793 
L 671.280244 135.565083 
L 673.813341 132.243386 
L 676.346437 127.406647 
L 677.612985 124.726114 
L 680.146082 120.109045 
L 682.679178 115.963406 
L 685.212275 109.412201 
L 686.478823 105.473988 
L 687.745372 100.969995 
L 689.01192 96.96288 
L 691.545016 91.598133 
L 692.811565 88.207694 
L 694.078113 85.401602 
L 695.344661 82.924413 
L 696.611209 80.760765 
L 697.877758 78.845996 
L 700.410854 75.727484 
L 705.477047 67.562966 
L 706.743596 65.841218 
L 709.276692 62.95502 
L 711.809789 58.780891 
L 714.342885 54.345 
L 714.342885 54.345 
" style="fill:none;stroke:#5694ca;stroke-linecap:square;stroke-width:2;"/>
   </g>
   <g id="line2d_30">
    <path clip-path="url(#pdf731132e7)" d="M 13.941691 476.745 
L 68.403267 476.635582 
L 79.802201 476.373929 
L 83.601846 476.045674 
L 92.467684 474.673187 
L 96.267329 473.97624 
L 98.800425 473.583761 
L 101.333522 473.03429 
L 105.133167 472.415839 
L 107.666263 471.990059 
L 110.19936 471.447724 
L 113.999005 470.550969 
L 115.265553 470.453444 
L 120.331746 469.475815 
L 122.864842 469.157074 
L 125.397939 468.883528 
L 127.931036 468.49105 
L 131.73068 467.775073 
L 135.530325 467.304098 
L 146.92926 465.696124 
L 149.462356 465.448743 
L 151.995453 465.218013 
L 155.795097 464.737524 
L 169.727128 463.964459 
L 177.326418 463.778924 
L 193.791546 463.450669 
L 224.188704 463.193774 
L 234.32109 463.015374 
L 257.118959 462.40168 
L 276.117183 460.75089 
L 288.782666 459.119129 
L 291.315763 458.60296 
L 293.848859 458.191451 
L 296.381956 457.825138 
L 301.448149 457.0045 
L 306.514342 455.762839 
L 309.047438 454.987396 
L 311.580535 454.378459 
L 314.113631 453.455539 
L 317.913276 451.593048 
L 320.446373 450.246727 
L 321.712921 449.333321 
L 322.979469 447.810979 
L 324.246018 446.673979 
L 325.512566 445.023189 
L 328.045662 442.104573 
L 329.312211 440.420482 
L 330.578759 438.517554 
L 333.111856 433.76737 
L 336.9115 427.932517 
L 341.977693 417.601996 
L 343.244242 415.306589 
L 345.777338 411.429373 
L 349.576983 403.827175 
L 350.843531 401.267737 
L 352.11008 399.179273 
L 354.643176 395.825363 
L 357.176273 391.76499 
L 359.709369 388.327826 
L 360.975917 386.700823 
L 363.509014 384.37925 
L 366.042111 381.189467 
L 368.575207 378.465902 
L 371.108304 376.222825 
L 372.374852 375.223788 
L 376.174497 370.599673 
L 377.441045 369.300924 
L 379.974142 367.179159 
L 381.24069 366.291919 
L 383.773786 363.551703 
L 385.040335 362.507471 
L 388.839979 360.09551 
L 390.106528 359.443757 
L 395.172721 355.970913 
L 397.705817 354.370075 
L 398.972366 353.763517 
L 400.238914 352.562293 
L 402.77201 350.635579 
L 405.305107 348.440075 
L 409.104752 345.514323 
L 415.437493 340.045784 
L 416.704041 339.096699 
L 424.303331 331.171003 
L 425.569879 330.019732 
L 428.102976 326.601597 
L 429.369524 324.691533 
L 430.636072 323.214385 
L 431.902621 322.405641 
L 433.169169 320.700142 
L 434.435717 318.112159 
L 435.702266 314.824851 
L 438.235362 304.075686 
L 439.50191 299.989148 
L 440.768459 297.034852 
L 442.035007 292.460689 
L 443.301555 288.602502 
L 444.568103 283.842804 
L 447.1012 276.385704 
L 449.634297 270.536579 
L 450.900845 268.160298 
L 452.167393 266.069455 
L 453.433941 263.069965 
L 455.967038 257.910651 
L 458.500134 253.731346 
L 459.766683 252.094828 
L 461.033231 250.646224 
L 463.566327 246.440753 
L 466.099424 242.80616 
L 467.365972 241.359935 
L 469.899069 239.183461 
L 473.698714 234.749638 
L 476.23181 232.275832 
L 478.764907 230.406205 
L 480.031455 229.185952 
L 485.097648 225.037569 
L 490.163841 221.96434 
L 492.696938 220.453891 
L 493.963486 219.790245 
L 495.230034 219.331164 
L 496.496583 218.738877 
L 497.763131 217.839744 
L 502.829324 214.928264 
L 509.162065 212.031056 
L 510.428614 211.443527 
L 512.96171 210.637161 
L 514.228258 210.339829 
L 519.294451 208.567727 
L 523.094096 207.471164 
L 525.627193 206.479263 
L 529.426838 205.116291 
L 533.226482 204.093467 
L 537.026127 202.911273 
L 543.358869 201.253347 
L 547.158513 200.092561 
L 554.757803 198.467936 
L 557.2909 198.146817 
L 559.823996 197.908951 
L 562.357093 197.426083 
L 566.156737 196.586416 
L 569.956382 195.863303 
L 571.222931 195.463688 
L 575.022575 194.728682 
L 576.289124 194.545526 
L 580.088768 193.648771 
L 587.688058 192.40711 
L 591.487703 191.738707 
L 595.287348 191.205887 
L 597.820444 190.737291 
L 602.886637 189.935682 
L 607.95283 188.960432 
L 611.752475 188.496593 
L 615.55212 187.754451 
L 619.351765 187.202602 
L 623.15141 186.72687 
L 629.484151 185.925261 
L 633.283796 185.404335 
L 637.083441 184.812049 
L 639.616537 184.486172 
L 648.482375 182.783052 
L 654.815117 180.918182 
L 656.081665 180.604199 
L 659.88131 179.16511 
L 662.414406 177.990051 
L 666.214051 176.132318 
L 675.079889 169.227068 
L 676.346437 167.930698 
L 680.146082 163.480225 
L 683.945727 159.912235 
L 685.212275 157.819014 
L 686.478823 155.121613 
L 690.278468 145.847218 
L 691.545016 143.44715 
L 694.078113 135.859224 
L 696.611209 128.937323 
L 697.877758 125.816521 
L 700.410854 120.650072 
L 701.677403 117.446016 
L 702.943951 113.87089 
L 705.477047 107.645937 
L 706.743596 105.074605 
L 709.276692 100.745444 
L 711.809789 94.644181 
L 714.342885 87.724659 
L 714.342885 87.724659 
" style="fill:none;stroke:#ffdd00;stroke-linecap:square;stroke-width:2;"/>
   </g>
   <g id="line2d_31">
    <path clip-path="url(#pdf731132e7)" d="M 13.941691 476.745 
L 67.136718 476.637817 
L 81.068749 476.147251 
L 84.868394 475.672349 
L 87.401491 475.279072 
L 89.934587 474.855288 
L 103.866618 471.822845 
L 106.399715 471.491404 
L 113.999005 469.741854 
L 115.265553 469.610761 
L 121.598294 468.203371 
L 124.131391 467.91068 
L 127.931036 466.881727 
L 131.73068 466.111661 
L 132.997229 465.949238 
L 138.063422 464.939249 
L 140.596518 464.57895 
L 143.129615 464.235141 
L 148.195808 463.582976 
L 160.861291 462.724691 
L 162.127839 462.330589 
L 168.46058 462.15415 
L 184.925708 461.854863 
L 250.786218 461.203523 
L 262.185152 460.835804 
L 271.05099 460.440053 
L 286.249569 459.47376 
L 293.848859 458.634438 
L 296.381956 458.367306 
L 309.047438 456.53201 
L 310.313987 456.272298 
L 312.847083 455.491514 
L 314.113631 455.024033 
L 316.646728 453.958803 
L 320.446373 452.792162 
L 322.979469 451.59419 
L 328.045662 449.094362 
L 330.578759 447.207948 
L 333.111856 445.211054 
L 335.644952 443.534883 
L 336.9115 442.745854 
L 343.244242 437.302627 
L 345.777338 435.912551 
L 347.043887 434.796203 
L 349.576983 432.103446 
L 350.843531 430.874144 
L 352.11008 429.818808 
L 354.643176 428.26466 
L 358.442821 425.040937 
L 360.975917 423.237796 
L 362.242466 422.626855 
L 363.509014 421.826283 
L 366.042111 419.466617 
L 368.575207 417.329561 
L 369.841755 416.397072 
L 372.374852 414.987209 
L 377.441045 410.846663 
L 379.974142 409.232328 
L 381.24069 408.562849 
L 383.773786 406.503294 
L 386.306883 404.779303 
L 388.839979 403.443643 
L 390.106528 402.861559 
L 392.639624 401.094695 
L 395.172721 399.669166 
L 396.439269 399.063172 
L 398.972366 398.134806 
L 402.77201 395.790805 
L 404.038559 395.128746 
L 407.838204 393.520183 
L 414.170945 389.61214 
L 416.704041 388.459515 
L 420.503686 385.867345 
L 424.303331 383.741831 
L 425.569879 383.072352 
L 429.369524 379.818948 
L 430.636072 378.981275 
L 431.902621 378.555842 
L 433.169169 377.690137 
L 435.702266 374.816818 
L 438.235362 369.790779 
L 439.50191 367.83346 
L 440.768459 366.877886 
L 444.568103 361.239256 
L 445.834652 358.725412 
L 447.1012 356.624633 
L 448.367748 354.813247 
L 449.634297 353.311041 
L 452.167393 350.903555 
L 454.70049 347.552862 
L 457.233586 344.806514 
L 458.500134 343.540935 
L 461.033231 341.583616 
L 463.566327 338.876843 
L 464.832876 337.582407 
L 467.365972 335.546762 
L 469.899069 334.068466 
L 472.432165 332.01056 
L 476.23181 329.382938 
L 478.764907 328.073661 
L 481.298003 326.305973 
L 485.097648 324.027106 
L 487.630745 322.912406 
L 488.897293 322.095345 
L 491.430389 320.773701 
L 493.963486 319.335805 
L 496.496583 318.327465 
L 499.029679 316.780737 
L 504.095872 314.097874 
L 505.36242 313.596589 
L 507.895517 312.376357 
L 510.428614 311.28227 
L 512.96171 310.517151 
L 515.494807 309.71493 
L 521.827548 307.640535 
L 523.094096 307.28271 
L 526.893741 305.7467 
L 529.426838 304.719396 
L 531.959934 303.971592 
L 534.493031 302.93192 
L 538.292676 301.538547 
L 540.825772 300.779199 
L 543.358869 299.720565 
L 547.158513 298.411288 
L 553.491255 296.725223 
L 556.024351 296.09367 
L 569.956382 293.642487 
L 572.489479 293.304449 
L 573.756027 292.989497 
L 580.088768 292.063604 
L 583.888413 291.594474 
L 586.42151 291.343832 
L 592.754251 290.633953 
L 596.553896 290.239027 
L 605.419734 288.878632 
L 614.285572 287.114242 
L 618.085217 286.166912 
L 620.618313 285.659856 
L 624.417958 284.320898 
L 628.217603 283.054495 
L 630.750699 282.158283 
L 632.017248 281.520959 
L 635.816892 279.270949 
L 638.349989 278.212314 
L 640.883086 276.580665 
L 643.416182 274.852552 
L 644.68273 274.139375 
L 645.949279 273.557291 
L 647.215827 272.85236 
L 649.748923 270.868657 
L 653.548568 267.85023 
L 654.815117 267.028222 
L 656.081665 265.751925 
L 661.147858 255.776522 
L 662.414406 253.617205 
L 664.947503 249.658045 
L 668.747147 240.009961 
L 670.013696 237.182814 
L 671.280244 234.64506 
L 673.813341 230.591908 
L 676.346437 225.259986 
L 678.879534 220.623102 
L 680.146082 218.660836 
L 682.679178 215.61685 
L 685.212275 211.477953 
L 686.478823 209.657497 
L 689.01192 206.597022 
L 691.545016 204.300841 
L 692.811565 202.72773 
L 695.344661 200.112474 
L 697.877758 197.923476 
L 700.410854 196.360259 
L 704.210499 193.055737 
L 706.743596 191.23693 
L 709.276692 189.885605 
L 714.342885 185.512555 
L 714.342885 185.512555 
" style="fill:none;stroke:#003078;stroke-linecap:square;stroke-width:2;"/>
   </g>
   <g id="line2d_32">
    <path clip-path="url(#pdf731132e7)" d="M 13.941691 476.745 
L 67.136718 476.65928 
L 76.002556 476.303544 
L 81.068749 475.793513 
L 83.601846 475.320627 
L 88.668039 474.32628 
L 92.467684 472.973339 
L 96.267329 471.61897 
L 97.533877 471.300379 
L 103.866618 468.651645 
L 107.666263 467.555863 
L 110.19936 466.587232 
L 112.732456 465.605743 
L 120.331746 463.574189 
L 122.864842 463.075587 
L 125.397939 462.65699 
L 129.197584 461.901229 
L 132.997229 461.244046 
L 136.796873 460.551146 
L 139.32997 460.135406 
L 146.92926 458.912474 
L 150.728904 458.251005 
L 158.328194 456.910922 
L 162.127839 456.49804 
L 167.194032 455.93229 
L 172.260225 455.563696 
L 191.258449 454.215042 
L 192.524997 454.01503 
L 196.324642 453.745013 
L 197.59119 453.557859 
L 201.390835 453.392134 
L 202.657384 453.192122 
L 224.188704 452.622087 
L 234.32109 452.322068 
L 249.51967 451.900614 
L 263.451701 451.614882 
L 269.784442 451.443443 
L 284.983021 450.801975 
L 287.516118 450.584818 
L 293.848859 449.596186 
L 301.448149 448.258961 
L 306.514342 447.083174 
L 310.313987 445.971677 
L 312.847083 444.983045 
L 317.913276 442.865772 
L 319.179825 442.412887 
L 321.712921 441.138523 
L 329.312211 435.903915 
L 331.845307 433.586629 
L 334.378404 431.287916 
L 336.9115 429.509236 
L 338.178049 428.392024 
L 340.711145 425.740432 
L 341.977693 424.610363 
L 343.244242 423.250279 
L 345.777338 421.215868 
L 347.043887 419.628627 
L 349.576983 416.052693 
L 350.843531 414.544029 
L 352.11008 412.833924 
L 354.643176 410.026608 
L 357.176273 405.692055 
L 358.442821 403.753365 
L 359.709369 401.491797 
L 360.975917 399.718831 
L 363.509014 397.10867 
L 364.775562 395.09426 
L 366.042111 393.331295 
L 368.575207 390.315395 
L 369.841755 389.06246 
L 372.374852 387.203775 
L 374.907948 384.383601 
L 378.707593 380.831954 
L 381.24069 379.037558 
L 387.573431 372.071415 
L 390.106528 370.075578 
L 392.639624 367.041105 
L 393.906173 365.130987 
L 396.439269 361.996509 
L 397.705817 360.79072 
L 398.972366 359.410635 
L 401.505462 354.958933 
L 404.038559 350.030058 
L 407.838204 342.989625 
L 410.3713 335.684889 
L 414.170945 324.0156 
L 415.437493 320.751113 
L 416.704041 316.846587 
L 417.97059 311.790562 
L 420.503686 302.758577 
L 423.036783 295.16811 
L 425.569879 288.913439 
L 428.102976 281.128674 
L 429.369524 277.63846 
L 430.636072 275.534044 
L 431.902621 274.615416 
L 433.169169 271.910964 
L 435.702266 264.979109 
L 436.968814 259.888796 
L 438.235362 256.032844 
L 439.50191 253.161239 
L 440.768459 251.431132 
L 442.035007 248.44952 
L 443.301555 245.865075 
L 444.568103 242.067699 
L 445.834652 238.663204 
L 447.1012 235.820171 
L 449.634297 231.164171 
L 452.167393 227.849681 
L 454.70049 223.083673 
L 455.967038 220.993545 
L 458.500134 217.389037 
L 459.766683 215.953234 
L 461.033231 214.77459 
L 462.299779 212.778753 
L 464.832876 209.847144 
L 466.099424 208.548493 
L 467.365972 207.445568 
L 468.632521 206.672663 
L 469.899069 206.106914 
L 471.165617 204.898268 
L 474.965262 201.908084 
L 476.23181 201.053746 
L 478.764907 199.702234 
L 482.564552 197.139219 
L 485.097648 195.707703 
L 488.897293 194.086174 
L 491.430389 192.78038 
L 495.230034 191.257429 
L 496.496583 190.844546 
L 499.029679 189.565896 
L 501.562776 188.542976 
L 507.895517 186.437132 
L 510.428614 185.738518 
L 520.561 183.49838 
L 525.627193 182.444029 
L 538.292676 179.669573 
L 543.358869 178.738087 
L 547.158513 177.965182 
L 550.958158 177.518012 
L 554.757803 177.033696 
L 561.090544 176.499378 
L 564.890189 176.117925 
L 569.956382 175.723615 
L 575.022575 175.369308 
L 594.020799 174.322101 
L 597.820444 174.139232 
L 601.620089 173.946363 
L 605.419734 173.750637 
L 610.485927 173.509193 
L 621.884861 173.000591 
L 637.083441 172.051961 
L 639.616537 171.804803 
L 648.482375 170.560441 
L 656.081665 168.901767 
L 659.88131 167.333099 
L 662.414406 166.205887 
L 663.680954 165.845865 
L 664.947503 165.325833 
L 671.280244 160.921276 
L 673.813341 159.419755 
L 680.146082 153.967991 
L 682.679178 152.012156 
L 683.945727 150.704933 
L 686.478823 147.413302 
L 687.745372 145.814632 
L 689.01192 144.451691 
L 691.545016 142.654437 
L 694.078113 140.181428 
L 697.877758 136.881225 
L 700.410854 135.293984 
L 704.210499 132.136647 
L 705.477047 131.152301 
L 706.743596 130.315106 
L 709.276692 128.882161 
L 713.076337 125.617674 
L 714.342885 125.617674 
L 714.342885 125.617674 
" style="fill:none;stroke:#d4351c;stroke-linecap:square;stroke-width:2;"/>
   </g>
   <g id="patch_3">
    <path d="M 53.204688 476.745 
L 722.804688 476.745 
" style="fill:none;stroke:#000000;stroke-linecap:square;stroke-linejoin:miter;stroke-width:0.8;"/>
   </g>
   <g id="text_16">
    <!-- Cumulative COVID-19 cases in UK Nations, per capita -->
    <g transform="translate(231.415 27.225)scale(0.12 -0.12)">
     <defs>
      <path d="M 4511 3025 
L 3516 3025 
Q 3459 3409 3188 3628 
Q 2918 3848 2514 3848 
Q 1973 3848 1647 3451 
Q 1321 3055 1321 2327 
Q 1321 1582 1649 1194 
Q 1977 807 2507 807 
Q 2900 807 3173 1012 
Q 3446 1218 3516 1591 
L 4511 1586 
Q 4459 1159 4207 782 
Q 3955 405 3522 170 
Q 3089 -64 2491 -64 
Q 1868 -64 1378 218 
Q 889 500 606 1034 
Q 323 1568 323 2327 
Q 323 3089 609 3623 
Q 896 4157 1386 4437 
Q 1877 4718 2491 4718 
Q 3030 4718 3463 4519 
Q 3896 4320 4172 3942 
Q 4448 3564 4511 3025 
z
" id="Inter-Bold-43" transform="scale(0.015625)"/>
      <path d="M 2625 1486 
L 2625 3491 
L 3593 3491 
L 3593 0 
L 2664 0 
L 2664 634 
L 2627 634 
Q 2509 327 2235 141 
Q 1961 -45 1568 -45 
Q 1041 -45 715 306 
Q 389 657 386 1268 
L 386 3491 
L 1355 3491 
L 1355 1441 
Q 1357 1132 1520 952 
Q 1684 773 1959 773 
Q 2221 773 2424 954 
Q 2627 1136 2625 1486 
z
" id="Inter-Bold-75" transform="scale(0.015625)"/>
      <path d="M 386 0 
L 386 3491 
L 1309 3491 
L 1309 2875 
L 1350 2875 
Q 1459 3184 1715 3360 
Q 1971 3536 2323 3536 
Q 2682 3536 2934 3358 
Q 3186 3180 3271 2875 
L 3307 2875 
Q 3414 3175 3694 3355 
Q 3975 3536 4359 3536 
Q 4848 3536 5153 3226 
Q 5459 2916 5459 2348 
L 5459 0 
L 4493 0 
L 4493 2157 
Q 4493 2448 4338 2593 
Q 4184 2739 3952 2739 
Q 3689 2739 3541 2570 
Q 3393 2402 3393 2132 
L 3393 0 
L 2455 0 
L 2455 2177 
Q 2455 2434 2308 2586 
Q 2161 2739 1923 2739 
Q 1682 2739 1518 2562 
Q 1355 2386 1355 2095 
L 1355 0 
L 386 0 
z
" id="Inter-Bold-6d" transform="scale(0.015625)"/>
      <path d="M 1355 4655 
L 1355 0 
L 386 0 
L 386 4655 
L 1355 4655 
z
" id="Inter-Bold-6c" transform="scale(0.015625)"/>
      <path d="M 1382 -66 
Q 882 -66 552 195 
Q 223 457 223 975 
Q 223 1366 407 1588 
Q 591 1811 890 1914 
Q 1189 2018 1534 2050 
Q 1989 2095 2184 2145 
Q 2380 2195 2380 2364 
L 2380 2377 
Q 2380 2593 2244 2711 
Q 2109 2830 1861 2830 
Q 1600 2830 1445 2716 
Q 1291 2602 1241 2427 
L 346 2500 
Q 446 2977 842 3256 
Q 1239 3536 1866 3536 
Q 2255 3536 2593 3413 
Q 2932 3291 3140 3030 
Q 3348 2770 3348 2355 
L 3348 0 
L 2430 0 
L 2430 484 
L 2402 484 
Q 2275 241 2021 87 
Q 1768 -66 1382 -66 
z
M 1659 602 
Q 1977 602 2181 787 
Q 2386 973 2386 1248 
L 2386 1618 
Q 2330 1580 2210 1550 
Q 2091 1520 1956 1498 
Q 1821 1477 1714 1461 
Q 1459 1425 1303 1318 
Q 1148 1211 1148 1007 
Q 1148 807 1292 704 
Q 1436 602 1659 602 
z
" id="Inter-Bold-61" transform="scale(0.015625)"/>
      <path d="M 2243 3491 
L 2243 2764 
L 1586 2764 
L 1586 1073 
Q 1586 873 1677 802 
Q 1768 732 1914 732 
Q 1982 732 2050 744 
Q 2118 757 2155 764 
L 2307 43 
Q 2234 20 2102 -10 
Q 1971 -41 1782 -48 
Q 1255 -70 935 181 
Q 616 432 618 945 
L 618 2764 
L 141 2764 
L 141 3491 
L 618 3491 
L 618 4327 
L 1586 4327 
L 1586 3491 
L 2243 3491 
z
" id="Inter-Bold-74" transform="scale(0.015625)"/>
      <path d="M 386 0 
L 386 3491 
L 1355 3491 
L 1355 0 
L 386 0 
z
M 876 3941 
Q 662 3941 507 4085 
Q 353 4230 353 4432 
Q 353 4634 507 4777 
Q 662 4920 876 4920 
Q 1092 4920 1246 4777 
Q 1401 4634 1401 4432 
Q 1401 4230 1246 4085 
Q 1092 3941 876 3941 
z
" id="Inter-Bold-69" transform="scale(0.015625)"/>
      <path d="M 3641 3491 
L 2421 0 
L 1330 0 
L 109 3491 
L 1132 3491 
L 1857 993 
L 1893 993 
L 2616 3491 
L 3641 3491 
z
" id="Inter-Bold-76" transform="scale(0.015625)"/>
      <path d="M 1977 -68 
Q 1441 -68 1052 151 
Q 664 370 455 773 
Q 246 1177 246 1730 
Q 246 2268 455 2675 
Q 664 3082 1044 3309 
Q 1425 3536 1939 3536 
Q 2400 3536 2771 3340 
Q 3143 3145 3361 2751 
Q 3580 2357 3580 1764 
L 3580 1498 
L 1202 1498 
L 1202 1495 
Q 1202 1105 1416 880 
Q 1630 655 1993 655 
Q 2236 655 2413 757 
Q 2591 859 2664 1059 
L 3559 1000 
Q 3457 514 3041 223 
Q 2625 -68 1977 -68 
z
M 1202 2098 
L 2668 2098 
Q 2666 2409 2468 2611 
Q 2271 2814 1955 2814 
Q 1632 2814 1425 2604 
Q 1218 2395 1202 2098 
z
" id="Inter-Bold-65" transform="scale(0.015625)"/>
      <path id="Inter-Bold-20" transform="scale(0.015625)"/>
      <path d="M 4682 2327 
Q 4682 1566 4394 1032 
Q 4107 498 3614 217 
Q 3121 -64 2502 -64 
Q 1882 -64 1389 218 
Q 896 500 609 1035 
Q 323 1570 323 2327 
Q 323 3089 609 3623 
Q 896 4157 1389 4437 
Q 1882 4718 2502 4718 
Q 3121 4718 3614 4437 
Q 4107 4157 4394 3623 
Q 4682 3089 4682 2327 
z
M 3684 2327 
Q 3684 3068 3361 3458 
Q 3039 3848 2502 3848 
Q 1966 3848 1643 3458 
Q 1321 3068 1321 2327 
Q 1321 1589 1643 1198 
Q 1966 807 2502 807 
Q 3039 807 3361 1198 
Q 3684 1589 3684 2327 
z
" id="Inter-Bold-4f" transform="scale(0.015625)"/>
      <path d="M 1246 4655 
L 2371 1118 
L 2414 1118 
L 3541 4655 
L 4632 4655 
L 3027 0 
L 1759 0 
L 152 4655 
L 1246 4655 
z
" id="Inter-Bold-56" transform="scale(0.015625)"/>
      <path d="M 1389 4655 
L 1389 0 
L 405 0 
L 405 4655 
L 1389 4655 
z
" id="Inter-Bold-49" transform="scale(0.015625)"/>
      <path d="M 2055 0 
L 405 0 
L 405 4655 
L 2068 4655 
Q 2771 4655 3278 4376 
Q 3786 4098 4059 3577 
Q 4332 3057 4332 2332 
Q 4332 1605 4058 1082 
Q 3784 559 3274 279 
Q 2764 0 2055 0 
z
M 1389 843 
L 2014 843 
Q 2671 843 3010 1197 
Q 3350 1552 3350 2332 
Q 3350 3107 3010 3459 
Q 2671 3811 2016 3811 
L 1389 3811 
L 1389 843 
z
" id="Inter-Bold-44" transform="scale(0.015625)"/>
      <path d="M 2561 2295 
L 2561 1527 
L 439 1527 
L 439 2295 
L 2561 2295 
z
" id="Inter-Bold-2d" transform="scale(0.015625)"/>
      <path d="M 2305 4655 
L 2305 0 
L 1323 0 
L 1323 3450 
L 1280 3450 
Q 1205 3334 961 3219 
Q 718 3105 332 3105 
L 332 3886 
Q 632 3886 857 4019 
Q 1082 4152 1209 4333 
Q 1336 4514 1341 4655 
L 2305 4655 
z
" id="Inter-Bold-31" transform="scale(0.015625)"/>
      <path d="M 2061 4732 
Q 2421 4732 2753 4612 
Q 3086 4493 3348 4227 
Q 3611 3961 3766 3523 
Q 3921 3086 3921 2448 
Q 3921 1659 3686 1096 
Q 3452 534 3028 235 
Q 2605 -64 2027 -64 
Q 1561 -64 1204 117 
Q 848 298 631 610 
Q 414 923 368 1314 
L 1339 1314 
Q 1396 1059 1577 919 
Q 1759 780 2027 780 
Q 2482 780 2718 1176 
Q 2955 1573 2957 2264 
L 2925 2264 
Q 2771 1957 2453 1782 
Q 2136 1607 1752 1607 
Q 1341 1607 1016 1801 
Q 691 1995 506 2334 
Q 321 2673 323 3109 
Q 321 3582 539 3949 
Q 757 4316 1149 4525 
Q 1541 4734 2061 4732 
z
M 2068 3959 
Q 1725 3959 1500 3722 
Q 1275 3486 1277 3136 
Q 1275 2791 1496 2555 
Q 1718 2320 2059 2320 
Q 2284 2320 2465 2431 
Q 2646 2543 2751 2729 
Q 2857 2916 2859 3141 
Q 2857 3366 2753 3551 
Q 2650 3736 2473 3847 
Q 2296 3959 2068 3959 
z
" id="Inter-Bold-39" transform="scale(0.015625)"/>
      <path d="M 1964 -68 
Q 1427 -68 1042 160 
Q 657 389 451 795 
Q 246 1202 246 1732 
Q 246 2268 453 2674 
Q 661 3080 1045 3308 
Q 1430 3536 1959 3536 
Q 2416 3536 2760 3370 
Q 3105 3205 3303 2905 
Q 3502 2605 3523 2200 
L 2609 2200 
Q 2571 2461 2406 2621 
Q 2241 2782 1975 2782 
Q 1639 2782 1434 2511 
Q 1230 2241 1230 1745 
Q 1230 1245 1433 971 
Q 1636 698 1975 698 
Q 2225 698 2395 849 
Q 2566 1000 2609 1280 
L 3523 1280 
Q 3500 880 3305 575 
Q 3111 270 2770 101 
Q 2430 -68 1964 -68 
z
" id="Inter-Bold-63" transform="scale(0.015625)"/>
      <path d="M 3291 2495 
L 2405 2441 
Q 2368 2609 2220 2729 
Q 2073 2850 1821 2850 
Q 1596 2850 1440 2755 
Q 1284 2661 1286 2505 
Q 1284 2380 1385 2293 
Q 1486 2207 1730 2155 
L 2361 2027 
Q 3368 1820 3371 1082 
Q 3371 739 3169 479 
Q 2968 220 2618 76 
Q 2268 -68 1816 -68 
Q 1123 -68 711 221 
Q 300 511 232 1011 
L 1184 1061 
Q 1230 848 1394 739 
Q 1559 630 1818 630 
Q 2073 630 2228 730 
Q 2384 830 2386 984 
Q 2380 1243 1939 1332 
L 1334 1452 
Q 321 1655 325 2450 
Q 323 2955 728 3245 
Q 1134 3536 1805 3536 
Q 2466 3536 2846 3256 
Q 3227 2977 3291 2495 
z
" id="Inter-Bold-73" transform="scale(0.015625)"/>
      <path d="M 1355 2018 
L 1355 0 
L 386 0 
L 386 3491 
L 1309 3491 
L 1309 2875 
L 1350 2875 
Q 1468 3180 1739 3358 
Q 2011 3536 2400 3536 
Q 2946 3536 3275 3185 
Q 3605 2834 3605 2223 
L 3605 0 
L 2636 0 
L 2636 2050 
Q 2639 2370 2473 2551 
Q 2307 2732 2016 2732 
Q 1723 2732 1540 2544 
Q 1357 2357 1355 2018 
z
" id="Inter-Bold-6e" transform="scale(0.015625)"/>
      <path d="M 3286 4655 
L 4264 4655 
L 4264 1577 
Q 4264 1050 4016 683 
Q 3768 316 3333 125 
Q 2898 -66 2334 -66 
Q 1771 -66 1334 125 
Q 898 316 651 683 
Q 405 1050 405 1577 
L 405 4655 
L 1389 4655 
L 1389 1611 
Q 1389 1239 1658 1025 
Q 1927 811 2334 811 
Q 2748 811 3017 1025 
Q 3286 1239 3286 1611 
L 3286 4655 
z
" id="Inter-Bold-55" transform="scale(0.015625)"/>
      <path d="M 405 0 
L 405 4655 
L 1389 4655 
L 1389 2602 
L 1450 2602 
L 3125 4655 
L 4305 4655 
L 2577 2570 
L 4325 0 
L 3148 0 
L 1873 1914 
L 1389 1323 
L 1389 0 
L 405 0 
z
" id="Inter-Bold-4b" transform="scale(0.015625)"/>
      <path d="M 4298 4655 
L 4298 0 
L 3448 0 
L 1423 2930 
L 1389 2930 
L 1389 0 
L 405 0 
L 405 4655 
L 1268 4655 
L 3277 1727 
L 3318 1727 
L 3318 4655 
L 4298 4655 
z
" id="Inter-Bold-4e" transform="scale(0.015625)"/>
      <path d="M 1964 -68 
Q 1434 -68 1049 158 
Q 664 384 455 789 
Q 246 1195 246 1732 
Q 246 2273 455 2678 
Q 664 3084 1049 3310 
Q 1434 3536 1964 3536 
Q 2493 3536 2878 3310 
Q 3264 3084 3473 2678 
Q 3682 2273 3682 1732 
Q 3682 1195 3473 789 
Q 3264 384 2878 158 
Q 2493 -68 1964 -68 
z
M 1968 682 
Q 2327 682 2512 982 
Q 2698 1282 2698 1739 
Q 2698 2195 2512 2496 
Q 2327 2798 1968 2798 
Q 1602 2798 1416 2496 
Q 1230 2195 1230 1739 
Q 1230 1282 1416 982 
Q 1602 682 1968 682 
z
" id="Inter-Bold-6f" transform="scale(0.015625)"/>
      <path d="M 1439 636 
L 1414 386 
Q 1384 86 1301 -212 
Q 1218 -511 1128 -754 
Q 1039 -998 984 -1136 
L 357 -1136 
Q 391 -1002 450 -763 
Q 509 -525 561 -226 
Q 614 73 627 382 
L 639 636 
L 1439 636 
z
" id="Inter-Bold-2c" transform="scale(0.015625)"/>
      <path d="M 386 -1309 
L 386 3491 
L 1341 3491 
L 1341 2905 
L 1384 2905 
Q 1450 3048 1570 3193 
Q 1691 3339 1888 3437 
Q 2086 3536 2377 3536 
Q 2761 3536 3081 3337 
Q 3402 3139 3596 2740 
Q 3791 2341 3791 1741 
Q 3791 1157 3602 756 
Q 3414 355 3093 149 
Q 2773 -57 2375 -57 
Q 2093 -57 1896 36 
Q 1700 130 1576 272 
Q 1452 414 1384 559 
L 1355 559 
L 1355 -1309 
L 386 -1309 
z
M 1334 1745 
Q 1334 1280 1526 997 
Q 1718 714 2068 714 
Q 2425 714 2613 1001 
Q 2802 1289 2802 1745 
Q 2802 2200 2614 2483 
Q 2427 2766 2068 2766 
Q 1716 2766 1525 2490 
Q 1334 2214 1334 1745 
z
" id="Inter-Bold-70" transform="scale(0.015625)"/>
      <path d="M 386 0 
L 386 3491 
L 1325 3491 
L 1325 2882 
L 1361 2882 
Q 1457 3207 1681 3374 
Q 1905 3541 2200 3541 
Q 2341 3541 2461 3507 
Q 2582 3473 2677 3414 
L 2386 2614 
Q 2318 2648 2237 2671 
Q 2157 2695 2057 2695 
Q 1764 2695 1560 2495 
Q 1357 2295 1355 1975 
L 1355 0 
L 386 0 
z
" id="Inter-Bold-72" transform="scale(0.015625)"/>
     </defs>
     <use xlink:href="#Inter-Bold-43"/>
     <use x="75.213089" xlink:href="#Inter-Bold-75"/>
     <use x="137.393494" xlink:href="#Inter-Bold-6d"/>
     <use x="228.5867" xlink:href="#Inter-Bold-75"/>
     <use x="290.767105" xlink:href="#Inter-Bold-6c"/>
     <use x="317.968811" xlink:href="#Inter-Bold-61"/>
     <use x="375.994385" xlink:href="#Inter-Bold-74"/>
     <use x="414.843826" xlink:href="#Inter-Bold-69"/>
     <use x="442.045532" xlink:href="#Inter-Bold-76"/>
     <use x="500.639297" xlink:href="#Inter-Bold-65"/>
     <use x="560.404938" xlink:href="#Inter-Bold-20"/>
     <use x="583.593857" xlink:href="#Inter-Bold-43"/>
     <use x="658.806946" xlink:href="#Inter-Bold-4f"/>
     <use x="737.002991" xlink:href="#Inter-Bold-56"/>
     <use x="811.789932" xlink:href="#Inter-Bold-49"/>
     <use x="839.843918" xlink:href="#Inter-Bold-44"/>
     <use x="912.571213" xlink:href="#Inter-Bold-2d"/>
     <use x="959.446228" xlink:href="#Inter-Bold-31"/>
     <use x="1006.853912" xlink:href="#Inter-Bold-39"/>
     <use x="1072.869553" xlink:href="#Inter-Bold-20"/>
     <use x="1096.058472" xlink:href="#Inter-Bold-63"/>
     <use x="1154.794281" xlink:href="#Inter-Bold-61"/>
     <use x="1212.819855" xlink:href="#Inter-Bold-73"/>
     <use x="1268.99884" xlink:href="#Inter-Bold-65"/>
     <use x="1328.764481" xlink:href="#Inter-Bold-73"/>
     <use x="1384.943466" xlink:href="#Inter-Bold-20"/>
     <use x="1408.132385" xlink:href="#Inter-Bold-69"/>
     <use x="1435.334091" xlink:href="#Inter-Bold-6e"/>
     <use x="1497.514496" xlink:href="#Inter-Bold-20"/>
     <use x="1520.703415" xlink:href="#Inter-Bold-55"/>
     <use x="1593.643768" xlink:href="#Inter-Bold-4b"/>
     <use x="1662.606857" xlink:href="#Inter-Bold-20"/>
     <use x="1685.795776" xlink:href="#Inter-Bold-4e"/>
     <use x="1759.304321" xlink:href="#Inter-Bold-61"/>
     <use x="1817.329895" xlink:href="#Inter-Bold-74"/>
     <use x="1856.179337" xlink:href="#Inter-Bold-69"/>
     <use x="1883.381042" xlink:href="#Inter-Bold-6f"/>
     <use x="1944.74469" xlink:href="#Inter-Bold-6e"/>
     <use x="2006.925095" xlink:href="#Inter-Bold-73"/>
     <use x="2063.10408" xlink:href="#Inter-Bold-2c"/>
     <use x="2093.395279" xlink:href="#Inter-Bold-20"/>
     <use x="2116.584198" xlink:href="#Inter-Bold-70"/>
     <use x="2179.829956" xlink:href="#Inter-Bold-65"/>
     <use x="2239.595596" xlink:href="#Inter-Bold-72"/>
     <use x="2282.457825" xlink:href="#Inter-Bold-20"/>
     <use x="2305.646744" xlink:href="#Inter-Bold-63"/>
     <use x="2364.382553" xlink:href="#Inter-Bold-61"/>
     <use x="2422.408127" xlink:href="#Inter-Bold-70"/>
     <use x="2485.653885" xlink:href="#Inter-Bold-69"/>
     <use x="2512.855591" xlink:href="#Inter-Bold-74"/>
     <use x="2551.705032" xlink:href="#Inter-Bold-61"/>
    </g>
   </g>
   <g id="legend_1">
    <g id="patch_4">
     <path d="M 60.204688 98.614062 
L 169.778125 98.614062 
Q 171.778125 98.614062 171.778125 96.614062 
L 171.778125 40.225 
Q 171.778125 38.225 169.778125 38.225 
L 60.204688 38.225 
Q 58.204688 38.225 58.204688 40.225 
L 58.204688 96.614062 
Q 58.204688 98.614062 60.204688 98.614062 
z
" style="fill:#ffffff;opacity:0.8;stroke:#cccccc;stroke-linejoin:miter;"/>
    </g>
    <g id="line2d_33">
     <path d="M 62.204688 45.998437 
L 82.204688 45.998437 
" style="fill:none;stroke:#d4351c;stroke-linecap:square;stroke-width:2;"/>
    </g>
    <g id="line2d_34"/>
    <g id="text_17">
     <!-- Wales -->
     <g transform="translate(90.204688 49.498437)scale(0.1 -0.1)">
      <defs>
       <path d="M 1409 0 
L 136 4655 
L 709 4655 
L 1682 864 
L 1727 864 
L 2718 4655 
L 3355 4655 
L 4346 864 
L 4391 864 
L 5364 4655 
L 5936 4655 
L 4664 0 
L 4082 0 
L 3055 3709 
L 3018 3709 
L 1991 0 
L 1409 0 
z
" id="Inter-Regular-57" transform="scale(0.015625)"/>
      </defs>
      <use xlink:href="#Inter-Regular-57"/>
      <use x="94.886383" xlink:href="#Inter-Regular-61"/>
      <use x="151.278442" xlink:href="#Inter-Regular-6c"/>
      <use x="175.000031" xlink:href="#Inter-Regular-65"/>
      <use x="233.238678" xlink:href="#Inter-Regular-73"/>
     </g>
    </g>
    <g id="line2d_35">
     <path d="M 62.204688 60.317187 
L 82.204688 60.317187 
" style="fill:none;stroke:#003078;stroke-linecap:square;stroke-width:2;"/>
    </g>
    <g id="line2d_36"/>
    <g id="text_18">
     <!-- Scotland -->
     <g transform="translate(90.204688 63.817187)scale(0.1 -0.1)">
      <use xlink:href="#Inter-Regular-53"/>
      <use x="63.778427" xlink:href="#Inter-Regular-63"/>
      <use x="119.602295" xlink:href="#Inter-Regular-6f"/>
      <use x="179.261398" xlink:href="#Inter-Regular-74"/>
      <use x="215.625046" xlink:href="#Inter-Regular-6c"/>
      <use x="239.346634" xlink:href="#Inter-Regular-61"/>
      <use x="295.738693" xlink:href="#Inter-Regular-6e"/>
      <use x="354.261429" xlink:href="#Inter-Regular-64"/>
     </g>
    </g>
    <g id="line2d_37">
     <path d="M 62.204688 74.635937 
L 82.204688 74.635937 
" style="fill:none;stroke:#ffdd00;stroke-linecap:square;stroke-width:2;"/>
    </g>
    <g id="line2d_38"/>
    <g id="text_19">
     <!-- Northern Ireland -->
     <g transform="translate(90.204688 78.135937)scale(0.1 -0.1)">
      <defs>
       <path d="M 1027 2100 
L 1027 0 
L 491 0 
L 491 4655 
L 1027 4655 
L 1027 2945 
L 1073 2945 
Q 1196 3216 1442 3376 
Q 1689 3536 2100 3536 
Q 2636 3536 2963 3213 
Q 3291 2891 3291 2218 
L 3291 0 
L 2755 0 
L 2755 2182 
Q 2755 2598 2540 2826 
Q 2325 3055 1946 3055 
Q 1548 3055 1287 2806 
Q 1027 2557 1027 2100 
z
" id="Inter-Regular-68" transform="scale(0.015625)"/>
       <path d="M 1127 4655 
L 1127 0 
L 564 0 
L 564 4655 
L 1127 4655 
z
" id="Inter-Regular-49" transform="scale(0.015625)"/>
      </defs>
      <use xlink:href="#Inter-Regular-4e"/>
      <use x="75.284103" xlink:href="#Inter-Regular-6f"/>
      <use x="134.943207" xlink:href="#Inter-Regular-72"/>
      <use x="173.295486" xlink:href="#Inter-Regular-74"/>
      <use x="209.659134" xlink:href="#Inter-Regular-68"/>
      <use x="268.750061" xlink:href="#Inter-Regular-65"/>
      <use x="326.988708" xlink:href="#Inter-Regular-72"/>
      <use x="365.340988" xlink:href="#Inter-Regular-6e"/>
      <use x="423.863724" xlink:href="#Inter-Regular-20"/>
      <use x="451.988724" xlink:href="#Inter-Regular-49"/>
      <use x="478.40918" xlink:href="#Inter-Regular-72"/>
      <use x="516.761459" xlink:href="#Inter-Regular-65"/>
      <use x="575.000107" xlink:href="#Inter-Regular-6c"/>
      <use x="598.721695" xlink:href="#Inter-Regular-61"/>
      <use x="655.113754" xlink:href="#Inter-Regular-6e"/>
      <use x="713.63649" xlink:href="#Inter-Regular-64"/>
     </g>
    </g>
    <g id="line2d_39">
     <path d="M 62.204688 88.954687 
L 82.204688 88.954687 
" style="fill:none;stroke:#5694ca;stroke-linecap:square;stroke-width:2;"/>
    </g>
    <g id="line2d_40"/>
    <g id="text_20">
     <!-- England -->
     <g transform="translate(90.204688 92.454687)scale(0.1 -0.1)">
      <defs>
       <path d="M 564 0 
L 564 4655 
L 3373 4655 
L 3373 4155 
L 1127 4155 
L 1127 2582 
L 3227 2582 
L 3227 2082 
L 1127 2082 
L 1127 500 
L 3409 500 
L 3409 0 
L 564 0 
z
" id="Inter-Regular-45" transform="scale(0.015625)"/>
       <path d="M 1900 -1382 
Q 1316 -1382 976 -1169 
Q 636 -957 473 -682 
L 900 -382 
Q 973 -477 1084 -601 
Q 1196 -725 1390 -817 
Q 1584 -909 1900 -909 
Q 2323 -909 2598 -704 
Q 2873 -500 2873 -64 
L 2873 645 
L 2827 645 
Q 2768 550 2660 410 
Q 2552 270 2351 162 
Q 2150 55 1809 55 
Q 1386 55 1051 255 
Q 716 455 521 836 
Q 327 1218 327 1764 
Q 327 2300 516 2699 
Q 705 3098 1041 3317 
Q 1377 3536 1818 3536 
Q 2159 3536 2360 3423 
Q 2561 3311 2669 3169 
Q 2777 3027 2836 2936 
L 2891 2936 
L 2891 3491 
L 3409 3491 
L 3409 -100 
Q 3409 -550 3205 -833 
Q 3002 -1116 2660 -1249 
Q 2318 -1382 1900 -1382 
z
M 1882 536 
Q 2366 536 2624 864 
Q 2882 1193 2882 1773 
Q 2882 2339 2627 2697 
Q 2373 3055 1882 3055 
Q 1541 3055 1315 2882 
Q 1089 2709 976 2418 
Q 864 2127 864 1773 
Q 864 1227 1120 881 
Q 1377 536 1882 536 
z
" id="Inter-Regular-67" transform="scale(0.015625)"/>
      </defs>
      <use xlink:href="#Inter-Regular-45"/>
      <use x="59.801147" xlink:href="#Inter-Regular-6e"/>
      <use x="118.323883" xlink:href="#Inter-Regular-67"/>
      <use x="179.261398" xlink:href="#Inter-Regular-6c"/>
      <use x="202.982986" xlink:href="#Inter-Regular-61"/>
      <use x="259.375046" xlink:href="#Inter-Regular-6e"/>
      <use x="317.897781" xlink:href="#Inter-Regular-64"/>
     </g>
    </g>
   </g>
  </g>
 </g>
 <defs>
  <clipPath id="pdf731132e7">
   <rect height="443.52" width="669.6" x="53.204688" y="33.225"/>
  </clipPath>
 </defs>
</svg>
