<?xml version="1.0" encoding="utf-8" standalone="no"?>
<!DOCTYPE svg PUBLIC "-//W3C//DTD SVG 1.1//EN"
  "http://www.w3.org/Graphics/SVG/1.1/DTD/svg11.dtd">
<svg version="1.1" viewBox="0 0 756.060938 511.234062" xmlns="http://www.w3.org/2000/svg" xmlns:xlink="http://www.w3.org/1999/xlink">
 <metadata>
  <rdf:RDF xmlns:cc="http://creativecommons.org/ns#" xmlns:dc="http://purl.org/dc/elements/1.1/" xmlns:rdf="http://www.w3.org/1999/02/22-rdf-syntax-ns#">
   <cc:Work>
    <dc:type rdf:resource="http://purl.org/dc/dcmitype/StillImage"/>
    <dc:date>2021-06-18T16:19:57.051487</dc:date>
    <dc:format>image/svg+xml</dc:format>
    <dc:creator>
     <cc:Agent>
      <dc:title>Matplotlib v3.4.2, https://matplotlib.org/</dc:title>
     </cc:Agent>
    </dc:creator>
   </cc:Work>
  </rdf:RDF>
 </metadata>
 <defs>
  <style type="text/css">*{stroke-linecap:butt;stroke-linejoin:round;}</style>
 </defs>
 <g id="figure_1">
  <g id="patch_1">
   <path d="M 0 511.234062 
L 756.060938 511.234062 
L 756.060938 0 
L 0 0 
z
" style="fill:#ffffff;"/>
  </g>
  <g id="axes_1">
   <g id="patch_2">
    <path d="M 68.460938 476.745 
L 738.060938 476.745 
L 738.060938 33.225 
L 68.460938 33.225 
z
" style="fill:#ffffff;"/>
   </g>
   <g id="matplotlib.axis_1">
    <g id="xtick_1">
     <g id="line2d_1">
      <defs>
       <path d="M 0 0 
L 0 3.5 
" id="md89117c7c5" style="stroke:#000000;stroke-width:0.8;"/>
      </defs>
      <g>
       <use style="stroke:#000000;stroke-width:0.8;" x="68.460938" xlink:href="#md89117c7c5" y="476.745"/>
      </g>
     </g>
     <g id="text_1">
      <!-- 01 Mar -->
      <g transform="translate(52.424219 491.018437)scale(0.1 -0.1)">
       <defs>
        <path d="M 2000 -64 
Q 1230 -64 806 561 
Q 382 1186 382 2327 
Q 382 3459 809 4088 
Q 1236 4718 2000 4718 
Q 2764 4718 3191 4088 
Q 3618 3459 3618 2327 
Q 3618 1186 3194 561 
Q 2771 -64 2000 -64 
z
M 2000 436 
Q 2509 436 2791 927 
Q 3073 1418 3073 2327 
Q 3073 3234 2789 3730 
Q 2505 4227 2000 4227 
Q 1496 4227 1211 3730 
Q 927 3234 927 2327 
Q 927 1418 1210 927 
Q 1493 436 2000 436 
z
" id="Inter-Regular-30" transform="scale(0.015625)"/>
        <path d="M 1973 4655 
L 1973 0 
L 1409 0 
L 1409 3836 
L 1373 3836 
Q 1341 3773 1209 3692 
Q 1077 3611 868 3551 
Q 659 3491 391 3491 
L 391 3964 
Q 661 3964 859 4061 
Q 1057 4159 1190 4291 
Q 1323 4423 1392 4529 
Q 1461 4636 1473 4655 
L 1973 4655 
z
" id="Inter-Regular-31" transform="scale(0.015625)"/>
        <path id="Inter-Regular-20" transform="scale(0.015625)"/>
        <path d="M 564 4655 
L 1236 4655 
L 2818 791 
L 2873 791 
L 4455 4655 
L 5127 4655 
L 5127 0 
L 4600 0 
L 4600 3536 
L 4555 3536 
L 3100 0 
L 2591 0 
L 1136 3536 
L 1091 3536 
L 1091 0 
L 564 0 
L 564 4655 
z
" id="Inter-Regular-4d" transform="scale(0.015625)"/>
        <path d="M 1518 -82 
Q 1186 -82 916 44 
Q 646 170 486 410 
Q 327 650 327 991 
Q 327 1291 445 1478 
Q 564 1666 761 1773 
Q 959 1880 1199 1933 
Q 1439 1986 1682 2018 
Q 2000 2059 2199 2080 
Q 2398 2102 2490 2154 
Q 2582 2207 2582 2336 
L 2582 2355 
Q 2582 2691 2399 2877 
Q 2216 3064 1846 3064 
Q 1461 3064 1243 2895 
Q 1025 2727 936 2536 
L 427 2718 
Q 564 3036 792 3214 
Q 1021 3393 1292 3464 
Q 1564 3536 1827 3536 
Q 1996 3536 2215 3496 
Q 2434 3457 2640 3334 
Q 2846 3211 2982 2963 
Q 3118 2716 3118 2300 
L 3118 0 
L 2582 0 
L 2582 473 
L 2555 473 
Q 2500 359 2373 229 
Q 2246 100 2034 9 
Q 1823 -82 1518 -82 
z
M 1600 400 
Q 1918 400 2137 525 
Q 2357 650 2469 847 
Q 2582 1045 2582 1264 
L 2582 1755 
Q 2548 1714 2433 1681 
Q 2318 1648 2169 1624 
Q 2021 1600 1881 1583 
Q 1741 1566 1655 1555 
Q 1446 1527 1265 1467 
Q 1084 1407 974 1287 
Q 864 1168 864 964 
Q 864 684 1072 542 
Q 1280 400 1600 400 
z
" id="Inter-Regular-61" transform="scale(0.015625)"/>
        <path d="M 491 0 
L 491 3491 
L 1009 3491 
L 1009 2964 
L 1046 2964 
Q 1139 3223 1389 3384 
Q 1639 3545 1955 3545 
Q 2100 3545 2209 3511 
Q 2318 3477 2400 3418 
L 2218 2964 
Q 2161 2993 2085 3010 
Q 2009 3027 1909 3027 
Q 1527 3027 1277 2794 
Q 1027 2561 1027 2209 
L 1027 0 
L 491 0 
z
" id="Inter-Regular-72" transform="scale(0.015625)"/>
       </defs>
       <use xlink:href="#Inter-Regular-30"/>
       <use x="62.500015" xlink:href="#Inter-Regular-31"/>
       <use x="106.676163" xlink:href="#Inter-Regular-20"/>
       <use x="134.801163" xlink:href="#Inter-Regular-4d"/>
       <use x="225.99437" xlink:href="#Inter-Regular-61"/>
       <use x="282.386429" xlink:href="#Inter-Regular-72"/>
      </g>
     </g>
    </g>
    <g id="xtick_2">
     <g id="line2d_2">
      <g>
       <use style="stroke:#000000;stroke-width:0.8;" x="112.190653" xlink:href="#md89117c7c5" y="476.745"/>
      </g>
     </g>
    </g>
    <g id="xtick_3">
     <g id="line2d_3">
      <g>
       <use style="stroke:#000000;stroke-width:0.8;" x="154.509733" xlink:href="#md89117c7c5" y="476.745"/>
      </g>
     </g>
     <g id="text_2">
      <!-- 01 May -->
      <g transform="translate(137.606608 491.116875)scale(0.1 -0.1)">
       <defs>
        <path d="M 818 -1355 
Q 682 -1355 575 -1333 
Q 468 -1311 427 -1291 
L 564 -818 
Q 857 -893 1053 -814 
Q 1250 -736 1391 -345 
L 1509 -18 
L 218 3491 
L 800 3491 
L 1764 709 
L 1800 709 
L 2764 3491 
L 3346 3491 
L 1846 -564 
Q 1550 -1355 818 -1355 
z
" id="Inter-Regular-79" transform="scale(0.015625)"/>
       </defs>
       <use xlink:href="#Inter-Regular-30"/>
       <use x="62.500015" xlink:href="#Inter-Regular-31"/>
       <use x="106.676163" xlink:href="#Inter-Regular-20"/>
       <use x="134.801163" xlink:href="#Inter-Regular-4d"/>
       <use x="225.99437" xlink:href="#Inter-Regular-61"/>
       <use x="282.386429" xlink:href="#Inter-Regular-79"/>
      </g>
     </g>
    </g>
    <g id="xtick_4">
     <g id="line2d_4">
      <g>
       <use style="stroke:#000000;stroke-width:0.8;" x="198.239449" xlink:href="#md89117c7c5" y="476.745"/>
      </g>
     </g>
    </g>
    <g id="xtick_5">
     <g id="line2d_5">
      <g>
       <use style="stroke:#000000;stroke-width:0.8;" x="240.558529" xlink:href="#md89117c7c5" y="476.745"/>
      </g>
     </g>
     <g id="text_3">
      <!-- 01 Jul -->
      <g transform="translate(227.014779 491.018437)scale(0.1 -0.1)">
       <defs>
        <path d="M 2346 4655 
L 2909 4655 
L 2909 1327 
Q 2909 657 2549 296 
Q 2189 -64 1582 -64 
Q 1200 -64 902 76 
Q 605 216 434 475 
Q 264 734 264 1091 
L 818 1091 
Q 818 795 1034 615 
Q 1250 436 1582 436 
Q 1948 436 2147 664 
Q 2346 893 2346 1327 
L 2346 4655 
z
" id="Inter-Regular-4a" transform="scale(0.015625)"/>
        <path d="M 2691 1427 
L 2691 3491 
L 3227 3491 
L 3227 0 
L 2691 0 
L 2691 591 
L 2655 591 
Q 2532 325 2273 140 
Q 2014 -45 1618 -45 
Q 1127 -45 809 280 
Q 491 605 491 1273 
L 491 3491 
L 1027 3491 
L 1027 1309 
Q 1027 927 1242 700 
Q 1457 473 1791 473 
Q 1991 473 2199 575 
Q 2407 677 2549 888 
Q 2691 1100 2691 1427 
z
" id="Inter-Regular-75" transform="scale(0.015625)"/>
        <path d="M 1027 4655 
L 1027 0 
L 491 0 
L 491 4655 
L 1027 4655 
z
" id="Inter-Regular-6c" transform="scale(0.015625)"/>
       </defs>
       <use xlink:href="#Inter-Regular-30"/>
       <use x="62.500015" xlink:href="#Inter-Regular-31"/>
       <use x="106.676163" xlink:href="#Inter-Regular-20"/>
       <use x="134.801163" xlink:href="#Inter-Regular-4a"/>
       <use x="189.062531" xlink:href="#Inter-Regular-75"/>
       <use x="247.159134" xlink:href="#Inter-Regular-6c"/>
      </g>
     </g>
    </g>
    <g id="xtick_6">
     <g id="line2d_6">
      <g>
       <use style="stroke:#000000;stroke-width:0.8;" x="284.288245" xlink:href="#md89117c7c5" y="476.745"/>
      </g>
     </g>
    </g>
    <g id="xtick_7">
     <g id="line2d_7">
      <g>
       <use style="stroke:#000000;stroke-width:0.8;" x="328.017961" xlink:href="#md89117c7c5" y="476.745"/>
      </g>
     </g>
     <g id="text_4">
      <!-- 01 Sep -->
      <g transform="translate(312.130461 491.116875)scale(0.1 -0.1)">
       <defs>
        <path d="M 3109 3491 
Q 3068 3836 2777 4027 
Q 2486 4218 2064 4218 
Q 1600 4218 1318 3999 
Q 1036 3780 1036 3445 
Q 1036 3195 1189 3042 
Q 1343 2889 1553 2803 
Q 1764 2718 1936 2673 
L 2409 2545 
Q 2591 2498 2815 2414 
Q 3039 2330 3244 2185 
Q 3450 2041 3584 1816 
Q 3718 1591 3718 1264 
Q 3718 886 3521 581 
Q 3325 277 2949 97 
Q 2573 -82 2036 -82 
Q 1286 -82 845 272 
Q 405 627 364 1200 
L 946 1200 
Q 968 936 1124 764 
Q 1280 593 1519 510 
Q 1759 427 2036 427 
Q 2359 427 2616 533 
Q 2873 639 3023 828 
Q 3173 1018 3173 1273 
Q 3173 1505 3043 1650 
Q 2914 1795 2702 1886 
Q 2491 1977 2246 2045 
L 1673 2209 
Q 1127 2366 809 2657 
Q 491 2948 491 3418 
Q 491 3809 703 4101 
Q 916 4393 1276 4555 
Q 1636 4718 2082 4718 
Q 2532 4718 2882 4558 
Q 3232 4398 3437 4120 
Q 3643 3843 3655 3491 
L 3109 3491 
z
" id="Inter-Regular-53" transform="scale(0.015625)"/>
        <path d="M 1955 -73 
Q 1450 -73 1085 151 
Q 721 375 524 778 
Q 327 1182 327 1718 
Q 327 2255 524 2665 
Q 721 3075 1074 3305 
Q 1427 3536 1900 3536 
Q 2173 3536 2439 3445 
Q 2705 3355 2923 3151 
Q 3141 2948 3270 2614 
Q 3400 2280 3400 1791 
L 3400 1564 
L 866 1564 
Q 884 1005 1183 707 
Q 1482 409 1955 409 
Q 2271 409 2498 545 
Q 2725 682 2827 955 
L 3346 809 
Q 3223 414 2854 170 
Q 2486 -73 1955 -73 
z
M 866 2027 
L 2855 2027 
Q 2855 2470 2595 2762 
Q 2336 3055 1900 3055 
Q 1593 3055 1368 2911 
Q 1143 2768 1013 2533 
Q 884 2298 866 2027 
z
" id="Inter-Regular-65" transform="scale(0.015625)"/>
        <path d="M 491 -1309 
L 491 3491 
L 1009 3491 
L 1009 2936 
L 1073 2936 
Q 1132 3027 1237 3169 
Q 1343 3311 1542 3423 
Q 1741 3536 2082 3536 
Q 2523 3536 2859 3315 
Q 3196 3095 3384 2690 
Q 3573 2286 3573 1736 
Q 3573 1182 3384 776 
Q 3196 370 2861 148 
Q 2527 -73 2091 -73 
Q 1755 -73 1552 39 
Q 1350 152 1241 296 
Q 1132 441 1073 536 
L 1027 536 
L 1027 -1309 
L 491 -1309 
z
M 1018 1745 
Q 1018 1152 1276 780 
Q 1534 409 2018 409 
Q 2355 409 2581 587 
Q 2807 766 2921 1069 
Q 3036 1373 3036 1745 
Q 3036 2114 2923 2410 
Q 2811 2707 2585 2881 
Q 2359 3055 2018 3055 
Q 1527 3055 1272 2693 
Q 1018 2332 1018 1745 
z
" id="Inter-Regular-70" transform="scale(0.015625)"/>
       </defs>
       <use xlink:href="#Inter-Regular-30"/>
       <use x="62.500015" xlink:href="#Inter-Regular-31"/>
       <use x="106.676163" xlink:href="#Inter-Regular-20"/>
       <use x="134.801163" xlink:href="#Inter-Regular-53"/>
       <use x="198.57959" xlink:href="#Inter-Regular-65"/>
       <use x="256.818237" xlink:href="#Inter-Regular-70"/>
      </g>
     </g>
    </g>
    <g id="xtick_8">
     <g id="line2d_8">
      <g>
       <use style="stroke:#000000;stroke-width:0.8;" x="370.337041" xlink:href="#md89117c7c5" y="476.745"/>
      </g>
     </g>
    </g>
    <g id="xtick_9">
     <g id="line2d_9">
      <g>
       <use style="stroke:#000000;stroke-width:0.8;" x="414.066757" xlink:href="#md89117c7c5" y="476.745"/>
      </g>
     </g>
     <g id="text_5">
      <!-- 01 Nov -->
      <g transform="translate(397.795664 491.018437)scale(0.1 -0.1)">
       <defs>
        <path d="M 4255 4655 
L 4255 0 
L 3709 0 
L 1173 3655 
L 1127 3655 
L 1127 0 
L 564 0 
L 564 4655 
L 1109 4655 
L 3655 991 
L 3700 991 
L 3700 4655 
L 4255 4655 
z
" id="Inter-Regular-4e" transform="scale(0.015625)"/>
        <path d="M 1909 -73 
Q 1436 -73 1080 152 
Q 725 377 526 781 
Q 327 1186 327 1727 
Q 327 2273 526 2679 
Q 725 3086 1080 3311 
Q 1436 3536 1909 3536 
Q 2382 3536 2737 3311 
Q 3093 3086 3292 2679 
Q 3491 2273 3491 1727 
Q 3491 1186 3292 781 
Q 3093 377 2737 152 
Q 2382 -73 1909 -73 
z
M 1909 409 
Q 2268 409 2500 593 
Q 2732 777 2843 1077 
Q 2955 1377 2955 1727 
Q 2955 2077 2843 2379 
Q 2732 2682 2500 2868 
Q 2268 3055 1909 3055 
Q 1550 3055 1318 2868 
Q 1086 2682 975 2379 
Q 864 2077 864 1727 
Q 864 1377 975 1077 
Q 1086 777 1318 593 
Q 1550 409 1909 409 
z
" id="Inter-Regular-6f" transform="scale(0.015625)"/>
        <path d="M 3346 3491 
L 2055 0 
L 1509 0 
L 218 3491 
L 800 3491 
L 1764 709 
L 1800 709 
L 2764 3491 
L 3346 3491 
z
" id="Inter-Regular-76" transform="scale(0.015625)"/>
       </defs>
       <use xlink:href="#Inter-Regular-30"/>
       <use x="62.500015" xlink:href="#Inter-Regular-31"/>
       <use x="106.676163" xlink:href="#Inter-Regular-20"/>
       <use x="134.801163" xlink:href="#Inter-Regular-4e"/>
       <use x="210.085266" xlink:href="#Inter-Regular-6f"/>
       <use x="269.74437" xlink:href="#Inter-Regular-76"/>
      </g>
     </g>
    </g>
    <g id="xtick_10">
     <g id="line2d_10">
      <g>
       <use style="stroke:#000000;stroke-width:0.8;" x="456.385837" xlink:href="#md89117c7c5" y="476.745"/>
      </g>
     </g>
    </g>
    <g id="xtick_11">
     <g id="line2d_11">
      <g>
       <use style="stroke:#000000;stroke-width:0.8;" x="500.115553" xlink:href="#md89117c7c5" y="476.745"/>
      </g>
     </g>
     <g id="text_6">
      <!-- 01 Jan -->
      <g transform="translate(484.916335 491.018437)scale(0.1 -0.1)">
       <defs>
        <path d="M 1027 2100 
L 1027 0 
L 491 0 
L 491 3491 
L 1009 3491 
L 1009 2945 
L 1055 2945 
Q 1177 3211 1427 3373 
Q 1677 3536 2073 3536 
Q 2602 3536 2928 3211 
Q 3255 2886 3255 2218 
L 3255 0 
L 2718 0 
L 2718 2182 
Q 2718 2593 2504 2824 
Q 2291 3055 1918 3055 
Q 1534 3055 1280 2806 
Q 1027 2557 1027 2100 
z
" id="Inter-Regular-6e" transform="scale(0.015625)"/>
       </defs>
       <use xlink:href="#Inter-Regular-30"/>
       <use x="62.500015" xlink:href="#Inter-Regular-31"/>
       <use x="106.676163" xlink:href="#Inter-Regular-20"/>
       <use x="134.801163" xlink:href="#Inter-Regular-4a"/>
       <use x="189.062531" xlink:href="#Inter-Regular-61"/>
       <use x="245.45459" xlink:href="#Inter-Regular-6e"/>
      </g>
     </g>
    </g>
    <g id="xtick_12">
     <g id="line2d_12">
      <g>
       <use style="stroke:#000000;stroke-width:0.8;" x="543.845269" xlink:href="#md89117c7c5" y="476.745"/>
      </g>
     </g>
    </g>
    <g id="xtick_13">
     <g id="line2d_13">
      <g>
       <use style="stroke:#000000;stroke-width:0.8;" x="583.343077" xlink:href="#md89117c7c5" y="476.745"/>
      </g>
     </g>
     <g id="text_7">
      <!-- 01 Mar -->
      <g transform="translate(567.306359 491.018437)scale(0.1 -0.1)">
       <use xlink:href="#Inter-Regular-30"/>
       <use x="62.500015" xlink:href="#Inter-Regular-31"/>
       <use x="106.676163" xlink:href="#Inter-Regular-20"/>
       <use x="134.801163" xlink:href="#Inter-Regular-4d"/>
       <use x="225.99437" xlink:href="#Inter-Regular-61"/>
       <use x="282.386429" xlink:href="#Inter-Regular-72"/>
      </g>
     </g>
    </g>
    <g id="xtick_14">
     <g id="line2d_14">
      <g>
       <use style="stroke:#000000;stroke-width:0.8;" x="627.072793" xlink:href="#md89117c7c5" y="476.745"/>
      </g>
     </g>
    </g>
    <g id="xtick_15">
     <g id="line2d_15">
      <g>
       <use style="stroke:#000000;stroke-width:0.8;" x="669.391873" xlink:href="#md89117c7c5" y="476.745"/>
      </g>
     </g>
     <g id="text_8">
      <!-- 01 May -->
      <g transform="translate(652.488748 491.116875)scale(0.1 -0.1)">
       <use xlink:href="#Inter-Regular-30"/>
       <use x="62.500015" xlink:href="#Inter-Regular-31"/>
       <use x="106.676163" xlink:href="#Inter-Regular-20"/>
       <use x="134.801163" xlink:href="#Inter-Regular-4d"/>
       <use x="225.99437" xlink:href="#Inter-Regular-61"/>
       <use x="282.386429" xlink:href="#Inter-Regular-79"/>
      </g>
     </g>
    </g>
    <g id="xtick_16">
     <g id="line2d_16">
      <g>
       <use style="stroke:#000000;stroke-width:0.8;" x="713.121589" xlink:href="#md89117c7c5" y="476.745"/>
      </g>
     </g>
    </g>
   </g>
   <g id="matplotlib.axis_2">
    <g id="ytick_1">
     <g id="line2d_17">
      <path clip-path="url(#p5cddb6b79b)" d="M 68.460938 476.745 
L 738.060938 476.745 
" style="fill:none;stroke:#e5e5e5;stroke-linecap:square;stroke-width:0.8;"/>
     </g>
     <g id="line2d_18">
      <defs>
       <path d="M 0 0 
L -3.5 0 
" id="m81e015bc89" style="stroke:#000000;stroke-width:0.8;"/>
      </defs>
      <g>
       <use style="stroke:#000000;stroke-width:0.8;" x="68.460938" xlink:href="#m81e015bc89" y="476.745"/>
      </g>
     </g>
     <g id="text_9">
      <!-- 0.00% -->
      <g transform="translate(31.829688 480.381719)scale(0.1 -0.1)">
       <defs>
        <path d="M 882 -36 
Q 714 -36 593 84 
Q 473 205 473 373 
Q 473 541 593 661 
Q 714 782 882 782 
Q 1050 782 1170 661 
Q 1291 541 1291 373 
Q 1291 205 1170 84 
Q 1050 -36 882 -36 
z
" id="Inter-Regular-2e" transform="scale(0.015625)"/>
        <path d="M 2855 873 
L 2855 1118 
Q 2855 1373 2960 1585 
Q 3066 1798 3269 1926 
Q 3473 2055 3764 2055 
Q 4059 2055 4259 1926 
Q 4459 1798 4561 1585 
Q 4664 1373 4664 1118 
L 4664 873 
Q 4664 618 4560 405 
Q 4457 193 4256 64 
Q 4055 -64 3764 -64 
Q 3468 -64 3266 64 
Q 3064 193 2959 405 
Q 2855 618 2855 873 
z
M 536 3536 
L 536 3782 
Q 536 4036 642 4248 
Q 748 4461 951 4589 
Q 1155 4718 1446 4718 
Q 1741 4718 1941 4589 
Q 2141 4461 2243 4248 
Q 2346 4036 2346 3782 
L 2346 3536 
Q 2346 3282 2242 3069 
Q 2139 2857 1937 2728 
Q 1736 2600 1446 2600 
Q 1150 2600 948 2728 
Q 746 2857 641 3069 
Q 536 3282 536 3536 
z
M 709 0 
L 3909 4655 
L 4427 4655 
L 1227 0 
L 709 0 
z
M 3318 1118 
L 3318 873 
Q 3318 661 3418 494 
Q 3518 327 3764 327 
Q 4002 327 4101 494 
Q 4200 661 4200 873 
L 4200 1118 
Q 4200 1330 4104 1497 
Q 4009 1664 3764 1664 
Q 3525 1664 3421 1497 
Q 3318 1330 3318 1118 
z
M 1000 3782 
L 1000 3536 
Q 1000 3325 1100 3158 
Q 1200 2991 1446 2991 
Q 1684 2991 1783 3158 
Q 1882 3325 1882 3536 
L 1882 3782 
Q 1882 3993 1786 4160 
Q 1691 4327 1446 4327 
Q 1207 4327 1103 4160 
Q 1000 3993 1000 3782 
z
" id="Inter-Regular-25" transform="scale(0.015625)"/>
       </defs>
       <use xlink:href="#Inter-Regular-30"/>
       <use x="62.500015" xlink:href="#Inter-Regular-2e"/>
       <use x="90.056839" xlink:href="#Inter-Regular-30"/>
       <use x="152.556854" xlink:href="#Inter-Regular-30"/>
       <use x="215.05687" xlink:href="#Inter-Regular-25"/>
      </g>
     </g>
    </g>
    <g id="ytick_2">
     <g id="line2d_19">
      <path clip-path="url(#p5cddb6b79b)" d="M 68.460938 411.165245 
L 738.060938 411.165245 
" style="fill:none;stroke:#e5e5e5;stroke-linecap:square;stroke-width:0.8;"/>
     </g>
     <g id="line2d_20">
      <g>
       <use style="stroke:#000000;stroke-width:0.8;" x="68.460938" xlink:href="#m81e015bc89" y="411.165245"/>
      </g>
     </g>
     <g id="text_10">
      <!-- 0.02% -->
      <g transform="translate(32.028125 414.801964)scale(0.1 -0.1)">
       <defs>
        <path d="M 482 0 
L 482 409 
L 2018 2091 
Q 2289 2386 2464 2605 
Q 2639 2825 2724 3019 
Q 2809 3214 2809 3427 
Q 2809 3795 2553 4011 
Q 2298 4227 1918 4227 
Q 1514 4227 1275 3985 
Q 1036 3743 1036 3345 
L 500 3345 
Q 500 3755 688 4064 
Q 877 4373 1203 4545 
Q 1530 4718 1936 4718 
Q 2346 4718 2661 4545 
Q 2977 4373 3156 4079 
Q 3336 3786 3336 3427 
Q 3336 3170 3244 2926 
Q 3152 2682 2926 2383 
Q 2700 2084 2300 1655 
L 1255 536 
L 1255 500 
L 3418 500 
L 3418 0 
L 482 0 
z
" id="Inter-Regular-32" transform="scale(0.015625)"/>
       </defs>
       <use xlink:href="#Inter-Regular-30"/>
       <use x="62.500015" xlink:href="#Inter-Regular-2e"/>
       <use x="90.056839" xlink:href="#Inter-Regular-30"/>
       <use x="152.556854" xlink:href="#Inter-Regular-32"/>
       <use x="213.068237" xlink:href="#Inter-Regular-25"/>
      </g>
     </g>
    </g>
    <g id="ytick_3">
     <g id="line2d_21">
      <path clip-path="url(#p5cddb6b79b)" d="M 68.460938 345.58549 
L 738.060938 345.58549 
" style="fill:none;stroke:#e5e5e5;stroke-linecap:square;stroke-width:0.8;"/>
     </g>
     <g id="line2d_22">
      <g>
       <use style="stroke:#000000;stroke-width:0.8;" x="68.460938" xlink:href="#m81e015bc89" y="345.58549"/>
      </g>
     </g>
     <g id="text_11">
      <!-- 0.04% -->
      <g transform="translate(31.659375 349.222208)scale(0.1 -0.1)">
       <defs>
        <path d="M 373 955 
L 373 1418 
L 2418 4655 
L 3100 4655 
L 3100 1455 
L 3736 1455 
L 3736 955 
L 3100 955 
L 3100 0 
L 2564 0 
L 2564 955 
L 373 955 
z
M 2564 1455 
L 2564 3936 
L 2527 3936 
L 982 1491 
L 982 1455 
L 2564 1455 
z
" id="Inter-Regular-34" transform="scale(0.015625)"/>
       </defs>
       <use xlink:href="#Inter-Regular-30"/>
       <use x="62.500015" xlink:href="#Inter-Regular-2e"/>
       <use x="90.056839" xlink:href="#Inter-Regular-30"/>
       <use x="152.556854" xlink:href="#Inter-Regular-34"/>
       <use x="216.761414" xlink:href="#Inter-Regular-25"/>
      </g>
     </g>
    </g>
    <g id="ytick_4">
     <g id="line2d_23">
      <path clip-path="url(#p5cddb6b79b)" d="M 68.460938 280.005735 
L 738.060938 280.005735 
" style="fill:none;stroke:#e5e5e5;stroke-linecap:square;stroke-width:0.8;"/>
     </g>
     <g id="line2d_24">
      <g>
       <use style="stroke:#000000;stroke-width:0.8;" x="68.460938" xlink:href="#m81e015bc89" y="280.005735"/>
      </g>
     </g>
     <g id="text_12">
      <!-- 0.06% -->
      <g transform="translate(31.84375 283.642453)scale(0.1 -0.1)">
       <defs>
        <path d="M 2027 -64 
Q 1741 -59 1454 45 
Q 1168 150 932 399 
Q 696 648 552 1074 
Q 409 1500 409 2145 
Q 409 3386 861 4056 
Q 1314 4727 2100 4727 
Q 2686 4727 3073 4384 
Q 3461 4041 3546 3491 
L 2991 3491 
Q 2914 3811 2691 4019 
Q 2468 4227 2100 4227 
Q 1559 4227 1249 3755 
Q 939 3284 936 2427 
L 973 2427 
Q 1164 2716 1461 2880 
Q 1759 3045 2118 3045 
Q 2518 3045 2850 2846 
Q 3182 2648 3382 2299 
Q 3582 1950 3582 1500 
Q 3582 1068 3389 710 
Q 3196 352 2847 142 
Q 2498 -68 2027 -64 
z
M 2027 436 
Q 2314 436 2542 579 
Q 2771 723 2903 964 
Q 3036 1205 3036 1500 
Q 3036 1789 2908 2026 
Q 2780 2264 2556 2404 
Q 2332 2545 2046 2545 
Q 1757 2545 1525 2397 
Q 1293 2250 1157 2010 
Q 1021 1770 1018 1491 
Q 1018 1214 1149 973 
Q 1280 732 1508 584 
Q 1736 436 2027 436 
z
" id="Inter-Regular-36" transform="scale(0.015625)"/>
       </defs>
       <use xlink:href="#Inter-Regular-30"/>
       <use x="62.500015" xlink:href="#Inter-Regular-2e"/>
       <use x="90.056839" xlink:href="#Inter-Regular-30"/>
       <use x="152.556854" xlink:href="#Inter-Regular-36"/>
       <use x="214.914825" xlink:href="#Inter-Regular-25"/>
      </g>
     </g>
    </g>
    <g id="ytick_5">
     <g id="line2d_25">
      <path clip-path="url(#p5cddb6b79b)" d="M 68.460938 214.425979 
L 738.060938 214.425979 
" style="fill:none;stroke:#e5e5e5;stroke-linecap:square;stroke-width:0.8;"/>
     </g>
     <g id="line2d_26">
      <g>
       <use style="stroke:#000000;stroke-width:0.8;" x="68.460938" xlink:href="#m81e015bc89" y="214.425979"/>
      </g>
     </g>
     <g id="text_13">
      <!-- 0.08% -->
      <g transform="translate(31.914063 218.062698)scale(0.1 -0.1)">
       <defs>
        <path d="M 1973 -64 
Q 1505 -64 1147 103 
Q 789 270 589 564 
Q 389 859 391 1236 
Q 389 1532 507 1783 
Q 625 2034 830 2203 
Q 1036 2373 1291 2418 
L 1291 2445 
Q 957 2532 759 2821 
Q 561 3111 564 3482 
Q 561 3836 743 4115 
Q 925 4395 1244 4556 
Q 1564 4718 1973 4718 
Q 2377 4718 2695 4556 
Q 3014 4395 3197 4115 
Q 3380 3836 3382 3482 
Q 3380 3111 3181 2821 
Q 2982 2532 2655 2445 
L 2655 2418 
Q 2907 2373 3109 2203 
Q 3311 2034 3431 1783 
Q 3552 1532 3555 1236 
Q 3552 859 3351 564 
Q 3150 270 2794 103 
Q 2439 -64 1973 -64 
z
M 1973 436 
Q 2446 436 2722 662 
Q 2998 889 3000 1264 
Q 2998 1527 2864 1729 
Q 2730 1932 2499 2048 
Q 2268 2164 1973 2164 
Q 1675 2164 1442 2048 
Q 1209 1932 1076 1729 
Q 943 1527 946 1264 
Q 943 889 1218 662 
Q 1493 436 1973 436 
z
M 1973 2645 
Q 2348 2645 2591 2864 
Q 2834 3084 2836 3445 
Q 2834 3800 2596 4013 
Q 2359 4227 1973 4227 
Q 1582 4227 1344 4013 
Q 1107 3800 1109 3445 
Q 1107 3084 1349 2864 
Q 1591 2645 1973 2645 
z
" id="Inter-Regular-38" transform="scale(0.015625)"/>
       </defs>
       <use xlink:href="#Inter-Regular-30"/>
       <use x="62.500015" xlink:href="#Inter-Regular-2e"/>
       <use x="90.056839" xlink:href="#Inter-Regular-30"/>
       <use x="152.556854" xlink:href="#Inter-Regular-38"/>
       <use x="214.20459" xlink:href="#Inter-Regular-25"/>
      </g>
     </g>
    </g>
    <g id="ytick_6">
     <g id="line2d_27">
      <path clip-path="url(#p5cddb6b79b)" d="M 68.460938 148.846224 
L 738.060938 148.846224 
" style="fill:none;stroke:#e5e5e5;stroke-linecap:square;stroke-width:0.8;"/>
     </g>
     <g id="line2d_28">
      <g>
       <use style="stroke:#000000;stroke-width:0.8;" x="68.460938" xlink:href="#m81e015bc89" y="148.846224"/>
      </g>
     </g>
     <g id="text_14">
      <!-- 0.10% -->
      <g transform="translate(33.6625 152.482943)scale(0.1 -0.1)">
       <use xlink:href="#Inter-Regular-30"/>
       <use x="62.500015" xlink:href="#Inter-Regular-2e"/>
       <use x="90.056839" xlink:href="#Inter-Regular-31"/>
       <use x="134.232986" xlink:href="#Inter-Regular-30"/>
       <use x="196.733002" xlink:href="#Inter-Regular-25"/>
      </g>
     </g>
    </g>
    <g id="ytick_7">
     <g id="line2d_29">
      <path clip-path="url(#p5cddb6b79b)" d="M 68.460938 83.266469 
L 738.060938 83.266469 
" style="fill:none;stroke:#e5e5e5;stroke-linecap:square;stroke-width:0.8;"/>
     </g>
     <g id="line2d_30">
      <g>
       <use style="stroke:#000000;stroke-width:0.8;" x="68.460938" xlink:href="#m81e015bc89" y="83.266469"/>
      </g>
     </g>
     <g id="text_15">
      <!-- 0.12% -->
      <g transform="translate(33.860938 86.903188)scale(0.1 -0.1)">
       <use xlink:href="#Inter-Regular-30"/>
       <use x="62.500015" xlink:href="#Inter-Regular-2e"/>
       <use x="90.056839" xlink:href="#Inter-Regular-31"/>
       <use x="134.232986" xlink:href="#Inter-Regular-32"/>
       <use x="194.74437" xlink:href="#Inter-Regular-25"/>
      </g>
     </g>
    </g>
    <g id="text_16">
     <!-- Percent of nation tested positive -->
     <g transform="translate(25.614063 332.215469)rotate(-90)scale(0.1 -0.1)">
      <defs>
       <path d="M 564 0 
L 564 4655 
L 2136 4655 
Q 2684 4655 3033 4458 
Q 3382 4261 3550 3927 
Q 3718 3593 3718 3182 
Q 3718 2770 3551 2434 
Q 3384 2098 3036 1899 
Q 2689 1700 2146 1700 
L 1127 1700 
L 1127 0 
L 564 0 
z
M 1127 2200 
L 2127 2200 
Q 2689 2200 2926 2482 
Q 3164 2764 3164 3182 
Q 3164 3602 2925 3878 
Q 2686 4155 2118 4155 
L 1127 4155 
L 1127 2200 
z
" id="Inter-Regular-50" transform="scale(0.015625)"/>
       <path d="M 1909 -73 
Q 1418 -73 1063 159 
Q 709 391 518 798 
Q 327 1205 327 1727 
Q 327 2259 524 2667 
Q 721 3075 1074 3305 
Q 1427 3536 1900 3536 
Q 2268 3536 2563 3400 
Q 2859 3264 3047 3018 
Q 3236 2773 3282 2445 
L 2746 2445 
Q 2684 2684 2474 2869 
Q 2264 3055 1909 3055 
Q 1439 3055 1151 2697 
Q 864 2339 864 1745 
Q 864 1139 1148 774 
Q 1432 409 1909 409 
Q 2223 409 2447 570 
Q 2671 732 2746 1018 
L 3282 1018 
Q 3236 709 3058 462 
Q 2880 216 2588 71 
Q 2296 -73 1909 -73 
z
" id="Inter-Regular-63" transform="scale(0.015625)"/>
       <path d="M 2009 3491 
L 2009 3036 
L 1264 3036 
L 1264 1000 
Q 1264 773 1331 660 
Q 1398 548 1503 510 
Q 1609 473 1727 473 
Q 1816 473 1873 483 
Q 1930 493 1964 500 
L 2073 18 
Q 2018 -2 1920 -23 
Q 1823 -45 1673 -45 
Q 1446 -45 1228 52 
Q 1011 150 869 350 
Q 727 550 727 855 
L 727 3036 
L 200 3036 
L 200 3491 
L 727 3491 
L 727 4327 
L 1264 4327 
L 1264 3491 
L 2009 3491 
z
" id="Inter-Regular-74" transform="scale(0.015625)"/>
       <path d="M 2046 3491 
L 2046 3036 
L 1264 3036 
L 1264 0 
L 727 0 
L 727 3036 
L 164 3036 
L 164 3491 
L 727 3491 
L 727 3973 
Q 727 4273 868 4473 
Q 1009 4673 1234 4773 
Q 1459 4873 1709 4873 
Q 1907 4873 2032 4841 
Q 2157 4809 2218 4782 
L 2064 4318 
Q 2023 4332 1951 4352 
Q 1880 4373 1764 4373 
Q 1498 4373 1381 4239 
Q 1264 4105 1264 3845 
L 1264 3491 
L 2046 3491 
z
" id="Inter-Regular-66" transform="scale(0.015625)"/>
       <path d="M 491 0 
L 491 3491 
L 1027 3491 
L 1027 0 
L 491 0 
z
M 764 4073 
Q 607 4073 494 4179 
Q 382 4286 382 4436 
Q 382 4586 494 4693 
Q 607 4800 764 4800 
Q 921 4800 1033 4693 
Q 1146 4586 1146 4436 
Q 1146 4286 1033 4179 
Q 921 4073 764 4073 
z
" id="Inter-Regular-69" transform="scale(0.015625)"/>
       <path d="M 2964 2709 
L 2482 2573 
Q 2411 2755 2245 2914 
Q 2080 3073 1727 3073 
Q 1407 3073 1194 2926 
Q 982 2780 982 2555 
Q 982 2355 1127 2239 
Q 1273 2123 1582 2045 
L 2100 1918 
Q 3027 1691 3027 973 
Q 3027 673 2855 436 
Q 2684 200 2377 63 
Q 2071 -73 1664 -73 
Q 1130 -73 780 159 
Q 430 391 336 836 
L 846 964 
Q 989 400 1655 400 
Q 2030 400 2251 560 
Q 2473 720 2473 945 
Q 2473 1316 1955 1436 
L 1373 1573 
Q 893 1686 669 1926 
Q 446 2166 446 2527 
Q 446 2823 613 3050 
Q 780 3277 1069 3406 
Q 1359 3536 1727 3536 
Q 2246 3536 2542 3309 
Q 2839 3082 2964 2709 
z
" id="Inter-Regular-73" transform="scale(0.015625)"/>
       <path d="M 1809 -73 
Q 1373 -73 1039 148 
Q 705 370 516 776 
Q 327 1182 327 1736 
Q 327 2286 516 2690 
Q 705 3095 1041 3315 
Q 1377 3536 1818 3536 
Q 2159 3536 2358 3423 
Q 2557 3311 2662 3169 
Q 2768 3027 2827 2936 
L 2873 2936 
L 2873 4655 
L 3409 4655 
L 3409 0 
L 2891 0 
L 2891 536 
L 2827 536 
Q 2768 441 2659 296 
Q 2550 152 2348 39 
Q 2146 -73 1809 -73 
z
M 1882 409 
Q 2366 409 2624 780 
Q 2882 1152 2882 1745 
Q 2882 2332 2627 2693 
Q 2373 3055 1882 3055 
Q 1541 3055 1315 2881 
Q 1089 2707 976 2410 
Q 864 2114 864 1745 
Q 864 1373 978 1069 
Q 1093 766 1319 587 
Q 1546 409 1882 409 
z
" id="Inter-Regular-64" transform="scale(0.015625)"/>
      </defs>
      <use xlink:href="#Inter-Regular-50"/>
      <use x="63.494324" xlink:href="#Inter-Regular-65"/>
      <use x="121.732971" xlink:href="#Inter-Regular-72"/>
      <use x="160.085251" xlink:href="#Inter-Regular-63"/>
      <use x="215.909119" xlink:href="#Inter-Regular-65"/>
      <use x="274.147766" xlink:href="#Inter-Regular-6e"/>
      <use x="332.670502" xlink:href="#Inter-Regular-74"/>
      <use x="369.034149" xlink:href="#Inter-Regular-20"/>
      <use x="397.159149" xlink:href="#Inter-Regular-6f"/>
      <use x="456.818253" xlink:href="#Inter-Regular-66"/>
      <use x="492.897797" xlink:href="#Inter-Regular-20"/>
      <use x="521.022797" xlink:href="#Inter-Regular-6e"/>
      <use x="579.545532" xlink:href="#Inter-Regular-61"/>
      <use x="635.937592" xlink:href="#Inter-Regular-74"/>
      <use x="672.301239" xlink:href="#Inter-Regular-69"/>
      <use x="696.022827" xlink:href="#Inter-Regular-6f"/>
      <use x="755.681931" xlink:href="#Inter-Regular-6e"/>
      <use x="814.204666" xlink:href="#Inter-Regular-20"/>
      <use x="842.329666" xlink:href="#Inter-Regular-74"/>
      <use x="878.693314" xlink:href="#Inter-Regular-65"/>
      <use x="936.931961" xlink:href="#Inter-Regular-73"/>
      <use x="989.204697" xlink:href="#Inter-Regular-74"/>
      <use x="1025.568344" xlink:href="#Inter-Regular-65"/>
      <use x="1083.806992" xlink:href="#Inter-Regular-64"/>
      <use x="1145.880875" xlink:href="#Inter-Regular-20"/>
      <use x="1174.005875" xlink:href="#Inter-Regular-70"/>
      <use x="1234.94339" xlink:href="#Inter-Regular-6f"/>
      <use x="1294.602493" xlink:href="#Inter-Regular-73"/>
      <use x="1346.875229" xlink:href="#Inter-Regular-69"/>
      <use x="1370.596817" xlink:href="#Inter-Regular-74"/>
      <use x="1406.960464" xlink:href="#Inter-Regular-69"/>
      <use x="1430.682053" xlink:href="#Inter-Regular-76"/>
      <use x="1486.363876" xlink:href="#Inter-Regular-65"/>
     </g>
    </g>
   </g>
   <g id="line2d_31">
    <path clip-path="url(#p5cddb6b79b)" d="M 24.731222 476.733349 
L 36.01631 476.745 
L 41.658854 476.739175 
L 62.818394 476.721698 
L 69.871573 476.523632 
L 72.692845 476.459551 
L 74.103481 476.477028 
L 75.514117 476.31974 
L 78.335389 476.453726 
L 79.746025 476.016815 
L 81.156661 475.422615 
L 82.567297 474.688604 
L 83.977933 474.33325 
L 85.388569 474.46141 
L 86.799205 474.909973 
L 88.209841 474.438108 
L 91.031113 472.777846 
L 92.441749 471.455461 
L 93.852385 471.344777 
L 95.263021 470.401048 
L 96.673657 470.756403 
L 98.084293 469.719467 
L 99.494929 465.018301 
L 100.905565 464.948395 
L 102.316201 463.61436 
L 103.726837 461.552138 
L 105.137473 461.295817 
L 106.548109 462.944429 
L 107.958745 462.548296 
L 109.369381 456.262599 
L 110.780017 454.683893 
L 112.190653 452.744007 
L 113.601289 453.081885 
L 115.011925 452.988677 
L 116.422561 457.054865 
L 117.833197 458.831638 
L 119.243833 451.275985 
L 120.654469 450.151667 
L 122.065105 451.782802 
L 123.475741 453.087711 
L 126.297013 458.936496 
L 127.707649 459.612252 
L 129.118285 456.75194 
L 130.528921 456.128613 
L 131.939557 452.167284 
L 133.350193 451.415797 
L 134.760829 453.029456 
L 136.171465 452.825564 
L 137.582101 456.530571 
L 138.992737 455.295569 
L 140.403373 453.582877 
L 141.814009 448.794329 
L 143.224645 450.204096 
L 144.635281 451.421622 
L 146.045917 457.095643 
L 147.456553 458.493759 
L 148.867189 453.279952 
L 150.277825 452.819738 
L 151.688461 449.196287 
L 153.099097 451.660467 
L 154.509733 452.930422 
L 155.920369 460.765698 
L 157.331005 461.423978 
L 158.741641 460.206452 
L 160.152277 458.464632 
L 161.562913 457.753923 
L 162.973549 458.074325 
L 164.384185 461.476407 
L 165.794821 466.299908 
L 167.205457 465.088207 
L 168.616093 458.91902 
L 170.026729 459.746238 
L 171.437365 459.944305 
L 172.848001 463.876506 
L 174.258637 464.33672 
L 175.669273 466.457196 
L 177.079909 467.499957 
L 178.490545 463.899808 
L 179.901181 461.697776 
L 181.311817 463.107543 
L 182.722453 463.544454 
L 185.543725 469.16022 
L 186.954361 469.75442 
L 188.364997 468.73496 
L 189.775633 468.303874 
L 191.186269 467.365971 
L 192.596905 467.604816 
L 194.007541 468.758262 
L 195.418177 470.931167 
L 196.828813 471.001073 
L 198.239449 469.090314 
L 199.650085 468.892248 
L 203.881993 470.779705 
L 205.292629 472.52735 
L 206.703265 472.871053 
L 208.113901 470.977771 
L 209.524537 470.60494 
L 210.935173 470.447652 
L 212.345809 471.432159 
L 213.756445 471.257394 
L 215.167081 472.137042 
L 216.577717 472.416666 
L 217.988353 471.286522 
L 219.398989 470.971946 
L 220.809625 471.44381 
L 222.220261 471.251569 
L 223.630897 471.98558 
L 225.041533 473.086596 
L 226.452169 473.540984 
L 227.862805 471.997231 
L 229.273441 472.480746 
L 230.684077 472.509873 
L 232.094713 473.051643 
L 233.505349 473.005039 
L 234.915985 473.808956 
L 236.326621 474.356552 
L 237.737257 472.859402 
L 239.147893 473.406998 
L 240.558529 473.150677 
L 241.969165 473.459427 
L 243.379801 473.599239 
L 244.790437 474.496363 
L 246.201073 473.599239 
L 247.611709 472.917657 
L 249.022345 473.488555 
L 250.432981 472.830275 
L 251.843617 472.766195 
L 253.254253 473.715748 
L 254.664889 474.304122 
L 256.075525 474.682779 
L 257.486161 472.731242 
L 258.896797 472.958436 
L 260.307433 472.52735 
L 264.539341 474.024499 
L 265.949977 474.33325 
L 267.360613 472.358411 
L 268.771249 472.725416 
L 270.181885 472.393364 
L 273.003157 472.556477 
L 274.413793 473.873037 
L 275.824429 473.744876 
L 277.235065 472.043835 
L 278.645701 472.206948 
L 280.056337 471.088455 
L 281.466973 471.746735 
L 282.877609 473.092422 
L 284.288245 473.867211 
L 285.698881 473.762352 
L 287.109517 471.280696 
L 288.520153 471.385555 
L 291.341425 471.036026 
L 292.752061 471.700131 
L 294.162697 473.045818 
L 295.573333 473.511857 
L 296.983969 468.880597 
L 298.394605 469.690339 
L 299.805241 470.371921 
L 301.215877 470.803007 
L 302.626513 470.698148 
L 304.037149 472.999214 
L 305.447785 473.657494 
L 306.858421 470.121425 
L 308.269057 471.356428 
L 311.090329 469.649561 
L 312.500965 470.890389 
L 313.911601 472.573954 
L 315.322237 472.690463 
L 316.732873 470.150552 
L 318.143509 470.569987 
L 319.554145 470.109774 
L 320.964781 469.026234 
L 322.375417 468.688356 
L 323.786053 470.680671 
L 325.196689 471.053502 
L 326.607325 469.399065 
L 329.428597 461.51136 
L 330.839233 461.220086 
L 332.249869 461.651172 
L 333.660505 463.993016 
L 335.071141 464.767805 
L 336.481777 456.57135 
L 337.892413 459.274374 
L 339.303049 460.124895 
L 340.713685 458.691826 
L 342.124321 460.101593 
L 343.534957 463.893983 
L 344.945593 466.795074 
L 346.356229 459.880225 
L 347.766865 459.041355 
L 349.177501 454.940214 
L 350.588137 453.821722 
L 351.998773 451.846883 
L 353.409409 452.406129 
L 354.820045 449.813789 
L 356.230681 449.371052 
L 357.641317 445.520407 
L 359.051953 442.432901 
L 360.462589 440.096882 
L 361.873225 441.58238 
L 363.283861 443.836842 
L 364.694497 441.658111 
L 366.105133 426.756524 
L 367.515769 425.946782 
L 368.926405 415.44926 
L 370.337041 410.899557 
L 371.747677 409.315026 
L 373.158313 420.226157 
L 374.568949 419.463018 
L 375.979585 394.995987 
L 377.390221 393.475536 
L 378.800857 388.2326 
L 380.211493 387.824816 
L 381.622129 400.93798 
L 383.032765 417.598864 
L 384.443401 420.517431 
L 385.854037 382.401291 
L 387.264673 386.846135 
L 388.675309 380.933269 
L 390.085945 387.947151 
L 391.496581 391.995863 
L 392.907217 404.806101 
L 394.317853 407.678065 
L 395.728489 348.001809 
L 397.139125 352.452479 
L 398.549761 351.601958 
L 399.960397 362.472311 
L 401.371033 371.257141 
L 402.781669 397.996111 
L 404.192305 400.046681 
L 405.602941 344.20942 
L 407.013577 357.392489 
L 409.834849 360.369311 
L 411.245485 362.315023 
L 412.656121 393.155134 
L 414.066757 398.858282 
L 415.477393 314.068367 
L 416.888029 346.795934 
L 418.298665 356.198265 
L 419.709301 355.120551 
L 421.119937 355.440952 
L 422.530573 379.931286 
L 423.941209 372.130963 
L 425.351845 313.072209 
L 426.762481 334.21289 
L 428.173117 333.187604 
L 429.583753 348.893109 
L 430.994389 350.617452 
L 432.405025 383.321717 
L 433.815661 393.941574 
L 435.226297 338.512096 
L 436.636933 358.336218 
L 438.047569 370.65129 
L 439.458205 386.438351 
L 440.868841 391.221073 
L 442.279477 414.895839 
L 443.690113 418.286271 
L 445.100749 382.32556 
L 446.511385 395.025114 
L 447.922021 395.607663 
L 449.332657 405.225536 
L 450.743293 405.289617 
L 452.153929 423.115597 
L 453.564565 424.857416 
L 454.975201 389.193805 
L 456.385837 398.013587 
L 457.796473 398.316513 
L 459.207109 403.751689 
L 460.617745 401.695293 
L 462.028381 417.651293 
L 463.439017 413.416166 
L 464.849653 375.41071 
L 466.260289 379.634186 
L 467.670925 375.020403 
L 469.081561 368.723055 
L 470.492197 361.010115 
L 471.902833 383.374147 
L 473.313469 371.134805 
L 474.724105 304.770895 
L 476.134741 307.229249 
L 477.545377 301.263954 
L 478.956013 304.339809 
L 480.366649 291.308202 
L 481.777285 350.11646 
L 483.187921 308.155501 
L 484.598557 228.637648 
L 486.009193 238.488541 
L 487.419829 257.584476 
L 488.830465 309.547791 
L 490.241101 402.912819 
L 491.651737 262.938096 
L 493.062373 229.51147 
L 494.473009 243.504282 
L 495.883645 54.345 
L 497.294281 110.345375 
L 498.704917 204.811419 
L 500.115553 312.332373 
L 501.526189 161.207674 
L 502.936825 188.301998 
L 504.347461 74.122517 
L 505.758097 138.651401 
L 507.168733 177.821953 
L 509.990005 230.163925 
L 511.400641 270.284031 
L 512.811277 285.319605 
L 514.221913 173.819846 
L 515.632549 216.485689 
L 517.043185 237.020519 
L 518.453821 252.370669 
L 519.864457 262.437104 
L 521.275093 315.647073 
L 522.685729 324.09985 
L 524.096365 239.554604 
L 525.507001 267.196525 
L 526.917637 291.768415 
L 528.328273 309.221564 
L 529.738909 320.004535 
L 531.149545 360.946034 
L 532.560181 386.712149 
L 533.970817 318.851089 
L 535.381453 334.422607 
L 536.792089 341.378234 
L 538.202725 349.487308 
L 539.613361 362.09948 
L 541.023997 389.356919 
L 542.434633 396.889269 
L 543.845269 359.600348 
L 545.255905 373.896085 
L 546.666541 375.311677 
L 548.077177 382.657612 
L 549.487813 395.357167 
L 550.898449 415.093906 
L 552.309085 417.709548 
L 553.719721 396.131956 
L 555.130357 405.435254 
L 556.540993 407.765447 
L 559.362265 415.210415 
L 560.772901 431.64993 
L 562.183537 432.861631 
L 563.594173 404.12452 
L 565.004809 413.748219 
L 566.415445 418.356177 
L 567.826081 419.055235 
L 569.236717 425.014704 
L 570.647353 436.619068 
L 572.057989 437.143362 
L 573.468625 419.334858 
L 574.879261 429.313911 
L 576.289897 434.283049 
L 577.700533 438.238553 
L 579.111169 443.731984 
L 580.521805 452.84304 
L 581.932441 453.716863 
L 583.343077 442.427075 
L 584.753713 443.644601 
L 586.164349 447.06416 
L 587.574985 448.840933 
L 588.985621 450.233224 
L 590.396257 455.173234 
L 591.806893 456.192693 
L 593.217529 444.332009 
L 594.628165 446.39423 
L 596.038801 447.576803 
L 597.449437 449.446783 
L 598.860073 449.866218 
L 600.270709 456.652907 
L 601.681345 455.872292 
L 603.091981 445.071845 
L 604.502617 449.138033 
L 605.913253 448.479753 
L 607.323889 450.402163 
L 608.734525 452.639148 
L 610.145161 457.130596 
L 611.555797 450.43129 
L 612.966433 446.790363 
L 614.377069 451.479877 
L 615.787705 447.00008 
L 617.198341 450.862376 
L 618.608977 455.656749 
L 620.019613 459.600601 
L 621.430249 452.901295 
L 622.840885 458.097627 
L 624.251521 459.542347 
L 625.662157 458.447156 
L 627.072793 460.049164 
L 628.483429 464.360022 
L 631.304701 465.530944 
L 632.715337 463.998842 
L 634.125973 461.831762 
L 635.536609 461.709426 
L 636.947245 462.309451 
L 638.357881 463.270656 
L 639.768517 465.740661 
L 641.179153 465.699883 
L 642.589789 463.754171 
L 644.000425 465.629977 
L 645.411061 465.466863 
L 646.821697 466.27078 
L 648.232333 466.247478 
L 649.642969 469.142744 
L 651.053605 464.33672 
L 652.464241 464.354196 
L 653.874877 465.461038 
L 655.285513 464.371673 
L 656.696149 465.798916 
L 658.106785 467.564038 
L 659.517421 469.731118 
L 660.928057 466.416417 
L 662.338693 464.604692 
L 663.749329 466.882456 
L 665.159965 464.983348 
L 666.570601 466.486323 
L 667.981237 468.55437 
L 669.391873 470.191331 
L 670.802509 469.684514 
L 672.213145 466.876631 
L 673.623781 464.866839 
L 675.034417 464.890141 
L 677.855689 467.762104 
L 679.266325 469.736943 
L 680.676961 465.996983 
L 682.087597 464.109526 
L 683.498233 466.591182 
L 684.908869 466.463021 
L 686.319505 467.115475 
L 689.140777 469.422367 
L 690.551413 467.890265 
L 691.962049 463.713393 
L 693.372685 464.278465 
L 694.783321 464.121177 
L 696.193957 465.624152 
L 697.604593 466.294082 
L 699.015229 467.814533 
L 700.425865 466.037761 
L 701.836501 461.552138 
L 703.247137 461.138529 
L 704.657773 458.878241 
L 707.479045 460.299659 
L 708.889681 462.827919 
L 710.300317 462.000701 
L 711.710953 458.930671 
L 713.121589 451.584736 
L 714.532225 448.176828 
L 715.942861 447.868077 
L 717.353497 449.149684 
L 718.764133 454.305237 
L 720.174769 449.941949 
L 721.585405 438.483223 
L 722.996041 439.374522 
L 724.406677 437.749212 
L 727.227949 439.898815 
L 728.638585 446.254418 
L 728.638585 446.254418 
" style="fill:none;stroke:#5694ca;stroke-linecap:square;stroke-width:2;"/>
   </g>
   <g id="line2d_32">
    <path clip-path="url(#p5cddb6b79b)" d="M 74.103481 476.398689 
L 75.514117 476.398689 
L 76.924753 475.879223 
L 78.335389 476.225534 
L 79.746025 476.225534 
L 81.156661 475.879223 
L 82.567297 474.84029 
L 83.977933 476.052378 
L 85.388569 474.84029 
L 86.799205 475.013445 
L 88.209841 476.398689 
L 89.620477 475.359756 
L 91.031113 475.359756 
L 92.441749 474.493979 
L 93.852385 474.320824 
L 96.673657 473.281891 
L 98.084293 473.628202 
L 99.494929 469.645626 
L 100.905565 469.645626 
L 102.316201 467.048294 
L 103.726837 463.585185 
L 105.137473 465.143584 
L 106.548109 463.585185 
L 107.958745 466.009362 
L 109.369381 462.199942 
L 110.780017 457.524744 
L 112.190653 459.256299 
L 113.601289 458.563677 
L 115.011925 459.083143 
L 116.422561 461.853631 
L 117.833197 466.355673 
L 119.243833 458.563677 
L 120.654469 454.407946 
L 122.065105 459.083143 
L 123.475741 459.60261 
L 124.886377 460.468387 
L 126.297013 465.143584 
L 127.707649 464.104652 
L 129.118285 458.390522 
L 130.528921 460.295232 
L 131.939557 453.715324 
L 133.350193 452.849547 
L 134.760829 450.07906 
L 136.171465 462.026786 
L 137.582101 469.645626 
L 138.992737 457.351589 
L 140.403373 454.061635 
L 141.814009 460.122076 
L 143.224645 464.277807 
L 144.635281 462.546252 
L 146.045917 467.740916 
L 147.456553 469.12616 
L 148.867189 464.450963 
L 150.277825 463.931496 
L 151.688461 460.987853 
L 153.099097 456.832122 
L 154.509733 459.948921 
L 155.920369 461.334164 
L 157.331005 467.567761 
L 158.741641 463.931496 
L 160.152277 464.104652 
L 161.562913 462.892563 
L 162.973549 459.948921 
L 164.384185 464.277807 
L 165.794821 467.394605 
L 167.205457 466.182517 
L 168.616093 463.931496 
L 170.026729 460.987853 
L 171.437365 463.758341 
L 172.848001 464.104652 
L 174.258637 465.31674 
L 175.669273 469.818782 
L 177.079909 470.511404 
L 178.490545 466.009362 
L 179.901181 464.277807 
L 181.311817 463.931496 
L 182.722453 467.048294 
L 184.133089 471.03087 
L 185.543725 467.394605 
L 186.954361 471.550336 
L 188.364997 469.991937 
L 189.775633 472.069803 
L 191.186269 471.03087 
L 192.596905 471.896647 
L 194.007541 473.281891 
L 195.418177 474.493979 
L 196.828813 472.242958 
L 198.239449 472.589269 
L 199.650085 473.281891 
L 201.060721 474.84029 
L 202.471357 474.84029 
L 203.881993 472.762424 
L 205.292629 475.359756 
L 206.703265 475.879223 
L 208.113901 474.320824 
L 209.524537 474.84029 
L 210.935173 473.974513 
L 212.345809 475.013445 
L 215.167081 475.013445 
L 216.577717 475.359756 
L 217.988353 473.455046 
L 219.398989 474.84029 
L 220.809625 475.879223 
L 222.220261 475.532912 
L 223.630897 474.667135 
L 225.041533 475.879223 
L 226.452169 476.225534 
L 227.862805 476.052378 
L 229.273441 475.359756 
L 230.684077 476.052378 
L 232.094713 475.879223 
L 233.505349 476.225534 
L 236.326621 475.879223 
L 237.737257 476.052378 
L 239.147893 476.398689 
L 240.558529 476.052378 
L 241.969165 476.225534 
L 243.379801 475.359756 
L 244.790437 476.571845 
L 246.201073 476.398689 
L 247.611709 475.359756 
L 249.022345 475.879223 
L 250.432981 475.706067 
L 253.254253 476.052378 
L 254.664889 475.706067 
L 256.075525 476.052378 
L 257.486161 476.225534 
L 258.896797 475.532912 
L 260.307433 474.147668 
L 261.718069 473.455046 
L 263.128705 475.359756 
L 264.539341 475.532912 
L 265.949977 476.225534 
L 267.360613 476.225534 
L 268.771249 474.667135 
L 270.181885 475.359756 
L 271.592521 474.667135 
L 273.003157 474.320824 
L 274.413793 476.052378 
L 275.824429 476.571845 
L 277.235065 474.667135 
L 278.645701 474.493979 
L 280.056337 474.84029 
L 281.466973 475.013445 
L 282.877609 474.493979 
L 284.288245 475.013445 
L 285.698881 475.186601 
L 287.109517 473.628202 
L 288.520153 473.801357 
L 289.930789 471.723492 
L 291.341425 473.801357 
L 292.752061 473.974513 
L 294.162697 472.069803 
L 295.573333 472.416114 
L 296.983969 469.12616 
L 298.394605 470.165093 
L 299.805241 469.991937 
L 301.215877 467.914072 
L 302.626513 466.875139 
L 304.037149 472.93558 
L 305.447785 473.281891 
L 306.858421 467.567761 
L 308.269057 469.299315 
L 309.679693 469.645626 
L 311.090329 464.450963 
L 312.500965 462.892563 
L 313.911601 469.472471 
L 315.322237 467.740916 
L 316.732873 468.953004 
L 318.143509 465.489895 
L 319.554145 464.450963 
L 322.375417 462.026786 
L 323.786053 469.299315 
L 325.196689 470.684559 
L 326.607325 467.394605 
L 328.017961 465.489895 
L 329.428597 461.161009 
L 330.839233 458.390522 
L 332.249869 454.407946 
L 333.660505 461.161009 
L 335.071141 459.256299 
L 336.481777 464.277807 
L 337.892413 467.048294 
L 339.303049 459.775765 
L 340.713685 463.065719 
L 342.124321 464.104652 
L 343.534957 458.563677 
L 344.945593 460.987853 
L 346.356229 456.139501 
L 347.766865 458.217366 
L 349.177501 454.061635 
L 350.588137 447.654883 
L 351.998773 447.654883 
L 353.409409 448.866971 
L 354.820045 455.273723 
L 356.230681 453.369013 
L 357.641317 447.308572 
L 359.051953 438.823955 
L 360.462589 427.915161 
L 361.873225 434.495068 
L 363.283861 430.512493 
L 364.694497 429.819871 
L 366.105133 425.66414 
L 367.515769 409.387527 
L 368.926405 365.579196 
L 370.337041 393.457225 
L 371.747677 356.055646 
L 373.158313 369.215461 
L 374.568949 370.600705 
L 377.390221 337.874323 
L 378.800857 298.221723 
L 380.211493 307.225807 
L 381.622129 331.467571 
L 383.032765 338.393789 
L 384.443401 332.679659 
L 385.854037 285.061909 
L 387.264673 289.21764 
L 388.675309 292.507593 
L 390.085945 284.715598 
L 391.496581 308.784206 
L 392.907217 330.948105 
L 394.317853 339.605878 
L 395.728489 296.663324 
L 397.139125 292.507593 
L 398.549761 283.84982 
L 399.960397 290.083417 
L 401.371033 323.848731 
L 402.781669 348.609961 
L 404.192305 358.999289 
L 405.602941 322.463487 
L 408.424213 346.01263 
L 409.834849 356.748268 
L 411.245485 357.614045 
L 412.656121 387.743095 
L 414.066757 396.574023 
L 415.477393 356.228802 
L 416.888029 363.501331 
L 418.298665 374.410125 
L 419.709301 379.604788 
L 421.119937 392.418292 
L 422.530573 397.612956 
L 423.941209 403.673397 
L 425.351845 364.713419 
L 426.762481 356.055646 
L 428.173117 371.466482 
L 429.583753 381.336343 
L 430.994389 394.669313 
L 432.405025 404.019708 
L 433.815661 412.158014 
L 435.226297 376.314835 
L 436.636933 377.700078 
L 438.047569 400.729754 
L 439.458205 416.313745 
L 440.868841 412.33117 
L 442.279477 426.010451 
L 443.690113 429.300405 
L 445.100749 411.638548 
L 446.511385 417.872144 
L 447.922021 404.71233 
L 449.332657 418.391611 
L 450.743293 419.257388 
L 452.153929 417.352678 
L 453.564565 432.417203 
L 454.975201 389.301494 
L 456.385837 407.655972 
L 457.796473 405.578107 
L 459.207109 390.859893 
L 460.617745 401.941842 
L 462.028381 408.175439 
L 463.439017 413.023792 
L 464.849653 395.53509 
L 466.260289 395.53509 
L 467.670925 398.132422 
L 469.081561 389.994116 
L 470.492197 386.704162 
L 471.902833 414.23588 
L 473.313469 407.655972 
L 474.724105 378.565856 
L 476.134741 384.10683 
L 477.545377 370.081238 
L 478.956013 372.332259 
L 480.366649 383.933675 
L 481.777285 393.110914 
L 483.187921 392.418292 
L 484.598557 352.073071 
L 486.009193 351.899915 
L 487.419829 337.354857 
L 488.830465 368.522839 
L 490.241101 417.698989 
L 493.062373 288.178707 
L 494.473009 236.924691 
L 495.883645 77.967981 
L 497.294281 91.300952 
L 500.115553 260.820145 
L 501.526189 143.074433 
L 502.936825 194.501604 
L 504.347461 129.741463 
L 505.758097 196.57947 
L 507.168733 212.856083 
L 508.579369 262.89801 
L 509.990005 262.89801 
L 511.400641 303.762698 
L 512.811277 324.368197 
L 514.221913 258.222813 
L 515.632549 283.676665 
L 517.043185 293.546526 
L 518.453821 318.654067 
L 519.864457 330.082328 
L 521.275093 357.267734 
L 522.685729 370.947015 
L 524.096365 319.346689 
L 525.507001 328.004462 
L 526.917637 342.20321 
L 528.328273 346.532096 
L 531.149545 395.53509 
L 532.560181 399.517666 
L 533.970817 368.349684 
L 535.381453 368.176528 
L 536.792089 370.427549 
L 538.202725 387.396784 
L 539.613361 386.01154 
L 541.023997 407.829128 
L 542.434633 409.387527 
L 543.845269 386.877318 
L 545.255905 399.690821 
L 546.666541 394.842469 
L 548.077177 408.002283 
L 549.487813 402.288153 
L 550.898449 422.893653 
L 552.309085 428.088316 
L 553.719721 412.504325 
L 555.130357 419.603699 
L 556.540993 416.660056 
L 557.951629 426.356762 
L 559.362265 428.261472 
L 560.772901 443.325997 
L 562.183537 433.629291 
L 563.594173 411.119082 
L 565.004809 422.547342 
L 566.415445 418.564766 
L 567.826081 428.607783 
L 569.236717 425.144674 
L 570.647353 436.053467 
L 572.057989 444.364929 
L 573.468625 431.551426 
L 574.879261 432.417203 
L 576.289897 428.088316 
L 577.700533 433.975602 
L 579.111169 445.403862 
L 580.521805 449.213282 
L 581.932441 455.100568 
L 583.343077 443.152841 
L 584.753713 439.689732 
L 586.164349 447.828039 
L 587.574985 447.135417 
L 588.985621 450.598526 
L 590.396257 451.291148 
L 591.806893 448.52066 
L 593.217529 437.0924 
L 594.628165 443.845463 
L 596.038801 441.940753 
L 597.449437 443.499152 
L 598.860073 445.403862 
L 600.270709 452.849547 
L 601.681345 457.005278 
L 603.091981 445.577018 
L 604.502617 446.096484 
L 605.913253 452.156925 
L 607.323889 445.577018 
L 608.734525 453.195858 
L 610.145161 455.446879 
L 611.555797 457.005278 
L 612.966433 446.096484 
L 614.377069 451.117992 
L 615.787705 447.481728 
L 617.198341 445.577018 
L 618.608977 452.676391 
L 620.019613 455.966345 
L 621.430249 460.122076 
L 622.840885 452.849547 
L 624.251521 457.6979 
L 625.662157 455.273723 
L 627.072793 459.948921 
L 628.483429 462.546252 
L 629.894065 467.394605 
L 631.304701 469.991937 
L 632.715337 466.182517 
L 634.125973 460.468387 
L 635.536609 457.871055 
L 636.947245 454.061635 
L 638.357881 454.234791 
L 639.768517 460.814698 
L 641.179153 460.814698 
L 642.589789 457.351589 
L 644.000425 459.429454 
L 645.411061 447.654883 
L 646.821697 456.312656 
L 648.232333 458.736832 
L 649.642969 461.50732 
L 651.053605 463.238874 
L 652.464241 453.369013 
L 653.874877 454.927412 
L 655.285513 456.658967 
L 656.696149 462.719408 
L 658.106785 463.238874 
L 659.517421 463.931496 
L 660.928057 463.238874 
L 662.338693 458.736832 
L 663.749329 457.6979 
L 665.159965 459.256299 
L 666.570601 460.641542 
L 667.981237 461.680475 
L 669.391873 464.624118 
L 670.802509 465.663051 
L 672.213145 460.987853 
L 673.623781 458.044211 
L 675.034417 461.334164 
L 676.445053 463.238874 
L 677.855689 462.546252 
L 679.266325 460.468387 
L 680.676961 462.373097 
L 682.087597 457.351589 
L 683.498233 458.217366 
L 684.908869 458.736832 
L 686.319505 461.50732 
L 687.730141 466.701983 
L 689.140777 465.31674 
L 690.551413 464.450963 
L 691.962049 457.524744 
L 693.372685 458.390522 
L 696.193957 462.026786 
L 697.604593 462.546252 
L 699.015229 465.143584 
L 700.425865 467.22145 
L 701.836501 462.199942 
L 703.247137 466.009362 
L 706.068409 461.50732 
L 708.889681 465.836206 
L 710.300317 470.511404 
L 711.710953 466.528828 
L 713.121589 464.624118 
L 714.532225 460.814698 
L 715.942861 461.334164 
L 717.353497 462.892563 
L 718.764133 462.892563 
L 720.174769 468.260383 
L 721.585405 461.50732 
L 722.996041 458.736832 
L 724.406677 459.429454 
L 725.817313 454.754257 
L 727.227949 457.178433 
L 728.638585 464.277807 
L 728.638585 464.277807 
" style="fill:none;stroke:#ffdd00;stroke-linecap:square;stroke-width:2;"/>
   </g>
   <g id="line2d_33">
    <path clip-path="url(#p5cddb6b79b)" d="M 65.639666 476.684982 
L 67.050302 476.745 
L 68.460938 476.624963 
L 69.871573 476.684982 
L 72.692845 476.384889 
L 74.103481 476.624963 
L 75.514117 476.384889 
L 76.924753 476.384889 
L 78.335389 476.564945 
L 79.746025 475.784705 
L 82.567297 475.18452 
L 85.388569 473.864115 
L 86.799205 475.60465 
L 88.209841 476.024779 
L 89.620477 475.484613 
L 91.031113 474.164207 
L 92.441749 474.284244 
L 93.852385 473.804096 
L 95.263021 471.763469 
L 96.673657 472.783783 
L 98.084293 472.243617 
L 99.494929 468.462454 
L 100.905565 466.661901 
L 102.316201 465.461532 
L 103.726837 463.360887 
L 105.137473 460.299946 
L 106.548109 464.441219 
L 107.958745 464.921366 
L 109.369381 457.539097 
L 110.780017 456.338728 
L 112.190653 453.457843 
L 113.601289 455.678525 
L 115.011925 453.998009 
L 116.422561 461.200223 
L 117.833197 463.24085 
L 119.243833 452.497548 
L 120.654469 455.678525 
L 122.065105 456.158673 
L 123.475741 458.499392 
L 124.886377 456.998931 
L 126.297013 465.641588 
L 127.707649 463.540942 
L 129.118285 455.198378 
L 131.939557 456.878894 
L 133.350193 451.117124 
L 134.760829 453.097732 
L 136.171465 460.90013 
L 137.582101 467.202067 
L 138.992737 430.170686 
L 140.403373 452.79764 
L 141.814009 456.338728 
L 143.224645 457.899208 
L 144.635281 458.439374 
L 146.045917 465.701606 
L 147.456553 466.421827 
L 148.867189 450.937068 
L 150.277825 453.937991 
L 151.688461 450.937068 
L 153.099097 456.638821 
L 154.509733 454.658212 
L 155.920369 463.720997 
L 157.331005 465.401514 
L 158.741641 456.938913 
L 160.152277 459.399669 
L 161.562913 458.379356 
L 162.973549 459.339651 
L 164.384185 461.500315 
L 165.794821 466.121735 
L 167.205457 467.742233 
L 168.616093 461.020167 
L 171.437365 464.861348 
L 172.848001 464.021089 
L 174.258637 467.622196 
L 175.669273 470.5631 
L 177.079909 471.223303 
L 178.490545 468.342418 
L 179.901181 465.821643 
L 181.311817 469.482768 
L 182.722453 470.082953 
L 184.133089 471.223303 
L 185.543725 473.744078 
L 186.954361 473.504004 
L 188.364997 470.923211 
L 189.775633 472.12358 
L 192.596905 473.443985 
L 194.007541 475.004465 
L 195.418177 474.344262 
L 196.828813 475.364576 
L 198.239449 474.464299 
L 199.650085 474.04417 
L 201.060721 474.644354 
L 202.471357 474.644354 
L 203.881993 475.304557 
L 205.292629 475.424594 
L 206.703265 475.724686 
L 208.113901 475.664668 
L 209.524537 475.124502 
L 210.935173 475.004465 
L 212.345809 475.484613 
L 213.756445 474.944447 
L 215.167081 475.364576 
L 216.577717 475.96476 
L 217.988353 475.484613 
L 219.398989 475.724686 
L 220.809625 474.764391 
L 222.220261 475.904742 
L 223.630897 475.364576 
L 225.041533 476.384889 
L 227.862805 476.084797 
L 229.273441 475.544631 
L 230.684077 476.264852 
L 232.094713 475.60465 
L 233.505349 476.384889 
L 236.326621 476.564945 
L 237.737257 475.904742 
L 239.147893 476.264852 
L 241.969165 475.96476 
L 243.379801 476.384889 
L 244.790437 476.444908 
L 246.201073 476.624963 
L 247.611709 476.264852 
L 249.022345 476.084797 
L 251.843617 476.264852 
L 253.254253 476.024779 
L 254.664889 476.204834 
L 256.075525 476.624963 
L 257.486161 475.724686 
L 258.896797 476.144816 
L 261.718069 475.484613 
L 263.128705 476.264852 
L 265.949977 475.724686 
L 267.360613 475.96476 
L 268.771249 475.60465 
L 270.181885 475.784705 
L 271.592521 475.364576 
L 273.003157 476.084797 
L 274.413793 476.564945 
L 275.824429 476.324871 
L 277.235065 475.96476 
L 278.645701 475.424594 
L 280.056337 475.064484 
L 281.466973 475.124502 
L 282.877609 475.484613 
L 284.288245 475.364576 
L 285.698881 475.60465 
L 287.109517 473.023856 
L 288.520153 473.26393 
L 289.930789 472.723764 
L 291.341425 472.843801 
L 294.162697 475.124502 
L 295.573333 475.18452 
L 296.983969 473.203912 
L 298.394605 472.963838 
L 299.805241 473.804096 
L 301.215877 473.203912 
L 302.626513 473.744078 
L 304.037149 475.544631 
L 305.447785 474.764391 
L 306.858421 472.243617 
L 308.269057 472.063561 
L 309.679693 471.163285 
L 311.090329 468.282399 
L 312.500965 471.283321 
L 313.911601 473.684059 
L 315.322237 472.723764 
L 316.732873 473.203912 
L 318.143509 472.423672 
L 319.554145 470.863192 
L 320.964781 470.923211 
L 322.375417 470.443063 
L 323.786053 471.103266 
L 325.196689 470.623119 
L 326.607325 468.102344 
L 328.017961 464.801329 
L 329.428597 465.221458 
L 330.839233 464.621274 
L 333.660505 468.522473 
L 335.071141 467.502159 
L 336.481777 466.72192 
L 337.892413 470.5631 
L 339.303049 463.360887 
L 340.713685 462.880739 
L 342.124321 463.781016 
L 343.534957 463.901053 
L 344.945593 466.061717 
L 346.356229 465.581569 
L 347.766865 462.46061 
L 349.177501 459.939835 
L 350.588137 460.840112 
L 351.998773 460.54002 
L 353.409409 462.580647 
L 354.820045 457.539097 
L 356.230681 449.496626 
L 357.641317 446.915832 
L 359.051953 442.414449 
L 360.462589 433.771793 
L 363.283861 450.516939 
L 364.694497 455.138359 
L 366.105133 439.29349 
L 367.515769 437.072807 
L 368.926405 429.150372 
L 370.337041 430.110668 
L 371.747677 427.649911 
L 373.158313 434.612051 
L 374.568949 432.031258 
L 375.979585 410.784728 
L 377.390221 405.142994 
L 378.800857 401.601906 
L 381.622129 411.024802 
L 383.032765 420.027569 
L 384.443401 419.067273 
L 385.854037 394.939858 
L 387.264673 391.278733 
L 388.675309 399.081131 
L 390.085945 399.081131 
L 391.496581 401.541887 
L 392.907217 424.949081 
L 394.317853 426.989708 
L 395.728489 395.119914 
L 397.139125 375.5539 
L 398.549761 381.855837 
L 399.960397 386.537276 
L 401.371033 399.50126 
L 402.781669 419.18731 
L 404.192305 420.267642 
L 405.602941 395.960172 
L 407.013577 398.000799 
L 408.424213 400.581592 
L 409.834849 410.724709 
L 411.245485 410.424617 
L 412.656121 432.031258 
L 414.066757 418.287034 
L 415.477393 387.977718 
L 416.888029 392.959249 
L 418.298665 398.480946 
L 419.709301 398.781039 
L 421.119937 408.083898 
L 422.530573 425.789339 
L 423.941209 424.048804 
L 425.351845 398.961094 
L 426.762481 399.201168 
L 428.173117 401.661924 
L 429.583753 404.90292 
L 432.405025 421.588048 
L 433.815661 427.70993 
L 435.226297 399.981408 
L 436.636933 403.162385 
L 438.047569 409.644377 
L 439.458205 417.626831 
L 440.868841 424.769026 
L 442.279477 430.830889 
L 443.690113 434.191922 
L 445.100749 407.003566 
L 446.511385 417.086665 
L 447.922021 420.74779 
L 449.332657 428.310114 
L 450.743293 432.33135 
L 452.153929 442.35443 
L 453.564565 443.374744 
L 454.975201 418.227015 
L 456.385837 420.807808 
L 457.796473 419.667458 
L 459.207109 428.130059 
L 460.617745 437.793029 
L 462.028381 436.652678 
L 463.439017 438.033102 
L 464.849653 419.18731 
L 466.260289 413.905687 
L 467.670925 416.246406 
L 469.081561 422.30827 
L 470.492197 423.928768 
L 471.902833 435.512328 
L 473.313469 433.4717 
L 474.724105 410.724709 
L 476.134741 414.685927 
L 477.545377 413.665613 
L 478.956013 422.008177 
L 480.366649 420.927845 
L 481.777285 431.311036 
L 483.187921 427.289801 
L 484.598557 397.400614 
L 486.009193 396.740412 
L 487.419829 397.400614 
L 488.830465 415.406148 
L 490.241101 445.535408 
L 491.651737 413.245484 
L 493.062373 374.41355 
L 494.473009 367.211336 
L 495.883645 287.926969 
L 497.294281 298.31016 
L 498.704917 333.961117 
L 500.115553 406.703474 
L 501.526189 343.624087 
L 502.936825 343.323995 
L 504.347461 333.601006 
L 505.758097 293.208592 
L 507.168733 323.457889 
L 511.400641 386.837368 
L 512.811277 390.918622 
L 514.221913 350.646245 
L 515.632549 357.668403 
L 517.043185 374.113457 
L 518.453821 379.275044 
L 519.864457 383.536353 
L 521.275093 406.163308 
L 522.685729 404.842902 
L 524.096365 372.492959 
L 525.507001 383.29628 
L 526.917637 381.495726 
L 528.328273 402.20209 
L 529.738909 402.142072 
L 531.149545 420.507716 
L 532.560181 425.0091 
L 533.970817 397.400614 
L 535.381453 406.223326 
L 536.792089 409.94447 
L 538.202725 409.524341 
L 539.613361 418.947237 
L 541.023997 429.63052 
L 542.434633 427.889985 
L 543.845269 410.724709 
L 545.255905 413.725632 
L 546.666541 421.047882 
L 548.077177 422.66838 
L 549.487813 420.447698 
L 550.898449 433.771793 
L 552.309085 437.312881 
L 553.719721 417.146683 
L 555.130357 431.311036 
L 556.540993 426.14945 
L 557.951629 425.969395 
L 559.362265 422.66838 
L 560.772901 444.335039 
L 562.183537 435.81242 
L 563.594173 418.8272 
L 565.004809 422.30827 
L 566.415445 427.049727 
L 567.826081 424.048804 
L 569.236717 423.268565 
L 570.647353 437.192844 
L 572.057989 440.07373 
L 573.468625 429.330428 
L 574.879261 434.852125 
L 576.289897 434.732088 
L 577.700533 438.993398 
L 580.521805 451.957382 
L 581.932441 451.23716 
L 583.343077 443.974929 
L 584.753713 445.595427 
L 586.164349 447.035869 
L 587.574985 443.254707 
L 588.985621 448.896441 
L 590.396257 448.116201 
L 591.806893 450.696994 
L 593.217529 441.454154 
L 594.628165 437.492936 
L 596.038801 439.29349 
L 597.449437 436.95277 
L 598.860073 441.634209 
L 600.270709 448.95646 
L 601.681345 450.036792 
L 603.091981 435.332272 
L 604.502617 442.414449 
L 605.913253 440.793951 
L 607.323889 443.614818 
L 608.734525 444.094965 
L 610.145161 449.376589 
L 611.555797 448.896441 
L 612.966433 435.81242 
L 614.377069 440.43384 
L 615.787705 444.335039 
L 617.198341 442.474467 
L 620.019613 453.457843 
L 621.430249 455.318415 
L 622.840885 445.775482 
L 624.251521 453.037714 
L 625.662157 453.217769 
L 627.072793 451.897363 
L 628.483429 455.798562 
L 629.894065 460.059872 
L 631.304701 461.560333 
L 632.715337 459.159595 
L 634.125973 455.378433 
L 635.536609 459.939835 
L 636.947245 459.819798 
L 638.357881 460.780093 
L 639.768517 463.120813 
L 641.179153 464.201145 
L 642.589789 461.440296 
L 644.000425 461.080186 
L 645.411061 464.081108 
L 646.821697 464.861348 
L 648.232333 463.420905 
L 649.642969 464.561255 
L 651.053605 466.421827 
L 652.464241 461.080186 
L 653.874877 462.280555 
L 656.696149 462.940757 
L 659.517421 467.982307 
L 660.928057 470.142971 
L 662.338693 465.101421 
L 663.749329 464.981385 
L 665.159965 465.101421 
L 666.570601 466.30179 
L 667.981237 466.361809 
L 669.391873 469.122657 
L 670.802509 469.542786 
L 672.213145 467.022012 
L 673.623781 464.861348 
L 675.034417 463.480923 
L 676.445053 463.660979 
L 679.266325 465.701606 
L 680.676961 464.141126 
L 682.087597 457.178987 
L 683.498233 459.639743 
L 684.908869 458.919522 
L 686.319505 458.019245 
L 687.730141 459.279632 
L 689.140777 463.000776 
L 690.551413 462.940757 
L 691.962049 455.078341 
L 693.372685 451.837345 
L 694.783321 452.0174 
L 696.193957 453.757935 
L 697.604593 455.018323 
L 699.015229 458.97954 
L 700.425865 457.239005 
L 701.836501 447.095888 
L 703.247137 446.61574 
L 704.657773 439.113434 
L 706.068409 443.494781 
L 707.479045 443.734855 
L 708.889681 450.396902 
L 710.300317 447.215925 
L 711.710953 439.29349 
L 714.532225 418.407071 
L 715.942861 419.247329 
L 717.353497 426.989708 
L 718.764133 440.133748 
L 720.174769 435.81242 
L 721.585405 419.547421 
L 722.996041 414.805964 
L 724.406677 413.125447 
L 725.817313 413.665613 
L 727.227949 424.468934 
L 728.638585 434.25194 
L 728.638585 434.25194 
" style="fill:none;stroke:#003078;stroke-linecap:square;stroke-width:2;"/>
   </g>
   <g id="line2d_34">
    <path clip-path="url(#p5cddb6b79b)" d="M 64.22903 476.641 
L 67.050302 476.745 
L 75.514117 476.745 
L 76.924753 476.537 
L 78.335389 476.641 
L 79.746025 476.433001 
L 81.156661 475.497002 
L 82.567297 475.185003 
L 83.977933 474.145005 
L 85.388569 473.833006 
L 86.799205 474.769004 
L 88.209841 473.417006 
L 89.620477 472.897008 
L 92.441749 473.001007 
L 93.852385 470.505012 
L 95.263021 469.153015 
L 98.084293 468.841015 
L 99.494929 462.913027 
L 100.905565 462.081029 
L 102.316201 456.985039 
L 103.726837 458.337036 
L 105.137473 456.673039 
L 106.548109 459.377034 
L 107.958745 460.209032 
L 109.369381 441.07307 
L 110.780017 447.937056 
L 112.190653 442.737066 
L 113.601289 441.801068 
L 115.011925 442.425067 
L 116.422561 447.417057 
L 117.833197 453.553045 
L 119.243833 436.913078 
L 120.654469 436.601078 
L 122.065105 436.601078 
L 123.475741 436.081079 
L 124.886377 444.713063 
L 126.297013 451.05705 
L 127.707649 451.05705 
L 129.118285 448.353055 
L 131.939557 439.201073 
L 133.350193 438.993074 
L 134.760829 443.049066 
L 136.171465 451.05705 
L 137.582101 457.921037 
L 138.992737 447.521057 
L 140.403373 449.809053 
L 141.814009 450.433051 
L 143.224645 455.841041 
L 144.635281 454.593043 
L 146.045917 462.601028 
L 147.456553 464.161025 
L 148.867189 458.857035 
L 150.277825 460.833031 
L 153.099097 455.945041 
L 154.509733 458.441036 
L 155.920369 458.129036 
L 157.331005 465.825021 
L 160.152277 458.545036 
L 161.562913 458.961035 
L 162.973549 458.441036 
L 164.384185 464.785023 
L 165.794821 462.601028 
L 167.205457 465.617022 
L 168.616093 458.233036 
L 170.026729 461.14503 
L 171.437365 460.833031 
L 172.848001 463.017027 
L 174.258637 458.129036 
L 175.669273 459.481034 
L 177.079909 464.473024 
L 178.490545 459.273034 
L 179.901181 454.593043 
L 181.311817 459.481034 
L 182.722453 463.017027 
L 184.133089 462.497028 
L 185.543725 464.057025 
L 186.954361 468.217017 
L 188.364997 465.825021 
L 189.775633 466.137021 
L 191.186269 464.473024 
L 192.596905 466.137021 
L 194.007541 465.721022 
L 195.418177 469.465014 
L 196.828813 471.961009 
L 198.239449 470.089013 
L 199.650085 469.153015 
L 201.060721 468.945015 
L 202.471357 470.505012 
L 203.881993 471.025011 
L 205.292629 471.233011 
L 206.703265 473.209007 
L 208.113901 469.049015 
L 209.524537 470.297013 
L 210.935173 469.777014 
L 212.345809 469.881013 
L 213.756445 468.945015 
L 215.167081 469.465014 
L 216.577717 471.129011 
L 217.988353 469.881013 
L 219.398989 468.217017 
L 220.809625 470.089013 
L 222.220261 470.297013 
L 223.630897 462.185028 
L 225.041533 471.85701 
L 226.452169 468.841015 
L 227.862805 469.881013 
L 229.273441 463.121027 
L 230.684077 472.897008 
L 232.094713 470.505012 
L 233.505349 474.769004 
L 234.915985 462.185028 
L 236.326621 473.833006 
L 237.737257 472.273009 
L 240.558529 473.937005 
L 241.969165 473.833006 
L 244.790437 475.809002 
L 246.201073 475.497002 
L 247.611709 473.105007 
L 249.022345 473.729006 
L 250.432981 475.289003 
L 253.254253 473.729006 
L 254.664889 475.497002 
L 256.075525 475.705002 
L 257.486161 474.249005 
L 258.896797 474.353005 
L 260.307433 474.873004 
L 261.718069 474.145005 
L 263.128705 474.977003 
L 264.539341 475.601002 
L 265.949977 475.705002 
L 267.360613 472.273009 
L 268.771249 470.401012 
L 270.181885 474.145005 
L 271.592521 473.521006 
L 273.003157 473.625006 
L 274.413793 474.249005 
L 275.824429 473.105007 
L 277.235065 474.353005 
L 278.645701 473.937005 
L 280.056337 473.937005 
L 281.466973 473.625006 
L 282.877609 475.081003 
L 284.288245 475.081003 
L 285.698881 475.289003 
L 287.109517 474.457004 
L 288.520153 474.249005 
L 289.930789 474.457004 
L 291.341425 474.457004 
L 292.752061 475.185003 
L 294.162697 476.225001 
L 295.573333 475.913002 
L 296.983969 474.769004 
L 298.394605 473.937005 
L 299.805241 474.249005 
L 301.215877 474.977003 
L 302.626513 474.977003 
L 304.037149 475.705002 
L 305.447785 474.873004 
L 306.858421 474.769004 
L 308.269057 472.793008 
L 311.090329 473.521006 
L 312.500965 474.457004 
L 313.911601 474.769004 
L 315.322237 475.601002 
L 316.732873 473.001007 
L 318.143509 471.54501 
L 319.554145 472.169009 
L 320.964781 471.54501 
L 322.375417 471.337011 
L 323.786053 472.169009 
L 325.196689 471.961009 
L 326.607325 472.169009 
L 328.017961 470.817012 
L 329.428597 466.865019 
L 330.839233 463.745025 
L 332.249869 461.24903 
L 333.660505 463.433026 
L 335.071141 463.121027 
L 336.481777 460.209032 
L 337.892413 461.873029 
L 339.303049 460.313032 
L 340.713685 457.401038 
L 342.124321 461.665029 
L 343.534957 462.185028 
L 344.945593 459.689033 
L 346.356229 456.881039 
L 347.766865 459.689033 
L 349.177501 455.217042 
L 350.588137 449.601053 
L 351.998773 451.16105 
L 353.409409 447.625057 
L 354.820045 450.537051 
L 356.230681 444.193064 
L 357.641317 437.329077 
L 359.051953 437.433077 
L 360.462589 443.881064 
L 361.873225 436.705078 
L 363.283861 434.833082 
L 364.694497 443.777064 
L 366.105133 432.441087 
L 367.515769 428.281095 
L 368.926405 414.241122 
L 370.337041 411.537127 
L 371.747677 414.241122 
L 373.158313 422.873105 
L 375.979585 403.633143 
L 377.390221 396.561157 
L 378.800857 388.241173 
L 380.211493 390.737168 
L 381.622129 395.417159 
L 383.032765 412.369126 
L 384.443401 411.641127 
L 385.854037 395.417159 
L 387.264673 377.737193 
L 388.675309 382.729184 
L 390.085945 394.481161 
L 391.496581 377.737193 
L 392.907217 403.113144 
L 394.317853 402.281145 
L 395.728489 361.201226 
L 397.139125 348.097251 
L 398.549761 345.081257 
L 399.960397 366.921214 
L 401.371033 352.257243 
L 402.781669 370.145208 
L 404.192305 378.985191 
L 405.602941 314.921316 
L 407.013577 323.0333 
L 408.424213 335.617276 
L 409.834849 312.113321 
L 412.656121 385.329179 
L 414.066757 378.153193 
L 415.477393 330.105286 
L 416.888029 348.409251 
L 418.298665 362.969222 
L 419.709301 370.977207 
L 421.119937 385.537178 
L 422.530573 413.825123 
L 423.941209 404.361141 
L 425.351845 371.601205 
L 426.762481 376.593196 
L 428.173117 387.825174 
L 429.583753 396.457157 
L 430.994389 387.409174 
L 432.405025 411.433128 
L 433.815661 411.433128 
L 435.226297 373.473202 
L 436.636933 368.585211 
L 438.047569 374.0972 
L 439.458205 381.065187 
L 440.868841 379.40119 
L 442.279477 406.025138 
L 443.690113 402.177146 
L 445.100749 369.521209 
L 446.511385 363.073222 
L 447.922021 337.697272 
L 449.332657 356.209235 
L 450.743293 369.10521 
L 452.153929 388.969171 
L 453.564565 376.281196 
L 454.975201 320.225306 
L 456.385837 309.201327 
L 457.796473 305.769334 
L 459.207109 288.921367 
L 460.617745 300.153345 
L 462.028381 317.313311 
L 463.439017 300.257345 
L 464.849653 215.60151 
L 467.670925 196.777547 
L 469.081561 199.689541 
L 470.492197 184.297571 
L 471.902833 239.105464 
L 473.313469 192.513555 
L 474.724105 108.689719 
L 476.134741 145.921646 
L 477.545377 150.081638 
L 478.956013 188.041564 
L 480.366649 212.897515 
L 481.777285 251.065441 
L 483.187921 247.113448 
L 484.598557 191.369557 
L 486.009193 195.425549 
L 487.419829 222.673496 
L 488.830465 323.553299 
L 490.241101 409.873131 
L 491.651737 279.873384 
L 493.062373 217.161507 
L 494.473009 231.721478 
L 495.883645 106.193724 
L 497.294281 196.049548 
L 498.704917 267.705408 
L 500.115553 350.801246 
L 501.526189 259.697424 
L 502.936825 288.609367 
L 504.347461 200.31354 
L 505.758097 228.913484 
L 507.168733 269.785404 
L 508.579369 303.793338 
L 509.990005 310.761324 
L 511.400641 357.977232 
L 512.811277 354.233239 
L 514.221913 296.305352 
L 517.043185 324.593297 
L 518.453821 340.401266 
L 519.864457 350.697246 
L 521.275093 372.225204 
L 522.685729 390.945168 
L 524.096365 331.457284 
L 525.507001 364.32122 
L 526.917637 375.761197 
L 528.328273 382.209185 
L 529.738909 396.457157 
L 531.149545 420.48111 
L 532.560181 435.56108 
L 533.970817 388.761172 
L 535.381453 400.721148 
L 536.792089 403.529143 
L 538.202725 408.313134 
L 539.613361 414.553121 
L 541.023997 426.201099 
L 542.434633 428.905093 
L 543.845269 413.097124 
L 545.255905 414.449122 
L 546.666541 416.113118 
L 548.077177 424.641102 
L 549.487813 424.641102 
L 550.898449 439.409073 
L 552.309085 447.209058 
L 553.719721 425.5771 
L 555.130357 428.489094 
L 556.540993 429.945091 
L 557.951629 437.537077 
L 559.362265 434.417083 
L 560.772901 447.417057 
L 562.183537 446.689059 
L 563.594173 429.633092 
L 565.004809 430.77709 
L 566.415445 437.953076 
L 567.826081 441.07307 
L 569.236717 444.505063 
L 570.647353 448.977054 
L 572.057989 448.353055 
L 573.468625 441.801068 
L 574.879261 446.793058 
L 576.289897 449.289054 
L 577.700533 453.345046 
L 579.111169 455.737041 
L 580.521805 462.289028 
L 581.932441 455.217042 
L 583.343077 451.36905 
L 584.753713 452.097048 
L 586.164349 455.009042 
L 587.574985 456.04904 
L 588.985621 463.121027 
L 590.396257 459.169034 
L 591.806893 461.56103 
L 593.217529 449.913052 
L 594.628165 459.585034 
L 596.038801 455.737041 
L 597.449437 453.033046 
L 598.860073 455.321042 
L 600.270709 456.985039 
L 601.681345 460.313032 
L 603.091981 456.36104 
L 604.502617 457.713037 
L 605.913253 457.713037 
L 607.323889 453.969044 
L 608.734525 458.337036 
L 610.145161 460.937031 
L 611.555797 462.289028 
L 612.966433 456.15304 
L 614.377069 459.793033 
L 615.787705 456.985039 
L 617.198341 456.04904 
L 618.608977 460.937031 
L 620.019613 467.697018 
L 621.430249 466.033021 
L 622.840885 463.953025 
L 624.251521 462.497028 
L 625.662157 465.513022 
L 627.072793 466.969019 
L 628.483429 470.193013 
L 629.894065 470.713012 
L 631.304701 468.841015 
L 632.715337 469.257015 
L 634.125973 465.825021 
L 635.536609 465.825021 
L 636.947245 467.385018 
L 638.357881 469.257015 
L 639.768517 471.44101 
L 641.179153 471.129011 
L 642.589789 465.617022 
L 644.000425 470.089013 
L 645.411061 468.529016 
L 646.821697 469.361014 
L 648.232333 470.505012 
L 649.642969 472.793008 
L 651.053605 471.129011 
L 652.464241 469.049015 
L 653.874877 470.817012 
L 655.285513 470.193013 
L 660.928057 473.417006 
L 662.338693 470.921011 
L 663.749329 470.505012 
L 665.159965 471.75301 
L 666.570601 471.025011 
L 667.981237 473.209007 
L 669.391873 473.417006 
L 670.802509 473.937005 
L 672.213145 473.937005 
L 673.623781 470.921011 
L 675.034417 472.065009 
L 676.445053 469.985013 
L 677.855689 472.689008 
L 679.266325 473.521006 
L 680.676961 473.625006 
L 682.087597 472.377009 
L 683.498233 469.985013 
L 684.908869 470.401012 
L 686.319505 472.793008 
L 687.730141 472.169009 
L 689.140777 473.937005 
L 690.551413 473.521006 
L 691.962049 471.54501 
L 693.372685 472.065009 
L 694.783321 473.105007 
L 696.193957 471.85701 
L 697.604593 471.44101 
L 699.015229 473.105007 
L 700.425865 474.561004 
L 701.836501 472.481008 
L 703.247137 471.54501 
L 704.657773 473.625006 
L 706.068409 473.001007 
L 707.479045 472.585008 
L 708.889681 472.481008 
L 710.300317 472.689008 
L 711.710953 470.505012 
L 713.121589 470.609012 
L 714.532225 468.425016 
L 715.942861 467.593018 
L 717.353497 469.985013 
L 718.764133 468.841015 
L 720.174769 469.673014 
L 721.585405 465.825021 
L 722.996041 464.681024 
L 724.406677 463.329026 
L 725.817313 462.289028 
L 727.227949 463.225026 
L 728.638585 467.801017 
L 728.638585 467.801017 
" style="fill:none;stroke:#d4351c;stroke-linecap:square;stroke-width:2;"/>
   </g>
   <g id="patch_3">
    <path d="M 68.460938 476.745 
L 738.060938 476.745 
" style="fill:none;stroke:#000000;stroke-linecap:square;stroke-linejoin:miter;stroke-width:0.8;"/>
   </g>
   <g id="text_17">
    <!-- COVID-19 cases in UK Nations, per capita -->
    <g transform="translate(281.687813 27.225)scale(0.12 -0.12)">
     <defs>
      <path d="M 4511 3025 
L 3516 3025 
Q 3459 3409 3188 3628 
Q 2918 3848 2514 3848 
Q 1973 3848 1647 3451 
Q 1321 3055 1321 2327 
Q 1321 1582 1649 1194 
Q 1977 807 2507 807 
Q 2900 807 3173 1012 
Q 3446 1218 3516 1591 
L 4511 1586 
Q 4459 1159 4207 782 
Q 3955 405 3522 170 
Q 3089 -64 2491 -64 
Q 1868 -64 1378 218 
Q 889 500 606 1034 
Q 323 1568 323 2327 
Q 323 3089 609 3623 
Q 896 4157 1386 4437 
Q 1877 4718 2491 4718 
Q 3030 4718 3463 4519 
Q 3896 4320 4172 3942 
Q 4448 3564 4511 3025 
z
" id="Inter-Bold-43" transform="scale(0.015625)"/>
      <path d="M 4682 2327 
Q 4682 1566 4394 1032 
Q 4107 498 3614 217 
Q 3121 -64 2502 -64 
Q 1882 -64 1389 218 
Q 896 500 609 1035 
Q 323 1570 323 2327 
Q 323 3089 609 3623 
Q 896 4157 1389 4437 
Q 1882 4718 2502 4718 
Q 3121 4718 3614 4437 
Q 4107 4157 4394 3623 
Q 4682 3089 4682 2327 
z
M 3684 2327 
Q 3684 3068 3361 3458 
Q 3039 3848 2502 3848 
Q 1966 3848 1643 3458 
Q 1321 3068 1321 2327 
Q 1321 1589 1643 1198 
Q 1966 807 2502 807 
Q 3039 807 3361 1198 
Q 3684 1589 3684 2327 
z
" id="Inter-Bold-4f" transform="scale(0.015625)"/>
      <path d="M 1246 4655 
L 2371 1118 
L 2414 1118 
L 3541 4655 
L 4632 4655 
L 3027 0 
L 1759 0 
L 152 4655 
L 1246 4655 
z
" id="Inter-Bold-56" transform="scale(0.015625)"/>
      <path d="M 1389 4655 
L 1389 0 
L 405 0 
L 405 4655 
L 1389 4655 
z
" id="Inter-Bold-49" transform="scale(0.015625)"/>
      <path d="M 2055 0 
L 405 0 
L 405 4655 
L 2068 4655 
Q 2771 4655 3278 4376 
Q 3786 4098 4059 3577 
Q 4332 3057 4332 2332 
Q 4332 1605 4058 1082 
Q 3784 559 3274 279 
Q 2764 0 2055 0 
z
M 1389 843 
L 2014 843 
Q 2671 843 3010 1197 
Q 3350 1552 3350 2332 
Q 3350 3107 3010 3459 
Q 2671 3811 2016 3811 
L 1389 3811 
L 1389 843 
z
" id="Inter-Bold-44" transform="scale(0.015625)"/>
      <path d="M 2561 2295 
L 2561 1527 
L 439 1527 
L 439 2295 
L 2561 2295 
z
" id="Inter-Bold-2d" transform="scale(0.015625)"/>
      <path d="M 2305 4655 
L 2305 0 
L 1323 0 
L 1323 3450 
L 1280 3450 
Q 1205 3334 961 3219 
Q 718 3105 332 3105 
L 332 3886 
Q 632 3886 857 4019 
Q 1082 4152 1209 4333 
Q 1336 4514 1341 4655 
L 2305 4655 
z
" id="Inter-Bold-31" transform="scale(0.015625)"/>
      <path d="M 2061 4732 
Q 2421 4732 2753 4612 
Q 3086 4493 3348 4227 
Q 3611 3961 3766 3523 
Q 3921 3086 3921 2448 
Q 3921 1659 3686 1096 
Q 3452 534 3028 235 
Q 2605 -64 2027 -64 
Q 1561 -64 1204 117 
Q 848 298 631 610 
Q 414 923 368 1314 
L 1339 1314 
Q 1396 1059 1577 919 
Q 1759 780 2027 780 
Q 2482 780 2718 1176 
Q 2955 1573 2957 2264 
L 2925 2264 
Q 2771 1957 2453 1782 
Q 2136 1607 1752 1607 
Q 1341 1607 1016 1801 
Q 691 1995 506 2334 
Q 321 2673 323 3109 
Q 321 3582 539 3949 
Q 757 4316 1149 4525 
Q 1541 4734 2061 4732 
z
M 2068 3959 
Q 1725 3959 1500 3722 
Q 1275 3486 1277 3136 
Q 1275 2791 1496 2555 
Q 1718 2320 2059 2320 
Q 2284 2320 2465 2431 
Q 2646 2543 2751 2729 
Q 2857 2916 2859 3141 
Q 2857 3366 2753 3551 
Q 2650 3736 2473 3847 
Q 2296 3959 2068 3959 
z
" id="Inter-Bold-39" transform="scale(0.015625)"/>
      <path id="Inter-Bold-20" transform="scale(0.015625)"/>
      <path d="M 1964 -68 
Q 1427 -68 1042 160 
Q 657 389 451 795 
Q 246 1202 246 1732 
Q 246 2268 453 2674 
Q 661 3080 1045 3308 
Q 1430 3536 1959 3536 
Q 2416 3536 2760 3370 
Q 3105 3205 3303 2905 
Q 3502 2605 3523 2200 
L 2609 2200 
Q 2571 2461 2406 2621 
Q 2241 2782 1975 2782 
Q 1639 2782 1434 2511 
Q 1230 2241 1230 1745 
Q 1230 1245 1433 971 
Q 1636 698 1975 698 
Q 2225 698 2395 849 
Q 2566 1000 2609 1280 
L 3523 1280 
Q 3500 880 3305 575 
Q 3111 270 2770 101 
Q 2430 -68 1964 -68 
z
" id="Inter-Bold-63" transform="scale(0.015625)"/>
      <path d="M 1382 -66 
Q 882 -66 552 195 
Q 223 457 223 975 
Q 223 1366 407 1588 
Q 591 1811 890 1914 
Q 1189 2018 1534 2050 
Q 1989 2095 2184 2145 
Q 2380 2195 2380 2364 
L 2380 2377 
Q 2380 2593 2244 2711 
Q 2109 2830 1861 2830 
Q 1600 2830 1445 2716 
Q 1291 2602 1241 2427 
L 346 2500 
Q 446 2977 842 3256 
Q 1239 3536 1866 3536 
Q 2255 3536 2593 3413 
Q 2932 3291 3140 3030 
Q 3348 2770 3348 2355 
L 3348 0 
L 2430 0 
L 2430 484 
L 2402 484 
Q 2275 241 2021 87 
Q 1768 -66 1382 -66 
z
M 1659 602 
Q 1977 602 2181 787 
Q 2386 973 2386 1248 
L 2386 1618 
Q 2330 1580 2210 1550 
Q 2091 1520 1956 1498 
Q 1821 1477 1714 1461 
Q 1459 1425 1303 1318 
Q 1148 1211 1148 1007 
Q 1148 807 1292 704 
Q 1436 602 1659 602 
z
" id="Inter-Bold-61" transform="scale(0.015625)"/>
      <path d="M 3291 2495 
L 2405 2441 
Q 2368 2609 2220 2729 
Q 2073 2850 1821 2850 
Q 1596 2850 1440 2755 
Q 1284 2661 1286 2505 
Q 1284 2380 1385 2293 
Q 1486 2207 1730 2155 
L 2361 2027 
Q 3368 1820 3371 1082 
Q 3371 739 3169 479 
Q 2968 220 2618 76 
Q 2268 -68 1816 -68 
Q 1123 -68 711 221 
Q 300 511 232 1011 
L 1184 1061 
Q 1230 848 1394 739 
Q 1559 630 1818 630 
Q 2073 630 2228 730 
Q 2384 830 2386 984 
Q 2380 1243 1939 1332 
L 1334 1452 
Q 321 1655 325 2450 
Q 323 2955 728 3245 
Q 1134 3536 1805 3536 
Q 2466 3536 2846 3256 
Q 3227 2977 3291 2495 
z
" id="Inter-Bold-73" transform="scale(0.015625)"/>
      <path d="M 1977 -68 
Q 1441 -68 1052 151 
Q 664 370 455 773 
Q 246 1177 246 1730 
Q 246 2268 455 2675 
Q 664 3082 1044 3309 
Q 1425 3536 1939 3536 
Q 2400 3536 2771 3340 
Q 3143 3145 3361 2751 
Q 3580 2357 3580 1764 
L 3580 1498 
L 1202 1498 
L 1202 1495 
Q 1202 1105 1416 880 
Q 1630 655 1993 655 
Q 2236 655 2413 757 
Q 2591 859 2664 1059 
L 3559 1000 
Q 3457 514 3041 223 
Q 2625 -68 1977 -68 
z
M 1202 2098 
L 2668 2098 
Q 2666 2409 2468 2611 
Q 2271 2814 1955 2814 
Q 1632 2814 1425 2604 
Q 1218 2395 1202 2098 
z
" id="Inter-Bold-65" transform="scale(0.015625)"/>
      <path d="M 386 0 
L 386 3491 
L 1355 3491 
L 1355 0 
L 386 0 
z
M 876 3941 
Q 662 3941 507 4085 
Q 353 4230 353 4432 
Q 353 4634 507 4777 
Q 662 4920 876 4920 
Q 1092 4920 1246 4777 
Q 1401 4634 1401 4432 
Q 1401 4230 1246 4085 
Q 1092 3941 876 3941 
z
" id="Inter-Bold-69" transform="scale(0.015625)"/>
      <path d="M 1355 2018 
L 1355 0 
L 386 0 
L 386 3491 
L 1309 3491 
L 1309 2875 
L 1350 2875 
Q 1468 3180 1739 3358 
Q 2011 3536 2400 3536 
Q 2946 3536 3275 3185 
Q 3605 2834 3605 2223 
L 3605 0 
L 2636 0 
L 2636 2050 
Q 2639 2370 2473 2551 
Q 2307 2732 2016 2732 
Q 1723 2732 1540 2544 
Q 1357 2357 1355 2018 
z
" id="Inter-Bold-6e" transform="scale(0.015625)"/>
      <path d="M 3286 4655 
L 4264 4655 
L 4264 1577 
Q 4264 1050 4016 683 
Q 3768 316 3333 125 
Q 2898 -66 2334 -66 
Q 1771 -66 1334 125 
Q 898 316 651 683 
Q 405 1050 405 1577 
L 405 4655 
L 1389 4655 
L 1389 1611 
Q 1389 1239 1658 1025 
Q 1927 811 2334 811 
Q 2748 811 3017 1025 
Q 3286 1239 3286 1611 
L 3286 4655 
z
" id="Inter-Bold-55" transform="scale(0.015625)"/>
      <path d="M 405 0 
L 405 4655 
L 1389 4655 
L 1389 2602 
L 1450 2602 
L 3125 4655 
L 4305 4655 
L 2577 2570 
L 4325 0 
L 3148 0 
L 1873 1914 
L 1389 1323 
L 1389 0 
L 405 0 
z
" id="Inter-Bold-4b" transform="scale(0.015625)"/>
      <path d="M 4298 4655 
L 4298 0 
L 3448 0 
L 1423 2930 
L 1389 2930 
L 1389 0 
L 405 0 
L 405 4655 
L 1268 4655 
L 3277 1727 
L 3318 1727 
L 3318 4655 
L 4298 4655 
z
" id="Inter-Bold-4e" transform="scale(0.015625)"/>
      <path d="M 2243 3491 
L 2243 2764 
L 1586 2764 
L 1586 1073 
Q 1586 873 1677 802 
Q 1768 732 1914 732 
Q 1982 732 2050 744 
Q 2118 757 2155 764 
L 2307 43 
Q 2234 20 2102 -10 
Q 1971 -41 1782 -48 
Q 1255 -70 935 181 
Q 616 432 618 945 
L 618 2764 
L 141 2764 
L 141 3491 
L 618 3491 
L 618 4327 
L 1586 4327 
L 1586 3491 
L 2243 3491 
z
" id="Inter-Bold-74" transform="scale(0.015625)"/>
      <path d="M 1964 -68 
Q 1434 -68 1049 158 
Q 664 384 455 789 
Q 246 1195 246 1732 
Q 246 2273 455 2678 
Q 664 3084 1049 3310 
Q 1434 3536 1964 3536 
Q 2493 3536 2878 3310 
Q 3264 3084 3473 2678 
Q 3682 2273 3682 1732 
Q 3682 1195 3473 789 
Q 3264 384 2878 158 
Q 2493 -68 1964 -68 
z
M 1968 682 
Q 2327 682 2512 982 
Q 2698 1282 2698 1739 
Q 2698 2195 2512 2496 
Q 2327 2798 1968 2798 
Q 1602 2798 1416 2496 
Q 1230 2195 1230 1739 
Q 1230 1282 1416 982 
Q 1602 682 1968 682 
z
" id="Inter-Bold-6f" transform="scale(0.015625)"/>
      <path d="M 1439 636 
L 1414 386 
Q 1384 86 1301 -212 
Q 1218 -511 1128 -754 
Q 1039 -998 984 -1136 
L 357 -1136 
Q 391 -1002 450 -763 
Q 509 -525 561 -226 
Q 614 73 627 382 
L 639 636 
L 1439 636 
z
" id="Inter-Bold-2c" transform="scale(0.015625)"/>
      <path d="M 386 -1309 
L 386 3491 
L 1341 3491 
L 1341 2905 
L 1384 2905 
Q 1450 3048 1570 3193 
Q 1691 3339 1888 3437 
Q 2086 3536 2377 3536 
Q 2761 3536 3081 3337 
Q 3402 3139 3596 2740 
Q 3791 2341 3791 1741 
Q 3791 1157 3602 756 
Q 3414 355 3093 149 
Q 2773 -57 2375 -57 
Q 2093 -57 1896 36 
Q 1700 130 1576 272 
Q 1452 414 1384 559 
L 1355 559 
L 1355 -1309 
L 386 -1309 
z
M 1334 1745 
Q 1334 1280 1526 997 
Q 1718 714 2068 714 
Q 2425 714 2613 1001 
Q 2802 1289 2802 1745 
Q 2802 2200 2614 2483 
Q 2427 2766 2068 2766 
Q 1716 2766 1525 2490 
Q 1334 2214 1334 1745 
z
" id="Inter-Bold-70" transform="scale(0.015625)"/>
      <path d="M 386 0 
L 386 3491 
L 1325 3491 
L 1325 2882 
L 1361 2882 
Q 1457 3207 1681 3374 
Q 1905 3541 2200 3541 
Q 2341 3541 2461 3507 
Q 2582 3473 2677 3414 
L 2386 2614 
Q 2318 2648 2237 2671 
Q 2157 2695 2057 2695 
Q 1764 2695 1560 2495 
Q 1357 2295 1355 1975 
L 1355 0 
L 386 0 
z
" id="Inter-Bold-72" transform="scale(0.015625)"/>
     </defs>
     <use xlink:href="#Inter-Bold-43"/>
     <use x="75.213089" xlink:href="#Inter-Bold-4f"/>
     <use x="153.409134" xlink:href="#Inter-Bold-56"/>
     <use x="228.196075" xlink:href="#Inter-Bold-49"/>
     <use x="256.250061" xlink:href="#Inter-Bold-44"/>
     <use x="328.977356" xlink:href="#Inter-Bold-2d"/>
     <use x="375.852371" xlink:href="#Inter-Bold-31"/>
     <use x="423.260056" xlink:href="#Inter-Bold-39"/>
     <use x="489.275696" xlink:href="#Inter-Bold-20"/>
     <use x="512.464615" xlink:href="#Inter-Bold-63"/>
     <use x="571.200424" xlink:href="#Inter-Bold-61"/>
     <use x="629.225998" xlink:href="#Inter-Bold-73"/>
     <use x="685.404984" xlink:href="#Inter-Bold-65"/>
     <use x="745.170624" xlink:href="#Inter-Bold-73"/>
     <use x="801.349609" xlink:href="#Inter-Bold-20"/>
     <use x="824.538528" xlink:href="#Inter-Bold-69"/>
     <use x="851.740234" xlink:href="#Inter-Bold-6e"/>
     <use x="913.920639" xlink:href="#Inter-Bold-20"/>
     <use x="937.109558" xlink:href="#Inter-Bold-55"/>
     <use x="1010.049911" xlink:href="#Inter-Bold-4b"/>
     <use x="1079.013" xlink:href="#Inter-Bold-20"/>
     <use x="1102.20192" xlink:href="#Inter-Bold-4e"/>
     <use x="1175.710464" xlink:href="#Inter-Bold-61"/>
     <use x="1233.736038" xlink:href="#Inter-Bold-74"/>
     <use x="1272.58548" xlink:href="#Inter-Bold-69"/>
     <use x="1299.787186" xlink:href="#Inter-Bold-6f"/>
     <use x="1361.150833" xlink:href="#Inter-Bold-6e"/>
     <use x="1423.331238" xlink:href="#Inter-Bold-73"/>
     <use x="1479.510223" xlink:href="#Inter-Bold-2c"/>
     <use x="1509.801422" xlink:href="#Inter-Bold-20"/>
     <use x="1532.990341" xlink:href="#Inter-Bold-70"/>
     <use x="1596.236099" xlink:href="#Inter-Bold-65"/>
     <use x="1656.00174" xlink:href="#Inter-Bold-72"/>
     <use x="1698.863968" xlink:href="#Inter-Bold-20"/>
     <use x="1722.052887" xlink:href="#Inter-Bold-63"/>
     <use x="1780.788696" xlink:href="#Inter-Bold-61"/>
     <use x="1838.81427" xlink:href="#Inter-Bold-70"/>
     <use x="1902.060028" xlink:href="#Inter-Bold-69"/>
     <use x="1929.261734" xlink:href="#Inter-Bold-74"/>
     <use x="1968.111176" xlink:href="#Inter-Bold-61"/>
    </g>
   </g>
   <g id="legend_1">
    <g id="patch_4">
     <path d="M 621.4875 98.614062 
L 731.060937 98.614062 
Q 733.060937 98.614062 733.060937 96.614062 
L 733.060937 40.225 
Q 733.060937 38.225 731.060937 38.225 
L 621.4875 38.225 
Q 619.4875 38.225 619.4875 40.225 
L 619.4875 96.614062 
Q 619.4875 98.614062 621.4875 98.614062 
z
" style="fill:#ffffff;opacity:0.8;stroke:#cccccc;stroke-linejoin:miter;"/>
    </g>
    <g id="line2d_35">
     <path d="M 623.4875 45.998437 
L 643.4875 45.998437 
" style="fill:none;stroke:#d4351c;stroke-linecap:square;stroke-width:2;"/>
    </g>
    <g id="line2d_36"/>
    <g id="text_18">
     <!-- Wales -->
     <g transform="translate(651.4875 49.498437)scale(0.1 -0.1)">
      <defs>
       <path d="M 1409 0 
L 136 4655 
L 709 4655 
L 1682 864 
L 1727 864 
L 2718 4655 
L 3355 4655 
L 4346 864 
L 4391 864 
L 5364 4655 
L 5936 4655 
L 4664 0 
L 4082 0 
L 3055 3709 
L 3018 3709 
L 1991 0 
L 1409 0 
z
" id="Inter-Regular-57" transform="scale(0.015625)"/>
      </defs>
      <use xlink:href="#Inter-Regular-57"/>
      <use x="94.886383" xlink:href="#Inter-Regular-61"/>
      <use x="151.278442" xlink:href="#Inter-Regular-6c"/>
      <use x="175.000031" xlink:href="#Inter-Regular-65"/>
      <use x="233.238678" xlink:href="#Inter-Regular-73"/>
     </g>
    </g>
    <g id="line2d_37">
     <path d="M 623.4875 60.317187 
L 643.4875 60.317187 
" style="fill:none;stroke:#003078;stroke-linecap:square;stroke-width:2;"/>
    </g>
    <g id="line2d_38"/>
    <g id="text_19">
     <!-- Scotland -->
     <g transform="translate(651.4875 63.817187)scale(0.1 -0.1)">
      <use xlink:href="#Inter-Regular-53"/>
      <use x="63.778427" xlink:href="#Inter-Regular-63"/>
      <use x="119.602295" xlink:href="#Inter-Regular-6f"/>
      <use x="179.261398" xlink:href="#Inter-Regular-74"/>
      <use x="215.625046" xlink:href="#Inter-Regular-6c"/>
      <use x="239.346634" xlink:href="#Inter-Regular-61"/>
      <use x="295.738693" xlink:href="#Inter-Regular-6e"/>
      <use x="354.261429" xlink:href="#Inter-Regular-64"/>
     </g>
    </g>
    <g id="line2d_39">
     <path d="M 623.4875 74.635937 
L 643.4875 74.635937 
" style="fill:none;stroke:#ffdd00;stroke-linecap:square;stroke-width:2;"/>
    </g>
    <g id="line2d_40"/>
    <g id="text_20">
     <!-- Northern Ireland -->
     <g transform="translate(651.4875 78.135937)scale(0.1 -0.1)">
      <defs>
       <path d="M 1027 2100 
L 1027 0 
L 491 0 
L 491 4655 
L 1027 4655 
L 1027 2945 
L 1073 2945 
Q 1196 3216 1442 3376 
Q 1689 3536 2100 3536 
Q 2636 3536 2963 3213 
Q 3291 2891 3291 2218 
L 3291 0 
L 2755 0 
L 2755 2182 
Q 2755 2598 2540 2826 
Q 2325 3055 1946 3055 
Q 1548 3055 1287 2806 
Q 1027 2557 1027 2100 
z
" id="Inter-Regular-68" transform="scale(0.015625)"/>
       <path d="M 1127 4655 
L 1127 0 
L 564 0 
L 564 4655 
L 1127 4655 
z
" id="Inter-Regular-49" transform="scale(0.015625)"/>
      </defs>
      <use xlink:href="#Inter-Regular-4e"/>
      <use x="75.284103" xlink:href="#Inter-Regular-6f"/>
      <use x="134.943207" xlink:href="#Inter-Regular-72"/>
      <use x="173.295486" xlink:href="#Inter-Regular-74"/>
      <use x="209.659134" xlink:href="#Inter-Regular-68"/>
      <use x="268.750061" xlink:href="#Inter-Regular-65"/>
      <use x="326.988708" xlink:href="#Inter-Regular-72"/>
      <use x="365.340988" xlink:href="#Inter-Regular-6e"/>
      <use x="423.863724" xlink:href="#Inter-Regular-20"/>
      <use x="451.988724" xlink:href="#Inter-Regular-49"/>
      <use x="478.40918" xlink:href="#Inter-Regular-72"/>
      <use x="516.761459" xlink:href="#Inter-Regular-65"/>
      <use x="575.000107" xlink:href="#Inter-Regular-6c"/>
      <use x="598.721695" xlink:href="#Inter-Regular-61"/>
      <use x="655.113754" xlink:href="#Inter-Regular-6e"/>
      <use x="713.63649" xlink:href="#Inter-Regular-64"/>
     </g>
    </g>
    <g id="line2d_41">
     <path d="M 623.4875 88.954687 
L 643.4875 88.954687 
" style="fill:none;stroke:#5694ca;stroke-linecap:square;stroke-width:2;"/>
    </g>
    <g id="line2d_42"/>
    <g id="text_21">
     <!-- England -->
     <g transform="translate(651.4875 92.454687)scale(0.1 -0.1)">
      <defs>
       <path d="M 564 0 
L 564 4655 
L 3373 4655 
L 3373 4155 
L 1127 4155 
L 1127 2582 
L 3227 2582 
L 3227 2082 
L 1127 2082 
L 1127 500 
L 3409 500 
L 3409 0 
L 564 0 
z
" id="Inter-Regular-45" transform="scale(0.015625)"/>
       <path d="M 1900 -1382 
Q 1316 -1382 976 -1169 
Q 636 -957 473 -682 
L 900 -382 
Q 973 -477 1084 -601 
Q 1196 -725 1390 -817 
Q 1584 -909 1900 -909 
Q 2323 -909 2598 -704 
Q 2873 -500 2873 -64 
L 2873 645 
L 2827 645 
Q 2768 550 2660 410 
Q 2552 270 2351 162 
Q 2150 55 1809 55 
Q 1386 55 1051 255 
Q 716 455 521 836 
Q 327 1218 327 1764 
Q 327 2300 516 2699 
Q 705 3098 1041 3317 
Q 1377 3536 1818 3536 
Q 2159 3536 2360 3423 
Q 2561 3311 2669 3169 
Q 2777 3027 2836 2936 
L 2891 2936 
L 2891 3491 
L 3409 3491 
L 3409 -100 
Q 3409 -550 3205 -833 
Q 3002 -1116 2660 -1249 
Q 2318 -1382 1900 -1382 
z
M 1882 536 
Q 2366 536 2624 864 
Q 2882 1193 2882 1773 
Q 2882 2339 2627 2697 
Q 2373 3055 1882 3055 
Q 1541 3055 1315 2882 
Q 1089 2709 976 2418 
Q 864 2127 864 1773 
Q 864 1227 1120 881 
Q 1377 536 1882 536 
z
" id="Inter-Regular-67" transform="scale(0.015625)"/>
      </defs>
      <use xlink:href="#Inter-Regular-45"/>
      <use x="59.801147" xlink:href="#Inter-Regular-6e"/>
      <use x="118.323883" xlink:href="#Inter-Regular-67"/>
      <use x="179.261398" xlink:href="#Inter-Regular-6c"/>
      <use x="202.982986" xlink:href="#Inter-Regular-61"/>
      <use x="259.375046" xlink:href="#Inter-Regular-6e"/>
      <use x="317.897781" xlink:href="#Inter-Regular-64"/>
     </g>
    </g>
   </g>
  </g>
 </g>
 <defs>
  <clipPath id="p5cddb6b79b">
   <rect height="443.52" width="669.6" x="68.460938" y="33.225"/>
  </clipPath>
 </defs>
</svg>
