<?xml version="1.0" encoding="utf-8" standalone="no"?>
<!DOCTYPE svg PUBLIC "-//W3C//DTD SVG 1.1//EN"
  "http://www.w3.org/Graphics/SVG/1.1/DTD/svg11.dtd">
<svg xmlns:xlink="http://www.w3.org/1999/xlink" viewBox="0 0 755.9625 511.234062" xmlns="http://www.w3.org/2000/svg" version="1.1">
 <metadata>
  <rdf:RDF xmlns:dc="http://purl.org/dc/elements/1.1/" xmlns:cc="http://creativecommons.org/ns#" xmlns:rdf="http://www.w3.org/1999/02/22-rdf-syntax-ns#">
   <cc:Work>
    <dc:type rdf:resource="http://purl.org/dc/dcmitype/StillImage"/>
    <dc:date>2022-01-26T17:16:52.639688</dc:date>
    <dc:format>image/svg+xml</dc:format>
    <dc:creator>
     <cc:Agent>
      <dc:title>Matplotlib v3.5.1, https://matplotlib.org/</dc:title>
     </cc:Agent>
    </dc:creator>
   </cc:Work>
  </rdf:RDF>
 </metadata>
 <defs>
  <style type="text/css">*{stroke-linejoin: round; stroke-linecap: butt}</style>
 </defs>
 <g id="figure_1">
  <g id="patch_1">
   <path d="M 0 511.234062 
L 755.9625 511.234062 
L 755.9625 0 
L 0 0 
z
" style="fill: #ffffff"/>
  </g>
  <g id="axes_1">
   <g id="patch_2">
    <path d="M 68.3625 476.745 
L 737.9625 476.745 
L 737.9625 33.225 
L 68.3625 33.225 
z
" style="fill: #ffffff"/>
   </g>
   <g id="matplotlib.axis_1">
    <g id="xtick_1">
     <g id="line2d_1">
      <defs>
       <path id="m2acfef3120" d="M 0 0 
L 0 3.5 
" style="stroke: #000000; stroke-width: 0.8"/>
      </defs>
      <g>
       <use xlink:href="#m2acfef3120" x="68.3625" y="476.745" style="stroke: #000000; stroke-width: 0.8"/>
      </g>
     </g>
     <g id="text_1">
      <!-- 01 Mar -->
      <g transform="translate(52.325781 491.018437)scale(0.1 -0.1)">
       <defs>
        <path id="Inter-Regular-30" d="M 2000 -64 
Q 1230 -64 806 561 
Q 382 1186 382 2327 
Q 382 3459 809 4088 
Q 1236 4718 2000 4718 
Q 2764 4718 3191 4088 
Q 3618 3459 3618 2327 
Q 3618 1186 3194 561 
Q 2771 -64 2000 -64 
z
M 2000 436 
Q 2509 436 2791 927 
Q 3073 1418 3073 2327 
Q 3073 3234 2789 3730 
Q 2505 4227 2000 4227 
Q 1496 4227 1211 3730 
Q 927 3234 927 2327 
Q 927 1418 1210 927 
Q 1493 436 2000 436 
z
" transform="scale(0.015625)"/>
        <path id="Inter-Regular-31" d="M 1973 4655 
L 1973 0 
L 1409 0 
L 1409 3836 
L 1373 3836 
Q 1341 3773 1209 3692 
Q 1077 3611 868 3551 
Q 659 3491 391 3491 
L 391 3964 
Q 661 3964 859 4061 
Q 1057 4159 1190 4291 
Q 1323 4423 1392 4529 
Q 1461 4636 1473 4655 
L 1973 4655 
z
" transform="scale(0.015625)"/>
        <path id="Inter-Regular-20" transform="scale(0.015625)"/>
        <path id="Inter-Regular-4d" d="M 564 4655 
L 1236 4655 
L 2818 791 
L 2873 791 
L 4455 4655 
L 5127 4655 
L 5127 0 
L 4600 0 
L 4600 3536 
L 4555 3536 
L 3100 0 
L 2591 0 
L 1136 3536 
L 1091 3536 
L 1091 0 
L 564 0 
L 564 4655 
z
" transform="scale(0.015625)"/>
        <path id="Inter-Regular-61" d="M 1518 -82 
Q 1186 -82 916 44 
Q 646 170 486 410 
Q 327 650 327 991 
Q 327 1291 445 1478 
Q 564 1666 761 1773 
Q 959 1880 1199 1933 
Q 1439 1986 1682 2018 
Q 2000 2059 2199 2080 
Q 2398 2102 2490 2154 
Q 2582 2207 2582 2336 
L 2582 2355 
Q 2582 2691 2399 2877 
Q 2216 3064 1846 3064 
Q 1461 3064 1243 2895 
Q 1025 2727 936 2536 
L 427 2718 
Q 564 3036 792 3214 
Q 1021 3393 1292 3464 
Q 1564 3536 1827 3536 
Q 1996 3536 2215 3496 
Q 2434 3457 2640 3334 
Q 2846 3211 2982 2963 
Q 3118 2716 3118 2300 
L 3118 0 
L 2582 0 
L 2582 473 
L 2555 473 
Q 2500 359 2373 229 
Q 2246 100 2034 9 
Q 1823 -82 1518 -82 
z
M 1600 400 
Q 1918 400 2137 525 
Q 2357 650 2469 847 
Q 2582 1045 2582 1264 
L 2582 1755 
Q 2548 1714 2433 1681 
Q 2318 1648 2169 1624 
Q 2021 1600 1881 1583 
Q 1741 1566 1655 1555 
Q 1446 1527 1265 1467 
Q 1084 1407 974 1287 
Q 864 1168 864 964 
Q 864 684 1072 542 
Q 1280 400 1600 400 
z
" transform="scale(0.015625)"/>
        <path id="Inter-Regular-72" d="M 491 0 
L 491 3491 
L 1009 3491 
L 1009 2964 
L 1046 2964 
Q 1139 3223 1389 3384 
Q 1639 3545 1955 3545 
Q 2100 3545 2209 3511 
Q 2318 3477 2400 3418 
L 2218 2964 
Q 2161 2993 2085 3010 
Q 2009 3027 1909 3027 
Q 1527 3027 1277 2794 
Q 1027 2561 1027 2209 
L 1027 0 
L 491 0 
z
" transform="scale(0.015625)"/>
       </defs>
       <use xlink:href="#Inter-Regular-30"/>
       <use xlink:href="#Inter-Regular-31" x="62.500015"/>
       <use xlink:href="#Inter-Regular-20" x="106.676163"/>
       <use xlink:href="#Inter-Regular-4d" x="134.801163"/>
       <use xlink:href="#Inter-Regular-61" x="225.99437"/>
       <use xlink:href="#Inter-Regular-72" x="282.386429"/>
      </g>
     </g>
    </g>
    <g id="xtick_2">
     <g id="line2d_2">
      <g>
       <use xlink:href="#m2acfef3120" x="98.155871" y="476.745" style="stroke: #000000; stroke-width: 0.8"/>
      </g>
     </g>
    </g>
    <g id="xtick_3">
     <g id="line2d_3">
      <g>
       <use xlink:href="#m2acfef3120" x="126.988166" y="476.745" style="stroke: #000000; stroke-width: 0.8"/>
      </g>
     </g>
     <g id="text_2">
      <!-- 01 May -->
      <g transform="translate(110.085041 491.116875)scale(0.1 -0.1)">
       <defs>
        <path id="Inter-Regular-79" d="M 818 -1355 
Q 682 -1355 575 -1333 
Q 468 -1311 427 -1291 
L 564 -818 
Q 857 -893 1053 -814 
Q 1250 -736 1391 -345 
L 1509 -18 
L 218 3491 
L 800 3491 
L 1764 709 
L 1800 709 
L 2764 3491 
L 3346 3491 
L 1846 -564 
Q 1550 -1355 818 -1355 
z
" transform="scale(0.015625)"/>
       </defs>
       <use xlink:href="#Inter-Regular-30"/>
       <use xlink:href="#Inter-Regular-31" x="62.500015"/>
       <use xlink:href="#Inter-Regular-20" x="106.676163"/>
       <use xlink:href="#Inter-Regular-4d" x="134.801163"/>
       <use xlink:href="#Inter-Regular-61" x="225.99437"/>
       <use xlink:href="#Inter-Regular-79" x="282.386429"/>
      </g>
     </g>
    </g>
    <g id="xtick_4">
     <g id="line2d_4">
      <g>
       <use xlink:href="#m2acfef3120" x="156.781538" y="476.745" style="stroke: #000000; stroke-width: 0.8"/>
      </g>
     </g>
    </g>
    <g id="xtick_5">
     <g id="line2d_5">
      <g>
       <use xlink:href="#m2acfef3120" x="185.613833" y="476.745" style="stroke: #000000; stroke-width: 0.8"/>
      </g>
     </g>
     <g id="text_3">
      <!-- 01 Jul -->
      <g transform="translate(172.070083 491.018437)scale(0.1 -0.1)">
       <defs>
        <path id="Inter-Regular-4a" d="M 2346 4655 
L 2909 4655 
L 2909 1327 
Q 2909 657 2549 296 
Q 2189 -64 1582 -64 
Q 1200 -64 902 76 
Q 605 216 434 475 
Q 264 734 264 1091 
L 818 1091 
Q 818 795 1034 615 
Q 1250 436 1582 436 
Q 1948 436 2147 664 
Q 2346 893 2346 1327 
L 2346 4655 
z
" transform="scale(0.015625)"/>
        <path id="Inter-Regular-75" d="M 2691 1427 
L 2691 3491 
L 3227 3491 
L 3227 0 
L 2691 0 
L 2691 591 
L 2655 591 
Q 2532 325 2273 140 
Q 2014 -45 1618 -45 
Q 1127 -45 809 280 
Q 491 605 491 1273 
L 491 3491 
L 1027 3491 
L 1027 1309 
Q 1027 927 1242 700 
Q 1457 473 1791 473 
Q 1991 473 2199 575 
Q 2407 677 2549 888 
Q 2691 1100 2691 1427 
z
" transform="scale(0.015625)"/>
        <path id="Inter-Regular-6c" d="M 1027 4655 
L 1027 0 
L 491 0 
L 491 4655 
L 1027 4655 
z
" transform="scale(0.015625)"/>
       </defs>
       <use xlink:href="#Inter-Regular-30"/>
       <use xlink:href="#Inter-Regular-31" x="62.500015"/>
       <use xlink:href="#Inter-Regular-20" x="106.676163"/>
       <use xlink:href="#Inter-Regular-4a" x="134.801163"/>
       <use xlink:href="#Inter-Regular-75" x="189.062531"/>
       <use xlink:href="#Inter-Regular-6c" x="247.159134"/>
      </g>
     </g>
    </g>
    <g id="xtick_6">
     <g id="line2d_6">
      <g>
       <use xlink:href="#m2acfef3120" x="215.407204" y="476.745" style="stroke: #000000; stroke-width: 0.8"/>
      </g>
     </g>
    </g>
    <g id="xtick_7">
     <g id="line2d_7">
      <g>
       <use xlink:href="#m2acfef3120" x="245.200575" y="476.745" style="stroke: #000000; stroke-width: 0.8"/>
      </g>
     </g>
     <g id="text_4">
      <!-- 01 Sep -->
      <g transform="translate(229.313075 491.116875)scale(0.1 -0.1)">
       <defs>
        <path id="Inter-Regular-53" d="M 3109 3491 
Q 3068 3836 2777 4027 
Q 2486 4218 2064 4218 
Q 1600 4218 1318 3999 
Q 1036 3780 1036 3445 
Q 1036 3195 1189 3042 
Q 1343 2889 1553 2803 
Q 1764 2718 1936 2673 
L 2409 2545 
Q 2591 2498 2815 2414 
Q 3039 2330 3244 2185 
Q 3450 2041 3584 1816 
Q 3718 1591 3718 1264 
Q 3718 886 3521 581 
Q 3325 277 2949 97 
Q 2573 -82 2036 -82 
Q 1286 -82 845 272 
Q 405 627 364 1200 
L 946 1200 
Q 968 936 1124 764 
Q 1280 593 1519 510 
Q 1759 427 2036 427 
Q 2359 427 2616 533 
Q 2873 639 3023 828 
Q 3173 1018 3173 1273 
Q 3173 1505 3043 1650 
Q 2914 1795 2702 1886 
Q 2491 1977 2246 2045 
L 1673 2209 
Q 1127 2366 809 2657 
Q 491 2948 491 3418 
Q 491 3809 703 4101 
Q 916 4393 1276 4555 
Q 1636 4718 2082 4718 
Q 2532 4718 2882 4558 
Q 3232 4398 3437 4120 
Q 3643 3843 3655 3491 
L 3109 3491 
z
" transform="scale(0.015625)"/>
        <path id="Inter-Regular-65" d="M 1955 -73 
Q 1450 -73 1085 151 
Q 721 375 524 778 
Q 327 1182 327 1718 
Q 327 2255 524 2665 
Q 721 3075 1074 3305 
Q 1427 3536 1900 3536 
Q 2173 3536 2439 3445 
Q 2705 3355 2923 3151 
Q 3141 2948 3270 2614 
Q 3400 2280 3400 1791 
L 3400 1564 
L 866 1564 
Q 884 1005 1183 707 
Q 1482 409 1955 409 
Q 2271 409 2498 545 
Q 2725 682 2827 955 
L 3346 809 
Q 3223 414 2854 170 
Q 2486 -73 1955 -73 
z
M 866 2027 
L 2855 2027 
Q 2855 2470 2595 2762 
Q 2336 3055 1900 3055 
Q 1593 3055 1368 2911 
Q 1143 2768 1013 2533 
Q 884 2298 866 2027 
z
" transform="scale(0.015625)"/>
        <path id="Inter-Regular-70" d="M 491 -1309 
L 491 3491 
L 1009 3491 
L 1009 2936 
L 1073 2936 
Q 1132 3027 1237 3169 
Q 1343 3311 1542 3423 
Q 1741 3536 2082 3536 
Q 2523 3536 2859 3315 
Q 3196 3095 3384 2690 
Q 3573 2286 3573 1736 
Q 3573 1182 3384 776 
Q 3196 370 2861 148 
Q 2527 -73 2091 -73 
Q 1755 -73 1552 39 
Q 1350 152 1241 296 
Q 1132 441 1073 536 
L 1027 536 
L 1027 -1309 
L 491 -1309 
z
M 1018 1745 
Q 1018 1152 1276 780 
Q 1534 409 2018 409 
Q 2355 409 2581 587 
Q 2807 766 2921 1069 
Q 3036 1373 3036 1745 
Q 3036 2114 2923 2410 
Q 2811 2707 2585 2881 
Q 2359 3055 2018 3055 
Q 1527 3055 1272 2693 
Q 1018 2332 1018 1745 
z
" transform="scale(0.015625)"/>
       </defs>
       <use xlink:href="#Inter-Regular-30"/>
       <use xlink:href="#Inter-Regular-31" x="62.500015"/>
       <use xlink:href="#Inter-Regular-20" x="106.676163"/>
       <use xlink:href="#Inter-Regular-53" x="134.801163"/>
       <use xlink:href="#Inter-Regular-65" x="198.57959"/>
       <use xlink:href="#Inter-Regular-70" x="256.818237"/>
      </g>
     </g>
    </g>
    <g id="xtick_8">
     <g id="line2d_8">
      <g>
       <use xlink:href="#m2acfef3120" x="274.03287" y="476.745" style="stroke: #000000; stroke-width: 0.8"/>
      </g>
     </g>
    </g>
    <g id="xtick_9">
     <g id="line2d_9">
      <g>
       <use xlink:href="#m2acfef3120" x="303.826242" y="476.745" style="stroke: #000000; stroke-width: 0.8"/>
      </g>
     </g>
     <g id="text_5">
      <!-- 01 Nov -->
      <g transform="translate(287.555148 491.018437)scale(0.1 -0.1)">
       <defs>
        <path id="Inter-Regular-4e" d="M 4255 4655 
L 4255 0 
L 3709 0 
L 1173 3655 
L 1127 3655 
L 1127 0 
L 564 0 
L 564 4655 
L 1109 4655 
L 3655 991 
L 3700 991 
L 3700 4655 
L 4255 4655 
z
" transform="scale(0.015625)"/>
        <path id="Inter-Regular-6f" d="M 1909 -73 
Q 1436 -73 1080 152 
Q 725 377 526 781 
Q 327 1186 327 1727 
Q 327 2273 526 2679 
Q 725 3086 1080 3311 
Q 1436 3536 1909 3536 
Q 2382 3536 2737 3311 
Q 3093 3086 3292 2679 
Q 3491 2273 3491 1727 
Q 3491 1186 3292 781 
Q 3093 377 2737 152 
Q 2382 -73 1909 -73 
z
M 1909 409 
Q 2268 409 2500 593 
Q 2732 777 2843 1077 
Q 2955 1377 2955 1727 
Q 2955 2077 2843 2379 
Q 2732 2682 2500 2868 
Q 2268 3055 1909 3055 
Q 1550 3055 1318 2868 
Q 1086 2682 975 2379 
Q 864 2077 864 1727 
Q 864 1377 975 1077 
Q 1086 777 1318 593 
Q 1550 409 1909 409 
z
" transform="scale(0.015625)"/>
        <path id="Inter-Regular-76" d="M 3346 3491 
L 2055 0 
L 1509 0 
L 218 3491 
L 800 3491 
L 1764 709 
L 1800 709 
L 2764 3491 
L 3346 3491 
z
" transform="scale(0.015625)"/>
       </defs>
       <use xlink:href="#Inter-Regular-30"/>
       <use xlink:href="#Inter-Regular-31" x="62.500015"/>
       <use xlink:href="#Inter-Regular-20" x="106.676163"/>
       <use xlink:href="#Inter-Regular-4e" x="134.801163"/>
       <use xlink:href="#Inter-Regular-6f" x="210.085266"/>
       <use xlink:href="#Inter-Regular-76" x="269.74437"/>
      </g>
     </g>
    </g>
    <g id="xtick_10">
     <g id="line2d_10">
      <g>
       <use xlink:href="#m2acfef3120" x="332.658537" y="476.745" style="stroke: #000000; stroke-width: 0.8"/>
      </g>
     </g>
    </g>
    <g id="xtick_11">
     <g id="line2d_11">
      <g>
       <use xlink:href="#m2acfef3120" x="362.451908" y="476.745" style="stroke: #000000; stroke-width: 0.8"/>
      </g>
     </g>
     <g id="text_6">
      <!-- 01 Jan -->
      <g transform="translate(347.252689 491.018437)scale(0.1 -0.1)">
       <defs>
        <path id="Inter-Regular-6e" d="M 1027 2100 
L 1027 0 
L 491 0 
L 491 3491 
L 1009 3491 
L 1009 2945 
L 1055 2945 
Q 1177 3211 1427 3373 
Q 1677 3536 2073 3536 
Q 2602 3536 2928 3211 
Q 3255 2886 3255 2218 
L 3255 0 
L 2718 0 
L 2718 2182 
Q 2718 2593 2504 2824 
Q 2291 3055 1918 3055 
Q 1534 3055 1280 2806 
Q 1027 2557 1027 2100 
z
" transform="scale(0.015625)"/>
       </defs>
       <use xlink:href="#Inter-Regular-30"/>
       <use xlink:href="#Inter-Regular-31" x="62.500015"/>
       <use xlink:href="#Inter-Regular-20" x="106.676163"/>
       <use xlink:href="#Inter-Regular-4a" x="134.801163"/>
       <use xlink:href="#Inter-Regular-61" x="189.062531"/>
       <use xlink:href="#Inter-Regular-6e" x="245.45459"/>
      </g>
     </g>
    </g>
    <g id="xtick_12">
     <g id="line2d_12">
      <g>
       <use xlink:href="#m2acfef3120" x="392.24528" y="476.745" style="stroke: #000000; stroke-width: 0.8"/>
      </g>
     </g>
    </g>
    <g id="xtick_13">
     <g id="line2d_13">
      <g>
       <use xlink:href="#m2acfef3120" x="419.155421" y="476.745" style="stroke: #000000; stroke-width: 0.8"/>
      </g>
     </g>
     <g id="text_7">
      <!-- 01 Mar -->
      <g transform="translate(403.118703 491.018437)scale(0.1 -0.1)">
       <use xlink:href="#Inter-Regular-30"/>
       <use xlink:href="#Inter-Regular-31" x="62.500015"/>
       <use xlink:href="#Inter-Regular-20" x="106.676163"/>
       <use xlink:href="#Inter-Regular-4d" x="134.801163"/>
       <use xlink:href="#Inter-Regular-61" x="225.99437"/>
       <use xlink:href="#Inter-Regular-72" x="282.386429"/>
      </g>
     </g>
    </g>
    <g id="xtick_14">
     <g id="line2d_14">
      <g>
       <use xlink:href="#m2acfef3120" x="448.948793" y="476.745" style="stroke: #000000; stroke-width: 0.8"/>
      </g>
     </g>
    </g>
    <g id="xtick_15">
     <g id="line2d_15">
      <g>
       <use xlink:href="#m2acfef3120" x="477.781088" y="476.745" style="stroke: #000000; stroke-width: 0.8"/>
      </g>
     </g>
     <g id="text_8">
      <!-- 01 May -->
      <g transform="translate(460.877963 491.116875)scale(0.1 -0.1)">
       <use xlink:href="#Inter-Regular-30"/>
       <use xlink:href="#Inter-Regular-31" x="62.500015"/>
       <use xlink:href="#Inter-Regular-20" x="106.676163"/>
       <use xlink:href="#Inter-Regular-4d" x="134.801163"/>
       <use xlink:href="#Inter-Regular-61" x="225.99437"/>
       <use xlink:href="#Inter-Regular-79" x="282.386429"/>
      </g>
     </g>
    </g>
    <g id="xtick_16">
     <g id="line2d_16">
      <g>
       <use xlink:href="#m2acfef3120" x="507.574459" y="476.745" style="stroke: #000000; stroke-width: 0.8"/>
      </g>
     </g>
    </g>
    <g id="xtick_17">
     <g id="line2d_17">
      <g>
       <use xlink:href="#m2acfef3120" x="536.406754" y="476.745" style="stroke: #000000; stroke-width: 0.8"/>
      </g>
     </g>
     <g id="text_9">
      <!-- 01 Jul -->
      <g transform="translate(522.863004 491.018437)scale(0.1 -0.1)">
       <use xlink:href="#Inter-Regular-30"/>
       <use xlink:href="#Inter-Regular-31" x="62.500015"/>
       <use xlink:href="#Inter-Regular-20" x="106.676163"/>
       <use xlink:href="#Inter-Regular-4a" x="134.801163"/>
       <use xlink:href="#Inter-Regular-75" x="189.062531"/>
       <use xlink:href="#Inter-Regular-6c" x="247.159134"/>
      </g>
     </g>
    </g>
    <g id="xtick_18">
     <g id="line2d_18">
      <g>
       <use xlink:href="#m2acfef3120" x="566.200126" y="476.745" style="stroke: #000000; stroke-width: 0.8"/>
      </g>
     </g>
    </g>
    <g id="xtick_19">
     <g id="line2d_19">
      <g>
       <use xlink:href="#m2acfef3120" x="595.993497" y="476.745" style="stroke: #000000; stroke-width: 0.8"/>
      </g>
     </g>
     <g id="text_10">
      <!-- 01 Sep -->
      <g transform="translate(580.105997 491.116875)scale(0.1 -0.1)">
       <use xlink:href="#Inter-Regular-30"/>
       <use xlink:href="#Inter-Regular-31" x="62.500015"/>
       <use xlink:href="#Inter-Regular-20" x="106.676163"/>
       <use xlink:href="#Inter-Regular-53" x="134.801163"/>
       <use xlink:href="#Inter-Regular-65" x="198.57959"/>
       <use xlink:href="#Inter-Regular-70" x="256.818237"/>
      </g>
     </g>
    </g>
    <g id="xtick_20">
     <g id="line2d_20">
      <g>
       <use xlink:href="#m2acfef3120" x="624.825792" y="476.745" style="stroke: #000000; stroke-width: 0.8"/>
      </g>
     </g>
    </g>
    <g id="xtick_21">
     <g id="line2d_21">
      <g>
       <use xlink:href="#m2acfef3120" x="654.619163" y="476.745" style="stroke: #000000; stroke-width: 0.8"/>
      </g>
     </g>
     <g id="text_11">
      <!-- 01 Nov -->
      <g transform="translate(638.34807 491.018437)scale(0.1 -0.1)">
       <use xlink:href="#Inter-Regular-30"/>
       <use xlink:href="#Inter-Regular-31" x="62.500015"/>
       <use xlink:href="#Inter-Regular-20" x="106.676163"/>
       <use xlink:href="#Inter-Regular-4e" x="134.801163"/>
       <use xlink:href="#Inter-Regular-6f" x="210.085266"/>
       <use xlink:href="#Inter-Regular-76" x="269.74437"/>
      </g>
     </g>
    </g>
    <g id="xtick_22">
     <g id="line2d_22">
      <g>
       <use xlink:href="#m2acfef3120" x="683.451458" y="476.745" style="stroke: #000000; stroke-width: 0.8"/>
      </g>
     </g>
    </g>
    <g id="xtick_23">
     <g id="line2d_23">
      <g>
       <use xlink:href="#m2acfef3120" x="713.24483" y="476.745" style="stroke: #000000; stroke-width: 0.8"/>
      </g>
     </g>
     <g id="text_12">
      <!-- 01 Jan -->
      <g transform="translate(698.045611 491.018437)scale(0.1 -0.1)">
       <use xlink:href="#Inter-Regular-30"/>
       <use xlink:href="#Inter-Regular-31" x="62.500015"/>
       <use xlink:href="#Inter-Regular-20" x="106.676163"/>
       <use xlink:href="#Inter-Regular-4a" x="134.801163"/>
       <use xlink:href="#Inter-Regular-61" x="189.062531"/>
       <use xlink:href="#Inter-Regular-6e" x="245.45459"/>
      </g>
     </g>
    </g>
   </g>
   <g id="matplotlib.axis_2">
    <g id="ytick_1">
     <g id="line2d_24">
      <path d="M 68.3625 476.745 
L 737.9625 476.745 
" clip-path="url(#p2a03156011)" style="fill: none; stroke: #e5e5e5; stroke-width: 0.8; stroke-linecap: square"/>
     </g>
     <g id="line2d_25">
      <defs>
       <path id="m4c5c58a12a" d="M 0 0 
L -3.5 0 
" style="stroke: #000000; stroke-width: 0.8"/>
      </defs>
      <g>
       <use xlink:href="#m4c5c58a12a" x="68.3625" y="476.745" style="stroke: #000000; stroke-width: 0.8"/>
      </g>
     </g>
     <g id="text_13">
      <!-- 0.00% -->
      <g transform="translate(31.73125 480.381719)scale(0.1 -0.1)">
       <defs>
        <path id="Inter-Regular-2e" d="M 882 -36 
Q 714 -36 593 84 
Q 473 205 473 373 
Q 473 541 593 661 
Q 714 782 882 782 
Q 1050 782 1170 661 
Q 1291 541 1291 373 
Q 1291 205 1170 84 
Q 1050 -36 882 -36 
z
" transform="scale(0.015625)"/>
        <path id="Inter-Regular-25" d="M 2855 873 
L 2855 1118 
Q 2855 1373 2960 1585 
Q 3066 1798 3269 1926 
Q 3473 2055 3764 2055 
Q 4059 2055 4259 1926 
Q 4459 1798 4561 1585 
Q 4664 1373 4664 1118 
L 4664 873 
Q 4664 618 4560 405 
Q 4457 193 4256 64 
Q 4055 -64 3764 -64 
Q 3468 -64 3266 64 
Q 3064 193 2959 405 
Q 2855 618 2855 873 
z
M 536 3536 
L 536 3782 
Q 536 4036 642 4248 
Q 748 4461 951 4589 
Q 1155 4718 1446 4718 
Q 1741 4718 1941 4589 
Q 2141 4461 2243 4248 
Q 2346 4036 2346 3782 
L 2346 3536 
Q 2346 3282 2242 3069 
Q 2139 2857 1937 2728 
Q 1736 2600 1446 2600 
Q 1150 2600 948 2728 
Q 746 2857 641 3069 
Q 536 3282 536 3536 
z
M 709 0 
L 3909 4655 
L 4427 4655 
L 1227 0 
L 709 0 
z
M 3318 1118 
L 3318 873 
Q 3318 661 3418 494 
Q 3518 327 3764 327 
Q 4002 327 4101 494 
Q 4200 661 4200 873 
L 4200 1118 
Q 4200 1330 4104 1497 
Q 4009 1664 3764 1664 
Q 3525 1664 3421 1497 
Q 3318 1330 3318 1118 
z
M 1000 3782 
L 1000 3536 
Q 1000 3325 1100 3158 
Q 1200 2991 1446 2991 
Q 1684 2991 1783 3158 
Q 1882 3325 1882 3536 
L 1882 3782 
Q 1882 3993 1786 4160 
Q 1691 4327 1446 4327 
Q 1207 4327 1103 4160 
Q 1000 3993 1000 3782 
z
" transform="scale(0.015625)"/>
       </defs>
       <use xlink:href="#Inter-Regular-30"/>
       <use xlink:href="#Inter-Regular-2e" x="62.500015"/>
       <use xlink:href="#Inter-Regular-30" x="90.056839"/>
       <use xlink:href="#Inter-Regular-30" x="152.556854"/>
       <use xlink:href="#Inter-Regular-25" x="215.05687"/>
      </g>
     </g>
    </g>
    <g id="ytick_2">
     <g id="line2d_26">
      <path d="M 68.3625 387.506012 
L 737.9625 387.506012 
" clip-path="url(#p2a03156011)" style="fill: none; stroke: #e5e5e5; stroke-width: 0.8; stroke-linecap: square"/>
     </g>
     <g id="line2d_27">
      <g>
       <use xlink:href="#m4c5c58a12a" x="68.3625" y="387.506012" style="stroke: #000000; stroke-width: 0.8"/>
      </g>
     </g>
     <g id="text_14">
      <!-- 0.05% -->
      <g transform="translate(31.901563 391.142731)scale(0.1 -0.1)">
       <defs>
        <path id="Inter-Regular-35" d="M 1936 -64 
Q 1536 -64 1216 95 
Q 896 255 702 532 
Q 509 809 491 1164 
L 1036 1164 
Q 1068 848 1324 642 
Q 1580 436 1936 436 
Q 2223 436 2447 570 
Q 2671 705 2799 940 
Q 2927 1175 2927 1473 
Q 2927 1777 2794 2017 
Q 2661 2257 2429 2395 
Q 2198 2534 1900 2536 
Q 1686 2539 1461 2472 
Q 1236 2405 1091 2300 
L 564 2364 
L 846 4655 
L 3264 4655 
L 3264 4155 
L 1318 4155 
L 1155 2782 
L 1182 2782 
Q 1325 2895 1541 2970 
Q 1757 3045 1991 3045 
Q 2418 3045 2753 2842 
Q 3089 2639 3281 2286 
Q 3473 1934 3473 1482 
Q 3473 1036 3274 687 
Q 3075 339 2727 137 
Q 2380 -64 1936 -64 
z
" transform="scale(0.015625)"/>
       </defs>
       <use xlink:href="#Inter-Regular-30"/>
       <use xlink:href="#Inter-Regular-2e" x="62.500015"/>
       <use xlink:href="#Inter-Regular-30" x="90.056839"/>
       <use xlink:href="#Inter-Regular-35" x="152.556854"/>
       <use xlink:href="#Inter-Regular-25" x="213.352325"/>
      </g>
     </g>
    </g>
    <g id="ytick_3">
     <g id="line2d_28">
      <path d="M 68.3625 298.267025 
L 737.9625 298.267025 
" clip-path="url(#p2a03156011)" style="fill: none; stroke: #e5e5e5; stroke-width: 0.8; stroke-linecap: square"/>
     </g>
     <g id="line2d_29">
      <g>
       <use xlink:href="#m4c5c58a12a" x="68.3625" y="298.267025" style="stroke: #000000; stroke-width: 0.8"/>
      </g>
     </g>
     <g id="text_15">
      <!-- 0.10% -->
      <g transform="translate(33.564063 301.903744)scale(0.1 -0.1)">
       <use xlink:href="#Inter-Regular-30"/>
       <use xlink:href="#Inter-Regular-2e" x="62.500015"/>
       <use xlink:href="#Inter-Regular-31" x="90.056839"/>
       <use xlink:href="#Inter-Regular-30" x="134.232986"/>
       <use xlink:href="#Inter-Regular-25" x="196.733002"/>
      </g>
     </g>
    </g>
    <g id="ytick_4">
     <g id="line2d_30">
      <path d="M 68.3625 209.028037 
L 737.9625 209.028037 
" clip-path="url(#p2a03156011)" style="fill: none; stroke: #e5e5e5; stroke-width: 0.8; stroke-linecap: square"/>
     </g>
     <g id="line2d_31">
      <g>
       <use xlink:href="#m4c5c58a12a" x="68.3625" y="209.028037" style="stroke: #000000; stroke-width: 0.8"/>
      </g>
     </g>
     <g id="text_16">
      <!-- 0.15% -->
      <g transform="translate(33.734375 212.664756)scale(0.1 -0.1)">
       <use xlink:href="#Inter-Regular-30"/>
       <use xlink:href="#Inter-Regular-2e" x="62.500015"/>
       <use xlink:href="#Inter-Regular-31" x="90.056839"/>
       <use xlink:href="#Inter-Regular-35" x="134.232986"/>
       <use xlink:href="#Inter-Regular-25" x="195.028458"/>
      </g>
     </g>
    </g>
    <g id="ytick_5">
     <g id="line2d_32">
      <path d="M 68.3625 119.78905 
L 737.9625 119.78905 
" clip-path="url(#p2a03156011)" style="fill: none; stroke: #e5e5e5; stroke-width: 0.8; stroke-linecap: square"/>
     </g>
     <g id="line2d_33">
      <g>
       <use xlink:href="#m4c5c58a12a" x="68.3625" y="119.78905" style="stroke: #000000; stroke-width: 0.8"/>
      </g>
     </g>
     <g id="text_17">
      <!-- 0.20% -->
      <g transform="translate(31.929688 123.425768)scale(0.1 -0.1)">
       <defs>
        <path id="Inter-Regular-32" d="M 482 0 
L 482 409 
L 2018 2091 
Q 2289 2386 2464 2605 
Q 2639 2825 2724 3019 
Q 2809 3214 2809 3427 
Q 2809 3795 2553 4011 
Q 2298 4227 1918 4227 
Q 1514 4227 1275 3985 
Q 1036 3743 1036 3345 
L 500 3345 
Q 500 3755 688 4064 
Q 877 4373 1203 4545 
Q 1530 4718 1936 4718 
Q 2346 4718 2661 4545 
Q 2977 4373 3156 4079 
Q 3336 3786 3336 3427 
Q 3336 3170 3244 2926 
Q 3152 2682 2926 2383 
Q 2700 2084 2300 1655 
L 1255 536 
L 1255 500 
L 3418 500 
L 3418 0 
L 482 0 
z
" transform="scale(0.015625)"/>
       </defs>
       <use xlink:href="#Inter-Regular-30"/>
       <use xlink:href="#Inter-Regular-2e" x="62.500015"/>
       <use xlink:href="#Inter-Regular-32" x="90.056839"/>
       <use xlink:href="#Inter-Regular-30" x="150.568222"/>
       <use xlink:href="#Inter-Regular-25" x="213.068237"/>
      </g>
     </g>
    </g>
    <g id="text_18">
     <!-- Percent of nation who have died within 28 days of a positive test -->
     <g transform="translate(25.614063 408.395937)rotate(-90)scale(0.1 -0.1)">
      <defs>
       <path id="Inter-Regular-50" d="M 564 0 
L 564 4655 
L 2136 4655 
Q 2684 4655 3033 4458 
Q 3382 4261 3550 3927 
Q 3718 3593 3718 3182 
Q 3718 2770 3551 2434 
Q 3384 2098 3036 1899 
Q 2689 1700 2146 1700 
L 1127 1700 
L 1127 0 
L 564 0 
z
M 1127 2200 
L 2127 2200 
Q 2689 2200 2926 2482 
Q 3164 2764 3164 3182 
Q 3164 3602 2925 3878 
Q 2686 4155 2118 4155 
L 1127 4155 
L 1127 2200 
z
" transform="scale(0.015625)"/>
       <path id="Inter-Regular-63" d="M 1909 -73 
Q 1418 -73 1063 159 
Q 709 391 518 798 
Q 327 1205 327 1727 
Q 327 2259 524 2667 
Q 721 3075 1074 3305 
Q 1427 3536 1900 3536 
Q 2268 3536 2563 3400 
Q 2859 3264 3047 3018 
Q 3236 2773 3282 2445 
L 2746 2445 
Q 2684 2684 2474 2869 
Q 2264 3055 1909 3055 
Q 1439 3055 1151 2697 
Q 864 2339 864 1745 
Q 864 1139 1148 774 
Q 1432 409 1909 409 
Q 2223 409 2447 570 
Q 2671 732 2746 1018 
L 3282 1018 
Q 3236 709 3058 462 
Q 2880 216 2588 71 
Q 2296 -73 1909 -73 
z
" transform="scale(0.015625)"/>
       <path id="Inter-Regular-74" d="M 2009 3491 
L 2009 3036 
L 1264 3036 
L 1264 1000 
Q 1264 773 1331 660 
Q 1398 548 1503 510 
Q 1609 473 1727 473 
Q 1816 473 1873 483 
Q 1930 493 1964 500 
L 2073 18 
Q 2018 -2 1920 -23 
Q 1823 -45 1673 -45 
Q 1446 -45 1228 52 
Q 1011 150 869 350 
Q 727 550 727 855 
L 727 3036 
L 200 3036 
L 200 3491 
L 727 3491 
L 727 4327 
L 1264 4327 
L 1264 3491 
L 2009 3491 
z
" transform="scale(0.015625)"/>
       <path id="Inter-Regular-66" d="M 2046 3491 
L 2046 3036 
L 1264 3036 
L 1264 0 
L 727 0 
L 727 3036 
L 164 3036 
L 164 3491 
L 727 3491 
L 727 3973 
Q 727 4273 868 4473 
Q 1009 4673 1234 4773 
Q 1459 4873 1709 4873 
Q 1907 4873 2032 4841 
Q 2157 4809 2218 4782 
L 2064 4318 
Q 2023 4332 1951 4352 
Q 1880 4373 1764 4373 
Q 1498 4373 1381 4239 
Q 1264 4105 1264 3845 
L 1264 3491 
L 2046 3491 
z
" transform="scale(0.015625)"/>
       <path id="Inter-Regular-69" d="M 491 0 
L 491 3491 
L 1027 3491 
L 1027 0 
L 491 0 
z
M 764 4073 
Q 607 4073 494 4179 
Q 382 4286 382 4436 
Q 382 4586 494 4693 
Q 607 4800 764 4800 
Q 921 4800 1033 4693 
Q 1146 4586 1146 4436 
Q 1146 4286 1033 4179 
Q 921 4073 764 4073 
z
" transform="scale(0.015625)"/>
       <path id="Inter-Regular-77" d="M 1282 0 
L 218 3491 
L 782 3491 
L 1536 818 
L 1573 818 
L 2318 3491 
L 2891 3491 
L 3627 827 
L 3664 827 
L 4418 3491 
L 4982 3491 
L 3918 0 
L 3391 0 
L 2627 2682 
L 2573 2682 
L 1809 0 
L 1282 0 
z
" transform="scale(0.015625)"/>
       <path id="Inter-Regular-68" d="M 1027 2100 
L 1027 0 
L 491 0 
L 491 4655 
L 1027 4655 
L 1027 2945 
L 1073 2945 
Q 1196 3216 1442 3376 
Q 1689 3536 2100 3536 
Q 2636 3536 2963 3213 
Q 3291 2891 3291 2218 
L 3291 0 
L 2755 0 
L 2755 2182 
Q 2755 2598 2540 2826 
Q 2325 3055 1946 3055 
Q 1548 3055 1287 2806 
Q 1027 2557 1027 2100 
z
" transform="scale(0.015625)"/>
       <path id="Inter-Regular-64" d="M 1809 -73 
Q 1373 -73 1039 148 
Q 705 370 516 776 
Q 327 1182 327 1736 
Q 327 2286 516 2690 
Q 705 3095 1041 3315 
Q 1377 3536 1818 3536 
Q 2159 3536 2358 3423 
Q 2557 3311 2662 3169 
Q 2768 3027 2827 2936 
L 2873 2936 
L 2873 4655 
L 3409 4655 
L 3409 0 
L 2891 0 
L 2891 536 
L 2827 536 
Q 2768 441 2659 296 
Q 2550 152 2348 39 
Q 2146 -73 1809 -73 
z
M 1882 409 
Q 2366 409 2624 780 
Q 2882 1152 2882 1745 
Q 2882 2332 2627 2693 
Q 2373 3055 1882 3055 
Q 1541 3055 1315 2881 
Q 1089 2707 976 2410 
Q 864 2114 864 1745 
Q 864 1373 978 1069 
Q 1093 766 1319 587 
Q 1546 409 1882 409 
z
" transform="scale(0.015625)"/>
       <path id="Inter-Regular-38" d="M 1973 -64 
Q 1505 -64 1147 103 
Q 789 270 589 564 
Q 389 859 391 1236 
Q 389 1532 507 1783 
Q 625 2034 830 2203 
Q 1036 2373 1291 2418 
L 1291 2445 
Q 957 2532 759 2821 
Q 561 3111 564 3482 
Q 561 3836 743 4115 
Q 925 4395 1244 4556 
Q 1564 4718 1973 4718 
Q 2377 4718 2695 4556 
Q 3014 4395 3197 4115 
Q 3380 3836 3382 3482 
Q 3380 3111 3181 2821 
Q 2982 2532 2655 2445 
L 2655 2418 
Q 2907 2373 3109 2203 
Q 3311 2034 3431 1783 
Q 3552 1532 3555 1236 
Q 3552 859 3351 564 
Q 3150 270 2794 103 
Q 2439 -64 1973 -64 
z
M 1973 436 
Q 2446 436 2722 662 
Q 2998 889 3000 1264 
Q 2998 1527 2864 1729 
Q 2730 1932 2499 2048 
Q 2268 2164 1973 2164 
Q 1675 2164 1442 2048 
Q 1209 1932 1076 1729 
Q 943 1527 946 1264 
Q 943 889 1218 662 
Q 1493 436 1973 436 
z
M 1973 2645 
Q 2348 2645 2591 2864 
Q 2834 3084 2836 3445 
Q 2834 3800 2596 4013 
Q 2359 4227 1973 4227 
Q 1582 4227 1344 4013 
Q 1107 3800 1109 3445 
Q 1107 3084 1349 2864 
Q 1591 2645 1973 2645 
z
" transform="scale(0.015625)"/>
       <path id="Inter-Regular-73" d="M 2964 2709 
L 2482 2573 
Q 2411 2755 2245 2914 
Q 2080 3073 1727 3073 
Q 1407 3073 1194 2926 
Q 982 2780 982 2555 
Q 982 2355 1127 2239 
Q 1273 2123 1582 2045 
L 2100 1918 
Q 3027 1691 3027 973 
Q 3027 673 2855 436 
Q 2684 200 2377 63 
Q 2071 -73 1664 -73 
Q 1130 -73 780 159 
Q 430 391 336 836 
L 846 964 
Q 989 400 1655 400 
Q 2030 400 2251 560 
Q 2473 720 2473 945 
Q 2473 1316 1955 1436 
L 1373 1573 
Q 893 1686 669 1926 
Q 446 2166 446 2527 
Q 446 2823 613 3050 
Q 780 3277 1069 3406 
Q 1359 3536 1727 3536 
Q 2246 3536 2542 3309 
Q 2839 3082 2964 2709 
z
" transform="scale(0.015625)"/>
      </defs>
      <use xlink:href="#Inter-Regular-50"/>
      <use xlink:href="#Inter-Regular-65" x="63.494324"/>
      <use xlink:href="#Inter-Regular-72" x="121.732971"/>
      <use xlink:href="#Inter-Regular-63" x="160.085251"/>
      <use xlink:href="#Inter-Regular-65" x="215.909119"/>
      <use xlink:href="#Inter-Regular-6e" x="274.147766"/>
      <use xlink:href="#Inter-Regular-74" x="332.670502"/>
      <use xlink:href="#Inter-Regular-20" x="369.034149"/>
      <use xlink:href="#Inter-Regular-6f" x="397.159149"/>
      <use xlink:href="#Inter-Regular-66" x="456.818253"/>
      <use xlink:href="#Inter-Regular-20" x="492.897797"/>
      <use xlink:href="#Inter-Regular-6e" x="521.022797"/>
      <use xlink:href="#Inter-Regular-61" x="579.545532"/>
      <use xlink:href="#Inter-Regular-74" x="635.937592"/>
      <use xlink:href="#Inter-Regular-69" x="672.301239"/>
      <use xlink:href="#Inter-Regular-6f" x="696.022827"/>
      <use xlink:href="#Inter-Regular-6e" x="755.681931"/>
      <use xlink:href="#Inter-Regular-20" x="814.204666"/>
      <use xlink:href="#Inter-Regular-77" x="842.329666"/>
      <use xlink:href="#Inter-Regular-68" x="923.579681"/>
      <use xlink:href="#Inter-Regular-6f" x="982.670609"/>
      <use xlink:href="#Inter-Regular-20" x="1042.329712"/>
      <use xlink:href="#Inter-Regular-68" x="1070.454712"/>
      <use xlink:href="#Inter-Regular-61" x="1129.545639"/>
      <use xlink:href="#Inter-Regular-76" x="1185.937698"/>
      <use xlink:href="#Inter-Regular-65" x="1241.619522"/>
      <use xlink:href="#Inter-Regular-20" x="1299.85817"/>
      <use xlink:href="#Inter-Regular-64" x="1327.98317"/>
      <use xlink:href="#Inter-Regular-69" x="1390.057053"/>
      <use xlink:href="#Inter-Regular-65" x="1413.778641"/>
      <use xlink:href="#Inter-Regular-64" x="1472.017288"/>
      <use xlink:href="#Inter-Regular-20" x="1534.091171"/>
      <use xlink:href="#Inter-Regular-77" x="1562.216171"/>
      <use xlink:href="#Inter-Regular-69" x="1643.466187"/>
      <use xlink:href="#Inter-Regular-74" x="1667.187775"/>
      <use xlink:href="#Inter-Regular-68" x="1703.551422"/>
      <use xlink:href="#Inter-Regular-69" x="1762.642349"/>
      <use xlink:href="#Inter-Regular-6e" x="1786.363937"/>
      <use xlink:href="#Inter-Regular-20" x="1844.886673"/>
      <use xlink:href="#Inter-Regular-32" x="1873.011673"/>
      <use xlink:href="#Inter-Regular-38" x="1933.523056"/>
      <use xlink:href="#Inter-Regular-20" x="1995.170792"/>
      <use xlink:href="#Inter-Regular-64" x="2023.295792"/>
      <use xlink:href="#Inter-Regular-61" x="2085.369675"/>
      <use xlink:href="#Inter-Regular-79" x="2141.761734"/>
      <use xlink:href="#Inter-Regular-73" x="2197.443558"/>
      <use xlink:href="#Inter-Regular-20" x="2249.716293"/>
      <use xlink:href="#Inter-Regular-6f" x="2277.841293"/>
      <use xlink:href="#Inter-Regular-66" x="2337.500397"/>
      <use xlink:href="#Inter-Regular-20" x="2373.579941"/>
      <use xlink:href="#Inter-Regular-61" x="2401.704941"/>
      <use xlink:href="#Inter-Regular-20" x="2458.097"/>
      <use xlink:href="#Inter-Regular-70" x="2486.222"/>
      <use xlink:href="#Inter-Regular-6f" x="2547.159515"/>
      <use xlink:href="#Inter-Regular-73" x="2606.818619"/>
      <use xlink:href="#Inter-Regular-69" x="2659.091354"/>
      <use xlink:href="#Inter-Regular-74" x="2682.812943"/>
      <use xlink:href="#Inter-Regular-69" x="2719.17659"/>
      <use xlink:href="#Inter-Regular-76" x="2742.898178"/>
      <use xlink:href="#Inter-Regular-65" x="2798.580002"/>
      <use xlink:href="#Inter-Regular-20" x="2856.818649"/>
      <use xlink:href="#Inter-Regular-74" x="2884.943649"/>
      <use xlink:href="#Inter-Regular-65" x="2921.307297"/>
      <use xlink:href="#Inter-Regular-73" x="2979.545944"/>
      <use xlink:href="#Inter-Regular-74" x="3031.81868"/>
     </g>
    </g>
   </g>
   <g id="line2d_34">
    <path d="M 69.323576 476.741844 
L 79.895418 476.577727 
L 82.778647 476.277897 
L 85.661877 475.697174 
L 87.58403 475.009144 
L 89.506183 473.980255 
L 90.467259 473.289069 
L 91.428336 472.411673 
L 93.350489 470.167684 
L 94.311565 468.955742 
L 95.272642 467.49131 
L 97.194795 463.88073 
L 100.078024 457.022522 
L 103.92233 446.34543 
L 105.844483 440.506643 
L 109.688789 429.851644 
L 114.494172 418.006795 
L 118.338478 409.592628 
L 122.182784 402.292566 
L 126.988166 394.5254 
L 129.871396 390.662332 
L 133.715702 385.893462 
L 135.637855 383.905118 
L 144.287543 376.608212 
L 146.209696 375.235308 
L 150.054002 372.902949 
L 152.937232 371.192342 
L 154.859385 370.220262 
L 156.781538 369.478578 
L 158.703691 368.553841 
L 161.58692 367.518639 
L 164.47015 366.540248 
L 166.392303 366.010023 
L 171.197685 364.965353 
L 182.730603 363.005414 
L 191.380292 362.124862 
L 200.991057 361.484173 
L 215.407204 360.919231 
L 257.69457 359.704132 
L 262.499952 359.388522 
L 268.266411 358.754146 
L 272.110717 358.227077 
L 275.955023 357.526422 
L 278.838253 356.974104 
L 285.565788 355.080443 
L 287.487941 354.370321 
L 288.449018 353.985276 
L 289.410094 353.473988 
L 290.371171 353.095256 
L 292.293324 352.053742 
L 298.059783 348.376884 
L 299.981936 346.940858 
L 301.904089 345.268124 
L 306.709471 340.789616 
L 308.631624 338.788647 
L 310.553777 336.661435 
L 311.514854 335.395838 
L 314.398083 332.296547 
L 319.203466 326.555598 
L 321.125619 323.926565 
L 325.931001 317.617519 
L 327.853154 315.09895 
L 329.775307 312.741342 
L 331.69746 310.326924 
L 334.58069 306.896242 
L 335.541766 305.595928 
L 339.386072 301.089015 
L 344.191455 295.127139 
L 346.113608 292.602258 
L 347.074684 291.484998 
L 352.841143 282.963524 
L 355.724373 278.213591 
L 359.568679 270.919841 
L 362.451908 264.860126 
L 365.335138 258.311215 
L 368.218367 250.319966 
L 370.14052 244.588486 
L 372.062673 238.326781 
L 376.868056 220.800949 
L 383.595591 195.334366 
L 388.400974 179.260341 
L 390.323127 173.658261 
L 394.167433 163.716541 
L 397.050662 157.622109 
L 401.856045 148.895489 
L 405.700351 143.274472 
L 408.58358 139.670204 
L 411.46681 136.820244 
L 415.311115 133.796699 
L 420.116498 130.842588 
L 427.80511 127.736984 
L 430.688339 126.828027 
L 434.532645 125.900133 
L 438.376951 125.155293 
L 440.299104 124.827059 
L 450.870946 123.744516 
L 460.481711 123.078578 
L 465.287093 122.838715 
L 475.858935 122.387392 
L 505.652306 121.715143 
L 525.834913 121.143888 
L 537.367831 120.566322 
L 546.978596 119.733111 
L 552.745055 118.931461 
L 554.667208 118.555885 
L 556.589361 118.215026 
L 574.849814 113.932196 
L 583.499503 111.574588 
L 595.993497 107.547403 
L 598.876726 106.486953 
L 606.565338 103.583339 
L 607.526415 103.359256 
L 611.370721 101.926386 
L 620.981486 99.060646 
L 623.864715 98.303182 
L 625.786868 97.760332 
L 630.592251 96.475799 
L 642.125169 92.915716 
L 649.813781 89.901639 
L 651.735934 89.008463 
L 664.229928 83.706212 
L 671.91854 80.837316 
L 692.101147 74.338903 
L 694.0233 73.770805 
L 697.867606 72.580954 
L 699.789759 71.940266 
L 703.634065 70.728323 
L 706.517294 69.724683 
L 708.439447 69.017716 
L 714.205906 66.338186 
L 716.128059 65.299828 
L 718.050212 64.053168 
L 725.738824 58.495273 
L 730.544207 54.935191 
L 731.505283 54.345 
L 731.505283 54.345 
" clip-path="url(#p2a03156011)" style="fill: none; stroke: #5694ca; stroke-width: 2; stroke-linecap: square"/>
   </g>
   <g id="line2d_35">
    <path d="M 69.323576 476.745 
L 84.7008 476.650842 
L 88.545106 476.368367 
L 89.506183 475.897575 
L 90.467259 475.709259 
L 91.428336 475.332626 
L 93.350489 474.861834 
L 94.311565 474.108568 
L 98.155871 472.507877 
L 102.000177 468.741546 
L 102.961254 468.176596 
L 103.92233 467.42333 
L 104.883407 467.046696 
L 105.844483 465.351847 
L 107.766636 463.280365 
L 108.727713 461.773832 
L 109.688789 461.114724 
L 110.649866 459.984825 
L 111.610942 458.478292 
L 112.572019 457.442551 
L 114.494172 455.653544 
L 115.455248 454.711961 
L 117.377401 452.358004 
L 118.338478 450.568996 
L 119.299554 449.062464 
L 120.260631 448.026722 
L 122.182784 445.296132 
L 123.14386 444.072074 
L 124.104937 443.507125 
L 125.066013 442.188909 
L 126.02709 441.435642 
L 128.910319 438.140102 
L 129.871396 437.292678 
L 130.832472 436.727728 
L 132.754625 436.162778 
L 134.676778 434.93872 
L 135.637855 433.997138 
L 136.598931 433.808821 
L 138.521084 433.149713 
L 139.482161 432.20813 
L 141.404314 431.549022 
L 143.326467 430.230806 
L 146.209696 428.91259 
L 148.131849 428.630115 
L 149.092926 427.971007 
L 151.015079 427.782691 
L 152.937232 427.123583 
L 156.781538 426.652791 
L 158.703691 426.276158 
L 165.431226 426.182 
L 167.353379 425.899525 
L 169.275532 425.805367 
L 171.197685 425.711208 
L 175.041991 425.428733 
L 176.964144 425.334575 
L 181.769527 424.957942 
L 184.652756 424.863784 
L 188.497062 424.581309 
L 195.224598 424.487151 
L 197.146751 424.392992 
L 225.979046 424.298834 
L 228.862275 424.110517 
L 240.395193 424.016359 
L 242.317346 423.922201 
L 246.161652 423.828043 
L 247.122728 423.639726 
L 250.005958 423.545568 
L 250.967034 423.357251 
L 253.850264 423.263093 
L 254.81134 423.074776 
L 257.69457 422.980618 
L 264.422105 422.415668 
L 270.188564 422.32151 
L 279.799329 421.474085 
L 282.682559 421.474085 
L 284.604712 420.438344 
L 285.565788 420.061711 
L 286.526865 419.873394 
L 287.487941 419.496761 
L 289.410094 419.02597 
L 290.371171 418.366862 
L 294.215477 416.766171 
L 295.176553 416.201221 
L 296.13763 415.447955 
L 297.098706 414.883005 
L 299.020859 412.905681 
L 299.981936 412.058257 
L 300.943012 410.740041 
L 301.904089 409.892616 
L 302.865165 409.233508 
L 303.826242 408.291925 
L 304.787318 407.821134 
L 305.748395 406.691234 
L 306.709471 405.749651 
L 307.670548 405.090543 
L 308.631624 403.678169 
L 309.592701 403.019061 
L 311.514854 401.135895 
L 312.47593 400.382629 
L 313.437007 399.158571 
L 315.35916 397.181247 
L 317.281313 394.733132 
L 318.242389 393.885707 
L 321.125619 390.684325 
L 322.086695 389.460268 
L 323.047772 388.707001 
L 324.008848 388.142052 
L 327.853154 385.034828 
L 329.775307 382.963346 
L 330.736384 382.21008 
L 331.69746 381.08018 
L 335.541766 378.443748 
L 337.463919 376.278107 
L 338.424996 374.677417 
L 339.386072 374.018309 
L 340.347149 373.170884 
L 341.308225 371.946826 
L 342.269302 371.099402 
L 343.230378 370.440294 
L 345.152531 369.404552 
L 346.113608 368.839603 
L 348.035761 366.297329 
L 348.996837 365.355746 
L 349.957914 363.943372 
L 350.91899 362.813472 
L 351.880067 361.212781 
L 352.841143 360.271199 
L 354.763296 357.44645 
L 355.724373 356.787342 
L 356.685449 355.845759 
L 357.646526 354.527543 
L 358.607602 353.774277 
L 359.568679 352.738536 
L 360.529755 351.514478 
L 361.490832 350.572895 
L 365.335138 345.676664 
L 366.296214 345.017556 
L 367.257291 343.981815 
L 368.218367 342.004491 
L 369.179444 341.062908 
L 370.14052 339.179742 
L 371.101597 337.67321 
L 372.062673 335.507569 
L 373.984826 331.929554 
L 375.906979 327.22164 
L 376.868056 325.338474 
L 377.829132 322.607884 
L 379.751285 318.841552 
L 380.712362 317.052545 
L 381.673438 316.016804 
L 382.634515 314.792746 
L 383.595591 312.90958 
L 384.556668 311.685522 
L 385.517744 310.273148 
L 386.478821 309.143249 
L 387.439897 307.260083 
L 388.400974 305.75355 
L 389.36205 303.58791 
L 393.206356 298.503362 
L 394.167433 298.032571 
L 395.128509 296.714355 
L 396.089586 295.86693 
L 397.050662 294.642872 
L 398.972815 293.042181 
L 399.933892 292.759707 
L 400.894968 292.00644 
L 401.856045 290.876541 
L 403.778198 289.27585 
L 405.700351 288.334267 
L 406.661427 287.204368 
L 408.58358 286.168626 
L 409.544657 285.98031 
L 412.427886 284.567936 
L 413.388962 284.379619 
L 416.272192 283.343878 
L 420.116498 282.590612 
L 421.077574 282.213978 
L 422.999727 281.931504 
L 423.960804 281.366554 
L 425.882957 281.084079 
L 428.766186 279.483388 
L 430.688339 279.38923 
L 431.649416 279.38923 
L 432.610492 279.200913 
L 434.532645 279.106755 
L 436.454798 278.82428 
L 437.415875 278.82428 
L 439.338028 278.353489 
L 443.182334 278.25933 
L 446.065563 277.882697 
L 447.02664 277.600222 
L 448.948793 277.600222 
L 450.870946 277.317747 
L 453.754175 276.941114 
L 456.637405 276.470323 
L 466.24817 275.622898 
L 467.209246 275.622898 
L 469.131399 275.152107 
L 472.014629 275.057949 
L 475.858935 274.775474 
L 481.625394 274.681315 
L 483.547547 274.587157 
L 488.352929 274.492999 
L 490.275082 274.398841 
L 491.236159 274.398841 
L 492.197235 274.210524 
L 502.769077 274.116366 
L 504.69123 274.022207 
L 513.340918 273.928049 
L 515.263071 273.833891 
L 543.13429 273.739733 
L 546.978596 273.457258 
L 549.861825 273.457258 
L 550.822902 273.174783 
L 552.745055 273.080625 
L 556.589361 272.609833 
L 559.47259 272.139042 
L 560.433667 272.139042 
L 562.35582 271.66825 
L 564.277973 270.632509 
L 565.239049 270.161718 
L 566.200126 269.50261 
L 567.161202 269.220135 
L 568.122279 269.125976 
L 570.044432 268.466868 
L 571.005508 267.996077 
L 571.966585 267.713602 
L 572.927661 266.960336 
L 574.849814 266.395386 
L 576.771967 265.359645 
L 577.733044 264.794695 
L 578.69412 264.418062 
L 579.655197 264.229745 
L 580.616273 263.853112 
L 581.57735 263.194004 
L 582.538426 262.158263 
L 583.499503 261.499155 
L 584.460579 261.028364 
L 585.421656 259.898464 
L 586.382732 258.956881 
L 587.343808 258.203615 
L 591.188114 256.414608 
L 592.149191 255.473025 
L 594.071344 254.06065 
L 595.03242 253.401542 
L 595.993497 252.177485 
L 596.954573 251.424218 
L 598.876726 250.200161 
L 599.837803 248.976103 
L 601.759956 248.128678 
L 602.721032 247.187095 
L 603.682109 246.622146 
L 604.643185 246.527987 
L 605.604262 245.963038 
L 606.565338 245.209771 
L 608.487491 243.326606 
L 609.448568 243.044131 
L 610.409644 242.385023 
L 611.370721 241.44344 
L 615.215027 239.842749 
L 617.13718 238.242058 
L 619.059333 237.206317 
L 621.942562 236.170576 
L 622.903639 235.888101 
L 623.864715 235.41731 
L 624.825792 235.228993 
L 625.786868 234.85236 
L 626.747945 234.758202 
L 631.553327 233.345827 
L 632.514404 232.875036 
L 633.47548 232.686719 
L 634.436557 232.215928 
L 635.397633 231.933453 
L 639.241939 230.050287 
L 640.203016 229.861971 
L 641.164092 229.014546 
L 642.125169 228.543755 
L 643.086245 228.26128 
L 644.047322 227.602172 
L 645.008398 226.566431 
L 645.969475 226.001481 
L 646.930551 225.719006 
L 649.813781 224.212473 
L 650.774857 223.647524 
L 651.735934 222.705941 
L 652.69701 221.952674 
L 653.658087 221.387725 
L 654.619163 221.011092 
L 655.58024 220.257825 
L 656.541316 219.127926 
L 657.502393 218.562976 
L 658.463469 218.186343 
L 660.385622 216.962285 
L 663.268852 214.984961 
L 665.191005 214.137537 
L 668.074234 212.913479 
L 669.035311 211.783579 
L 669.996387 211.312788 
L 670.957464 210.465363 
L 671.91854 210.277047 
L 672.879617 209.429622 
L 674.80177 208.770514 
L 675.762846 208.111406 
L 676.723923 207.734773 
L 677.684999 206.887349 
L 679.607152 206.322399 
L 680.568229 205.851607 
L 683.451458 205.286658 
L 684.412535 204.910024 
L 686.334688 203.685967 
L 687.295764 203.49765 
L 689.217917 202.556067 
L 694.984376 200.861218 
L 698.828682 199.072211 
L 707.478371 197.283203 
L 709.400524 196.624095 
L 710.3616 196.247462 
L 711.322677 196.247462 
L 713.24483 195.588354 
L 717.089136 194.17598 
L 719.972365 193.516872 
L 720.933442 192.857764 
L 722.855595 192.857764 
L 723.816671 191.822023 
L 724.777748 191.068756 
L 726.699901 190.692123 
L 727.660977 190.127173 
L 728.622054 189.844699 
L 729.58313 189.279749 
L 731.505283 188.526482 
L 731.505283 188.526482 
" clip-path="url(#p2a03156011)" style="fill: none; stroke: #ffdd00; stroke-width: 2; stroke-linecap: square"/>
   </g>
   <g id="line2d_36">
    <path d="M 69.323576 476.745 
L 81.817571 476.647043 
L 85.661877 476.451128 
L 90.467259 475.569514 
L 93.350489 474.459333 
L 94.311565 473.512413 
L 95.272642 472.859365 
L 96.233718 471.879794 
L 97.194795 470.639003 
L 98.155871 469.136993 
L 99.116948 467.961507 
L 100.078024 466.067668 
L 101.039101 465.153401 
L 102.000177 463.618738 
L 102.961254 461.561638 
L 104.883407 458.198441 
L 106.80556 454.149545 
L 108.727713 450.94961 
L 109.688789 449.610862 
L 110.649866 447.94559 
L 113.533095 443.929346 
L 118.338478 435.570334 
L 119.299554 433.970366 
L 120.260631 432.729575 
L 122.182784 429.758208 
L 123.14386 427.799064 
L 126.02709 423.848125 
L 127.949243 420.844105 
L 129.871396 418.329871 
L 130.832472 416.697251 
L 132.754625 413.987102 
L 134.676778 411.76674 
L 136.598931 409.807596 
L 137.560008 408.795372 
L 138.521084 407.423972 
L 139.482161 406.281138 
L 146.209696 400.469012 
L 147.170773 399.913921 
L 151.015079 398.379259 
L 152.937232 397.334382 
L 153.898308 396.975206 
L 158.703691 396.028287 
L 159.664767 395.995634 
L 160.625844 395.701763 
L 161.58692 395.603806 
L 163.509073 395.179325 
L 164.47015 395.146672 
L 166.392303 394.918105 
L 169.275532 394.624234 
L 177.925221 393.840576 
L 189.458139 393.546705 
L 235.589811 393.448748 
L 239.434117 393.416095 
L 247.122728 393.318138 
L 250.967034 393.285486 
L 256.733493 393.252833 
L 258.655646 393.154876 
L 262.499952 393.056919 
L 266.344258 392.763048 
L 273.071794 392.273262 
L 274.03287 392.11 
L 275.955023 391.97939 
L 278.838253 391.685519 
L 284.604712 389.856985 
L 285.565788 389.465156 
L 286.526865 389.269242 
L 287.487941 388.746803 
L 288.449018 388.093755 
L 289.410094 387.767232 
L 290.371171 387.048879 
L 295.176553 384.404035 
L 297.098706 382.999982 
L 298.059783 381.987758 
L 299.020859 381.46532 
L 300.943012 379.571481 
L 301.904089 378.428647 
L 302.865165 377.64499 
L 305.748395 374.379751 
L 306.709471 373.759355 
L 307.670548 372.420607 
L 308.631624 371.538993 
L 319.203466 358.412731 
L 321.125619 356.812764 
L 323.047772 354.788316 
L 324.969925 352.600605 
L 326.892078 350.576157 
L 328.814231 349.041494 
L 329.775307 347.702746 
L 332.658537 344.861988 
L 333.619613 344.20894 
L 334.58069 343.033454 
L 335.541766 342.086535 
L 336.502843 341.46614 
L 339.386072 338.658034 
L 344.191455 334.903009 
L 347.074684 331.833684 
L 348.035761 330.658198 
L 349.957914 329.025578 
L 351.880067 327.262349 
L 352.841143 326.348082 
L 358.607602 319.654342 
L 359.568679 318.805379 
L 360.529755 317.760503 
L 361.490832 316.323798 
L 362.451908 315.180964 
L 365.335138 311.230024 
L 366.296214 309.923929 
L 368.218367 306.919909 
L 370.14052 304.307717 
L 371.101597 302.381226 
L 373.984826 297.483367 
L 375.906979 293.69569 
L 376.868056 291.214108 
L 377.829132 289.810055 
L 379.751285 285.467287 
L 380.712362 283.312229 
L 381.673438 281.451043 
L 382.634515 279.23068 
L 383.595591 277.500103 
L 384.556668 275.214436 
L 386.478821 271.883892 
L 387.439897 269.892096 
L 388.400974 268.390086 
L 389.36205 266.463595 
L 393.206356 260.618817 
L 394.167433 259.051502 
L 395.128509 258.006625 
L 396.089586 256.56992 
L 397.050662 254.904648 
L 400.894968 249.419046 
L 401.856045 248.276212 
L 402.817121 246.937464 
L 406.661427 242.888568 
L 407.622504 241.974301 
L 408.58358 240.831467 
L 409.544657 239.394762 
L 410.505733 238.513147 
L 415.311115 235.378518 
L 417.233268 234.235684 
L 418.194345 233.941812 
L 419.155421 233.288765 
L 422.999727 231.819407 
L 424.92188 231.166359 
L 425.882957 230.676573 
L 426.844033 230.350049 
L 428.766186 229.925568 
L 431.649416 229.370477 
L 432.610492 229.337825 
L 434.532645 228.71743 
L 436.454798 228.423558 
L 439.338028 228.031729 
L 441.260181 227.803163 
L 443.182334 227.411334 
L 447.02664 226.856243 
L 451.832022 226.627677 
L 453.754175 226.431762 
L 463.36494 225.876671 
L 480.664317 225.386886 
L 497.002618 225.288928 
L 513.340918 224.831795 
L 515.263071 224.76649 
L 517.185224 224.701185 
L 519.107377 224.603228 
L 520.068454 224.570576 
L 521.02953 224.374661 
L 524.873836 224.146095 
L 529.679219 223.754266 
L 530.640295 223.721614 
L 531.601372 223.460394 
L 536.406754 223.068566 
L 538.328907 222.872651 
L 540.25106 222.513475 
L 541.212137 222.088994 
L 542.173213 221.925732 
L 543.13429 221.533903 
L 552.745055 219.182931 
L 554.667208 218.693145 
L 557.550437 217.909488 
L 559.47259 217.648269 
L 565.239049 216.244216 
L 567.161202 215.689125 
L 569.083355 215.395254 
L 573.888738 214.350377 
L 578.69412 213.43611 
L 580.616273 213.142239 
L 582.538426 212.783062 
L 585.421656 212.162667 
L 588.304885 211.672881 
L 590.227038 211.346357 
L 592.149191 210.758614 
L 596.954573 209.354561 
L 598.876726 208.668861 
L 599.837803 208.11377 
L 600.798879 207.787246 
L 601.759956 207.199503 
L 602.721032 206.872979 
L 603.682109 206.317889 
L 605.604262 204.815879 
L 609.448568 202.007773 
L 610.409644 201.485335 
L 614.25395 198.448662 
L 615.215027 197.762962 
L 616.176103 196.750738 
L 618.098256 195.41199 
L 623.864715 191.428398 
L 626.747945 189.567211 
L 627.709021 189.110078 
L 628.670098 188.359073 
L 629.631174 187.934592 
L 630.592251 187.314196 
L 633.47548 185.844839 
L 634.436557 185.126486 
L 636.35871 183.983652 
L 638.280863 182.808166 
L 640.203016 181.730637 
L 641.164092 181.240851 
L 642.125169 180.94698 
L 643.086245 180.424542 
L 644.047322 179.706189 
L 645.008398 179.183751 
L 646.930551 177.747046 
L 647.891628 177.485826 
L 648.852704 176.865431 
L 649.813781 176.408297 
L 651.735934 175.134854 
L 653.658087 174.089978 
L 654.619163 173.208363 
L 656.541316 172.261444 
L 657.502393 171.543091 
L 659.424546 170.43291 
L 661.346699 169.649252 
L 662.307775 169.453338 
L 663.268852 168.996204 
L 664.229928 168.734985 
L 665.191005 168.179895 
L 666.152081 167.853371 
L 667.113158 167.363585 
L 668.074234 166.743189 
L 669.035311 166.579927 
L 670.957464 165.894227 
L 673.840693 164.97996 
L 675.762846 164.098346 
L 676.723923 163.902431 
L 677.684999 163.575907 
L 680.568229 162.139202 
L 681.529305 161.780026 
L 682.490382 161.682069 
L 684.412535 160.833106 
L 685.373611 160.60454 
L 686.334688 160.212711 
L 687.295764 159.951492 
L 688.256841 159.527011 
L 689.217917 158.939268 
L 691.14007 158.318872 
L 701.711912 155.739333 
L 703.634065 155.216895 
L 707.478371 154.563847 
L 708.439447 154.269976 
L 709.400524 153.845495 
L 714.205906 152.441442 
L 715.166983 152.212875 
L 716.128059 151.592479 
L 717.089136 151.265956 
L 718.050212 150.64556 
L 719.011289 150.319036 
L 719.972365 149.861903 
L 721.894518 148.686417 
L 723.816671 147.706845 
L 724.777748 146.727273 
L 725.738824 146.13953 
L 727.660977 144.76813 
L 728.622054 144.245691 
L 729.58313 143.853863 
L 730.544207 143.168162 
L 731.505283 142.808986 
L 731.505283 142.808986 
" clip-path="url(#p2a03156011)" style="fill: none; stroke: #003078; stroke-width: 2; stroke-linecap: square"/>
   </g>
   <g id="line2d_37">
    <path d="M 69.323576 476.745 
L 81.817571 476.745 
L 82.778647 476.576071 
L 84.7008 476.576071 
L 86.622953 476.294524 
L 88.545106 475.618809 
L 89.506183 475.393571 
L 91.428336 474.323689 
L 93.350489 473.141189 
L 94.311565 472.296545 
L 96.233718 470.38202 
L 97.194795 469.537377 
L 98.155871 468.354876 
L 100.078024 465.145232 
L 102.000177 461.710349 
L 102.961254 460.584158 
L 103.92233 458.782252 
L 105.844483 453.99594 
L 106.80556 452.588201 
L 107.766636 450.842605 
L 108.727713 448.759151 
L 109.688789 446.337841 
L 110.649866 444.873792 
L 112.572019 440.763195 
L 115.455248 435.807954 
L 116.416325 434.400215 
L 117.377401 432.710928 
L 118.338478 431.415809 
L 119.299554 430.402237 
L 121.221707 427.023663 
L 124.104937 424.377114 
L 125.066013 422.913066 
L 126.02709 422.012113 
L 126.988166 420.379136 
L 128.910319 418.802469 
L 129.871396 417.507349 
L 130.832472 416.550086 
L 131.793549 415.254967 
L 132.754625 414.185085 
L 133.715702 413.453061 
L 134.676778 413.058894 
L 135.637855 412.495798 
L 136.598931 411.651155 
L 137.560008 411.03175 
L 138.521084 410.130797 
L 139.482161 409.455083 
L 140.443237 408.55413 
L 142.36539 407.2027 
L 145.24862 405.626033 
L 149.092926 403.48627 
L 151.015079 402.360079 
L 151.976155 402.022221 
L 152.937232 401.121268 
L 154.859385 399.938768 
L 158.703691 398.3621 
L 159.664767 397.686386 
L 160.625844 397.461147 
L 162.547997 396.503885 
L 163.509073 396.109718 
L 164.47015 395.88448 
L 166.392303 395.208765 
L 168.314456 394.64567 
L 171.197685 393.519479 
L 173.119838 393.463169 
L 176.964144 392.674835 
L 177.925221 392.618526 
L 178.886297 392.280668 
L 179.847374 391.773882 
L 180.80845 391.661263 
L 181.769527 391.323406 
L 183.69168 391.041858 
L 186.574909 390.422453 
L 187.535986 390.422453 
L 191.380292 390.028286 
L 195.224598 389.859358 
L 196.185674 389.859358 
L 198.107827 389.690429 
L 203.874286 389.634119 
L 210.601822 389.183643 
L 211.562898 389.071024 
L 214.446128 388.507928 
L 218.290434 388.001142 
L 219.25151 387.832214 
L 220.212587 387.832214 
L 221.173663 387.550666 
L 222.13474 387.438047 
L 223.095816 387.438047 
L 224.056893 387.325428 
L 225.979046 387.269118 
L 228.862275 387.156499 
L 230.784428 387.156499 
L 231.745505 387.04388 
L 236.550887 386.98757 
L 238.47304 386.931261 
L 243.278422 386.931261 
L 244.239499 386.818642 
L 253.850264 386.762332 
L 256.733493 386.649713 
L 257.69457 386.649713 
L 260.577799 386.311856 
L 263.461029 386.255546 
L 264.422105 386.199237 
L 266.344258 385.861379 
L 268.266411 385.80507 
L 270.188564 385.523522 
L 273.071794 384.904117 
L 274.03287 384.622569 
L 274.993947 384.50995 
L 275.955023 384.059473 
L 276.9161 383.890545 
L 277.877176 383.327449 
L 278.838253 383.102211 
L 279.799329 382.482806 
L 281.721482 381.807091 
L 284.604712 381.187686 
L 287.487941 379.948876 
L 289.410094 379.38578 
L 291.332247 378.034351 
L 292.293324 377.809113 
L 293.2544 377.077089 
L 294.215477 375.500421 
L 295.176553 374.881016 
L 298.059783 372.290777 
L 299.020859 370.995657 
L 299.981936 370.376252 
L 300.943012 369.193751 
L 302.865165 367.729703 
L 303.826242 366.153035 
L 304.787318 365.195773 
L 306.709471 362.661843 
L 307.670548 360.916247 
L 308.631624 359.452198 
L 309.592701 358.607555 
L 314.398083 350.611598 
L 315.35916 348.922312 
L 316.320236 347.85243 
L 319.203466 343.516594 
L 320.164542 342.503022 
L 321.125619 341.038974 
L 322.086695 339.856473 
L 324.008848 336.759448 
L 324.969925 335.351709 
L 326.892078 333.380875 
L 327.853154 331.691588 
L 328.814231 330.22754 
L 329.775307 328.425634 
L 330.736384 326.961585 
L 332.658537 324.934441 
L 333.619613 323.695631 
L 335.541766 320.654915 
L 336.502843 319.528724 
L 337.463919 318.120985 
L 338.424996 316.994794 
L 340.347149 314.179317 
L 341.308225 312.321101 
L 342.269302 310.857053 
L 343.230378 308.998838 
L 344.191455 307.760027 
L 346.113608 304.212525 
L 347.074684 302.298001 
L 348.996837 296.892283 
L 351.880067 290.923471 
L 353.80222 287.038111 
L 354.763296 284.504181 
L 355.724373 282.645966 
L 356.685449 280.224655 
L 357.646526 278.591678 
L 358.607602 275.83251 
L 359.568679 273.523818 
L 361.490832 267.836553 
L 362.451908 264.570599 
L 363.412985 262.656074 
L 364.374061 259.671668 
L 366.296214 255.392142 
L 367.257291 252.689283 
L 371.101597 243.679754 
L 373.02375 237.93618 
L 373.984826 235.514869 
L 374.945903 232.474153 
L 376.868056 227.85677 
L 377.829132 226.392721 
L 378.790209 223.97141 
L 379.751285 222.507362 
L 382.634515 216.257001 
L 384.556668 212.484261 
L 385.517744 210.963903 
L 386.478821 208.88045 
L 387.439897 207.64164 
L 388.400974 206.008663 
L 389.36205 203.643661 
L 391.284203 201.166041 
L 392.24528 199.533064 
L 393.206356 197.674849 
L 394.167433 196.154491 
L 396.089586 193.620561 
L 397.050662 192.100203 
L 401.856045 187.088652 
L 402.817121 185.680913 
L 405.700351 182.414959 
L 408.58358 180.387815 
L 409.544657 179.374243 
L 412.427886 176.952933 
L 415.311115 174.70055 
L 417.233268 173.292811 
L 418.194345 173.123883 
L 419.155421 172.560787 
L 420.116498 171.828763 
L 428.766186 168.900666 
L 430.688339 168.45019 
L 431.649416 167.999713 
L 436.454798 166.817213 
L 437.415875 166.817213 
L 440.299104 166.423046 
L 442.221257 166.254117 
L 448.948793 165.85995 
L 449.909869 165.578403 
L 460.481711 164.958997 
L 462.403864 164.733759 
L 463.36494 164.733759 
L 465.287093 164.508521 
L 467.209246 164.452211 
L 472.975705 164.170664 
L 477.781088 164.114354 
L 480.664317 164.001735 
L 481.625394 164.001735 
L 483.547547 163.776497 
L 489.314006 163.720187 
L 490.275082 163.551259 
L 493.158312 163.494949 
L 495.080465 163.269711 
L 499.885847 163.213401 
L 501.808 163.157092 
L 514.301995 163.100782 
L 516.224148 163.044473 
L 523.91276 163.044473 
L 524.873836 162.931853 
L 527.757066 162.875544 
L 529.679219 162.819234 
L 536.406754 162.762925 
L 539.289984 162.650306 
L 543.13429 162.593996 
L 549.861825 162.14352 
L 551.783978 161.918281 
L 553.706131 161.749353 
L 555.628284 161.580424 
L 557.550437 161.411495 
L 562.35582 160.623162 
L 565.239049 160.454233 
L 569.083355 159.891138 
L 573.888738 159.55328 
L 574.849814 159.328042 
L 575.810891 159.328042 
L 576.771967 159.046494 
L 577.733044 158.990185 
L 579.655197 158.483399 
L 581.57735 158.427089 
L 583.499503 158.201851 
L 584.460579 157.976613 
L 586.382732 157.920303 
L 592.149191 156.850422 
L 593.110267 156.512564 
L 595.993497 156.062088 
L 596.954573 155.555302 
L 598.876726 154.935897 
L 599.837803 154.372801 
L 600.798879 154.203873 
L 603.682109 152.796134 
L 604.643185 152.233038 
L 608.487491 150.71268 
L 611.370721 148.23506 
L 618.098256 146.151606 
L 620.981486 144.969106 
L 622.903639 143.730295 
L 624.825792 142.547795 
L 625.786868 142.097318 
L 628.670098 141.196365 
L 629.631174 140.520651 
L 630.592251 140.013865 
L 631.553327 139.676008 
L 632.514404 139.507079 
L 633.47548 138.943983 
L 634.436557 138.662436 
L 636.35871 137.761483 
L 638.280863 136.297434 
L 639.241939 135.62172 
L 641.164092 134.720767 
L 642.125169 134.101362 
L 644.047322 132.355765 
L 645.969475 131.848979 
L 646.930551 131.342193 
L 647.891628 131.060646 
L 648.852704 130.49755 
L 649.813781 130.103383 
L 653.658087 127.456834 
L 662.307775 122.783141 
L 666.152081 120.587069 
L 667.113158 120.305521 
L 668.074234 119.629806 
L 669.035311 119.348258 
L 669.996387 118.785163 
L 670.957464 118.503615 
L 672.879617 117.377424 
L 675.762846 116.58909 
L 678.646076 115.35028 
L 683.451458 114.167779 
L 686.334688 112.985279 
L 688.256841 111.971707 
L 690.178994 111.633849 
L 691.14007 111.127063 
L 693.062223 110.563968 
L 701.711912 107.973728 
L 702.672988 107.917419 
L 707.478371 106.960156 
L 709.400524 106.50968 
L 712.283753 105.27087 
L 713.24483 104.989322 
L 715.166983 103.97575 
L 716.128059 103.131107 
L 717.089136 102.849559 
L 718.050212 102.117535 
L 719.972365 101.44182 
L 721.894518 100.259319 
L 723.816671 99.583605 
L 724.777748 98.9642 
L 725.738824 98.682652 
L 726.699901 98.006937 
L 728.622054 96.37396 
L 730.544207 95.247769 
L 731.505283 95.07884 
L 731.505283 95.07884 
" clip-path="url(#p2a03156011)" style="fill: none; stroke: #d4351c; stroke-width: 2; stroke-linecap: square"/>
   </g>
   <g id="patch_3">
    <path d="M 68.3625 476.745 
L 737.9625 476.745 
" style="fill: none; stroke: #000000; stroke-width: 0.8; stroke-linejoin: miter; stroke-linecap: square"/>
   </g>
   <g id="text_19">
    <!-- Cumulative deaths within 4 weeks of a positive COVID-19 test, per capita -->
    <g transform="translate(188.48625 27.225)scale(0.12 -0.12)">
     <defs>
      <path id="Inter-Bold-43" d="M 4511 3025 
L 3516 3025 
Q 3459 3409 3188 3628 
Q 2918 3848 2514 3848 
Q 1973 3848 1647 3451 
Q 1321 3055 1321 2327 
Q 1321 1582 1649 1194 
Q 1977 807 2507 807 
Q 2900 807 3173 1012 
Q 3446 1218 3516 1591 
L 4511 1586 
Q 4459 1159 4207 782 
Q 3955 405 3522 170 
Q 3089 -64 2491 -64 
Q 1868 -64 1378 218 
Q 889 500 606 1034 
Q 323 1568 323 2327 
Q 323 3089 609 3623 
Q 896 4157 1386 4437 
Q 1877 4718 2491 4718 
Q 3030 4718 3463 4519 
Q 3896 4320 4172 3942 
Q 4448 3564 4511 3025 
z
" transform="scale(0.015625)"/>
      <path id="Inter-Bold-75" d="M 2625 1486 
L 2625 3491 
L 3593 3491 
L 3593 0 
L 2664 0 
L 2664 634 
L 2627 634 
Q 2509 327 2235 141 
Q 1961 -45 1568 -45 
Q 1041 -45 715 306 
Q 389 657 386 1268 
L 386 3491 
L 1355 3491 
L 1355 1441 
Q 1357 1132 1520 952 
Q 1684 773 1959 773 
Q 2221 773 2424 954 
Q 2627 1136 2625 1486 
z
" transform="scale(0.015625)"/>
      <path id="Inter-Bold-6d" d="M 386 0 
L 386 3491 
L 1309 3491 
L 1309 2875 
L 1350 2875 
Q 1459 3184 1715 3360 
Q 1971 3536 2323 3536 
Q 2682 3536 2934 3358 
Q 3186 3180 3271 2875 
L 3307 2875 
Q 3414 3175 3694 3355 
Q 3975 3536 4359 3536 
Q 4848 3536 5153 3226 
Q 5459 2916 5459 2348 
L 5459 0 
L 4493 0 
L 4493 2157 
Q 4493 2448 4338 2593 
Q 4184 2739 3952 2739 
Q 3689 2739 3541 2570 
Q 3393 2402 3393 2132 
L 3393 0 
L 2455 0 
L 2455 2177 
Q 2455 2434 2308 2586 
Q 2161 2739 1923 2739 
Q 1682 2739 1518 2562 
Q 1355 2386 1355 2095 
L 1355 0 
L 386 0 
z
" transform="scale(0.015625)"/>
      <path id="Inter-Bold-6c" d="M 1355 4655 
L 1355 0 
L 386 0 
L 386 4655 
L 1355 4655 
z
" transform="scale(0.015625)"/>
      <path id="Inter-Bold-61" d="M 1382 -66 
Q 882 -66 552 195 
Q 223 457 223 975 
Q 223 1366 407 1588 
Q 591 1811 890 1914 
Q 1189 2018 1534 2050 
Q 1989 2095 2184 2145 
Q 2380 2195 2380 2364 
L 2380 2377 
Q 2380 2593 2244 2711 
Q 2109 2830 1861 2830 
Q 1600 2830 1445 2716 
Q 1291 2602 1241 2427 
L 346 2500 
Q 446 2977 842 3256 
Q 1239 3536 1866 3536 
Q 2255 3536 2593 3413 
Q 2932 3291 3140 3030 
Q 3348 2770 3348 2355 
L 3348 0 
L 2430 0 
L 2430 484 
L 2402 484 
Q 2275 241 2021 87 
Q 1768 -66 1382 -66 
z
M 1659 602 
Q 1977 602 2181 787 
Q 2386 973 2386 1248 
L 2386 1618 
Q 2330 1580 2210 1550 
Q 2091 1520 1956 1498 
Q 1821 1477 1714 1461 
Q 1459 1425 1303 1318 
Q 1148 1211 1148 1007 
Q 1148 807 1292 704 
Q 1436 602 1659 602 
z
" transform="scale(0.015625)"/>
      <path id="Inter-Bold-74" d="M 2243 3491 
L 2243 2764 
L 1586 2764 
L 1586 1073 
Q 1586 873 1677 802 
Q 1768 732 1914 732 
Q 1982 732 2050 744 
Q 2118 757 2155 764 
L 2307 43 
Q 2234 20 2102 -10 
Q 1971 -41 1782 -48 
Q 1255 -70 935 181 
Q 616 432 618 945 
L 618 2764 
L 141 2764 
L 141 3491 
L 618 3491 
L 618 4327 
L 1586 4327 
L 1586 3491 
L 2243 3491 
z
" transform="scale(0.015625)"/>
      <path id="Inter-Bold-69" d="M 386 0 
L 386 3491 
L 1355 3491 
L 1355 0 
L 386 0 
z
M 876 3941 
Q 662 3941 507 4085 
Q 353 4230 353 4432 
Q 353 4634 507 4777 
Q 662 4920 876 4920 
Q 1092 4920 1246 4777 
Q 1401 4634 1401 4432 
Q 1401 4230 1246 4085 
Q 1092 3941 876 3941 
z
" transform="scale(0.015625)"/>
      <path id="Inter-Bold-76" d="M 3641 3491 
L 2421 0 
L 1330 0 
L 109 3491 
L 1132 3491 
L 1857 993 
L 1893 993 
L 2616 3491 
L 3641 3491 
z
" transform="scale(0.015625)"/>
      <path id="Inter-Bold-65" d="M 1977 -68 
Q 1441 -68 1052 151 
Q 664 370 455 773 
Q 246 1177 246 1730 
Q 246 2268 455 2675 
Q 664 3082 1044 3309 
Q 1425 3536 1939 3536 
Q 2400 3536 2771 3340 
Q 3143 3145 3361 2751 
Q 3580 2357 3580 1764 
L 3580 1498 
L 1202 1498 
L 1202 1495 
Q 1202 1105 1416 880 
Q 1630 655 1993 655 
Q 2236 655 2413 757 
Q 2591 859 2664 1059 
L 3559 1000 
Q 3457 514 3041 223 
Q 2625 -68 1977 -68 
z
M 1202 2098 
L 2668 2098 
Q 2666 2409 2468 2611 
Q 2271 2814 1955 2814 
Q 1632 2814 1425 2604 
Q 1218 2395 1202 2098 
z
" transform="scale(0.015625)"/>
      <path id="Inter-Bold-20" transform="scale(0.015625)"/>
      <path id="Inter-Bold-64" d="M 1673 -57 
Q 1275 -57 954 149 
Q 634 355 445 756 
Q 257 1157 257 1741 
Q 257 2341 451 2740 
Q 646 3139 967 3337 
Q 1289 3536 1671 3536 
Q 1964 3536 2160 3437 
Q 2357 3339 2478 3193 
Q 2600 3048 2664 2905 
L 2693 2905 
L 2693 4655 
L 3659 4655 
L 3659 0 
L 2705 0 
L 2705 559 
L 2664 559 
Q 2598 414 2473 272 
Q 2348 130 2151 36 
Q 1955 -57 1673 -57 
z
M 1980 714 
Q 2330 714 2522 997 
Q 2714 1280 2714 1745 
Q 2714 2214 2523 2490 
Q 2332 2766 1980 2766 
Q 1621 2766 1433 2483 
Q 1246 2200 1246 1745 
Q 1246 1289 1434 1001 
Q 1623 714 1980 714 
z
" transform="scale(0.015625)"/>
      <path id="Inter-Bold-68" d="M 1355 2018 
L 1355 0 
L 386 0 
L 386 4655 
L 1327 4655 
L 1327 2875 
L 1368 2875 
Q 1489 3184 1751 3360 
Q 2014 3536 2411 3536 
Q 2957 3536 3289 3186 
Q 3621 2836 3618 2223 
L 3618 0 
L 2650 0 
L 2650 2050 
Q 2652 2373 2487 2552 
Q 2323 2732 2027 2732 
Q 1732 2732 1544 2544 
Q 1357 2357 1355 2018 
z
" transform="scale(0.015625)"/>
      <path id="Inter-Bold-73" d="M 3291 2495 
L 2405 2441 
Q 2368 2609 2220 2729 
Q 2073 2850 1821 2850 
Q 1596 2850 1440 2755 
Q 1284 2661 1286 2505 
Q 1284 2380 1385 2293 
Q 1486 2207 1730 2155 
L 2361 2027 
Q 3368 1820 3371 1082 
Q 3371 739 3169 479 
Q 2968 220 2618 76 
Q 2268 -68 1816 -68 
Q 1123 -68 711 221 
Q 300 511 232 1011 
L 1184 1061 
Q 1230 848 1394 739 
Q 1559 630 1818 630 
Q 2073 630 2228 730 
Q 2384 830 2386 984 
Q 2380 1243 1939 1332 
L 1334 1452 
Q 321 1655 325 2450 
Q 323 2955 728 3245 
Q 1134 3536 1805 3536 
Q 2466 3536 2846 3256 
Q 3227 2977 3291 2495 
z
" transform="scale(0.015625)"/>
      <path id="Inter-Bold-77" d="M 1075 0 
L 125 3491 
L 1105 3491 
L 1646 1145 
L 1677 1145 
L 2241 3491 
L 3202 3491 
L 3775 1159 
L 3805 1159 
L 4336 3491 
L 5314 3491 
L 4366 0 
L 3341 0 
L 2741 2195 
L 2698 2195 
L 2098 0 
L 1075 0 
z
" transform="scale(0.015625)"/>
      <path id="Inter-Bold-6e" d="M 1355 2018 
L 1355 0 
L 386 0 
L 386 3491 
L 1309 3491 
L 1309 2875 
L 1350 2875 
Q 1468 3180 1739 3358 
Q 2011 3536 2400 3536 
Q 2946 3536 3275 3185 
Q 3605 2834 3605 2223 
L 3605 0 
L 2636 0 
L 2636 2050 
Q 2639 2370 2473 2551 
Q 2307 2732 2016 2732 
Q 1723 2732 1540 2544 
Q 1357 2357 1355 2018 
z
" transform="scale(0.015625)"/>
      <path id="Inter-Bold-34" d="M 307 818 
L 307 1593 
L 2250 4655 
L 3482 4655 
L 3482 1607 
L 4059 1607 
L 4059 818 
L 3482 818 
L 3482 0 
L 2541 0 
L 2541 818 
L 307 818 
z
M 2559 1607 
L 2559 3582 
L 2523 3582 
L 1298 1643 
L 1298 1607 
L 2559 1607 
z
" transform="scale(0.015625)"/>
      <path id="Inter-Bold-6b" d="M 386 0 
L 386 4655 
L 1355 4655 
L 1355 2166 
L 1407 2166 
L 2525 3491 
L 3636 3491 
L 2341 1980 
L 3702 0 
L 2568 0 
L 1616 1407 
L 1355 1109 
L 1355 0 
L 386 0 
z
" transform="scale(0.015625)"/>
      <path id="Inter-Bold-6f" d="M 1964 -68 
Q 1434 -68 1049 158 
Q 664 384 455 789 
Q 246 1195 246 1732 
Q 246 2273 455 2678 
Q 664 3084 1049 3310 
Q 1434 3536 1964 3536 
Q 2493 3536 2878 3310 
Q 3264 3084 3473 2678 
Q 3682 2273 3682 1732 
Q 3682 1195 3473 789 
Q 3264 384 2878 158 
Q 2493 -68 1964 -68 
z
M 1968 682 
Q 2327 682 2512 982 
Q 2698 1282 2698 1739 
Q 2698 2195 2512 2496 
Q 2327 2798 1968 2798 
Q 1602 2798 1416 2496 
Q 1230 2195 1230 1739 
Q 1230 1282 1416 982 
Q 1602 682 1968 682 
z
" transform="scale(0.015625)"/>
      <path id="Inter-Bold-66" d="M 2296 3491 
L 2296 2764 
L 1602 2764 
L 1602 0 
L 634 0 
L 634 2764 
L 141 2764 
L 141 3491 
L 634 3491 
L 634 3743 
Q 634 4314 960 4593 
Q 1286 4873 1780 4873 
Q 2002 4873 2187 4839 
Q 2373 4805 2464 4777 
L 2293 4050 
Q 2236 4068 2152 4084 
Q 2068 4100 1982 4100 
Q 1768 4100 1685 4001 
Q 1602 3902 1602 3725 
L 1602 3491 
L 2296 3491 
z
" transform="scale(0.015625)"/>
      <path id="Inter-Bold-70" d="M 386 -1309 
L 386 3491 
L 1341 3491 
L 1341 2905 
L 1384 2905 
Q 1450 3048 1570 3193 
Q 1691 3339 1888 3437 
Q 2086 3536 2377 3536 
Q 2761 3536 3081 3337 
Q 3402 3139 3596 2740 
Q 3791 2341 3791 1741 
Q 3791 1157 3602 756 
Q 3414 355 3093 149 
Q 2773 -57 2375 -57 
Q 2093 -57 1896 36 
Q 1700 130 1576 272 
Q 1452 414 1384 559 
L 1355 559 
L 1355 -1309 
L 386 -1309 
z
M 1334 1745 
Q 1334 1280 1526 997 
Q 1718 714 2068 714 
Q 2425 714 2613 1001 
Q 2802 1289 2802 1745 
Q 2802 2200 2614 2483 
Q 2427 2766 2068 2766 
Q 1716 2766 1525 2490 
Q 1334 2214 1334 1745 
z
" transform="scale(0.015625)"/>
      <path id="Inter-Bold-4f" d="M 4682 2327 
Q 4682 1566 4394 1032 
Q 4107 498 3614 217 
Q 3121 -64 2502 -64 
Q 1882 -64 1389 218 
Q 896 500 609 1035 
Q 323 1570 323 2327 
Q 323 3089 609 3623 
Q 896 4157 1389 4437 
Q 1882 4718 2502 4718 
Q 3121 4718 3614 4437 
Q 4107 4157 4394 3623 
Q 4682 3089 4682 2327 
z
M 3684 2327 
Q 3684 3068 3361 3458 
Q 3039 3848 2502 3848 
Q 1966 3848 1643 3458 
Q 1321 3068 1321 2327 
Q 1321 1589 1643 1198 
Q 1966 807 2502 807 
Q 3039 807 3361 1198 
Q 3684 1589 3684 2327 
z
" transform="scale(0.015625)"/>
      <path id="Inter-Bold-56" d="M 1246 4655 
L 2371 1118 
L 2414 1118 
L 3541 4655 
L 4632 4655 
L 3027 0 
L 1759 0 
L 152 4655 
L 1246 4655 
z
" transform="scale(0.015625)"/>
      <path id="Inter-Bold-49" d="M 1389 4655 
L 1389 0 
L 405 0 
L 405 4655 
L 1389 4655 
z
" transform="scale(0.015625)"/>
      <path id="Inter-Bold-44" d="M 2055 0 
L 405 0 
L 405 4655 
L 2068 4655 
Q 2771 4655 3278 4376 
Q 3786 4098 4059 3577 
Q 4332 3057 4332 2332 
Q 4332 1605 4058 1082 
Q 3784 559 3274 279 
Q 2764 0 2055 0 
z
M 1389 843 
L 2014 843 
Q 2671 843 3010 1197 
Q 3350 1552 3350 2332 
Q 3350 3107 3010 3459 
Q 2671 3811 2016 3811 
L 1389 3811 
L 1389 843 
z
" transform="scale(0.015625)"/>
      <path id="Inter-Bold-2d" d="M 2561 2295 
L 2561 1527 
L 439 1527 
L 439 2295 
L 2561 2295 
z
" transform="scale(0.015625)"/>
      <path id="Inter-Bold-31" d="M 2305 4655 
L 2305 0 
L 1323 0 
L 1323 3450 
L 1280 3450 
Q 1205 3334 961 3219 
Q 718 3105 332 3105 
L 332 3886 
Q 632 3886 857 4019 
Q 1082 4152 1209 4333 
Q 1336 4514 1341 4655 
L 2305 4655 
z
" transform="scale(0.015625)"/>
      <path id="Inter-Bold-39" d="M 2061 4732 
Q 2421 4732 2753 4612 
Q 3086 4493 3348 4227 
Q 3611 3961 3766 3523 
Q 3921 3086 3921 2448 
Q 3921 1659 3686 1096 
Q 3452 534 3028 235 
Q 2605 -64 2027 -64 
Q 1561 -64 1204 117 
Q 848 298 631 610 
Q 414 923 368 1314 
L 1339 1314 
Q 1396 1059 1577 919 
Q 1759 780 2027 780 
Q 2482 780 2718 1176 
Q 2955 1573 2957 2264 
L 2925 2264 
Q 2771 1957 2453 1782 
Q 2136 1607 1752 1607 
Q 1341 1607 1016 1801 
Q 691 1995 506 2334 
Q 321 2673 323 3109 
Q 321 3582 539 3949 
Q 757 4316 1149 4525 
Q 1541 4734 2061 4732 
z
M 2068 3959 
Q 1725 3959 1500 3722 
Q 1275 3486 1277 3136 
Q 1275 2791 1496 2555 
Q 1718 2320 2059 2320 
Q 2284 2320 2465 2431 
Q 2646 2543 2751 2729 
Q 2857 2916 2859 3141 
Q 2857 3366 2753 3551 
Q 2650 3736 2473 3847 
Q 2296 3959 2068 3959 
z
" transform="scale(0.015625)"/>
      <path id="Inter-Bold-2c" d="M 1439 636 
L 1414 386 
Q 1384 86 1301 -212 
Q 1218 -511 1128 -754 
Q 1039 -998 984 -1136 
L 357 -1136 
Q 391 -1002 450 -763 
Q 509 -525 561 -226 
Q 614 73 627 382 
L 639 636 
L 1439 636 
z
" transform="scale(0.015625)"/>
      <path id="Inter-Bold-72" d="M 386 0 
L 386 3491 
L 1325 3491 
L 1325 2882 
L 1361 2882 
Q 1457 3207 1681 3374 
Q 1905 3541 2200 3541 
Q 2341 3541 2461 3507 
Q 2582 3473 2677 3414 
L 2386 2614 
Q 2318 2648 2237 2671 
Q 2157 2695 2057 2695 
Q 1764 2695 1560 2495 
Q 1357 2295 1355 1975 
L 1355 0 
L 386 0 
z
" transform="scale(0.015625)"/>
      <path id="Inter-Bold-63" d="M 1964 -68 
Q 1427 -68 1042 160 
Q 657 389 451 795 
Q 246 1202 246 1732 
Q 246 2268 453 2674 
Q 661 3080 1045 3308 
Q 1430 3536 1959 3536 
Q 2416 3536 2760 3370 
Q 3105 3205 3303 2905 
Q 3502 2605 3523 2200 
L 2609 2200 
Q 2571 2461 2406 2621 
Q 2241 2782 1975 2782 
Q 1639 2782 1434 2511 
Q 1230 2241 1230 1745 
Q 1230 1245 1433 971 
Q 1636 698 1975 698 
Q 2225 698 2395 849 
Q 2566 1000 2609 1280 
L 3523 1280 
Q 3500 880 3305 575 
Q 3111 270 2770 101 
Q 2430 -68 1964 -68 
z
" transform="scale(0.015625)"/>
     </defs>
     <use xlink:href="#Inter-Bold-43"/>
     <use xlink:href="#Inter-Bold-75" x="75.213089"/>
     <use xlink:href="#Inter-Bold-6d" x="137.393494"/>
     <use xlink:href="#Inter-Bold-75" x="228.5867"/>
     <use xlink:href="#Inter-Bold-6c" x="290.767105"/>
     <use xlink:href="#Inter-Bold-61" x="317.968811"/>
     <use xlink:href="#Inter-Bold-74" x="375.994385"/>
     <use xlink:href="#Inter-Bold-69" x="414.843826"/>
     <use xlink:href="#Inter-Bold-76" x="442.045532"/>
     <use xlink:href="#Inter-Bold-65" x="500.639297"/>
     <use xlink:href="#Inter-Bold-20" x="560.404938"/>
     <use xlink:href="#Inter-Bold-64" x="583.593857"/>
     <use xlink:href="#Inter-Bold-65" x="647.123703"/>
     <use xlink:href="#Inter-Bold-61" x="706.889343"/>
     <use xlink:href="#Inter-Bold-74" x="764.914917"/>
     <use xlink:href="#Inter-Bold-68" x="803.764359"/>
     <use xlink:href="#Inter-Bold-73" x="866.193344"/>
     <use xlink:href="#Inter-Bold-20" x="922.37233"/>
     <use xlink:href="#Inter-Bold-77" x="945.561249"/>
     <use xlink:href="#Inter-Bold-69" x="1030.57547"/>
     <use xlink:href="#Inter-Bold-74" x="1057.777176"/>
     <use xlink:href="#Inter-Bold-68" x="1096.626617"/>
     <use xlink:href="#Inter-Bold-69" x="1159.055603"/>
     <use xlink:href="#Inter-Bold-6e" x="1186.257309"/>
     <use xlink:href="#Inter-Bold-20" x="1248.437714"/>
     <use xlink:href="#Inter-Bold-34" x="1271.626633"/>
     <use xlink:href="#Inter-Bold-20" x="1339.417847"/>
     <use xlink:href="#Inter-Bold-77" x="1362.606766"/>
     <use xlink:href="#Inter-Bold-65" x="1447.620987"/>
     <use xlink:href="#Inter-Bold-65" x="1507.386627"/>
     <use xlink:href="#Inter-Bold-6b" x="1567.152267"/>
     <use xlink:href="#Inter-Bold-73" x="1625.319885"/>
     <use xlink:href="#Inter-Bold-20" x="1681.498871"/>
     <use xlink:href="#Inter-Bold-6f" x="1704.68779"/>
     <use xlink:href="#Inter-Bold-66" x="1766.051437"/>
     <use xlink:href="#Inter-Bold-20" x="1805.113937"/>
     <use xlink:href="#Inter-Bold-61" x="1828.302856"/>
     <use xlink:href="#Inter-Bold-20" x="1886.32843"/>
     <use xlink:href="#Inter-Bold-70" x="1909.517349"/>
     <use xlink:href="#Inter-Bold-6f" x="1972.763107"/>
     <use xlink:href="#Inter-Bold-73" x="2034.126755"/>
     <use xlink:href="#Inter-Bold-69" x="2090.30574"/>
     <use xlink:href="#Inter-Bold-74" x="2117.507446"/>
     <use xlink:href="#Inter-Bold-69" x="2156.356888"/>
     <use xlink:href="#Inter-Bold-76" x="2183.558594"/>
     <use xlink:href="#Inter-Bold-65" x="2242.152359"/>
     <use xlink:href="#Inter-Bold-20" x="2301.917999"/>
     <use xlink:href="#Inter-Bold-43" x="2325.106918"/>
     <use xlink:href="#Inter-Bold-4f" x="2400.320007"/>
     <use xlink:href="#Inter-Bold-56" x="2478.516052"/>
     <use xlink:href="#Inter-Bold-49" x="2553.302994"/>
     <use xlink:href="#Inter-Bold-44" x="2581.356979"/>
     <use xlink:href="#Inter-Bold-2d" x="2654.084274"/>
     <use xlink:href="#Inter-Bold-31" x="2700.95929"/>
     <use xlink:href="#Inter-Bold-39" x="2748.366974"/>
     <use xlink:href="#Inter-Bold-20" x="2814.382614"/>
     <use xlink:href="#Inter-Bold-74" x="2837.571533"/>
     <use xlink:href="#Inter-Bold-65" x="2876.420975"/>
     <use xlink:href="#Inter-Bold-73" x="2936.186615"/>
     <use xlink:href="#Inter-Bold-74" x="2992.365601"/>
     <use xlink:href="#Inter-Bold-2c" x="3031.215042"/>
     <use xlink:href="#Inter-Bold-20" x="3061.506241"/>
     <use xlink:href="#Inter-Bold-70" x="3084.69516"/>
     <use xlink:href="#Inter-Bold-65" x="3147.940918"/>
     <use xlink:href="#Inter-Bold-72" x="3207.706558"/>
     <use xlink:href="#Inter-Bold-20" x="3250.568787"/>
     <use xlink:href="#Inter-Bold-63" x="3273.757706"/>
     <use xlink:href="#Inter-Bold-61" x="3332.493515"/>
     <use xlink:href="#Inter-Bold-70" x="3390.519089"/>
     <use xlink:href="#Inter-Bold-69" x="3453.764847"/>
     <use xlink:href="#Inter-Bold-74" x="3480.966553"/>
     <use xlink:href="#Inter-Bold-61" x="3519.815994"/>
    </g>
   </g>
   <g id="legend_1">
    <g id="patch_4">
     <path d="M 75.3625 98.614062 
L 184.935938 98.614062 
Q 186.935938 98.614062 186.935938 96.614062 
L 186.935938 40.225 
Q 186.935938 38.225 184.935938 38.225 
L 75.3625 38.225 
Q 73.3625 38.225 73.3625 40.225 
L 73.3625 96.614062 
Q 73.3625 98.614062 75.3625 98.614062 
z
" style="fill: #ffffff; opacity: 0.8; stroke: #cccccc; stroke-linejoin: miter"/>
    </g>
    <g id="line2d_38">
     <path d="M 77.3625 45.998437 
L 87.3625 45.998437 
L 97.3625 45.998437 
" style="fill: none; stroke: #d4351c; stroke-width: 2; stroke-linecap: square"/>
    </g>
    <g id="text_20">
     <!-- Wales -->
     <g transform="translate(105.3625 49.498437)scale(0.1 -0.1)">
      <defs>
       <path id="Inter-Regular-57" d="M 1409 0 
L 136 4655 
L 709 4655 
L 1682 864 
L 1727 864 
L 2718 4655 
L 3355 4655 
L 4346 864 
L 4391 864 
L 5364 4655 
L 5936 4655 
L 4664 0 
L 4082 0 
L 3055 3709 
L 3018 3709 
L 1991 0 
L 1409 0 
z
" transform="scale(0.015625)"/>
      </defs>
      <use xlink:href="#Inter-Regular-57"/>
      <use xlink:href="#Inter-Regular-61" x="94.886383"/>
      <use xlink:href="#Inter-Regular-6c" x="151.278442"/>
      <use xlink:href="#Inter-Regular-65" x="175.000031"/>
      <use xlink:href="#Inter-Regular-73" x="233.238678"/>
     </g>
    </g>
    <g id="line2d_39">
     <path d="M 77.3625 60.317187 
L 87.3625 60.317187 
L 97.3625 60.317187 
" style="fill: none; stroke: #003078; stroke-width: 2; stroke-linecap: square"/>
    </g>
    <g id="text_21">
     <!-- Scotland -->
     <g transform="translate(105.3625 63.817187)scale(0.1 -0.1)">
      <use xlink:href="#Inter-Regular-53"/>
      <use xlink:href="#Inter-Regular-63" x="63.778427"/>
      <use xlink:href="#Inter-Regular-6f" x="119.602295"/>
      <use xlink:href="#Inter-Regular-74" x="179.261398"/>
      <use xlink:href="#Inter-Regular-6c" x="215.625046"/>
      <use xlink:href="#Inter-Regular-61" x="239.346634"/>
      <use xlink:href="#Inter-Regular-6e" x="295.738693"/>
      <use xlink:href="#Inter-Regular-64" x="354.261429"/>
     </g>
    </g>
    <g id="line2d_40">
     <path d="M 77.3625 74.635937 
L 87.3625 74.635937 
L 97.3625 74.635937 
" style="fill: none; stroke: #ffdd00; stroke-width: 2; stroke-linecap: square"/>
    </g>
    <g id="text_22">
     <!-- Northern Ireland -->
     <g transform="translate(105.3625 78.135937)scale(0.1 -0.1)">
      <defs>
       <path id="Inter-Regular-49" d="M 1127 4655 
L 1127 0 
L 564 0 
L 564 4655 
L 1127 4655 
z
" transform="scale(0.015625)"/>
      </defs>
      <use xlink:href="#Inter-Regular-4e"/>
      <use xlink:href="#Inter-Regular-6f" x="75.284103"/>
      <use xlink:href="#Inter-Regular-72" x="134.943207"/>
      <use xlink:href="#Inter-Regular-74" x="173.295486"/>
      <use xlink:href="#Inter-Regular-68" x="209.659134"/>
      <use xlink:href="#Inter-Regular-65" x="268.750061"/>
      <use xlink:href="#Inter-Regular-72" x="326.988708"/>
      <use xlink:href="#Inter-Regular-6e" x="365.340988"/>
      <use xlink:href="#Inter-Regular-20" x="423.863724"/>
      <use xlink:href="#Inter-Regular-49" x="451.988724"/>
      <use xlink:href="#Inter-Regular-72" x="478.40918"/>
      <use xlink:href="#Inter-Regular-65" x="516.761459"/>
      <use xlink:href="#Inter-Regular-6c" x="575.000107"/>
      <use xlink:href="#Inter-Regular-61" x="598.721695"/>
      <use xlink:href="#Inter-Regular-6e" x="655.113754"/>
      <use xlink:href="#Inter-Regular-64" x="713.63649"/>
     </g>
    </g>
    <g id="line2d_41">
     <path d="M 77.3625 88.954687 
L 87.3625 88.954687 
L 97.3625 88.954687 
" style="fill: none; stroke: #5694ca; stroke-width: 2; stroke-linecap: square"/>
    </g>
    <g id="text_23">
     <!-- England -->
     <g transform="translate(105.3625 92.454687)scale(0.1 -0.1)">
      <defs>
       <path id="Inter-Regular-45" d="M 564 0 
L 564 4655 
L 3373 4655 
L 3373 4155 
L 1127 4155 
L 1127 2582 
L 3227 2582 
L 3227 2082 
L 1127 2082 
L 1127 500 
L 3409 500 
L 3409 0 
L 564 0 
z
" transform="scale(0.015625)"/>
       <path id="Inter-Regular-67" d="M 1900 -1382 
Q 1316 -1382 976 -1169 
Q 636 -957 473 -682 
L 900 -382 
Q 973 -477 1084 -601 
Q 1196 -725 1390 -817 
Q 1584 -909 1900 -909 
Q 2323 -909 2598 -704 
Q 2873 -500 2873 -64 
L 2873 645 
L 2827 645 
Q 2768 550 2660 410 
Q 2552 270 2351 162 
Q 2150 55 1809 55 
Q 1386 55 1051 255 
Q 716 455 521 836 
Q 327 1218 327 1764 
Q 327 2300 516 2699 
Q 705 3098 1041 3317 
Q 1377 3536 1818 3536 
Q 2159 3536 2360 3423 
Q 2561 3311 2669 3169 
Q 2777 3027 2836 2936 
L 2891 2936 
L 2891 3491 
L 3409 3491 
L 3409 -100 
Q 3409 -550 3205 -833 
Q 3002 -1116 2660 -1249 
Q 2318 -1382 1900 -1382 
z
M 1882 536 
Q 2366 536 2624 864 
Q 2882 1193 2882 1773 
Q 2882 2339 2627 2697 
Q 2373 3055 1882 3055 
Q 1541 3055 1315 2882 
Q 1089 2709 976 2418 
Q 864 2127 864 1773 
Q 864 1227 1120 881 
Q 1377 536 1882 536 
z
" transform="scale(0.015625)"/>
      </defs>
      <use xlink:href="#Inter-Regular-45"/>
      <use xlink:href="#Inter-Regular-6e" x="59.801147"/>
      <use xlink:href="#Inter-Regular-67" x="118.323883"/>
      <use xlink:href="#Inter-Regular-6c" x="179.261398"/>
      <use xlink:href="#Inter-Regular-61" x="202.982986"/>
      <use xlink:href="#Inter-Regular-6e" x="259.375046"/>
      <use xlink:href="#Inter-Regular-64" x="317.897781"/>
     </g>
    </g>
   </g>
  </g>
 </g>
 <defs>
  <clipPath id="p2a03156011">
   <rect x="68.3625" y="33.225" width="669.6" height="443.52"/>
  </clipPath>
 </defs>
</svg>
