<?xml version="1.0" encoding="utf-8" standalone="no"?>
<!DOCTYPE svg PUBLIC "-//W3C//DTD SVG 1.1//EN"
  "http://www.w3.org/Graphics/SVG/1.1/DTD/svg11.dtd">
<svg version="1.1" viewBox="0 0 776.931581 511.27625" xmlns="http://www.w3.org/2000/svg" xmlns:xlink="http://www.w3.org/1999/xlink">
 <metadata>
  <rdf:RDF xmlns:cc="http://creativecommons.org/ns#" xmlns:dc="http://purl.org/dc/elements/1.1/" xmlns:rdf="http://www.w3.org/1999/02/22-rdf-syntax-ns#">
   <cc:Work>
    <dc:type rdf:resource="http://purl.org/dc/dcmitype/StillImage"/>
    <dc:date>2021-06-05T16:48:56.931551</dc:date>
    <dc:format>image/svg+xml</dc:format>
    <dc:creator>
     <cc:Agent>
      <dc:title>Matplotlib v3.4.2, https://matplotlib.org/</dc:title>
     </cc:Agent>
    </dc:creator>
   </cc:Work>
  </rdf:RDF>
 </metadata>
 <defs>
  <style type="text/css">*{stroke-linecap:butt;stroke-linejoin:round;}</style>
 </defs>
 <g id="figure_1">
  <g id="patch_1">
   <path d="M 0 511.27625 
L 776.931581 511.27625 
L 776.931581 0 
L 0 0 
z
" style="fill:#ffffff;"/>
  </g>
  <g id="axes_1">
   <g id="patch_2">
    <path d="M 80.8625 476.745 
L 750.4625 476.745 
L 750.4625 33.225 
L 80.8625 33.225 
z
" style="fill:#ffffff;"/>
   </g>
   <g id="matplotlib.axis_1">
    <g id="xtick_1">
     <g id="line2d_1">
      <defs>
       <path d="M 0 0 
L 0 3.5 
" id="m594bb6b99b" style="stroke:#000000;stroke-width:0.8;"/>
      </defs>
      <g>
       <use style="stroke:#000000;stroke-width:0.8;" x="80.8625" xlink:href="#m594bb6b99b" y="476.745"/>
      </g>
     </g>
     <g id="text_1">
      <!-- 01 Mar -->
      <g transform="translate(64.825781 491.018438)scale(0.1 -0.1)">
       <defs>
        <path d="M 2000 -64 
Q 1230 -64 806 561 
Q 382 1186 382 2327 
Q 382 3459 809 4088 
Q 1236 4718 2000 4718 
Q 2764 4718 3191 4088 
Q 3618 3459 3618 2327 
Q 3618 1186 3194 561 
Q 2771 -64 2000 -64 
z
M 2000 436 
Q 2509 436 2791 927 
Q 3073 1418 3073 2327 
Q 3073 3234 2789 3730 
Q 2505 4227 2000 4227 
Q 1496 4227 1211 3730 
Q 927 3234 927 2327 
Q 927 1418 1210 927 
Q 1493 436 2000 436 
z
" id="Inter-Regular-30" transform="scale(0.015625)"/>
        <path d="M 1973 4655 
L 1973 0 
L 1409 0 
L 1409 3836 
L 1373 3836 
Q 1341 3773 1209 3692 
Q 1077 3611 868 3551 
Q 659 3491 391 3491 
L 391 3964 
Q 661 3964 859 4061 
Q 1057 4159 1190 4291 
Q 1323 4423 1392 4529 
Q 1461 4636 1473 4655 
L 1973 4655 
z
" id="Inter-Regular-31" transform="scale(0.015625)"/>
        <path id="Inter-Regular-20" transform="scale(0.015625)"/>
        <path d="M 564 4655 
L 1236 4655 
L 2818 791 
L 2873 791 
L 4455 4655 
L 5127 4655 
L 5127 0 
L 4600 0 
L 4600 3536 
L 4555 3536 
L 3100 0 
L 2591 0 
L 1136 3536 
L 1091 3536 
L 1091 0 
L 564 0 
L 564 4655 
z
" id="Inter-Regular-4d" transform="scale(0.015625)"/>
        <path d="M 1518 -82 
Q 1186 -82 916 44 
Q 646 170 486 410 
Q 327 650 327 991 
Q 327 1291 445 1478 
Q 564 1666 761 1773 
Q 959 1880 1199 1933 
Q 1439 1986 1682 2018 
Q 2000 2059 2199 2080 
Q 2398 2102 2490 2154 
Q 2582 2207 2582 2336 
L 2582 2355 
Q 2582 2691 2399 2877 
Q 2216 3064 1846 3064 
Q 1461 3064 1243 2895 
Q 1025 2727 936 2536 
L 427 2718 
Q 564 3036 792 3214 
Q 1021 3393 1292 3464 
Q 1564 3536 1827 3536 
Q 1996 3536 2215 3496 
Q 2434 3457 2640 3334 
Q 2846 3211 2982 2963 
Q 3118 2716 3118 2300 
L 3118 0 
L 2582 0 
L 2582 473 
L 2555 473 
Q 2500 359 2373 229 
Q 2246 100 2034 9 
Q 1823 -82 1518 -82 
z
M 1600 400 
Q 1918 400 2137 525 
Q 2357 650 2469 847 
Q 2582 1045 2582 1264 
L 2582 1755 
Q 2548 1714 2433 1681 
Q 2318 1648 2169 1624 
Q 2021 1600 1881 1583 
Q 1741 1566 1655 1555 
Q 1446 1527 1265 1467 
Q 1084 1407 974 1287 
Q 864 1168 864 964 
Q 864 684 1072 542 
Q 1280 400 1600 400 
z
" id="Inter-Regular-61" transform="scale(0.015625)"/>
        <path d="M 491 0 
L 491 3491 
L 1009 3491 
L 1009 2964 
L 1046 2964 
Q 1139 3223 1389 3384 
Q 1639 3545 1955 3545 
Q 2100 3545 2209 3511 
Q 2318 3477 2400 3418 
L 2218 2964 
Q 2161 2993 2085 3010 
Q 2009 3027 1909 3027 
Q 1527 3027 1277 2794 
Q 1027 2561 1027 2209 
L 1027 0 
L 491 0 
z
" id="Inter-Regular-72" transform="scale(0.015625)"/>
       </defs>
       <use xlink:href="#Inter-Regular-30"/>
       <use x="62.500015" xlink:href="#Inter-Regular-31"/>
       <use x="106.676163" xlink:href="#Inter-Regular-20"/>
       <use x="134.801163" xlink:href="#Inter-Regular-4d"/>
       <use x="225.99437" xlink:href="#Inter-Regular-61"/>
       <use x="282.386429" xlink:href="#Inter-Regular-72"/>
      </g>
     </g>
    </g>
    <g id="xtick_2">
     <g id="line2d_2">
      <g>
       <use style="stroke:#000000;stroke-width:0.8;" x="125.821638" xlink:href="#m594bb6b99b" y="476.745"/>
      </g>
     </g>
     <g id="text_2">
      <!-- 01 Apr -->
      <g transform="translate(110.736481 491.116875)scale(0.1 -0.1)">
       <defs>
        <path d="M 755 0 
L 164 0 
L 1873 4655 
L 2455 4655 
L 4164 0 
L 3573 0 
L 3105 1318 
L 1223 1318 
L 755 0 
z
M 1400 1818 
L 2927 1818 
L 2182 3918 
L 2146 3918 
L 1400 1818 
z
" id="Inter-Regular-41" transform="scale(0.015625)"/>
        <path d="M 491 -1309 
L 491 3491 
L 1009 3491 
L 1009 2936 
L 1073 2936 
Q 1132 3027 1237 3169 
Q 1343 3311 1542 3423 
Q 1741 3536 2082 3536 
Q 2523 3536 2859 3315 
Q 3196 3095 3384 2690 
Q 3573 2286 3573 1736 
Q 3573 1182 3384 776 
Q 3196 370 2861 148 
Q 2527 -73 2091 -73 
Q 1755 -73 1552 39 
Q 1350 152 1241 296 
Q 1132 441 1073 536 
L 1027 536 
L 1027 -1309 
L 491 -1309 
z
M 1018 1745 
Q 1018 1152 1276 780 
Q 1534 409 2018 409 
Q 2355 409 2581 587 
Q 2807 766 2921 1069 
Q 3036 1373 3036 1745 
Q 3036 2114 2923 2410 
Q 2811 2707 2585 2881 
Q 2359 3055 2018 3055 
Q 1527 3055 1272 2693 
Q 1018 2332 1018 1745 
z
" id="Inter-Regular-70" transform="scale(0.015625)"/>
       </defs>
       <use xlink:href="#Inter-Regular-30"/>
       <use x="62.500015" xlink:href="#Inter-Regular-31"/>
       <use x="106.676163" xlink:href="#Inter-Regular-20"/>
       <use x="134.801163" xlink:href="#Inter-Regular-41"/>
       <use x="202.41481" xlink:href="#Inter-Regular-70"/>
       <use x="263.352325" xlink:href="#Inter-Regular-72"/>
      </g>
     </g>
    </g>
    <g id="xtick_3">
     <g id="line2d_3">
      <g>
       <use style="stroke:#000000;stroke-width:0.8;" x="169.33048" xlink:href="#m594bb6b99b" y="476.745"/>
      </g>
     </g>
     <g id="text_3">
      <!-- 01 May -->
      <g transform="translate(152.427355 491.116875)scale(0.1 -0.1)">
       <defs>
        <path d="M 818 -1355 
Q 682 -1355 575 -1333 
Q 468 -1311 427 -1291 
L 564 -818 
Q 857 -893 1053 -814 
Q 1250 -736 1391 -345 
L 1509 -18 
L 218 3491 
L 800 3491 
L 1764 709 
L 1800 709 
L 2764 3491 
L 3346 3491 
L 1846 -564 
Q 1550 -1355 818 -1355 
z
" id="Inter-Regular-79" transform="scale(0.015625)"/>
       </defs>
       <use xlink:href="#Inter-Regular-30"/>
       <use x="62.500015" xlink:href="#Inter-Regular-31"/>
       <use x="106.676163" xlink:href="#Inter-Regular-20"/>
       <use x="134.801163" xlink:href="#Inter-Regular-4d"/>
       <use x="225.99437" xlink:href="#Inter-Regular-61"/>
       <use x="282.386429" xlink:href="#Inter-Regular-79"/>
      </g>
     </g>
    </g>
    <g id="xtick_4">
     <g id="line2d_4">
      <g>
       <use style="stroke:#000000;stroke-width:0.8;" x="214.289618" xlink:href="#m594bb6b99b" y="476.745"/>
      </g>
     </g>
     <g id="text_4">
      <!-- 01 Jun -->
      <g transform="translate(199.005243 491.018438)scale(0.1 -0.1)">
       <defs>
        <path d="M 2346 4655 
L 2909 4655 
L 2909 1327 
Q 2909 657 2549 296 
Q 2189 -64 1582 -64 
Q 1200 -64 902 76 
Q 605 216 434 475 
Q 264 734 264 1091 
L 818 1091 
Q 818 795 1034 615 
Q 1250 436 1582 436 
Q 1948 436 2147 664 
Q 2346 893 2346 1327 
L 2346 4655 
z
" id="Inter-Regular-4a" transform="scale(0.015625)"/>
        <path d="M 2691 1427 
L 2691 3491 
L 3227 3491 
L 3227 0 
L 2691 0 
L 2691 591 
L 2655 591 
Q 2532 325 2273 140 
Q 2014 -45 1618 -45 
Q 1127 -45 809 280 
Q 491 605 491 1273 
L 491 3491 
L 1027 3491 
L 1027 1309 
Q 1027 927 1242 700 
Q 1457 473 1791 473 
Q 1991 473 2199 575 
Q 2407 677 2549 888 
Q 2691 1100 2691 1427 
z
" id="Inter-Regular-75" transform="scale(0.015625)"/>
        <path d="M 1027 2100 
L 1027 0 
L 491 0 
L 491 3491 
L 1009 3491 
L 1009 2945 
L 1055 2945 
Q 1177 3211 1427 3373 
Q 1677 3536 2073 3536 
Q 2602 3536 2928 3211 
Q 3255 2886 3255 2218 
L 3255 0 
L 2718 0 
L 2718 2182 
Q 2718 2593 2504 2824 
Q 2291 3055 1918 3055 
Q 1534 3055 1280 2806 
Q 1027 2557 1027 2100 
z
" id="Inter-Regular-6e" transform="scale(0.015625)"/>
       </defs>
       <use xlink:href="#Inter-Regular-30"/>
       <use x="62.500015" xlink:href="#Inter-Regular-31"/>
       <use x="106.676163" xlink:href="#Inter-Regular-20"/>
       <use x="134.801163" xlink:href="#Inter-Regular-4a"/>
       <use x="189.062531" xlink:href="#Inter-Regular-75"/>
       <use x="247.159134" xlink:href="#Inter-Regular-6e"/>
      </g>
     </g>
    </g>
    <g id="xtick_5">
     <g id="line2d_5">
      <g>
       <use style="stroke:#000000;stroke-width:0.8;" x="257.798461" xlink:href="#m594bb6b99b" y="476.745"/>
      </g>
     </g>
     <g id="text_5">
      <!-- 01 Jul -->
      <g transform="translate(244.254711 491.018438)scale(0.1 -0.1)">
       <defs>
        <path d="M 1027 4655 
L 1027 0 
L 491 0 
L 491 4655 
L 1027 4655 
z
" id="Inter-Regular-6c" transform="scale(0.015625)"/>
       </defs>
       <use xlink:href="#Inter-Regular-30"/>
       <use x="62.500015" xlink:href="#Inter-Regular-31"/>
       <use x="106.676163" xlink:href="#Inter-Regular-20"/>
       <use x="134.801163" xlink:href="#Inter-Regular-4a"/>
       <use x="189.062531" xlink:href="#Inter-Regular-75"/>
       <use x="247.159134" xlink:href="#Inter-Regular-6c"/>
      </g>
     </g>
    </g>
    <g id="xtick_6">
     <g id="line2d_6">
      <g>
       <use style="stroke:#000000;stroke-width:0.8;" x="302.757598" xlink:href="#m594bb6b99b" y="476.745"/>
      </g>
     </g>
     <g id="text_6">
      <!-- 01 Aug -->
      <g transform="translate(286.685723 491.116875)scale(0.1 -0.1)">
       <defs>
        <path d="M 1900 -1382 
Q 1316 -1382 976 -1169 
Q 636 -957 473 -682 
L 900 -382 
Q 973 -477 1084 -601 
Q 1196 -725 1390 -817 
Q 1584 -909 1900 -909 
Q 2323 -909 2598 -704 
Q 2873 -500 2873 -64 
L 2873 645 
L 2827 645 
Q 2768 550 2660 410 
Q 2552 270 2351 162 
Q 2150 55 1809 55 
Q 1386 55 1051 255 
Q 716 455 521 836 
Q 327 1218 327 1764 
Q 327 2300 516 2699 
Q 705 3098 1041 3317 
Q 1377 3536 1818 3536 
Q 2159 3536 2360 3423 
Q 2561 3311 2669 3169 
Q 2777 3027 2836 2936 
L 2891 2936 
L 2891 3491 
L 3409 3491 
L 3409 -100 
Q 3409 -550 3205 -833 
Q 3002 -1116 2660 -1249 
Q 2318 -1382 1900 -1382 
z
M 1882 536 
Q 2366 536 2624 864 
Q 2882 1193 2882 1773 
Q 2882 2339 2627 2697 
Q 2373 3055 1882 3055 
Q 1541 3055 1315 2882 
Q 1089 2709 976 2418 
Q 864 2127 864 1773 
Q 864 1227 1120 881 
Q 1377 536 1882 536 
z
" id="Inter-Regular-67" transform="scale(0.015625)"/>
       </defs>
       <use xlink:href="#Inter-Regular-30"/>
       <use x="62.500015" xlink:href="#Inter-Regular-31"/>
       <use x="106.676163" xlink:href="#Inter-Regular-20"/>
       <use x="134.801163" xlink:href="#Inter-Regular-41"/>
       <use x="202.41481" xlink:href="#Inter-Regular-75"/>
       <use x="260.511414" xlink:href="#Inter-Regular-67"/>
      </g>
     </g>
    </g>
    <g id="xtick_7">
     <g id="line2d_7">
      <g>
       <use style="stroke:#000000;stroke-width:0.8;" x="347.716736" xlink:href="#m594bb6b99b" y="476.745"/>
      </g>
     </g>
     <g id="text_7">
      <!-- 01 Sep -->
      <g transform="translate(331.829236 491.116875)scale(0.1 -0.1)">
       <defs>
        <path d="M 3109 3491 
Q 3068 3836 2777 4027 
Q 2486 4218 2064 4218 
Q 1600 4218 1318 3999 
Q 1036 3780 1036 3445 
Q 1036 3195 1189 3042 
Q 1343 2889 1553 2803 
Q 1764 2718 1936 2673 
L 2409 2545 
Q 2591 2498 2815 2414 
Q 3039 2330 3244 2185 
Q 3450 2041 3584 1816 
Q 3718 1591 3718 1264 
Q 3718 886 3521 581 
Q 3325 277 2949 97 
Q 2573 -82 2036 -82 
Q 1286 -82 845 272 
Q 405 627 364 1200 
L 946 1200 
Q 968 936 1124 764 
Q 1280 593 1519 510 
Q 1759 427 2036 427 
Q 2359 427 2616 533 
Q 2873 639 3023 828 
Q 3173 1018 3173 1273 
Q 3173 1505 3043 1650 
Q 2914 1795 2702 1886 
Q 2491 1977 2246 2045 
L 1673 2209 
Q 1127 2366 809 2657 
Q 491 2948 491 3418 
Q 491 3809 703 4101 
Q 916 4393 1276 4555 
Q 1636 4718 2082 4718 
Q 2532 4718 2882 4558 
Q 3232 4398 3437 4120 
Q 3643 3843 3655 3491 
L 3109 3491 
z
" id="Inter-Regular-53" transform="scale(0.015625)"/>
        <path d="M 1955 -73 
Q 1450 -73 1085 151 
Q 721 375 524 778 
Q 327 1182 327 1718 
Q 327 2255 524 2665 
Q 721 3075 1074 3305 
Q 1427 3536 1900 3536 
Q 2173 3536 2439 3445 
Q 2705 3355 2923 3151 
Q 3141 2948 3270 2614 
Q 3400 2280 3400 1791 
L 3400 1564 
L 866 1564 
Q 884 1005 1183 707 
Q 1482 409 1955 409 
Q 2271 409 2498 545 
Q 2725 682 2827 955 
L 3346 809 
Q 3223 414 2854 170 
Q 2486 -73 1955 -73 
z
M 866 2027 
L 2855 2027 
Q 2855 2470 2595 2762 
Q 2336 3055 1900 3055 
Q 1593 3055 1368 2911 
Q 1143 2768 1013 2533 
Q 884 2298 866 2027 
z
" id="Inter-Regular-65" transform="scale(0.015625)"/>
       </defs>
       <use xlink:href="#Inter-Regular-30"/>
       <use x="62.500015" xlink:href="#Inter-Regular-31"/>
       <use x="106.676163" xlink:href="#Inter-Regular-20"/>
       <use x="134.801163" xlink:href="#Inter-Regular-53"/>
       <use x="198.57959" xlink:href="#Inter-Regular-65"/>
       <use x="256.818237" xlink:href="#Inter-Regular-70"/>
      </g>
     </g>
    </g>
    <g id="xtick_8">
     <g id="line2d_8">
      <g>
       <use style="stroke:#000000;stroke-width:0.8;" x="391.225579" xlink:href="#m594bb6b99b" y="476.745"/>
      </g>
     </g>
     <g id="text_8">
      <!-- 01 Oct -->
      <g transform="translate(376.069329 491.018438)scale(0.1 -0.1)">
       <defs>
        <path d="M 4491 2327 
Q 4491 1591 4225 1054 
Q 3959 518 3495 227 
Q 3032 -64 2436 -64 
Q 1841 -64 1377 227 
Q 914 518 648 1054 
Q 382 1591 382 2327 
Q 382 3064 648 3600 
Q 914 4136 1377 4427 
Q 1841 4718 2436 4718 
Q 3032 4718 3495 4427 
Q 3959 4136 4225 3600 
Q 4491 3064 4491 2327 
z
M 3946 2327 
Q 3946 2932 3744 3348 
Q 3543 3764 3201 3977 
Q 2859 4191 2436 4191 
Q 2014 4191 1672 3977 
Q 1330 3764 1128 3348 
Q 927 2932 927 2327 
Q 927 1723 1128 1307 
Q 1330 891 1672 677 
Q 2014 464 2436 464 
Q 2859 464 3201 677 
Q 3543 891 3744 1307 
Q 3946 1723 3946 2327 
z
" id="Inter-Regular-4f" transform="scale(0.015625)"/>
        <path d="M 1909 -73 
Q 1418 -73 1063 159 
Q 709 391 518 798 
Q 327 1205 327 1727 
Q 327 2259 524 2667 
Q 721 3075 1074 3305 
Q 1427 3536 1900 3536 
Q 2268 3536 2563 3400 
Q 2859 3264 3047 3018 
Q 3236 2773 3282 2445 
L 2746 2445 
Q 2684 2684 2474 2869 
Q 2264 3055 1909 3055 
Q 1439 3055 1151 2697 
Q 864 2339 864 1745 
Q 864 1139 1148 774 
Q 1432 409 1909 409 
Q 2223 409 2447 570 
Q 2671 732 2746 1018 
L 3282 1018 
Q 3236 709 3058 462 
Q 2880 216 2588 71 
Q 2296 -73 1909 -73 
z
" id="Inter-Regular-63" transform="scale(0.015625)"/>
        <path d="M 2009 3491 
L 2009 3036 
L 1264 3036 
L 1264 1000 
Q 1264 773 1331 660 
Q 1398 548 1503 510 
Q 1609 473 1727 473 
Q 1816 473 1873 483 
Q 1930 493 1964 500 
L 2073 18 
Q 2018 -2 1920 -23 
Q 1823 -45 1673 -45 
Q 1446 -45 1228 52 
Q 1011 150 869 350 
Q 727 550 727 855 
L 727 3036 
L 200 3036 
L 200 3491 
L 727 3491 
L 727 4327 
L 1264 4327 
L 1264 3491 
L 2009 3491 
z
" id="Inter-Regular-74" transform="scale(0.015625)"/>
       </defs>
       <use xlink:href="#Inter-Regular-30"/>
       <use x="62.500015" xlink:href="#Inter-Regular-31"/>
       <use x="106.676163" xlink:href="#Inter-Regular-20"/>
       <use x="134.801163" xlink:href="#Inter-Regular-4f"/>
       <use x="210.937546" xlink:href="#Inter-Regular-63"/>
       <use x="266.761414" xlink:href="#Inter-Regular-74"/>
      </g>
     </g>
    </g>
    <g id="xtick_9">
     <g id="line2d_9">
      <g>
       <use style="stroke:#000000;stroke-width:0.8;" x="436.184716" xlink:href="#m594bb6b99b" y="476.745"/>
      </g>
     </g>
     <g id="text_9">
      <!-- 01 Nov -->
      <g transform="translate(419.913623 491.018438)scale(0.1 -0.1)">
       <defs>
        <path d="M 4255 4655 
L 4255 0 
L 3709 0 
L 1173 3655 
L 1127 3655 
L 1127 0 
L 564 0 
L 564 4655 
L 1109 4655 
L 3655 991 
L 3700 991 
L 3700 4655 
L 4255 4655 
z
" id="Inter-Regular-4e" transform="scale(0.015625)"/>
        <path d="M 1909 -73 
Q 1436 -73 1080 152 
Q 725 377 526 781 
Q 327 1186 327 1727 
Q 327 2273 526 2679 
Q 725 3086 1080 3311 
Q 1436 3536 1909 3536 
Q 2382 3536 2737 3311 
Q 3093 3086 3292 2679 
Q 3491 2273 3491 1727 
Q 3491 1186 3292 781 
Q 3093 377 2737 152 
Q 2382 -73 1909 -73 
z
M 1909 409 
Q 2268 409 2500 593 
Q 2732 777 2843 1077 
Q 2955 1377 2955 1727 
Q 2955 2077 2843 2379 
Q 2732 2682 2500 2868 
Q 2268 3055 1909 3055 
Q 1550 3055 1318 2868 
Q 1086 2682 975 2379 
Q 864 2077 864 1727 
Q 864 1377 975 1077 
Q 1086 777 1318 593 
Q 1550 409 1909 409 
z
" id="Inter-Regular-6f" transform="scale(0.015625)"/>
        <path d="M 3346 3491 
L 2055 0 
L 1509 0 
L 218 3491 
L 800 3491 
L 1764 709 
L 1800 709 
L 2764 3491 
L 3346 3491 
z
" id="Inter-Regular-76" transform="scale(0.015625)"/>
       </defs>
       <use xlink:href="#Inter-Regular-30"/>
       <use x="62.500015" xlink:href="#Inter-Regular-31"/>
       <use x="106.676163" xlink:href="#Inter-Regular-20"/>
       <use x="134.801163" xlink:href="#Inter-Regular-4e"/>
       <use x="210.085266" xlink:href="#Inter-Regular-6f"/>
       <use x="269.74437" xlink:href="#Inter-Regular-76"/>
      </g>
     </g>
    </g>
    <g id="xtick_10">
     <g id="line2d_10">
      <g>
       <use style="stroke:#000000;stroke-width:0.8;" x="479.693559" xlink:href="#m594bb6b99b" y="476.745"/>
      </g>
     </g>
     <g id="text_10">
      <!-- 01 Dec -->
      <g transform="translate(463.65684 491.018438)scale(0.1 -0.1)">
       <defs>
        <path d="M 2000 0 
L 564 0 
L 564 4655 
L 2064 4655 
Q 2741 4655 3223 4376 
Q 3705 4098 3961 3578 
Q 4218 3059 4218 2336 
Q 4218 1609 3959 1085 
Q 3700 561 3204 280 
Q 2709 0 2000 0 
z
M 1127 500 
L 1964 500 
Q 2830 500 3251 992 
Q 3673 1484 3673 2336 
Q 3673 3182 3259 3668 
Q 2846 4155 2027 4155 
L 1127 4155 
L 1127 500 
z
" id="Inter-Regular-44" transform="scale(0.015625)"/>
       </defs>
       <use xlink:href="#Inter-Regular-30"/>
       <use x="62.500015" xlink:href="#Inter-Regular-31"/>
       <use x="106.676163" xlink:href="#Inter-Regular-20"/>
       <use x="134.801163" xlink:href="#Inter-Regular-44"/>
       <use x="206.676178" xlink:href="#Inter-Regular-65"/>
       <use x="264.914825" xlink:href="#Inter-Regular-63"/>
      </g>
     </g>
    </g>
    <g id="xtick_11">
     <g id="line2d_11">
      <g>
       <use style="stroke:#000000;stroke-width:0.8;" x="524.652697" xlink:href="#m594bb6b99b" y="476.745"/>
      </g>
     </g>
     <g id="text_11">
      <!-- 01 Jan -->
      <g transform="translate(509.453478 491.018438)scale(0.1 -0.1)">
       <use xlink:href="#Inter-Regular-30"/>
       <use x="62.500015" xlink:href="#Inter-Regular-31"/>
       <use x="106.676163" xlink:href="#Inter-Regular-20"/>
       <use x="134.801163" xlink:href="#Inter-Regular-4a"/>
       <use x="189.062531" xlink:href="#Inter-Regular-61"/>
       <use x="245.45459" xlink:href="#Inter-Regular-6e"/>
      </g>
     </g>
    </g>
    <g id="xtick_12">
     <g id="line2d_12">
      <g>
       <use style="stroke:#000000;stroke-width:0.8;" x="569.611834" xlink:href="#m594bb6b99b" y="476.745"/>
      </g>
     </g>
     <g id="text_12">
      <!-- 01 Feb -->
      <g transform="translate(553.922772 491.018438)scale(0.1 -0.1)">
       <defs>
        <path d="M 564 0 
L 564 4655 
L 3355 4655 
L 3355 4155 
L 1127 4155 
L 1127 2582 
L 3146 2582 
L 3146 2082 
L 1127 2082 
L 1127 0 
L 564 0 
z
" id="Inter-Regular-46" transform="scale(0.015625)"/>
        <path d="M 564 0 
L 564 4655 
L 1100 4655 
L 1100 2936 
L 1146 2936 
Q 1205 3027 1310 3169 
Q 1416 3311 1615 3423 
Q 1814 3536 2155 3536 
Q 2596 3536 2932 3315 
Q 3268 3095 3457 2690 
Q 3646 2286 3646 1736 
Q 3646 1182 3457 776 
Q 3268 370 2934 148 
Q 2600 -73 2164 -73 
Q 1827 -73 1625 39 
Q 1423 152 1314 296 
Q 1205 441 1146 536 
L 1082 536 
L 1082 0 
L 564 0 
z
M 1091 1745 
Q 1091 1152 1349 780 
Q 1607 409 2091 409 
Q 2427 409 2653 587 
Q 2880 766 2994 1069 
Q 3109 1373 3109 1745 
Q 3109 2114 2996 2410 
Q 2884 2707 2658 2881 
Q 2432 3055 2091 3055 
Q 1600 3055 1345 2693 
Q 1091 2332 1091 1745 
z
" id="Inter-Regular-62" transform="scale(0.015625)"/>
       </defs>
       <use xlink:href="#Inter-Regular-30"/>
       <use x="62.500015" xlink:href="#Inter-Regular-31"/>
       <use x="106.676163" xlink:href="#Inter-Regular-20"/>
       <use x="134.801163" xlink:href="#Inter-Regular-46"/>
       <use x="193.465942" xlink:href="#Inter-Regular-65"/>
       <use x="251.70459" xlink:href="#Inter-Regular-62"/>
      </g>
     </g>
    </g>
    <g id="xtick_13">
     <g id="line2d_13">
      <g>
       <use style="stroke:#000000;stroke-width:0.8;" x="610.220088" xlink:href="#m594bb6b99b" y="476.745"/>
      </g>
     </g>
     <g id="text_13">
      <!-- 01 Mar -->
      <g transform="translate(594.183369 491.018438)scale(0.1 -0.1)">
       <use xlink:href="#Inter-Regular-30"/>
       <use x="62.500015" xlink:href="#Inter-Regular-31"/>
       <use x="106.676163" xlink:href="#Inter-Regular-20"/>
       <use x="134.801163" xlink:href="#Inter-Regular-4d"/>
       <use x="225.99437" xlink:href="#Inter-Regular-61"/>
       <use x="282.386429" xlink:href="#Inter-Regular-72"/>
      </g>
     </g>
    </g>
    <g id="xtick_14">
     <g id="line2d_14">
      <g>
       <use style="stroke:#000000;stroke-width:0.8;" x="655.179225" xlink:href="#m594bb6b99b" y="476.745"/>
      </g>
     </g>
     <g id="text_14">
      <!-- 01 Apr -->
      <g transform="translate(640.094069 491.116875)scale(0.1 -0.1)">
       <use xlink:href="#Inter-Regular-30"/>
       <use x="62.500015" xlink:href="#Inter-Regular-31"/>
       <use x="106.676163" xlink:href="#Inter-Regular-20"/>
       <use x="134.801163" xlink:href="#Inter-Regular-41"/>
       <use x="202.41481" xlink:href="#Inter-Regular-70"/>
       <use x="263.352325" xlink:href="#Inter-Regular-72"/>
      </g>
     </g>
    </g>
    <g id="xtick_15">
     <g id="line2d_15">
      <g>
       <use style="stroke:#000000;stroke-width:0.8;" x="698.688068" xlink:href="#m594bb6b99b" y="476.745"/>
      </g>
     </g>
     <g id="text_15">
      <!-- 01 May -->
      <g transform="translate(681.784943 491.116875)scale(0.1 -0.1)">
       <use xlink:href="#Inter-Regular-30"/>
       <use x="62.500015" xlink:href="#Inter-Regular-31"/>
       <use x="106.676163" xlink:href="#Inter-Regular-20"/>
       <use x="134.801163" xlink:href="#Inter-Regular-4d"/>
       <use x="225.99437" xlink:href="#Inter-Regular-61"/>
       <use x="282.386429" xlink:href="#Inter-Regular-79"/>
      </g>
     </g>
    </g>
    <g id="xtick_16">
     <g id="line2d_16">
      <g>
       <use style="stroke:#000000;stroke-width:0.8;" x="743.647206" xlink:href="#m594bb6b99b" y="476.745"/>
      </g>
     </g>
     <g id="text_16">
      <!-- 01 Jun -->
      <g transform="translate(728.362831 491.018438)scale(0.1 -0.1)">
       <use xlink:href="#Inter-Regular-30"/>
       <use x="62.500015" xlink:href="#Inter-Regular-31"/>
       <use x="106.676163" xlink:href="#Inter-Regular-20"/>
       <use x="134.801163" xlink:href="#Inter-Regular-4a"/>
       <use x="189.062531" xlink:href="#Inter-Regular-75"/>
       <use x="247.159134" xlink:href="#Inter-Regular-6e"/>
      </g>
     </g>
    </g>
   </g>
   <g id="matplotlib.axis_2">
    <g id="ytick_1">
     <g id="line2d_17">
      <path clip-path="url(#p6044b9f086)" d="M 80.8625 476.745 
L 750.4625 476.745 
" style="fill:none;stroke:#e5e5e5;stroke-linecap:square;stroke-width:0.8;"/>
     </g>
     <g id="line2d_18">
      <defs>
       <path d="M 0 0 
L -3.5 0 
" id="m8ebfa8d0af" style="stroke:#000000;stroke-width:0.8;"/>
      </defs>
      <g>
       <use style="stroke:#000000;stroke-width:0.8;" x="80.8625" xlink:href="#m8ebfa8d0af" y="476.745"/>
      </g>
     </g>
     <g id="text_17">
      <!-- 0.0000% -->
      <g transform="translate(31.73125 480.381719)scale(0.1 -0.1)">
       <defs>
        <path d="M 882 -36 
Q 714 -36 593 84 
Q 473 205 473 373 
Q 473 541 593 661 
Q 714 782 882 782 
Q 1050 782 1170 661 
Q 1291 541 1291 373 
Q 1291 205 1170 84 
Q 1050 -36 882 -36 
z
" id="Inter-Regular-2e" transform="scale(0.015625)"/>
        <path d="M 2855 873 
L 2855 1118 
Q 2855 1373 2960 1585 
Q 3066 1798 3269 1926 
Q 3473 2055 3764 2055 
Q 4059 2055 4259 1926 
Q 4459 1798 4561 1585 
Q 4664 1373 4664 1118 
L 4664 873 
Q 4664 618 4560 405 
Q 4457 193 4256 64 
Q 4055 -64 3764 -64 
Q 3468 -64 3266 64 
Q 3064 193 2959 405 
Q 2855 618 2855 873 
z
M 536 3536 
L 536 3782 
Q 536 4036 642 4248 
Q 748 4461 951 4589 
Q 1155 4718 1446 4718 
Q 1741 4718 1941 4589 
Q 2141 4461 2243 4248 
Q 2346 4036 2346 3782 
L 2346 3536 
Q 2346 3282 2242 3069 
Q 2139 2857 1937 2728 
Q 1736 2600 1446 2600 
Q 1150 2600 948 2728 
Q 746 2857 641 3069 
Q 536 3282 536 3536 
z
M 709 0 
L 3909 4655 
L 4427 4655 
L 1227 0 
L 709 0 
z
M 3318 1118 
L 3318 873 
Q 3318 661 3418 494 
Q 3518 327 3764 327 
Q 4002 327 4101 494 
Q 4200 661 4200 873 
L 4200 1118 
Q 4200 1330 4104 1497 
Q 4009 1664 3764 1664 
Q 3525 1664 3421 1497 
Q 3318 1330 3318 1118 
z
M 1000 3782 
L 1000 3536 
Q 1000 3325 1100 3158 
Q 1200 2991 1446 2991 
Q 1684 2991 1783 3158 
Q 1882 3325 1882 3536 
L 1882 3782 
Q 1882 3993 1786 4160 
Q 1691 4327 1446 4327 
Q 1207 4327 1103 4160 
Q 1000 3993 1000 3782 
z
" id="Inter-Regular-25" transform="scale(0.015625)"/>
       </defs>
       <use xlink:href="#Inter-Regular-30"/>
       <use x="62.500015" xlink:href="#Inter-Regular-2e"/>
       <use x="90.056839" xlink:href="#Inter-Regular-30"/>
       <use x="152.556854" xlink:href="#Inter-Regular-30"/>
       <use x="215.05687" xlink:href="#Inter-Regular-30"/>
       <use x="277.556885" xlink:href="#Inter-Regular-30"/>
       <use x="340.0569" xlink:href="#Inter-Regular-25"/>
      </g>
     </g>
    </g>
    <g id="ytick_2">
     <g id="line2d_19">
      <path clip-path="url(#p6044b9f086)" d="M 80.8625 381.260613 
L 750.4625 381.260613 
" style="fill:none;stroke:#e5e5e5;stroke-linecap:square;stroke-width:0.8;"/>
     </g>
     <g id="line2d_20">
      <g>
       <use style="stroke:#000000;stroke-width:0.8;" x="80.8625" xlink:href="#m8ebfa8d0af" y="381.260613"/>
      </g>
     </g>
     <g id="text_18">
      <!-- 0.0005% -->
      <g transform="translate(31.901563 384.897332)scale(0.1 -0.1)">
       <defs>
        <path d="M 1936 -64 
Q 1536 -64 1216 95 
Q 896 255 702 532 
Q 509 809 491 1164 
L 1036 1164 
Q 1068 848 1324 642 
Q 1580 436 1936 436 
Q 2223 436 2447 570 
Q 2671 705 2799 940 
Q 2927 1175 2927 1473 
Q 2927 1777 2794 2017 
Q 2661 2257 2429 2395 
Q 2198 2534 1900 2536 
Q 1686 2539 1461 2472 
Q 1236 2405 1091 2300 
L 564 2364 
L 846 4655 
L 3264 4655 
L 3264 4155 
L 1318 4155 
L 1155 2782 
L 1182 2782 
Q 1325 2895 1541 2970 
Q 1757 3045 1991 3045 
Q 2418 3045 2753 2842 
Q 3089 2639 3281 2286 
Q 3473 1934 3473 1482 
Q 3473 1036 3274 687 
Q 3075 339 2727 137 
Q 2380 -64 1936 -64 
z
" id="Inter-Regular-35" transform="scale(0.015625)"/>
       </defs>
       <use xlink:href="#Inter-Regular-30"/>
       <use x="62.500015" xlink:href="#Inter-Regular-2e"/>
       <use x="90.056839" xlink:href="#Inter-Regular-30"/>
       <use x="152.556854" xlink:href="#Inter-Regular-30"/>
       <use x="215.05687" xlink:href="#Inter-Regular-30"/>
       <use x="277.556885" xlink:href="#Inter-Regular-35"/>
       <use x="338.352356" xlink:href="#Inter-Regular-25"/>
      </g>
     </g>
    </g>
    <g id="ytick_3">
     <g id="line2d_21">
      <path clip-path="url(#p6044b9f086)" d="M 80.8625 285.776226 
L 750.4625 285.776226 
" style="fill:none;stroke:#e5e5e5;stroke-linecap:square;stroke-width:0.8;"/>
     </g>
     <g id="line2d_22">
      <g>
       <use style="stroke:#000000;stroke-width:0.8;" x="80.8625" xlink:href="#m8ebfa8d0af" y="285.776226"/>
      </g>
     </g>
     <g id="text_19">
      <!-- 0.0010% -->
      <g transform="translate(33.564063 289.412945)scale(0.1 -0.1)">
       <use xlink:href="#Inter-Regular-30"/>
       <use x="62.500015" xlink:href="#Inter-Regular-2e"/>
       <use x="90.056839" xlink:href="#Inter-Regular-30"/>
       <use x="152.556854" xlink:href="#Inter-Regular-30"/>
       <use x="215.05687" xlink:href="#Inter-Regular-31"/>
       <use x="259.233017" xlink:href="#Inter-Regular-30"/>
       <use x="321.733032" xlink:href="#Inter-Regular-25"/>
      </g>
     </g>
    </g>
    <g id="ytick_4">
     <g id="line2d_23">
      <path clip-path="url(#p6044b9f086)" d="M 80.8625 190.291839 
L 750.4625 190.291839 
" style="fill:none;stroke:#e5e5e5;stroke-linecap:square;stroke-width:0.8;"/>
     </g>
     <g id="line2d_24">
      <g>
       <use style="stroke:#000000;stroke-width:0.8;" x="80.8625" xlink:href="#m8ebfa8d0af" y="190.291839"/>
      </g>
     </g>
     <g id="text_20">
      <!-- 0.0015% -->
      <g transform="translate(33.734375 193.928558)scale(0.1 -0.1)">
       <use xlink:href="#Inter-Regular-30"/>
       <use x="62.500015" xlink:href="#Inter-Regular-2e"/>
       <use x="90.056839" xlink:href="#Inter-Regular-30"/>
       <use x="152.556854" xlink:href="#Inter-Regular-30"/>
       <use x="215.05687" xlink:href="#Inter-Regular-31"/>
       <use x="259.233017" xlink:href="#Inter-Regular-35"/>
       <use x="320.028488" xlink:href="#Inter-Regular-25"/>
      </g>
     </g>
    </g>
    <g id="ytick_5">
     <g id="line2d_25">
      <path clip-path="url(#p6044b9f086)" d="M 80.8625 94.807453 
L 750.4625 94.807453 
" style="fill:none;stroke:#e5e5e5;stroke-linecap:square;stroke-width:0.8;"/>
     </g>
     <g id="line2d_26">
      <g>
       <use style="stroke:#000000;stroke-width:0.8;" x="80.8625" xlink:href="#m8ebfa8d0af" y="94.807453"/>
      </g>
     </g>
     <g id="text_21">
      <!-- 0.0020% -->
      <g transform="translate(31.929688 98.444171)scale(0.1 -0.1)">
       <defs>
        <path d="M 482 0 
L 482 409 
L 2018 2091 
Q 2289 2386 2464 2605 
Q 2639 2825 2724 3019 
Q 2809 3214 2809 3427 
Q 2809 3795 2553 4011 
Q 2298 4227 1918 4227 
Q 1514 4227 1275 3985 
Q 1036 3743 1036 3345 
L 500 3345 
Q 500 3755 688 4064 
Q 877 4373 1203 4545 
Q 1530 4718 1936 4718 
Q 2346 4718 2661 4545 
Q 2977 4373 3156 4079 
Q 3336 3786 3336 3427 
Q 3336 3170 3244 2926 
Q 3152 2682 2926 2383 
Q 2700 2084 2300 1655 
L 1255 536 
L 1255 500 
L 3418 500 
L 3418 0 
L 482 0 
z
" id="Inter-Regular-32" transform="scale(0.015625)"/>
       </defs>
       <use xlink:href="#Inter-Regular-30"/>
       <use x="62.500015" xlink:href="#Inter-Regular-2e"/>
       <use x="90.056839" xlink:href="#Inter-Regular-30"/>
       <use x="152.556854" xlink:href="#Inter-Regular-30"/>
       <use x="215.05687" xlink:href="#Inter-Regular-32"/>
       <use x="275.568253" xlink:href="#Inter-Regular-30"/>
       <use x="338.068268" xlink:href="#Inter-Regular-25"/>
      </g>
     </g>
    </g>
    <g id="text_22">
     <!-- Percent of nation who have died within 28 days of a positive test -->
     <g transform="translate(25.614063 408.395938)rotate(-90)scale(0.1 -0.1)">
      <defs>
       <path d="M 564 0 
L 564 4655 
L 2136 4655 
Q 2684 4655 3033 4458 
Q 3382 4261 3550 3927 
Q 3718 3593 3718 3182 
Q 3718 2770 3551 2434 
Q 3384 2098 3036 1899 
Q 2689 1700 2146 1700 
L 1127 1700 
L 1127 0 
L 564 0 
z
M 1127 2200 
L 2127 2200 
Q 2689 2200 2926 2482 
Q 3164 2764 3164 3182 
Q 3164 3602 2925 3878 
Q 2686 4155 2118 4155 
L 1127 4155 
L 1127 2200 
z
" id="Inter-Regular-50" transform="scale(0.015625)"/>
       <path d="M 2046 3491 
L 2046 3036 
L 1264 3036 
L 1264 0 
L 727 0 
L 727 3036 
L 164 3036 
L 164 3491 
L 727 3491 
L 727 3973 
Q 727 4273 868 4473 
Q 1009 4673 1234 4773 
Q 1459 4873 1709 4873 
Q 1907 4873 2032 4841 
Q 2157 4809 2218 4782 
L 2064 4318 
Q 2023 4332 1951 4352 
Q 1880 4373 1764 4373 
Q 1498 4373 1381 4239 
Q 1264 4105 1264 3845 
L 1264 3491 
L 2046 3491 
z
" id="Inter-Regular-66" transform="scale(0.015625)"/>
       <path d="M 491 0 
L 491 3491 
L 1027 3491 
L 1027 0 
L 491 0 
z
M 764 4073 
Q 607 4073 494 4179 
Q 382 4286 382 4436 
Q 382 4586 494 4693 
Q 607 4800 764 4800 
Q 921 4800 1033 4693 
Q 1146 4586 1146 4436 
Q 1146 4286 1033 4179 
Q 921 4073 764 4073 
z
" id="Inter-Regular-69" transform="scale(0.015625)"/>
       <path d="M 1282 0 
L 218 3491 
L 782 3491 
L 1536 818 
L 1573 818 
L 2318 3491 
L 2891 3491 
L 3627 827 
L 3664 827 
L 4418 3491 
L 4982 3491 
L 3918 0 
L 3391 0 
L 2627 2682 
L 2573 2682 
L 1809 0 
L 1282 0 
z
" id="Inter-Regular-77" transform="scale(0.015625)"/>
       <path d="M 1027 2100 
L 1027 0 
L 491 0 
L 491 4655 
L 1027 4655 
L 1027 2945 
L 1073 2945 
Q 1196 3216 1442 3376 
Q 1689 3536 2100 3536 
Q 2636 3536 2963 3213 
Q 3291 2891 3291 2218 
L 3291 0 
L 2755 0 
L 2755 2182 
Q 2755 2598 2540 2826 
Q 2325 3055 1946 3055 
Q 1548 3055 1287 2806 
Q 1027 2557 1027 2100 
z
" id="Inter-Regular-68" transform="scale(0.015625)"/>
       <path d="M 1809 -73 
Q 1373 -73 1039 148 
Q 705 370 516 776 
Q 327 1182 327 1736 
Q 327 2286 516 2690 
Q 705 3095 1041 3315 
Q 1377 3536 1818 3536 
Q 2159 3536 2358 3423 
Q 2557 3311 2662 3169 
Q 2768 3027 2827 2936 
L 2873 2936 
L 2873 4655 
L 3409 4655 
L 3409 0 
L 2891 0 
L 2891 536 
L 2827 536 
Q 2768 441 2659 296 
Q 2550 152 2348 39 
Q 2146 -73 1809 -73 
z
M 1882 409 
Q 2366 409 2624 780 
Q 2882 1152 2882 1745 
Q 2882 2332 2627 2693 
Q 2373 3055 1882 3055 
Q 1541 3055 1315 2881 
Q 1089 2707 976 2410 
Q 864 2114 864 1745 
Q 864 1373 978 1069 
Q 1093 766 1319 587 
Q 1546 409 1882 409 
z
" id="Inter-Regular-64" transform="scale(0.015625)"/>
       <path d="M 1973 -64 
Q 1505 -64 1147 103 
Q 789 270 589 564 
Q 389 859 391 1236 
Q 389 1532 507 1783 
Q 625 2034 830 2203 
Q 1036 2373 1291 2418 
L 1291 2445 
Q 957 2532 759 2821 
Q 561 3111 564 3482 
Q 561 3836 743 4115 
Q 925 4395 1244 4556 
Q 1564 4718 1973 4718 
Q 2377 4718 2695 4556 
Q 3014 4395 3197 4115 
Q 3380 3836 3382 3482 
Q 3380 3111 3181 2821 
Q 2982 2532 2655 2445 
L 2655 2418 
Q 2907 2373 3109 2203 
Q 3311 2034 3431 1783 
Q 3552 1532 3555 1236 
Q 3552 859 3351 564 
Q 3150 270 2794 103 
Q 2439 -64 1973 -64 
z
M 1973 436 
Q 2446 436 2722 662 
Q 2998 889 3000 1264 
Q 2998 1527 2864 1729 
Q 2730 1932 2499 2048 
Q 2268 2164 1973 2164 
Q 1675 2164 1442 2048 
Q 1209 1932 1076 1729 
Q 943 1527 946 1264 
Q 943 889 1218 662 
Q 1493 436 1973 436 
z
M 1973 2645 
Q 2348 2645 2591 2864 
Q 2834 3084 2836 3445 
Q 2834 3800 2596 4013 
Q 2359 4227 1973 4227 
Q 1582 4227 1344 4013 
Q 1107 3800 1109 3445 
Q 1107 3084 1349 2864 
Q 1591 2645 1973 2645 
z
" id="Inter-Regular-38" transform="scale(0.015625)"/>
       <path d="M 2964 2709 
L 2482 2573 
Q 2411 2755 2245 2914 
Q 2080 3073 1727 3073 
Q 1407 3073 1194 2926 
Q 982 2780 982 2555 
Q 982 2355 1127 2239 
Q 1273 2123 1582 2045 
L 2100 1918 
Q 3027 1691 3027 973 
Q 3027 673 2855 436 
Q 2684 200 2377 63 
Q 2071 -73 1664 -73 
Q 1130 -73 780 159 
Q 430 391 336 836 
L 846 964 
Q 989 400 1655 400 
Q 2030 400 2251 560 
Q 2473 720 2473 945 
Q 2473 1316 1955 1436 
L 1373 1573 
Q 893 1686 669 1926 
Q 446 2166 446 2527 
Q 446 2823 613 3050 
Q 780 3277 1069 3406 
Q 1359 3536 1727 3536 
Q 2246 3536 2542 3309 
Q 2839 3082 2964 2709 
z
" id="Inter-Regular-73" transform="scale(0.015625)"/>
      </defs>
      <use xlink:href="#Inter-Regular-50"/>
      <use x="63.494324" xlink:href="#Inter-Regular-65"/>
      <use x="121.732971" xlink:href="#Inter-Regular-72"/>
      <use x="160.085251" xlink:href="#Inter-Regular-63"/>
      <use x="215.909119" xlink:href="#Inter-Regular-65"/>
      <use x="274.147766" xlink:href="#Inter-Regular-6e"/>
      <use x="332.670502" xlink:href="#Inter-Regular-74"/>
      <use x="369.034149" xlink:href="#Inter-Regular-20"/>
      <use x="397.159149" xlink:href="#Inter-Regular-6f"/>
      <use x="456.818253" xlink:href="#Inter-Regular-66"/>
      <use x="492.897797" xlink:href="#Inter-Regular-20"/>
      <use x="521.022797" xlink:href="#Inter-Regular-6e"/>
      <use x="579.545532" xlink:href="#Inter-Regular-61"/>
      <use x="635.937592" xlink:href="#Inter-Regular-74"/>
      <use x="672.301239" xlink:href="#Inter-Regular-69"/>
      <use x="696.022827" xlink:href="#Inter-Regular-6f"/>
      <use x="755.681931" xlink:href="#Inter-Regular-6e"/>
      <use x="814.204666" xlink:href="#Inter-Regular-20"/>
      <use x="842.329666" xlink:href="#Inter-Regular-77"/>
      <use x="923.579681" xlink:href="#Inter-Regular-68"/>
      <use x="982.670609" xlink:href="#Inter-Regular-6f"/>
      <use x="1042.329712" xlink:href="#Inter-Regular-20"/>
      <use x="1070.454712" xlink:href="#Inter-Regular-68"/>
      <use x="1129.545639" xlink:href="#Inter-Regular-61"/>
      <use x="1185.937698" xlink:href="#Inter-Regular-76"/>
      <use x="1241.619522" xlink:href="#Inter-Regular-65"/>
      <use x="1299.85817" xlink:href="#Inter-Regular-20"/>
      <use x="1327.98317" xlink:href="#Inter-Regular-64"/>
      <use x="1390.057053" xlink:href="#Inter-Regular-69"/>
      <use x="1413.778641" xlink:href="#Inter-Regular-65"/>
      <use x="1472.017288" xlink:href="#Inter-Regular-64"/>
      <use x="1534.091171" xlink:href="#Inter-Regular-20"/>
      <use x="1562.216171" xlink:href="#Inter-Regular-77"/>
      <use x="1643.466187" xlink:href="#Inter-Regular-69"/>
      <use x="1667.187775" xlink:href="#Inter-Regular-74"/>
      <use x="1703.551422" xlink:href="#Inter-Regular-68"/>
      <use x="1762.642349" xlink:href="#Inter-Regular-69"/>
      <use x="1786.363937" xlink:href="#Inter-Regular-6e"/>
      <use x="1844.886673" xlink:href="#Inter-Regular-20"/>
      <use x="1873.011673" xlink:href="#Inter-Regular-32"/>
      <use x="1933.523056" xlink:href="#Inter-Regular-38"/>
      <use x="1995.170792" xlink:href="#Inter-Regular-20"/>
      <use x="2023.295792" xlink:href="#Inter-Regular-64"/>
      <use x="2085.369675" xlink:href="#Inter-Regular-61"/>
      <use x="2141.761734" xlink:href="#Inter-Regular-79"/>
      <use x="2197.443558" xlink:href="#Inter-Regular-73"/>
      <use x="2249.716293" xlink:href="#Inter-Regular-20"/>
      <use x="2277.841293" xlink:href="#Inter-Regular-6f"/>
      <use x="2337.500397" xlink:href="#Inter-Regular-66"/>
      <use x="2373.579941" xlink:href="#Inter-Regular-20"/>
      <use x="2401.704941" xlink:href="#Inter-Regular-61"/>
      <use x="2458.097" xlink:href="#Inter-Regular-20"/>
      <use x="2486.222" xlink:href="#Inter-Regular-70"/>
      <use x="2547.159515" xlink:href="#Inter-Regular-6f"/>
      <use x="2606.818619" xlink:href="#Inter-Regular-73"/>
      <use x="2659.091354" xlink:href="#Inter-Regular-69"/>
      <use x="2682.812943" xlink:href="#Inter-Regular-74"/>
      <use x="2719.17659" xlink:href="#Inter-Regular-69"/>
      <use x="2742.898178" xlink:href="#Inter-Regular-76"/>
      <use x="2798.580002" xlink:href="#Inter-Regular-65"/>
      <use x="2856.818649" xlink:href="#Inter-Regular-20"/>
      <use x="2884.943649" xlink:href="#Inter-Regular-74"/>
      <use x="2921.307297" xlink:href="#Inter-Regular-65"/>
      <use x="2979.545944" xlink:href="#Inter-Regular-73"/>
      <use x="3031.81868" xlink:href="#Inter-Regular-74"/>
     </g>
    </g>
   </g>
   <g id="line2d_27">
    <path clip-path="url(#p6044b9f086)" d="M 82.312795 476.405723 
L 83.76309 476.066446 
L 85.213384 476.745 
L 86.663679 475.727169 
L 88.113974 476.745 
L 89.564269 476.745 
L 91.014563 475.727169 
L 92.464858 475.048614 
L 93.915153 475.727169 
L 95.365448 474.030783 
L 99.716332 469.959458 
L 101.166627 465.888133 
L 102.616921 462.156084 
L 104.067216 459.781145 
L 105.517511 454.013434 
L 106.967806 454.013434 
L 108.4181 442.138735 
L 109.868395 437.388855 
L 111.31869 424.835602 
L 112.768985 418.05006 
L 114.219279 402.443313 
L 117.119869 362.408614 
L 118.570164 349.855361 
L 120.020459 346.46259 
L 122.921048 292.856807 
L 124.371343 272.500181 
L 125.821638 239.929578 
L 127.271932 228.394157 
L 128.722227 224.662108 
L 130.172522 192.091506 
L 131.622817 195.484277 
L 133.073111 203.287651 
L 134.523406 168.002831 
L 135.973701 145.949819 
L 137.423996 180.556084 
L 138.87429 188.359458 
L 140.324585 183.948855 
L 141.77488 185.984518 
L 143.225175 203.626928 
L 144.675469 215.840904 
L 146.125764 211.430301 
L 147.576059 220.590783 
L 149.026354 225.001386 
L 150.476649 237.215361 
L 151.926943 244.000904 
L 153.377238 244.340181 
L 154.827533 256.21488 
L 156.277828 258.589819 
L 157.728122 275.214398 
L 159.178417 272.160904 
L 160.628712 288.446205 
L 162.079007 286.749819 
L 163.529301 305.070783 
L 164.979596 307.445723 
L 166.429891 309.142108 
L 167.880186 312.53488 
L 169.33048 314.231265 
L 170.780775 332.891506 
L 172.23107 345.105482 
L 173.681365 336.962831 
L 175.131659 343.748373 
L 176.581954 344.426928 
L 178.032249 341.373434 
L 179.482544 364.783554 
L 180.932838 364.783554 
L 182.383133 374.961867 
L 183.833428 388.532952 
L 185.283723 383.443795 
L 186.734018 389.89006 
L 188.184312 382.765241 
L 189.634607 385.479458 
L 191.084902 385.818735 
L 192.535197 401.086205 
L 193.985491 390.907892 
L 195.435786 398.371988 
L 196.886081 397.354157 
L 198.336376 408.550301 
L 199.78667 410.585964 
L 201.236965 408.889578 
L 202.68726 419.407169 
L 204.137555 417.032229 
L 205.587849 412.960904 
L 207.038144 419.067892 
L 208.488439 414.996566 
L 211.389028 427.549819 
L 212.839323 438.745964 
L 214.289618 435.353193 
L 215.739913 424.157048 
L 218.640502 435.69247 
L 220.090797 439.763795 
L 221.541092 443.495843 
L 222.991387 438.406687 
L 224.441681 438.745964 
L 225.891976 447.906446 
L 227.342271 443.83512 
L 228.792566 452.656325 
L 230.24286 451.977771 
L 231.693155 459.10259 
L 233.14345 450.95994 
L 234.593745 456.049096 
L 236.044039 453.33488 
L 237.494334 458.424036 
L 238.944629 457.406205 
L 240.394924 460.798976 
L 241.845218 458.424036 
L 243.295513 460.798976 
L 244.745808 457.066928 
L 246.196103 456.049096 
L 247.646397 454.013434 
L 249.096692 457.066928 
L 250.546987 464.191747 
L 251.997282 463.513193 
L 253.447577 462.495361 
L 254.897871 465.209578 
L 256.348166 462.156084 
L 257.798461 469.280904 
L 259.248756 463.173916 
L 260.69905 467.923795 
L 262.149345 466.22741 
L 263.59964 468.602349 
L 265.049935 465.548855 
L 266.500229 467.923795 
L 267.950524 468.941627 
L 269.400819 464.870301 
L 270.851114 469.620181 
L 272.301408 469.959458 
L 273.751703 472.673675 
L 275.201998 469.280904 
L 276.652293 469.959458 
L 278.102587 469.959458 
L 279.552882 472.673675 
L 281.003177 470.638012 
L 282.453472 471.99512 
L 283.903766 471.99512 
L 285.354061 472.673675 
L 286.804356 470.298735 
L 288.254651 471.316566 
L 289.704946 471.316566 
L 291.15524 474.709337 
L 292.605535 472.334398 
L 294.05583 471.99512 
L 295.506125 473.352229 
L 296.956419 473.352229 
L 298.406714 474.030783 
L 299.857009 474.030783 
L 301.307304 473.352229 
L 304.207893 474.030783 
L 305.658188 471.99512 
L 307.108483 473.352229 
L 308.558777 475.727169 
L 310.009072 473.691506 
L 311.459367 474.37006 
L 312.909662 473.012952 
L 314.359956 474.030783 
L 315.810251 473.012952 
L 317.260546 473.352229 
L 318.710841 474.709337 
L 320.161136 474.37006 
L 321.61143 474.709337 
L 323.061725 473.012952 
L 324.51202 475.387892 
L 325.962315 472.673675 
L 328.862904 476.066446 
L 330.313199 474.030783 
L 333.213788 474.709337 
L 334.664083 472.334398 
L 336.114378 475.048614 
L 337.564673 473.012952 
L 339.014967 473.012952 
L 340.465262 474.030783 
L 341.915557 474.030783 
L 343.365852 475.048614 
L 346.266441 474.37006 
L 347.716736 476.066446 
L 349.167031 474.030783 
L 350.617325 474.709337 
L 352.06762 474.709337 
L 353.517915 472.673675 
L 354.96821 474.030783 
L 356.418505 472.334398 
L 357.868799 473.691506 
L 359.319094 473.691506 
L 360.769389 472.673675 
L 362.219684 473.352229 
L 363.669978 470.638012 
L 365.120273 471.99512 
L 366.570568 470.977289 
L 368.020863 471.655843 
L 369.471157 469.280904 
L 370.921452 468.602349 
L 373.822042 470.638012 
L 375.272336 467.245241 
L 376.722631 468.602349 
L 378.172926 465.209578 
L 379.623221 459.10259 
L 381.073515 465.548855 
L 382.52381 466.905964 
L 383.974105 464.870301 
L 385.4244 462.495361 
L 386.874695 460.798976 
L 388.324989 462.156084 
L 389.775284 460.459699 
L 391.225579 458.084759 
L 392.675874 455.031265 
L 394.126168 458.084759 
L 395.576463 458.424036 
L 397.026758 456.727651 
L 398.477053 455.709819 
L 399.927347 449.263554 
L 401.377642 450.95994 
L 402.827937 454.013434 
L 404.278232 446.21006 
L 405.728526 441.799458 
L 407.178821 444.174398 
L 408.629116 447.227892 
L 410.079411 442.478012 
L 411.529705 434.674639 
L 412.98 435.353193 
L 414.430295 422.121386 
L 415.88059 436.031747 
L 417.330884 422.79994 
L 418.781179 418.728614 
L 420.231474 411.943072 
L 421.681769 413.300181 
L 423.132064 412.960904 
L 424.582358 418.728614 
L 426.032653 406.853916 
L 427.482948 401.764759 
L 428.933243 403.121867 
L 430.383537 395.997048 
L 431.833832 392.265 
L 433.284127 381.408133 
L 434.734422 383.104518 
L 436.184716 379.711747 
L 437.635011 380.051024 
L 439.085306 378.015361 
L 440.535601 382.425964 
L 441.985895 374.62259 
L 443.43619 363.765723 
L 444.886485 363.765723 
L 446.33678 361.051506 
L 447.787074 340.69488 
L 449.237369 368.515602 
L 450.687664 370.890542 
L 452.137959 357.658735 
L 453.588254 355.623072 
L 455.038548 355.283795 
L 456.488843 347.141145 
L 457.939138 355.283795 
L 459.389433 353.248133 
L 460.839727 329.159458 
L 462.290022 342.051988 
L 463.740317 344.766205 
L 465.190612 342.051988 
L 466.640906 338.998494 
L 468.091201 341.034157 
L 469.541496 338.998494 
L 470.991791 332.552229 
L 472.442085 350.533916 
L 473.89238 353.926687 
L 475.342675 346.801867 
L 476.79297 340.355602 
L 478.243264 353.926687 
L 479.693559 359.35512 
L 481.143854 362.747892 
L 482.594149 339.337771 
L 484.044443 337.302108 
L 485.494738 360.033675 
L 486.945033 356.301627 
L 488.395328 356.640904 
L 489.845623 349.516084 
L 491.295917 349.855361 
L 492.746212 348.158976 
L 494.196507 342.051988 
L 495.646802 349.855361 
L 497.097096 352.908855 
L 498.547391 336.962831 
L 499.997686 345.105482 
L 501.447981 356.301627 
L 502.898275 327.802349 
L 504.34857 329.838012 
L 505.798865 336.962831 
L 507.24916 330.855843 
L 508.699454 308.463554 
L 511.600044 313.213434 
L 513.050339 312.195602 
L 514.500633 294.553193 
L 515.950928 284.714157 
L 517.401223 281.99994 
L 518.851518 276.571506 
L 520.301812 280.642831 
L 521.752107 265.036084 
L 523.202402 255.875602 
L 524.652697 258.250542 
L 526.102992 249.768614 
L 527.553286 255.875602 
L 529.003581 221.269337 
L 530.453876 198.877048 
L 531.904171 197.180663 
L 533.354465 175.466928 
L 534.80476 176.145482 
L 536.255055 161.895843 
L 537.70535 143.914157 
L 539.155644 136.110783 
L 540.605939 106.593675 
L 542.056234 103.879458 
L 543.506529 107.272229 
L 544.956823 103.540181 
L 546.407118 79.790783 
L 547.857413 80.808614 
L 549.307708 80.469337 
L 550.758002 54.345 
L 552.208297 78.772952 
L 553.658592 92.344036 
L 555.108887 95.736807 
L 556.559182 118.129096 
L 558.009476 123.896807 
L 559.459771 114.397048 
L 560.910066 151.378253 
L 562.360361 135.432229 
L 563.810655 132.039458 
L 565.26095 156.806687 
L 566.711245 194.805723 
L 568.16154 201.930542 
L 569.611834 204.305482 
L 571.062129 219.572952 
L 572.512424 213.126687 
L 573.962719 256.554157 
L 575.413013 248.072229 
L 576.863308 270.125241 
L 578.313603 284.714157 
L 579.763898 269.446687 
L 581.214192 295.231747 
L 582.664487 292.51753 
L 584.114782 304.731506 
L 585.565077 323.731024 
L 587.015371 330.855843 
L 588.465666 329.159458 
L 589.915961 321.016807 
L 591.366256 342.730542 
L 592.816551 346.801867 
L 594.266845 352.908855 
L 595.71714 369.194157 
L 598.61773 379.711747 
L 600.068024 395.318494 
L 601.518319 390.568614 
L 602.968614 395.657771 
L 604.418909 402.443313 
L 605.869203 411.264518 
L 607.319498 410.246687 
L 608.769793 409.90741 
L 610.220088 411.264518 
L 611.670382 424.496325 
L 613.120677 433.996084 
L 614.570972 432.978253 
L 616.021267 423.817771 
L 617.471561 432.978253 
L 618.921856 438.406687 
L 620.372151 436.031747 
L 621.822446 438.06741 
L 623.272741 444.174398 
L 624.723035 440.781627 
L 626.17333 449.263554 
L 627.623625 443.83512 
L 629.07392 449.942108 
L 630.524214 448.585 
L 631.974509 454.013434 
L 633.424804 455.031265 
L 634.875099 459.10259 
L 636.325393 457.745482 
L 637.775688 456.727651 
L 639.225983 452.995602 
L 640.676278 457.745482 
L 642.126572 461.47753 
L 643.576867 465.548855 
L 646.477457 462.834639 
L 647.927751 466.905964 
L 650.828341 468.263072 
L 652.278636 464.191747 
L 653.72893 464.531024 
L 655.179225 467.245241 
L 656.62952 470.298735 
L 658.079815 467.584518 
L 659.53011 468.941627 
L 660.980404 473.352229 
L 662.430699 468.941627 
L 663.880994 468.263072 
L 665.331289 466.22741 
L 666.781583 470.977289 
L 669.682173 470.298735 
L 671.132468 468.263072 
L 672.582762 470.298735 
L 674.033057 473.691506 
L 675.483352 470.977289 
L 676.933647 471.655843 
L 678.383941 470.977289 
L 679.834236 471.99512 
L 681.284531 471.316566 
L 682.734826 470.977289 
L 684.18512 470.977289 
L 685.635415 471.99512 
L 687.08571 470.977289 
L 688.536005 474.37006 
L 689.986299 472.673675 
L 691.436594 473.691506 
L 692.886889 473.352229 
L 694.337184 472.334398 
L 695.787479 473.012952 
L 697.237773 474.030783 
L 698.688068 474.37006 
L 700.138363 473.352229 
L 701.588658 474.030783 
L 703.038952 473.691506 
L 704.489247 472.673675 
L 705.939542 474.37006 
L 707.389837 474.030783 
L 708.840131 474.030783 
L 710.290426 474.37006 
L 711.740721 474.030783 
L 713.191016 472.334398 
L 714.64131 473.691506 
L 716.091605 475.727169 
L 717.5419 475.727169 
L 718.992195 474.37006 
L 721.892784 475.048614 
L 723.343079 475.727169 
L 724.793374 475.727169 
L 726.243669 475.048614 
L 727.693963 474.709337 
L 729.144258 475.387892 
L 730.594553 475.048614 
L 732.044848 474.030783 
L 733.495142 475.727169 
L 734.945437 473.352229 
L 736.395732 474.709337 
L 739.296321 475.387892 
L 740.746616 474.709337 
L 740.746616 474.709337 
" style="fill:none;stroke:#5694ca;stroke-linecap:square;stroke-width:2;"/>
   </g>
   <g id="line2d_28">
    <path clip-path="url(#p6044b9f086)" d="M 105.517511 466.660398 
L 106.967806 466.660398 
L 108.4181 476.745 
L 109.868395 466.660398 
L 111.31869 466.660398 
L 112.768985 426.321992 
L 114.219279 456.575797 
L 115.669574 436.406593 
L 117.119869 456.575797 
L 118.570164 446.491195 
L 120.020459 396.068187 
L 121.470753 436.406593 
L 122.921048 436.406593 
L 124.371343 426.321992 
L 125.821638 436.406593 
L 127.271932 375.898983 
L 128.722227 375.898983 
L 130.172522 385.983585 
L 131.622817 365.814382 
L 133.073111 416.23739 
L 134.523406 396.068187 
L 135.973701 436.406593 
L 137.423996 295.22217 
L 138.87429 365.814382 
L 140.324585 365.814382 
L 141.77488 315.391373 
L 143.225175 406.152788 
L 144.675469 355.72978 
L 146.125764 315.391373 
L 147.576059 365.814382 
L 149.026354 385.983585 
L 150.476649 375.898983 
L 151.926943 375.898983 
L 153.377238 355.72978 
L 154.827533 345.645178 
L 156.277828 285.137568 
L 157.728122 315.391373 
L 159.178417 365.814382 
L 160.628712 325.475975 
L 163.529301 345.645178 
L 164.979596 416.23739 
L 166.429891 335.560577 
L 167.880186 396.068187 
L 169.33048 355.72978 
L 170.780775 355.72978 
L 172.23107 365.814382 
L 173.681365 385.983585 
L 176.581954 446.491195 
L 178.032249 446.491195 
L 179.482544 416.23739 
L 180.932838 406.152788 
L 182.383133 375.898983 
L 183.833428 456.575797 
L 185.283723 436.406593 
L 186.734018 446.491195 
L 188.184312 375.898983 
L 189.634607 446.491195 
L 191.084902 436.406593 
L 192.535197 406.152788 
L 193.985491 406.152788 
L 195.435786 426.321992 
L 196.886081 426.321992 
L 198.336376 436.406593 
L 199.78667 466.660398 
L 201.236965 456.575797 
L 202.68726 406.152788 
L 204.137555 466.660398 
L 205.587849 466.660398 
L 207.038144 436.406593 
L 208.488439 446.491195 
L 209.938734 466.660398 
L 211.389028 456.575797 
L 212.839323 466.660398 
L 214.289618 466.660398 
L 215.739913 456.575797 
L 217.190208 456.575797 
L 218.640502 476.745 
L 220.090797 466.660398 
L 221.541092 476.745 
L 227.342271 476.745 
L 228.792566 456.575797 
L 230.24286 466.660398 
L 231.693155 466.660398 
L 233.14345 476.745 
L 234.593745 476.745 
L 236.044039 466.660398 
L 240.394924 466.660398 
L 241.845218 476.745 
L 243.295513 476.745 
L 244.745808 466.660398 
L 246.196103 466.660398 
L 247.646397 476.745 
L 250.546987 456.575797 
L 251.997282 476.745 
L 253.447577 476.745 
L 254.897871 466.660398 
L 256.348166 476.745 
L 257.798461 466.660398 
L 259.248756 476.745 
L 260.69905 456.575797 
L 262.149345 476.745 
L 267.950524 476.745 
L 269.400819 466.660398 
L 270.851114 476.745 
L 272.301408 476.745 
L 273.751703 466.660398 
L 275.201998 476.745 
L 311.459367 476.745 
L 312.909662 466.660398 
L 314.359956 476.745 
L 318.710841 476.745 
L 320.161136 466.660398 
L 321.61143 476.745 
L 323.061725 466.660398 
L 324.51202 476.745 
L 336.114378 476.745 
L 337.564673 466.660398 
L 339.014967 476.745 
L 340.465262 476.745 
L 341.915557 466.660398 
L 343.365852 476.745 
L 346.266441 476.745 
L 347.716736 466.660398 
L 349.167031 476.745 
L 350.617325 456.575797 
L 352.06762 476.745 
L 353.517915 466.660398 
L 354.96821 476.745 
L 356.418505 456.575797 
L 357.868799 476.745 
L 359.319094 476.745 
L 362.219684 456.575797 
L 363.669978 476.745 
L 365.120273 476.745 
L 366.570568 466.660398 
L 368.020863 466.660398 
L 369.471157 456.575797 
L 370.921452 476.745 
L 373.822042 456.575797 
L 375.272336 476.745 
L 381.073515 476.745 
L 382.52381 466.660398 
L 383.974105 476.745 
L 385.4244 476.745 
L 386.874695 466.660398 
L 388.324989 476.745 
L 389.775284 466.660398 
L 391.225579 466.660398 
L 392.675874 456.575797 
L 395.576463 476.745 
L 397.026758 466.660398 
L 399.927347 466.660398 
L 401.377642 476.745 
L 404.278232 476.745 
L 405.728526 416.23739 
L 408.629116 436.406593 
L 410.079411 456.575797 
L 411.529705 436.406593 
L 412.98 456.575797 
L 414.430295 446.491195 
L 415.88059 406.152788 
L 417.330884 436.406593 
L 418.781179 446.491195 
L 420.231474 416.23739 
L 421.681769 436.406593 
L 424.582358 396.068187 
L 426.032653 416.23739 
L 427.482948 365.814382 
L 430.383537 385.983585 
L 431.833832 335.560577 
L 433.284127 385.983585 
L 434.734422 406.152788 
L 436.184716 375.898983 
L 437.635011 426.321992 
L 439.085306 355.72978 
L 440.535601 375.898983 
L 441.985895 406.152788 
L 443.43619 325.475975 
L 444.886485 406.152788 
L 446.33678 375.898983 
L 447.787074 375.898983 
L 449.237369 396.068187 
L 450.687664 345.645178 
L 452.137959 375.898983 
L 453.588254 365.814382 
L 455.038548 345.645178 
L 456.488843 345.645178 
L 457.939138 385.983585 
L 459.389433 365.814382 
L 460.839727 375.898983 
L 462.290022 345.645178 
L 463.740317 345.645178 
L 465.190612 396.068187 
L 466.640906 416.23739 
L 468.091201 396.068187 
L 469.541496 406.152788 
L 470.991791 375.898983 
L 472.442085 396.068187 
L 473.89238 365.814382 
L 475.342675 365.814382 
L 476.79297 396.068187 
L 478.243264 355.72978 
L 479.693559 406.152788 
L 481.143854 396.068187 
L 482.594149 416.23739 
L 484.044443 406.152788 
L 485.494738 355.72978 
L 486.945033 365.814382 
L 488.395328 305.306772 
L 489.845623 406.152788 
L 491.295917 385.983585 
L 492.746212 345.645178 
L 494.196507 385.983585 
L 497.097096 426.321992 
L 498.547391 416.23739 
L 499.997686 416.23739 
L 501.447981 345.645178 
L 502.898275 335.560577 
L 504.34857 375.898983 
L 505.798865 325.475975 
L 507.24916 355.72978 
L 508.699454 305.306772 
L 510.149749 375.898983 
L 511.600044 325.475975 
L 513.050339 325.475975 
L 514.500633 406.152788 
L 515.950928 375.898983 
L 517.401223 335.560577 
L 518.851518 396.068187 
L 520.301812 365.814382 
L 521.752107 345.645178 
L 523.202402 375.898983 
L 524.652697 345.645178 
L 526.102992 335.560577 
L 527.553286 355.72978 
L 529.003581 345.645178 
L 530.453876 406.152788 
L 531.904171 365.814382 
L 533.354465 264.968365 
L 534.80476 375.898983 
L 536.255055 275.052967 
L 537.70535 315.391373 
L 539.155644 244.799162 
L 540.605939 285.137568 
L 542.056234 285.137568 
L 543.506529 214.545357 
L 544.956823 234.71456 
L 546.407118 275.052967 
L 547.857413 184.291552 
L 549.307708 264.968365 
L 550.758002 285.137568 
L 552.208297 285.137568 
L 553.658592 365.814382 
L 555.108887 345.645178 
L 556.559182 275.052967 
L 558.009476 345.645178 
L 559.459771 325.475975 
L 560.910066 355.72978 
L 562.360361 275.052967 
L 563.810655 315.391373 
L 565.26095 244.799162 
L 566.711245 335.560577 
L 568.16154 355.72978 
L 569.611834 325.475975 
L 571.062129 345.645178 
L 572.512424 426.321992 
L 573.962719 335.560577 
L 575.413013 385.983585 
L 576.863308 345.645178 
L 578.313603 396.068187 
L 579.763898 385.983585 
L 581.214192 446.491195 
L 582.664487 396.068187 
L 584.114782 355.72978 
L 585.565077 385.983585 
L 587.015371 396.068187 
L 588.465666 426.321992 
L 589.915961 426.321992 
L 591.366256 355.72978 
L 592.816551 426.321992 
L 594.266845 416.23739 
L 595.71714 456.575797 
L 597.167435 426.321992 
L 600.068024 426.321992 
L 601.518319 456.575797 
L 602.968614 436.406593 
L 604.418909 436.406593 
L 607.319498 456.575797 
L 611.670382 456.575797 
L 613.120677 436.406593 
L 614.570972 456.575797 
L 616.021267 466.660398 
L 617.471561 416.23739 
L 618.921856 456.575797 
L 620.372151 466.660398 
L 621.822446 416.23739 
L 623.272741 406.152788 
L 626.17333 466.660398 
L 627.623625 476.745 
L 629.07392 476.745 
L 630.524214 456.575797 
L 631.974509 476.745 
L 634.875099 456.575797 
L 637.775688 476.745 
L 639.225983 446.491195 
L 640.676278 456.575797 
L 642.126572 476.745 
L 645.027162 476.745 
L 646.477457 466.660398 
L 649.378046 466.660398 
L 652.278636 446.491195 
L 653.72893 476.745 
L 655.179225 476.745 
L 656.62952 456.575797 
L 658.079815 466.660398 
L 659.53011 466.660398 
L 660.980404 456.575797 
L 662.430699 466.660398 
L 663.880994 456.575797 
L 665.331289 466.660398 
L 666.781583 456.575797 
L 668.231878 466.660398 
L 669.682173 466.660398 
L 671.132468 476.745 
L 674.033057 456.575797 
L 675.483352 466.660398 
L 678.383941 466.660398 
L 679.834236 476.745 
L 681.284531 466.660398 
L 682.734826 476.745 
L 684.18512 446.491195 
L 685.635415 456.575797 
L 687.08571 476.745 
L 688.536005 466.660398 
L 689.986299 476.745 
L 691.436594 466.660398 
L 692.886889 466.660398 
L 694.337184 476.745 
L 695.787479 466.660398 
L 697.237773 476.745 
L 698.688068 466.660398 
L 700.138363 476.745 
L 704.489247 476.745 
L 705.939542 466.660398 
L 707.389837 476.745 
L 711.740721 476.745 
L 713.191016 466.660398 
L 714.64131 476.745 
L 716.091605 466.660398 
L 717.5419 476.745 
L 718.992195 476.745 
L 720.442489 456.575797 
L 721.892784 476.745 
L 723.343079 466.660398 
L 724.793374 476.745 
L 736.395732 476.745 
L 737.846027 466.660398 
L 739.296321 476.745 
L 740.746616 476.745 
L 740.746616 476.745 
" style="fill:none;stroke:#ffdd00;stroke-linecap:square;stroke-width:2;"/>
   </g>
   <g id="line2d_29">
    <path clip-path="url(#p6044b9f086)" d="M 96.815742 473.249516 
L 98.266037 476.745 
L 99.716332 469.754032 
L 101.166627 476.745 
L 104.067216 469.754032 
L 105.517511 476.745 
L 106.967806 466.258548 
L 108.4181 459.26758 
L 109.868395 455.772096 
L 112.768985 462.763064 
L 114.219279 452.276612 
L 115.669574 438.294677 
L 117.119869 434.799193 
L 118.570164 438.294677 
L 120.020459 375.375966 
L 121.470753 406.835321 
L 122.921048 371.880482 
L 125.821638 315.952739 
L 127.271932 350.907578 
L 128.722227 274.006932 
L 130.172522 378.87145 
L 131.622817 312.457255 
L 133.073111 256.529512 
L 134.523406 305.466287 
L 135.973701 287.988868 
L 137.423996 246.04306 
L 138.87429 274.006932 
L 140.324585 298.475319 
L 141.77488 312.457255 
L 143.225175 333.430159 
L 144.675469 298.475319 
L 146.125764 329.934675 
L 147.576059 326.439191 
L 149.026354 343.916611 
L 150.476649 294.979835 
L 151.926943 315.952739 
L 153.377238 263.52048 
L 154.827533 298.475319 
L 156.277828 315.952739 
L 157.728122 305.466287 
L 159.178417 343.916611 
L 160.628712 308.961771 
L 162.079007 326.439191 
L 163.529301 267.015964 
L 164.979596 336.925643 
L 166.429891 343.916611 
L 169.33048 308.961771 
L 170.780775 322.943707 
L 172.23107 347.412094 
L 173.681365 336.925643 
L 175.131659 301.970803 
L 176.581954 326.439191 
L 178.032249 336.925643 
L 179.482544 357.898546 
L 180.932838 357.898546 
L 182.383133 378.87145 
L 183.833428 364.889514 
L 185.283723 368.384998 
L 186.734018 329.934675 
L 188.184312 354.403062 
L 189.634607 385.862418 
L 191.084902 375.375966 
L 193.985491 396.34887 
L 195.435786 378.87145 
L 196.886081 399.844353 
L 198.336376 392.853386 
L 199.78667 417.321773 
L 201.236965 438.294677 
L 202.68726 448.781129 
L 204.137555 427.808225 
L 205.587849 427.808225 
L 207.038144 420.817257 
L 208.488439 420.817257 
L 211.389028 455.772096 
L 212.839323 455.772096 
L 214.289618 466.258548 
L 215.739913 455.772096 
L 217.190208 448.781129 
L 218.640502 473.249516 
L 220.090797 445.285645 
L 221.541092 466.258548 
L 222.991387 452.276612 
L 224.441681 455.772096 
L 225.891976 473.249516 
L 227.342271 459.26758 
L 228.792566 469.754032 
L 230.24286 469.754032 
L 233.14345 462.763064 
L 234.593745 466.258548 
L 236.044039 455.772096 
L 237.494334 466.258548 
L 238.944629 466.258548 
L 240.394924 476.745 
L 241.845218 466.258548 
L 243.295513 469.754032 
L 244.745808 466.258548 
L 246.196103 473.249516 
L 247.646397 473.249516 
L 249.096692 476.745 
L 250.546987 476.745 
L 251.997282 462.763064 
L 253.447577 473.249516 
L 254.897871 473.249516 
L 256.348166 476.745 
L 259.248756 476.745 
L 260.69905 473.249516 
L 262.149345 476.745 
L 263.59964 473.249516 
L 265.049935 476.745 
L 291.15524 476.745 
L 292.605535 473.249516 
L 294.05583 476.745 
L 327.412609 476.745 
L 328.862904 473.249516 
L 330.313199 476.745 
L 331.763494 476.745 
L 333.213788 473.249516 
L 334.664083 473.249516 
L 336.114378 476.745 
L 340.465262 476.745 
L 341.915557 473.249516 
L 343.365852 476.745 
L 347.716736 476.745 
L 349.167031 473.249516 
L 352.06762 473.249516 
L 353.517915 476.745 
L 363.669978 476.745 
L 365.120273 473.249516 
L 366.570568 466.258548 
L 368.020863 476.745 
L 369.471157 476.745 
L 372.371747 469.754032 
L 373.822042 476.745 
L 375.272336 466.258548 
L 376.722631 469.754032 
L 378.172926 469.754032 
L 379.623221 473.249516 
L 381.073515 469.754032 
L 382.52381 473.249516 
L 383.974105 469.754032 
L 385.4244 469.754032 
L 386.874695 466.258548 
L 388.324989 473.249516 
L 389.775284 462.763064 
L 391.225579 459.26758 
L 392.675874 473.249516 
L 394.126168 466.258548 
L 395.576463 466.258548 
L 397.026758 469.754032 
L 398.477053 462.763064 
L 399.927347 445.285645 
L 401.377642 438.294677 
L 402.827937 455.772096 
L 404.278232 441.790161 
L 405.728526 441.790161 
L 407.178821 448.781129 
L 408.629116 438.294677 
L 410.079411 455.772096 
L 411.529705 420.817257 
L 412.98 410.330805 
L 414.430295 441.790161 
L 415.88059 403.339837 
L 417.330884 424.312741 
L 418.781179 417.321773 
L 420.231474 438.294677 
L 421.681769 417.321773 
L 423.132064 417.321773 
L 424.582358 406.835321 
L 426.032653 399.844353 
L 427.482948 371.880482 
L 428.933243 420.817257 
L 430.383537 378.87145 
L 431.833832 382.366934 
L 433.284127 354.403062 
L 434.734422 389.357902 
L 436.184716 357.898546 
L 437.635011 378.87145 
L 439.085306 357.898546 
L 440.535601 410.330805 
L 441.985895 336.925643 
L 443.43619 385.862418 
L 444.886485 347.412094 
L 446.33678 354.403062 
L 447.787074 336.925643 
L 449.237369 357.898546 
L 450.687664 350.907578 
L 452.137959 364.889514 
L 453.588254 347.412094 
L 455.038548 336.925643 
L 456.488843 357.898546 
L 457.939138 361.39403 
L 459.389433 350.907578 
L 460.839727 392.853386 
L 462.290022 385.862418 
L 463.740317 375.375966 
L 465.190612 361.39403 
L 466.640906 350.907578 
L 468.091201 368.384998 
L 469.541496 371.880482 
L 470.991791 364.889514 
L 472.442085 396.34887 
L 473.89238 392.853386 
L 475.342675 333.430159 
L 476.79297 378.87145 
L 478.243264 364.889514 
L 479.693559 382.366934 
L 481.143854 406.835321 
L 482.594149 350.907578 
L 484.044443 378.87145 
L 485.494738 410.330805 
L 486.945033 375.375966 
L 488.395328 375.375966 
L 489.845623 378.87145 
L 491.295917 396.34887 
L 492.746212 396.34887 
L 494.196507 406.835321 
L 497.097096 385.862418 
L 498.547391 368.384998 
L 499.997686 364.889514 
L 501.447981 368.384998 
L 502.898275 350.907578 
L 504.34857 396.34887 
L 505.798865 378.87145 
L 507.24916 375.375966 
L 508.699454 389.357902 
L 510.149749 378.87145 
L 511.600044 357.898546 
L 513.050339 350.907578 
L 515.950928 357.898546 
L 517.401223 357.898546 
L 520.301812 385.862418 
L 521.752107 364.889514 
L 523.202402 322.943707 
L 524.652697 354.403062 
L 526.102992 329.934675 
L 527.553286 329.934675 
L 529.003581 347.412094 
L 530.453876 336.925643 
L 531.904171 308.961771 
L 533.354465 322.943707 
L 534.80476 329.934675 
L 536.255055 343.916611 
L 537.70535 270.511448 
L 539.155644 308.961771 
L 540.605939 298.475319 
L 542.056234 298.475319 
L 543.506529 277.502416 
L 544.956823 274.006932 
L 546.407118 211.088221 
L 547.857413 326.439191 
L 549.307708 256.529512 
L 550.758002 232.061125 
L 552.208297 246.04306 
L 553.658592 277.502416 
L 555.108887 242.547576 
L 556.559182 291.484352 
L 558.009476 232.061125 
L 559.459771 294.979835 
L 560.910066 294.979835 
L 562.360361 267.015964 
L 563.810655 312.457255 
L 565.26095 274.006932 
L 566.711245 322.943707 
L 568.16154 312.457255 
L 569.611834 326.439191 
L 571.062129 329.934675 
L 572.512424 308.961771 
L 573.962719 364.889514 
L 575.413013 322.943707 
L 576.863308 298.475319 
L 578.313603 329.934675 
L 579.763898 333.430159 
L 581.214192 308.961771 
L 582.664487 347.412094 
L 584.114782 354.403062 
L 585.565077 333.430159 
L 587.015371 364.889514 
L 589.915961 357.898546 
L 591.366256 389.357902 
L 592.816551 378.87145 
L 594.266845 357.898546 
L 595.71714 322.943707 
L 597.167435 382.366934 
L 598.61773 406.835321 
L 600.068024 399.844353 
L 601.518319 420.817257 
L 602.968614 417.321773 
L 604.418909 406.835321 
L 605.869203 420.817257 
L 607.319498 413.826289 
L 608.769793 445.285645 
L 610.220088 406.835321 
L 611.670382 431.303709 
L 613.120677 438.294677 
L 614.570972 427.808225 
L 616.021267 448.781129 
L 617.471561 441.790161 
L 618.921856 441.790161 
L 620.372151 424.312741 
L 623.272741 459.26758 
L 624.723035 452.276612 
L 626.17333 455.772096 
L 627.623625 462.763064 
L 629.07392 452.276612 
L 630.524214 473.249516 
L 631.974509 438.294677 
L 633.424804 448.781129 
L 634.875099 466.258548 
L 636.325393 455.772096 
L 640.676278 466.258548 
L 642.126572 466.258548 
L 643.576867 462.763064 
L 645.027162 452.276612 
L 646.477457 459.26758 
L 650.828341 459.26758 
L 652.278636 469.754032 
L 653.72893 469.754032 
L 655.179225 473.249516 
L 656.62952 469.754032 
L 658.079815 469.754032 
L 659.53011 473.249516 
L 660.980404 462.763064 
L 662.430699 469.754032 
L 666.781583 469.754032 
L 668.231878 466.258548 
L 669.682173 469.754032 
L 671.132468 476.745 
L 672.582762 476.745 
L 674.033057 466.258548 
L 676.933647 473.249516 
L 678.383941 473.249516 
L 679.834236 476.745 
L 681.284531 473.249516 
L 682.734826 473.249516 
L 684.18512 466.258548 
L 685.635415 476.745 
L 687.08571 469.754032 
L 688.536005 476.745 
L 689.986299 469.754032 
L 691.436594 473.249516 
L 694.337184 473.249516 
L 695.787479 476.745 
L 698.688068 476.745 
L 700.138363 473.249516 
L 701.588658 476.745 
L 713.191016 476.745 
L 714.64131 469.754032 
L 716.091605 476.745 
L 720.442489 476.745 
L 721.892784 473.249516 
L 723.343079 476.745 
L 727.693963 476.745 
L 729.144258 473.249516 
L 730.594553 473.249516 
L 732.044848 476.745 
L 733.495142 476.745 
L 734.945437 469.754032 
L 736.395732 473.249516 
L 737.846027 473.249516 
L 739.296321 469.754032 
L 740.746616 473.249516 
L 740.746616 473.249516 
" style="fill:none;stroke:#003078;stroke-linecap:square;stroke-width:2;"/>
   </g>
   <g id="line2d_30">
    <path clip-path="url(#p6044b9f086)" d="M 102.616921 458.574105 
L 104.067216 476.745 
L 105.517511 476.745 
L 106.967806 458.574105 
L 108.4181 464.63107 
L 109.868395 434.346246 
L 111.31869 446.460176 
L 112.768985 452.51714 
L 114.219279 422.232316 
L 117.119869 410.118386 
L 118.570164 416.175351 
L 120.020459 385.890527 
L 121.470753 367.719632 
L 122.921048 379.833562 
L 124.371343 385.890527 
L 125.821638 349.548738 
L 127.271932 307.149983 
L 128.722227 301.093019 
L 130.172522 288.979089 
L 131.622817 295.036054 
L 133.073111 355.605702 
L 134.523406 282.922124 
L 135.973701 222.352475 
L 137.423996 216.29551 
L 138.87429 325.320878 
L 143.225175 216.29551 
L 144.675469 319.263913 
L 146.125764 246.580335 
L 147.576059 264.751229 
L 149.026354 301.093019 
L 150.476649 282.922124 
L 151.926943 319.263913 
L 153.377238 325.320878 
L 154.827533 295.036054 
L 156.277828 337.434808 
L 157.728122 367.719632 
L 159.178417 288.979089 
L 160.628712 301.093019 
L 162.079007 379.833562 
L 163.529301 379.833562 
L 164.979596 385.890527 
L 166.429891 319.263913 
L 167.880186 379.833562 
L 169.33048 301.093019 
L 170.780775 391.947492 
L 172.23107 391.947492 
L 173.681365 337.434808 
L 175.131659 373.776597 
L 176.581954 337.434808 
L 178.032249 361.662667 
L 180.932838 434.346246 
L 182.383133 416.175351 
L 183.833428 385.890527 
L 185.283723 410.118386 
L 186.734018 379.833562 
L 188.184312 404.061421 
L 189.634607 379.833562 
L 191.084902 398.004457 
L 192.535197 410.118386 
L 193.985491 416.175351 
L 195.435786 410.118386 
L 196.886081 434.346246 
L 198.336376 422.232316 
L 199.78667 416.175351 
L 201.236965 434.346246 
L 202.68726 404.061421 
L 204.137555 416.175351 
L 205.587849 416.175351 
L 207.038144 440.403211 
L 208.488439 379.833562 
L 209.938734 410.118386 
L 211.389028 416.175351 
L 212.839323 434.346246 
L 214.289618 422.232316 
L 215.739913 446.460176 
L 217.190208 434.346246 
L 218.640502 404.061421 
L 220.090797 452.51714 
L 221.541092 422.232316 
L 224.441681 434.346246 
L 225.891976 452.51714 
L 227.342271 434.346246 
L 228.792566 446.460176 
L 230.24286 452.51714 
L 231.693155 440.403211 
L 234.593745 440.403211 
L 236.044039 428.289281 
L 237.494334 470.688035 
L 238.944629 476.745 
L 240.394924 452.51714 
L 241.845218 458.574105 
L 243.295513 446.460176 
L 244.745808 464.63107 
L 246.196103 470.688035 
L 247.646397 440.403211 
L 249.096692 422.232316 
L 250.546987 464.63107 
L 251.997282 440.403211 
L 253.447577 464.63107 
L 256.348166 452.51714 
L 257.798461 452.51714 
L 259.248756 458.574105 
L 260.69905 476.745 
L 262.149345 464.63107 
L 265.049935 464.63107 
L 266.500229 470.688035 
L 269.400819 470.688035 
L 270.851114 476.745 
L 272.301408 470.688035 
L 273.751703 476.745 
L 275.201998 464.63107 
L 278.102587 476.745 
L 279.552882 470.688035 
L 281.003177 476.745 
L 285.354061 476.745 
L 286.804356 470.688035 
L 288.254651 470.688035 
L 289.704946 476.745 
L 292.605535 464.63107 
L 294.05583 464.63107 
L 295.506125 470.688035 
L 296.956419 464.63107 
L 298.406714 452.51714 
L 299.857009 464.63107 
L 301.307304 452.51714 
L 302.757598 464.63107 
L 304.207893 464.63107 
L 305.658188 470.688035 
L 307.108483 452.51714 
L 308.558777 458.574105 
L 310.009072 476.745 
L 311.459367 446.460176 
L 312.909662 464.63107 
L 314.359956 476.745 
L 315.810251 464.63107 
L 317.260546 476.745 
L 318.710841 470.688035 
L 321.61143 470.688035 
L 323.061725 476.745 
L 325.962315 476.745 
L 327.412609 464.63107 
L 328.862904 476.745 
L 331.763494 476.745 
L 333.213788 470.688035 
L 334.664083 476.745 
L 336.114378 470.688035 
L 337.564673 476.745 
L 344.816146 476.745 
L 346.266441 464.63107 
L 347.716736 476.745 
L 349.167031 476.745 
L 350.617325 470.688035 
L 352.06762 476.745 
L 360.769389 476.745 
L 362.219684 470.688035 
L 363.669978 476.745 
L 365.120273 470.688035 
L 366.570568 476.745 
L 368.020863 464.63107 
L 370.921452 464.63107 
L 372.371747 476.745 
L 373.822042 476.745 
L 375.272336 470.688035 
L 376.722631 470.688035 
L 378.172926 458.574105 
L 379.623221 458.574105 
L 381.073515 476.745 
L 385.4244 458.574105 
L 386.874695 458.574105 
L 388.324989 452.51714 
L 389.775284 452.51714 
L 391.225579 446.460176 
L 392.675874 464.63107 
L 394.126168 428.289281 
L 395.576463 458.574105 
L 397.026758 416.175351 
L 398.477053 452.51714 
L 399.927347 410.118386 
L 401.377642 440.403211 
L 402.827937 440.403211 
L 404.278232 458.574105 
L 405.728526 452.51714 
L 407.178821 452.51714 
L 408.629116 428.289281 
L 410.079411 434.346246 
L 411.529705 434.346246 
L 412.98 440.403211 
L 414.430295 452.51714 
L 415.88059 410.118386 
L 417.330884 398.004457 
L 418.781179 452.51714 
L 420.231474 398.004457 
L 421.681769 307.149983 
L 423.132064 410.118386 
L 424.582358 385.890527 
L 426.032653 379.833562 
L 427.482948 385.890527 
L 428.933243 337.434808 
L 430.383537 410.118386 
L 431.833832 349.548738 
L 433.284127 391.947492 
L 434.734422 404.061421 
L 436.184716 307.149983 
L 437.635011 373.776597 
L 439.085306 337.434808 
L 440.535601 343.491773 
L 441.985895 288.979089 
L 443.43619 319.263913 
L 444.886485 385.890527 
L 446.33678 301.093019 
L 447.787074 301.093019 
L 449.237369 307.149983 
L 450.687664 301.093019 
L 452.137959 307.149983 
L 453.588254 295.036054 
L 455.038548 361.662667 
L 456.488843 325.320878 
L 457.939138 337.434808 
L 459.389433 301.093019 
L 460.839727 367.719632 
L 462.290022 319.263913 
L 463.740317 349.548738 
L 465.190612 307.149983 
L 466.640906 313.206948 
L 468.091201 325.320878 
L 469.541496 367.719632 
L 470.991791 373.776597 
L 472.442085 295.036054 
L 473.89238 319.263913 
L 475.342675 282.922124 
L 476.79297 319.263913 
L 478.243264 373.776597 
L 479.693559 361.662667 
L 481.143854 343.491773 
L 482.594149 313.206948 
L 484.044443 319.263913 
L 485.494738 355.605702 
L 486.945033 325.320878 
L 488.395328 355.605702 
L 489.845623 325.320878 
L 491.295917 325.320878 
L 492.746212 276.865159 
L 494.196507 319.263913 
L 495.646802 276.865159 
L 497.097096 343.491773 
L 498.547391 295.036054 
L 499.997686 276.865159 
L 501.447981 270.808194 
L 502.898275 186.010686 
L 504.34857 186.010686 
L 505.798865 270.808194 
L 507.24916 264.751229 
L 508.699454 252.637299 
L 510.149749 264.751229 
L 511.600044 270.808194 
L 513.050339 204.18158 
L 514.500633 276.865159 
L 515.950928 216.29551 
L 517.401223 301.093019 
L 518.851518 179.953721 
L 520.301812 228.40944 
L 521.752107 173.896756 
L 523.202402 167.839791 
L 524.652697 125.441037 
L 526.102992 270.808194 
L 527.553286 155.725861 
L 529.003581 252.637299 
L 530.453876 234.466405 
L 531.904171 186.010686 
L 533.354465 228.40944 
L 534.80476 204.18158 
L 536.255055 270.808194 
L 537.70535 234.466405 
L 539.155644 149.668897 
L 540.605939 186.010686 
L 542.056234 216.29551 
L 543.506529 149.668897 
L 544.956823 222.352475 
L 546.407118 234.466405 
L 547.857413 319.263913 
L 549.307708 216.29551 
L 550.758002 319.263913 
L 552.208297 246.580335 
L 553.658592 270.808194 
L 555.108887 240.52337 
L 556.559182 276.865159 
L 558.009476 270.808194 
L 559.459771 313.206948 
L 560.910066 252.637299 
L 562.360361 343.491773 
L 563.810655 301.093019 
L 565.26095 222.352475 
L 566.711245 343.491773 
L 568.16154 343.491773 
L 569.611834 301.093019 
L 571.062129 276.865159 
L 572.512424 313.206948 
L 573.962719 343.491773 
L 575.413013 337.434808 
L 576.863308 313.206948 
L 578.313603 367.719632 
L 579.763898 373.776597 
L 581.214192 367.719632 
L 582.664487 355.605702 
L 584.114782 379.833562 
L 585.565077 325.320878 
L 587.015371 361.662667 
L 588.465666 349.548738 
L 589.915961 367.719632 
L 591.366256 404.061421 
L 592.816551 398.004457 
L 594.266845 410.118386 
L 595.71714 367.719632 
L 597.167435 385.890527 
L 598.61773 385.890527 
L 600.068024 398.004457 
L 601.518319 391.947492 
L 602.968614 404.061421 
L 604.418909 391.947492 
L 607.319498 404.061421 
L 608.769793 458.574105 
L 610.220088 416.175351 
L 611.670382 398.004457 
L 613.120677 440.403211 
L 614.570972 428.289281 
L 616.021267 452.51714 
L 617.471561 428.289281 
L 618.921856 440.403211 
L 620.372151 440.403211 
L 621.822446 452.51714 
L 623.272741 434.346246 
L 624.723035 458.574105 
L 626.17333 452.51714 
L 627.623625 452.51714 
L 629.07392 428.289281 
L 630.524214 452.51714 
L 631.974509 458.574105 
L 633.424804 446.460176 
L 634.875099 464.63107 
L 636.325393 434.346246 
L 637.775688 476.745 
L 639.225983 458.574105 
L 640.676278 458.574105 
L 642.126572 470.688035 
L 643.576867 464.63107 
L 645.027162 470.688035 
L 649.378046 470.688035 
L 650.828341 464.63107 
L 652.278636 476.745 
L 653.72893 476.745 
L 655.179225 464.63107 
L 656.62952 446.460176 
L 658.079815 470.688035 
L 659.53011 476.745 
L 662.430699 464.63107 
L 663.880994 476.745 
L 666.781583 464.63107 
L 668.231878 464.63107 
L 669.682173 476.745 
L 671.132468 464.63107 
L 672.582762 476.745 
L 674.033057 458.574105 
L 675.483352 470.688035 
L 676.933647 476.745 
L 678.383941 464.63107 
L 679.834236 464.63107 
L 681.284531 476.745 
L 682.734826 470.688035 
L 684.18512 470.688035 
L 685.635415 476.745 
L 687.08571 464.63107 
L 688.536005 476.745 
L 689.986299 470.688035 
L 691.436594 470.688035 
L 692.886889 476.745 
L 694.337184 476.745 
L 695.787479 470.688035 
L 697.237773 476.745 
L 698.688068 476.745 
L 700.138363 470.688035 
L 701.588658 476.745 
L 703.038952 470.688035 
L 704.489247 476.745 
L 705.939542 464.63107 
L 707.389837 464.63107 
L 708.840131 476.745 
L 710.290426 470.688035 
L 711.740721 476.745 
L 716.091605 476.745 
L 717.5419 458.574105 
L 718.992195 476.745 
L 720.442489 476.745 
L 723.343079 464.63107 
L 724.793374 464.63107 
L 726.243669 476.745 
L 730.594553 476.745 
L 732.044848 470.688035 
L 733.495142 470.688035 
L 734.945437 476.745 
L 739.296321 476.745 
L 739.296321 476.745 
" style="fill:none;stroke:#d4351c;stroke-linecap:square;stroke-width:2;"/>
   </g>
   <g id="patch_3">
    <path d="M 80.8625 476.745 
L 750.4625 476.745 
" style="fill:none;stroke:#000000;stroke-linecap:square;stroke-linejoin:miter;stroke-width:0.8;"/>
   </g>
   <g id="text_23">
    <!-- Deaths within 4 weeks of a positive COVID-19 test, per capita -->
    <g transform="translate(235.450625 27.225)scale(0.12 -0.12)">
     <defs>
      <path d="M 2055 0 
L 405 0 
L 405 4655 
L 2068 4655 
Q 2771 4655 3278 4376 
Q 3786 4098 4059 3577 
Q 4332 3057 4332 2332 
Q 4332 1605 4058 1082 
Q 3784 559 3274 279 
Q 2764 0 2055 0 
z
M 1389 843 
L 2014 843 
Q 2671 843 3010 1197 
Q 3350 1552 3350 2332 
Q 3350 3107 3010 3459 
Q 2671 3811 2016 3811 
L 1389 3811 
L 1389 843 
z
" id="Inter-Bold-44" transform="scale(0.015625)"/>
      <path d="M 1977 -68 
Q 1441 -68 1052 151 
Q 664 370 455 773 
Q 246 1177 246 1730 
Q 246 2268 455 2675 
Q 664 3082 1044 3309 
Q 1425 3536 1939 3536 
Q 2400 3536 2771 3340 
Q 3143 3145 3361 2751 
Q 3580 2357 3580 1764 
L 3580 1498 
L 1202 1498 
L 1202 1495 
Q 1202 1105 1416 880 
Q 1630 655 1993 655 
Q 2236 655 2413 757 
Q 2591 859 2664 1059 
L 3559 1000 
Q 3457 514 3041 223 
Q 2625 -68 1977 -68 
z
M 1202 2098 
L 2668 2098 
Q 2666 2409 2468 2611 
Q 2271 2814 1955 2814 
Q 1632 2814 1425 2604 
Q 1218 2395 1202 2098 
z
" id="Inter-Bold-65" transform="scale(0.015625)"/>
      <path d="M 1382 -66 
Q 882 -66 552 195 
Q 223 457 223 975 
Q 223 1366 407 1588 
Q 591 1811 890 1914 
Q 1189 2018 1534 2050 
Q 1989 2095 2184 2145 
Q 2380 2195 2380 2364 
L 2380 2377 
Q 2380 2593 2244 2711 
Q 2109 2830 1861 2830 
Q 1600 2830 1445 2716 
Q 1291 2602 1241 2427 
L 346 2500 
Q 446 2977 842 3256 
Q 1239 3536 1866 3536 
Q 2255 3536 2593 3413 
Q 2932 3291 3140 3030 
Q 3348 2770 3348 2355 
L 3348 0 
L 2430 0 
L 2430 484 
L 2402 484 
Q 2275 241 2021 87 
Q 1768 -66 1382 -66 
z
M 1659 602 
Q 1977 602 2181 787 
Q 2386 973 2386 1248 
L 2386 1618 
Q 2330 1580 2210 1550 
Q 2091 1520 1956 1498 
Q 1821 1477 1714 1461 
Q 1459 1425 1303 1318 
Q 1148 1211 1148 1007 
Q 1148 807 1292 704 
Q 1436 602 1659 602 
z
" id="Inter-Bold-61" transform="scale(0.015625)"/>
      <path d="M 2243 3491 
L 2243 2764 
L 1586 2764 
L 1586 1073 
Q 1586 873 1677 802 
Q 1768 732 1914 732 
Q 1982 732 2050 744 
Q 2118 757 2155 764 
L 2307 43 
Q 2234 20 2102 -10 
Q 1971 -41 1782 -48 
Q 1255 -70 935 181 
Q 616 432 618 945 
L 618 2764 
L 141 2764 
L 141 3491 
L 618 3491 
L 618 4327 
L 1586 4327 
L 1586 3491 
L 2243 3491 
z
" id="Inter-Bold-74" transform="scale(0.015625)"/>
      <path d="M 1355 2018 
L 1355 0 
L 386 0 
L 386 4655 
L 1327 4655 
L 1327 2875 
L 1368 2875 
Q 1489 3184 1751 3360 
Q 2014 3536 2411 3536 
Q 2957 3536 3289 3186 
Q 3621 2836 3618 2223 
L 3618 0 
L 2650 0 
L 2650 2050 
Q 2652 2373 2487 2552 
Q 2323 2732 2027 2732 
Q 1732 2732 1544 2544 
Q 1357 2357 1355 2018 
z
" id="Inter-Bold-68" transform="scale(0.015625)"/>
      <path d="M 3291 2495 
L 2405 2441 
Q 2368 2609 2220 2729 
Q 2073 2850 1821 2850 
Q 1596 2850 1440 2755 
Q 1284 2661 1286 2505 
Q 1284 2380 1385 2293 
Q 1486 2207 1730 2155 
L 2361 2027 
Q 3368 1820 3371 1082 
Q 3371 739 3169 479 
Q 2968 220 2618 76 
Q 2268 -68 1816 -68 
Q 1123 -68 711 221 
Q 300 511 232 1011 
L 1184 1061 
Q 1230 848 1394 739 
Q 1559 630 1818 630 
Q 2073 630 2228 730 
Q 2384 830 2386 984 
Q 2380 1243 1939 1332 
L 1334 1452 
Q 321 1655 325 2450 
Q 323 2955 728 3245 
Q 1134 3536 1805 3536 
Q 2466 3536 2846 3256 
Q 3227 2977 3291 2495 
z
" id="Inter-Bold-73" transform="scale(0.015625)"/>
      <path id="Inter-Bold-20" transform="scale(0.015625)"/>
      <path d="M 1075 0 
L 125 3491 
L 1105 3491 
L 1646 1145 
L 1677 1145 
L 2241 3491 
L 3202 3491 
L 3775 1159 
L 3805 1159 
L 4336 3491 
L 5314 3491 
L 4366 0 
L 3341 0 
L 2741 2195 
L 2698 2195 
L 2098 0 
L 1075 0 
z
" id="Inter-Bold-77" transform="scale(0.015625)"/>
      <path d="M 386 0 
L 386 3491 
L 1355 3491 
L 1355 0 
L 386 0 
z
M 876 3941 
Q 662 3941 507 4085 
Q 353 4230 353 4432 
Q 353 4634 507 4777 
Q 662 4920 876 4920 
Q 1092 4920 1246 4777 
Q 1401 4634 1401 4432 
Q 1401 4230 1246 4085 
Q 1092 3941 876 3941 
z
" id="Inter-Bold-69" transform="scale(0.015625)"/>
      <path d="M 1355 2018 
L 1355 0 
L 386 0 
L 386 3491 
L 1309 3491 
L 1309 2875 
L 1350 2875 
Q 1468 3180 1739 3358 
Q 2011 3536 2400 3536 
Q 2946 3536 3275 3185 
Q 3605 2834 3605 2223 
L 3605 0 
L 2636 0 
L 2636 2050 
Q 2639 2370 2473 2551 
Q 2307 2732 2016 2732 
Q 1723 2732 1540 2544 
Q 1357 2357 1355 2018 
z
" id="Inter-Bold-6e" transform="scale(0.015625)"/>
      <path d="M 307 818 
L 307 1593 
L 2250 4655 
L 3482 4655 
L 3482 1607 
L 4059 1607 
L 4059 818 
L 3482 818 
L 3482 0 
L 2541 0 
L 2541 818 
L 307 818 
z
M 2559 1607 
L 2559 3582 
L 2523 3582 
L 1298 1643 
L 1298 1607 
L 2559 1607 
z
" id="Inter-Bold-34" transform="scale(0.015625)"/>
      <path d="M 386 0 
L 386 4655 
L 1355 4655 
L 1355 2166 
L 1407 2166 
L 2525 3491 
L 3636 3491 
L 2341 1980 
L 3702 0 
L 2568 0 
L 1616 1407 
L 1355 1109 
L 1355 0 
L 386 0 
z
" id="Inter-Bold-6b" transform="scale(0.015625)"/>
      <path d="M 1964 -68 
Q 1434 -68 1049 158 
Q 664 384 455 789 
Q 246 1195 246 1732 
Q 246 2273 455 2678 
Q 664 3084 1049 3310 
Q 1434 3536 1964 3536 
Q 2493 3536 2878 3310 
Q 3264 3084 3473 2678 
Q 3682 2273 3682 1732 
Q 3682 1195 3473 789 
Q 3264 384 2878 158 
Q 2493 -68 1964 -68 
z
M 1968 682 
Q 2327 682 2512 982 
Q 2698 1282 2698 1739 
Q 2698 2195 2512 2496 
Q 2327 2798 1968 2798 
Q 1602 2798 1416 2496 
Q 1230 2195 1230 1739 
Q 1230 1282 1416 982 
Q 1602 682 1968 682 
z
" id="Inter-Bold-6f" transform="scale(0.015625)"/>
      <path d="M 2296 3491 
L 2296 2764 
L 1602 2764 
L 1602 0 
L 634 0 
L 634 2764 
L 141 2764 
L 141 3491 
L 634 3491 
L 634 3743 
Q 634 4314 960 4593 
Q 1286 4873 1780 4873 
Q 2002 4873 2187 4839 
Q 2373 4805 2464 4777 
L 2293 4050 
Q 2236 4068 2152 4084 
Q 2068 4100 1982 4100 
Q 1768 4100 1685 4001 
Q 1602 3902 1602 3725 
L 1602 3491 
L 2296 3491 
z
" id="Inter-Bold-66" transform="scale(0.015625)"/>
      <path d="M 386 -1309 
L 386 3491 
L 1341 3491 
L 1341 2905 
L 1384 2905 
Q 1450 3048 1570 3193 
Q 1691 3339 1888 3437 
Q 2086 3536 2377 3536 
Q 2761 3536 3081 3337 
Q 3402 3139 3596 2740 
Q 3791 2341 3791 1741 
Q 3791 1157 3602 756 
Q 3414 355 3093 149 
Q 2773 -57 2375 -57 
Q 2093 -57 1896 36 
Q 1700 130 1576 272 
Q 1452 414 1384 559 
L 1355 559 
L 1355 -1309 
L 386 -1309 
z
M 1334 1745 
Q 1334 1280 1526 997 
Q 1718 714 2068 714 
Q 2425 714 2613 1001 
Q 2802 1289 2802 1745 
Q 2802 2200 2614 2483 
Q 2427 2766 2068 2766 
Q 1716 2766 1525 2490 
Q 1334 2214 1334 1745 
z
" id="Inter-Bold-70" transform="scale(0.015625)"/>
      <path d="M 3641 3491 
L 2421 0 
L 1330 0 
L 109 3491 
L 1132 3491 
L 1857 993 
L 1893 993 
L 2616 3491 
L 3641 3491 
z
" id="Inter-Bold-76" transform="scale(0.015625)"/>
      <path d="M 4511 3025 
L 3516 3025 
Q 3459 3409 3188 3628 
Q 2918 3848 2514 3848 
Q 1973 3848 1647 3451 
Q 1321 3055 1321 2327 
Q 1321 1582 1649 1194 
Q 1977 807 2507 807 
Q 2900 807 3173 1012 
Q 3446 1218 3516 1591 
L 4511 1586 
Q 4459 1159 4207 782 
Q 3955 405 3522 170 
Q 3089 -64 2491 -64 
Q 1868 -64 1378 218 
Q 889 500 606 1034 
Q 323 1568 323 2327 
Q 323 3089 609 3623 
Q 896 4157 1386 4437 
Q 1877 4718 2491 4718 
Q 3030 4718 3463 4519 
Q 3896 4320 4172 3942 
Q 4448 3564 4511 3025 
z
" id="Inter-Bold-43" transform="scale(0.015625)"/>
      <path d="M 4682 2327 
Q 4682 1566 4394 1032 
Q 4107 498 3614 217 
Q 3121 -64 2502 -64 
Q 1882 -64 1389 218 
Q 896 500 609 1035 
Q 323 1570 323 2327 
Q 323 3089 609 3623 
Q 896 4157 1389 4437 
Q 1882 4718 2502 4718 
Q 3121 4718 3614 4437 
Q 4107 4157 4394 3623 
Q 4682 3089 4682 2327 
z
M 3684 2327 
Q 3684 3068 3361 3458 
Q 3039 3848 2502 3848 
Q 1966 3848 1643 3458 
Q 1321 3068 1321 2327 
Q 1321 1589 1643 1198 
Q 1966 807 2502 807 
Q 3039 807 3361 1198 
Q 3684 1589 3684 2327 
z
" id="Inter-Bold-4f" transform="scale(0.015625)"/>
      <path d="M 1246 4655 
L 2371 1118 
L 2414 1118 
L 3541 4655 
L 4632 4655 
L 3027 0 
L 1759 0 
L 152 4655 
L 1246 4655 
z
" id="Inter-Bold-56" transform="scale(0.015625)"/>
      <path d="M 1389 4655 
L 1389 0 
L 405 0 
L 405 4655 
L 1389 4655 
z
" id="Inter-Bold-49" transform="scale(0.015625)"/>
      <path d="M 2561 2295 
L 2561 1527 
L 439 1527 
L 439 2295 
L 2561 2295 
z
" id="Inter-Bold-2d" transform="scale(0.015625)"/>
      <path d="M 2305 4655 
L 2305 0 
L 1323 0 
L 1323 3450 
L 1280 3450 
Q 1205 3334 961 3219 
Q 718 3105 332 3105 
L 332 3886 
Q 632 3886 857 4019 
Q 1082 4152 1209 4333 
Q 1336 4514 1341 4655 
L 2305 4655 
z
" id="Inter-Bold-31" transform="scale(0.015625)"/>
      <path d="M 2061 4732 
Q 2421 4732 2753 4612 
Q 3086 4493 3348 4227 
Q 3611 3961 3766 3523 
Q 3921 3086 3921 2448 
Q 3921 1659 3686 1096 
Q 3452 534 3028 235 
Q 2605 -64 2027 -64 
Q 1561 -64 1204 117 
Q 848 298 631 610 
Q 414 923 368 1314 
L 1339 1314 
Q 1396 1059 1577 919 
Q 1759 780 2027 780 
Q 2482 780 2718 1176 
Q 2955 1573 2957 2264 
L 2925 2264 
Q 2771 1957 2453 1782 
Q 2136 1607 1752 1607 
Q 1341 1607 1016 1801 
Q 691 1995 506 2334 
Q 321 2673 323 3109 
Q 321 3582 539 3949 
Q 757 4316 1149 4525 
Q 1541 4734 2061 4732 
z
M 2068 3959 
Q 1725 3959 1500 3722 
Q 1275 3486 1277 3136 
Q 1275 2791 1496 2555 
Q 1718 2320 2059 2320 
Q 2284 2320 2465 2431 
Q 2646 2543 2751 2729 
Q 2857 2916 2859 3141 
Q 2857 3366 2753 3551 
Q 2650 3736 2473 3847 
Q 2296 3959 2068 3959 
z
" id="Inter-Bold-39" transform="scale(0.015625)"/>
      <path d="M 1439 636 
L 1414 386 
Q 1384 86 1301 -212 
Q 1218 -511 1128 -754 
Q 1039 -998 984 -1136 
L 357 -1136 
Q 391 -1002 450 -763 
Q 509 -525 561 -226 
Q 614 73 627 382 
L 639 636 
L 1439 636 
z
" id="Inter-Bold-2c" transform="scale(0.015625)"/>
      <path d="M 386 0 
L 386 3491 
L 1325 3491 
L 1325 2882 
L 1361 2882 
Q 1457 3207 1681 3374 
Q 1905 3541 2200 3541 
Q 2341 3541 2461 3507 
Q 2582 3473 2677 3414 
L 2386 2614 
Q 2318 2648 2237 2671 
Q 2157 2695 2057 2695 
Q 1764 2695 1560 2495 
Q 1357 2295 1355 1975 
L 1355 0 
L 386 0 
z
" id="Inter-Bold-72" transform="scale(0.015625)"/>
      <path d="M 1964 -68 
Q 1427 -68 1042 160 
Q 657 389 451 795 
Q 246 1202 246 1732 
Q 246 2268 453 2674 
Q 661 3080 1045 3308 
Q 1430 3536 1959 3536 
Q 2416 3536 2760 3370 
Q 3105 3205 3303 2905 
Q 3502 2605 3523 2200 
L 2609 2200 
Q 2571 2461 2406 2621 
Q 2241 2782 1975 2782 
Q 1639 2782 1434 2511 
Q 1230 2241 1230 1745 
Q 1230 1245 1433 971 
Q 1636 698 1975 698 
Q 2225 698 2395 849 
Q 2566 1000 2609 1280 
L 3523 1280 
Q 3500 880 3305 575 
Q 3111 270 2770 101 
Q 2430 -68 1964 -68 
z
" id="Inter-Bold-63" transform="scale(0.015625)"/>
     </defs>
     <use xlink:href="#Inter-Bold-44"/>
     <use x="72.727295" xlink:href="#Inter-Bold-65"/>
     <use x="132.492935" xlink:href="#Inter-Bold-61"/>
     <use x="190.518509" xlink:href="#Inter-Bold-74"/>
     <use x="229.36795" xlink:href="#Inter-Bold-68"/>
     <use x="291.796936" xlink:href="#Inter-Bold-73"/>
     <use x="347.975922" xlink:href="#Inter-Bold-20"/>
     <use x="371.164841" xlink:href="#Inter-Bold-77"/>
     <use x="456.179062" xlink:href="#Inter-Bold-69"/>
     <use x="483.380768" xlink:href="#Inter-Bold-74"/>
     <use x="522.230209" xlink:href="#Inter-Bold-68"/>
     <use x="584.659195" xlink:href="#Inter-Bold-69"/>
     <use x="611.860901" xlink:href="#Inter-Bold-6e"/>
     <use x="674.041306" xlink:href="#Inter-Bold-20"/>
     <use x="697.230225" xlink:href="#Inter-Bold-34"/>
     <use x="765.021439" xlink:href="#Inter-Bold-20"/>
     <use x="788.210358" xlink:href="#Inter-Bold-77"/>
     <use x="873.224579" xlink:href="#Inter-Bold-65"/>
     <use x="932.990219" xlink:href="#Inter-Bold-65"/>
     <use x="992.755859" xlink:href="#Inter-Bold-6b"/>
     <use x="1050.923477" xlink:href="#Inter-Bold-73"/>
     <use x="1107.102463" xlink:href="#Inter-Bold-20"/>
     <use x="1130.291382" xlink:href="#Inter-Bold-6f"/>
     <use x="1191.655029" xlink:href="#Inter-Bold-66"/>
     <use x="1230.717529" xlink:href="#Inter-Bold-20"/>
     <use x="1253.906448" xlink:href="#Inter-Bold-61"/>
     <use x="1311.932022" xlink:href="#Inter-Bold-20"/>
     <use x="1335.120941" xlink:href="#Inter-Bold-70"/>
     <use x="1398.366699" xlink:href="#Inter-Bold-6f"/>
     <use x="1459.730347" xlink:href="#Inter-Bold-73"/>
     <use x="1515.909332" xlink:href="#Inter-Bold-69"/>
     <use x="1543.111038" xlink:href="#Inter-Bold-74"/>
     <use x="1581.96048" xlink:href="#Inter-Bold-69"/>
     <use x="1609.162186" xlink:href="#Inter-Bold-76"/>
     <use x="1667.755951" xlink:href="#Inter-Bold-65"/>
     <use x="1727.521591" xlink:href="#Inter-Bold-20"/>
     <use x="1750.71051" xlink:href="#Inter-Bold-43"/>
     <use x="1825.923599" xlink:href="#Inter-Bold-4f"/>
     <use x="1904.119644" xlink:href="#Inter-Bold-56"/>
     <use x="1978.906586" xlink:href="#Inter-Bold-49"/>
     <use x="2006.960571" xlink:href="#Inter-Bold-44"/>
     <use x="2079.687866" xlink:href="#Inter-Bold-2d"/>
     <use x="2126.562881" xlink:href="#Inter-Bold-31"/>
     <use x="2173.970566" xlink:href="#Inter-Bold-39"/>
     <use x="2239.986206" xlink:href="#Inter-Bold-20"/>
     <use x="2263.175125" xlink:href="#Inter-Bold-74"/>
     <use x="2302.024567" xlink:href="#Inter-Bold-65"/>
     <use x="2361.790207" xlink:href="#Inter-Bold-73"/>
     <use x="2417.969193" xlink:href="#Inter-Bold-74"/>
     <use x="2456.818634" xlink:href="#Inter-Bold-2c"/>
     <use x="2487.109833" xlink:href="#Inter-Bold-20"/>
     <use x="2510.298752" xlink:href="#Inter-Bold-70"/>
     <use x="2573.54451" xlink:href="#Inter-Bold-65"/>
     <use x="2633.31015" xlink:href="#Inter-Bold-72"/>
     <use x="2676.172379" xlink:href="#Inter-Bold-20"/>
     <use x="2699.361298" xlink:href="#Inter-Bold-63"/>
     <use x="2758.097107" xlink:href="#Inter-Bold-61"/>
     <use x="2816.122681" xlink:href="#Inter-Bold-70"/>
     <use x="2879.368439" xlink:href="#Inter-Bold-69"/>
     <use x="2906.570145" xlink:href="#Inter-Bold-74"/>
     <use x="2945.419586" xlink:href="#Inter-Bold-61"/>
    </g>
   </g>
   <g id="legend_1">
    <g id="patch_4">
     <path d="M 633.889063 98.614063 
L 743.4625 98.614063 
Q 745.4625 98.614063 745.4625 96.614063 
L 745.4625 40.225 
Q 745.4625 38.225 743.4625 38.225 
L 633.889063 38.225 
Q 631.889063 38.225 631.889063 40.225 
L 631.889063 96.614063 
Q 631.889063 98.614063 633.889063 98.614063 
z
" style="fill:#ffffff;opacity:0.8;stroke:#cccccc;stroke-linejoin:miter;"/>
    </g>
    <g id="line2d_31">
     <path d="M 635.889063 45.998438 
L 655.889063 45.998438 
" style="fill:none;stroke:#d4351c;stroke-linecap:square;stroke-width:2;"/>
    </g>
    <g id="line2d_32"/>
    <g id="text_24">
     <!-- Wales -->
     <g transform="translate(663.889063 49.498438)scale(0.1 -0.1)">
      <defs>
       <path d="M 1409 0 
L 136 4655 
L 709 4655 
L 1682 864 
L 1727 864 
L 2718 4655 
L 3355 4655 
L 4346 864 
L 4391 864 
L 5364 4655 
L 5936 4655 
L 4664 0 
L 4082 0 
L 3055 3709 
L 3018 3709 
L 1991 0 
L 1409 0 
z
" id="Inter-Regular-57" transform="scale(0.015625)"/>
      </defs>
      <use xlink:href="#Inter-Regular-57"/>
      <use x="94.886383" xlink:href="#Inter-Regular-61"/>
      <use x="151.278442" xlink:href="#Inter-Regular-6c"/>
      <use x="175.000031" xlink:href="#Inter-Regular-65"/>
      <use x="233.238678" xlink:href="#Inter-Regular-73"/>
     </g>
    </g>
    <g id="line2d_33">
     <path d="M 635.889063 60.317188 
L 655.889063 60.317188 
" style="fill:none;stroke:#003078;stroke-linecap:square;stroke-width:2;"/>
    </g>
    <g id="line2d_34"/>
    <g id="text_25">
     <!-- Scotland -->
     <g transform="translate(663.889063 63.817188)scale(0.1 -0.1)">
      <use xlink:href="#Inter-Regular-53"/>
      <use x="63.778427" xlink:href="#Inter-Regular-63"/>
      <use x="119.602295" xlink:href="#Inter-Regular-6f"/>
      <use x="179.261398" xlink:href="#Inter-Regular-74"/>
      <use x="215.625046" xlink:href="#Inter-Regular-6c"/>
      <use x="239.346634" xlink:href="#Inter-Regular-61"/>
      <use x="295.738693" xlink:href="#Inter-Regular-6e"/>
      <use x="354.261429" xlink:href="#Inter-Regular-64"/>
     </g>
    </g>
    <g id="line2d_35">
     <path d="M 635.889063 74.635938 
L 655.889063 74.635938 
" style="fill:none;stroke:#ffdd00;stroke-linecap:square;stroke-width:2;"/>
    </g>
    <g id="line2d_36"/>
    <g id="text_26">
     <!-- Northern Ireland -->
     <g transform="translate(663.889063 78.135938)scale(0.1 -0.1)">
      <defs>
       <path d="M 1127 4655 
L 1127 0 
L 564 0 
L 564 4655 
L 1127 4655 
z
" id="Inter-Regular-49" transform="scale(0.015625)"/>
      </defs>
      <use xlink:href="#Inter-Regular-4e"/>
      <use x="75.284103" xlink:href="#Inter-Regular-6f"/>
      <use x="134.943207" xlink:href="#Inter-Regular-72"/>
      <use x="173.295486" xlink:href="#Inter-Regular-74"/>
      <use x="209.659134" xlink:href="#Inter-Regular-68"/>
      <use x="268.750061" xlink:href="#Inter-Regular-65"/>
      <use x="326.988708" xlink:href="#Inter-Regular-72"/>
      <use x="365.340988" xlink:href="#Inter-Regular-6e"/>
      <use x="423.863724" xlink:href="#Inter-Regular-20"/>
      <use x="451.988724" xlink:href="#Inter-Regular-49"/>
      <use x="478.40918" xlink:href="#Inter-Regular-72"/>
      <use x="516.761459" xlink:href="#Inter-Regular-65"/>
      <use x="575.000107" xlink:href="#Inter-Regular-6c"/>
      <use x="598.721695" xlink:href="#Inter-Regular-61"/>
      <use x="655.113754" xlink:href="#Inter-Regular-6e"/>
      <use x="713.63649" xlink:href="#Inter-Regular-64"/>
     </g>
    </g>
    <g id="line2d_37">
     <path d="M 635.889063 88.954688 
L 655.889063 88.954688 
" style="fill:none;stroke:#5694ca;stroke-linecap:square;stroke-width:2;"/>
    </g>
    <g id="line2d_38"/>
    <g id="text_27">
     <!-- England -->
     <g transform="translate(663.889063 92.454688)scale(0.1 -0.1)">
      <defs>
       <path d="M 564 0 
L 564 4655 
L 3373 4655 
L 3373 4155 
L 1127 4155 
L 1127 2582 
L 3227 2582 
L 3227 2082 
L 1127 2082 
L 1127 500 
L 3409 500 
L 3409 0 
L 564 0 
z
" id="Inter-Regular-45" transform="scale(0.015625)"/>
      </defs>
      <use xlink:href="#Inter-Regular-45"/>
      <use x="59.801147" xlink:href="#Inter-Regular-6e"/>
      <use x="118.323883" xlink:href="#Inter-Regular-67"/>
      <use x="179.261398" xlink:href="#Inter-Regular-6c"/>
      <use x="202.982986" xlink:href="#Inter-Regular-61"/>
      <use x="259.375046" xlink:href="#Inter-Regular-6e"/>
      <use x="317.897781" xlink:href="#Inter-Regular-64"/>
     </g>
    </g>
   </g>
  </g>
 </g>
 <defs>
  <clipPath id="p6044b9f086">
   <rect height="443.52" width="669.6" x="80.8625" y="33.225"/>
  </clipPath>
 </defs>
</svg>
