<?xml version="1.0" encoding="utf-8" standalone="no"?>
<!DOCTYPE svg PUBLIC "-//W3C//DTD SVG 1.1//EN"
  "http://www.w3.org/Graphics/SVG/1.1/DTD/svg11.dtd">
<svg version="1.1" viewBox="0 0 757.565226 511.27625" xmlns="http://www.w3.org/2000/svg" xmlns:xlink="http://www.w3.org/1999/xlink">
 <metadata>
  <rdf:RDF xmlns:cc="http://creativecommons.org/ns#" xmlns:dc="http://purl.org/dc/elements/1.1/" xmlns:rdf="http://www.w3.org/1999/02/22-rdf-syntax-ns#">
   <cc:Work>
    <dc:type rdf:resource="http://purl.org/dc/dcmitype/StillImage"/>
    <dc:date>2021-06-10T16:27:04.097653</dc:date>
    <dc:format>image/svg+xml</dc:format>
    <dc:creator>
     <cc:Agent>
      <dc:title>Matplotlib v3.4.2, https://matplotlib.org/</dc:title>
     </cc:Agent>
    </dc:creator>
   </cc:Work>
  </rdf:RDF>
 </metadata>
 <defs>
  <style type="text/css">*{stroke-linecap:butt;stroke-linejoin:round;}</style>
 </defs>
 <g id="figure_1">
  <g id="patch_1">
   <path d="M 0 511.27625 
L 757.565226 511.27625 
L 757.565226 0 
L 0 0 
z
" style="fill:#ffffff;"/>
  </g>
  <g id="axes_1">
   <g id="patch_2">
    <path d="M 68.575 476.745 
L 738.175 476.745 
L 738.175 33.225 
L 68.575 33.225 
z
" style="fill:#ffffff;"/>
   </g>
   <g id="matplotlib.axis_1">
    <g id="xtick_1">
     <g id="line2d_1">
      <defs>
       <path d="M 0 0 
L 0 3.5 
" id="m16bfaaefdd" style="stroke:#000000;stroke-width:0.8;"/>
      </defs>
      <g>
       <use style="stroke:#000000;stroke-width:0.8;" x="68.575" xlink:href="#m16bfaaefdd" y="476.745"/>
      </g>
     </g>
     <g id="text_1">
      <!-- 01 Mar -->
      <g transform="translate(52.538281 491.018438)scale(0.1 -0.1)">
       <defs>
        <path d="M 2000 -64 
Q 1230 -64 806 561 
Q 382 1186 382 2327 
Q 382 3459 809 4088 
Q 1236 4718 2000 4718 
Q 2764 4718 3191 4088 
Q 3618 3459 3618 2327 
Q 3618 1186 3194 561 
Q 2771 -64 2000 -64 
z
M 2000 436 
Q 2509 436 2791 927 
Q 3073 1418 3073 2327 
Q 3073 3234 2789 3730 
Q 2505 4227 2000 4227 
Q 1496 4227 1211 3730 
Q 927 3234 927 2327 
Q 927 1418 1210 927 
Q 1493 436 2000 436 
z
" id="Inter-Regular-30" transform="scale(0.015625)"/>
        <path d="M 1973 4655 
L 1973 0 
L 1409 0 
L 1409 3836 
L 1373 3836 
Q 1341 3773 1209 3692 
Q 1077 3611 868 3551 
Q 659 3491 391 3491 
L 391 3964 
Q 661 3964 859 4061 
Q 1057 4159 1190 4291 
Q 1323 4423 1392 4529 
Q 1461 4636 1473 4655 
L 1973 4655 
z
" id="Inter-Regular-31" transform="scale(0.015625)"/>
        <path id="Inter-Regular-20" transform="scale(0.015625)"/>
        <path d="M 564 4655 
L 1236 4655 
L 2818 791 
L 2873 791 
L 4455 4655 
L 5127 4655 
L 5127 0 
L 4600 0 
L 4600 3536 
L 4555 3536 
L 3100 0 
L 2591 0 
L 1136 3536 
L 1091 3536 
L 1091 0 
L 564 0 
L 564 4655 
z
" id="Inter-Regular-4d" transform="scale(0.015625)"/>
        <path d="M 1518 -82 
Q 1186 -82 916 44 
Q 646 170 486 410 
Q 327 650 327 991 
Q 327 1291 445 1478 
Q 564 1666 761 1773 
Q 959 1880 1199 1933 
Q 1439 1986 1682 2018 
Q 2000 2059 2199 2080 
Q 2398 2102 2490 2154 
Q 2582 2207 2582 2336 
L 2582 2355 
Q 2582 2691 2399 2877 
Q 2216 3064 1846 3064 
Q 1461 3064 1243 2895 
Q 1025 2727 936 2536 
L 427 2718 
Q 564 3036 792 3214 
Q 1021 3393 1292 3464 
Q 1564 3536 1827 3536 
Q 1996 3536 2215 3496 
Q 2434 3457 2640 3334 
Q 2846 3211 2982 2963 
Q 3118 2716 3118 2300 
L 3118 0 
L 2582 0 
L 2582 473 
L 2555 473 
Q 2500 359 2373 229 
Q 2246 100 2034 9 
Q 1823 -82 1518 -82 
z
M 1600 400 
Q 1918 400 2137 525 
Q 2357 650 2469 847 
Q 2582 1045 2582 1264 
L 2582 1755 
Q 2548 1714 2433 1681 
Q 2318 1648 2169 1624 
Q 2021 1600 1881 1583 
Q 1741 1566 1655 1555 
Q 1446 1527 1265 1467 
Q 1084 1407 974 1287 
Q 864 1168 864 964 
Q 864 684 1072 542 
Q 1280 400 1600 400 
z
" id="Inter-Regular-61" transform="scale(0.015625)"/>
        <path d="M 491 0 
L 491 3491 
L 1009 3491 
L 1009 2964 
L 1046 2964 
Q 1139 3223 1389 3384 
Q 1639 3545 1955 3545 
Q 2100 3545 2209 3511 
Q 2318 3477 2400 3418 
L 2218 2964 
Q 2161 2993 2085 3010 
Q 2009 3027 1909 3027 
Q 1527 3027 1277 2794 
Q 1027 2561 1027 2209 
L 1027 0 
L 491 0 
z
" id="Inter-Regular-72" transform="scale(0.015625)"/>
       </defs>
       <use xlink:href="#Inter-Regular-30"/>
       <use x="62.500015" xlink:href="#Inter-Regular-31"/>
       <use x="106.676163" xlink:href="#Inter-Regular-20"/>
       <use x="134.801163" xlink:href="#Inter-Regular-4d"/>
       <use x="225.99437" xlink:href="#Inter-Regular-61"/>
       <use x="282.386429" xlink:href="#Inter-Regular-72"/>
      </g>
     </g>
    </g>
    <g id="xtick_2">
     <g id="line2d_2">
      <g>
       <use style="stroke:#000000;stroke-width:0.8;" x="113.053953" xlink:href="#m16bfaaefdd" y="476.745"/>
      </g>
     </g>
     <g id="text_2">
      <!-- 01 Apr -->
      <g transform="translate(97.968796 491.116875)scale(0.1 -0.1)">
       <defs>
        <path d="M 755 0 
L 164 0 
L 1873 4655 
L 2455 4655 
L 4164 0 
L 3573 0 
L 3105 1318 
L 1223 1318 
L 755 0 
z
M 1400 1818 
L 2927 1818 
L 2182 3918 
L 2146 3918 
L 1400 1818 
z
" id="Inter-Regular-41" transform="scale(0.015625)"/>
        <path d="M 491 -1309 
L 491 3491 
L 1009 3491 
L 1009 2936 
L 1073 2936 
Q 1132 3027 1237 3169 
Q 1343 3311 1542 3423 
Q 1741 3536 2082 3536 
Q 2523 3536 2859 3315 
Q 3196 3095 3384 2690 
Q 3573 2286 3573 1736 
Q 3573 1182 3384 776 
Q 3196 370 2861 148 
Q 2527 -73 2091 -73 
Q 1755 -73 1552 39 
Q 1350 152 1241 296 
Q 1132 441 1073 536 
L 1027 536 
L 1027 -1309 
L 491 -1309 
z
M 1018 1745 
Q 1018 1152 1276 780 
Q 1534 409 2018 409 
Q 2355 409 2581 587 
Q 2807 766 2921 1069 
Q 3036 1373 3036 1745 
Q 3036 2114 2923 2410 
Q 2811 2707 2585 2881 
Q 2359 3055 2018 3055 
Q 1527 3055 1272 2693 
Q 1018 2332 1018 1745 
z
" id="Inter-Regular-70" transform="scale(0.015625)"/>
       </defs>
       <use xlink:href="#Inter-Regular-30"/>
       <use x="62.500015" xlink:href="#Inter-Regular-31"/>
       <use x="106.676163" xlink:href="#Inter-Regular-20"/>
       <use x="134.801163" xlink:href="#Inter-Regular-41"/>
       <use x="202.41481" xlink:href="#Inter-Regular-70"/>
       <use x="263.352325" xlink:href="#Inter-Regular-72"/>
      </g>
     </g>
    </g>
    <g id="xtick_3">
     <g id="line2d_3">
      <g>
       <use style="stroke:#000000;stroke-width:0.8;" x="156.0981" xlink:href="#m16bfaaefdd" y="476.745"/>
      </g>
     </g>
     <g id="text_3">
      <!-- 01 May -->
      <g transform="translate(139.194975 491.116875)scale(0.1 -0.1)">
       <defs>
        <path d="M 818 -1355 
Q 682 -1355 575 -1333 
Q 468 -1311 427 -1291 
L 564 -818 
Q 857 -893 1053 -814 
Q 1250 -736 1391 -345 
L 1509 -18 
L 218 3491 
L 800 3491 
L 1764 709 
L 1800 709 
L 2764 3491 
L 3346 3491 
L 1846 -564 
Q 1550 -1355 818 -1355 
z
" id="Inter-Regular-79" transform="scale(0.015625)"/>
       </defs>
       <use xlink:href="#Inter-Regular-30"/>
       <use x="62.500015" xlink:href="#Inter-Regular-31"/>
       <use x="106.676163" xlink:href="#Inter-Regular-20"/>
       <use x="134.801163" xlink:href="#Inter-Regular-4d"/>
       <use x="225.99437" xlink:href="#Inter-Regular-61"/>
       <use x="282.386429" xlink:href="#Inter-Regular-79"/>
      </g>
     </g>
    </g>
    <g id="xtick_4">
     <g id="line2d_4">
      <g>
       <use style="stroke:#000000;stroke-width:0.8;" x="200.577053" xlink:href="#m16bfaaefdd" y="476.745"/>
      </g>
     </g>
     <g id="text_4">
      <!-- 01 Jun -->
      <g transform="translate(185.292678 491.018438)scale(0.1 -0.1)">
       <defs>
        <path d="M 2346 4655 
L 2909 4655 
L 2909 1327 
Q 2909 657 2549 296 
Q 2189 -64 1582 -64 
Q 1200 -64 902 76 
Q 605 216 434 475 
Q 264 734 264 1091 
L 818 1091 
Q 818 795 1034 615 
Q 1250 436 1582 436 
Q 1948 436 2147 664 
Q 2346 893 2346 1327 
L 2346 4655 
z
" id="Inter-Regular-4a" transform="scale(0.015625)"/>
        <path d="M 2691 1427 
L 2691 3491 
L 3227 3491 
L 3227 0 
L 2691 0 
L 2691 591 
L 2655 591 
Q 2532 325 2273 140 
Q 2014 -45 1618 -45 
Q 1127 -45 809 280 
Q 491 605 491 1273 
L 491 3491 
L 1027 3491 
L 1027 1309 
Q 1027 927 1242 700 
Q 1457 473 1791 473 
Q 1991 473 2199 575 
Q 2407 677 2549 888 
Q 2691 1100 2691 1427 
z
" id="Inter-Regular-75" transform="scale(0.015625)"/>
        <path d="M 1027 2100 
L 1027 0 
L 491 0 
L 491 3491 
L 1009 3491 
L 1009 2945 
L 1055 2945 
Q 1177 3211 1427 3373 
Q 1677 3536 2073 3536 
Q 2602 3536 2928 3211 
Q 3255 2886 3255 2218 
L 3255 0 
L 2718 0 
L 2718 2182 
Q 2718 2593 2504 2824 
Q 2291 3055 1918 3055 
Q 1534 3055 1280 2806 
Q 1027 2557 1027 2100 
z
" id="Inter-Regular-6e" transform="scale(0.015625)"/>
       </defs>
       <use xlink:href="#Inter-Regular-30"/>
       <use x="62.500015" xlink:href="#Inter-Regular-31"/>
       <use x="106.676163" xlink:href="#Inter-Regular-20"/>
       <use x="134.801163" xlink:href="#Inter-Regular-4a"/>
       <use x="189.062531" xlink:href="#Inter-Regular-75"/>
       <use x="247.159134" xlink:href="#Inter-Regular-6e"/>
      </g>
     </g>
    </g>
    <g id="xtick_5">
     <g id="line2d_5">
      <g>
       <use style="stroke:#000000;stroke-width:0.8;" x="243.621201" xlink:href="#m16bfaaefdd" y="476.745"/>
      </g>
     </g>
     <g id="text_5">
      <!-- 01 Jul -->
      <g transform="translate(230.077451 491.018438)scale(0.1 -0.1)">
       <defs>
        <path d="M 1027 4655 
L 1027 0 
L 491 0 
L 491 4655 
L 1027 4655 
z
" id="Inter-Regular-6c" transform="scale(0.015625)"/>
       </defs>
       <use xlink:href="#Inter-Regular-30"/>
       <use x="62.500015" xlink:href="#Inter-Regular-31"/>
       <use x="106.676163" xlink:href="#Inter-Regular-20"/>
       <use x="134.801163" xlink:href="#Inter-Regular-4a"/>
       <use x="189.062531" xlink:href="#Inter-Regular-75"/>
       <use x="247.159134" xlink:href="#Inter-Regular-6c"/>
      </g>
     </g>
    </g>
    <g id="xtick_6">
     <g id="line2d_6">
      <g>
       <use style="stroke:#000000;stroke-width:0.8;" x="288.100154" xlink:href="#m16bfaaefdd" y="476.745"/>
      </g>
     </g>
     <g id="text_6">
      <!-- 01 Aug -->
      <g transform="translate(272.028279 491.116875)scale(0.1 -0.1)">
       <defs>
        <path d="M 1900 -1382 
Q 1316 -1382 976 -1169 
Q 636 -957 473 -682 
L 900 -382 
Q 973 -477 1084 -601 
Q 1196 -725 1390 -817 
Q 1584 -909 1900 -909 
Q 2323 -909 2598 -704 
Q 2873 -500 2873 -64 
L 2873 645 
L 2827 645 
Q 2768 550 2660 410 
Q 2552 270 2351 162 
Q 2150 55 1809 55 
Q 1386 55 1051 255 
Q 716 455 521 836 
Q 327 1218 327 1764 
Q 327 2300 516 2699 
Q 705 3098 1041 3317 
Q 1377 3536 1818 3536 
Q 2159 3536 2360 3423 
Q 2561 3311 2669 3169 
Q 2777 3027 2836 2936 
L 2891 2936 
L 2891 3491 
L 3409 3491 
L 3409 -100 
Q 3409 -550 3205 -833 
Q 3002 -1116 2660 -1249 
Q 2318 -1382 1900 -1382 
z
M 1882 536 
Q 2366 536 2624 864 
Q 2882 1193 2882 1773 
Q 2882 2339 2627 2697 
Q 2373 3055 1882 3055 
Q 1541 3055 1315 2882 
Q 1089 2709 976 2418 
Q 864 2127 864 1773 
Q 864 1227 1120 881 
Q 1377 536 1882 536 
z
" id="Inter-Regular-67" transform="scale(0.015625)"/>
       </defs>
       <use xlink:href="#Inter-Regular-30"/>
       <use x="62.500015" xlink:href="#Inter-Regular-31"/>
       <use x="106.676163" xlink:href="#Inter-Regular-20"/>
       <use x="134.801163" xlink:href="#Inter-Regular-41"/>
       <use x="202.41481" xlink:href="#Inter-Regular-75"/>
       <use x="260.511414" xlink:href="#Inter-Regular-67"/>
      </g>
     </g>
    </g>
    <g id="xtick_7">
     <g id="line2d_7">
      <g>
       <use style="stroke:#000000;stroke-width:0.8;" x="332.579106" xlink:href="#m16bfaaefdd" y="476.745"/>
      </g>
     </g>
     <g id="text_7">
      <!-- 01 Sep -->
      <g transform="translate(316.691606 491.116875)scale(0.1 -0.1)">
       <defs>
        <path d="M 3109 3491 
Q 3068 3836 2777 4027 
Q 2486 4218 2064 4218 
Q 1600 4218 1318 3999 
Q 1036 3780 1036 3445 
Q 1036 3195 1189 3042 
Q 1343 2889 1553 2803 
Q 1764 2718 1936 2673 
L 2409 2545 
Q 2591 2498 2815 2414 
Q 3039 2330 3244 2185 
Q 3450 2041 3584 1816 
Q 3718 1591 3718 1264 
Q 3718 886 3521 581 
Q 3325 277 2949 97 
Q 2573 -82 2036 -82 
Q 1286 -82 845 272 
Q 405 627 364 1200 
L 946 1200 
Q 968 936 1124 764 
Q 1280 593 1519 510 
Q 1759 427 2036 427 
Q 2359 427 2616 533 
Q 2873 639 3023 828 
Q 3173 1018 3173 1273 
Q 3173 1505 3043 1650 
Q 2914 1795 2702 1886 
Q 2491 1977 2246 2045 
L 1673 2209 
Q 1127 2366 809 2657 
Q 491 2948 491 3418 
Q 491 3809 703 4101 
Q 916 4393 1276 4555 
Q 1636 4718 2082 4718 
Q 2532 4718 2882 4558 
Q 3232 4398 3437 4120 
Q 3643 3843 3655 3491 
L 3109 3491 
z
" id="Inter-Regular-53" transform="scale(0.015625)"/>
        <path d="M 1955 -73 
Q 1450 -73 1085 151 
Q 721 375 524 778 
Q 327 1182 327 1718 
Q 327 2255 524 2665 
Q 721 3075 1074 3305 
Q 1427 3536 1900 3536 
Q 2173 3536 2439 3445 
Q 2705 3355 2923 3151 
Q 3141 2948 3270 2614 
Q 3400 2280 3400 1791 
L 3400 1564 
L 866 1564 
Q 884 1005 1183 707 
Q 1482 409 1955 409 
Q 2271 409 2498 545 
Q 2725 682 2827 955 
L 3346 809 
Q 3223 414 2854 170 
Q 2486 -73 1955 -73 
z
M 866 2027 
L 2855 2027 
Q 2855 2470 2595 2762 
Q 2336 3055 1900 3055 
Q 1593 3055 1368 2911 
Q 1143 2768 1013 2533 
Q 884 2298 866 2027 
z
" id="Inter-Regular-65" transform="scale(0.015625)"/>
       </defs>
       <use xlink:href="#Inter-Regular-30"/>
       <use x="62.500015" xlink:href="#Inter-Regular-31"/>
       <use x="106.676163" xlink:href="#Inter-Regular-20"/>
       <use x="134.801163" xlink:href="#Inter-Regular-53"/>
       <use x="198.57959" xlink:href="#Inter-Regular-65"/>
       <use x="256.818237" xlink:href="#Inter-Regular-70"/>
      </g>
     </g>
    </g>
    <g id="xtick_8">
     <g id="line2d_8">
      <g>
       <use style="stroke:#000000;stroke-width:0.8;" x="375.623254" xlink:href="#m16bfaaefdd" y="476.745"/>
      </g>
     </g>
     <g id="text_8">
      <!-- 01 Oct -->
      <g transform="translate(360.467004 491.018438)scale(0.1 -0.1)">
       <defs>
        <path d="M 4491 2327 
Q 4491 1591 4225 1054 
Q 3959 518 3495 227 
Q 3032 -64 2436 -64 
Q 1841 -64 1377 227 
Q 914 518 648 1054 
Q 382 1591 382 2327 
Q 382 3064 648 3600 
Q 914 4136 1377 4427 
Q 1841 4718 2436 4718 
Q 3032 4718 3495 4427 
Q 3959 4136 4225 3600 
Q 4491 3064 4491 2327 
z
M 3946 2327 
Q 3946 2932 3744 3348 
Q 3543 3764 3201 3977 
Q 2859 4191 2436 4191 
Q 2014 4191 1672 3977 
Q 1330 3764 1128 3348 
Q 927 2932 927 2327 
Q 927 1723 1128 1307 
Q 1330 891 1672 677 
Q 2014 464 2436 464 
Q 2859 464 3201 677 
Q 3543 891 3744 1307 
Q 3946 1723 3946 2327 
z
" id="Inter-Regular-4f" transform="scale(0.015625)"/>
        <path d="M 1909 -73 
Q 1418 -73 1063 159 
Q 709 391 518 798 
Q 327 1205 327 1727 
Q 327 2259 524 2667 
Q 721 3075 1074 3305 
Q 1427 3536 1900 3536 
Q 2268 3536 2563 3400 
Q 2859 3264 3047 3018 
Q 3236 2773 3282 2445 
L 2746 2445 
Q 2684 2684 2474 2869 
Q 2264 3055 1909 3055 
Q 1439 3055 1151 2697 
Q 864 2339 864 1745 
Q 864 1139 1148 774 
Q 1432 409 1909 409 
Q 2223 409 2447 570 
Q 2671 732 2746 1018 
L 3282 1018 
Q 3236 709 3058 462 
Q 2880 216 2588 71 
Q 2296 -73 1909 -73 
z
" id="Inter-Regular-63" transform="scale(0.015625)"/>
        <path d="M 2009 3491 
L 2009 3036 
L 1264 3036 
L 1264 1000 
Q 1264 773 1331 660 
Q 1398 548 1503 510 
Q 1609 473 1727 473 
Q 1816 473 1873 483 
Q 1930 493 1964 500 
L 2073 18 
Q 2018 -2 1920 -23 
Q 1823 -45 1673 -45 
Q 1446 -45 1228 52 
Q 1011 150 869 350 
Q 727 550 727 855 
L 727 3036 
L 200 3036 
L 200 3491 
L 727 3491 
L 727 4327 
L 1264 4327 
L 1264 3491 
L 2009 3491 
z
" id="Inter-Regular-74" transform="scale(0.015625)"/>
       </defs>
       <use xlink:href="#Inter-Regular-30"/>
       <use x="62.500015" xlink:href="#Inter-Regular-31"/>
       <use x="106.676163" xlink:href="#Inter-Regular-20"/>
       <use x="134.801163" xlink:href="#Inter-Regular-4f"/>
       <use x="210.937546" xlink:href="#Inter-Regular-63"/>
       <use x="266.761414" xlink:href="#Inter-Regular-74"/>
      </g>
     </g>
    </g>
    <g id="xtick_9">
     <g id="line2d_9">
      <g>
       <use style="stroke:#000000;stroke-width:0.8;" x="420.102207" xlink:href="#m16bfaaefdd" y="476.745"/>
      </g>
     </g>
     <g id="text_9">
      <!-- 01 Nov -->
      <g transform="translate(403.831113 491.018438)scale(0.1 -0.1)">
       <defs>
        <path d="M 4255 4655 
L 4255 0 
L 3709 0 
L 1173 3655 
L 1127 3655 
L 1127 0 
L 564 0 
L 564 4655 
L 1109 4655 
L 3655 991 
L 3700 991 
L 3700 4655 
L 4255 4655 
z
" id="Inter-Regular-4e" transform="scale(0.015625)"/>
        <path d="M 1909 -73 
Q 1436 -73 1080 152 
Q 725 377 526 781 
Q 327 1186 327 1727 
Q 327 2273 526 2679 
Q 725 3086 1080 3311 
Q 1436 3536 1909 3536 
Q 2382 3536 2737 3311 
Q 3093 3086 3292 2679 
Q 3491 2273 3491 1727 
Q 3491 1186 3292 781 
Q 3093 377 2737 152 
Q 2382 -73 1909 -73 
z
M 1909 409 
Q 2268 409 2500 593 
Q 2732 777 2843 1077 
Q 2955 1377 2955 1727 
Q 2955 2077 2843 2379 
Q 2732 2682 2500 2868 
Q 2268 3055 1909 3055 
Q 1550 3055 1318 2868 
Q 1086 2682 975 2379 
Q 864 2077 864 1727 
Q 864 1377 975 1077 
Q 1086 777 1318 593 
Q 1550 409 1909 409 
z
" id="Inter-Regular-6f" transform="scale(0.015625)"/>
        <path d="M 3346 3491 
L 2055 0 
L 1509 0 
L 218 3491 
L 800 3491 
L 1764 709 
L 1800 709 
L 2764 3491 
L 3346 3491 
z
" id="Inter-Regular-76" transform="scale(0.015625)"/>
       </defs>
       <use xlink:href="#Inter-Regular-30"/>
       <use x="62.500015" xlink:href="#Inter-Regular-31"/>
       <use x="106.676163" xlink:href="#Inter-Regular-20"/>
       <use x="134.801163" xlink:href="#Inter-Regular-4e"/>
       <use x="210.085266" xlink:href="#Inter-Regular-6f"/>
       <use x="269.74437" xlink:href="#Inter-Regular-76"/>
      </g>
     </g>
    </g>
    <g id="xtick_10">
     <g id="line2d_10">
      <g>
       <use style="stroke:#000000;stroke-width:0.8;" x="463.146354" xlink:href="#m16bfaaefdd" y="476.745"/>
      </g>
     </g>
     <g id="text_10">
      <!-- 01 Dec -->
      <g transform="translate(447.109636 491.018438)scale(0.1 -0.1)">
       <defs>
        <path d="M 2000 0 
L 564 0 
L 564 4655 
L 2064 4655 
Q 2741 4655 3223 4376 
Q 3705 4098 3961 3578 
Q 4218 3059 4218 2336 
Q 4218 1609 3959 1085 
Q 3700 561 3204 280 
Q 2709 0 2000 0 
z
M 1127 500 
L 1964 500 
Q 2830 500 3251 992 
Q 3673 1484 3673 2336 
Q 3673 3182 3259 3668 
Q 2846 4155 2027 4155 
L 1127 4155 
L 1127 500 
z
" id="Inter-Regular-44" transform="scale(0.015625)"/>
       </defs>
       <use xlink:href="#Inter-Regular-30"/>
       <use x="62.500015" xlink:href="#Inter-Regular-31"/>
       <use x="106.676163" xlink:href="#Inter-Regular-20"/>
       <use x="134.801163" xlink:href="#Inter-Regular-44"/>
       <use x="206.676178" xlink:href="#Inter-Regular-65"/>
       <use x="264.914825" xlink:href="#Inter-Regular-63"/>
      </g>
     </g>
    </g>
    <g id="xtick_11">
     <g id="line2d_11">
      <g>
       <use style="stroke:#000000;stroke-width:0.8;" x="507.625307" xlink:href="#m16bfaaefdd" y="476.745"/>
      </g>
     </g>
     <g id="text_11">
      <!-- 01 Jan -->
      <g transform="translate(492.426088 491.018438)scale(0.1 -0.1)">
       <use xlink:href="#Inter-Regular-30"/>
       <use x="62.500015" xlink:href="#Inter-Regular-31"/>
       <use x="106.676163" xlink:href="#Inter-Regular-20"/>
       <use x="134.801163" xlink:href="#Inter-Regular-4a"/>
       <use x="189.062531" xlink:href="#Inter-Regular-61"/>
       <use x="245.45459" xlink:href="#Inter-Regular-6e"/>
      </g>
     </g>
    </g>
    <g id="xtick_12">
     <g id="line2d_12">
      <g>
       <use style="stroke:#000000;stroke-width:0.8;" x="552.10426" xlink:href="#m16bfaaefdd" y="476.745"/>
      </g>
     </g>
     <g id="text_12">
      <!-- 01 Feb -->
      <g transform="translate(536.415197 491.018438)scale(0.1 -0.1)">
       <defs>
        <path d="M 564 0 
L 564 4655 
L 3355 4655 
L 3355 4155 
L 1127 4155 
L 1127 2582 
L 3146 2582 
L 3146 2082 
L 1127 2082 
L 1127 0 
L 564 0 
z
" id="Inter-Regular-46" transform="scale(0.015625)"/>
        <path d="M 564 0 
L 564 4655 
L 1100 4655 
L 1100 2936 
L 1146 2936 
Q 1205 3027 1310 3169 
Q 1416 3311 1615 3423 
Q 1814 3536 2155 3536 
Q 2596 3536 2932 3315 
Q 3268 3095 3457 2690 
Q 3646 2286 3646 1736 
Q 3646 1182 3457 776 
Q 3268 370 2934 148 
Q 2600 -73 2164 -73 
Q 1827 -73 1625 39 
Q 1423 152 1314 296 
Q 1205 441 1146 536 
L 1082 536 
L 1082 0 
L 564 0 
z
M 1091 1745 
Q 1091 1152 1349 780 
Q 1607 409 2091 409 
Q 2427 409 2653 587 
Q 2880 766 2994 1069 
Q 3109 1373 3109 1745 
Q 3109 2114 2996 2410 
Q 2884 2707 2658 2881 
Q 2432 3055 2091 3055 
Q 1600 3055 1345 2693 
Q 1091 2332 1091 1745 
z
" id="Inter-Regular-62" transform="scale(0.015625)"/>
       </defs>
       <use xlink:href="#Inter-Regular-30"/>
       <use x="62.500015" xlink:href="#Inter-Regular-31"/>
       <use x="106.676163" xlink:href="#Inter-Regular-20"/>
       <use x="134.801163" xlink:href="#Inter-Regular-46"/>
       <use x="193.465942" xlink:href="#Inter-Regular-65"/>
       <use x="251.70459" xlink:href="#Inter-Regular-62"/>
      </g>
     </g>
    </g>
    <g id="xtick_13">
     <g id="line2d_13">
      <g>
       <use style="stroke:#000000;stroke-width:0.8;" x="592.278798" xlink:href="#m16bfaaefdd" y="476.745"/>
      </g>
     </g>
     <g id="text_13">
      <!-- 01 Mar -->
      <g transform="translate(576.242079 491.018438)scale(0.1 -0.1)">
       <use xlink:href="#Inter-Regular-30"/>
       <use x="62.500015" xlink:href="#Inter-Regular-31"/>
       <use x="106.676163" xlink:href="#Inter-Regular-20"/>
       <use x="134.801163" xlink:href="#Inter-Regular-4d"/>
       <use x="225.99437" xlink:href="#Inter-Regular-61"/>
       <use x="282.386429" xlink:href="#Inter-Regular-72"/>
      </g>
     </g>
    </g>
    <g id="xtick_14">
     <g id="line2d_14">
      <g>
       <use style="stroke:#000000;stroke-width:0.8;" x="636.75775" xlink:href="#m16bfaaefdd" y="476.745"/>
      </g>
     </g>
     <g id="text_14">
      <!-- 01 Apr -->
      <g transform="translate(621.672594 491.116875)scale(0.1 -0.1)">
       <use xlink:href="#Inter-Regular-30"/>
       <use x="62.500015" xlink:href="#Inter-Regular-31"/>
       <use x="106.676163" xlink:href="#Inter-Regular-20"/>
       <use x="134.801163" xlink:href="#Inter-Regular-41"/>
       <use x="202.41481" xlink:href="#Inter-Regular-70"/>
       <use x="263.352325" xlink:href="#Inter-Regular-72"/>
      </g>
     </g>
    </g>
    <g id="xtick_15">
     <g id="line2d_15">
      <g>
       <use style="stroke:#000000;stroke-width:0.8;" x="679.801898" xlink:href="#m16bfaaefdd" y="476.745"/>
      </g>
     </g>
     <g id="text_15">
      <!-- 01 May -->
      <g transform="translate(662.898773 491.116875)scale(0.1 -0.1)">
       <use xlink:href="#Inter-Regular-30"/>
       <use x="62.500015" xlink:href="#Inter-Regular-31"/>
       <use x="106.676163" xlink:href="#Inter-Regular-20"/>
       <use x="134.801163" xlink:href="#Inter-Regular-4d"/>
       <use x="225.99437" xlink:href="#Inter-Regular-61"/>
       <use x="282.386429" xlink:href="#Inter-Regular-79"/>
      </g>
     </g>
    </g>
    <g id="xtick_16">
     <g id="line2d_16">
      <g>
       <use style="stroke:#000000;stroke-width:0.8;" x="724.280851" xlink:href="#m16bfaaefdd" y="476.745"/>
      </g>
     </g>
     <g id="text_16">
      <!-- 01 Jun -->
      <g transform="translate(708.996476 491.018438)scale(0.1 -0.1)">
       <use xlink:href="#Inter-Regular-30"/>
       <use x="62.500015" xlink:href="#Inter-Regular-31"/>
       <use x="106.676163" xlink:href="#Inter-Regular-20"/>
       <use x="134.801163" xlink:href="#Inter-Regular-4a"/>
       <use x="189.062531" xlink:href="#Inter-Regular-75"/>
       <use x="247.159134" xlink:href="#Inter-Regular-6e"/>
      </g>
     </g>
    </g>
   </g>
   <g id="matplotlib.axis_2">
    <g id="ytick_1">
     <g id="line2d_17">
      <path clip-path="url(#pb0894a05bd)" d="M 68.575 476.745 
L 738.175 476.745 
" style="fill:none;stroke:#e5e5e5;stroke-linecap:square;stroke-width:0.8;"/>
     </g>
     <g id="line2d_18">
      <defs>
       <path d="M 0 0 
L -3.5 0 
" id="m52443694ac" style="stroke:#000000;stroke-width:0.8;"/>
      </defs>
      <g>
       <use style="stroke:#000000;stroke-width:0.8;" x="68.575" xlink:href="#m52443694ac" y="476.745"/>
      </g>
     </g>
     <g id="text_17">
      <!-- 0.00% -->
      <g transform="translate(31.94375 480.381719)scale(0.1 -0.1)">
       <defs>
        <path d="M 882 -36 
Q 714 -36 593 84 
Q 473 205 473 373 
Q 473 541 593 661 
Q 714 782 882 782 
Q 1050 782 1170 661 
Q 1291 541 1291 373 
Q 1291 205 1170 84 
Q 1050 -36 882 -36 
z
" id="Inter-Regular-2e" transform="scale(0.015625)"/>
        <path d="M 2855 873 
L 2855 1118 
Q 2855 1373 2960 1585 
Q 3066 1798 3269 1926 
Q 3473 2055 3764 2055 
Q 4059 2055 4259 1926 
Q 4459 1798 4561 1585 
Q 4664 1373 4664 1118 
L 4664 873 
Q 4664 618 4560 405 
Q 4457 193 4256 64 
Q 4055 -64 3764 -64 
Q 3468 -64 3266 64 
Q 3064 193 2959 405 
Q 2855 618 2855 873 
z
M 536 3536 
L 536 3782 
Q 536 4036 642 4248 
Q 748 4461 951 4589 
Q 1155 4718 1446 4718 
Q 1741 4718 1941 4589 
Q 2141 4461 2243 4248 
Q 2346 4036 2346 3782 
L 2346 3536 
Q 2346 3282 2242 3069 
Q 2139 2857 1937 2728 
Q 1736 2600 1446 2600 
Q 1150 2600 948 2728 
Q 746 2857 641 3069 
Q 536 3282 536 3536 
z
M 709 0 
L 3909 4655 
L 4427 4655 
L 1227 0 
L 709 0 
z
M 3318 1118 
L 3318 873 
Q 3318 661 3418 494 
Q 3518 327 3764 327 
Q 4002 327 4101 494 
Q 4200 661 4200 873 
L 4200 1118 
Q 4200 1330 4104 1497 
Q 4009 1664 3764 1664 
Q 3525 1664 3421 1497 
Q 3318 1330 3318 1118 
z
M 1000 3782 
L 1000 3536 
Q 1000 3325 1100 3158 
Q 1200 2991 1446 2991 
Q 1684 2991 1783 3158 
Q 1882 3325 1882 3536 
L 1882 3782 
Q 1882 3993 1786 4160 
Q 1691 4327 1446 4327 
Q 1207 4327 1103 4160 
Q 1000 3993 1000 3782 
z
" id="Inter-Regular-25" transform="scale(0.015625)"/>
       </defs>
       <use xlink:href="#Inter-Regular-30"/>
       <use x="62.500015" xlink:href="#Inter-Regular-2e"/>
       <use x="90.056839" xlink:href="#Inter-Regular-30"/>
       <use x="152.556854" xlink:href="#Inter-Regular-30"/>
       <use x="215.05687" xlink:href="#Inter-Regular-25"/>
      </g>
     </g>
    </g>
    <g id="ytick_2">
     <g id="line2d_19">
      <path clip-path="url(#pb0894a05bd)" d="M 68.575 391.005859 
L 738.175 391.005859 
" style="fill:none;stroke:#e5e5e5;stroke-linecap:square;stroke-width:0.8;"/>
     </g>
     <g id="line2d_20">
      <g>
       <use style="stroke:#000000;stroke-width:0.8;" x="68.575" xlink:href="#m52443694ac" y="391.005859"/>
      </g>
     </g>
     <g id="text_18">
      <!-- 0.02% -->
      <g transform="translate(32.142188 394.642578)scale(0.1 -0.1)">
       <defs>
        <path d="M 482 0 
L 482 409 
L 2018 2091 
Q 2289 2386 2464 2605 
Q 2639 2825 2724 3019 
Q 2809 3214 2809 3427 
Q 2809 3795 2553 4011 
Q 2298 4227 1918 4227 
Q 1514 4227 1275 3985 
Q 1036 3743 1036 3345 
L 500 3345 
Q 500 3755 688 4064 
Q 877 4373 1203 4545 
Q 1530 4718 1936 4718 
Q 2346 4718 2661 4545 
Q 2977 4373 3156 4079 
Q 3336 3786 3336 3427 
Q 3336 3170 3244 2926 
Q 3152 2682 2926 2383 
Q 2700 2084 2300 1655 
L 1255 536 
L 1255 500 
L 3418 500 
L 3418 0 
L 482 0 
z
" id="Inter-Regular-32" transform="scale(0.015625)"/>
       </defs>
       <use xlink:href="#Inter-Regular-30"/>
       <use x="62.500015" xlink:href="#Inter-Regular-2e"/>
       <use x="90.056839" xlink:href="#Inter-Regular-30"/>
       <use x="152.556854" xlink:href="#Inter-Regular-32"/>
       <use x="213.068237" xlink:href="#Inter-Regular-25"/>
      </g>
     </g>
    </g>
    <g id="ytick_3">
     <g id="line2d_21">
      <path clip-path="url(#pb0894a05bd)" d="M 68.575 305.266719 
L 738.175 305.266719 
" style="fill:none;stroke:#e5e5e5;stroke-linecap:square;stroke-width:0.8;"/>
     </g>
     <g id="line2d_22">
      <g>
       <use style="stroke:#000000;stroke-width:0.8;" x="68.575" xlink:href="#m52443694ac" y="305.266719"/>
      </g>
     </g>
     <g id="text_19">
      <!-- 0.04% -->
      <g transform="translate(31.773438 308.903437)scale(0.1 -0.1)">
       <defs>
        <path d="M 373 955 
L 373 1418 
L 2418 4655 
L 3100 4655 
L 3100 1455 
L 3736 1455 
L 3736 955 
L 3100 955 
L 3100 0 
L 2564 0 
L 2564 955 
L 373 955 
z
M 2564 1455 
L 2564 3936 
L 2527 3936 
L 982 1491 
L 982 1455 
L 2564 1455 
z
" id="Inter-Regular-34" transform="scale(0.015625)"/>
       </defs>
       <use xlink:href="#Inter-Regular-30"/>
       <use x="62.500015" xlink:href="#Inter-Regular-2e"/>
       <use x="90.056839" xlink:href="#Inter-Regular-30"/>
       <use x="152.556854" xlink:href="#Inter-Regular-34"/>
       <use x="216.761414" xlink:href="#Inter-Regular-25"/>
      </g>
     </g>
    </g>
    <g id="ytick_4">
     <g id="line2d_23">
      <path clip-path="url(#pb0894a05bd)" d="M 68.575 219.527578 
L 738.175 219.527578 
" style="fill:none;stroke:#e5e5e5;stroke-linecap:square;stroke-width:0.8;"/>
     </g>
     <g id="line2d_24">
      <g>
       <use style="stroke:#000000;stroke-width:0.8;" x="68.575" xlink:href="#m52443694ac" y="219.527578"/>
      </g>
     </g>
     <g id="text_20">
      <!-- 0.06% -->
      <g transform="translate(31.957813 223.164297)scale(0.1 -0.1)">
       <defs>
        <path d="M 2027 -64 
Q 1741 -59 1454 45 
Q 1168 150 932 399 
Q 696 648 552 1074 
Q 409 1500 409 2145 
Q 409 3386 861 4056 
Q 1314 4727 2100 4727 
Q 2686 4727 3073 4384 
Q 3461 4041 3546 3491 
L 2991 3491 
Q 2914 3811 2691 4019 
Q 2468 4227 2100 4227 
Q 1559 4227 1249 3755 
Q 939 3284 936 2427 
L 973 2427 
Q 1164 2716 1461 2880 
Q 1759 3045 2118 3045 
Q 2518 3045 2850 2846 
Q 3182 2648 3382 2299 
Q 3582 1950 3582 1500 
Q 3582 1068 3389 710 
Q 3196 352 2847 142 
Q 2498 -68 2027 -64 
z
M 2027 436 
Q 2314 436 2542 579 
Q 2771 723 2903 964 
Q 3036 1205 3036 1500 
Q 3036 1789 2908 2026 
Q 2780 2264 2556 2404 
Q 2332 2545 2046 2545 
Q 1757 2545 1525 2397 
Q 1293 2250 1157 2010 
Q 1021 1770 1018 1491 
Q 1018 1214 1149 973 
Q 1280 732 1508 584 
Q 1736 436 2027 436 
z
" id="Inter-Regular-36" transform="scale(0.015625)"/>
       </defs>
       <use xlink:href="#Inter-Regular-30"/>
       <use x="62.500015" xlink:href="#Inter-Regular-2e"/>
       <use x="90.056839" xlink:href="#Inter-Regular-30"/>
       <use x="152.556854" xlink:href="#Inter-Regular-36"/>
       <use x="214.914825" xlink:href="#Inter-Regular-25"/>
      </g>
     </g>
    </g>
    <g id="ytick_5">
     <g id="line2d_25">
      <path clip-path="url(#pb0894a05bd)" d="M 68.575 133.788437 
L 738.175 133.788437 
" style="fill:none;stroke:#e5e5e5;stroke-linecap:square;stroke-width:0.8;"/>
     </g>
     <g id="line2d_26">
      <g>
       <use style="stroke:#000000;stroke-width:0.8;" x="68.575" xlink:href="#m52443694ac" y="133.788437"/>
      </g>
     </g>
     <g id="text_21">
      <!-- 0.08% -->
      <g transform="translate(32.028125 137.425156)scale(0.1 -0.1)">
       <defs>
        <path d="M 1973 -64 
Q 1505 -64 1147 103 
Q 789 270 589 564 
Q 389 859 391 1236 
Q 389 1532 507 1783 
Q 625 2034 830 2203 
Q 1036 2373 1291 2418 
L 1291 2445 
Q 957 2532 759 2821 
Q 561 3111 564 3482 
Q 561 3836 743 4115 
Q 925 4395 1244 4556 
Q 1564 4718 1973 4718 
Q 2377 4718 2695 4556 
Q 3014 4395 3197 4115 
Q 3380 3836 3382 3482 
Q 3380 3111 3181 2821 
Q 2982 2532 2655 2445 
L 2655 2418 
Q 2907 2373 3109 2203 
Q 3311 2034 3431 1783 
Q 3552 1532 3555 1236 
Q 3552 859 3351 564 
Q 3150 270 2794 103 
Q 2439 -64 1973 -64 
z
M 1973 436 
Q 2446 436 2722 662 
Q 2998 889 3000 1264 
Q 2998 1527 2864 1729 
Q 2730 1932 2499 2048 
Q 2268 2164 1973 2164 
Q 1675 2164 1442 2048 
Q 1209 1932 1076 1729 
Q 943 1527 946 1264 
Q 943 889 1218 662 
Q 1493 436 1973 436 
z
M 1973 2645 
Q 2348 2645 2591 2864 
Q 2834 3084 2836 3445 
Q 2834 3800 2596 4013 
Q 2359 4227 1973 4227 
Q 1582 4227 1344 4013 
Q 1107 3800 1109 3445 
Q 1107 3084 1349 2864 
Q 1591 2645 1973 2645 
z
" id="Inter-Regular-38" transform="scale(0.015625)"/>
       </defs>
       <use xlink:href="#Inter-Regular-30"/>
       <use x="62.500015" xlink:href="#Inter-Regular-2e"/>
       <use x="90.056839" xlink:href="#Inter-Regular-30"/>
       <use x="152.556854" xlink:href="#Inter-Regular-38"/>
       <use x="214.20459" xlink:href="#Inter-Regular-25"/>
      </g>
     </g>
    </g>
    <g id="ytick_6">
     <g id="line2d_27">
      <path clip-path="url(#pb0894a05bd)" d="M 68.575 48.049296 
L 738.175 48.049296 
" style="fill:none;stroke:#e5e5e5;stroke-linecap:square;stroke-width:0.8;"/>
     </g>
     <g id="line2d_28">
      <g>
       <use style="stroke:#000000;stroke-width:0.8;" x="68.575" xlink:href="#m52443694ac" y="48.049296"/>
      </g>
     </g>
     <g id="text_22">
      <!-- 0.10% -->
      <g transform="translate(33.776563 51.686015)scale(0.1 -0.1)">
       <use xlink:href="#Inter-Regular-30"/>
       <use x="62.500015" xlink:href="#Inter-Regular-2e"/>
       <use x="90.056839" xlink:href="#Inter-Regular-31"/>
       <use x="134.232986" xlink:href="#Inter-Regular-30"/>
       <use x="196.733002" xlink:href="#Inter-Regular-25"/>
      </g>
     </g>
    </g>
    <g id="text_23">
     <!-- Percent of nation tested positive (seven day average) -->
     <g transform="translate(25.614063 382.124063)rotate(-90)scale(0.1 -0.1)">
      <defs>
       <path d="M 564 0 
L 564 4655 
L 2136 4655 
Q 2684 4655 3033 4458 
Q 3382 4261 3550 3927 
Q 3718 3593 3718 3182 
Q 3718 2770 3551 2434 
Q 3384 2098 3036 1899 
Q 2689 1700 2146 1700 
L 1127 1700 
L 1127 0 
L 564 0 
z
M 1127 2200 
L 2127 2200 
Q 2689 2200 2926 2482 
Q 3164 2764 3164 3182 
Q 3164 3602 2925 3878 
Q 2686 4155 2118 4155 
L 1127 4155 
L 1127 2200 
z
" id="Inter-Regular-50" transform="scale(0.015625)"/>
       <path d="M 2046 3491 
L 2046 3036 
L 1264 3036 
L 1264 0 
L 727 0 
L 727 3036 
L 164 3036 
L 164 3491 
L 727 3491 
L 727 3973 
Q 727 4273 868 4473 
Q 1009 4673 1234 4773 
Q 1459 4873 1709 4873 
Q 1907 4873 2032 4841 
Q 2157 4809 2218 4782 
L 2064 4318 
Q 2023 4332 1951 4352 
Q 1880 4373 1764 4373 
Q 1498 4373 1381 4239 
Q 1264 4105 1264 3845 
L 1264 3491 
L 2046 3491 
z
" id="Inter-Regular-66" transform="scale(0.015625)"/>
       <path d="M 491 0 
L 491 3491 
L 1027 3491 
L 1027 0 
L 491 0 
z
M 764 4073 
Q 607 4073 494 4179 
Q 382 4286 382 4436 
Q 382 4586 494 4693 
Q 607 4800 764 4800 
Q 921 4800 1033 4693 
Q 1146 4586 1146 4436 
Q 1146 4286 1033 4179 
Q 921 4073 764 4073 
z
" id="Inter-Regular-69" transform="scale(0.015625)"/>
       <path d="M 2964 2709 
L 2482 2573 
Q 2411 2755 2245 2914 
Q 2080 3073 1727 3073 
Q 1407 3073 1194 2926 
Q 982 2780 982 2555 
Q 982 2355 1127 2239 
Q 1273 2123 1582 2045 
L 2100 1918 
Q 3027 1691 3027 973 
Q 3027 673 2855 436 
Q 2684 200 2377 63 
Q 2071 -73 1664 -73 
Q 1130 -73 780 159 
Q 430 391 336 836 
L 846 964 
Q 989 400 1655 400 
Q 2030 400 2251 560 
Q 2473 720 2473 945 
Q 2473 1316 1955 1436 
L 1373 1573 
Q 893 1686 669 1926 
Q 446 2166 446 2527 
Q 446 2823 613 3050 
Q 780 3277 1069 3406 
Q 1359 3536 1727 3536 
Q 2246 3536 2542 3309 
Q 2839 3082 2964 2709 
z
" id="Inter-Regular-73" transform="scale(0.015625)"/>
       <path d="M 1809 -73 
Q 1373 -73 1039 148 
Q 705 370 516 776 
Q 327 1182 327 1736 
Q 327 2286 516 2690 
Q 705 3095 1041 3315 
Q 1377 3536 1818 3536 
Q 2159 3536 2358 3423 
Q 2557 3311 2662 3169 
Q 2768 3027 2827 2936 
L 2873 2936 
L 2873 4655 
L 3409 4655 
L 3409 0 
L 2891 0 
L 2891 536 
L 2827 536 
Q 2768 441 2659 296 
Q 2550 152 2348 39 
Q 2146 -73 1809 -73 
z
M 1882 409 
Q 2366 409 2624 780 
Q 2882 1152 2882 1745 
Q 2882 2332 2627 2693 
Q 2373 3055 1882 3055 
Q 1541 3055 1315 2881 
Q 1089 2707 976 2410 
Q 864 2114 864 1745 
Q 864 1373 978 1069 
Q 1093 766 1319 587 
Q 1546 409 1882 409 
z
" id="Inter-Regular-64" transform="scale(0.015625)"/>
       <path d="M 682 1964 
Q 682 2823 906 3544 
Q 1130 4266 1546 4873 
L 2018 4873 
Q 1800 4573 1623 4095 
Q 1446 3618 1341 3061 
Q 1236 2505 1236 1964 
Q 1236 1423 1341 866 
Q 1446 309 1623 -168 
Q 1800 -645 2018 -945 
L 1546 -945 
Q 1130 -339 906 383 
Q 682 1105 682 1964 
z
" id="Inter-Regular-28" transform="scale(0.015625)"/>
       <path d="M 1638 1940 
Q 1638 1081 1414 359 
Q 1191 -362 775 -969 
L 302 -969 
Q 520 -669 697 -191 
Q 875 286 979 842 
Q 1084 1399 1084 1940 
Q 1084 2481 979 3038 
Q 875 3595 697 4072 
Q 520 4549 302 4849 
L 775 4849 
Q 1191 4243 1414 3521 
Q 1638 2799 1638 1940 
z
" id="Inter-Regular-29" transform="scale(0.015625)"/>
      </defs>
      <use xlink:href="#Inter-Regular-50"/>
      <use x="63.494324" xlink:href="#Inter-Regular-65"/>
      <use x="121.732971" xlink:href="#Inter-Regular-72"/>
      <use x="160.085251" xlink:href="#Inter-Regular-63"/>
      <use x="215.909119" xlink:href="#Inter-Regular-65"/>
      <use x="274.147766" xlink:href="#Inter-Regular-6e"/>
      <use x="332.670502" xlink:href="#Inter-Regular-74"/>
      <use x="369.034149" xlink:href="#Inter-Regular-20"/>
      <use x="397.159149" xlink:href="#Inter-Regular-6f"/>
      <use x="456.818253" xlink:href="#Inter-Regular-66"/>
      <use x="492.897797" xlink:href="#Inter-Regular-20"/>
      <use x="521.022797" xlink:href="#Inter-Regular-6e"/>
      <use x="579.545532" xlink:href="#Inter-Regular-61"/>
      <use x="635.937592" xlink:href="#Inter-Regular-74"/>
      <use x="672.301239" xlink:href="#Inter-Regular-69"/>
      <use x="696.022827" xlink:href="#Inter-Regular-6f"/>
      <use x="755.681931" xlink:href="#Inter-Regular-6e"/>
      <use x="814.204666" xlink:href="#Inter-Regular-20"/>
      <use x="842.329666" xlink:href="#Inter-Regular-74"/>
      <use x="878.693314" xlink:href="#Inter-Regular-65"/>
      <use x="936.931961" xlink:href="#Inter-Regular-73"/>
      <use x="989.204697" xlink:href="#Inter-Regular-74"/>
      <use x="1025.568344" xlink:href="#Inter-Regular-65"/>
      <use x="1083.806992" xlink:href="#Inter-Regular-64"/>
      <use x="1145.880875" xlink:href="#Inter-Regular-20"/>
      <use x="1174.005875" xlink:href="#Inter-Regular-70"/>
      <use x="1234.94339" xlink:href="#Inter-Regular-6f"/>
      <use x="1294.602493" xlink:href="#Inter-Regular-73"/>
      <use x="1346.875229" xlink:href="#Inter-Regular-69"/>
      <use x="1370.596817" xlink:href="#Inter-Regular-74"/>
      <use x="1406.960464" xlink:href="#Inter-Regular-69"/>
      <use x="1430.682053" xlink:href="#Inter-Regular-76"/>
      <use x="1486.363876" xlink:href="#Inter-Regular-65"/>
      <use x="1544.602524" xlink:href="#Inter-Regular-20"/>
      <use x="1572.727524" xlink:href="#Inter-Regular-28"/>
      <use x="1608.949112" xlink:href="#Inter-Regular-73"/>
      <use x="1661.221848" xlink:href="#Inter-Regular-65"/>
      <use x="1719.460495" xlink:href="#Inter-Regular-76"/>
      <use x="1775.142319" xlink:href="#Inter-Regular-65"/>
      <use x="1833.380966" xlink:href="#Inter-Regular-6e"/>
      <use x="1891.903702" xlink:href="#Inter-Regular-20"/>
      <use x="1920.028702" xlink:href="#Inter-Regular-64"/>
      <use x="1982.102585" xlink:href="#Inter-Regular-61"/>
      <use x="2038.494644" xlink:href="#Inter-Regular-79"/>
      <use x="2094.176468" xlink:href="#Inter-Regular-20"/>
      <use x="2122.301468" xlink:href="#Inter-Regular-61"/>
      <use x="2178.693527" xlink:href="#Inter-Regular-76"/>
      <use x="2234.375351" xlink:href="#Inter-Regular-65"/>
      <use x="2292.613998" xlink:href="#Inter-Regular-72"/>
      <use x="2330.966278" xlink:href="#Inter-Regular-61"/>
      <use x="2387.358337" xlink:href="#Inter-Regular-67"/>
      <use x="2448.295853" xlink:href="#Inter-Regular-65"/>
      <use x="2506.5345" xlink:href="#Inter-Regular-29"/>
     </g>
    </g>
   </g>
   <g id="line2d_29">
    <path clip-path="url(#pb0894a05bd)" d="M 24.096047 476.729767 
L 47.052926 476.742824 
L 68.575 476.686246 
L 78.618634 476.348955 
L 81.488244 476.064977 
L 88.662269 474.327384 
L 91.531879 473.37644 
L 95.836294 471.458233 
L 98.705903 469.801154 
L 101.575513 466.742684 
L 103.010318 465.279276 
L 105.879928 461.746423 
L 110.184343 457.311588 
L 113.053953 453.366369 
L 115.923563 450.231737 
L 117.358367 449.132821 
L 118.793172 448.43539 
L 121.662782 446.658627 
L 123.097587 446.469309 
L 124.532392 446.470397 
L 125.967197 447.016591 
L 127.402002 447.363674 
L 128.836807 447.511647 
L 131.706417 449.651814 
L 133.141222 449.731241 
L 134.576027 449.420062 
L 136.010831 448.885837 
L 137.445636 447.747751 
L 138.880441 447.17218 
L 140.315246 446.901259 
L 141.750051 446.429051 
L 143.184856 445.799078 
L 146.054466 445.267029 
L 147.489271 446.065647 
L 148.924076 446.431227 
L 150.358881 446.055855 
L 151.793686 445.907882 
L 153.228491 445.982956 
L 156.0981 446.540031 
L 157.532905 447.226582 
L 158.96771 447.773864 
L 160.402515 449.063187 
L 161.83732 450.120758 
L 163.272125 451.71473 
L 164.70693 452.914834 
L 166.141735 454.512071 
L 167.57654 455.542441 
L 169.011345 456.226816 
L 170.44615 455.989624 
L 171.880955 456.228992 
L 173.31576 456.639182 
L 174.750564 457.720689 
L 176.185369 458.252739 
L 177.620174 458.282116 
L 179.054979 458.731475 
L 180.489784 459.660658 
L 181.924589 460.02515 
L 183.359394 460.615953 
L 184.794199 460.553935 
L 186.229004 460.921692 
L 189.098614 461.849786 
L 190.533419 462.751768 
L 191.968224 463.985601 
L 194.837833 465.540405 
L 196.272638 465.99738 
L 199.142248 466.560982 
L 202.011858 466.73942 
L 207.751078 468.284432 
L 212.055492 469.306097 
L 216.359907 469.818562 
L 219.229517 469.661885 
L 222.099127 469.785921 
L 223.533932 469.971976 
L 224.968737 469.938246 
L 227.838347 470.250513 
L 240.751591 472.0523 
L 243.621201 472.34063 
L 247.925616 472.651808 
L 249.360421 472.510364 
L 253.664835 472.476635 
L 255.09964 472.348246 
L 257.96925 472.337366 
L 259.404055 472.539741 
L 273.752104 472.109966 
L 282.360934 471.533307 
L 285.230544 471.150319 
L 288.100154 471.24933 
L 289.534958 471.251506 
L 292.404568 470.95556 
L 293.839373 470.989289 
L 295.274178 470.857637 
L 298.143788 470.440919 
L 299.578593 470.395222 
L 301.013398 469.948039 
L 302.448203 469.63142 
L 303.883008 469.463863 
L 305.317813 469.419253 
L 306.752618 469.233199 
L 309.622227 469.253872 
L 312.491837 469.796802 
L 313.926642 469.81965 
L 315.361447 469.604219 
L 316.796252 469.640125 
L 325.405082 469.050409 
L 328.274691 468.28552 
L 329.709496 467.981958 
L 331.144301 467.842689 
L 332.579106 466.898274 
L 335.448716 463.830012 
L 338.318326 461.267687 
L 339.753131 460.090432 
L 341.187936 457.694577 
L 342.622741 456.528202 
L 344.057546 456.270337 
L 345.492351 455.801394 
L 346.927155 455.511976 
L 348.36196 455.49348 
L 349.796765 455.874292 
L 351.23157 456.490121 
L 352.666375 456.446599 
L 355.535985 454.563209 
L 356.97079 453.020374 
L 358.405595 450.875855 
L 359.8404 447.703141 
L 361.275205 445.744677 
L 365.579619 438.328623 
L 367.014424 436.410415 
L 369.884034 433.286664 
L 371.318839 429.060732 
L 372.753644 425.403842 
L 374.188449 420.367323 
L 375.623254 414.909735 
L 377.058059 408.883103 
L 379.927669 400.327875 
L 382.797279 388.334454 
L 384.232083 383.244621 
L 385.666888 378.93491 
L 387.101693 377.373578 
L 388.536498 376.87961 
L 389.971303 377.079809 
L 391.406108 374.730739 
L 394.275718 372.133597 
L 395.710523 372.157534 
L 397.145328 370.487398 
L 400.014938 365.70004 
L 402.884548 352.841629 
L 404.319352 347.354663 
L 405.754157 342.595594 
L 407.188962 338.720009 
L 408.623767 337.448095 
L 410.058572 336.024944 
L 411.493377 335.314456 
L 412.928182 336.249079 
L 414.362987 337.612389 
L 415.797792 337.225048 
L 417.232597 335.558177 
L 418.667402 334.652931 
L 420.102207 334.429883 
L 421.537012 328.798208 
L 422.971816 326.813631 
L 424.406621 326.314222 
L 425.841426 325.329549 
L 427.276231 324.042403 
L 428.711036 321.572561 
L 430.145841 316.579563 
L 431.580646 316.397861 
L 433.015451 314.047704 
L 434.450256 309.742345 
L 435.885061 308.580322 
L 437.319866 307.67834 
L 438.754671 308.312665 
L 440.189476 312.389537 
L 443.059085 321.651988 
L 445.928695 335.663716 
L 447.3635 343.252768 
L 448.798305 349.152099 
L 450.23311 353.693562 
L 451.667915 361.872329 
L 453.10272 368.721516 
L 454.537525 373.379398 
L 455.97233 376.887226 
L 457.407135 379.508305 
L 458.84194 381.04026 
L 461.711549 383.552535 
L 464.581159 384.619899 
L 466.015964 384.346802 
L 467.450769 383.678747 
L 468.885574 382.659258 
L 470.320379 380.523443 
L 471.755184 377.94915 
L 473.189989 374.509868 
L 474.624794 370.160987 
L 476.059599 363.613186 
L 477.494404 356.015431 
L 478.929209 349.612338 
L 480.364013 341.717549 
L 487.538038 276.206897 
L 488.972843 269.996388 
L 490.407648 258.236894 
L 491.842453 244.00647 
L 493.277258 231.166557 
L 494.712063 223.008462 
L 496.146868 223.980078 
L 497.581673 244.821409 
L 499.016477 228.536773 
L 500.451282 213.848287 
L 501.886087 216.632571 
L 503.320892 182.229959 
L 504.755697 154.729847 
L 506.190502 135.160431 
L 507.625307 118.242558 
L 509.060112 99.246536 
L 510.494917 91.551945 
L 511.929722 59.915121 
L 513.364527 75.673147 
L 514.799332 88.273693 
L 516.234137 88.110487 
L 517.668942 72.761562 
L 519.103746 93.132862 
L 521.973356 129.870399 
L 523.408161 144.404385 
L 524.842966 155.464271 
L 526.277771 164.513467 
L 527.712576 170.542275 
L 529.147381 179.012636 
L 530.582186 186.248076 
L 532.016991 198.524387 
L 533.451796 207.995741 
L 536.321406 228.835983 
L 537.75621 239.584692 
L 539.191015 248.049612 
L 540.62582 259.749264 
L 542.060625 274.555259 
L 543.49543 287.104667 
L 544.930235 296.372558 
L 547.799845 311.759564 
L 549.23465 317.062651 
L 550.669455 318.967803 
L 553.539065 333.955499 
L 557.843479 352.702361 
L 559.278284 357.509304 
L 560.713089 361.390329 
L 562.147894 368.214491 
L 566.452309 385.527321 
L 567.887114 389.236436 
L 570.756724 395.16188 
L 573.626334 398.209469 
L 575.061139 400.187519 
L 576.495943 401.623726 
L 577.930748 403.452715 
L 580.800358 405.177252 
L 585.104773 413.900037 
L 587.974383 420.985328 
L 590.843993 427.114235 
L 592.278798 431.428298 
L 593.713603 434.104867 
L 595.148407 436.49093 
L 596.583212 438.470067 
L 598.018017 439.681052 
L 603.757237 441.445846 
L 606.626847 441.656925 
L 608.061652 441.589467 
L 609.496457 441.865828 
L 610.931262 441.807074 
L 612.366067 441.944167 
L 613.800871 442.455544 
L 616.670481 442.804803 
L 618.105286 443.322708 
L 619.540091 443.408663 
L 620.974896 442.392437 
L 623.844506 443.156239 
L 625.279311 442.877702 
L 626.714116 442.96148 
L 629.583726 443.990762 
L 631.018531 444.45209 
L 632.453336 446.560704 
L 633.88814 448.067634 
L 635.322945 450.2078 
L 638.192555 453.548071 
L 639.62736 454.555593 
L 641.062165 456.914455 
L 642.49697 458.017723 
L 643.931775 458.444233 
L 645.36658 459.054622 
L 646.801385 459.47678 
L 648.23619 459.272229 
L 651.1058 459.441963 
L 652.540604 459.397353 
L 656.845019 461.544048 
L 659.714629 462.736536 
L 661.149434 462.480847 
L 662.584239 462.591827 
L 664.019044 462.558098 
L 666.888654 462.271944 
L 668.323459 462.521105 
L 669.758264 462.629908 
L 671.193068 463.019425 
L 672.627873 463.065123 
L 674.062678 463.331691 
L 679.801898 463.843068 
L 681.236703 464.452369 
L 682.671508 464.876703 
L 684.106313 464.499154 
L 686.975923 464.446928 
L 689.845533 464.214089 
L 691.280337 463.52645 
L 692.715142 463.011809 
L 695.584752 463.629813 
L 698.454362 463.877886 
L 699.889167 463.816956 
L 701.323972 464.169479 
L 702.758777 464.093317 
L 705.628387 463.226152 
L 709.932801 462.277384 
L 712.802411 461.529904 
L 714.237216 460.935836 
L 715.672021 459.965308 
L 718.541631 457.711985 
L 719.976436 456.781714 
L 721.411241 456.029881 
L 722.846046 455.544617 
L 724.280851 453.765678 
L 727.150461 449.599588 
L 728.585265 447.52688 
L 728.585265 447.52688 
" style="fill:none;stroke:#5694ca;stroke-linecap:square;stroke-width:2;"/>
   </g>
   <g id="line2d_30">
    <path clip-path="url(#pb0894a05bd)" d="M 74.31422 476.292232 
L 75.749025 476.292232 
L 77.18383 476.065848 
L 81.488244 475.990387 
L 82.923049 475.742443 
L 84.357854 475.677762 
L 85.792659 475.386697 
L 87.227464 475.224994 
L 88.662269 475.257334 
L 91.531879 474.99861 
L 92.966684 474.933929 
L 94.401489 474.610523 
L 95.836294 474.41648 
L 97.271098 474.093074 
L 98.705903 473.575626 
L 101.575513 471.441149 
L 103.010318 470.050505 
L 104.445123 468.04539 
L 105.879928 466.428363 
L 107.314733 464.617292 
L 110.184343 461.803663 
L 111.619148 459.539824 
L 113.053953 458.084499 
L 114.488758 457.146623 
L 115.923563 456.014704 
L 117.358367 455.691298 
L 118.793172 455.755979 
L 121.662782 454.494698 
L 123.097587 454.462357 
L 125.967197 454.915125 
L 127.402002 455.529595 
L 128.836807 455.109168 
L 130.271612 455.076828 
L 131.706417 456.176406 
L 133.141222 455.173849 
L 134.576027 453.912568 
L 136.010831 451.972134 
L 137.445636 451.390004 
L 138.880441 452.424902 
L 140.315246 452.230859 
L 141.750051 451.066599 
L 143.184856 452.263199 
L 146.054466 456.726196 
L 147.489271 457.793434 
L 148.924076 457.696413 
L 150.358881 459.022375 
L 151.793686 460.865787 
L 153.228491 461.02749 
L 154.663295 459.636846 
L 156.0981 459.151738 
L 157.532905 457.955137 
L 158.96771 457.664072 
L 160.402515 457.56705 
L 161.83732 457.599391 
L 163.272125 457.955137 
L 164.70693 458.537267 
L 166.141735 459.345781 
L 167.57654 460.4777 
L 169.011345 460.218976 
L 170.44615 460.218976 
L 171.880955 459.636846 
L 173.31576 459.798549 
L 174.750564 460.574722 
L 176.185369 460.768765 
L 177.620174 461.221533 
L 179.054979 462.030047 
L 180.489784 462.418134 
L 181.924589 463.032604 
L 183.359394 463.064945 
L 184.794199 463.614734 
L 186.229004 464.681973 
L 187.663809 464.229205 
L 189.098614 464.423248 
L 190.533419 465.167081 
L 193.403028 467.948369 
L 194.837833 468.853904 
L 196.272638 469.274332 
L 197.707443 470.600294 
L 199.142248 470.729657 
L 200.577053 471.214765 
L 202.011858 471.441149 
L 203.446663 472.152641 
L 204.881468 472.702431 
L 206.316273 472.605409 
L 207.751078 472.767112 
L 209.185883 473.446263 
L 212.055492 474.060734 
L 213.490297 473.899031 
L 214.925102 473.931372 
L 216.359907 474.351799 
L 219.229517 474.190096 
L 220.664322 474.028393 
L 222.099127 474.028393 
L 223.533932 474.384139 
L 224.968737 474.481161 
L 226.403542 474.41648 
L 229.273152 474.739886 
L 230.707957 475.224994 
L 237.881981 475.742443 
L 240.751591 475.677762 
L 242.186396 475.871805 
L 250.795225 475.839464 
L 255.09964 475.613081 
L 256.534445 475.742443 
L 259.404055 475.516059 
L 260.83886 475.677762 
L 262.273665 475.613081 
L 263.70847 475.322016 
L 265.143275 474.869248 
L 268.012885 474.707545 
L 270.882494 474.739886 
L 272.317299 474.578183 
L 275.186909 475.030951 
L 276.621714 474.836907 
L 279.491324 474.99861 
L 280.926129 474.707545 
L 288.100154 474.481161 
L 290.969763 474.028393 
L 292.404568 473.899031 
L 293.839373 473.316901 
L 295.274178 473.090517 
L 296.708983 472.993496 
L 299.578593 471.926257 
L 301.013398 471.085403 
L 302.448203 470.406251 
L 303.883008 470.082845 
L 305.317813 468.983267 
L 306.752618 467.657304 
L 309.622227 467.980709 
L 311.057032 467.689644 
L 313.926642 467.46326 
L 318.231057 465.425805 
L 319.665862 464.390908 
L 321.100667 464.649632 
L 322.535472 463.93814 
L 323.970277 462.967923 
L 326.839886 462.579837 
L 328.274691 462.547496 
L 329.709496 463.097285 
L 331.144301 462.80622 
L 332.579106 462.80622 
L 334.013911 462.19175 
L 335.448716 461.286214 
L 338.318326 458.310883 
L 339.753131 456.176406 
L 341.187936 455.594276 
L 342.622741 455.885341 
L 344.057546 455.626617 
L 345.492351 456.499812 
L 346.927155 458.343224 
L 348.36196 457.825775 
L 349.796765 458.14918 
L 352.666375 454.979806 
L 354.10118 453.912568 
L 356.97079 447.961905 
L 358.405595 446.183175 
L 359.8404 445.115936 
L 361.275205 444.598487 
L 362.71001 442.561032 
L 364.144815 439.715064 
L 365.579619 436.02824 
L 367.014424 433.570358 
L 368.449229 430.142259 
L 369.884034 425.388197 
L 371.318839 420.181368 
L 372.753644 413.098786 
L 374.188449 399.418731 
L 375.623254 392.98296 
L 377.058059 378.332689 
L 379.927669 355.823662 
L 384.232083 316.465205 
L 385.666888 300.359608 
L 387.101693 295.734909 
L 388.536498 289.97829 
L 389.971303 282.895708 
L 391.406108 270.088848 
L 392.840913 261.001152 
L 394.275718 259.933914 
L 397.145328 251.525369 
L 398.580133 250.134725 
L 400.014938 251.428347 
L 401.449743 253.595165 
L 402.884548 254.209635 
L 404.319352 252.592607 
L 405.754157 253.595165 
L 407.188962 256.408793 
L 408.623767 259.70753 
L 410.058572 263.329672 
L 411.493377 268.148415 
L 412.928182 276.00717 
L 415.797792 300.068543 
L 417.232597 306.342611 
L 420.102207 320.669477 
L 421.537012 326.975886 
L 424.406621 337.68061 
L 425.841426 341.949563 
L 427.276231 348.482355 
L 428.711036 350.325767 
L 430.145841 351.65173 
L 431.580646 353.236417 
L 433.015451 351.845773 
L 434.450256 351.295984 
L 437.319866 352.039817 
L 438.754671 353.236417 
L 440.189476 354.821104 
L 441.62428 356.987922 
L 443.059085 361.030491 
L 444.49389 366.496045 
L 445.928695 373.028837 
L 447.3635 376.327574 
L 448.798305 380.434825 
L 450.23311 383.63654 
L 451.667915 390.234013 
L 453.10272 397.737022 
L 454.537525 398.480855 
L 455.97233 398.868942 
L 457.407135 400.162564 
L 458.84194 398.545536 
L 460.276745 399.127666 
L 461.711549 394.955734 
L 463.146354 393.047641 
L 464.581159 393.209344 
L 466.015964 388.067196 
L 467.450769 384.83314 
L 468.885574 383.119091 
L 470.320379 379.496949 
L 471.755184 380.661209 
L 473.189989 378.39737 
L 474.624794 377.006726 
L 476.059599 376.845023 
L 477.494404 373.999054 
L 478.929209 375.130974 
L 480.364013 374.128416 
L 481.798818 370.959042 
L 483.233623 368.824565 
L 484.668428 363.585395 
L 486.103233 360.286658 
L 487.538038 359.769209 
L 488.972843 355.758981 
L 490.407648 352.880671 
L 491.842453 347.932566 
L 494.712063 335.804858 
L 496.146868 335.093365 
L 497.581673 341.399774 
L 499.016477 333.864424 
L 500.451282 314.42775 
L 501.886087 292.921281 
L 503.320892 241.726181 
L 504.755697 195.770251 
L 506.190502 160.26032 
L 507.625307 130.959777 
L 509.060112 91.860045 
L 510.494917 74.363804 
L 511.929722 54.345 
L 514.799332 99.233692 
L 516.234137 114.983542 
L 517.668942 115.371629 
L 519.103746 145.383665 
L 521.973356 193.635774 
L 524.842966 224.973773 
L 526.277771 235.419772 
L 527.712576 247.967908 
L 529.147381 257.96114 
L 530.582186 266.660749 
L 532.016991 278.076965 
L 533.451796 286.356148 
L 534.886601 295.443844 
L 536.321406 300.650673 
L 539.191015 315.527329 
L 540.62582 320.863521 
L 542.060625 330.015898 
L 543.49543 337.518907 
L 544.930235 342.790418 
L 546.36504 350.422789 
L 547.799845 353.139396 
L 549.23465 355.435575 
L 550.669455 357.278987 
L 552.10426 360.739426 
L 553.539065 366.593067 
L 554.97387 371.153085 
L 556.408674 375.001611 
L 560.713089 384.348032 
L 562.147894 389.134434 
L 563.582699 392.885939 
L 565.017504 396.960849 
L 566.452309 400.388948 
L 567.887114 405.240031 
L 569.321919 409.056217 
L 570.756724 410.091114 
L 572.191529 409.83239 
L 573.626334 410.382179 
L 576.495943 411.158353 
L 577.930748 410.576223 
L 579.365553 409.217919 
L 580.800358 411.223034 
L 582.235163 415.039219 
L 585.104773 418.661362 
L 586.539578 419.663919 
L 587.974383 423.447764 
L 589.409188 425.905646 
L 592.278798 430.077578 
L 593.713603 431.435881 
L 595.148407 435.122705 
L 596.583212 437.580587 
L 598.018017 438.550804 
L 599.452822 438.93889 
L 602.322432 436.57803 
L 603.757237 437.354203 
L 605.192042 436.254624 
L 606.626847 435.575472 
L 608.061652 434.605256 
L 609.496457 434.896321 
L 612.366067 438.065695 
L 613.800871 438.486122 
L 615.235676 440.394215 
L 616.670481 440.782302 
L 618.105286 442.237627 
L 619.540091 442.722735 
L 622.409701 442.819757 
L 623.844506 443.757633 
L 625.279311 442.884438 
L 629.583726 442.852097 
L 631.018531 443.434227 
L 633.88814 445.92445 
L 635.322945 447.379775 
L 636.75775 450.096382 
L 638.192555 451.939794 
L 639.62736 454.07427 
L 641.062165 455.917682 
L 642.49697 458.407905 
L 645.36658 459.410462 
L 646.801385 458.310883 
L 648.23619 456.758536 
L 649.670995 455.529595 
L 652.540604 452.166178 
L 653.975409 451.972134 
L 655.410214 450.064041 
L 656.845019 450.484469 
L 658.279824 451.325323 
L 659.714629 451.454685 
L 661.149434 451.907453 
L 664.019044 450.322766 
L 665.453849 452.004475 
L 666.888654 453.201075 
L 668.323459 454.04193 
L 669.758264 454.494698 
L 671.193068 454.494698 
L 672.627873 455.497255 
L 675.497483 456.467471 
L 678.367093 455.78832 
L 679.801898 455.917682 
L 682.671508 456.790877 
L 684.106313 456.855558 
L 686.975923 457.761094 
L 688.410728 457.922796 
L 689.845533 457.146623 
L 692.715142 455.853001 
L 694.149947 455.885341 
L 695.584752 455.400233 
L 697.019557 455.076828 
L 698.454362 455.853001 
L 699.889167 456.758536 
L 701.323972 457.146623 
L 704.193582 457.211304 
L 705.628387 457.502369 
L 707.063192 457.599391 
L 708.497997 456.823218 
L 709.932801 456.790877 
L 711.367606 457.308326 
L 712.802411 458.181521 
L 714.237216 459.604505 
L 715.672021 460.251317 
L 717.106826 460.154295 
L 719.976436 460.4777 
L 721.411241 461.05983 
L 722.846046 461.868344 
L 724.280851 461.577279 
L 725.715656 460.962809 
L 727.150461 460.898128 
L 728.585265 460.704084 
L 728.585265 460.704084 
" style="fill:none;stroke:#ffdd00;stroke-linecap:square;stroke-width:2;"/>
   </g>
   <g id="line2d_31">
    <path clip-path="url(#pb0894a05bd)" d="M 65.70539 476.666532 
L 68.575 476.666532 
L 74.31422 476.576854 
L 80.053439 476.27419 
L 82.923049 475.84822 
L 85.792659 474.973859 
L 88.662269 474.727244 
L 90.097074 474.671196 
L 92.966684 474.256435 
L 94.401489 474.133128 
L 95.836294 473.740786 
L 97.271098 473.213928 
L 98.705903 472.507713 
L 101.575513 469.794953 
L 103.010318 468.147119 
L 104.445123 466.196622 
L 105.879928 464.05556 
L 107.314733 462.497404 
L 108.749538 461.129814 
L 113.053953 454.919611 
L 114.488758 453.484763 
L 115.923563 452.307739 
L 117.358367 451.702412 
L 118.793172 451.388539 
L 120.227977 450.44692 
L 121.662782 450.323612 
L 125.967197 451.915397 
L 127.402002 452.744919 
L 128.836807 452.800968 
L 130.271612 453.305407 
L 133.141222 453.495972 
L 134.576027 452.117173 
L 136.010831 451.388539 
L 137.445636 450.502968 
L 138.880441 451.186763 
L 140.315246 446.512296 
L 141.750051 445.918179 
L 143.184856 445.817292 
L 144.619661 447.083994 
L 147.489271 448.978442 
L 148.924076 448.832715 
L 150.358881 452.71129 
L 151.793686 452.924275 
L 153.228491 451.915397 
L 154.663295 451.679992 
L 156.0981 450.973778 
L 157.532905 450.603856 
L 158.96771 450.41329 
L 161.83732 452.554353 
L 163.272125 453.944362 
L 164.70693 454.448801 
L 166.141735 455.726713 
L 169.011345 456.612284 
L 171.880955 458.035922 
L 173.31576 459.246576 
L 174.750564 460.120936 
L 176.185369 461.264331 
L 177.620174 462.093853 
L 179.054979 462.744019 
L 180.489784 464.111608 
L 181.924589 464.649677 
L 183.359394 465.512828 
L 184.794199 466.645013 
L 187.663809 467.911715 
L 190.533419 468.819705 
L 191.968224 469.996729 
L 196.272638 471.947226 
L 197.707443 472.059323 
L 199.142248 472.406826 
L 200.577053 473.068201 
L 203.446663 473.774415 
L 204.881468 473.998611 
L 206.316273 474.054659 
L 207.751078 474.256435 
L 209.185883 474.323693 
L 212.055492 474.749664 
L 216.359907 474.906601 
L 220.664322 474.906601 
L 222.099127 475.018698 
L 223.533932 474.973859 
L 226.403542 475.130796 
L 227.838347 475.321361 
L 232.142761 475.444669 
L 233.577566 475.724912 
L 235.012371 475.668864 
L 236.447176 475.85943 
L 256.534445 476.117254 
L 268.012885 475.769751 
L 269.447689 475.601605 
L 270.882494 475.646444 
L 273.752104 475.545556 
L 276.621714 475.489508 
L 279.491324 475.713703 
L 282.360934 475.680073 
L 285.230544 475.500717 
L 286.665349 475.38862 
L 289.534958 475.029908 
L 290.969763 474.48063 
L 296.708983 472.933684 
L 302.448203 472.787957 
L 303.883008 472.989733 
L 305.317813 473.056991 
L 306.752618 473.012152 
L 308.187422 473.090621 
L 311.057032 472.832796 
L 312.491837 472.66465 
L 313.926642 472.171421 
L 315.361447 471.252221 
L 318.231057 470.445119 
L 319.665862 470.063987 
L 321.100667 470.243343 
L 322.535472 470.310602 
L 323.970277 470.254553 
L 325.405082 470.747782 
L 326.839886 470.590846 
L 329.709496 469.716485 
L 331.144301 468.763656 
L 332.579106 467.340017 
L 335.448716 465.109276 
L 336.883521 464.380642 
L 339.753131 463.315716 
L 341.187936 463.057892 
L 342.622741 464.134028 
L 345.492351 463.461443 
L 346.927155 462.945794 
L 348.36196 462.082643 
L 351.23157 461.600624 
L 352.666375 460.087307 
L 354.10118 459.448351 
L 355.535985 459.06722 
L 356.97079 458.461893 
L 358.405595 458.215278 
L 359.8404 456.623493 
L 364.144815 447.442706 
L 365.579619 442.387107 
L 367.014424 438.945713 
L 368.449229 436.692553 
L 369.884034 436.244163 
L 372.753644 432.500105 
L 374.188449 430.02275 
L 375.623254 429.338955 
L 377.058059 426.637404 
L 378.492864 423.66682 
L 379.927669 419.351065 
L 381.362474 414.026432 
L 382.797279 408.062844 
L 384.232083 402.917567 
L 385.666888 398.500924 
L 387.101693 395.395823 
L 388.536498 392.671853 
L 389.971303 390.250546 
L 391.406108 387.291171 
L 392.840913 384.701718 
L 394.275718 384.230909 
L 395.710523 382.852109 
L 397.145328 381.080968 
L 398.580133 382.000168 
L 400.014938 383.479855 
L 401.449743 383.513485 
L 402.884548 380.576529 
L 404.319352 377.35933 
L 405.754157 375.016492 
L 407.188962 374.63536 
L 408.623767 373.559224 
L 410.058572 372.303732 
L 411.493377 372.460668 
L 412.928182 376.653116 
L 414.362987 380.150559 
L 415.797792 384.668089 
L 417.232597 386.708264 
L 418.667402 389.107151 
L 420.102207 388.737229 
L 421.537012 387.246332 
L 422.971816 386.304713 
L 424.406621 385.912372 
L 425.841426 383.681631 
L 427.276231 383.244451 
L 428.711036 382.078636 
L 430.145841 383.154772 
L 431.580646 385.206157 
L 433.015451 386.371972 
L 434.450256 386.966088 
L 435.885061 388.109483 
L 437.319866 389.017473 
L 438.754671 388.232791 
L 440.189476 388.916586 
L 441.62428 389.107151 
L 443.059085 389.846995 
L 444.49389 391.337892 
L 447.3635 395.922681 
L 448.798305 397.648983 
L 451.667915 400.171177 
L 453.10272 402.77184 
L 455.97233 406.840981 
L 457.407135 408.253409 
L 458.84194 410.405682 
L 460.276745 412.120774 
L 461.711549 414.216998 
L 463.146354 414.912003 
L 464.581159 414.710227 
L 466.015964 414.676598 
L 467.450769 415.696685 
L 470.320379 413.634091 
L 471.755184 413.813447 
L 473.189989 412.524325 
L 474.624794 411.885369 
L 476.059599 410.798023 
L 477.494404 408.20857 
L 478.929209 407.995585 
L 480.364013 407.143644 
L 481.798818 405.563069 
L 483.233623 405.708795 
L 484.668428 405.226776 
L 486.103233 405.170727 
L 487.538038 404.61024 
L 488.972843 403.825557 
L 490.407648 402.670952 
L 491.842453 400.182387 
L 493.277258 396.830671 
L 494.712063 393.792828 
L 496.146868 392.559755 
L 497.581673 397.155754 
L 499.016477 393.781618 
L 500.451282 383.905826 
L 501.886087 378.26732 
L 503.320892 357.944038 
L 504.755697 339.436736 
L 506.190502 324.225101 
L 507.625307 316.972391 
L 509.060112 303.969078 
L 510.494917 298.162425 
L 511.929722 291.884964 
L 513.364527 292.871422 
L 514.799332 297.568309 
L 516.234137 299.552435 
L 517.668942 292.019481 
L 519.103746 300.090503 
L 520.538551 308.979837 
L 521.973356 312.163407 
L 523.408161 324.202682 
L 524.842966 333.663713 
L 526.277771 340.14295 
L 527.712576 343.34894 
L 529.147381 346.95848 
L 530.582186 349.559143 
L 532.016991 353.639493 
L 533.451796 358.426057 
L 534.886601 359.804857 
L 536.321406 364.086983 
L 537.75621 367.562006 
L 539.191015 370.241137 
L 540.62582 374.007614 
L 544.930235 388.25521 
L 546.36504 389.6228 
L 547.799845 392.761531 
L 549.23465 394.465413 
L 550.669455 395.003481 
L 552.10426 397.492047 
L 553.539065 398.893266 
L 554.97387 400.96707 
L 556.408674 403.422006 
L 557.843479 403.70225 
L 559.278284 404.475723 
L 560.713089 406.235654 
L 562.147894 407.435097 
L 563.582699 410.719555 
L 565.017504 411.672384 
L 566.452309 412.31134 
L 567.887114 412.726101 
L 569.321919 414.699017 
L 570.756724 414.418774 
L 572.191529 414.732647 
L 573.626334 413.051184 
L 575.061139 413.21933 
L 576.495943 412.838198 
L 577.930748 412.950296 
L 579.365553 411.616335 
L 580.800358 412.412228 
L 582.235163 414.373934 
L 583.669968 416.716773 
L 585.104773 418.151621 
L 586.539578 420.94285 
L 587.974383 425.090458 
L 589.409188 427.848058 
L 590.843993 429.933072 
L 592.278798 432.668251 
L 593.713603 434.674797 
L 595.148407 436.972796 
L 596.583212 437.768689 
L 598.018017 438.407645 
L 599.452822 437.690221 
L 600.887627 437.589333 
L 602.322432 437.118523 
L 605.192042 434.159148 
L 606.626847 432.982124 
L 608.061652 431.625744 
L 609.496457 431.782681 
L 610.931262 431.659374 
L 612.366067 430.515979 
L 613.800871 431.435179 
L 615.235676 431.715422 
L 616.670481 432.959705 
L 618.105286 433.419305 
L 619.540091 433.497773 
L 620.974896 433.284788 
L 622.409701 433.374466 
L 623.844506 433.004544 
L 625.279311 433.665919 
L 626.714116 433.452934 
L 629.583726 434.966251 
L 631.018531 436.165694 
L 632.453336 438.026513 
L 633.88814 440.380561 
L 638.192555 445.234384 
L 641.062165 447.633272 
L 642.49697 450.133046 
L 643.931775 450.570227 
L 645.36658 451.825719 
L 646.801385 453.305407 
L 648.23619 454.235816 
L 651.1058 455.300743 
L 652.540604 455.726713 
L 653.975409 456.79164 
L 655.410214 457.565113 
L 656.845019 458.506732 
L 658.279824 458.999961 
L 659.714629 459.268995 
L 661.149434 459.683756 
L 662.584239 459.616497 
L 664.019044 459.840693 
L 666.888654 459.212946 
L 668.323459 459.605288 
L 671.193068 460.939248 
L 672.627873 461.690302 
L 676.932288 463.282087 
L 679.801898 463.652009 
L 681.236703 463.539911 
L 682.671508 463.898623 
L 684.106313 463.887413 
L 685.541118 463.58475 
L 686.975923 463.091521 
L 688.410728 462.788858 
L 689.845533 462.149902 
L 691.280337 461.141024 
L 692.715142 459.302624 
L 698.454362 455.40163 
L 699.889167 454.897191 
L 701.323972 454.672996 
L 702.758777 454.280655 
L 704.193582 452.823387 
L 705.628387 451.534266 
L 709.932801 449.180217 
L 711.367606 448.115291 
L 712.802411 446.624394 
L 714.237216 445.649145 
L 715.672021 443.239048 
L 717.106826 441.322181 
L 718.541631 439.214747 
L 719.976436 437.611752 
L 721.411241 435.739724 
L 722.846046 434.282456 
L 724.280851 431.009208 
L 725.715656 427.141843 
L 727.150461 422.669152 
L 728.585265 419.55284 
L 728.585265 419.55284 
" style="fill:none;stroke:#003078;stroke-linecap:square;stroke-width:2;"/>
   </g>
   <g id="line2d_32">
    <path clip-path="url(#pb0894a05bd)" d="M 64.270585 476.60903 
L 68.575 476.711008 
L 78.618634 476.667303 
L 80.053439 476.60903 
L 82.923049 476.104 
L 88.662269 474.142153 
L 90.097074 473.48173 
L 94.401489 471.908367 
L 95.836294 471.034277 
L 97.271098 469.94652 
L 98.705903 469.091854 
L 101.575513 465.207008 
L 103.010318 462.215677 
L 105.879928 457.612135 
L 108.749538 454.212894 
L 110.184343 450.133806 
L 113.053953 444.830992 
L 114.488758 441.74254 
L 115.923563 439.08142 
L 117.358367 436.847634 
L 118.793172 435.604483 
L 120.227977 434.827514 
L 121.662782 432.710273 
L 124.532392 430.495911 
L 125.967197 430.923244 
L 127.402002 431.603092 
L 128.836807 431.136911 
L 130.271612 433.273576 
L 131.706417 434.613848 
L 134.576027 435.643332 
L 136.010831 435.332544 
L 137.445636 435.332544 
L 138.880441 436.614543 
L 140.315246 436.459149 
L 141.750051 437.585755 
L 143.184856 439.683571 
L 144.619661 442.830296 
L 147.489271 447.142475 
L 148.924076 448.307929 
L 151.793686 452.484138 
L 153.228491 453.979804 
L 154.663295 453.999228 
L 156.0981 454.717924 
L 157.532905 453.882683 
L 158.96771 454.19347 
L 160.402515 454.83447 
L 161.83732 454.407137 
L 163.272125 454.504258 
L 164.70693 454.970439 
L 166.141735 456.155317 
L 167.57654 456.990559 
L 169.011345 456.951711 
L 170.44615 456.194166 
L 171.880955 456.679772 
L 173.31576 457.029408 
L 174.750564 457.884074 
L 176.185369 456.640923 
L 177.620174 456.058196 
L 179.054979 455.84453 
L 180.489784 456.038772 
L 181.924589 454.815046 
L 183.359394 454.562531 
L 184.794199 454.562531 
L 189.098614 456.932287 
L 190.533419 458.156013 
L 191.968224 460.312102 
L 193.403028 461.244465 
L 196.272638 462.429343 
L 197.707443 463.439403 
L 203.446663 466.333613 
L 204.881468 467.149431 
L 206.316273 468.140067 
L 209.185883 468.703369 
L 210.620688 468.509127 
L 213.490297 468.878187 
L 214.925102 468.761642 
L 219.229517 467.654461 
L 220.664322 467.809855 
L 222.099127 467.42137 
L 224.968737 467.55734 
L 226.403542 466.294765 
L 227.838347 466.741522 
L 229.273152 466.314189 
L 230.707957 466.314189 
L 232.142761 465.362402 
L 233.577566 465.886856 
L 235.012371 465.925705 
L 236.447176 468.276036 
L 237.881981 466.469583 
L 239.316786 467.401946 
L 240.751591 467.848703 
L 242.186396 469.713429 
L 243.621201 469.907671 
L 245.056006 470.529247 
L 246.490811 470.529247 
L 247.925616 473.073821 
L 249.360421 473.384608 
L 255.09964 474.025608 
L 256.534445 473.831366 
L 259.404055 473.811941 
L 262.273665 474.142153 
L 265.143275 474.006184 
L 266.57808 474.239274 
L 269.447689 474.258699 
L 270.882494 473.889638 
L 272.317299 473.151518 
L 276.621714 472.646488 
L 278.056519 472.393973 
L 279.491324 471.908367 
L 280.926129 472.296852 
L 282.360934 472.957275 
L 285.230544 472.937851 
L 286.665349 473.20979 
L 288.100154 473.365184 
L 289.534958 473.773093 
L 292.404568 473.85079 
L 298.143788 474.336396 
L 301.013398 474.511214 
L 303.883008 474.414093 
L 305.317813 474.511214 
L 308.187422 474.375244 
L 309.622227 474.181002 
L 311.057032 474.181002 
L 318.231057 473.20979 
L 319.665862 473.34576 
L 322.535472 472.782457 
L 323.970277 472.607639 
L 325.405082 472.238579 
L 329.709496 470.490398 
L 332.579106 470.199035 
L 334.013911 469.208399 
L 335.448716 467.751582 
L 336.883521 465.867432 
L 339.753131 462.584737 
L 341.187936 460.350951 
L 342.622741 458.680467 
L 345.492351 456.271863 
L 346.927155 456.34956 
L 348.36196 456.116469 
L 351.23157 454.853894 
L 352.666375 454.445985 
L 354.10118 453.494198 
L 355.535985 452.037381 
L 356.97079 450.075534 
L 358.405595 447.356142 
L 359.8404 445.64681 
L 361.275205 443.277054 
L 362.71001 439.100844 
L 364.144815 435.779301 
L 365.579619 434.710969 
L 367.014424 432.011001 
L 368.449229 429.621821 
L 369.884034 428.359246 
L 371.318839 426.164308 
L 372.753644 424.4744 
L 374.188449 420.142797 
L 375.623254 414.101862 
L 377.058059 409.906228 
L 378.492864 407.672442 
L 382.797279 390.598545 
L 384.232083 385.742488 
L 385.666888 381.857642 
L 387.101693 378.341856 
L 388.536498 376.380009 
L 389.971303 376.146919 
L 391.406108 374.612404 
L 392.840913 371.096619 
L 394.275718 370.067135 
L 395.710523 370.766407 
L 397.145328 367.464288 
L 400.014938 363.987351 
L 401.449743 357.59678 
L 402.884548 352.060875 
L 404.319352 345.029304 
L 407.188962 335.122947 
L 408.623767 328.965467 
L 410.058572 324.614439 
L 411.493377 315.970657 
L 412.928182 311.289418 
L 414.362987 309.521813 
L 415.797792 299.285245 
L 417.232597 298.430579 
L 418.667402 301.266516 
L 420.102207 301.111122 
L 421.537012 303.94706 
L 424.406621 313.795144 
L 425.841426 324.789257 
L 427.276231 331.859677 
L 428.711036 337.181915 
L 430.145841 342.076821 
L 431.580646 349.827088 
L 433.015451 355.091054 
L 435.885061 364.492381 
L 437.319866 364.842017 
L 438.754671 364.39526 
L 440.189476 365.716108 
L 441.62428 366.065744 
L 443.059085 364.570078 
L 444.49389 362.00608 
L 445.928695 359.131294 
L 447.3635 357.635628 
L 448.798305 356.625568 
L 450.23311 354.896812 
L 451.667915 354.158691 
L 453.10272 353.129207 
L 454.537525 346.330727 
L 455.97233 341.688336 
L 457.407135 339.765338 
L 458.84194 336.579764 
L 460.276745 331.743131 
L 461.711549 322.536047 
L 463.146354 312.474296 
L 464.581159 306.511058 
L 467.450769 281.065318 
L 470.320379 253.482913 
L 474.624794 194.336136 
L 476.059599 177.670148 
L 477.494404 156.031557 
L 478.929209 141.424537 
L 481.798818 101.313504 
L 483.233623 90.066875 
L 484.668428 81.345397 
L 486.103233 79.169883 
L 487.538038 84.511546 
L 488.972843 86.745332 
L 490.407648 96.962477 
L 491.842453 112.404739 
L 493.277258 121.650672 
L 494.712063 135.208783 
L 496.146868 160.518554 
L 497.581673 197.308043 
L 499.016477 202.688554 
L 500.451282 197.094377 
L 501.886087 204.630977 
L 503.320892 187.964989 
L 504.755697 182.992386 
L 507.625307 161.528613 
L 509.060112 157.760313 
L 510.494917 171.104758 
L 511.929722 165.238641 
L 513.364527 188.159231 
L 514.799332 201.93101 
L 516.234137 208.671217 
L 517.668942 201.192889 
L 519.103746 219.548785 
L 520.538551 231.805474 
L 521.973356 249.734037 
L 523.408161 264.923784 
L 524.842966 275.160353 
L 526.277771 281.997681 
L 527.712576 289.456585 
L 529.147381 292.117704 
L 532.016991 305.539847 
L 534.886601 325.197166 
L 536.321406 333.005706 
L 540.62582 358.898203 
L 542.060625 369.600953 
L 543.49543 376.399434 
L 546.36504 386.461184 
L 547.799845 389.841 
L 549.23465 390.909333 
L 550.669455 389.666182 
L 552.10426 394.211451 
L 554.97387 399.125781 
L 556.408674 402.175385 
L 557.843479 404.059535 
L 559.278284 406.526413 
L 560.713089 409.945077 
L 562.147894 412.275984 
L 565.017504 417.481678 
L 566.452309 419.890282 
L 567.887114 421.71616 
L 569.321919 423.211825 
L 570.756724 423.114704 
L 572.191529 423.872249 
L 573.626334 424.299582 
L 575.061139 425.795248 
L 576.495943 426.455671 
L 577.930748 428.339822 
L 580.800358 428.941973 
L 582.235163 431.214607 
L 583.669968 434.205939 
L 587.974383 440.713055 
L 589.409188 443.199357 
L 590.843993 444.481356 
L 592.278798 446.268385 
L 595.148407 448.327353 
L 596.583212 448.832383 
L 598.018017 450.211503 
L 599.452822 449.628776 
L 600.887627 450.813654 
L 602.322432 450.541715 
L 603.757237 451.94026 
L 605.192042 452.076229 
L 606.626847 451.512927 
L 608.061652 450.056109 
L 609.496457 449.648201 
L 610.931262 449.41511 
L 612.366067 450.619412 
L 613.800871 450.269776 
L 615.235676 450.638836 
L 616.670481 450.813654 
L 618.105286 451.376957 
L 619.540091 452.115078 
L 620.974896 452.484138 
L 622.409701 452.44529 
L 623.844506 452.833774 
L 625.279311 452.697805 
L 628.148921 453.571895 
L 629.583726 454.83447 
L 631.018531 455.533742 
L 632.453336 456.990559 
L 633.88814 457.495589 
L 635.322945 459.088376 
L 636.75775 461.12792 
L 638.192555 462.856676 
L 641.062165 463.944433 
L 642.49697 464.935069 
L 643.931775 465.556644 
L 646.801385 465.692614 
L 648.23619 465.517796 
L 649.670995 465.653765 
L 651.1058 466.081098 
L 652.540604 465.40125 
L 653.975409 466.217068 
L 655.410214 466.722098 
L 656.845019 467.091158 
L 659.714629 467.576764 
L 661.149434 467.576764 
L 662.584239 468.217764 
L 664.019044 468.334309 
L 668.323459 469.188975 
L 669.758264 469.188975 
L 672.627873 469.965944 
L 674.062678 469.907671 
L 675.497483 470.199035 
L 676.932288 470.199035 
L 678.367093 470.470974 
L 681.236703 470.684641 
L 682.671508 471.247943 
L 685.541118 471.383913 
L 688.410728 471.092549 
L 691.280337 471.053701 
L 692.715142 470.762337 
L 694.149947 470.587519 
L 695.584752 470.276732 
L 697.019557 470.801186 
L 698.454362 470.704065 
L 701.323972 470.762337 
L 702.758777 470.606944 
L 704.193582 470.995428 
L 705.628387 471.500458 
L 709.932801 471.034277 
L 712.802411 471.403337 
L 714.237216 471.306216 
L 715.672021 471.403337 
L 718.541631 471.83067 
L 719.976436 471.714125 
L 722.846046 470.995428 
L 724.280851 470.82061 
L 727.150461 468.858763 
L 728.585265 468.373157 
L 728.585265 468.373157 
" style="fill:none;stroke:#d4351c;stroke-linecap:square;stroke-width:2;"/>
   </g>
   <g id="patch_3">
    <path d="M 68.575 476.745 
L 738.175 476.745 
" style="fill:none;stroke:#000000;stroke-linecap:square;stroke-linejoin:miter;stroke-width:0.8;"/>
   </g>
   <g id="text_24">
    <!-- Average COVID-19 cases in UK Nations, per capita -->
    <g transform="translate(255.384062 27.225)scale(0.12 -0.12)">
     <defs>
      <path d="M 1207 0 
L 152 0 
L 1759 4655 
L 3027 4655 
L 4632 0 
L 3577 0 
L 3232 1061 
L 1552 1061 
L 1207 0 
z
M 1802 1830 
L 2984 1830 
L 2411 3591 
L 2375 3591 
L 1802 1830 
z
" id="Inter-Bold-41" transform="scale(0.015625)"/>
      <path d="M 3641 3491 
L 2421 0 
L 1330 0 
L 109 3491 
L 1132 3491 
L 1857 993 
L 1893 993 
L 2616 3491 
L 3641 3491 
z
" id="Inter-Bold-76" transform="scale(0.015625)"/>
      <path d="M 1977 -68 
Q 1441 -68 1052 151 
Q 664 370 455 773 
Q 246 1177 246 1730 
Q 246 2268 455 2675 
Q 664 3082 1044 3309 
Q 1425 3536 1939 3536 
Q 2400 3536 2771 3340 
Q 3143 3145 3361 2751 
Q 3580 2357 3580 1764 
L 3580 1498 
L 1202 1498 
L 1202 1495 
Q 1202 1105 1416 880 
Q 1630 655 1993 655 
Q 2236 655 2413 757 
Q 2591 859 2664 1059 
L 3559 1000 
Q 3457 514 3041 223 
Q 2625 -68 1977 -68 
z
M 1202 2098 
L 2668 2098 
Q 2666 2409 2468 2611 
Q 2271 2814 1955 2814 
Q 1632 2814 1425 2604 
Q 1218 2395 1202 2098 
z
" id="Inter-Bold-65" transform="scale(0.015625)"/>
      <path d="M 386 0 
L 386 3491 
L 1325 3491 
L 1325 2882 
L 1361 2882 
Q 1457 3207 1681 3374 
Q 1905 3541 2200 3541 
Q 2341 3541 2461 3507 
Q 2582 3473 2677 3414 
L 2386 2614 
Q 2318 2648 2237 2671 
Q 2157 2695 2057 2695 
Q 1764 2695 1560 2495 
Q 1357 2295 1355 1975 
L 1355 0 
L 386 0 
z
" id="Inter-Bold-72" transform="scale(0.015625)"/>
      <path d="M 1382 -66 
Q 882 -66 552 195 
Q 223 457 223 975 
Q 223 1366 407 1588 
Q 591 1811 890 1914 
Q 1189 2018 1534 2050 
Q 1989 2095 2184 2145 
Q 2380 2195 2380 2364 
L 2380 2377 
Q 2380 2593 2244 2711 
Q 2109 2830 1861 2830 
Q 1600 2830 1445 2716 
Q 1291 2602 1241 2427 
L 346 2500 
Q 446 2977 842 3256 
Q 1239 3536 1866 3536 
Q 2255 3536 2593 3413 
Q 2932 3291 3140 3030 
Q 3348 2770 3348 2355 
L 3348 0 
L 2430 0 
L 2430 484 
L 2402 484 
Q 2275 241 2021 87 
Q 1768 -66 1382 -66 
z
M 1659 602 
Q 1977 602 2181 787 
Q 2386 973 2386 1248 
L 2386 1618 
Q 2330 1580 2210 1550 
Q 2091 1520 1956 1498 
Q 1821 1477 1714 1461 
Q 1459 1425 1303 1318 
Q 1148 1211 1148 1007 
Q 1148 807 1292 704 
Q 1436 602 1659 602 
z
" id="Inter-Bold-61" transform="scale(0.015625)"/>
      <path d="M 1959 -1359 
Q 1255 -1359 852 -1082 
Q 450 -805 364 -409 
L 1259 -289 
Q 1318 -430 1489 -547 
Q 1661 -664 1982 -664 
Q 2298 -664 2503 -514 
Q 2709 -364 2709 -20 
L 2709 618 
L 2668 618 
Q 2573 402 2332 226 
Q 2091 50 1673 50 
Q 1280 50 958 234 
Q 636 418 446 795 
Q 257 1173 257 1752 
Q 257 2348 451 2743 
Q 646 3139 967 3337 
Q 1289 3536 1671 3536 
Q 1964 3536 2161 3437 
Q 2359 3339 2482 3193 
Q 2605 3048 2668 2905 
L 2705 2905 
L 2705 3491 
L 3666 3491 
L 3666 -34 
Q 3666 -468 3446 -763 
Q 3227 -1059 2843 -1209 
Q 2459 -1359 1959 -1359 
z
M 1980 777 
Q 2330 777 2522 1036 
Q 2714 1295 2714 1757 
Q 2714 2216 2523 2491 
Q 2332 2766 1980 2766 
Q 1621 2766 1433 2484 
Q 1246 2202 1246 1757 
Q 1246 1305 1434 1041 
Q 1623 777 1980 777 
z
" id="Inter-Bold-67" transform="scale(0.015625)"/>
      <path id="Inter-Bold-20" transform="scale(0.015625)"/>
      <path d="M 4511 3025 
L 3516 3025 
Q 3459 3409 3188 3628 
Q 2918 3848 2514 3848 
Q 1973 3848 1647 3451 
Q 1321 3055 1321 2327 
Q 1321 1582 1649 1194 
Q 1977 807 2507 807 
Q 2900 807 3173 1012 
Q 3446 1218 3516 1591 
L 4511 1586 
Q 4459 1159 4207 782 
Q 3955 405 3522 170 
Q 3089 -64 2491 -64 
Q 1868 -64 1378 218 
Q 889 500 606 1034 
Q 323 1568 323 2327 
Q 323 3089 609 3623 
Q 896 4157 1386 4437 
Q 1877 4718 2491 4718 
Q 3030 4718 3463 4519 
Q 3896 4320 4172 3942 
Q 4448 3564 4511 3025 
z
" id="Inter-Bold-43" transform="scale(0.015625)"/>
      <path d="M 4682 2327 
Q 4682 1566 4394 1032 
Q 4107 498 3614 217 
Q 3121 -64 2502 -64 
Q 1882 -64 1389 218 
Q 896 500 609 1035 
Q 323 1570 323 2327 
Q 323 3089 609 3623 
Q 896 4157 1389 4437 
Q 1882 4718 2502 4718 
Q 3121 4718 3614 4437 
Q 4107 4157 4394 3623 
Q 4682 3089 4682 2327 
z
M 3684 2327 
Q 3684 3068 3361 3458 
Q 3039 3848 2502 3848 
Q 1966 3848 1643 3458 
Q 1321 3068 1321 2327 
Q 1321 1589 1643 1198 
Q 1966 807 2502 807 
Q 3039 807 3361 1198 
Q 3684 1589 3684 2327 
z
" id="Inter-Bold-4f" transform="scale(0.015625)"/>
      <path d="M 1246 4655 
L 2371 1118 
L 2414 1118 
L 3541 4655 
L 4632 4655 
L 3027 0 
L 1759 0 
L 152 4655 
L 1246 4655 
z
" id="Inter-Bold-56" transform="scale(0.015625)"/>
      <path d="M 1389 4655 
L 1389 0 
L 405 0 
L 405 4655 
L 1389 4655 
z
" id="Inter-Bold-49" transform="scale(0.015625)"/>
      <path d="M 2055 0 
L 405 0 
L 405 4655 
L 2068 4655 
Q 2771 4655 3278 4376 
Q 3786 4098 4059 3577 
Q 4332 3057 4332 2332 
Q 4332 1605 4058 1082 
Q 3784 559 3274 279 
Q 2764 0 2055 0 
z
M 1389 843 
L 2014 843 
Q 2671 843 3010 1197 
Q 3350 1552 3350 2332 
Q 3350 3107 3010 3459 
Q 2671 3811 2016 3811 
L 1389 3811 
L 1389 843 
z
" id="Inter-Bold-44" transform="scale(0.015625)"/>
      <path d="M 2561 2295 
L 2561 1527 
L 439 1527 
L 439 2295 
L 2561 2295 
z
" id="Inter-Bold-2d" transform="scale(0.015625)"/>
      <path d="M 2305 4655 
L 2305 0 
L 1323 0 
L 1323 3450 
L 1280 3450 
Q 1205 3334 961 3219 
Q 718 3105 332 3105 
L 332 3886 
Q 632 3886 857 4019 
Q 1082 4152 1209 4333 
Q 1336 4514 1341 4655 
L 2305 4655 
z
" id="Inter-Bold-31" transform="scale(0.015625)"/>
      <path d="M 2061 4732 
Q 2421 4732 2753 4612 
Q 3086 4493 3348 4227 
Q 3611 3961 3766 3523 
Q 3921 3086 3921 2448 
Q 3921 1659 3686 1096 
Q 3452 534 3028 235 
Q 2605 -64 2027 -64 
Q 1561 -64 1204 117 
Q 848 298 631 610 
Q 414 923 368 1314 
L 1339 1314 
Q 1396 1059 1577 919 
Q 1759 780 2027 780 
Q 2482 780 2718 1176 
Q 2955 1573 2957 2264 
L 2925 2264 
Q 2771 1957 2453 1782 
Q 2136 1607 1752 1607 
Q 1341 1607 1016 1801 
Q 691 1995 506 2334 
Q 321 2673 323 3109 
Q 321 3582 539 3949 
Q 757 4316 1149 4525 
Q 1541 4734 2061 4732 
z
M 2068 3959 
Q 1725 3959 1500 3722 
Q 1275 3486 1277 3136 
Q 1275 2791 1496 2555 
Q 1718 2320 2059 2320 
Q 2284 2320 2465 2431 
Q 2646 2543 2751 2729 
Q 2857 2916 2859 3141 
Q 2857 3366 2753 3551 
Q 2650 3736 2473 3847 
Q 2296 3959 2068 3959 
z
" id="Inter-Bold-39" transform="scale(0.015625)"/>
      <path d="M 1964 -68 
Q 1427 -68 1042 160 
Q 657 389 451 795 
Q 246 1202 246 1732 
Q 246 2268 453 2674 
Q 661 3080 1045 3308 
Q 1430 3536 1959 3536 
Q 2416 3536 2760 3370 
Q 3105 3205 3303 2905 
Q 3502 2605 3523 2200 
L 2609 2200 
Q 2571 2461 2406 2621 
Q 2241 2782 1975 2782 
Q 1639 2782 1434 2511 
Q 1230 2241 1230 1745 
Q 1230 1245 1433 971 
Q 1636 698 1975 698 
Q 2225 698 2395 849 
Q 2566 1000 2609 1280 
L 3523 1280 
Q 3500 880 3305 575 
Q 3111 270 2770 101 
Q 2430 -68 1964 -68 
z
" id="Inter-Bold-63" transform="scale(0.015625)"/>
      <path d="M 3291 2495 
L 2405 2441 
Q 2368 2609 2220 2729 
Q 2073 2850 1821 2850 
Q 1596 2850 1440 2755 
Q 1284 2661 1286 2505 
Q 1284 2380 1385 2293 
Q 1486 2207 1730 2155 
L 2361 2027 
Q 3368 1820 3371 1082 
Q 3371 739 3169 479 
Q 2968 220 2618 76 
Q 2268 -68 1816 -68 
Q 1123 -68 711 221 
Q 300 511 232 1011 
L 1184 1061 
Q 1230 848 1394 739 
Q 1559 630 1818 630 
Q 2073 630 2228 730 
Q 2384 830 2386 984 
Q 2380 1243 1939 1332 
L 1334 1452 
Q 321 1655 325 2450 
Q 323 2955 728 3245 
Q 1134 3536 1805 3536 
Q 2466 3536 2846 3256 
Q 3227 2977 3291 2495 
z
" id="Inter-Bold-73" transform="scale(0.015625)"/>
      <path d="M 386 0 
L 386 3491 
L 1355 3491 
L 1355 0 
L 386 0 
z
M 876 3941 
Q 662 3941 507 4085 
Q 353 4230 353 4432 
Q 353 4634 507 4777 
Q 662 4920 876 4920 
Q 1092 4920 1246 4777 
Q 1401 4634 1401 4432 
Q 1401 4230 1246 4085 
Q 1092 3941 876 3941 
z
" id="Inter-Bold-69" transform="scale(0.015625)"/>
      <path d="M 1355 2018 
L 1355 0 
L 386 0 
L 386 3491 
L 1309 3491 
L 1309 2875 
L 1350 2875 
Q 1468 3180 1739 3358 
Q 2011 3536 2400 3536 
Q 2946 3536 3275 3185 
Q 3605 2834 3605 2223 
L 3605 0 
L 2636 0 
L 2636 2050 
Q 2639 2370 2473 2551 
Q 2307 2732 2016 2732 
Q 1723 2732 1540 2544 
Q 1357 2357 1355 2018 
z
" id="Inter-Bold-6e" transform="scale(0.015625)"/>
      <path d="M 3286 4655 
L 4264 4655 
L 4264 1577 
Q 4264 1050 4016 683 
Q 3768 316 3333 125 
Q 2898 -66 2334 -66 
Q 1771 -66 1334 125 
Q 898 316 651 683 
Q 405 1050 405 1577 
L 405 4655 
L 1389 4655 
L 1389 1611 
Q 1389 1239 1658 1025 
Q 1927 811 2334 811 
Q 2748 811 3017 1025 
Q 3286 1239 3286 1611 
L 3286 4655 
z
" id="Inter-Bold-55" transform="scale(0.015625)"/>
      <path d="M 405 0 
L 405 4655 
L 1389 4655 
L 1389 2602 
L 1450 2602 
L 3125 4655 
L 4305 4655 
L 2577 2570 
L 4325 0 
L 3148 0 
L 1873 1914 
L 1389 1323 
L 1389 0 
L 405 0 
z
" id="Inter-Bold-4b" transform="scale(0.015625)"/>
      <path d="M 4298 4655 
L 4298 0 
L 3448 0 
L 1423 2930 
L 1389 2930 
L 1389 0 
L 405 0 
L 405 4655 
L 1268 4655 
L 3277 1727 
L 3318 1727 
L 3318 4655 
L 4298 4655 
z
" id="Inter-Bold-4e" transform="scale(0.015625)"/>
      <path d="M 2243 3491 
L 2243 2764 
L 1586 2764 
L 1586 1073 
Q 1586 873 1677 802 
Q 1768 732 1914 732 
Q 1982 732 2050 744 
Q 2118 757 2155 764 
L 2307 43 
Q 2234 20 2102 -10 
Q 1971 -41 1782 -48 
Q 1255 -70 935 181 
Q 616 432 618 945 
L 618 2764 
L 141 2764 
L 141 3491 
L 618 3491 
L 618 4327 
L 1586 4327 
L 1586 3491 
L 2243 3491 
z
" id="Inter-Bold-74" transform="scale(0.015625)"/>
      <path d="M 1964 -68 
Q 1434 -68 1049 158 
Q 664 384 455 789 
Q 246 1195 246 1732 
Q 246 2273 455 2678 
Q 664 3084 1049 3310 
Q 1434 3536 1964 3536 
Q 2493 3536 2878 3310 
Q 3264 3084 3473 2678 
Q 3682 2273 3682 1732 
Q 3682 1195 3473 789 
Q 3264 384 2878 158 
Q 2493 -68 1964 -68 
z
M 1968 682 
Q 2327 682 2512 982 
Q 2698 1282 2698 1739 
Q 2698 2195 2512 2496 
Q 2327 2798 1968 2798 
Q 1602 2798 1416 2496 
Q 1230 2195 1230 1739 
Q 1230 1282 1416 982 
Q 1602 682 1968 682 
z
" id="Inter-Bold-6f" transform="scale(0.015625)"/>
      <path d="M 1439 636 
L 1414 386 
Q 1384 86 1301 -212 
Q 1218 -511 1128 -754 
Q 1039 -998 984 -1136 
L 357 -1136 
Q 391 -1002 450 -763 
Q 509 -525 561 -226 
Q 614 73 627 382 
L 639 636 
L 1439 636 
z
" id="Inter-Bold-2c" transform="scale(0.015625)"/>
      <path d="M 386 -1309 
L 386 3491 
L 1341 3491 
L 1341 2905 
L 1384 2905 
Q 1450 3048 1570 3193 
Q 1691 3339 1888 3437 
Q 2086 3536 2377 3536 
Q 2761 3536 3081 3337 
Q 3402 3139 3596 2740 
Q 3791 2341 3791 1741 
Q 3791 1157 3602 756 
Q 3414 355 3093 149 
Q 2773 -57 2375 -57 
Q 2093 -57 1896 36 
Q 1700 130 1576 272 
Q 1452 414 1384 559 
L 1355 559 
L 1355 -1309 
L 386 -1309 
z
M 1334 1745 
Q 1334 1280 1526 997 
Q 1718 714 2068 714 
Q 2425 714 2613 1001 
Q 2802 1289 2802 1745 
Q 2802 2200 2614 2483 
Q 2427 2766 2068 2766 
Q 1716 2766 1525 2490 
Q 1334 2214 1334 1745 
z
" id="Inter-Bold-70" transform="scale(0.015625)"/>
     </defs>
     <use xlink:href="#Inter-Bold-41"/>
     <use x="74.786942" xlink:href="#Inter-Bold-76"/>
     <use x="133.380707" xlink:href="#Inter-Bold-65"/>
     <use x="193.146347" xlink:href="#Inter-Bold-72"/>
     <use x="236.008575" xlink:href="#Inter-Bold-61"/>
     <use x="294.034149" xlink:href="#Inter-Bold-67"/>
     <use x="357.350922" xlink:href="#Inter-Bold-65"/>
     <use x="417.116562" xlink:href="#Inter-Bold-20"/>
     <use x="440.305481" xlink:href="#Inter-Bold-43"/>
     <use x="515.51857" xlink:href="#Inter-Bold-4f"/>
     <use x="593.714615" xlink:href="#Inter-Bold-56"/>
     <use x="668.501556" xlink:href="#Inter-Bold-49"/>
     <use x="696.555542" xlink:href="#Inter-Bold-44"/>
     <use x="769.282837" xlink:href="#Inter-Bold-2d"/>
     <use x="816.157852" xlink:href="#Inter-Bold-31"/>
     <use x="863.565536" xlink:href="#Inter-Bold-39"/>
     <use x="929.581177" xlink:href="#Inter-Bold-20"/>
     <use x="952.770096" xlink:href="#Inter-Bold-63"/>
     <use x="1011.505905" xlink:href="#Inter-Bold-61"/>
     <use x="1069.531479" xlink:href="#Inter-Bold-73"/>
     <use x="1125.710464" xlink:href="#Inter-Bold-65"/>
     <use x="1185.476105" xlink:href="#Inter-Bold-73"/>
     <use x="1241.65509" xlink:href="#Inter-Bold-20"/>
     <use x="1264.844009" xlink:href="#Inter-Bold-69"/>
     <use x="1292.045715" xlink:href="#Inter-Bold-6e"/>
     <use x="1354.22612" xlink:href="#Inter-Bold-20"/>
     <use x="1377.415039" xlink:href="#Inter-Bold-55"/>
     <use x="1450.355392" xlink:href="#Inter-Bold-4b"/>
     <use x="1519.318481" xlink:href="#Inter-Bold-20"/>
     <use x="1542.507401" xlink:href="#Inter-Bold-4e"/>
     <use x="1616.015945" xlink:href="#Inter-Bold-61"/>
     <use x="1674.041519" xlink:href="#Inter-Bold-74"/>
     <use x="1712.890961" xlink:href="#Inter-Bold-69"/>
     <use x="1740.092667" xlink:href="#Inter-Bold-6f"/>
     <use x="1801.456314" xlink:href="#Inter-Bold-6e"/>
     <use x="1863.636719" xlink:href="#Inter-Bold-73"/>
     <use x="1919.815704" xlink:href="#Inter-Bold-2c"/>
     <use x="1950.106903" xlink:href="#Inter-Bold-20"/>
     <use x="1973.295822" xlink:href="#Inter-Bold-70"/>
     <use x="2036.54158" xlink:href="#Inter-Bold-65"/>
     <use x="2096.30722" xlink:href="#Inter-Bold-72"/>
     <use x="2139.169449" xlink:href="#Inter-Bold-20"/>
     <use x="2162.358368" xlink:href="#Inter-Bold-63"/>
     <use x="2221.094177" xlink:href="#Inter-Bold-61"/>
     <use x="2279.119751" xlink:href="#Inter-Bold-70"/>
     <use x="2342.365509" xlink:href="#Inter-Bold-69"/>
     <use x="2369.567215" xlink:href="#Inter-Bold-74"/>
     <use x="2408.416656" xlink:href="#Inter-Bold-61"/>
    </g>
   </g>
   <g id="legend_1">
    <g id="patch_4">
     <path d="M 621.601562 98.614063 
L 731.175 98.614063 
Q 733.175 98.614063 733.175 96.614063 
L 733.175 40.225 
Q 733.175 38.225 731.175 38.225 
L 621.601562 38.225 
Q 619.601562 38.225 619.601562 40.225 
L 619.601562 96.614063 
Q 619.601562 98.614063 621.601562 98.614063 
z
" style="fill:#ffffff;opacity:0.8;stroke:#cccccc;stroke-linejoin:miter;"/>
    </g>
    <g id="line2d_33">
     <path d="M 623.601562 45.998438 
L 643.601562 45.998438 
" style="fill:none;stroke:#d4351c;stroke-linecap:square;stroke-width:2;"/>
    </g>
    <g id="line2d_34"/>
    <g id="text_25">
     <!-- Wales -->
     <g transform="translate(651.601562 49.498438)scale(0.1 -0.1)">
      <defs>
       <path d="M 1409 0 
L 136 4655 
L 709 4655 
L 1682 864 
L 1727 864 
L 2718 4655 
L 3355 4655 
L 4346 864 
L 4391 864 
L 5364 4655 
L 5936 4655 
L 4664 0 
L 4082 0 
L 3055 3709 
L 3018 3709 
L 1991 0 
L 1409 0 
z
" id="Inter-Regular-57" transform="scale(0.015625)"/>
      </defs>
      <use xlink:href="#Inter-Regular-57"/>
      <use x="94.886383" xlink:href="#Inter-Regular-61"/>
      <use x="151.278442" xlink:href="#Inter-Regular-6c"/>
      <use x="175.000031" xlink:href="#Inter-Regular-65"/>
      <use x="233.238678" xlink:href="#Inter-Regular-73"/>
     </g>
    </g>
    <g id="line2d_35">
     <path d="M 623.601562 60.317188 
L 643.601562 60.317188 
" style="fill:none;stroke:#003078;stroke-linecap:square;stroke-width:2;"/>
    </g>
    <g id="line2d_36"/>
    <g id="text_26">
     <!-- Scotland -->
     <g transform="translate(651.601562 63.817188)scale(0.1 -0.1)">
      <use xlink:href="#Inter-Regular-53"/>
      <use x="63.778427" xlink:href="#Inter-Regular-63"/>
      <use x="119.602295" xlink:href="#Inter-Regular-6f"/>
      <use x="179.261398" xlink:href="#Inter-Regular-74"/>
      <use x="215.625046" xlink:href="#Inter-Regular-6c"/>
      <use x="239.346634" xlink:href="#Inter-Regular-61"/>
      <use x="295.738693" xlink:href="#Inter-Regular-6e"/>
      <use x="354.261429" xlink:href="#Inter-Regular-64"/>
     </g>
    </g>
    <g id="line2d_37">
     <path d="M 623.601562 74.635938 
L 643.601562 74.635938 
" style="fill:none;stroke:#ffdd00;stroke-linecap:square;stroke-width:2;"/>
    </g>
    <g id="line2d_38"/>
    <g id="text_27">
     <!-- Northern Ireland -->
     <g transform="translate(651.601562 78.135938)scale(0.1 -0.1)">
      <defs>
       <path d="M 1027 2100 
L 1027 0 
L 491 0 
L 491 4655 
L 1027 4655 
L 1027 2945 
L 1073 2945 
Q 1196 3216 1442 3376 
Q 1689 3536 2100 3536 
Q 2636 3536 2963 3213 
Q 3291 2891 3291 2218 
L 3291 0 
L 2755 0 
L 2755 2182 
Q 2755 2598 2540 2826 
Q 2325 3055 1946 3055 
Q 1548 3055 1287 2806 
Q 1027 2557 1027 2100 
z
" id="Inter-Regular-68" transform="scale(0.015625)"/>
       <path d="M 1127 4655 
L 1127 0 
L 564 0 
L 564 4655 
L 1127 4655 
z
" id="Inter-Regular-49" transform="scale(0.015625)"/>
      </defs>
      <use xlink:href="#Inter-Regular-4e"/>
      <use x="75.284103" xlink:href="#Inter-Regular-6f"/>
      <use x="134.943207" xlink:href="#Inter-Regular-72"/>
      <use x="173.295486" xlink:href="#Inter-Regular-74"/>
      <use x="209.659134" xlink:href="#Inter-Regular-68"/>
      <use x="268.750061" xlink:href="#Inter-Regular-65"/>
      <use x="326.988708" xlink:href="#Inter-Regular-72"/>
      <use x="365.340988" xlink:href="#Inter-Regular-6e"/>
      <use x="423.863724" xlink:href="#Inter-Regular-20"/>
      <use x="451.988724" xlink:href="#Inter-Regular-49"/>
      <use x="478.40918" xlink:href="#Inter-Regular-72"/>
      <use x="516.761459" xlink:href="#Inter-Regular-65"/>
      <use x="575.000107" xlink:href="#Inter-Regular-6c"/>
      <use x="598.721695" xlink:href="#Inter-Regular-61"/>
      <use x="655.113754" xlink:href="#Inter-Regular-6e"/>
      <use x="713.63649" xlink:href="#Inter-Regular-64"/>
     </g>
    </g>
    <g id="line2d_39">
     <path d="M 623.601562 88.954688 
L 643.601562 88.954688 
" style="fill:none;stroke:#5694ca;stroke-linecap:square;stroke-width:2;"/>
    </g>
    <g id="line2d_40"/>
    <g id="text_28">
     <!-- England -->
     <g transform="translate(651.601562 92.454688)scale(0.1 -0.1)">
      <defs>
       <path d="M 564 0 
L 564 4655 
L 3373 4655 
L 3373 4155 
L 1127 4155 
L 1127 2582 
L 3227 2582 
L 3227 2082 
L 1127 2082 
L 1127 500 
L 3409 500 
L 3409 0 
L 564 0 
z
" id="Inter-Regular-45" transform="scale(0.015625)"/>
      </defs>
      <use xlink:href="#Inter-Regular-45"/>
      <use x="59.801147" xlink:href="#Inter-Regular-6e"/>
      <use x="118.323883" xlink:href="#Inter-Regular-67"/>
      <use x="179.261398" xlink:href="#Inter-Regular-6c"/>
      <use x="202.982986" xlink:href="#Inter-Regular-61"/>
      <use x="259.375046" xlink:href="#Inter-Regular-6e"/>
      <use x="317.897781" xlink:href="#Inter-Regular-64"/>
     </g>
    </g>
   </g>
  </g>
 </g>
 <defs>
  <clipPath id="pb0894a05bd">
   <rect height="443.52" width="669.6" x="68.575" y="33.225"/>
  </clipPath>
 </defs>
</svg>
