<?xml version="1.0" encoding="utf-8" standalone="no"?>
<!DOCTYPE svg PUBLIC "-//W3C//DTD SVG 1.1//EN"
  "http://www.w3.org/Graphics/SVG/1.1/DTD/svg11.dtd">
<svg version="1.1" viewBox="0 0 756.175 511.234062" xmlns="http://www.w3.org/2000/svg" xmlns:xlink="http://www.w3.org/1999/xlink">
 <metadata>
  <rdf:RDF xmlns:cc="http://creativecommons.org/ns#" xmlns:dc="http://purl.org/dc/elements/1.1/" xmlns:rdf="http://www.w3.org/1999/02/22-rdf-syntax-ns#">
   <cc:Work>
    <dc:type rdf:resource="http://purl.org/dc/dcmitype/StillImage"/>
    <dc:date>2021-10-25T17:18:38.624259</dc:date>
    <dc:format>image/svg+xml</dc:format>
    <dc:creator>
     <cc:Agent>
      <dc:title>Matplotlib v3.4.3, https://matplotlib.org/</dc:title>
     </cc:Agent>
    </dc:creator>
   </cc:Work>
  </rdf:RDF>
 </metadata>
 <defs>
  <style type="text/css">*{stroke-linecap:butt;stroke-linejoin:round;}</style>
 </defs>
 <g id="figure_1">
  <g id="patch_1">
   <path d="M 0 511.234062 
L 756.175 511.234062 
L 756.175 0 
L 0 0 
z
" style="fill:#ffffff;"/>
  </g>
  <g id="axes_1">
   <g id="patch_2">
    <path d="M 68.575 476.745 
L 738.175 476.745 
L 738.175 33.225 
L 68.575 33.225 
z
" style="fill:#ffffff;"/>
   </g>
   <g id="matplotlib.axis_1">
    <g id="xtick_1">
     <g id="line2d_1">
      <defs>
       <path d="M 0 0 
L 0 3.5 
" id="m1ae77ac867" style="stroke:#000000;stroke-width:0.8;"/>
      </defs>
      <g>
       <use style="stroke:#000000;stroke-width:0.8;" x="68.575" xlink:href="#m1ae77ac867" y="476.745"/>
      </g>
     </g>
     <g id="text_1">
      <!-- 01 Mar -->
      <g transform="translate(52.538281 491.018437)scale(0.1 -0.1)">
       <defs>
        <path d="M 2000 -64 
Q 1230 -64 806 561 
Q 382 1186 382 2327 
Q 382 3459 809 4088 
Q 1236 4718 2000 4718 
Q 2764 4718 3191 4088 
Q 3618 3459 3618 2327 
Q 3618 1186 3194 561 
Q 2771 -64 2000 -64 
z
M 2000 436 
Q 2509 436 2791 927 
Q 3073 1418 3073 2327 
Q 3073 3234 2789 3730 
Q 2505 4227 2000 4227 
Q 1496 4227 1211 3730 
Q 927 3234 927 2327 
Q 927 1418 1210 927 
Q 1493 436 2000 436 
z
" id="Inter-Regular-30" transform="scale(0.015625)"/>
        <path d="M 1973 4655 
L 1973 0 
L 1409 0 
L 1409 3836 
L 1373 3836 
Q 1341 3773 1209 3692 
Q 1077 3611 868 3551 
Q 659 3491 391 3491 
L 391 3964 
Q 661 3964 859 4061 
Q 1057 4159 1190 4291 
Q 1323 4423 1392 4529 
Q 1461 4636 1473 4655 
L 1973 4655 
z
" id="Inter-Regular-31" transform="scale(0.015625)"/>
        <path id="Inter-Regular-20" transform="scale(0.015625)"/>
        <path d="M 564 4655 
L 1236 4655 
L 2818 791 
L 2873 791 
L 4455 4655 
L 5127 4655 
L 5127 0 
L 4600 0 
L 4600 3536 
L 4555 3536 
L 3100 0 
L 2591 0 
L 1136 3536 
L 1091 3536 
L 1091 0 
L 564 0 
L 564 4655 
z
" id="Inter-Regular-4d" transform="scale(0.015625)"/>
        <path d="M 1518 -82 
Q 1186 -82 916 44 
Q 646 170 486 410 
Q 327 650 327 991 
Q 327 1291 445 1478 
Q 564 1666 761 1773 
Q 959 1880 1199 1933 
Q 1439 1986 1682 2018 
Q 2000 2059 2199 2080 
Q 2398 2102 2490 2154 
Q 2582 2207 2582 2336 
L 2582 2355 
Q 2582 2691 2399 2877 
Q 2216 3064 1846 3064 
Q 1461 3064 1243 2895 
Q 1025 2727 936 2536 
L 427 2718 
Q 564 3036 792 3214 
Q 1021 3393 1292 3464 
Q 1564 3536 1827 3536 
Q 1996 3536 2215 3496 
Q 2434 3457 2640 3334 
Q 2846 3211 2982 2963 
Q 3118 2716 3118 2300 
L 3118 0 
L 2582 0 
L 2582 473 
L 2555 473 
Q 2500 359 2373 229 
Q 2246 100 2034 9 
Q 1823 -82 1518 -82 
z
M 1600 400 
Q 1918 400 2137 525 
Q 2357 650 2469 847 
Q 2582 1045 2582 1264 
L 2582 1755 
Q 2548 1714 2433 1681 
Q 2318 1648 2169 1624 
Q 2021 1600 1881 1583 
Q 1741 1566 1655 1555 
Q 1446 1527 1265 1467 
Q 1084 1407 974 1287 
Q 864 1168 864 964 
Q 864 684 1072 542 
Q 1280 400 1600 400 
z
" id="Inter-Regular-61" transform="scale(0.015625)"/>
        <path d="M 491 0 
L 491 3491 
L 1009 3491 
L 1009 2964 
L 1046 2964 
Q 1139 3223 1389 3384 
Q 1639 3545 1955 3545 
Q 2100 3545 2209 3511 
Q 2318 3477 2400 3418 
L 2218 2964 
Q 2161 2993 2085 3010 
Q 2009 3027 1909 3027 
Q 1527 3027 1277 2794 
Q 1027 2561 1027 2209 
L 1027 0 
L 491 0 
z
" id="Inter-Regular-72" transform="scale(0.015625)"/>
       </defs>
       <use xlink:href="#Inter-Regular-30"/>
       <use x="62.500015" xlink:href="#Inter-Regular-31"/>
       <use x="106.676163" xlink:href="#Inter-Regular-20"/>
       <use x="134.801163" xlink:href="#Inter-Regular-4d"/>
       <use x="225.99437" xlink:href="#Inter-Regular-61"/>
       <use x="282.386429" xlink:href="#Inter-Regular-72"/>
      </g>
     </g>
    </g>
    <g id="xtick_2">
     <g id="line2d_2">
      <g>
       <use style="stroke:#000000;stroke-width:0.8;" x="102.957929" xlink:href="#m1ae77ac867" y="476.745"/>
      </g>
     </g>
    </g>
    <g id="xtick_3">
     <g id="line2d_3">
      <g>
       <use style="stroke:#000000;stroke-width:0.8;" x="136.231732" xlink:href="#m1ae77ac867" y="476.745"/>
      </g>
     </g>
     <g id="text_2">
      <!-- 01 May -->
      <g transform="translate(119.328607 491.116875)scale(0.1 -0.1)">
       <defs>
        <path d="M 818 -1355 
Q 682 -1355 575 -1333 
Q 468 -1311 427 -1291 
L 564 -818 
Q 857 -893 1053 -814 
Q 1250 -736 1391 -345 
L 1509 -18 
L 218 3491 
L 800 3491 
L 1764 709 
L 1800 709 
L 2764 3491 
L 3346 3491 
L 1846 -564 
Q 1550 -1355 818 -1355 
z
" id="Inter-Regular-79" transform="scale(0.015625)"/>
       </defs>
       <use xlink:href="#Inter-Regular-30"/>
       <use x="62.500015" xlink:href="#Inter-Regular-31"/>
       <use x="106.676163" xlink:href="#Inter-Regular-20"/>
       <use x="134.801163" xlink:href="#Inter-Regular-4d"/>
       <use x="225.99437" xlink:href="#Inter-Regular-61"/>
       <use x="282.386429" xlink:href="#Inter-Regular-79"/>
      </g>
     </g>
    </g>
    <g id="xtick_4">
     <g id="line2d_4">
      <g>
       <use style="stroke:#000000;stroke-width:0.8;" x="170.614661" xlink:href="#m1ae77ac867" y="476.745"/>
      </g>
     </g>
    </g>
    <g id="xtick_5">
     <g id="line2d_5">
      <g>
       <use style="stroke:#000000;stroke-width:0.8;" x="203.888464" xlink:href="#m1ae77ac867" y="476.745"/>
      </g>
     </g>
     <g id="text_3">
      <!-- 01 Jul -->
      <g transform="translate(190.344714 491.018437)scale(0.1 -0.1)">
       <defs>
        <path d="M 2346 4655 
L 2909 4655 
L 2909 1327 
Q 2909 657 2549 296 
Q 2189 -64 1582 -64 
Q 1200 -64 902 76 
Q 605 216 434 475 
Q 264 734 264 1091 
L 818 1091 
Q 818 795 1034 615 
Q 1250 436 1582 436 
Q 1948 436 2147 664 
Q 2346 893 2346 1327 
L 2346 4655 
z
" id="Inter-Regular-4a" transform="scale(0.015625)"/>
        <path d="M 2691 1427 
L 2691 3491 
L 3227 3491 
L 3227 0 
L 2691 0 
L 2691 591 
L 2655 591 
Q 2532 325 2273 140 
Q 2014 -45 1618 -45 
Q 1127 -45 809 280 
Q 491 605 491 1273 
L 491 3491 
L 1027 3491 
L 1027 1309 
Q 1027 927 1242 700 
Q 1457 473 1791 473 
Q 1991 473 2199 575 
Q 2407 677 2549 888 
Q 2691 1100 2691 1427 
z
" id="Inter-Regular-75" transform="scale(0.015625)"/>
        <path d="M 1027 4655 
L 1027 0 
L 491 0 
L 491 4655 
L 1027 4655 
z
" id="Inter-Regular-6c" transform="scale(0.015625)"/>
       </defs>
       <use xlink:href="#Inter-Regular-30"/>
       <use x="62.500015" xlink:href="#Inter-Regular-31"/>
       <use x="106.676163" xlink:href="#Inter-Regular-20"/>
       <use x="134.801163" xlink:href="#Inter-Regular-4a"/>
       <use x="189.062531" xlink:href="#Inter-Regular-75"/>
       <use x="247.159134" xlink:href="#Inter-Regular-6c"/>
      </g>
     </g>
    </g>
    <g id="xtick_6">
     <g id="line2d_6">
      <g>
       <use style="stroke:#000000;stroke-width:0.8;" x="238.271394" xlink:href="#m1ae77ac867" y="476.745"/>
      </g>
     </g>
    </g>
    <g id="xtick_7">
     <g id="line2d_7">
      <g>
       <use style="stroke:#000000;stroke-width:0.8;" x="272.654323" xlink:href="#m1ae77ac867" y="476.745"/>
      </g>
     </g>
     <g id="text_4">
      <!-- 01 Sep -->
      <g transform="translate(256.766823 491.116875)scale(0.1 -0.1)">
       <defs>
        <path d="M 3109 3491 
Q 3068 3836 2777 4027 
Q 2486 4218 2064 4218 
Q 1600 4218 1318 3999 
Q 1036 3780 1036 3445 
Q 1036 3195 1189 3042 
Q 1343 2889 1553 2803 
Q 1764 2718 1936 2673 
L 2409 2545 
Q 2591 2498 2815 2414 
Q 3039 2330 3244 2185 
Q 3450 2041 3584 1816 
Q 3718 1591 3718 1264 
Q 3718 886 3521 581 
Q 3325 277 2949 97 
Q 2573 -82 2036 -82 
Q 1286 -82 845 272 
Q 405 627 364 1200 
L 946 1200 
Q 968 936 1124 764 
Q 1280 593 1519 510 
Q 1759 427 2036 427 
Q 2359 427 2616 533 
Q 2873 639 3023 828 
Q 3173 1018 3173 1273 
Q 3173 1505 3043 1650 
Q 2914 1795 2702 1886 
Q 2491 1977 2246 2045 
L 1673 2209 
Q 1127 2366 809 2657 
Q 491 2948 491 3418 
Q 491 3809 703 4101 
Q 916 4393 1276 4555 
Q 1636 4718 2082 4718 
Q 2532 4718 2882 4558 
Q 3232 4398 3437 4120 
Q 3643 3843 3655 3491 
L 3109 3491 
z
" id="Inter-Regular-53" transform="scale(0.015625)"/>
        <path d="M 1955 -73 
Q 1450 -73 1085 151 
Q 721 375 524 778 
Q 327 1182 327 1718 
Q 327 2255 524 2665 
Q 721 3075 1074 3305 
Q 1427 3536 1900 3536 
Q 2173 3536 2439 3445 
Q 2705 3355 2923 3151 
Q 3141 2948 3270 2614 
Q 3400 2280 3400 1791 
L 3400 1564 
L 866 1564 
Q 884 1005 1183 707 
Q 1482 409 1955 409 
Q 2271 409 2498 545 
Q 2725 682 2827 955 
L 3346 809 
Q 3223 414 2854 170 
Q 2486 -73 1955 -73 
z
M 866 2027 
L 2855 2027 
Q 2855 2470 2595 2762 
Q 2336 3055 1900 3055 
Q 1593 3055 1368 2911 
Q 1143 2768 1013 2533 
Q 884 2298 866 2027 
z
" id="Inter-Regular-65" transform="scale(0.015625)"/>
        <path d="M 491 -1309 
L 491 3491 
L 1009 3491 
L 1009 2936 
L 1073 2936 
Q 1132 3027 1237 3169 
Q 1343 3311 1542 3423 
Q 1741 3536 2082 3536 
Q 2523 3536 2859 3315 
Q 3196 3095 3384 2690 
Q 3573 2286 3573 1736 
Q 3573 1182 3384 776 
Q 3196 370 2861 148 
Q 2527 -73 2091 -73 
Q 1755 -73 1552 39 
Q 1350 152 1241 296 
Q 1132 441 1073 536 
L 1027 536 
L 1027 -1309 
L 491 -1309 
z
M 1018 1745 
Q 1018 1152 1276 780 
Q 1534 409 2018 409 
Q 2355 409 2581 587 
Q 2807 766 2921 1069 
Q 3036 1373 3036 1745 
Q 3036 2114 2923 2410 
Q 2811 2707 2585 2881 
Q 2359 3055 2018 3055 
Q 1527 3055 1272 2693 
Q 1018 2332 1018 1745 
z
" id="Inter-Regular-70" transform="scale(0.015625)"/>
       </defs>
       <use xlink:href="#Inter-Regular-30"/>
       <use x="62.500015" xlink:href="#Inter-Regular-31"/>
       <use x="106.676163" xlink:href="#Inter-Regular-20"/>
       <use x="134.801163" xlink:href="#Inter-Regular-53"/>
       <use x="198.57959" xlink:href="#Inter-Regular-65"/>
       <use x="256.818237" xlink:href="#Inter-Regular-70"/>
      </g>
     </g>
    </g>
    <g id="xtick_8">
     <g id="line2d_8">
      <g>
       <use style="stroke:#000000;stroke-width:0.8;" x="305.928126" xlink:href="#m1ae77ac867" y="476.745"/>
      </g>
     </g>
    </g>
    <g id="xtick_9">
     <g id="line2d_9">
      <g>
       <use style="stroke:#000000;stroke-width:0.8;" x="340.311055" xlink:href="#m1ae77ac867" y="476.745"/>
      </g>
     </g>
     <g id="text_5">
      <!-- 01 Nov -->
      <g transform="translate(324.039961 491.018437)scale(0.1 -0.1)">
       <defs>
        <path d="M 4255 4655 
L 4255 0 
L 3709 0 
L 1173 3655 
L 1127 3655 
L 1127 0 
L 564 0 
L 564 4655 
L 1109 4655 
L 3655 991 
L 3700 991 
L 3700 4655 
L 4255 4655 
z
" id="Inter-Regular-4e" transform="scale(0.015625)"/>
        <path d="M 1909 -73 
Q 1436 -73 1080 152 
Q 725 377 526 781 
Q 327 1186 327 1727 
Q 327 2273 526 2679 
Q 725 3086 1080 3311 
Q 1436 3536 1909 3536 
Q 2382 3536 2737 3311 
Q 3093 3086 3292 2679 
Q 3491 2273 3491 1727 
Q 3491 1186 3292 781 
Q 3093 377 2737 152 
Q 2382 -73 1909 -73 
z
M 1909 409 
Q 2268 409 2500 593 
Q 2732 777 2843 1077 
Q 2955 1377 2955 1727 
Q 2955 2077 2843 2379 
Q 2732 2682 2500 2868 
Q 2268 3055 1909 3055 
Q 1550 3055 1318 2868 
Q 1086 2682 975 2379 
Q 864 2077 864 1727 
Q 864 1377 975 1077 
Q 1086 777 1318 593 
Q 1550 409 1909 409 
z
" id="Inter-Regular-6f" transform="scale(0.015625)"/>
        <path d="M 3346 3491 
L 2055 0 
L 1509 0 
L 218 3491 
L 800 3491 
L 1764 709 
L 1800 709 
L 2764 3491 
L 3346 3491 
z
" id="Inter-Regular-76" transform="scale(0.015625)"/>
       </defs>
       <use xlink:href="#Inter-Regular-30"/>
       <use x="62.500015" xlink:href="#Inter-Regular-31"/>
       <use x="106.676163" xlink:href="#Inter-Regular-20"/>
       <use x="134.801163" xlink:href="#Inter-Regular-4e"/>
       <use x="210.085266" xlink:href="#Inter-Regular-6f"/>
       <use x="269.74437" xlink:href="#Inter-Regular-76"/>
      </g>
     </g>
    </g>
    <g id="xtick_10">
     <g id="line2d_10">
      <g>
       <use style="stroke:#000000;stroke-width:0.8;" x="373.584858" xlink:href="#m1ae77ac867" y="476.745"/>
      </g>
     </g>
    </g>
    <g id="xtick_11">
     <g id="line2d_11">
      <g>
       <use style="stroke:#000000;stroke-width:0.8;" x="407.967787" xlink:href="#m1ae77ac867" y="476.745"/>
      </g>
     </g>
     <g id="text_6">
      <!-- 01 Jan -->
      <g transform="translate(392.768568 491.018437)scale(0.1 -0.1)">
       <defs>
        <path d="M 1027 2100 
L 1027 0 
L 491 0 
L 491 3491 
L 1009 3491 
L 1009 2945 
L 1055 2945 
Q 1177 3211 1427 3373 
Q 1677 3536 2073 3536 
Q 2602 3536 2928 3211 
Q 3255 2886 3255 2218 
L 3255 0 
L 2718 0 
L 2718 2182 
Q 2718 2593 2504 2824 
Q 2291 3055 1918 3055 
Q 1534 3055 1280 2806 
Q 1027 2557 1027 2100 
z
" id="Inter-Regular-6e" transform="scale(0.015625)"/>
       </defs>
       <use xlink:href="#Inter-Regular-30"/>
       <use x="62.500015" xlink:href="#Inter-Regular-31"/>
       <use x="106.676163" xlink:href="#Inter-Regular-20"/>
       <use x="134.801163" xlink:href="#Inter-Regular-4a"/>
       <use x="189.062531" xlink:href="#Inter-Regular-61"/>
       <use x="245.45459" xlink:href="#Inter-Regular-6e"/>
      </g>
     </g>
    </g>
    <g id="xtick_12">
     <g id="line2d_12">
      <g>
       <use style="stroke:#000000;stroke-width:0.8;" x="442.350716" xlink:href="#m1ae77ac867" y="476.745"/>
      </g>
     </g>
    </g>
    <g id="xtick_13">
     <g id="line2d_13">
      <g>
       <use style="stroke:#000000;stroke-width:0.8;" x="473.406266" xlink:href="#m1ae77ac867" y="476.745"/>
      </g>
     </g>
     <g id="text_7">
      <!-- 01 Mar -->
      <g transform="translate(457.369547 491.018437)scale(0.1 -0.1)">
       <use xlink:href="#Inter-Regular-30"/>
       <use x="62.500015" xlink:href="#Inter-Regular-31"/>
       <use x="106.676163" xlink:href="#Inter-Regular-20"/>
       <use x="134.801163" xlink:href="#Inter-Regular-4d"/>
       <use x="225.99437" xlink:href="#Inter-Regular-61"/>
       <use x="282.386429" xlink:href="#Inter-Regular-72"/>
      </g>
     </g>
    </g>
    <g id="xtick_14">
     <g id="line2d_14">
      <g>
       <use style="stroke:#000000;stroke-width:0.8;" x="507.789195" xlink:href="#m1ae77ac867" y="476.745"/>
      </g>
     </g>
    </g>
    <g id="xtick_15">
     <g id="line2d_15">
      <g>
       <use style="stroke:#000000;stroke-width:0.8;" x="541.062998" xlink:href="#m1ae77ac867" y="476.745"/>
      </g>
     </g>
     <g id="text_8">
      <!-- 01 May -->
      <g transform="translate(524.159873 491.116875)scale(0.1 -0.1)">
       <use xlink:href="#Inter-Regular-30"/>
       <use x="62.500015" xlink:href="#Inter-Regular-31"/>
       <use x="106.676163" xlink:href="#Inter-Regular-20"/>
       <use x="134.801163" xlink:href="#Inter-Regular-4d"/>
       <use x="225.99437" xlink:href="#Inter-Regular-61"/>
       <use x="282.386429" xlink:href="#Inter-Regular-79"/>
      </g>
     </g>
    </g>
    <g id="xtick_16">
     <g id="line2d_16">
      <g>
       <use style="stroke:#000000;stroke-width:0.8;" x="575.445927" xlink:href="#m1ae77ac867" y="476.745"/>
      </g>
     </g>
    </g>
    <g id="xtick_17">
     <g id="line2d_17">
      <g>
       <use style="stroke:#000000;stroke-width:0.8;" x="608.71973" xlink:href="#m1ae77ac867" y="476.745"/>
      </g>
     </g>
     <g id="text_9">
      <!-- 01 Jul -->
      <g transform="translate(595.17598 491.018437)scale(0.1 -0.1)">
       <use xlink:href="#Inter-Regular-30"/>
       <use x="62.500015" xlink:href="#Inter-Regular-31"/>
       <use x="106.676163" xlink:href="#Inter-Regular-20"/>
       <use x="134.801163" xlink:href="#Inter-Regular-4a"/>
       <use x="189.062531" xlink:href="#Inter-Regular-75"/>
       <use x="247.159134" xlink:href="#Inter-Regular-6c"/>
      </g>
     </g>
    </g>
    <g id="xtick_18">
     <g id="line2d_18">
      <g>
       <use style="stroke:#000000;stroke-width:0.8;" x="643.102659" xlink:href="#m1ae77ac867" y="476.745"/>
      </g>
     </g>
    </g>
    <g id="xtick_19">
     <g id="line2d_19">
      <g>
       <use style="stroke:#000000;stroke-width:0.8;" x="677.485588" xlink:href="#m1ae77ac867" y="476.745"/>
      </g>
     </g>
     <g id="text_10">
      <!-- 01 Sep -->
      <g transform="translate(661.598088 491.116875)scale(0.1 -0.1)">
       <use xlink:href="#Inter-Regular-30"/>
       <use x="62.500015" xlink:href="#Inter-Regular-31"/>
       <use x="106.676163" xlink:href="#Inter-Regular-20"/>
       <use x="134.801163" xlink:href="#Inter-Regular-53"/>
       <use x="198.57959" xlink:href="#Inter-Regular-65"/>
       <use x="256.818237" xlink:href="#Inter-Regular-70"/>
      </g>
     </g>
    </g>
    <g id="xtick_20">
     <g id="line2d_20">
      <g>
       <use style="stroke:#000000;stroke-width:0.8;" x="710.759391" xlink:href="#m1ae77ac867" y="476.745"/>
      </g>
     </g>
    </g>
   </g>
   <g id="matplotlib.axis_2">
    <g id="ytick_1">
     <g id="line2d_21">
      <path clip-path="url(#p019c3d16a6)" d="M 68.575 476.745 
L 738.175 476.745 
" style="fill:none;stroke:#e5e5e5;stroke-linecap:square;stroke-width:0.8;"/>
     </g>
     <g id="line2d_22">
      <defs>
       <path d="M 0 0 
L -3.5 0 
" id="me6da7e5597" style="stroke:#000000;stroke-width:0.8;"/>
      </defs>
      <g>
       <use style="stroke:#000000;stroke-width:0.8;" x="68.575" xlink:href="#me6da7e5597" y="476.745"/>
      </g>
     </g>
     <g id="text_11">
      <!-- 0.00% -->
      <g transform="translate(31.94375 480.381719)scale(0.1 -0.1)">
       <defs>
        <path d="M 882 -36 
Q 714 -36 593 84 
Q 473 205 473 373 
Q 473 541 593 661 
Q 714 782 882 782 
Q 1050 782 1170 661 
Q 1291 541 1291 373 
Q 1291 205 1170 84 
Q 1050 -36 882 -36 
z
" id="Inter-Regular-2e" transform="scale(0.015625)"/>
        <path d="M 2855 873 
L 2855 1118 
Q 2855 1373 2960 1585 
Q 3066 1798 3269 1926 
Q 3473 2055 3764 2055 
Q 4059 2055 4259 1926 
Q 4459 1798 4561 1585 
Q 4664 1373 4664 1118 
L 4664 873 
Q 4664 618 4560 405 
Q 4457 193 4256 64 
Q 4055 -64 3764 -64 
Q 3468 -64 3266 64 
Q 3064 193 2959 405 
Q 2855 618 2855 873 
z
M 536 3536 
L 536 3782 
Q 536 4036 642 4248 
Q 748 4461 951 4589 
Q 1155 4718 1446 4718 
Q 1741 4718 1941 4589 
Q 2141 4461 2243 4248 
Q 2346 4036 2346 3782 
L 2346 3536 
Q 2346 3282 2242 3069 
Q 2139 2857 1937 2728 
Q 1736 2600 1446 2600 
Q 1150 2600 948 2728 
Q 746 2857 641 3069 
Q 536 3282 536 3536 
z
M 709 0 
L 3909 4655 
L 4427 4655 
L 1227 0 
L 709 0 
z
M 3318 1118 
L 3318 873 
Q 3318 661 3418 494 
Q 3518 327 3764 327 
Q 4002 327 4101 494 
Q 4200 661 4200 873 
L 4200 1118 
Q 4200 1330 4104 1497 
Q 4009 1664 3764 1664 
Q 3525 1664 3421 1497 
Q 3318 1330 3318 1118 
z
M 1000 3782 
L 1000 3536 
Q 1000 3325 1100 3158 
Q 1200 2991 1446 2991 
Q 1684 2991 1783 3158 
Q 1882 3325 1882 3536 
L 1882 3782 
Q 1882 3993 1786 4160 
Q 1691 4327 1446 4327 
Q 1207 4327 1103 4160 
Q 1000 3993 1000 3782 
z
" id="Inter-Regular-25" transform="scale(0.015625)"/>
       </defs>
       <use xlink:href="#Inter-Regular-30"/>
       <use x="62.500015" xlink:href="#Inter-Regular-2e"/>
       <use x="90.056839" xlink:href="#Inter-Regular-30"/>
       <use x="152.556854" xlink:href="#Inter-Regular-30"/>
       <use x="215.05687" xlink:href="#Inter-Regular-25"/>
      </g>
     </g>
    </g>
    <g id="ytick_2">
     <g id="line2d_23">
      <path clip-path="url(#p019c3d16a6)" d="M 68.575 408.974546 
L 738.175 408.974546 
" style="fill:none;stroke:#e5e5e5;stroke-linecap:square;stroke-width:0.8;"/>
     </g>
     <g id="line2d_24">
      <g>
       <use style="stroke:#000000;stroke-width:0.8;" x="68.575" xlink:href="#me6da7e5597" y="408.974546"/>
      </g>
     </g>
     <g id="text_12">
      <!-- 0.01% -->
      <g transform="translate(33.776563 412.611265)scale(0.1 -0.1)">
       <use xlink:href="#Inter-Regular-30"/>
       <use x="62.500015" xlink:href="#Inter-Regular-2e"/>
       <use x="90.056839" xlink:href="#Inter-Regular-30"/>
       <use x="152.556854" xlink:href="#Inter-Regular-31"/>
       <use x="196.733002" xlink:href="#Inter-Regular-25"/>
      </g>
     </g>
    </g>
    <g id="ytick_3">
     <g id="line2d_25">
      <path clip-path="url(#p019c3d16a6)" d="M 68.575 341.204092 
L 738.175 341.204092 
" style="fill:none;stroke:#e5e5e5;stroke-linecap:square;stroke-width:0.8;"/>
     </g>
     <g id="line2d_26">
      <g>
       <use style="stroke:#000000;stroke-width:0.8;" x="68.575" xlink:href="#me6da7e5597" y="341.204092"/>
      </g>
     </g>
     <g id="text_13">
      <!-- 0.02% -->
      <g transform="translate(32.142188 344.84081)scale(0.1 -0.1)">
       <defs>
        <path d="M 482 0 
L 482 409 
L 2018 2091 
Q 2289 2386 2464 2605 
Q 2639 2825 2724 3019 
Q 2809 3214 2809 3427 
Q 2809 3795 2553 4011 
Q 2298 4227 1918 4227 
Q 1514 4227 1275 3985 
Q 1036 3743 1036 3345 
L 500 3345 
Q 500 3755 688 4064 
Q 877 4373 1203 4545 
Q 1530 4718 1936 4718 
Q 2346 4718 2661 4545 
Q 2977 4373 3156 4079 
Q 3336 3786 3336 3427 
Q 3336 3170 3244 2926 
Q 3152 2682 2926 2383 
Q 2700 2084 2300 1655 
L 1255 536 
L 1255 500 
L 3418 500 
L 3418 0 
L 482 0 
z
" id="Inter-Regular-32" transform="scale(0.015625)"/>
       </defs>
       <use xlink:href="#Inter-Regular-30"/>
       <use x="62.500015" xlink:href="#Inter-Regular-2e"/>
       <use x="90.056839" xlink:href="#Inter-Regular-30"/>
       <use x="152.556854" xlink:href="#Inter-Regular-32"/>
       <use x="213.068237" xlink:href="#Inter-Regular-25"/>
      </g>
     </g>
    </g>
    <g id="ytick_4">
     <g id="line2d_27">
      <path clip-path="url(#p019c3d16a6)" d="M 68.575 273.433637 
L 738.175 273.433637 
" style="fill:none;stroke:#e5e5e5;stroke-linecap:square;stroke-width:0.8;"/>
     </g>
     <g id="line2d_28">
      <g>
       <use style="stroke:#000000;stroke-width:0.8;" x="68.575" xlink:href="#me6da7e5597" y="273.433637"/>
      </g>
     </g>
     <g id="text_14">
      <!-- 0.03% -->
      <g transform="translate(31.829688 277.070356)scale(0.1 -0.1)">
       <defs>
        <path d="M 2055 -64 
Q 1605 -64 1253 90 
Q 902 245 696 521 
Q 491 798 473 1164 
L 1046 1164 
Q 1071 827 1356 631 
Q 1641 436 2046 436 
Q 2493 436 2783 664 
Q 3073 893 3073 1264 
Q 3073 1650 2787 1893 
Q 2502 2136 1973 2136 
L 1600 2136 
L 1600 2636 
L 1973 2636 
Q 2386 2636 2647 2856 
Q 2909 3077 2909 3445 
Q 2909 3798 2679 4012 
Q 2450 4227 2064 4227 
Q 1823 4227 1610 4139 
Q 1398 4052 1264 3887 
Q 1130 3723 1118 3491 
L 573 3491 
Q 586 3857 793 4133 
Q 1000 4409 1335 4563 
Q 1671 4718 2073 4718 
Q 2505 4718 2814 4544 
Q 3123 4370 3289 4086 
Q 3455 3802 3455 3473 
Q 3455 3080 3249 2802 
Q 3043 2525 2691 2418 
L 2691 2382 
Q 3132 2309 3379 2008 
Q 3627 1707 3627 1264 
Q 3627 884 3421 583 
Q 3216 282 2861 109 
Q 2507 -64 2055 -64 
z
" id="Inter-Regular-33" transform="scale(0.015625)"/>
       </defs>
       <use xlink:href="#Inter-Regular-30"/>
       <use x="62.500015" xlink:href="#Inter-Regular-2e"/>
       <use x="90.056839" xlink:href="#Inter-Regular-30"/>
       <use x="152.556854" xlink:href="#Inter-Regular-33"/>
       <use x="216.193237" xlink:href="#Inter-Regular-25"/>
      </g>
     </g>
    </g>
    <g id="ytick_5">
     <g id="line2d_29">
      <path clip-path="url(#p019c3d16a6)" d="M 68.575 205.663183 
L 738.175 205.663183 
" style="fill:none;stroke:#e5e5e5;stroke-linecap:square;stroke-width:0.8;"/>
     </g>
     <g id="line2d_30">
      <g>
       <use style="stroke:#000000;stroke-width:0.8;" x="68.575" xlink:href="#me6da7e5597" y="205.663183"/>
      </g>
     </g>
     <g id="text_15">
      <!-- 0.04% -->
      <g transform="translate(31.773438 209.299902)scale(0.1 -0.1)">
       <defs>
        <path d="M 373 955 
L 373 1418 
L 2418 4655 
L 3100 4655 
L 3100 1455 
L 3736 1455 
L 3736 955 
L 3100 955 
L 3100 0 
L 2564 0 
L 2564 955 
L 373 955 
z
M 2564 1455 
L 2564 3936 
L 2527 3936 
L 982 1491 
L 982 1455 
L 2564 1455 
z
" id="Inter-Regular-34" transform="scale(0.015625)"/>
       </defs>
       <use xlink:href="#Inter-Regular-30"/>
       <use x="62.500015" xlink:href="#Inter-Regular-2e"/>
       <use x="90.056839" xlink:href="#Inter-Regular-30"/>
       <use x="152.556854" xlink:href="#Inter-Regular-34"/>
       <use x="216.761414" xlink:href="#Inter-Regular-25"/>
      </g>
     </g>
    </g>
    <g id="ytick_6">
     <g id="line2d_31">
      <path clip-path="url(#p019c3d16a6)" d="M 68.575 137.892729 
L 738.175 137.892729 
" style="fill:none;stroke:#e5e5e5;stroke-linecap:square;stroke-width:0.8;"/>
     </g>
     <g id="line2d_32">
      <g>
       <use style="stroke:#000000;stroke-width:0.8;" x="68.575" xlink:href="#me6da7e5597" y="137.892729"/>
      </g>
     </g>
     <g id="text_16">
      <!-- 0.05% -->
      <g transform="translate(32.114063 141.529448)scale(0.1 -0.1)">
       <defs>
        <path d="M 1936 -64 
Q 1536 -64 1216 95 
Q 896 255 702 532 
Q 509 809 491 1164 
L 1036 1164 
Q 1068 848 1324 642 
Q 1580 436 1936 436 
Q 2223 436 2447 570 
Q 2671 705 2799 940 
Q 2927 1175 2927 1473 
Q 2927 1777 2794 2017 
Q 2661 2257 2429 2395 
Q 2198 2534 1900 2536 
Q 1686 2539 1461 2472 
Q 1236 2405 1091 2300 
L 564 2364 
L 846 4655 
L 3264 4655 
L 3264 4155 
L 1318 4155 
L 1155 2782 
L 1182 2782 
Q 1325 2895 1541 2970 
Q 1757 3045 1991 3045 
Q 2418 3045 2753 2842 
Q 3089 2639 3281 2286 
Q 3473 1934 3473 1482 
Q 3473 1036 3274 687 
Q 3075 339 2727 137 
Q 2380 -64 1936 -64 
z
" id="Inter-Regular-35" transform="scale(0.015625)"/>
       </defs>
       <use xlink:href="#Inter-Regular-30"/>
       <use x="62.500015" xlink:href="#Inter-Regular-2e"/>
       <use x="90.056839" xlink:href="#Inter-Regular-30"/>
       <use x="152.556854" xlink:href="#Inter-Regular-35"/>
       <use x="213.352325" xlink:href="#Inter-Regular-25"/>
      </g>
     </g>
    </g>
    <g id="ytick_7">
     <g id="line2d_33">
      <path clip-path="url(#p019c3d16a6)" d="M 68.575 70.122275 
L 738.175 70.122275 
" style="fill:none;stroke:#e5e5e5;stroke-linecap:square;stroke-width:0.8;"/>
     </g>
     <g id="line2d_34">
      <g>
       <use style="stroke:#000000;stroke-width:0.8;" x="68.575" xlink:href="#me6da7e5597" y="70.122275"/>
      </g>
     </g>
     <g id="text_17">
      <!-- 0.06% -->
      <g transform="translate(31.957813 73.758993)scale(0.1 -0.1)">
       <defs>
        <path d="M 2027 -64 
Q 1741 -59 1454 45 
Q 1168 150 932 399 
Q 696 648 552 1074 
Q 409 1500 409 2145 
Q 409 3386 861 4056 
Q 1314 4727 2100 4727 
Q 2686 4727 3073 4384 
Q 3461 4041 3546 3491 
L 2991 3491 
Q 2914 3811 2691 4019 
Q 2468 4227 2100 4227 
Q 1559 4227 1249 3755 
Q 939 3284 936 2427 
L 973 2427 
Q 1164 2716 1461 2880 
Q 1759 3045 2118 3045 
Q 2518 3045 2850 2846 
Q 3182 2648 3382 2299 
Q 3582 1950 3582 1500 
Q 3582 1068 3389 710 
Q 3196 352 2847 142 
Q 2498 -68 2027 -64 
z
M 2027 436 
Q 2314 436 2542 579 
Q 2771 723 2903 964 
Q 3036 1205 3036 1500 
Q 3036 1789 2908 2026 
Q 2780 2264 2556 2404 
Q 2332 2545 2046 2545 
Q 1757 2545 1525 2397 
Q 1293 2250 1157 2010 
Q 1021 1770 1018 1491 
Q 1018 1214 1149 973 
Q 1280 732 1508 584 
Q 1736 436 2027 436 
z
" id="Inter-Regular-36" transform="scale(0.015625)"/>
       </defs>
       <use xlink:href="#Inter-Regular-30"/>
       <use x="62.500015" xlink:href="#Inter-Regular-2e"/>
       <use x="90.056839" xlink:href="#Inter-Regular-30"/>
       <use x="152.556854" xlink:href="#Inter-Regular-36"/>
       <use x="214.914825" xlink:href="#Inter-Regular-25"/>
      </g>
     </g>
    </g>
    <g id="text_18">
     <!-- Percent of nation Patients in hospital with COVID-19 (seven day average) -->
     <g transform="translate(25.614063 428.013125)rotate(-90)scale(0.1 -0.1)">
      <defs>
       <path d="M 564 0 
L 564 4655 
L 2136 4655 
Q 2684 4655 3033 4458 
Q 3382 4261 3550 3927 
Q 3718 3593 3718 3182 
Q 3718 2770 3551 2434 
Q 3384 2098 3036 1899 
Q 2689 1700 2146 1700 
L 1127 1700 
L 1127 0 
L 564 0 
z
M 1127 2200 
L 2127 2200 
Q 2689 2200 2926 2482 
Q 3164 2764 3164 3182 
Q 3164 3602 2925 3878 
Q 2686 4155 2118 4155 
L 1127 4155 
L 1127 2200 
z
" id="Inter-Regular-50" transform="scale(0.015625)"/>
       <path d="M 1909 -73 
Q 1418 -73 1063 159 
Q 709 391 518 798 
Q 327 1205 327 1727 
Q 327 2259 524 2667 
Q 721 3075 1074 3305 
Q 1427 3536 1900 3536 
Q 2268 3536 2563 3400 
Q 2859 3264 3047 3018 
Q 3236 2773 3282 2445 
L 2746 2445 
Q 2684 2684 2474 2869 
Q 2264 3055 1909 3055 
Q 1439 3055 1151 2697 
Q 864 2339 864 1745 
Q 864 1139 1148 774 
Q 1432 409 1909 409 
Q 2223 409 2447 570 
Q 2671 732 2746 1018 
L 3282 1018 
Q 3236 709 3058 462 
Q 2880 216 2588 71 
Q 2296 -73 1909 -73 
z
" id="Inter-Regular-63" transform="scale(0.015625)"/>
       <path d="M 2009 3491 
L 2009 3036 
L 1264 3036 
L 1264 1000 
Q 1264 773 1331 660 
Q 1398 548 1503 510 
Q 1609 473 1727 473 
Q 1816 473 1873 483 
Q 1930 493 1964 500 
L 2073 18 
Q 2018 -2 1920 -23 
Q 1823 -45 1673 -45 
Q 1446 -45 1228 52 
Q 1011 150 869 350 
Q 727 550 727 855 
L 727 3036 
L 200 3036 
L 200 3491 
L 727 3491 
L 727 4327 
L 1264 4327 
L 1264 3491 
L 2009 3491 
z
" id="Inter-Regular-74" transform="scale(0.015625)"/>
       <path d="M 2046 3491 
L 2046 3036 
L 1264 3036 
L 1264 0 
L 727 0 
L 727 3036 
L 164 3036 
L 164 3491 
L 727 3491 
L 727 3973 
Q 727 4273 868 4473 
Q 1009 4673 1234 4773 
Q 1459 4873 1709 4873 
Q 1907 4873 2032 4841 
Q 2157 4809 2218 4782 
L 2064 4318 
Q 2023 4332 1951 4352 
Q 1880 4373 1764 4373 
Q 1498 4373 1381 4239 
Q 1264 4105 1264 3845 
L 1264 3491 
L 2046 3491 
z
" id="Inter-Regular-66" transform="scale(0.015625)"/>
       <path d="M 491 0 
L 491 3491 
L 1027 3491 
L 1027 0 
L 491 0 
z
M 764 4073 
Q 607 4073 494 4179 
Q 382 4286 382 4436 
Q 382 4586 494 4693 
Q 607 4800 764 4800 
Q 921 4800 1033 4693 
Q 1146 4586 1146 4436 
Q 1146 4286 1033 4179 
Q 921 4073 764 4073 
z
" id="Inter-Regular-69" transform="scale(0.015625)"/>
       <path d="M 2964 2709 
L 2482 2573 
Q 2411 2755 2245 2914 
Q 2080 3073 1727 3073 
Q 1407 3073 1194 2926 
Q 982 2780 982 2555 
Q 982 2355 1127 2239 
Q 1273 2123 1582 2045 
L 2100 1918 
Q 3027 1691 3027 973 
Q 3027 673 2855 436 
Q 2684 200 2377 63 
Q 2071 -73 1664 -73 
Q 1130 -73 780 159 
Q 430 391 336 836 
L 846 964 
Q 989 400 1655 400 
Q 2030 400 2251 560 
Q 2473 720 2473 945 
Q 2473 1316 1955 1436 
L 1373 1573 
Q 893 1686 669 1926 
Q 446 2166 446 2527 
Q 446 2823 613 3050 
Q 780 3277 1069 3406 
Q 1359 3536 1727 3536 
Q 2246 3536 2542 3309 
Q 2839 3082 2964 2709 
z
" id="Inter-Regular-73" transform="scale(0.015625)"/>
       <path d="M 1027 2100 
L 1027 0 
L 491 0 
L 491 4655 
L 1027 4655 
L 1027 2945 
L 1073 2945 
Q 1196 3216 1442 3376 
Q 1689 3536 2100 3536 
Q 2636 3536 2963 3213 
Q 3291 2891 3291 2218 
L 3291 0 
L 2755 0 
L 2755 2182 
Q 2755 2598 2540 2826 
Q 2325 3055 1946 3055 
Q 1548 3055 1287 2806 
Q 1027 2557 1027 2100 
z
" id="Inter-Regular-68" transform="scale(0.015625)"/>
       <path d="M 1282 0 
L 218 3491 
L 782 3491 
L 1536 818 
L 1573 818 
L 2318 3491 
L 2891 3491 
L 3627 827 
L 3664 827 
L 4418 3491 
L 4982 3491 
L 3918 0 
L 3391 0 
L 2627 2682 
L 2573 2682 
L 1809 0 
L 1282 0 
z
" id="Inter-Regular-77" transform="scale(0.015625)"/>
       <path d="M 4309 3200 
L 3746 3200 
Q 3677 3523 3484 3743 
Q 3291 3964 3018 4077 
Q 2746 4191 2436 4191 
Q 2014 4191 1672 3977 
Q 1330 3764 1128 3348 
Q 927 2932 927 2327 
Q 927 1723 1128 1307 
Q 1330 891 1672 677 
Q 2014 464 2436 464 
Q 2746 464 3018 577 
Q 3291 691 3484 911 
Q 3677 1132 3746 1455 
L 4309 1455 
Q 4223 977 3957 637 
Q 3691 298 3298 117 
Q 2905 -64 2436 -64 
Q 1841 -64 1377 227 
Q 914 518 648 1054 
Q 382 1591 382 2327 
Q 382 3064 648 3600 
Q 914 4136 1377 4427 
Q 1841 4718 2436 4718 
Q 2905 4718 3298 4537 
Q 3691 4357 3957 4017 
Q 4223 3677 4309 3200 
z
" id="Inter-Regular-43" transform="scale(0.015625)"/>
       <path d="M 4491 2327 
Q 4491 1591 4225 1054 
Q 3959 518 3495 227 
Q 3032 -64 2436 -64 
Q 1841 -64 1377 227 
Q 914 518 648 1054 
Q 382 1591 382 2327 
Q 382 3064 648 3600 
Q 914 4136 1377 4427 
Q 1841 4718 2436 4718 
Q 3032 4718 3495 4427 
Q 3959 4136 4225 3600 
Q 4491 3064 4491 2327 
z
M 3946 2327 
Q 3946 2932 3744 3348 
Q 3543 3764 3201 3977 
Q 2859 4191 2436 4191 
Q 2014 4191 1672 3977 
Q 1330 3764 1128 3348 
Q 927 2932 927 2327 
Q 927 1723 1128 1307 
Q 1330 891 1672 677 
Q 2014 464 2436 464 
Q 2859 464 3201 677 
Q 3543 891 3744 1307 
Q 3946 1723 3946 2327 
z
" id="Inter-Regular-4f" transform="scale(0.015625)"/>
       <path d="M 755 4655 
L 2136 736 
L 2191 736 
L 3573 4655 
L 4164 4655 
L 2455 0 
L 1873 0 
L 164 4655 
L 755 4655 
z
" id="Inter-Regular-56" transform="scale(0.015625)"/>
       <path d="M 1127 4655 
L 1127 0 
L 564 0 
L 564 4655 
L 1127 4655 
z
" id="Inter-Regular-49" transform="scale(0.015625)"/>
       <path d="M 2000 0 
L 564 0 
L 564 4655 
L 2064 4655 
Q 2741 4655 3223 4376 
Q 3705 4098 3961 3578 
Q 4218 3059 4218 2336 
Q 4218 1609 3959 1085 
Q 3700 561 3204 280 
Q 2709 0 2000 0 
z
M 1127 500 
L 1964 500 
Q 2830 500 3251 992 
Q 3673 1484 3673 2336 
Q 3673 3182 3259 3668 
Q 2846 4155 2027 4155 
L 1127 4155 
L 1127 500 
z
" id="Inter-Regular-44" transform="scale(0.015625)"/>
       <path d="M 2491 2245 
L 2491 1745 
L 455 1745 
L 455 2245 
L 2491 2245 
z
" id="Inter-Regular-2d" transform="scale(0.015625)"/>
       <path d="M 1964 4727 
Q 2250 4725 2536 4618 
Q 2823 4511 3059 4263 
Q 3296 4016 3439 3590 
Q 3582 3164 3582 2518 
Q 3582 1277 3128 606 
Q 2675 -64 1891 -64 
Q 1305 -64 916 278 
Q 527 620 446 1173 
L 1000 1173 
Q 1075 852 1299 644 
Q 1523 436 1891 436 
Q 2430 436 2742 906 
Q 3055 1377 3055 2236 
L 3018 2236 
Q 2827 1950 2530 1784 
Q 2234 1618 1873 1618 
Q 1473 1618 1140 1817 
Q 807 2016 608 2365 
Q 409 2714 409 3164 
Q 409 3595 601 3952 
Q 793 4309 1142 4520 
Q 1491 4732 1964 4727 
z
M 1964 4227 
Q 1677 4227 1449 4084 
Q 1221 3941 1088 3700 
Q 955 3459 955 3164 
Q 955 2873 1083 2635 
Q 1211 2398 1435 2258 
Q 1659 2118 1946 2118 
Q 2232 2118 2465 2266 
Q 2698 2414 2835 2654 
Q 2973 2895 2973 3173 
Q 2973 3450 2842 3691 
Q 2711 3932 2483 4079 
Q 2255 4227 1964 4227 
z
" id="Inter-Regular-39" transform="scale(0.015625)"/>
       <path d="M 682 1964 
Q 682 2823 906 3544 
Q 1130 4266 1546 4873 
L 2018 4873 
Q 1800 4573 1623 4095 
Q 1446 3618 1341 3061 
Q 1236 2505 1236 1964 
Q 1236 1423 1341 866 
Q 1446 309 1623 -168 
Q 1800 -645 2018 -945 
L 1546 -945 
Q 1130 -339 906 383 
Q 682 1105 682 1964 
z
" id="Inter-Regular-28" transform="scale(0.015625)"/>
       <path d="M 1809 -73 
Q 1373 -73 1039 148 
Q 705 370 516 776 
Q 327 1182 327 1736 
Q 327 2286 516 2690 
Q 705 3095 1041 3315 
Q 1377 3536 1818 3536 
Q 2159 3536 2358 3423 
Q 2557 3311 2662 3169 
Q 2768 3027 2827 2936 
L 2873 2936 
L 2873 4655 
L 3409 4655 
L 3409 0 
L 2891 0 
L 2891 536 
L 2827 536 
Q 2768 441 2659 296 
Q 2550 152 2348 39 
Q 2146 -73 1809 -73 
z
M 1882 409 
Q 2366 409 2624 780 
Q 2882 1152 2882 1745 
Q 2882 2332 2627 2693 
Q 2373 3055 1882 3055 
Q 1541 3055 1315 2881 
Q 1089 2707 976 2410 
Q 864 2114 864 1745 
Q 864 1373 978 1069 
Q 1093 766 1319 587 
Q 1546 409 1882 409 
z
" id="Inter-Regular-64" transform="scale(0.015625)"/>
       <path d="M 1900 -1382 
Q 1316 -1382 976 -1169 
Q 636 -957 473 -682 
L 900 -382 
Q 973 -477 1084 -601 
Q 1196 -725 1390 -817 
Q 1584 -909 1900 -909 
Q 2323 -909 2598 -704 
Q 2873 -500 2873 -64 
L 2873 645 
L 2827 645 
Q 2768 550 2660 410 
Q 2552 270 2351 162 
Q 2150 55 1809 55 
Q 1386 55 1051 255 
Q 716 455 521 836 
Q 327 1218 327 1764 
Q 327 2300 516 2699 
Q 705 3098 1041 3317 
Q 1377 3536 1818 3536 
Q 2159 3536 2360 3423 
Q 2561 3311 2669 3169 
Q 2777 3027 2836 2936 
L 2891 2936 
L 2891 3491 
L 3409 3491 
L 3409 -100 
Q 3409 -550 3205 -833 
Q 3002 -1116 2660 -1249 
Q 2318 -1382 1900 -1382 
z
M 1882 536 
Q 2366 536 2624 864 
Q 2882 1193 2882 1773 
Q 2882 2339 2627 2697 
Q 2373 3055 1882 3055 
Q 1541 3055 1315 2882 
Q 1089 2709 976 2418 
Q 864 2127 864 1773 
Q 864 1227 1120 881 
Q 1377 536 1882 536 
z
" id="Inter-Regular-67" transform="scale(0.015625)"/>
       <path d="M 1638 1940 
Q 1638 1081 1414 359 
Q 1191 -362 775 -969 
L 302 -969 
Q 520 -669 697 -191 
Q 875 286 979 842 
Q 1084 1399 1084 1940 
Q 1084 2481 979 3038 
Q 875 3595 697 4072 
Q 520 4549 302 4849 
L 775 4849 
Q 1191 4243 1414 3521 
Q 1638 2799 1638 1940 
z
" id="Inter-Regular-29" transform="scale(0.015625)"/>
      </defs>
      <use xlink:href="#Inter-Regular-50"/>
      <use x="63.494324" xlink:href="#Inter-Regular-65"/>
      <use x="121.732971" xlink:href="#Inter-Regular-72"/>
      <use x="160.085251" xlink:href="#Inter-Regular-63"/>
      <use x="215.909119" xlink:href="#Inter-Regular-65"/>
      <use x="274.147766" xlink:href="#Inter-Regular-6e"/>
      <use x="332.670502" xlink:href="#Inter-Regular-74"/>
      <use x="369.034149" xlink:href="#Inter-Regular-20"/>
      <use x="397.159149" xlink:href="#Inter-Regular-6f"/>
      <use x="456.818253" xlink:href="#Inter-Regular-66"/>
      <use x="492.897797" xlink:href="#Inter-Regular-20"/>
      <use x="521.022797" xlink:href="#Inter-Regular-6e"/>
      <use x="579.545532" xlink:href="#Inter-Regular-61"/>
      <use x="635.937592" xlink:href="#Inter-Regular-74"/>
      <use x="672.301239" xlink:href="#Inter-Regular-69"/>
      <use x="696.022827" xlink:href="#Inter-Regular-6f"/>
      <use x="755.681931" xlink:href="#Inter-Regular-6e"/>
      <use x="814.204666" xlink:href="#Inter-Regular-20"/>
      <use x="842.329666" xlink:href="#Inter-Regular-50"/>
      <use x="905.82399" xlink:href="#Inter-Regular-61"/>
      <use x="962.216049" xlink:href="#Inter-Regular-74"/>
      <use x="998.579697" xlink:href="#Inter-Regular-69"/>
      <use x="1022.301285" xlink:href="#Inter-Regular-65"/>
      <use x="1080.539932" xlink:href="#Inter-Regular-6e"/>
      <use x="1139.062668" xlink:href="#Inter-Regular-74"/>
      <use x="1175.426315" xlink:href="#Inter-Regular-73"/>
      <use x="1227.699051" xlink:href="#Inter-Regular-20"/>
      <use x="1255.824051" xlink:href="#Inter-Regular-69"/>
      <use x="1279.545639" xlink:href="#Inter-Regular-6e"/>
      <use x="1338.068375" xlink:href="#Inter-Regular-20"/>
      <use x="1366.193375" xlink:href="#Inter-Regular-68"/>
      <use x="1425.284302" xlink:href="#Inter-Regular-6f"/>
      <use x="1484.943405" xlink:href="#Inter-Regular-73"/>
      <use x="1537.216141" xlink:href="#Inter-Regular-70"/>
      <use x="1598.153656" xlink:href="#Inter-Regular-69"/>
      <use x="1621.875244" xlink:href="#Inter-Regular-74"/>
      <use x="1658.238892" xlink:href="#Inter-Regular-61"/>
      <use x="1714.630951" xlink:href="#Inter-Regular-6c"/>
      <use x="1738.352539" xlink:href="#Inter-Regular-20"/>
      <use x="1766.477539" xlink:href="#Inter-Regular-77"/>
      <use x="1847.727554" xlink:href="#Inter-Regular-69"/>
      <use x="1871.449142" xlink:href="#Inter-Regular-74"/>
      <use x="1907.81279" xlink:href="#Inter-Regular-68"/>
      <use x="1966.903717" xlink:href="#Inter-Regular-20"/>
      <use x="1995.028717" xlink:href="#Inter-Regular-43"/>
      <use x="2067.756012" xlink:href="#Inter-Regular-4f"/>
      <use x="2143.892395" xlink:href="#Inter-Regular-56"/>
      <use x="2211.506042" xlink:href="#Inter-Regular-49"/>
      <use x="2237.926498" xlink:href="#Inter-Regular-44"/>
      <use x="2309.801514" xlink:href="#Inter-Regular-2d"/>
      <use x="2355.824249" xlink:href="#Inter-Regular-31"/>
      <use x="2400.000397" xlink:href="#Inter-Regular-39"/>
      <use x="2462.358368" xlink:href="#Inter-Regular-20"/>
      <use x="2490.483368" xlink:href="#Inter-Regular-28"/>
      <use x="2526.704956" xlink:href="#Inter-Regular-73"/>
      <use x="2578.977692" xlink:href="#Inter-Regular-65"/>
      <use x="2637.216339" xlink:href="#Inter-Regular-76"/>
      <use x="2692.898163" xlink:href="#Inter-Regular-65"/>
      <use x="2751.13681" xlink:href="#Inter-Regular-6e"/>
      <use x="2809.659546" xlink:href="#Inter-Regular-20"/>
      <use x="2837.784546" xlink:href="#Inter-Regular-64"/>
      <use x="2899.858429" xlink:href="#Inter-Regular-61"/>
      <use x="2956.250488" xlink:href="#Inter-Regular-79"/>
      <use x="3011.932312" xlink:href="#Inter-Regular-20"/>
      <use x="3040.057312" xlink:href="#Inter-Regular-61"/>
      <use x="3096.449371" xlink:href="#Inter-Regular-76"/>
      <use x="3152.131195" xlink:href="#Inter-Regular-65"/>
      <use x="3210.369843" xlink:href="#Inter-Regular-72"/>
      <use x="3248.722122" xlink:href="#Inter-Regular-61"/>
      <use x="3305.114182" xlink:href="#Inter-Regular-67"/>
      <use x="3366.051697" xlink:href="#Inter-Regular-65"/>
      <use x="3424.290344" xlink:href="#Inter-Regular-29"/>
     </g>
    </g>
   </g>
   <g id="line2d_35">
    <path clip-path="url(#p019c3d16a6)" d="M 89.648408 457.721532 
L 91.866662 451.051279 
L 95.194042 441.45727 
L 96.303169 437.509528 
L 98.521422 420.311006 
L 99.630549 410.413987 
L 100.739676 398.943146 
L 104.067056 360.892771 
L 105.176183 348.555037 
L 107.394436 320.289879 
L 109.61269 296.274902 
L 111.830943 274.979282 
L 112.94007 266.32068 
L 114.049197 260.928405 
L 115.158324 256.943108 
L 116.26745 254.419833 
L 117.376577 253.150455 
L 118.485704 253.52542 
L 119.594831 254.626236 
L 126.249591 274.679998 
L 127.358718 278.775376 
L 128.467845 282.363346 
L 132.904352 300.858766 
L 134.013479 305.664514 
L 135.122605 309.930174 
L 142.886493 334.356237 
L 145.104746 342.116986 
L 146.213873 345.94576 
L 148.432126 352.609134 
L 150.65038 357.975609 
L 151.759507 359.988038 
L 152.868633 362.624835 
L 153.97776 364.829906 
L 155.086887 367.308461 
L 156.196014 369.498052 
L 158.414267 374.33992 
L 160.632521 378.696741 
L 165.069028 387.13862 
L 167.287281 392.102609 
L 172.832915 404.393902 
L 175.051168 408.121195 
L 176.160295 409.786178 
L 180.596802 417.615728 
L 181.705929 419.712438 
L 183.924183 423.291808 
L 187.251563 427.571228 
L 188.36069 428.639363 
L 190.578943 430.460869 
L 197.233704 436.556635 
L 198.34283 437.788172 
L 200.561084 439.78168 
L 201.670211 440.45765 
L 202.779337 441.529225 
L 204.997591 443.885658 
L 206.106718 444.857471 
L 208.324971 447.239705 
L 209.434098 448.830727 
L 212.761478 452.072973 
L 214.979732 453.896199 
L 219.416239 457.128124 
L 221.634492 458.595305 
L 226.070999 460.798656 
L 227.180126 461.11514 
L 228.289253 461.550306 
L 234.944013 464.926714 
L 237.162267 465.520122 
L 241.598774 466.304453 
L 244.926154 467.032023 
L 247.144408 467.831835 
L 252.690041 468.862129 
L 256.017422 469.008331 
L 262.672182 469.883823 
L 265.999562 470.37747 
L 272.654323 470.907238 
L 275.981703 470.998399 
L 278.199957 471.003559 
L 281.527337 470.650954 
L 283.74559 470.217508 
L 285.963844 469.529499 
L 287.072971 469.087452 
L 290.400351 467.126625 
L 292.618604 465.723085 
L 297.055112 462.339797 
L 298.164238 461.373144 
L 300.382492 459.181833 
L 304.818999 454.971214 
L 308.146379 452.188215 
L 309.255506 451.083959 
L 310.364633 449.793941 
L 312.582886 446.390013 
L 319.237647 434.79705 
L 320.346773 432.65218 
L 321.4559 430.261346 
L 324.78328 421.877948 
L 327.001534 415.369377 
L 331.438041 401.834506 
L 334.765421 389.544934 
L 336.983675 379.945479 
L 339.201928 371.243876 
L 340.311055 367.784907 
L 342.529308 359.327549 
L 345.856689 349.48901 
L 346.965815 346.509928 
L 349.184069 339.769153 
L 350.293196 337.942488 
L 351.402323 335.030487 
L 354.729703 324.701741 
L 358.057083 313.284221 
L 359.16621 310.256978 
L 360.275337 307.656302 
L 361.384463 306.09452 
L 362.49359 304.857822 
L 364.711844 303.366561 
L 365.82097 303.203159 
L 366.930097 303.633165 
L 368.039224 304.615299 
L 369.148351 305.444351 
L 373.584858 311.805 
L 375.803111 315.313849 
L 376.912238 316.633108 
L 378.021365 317.045914 
L 379.130491 317.616962 
L 380.239618 317.857765 
L 381.348745 317.647922 
L 382.457872 317.209316 
L 385.785252 312.439689 
L 386.894379 310.253538 
L 389.112632 305.37039 
L 393.549139 291.328112 
L 394.658266 287.5905 
L 395.767393 283.022115 
L 396.876519 277.807002 
L 399.094773 269.456284 
L 400.2039 266.30004 
L 401.313026 262.572748 
L 403.53128 253.351698 
L 404.640407 246.946328 
L 409.076914 213.543458 
L 412.404294 185.059857 
L 414.622548 166.944563 
L 415.731674 155.227758 
L 419.059055 125.729343 
L 420.168181 115.865004 
L 422.386435 99.282251 
L 423.495562 92.374634 
L 424.604688 86.42163 
L 425.713815 81.959887 
L 426.822942 78.062312 
L 427.932069 74.943909 
L 429.041195 72.88504 
L 430.150322 72.351832 
L 431.259449 72.265831 
L 432.368576 72.797318 
L 433.477702 73.562729 
L 434.586829 75.967323 
L 435.695956 78.853524 
L 437.914209 89.073907 
L 440.132463 102.999223 
L 443.459843 127.310045 
L 444.56897 135.001993 
L 447.89635 161.636568 
L 450.114604 179.937625 
L 458.987618 252.76001 
L 461.205871 267.927183 
L 462.314998 274.7918 
L 464.533252 286.871529 
L 467.860632 305.148506 
L 471.188012 321.74158 
L 475.624519 345.22679 
L 477.842773 356.482628 
L 480.061026 366.665172 
L 482.27928 376.276667 
L 484.497533 384.918068 
L 485.60666 388.707282 
L 487.824913 395.109212 
L 490.043167 401.40106 
L 495.588801 414.751888 
L 498.916181 422.123912 
L 500.025308 424.394344 
L 501.134434 426.336251 
L 502.243561 427.906633 
L 505.570941 433.154427 
L 510.007448 439.489276 
L 513.334829 443.35417 
L 515.553082 445.321878 
L 517.771336 446.955901 
L 521.098716 449.843822 
L 524.426096 452.403218 
L 526.64435 453.882438 
L 533.29911 457.681972 
L 543.281251 462.584041 
L 545.499505 463.380412 
L 546.608631 463.825898 
L 548.826885 464.360826 
L 561.027279 467.150705 
L 564.354659 467.542871 
L 566.572913 467.621992 
L 569.900293 467.627152 
L 574.3368 467.678752 
L 576.555054 467.563511 
L 580.991561 467.245306 
L 586.537195 466.435175 
L 590.973702 465.477122 
L 593.191955 464.794272 
L 595.410209 463.910179 
L 596.519335 463.530054 
L 598.737589 462.55308 
L 600.955842 461.951072 
L 603.174096 461.526226 
L 606.501476 460.697174 
L 608.71973 459.783841 
L 610.937983 458.602185 
L 613.156237 457.164245 
L 614.265363 456.213071 
L 616.483617 453.98908 
L 618.70187 451.350563 
L 620.920124 448.374921 
L 625.356631 441.520625 
L 629.793138 434.754049 
L 632.011392 431.413762 
L 634.229645 427.856752 
L 636.447899 423.692574 
L 637.557025 421.509863 
L 638.666152 419.585156 
L 639.775279 418.164416 
L 640.884406 416.943199 
L 641.993532 415.943865 
L 643.102659 415.316056 
L 644.211786 414.87917 
L 645.320913 414.960011 
L 646.430039 415.369377 
L 647.539166 415.648021 
L 649.75742 416.459872 
L 651.975673 417.082521 
L 653.0848 417.116921 
L 655.303053 416.662835 
L 658.630434 415.752942 
L 660.848687 414.597086 
L 661.957814 413.838555 
L 665.285194 411.040076 
L 667.503448 408.967447 
L 669.721701 407.450385 
L 671.939955 406.32893 
L 673.049081 406.017605 
L 674.158208 405.835283 
L 675.267335 405.831843 
L 677.485588 404.634706 
L 681.922095 402.574117 
L 683.031222 401.932548 
L 684.140349 402.016829 
L 686.358602 401.786346 
L 688.576856 401.153377 
L 691.904236 400.749171 
L 693.013363 400.742291 
L 694.12249 401.039855 
L 696.340743 402.77364 
L 697.44987 403.733413 
L 698.558997 404.93227 
L 700.77725 407.858031 
L 702.995504 410.852593 
L 704.104631 411.863967 
L 705.213757 413.147105 
L 706.322884 414.18944 
L 708.541138 415.57578 
L 710.759391 416.495993 
L 711.868518 417.266563 
L 715.195898 418.131736 
L 717.414152 418.066375 
L 718.523278 417.76365 
L 725.178039 414.949691 
L 726.287166 414.282321 
L 727.396292 413.48423 
L 728.505419 412.545097 
L 729.614546 411.286039 
L 730.723673 409.762098 
L 735.16018 402.584437 
L 737.378433 399.565794 
L 737.378433 399.565794 
" style="fill:none;stroke:#5694ca;stroke-linecap:square;stroke-width:2;"/>
   </g>
   <g id="line2d_36">
    <path clip-path="url(#p019c3d16a6)" d="M 68.575 472.808326 
L 69.684127 472.629386 
L 73.011507 472.450446 
L 77.448014 471.530185 
L 78.557141 471.070054 
L 81.884521 468.973903 
L 84.102775 467.440134 
L 87.430155 464.781601 
L 88.539282 463.96359 
L 89.648408 462.583198 
L 90.757535 460.589298 
L 91.866662 458.237519 
L 94.084915 452.664824 
L 95.194042 448.932653 
L 97.412296 438.809776 
L 99.630549 426.130618 
L 100.739676 418.973028 
L 106.28531 379.248407 
L 108.503563 366.876003 
L 109.61269 361.661188 
L 110.721817 357.724513 
L 111.830943 355.577237 
L 112.94007 355.014855 
L 115.158324 356.344121 
L 116.26745 358.286895 
L 117.376577 361.252182 
L 118.485704 365.291108 
L 119.594831 368.563149 
L 120.703957 369.943541 
L 121.813084 371.528436 
L 122.922211 372.448697 
L 124.031338 372.6532 
L 125.140465 371.83519 
L 126.249591 370.199169 
L 127.358718 369.278908 
L 128.467845 369.02328 
L 129.576972 368.460897 
L 130.686098 368.921028 
L 131.795225 369.84129 
L 132.904352 371.630687 
L 134.013479 373.675713 
L 136.231732 376.334246 
L 137.340859 377.868015 
L 139.559112 380.475423 
L 141.777366 383.798589 
L 142.886493 386.048117 
L 143.995619 388.553273 
L 145.104746 390.393796 
L 146.213873 391.569686 
L 147.323 392.183194 
L 148.432126 392.132068 
L 149.541253 391.825314 
L 150.65038 392.080943 
L 151.759507 392.592199 
L 152.868633 393.921465 
L 153.97776 395.608612 
L 156.196014 400.363296 
L 157.30514 403.635337 
L 158.414267 406.396121 
L 162.850774 415.598736 
L 163.959901 417.592636 
L 165.069028 419.228657 
L 168.396408 423.369833 
L 169.505535 424.494597 
L 170.614661 426.130618 
L 172.832915 430.220669 
L 177.269422 439.93454 
L 179.487675 443.717837 
L 180.596802 445.09823 
L 185.033309 449.495035 
L 187.251563 451.89794 
L 189.469816 454.607598 
L 190.578943 455.885739 
L 191.68807 456.959378 
L 193.906323 458.493147 
L 196.124577 459.055529 
L 198.34283 459.464534 
L 200.561084 460.538173 
L 201.670211 461.356183 
L 202.779337 462.32757 
L 204.997591 463.96359 
L 206.106718 464.577098 
L 207.215844 464.934977 
L 208.324971 465.446234 
L 209.434098 465.752988 
L 211.652351 465.95749 
L 216.088858 466.213118 
L 217.197985 466.417621 
L 219.416239 467.082254 
L 222.743619 467.798013 
L 224.961872 467.798013 
L 227.180126 467.798013 
L 228.289253 467.849139 
L 230.507506 467.746888 
L 233.834886 467.95139 
L 236.05314 467.849139 
L 238.271394 467.746888 
L 240.489647 467.644636 
L 244.926154 467.746888 
L 247.144408 467.542385 
L 249.362661 467.13338 
L 252.690041 466.417621 
L 254.908295 466.161993 
L 256.017422 465.701862 
L 257.126548 465.088354 
L 258.235675 464.168093 
L 263.781309 458.902152 
L 264.890436 458.288644 
L 270.436069 457.930765 
L 272.654323 457.52176 
L 273.76345 457.266132 
L 274.872576 457.16388 
L 278.199957 457.470634 
L 279.309083 457.777388 
L 280.41821 457.828514 
L 282.636464 457.317257 
L 283.74559 456.806001 
L 284.854717 456.090242 
L 285.963844 455.221106 
L 287.072971 454.147468 
L 289.291224 452.460322 
L 291.509478 451.233306 
L 293.727731 450.415296 
L 294.836858 449.750663 
L 295.945985 448.830401 
L 297.055112 447.55226 
L 299.273365 444.638099 
L 301.491619 440.803676 
L 304.818999 433.543835 
L 309.255506 422.040567 
L 310.364633 418.768526 
L 312.582886 410.435047 
L 314.80114 401.027929 
L 318.12852 385.332358 
L 321.4559 369.790164 
L 323.674154 355.935116 
L 329.219787 319.942666 
L 331.438041 307.468011 
L 333.656294 296.475998 
L 335.874548 287.171132 
L 336.983675 282.927704 
L 338.092801 279.757915 
L 342.529308 268.510274 
L 343.638435 265.596113 
L 345.856689 261.812815 
L 346.965815 260.688051 
L 348.074942 258.94978 
L 349.184069 258.029518 
L 351.402323 254.348472 
L 352.511449 252.559075 
L 353.620576 251.280934 
L 354.729703 250.258421 
L 355.83883 250.053919 
L 356.947956 248.98028 
L 360.275337 250.871929 
L 361.384463 251.178683 
L 363.602717 250.871929 
L 364.711844 252.712452 
L 370.257477 259.921167 
L 371.366604 260.790303 
L 373.584858 260.125669 
L 374.693984 260.841428 
L 375.803111 260.94368 
L 378.021365 259.818916 
L 379.130491 259.665539 
L 380.239618 259.665539 
L 383.566998 256.546875 
L 384.676125 256.546875 
L 385.785252 256.035618 
L 386.894379 255.166482 
L 388.003505 253.377085 
L 389.112632 251.843316 
L 390.221759 249.287034 
L 391.330886 247.80439 
L 392.440012 246.066119 
L 393.549139 244.839103 
L 394.658266 243.816591 
L 395.767393 243.254209 
L 396.876519 243.816591 
L 397.985646 244.787978 
L 399.094773 245.503737 
L 400.2039 244.839103 
L 401.313026 242.947455 
L 402.422153 240.18667 
L 403.53128 236.249996 
L 404.640407 229.859291 
L 406.85866 213.141207 
L 410.186041 185.635614 
L 411.295167 177.404386 
L 416.840801 143.508088 
L 419.059055 127.914768 
L 421.277308 113.650715 
L 422.386435 107.771266 
L 423.495562 105.163859 
L 424.604688 103.118833 
L 425.713815 103.425587 
L 426.822942 104.396974 
L 427.932069 107.004382 
L 429.041195 110.685428 
L 430.150322 113.599589 
L 431.259449 116.05362 
L 432.368576 119.376786 
L 433.477702 121.881943 
L 435.695956 127.761391 
L 436.805083 131.698065 
L 439.023336 144.07047 
L 440.132463 150.461175 
L 445.678097 187.373886 
L 447.89635 204.756603 
L 453.441984 250.769677 
L 456.769364 273.622838 
L 460.096744 291.107806 
L 461.205871 295.964742 
L 464.533252 308.030393 
L 465.642378 312.938454 
L 467.860632 321.42531 
L 468.969759 325.873241 
L 477.842773 366.518123 
L 480.061026 375.158356 
L 482.27928 382.26482 
L 483.388406 385.690238 
L 484.497533 388.604399 
L 485.60666 390.905053 
L 486.715787 392.898953 
L 487.824913 395.199606 
L 488.93404 397.909265 
L 490.043167 400.005416 
L 491.152294 400.618924 
L 493.370547 402.357196 
L 494.479674 403.533086 
L 495.588801 404.504473 
L 496.697927 405.782614 
L 497.807054 406.856252 
L 498.916181 408.28777 
L 500.025308 410.179419 
L 502.243561 414.320595 
L 503.352688 416.161118 
L 504.461815 417.746013 
L 506.680068 422.602949 
L 507.789195 424.290095 
L 508.898322 425.670487 
L 510.007448 427.408759 
L 512.225702 431.243182 
L 513.334829 432.31682 
L 514.443955 433.083705 
L 515.553082 434.31072 
L 516.662209 435.94674 
L 518.880462 438.554148 
L 521.098716 441.570561 
L 522.207843 443.411084 
L 523.31697 444.995978 
L 524.426096 445.762863 
L 526.64435 447.55226 
L 528.862603 449.034904 
L 532.189984 449.750663 
L 533.29911 450.006291 
L 534.408237 450.006291 
L 535.517364 449.852914 
L 536.626491 449.392783 
L 537.735617 449.239406 
L 539.953871 449.239406 
L 541.062998 449.08603 
L 542.172124 449.290532 
L 543.281251 449.137155 
L 544.390378 449.188281 
L 546.608631 449.648412 
L 548.826885 451.131055 
L 549.936012 451.54006 
L 551.045138 452.35807 
L 556.590772 457.112755 
L 557.699899 458.442021 
L 558.809026 459.566785 
L 559.918152 460.487047 
L 562.136406 461.662937 
L 563.245533 462.174193 
L 564.354659 462.532072 
L 565.463786 462.736575 
L 567.68204 463.50346 
L 569.900293 464.423721 
L 572.118547 464.883852 
L 575.445927 465.855239 
L 576.555054 466.264244 
L 577.664181 466.519872 
L 580.991561 467.95139 
L 585.428068 468.053641 
L 586.537195 467.95139 
L 588.755448 468.155893 
L 590.973702 468.718275 
L 594.301082 468.922777 
L 596.519335 468.820526 
L 599.846716 468.104767 
L 602.064969 467.593511 
L 603.174096 467.082254 
L 605.392349 465.446234 
L 606.501476 464.423721 
L 607.610603 463.247831 
L 608.71973 461.765188 
L 612.04711 455.987991 
L 614.265363 452.255819 
L 616.483617 448.216894 
L 617.592744 446.836501 
L 619.810997 443.206581 
L 622.029251 438.503022 
L 623.138377 435.588861 
L 625.356631 428.482397 
L 626.465758 424.6991 
L 627.574884 420.302295 
L 629.793138 412.019942 
L 630.902265 407.92989 
L 632.011392 402.919578 
L 635.338772 385.485735 
L 636.447899 378.941653 
L 637.557025 373.624587 
L 638.666152 369.687913 
L 639.775279 367.694013 
L 640.884406 366.313621 
L 641.993532 365.137731 
L 644.211786 364.115218 
L 645.320913 363.246082 
L 646.430039 361.967941 
L 647.539166 359.513911 
L 648.648293 356.088493 
L 649.75742 351.845065 
L 650.866546 346.885878 
L 651.975673 342.795827 
L 653.0848 338.041143 
L 654.193927 332.67295 
L 655.303053 327.918266 
L 656.41218 325.259733 
L 658.630434 320.965179 
L 660.848687 315.648113 
L 661.957814 314.216595 
L 665.285194 312.324946 
L 666.394321 312.018192 
L 667.503448 312.785077 
L 669.721701 313.80759 
L 670.830828 312.98958 
L 671.939955 311.302434 
L 673.049081 310.075418 
L 674.158208 309.206282 
L 675.267335 307.161257 
L 676.376462 305.780865 
L 677.485588 303.37796 
L 679.703842 301.690814 
L 684.140349 295.913616 
L 685.249476 294.942229 
L 686.358602 293.561837 
L 687.467729 293.715214 
L 688.576856 294.073093 
L 690.79511 295.811365 
L 691.904236 298.060893 
L 693.013363 299.850291 
L 694.12249 302.304321 
L 697.44987 308.081518 
L 698.558997 310.484423 
L 699.668124 311.558062 
L 701.886377 315.954867 
L 705.213757 322.703451 
L 706.322884 324.543974 
L 707.432011 327.151382 
L 708.541138 329.04303 
L 709.650264 330.065543 
L 710.759391 330.883553 
L 712.977645 332.724076 
L 714.086771 333.490961 
L 715.195898 333.593212 
L 716.305025 333.542086 
L 718.523278 332.826327 
L 719.632405 332.008317 
L 721.850659 330.934679 
L 722.959785 331.03693 
L 724.068912 331.39481 
L 725.178039 332.110568 
L 726.287166 332.468448 
L 727.396292 333.593212 
L 728.505419 334.104468 
L 730.723673 334.564599 
L 731.832799 334.513473 
L 732.941926 334.820227 
L 734.051053 336.507373 
L 735.16018 338.603525 
L 736.269306 341.364309 
L 736.269306 341.364309 
" style="fill:none;stroke:#ffdd00;stroke-linecap:square;stroke-width:2;"/>
   </g>
   <g id="line2d_37">
    <path clip-path="url(#p019c3d16a6)" d="M 97.412296 426.630118 
L 98.521422 419.993617 
L 100.739676 411.403381 
L 102.957929 400.787048 
L 104.067056 395.512108 
L 108.503563 351.156538 
L 111.830943 320.924576 
L 112.94007 313.410888 
L 114.049197 307.031342 
L 115.158324 302.016309 
L 116.26745 298.117698 
L 117.376577 294.821599 
L 118.485704 293.56341 
L 119.594831 292.872293 
L 120.703957 292.411548 
L 124.031338 290.550847 
L 125.140465 291.295127 
L 127.358718 293.244433 
L 129.576972 297.143045 
L 131.795225 301.945426 
L 132.904352 303.947894 
L 134.013479 305.170641 
L 135.122605 306.925016 
L 136.231732 308.360414 
L 139.559112 314.243774 
L 140.668239 316.618383 
L 141.777366 319.436016 
L 146.213873 328.491427 
L 147.323 330.866036 
L 149.541253 334.357066 
L 151.759507 337.918979 
L 152.868633 340.541682 
L 153.97776 342.756802 
L 155.086887 345.237737 
L 157.30514 350.908445 
L 160.632521 360.708137 
L 162.850774 366.343403 
L 165.069028 371.110342 
L 167.287281 374.955791 
L 169.505535 378.80124 
L 173.942042 386.598464 
L 177.269422 391.064146 
L 181.705929 396.451319 
L 182.815056 398.081647 
L 185.033309 400.686629 
L 188.36069 404.904218 
L 190.578943 407.349711 
L 191.68807 408.607899 
L 195.01545 411.709067 
L 196.124577 412.825488 
L 197.233704 414.101397 
L 199.451957 415.979819 
L 202.779337 419.329081 
L 203.888464 420.21513 
L 206.106718 421.721411 
L 208.324971 422.696064 
L 210.543225 425.230162 
L 212.761478 428.260446 
L 213.870605 429.766728 
L 214.979732 431.662871 
L 216.088858 433.328642 
L 218.307112 435.065296 
L 219.416239 435.579204 
L 223.852746 437.15637 
L 224.961872 437.794324 
L 226.070999 438.219627 
L 236.05314 443.624521 
L 237.162267 444.032103 
L 238.271394 444.209313 
L 241.598774 444.227034 
L 246.035281 443.78401 
L 248.253534 443.819452 
L 250.471788 443.872614 
L 253.799168 444.546011 
L 258.235675 445.786478 
L 259.344802 445.963688 
L 263.781309 445.892804 
L 264.890436 446.087735 
L 265.999562 446.052293 
L 267.108689 445.892804 
L 268.217816 445.857362 
L 270.436069 445.538385 
L 271.545196 445.361175 
L 272.654323 444.989035 
L 273.76345 444.829546 
L 275.981703 444.740942 
L 279.309083 445.024477 
L 280.41821 444.971314 
L 281.527337 444.687779 
L 282.636464 444.563732 
L 285.963844 455.56845 
L 288.182097 463.082138 
L 290.400351 470.826199 
L 292.618604 470.152802 
L 294.836858 469.443963 
L 295.945985 469.000939 
L 300.382492 466.732656 
L 302.600745 465.120049 
L 304.818999 463.277068 
L 305.928126 462.054322 
L 308.146379 458.899991 
L 310.364633 455.338077 
L 311.473759 452.874863 
L 312.582886 449.649648 
L 315.910266 437.493068 
L 317.019393 433.257758 
L 320.346773 419.346802 
L 323.674154 407.048454 
L 325.892407 397.638623 
L 328.110661 387.006046 
L 331.438041 369.391409 
L 333.656294 358.74111 
L 334.765421 353.850125 
L 335.874548 349.52621 
L 338.092801 342.189731 
L 340.311055 335.881069 
L 342.529308 329.731895 
L 343.638435 327.25096 
L 344.747562 325.478864 
L 345.856689 324.30928 
L 346.965815 322.696673 
L 348.074942 321.952392 
L 349.184069 322.09416 
L 351.402323 322.927045 
L 352.511449 323.724488 
L 353.620576 323.883977 
L 354.729703 324.716862 
L 356.947956 324.787746 
L 359.16621 324.48649 
L 361.384463 324.291559 
L 362.49359 324.362443 
L 363.602717 325.620631 
L 364.711844 325.95733 
L 365.82097 326.896541 
L 368.039224 329.944546 
L 369.148351 332.336876 
L 371.366604 336.607628 
L 375.803111 348.143975 
L 378.021365 352.804588 
L 379.130491 354.541242 
L 380.239618 355.728547 
L 381.348745 356.401943 
L 382.457872 356.738642 
L 383.566998 356.7032 
L 384.676125 356.100687 
L 385.785252 355.23236 
L 386.894379 354.098218 
L 388.003505 353.424822 
L 389.112632 353.194449 
L 390.221759 352.148912 
L 392.440012 351.067934 
L 394.658266 349.561652 
L 395.767393 348.392068 
L 396.876519 347.523741 
L 399.094773 347.700951 
L 400.2039 348.746488 
L 401.313026 349.597094 
L 402.422153 350.802119 
L 403.53128 351.475516 
L 404.640407 350.642631 
L 405.749533 348.728767 
L 406.85866 345.787087 
L 409.076914 337.9367 
L 413.513421 320.198017 
L 414.622548 315.005775 
L 415.731674 308.962927 
L 419.059055 289.150891 
L 420.168181 282.594134 
L 422.386435 268.718621 
L 423.495562 262.498563 
L 427.932069 241.516943 
L 429.041195 237.813262 
L 431.259449 231.859019 
L 432.368576 229.502131 
L 433.477702 227.871802 
L 434.586829 226.861707 
L 435.695956 226.489567 
L 436.805083 226.259195 
L 437.914209 226.631335 
L 439.023336 228.314826 
L 441.24159 230.848924 
L 442.350716 231.87674 
L 443.459843 233.223533 
L 444.56897 235.899398 
L 446.787223 241.835921 
L 449.005477 249.881238 
L 450.114604 254.949433 
L 455.660237 282.487809 
L 457.878491 291.543221 
L 462.314998 308.342693 
L 475.624519 370.70276 
L 480.061026 387.980699 
L 483.388406 396.982948 
L 484.497533 400.403093 
L 486.715787 405.967476 
L 487.824913 408.926876 
L 488.93404 412.595116 
L 491.152294 418.513917 
L 494.479674 424.663091 
L 495.588801 426.736444 
L 497.807054 430.156589 
L 501.134434 435.419715 
L 504.461815 439.991724 
L 508.898322 446.353549 
L 510.007448 447.806668 
L 511.116575 449.064857 
L 513.334829 451.031883 
L 515.553082 452.555886 
L 518.880462 454.771006 
L 519.989589 455.621613 
L 521.098716 456.738033 
L 522.207843 458.031664 
L 525.535223 461.079669 
L 527.753477 462.763161 
L 528.862603 463.241627 
L 529.97173 463.454278 
L 532.189984 464.127675 
L 535.517364 464.78335 
L 536.626491 465.226374 
L 537.735617 465.793445 
L 539.953871 466.661772 
L 541.062998 467.17568 
L 542.172124 467.54782 
L 544.390378 468.45159 
L 548.826885 468.770567 
L 549.936012 468.82373 
L 552.154265 468.504752 
L 553.263392 468.575636 
L 554.372519 468.487031 
L 555.481645 468.557915 
L 556.590772 468.46931 
L 559.918152 468.593357 
L 561.027279 468.362985 
L 564.354659 467.370611 
L 565.463786 466.697214 
L 568.791166 465.403584 
L 569.900293 465.403584 
L 571.00942 465.244095 
L 573.227673 465.244095 
L 576.555054 464.535257 
L 579.882434 463.153022 
L 584.318941 462.284695 
L 587.646321 461.434088 
L 588.755448 461.115111 
L 589.864575 461.008785 
L 590.973702 460.72525 
L 592.082828 460.565761 
L 593.191955 460.282226 
L 594.301082 460.35311 
L 596.519335 459.715155 
L 598.737589 458.563292 
L 600.955842 457.251941 
L 603.174096 455.267193 
L 606.501476 452.910305 
L 607.610603 451.758443 
L 610.937983 446.37127 
L 612.04711 444.244755 
L 624.247504 417.539264 
L 625.356631 415.678563 
L 626.465758 414.243165 
L 628.684011 411.833114 
L 629.793138 411.425532 
L 630.902265 411.177439 
L 632.011392 412.152092 
L 633.120518 412.68372 
L 635.338772 413.95963 
L 637.557025 416.050703 
L 638.666152 417.025356 
L 639.775279 416.989914 
L 641.993532 418.318987 
L 643.102659 419.346802 
L 645.320913 421.721411 
L 646.430039 423.334019 
L 647.539166 425.265604 
L 649.75742 428.437656 
L 650.866546 429.536356 
L 653.0848 431.397057 
L 655.303053 432.318547 
L 656.41218 432.56664 
L 659.73956 433.824829 
L 660.848687 434.072922 
L 663.066941 435.331111 
L 664.176067 436.05767 
L 665.285194 436.305763 
L 666.394321 436.181717 
L 667.503448 435.845018 
L 668.612574 435.384273 
L 669.721701 434.196969 
L 670.830828 432.265384 
L 674.158208 423.280856 
L 675.267335 419.825268 
L 678.594715 408.182596 
L 680.812969 401.980259 
L 684.140349 390.426191 
L 685.249476 385.925067 
L 690.79511 358.936041 
L 691.904236 354.328591 
L 693.013363 350.855282 
L 694.12249 348.622441 
L 697.44987 345.46811 
L 699.668124 344.014991 
L 701.886377 344.014991 
L 702.995504 344.475736 
L 704.104631 345.308621 
L 707.432011 349.15407 
L 709.650264 351.19198 
L 710.759391 351.688167 
L 712.977645 353.052681 
L 715.195898 353.93873 
L 716.305025 354.5058 
L 717.414152 354.824778 
L 720.741532 356.207013 
L 725.178039 361.044836 
L 728.505419 366.662381 
L 729.614546 368.009174 
L 730.723673 369.178757 
L 731.832799 369.674944 
L 732.941926 369.515456 
L 734.051053 368.700291 
L 735.16018 367.725638 
L 736.269306 366.485171 
L 737.378433 365.687728 
L 737.378433 365.687728 
" style="fill:none;stroke:#003078;stroke-linecap:square;stroke-width:2;"/>
   </g>
   <g id="line2d_38">
    <path clip-path="url(#p019c3d16a6)" d="M 92.975789 453.100737 
L 95.194042 444.646122 
L 96.303169 441.762238 
L 97.412296 438.312326 
L 98.521422 433.612133 
L 99.630549 429.671422 
L 101.848803 412.291354 
L 104.067056 393.345237 
L 105.176183 383.365515 
L 106.28531 374.583361 
L 110.721817 334.3267 
L 114.049197 309.638405 
L 115.158324 302.084524 
L 117.376577 291.429252 
L 118.485704 289.341187 
L 119.594831 287.836552 
L 120.703957 288.082207 
L 121.813084 289.525428 
L 122.922211 292.043389 
L 124.031338 293.394489 
L 125.140465 295.881743 
L 127.358718 302.453006 
L 128.467845 304.970966 
L 129.576972 308.010943 
L 131.795225 315.288463 
L 132.904352 320.26297 
L 135.122605 326.619285 
L 137.340859 339.270501 
L 138.449986 344.521369 
L 139.559112 350.539909 
L 142.886493 366.937359 
L 143.995619 370.407231 
L 148.432126 379.619281 
L 149.541253 382.198656 
L 150.65038 385.45358 
L 151.759507 387.910127 
L 152.868633 390.059605 
L 153.97776 392.761807 
L 155.086887 396.108852 
L 156.196014 399.056708 
L 157.30514 401.206186 
L 158.414267 402.895062 
L 159.523394 401.390427 
L 160.632521 401.236893 
L 162.850774 399.885792 
L 165.069028 393.498771 
L 166.178154 389.537589 
L 167.287281 388.125075 
L 169.505535 385.668528 
L 170.614661 384.102479 
L 171.723788 384.378841 
L 172.832915 385.177219 
L 175.051168 387.695179 
L 176.160295 388.278609 
L 177.269422 389.813951 
L 180.596802 397.337125 
L 181.705929 399.793672 
L 182.815056 402.802942 
L 183.924183 406.272814 
L 185.033309 409.036429 
L 186.142436 410.448944 
L 187.251563 411.615803 
L 189.469816 413.48892 
L 192.797197 415.054969 
L 193.906323 415.33133 
L 196.124577 416.559604 
L 198.34283 417.849291 
L 200.561084 420.09089 
L 201.670211 421.994714 
L 203.888464 425.03469 
L 206.106718 428.565976 
L 207.215844 429.855663 
L 208.324971 431.667366 
L 211.652351 436.058444 
L 212.761478 437.102476 
L 214.979732 441.032951 
L 216.088858 442.69112 
L 219.416239 446.897957 
L 220.525365 448.003403 
L 221.634492 448.433298 
L 222.743619 448.494712 
L 223.852746 449.108849 
L 224.961872 449.415917 
L 226.070999 449.96864 
L 227.180126 450.214295 
L 228.289253 450.337122 
L 229.398379 449.937933 
L 230.507506 449.815106 
L 231.616633 449.38521 
L 232.72576 449.38521 
L 234.944013 448.402591 
L 236.05314 448.402591 
L 237.162267 448.893901 
L 238.271394 449.047435 
L 240.489647 449.722985 
L 241.598774 450.367829 
L 243.817027 452.240946 
L 244.926154 452.855083 
L 248.253534 456.263541 
L 249.362661 457.676056 
L 251.580915 459.856241 
L 252.690041 460.654619 
L 253.799168 461.238048 
L 254.908295 461.575824 
L 258.235675 462.312788 
L 259.344802 462.589149 
L 261.563055 463.571768 
L 263.781309 464.830748 
L 265.999562 465.598419 
L 268.217816 466.581038 
L 269.326943 466.888106 
L 270.436069 467.010933 
L 272.654323 467.410122 
L 275.981703 467.870725 
L 277.09083 467.962845 
L 278.199957 468.30062 
L 279.309083 468.423448 
L 281.527337 468.822637 
L 283.74559 468.30062 
L 287.072971 467.993552 
L 289.291224 466.918813 
L 290.400351 466.703865 
L 291.509478 465.905487 
L 292.618604 464.677214 
L 293.727731 463.2647 
L 294.836858 461.60653 
L 295.945985 460.378257 
L 298.164238 456.785557 
L 299.273365 454.421131 
L 300.382492 452.762962 
L 302.600745 447.266439 
L 303.709872 443.827273 
L 305.928126 437.716613 
L 307.037252 435.475014 
L 308.146379 432.89564 
L 311.473759 427.521944 
L 313.692013 423.345814 
L 315.910266 418.893323 
L 318.12852 412.874784 
L 319.237647 410.295409 
L 320.346773 407.009778 
L 321.4559 403.01789 
L 327.001534 380.264125 
L 329.219787 371.789039 
L 332.547168 359.598425 
L 333.656294 354.593211 
L 334.765421 348.666792 
L 335.874548 343.415923 
L 338.092801 331.747326 
L 340.311055 318.973283 
L 344.747562 292.780353 
L 345.856689 287.161002 
L 346.965815 282.278615 
L 348.074942 276.659264 
L 349.184069 271.623343 
L 351.402323 262.902602 
L 355.83883 248.347563 
L 358.057083 242.329023 
L 360.275337 237.999359 
L 362.49359 235.389278 
L 363.602717 235.358572 
L 364.711844 234.652314 
L 365.82097 235.542813 
L 366.930097 235.327865 
L 368.039224 235.512106 
L 369.148351 234.621608 
L 370.257477 235.205037 
L 371.366604 234.590901 
L 372.475731 234.560194 
L 374.693984 231.213149 
L 375.803111 229.585687 
L 376.912238 228.173172 
L 378.021365 226.300055 
L 379.130491 224.02775 
L 381.348745 220.43505 
L 382.457872 217.364366 
L 383.566998 213.034703 
L 386.894379 193.413035 
L 389.112632 174.528332 
L 393.549139 146.492992 
L 394.658266 139.52254 
L 395.767393 134.793688 
L 397.985646 122.234592 
L 399.094773 117.966342 
L 400.2039 117.59786 
L 401.313026 114.189401 
L 402.422153 110.197513 
L 404.640407 100.217792 
L 406.85866 89.501106 
L 409.076914 75.314549 
L 410.186041 70.554989 
L 411.295167 66.778048 
L 412.404294 64.567156 
L 413.513421 64.167967 
L 414.622548 62.325557 
L 415.731674 59.316288 
L 416.840801 58.149428 
L 417.949928 56.736913 
L 419.059055 56.614086 
L 420.168181 55.232279 
L 421.277308 54.157539 
L 423.495562 57.93448 
L 424.604688 61.465766 
L 425.713815 65.457655 
L 426.822942 66.655221 
L 427.932069 71.844676 
L 429.041195 74.362637 
L 431.259449 77.371906 
L 432.368576 79.705626 
L 433.477702 80.841779 
L 434.586829 83.881755 
L 435.695956 84.833667 
L 439.023336 96.164489 
L 441.24159 104.731696 
L 442.350716 110.688822 
L 443.459843 115.939691 
L 444.56897 120.453596 
L 447.89635 136.728218 
L 449.005477 144.527754 
L 451.22373 158.990673 
L 452.332857 166.114659 
L 455.660237 182.419988 
L 456.769364 186.411877 
L 457.878491 189.513267 
L 458.987618 193.996465 
L 460.096744 199.124506 
L 461.205871 205.450114 
L 462.314998 209.933312 
L 463.424125 215.460543 
L 465.642378 225.28673 
L 466.751505 229.278618 
L 467.860632 231.735165 
L 468.969759 235.051503 
L 470.078885 239.596115 
L 474.515392 262.564827 
L 477.842773 283.1077 
L 478.951899 287.46807 
L 480.061026 293.240955 
L 481.170153 301.194025 
L 484.497533 321.736898 
L 486.715787 332.822065 
L 487.824913 337.704452 
L 488.93404 341.880582 
L 490.043167 346.793675 
L 491.152294 349.895065 
L 494.479674 366.476756 
L 496.697927 377.715458 
L 497.807054 382.567138 
L 498.916181 388.217195 
L 502.243561 398.442571 
L 503.352688 401.298307 
L 505.570941 405.904332 
L 506.680068 408.452999 
L 508.898322 412.383474 
L 511.116575 417.204447 
L 514.443955 423.069453 
L 515.553082 425.341759 
L 516.662209 426.815687 
L 517.771336 428.074667 
L 518.880462 429.118699 
L 521.098716 436.027737 
L 522.207843 439.129127 
L 523.31697 441.892742 
L 524.426096 445.055546 
L 525.535223 447.727041 
L 526.64435 450.767018 
L 527.753477 452.148825 
L 528.862603 453.131444 
L 529.97173 453.837701 
L 531.080857 454.329011 
L 532.189984 454.421131 
L 533.29911 454.789613 
L 534.408237 455.649404 
L 535.517364 455.98718 
L 536.626491 455.956473 
L 538.844744 456.969798 
L 539.953871 458.228779 
L 541.062998 459.149984 
L 543.281251 460.531791 
L 544.390378 461.637237 
L 545.499505 462.251374 
L 546.608631 463.172579 
L 549.936012 463.970957 
L 551.045138 464.370146 
L 552.154265 464.646507 
L 553.263392 465.291351 
L 554.372519 465.659833 
L 555.481645 465.844074 
L 556.590772 466.45821 
L 559.918152 467.932138 
L 562.136406 468.024259 
L 565.463786 468.822637 
L 566.572913 468.853343 
L 567.68204 469.221825 
L 571.00942 471.187063 
L 573.227673 471.89332 
L 574.3368 472.323216 
L 575.445927 472.507457 
L 576.555054 472.446043 
L 577.664181 472.231095 
L 580.991561 472.077561 
L 583.209814 471.555545 
L 587.646321 469.498187 
L 588.755448 468.822637 
L 590.973702 467.962845 
L 592.082828 467.778604 
L 593.191955 467.870725 
L 594.301082 467.655777 
L 596.519335 467.62507 
L 597.628462 467.471536 
L 600.955842 467.563656 
L 602.064969 467.747897 
L 604.283223 467.840018 
L 605.392349 468.147086 
L 607.610603 468.331327 
L 608.71973 468.147086 
L 609.828856 467.778604 
L 610.937983 467.594363 
L 612.04711 467.563656 
L 613.156237 466.826692 
L 618.70187 464.155198 
L 619.810997 463.571768 
L 622.029251 463.080459 
L 627.574884 459.272811 
L 630.902265 456.355662 
L 632.011392 455.373043 
L 634.229645 452.762962 
L 635.338772 451.565395 
L 636.447899 450.183588 
L 638.666152 447.849868 
L 639.775279 447.297145 
L 641.993532 446.621595 
L 643.102659 446.038165 
L 644.211786 445.60827 
L 645.320913 445.424028 
L 647.539166 446.007458 
L 648.648293 446.222406 
L 649.75742 446.652302 
L 650.866546 446.928663 
L 651.975673 447.389266 
L 653.0848 447.5428 
L 654.193927 447.358559 
L 659.73956 447.174318 
L 660.848687 446.897957 
L 661.957814 446.191699 
L 663.066941 444.625651 
L 664.176067 442.813948 
L 666.394321 439.528316 
L 670.830828 432.22009 
L 671.939955 430.684748 
L 674.158208 426.416498 
L 676.376462 421.257749 
L 677.485588 418.309893 
L 679.703842 413.059025 
L 683.031222 405.351609 
L 684.140349 402.219512 
L 686.358602 394.880578 
L 689.685983 383.672584 
L 690.79511 379.649988 
L 693.013363 373.447208 
L 695.231617 369.455319 
L 696.340743 367.950684 
L 697.44987 366.691704 
L 698.558997 365.709085 
L 699.668124 365.248483 
L 701.886377 367.305841 
L 702.995504 368.626235 
L 704.104631 370.345817 
L 705.213757 372.311055 
L 707.432011 374.798308 
L 709.650264 375.811634 
L 710.759391 376.763546 
L 711.868518 376.732839 
L 712.977645 376.24153 
L 714.086771 376.33365 
L 715.195898 376.548598 
L 716.305025 377.132028 
L 717.414152 377.193442 
L 718.523278 376.487184 
L 720.741532 376.026582 
L 721.850659 375.873048 
L 722.959785 374.460533 
L 724.068912 372.802364 
L 726.287166 367.919977 
L 729.614546 359.16853 
L 730.723673 357.541067 
L 731.832799 355.053814 
L 732.941926 353.334231 
L 734.051053 351.952423 
L 734.051053 351.952423 
" style="fill:none;stroke:#d4351c;stroke-linecap:square;stroke-width:2;"/>
   </g>
   <g id="patch_3">
    <path d="M 68.575 476.745 
L 738.175 476.745 
" style="fill:none;stroke:#000000;stroke-linecap:square;stroke-linejoin:miter;stroke-width:0.8;"/>
   </g>
   <g id="text_19">
    <!-- Average patients in hospital with COVID-19, per capita -->
    <g transform="translate(243.132812 27.225)scale(0.12 -0.12)">
     <defs>
      <path d="M 1207 0 
L 152 0 
L 1759 4655 
L 3027 4655 
L 4632 0 
L 3577 0 
L 3232 1061 
L 1552 1061 
L 1207 0 
z
M 1802 1830 
L 2984 1830 
L 2411 3591 
L 2375 3591 
L 1802 1830 
z
" id="Inter-Bold-41" transform="scale(0.015625)"/>
      <path d="M 3641 3491 
L 2421 0 
L 1330 0 
L 109 3491 
L 1132 3491 
L 1857 993 
L 1893 993 
L 2616 3491 
L 3641 3491 
z
" id="Inter-Bold-76" transform="scale(0.015625)"/>
      <path d="M 1977 -68 
Q 1441 -68 1052 151 
Q 664 370 455 773 
Q 246 1177 246 1730 
Q 246 2268 455 2675 
Q 664 3082 1044 3309 
Q 1425 3536 1939 3536 
Q 2400 3536 2771 3340 
Q 3143 3145 3361 2751 
Q 3580 2357 3580 1764 
L 3580 1498 
L 1202 1498 
L 1202 1495 
Q 1202 1105 1416 880 
Q 1630 655 1993 655 
Q 2236 655 2413 757 
Q 2591 859 2664 1059 
L 3559 1000 
Q 3457 514 3041 223 
Q 2625 -68 1977 -68 
z
M 1202 2098 
L 2668 2098 
Q 2666 2409 2468 2611 
Q 2271 2814 1955 2814 
Q 1632 2814 1425 2604 
Q 1218 2395 1202 2098 
z
" id="Inter-Bold-65" transform="scale(0.015625)"/>
      <path d="M 386 0 
L 386 3491 
L 1325 3491 
L 1325 2882 
L 1361 2882 
Q 1457 3207 1681 3374 
Q 1905 3541 2200 3541 
Q 2341 3541 2461 3507 
Q 2582 3473 2677 3414 
L 2386 2614 
Q 2318 2648 2237 2671 
Q 2157 2695 2057 2695 
Q 1764 2695 1560 2495 
Q 1357 2295 1355 1975 
L 1355 0 
L 386 0 
z
" id="Inter-Bold-72" transform="scale(0.015625)"/>
      <path d="M 1382 -66 
Q 882 -66 552 195 
Q 223 457 223 975 
Q 223 1366 407 1588 
Q 591 1811 890 1914 
Q 1189 2018 1534 2050 
Q 1989 2095 2184 2145 
Q 2380 2195 2380 2364 
L 2380 2377 
Q 2380 2593 2244 2711 
Q 2109 2830 1861 2830 
Q 1600 2830 1445 2716 
Q 1291 2602 1241 2427 
L 346 2500 
Q 446 2977 842 3256 
Q 1239 3536 1866 3536 
Q 2255 3536 2593 3413 
Q 2932 3291 3140 3030 
Q 3348 2770 3348 2355 
L 3348 0 
L 2430 0 
L 2430 484 
L 2402 484 
Q 2275 241 2021 87 
Q 1768 -66 1382 -66 
z
M 1659 602 
Q 1977 602 2181 787 
Q 2386 973 2386 1248 
L 2386 1618 
Q 2330 1580 2210 1550 
Q 2091 1520 1956 1498 
Q 1821 1477 1714 1461 
Q 1459 1425 1303 1318 
Q 1148 1211 1148 1007 
Q 1148 807 1292 704 
Q 1436 602 1659 602 
z
" id="Inter-Bold-61" transform="scale(0.015625)"/>
      <path d="M 1959 -1359 
Q 1255 -1359 852 -1082 
Q 450 -805 364 -409 
L 1259 -289 
Q 1318 -430 1489 -547 
Q 1661 -664 1982 -664 
Q 2298 -664 2503 -514 
Q 2709 -364 2709 -20 
L 2709 618 
L 2668 618 
Q 2573 402 2332 226 
Q 2091 50 1673 50 
Q 1280 50 958 234 
Q 636 418 446 795 
Q 257 1173 257 1752 
Q 257 2348 451 2743 
Q 646 3139 967 3337 
Q 1289 3536 1671 3536 
Q 1964 3536 2161 3437 
Q 2359 3339 2482 3193 
Q 2605 3048 2668 2905 
L 2705 2905 
L 2705 3491 
L 3666 3491 
L 3666 -34 
Q 3666 -468 3446 -763 
Q 3227 -1059 2843 -1209 
Q 2459 -1359 1959 -1359 
z
M 1980 777 
Q 2330 777 2522 1036 
Q 2714 1295 2714 1757 
Q 2714 2216 2523 2491 
Q 2332 2766 1980 2766 
Q 1621 2766 1433 2484 
Q 1246 2202 1246 1757 
Q 1246 1305 1434 1041 
Q 1623 777 1980 777 
z
" id="Inter-Bold-67" transform="scale(0.015625)"/>
      <path id="Inter-Bold-20" transform="scale(0.015625)"/>
      <path d="M 386 -1309 
L 386 3491 
L 1341 3491 
L 1341 2905 
L 1384 2905 
Q 1450 3048 1570 3193 
Q 1691 3339 1888 3437 
Q 2086 3536 2377 3536 
Q 2761 3536 3081 3337 
Q 3402 3139 3596 2740 
Q 3791 2341 3791 1741 
Q 3791 1157 3602 756 
Q 3414 355 3093 149 
Q 2773 -57 2375 -57 
Q 2093 -57 1896 36 
Q 1700 130 1576 272 
Q 1452 414 1384 559 
L 1355 559 
L 1355 -1309 
L 386 -1309 
z
M 1334 1745 
Q 1334 1280 1526 997 
Q 1718 714 2068 714 
Q 2425 714 2613 1001 
Q 2802 1289 2802 1745 
Q 2802 2200 2614 2483 
Q 2427 2766 2068 2766 
Q 1716 2766 1525 2490 
Q 1334 2214 1334 1745 
z
" id="Inter-Bold-70" transform="scale(0.015625)"/>
      <path d="M 2243 3491 
L 2243 2764 
L 1586 2764 
L 1586 1073 
Q 1586 873 1677 802 
Q 1768 732 1914 732 
Q 1982 732 2050 744 
Q 2118 757 2155 764 
L 2307 43 
Q 2234 20 2102 -10 
Q 1971 -41 1782 -48 
Q 1255 -70 935 181 
Q 616 432 618 945 
L 618 2764 
L 141 2764 
L 141 3491 
L 618 3491 
L 618 4327 
L 1586 4327 
L 1586 3491 
L 2243 3491 
z
" id="Inter-Bold-74" transform="scale(0.015625)"/>
      <path d="M 386 0 
L 386 3491 
L 1355 3491 
L 1355 0 
L 386 0 
z
M 876 3941 
Q 662 3941 507 4085 
Q 353 4230 353 4432 
Q 353 4634 507 4777 
Q 662 4920 876 4920 
Q 1092 4920 1246 4777 
Q 1401 4634 1401 4432 
Q 1401 4230 1246 4085 
Q 1092 3941 876 3941 
z
" id="Inter-Bold-69" transform="scale(0.015625)"/>
      <path d="M 1355 2018 
L 1355 0 
L 386 0 
L 386 3491 
L 1309 3491 
L 1309 2875 
L 1350 2875 
Q 1468 3180 1739 3358 
Q 2011 3536 2400 3536 
Q 2946 3536 3275 3185 
Q 3605 2834 3605 2223 
L 3605 0 
L 2636 0 
L 2636 2050 
Q 2639 2370 2473 2551 
Q 2307 2732 2016 2732 
Q 1723 2732 1540 2544 
Q 1357 2357 1355 2018 
z
" id="Inter-Bold-6e" transform="scale(0.015625)"/>
      <path d="M 3291 2495 
L 2405 2441 
Q 2368 2609 2220 2729 
Q 2073 2850 1821 2850 
Q 1596 2850 1440 2755 
Q 1284 2661 1286 2505 
Q 1284 2380 1385 2293 
Q 1486 2207 1730 2155 
L 2361 2027 
Q 3368 1820 3371 1082 
Q 3371 739 3169 479 
Q 2968 220 2618 76 
Q 2268 -68 1816 -68 
Q 1123 -68 711 221 
Q 300 511 232 1011 
L 1184 1061 
Q 1230 848 1394 739 
Q 1559 630 1818 630 
Q 2073 630 2228 730 
Q 2384 830 2386 984 
Q 2380 1243 1939 1332 
L 1334 1452 
Q 321 1655 325 2450 
Q 323 2955 728 3245 
Q 1134 3536 1805 3536 
Q 2466 3536 2846 3256 
Q 3227 2977 3291 2495 
z
" id="Inter-Bold-73" transform="scale(0.015625)"/>
      <path d="M 1355 2018 
L 1355 0 
L 386 0 
L 386 4655 
L 1327 4655 
L 1327 2875 
L 1368 2875 
Q 1489 3184 1751 3360 
Q 2014 3536 2411 3536 
Q 2957 3536 3289 3186 
Q 3621 2836 3618 2223 
L 3618 0 
L 2650 0 
L 2650 2050 
Q 2652 2373 2487 2552 
Q 2323 2732 2027 2732 
Q 1732 2732 1544 2544 
Q 1357 2357 1355 2018 
z
" id="Inter-Bold-68" transform="scale(0.015625)"/>
      <path d="M 1964 -68 
Q 1434 -68 1049 158 
Q 664 384 455 789 
Q 246 1195 246 1732 
Q 246 2273 455 2678 
Q 664 3084 1049 3310 
Q 1434 3536 1964 3536 
Q 2493 3536 2878 3310 
Q 3264 3084 3473 2678 
Q 3682 2273 3682 1732 
Q 3682 1195 3473 789 
Q 3264 384 2878 158 
Q 2493 -68 1964 -68 
z
M 1968 682 
Q 2327 682 2512 982 
Q 2698 1282 2698 1739 
Q 2698 2195 2512 2496 
Q 2327 2798 1968 2798 
Q 1602 2798 1416 2496 
Q 1230 2195 1230 1739 
Q 1230 1282 1416 982 
Q 1602 682 1968 682 
z
" id="Inter-Bold-6f" transform="scale(0.015625)"/>
      <path d="M 1355 4655 
L 1355 0 
L 386 0 
L 386 4655 
L 1355 4655 
z
" id="Inter-Bold-6c" transform="scale(0.015625)"/>
      <path d="M 1075 0 
L 125 3491 
L 1105 3491 
L 1646 1145 
L 1677 1145 
L 2241 3491 
L 3202 3491 
L 3775 1159 
L 3805 1159 
L 4336 3491 
L 5314 3491 
L 4366 0 
L 3341 0 
L 2741 2195 
L 2698 2195 
L 2098 0 
L 1075 0 
z
" id="Inter-Bold-77" transform="scale(0.015625)"/>
      <path d="M 4511 3025 
L 3516 3025 
Q 3459 3409 3188 3628 
Q 2918 3848 2514 3848 
Q 1973 3848 1647 3451 
Q 1321 3055 1321 2327 
Q 1321 1582 1649 1194 
Q 1977 807 2507 807 
Q 2900 807 3173 1012 
Q 3446 1218 3516 1591 
L 4511 1586 
Q 4459 1159 4207 782 
Q 3955 405 3522 170 
Q 3089 -64 2491 -64 
Q 1868 -64 1378 218 
Q 889 500 606 1034 
Q 323 1568 323 2327 
Q 323 3089 609 3623 
Q 896 4157 1386 4437 
Q 1877 4718 2491 4718 
Q 3030 4718 3463 4519 
Q 3896 4320 4172 3942 
Q 4448 3564 4511 3025 
z
" id="Inter-Bold-43" transform="scale(0.015625)"/>
      <path d="M 4682 2327 
Q 4682 1566 4394 1032 
Q 4107 498 3614 217 
Q 3121 -64 2502 -64 
Q 1882 -64 1389 218 
Q 896 500 609 1035 
Q 323 1570 323 2327 
Q 323 3089 609 3623 
Q 896 4157 1389 4437 
Q 1882 4718 2502 4718 
Q 3121 4718 3614 4437 
Q 4107 4157 4394 3623 
Q 4682 3089 4682 2327 
z
M 3684 2327 
Q 3684 3068 3361 3458 
Q 3039 3848 2502 3848 
Q 1966 3848 1643 3458 
Q 1321 3068 1321 2327 
Q 1321 1589 1643 1198 
Q 1966 807 2502 807 
Q 3039 807 3361 1198 
Q 3684 1589 3684 2327 
z
" id="Inter-Bold-4f" transform="scale(0.015625)"/>
      <path d="M 1246 4655 
L 2371 1118 
L 2414 1118 
L 3541 4655 
L 4632 4655 
L 3027 0 
L 1759 0 
L 152 4655 
L 1246 4655 
z
" id="Inter-Bold-56" transform="scale(0.015625)"/>
      <path d="M 1389 4655 
L 1389 0 
L 405 0 
L 405 4655 
L 1389 4655 
z
" id="Inter-Bold-49" transform="scale(0.015625)"/>
      <path d="M 2055 0 
L 405 0 
L 405 4655 
L 2068 4655 
Q 2771 4655 3278 4376 
Q 3786 4098 4059 3577 
Q 4332 3057 4332 2332 
Q 4332 1605 4058 1082 
Q 3784 559 3274 279 
Q 2764 0 2055 0 
z
M 1389 843 
L 2014 843 
Q 2671 843 3010 1197 
Q 3350 1552 3350 2332 
Q 3350 3107 3010 3459 
Q 2671 3811 2016 3811 
L 1389 3811 
L 1389 843 
z
" id="Inter-Bold-44" transform="scale(0.015625)"/>
      <path d="M 2561 2295 
L 2561 1527 
L 439 1527 
L 439 2295 
L 2561 2295 
z
" id="Inter-Bold-2d" transform="scale(0.015625)"/>
      <path d="M 2305 4655 
L 2305 0 
L 1323 0 
L 1323 3450 
L 1280 3450 
Q 1205 3334 961 3219 
Q 718 3105 332 3105 
L 332 3886 
Q 632 3886 857 4019 
Q 1082 4152 1209 4333 
Q 1336 4514 1341 4655 
L 2305 4655 
z
" id="Inter-Bold-31" transform="scale(0.015625)"/>
      <path d="M 2061 4732 
Q 2421 4732 2753 4612 
Q 3086 4493 3348 4227 
Q 3611 3961 3766 3523 
Q 3921 3086 3921 2448 
Q 3921 1659 3686 1096 
Q 3452 534 3028 235 
Q 2605 -64 2027 -64 
Q 1561 -64 1204 117 
Q 848 298 631 610 
Q 414 923 368 1314 
L 1339 1314 
Q 1396 1059 1577 919 
Q 1759 780 2027 780 
Q 2482 780 2718 1176 
Q 2955 1573 2957 2264 
L 2925 2264 
Q 2771 1957 2453 1782 
Q 2136 1607 1752 1607 
Q 1341 1607 1016 1801 
Q 691 1995 506 2334 
Q 321 2673 323 3109 
Q 321 3582 539 3949 
Q 757 4316 1149 4525 
Q 1541 4734 2061 4732 
z
M 2068 3959 
Q 1725 3959 1500 3722 
Q 1275 3486 1277 3136 
Q 1275 2791 1496 2555 
Q 1718 2320 2059 2320 
Q 2284 2320 2465 2431 
Q 2646 2543 2751 2729 
Q 2857 2916 2859 3141 
Q 2857 3366 2753 3551 
Q 2650 3736 2473 3847 
Q 2296 3959 2068 3959 
z
" id="Inter-Bold-39" transform="scale(0.015625)"/>
      <path d="M 1439 636 
L 1414 386 
Q 1384 86 1301 -212 
Q 1218 -511 1128 -754 
Q 1039 -998 984 -1136 
L 357 -1136 
Q 391 -1002 450 -763 
Q 509 -525 561 -226 
Q 614 73 627 382 
L 639 636 
L 1439 636 
z
" id="Inter-Bold-2c" transform="scale(0.015625)"/>
      <path d="M 1964 -68 
Q 1427 -68 1042 160 
Q 657 389 451 795 
Q 246 1202 246 1732 
Q 246 2268 453 2674 
Q 661 3080 1045 3308 
Q 1430 3536 1959 3536 
Q 2416 3536 2760 3370 
Q 3105 3205 3303 2905 
Q 3502 2605 3523 2200 
L 2609 2200 
Q 2571 2461 2406 2621 
Q 2241 2782 1975 2782 
Q 1639 2782 1434 2511 
Q 1230 2241 1230 1745 
Q 1230 1245 1433 971 
Q 1636 698 1975 698 
Q 2225 698 2395 849 
Q 2566 1000 2609 1280 
L 3523 1280 
Q 3500 880 3305 575 
Q 3111 270 2770 101 
Q 2430 -68 1964 -68 
z
" id="Inter-Bold-63" transform="scale(0.015625)"/>
     </defs>
     <use xlink:href="#Inter-Bold-41"/>
     <use x="74.786942" xlink:href="#Inter-Bold-76"/>
     <use x="133.380707" xlink:href="#Inter-Bold-65"/>
     <use x="193.146347" xlink:href="#Inter-Bold-72"/>
     <use x="236.008575" xlink:href="#Inter-Bold-61"/>
     <use x="294.034149" xlink:href="#Inter-Bold-67"/>
     <use x="357.350922" xlink:href="#Inter-Bold-65"/>
     <use x="417.116562" xlink:href="#Inter-Bold-20"/>
     <use x="440.305481" xlink:href="#Inter-Bold-70"/>
     <use x="503.551239" xlink:href="#Inter-Bold-61"/>
     <use x="561.576813" xlink:href="#Inter-Bold-74"/>
     <use x="600.426254" xlink:href="#Inter-Bold-69"/>
     <use x="627.62796" xlink:href="#Inter-Bold-65"/>
     <use x="687.3936" xlink:href="#Inter-Bold-6e"/>
     <use x="749.574005" xlink:href="#Inter-Bold-74"/>
     <use x="788.423447" xlink:href="#Inter-Bold-73"/>
     <use x="844.602432" xlink:href="#Inter-Bold-20"/>
     <use x="867.791351" xlink:href="#Inter-Bold-69"/>
     <use x="894.993057" xlink:href="#Inter-Bold-6e"/>
     <use x="957.173462" xlink:href="#Inter-Bold-20"/>
     <use x="980.362381" xlink:href="#Inter-Bold-68"/>
     <use x="1042.791367" xlink:href="#Inter-Bold-6f"/>
     <use x="1104.155014" xlink:href="#Inter-Bold-73"/>
     <use x="1160.334" xlink:href="#Inter-Bold-70"/>
     <use x="1223.579758" xlink:href="#Inter-Bold-69"/>
     <use x="1250.781464" xlink:href="#Inter-Bold-74"/>
     <use x="1289.630905" xlink:href="#Inter-Bold-61"/>
     <use x="1347.656479" xlink:href="#Inter-Bold-6c"/>
     <use x="1374.858185" xlink:href="#Inter-Bold-20"/>
     <use x="1398.047104" xlink:href="#Inter-Bold-77"/>
     <use x="1483.061325" xlink:href="#Inter-Bold-69"/>
     <use x="1510.263031" xlink:href="#Inter-Bold-74"/>
     <use x="1549.112473" xlink:href="#Inter-Bold-68"/>
     <use x="1611.541458" xlink:href="#Inter-Bold-20"/>
     <use x="1634.730377" xlink:href="#Inter-Bold-43"/>
     <use x="1709.943466" xlink:href="#Inter-Bold-4f"/>
     <use x="1788.139511" xlink:href="#Inter-Bold-56"/>
     <use x="1862.926453" xlink:href="#Inter-Bold-49"/>
     <use x="1890.980438" xlink:href="#Inter-Bold-44"/>
     <use x="1963.707733" xlink:href="#Inter-Bold-2d"/>
     <use x="2010.582748" xlink:href="#Inter-Bold-31"/>
     <use x="2057.990433" xlink:href="#Inter-Bold-39"/>
     <use x="2124.006073" xlink:href="#Inter-Bold-2c"/>
     <use x="2154.297272" xlink:href="#Inter-Bold-20"/>
     <use x="2177.486191" xlink:href="#Inter-Bold-70"/>
     <use x="2240.731949" xlink:href="#Inter-Bold-65"/>
     <use x="2300.497589" xlink:href="#Inter-Bold-72"/>
     <use x="2343.359818" xlink:href="#Inter-Bold-20"/>
     <use x="2366.548737" xlink:href="#Inter-Bold-63"/>
     <use x="2425.284546" xlink:href="#Inter-Bold-61"/>
     <use x="2483.31012" xlink:href="#Inter-Bold-70"/>
     <use x="2546.555878" xlink:href="#Inter-Bold-69"/>
     <use x="2573.757584" xlink:href="#Inter-Bold-74"/>
     <use x="2612.607025" xlink:href="#Inter-Bold-61"/>
    </g>
   </g>
   <g id="legend_1">
    <g id="patch_4">
     <path d="M 621.601562 98.614062 
L 731.175 98.614062 
Q 733.175 98.614062 733.175 96.614062 
L 733.175 40.225 
Q 733.175 38.225 731.175 38.225 
L 621.601562 38.225 
Q 619.601562 38.225 619.601562 40.225 
L 619.601562 96.614062 
Q 619.601562 98.614062 621.601562 98.614062 
z
" style="fill:#ffffff;opacity:0.8;stroke:#cccccc;stroke-linejoin:miter;"/>
    </g>
    <g id="line2d_39">
     <path d="M 623.601562 45.998437 
L 643.601562 45.998437 
" style="fill:none;stroke:#d4351c;stroke-linecap:square;stroke-width:2;"/>
    </g>
    <g id="line2d_40"/>
    <g id="text_20">
     <!-- Wales -->
     <g transform="translate(651.601562 49.498437)scale(0.1 -0.1)">
      <defs>
       <path d="M 1409 0 
L 136 4655 
L 709 4655 
L 1682 864 
L 1727 864 
L 2718 4655 
L 3355 4655 
L 4346 864 
L 4391 864 
L 5364 4655 
L 5936 4655 
L 4664 0 
L 4082 0 
L 3055 3709 
L 3018 3709 
L 1991 0 
L 1409 0 
z
" id="Inter-Regular-57" transform="scale(0.015625)"/>
      </defs>
      <use xlink:href="#Inter-Regular-57"/>
      <use x="94.886383" xlink:href="#Inter-Regular-61"/>
      <use x="151.278442" xlink:href="#Inter-Regular-6c"/>
      <use x="175.000031" xlink:href="#Inter-Regular-65"/>
      <use x="233.238678" xlink:href="#Inter-Regular-73"/>
     </g>
    </g>
    <g id="line2d_41">
     <path d="M 623.601562 60.317187 
L 643.601562 60.317187 
" style="fill:none;stroke:#003078;stroke-linecap:square;stroke-width:2;"/>
    </g>
    <g id="line2d_42"/>
    <g id="text_21">
     <!-- Scotland -->
     <g transform="translate(651.601562 63.817187)scale(0.1 -0.1)">
      <use xlink:href="#Inter-Regular-53"/>
      <use x="63.778427" xlink:href="#Inter-Regular-63"/>
      <use x="119.602295" xlink:href="#Inter-Regular-6f"/>
      <use x="179.261398" xlink:href="#Inter-Regular-74"/>
      <use x="215.625046" xlink:href="#Inter-Regular-6c"/>
      <use x="239.346634" xlink:href="#Inter-Regular-61"/>
      <use x="295.738693" xlink:href="#Inter-Regular-6e"/>
      <use x="354.261429" xlink:href="#Inter-Regular-64"/>
     </g>
    </g>
    <g id="line2d_43">
     <path d="M 623.601562 74.635937 
L 643.601562 74.635937 
" style="fill:none;stroke:#ffdd00;stroke-linecap:square;stroke-width:2;"/>
    </g>
    <g id="line2d_44"/>
    <g id="text_22">
     <!-- Northern Ireland -->
     <g transform="translate(651.601562 78.135937)scale(0.1 -0.1)">
      <use xlink:href="#Inter-Regular-4e"/>
      <use x="75.284103" xlink:href="#Inter-Regular-6f"/>
      <use x="134.943207" xlink:href="#Inter-Regular-72"/>
      <use x="173.295486" xlink:href="#Inter-Regular-74"/>
      <use x="209.659134" xlink:href="#Inter-Regular-68"/>
      <use x="268.750061" xlink:href="#Inter-Regular-65"/>
      <use x="326.988708" xlink:href="#Inter-Regular-72"/>
      <use x="365.340988" xlink:href="#Inter-Regular-6e"/>
      <use x="423.863724" xlink:href="#Inter-Regular-20"/>
      <use x="451.988724" xlink:href="#Inter-Regular-49"/>
      <use x="478.40918" xlink:href="#Inter-Regular-72"/>
      <use x="516.761459" xlink:href="#Inter-Regular-65"/>
      <use x="575.000107" xlink:href="#Inter-Regular-6c"/>
      <use x="598.721695" xlink:href="#Inter-Regular-61"/>
      <use x="655.113754" xlink:href="#Inter-Regular-6e"/>
      <use x="713.63649" xlink:href="#Inter-Regular-64"/>
     </g>
    </g>
    <g id="line2d_45">
     <path d="M 623.601562 88.954687 
L 643.601562 88.954687 
" style="fill:none;stroke:#5694ca;stroke-linecap:square;stroke-width:2;"/>
    </g>
    <g id="line2d_46"/>
    <g id="text_23">
     <!-- England -->
     <g transform="translate(651.601562 92.454687)scale(0.1 -0.1)">
      <defs>
       <path d="M 564 0 
L 564 4655 
L 3373 4655 
L 3373 4155 
L 1127 4155 
L 1127 2582 
L 3227 2582 
L 3227 2082 
L 1127 2082 
L 1127 500 
L 3409 500 
L 3409 0 
L 564 0 
z
" id="Inter-Regular-45" transform="scale(0.015625)"/>
      </defs>
      <use xlink:href="#Inter-Regular-45"/>
      <use x="59.801147" xlink:href="#Inter-Regular-6e"/>
      <use x="118.323883" xlink:href="#Inter-Regular-67"/>
      <use x="179.261398" xlink:href="#Inter-Regular-6c"/>
      <use x="202.982986" xlink:href="#Inter-Regular-61"/>
      <use x="259.375046" xlink:href="#Inter-Regular-6e"/>
      <use x="317.897781" xlink:href="#Inter-Regular-64"/>
     </g>
    </g>
   </g>
  </g>
 </g>
 <defs>
  <clipPath id="p019c3d16a6">
   <rect height="443.52" width="669.6" x="68.575" y="33.225"/>
  </clipPath>
 </defs>
</svg>
