<?xml version="1.0" encoding="utf-8" standalone="no"?>
<!DOCTYPE svg PUBLIC "-//W3C//DTD SVG 1.1//EN"
  "http://www.w3.org/Graphics/SVG/1.1/DTD/svg11.dtd">
<svg xmlns:xlink="http://www.w3.org/1999/xlink" viewBox="0 0 754.268516 511.234062" xmlns="http://www.w3.org/2000/svg" version="1.1">
 <metadata>
  <rdf:RDF xmlns:dc="http://purl.org/dc/elements/1.1/" xmlns:cc="http://creativecommons.org/ns#" xmlns:rdf="http://www.w3.org/1999/02/22-rdf-syntax-ns#">
   <cc:Work>
    <dc:type rdf:resource="http://purl.org/dc/dcmitype/StillImage"/>
    <dc:date>2022-01-08T17:19:06.437127</dc:date>
    <dc:format>image/svg+xml</dc:format>
    <dc:creator>
     <cc:Agent>
      <dc:title>Matplotlib v3.5.1, https://matplotlib.org/</dc:title>
     </cc:Agent>
    </dc:creator>
   </cc:Work>
  </rdf:RDF>
 </metadata>
 <defs>
  <style type="text/css">*{stroke-linejoin: round; stroke-linecap: butt}</style>
 </defs>
 <g id="figure_1">
  <g id="patch_1">
   <path d="M 0 511.234062 
L 754.268516 511.234062 
L 754.268516 0 
L 0 0 
z
" style="fill: #ffffff"/>
  </g>
  <g id="axes_1">
   <g id="patch_2">
    <path d="M 59.085938 476.745 
L 728.685938 476.745 
L 728.685938 33.225 
L 59.085938 33.225 
z
" style="fill: #ffffff"/>
   </g>
   <g id="matplotlib.axis_1">
    <g id="xtick_1">
     <g id="line2d_1">
      <defs>
       <path id="mb756559088" d="M 0 0 
L 0 3.5 
" style="stroke: #000000; stroke-width: 0.8"/>
      </defs>
      <g>
       <use xlink:href="#mb756559088" x="59.085938" y="476.745" style="stroke: #000000; stroke-width: 0.8"/>
      </g>
     </g>
     <g id="text_1">
      <!-- 01 Mar -->
      <g transform="translate(43.049219 491.018437)scale(0.1 -0.1)">
       <defs>
        <path id="Inter-Regular-30" d="M 2000 -64 
Q 1230 -64 806 561 
Q 382 1186 382 2327 
Q 382 3459 809 4088 
Q 1236 4718 2000 4718 
Q 2764 4718 3191 4088 
Q 3618 3459 3618 2327 
Q 3618 1186 3194 561 
Q 2771 -64 2000 -64 
z
M 2000 436 
Q 2509 436 2791 927 
Q 3073 1418 3073 2327 
Q 3073 3234 2789 3730 
Q 2505 4227 2000 4227 
Q 1496 4227 1211 3730 
Q 927 3234 927 2327 
Q 927 1418 1210 927 
Q 1493 436 2000 436 
z
" transform="scale(0.015625)"/>
        <path id="Inter-Regular-31" d="M 1973 4655 
L 1973 0 
L 1409 0 
L 1409 3836 
L 1373 3836 
Q 1341 3773 1209 3692 
Q 1077 3611 868 3551 
Q 659 3491 391 3491 
L 391 3964 
Q 661 3964 859 4061 
Q 1057 4159 1190 4291 
Q 1323 4423 1392 4529 
Q 1461 4636 1473 4655 
L 1973 4655 
z
" transform="scale(0.015625)"/>
        <path id="Inter-Regular-20" transform="scale(0.015625)"/>
        <path id="Inter-Regular-4d" d="M 564 4655 
L 1236 4655 
L 2818 791 
L 2873 791 
L 4455 4655 
L 5127 4655 
L 5127 0 
L 4600 0 
L 4600 3536 
L 4555 3536 
L 3100 0 
L 2591 0 
L 1136 3536 
L 1091 3536 
L 1091 0 
L 564 0 
L 564 4655 
z
" transform="scale(0.015625)"/>
        <path id="Inter-Regular-61" d="M 1518 -82 
Q 1186 -82 916 44 
Q 646 170 486 410 
Q 327 650 327 991 
Q 327 1291 445 1478 
Q 564 1666 761 1773 
Q 959 1880 1199 1933 
Q 1439 1986 1682 2018 
Q 2000 2059 2199 2080 
Q 2398 2102 2490 2154 
Q 2582 2207 2582 2336 
L 2582 2355 
Q 2582 2691 2399 2877 
Q 2216 3064 1846 3064 
Q 1461 3064 1243 2895 
Q 1025 2727 936 2536 
L 427 2718 
Q 564 3036 792 3214 
Q 1021 3393 1292 3464 
Q 1564 3536 1827 3536 
Q 1996 3536 2215 3496 
Q 2434 3457 2640 3334 
Q 2846 3211 2982 2963 
Q 3118 2716 3118 2300 
L 3118 0 
L 2582 0 
L 2582 473 
L 2555 473 
Q 2500 359 2373 229 
Q 2246 100 2034 9 
Q 1823 -82 1518 -82 
z
M 1600 400 
Q 1918 400 2137 525 
Q 2357 650 2469 847 
Q 2582 1045 2582 1264 
L 2582 1755 
Q 2548 1714 2433 1681 
Q 2318 1648 2169 1624 
Q 2021 1600 1881 1583 
Q 1741 1566 1655 1555 
Q 1446 1527 1265 1467 
Q 1084 1407 974 1287 
Q 864 1168 864 964 
Q 864 684 1072 542 
Q 1280 400 1600 400 
z
" transform="scale(0.015625)"/>
        <path id="Inter-Regular-72" d="M 491 0 
L 491 3491 
L 1009 3491 
L 1009 2964 
L 1046 2964 
Q 1139 3223 1389 3384 
Q 1639 3545 1955 3545 
Q 2100 3545 2209 3511 
Q 2318 3477 2400 3418 
L 2218 2964 
Q 2161 2993 2085 3010 
Q 2009 3027 1909 3027 
Q 1527 3027 1277 2794 
Q 1027 2561 1027 2209 
L 1027 0 
L 491 0 
z
" transform="scale(0.015625)"/>
       </defs>
       <use xlink:href="#Inter-Regular-30"/>
       <use xlink:href="#Inter-Regular-31" x="62.500015"/>
       <use xlink:href="#Inter-Regular-20" x="106.676163"/>
       <use xlink:href="#Inter-Regular-4d" x="134.801163"/>
       <use xlink:href="#Inter-Regular-61" x="225.99437"/>
       <use xlink:href="#Inter-Regular-72" x="282.386429"/>
      </g>
     </g>
    </g>
    <g id="xtick_2">
     <g id="line2d_2">
      <g>
       <use xlink:href="#mb756559088" x="89.669371" y="476.745" style="stroke: #000000; stroke-width: 0.8"/>
      </g>
     </g>
    </g>
    <g id="xtick_3">
     <g id="line2d_3">
      <g>
       <use xlink:href="#mb756559088" x="119.266243" y="476.745" style="stroke: #000000; stroke-width: 0.8"/>
      </g>
     </g>
     <g id="text_2">
      <!-- 01 May -->
      <g transform="translate(102.363118 491.116875)scale(0.1 -0.1)">
       <defs>
        <path id="Inter-Regular-79" d="M 818 -1355 
Q 682 -1355 575 -1333 
Q 468 -1311 427 -1291 
L 564 -818 
Q 857 -893 1053 -814 
Q 1250 -736 1391 -345 
L 1509 -18 
L 218 3491 
L 800 3491 
L 1764 709 
L 1800 709 
L 2764 3491 
L 3346 3491 
L 1846 -564 
Q 1550 -1355 818 -1355 
z
" transform="scale(0.015625)"/>
       </defs>
       <use xlink:href="#Inter-Regular-30"/>
       <use xlink:href="#Inter-Regular-31" x="62.500015"/>
       <use xlink:href="#Inter-Regular-20" x="106.676163"/>
       <use xlink:href="#Inter-Regular-4d" x="134.801163"/>
       <use xlink:href="#Inter-Regular-61" x="225.99437"/>
       <use xlink:href="#Inter-Regular-79" x="282.386429"/>
      </g>
     </g>
    </g>
    <g id="xtick_4">
     <g id="line2d_4">
      <g>
       <use xlink:href="#mb756559088" x="149.849677" y="476.745" style="stroke: #000000; stroke-width: 0.8"/>
      </g>
     </g>
    </g>
    <g id="xtick_5">
     <g id="line2d_5">
      <g>
       <use xlink:href="#mb756559088" x="179.446548" y="476.745" style="stroke: #000000; stroke-width: 0.8"/>
      </g>
     </g>
     <g id="text_3">
      <!-- 01 Jul -->
      <g transform="translate(165.902798 491.018437)scale(0.1 -0.1)">
       <defs>
        <path id="Inter-Regular-4a" d="M 2346 4655 
L 2909 4655 
L 2909 1327 
Q 2909 657 2549 296 
Q 2189 -64 1582 -64 
Q 1200 -64 902 76 
Q 605 216 434 475 
Q 264 734 264 1091 
L 818 1091 
Q 818 795 1034 615 
Q 1250 436 1582 436 
Q 1948 436 2147 664 
Q 2346 893 2346 1327 
L 2346 4655 
z
" transform="scale(0.015625)"/>
        <path id="Inter-Regular-75" d="M 2691 1427 
L 2691 3491 
L 3227 3491 
L 3227 0 
L 2691 0 
L 2691 591 
L 2655 591 
Q 2532 325 2273 140 
Q 2014 -45 1618 -45 
Q 1127 -45 809 280 
Q 491 605 491 1273 
L 491 3491 
L 1027 3491 
L 1027 1309 
Q 1027 927 1242 700 
Q 1457 473 1791 473 
Q 1991 473 2199 575 
Q 2407 677 2549 888 
Q 2691 1100 2691 1427 
z
" transform="scale(0.015625)"/>
        <path id="Inter-Regular-6c" d="M 1027 4655 
L 1027 0 
L 491 0 
L 491 4655 
L 1027 4655 
z
" transform="scale(0.015625)"/>
       </defs>
       <use xlink:href="#Inter-Regular-30"/>
       <use xlink:href="#Inter-Regular-31" x="62.500015"/>
       <use xlink:href="#Inter-Regular-20" x="106.676163"/>
       <use xlink:href="#Inter-Regular-4a" x="134.801163"/>
       <use xlink:href="#Inter-Regular-75" x="189.062531"/>
       <use xlink:href="#Inter-Regular-6c" x="247.159134"/>
      </g>
     </g>
    </g>
    <g id="xtick_6">
     <g id="line2d_6">
      <g>
       <use xlink:href="#mb756559088" x="210.029982" y="476.745" style="stroke: #000000; stroke-width: 0.8"/>
      </g>
     </g>
    </g>
    <g id="xtick_7">
     <g id="line2d_7">
      <g>
       <use xlink:href="#mb756559088" x="240.613416" y="476.745" style="stroke: #000000; stroke-width: 0.8"/>
      </g>
     </g>
     <g id="text_4">
      <!-- 01 Sep -->
      <g transform="translate(224.725916 491.116875)scale(0.1 -0.1)">
       <defs>
        <path id="Inter-Regular-53" d="M 3109 3491 
Q 3068 3836 2777 4027 
Q 2486 4218 2064 4218 
Q 1600 4218 1318 3999 
Q 1036 3780 1036 3445 
Q 1036 3195 1189 3042 
Q 1343 2889 1553 2803 
Q 1764 2718 1936 2673 
L 2409 2545 
Q 2591 2498 2815 2414 
Q 3039 2330 3244 2185 
Q 3450 2041 3584 1816 
Q 3718 1591 3718 1264 
Q 3718 886 3521 581 
Q 3325 277 2949 97 
Q 2573 -82 2036 -82 
Q 1286 -82 845 272 
Q 405 627 364 1200 
L 946 1200 
Q 968 936 1124 764 
Q 1280 593 1519 510 
Q 1759 427 2036 427 
Q 2359 427 2616 533 
Q 2873 639 3023 828 
Q 3173 1018 3173 1273 
Q 3173 1505 3043 1650 
Q 2914 1795 2702 1886 
Q 2491 1977 2246 2045 
L 1673 2209 
Q 1127 2366 809 2657 
Q 491 2948 491 3418 
Q 491 3809 703 4101 
Q 916 4393 1276 4555 
Q 1636 4718 2082 4718 
Q 2532 4718 2882 4558 
Q 3232 4398 3437 4120 
Q 3643 3843 3655 3491 
L 3109 3491 
z
" transform="scale(0.015625)"/>
        <path id="Inter-Regular-65" d="M 1955 -73 
Q 1450 -73 1085 151 
Q 721 375 524 778 
Q 327 1182 327 1718 
Q 327 2255 524 2665 
Q 721 3075 1074 3305 
Q 1427 3536 1900 3536 
Q 2173 3536 2439 3445 
Q 2705 3355 2923 3151 
Q 3141 2948 3270 2614 
Q 3400 2280 3400 1791 
L 3400 1564 
L 866 1564 
Q 884 1005 1183 707 
Q 1482 409 1955 409 
Q 2271 409 2498 545 
Q 2725 682 2827 955 
L 3346 809 
Q 3223 414 2854 170 
Q 2486 -73 1955 -73 
z
M 866 2027 
L 2855 2027 
Q 2855 2470 2595 2762 
Q 2336 3055 1900 3055 
Q 1593 3055 1368 2911 
Q 1143 2768 1013 2533 
Q 884 2298 866 2027 
z
" transform="scale(0.015625)"/>
        <path id="Inter-Regular-70" d="M 491 -1309 
L 491 3491 
L 1009 3491 
L 1009 2936 
L 1073 2936 
Q 1132 3027 1237 3169 
Q 1343 3311 1542 3423 
Q 1741 3536 2082 3536 
Q 2523 3536 2859 3315 
Q 3196 3095 3384 2690 
Q 3573 2286 3573 1736 
Q 3573 1182 3384 776 
Q 3196 370 2861 148 
Q 2527 -73 2091 -73 
Q 1755 -73 1552 39 
Q 1350 152 1241 296 
Q 1132 441 1073 536 
L 1027 536 
L 1027 -1309 
L 491 -1309 
z
M 1018 1745 
Q 1018 1152 1276 780 
Q 1534 409 2018 409 
Q 2355 409 2581 587 
Q 2807 766 2921 1069 
Q 3036 1373 3036 1745 
Q 3036 2114 2923 2410 
Q 2811 2707 2585 2881 
Q 2359 3055 2018 3055 
Q 1527 3055 1272 2693 
Q 1018 2332 1018 1745 
z
" transform="scale(0.015625)"/>
       </defs>
       <use xlink:href="#Inter-Regular-30"/>
       <use xlink:href="#Inter-Regular-31" x="62.500015"/>
       <use xlink:href="#Inter-Regular-20" x="106.676163"/>
       <use xlink:href="#Inter-Regular-53" x="134.801163"/>
       <use xlink:href="#Inter-Regular-65" x="198.57959"/>
       <use xlink:href="#Inter-Regular-70" x="256.818237"/>
      </g>
     </g>
    </g>
    <g id="xtick_8">
     <g id="line2d_8">
      <g>
       <use xlink:href="#mb756559088" x="270.210288" y="476.745" style="stroke: #000000; stroke-width: 0.8"/>
      </g>
     </g>
    </g>
    <g id="xtick_9">
     <g id="line2d_9">
      <g>
       <use xlink:href="#mb756559088" x="300.793722" y="476.745" style="stroke: #000000; stroke-width: 0.8"/>
      </g>
     </g>
     <g id="text_5">
      <!-- 01 Nov -->
      <g transform="translate(284.522628 491.018437)scale(0.1 -0.1)">
       <defs>
        <path id="Inter-Regular-4e" d="M 4255 4655 
L 4255 0 
L 3709 0 
L 1173 3655 
L 1127 3655 
L 1127 0 
L 564 0 
L 564 4655 
L 1109 4655 
L 3655 991 
L 3700 991 
L 3700 4655 
L 4255 4655 
z
" transform="scale(0.015625)"/>
        <path id="Inter-Regular-6f" d="M 1909 -73 
Q 1436 -73 1080 152 
Q 725 377 526 781 
Q 327 1186 327 1727 
Q 327 2273 526 2679 
Q 725 3086 1080 3311 
Q 1436 3536 1909 3536 
Q 2382 3536 2737 3311 
Q 3093 3086 3292 2679 
Q 3491 2273 3491 1727 
Q 3491 1186 3292 781 
Q 3093 377 2737 152 
Q 2382 -73 1909 -73 
z
M 1909 409 
Q 2268 409 2500 593 
Q 2732 777 2843 1077 
Q 2955 1377 2955 1727 
Q 2955 2077 2843 2379 
Q 2732 2682 2500 2868 
Q 2268 3055 1909 3055 
Q 1550 3055 1318 2868 
Q 1086 2682 975 2379 
Q 864 2077 864 1727 
Q 864 1377 975 1077 
Q 1086 777 1318 593 
Q 1550 409 1909 409 
z
" transform="scale(0.015625)"/>
        <path id="Inter-Regular-76" d="M 3346 3491 
L 2055 0 
L 1509 0 
L 218 3491 
L 800 3491 
L 1764 709 
L 1800 709 
L 2764 3491 
L 3346 3491 
z
" transform="scale(0.015625)"/>
       </defs>
       <use xlink:href="#Inter-Regular-30"/>
       <use xlink:href="#Inter-Regular-31" x="62.500015"/>
       <use xlink:href="#Inter-Regular-20" x="106.676163"/>
       <use xlink:href="#Inter-Regular-4e" x="134.801163"/>
       <use xlink:href="#Inter-Regular-6f" x="210.085266"/>
       <use xlink:href="#Inter-Regular-76" x="269.74437"/>
      </g>
     </g>
    </g>
    <g id="xtick_10">
     <g id="line2d_10">
      <g>
       <use xlink:href="#mb756559088" x="330.390593" y="476.745" style="stroke: #000000; stroke-width: 0.8"/>
      </g>
     </g>
    </g>
    <g id="xtick_11">
     <g id="line2d_11">
      <g>
       <use xlink:href="#mb756559088" x="360.974027" y="476.745" style="stroke: #000000; stroke-width: 0.8"/>
      </g>
     </g>
     <g id="text_6">
      <!-- 01 Jan -->
      <g transform="translate(345.774808 491.018437)scale(0.1 -0.1)">
       <defs>
        <path id="Inter-Regular-6e" d="M 1027 2100 
L 1027 0 
L 491 0 
L 491 3491 
L 1009 3491 
L 1009 2945 
L 1055 2945 
Q 1177 3211 1427 3373 
Q 1677 3536 2073 3536 
Q 2602 3536 2928 3211 
Q 3255 2886 3255 2218 
L 3255 0 
L 2718 0 
L 2718 2182 
Q 2718 2593 2504 2824 
Q 2291 3055 1918 3055 
Q 1534 3055 1280 2806 
Q 1027 2557 1027 2100 
z
" transform="scale(0.015625)"/>
       </defs>
       <use xlink:href="#Inter-Regular-30"/>
       <use xlink:href="#Inter-Regular-31" x="62.500015"/>
       <use xlink:href="#Inter-Regular-20" x="106.676163"/>
       <use xlink:href="#Inter-Regular-4a" x="134.801163"/>
       <use xlink:href="#Inter-Regular-61" x="189.062531"/>
       <use xlink:href="#Inter-Regular-6e" x="245.45459"/>
      </g>
     </g>
    </g>
    <g id="xtick_12">
     <g id="line2d_12">
      <g>
       <use xlink:href="#mb756559088" x="391.557461" y="476.745" style="stroke: #000000; stroke-width: 0.8"/>
      </g>
     </g>
    </g>
    <g id="xtick_13">
     <g id="line2d_13">
      <g>
       <use xlink:href="#mb756559088" x="419.181208" y="476.745" style="stroke: #000000; stroke-width: 0.8"/>
      </g>
     </g>
     <g id="text_7">
      <!-- 01 Mar -->
      <g transform="translate(403.144489 491.018437)scale(0.1 -0.1)">
       <use xlink:href="#Inter-Regular-30"/>
       <use xlink:href="#Inter-Regular-31" x="62.500015"/>
       <use xlink:href="#Inter-Regular-20" x="106.676163"/>
       <use xlink:href="#Inter-Regular-4d" x="134.801163"/>
       <use xlink:href="#Inter-Regular-61" x="225.99437"/>
       <use xlink:href="#Inter-Regular-72" x="282.386429"/>
      </g>
     </g>
    </g>
    <g id="xtick_14">
     <g id="line2d_14">
      <g>
       <use xlink:href="#mb756559088" x="449.764642" y="476.745" style="stroke: #000000; stroke-width: 0.8"/>
      </g>
     </g>
    </g>
    <g id="xtick_15">
     <g id="line2d_15">
      <g>
       <use xlink:href="#mb756559088" x="479.361513" y="476.745" style="stroke: #000000; stroke-width: 0.8"/>
      </g>
     </g>
     <g id="text_8">
      <!-- 01 May -->
      <g transform="translate(462.458388 491.116875)scale(0.1 -0.1)">
       <use xlink:href="#Inter-Regular-30"/>
       <use xlink:href="#Inter-Regular-31" x="62.500015"/>
       <use xlink:href="#Inter-Regular-20" x="106.676163"/>
       <use xlink:href="#Inter-Regular-4d" x="134.801163"/>
       <use xlink:href="#Inter-Regular-61" x="225.99437"/>
       <use xlink:href="#Inter-Regular-79" x="282.386429"/>
      </g>
     </g>
    </g>
    <g id="xtick_16">
     <g id="line2d_16">
      <g>
       <use xlink:href="#mb756559088" x="509.944947" y="476.745" style="stroke: #000000; stroke-width: 0.8"/>
      </g>
     </g>
    </g>
    <g id="xtick_17">
     <g id="line2d_17">
      <g>
       <use xlink:href="#mb756559088" x="539.541819" y="476.745" style="stroke: #000000; stroke-width: 0.8"/>
      </g>
     </g>
     <g id="text_9">
      <!-- 01 Jul -->
      <g transform="translate(525.998069 491.018437)scale(0.1 -0.1)">
       <use xlink:href="#Inter-Regular-30"/>
       <use xlink:href="#Inter-Regular-31" x="62.500015"/>
       <use xlink:href="#Inter-Regular-20" x="106.676163"/>
       <use xlink:href="#Inter-Regular-4a" x="134.801163"/>
       <use xlink:href="#Inter-Regular-75" x="189.062531"/>
       <use xlink:href="#Inter-Regular-6c" x="247.159134"/>
      </g>
     </g>
    </g>
    <g id="xtick_18">
     <g id="line2d_18">
      <g>
       <use xlink:href="#mb756559088" x="570.125253" y="476.745" style="stroke: #000000; stroke-width: 0.8"/>
      </g>
     </g>
    </g>
    <g id="xtick_19">
     <g id="line2d_19">
      <g>
       <use xlink:href="#mb756559088" x="600.708687" y="476.745" style="stroke: #000000; stroke-width: 0.8"/>
      </g>
     </g>
     <g id="text_10">
      <!-- 01 Sep -->
      <g transform="translate(584.821187 491.116875)scale(0.1 -0.1)">
       <use xlink:href="#Inter-Regular-30"/>
       <use xlink:href="#Inter-Regular-31" x="62.500015"/>
       <use xlink:href="#Inter-Regular-20" x="106.676163"/>
       <use xlink:href="#Inter-Regular-53" x="134.801163"/>
       <use xlink:href="#Inter-Regular-65" x="198.57959"/>
       <use xlink:href="#Inter-Regular-70" x="256.818237"/>
      </g>
     </g>
    </g>
    <g id="xtick_20">
     <g id="line2d_20">
      <g>
       <use xlink:href="#mb756559088" x="630.305558" y="476.745" style="stroke: #000000; stroke-width: 0.8"/>
      </g>
     </g>
    </g>
    <g id="xtick_21">
     <g id="line2d_21">
      <g>
       <use xlink:href="#mb756559088" x="660.888992" y="476.745" style="stroke: #000000; stroke-width: 0.8"/>
      </g>
     </g>
     <g id="text_11">
      <!-- 01 Nov -->
      <g transform="translate(644.617898 491.018437)scale(0.1 -0.1)">
       <use xlink:href="#Inter-Regular-30"/>
       <use xlink:href="#Inter-Regular-31" x="62.500015"/>
       <use xlink:href="#Inter-Regular-20" x="106.676163"/>
       <use xlink:href="#Inter-Regular-4e" x="134.801163"/>
       <use xlink:href="#Inter-Regular-6f" x="210.085266"/>
       <use xlink:href="#Inter-Regular-76" x="269.74437"/>
      </g>
     </g>
    </g>
    <g id="xtick_22">
     <g id="line2d_22">
      <g>
       <use xlink:href="#mb756559088" x="690.485864" y="476.745" style="stroke: #000000; stroke-width: 0.8"/>
      </g>
     </g>
    </g>
    <g id="xtick_23">
     <g id="line2d_23">
      <g>
       <use xlink:href="#mb756559088" x="721.069298" y="476.745" style="stroke: #000000; stroke-width: 0.8"/>
      </g>
     </g>
     <g id="text_12">
      <!-- 01 Jan -->
      <g transform="translate(705.870079 491.018437)scale(0.1 -0.1)">
       <use xlink:href="#Inter-Regular-30"/>
       <use xlink:href="#Inter-Regular-31" x="62.500015"/>
       <use xlink:href="#Inter-Regular-20" x="106.676163"/>
       <use xlink:href="#Inter-Regular-4a" x="134.801163"/>
       <use xlink:href="#Inter-Regular-61" x="189.062531"/>
       <use xlink:href="#Inter-Regular-6e" x="245.45459"/>
      </g>
     </g>
    </g>
   </g>
   <g id="matplotlib.axis_2">
    <g id="ytick_1">
     <g id="line2d_24">
      <path d="M 59.085938 476.745 
L 728.685938 476.745 
" clip-path="url(#p442cf3a639)" style="fill: none; stroke: #e5e5e5; stroke-width: 0.8; stroke-linecap: square"/>
     </g>
     <g id="line2d_25">
      <defs>
       <path id="m7a271721ef" d="M 0 0 
L -3.5 0 
" style="stroke: #000000; stroke-width: 0.8"/>
      </defs>
      <g>
       <use xlink:href="#m7a271721ef" x="59.085938" y="476.745" style="stroke: #000000; stroke-width: 0.8"/>
      </g>
     </g>
     <g id="text_13">
      <!-- 0% -->
      <g transform="translate(37.710938 480.381719)scale(0.1 -0.1)">
       <defs>
        <path id="Inter-Regular-25" d="M 2855 873 
L 2855 1118 
Q 2855 1373 2960 1585 
Q 3066 1798 3269 1926 
Q 3473 2055 3764 2055 
Q 4059 2055 4259 1926 
Q 4459 1798 4561 1585 
Q 4664 1373 4664 1118 
L 4664 873 
Q 4664 618 4560 405 
Q 4457 193 4256 64 
Q 4055 -64 3764 -64 
Q 3468 -64 3266 64 
Q 3064 193 2959 405 
Q 2855 618 2855 873 
z
M 536 3536 
L 536 3782 
Q 536 4036 642 4248 
Q 748 4461 951 4589 
Q 1155 4718 1446 4718 
Q 1741 4718 1941 4589 
Q 2141 4461 2243 4248 
Q 2346 4036 2346 3782 
L 2346 3536 
Q 2346 3282 2242 3069 
Q 2139 2857 1937 2728 
Q 1736 2600 1446 2600 
Q 1150 2600 948 2728 
Q 746 2857 641 3069 
Q 536 3282 536 3536 
z
M 709 0 
L 3909 4655 
L 4427 4655 
L 1227 0 
L 709 0 
z
M 3318 1118 
L 3318 873 
Q 3318 661 3418 494 
Q 3518 327 3764 327 
Q 4002 327 4101 494 
Q 4200 661 4200 873 
L 4200 1118 
Q 4200 1330 4104 1497 
Q 4009 1664 3764 1664 
Q 3525 1664 3421 1497 
Q 3318 1330 3318 1118 
z
M 1000 3782 
L 1000 3536 
Q 1000 3325 1100 3158 
Q 1200 2991 1446 2991 
Q 1684 2991 1783 3158 
Q 1882 3325 1882 3536 
L 1882 3782 
Q 1882 3993 1786 4160 
Q 1691 4327 1446 4327 
Q 1207 4327 1103 4160 
Q 1000 3993 1000 3782 
z
" transform="scale(0.015625)"/>
       </defs>
       <use xlink:href="#Inter-Regular-30"/>
       <use xlink:href="#Inter-Regular-25" x="62.500015"/>
      </g>
     </g>
    </g>
    <g id="ytick_2">
     <g id="line2d_26">
      <path d="M 59.085938 381.255818 
L 728.685938 381.255818 
" clip-path="url(#p442cf3a639)" style="fill: none; stroke: #e5e5e5; stroke-width: 0.8; stroke-linecap: square"/>
     </g>
     <g id="line2d_27">
      <g>
       <use xlink:href="#m7a271721ef" x="59.085938" y="381.255818" style="stroke: #000000; stroke-width: 0.8"/>
      </g>
     </g>
     <g id="text_14">
      <!-- 5% -->
      <g transform="translate(37.88125 384.892537)scale(0.1 -0.1)">
       <defs>
        <path id="Inter-Regular-35" d="M 1936 -64 
Q 1536 -64 1216 95 
Q 896 255 702 532 
Q 509 809 491 1164 
L 1036 1164 
Q 1068 848 1324 642 
Q 1580 436 1936 436 
Q 2223 436 2447 570 
Q 2671 705 2799 940 
Q 2927 1175 2927 1473 
Q 2927 1777 2794 2017 
Q 2661 2257 2429 2395 
Q 2198 2534 1900 2536 
Q 1686 2539 1461 2472 
Q 1236 2405 1091 2300 
L 564 2364 
L 846 4655 
L 3264 4655 
L 3264 4155 
L 1318 4155 
L 1155 2782 
L 1182 2782 
Q 1325 2895 1541 2970 
Q 1757 3045 1991 3045 
Q 2418 3045 2753 2842 
Q 3089 2639 3281 2286 
Q 3473 1934 3473 1482 
Q 3473 1036 3274 687 
Q 3075 339 2727 137 
Q 2380 -64 1936 -64 
z
" transform="scale(0.015625)"/>
       </defs>
       <use xlink:href="#Inter-Regular-35"/>
       <use xlink:href="#Inter-Regular-25" x="60.795471"/>
      </g>
     </g>
    </g>
    <g id="ytick_3">
     <g id="line2d_28">
      <path d="M 59.085938 285.766636 
L 728.685938 285.766636 
" clip-path="url(#p442cf3a639)" style="fill: none; stroke: #e5e5e5; stroke-width: 0.8; stroke-linecap: square"/>
     </g>
     <g id="line2d_29">
      <g>
       <use xlink:href="#m7a271721ef" x="59.085938" y="285.766636" style="stroke: #000000; stroke-width: 0.8"/>
      </g>
     </g>
     <g id="text_15">
      <!-- 10% -->
      <g transform="translate(33.29375 289.403354)scale(0.1 -0.1)">
       <use xlink:href="#Inter-Regular-31"/>
       <use xlink:href="#Inter-Regular-30" x="44.176147"/>
       <use xlink:href="#Inter-Regular-25" x="106.676163"/>
      </g>
     </g>
    </g>
    <g id="ytick_4">
     <g id="line2d_30">
      <path d="M 59.085938 190.277453 
L 728.685938 190.277453 
" clip-path="url(#p442cf3a639)" style="fill: none; stroke: #e5e5e5; stroke-width: 0.8; stroke-linecap: square"/>
     </g>
     <g id="line2d_31">
      <g>
       <use xlink:href="#m7a271721ef" x="59.085938" y="190.277453" style="stroke: #000000; stroke-width: 0.8"/>
      </g>
     </g>
     <g id="text_16">
      <!-- 15% -->
      <g transform="translate(33.464063 193.914172)scale(0.1 -0.1)">
       <use xlink:href="#Inter-Regular-31"/>
       <use xlink:href="#Inter-Regular-35" x="44.176147"/>
       <use xlink:href="#Inter-Regular-25" x="104.971619"/>
      </g>
     </g>
    </g>
    <g id="ytick_5">
     <g id="line2d_32">
      <path d="M 59.085938 94.788271 
L 728.685938 94.788271 
" clip-path="url(#p442cf3a639)" style="fill: none; stroke: #e5e5e5; stroke-width: 0.8; stroke-linecap: square"/>
     </g>
     <g id="line2d_33">
      <g>
       <use xlink:href="#m7a271721ef" x="59.085938" y="94.788271" style="stroke: #000000; stroke-width: 0.8"/>
      </g>
     </g>
     <g id="text_17">
      <!-- 20% -->
      <g transform="translate(31.659375 98.42499)scale(0.1 -0.1)">
       <defs>
        <path id="Inter-Regular-32" d="M 482 0 
L 482 409 
L 2018 2091 
Q 2289 2386 2464 2605 
Q 2639 2825 2724 3019 
Q 2809 3214 2809 3427 
Q 2809 3795 2553 4011 
Q 2298 4227 1918 4227 
Q 1514 4227 1275 3985 
Q 1036 3743 1036 3345 
L 500 3345 
Q 500 3755 688 4064 
Q 877 4373 1203 4545 
Q 1530 4718 1936 4718 
Q 2346 4718 2661 4545 
Q 2977 4373 3156 4079 
Q 3336 3786 3336 3427 
Q 3336 3170 3244 2926 
Q 3152 2682 2926 2383 
Q 2700 2084 2300 1655 
L 1255 536 
L 1255 500 
L 3418 500 
L 3418 0 
L 482 0 
z
" transform="scale(0.015625)"/>
       </defs>
       <use xlink:href="#Inter-Regular-32"/>
       <use xlink:href="#Inter-Regular-30" x="60.511383"/>
       <use xlink:href="#Inter-Regular-25" x="123.011398"/>
      </g>
     </g>
    </g>
    <g id="text_18">
     <!-- Percent of nation tested positive -->
     <g transform="translate(25.614063 332.215469)rotate(-90)scale(0.1 -0.1)">
      <defs>
       <path id="Inter-Regular-50" d="M 564 0 
L 564 4655 
L 2136 4655 
Q 2684 4655 3033 4458 
Q 3382 4261 3550 3927 
Q 3718 3593 3718 3182 
Q 3718 2770 3551 2434 
Q 3384 2098 3036 1899 
Q 2689 1700 2146 1700 
L 1127 1700 
L 1127 0 
L 564 0 
z
M 1127 2200 
L 2127 2200 
Q 2689 2200 2926 2482 
Q 3164 2764 3164 3182 
Q 3164 3602 2925 3878 
Q 2686 4155 2118 4155 
L 1127 4155 
L 1127 2200 
z
" transform="scale(0.015625)"/>
       <path id="Inter-Regular-63" d="M 1909 -73 
Q 1418 -73 1063 159 
Q 709 391 518 798 
Q 327 1205 327 1727 
Q 327 2259 524 2667 
Q 721 3075 1074 3305 
Q 1427 3536 1900 3536 
Q 2268 3536 2563 3400 
Q 2859 3264 3047 3018 
Q 3236 2773 3282 2445 
L 2746 2445 
Q 2684 2684 2474 2869 
Q 2264 3055 1909 3055 
Q 1439 3055 1151 2697 
Q 864 2339 864 1745 
Q 864 1139 1148 774 
Q 1432 409 1909 409 
Q 2223 409 2447 570 
Q 2671 732 2746 1018 
L 3282 1018 
Q 3236 709 3058 462 
Q 2880 216 2588 71 
Q 2296 -73 1909 -73 
z
" transform="scale(0.015625)"/>
       <path id="Inter-Regular-74" d="M 2009 3491 
L 2009 3036 
L 1264 3036 
L 1264 1000 
Q 1264 773 1331 660 
Q 1398 548 1503 510 
Q 1609 473 1727 473 
Q 1816 473 1873 483 
Q 1930 493 1964 500 
L 2073 18 
Q 2018 -2 1920 -23 
Q 1823 -45 1673 -45 
Q 1446 -45 1228 52 
Q 1011 150 869 350 
Q 727 550 727 855 
L 727 3036 
L 200 3036 
L 200 3491 
L 727 3491 
L 727 4327 
L 1264 4327 
L 1264 3491 
L 2009 3491 
z
" transform="scale(0.015625)"/>
       <path id="Inter-Regular-66" d="M 2046 3491 
L 2046 3036 
L 1264 3036 
L 1264 0 
L 727 0 
L 727 3036 
L 164 3036 
L 164 3491 
L 727 3491 
L 727 3973 
Q 727 4273 868 4473 
Q 1009 4673 1234 4773 
Q 1459 4873 1709 4873 
Q 1907 4873 2032 4841 
Q 2157 4809 2218 4782 
L 2064 4318 
Q 2023 4332 1951 4352 
Q 1880 4373 1764 4373 
Q 1498 4373 1381 4239 
Q 1264 4105 1264 3845 
L 1264 3491 
L 2046 3491 
z
" transform="scale(0.015625)"/>
       <path id="Inter-Regular-69" d="M 491 0 
L 491 3491 
L 1027 3491 
L 1027 0 
L 491 0 
z
M 764 4073 
Q 607 4073 494 4179 
Q 382 4286 382 4436 
Q 382 4586 494 4693 
Q 607 4800 764 4800 
Q 921 4800 1033 4693 
Q 1146 4586 1146 4436 
Q 1146 4286 1033 4179 
Q 921 4073 764 4073 
z
" transform="scale(0.015625)"/>
       <path id="Inter-Regular-73" d="M 2964 2709 
L 2482 2573 
Q 2411 2755 2245 2914 
Q 2080 3073 1727 3073 
Q 1407 3073 1194 2926 
Q 982 2780 982 2555 
Q 982 2355 1127 2239 
Q 1273 2123 1582 2045 
L 2100 1918 
Q 3027 1691 3027 973 
Q 3027 673 2855 436 
Q 2684 200 2377 63 
Q 2071 -73 1664 -73 
Q 1130 -73 780 159 
Q 430 391 336 836 
L 846 964 
Q 989 400 1655 400 
Q 2030 400 2251 560 
Q 2473 720 2473 945 
Q 2473 1316 1955 1436 
L 1373 1573 
Q 893 1686 669 1926 
Q 446 2166 446 2527 
Q 446 2823 613 3050 
Q 780 3277 1069 3406 
Q 1359 3536 1727 3536 
Q 2246 3536 2542 3309 
Q 2839 3082 2964 2709 
z
" transform="scale(0.015625)"/>
       <path id="Inter-Regular-64" d="M 1809 -73 
Q 1373 -73 1039 148 
Q 705 370 516 776 
Q 327 1182 327 1736 
Q 327 2286 516 2690 
Q 705 3095 1041 3315 
Q 1377 3536 1818 3536 
Q 2159 3536 2358 3423 
Q 2557 3311 2662 3169 
Q 2768 3027 2827 2936 
L 2873 2936 
L 2873 4655 
L 3409 4655 
L 3409 0 
L 2891 0 
L 2891 536 
L 2827 536 
Q 2768 441 2659 296 
Q 2550 152 2348 39 
Q 2146 -73 1809 -73 
z
M 1882 409 
Q 2366 409 2624 780 
Q 2882 1152 2882 1745 
Q 2882 2332 2627 2693 
Q 2373 3055 1882 3055 
Q 1541 3055 1315 2881 
Q 1089 2707 976 2410 
Q 864 2114 864 1745 
Q 864 1373 978 1069 
Q 1093 766 1319 587 
Q 1546 409 1882 409 
z
" transform="scale(0.015625)"/>
      </defs>
      <use xlink:href="#Inter-Regular-50"/>
      <use xlink:href="#Inter-Regular-65" x="63.494324"/>
      <use xlink:href="#Inter-Regular-72" x="121.732971"/>
      <use xlink:href="#Inter-Regular-63" x="160.085251"/>
      <use xlink:href="#Inter-Regular-65" x="215.909119"/>
      <use xlink:href="#Inter-Regular-6e" x="274.147766"/>
      <use xlink:href="#Inter-Regular-74" x="332.670502"/>
      <use xlink:href="#Inter-Regular-20" x="369.034149"/>
      <use xlink:href="#Inter-Regular-6f" x="397.159149"/>
      <use xlink:href="#Inter-Regular-66" x="456.818253"/>
      <use xlink:href="#Inter-Regular-20" x="492.897797"/>
      <use xlink:href="#Inter-Regular-6e" x="521.022797"/>
      <use xlink:href="#Inter-Regular-61" x="579.545532"/>
      <use xlink:href="#Inter-Regular-74" x="635.937592"/>
      <use xlink:href="#Inter-Regular-69" x="672.301239"/>
      <use xlink:href="#Inter-Regular-6f" x="696.022827"/>
      <use xlink:href="#Inter-Regular-6e" x="755.681931"/>
      <use xlink:href="#Inter-Regular-20" x="814.204666"/>
      <use xlink:href="#Inter-Regular-74" x="842.329666"/>
      <use xlink:href="#Inter-Regular-65" x="878.693314"/>
      <use xlink:href="#Inter-Regular-73" x="936.931961"/>
      <use xlink:href="#Inter-Regular-74" x="989.204697"/>
      <use xlink:href="#Inter-Regular-65" x="1025.568344"/>
      <use xlink:href="#Inter-Regular-64" x="1083.806992"/>
      <use xlink:href="#Inter-Regular-20" x="1145.880875"/>
      <use xlink:href="#Inter-Regular-70" x="1174.005875"/>
      <use xlink:href="#Inter-Regular-6f" x="1234.94339"/>
      <use xlink:href="#Inter-Regular-73" x="1294.602493"/>
      <use xlink:href="#Inter-Regular-69" x="1346.875229"/>
      <use xlink:href="#Inter-Regular-74" x="1370.596817"/>
      <use xlink:href="#Inter-Regular-69" x="1406.960464"/>
      <use xlink:href="#Inter-Regular-76" x="1430.682053"/>
      <use xlink:href="#Inter-Regular-65" x="1486.363876"/>
     </g>
    </g>
   </g>
   <g id="line2d_34">
    <path d="M 28.502504 476.744932 
L 73.884373 476.637066 
L 80.79031 476.372095 
L 86.709684 475.887609 
L 95.588746 474.707632 
L 99.534995 474.201701 
L 103.481245 473.724881 
L 113.346869 472.350347 
L 116.306556 471.970046 
L 120.252805 471.434328 
L 138.997491 469.83214 
L 146.88999 469.437959 
L 175.500299 468.56706 
L 197.204671 468.151839 
L 232.720917 467.127819 
L 241.599979 466.697908 
L 256.398414 465.269373 
L 261.331226 464.488339 
L 267.250601 463.189217 
L 269.223725 462.539385 
L 275.1431 460.149916 
L 278.102787 458.682003 
L 280.075912 458.012685 
L 285.008724 455.382087 
L 286.981848 454.564445 
L 290.928098 451.708963 
L 291.91466 451.097394 
L 293.887785 450.196066 
L 295.86091 448.735449 
L 298.820597 446.713683 
L 300.793722 445.777334 
L 301.780284 444.833522 
L 304.739971 442.675522 
L 305.726534 441.971792 
L 307.699658 440.803365 
L 309.672783 439.027355 
L 311.645908 437.453366 
L 312.63247 436.721909 
L 314.605595 435.700084 
L 316.57872 434.212111 
L 318.551845 433.073404 
L 319.538407 432.577604 
L 321.511532 431.879783 
L 323.484657 430.858263 
L 326.444344 429.558633 
L 328.417469 428.946829 
L 331.377156 427.527345 
L 334.336843 426.326328 
L 335.323405 425.958996 
L 342.229342 421.766465 
L 347.162154 416.69243 
L 348.148716 415.95763 
L 349.135279 414.979641 
L 351.108403 412.158909 
L 352.094966 410.888053 
L 353.081528 409.918237 
L 354.068091 409.490115 
L 355.054653 408.249688 
L 357.027778 405.463065 
L 358.01434 403.013347 
L 359.000902 400.888545 
L 359.987465 399.311078 
L 360.974027 398.356256 
L 362.947152 394.849253 
L 363.933714 392.512231 
L 365.906839 388.816479 
L 367.879964 385.802845 
L 369.853089 383.494899 
L 370.839651 381.737261 
L 372.812776 378.836626 
L 374.785901 376.291774 
L 376.759025 374.472097 
L 378.73215 371.881282 
L 380.705275 369.837329 
L 381.691837 368.927457 
L 382.6784 368.255809 
L 383.664962 367.733803 
L 385.638087 365.992408 
L 387.611212 364.468739 
L 388.597774 363.80344 
L 390.570899 362.83305 
L 392.544024 361.556689 
L 394.517148 360.422608 
L 396.490273 359.592369 
L 397.476835 359.249014 
L 400.436523 357.967014 
L 402.409647 357.230288 
L 404.382772 356.714023 
L 406.355897 355.927383 
L 409.315584 354.953514 
L 412.275271 354.157621 
L 415.234958 353.411507 
L 420.16777 352.556108 
L 424.11402 351.942446 
L 426.087145 351.634281 
L 431.019957 350.857233 
L 433.979644 350.391962 
L 442.858705 349.024588 
L 449.764642 348.252706 
L 474.428701 346.56744 
L 503.039011 344.811524 
L 510.93151 343.929953 
L 517.837446 342.649134 
L 523.756821 341.244476 
L 527.70307 340.10256 
L 528.689633 339.832117 
L 531.64932 338.480176 
L 535.595569 336.540003 
L 541.514944 331.996485 
L 542.501506 331.27651 
L 544.474631 329.233469 
L 546.447756 327.112854 
L 548.42088 325.309692 
L 549.407443 324.399955 
L 551.380567 321.632042 
L 552.36713 319.967545 
L 554.340255 316.37017 
L 556.313379 314.102852 
L 557.299942 312.669555 
L 559.273067 310.434557 
L 561.246191 308.706198 
L 563.219316 307.386273 
L 567.165566 303.924321 
L 569.13869 302.587273 
L 570.125253 301.971855 
L 576.044627 296.839565 
L 577.031189 296.173827 
L 581.964001 291.626121 
L 583.937126 290.215755 
L 587.883376 286.176683 
L 589.8565 284.584052 
L 590.843063 283.842362 
L 593.80275 280.989108 
L 595.775875 279.313433 
L 598.735562 277.1914 
L 601.695249 274.024173 
L 602.681811 273.074754 
L 604.654936 271.523359 
L 605.641499 270.430006 
L 607.614623 268.65994 
L 609.587748 267.158864 
L 611.560873 266.006478 
L 613.533998 264.425735 
L 618.46681 260.697056 
L 621.426497 257.671129 
L 623.399622 255.883029 
L 625.372746 254.221166 
L 627.345871 252.097141 
L 629.318996 250.260241 
L 632.278683 247.83781 
L 634.251808 245.562151 
L 637.211495 242.429809 
L 639.18462 240.487002 
L 642.144307 236.363129 
L 644.117432 233.850934 
L 645.103994 232.8027 
L 646.090556 231.560786 
L 648.063681 228.455597 
L 650.036806 225.723178 
L 652.009931 223.596113 
L 652.996493 222.600258 
L 654.969618 220.111906 
L 657.929305 216.620371 
L 659.90243 214.709342 
L 660.888992 213.4678 
L 662.862117 211.480076 
L 664.835242 209.794203 
L 666.808366 208.208495 
L 670.754616 203.593044 
L 672.727741 201.655066 
L 673.714303 200.678495 
L 675.687428 198.003048 
L 677.660553 195.515135 
L 681.606802 190.967902 
L 684.566489 187.074182 
L 685.553052 185.962964 
L 686.539614 185.023711 
L 687.526177 183.907123 
L 691.472426 177.788029 
L 692.458988 176.498092 
L 694.432113 174.255698 
L 697.3918 169.40925 
L 699.364925 166.384302 
L 701.33805 163.553979 
L 702.324612 161.143537 
L 707.257424 147.340175 
L 708.243987 144.927538 
L 710.217111 137.394768 
L 712.190236 129.060972 
L 713.176799 125.484232 
L 714.163361 123.640172 
L 715.149923 120.617791 
L 717.123048 110.752862 
L 718.10961 104.007543 
L 719.096173 98.245042 
L 720.082735 93.697202 
L 721.069298 90.74726 
L 722.05586 86.373951 
L 722.05586 86.373951 
" clip-path="url(#p442cf3a639)" style="fill: none; stroke: #5694ca; stroke-width: 2; stroke-linecap: square"/>
   </g>
   <g id="line2d_35">
    <path d="M 28.502504 476.745 
L 76.84406 476.643239 
L 82.763435 476.451809 
L 94.602183 475.424128 
L 98.548433 475.00298 
L 102.494682 474.663443 
L 107.427494 474.113331 
L 112.360306 473.623671 
L 117.293118 473.296224 
L 121.239368 472.958701 
L 138.010928 471.822207 
L 143.930303 471.589468 
L 153.795926 471.386954 
L 218.909044 470.768331 
L 232.720917 470.151722 
L 243.573103 469.391037 
L 256.398414 468.189053 
L 263.304351 467.031401 
L 266.264038 466.320085 
L 268.237163 465.678288 
L 269.223725 465.088883 
L 270.210288 464.646577 
L 272.183413 463.42142 
L 274.156537 462.193241 
L 275.1431 461.439608 
L 277.116225 459.59482 
L 280.075912 457.298659 
L 284.022161 453.216146 
L 285.995286 451.508383 
L 286.981848 450.757773 
L 291.91466 445.876289 
L 294.874347 443.683903 
L 296.847472 442.177645 
L 298.820597 440.861811 
L 301.780284 439.249762 
L 303.753409 438.061884 
L 305.726534 437.056369 
L 307.699658 436.216089 
L 311.645908 433.810106 
L 313.619033 432.962773 
L 314.605595 432.607115 
L 316.57872 431.490772 
L 318.551845 430.735124 
L 320.524969 430.094335 
L 322.498094 429.472689 
L 328.417469 427.550321 
L 330.390593 426.688883 
L 338.283092 423.370078 
L 340.256217 422.390759 
L 342.229342 421.668359 
L 348.148716 418.464413 
L 349.135279 417.992889 
L 353.081528 415.260467 
L 354.068091 414.940073 
L 355.054653 414.253944 
L 356.041215 413.223241 
L 357.027778 411.910429 
L 359.000902 407.620365 
L 359.987465 405.986151 
L 360.974027 404.812379 
L 361.96059 402.974643 
L 362.947152 401.4301 
L 363.933714 399.5168 
L 365.906839 396.500254 
L 367.879964 394.140618 
L 370.839651 391.123065 
L 372.812776 389.04856 
L 374.785901 387.368 
L 377.745588 385.229013 
L 379.718713 383.649206 
L 381.691837 382.338409 
L 384.651524 380.839204 
L 387.611212 379.129425 
L 389.584336 378.229701 
L 390.570899 377.850869 
L 393.530586 376.457455 
L 396.490273 375.347157 
L 398.463398 374.722488 
L 402.409647 373.528565 
L 404.382772 373.108425 
L 407.342459 372.11097 
L 411.288709 371.13971 
L 416.221521 369.963923 
L 425.100582 368.505019 
L 429.046832 367.729221 
L 433.979644 366.961483 
L 450.751204 364.774134 
L 455.684016 364.423514 
L 460.616828 363.879448 
L 467.522765 363.11574 
L 471.469014 362.725825 
L 477.388389 362.187804 
L 493.173387 360.885068 
L 497.119636 360.52941 
L 506.98526 359.832199 
L 510.93151 359.587369 
L 523.756821 358.411581 
L 531.64932 357.13101 
L 535.595569 356.227255 
L 537.568694 355.53206 
L 544.474631 352.595109 
L 547.434318 350.792637 
L 550.394005 349.352877 
L 551.380567 348.504536 
L 553.353692 346.152961 
L 554.340255 344.799847 
L 556.313379 342.708215 
L 558.286504 339.613082 
L 560.259629 336.808118 
L 561.246191 335.544675 
L 563.219316 333.442967 
L 568.152128 327.111647 
L 570.125253 325.357536 
L 572.098378 322.887072 
L 575.058065 318.847884 
L 577.031189 316.708897 
L 581.964001 309.653163 
L 583.937126 307.087991 
L 586.896813 301.889135 
L 588.869938 298.466554 
L 591.829625 293.890352 
L 594.789312 288.825497 
L 595.775875 287.355511 
L 598.735562 283.623619 
L 600.708687 280.496245 
L 603.668374 276.444966 
L 604.654936 275.17447 
L 606.628061 271.702521 
L 609.587748 267.054784 
L 611.560873 265.122341 
L 613.533998 262.373799 
L 615.507122 260.059502 
L 617.480247 258.08575 
L 618.46681 257.140687 
L 620.439934 254.624884 
L 623.399622 251.446126 
L 625.372746 249.680933 
L 626.359309 248.315729 
L 629.318996 244.981812 
L 632.278683 242.079117 
L 635.23837 238.106425 
L 637.211495 235.5876 
L 639.18462 233.419395 
L 642.144307 229.212956 
L 644.117432 226.797906 
L 646.090556 224.739522 
L 649.050244 220.379938 
L 651.023368 218.108965 
L 652.996493 216.017332 
L 657.929305 209.887518 
L 659.90243 207.947015 
L 662.862117 204.266507 
L 664.835242 201.977398 
L 666.808366 199.952263 
L 670.754616 193.764012 
L 673.714303 189.63213 
L 675.687428 185.963713 
L 678.647115 180.807173 
L 680.62024 177.927652 
L 682.593365 174.192737 
L 684.566489 170.863857 
L 687.526177 166.521402 
L 691.472426 158.489371 
L 693.445551 155.429501 
L 694.432113 153.893018 
L 698.378363 146.420166 
L 701.33805 141.986025 
L 702.324612 140.022349 
L 705.284299 133.438139 
L 707.257424 129.54605 
L 708.243987 127.420161 
L 709.230549 124.694791 
L 710.217111 120.945771 
L 713.176799 107.598011 
L 714.163361 104.968357 
L 715.149923 101.57701 
L 716.136486 94.24219 
L 720.082735 60.083892 
L 721.069298 54.345 
L 722.05586 54.345 
L 722.05586 54.345 
" clip-path="url(#p442cf3a639)" style="fill: none; stroke: #ffdd00; stroke-width: 2; stroke-linecap: square"/>
   </g>
   <g id="line2d_36">
    <path d="M 28.502504 476.745 
L 75.857498 476.635291 
L 81.776872 476.432642 
L 87.696247 475.942444 
L 99.534995 474.592388 
L 102.494682 474.269199 
L 113.346869 473.057503 
L 115.319993 472.84612 
L 120.252805 472.235381 
L 123.212493 471.95377 
L 127.158742 471.589702 
L 147.876552 470.570173 
L 194.244984 470.298694 
L 213.976232 470.136925 
L 239.626854 469.496138 
L 259.358102 468.070264 
L 262.317789 467.541282 
L 264.290914 467.089866 
L 267.250601 466.595475 
L 270.210288 465.815978 
L 274.156537 464.645161 
L 279.089349 462.673535 
L 280.075912 462.339166 
L 285.008724 460.032471 
L 286.981848 459.443394 
L 288.954973 458.38054 
L 290.928098 457.308252 
L 292.901223 456.529804 
L 293.887785 456.202422 
L 296.847472 454.836295 
L 298.820597 454.07287 
L 300.793722 453.475408 
L 303.753409 452.021233 
L 305.726534 451.175352 
L 307.699658 450.577889 
L 311.645908 448.823935 
L 313.619033 448.140522 
L 314.605595 447.856815 
L 317.565282 446.596553 
L 319.538407 445.954368 
L 321.511532 445.441459 
L 323.484657 444.692709 
L 326.444344 443.832153 
L 328.417469 443.438737 
L 332.363718 442.164849 
L 336.309968 441.151608 
L 339.269655 440.128934 
L 349.135279 437.05602 
L 353.081528 435.32303 
L 354.068091 435.143092 
L 355.054653 434.776229 
L 357.027778 433.558594 
L 359.000902 431.428692 
L 359.987465 430.599233 
L 360.974027 430.194286 
L 363.933714 427.816664 
L 364.920277 426.751015 
L 366.893402 425.093144 
L 368.866526 423.933158 
L 369.853089 423.435972 
L 371.826213 422.016037 
L 374.785901 420.31554 
L 376.759025 419.485731 
L 379.718713 417.789427 
L 382.6784 416.600092 
L 383.664962 416.300662 
L 386.624649 415.040051 
L 388.597774 414.31541 
L 390.570899 413.760573 
L 393.530586 412.686538 
L 396.490273 411.801874 
L 397.476835 411.573371 
L 399.44996 410.962282 
L 403.39621 409.868332 
L 405.369335 409.293929 
L 409.315584 408.068957 
L 417.208083 406.320593 
L 421.154333 405.626698 
L 444.83183 401.056284 
L 457.657141 399.505677 
L 478.374951 397.939696 
L 484.294325 397.57458 
L 490.2137 397.047695 
L 501.065886 395.787434 
L 508.958385 394.302512 
L 510.93151 393.697363 
L 512.904634 393.078587 
L 514.877759 392.630316 
L 523.756821 389.517571 
L 526.716508 388.238792 
L 527.70307 387.890447 
L 528.689633 387.349586 
L 533.622445 382.206866 
L 535.595569 380.52873 
L 538.555256 376.44013 
L 540.528381 374.166628 
L 542.501506 372.449011 
L 544.474631 370.188786 
L 546.447756 368.223449 
L 547.434318 367.391194 
L 549.407443 366.100885 
L 551.380567 364.346581 
L 553.353692 362.890659 
L 555.326817 361.79042 
L 556.313379 361.30651 
L 558.286504 360.081537 
L 560.259629 359.050478 
L 562.232754 358.270981 
L 563.219316 357.941853 
L 567.165566 356.131297 
L 569.13869 355.501341 
L 570.125253 355.19632 
L 575.058065 352.901855 
L 577.031189 352.209707 
L 583.937126 348.511029 
L 584.923689 347.551596 
L 586.896813 345.082783 
L 588.869938 342.59056 
L 589.8565 341.531899 
L 590.843063 340.258011 
L 592.816188 336.374505 
L 595.775875 329.363579 
L 597.749 326.160691 
L 599.722124 321.452267 
L 601.695249 316.205428 
L 602.681811 314.063648 
L 604.654936 310.609546 
L 606.628061 305.807834 
L 608.601186 301.711547 
L 609.587748 300.049833 
L 611.560873 297.614911 
L 613.533998 294.191556 
L 615.507122 291.53442 
L 616.493685 290.362555 
L 618.46681 288.481072 
L 620.439934 285.765937 
L 622.413059 283.465532 
L 623.399622 282.522868 
L 625.372746 281.034453 
L 628.332433 277.934287 
L 630.305558 276.396607 
L 632.278683 275.055286 
L 635.23837 272.11584 
L 637.211495 270.413247 
L 639.18462 269.012879 
L 642.144307 266.195022 
L 644.117432 264.363852 
L 646.090556 262.809751 
L 649.050244 259.82104 
L 651.023368 258.081062 
L 652.996493 256.525912 
L 654.969618 254.355481 
L 657.929305 251.6669 
L 659.90243 250.234388 
L 661.875555 248.016789 
L 664.835242 245.025283 
L 666.808366 243.44358 
L 668.781491 240.901395 
L 670.754616 238.627893 
L 671.741178 237.629676 
L 673.714303 235.972154 
L 675.687428 233.553654 
L 677.660553 231.348982 
L 678.647115 230.375922 
L 680.62024 228.842086 
L 682.593365 226.731051 
L 684.566489 224.848171 
L 687.526177 222.594235 
L 689.499301 220.235132 
L 691.472426 218.132134 
L 692.458988 217.209386 
L 694.432113 215.60043 
L 701.33805 206.564421 
L 703.311175 202.421665 
L 705.284299 197.839722 
L 707.257424 194.164454 
L 708.243987 192.323501 
L 709.230549 189.500053 
L 710.217111 186.099409 
L 712.190236 178.334493 
L 713.176799 175.210567 
L 714.163361 173.632358 
L 715.149923 171.19499 
L 717.123048 158.774758 
L 719.096173 144.268998 
L 720.082735 138.719235 
L 721.069298 136.373758 
L 722.05586 136.373758 
L 722.05586 136.373758 
" clip-path="url(#p442cf3a639)" style="fill: none; stroke: #003078; stroke-width: 2; stroke-linecap: square"/>
   </g>
   <g id="line2d_37">
    <path d="M 28.502504 476.745 
L 73.884373 476.644979 
L 80.79031 476.342507 
L 85.723122 475.82011 
L 87.696247 475.517638 
L 93.615621 474.446935 
L 98.548433 473.329837 
L 102.494682 472.674882 
L 106.440932 471.893998 
L 109.400619 471.459571 
L 112.360306 471.058283 
L 119.266243 470.373804 
L 125.185617 469.801397 
L 132.091554 469.215734 
L 139.984053 468.445695 
L 147.876552 467.958245 
L 159.715301 467.522613 
L 179.446548 466.728473 
L 215.949357 466.213909 
L 227.788105 466.071108 
L 241.599979 465.70778 
L 249.492478 464.99679 
L 255.411852 464.387026 
L 261.331226 463.344039 
L 268.237163 461.72262 
L 274.156537 459.513127 
L 284.022161 454.74889 
L 285.008724 454.17588 
L 286.981848 453.317872 
L 288.954973 451.903724 
L 290.928098 450.50464 
L 292.901223 449.165809 
L 293.887785 448.599427 
L 295.86091 446.770736 
L 298.820597 444.251541 
L 300.793722 443.151314 
L 302.766847 441.558214 
L 304.739971 440.286264 
L 305.726534 439.757842 
L 307.699658 438.97274 
L 310.659346 437.268773 
L 313.619033 435.906444 
L 314.605595 435.528655 
L 319.538407 432.590096 
L 321.511532 431.748356 
L 323.484657 430.469176 
L 325.457781 428.965251 
L 327.430906 427.833089 
L 328.417469 427.251042 
L 331.377156 424.379967 
L 333.35028 422.268687 
L 335.323405 420.322502 
L 338.283092 415.620326 
L 342.229342 409.29673 
L 344.202467 405.247701 
L 346.175591 401.683712 
L 347.162154 400.155083 
L 349.135279 397.516586 
L 352.094966 392.76199 
L 353.081528 391.874457 
L 354.068091 391.48763 
L 355.054653 390.347033 
L 357.027778 387.42414 
L 358.01434 385.277311 
L 359.000902 383.651674 
L 359.987465 382.441183 
L 360.974027 381.709104 
L 363.933714 377.754673 
L 364.920277 376.318232 
L 365.906839 375.118586 
L 367.879964 373.153723 
L 369.853089 371.757651 
L 371.826213 369.746995 
L 373.799338 368.074963 
L 375.772463 366.739145 
L 376.759025 366.242054 
L 377.745588 365.400314 
L 379.718713 364.164516 
L 381.691837 363.152259 
L 384.651524 362.076736 
L 387.611212 360.815632 
L 389.584336 360.161882 
L 391.557461 359.513556 
L 394.517148 358.503106 
L 396.490273 357.984927 
L 397.476835 357.813807 
L 401.423085 356.740694 
L 403.39621 356.325548 
L 405.369335 355.879672 
L 408.329022 355.181938 
L 414.248396 354.134734 
L 422.140895 353.133322 
L 426.087145 352.709138 
L 432.006519 352.016826 
L 442.858705 350.812963 
L 447.791517 350.450238 
L 455.684016 350.039309 
L 464.563078 349.648265 
L 483.307763 349.106587 
L 492.186824 348.854727 
L 507.971823 348.479349 
L 516.850884 348.045524 
L 524.743383 347.359238 
L 530.662757 346.477128 
L 533.622445 345.752279 
L 535.595569 345.381118 
L 541.514944 343.224649 
L 542.501506 342.890242 
L 548.42088 340.195107 
L 549.407443 339.765501 
L 551.380567 338.551394 
L 553.353692 337.150503 
L 554.340255 336.57448 
L 556.313379 335.81589 
L 559.273067 334.289671 
L 561.246191 333.381652 
L 564.205878 332.256721 
L 567.165566 330.964285 
L 572.098378 329.104865 
L 575.058065 327.724459 
L 577.031189 327.022507 
L 579.004314 325.875885 
L 582.950564 323.123509 
L 583.937126 322.461926 
L 585.910251 320.460911 
L 588.869938 317.292184 
L 590.843063 315.623767 
L 592.816188 313.090111 
L 594.789312 310.404014 
L 595.775875 309.22365 
L 598.735562 306.366433 
L 600.708687 302.816302 
L 602.681811 299.786761 
L 604.654936 297.215145 
L 605.641499 295.466591 
L 609.587748 290.048604 
L 611.560873 287.740296 
L 613.533998 284.298622 
L 616.493685 279.346394 
L 617.480247 277.997923 
L 618.46681 276.457845 
L 622.413059 268.432694 
L 623.399622 266.805249 
L 626.359309 262.617035 
L 628.332433 259.619427 
L 629.318996 258.175153 
L 630.305558 256.993584 
L 632.278683 254.852178 
L 635.23837 249.661949 
L 637.211495 246.865588 
L 639.18462 244.548845 
L 640.171182 242.797278 
L 644.117432 234.895646 
L 646.090556 231.312375 
L 648.063681 226.666838 
L 649.050244 224.594723 
L 651.023368 221.242223 
L 652.996493 218.543473 
L 654.969618 215.169282 
L 658.915867 209.057176 
L 659.90243 207.729793 
L 660.888992 205.99811 
L 663.848679 201.696017 
L 664.835242 200.473475 
L 666.808366 198.407988 
L 670.754616 192.109699 
L 671.741178 190.75701 
L 673.714303 188.424601 
L 675.687428 185.037154 
L 677.660553 182.133542 
L 679.633677 179.848733 
L 680.62024 178.744891 
L 682.593365 175.55146 
L 684.566489 172.85512 
L 685.553052 171.65909 
L 686.539614 170.700458 
L 687.526177 169.489967 
L 689.499301 166.106738 
L 692.458988 161.857667 
L 694.432113 159.560807 
L 696.405238 156.358339 
L 698.378363 153.29385 
L 699.364925 151.964058 
L 701.33805 149.651532 
L 703.311175 145.895937 
L 706.270862 139.619339 
L 708.243987 136.184895 
L 709.230549 133.155956 
L 710.217111 129.344325 
L 712.190236 120.903425 
L 713.176799 117.458737 
L 714.163361 115.687287 
L 715.149923 111.853363 
L 717.123048 95.60121 
L 718.10961 85.827505 
L 719.096173 78.119286 
L 720.082735 72.209029 
L 721.069298 68.481753 
L 722.05586 68.481753 
L 722.05586 68.481753 
" clip-path="url(#p442cf3a639)" style="fill: none; stroke: #d4351c; stroke-width: 2; stroke-linecap: square"/>
   </g>
   <g id="patch_3">
    <path d="M 59.085938 476.745 
L 728.685937 476.745 
" style="fill: none; stroke: #000000; stroke-width: 0.8; stroke-linejoin: miter; stroke-linecap: square"/>
   </g>
   <g id="text_19">
    <!-- Cumulative COVID-19 cases in UK Nations, per capita -->
    <g transform="translate(237.29625 27.225)scale(0.12 -0.12)">
     <defs>
      <path id="Inter-Bold-43" d="M 4511 3025 
L 3516 3025 
Q 3459 3409 3188 3628 
Q 2918 3848 2514 3848 
Q 1973 3848 1647 3451 
Q 1321 3055 1321 2327 
Q 1321 1582 1649 1194 
Q 1977 807 2507 807 
Q 2900 807 3173 1012 
Q 3446 1218 3516 1591 
L 4511 1586 
Q 4459 1159 4207 782 
Q 3955 405 3522 170 
Q 3089 -64 2491 -64 
Q 1868 -64 1378 218 
Q 889 500 606 1034 
Q 323 1568 323 2327 
Q 323 3089 609 3623 
Q 896 4157 1386 4437 
Q 1877 4718 2491 4718 
Q 3030 4718 3463 4519 
Q 3896 4320 4172 3942 
Q 4448 3564 4511 3025 
z
" transform="scale(0.015625)"/>
      <path id="Inter-Bold-75" d="M 2625 1486 
L 2625 3491 
L 3593 3491 
L 3593 0 
L 2664 0 
L 2664 634 
L 2627 634 
Q 2509 327 2235 141 
Q 1961 -45 1568 -45 
Q 1041 -45 715 306 
Q 389 657 386 1268 
L 386 3491 
L 1355 3491 
L 1355 1441 
Q 1357 1132 1520 952 
Q 1684 773 1959 773 
Q 2221 773 2424 954 
Q 2627 1136 2625 1486 
z
" transform="scale(0.015625)"/>
      <path id="Inter-Bold-6d" d="M 386 0 
L 386 3491 
L 1309 3491 
L 1309 2875 
L 1350 2875 
Q 1459 3184 1715 3360 
Q 1971 3536 2323 3536 
Q 2682 3536 2934 3358 
Q 3186 3180 3271 2875 
L 3307 2875 
Q 3414 3175 3694 3355 
Q 3975 3536 4359 3536 
Q 4848 3536 5153 3226 
Q 5459 2916 5459 2348 
L 5459 0 
L 4493 0 
L 4493 2157 
Q 4493 2448 4338 2593 
Q 4184 2739 3952 2739 
Q 3689 2739 3541 2570 
Q 3393 2402 3393 2132 
L 3393 0 
L 2455 0 
L 2455 2177 
Q 2455 2434 2308 2586 
Q 2161 2739 1923 2739 
Q 1682 2739 1518 2562 
Q 1355 2386 1355 2095 
L 1355 0 
L 386 0 
z
" transform="scale(0.015625)"/>
      <path id="Inter-Bold-6c" d="M 1355 4655 
L 1355 0 
L 386 0 
L 386 4655 
L 1355 4655 
z
" transform="scale(0.015625)"/>
      <path id="Inter-Bold-61" d="M 1382 -66 
Q 882 -66 552 195 
Q 223 457 223 975 
Q 223 1366 407 1588 
Q 591 1811 890 1914 
Q 1189 2018 1534 2050 
Q 1989 2095 2184 2145 
Q 2380 2195 2380 2364 
L 2380 2377 
Q 2380 2593 2244 2711 
Q 2109 2830 1861 2830 
Q 1600 2830 1445 2716 
Q 1291 2602 1241 2427 
L 346 2500 
Q 446 2977 842 3256 
Q 1239 3536 1866 3536 
Q 2255 3536 2593 3413 
Q 2932 3291 3140 3030 
Q 3348 2770 3348 2355 
L 3348 0 
L 2430 0 
L 2430 484 
L 2402 484 
Q 2275 241 2021 87 
Q 1768 -66 1382 -66 
z
M 1659 602 
Q 1977 602 2181 787 
Q 2386 973 2386 1248 
L 2386 1618 
Q 2330 1580 2210 1550 
Q 2091 1520 1956 1498 
Q 1821 1477 1714 1461 
Q 1459 1425 1303 1318 
Q 1148 1211 1148 1007 
Q 1148 807 1292 704 
Q 1436 602 1659 602 
z
" transform="scale(0.015625)"/>
      <path id="Inter-Bold-74" d="M 2243 3491 
L 2243 2764 
L 1586 2764 
L 1586 1073 
Q 1586 873 1677 802 
Q 1768 732 1914 732 
Q 1982 732 2050 744 
Q 2118 757 2155 764 
L 2307 43 
Q 2234 20 2102 -10 
Q 1971 -41 1782 -48 
Q 1255 -70 935 181 
Q 616 432 618 945 
L 618 2764 
L 141 2764 
L 141 3491 
L 618 3491 
L 618 4327 
L 1586 4327 
L 1586 3491 
L 2243 3491 
z
" transform="scale(0.015625)"/>
      <path id="Inter-Bold-69" d="M 386 0 
L 386 3491 
L 1355 3491 
L 1355 0 
L 386 0 
z
M 876 3941 
Q 662 3941 507 4085 
Q 353 4230 353 4432 
Q 353 4634 507 4777 
Q 662 4920 876 4920 
Q 1092 4920 1246 4777 
Q 1401 4634 1401 4432 
Q 1401 4230 1246 4085 
Q 1092 3941 876 3941 
z
" transform="scale(0.015625)"/>
      <path id="Inter-Bold-76" d="M 3641 3491 
L 2421 0 
L 1330 0 
L 109 3491 
L 1132 3491 
L 1857 993 
L 1893 993 
L 2616 3491 
L 3641 3491 
z
" transform="scale(0.015625)"/>
      <path id="Inter-Bold-65" d="M 1977 -68 
Q 1441 -68 1052 151 
Q 664 370 455 773 
Q 246 1177 246 1730 
Q 246 2268 455 2675 
Q 664 3082 1044 3309 
Q 1425 3536 1939 3536 
Q 2400 3536 2771 3340 
Q 3143 3145 3361 2751 
Q 3580 2357 3580 1764 
L 3580 1498 
L 1202 1498 
L 1202 1495 
Q 1202 1105 1416 880 
Q 1630 655 1993 655 
Q 2236 655 2413 757 
Q 2591 859 2664 1059 
L 3559 1000 
Q 3457 514 3041 223 
Q 2625 -68 1977 -68 
z
M 1202 2098 
L 2668 2098 
Q 2666 2409 2468 2611 
Q 2271 2814 1955 2814 
Q 1632 2814 1425 2604 
Q 1218 2395 1202 2098 
z
" transform="scale(0.015625)"/>
      <path id="Inter-Bold-20" transform="scale(0.015625)"/>
      <path id="Inter-Bold-4f" d="M 4682 2327 
Q 4682 1566 4394 1032 
Q 4107 498 3614 217 
Q 3121 -64 2502 -64 
Q 1882 -64 1389 218 
Q 896 500 609 1035 
Q 323 1570 323 2327 
Q 323 3089 609 3623 
Q 896 4157 1389 4437 
Q 1882 4718 2502 4718 
Q 3121 4718 3614 4437 
Q 4107 4157 4394 3623 
Q 4682 3089 4682 2327 
z
M 3684 2327 
Q 3684 3068 3361 3458 
Q 3039 3848 2502 3848 
Q 1966 3848 1643 3458 
Q 1321 3068 1321 2327 
Q 1321 1589 1643 1198 
Q 1966 807 2502 807 
Q 3039 807 3361 1198 
Q 3684 1589 3684 2327 
z
" transform="scale(0.015625)"/>
      <path id="Inter-Bold-56" d="M 1246 4655 
L 2371 1118 
L 2414 1118 
L 3541 4655 
L 4632 4655 
L 3027 0 
L 1759 0 
L 152 4655 
L 1246 4655 
z
" transform="scale(0.015625)"/>
      <path id="Inter-Bold-49" d="M 1389 4655 
L 1389 0 
L 405 0 
L 405 4655 
L 1389 4655 
z
" transform="scale(0.015625)"/>
      <path id="Inter-Bold-44" d="M 2055 0 
L 405 0 
L 405 4655 
L 2068 4655 
Q 2771 4655 3278 4376 
Q 3786 4098 4059 3577 
Q 4332 3057 4332 2332 
Q 4332 1605 4058 1082 
Q 3784 559 3274 279 
Q 2764 0 2055 0 
z
M 1389 843 
L 2014 843 
Q 2671 843 3010 1197 
Q 3350 1552 3350 2332 
Q 3350 3107 3010 3459 
Q 2671 3811 2016 3811 
L 1389 3811 
L 1389 843 
z
" transform="scale(0.015625)"/>
      <path id="Inter-Bold-2d" d="M 2561 2295 
L 2561 1527 
L 439 1527 
L 439 2295 
L 2561 2295 
z
" transform="scale(0.015625)"/>
      <path id="Inter-Bold-31" d="M 2305 4655 
L 2305 0 
L 1323 0 
L 1323 3450 
L 1280 3450 
Q 1205 3334 961 3219 
Q 718 3105 332 3105 
L 332 3886 
Q 632 3886 857 4019 
Q 1082 4152 1209 4333 
Q 1336 4514 1341 4655 
L 2305 4655 
z
" transform="scale(0.015625)"/>
      <path id="Inter-Bold-39" d="M 2061 4732 
Q 2421 4732 2753 4612 
Q 3086 4493 3348 4227 
Q 3611 3961 3766 3523 
Q 3921 3086 3921 2448 
Q 3921 1659 3686 1096 
Q 3452 534 3028 235 
Q 2605 -64 2027 -64 
Q 1561 -64 1204 117 
Q 848 298 631 610 
Q 414 923 368 1314 
L 1339 1314 
Q 1396 1059 1577 919 
Q 1759 780 2027 780 
Q 2482 780 2718 1176 
Q 2955 1573 2957 2264 
L 2925 2264 
Q 2771 1957 2453 1782 
Q 2136 1607 1752 1607 
Q 1341 1607 1016 1801 
Q 691 1995 506 2334 
Q 321 2673 323 3109 
Q 321 3582 539 3949 
Q 757 4316 1149 4525 
Q 1541 4734 2061 4732 
z
M 2068 3959 
Q 1725 3959 1500 3722 
Q 1275 3486 1277 3136 
Q 1275 2791 1496 2555 
Q 1718 2320 2059 2320 
Q 2284 2320 2465 2431 
Q 2646 2543 2751 2729 
Q 2857 2916 2859 3141 
Q 2857 3366 2753 3551 
Q 2650 3736 2473 3847 
Q 2296 3959 2068 3959 
z
" transform="scale(0.015625)"/>
      <path id="Inter-Bold-63" d="M 1964 -68 
Q 1427 -68 1042 160 
Q 657 389 451 795 
Q 246 1202 246 1732 
Q 246 2268 453 2674 
Q 661 3080 1045 3308 
Q 1430 3536 1959 3536 
Q 2416 3536 2760 3370 
Q 3105 3205 3303 2905 
Q 3502 2605 3523 2200 
L 2609 2200 
Q 2571 2461 2406 2621 
Q 2241 2782 1975 2782 
Q 1639 2782 1434 2511 
Q 1230 2241 1230 1745 
Q 1230 1245 1433 971 
Q 1636 698 1975 698 
Q 2225 698 2395 849 
Q 2566 1000 2609 1280 
L 3523 1280 
Q 3500 880 3305 575 
Q 3111 270 2770 101 
Q 2430 -68 1964 -68 
z
" transform="scale(0.015625)"/>
      <path id="Inter-Bold-73" d="M 3291 2495 
L 2405 2441 
Q 2368 2609 2220 2729 
Q 2073 2850 1821 2850 
Q 1596 2850 1440 2755 
Q 1284 2661 1286 2505 
Q 1284 2380 1385 2293 
Q 1486 2207 1730 2155 
L 2361 2027 
Q 3368 1820 3371 1082 
Q 3371 739 3169 479 
Q 2968 220 2618 76 
Q 2268 -68 1816 -68 
Q 1123 -68 711 221 
Q 300 511 232 1011 
L 1184 1061 
Q 1230 848 1394 739 
Q 1559 630 1818 630 
Q 2073 630 2228 730 
Q 2384 830 2386 984 
Q 2380 1243 1939 1332 
L 1334 1452 
Q 321 1655 325 2450 
Q 323 2955 728 3245 
Q 1134 3536 1805 3536 
Q 2466 3536 2846 3256 
Q 3227 2977 3291 2495 
z
" transform="scale(0.015625)"/>
      <path id="Inter-Bold-6e" d="M 1355 2018 
L 1355 0 
L 386 0 
L 386 3491 
L 1309 3491 
L 1309 2875 
L 1350 2875 
Q 1468 3180 1739 3358 
Q 2011 3536 2400 3536 
Q 2946 3536 3275 3185 
Q 3605 2834 3605 2223 
L 3605 0 
L 2636 0 
L 2636 2050 
Q 2639 2370 2473 2551 
Q 2307 2732 2016 2732 
Q 1723 2732 1540 2544 
Q 1357 2357 1355 2018 
z
" transform="scale(0.015625)"/>
      <path id="Inter-Bold-55" d="M 3286 4655 
L 4264 4655 
L 4264 1577 
Q 4264 1050 4016 683 
Q 3768 316 3333 125 
Q 2898 -66 2334 -66 
Q 1771 -66 1334 125 
Q 898 316 651 683 
Q 405 1050 405 1577 
L 405 4655 
L 1389 4655 
L 1389 1611 
Q 1389 1239 1658 1025 
Q 1927 811 2334 811 
Q 2748 811 3017 1025 
Q 3286 1239 3286 1611 
L 3286 4655 
z
" transform="scale(0.015625)"/>
      <path id="Inter-Bold-4b" d="M 405 0 
L 405 4655 
L 1389 4655 
L 1389 2602 
L 1450 2602 
L 3125 4655 
L 4305 4655 
L 2577 2570 
L 4325 0 
L 3148 0 
L 1873 1914 
L 1389 1323 
L 1389 0 
L 405 0 
z
" transform="scale(0.015625)"/>
      <path id="Inter-Bold-4e" d="M 4298 4655 
L 4298 0 
L 3448 0 
L 1423 2930 
L 1389 2930 
L 1389 0 
L 405 0 
L 405 4655 
L 1268 4655 
L 3277 1727 
L 3318 1727 
L 3318 4655 
L 4298 4655 
z
" transform="scale(0.015625)"/>
      <path id="Inter-Bold-6f" d="M 1964 -68 
Q 1434 -68 1049 158 
Q 664 384 455 789 
Q 246 1195 246 1732 
Q 246 2273 455 2678 
Q 664 3084 1049 3310 
Q 1434 3536 1964 3536 
Q 2493 3536 2878 3310 
Q 3264 3084 3473 2678 
Q 3682 2273 3682 1732 
Q 3682 1195 3473 789 
Q 3264 384 2878 158 
Q 2493 -68 1964 -68 
z
M 1968 682 
Q 2327 682 2512 982 
Q 2698 1282 2698 1739 
Q 2698 2195 2512 2496 
Q 2327 2798 1968 2798 
Q 1602 2798 1416 2496 
Q 1230 2195 1230 1739 
Q 1230 1282 1416 982 
Q 1602 682 1968 682 
z
" transform="scale(0.015625)"/>
      <path id="Inter-Bold-2c" d="M 1439 636 
L 1414 386 
Q 1384 86 1301 -212 
Q 1218 -511 1128 -754 
Q 1039 -998 984 -1136 
L 357 -1136 
Q 391 -1002 450 -763 
Q 509 -525 561 -226 
Q 614 73 627 382 
L 639 636 
L 1439 636 
z
" transform="scale(0.015625)"/>
      <path id="Inter-Bold-70" d="M 386 -1309 
L 386 3491 
L 1341 3491 
L 1341 2905 
L 1384 2905 
Q 1450 3048 1570 3193 
Q 1691 3339 1888 3437 
Q 2086 3536 2377 3536 
Q 2761 3536 3081 3337 
Q 3402 3139 3596 2740 
Q 3791 2341 3791 1741 
Q 3791 1157 3602 756 
Q 3414 355 3093 149 
Q 2773 -57 2375 -57 
Q 2093 -57 1896 36 
Q 1700 130 1576 272 
Q 1452 414 1384 559 
L 1355 559 
L 1355 -1309 
L 386 -1309 
z
M 1334 1745 
Q 1334 1280 1526 997 
Q 1718 714 2068 714 
Q 2425 714 2613 1001 
Q 2802 1289 2802 1745 
Q 2802 2200 2614 2483 
Q 2427 2766 2068 2766 
Q 1716 2766 1525 2490 
Q 1334 2214 1334 1745 
z
" transform="scale(0.015625)"/>
      <path id="Inter-Bold-72" d="M 386 0 
L 386 3491 
L 1325 3491 
L 1325 2882 
L 1361 2882 
Q 1457 3207 1681 3374 
Q 1905 3541 2200 3541 
Q 2341 3541 2461 3507 
Q 2582 3473 2677 3414 
L 2386 2614 
Q 2318 2648 2237 2671 
Q 2157 2695 2057 2695 
Q 1764 2695 1560 2495 
Q 1357 2295 1355 1975 
L 1355 0 
L 386 0 
z
" transform="scale(0.015625)"/>
     </defs>
     <use xlink:href="#Inter-Bold-43"/>
     <use xlink:href="#Inter-Bold-75" x="75.213089"/>
     <use xlink:href="#Inter-Bold-6d" x="137.393494"/>
     <use xlink:href="#Inter-Bold-75" x="228.5867"/>
     <use xlink:href="#Inter-Bold-6c" x="290.767105"/>
     <use xlink:href="#Inter-Bold-61" x="317.968811"/>
     <use xlink:href="#Inter-Bold-74" x="375.994385"/>
     <use xlink:href="#Inter-Bold-69" x="414.843826"/>
     <use xlink:href="#Inter-Bold-76" x="442.045532"/>
     <use xlink:href="#Inter-Bold-65" x="500.639297"/>
     <use xlink:href="#Inter-Bold-20" x="560.404938"/>
     <use xlink:href="#Inter-Bold-43" x="583.593857"/>
     <use xlink:href="#Inter-Bold-4f" x="658.806946"/>
     <use xlink:href="#Inter-Bold-56" x="737.002991"/>
     <use xlink:href="#Inter-Bold-49" x="811.789932"/>
     <use xlink:href="#Inter-Bold-44" x="839.843918"/>
     <use xlink:href="#Inter-Bold-2d" x="912.571213"/>
     <use xlink:href="#Inter-Bold-31" x="959.446228"/>
     <use xlink:href="#Inter-Bold-39" x="1006.853912"/>
     <use xlink:href="#Inter-Bold-20" x="1072.869553"/>
     <use xlink:href="#Inter-Bold-63" x="1096.058472"/>
     <use xlink:href="#Inter-Bold-61" x="1154.794281"/>
     <use xlink:href="#Inter-Bold-73" x="1212.819855"/>
     <use xlink:href="#Inter-Bold-65" x="1268.99884"/>
     <use xlink:href="#Inter-Bold-73" x="1328.764481"/>
     <use xlink:href="#Inter-Bold-20" x="1384.943466"/>
     <use xlink:href="#Inter-Bold-69" x="1408.132385"/>
     <use xlink:href="#Inter-Bold-6e" x="1435.334091"/>
     <use xlink:href="#Inter-Bold-20" x="1497.514496"/>
     <use xlink:href="#Inter-Bold-55" x="1520.703415"/>
     <use xlink:href="#Inter-Bold-4b" x="1593.643768"/>
     <use xlink:href="#Inter-Bold-20" x="1662.606857"/>
     <use xlink:href="#Inter-Bold-4e" x="1685.795776"/>
     <use xlink:href="#Inter-Bold-61" x="1759.304321"/>
     <use xlink:href="#Inter-Bold-74" x="1817.329895"/>
     <use xlink:href="#Inter-Bold-69" x="1856.179337"/>
     <use xlink:href="#Inter-Bold-6f" x="1883.381042"/>
     <use xlink:href="#Inter-Bold-6e" x="1944.74469"/>
     <use xlink:href="#Inter-Bold-73" x="2006.925095"/>
     <use xlink:href="#Inter-Bold-2c" x="2063.10408"/>
     <use xlink:href="#Inter-Bold-20" x="2093.395279"/>
     <use xlink:href="#Inter-Bold-70" x="2116.584198"/>
     <use xlink:href="#Inter-Bold-65" x="2179.829956"/>
     <use xlink:href="#Inter-Bold-72" x="2239.595596"/>
     <use xlink:href="#Inter-Bold-20" x="2282.457825"/>
     <use xlink:href="#Inter-Bold-63" x="2305.646744"/>
     <use xlink:href="#Inter-Bold-61" x="2364.382553"/>
     <use xlink:href="#Inter-Bold-70" x="2422.408127"/>
     <use xlink:href="#Inter-Bold-69" x="2485.653885"/>
     <use xlink:href="#Inter-Bold-74" x="2512.855591"/>
     <use xlink:href="#Inter-Bold-61" x="2551.705032"/>
    </g>
   </g>
   <g id="legend_1">
    <g id="patch_4">
     <path d="M 66.085938 98.614062 
L 175.659375 98.614062 
Q 177.659375 98.614062 177.659375 96.614062 
L 177.659375 40.225 
Q 177.659375 38.225 175.659375 38.225 
L 66.085938 38.225 
Q 64.085938 38.225 64.085938 40.225 
L 64.085938 96.614062 
Q 64.085938 98.614062 66.085938 98.614062 
z
" style="fill: #ffffff; opacity: 0.8; stroke: #cccccc; stroke-linejoin: miter"/>
    </g>
    <g id="line2d_38">
     <path d="M 68.085938 45.998437 
L 78.085938 45.998437 
L 88.085938 45.998437 
" style="fill: none; stroke: #d4351c; stroke-width: 2; stroke-linecap: square"/>
    </g>
    <g id="text_20">
     <!-- Wales -->
     <g transform="translate(96.085938 49.498437)scale(0.1 -0.1)">
      <defs>
       <path id="Inter-Regular-57" d="M 1409 0 
L 136 4655 
L 709 4655 
L 1682 864 
L 1727 864 
L 2718 4655 
L 3355 4655 
L 4346 864 
L 4391 864 
L 5364 4655 
L 5936 4655 
L 4664 0 
L 4082 0 
L 3055 3709 
L 3018 3709 
L 1991 0 
L 1409 0 
z
" transform="scale(0.015625)"/>
      </defs>
      <use xlink:href="#Inter-Regular-57"/>
      <use xlink:href="#Inter-Regular-61" x="94.886383"/>
      <use xlink:href="#Inter-Regular-6c" x="151.278442"/>
      <use xlink:href="#Inter-Regular-65" x="175.000031"/>
      <use xlink:href="#Inter-Regular-73" x="233.238678"/>
     </g>
    </g>
    <g id="line2d_39">
     <path d="M 68.085938 60.317187 
L 78.085938 60.317187 
L 88.085938 60.317187 
" style="fill: none; stroke: #003078; stroke-width: 2; stroke-linecap: square"/>
    </g>
    <g id="text_21">
     <!-- Scotland -->
     <g transform="translate(96.085938 63.817187)scale(0.1 -0.1)">
      <use xlink:href="#Inter-Regular-53"/>
      <use xlink:href="#Inter-Regular-63" x="63.778427"/>
      <use xlink:href="#Inter-Regular-6f" x="119.602295"/>
      <use xlink:href="#Inter-Regular-74" x="179.261398"/>
      <use xlink:href="#Inter-Regular-6c" x="215.625046"/>
      <use xlink:href="#Inter-Regular-61" x="239.346634"/>
      <use xlink:href="#Inter-Regular-6e" x="295.738693"/>
      <use xlink:href="#Inter-Regular-64" x="354.261429"/>
     </g>
    </g>
    <g id="line2d_40">
     <path d="M 68.085938 74.635937 
L 78.085938 74.635937 
L 88.085938 74.635937 
" style="fill: none; stroke: #ffdd00; stroke-width: 2; stroke-linecap: square"/>
    </g>
    <g id="text_22">
     <!-- Northern Ireland -->
     <g transform="translate(96.085938 78.135937)scale(0.1 -0.1)">
      <defs>
       <path id="Inter-Regular-68" d="M 1027 2100 
L 1027 0 
L 491 0 
L 491 4655 
L 1027 4655 
L 1027 2945 
L 1073 2945 
Q 1196 3216 1442 3376 
Q 1689 3536 2100 3536 
Q 2636 3536 2963 3213 
Q 3291 2891 3291 2218 
L 3291 0 
L 2755 0 
L 2755 2182 
Q 2755 2598 2540 2826 
Q 2325 3055 1946 3055 
Q 1548 3055 1287 2806 
Q 1027 2557 1027 2100 
z
" transform="scale(0.015625)"/>
       <path id="Inter-Regular-49" d="M 1127 4655 
L 1127 0 
L 564 0 
L 564 4655 
L 1127 4655 
z
" transform="scale(0.015625)"/>
      </defs>
      <use xlink:href="#Inter-Regular-4e"/>
      <use xlink:href="#Inter-Regular-6f" x="75.284103"/>
      <use xlink:href="#Inter-Regular-72" x="134.943207"/>
      <use xlink:href="#Inter-Regular-74" x="173.295486"/>
      <use xlink:href="#Inter-Regular-68" x="209.659134"/>
      <use xlink:href="#Inter-Regular-65" x="268.750061"/>
      <use xlink:href="#Inter-Regular-72" x="326.988708"/>
      <use xlink:href="#Inter-Regular-6e" x="365.340988"/>
      <use xlink:href="#Inter-Regular-20" x="423.863724"/>
      <use xlink:href="#Inter-Regular-49" x="451.988724"/>
      <use xlink:href="#Inter-Regular-72" x="478.40918"/>
      <use xlink:href="#Inter-Regular-65" x="516.761459"/>
      <use xlink:href="#Inter-Regular-6c" x="575.000107"/>
      <use xlink:href="#Inter-Regular-61" x="598.721695"/>
      <use xlink:href="#Inter-Regular-6e" x="655.113754"/>
      <use xlink:href="#Inter-Regular-64" x="713.63649"/>
     </g>
    </g>
    <g id="line2d_41">
     <path d="M 68.085938 88.954687 
L 78.085938 88.954687 
L 88.085938 88.954687 
" style="fill: none; stroke: #5694ca; stroke-width: 2; stroke-linecap: square"/>
    </g>
    <g id="text_23">
     <!-- England -->
     <g transform="translate(96.085938 92.454687)scale(0.1 -0.1)">
      <defs>
       <path id="Inter-Regular-45" d="M 564 0 
L 564 4655 
L 3373 4655 
L 3373 4155 
L 1127 4155 
L 1127 2582 
L 3227 2582 
L 3227 2082 
L 1127 2082 
L 1127 500 
L 3409 500 
L 3409 0 
L 564 0 
z
" transform="scale(0.015625)"/>
       <path id="Inter-Regular-67" d="M 1900 -1382 
Q 1316 -1382 976 -1169 
Q 636 -957 473 -682 
L 900 -382 
Q 973 -477 1084 -601 
Q 1196 -725 1390 -817 
Q 1584 -909 1900 -909 
Q 2323 -909 2598 -704 
Q 2873 -500 2873 -64 
L 2873 645 
L 2827 645 
Q 2768 550 2660 410 
Q 2552 270 2351 162 
Q 2150 55 1809 55 
Q 1386 55 1051 255 
Q 716 455 521 836 
Q 327 1218 327 1764 
Q 327 2300 516 2699 
Q 705 3098 1041 3317 
Q 1377 3536 1818 3536 
Q 2159 3536 2360 3423 
Q 2561 3311 2669 3169 
Q 2777 3027 2836 2936 
L 2891 2936 
L 2891 3491 
L 3409 3491 
L 3409 -100 
Q 3409 -550 3205 -833 
Q 3002 -1116 2660 -1249 
Q 2318 -1382 1900 -1382 
z
M 1882 536 
Q 2366 536 2624 864 
Q 2882 1193 2882 1773 
Q 2882 2339 2627 2697 
Q 2373 3055 1882 3055 
Q 1541 3055 1315 2882 
Q 1089 2709 976 2418 
Q 864 2127 864 1773 
Q 864 1227 1120 881 
Q 1377 536 1882 536 
z
" transform="scale(0.015625)"/>
      </defs>
      <use xlink:href="#Inter-Regular-45"/>
      <use xlink:href="#Inter-Regular-6e" x="59.801147"/>
      <use xlink:href="#Inter-Regular-67" x="118.323883"/>
      <use xlink:href="#Inter-Regular-6c" x="179.261398"/>
      <use xlink:href="#Inter-Regular-61" x="202.982986"/>
      <use xlink:href="#Inter-Regular-6e" x="259.375046"/>
      <use xlink:href="#Inter-Regular-64" x="317.897781"/>
     </g>
    </g>
   </g>
  </g>
 </g>
 <defs>
  <clipPath id="p442cf3a639">
   <rect x="59.085938" y="33.225" width="669.6" height="443.52"/>
  </clipPath>
 </defs>
</svg>
