<?xml version="1.0" encoding="utf-8" standalone="no"?>
<!DOCTYPE svg PUBLIC "-//W3C//DTD SVG 1.1//EN"
  "http://www.w3.org/Graphics/SVG/1.1/DTD/svg11.dtd">
<svg version="1.1" viewBox="0 0 762.425 511.234062" xmlns="http://www.w3.org/2000/svg" xmlns:xlink="http://www.w3.org/1999/xlink">
 <metadata>
  <rdf:RDF xmlns:cc="http://creativecommons.org/ns#" xmlns:dc="http://purl.org/dc/elements/1.1/" xmlns:rdf="http://www.w3.org/1999/02/22-rdf-syntax-ns#">
   <cc:Work>
    <dc:type rdf:resource="http://purl.org/dc/dcmitype/StillImage"/>
    <dc:date>2021-06-27T16:17:29.902807</dc:date>
    <dc:format>image/svg+xml</dc:format>
    <dc:creator>
     <cc:Agent>
      <dc:title>Matplotlib v3.4.2, https://matplotlib.org/</dc:title>
     </cc:Agent>
    </dc:creator>
   </cc:Work>
  </rdf:RDF>
 </metadata>
 <defs>
  <style type="text/css">*{stroke-linecap:butt;stroke-linejoin:round;}</style>
 </defs>
 <g id="figure_1">
  <g id="patch_1">
   <path d="M 0 511.234062 
L 762.425 511.234062 
L 762.425 0 
L 0 0 
z
" style="fill:#ffffff;"/>
  </g>
  <g id="axes_1">
   <g id="patch_2">
    <path d="M 74.825 476.745 
L 744.425 476.745 
L 744.425 33.225 
L 74.825 33.225 
z
" style="fill:#ffffff;"/>
   </g>
   <g id="matplotlib.axis_1">
    <g id="xtick_1">
     <g id="line2d_1">
      <defs>
       <path d="M 0 0 
L 0 3.5 
" id="mc13c3fdf88" style="stroke:#000000;stroke-width:0.8;"/>
      </defs>
      <g>
       <use style="stroke:#000000;stroke-width:0.8;" x="74.825" xlink:href="#mc13c3fdf88" y="476.745"/>
      </g>
     </g>
     <g id="text_1">
      <!-- 01 Mar -->
      <g transform="translate(58.788281 491.018437)scale(0.1 -0.1)">
       <defs>
        <path d="M 2000 -64 
Q 1230 -64 806 561 
Q 382 1186 382 2327 
Q 382 3459 809 4088 
Q 1236 4718 2000 4718 
Q 2764 4718 3191 4088 
Q 3618 3459 3618 2327 
Q 3618 1186 3194 561 
Q 2771 -64 2000 -64 
z
M 2000 436 
Q 2509 436 2791 927 
Q 3073 1418 3073 2327 
Q 3073 3234 2789 3730 
Q 2505 4227 2000 4227 
Q 1496 4227 1211 3730 
Q 927 3234 927 2327 
Q 927 1418 1210 927 
Q 1493 436 2000 436 
z
" id="Inter-Regular-30" transform="scale(0.015625)"/>
        <path d="M 1973 4655 
L 1973 0 
L 1409 0 
L 1409 3836 
L 1373 3836 
Q 1341 3773 1209 3692 
Q 1077 3611 868 3551 
Q 659 3491 391 3491 
L 391 3964 
Q 661 3964 859 4061 
Q 1057 4159 1190 4291 
Q 1323 4423 1392 4529 
Q 1461 4636 1473 4655 
L 1973 4655 
z
" id="Inter-Regular-31" transform="scale(0.015625)"/>
        <path id="Inter-Regular-20" transform="scale(0.015625)"/>
        <path d="M 564 4655 
L 1236 4655 
L 2818 791 
L 2873 791 
L 4455 4655 
L 5127 4655 
L 5127 0 
L 4600 0 
L 4600 3536 
L 4555 3536 
L 3100 0 
L 2591 0 
L 1136 3536 
L 1091 3536 
L 1091 0 
L 564 0 
L 564 4655 
z
" id="Inter-Regular-4d" transform="scale(0.015625)"/>
        <path d="M 1518 -82 
Q 1186 -82 916 44 
Q 646 170 486 410 
Q 327 650 327 991 
Q 327 1291 445 1478 
Q 564 1666 761 1773 
Q 959 1880 1199 1933 
Q 1439 1986 1682 2018 
Q 2000 2059 2199 2080 
Q 2398 2102 2490 2154 
Q 2582 2207 2582 2336 
L 2582 2355 
Q 2582 2691 2399 2877 
Q 2216 3064 1846 3064 
Q 1461 3064 1243 2895 
Q 1025 2727 936 2536 
L 427 2718 
Q 564 3036 792 3214 
Q 1021 3393 1292 3464 
Q 1564 3536 1827 3536 
Q 1996 3536 2215 3496 
Q 2434 3457 2640 3334 
Q 2846 3211 2982 2963 
Q 3118 2716 3118 2300 
L 3118 0 
L 2582 0 
L 2582 473 
L 2555 473 
Q 2500 359 2373 229 
Q 2246 100 2034 9 
Q 1823 -82 1518 -82 
z
M 1600 400 
Q 1918 400 2137 525 
Q 2357 650 2469 847 
Q 2582 1045 2582 1264 
L 2582 1755 
Q 2548 1714 2433 1681 
Q 2318 1648 2169 1624 
Q 2021 1600 1881 1583 
Q 1741 1566 1655 1555 
Q 1446 1527 1265 1467 
Q 1084 1407 974 1287 
Q 864 1168 864 964 
Q 864 684 1072 542 
Q 1280 400 1600 400 
z
" id="Inter-Regular-61" transform="scale(0.015625)"/>
        <path d="M 491 0 
L 491 3491 
L 1009 3491 
L 1009 2964 
L 1046 2964 
Q 1139 3223 1389 3384 
Q 1639 3545 1955 3545 
Q 2100 3545 2209 3511 
Q 2318 3477 2400 3418 
L 2218 2964 
Q 2161 2993 2085 3010 
Q 2009 3027 1909 3027 
Q 1527 3027 1277 2794 
Q 1027 2561 1027 2209 
L 1027 0 
L 491 0 
z
" id="Inter-Regular-72" transform="scale(0.015625)"/>
       </defs>
       <use xlink:href="#Inter-Regular-30"/>
       <use x="62.500015" xlink:href="#Inter-Regular-31"/>
       <use x="106.676163" xlink:href="#Inter-Regular-20"/>
       <use x="134.801163" xlink:href="#Inter-Regular-4d"/>
       <use x="225.99437" xlink:href="#Inter-Regular-61"/>
       <use x="282.386429" xlink:href="#Inter-Regular-72"/>
      </g>
     </g>
    </g>
    <g id="xtick_2">
     <g id="line2d_2">
      <g>
       <use style="stroke:#000000;stroke-width:0.8;" x="117.741258" xlink:href="#mc13c3fdf88" y="476.745"/>
      </g>
     </g>
    </g>
    <g id="xtick_3">
     <g id="line2d_3">
      <g>
       <use style="stroke:#000000;stroke-width:0.8;" x="159.273121" xlink:href="#mc13c3fdf88" y="476.745"/>
      </g>
     </g>
     <g id="text_2">
      <!-- 01 May -->
      <g transform="translate(142.369996 491.116875)scale(0.1 -0.1)">
       <defs>
        <path d="M 818 -1355 
Q 682 -1355 575 -1333 
Q 468 -1311 427 -1291 
L 564 -818 
Q 857 -893 1053 -814 
Q 1250 -736 1391 -345 
L 1509 -18 
L 218 3491 
L 800 3491 
L 1764 709 
L 1800 709 
L 2764 3491 
L 3346 3491 
L 1846 -564 
Q 1550 -1355 818 -1355 
z
" id="Inter-Regular-79" transform="scale(0.015625)"/>
       </defs>
       <use xlink:href="#Inter-Regular-30"/>
       <use x="62.500015" xlink:href="#Inter-Regular-31"/>
       <use x="106.676163" xlink:href="#Inter-Regular-20"/>
       <use x="134.801163" xlink:href="#Inter-Regular-4d"/>
       <use x="225.99437" xlink:href="#Inter-Regular-61"/>
       <use x="282.386429" xlink:href="#Inter-Regular-79"/>
      </g>
     </g>
    </g>
    <g id="xtick_4">
     <g id="line2d_4">
      <g>
       <use style="stroke:#000000;stroke-width:0.8;" x="202.189379" xlink:href="#mc13c3fdf88" y="476.745"/>
      </g>
     </g>
    </g>
    <g id="xtick_5">
     <g id="line2d_5">
      <g>
       <use style="stroke:#000000;stroke-width:0.8;" x="243.721242" xlink:href="#mc13c3fdf88" y="476.745"/>
      </g>
     </g>
     <g id="text_3">
      <!-- 01 Jul -->
      <g transform="translate(230.177492 491.018437)scale(0.1 -0.1)">
       <defs>
        <path d="M 2346 4655 
L 2909 4655 
L 2909 1327 
Q 2909 657 2549 296 
Q 2189 -64 1582 -64 
Q 1200 -64 902 76 
Q 605 216 434 475 
Q 264 734 264 1091 
L 818 1091 
Q 818 795 1034 615 
Q 1250 436 1582 436 
Q 1948 436 2147 664 
Q 2346 893 2346 1327 
L 2346 4655 
z
" id="Inter-Regular-4a" transform="scale(0.015625)"/>
        <path d="M 2691 1427 
L 2691 3491 
L 3227 3491 
L 3227 0 
L 2691 0 
L 2691 591 
L 2655 591 
Q 2532 325 2273 140 
Q 2014 -45 1618 -45 
Q 1127 -45 809 280 
Q 491 605 491 1273 
L 491 3491 
L 1027 3491 
L 1027 1309 
Q 1027 927 1242 700 
Q 1457 473 1791 473 
Q 1991 473 2199 575 
Q 2407 677 2549 888 
Q 2691 1100 2691 1427 
z
" id="Inter-Regular-75" transform="scale(0.015625)"/>
        <path d="M 1027 4655 
L 1027 0 
L 491 0 
L 491 4655 
L 1027 4655 
z
" id="Inter-Regular-6c" transform="scale(0.015625)"/>
       </defs>
       <use xlink:href="#Inter-Regular-30"/>
       <use x="62.500015" xlink:href="#Inter-Regular-31"/>
       <use x="106.676163" xlink:href="#Inter-Regular-20"/>
       <use x="134.801163" xlink:href="#Inter-Regular-4a"/>
       <use x="189.062531" xlink:href="#Inter-Regular-75"/>
       <use x="247.159134" xlink:href="#Inter-Regular-6c"/>
      </g>
     </g>
    </g>
    <g id="xtick_6">
     <g id="line2d_6">
      <g>
       <use style="stroke:#000000;stroke-width:0.8;" x="286.6375" xlink:href="#mc13c3fdf88" y="476.745"/>
      </g>
     </g>
    </g>
    <g id="xtick_7">
     <g id="line2d_7">
      <g>
       <use style="stroke:#000000;stroke-width:0.8;" x="329.553758" xlink:href="#mc13c3fdf88" y="476.745"/>
      </g>
     </g>
     <g id="text_4">
      <!-- 01 Sep -->
      <g transform="translate(313.666258 491.116875)scale(0.1 -0.1)">
       <defs>
        <path d="M 3109 3491 
Q 3068 3836 2777 4027 
Q 2486 4218 2064 4218 
Q 1600 4218 1318 3999 
Q 1036 3780 1036 3445 
Q 1036 3195 1189 3042 
Q 1343 2889 1553 2803 
Q 1764 2718 1936 2673 
L 2409 2545 
Q 2591 2498 2815 2414 
Q 3039 2330 3244 2185 
Q 3450 2041 3584 1816 
Q 3718 1591 3718 1264 
Q 3718 886 3521 581 
Q 3325 277 2949 97 
Q 2573 -82 2036 -82 
Q 1286 -82 845 272 
Q 405 627 364 1200 
L 946 1200 
Q 968 936 1124 764 
Q 1280 593 1519 510 
Q 1759 427 2036 427 
Q 2359 427 2616 533 
Q 2873 639 3023 828 
Q 3173 1018 3173 1273 
Q 3173 1505 3043 1650 
Q 2914 1795 2702 1886 
Q 2491 1977 2246 2045 
L 1673 2209 
Q 1127 2366 809 2657 
Q 491 2948 491 3418 
Q 491 3809 703 4101 
Q 916 4393 1276 4555 
Q 1636 4718 2082 4718 
Q 2532 4718 2882 4558 
Q 3232 4398 3437 4120 
Q 3643 3843 3655 3491 
L 3109 3491 
z
" id="Inter-Regular-53" transform="scale(0.015625)"/>
        <path d="M 1955 -73 
Q 1450 -73 1085 151 
Q 721 375 524 778 
Q 327 1182 327 1718 
Q 327 2255 524 2665 
Q 721 3075 1074 3305 
Q 1427 3536 1900 3536 
Q 2173 3536 2439 3445 
Q 2705 3355 2923 3151 
Q 3141 2948 3270 2614 
Q 3400 2280 3400 1791 
L 3400 1564 
L 866 1564 
Q 884 1005 1183 707 
Q 1482 409 1955 409 
Q 2271 409 2498 545 
Q 2725 682 2827 955 
L 3346 809 
Q 3223 414 2854 170 
Q 2486 -73 1955 -73 
z
M 866 2027 
L 2855 2027 
Q 2855 2470 2595 2762 
Q 2336 3055 1900 3055 
Q 1593 3055 1368 2911 
Q 1143 2768 1013 2533 
Q 884 2298 866 2027 
z
" id="Inter-Regular-65" transform="scale(0.015625)"/>
        <path d="M 491 -1309 
L 491 3491 
L 1009 3491 
L 1009 2936 
L 1073 2936 
Q 1132 3027 1237 3169 
Q 1343 3311 1542 3423 
Q 1741 3536 2082 3536 
Q 2523 3536 2859 3315 
Q 3196 3095 3384 2690 
Q 3573 2286 3573 1736 
Q 3573 1182 3384 776 
Q 3196 370 2861 148 
Q 2527 -73 2091 -73 
Q 1755 -73 1552 39 
Q 1350 152 1241 296 
Q 1132 441 1073 536 
L 1027 536 
L 1027 -1309 
L 491 -1309 
z
M 1018 1745 
Q 1018 1152 1276 780 
Q 1534 409 2018 409 
Q 2355 409 2581 587 
Q 2807 766 2921 1069 
Q 3036 1373 3036 1745 
Q 3036 2114 2923 2410 
Q 2811 2707 2585 2881 
Q 2359 3055 2018 3055 
Q 1527 3055 1272 2693 
Q 1018 2332 1018 1745 
z
" id="Inter-Regular-70" transform="scale(0.015625)"/>
       </defs>
       <use xlink:href="#Inter-Regular-30"/>
       <use x="62.500015" xlink:href="#Inter-Regular-31"/>
       <use x="106.676163" xlink:href="#Inter-Regular-20"/>
       <use x="134.801163" xlink:href="#Inter-Regular-53"/>
       <use x="198.57959" xlink:href="#Inter-Regular-65"/>
       <use x="256.818237" xlink:href="#Inter-Regular-70"/>
      </g>
     </g>
    </g>
    <g id="xtick_8">
     <g id="line2d_8">
      <g>
       <use style="stroke:#000000;stroke-width:0.8;" x="371.085621" xlink:href="#mc13c3fdf88" y="476.745"/>
      </g>
     </g>
    </g>
    <g id="xtick_9">
     <g id="line2d_9">
      <g>
       <use style="stroke:#000000;stroke-width:0.8;" x="414.001879" xlink:href="#mc13c3fdf88" y="476.745"/>
      </g>
     </g>
     <g id="text_5">
      <!-- 01 Nov -->
      <g transform="translate(397.730786 491.018437)scale(0.1 -0.1)">
       <defs>
        <path d="M 4255 4655 
L 4255 0 
L 3709 0 
L 1173 3655 
L 1127 3655 
L 1127 0 
L 564 0 
L 564 4655 
L 1109 4655 
L 3655 991 
L 3700 991 
L 3700 4655 
L 4255 4655 
z
" id="Inter-Regular-4e" transform="scale(0.015625)"/>
        <path d="M 1909 -73 
Q 1436 -73 1080 152 
Q 725 377 526 781 
Q 327 1186 327 1727 
Q 327 2273 526 2679 
Q 725 3086 1080 3311 
Q 1436 3536 1909 3536 
Q 2382 3536 2737 3311 
Q 3093 3086 3292 2679 
Q 3491 2273 3491 1727 
Q 3491 1186 3292 781 
Q 3093 377 2737 152 
Q 2382 -73 1909 -73 
z
M 1909 409 
Q 2268 409 2500 593 
Q 2732 777 2843 1077 
Q 2955 1377 2955 1727 
Q 2955 2077 2843 2379 
Q 2732 2682 2500 2868 
Q 2268 3055 1909 3055 
Q 1550 3055 1318 2868 
Q 1086 2682 975 2379 
Q 864 2077 864 1727 
Q 864 1377 975 1077 
Q 1086 777 1318 593 
Q 1550 409 1909 409 
z
" id="Inter-Regular-6f" transform="scale(0.015625)"/>
        <path d="M 3346 3491 
L 2055 0 
L 1509 0 
L 218 3491 
L 800 3491 
L 1764 709 
L 1800 709 
L 2764 3491 
L 3346 3491 
z
" id="Inter-Regular-76" transform="scale(0.015625)"/>
       </defs>
       <use xlink:href="#Inter-Regular-30"/>
       <use x="62.500015" xlink:href="#Inter-Regular-31"/>
       <use x="106.676163" xlink:href="#Inter-Regular-20"/>
       <use x="134.801163" xlink:href="#Inter-Regular-4e"/>
       <use x="210.085266" xlink:href="#Inter-Regular-6f"/>
       <use x="269.74437" xlink:href="#Inter-Regular-76"/>
      </g>
     </g>
    </g>
    <g id="xtick_10">
     <g id="line2d_10">
      <g>
       <use style="stroke:#000000;stroke-width:0.8;" x="455.533742" xlink:href="#mc13c3fdf88" y="476.745"/>
      </g>
     </g>
    </g>
    <g id="xtick_11">
     <g id="line2d_11">
      <g>
       <use style="stroke:#000000;stroke-width:0.8;" x="498.45" xlink:href="#mc13c3fdf88" y="476.745"/>
      </g>
     </g>
     <g id="text_6">
      <!-- 01 Jan -->
      <g transform="translate(483.250782 491.018437)scale(0.1 -0.1)">
       <defs>
        <path d="M 1027 2100 
L 1027 0 
L 491 0 
L 491 3491 
L 1009 3491 
L 1009 2945 
L 1055 2945 
Q 1177 3211 1427 3373 
Q 1677 3536 2073 3536 
Q 2602 3536 2928 3211 
Q 3255 2886 3255 2218 
L 3255 0 
L 2718 0 
L 2718 2182 
Q 2718 2593 2504 2824 
Q 2291 3055 1918 3055 
Q 1534 3055 1280 2806 
Q 1027 2557 1027 2100 
z
" id="Inter-Regular-6e" transform="scale(0.015625)"/>
       </defs>
       <use xlink:href="#Inter-Regular-30"/>
       <use x="62.500015" xlink:href="#Inter-Regular-31"/>
       <use x="106.676163" xlink:href="#Inter-Regular-20"/>
       <use x="134.801163" xlink:href="#Inter-Regular-4a"/>
       <use x="189.062531" xlink:href="#Inter-Regular-61"/>
       <use x="245.45459" xlink:href="#Inter-Regular-6e"/>
      </g>
     </g>
    </g>
    <g id="xtick_12">
     <g id="line2d_12">
      <g>
       <use style="stroke:#000000;stroke-width:0.8;" x="541.366259" xlink:href="#mc13c3fdf88" y="476.745"/>
      </g>
     </g>
    </g>
    <g id="xtick_13">
     <g id="line2d_13">
      <g>
       <use style="stroke:#000000;stroke-width:0.8;" x="580.129331" xlink:href="#mc13c3fdf88" y="476.745"/>
      </g>
     </g>
     <g id="text_7">
      <!-- 01 Mar -->
      <g transform="translate(564.092612 491.018437)scale(0.1 -0.1)">
       <use xlink:href="#Inter-Regular-30"/>
       <use x="62.500015" xlink:href="#Inter-Regular-31"/>
       <use x="106.676163" xlink:href="#Inter-Regular-20"/>
       <use x="134.801163" xlink:href="#Inter-Regular-4d"/>
       <use x="225.99437" xlink:href="#Inter-Regular-61"/>
       <use x="282.386429" xlink:href="#Inter-Regular-72"/>
      </g>
     </g>
    </g>
    <g id="xtick_14">
     <g id="line2d_14">
      <g>
       <use style="stroke:#000000;stroke-width:0.8;" x="623.045589" xlink:href="#mc13c3fdf88" y="476.745"/>
      </g>
     </g>
    </g>
    <g id="xtick_15">
     <g id="line2d_15">
      <g>
       <use style="stroke:#000000;stroke-width:0.8;" x="664.577452" xlink:href="#mc13c3fdf88" y="476.745"/>
      </g>
     </g>
     <g id="text_8">
      <!-- 01 May -->
      <g transform="translate(647.674327 491.116875)scale(0.1 -0.1)">
       <use xlink:href="#Inter-Regular-30"/>
       <use x="62.500015" xlink:href="#Inter-Regular-31"/>
       <use x="106.676163" xlink:href="#Inter-Regular-20"/>
       <use x="134.801163" xlink:href="#Inter-Regular-4d"/>
       <use x="225.99437" xlink:href="#Inter-Regular-61"/>
       <use x="282.386429" xlink:href="#Inter-Regular-79"/>
      </g>
     </g>
    </g>
    <g id="xtick_16">
     <g id="line2d_16">
      <g>
       <use style="stroke:#000000;stroke-width:0.8;" x="707.49371" xlink:href="#mc13c3fdf88" y="476.745"/>
      </g>
     </g>
    </g>
   </g>
   <g id="matplotlib.axis_2">
    <g id="ytick_1">
     <g id="line2d_17">
      <path clip-path="url(#pf7a57f7dd6)" d="M 74.825 476.745 
L 744.425 476.745 
" style="fill:none;stroke:#e5e5e5;stroke-linecap:square;stroke-width:0.8;"/>
     </g>
     <g id="line2d_18">
      <defs>
       <path d="M 0 0 
L -3.5 0 
" id="m6197a4384b" style="stroke:#000000;stroke-width:0.8;"/>
      </defs>
      <g>
       <use style="stroke:#000000;stroke-width:0.8;" x="74.825" xlink:href="#m6197a4384b" y="476.745"/>
      </g>
     </g>
     <g id="text_9">
      <!-- 0.000% -->
      <g transform="translate(31.94375 480.381719)scale(0.1 -0.1)">
       <defs>
        <path d="M 882 -36 
Q 714 -36 593 84 
Q 473 205 473 373 
Q 473 541 593 661 
Q 714 782 882 782 
Q 1050 782 1170 661 
Q 1291 541 1291 373 
Q 1291 205 1170 84 
Q 1050 -36 882 -36 
z
" id="Inter-Regular-2e" transform="scale(0.015625)"/>
        <path d="M 2855 873 
L 2855 1118 
Q 2855 1373 2960 1585 
Q 3066 1798 3269 1926 
Q 3473 2055 3764 2055 
Q 4059 2055 4259 1926 
Q 4459 1798 4561 1585 
Q 4664 1373 4664 1118 
L 4664 873 
Q 4664 618 4560 405 
Q 4457 193 4256 64 
Q 4055 -64 3764 -64 
Q 3468 -64 3266 64 
Q 3064 193 2959 405 
Q 2855 618 2855 873 
z
M 536 3536 
L 536 3782 
Q 536 4036 642 4248 
Q 748 4461 951 4589 
Q 1155 4718 1446 4718 
Q 1741 4718 1941 4589 
Q 2141 4461 2243 4248 
Q 2346 4036 2346 3782 
L 2346 3536 
Q 2346 3282 2242 3069 
Q 2139 2857 1937 2728 
Q 1736 2600 1446 2600 
Q 1150 2600 948 2728 
Q 746 2857 641 3069 
Q 536 3282 536 3536 
z
M 709 0 
L 3909 4655 
L 4427 4655 
L 1227 0 
L 709 0 
z
M 3318 1118 
L 3318 873 
Q 3318 661 3418 494 
Q 3518 327 3764 327 
Q 4002 327 4101 494 
Q 4200 661 4200 873 
L 4200 1118 
Q 4200 1330 4104 1497 
Q 4009 1664 3764 1664 
Q 3525 1664 3421 1497 
Q 3318 1330 3318 1118 
z
M 1000 3782 
L 1000 3536 
Q 1000 3325 1100 3158 
Q 1200 2991 1446 2991 
Q 1684 2991 1783 3158 
Q 1882 3325 1882 3536 
L 1882 3782 
Q 1882 3993 1786 4160 
Q 1691 4327 1446 4327 
Q 1207 4327 1103 4160 
Q 1000 3993 1000 3782 
z
" id="Inter-Regular-25" transform="scale(0.015625)"/>
       </defs>
       <use xlink:href="#Inter-Regular-30"/>
       <use x="62.500015" xlink:href="#Inter-Regular-2e"/>
       <use x="90.056839" xlink:href="#Inter-Regular-30"/>
       <use x="152.556854" xlink:href="#Inter-Regular-30"/>
       <use x="215.05687" xlink:href="#Inter-Regular-30"/>
       <use x="277.556885" xlink:href="#Inter-Regular-25"/>
      </g>
     </g>
    </g>
    <g id="ytick_2">
     <g id="line2d_19">
      <path clip-path="url(#pf7a57f7dd6)" d="M 74.825 412.067056 
L 744.425 412.067056 
" style="fill:none;stroke:#e5e5e5;stroke-linecap:square;stroke-width:0.8;"/>
     </g>
     <g id="line2d_20">
      <g>
       <use style="stroke:#000000;stroke-width:0.8;" x="74.825" xlink:href="#m6197a4384b" y="412.067056"/>
      </g>
     </g>
     <g id="text_10">
      <!-- 0.001% -->
      <g transform="translate(33.776563 415.703774)scale(0.1 -0.1)">
       <use xlink:href="#Inter-Regular-30"/>
       <use x="62.500015" xlink:href="#Inter-Regular-2e"/>
       <use x="90.056839" xlink:href="#Inter-Regular-30"/>
       <use x="152.556854" xlink:href="#Inter-Regular-30"/>
       <use x="215.05687" xlink:href="#Inter-Regular-31"/>
       <use x="259.233017" xlink:href="#Inter-Regular-25"/>
      </g>
     </g>
    </g>
    <g id="ytick_3">
     <g id="line2d_21">
      <path clip-path="url(#pf7a57f7dd6)" d="M 74.825 347.389111 
L 744.425 347.389111 
" style="fill:none;stroke:#e5e5e5;stroke-linecap:square;stroke-width:0.8;"/>
     </g>
     <g id="line2d_22">
      <g>
       <use style="stroke:#000000;stroke-width:0.8;" x="74.825" xlink:href="#m6197a4384b" y="347.389111"/>
      </g>
     </g>
     <g id="text_11">
      <!-- 0.002% -->
      <g transform="translate(32.142188 351.02583)scale(0.1 -0.1)">
       <defs>
        <path d="M 482 0 
L 482 409 
L 2018 2091 
Q 2289 2386 2464 2605 
Q 2639 2825 2724 3019 
Q 2809 3214 2809 3427 
Q 2809 3795 2553 4011 
Q 2298 4227 1918 4227 
Q 1514 4227 1275 3985 
Q 1036 3743 1036 3345 
L 500 3345 
Q 500 3755 688 4064 
Q 877 4373 1203 4545 
Q 1530 4718 1936 4718 
Q 2346 4718 2661 4545 
Q 2977 4373 3156 4079 
Q 3336 3786 3336 3427 
Q 3336 3170 3244 2926 
Q 3152 2682 2926 2383 
Q 2700 2084 2300 1655 
L 1255 536 
L 1255 500 
L 3418 500 
L 3418 0 
L 482 0 
z
" id="Inter-Regular-32" transform="scale(0.015625)"/>
       </defs>
       <use xlink:href="#Inter-Regular-30"/>
       <use x="62.500015" xlink:href="#Inter-Regular-2e"/>
       <use x="90.056839" xlink:href="#Inter-Regular-30"/>
       <use x="152.556854" xlink:href="#Inter-Regular-30"/>
       <use x="215.05687" xlink:href="#Inter-Regular-32"/>
       <use x="275.568253" xlink:href="#Inter-Regular-25"/>
      </g>
     </g>
    </g>
    <g id="ytick_4">
     <g id="line2d_23">
      <path clip-path="url(#pf7a57f7dd6)" d="M 74.825 282.711167 
L 744.425 282.711167 
" style="fill:none;stroke:#e5e5e5;stroke-linecap:square;stroke-width:0.8;"/>
     </g>
     <g id="line2d_24">
      <g>
       <use style="stroke:#000000;stroke-width:0.8;" x="74.825" xlink:href="#m6197a4384b" y="282.711167"/>
      </g>
     </g>
     <g id="text_12">
      <!-- 0.003% -->
      <g transform="translate(31.829688 286.347886)scale(0.1 -0.1)">
       <defs>
        <path d="M 2055 -64 
Q 1605 -64 1253 90 
Q 902 245 696 521 
Q 491 798 473 1164 
L 1046 1164 
Q 1071 827 1356 631 
Q 1641 436 2046 436 
Q 2493 436 2783 664 
Q 3073 893 3073 1264 
Q 3073 1650 2787 1893 
Q 2502 2136 1973 2136 
L 1600 2136 
L 1600 2636 
L 1973 2636 
Q 2386 2636 2647 2856 
Q 2909 3077 2909 3445 
Q 2909 3798 2679 4012 
Q 2450 4227 2064 4227 
Q 1823 4227 1610 4139 
Q 1398 4052 1264 3887 
Q 1130 3723 1118 3491 
L 573 3491 
Q 586 3857 793 4133 
Q 1000 4409 1335 4563 
Q 1671 4718 2073 4718 
Q 2505 4718 2814 4544 
Q 3123 4370 3289 4086 
Q 3455 3802 3455 3473 
Q 3455 3080 3249 2802 
Q 3043 2525 2691 2418 
L 2691 2382 
Q 3132 2309 3379 2008 
Q 3627 1707 3627 1264 
Q 3627 884 3421 583 
Q 3216 282 2861 109 
Q 2507 -64 2055 -64 
z
" id="Inter-Regular-33" transform="scale(0.015625)"/>
       </defs>
       <use xlink:href="#Inter-Regular-30"/>
       <use x="62.500015" xlink:href="#Inter-Regular-2e"/>
       <use x="90.056839" xlink:href="#Inter-Regular-30"/>
       <use x="152.556854" xlink:href="#Inter-Regular-30"/>
       <use x="215.05687" xlink:href="#Inter-Regular-33"/>
       <use x="278.693253" xlink:href="#Inter-Regular-25"/>
      </g>
     </g>
    </g>
    <g id="ytick_5">
     <g id="line2d_25">
      <path clip-path="url(#pf7a57f7dd6)" d="M 74.825 218.033223 
L 744.425 218.033223 
" style="fill:none;stroke:#e5e5e5;stroke-linecap:square;stroke-width:0.8;"/>
     </g>
     <g id="line2d_26">
      <g>
       <use style="stroke:#000000;stroke-width:0.8;" x="74.825" xlink:href="#m6197a4384b" y="218.033223"/>
      </g>
     </g>
     <g id="text_13">
      <!-- 0.004% -->
      <g transform="translate(31.773438 221.669942)scale(0.1 -0.1)">
       <defs>
        <path d="M 373 955 
L 373 1418 
L 2418 4655 
L 3100 4655 
L 3100 1455 
L 3736 1455 
L 3736 955 
L 3100 955 
L 3100 0 
L 2564 0 
L 2564 955 
L 373 955 
z
M 2564 1455 
L 2564 3936 
L 2527 3936 
L 982 1491 
L 982 1455 
L 2564 1455 
z
" id="Inter-Regular-34" transform="scale(0.015625)"/>
       </defs>
       <use xlink:href="#Inter-Regular-30"/>
       <use x="62.500015" xlink:href="#Inter-Regular-2e"/>
       <use x="90.056839" xlink:href="#Inter-Regular-30"/>
       <use x="152.556854" xlink:href="#Inter-Regular-30"/>
       <use x="215.05687" xlink:href="#Inter-Regular-34"/>
       <use x="279.261429" xlink:href="#Inter-Regular-25"/>
      </g>
     </g>
    </g>
    <g id="ytick_6">
     <g id="line2d_27">
      <path clip-path="url(#pf7a57f7dd6)" d="M 74.825 153.355278 
L 744.425 153.355278 
" style="fill:none;stroke:#e5e5e5;stroke-linecap:square;stroke-width:0.8;"/>
     </g>
     <g id="line2d_28">
      <g>
       <use style="stroke:#000000;stroke-width:0.8;" x="74.825" xlink:href="#m6197a4384b" y="153.355278"/>
      </g>
     </g>
     <g id="text_14">
      <!-- 0.005% -->
      <g transform="translate(32.114063 156.991997)scale(0.1 -0.1)">
       <defs>
        <path d="M 1936 -64 
Q 1536 -64 1216 95 
Q 896 255 702 532 
Q 509 809 491 1164 
L 1036 1164 
Q 1068 848 1324 642 
Q 1580 436 1936 436 
Q 2223 436 2447 570 
Q 2671 705 2799 940 
Q 2927 1175 2927 1473 
Q 2927 1777 2794 2017 
Q 2661 2257 2429 2395 
Q 2198 2534 1900 2536 
Q 1686 2539 1461 2472 
Q 1236 2405 1091 2300 
L 564 2364 
L 846 4655 
L 3264 4655 
L 3264 4155 
L 1318 4155 
L 1155 2782 
L 1182 2782 
Q 1325 2895 1541 2970 
Q 1757 3045 1991 3045 
Q 2418 3045 2753 2842 
Q 3089 2639 3281 2286 
Q 3473 1934 3473 1482 
Q 3473 1036 3274 687 
Q 3075 339 2727 137 
Q 2380 -64 1936 -64 
z
" id="Inter-Regular-35" transform="scale(0.015625)"/>
       </defs>
       <use xlink:href="#Inter-Regular-30"/>
       <use x="62.500015" xlink:href="#Inter-Regular-2e"/>
       <use x="90.056839" xlink:href="#Inter-Regular-30"/>
       <use x="152.556854" xlink:href="#Inter-Regular-30"/>
       <use x="215.05687" xlink:href="#Inter-Regular-35"/>
       <use x="275.852341" xlink:href="#Inter-Regular-25"/>
      </g>
     </g>
    </g>
    <g id="ytick_7">
     <g id="line2d_29">
      <path clip-path="url(#pf7a57f7dd6)" d="M 74.825 88.677334 
L 744.425 88.677334 
" style="fill:none;stroke:#e5e5e5;stroke-linecap:square;stroke-width:0.8;"/>
     </g>
     <g id="line2d_30">
      <g>
       <use style="stroke:#000000;stroke-width:0.8;" x="74.825" xlink:href="#m6197a4384b" y="88.677334"/>
      </g>
     </g>
     <g id="text_15">
      <!-- 0.006% -->
      <g transform="translate(31.957813 92.314053)scale(0.1 -0.1)">
       <defs>
        <path d="M 2027 -64 
Q 1741 -59 1454 45 
Q 1168 150 932 399 
Q 696 648 552 1074 
Q 409 1500 409 2145 
Q 409 3386 861 4056 
Q 1314 4727 2100 4727 
Q 2686 4727 3073 4384 
Q 3461 4041 3546 3491 
L 2991 3491 
Q 2914 3811 2691 4019 
Q 2468 4227 2100 4227 
Q 1559 4227 1249 3755 
Q 939 3284 936 2427 
L 973 2427 
Q 1164 2716 1461 2880 
Q 1759 3045 2118 3045 
Q 2518 3045 2850 2846 
Q 3182 2648 3382 2299 
Q 3582 1950 3582 1500 
Q 3582 1068 3389 710 
Q 3196 352 2847 142 
Q 2498 -68 2027 -64 
z
M 2027 436 
Q 2314 436 2542 579 
Q 2771 723 2903 964 
Q 3036 1205 3036 1500 
Q 3036 1789 2908 2026 
Q 2780 2264 2556 2404 
Q 2332 2545 2046 2545 
Q 1757 2545 1525 2397 
Q 1293 2250 1157 2010 
Q 1021 1770 1018 1491 
Q 1018 1214 1149 973 
Q 1280 732 1508 584 
Q 1736 436 2027 436 
z
" id="Inter-Regular-36" transform="scale(0.015625)"/>
       </defs>
       <use xlink:href="#Inter-Regular-30"/>
       <use x="62.500015" xlink:href="#Inter-Regular-2e"/>
       <use x="90.056839" xlink:href="#Inter-Regular-30"/>
       <use x="152.556854" xlink:href="#Inter-Regular-30"/>
       <use x="215.05687" xlink:href="#Inter-Regular-36"/>
       <use x="277.414841" xlink:href="#Inter-Regular-25"/>
      </g>
     </g>
    </g>
    <g id="text_16">
     <!-- Percent of nation who are in mechanical ventilation beds (seven day average) -->
     <g transform="translate(25.614063 438.81625)rotate(-90)scale(0.1 -0.1)">
      <defs>
       <path d="M 564 0 
L 564 4655 
L 2136 4655 
Q 2684 4655 3033 4458 
Q 3382 4261 3550 3927 
Q 3718 3593 3718 3182 
Q 3718 2770 3551 2434 
Q 3384 2098 3036 1899 
Q 2689 1700 2146 1700 
L 1127 1700 
L 1127 0 
L 564 0 
z
M 1127 2200 
L 2127 2200 
Q 2689 2200 2926 2482 
Q 3164 2764 3164 3182 
Q 3164 3602 2925 3878 
Q 2686 4155 2118 4155 
L 1127 4155 
L 1127 2200 
z
" id="Inter-Regular-50" transform="scale(0.015625)"/>
       <path d="M 1909 -73 
Q 1418 -73 1063 159 
Q 709 391 518 798 
Q 327 1205 327 1727 
Q 327 2259 524 2667 
Q 721 3075 1074 3305 
Q 1427 3536 1900 3536 
Q 2268 3536 2563 3400 
Q 2859 3264 3047 3018 
Q 3236 2773 3282 2445 
L 2746 2445 
Q 2684 2684 2474 2869 
Q 2264 3055 1909 3055 
Q 1439 3055 1151 2697 
Q 864 2339 864 1745 
Q 864 1139 1148 774 
Q 1432 409 1909 409 
Q 2223 409 2447 570 
Q 2671 732 2746 1018 
L 3282 1018 
Q 3236 709 3058 462 
Q 2880 216 2588 71 
Q 2296 -73 1909 -73 
z
" id="Inter-Regular-63" transform="scale(0.015625)"/>
       <path d="M 2009 3491 
L 2009 3036 
L 1264 3036 
L 1264 1000 
Q 1264 773 1331 660 
Q 1398 548 1503 510 
Q 1609 473 1727 473 
Q 1816 473 1873 483 
Q 1930 493 1964 500 
L 2073 18 
Q 2018 -2 1920 -23 
Q 1823 -45 1673 -45 
Q 1446 -45 1228 52 
Q 1011 150 869 350 
Q 727 550 727 855 
L 727 3036 
L 200 3036 
L 200 3491 
L 727 3491 
L 727 4327 
L 1264 4327 
L 1264 3491 
L 2009 3491 
z
" id="Inter-Regular-74" transform="scale(0.015625)"/>
       <path d="M 2046 3491 
L 2046 3036 
L 1264 3036 
L 1264 0 
L 727 0 
L 727 3036 
L 164 3036 
L 164 3491 
L 727 3491 
L 727 3973 
Q 727 4273 868 4473 
Q 1009 4673 1234 4773 
Q 1459 4873 1709 4873 
Q 1907 4873 2032 4841 
Q 2157 4809 2218 4782 
L 2064 4318 
Q 2023 4332 1951 4352 
Q 1880 4373 1764 4373 
Q 1498 4373 1381 4239 
Q 1264 4105 1264 3845 
L 1264 3491 
L 2046 3491 
z
" id="Inter-Regular-66" transform="scale(0.015625)"/>
       <path d="M 491 0 
L 491 3491 
L 1027 3491 
L 1027 0 
L 491 0 
z
M 764 4073 
Q 607 4073 494 4179 
Q 382 4286 382 4436 
Q 382 4586 494 4693 
Q 607 4800 764 4800 
Q 921 4800 1033 4693 
Q 1146 4586 1146 4436 
Q 1146 4286 1033 4179 
Q 921 4073 764 4073 
z
" id="Inter-Regular-69" transform="scale(0.015625)"/>
       <path d="M 1282 0 
L 218 3491 
L 782 3491 
L 1536 818 
L 1573 818 
L 2318 3491 
L 2891 3491 
L 3627 827 
L 3664 827 
L 4418 3491 
L 4982 3491 
L 3918 0 
L 3391 0 
L 2627 2682 
L 2573 2682 
L 1809 0 
L 1282 0 
z
" id="Inter-Regular-77" transform="scale(0.015625)"/>
       <path d="M 1027 2100 
L 1027 0 
L 491 0 
L 491 4655 
L 1027 4655 
L 1027 2945 
L 1073 2945 
Q 1196 3216 1442 3376 
Q 1689 3536 2100 3536 
Q 2636 3536 2963 3213 
Q 3291 2891 3291 2218 
L 3291 0 
L 2755 0 
L 2755 2182 
Q 2755 2598 2540 2826 
Q 2325 3055 1946 3055 
Q 1548 3055 1287 2806 
Q 1027 2557 1027 2100 
z
" id="Inter-Regular-68" transform="scale(0.015625)"/>
       <path d="M 491 0 
L 491 3491 
L 1009 3491 
L 1009 2945 
L 1055 2945 
Q 1164 3225 1407 3380 
Q 1650 3536 1991 3536 
Q 2336 3536 2567 3380 
Q 2798 3225 2927 2945 
L 2964 2945 
Q 3098 3216 3366 3376 
Q 3634 3536 4009 3536 
Q 4477 3536 4775 3244 
Q 5073 2952 5073 2336 
L 5073 0 
L 4536 0 
L 4536 2336 
Q 4536 2723 4325 2889 
Q 4114 3055 3827 3055 
Q 3459 3055 3257 2833 
Q 3055 2611 3055 2273 
L 3055 0 
L 2509 0 
L 2509 2391 
Q 2509 2689 2316 2872 
Q 2123 3055 1818 3055 
Q 1609 3055 1428 2943 
Q 1248 2832 1137 2635 
Q 1027 2439 1027 2182 
L 1027 0 
L 491 0 
z
" id="Inter-Regular-6d" transform="scale(0.015625)"/>
       <path d="M 564 0 
L 564 4655 
L 1100 4655 
L 1100 2936 
L 1146 2936 
Q 1205 3027 1310 3169 
Q 1416 3311 1615 3423 
Q 1814 3536 2155 3536 
Q 2596 3536 2932 3315 
Q 3268 3095 3457 2690 
Q 3646 2286 3646 1736 
Q 3646 1182 3457 776 
Q 3268 370 2934 148 
Q 2600 -73 2164 -73 
Q 1827 -73 1625 39 
Q 1423 152 1314 296 
Q 1205 441 1146 536 
L 1082 536 
L 1082 0 
L 564 0 
z
M 1091 1745 
Q 1091 1152 1349 780 
Q 1607 409 2091 409 
Q 2427 409 2653 587 
Q 2880 766 2994 1069 
Q 3109 1373 3109 1745 
Q 3109 2114 2996 2410 
Q 2884 2707 2658 2881 
Q 2432 3055 2091 3055 
Q 1600 3055 1345 2693 
Q 1091 2332 1091 1745 
z
" id="Inter-Regular-62" transform="scale(0.015625)"/>
       <path d="M 1809 -73 
Q 1373 -73 1039 148 
Q 705 370 516 776 
Q 327 1182 327 1736 
Q 327 2286 516 2690 
Q 705 3095 1041 3315 
Q 1377 3536 1818 3536 
Q 2159 3536 2358 3423 
Q 2557 3311 2662 3169 
Q 2768 3027 2827 2936 
L 2873 2936 
L 2873 4655 
L 3409 4655 
L 3409 0 
L 2891 0 
L 2891 536 
L 2827 536 
Q 2768 441 2659 296 
Q 2550 152 2348 39 
Q 2146 -73 1809 -73 
z
M 1882 409 
Q 2366 409 2624 780 
Q 2882 1152 2882 1745 
Q 2882 2332 2627 2693 
Q 2373 3055 1882 3055 
Q 1541 3055 1315 2881 
Q 1089 2707 976 2410 
Q 864 2114 864 1745 
Q 864 1373 978 1069 
Q 1093 766 1319 587 
Q 1546 409 1882 409 
z
" id="Inter-Regular-64" transform="scale(0.015625)"/>
       <path d="M 2964 2709 
L 2482 2573 
Q 2411 2755 2245 2914 
Q 2080 3073 1727 3073 
Q 1407 3073 1194 2926 
Q 982 2780 982 2555 
Q 982 2355 1127 2239 
Q 1273 2123 1582 2045 
L 2100 1918 
Q 3027 1691 3027 973 
Q 3027 673 2855 436 
Q 2684 200 2377 63 
Q 2071 -73 1664 -73 
Q 1130 -73 780 159 
Q 430 391 336 836 
L 846 964 
Q 989 400 1655 400 
Q 2030 400 2251 560 
Q 2473 720 2473 945 
Q 2473 1316 1955 1436 
L 1373 1573 
Q 893 1686 669 1926 
Q 446 2166 446 2527 
Q 446 2823 613 3050 
Q 780 3277 1069 3406 
Q 1359 3536 1727 3536 
Q 2246 3536 2542 3309 
Q 2839 3082 2964 2709 
z
" id="Inter-Regular-73" transform="scale(0.015625)"/>
       <path d="M 682 1964 
Q 682 2823 906 3544 
Q 1130 4266 1546 4873 
L 2018 4873 
Q 1800 4573 1623 4095 
Q 1446 3618 1341 3061 
Q 1236 2505 1236 1964 
Q 1236 1423 1341 866 
Q 1446 309 1623 -168 
Q 1800 -645 2018 -945 
L 1546 -945 
Q 1130 -339 906 383 
Q 682 1105 682 1964 
z
" id="Inter-Regular-28" transform="scale(0.015625)"/>
       <path d="M 1900 -1382 
Q 1316 -1382 976 -1169 
Q 636 -957 473 -682 
L 900 -382 
Q 973 -477 1084 -601 
Q 1196 -725 1390 -817 
Q 1584 -909 1900 -909 
Q 2323 -909 2598 -704 
Q 2873 -500 2873 -64 
L 2873 645 
L 2827 645 
Q 2768 550 2660 410 
Q 2552 270 2351 162 
Q 2150 55 1809 55 
Q 1386 55 1051 255 
Q 716 455 521 836 
Q 327 1218 327 1764 
Q 327 2300 516 2699 
Q 705 3098 1041 3317 
Q 1377 3536 1818 3536 
Q 2159 3536 2360 3423 
Q 2561 3311 2669 3169 
Q 2777 3027 2836 2936 
L 2891 2936 
L 2891 3491 
L 3409 3491 
L 3409 -100 
Q 3409 -550 3205 -833 
Q 3002 -1116 2660 -1249 
Q 2318 -1382 1900 -1382 
z
M 1882 536 
Q 2366 536 2624 864 
Q 2882 1193 2882 1773 
Q 2882 2339 2627 2697 
Q 2373 3055 1882 3055 
Q 1541 3055 1315 2882 
Q 1089 2709 976 2418 
Q 864 2127 864 1773 
Q 864 1227 1120 881 
Q 1377 536 1882 536 
z
" id="Inter-Regular-67" transform="scale(0.015625)"/>
       <path d="M 1638 1940 
Q 1638 1081 1414 359 
Q 1191 -362 775 -969 
L 302 -969 
Q 520 -669 697 -191 
Q 875 286 979 842 
Q 1084 1399 1084 1940 
Q 1084 2481 979 3038 
Q 875 3595 697 4072 
Q 520 4549 302 4849 
L 775 4849 
Q 1191 4243 1414 3521 
Q 1638 2799 1638 1940 
z
" id="Inter-Regular-29" transform="scale(0.015625)"/>
      </defs>
      <use xlink:href="#Inter-Regular-50"/>
      <use x="63.494324" xlink:href="#Inter-Regular-65"/>
      <use x="121.732971" xlink:href="#Inter-Regular-72"/>
      <use x="160.085251" xlink:href="#Inter-Regular-63"/>
      <use x="215.909119" xlink:href="#Inter-Regular-65"/>
      <use x="274.147766" xlink:href="#Inter-Regular-6e"/>
      <use x="332.670502" xlink:href="#Inter-Regular-74"/>
      <use x="369.034149" xlink:href="#Inter-Regular-20"/>
      <use x="397.159149" xlink:href="#Inter-Regular-6f"/>
      <use x="456.818253" xlink:href="#Inter-Regular-66"/>
      <use x="492.897797" xlink:href="#Inter-Regular-20"/>
      <use x="521.022797" xlink:href="#Inter-Regular-6e"/>
      <use x="579.545532" xlink:href="#Inter-Regular-61"/>
      <use x="635.937592" xlink:href="#Inter-Regular-74"/>
      <use x="672.301239" xlink:href="#Inter-Regular-69"/>
      <use x="696.022827" xlink:href="#Inter-Regular-6f"/>
      <use x="755.681931" xlink:href="#Inter-Regular-6e"/>
      <use x="814.204666" xlink:href="#Inter-Regular-20"/>
      <use x="842.329666" xlink:href="#Inter-Regular-77"/>
      <use x="923.579681" xlink:href="#Inter-Regular-68"/>
      <use x="982.670609" xlink:href="#Inter-Regular-6f"/>
      <use x="1042.329712" xlink:href="#Inter-Regular-20"/>
      <use x="1070.454712" xlink:href="#Inter-Regular-61"/>
      <use x="1126.846771" xlink:href="#Inter-Regular-72"/>
      <use x="1165.199051" xlink:href="#Inter-Regular-65"/>
      <use x="1223.437698" xlink:href="#Inter-Regular-20"/>
      <use x="1251.562698" xlink:href="#Inter-Regular-69"/>
      <use x="1275.284286" xlink:href="#Inter-Regular-6e"/>
      <use x="1333.807022" xlink:href="#Inter-Regular-20"/>
      <use x="1361.932022" xlink:href="#Inter-Regular-6d"/>
      <use x="1448.863861" xlink:href="#Inter-Regular-65"/>
      <use x="1507.102509" xlink:href="#Inter-Regular-63"/>
      <use x="1562.926376" xlink:href="#Inter-Regular-68"/>
      <use x="1622.017303" xlink:href="#Inter-Regular-61"/>
      <use x="1678.409363" xlink:href="#Inter-Regular-6e"/>
      <use x="1736.932098" xlink:href="#Inter-Regular-69"/>
      <use x="1760.653687" xlink:href="#Inter-Regular-63"/>
      <use x="1816.477554" xlink:href="#Inter-Regular-61"/>
      <use x="1872.869614" xlink:href="#Inter-Regular-6c"/>
      <use x="1896.591202" xlink:href="#Inter-Regular-20"/>
      <use x="1924.716202" xlink:href="#Inter-Regular-76"/>
      <use x="1980.398026" xlink:href="#Inter-Regular-65"/>
      <use x="2038.636673" xlink:href="#Inter-Regular-6e"/>
      <use x="2097.159409" xlink:href="#Inter-Regular-74"/>
      <use x="2133.523056" xlink:href="#Inter-Regular-69"/>
      <use x="2157.244644" xlink:href="#Inter-Regular-6c"/>
      <use x="2180.966232" xlink:href="#Inter-Regular-61"/>
      <use x="2237.358292" xlink:href="#Inter-Regular-74"/>
      <use x="2273.721939" xlink:href="#Inter-Regular-69"/>
      <use x="2297.443527" xlink:href="#Inter-Regular-6f"/>
      <use x="2357.102631" xlink:href="#Inter-Regular-6e"/>
      <use x="2415.625366" xlink:href="#Inter-Regular-20"/>
      <use x="2443.750366" xlink:href="#Inter-Regular-62"/>
      <use x="2505.824249" xlink:href="#Inter-Regular-65"/>
      <use x="2564.062897" xlink:href="#Inter-Regular-64"/>
      <use x="2626.13678" xlink:href="#Inter-Regular-73"/>
      <use x="2678.409515" xlink:href="#Inter-Regular-20"/>
      <use x="2706.534515" xlink:href="#Inter-Regular-28"/>
      <use x="2742.756104" xlink:href="#Inter-Regular-73"/>
      <use x="2795.028839" xlink:href="#Inter-Regular-65"/>
      <use x="2853.267487" xlink:href="#Inter-Regular-76"/>
      <use x="2908.94931" xlink:href="#Inter-Regular-65"/>
      <use x="2967.187958" xlink:href="#Inter-Regular-6e"/>
      <use x="3025.710693" xlink:href="#Inter-Regular-20"/>
      <use x="3053.835693" xlink:href="#Inter-Regular-64"/>
      <use x="3115.909576" xlink:href="#Inter-Regular-61"/>
      <use x="3172.301636" xlink:href="#Inter-Regular-79"/>
      <use x="3227.983459" xlink:href="#Inter-Regular-20"/>
      <use x="3256.108459" xlink:href="#Inter-Regular-61"/>
      <use x="3312.500519" xlink:href="#Inter-Regular-76"/>
      <use x="3368.182343" xlink:href="#Inter-Regular-65"/>
      <use x="3426.42099" xlink:href="#Inter-Regular-72"/>
      <use x="3464.77327" xlink:href="#Inter-Regular-61"/>
      <use x="3521.165329" xlink:href="#Inter-Regular-67"/>
      <use x="3582.102844" xlink:href="#Inter-Regular-65"/>
      <use x="3640.341492" xlink:href="#Inter-Regular-29"/>
     </g>
    </g>
   </g>
   <g id="line2d_31">
    <path clip-path="url(#pf7a57f7dd6)" d="M 119.125654 305.073183 
L 120.510049 288.181779 
L 121.894444 276.346306 
L 126.047631 245.685152 
L 127.432026 236.653969 
L 130.200817 202.444363 
L 131.585212 187.42431 
L 132.969608 174.554669 
L 134.354003 164.574131 
L 135.738399 158.385541 
L 138.50719 148.897464 
L 139.891585 149.554078 
L 141.27598 149.504832 
L 142.660376 150.506169 
L 144.044771 152.016382 
L 145.429167 154.445855 
L 146.813562 157.745342 
L 148.197958 162.259566 
L 149.582353 168.267587 
L 150.966748 175.867898 
L 152.351144 184.256146 
L 157.888726 223.111299 
L 159.273121 230.662364 
L 160.657516 239.87138 
L 162.041912 248.308874 
L 163.426307 256.024092 
L 166.195098 270.239792 
L 168.963889 286.753643 
L 171.73268 301.182743 
L 175.885866 321.45571 
L 177.270262 326.889194 
L 178.654657 330.927372 
L 184.192239 350.166172 
L 186.96103 359.112542 
L 188.345425 364.825087 
L 191.114216 374.083349 
L 193.883007 381.617999 
L 198.036193 392.747612 
L 204.95817 408.013895 
L 206.342566 410.78809 
L 209.111356 415.778359 
L 210.495752 418.371986 
L 211.880147 420.686551 
L 213.264543 422.754887 
L 214.648938 425.036621 
L 216.033333 427.663079 
L 218.802124 432.242964 
L 220.18652 433.966576 
L 221.570915 435.870758 
L 222.955311 437.512294 
L 224.339706 438.891184 
L 225.724101 439.465721 
L 227.108497 440.335735 
L 228.492892 441.02518 
L 229.877288 442.305578 
L 231.261683 442.814454 
L 232.646079 443.815791 
L 234.030474 444.406744 
L 238.18366 447.42717 
L 239.568056 447.903215 
L 240.952451 449.01946 
L 242.336847 449.47909 
L 243.721242 450.201366 
L 246.490033 451.005718 
L 249.258824 452.532346 
L 250.643219 453.188961 
L 253.41201 455.093142 
L 256.180801 456.472032 
L 257.565196 457.030155 
L 261.718383 459.590951 
L 263.102778 460.050581 
L 264.487173 460.854933 
L 267.255964 462.06967 
L 271.409151 463.103837 
L 272.793546 463.744036 
L 274.177941 464.023097 
L 276.946732 465.106511 
L 278.331128 465.730295 
L 283.868709 467.58523 
L 285.253105 467.929953 
L 288.021896 468.209014 
L 290.790687 468.685059 
L 294.943873 469.210351 
L 297.712664 469.784888 
L 300.481455 469.932626 
L 304.634641 469.702811 
L 308.787827 469.161104 
L 311.556618 469.226766 
L 317.0942 469.308843 
L 324.016177 469.784888 
L 329.553758 470.34301 
L 330.938154 470.277349 
L 335.09134 470.408672 
L 336.475736 470.408672 
L 340.628922 470.113195 
L 342.013317 470.047534 
L 343.397713 468.816382 
L 346.166504 468.126937 
L 347.550899 467.700138 
L 350.31969 466.386909 
L 351.704085 465.631802 
L 353.088481 465.861617 
L 354.472876 464.991603 
L 358.626062 461.511547 
L 360.010458 460.116242 
L 361.394853 458.458291 
L 362.779249 456.619771 
L 365.54804 453.484437 
L 366.932435 451.99064 
L 368.31683 450.677411 
L 369.701226 449.200029 
L 372.470017 446.573571 
L 378.007598 441.041596 
L 379.391994 439.498552 
L 380.776389 438.136077 
L 382.160785 437.216817 
L 386.313971 432.702594 
L 389.082762 429.682168 
L 391.851553 425.923051 
L 396.004739 420.916366 
L 397.389134 418.962939 
L 398.77353 417.255741 
L 400.157925 415.909682 
L 401.542321 413.939839 
L 402.926716 411.690935 
L 405.695507 406.569343 
L 407.079902 403.565333 
L 408.464298 400.019615 
L 409.848693 396.096345 
L 412.617484 389.809262 
L 414.001879 387.494697 
L 416.77067 380.731569 
L 418.155066 377.300759 
L 422.308252 368.223066 
L 423.692647 364.726595 
L 425.077043 362.018061 
L 426.461438 361.098801 
L 427.845834 359.719911 
L 429.230229 358.045544 
L 433.383415 349.673711 
L 434.767811 347.211408 
L 436.152206 343.632859 
L 438.920997 338.478437 
L 441.689788 335.704241 
L 443.074183 334.637243 
L 444.458579 332.979292 
L 445.842974 331.698894 
L 447.22737 330.746803 
L 448.611765 330.36925 
L 449.996161 330.352835 
L 452.764951 331.813801 
L 455.533742 335.720657 
L 456.918138 338.199376 
L 458.302533 340.989987 
L 461.071324 345.04458 
L 462.455719 347.129331 
L 463.840115 348.376898 
L 465.22451 349.427481 
L 466.608906 350.330326 
L 467.993301 350.06768 
L 470.762092 349.985603 
L 472.146487 349.39465 
L 473.530883 349.099174 
L 474.915278 348.426144 
L 476.299674 347.293484 
L 479.068465 344.814765 
L 481.837255 339.955819 
L 483.221651 336.672748 
L 484.606046 333.717983 
L 485.990442 330.254342 
L 488.759233 322.276478 
L 490.143628 318.024901 
L 491.528023 313.280862 
L 492.912419 308.126439 
L 494.296814 301.740865 
L 498.45 277.856519 
L 499.834396 269.336948 
L 502.603187 248.095474 
L 505.371978 226.000402 
L 506.756373 213.606806 
L 509.525164 185.421636 
L 515.062746 134.845917 
L 517.831536 112.73443 
L 519.215932 101.818216 
L 520.600327 92.461462 
L 521.984723 84.007552 
L 523.369118 76.981779 
L 524.753514 72.122833 
L 527.522304 63.603262 
L 530.291095 56.889381 
L 531.675491 54.853876 
L 533.059886 54.345 
L 534.444282 54.361415 
L 535.828677 54.722553 
L 537.213072 58.350347 
L 538.597468 62.37211 
L 539.981863 68.445793 
L 541.366259 73.042093 
L 542.750654 78.130854 
L 544.13505 82.628662 
L 546.90384 92.461462 
L 548.288236 98.814206 
L 549.672631 104.050705 
L 553.825818 125.439917 
L 556.594608 142.249244 
L 557.979004 150.57183 
L 560.747795 164.344316 
L 562.13219 171.353674 
L 564.900981 186.833357 
L 567.669772 201.39378 
L 570.438563 217.710646 
L 571.822958 226.377955 
L 575.976144 248.620766 
L 577.36054 255.104832 
L 578.744935 263.181188 
L 587.051308 303.595801 
L 588.435703 309.456083 
L 589.820099 316.383365 
L 595.35768 340.776587 
L 598.126471 351.216755 
L 603.664053 371.013677 
L 609.201635 388.890002 
L 613.354821 400.364338 
L 614.739216 403.483256 
L 617.508007 408.94957 
L 618.892403 411.313382 
L 620.276798 413.430963 
L 621.661193 415.269483 
L 623.045589 416.845358 
L 624.429984 418.864447 
L 627.198775 422.377333 
L 629.967566 426.120035 
L 631.351961 427.892894 
L 632.736357 429.419522 
L 634.120752 430.634259 
L 635.505148 432.128056 
L 642.427125 438.562877 
L 643.81152 439.61346 
L 645.195916 440.434227 
L 646.580311 441.419149 
L 647.964707 442.174255 
L 652.117893 445.178266 
L 654.886684 447.624154 
L 656.271079 448.80606 
L 659.03987 451.432517 
L 661.808661 453.40236 
L 664.577452 455.109558 
L 668.730638 456.964493 
L 672.883824 458.376214 
L 674.26822 458.901506 
L 675.652615 459.574535 
L 678.421406 460.707195 
L 679.805801 461.330979 
L 683.958988 462.56213 
L 689.496569 463.464975 
L 692.26536 463.497806 
L 703.340524 463.711206 
L 704.724919 463.645544 
L 706.109314 463.69479 
L 713.031292 463.103837 
L 714.415687 462.841192 
L 718.568873 461.774193 
L 719.953269 461.511547 
L 722.72206 460.608703 
L 726.875246 458.573198 
L 729.644037 456.80034 
L 731.028432 455.749757 
L 732.412828 454.912573 
L 733.797223 454.502189 
L 739.334805 451.842901 
L 740.7192 451.383271 
L 740.7192 451.383271 
" style="fill:none;stroke:#5694ca;stroke-linecap:square;stroke-width:2;"/>
   </g>
   <g id="line2d_32">
    <path clip-path="url(#pf7a57f7dd6)" d="M 105.281699 456.25208 
L 106.666095 463.083053 
L 108.05049 456.25208 
L 109.434886 452.836593 
L 110.819281 447.371814 
L 112.203677 441.451638 
L 113.588072 433.807453 
L 114.972467 424.536846 
L 116.356863 409.899046 
L 119.125654 374.280399 
L 120.510049 359.154673 
L 121.894444 346.468579 
L 126.047631 320.120539 
L 127.432026 320.120539 
L 128.816422 321.584319 
L 130.200817 320.608466 
L 131.585212 319.144686 
L 132.969608 318.168832 
L 134.354003 320.608466 
L 135.738399 325.975659 
L 137.122794 330.854926 
L 138.50719 336.222119 
L 141.27598 350.371993 
L 142.660376 358.666746 
L 144.044771 362.570159 
L 145.429167 364.521866 
L 146.813562 366.961499 
L 148.197958 366.961499 
L 149.582353 369.401133 
L 152.351144 371.352839 
L 153.735539 373.304546 
L 155.119935 376.720033 
L 156.50433 379.159666 
L 157.888726 383.063079 
L 159.273121 386.478566 
L 160.657516 390.381979 
L 164.810703 399.16466 
L 166.195098 401.116366 
L 167.579494 402.580146 
L 168.963889 402.09222 
L 170.348284 404.043926 
L 171.73268 406.48356 
L 173.117075 410.386973 
L 174.501471 413.80246 
L 177.270262 423.560993 
L 178.654657 429.90404 
L 180.039052 433.319526 
L 181.423448 434.783306 
L 182.807843 436.735013 
L 185.576634 443.565986 
L 188.345425 449.421106 
L 189.72982 452.836593 
L 191.114216 457.227933 
L 192.498611 459.17964 
L 193.883007 460.155493 
L 195.267402 460.155493 
L 196.651798 460.64342 
L 198.036193 460.64342 
L 199.420588 461.131347 
L 200.804984 461.131347 
L 202.189379 461.619273 
L 203.573775 461.619273 
L 204.95817 462.595127 
L 209.111356 459.667567 
L 211.880147 459.667567 
L 213.264543 460.64342 
L 214.648938 459.667567 
L 217.417729 460.64342 
L 218.802124 461.619273 
L 222.955311 461.619273 
L 224.339706 463.083053 
L 225.724101 465.03476 
L 227.108497 466.49854 
L 231.261683 469.4261 
L 232.646079 469.914027 
L 234.030474 469.914027 
L 236.799265 470.88988 
L 243.721242 475.769147 
L 246.490033 476.745 
L 258.949592 476.745 
L 268.64036 473.329513 
L 270.024755 473.329513 
L 278.331128 470.401953 
L 279.715523 470.401953 
L 288.021896 473.329513 
L 300.481455 473.329513 
L 303.250245 472.35366 
L 304.634641 472.35366 
L 310.172222 474.305367 
L 312.941013 476.257073 
L 314.325409 476.745 
L 317.0942 476.745 
L 322.631781 474.793293 
L 326.784968 471.865733 
L 328.169363 471.377807 
L 332.322549 468.450247 
L 336.475736 466.986467 
L 337.860131 467.474393 
L 339.244526 468.450247 
L 342.013317 469.4261 
L 346.166504 472.35366 
L 347.550899 472.35366 
L 348.935294 471.865733 
L 350.31969 471.865733 
L 351.704085 471.377807 
L 358.626062 466.49854 
L 360.010458 465.03476 
L 365.54804 461.131347 
L 366.932435 459.667567 
L 368.31683 459.17964 
L 372.470017 456.25208 
L 373.854412 454.300373 
L 376.623203 452.348667 
L 378.007598 450.884887 
L 380.776389 446.981473 
L 382.160785 445.517693 
L 383.54518 444.54184 
L 384.929576 442.102206 
L 387.698366 435.271233 
L 390.467157 429.416113 
L 391.851553 424.536846 
L 394.620344 413.80246 
L 397.389134 404.043926 
L 398.77353 399.652586 
L 400.157925 396.725026 
L 402.926716 391.845759 
L 404.311111 389.894053 
L 405.695507 387.454419 
L 407.079902 383.551006 
L 408.464298 378.183813 
L 409.848693 370.376986 
L 412.617484 357.202966 
L 414.001879 350.371993 
L 415.386275 344.516872 
L 416.77067 339.149679 
L 418.155066 336.710046 
L 419.539461 335.246266 
L 420.923857 334.758339 
L 422.308252 336.222119 
L 423.692647 336.222119 
L 425.077043 335.246266 
L 426.461438 337.685899 
L 427.845834 341.101386 
L 429.230229 346.956506 
L 430.614625 349.396139 
L 431.99902 348.908213 
L 433.383415 349.396139 
L 434.767811 352.811626 
L 436.152206 354.763333 
L 438.920997 352.811626 
L 440.305393 355.739186 
L 441.689788 359.642599 
L 443.074183 365.497719 
L 444.458579 368.913206 
L 445.842974 371.840766 
L 447.22737 375.256253 
L 448.611765 374.768326 
L 449.996161 373.792473 
L 451.380556 374.768326 
L 452.764951 373.792473 
L 454.149347 374.280399 
L 455.533742 374.280399 
L 456.918138 374.768326 
L 459.686929 380.623446 
L 461.071324 383.063079 
L 462.455719 385.990639 
L 463.840115 389.894053 
L 465.22451 394.285393 
L 467.993301 399.16466 
L 470.762092 400.140513 
L 472.146487 400.140513 
L 473.530883 398.676733 
L 474.915278 396.725026 
L 476.299674 396.237099 
L 477.684069 394.285393 
L 479.068465 392.821613 
L 483.221651 392.821613 
L 484.606046 393.309539 
L 485.990442 394.773319 
L 488.759233 398.676733 
L 490.143628 399.16466 
L 491.528023 400.140513 
L 492.912419 400.62844 
L 494.296814 400.140513 
L 495.68121 399.16466 
L 498.45 394.285393 
L 499.834396 392.821613 
L 501.218791 392.821613 
L 502.603187 389.894053 
L 503.987582 385.014786 
L 505.371978 378.671739 
L 506.756373 376.232106 
L 508.140768 371.840766 
L 509.525164 367.937353 
L 510.909559 362.082233 
L 512.293955 358.178819 
L 513.67835 356.227113 
L 515.062746 354.763333 
L 516.447141 348.908213 
L 517.831536 343.541019 
L 519.215932 337.685899 
L 520.600327 329.879072 
L 521.984723 323.048099 
L 523.369118 313.777492 
L 524.753514 305.482739 
L 526.137909 298.651766 
L 527.522304 296.212132 
L 528.9067 295.724206 
L 530.291095 293.772499 
L 531.675491 294.260426 
L 533.059886 298.651766 
L 535.828677 299.627619 
L 537.213072 298.651766 
L 538.597468 293.772499 
L 539.981863 292.796646 
L 541.366259 289.869085 
L 542.750654 284.989819 
L 544.13505 283.038112 
L 545.519445 280.110552 
L 546.90384 276.695065 
L 548.288236 275.231285 
L 549.672631 274.743359 
L 551.057027 275.719212 
L 552.441422 276.207139 
L 553.825818 277.670919 
L 556.594608 287.429452 
L 557.979004 290.844939 
L 559.363399 293.772499 
L 560.747795 296.212132 
L 563.516586 307.922372 
L 564.900981 313.289566 
L 567.669772 323.048099 
L 569.054167 328.415292 
L 570.438563 332.318706 
L 571.822958 335.246266 
L 574.591749 345.004799 
L 575.976144 350.859919 
L 577.36054 356.227113 
L 578.744935 361.106379 
L 580.129331 366.961499 
L 581.513726 371.352839 
L 582.898122 374.280399 
L 584.282517 376.720033 
L 585.666912 377.695886 
L 588.435703 383.551006 
L 589.820099 385.502713 
L 591.204494 389.406126 
L 592.588889 394.285393 
L 593.973285 398.188806 
L 595.35768 402.580146 
L 596.742076 405.995633 
L 598.126471 408.923193 
L 599.510867 413.314533 
L 600.895262 417.217946 
L 602.279657 420.145506 
L 603.664053 422.58514 
L 605.048448 424.536846 
L 606.432844 425.5127 
L 607.817239 427.952333 
L 609.201635 429.90404 
L 610.58603 431.36782 
L 611.970425 431.855746 
L 614.739216 435.75916 
L 616.123612 438.68672 
L 617.508007 439.662573 
L 618.892403 439.662573 
L 620.276798 439.174646 
L 621.661193 440.638426 
L 624.429984 441.61428 
L 625.81438 441.61428 
L 629.967566 444.54184 
L 631.351961 444.053913 
L 634.120752 444.053913 
L 635.505148 445.517693 
L 638.273939 449.421106 
L 641.042729 454.300373 
L 642.427125 455.764153 
L 643.81152 457.71586 
L 645.195916 458.691713 
L 646.580311 458.691713 
L 647.964707 459.17964 
L 650.733497 458.203787 
L 652.117893 458.691713 
L 657.655475 462.595127 
L 660.424265 465.522687 
L 661.808661 466.010613 
L 663.193056 465.522687 
L 664.577452 464.546833 
L 665.961847 463.083053 
L 670.115033 460.155493 
L 671.499429 459.667567 
L 674.26822 460.64342 
L 675.652615 461.619273 
L 677.03701 462.1072 
L 678.421406 463.083053 
L 679.805801 463.57098 
L 681.190197 464.546833 
L 682.574592 464.546833 
L 683.958988 465.03476 
L 686.727778 466.986467 
L 688.112174 466.986467 
L 689.496569 467.96232 
L 696.418546 470.401953 
L 697.802942 471.377807 
L 700.571733 472.35366 
L 703.340524 474.305367 
L 710.262501 476.745 
L 740.7192 476.745 
L 740.7192 476.745 
" style="fill:none;stroke:#ffdd00;stroke-linecap:square;stroke-width:2;"/>
   </g>
   <g id="line2d_33">
    <path clip-path="url(#pf7a57f7dd6)" d="M 98.359722 469.641827 
L 101.128513 463.722516 
L 102.512909 461.058826 
L 103.897304 458.750294 
L 105.281699 455.830101 
L 106.666095 451.71477 
L 109.434886 436.155438 
L 110.819281 426.684541 
L 112.203677 416.368027 
L 113.588072 404.191159 
L 114.972467 390.999551 
L 117.741258 359.204395 
L 123.27884 287.834415 
L 124.663235 272.444207 
L 127.432026 250.965564 
L 128.816422 242.509405 
L 130.200817 237.266587 
L 131.585212 233.884123 
L 132.969608 229.825167 
L 134.354003 227.795689 
L 135.738399 228.303058 
L 138.50719 233.545877 
L 139.891585 236.590094 
L 141.27598 241.663789 
L 142.660376 249.612578 
L 144.044771 256.715751 
L 145.429167 261.789447 
L 146.813562 268.554374 
L 149.582353 284.790198 
L 152.351144 298.827422 
L 153.735539 304.746733 
L 157.888726 325.041514 
L 160.657516 335.696273 
L 163.426307 347.365772 
L 164.810703 351.086482 
L 168.963889 363.601597 
L 170.348284 366.138445 
L 171.73268 369.013539 
L 173.117075 372.226879 
L 175.885866 380.006545 
L 177.270262 382.543392 
L 178.654657 384.741994 
L 180.039052 390.492182 
L 181.423448 394.382015 
L 182.807843 397.257109 
L 184.192239 400.977818 
L 185.576634 403.17642 
L 188.345425 410.11047 
L 189.72982 411.632578 
L 191.114216 414.169426 
L 193.883007 422.118215 
L 196.651798 427.022787 
L 198.036193 428.714019 
L 200.804984 434.464207 
L 202.189379 436.662808 
L 203.573775 436.831931 
L 204.95817 437.508424 
L 206.342566 439.030532 
L 207.726961 441.905626 
L 209.111356 444.104228 
L 210.495752 444.442474 
L 211.880147 444.949843 
L 213.264543 447.148445 
L 214.648938 449.854415 
L 216.033333 451.038278 
L 218.802124 451.038278 
L 220.18652 452.729509 
L 221.570915 453.744248 
L 222.955311 454.082495 
L 224.339706 453.406002 
L 225.724101 453.236879 
L 227.108497 454.082495 
L 228.492892 455.097234 
L 229.877288 454.928111 
L 231.261683 455.43548 
L 232.646079 455.097234 
L 234.030474 454.928111 
L 235.414869 455.604603 
L 236.799265 455.773727 
L 238.18366 455.43548 
L 239.568056 455.94285 
L 240.952451 456.788466 
L 242.336847 457.126712 
L 243.721242 458.141451 
L 245.105637 459.663559 
L 246.490033 460.509175 
L 247.874428 460.001806 
L 250.643219 460.678299 
L 252.027615 462.707777 
L 253.41201 463.722516 
L 256.180801 463.722516 
L 257.565196 465.921117 
L 258.949592 466.766733 
L 260.333987 467.104979 
L 261.718383 466.259363 
L 263.102778 467.104979 
L 265.871569 468.119718 
L 267.255964 467.781472 
L 268.64036 468.119718 
L 270.024755 467.443225 
L 271.409151 466.09024 
L 272.793546 466.59761 
L 274.177941 467.274102 
L 275.562337 468.457965 
L 276.946732 469.472704 
L 278.331128 469.81095 
L 279.715523 471.163935 
L 281.099919 474.208152 
L 282.484314 474.377276 
L 283.868709 474.377276 
L 285.253105 474.039029 
L 292.175082 473.193413 
L 293.559477 472.855167 
L 301.86585 472.855167 
L 304.634641 473.193413 
L 310.172222 473.193413 
L 317.0942 474.039029 
L 319.86299 474.715522 
L 322.631781 474.715522 
L 324.016177 474.546399 
L 326.784968 473.53166 
L 328.169363 472.855167 
L 329.553758 472.009551 
L 330.938154 471.502182 
L 332.322549 471.163935 
L 333.706945 470.994812 
L 335.09134 471.502182 
L 336.475736 471.671305 
L 339.244526 471.671305 
L 340.628922 471.502182 
L 342.013317 470.994812 
L 343.397713 470.656566 
L 344.782108 469.81095 
L 346.166504 469.472704 
L 347.550899 469.30358 
L 350.31969 469.30358 
L 351.704085 469.641827 
L 353.088481 469.81095 
L 354.472876 469.472704 
L 355.857272 468.965334 
L 357.241667 468.627088 
L 360.010458 467.274102 
L 361.394853 466.428486 
L 362.779249 465.413747 
L 364.163644 465.075501 
L 365.54804 464.568132 
L 366.932435 463.215146 
L 368.31683 462.200407 
L 369.701226 461.354791 
L 371.085621 460.170929 
L 372.470017 458.817944 
L 373.854412 456.788466 
L 375.238808 455.097234 
L 376.623203 454.082495 
L 378.007598 452.560386 
L 382.160785 445.964582 
L 383.54518 444.104228 
L 386.313971 439.537902 
L 387.698366 437.84667 
L 390.467157 430.743497 
L 396.004739 412.478194 
L 397.389134 406.558883 
L 400.157925 398.779217 
L 401.542321 395.735 
L 404.311111 388.124457 
L 405.695507 383.219885 
L 409.848693 377.131451 
L 411.233089 375.947589 
L 412.617484 376.624081 
L 414.001879 377.469697 
L 415.386275 376.962328 
L 418.155066 373.748987 
L 419.539461 372.226879 
L 420.923857 369.690031 
L 422.308252 365.461952 
L 423.692647 360.388257 
L 425.077043 358.358779 
L 426.461438 356.667547 
L 427.845834 356.83667 
L 429.230229 356.329301 
L 430.614625 356.667547 
L 431.99902 358.866148 
L 433.383415 360.726503 
L 436.152206 363.094228 
L 437.536602 363.939843 
L 438.920997 366.138445 
L 440.305393 367.49143 
L 441.689788 366.138445 
L 443.074183 366.984061 
L 444.458579 369.351785 
L 445.842974 371.21214 
L 447.22737 371.888633 
L 448.611765 371.043017 
L 449.996161 372.396002 
L 451.380556 376.285835 
L 452.764951 379.499175 
L 454.149347 381.021284 
L 455.533742 383.389008 
L 456.918138 386.094979 
L 458.302533 389.646566 
L 459.686929 392.183413 
L 462.455719 396.749739 
L 463.840115 399.45571 
L 465.22451 401.654311 
L 467.993301 407.573622 
L 470.762092 411.632578 
L 472.146487 414.169426 
L 474.915278 418.397505 
L 476.299674 418.566628 
L 477.684069 418.904875 
L 479.068465 419.412244 
L 480.45286 419.243121 
L 481.837255 417.382766 
L 483.221651 415.184165 
L 484.606046 412.647317 
L 485.990442 411.463455 
L 487.374837 410.448716 
L 488.759233 410.956086 
L 490.143628 411.125209 
L 491.528023 411.801701 
L 492.912419 412.309071 
L 494.296814 411.463455 
L 497.065605 406.897129 
L 502.603187 388.970073 
L 508.140768 369.859154 
L 509.525164 364.616336 
L 513.67835 343.475939 
L 519.215932 317.092724 
L 520.600327 313.033768 
L 521.984723 309.651305 
L 523.369118 306.776211 
L 524.753514 303.055501 
L 527.522304 296.459697 
L 528.9067 294.091973 
L 530.291095 292.400741 
L 531.675491 291.555125 
L 533.059886 291.724248 
L 534.444282 293.584603 
L 535.828677 296.797944 
L 538.597468 302.548131 
L 539.981863 304.915856 
L 541.366259 306.268841 
L 542.750654 307.28358 
L 545.519445 312.188152 
L 546.90384 315.739739 
L 548.288236 319.967818 
L 551.057027 331.80644 
L 552.441422 337.049259 
L 555.210213 343.137693 
L 556.594608 344.490678 
L 557.979004 345.674541 
L 559.363399 346.351033 
L 560.747795 347.365772 
L 562.13219 349.39525 
L 564.900981 354.130699 
L 566.285376 357.005793 
L 567.669772 359.035271 
L 569.054167 359.880887 
L 570.438563 360.388257 
L 571.822958 361.572119 
L 574.591749 363.601597 
L 575.976144 366.645814 
L 577.36054 370.70477 
L 578.744935 374.256357 
L 580.129331 378.991806 
L 581.513726 382.712516 
L 584.282517 390.492182 
L 585.666912 393.198152 
L 587.051308 395.058507 
L 588.435703 397.933601 
L 589.820099 399.963079 
L 591.204494 403.683789 
L 592.588889 407.066253 
L 595.35768 416.029781 
L 596.742076 420.25786 
L 598.126471 423.809447 
L 599.510867 427.022787 
L 600.895262 428.206649 
L 602.279657 430.067004 
L 603.664053 430.405251 
L 605.048448 430.91262 
L 606.432844 432.096482 
L 607.817239 433.618591 
L 609.201635 434.802453 
L 610.58603 437.170177 
L 611.970425 438.35404 
L 613.354821 439.368779 
L 614.739216 440.890887 
L 616.123612 441.736503 
L 617.508007 443.258612 
L 618.892403 445.118967 
L 620.276798 445.964582 
L 623.045589 449.516169 
L 624.429984 450.023539 
L 625.81438 451.376524 
L 627.198775 451.883894 
L 628.583171 452.560386 
L 629.967566 452.898633 
L 632.736357 452.898633 
L 634.120752 453.575125 
L 636.889543 452.898633 
L 638.273939 452.391263 
L 641.042729 452.729509 
L 642.427125 453.575125 
L 643.81152 453.744248 
L 645.195916 454.420741 
L 649.349102 457.972328 
L 650.733497 458.987067 
L 652.117893 459.663559 
L 653.502288 460.678299 
L 654.886684 461.354791 
L 660.424265 462.707777 
L 661.808661 462.707777 
L 663.193056 463.215146 
L 664.577452 463.384269 
L 665.961847 463.384269 
L 667.346243 463.553392 
L 668.730638 463.553392 
L 670.115033 463.384269 
L 672.883824 463.722516 
L 674.26822 464.060762 
L 675.652615 465.075501 
L 678.421406 466.766733 
L 681.190197 469.134457 
L 682.574592 469.980073 
L 683.958988 471.163935 
L 686.727778 472.178674 
L 689.496569 472.855167 
L 692.26536 472.516921 
L 693.649756 471.840428 
L 695.034151 471.333058 
L 699.187337 470.318319 
L 700.571733 470.487443 
L 701.956128 470.149196 
L 703.340524 470.318319 
L 704.724919 470.149196 
L 706.109314 469.641827 
L 710.262501 467.612349 
L 711.646896 467.274102 
L 714.415687 466.259363 
L 715.800082 465.582871 
L 717.184478 465.244624 
L 718.568873 464.399008 
L 719.953269 463.384269 
L 721.337664 462.538653 
L 724.106455 460.509175 
L 726.875246 458.817944 
L 728.259641 458.817944 
L 729.644037 459.15619 
L 731.028432 459.325313 
L 732.412828 460.001806 
L 733.797223 460.509175 
L 735.181618 460.847422 
L 736.566014 460.678299 
L 737.950409 460.170929 
L 739.334805 459.325313 
L 740.7192 458.64882 
L 740.7192 458.64882 
" style="fill:none;stroke:#003078;stroke-linecap:square;stroke-width:2;"/>
   </g>
   <g id="line2d_34">
    <path clip-path="url(#pf7a57f7dd6)" d="M 105.281699 443.922709 
L 106.666095 429.562957 
L 109.434886 418.793143 
L 110.819281 415.203205 
L 112.203677 407.339531 
L 113.588072 396.44761 
L 116.356863 366.262825 
L 119.125654 324.355793 
L 121.894444 282.741818 
L 123.27884 265.158448 
L 124.663235 244.937572 
L 126.047631 226.475034 
L 128.816422 196.876361 
L 130.200817 184.274946 
L 131.585212 176.362429 
L 132.969608 169.915194 
L 134.354003 164.640183 
L 135.738399 162.58879 
L 137.122794 162.58879 
L 138.50719 164.347127 
L 139.891585 162.58879 
L 141.27598 158.192947 
L 142.660376 158.192947 
L 144.044771 159.658228 
L 145.429167 164.347127 
L 146.813562 169.622138 
L 148.197958 178.999935 
L 152.351144 214.166675 
L 153.735539 227.354202 
L 155.119935 235.559775 
L 156.50433 244.644516 
L 157.888726 251.677864 
L 159.273121 259.590381 
L 160.657516 269.261234 
L 162.041912 274.243189 
L 163.426307 278.052919 
L 166.195098 289.775166 
L 167.579494 294.171008 
L 168.963889 295.050177 
L 170.348284 300.325188 
L 174.501471 314.098828 
L 177.270262 322.890513 
L 178.654657 332.561366 
L 180.039052 336.371096 
L 182.807843 346.628062 
L 184.192239 348.972511 
L 185.576634 352.196129 
L 186.96103 355.712803 
L 188.345425 355.126691 
L 189.72982 356.298916 
L 191.114216 358.643365 
L 198.036193 376.226735 
L 199.420588 381.794802 
L 202.189379 387.655925 
L 203.573775 389.707319 
L 204.95817 390.293431 
L 206.342566 391.465656 
L 207.726961 391.758712 
L 209.111356 391.172599 
L 210.495752 392.344824 
L 211.880147 392.051768 
L 213.264543 393.223993 
L 214.648938 396.154554 
L 216.033333 399.964284 
L 218.802124 408.462913 
L 220.18652 410.514306 
L 221.570915 411.100419 
L 222.955311 414.324037 
L 224.339706 414.03098 
L 225.724101 414.03098 
L 227.108497 414.617093 
L 228.492892 412.858756 
L 229.877288 414.03098 
L 231.261683 416.668486 
L 232.646079 418.719879 
L 234.030474 420.478216 
L 235.414869 422.822665 
L 236.799265 423.701834 
L 238.18366 427.218508 
L 239.568056 428.976845 
L 240.952451 429.856013 
L 242.336847 429.856013 
L 243.721242 431.321294 
L 245.105637 431.907407 
L 246.490033 433.9588 
L 247.874428 435.717137 
L 249.258824 437.182418 
L 250.643219 440.406035 
L 252.027615 443.336597 
L 253.41201 446.853271 
L 254.796405 448.904664 
L 256.180801 448.904664 
L 257.565196 450.369945 
L 258.949592 450.956057 
L 260.333987 449.783833 
L 261.718383 450.663001 
L 263.102778 450.663001 
L 264.487173 449.19772 
L 265.871569 450.956057 
L 267.255964 450.956057 
L 268.64036 453.007451 
L 270.024755 456.231068 
L 271.409151 456.231068 
L 272.793546 456.817181 
L 274.177941 460.040799 
L 276.946732 461.799136 
L 278.331128 461.799136 
L 279.715523 460.333855 
L 281.099919 459.454686 
L 282.484314 458.282462 
L 283.868709 456.817181 
L 285.253105 456.231068 
L 286.6375 454.179675 
L 288.021896 453.593563 
L 290.790687 456.524125 
L 292.175082 458.282462 
L 293.559477 460.626911 
L 294.943873 462.092192 
L 296.328268 465.31581 
L 297.712664 466.488034 
L 299.097059 466.488034 
L 300.481455 466.78109 
L 301.86585 466.488034 
L 303.250245 465.608866 
L 304.634641 465.31581 
L 306.019036 464.729697 
L 307.403432 464.436641 
L 308.787827 465.31581 
L 310.172222 465.31581 
L 311.556618 465.901922 
L 312.941013 464.729697 
L 314.325409 464.729697 
L 315.709804 465.31581 
L 317.0942 465.608866 
L 318.478595 465.31581 
L 319.86299 465.901922 
L 321.247386 465.608866 
L 322.631781 466.78109 
L 324.016177 467.660259 
L 325.400572 467.660259 
L 326.784968 466.488034 
L 328.169363 464.729697 
L 329.553758 461.799136 
L 330.938154 459.454686 
L 333.706945 456.524125 
L 335.09134 454.472731 
L 336.475736 454.179675 
L 337.860131 454.472731 
L 339.244526 455.938012 
L 340.628922 457.696349 
L 342.013317 458.868574 
L 343.397713 459.16163 
L 344.782108 459.747742 
L 347.550899 459.16163 
L 348.935294 460.040799 
L 350.31969 459.747742 
L 351.704085 458.575518 
L 353.088481 456.231068 
L 354.472876 455.938012 
L 355.857272 455.938012 
L 357.241667 454.179675 
L 360.010458 447.146327 
L 361.394853 444.801878 
L 362.779249 443.629653 
L 364.163644 439.819923 
L 368.31683 426.632396 
L 369.701226 424.287946 
L 372.470017 416.668486 
L 373.854412 414.324037 
L 375.238808 413.151812 
L 376.623203 412.5657 
L 378.007598 414.324037 
L 379.391994 414.910149 
L 380.776389 416.668486 
L 382.160785 416.668486 
L 384.929576 417.254598 
L 386.313971 417.840711 
L 387.698366 418.719879 
L 389.082762 418.133767 
L 390.467157 416.961542 
L 391.851553 416.961542 
L 393.235948 415.203205 
L 394.620344 411.979587 
L 396.004739 408.169857 
L 397.389134 402.894846 
L 398.77353 399.378172 
L 400.157925 394.396217 
L 401.542321 391.758712 
L 402.926716 388.82815 
L 404.311111 385.311476 
L 405.695507 382.967027 
L 407.079902 382.380914 
L 408.464298 380.622577 
L 409.848693 380.915634 
L 411.233089 376.226735 
L 412.617484 370.072555 
L 414.001879 369.779499 
L 415.386275 368.021162 
L 416.77067 365.383657 
L 419.539461 357.47114 
L 420.923857 354.833635 
L 422.308252 356.298916 
L 423.692647 353.368354 
L 425.077043 348.386399 
L 426.461438 344.283613 
L 429.230229 344.869725 
L 430.614625 344.576669 
L 431.99902 341.353051 
L 433.383415 341.353051 
L 434.767811 346.04195 
L 436.152206 347.800287 
L 437.536602 346.628062 
L 438.920997 343.990557 
L 440.305393 344.869725 
L 441.689788 346.04195 
L 443.074183 343.404444 
L 444.458579 338.715546 
L 445.842974 336.371096 
L 447.22737 335.491928 
L 449.996161 334.905815 
L 451.380556 334.905815 
L 452.764951 336.07804 
L 454.149347 337.836377 
L 455.533742 337.836377 
L 456.918138 336.957209 
L 458.302533 336.371096 
L 459.686929 334.319703 
L 461.071324 332.854422 
L 462.455719 330.509973 
L 463.840115 326.407187 
L 465.22451 324.355793 
L 466.608906 322.597456 
L 467.993301 319.080782 
L 469.377697 316.150221 
L 470.762092 313.805771 
L 472.146487 310.582154 
L 473.530883 307.944648 
L 474.915278 301.790469 
L 476.299674 293.584896 
L 477.684069 288.016829 
L 480.45286 278.639032 
L 481.837255 276.880695 
L 483.221651 273.657077 
L 484.606046 271.019571 
L 485.990442 271.312627 
L 487.374837 271.312627 
L 490.143628 263.986223 
L 492.912419 249.040359 
L 494.296814 244.644516 
L 495.68121 239.662561 
L 497.065605 232.629213 
L 498.45 229.112539 
L 499.834396 221.493079 
L 501.218791 216.511124 
L 502.603187 213.287506 
L 503.987582 208.012495 
L 505.371978 202.151372 
L 506.756373 197.169417 
L 508.140768 190.136069 
L 509.525164 188.084676 
L 510.909559 185.740227 
L 512.293955 183.688834 
L 513.67835 180.758272 
L 515.062746 178.999935 
L 516.447141 181.344384 
L 517.831536 183.98189 
L 519.215932 185.154114 
L 520.600327 186.033283 
L 521.984723 184.861058 
L 523.369118 188.670788 
L 524.753514 191.015238 
L 527.522304 191.60135 
L 528.9067 194.238856 
L 530.291095 197.462473 
L 531.675491 200.979147 
L 533.059886 203.030541 
L 534.444282 203.909709 
L 535.828677 203.909709 
L 539.981863 210.943057 
L 541.366259 217.976405 
L 542.750654 222.95836 
L 548.288236 252.263977 
L 549.672631 261.641774 
L 551.057027 268.968178 
L 552.441422 277.466807 
L 553.825818 283.034874 
L 555.210213 286.844604 
L 556.594608 291.240447 
L 557.979004 294.171008 
L 559.363399 295.636289 
L 560.747795 298.859907 
L 562.13219 300.325188 
L 564.900981 307.651592 
L 566.285376 310.582154 
L 567.669772 314.098828 
L 573.207354 334.319703 
L 574.591749 340.766939 
L 578.744935 362.160039 
L 580.129331 365.969769 
L 581.513726 368.607275 
L 582.898122 373.589229 
L 585.666912 385.01842 
L 587.051308 389.707319 
L 588.435703 392.344824 
L 589.820099 395.861498 
L 591.204494 401.136509 
L 592.588889 404.360127 
L 593.973285 406.997632 
L 595.35768 407.876801 
L 596.742076 409.049026 
L 598.126471 411.393475 
L 599.510867 413.151812 
L 600.895262 414.324037 
L 602.279657 415.203205 
L 603.664053 415.789317 
L 605.048448 415.496261 
L 606.432844 415.789317 
L 607.817239 414.617093 
L 609.201635 415.496261 
L 610.58603 416.961542 
L 611.970425 417.547654 
L 613.354821 419.892104 
L 614.739216 423.408778 
L 616.123612 426.046283 
L 617.508007 430.442126 
L 621.661193 439.233811 
L 623.045589 440.699092 
L 624.429984 441.57826 
L 625.81438 442.750485 
L 627.198775 442.164372 
L 628.583171 442.164372 
L 629.967566 441.871316 
L 631.351961 441.871316 
L 632.736357 442.750485 
L 634.120752 443.336597 
L 635.505148 443.629653 
L 636.889543 444.508822 
L 639.658334 446.853271 
L 641.042729 448.318552 
L 642.427125 448.611608 
L 643.81152 449.783833 
L 645.195916 451.54217 
L 646.580311 453.593563 
L 647.964707 455.058844 
L 650.733497 457.403293 
L 652.117893 459.16163 
L 653.502288 460.333855 
L 654.886684 461.799136 
L 659.03987 465.31581 
L 660.424265 465.901922 
L 663.193056 468.832484 
L 664.577452 468.832484 
L 665.961847 468.539427 
L 668.730638 469.12554 
L 670.115033 469.711652 
L 672.883824 469.12554 
L 674.26822 469.711652 
L 675.652615 470.590821 
L 677.03701 470.297764 
L 682.574592 470.297764 
L 683.958988 470.883877 
L 686.727778 471.469989 
L 689.496569 471.469989 
L 692.26536 472.642214 
L 693.649756 472.349158 
L 695.034151 472.349158 
L 696.418546 472.642214 
L 697.802942 472.349158 
L 699.187337 472.349158 
L 700.571733 471.176933 
L 701.956128 470.883877 
L 704.724919 470.883877 
L 706.109314 470.297764 
L 707.49371 470.590821 
L 708.878105 470.590821 
L 710.262501 471.469989 
L 713.031292 470.883877 
L 714.415687 470.297764 
L 717.184478 470.883877 
L 718.568873 470.883877 
L 719.953269 470.297764 
L 721.337664 470.590821 
L 722.72206 470.590821 
L 724.106455 471.469989 
L 725.49085 472.056101 
L 726.875246 472.056101 
L 728.259641 472.642214 
L 729.644037 473.521382 
L 732.412828 474.107495 
L 735.181618 474.107495 
L 736.566014 473.814438 
L 737.950409 473.814438 
L 739.334805 473.521382 
L 739.334805 473.521382 
" style="fill:none;stroke:#d4351c;stroke-linecap:square;stroke-width:2;"/>
   </g>
   <g id="patch_3">
    <path d="M 74.825 476.745 
L 744.425 476.745 
" style="fill:none;stroke:#000000;stroke-linecap:square;stroke-linejoin:miter;stroke-width:0.8;"/>
   </g>
   <g id="text_17">
    <!-- Average COVID-19 patients in mechanical ventilation beds by nation, per capita -->
    <g transform="translate(176.096563 27.225)scale(0.12 -0.12)">
     <defs>
      <path d="M 1207 0 
L 152 0 
L 1759 4655 
L 3027 4655 
L 4632 0 
L 3577 0 
L 3232 1061 
L 1552 1061 
L 1207 0 
z
M 1802 1830 
L 2984 1830 
L 2411 3591 
L 2375 3591 
L 1802 1830 
z
" id="Inter-Bold-41" transform="scale(0.015625)"/>
      <path d="M 3641 3491 
L 2421 0 
L 1330 0 
L 109 3491 
L 1132 3491 
L 1857 993 
L 1893 993 
L 2616 3491 
L 3641 3491 
z
" id="Inter-Bold-76" transform="scale(0.015625)"/>
      <path d="M 1977 -68 
Q 1441 -68 1052 151 
Q 664 370 455 773 
Q 246 1177 246 1730 
Q 246 2268 455 2675 
Q 664 3082 1044 3309 
Q 1425 3536 1939 3536 
Q 2400 3536 2771 3340 
Q 3143 3145 3361 2751 
Q 3580 2357 3580 1764 
L 3580 1498 
L 1202 1498 
L 1202 1495 
Q 1202 1105 1416 880 
Q 1630 655 1993 655 
Q 2236 655 2413 757 
Q 2591 859 2664 1059 
L 3559 1000 
Q 3457 514 3041 223 
Q 2625 -68 1977 -68 
z
M 1202 2098 
L 2668 2098 
Q 2666 2409 2468 2611 
Q 2271 2814 1955 2814 
Q 1632 2814 1425 2604 
Q 1218 2395 1202 2098 
z
" id="Inter-Bold-65" transform="scale(0.015625)"/>
      <path d="M 386 0 
L 386 3491 
L 1325 3491 
L 1325 2882 
L 1361 2882 
Q 1457 3207 1681 3374 
Q 1905 3541 2200 3541 
Q 2341 3541 2461 3507 
Q 2582 3473 2677 3414 
L 2386 2614 
Q 2318 2648 2237 2671 
Q 2157 2695 2057 2695 
Q 1764 2695 1560 2495 
Q 1357 2295 1355 1975 
L 1355 0 
L 386 0 
z
" id="Inter-Bold-72" transform="scale(0.015625)"/>
      <path d="M 1382 -66 
Q 882 -66 552 195 
Q 223 457 223 975 
Q 223 1366 407 1588 
Q 591 1811 890 1914 
Q 1189 2018 1534 2050 
Q 1989 2095 2184 2145 
Q 2380 2195 2380 2364 
L 2380 2377 
Q 2380 2593 2244 2711 
Q 2109 2830 1861 2830 
Q 1600 2830 1445 2716 
Q 1291 2602 1241 2427 
L 346 2500 
Q 446 2977 842 3256 
Q 1239 3536 1866 3536 
Q 2255 3536 2593 3413 
Q 2932 3291 3140 3030 
Q 3348 2770 3348 2355 
L 3348 0 
L 2430 0 
L 2430 484 
L 2402 484 
Q 2275 241 2021 87 
Q 1768 -66 1382 -66 
z
M 1659 602 
Q 1977 602 2181 787 
Q 2386 973 2386 1248 
L 2386 1618 
Q 2330 1580 2210 1550 
Q 2091 1520 1956 1498 
Q 1821 1477 1714 1461 
Q 1459 1425 1303 1318 
Q 1148 1211 1148 1007 
Q 1148 807 1292 704 
Q 1436 602 1659 602 
z
" id="Inter-Bold-61" transform="scale(0.015625)"/>
      <path d="M 1959 -1359 
Q 1255 -1359 852 -1082 
Q 450 -805 364 -409 
L 1259 -289 
Q 1318 -430 1489 -547 
Q 1661 -664 1982 -664 
Q 2298 -664 2503 -514 
Q 2709 -364 2709 -20 
L 2709 618 
L 2668 618 
Q 2573 402 2332 226 
Q 2091 50 1673 50 
Q 1280 50 958 234 
Q 636 418 446 795 
Q 257 1173 257 1752 
Q 257 2348 451 2743 
Q 646 3139 967 3337 
Q 1289 3536 1671 3536 
Q 1964 3536 2161 3437 
Q 2359 3339 2482 3193 
Q 2605 3048 2668 2905 
L 2705 2905 
L 2705 3491 
L 3666 3491 
L 3666 -34 
Q 3666 -468 3446 -763 
Q 3227 -1059 2843 -1209 
Q 2459 -1359 1959 -1359 
z
M 1980 777 
Q 2330 777 2522 1036 
Q 2714 1295 2714 1757 
Q 2714 2216 2523 2491 
Q 2332 2766 1980 2766 
Q 1621 2766 1433 2484 
Q 1246 2202 1246 1757 
Q 1246 1305 1434 1041 
Q 1623 777 1980 777 
z
" id="Inter-Bold-67" transform="scale(0.015625)"/>
      <path id="Inter-Bold-20" transform="scale(0.015625)"/>
      <path d="M 4511 3025 
L 3516 3025 
Q 3459 3409 3188 3628 
Q 2918 3848 2514 3848 
Q 1973 3848 1647 3451 
Q 1321 3055 1321 2327 
Q 1321 1582 1649 1194 
Q 1977 807 2507 807 
Q 2900 807 3173 1012 
Q 3446 1218 3516 1591 
L 4511 1586 
Q 4459 1159 4207 782 
Q 3955 405 3522 170 
Q 3089 -64 2491 -64 
Q 1868 -64 1378 218 
Q 889 500 606 1034 
Q 323 1568 323 2327 
Q 323 3089 609 3623 
Q 896 4157 1386 4437 
Q 1877 4718 2491 4718 
Q 3030 4718 3463 4519 
Q 3896 4320 4172 3942 
Q 4448 3564 4511 3025 
z
" id="Inter-Bold-43" transform="scale(0.015625)"/>
      <path d="M 4682 2327 
Q 4682 1566 4394 1032 
Q 4107 498 3614 217 
Q 3121 -64 2502 -64 
Q 1882 -64 1389 218 
Q 896 500 609 1035 
Q 323 1570 323 2327 
Q 323 3089 609 3623 
Q 896 4157 1389 4437 
Q 1882 4718 2502 4718 
Q 3121 4718 3614 4437 
Q 4107 4157 4394 3623 
Q 4682 3089 4682 2327 
z
M 3684 2327 
Q 3684 3068 3361 3458 
Q 3039 3848 2502 3848 
Q 1966 3848 1643 3458 
Q 1321 3068 1321 2327 
Q 1321 1589 1643 1198 
Q 1966 807 2502 807 
Q 3039 807 3361 1198 
Q 3684 1589 3684 2327 
z
" id="Inter-Bold-4f" transform="scale(0.015625)"/>
      <path d="M 1246 4655 
L 2371 1118 
L 2414 1118 
L 3541 4655 
L 4632 4655 
L 3027 0 
L 1759 0 
L 152 4655 
L 1246 4655 
z
" id="Inter-Bold-56" transform="scale(0.015625)"/>
      <path d="M 1389 4655 
L 1389 0 
L 405 0 
L 405 4655 
L 1389 4655 
z
" id="Inter-Bold-49" transform="scale(0.015625)"/>
      <path d="M 2055 0 
L 405 0 
L 405 4655 
L 2068 4655 
Q 2771 4655 3278 4376 
Q 3786 4098 4059 3577 
Q 4332 3057 4332 2332 
Q 4332 1605 4058 1082 
Q 3784 559 3274 279 
Q 2764 0 2055 0 
z
M 1389 843 
L 2014 843 
Q 2671 843 3010 1197 
Q 3350 1552 3350 2332 
Q 3350 3107 3010 3459 
Q 2671 3811 2016 3811 
L 1389 3811 
L 1389 843 
z
" id="Inter-Bold-44" transform="scale(0.015625)"/>
      <path d="M 2561 2295 
L 2561 1527 
L 439 1527 
L 439 2295 
L 2561 2295 
z
" id="Inter-Bold-2d" transform="scale(0.015625)"/>
      <path d="M 2305 4655 
L 2305 0 
L 1323 0 
L 1323 3450 
L 1280 3450 
Q 1205 3334 961 3219 
Q 718 3105 332 3105 
L 332 3886 
Q 632 3886 857 4019 
Q 1082 4152 1209 4333 
Q 1336 4514 1341 4655 
L 2305 4655 
z
" id="Inter-Bold-31" transform="scale(0.015625)"/>
      <path d="M 2061 4732 
Q 2421 4732 2753 4612 
Q 3086 4493 3348 4227 
Q 3611 3961 3766 3523 
Q 3921 3086 3921 2448 
Q 3921 1659 3686 1096 
Q 3452 534 3028 235 
Q 2605 -64 2027 -64 
Q 1561 -64 1204 117 
Q 848 298 631 610 
Q 414 923 368 1314 
L 1339 1314 
Q 1396 1059 1577 919 
Q 1759 780 2027 780 
Q 2482 780 2718 1176 
Q 2955 1573 2957 2264 
L 2925 2264 
Q 2771 1957 2453 1782 
Q 2136 1607 1752 1607 
Q 1341 1607 1016 1801 
Q 691 1995 506 2334 
Q 321 2673 323 3109 
Q 321 3582 539 3949 
Q 757 4316 1149 4525 
Q 1541 4734 2061 4732 
z
M 2068 3959 
Q 1725 3959 1500 3722 
Q 1275 3486 1277 3136 
Q 1275 2791 1496 2555 
Q 1718 2320 2059 2320 
Q 2284 2320 2465 2431 
Q 2646 2543 2751 2729 
Q 2857 2916 2859 3141 
Q 2857 3366 2753 3551 
Q 2650 3736 2473 3847 
Q 2296 3959 2068 3959 
z
" id="Inter-Bold-39" transform="scale(0.015625)"/>
      <path d="M 386 -1309 
L 386 3491 
L 1341 3491 
L 1341 2905 
L 1384 2905 
Q 1450 3048 1570 3193 
Q 1691 3339 1888 3437 
Q 2086 3536 2377 3536 
Q 2761 3536 3081 3337 
Q 3402 3139 3596 2740 
Q 3791 2341 3791 1741 
Q 3791 1157 3602 756 
Q 3414 355 3093 149 
Q 2773 -57 2375 -57 
Q 2093 -57 1896 36 
Q 1700 130 1576 272 
Q 1452 414 1384 559 
L 1355 559 
L 1355 -1309 
L 386 -1309 
z
M 1334 1745 
Q 1334 1280 1526 997 
Q 1718 714 2068 714 
Q 2425 714 2613 1001 
Q 2802 1289 2802 1745 
Q 2802 2200 2614 2483 
Q 2427 2766 2068 2766 
Q 1716 2766 1525 2490 
Q 1334 2214 1334 1745 
z
" id="Inter-Bold-70" transform="scale(0.015625)"/>
      <path d="M 2243 3491 
L 2243 2764 
L 1586 2764 
L 1586 1073 
Q 1586 873 1677 802 
Q 1768 732 1914 732 
Q 1982 732 2050 744 
Q 2118 757 2155 764 
L 2307 43 
Q 2234 20 2102 -10 
Q 1971 -41 1782 -48 
Q 1255 -70 935 181 
Q 616 432 618 945 
L 618 2764 
L 141 2764 
L 141 3491 
L 618 3491 
L 618 4327 
L 1586 4327 
L 1586 3491 
L 2243 3491 
z
" id="Inter-Bold-74" transform="scale(0.015625)"/>
      <path d="M 386 0 
L 386 3491 
L 1355 3491 
L 1355 0 
L 386 0 
z
M 876 3941 
Q 662 3941 507 4085 
Q 353 4230 353 4432 
Q 353 4634 507 4777 
Q 662 4920 876 4920 
Q 1092 4920 1246 4777 
Q 1401 4634 1401 4432 
Q 1401 4230 1246 4085 
Q 1092 3941 876 3941 
z
" id="Inter-Bold-69" transform="scale(0.015625)"/>
      <path d="M 1355 2018 
L 1355 0 
L 386 0 
L 386 3491 
L 1309 3491 
L 1309 2875 
L 1350 2875 
Q 1468 3180 1739 3358 
Q 2011 3536 2400 3536 
Q 2946 3536 3275 3185 
Q 3605 2834 3605 2223 
L 3605 0 
L 2636 0 
L 2636 2050 
Q 2639 2370 2473 2551 
Q 2307 2732 2016 2732 
Q 1723 2732 1540 2544 
Q 1357 2357 1355 2018 
z
" id="Inter-Bold-6e" transform="scale(0.015625)"/>
      <path d="M 3291 2495 
L 2405 2441 
Q 2368 2609 2220 2729 
Q 2073 2850 1821 2850 
Q 1596 2850 1440 2755 
Q 1284 2661 1286 2505 
Q 1284 2380 1385 2293 
Q 1486 2207 1730 2155 
L 2361 2027 
Q 3368 1820 3371 1082 
Q 3371 739 3169 479 
Q 2968 220 2618 76 
Q 2268 -68 1816 -68 
Q 1123 -68 711 221 
Q 300 511 232 1011 
L 1184 1061 
Q 1230 848 1394 739 
Q 1559 630 1818 630 
Q 2073 630 2228 730 
Q 2384 830 2386 984 
Q 2380 1243 1939 1332 
L 1334 1452 
Q 321 1655 325 2450 
Q 323 2955 728 3245 
Q 1134 3536 1805 3536 
Q 2466 3536 2846 3256 
Q 3227 2977 3291 2495 
z
" id="Inter-Bold-73" transform="scale(0.015625)"/>
      <path d="M 386 0 
L 386 3491 
L 1309 3491 
L 1309 2875 
L 1350 2875 
Q 1459 3184 1715 3360 
Q 1971 3536 2323 3536 
Q 2682 3536 2934 3358 
Q 3186 3180 3271 2875 
L 3307 2875 
Q 3414 3175 3694 3355 
Q 3975 3536 4359 3536 
Q 4848 3536 5153 3226 
Q 5459 2916 5459 2348 
L 5459 0 
L 4493 0 
L 4493 2157 
Q 4493 2448 4338 2593 
Q 4184 2739 3952 2739 
Q 3689 2739 3541 2570 
Q 3393 2402 3393 2132 
L 3393 0 
L 2455 0 
L 2455 2177 
Q 2455 2434 2308 2586 
Q 2161 2739 1923 2739 
Q 1682 2739 1518 2562 
Q 1355 2386 1355 2095 
L 1355 0 
L 386 0 
z
" id="Inter-Bold-6d" transform="scale(0.015625)"/>
      <path d="M 1964 -68 
Q 1427 -68 1042 160 
Q 657 389 451 795 
Q 246 1202 246 1732 
Q 246 2268 453 2674 
Q 661 3080 1045 3308 
Q 1430 3536 1959 3536 
Q 2416 3536 2760 3370 
Q 3105 3205 3303 2905 
Q 3502 2605 3523 2200 
L 2609 2200 
Q 2571 2461 2406 2621 
Q 2241 2782 1975 2782 
Q 1639 2782 1434 2511 
Q 1230 2241 1230 1745 
Q 1230 1245 1433 971 
Q 1636 698 1975 698 
Q 2225 698 2395 849 
Q 2566 1000 2609 1280 
L 3523 1280 
Q 3500 880 3305 575 
Q 3111 270 2770 101 
Q 2430 -68 1964 -68 
z
" id="Inter-Bold-63" transform="scale(0.015625)"/>
      <path d="M 1355 2018 
L 1355 0 
L 386 0 
L 386 4655 
L 1327 4655 
L 1327 2875 
L 1368 2875 
Q 1489 3184 1751 3360 
Q 2014 3536 2411 3536 
Q 2957 3536 3289 3186 
Q 3621 2836 3618 2223 
L 3618 0 
L 2650 0 
L 2650 2050 
Q 2652 2373 2487 2552 
Q 2323 2732 2027 2732 
Q 1732 2732 1544 2544 
Q 1357 2357 1355 2018 
z
" id="Inter-Bold-68" transform="scale(0.015625)"/>
      <path d="M 1355 4655 
L 1355 0 
L 386 0 
L 386 4655 
L 1355 4655 
z
" id="Inter-Bold-6c" transform="scale(0.015625)"/>
      <path d="M 1964 -68 
Q 1434 -68 1049 158 
Q 664 384 455 789 
Q 246 1195 246 1732 
Q 246 2273 455 2678 
Q 664 3084 1049 3310 
Q 1434 3536 1964 3536 
Q 2493 3536 2878 3310 
Q 3264 3084 3473 2678 
Q 3682 2273 3682 1732 
Q 3682 1195 3473 789 
Q 3264 384 2878 158 
Q 2493 -68 1964 -68 
z
M 1968 682 
Q 2327 682 2512 982 
Q 2698 1282 2698 1739 
Q 2698 2195 2512 2496 
Q 2327 2798 1968 2798 
Q 1602 2798 1416 2496 
Q 1230 2195 1230 1739 
Q 1230 1282 1416 982 
Q 1602 682 1968 682 
z
" id="Inter-Bold-6f" transform="scale(0.015625)"/>
      <path d="M 405 0 
L 405 4655 
L 1373 4655 
L 1373 2905 
L 1402 2905 
Q 1468 3048 1588 3193 
Q 1709 3339 1907 3437 
Q 2105 3536 2396 3536 
Q 2780 3536 3100 3337 
Q 3421 3139 3615 2740 
Q 3809 2341 3809 1741 
Q 3809 1157 3620 756 
Q 3432 355 3111 149 
Q 2791 -57 2393 -57 
Q 2111 -57 1914 36 
Q 1718 130 1594 272 
Q 1471 414 1402 559 
L 1359 559 
L 1359 0 
L 405 0 
z
M 1352 1745 
Q 1352 1280 1544 997 
Q 1736 714 2086 714 
Q 2443 714 2632 1001 
Q 2821 1289 2821 1745 
Q 2821 2200 2633 2483 
Q 2446 2766 2086 2766 
Q 1734 2766 1543 2490 
Q 1352 2214 1352 1745 
z
" id="Inter-Bold-62" transform="scale(0.015625)"/>
      <path d="M 1673 -57 
Q 1275 -57 954 149 
Q 634 355 445 756 
Q 257 1157 257 1741 
Q 257 2341 451 2740 
Q 646 3139 967 3337 
Q 1289 3536 1671 3536 
Q 1964 3536 2160 3437 
Q 2357 3339 2478 3193 
Q 2600 3048 2664 2905 
L 2693 2905 
L 2693 4655 
L 3659 4655 
L 3659 0 
L 2705 0 
L 2705 559 
L 2664 559 
Q 2598 414 2473 272 
Q 2348 130 2151 36 
Q 1955 -57 1673 -57 
z
M 1980 714 
Q 2330 714 2522 997 
Q 2714 1280 2714 1745 
Q 2714 2214 2523 2490 
Q 2332 2766 1980 2766 
Q 1621 2766 1433 2483 
Q 1246 2200 1246 1745 
Q 1246 1289 1434 1001 
Q 1623 714 1980 714 
z
" id="Inter-Bold-64" transform="scale(0.015625)"/>
      <path d="M 950 -1359 
Q 743 -1359 596 -1324 
Q 450 -1289 368 -1252 
L 586 -502 
Q 843 -580 1019 -543 
Q 1196 -507 1298 -268 
L 1361 -100 
L 109 3491 
L 1127 3491 
L 1850 927 
L 1886 927 
L 2616 3491 
L 3641 3491 
L 2277 -400 
Q 2130 -818 1806 -1088 
Q 1482 -1359 950 -1359 
z
" id="Inter-Bold-79" transform="scale(0.015625)"/>
      <path d="M 1439 636 
L 1414 386 
Q 1384 86 1301 -212 
Q 1218 -511 1128 -754 
Q 1039 -998 984 -1136 
L 357 -1136 
Q 391 -1002 450 -763 
Q 509 -525 561 -226 
Q 614 73 627 382 
L 639 636 
L 1439 636 
z
" id="Inter-Bold-2c" transform="scale(0.015625)"/>
     </defs>
     <use xlink:href="#Inter-Bold-41"/>
     <use x="74.786942" xlink:href="#Inter-Bold-76"/>
     <use x="133.380707" xlink:href="#Inter-Bold-65"/>
     <use x="193.146347" xlink:href="#Inter-Bold-72"/>
     <use x="236.008575" xlink:href="#Inter-Bold-61"/>
     <use x="294.034149" xlink:href="#Inter-Bold-67"/>
     <use x="357.350922" xlink:href="#Inter-Bold-65"/>
     <use x="417.116562" xlink:href="#Inter-Bold-20"/>
     <use x="440.305481" xlink:href="#Inter-Bold-43"/>
     <use x="515.51857" xlink:href="#Inter-Bold-4f"/>
     <use x="593.714615" xlink:href="#Inter-Bold-56"/>
     <use x="668.501556" xlink:href="#Inter-Bold-49"/>
     <use x="696.555542" xlink:href="#Inter-Bold-44"/>
     <use x="769.282837" xlink:href="#Inter-Bold-2d"/>
     <use x="816.157852" xlink:href="#Inter-Bold-31"/>
     <use x="863.565536" xlink:href="#Inter-Bold-39"/>
     <use x="929.581177" xlink:href="#Inter-Bold-20"/>
     <use x="952.770096" xlink:href="#Inter-Bold-70"/>
     <use x="1016.015854" xlink:href="#Inter-Bold-61"/>
     <use x="1074.041428" xlink:href="#Inter-Bold-74"/>
     <use x="1112.890869" xlink:href="#Inter-Bold-69"/>
     <use x="1140.092575" xlink:href="#Inter-Bold-65"/>
     <use x="1199.858215" xlink:href="#Inter-Bold-6e"/>
     <use x="1262.03862" xlink:href="#Inter-Bold-74"/>
     <use x="1300.888062" xlink:href="#Inter-Bold-73"/>
     <use x="1357.067047" xlink:href="#Inter-Bold-20"/>
     <use x="1380.255966" xlink:href="#Inter-Bold-69"/>
     <use x="1407.457672" xlink:href="#Inter-Bold-6e"/>
     <use x="1469.638077" xlink:href="#Inter-Bold-20"/>
     <use x="1492.826996" xlink:href="#Inter-Bold-6d"/>
     <use x="1584.020203" xlink:href="#Inter-Bold-65"/>
     <use x="1643.785843" xlink:href="#Inter-Bold-63"/>
     <use x="1702.521652" xlink:href="#Inter-Bold-68"/>
     <use x="1764.950638" xlink:href="#Inter-Bold-61"/>
     <use x="1822.976212" xlink:href="#Inter-Bold-6e"/>
     <use x="1885.156616" xlink:href="#Inter-Bold-69"/>
     <use x="1912.358322" xlink:href="#Inter-Bold-63"/>
     <use x="1971.094131" xlink:href="#Inter-Bold-61"/>
     <use x="2029.119705" xlink:href="#Inter-Bold-6c"/>
     <use x="2056.321411" xlink:href="#Inter-Bold-20"/>
     <use x="2079.51033" xlink:href="#Inter-Bold-76"/>
     <use x="2138.104095" xlink:href="#Inter-Bold-65"/>
     <use x="2197.869736" xlink:href="#Inter-Bold-6e"/>
     <use x="2260.05014" xlink:href="#Inter-Bold-74"/>
     <use x="2298.899582" xlink:href="#Inter-Bold-69"/>
     <use x="2326.101288" xlink:href="#Inter-Bold-6c"/>
     <use x="2353.302994" xlink:href="#Inter-Bold-61"/>
     <use x="2411.328568" xlink:href="#Inter-Bold-74"/>
     <use x="2450.178009" xlink:href="#Inter-Bold-69"/>
     <use x="2477.379715" xlink:href="#Inter-Bold-6f"/>
     <use x="2538.743362" xlink:href="#Inter-Bold-6e"/>
     <use x="2600.923767" xlink:href="#Inter-Bold-20"/>
     <use x="2624.112686" xlink:href="#Inter-Bold-62"/>
     <use x="2687.642532" xlink:href="#Inter-Bold-65"/>
     <use x="2747.408173" xlink:href="#Inter-Bold-64"/>
     <use x="2810.938019" xlink:href="#Inter-Bold-73"/>
     <use x="2867.117004" xlink:href="#Inter-Bold-20"/>
     <use x="2890.305923" xlink:href="#Inter-Bold-62"/>
     <use x="2953.83577" xlink:href="#Inter-Bold-79"/>
     <use x="3012.429535" xlink:href="#Inter-Bold-20"/>
     <use x="3035.618454" xlink:href="#Inter-Bold-6e"/>
     <use x="3097.798859" xlink:href="#Inter-Bold-61"/>
     <use x="3155.824432" xlink:href="#Inter-Bold-74"/>
     <use x="3194.673874" xlink:href="#Inter-Bold-69"/>
     <use x="3221.87558" xlink:href="#Inter-Bold-6f"/>
     <use x="3283.239227" xlink:href="#Inter-Bold-6e"/>
     <use x="3345.419632" xlink:href="#Inter-Bold-2c"/>
     <use x="3375.710831" xlink:href="#Inter-Bold-20"/>
     <use x="3398.89975" xlink:href="#Inter-Bold-70"/>
     <use x="3462.145508" xlink:href="#Inter-Bold-65"/>
     <use x="3521.911148" xlink:href="#Inter-Bold-72"/>
     <use x="3564.773376" xlink:href="#Inter-Bold-20"/>
     <use x="3587.962296" xlink:href="#Inter-Bold-63"/>
     <use x="3646.698105" xlink:href="#Inter-Bold-61"/>
     <use x="3704.723679" xlink:href="#Inter-Bold-70"/>
     <use x="3767.969437" xlink:href="#Inter-Bold-69"/>
     <use x="3795.171143" xlink:href="#Inter-Bold-74"/>
     <use x="3834.020584" xlink:href="#Inter-Bold-61"/>
    </g>
   </g>
   <g id="legend_1">
    <g id="patch_4">
     <path d="M 627.851562 98.614062 
L 737.425 98.614062 
Q 739.425 98.614062 739.425 96.614062 
L 739.425 40.225 
Q 739.425 38.225 737.425 38.225 
L 627.851562 38.225 
Q 625.851562 38.225 625.851562 40.225 
L 625.851562 96.614062 
Q 625.851562 98.614062 627.851562 98.614062 
z
" style="fill:#ffffff;opacity:0.8;stroke:#cccccc;stroke-linejoin:miter;"/>
    </g>
    <g id="line2d_35">
     <path d="M 629.851562 45.998437 
L 649.851562 45.998437 
" style="fill:none;stroke:#d4351c;stroke-linecap:square;stroke-width:2;"/>
    </g>
    <g id="line2d_36"/>
    <g id="text_18">
     <!-- Wales -->
     <g transform="translate(657.851562 49.498437)scale(0.1 -0.1)">
      <defs>
       <path d="M 1409 0 
L 136 4655 
L 709 4655 
L 1682 864 
L 1727 864 
L 2718 4655 
L 3355 4655 
L 4346 864 
L 4391 864 
L 5364 4655 
L 5936 4655 
L 4664 0 
L 4082 0 
L 3055 3709 
L 3018 3709 
L 1991 0 
L 1409 0 
z
" id="Inter-Regular-57" transform="scale(0.015625)"/>
      </defs>
      <use xlink:href="#Inter-Regular-57"/>
      <use x="94.886383" xlink:href="#Inter-Regular-61"/>
      <use x="151.278442" xlink:href="#Inter-Regular-6c"/>
      <use x="175.000031" xlink:href="#Inter-Regular-65"/>
      <use x="233.238678" xlink:href="#Inter-Regular-73"/>
     </g>
    </g>
    <g id="line2d_37">
     <path d="M 629.851562 60.317187 
L 649.851562 60.317187 
" style="fill:none;stroke:#003078;stroke-linecap:square;stroke-width:2;"/>
    </g>
    <g id="line2d_38"/>
    <g id="text_19">
     <!-- Scotland -->
     <g transform="translate(657.851562 63.817187)scale(0.1 -0.1)">
      <use xlink:href="#Inter-Regular-53"/>
      <use x="63.778427" xlink:href="#Inter-Regular-63"/>
      <use x="119.602295" xlink:href="#Inter-Regular-6f"/>
      <use x="179.261398" xlink:href="#Inter-Regular-74"/>
      <use x="215.625046" xlink:href="#Inter-Regular-6c"/>
      <use x="239.346634" xlink:href="#Inter-Regular-61"/>
      <use x="295.738693" xlink:href="#Inter-Regular-6e"/>
      <use x="354.261429" xlink:href="#Inter-Regular-64"/>
     </g>
    </g>
    <g id="line2d_39">
     <path d="M 629.851562 74.635937 
L 649.851562 74.635937 
" style="fill:none;stroke:#ffdd00;stroke-linecap:square;stroke-width:2;"/>
    </g>
    <g id="line2d_40"/>
    <g id="text_20">
     <!-- Northern Ireland -->
     <g transform="translate(657.851562 78.135937)scale(0.1 -0.1)">
      <defs>
       <path d="M 1127 4655 
L 1127 0 
L 564 0 
L 564 4655 
L 1127 4655 
z
" id="Inter-Regular-49" transform="scale(0.015625)"/>
      </defs>
      <use xlink:href="#Inter-Regular-4e"/>
      <use x="75.284103" xlink:href="#Inter-Regular-6f"/>
      <use x="134.943207" xlink:href="#Inter-Regular-72"/>
      <use x="173.295486" xlink:href="#Inter-Regular-74"/>
      <use x="209.659134" xlink:href="#Inter-Regular-68"/>
      <use x="268.750061" xlink:href="#Inter-Regular-65"/>
      <use x="326.988708" xlink:href="#Inter-Regular-72"/>
      <use x="365.340988" xlink:href="#Inter-Regular-6e"/>
      <use x="423.863724" xlink:href="#Inter-Regular-20"/>
      <use x="451.988724" xlink:href="#Inter-Regular-49"/>
      <use x="478.40918" xlink:href="#Inter-Regular-72"/>
      <use x="516.761459" xlink:href="#Inter-Regular-65"/>
      <use x="575.000107" xlink:href="#Inter-Regular-6c"/>
      <use x="598.721695" xlink:href="#Inter-Regular-61"/>
      <use x="655.113754" xlink:href="#Inter-Regular-6e"/>
      <use x="713.63649" xlink:href="#Inter-Regular-64"/>
     </g>
    </g>
    <g id="line2d_41">
     <path d="M 629.851562 88.954687 
L 649.851562 88.954687 
" style="fill:none;stroke:#5694ca;stroke-linecap:square;stroke-width:2;"/>
    </g>
    <g id="line2d_42"/>
    <g id="text_21">
     <!-- England -->
     <g transform="translate(657.851562 92.454687)scale(0.1 -0.1)">
      <defs>
       <path d="M 564 0 
L 564 4655 
L 3373 4655 
L 3373 4155 
L 1127 4155 
L 1127 2582 
L 3227 2582 
L 3227 2082 
L 1127 2082 
L 1127 500 
L 3409 500 
L 3409 0 
L 564 0 
z
" id="Inter-Regular-45" transform="scale(0.015625)"/>
      </defs>
      <use xlink:href="#Inter-Regular-45"/>
      <use x="59.801147" xlink:href="#Inter-Regular-6e"/>
      <use x="118.323883" xlink:href="#Inter-Regular-67"/>
      <use x="179.261398" xlink:href="#Inter-Regular-6c"/>
      <use x="202.982986" xlink:href="#Inter-Regular-61"/>
      <use x="259.375046" xlink:href="#Inter-Regular-6e"/>
      <use x="317.897781" xlink:href="#Inter-Regular-64"/>
     </g>
    </g>
   </g>
  </g>
 </g>
 <defs>
  <clipPath id="pf7a57f7dd6">
   <rect height="443.52" width="669.6" x="74.825" y="33.225"/>
  </clipPath>
 </defs>
</svg>
